<?xml version="1.0" encoding="UTF-8" standalone="no"?>
<!DOCTYPE svg PUBLIC "-//W3C//DTD SVG 1.1//EN"
 "http://www.w3.org/Graphics/SVG/1.1/DTD/svg11.dtd">
<!-- Generated by graphviz version 2.43.0 (0)
 -->
<!-- Title: G Pages: 1 -->
<svg width="925pt" height="321pt"
 viewBox="0.00 0.00 925.39 321.00" xmlns="http://www.w3.org/2000/svg" xmlns:xlink="http://www.w3.org/1999/xlink">
<g id="graph0" class="graph" transform="scale(1 1) rotate(0) translate(4 317)">
<title>G</title>
<polygon fill="#fffacd" stroke="transparent" points="-4,4 -4,-317 921.39,-317 921.39,4 -4,4"/>
<g id="clust1" class="cluster">
<title>cluster_1</title>
<polygon fill="#fffacd" stroke="black" points="469.69,-8 469.69,-234 737.69,-234 737.69,-8 469.69,-8"/>
</g>
<!-- Node1_1 -->
<g id="node1" class="node">
<title>Node1_1</title>
<ellipse fill="#93db70" stroke="#93db70" cx="533.69" cy="-121" rx="55.79" ry="18"/>
<text text-anchor="middle" x="533.69" y="-117.3" font-family="Times,serif" font-size="14.00">वासांसि(1.1)</text>
</g>
<!-- Node4_1 -->
<g id="node2" class="node">
<title>Node4_1</title>
<ellipse fill="#93db70" stroke="#93db70" cx="537.69" cy="-208" rx="58.49" ry="18"/>
<text text-anchor="middle" x="537.69" y="-204.3" font-family="Times,serif" font-size="14.00">माल्यानि(4.1)</text>
</g>
<!-- Node1_1&#45;&gt;Node4_1 -->
<g id="edge1" class="edge">
<title>Node1_1&#45;&gt;Node4_1</title>
<path fill="none" stroke="black" d="M534.98,-149.27C535.6,-162.58 536.34,-178.19 536.89,-189.82"/>
<polygon fill="black" stroke="black" points="538.47,-149.03 534.5,-139.2 531.48,-149.35 538.47,-149.03"/>
<text text-anchor="middle" x="558.19" y="-160.8" font-family="Times,serif" font-size="14.00">समुच्चितः</text>
</g>
<!-- Node7_1 -->
<g id="node6" class="node">
<title>Node7_1</title>
<ellipse fill="#ff1975" stroke="#ff1975" cx="311.69" cy="-295" rx="56.59" ry="18"/>
<text text-anchor="middle" x="311.69" y="-291.3" font-family="Times,serif" font-size="14.00">उपाजह्रुः(7.1)</text>
</g>
<!-- Node4_1&#45;&gt;Node7_1 -->
<g id="edge4" class="edge">
<title>Node4_1&#45;&gt;Node7_1</title>
<path fill="none" stroke="black" d="M492.77,-225.9C449.82,-242.05 385.96,-266.07 346.68,-280.84"/>
<polygon fill="black" stroke="black" points="494.01,-229.17 502.13,-222.37 491.54,-222.62 494.01,-229.17"/>
<text text-anchor="middle" x="447.69" y="-247.8" font-family="Times,serif" font-size="14.00">कर्म</text>
</g>
<!-- Node3_1 -->
<g id="node3" class="node">
<title>Node3_1</title>
<ellipse fill="#93db70" stroke="#93db70" cx="537.69" cy="-34" rx="59.59" ry="18"/>
<text text-anchor="middle" x="537.69" y="-30.3" font-family="Times,serif" font-size="14.00">महार्हाणि(3.1)</text>
</g>
<!-- Node3_1&#45;&gt;Node1_1 -->
<g id="edge3" class="edge">
<title>Node3_1&#45;&gt;Node1_1</title>
<path fill="none" stroke="black" d="M536.41,-62.27C535.78,-75.58 535.05,-91.19 534.5,-102.82"/>
<polygon fill="black" stroke="black" points="539.91,-62.35 536.88,-52.2 532.92,-62.03 539.91,-62.35"/>
<text text-anchor="middle" x="558.19" y="-73.8" font-family="Times,serif" font-size="14.00">विशेषणम्</text>
</g>
<!-- Node5_1 -->
<g id="node4" class="node">
<title>Node5_1</title>
<ellipse fill="#93db70" stroke="#93db70" cx="668.69" cy="-121" rx="61.19" ry="18"/>
<text text-anchor="middle" x="668.69" y="-117.3" font-family="Times,serif" font-size="14.00">विविधानि(5.1)</text>
</g>
<!-- Node5_1&#45;&gt;Node4_1 -->
<g id="edge5" class="edge">
<title>Node5_1&#45;&gt;Node4_1</title>
<path fill="none" stroke="black" d="M636.2,-143.09C613.06,-158.1 582.48,-177.94 561.57,-191.51"/>
<polygon fill="black" stroke="black" points="638.18,-145.97 644.67,-137.59 634.37,-140.1 638.18,-145.97"/>
<text text-anchor="middle" x="633.19" y="-160.8" font-family="Times,serif" font-size="14.00">विशेषणम्</text>
</g>
<!-- Node2_1 -->
<g id="node5" class="node">
<title>Node2_1</title>
<ellipse fill="#ff99ff" stroke="#ff99ff" cx="783.69" cy="-34" rx="37.89" ry="18"/>
<text text-anchor="middle" x="783.69" y="-30.3" font-family="Times,serif" font-size="14.00">च(2.1)</text>
</g>
<!-- Node2_1&#45;&gt;Node1_1 -->
<g id="edge2" class="edge">
<title>Node2_1&#45;&gt;Node1_1</title>
<path fill="none" stroke="black" d="M746.65,-50.16C744.98,-50.79 743.32,-51.41 741.69,-52 683.53,-73.25 615.11,-95.01 573.07,-108.01"/>
<polygon fill="black" stroke="black" points="748.18,-53.31 756.24,-46.43 745.65,-46.79 748.18,-53.31"/>
<text text-anchor="middle" x="722.69" y="-73.8" font-family="Times,serif" font-size="14.00">समुच्चय_द्योतकः</text>
</g>
<!-- Node6_1 -->
<g id="node7" class="node">
<title>Node6_1</title>
<ellipse fill="#ff99ff" stroke="#ff99ff" cx="879.69" cy="-34" rx="37.89" ry="18"/>
<text text-anchor="middle" x="879.69" y="-30.3" font-family="Times,serif" font-size="14.00">च(6.1)</text>
</g>
<!-- Node6_1&#45;&gt;Node5_1 -->
<g id="edge6" class="edge">
<title>Node6_1&#45;&gt;Node5_1</title>
<path fill="none" stroke="black" d="M873.2,-62.1C869.89,-70.6 864.96,-79.25 857.69,-85 837.75,-100.79 774.49,-110.19 726.61,-115.21"/>
<polygon fill="black" stroke="black" points="876.6,-62.97 876.39,-52.38 869.95,-60.79 876.6,-62.97"/>
<text text-anchor="middle" x="887.19" y="-73.8" font-family="Times,serif" font-size="14.00">सम्बन्धः</text>
</g>
<!-- Node10_1 -->
<g id="node8" class="node">
<title>Node10_1</title>
<ellipse fill="#00bfff" stroke="#00bfff" cx="63.69" cy="-208" rx="63.89" ry="18"/>
<text text-anchor="middle" x="63.69" y="-204.3" font-family="Times,serif" font-size="14.00">पाण्डवाः(10.1)</text>
</g>
<!-- Node10_1&#45;&gt;Node7_1 -->
<g id="edge10" class="edge">
<title>Node10_1&#45;&gt;Node7_1</title>
<path fill="none" stroke="black" d="M111.76,-225.73C119.75,-228.5 127.96,-231.34 135.69,-234 183.47,-250.44 238.61,-269.2 274.25,-281.3"/>
<polygon fill="black" stroke="black" points="112.76,-222.37 102.17,-222.4 110.47,-228.99 112.76,-222.37"/>
<text text-anchor="middle" x="219.69" y="-247.8" font-family="Times,serif" font-size="14.00">कर्ता</text>
</g>
<!-- Node8_1 -->
<g id="node9" class="node">
<title>Node8_1</title>
<ellipse fill="#ffff00" stroke="#ffff00" cx="191.69" cy="-121" rx="48.19" ry="18"/>
<text text-anchor="middle" x="191.69" y="-117.3" font-family="Times,serif" font-size="14.00">यथा&#45;(8.1)</text>
</g>
<!-- Node8_2 -->
<g id="node10" class="node">
<title>Node8_2</title>
<ellipse fill="#ff99ff" stroke="#ff99ff" cx="191.69" cy="-208" rx="46.59" ry="18"/>
<text text-anchor="middle" x="191.69" y="-204.3" font-family="Times,serif" font-size="14.00">न्यायं(8.2)</text>
</g>
<!-- Node8_1&#45;&gt;Node8_2 -->
<g id="edge7" class="edge">
<title>Node8_1&#45;&gt;Node8_2</title>
<path fill="none" stroke="black" d="M191.69,-149.27C191.69,-162.58 191.69,-178.19 191.69,-189.82"/>
<polygon fill="black" stroke="black" points="195.19,-149.2 191.69,-139.2 188.19,-149.2 195.19,-149.2"/>
<text text-anchor="middle" x="201.19" y="-160.8" font-family="Times,serif" font-size="14.00">A1</text>
</g>
<!-- Node8_2&#45;&gt;Node7_1 -->
<g id="edge8" class="edge">
<title>Node8_2&#45;&gt;Node7_1</title>
<path fill="none" stroke="black" d="M219.91,-230.62C231.78,-239.56 245.79,-249.94 258.69,-259 268.08,-265.59 278.58,-272.6 287.75,-278.61"/>
<polygon fill="black" stroke="black" points="221.79,-227.65 211.7,-224.4 217.56,-233.23 221.79,-227.65"/>
<text text-anchor="middle" x="293.69" y="-247.8" font-family="Times,serif" font-size="14.00">क्रियाविशेषणम्</text>
</g>
<!-- Node9_1 -->
<g id="node11" class="node">
<title>Node9_1</title>
<ellipse fill="#b0e2ff" stroke="#b0e2ff" cx="358.69" cy="-208" rx="102.08" ry="18"/>
<text text-anchor="middle" x="358.69" y="-204.3" font-family="Times,serif" font-size="14.00">धृतराष्ट्रस्य(धृतराष्ट्राय)(9.1)</text>
</g>
<!-- Node9_1&#45;&gt;Node7_1 -->
<g id="edge9" class="edge">
<title>Node9_1&#45;&gt;Node7_1</title>
<path fill="none" stroke="black" d="M344.24,-235.15C336.68,-248.81 327.66,-265.13 321.03,-277.11"/>
<polygon fill="black" stroke="black" points="347.41,-236.65 349.18,-226.2 341.28,-233.26 347.41,-236.65"/>
<text text-anchor="middle" x="362.19" y="-247.8" font-family="Times,serif" font-size="14.00">सम्प्रदानम्</text>
</g>
</g>
</svg>
