<?xml version="1.0" encoding="UTF-8" standalone="no"?>
<!DOCTYPE svg PUBLIC "-//W3C//DTD SVG 1.1//EN"
 "http://www.w3.org/Graphics/SVG/1.1/DTD/svg11.dtd">
<!-- Generated by graphviz version 2.43.0 (0)
 -->
<!-- Title: G Pages: 1 -->
<svg width="878pt" height="321pt"
 viewBox="0.00 0.00 878.00 321.00" xmlns="http://www.w3.org/2000/svg" xmlns:xlink="http://www.w3.org/1999/xlink">
<g id="graph0" class="graph" transform="scale(1 1) rotate(0) translate(4 317)">
<title>G</title>
<polygon fill="#fffacd" stroke="transparent" points="-4,4 -4,-317 874,-317 874,4 -4,4"/>
<g id="clust1" class="cluster">
<title>cluster_1</title>
<polygon fill="#fffacd" stroke="black" points="574,-8 574,-147 722,-147 722,-8 574,-8"/>
</g>
<g id="clust2" class="cluster">
<title>cluster_2</title>
<polygon fill="#fffacd" stroke="black" points="730,-8 730,-147 862,-147 862,-8 730,-8"/>
</g>
<g id="clust3" class="cluster">
<title>cluster_3</title>
<polygon fill="#fffacd" stroke="black" points="8,-95 8,-234 152,-234 152,-95 8,-95"/>
</g>
<!-- Node2_1 -->
<g id="node1" class="node">
<title>Node2_1</title>
<ellipse fill="#00bfff" stroke="#00bfff" cx="648" cy="-34" rx="66.09" ry="18"/>
<text text-anchor="middle" x="648" y="-30.3" font-family="Times,serif" font-size="14.00">पुत्रवियुक्तः(2.1)</text>
</g>
<!-- Node3_1 -->
<g id="node2" class="node">
<title>Node3_1</title>
<ellipse fill="#00bfff" stroke="#00bfff" cx="638" cy="-121" rx="43.59" ry="18"/>
<text text-anchor="middle" x="638" y="-117.3" font-family="Times,serif" font-size="14.00">अयं(3.1)</text>
</g>
<!-- Node2_1&#45;&gt;Node3_1 -->
<g id="edge2" class="edge">
<title>Node2_1&#45;&gt;Node3_1</title>
<path fill="none" stroke="black" d="M644.79,-62.27C643.23,-75.58 641.39,-91.19 640.02,-102.82"/>
<polygon fill="black" stroke="black" points="648.28,-62.54 645.98,-52.2 641.33,-61.72 648.28,-62.54"/>
<text text-anchor="middle" x="665.5" y="-73.8" font-family="Times,serif" font-size="14.00">विशेषणम्</text>
</g>
<!-- Node7_1 -->
<g id="node8" class="node">
<title>Node7_1</title>
<ellipse fill="#ff1975" stroke="#ff1975" cx="504" cy="-208" rx="60.39" ry="18"/>
<text text-anchor="middle" x="504" y="-204.3" font-family="Times,serif" font-size="14.00">आप्नुयात्(7.1)</text>
</g>
<!-- Node3_1&#45;&gt;Node7_1 -->
<g id="edge3" class="edge">
<title>Node3_1&#45;&gt;Node7_1</title>
<path fill="none" stroke="black" d="M623.01,-147.35C616.8,-156.12 608.95,-165.4 600,-172 585.29,-182.84 566.88,-190.63 550.12,-196.06"/>
<polygon fill="black" stroke="black" points="626.03,-149.13 628.65,-138.86 620.2,-145.25 626.03,-149.13"/>
<text text-anchor="middle" x="625" y="-160.8" font-family="Times,serif" font-size="14.00">कर्ता</text>
</g>
<!-- Node5_1 -->
<g id="node3" class="node">
<title>Node5_1</title>
<ellipse fill="#93db70" stroke="#93db70" cx="796" cy="-34" rx="57.69" ry="18"/>
<text text-anchor="middle" x="796" y="-30.3" font-family="Times,serif" font-size="14.00">किञ्चित्(5.1)</text>
</g>
<!-- Node6_1 -->
<g id="node4" class="node">
<title>Node6_1</title>
<ellipse fill="#93db70" stroke="#93db70" cx="792" cy="-121" rx="50.89" ry="18"/>
<text text-anchor="middle" x="792" y="-117.3" font-family="Times,serif" font-size="14.00">दुःखम्(6.1)</text>
</g>
<!-- Node5_1&#45;&gt;Node6_1 -->
<g id="edge5" class="edge">
<title>Node5_1&#45;&gt;Node6_1</title>
<path fill="none" stroke="black" d="M794.72,-62.27C794.09,-75.58 793.36,-91.19 792.81,-102.82"/>
<polygon fill="black" stroke="black" points="798.22,-62.35 795.19,-52.2 791.22,-62.03 798.22,-62.35"/>
<text text-anchor="middle" x="816.5" y="-73.8" font-family="Times,serif" font-size="14.00">विशेषणम्</text>
</g>
<!-- Node6_1&#45;&gt;Node7_1 -->
<g id="edge6" class="edge">
<title>Node6_1&#45;&gt;Node7_1</title>
<path fill="none" stroke="black" d="M749.87,-138.53C741.98,-141.46 733.77,-144.4 726,-147 665.98,-167.06 595.18,-185.28 549.96,-196.25"/>
<polygon fill="black" stroke="black" points="751.16,-141.78 759.28,-134.98 748.69,-135.23 751.16,-141.78"/>
<text text-anchor="middle" x="699" y="-160.8" font-family="Times,serif" font-size="14.00">कर्म</text>
</g>
<!-- Node9_1 -->
<g id="node5" class="node">
<title>Node9_1</title>
<ellipse fill="#00bfff" stroke="#00bfff" cx="80" cy="-121" rx="46.29" ry="18"/>
<text text-anchor="middle" x="80" y="-117.3" font-family="Times,serif" font-size="14.00">राजा(9.1)</text>
</g>
<!-- Node14_1 -->
<g id="node6" class="node">
<title>Node14_1</title>
<ellipse fill="#00bfff" stroke="#00bfff" cx="80" cy="-208" rx="63.89" ry="18"/>
<text text-anchor="middle" x="80" y="-204.3" font-family="Times,serif" font-size="14.00">युधिष्ठिरः(14.1)</text>
</g>
<!-- Node9_1&#45;&gt;Node14_1 -->
<g id="edge9" class="edge">
<title>Node9_1&#45;&gt;Node14_1</title>
<path fill="none" stroke="black" d="M80,-149.27C80,-162.58 80,-178.19 80,-189.82"/>
<polygon fill="black" stroke="black" points="83.5,-149.2 80,-139.2 76.5,-149.2 83.5,-149.2"/>
<text text-anchor="middle" x="102.5" y="-160.8" font-family="Times,serif" font-size="14.00">विशेषणम्</text>
</g>
<!-- Node10_1 -->
<g id="node10" class="node">
<title>Node10_1</title>
<ellipse fill="#ff1975" stroke="#ff1975" cx="305" cy="-295" rx="64.99" ry="18"/>
<text text-anchor="middle" x="305" y="-291.3" font-family="Times,serif" font-size="14.00">अन्वशात्(10.1)</text>
</g>
<!-- Node14_1&#45;&gt;Node10_1 -->
<g id="edge13" class="edge">
<title>Node14_1&#45;&gt;Node10_1</title>
<path fill="none" stroke="black" d="M126.08,-226.41C168.02,-242.25 229.15,-265.35 267.99,-280.02"/>
<polygon fill="black" stroke="black" points="127.24,-223.11 116.65,-222.85 124.77,-229.65 127.24,-223.11"/>
<text text-anchor="middle" x="217" y="-247.8" font-family="Times,serif" font-size="14.00">कर्ता</text>
</g>
<!-- Node1_1 -->
<g id="node7" class="node">
<title>Node1_1</title>
<ellipse fill="#ff99ff" stroke="#ff99ff" cx="323" cy="-121" rx="44.69" ry="18"/>
<text text-anchor="middle" x="323" y="-117.3" font-family="Times,serif" font-size="14.00">यथा(1.1)</text>
</g>
<!-- Node1_1&#45;&gt;Node7_1 -->
<g id="edge1" class="edge">
<title>Node1_1&#45;&gt;Node7_1</title>
<path fill="none" stroke="black" d="M344.93,-145.37C354.86,-154.8 367.22,-165.06 380,-172 402.7,-184.33 430.16,-192.66 453.46,-198.09"/>
<polygon fill="black" stroke="black" points="347.11,-142.61 337.53,-138.08 342.19,-147.59 347.11,-142.61"/>
<text text-anchor="middle" x="415" y="-160.8" font-family="Times,serif" font-size="14.00">क्रियाविशेषणम्</text>
</g>
<!-- Node7_1&#45;&gt;Node10_1 -->
<g id="edge7" class="edge">
<title>Node7_1&#45;&gt;Node10_1</title>
<path fill="none" stroke="black" d="M461.26,-227.26C424.61,-242.91 372.53,-265.16 338.75,-279.58"/>
<polygon fill="black" stroke="black" points="462.87,-230.37 470.69,-223.23 460.12,-223.94 462.87,-230.37"/>
<text text-anchor="middle" x="437.5" y="-247.8" font-family="Times,serif" font-size="14.00">वाक्यकर्म</text>
</g>
<!-- Node4_1 -->
<g id="node9" class="node">
<title>Node4_1</title>
<ellipse fill="#ff99ff" stroke="#ff99ff" cx="423" cy="-121" rx="37.09" ry="18"/>
<text text-anchor="middle" x="423" y="-117.3" font-family="Times,serif" font-size="14.00">न(4.1)</text>
</g>
<!-- Node4_1&#45;&gt;Node7_1 -->
<g id="edge4" class="edge">
<title>Node4_1&#45;&gt;Node7_1</title>
<path fill="none" stroke="black" d="M443.74,-145.69C451.26,-154.11 459.9,-163.58 468,-172 473.92,-178.16 480.59,-184.73 486.56,-190.49"/>
<polygon fill="black" stroke="black" points="446.18,-143.17 436.92,-138.01 440.94,-147.81 446.18,-143.17"/>
<text text-anchor="middle" x="487.5" y="-160.8" font-family="Times,serif" font-size="14.00">प्रतिषेधः</text>
</g>
<!-- Node8_1 -->
<g id="node11" class="node">
<title>Node8_1</title>
<ellipse fill="#ff99ff" stroke="#ff99ff" cx="522" cy="-121" rx="44.39" ry="18"/>
<text text-anchor="middle" x="522" y="-117.3" font-family="Times,serif" font-size="14.00">इति(8.1)</text>
</g>
<!-- Node8_1&#45;&gt;Node7_1 -->
<g id="edge8" class="edge">
<title>Node8_1&#45;&gt;Node7_1</title>
<path fill="none" stroke="black" d="M516.23,-149.27C513.41,-162.58 510.1,-178.19 507.64,-189.82"/>
<polygon fill="black" stroke="black" points="519.71,-149.71 518.36,-139.2 512.86,-148.26 519.71,-149.71"/>
<text text-anchor="middle" x="555" y="-160.8" font-family="Times,serif" font-size="14.00">वाक्यकर्म_द्योतकः</text>
</g>
<!-- Node11_1 -->
<g id="node12" class="node">
<title>Node11_1</title>
<ellipse fill="#93db70" stroke="#93db70" cx="352" cy="-208" rx="55.79" ry="18"/>
<text text-anchor="middle" x="352" y="-204.3" font-family="Times,serif" font-size="14.00">भ्रातॄन्(11.1)</text>
</g>
<!-- Node11_1&#45;&gt;Node10_1 -->
<g id="edge10" class="edge">
<title>Node11_1&#45;&gt;Node10_1</title>
<path fill="none" stroke="black" d="M337.77,-234.74C330.2,-248.42 321.11,-264.86 314.43,-276.95"/>
<polygon fill="black" stroke="black" points="340.94,-236.24 342.71,-225.79 334.81,-232.85 340.94,-236.24"/>
<text text-anchor="middle" x="341" y="-247.8" font-family="Times,serif" font-size="14.00">कर्म</text>
</g>
<!-- Node12_1 -->
<g id="node13" class="node">
<title>Node12_1</title>
<ellipse fill="#93db70" stroke="#93db70" cx="220" cy="-208" rx="58.49" ry="18"/>
<text text-anchor="middle" x="220" y="-204.3" font-family="Times,serif" font-size="14.00">नित्यम्(12.1)</text>
</g>
<!-- Node12_1&#45;&gt;Node10_1 -->
<g id="edge11" class="edge">
<title>Node12_1&#45;&gt;Node10_1</title>
<path fill="none" stroke="black" d="M233.16,-235C238.07,-243.23 244.14,-252 251,-259 258.35,-266.5 267.58,-273.21 276.33,-278.7"/>
<polygon fill="black" stroke="black" points="236.08,-233.05 228.13,-226.05 229.98,-236.48 236.08,-233.05"/>
<text text-anchor="middle" x="286.5" y="-247.8" font-family="Times,serif" font-size="14.00">कालाधिकरणम्</text>
</g>
<!-- Node13_1 -->
<g id="node14" class="node">
<title>Node13_1</title>
<ellipse fill="#ff99ff" stroke="#ff99ff" cx="213" cy="-121" rx="47.39" ry="18"/>
<text text-anchor="middle" x="213" y="-117.3" font-family="Times,serif" font-size="14.00">एव(13.1)</text>
</g>
<!-- Node13_1&#45;&gt;Node12_1 -->
<g id="edge12" class="edge">
<title>Node13_1&#45;&gt;Node12_1</title>
<path fill="none" stroke="black" d="M215.25,-149.27C216.34,-162.58 217.63,-178.19 218.59,-189.82"/>
<polygon fill="black" stroke="black" points="218.73,-148.88 214.42,-139.2 211.75,-149.45 218.73,-148.88"/>
<text text-anchor="middle" x="235.5" y="-160.8" font-family="Times,serif" font-size="14.00">सम्बन्धः</text>
</g>
</g>
</svg>
