<?xml version="1.0" encoding="UTF-8" standalone="no"?>
<!DOCTYPE svg PUBLIC "-//W3C//DTD SVG 1.1//EN"
 "http://www.w3.org/Graphics/SVG/1.1/DTD/svg11.dtd">
<!-- Generated by graphviz version 2.43.0 (0)
 -->
<!-- Title: G Pages: 1 -->
<svg width="833pt" height="234pt"
 viewBox="0.00 0.00 833.00 234.00" xmlns="http://www.w3.org/2000/svg" xmlns:xlink="http://www.w3.org/1999/xlink">
<g id="graph0" class="graph" transform="scale(1 1) rotate(0) translate(4 230)">
<title>G</title>
<polygon fill="#fffacd" stroke="transparent" points="-4,4 -4,-230 829,-230 829,4 -4,4"/>
<g id="clust1" class="cluster">
<title>cluster_1</title>
<polygon fill="#fffacd" stroke="black" points="8,-8 8,-147 326,-147 326,-8 8,-8"/>
</g>
<g id="clust2" class="cluster">
<title>cluster_2</title>
<polygon fill="#fffacd" stroke="black" points="449,-8 449,-147 577,-147 577,-8 449,-8"/>
</g>
<!-- Node2_1 -->
<g id="node1" class="node">
<title>Node2_1</title>
<ellipse fill="#00bfff" stroke="#00bfff" cx="258" cy="-34" rx="59.59" ry="18"/>
<text text-anchor="middle" x="258" y="-30.3" font-family="Times,serif" font-size="14.00">सूपकाराः(2.1)</text>
</g>
<!-- Node1_1 -->
<g id="node2" class="node">
<title>Node1_1</title>
<ellipse fill="#00bfff" stroke="#00bfff" cx="252" cy="-121" rx="65.79" ry="18"/>
<text text-anchor="middle" x="252" y="-117.3" font-family="Times,serif" font-size="14.00">आरालिकाः(1.1)</text>
</g>
<!-- Node2_1&#45;&gt;Node1_1 -->
<g id="edge2" class="edge">
<title>Node2_1&#45;&gt;Node1_1</title>
<path fill="none" stroke="black" d="M256.08,-62.27C255.14,-75.58 254.03,-91.19 253.21,-102.82"/>
<polygon fill="black" stroke="black" points="259.57,-62.42 256.79,-52.2 252.59,-61.93 259.57,-62.42"/>
<text text-anchor="middle" x="277.5" y="-73.8" font-family="Times,serif" font-size="14.00">समुच्चितः</text>
</g>
<!-- Node5_1 -->
<g id="node6" class="node">
<title>Node5_1</title>
<ellipse fill="#ff1975" stroke="#ff1975" cx="513" cy="-208" rx="98.58" ry="18"/>
<text text-anchor="middle" x="513" y="-204.3" font-family="Times,serif" font-size="14.00">उपातिष्ठन्त(उपातिष्ठन्)(5.1)</text>
</g>
<!-- Node1_1&#45;&gt;Node5_1 -->
<g id="edge1" class="edge">
<title>Node1_1&#45;&gt;Node5_1</title>
<path fill="none" stroke="black" d="M302.27,-138.37C349.79,-153.85 420.5,-176.88 466.68,-191.92"/>
<polygon fill="black" stroke="black" points="303.09,-134.96 292.49,-135.19 300.92,-141.61 303.09,-134.96"/>
<text text-anchor="middle" x="409" y="-160.8" font-family="Times,serif" font-size="14.00">कर्ता</text>
</g>
<!-- Node3_1 -->
<g id="node3" class="node">
<title>Node3_1</title>
<ellipse fill="#00bfff" stroke="#00bfff" cx="98" cy="-34" rx="81.79" ry="18"/>
<text text-anchor="middle" x="98" y="-30.3" font-family="Times,serif" font-size="14.00">रागखाण्डविकाः (3.1)</text>
</g>
<!-- Node3_1&#45;&gt;Node1_1 -->
<g id="edge3" class="edge">
<title>Node3_1&#45;&gt;Node1_1</title>
<path fill="none" stroke="black" d="M135.86,-55.9C163.2,-70.99 199.51,-91.03 224.2,-104.66"/>
<polygon fill="black" stroke="black" points="137.41,-52.76 126.97,-50.99 134.03,-58.88 137.41,-52.76"/>
<text text-anchor="middle" x="206.5" y="-73.8" font-family="Times,serif" font-size="14.00">समुच्चितः</text>
</g>
<!-- Node6_1 -->
<g id="node4" class="node">
<title>Node6_1</title>
<ellipse fill="#93db70" stroke="#93db70" cx="513" cy="-34" rx="51.19" ry="18"/>
<text text-anchor="middle" x="513" y="-30.3" font-family="Times,serif" font-size="14.00">राजानं(6.1)</text>
</g>
<!-- Node7_1 -->
<g id="node5" class="node">
<title>Node7_1</title>
<ellipse fill="#93db70" stroke="#93db70" cx="513" cy="-121" rx="55.79" ry="18"/>
<text text-anchor="middle" x="513" y="-117.3" font-family="Times,serif" font-size="14.00">धृतराष्ट्रं(7.1)</text>
</g>
<!-- Node6_1&#45;&gt;Node7_1 -->
<g id="edge5" class="edge">
<title>Node6_1&#45;&gt;Node7_1</title>
<path fill="none" stroke="black" d="M513,-62.27C513,-75.58 513,-91.19 513,-102.82"/>
<polygon fill="black" stroke="black" points="516.5,-62.2 513,-52.2 509.5,-62.2 516.5,-62.2"/>
<text text-anchor="middle" x="535.5" y="-73.8" font-family="Times,serif" font-size="14.00">विशेषणम्</text>
</g>
<!-- Node7_1&#45;&gt;Node5_1 -->
<g id="edge6" class="edge">
<title>Node7_1&#45;&gt;Node5_1</title>
<path fill="none" stroke="black" d="M513,-149.27C513,-162.58 513,-178.19 513,-189.82"/>
<polygon fill="black" stroke="black" points="516.5,-149.2 513,-139.2 509.5,-149.2 516.5,-149.2"/>
<text text-anchor="middle" x="522" y="-160.8" font-family="Times,serif" font-size="14.00">कर्म</text>
</g>
<!-- Node4_1 -->
<g id="node7" class="node">
<title>Node4_1</title>
<ellipse fill="#ff99ff" stroke="#ff99ff" cx="381" cy="-34" rx="44.69" ry="18"/>
<text text-anchor="middle" x="381" y="-30.3" font-family="Times,serif" font-size="14.00">तथा(4.1)</text>
</g>
<!-- Node4_1&#45;&gt;Node1_1 -->
<g id="edge4" class="edge">
<title>Node4_1&#45;&gt;Node1_1</title>
<path fill="none" stroke="black" d="M349.92,-55.48C327.2,-70.45 296.82,-90.47 275.96,-104.21"/>
<polygon fill="black" stroke="black" points="352.11,-58.23 358.53,-49.81 348.25,-52.39 352.11,-58.23"/>
<text text-anchor="middle" x="362" y="-73.8" font-family="Times,serif" font-size="14.00">समुच्चय_द्योतकः</text>
</g>
<!-- Node8_1 -->
<g id="node8" class="node">
<title>Node8_1</title>
<ellipse fill="#ff99ff" stroke="#ff99ff" cx="766" cy="-34" rx="44.69" ry="18"/>
<text text-anchor="middle" x="766" y="-30.3" font-family="Times,serif" font-size="14.00">यथा(8.1)</text>
</g>
<!-- Node10_1 -->
<g id="node9" class="node">
<title>Node10_1</title>
<ellipse fill="#ff1975" stroke="#ff1975" cx="692" cy="-121" rx="104.78" ry="18"/>
<text text-anchor="middle" x="692" y="-117.3" font-family="Times,serif" font-size="14.00">उपातिष्ठन्त(उपातिष्ठन्)(10.1)</text>
</g>
<!-- Node8_1&#45;&gt;Node10_1 -->
<g id="edge7" class="edge">
<title>Node8_1&#45;&gt;Node10_1</title>
<path fill="none" stroke="black" d="M757.57,-61.55C754.19,-69.63 749.71,-78.17 744,-85 738,-92.18 730.16,-98.49 722.4,-103.69"/>
<polygon fill="black" stroke="black" points="760.9,-62.66 761.17,-52.07 754.35,-60.18 760.9,-62.66"/>
<text text-anchor="middle" x="788.5" y="-73.8" font-family="Times,serif" font-size="14.00">उपमान_द्योतकः</text>
</g>
<!-- Node10_1&#45;&gt;Node5_1 -->
<g id="edge9" class="edge">
<title>Node10_1&#45;&gt;Node5_1</title>
<path fill="none" stroke="black" d="M648.54,-142.64C617.19,-157.52 575.49,-177.33 546.66,-191.02"/>
<polygon fill="black" stroke="black" points="650.38,-145.64 657.91,-138.19 647.38,-139.32 650.38,-145.64"/>
<text text-anchor="middle" x="633.5" y="-160.8" font-family="Times,serif" font-size="14.00">उपमानम्</text>
</g>
<!-- Node9_1 -->
<g id="node10" class="node">
<title>Node9_1</title>
<ellipse fill="#ff99ff" stroke="#ff99ff" cx="660" cy="-34" rx="42.79" ry="18"/>
<text text-anchor="middle" x="660" y="-30.3" font-family="Times,serif" font-size="14.00">पुरा(9.1)</text>
</g>
<!-- Node9_1&#45;&gt;Node10_1 -->
<g id="edge8" class="edge">
<title>Node9_1&#45;&gt;Node10_1</title>
<path fill="none" stroke="black" d="M665.7,-61.85C667.66,-69.46 670.1,-77.66 673,-85 675.39,-91.05 678.58,-97.37 681.67,-102.95"/>
<polygon fill="black" stroke="black" points="669.08,-60.9 663.34,-51.99 662.27,-62.53 669.08,-60.9"/>
<text text-anchor="middle" x="708.5" y="-73.8" font-family="Times,serif" font-size="14.00">कालाधिकरणम्</text>
</g>
</g>
</svg>
