<?xml version="1.0" encoding="UTF-8" standalone="no"?>
<!DOCTYPE svg PUBLIC "-//W3C//DTD SVG 1.1//EN"
 "http://www.w3.org/Graphics/SVG/1.1/DTD/svg11.dtd">
<!-- Generated by graphviz version 2.43.0 (0)
 -->
<!-- Title: G Pages: 1 -->
<svg width="969pt" height="392pt"
 viewBox="0.00 0.00 969.00 392.00" xmlns="http://www.w3.org/2000/svg" xmlns:xlink="http://www.w3.org/1999/xlink">
<g id="graph0" class="graph" transform="scale(1 1) rotate(0) translate(4 388)">
<title>G</title>
<polygon fill="#fffacd" stroke="transparent" points="-4,4 -4,-388 965,-388 965,4 -4,4"/>
<g id="clust1" class="cluster">
<title>cluster_1</title>
<polygon fill="#fffacd" stroke="black" points="360,-79 360,-218 953,-218 953,-79 360,-79"/>
</g>
<g id="clust2" class="cluster">
<title>cluster_2</title>
<polygon fill="#fffacd" stroke="black" points="202,-166 202,-305 352,-305 352,-166 202,-166"/>
</g>
<!-- Node1_1 -->
<g id="node1" class="node">
<title>Node1_1</title>
<ellipse fill="#00bfff" stroke="#00bfff" cx="905" cy="-105" rx="40.09" ry="18"/>
<text text-anchor="middle" x="905" y="-101.3" font-family="Times,serif" font-size="14.00">सः(1.1)</text>
</g>
<!-- Node3_1 -->
<g id="node2" class="node">
<title>Node3_1</title>
<ellipse fill="#00bfff" stroke="#00bfff" cx="561" cy="-192" rx="46.29" ry="18"/>
<text text-anchor="middle" x="561" y="-188.3" font-family="Times,serif" font-size="14.00">राजा(3.1)</text>
</g>
<!-- Node1_1&#45;&gt;Node3_1 -->
<g id="edge1" class="edge">
<title>Node1_1&#45;&gt;Node3_1</title>
<path fill="none" stroke="black" d="M866.55,-121.37C838.06,-132.29 798.09,-146.62 762,-156 708.35,-169.95 645.17,-179.92 604.17,-185.57"/>
<polygon fill="black" stroke="black" points="868.06,-124.54 876.12,-117.67 865.54,-118.01 868.06,-124.54"/>
<text text-anchor="middle" x="831.5" y="-144.8" font-family="Times,serif" font-size="14.00">विशेषणम्</text>
</g>
<!-- Node10_1 -->
<g id="node7" class="node">
<title>Node10_1</title>
<ellipse fill="#00bfff" stroke="#00bfff" cx="277" cy="-279" rx="61.99" ry="18"/>
<text text-anchor="middle" x="277" y="-275.3" font-family="Times,serif" font-size="14.00">गान्धारी(10.1)</text>
</g>
<!-- Node3_1&#45;&gt;Node10_1 -->
<g id="edge3" class="edge">
<title>Node3_1&#45;&gt;Node10_1</title>
<path fill="none" stroke="black" d="M515.89,-206.5C461.55,-222.77 371,-249.87 318.37,-265.62"/>
<polygon fill="black" stroke="black" points="517.03,-209.81 525.6,-203.59 515.02,-203.11 517.03,-209.81"/>
<text text-anchor="middle" x="458.5" y="-231.8" font-family="Times,serif" font-size="14.00">समुच्चितः</text>
</g>
<!-- Node4_2 -->
<g id="node3" class="node">
<title>Node4_2</title>
<ellipse fill="#00bfff" stroke="#00bfff" cx="426" cy="-105" rx="58.49" ry="18"/>
<text text-anchor="middle" x="426" y="-101.3" font-family="Times,serif" font-size="14.00">आमात्यः(4.2)</text>
</g>
<!-- Node4_2&#45;&gt;Node3_1 -->
<g id="edge5" class="edge">
<title>Node4_2&#45;&gt;Node3_1</title>
<path fill="none" stroke="black" d="M459.01,-126.79C483.37,-142.13 515.93,-162.62 537.63,-176.29"/>
<polygon fill="black" stroke="black" points="460.77,-123.76 450.44,-121.39 457.04,-129.68 460.77,-123.76"/>
<text text-anchor="middle" x="523.5" y="-144.8" font-family="Times,serif" font-size="14.00">विशेषणम्</text>
</g>
<!-- Node5_2 -->
<g id="node4" class="node">
<title>Node5_2</title>
<ellipse fill="#00bfff" stroke="#00bfff" cx="682" cy="-105" rx="44.69" ry="18"/>
<text text-anchor="middle" x="682" y="-101.3" font-family="Times,serif" font-size="14.00">पुत्रः(5.2)</text>
</g>
<!-- Node5_2&#45;&gt;Node3_1 -->
<g id="edge7" class="edge">
<title>Node5_2&#45;&gt;Node3_1</title>
<path fill="none" stroke="black" d="M652.46,-126.75C630.84,-141.94 602.01,-162.19 582.54,-175.86"/>
<polygon fill="black" stroke="black" points="654.47,-129.61 660.64,-121 650.45,-123.88 654.47,-129.61"/>
<text text-anchor="middle" x="650.5" y="-144.8" font-family="Times,serif" font-size="14.00">विशेषणम्</text>
</g>
<!-- Node6_1 -->
<g id="node5" class="node">
<title>Node6_1</title>
<ellipse fill="#00bfff" stroke="#00bfff" cx="561" cy="-105" rx="58.49" ry="18"/>
<text text-anchor="middle" x="561" y="-101.3" font-family="Times,serif" font-size="14.00">निराश्रयः(6.1)</text>
</g>
<!-- Node6_1&#45;&gt;Node3_1 -->
<g id="edge8" class="edge">
<title>Node6_1&#45;&gt;Node3_1</title>
<path fill="none" stroke="black" d="M561,-133.27C561,-146.58 561,-162.19 561,-173.82"/>
<polygon fill="black" stroke="black" points="564.5,-133.2 561,-123.2 557.5,-133.2 564.5,-133.2"/>
<text text-anchor="middle" x="583.5" y="-144.8" font-family="Times,serif" font-size="14.00">विशेषणम्</text>
</g>
<!-- Node9_2 -->
<g id="node6" class="node">
<title>Node9_2</title>
<ellipse fill="#00bfff" stroke="#00bfff" cx="796" cy="-105" rx="50.89" ry="18"/>
<text text-anchor="middle" x="796" y="-101.3" font-family="Times,serif" font-size="14.00">ऐश्वर्यः(9.2)</text>
</g>
<!-- Node9_2&#45;&gt;Node3_1 -->
<g id="edge11" class="edge">
<title>Node9_2&#45;&gt;Node3_1</title>
<path fill="none" stroke="black" d="M756.6,-123.78C733.62,-133.84 703.93,-146.31 677,-156 650.77,-165.44 620.62,-174.48 597.63,-181.01"/>
<polygon fill="black" stroke="black" points="758.28,-126.86 766.02,-119.63 755.45,-120.46 758.28,-126.86"/>
<text text-anchor="middle" x="735.5" y="-144.8" font-family="Times,serif" font-size="14.00">विशेषणम्</text>
</g>
<!-- Node8_1 -->
<g id="node10" class="node">
<title>Node8_1</title>
<ellipse fill="#ff1975" stroke="#ff1975" cx="145" cy="-366" rx="53.89" ry="18"/>
<text text-anchor="middle" x="145" y="-362.3" font-family="Times,serif" font-size="14.00">आसीत्(8.1)</text>
</g>
<!-- Node10_1&#45;&gt;Node8_1 -->
<g id="edge12" class="edge">
<title>Node10_1&#45;&gt;Node8_1</title>
<path fill="none" stroke="black" d="M252.69,-303.54C242.72,-312.47 230.78,-322.34 219,-330 206.25,-338.29 191.23,-345.77 178.06,-351.66"/>
<polygon fill="black" stroke="black" points="255.21,-305.97 260.21,-296.63 250.48,-300.81 255.21,-305.97"/>
<text text-anchor="middle" x="250" y="-318.8" font-family="Times,serif" font-size="14.00">कर्ता</text>
</g>
<!-- Node12_1 -->
<g id="node8" class="node">
<title>Node12_1</title>
<ellipse fill="#00bfff" stroke="#00bfff" cx="277" cy="-192" rx="66.89" ry="18"/>
<text text-anchor="middle" x="277" y="-188.3" font-family="Times,serif" font-size="14.00">यशस्विनी(12.1)</text>
</g>
<!-- Node12_1&#45;&gt;Node10_1 -->
<g id="edge14" class="edge">
<title>Node12_1&#45;&gt;Node10_1</title>
<path fill="none" stroke="black" d="M277,-220.27C277,-233.58 277,-249.19 277,-260.82"/>
<polygon fill="black" stroke="black" points="280.5,-220.2 277,-210.2 273.5,-220.2 280.5,-220.2"/>
<text text-anchor="middle" x="299.5" y="-231.8" font-family="Times,serif" font-size="14.00">विशेषणम्</text>
</g>
<!-- Node2_1 -->
<g id="node9" class="node">
<title>Node2_1</title>
<ellipse fill="#ff99ff" stroke="#ff99ff" cx="39" cy="-279" rx="38.99" ry="18"/>
<text text-anchor="middle" x="39" y="-275.3" font-family="Times,serif" font-size="14.00">हि(2.1)</text>
</g>
<!-- Node2_1&#45;&gt;Node8_1 -->
<g id="edge2" class="edge">
<title>Node2_1&#45;&gt;Node8_1</title>
<path fill="none" stroke="black" d="M65.98,-301.64C84.41,-316.42 108.43,-335.68 125.13,-349.07"/>
<polygon fill="black" stroke="black" points="67.94,-298.72 57.95,-295.2 63.56,-304.18 67.94,-298.72"/>
<text text-anchor="middle" x="117.5" y="-318.8" font-family="Times,serif" font-size="14.00">सम्बन्धः</text>
</g>
<!-- Node4_1 -->
<g id="node11" class="node">
<title>Node4_1</title>
<ellipse fill="#ffff00" stroke="#ffff00" cx="426" cy="-18" rx="44.39" ry="18"/>
<text text-anchor="middle" x="426" y="-14.3" font-family="Times,serif" font-size="14.00">हत&#45;(4.1)</text>
</g>
<!-- Node4_1&#45;&gt;Node4_2 -->
<g id="edge4" class="edge">
<title>Node4_1&#45;&gt;Node4_2</title>
<path fill="none" stroke="black" d="M426,-46.27C426,-59.58 426,-75.19 426,-86.82"/>
<polygon fill="black" stroke="black" points="429.5,-46.2 426,-36.2 422.5,-46.2 429.5,-46.2"/>
<text text-anchor="middle" x="440" y="-57.8" font-family="Times,serif" font-size="14.00">Bs6</text>
</g>
<!-- Node5_1 -->
<g id="node12" class="node">
<title>Node5_1</title>
<ellipse fill="#ffff00" stroke="#ffff00" cx="682" cy="-18" rx="44.39" ry="18"/>
<text text-anchor="middle" x="682" y="-14.3" font-family="Times,serif" font-size="14.00">हत&#45;(5.1)</text>
</g>
<!-- Node5_1&#45;&gt;Node5_2 -->
<g id="edge6" class="edge">
<title>Node5_1&#45;&gt;Node5_2</title>
<path fill="none" stroke="black" d="M682,-46.27C682,-59.58 682,-75.19 682,-86.82"/>
<polygon fill="black" stroke="black" points="685.5,-46.2 682,-36.2 678.5,-46.2 685.5,-46.2"/>
<text text-anchor="middle" x="696" y="-57.8" font-family="Times,serif" font-size="14.00">Bs6</text>
</g>
<!-- Node7_1 -->
<g id="node13" class="node">
<title>Node7_1</title>
<ellipse fill="#ff99ff" stroke="#ff99ff" cx="145" cy="-279" rx="48.99" ry="18"/>
<text text-anchor="middle" x="145" y="-275.3" font-family="Times,serif" font-size="14.00">कथम्(7.1)</text>
</g>
<!-- Node7_1&#45;&gt;Node8_1 -->
<g id="edge9" class="edge">
<title>Node7_1&#45;&gt;Node8_1</title>
<path fill="none" stroke="black" d="M145,-307.27C145,-320.58 145,-336.19 145,-347.82"/>
<polygon fill="black" stroke="black" points="148.5,-307.2 145,-297.2 141.5,-307.2 148.5,-307.2"/>
<text text-anchor="middle" x="180" y="-318.8" font-family="Times,serif" font-size="14.00">क्रियाविशेषणम्</text>
</g>
<!-- Node9_1 -->
<g id="node14" class="node">
<title>Node9_1</title>
<ellipse fill="#ffff00" stroke="#ffff00" cx="796" cy="-18" rx="44.39" ry="18"/>
<text text-anchor="middle" x="796" y="-14.3" font-family="Times,serif" font-size="14.00">हत&#45;(9.1)</text>
</g>
<!-- Node9_1&#45;&gt;Node9_2 -->
<g id="edge10" class="edge">
<title>Node9_1&#45;&gt;Node9_2</title>
<path fill="none" stroke="black" d="M796,-46.27C796,-59.58 796,-75.19 796,-86.82"/>
<polygon fill="black" stroke="black" points="799.5,-46.2 796,-36.2 792.5,-46.2 799.5,-46.2"/>
<text text-anchor="middle" x="810" y="-57.8" font-family="Times,serif" font-size="14.00">Bs6</text>
</g>
<!-- Node11_1 -->
<g id="node15" class="node">
<title>Node11_1</title>
<ellipse fill="#ff99ff" stroke="#ff99ff" cx="306" cy="-105" rx="43.59" ry="18"/>
<text text-anchor="middle" x="306" y="-101.3" font-family="Times,serif" font-size="14.00">च(11.1)</text>
</g>
<!-- Node11_1&#45;&gt;Node3_1 -->
<g id="edge13" class="edge">
<title>Node11_1&#45;&gt;Node3_1</title>
<path fill="none" stroke="black" d="M338.84,-125.17C357.69,-135.51 382.1,-147.79 405,-156 442.49,-169.44 486.97,-178.81 518.82,-184.45"/>
<polygon fill="black" stroke="black" points="340.5,-122.09 330.06,-120.28 337.1,-128.21 340.5,-122.09"/>
<text text-anchor="middle" x="443" y="-144.8" font-family="Times,serif" font-size="14.00">समुच्चय_द्योतकः</text>
</g>
</g>
</svg>
