<?xml version="1.0" encoding="UTF-8" standalone="no"?>
<!DOCTYPE svg PUBLIC "-//W3C//DTD SVG 1.1//EN"
 "http://www.w3.org/Graphics/SVG/1.1/DTD/svg11.dtd">
<!-- Generated by graphviz version 2.43.0 (0)
 -->
<!-- Title: G Pages: 1 -->
<svg width="738pt" height="321pt"
 viewBox="0.00 0.00 738.00 321.00" xmlns="http://www.w3.org/2000/svg" xmlns:xlink="http://www.w3.org/1999/xlink">
<g id="graph0" class="graph" transform="scale(1 1) rotate(0) translate(4 317)">
<title>G</title>
<polygon fill="#fffacd" stroke="transparent" points="-4,4 -4,-317 734,-317 734,4 -4,4"/>
<g id="clust1" class="cluster">
<title>cluster_1</title>
<polygon fill="#fffacd" stroke="black" points="8,-95 8,-234 90,-234 90,-95 8,-95"/>
</g>
<g id="clust2" class="cluster">
<title>cluster_2</title>
<polygon fill="#fffacd" stroke="black" points="426,-95 426,-234 582,-234 582,-95 426,-95"/>
</g>
<g id="clust3" class="cluster">
<title>cluster_3</title>
<polygon fill="#fffacd" stroke="black" points="616,-8 616,-147 720,-147 720,-8 616,-8"/>
</g>
<g id="clust4" class="cluster">
<title>cluster_4</title>
<polygon fill="#fffacd" stroke="black" points="606,-182 606,-234 722,-234 722,-182 606,-182"/>
</g>
<!-- Node5 -->
<g id="node1" class="node">
<title>Node5</title>
<ellipse fill="#93db70" stroke="#93db70" cx="45" cy="-121" rx="28.7" ry="18"/>
<text text-anchor="middle" x="45" y="-117.3" font-family="Times,serif" font-size="14.00">तं(5)</text>
</g>
<!-- Node6 -->
<g id="node2" class="node">
<title>Node6</title>
<ellipse fill="#93db70" stroke="#93db70" cx="49" cy="-208" rx="33.29" ry="18"/>
<text text-anchor="middle" x="49" y="-204.3" font-family="Times,serif" font-size="14.00">नृपं(6)</text>
</g>
<!-- Node5&#45;&gt;Node6 -->
<g id="edge5" class="edge">
<title>Node5&#45;&gt;Node6</title>
<path fill="none" stroke="black" d="M46.28,-149.27C46.91,-162.58 47.64,-178.19 48.19,-189.82"/>
<polygon fill="black" stroke="black" points="49.78,-149.03 45.81,-139.2 42.78,-149.35 49.78,-149.03"/>
<text text-anchor="middle" x="70.5" y="-160.8" font-family="Times,serif" font-size="14.00">विशेषणम्</text>
</g>
<!-- Node3 -->
<g id="node9" class="node">
<title>Node3</title>
<ellipse fill="#ff1975" stroke="#ff1975" cx="199" cy="-295" rx="55.79" ry="18"/>
<text text-anchor="middle" x="199" y="-291.3" font-family="Times,serif" font-size="14.00">सम्पृच्छन्ति(3)</text>
</g>
<!-- Node6&#45;&gt;Node3 -->
<g id="edge6" class="edge">
<title>Node6&#45;&gt;Node3</title>
<path fill="none" stroke="black" d="M78.95,-226.97C82.99,-229.36 87.09,-231.75 91,-234 118.33,-249.72 149.88,-267.17 171.8,-279.18"/>
<polygon fill="black" stroke="black" points="80.68,-223.93 70.29,-221.84 77.11,-229.95 80.68,-223.93"/>
<text text-anchor="middle" x="142" y="-247.8" font-family="Times,serif" font-size="14.00">कर्म</text>
</g>
<!-- Node9 -->
<g id="node3" class="node">
<title>Node9</title>
<ellipse fill="#00bfff" stroke="#00bfff" cx="499" cy="-121" rx="61.19" ry="18"/>
<text text-anchor="middle" x="499" y="-117.3" font-family="Times,serif" font-size="14.00">अभ्यनुज्ञाताः(9)</text>
</g>
<!-- Node13_1 -->
<g id="node4" class="node">
<title>Node13_1</title>
<ellipse fill="#00bfff" stroke="#00bfff" cx="504" cy="-208" rx="70.39" ry="18"/>
<text text-anchor="middle" x="504" y="-204.3" font-family="Times,serif" font-size="14.00">(पाण्डवाः)(13.1)</text>
</g>
<!-- Node9&#45;&gt;Node13_1 -->
<g id="edge8" class="edge">
<title>Node9&#45;&gt;Node13_1</title>
<path fill="none" stroke="black" d="M500.6,-149.27C501.39,-162.58 502.31,-178.19 502.99,-189.82"/>
<polygon fill="black" stroke="black" points="504.09,-148.98 500.01,-139.2 497.11,-149.39 504.09,-148.98"/>
<text text-anchor="middle" x="523.5" y="-160.8" font-family="Times,serif" font-size="14.00">विशेषणम्</text>
</g>
<!-- Node7 -->
<g id="node11" class="node">
<title>Node7</title>
<ellipse fill="#ff1975" stroke="#ff1975" cx="504" cy="-295" rx="37.89" ry="18"/>
<text text-anchor="middle" x="504" y="-291.3" font-family="Times,serif" font-size="14.00">चक्रुः(7)</text>
</g>
<!-- Node13_1&#45;&gt;Node7 -->
<g id="edge13" class="edge">
<title>Node13_1&#45;&gt;Node7</title>
<path fill="none" stroke="black" d="M504,-236.27C504,-249.58 504,-265.19 504,-276.82"/>
<polygon fill="black" stroke="black" points="507.5,-236.2 504,-226.2 500.5,-236.2 507.5,-236.2"/>
<text text-anchor="middle" x="515" y="-247.8" font-family="Times,serif" font-size="14.00">कर्ता</text>
</g>
<!-- Node11 -->
<g id="node5" class="node">
<title>Node11</title>
<ellipse fill="#93db70" stroke="#93db70" cx="667" cy="-34" rx="39.79" ry="18"/>
<text text-anchor="middle" x="667" y="-30.3" font-family="Times,serif" font-size="14.00">दश(11)</text>
</g>
<!-- Node12 -->
<g id="node6" class="node">
<title>Node12</title>
<ellipse fill="#93db70" stroke="#93db70" cx="668" cy="-121" rx="43.59" ry="18"/>
<text text-anchor="middle" x="668" y="-117.3" font-family="Times,serif" font-size="14.00">पञ्च(12)</text>
</g>
<!-- Node11&#45;&gt;Node12 -->
<g id="edge10" class="edge">
<title>Node11&#45;&gt;Node12</title>
<path fill="none" stroke="black" d="M667.32,-62.27C667.48,-75.58 667.66,-91.19 667.8,-102.82"/>
<polygon fill="black" stroke="black" points="670.82,-62.16 667.2,-52.2 663.82,-62.24 670.82,-62.16"/>
<text text-anchor="middle" x="689.5" y="-73.8" font-family="Times,serif" font-size="14.00">समुच्चितः</text>
</g>
<!-- Node10 -->
<g id="node7" class="node">
<title>Node10</title>
<ellipse fill="#93db70" stroke="#93db70" cx="664" cy="-208" rx="50.09" ry="18"/>
<text text-anchor="middle" x="664" y="-204.3" font-family="Times,serif" font-size="14.00">वर्षाणि(10)</text>
</g>
<!-- Node12&#45;&gt;Node10 -->
<g id="edge11" class="edge">
<title>Node12&#45;&gt;Node10</title>
<path fill="none" stroke="black" d="M666.72,-149.27C666.09,-162.58 665.36,-178.19 664.81,-189.82"/>
<polygon fill="black" stroke="black" points="670.22,-149.35 667.19,-139.2 663.22,-149.03 670.22,-149.35"/>
<text text-anchor="middle" x="688.5" y="-160.8" font-family="Times,serif" font-size="14.00">विशेषणम्</text>
</g>
<!-- Node10&#45;&gt;Node7 -->
<g id="edge9" class="edge">
<title>Node10&#45;&gt;Node7</title>
<path fill="none" stroke="black" d="M628.2,-228.02C597.74,-244.2 554.83,-267 528.24,-281.12"/>
<polygon fill="black" stroke="black" points="630.03,-231.01 637.22,-223.23 626.75,-224.83 630.03,-231.01"/>
<text text-anchor="middle" x="628.5" y="-247.8" font-family="Times,serif" font-size="14.00">कालाधिकरणम्</text>
</g>
<!-- Node1 -->
<g id="node8" class="node">
<title>Node1</title>
<ellipse fill="#00bfff" stroke="#00bfff" cx="149" cy="-208" rx="48.99" ry="18"/>
<text text-anchor="middle" x="149" y="-204.3" font-family="Times,serif" font-size="14.00">पाण्डवाः(1)</text>
</g>
<!-- Node1&#45;&gt;Node3 -->
<g id="edge1" class="edge">
<title>Node1&#45;&gt;Node3</title>
<path fill="none" stroke="black" d="M164.18,-234.8C172.28,-248.58 182.03,-265.14 189.14,-277.24"/>
<polygon fill="black" stroke="black" points="166.97,-232.64 158.88,-225.79 160.93,-236.19 166.97,-232.64"/>
<text text-anchor="middle" x="187" y="-247.8" font-family="Times,serif" font-size="14.00">कर्ता</text>
</g>
<!-- Node2 -->
<g id="node10" class="node">
<title>Node2</title>
<ellipse fill="#93db70" stroke="#93db70" cx="357" cy="-208" rx="58.49" ry="18"/>
<text text-anchor="middle" x="357" y="-204.3" font-family="Times,serif" font-size="14.00">सर्वकार्याणि(2)</text>
</g>
<!-- Node2&#45;&gt;Node3 -->
<g id="edge2" class="edge">
<title>Node2&#45;&gt;Node3</title>
<path fill="none" stroke="black" d="M321.56,-229.03C305.04,-238.28 285.09,-249.32 267,-259 254.24,-265.83 240.02,-273.19 227.89,-279.39"/>
<polygon fill="black" stroke="black" points="323.33,-232.05 330.34,-224.1 319.91,-225.94 323.33,-232.05"/>
<text text-anchor="middle" x="303" y="-247.8" font-family="Times,serif" font-size="14.00">कर्म</text>
</g>
<!-- Node2&#45;&gt;Node7 -->
<g id="edge3" class="edge">
<title>Node2&#45;&gt;Node7</title>
<path fill="none" stroke="black" stroke-dasharray="1,5" d="M392.18,-229.34C419.65,-245.23 457.04,-266.85 480.85,-280.61"/>
<polygon fill="black" stroke="black" points="393.69,-226.17 383.28,-224.2 390.19,-232.23 393.69,-226.17"/>
<text text-anchor="middle" x="448" y="-247.8" font-family="Times,serif" font-size="14.00">कर्म</text>
</g>
<!-- Node4 -->
<g id="node12" class="node">
<title>Node4</title>
<ellipse fill="#ff99ff" stroke="#ff99ff" cx="248" cy="-208" rx="32.49" ry="18"/>
<text text-anchor="middle" x="248" y="-204.3" font-family="Times,serif" font-size="14.00">स्म(4)</text>
</g>
<!-- Node4&#45;&gt;Node3 -->
<g id="edge4" class="edge">
<title>Node4&#45;&gt;Node3</title>
<path fill="none" stroke="black" d="M233.36,-234.39C225.41,-248.19 215.79,-264.87 208.75,-277.08"/>
<polygon fill="black" stroke="black" points="236.59,-235.8 238.55,-225.39 230.53,-232.3 236.59,-235.8"/>
<text text-anchor="middle" x="244.5" y="-247.8" font-family="Times,serif" font-size="14.00">सम्बन्धः</text>
</g>
<!-- Node8 -->
<g id="node13" class="node">
<title>Node8</title>
<ellipse fill="#40e0d0" stroke="#40e0d0" cx="482" cy="-34" rx="33.29" ry="18"/>
<text text-anchor="middle" x="482" y="-30.3" font-family="Times,serif" font-size="14.00">तेन(8)</text>
</g>
<!-- Node8&#45;&gt;Node9 -->
<g id="edge7" class="edge">
<title>Node8&#45;&gt;Node9</title>
<path fill="none" stroke="black" d="M487.45,-62.27C490.12,-75.58 493.24,-91.19 495.56,-102.82"/>
<polygon fill="black" stroke="black" points="490.83,-61.32 485.44,-52.2 483.97,-62.69 490.83,-61.32"/>
<text text-anchor="middle" x="502" y="-73.8" font-family="Times,serif" font-size="14.00">कर्ता</text>
</g>
<!-- Node13 -->
<g id="node14" class="node">
<title>Node13</title>
<ellipse fill="#ff99ff" stroke="#ff99ff" cx="568" cy="-34" rx="34.39" ry="18"/>
<text text-anchor="middle" x="568" y="-30.3" font-family="Times,serif" font-size="14.00">च(13)</text>
</g>
<!-- Node13&#45;&gt;Node12 -->
<g id="edge12" class="edge">
<title>Node13&#45;&gt;Node12</title>
<path fill="none" stroke="black" d="M573.83,-61.82C576.69,-70.05 580.89,-78.61 587,-85 598.86,-97.4 615.84,-105.65 631.2,-111.01"/>
<polygon fill="black" stroke="black" points="577.16,-60.72 570.97,-52.12 570.44,-62.7 577.16,-60.72"/>
<text text-anchor="middle" x="625" y="-73.8" font-family="Times,serif" font-size="14.00">समुच्चय_द्योतकः</text>
</g>
</g>
</svg>
