<?xml version="1.0" encoding="UTF-8" standalone="no"?>
<!DOCTYPE svg PUBLIC "-//W3C//DTD SVG 1.1//EN"
 "http://www.w3.org/Graphics/SVG/1.1/DTD/svg11.dtd">
<!-- Generated by graphviz version 2.43.0 (0)
 -->
<!-- Title: G Pages: 1 -->
<svg width="563pt" height="234pt"
 viewBox="0.00 0.00 562.90 234.00" xmlns="http://www.w3.org/2000/svg" xmlns:xlink="http://www.w3.org/1999/xlink">
<g id="graph0" class="graph" transform="scale(1 1) rotate(0) translate(4 230)">
<title>G</title>
<polygon fill="#fffacd" stroke="transparent" points="-4,4 -4,-230 558.9,-230 558.9,4 -4,4"/>
<g id="clust1" class="cluster">
<title>cluster_1</title>
<polygon fill="#fffacd" stroke="black" points="8,-8 8,-147 248,-147 248,-8 8,-8"/>
</g>
<!-- Node3 -->
<g id="node1" class="node">
<title>Node3</title>
<ellipse fill="#00bfff" stroke="#00bfff" cx="188" cy="-34" rx="51.99" ry="18"/>
<text text-anchor="middle" x="188" y="-30.3" font-family="Times,serif" font-size="14.00">महात्मानः(3)</text>
</g>
<!-- Node4 -->
<g id="node2" class="node">
<title>Node4</title>
<ellipse fill="#00bfff" stroke="#00bfff" cx="188" cy="-121" rx="48.99" ry="18"/>
<text text-anchor="middle" x="188" y="-117.3" font-family="Times,serif" font-size="14.00">पाण्डवाः(4)</text>
</g>
<!-- Node3&#45;&gt;Node4 -->
<g id="edge3" class="edge">
<title>Node3&#45;&gt;Node4</title>
<path fill="none" stroke="black" d="M188,-62.27C188,-75.58 188,-91.19 188,-102.82"/>
<polygon fill="black" stroke="black" points="191.5,-62.2 188,-52.2 184.5,-62.2 191.5,-62.2"/>
<text text-anchor="middle" x="210.5" y="-73.8" font-family="Times,serif" font-size="14.00">विशेषणम्</text>
</g>
<!-- Node9 -->
<g id="node5" class="node">
<title>Node9</title>
<ellipse fill="#ff1975" stroke="#ff1975" cx="347" cy="-208" rx="55.79" ry="18"/>
<text text-anchor="middle" x="347" y="-204.3" font-family="Times,serif" font-size="14.00">पर्यपालयन्(9)</text>
</g>
<!-- Node4&#45;&gt;Node9 -->
<g id="edge4" class="edge">
<title>Node4&#45;&gt;Node9</title>
<path fill="none" stroke="black" d="M223.6,-141.03C252.59,-156.53 292.94,-178.1 319.5,-192.3"/>
<polygon fill="black" stroke="black" points="225.08,-137.86 214.61,-136.23 221.78,-144.03 225.08,-137.86"/>
<text text-anchor="middle" x="288" y="-160.8" font-family="Times,serif" font-size="14.00">कर्ता</text>
</g>
<!-- Node5 -->
<g id="node3" class="node">
<title>Node5</title>
<ellipse fill="#00bfff" stroke="#00bfff" cx="67" cy="-34" rx="50.89" ry="18"/>
<text text-anchor="middle" x="67" y="-30.3" font-family="Times,serif" font-size="14.00">हतशत्रवः(5)</text>
</g>
<!-- Node5&#45;&gt;Node4 -->
<g id="edge5" class="edge">
<title>Node5&#45;&gt;Node4</title>
<path fill="none" stroke="black" d="M97.35,-56.32C118.79,-71.38 147.03,-91.22 166.25,-104.72"/>
<polygon fill="black" stroke="black" points="99.11,-53.28 88.91,-50.39 95.08,-59.01 99.11,-53.28"/>
<text text-anchor="middle" x="157.5" y="-73.8" font-family="Times,serif" font-size="14.00">विशेषणम्</text>
</g>
<!-- Node1 -->
<g id="node4" class="node">
<title>Node1</title>
<ellipse fill="#ff99ff" stroke="#ff99ff" cx="295" cy="-121" rx="38.19" ry="18"/>
<text text-anchor="middle" x="295" y="-117.3" font-family="Times,serif" font-size="14.00">प्राप्य(1)</text>
</g>
<!-- Node1&#45;&gt;Node9 -->
<g id="edge1" class="edge">
<title>Node1&#45;&gt;Node9</title>
<path fill="none" stroke="black" d="M304.86,-148.33C308.26,-156.19 312.38,-164.66 317,-172 321.09,-178.5 326.33,-185.05 331.29,-190.69"/>
<polygon fill="black" stroke="black" points="308,-146.76 300.97,-138.83 301.52,-149.41 308,-146.76"/>
<text text-anchor="middle" x="337.5" y="-160.8" font-family="Times,serif" font-size="14.00">पूर्वकालः</text>
</g>
<!-- Node2 -->
<g id="node6" class="node">
<title>Node2</title>
<ellipse fill="#00bfff" stroke="#00bfff" cx="296" cy="-34" rx="38.19" ry="18"/>
<text text-anchor="middle" x="296" y="-30.3" font-family="Times,serif" font-size="14.00">राज्यं(2)</text>
</g>
<!-- Node2&#45;&gt;Node1 -->
<g id="edge2" class="edge">
<title>Node2&#45;&gt;Node1</title>
<path fill="none" stroke="black" d="M295.68,-62.27C295.52,-75.58 295.34,-91.19 295.2,-102.82"/>
<polygon fill="black" stroke="black" points="299.18,-62.24 295.8,-52.2 292.18,-62.16 299.18,-62.24"/>
<text text-anchor="middle" x="304" y="-73.8" font-family="Times,serif" font-size="14.00">कर्म</text>
</g>
<!-- Node6 -->
<g id="node7" class="node">
<title>Node6</title>
<ellipse fill="#93db70" stroke="#93db70" cx="401" cy="-34" rx="46.59" ry="18"/>
<text text-anchor="middle" x="401" y="-30.3" font-family="Times,serif" font-size="14.00">धृतराष्ट्रं(6)</text>
</g>
<!-- Node7 -->
<g id="node8" class="node">
<title>Node7</title>
<ellipse fill="#ff99ff" stroke="#ff99ff" cx="401" cy="-121" rx="50.09" ry="18"/>
<text text-anchor="middle" x="401" y="-117.3" font-family="Times,serif" font-size="14.00">पुरस्कृत्य(7)</text>
</g>
<!-- Node6&#45;&gt;Node7 -->
<g id="edge6" class="edge">
<title>Node6&#45;&gt;Node7</title>
<path fill="none" stroke="black" d="M401,-62.27C401,-75.58 401,-91.19 401,-102.82"/>
<polygon fill="black" stroke="black" points="404.5,-62.2 401,-52.2 397.5,-62.2 404.5,-62.2"/>
<text text-anchor="middle" x="410" y="-73.8" font-family="Times,serif" font-size="14.00">कर्म</text>
</g>
<!-- Node7&#45;&gt;Node9 -->
<g id="edge7" class="edge">
<title>Node7&#45;&gt;Node9</title>
<path fill="none" stroke="black" d="M384.86,-147.4C376.06,-161.26 365.41,-178.03 357.65,-190.24"/>
<polygon fill="black" stroke="black" points="387.92,-149.11 390.33,-138.79 382.01,-145.36 387.92,-149.11"/>
<text text-anchor="middle" x="397.5" y="-160.8" font-family="Times,serif" font-size="14.00">पूर्वकालः</text>
</g>
<!-- Node8 -->
<g id="node9" class="node">
<title>Node8</title>
<ellipse fill="#93db70" stroke="#93db70" cx="512" cy="-121" rx="42.79" ry="18"/>
<text text-anchor="middle" x="512" y="-117.3" font-family="Times,serif" font-size="14.00">पृथिवीं(8)</text>
</g>
<!-- Node8&#45;&gt;Node9 -->
<g id="edge8" class="edge">
<title>Node8&#45;&gt;Node9</title>
<path fill="none" stroke="black" d="M478.88,-141.13C462.01,-150.69 441.08,-162.27 422,-172 407.79,-179.25 391.81,-186.79 378.25,-193.01"/>
<polygon fill="black" stroke="black" points="480.85,-144.04 487.8,-136.05 477.38,-137.96 480.85,-144.04"/>
<text text-anchor="middle" x="458" y="-160.8" font-family="Times,serif" font-size="14.00">कर्म</text>
</g>
</g>
</svg>
