<?xml version="1.0" encoding="UTF-8" standalone="no"?>
<!DOCTYPE svg PUBLIC "-//W3C//DTD SVG 1.1//EN"
 "http://www.w3.org/Graphics/SVG/1.1/DTD/svg11.dtd">
<!-- Generated by graphviz version 2.43.0 (0)
 -->
<!-- Title: G Pages: 1 -->
<svg width="660pt" height="392pt"
 viewBox="0.00 0.00 660.00 392.00" xmlns="http://www.w3.org/2000/svg" xmlns:xlink="http://www.w3.org/1999/xlink">
<g id="graph0" class="graph" transform="scale(1 1) rotate(0) translate(4 388)">
<title>G</title>
<polygon fill="#fffacd" stroke="transparent" points="-4,4 -4,-388 656,-388 656,4 -4,4"/>
<g id="clust1" class="cluster">
<title>cluster_1</title>
<polygon fill="#fffacd" stroke="black" points="256,-166 256,-305 644,-305 644,-166 256,-166"/>
</g>
<g id="clust2" class="cluster">
<title>cluster_2</title>
<polygon fill="#fffacd" stroke="black" points="8,-166 8,-305 118,-305 118,-166 8,-166"/>
</g>
<!-- Node1 -->
<g id="node1" class="node">
<title>Node1</title>
<ellipse fill="lightgrey" stroke="black" cx="594" cy="-192" rx="42.49" ry="18"/>
<text text-anchor="middle" x="594" y="-188.3" font-family="Times,serif" font-size="14.00">द्रौपदी(1)</text>
</g>
<!-- Node8 -->
<g id="node2" class="node">
<title>Node8</title>
<ellipse fill="lightgrey" stroke="black" cx="361" cy="-279" rx="65.79" ry="18"/>
<text text-anchor="middle" x="361" y="-275.3" font-family="Times,serif" font-size="14.00">पाण्डव&#45;स्त्रियः(8)</text>
</g>
<!-- Node1&#45;&gt;Node8 -->
<g id="edge1" class="edge">
<title>Node1&#45;&gt;Node8</title>
<path fill="none" stroke="black" d="M561.99,-212.28C543.98,-222.5 520.78,-234.64 499,-243 471.31,-253.63 439.26,-261.98 413.01,-267.86"/>
<polygon fill="black" stroke="black" points="564,-215.16 570.91,-207.14 560.5,-209.1 564,-215.16"/>
<text text-anchor="middle" x="553.5" y="-231.8" font-family="Times,serif" font-size="14.00">समुच्चितः</text>
</g>
<!-- Node11 -->
<g id="node11" class="node">
<title>Node11</title>
<ellipse fill="lightgrey" stroke="black" cx="188" cy="-366" rx="51.99" ry="18"/>
<text text-anchor="middle" x="188" y="-362.3" font-family="Times,serif" font-size="14.00">अवर्तन्त(11)</text>
</g>
<!-- Node8&#45;&gt;Node11 -->
<g id="edge8" class="edge">
<title>Node8&#45;&gt;Node11</title>
<path fill="none" stroke="black" d="M321.41,-299.45C289.5,-315.13 245.4,-336.8 216.79,-350.86"/>
<polygon fill="black" stroke="black" points="323.04,-302.55 330.47,-295 319.95,-296.27 323.04,-302.55"/>
<text text-anchor="middle" x="295" y="-318.8" font-family="Times,serif" font-size="14.00">कर्ता</text>
</g>
<!-- Node3 -->
<g id="node3" class="node">
<title>Node3</title>
<ellipse fill="lightgrey" stroke="black" cx="492" cy="-192" rx="42.49" ry="18"/>
<text text-anchor="middle" x="492" y="-188.3" font-family="Times,serif" font-size="14.00">सुभद्रा(3)</text>
</g>
<!-- Node3&#45;&gt;Node8 -->
<g id="edge3" class="edge">
<title>Node3&#45;&gt;Node8</title>
<path fill="none" stroke="black" d="M467.43,-215.25C456.67,-224.43 443.64,-234.81 431,-243 419.48,-250.46 406.16,-257.49 394.25,-263.25"/>
<polygon fill="black" stroke="black" points="469.92,-217.73 475.17,-208.52 465.33,-212.44 469.92,-217.73"/>
<text text-anchor="middle" x="472.5" y="-231.8" font-family="Times,serif" font-size="14.00">समुच्चितः</text>
</g>
<!-- Node5 -->
<g id="node4" class="node">
<title>Node5</title>
<ellipse fill="lightgrey" stroke="black" cx="399" cy="-192" rx="33.29" ry="18"/>
<text text-anchor="middle" x="399" y="-188.3" font-family="Times,serif" font-size="14.00">याः(5)</text>
</g>
<!-- Node5&#45;&gt;Node8 -->
<g id="edge5" class="edge">
<title>Node5&#45;&gt;Node8</title>
<path fill="none" stroke="black" d="M387.32,-219.13C381.24,-232.73 373.98,-248.98 368.62,-260.95"/>
<polygon fill="black" stroke="black" points="390.61,-220.35 391.49,-209.79 384.22,-217.49 390.61,-220.35"/>
<text text-anchor="middle" x="404.5" y="-231.8" font-family="Times,serif" font-size="14.00">विशेषणम्</text>
</g>
<!-- Node7 -->
<g id="node5" class="node">
<title>Node7</title>
<ellipse fill="lightgrey" stroke="black" cx="306" cy="-192" rx="42.49" ry="18"/>
<text text-anchor="middle" x="306" y="-188.3" font-family="Times,serif" font-size="14.00">अन्याः(7)</text>
</g>
<!-- Node7&#45;&gt;Node8 -->
<g id="edge7" class="edge">
<title>Node7&#45;&gt;Node8</title>
<path fill="none" stroke="black" d="M315.65,-219.47C319.04,-227.33 323.21,-235.77 328,-243 332.34,-249.54 337.94,-256 343.29,-261.55"/>
<polygon fill="black" stroke="black" points="318.79,-217.9 311.79,-209.95 312.3,-220.53 318.79,-217.9"/>
<text text-anchor="middle" x="350.5" y="-231.8" font-family="Times,serif" font-size="14.00">विशेषणम्</text>
</g>
<!-- Node9 -->
<g id="node6" class="node">
<title>Node9</title>
<ellipse fill="lightgrey" stroke="black" cx="63" cy="-192" rx="36.29" ry="18"/>
<text text-anchor="middle" x="63" y="-188.3" font-family="Times,serif" font-size="14.00">समां(9)</text>
</g>
<!-- Node10 -->
<g id="node7" class="node">
<title>Node10</title>
<ellipse fill="lightgrey" stroke="black" cx="63" cy="-279" rx="46.59" ry="18"/>
<text text-anchor="middle" x="63" y="-275.3" font-family="Times,serif" font-size="14.00">वृत्तिम्(10)</text>
</g>
<!-- Node9&#45;&gt;Node10 -->
<g id="edge9" class="edge">
<title>Node9&#45;&gt;Node10</title>
<path fill="none" stroke="black" d="M63,-220.27C63,-233.58 63,-249.19 63,-260.82"/>
<polygon fill="black" stroke="black" points="66.5,-220.2 63,-210.2 59.5,-220.2 66.5,-220.2"/>
<text text-anchor="middle" x="85.5" y="-231.8" font-family="Times,serif" font-size="14.00">विशेषणम्</text>
</g>
<!-- Node10&#45;&gt;Node11 -->
<g id="edge10" class="edge">
<title>Node10&#45;&gt;Node11</title>
<path fill="none" stroke="black" d="M93.46,-300.71C115.64,-315.8 145.2,-335.89 165.32,-349.58"/>
<polygon fill="black" stroke="black" points="95.3,-297.73 85.06,-295 91.36,-303.52 95.3,-297.73"/>
<text text-anchor="middle" x="142" y="-318.8" font-family="Times,serif" font-size="14.00">कर्म</text>
</g>
<!-- Node2 -->
<g id="node8" class="node">
<title>Node2</title>
<ellipse fill="lightgrey" stroke="black" cx="217" cy="-192" rx="28.7" ry="18"/>
<text text-anchor="middle" x="217" y="-188.3" font-family="Times,serif" font-size="14.00">च(2)</text>
</g>
<!-- Node2&#45;&gt;Node8 -->
<g id="edge2" class="edge">
<title>Node2&#45;&gt;Node8</title>
<path fill="none" stroke="black" d="M223.82,-219.71C227.16,-228.17 232.02,-236.9 239,-243 256.18,-258 279.41,-266.59 300.99,-271.51"/>
<polygon fill="black" stroke="black" points="227.08,-218.42 220.57,-210.07 220.45,-220.66 227.08,-218.42"/>
<text text-anchor="middle" x="277" y="-231.8" font-family="Times,serif" font-size="14.00">समुच्चय_द्योतकः</text>
</g>
<!-- Node4 -->
<g id="node9" class="node">
<title>Node4</title>
<ellipse fill="lightgrey" stroke="black" cx="399" cy="-105" rx="28.7" ry="18"/>
<text text-anchor="middle" x="399" y="-101.3" font-family="Times,serif" font-size="14.00">च(4)</text>
</g>
<!-- Node4&#45;&gt;Node5 -->
<g id="edge4" class="edge">
<title>Node4&#45;&gt;Node5</title>
<path fill="none" stroke="black" d="M399,-133.27C399,-146.58 399,-162.19 399,-173.82"/>
<polygon fill="black" stroke="black" points="402.5,-133.2 399,-123.2 395.5,-133.2 402.5,-133.2"/>
<text text-anchor="middle" x="417.5" y="-144.8" font-family="Times,serif" font-size="14.00">सम्बन्धः</text>
</g>
<!-- Node6 -->
<g id="node10" class="node">
<title>Node6</title>
<ellipse fill="lightgrey" stroke="black" cx="492" cy="-105" rx="28.7" ry="18"/>
<text text-anchor="middle" x="492" y="-101.3" font-family="Times,serif" font-size="14.00">च(6)</text>
</g>
<!-- Node6&#45;&gt;Node3 -->
<g id="edge6" class="edge">
<title>Node6&#45;&gt;Node3</title>
<path fill="none" stroke="black" d="M492,-133.27C492,-146.58 492,-162.19 492,-173.82"/>
<polygon fill="black" stroke="black" points="495.5,-133.2 492,-123.2 488.5,-133.2 495.5,-133.2"/>
<text text-anchor="middle" x="510.5" y="-144.8" font-family="Times,serif" font-size="14.00">सम्बन्धः</text>
</g>
<!-- Node12 -->
<g id="node12" class="node">
<title>Node12</title>
<ellipse fill="lightgrey" stroke="black" cx="63" cy="-18" rx="44.39" ry="18"/>
<text text-anchor="middle" x="63" y="-14.3" font-family="Times,serif" font-size="14.00">तयोः(12)</text>
</g>
<!-- Node13 -->
<g id="node13" class="node">
<title>Node13</title>
<ellipse fill="lightgrey" stroke="black" cx="63" cy="-105" rx="48.99" ry="18"/>
<text text-anchor="middle" x="63" y="-101.3" font-family="Times,serif" font-size="14.00">श्वश्र्वोः(13)</text>
</g>
<!-- Node12&#45;&gt;Node13 -->
<g id="edge11" class="edge">
<title>Node12&#45;&gt;Node13</title>
<path fill="none" stroke="black" d="M63,-46.27C63,-59.58 63,-75.19 63,-86.82"/>
<polygon fill="black" stroke="black" points="66.5,-46.2 63,-36.2 59.5,-46.2 66.5,-46.2"/>
<text text-anchor="middle" x="90.5" y="-57.8" font-family="Times,serif" font-size="14.00">षष्ठीसम्बन्धः</text>
</g>
<!-- Node13&#45;&gt;Node9 -->
<g id="edge12" class="edge">
<title>Node13&#45;&gt;Node9</title>
<path fill="none" stroke="black" d="M63,-133.27C63,-146.58 63,-162.19 63,-173.82"/>
<polygon fill="black" stroke="black" points="66.5,-133.2 63,-123.2 59.5,-133.2 66.5,-133.2"/>
<text text-anchor="middle" x="90.5" y="-144.8" font-family="Times,serif" font-size="14.00">षष्ठीसम्बन्धः</text>
</g>
<!-- Node14 -->
<g id="node14" class="node">
<title>Node14</title>
<ellipse fill="lightgrey" stroke="black" cx="188" cy="-279" rx="59.59" ry="18"/>
<text text-anchor="middle" x="188" y="-275.3" font-family="Times,serif" font-size="14.00">यथा&#45;विधि(14)</text>
</g>
<!-- Node14&#45;&gt;Node11 -->
<g id="edge13" class="edge">
<title>Node14&#45;&gt;Node11</title>
<path fill="none" stroke="black" d="M188,-307.27C188,-320.58 188,-336.19 188,-347.82"/>
<polygon fill="black" stroke="black" points="191.5,-307.2 188,-297.2 184.5,-307.2 191.5,-307.2"/>
<text text-anchor="middle" x="206.5" y="-318.8" font-family="Times,serif" font-size="14.00">सम्बन्धः</text>
</g>
</g>
</svg>
