<?xml version="1.0" encoding="UTF-8" standalone="no"?>
<!DOCTYPE svg PUBLIC "-//W3C//DTD SVG 1.1//EN"
 "http://www.w3.org/Graphics/SVG/1.1/DTD/svg11.dtd">
<!-- Generated by graphviz version 2.43.0 (0)
 -->
<!-- Title: G Pages: 1 -->
<svg width="793pt" height="305pt"
 viewBox="0.00 0.00 793.00 305.00" xmlns="http://www.w3.org/2000/svg" xmlns:xlink="http://www.w3.org/1999/xlink">
<g id="graph0" class="graph" transform="scale(1 1) rotate(0) translate(4 301)">
<title>G</title>
<polygon fill="#fffacd" stroke="transparent" points="-4,4 -4,-301 789,-301 789,4 -4,4"/>
<g id="clust1" class="cluster">
<title>cluster_1</title>
<polygon fill="#fffacd" stroke="black" points="529,-79 529,-218 777,-218 777,-79 529,-79"/>
</g>
<g id="clust2" class="cluster">
<title>cluster_2</title>
<polygon fill="#fffacd" stroke="black" points="8,-79 8,-218 132,-218 132,-79 8,-79"/>
</g>
<!-- Node2_1 -->
<g id="node1" class="node">
<title>Node2_1</title>
<ellipse fill="#00bfff" stroke="#00bfff" cx="713" cy="-105" rx="55.79" ry="18"/>
<text text-anchor="middle" x="713" y="-101.3" font-family="Times,serif" font-size="14.00">प्रियाणि(2.1)</text>
</g>
<!-- Node4_1 -->
<g id="node2" class="node">
<title>Node4_1</title>
<ellipse fill="#00bfff" stroke="#00bfff" cx="594" cy="-192" rx="57.39" ry="18"/>
<text text-anchor="middle" x="594" y="-188.3" font-family="Times,serif" font-size="14.00">कार्याणि(4.1)</text>
</g>
<!-- Node2_1&#45;&gt;Node4_1 -->
<g id="edge2" class="edge">
<title>Node2_1&#45;&gt;Node4_1</title>
<path fill="none" stroke="black" d="M682.98,-127.44C662.17,-142.31 634.92,-161.77 616.09,-175.22"/>
<polygon fill="black" stroke="black" points="685.07,-130.25 691.17,-121.59 681,-124.55 685.07,-130.25"/>
<text text-anchor="middle" x="682.5" y="-144.8" font-family="Times,serif" font-size="14.00">विशेषणम्</text>
</g>
<!-- Node7_1 -->
<g id="node7" class="node">
<title>Node7_1</title>
<ellipse fill="#ff1975" stroke="#ff1975" cx="349" cy="-279" rx="54.69" ry="18"/>
<text text-anchor="middle" x="349" y="-275.3" font-family="Times,serif" font-size="14.00">प्राप्यन्ते(7.1)</text>
</g>
<!-- Node4_1&#45;&gt;Node7_1 -->
<g id="edge4" class="edge">
<title>Node4_1&#45;&gt;Node7_1</title>
<path fill="none" stroke="black" d="M549.54,-209.88C523.05,-219.8 488.72,-232.43 458,-243 434.7,-251.02 408.39,-259.48 387.47,-266.08"/>
<polygon fill="black" stroke="black" points="550.79,-213.15 558.92,-206.35 548.33,-206.59 550.79,-213.15"/>
<text text-anchor="middle" x="508" y="-231.8" font-family="Times,serif" font-size="14.00">कर्म</text>
</g>
<!-- Node5_2 -->
<g id="node3" class="node">
<title>Node5_2</title>
<ellipse fill="#00bfff" stroke="#00bfff" cx="588" cy="-105" rx="51.19" ry="18"/>
<text text-anchor="middle" x="588" y="-101.3" font-family="Times,serif" font-size="14.00">गुरूणि(5.2)</text>
</g>
<!-- Node5_2&#45;&gt;Node4_1 -->
<g id="edge6" class="edge">
<title>Node5_2&#45;&gt;Node4_1</title>
<path fill="none" stroke="black" d="M589.92,-133.27C590.86,-146.58 591.97,-162.19 592.79,-173.82"/>
<polygon fill="black" stroke="black" points="593.41,-132.93 589.21,-123.2 586.43,-133.42 593.41,-132.93"/>
<text text-anchor="middle" x="613.5" y="-144.8" font-family="Times,serif" font-size="14.00">विशेषणम्</text>
</g>
<!-- Node9_2 -->
<g id="node4" class="node">
<title>Node9_2</title>
<ellipse fill="#40e0d0" stroke="#40e0d0" cx="70" cy="-105" rx="53.89" ry="18"/>
<text text-anchor="middle" x="70" y="-101.3" font-family="Times,serif" font-size="14.00">लघुभिः(9.2)</text>
</g>
<!-- Node8_1 -->
<g id="node5" class="node">
<title>Node8_1</title>
<ellipse fill="#40e0d0" stroke="#40e0d0" cx="73" cy="-192" rx="46.29" ry="18"/>
<text text-anchor="middle" x="73" y="-188.3" font-family="Times,serif" font-size="14.00">अर्थैः(8.1)</text>
</g>
<!-- Node9_2&#45;&gt;Node8_1 -->
<g id="edge10" class="edge">
<title>Node9_2&#45;&gt;Node8_1</title>
<path fill="none" stroke="black" d="M70.96,-133.27C71.43,-146.58 71.98,-162.19 72.39,-173.82"/>
<polygon fill="black" stroke="black" points="74.46,-133.07 70.61,-123.2 67.46,-133.32 74.46,-133.07"/>
<text text-anchor="middle" x="94.5" y="-144.8" font-family="Times,serif" font-size="14.00">विशेषणम्</text>
</g>
<!-- Node8_1&#45;&gt;Node7_1 -->
<g id="edge8" class="edge">
<title>Node8_1&#45;&gt;Node7_1</title>
<path fill="none" stroke="black" d="M111.03,-210.28C117.63,-213.02 124.47,-215.71 131,-218 190.44,-238.88 261.04,-257.16 305.44,-267.9"/>
<polygon fill="black" stroke="black" points="112.17,-206.96 101.6,-206.26 109.43,-213.4 112.17,-206.96"/>
<text text-anchor="middle" x="224.5" y="-231.8" font-family="Times,serif" font-size="14.00">करणम्</text>
</g>
<!-- Node1_1 -->
<g id="node6" class="node">
<title>Node1_1</title>
<ellipse fill="#b4ffb4" stroke="#b4ffb4" cx="204" cy="-192" rx="63.89" ry="18"/>
<text text-anchor="middle" x="204" y="-188.3" font-family="Times,serif" font-size="14.00">सामन्तेभ्यः(1.1)</text>
</g>
<!-- Node1_1&#45;&gt;Node7_1 -->
<g id="edge1" class="edge">
<title>Node1_1&#45;&gt;Node7_1</title>
<path fill="none" stroke="black" d="M239.35,-213.72C265.21,-228.88 299.72,-249.11 323.06,-262.79"/>
<polygon fill="black" stroke="black" points="240.99,-210.63 230.6,-208.59 237.45,-216.67 240.99,-210.63"/>
<text text-anchor="middle" x="308.5" y="-231.8" font-family="Times,serif" font-size="14.00">अपादानम्</text>
</g>
<!-- Node3_1 -->
<g id="node8" class="node">
<title>Node3_1</title>
<ellipse fill="#87ceeb" stroke="#87ceeb" cx="471" cy="-105" rx="47.39" ry="18"/>
<text text-anchor="middle" x="471" y="-101.3" font-family="Times,serif" font-size="14.00">अस्य(3.1)</text>
</g>
<!-- Node3_1&#45;&gt;Node4_1 -->
<g id="edge3" class="edge">
<title>Node3_1&#45;&gt;Node4_1</title>
<path fill="none" stroke="black" d="M501.5,-127.08C523.15,-142.04 551.74,-161.79 571.37,-175.36"/>
<polygon fill="black" stroke="black" points="503.21,-124 492.99,-121.2 499.23,-129.76 503.21,-124"/>
<text text-anchor="middle" x="557.5" y="-144.8" font-family="Times,serif" font-size="14.00">सम्बन्धः</text>
</g>
<!-- Node5_1 -->
<g id="node9" class="node">
<title>Node5_1</title>
<ellipse fill="#ffff00" stroke="#ffff00" cx="535" cy="-18" rx="40.89" ry="18"/>
<text text-anchor="middle" x="535" y="-14.3" font-family="Times,serif" font-size="14.00">सु&#45;(5.1)</text>
</g>
<!-- Node5_1&#45;&gt;Node5_2 -->
<g id="edge5" class="edge">
<title>Node5_1&#45;&gt;Node5_2</title>
<path fill="none" stroke="black" d="M550.84,-44.4C559.48,-58.26 569.93,-75.03 577.55,-87.24"/>
<polygon fill="black" stroke="black" points="553.73,-42.43 545.47,-35.79 547.79,-46.13 553.73,-42.43"/>
<text text-anchor="middle" x="573.5" y="-57.8" font-family="Times,serif" font-size="14.00">Tp</text>
</g>
<!-- Node6_1 -->
<g id="node10" class="node">
<title>Node6_1</title>
<ellipse fill="#ff99ff" stroke="#ff99ff" cx="640" cy="-18" rx="46.29" ry="18"/>
<text text-anchor="middle" x="640" y="-14.3" font-family="Times,serif" font-size="14.00">अपि(6.1)</text>
</g>
<!-- Node6_1&#45;&gt;Node5_2 -->
<g id="edge7" class="edge">
<title>Node6_1&#45;&gt;Node5_2</title>
<path fill="none" stroke="black" d="M624.46,-44.4C615.98,-58.26 605.73,-75.03 598.25,-87.24"/>
<polygon fill="black" stroke="black" points="627.49,-46.15 629.73,-35.79 621.52,-42.5 627.49,-46.15"/>
<text text-anchor="middle" x="635.5" y="-57.8" font-family="Times,serif" font-size="14.00">सम्बन्धः</text>
</g>
<!-- Node4_1_ -->
<g id="node11" class="node">
<title>Node4_1_</title>
<ellipse fill="lightgrey" stroke="black" cx="731" cy="-18" rx="27" ry="18"/>
</g>
<!-- Node9_1 -->
<g id="node12" class="node">
<title>Node9_1</title>
<ellipse fill="#ffff00" stroke="#ffff00" cx="70" cy="-18" rx="40.89" ry="18"/>
<text text-anchor="middle" x="70" y="-14.3" font-family="Times,serif" font-size="14.00">सु&#45;(9.1)</text>
</g>
<!-- Node9_1&#45;&gt;Node9_2 -->
<g id="edge9" class="edge">
<title>Node9_1&#45;&gt;Node9_2</title>
<path fill="none" stroke="black" d="M70,-46.27C70,-59.58 70,-75.19 70,-86.82"/>
<polygon fill="black" stroke="black" points="73.5,-46.2 70,-36.2 66.5,-46.2 73.5,-46.2"/>
<text text-anchor="middle" x="79.5" y="-57.8" font-family="Times,serif" font-size="14.00">Tp</text>
</g>
<!-- Node10_1 -->
<g id="node13" class="node">
<title>Node10_1</title>
<ellipse fill="#b4ffb4" stroke="#b4ffb4" cx="349" cy="-192" rx="63.09" ry="18"/>
<text text-anchor="middle" x="349" y="-188.3" font-family="Times,serif" font-size="14.00">प्रभावात्(10.1)</text>
</g>
<!-- Node10_1&#45;&gt;Node7_1 -->
<g id="edge11" class="edge">
<title>Node10_1&#45;&gt;Node7_1</title>
<path fill="none" stroke="black" d="M349,-220.27C349,-233.58 349,-249.19 349,-260.82"/>
<polygon fill="black" stroke="black" points="352.5,-220.2 349,-210.2 345.5,-220.2 352.5,-220.2"/>
<text text-anchor="middle" x="358.5" y="-231.8" font-family="Times,serif" font-size="14.00">हेतुः</text>
</g>
<!-- Node11_1 -->
<g id="node14" class="node">
<title>Node11_1</title>
<ellipse fill="#87ceeb" stroke="#87ceeb" cx="344" cy="-105" rx="61.99" ry="18"/>
<text text-anchor="middle" x="344" y="-101.3" font-family="Times,serif" font-size="14.00">विदुरस्य(11.1)</text>
</g>
<!-- Node11_1&#45;&gt;Node10_1 -->
<g id="edge12" class="edge">
<title>Node11_1&#45;&gt;Node10_1</title>
<path fill="none" stroke="black" d="M345.6,-133.27C346.39,-146.58 347.31,-162.19 347.99,-173.82"/>
<polygon fill="black" stroke="black" points="349.09,-132.98 345.01,-123.2 342.11,-133.39 349.09,-132.98"/>
<text text-anchor="middle" x="373.5" y="-144.8" font-family="Times,serif" font-size="14.00">षष्ठीसम्बन्धः</text>
</g>
<!-- Node12_1 -->
<g id="node15" class="node">
<title>Node12_1</title>
<ellipse fill="#ff99ff" stroke="#ff99ff" cx="472" cy="-192" rx="42.49" ry="18"/>
<text text-anchor="middle" x="472" y="-188.3" font-family="Times,serif" font-size="14.00">वै(12.1)</text>
</g>
<!-- Node12_1&#45;&gt;Node7_1 -->
<g id="edge13" class="edge">
<title>Node12_1&#45;&gt;Node7_1</title>
<path fill="none" stroke="black" d="M442.61,-213.31C420.8,-228.38 391.5,-248.63 371.53,-262.43"/>
<polygon fill="black" stroke="black" points="444.62,-216.18 450.86,-207.61 440.64,-210.42 444.62,-216.18"/>
<text text-anchor="middle" x="435.5" y="-231.8" font-family="Times,serif" font-size="14.00">सम्बन्धः</text>
</g>
</g>
</svg>
