<?xml version="1.0" encoding="UTF-8" standalone="no"?>
<!DOCTYPE svg PUBLIC "-//W3C//DTD SVG 1.1//EN"
 "http://www.w3.org/Graphics/SVG/1.1/DTD/svg11.dtd">
<!-- Generated by graphviz version 2.43.0 (0)
 -->
<!-- Title: G Pages: 1 -->
<svg width="517pt" height="408pt"
 viewBox="0.00 0.00 517.00 408.00" xmlns="http://www.w3.org/2000/svg" xmlns:xlink="http://www.w3.org/1999/xlink">
<g id="graph0" class="graph" transform="scale(1 1) rotate(0) translate(4 404)">
<title>G</title>
<polygon fill="#fffacd" stroke="transparent" points="-4,4 -4,-404 513,-404 513,4 -4,4"/>
<g id="clust1" class="cluster">
<title>cluster_1</title>
<polygon fill="#fffacd" stroke="black" points="8,-8 8,-147 108,-147 108,-8 8,-8"/>
</g>
<g id="clust2" class="cluster">
<title>cluster_2</title>
<polygon fill="#fffacd" stroke="black" points="281,-182 281,-321 501,-321 501,-182 281,-182"/>
</g>
<!-- Node4 -->
<g id="node1" class="node">
<title>Node4</title>
<ellipse fill="#87ceeb" stroke="#87ceeb" cx="55" cy="-34" rx="37.09" ry="18"/>
<text text-anchor="middle" x="55" y="-30.3" font-family="Times,serif" font-size="14.00">तस्य(4)</text>
</g>
<!-- Node5 -->
<g id="node2" class="node">
<title>Node5</title>
<ellipse fill="#87ceeb" stroke="#87ceeb" cx="58" cy="-121" rx="42.49" ry="18"/>
<text text-anchor="middle" x="58" y="-117.3" font-family="Times,serif" font-size="14.00">वीरस्य(5)</text>
</g>
<!-- Node4&#45;&gt;Node5 -->
<g id="edge5" class="edge">
<title>Node4&#45;&gt;Node5</title>
<path fill="none" stroke="black" d="M55.96,-62.27C56.43,-75.58 56.98,-91.19 57.39,-102.82"/>
<polygon fill="black" stroke="black" points="59.46,-62.07 55.61,-52.2 52.46,-62.32 59.46,-62.07"/>
<text text-anchor="middle" x="78.5" y="-73.8" font-family="Times,serif" font-size="14.00">विशेषणम्</text>
</g>
<!-- Node6 -->
<g id="node10" class="node">
<title>Node6</title>
<ellipse fill="#b4ffb4" stroke="#b4ffb4" cx="58" cy="-208" rx="44.39" ry="18"/>
<text text-anchor="middle" x="58" y="-204.3" font-family="Times,serif" font-size="14.00">हृदयात्(6)</text>
</g>
<!-- Node5&#45;&gt;Node6 -->
<g id="edge6" class="edge">
<title>Node5&#45;&gt;Node6</title>
<path fill="none" stroke="black" d="M58,-149.27C58,-162.58 58,-178.19 58,-189.82"/>
<polygon fill="black" stroke="black" points="61.5,-149.2 58,-139.2 54.5,-149.2 61.5,-149.2"/>
<text text-anchor="middle" x="85.5" y="-160.8" font-family="Times,serif" font-size="14.00">षष्ठीसम्बन्धः</text>
</g>
<!-- Node10 -->
<g id="node3" class="node">
<title>Node10</title>
<ellipse fill="#00bfff" stroke="#00bfff" cx="454" cy="-208" rx="38.99" ry="18"/>
<text text-anchor="middle" x="454" y="-204.3" font-family="Times,serif" font-size="14.00">यत्(10)</text>
</g>
<!-- Node11 -->
<g id="node4" class="node">
<title>Node11</title>
<ellipse fill="#00bfff" stroke="#00bfff" cx="360" cy="-295" rx="39.79" ry="18"/>
<text text-anchor="middle" x="360" y="-291.3" font-family="Times,serif" font-size="14.00">वृत्तं(11)</text>
</g>
<!-- Node10&#45;&gt;Node11 -->
<g id="edge10" class="edge">
<title>Node10&#45;&gt;Node11</title>
<path fill="none" stroke="black" d="M430.67,-231.48C421.51,-240.18 410.86,-250.15 401,-259 393.62,-265.63 385.32,-272.77 378.13,-278.86"/>
<polygon fill="black" stroke="black" points="433.14,-233.97 437.96,-224.53 428.31,-228.9 433.14,-233.97"/>
<text text-anchor="middle" x="439.5" y="-247.8" font-family="Times,serif" font-size="14.00">विशेषणम्</text>
</g>
<!-- Node14 -->
<g id="node13" class="node">
<title>Node14</title>
<ellipse fill="#ff1975" stroke="#ff1975" cx="360" cy="-382" rx="57.69" ry="18"/>
<text text-anchor="middle" x="360" y="-378.3" font-family="Times,serif" font-size="14.00">(आसीत्)(14)</text>
</g>
<!-- Node11&#45;&gt;Node14 -->
<g id="edge11" class="edge">
<title>Node11&#45;&gt;Node14</title>
<path fill="none" stroke="black" d="M360,-323.27C360,-336.58 360,-352.19 360,-363.82"/>
<polygon fill="black" stroke="black" points="363.5,-323.2 360,-313.2 356.5,-323.2 363.5,-323.2"/>
<text text-anchor="middle" x="371" y="-334.8" font-family="Times,serif" font-size="14.00">कर्ता</text>
</g>
<!-- Node13 -->
<g id="node5" class="node">
<title>Node13</title>
<ellipse fill="#00bfff" stroke="#00bfff" cx="343" cy="-208" rx="53.89" ry="18"/>
<text text-anchor="middle" x="343" y="-204.3" font-family="Times,serif" font-size="14.00">कारितम्(13)</text>
</g>
<!-- Node13&#45;&gt;Node11 -->
<g id="edge13" class="edge">
<title>Node13&#45;&gt;Node11</title>
<path fill="none" stroke="black" d="M348.45,-236.27C351.12,-249.58 354.24,-265.19 356.56,-276.82"/>
<polygon fill="black" stroke="black" points="351.83,-235.32 346.44,-226.2 344.97,-236.69 351.83,-235.32"/>
<text text-anchor="middle" x="374.5" y="-247.8" font-family="Times,serif" font-size="14.00">विशेषणम्</text>
</g>
<!-- Node1 -->
<g id="node6" class="node">
<title>Node1</title>
<ellipse fill="#ff99ff" stroke="#ff99ff" cx="149" cy="-208" rx="28.7" ry="18"/>
<text text-anchor="middle" x="149" y="-204.3" font-family="Times,serif" font-size="14.00">न(1)</text>
</g>
<!-- Node7 -->
<g id="node7" class="node">
<title>Node7</title>
<ellipse fill="#ff1975" stroke="#ff1975" cx="143" cy="-295" rx="52.79" ry="18"/>
<text text-anchor="middle" x="143" y="-291.3" font-family="Times,serif" font-size="14.00">अपसर्पति(7)</text>
</g>
<!-- Node1&#45;&gt;Node7 -->
<g id="edge1" class="edge">
<title>Node1&#45;&gt;Node7</title>
<path fill="none" stroke="black" d="M144.8,-236.1C144.48,-238.76 144.21,-241.43 144,-244 143.12,-254.9 142.86,-267.19 142.83,-276.85"/>
<polygon fill="black" stroke="black" points="148.28,-236.42 146.14,-226.04 141.35,-235.49 148.28,-236.42"/>
<text text-anchor="middle" x="163.5" y="-247.8" font-family="Times,serif" font-size="14.00">प्रतिषेधः</text>
</g>
<!-- Node2 -->
<g id="node8" class="node">
<title>Node2</title>
<ellipse fill="#ff99ff" stroke="#ff99ff" cx="149" cy="-121" rx="30.59" ry="18"/>
<text text-anchor="middle" x="149" y="-117.3" font-family="Times,serif" font-size="14.00">हि(2)</text>
</g>
<!-- Node2&#45;&gt;Node1 -->
<g id="edge2" class="edge">
<title>Node2&#45;&gt;Node1</title>
<path fill="none" stroke="black" d="M149,-149.27C149,-162.58 149,-178.19 149,-189.82"/>
<polygon fill="black" stroke="black" points="152.5,-149.2 149,-139.2 145.5,-149.2 152.5,-149.2"/>
<text text-anchor="middle" x="167.5" y="-160.8" font-family="Times,serif" font-size="14.00">सम्बन्धः</text>
</g>
<!-- Node3 -->
<g id="node9" class="node">
<title>Node3</title>
<ellipse fill="#00bfff" stroke="#00bfff" cx="231" cy="-208" rx="33.29" ry="18"/>
<text text-anchor="middle" x="231" y="-204.3" font-family="Times,serif" font-size="14.00">तत्(3)</text>
</g>
<!-- Node3&#45;&gt;Node11 -->
<g id="edge3" class="edge">
<title>Node3&#45;&gt;Node11</title>
<path fill="none" stroke="black" d="M242.67,-234.96C247.6,-243.57 254.06,-252.59 262,-259 279.85,-273.42 304.11,-282.14 324.02,-287.28"/>
<polygon fill="black" stroke="black" points="245.67,-233.14 237.93,-225.91 239.47,-236.39 245.67,-233.14"/>
<text text-anchor="middle" x="304" y="-247.8" font-family="Times,serif" font-size="14.00">कर्तृसमानाधिरणम्</text>
</g>
<!-- Node3&#45;&gt;Node7 -->
<g id="edge4" class="edge">
<title>Node3&#45;&gt;Node7</title>
<path fill="none" stroke="black" stroke-dasharray="1,5" d="M209.57,-232.16C201.41,-240.75 191.93,-250.47 183,-259 176.33,-265.37 168.76,-272.11 162.02,-277.95"/>
<polygon fill="black" stroke="black" points="212.33,-234.34 216.63,-224.66 207.23,-229.54 212.33,-234.34"/>
<text text-anchor="middle" x="209.5" y="-247.8" font-family="Times,serif" font-size="14.00"> कर्ता</text>
</g>
<!-- Node6&#45;&gt;Node7 -->
<g id="edge7" class="edge">
<title>Node6&#45;&gt;Node7</title>
<path fill="none" stroke="black" d="M72.75,-234.57C78.2,-242.87 84.82,-251.79 92,-259 99.5,-266.53 108.83,-273.47 117.45,-279.15"/>
<polygon fill="black" stroke="black" points="75.6,-232.53 67.32,-225.92 69.67,-236.25 75.6,-232.53"/>
<text text-anchor="middle" x="115.5" y="-247.8" font-family="Times,serif" font-size="14.00">अपादानम्</text>
</g>
<!-- Node8 -->
<g id="node11" class="node">
<title>Node8</title>
<ellipse fill="#87ceeb" stroke="#87ceeb" cx="248" cy="-34" rx="55.79" ry="18"/>
<text text-anchor="middle" x="248" y="-30.3" font-family="Times,serif" font-size="14.00">धृतराष्ट्रस्य(8)</text>
</g>
<!-- Node9 -->
<g id="node12" class="node">
<title>Node9</title>
<ellipse fill="#b4ffb4" stroke="#b4ffb4" cx="248" cy="-121" rx="40.09" ry="18"/>
<text text-anchor="middle" x="248" y="-117.3" font-family="Times,serif" font-size="14.00">दुर्बुद्धेः(9)</text>
</g>
<!-- Node8&#45;&gt;Node9 -->
<g id="edge8" class="edge">
<title>Node8&#45;&gt;Node9</title>
<path fill="none" stroke="black" d="M248,-62.27C248,-75.58 248,-91.19 248,-102.82"/>
<polygon fill="black" stroke="black" points="251.5,-62.2 248,-52.2 244.5,-62.2 251.5,-62.2"/>
<text text-anchor="middle" x="275.5" y="-73.8" font-family="Times,serif" font-size="14.00">षष्ठीसम्बन्धः</text>
</g>
<!-- Node9&#45;&gt;Node13 -->
<g id="edge9" class="edge">
<title>Node9&#45;&gt;Node13</title>
<path fill="none" stroke="black" d="M273.03,-144.4C289.38,-159.02 310.34,-177.78 325.04,-190.93"/>
<polygon fill="black" stroke="black" points="275.21,-141.65 265.42,-137.59 270.54,-146.87 275.21,-141.65"/>
<text text-anchor="middle" x="310.5" y="-160.8" font-family="Times,serif" font-size="14.00">हेतुः</text>
</g>
<!-- Node12 -->
<g id="node14" class="node">
<title>Node12</title>
<ellipse fill="#93db70" stroke="#93db70" cx="349" cy="-121" rx="42.49" ry="18"/>
<text text-anchor="middle" x="349" y="-117.3" font-family="Times,serif" font-size="14.00">द्यूत&#45;(12)</text>
</g>
<!-- Node12&#45;&gt;Node13 -->
<g id="edge12" class="edge">
<title>Node12&#45;&gt;Node13</title>
<path fill="none" stroke="black" d="M347.08,-149.27C346.14,-162.58 345.03,-178.19 344.21,-189.82"/>
<polygon fill="black" stroke="black" points="350.57,-149.42 347.79,-139.2 343.59,-148.93 350.57,-149.42"/>
<text text-anchor="middle" x="355.5" y="-160.8" font-family="Times,serif" font-size="14.00">T3</text>
</g>
</g>
</svg>
