<?xml version="1.0" encoding="UTF-8" standalone="no"?>
<!DOCTYPE svg PUBLIC "-//W3C//DTD SVG 1.1//EN"
 "http://www.w3.org/Graphics/SVG/1.1/DTD/svg11.dtd">
<!-- Generated by graphviz version 2.43.0 (0)
 -->
<!-- Title: G Pages: 1 -->
<svg width="693pt" height="392pt"
 viewBox="0.00 0.00 692.60 392.00" xmlns="http://www.w3.org/2000/svg" xmlns:xlink="http://www.w3.org/1999/xlink">
<g id="graph0" class="graph" transform="scale(1 1) rotate(0) translate(4 388)">
<title>G</title>
<polygon fill="#fffacd" stroke="transparent" points="-4,4 -4,-388 688.6,-388 688.6,4 -4,4"/>
<g id="clust1" class="cluster">
<title>cluster_1</title>
<polygon fill="#fffacd" stroke="black" points="440.6,-79 440.6,-305 676.6,-305 676.6,-79 440.6,-79"/>
</g>
<!-- Node3 -->
<g id="node1" class="node">
<title>Node3</title>
<ellipse fill="#93db70" stroke="#93db70" cx="617.6" cy="-192" rx="50.89" ry="18"/>
<text text-anchor="middle" x="617.6" y="-188.3" font-family="Times,serif" font-size="14.00">महार्हाणि(3)</text>
</g>
<!-- Node1 -->
<g id="node2" class="node">
<title>Node1</title>
<ellipse fill="#93db70" stroke="#93db70" cx="498.6" cy="-279" rx="46.59" ry="18"/>
<text text-anchor="middle" x="498.6" y="-275.3" font-family="Times,serif" font-size="14.00">वासांसि(1)</text>
</g>
<!-- Node3&#45;&gt;Node1 -->
<g id="edge3" class="edge">
<title>Node3&#45;&gt;Node1</title>
<path fill="none" stroke="black" d="M587.75,-214.32C566.66,-229.38 538.89,-249.22 519.98,-262.72"/>
<polygon fill="black" stroke="black" points="589.94,-217.05 596.05,-208.39 585.87,-211.36 589.94,-217.05"/>
<text text-anchor="middle" x="587.1" y="-231.8" font-family="Times,serif" font-size="14.00">विशेषणम्</text>
</g>
<!-- Node7 -->
<g id="node5" class="node">
<title>Node7</title>
<ellipse fill="#ff1975" stroke="#ff1975" cx="258.6" cy="-366" rx="48.19" ry="18"/>
<text text-anchor="middle" x="258.6" y="-362.3" font-family="Times,serif" font-size="14.00">उपाजह्रुः(7)</text>
</g>
<!-- Node1&#45;&gt;Node7 -->
<g id="edge1" class="edge">
<title>Node1&#45;&gt;Node7</title>
<path fill="none" stroke="black" d="M460.29,-297.4C454.08,-300.05 447.69,-302.67 441.6,-305 391.47,-324.16 332.26,-342.88 295.07,-354.18"/>
<polygon fill="black" stroke="black" points="462.04,-300.46 469.82,-293.26 459.26,-294.04 462.04,-300.46"/>
<text text-anchor="middle" x="421.6" y="-318.8" font-family="Times,serif" font-size="14.00">कर्म</text>
</g>
<!-- Node4 -->
<g id="node3" class="node">
<title>Node4</title>
<ellipse fill="#93db70" stroke="#93db70" cx="498.6" cy="-192" rx="50.09" ry="18"/>
<text text-anchor="middle" x="498.6" y="-188.3" font-family="Times,serif" font-size="14.00">माल्यानि(4)</text>
</g>
<!-- Node4&#45;&gt;Node1 -->
<g id="edge4" class="edge">
<title>Node4&#45;&gt;Node1</title>
<path fill="none" stroke="black" d="M498.6,-220.27C498.6,-233.58 498.6,-249.19 498.6,-260.82"/>
<polygon fill="black" stroke="black" points="502.1,-220.2 498.6,-210.2 495.1,-220.2 502.1,-220.2"/>
<text text-anchor="middle" x="521.1" y="-231.8" font-family="Times,serif" font-size="14.00">समुच्चितः</text>
</g>
<!-- Node5 -->
<g id="node4" class="node">
<title>Node5</title>
<ellipse fill="#93db70" stroke="#93db70" cx="500.6" cy="-105" rx="51.99" ry="18"/>
<text text-anchor="middle" x="500.6" y="-101.3" font-family="Times,serif" font-size="14.00">विविधानि(5)</text>
</g>
<!-- Node5&#45;&gt;Node4 -->
<g id="edge5" class="edge">
<title>Node5&#45;&gt;Node4</title>
<path fill="none" stroke="black" d="M499.95,-133.27C499.64,-146.58 499.27,-162.19 499,-173.82"/>
<polygon fill="black" stroke="black" points="503.45,-133.28 500.19,-123.2 496.46,-133.12 503.45,-133.28"/>
<text text-anchor="middle" x="522.1" y="-144.8" font-family="Times,serif" font-size="14.00">विशेषणम्</text>
</g>
<!-- Node2 -->
<g id="node6" class="node">
<title>Node2</title>
<ellipse fill="#ff99ff" stroke="#ff99ff" cx="399.6" cy="-192" rx="28.7" ry="18"/>
<text text-anchor="middle" x="399.6" y="-188.3" font-family="Times,serif" font-size="14.00">च(2)</text>
</g>
<!-- Node2&#45;&gt;Node1 -->
<g id="edge2" class="edge">
<title>Node2&#45;&gt;Node1</title>
<path fill="none" stroke="black" d="M405.45,-219.8C408.3,-228.03 412.5,-236.59 418.6,-243 429.88,-254.86 445.89,-262.94 460.62,-268.32"/>
<polygon fill="black" stroke="black" points="408.77,-218.7 402.58,-210.1 402.06,-220.68 408.77,-218.7"/>
<text text-anchor="middle" x="456.6" y="-231.8" font-family="Times,serif" font-size="14.00">समुच्चय_द्योतकः</text>
</g>
<!-- Node6 -->
<g id="node7" class="node">
<title>Node6</title>
<ellipse fill="#ff99ff" stroke="#ff99ff" cx="500.6" cy="-18" rx="28.7" ry="18"/>
<text text-anchor="middle" x="500.6" y="-14.3" font-family="Times,serif" font-size="14.00">च(6)</text>
</g>
<!-- Node6&#45;&gt;Node5 -->
<g id="edge6" class="edge">
<title>Node6&#45;&gt;Node5</title>
<path fill="none" stroke="black" d="M500.6,-46.27C500.6,-59.58 500.6,-75.19 500.6,-86.82"/>
<polygon fill="black" stroke="black" points="504.1,-46.2 500.6,-36.2 497.1,-46.2 504.1,-46.2"/>
<text text-anchor="middle" x="519.1" y="-57.8" font-family="Times,serif" font-size="14.00">सम्बन्धः</text>
</g>
<!-- Node10 -->
<g id="node8" class="node">
<title>Node10</title>
<ellipse fill="#00bfff" stroke="#00bfff" cx="54.6" cy="-279" rx="54.69" ry="18"/>
<text text-anchor="middle" x="54.6" y="-275.3" font-family="Times,serif" font-size="14.00">पाण्डवाः(10)</text>
</g>
<!-- Node10&#45;&gt;Node7 -->
<g id="edge9" class="edge">
<title>Node10&#45;&gt;Node7</title>
<path fill="none" stroke="black" d="M96.86,-297.61C135.8,-313.84 192.68,-337.53 227.57,-352.07"/>
<polygon fill="black" stroke="black" points="97.95,-294.27 87.37,-293.66 95.26,-300.73 97.95,-294.27"/>
<text text-anchor="middle" x="180.6" y="-318.8" font-family="Times,serif" font-size="14.00">कर्ता</text>
</g>
<!-- Node8 -->
<g id="node9" class="node">
<title>Node8</title>
<ellipse fill="#ff99ff" stroke="#ff99ff" cx="177.6" cy="-279" rx="50.89" ry="18"/>
<text text-anchor="middle" x="177.6" y="-275.3" font-family="Times,serif" font-size="14.00">यथान्यायं(8)</text>
</g>
<!-- Node8&#45;&gt;Node7 -->
<g id="edge7" class="edge">
<title>Node8&#45;&gt;Node7</title>
<path fill="none" stroke="black" d="M200.38,-303.91C214,-318.2 230.94,-335.98 243.03,-348.66"/>
<polygon fill="black" stroke="black" points="202.65,-301.21 193.21,-296.39 197.58,-306.04 202.65,-301.21"/>
<text text-anchor="middle" x="258.6" y="-318.8" font-family="Times,serif" font-size="14.00">क्रियाविशेषणम्</text>
</g>
<!-- Node9 -->
<g id="node10" class="node">
<title>Node9</title>
<ellipse fill="#b0e2ff" stroke="#b0e2ff" cx="339.6" cy="-279" rx="92.88" ry="18"/>
<text text-anchor="middle" x="339.6" y="-275.3" font-family="Times,serif" font-size="14.00">धृतराष्ट्रस्य(धृतराष्ट्राय)(9)</text>
</g>
<!-- Node9&#45;&gt;Node7 -->
<g id="edge8" class="edge">
<title>Node9&#45;&gt;Node7</title>
<path fill="none" stroke="black" d="M319.75,-305.02C312.96,-313.19 305.16,-322.18 297.6,-330 291.27,-336.54 283.93,-343.31 277.34,-349.13"/>
<polygon fill="black" stroke="black" points="322.54,-307.14 326.16,-297.18 317.12,-302.7 322.54,-307.14"/>
<text text-anchor="middle" x="335.1" y="-318.8" font-family="Times,serif" font-size="14.00">सम्प्रदानम्</text>
</g>
</g>
</svg>
