<?xml version="1.0" encoding="UTF-8" standalone="no"?>
<!DOCTYPE svg PUBLIC "-//W3C//DTD SVG 1.1//EN"
 "http://www.w3.org/Graphics/SVG/1.1/DTD/svg11.dtd">
<!-- Generated by graphviz version 2.43.0 (0)
 -->
<!-- Title: G Pages: 1 -->
<svg width="264pt" height="305pt"
 viewBox="0.00 0.00 263.94 305.00" xmlns="http://www.w3.org/2000/svg" xmlns:xlink="http://www.w3.org/1999/xlink">
<g id="graph0" class="graph" transform="scale(1 1) rotate(0) translate(4 301)">
<title>G</title>
<polygon fill="#fffacd" stroke="transparent" points="-4,4 -4,-301 259.94,-301 259.94,4 -4,4"/>
<!-- Node1 -->
<g id="node1" class="node">
<title>Node1</title>
<ellipse fill="#00bfff" stroke="#00bfff" cx="189" cy="-192" rx="66.89" ry="18"/>
<text text-anchor="middle" x="189" y="-188.3" font-family="Times,serif" font-size="14.00">कुन्तिभोजसुता(1)</text>
</g>
<!-- Node5 -->
<g id="node2" class="node">
<title>Node5</title>
<ellipse fill="#ff1975" stroke="#ff1975" cx="72" cy="-279" rx="51.19" ry="18"/>
<text text-anchor="middle" x="72" y="-275.3" font-family="Times,serif" font-size="14.00">अन्ववर्तत(5)</text>
</g>
<!-- Node1&#45;&gt;Node5 -->
<g id="edge1" class="edge">
<title>Node1&#45;&gt;Node5</title>
<path fill="none" stroke="black" d="M158.36,-215.25C137.94,-230.09 111.6,-249.23 93.41,-262.45"/>
<polygon fill="black" stroke="black" points="160.68,-217.9 166.71,-209.19 156.57,-212.23 160.68,-217.9"/>
<text text-anchor="middle" x="148" y="-231.8" font-family="Times,serif" font-size="14.00">कर्ता</text>
</g>
<!-- Node2 -->
<g id="node3" class="node">
<title>Node2</title>
<ellipse fill="#ff99ff" stroke="#ff99ff" cx="189" cy="-105" rx="28.7" ry="18"/>
<text text-anchor="middle" x="189" y="-101.3" font-family="Times,serif" font-size="14.00">च(2)</text>
</g>
<!-- Node2&#45;&gt;Node1 -->
<g id="edge2" class="edge">
<title>Node2&#45;&gt;Node1</title>
<path fill="none" stroke="black" d="M189,-133.27C189,-146.58 189,-162.19 189,-173.82"/>
<polygon fill="black" stroke="black" points="192.5,-133.2 189,-123.2 185.5,-133.2 192.5,-133.2"/>
<text text-anchor="middle" x="207.5" y="-144.8" font-family="Times,serif" font-size="14.00">सम्बन्धः</text>
</g>
<!-- Node3 -->
<g id="node4" class="node">
<title>Node3</title>
<ellipse fill="#ff99ff" stroke="#ff99ff" cx="189" cy="-18" rx="32.49" ry="18"/>
<text text-anchor="middle" x="189" y="-14.3" font-family="Times,serif" font-size="14.00">एव(3)</text>
</g>
<!-- Node3&#45;&gt;Node2 -->
<g id="edge3" class="edge">
<title>Node3&#45;&gt;Node2</title>
<path fill="none" stroke="black" d="M189,-46.27C189,-59.58 189,-75.19 189,-86.82"/>
<polygon fill="black" stroke="black" points="192.5,-46.2 189,-36.2 185.5,-46.2 192.5,-46.2"/>
<text text-anchor="middle" x="207.5" y="-57.8" font-family="Times,serif" font-size="14.00">सम्बन्धः</text>
</g>
<!-- Node4 -->
<g id="node5" class="node">
<title>Node4</title>
<ellipse fill="#93db70" stroke="#93db70" cx="52" cy="-192" rx="51.99" ry="18"/>
<text text-anchor="middle" x="52" y="-188.3" font-family="Times,serif" font-size="14.00">गान्धारीम्(4)</text>
</g>
<!-- Node4&#45;&gt;Node5 -->
<g id="edge4" class="edge">
<title>Node4&#45;&gt;Node5</title>
<path fill="none" stroke="black" d="M58.41,-220.27C61.54,-233.58 65.22,-249.19 67.95,-260.82"/>
<polygon fill="black" stroke="black" points="61.74,-219.13 56.04,-210.2 54.93,-220.74 61.74,-219.13"/>
<text text-anchor="middle" x="72" y="-231.8" font-family="Times,serif" font-size="14.00">कर्म</text>
</g>
</g>
</svg>
