<?xml version="1.0" encoding="UTF-8" standalone="no"?>
<!DOCTYPE svg PUBLIC "-//W3C//DTD SVG 1.1//EN"
 "http://www.w3.org/Graphics/SVG/1.1/DTD/svg11.dtd">
<!-- Generated by graphviz version 2.43.0 (0)
 -->
<!-- Title: G Pages: 1 -->
<svg width="758pt" height="321pt"
 viewBox="0.00 0.00 758.00 321.00" xmlns="http://www.w3.org/2000/svg" xmlns:xlink="http://www.w3.org/1999/xlink">
<g id="graph0" class="graph" transform="scale(1 1) rotate(0) translate(4 317)">
<title>G</title>
<polygon fill="#fffacd" stroke="transparent" points="-4,4 -4,-317 754,-317 754,4 -4,4"/>
<g id="clust1" class="cluster">
<title>cluster_1</title>
<polygon fill="#fffacd" stroke="black" points="488,-8 488,-147 620,-147 620,-8 488,-8"/>
</g>
<g id="clust2" class="cluster">
<title>cluster_2</title>
<polygon fill="#fffacd" stroke="black" points="628,-8 628,-147 742,-147 742,-8 628,-8"/>
</g>
<g id="clust3" class="cluster">
<title>cluster_3</title>
<polygon fill="#fffacd" stroke="black" points="8,-95 8,-234 134,-234 134,-95 8,-95"/>
</g>
<!-- Node2 -->
<g id="node1" class="node">
<title>Node2</title>
<ellipse fill="#00bfff" stroke="#00bfff" cx="554" cy="-34" rx="57.69" ry="18"/>
<text text-anchor="middle" x="554" y="-30.3" font-family="Times,serif" font-size="14.00">पुत्रवियुक्तः(2)</text>
</g>
<!-- Node3 -->
<g id="node2" class="node">
<title>Node3</title>
<ellipse fill="#00bfff" stroke="#00bfff" cx="552" cy="-121" rx="34.39" ry="18"/>
<text text-anchor="middle" x="552" y="-117.3" font-family="Times,serif" font-size="14.00">अयं(3)</text>
</g>
<!-- Node2&#45;&gt;Node3 -->
<g id="edge2" class="edge">
<title>Node2&#45;&gt;Node3</title>
<path fill="none" stroke="black" d="M553.36,-62.27C553.05,-75.58 552.68,-91.19 552.4,-102.82"/>
<polygon fill="black" stroke="black" points="556.86,-62.28 553.6,-52.2 549.86,-62.12 556.86,-62.28"/>
<text text-anchor="middle" x="575.5" y="-73.8" font-family="Times,serif" font-size="14.00">विशेषणम्</text>
</g>
<!-- Node7 -->
<g id="node8" class="node">
<title>Node7</title>
<ellipse fill="#ff1975" stroke="#ff1975" cx="436" cy="-208" rx="51.99" ry="18"/>
<text text-anchor="middle" x="436" y="-204.3" font-family="Times,serif" font-size="14.00">आप्नुयात्(7)</text>
</g>
<!-- Node3&#45;&gt;Node7 -->
<g id="edge3" class="edge">
<title>Node3&#45;&gt;Node7</title>
<path fill="none" stroke="black" d="M543.03,-148.76C539.17,-157.08 533.92,-165.72 527,-172 513.59,-184.17 495.49,-192.29 478.97,-197.6"/>
<polygon fill="black" stroke="black" points="546.36,-149.87 546.94,-139.29 539.89,-147.2 546.36,-149.87"/>
<text text-anchor="middle" x="549" y="-160.8" font-family="Times,serif" font-size="14.00">कर्ता</text>
</g>
<!-- Node5 -->
<g id="node3" class="node">
<title>Node5</title>
<ellipse fill="#93db70" stroke="#93db70" cx="685" cy="-34" rx="48.99" ry="18"/>
<text text-anchor="middle" x="685" y="-30.3" font-family="Times,serif" font-size="14.00">किञ्चित्(5)</text>
</g>
<!-- Node6 -->
<g id="node4" class="node">
<title>Node6</title>
<ellipse fill="#93db70" stroke="#93db70" cx="681" cy="-121" rx="42.49" ry="18"/>
<text text-anchor="middle" x="681" y="-117.3" font-family="Times,serif" font-size="14.00">दुःखम्(6)</text>
</g>
<!-- Node5&#45;&gt;Node6 -->
<g id="edge5" class="edge">
<title>Node5&#45;&gt;Node6</title>
<path fill="none" stroke="black" d="M683.72,-62.27C683.09,-75.58 682.36,-91.19 681.81,-102.82"/>
<polygon fill="black" stroke="black" points="687.22,-62.35 684.19,-52.2 680.22,-62.03 687.22,-62.35"/>
<text text-anchor="middle" x="705.5" y="-73.8" font-family="Times,serif" font-size="14.00">विशेषणम्</text>
</g>
<!-- Node6&#45;&gt;Node7 -->
<g id="edge6" class="edge">
<title>Node6&#45;&gt;Node7</title>
<path fill="none" stroke="black" d="M643.38,-138.62C636.92,-141.44 630.27,-144.32 624,-147 597.44,-158.36 591.32,-162.62 564,-172 535.57,-181.77 502.86,-190.67 477.62,-197.05"/>
<polygon fill="black" stroke="black" points="644.88,-141.78 652.63,-134.57 642.07,-135.37 644.88,-141.78"/>
<text text-anchor="middle" x="610" y="-160.8" font-family="Times,serif" font-size="14.00">कर्म</text>
</g>
<!-- Node9 -->
<g id="node5" class="node">
<title>Node9</title>
<ellipse fill="#00bfff" stroke="#00bfff" cx="71" cy="-121" rx="37.89" ry="18"/>
<text text-anchor="middle" x="71" y="-117.3" font-family="Times,serif" font-size="14.00">राजा(9)</text>
</g>
<!-- Node14 -->
<g id="node6" class="node">
<title>Node14</title>
<ellipse fill="#00bfff" stroke="#00bfff" cx="71" cy="-208" rx="55.49" ry="18"/>
<text text-anchor="middle" x="71" y="-204.3" font-family="Times,serif" font-size="14.00">युधिष्ठिरः(14)</text>
</g>
<!-- Node9&#45;&gt;Node14 -->
<g id="edge9" class="edge">
<title>Node9&#45;&gt;Node14</title>
<path fill="none" stroke="black" d="M71,-149.27C71,-162.58 71,-178.19 71,-189.82"/>
<polygon fill="black" stroke="black" points="74.5,-149.2 71,-139.2 67.5,-149.2 74.5,-149.2"/>
<text text-anchor="middle" x="93.5" y="-160.8" font-family="Times,serif" font-size="14.00">विशेषणम्</text>
</g>
<!-- Node10 -->
<g id="node10" class="node">
<title>Node10</title>
<ellipse fill="#ff1975" stroke="#ff1975" cx="261" cy="-295" rx="55.79" ry="18"/>
<text text-anchor="middle" x="261" y="-291.3" font-family="Times,serif" font-size="14.00">अन्वशात्(10)</text>
</g>
<!-- Node14&#45;&gt;Node10 -->
<g id="edge13" class="edge">
<title>Node14&#45;&gt;Node10</title>
<path fill="none" stroke="black" d="M109.11,-228.02C128.67,-237.6 152.97,-249.23 175,-259 191.95,-266.51 211.02,-274.34 226.89,-280.68"/>
<polygon fill="black" stroke="black" points="110.43,-224.77 99.92,-223.49 107.34,-231.05 110.43,-224.77"/>
<text text-anchor="middle" x="186" y="-247.8" font-family="Times,serif" font-size="14.00">कर्ता</text>
</g>
<!-- Node1 -->
<g id="node7" class="node">
<title>Node1</title>
<ellipse fill="#ff99ff" stroke="#ff99ff" cx="280" cy="-121" rx="36.29" ry="18"/>
<text text-anchor="middle" x="280" y="-117.3" font-family="Times,serif" font-size="14.00">यथा(1)</text>
</g>
<!-- Node1&#45;&gt;Node7 -->
<g id="edge1" class="edge">
<title>Node1&#45;&gt;Node7</title>
<path fill="none" stroke="black" d="M290.89,-148.27C295.62,-156.92 301.96,-165.88 310,-172 316.91,-177.26 360.57,-188.73 394.58,-197.12"/>
<polygon fill="black" stroke="black" points="293.95,-146.57 286.37,-139.16 287.68,-149.68 293.95,-146.57"/>
<text text-anchor="middle" x="345" y="-160.8" font-family="Times,serif" font-size="14.00">क्रियाविशेषणम्</text>
</g>
<!-- Node7&#45;&gt;Node10 -->
<g id="edge7" class="edge">
<title>Node7&#45;&gt;Node10</title>
<path fill="none" stroke="black" d="M397.97,-227.47C365.71,-243.14 320.09,-265.3 290.53,-279.66"/>
<polygon fill="black" stroke="black" points="399.64,-230.55 407.1,-223.04 396.58,-224.26 399.64,-230.55"/>
<text text-anchor="middle" x="380.5" y="-247.8" font-family="Times,serif" font-size="14.00">वाक्यकर्म</text>
</g>
<!-- Node4 -->
<g id="node9" class="node">
<title>Node4</title>
<ellipse fill="#ff99ff" stroke="#ff99ff" cx="363" cy="-121" rx="28.7" ry="18"/>
<text text-anchor="middle" x="363" y="-117.3" font-family="Times,serif" font-size="14.00">न(4)</text>
</g>
<!-- Node4&#45;&gt;Node7 -->
<g id="edge4" class="edge">
<title>Node4&#45;&gt;Node7</title>
<path fill="none" stroke="black" d="M377.47,-146.75C382.84,-155.12 389.27,-164.29 396,-172 401.95,-178.81 409.2,-185.54 415.89,-191.25"/>
<polygon fill="black" stroke="black" points="380.34,-144.74 372.1,-138.09 374.39,-148.43 380.34,-144.74"/>
<text text-anchor="middle" x="415.5" y="-160.8" font-family="Times,serif" font-size="14.00">प्रतिषेधः</text>
</g>
<!-- Node8 -->
<g id="node11" class="node">
<title>Node8</title>
<ellipse fill="#ff99ff" stroke="#ff99ff" cx="445" cy="-121" rx="35.19" ry="18"/>
<text text-anchor="middle" x="445" y="-117.3" font-family="Times,serif" font-size="14.00">इति(8)</text>
</g>
<!-- Node8&#45;&gt;Node7 -->
<g id="edge8" class="edge">
<title>Node8&#45;&gt;Node7</title>
<path fill="none" stroke="black" d="M442.11,-149.27C440.7,-162.58 439.05,-178.19 437.82,-189.82"/>
<polygon fill="black" stroke="black" points="445.61,-149.51 443.18,-139.2 438.65,-148.78 445.61,-149.51"/>
<text text-anchor="middle" x="482" y="-160.8" font-family="Times,serif" font-size="14.00">वाक्यकर्म_द्योतकः</text>
</g>
<!-- Node11 -->
<g id="node12" class="node">
<title>Node11</title>
<ellipse fill="#93db70" stroke="#93db70" cx="309" cy="-208" rx="47.39" ry="18"/>
<text text-anchor="middle" x="309" y="-204.3" font-family="Times,serif" font-size="14.00">भ्रातॄन्(11)</text>
</g>
<!-- Node11&#45;&gt;Node10 -->
<g id="edge10" class="edge">
<title>Node11&#45;&gt;Node10</title>
<path fill="none" stroke="black" d="M294.43,-234.8C286.65,-248.58 277.3,-265.14 270.46,-277.24"/>
<polygon fill="black" stroke="black" points="297.65,-236.22 299.52,-225.79 291.55,-232.78 297.65,-236.22"/>
<text text-anchor="middle" x="297" y="-247.8" font-family="Times,serif" font-size="14.00">कर्म</text>
</g>
<!-- Node12 -->
<g id="node13" class="node">
<title>Node12</title>
<ellipse fill="#93db70" stroke="#93db70" cx="194" cy="-208" rx="50.09" ry="18"/>
<text text-anchor="middle" x="194" y="-204.3" font-family="Times,serif" font-size="14.00">नित्यम्(12)</text>
</g>
<!-- Node12&#45;&gt;Node10 -->
<g id="edge11" class="edge">
<title>Node12&#45;&gt;Node10</title>
<path fill="none" stroke="black" d="M197.87,-236.08C199.95,-244 203.13,-252.32 208,-259 214.04,-267.29 222.69,-274.17 231.25,-279.58"/>
<polygon fill="black" stroke="black" points="201.25,-235.11 195.74,-226.06 194.4,-236.57 201.25,-235.11"/>
<text text-anchor="middle" x="243.5" y="-247.8" font-family="Times,serif" font-size="14.00">कालाधिकरणम्</text>
</g>
<!-- Node13 -->
<g id="node14" class="node">
<title>Node13</title>
<ellipse fill="#ff99ff" stroke="#ff99ff" cx="187" cy="-121" rx="38.19" ry="18"/>
<text text-anchor="middle" x="187" y="-117.3" font-family="Times,serif" font-size="14.00">एव(13)</text>
</g>
<!-- Node13&#45;&gt;Node12 -->
<g id="edge12" class="edge">
<title>Node13&#45;&gt;Node12</title>
<path fill="none" stroke="black" d="M189.25,-149.27C190.34,-162.58 191.63,-178.19 192.59,-189.82"/>
<polygon fill="black" stroke="black" points="192.73,-148.88 188.42,-139.2 185.75,-149.45 192.73,-148.88"/>
<text text-anchor="middle" x="209.5" y="-160.8" font-family="Times,serif" font-size="14.00">सम्बन्धः</text>
</g>
</g>
</svg>
