<?xml version="1.0" encoding="UTF-8" standalone="no"?>
<!DOCTYPE svg PUBLIC "-//W3C//DTD SVG 1.1//EN"
 "http://www.w3.org/Graphics/SVG/1.1/DTD/svg11.dtd">
<!-- Generated by graphviz version 2.43.0 (0)
 -->
<!-- Title: G Pages: 1 -->
<svg width="1012pt" height="321pt"
 viewBox="0.00 0.00 1012.34 321.00" xmlns="http://www.w3.org/2000/svg" xmlns:xlink="http://www.w3.org/1999/xlink">
<g id="graph0" class="graph" transform="scale(1 1) rotate(0) translate(4 317)">
<title>G</title>
<polygon fill="#fffacd" stroke="transparent" points="-4,4 -4,-317 1008.34,-317 1008.34,4 -4,4"/>
<g id="clust1" class="cluster">
<title>cluster_1</title>
<polygon fill="#fffacd" stroke="black" points="426.74,-8 426.74,-234 938.74,-234 938.74,-8 426.74,-8"/>
</g>
<!-- Node1 -->
<g id="node1" class="node">
<title>Node1</title>
<ellipse fill="#93db70" stroke="#93db70" cx="894.74" cy="-121" rx="36.29" ry="18"/>
<text text-anchor="middle" x="894.74" y="-117.3" font-family="Times,serif" font-size="14.00">मैरेयं(1)</text>
</g>
<!-- Node8 -->
<g id="node2" class="node">
<title>Node8</title>
<ellipse fill="#93db70" stroke="#93db70" cx="592.74" cy="-208" rx="64.99" ry="18"/>
<text text-anchor="middle" x="592.74" y="-204.3" font-family="Times,serif" font-size="14.00">भक्ष्यविकारान्(8)</text>
</g>
<!-- Node1&#45;&gt;Node8 -->
<g id="edge1" class="edge">
<title>Node1&#45;&gt;Node8</title>
<path fill="none" stroke="black" d="M863.27,-140.12C843.35,-150.86 816.72,-163.92 791.74,-172 746.19,-186.74 692.64,-195.72 652.57,-200.88"/>
<polygon fill="black" stroke="black" points="865.11,-143.1 872.19,-135.22 861.74,-136.97 865.11,-143.1"/>
<text text-anchor="middle" x="849.24" y="-160.8" font-family="Times,serif" font-size="14.00">समुच्चितः</text>
</g>
<!-- Node10 -->
<g id="node9" class="node">
<title>Node10</title>
<ellipse fill="#ff1975" stroke="#ff1975" cx="224.74" cy="-295" rx="43.59" ry="18"/>
<text text-anchor="middle" x="224.74" y="-291.3" font-family="Times,serif" font-size="14.00">चक्रुः(10)</text>
</g>
<!-- Node8&#45;&gt;Node10 -->
<g id="edge8" class="edge">
<title>Node8&#45;&gt;Node10</title>
<path fill="none" stroke="black" d="M534.68,-222.41C458.19,-240.08 325.89,-270.64 261.75,-285.45"/>
<polygon fill="black" stroke="black" points="535.68,-225.77 544.63,-220.11 534.1,-218.95 535.68,-225.77"/>
<text text-anchor="middle" x="439.74" y="-247.8" font-family="Times,serif" font-size="14.00">कर्म</text>
</g>
<!-- Node2 -->
<g id="node3" class="node">
<title>Node2</title>
<ellipse fill="#93db70" stroke="#93db70" cx="806.74" cy="-121" rx="33.6" ry="18"/>
<text text-anchor="middle" x="806.74" y="-117.3" font-family="Times,serif" font-size="14.00">मधु(2)</text>
</g>
<!-- Node2&#45;&gt;Node8 -->
<g id="edge2" class="edge">
<title>Node2&#45;&gt;Node8</title>
<path fill="none" stroke="black" d="M775.98,-139.96C757.48,-150.25 733.25,-162.9 710.74,-172 687.76,-181.29 661.38,-189.35 639.4,-195.38"/>
<polygon fill="black" stroke="black" points="777.83,-142.93 784.82,-134.97 774.39,-136.83 777.83,-142.93"/>
<text text-anchor="middle" x="765.24" y="-160.8" font-family="Times,serif" font-size="14.00">समुच्चितः</text>
</g>
<!-- Node3 -->
<g id="node4" class="node">
<title>Node3</title>
<ellipse fill="#93db70" stroke="#93db70" cx="708.74" cy="-121" rx="46.29" ry="18"/>
<text text-anchor="middle" x="708.74" y="-117.3" font-family="Times,serif" font-size="14.00">मांसानि(3)</text>
</g>
<!-- Node3&#45;&gt;Node8 -->
<g id="edge3" class="edge">
<title>Node3&#45;&gt;Node8</title>
<path fill="none" stroke="black" d="M680.36,-143.39C668.47,-152.29 654.48,-162.7 641.74,-172 633.13,-178.29 623.6,-185.12 615.26,-191.07"/>
<polygon fill="black" stroke="black" points="682.7,-146.01 688.6,-137.21 678.5,-140.41 682.7,-146.01"/>
<text text-anchor="middle" x="684.24" y="-160.8" font-family="Times,serif" font-size="14.00">समुच्चितः</text>
</g>
<!-- Node4 -->
<g id="node5" class="node">
<title>Node4</title>
<ellipse fill="#93db70" stroke="#93db70" cx="592.74" cy="-121" rx="51.99" ry="18"/>
<text text-anchor="middle" x="592.74" y="-117.3" font-family="Times,serif" font-size="14.00">पानकानि(4)</text>
</g>
<!-- Node4&#45;&gt;Node8 -->
<g id="edge4" class="edge">
<title>Node4&#45;&gt;Node8</title>
<path fill="none" stroke="black" d="M592.74,-149.27C592.74,-162.58 592.74,-178.19 592.74,-189.82"/>
<polygon fill="black" stroke="black" points="596.24,-149.2 592.74,-139.2 589.24,-149.2 596.24,-149.2"/>
<text text-anchor="middle" x="615.24" y="-160.8" font-family="Times,serif" font-size="14.00">समुच्चितः</text>
</g>
<!-- Node5 -->
<g id="node6" class="node">
<title>Node5</title>
<ellipse fill="#93db70" stroke="#93db70" cx="592.74" cy="-34" rx="41.69" ry="18"/>
<text text-anchor="middle" x="592.74" y="-30.3" font-family="Times,serif" font-size="14.00">लघूनि(5)</text>
</g>
<!-- Node5&#45;&gt;Node4 -->
<g id="edge5" class="edge">
<title>Node5&#45;&gt;Node4</title>
<path fill="none" stroke="black" d="M592.74,-62.27C592.74,-75.58 592.74,-91.19 592.74,-102.82"/>
<polygon fill="black" stroke="black" points="596.24,-62.2 592.74,-52.2 589.24,-62.2 596.24,-62.2"/>
<text text-anchor="middle" x="615.24" y="-73.8" font-family="Times,serif" font-size="14.00">विशेषणम्</text>
</g>
<!-- Node7 -->
<g id="node7" class="node">
<title>Node7</title>
<ellipse fill="#93db70" stroke="#93db70" cx="478.74" cy="-121" rx="44.39" ry="18"/>
<text text-anchor="middle" x="478.74" y="-117.3" font-family="Times,serif" font-size="14.00">चित्रान्(7)</text>
</g>
<!-- Node7&#45;&gt;Node8 -->
<g id="edge7" class="edge">
<title>Node7&#45;&gt;Node8</title>
<path fill="none" stroke="black" d="M506.21,-143.47C517.74,-152.39 531.32,-162.79 543.74,-172 552.14,-178.23 561.46,-184.93 569.69,-190.79"/>
<polygon fill="black" stroke="black" points="508.28,-140.65 498.23,-137.28 503.99,-146.18 508.28,-140.65"/>
<text text-anchor="middle" x="566.24" y="-160.8" font-family="Times,serif" font-size="14.00">विशेषणम्</text>
</g>
<!-- Node6 -->
<g id="node8" class="node">
<title>Node6</title>
<ellipse fill="#ff99ff" stroke="#ff99ff" cx="387.74" cy="-121" rx="28.7" ry="18"/>
<text text-anchor="middle" x="387.74" y="-117.3" font-family="Times,serif" font-size="14.00">च(6)</text>
</g>
<!-- Node6&#45;&gt;Node8 -->
<g id="edge6" class="edge">
<title>Node6&#45;&gt;Node8</title>
<path fill="none" stroke="black" d="M407.96,-144.56C417.85,-154.34 430.48,-165.1 443.74,-172 471.68,-186.53 505.68,-195.11 534.14,-200.13"/>
<polygon fill="black" stroke="black" points="410.44,-142.09 400.96,-137.36 405.42,-146.97 410.44,-142.09"/>
<text text-anchor="middle" x="481.74" y="-160.8" font-family="Times,serif" font-size="14.00">समुच्चय_द्योतकः</text>
</g>
<!-- Node9 -->
<g id="node10" class="node">
<title>Node9</title>
<ellipse fill="#ff99ff" stroke="#ff99ff" cx="975.74" cy="-34" rx="28.7" ry="18"/>
<text text-anchor="middle" x="975.74" y="-30.3" font-family="Times,serif" font-size="14.00">च(9)</text>
</g>
<!-- Node9&#45;&gt;Node4 -->
<g id="edge9" class="edge">
<title>Node9&#45;&gt;Node4</title>
<path fill="none" stroke="black" d="M945.88,-50.87C944.83,-51.27 943.78,-51.65 942.74,-52 819.15,-93.67 780.94,-74.13 653.74,-103 646.35,-104.68 638.51,-106.69 631,-108.73"/>
<polygon fill="black" stroke="black" points="947.46,-54 955.21,-46.77 944.65,-47.59 947.46,-54"/>
<text text-anchor="middle" x="895.24" y="-73.8" font-family="Times,serif" font-size="14.00">सम्बन्धः</text>
</g>
<!-- Node14 -->
<g id="node11" class="node">
<title>Node14</title>
<ellipse fill="#00bfff" stroke="#00bfff" cx="61.74" cy="-208" rx="61.99" ry="18"/>
<text text-anchor="middle" x="61.74" y="-204.3" font-family="Times,serif" font-size="14.00">(पाण्डवाः)(14)</text>
</g>
<!-- Node14&#45;&gt;Node10 -->
<g id="edge13" class="edge">
<title>Node14&#45;&gt;Node10</title>
<path fill="none" stroke="black" d="M99.55,-228.71C129.97,-244.58 171.92,-266.45 198.69,-280.41"/>
<polygon fill="black" stroke="black" points="101,-225.52 90.51,-224 97.76,-231.73 101,-225.52"/>
<text text-anchor="middle" x="164.74" y="-247.8" font-family="Times,serif" font-size="14.00">कर्ता</text>
</g>
<!-- Node11 -->
<g id="node12" class="node">
<title>Node11</title>
<ellipse fill="#87ceeb" stroke="#87ceeb" cx="185.74" cy="-208" rx="44.39" ry="18"/>
<text text-anchor="middle" x="185.74" y="-204.3" font-family="Times,serif" font-size="14.00">अस्य(11)</text>
</g>
<!-- Node11&#45;&gt;Node10 -->
<g id="edge10" class="edge">
<title>Node11&#45;&gt;Node10</title>
<path fill="none" stroke="black" d="M194.24,-235.6C196.98,-243.28 200.22,-251.58 203.74,-259 206.66,-265.15 210.34,-271.6 213.81,-277.28"/>
<polygon fill="black" stroke="black" points="197.5,-234.32 190.95,-226 190.88,-236.59 197.5,-234.32"/>
<text text-anchor="middle" x="231.24" y="-247.8" font-family="Times,serif" font-size="14.00">षष्ठीसम्बन्धः</text>
</g>
<!-- Node12 -->
<g id="node13" class="node">
<title>Node12</title>
<ellipse fill="#ff99ff" stroke="#ff99ff" cx="196.74" cy="-121" rx="42.49" ry="18"/>
<text text-anchor="middle" x="196.74" y="-117.3" font-family="Times,serif" font-size="14.00">यथा(12)</text>
</g>
<!-- Node15 -->
<g id="node14" class="node">
<title>Node15</title>
<ellipse fill="#ff1975" stroke="#ff1975" cx="297.74" cy="-208" rx="50.09" ry="18"/>
<text text-anchor="middle" x="297.74" y="-204.3" font-family="Times,serif" font-size="14.00">(चक्रुः)(15)</text>
</g>
<!-- Node12&#45;&gt;Node15 -->
<g id="edge11" class="edge">
<title>Node12&#45;&gt;Node15</title>
<path fill="none" stroke="black" d="M205.38,-148.52C209.08,-156.83 214.12,-165.51 220.74,-172 231.66,-182.69 246.41,-190.47 260.08,-195.94"/>
<polygon fill="black" stroke="black" points="208.57,-147.09 201.62,-139.09 202.07,-149.68 208.57,-147.09"/>
<text text-anchor="middle" x="257.24" y="-160.8" font-family="Times,serif" font-size="14.00">उपमान_द्योतकः</text>
</g>
<!-- Node15&#45;&gt;Node10 -->
<g id="edge14" class="edge">
<title>Node15&#45;&gt;Node10</title>
<path fill="none" stroke="black" d="M279.32,-233.72C272.98,-241.92 265.72,-250.99 258.74,-259 253.18,-265.39 246.77,-272.13 241.03,-277.97"/>
<polygon fill="black" stroke="black" points="282.25,-235.64 285.53,-225.57 276.68,-231.4 282.25,-235.64"/>
<text text-anchor="middle" x="292.24" y="-247.8" font-family="Times,serif" font-size="14.00">उपमानम्</text>
</g>
<!-- Node13 -->
<g id="node15" class="node">
<title>Node13</title>
<ellipse fill="#ff99ff" stroke="#ff99ff" cx="297.74" cy="-121" rx="40.09" ry="18"/>
<text text-anchor="middle" x="297.74" y="-117.3" font-family="Times,serif" font-size="14.00">पुरा(13)</text>
</g>
<!-- Node13&#45;&gt;Node15 -->
<g id="edge12" class="edge">
<title>Node13&#45;&gt;Node15</title>
<path fill="none" stroke="black" d="M297.74,-149.27C297.74,-162.58 297.74,-178.19 297.74,-189.82"/>
<polygon fill="black" stroke="black" points="301.24,-149.2 297.74,-139.2 294.24,-149.2 301.24,-149.2"/>
<text text-anchor="middle" x="333.24" y="-160.8" font-family="Times,serif" font-size="14.00">कालाधिकरणम्</text>
</g>
</g>
</svg>
