<?xml version="1.0" encoding="UTF-8" standalone="no"?>
<!DOCTYPE svg PUBLIC "-//W3C//DTD SVG 1.1//EN"
 "http://www.w3.org/Graphics/SVG/1.1/DTD/svg11.dtd">
<!-- Generated by graphviz version 2.43.0 (0)
 -->
<!-- Title: G Pages: 1 -->
<svg width="595pt" height="408pt"
 viewBox="0.00 0.00 595.00 408.00" xmlns="http://www.w3.org/2000/svg" xmlns:xlink="http://www.w3.org/1999/xlink">
<g id="graph0" class="graph" transform="scale(1 1) rotate(0) translate(4 404)">
<title>G</title>
<polygon fill="#fffacd" stroke="transparent" points="-4,4 -4,-404 591,-404 591,4 -4,4"/>
<g id="clust1" class="cluster">
<title>cluster_1</title>
<polygon fill="#fffacd" stroke="black" points="8,-8 8,-147 126,-147 126,-8 8,-8"/>
</g>
<g id="clust2" class="cluster">
<title>cluster_2</title>
<polygon fill="#fffacd" stroke="black" points="325,-182 325,-321 579,-321 579,-182 325,-182"/>
</g>
<!-- Node4_1 -->
<g id="node1" class="node">
<title>Node4_1</title>
<ellipse fill="#87ceeb" stroke="#87ceeb" cx="67" cy="-34" rx="46.29" ry="18"/>
<text text-anchor="middle" x="67" y="-30.3" font-family="Times,serif" font-size="14.00">तस्य(4.1)</text>
</g>
<!-- Node5_1 -->
<g id="node2" class="node">
<title>Node5_1</title>
<ellipse fill="#87ceeb" stroke="#87ceeb" cx="67" cy="-121" rx="51.19" ry="18"/>
<text text-anchor="middle" x="67" y="-117.3" font-family="Times,serif" font-size="14.00">वीरस्य(5.1)</text>
</g>
<!-- Node4_1&#45;&gt;Node5_1 -->
<g id="edge5" class="edge">
<title>Node4_1&#45;&gt;Node5_1</title>
<path fill="none" stroke="black" d="M67,-62.27C67,-75.58 67,-91.19 67,-102.82"/>
<polygon fill="black" stroke="black" points="70.5,-62.2 67,-52.2 63.5,-62.2 70.5,-62.2"/>
<text text-anchor="middle" x="89.5" y="-73.8" font-family="Times,serif" font-size="14.00">विशेषणम्</text>
</g>
<!-- Node6_1 -->
<g id="node10" class="node">
<title>Node6_1</title>
<ellipse fill="#b4ffb4" stroke="#b4ffb4" cx="67" cy="-208" rx="53.09" ry="18"/>
<text text-anchor="middle" x="67" y="-204.3" font-family="Times,serif" font-size="14.00">हृदयात्(6.1)</text>
</g>
<!-- Node5_1&#45;&gt;Node6_1 -->
<g id="edge6" class="edge">
<title>Node5_1&#45;&gt;Node6_1</title>
<path fill="none" stroke="black" d="M67,-149.27C67,-162.58 67,-178.19 67,-189.82"/>
<polygon fill="black" stroke="black" points="70.5,-149.2 67,-139.2 63.5,-149.2 70.5,-149.2"/>
<text text-anchor="middle" x="94.5" y="-160.8" font-family="Times,serif" font-size="14.00">षष्ठीसम्बन्धः</text>
</g>
<!-- Node10_1 -->
<g id="node3" class="node">
<title>Node10_1</title>
<ellipse fill="#00bfff" stroke="#00bfff" cx="523" cy="-208" rx="48.19" ry="18"/>
<text text-anchor="middle" x="523" y="-204.3" font-family="Times,serif" font-size="14.00">यत्(10.1)</text>
</g>
<!-- Node11_1 -->
<g id="node4" class="node">
<title>Node11_1</title>
<ellipse fill="#00bfff" stroke="#00bfff" cx="395" cy="-295" rx="48.19" ry="18"/>
<text text-anchor="middle" x="395" y="-291.3" font-family="Times,serif" font-size="14.00">वृत्तं(11.1)</text>
</g>
<!-- Node10_1&#45;&gt;Node11_1 -->
<g id="edge10" class="edge">
<title>Node10_1&#45;&gt;Node11_1</title>
<path fill="none" stroke="black" d="M492.05,-229.55C469.16,-244.76 438.48,-265.13 417.79,-278.86"/>
<polygon fill="black" stroke="black" points="494.02,-232.45 500.41,-224 490.14,-226.62 494.02,-232.45"/>
<text text-anchor="middle" x="488.5" y="-247.8" font-family="Times,serif" font-size="14.00">विशेषणम्</text>
</g>
<!-- Node14_1 -->
<g id="node13" class="node">
<title>Node14_1</title>
<ellipse fill="#ff1975" stroke="#ff1975" cx="395" cy="-382" rx="66.09" ry="18"/>
<text text-anchor="middle" x="395" y="-378.3" font-family="Times,serif" font-size="14.00">(आसीत्)(14.1)</text>
</g>
<!-- Node11_1&#45;&gt;Node14_1 -->
<g id="edge11" class="edge">
<title>Node11_1&#45;&gt;Node14_1</title>
<path fill="none" stroke="black" d="M395,-323.27C395,-336.58 395,-352.19 395,-363.82"/>
<polygon fill="black" stroke="black" points="398.5,-323.2 395,-313.2 391.5,-323.2 398.5,-323.2"/>
<text text-anchor="middle" x="406" y="-334.8" font-family="Times,serif" font-size="14.00">कर्ता</text>
</g>
<!-- Node13_1 -->
<g id="node5" class="node">
<title>Node13_1</title>
<ellipse fill="#00bfff" stroke="#00bfff" cx="395" cy="-208" rx="62.29" ry="18"/>
<text text-anchor="middle" x="395" y="-204.3" font-family="Times,serif" font-size="14.00">कारितम्(13.1)</text>
</g>
<!-- Node13_1&#45;&gt;Node11_1 -->
<g id="edge13" class="edge">
<title>Node13_1&#45;&gt;Node11_1</title>
<path fill="none" stroke="black" d="M395,-236.27C395,-249.58 395,-265.19 395,-276.82"/>
<polygon fill="black" stroke="black" points="398.5,-236.2 395,-226.2 391.5,-236.2 398.5,-236.2"/>
<text text-anchor="middle" x="417.5" y="-247.8" font-family="Times,serif" font-size="14.00">विशेषणम्</text>
</g>
<!-- Node1_1 -->
<g id="node6" class="node">
<title>Node1_1</title>
<ellipse fill="#ff99ff" stroke="#ff99ff" cx="175" cy="-208" rx="37.09" ry="18"/>
<text text-anchor="middle" x="175" y="-204.3" font-family="Times,serif" font-size="14.00">न(1.1)</text>
</g>
<!-- Node7_1 -->
<g id="node7" class="node">
<title>Node7_1</title>
<ellipse fill="#ff1975" stroke="#ff1975" cx="175" cy="-295" rx="61.99" ry="18"/>
<text text-anchor="middle" x="175" y="-291.3" font-family="Times,serif" font-size="14.00">अपसर्पति(7.1)</text>
</g>
<!-- Node1_1&#45;&gt;Node7_1 -->
<g id="edge1" class="edge">
<title>Node1_1&#45;&gt;Node7_1</title>
<path fill="none" stroke="black" d="M175,-236.27C175,-249.58 175,-265.19 175,-276.82"/>
<polygon fill="black" stroke="black" points="178.5,-236.2 175,-226.2 171.5,-236.2 178.5,-236.2"/>
<text text-anchor="middle" x="194.5" y="-247.8" font-family="Times,serif" font-size="14.00">प्रतिषेधः</text>
</g>
<!-- Node2_1 -->
<g id="node8" class="node">
<title>Node2_1</title>
<ellipse fill="#ff99ff" stroke="#ff99ff" cx="175" cy="-121" rx="38.99" ry="18"/>
<text text-anchor="middle" x="175" y="-117.3" font-family="Times,serif" font-size="14.00">हि(2.1)</text>
</g>
<!-- Node2_1&#45;&gt;Node1_1 -->
<g id="edge2" class="edge">
<title>Node2_1&#45;&gt;Node1_1</title>
<path fill="none" stroke="black" d="M175,-149.27C175,-162.58 175,-178.19 175,-189.82"/>
<polygon fill="black" stroke="black" points="178.5,-149.2 175,-139.2 171.5,-149.2 178.5,-149.2"/>
<text text-anchor="middle" x="193.5" y="-160.8" font-family="Times,serif" font-size="14.00">सम्बन्धः</text>
</g>
<!-- Node3_1 -->
<g id="node9" class="node">
<title>Node3_1</title>
<ellipse fill="#00bfff" stroke="#00bfff" cx="272" cy="-208" rx="42.49" ry="18"/>
<text text-anchor="middle" x="272" y="-204.3" font-family="Times,serif" font-size="14.00">तत्(3.1)</text>
</g>
<!-- Node3_1&#45;&gt;Node11_1 -->
<g id="edge3" class="edge">
<title>Node3_1&#45;&gt;Node11_1</title>
<path fill="none" stroke="black" d="M285.74,-234.51C291.4,-243.19 298.61,-252.36 307,-259 321.44,-270.43 340.09,-278.55 356.5,-284.08"/>
<polygon fill="black" stroke="black" points="288.6,-232.49 280.41,-225.77 282.62,-236.13 288.6,-232.49"/>
<text text-anchor="middle" x="349" y="-247.8" font-family="Times,serif" font-size="14.00">कर्तृसमानाधिरणम्</text>
</g>
<!-- Node3_1&#45;&gt;Node7_1 -->
<g id="edge4" class="edge">
<title>Node3_1&#45;&gt;Node7_1</title>
<path fill="none" stroke="black" stroke-dasharray="1,5" d="M246.77,-231.74C237.18,-240.33 226.12,-250.16 216,-259 208.95,-265.16 201.15,-271.84 194.27,-277.71"/>
<polygon fill="black" stroke="black" points="249.33,-234.15 254.43,-224.86 244.65,-228.94 249.33,-234.15"/>
<text text-anchor="middle" x="243.5" y="-247.8" font-family="Times,serif" font-size="14.00"> कर्ता</text>
</g>
<!-- Node6_1&#45;&gt;Node7_1 -->
<g id="edge7" class="edge">
<title>Node6_1&#45;&gt;Node7_1</title>
<path fill="none" stroke="black" d="M91.95,-232.02C101.72,-240.74 113.18,-250.59 124,-259 132.56,-265.66 142.31,-272.51 150.97,-278.37"/>
<polygon fill="black" stroke="black" points="94.28,-229.42 84.51,-225.32 89.6,-234.62 94.28,-229.42"/>
<text text-anchor="middle" x="147.5" y="-247.8" font-family="Times,serif" font-size="14.00">अपादानम्</text>
</g>
<!-- Node8_1 -->
<g id="node11" class="node">
<title>Node8_1</title>
<ellipse fill="#87ceeb" stroke="#87ceeb" cx="338" cy="-34" rx="64.19" ry="18"/>
<text text-anchor="middle" x="338" y="-30.3" font-family="Times,serif" font-size="14.00">धृतराष्ट्रस्य(8.1)</text>
</g>
<!-- Node9_1 -->
<g id="node12" class="node">
<title>Node9_1</title>
<ellipse fill="#b4ffb4" stroke="#b4ffb4" cx="338" cy="-121" rx="48.99" ry="18"/>
<text text-anchor="middle" x="338" y="-117.3" font-family="Times,serif" font-size="14.00">दुर्बुद्धेः(9.1)</text>
</g>
<!-- Node8_1&#45;&gt;Node9_1 -->
<g id="edge8" class="edge">
<title>Node8_1&#45;&gt;Node9_1</title>
<path fill="none" stroke="black" d="M338,-62.27C338,-75.58 338,-91.19 338,-102.82"/>
<polygon fill="black" stroke="black" points="341.5,-62.2 338,-52.2 334.5,-62.2 341.5,-62.2"/>
<text text-anchor="middle" x="365.5" y="-73.8" font-family="Times,serif" font-size="14.00">षष्ठीसम्बन्धः</text>
</g>
<!-- Node9_1&#45;&gt;Node13_1 -->
<g id="edge9" class="edge">
<title>Node9_1&#45;&gt;Node13_1</title>
<path fill="none" stroke="black" d="M355.03,-147.4C364.33,-161.26 375.57,-178.03 383.76,-190.24"/>
<polygon fill="black" stroke="black" points="357.74,-145.15 349.26,-138.79 351.92,-149.05 357.74,-145.15"/>
<text text-anchor="middle" x="378.5" y="-160.8" font-family="Times,serif" font-size="14.00">हेतुः</text>
</g>
<!-- Node12_1 -->
<g id="node14" class="node">
<title>Node12_1</title>
<ellipse fill="#ffff00" stroke="#ffff00" cx="455" cy="-121" rx="50.89" ry="18"/>
<text text-anchor="middle" x="455" y="-117.3" font-family="Times,serif" font-size="14.00">द्यूत&#45;(12.1)</text>
</g>
<!-- Node12_1&#45;&gt;Node13_1 -->
<g id="edge12" class="edge">
<title>Node12_1&#45;&gt;Node13_1</title>
<path fill="none" stroke="black" d="M437.35,-147.01C427.51,-160.94 415.53,-177.91 406.83,-190.24"/>
<polygon fill="black" stroke="black" points="440.24,-148.98 443.15,-138.79 434.52,-144.94 440.24,-148.98"/>
<text text-anchor="middle" x="437.5" y="-160.8" font-family="Times,serif" font-size="14.00">T3</text>
</g>
</g>
</svg>
