<?xml version="1.0" encoding="UTF-8" standalone="no"?>
<!DOCTYPE svg PUBLIC "-//W3C//DTD SVG 1.1//EN"
 "http://www.w3.org/Graphics/SVG/1.1/DTD/svg11.dtd">
<!-- Generated by graphviz version 2.43.0 (0)
 -->
<!-- Title: G Pages: 1 -->
<svg width="893pt" height="234pt"
 viewBox="0.00 0.00 892.64 234.00" xmlns="http://www.w3.org/2000/svg" xmlns:xlink="http://www.w3.org/1999/xlink">
<g id="graph0" class="graph" transform="scale(1 1) rotate(0) translate(4 230)">
<title>G</title>
<polygon fill="#fffacd" stroke="transparent" points="-4,4 -4,-230 888.64,-230 888.64,4 -4,4"/>
<g id="clust1" class="cluster">
<title>cluster_1</title>
<polygon fill="#fffacd" stroke="black" points="8,-8 8,-147 278,-147 278,-8 8,-8"/>
</g>
<g id="clust2" class="cluster">
<title>cluster_2</title>
<polygon fill="#fffacd" stroke="black" points="286,-8 286,-147 408,-147 408,-8 286,-8"/>
</g>
<!-- Node3_1 -->
<g id="node1" class="node">
<title>Node3_1</title>
<ellipse fill="#00bfff" stroke="#00bfff" cx="212" cy="-34" rx="57.69" ry="18"/>
<text text-anchor="middle" x="212" y="-30.3" font-family="Times,serif" font-size="14.00">कुरुराजः(3.1)</text>
</g>
<!-- Node4_1 -->
<g id="node2" class="node">
<title>Node4_1</title>
<ellipse fill="#00bfff" stroke="#00bfff" cx="212" cy="-121" rx="57.69" ry="18"/>
<text text-anchor="middle" x="212" y="-117.3" font-family="Times,serif" font-size="14.00">युधिष्ठिरः(4.1)</text>
</g>
<!-- Node3_1&#45;&gt;Node4_1 -->
<g id="edge4" class="edge">
<title>Node3_1&#45;&gt;Node4_1</title>
<path fill="none" stroke="black" d="M212,-62.27C212,-75.58 212,-91.19 212,-102.82"/>
<polygon fill="black" stroke="black" points="215.5,-62.2 212,-52.2 208.5,-62.2 215.5,-62.2"/>
<text text-anchor="middle" x="234.5" y="-73.8" font-family="Times,serif" font-size="14.00">विशेषणम्</text>
</g>
<!-- Node8_1 -->
<g id="node8" class="node">
<title>Node8_1</title>
<ellipse fill="#ff1975" stroke="#ff1975" cx="472" cy="-208" rx="48.19" ry="18"/>
<text text-anchor="middle" x="472" y="-204.3" font-family="Times,serif" font-size="14.00">प्रददौ(8.1)</text>
</g>
<!-- Node4_1&#45;&gt;Node8_1 -->
<g id="edge5" class="edge">
<title>Node4_1&#45;&gt;Node8_1</title>
<path fill="none" stroke="black" d="M257.86,-138.65C265.89,-141.49 274.17,-144.37 282,-147 335.28,-164.92 397.47,-184.27 435.8,-196.01"/>
<polygon fill="black" stroke="black" points="258.84,-135.29 248.24,-135.23 256.49,-141.88 258.84,-135.29"/>
<text text-anchor="middle" x="365" y="-160.8" font-family="Times,serif" font-size="14.00">कर्ता</text>
</g>
<!-- Node7_1 -->
<g id="node3" class="node">
<title>Node7_1</title>
<ellipse fill="#00bfff" stroke="#00bfff" cx="76" cy="-34" rx="59.59" ry="18"/>
<text text-anchor="middle" x="76" y="-30.3" font-family="Times,serif" font-size="14.00">महातेजाः(7.1)</text>
</g>
<!-- Node7_1&#45;&gt;Node4_1 -->
<g id="edge8" class="edge">
<title>Node7_1&#45;&gt;Node4_1</title>
<path fill="none" stroke="black" d="M109.74,-56.09C133.76,-71.1 165.5,-90.94 187.21,-104.51"/>
<polygon fill="black" stroke="black" points="111.28,-52.92 100.94,-50.59 107.57,-58.86 111.28,-52.92"/>
<text text-anchor="middle" x="175.5" y="-73.8" font-family="Times,serif" font-size="14.00">विशेषणम्</text>
</g>
<!-- Node5_1 -->
<g id="node4" class="node">
<title>Node5_1</title>
<ellipse fill="#93db70" stroke="#93db70" cx="347" cy="-34" rx="50.09" ry="18"/>
<text text-anchor="middle" x="347" y="-30.3" font-family="Times,serif" font-size="14.00">सर्वान्(5.1)</text>
</g>
<!-- Node6_1 -->
<g id="node5" class="node">
<title>Node6_1</title>
<ellipse fill="#93db70" stroke="#93db70" cx="347" cy="-121" rx="53.09" ry="18"/>
<text text-anchor="middle" x="347" y="-117.3" font-family="Times,serif" font-size="14.00">कामान्(6.1)</text>
</g>
<!-- Node5_1&#45;&gt;Node6_1 -->
<g id="edge6" class="edge">
<title>Node5_1&#45;&gt;Node6_1</title>
<path fill="none" stroke="black" d="M347,-62.27C347,-75.58 347,-91.19 347,-102.82"/>
<polygon fill="black" stroke="black" points="350.5,-62.2 347,-52.2 343.5,-62.2 350.5,-62.2"/>
<text text-anchor="middle" x="369.5" y="-73.8" font-family="Times,serif" font-size="14.00">विशेषणम्</text>
</g>
<!-- Node6_1&#45;&gt;Node8_1 -->
<g id="edge7" class="edge">
<title>Node6_1&#45;&gt;Node8_1</title>
<path fill="none" stroke="black" d="M378.06,-143.12C400.25,-158.21 429.59,-178.16 449.53,-191.72"/>
<polygon fill="black" stroke="black" points="379.87,-140.12 369.64,-137.39 375.94,-145.91 379.87,-140.12"/>
<text text-anchor="middle" x="425" y="-160.8" font-family="Times,serif" font-size="14.00">कर्म</text>
</g>
<!-- Node1_1 -->
<g id="node6" class="node">
<title>Node1_1</title>
<ellipse fill="#ffff00" stroke="#ffff00" cx="472" cy="-34" rx="51.99" ry="18"/>
<text text-anchor="middle" x="472" y="-30.3" font-family="Times,serif" font-size="14.00">विहार&#45;(1.1)</text>
</g>
<!-- Node1_2 -->
<g id="node7" class="node">
<title>Node1_2</title>
<ellipse fill="#c6e2eb" stroke="#c6e2eb" cx="472" cy="-121" rx="53.09" ry="18"/>
<text text-anchor="middle" x="472" y="-117.3" font-family="Times,serif" font-size="14.00">यात्रासु(1.2)</text>
</g>
<!-- Node1_1&#45;&gt;Node1_2 -->
<g id="edge1" class="edge">
<title>Node1_1&#45;&gt;Node1_2</title>
<path fill="none" stroke="black" d="M472,-62.27C472,-75.58 472,-91.19 472,-102.82"/>
<polygon fill="black" stroke="black" points="475.5,-62.2 472,-52.2 468.5,-62.2 475.5,-62.2"/>
<text text-anchor="middle" x="481.5" y="-73.8" font-family="Times,serif" font-size="14.00">T6</text>
</g>
<!-- Node1_2&#45;&gt;Node8_1 -->
<g id="edge2" class="edge">
<title>Node1_2&#45;&gt;Node8_1</title>
<path fill="none" stroke="black" d="M472,-149.27C472,-162.58 472,-178.19 472,-189.82"/>
<polygon fill="black" stroke="black" points="475.5,-149.2 472,-139.2 468.5,-149.2 475.5,-149.2"/>
<text text-anchor="middle" x="507.5" y="-160.8" font-family="Times,serif" font-size="14.00">कालाधिकरणम्</text>
</g>
<!-- Node2_1 -->
<g id="node9" class="node">
<title>Node2_1</title>
<ellipse fill="#ff99ff" stroke="#ff99ff" cx="587" cy="-121" rx="44.39" ry="18"/>
<text text-anchor="middle" x="587" y="-117.3" font-family="Times,serif" font-size="14.00">पुनः(2.1)</text>
</g>
<!-- Node2_1&#45;&gt;Node8_1 -->
<g id="edge3" class="edge">
<title>Node2_1&#45;&gt;Node8_1</title>
<path fill="none" stroke="black" d="M570.37,-147.29C563.83,-155.9 555.78,-165.09 547,-172 534.8,-181.59 519.55,-189.32 505.99,-195.05"/>
<polygon fill="black" stroke="black" points="573.37,-149.13 576.38,-138.97 567.69,-145.03 573.37,-149.13"/>
<text text-anchor="middle" x="580.5" y="-160.8" font-family="Times,serif" font-size="14.00">सम्बन्धः</text>
</g>
<!-- Node9_1 -->
<g id="node10" class="node">
<title>Node9_1</title>
<ellipse fill="#b0e2ff" stroke="#b0e2ff" cx="767" cy="-121" rx="117.78" ry="18"/>
<text text-anchor="middle" x="767" y="-117.3" font-family="Times,serif" font-size="14.00">अम्बिकासुते(अम्बिकासुताय)(9.1)</text>
</g>
<!-- Node9_1&#45;&gt;Node8_1 -->
<g id="edge9" class="edge">
<title>Node9_1&#45;&gt;Node8_1</title>
<path fill="none" stroke="black" d="M708.14,-140.49C676.97,-150.14 637.99,-161.99 603,-172 571.99,-180.87 536.65,-190.27 510.5,-197.09"/>
<polygon fill="black" stroke="black" points="709.46,-143.74 717.97,-137.44 707.39,-137.06 709.46,-143.74"/>
<text text-anchor="middle" x="675.5" y="-160.8" font-family="Times,serif" font-size="14.00">सम्प्रदानम्</text>
</g>
</g>
</svg>
