<?xml version="1.0" encoding="UTF-8" standalone="no"?>
<!DOCTYPE svg PUBLIC "-//W3C//DTD SVG 1.1//EN"
 "http://www.w3.org/Graphics/SVG/1.1/DTD/svg11.dtd">
<!-- Generated by graphviz version 2.43.0 (0)
 -->
<!-- Title: G Pages: 1 -->
<svg width="462pt" height="218pt"
 viewBox="0.00 0.00 461.94 218.00" xmlns="http://www.w3.org/2000/svg" xmlns:xlink="http://www.w3.org/1999/xlink">
<g id="graph0" class="graph" transform="scale(1 1) rotate(0) translate(4 214)">
<title>G</title>
<polygon fill="#fffacd" stroke="transparent" points="-4,4 -4,-214 457.94,-214 457.94,4 -4,4"/>
<!-- Node1_1 -->
<g id="node1" class="node">
<title>Node1_1</title>
<ellipse fill="#ff99ff" stroke="#ff99ff" cx="409.1" cy="-105" rx="44.69" ry="18"/>
<text text-anchor="middle" x="409.1" y="-101.3" font-family="Times,serif" font-size="14.00">तथा(1.1)</text>
</g>
<!-- Node6_1 -->
<g id="node2" class="node">
<title>Node6_1</title>
<ellipse fill="#ff1975" stroke="#ff1975" cx="221.1" cy="-192" rx="52.79" ry="18"/>
<text text-anchor="middle" x="221.1" y="-188.3" font-family="Times,serif" font-size="14.00">अवर्तत(6.1)</text>
</g>
<!-- Node1_1&#45;&gt;Node6_1 -->
<g id="edge1" class="edge">
<title>Node1_1&#45;&gt;Node6_1</title>
<path fill="none" stroke="black" d="M371.07,-123.19C335.82,-139.13 284.05,-162.54 251.48,-177.26"/>
<polygon fill="black" stroke="black" points="372.87,-126.22 380.54,-118.91 369.99,-119.84 372.87,-126.22"/>
<text text-anchor="middle" x="345.6" y="-144.8" font-family="Times,serif" font-size="14.00">सम्बन्धः</text>
</g>
<!-- Node2_1 -->
<g id="node3" class="node">
<title>Node2_1</title>
<ellipse fill="#ff99ff" stroke="#ff99ff" cx="409.1" cy="-18" rx="41.69" ry="18"/>
<text text-anchor="middle" x="409.1" y="-14.3" font-family="Times,serif" font-size="14.00">एव(2.1)</text>
</g>
<!-- Node2_1&#45;&gt;Node1_1 -->
<g id="edge2" class="edge">
<title>Node2_1&#45;&gt;Node1_1</title>
<path fill="none" stroke="black" d="M409.1,-46.27C409.1,-59.58 409.1,-75.19 409.1,-86.82"/>
<polygon fill="black" stroke="black" points="412.6,-46.2 409.1,-36.2 405.6,-46.2 412.6,-46.2"/>
<text text-anchor="middle" x="427.6" y="-57.8" font-family="Times,serif" font-size="14.00">सम्बन्धः</text>
</g>
<!-- Node3_1 -->
<g id="node4" class="node">
<title>Node3_1</title>
<ellipse fill="#00bfff" stroke="#00bfff" cx="48.1" cy="-105" rx="48.19" ry="18"/>
<text text-anchor="middle" x="48.1" y="-101.3" font-family="Times,serif" font-size="14.00">कुन्ती(3.1)</text>
</g>
<!-- Node3_1&#45;&gt;Node6_1 -->
<g id="edge3" class="edge">
<title>Node3_1&#45;&gt;Node6_1</title>
<path fill="none" stroke="black" d="M85.35,-124.3C117.42,-140.06 163.03,-162.47 192.35,-176.88"/>
<polygon fill="black" stroke="black" points="86.79,-121.11 76.28,-119.85 83.71,-127.4 86.79,-121.11"/>
<text text-anchor="middle" x="156.1" y="-144.8" font-family="Times,serif" font-size="14.00">कर्ता</text>
</g>
<!-- Node4_1 -->
<g id="node5" class="node">
<title>Node4_1</title>
<ellipse fill="#c6e2eb" stroke="#c6e2eb" cx="171.1" cy="-105" rx="57.39" ry="18"/>
<text text-anchor="middle" x="171.1" y="-101.3" font-family="Times,serif" font-size="14.00">गान्धार्यां(4.1)</text>
</g>
<!-- Node4_1&#45;&gt;Node6_1 -->
<g id="edge4" class="edge">
<title>Node4_1&#45;&gt;Node6_1</title>
<path fill="none" stroke="black" d="M182.51,-132.19C186.22,-140.01 190.57,-148.5 195.1,-156 198.85,-162.22 203.45,-168.7 207.72,-174.36"/>
<polygon fill="black" stroke="black" points="185.68,-130.71 178.32,-123.09 179.32,-133.63 185.68,-130.71"/>
<text text-anchor="middle" x="222.6" y="-144.8" font-family="Times,serif" font-size="14.00">अधिकरणम्</text>
</g>
<!-- Node5_1 -->
<g id="node6" class="node">
<title>Node5_1</title>
<ellipse fill="#ffff00" stroke="#ffff00" cx="296.1" cy="-18" rx="44.69" ry="18"/>
<text text-anchor="middle" x="296.1" y="-14.3" font-family="Times,serif" font-size="14.00">गुरु&#45;(5.1)</text>
</g>
<!-- Node5_2 -->
<g id="node7" class="node">
<title>Node5_2</title>
<ellipse fill="#93db70" stroke="#93db70" cx="296.1" cy="-105" rx="50.09" ry="18"/>
<text text-anchor="middle" x="296.1" y="-101.3" font-family="Times,serif" font-size="14.00">वृत्तिम्(5.2)</text>
</g>
<!-- Node5_1&#45;&gt;Node5_2 -->
<g id="edge5" class="edge">
<title>Node5_1&#45;&gt;Node5_2</title>
<path fill="none" stroke="black" d="M296.1,-46.27C296.1,-59.58 296.1,-75.19 296.1,-86.82"/>
<polygon fill="black" stroke="black" points="299.6,-46.2 296.1,-36.2 292.6,-46.2 299.6,-46.2"/>
<text text-anchor="middle" x="305.6" y="-57.8" font-family="Times,serif" font-size="14.00">T6</text>
</g>
<!-- Node5_2&#45;&gt;Node6_1 -->
<g id="edge6" class="edge">
<title>Node5_2&#45;&gt;Node6_1</title>
<path fill="none" stroke="black" d="M275,-129.91C262.39,-144.2 246.71,-161.98 235.51,-174.66"/>
<polygon fill="black" stroke="black" points="277.64,-132.2 281.63,-122.39 272.39,-127.57 277.64,-132.2"/>
<text text-anchor="middle" x="272.1" y="-144.8" font-family="Times,serif" font-size="14.00">कर्म</text>
</g>
</g>
</svg>
