<?xml version="1.0" encoding="UTF-8" standalone="no"?>
<!DOCTYPE svg PUBLIC "-//W3C//DTD SVG 1.1//EN"
 "http://www.w3.org/Graphics/SVG/1.1/DTD/svg11.dtd">
<!-- Generated by graphviz version 2.43.0 (0)
 -->
<!-- Title: G Pages: 1 -->
<svg width="725pt" height="234pt"
 viewBox="0.00 0.00 725.00 234.00" xmlns="http://www.w3.org/2000/svg" xmlns:xlink="http://www.w3.org/1999/xlink">
<g id="graph0" class="graph" transform="scale(1 1) rotate(0) translate(4 230)">
<title>G</title>
<polygon fill="#fffacd" stroke="transparent" points="-4,4 -4,-230 721,-230 721,4 -4,4"/>
<g id="clust1" class="cluster">
<title>cluster_1</title>
<polygon fill="#fffacd" stroke="black" points="8,-8 8,-147 285,-147 285,-8 8,-8"/>
</g>
<g id="clust2" class="cluster">
<title>cluster_2</title>
<polygon fill="#fffacd" stroke="black" points="377,-8 377,-147 487,-147 487,-8 377,-8"/>
</g>
<!-- Node2 -->
<g id="node1" class="node">
<title>Node2</title>
<ellipse fill="lightgrey" stroke="black" cx="226" cy="-34" rx="51.19" ry="18"/>
<text text-anchor="middle" x="226" y="-30.3" font-family="Times,serif" font-size="14.00">सूपकाराः(2)</text>
</g>
<!-- Node1 -->
<g id="node2" class="node">
<title>Node1</title>
<ellipse fill="lightgrey" stroke="black" cx="220" cy="-121" rx="57.39" ry="18"/>
<text text-anchor="middle" x="220" y="-117.3" font-family="Times,serif" font-size="14.00">आरालिकाः(1)</text>
</g>
<!-- Node2&#45;&gt;Node1 -->
<g id="edge2" class="edge">
<title>Node2&#45;&gt;Node1</title>
<path fill="none" stroke="black" d="M224.08,-62.27C223.14,-75.58 222.03,-91.19 221.21,-102.82"/>
<polygon fill="black" stroke="black" points="227.57,-62.42 224.79,-52.2 220.59,-61.93 227.57,-62.42"/>
<text text-anchor="middle" x="245.5" y="-73.8" font-family="Times,serif" font-size="14.00">समुच्चितः</text>
</g>
<!-- Node5 -->
<g id="node6" class="node">
<title>Node5</title>
<ellipse fill="lightgrey" stroke="black" cx="432" cy="-208" rx="90.18" ry="18"/>
<text text-anchor="middle" x="432" y="-204.3" font-family="Times,serif" font-size="14.00">उपातिष्ठन्त(उपातिष्ठन्)(5)</text>
</g>
<!-- Node1&#45;&gt;Node5 -->
<g id="edge1" class="edge">
<title>Node1&#45;&gt;Node5</title>
<path fill="none" stroke="black" d="M263.41,-139.41C301.73,-154.77 357.03,-176.94 393.72,-191.65"/>
<polygon fill="black" stroke="black" points="264.65,-136.13 254.06,-135.66 262.04,-142.63 264.65,-136.13"/>
<text text-anchor="middle" x="349" y="-160.8" font-family="Times,serif" font-size="14.00">कर्ता</text>
</g>
<!-- Node3 -->
<g id="node3" class="node">
<title>Node3</title>
<ellipse fill="lightgrey" stroke="black" cx="86" cy="-34" rx="70.39" ry="18"/>
<text text-anchor="middle" x="86" y="-30.3" font-family="Times,serif" font-size="14.00">रागखाण्डविकाः(3)</text>
</g>
<!-- Node3&#45;&gt;Node1 -->
<g id="edge3" class="edge">
<title>Node3&#45;&gt;Node1</title>
<path fill="none" stroke="black" d="M119.88,-56.49C143.56,-71.51 174.61,-91.21 195.81,-104.66"/>
<polygon fill="black" stroke="black" points="121.52,-53.39 111.2,-50.99 117.77,-59.3 121.52,-53.39"/>
<text text-anchor="middle" x="184.5" y="-73.8" font-family="Times,serif" font-size="14.00">समुच्चितः</text>
</g>
<!-- Node6 -->
<g id="node4" class="node">
<title>Node6</title>
<ellipse fill="lightgrey" stroke="black" cx="432" cy="-34" rx="42.49" ry="18"/>
<text text-anchor="middle" x="432" y="-30.3" font-family="Times,serif" font-size="14.00">राजानं(6)</text>
</g>
<!-- Node7 -->
<g id="node5" class="node">
<title>Node7</title>
<ellipse fill="lightgrey" stroke="black" cx="432" cy="-121" rx="46.59" ry="18"/>
<text text-anchor="middle" x="432" y="-117.3" font-family="Times,serif" font-size="14.00">धृतराष्ट्रं(7)</text>
</g>
<!-- Node6&#45;&gt;Node7 -->
<g id="edge5" class="edge">
<title>Node6&#45;&gt;Node7</title>
<path fill="none" stroke="black" d="M432,-62.27C432,-75.58 432,-91.19 432,-102.82"/>
<polygon fill="black" stroke="black" points="435.5,-62.2 432,-52.2 428.5,-62.2 435.5,-62.2"/>
<text text-anchor="middle" x="454.5" y="-73.8" font-family="Times,serif" font-size="14.00">विशेषणम्</text>
</g>
<!-- Node7&#45;&gt;Node5 -->
<g id="edge6" class="edge">
<title>Node7&#45;&gt;Node5</title>
<path fill="none" stroke="black" d="M432,-149.27C432,-162.58 432,-178.19 432,-189.82"/>
<polygon fill="black" stroke="black" points="435.5,-149.2 432,-139.2 428.5,-149.2 435.5,-149.2"/>
<text text-anchor="middle" x="441" y="-160.8" font-family="Times,serif" font-size="14.00">कर्म</text>
</g>
<!-- Node4 -->
<g id="node7" class="node">
<title>Node4</title>
<ellipse fill="lightgrey" stroke="black" cx="332" cy="-34" rx="36.29" ry="18"/>
<text text-anchor="middle" x="332" y="-30.3" font-family="Times,serif" font-size="14.00">तथा(4)</text>
</g>
<!-- Node4&#45;&gt;Node1 -->
<g id="edge4" class="edge">
<title>Node4&#45;&gt;Node1</title>
<path fill="none" stroke="black" d="M306.85,-56.42C295.99,-65.46 283.04,-75.96 271,-85 262.15,-91.64 252.17,-98.6 243.4,-104.55"/>
<polygon fill="black" stroke="black" points="309.28,-58.95 314.7,-49.84 304.79,-53.59 309.28,-58.95"/>
<text text-anchor="middle" x="327" y="-73.8" font-family="Times,serif" font-size="14.00">समुच्चय_द्योतकः</text>
</g>
<!-- Node8 -->
<g id="node8" class="node">
<title>Node8</title>
<ellipse fill="lightgrey" stroke="black" cx="658" cy="-34" rx="36.29" ry="18"/>
<text text-anchor="middle" x="658" y="-30.3" font-family="Times,serif" font-size="14.00">यथा(8)</text>
</g>
<!-- Node12 -->
<g id="node9" class="node">
<title>Node12</title>
<ellipse fill="lightgrey" stroke="black" cx="599" cy="-121" rx="102.88" ry="18"/>
<text text-anchor="middle" x="599" y="-117.3" font-family="Times,serif" font-size="14.00">(उपातिष्ठन्त(उपातिष्ठन्))(12)</text>
</g>
<!-- Node8&#45;&gt;Node12 -->
<g id="edge7" class="edge">
<title>Node8&#45;&gt;Node12</title>
<path fill="none" stroke="black" d="M648.6,-61.64C645.23,-69.51 640.99,-77.91 636,-85 631.42,-91.51 625.48,-97.76 619.71,-103.14"/>
<polygon fill="black" stroke="black" points="651.96,-62.67 652.42,-52.09 645.46,-60.08 651.96,-62.67"/>
<text text-anchor="middle" x="680.5" y="-73.8" font-family="Times,serif" font-size="14.00">उपमान_द्योतकः</text>
</g>
<!-- Node12&#45;&gt;Node5 -->
<g id="edge9" class="edge">
<title>Node12&#45;&gt;Node5</title>
<path fill="none" stroke="black" d="M558.07,-142.83C528.87,-157.69 490.18,-177.39 463.4,-191.02"/>
<polygon fill="black" stroke="black" points="559.87,-145.84 567.2,-138.19 556.7,-139.6 559.87,-145.84"/>
<text text-anchor="middle" x="545.5" y="-160.8" font-family="Times,serif" font-size="14.00">उपमानम्</text>
</g>
<!-- Node9 -->
<g id="node10" class="node">
<title>Node9</title>
<ellipse fill="lightgrey" stroke="black" cx="564" cy="-34" rx="34.39" ry="18"/>
<text text-anchor="middle" x="564" y="-30.3" font-family="Times,serif" font-size="14.00">पुरा(9)</text>
</g>
<!-- Node9&#45;&gt;Node12 -->
<g id="edge8" class="edge">
<title>Node9&#45;&gt;Node12</title>
<path fill="none" stroke="black" d="M560.93,-62.49C561.04,-70.02 562.09,-78.03 565,-85 567.81,-91.72 572.56,-97.88 577.65,-103.09"/>
<polygon fill="black" stroke="black" points="564.43,-62.43 561.29,-52.31 557.44,-62.18 564.43,-62.43"/>
<text text-anchor="middle" x="600.5" y="-73.8" font-family="Times,serif" font-size="14.00">कालाधिकरणम्</text>
</g>
</g>
</svg>
