<?xml version="1.0" encoding="UTF-8" standalone="no"?>
<!DOCTYPE svg PUBLIC "-//W3C//DTD SVG 1.1//EN"
 "http://www.w3.org/Graphics/SVG/1.1/DTD/svg11.dtd">
<!-- Generated by graphviz version 2.43.0 (0)
 -->
<!-- Title: G Pages: 1 -->
<svg width="854pt" height="305pt"
 viewBox="0.00 0.00 854.15 305.00" xmlns="http://www.w3.org/2000/svg" xmlns:xlink="http://www.w3.org/1999/xlink">
<g id="graph0" class="graph" transform="scale(1 1) rotate(0) translate(4 301)">
<title>G</title>
<polygon fill="#fffacd" stroke="transparent" points="-4,4 -4,-301 850.15,-301 850.15,4 -4,4"/>
<g id="clust1" class="cluster">
<title>cluster_1</title>
<polygon fill="#fffacd" stroke="black" points="358,-79 358,-218 744,-218 744,-79 358,-79"/>
</g>
<g id="clust2" class="cluster">
<title>cluster_2</title>
<polygon fill="#fffacd" stroke="black" points="8,-79 8,-218 130,-218 130,-79 8,-79"/>
</g>
<!-- Node2_1 -->
<g id="node1" class="node">
<title>Node2_1</title>
<ellipse fill="#00bfff" stroke="#00bfff" cx="679" cy="-105" rx="56.59" ry="18"/>
<text text-anchor="middle" x="679" y="-101.3" font-family="Times,serif" font-size="14.00">धर्मराजः(2.1)</text>
</g>
<!-- Node7_1 -->
<g id="node2" class="node">
<title>Node7_1</title>
<ellipse fill="#00bfff" stroke="#00bfff" cx="507" cy="-192" rx="44.39" ry="18"/>
<text text-anchor="middle" x="507" y="-188.3" font-family="Times,serif" font-size="14.00">यमौ(7.1)</text>
</g>
<!-- Node2_1&#45;&gt;Node7_1 -->
<g id="edge3" class="edge">
<title>Node2_1&#45;&gt;Node7_1</title>
<path fill="none" stroke="black" d="M642.94,-125.61C625.3,-135.04 603.67,-146.36 584,-156 568.31,-163.69 550.57,-171.79 536.07,-178.26"/>
<polygon fill="black" stroke="black" points="644.62,-128.68 651.78,-120.86 641.31,-122.51 644.62,-128.68"/>
<text text-anchor="middle" x="635.5" y="-144.8" font-family="Times,serif" font-size="14.00">समुच्चितः</text>
</g>
<!-- Node11_1 -->
<g id="node9" class="node">
<title>Node11_1</title>
<ellipse fill="#ff1975" stroke="#ff1975" cx="199" cy="-279" rx="68.49" ry="18"/>
<text text-anchor="middle" x="199" y="-275.3" font-family="Times,serif" font-size="14.00">अन्ववर्तन्त(11.1)</text>
</g>
<!-- Node7_1&#45;&gt;Node11_1 -->
<g id="edge8" class="edge">
<title>Node7_1&#45;&gt;Node11_1</title>
<path fill="none" stroke="black" d="M461.69,-205.51C403.35,-221.6 302.58,-249.41 244.27,-265.51"/>
<polygon fill="black" stroke="black" points="462.66,-208.87 471.37,-202.83 460.8,-202.12 462.66,-208.87"/>
<text text-anchor="middle" x="383" y="-231.8" font-family="Times,serif" font-size="14.00">कर्ता</text>
</g>
<!-- Node4_1 -->
<g id="node3" class="node">
<title>Node4_1</title>
<ellipse fill="#00bfff" stroke="#00bfff" cx="556" cy="-105" rx="48.19" ry="18"/>
<text text-anchor="middle" x="556" y="-101.3" font-family="Times,serif" font-size="14.00">भीमः(4.1)</text>
</g>
<!-- Node4_1&#45;&gt;Node7_1 -->
<g id="edge5" class="edge">
<title>Node4_1&#45;&gt;Node7_1</title>
<path fill="none" stroke="black" d="M541.13,-131.8C533.18,-145.58 523.64,-162.14 516.66,-174.24"/>
<polygon fill="black" stroke="black" points="544.36,-133.2 546.32,-122.79 538.29,-129.71 544.36,-133.2"/>
<text text-anchor="middle" x="557.5" y="-144.8" font-family="Times,serif" font-size="14.00">समुच्चितः</text>
</g>
<!-- Node5_1 -->
<g id="node4" class="node">
<title>Node5_1</title>
<ellipse fill="#00bfff" stroke="#00bfff" cx="428" cy="-105" rx="61.99" ry="18"/>
<text text-anchor="middle" x="428" y="-101.3" font-family="Times,serif" font-size="14.00">सव्यसाची(5.1)</text>
</g>
<!-- Node5_1&#45;&gt;Node7_1 -->
<g id="edge6" class="edge">
<title>Node5_1&#45;&gt;Node7_1</title>
<path fill="none" stroke="black" d="M450.61,-130.32C463.87,-144.6 480.27,-162.24 491.96,-174.82"/>
<polygon fill="black" stroke="black" points="452.98,-127.74 443.61,-122.79 447.85,-132.5 452.98,-127.74"/>
<text text-anchor="middle" x="495.5" y="-144.8" font-family="Times,serif" font-size="14.00">समुच्चितः</text>
</g>
<!-- Node9_1 -->
<g id="node5" class="node">
<title>Node9_1</title>
<ellipse fill="#93db70" stroke="#93db70" cx="69" cy="-105" rx="42.49" ry="18"/>
<text text-anchor="middle" x="69" y="-101.3" font-family="Times,serif" font-size="14.00">तत्(9.1)</text>
</g>
<!-- Node10_1 -->
<g id="node6" class="node">
<title>Node10_1</title>
<ellipse fill="#93db70" stroke="#93db70" cx="69" cy="-192" rx="53.09" ry="18"/>
<text text-anchor="middle" x="69" y="-188.3" font-family="Times,serif" font-size="14.00">सर्वम्(10.1)</text>
</g>
<!-- Node9_1&#45;&gt;Node10_1 -->
<g id="edge10" class="edge">
<title>Node9_1&#45;&gt;Node10_1</title>
<path fill="none" stroke="black" d="M69,-133.27C69,-146.58 69,-162.19 69,-173.82"/>
<polygon fill="black" stroke="black" points="72.5,-133.2 69,-123.2 65.5,-133.2 72.5,-133.2"/>
<text text-anchor="middle" x="91.5" y="-144.8" font-family="Times,serif" font-size="14.00">विशेषणम्</text>
</g>
<!-- Node10_1&#45;&gt;Node11_1 -->
<g id="edge11" class="edge">
<title>Node10_1&#45;&gt;Node11_1</title>
<path fill="none" stroke="black" d="M101.18,-214.04C123.95,-228.93 154,-248.57 174.75,-262.15"/>
<polygon fill="black" stroke="black" points="102.83,-210.94 92.54,-208.39 99,-216.79 102.83,-210.94"/>
<text text-anchor="middle" x="151" y="-231.8" font-family="Times,serif" font-size="14.00">कर्म</text>
</g>
<!-- Node1_1 -->
<g id="node7" class="node">
<title>Node1_1</title>
<ellipse fill="lightgrey" stroke="black" cx="197" cy="-105" rx="58.49" ry="18"/>
<text text-anchor="middle" x="197" y="-101.3" font-family="Times,serif" font-size="14.00">धृतराष्ट्र&#45;(1.1)</text>
</g>
<!-- Node1_2 -->
<g id="node8" class="node">
<title>Node1_2</title>
<ellipse fill="#40e0d0" stroke="#40e0d0" cx="199" cy="-192" rx="58.49" ry="18"/>
<text text-anchor="middle" x="199" y="-188.3" font-family="Times,serif" font-size="14.00">व्यपेक्षया(1.2)</text>
</g>
<!-- Node1_1&#45;&gt;Node1_2 -->
<g id="edge1" class="edge">
<title>Node1_1&#45;&gt;Node1_2</title>
<path fill="none" stroke="black" d="M197.64,-133.27C197.95,-146.58 198.32,-162.19 198.6,-173.82"/>
<polygon fill="black" stroke="black" points="201.14,-133.12 197.4,-123.2 194.14,-133.28 201.14,-133.12"/>
<text text-anchor="middle" x="208.5" y="-144.8" font-family="Times,serif" font-size="14.00">T6</text>
</g>
<!-- Node1_2&#45;&gt;Node11_1 -->
<g id="edge2" class="edge">
<title>Node1_2&#45;&gt;Node11_1</title>
<path fill="none" stroke="black" d="M199,-220.27C199,-233.58 199,-249.19 199,-260.82"/>
<polygon fill="black" stroke="black" points="202.5,-220.2 199,-210.2 195.5,-220.2 202.5,-220.2"/>
<text text-anchor="middle" x="208.5" y="-231.8" font-family="Times,serif" font-size="14.00">हेतुः</text>
</g>
<!-- Node3_1 -->
<g id="node10" class="node">
<title>Node3_1</title>
<ellipse fill="#ff99ff" stroke="#ff99ff" cx="311" cy="-105" rx="37.89" ry="18"/>
<text text-anchor="middle" x="311" y="-101.3" font-family="Times,serif" font-size="14.00">च(3.1)</text>
</g>
<!-- Node3_1&#45;&gt;Node7_1 -->
<g id="edge4" class="edge">
<title>Node3_1&#45;&gt;Node7_1</title>
<path fill="none" stroke="black" d="M337.01,-127.21C350.16,-137.09 366.74,-148.33 383,-156 410.11,-168.8 442.81,-177.79 467.82,-183.45"/>
<polygon fill="black" stroke="black" points="338.96,-124.3 328.91,-120.97 334.69,-129.84 338.96,-124.3"/>
<text text-anchor="middle" x="421" y="-144.8" font-family="Times,serif" font-size="14.00">समुच्चय_द्योतकः</text>
</g>
<!-- Node6_1 -->
<g id="node11" class="node">
<title>Node6_1</title>
<ellipse fill="#ff99ff" stroke="#ff99ff" cx="679" cy="-18" rx="37.89" ry="18"/>
<text text-anchor="middle" x="679" y="-14.3" font-family="Times,serif" font-size="14.00">च(6.1)</text>
</g>
<!-- Node6_1&#45;&gt;Node2_1 -->
<g id="edge7" class="edge">
<title>Node6_1&#45;&gt;Node2_1</title>
<path fill="none" stroke="black" d="M679,-46.27C679,-59.58 679,-75.19 679,-86.82"/>
<polygon fill="black" stroke="black" points="682.5,-46.2 679,-36.2 675.5,-46.2 682.5,-46.2"/>
<text text-anchor="middle" x="697.5" y="-57.8" font-family="Times,serif" font-size="14.00">सम्बन्धः</text>
</g>
<!-- Node8_1 -->
<g id="node12" class="node">
<title>Node8_1</title>
<ellipse fill="#ff99ff" stroke="#ff99ff" cx="800" cy="-105" rx="46.29" ry="18"/>
<text text-anchor="middle" x="800" y="-101.3" font-family="Times,serif" font-size="14.00">अपि(8.1)</text>
</g>
<!-- Node8_1&#45;&gt;Node7_1 -->
<g id="edge9" class="edge">
<title>Node8_1&#45;&gt;Node7_1</title>
<path fill="none" stroke="black" d="M759.54,-122.18C732.27,-132.71 695.32,-146.24 662,-156 623.08,-167.4 577.75,-177.24 546.2,-183.57"/>
<polygon fill="black" stroke="black" points="761.08,-125.34 769.13,-118.45 758.54,-118.81 761.08,-125.34"/>
<text text-anchor="middle" x="726.5" y="-144.8" font-family="Times,serif" font-size="14.00">सम्बन्धः</text>
</g>
</g>
</svg>
