<?xml version="1.0" encoding="UTF-8" standalone="no"?>
<!DOCTYPE svg PUBLIC "-//W3C//DTD SVG 1.1//EN"
 "http://www.w3.org/Graphics/SVG/1.1/DTD/svg11.dtd">
<!-- Generated by graphviz version 2.43.0 (0)
 -->
<!-- Title: G Pages: 1 -->
<svg width="819pt" height="305pt"
 viewBox="0.00 0.00 819.04 305.00" xmlns="http://www.w3.org/2000/svg" xmlns:xlink="http://www.w3.org/1999/xlink">
<g id="graph0" class="graph" transform="scale(1 1) rotate(0) translate(4 301)">
<title>G</title>
<polygon fill="#fffacd" stroke="transparent" points="-4,4 -4,-301 815.04,-301 815.04,4 -4,4"/>
<g id="clust1" class="cluster">
<title>cluster_1</title>
<polygon fill="#fffacd" stroke="black" points="83.7,-79 83.7,-218 213.7,-218 213.7,-79 83.7,-79"/>
</g>
<g id="clust2" class="cluster">
<title>cluster_2</title>
<polygon fill="#fffacd" stroke="black" points="319.7,-79 319.7,-218 455.7,-218 455.7,-79 319.7,-79"/>
</g>
<!-- Node8_1 -->
<g id="node1" class="node">
<title>Node8_1</title>
<ellipse fill="#00bfff" stroke="#00bfff" cx="148.7" cy="-105" rx="57.39" ry="18"/>
<text text-anchor="middle" x="148.7" y="-101.3" font-family="Times,serif" font-size="14.00">विपरीतः(8.1)</text>
</g>
<!-- Node15_1 -->
<g id="node2" class="node">
<title>Node15_1</title>
<ellipse fill="#00bfff" stroke="#00bfff" cx="154.7" cy="-192" rx="48.99" ry="18"/>
<text text-anchor="middle" x="154.7" y="-188.3" font-family="Times,serif" font-size="14.00">नरः(15.1)</text>
</g>
<!-- Node8_1&#45;&gt;Node15_1 -->
<g id="edge8" class="edge">
<title>Node8_1&#45;&gt;Node15_1</title>
<path fill="none" stroke="black" d="M150.62,-133.27C151.56,-146.58 152.66,-162.19 153.48,-173.82"/>
<polygon fill="black" stroke="black" points="154.11,-132.93 149.91,-123.2 147.12,-133.42 154.11,-132.93"/>
<text text-anchor="middle" x="174.2" y="-144.8" font-family="Times,serif" font-size="14.00">विशेषणम्</text>
</g>
<!-- Node14_1 -->
<g id="node12" class="node">
<title>Node14_1</title>
<ellipse fill="#ff1975" stroke="#ff1975" cx="208.7" cy="-279" rx="53.09" ry="18"/>
<text text-anchor="middle" x="208.7" y="-275.3" font-family="Times,serif" font-size="14.00">भवेत्(14.1)</text>
</g>
<!-- Node15_1&#45;&gt;Node14_1 -->
<g id="edge14" class="edge">
<title>Node15_1&#45;&gt;Node14_1</title>
<path fill="none" stroke="black" d="M170.83,-218.4C179.64,-232.26 190.29,-249.03 198.05,-261.24"/>
<polygon fill="black" stroke="black" points="173.68,-216.36 165.37,-209.79 167.77,-220.11 173.68,-216.36"/>
<text text-anchor="middle" x="195.7" y="-231.8" font-family="Times,serif" font-size="14.00">कर्ता</text>
</g>
<!-- Node11_1 -->
<g id="node3" class="node">
<title>Node11_1</title>
<ellipse fill="#00bfff" stroke="#00bfff" cx="387.7" cy="-105" rx="51.99" ry="18"/>
<text text-anchor="middle" x="387.7" y="-101.3" font-family="Times,serif" font-size="14.00">शत्रुः(11.1)</text>
</g>
<!-- Node12_1 -->
<g id="node4" class="node">
<title>Node12_1</title>
<ellipse fill="#00bfff" stroke="#00bfff" cx="387.7" cy="-192" rx="59.59" ry="18"/>
<text text-anchor="middle" x="387.7" y="-188.3" font-family="Times,serif" font-size="14.00">निरस्यः(12.1)</text>
</g>
<!-- Node11_1&#45;&gt;Node12_1 -->
<g id="edge11" class="edge">
<title>Node11_1&#45;&gt;Node12_1</title>
<path fill="none" stroke="black" d="M387.7,-133.27C387.7,-146.58 387.7,-162.19 387.7,-173.82"/>
<polygon fill="black" stroke="black" points="391.2,-133.2 387.7,-123.2 384.2,-133.2 391.2,-133.2"/>
<text text-anchor="middle" x="410.2" y="-144.8" font-family="Times,serif" font-size="14.00">समुच्चितः</text>
</g>
<!-- Node12_1&#45;&gt;Node14_1 -->
<g id="edge12" class="edge">
<title>Node12_1&#45;&gt;Node14_1</title>
<path fill="none" stroke="black" d="M347.51,-212.08C314.33,-227.84 268,-249.84 238.18,-264"/>
<polygon fill="black" stroke="black" points="349.39,-215.06 356.93,-207.61 346.39,-208.74 349.39,-215.06"/>
<text text-anchor="middle" x="344.2" y="-231.8" font-family="Times,serif" font-size="14.00">विधेयविशेषणम्</text>
</g>
<!-- Node1_1 -->
<g id="node5" class="node">
<title>Node1_1</title>
<ellipse fill="#c6e2eb" stroke="#c6e2eb" cx="744.7" cy="-192" rx="50.09" ry="18"/>
<text text-anchor="middle" x="744.7" y="-188.3" font-family="Times,serif" font-size="14.00">निदेशे(1.1)</text>
</g>
<!-- Node4_1 -->
<g id="node6" class="node">
<title>Node4_1</title>
<ellipse fill="#ff1975" stroke="#ff1975" cx="688.7" cy="-279" rx="59.59" ry="18"/>
<text text-anchor="middle" x="688.7" y="-275.3" font-family="Times,serif" font-size="14.00">स्थास्यति(4.1)</text>
</g>
<!-- Node1_1&#45;&gt;Node4_1 -->
<g id="edge1" class="edge">
<title>Node1_1&#45;&gt;Node4_1</title>
<path fill="none" stroke="black" d="M727.96,-218.4C718.83,-232.26 707.79,-249.03 699.74,-261.24"/>
<polygon fill="black" stroke="black" points="731.05,-220.07 733.63,-209.79 725.21,-216.22 731.05,-220.07"/>
<text text-anchor="middle" x="747.2" y="-231.8" font-family="Times,serif" font-size="14.00">अधिकरणम्</text>
</g>
<!-- Node2_1 -->
<g id="node7" class="node">
<title>Node2_1</title>
<ellipse fill="#87ceeb" stroke="#87ceeb" cx="746.7" cy="-105" rx="64.19" ry="18"/>
<text text-anchor="middle" x="746.7" y="-101.3" font-family="Times,serif" font-size="14.00">धृतराष्ट्रस्य(2.1)</text>
</g>
<!-- Node2_1&#45;&gt;Node1_1 -->
<g id="edge2" class="edge">
<title>Node2_1&#45;&gt;Node1_1</title>
<path fill="none" stroke="black" d="M746.06,-133.27C745.74,-146.58 745.37,-162.19 745.1,-173.82"/>
<polygon fill="black" stroke="black" points="749.56,-133.28 746.29,-123.2 742.56,-133.12 749.56,-133.28"/>
<text text-anchor="middle" x="773.2" y="-144.8" font-family="Times,serif" font-size="14.00">षष्ठीसम्बन्धः</text>
</g>
<!-- Node3_1 -->
<g id="node8" class="node">
<title>Node3_1</title>
<ellipse fill="#00bfff" stroke="#00bfff" cx="632.7" cy="-192" rx="39.79" ry="18"/>
<text text-anchor="middle" x="632.7" y="-188.3" font-family="Times,serif" font-size="14.00">यः(3.1)</text>
</g>
<!-- Node3_1&#45;&gt;Node4_1 -->
<g id="edge3" class="edge">
<title>Node3_1&#45;&gt;Node4_1</title>
<path fill="none" stroke="black" d="M649.16,-217.99C658.3,-231.87 669.43,-248.76 677.55,-261.08"/>
<polygon fill="black" stroke="black" points="651.92,-215.81 643.49,-209.39 646.07,-219.67 651.92,-215.81"/>
<text text-anchor="middle" x="674.7" y="-231.8" font-family="Times,serif" font-size="14.00">कर्ता</text>
</g>
<!-- Node5_1 -->
<g id="node9" class="node">
<title>Node5_1</title>
<ellipse fill="#00bfff" stroke="#00bfff" cx="612.7" cy="-105" rx="38.19" ry="18"/>
<text text-anchor="middle" x="612.7" y="-101.3" font-family="Times,serif" font-size="14.00">स(5.1)</text>
</g>
<!-- Node5_1&#45;&gt;Node3_1 -->
<g id="edge4" class="edge">
<title>Node5_1&#45;&gt;Node3_1</title>
<path fill="none" stroke="black" d="M619.11,-133.27C622.25,-146.58 625.92,-162.19 628.66,-173.82"/>
<polygon fill="black" stroke="black" points="622.44,-132.13 616.74,-123.2 615.63,-133.74 622.44,-132.13"/>
<text text-anchor="middle" x="670.7" y="-144.8" font-family="Times,serif" font-size="14.00">कर्तृसमानाधिकरणम्</text>
</g>
<!-- Node7_1 -->
<g id="node10" class="node">
<title>Node7_1</title>
<ellipse fill="#00bfff" stroke="#00bfff" cx="512.7" cy="-192" rx="47.39" ry="18"/>
<text text-anchor="middle" x="512.7" y="-188.3" font-family="Times,serif" font-size="14.00">सुहृत्(7.1)</text>
</g>
<!-- Node5_1&#45;&gt;Node7_1 -->
<g id="edge5" class="edge">
<title>Node5_1&#45;&gt;Node7_1</title>
<path fill="none" stroke="black" stroke-dasharray="1,5" d="M591,-129.36C582.49,-138.07 572.44,-147.82 562.7,-156 554.25,-163.08 544.42,-170.19 535.72,-176.13"/>
<polygon fill="black" stroke="black" points="593.63,-131.68 598.04,-122.04 588.59,-126.82 593.63,-131.68"/>
<text text-anchor="middle" x="588.7" y="-144.8" font-family="Times,serif" font-size="14.00">कर्ता</text>
</g>
<!-- Node7_1&#45;&gt;Node14_1 -->
<g id="edge7" class="edge">
<title>Node7_1&#45;&gt;Node14_1</title>
<path fill="none" stroke="black" d="M475.78,-211.12C470.43,-213.54 464.95,-215.9 459.7,-218 391.65,-245.12 308.14,-262.07 256.67,-270.78"/>
<polygon fill="black" stroke="black" points="477.6,-214.14 485.2,-206.76 474.65,-207.78 477.6,-214.14"/>
<text text-anchor="middle" x="462.2" y="-231.8" font-family="Times,serif" font-size="14.00">विधेयविशेषणम्</text>
</g>
<!-- Node6_1 -->
<g id="node11" class="node">
<title>Node6_1</title>
<ellipse fill="#87ceeb" stroke="#87ceeb" cx="506.7" cy="-105" rx="37.09" ry="18"/>
<text text-anchor="middle" x="506.7" y="-101.3" font-family="Times,serif" font-size="14.00">मे(6.1)</text>
</g>
<!-- Node6_1&#45;&gt;Node7_1 -->
<g id="edge6" class="edge">
<title>Node6_1&#45;&gt;Node7_1</title>
<path fill="none" stroke="black" d="M506.64,-133.37C506.79,-140.73 507.1,-148.67 507.7,-156 508.17,-161.87 509,-168.26 509.84,-173.96"/>
<polygon fill="black" stroke="black" points="510.14,-133.11 506.52,-123.15 503.14,-133.19 510.14,-133.11"/>
<text text-anchor="middle" x="535.2" y="-144.8" font-family="Times,serif" font-size="14.00">षष्ठीसम्बन्धः</text>
</g>
<!-- Node9_1 -->
<g id="node13" class="node">
<title>Node9_1</title>
<ellipse fill="#ff99ff" stroke="#ff99ff" cx="37.7" cy="-192" rx="37.89" ry="18"/>
<text text-anchor="middle" x="37.7" y="-188.3" font-family="Times,serif" font-size="14.00">च(9.1)</text>
</g>
<!-- Node9_1&#45;&gt;Node14_1 -->
<g id="edge9" class="edge">
<title>Node9_1&#45;&gt;Node14_1</title>
<path fill="none" stroke="black" d="M68.34,-211.73C72.14,-213.9 75.98,-216.04 79.7,-218 112.34,-235.25 150.85,-252.82 177.25,-264.45"/>
<polygon fill="black" stroke="black" points="70.09,-208.69 59.69,-206.66 66.55,-214.73 70.09,-208.69"/>
<text text-anchor="middle" x="147.2" y="-231.8" font-family="Times,serif" font-size="14.00">सम्बन्धः</text>
</g>
<!-- Node10_1 -->
<g id="node14" class="node">
<title>Node10_1</title>
<ellipse fill="#87ceeb" stroke="#87ceeb" cx="387.7" cy="-18" rx="42.79" ry="18"/>
<text text-anchor="middle" x="387.7" y="-14.3" font-family="Times,serif" font-size="14.00">मे(10.1)</text>
</g>
<!-- Node10_1&#45;&gt;Node11_1 -->
<g id="edge10" class="edge">
<title>Node10_1&#45;&gt;Node11_1</title>
<path fill="none" stroke="black" d="M387.7,-46.27C387.7,-59.58 387.7,-75.19 387.7,-86.82"/>
<polygon fill="black" stroke="black" points="391.2,-46.2 387.7,-36.2 384.2,-46.2 391.2,-46.2"/>
<text text-anchor="middle" x="415.2" y="-57.8" font-family="Times,serif" font-size="14.00">षष्ठीसम्बन्धः</text>
</g>
<!-- Node13_1 -->
<g id="node15" class="node">
<title>Node13_1</title>
<ellipse fill="#ff99ff" stroke="#ff99ff" cx="267.7" cy="-105" rx="43.59" ry="18"/>
<text text-anchor="middle" x="267.7" y="-101.3" font-family="Times,serif" font-size="14.00">च(13.1)</text>
</g>
<!-- Node13_1&#45;&gt;Node12_1 -->
<g id="edge13" class="edge">
<title>Node13_1&#45;&gt;Node12_1</title>
<path fill="none" stroke="black" d="M296.89,-126.68C317.99,-141.63 346.09,-161.53 365.41,-175.21"/>
<polygon fill="black" stroke="black" points="298.78,-123.73 288.6,-120.81 294.74,-129.44 298.78,-123.73"/>
<text text-anchor="middle" x="353.2" y="-144.8" font-family="Times,serif" font-size="14.00">सम्बन्धः</text>
</g>
</g>
</svg>
