<?xml version="1.0" encoding="UTF-8" standalone="no"?>
<!DOCTYPE svg PUBLIC "-//W3C//DTD SVG 1.1//EN"
 "http://www.w3.org/Graphics/SVG/1.1/DTD/svg11.dtd">
<!-- Generated by graphviz version 2.43.0 (0)
 -->
<!-- Title: G Pages: 1 -->
<svg width="789pt" height="321pt"
 viewBox="0.00 0.00 789.40 321.00" xmlns="http://www.w3.org/2000/svg" xmlns:xlink="http://www.w3.org/1999/xlink">
<g id="graph0" class="graph" transform="scale(1 1) rotate(0) translate(4 317)">
<title>G</title>
<polygon fill="#fffacd" stroke="transparent" points="-4,4 -4,-317 785.4,-317 785.4,4 -4,4"/>
<g id="clust1" class="cluster">
<title>cluster_1</title>
<polygon fill="#fffacd" stroke="black" points="8,-8 8,-147 116,-147 116,-8 8,-8"/>
</g>
<g id="clust2" class="cluster">
<title>cluster_2</title>
<polygon fill="#fffacd" stroke="black" points="124,-95 124,-234 334,-234 334,-95 124,-95"/>
</g>
<g id="clust3" class="cluster">
<title>cluster_3</title>
<polygon fill="#fffacd" stroke="black" points="342,-95 342,-234 466,-234 466,-95 342,-95"/>
</g>
<!-- Node2 -->
<g id="node1" class="node">
<title>Node2</title>
<ellipse fill="#00bfff" stroke="#00bfff" cx="62" cy="-34" rx="31.7" ry="18"/>
<text text-anchor="middle" x="62" y="-30.3" font-family="Times,serif" font-size="14.00">सः(2)</text>
</g>
<!-- Node3 -->
<g id="node2" class="node">
<title>Node3</title>
<ellipse fill="#00bfff" stroke="#00bfff" cx="62" cy="-121" rx="46.29" ry="18"/>
<text text-anchor="middle" x="62" y="-117.3" font-family="Times,serif" font-size="14.00">कौरव्यः(3)</text>
</g>
<!-- Node2&#45;&gt;Node3 -->
<g id="edge2" class="edge">
<title>Node2&#45;&gt;Node3</title>
<path fill="none" stroke="black" d="M62,-62.27C62,-75.58 62,-91.19 62,-102.82"/>
<polygon fill="black" stroke="black" points="65.5,-62.2 62,-52.2 58.5,-62.2 65.5,-62.2"/>
<text text-anchor="middle" x="84.5" y="-73.8" font-family="Times,serif" font-size="14.00">विशेषणम्</text>
</g>
<!-- Node6 -->
<g id="node3" class="node">
<title>Node6</title>
<ellipse fill="#00bfff" stroke="#00bfff" cx="219" cy="-208" rx="49.29" ry="18"/>
<text text-anchor="middle" x="219" y="-204.3" font-family="Times,serif" font-size="14.00">धृतराष्ट्रः(6)</text>
</g>
<!-- Node3&#45;&gt;Node6 -->
<g id="edge3" class="edge">
<title>Node3&#45;&gt;Node6</title>
<path fill="none" stroke="black" d="M89.81,-143.42C102.81,-152.87 118.76,-163.7 134,-172 150.12,-180.78 168.91,-188.73 184.72,-194.83"/>
<polygon fill="black" stroke="black" points="91.85,-140.57 81.73,-137.44 87.69,-146.2 91.85,-140.57"/>
<text text-anchor="middle" x="156.5" y="-160.8" font-family="Times,serif" font-size="14.00">विशेषणम्</text>
</g>
<!-- Node11 -->
<g id="node9" class="node">
<title>Node11</title>
<ellipse fill="#ff1975" stroke="#ff1975" cx="512" cy="-295" rx="40.09" ry="18"/>
<text text-anchor="middle" x="512" y="-291.3" font-family="Times,serif" font-size="14.00">ददौ(11)</text>
</g>
<!-- Node6&#45;&gt;Node11 -->
<g id="edge6" class="edge">
<title>Node6&#45;&gt;Node11</title>
<path fill="none" stroke="black" d="M266.32,-222.73C325.95,-240.03 426.9,-269.31 478.88,-284.39"/>
<polygon fill="black" stroke="black" points="266.99,-219.28 256.41,-219.85 265.04,-226 266.99,-219.28"/>
<text text-anchor="middle" x="395" y="-247.8" font-family="Times,serif" font-size="14.00">कर्ता</text>
</g>
<!-- Node4 -->
<g id="node4" class="node">
<title>Node4</title>
<ellipse fill="#00bfff" stroke="#00bfff" cx="276" cy="-121" rx="50.09" ry="18"/>
<text text-anchor="middle" x="276" y="-117.3" font-family="Times,serif" font-size="14.00">महामनाः(4)</text>
</g>
<!-- Node4&#45;&gt;Node6 -->
<g id="edge4" class="edge">
<title>Node4&#45;&gt;Node6</title>
<path fill="none" stroke="black" d="M258.97,-147.4C249.67,-161.26 238.43,-178.03 230.24,-190.24"/>
<polygon fill="black" stroke="black" points="262.08,-149.05 264.74,-138.79 256.26,-145.15 262.08,-149.05"/>
<text text-anchor="middle" x="273.5" y="-160.8" font-family="Times,serif" font-size="14.00">विशेषणम्</text>
</g>
<!-- Node5 -->
<g id="node5" class="node">
<title>Node5</title>
<ellipse fill="#00bfff" stroke="#00bfff" cx="170" cy="-121" rx="37.89" ry="18"/>
<text text-anchor="middle" x="170" y="-117.3" font-family="Times,serif" font-size="14.00">राजा(5)</text>
</g>
<!-- Node5&#45;&gt;Node6 -->
<g id="edge5" class="edge">
<title>Node5&#45;&gt;Node6</title>
<path fill="none" stroke="black" d="M178.9,-148.68C181.95,-156.44 185.7,-164.77 190,-172 193.87,-178.51 198.92,-185.06 203.71,-190.71"/>
<polygon fill="black" stroke="black" points="182.17,-147.44 175.41,-139.28 175.61,-149.88 182.17,-147.44"/>
<text text-anchor="middle" x="212.5" y="-160.8" font-family="Times,serif" font-size="14.00">विशेषणम्</text>
</g>
<!-- Node7 -->
<g id="node6" class="node">
<title>Node7</title>
<ellipse fill="#b0e2ff" stroke="#b0e2ff" cx="404" cy="-121" rx="50.89" ry="18"/>
<text text-anchor="middle" x="404" y="-117.3" font-family="Times,serif" font-size="14.00">महार्हेभ्यः(7)</text>
</g>
<!-- Node8 -->
<g id="node7" class="node">
<title>Node8</title>
<ellipse fill="#b0e2ff" stroke="#b0e2ff" cx="404" cy="-208" rx="53.89" ry="18"/>
<text text-anchor="middle" x="404" y="-204.3" font-family="Times,serif" font-size="14.00">ब्राह्मणेभ्यः(8)</text>
</g>
<!-- Node7&#45;&gt;Node8 -->
<g id="edge7" class="edge">
<title>Node7&#45;&gt;Node8</title>
<path fill="none" stroke="black" d="M404,-149.27C404,-162.58 404,-178.19 404,-189.82"/>
<polygon fill="black" stroke="black" points="407.5,-149.2 404,-139.2 400.5,-149.2 407.5,-149.2"/>
<text text-anchor="middle" x="426.5" y="-160.8" font-family="Times,serif" font-size="14.00">विशेषणम्</text>
</g>
<!-- Node8&#45;&gt;Node11 -->
<g id="edge8" class="edge">
<title>Node8&#45;&gt;Node11</title>
<path fill="none" stroke="black" d="M428.95,-232.02C438.72,-240.74 450.18,-250.59 461,-259 470.24,-266.18 480.86,-273.6 490.01,-279.74"/>
<polygon fill="black" stroke="black" points="431.28,-229.42 421.51,-225.32 426.6,-234.62 431.28,-229.42"/>
<text text-anchor="middle" x="484.5" y="-247.8" font-family="Times,serif" font-size="14.00">सम्प्रदानम्</text>
</g>
<!-- Node1 -->
<g id="node8" class="node">
<title>Node1</title>
<ellipse fill="#ff99ff" stroke="#ff99ff" cx="512" cy="-208" rx="36" ry="18"/>
<text text-anchor="middle" x="512" y="-204.3" font-family="Times,serif" font-size="14.00">ततः(1)</text>
</g>
<!-- Node1&#45;&gt;Node11 -->
<g id="edge1" class="edge">
<title>Node1&#45;&gt;Node11</title>
<path fill="none" stroke="black" d="M512,-236.27C512,-249.58 512,-265.19 512,-276.82"/>
<polygon fill="black" stroke="black" points="515.5,-236.2 512,-226.2 508.5,-236.2 515.5,-236.2"/>
<text text-anchor="middle" x="530.5" y="-247.8" font-family="Times,serif" font-size="14.00">सम्बन्धः</text>
</g>
<!-- Node9 -->
<g id="node10" class="node">
<title>Node9</title>
<ellipse fill="#ff99ff" stroke="#ff99ff" cx="615" cy="-208" rx="49.29" ry="18"/>
<text text-anchor="middle" x="615" y="-204.3" font-family="Times,serif" font-size="14.00">अनेकशः(9)</text>
</g>
<!-- Node9&#45;&gt;Node11 -->
<g id="edge9" class="edge">
<title>Node9&#45;&gt;Node11</title>
<path fill="none" stroke="black" d="M587.69,-231.53C569.54,-246.52 546.18,-265.79 530.25,-278.94"/>
<polygon fill="black" stroke="black" points="590.14,-234.05 595.63,-224.99 585.69,-228.65 590.14,-234.05"/>
<text text-anchor="middle" x="604" y="-247.8" font-family="Times,serif" font-size="14.00">क्रियाविशेषणम्</text>
</g>
<!-- Node10 -->
<g id="node11" class="node">
<title>Node10</title>
<ellipse fill="#93db70" stroke="#93db70" cx="732" cy="-208" rx="49.29" ry="18"/>
<text text-anchor="middle" x="732" y="-204.3" font-family="Times,serif" font-size="14.00">वित्तान्(10)</text>
</g>
<!-- Node10&#45;&gt;Node11 -->
<g id="edge10" class="edge">
<title>Node10&#45;&gt;Node11</title>
<path fill="none" stroke="black" d="M700.28,-229.39C683.71,-239.37 662.81,-250.94 643,-259 611.93,-271.64 574.86,-281.06 548.09,-286.92"/>
<polygon fill="black" stroke="black" points="702.31,-232.25 709.01,-224.04 698.65,-226.28 702.31,-232.25"/>
<text text-anchor="middle" x="682" y="-247.8" font-family="Times,serif" font-size="14.00">कर्म</text>
</g>
</g>
</svg>
