<?xml version="1.0" encoding="UTF-8" standalone="no"?>
<!DOCTYPE svg PUBLIC "-//W3C//DTD SVG 1.1//EN"
 "http://www.w3.org/Graphics/SVG/1.1/DTD/svg11.dtd">
<!-- Generated by graphviz version 2.43.0 (0)
 -->
<!-- Title: G Pages: 1 -->
<svg width="963pt" height="234pt"
 viewBox="0.00 0.00 963.20 234.00" xmlns="http://www.w3.org/2000/svg" xmlns:xlink="http://www.w3.org/1999/xlink">
<g id="graph0" class="graph" transform="scale(1 1) rotate(0) translate(4 230)">
<title>G</title>
<polygon fill="#fffacd" stroke="transparent" points="-4,4 -4,-230 959.2,-230 959.2,4 -4,4"/>
<g id="clust1" class="cluster">
<title>cluster_1</title>
<polygon fill="#fffacd" stroke="black" points="8,-8 8,-147 710,-147 710,-8 8,-8"/>
</g>
<!-- Node1_2 -->
<g id="node1" class="node">
<title>Node1_2</title>
<ellipse fill="#00bfff" stroke="#00bfff" cx="665" cy="-34" rx="37.09" ry="18"/>
<text text-anchor="middle" x="665" y="-30.3" font-family="Times,serif" font-size="14.00">ते(1.2)</text>
</g>
<!-- Node4_1 -->
<g id="node2" class="node">
<title>Node4_1</title>
<ellipse fill="#00bfff" stroke="#00bfff" cx="444" cy="-121" rx="57.69" ry="18"/>
<text text-anchor="middle" x="444" y="-117.3" font-family="Times,serif" font-size="14.00">पाण्डवाः(4.1)</text>
</g>
<!-- Node1_2&#45;&gt;Node4_1 -->
<g id="edge2" class="edge">
<title>Node1_2&#45;&gt;Node4_1</title>
<path fill="none" stroke="black" d="M632.33,-52.78C612.62,-63.06 586.8,-75.74 563,-85 538.51,-94.52 510.34,-102.92 487.55,-109.1"/>
<polygon fill="black" stroke="black" points="633.99,-55.86 641.2,-48.1 630.72,-49.67 633.99,-55.86"/>
<text text-anchor="middle" x="620.5" y="-73.8" font-family="Times,serif" font-size="14.00">विशेषणम्</text>
</g>
<!-- Node10_1 -->
<g id="node10" class="node">
<title>Node10_1</title>
<ellipse fill="#ff1975" stroke="#ff1975" cx="610" cy="-208" rx="67.69" ry="18"/>
<text text-anchor="middle" x="610" y="-204.3" font-family="Times,serif" font-size="14.00">समातस्थुः(10.1)</text>
</g>
<!-- Node4_1&#45;&gt;Node10_1 -->
<g id="edge5" class="edge">
<title>Node4_1&#45;&gt;Node10_1</title>
<path fill="none" stroke="black" d="M482.18,-141.55C512.01,-156.83 552.88,-177.75 580.3,-191.79"/>
<polygon fill="black" stroke="black" points="483.41,-138.25 472.91,-136.81 480.22,-144.48 483.41,-138.25"/>
<text text-anchor="middle" x="548" y="-160.8" font-family="Times,serif" font-size="14.00">कर्ता</text>
</g>
<!-- Node2_1 -->
<g id="node3" class="node">
<title>Node2_1</title>
<ellipse fill="#00bfff" stroke="#00bfff" cx="559" cy="-34" rx="51.19" ry="18"/>
<text text-anchor="middle" x="559" y="-30.3" font-family="Times,serif" font-size="14.00">भ्रातरः(2.1)</text>
</g>
<!-- Node2_1&#45;&gt;Node4_1 -->
<g id="edge3" class="edge">
<title>Node2_1&#45;&gt;Node4_1</title>
<path fill="none" stroke="black" d="M530.55,-56.83C518.96,-65.65 505.39,-75.88 493,-85 484.41,-91.32 474.89,-98.16 466.54,-104.1"/>
<polygon fill="black" stroke="black" points="532.77,-59.54 538.6,-50.69 528.52,-53.97 532.77,-59.54"/>
<text text-anchor="middle" x="536.5" y="-73.8" font-family="Times,serif" font-size="14.00">विशेषणम्</text>
</g>
<!-- Node3_1 -->
<g id="node4" class="node">
<title>Node3_1</title>
<ellipse fill="#00bfff" stroke="#00bfff" cx="444" cy="-34" rx="46.29" ry="18"/>
<text text-anchor="middle" x="444" y="-30.3" font-family="Times,serif" font-size="14.00">पञ्च(3.1)</text>
</g>
<!-- Node3_1&#45;&gt;Node4_1 -->
<g id="edge4" class="edge">
<title>Node3_1&#45;&gt;Node4_1</title>
<path fill="none" stroke="black" d="M444,-62.27C444,-75.58 444,-91.19 444,-102.82"/>
<polygon fill="black" stroke="black" points="447.5,-62.2 444,-52.2 440.5,-62.2 447.5,-62.2"/>
<text text-anchor="middle" x="466.5" y="-73.8" font-family="Times,serif" font-size="14.00">विशेषणम्</text>
</g>
<!-- Node5_1 -->
<g id="node5" class="node">
<title>Node5_1</title>
<ellipse fill="#00bfff" stroke="#00bfff" cx="338" cy="-34" rx="42.49" ry="18"/>
<text text-anchor="middle" x="338" y="-30.3" font-family="Times,serif" font-size="14.00">सर्वे(5.1)</text>
</g>
<!-- Node5_1&#45;&gt;Node4_1 -->
<g id="edge6" class="edge">
<title>Node5_1&#45;&gt;Node4_1</title>
<path fill="none" stroke="black" d="M362.37,-57.33C372.3,-66.17 384.01,-76.29 395,-85 403.36,-91.62 412.83,-98.52 421.21,-104.43"/>
<polygon fill="black" stroke="black" points="364.61,-54.63 354.83,-50.55 359.93,-59.84 364.61,-54.63"/>
<text text-anchor="middle" x="417.5" y="-73.8" font-family="Times,serif" font-size="14.00">विशेषणम्</text>
</g>
<!-- Node6_1 -->
<g id="node6" class="node">
<title>Node6_1</title>
<ellipse fill="#00bfff" stroke="#00bfff" cx="211" cy="-34" rx="66.89" ry="18"/>
<text text-anchor="middle" x="211" y="-30.3" font-family="Times,serif" font-size="14.00">तथा&#45;शीलाः(6.1)</text>
</g>
<!-- Node6_1&#45;&gt;Node4_1 -->
<g id="edge7" class="edge">
<title>Node6_1&#45;&gt;Node4_1</title>
<path fill="none" stroke="black" d="M252.9,-54.02C275.26,-63.85 303.38,-75.7 329,-85 353.03,-93.72 380.4,-102.11 402.4,-108.49"/>
<polygon fill="black" stroke="black" points="254.25,-50.8 243.69,-49.95 251.42,-57.2 254.25,-50.8"/>
<text text-anchor="middle" x="351.5" y="-73.8" font-family="Times,serif" font-size="14.00">विशेषणम्</text>
</g>
<!-- Node7_1 -->
<g id="node7" class="node">
<title>Node7_1</title>
<ellipse fill="#00bfff" stroke="#00bfff" cx="71" cy="-34" rx="54.69" ry="18"/>
<text text-anchor="middle" x="71" y="-30.3" font-family="Times,serif" font-size="14.00">सहिताः(7.1)</text>
</g>
<!-- Node7_1&#45;&gt;Node4_1 -->
<g id="edge8" class="edge">
<title>Node7_1&#45;&gt;Node4_1</title>
<path fill="none" stroke="black" d="M118.31,-50.17C152.88,-60.89 201.03,-75.06 244,-85 294.14,-96.6 352.14,-106.35 392.73,-112.59"/>
<polygon fill="black" stroke="black" points="119.08,-46.75 108.49,-47.11 116.99,-53.43 119.08,-46.75"/>
<text text-anchor="middle" x="266.5" y="-73.8" font-family="Times,serif" font-size="14.00">विशेषणम्</text>
</g>
<!-- Node1_1 -->
<g id="node8" class="node">
<title>Node1_1</title>
<ellipse fill="#ff99ff" stroke="#ff99ff" cx="911" cy="-34" rx="44.39" ry="18"/>
<text text-anchor="middle" x="911" y="-30.3" font-family="Times,serif" font-size="14.00">ततः(1.1)</text>
</g>
<!-- Node11 -->
<g id="node9" class="node">
<title>Node11</title>
<ellipse fill="lightgrey" stroke="black" cx="911" cy="-121" rx="27" ry="18"/>
</g>
<!-- Node1_1&#45;&gt;Node11 -->
<g id="edge1" class="edge">
<title>Node1_1&#45;&gt;Node11</title>
<path fill="none" stroke="black" d="M911,-62.27C911,-75.58 911,-91.19 911,-102.82"/>
<polygon fill="black" stroke="black" points="914.5,-62.2 911,-52.2 907.5,-62.2 914.5,-62.2"/>
<text text-anchor="middle" x="929.5" y="-73.8" font-family="Times,serif" font-size="14.00">सम्बन्धः</text>
</g>
<!-- Node8_1 -->
<g id="node11" class="node">
<title>Node8_1</title>
<ellipse fill="#87ceeb" stroke="#87ceeb" cx="784" cy="-34" rx="64.19" ry="18"/>
<text text-anchor="middle" x="784" y="-30.3" font-family="Times,serif" font-size="14.00">धृतराष्ट्रस्य(8.1)</text>
</g>
<!-- Node9_1 -->
<g id="node12" class="node">
<title>Node9_1</title>
<ellipse fill="#c6e2eb" stroke="#c6e2eb" cx="777" cy="-121" rx="51.19" ry="18"/>
<text text-anchor="middle" x="777" y="-117.3" font-family="Times,serif" font-size="14.00">शासने(9.1)</text>
</g>
<!-- Node8_1&#45;&gt;Node9_1 -->
<g id="edge9" class="edge">
<title>Node8_1&#45;&gt;Node9_1</title>
<path fill="none" stroke="black" d="M781.75,-62.27C780.66,-75.58 779.37,-91.19 778.41,-102.82"/>
<polygon fill="black" stroke="black" points="785.25,-62.45 782.58,-52.2 778.27,-61.88 785.25,-62.45"/>
<text text-anchor="middle" x="808.5" y="-73.8" font-family="Times,serif" font-size="14.00">षष्ठीसम्बन्धः</text>
</g>
<!-- Node9_1&#45;&gt;Node10_1 -->
<g id="edge10" class="edge">
<title>Node9_1&#45;&gt;Node10_1</title>
<path fill="none" stroke="black" d="M740.12,-140.77C710.04,-156.08 668.08,-177.44 640.02,-191.72"/>
<polygon fill="black" stroke="black" points="741.72,-143.88 749.05,-136.23 738.55,-137.64 741.72,-143.88"/>
<text text-anchor="middle" x="731.5" y="-160.8" font-family="Times,serif" font-size="14.00">अधिकरणम्</text>
</g>
</g>
</svg>
