<?xml version="1.0" encoding="UTF-8" standalone="no"?>
<!DOCTYPE svg PUBLIC "-//W3C//DTD SVG 1.1//EN"
 "http://www.w3.org/Graphics/SVG/1.1/DTD/svg11.dtd">
<!-- Generated by graphviz version 2.43.0 (0)
 -->
<!-- Title: G Pages: 1 -->
<svg width="776pt" height="321pt"
 viewBox="0.00 0.00 776.10 321.00" xmlns="http://www.w3.org/2000/svg" xmlns:xlink="http://www.w3.org/1999/xlink">
<g id="graph0" class="graph" transform="scale(1 1) rotate(0) translate(4 317)">
<title>G</title>
<polygon fill="#fffacd" stroke="transparent" points="-4,4 -4,-317 772.1,-317 772.1,4 -4,4"/>
<g id="clust1" class="cluster">
<title>cluster_1</title>
<polygon fill="#fffacd" stroke="black" points="8,-8 8,-147 124,-147 124,-8 8,-8"/>
</g>
<g id="clust2" class="cluster">
<title>cluster_2</title>
<polygon fill="#fffacd" stroke="black" points="132,-95 132,-234 354,-234 354,-95 132,-95"/>
</g>
<!-- Node3 -->
<g id="node1" class="node">
<title>Node3</title>
<ellipse fill="#93db70" stroke="#93db70" cx="66" cy="-34" rx="36" ry="18"/>
<text text-anchor="middle" x="66" y="-30.3" font-family="Times,serif" font-size="14.00">तान्(3)</text>
</g>
<!-- Node4 -->
<g id="node2" class="node">
<title>Node4</title>
<ellipse fill="#93db70" stroke="#93db70" cx="66" cy="-121" rx="50.09" ry="18"/>
<text text-anchor="middle" x="66" y="-117.3" font-family="Times,serif" font-size="14.00">विनीतान्(4)</text>
</g>
<!-- Node3&#45;&gt;Node4 -->
<g id="edge3" class="edge">
<title>Node3&#45;&gt;Node4</title>
<path fill="none" stroke="black" d="M66,-62.27C66,-75.58 66,-91.19 66,-102.82"/>
<polygon fill="black" stroke="black" points="69.5,-62.2 66,-52.2 62.5,-62.2 69.5,-62.2"/>
<text text-anchor="middle" x="88.5" y="-73.8" font-family="Times,serif" font-size="14.00">विशेषणम्</text>
</g>
<!-- Node5 -->
<g id="node3" class="node">
<title>Node5</title>
<ellipse fill="#93db70" stroke="#93db70" cx="232" cy="-208" rx="40.89" ry="18"/>
<text text-anchor="middle" x="232" y="-204.3" font-family="Times,serif" font-size="14.00">वीरान्(5)</text>
</g>
<!-- Node4&#45;&gt;Node5 -->
<g id="edge4" class="edge">
<title>Node4&#45;&gt;Node5</title>
<path fill="none" stroke="black" d="M99.32,-141.92C115.61,-151.41 135.62,-162.68 154,-172 170.15,-180.19 188.62,-188.52 203.53,-195"/>
<polygon fill="black" stroke="black" points="101.09,-138.9 90.69,-136.86 97.55,-144.94 101.09,-138.9"/>
<text text-anchor="middle" x="176.5" y="-160.8" font-family="Times,serif" font-size="14.00">विशेषणम्</text>
</g>
<!-- Node12 -->
<g id="node7" class="node">
<title>Node12</title>
<ellipse fill="#ff1975" stroke="#ff1975" cx="507" cy="-295" rx="91.78" ry="18"/>
<text text-anchor="middle" x="507" y="-291.3" font-family="Times,serif" font-size="14.00">पर्यपश्यत(पर्यपश्यत्)(12)</text>
</g>
<!-- Node5&#45;&gt;Node12 -->
<g id="edge5" class="edge">
<title>Node5&#45;&gt;Node12</title>
<path fill="none" stroke="black" d="M274.49,-222.13C324.58,-237.62 407.6,-263.28 459.7,-279.38"/>
<polygon fill="black" stroke="black" points="275.21,-218.69 264.63,-219.08 273.15,-225.38 275.21,-218.69"/>
<text text-anchor="middle" x="394" y="-247.8" font-family="Times,serif" font-size="14.00">कर्म</text>
</g>
<!-- Node7 -->
<g id="node4" class="node">
<title>Node7</title>
<ellipse fill="#93db70" stroke="#93db70" cx="187" cy="-121" rx="46.59" ry="18"/>
<text text-anchor="middle" x="187" y="-117.3" font-family="Times,serif" font-size="14.00">स्थितान्(7)</text>
</g>
<!-- Node7&#45;&gt;Node5 -->
<g id="edge7" class="edge">
<title>Node7&#45;&gt;Node5</title>
<path fill="none" stroke="black" d="M198.31,-148.27C201.85,-156.01 205.91,-164.44 210,-172 213.35,-178.19 217.36,-184.76 221.03,-190.53"/>
<polygon fill="black" stroke="black" points="201.41,-146.63 194.13,-138.93 195.02,-149.49 201.41,-146.63"/>
<text text-anchor="middle" x="232.5" y="-160.8" font-family="Times,serif" font-size="14.00">विशेषणम्</text>
</g>
<!-- Node9 -->
<g id="node5" class="node">
<title>Node9</title>
<ellipse fill="#93db70" stroke="#93db70" cx="299" cy="-121" rx="46.59" ry="18"/>
<text text-anchor="middle" x="299" y="-117.3" font-family="Times,serif" font-size="14.00">स्थितान्(9)</text>
</g>
<!-- Node9&#45;&gt;Node5 -->
<g id="edge9" class="edge">
<title>Node9&#45;&gt;Node5</title>
<path fill="none" stroke="black" d="M279.84,-146.31C268.63,-160.53 254.79,-178.09 244.88,-190.66"/>
<polygon fill="black" stroke="black" points="282.64,-148.41 286.08,-138.39 277.14,-144.08 282.64,-148.41"/>
<text text-anchor="middle" x="291.5" y="-160.8" font-family="Times,serif" font-size="14.00">विशेषणम्</text>
</g>
<!-- Node1 -->
<g id="node6" class="node">
<title>Node1</title>
<ellipse fill="#00bfff" stroke="#00bfff" cx="411" cy="-208" rx="49.29" ry="18"/>
<text text-anchor="middle" x="411" y="-204.3" font-family="Times,serif" font-size="14.00">धृतराष्ट्रः(1)</text>
</g>
<!-- Node1&#45;&gt;Node12 -->
<g id="edge1" class="edge">
<title>Node1&#45;&gt;Node12</title>
<path fill="none" stroke="black" d="M436.6,-231.67C452.78,-245.99 473.32,-264.18 488.04,-277.21"/>
<polygon fill="black" stroke="black" points="438.86,-229 429.06,-224.99 434.22,-234.24 438.86,-229"/>
<text text-anchor="middle" x="475" y="-247.8" font-family="Times,serif" font-size="14.00">कर्ता</text>
</g>
<!-- Node2 -->
<g id="node8" class="node">
<title>Node2</title>
<ellipse fill="#ff99ff" stroke="#ff99ff" cx="507" cy="-208" rx="28.7" ry="18"/>
<text text-anchor="middle" x="507" y="-204.3" font-family="Times,serif" font-size="14.00">च(2)</text>
</g>
<!-- Node2&#45;&gt;Node12 -->
<g id="edge2" class="edge">
<title>Node2&#45;&gt;Node12</title>
<path fill="none" stroke="black" d="M507,-236.27C507,-249.58 507,-265.19 507,-276.82"/>
<polygon fill="black" stroke="black" points="510.5,-236.2 507,-226.2 503.5,-236.2 510.5,-236.2"/>
<text text-anchor="middle" x="525.5" y="-247.8" font-family="Times,serif" font-size="14.00">सम्बन्धः</text>
</g>
<!-- Node6 -->
<g id="node9" class="node">
<title>Node6</title>
<ellipse fill="#c6e2eb" stroke="#c6e2eb" cx="186" cy="-34" rx="40.09" ry="18"/>
<text text-anchor="middle" x="186" y="-30.3" font-family="Times,serif" font-size="14.00">विनये(6)</text>
</g>
<!-- Node6&#45;&gt;Node7 -->
<g id="edge6" class="edge">
<title>Node6&#45;&gt;Node7</title>
<path fill="none" stroke="black" d="M186.32,-62.27C186.48,-75.58 186.66,-91.19 186.8,-102.82"/>
<polygon fill="black" stroke="black" points="189.82,-62.16 186.2,-52.2 182.82,-62.24 189.82,-62.16"/>
<text text-anchor="middle" x="224" y="-73.8" font-family="Times,serif" font-size="14.00">विषयाधिकरणम्</text>
</g>
<!-- Node8 -->
<g id="node10" class="node">
<title>Node8</title>
<ellipse fill="#c6e2eb" stroke="#c6e2eb" cx="300" cy="-34" rx="55.49" ry="18"/>
<text text-anchor="middle" x="300" y="-30.3" font-family="Times,serif" font-size="14.00">शिष्य&#45;वृत्तौ(8)</text>
</g>
<!-- Node8&#45;&gt;Node9 -->
<g id="edge8" class="edge">
<title>Node8&#45;&gt;Node9</title>
<path fill="none" stroke="black" d="M299.68,-62.27C299.52,-75.58 299.34,-91.19 299.2,-102.82"/>
<polygon fill="black" stroke="black" points="303.18,-62.24 299.8,-52.2 296.18,-62.16 303.18,-62.24"/>
<text text-anchor="middle" x="336" y="-73.8" font-family="Times,serif" font-size="14.00">विषयाधिकरणम्</text>
</g>
<!-- Node10 -->
<g id="node11" class="node">
<title>Node10</title>
<ellipse fill="#93db70" stroke="#93db70" cx="604" cy="-208" rx="50.09" ry="18"/>
<text text-anchor="middle" x="604" y="-204.3" font-family="Times,serif" font-size="14.00">नित्यम्(10)</text>
</g>
<!-- Node10&#45;&gt;Node12 -->
<g id="edge10" class="edge">
<title>Node10&#45;&gt;Node12</title>
<path fill="none" stroke="black" d="M578.77,-231.74C569.18,-240.33 558.12,-250.16 548,-259 541.09,-265.03 533.46,-271.57 526.68,-277.35"/>
<polygon fill="black" stroke="black" points="581.33,-234.15 586.43,-224.86 576.65,-228.94 581.33,-234.15"/>
<text text-anchor="middle" x="598" y="-247.8" font-family="Times,serif" font-size="14.00">क्रियाविशेषणम्</text>
</g>
<!-- Node11 -->
<g id="node12" class="node">
<title>Node11</title>
<ellipse fill="#ff99ff" stroke="#ff99ff" cx="720" cy="-208" rx="48.19" ry="18"/>
<text text-anchor="middle" x="720" y="-204.3" font-family="Times,serif" font-size="14.00">गुरुवत्(11)</text>
</g>
<!-- Node11&#45;&gt;Node12 -->
<g id="edge11" class="edge">
<title>Node11&#45;&gt;Node12</title>
<path fill="none" stroke="black" d="M689.84,-229.97C674.55,-239.86 655.37,-251.18 637,-259 615.07,-268.34 589.97,-275.79 567.72,-281.38"/>
<polygon fill="black" stroke="black" points="691.94,-232.78 698.36,-224.35 688.08,-226.93 691.94,-232.78"/>
<text text-anchor="middle" x="700" y="-247.8" font-family="Times,serif" font-size="14.00">क्रियाविशेषणम्</text>
</g>
</g>
</svg>
