<?xml version="1.0" encoding="UTF-8" standalone="no"?>
<!DOCTYPE svg PUBLIC "-//W3C//DTD SVG 1.1//EN"
 "http://www.w3.org/Graphics/SVG/1.1/DTD/svg11.dtd">
<!-- Generated by graphviz version 2.43.0 (0)
 -->
<!-- Title: G Pages: 1 -->
<svg width="1437pt" height="392pt"
 viewBox="0.00 0.00 1437.45 392.00" xmlns="http://www.w3.org/2000/svg" xmlns:xlink="http://www.w3.org/1999/xlink">
<g id="graph0" class="graph" transform="scale(1 1) rotate(0) translate(4 388)">
<title>G</title>
<polygon fill="#fffacd" stroke="transparent" points="-4,4 -4,-388 1433.45,-388 1433.45,4 -4,4"/>
<g id="clust1" class="cluster">
<title>cluster_1</title>
<polygon fill="#fffacd" stroke="black" points="8,-166 8,-305 657,-305 657,-166 8,-166"/>
</g>
<g id="clust2" class="cluster">
<title>cluster_2</title>
<polygon fill="#fffacd" stroke="black" points="665,-166 665,-305 805,-305 805,-166 665,-166"/>
</g>
<g id="clust3" class="cluster">
<title>cluster_3</title>
<polygon fill="#fffacd" stroke="black" points="1196,-79 1196,-218 1330,-218 1330,-79 1196,-79"/>
</g>
<g id="clust4" class="cluster">
<title>cluster_4</title>
<polygon fill="#fffacd" stroke="black" points="1044,-166 1044,-305 1188,-305 1188,-166 1044,-166"/>
</g>
<!-- Node1_1 -->
<g id="node1" class="node">
<title>Node1_1</title>
<ellipse fill="lightgrey" stroke="black" cx="578" cy="-192" rx="70.69" ry="18"/>
<text text-anchor="middle" x="578" y="-188.3" font-family="Times,serif" font-size="14.00">आनृशंस्यपरः(1.1)</text>
</g>
<!-- Node4_1 -->
<g id="node2" class="node">
<title>Node4_1</title>
<ellipse fill="#00bfff" stroke="#00bfff" cx="380" cy="-279" rx="57.69" ry="18"/>
<text text-anchor="middle" x="380" y="-275.3" font-family="Times,serif" font-size="14.00">युधिष्ठिरः(4.1)</text>
</g>
<!-- Node1_1&#45;&gt;Node4_1 -->
<g id="edge1" class="edge">
<title>Node1_1&#45;&gt;Node4_1</title>
<path fill="none" stroke="black" d="M535.15,-212.27C514.08,-221.67 488.27,-233.06 465,-243 448.27,-250.14 429.58,-257.87 414,-264.24"/>
<polygon fill="black" stroke="black" points="536.77,-215.38 544.48,-208.11 533.92,-208.99 536.77,-215.38"/>
<text text-anchor="middle" x="522.5" y="-231.8" font-family="Times,serif" font-size="14.00">विशेषणम्</text>
</g>
<!-- Node5_1 -->
<g id="node13" class="node">
<title>Node5_1</title>
<ellipse fill="#ff1975" stroke="#ff1975" cx="816" cy="-366" rx="48.99" ry="18"/>
<text text-anchor="middle" x="816" y="-362.3" font-family="Times,serif" font-size="14.00">उवाच(5.1)</text>
</g>
<!-- Node4_1&#45;&gt;Node5_1 -->
<g id="edge4" class="edge">
<title>Node4_1&#45;&gt;Node5_1</title>
<path fill="none" stroke="black" d="M437.84,-291.28C526.86,-308.63 695.38,-341.48 773.84,-356.78"/>
<polygon fill="black" stroke="black" points="438.39,-287.82 427.91,-289.34 437.05,-294.69 438.39,-287.82"/>
<text text-anchor="middle" x="636" y="-318.8" font-family="Times,serif" font-size="14.00">कर्ता</text>
</g>
<!-- Node2_1 -->
<g id="node3" class="node">
<title>Node2_1</title>
<ellipse fill="#00bfff" stroke="#00bfff" cx="443" cy="-192" rx="46.29" ry="18"/>
<text text-anchor="middle" x="443" y="-188.3" font-family="Times,serif" font-size="14.00">राजा(2.1)</text>
</g>
<!-- Node2_1&#45;&gt;Node4_1 -->
<g id="edge2" class="edge">
<title>Node2_1&#45;&gt;Node4_1</title>
<path fill="none" stroke="black" d="M424.73,-217.65C414.32,-231.7 401.55,-248.92 392.32,-261.37"/>
<polygon fill="black" stroke="black" points="427.71,-219.51 430.85,-209.39 422.09,-215.34 427.71,-219.51"/>
<text text-anchor="middle" x="438.5" y="-231.8" font-family="Times,serif" font-size="14.00">विशेषणम्</text>
</g>
<!-- Node3_1 -->
<g id="node4" class="node">
<title>Node3_1</title>
<ellipse fill="#00bfff" stroke="#00bfff" cx="318" cy="-192" rx="60.39" ry="18"/>
<text text-anchor="middle" x="318" y="-188.3" font-family="Times,serif" font-size="14.00">प्रीयमाणः(3.1)</text>
</g>
<!-- Node3_1&#45;&gt;Node4_1 -->
<g id="edge3" class="edge">
<title>Node3_1&#45;&gt;Node4_1</title>
<path fill="none" stroke="black" d="M336.24,-218.01C346.4,-231.94 358.78,-248.91 367.78,-261.24"/>
<polygon fill="black" stroke="black" points="338.97,-215.81 330.25,-209.79 333.31,-219.93 338.97,-215.81"/>
<text text-anchor="middle" x="375.5" y="-231.8" font-family="Times,serif" font-size="14.00">विशेषणम्</text>
</g>
<!-- Node6_1 -->
<g id="node5" class="node">
<title>Node6_1</title>
<ellipse fill="#00bfff" stroke="#00bfff" cx="201" cy="-192" rx="38.19" ry="18"/>
<text text-anchor="middle" x="201" y="-188.3" font-family="Times,serif" font-size="14.00">स(6.1)</text>
</g>
<!-- Node6_1&#45;&gt;Node4_1 -->
<g id="edge5" class="edge">
<title>Node6_1&#45;&gt;Node4_1</title>
<path fill="none" stroke="black" d="M234.03,-211.05C252.4,-220.87 275.76,-233.01 297,-243 312.85,-250.45 330.72,-258.09 345.8,-264.31"/>
<polygon fill="black" stroke="black" points="235.66,-207.95 225.19,-206.29 232.34,-214.11 235.66,-207.95"/>
<text text-anchor="middle" x="319.5" y="-231.8" font-family="Times,serif" font-size="14.00">विशेषणम्</text>
</g>
<!-- Node11_1 -->
<g id="node6" class="node">
<title>Node11_1</title>
<ellipse fill="#00bfff" stroke="#00bfff" cx="80" cy="-192" rx="64.19" ry="18"/>
<text text-anchor="middle" x="80" y="-188.3" font-family="Times,serif" font-size="14.00">महीपतिः(11.1)</text>
</g>
<!-- Node11_1&#45;&gt;Node4_1 -->
<g id="edge10" class="edge">
<title>Node11_1&#45;&gt;Node4_1</title>
<path fill="none" stroke="black" d="M124.84,-210.82C151.84,-221.13 187.06,-233.83 219,-243 256.25,-253.7 299.17,-262.88 331.33,-269.15"/>
<polygon fill="black" stroke="black" points="125.88,-207.47 115.29,-207.15 123.36,-214.01 125.88,-207.47"/>
<text text-anchor="middle" x="241.5" y="-231.8" font-family="Times,serif" font-size="14.00">विशेषणम्</text>
</g>
<!-- Node8_1 -->
<g id="node7" class="node">
<title>Node8_1</title>
<ellipse fill="#93db70" stroke="#93db70" cx="735" cy="-192" rx="50.09" ry="18"/>
<text text-anchor="middle" x="735" y="-188.3" font-family="Times,serif" font-size="14.00">भ्रातॄन्(8.1)</text>
</g>
<!-- Node9_1 -->
<g id="node8" class="node">
<title>Node9_1</title>
<ellipse fill="#93db70" stroke="#93db70" cx="735" cy="-279" rx="61.99" ry="18"/>
<text text-anchor="middle" x="735" y="-275.3" font-family="Times,serif" font-size="14.00">अमात्यान्(9.1)</text>
</g>
<!-- Node8_1&#45;&gt;Node9_1 -->
<g id="edge7" class="edge">
<title>Node8_1&#45;&gt;Node9_1</title>
<path fill="none" stroke="black" d="M735,-220.27C735,-233.58 735,-249.19 735,-260.82"/>
<polygon fill="black" stroke="black" points="738.5,-220.2 735,-210.2 731.5,-220.2 738.5,-220.2"/>
<text text-anchor="middle" x="757.5" y="-231.8" font-family="Times,serif" font-size="14.00">समुच्चितः</text>
</g>
<!-- Node9_1&#45;&gt;Node5_1 -->
<g id="edge8" class="edge">
<title>Node9_1&#45;&gt;Node5_1</title>
<path fill="none" stroke="black" d="M758.18,-304.32C771.78,-318.6 788.6,-336.24 800.58,-348.82"/>
<polygon fill="black" stroke="black" points="760.44,-301.62 751,-296.79 755.37,-306.45 760.44,-301.62"/>
<text text-anchor="middle" x="790" y="-318.8" font-family="Times,serif" font-size="14.00">कर्म</text>
</g>
<!-- Node12_1 -->
<g id="node9" class="node">
<title>Node12_1</title>
<ellipse fill="#40e0d0" stroke="#40e0d0" cx="1263" cy="-105" rx="50.09" ry="18"/>
<text text-anchor="middle" x="1263" y="-101.3" font-family="Times,serif" font-size="14.00">मया(12.1)</text>
</g>
<!-- Node15_1 -->
<g id="node10" class="node">
<title>Node15_1</title>
<ellipse fill="#40e0d0" stroke="#40e0d0" cx="1263" cy="-192" rx="59.29" ry="18"/>
<text text-anchor="middle" x="1263" y="-188.3" font-family="Times,serif" font-size="14.00">भवद्भिः(15.1)</text>
</g>
<!-- Node12_1&#45;&gt;Node15_1 -->
<g id="edge11" class="edge">
<title>Node12_1&#45;&gt;Node15_1</title>
<path fill="none" stroke="black" d="M1263,-133.27C1263,-146.58 1263,-162.19 1263,-173.82"/>
<polygon fill="black" stroke="black" points="1266.5,-133.2 1263,-123.2 1259.5,-133.2 1266.5,-133.2"/>
<text text-anchor="middle" x="1285.5" y="-144.8" font-family="Times,serif" font-size="14.00">समुच्चितः</text>
</g>
<!-- Node17_1 -->
<g id="node18" class="node">
<title>Node17_1</title>
<ellipse fill="#00bfff" stroke="#00bfff" cx="1258" cy="-279" rx="55.49" ry="18"/>
<text text-anchor="middle" x="1258" y="-275.3" font-family="Times,serif" font-size="14.00">मान्यः(17.1)</text>
</g>
<!-- Node15_1&#45;&gt;Node17_1 -->
<g id="edge14" class="edge">
<title>Node15_1&#45;&gt;Node17_1</title>
<path fill="none" stroke="black" d="M1261.4,-220.27C1260.61,-233.58 1259.69,-249.19 1259.01,-260.82"/>
<polygon fill="black" stroke="black" points="1264.89,-220.39 1261.99,-210.2 1257.91,-219.98 1264.89,-220.39"/>
<text text-anchor="middle" x="1272" y="-231.8" font-family="Times,serif" font-size="14.00">कर्ता</text>
</g>
<!-- Node18_1 -->
<g id="node11" class="node">
<title>Node18_1</title>
<ellipse fill="#00bfff" stroke="#00bfff" cx="1116" cy="-192" rx="50.09" ry="18"/>
<text text-anchor="middle" x="1116" y="-188.3" font-family="Times,serif" font-size="14.00">एषः(18.1)</text>
</g>
<!-- Node19_1 -->
<g id="node12" class="node">
<title>Node19_1</title>
<ellipse fill="#00bfff" stroke="#00bfff" cx="1116" cy="-279" rx="63.89" ry="18"/>
<text text-anchor="middle" x="1116" y="-275.3" font-family="Times,serif" font-size="14.00">नराधिपः(19.1)</text>
</g>
<!-- Node18_1&#45;&gt;Node19_1 -->
<g id="edge17" class="edge">
<title>Node18_1&#45;&gt;Node19_1</title>
<path fill="none" stroke="black" d="M1116,-220.27C1116,-233.58 1116,-249.19 1116,-260.82"/>
<polygon fill="black" stroke="black" points="1119.5,-220.2 1116,-210.2 1112.5,-220.2 1119.5,-220.2"/>
<text text-anchor="middle" x="1138.5" y="-231.8" font-family="Times,serif" font-size="14.00">विशेषणम्</text>
</g>
<!-- Node19_2 -->
<g id="node20" class="node">
<title>Node19_2</title>
<ellipse fill="#ff1975" stroke="#ff1975" cx="1118" cy="-366" rx="55.79" ry="18"/>
<text text-anchor="middle" x="1118" y="-362.3" font-family="Times,serif" font-size="14.00">अस्ति(19.2)</text>
</g>
<!-- Node19_1&#45;&gt;Node19_2 -->
<g id="edge18" class="edge">
<title>Node19_1&#45;&gt;Node19_2</title>
<path fill="none" stroke="black" d="M1116.64,-307.27C1116.95,-320.58 1117.32,-336.19 1117.6,-347.82"/>
<polygon fill="black" stroke="black" points="1120.14,-307.12 1116.4,-297.2 1113.14,-307.28 1120.14,-307.12"/>
<text text-anchor="middle" x="1129" y="-318.8" font-family="Times,serif" font-size="14.00">कर्ता</text>
</g>
<!-- Node7_1 -->
<g id="node14" class="node">
<title>Node7_1</title>
<ellipse fill="#ff99ff" stroke="#ff99ff" cx="859" cy="-279" rx="44.39" ry="18"/>
<text text-anchor="middle" x="859" y="-275.3" font-family="Times,serif" font-size="14.00">तदा(7.1)</text>
</g>
<!-- Node7_1&#45;&gt;Node5_1 -->
<g id="edge6" class="edge">
<title>Node7_1&#45;&gt;Node5_1</title>
<path fill="none" stroke="black" d="M845.95,-305.8C838.98,-319.58 830.6,-336.14 824.48,-348.24"/>
<polygon fill="black" stroke="black" points="849.11,-307.3 850.5,-296.79 842.87,-304.14 849.11,-307.3"/>
<text text-anchor="middle" x="876.5" y="-318.8" font-family="Times,serif" font-size="14.00">कालाधिकरणम्</text>
</g>
<!-- Node10_1 -->
<g id="node15" class="node">
<title>Node10_1</title>
<ellipse fill="#ff99ff" stroke="#ff99ff" cx="857" cy="-192" rx="43.59" ry="18"/>
<text text-anchor="middle" x="857" y="-188.3" font-family="Times,serif" font-size="14.00">च(10.1)</text>
</g>
<!-- Node10_1&#45;&gt;Node9_1 -->
<g id="edge9" class="edge">
<title>Node10_1&#45;&gt;Node9_1</title>
<path fill="none" stroke="black" d="M827.32,-213.68C805.86,-228.63 777.3,-248.53 757.66,-262.21"/>
<polygon fill="black" stroke="black" points="829.55,-216.39 835.75,-207.81 825.54,-210.65 829.55,-216.39"/>
<text text-anchor="middle" x="839" y="-231.8" font-family="Times,serif" font-size="14.00">समुच्चयद्योतकः</text>
</g>
<!-- Node13_1 -->
<g id="node16" class="node">
<title>Node13_1</title>
<ellipse fill="#ff99ff" stroke="#ff99ff" cx="1382" cy="-105" rx="43.59" ry="18"/>
<text text-anchor="middle" x="1382" y="-101.3" font-family="Times,serif" font-size="14.00">च(13.1)</text>
</g>
<!-- Node13_1&#45;&gt;Node15_1 -->
<g id="edge12" class="edge">
<title>Node13_1&#45;&gt;Node15_1</title>
<path fill="none" stroke="black" d="M1352.77,-126.88C1331.83,-141.83 1304.08,-161.66 1285,-175.29"/>
<polygon fill="black" stroke="black" points="1354.9,-129.66 1361,-121 1350.83,-123.96 1354.9,-129.66"/>
<text text-anchor="middle" x="1368" y="-144.8" font-family="Times,serif" font-size="14.00">समुच्चय_द्योतकः</text>
</g>
<!-- Node14_1 -->
<g id="node17" class="node">
<title>Node14_1</title>
<ellipse fill="#ff99ff" stroke="#ff99ff" cx="1382" cy="-18" rx="47.39" ry="18"/>
<text text-anchor="middle" x="1382" y="-14.3" font-family="Times,serif" font-size="14.00">एव(14.1)</text>
</g>
<!-- Node14_1&#45;&gt;Node13_1 -->
<g id="edge13" class="edge">
<title>Node14_1&#45;&gt;Node13_1</title>
<path fill="none" stroke="black" d="M1382,-46.27C1382,-59.58 1382,-75.19 1382,-86.82"/>
<polygon fill="black" stroke="black" points="1385.5,-46.2 1382,-36.2 1378.5,-46.2 1385.5,-46.2"/>
<text text-anchor="middle" x="1400.5" y="-57.8" font-family="Times,serif" font-size="14.00">सम्बन्धः</text>
</g>
<!-- Node17_1&#45;&gt;Node19_2 -->
<g id="edge16" class="edge">
<title>Node17_1&#45;&gt;Node19_2</title>
<path fill="none" stroke="black" d="M1224.21,-300.52C1199.29,-315.65 1165.92,-335.91 1143.28,-349.65"/>
<polygon fill="black" stroke="black" points="1226.24,-303.38 1232.97,-295.2 1222.61,-297.39 1226.24,-303.38"/>
<text text-anchor="middle" x="1232.5" y="-318.8" font-family="Times,serif" font-size="14.00">विधेयविशेषणम्</text>
</g>
<!-- Node16_1 -->
<g id="node19" class="node">
<title>Node16_1</title>
<ellipse fill="#ff99ff" stroke="#ff99ff" cx="1116" cy="-105" rx="43.59" ry="18"/>
<text text-anchor="middle" x="1116" y="-101.3" font-family="Times,serif" font-size="14.00">च(16.1)</text>
</g>
<!-- Node16_1&#45;&gt;Node18_1 -->
<g id="edge15" class="edge">
<title>Node16_1&#45;&gt;Node18_1</title>
<path fill="none" stroke="black" d="M1116,-133.27C1116,-146.58 1116,-162.19 1116,-173.82"/>
<polygon fill="black" stroke="black" points="1119.5,-133.2 1116,-123.2 1112.5,-133.2 1119.5,-133.2"/>
<text text-anchor="middle" x="1134.5" y="-144.8" font-family="Times,serif" font-size="14.00">सम्बन्धः</text>
</g>
<!-- Node19_3 -->
<g id="node21" class="node">
<title>Node19_3</title>
<ellipse fill="lightgrey" stroke="black" cx="975" cy="-279" rx="50.09" ry="18"/>
<text text-anchor="middle" x="975" y="-275.3" font-family="Times,serif" font-size="14.00">इति(19.3)</text>
</g>
<!-- Node19_3&#45;&gt;Node5_1 -->
<g id="edge20" class="edge">
<title>Node19_3&#45;&gt;Node5_1</title>
<path fill="none" stroke="black" stroke-dasharray="1,5" d="M951.82,-303.09C941.51,-312.41 928.81,-322.67 916,-330 897,-340.87 874.06,-349.2 854.94,-355"/>
<polygon fill="black" stroke="black" points="954.27,-305.59 959.2,-296.21 949.5,-300.47 954.27,-305.59"/>
<text text-anchor="middle" x="960" y="-318.8" font-family="Times,serif" font-size="14.00">गौण_कर्म</text>
</g>
<!-- Node19_3&#45;&gt;Node19_2 -->
<g id="edge19" class="edge">
<title>Node19_3&#45;&gt;Node19_2</title>
<path fill="none" stroke="black" d="M1000.04,-302.77C1010.9,-311.96 1024.08,-322.2 1037,-330 1051.16,-338.55 1067.79,-346.12 1082.29,-352.01"/>
<polygon fill="black" stroke="black" points="1002.08,-299.91 992.22,-296.02 997.5,-305.21 1002.08,-299.91"/>
<text text-anchor="middle" x="1075" y="-318.8" font-family="Times,serif" font-size="14.00">वाक्यकर्मबोधकः</text>
</g>
</g>
</svg>
