<?xml version="1.0" encoding="UTF-8" standalone="no"?>
<!DOCTYPE svg PUBLIC "-//W3C//DTD SVG 1.1//EN"
 "http://www.w3.org/Graphics/SVG/1.1/DTD/svg11.dtd">
<!-- Generated by graphviz version 2.43.0 (0)
 -->
<!-- Title: G Pages: 1 -->
<svg width="701pt" height="305pt"
 viewBox="0.00 0.00 701.00 305.00" xmlns="http://www.w3.org/2000/svg" xmlns:xlink="http://www.w3.org/1999/xlink">
<g id="graph0" class="graph" transform="scale(1 1) rotate(0) translate(4 301)">
<title>G</title>
<polygon fill="#fffacd" stroke="transparent" points="-4,4 -4,-301 697,-301 697,4 -4,4"/>
<g id="clust1" class="cluster">
<title>cluster_1</title>
<polygon fill="#fffacd" stroke="black" points="389,-79 389,-218 623,-218 623,-79 389,-79"/>
</g>
<g id="clust2" class="cluster">
<title>cluster_2</title>
<polygon fill="#fffacd" stroke="black" points="8,-79 8,-218 138,-218 138,-79 8,-79"/>
</g>
<!-- Node2_2 -->
<g id="node1" class="node">
<title>Node2_2</title>
<ellipse fill="#c6e2eb" stroke="#c6e2eb" cx="563" cy="-105" rx="51.99" ry="18"/>
<text text-anchor="middle" x="563" y="-101.3" font-family="Times,serif" font-size="14.00">कर्मणि(2.2)</text>
</g>
<!-- Node5 -->
<g id="node2" class="node">
<title>Node5</title>
<ellipse fill="#c6e2eb" stroke="#c6e2eb" cx="445" cy="-192" rx="42.49" ry="18"/>
<text text-anchor="middle" x="445" y="-188.3" font-family="Times,serif" font-size="14.00">अहःसु(5)</text>
</g>
<!-- Node2_2&#45;&gt;Node5 -->
<g id="edge3" class="edge">
<title>Node2_2&#45;&gt;Node5</title>
<path fill="none" stroke="black" d="M533.15,-127.7C521.02,-136.5 506.85,-146.75 494,-156 484.83,-162.59 474.68,-169.85 466.01,-176.04"/>
<polygon fill="black" stroke="black" points="535.54,-130.28 541.58,-121.58 531.43,-124.62 535.54,-130.28"/>
<text text-anchor="middle" x="535.5" y="-144.8" font-family="Times,serif" font-size="14.00">समुच्चितः</text>
</g>
<!-- Node11 -->
<g id="node9" class="node">
<title>Node11</title>
<ellipse fill="#ff1975" stroke="#ff1975" cx="248" cy="-279" rx="45.49" ry="18"/>
<text text-anchor="middle" x="248" y="-275.3" font-family="Times,serif" font-size="14.00">ददातु(11)</text>
</g>
<!-- Node5&#45;&gt;Node11 -->
<g id="edge6" class="edge">
<title>Node5&#45;&gt;Node11</title>
<path fill="none" stroke="black" d="M408.25,-210.19C386.96,-220.03 359.58,-232.47 335,-243 316.59,-250.88 295.79,-259.27 279.14,-265.86"/>
<polygon fill="black" stroke="black" points="409.97,-213.25 417.57,-205.87 407.03,-206.9 409.97,-213.25"/>
<text text-anchor="middle" x="404.5" y="-231.8" font-family="Times,serif" font-size="14.00">कालाधिकरणम्</text>
</g>
<!-- Node3 -->
<g id="node3" class="node">
<title>Node3</title>
<ellipse fill="#c6e2eb" stroke="#c6e2eb" cx="445" cy="-105" rx="48.19" ry="18"/>
<text text-anchor="middle" x="445" y="-101.3" font-family="Times,serif" font-size="14.00">परिदृष्टेषु(3)</text>
</g>
<!-- Node3&#45;&gt;Node5 -->
<g id="edge4" class="edge">
<title>Node3&#45;&gt;Node5</title>
<path fill="none" stroke="black" d="M445,-133.27C445,-146.58 445,-162.19 445,-173.82"/>
<polygon fill="black" stroke="black" points="448.5,-133.2 445,-123.2 441.5,-133.2 448.5,-133.2"/>
<text text-anchor="middle" x="467.5" y="-144.8" font-family="Times,serif" font-size="14.00">विशेषणम्</text>
</g>
<!-- Node6 -->
<g id="node4" class="node">
<title>Node6</title>
<ellipse fill="#00bfff" stroke="#00bfff" cx="73" cy="-105" rx="40.09" ry="18"/>
<text text-anchor="middle" x="73" y="-101.3" font-family="Times,serif" font-size="14.00">यावत्(6)</text>
</g>
<!-- Node8 -->
<g id="node5" class="node">
<title>Node8</title>
<ellipse fill="#00bfff" stroke="#00bfff" cx="73" cy="-192" rx="57.39" ry="18"/>
<text text-anchor="middle" x="73" y="-188.3" font-family="Times,serif" font-size="14.00">चिकीर्षितम्(8)</text>
</g>
<!-- Node6&#45;&gt;Node8 -->
<g id="edge7" class="edge">
<title>Node6&#45;&gt;Node8</title>
<path fill="none" stroke="black" d="M73,-133.27C73,-146.58 73,-162.19 73,-173.82"/>
<polygon fill="black" stroke="black" points="76.5,-133.2 73,-123.2 69.5,-133.2 76.5,-133.2"/>
<text text-anchor="middle" x="95.5" y="-144.8" font-family="Times,serif" font-size="14.00">विशेषणम्</text>
</g>
<!-- Node8&#45;&gt;Node11 -->
<g id="edge9" class="edge">
<title>Node8&#45;&gt;Node11</title>
<path fill="none" stroke="black" d="M112.02,-211.95C144.96,-227.95 191.3,-250.46 220.48,-264.63"/>
<polygon fill="black" stroke="black" points="113.21,-208.64 102.69,-207.42 110.15,-214.94 113.21,-208.64"/>
<text text-anchor="middle" x="180" y="-231.8" font-family="Times,serif" font-size="14.00">कर्म</text>
</g>
<!-- Node1 -->
<g id="node6" class="node">
<title>Node1</title>
<ellipse fill="#87ceeb" stroke="#87ceeb" cx="446" cy="-18" rx="50.09" ry="18"/>
<text text-anchor="middle" x="446" y="-14.3" font-family="Times,serif" font-size="14.00">पुत्राणाम्(1)</text>
</g>
<!-- Node1&#45;&gt;Node2_2 -->
<g id="edge1" class="edge">
<title>Node1&#45;&gt;Node2_2</title>
<path fill="none" stroke="black" d="M470.69,-41.97C480.71,-50.84 492.59,-60.79 504,-69 514.15,-76.3 525.9,-83.5 536.23,-89.45"/>
<polygon fill="black" stroke="black" points="472.89,-39.24 463.11,-35.16 468.21,-44.44 472.89,-39.24"/>
<text text-anchor="middle" x="531.5" y="-57.8" font-family="Times,serif" font-size="14.00">षष्ठीसम्बन्धः</text>
</g>
<!-- Node2_1 -->
<g id="node7" class="node">
<title>Node2_1</title>
<ellipse fill="#ffff00" stroke="#ffff00" cx="563" cy="-18" rx="48.99" ry="18"/>
<text text-anchor="middle" x="563" y="-14.3" font-family="Times,serif" font-size="14.00">श्राद्ध&#45;(2.1)</text>
</g>
<!-- Node2_1&#45;&gt;Node2_2 -->
<g id="edge2" class="edge">
<title>Node2_1&#45;&gt;Node2_2</title>
<path fill="none" stroke="black" d="M563,-46.27C563,-59.58 563,-75.19 563,-86.82"/>
<polygon fill="black" stroke="black" points="566.5,-46.2 563,-36.2 559.5,-46.2 566.5,-46.2"/>
<text text-anchor="middle" x="572.5" y="-57.8" font-family="Times,serif" font-size="14.00">T6</text>
</g>
<!-- Node4 -->
<g id="node8" class="node">
<title>Node4</title>
<ellipse fill="#ff99ff" stroke="#ff99ff" cx="658" cy="-18" rx="28.7" ry="18"/>
<text text-anchor="middle" x="658" y="-14.3" font-family="Times,serif" font-size="14.00">च(4)</text>
</g>
<!-- Node4&#45;&gt;Node2_2 -->
<g id="edge5" class="edge">
<title>Node4&#45;&gt;Node2_2</title>
<path fill="none" stroke="black" d="M634.22,-40.28C617.65,-55.1 595.9,-74.57 580.81,-88.06"/>
<polygon fill="black" stroke="black" points="636.77,-42.7 641.88,-33.42 632.1,-37.48 636.77,-42.7"/>
<text text-anchor="middle" x="655" y="-57.8" font-family="Times,serif" font-size="14.00">समुच्चय_द्योतकः</text>
</g>
<!-- Node7 -->
<g id="node10" class="node">
<title>Node7</title>
<ellipse fill="#87ceeb" stroke="#87ceeb" cx="184" cy="-105" rx="38.19" ry="18"/>
<text text-anchor="middle" x="184" y="-101.3" font-family="Times,serif" font-size="14.00">अस्य(7)</text>
</g>
<!-- Node7&#45;&gt;Node8 -->
<g id="edge8" class="edge">
<title>Node7&#45;&gt;Node8</title>
<path fill="none" stroke="black" d="M158.07,-127.47C147.07,-136.43 134.02,-146.87 122,-156 113.51,-162.45 104,-169.31 95.64,-175.24"/>
<polygon fill="black" stroke="black" points="160.52,-129.98 166.04,-120.94 156.09,-124.57 160.52,-129.98"/>
<text text-anchor="middle" x="169.5" y="-144.8" font-family="Times,serif" font-size="14.00">षष्ठीसम्बन्धः</text>
</g>
<!-- Node9 -->
<g id="node11" class="node">
<title>Node9</title>
<ellipse fill="#00bfff" stroke="#00bfff" cx="186" cy="-192" rx="37.89" ry="18"/>
<text text-anchor="middle" x="186" y="-188.3" font-family="Times,serif" font-size="14.00">राजा(9)</text>
</g>
<!-- Node9&#45;&gt;Node11 -->
<g id="edge10" class="edge">
<title>Node9&#45;&gt;Node11</title>
<path fill="none" stroke="black" d="M203.98,-217.65C214.23,-231.7 226.79,-248.92 235.87,-261.37"/>
<polygon fill="black" stroke="black" points="206.67,-215.41 197.95,-209.39 201.02,-219.53 206.67,-215.41"/>
<text text-anchor="middle" x="232" y="-231.8" font-family="Times,serif" font-size="14.00">कर्ता</text>
</g>
<!-- Node10 -->
<g id="node12" class="node">
<title>Node10</title>
<ellipse fill="#00bfff" stroke="#00bfff" cx="311" cy="-192" rx="69.59" ry="18"/>
<text text-anchor="middle" x="311" y="-188.3" font-family="Times,serif" font-size="14.00">सर्वेषाम्(कृते)(10)</text>
</g>
<!-- Node10&#45;&gt;Node11 -->
<g id="edge11" class="edge">
<title>Node10&#45;&gt;Node11</title>
<path fill="none" stroke="black" d="M292.42,-218.06C282.02,-232.09 269.35,-249.19 260.21,-261.53"/>
<polygon fill="black" stroke="black" points="295.41,-219.91 298.55,-209.79 289.79,-215.74 295.41,-219.91"/>
<text text-anchor="middle" x="307.5" y="-231.8" font-family="Times,serif" font-size="14.00">सम्प्रदानम्</text>
</g>
</g>
</svg>
