<?xml version="1.0" encoding="UTF-8" standalone="no"?>
<!DOCTYPE svg PUBLIC "-//W3C//DTD SVG 1.1//EN"
 "http://www.w3.org/Graphics/SVG/1.1/DTD/svg11.dtd">
<!-- Generated by graphviz version 2.43.0 (0)
 -->
<!-- Title: G Pages: 1 -->
<svg width="315pt" height="479pt"
 viewBox="0.00 0.00 315.00 479.00" xmlns="http://www.w3.org/2000/svg" xmlns:xlink="http://www.w3.org/1999/xlink">
<g id="graph0" class="graph" transform="scale(1 1) rotate(0) translate(4 475)">
<title>G</title>
<polygon fill="#fffacd" stroke="transparent" points="-4,4 -4,-475 311,-475 311,4 -4,4"/>
<g id="clust1" class="cluster">
<title>cluster_1</title>
<polygon fill="#fffacd" stroke="black" points="8,-253 8,-392 122,-392 122,-253 8,-253"/>
</g>
<g id="clust2" class="cluster">
<title>cluster_2</title>
<polygon fill="#fffacd" stroke="black" points="115,-79 115,-218 219,-218 219,-79 115,-79"/>
</g>
<!-- Node1 -->
<g id="node1" class="node">
<title>Node1</title>
<ellipse fill="#00bfff" stroke="#00bfff" cx="65" cy="-279" rx="36" ry="18"/>
<text text-anchor="middle" x="65" y="-275.3" font-family="Times,serif" font-size="14.00">एषः(1)</text>
</g>
<!-- Node2 -->
<g id="node2" class="node">
<title>Node2</title>
<ellipse fill="#00bfff" stroke="#00bfff" cx="65" cy="-366" rx="49.29" ry="18"/>
<text text-anchor="middle" x="65" y="-362.3" font-family="Times,serif" font-size="14.00">नराधिपः(2)</text>
</g>
<!-- Node1&#45;&gt;Node2 -->
<g id="edge1" class="edge">
<title>Node1&#45;&gt;Node2</title>
<path fill="none" stroke="black" d="M65,-307.27C65,-320.58 65,-336.19 65,-347.82"/>
<polygon fill="black" stroke="black" points="68.5,-307.2 65,-297.2 61.5,-307.2 68.5,-307.2"/>
<text text-anchor="middle" x="87.5" y="-318.8" font-family="Times,serif" font-size="14.00">विशेषणम्</text>
</g>
<!-- Node9 -->
<g id="node5" class="node">
<title>Node9</title>
<ellipse fill="#ff1975" stroke="#ff1975" cx="65" cy="-453" rx="48.19" ry="18"/>
<text text-anchor="middle" x="65" y="-449.3" font-family="Times,serif" font-size="14.00">(अस्ति)(9)</text>
</g>
<!-- Node2&#45;&gt;Node9 -->
<g id="edge2" class="edge">
<title>Node2&#45;&gt;Node9</title>
<path fill="none" stroke="black" d="M65,-394.27C65,-407.58 65,-423.19 65,-434.82"/>
<polygon fill="black" stroke="black" points="68.5,-394.2 65,-384.2 61.5,-394.2 68.5,-394.2"/>
<text text-anchor="middle" x="76" y="-405.8" font-family="Times,serif" font-size="14.00">कर्ता</text>
</g>
<!-- Node6 -->
<g id="node3" class="node">
<title>Node6</title>
<ellipse fill="#40e0d0" stroke="#40e0d0" cx="167" cy="-105" rx="44.39" ry="18"/>
<text text-anchor="middle" x="167" y="-101.3" font-family="Times,serif" font-size="14.00">भवद्भिः(6)</text>
</g>
<!-- Node3 -->
<g id="node4" class="node">
<title>Node3</title>
<ellipse fill="#40e0d0" stroke="#40e0d0" cx="170" cy="-192" rx="36" ry="18"/>
<text text-anchor="middle" x="170" y="-188.3" font-family="Times,serif" font-size="14.00">मया(3)</text>
</g>
<!-- Node6&#45;&gt;Node3 -->
<g id="edge6" class="edge">
<title>Node6&#45;&gt;Node3</title>
<path fill="none" stroke="black" d="M167.96,-133.27C168.43,-146.58 168.98,-162.19 169.39,-173.82"/>
<polygon fill="black" stroke="black" points="171.46,-133.07 167.61,-123.2 164.46,-133.32 171.46,-133.07"/>
<text text-anchor="middle" x="191.5" y="-144.8" font-family="Times,serif" font-size="14.00">समुच्चितः</text>
</g>
<!-- Node8 -->
<g id="node6" class="node">
<title>Node8</title>
<ellipse fill="#00bfff" stroke="#00bfff" cx="170" cy="-279" rx="40.09" ry="18"/>
<text text-anchor="middle" x="170" y="-275.3" font-family="Times,serif" font-size="14.00">मान्यः(8)</text>
</g>
<!-- Node3&#45;&gt;Node8 -->
<g id="edge3" class="edge">
<title>Node3&#45;&gt;Node8</title>
<path fill="none" stroke="black" d="M170,-220.27C170,-233.58 170,-249.19 170,-260.82"/>
<polygon fill="black" stroke="black" points="173.5,-220.2 170,-210.2 166.5,-220.2 173.5,-220.2"/>
<text text-anchor="middle" x="181" y="-231.8" font-family="Times,serif" font-size="14.00">कर्ता</text>
</g>
<!-- Node8&#45;&gt;Node2 -->
<g id="edge8" class="edge">
<title>Node8&#45;&gt;Node2</title>
<path fill="none" stroke="black" d="M145.6,-302.82C135.96,-311.56 124.66,-321.48 114,-330 105.51,-336.79 95.83,-343.84 87.33,-349.82"/>
<polygon fill="black" stroke="black" points="148.25,-305.15 153.26,-295.81 143.52,-299.98 148.25,-305.15"/>
<text text-anchor="middle" x="171" y="-318.8" font-family="Times,serif" font-size="14.00">विधेय_विशेषणम्</text>
</g>
<!-- Node4 -->
<g id="node7" class="node">
<title>Node4</title>
<ellipse fill="#ff99ff" stroke="#ff99ff" cx="258" cy="-105" rx="28.7" ry="18"/>
<text text-anchor="middle" x="258" y="-101.3" font-family="Times,serif" font-size="14.00">च(4)</text>
</g>
<!-- Node4&#45;&gt;Node3 -->
<g id="edge4" class="edge">
<title>Node4&#45;&gt;Node3</title>
<path fill="none" stroke="black" d="M240.89,-130C234.21,-138.63 226.19,-148.16 218,-156 209.95,-163.7 200.15,-171.13 191.51,-177.15"/>
<polygon fill="black" stroke="black" points="243.86,-131.87 247.08,-121.77 238.27,-127.66 243.86,-131.87"/>
<text text-anchor="middle" x="269" y="-144.8" font-family="Times,serif" font-size="14.00">समुच्चय_द्योतकः</text>
</g>
<!-- Node5 -->
<g id="node8" class="node">
<title>Node5</title>
<ellipse fill="#ff99ff" stroke="#ff99ff" cx="258" cy="-18" rx="32.49" ry="18"/>
<text text-anchor="middle" x="258" y="-14.3" font-family="Times,serif" font-size="14.00">एव(5)</text>
</g>
<!-- Node5&#45;&gt;Node4 -->
<g id="edge5" class="edge">
<title>Node5&#45;&gt;Node4</title>
<path fill="none" stroke="black" d="M258,-46.27C258,-59.58 258,-75.19 258,-86.82"/>
<polygon fill="black" stroke="black" points="261.5,-46.2 258,-36.2 254.5,-46.2 261.5,-46.2"/>
<text text-anchor="middle" x="276.5" y="-57.8" font-family="Times,serif" font-size="14.00">सम्बन्धः</text>
</g>
<!-- Node7 -->
<g id="node9" class="node">
<title>Node7</title>
<ellipse fill="#ff99ff" stroke="#ff99ff" cx="167" cy="-18" rx="28.7" ry="18"/>
<text text-anchor="middle" x="167" y="-14.3" font-family="Times,serif" font-size="14.00">च(7)</text>
</g>
<!-- Node7&#45;&gt;Node6 -->
<g id="edge7" class="edge">
<title>Node7&#45;&gt;Node6</title>
<path fill="none" stroke="black" d="M167,-46.27C167,-59.58 167,-75.19 167,-86.82"/>
<polygon fill="black" stroke="black" points="170.5,-46.2 167,-36.2 163.5,-46.2 170.5,-46.2"/>
<text text-anchor="middle" x="185.5" y="-57.8" font-family="Times,serif" font-size="14.00">सम्बन्धः</text>
</g>
</g>
</svg>
