<?xml version="1.0" encoding="UTF-8" standalone="no"?>
<!DOCTYPE svg PUBLIC "-//W3C//DTD SVG 1.1//EN"
 "http://www.w3.org/Graphics/SVG/1.1/DTD/svg11.dtd">
<!-- Generated by graphviz version 2.43.0 (0)
 -->
<!-- Title: G Pages: 1 -->
<svg width="506pt" height="392pt"
 viewBox="0.00 0.00 506.25 392.00" xmlns="http://www.w3.org/2000/svg" xmlns:xlink="http://www.w3.org/1999/xlink">
<g id="graph0" class="graph" transform="scale(1 1) rotate(0) translate(4 388)">
<title>G</title>
<polygon fill="#fffacd" stroke="transparent" points="-4,4 -4,-388 502.25,-388 502.25,4 -4,4"/>
<g id="clust1" class="cluster">
<title>cluster_1</title>
<polygon fill="#fffacd" stroke="black" points="8,-79 8,-218 132,-218 132,-79 8,-79"/>
</g>
<!-- Node3_1 -->
<g id="node1" class="node">
<title>Node3_1</title>
<ellipse fill="#40e0d0" stroke="#40e0d0" cx="70" cy="-105" rx="53.89" ry="18"/>
<text text-anchor="middle" x="70" y="-101.3" font-family="Times,serif" font-size="14.00">विविधैः(3.1)</text>
</g>
<!-- Node4_2 -->
<g id="node2" class="node">
<title>Node4_2</title>
<ellipse fill="#40e0d0" stroke="#40e0d0" cx="70" cy="-192" rx="53.89" ry="18"/>
<text text-anchor="middle" x="70" y="-188.3" font-family="Times,serif" font-size="14.00">कर्मभिः(4.2)</text>
</g>
<!-- Node3_1&#45;&gt;Node4_2 -->
<g id="edge3" class="edge">
<title>Node3_1&#45;&gt;Node4_2</title>
<path fill="none" stroke="black" d="M70,-133.27C70,-146.58 70,-162.19 70,-173.82"/>
<polygon fill="black" stroke="black" points="73.5,-133.2 70,-123.2 66.5,-133.2 73.5,-133.2"/>
<text text-anchor="middle" x="92.5" y="-144.8" font-family="Times,serif" font-size="14.00">विशेषणम्</text>
</g>
<!-- Node10_1 -->
<g id="node7" class="node">
<title>Node10_1</title>
<ellipse fill="#93db70" stroke="#93db70" cx="70" cy="-279" rx="64.99" ry="18"/>
<text text-anchor="middle" x="70" y="-275.3" font-family="Times,serif" font-size="14.00">आनृण्यम्(10.1)</text>
</g>
<!-- Node4_2&#45;&gt;Node10_1 -->
<g id="edge5" class="edge">
<title>Node4_2&#45;&gt;Node10_1</title>
<path fill="none" stroke="black" d="M70,-220.27C70,-233.58 70,-249.19 70,-260.82"/>
<polygon fill="black" stroke="black" points="73.5,-220.2 70,-210.2 66.5,-220.2 73.5,-220.2"/>
<text text-anchor="middle" x="79.5" y="-231.8" font-family="Times,serif" font-size="14.00">हेतुः</text>
</g>
<!-- Node1_1 -->
<g id="node3" class="node">
<title>Node1_1</title>
<ellipse fill="#00bfff" stroke="#00bfff" cx="209" cy="-279" rx="55.79" ry="18"/>
<text text-anchor="middle" x="209" y="-275.3" font-family="Times,serif" font-size="14.00">गान्धारी(1.1)</text>
</g>
<!-- Node11_1 -->
<g id="node4" class="node">
<title>Node11_1</title>
<ellipse fill="#ff1975" stroke="#ff1975" cx="253" cy="-366" rx="59.29" ry="18"/>
<text text-anchor="middle" x="253" y="-362.3" font-family="Times,serif" font-size="14.00">अगमत्(11.1)</text>
</g>
<!-- Node1_1&#45;&gt;Node11_1 -->
<g id="edge1" class="edge">
<title>Node1_1&#45;&gt;Node11_1</title>
<path fill="none" stroke="black" d="M222.32,-305.74C229.4,-319.42 237.92,-335.86 244.17,-347.95"/>
<polygon fill="black" stroke="black" points="225.4,-304.06 217.69,-296.79 219.18,-307.28 225.4,-304.06"/>
<text text-anchor="middle" x="245" y="-318.8" font-family="Times,serif" font-size="14.00">कर्ता</text>
</g>
<!-- Node2_1 -->
<g id="node5" class="node">
<title>Node2_1</title>
<ellipse fill="#87ceeb" stroke="#87ceeb" cx="196" cy="-105" rx="53.89" ry="18"/>
<text text-anchor="middle" x="196" y="-101.3" font-family="Times,serif" font-size="14.00">पुत्राणां(2.1)</text>
</g>
<!-- Node2_1&#45;&gt;Node4_2 -->
<g id="edge2" class="edge">
<title>Node2_1&#45;&gt;Node4_2</title>
<path fill="none" stroke="black" d="M164.75,-127.08C142.53,-142.07 113.19,-161.87 93.07,-175.43"/>
<polygon fill="black" stroke="black" points="166.85,-129.89 173.18,-121.39 162.93,-124.08 166.85,-129.89"/>
<text text-anchor="middle" x="168.5" y="-144.8" font-family="Times,serif" font-size="14.00">षष्ठीसम्बन्धः</text>
</g>
<!-- Node4_1 -->
<g id="node6" class="node">
<title>Node4_1</title>
<ellipse fill="#ffff00" stroke="#ffff00" cx="317" cy="-105" rx="48.99" ry="18"/>
<text text-anchor="middle" x="317" y="-101.3" font-family="Times,serif" font-size="14.00">श्राद्ध&#45;(4.1)</text>
</g>
<!-- Node4_1&#45;&gt;Node4_2 -->
<g id="edge4" class="edge">
<title>Node4_1&#45;&gt;Node4_2</title>
<path fill="none" stroke="black" d="M278.87,-123.91C256.25,-134.12 226.85,-146.7 200,-156 171.4,-165.91 138.47,-174.75 112.91,-181.06"/>
<polygon fill="black" stroke="black" points="280.47,-127.03 288.12,-119.69 277.57,-120.66 280.47,-127.03"/>
<text text-anchor="middle" x="249.5" y="-144.8" font-family="Times,serif" font-size="14.00">T6</text>
</g>
<!-- Node10_1&#45;&gt;Node11_1 -->
<g id="edge11" class="edge">
<title>Node10_1&#45;&gt;Node11_1</title>
<path fill="none" stroke="black" d="M110.99,-299.04C144.64,-314.67 191.55,-336.46 222.1,-350.65"/>
<polygon fill="black" stroke="black" points="112.42,-295.84 101.88,-294.81 109.47,-302.19 112.42,-295.84"/>
<text text-anchor="middle" x="182" y="-318.8" font-family="Times,serif" font-size="14.00">कर्म</text>
</g>
<!-- Node5_1 -->
<g id="node8" class="node">
<title>Node5_1</title>
<ellipse fill="#ff99ff" stroke="#ff99ff" cx="421" cy="-105" rx="37.89" ry="18"/>
<text text-anchor="middle" x="421" y="-101.3" font-family="Times,serif" font-size="14.00">च(5.1)</text>
</g>
<!-- Node5_1&#45;&gt;Node4_2 -->
<g id="edge6" class="edge">
<title>Node5_1&#45;&gt;Node4_2</title>
<path fill="none" stroke="black" d="M382.85,-120.32C380.2,-121.25 377.56,-122.15 375,-123 325.75,-139.34 313.49,-144.02 263,-156 214.13,-167.6 157.5,-177.45 118.28,-183.72"/>
<polygon fill="black" stroke="black" points="384.16,-123.57 392.4,-116.91 381.8,-116.98 384.16,-123.57"/>
<text text-anchor="middle" x="338.5" y="-144.8" font-family="Times,serif" font-size="14.00">सम्बन्धः</text>
</g>
<!-- Node6_1 -->
<g id="node9" class="node">
<title>Node6_1</title>
<ellipse fill="#ff99ff" stroke="#ff99ff" cx="421" cy="-18" rx="41.69" ry="18"/>
<text text-anchor="middle" x="421" y="-14.3" font-family="Times,serif" font-size="14.00">एव(6.1)</text>
</g>
<!-- Node6_1&#45;&gt;Node5_1 -->
<g id="edge7" class="edge">
<title>Node6_1&#45;&gt;Node5_1</title>
<path fill="none" stroke="black" d="M421,-46.27C421,-59.58 421,-75.19 421,-86.82"/>
<polygon fill="black" stroke="black" points="424.5,-46.2 421,-36.2 417.5,-46.2 424.5,-46.2"/>
<text text-anchor="middle" x="439.5" y="-57.8" font-family="Times,serif" font-size="14.00">सम्बन्धः</text>
</g>
<!-- Node7_1 -->
<g id="node10" class="node">
<title>Node7_1</title>
<ellipse fill="#b0e2ff" stroke="#b0e2ff" cx="275" cy="-192" rx="55.49" ry="18"/>
<text text-anchor="middle" x="275" y="-188.3" font-family="Times,serif" font-size="14.00">विप्रेभ्यः(7.1)</text>
</g>
<!-- Node9_1 -->
<g id="node11" class="node">
<title>Node9_1</title>
<ellipse fill="#ff1975" stroke="#ff1975" cx="339" cy="-279" rx="56.59" ry="18"/>
<text text-anchor="middle" x="339" y="-275.3" font-family="Times,serif" font-size="14.00">प्रतिपाद्य(9.1)</text>
</g>
<!-- Node7_1&#45;&gt;Node9_1 -->
<g id="edge8" class="edge">
<title>Node7_1&#45;&gt;Node9_1</title>
<path fill="none" stroke="black" d="M293.83,-218.01C304.32,-231.94 317.1,-248.91 326.38,-261.24"/>
<polygon fill="black" stroke="black" points="296.46,-215.68 287.64,-209.79 290.86,-219.89 296.46,-215.68"/>
<text text-anchor="middle" x="334.5" y="-231.8" font-family="Times,serif" font-size="14.00">सम्प्रदानम्</text>
</g>
<!-- Node9_1&#45;&gt;Node11_1 -->
<g id="edge10" class="edge">
<title>Node9_1&#45;&gt;Node11_1</title>
<path fill="none" stroke="black" d="M315.21,-303.52C300.69,-317.87 282.49,-335.86 269.53,-348.66"/>
<polygon fill="black" stroke="black" points="317.77,-305.91 322.42,-296.39 312.85,-300.93 317.77,-305.91"/>
<text text-anchor="middle" x="322.5" y="-318.8" font-family="Times,serif" font-size="14.00">पूर्वकालः</text>
</g>
<!-- Node8_1 -->
<g id="node12" class="node">
<title>Node8_1</title>
<ellipse fill="#93db70" stroke="#93db70" cx="402" cy="-192" rx="53.09" ry="18"/>
<text text-anchor="middle" x="402" y="-188.3" font-family="Times,serif" font-size="14.00">कामान्(8.1)</text>
</g>
<!-- Node8_1&#45;&gt;Node9_1 -->
<g id="edge9" class="edge">
<title>Node8_1&#45;&gt;Node9_1</title>
<path fill="none" stroke="black" d="M383.47,-218.01C373.14,-231.94 360.56,-248.91 351.42,-261.24"/>
<polygon fill="black" stroke="black" points="386.41,-219.91 389.55,-209.79 380.79,-215.74 386.41,-219.91"/>
<text text-anchor="middle" x="384" y="-231.8" font-family="Times,serif" font-size="14.00">कर्म</text>
</g>
<!-- Node12_1 -->
<g id="node13" class="node">
<title>Node12_1</title>
<ellipse fill="#ff99ff" stroke="#ff99ff" cx="456" cy="-279" rx="42.49" ry="18"/>
<text text-anchor="middle" x="456" y="-275.3" font-family="Times,serif" font-size="14.00">वै(12.1)</text>
</g>
<!-- Node12_1&#45;&gt;Node11_1 -->
<g id="edge12" class="edge">
<title>Node12_1&#45;&gt;Node11_1</title>
<path fill="none" stroke="black" d="M419.7,-297.46C398.64,-307.39 371.51,-319.83 347,-330 328.5,-337.67 307.65,-345.52 290.3,-351.83"/>
<polygon fill="black" stroke="black" points="421.38,-300.54 428.92,-293.1 418.38,-294.21 421.38,-300.54"/>
<text text-anchor="middle" x="399.5" y="-318.8" font-family="Times,serif" font-size="14.00">सम्बन्धः</text>
</g>
</g>
</svg>
