<?xml version="1.0" encoding="UTF-8" standalone="no"?>
<!DOCTYPE svg PUBLIC "-//W3C//DTD SVG 1.1//EN"
 "http://www.w3.org/Graphics/SVG/1.1/DTD/svg11.dtd">
<!-- Generated by graphviz version 2.43.0 (0)
 -->
<!-- Title: G Pages: 1 -->
<svg width="1425pt" height="479pt"
 viewBox="0.00 0.00 1425.45 479.00" xmlns="http://www.w3.org/2000/svg" xmlns:xlink="http://www.w3.org/1999/xlink">
<g id="graph0" class="graph" transform="scale(1 1) rotate(0) translate(4 475)">
<title>G</title>
<polygon fill="#fffacd" stroke="transparent" points="-4,4 -4,-475 1421.45,-475 1421.45,4 -4,4"/>
<g id="clust1" class="cluster">
<title>cluster_1</title>
<polygon fill="#fffacd" stroke="black" points="8,-253 8,-392 657,-392 657,-253 8,-253"/>
</g>
<g id="clust2" class="cluster">
<title>cluster_2</title>
<polygon fill="#fffacd" stroke="black" points="665,-253 665,-392 805,-392 805,-253 665,-253"/>
</g>
<g id="clust3" class="cluster">
<title>cluster_3</title>
<polygon fill="#fffacd" stroke="black" points="1184,-79 1184,-218 1318,-218 1318,-79 1184,-79"/>
</g>
<g id="clust4" class="cluster">
<title>cluster_4</title>
<polygon fill="#fffacd" stroke="black" points="1044,-253 1044,-392 1188,-392 1188,-253 1044,-253"/>
</g>
<!-- Node1_1 -->
<g id="node1" class="node">
<title>Node1_1</title>
<ellipse fill="#00bfff" stroke="#00bfff" cx="578" cy="-279" rx="70.69" ry="18"/>
<text text-anchor="middle" x="578" y="-275.3" font-family="Times,serif" font-size="14.00">आनृशंस्यपरः(1.1)</text>
</g>
<!-- Node4_1 -->
<g id="node2" class="node">
<title>Node4_1</title>
<ellipse fill="#00bfff" stroke="#00bfff" cx="380" cy="-366" rx="57.69" ry="18"/>
<text text-anchor="middle" x="380" y="-362.3" font-family="Times,serif" font-size="14.00">युधिष्ठिरः(4.1)</text>
</g>
<!-- Node1_1&#45;&gt;Node4_1 -->
<g id="edge1" class="edge">
<title>Node1_1&#45;&gt;Node4_1</title>
<path fill="none" stroke="black" d="M534.74,-299.2C513.47,-308.58 487.44,-319.98 464,-330 447.44,-337.08 428.97,-344.8 413.58,-351.18"/>
<polygon fill="black" stroke="black" points="536.42,-302.28 544.15,-295.04 533.59,-295.88 536.42,-302.28"/>
<text text-anchor="middle" x="520.5" y="-318.8" font-family="Times,serif" font-size="14.00">विशेषणम्</text>
</g>
<!-- Node5_1 -->
<g id="node13" class="node">
<title>Node5_1</title>
<ellipse fill="#ff1975" stroke="#ff1975" cx="814" cy="-453" rx="48.99" ry="18"/>
<text text-anchor="middle" x="814" y="-449.3" font-family="Times,serif" font-size="14.00">उवाच(5.1)</text>
</g>
<!-- Node4_1&#45;&gt;Node5_1 -->
<g id="edge4" class="edge">
<title>Node4_1&#45;&gt;Node5_1</title>
<path fill="none" stroke="black" d="M437.57,-378.28C526.19,-395.63 693.93,-428.48 772.03,-443.78"/>
<polygon fill="black" stroke="black" points="438.17,-374.83 427.69,-376.34 436.83,-381.7 438.17,-374.83"/>
<text text-anchor="middle" x="633" y="-405.8" font-family="Times,serif" font-size="14.00">कर्ता</text>
</g>
<!-- Node2_1 -->
<g id="node3" class="node">
<title>Node2_1</title>
<ellipse fill="#00bfff" stroke="#00bfff" cx="443" cy="-279" rx="46.29" ry="18"/>
<text text-anchor="middle" x="443" y="-275.3" font-family="Times,serif" font-size="14.00">राजा(2.1)</text>
</g>
<!-- Node2_1&#45;&gt;Node4_1 -->
<g id="edge2" class="edge">
<title>Node2_1&#45;&gt;Node4_1</title>
<path fill="none" stroke="black" d="M424.73,-304.65C414.32,-318.7 401.55,-335.92 392.32,-348.37"/>
<polygon fill="black" stroke="black" points="427.71,-306.51 430.85,-296.39 422.09,-302.34 427.71,-306.51"/>
<text text-anchor="middle" x="437.5" y="-318.8" font-family="Times,serif" font-size="14.00">विशेषणम्</text>
</g>
<!-- Node3_1 -->
<g id="node4" class="node">
<title>Node3_1</title>
<ellipse fill="#00bfff" stroke="#00bfff" cx="318" cy="-279" rx="60.39" ry="18"/>
<text text-anchor="middle" x="318" y="-275.3" font-family="Times,serif" font-size="14.00">प्रीयमाणः(3.1)</text>
</g>
<!-- Node3_1&#45;&gt;Node4_1 -->
<g id="edge3" class="edge">
<title>Node3_1&#45;&gt;Node4_1</title>
<path fill="none" stroke="black" d="M336.24,-305.01C346.4,-318.94 358.78,-335.91 367.78,-348.24"/>
<polygon fill="black" stroke="black" points="338.97,-302.81 330.25,-296.79 333.31,-306.93 338.97,-302.81"/>
<text text-anchor="middle" x="374.5" y="-318.8" font-family="Times,serif" font-size="14.00">विशेषणम्</text>
</g>
<!-- Node6_1 -->
<g id="node5" class="node">
<title>Node6_1</title>
<ellipse fill="#00bfff" stroke="#00bfff" cx="201" cy="-279" rx="38.19" ry="18"/>
<text text-anchor="middle" x="201" y="-275.3" font-family="Times,serif" font-size="14.00">स(6.1)</text>
</g>
<!-- Node6_1&#45;&gt;Node4_1 -->
<g id="edge5" class="edge">
<title>Node6_1&#45;&gt;Node4_1</title>
<path fill="none" stroke="black" d="M233.9,-298.25C252.02,-308.06 275.03,-320.14 296,-330 312.01,-337.53 330.09,-345.17 345.36,-351.38"/>
<polygon fill="black" stroke="black" points="235.36,-295.06 224.91,-293.35 232.01,-301.21 235.36,-295.06"/>
<text text-anchor="middle" x="318.5" y="-318.8" font-family="Times,serif" font-size="14.00">विशेषणम्</text>
</g>
<!-- Node11_1 -->
<g id="node6" class="node">
<title>Node11_1</title>
<ellipse fill="#00bfff" stroke="#00bfff" cx="80" cy="-279" rx="64.19" ry="18"/>
<text text-anchor="middle" x="80" y="-275.3" font-family="Times,serif" font-size="14.00">महीपतिः(11.1)</text>
</g>
<!-- Node11_1&#45;&gt;Node4_1 -->
<g id="edge10" class="edge">
<title>Node11_1&#45;&gt;Node4_1</title>
<path fill="none" stroke="black" d="M124.16,-297.89C150.76,-308.21 185.47,-320.91 217,-330 254.82,-340.91 298.46,-350.1 331.06,-356.33"/>
<polygon fill="black" stroke="black" points="125.34,-294.59 114.75,-294.2 122.79,-301.11 125.34,-294.59"/>
<text text-anchor="middle" x="239.5" y="-318.8" font-family="Times,serif" font-size="14.00">विशेषणम्</text>
</g>
<!-- Node8_1 -->
<g id="node7" class="node">
<title>Node8_1</title>
<ellipse fill="#93db70" stroke="#93db70" cx="735" cy="-279" rx="50.09" ry="18"/>
<text text-anchor="middle" x="735" y="-275.3" font-family="Times,serif" font-size="14.00">भ्रातॄन्(8.1)</text>
</g>
<!-- Node9_1 -->
<g id="node8" class="node">
<title>Node9_1</title>
<ellipse fill="#93db70" stroke="#93db70" cx="735" cy="-366" rx="61.99" ry="18"/>
<text text-anchor="middle" x="735" y="-362.3" font-family="Times,serif" font-size="14.00">अमात्यान्(9.1)</text>
</g>
<!-- Node8_1&#45;&gt;Node9_1 -->
<g id="edge7" class="edge">
<title>Node8_1&#45;&gt;Node9_1</title>
<path fill="none" stroke="black" d="M735,-307.27C735,-320.58 735,-336.19 735,-347.82"/>
<polygon fill="black" stroke="black" points="738.5,-307.2 735,-297.2 731.5,-307.2 738.5,-307.2"/>
<text text-anchor="middle" x="757.5" y="-318.8" font-family="Times,serif" font-size="14.00">समुच्चितः</text>
</g>
<!-- Node9_1&#45;&gt;Node5_1 -->
<g id="edge8" class="edge">
<title>Node9_1&#45;&gt;Node5_1</title>
<path fill="none" stroke="black" d="M757.61,-391.32C770.87,-405.6 787.27,-423.24 798.96,-435.82"/>
<polygon fill="black" stroke="black" points="759.98,-388.74 750.61,-383.79 754.85,-393.5 759.98,-388.74"/>
<text text-anchor="middle" x="788" y="-405.8" font-family="Times,serif" font-size="14.00">कर्म</text>
</g>
<!-- Node12_1 -->
<g id="node9" class="node">
<title>Node12_1</title>
<ellipse fill="#40e0d0" stroke="#40e0d0" cx="1251" cy="-105" rx="50.09" ry="18"/>
<text text-anchor="middle" x="1251" y="-101.3" font-family="Times,serif" font-size="14.00">मया(12.1)</text>
</g>
<!-- Node15_1 -->
<g id="node10" class="node">
<title>Node15_1</title>
<ellipse fill="#40e0d0" stroke="#40e0d0" cx="1251" cy="-192" rx="59.29" ry="18"/>
<text text-anchor="middle" x="1251" y="-188.3" font-family="Times,serif" font-size="14.00">भवद्भिः(15.1)</text>
</g>
<!-- Node12_1&#45;&gt;Node15_1 -->
<g id="edge11" class="edge">
<title>Node12_1&#45;&gt;Node15_1</title>
<path fill="none" stroke="black" d="M1251,-133.27C1251,-146.58 1251,-162.19 1251,-173.82"/>
<polygon fill="black" stroke="black" points="1254.5,-133.2 1251,-123.2 1247.5,-133.2 1254.5,-133.2"/>
<text text-anchor="middle" x="1273.5" y="-144.8" font-family="Times,serif" font-size="14.00">समुच्चितः</text>
</g>
<!-- Node17_1 -->
<g id="node18" class="node">
<title>Node17_1</title>
<ellipse fill="#00bfff" stroke="#00bfff" cx="1251" cy="-279" rx="55.49" ry="18"/>
<text text-anchor="middle" x="1251" y="-275.3" font-family="Times,serif" font-size="14.00">मान्यः(17.1)</text>
</g>
<!-- Node15_1&#45;&gt;Node17_1 -->
<g id="edge14" class="edge">
<title>Node15_1&#45;&gt;Node17_1</title>
<path fill="none" stroke="black" d="M1251,-220.27C1251,-233.58 1251,-249.19 1251,-260.82"/>
<polygon fill="black" stroke="black" points="1254.5,-220.2 1251,-210.2 1247.5,-220.2 1254.5,-220.2"/>
<text text-anchor="middle" x="1262" y="-231.8" font-family="Times,serif" font-size="14.00">कर्ता</text>
</g>
<!-- Node18_1 -->
<g id="node11" class="node">
<title>Node18_1</title>
<ellipse fill="#00bfff" stroke="#00bfff" cx="1116" cy="-279" rx="50.09" ry="18"/>
<text text-anchor="middle" x="1116" y="-275.3" font-family="Times,serif" font-size="14.00">एषः(18.1)</text>
</g>
<!-- Node19_1 -->
<g id="node12" class="node">
<title>Node19_1</title>
<ellipse fill="#00bfff" stroke="#00bfff" cx="1116" cy="-366" rx="63.89" ry="18"/>
<text text-anchor="middle" x="1116" y="-362.3" font-family="Times,serif" font-size="14.00">नराधिपः(19.1)</text>
</g>
<!-- Node18_1&#45;&gt;Node19_1 -->
<g id="edge17" class="edge">
<title>Node18_1&#45;&gt;Node19_1</title>
<path fill="none" stroke="black" d="M1116,-307.27C1116,-320.58 1116,-336.19 1116,-347.82"/>
<polygon fill="black" stroke="black" points="1119.5,-307.2 1116,-297.2 1112.5,-307.2 1119.5,-307.2"/>
<text text-anchor="middle" x="1138.5" y="-318.8" font-family="Times,serif" font-size="14.00">विशेषणम्</text>
</g>
<!-- Node19_2 -->
<g id="node20" class="node">
<title>Node19_2</title>
<ellipse fill="#ff1975" stroke="#ff1975" cx="1066" cy="-453" rx="55.79" ry="18"/>
<text text-anchor="middle" x="1066" y="-449.3" font-family="Times,serif" font-size="14.00">अस्ति(19.2)</text>
</g>
<!-- Node19_1&#45;&gt;Node19_2 -->
<g id="edge18" class="edge">
<title>Node19_1&#45;&gt;Node19_2</title>
<path fill="none" stroke="black" d="M1105.82,-393.6C1102.45,-401.35 1098.42,-409.7 1094,-417 1090.13,-423.39 1085.22,-429.91 1080.61,-435.56"/>
<polygon fill="black" stroke="black" points="1109.12,-394.79 1109.72,-384.21 1102.65,-392.11 1109.12,-394.79"/>
<text text-anchor="middle" x="1112" y="-405.8" font-family="Times,serif" font-size="14.00">कर्ता</text>
</g>
<!-- Node7_1 -->
<g id="node14" class="node">
<title>Node7_1</title>
<ellipse fill="#ff99ff" stroke="#ff99ff" cx="859" cy="-366" rx="44.39" ry="18"/>
<text text-anchor="middle" x="859" y="-362.3" font-family="Times,serif" font-size="14.00">तदा(7.1)</text>
</g>
<!-- Node7_1&#45;&gt;Node5_1 -->
<g id="edge6" class="edge">
<title>Node7_1&#45;&gt;Node5_1</title>
<path fill="none" stroke="black" d="M845.34,-392.8C838.05,-406.58 829.28,-423.14 822.87,-435.24"/>
<polygon fill="black" stroke="black" points="848.52,-394.27 850.11,-383.79 842.34,-390.99 848.52,-394.27"/>
<text text-anchor="middle" x="874.5" y="-405.8" font-family="Times,serif" font-size="14.00">कालाधिकरणम्</text>
</g>
<!-- Node10_1 -->
<g id="node15" class="node">
<title>Node10_1</title>
<ellipse fill="#ff99ff" stroke="#ff99ff" cx="857" cy="-279" rx="43.59" ry="18"/>
<text text-anchor="middle" x="857" y="-275.3" font-family="Times,serif" font-size="14.00">च(10.1)</text>
</g>
<!-- Node10_1&#45;&gt;Node9_1 -->
<g id="edge9" class="edge">
<title>Node10_1&#45;&gt;Node9_1</title>
<path fill="none" stroke="black" d="M827.32,-300.68C805.86,-315.63 777.3,-335.53 757.66,-349.21"/>
<polygon fill="black" stroke="black" points="829.55,-303.39 835.75,-294.81 825.54,-297.65 829.55,-303.39"/>
<text text-anchor="middle" x="838" y="-318.8" font-family="Times,serif" font-size="14.00">समुच्चयद्योतकः</text>
</g>
<!-- Node13_1 -->
<g id="node16" class="node">
<title>Node13_1</title>
<ellipse fill="#ff99ff" stroke="#ff99ff" cx="1370" cy="-105" rx="43.59" ry="18"/>
<text text-anchor="middle" x="1370" y="-101.3" font-family="Times,serif" font-size="14.00">च(13.1)</text>
</g>
<!-- Node13_1&#45;&gt;Node15_1 -->
<g id="edge12" class="edge">
<title>Node13_1&#45;&gt;Node15_1</title>
<path fill="none" stroke="black" d="M1340.77,-126.88C1319.83,-141.83 1292.08,-161.66 1273,-175.29"/>
<polygon fill="black" stroke="black" points="1342.9,-129.66 1349,-121 1338.83,-123.96 1342.9,-129.66"/>
<text text-anchor="middle" x="1355" y="-144.8" font-family="Times,serif" font-size="14.00">समुच्चय_द्योतकः</text>
</g>
<!-- Node14_1 -->
<g id="node17" class="node">
<title>Node14_1</title>
<ellipse fill="#ff99ff" stroke="#ff99ff" cx="1370" cy="-18" rx="47.39" ry="18"/>
<text text-anchor="middle" x="1370" y="-14.3" font-family="Times,serif" font-size="14.00">एव(14.1)</text>
</g>
<!-- Node14_1&#45;&gt;Node13_1 -->
<g id="edge13" class="edge">
<title>Node14_1&#45;&gt;Node13_1</title>
<path fill="none" stroke="black" d="M1370,-46.27C1370,-59.58 1370,-75.19 1370,-86.82"/>
<polygon fill="black" stroke="black" points="1373.5,-46.2 1370,-36.2 1366.5,-46.2 1373.5,-46.2"/>
<text text-anchor="middle" x="1388.5" y="-57.8" font-family="Times,serif" font-size="14.00">सम्बन्धः</text>
</g>
<!-- Node17_1&#45;&gt;Node19_1 -->
<g id="edge16" class="edge">
<title>Node17_1&#45;&gt;Node19_1</title>
<path fill="none" stroke="black" d="M1218.15,-300.68C1194.32,-315.69 1162.58,-335.67 1140.84,-349.36"/>
<polygon fill="black" stroke="black" points="1220.27,-303.49 1226.86,-295.2 1216.54,-297.56 1220.27,-303.49"/>
<text text-anchor="middle" x="1226.5" y="-318.8" font-family="Times,serif" font-size="14.00">विधेयविशेषणम्</text>
</g>
<!-- Node16_1 -->
<g id="node19" class="node">
<title>Node16_1</title>
<ellipse fill="#ff99ff" stroke="#ff99ff" cx="1116" cy="-192" rx="43.59" ry="18"/>
<text text-anchor="middle" x="1116" y="-188.3" font-family="Times,serif" font-size="14.00">च(16.1)</text>
</g>
<!-- Node16_1&#45;&gt;Node18_1 -->
<g id="edge15" class="edge">
<title>Node16_1&#45;&gt;Node18_1</title>
<path fill="none" stroke="black" d="M1116,-220.27C1116,-233.58 1116,-249.19 1116,-260.82"/>
<polygon fill="black" stroke="black" points="1119.5,-220.2 1116,-210.2 1112.5,-220.2 1119.5,-220.2"/>
<text text-anchor="middle" x="1134.5" y="-231.8" font-family="Times,serif" font-size="14.00">सम्बन्धः</text>
</g>
<!-- Node19_3 -->
<g id="node21" class="node">
<title>Node19_3</title>
<ellipse fill="#ff99ff" stroke="#ff99ff" cx="975" cy="-366" rx="50.09" ry="18"/>
<text text-anchor="middle" x="975" y="-362.3" font-family="Times,serif" font-size="14.00">इति(19.3)</text>
</g>
<!-- Node19_3&#45;&gt;Node5_1 -->
<g id="edge20" class="edge">
<title>Node19_3&#45;&gt;Node5_1</title>
<path fill="none" stroke="black" stroke-dasharray="1,5" d="M950.92,-390.05C940.24,-399.36 927.13,-409.63 914,-417 894.91,-427.72 871.96,-436.03 852.87,-441.87"/>
<polygon fill="black" stroke="black" points="953.47,-392.46 958.57,-383.18 948.79,-387.26 953.47,-392.46"/>
<text text-anchor="middle" x="958" y="-405.8" font-family="Times,serif" font-size="14.00">गौण_कर्म</text>
</g>
<!-- Node19_3&#45;&gt;Node19_2 -->
<g id="edge19" class="edge">
<title>Node19_3&#45;&gt;Node19_2</title>
<path fill="none" stroke="black" d="M992.02,-391.96C998.39,-400.41 1006.03,-409.57 1014,-417 1021.88,-424.35 1031.44,-431.25 1040.21,-436.94"/>
<polygon fill="black" stroke="black" points="994.82,-389.87 986.11,-383.85 989.17,-394 994.82,-389.87"/>
<text text-anchor="middle" x="1052" y="-405.8" font-family="Times,serif" font-size="14.00">वाक्यकर्मबोधकः</text>
</g>
</g>
</svg>
