<?xml version="1.0" encoding="UTF-8" standalone="no"?>
<!DOCTYPE svg PUBLIC "-//W3C//DTD SVG 1.1//EN"
 "http://www.w3.org/Graphics/SVG/1.1/DTD/svg11.dtd">
<!-- Generated by graphviz version 2.43.0 (0)
 -->
<!-- Title: G Pages: 1 -->
<svg width="803pt" height="392pt"
 viewBox="0.00 0.00 803.00 392.00" xmlns="http://www.w3.org/2000/svg" xmlns:xlink="http://www.w3.org/1999/xlink">
<g id="graph0" class="graph" transform="scale(1 1) rotate(0) translate(4 388)">
<title>G</title>
<polygon fill="#fffacd" stroke="transparent" points="-4,4 -4,-388 799,-388 799,4 -4,4"/>
<g id="clust1" class="cluster">
<title>cluster_1</title>
<polygon fill="#fffacd" stroke="black" points="677,-166 677,-305 787,-305 787,-166 677,-166"/>
</g>
<g id="clust2" class="cluster">
<title>cluster_2</title>
<polygon fill="#fffacd" stroke="black" points="325,-166 325,-305 457,-305 457,-166 325,-166"/>
</g>
<g id="clust3" class="cluster">
<title>cluster_3</title>
<polygon fill="#fffacd" stroke="black" points="8,-79 8,-218 270,-218 270,-79 8,-79"/>
</g>
<!-- Node1_1 -->
<g id="node1" class="node">
<title>Node1_1</title>
<ellipse fill="#40e0d0" stroke="#40e0d0" cx="732" cy="-192" rx="42.49" ry="18"/>
<text text-anchor="middle" x="732" y="-188.3" font-family="Times,serif" font-size="14.00">तेन(1.1)</text>
</g>
<!-- Node5_1 -->
<g id="node2" class="node">
<title>Node5_1</title>
<ellipse fill="#40e0d0" stroke="#40e0d0" cx="732" cy="-279" rx="47.39" ry="18"/>
<text text-anchor="middle" x="732" y="-275.3" font-family="Times,serif" font-size="14.00">वृत्तेन(5.1)</text>
</g>
<!-- Node1_1&#45;&gt;Node5_1 -->
<g id="edge1" class="edge">
<title>Node1_1&#45;&gt;Node5_1</title>
<path fill="none" stroke="black" d="M732,-220.27C732,-233.58 732,-249.19 732,-260.82"/>
<polygon fill="black" stroke="black" points="735.5,-220.2 732,-210.2 728.5,-220.2 735.5,-220.2"/>
<text text-anchor="middle" x="754.5" y="-231.8" font-family="Times,serif" font-size="14.00">विशेषणम्</text>
</g>
<!-- Node3_1 -->
<g id="node9" class="node">
<title>Node3_1</title>
<ellipse fill="#ff1975" stroke="#ff1975" cx="424" cy="-366" rx="53.89" ry="18"/>
<text text-anchor="middle" x="424" y="-362.3" font-family="Times,serif" font-size="14.00">अभवत्(3.1)</text>
</g>
<!-- Node5_1&#45;&gt;Node3_1 -->
<g id="edge4" class="edge">
<title>Node5_1&#45;&gt;Node3_1</title>
<path fill="none" stroke="black" d="M685.2,-292.92C624.91,-309.55 521.12,-338.2 464.21,-353.9"/>
<polygon fill="black" stroke="black" points="686.14,-296.29 694.85,-290.25 684.28,-289.54 686.14,-296.29"/>
<text text-anchor="middle" x="605.5" y="-318.8" font-family="Times,serif" font-size="14.00">हेतुः</text>
</g>
<!-- Node6_1 -->
<g id="node3" class="node">
<title>Node6_1</title>
<ellipse fill="#00bfff" stroke="#00bfff" cx="391" cy="-192" rx="40.09" ry="18"/>
<text text-anchor="middle" x="391" y="-188.3" font-family="Times,serif" font-size="14.00">सः(6.1)</text>
</g>
<!-- Node7_1 -->
<g id="node4" class="node">
<title>Node7_1</title>
<ellipse fill="#00bfff" stroke="#00bfff" cx="391" cy="-279" rx="57.69" ry="18"/>
<text text-anchor="middle" x="391" y="-275.3" font-family="Times,serif" font-size="14.00">नराधिपः(7.1)</text>
</g>
<!-- Node6_1&#45;&gt;Node7_1 -->
<g id="edge5" class="edge">
<title>Node6_1&#45;&gt;Node7_1</title>
<path fill="none" stroke="black" d="M391,-220.27C391,-233.58 391,-249.19 391,-260.82"/>
<polygon fill="black" stroke="black" points="394.5,-220.2 391,-210.2 387.5,-220.2 394.5,-220.2"/>
<text text-anchor="middle" x="413.5" y="-231.8" font-family="Times,serif" font-size="14.00">विशेषणम्</text>
</g>
<!-- Node7_1&#45;&gt;Node3_1 -->
<g id="edge6" class="edge">
<title>Node7_1&#45;&gt;Node3_1</title>
<path fill="none" stroke="black" d="M401.3,-306.54C406.58,-320.12 412.84,-336.24 417.44,-348.11"/>
<polygon fill="black" stroke="black" points="404.56,-305.26 397.68,-297.2 398.03,-307.79 404.56,-305.26"/>
<text text-anchor="middle" x="421" y="-318.8" font-family="Times,serif" font-size="14.00">कर्ता</text>
</g>
<!-- Node8_1 -->
<g id="node11" class="node">
<title>Node8_1</title>
<ellipse fill="#ff1975" stroke="#ff1975" cx="277" cy="-366" rx="63.89" ry="18"/>
<text text-anchor="middle" x="277" y="-362.3" font-family="Times,serif" font-size="14.00">अन्वतप्यत्(8.1)</text>
</g>
<!-- Node7_1&#45;&gt;Node8_1 -->
<g id="edge7" class="edge">
<title>Node7_1&#45;&gt;Node8_1</title>
<path fill="none" stroke="black" stroke-dasharray="1,5" d="M361.75,-301.81C341.99,-316.54 316.33,-335.67 298.45,-349.01"/>
<polygon fill="black" stroke="black" points="363.9,-304.57 369.82,-295.79 359.72,-298.96 363.9,-304.57"/>
<text text-anchor="middle" x="352" y="-318.8" font-family="Times,serif" font-size="14.00">कर्ता</text>
</g>
<!-- Node12_1 -->
<g id="node5" class="node">
<title>Node12_1</title>
<ellipse fill="#93db70" stroke="#93db70" cx="207" cy="-105" rx="54.69" ry="18"/>
<text text-anchor="middle" x="207" y="-101.3" font-family="Times,serif" font-size="14.00">मन्दम्(12.1)</text>
</g>
<!-- Node11_1 -->
<g id="node6" class="node">
<title>Node11_1</title>
<ellipse fill="#93db70" stroke="#93db70" cx="160" cy="-192" rx="48.19" ry="18"/>
<text text-anchor="middle" x="160" y="-188.3" font-family="Times,serif" font-size="14.00">पुत्रं(11.1)</text>
</g>
<!-- Node12_1&#45;&gt;Node11_1 -->
<g id="edge11" class="edge">
<title>Node12_1&#45;&gt;Node11_1</title>
<path fill="none" stroke="black" d="M192.73,-131.8C185.12,-145.58 175.96,-162.14 169.27,-174.24"/>
<polygon fill="black" stroke="black" points="195.94,-133.24 197.71,-122.79 189.81,-129.85 195.94,-133.24"/>
<text text-anchor="middle" x="209.5" y="-144.8" font-family="Times,serif" font-size="14.00">विशेषणम्</text>
</g>
<!-- Node10_1 -->
<g id="node13" class="node">
<title>Node10_1</title>
<ellipse fill="#ff99ff" stroke="#ff99ff" cx="160" cy="-279" rx="61.19" ry="18"/>
<text text-anchor="middle" x="160" y="-275.3" font-family="Times,serif" font-size="14.00">संस्मृत्य(10.1)</text>
</g>
<!-- Node11_1&#45;&gt;Node10_1 -->
<g id="edge10" class="edge">
<title>Node11_1&#45;&gt;Node10_1</title>
<path fill="none" stroke="black" d="M160,-220.27C160,-233.58 160,-249.19 160,-260.82"/>
<polygon fill="black" stroke="black" points="163.5,-220.2 160,-210.2 156.5,-220.2 163.5,-220.2"/>
<text text-anchor="middle" x="169" y="-231.8" font-family="Times,serif" font-size="14.00">कर्म</text>
</g>
<!-- Node13_2 -->
<g id="node7" class="node">
<title>Node13_2</title>
<ellipse fill="#93db70" stroke="#93db70" cx="75" cy="-105" rx="59.29" ry="18"/>
<text text-anchor="middle" x="75" y="-101.3" font-family="Times,serif" font-size="14.00">चेतसम्(13.2)</text>
</g>
<!-- Node13_2&#45;&gt;Node11_1 -->
<g id="edge13" class="edge">
<title>Node13_2&#45;&gt;Node11_1</title>
<path fill="none" stroke="black" d="M98.56,-129.56C113.02,-144.02 131.14,-162.14 143.95,-174.95"/>
<polygon fill="black" stroke="black" points="100.93,-126.99 91.39,-122.39 95.99,-131.93 100.93,-126.99"/>
<text text-anchor="middle" x="145.5" y="-144.8" font-family="Times,serif" font-size="14.00">विशेषणम्</text>
</g>
<!-- Node2_1 -->
<g id="node8" class="node">
<title>Node2_1</title>
<ellipse fill="#87ceeb" stroke="#87ceeb" cx="623" cy="-192" rx="46.29" ry="18"/>
<text text-anchor="middle" x="623" y="-188.3" font-family="Times,serif" font-size="14.00">तस्य(2.1)</text>
</g>
<!-- Node2_1&#45;&gt;Node5_1 -->
<g id="edge2" class="edge">
<title>Node2_1&#45;&gt;Node5_1</title>
<path fill="none" stroke="black" d="M644.37,-216.76C652.84,-225.51 662.95,-235.2 673,-243 682.97,-250.74 694.8,-258.08 705.24,-264.01"/>
<polygon fill="black" stroke="black" points="646.8,-214.23 637.39,-209.37 641.72,-219.04 646.8,-214.23"/>
<text text-anchor="middle" x="700.5" y="-231.8" font-family="Times,serif" font-size="14.00">षष्ठीसम्बन्धः</text>
</g>
<!-- Node4_1 -->
<g id="node10" class="node">
<title>Node4_1</title>
<ellipse fill="#00bfff" stroke="#00bfff" cx="512" cy="-192" rx="46.59" ry="18"/>
<text text-anchor="middle" x="512" y="-188.3" font-family="Times,serif" font-size="14.00">प्रीतः(4.1)</text>
</g>
<!-- Node4_1&#45;&gt;Node7_1 -->
<g id="edge3" class="edge">
<title>Node4_1&#45;&gt;Node7_1</title>
<path fill="none" stroke="black" d="M481.99,-214.08C460.7,-229.04 432.58,-248.79 413.26,-262.36"/>
<polygon fill="black" stroke="black" points="484.2,-216.81 490.37,-208.2 480.17,-211.08 484.2,-216.81"/>
<text text-anchor="middle" x="494.5" y="-231.8" font-family="Times,serif" font-size="14.00">विधेयविशेषणम्</text>
</g>
<!-- Node9_1 -->
<g id="node12" class="node">
<title>Node9_1</title>
<ellipse fill="#ff99ff" stroke="#ff99ff" cx="277" cy="-279" rx="37.89" ry="18"/>
<text text-anchor="middle" x="277" y="-275.3" font-family="Times,serif" font-size="14.00">च(9.1)</text>
</g>
<!-- Node9_1&#45;&gt;Node8_1 -->
<g id="edge8" class="edge">
<title>Node9_1&#45;&gt;Node8_1</title>
<path fill="none" stroke="black" d="M277,-307.27C277,-320.58 277,-336.19 277,-347.82"/>
<polygon fill="black" stroke="black" points="280.5,-307.2 277,-297.2 273.5,-307.2 280.5,-307.2"/>
<text text-anchor="middle" x="295.5" y="-318.8" font-family="Times,serif" font-size="14.00">सम्बन्धः</text>
</g>
<!-- Node10_1&#45;&gt;Node8_1 -->
<g id="edge9" class="edge">
<title>Node10_1&#45;&gt;Node8_1</title>
<path fill="none" stroke="black" d="M190.3,-302.01C210.58,-316.75 236.82,-335.81 255.09,-349.08"/>
<polygon fill="black" stroke="black" points="192.15,-299.03 182.01,-295.99 188.04,-304.7 192.15,-299.03"/>
<text text-anchor="middle" x="244.5" y="-318.8" font-family="Times,serif" font-size="14.00">पूर्वकाल</text>
</g>
<!-- Node13_1 -->
<g id="node14" class="node">
<title>Node13_1</title>
<ellipse fill="#ffff00" stroke="#ffff00" cx="75" cy="-18" rx="47.39" ry="18"/>
<text text-anchor="middle" x="75" y="-14.3" font-family="Times,serif" font-size="14.00">अ&#45;(13.1)</text>
</g>
<!-- Node13_1&#45;&gt;Node13_2 -->
<g id="edge12" class="edge">
<title>Node13_1&#45;&gt;Node13_2</title>
<path fill="none" stroke="black" d="M75,-46.27C75,-59.58 75,-75.19 75,-86.82"/>
<polygon fill="black" stroke="black" points="78.5,-46.2 75,-36.2 71.5,-46.2 78.5,-46.2"/>
<text text-anchor="middle" x="89" y="-57.8" font-family="Times,serif" font-size="14.00">Bs6</text>
</g>
</g>
</svg>
