<?xml version="1.0" encoding="UTF-8" standalone="no"?>
<!DOCTYPE svg PUBLIC "-//W3C//DTD SVG 1.1//EN"
 "http://www.w3.org/Graphics/SVG/1.1/DTD/svg11.dtd">
<!-- Generated by graphviz version 2.43.0 (0)
 -->
<!-- Title: G Pages: 1 -->
<svg width="756pt" height="392pt"
 viewBox="0.00 0.00 756.24 392.00" xmlns="http://www.w3.org/2000/svg" xmlns:xlink="http://www.w3.org/1999/xlink">
<g id="graph0" class="graph" transform="scale(1 1) rotate(0) translate(4 388)">
<title>G</title>
<polygon fill="#fffacd" stroke="transparent" points="-4,4 -4,-388 752.24,-388 752.24,4 -4,4"/>
<g id="clust1" class="cluster">
<title>cluster_1</title>
<polygon fill="#fffacd" stroke="black" points="84.7,-79 84.7,-218 517.7,-218 517.7,-79 84.7,-79"/>
</g>
<!-- Node1_1 -->
<g id="node1" class="node">
<title>Node1_1</title>
<ellipse fill="#87ceeb" stroke="#87ceeb" cx="443.7" cy="-105" rx="66.09" ry="18"/>
<text text-anchor="middle" x="443.7" y="-101.3" font-family="Times,serif" font-size="14.00">ब्राह्मणानाम्(1.1)</text>
</g>
<!-- Node8_2 -->
<g id="node2" class="node">
<title>Node8_2</title>
<ellipse fill="#87ceeb" stroke="#87ceeb" cx="372.7" cy="-192" rx="63.09" ry="18"/>
<text text-anchor="middle" x="372.7" y="-188.3" font-family="Times,serif" font-size="14.00">सङ्घानाम्(8.2)</text>
</g>
<!-- Node1_1&#45;&gt;Node8_2 -->
<g id="edge1" class="edge">
<title>Node1_1&#45;&gt;Node8_2</title>
<path fill="none" stroke="black" d="M423.14,-130.61C411.44,-144.62 397.09,-161.79 386.69,-174.24"/>
<polygon fill="black" stroke="black" points="425.94,-132.71 429.67,-122.79 420.57,-128.22 425.94,-132.71"/>
<text text-anchor="middle" x="434.2" y="-144.8" font-family="Times,serif" font-size="14.00">समुच्चितः</text>
</g>
<!-- Node10_1 -->
<g id="node11" class="node">
<title>Node10_1</title>
<ellipse fill="#00bfff" stroke="#00bfff" cx="372.7" cy="-279" rx="58.49" ry="18"/>
<text text-anchor="middle" x="372.7" y="-275.3" font-family="Times,serif" font-size="14.00">सुप्रियः(10.1)</text>
</g>
<!-- Node8_2&#45;&gt;Node10_1 -->
<g id="edge9" class="edge">
<title>Node8_2&#45;&gt;Node10_1</title>
<path fill="none" stroke="black" d="M372.7,-220.27C372.7,-233.58 372.7,-249.19 372.7,-260.82"/>
<polygon fill="black" stroke="black" points="376.2,-220.2 372.7,-210.2 369.2,-220.2 376.2,-220.2"/>
<text text-anchor="middle" x="400.2" y="-231.8" font-family="Times,serif" font-size="14.00">षष्ठीसम्बन्धः</text>
</g>
<!-- Node3_1 -->
<g id="node3" class="node">
<title>Node3_1</title>
<ellipse fill="#87ceeb" stroke="#87ceeb" cx="302.7" cy="-105" rx="56.59" ry="18"/>
<text text-anchor="middle" x="302.7" y="-101.3" font-family="Times,serif" font-size="14.00">वृद्धानाम्(3.1)</text>
</g>
<!-- Node3_1&#45;&gt;Node8_2 -->
<g id="edge3" class="edge">
<title>Node3_1&#45;&gt;Node8_2</title>
<path fill="none" stroke="black" d="M321.01,-131.02C327.12,-139.11 334.06,-148.05 340.7,-156 345.87,-162.2 351.77,-168.78 357.08,-174.54"/>
<polygon fill="black" stroke="black" points="323.78,-128.88 314.99,-122.96 318.17,-133.07 323.78,-128.88"/>
<text text-anchor="middle" x="363.2" y="-144.8" font-family="Times,serif" font-size="14.00">समुच्चितः</text>
</g>
<!-- Node4_1 -->
<g id="node4" class="node">
<title>Node4_1</title>
<ellipse fill="#87ceeb" stroke="#87ceeb" cx="160.7" cy="-105" rx="67.69" ry="18"/>
<text text-anchor="middle" x="160.7" y="-101.3" font-family="Times,serif" font-size="14.00">क्षत्रियाणाम्(4.1)</text>
</g>
<!-- Node4_1&#45;&gt;Node8_2 -->
<g id="edge4" class="edge">
<title>Node4_1&#45;&gt;Node8_2</title>
<path fill="none" stroke="black" d="M203.95,-124.64C226.45,-134.22 254.47,-145.96 279.7,-156 297.97,-163.27 318.41,-171.01 335.46,-177.35"/>
<polygon fill="black" stroke="black" points="205.24,-121.38 194.67,-120.68 202.49,-127.82 205.24,-121.38"/>
<text text-anchor="middle" x="302.2" y="-144.8" font-family="Times,serif" font-size="14.00">समुच्चितः</text>
</g>
<!-- Node2_1 -->
<g id="node5" class="node">
<title>Node2_1</title>
<ellipse fill="#ff99ff" stroke="#ff99ff" cx="37.7" cy="-105" rx="37.89" ry="18"/>
<text text-anchor="middle" x="37.7" y="-101.3" font-family="Times,serif" font-size="14.00">च(2.1)</text>
</g>
<!-- Node2_1&#45;&gt;Node8_2 -->
<g id="edge2" class="edge">
<title>Node2_1&#45;&gt;Node8_2</title>
<path fill="none" stroke="black" d="M72.77,-122.39C97.44,-133.34 131.5,-147.27 162.7,-156 213.24,-170.14 272.32,-179.36 314.92,-184.77"/>
<polygon fill="black" stroke="black" points="74.02,-119.12 63.47,-118.21 71.15,-125.51 74.02,-119.12"/>
<text text-anchor="middle" x="200.7" y="-144.8" font-family="Times,serif" font-size="14.00">समुच्चय_द्योतकः</text>
</g>
<!-- Node5_1 -->
<g id="node6" class="node">
<title>Node5_1</title>
<ellipse fill="#ff99ff" stroke="#ff99ff" cx="302.7" cy="-18" rx="37.89" ry="18"/>
<text text-anchor="middle" x="302.7" y="-14.3" font-family="Times,serif" font-size="14.00">च(5.1)</text>
</g>
<!-- Node5_1&#45;&gt;Node3_1 -->
<g id="edge5" class="edge">
<title>Node5_1&#45;&gt;Node3_1</title>
<path fill="none" stroke="black" d="M302.7,-46.27C302.7,-59.58 302.7,-75.19 302.7,-86.82"/>
<polygon fill="black" stroke="black" points="306.2,-46.2 302.7,-36.2 299.2,-46.2 306.2,-46.2"/>
<text text-anchor="middle" x="321.2" y="-57.8" font-family="Times,serif" font-size="14.00">सम्बन्धः</text>
</g>
<!-- Node6_1 -->
<g id="node7" class="node">
<title>Node6_1</title>
<ellipse fill="#6fffc3" stroke="#6fffc3" cx="128.7" cy="-279" rx="48.99" ry="18"/>
<text text-anchor="middle" x="128.7" y="-275.3" font-family="Times,serif" font-size="14.00">भारत(6.1)</text>
</g>
<!-- Node9_1 -->
<g id="node8" class="node">
<title>Node9_1</title>
<ellipse fill="#ff1975" stroke="#ff1975" cx="245.7" cy="-366" rx="53.89" ry="18"/>
<text text-anchor="middle" x="245.7" y="-362.3" font-family="Times,serif" font-size="14.00">अभवत्(9.1)</text>
</g>
<!-- Node6_1&#45;&gt;Node9_1 -->
<g id="edge6" class="edge">
<title>Node6_1&#45;&gt;Node9_1</title>
<path fill="none" stroke="black" d="M157.99,-301.28C178.58,-316.24 205.68,-335.93 224.27,-349.43"/>
<polygon fill="black" stroke="black" points="160.03,-298.44 149.88,-295.39 155.92,-304.1 160.03,-298.44"/>
<text text-anchor="middle" x="214.7" y="-318.8" font-family="Times,serif" font-size="14.00">सम्बोध्यः</text>
</g>
<!-- Node7_1 -->
<g id="node9" class="node">
<title>Node7_1</title>
<ellipse fill="#ff99ff" stroke="#ff99ff" cx="572.7" cy="-105" rx="44.69" ry="18"/>
<text text-anchor="middle" x="572.7" y="-101.3" font-family="Times,serif" font-size="14.00">तथा(7.1)</text>
</g>
<!-- Node7_1&#45;&gt;Node8_2 -->
<g id="edge7" class="edge">
<title>Node7_1&#45;&gt;Node8_2</title>
<path fill="none" stroke="black" d="M535.11,-123.24C513.45,-133.07 485.65,-145.47 460.7,-156 443.73,-163.16 424.77,-170.75 408.8,-177.03"/>
<polygon fill="black" stroke="black" points="536.64,-126.39 544.3,-119.07 533.75,-120.02 536.64,-126.39"/>
<text text-anchor="middle" x="513.2" y="-144.8" font-family="Times,serif" font-size="14.00">सम्बन्धः</text>
</g>
<!-- Node8_1 -->
<g id="node10" class="node">
<title>Node8_1</title>
<ellipse fill="#ffff00" stroke="#ffff00" cx="691.7" cy="-105" rx="56.59" ry="18"/>
<text text-anchor="middle" x="691.7" y="-101.3" font-family="Times,serif" font-size="14.00">विट्शूद्र&#45;(8.1)</text>
</g>
<!-- Node8_1&#45;&gt;Node8_2 -->
<g id="edge8" class="edge">
<title>Node8_1&#45;&gt;Node8_2</title>
<path fill="none" stroke="black" d="M645.5,-122.13C614.64,-132.58 573.01,-146.04 535.7,-156 498.5,-165.93 455.96,-174.99 423.67,-181.4"/>
<polygon fill="black" stroke="black" points="646.78,-125.39 655.12,-118.85 644.53,-118.76 646.78,-125.39"/>
<text text-anchor="middle" x="592.2" y="-144.8" font-family="Times,serif" font-size="14.00">T6</text>
</g>
<!-- Node10_1&#45;&gt;Node9_1 -->
<g id="edge10" class="edge">
<title>Node10_1&#45;&gt;Node9_1</title>
<path fill="none" stroke="black" d="M351,-303.98C342.17,-312.87 331.51,-322.58 320.7,-330 308.14,-338.62 293.12,-346.1 279.83,-351.91"/>
<polygon fill="black" stroke="black" points="353.53,-306.4 357.95,-296.78 348.49,-301.54 353.53,-306.4"/>
<text text-anchor="middle" x="349.7" y="-318.8" font-family="Times,serif" font-size="14.00">कर्ता</text>
</g>
<!-- Node11_1 -->
<g id="node12" class="node">
<title>Node11_1</title>
<ellipse fill="#ff99ff" stroke="#ff99ff" cx="245.7" cy="-279" rx="50.09" ry="18"/>
<text text-anchor="middle" x="245.7" y="-275.3" font-family="Times,serif" font-size="14.00">तदा(11.1)</text>
</g>
<!-- Node11_1&#45;&gt;Node9_1 -->
<g id="edge11" class="edge">
<title>Node11_1&#45;&gt;Node9_1</title>
<path fill="none" stroke="black" d="M245.7,-307.27C245.7,-320.58 245.7,-336.19 245.7,-347.82"/>
<polygon fill="black" stroke="black" points="249.2,-307.2 245.7,-297.2 242.2,-307.2 249.2,-307.2"/>
<text text-anchor="middle" x="281.2" y="-318.8" font-family="Times,serif" font-size="14.00">कालाधिकरणम्</text>
</g>
</g>
</svg>
