<?xml version="1.0" encoding="UTF-8" standalone="no"?>
<!DOCTYPE svg PUBLIC "-//W3C//DTD SVG 1.1//EN"
 "http://www.w3.org/Graphics/SVG/1.1/DTD/svg11.dtd">
<!-- Generated by graphviz version 2.43.0 (0)
 -->
<!-- Title: G Pages: 1 -->
<svg width="657pt" height="305pt"
 viewBox="0.00 0.00 657.00 305.00" xmlns="http://www.w3.org/2000/svg" xmlns:xlink="http://www.w3.org/1999/xlink">
<g id="graph0" class="graph" transform="scale(1 1) rotate(0) translate(4 301)">
<title>G</title>
<polygon fill="#fffacd" stroke="transparent" points="-4,4 -4,-301 653,-301 653,4 -4,4"/>
<g id="clust1" class="cluster">
<title>cluster_1</title>
<polygon fill="#fffacd" stroke="black" points="266,-79 266,-218 641,-218 641,-79 266,-79"/>
</g>
<g id="clust2" class="cluster">
<title>cluster_2</title>
<polygon fill="#fffacd" stroke="black" points="8,-79 8,-218 148,-218 148,-79 8,-79"/>
</g>
<!-- Node2_1 -->
<g id="node1" class="node">
<title>Node2_1</title>
<ellipse fill="#93db70" stroke="#93db70" cx="568" cy="-105" rx="64.99" ry="18"/>
<text text-anchor="middle" x="568" y="-101.3" font-family="Times,serif" font-size="14.00">अनुवर्तन्तम्(2.1)</text>
</g>
<!-- Node1_1 -->
<g id="node2" class="node">
<title>Node1_1</title>
<ellipse fill="#93db70" stroke="#93db70" cx="360" cy="-192" rx="55.79" ry="18"/>
<text text-anchor="middle" x="360" y="-188.3" font-family="Times,serif" font-size="14.00">राजानम्(1.1)</text>
</g>
<!-- Node2_1&#45;&gt;Node1_1 -->
<g id="edge2" class="edge">
<title>Node2_1&#45;&gt;Node1_1</title>
<path fill="none" stroke="black" d="M526.2,-124.77C504.48,-134.38 477.43,-146.1 453,-156 434.29,-163.58 413.26,-171.54 395.93,-177.95"/>
<polygon fill="black" stroke="black" points="527.75,-127.92 535.47,-120.66 524.91,-121.52 527.75,-127.92"/>
<text text-anchor="middle" x="509.5" y="-144.8" font-family="Times,serif" font-size="14.00">विशेषणम्</text>
</g>
<!-- Node5_1 -->
<g id="node7" class="node">
<title>Node5_1</title>
<ellipse fill="#ff1975" stroke="#ff1975" cx="207" cy="-279" rx="59.59" ry="18"/>
<text text-anchor="middle" x="207" y="-275.3" font-family="Times,serif" font-size="14.00">अन्ववर्तत(5.1)</text>
</g>
<!-- Node1_1&#45;&gt;Node5_1 -->
<g id="edge1" class="edge">
<title>Node1_1&#45;&gt;Node5_1</title>
<path fill="none" stroke="black" d="M324.09,-212.95C296.61,-228.22 259.3,-248.95 234.25,-262.86"/>
<polygon fill="black" stroke="black" points="325.96,-215.92 333,-208 322.56,-209.8 325.96,-215.92"/>
<text text-anchor="middle" x="302" y="-231.8" font-family="Times,serif" font-size="14.00">कर्म</text>
</g>
<!-- Node3_2 -->
<g id="node3" class="node">
<title>Node3_2</title>
<ellipse fill="#93db70" stroke="#93db70" cx="321" cy="-105" rx="47.39" ry="18"/>
<text text-anchor="middle" x="321" y="-101.3" font-family="Times,serif" font-size="14.00">पुत्रम्(3.2)</text>
</g>
<!-- Node3_2&#45;&gt;Node1_1 -->
<g id="edge4" class="edge">
<title>Node3_2&#45;&gt;Node1_1</title>
<path fill="none" stroke="black" d="M332.99,-132.13C339.23,-145.73 346.68,-161.98 352.18,-173.95"/>
<polygon fill="black" stroke="black" points="336.06,-130.42 328.71,-122.79 329.69,-133.34 336.06,-130.42"/>
<text text-anchor="middle" x="365.5" y="-144.8" font-family="Times,serif" font-size="14.00">विशेषणम्</text>
</g>
<!-- Node4_2 -->
<g id="node4" class="node">
<title>Node4_2</title>
<ellipse fill="#93db70" stroke="#93db70" cx="436" cy="-105" rx="49.29" ry="18"/>
<text text-anchor="middle" x="436" y="-101.3" font-family="Times,serif" font-size="14.00">मतिम्(4.2)</text>
</g>
<!-- Node4_2&#45;&gt;Node1_1 -->
<g id="edge6" class="edge">
<title>Node4_2&#45;&gt;Node1_1</title>
<path fill="none" stroke="black" d="M415.17,-129.86C407.87,-138.16 399.61,-147.52 392,-156 386.61,-162.01 380.66,-168.54 375.37,-174.32"/>
<polygon fill="black" stroke="black" points="417.85,-132.11 421.81,-122.28 412.59,-127.49 417.85,-132.11"/>
<text text-anchor="middle" x="426.5" y="-144.8" font-family="Times,serif" font-size="14.00">विशेषणम्</text>
</g>
<!-- Node8_1 -->
<g id="node5" class="node">
<title>Node8_1</title>
<ellipse fill="#00bfff" stroke="#00bfff" cx="78" cy="-105" rx="62.29" ry="18"/>
<text text-anchor="middle" x="78" y="-101.3" font-family="Times,serif" font-size="14.00">पराङ्मुखः(8.1)</text>
</g>
<!-- Node6_1 -->
<g id="node6" class="node">
<title>Node6_1</title>
<ellipse fill="#00bfff" stroke="#00bfff" cx="81" cy="-192" rx="54.69" ry="18"/>
<text text-anchor="middle" x="81" y="-188.3" font-family="Times,serif" font-size="14.00">कौरव्यः(6.1)</text>
</g>
<!-- Node8_1&#45;&gt;Node6_1 -->
<g id="edge9" class="edge">
<title>Node8_1&#45;&gt;Node6_1</title>
<path fill="none" stroke="black" d="M78.96,-133.27C79.43,-146.58 79.98,-162.19 80.39,-173.82"/>
<polygon fill="black" stroke="black" points="82.46,-133.07 78.61,-123.2 75.46,-133.32 82.46,-133.07"/>
<text text-anchor="middle" x="102.5" y="-144.8" font-family="Times,serif" font-size="14.00">विशेषणम्</text>
</g>
<!-- Node6_1&#45;&gt;Node5_1 -->
<g id="edge7" class="edge">
<title>Node6_1&#45;&gt;Node5_1</title>
<path fill="none" stroke="black" d="M112.19,-214.04C134.26,-228.93 163.38,-248.57 183.5,-262.15"/>
<polygon fill="black" stroke="black" points="114.07,-211.08 103.82,-208.39 110.15,-216.89 114.07,-211.08"/>
<text text-anchor="middle" x="163" y="-231.8" font-family="Times,serif" font-size="14.00">कर्ता</text>
</g>
<!-- Node3_1 -->
<g id="node8" class="node">
<title>Node3_1</title>
<ellipse fill="#ffff00" stroke="#ffff00" cx="321" cy="-18" rx="45.49" ry="18"/>
<text text-anchor="middle" x="321" y="-14.3" font-family="Times,serif" font-size="14.00">धर्म&#45;(3.1)</text>
</g>
<!-- Node3_1&#45;&gt;Node3_2 -->
<g id="edge3" class="edge">
<title>Node3_1&#45;&gt;Node3_2</title>
<path fill="none" stroke="black" d="M321,-46.27C321,-59.58 321,-75.19 321,-86.82"/>
<polygon fill="black" stroke="black" points="324.5,-46.2 321,-36.2 317.5,-46.2 324.5,-46.2"/>
<text text-anchor="middle" x="330.5" y="-57.8" font-family="Times,serif" font-size="14.00">T6</text>
</g>
<!-- Node4_1 -->
<g id="node9" class="node">
<title>Node4_1</title>
<ellipse fill="#ffff00" stroke="#ffff00" cx="436" cy="-18" rx="46.59" ry="18"/>
<text text-anchor="middle" x="436" y="-14.3" font-family="Times,serif" font-size="14.00">महा&#45;(4.1)</text>
</g>
<!-- Node4_1&#45;&gt;Node4_2 -->
<g id="edge5" class="edge">
<title>Node4_1&#45;&gt;Node4_2</title>
<path fill="none" stroke="black" d="M436,-46.27C436,-59.58 436,-75.19 436,-86.82"/>
<polygon fill="black" stroke="black" points="439.5,-46.2 436,-36.2 432.5,-46.2 439.5,-46.2"/>
<text text-anchor="middle" x="450" y="-57.8" font-family="Times,serif" font-size="14.00">Bs6</text>
</g>
<!-- Node7_1 -->
<g id="node10" class="node">
<title>Node7_1</title>
<ellipse fill="#40e0d0" stroke="#40e0d0" cx="207" cy="-192" rx="50.89" ry="18"/>
<text text-anchor="middle" x="207" y="-188.3" font-family="Times,serif" font-size="14.00">हृदयेन(7.1)</text>
</g>
<!-- Node7_1&#45;&gt;Node5_1 -->
<g id="edge8" class="edge">
<title>Node7_1&#45;&gt;Node5_1</title>
<path fill="none" stroke="black" d="M207,-220.27C207,-233.58 207,-249.19 207,-260.82"/>
<polygon fill="black" stroke="black" points="210.5,-220.2 207,-210.2 203.5,-220.2 210.5,-220.2"/>
<text text-anchor="middle" x="223" y="-231.8" font-family="Times,serif" font-size="14.00">सहार्थः</text>
</g>
</g>
</svg>
