<?xml version="1.0" encoding="UTF-8" standalone="no"?>
<!DOCTYPE svg PUBLIC "-//W3C//DTD SVG 1.1//EN"
 "http://www.w3.org/Graphics/SVG/1.1/DTD/svg11.dtd">
<!-- Generated by graphviz version 2.43.0 (0)
 -->
<!-- Title: G Pages: 1 -->
<svg width="623pt" height="305pt"
 viewBox="0.00 0.00 623.00 305.00" xmlns="http://www.w3.org/2000/svg" xmlns:xlink="http://www.w3.org/1999/xlink">
<g id="graph0" class="graph" transform="scale(1 1) rotate(0) translate(4 301)">
<title>G</title>
<polygon fill="#fffacd" stroke="transparent" points="-4,4 -4,-301 619,-301 619,4 -4,4"/>
<g id="clust1" class="cluster">
<title>cluster_1</title>
<polygon fill="#fffacd" stroke="black" points="232,-79 232,-218 607,-218 607,-79 232,-79"/>
</g>
<g id="clust2" class="cluster">
<title>cluster_2</title>
<polygon fill="#fffacd" stroke="black" points="8,-79 8,-218 132,-218 132,-79 8,-79"/>
</g>
<!-- Node1_1 -->
<g id="node1" class="node">
<title>Node1_1</title>
<ellipse fill="#ffff00" stroke="#ffff00" cx="534" cy="-105" rx="64.99" ry="18"/>
<text text-anchor="middle" x="534" y="-101.3" font-family="Times,serif" font-size="14.00">अनुवर्तन्तम्(1.1)</text>
</g>
<!-- Node4 -->
<g id="node2" class="node">
<title>Node4</title>
<ellipse fill="#93db70" stroke="#93db70" cx="323" cy="-192" rx="47.39" ry="18"/>
<text text-anchor="middle" x="323" y="-188.3" font-family="Times,serif" font-size="14.00">राजानम्(4)</text>
</g>
<!-- Node1_1&#45;&gt;Node4 -->
<g id="edge1" class="edge">
<title>Node1_1&#45;&gt;Node4</title>
<path fill="none" stroke="black" d="M492.74,-125.13C471.47,-134.77 445.02,-146.41 421,-156 400.03,-164.37 376.17,-172.91 357.25,-179.46"/>
<polygon fill="black" stroke="black" points="494.47,-128.19 502.12,-120.86 491.57,-121.82 494.47,-128.19"/>
<text text-anchor="middle" x="477.5" y="-144.8" font-family="Times,serif" font-size="14.00">विशेषणम्</text>
</g>
<!-- Node8 -->
<g id="node9" class="node">
<title>Node8</title>
<ellipse fill="#ff1975" stroke="#ff1975" cx="182" cy="-279" rx="51.19" ry="18"/>
<text text-anchor="middle" x="182" y="-275.3" font-family="Times,serif" font-size="14.00">अन्ववर्तत(8)</text>
</g>
<!-- Node4&#45;&gt;Node8 -->
<g id="edge6" class="edge">
<title>Node4&#45;&gt;Node8</title>
<path fill="none" stroke="black" d="M290.18,-212.78C264.75,-228.12 230.04,-249.04 206.87,-263.01"/>
<polygon fill="black" stroke="black" points="292,-215.77 298.76,-207.61 288.39,-209.78 292,-215.77"/>
<text text-anchor="middle" x="270" y="-231.8" font-family="Times,serif" font-size="14.00">कर्म</text>
</g>
<!-- Node2_2 -->
<g id="node3" class="node">
<title>Node2_2</title>
<ellipse fill="#93db70" stroke="#93db70" cx="289" cy="-105" rx="49.29" ry="18"/>
<text text-anchor="middle" x="289" y="-101.3" font-family="Times,serif" font-size="14.00">मतिम्(2.2)</text>
</g>
<!-- Node2_2&#45;&gt;Node4 -->
<g id="edge3" class="edge">
<title>Node2_2&#45;&gt;Node4</title>
<path fill="none" stroke="black" d="M299.62,-132.54C305.05,-146.12 311.5,-162.24 316.25,-174.11"/>
<polygon fill="black" stroke="black" points="302.84,-131.19 295.88,-123.2 296.34,-133.79 302.84,-131.19"/>
<text text-anchor="middle" x="331.5" y="-144.8" font-family="Times,serif" font-size="14.00">विशेषणम्</text>
</g>
<!-- Node3_2 -->
<g id="node4" class="node">
<title>Node3_2</title>
<ellipse fill="#93db70" stroke="#93db70" cx="404" cy="-105" rx="47.39" ry="18"/>
<text text-anchor="middle" x="404" y="-101.3" font-family="Times,serif" font-size="14.00">पुत्रम्(3.2)</text>
</g>
<!-- Node3_2&#45;&gt;Node4 -->
<g id="edge5" class="edge">
<title>Node3_2&#45;&gt;Node4</title>
<path fill="none" stroke="black" d="M382.33,-129.96C374.71,-138.28 366.04,-147.61 358,-156 352.05,-162.2 345.41,-168.9 339.52,-174.76"/>
<polygon fill="black" stroke="black" points="385.1,-132.12 389.25,-122.37 379.93,-127.4 385.1,-132.12"/>
<text text-anchor="middle" x="394.5" y="-144.8" font-family="Times,serif" font-size="14.00">विशेषणम्</text>
</g>
<!-- Node5 -->
<g id="node5" class="node">
<title>Node5</title>
<ellipse fill="#00bfff" stroke="#00bfff" cx="70" cy="-105" rx="53.89" ry="18"/>
<text text-anchor="middle" x="70" y="-101.3" font-family="Times,serif" font-size="14.00">पराङ्मुखः(5)</text>
</g>
<!-- Node6 -->
<g id="node6" class="node">
<title>Node6</title>
<ellipse fill="#00bfff" stroke="#00bfff" cx="73" cy="-192" rx="46.29" ry="18"/>
<text text-anchor="middle" x="73" y="-188.3" font-family="Times,serif" font-size="14.00">कौरव्यः(6)</text>
</g>
<!-- Node5&#45;&gt;Node6 -->
<g id="edge7" class="edge">
<title>Node5&#45;&gt;Node6</title>
<path fill="none" stroke="black" d="M70.96,-133.27C71.43,-146.58 71.98,-162.19 72.39,-173.82"/>
<polygon fill="black" stroke="black" points="74.46,-133.07 70.61,-123.2 67.46,-133.32 74.46,-133.07"/>
<text text-anchor="middle" x="94.5" y="-144.8" font-family="Times,serif" font-size="14.00">विशेषणम्</text>
</g>
<!-- Node6&#45;&gt;Node8 -->
<g id="edge8" class="edge">
<title>Node6&#45;&gt;Node8</title>
<path fill="none" stroke="black" d="M100.75,-214.64C119.74,-229.45 144.5,-248.75 161.67,-262.15"/>
<polygon fill="black" stroke="black" points="102.78,-211.78 92.74,-208.39 98.47,-217.3 102.78,-211.78"/>
<text text-anchor="middle" x="146" y="-231.8" font-family="Times,serif" font-size="14.00">कर्ता</text>
</g>
<!-- Node2_1 -->
<g id="node7" class="node">
<title>Node2_1</title>
<ellipse fill="#ffff00" stroke="#ffff00" cx="289" cy="-18" rx="46.59" ry="18"/>
<text text-anchor="middle" x="289" y="-14.3" font-family="Times,serif" font-size="14.00">महा&#45;(2.1)</text>
</g>
<!-- Node2_1&#45;&gt;Node2_2 -->
<g id="edge2" class="edge">
<title>Node2_1&#45;&gt;Node2_2</title>
<path fill="none" stroke="black" d="M289,-46.27C289,-59.58 289,-75.19 289,-86.82"/>
<polygon fill="black" stroke="black" points="292.5,-46.2 289,-36.2 285.5,-46.2 292.5,-46.2"/>
<text text-anchor="middle" x="303" y="-57.8" font-family="Times,serif" font-size="14.00">Bs6</text>
</g>
<!-- Node3_1 -->
<g id="node8" class="node">
<title>Node3_1</title>
<ellipse fill="#ffff00" stroke="#ffff00" cx="404" cy="-18" rx="45.49" ry="18"/>
<text text-anchor="middle" x="404" y="-14.3" font-family="Times,serif" font-size="14.00">धर्म&#45;(3.1)</text>
</g>
<!-- Node3_1&#45;&gt;Node3_2 -->
<g id="edge4" class="edge">
<title>Node3_1&#45;&gt;Node3_2</title>
<path fill="none" stroke="black" d="M404,-46.27C404,-59.58 404,-75.19 404,-86.82"/>
<polygon fill="black" stroke="black" points="407.5,-46.2 404,-36.2 400.5,-46.2 407.5,-46.2"/>
<text text-anchor="middle" x="413.5" y="-57.8" font-family="Times,serif" font-size="14.00">T6</text>
</g>
<!-- Node7 -->
<g id="node10" class="node">
<title>Node7</title>
<ellipse fill="#40e0d0" stroke="#40e0d0" cx="182" cy="-192" rx="42.49" ry="18"/>
<text text-anchor="middle" x="182" y="-188.3" font-family="Times,serif" font-size="14.00">हृदयेन(7)</text>
</g>
<!-- Node7&#45;&gt;Node8 -->
<g id="edge9" class="edge">
<title>Node7&#45;&gt;Node8</title>
<path fill="none" stroke="black" d="M182,-220.27C182,-233.58 182,-249.19 182,-260.82"/>
<polygon fill="black" stroke="black" points="185.5,-220.2 182,-210.2 178.5,-220.2 185.5,-220.2"/>
<text text-anchor="middle" x="198" y="-231.8" font-family="Times,serif" font-size="14.00">सहार्थः</text>
</g>
</g>
</svg>
