<?xml version="1.0" encoding="UTF-8" standalone="no"?>
<!DOCTYPE svg PUBLIC "-//W3C//DTD SVG 1.1//EN"
 "http://www.w3.org/Graphics/SVG/1.1/DTD/svg11.dtd">
<!-- Generated by graphviz version 2.43.0 (0)
 -->
<!-- Title: G Pages: 1 -->
<svg width="781pt" height="408pt"
 viewBox="0.00 0.00 780.70 408.00" xmlns="http://www.w3.org/2000/svg" xmlns:xlink="http://www.w3.org/1999/xlink">
<g id="graph0" class="graph" transform="scale(1 1) rotate(0) translate(4 404)">
<title>G</title>
<polygon fill="#fffacd" stroke="transparent" points="-4,4 -4,-404 776.7,-404 776.7,4 -4,4"/>
<g id="clust1" class="cluster">
<title>cluster_1</title>
<polygon fill="#fffacd" stroke="black" points="411,-95 411,-234 529,-234 529,-95 411,-95"/>
</g>
<g id="clust2" class="cluster">
<title>cluster_2</title>
<polygon fill="#fffacd" stroke="black" points="8,-182 8,-321 136,-321 136,-182 8,-182"/>
</g>
<g id="clust3" class="cluster">
<title>cluster_3</title>
<polygon fill="#fffacd" stroke="black" points="537,-8 537,-147 689,-147 689,-8 537,-8"/>
</g>
<!-- Node1_1 -->
<g id="node1" class="node">
<title>Node1_1</title>
<ellipse fill="#40e0d0" stroke="#40e0d0" cx="470" cy="-121" rx="48.19" ry="18"/>
<text text-anchor="middle" x="470" y="-117.3" font-family="Times,serif" font-size="14.00">धृत्या(1.1)</text>
</g>
<!-- Node7_1 -->
<g id="node2" class="node">
<title>Node7_1</title>
<ellipse fill="#40e0d0" stroke="#40e0d0" cx="470" cy="-208" rx="50.89" ry="18"/>
<text text-anchor="middle" x="470" y="-204.3" font-family="Times,serif" font-size="14.00">शौचेन(7.1)</text>
</g>
<!-- Node1_1&#45;&gt;Node7_1 -->
<g id="edge1" class="edge">
<title>Node1_1&#45;&gt;Node7_1</title>
<path fill="none" stroke="black" d="M470,-149.27C470,-162.58 470,-178.19 470,-189.82"/>
<polygon fill="black" stroke="black" points="473.5,-149.2 470,-139.2 466.5,-149.2 473.5,-149.2"/>
<text text-anchor="middle" x="492.5" y="-160.8" font-family="Times,serif" font-size="14.00">समुच्चितः</text>
</g>
<!-- Node2_1 -->
<g id="node7" class="node">
<title>Node2_1</title>
<ellipse fill="#00bfff" stroke="#00bfff" cx="307" cy="-295" rx="44.39" ry="18"/>
<text text-anchor="middle" x="307" y="-291.3" font-family="Times,serif" font-size="14.00">तुष्टः(2.1)</text>
</g>
<!-- Node7_1&#45;&gt;Node2_1 -->
<g id="edge7" class="edge">
<title>Node7_1&#45;&gt;Node2_1</title>
<path fill="none" stroke="black" d="M433.67,-227.95C403.13,-243.87 360.23,-266.24 333.02,-280.43"/>
<polygon fill="black" stroke="black" points="435.47,-230.95 442.72,-223.23 432.23,-224.75 435.47,-230.95"/>
<text text-anchor="middle" x="415.5" y="-247.8" font-family="Times,serif" font-size="14.00">करणम्</text>
</g>
<!-- Node4_1 -->
<g id="node3" class="node">
<title>Node4_1</title>
<ellipse fill="#00bfff" stroke="#00bfff" cx="72" cy="-208" rx="55.79" ry="18"/>
<text text-anchor="middle" x="72" y="-204.3" font-family="Times,serif" font-size="14.00">गान्धारी(4.1)</text>
</g>
<!-- Node5_1 -->
<g id="node4" class="node">
<title>Node5_1</title>
<ellipse fill="#00bfff" stroke="#00bfff" cx="79" cy="-295" rx="49.29" ry="18"/>
<text text-anchor="middle" x="79" y="-291.3" font-family="Times,serif" font-size="14.00">विदुरः(5.1)</text>
</g>
<!-- Node4_1&#45;&gt;Node5_1 -->
<g id="edge4" class="edge">
<title>Node4_1&#45;&gt;Node5_1</title>
<path fill="none" stroke="black" d="M74.25,-236.27C75.34,-249.58 76.63,-265.19 77.59,-276.82"/>
<polygon fill="black" stroke="black" points="77.73,-235.88 73.42,-226.2 70.75,-236.45 77.73,-235.88"/>
<text text-anchor="middle" x="98.5" y="-247.8" font-family="Times,serif" font-size="14.00">समुच्चितः</text>
</g>
<!-- Node16_1 -->
<g id="node8" class="node">
<title>Node16_1</title>
<ellipse fill="#ff1975" stroke="#ff1975" cx="307" cy="-382" rx="66.09" ry="18"/>
<text text-anchor="middle" x="307" y="-378.3" font-family="Times,serif" font-size="14.00">(आसीत्)(16.1)</text>
</g>
<!-- Node5_1&#45;&gt;Node16_1 -->
<g id="edge5" class="edge">
<title>Node5_1&#45;&gt;Node16_1</title>
<path fill="none" stroke="black" d="M121.68,-311.91C164.26,-327.79 229.03,-351.93 269.64,-367.07"/>
<polygon fill="black" stroke="black" points="122.75,-308.57 112.15,-308.36 120.3,-315.13 122.75,-308.57"/>
<text text-anchor="middle" x="218" y="-334.8" font-family="Times,serif" font-size="14.00">कर्ता</text>
</g>
<!-- Node9_1 -->
<g id="node5" class="node">
<title>Node9_1</title>
<ellipse fill="#87ceeb" stroke="#87ceeb" cx="613" cy="-34" rx="67.69" ry="18"/>
<text text-anchor="middle" x="613" y="-30.3" font-family="Times,serif" font-size="14.00">अजातशत्रोः(9.1)</text>
</g>
<!-- Node3_1 -->
<g id="node6" class="node">
<title>Node3_1</title>
<ellipse fill="#87ceeb" stroke="#87ceeb" cx="607" cy="-121" rx="55.79" ry="18"/>
<text text-anchor="middle" x="607" y="-117.3" font-family="Times,serif" font-size="14.00">नरेन्द्रस्य(3.1)</text>
</g>
<!-- Node9_1&#45;&gt;Node3_1 -->
<g id="edge9" class="edge">
<title>Node9_1&#45;&gt;Node3_1</title>
<path fill="none" stroke="black" d="M611.08,-62.27C610.14,-75.58 609.03,-91.19 608.21,-102.82"/>
<polygon fill="black" stroke="black" points="614.57,-62.42 611.79,-52.2 607.59,-61.93 614.57,-62.42"/>
<text text-anchor="middle" x="632.5" y="-73.8" font-family="Times,serif" font-size="14.00">विशेषणम्</text>
</g>
<!-- Node3_1&#45;&gt;Node7_1 -->
<g id="edge3" class="edge">
<title>Node3_1&#45;&gt;Node7_1</title>
<path fill="none" stroke="black" d="M573.88,-142.55C549.33,-157.78 516.42,-178.2 494.28,-191.94"/>
<polygon fill="black" stroke="black" points="575.86,-145.44 582.51,-137.2 572.16,-139.49 575.86,-145.44"/>
<text text-anchor="middle" x="574.5" y="-160.8" font-family="Times,serif" font-size="14.00">षष्ठीसम्बन्धः</text>
</g>
<!-- Node2_1&#45;&gt;Node16_1 -->
<g id="edge2" class="edge">
<title>Node2_1&#45;&gt;Node16_1</title>
<path fill="none" stroke="black" d="M307,-323.27C307,-336.58 307,-352.19 307,-363.82"/>
<polygon fill="black" stroke="black" points="310.5,-323.2 307,-313.2 303.5,-323.2 310.5,-323.2"/>
<text text-anchor="middle" x="346" y="-334.8" font-family="Times,serif" font-size="14.00">विधेय_विशेषणम्</text>
</g>
<!-- Node6_1 -->
<g id="node9" class="node">
<title>Node6_1</title>
<ellipse fill="#ff99ff" stroke="#ff99ff" cx="191" cy="-208" rx="44.69" ry="18"/>
<text text-anchor="middle" x="191" y="-204.3" font-family="Times,serif" font-size="14.00">तथा(6.1)</text>
</g>
<!-- Node6_1&#45;&gt;Node5_1 -->
<g id="edge6" class="edge">
<title>Node6_1&#45;&gt;Node5_1</title>
<path fill="none" stroke="black" d="M162.96,-230.28C143.28,-245.21 117.4,-264.85 99.61,-278.36"/>
<polygon fill="black" stroke="black" points="165.13,-233.03 170.98,-224.2 160.89,-227.45 165.13,-233.03"/>
<text text-anchor="middle" x="160.5" y="-247.8" font-family="Times,serif" font-size="14.00">सम्बन्धः</text>
</g>
<!-- Node8_1 -->
<g id="node10" class="node">
<title>Node8_1</title>
<ellipse fill="#ff99ff" stroke="#ff99ff" cx="735" cy="-121" rx="37.89" ry="18"/>
<text text-anchor="middle" x="735" y="-117.3" font-family="Times,serif" font-size="14.00">च(8.1)</text>
</g>
<!-- Node8_1&#45;&gt;Node7_1 -->
<g id="edge8" class="edge">
<title>Node8_1&#45;&gt;Node7_1</title>
<path fill="none" stroke="black" d="M704.89,-141.16C700.97,-143.29 696.94,-145.29 693,-147 633.58,-172.71 560.38,-189.86 514.43,-199.02"/>
<polygon fill="black" stroke="black" points="706.83,-144.08 713.76,-136.08 703.35,-138.01 706.83,-144.08"/>
<text text-anchor="middle" x="701" y="-160.8" font-family="Times,serif" font-size="14.00">समुच्चय_द्योतकः</text>
</g>
<!-- Node10_1 -->
<g id="node11" class="node">
<title>Node10_1</title>
<ellipse fill="#ff99ff" stroke="#ff99ff" cx="256" cy="-121" rx="42.79" ry="18"/>
<text text-anchor="middle" x="256" y="-117.3" font-family="Times,serif" font-size="14.00">न(10.1)</text>
</g>
<!-- Node14_1 -->
<g id="node12" class="node">
<title>Node14_1</title>
<ellipse fill="#00bfff" stroke="#00bfff" cx="304" cy="-208" rx="50.09" ry="18"/>
<text text-anchor="middle" x="304" y="-204.3" font-family="Times,serif" font-size="14.00">तुष्टः(14.1)</text>
</g>
<!-- Node10_1&#45;&gt;Node14_1 -->
<g id="edge10" class="edge">
<title>Node10_1&#45;&gt;Node14_1</title>
<path fill="none" stroke="black" d="M270.57,-147.8C278.35,-161.58 287.7,-178.14 294.54,-190.24"/>
<polygon fill="black" stroke="black" points="273.45,-145.78 265.48,-138.79 267.35,-149.22 273.45,-145.78"/>
<text text-anchor="middle" x="302.5" y="-160.8" font-family="Times,serif" font-size="14.00">प्रतिषेधः</text>
</g>
<!-- Node14_1&#45;&gt;Node5_1 -->
<g id="edge14" class="edge">
<title>Node14_1&#45;&gt;Node5_1</title>
<path fill="none" stroke="black" d="M263.54,-226.25C257.34,-228.87 251,-231.52 245,-234 217.54,-245.35 210.87,-248.7 183,-259 160.48,-267.32 134.94,-275.93 114.8,-282.53"/>
<polygon fill="black" stroke="black" points="265.27,-229.32 273.12,-222.21 262.54,-222.88 265.27,-229.32"/>
<text text-anchor="middle" x="260" y="-247.8" font-family="Times,serif" font-size="14.00">विधेय_विशेषणम्</text>
</g>
<!-- Node11_1 -->
<g id="node13" class="node">
<title>Node11_1</title>
<ellipse fill="#ff99ff" stroke="#ff99ff" cx="360" cy="-121" rx="42.79" ry="18"/>
<text text-anchor="middle" x="360" y="-117.3" font-family="Times,serif" font-size="14.00">तु(11.1)</text>
</g>
<!-- Node11_1&#45;&gt;Node14_1 -->
<g id="edge11" class="edge">
<title>Node11_1&#45;&gt;Node14_1</title>
<path fill="none" stroke="black" d="M343.26,-147.4C334.14,-161.26 323.09,-178.03 315.04,-190.24"/>
<polygon fill="black" stroke="black" points="346.36,-149.07 348.94,-138.79 340.51,-145.22 346.36,-149.07"/>
<text text-anchor="middle" x="354.5" y="-160.8" font-family="Times,serif" font-size="14.00">सम्बन्धः</text>
</g>
<!-- Node12_1 -->
<g id="node14" class="node">
<title>Node12_1</title>
<ellipse fill="#87ceeb" stroke="#87ceeb" cx="131" cy="-34" rx="59.59" ry="18"/>
<text text-anchor="middle" x="131" y="-30.3" font-family="Times,serif" font-size="14.00">भीमस्य(12.1)</text>
</g>
<!-- Node13_1 -->
<g id="node15" class="node">
<title>Node13_1</title>
<ellipse fill="#40e0d0" stroke="#40e0d0" cx="131" cy="-121" rx="63.89" ry="18"/>
<text text-anchor="middle" x="131" y="-117.3" font-family="Times,serif" font-size="14.00">(शौचेन)(13.1)</text>
</g>
<!-- Node12_1&#45;&gt;Node13_1 -->
<g id="edge12" class="edge">
<title>Node12_1&#45;&gt;Node13_1</title>
<path fill="none" stroke="black" d="M131,-62.27C131,-75.58 131,-91.19 131,-102.82"/>
<polygon fill="black" stroke="black" points="134.5,-62.2 131,-52.2 127.5,-62.2 134.5,-62.2"/>
<text text-anchor="middle" x="158.5" y="-73.8" font-family="Times,serif" font-size="14.00">षष्ठीसम्बन्धः</text>
</g>
<!-- Node13_1&#45;&gt;Node14_1 -->
<g id="edge13" class="edge">
<title>Node13_1&#45;&gt;Node14_1</title>
<path fill="none" stroke="black" d="M170.65,-141.48C202.76,-157.26 247.2,-179.09 275.78,-193.13"/>
<polygon fill="black" stroke="black" points="172.05,-138.27 161.53,-137 168.96,-144.55 172.05,-138.27"/>
<text text-anchor="middle" x="244.5" y="-160.8" font-family="Times,serif" font-size="14.00">करणम्</text>
</g>
<!-- Node15_1 -->
<g id="node16" class="node">
<title>Node15_1</title>
<ellipse fill="#6fffc3" stroke="#6fffc3" cx="428" cy="-295" rx="58.49" ry="18"/>
<text text-anchor="middle" x="428" y="-291.3" font-family="Times,serif" font-size="14.00">शत्रुहन्(15.1)</text>
</g>
<!-- Node15_1&#45;&gt;Node16_1 -->
<g id="edge15" class="edge">
<title>Node15_1&#45;&gt;Node16_1</title>
<path fill="none" stroke="black" d="M412.02,-321.46C405.66,-330.1 397.77,-339.25 389,-346 377.1,-355.16 362.45,-362.4 348.83,-367.86"/>
<polygon fill="black" stroke="black" points="414.99,-323.32 417.84,-313.11 409.25,-319.32 414.99,-323.32"/>
<text text-anchor="middle" x="425" y="-334.8" font-family="Times,serif" font-size="14.00">सम्बोध्यः</text>
</g>
</g>
</svg>
