<?xml version="1.0" encoding="UTF-8" standalone="no"?>
<!DOCTYPE svg PUBLIC "-//W3C//DTD SVG 1.1//EN"
 "http://www.w3.org/Graphics/SVG/1.1/DTD/svg11.dtd">
<!-- Generated by graphviz version 2.43.0 (0)
 -->
<!-- Title: G Pages: 1 -->
<svg width="827pt" height="408pt"
 viewBox="0.00 0.00 826.74 408.00" xmlns="http://www.w3.org/2000/svg" xmlns:xlink="http://www.w3.org/1999/xlink">
<g id="graph0" class="graph" transform="scale(1 1) rotate(0) translate(4 404)">
<title>G</title>
<polygon fill="#fffacd" stroke="transparent" points="-4,4 -4,-404 822.74,-404 822.74,4 -4,4"/>
<g id="clust1" class="cluster">
<title>cluster_1</title>
<polygon fill="#fffacd" stroke="black" points="214.45,-95 214.45,-234 412.45,-234 412.45,-95 214.45,-95"/>
</g>
<g id="clust2" class="cluster">
<title>cluster_2</title>
<polygon fill="#fffacd" stroke="black" points="420.45,-8 420.45,-147 524.45,-147 524.45,-8 420.45,-8"/>
</g>
<g id="clust3" class="cluster">
<title>cluster_3</title>
<polygon fill="#fffacd" stroke="black" points="532.45,-8 532.45,-147 636.45,-147 636.45,-8 532.45,-8"/>
</g>
<!-- Node3 -->
<g id="node1" class="node">
<title>Node3</title>
<ellipse fill="#00bfff" stroke="#00bfff" cx="371.45" cy="-121" rx="33.29" ry="18"/>
<text text-anchor="middle" x="371.45" y="-117.3" font-family="Times,serif" font-size="14.00">यत्(3)</text>
</g>
<!-- Node6 -->
<g id="node2" class="node">
<title>Node6</title>
<ellipse fill="#00bfff" stroke="#00bfff" cx="271.45" cy="-208" rx="40.09" ry="18"/>
<text text-anchor="middle" x="271.45" y="-204.3" font-family="Times,serif" font-size="14.00">पापम्(6)</text>
</g>
<!-- Node3&#45;&gt;Node6 -->
<g id="edge3" class="edge">
<title>Node3&#45;&gt;Node6</title>
<path fill="none" stroke="black" d="M349.61,-144.89C340.83,-153.68 330.44,-163.62 320.45,-172 311.8,-179.26 301.72,-186.62 292.97,-192.71"/>
<polygon fill="black" stroke="black" points="352.34,-147.1 356.85,-137.52 347.35,-142.19 352.34,-147.1"/>
<text text-anchor="middle" x="358.95" y="-160.8" font-family="Times,serif" font-size="14.00">विशेषणम्</text>
</g>
<!-- Node7 -->
<g id="node9" class="node">
<title>Node7</title>
<ellipse fill="#00bfff" stroke="#00bfff" cx="146.45" cy="-295" rx="39.79" ry="18"/>
<text text-anchor="middle" x="146.45" y="-291.3" font-family="Times,serif" font-size="14.00">कृतम्(7)</text>
</g>
<!-- Node6&#45;&gt;Node7 -->
<g id="edge6" class="edge">
<title>Node6&#45;&gt;Node7</title>
<path fill="none" stroke="black" d="M241.95,-229.06C219.17,-244.55 188.17,-265.63 167.76,-279.51"/>
<polygon fill="black" stroke="black" points="243.94,-231.94 250.24,-223.42 240.01,-226.15 243.94,-231.94"/>
<text text-anchor="middle" x="224.45" y="-247.8" font-family="Times,serif" font-size="14.00">कर्म</text>
</g>
<!-- Node5 -->
<g id="node3" class="node">
<title>Node5</title>
<ellipse fill="#ff99ff" stroke="#ff99ff" cx="271.45" cy="-121" rx="48.99" ry="18"/>
<text text-anchor="middle" x="271.45" y="-117.3" font-family="Times,serif" font-size="14.00">किञ्चित्(5)</text>
</g>
<!-- Node5&#45;&gt;Node6 -->
<g id="edge5" class="edge">
<title>Node5&#45;&gt;Node6</title>
<path fill="none" stroke="black" d="M271.45,-149.27C271.45,-162.58 271.45,-178.19 271.45,-189.82"/>
<polygon fill="black" stroke="black" points="274.95,-149.2 271.45,-139.2 267.95,-149.2 274.95,-149.2"/>
<text text-anchor="middle" x="293.95" y="-160.8" font-family="Times,serif" font-size="14.00">विशेषणम्</text>
</g>
<!-- Node9 -->
<g id="node4" class="node">
<title>Node9</title>
<ellipse fill="#00bfff" stroke="#00bfff" cx="471.45" cy="-34" rx="31.7" ry="18"/>
<text text-anchor="middle" x="471.45" y="-30.3" font-family="Times,serif" font-size="14.00">सः(9)</text>
</g>
<!-- Node10 -->
<g id="node5" class="node">
<title>Node10</title>
<ellipse fill="#00bfff" stroke="#00bfff" cx="472.45" cy="-121" rx="43.59" ry="18"/>
<text text-anchor="middle" x="472.45" y="-117.3" font-family="Times,serif" font-size="14.00">राजा(10)</text>
</g>
<!-- Node9&#45;&gt;Node10 -->
<g id="edge9" class="edge">
<title>Node9&#45;&gt;Node10</title>
<path fill="none" stroke="black" d="M471.77,-62.27C471.92,-75.58 472.11,-91.19 472.24,-102.82"/>
<polygon fill="black" stroke="black" points="475.27,-62.16 471.65,-52.2 468.27,-62.24 475.27,-62.16"/>
<text text-anchor="middle" x="493.95" y="-73.8" font-family="Times,serif" font-size="14.00">विशेषणम्</text>
</g>
<!-- Node15 -->
<g id="node15" class="node">
<title>Node15</title>
<ellipse fill="#ff1975" stroke="#ff1975" cx="584.45" cy="-208" rx="57.39" ry="18"/>
<text text-anchor="middle" x="584.45" y="-204.3" font-family="Times,serif" font-size="14.00">अन्ववर्तत(15)</text>
</g>
<!-- Node10&#45;&gt;Node15 -->
<g id="edge10" class="edge">
<title>Node10&#45;&gt;Node15</title>
<path fill="none" stroke="black" d="M500.69,-143.44C520.21,-158.25 545.74,-177.62 563.46,-191.07"/>
<polygon fill="black" stroke="black" points="502.55,-140.45 492.47,-137.2 498.32,-146.03 502.55,-140.45"/>
<text text-anchor="middle" x="545.45" y="-160.8" font-family="Times,serif" font-size="14.00">कर्ता</text>
</g>
<!-- Node13 -->
<g id="node6" class="node">
<title>Node13</title>
<ellipse fill="#93db70" stroke="#93db70" cx="583.45" cy="-34" rx="38.99" ry="18"/>
<text text-anchor="middle" x="583.45" y="-30.3" font-family="Times,serif" font-size="14.00">तम्(13)</text>
</g>
<!-- Node14 -->
<g id="node7" class="node">
<title>Node14</title>
<ellipse fill="#93db70" stroke="#93db70" cx="584.45" cy="-121" rx="44.39" ry="18"/>
<text text-anchor="middle" x="584.45" y="-117.3" font-family="Times,serif" font-size="14.00">नृपम्(14)</text>
</g>
<!-- Node13&#45;&gt;Node14 -->
<g id="edge13" class="edge">
<title>Node13&#45;&gt;Node14</title>
<path fill="none" stroke="black" d="M583.77,-62.27C583.92,-75.58 584.11,-91.19 584.24,-102.82"/>
<polygon fill="black" stroke="black" points="587.27,-62.16 583.65,-52.2 580.27,-62.24 587.27,-62.16"/>
<text text-anchor="middle" x="605.95" y="-73.8" font-family="Times,serif" font-size="14.00">विशेषणम्</text>
</g>
<!-- Node14&#45;&gt;Node15 -->
<g id="edge14" class="edge">
<title>Node14&#45;&gt;Node15</title>
<path fill="none" stroke="black" d="M584.45,-149.27C584.45,-162.58 584.45,-178.19 584.45,-189.82"/>
<polygon fill="black" stroke="black" points="587.95,-149.2 584.45,-139.2 580.95,-149.2 587.95,-149.2"/>
<text text-anchor="middle" x="593.45" y="-160.8" font-family="Times,serif" font-size="14.00">कर्म</text>
</g>
<!-- Node1 -->
<g id="node8" class="node">
<title>Node1</title>
<ellipse fill="#ff99ff" stroke="#ff99ff" cx="34.45" cy="-208" rx="34.39" ry="18"/>
<text text-anchor="middle" x="34.45" y="-204.3" font-family="Times,serif" font-size="14.00">पुरा(1)</text>
</g>
<!-- Node1&#45;&gt;Node7 -->
<g id="edge1" class="edge">
<title>Node1&#45;&gt;Node7</title>
<path fill="none" stroke="black" d="M49.25,-233.95C55.31,-242.68 62.92,-252.03 71.45,-259 84.46,-269.64 101.25,-277.86 115.64,-283.66"/>
<polygon fill="black" stroke="black" points="52.14,-231.97 43.72,-225.53 46.29,-235.81 52.14,-231.97"/>
<text text-anchor="middle" x="106.95" y="-247.8" font-family="Times,serif" font-size="14.00">कालाधिकरणम्</text>
</g>
<!-- Node16 -->
<g id="node12" class="node">
<title>Node16</title>
<ellipse fill="#ff1975" stroke="#ff1975" cx="146.45" cy="-382" rx="57.69" ry="18"/>
<text text-anchor="middle" x="146.45" y="-378.3" font-family="Times,serif" font-size="14.00">(आसीत्)(16)</text>
</g>
<!-- Node7&#45;&gt;Node16 -->
<g id="edge7" class="edge">
<title>Node7&#45;&gt;Node16</title>
<path fill="none" stroke="black" d="M146.45,-323.27C146.45,-336.58 146.45,-352.19 146.45,-363.82"/>
<polygon fill="black" stroke="black" points="149.95,-323.2 146.45,-313.2 142.95,-323.2 149.95,-323.2"/>
<text text-anchor="middle" x="157.45" y="-334.8" font-family="Times,serif" font-size="14.00">कर्ता</text>
</g>
<!-- Node2 -->
<g id="node10" class="node">
<title>Node2</title>
<ellipse fill="#40e0d0" stroke="#40e0d0" cx="146.45" cy="-208" rx="59.59" ry="18"/>
<text text-anchor="middle" x="146.45" y="-204.3" font-family="Times,serif" font-size="14.00">धृतराष्ट्रसुतैः(2)</text>
</g>
<!-- Node2&#45;&gt;Node7 -->
<g id="edge2" class="edge">
<title>Node2&#45;&gt;Node7</title>
<path fill="none" stroke="black" d="M146.45,-236.27C146.45,-249.58 146.45,-265.19 146.45,-276.82"/>
<polygon fill="black" stroke="black" points="149.95,-236.2 146.45,-226.2 142.95,-236.2 149.95,-236.2"/>
<text text-anchor="middle" x="157.45" y="-247.8" font-family="Times,serif" font-size="14.00">कर्ता</text>
</g>
<!-- Node4 -->
<g id="node11" class="node">
<title>Node4</title>
<ellipse fill="#ff99ff" stroke="#ff99ff" cx="371.45" cy="-34" rx="28.7" ry="18"/>
<text text-anchor="middle" x="371.45" y="-30.3" font-family="Times,serif" font-size="14.00">च(4)</text>
</g>
<!-- Node4&#45;&gt;Node3 -->
<g id="edge4" class="edge">
<title>Node4&#45;&gt;Node3</title>
<path fill="none" stroke="black" d="M371.45,-62.27C371.45,-75.58 371.45,-91.19 371.45,-102.82"/>
<polygon fill="black" stroke="black" points="374.95,-62.2 371.45,-52.2 367.95,-62.2 374.95,-62.2"/>
<text text-anchor="middle" x="389.95" y="-73.8" font-family="Times,serif" font-size="14.00">सम्बन्धः</text>
</g>
<!-- Node8 -->
<g id="node13" class="node">
<title>Node8</title>
<ellipse fill="#93db70" stroke="#93db70" cx="687.45" cy="-34" rx="33.29" ry="18"/>
<text text-anchor="middle" x="687.45" y="-30.3" font-family="Times,serif" font-size="14.00">तत्(8)</text>
</g>
<!-- Node12 -->
<g id="node14" class="node">
<title>Node12</title>
<ellipse fill="#ff99ff" stroke="#ff99ff" cx="698.45" cy="-121" rx="51.99" ry="18"/>
<text text-anchor="middle" x="698.45" y="-117.3" font-family="Times,serif" font-size="14.00">अकृत्वा(12)</text>
</g>
<!-- Node8&#45;&gt;Node12 -->
<g id="edge8" class="edge">
<title>Node8&#45;&gt;Node12</title>
<path fill="none" stroke="black" d="M690.98,-62.27C692.7,-75.58 694.72,-91.19 696.22,-102.82"/>
<polygon fill="black" stroke="black" points="694.43,-61.67 689.67,-52.2 687.49,-62.57 694.43,-61.67"/>
<text text-anchor="middle" x="702.45" y="-73.8" font-family="Times,serif" font-size="14.00">कर्म</text>
</g>
<!-- Node12&#45;&gt;Node15 -->
<g id="edge12" class="edge">
<title>Node12&#45;&gt;Node15</title>
<path fill="none" stroke="black" d="M669.42,-143.64C649.52,-158.48 623.57,-177.83 605.61,-191.22"/>
<polygon fill="black" stroke="black" points="671.61,-146.37 677.54,-137.59 667.43,-140.76 671.61,-146.37"/>
<text text-anchor="middle" x="667.95" y="-160.8" font-family="Times,serif" font-size="14.00">पूर्वकालः</text>
</g>
<!-- Node11 -->
<g id="node16" class="node">
<title>Node11</title>
<ellipse fill="#c6e2eb" stroke="#c6e2eb" cx="778.45" cy="-34" rx="40.09" ry="18"/>
<text text-anchor="middle" x="778.45" y="-30.3" font-family="Times,serif" font-size="14.00">हृदि(11)</text>
</g>
<!-- Node11&#45;&gt;Node12 -->
<g id="edge11" class="edge">
<title>Node11&#45;&gt;Node12</title>
<path fill="none" stroke="black" d="M756.33,-58.5C742.87,-72.8 726.02,-90.71 713.97,-103.5"/>
<polygon fill="black" stroke="black" points="759.09,-60.67 763.4,-50.99 754,-55.87 759.09,-60.67"/>
<text text-anchor="middle" x="769.95" y="-73.8" font-family="Times,serif" font-size="14.00">अधिकरणम्</text>
</g>
</g>
</svg>
