<?xml version="1.0" encoding="UTF-8" standalone="no"?>
<!DOCTYPE svg PUBLIC "-//W3C//DTD SVG 1.1//EN"
 "http://www.w3.org/Graphics/SVG/1.1/DTD/svg11.dtd">
<!-- Generated by graphviz version 2.43.0 (0)
 -->
<!-- Title: G Pages: 1 -->
<svg width="878pt" height="495pt"
 viewBox="0.00 0.00 878.00 495.00" xmlns="http://www.w3.org/2000/svg" xmlns:xlink="http://www.w3.org/1999/xlink">
<g id="graph0" class="graph" transform="scale(1 1) rotate(0) translate(4 491)">
<title>G</title>
<polygon fill="#fffacd" stroke="transparent" points="-4,4 -4,-491 874,-491 874,4 -4,4"/>
<g id="clust1" class="cluster">
<title>cluster_1</title>
<polygon fill="#fffacd" stroke="black" points="8,-95 8,-234 196,-234 196,-95 8,-95"/>
</g>
<g id="clust2" class="cluster">
<title>cluster_2</title>
<polygon fill="#fffacd" stroke="black" points="308,-8 308,-147 542,-147 542,-8 308,-8"/>
</g>
<!-- Node4_1 -->
<g id="node1" class="node">
<title>Node4_1</title>
<ellipse fill="#00bfff" stroke="#00bfff" cx="102" cy="-121" rx="86.38" ry="18"/>
<text text-anchor="middle" x="102" y="-117.3" font-family="Times,serif" font-size="14.00">निष्टनन्(निष्चितः)(4.1)</text>
</g>
<!-- Node2_1 -->
<g id="node2" class="node">
<title>Node2_1</title>
<ellipse fill="#00bfff" stroke="#00bfff" cx="140" cy="-208" rx="48.19" ry="18"/>
<text text-anchor="middle" x="140" y="-204.3" font-family="Times,serif" font-size="14.00">भीमः(2.1)</text>
</g>
<!-- Node4_1&#45;&gt;Node2_1 -->
<g id="edge4" class="edge">
<title>Node4_1&#45;&gt;Node2_1</title>
<path fill="none" stroke="black" d="M113.87,-148.54C119.94,-162.12 127.14,-178.24 132.45,-190.11"/>
<polygon fill="black" stroke="black" points="116.97,-146.9 109.69,-139.2 110.58,-149.76 116.97,-146.9"/>
<text text-anchor="middle" x="145.5" y="-160.8" font-family="Times,serif" font-size="14.00">विशेषणम्</text>
</g>
<!-- Node1_1 -->
<g id="node6" class="node">
<title>Node1_1</title>
<ellipse fill="#ff1975" stroke="#ff1975" cx="242" cy="-295" rx="59.59" ry="18"/>
<text text-anchor="middle" x="242" y="-291.3" font-family="Times,serif" font-size="14.00">अन्ववर्तत(1.1)</text>
</g>
<!-- Node2_1&#45;&gt;Node1_1 -->
<g id="edge2" class="edge">
<title>Node2_1&#45;&gt;Node1_1</title>
<path fill="none" stroke="black" d="M166.4,-231C184.02,-245.68 206.79,-264.66 222.72,-277.93"/>
<polygon fill="black" stroke="black" points="168.63,-228.3 158.71,-224.59 164.15,-233.68 168.63,-228.3"/>
<text text-anchor="middle" x="208" y="-247.8" font-family="Times,serif" font-size="14.00">कर्ता</text>
</g>
<!-- Node4_2 -->
<g id="node3" class="node">
<title>Node4_2</title>
<ellipse fill="#93db70" stroke="#93db70" cx="481" cy="-34" rx="53.09" ry="18"/>
<text text-anchor="middle" x="481" y="-30.3" font-family="Times,serif" font-size="14.00">धर्मजम्(4.2)</text>
</g>
<!-- Node6_1 -->
<g id="node4" class="node">
<title>Node6_1</title>
<ellipse fill="#93db70" stroke="#93db70" cx="378" cy="-121" rx="60.39" ry="18"/>
<text text-anchor="middle" x="378" y="-117.3" font-family="Times,serif" font-size="14.00">धृतराष्ट्रम्(6.1)</text>
</g>
<!-- Node4_2&#45;&gt;Node6_1 -->
<g id="edge5" class="edge">
<title>Node4_2&#45;&gt;Node6_1</title>
<path fill="none" stroke="black" d="M453.9,-57.36C436.23,-71.94 413.58,-90.64 397.64,-103.79"/>
<polygon fill="black" stroke="black" points="456.14,-60.05 461.63,-50.99 451.69,-54.65 456.14,-60.05"/>
<text text-anchor="middle" x="457.5" y="-73.8" font-family="Times,serif" font-size="14.00">विशेषणम्</text>
</g>
<!-- Node8_1 -->
<g id="node9" class="node">
<title>Node8_1</title>
<ellipse fill="#ff99ff" stroke="#ff99ff" cx="325" cy="-208" rx="55.49" ry="18"/>
<text text-anchor="middle" x="325" y="-204.3" font-family="Times,serif" font-size="14.00">सम्प्रेक्ष्य(8.1)</text>
</g>
<!-- Node6_1&#45;&gt;Node8_1 -->
<g id="edge7" class="edge">
<title>Node6_1&#45;&gt;Node8_1</title>
<path fill="none" stroke="black" d="M362.16,-147.4C353.52,-161.26 343.07,-178.03 335.45,-190.24"/>
<polygon fill="black" stroke="black" points="365.21,-149.13 367.53,-138.79 359.27,-145.43 365.21,-149.13"/>
<text text-anchor="middle" x="363" y="-160.8" font-family="Times,serif" font-size="14.00">कर्म</text>
</g>
<!-- Node5_1 -->
<g id="node5" class="node">
<title>Node5_1</title>
<ellipse fill="#93db70" stroke="#93db70" cx="363" cy="-34" rx="46.59" ry="18"/>
<text text-anchor="middle" x="363" y="-30.3" font-family="Times,serif" font-size="14.00">नृपम्(5.1)</text>
</g>
<!-- Node5_1&#45;&gt;Node6_1 -->
<g id="edge6" class="edge">
<title>Node5_1&#45;&gt;Node6_1</title>
<path fill="none" stroke="black" d="M367.81,-62.27C370.16,-75.58 372.92,-91.19 374.97,-102.82"/>
<polygon fill="black" stroke="black" points="371.22,-61.44 366.04,-52.2 364.33,-62.66 371.22,-61.44"/>
<text text-anchor="middle" x="393.5" y="-73.8" font-family="Times,serif" font-size="14.00">विशेषणम्</text>
</g>
<!-- Node13_1 -->
<g id="node7" class="node">
<title>Node13_1</title>
<ellipse fill="#ff99ff" stroke="#ff99ff" cx="242" cy="-382" rx="61.99" ry="18"/>
<text text-anchor="middle" x="242" y="-378.3" font-family="Times,serif" font-size="14.00">(यद्यपि)(13.1)</text>
</g>
<!-- Node1_1&#45;&gt;Node13_1 -->
<g id="edge1" class="edge">
<title>Node1_1&#45;&gt;Node13_1</title>
<path fill="none" stroke="black" d="M242,-323.27C242,-336.58 242,-352.19 242,-363.82"/>
<polygon fill="black" stroke="black" points="245.5,-323.2 242,-313.2 238.5,-323.2 245.5,-323.2"/>
<text text-anchor="middle" x="263" y="-334.8" font-family="Times,serif" font-size="14.00">प्रतियोगी</text>
</g>
<!-- Node14_1 -->
<g id="node15" class="node">
<title>Node14_1</title>
<ellipse fill="#ff99ff" stroke="#ff99ff" cx="447" cy="-382" rx="64.99" ry="18"/>
<text text-anchor="middle" x="447" y="-378.3" font-family="Times,serif" font-size="14.00">(तथापि)(14.1)</text>
</g>
<!-- Node13_1&#45;&gt;Node14_1 -->
<g id="edge13" class="edge">
<title>Node13_1&#45;&gt;Node14_1</title>
<path fill="none" stroke="red" stroke-dasharray="5,2" d="M314.08,-382C332.76,-382 352.93,-382 371.77,-382"/>
<polygon fill="red" stroke="red" points="313.78,-378.5 303.78,-382 313.78,-385.5 313.78,-378.5"/>
<polygon fill="red" stroke="red" points="371.78,-385.5 381.78,-382 371.78,-378.5 371.78,-385.5"/>
<text text-anchor="middle" x="342.88" y="-367.8" font-family="Times,serif" font-size="14.00">नित्यसम्बन्धः</text>
</g>
<!-- Node3_1 -->
<g id="node8" class="node">
<title>Node3_1</title>
<ellipse fill="#ff99ff" stroke="#ff99ff" cx="253" cy="-121" rx="46.29" ry="18"/>
<text text-anchor="middle" x="253" y="-117.3" font-family="Times,serif" font-size="14.00">अपि(3.1)</text>
</g>
<!-- Node3_1&#45;&gt;Node2_1 -->
<g id="edge3" class="edge">
<title>Node3_1&#45;&gt;Node2_1</title>
<path fill="none" stroke="black" d="M224.66,-143.32C204.67,-158.36 178.36,-178.15 160.41,-191.65"/>
<polygon fill="black" stroke="black" points="226.91,-146 232.8,-137.2 222.7,-140.41 226.91,-146"/>
<text text-anchor="middle" x="221.5" y="-160.8" font-family="Times,serif" font-size="14.00">सम्बन्धः</text>
</g>
<!-- Node8_1&#45;&gt;Node1_1 -->
<g id="edge9" class="edge">
<title>Node8_1&#45;&gt;Node1_1</title>
<path fill="none" stroke="black" d="M301.7,-232.86C287.85,-247.05 270.62,-264.69 258.24,-277.37"/>
<polygon fill="black" stroke="black" points="304.51,-234.99 309,-225.39 299.51,-230.1 304.51,-234.99"/>
<text text-anchor="middle" x="308.5" y="-247.8" font-family="Times,serif" font-size="14.00">पूर्वकालः</text>
</g>
<!-- Node7_1 -->
<g id="node10" class="node">
<title>Node7_1</title>
<ellipse fill="#ff99ff" stroke="#ff99ff" cx="568" cy="-382" rx="37.89" ry="18"/>
<text text-anchor="middle" x="568" y="-378.3" font-family="Times,serif" font-size="14.00">च(7.1)</text>
</g>
<!-- Node10_1 -->
<g id="node11" class="node">
<title>Node10_1</title>
<ellipse fill="#ff1975" stroke="#ff1975" cx="618" cy="-469" rx="55.79" ry="18"/>
<text text-anchor="middle" x="618" y="-465.3" font-family="Times,serif" font-size="14.00">भवति(10.1)</text>
</g>
<!-- Node7_1&#45;&gt;Node10_1 -->
<g id="edge8" class="edge">
<title>Node7_1&#45;&gt;Node10_1</title>
<path fill="none" stroke="black" d="M583.18,-408.8C591.28,-422.58 601.03,-439.14 608.14,-451.24"/>
<polygon fill="black" stroke="black" points="585.97,-406.64 577.88,-399.79 579.93,-410.19 585.97,-406.64"/>
<text text-anchor="middle" x="613.5" y="-421.8" font-family="Times,serif" font-size="14.00">सम्बन्धः</text>
</g>
<!-- Node9_1 -->
<g id="node12" class="node">
<title>Node9_1</title>
<ellipse fill="#ff99ff" stroke="#ff99ff" cx="669" cy="-382" rx="44.69" ry="18"/>
<text text-anchor="middle" x="669" y="-378.3" font-family="Times,serif" font-size="14.00">सदा(9.1)</text>
</g>
<!-- Node9_1&#45;&gt;Node10_1 -->
<g id="edge10" class="edge">
<title>Node9_1&#45;&gt;Node10_1</title>
<path fill="none" stroke="black" d="M653.76,-408.4C645.44,-422.26 635.38,-439.03 628.06,-451.24"/>
<polygon fill="black" stroke="black" points="656.78,-410.17 658.92,-399.79 650.78,-406.57 656.78,-410.17"/>
<text text-anchor="middle" x="681" y="-421.8" font-family="Times,serif" font-size="14.00">क्रियाविशेषणम्</text>
</g>
<!-- Node12_1 -->
<g id="node13" class="node">
<title>Node12_1</title>
<ellipse fill="#00bfff" stroke="#00bfff" cx="792" cy="-382" rx="60.39" ry="18"/>
<text text-anchor="middle" x="792" y="-378.3" font-family="Times,serif" font-size="14.00">(भीमः)(12.1)</text>
</g>
<!-- Node12_1&#45;&gt;Node10_1 -->
<g id="edge12" class="edge">
<title>Node12_1&#45;&gt;Node10_1</title>
<path fill="none" stroke="black" d="M764.13,-405.05C751.22,-414.54 735.37,-425.22 720,-433 700.79,-442.73 678.26,-450.78 659.26,-456.7"/>
<polygon fill="black" stroke="black" points="766.26,-407.83 772.15,-399.03 762.05,-402.23 766.26,-407.83"/>
<text text-anchor="middle" x="755" y="-421.8" font-family="Times,serif" font-size="14.00">कर्ता</text>
</g>
<!-- Node11_1 -->
<g id="node14" class="node">
<title>Node11_1</title>
<ellipse fill="#00bfff" stroke="#00bfff" cx="792" cy="-295" rx="57.39" ry="18"/>
<text text-anchor="middle" x="792" y="-291.3" font-family="Times,serif" font-size="14.00">दुर्मनाः(11.1)</text>
</g>
<!-- Node11_1&#45;&gt;Node12_1 -->
<g id="edge11" class="edge">
<title>Node11_1&#45;&gt;Node12_1</title>
<path fill="none" stroke="black" d="M792,-323.27C792,-336.58 792,-352.19 792,-363.82"/>
<polygon fill="black" stroke="black" points="795.5,-323.2 792,-313.2 788.5,-323.2 795.5,-323.2"/>
<text text-anchor="middle" x="831" y="-334.8" font-family="Times,serif" font-size="14.00">विधेय_विशेषणम्</text>
</g>
<!-- Node14_1&#45;&gt;Node10_1 -->
<g id="edge14" class="edge">
<title>Node14_1&#45;&gt;Node10_1</title>
<path fill="none" stroke="black" d="M485.98,-402.86C504.18,-412.09 526.17,-423.17 546,-433 559.82,-439.85 575.2,-447.34 588.17,-453.63"/>
<polygon fill="black" stroke="black" points="487.33,-399.62 476.83,-398.22 484.17,-405.86 487.33,-399.62"/>
<text text-anchor="middle" x="566" y="-421.8" font-family="Times,serif" font-size="14.00">अनुयोगी</text>
</g>
</g>
</svg>
