<?xml version="1.0" encoding="UTF-8" standalone="no"?>
<!DOCTYPE svg PUBLIC "-//W3C//DTD SVG 1.1//EN"
 "http://www.w3.org/Graphics/SVG/1.1/DTD/svg11.dtd">
<!-- Generated by graphviz version 2.43.0 (0)
 -->
<!-- Title: G Pages: 1 -->
<svg width="744pt" height="305pt"
 viewBox="0.00 0.00 744.49 305.00" xmlns="http://www.w3.org/2000/svg" xmlns:xlink="http://www.w3.org/1999/xlink">
<g id="graph0" class="graph" transform="scale(1 1) rotate(0) translate(4 301)">
<title>G</title>
<polygon fill="#fffacd" stroke="transparent" points="-4,4 -4,-301 740.49,-301 740.49,4 -4,4"/>
<g id="clust1" class="cluster">
<title>cluster_1</title>
<polygon fill="#fffacd" stroke="black" points="8,-79 8,-218 152,-218 152,-79 8,-79"/>
</g>
<!-- Node11_1 -->
<g id="node1" class="node">
<title>Node11_1</title>
<ellipse fill="#00bfff" stroke="#00bfff" cx="80" cy="-105" rx="46.29" ry="18"/>
<text text-anchor="middle" x="80" y="-101.3" font-family="Times,serif" font-size="14.00">सः(11.1)</text>
</g>
<!-- Node12_1 -->
<g id="node2" class="node">
<title>Node12_1</title>
<ellipse fill="#00bfff" stroke="#00bfff" cx="80" cy="-192" rx="63.89" ry="18"/>
<text text-anchor="middle" x="80" y="-188.3" font-family="Times,serif" font-size="14.00">नराधिपः(12.1)</text>
</g>
<!-- Node11_1&#45;&gt;Node12_1 -->
<g id="edge11" class="edge">
<title>Node11_1&#45;&gt;Node12_1</title>
<path fill="none" stroke="black" d="M80,-133.27C80,-146.58 80,-162.19 80,-173.82"/>
<polygon fill="black" stroke="black" points="83.5,-133.2 80,-123.2 76.5,-133.2 83.5,-133.2"/>
<text text-anchor="middle" x="102.5" y="-144.8" font-family="Times,serif" font-size="14.00">विशेषणम्</text>
</g>
<!-- Node10_1 -->
<g id="node5" class="node">
<title>Node10_1</title>
<ellipse fill="#ff1975" stroke="#ff1975" cx="371" cy="-279" rx="63.89" ry="18"/>
<text text-anchor="middle" x="371" y="-275.3" font-family="Times,serif" font-size="14.00">आशास्ते(10.1)</text>
</g>
<!-- Node12_1&#45;&gt;Node10_1 -->
<g id="edge12" class="edge">
<title>Node12_1&#45;&gt;Node10_1</title>
<path fill="none" stroke="black" d="M132.36,-208.29C188.4,-224.66 276.23,-250.32 328.26,-265.52"/>
<polygon fill="black" stroke="black" points="133.21,-204.9 122.63,-205.45 131.24,-211.61 133.21,-204.9"/>
<text text-anchor="middle" x="254" y="-231.8" font-family="Times,serif" font-size="14.00">कर्ता</text>
</g>
<!-- Node1_1 -->
<g id="node3" class="node">
<title>Node1_1</title>
<ellipse fill="#93db70" stroke="#93db70" cx="219" cy="-105" rx="59.29" ry="18"/>
<text text-anchor="middle" x="219" y="-101.3" font-family="Times,serif" font-size="14.00">ब्राह्मणान्(1.1)</text>
</g>
<!-- Node2_1 -->
<g id="node4" class="node">
<title>Node2_1</title>
<ellipse fill="#ff99ff" stroke="#ff99ff" cx="309" cy="-192" rx="61.99" ry="18"/>
<text text-anchor="middle" x="309" y="-188.3" font-family="Times,serif" font-size="14.00">वाचयित्वा(2.1)</text>
</g>
<!-- Node1_1&#45;&gt;Node2_1 -->
<g id="edge1" class="edge">
<title>Node1_1&#45;&gt;Node2_1</title>
<path fill="none" stroke="black" d="M243.9,-129.52C259.1,-143.87 278.14,-161.86 291.7,-174.66"/>
<polygon fill="black" stroke="black" points="246.03,-126.71 236.35,-122.39 241.22,-131.8 246.03,-126.71"/>
<text text-anchor="middle" x="279" y="-144.8" font-family="Times,serif" font-size="14.00">कर्म</text>
</g>
<!-- Node2_1&#45;&gt;Node10_1 -->
<g id="edge2" class="edge">
<title>Node2_1&#45;&gt;Node10_1</title>
<path fill="none" stroke="black" d="M327.24,-218.01C337.4,-231.94 349.78,-248.91 358.78,-261.24"/>
<polygon fill="black" stroke="black" points="329.97,-215.81 321.25,-209.79 324.31,-219.93 329.97,-215.81"/>
<text text-anchor="middle" x="364.5" y="-231.8" font-family="Times,serif" font-size="14.00">पूर्वकालः</text>
</g>
<!-- Node3_1 -->
<g id="node6" class="node">
<title>Node3_1</title>
<ellipse fill="#ff99ff" stroke="#ff99ff" cx="334" cy="-105" rx="37.89" ry="18"/>
<text text-anchor="middle" x="334" y="-101.3" font-family="Times,serif" font-size="14.00">च(3.1)</text>
</g>
<!-- Node3_1&#45;&gt;Node2_1 -->
<g id="edge3" class="edge">
<title>Node3_1&#45;&gt;Node2_1</title>
<path fill="none" stroke="black" d="M326.1,-132.87C322.16,-146.27 317.51,-162.08 314.05,-173.82"/>
<polygon fill="black" stroke="black" points="329.48,-133.78 328.94,-123.2 322.76,-131.81 329.48,-133.78"/>
<text text-anchor="middle" x="341.5" y="-144.8" font-family="Times,serif" font-size="14.00">सम्बन्धः</text>
</g>
<!-- Node4_1 -->
<g id="node7" class="node">
<title>Node4_1</title>
<ellipse fill="#ff99ff" stroke="#ff99ff" cx="435" cy="-192" rx="46.29" ry="18"/>
<text text-anchor="middle" x="435" y="-188.3" font-family="Times,serif" font-size="14.00">हुत्वा(4.1)</text>
</g>
<!-- Node4_1&#45;&gt;Node10_1 -->
<g id="edge4" class="edge">
<title>Node4_1&#45;&gt;Node10_1</title>
<path fill="none" stroke="black" d="M416.48,-217.6C405.98,-231.54 393.11,-248.64 383.74,-261.08"/>
<polygon fill="black" stroke="black" points="419.44,-219.48 422.66,-209.39 413.85,-215.27 419.44,-219.48"/>
<text text-anchor="middle" x="426.5" y="-231.8" font-family="Times,serif" font-size="14.00">पूर्वकालः</text>
</g>
<!-- Node5_1 -->
<g id="node8" class="node">
<title>Node5_1</title>
<ellipse fill="#ff99ff" stroke="#ff99ff" cx="427" cy="-105" rx="37.89" ry="18"/>
<text text-anchor="middle" x="427" y="-101.3" font-family="Times,serif" font-size="14.00">च(5.1)</text>
</g>
<!-- Node5_1&#45;&gt;Node4_1 -->
<g id="edge5" class="edge">
<title>Node5_1&#45;&gt;Node4_1</title>
<path fill="none" stroke="black" d="M429.57,-133.27C430.82,-146.58 432.29,-162.19 433.38,-173.82"/>
<polygon fill="black" stroke="black" points="433.04,-132.83 428.62,-123.2 426.07,-133.49 433.04,-132.83"/>
<text text-anchor="middle" x="449.5" y="-144.8" font-family="Times,serif" font-size="14.00">सम्बन्धः</text>
</g>
<!-- Node6_1 -->
<g id="node9" class="node">
<title>Node6_1</title>
<ellipse fill="#ff99ff" stroke="#ff99ff" cx="334" cy="-18" rx="41.69" ry="18"/>
<text text-anchor="middle" x="334" y="-14.3" font-family="Times,serif" font-size="14.00">एव(6.1)</text>
</g>
<!-- Node6_1&#45;&gt;Node3_1 -->
<g id="edge6" class="edge">
<title>Node6_1&#45;&gt;Node3_1</title>
<path fill="none" stroke="black" d="M334,-46.27C334,-59.58 334,-75.19 334,-86.82"/>
<polygon fill="black" stroke="black" points="337.5,-46.2 334,-36.2 330.5,-46.2 337.5,-46.2"/>
<text text-anchor="middle" x="352.5" y="-57.8" font-family="Times,serif" font-size="14.00">सम्बन्धः</text>
</g>
<!-- Node7_1 -->
<g id="node10" class="node">
<title>Node7_1</title>
<ellipse fill="#93db70" stroke="#93db70" cx="542" cy="-105" rx="59.59" ry="18"/>
<text text-anchor="middle" x="542" y="-101.3" font-family="Times,serif" font-size="14.00">हुताशनम्(7.1)</text>
</g>
<!-- Node7_1&#45;&gt;Node4_1 -->
<g id="edge7" class="edge">
<title>Node7_1&#45;&gt;Node4_1</title>
<path fill="none" stroke="black" d="M513.99,-128.25C495.35,-143.06 471.31,-162.15 454.67,-175.37"/>
<polygon fill="black" stroke="black" points="516.22,-130.95 521.87,-121.99 511.87,-125.47 516.22,-130.95"/>
<text text-anchor="middle" x="503" y="-144.8" font-family="Times,serif" font-size="14.00">कर्म</text>
</g>
<!-- Node8_1 -->
<g id="node11" class="node">
<title>Node8_1</title>
<ellipse fill="#93db70" stroke="#93db70" cx="597" cy="-192" rx="57.69" ry="18"/>
<text text-anchor="middle" x="597" y="-188.3" font-family="Times,serif" font-size="14.00">आयुष्यम्(8.1)</text>
</g>
<!-- Node8_1&#45;&gt;Node10_1 -->
<g id="edge8" class="edge">
<title>Node8_1&#45;&gt;Node10_1</title>
<path fill="none" stroke="black" d="M552.18,-209.86C509.8,-225.8 446.99,-249.42 407.56,-264.25"/>
<polygon fill="black" stroke="black" points="553.56,-213.08 561.69,-206.28 551.1,-206.53 553.56,-213.08"/>
<text text-anchor="middle" x="506" y="-231.8" font-family="Times,serif" font-size="14.00">कर्म</text>
</g>
<!-- Node9_1 -->
<g id="node12" class="node">
<title>Node9_1</title>
<ellipse fill="#ffff00" stroke="#ffff00" cx="678" cy="-18" rx="51.19" ry="18"/>
<text text-anchor="middle" x="678" y="-14.3" font-family="Times,serif" font-size="14.00">पाण्डु&#45;(9.1)</text>
</g>
<!-- Node9_2 -->
<g id="node13" class="node">
<title>Node9_2</title>
<ellipse fill="#87ceeb" stroke="#87ceeb" cx="678" cy="-105" rx="58.49" ry="18"/>
<text text-anchor="middle" x="678" y="-101.3" font-family="Times,serif" font-size="14.00">पुत्राणाम्(9.2)</text>
</g>
<!-- Node9_1&#45;&gt;Node9_2 -->
<g id="edge9" class="edge">
<title>Node9_1&#45;&gt;Node9_2</title>
<path fill="none" stroke="black" d="M678,-46.27C678,-59.58 678,-75.19 678,-86.82"/>
<polygon fill="black" stroke="black" points="681.5,-46.2 678,-36.2 674.5,-46.2 681.5,-46.2"/>
<text text-anchor="middle" x="687.5" y="-57.8" font-family="Times,serif" font-size="14.00">T6</text>
</g>
<!-- Node9_2&#45;&gt;Node8_1 -->
<g id="edge10" class="edge">
<title>Node9_2&#45;&gt;Node8_1</title>
<path fill="none" stroke="black" d="M655.21,-129.91C641.6,-144.2 624.66,-161.98 612.57,-174.66"/>
<polygon fill="black" stroke="black" points="658.02,-132.04 662.38,-122.39 652.95,-127.21 658.02,-132.04"/>
<text text-anchor="middle" x="669.5" y="-144.8" font-family="Times,serif" font-size="14.00">षष्ठीसम्बन्धः</text>
</g>
</g>
</svg>
