<?xml version="1.0" encoding="UTF-8" standalone="no"?>
<!DOCTYPE svg PUBLIC "-//W3C//DTD SVG 1.1//EN"
 "http://www.w3.org/Graphics/SVG/1.1/DTD/svg11.dtd">
<!-- Generated by graphviz version 2.43.0 (0)
 -->
<!-- Title: G Pages: 1 -->
<svg width="246pt" height="234pt"
 viewBox="0.00 0.00 246.00 234.00" xmlns="http://www.w3.org/2000/svg" xmlns:xlink="http://www.w3.org/1999/xlink">
<g id="graph0" class="graph" transform="scale(1 1) rotate(0) translate(4 230)">
<title>G</title>
<polygon fill="#fffacd" stroke="transparent" points="-4,4 -4,-230 242,-230 242,4 -4,4"/>
<g id="clust1" class="cluster">
<title>cluster_1</title>
<polygon fill="#fffacd" stroke="black" points="8,-8 8,-147 152,-147 152,-8 8,-8"/>
</g>
<!-- Node1 -->
<g id="node1" class="node">
<title>Node1</title>
<ellipse fill="#93db70" stroke="#93db70" cx="80" cy="-34" rx="63.89" ry="18"/>
<text text-anchor="middle" x="80" y="-30.3" font-family="Times,serif" font-size="14.00">निष्टनन्धर्मजम्(1)</text>
</g>
<!-- Node2 -->
<g id="node2" class="node">
<title>Node2</title>
<ellipse fill="#93db70" stroke="#93db70" cx="98" cy="-121" rx="38.19" ry="18"/>
<text text-anchor="middle" x="98" y="-117.3" font-family="Times,serif" font-size="14.00">नृपम्(2)</text>
</g>
<!-- Node1&#45;&gt;Node2 -->
<g id="edge1" class="edge">
<title>Node1&#45;&gt;Node2</title>
<path fill="none" stroke="black" d="M85.77,-62.27C88.59,-75.58 91.9,-91.19 94.36,-102.82"/>
<polygon fill="black" stroke="black" points="89.14,-61.26 83.64,-52.2 82.29,-62.71 89.14,-61.26"/>
<text text-anchor="middle" x="113.5" y="-73.8" font-family="Times,serif" font-size="14.00">विशेषणम्</text>
</g>
<!-- Node5 -->
<g id="node3" class="node">
<title>Node5</title>
<ellipse fill="#ff1975" stroke="#ff1975" cx="151" cy="-208" rx="51.19" ry="18"/>
<text text-anchor="middle" x="151" y="-204.3" font-family="Times,serif" font-size="14.00">अन्ववर्तत(5)</text>
</g>
<!-- Node2&#45;&gt;Node5 -->
<g id="edge2" class="edge">
<title>Node2&#45;&gt;Node5</title>
<path fill="none" stroke="black" d="M113.58,-146.99C122.23,-160.87 132.77,-177.76 140.45,-190.08"/>
<polygon fill="black" stroke="black" points="116.48,-145.02 108.22,-138.39 110.54,-148.73 116.48,-145.02"/>
<text text-anchor="middle" x="137" y="-160.8" font-family="Times,serif" font-size="14.00">कर्म</text>
</g>
<!-- Node3 -->
<g id="node4" class="node">
<title>Node3</title>
<ellipse fill="#00bfff" stroke="#00bfff" cx="199" cy="-121" rx="38.99" ry="18"/>
<text text-anchor="middle" x="199" y="-117.3" font-family="Times,serif" font-size="14.00">भीमः(3)</text>
</g>
<!-- Node3&#45;&gt;Node5 -->
<g id="edge3" class="edge">
<title>Node3&#45;&gt;Node5</title>
<path fill="none" stroke="black" d="M184.43,-147.8C176.65,-161.58 167.3,-178.14 160.46,-190.24"/>
<polygon fill="black" stroke="black" points="187.65,-149.22 189.52,-138.79 181.55,-145.78 187.65,-149.22"/>
<text text-anchor="middle" x="188" y="-160.8" font-family="Times,serif" font-size="14.00">कर्ता</text>
</g>
<!-- Node4 -->
<g id="node5" class="node">
<title>Node4</title>
<ellipse fill="#ff99ff" stroke="#ff99ff" cx="199" cy="-34" rx="37.09" ry="18"/>
<text text-anchor="middle" x="199" y="-30.3" font-family="Times,serif" font-size="14.00">अपि(4)</text>
</g>
<!-- Node4&#45;&gt;Node3 -->
<g id="edge4" class="edge">
<title>Node4&#45;&gt;Node3</title>
<path fill="none" stroke="black" d="M199,-62.27C199,-75.58 199,-91.19 199,-102.82"/>
<polygon fill="black" stroke="black" points="202.5,-62.2 199,-52.2 195.5,-62.2 202.5,-62.2"/>
<text text-anchor="middle" x="217.5" y="-73.8" font-family="Times,serif" font-size="14.00">सम्बन्धः</text>
</g>
</g>
</svg>
