<?xml version="1.0" encoding="UTF-8" standalone="no"?>
<!DOCTYPE svg PUBLIC "-//W3C//DTD SVG 1.1//EN"
 "http://www.w3.org/Graphics/SVG/1.1/DTD/svg11.dtd">
<!-- Generated by graphviz version 2.43.0 (0)
 -->
<!-- Title: G Pages: 1 -->
<svg width="644pt" height="321pt"
 viewBox="0.00 0.00 643.75 321.00" xmlns="http://www.w3.org/2000/svg" xmlns:xlink="http://www.w3.org/1999/xlink">
<g id="graph0" class="graph" transform="scale(1 1) rotate(0) translate(4 317)">
<title>G</title>
<polygon fill="#fffacd" stroke="transparent" points="-4,4 -4,-317 639.75,-317 639.75,4 -4,4"/>
<g id="clust1" class="cluster">
<title>cluster_1</title>
<polygon fill="#fffacd" stroke="black" points="8,-8 8,-147 174,-147 174,-8 8,-8"/>
</g>
<g id="clust2" class="cluster">
<title>cluster_2</title>
<polygon fill="#fffacd" stroke="black" points="182,-95 182,-234 290,-234 290,-95 182,-95"/>
</g>
<!-- Node3_1 -->
<g id="node1" class="node">
<title>Node3_1</title>
<ellipse fill="#93db70" stroke="#93db70" cx="91" cy="-34" rx="57.39" ry="18"/>
<text text-anchor="middle" x="91" y="-30.3" font-family="Times,serif" font-size="14.00">अत्यर्थम्(3.1)</text>
</g>
<!-- Node5_1 -->
<g id="node2" class="node">
<title>Node5_1</title>
<ellipse fill="#93db70" stroke="#93db70" cx="91" cy="-121" rx="74.99" ry="18"/>
<text text-anchor="middle" x="91" y="-117.3" font-family="Times,serif" font-size="14.00">बाष्पसन्दिग्धम्(5.1)</text>
</g>
<!-- Node3_1&#45;&gt;Node5_1 -->
<g id="edge3" class="edge">
<title>Node3_1&#45;&gt;Node5_1</title>
<path fill="none" stroke="black" d="M91,-62.27C91,-75.58 91,-91.19 91,-102.82"/>
<polygon fill="black" stroke="black" points="94.5,-62.2 91,-52.2 87.5,-62.2 94.5,-62.2"/>
<text text-anchor="middle" x="113.5" y="-73.8" font-family="Times,serif" font-size="14.00">विशेषणम्</text>
</g>
<!-- Node7_1 -->
<g id="node3" class="node">
<title>Node7_1</title>
<ellipse fill="#93db70" stroke="#93db70" cx="236" cy="-208" rx="44.39" ry="18"/>
<text text-anchor="middle" x="236" y="-204.3" font-family="Times,serif" font-size="14.00">वचः(7.1)</text>
</g>
<!-- Node5_1&#45;&gt;Node7_1 -->
<g id="edge5" class="edge">
<title>Node5_1&#45;&gt;Node7_1</title>
<path fill="none" stroke="black" d="M127.22,-143.23C153.61,-158.7 188.65,-179.24 211.74,-192.78"/>
<polygon fill="black" stroke="black" points="128.67,-140.03 118.27,-137.99 125.13,-146.06 128.67,-140.03"/>
<text text-anchor="middle" x="195.5" y="-160.8" font-family="Times,serif" font-size="14.00">विशेषणम्</text>
</g>
<!-- Node8_1 -->
<g id="node6" class="node">
<title>Node8_1</title>
<ellipse fill="#ff1975" stroke="#ff1975" cx="402" cy="-295" rx="44.69" ry="18"/>
<text text-anchor="middle" x="402" y="-291.3" font-family="Times,serif" font-size="14.00">आह(8.1)</text>
</g>
<!-- Node7_1&#45;&gt;Node8_1 -->
<g id="edge7" class="edge">
<title>Node7_1&#45;&gt;Node8_1</title>
<path fill="none" stroke="black" d="M271.52,-227.19C302.72,-243.16 347.4,-266.04 375.55,-280.45"/>
<polygon fill="black" stroke="black" points="272.8,-223.91 262.3,-222.47 269.61,-230.14 272.8,-223.91"/>
<text text-anchor="middle" x="337" y="-247.8" font-family="Times,serif" font-size="14.00">कर्म</text>
</g>
<!-- Node6_1 -->
<g id="node4" class="node">
<title>Node6_1</title>
<ellipse fill="#93db70" stroke="#93db70" cx="236" cy="-121" rx="46.29" ry="18"/>
<text text-anchor="middle" x="236" y="-117.3" font-family="Times,serif" font-size="14.00">इदम्(6.1)</text>
</g>
<!-- Node6_1&#45;&gt;Node7_1 -->
<g id="edge6" class="edge">
<title>Node6_1&#45;&gt;Node7_1</title>
<path fill="none" stroke="black" d="M236,-149.27C236,-162.58 236,-178.19 236,-189.82"/>
<polygon fill="black" stroke="black" points="239.5,-149.2 236,-139.2 232.5,-149.2 239.5,-149.2"/>
<text text-anchor="middle" x="258.5" y="-160.8" font-family="Times,serif" font-size="14.00">विशेषणम्</text>
</g>
<!-- Node1_1 -->
<g id="node5" class="node">
<title>Node1_1</title>
<ellipse fill="#ff99ff" stroke="#ff99ff" cx="342" cy="-208" rx="44.39" ry="18"/>
<text text-anchor="middle" x="342" y="-204.3" font-family="Times,serif" font-size="14.00">ततः(1.1)</text>
</g>
<!-- Node1_1&#45;&gt;Node8_1 -->
<g id="edge1" class="edge">
<title>Node1_1&#45;&gt;Node8_1</title>
<path fill="none" stroke="black" d="M359.4,-233.65C369.32,-247.7 381.48,-264.92 390.26,-277.37"/>
<polygon fill="black" stroke="black" points="362.19,-231.54 353.57,-225.39 356.48,-235.58 362.19,-231.54"/>
<text text-anchor="middle" x="393.5" y="-247.8" font-family="Times,serif" font-size="14.00">सम्बन्धः</text>
</g>
<!-- Node2_1 -->
<g id="node7" class="node">
<title>Node2_1</title>
<ellipse fill="#00bfff" stroke="#00bfff" cx="462" cy="-208" rx="57.69" ry="18"/>
<text text-anchor="middle" x="462" y="-204.3" font-family="Times,serif" font-size="14.00">धृतराष्ट्रः(2.1)</text>
</g>
<!-- Node2_1&#45;&gt;Node8_1 -->
<g id="edge2" class="edge">
<title>Node2_1&#45;&gt;Node8_1</title>
<path fill="none" stroke="black" d="M444.31,-234.06C434.4,-248.09 422.33,-265.19 413.63,-277.53"/>
<polygon fill="black" stroke="black" points="447.24,-235.98 450.15,-225.79 441.52,-231.94 447.24,-235.98"/>
<text text-anchor="middle" x="446" y="-247.8" font-family="Times,serif" font-size="14.00">कर्ता</text>
</g>
<!-- Node4_1 -->
<g id="node8" class="node">
<title>Node4_1</title>
<ellipse fill="#93db70" stroke="#93db70" cx="587" cy="-208" rx="48.99" ry="18"/>
<text text-anchor="middle" x="587" y="-204.3" font-family="Times,serif" font-size="14.00">भृशम्(4.1)</text>
</g>
<!-- Node4_1&#45;&gt;Node8_1 -->
<g id="edge4" class="edge">
<title>Node4_1&#45;&gt;Node8_1</title>
<path fill="none" stroke="black" d="M548.2,-226.83C512.95,-243.03 461.78,-266.53 430.27,-281.01"/>
<polygon fill="black" stroke="black" points="550.06,-229.82 557.69,-222.47 547.14,-223.46 550.06,-229.82"/>
<text text-anchor="middle" x="540" y="-247.8" font-family="Times,serif" font-size="14.00">क्रियाविशेषणम्</text>
</g>
<!-- Node9_1 -->
<g id="node9" class="node">
<title>Node9_1</title>
<ellipse fill="#93db70" stroke="#93db70" cx="244" cy="-34" rx="62.29" ry="18"/>
<text text-anchor="middle" x="244" y="-30.3" font-family="Times,serif" font-size="14.00">सुहृज्जनम्(9.1)</text>
</g>
<!-- Node10_1 -->
<g id="node10" class="node">
<title>Node10_1</title>
<ellipse fill="#ff1975" stroke="#ff1975" cx="386" cy="-121" rx="76.89" ry="18"/>
<text text-anchor="middle" x="386" y="-117.3" font-family="Times,serif" font-size="14.00">समानयामास(10.1)</text>
</g>
<!-- Node9_1&#45;&gt;Node10_1 -->
<g id="edge8" class="edge">
<title>Node9_1&#45;&gt;Node10_1</title>
<path fill="none" stroke="black" d="M278.78,-55.82C303.56,-70.65 336.38,-90.3 359.16,-103.93"/>
<polygon fill="black" stroke="black" points="280.42,-52.72 270.04,-50.59 276.83,-58.73 280.42,-52.72"/>
<text text-anchor="middle" x="332" y="-73.8" font-family="Times,serif" font-size="14.00">कर्म</text>
</g>
<!-- Node11_1 -->
<g id="node11" class="node">
<title>Node11_1</title>
<ellipse fill="#00bfff" stroke="#00bfff" cx="395" cy="-34" rx="70.69" ry="18"/>
<text text-anchor="middle" x="395" y="-30.3" font-family="Times,serif" font-size="14.00">(धृतराष्ट्रः)(11.1)</text>
</g>
<!-- Node11_1&#45;&gt;Node10_1 -->
<g id="edge9" class="edge">
<title>Node11_1&#45;&gt;Node10_1</title>
<path fill="none" stroke="black" d="M392.11,-62.27C390.7,-75.58 389.05,-91.19 387.82,-102.82"/>
<polygon fill="black" stroke="black" points="395.61,-62.51 393.18,-52.2 388.65,-61.78 395.61,-62.51"/>
<text text-anchor="middle" x="402" y="-73.8" font-family="Times,serif" font-size="14.00">कर्ता</text>
</g>
</g>
</svg>
