<?xml version="1.0" encoding="UTF-8" standalone="no"?>
<!DOCTYPE svg PUBLIC "-//W3C//DTD SVG 1.1//EN"
 "http://www.w3.org/Graphics/SVG/1.1/DTD/svg11.dtd">
<!-- Generated by graphviz version 2.43.0 (0)
 -->
<!-- Title: G Pages: 1 -->
<svg width="742pt" height="392pt"
 viewBox="0.00 0.00 741.85 392.00" xmlns="http://www.w3.org/2000/svg" xmlns:xlink="http://www.w3.org/1999/xlink">
<g id="graph0" class="graph" transform="scale(1 1) rotate(0) translate(4 388)">
<title>G</title>
<polygon fill="#fffacd" stroke="transparent" points="-4,4 -4,-388 737.85,-388 737.85,4 -4,4"/>
<g id="clust1" class="cluster">
<title>cluster_1</title>
<polygon fill="#fffacd" stroke="black" points="8,-79 8,-218 152,-218 152,-79 8,-79"/>
</g>
<g id="clust2" class="cluster">
<title>cluster_2</title>
<polygon fill="#fffacd" stroke="black" points="160,-166 160,-305 302,-305 302,-166 160,-166"/>
</g>
<!-- Node8_1 -->
<g id="node1" class="node">
<title>Node8_1</title>
<ellipse fill="#87ceeb" stroke="#87ceeb" cx="80" cy="-105" rx="64.19" ry="18"/>
<text text-anchor="middle" x="80" y="-101.3" font-family="Times,serif" font-size="14.00">धृतराष्ट्रस्य(8.1)</text>
</g>
<!-- Node9_1 -->
<g id="node2" class="node">
<title>Node9_1</title>
<ellipse fill="#87ceeb" stroke="#87ceeb" cx="84" cy="-192" rx="59.59" ry="18"/>
<text text-anchor="middle" x="84" y="-188.3" font-family="Times,serif" font-size="14.00">गान्धार्याः(9.1)</text>
</g>
<!-- Node8_1&#45;&gt;Node9_1 -->
<g id="edge9" class="edge">
<title>Node8_1&#45;&gt;Node9_1</title>
<path fill="none" stroke="black" d="M81.28,-133.27C81.91,-146.58 82.64,-162.19 83.19,-173.82"/>
<polygon fill="black" stroke="black" points="84.78,-133.03 80.81,-123.2 77.78,-133.35 84.78,-133.03"/>
<text text-anchor="middle" x="105.5" y="-144.8" font-family="Times,serif" font-size="14.00">समुच्चितः</text>
</g>
<!-- Node7_1 -->
<g id="node12" class="node">
<title>Node7_1</title>
<ellipse fill="#c6e2eb" stroke="#c6e2eb" cx="99" cy="-279" rx="48.19" ry="18"/>
<text text-anchor="middle" x="99" y="-275.3" font-family="Times,serif" font-size="14.00">संश्रवे(7.1)</text>
</g>
<!-- Node9_1&#45;&gt;Node7_1 -->
<g id="edge10" class="edge">
<title>Node9_1&#45;&gt;Node7_1</title>
<path fill="none" stroke="black" d="M88.81,-220.27C91.16,-233.58 93.92,-249.19 95.97,-260.82"/>
<polygon fill="black" stroke="black" points="92.22,-219.44 87.04,-210.2 85.33,-220.66 92.22,-219.44"/>
<text text-anchor="middle" x="120.5" y="-231.8" font-family="Times,serif" font-size="14.00">षष्ठीसम्बन्धः</text>
</g>
<!-- Node12_1 -->
<g id="node3" class="node">
<title>Node12_1</title>
<ellipse fill="#00bfff" stroke="#00bfff" cx="231" cy="-192" rx="63.09" ry="18"/>
<text text-anchor="middle" x="231" y="-188.3" font-family="Times,serif" font-size="14.00">अमर्षणः(12.1)</text>
</g>
<!-- Node2_1 -->
<g id="node4" class="node">
<title>Node2_1</title>
<ellipse fill="#00bfff" stroke="#00bfff" cx="238" cy="-279" rx="48.19" ry="18"/>
<text text-anchor="middle" x="238" y="-275.3" font-family="Times,serif" font-size="14.00">भीमः(2.1)</text>
</g>
<!-- Node12_1&#45;&gt;Node2_1 -->
<g id="edge13" class="edge">
<title>Node12_1&#45;&gt;Node2_1</title>
<path fill="none" stroke="black" d="M233.25,-220.27C234.34,-233.58 235.63,-249.19 236.59,-260.82"/>
<polygon fill="black" stroke="black" points="236.73,-219.88 232.42,-210.2 229.75,-220.45 236.73,-219.88"/>
<text text-anchor="middle" x="256.5" y="-231.8" font-family="Times,serif" font-size="14.00">विशेषणम्</text>
</g>
<!-- Node6_1 -->
<g id="node6" class="node">
<title>Node6_1</title>
<ellipse fill="#ff1975" stroke="#ff1975" cx="396" cy="-366" rx="55.79" ry="18"/>
<text text-anchor="middle" x="396" y="-362.3" font-family="Times,serif" font-size="14.00">अकरोत्(6.1)</text>
</g>
<!-- Node2_1&#45;&gt;Node6_1 -->
<g id="edge2" class="edge">
<title>Node2_1&#45;&gt;Node6_1</title>
<path fill="none" stroke="black" d="M273.34,-299.01C302.06,-314.46 342,-335.95 368.41,-350.15"/>
<polygon fill="black" stroke="black" points="274.91,-295.88 264.45,-294.23 271.59,-302.05 274.91,-295.88"/>
<text text-anchor="middle" x="337" y="-318.8" font-family="Times,serif" font-size="14.00">कर्ता</text>
</g>
<!-- Node1_1 -->
<g id="node5" class="node">
<title>Node1_1</title>
<ellipse fill="#ff99ff" stroke="#ff99ff" cx="354" cy="-279" rx="44.39" ry="18"/>
<text text-anchor="middle" x="354" y="-275.3" font-family="Times,serif" font-size="14.00">अथ(1.1)</text>
</g>
<!-- Node1_1&#45;&gt;Node6_1 -->
<g id="edge1" class="edge">
<title>Node1_1&#45;&gt;Node6_1</title>
<path fill="none" stroke="black" d="M366.91,-306.13C373.63,-319.73 381.66,-335.98 387.58,-347.95"/>
<polygon fill="black" stroke="black" points="369.87,-304.21 362.3,-296.79 363.59,-307.31 369.87,-304.21"/>
<text text-anchor="middle" x="395.5" y="-318.8" font-family="Times,serif" font-size="14.00">सम्बन्धः</text>
</g>
<!-- Node3_1 -->
<g id="node7" class="node">
<title>Node3_1</title>
<ellipse fill="#ffff00" stroke="#ffff00" cx="462" cy="-192" rx="50.09" ry="18"/>
<text text-anchor="middle" x="462" y="-188.3" font-family="Times,serif" font-size="14.00">सुहृद्&#45;(3.1)</text>
</g>
<!-- Node3_2 -->
<g id="node8" class="node">
<title>Node3_2</title>
<ellipse fill="#c6e2eb" stroke="#c6e2eb" cx="462" cy="-279" rx="46.29" ry="18"/>
<text text-anchor="middle" x="462" y="-275.3" font-family="Times,serif" font-size="14.00">मध्ये(3.2)</text>
</g>
<!-- Node3_1&#45;&gt;Node3_2 -->
<g id="edge3" class="edge">
<title>Node3_1&#45;&gt;Node3_2</title>
<path fill="none" stroke="black" d="M462,-220.27C462,-233.58 462,-249.19 462,-260.82"/>
<polygon fill="black" stroke="black" points="465.5,-220.2 462,-210.2 458.5,-220.2 465.5,-220.2"/>
<text text-anchor="middle" x="471.5" y="-231.8" font-family="Times,serif" font-size="14.00">T6</text>
</g>
<!-- Node3_2&#45;&gt;Node6_1 -->
<g id="edge4" class="edge">
<title>Node3_2&#45;&gt;Node6_1</title>
<path fill="none" stroke="black" d="M442.86,-304.65C431.95,-318.7 418.58,-335.92 408.91,-348.37"/>
<polygon fill="black" stroke="black" points="445.91,-306.43 449.27,-296.39 440.38,-302.14 445.91,-306.43"/>
<text text-anchor="middle" x="459.5" y="-318.8" font-family="Times,serif" font-size="14.00">अधिकरणम्</text>
</g>
<!-- Node4_1 -->
<g id="node9" class="node">
<title>Node4_1</title>
<ellipse fill="#ffff00" stroke="#ffff00" cx="576" cy="-192" rx="46.29" ry="18"/>
<text text-anchor="middle" x="576" y="-188.3" font-family="Times,serif" font-size="14.00">बाहु&#45;(4.1)</text>
</g>
<!-- Node4_2 -->
<g id="node10" class="node">
<title>Node4_2</title>
<ellipse fill="#93db70" stroke="#93db70" cx="576" cy="-279" rx="50.09" ry="18"/>
<text text-anchor="middle" x="576" y="-275.3" font-family="Times,serif" font-size="14.00">शब्दम्(4.2)</text>
</g>
<!-- Node4_1&#45;&gt;Node4_2 -->
<g id="edge5" class="edge">
<title>Node4_1&#45;&gt;Node4_2</title>
<path fill="none" stroke="black" d="M576,-220.27C576,-233.58 576,-249.19 576,-260.82"/>
<polygon fill="black" stroke="black" points="579.5,-220.2 576,-210.2 572.5,-220.2 579.5,-220.2"/>
<text text-anchor="middle" x="585.5" y="-231.8" font-family="Times,serif" font-size="14.00">T6</text>
</g>
<!-- Node4_2&#45;&gt;Node6_1 -->
<g id="edge6" class="edge">
<title>Node4_2&#45;&gt;Node6_1</title>
<path fill="none" stroke="black" d="M544.06,-300.62C528.42,-310.24 509.11,-321.42 491,-330 472.73,-338.65 451.71,-346.59 434.09,-352.72"/>
<polygon fill="black" stroke="black" points="546.17,-303.43 552.8,-295.17 542.46,-297.49 546.17,-303.43"/>
<text text-anchor="middle" x="526" y="-318.8" font-family="Times,serif" font-size="14.00">कर्म</text>
</g>
<!-- Node5_1 -->
<g id="node11" class="node">
<title>Node5_1</title>
<ellipse fill="#ff99ff" stroke="#ff99ff" cx="689" cy="-279" rx="44.69" ry="18"/>
<text text-anchor="middle" x="689" y="-275.3" font-family="Times,serif" font-size="14.00">तथा(5.1)</text>
</g>
<!-- Node5_1&#45;&gt;Node6_1 -->
<g id="edge7" class="edge">
<title>Node5_1&#45;&gt;Node6_1</title>
<path fill="none" stroke="black" d="M653.07,-297.71C647.11,-300.34 640.94,-302.87 635,-305 569.96,-328.31 491.86,-346.09 443.07,-356.04"/>
<polygon fill="black" stroke="black" points="654.55,-300.89 662.2,-293.56 651.65,-294.51 654.55,-300.89"/>
<text text-anchor="middle" x="621.5" y="-318.8" font-family="Times,serif" font-size="14.00">सम्बन्धः</text>
</g>
<!-- Node7_1&#45;&gt;Node6_1 -->
<g id="edge8" class="edge">
<title>Node7_1&#45;&gt;Node6_1</title>
<path fill="none" stroke="black" d="M137.21,-297.68C143.43,-300.29 149.85,-302.83 156,-305 221.61,-328.16 300.29,-346.03 349.23,-356.04"/>
<polygon fill="black" stroke="black" points="138.23,-294.31 127.66,-293.56 135.46,-300.74 138.23,-294.31"/>
<text text-anchor="middle" x="260.5" y="-318.8" font-family="Times,serif" font-size="14.00">अधिकरणम्</text>
</g>
<!-- Node10_1 -->
<g id="node13" class="node">
<title>Node10_1</title>
<ellipse fill="#ff99ff" stroke="#ff99ff" cx="206" cy="-105" rx="43.59" ry="18"/>
<text text-anchor="middle" x="206" y="-101.3" font-family="Times,serif" font-size="14.00">च(10.1)</text>
</g>
<!-- Node10_1&#45;&gt;Node9_1 -->
<g id="edge11" class="edge">
<title>Node10_1&#45;&gt;Node9_1</title>
<path fill="none" stroke="black" d="M176.32,-126.68C154.86,-141.63 126.3,-161.53 106.66,-175.21"/>
<polygon fill="black" stroke="black" points="178.55,-129.39 184.75,-120.81 174.54,-123.65 178.55,-129.39"/>
<text text-anchor="middle" x="191" y="-144.8" font-family="Times,serif" font-size="14.00">समुच्चय_द्योतकः</text>
</g>
<!-- Node11_1 -->
<g id="node14" class="node">
<title>Node11_1</title>
<ellipse fill="#ff99ff" stroke="#ff99ff" cx="206" cy="-18" rx="51.99" ry="18"/>
<text text-anchor="middle" x="206" y="-14.3" font-family="Times,serif" font-size="14.00">अपि(11.1)</text>
</g>
<!-- Node11_1&#45;&gt;Node10_1 -->
<g id="edge12" class="edge">
<title>Node11_1&#45;&gt;Node10_1</title>
<path fill="none" stroke="black" d="M206,-46.27C206,-59.58 206,-75.19 206,-86.82"/>
<polygon fill="black" stroke="black" points="209.5,-46.2 206,-36.2 202.5,-46.2 209.5,-46.2"/>
<text text-anchor="middle" x="224.5" y="-57.8" font-family="Times,serif" font-size="14.00">सम्बन्धः</text>
</g>
</g>
</svg>
