<?xml version="1.0" encoding="UTF-8" standalone="no"?>
<!DOCTYPE svg PUBLIC "-//W3C//DTD SVG 1.1//EN"
 "http://www.w3.org/Graphics/SVG/1.1/DTD/svg11.dtd">
<!-- Generated by graphviz version 2.43.0 (0)
 -->
<!-- Title: G Pages: 1 -->
<svg width="791pt" height="479pt"
 viewBox="0.00 0.00 791.44 479.00" xmlns="http://www.w3.org/2000/svg" xmlns:xlink="http://www.w3.org/1999/xlink">
<g id="graph0" class="graph" transform="scale(1 1) rotate(0) translate(4 475)">
<title>G</title>
<polygon fill="#fffacd" stroke="transparent" points="-4,4 -4,-475 787.44,-475 787.44,4 -4,4"/>
<g id="clust1" class="cluster">
<title>cluster_1</title>
<polygon fill="#fffacd" stroke="black" points="535.44,-79 535.44,-218 775.44,-218 775.44,-79 535.44,-79"/>
</g>
<g id="clust2" class="cluster">
<title>cluster_2</title>
<polygon fill="#fffacd" stroke="black" points="149.44,-166 149.44,-305 393.44,-305 393.44,-166 149.44,-166"/>
</g>
<!-- Node1_1 -->
<g id="node1" class="node">
<title>Node1_1</title>
<ellipse fill="#93db70" stroke="#93db70" cx="720.44" cy="-105" rx="47.39" ry="18"/>
<text text-anchor="middle" x="720.44" y="-101.3" font-family="Times,serif" font-size="14.00">एता:(1.1)</text>
</g>
<!-- Node4_1 -->
<g id="node2" class="node">
<title>Node4_1</title>
<ellipse fill="#93db70" stroke="#93db70" cx="597.44" cy="-192" rx="50.89" ry="18"/>
<text text-anchor="middle" x="597.44" y="-188.3" font-family="Times,serif" font-size="14.00">अन्याः(4.1)</text>
</g>
<!-- Node1_1&#45;&gt;Node4_1 -->
<g id="edge1" class="edge">
<title>Node1_1&#45;&gt;Node4_1</title>
<path fill="none" stroke="black" d="M690.23,-127.04C677.37,-135.98 662.18,-146.52 648.44,-156 639.08,-162.47 628.72,-169.58 619.81,-175.69"/>
<polygon fill="black" stroke="black" points="692.51,-129.71 698.73,-121.13 688.52,-123.96 692.51,-129.71"/>
<text text-anchor="middle" x="690.94" y="-144.8" font-family="Times,serif" font-size="14.00">समुच्चितः</text>
</g>
<!-- Node10_1 -->
<g id="node4" class="node">
<title>Node10_1</title>
<ellipse fill="#93db70" stroke="#93db70" cx="329.44" cy="-279" rx="52.79" ry="18"/>
<text text-anchor="middle" x="329.44" y="-275.3" font-family="Times,serif" font-size="14.00">वाचः(10.1)</text>
</g>
<!-- Node4_1&#45;&gt;Node10_1 -->
<g id="edge4" class="edge">
<title>Node4_1&#45;&gt;Node10_1</title>
<path fill="none" stroke="black" d="M556.37,-210.17C549.73,-212.84 542.91,-215.54 536.44,-218 505.18,-229.9 497.45,-233.27 465.44,-243 434.3,-252.47 398.66,-261.58 371.67,-268.13"/>
<polygon fill="black" stroke="black" points="557.96,-213.29 565.9,-206.28 555.32,-206.81 557.96,-213.29"/>
<text text-anchor="middle" x="532.94" y="-231.8" font-family="Times,serif" font-size="14.00">विशेषणम्</text>
</g>
<!-- Node5_1 -->
<g id="node3" class="node">
<title>Node5_1</title>
<ellipse fill="#93db70" stroke="#93db70" cx="599.44" cy="-105" rx="55.79" ry="18"/>
<text text-anchor="middle" x="599.44" y="-101.3" font-family="Times,serif" font-size="14.00">विविधाः(5.1)</text>
</g>
<!-- Node5_1&#45;&gt;Node4_1 -->
<g id="edge5" class="edge">
<title>Node5_1&#45;&gt;Node4_1</title>
<path fill="none" stroke="black" d="M598.8,-133.27C598.49,-146.58 598.12,-162.19 597.85,-173.82"/>
<polygon fill="black" stroke="black" points="602.3,-133.28 599.04,-123.2 595.31,-133.12 602.3,-133.28"/>
<text text-anchor="middle" x="621.94" y="-144.8" font-family="Times,serif" font-size="14.00">विशेषणम्</text>
</g>
<!-- Node11_1 -->
<g id="node12" class="node">
<title>Node11_1</title>
<ellipse fill="#ff99ff" stroke="#ff99ff" cx="329.44" cy="-366" rx="53.89" ry="18"/>
<text text-anchor="middle" x="329.44" y="-362.3" font-family="Times,serif" font-size="14.00">श्रुत्वा(11.1)</text>
</g>
<!-- Node10_1&#45;&gt;Node11_1 -->
<g id="edge10" class="edge">
<title>Node10_1&#45;&gt;Node11_1</title>
<path fill="none" stroke="black" d="M329.44,-307.27C329.44,-320.58 329.44,-336.19 329.44,-347.82"/>
<polygon fill="black" stroke="black" points="332.94,-307.2 329.44,-297.2 325.94,-307.2 332.94,-307.2"/>
<text text-anchor="middle" x="338.44" y="-318.8" font-family="Times,serif" font-size="14.00">कर्म</text>
</g>
<!-- Node6_1 -->
<g id="node5" class="node">
<title>Node6_1</title>
<ellipse fill="#93db70" stroke="#93db70" cx="322.44" cy="-192" rx="63.09" ry="18"/>
<text text-anchor="middle" x="322.44" y="-188.3" font-family="Times,serif" font-size="14.00">शल्यभूताः(6.1)</text>
</g>
<!-- Node6_1&#45;&gt;Node10_1 -->
<g id="edge6" class="edge">
<title>Node6_1&#45;&gt;Node10_1</title>
<path fill="none" stroke="black" d="M324.69,-220.27C325.79,-233.58 327.07,-249.19 328.03,-260.82"/>
<polygon fill="black" stroke="black" points="328.17,-219.88 323.86,-210.2 321.19,-220.45 328.17,-219.88"/>
<text text-anchor="middle" x="348.94" y="-231.8" font-family="Times,serif" font-size="14.00">विशेषणम्</text>
</g>
<!-- Node9_1 -->
<g id="node6" class="node">
<title>Node9_1</title>
<ellipse fill="#93db70" stroke="#93db70" cx="199.44" cy="-192" rx="42.49" ry="18"/>
<text text-anchor="middle" x="199.44" y="-188.3" font-family="Times,serif" font-size="14.00">ताः(9.1)</text>
</g>
<!-- Node9_1&#45;&gt;Node10_1 -->
<g id="edge9" class="edge">
<title>Node9_1&#45;&gt;Node10_1</title>
<path fill="none" stroke="black" d="M229.96,-212.95C253.18,-228.14 284.68,-248.73 305.96,-262.65"/>
<polygon fill="black" stroke="black" points="231.78,-209.96 221.5,-207.42 227.95,-215.82 231.78,-209.96"/>
<text text-anchor="middle" x="294.94" y="-231.8" font-family="Times,serif" font-size="14.00">विशेषणम्</text>
</g>
<!-- Node2_1 -->
<g id="node7" class="node">
<title>Node2_1</title>
<ellipse fill="#ff99ff" stroke="#ff99ff" cx="720.44" cy="-18" rx="37.89" ry="18"/>
<text text-anchor="middle" x="720.44" y="-14.3" font-family="Times,serif" font-size="14.00">च(2.1)</text>
</g>
<!-- Node2_1&#45;&gt;Node1_1 -->
<g id="edge2" class="edge">
<title>Node2_1&#45;&gt;Node1_1</title>
<path fill="none" stroke="black" d="M720.44,-46.27C720.44,-59.58 720.44,-75.19 720.44,-86.82"/>
<polygon fill="black" stroke="black" points="723.94,-46.2 720.44,-36.2 716.94,-46.2 723.94,-46.2"/>
<text text-anchor="middle" x="738.94" y="-57.8" font-family="Times,serif" font-size="14.00">सम्बन्धः</text>
</g>
<!-- Node3_1 -->
<g id="node8" class="node">
<title>Node3_1</title>
<ellipse fill="#ff99ff" stroke="#ff99ff" cx="487.44" cy="-105" rx="37.89" ry="18"/>
<text text-anchor="middle" x="487.44" y="-101.3" font-family="Times,serif" font-size="14.00">च(3.1)</text>
</g>
<!-- Node3_1&#45;&gt;Node4_1 -->
<g id="edge3" class="edge">
<title>Node3_1&#45;&gt;Node4_1</title>
<path fill="none" stroke="black" d="M499.61,-132.01C504.53,-140.49 510.86,-149.4 518.44,-156 522.38,-159.42 545.33,-169.45 565.49,-177.9"/>
<polygon fill="black" stroke="black" points="502.64,-130.27 494.82,-123.12 496.48,-133.58 502.64,-130.27"/>
<text text-anchor="middle" x="556.44" y="-144.8" font-family="Times,serif" font-size="14.00">समुच्चय_द्योतकः</text>
</g>
<!-- Node7_1 -->
<g id="node9" class="node">
<title>Node7_1</title>
<ellipse fill="#00bfff" stroke="#00bfff" cx="60.44" cy="-366" rx="60.39" ry="18"/>
<text text-anchor="middle" x="60.44" y="-362.3" font-family="Times,serif" font-size="14.00">जनाधिपः(7.1)</text>
</g>
<!-- Node13_1 -->
<g id="node10" class="node">
<title>Node13_1</title>
<ellipse fill="#ff1975" stroke="#ff1975" cx="198.44" cy="-453" rx="61.19" ry="18"/>
<text text-anchor="middle" x="198.44" y="-449.3" font-family="Times,serif" font-size="14.00">आगमत्(13.1)</text>
</g>
<!-- Node7_1&#45;&gt;Node13_1 -->
<g id="edge7" class="edge">
<title>Node7_1&#45;&gt;Node13_1</title>
<path fill="none" stroke="black" d="M94.03,-387.68C118.43,-402.72 150.95,-422.75 173.17,-436.43"/>
<polygon fill="black" stroke="black" points="95.79,-384.66 85.44,-382.39 92.11,-390.62 95.79,-384.66"/>
<text text-anchor="middle" x="149.44" y="-405.8" font-family="Times,serif" font-size="14.00">कर्ता</text>
</g>
<!-- Node8_1 -->
<g id="node11" class="node">
<title>Node8_1</title>
<ellipse fill="#87ceeb" stroke="#87ceeb" cx="465.44" cy="-192" rx="61.99" ry="18"/>
<text text-anchor="middle" x="465.44" y="-188.3" font-family="Times,serif" font-size="14.00">वृकोदरस्य(8.1)</text>
</g>
<!-- Node8_1&#45;&gt;Node10_1 -->
<g id="edge8" class="edge">
<title>Node8_1&#45;&gt;Node10_1</title>
<path fill="none" stroke="black" d="M431.97,-213.92C407.75,-229.06 375.57,-249.17 353.77,-262.79"/>
<polygon fill="black" stroke="black" points="433.88,-216.86 440.5,-208.59 430.17,-210.92 433.88,-216.86"/>
<text text-anchor="middle" x="433.94" y="-231.8" font-family="Times,serif" font-size="14.00">षष्ठीसम्बन्धः</text>
</g>
<!-- Node11_1&#45;&gt;Node13_1 -->
<g id="edge11" class="edge">
<title>Node11_1&#45;&gt;Node13_1</title>
<path fill="none" stroke="black" d="M297.26,-387.88C274.13,-402.89 243.44,-422.81 222.43,-436.43"/>
<polygon fill="black" stroke="black" points="299.24,-390.77 305.72,-382.39 295.43,-384.9 299.24,-390.77"/>
<text text-anchor="middle" x="292.94" y="-405.8" font-family="Times,serif" font-size="14.00">पूर्वकालः</text>
</g>
<!-- Node12_1 -->
<g id="node13" class="node">
<title>Node12_1</title>
<ellipse fill="#93db70" stroke="#93db70" cx="198.44" cy="-366" rx="59.29" ry="18"/>
<text text-anchor="middle" x="198.44" y="-362.3" font-family="Times,serif" font-size="14.00">निर्वेदम्(12.1)</text>
</g>
<!-- Node12_1&#45;&gt;Node13_1 -->
<g id="edge12" class="edge">
<title>Node12_1&#45;&gt;Node13_1</title>
<path fill="none" stroke="black" d="M198.44,-394.27C198.44,-407.58 198.44,-423.19 198.44,-434.82"/>
<polygon fill="black" stroke="black" points="201.94,-394.2 198.44,-384.2 194.94,-394.2 201.94,-394.2"/>
<text text-anchor="middle" x="207.44" y="-405.8" font-family="Times,serif" font-size="14.00">कर्म</text>
</g>
</g>
</svg>
