<?xml version="1.0" encoding="UTF-8" standalone="no"?>
<!DOCTYPE svg PUBLIC "-//W3C//DTD SVG 1.1//EN"
 "http://www.w3.org/Graphics/SVG/1.1/DTD/svg11.dtd">
<!-- Generated by graphviz version 2.43.0 (0)
 -->
<!-- Title: G Pages: 1 -->
<svg width="864pt" height="305pt"
 viewBox="0.00 0.00 864.40 305.00" xmlns="http://www.w3.org/2000/svg" xmlns:xlink="http://www.w3.org/1999/xlink">
<g id="graph0" class="graph" transform="scale(1 1) rotate(0) translate(4 301)">
<title>G</title>
<polygon fill="#fffacd" stroke="transparent" points="-4,4 -4,-301 860.4,-301 860.4,4 -4,4"/>
<g id="clust1" class="cluster">
<title>cluster_1</title>
<polygon fill="#fffacd" stroke="black" points="8,-79 8,-218 150,-218 150,-79 8,-79"/>
</g>
<!-- Node6_1 -->
<g id="node1" class="node">
<title>Node6_1</title>
<ellipse fill="#93db70" stroke="#93db70" cx="79" cy="-105" rx="63.09" ry="18"/>
<text text-anchor="middle" x="79" y="-101.3" font-family="Times,serif" font-size="14.00">जनाधिपम्(6.1)</text>
</g>
<!-- Node5_1 -->
<g id="node2" class="node">
<title>Node5_1</title>
<ellipse fill="#93db70" stroke="#93db70" cx="80" cy="-192" rx="60.39" ry="18"/>
<text text-anchor="middle" x="80" y="-188.3" font-family="Times,serif" font-size="14.00">धृतराष्ट्रम्(5.1)</text>
</g>
<!-- Node6_1&#45;&gt;Node5_1 -->
<g id="edge6" class="edge">
<title>Node6_1&#45;&gt;Node5_1</title>
<path fill="none" stroke="black" d="M79.32,-133.27C79.48,-146.58 79.66,-162.19 79.8,-173.82"/>
<polygon fill="black" stroke="black" points="82.82,-133.16 79.2,-123.2 75.82,-133.24 82.82,-133.16"/>
<text text-anchor="middle" x="102.5" y="-144.8" font-family="Times,serif" font-size="14.00">विशेषणम्</text>
</g>
<!-- Node8_1 -->
<g id="node4" class="node">
<title>Node8_1</title>
<ellipse fill="#ff1975" stroke="#ff1975" cx="438" cy="-279" rx="90.98" ry="18"/>
<text text-anchor="middle" x="438" y="-275.3" font-family="Times,serif" font-size="14.00">अमर्षयत(अमर्षयत्)(8.1)</text>
</g>
<!-- Node5_1&#45;&gt;Node8_1 -->
<g id="edge5" class="edge">
<title>Node5_1&#45;&gt;Node8_1</title>
<path fill="none" stroke="black" d="M124.74,-210.2C132.75,-213 141.08,-215.72 149,-218 223.73,-239.49 311.42,-256.58 370.44,-266.94"/>
<polygon fill="black" stroke="black" points="125.75,-206.85 115.16,-206.78 123.39,-213.44 125.75,-206.85"/>
<text text-anchor="middle" x="253" y="-231.8" font-family="Times,serif" font-size="14.00">कर्म</text>
</g>
<!-- Node1_1 -->
<g id="node3" class="node">
<title>Node1_1</title>
<ellipse fill="#ff99ff" stroke="#ff99ff" cx="203" cy="-192" rx="44.69" ry="18"/>
<text text-anchor="middle" x="203" y="-188.3" font-family="Times,serif" font-size="14.00">तथा(1.1)</text>
</g>
<!-- Node1_1&#45;&gt;Node8_1 -->
<g id="edge1" class="edge">
<title>Node1_1&#45;&gt;Node8_1</title>
<path fill="none" stroke="black" d="M239.67,-210.65C245.42,-213.23 251.34,-215.76 257,-218 301.33,-235.54 353.06,-252.33 389.83,-263.67"/>
<polygon fill="black" stroke="black" points="240.76,-207.3 230.21,-206.33 237.85,-213.67 240.76,-207.3"/>
<text text-anchor="middle" x="340.5" y="-231.8" font-family="Times,serif" font-size="14.00">सम्बन्धः</text>
</g>
<!-- Node2_1 -->
<g id="node5" class="node">
<title>Node2_1</title>
<ellipse fill="#ff99ff" stroke="#ff99ff" cx="203" cy="-105" rx="41.69" ry="18"/>
<text text-anchor="middle" x="203" y="-101.3" font-family="Times,serif" font-size="14.00">एव(2.1)</text>
</g>
<!-- Node2_1&#45;&gt;Node1_1 -->
<g id="edge2" class="edge">
<title>Node2_1&#45;&gt;Node1_1</title>
<path fill="none" stroke="black" d="M203,-133.27C203,-146.58 203,-162.19 203,-173.82"/>
<polygon fill="black" stroke="black" points="206.5,-133.2 203,-123.2 199.5,-133.2 206.5,-133.2"/>
<text text-anchor="middle" x="221.5" y="-144.8" font-family="Times,serif" font-size="14.00">सम्बन्धः</text>
</g>
<!-- Node3_1 -->
<g id="node6" class="node">
<title>Node3_1</title>
<ellipse fill="#00bfff" stroke="#00bfff" cx="324" cy="-192" rx="58.49" ry="18"/>
<text text-anchor="middle" x="324" y="-188.3" font-family="Times,serif" font-size="14.00">भीमसेनः(3.1)</text>
</g>
<!-- Node3_1&#45;&gt;Node8_1 -->
<g id="edge3" class="edge">
<title>Node3_1&#45;&gt;Node8_1</title>
<path fill="none" stroke="black" d="M353.4,-214.92C372.86,-229.43 397.97,-248.16 415.77,-261.43"/>
<polygon fill="black" stroke="black" points="355.28,-211.96 345.18,-208.79 351.1,-217.57 355.28,-211.96"/>
<text text-anchor="middle" x="399" y="-231.8" font-family="Times,serif" font-size="14.00">कर्ता</text>
</g>
<!-- Node4_1 -->
<g id="node7" class="node">
<title>Node4_1</title>
<ellipse fill="#ff99ff" stroke="#ff99ff" cx="324" cy="-105" rx="46.29" ry="18"/>
<text text-anchor="middle" x="324" y="-101.3" font-family="Times,serif" font-size="14.00">अपि(4.1)</text>
</g>
<!-- Node4_1&#45;&gt;Node3_1 -->
<g id="edge4" class="edge">
<title>Node4_1&#45;&gt;Node3_1</title>
<path fill="none" stroke="black" d="M324,-133.27C324,-146.58 324,-162.19 324,-173.82"/>
<polygon fill="black" stroke="black" points="327.5,-133.2 324,-123.2 320.5,-133.2 327.5,-133.2"/>
<text text-anchor="middle" x="342.5" y="-144.8" font-family="Times,serif" font-size="14.00">सम्बन्धः</text>
</g>
<!-- Node7_1 -->
<g id="node8" class="node">
<title>Node7_1</title>
<ellipse fill="#ff99ff" stroke="#ff99ff" cx="438" cy="-192" rx="37.09" ry="18"/>
<text text-anchor="middle" x="438" y="-188.3" font-family="Times,serif" font-size="14.00">न(7.1)</text>
</g>
<!-- Node7_1&#45;&gt;Node8_1 -->
<g id="edge7" class="edge">
<title>Node7_1&#45;&gt;Node8_1</title>
<path fill="none" stroke="black" d="M438,-220.27C438,-233.58 438,-249.19 438,-260.82"/>
<polygon fill="black" stroke="black" points="441.5,-220.2 438,-210.2 434.5,-220.2 441.5,-220.2"/>
<text text-anchor="middle" x="457.5" y="-231.8" font-family="Times,serif" font-size="14.00">प्रतिषेधः</text>
</g>
<!-- Node9_1 -->
<g id="node9" class="node">
<title>Node9_1</title>
<ellipse fill="#6fffc3" stroke="#6fffc3" cx="544" cy="-192" rx="50.89" ry="18"/>
<text text-anchor="middle" x="544" y="-188.3" font-family="Times,serif" font-size="14.00">राजेन्द्र(9.1)</text>
</g>
<!-- Node9_1&#45;&gt;Node8_1 -->
<g id="edge8" class="edge">
<title>Node9_1&#45;&gt;Node8_1</title>
<path fill="none" stroke="black" d="M516.22,-215.28C498.29,-229.66 475.33,-248.06 458.94,-261.21"/>
<polygon fill="black" stroke="black" points="518.45,-217.97 524.06,-208.99 514.07,-212.51 518.45,-217.97"/>
<text text-anchor="middle" x="518" y="-231.8" font-family="Times,serif" font-size="14.00">सम्बोध्यः</text>
</g>
<!-- Node10_1 -->
<g id="node10" class="node">
<title>Node10_1</title>
<ellipse fill="#ff99ff" stroke="#ff99ff" cx="676" cy="-105" rx="50.89" ry="18"/>
<text text-anchor="middle" x="676" y="-101.3" font-family="Times,serif" font-size="14.00">सदा(10.1)</text>
</g>
<!-- Node11_1 -->
<g id="node11" class="node">
<title>Node11_1</title>
<ellipse fill="#ff1975" stroke="#ff1975" cx="676" cy="-192" rx="63.89" ry="18"/>
<text text-anchor="middle" x="676" y="-188.3" font-family="Times,serif" font-size="14.00">अतुष्टवत्(11.1)</text>
</g>
<!-- Node10_1&#45;&gt;Node11_1 -->
<g id="edge9" class="edge">
<title>Node10_1&#45;&gt;Node11_1</title>
<path fill="none" stroke="black" d="M676,-133.27C676,-146.58 676,-162.19 676,-173.82"/>
<polygon fill="black" stroke="black" points="679.5,-133.2 676,-123.2 672.5,-133.2 679.5,-133.2"/>
<text text-anchor="middle" x="711" y="-144.8" font-family="Times,serif" font-size="14.00">क्रियाविशेषणम्</text>
</g>
<!-- Node11_1&#45;&gt;Node8_1 -->
<g id="edge10" class="edge">
<title>Node11_1&#45;&gt;Node8_1</title>
<path fill="none" stroke="black" d="M630.55,-210.57C604.93,-220.36 572.28,-232.62 543,-243 523.53,-249.9 501.9,-257.18 483.35,-263.3"/>
<polygon fill="black" stroke="black" points="631.92,-213.8 640.01,-206.95 629.42,-207.26 631.92,-213.8"/>
<text text-anchor="middle" x="618" y="-231.8" font-family="Times,serif" font-size="14.00">क्रियाविशेषणम्</text>
</g>
<!-- Node12_1 -->
<g id="node12" class="node">
<title>Node12_1</title>
<ellipse fill="#ff99ff" stroke="#ff99ff" cx="676" cy="-18" rx="47.39" ry="18"/>
<text text-anchor="middle" x="676" y="-14.3" font-family="Times,serif" font-size="14.00">एव(12.1)</text>
</g>
<!-- Node12_1&#45;&gt;Node10_1 -->
<g id="edge11" class="edge">
<title>Node12_1&#45;&gt;Node10_1</title>
<path fill="none" stroke="black" d="M676,-46.27C676,-59.58 676,-75.19 676,-86.82"/>
<polygon fill="black" stroke="black" points="679.5,-46.2 676,-36.2 672.5,-46.2 679.5,-46.2"/>
<text text-anchor="middle" x="694.5" y="-57.8" font-family="Times,serif" font-size="14.00">सम्बन्धः</text>
</g>
<!-- Node13_1 -->
<g id="node13" class="node">
<title>Node13_1</title>
<ellipse fill="#40e0d0" stroke="#40e0d0" cx="807" cy="-192" rx="49.29" ry="18"/>
<text text-anchor="middle" x="807" y="-188.3" font-family="Times,serif" font-size="14.00">हृदा(13.1)</text>
</g>
<!-- Node13_1&#45;&gt;Node8_1 -->
<g id="edge12" class="edge">
<title>Node13_1&#45;&gt;Node8_1</title>
<path fill="none" stroke="black" d="M768.56,-210.47C762.09,-213.15 755.4,-215.76 749,-218 671.78,-244.98 579.3,-260.86 515.36,-269.44"/>
<polygon fill="black" stroke="black" points="769.98,-213.67 777.81,-206.54 767.24,-207.23 769.98,-213.67"/>
<text text-anchor="middle" x="725.5" y="-231.8" font-family="Times,serif" font-size="14.00">हेतुः</text>
</g>
</g>
</svg>
