<?xml version="1.0" encoding="UTF-8" standalone="no"?>
<!DOCTYPE svg PUBLIC "-//W3C//DTD SVG 1.1//EN"
 "http://www.w3.org/Graphics/SVG/1.1/DTD/svg11.dtd">
<!-- Generated by graphviz version 2.43.0 (0)
 -->
<!-- Title: G Pages: 1 -->
<svg width="810pt" height="392pt"
 viewBox="0.00 0.00 810.00 392.00" xmlns="http://www.w3.org/2000/svg" xmlns:xlink="http://www.w3.org/1999/xlink">
<g id="graph0" class="graph" transform="scale(1 1) rotate(0) translate(4 388)">
<title>G</title>
<polygon fill="#fffacd" stroke="transparent" points="-4,4 -4,-388 806,-388 806,4 -4,4"/>
<g id="clust1" class="cluster">
<title>cluster_1</title>
<polygon fill="#fffacd" stroke="black" points="243,-166 243,-305 794,-305 794,-166 243,-166"/>
</g>
<g id="clust2" class="cluster">
<title>cluster_2</title>
<polygon fill="#fffacd" stroke="black" points="8,-166 8,-305 150,-305 150,-166 8,-166"/>
</g>
<!-- Node1_1 -->
<g id="node1" class="node">
<title>Node1_1</title>
<ellipse fill="#00bfff" stroke="#00bfff" cx="746" cy="-192" rx="40.09" ry="18"/>
<text text-anchor="middle" x="746" y="-188.3" font-family="Times,serif" font-size="14.00">सा(1.1)</text>
</g>
<!-- Node6_1 -->
<g id="node2" class="node">
<title>Node6_1</title>
<ellipse fill="#00bfff" stroke="#00bfff" cx="411" cy="-279" rx="55.79" ry="18"/>
<text text-anchor="middle" x="411" y="-275.3" font-family="Times,serif" font-size="14.00">गान्धारी(6.1)</text>
</g>
<!-- Node1_1&#45;&gt;Node6_1 -->
<g id="edge1" class="edge">
<title>Node1_1&#45;&gt;Node6_1</title>
<path fill="none" stroke="black" d="M708.11,-208.46C680.25,-219.35 641.25,-233.61 606,-243 557.64,-255.88 501.26,-265.43 461.6,-271.27"/>
<polygon fill="black" stroke="black" points="709.47,-211.69 717.48,-204.76 706.9,-205.17 709.47,-211.69"/>
<text text-anchor="middle" x="674.5" y="-231.8" font-family="Times,serif" font-size="14.00">विशेषणम्</text>
</g>
<!-- Node10_1 -->
<g id="node12" class="node">
<title>Node10_1</title>
<ellipse fill="#ff1975" stroke="#ff1975" cx="281" cy="-366" rx="53.89" ry="18"/>
<text text-anchor="middle" x="281" y="-362.3" font-family="Times,serif" font-size="14.00">शुश्रुवे(10.1)</text>
</g>
<!-- Node6_1&#45;&gt;Node10_1 -->
<g id="edge8" class="edge">
<title>Node6_1&#45;&gt;Node10_1</title>
<path fill="none" stroke="black" d="M379.01,-300.92C355.89,-316.03 325.2,-336.1 304.37,-349.72"/>
<polygon fill="black" stroke="black" points="381,-303.79 387.46,-295.39 377.17,-297.94 381,-303.79"/>
<text text-anchor="middle" x="364" y="-318.8" font-family="Times,serif" font-size="14.00">कर्ता</text>
</g>
<!-- Node3_1 -->
<g id="node3" class="node">
<title>Node3_1</title>
<ellipse fill="#00bfff" stroke="#00bfff" cx="631" cy="-192" rx="56.59" ry="18"/>
<text text-anchor="middle" x="631" y="-188.3" font-family="Times,serif" font-size="14.00">बुद्धिमती(3.1)</text>
</g>
<!-- Node3_1&#45;&gt;Node6_1 -->
<g id="edge3" class="edge">
<title>Node3_1&#45;&gt;Node6_1</title>
<path fill="none" stroke="black" d="M593.59,-212.25C573.55,-222.15 548.26,-234 525,-243 501.35,-252.16 474.23,-260.56 452.38,-266.84"/>
<polygon fill="black" stroke="black" points="595.3,-215.31 602.69,-207.71 592.18,-209.04 595.3,-215.31"/>
<text text-anchor="middle" x="579.5" y="-231.8" font-family="Times,serif" font-size="14.00">विशेषणम्</text>
</g>
<!-- Node4_1 -->
<g id="node4" class="node">
<title>Node4_1</title>
<ellipse fill="#00bfff" stroke="#00bfff" cx="513" cy="-192" rx="43.59" ry="18"/>
<text text-anchor="middle" x="513" y="-188.3" font-family="Times,serif" font-size="14.00">देवी(4.1)</text>
</g>
<!-- Node4_1&#45;&gt;Node6_1 -->
<g id="edge4" class="edge">
<title>Node4_1&#45;&gt;Node6_1</title>
<path fill="none" stroke="black" d="M490.06,-215.94C480.95,-224.69 470.23,-234.59 460,-243 451.93,-249.64 442.68,-256.43 434.42,-262.25"/>
<polygon fill="black" stroke="black" points="492.56,-218.39 497.28,-208.91 487.68,-213.38 492.56,-218.39"/>
<text text-anchor="middle" x="498.5" y="-231.8" font-family="Times,serif" font-size="14.00">विशेषणम्</text>
</g>
<!-- Node5_3 -->
<g id="node5" class="node">
<title>Node5_3</title>
<ellipse fill="#00bfff" stroke="#00bfff" cx="302" cy="-192" rx="50.89" ry="18"/>
<text text-anchor="middle" x="302" y="-188.3" font-family="Times,serif" font-size="14.00">वेदिनी(5.3)</text>
</g>
<!-- Node5_3&#45;&gt;Node6_1 -->
<g id="edge7" class="edge">
<title>Node5_3&#45;&gt;Node6_1</title>
<path fill="none" stroke="black" d="M328.25,-215.6C338.62,-224.33 350.74,-234.3 362,-243 370.44,-249.52 379.93,-256.4 388.3,-262.32"/>
<polygon fill="black" stroke="black" points="330.25,-212.7 320.36,-208.9 325.72,-218.04 330.25,-212.7"/>
<text text-anchor="middle" x="384.5" y="-231.8" font-family="Times,serif" font-size="14.00">समुच्चितः</text>
</g>
<!-- Node7_3 -->
<g id="node6" class="node">
<title>Node7_3</title>
<ellipse fill="#00bfff" stroke="#00bfff" cx="411" cy="-192" rx="40.09" ry="18"/>
<text text-anchor="middle" x="411" y="-188.3" font-family="Times,serif" font-size="14.00">ज्ञा(7.3)</text>
</g>
<!-- Node7_3&#45;&gt;Node6_1 -->
<g id="edge11" class="edge">
<title>Node7_3&#45;&gt;Node6_1</title>
<path fill="none" stroke="black" d="M411,-220.27C411,-233.58 411,-249.19 411,-260.82"/>
<polygon fill="black" stroke="black" points="414.5,-220.2 411,-210.2 407.5,-220.2 414.5,-220.2"/>
<text text-anchor="middle" x="433.5" y="-231.8" font-family="Times,serif" font-size="14.00">समुच्चितः</text>
</g>
<!-- Node8_1 -->
<g id="node7" class="node">
<title>Node8_1</title>
<ellipse fill="#00bfff" stroke="#00bfff" cx="79" cy="-192" rx="46.59" ry="18"/>
<text text-anchor="middle" x="79" y="-188.3" font-family="Times,serif" font-size="14.00">तानि(8.1)</text>
</g>
<!-- Node9_1 -->
<g id="node8" class="node">
<title>Node9_1</title>
<ellipse fill="#00bfff" stroke="#00bfff" cx="79" cy="-279" rx="63.09" ry="18"/>
<text text-anchor="middle" x="79" y="-275.3" font-family="Times,serif" font-size="14.00">अलीकानि(9.1)</text>
</g>
<!-- Node8_1&#45;&gt;Node9_1 -->
<g id="edge12" class="edge">
<title>Node8_1&#45;&gt;Node9_1</title>
<path fill="none" stroke="black" d="M79,-220.27C79,-233.58 79,-249.19 79,-260.82"/>
<polygon fill="black" stroke="black" points="82.5,-220.2 79,-210.2 75.5,-220.2 82.5,-220.2"/>
<text text-anchor="middle" x="101.5" y="-231.8" font-family="Times,serif" font-size="14.00">विशेषणम्</text>
</g>
<!-- Node9_1&#45;&gt;Node10_1 -->
<g id="edge13" class="edge">
<title>Node9_1&#45;&gt;Node10_1</title>
<path fill="none" stroke="black" d="M122.08,-298.13C160.03,-314.1 214.46,-337 248.75,-351.43"/>
<polygon fill="black" stroke="black" points="123.38,-294.88 112.81,-294.23 120.67,-301.33 123.38,-294.88"/>
<text text-anchor="middle" x="202" y="-318.8" font-family="Times,serif" font-size="14.00">कर्म</text>
</g>
<!-- Node2_1 -->
<g id="node9" class="node">
<title>Node2_1</title>
<ellipse fill="#ff99ff" stroke="#ff99ff" cx="196" cy="-192" rx="37.89" ry="18"/>
<text text-anchor="middle" x="196" y="-188.3" font-family="Times,serif" font-size="14.00">च(2.1)</text>
</g>
<!-- Node2_1&#45;&gt;Node6_1 -->
<g id="edge2" class="edge">
<title>Node2_1&#45;&gt;Node6_1</title>
<path fill="none" stroke="black" d="M229.84,-210.34C250.41,-220.54 277.38,-233.29 302,-243 324.37,-251.82 349.95,-260.13 370.7,-266.43"/>
<polygon fill="black" stroke="black" points="231.38,-207.2 220.87,-205.86 228.25,-213.46 231.38,-207.2"/>
<text text-anchor="middle" x="320.5" y="-231.8" font-family="Times,serif" font-size="14.00">सम्बन्धः</text>
</g>
<!-- Node5_1 -->
<g id="node10" class="node">
<title>Node5_1</title>
<ellipse fill="#ffff00" stroke="#ffff00" cx="299" cy="-18" rx="50.09" ry="18"/>
<text text-anchor="middle" x="299" y="-14.3" font-family="Times,serif" font-size="14.00">काल&#45;(5.1)</text>
</g>
<!-- Node5_2 -->
<g id="node11" class="node">
<title>Node5_2</title>
<ellipse fill="#ffff00" stroke="#ffff00" cx="300" cy="-105" rx="51.99" ry="18"/>
<text text-anchor="middle" x="300" y="-101.3" font-family="Times,serif" font-size="14.00">पर्याय&#45;(5.2)</text>
</g>
<!-- Node5_1&#45;&gt;Node5_2 -->
<g id="edge5" class="edge">
<title>Node5_1&#45;&gt;Node5_2</title>
<path fill="none" stroke="black" d="M299.32,-46.27C299.48,-59.58 299.66,-75.19 299.8,-86.82"/>
<polygon fill="black" stroke="black" points="302.82,-46.16 299.2,-36.2 295.82,-46.24 302.82,-46.16"/>
<text text-anchor="middle" x="309.5" y="-57.8" font-family="Times,serif" font-size="14.00">T6</text>
</g>
<!-- Node5_2&#45;&gt;Node5_3 -->
<g id="edge6" class="edge">
<title>Node5_2&#45;&gt;Node5_3</title>
<path fill="none" stroke="black" d="M300.64,-133.27C300.95,-146.58 301.32,-162.19 301.6,-173.82"/>
<polygon fill="black" stroke="black" points="304.14,-133.12 300.4,-123.2 297.14,-133.28 304.14,-133.12"/>
<text text-anchor="middle" x="308.5" y="-144.8" font-family="Times,serif" font-size="14.00">U</text>
</g>
<!-- Node7_1 -->
<g id="node13" class="node">
<title>Node7_1</title>
<ellipse fill="#ffff00" stroke="#ffff00" cx="413" cy="-18" rx="45.49" ry="18"/>
<text text-anchor="middle" x="413" y="-14.3" font-family="Times,serif" font-size="14.00">सर्व&#45;(7.1)</text>
</g>
<!-- Node7_2 -->
<g id="node14" class="node">
<title>Node7_2</title>
<ellipse fill="#ffff00" stroke="#ffff00" cx="413" cy="-105" rx="42.49" ry="18"/>
<text text-anchor="middle" x="413" y="-101.3" font-family="Times,serif" font-size="14.00">धर्म(7.2)</text>
</g>
<!-- Node7_1&#45;&gt;Node7_2 -->
<g id="edge9" class="edge">
<title>Node7_1&#45;&gt;Node7_2</title>
<path fill="none" stroke="black" d="M413,-46.27C413,-59.58 413,-75.19 413,-86.82"/>
<polygon fill="black" stroke="black" points="416.5,-46.2 413,-36.2 409.5,-46.2 416.5,-46.2"/>
<text text-anchor="middle" x="423" y="-57.8" font-family="Times,serif" font-size="14.00">K1</text>
</g>
<!-- Node7_2&#45;&gt;Node7_3 -->
<g id="edge10" class="edge">
<title>Node7_2&#45;&gt;Node7_3</title>
<path fill="none" stroke="black" d="M412.36,-133.27C412.05,-146.58 411.68,-162.19 411.4,-173.82"/>
<polygon fill="black" stroke="black" points="415.86,-133.28 412.6,-123.2 408.86,-133.12 415.86,-133.28"/>
<text text-anchor="middle" x="418.5" y="-144.8" font-family="Times,serif" font-size="14.00">U</text>
</g>
</g>
</svg>
