<?xml version="1.0" encoding="UTF-8" standalone="no"?>
<!DOCTYPE svg PUBLIC "-//W3C//DTD SVG 1.1//EN"
 "http://www.w3.org/Graphics/SVG/1.1/DTD/svg11.dtd">
<!-- Generated by graphviz version 2.43.0 (0)
 -->
<!-- Title: G Pages: 1 -->
<svg width="658pt" height="392pt"
 viewBox="0.00 0.00 658.49 392.00" xmlns="http://www.w3.org/2000/svg" xmlns:xlink="http://www.w3.org/1999/xlink">
<g id="graph0" class="graph" transform="scale(1 1) rotate(0) translate(4 388)">
<title>G</title>
<polygon fill="#fffacd" stroke="transparent" points="-4,4 -4,-388 654.49,-388 654.49,4 -4,4"/>
<g id="clust1" class="cluster">
<title>cluster_1</title>
<polygon fill="#fffacd" stroke="black" points="8,-166 8,-305 120,-305 120,-166 8,-166"/>
</g>
<g id="clust2" class="cluster">
<title>cluster_2</title>
<polygon fill="#fffacd" stroke="black" points="279,-79 279,-218 407,-218 407,-79 279,-79"/>
</g>
<!-- Node2 -->
<g id="node1" class="node">
<title>Node2</title>
<ellipse fill="#00bfff" stroke="#00bfff" cx="64" cy="-192" rx="48.19" ry="18"/>
<text text-anchor="middle" x="64" y="-188.3" font-family="Times,serif" font-size="14.00">अमर्षणः(2)</text>
</g>
<!-- Node3 -->
<g id="node2" class="node">
<title>Node3</title>
<ellipse fill="#00bfff" stroke="#00bfff" cx="68" cy="-279" rx="38.99" ry="18"/>
<text text-anchor="middle" x="68" y="-275.3" font-family="Times,serif" font-size="14.00">भीमः(3)</text>
</g>
<!-- Node2&#45;&gt;Node3 -->
<g id="edge2" class="edge">
<title>Node2&#45;&gt;Node3</title>
<path fill="none" stroke="black" d="M65.28,-220.27C65.91,-233.58 66.64,-249.19 67.19,-260.82"/>
<polygon fill="black" stroke="black" points="68.78,-220.03 64.81,-210.2 61.78,-220.35 68.78,-220.03"/>
<text text-anchor="middle" x="89.5" y="-231.8" font-family="Times,serif" font-size="14.00">विशेषणम्</text>
</g>
<!-- Node12 -->
<g id="node6" class="node">
<title>Node12</title>
<ellipse fill="#ff1975" stroke="#ff1975" cx="290" cy="-366" rx="52.79" ry="18"/>
<text text-anchor="middle" x="290" y="-362.3" font-family="Times,serif" font-size="14.00">अकरोत्(12)</text>
</g>
<!-- Node3&#45;&gt;Node12 -->
<g id="edge3" class="edge">
<title>Node3&#45;&gt;Node12</title>
<path fill="none" stroke="black" d="M102.38,-297.17C107.92,-299.84 113.6,-302.53 119,-305 144.91,-316.83 151.27,-320.19 178,-330 202,-338.81 229.39,-347.39 251.07,-353.86"/>
<polygon fill="black" stroke="black" points="103.81,-293.98 93.29,-292.74 100.74,-300.27 103.81,-293.98"/>
<text text-anchor="middle" x="189" y="-318.8" font-family="Times,serif" font-size="14.00">कर्ता</text>
</g>
<!-- Node5 -->
<g id="node3" class="node">
<title>Node5</title>
<ellipse fill="#87ceeb" stroke="#87ceeb" cx="343" cy="-105" rx="55.79" ry="18"/>
<text text-anchor="middle" x="343" y="-101.3" font-family="Times,serif" font-size="14.00">धृतराष्ट्रस्य(5)</text>
</g>
<!-- Node6 -->
<g id="node4" class="node">
<title>Node6</title>
<ellipse fill="#b4ffb4" stroke="#b4ffb4" cx="346" cy="-192" rx="50.89" ry="18"/>
<text text-anchor="middle" x="346" y="-188.3" font-family="Times,serif" font-size="14.00">गान्धार्याः(6)</text>
</g>
<!-- Node5&#45;&gt;Node6 -->
<g id="edge5" class="edge">
<title>Node5&#45;&gt;Node6</title>
<path fill="none" stroke="black" d="M343.96,-133.27C344.43,-146.58 344.98,-162.19 345.39,-173.82"/>
<polygon fill="black" stroke="black" points="347.46,-133.07 343.61,-123.2 340.46,-133.32 347.46,-133.07"/>
<text text-anchor="middle" x="367.5" y="-144.8" font-family="Times,serif" font-size="14.00">समुच्चितः</text>
</g>
<!-- Node9 -->
<g id="node8" class="node">
<title>Node9</title>
<ellipse fill="#c6e2eb" stroke="#c6e2eb" cx="346" cy="-279" rx="39.79" ry="18"/>
<text text-anchor="middle" x="346" y="-275.3" font-family="Times,serif" font-size="14.00">संश्रवे(9)</text>
</g>
<!-- Node6&#45;&gt;Node9 -->
<g id="edge6" class="edge">
<title>Node6&#45;&gt;Node9</title>
<path fill="none" stroke="black" d="M346,-220.27C346,-233.58 346,-249.19 346,-260.82"/>
<polygon fill="black" stroke="black" points="349.5,-220.2 346,-210.2 342.5,-220.2 349.5,-220.2"/>
<text text-anchor="middle" x="373.5" y="-231.8" font-family="Times,serif" font-size="14.00">षष्ठीसम्बन्धः</text>
</g>
<!-- Node1 -->
<g id="node5" class="node">
<title>Node1</title>
<ellipse fill="#ff99ff" stroke="#ff99ff" cx="163" cy="-279" rx="35.19" ry="18"/>
<text text-anchor="middle" x="163" y="-275.3" font-family="Times,serif" font-size="14.00">अथ(1)</text>
</g>
<!-- Node1&#45;&gt;Node12 -->
<g id="edge1" class="edge">
<title>Node1&#45;&gt;Node12</title>
<path fill="none" stroke="black" d="M186.73,-301.77C197.4,-311.03 210.41,-321.61 223,-330 234.68,-337.79 248.3,-345.18 260.2,-351.15"/>
<polygon fill="black" stroke="black" points="188.88,-299 179.06,-295.01 184.24,-304.25 188.88,-299"/>
<text text-anchor="middle" x="241.5" y="-318.8" font-family="Times,serif" font-size="14.00">सम्बन्धः</text>
</g>
<!-- Node4 -->
<g id="node7" class="node">
<title>Node4</title>
<ellipse fill="#ff99ff" stroke="#ff99ff" cx="252" cy="-279" rx="36.29" ry="18"/>
<text text-anchor="middle" x="252" y="-275.3" font-family="Times,serif" font-size="14.00">तथा(4)</text>
</g>
<!-- Node4&#45;&gt;Node12 -->
<g id="edge4" class="edge">
<title>Node4&#45;&gt;Node12</title>
<path fill="none" stroke="black" d="M260.59,-306.55C263.34,-314.23 266.56,-322.54 270,-330 272.82,-336.1 276.33,-342.55 279.63,-348.22"/>
<polygon fill="black" stroke="black" points="263.85,-305.27 257.29,-296.96 257.24,-307.55 263.85,-305.27"/>
<text text-anchor="middle" x="288.5" y="-318.8" font-family="Times,serif" font-size="14.00">सम्बन्धः</text>
</g>
<!-- Node9&#45;&gt;Node12 -->
<g id="edge9" class="edge">
<title>Node9&#45;&gt;Node12</title>
<path fill="none" stroke="black" d="M329.5,-305.05C320.29,-319.02 309.08,-336.04 300.96,-348.37"/>
<polygon fill="black" stroke="black" points="332.62,-306.67 335.2,-296.39 326.78,-302.81 332.62,-306.67"/>
<text text-anchor="middle" x="349.5" y="-318.8" font-family="Times,serif" font-size="14.00">अधिकरणम्</text>
</g>
<!-- Node7 -->
<g id="node9" class="node">
<title>Node7</title>
<ellipse fill="#ff99ff" stroke="#ff99ff" cx="445" cy="-105" rx="28.7" ry="18"/>
<text text-anchor="middle" x="445" y="-101.3" font-family="Times,serif" font-size="14.00">च(7)</text>
</g>
<!-- Node7&#45;&gt;Node6 -->
<g id="edge7" class="edge">
<title>Node7&#45;&gt;Node6</title>
<path fill="none" stroke="black" d="M423.77,-128.18C414.85,-137.13 404.2,-147.36 394,-156 385.97,-162.8 376.72,-169.74 368.5,-175.62"/>
<polygon fill="black" stroke="black" points="426.29,-130.61 430.8,-121.03 421.3,-125.7 426.29,-130.61"/>
<text text-anchor="middle" x="449" y="-144.8" font-family="Times,serif" font-size="14.00">समुच्चय_द्योतकः</text>
</g>
<!-- Node8 -->
<g id="node10" class="node">
<title>Node8</title>
<ellipse fill="#ff99ff" stroke="#ff99ff" cx="445" cy="-18" rx="37.09" ry="18"/>
<text text-anchor="middle" x="445" y="-14.3" font-family="Times,serif" font-size="14.00">अपि(8)</text>
</g>
<!-- Node8&#45;&gt;Node7 -->
<g id="edge8" class="edge">
<title>Node8&#45;&gt;Node7</title>
<path fill="none" stroke="black" d="M445,-46.27C445,-59.58 445,-75.19 445,-86.82"/>
<polygon fill="black" stroke="black" points="448.5,-46.2 445,-36.2 441.5,-46.2 448.5,-46.2"/>
<text text-anchor="middle" x="463.5" y="-57.8" font-family="Times,serif" font-size="14.00">सम्बन्धः</text>
</g>
<!-- Node10 -->
<g id="node11" class="node">
<title>Node10</title>
<ellipse fill="#c6e2eb" stroke="#c6e2eb" cx="460" cy="-279" rx="55.79" ry="18"/>
<text text-anchor="middle" x="460" y="-275.3" font-family="Times,serif" font-size="14.00">सुहृन्मध्ये(10)</text>
</g>
<!-- Node10&#45;&gt;Node12 -->
<g id="edge10" class="edge">
<title>Node10&#45;&gt;Node12</title>
<path fill="none" stroke="black" d="M429.41,-301.35C415.09,-310.81 397.57,-321.67 381,-330 363.61,-338.74 343.48,-346.69 326.58,-352.8"/>
<polygon fill="black" stroke="black" points="431.52,-304.14 437.88,-295.66 427.62,-298.33 431.52,-304.14"/>
<text text-anchor="middle" x="433.5" y="-318.8" font-family="Times,serif" font-size="14.00">अधिकरणम्</text>
</g>
<!-- Node11 -->
<g id="node12" class="node">
<title>Node11</title>
<ellipse fill="#93db70" stroke="#93db70" cx="592" cy="-279" rx="58.49" ry="18"/>
<text text-anchor="middle" x="592" y="-275.3" font-family="Times,serif" font-size="14.00">बाहुशब्दम्(11)</text>
</g>
<!-- Node11&#45;&gt;Node12 -->
<g id="edge11" class="edge">
<title>Node11&#45;&gt;Node12</title>
<path fill="none" stroke="black" d="M551.08,-298.25C526.51,-308.68 494.4,-321.35 465,-330 422.5,-342.51 372.87,-351.96 337.35,-357.87"/>
<polygon fill="black" stroke="black" points="552.64,-301.4 560.45,-294.24 549.88,-294.96 552.64,-301.4"/>
<text text-anchor="middle" x="517" y="-318.8" font-family="Times,serif" font-size="14.00">कर्म</text>
</g>
</g>
</svg>
