<?xml version="1.0" encoding="UTF-8" standalone="no"?>
<!DOCTYPE svg PUBLIC "-//W3C//DTD SVG 1.1//EN"
 "http://www.w3.org/Graphics/SVG/1.1/DTD/svg11.dtd">
<!-- Generated by graphviz version 2.43.0 (0)
 -->
<!-- Title: G Pages: 1 -->
<svg width="506pt" height="566pt"
 viewBox="0.00 0.00 506.30 566.00" xmlns="http://www.w3.org/2000/svg" xmlns:xlink="http://www.w3.org/1999/xlink">
<g id="graph0" class="graph" transform="scale(1 1) rotate(0) translate(4 562)">
<title>G</title>
<polygon fill="#fffacd" stroke="transparent" points="-4,4 -4,-562 502.3,-562 502.3,4 -4,4"/>
<g id="clust1" class="cluster">
<title>cluster_1</title>
<polygon fill="#fffacd" stroke="black" points="8,-253 8,-392 138,-392 138,-253 8,-253"/>
</g>
<g id="clust2" class="cluster">
<title>cluster_2</title>
<polygon fill="#fffacd" stroke="black" points="146,-253 146,-479 278,-479 278,-253 146,-253"/>
</g>
<!-- Node2_1 -->
<g id="node1" class="node">
<title>Node2_1</title>
<ellipse fill="#c6e2eb" stroke="#c6e2eb" cx="73" cy="-279" rx="56.59" ry="18"/>
<text text-anchor="middle" x="73" y="-275.3" font-family="Times,serif" font-size="14.00">पञ्चदशे(2.1)</text>
</g>
<!-- Node3_1 -->
<g id="node2" class="node">
<title>Node3_1</title>
<ellipse fill="#c6e2eb" stroke="#c6e2eb" cx="75" cy="-366" rx="41.69" ry="18"/>
<text text-anchor="middle" x="75" y="-362.3" font-family="Times,serif" font-size="14.00">वर्षे(3.1)</text>
</g>
<!-- Node2_1&#45;&gt;Node3_1 -->
<g id="edge2" class="edge">
<title>Node2_1&#45;&gt;Node3_1</title>
<path fill="none" stroke="black" d="M73.64,-307.27C73.95,-320.58 74.32,-336.19 74.6,-347.82"/>
<polygon fill="black" stroke="black" points="77.14,-307.12 73.4,-297.2 70.14,-307.28 77.14,-307.12"/>
<text text-anchor="middle" x="97.5" y="-318.8" font-family="Times,serif" font-size="14.00">विशेषणम्</text>
</g>
<!-- Node4_1 -->
<g id="node8" class="node">
<title>Node4_1</title>
<ellipse fill="#c6e2eb" stroke="#c6e2eb" cx="78" cy="-453" rx="55.49" ry="18"/>
<text text-anchor="middle" x="78" y="-449.3" font-family="Times,serif" font-size="14.00">समतीते(4.1)</text>
</g>
<!-- Node3_1&#45;&gt;Node4_1 -->
<g id="edge3" class="edge">
<title>Node3_1&#45;&gt;Node4_1</title>
<path fill="none" stroke="black" d="M75.96,-394.27C76.43,-407.58 76.98,-423.19 77.39,-434.82"/>
<polygon fill="black" stroke="black" points="79.46,-394.07 75.61,-384.2 72.46,-394.32 79.46,-394.07"/>
<text text-anchor="middle" x="86" y="-405.8" font-family="Times,serif" font-size="14.00">कर्म</text>
</g>
<!-- Node5_1 -->
<g id="node3" class="node">
<title>Node5_1</title>
<ellipse fill="#00bfff" stroke="#00bfff" cx="212" cy="-366" rx="57.69" ry="18"/>
<text text-anchor="middle" x="212" y="-362.3" font-family="Times,serif" font-size="14.00">नराधिपः(5.1)</text>
</g>
<!-- Node6_1 -->
<g id="node4" class="node">
<title>Node6_1</title>
<ellipse fill="#00bfff" stroke="#00bfff" cx="217" cy="-453" rx="46.29" ry="18"/>
<text text-anchor="middle" x="217" y="-449.3" font-family="Times,serif" font-size="14.00">राजा(6.1)</text>
</g>
<!-- Node5_1&#45;&gt;Node6_1 -->
<g id="edge5" class="edge">
<title>Node5_1&#45;&gt;Node6_1</title>
<path fill="none" stroke="black" d="M213.6,-394.27C214.39,-407.58 215.31,-423.19 215.99,-434.82"/>
<polygon fill="black" stroke="black" points="217.09,-393.98 213.01,-384.2 210.11,-394.39 217.09,-393.98"/>
<text text-anchor="middle" x="237.5" y="-405.8" font-family="Times,serif" font-size="14.00">विशेषणम्</text>
</g>
<!-- Node9_1 -->
<g id="node7" class="node">
<title>Node9_1</title>
<ellipse fill="#ff1975" stroke="#ff1975" cx="303" cy="-540" rx="50.09" ry="18"/>
<text text-anchor="middle" x="303" y="-536.3" font-family="Times,serif" font-size="14.00">आपेदे(9.1)</text>
</g>
<!-- Node6_1&#45;&gt;Node9_1 -->
<g id="edge6" class="edge">
<title>Node6_1&#45;&gt;Node9_1</title>
<path fill="none" stroke="black" d="M240.43,-477.16C255.06,-491.62 273.53,-509.88 286.6,-522.79"/>
<polygon fill="black" stroke="black" points="242.75,-474.53 233.18,-469.99 237.83,-479.51 242.75,-474.53"/>
<text text-anchor="middle" x="277" y="-492.8" font-family="Times,serif" font-size="14.00">कर्ता</text>
</g>
<!-- Node8_4 -->
<g id="node5" class="node">
<title>Node8_4</title>
<ellipse fill="#00bfff" stroke="#00bfff" cx="212" cy="-279" rx="53.89" ry="18"/>
<text text-anchor="middle" x="212" y="-275.3" font-family="Times,serif" font-size="14.00">पीडितः(8.4)</text>
</g>
<!-- Node8_4&#45;&gt;Node5_1 -->
<g id="edge11" class="edge">
<title>Node8_4&#45;&gt;Node5_1</title>
<path fill="none" stroke="black" d="M212,-307.27C212,-320.58 212,-336.19 212,-347.82"/>
<polygon fill="black" stroke="black" points="215.5,-307.2 212,-297.2 208.5,-307.2 215.5,-307.2"/>
<text text-anchor="middle" x="234.5" y="-318.8" font-family="Times,serif" font-size="14.00">विशेषणम्</text>
</g>
<!-- Node1_1 -->
<g id="node6" class="node">
<title>Node1_1</title>
<ellipse fill="#ff99ff" stroke="#ff99ff" cx="330" cy="-453" rx="44.39" ry="18"/>
<text text-anchor="middle" x="330" y="-449.3" font-family="Times,serif" font-size="14.00">ततः(1.1)</text>
</g>
<!-- Node1_1&#45;&gt;Node9_1 -->
<g id="edge1" class="edge">
<title>Node1_1&#45;&gt;Node9_1</title>
<path fill="none" stroke="black" d="M321.46,-480.87C317.21,-494.27 312.19,-510.08 308.46,-521.82"/>
<polygon fill="black" stroke="black" points="324.84,-481.79 324.54,-471.2 318.17,-479.67 324.84,-481.79"/>
<text text-anchor="middle" x="336.5" y="-492.8" font-family="Times,serif" font-size="14.00">सम्बन्धः</text>
</g>
<!-- Node4_1&#45;&gt;Node9_1 -->
<g id="edge4" class="edge">
<title>Node4_1&#45;&gt;Node9_1</title>
<path fill="none" stroke="black" d="M85.83,-480.54C89.67,-489.26 95.2,-498.19 103,-504 126.39,-521.42 203.13,-530.95 254.46,-535.5"/>
<polygon fill="black" stroke="black" points="89.02,-479.08 82.19,-470.98 82.48,-481.57 89.02,-479.08"/>
<text text-anchor="middle" x="177" y="-492.8" font-family="Times,serif" font-size="14.00">भावलक्षणसप्तमी_अनन्तरकालः</text>
</g>
<!-- Node7_1 -->
<g id="node9" class="node">
<title>Node7_1</title>
<ellipse fill="#93db70" stroke="#93db70" cx="445" cy="-453" rx="53.09" ry="18"/>
<text text-anchor="middle" x="445" y="-449.3" font-family="Times,serif" font-size="14.00">निर्वेदम्(7.1)</text>
</g>
<!-- Node7_1&#45;&gt;Node9_1 -->
<g id="edge7" class="edge">
<title>Node7_1&#45;&gt;Node9_1</title>
<path fill="none" stroke="black" d="M411.28,-474.18C385.64,-489.53 350.94,-510.3 327.81,-524.15"/>
<polygon fill="black" stroke="black" points="413.16,-477.14 419.94,-469 409.56,-471.13 413.16,-477.14"/>
<text text-anchor="middle" x="391" y="-492.8" font-family="Times,serif" font-size="14.00">कर्म</text>
</g>
<!-- Node8_1 -->
<g id="node10" class="node">
<title>Node8_1</title>
<ellipse fill="#ffff00" stroke="#ffff00" cx="212" cy="-18" rx="48.19" ry="18"/>
<text text-anchor="middle" x="212" y="-14.3" font-family="Times,serif" font-size="14.00">भीम&#45;(8.1)</text>
</g>
<!-- Node8_2 -->
<g id="node11" class="node">
<title>Node8_2</title>
<ellipse fill="#ffff00" stroke="#ffff00" cx="212" cy="-105" rx="46.59" ry="18"/>
<text text-anchor="middle" x="212" y="-101.3" font-family="Times,serif" font-size="14.00">वाग्&#45;(8.2)</text>
</g>
<!-- Node8_1&#45;&gt;Node8_2 -->
<g id="edge8" class="edge">
<title>Node8_1&#45;&gt;Node8_2</title>
<path fill="none" stroke="black" d="M212,-46.27C212,-59.58 212,-75.19 212,-86.82"/>
<polygon fill="black" stroke="black" points="215.5,-46.2 212,-36.2 208.5,-46.2 215.5,-46.2"/>
<text text-anchor="middle" x="221.5" y="-57.8" font-family="Times,serif" font-size="14.00">T6</text>
</g>
<!-- Node8_3 -->
<g id="node12" class="node">
<title>Node8_3</title>
<ellipse fill="#ffff00" stroke="#ffff00" cx="212" cy="-192" rx="45.49" ry="18"/>
<text text-anchor="middle" x="212" y="-188.3" font-family="Times,serif" font-size="14.00">बाण(8.3)</text>
</g>
<!-- Node8_2&#45;&gt;Node8_3 -->
<g id="edge9" class="edge">
<title>Node8_2&#45;&gt;Node8_3</title>
<path fill="none" stroke="black" d="M212,-133.27C212,-146.58 212,-162.19 212,-173.82"/>
<polygon fill="black" stroke="black" points="215.5,-133.2 212,-123.2 208.5,-133.2 215.5,-133.2"/>
<text text-anchor="middle" x="222" y="-144.8" font-family="Times,serif" font-size="14.00">K5</text>
</g>
<!-- Node8_3&#45;&gt;Node8_4 -->
<g id="edge10" class="edge">
<title>Node8_3&#45;&gt;Node8_4</title>
<path fill="none" stroke="black" d="M212,-220.27C212,-233.58 212,-249.19 212,-260.82"/>
<polygon fill="black" stroke="black" points="215.5,-220.2 212,-210.2 208.5,-220.2 215.5,-220.2"/>
<text text-anchor="middle" x="221.5" y="-231.8" font-family="Times,serif" font-size="14.00">T3</text>
</g>
</g>
</svg>
