<?xml version="1.0" encoding="UTF-8" standalone="no"?>
<!DOCTYPE svg PUBLIC "-//W3C//DTD SVG 1.1//EN"
 "http://www.w3.org/Graphics/SVG/1.1/DTD/svg11.dtd">
<!-- Generated by graphviz version 2.43.0 (0)
 -->
<!-- Title: G Pages: 1 -->
<svg width="1192pt" height="234pt"
 viewBox="0.00 0.00 1192.40 234.00" xmlns="http://www.w3.org/2000/svg" xmlns:xlink="http://www.w3.org/1999/xlink">
<g id="graph0" class="graph" transform="scale(1 1) rotate(0) translate(4 230)">
<title>G</title>
<polygon fill="#fffacd" stroke="transparent" points="-4,4 -4,-230 1188.4,-230 1188.4,4 -4,4"/>
<g id="clust1" class="cluster">
<title>cluster_1</title>
<polygon fill="#fffacd" stroke="black" points="8,-8 8,-147 126,-147 126,-8 8,-8"/>
</g>
<g id="clust2" class="cluster">
<title>cluster_2</title>
<polygon fill="#fffacd" stroke="black" points="218,-8 218,-147 350,-147 350,-8 218,-8"/>
</g>
<g id="clust3" class="cluster">
<title>cluster_3</title>
<polygon fill="#fffacd" stroke="black" points="583,-8 583,-147 719,-147 719,-8 583,-8"/>
</g>
<!-- Node4_1 -->
<g id="node1" class="node">
<title>Node4_1</title>
<ellipse fill="#00bfff" stroke="#00bfff" cx="67" cy="-34" rx="46.29" ry="18"/>
<text text-anchor="middle" x="67" y="-30.3" font-family="Times,serif" font-size="14.00">राजा(4.1)</text>
</g>
<!-- Node3_1 -->
<g id="node2" class="node">
<title>Node3_1</title>
<ellipse fill="#00bfff" stroke="#00bfff" cx="67" cy="-121" rx="51.19" ry="18"/>
<text text-anchor="middle" x="67" y="-117.3" font-family="Times,serif" font-size="14.00">कौरवः(3.1)</text>
</g>
<!-- Node4_1&#45;&gt;Node3_1 -->
<g id="edge4" class="edge">
<title>Node4_1&#45;&gt;Node3_1</title>
<path fill="none" stroke="black" d="M67,-62.27C67,-75.58 67,-91.19 67,-102.82"/>
<polygon fill="black" stroke="black" points="70.5,-62.2 67,-52.2 63.5,-62.2 70.5,-62.2"/>
<text text-anchor="middle" x="89.5" y="-73.8" font-family="Times,serif" font-size="14.00">विशेषणम्</text>
</g>
<!-- Node6_1 -->
<g id="node8" class="node">
<title>Node6_1</title>
<ellipse fill="#ff1975" stroke="#ff1975" cx="364" cy="-208" rx="52.79" ry="18"/>
<text text-anchor="middle" x="364" y="-204.3" font-family="Times,serif" font-size="14.00">सस्मार(6.1)</text>
</g>
<!-- Node3_1&#45;&gt;Node6_1 -->
<g id="edge3" class="edge">
<title>Node3_1&#45;&gt;Node6_1</title>
<path fill="none" stroke="black" d="M115.27,-135.81C173.75,-152.55 271.15,-180.43 325.07,-195.86"/>
<polygon fill="black" stroke="black" points="116.1,-132.41 105.52,-133.03 114.17,-139.14 116.1,-132.41"/>
<text text-anchor="middle" x="245" y="-160.8" font-family="Times,serif" font-size="14.00">कर्ता</text>
</g>
<!-- Node7_1 -->
<g id="node3" class="node">
<title>Node7_1</title>
<ellipse fill="#93db70" stroke="#93db70" cx="284" cy="-34" rx="57.69" ry="18"/>
<text text-anchor="middle" x="284" y="-30.3" font-family="Times,serif" font-size="14.00">बालिशम्(7.1)</text>
</g>
<!-- Node5_1 -->
<g id="node4" class="node">
<title>Node5_1</title>
<ellipse fill="#93db70" stroke="#93db70" cx="288" cy="-121" rx="47.39" ry="18"/>
<text text-anchor="middle" x="288" y="-117.3" font-family="Times,serif" font-size="14.00">पुत्रम्(5.1)</text>
</g>
<!-- Node7_1&#45;&gt;Node5_1 -->
<g id="edge6" class="edge">
<title>Node7_1&#45;&gt;Node5_1</title>
<path fill="none" stroke="black" d="M285.28,-62.27C285.91,-75.58 286.64,-91.19 287.19,-102.82"/>
<polygon fill="black" stroke="black" points="288.78,-62.03 284.81,-52.2 281.78,-62.35 288.78,-62.03"/>
<text text-anchor="middle" x="309.5" y="-73.8" font-family="Times,serif" font-size="14.00">विशेषणम्</text>
</g>
<!-- Node5_1&#45;&gt;Node6_1 -->
<g id="edge5" class="edge">
<title>Node5_1&#45;&gt;Node6_1</title>
<path fill="none" stroke="black" d="M309.38,-145.91C322.15,-160.2 338.05,-177.98 349.39,-190.66"/>
<polygon fill="black" stroke="black" points="311.93,-143.51 302.65,-138.39 306.71,-148.18 311.93,-143.51"/>
<text text-anchor="middle" x="340" y="-160.8" font-family="Times,serif" font-size="14.00">कर्म</text>
</g>
<!-- Node13_1 -->
<g id="node5" class="node">
<title>Node13_1</title>
<ellipse fill="#00bfff" stroke="#00bfff" cx="651" cy="-34" rx="46.29" ry="18"/>
<text text-anchor="middle" x="651" y="-30.3" font-family="Times,serif" font-size="14.00">सः(13.1)</text>
</g>
<!-- Node14_1 -->
<g id="node6" class="node">
<title>Node14_1</title>
<ellipse fill="#00bfff" stroke="#00bfff" cx="651" cy="-121" rx="59.59" ry="18"/>
<text text-anchor="middle" x="651" y="-117.3" font-family="Times,serif" font-size="14.00">पार्थिवः(14.1)</text>
</g>
<!-- Node13_1&#45;&gt;Node14_1 -->
<g id="edge12" class="edge">
<title>Node13_1&#45;&gt;Node14_1</title>
<path fill="none" stroke="black" d="M651,-62.27C651,-75.58 651,-91.19 651,-102.82"/>
<polygon fill="black" stroke="black" points="654.5,-62.2 651,-52.2 647.5,-62.2 654.5,-62.2"/>
<text text-anchor="middle" x="673.5" y="-73.8" font-family="Times,serif" font-size="14.00">विशेषणम्</text>
</g>
<!-- Node12_1 -->
<g id="node11" class="node">
<title>Node12_1</title>
<ellipse fill="#ff1975" stroke="#ff1975" cx="956" cy="-208" rx="67.69" ry="18"/>
<text text-anchor="middle" x="956" y="-204.3" font-family="Times,serif" font-size="14.00">अपध्याति(12.1)</text>
</g>
<!-- Node14_1&#45;&gt;Node12_1 -->
<g id="edge13" class="edge">
<title>Node14_1&#45;&gt;Node12_1</title>
<path fill="none" stroke="black" d="M696.07,-139.05C704,-141.84 712.21,-144.6 720,-147 783.44,-166.51 857.83,-184.65 905.88,-195.77"/>
<polygon fill="black" stroke="black" points="697.18,-135.73 686.59,-135.65 694.82,-142.32 697.18,-135.73"/>
<text text-anchor="middle" x="814" y="-160.8" font-family="Times,serif" font-size="14.00">कर्ता</text>
</g>
<!-- Node1_1 -->
<g id="node7" class="node">
<title>Node1_1</title>
<ellipse fill="#ff99ff" stroke="#ff99ff" cx="402" cy="-121" rx="44.39" ry="18"/>
<text text-anchor="middle" x="402" y="-117.3" font-family="Times,serif" font-size="14.00">यदा(1.1)</text>
</g>
<!-- Node1_1&#45;&gt;Node6_1 -->
<g id="edge1" class="edge">
<title>Node1_1&#45;&gt;Node6_1</title>
<path fill="none" stroke="black" d="M390.32,-148.13C384.24,-161.73 376.98,-177.98 371.62,-189.95"/>
<polygon fill="black" stroke="black" points="393.61,-149.35 394.49,-138.79 387.22,-146.49 393.61,-149.35"/>
<text text-anchor="middle" x="421.5" y="-160.8" font-family="Times,serif" font-size="14.00">कालाधिकरणम्</text>
</g>
<!-- Node2_1 -->
<g id="node9" class="node">
<title>Node2_1</title>
<ellipse fill="#ff99ff" stroke="#ff99ff" cx="171" cy="-34" rx="37.09" ry="18"/>
<text text-anchor="middle" x="171" y="-30.3" font-family="Times,serif" font-size="14.00">तु(2.1)</text>
</g>
<!-- Node2_1&#45;&gt;Node3_1 -->
<g id="edge2" class="edge">
<title>Node2_1&#45;&gt;Node3_1</title>
<path fill="none" stroke="black" d="M147.51,-57.47C137.96,-66.31 126.67,-76.39 116,-85 107.7,-91.7 98.24,-98.61 89.85,-104.51"/>
<polygon fill="black" stroke="black" points="150.17,-59.78 155.08,-50.39 145.38,-54.67 150.17,-59.78"/>
<text text-anchor="middle" x="152.5" y="-73.8" font-family="Times,serif" font-size="14.00">सम्बन्धः</text>
</g>
<!-- Node8_1 -->
<g id="node10" class="node">
<title>Node8_1</title>
<ellipse fill="#ff99ff" stroke="#ff99ff" cx="773" cy="-121" rx="44.39" ry="18"/>
<text text-anchor="middle" x="773" y="-117.3" font-family="Times,serif" font-size="14.00">तदा(8.1)</text>
</g>
<!-- Node8_1&#45;&gt;Node12_1 -->
<g id="edge7" class="edge">
<title>Node8_1&#45;&gt;Node12_1</title>
<path fill="none" stroke="black" d="M810.6,-139.47C843.95,-154.96 892.15,-177.34 923.77,-192.03"/>
<polygon fill="black" stroke="black" points="811.74,-136.13 801.19,-135.09 808.79,-142.48 811.74,-136.13"/>
<text text-anchor="middle" x="910.5" y="-160.8" font-family="Times,serif" font-size="14.00">कालाधिकरणम्</text>
</g>
<!-- Node2 -->
<g id="node12" class="node">
<title>Node2</title>
<ellipse fill="lightgrey" stroke="black" cx="923" cy="-121" rx="27" ry="18"/>
</g>
<!-- Node8_1&#45;&gt;Node2 -->
<g id="edge8" class="edge">
<title>Node8_1&#45;&gt;Node2</title>
<path fill="none" stroke="red" stroke-dasharray="5,2" d="M827.66,-121C846.84,-121 867.94,-121 885.4,-121"/>
<polygon fill="red" stroke="red" points="827.6,-117.5 817.6,-121 827.6,-124.5 827.6,-117.5"/>
<polygon fill="red" stroke="red" points="885.76,-124.5 895.76,-121 885.76,-117.5 885.76,-124.5"/>
<text text-anchor="middle" x="856.6" y="-106.8" font-family="Times,serif" font-size="14.00">नित्यसम्बन्धः</text>
</g>
<!-- Node9_1 -->
<g id="node13" class="node">
<title>Node9_1</title>
<ellipse fill="#93db70" stroke="#93db70" cx="1018" cy="-121" rx="50.09" ry="18"/>
<text text-anchor="middle" x="1018" y="-117.3" font-family="Times,serif" font-size="14.00">भीमम्(9.1)</text>
</g>
<!-- Node9_1&#45;&gt;Node12_1 -->
<g id="edge9" class="edge">
<title>Node9_1&#45;&gt;Node12_1</title>
<path fill="none" stroke="black" d="M999.76,-147.01C989.6,-160.94 977.22,-177.91 968.22,-190.24"/>
<polygon fill="black" stroke="black" points="1002.69,-148.93 1005.75,-138.79 997.03,-144.81 1002.69,-148.93"/>
<text text-anchor="middle" x="999" y="-160.8" font-family="Times,serif" font-size="14.00">कर्म</text>
</g>
<!-- Node10_1 -->
<g id="node14" class="node">
<title>Node10_1</title>
<ellipse fill="#40e0d0" stroke="#40e0d0" cx="1135" cy="-121" rx="49.29" ry="18"/>
<text text-anchor="middle" x="1135" y="-117.3" font-family="Times,serif" font-size="14.00">हृदा(10.1)</text>
</g>
<!-- Node10_1&#45;&gt;Node12_1 -->
<g id="edge10" class="edge">
<title>Node10_1&#45;&gt;Node12_1</title>
<path fill="none" stroke="black" d="M1097.04,-140.02C1064.54,-155.46 1018.27,-177.43 987.71,-191.94"/>
<polygon fill="black" stroke="black" points="1098.71,-143.11 1106.24,-135.66 1095.71,-136.78 1098.71,-143.11"/>
<text text-anchor="middle" x="1065.5" y="-160.8" font-family="Times,serif" font-size="14.00">हेतुः</text>
</g>
<!-- Node11_1 -->
<g id="node15" class="node">
<title>Node11_1</title>
<ellipse fill="#6fffc3" stroke="#6fffc3" cx="519" cy="-121" rx="54.69" ry="18"/>
<text text-anchor="middle" x="519" y="-117.3" font-family="Times,serif" font-size="14.00">राजन्(11.1)</text>
</g>
<!-- Node11_1&#45;&gt;Node6_1 -->
<g id="edge11" class="edge">
<title>Node11_1&#45;&gt;Node6_1</title>
<path fill="none" stroke="black" d="M495.5,-145.72C485.5,-154.85 473.32,-164.8 461,-172 443.38,-182.3 422.22,-190.36 404.16,-196.15"/>
<polygon fill="black" stroke="black" points="498.13,-148.05 503.01,-138.65 493.33,-142.96 498.13,-148.05"/>
<text text-anchor="middle" x="503" y="-160.8" font-family="Times,serif" font-size="14.00">सम्बोध्यः</text>
</g>
</g>
</svg>
