<?xml version="1.0" encoding="UTF-8" standalone="no"?>
<!DOCTYPE svg PUBLIC "-//W3C//DTD SVG 1.1//EN"
 "http://www.w3.org/Graphics/SVG/1.1/DTD/svg11.dtd">
<!-- Generated by graphviz version 2.43.0 (0)
 -->
<!-- Title: G Pages: 1 -->
<svg width="421pt" height="479pt"
 viewBox="0.00 0.00 421.00 479.00" xmlns="http://www.w3.org/2000/svg" xmlns:xlink="http://www.w3.org/1999/xlink">
<g id="graph0" class="graph" transform="scale(1 1) rotate(0) translate(4 475)">
<title>G</title>
<polygon fill="#fffacd" stroke="transparent" points="-4,4 -4,-475 417,-475 417,4 -4,4"/>
<g id="clust1" class="cluster">
<title>cluster_1</title>
<polygon fill="#fffacd" stroke="black" points="8,-79 8,-218 138,-218 138,-79 8,-79"/>
</g>
<g id="clust2" class="cluster">
<title>cluster_2</title>
<polygon fill="#fffacd" stroke="black" points="13,-253 13,-392 275,-392 275,-253 13,-253"/>
</g>
<g id="clust3" class="cluster">
<title>cluster_3</title>
<polygon fill="#fffacd" stroke="black" points="283,-166 283,-305 405,-305 405,-166 283,-166"/>
</g>
<!-- Node2_1 -->
<g id="node1" class="node">
<title>Node2_1</title>
<ellipse fill="#40e0d0" stroke="#40e0d0" cx="73" cy="-105" rx="50.89" ry="18"/>
<text text-anchor="middle" x="73" y="-101.3" font-family="Times,serif" font-size="14.00">अनया(2.1)</text>
</g>
<!-- Node3_1 -->
<g id="node2" class="node">
<title>Node3_1</title>
<ellipse fill="#40e0d0" stroke="#40e0d0" cx="73" cy="-192" rx="57.39" ry="18"/>
<text text-anchor="middle" x="73" y="-188.3" font-family="Times,serif" font-size="14.00">गान्धार्या(3.1)</text>
</g>
<!-- Node2_1&#45;&gt;Node3_1 -->
<g id="edge2" class="edge">
<title>Node2_1&#45;&gt;Node3_1</title>
<path fill="none" stroke="black" d="M73,-133.27C73,-146.58 73,-162.19 73,-173.82"/>
<polygon fill="black" stroke="black" points="76.5,-133.2 73,-123.2 69.5,-133.2 76.5,-133.2"/>
<text text-anchor="middle" x="95.5" y="-144.8" font-family="Times,serif" font-size="14.00">विशेषणम्</text>
</g>
<!-- Node4_1 -->
<g id="node3" class="node">
<title>Node4_1</title>
<ellipse fill="#00bfff" stroke="#00bfff" cx="73" cy="-279" rx="51.99" ry="18"/>
<text text-anchor="middle" x="73" y="-275.3" font-family="Times,serif" font-size="14.00">सहितः(4.1)</text>
</g>
<!-- Node3_1&#45;&gt;Node4_1 -->
<g id="edge3" class="edge">
<title>Node3_1&#45;&gt;Node4_1</title>
<path fill="none" stroke="black" d="M73,-220.27C73,-233.58 73,-249.19 73,-260.82"/>
<polygon fill="black" stroke="black" points="76.5,-220.2 73,-210.2 69.5,-220.2 76.5,-220.2"/>
<text text-anchor="middle" x="89" y="-231.8" font-family="Times,serif" font-size="14.00">सहार्थः</text>
</g>
<!-- Node11_1 -->
<g id="node4" class="node">
<title>Node11_1</title>
<ellipse fill="#00bfff" stroke="#00bfff" cx="205" cy="-366" rx="60.39" ry="18"/>
<text text-anchor="middle" x="205" y="-362.3" font-family="Times,serif" font-size="14.00">(अहम्)(11.1)</text>
</g>
<!-- Node4_1&#45;&gt;Node11_1 -->
<g id="edge4" class="edge">
<title>Node4_1&#45;&gt;Node11_1</title>
<path fill="none" stroke="black" d="M105.12,-300.68C128.42,-315.69 159.46,-335.67 180.71,-349.36"/>
<polygon fill="black" stroke="black" points="106.9,-297.67 96.6,-295.2 103.11,-303.55 106.9,-297.67"/>
<text text-anchor="middle" x="169.5" y="-318.8" font-family="Times,serif" font-size="14.00">विशेषणम्</text>
</g>
<!-- Node10_1 -->
<g id="node9" class="node">
<title>Node10_1</title>
<ellipse fill="#ff1975" stroke="#ff1975" cx="268" cy="-453" rx="68.49" ry="18"/>
<text text-anchor="middle" x="268" y="-449.3" font-family="Times,serif" font-size="14.00">भविष्यामि(10.1)</text>
</g>
<!-- Node11_1&#45;&gt;Node10_1 -->
<g id="edge12" class="edge">
<title>Node11_1&#45;&gt;Node10_1</title>
<path fill="none" stroke="black" d="M223.53,-392.01C233.86,-405.94 246.44,-422.91 255.58,-435.24"/>
<polygon fill="black" stroke="black" points="226.21,-389.74 217.45,-383.79 220.59,-393.91 226.21,-389.74"/>
<text text-anchor="middle" x="251" y="-405.8" font-family="Times,serif" font-size="14.00">कर्ता</text>
</g>
<!-- Node8_1 -->
<g id="node5" class="node">
<title>Node8_1</title>
<ellipse fill="#00bfff" stroke="#00bfff" cx="205" cy="-279" rx="62.29" ry="18"/>
<text text-anchor="middle" x="205" y="-275.3" font-family="Times,serif" font-size="14.00">प्रयुञ्जानः(8.1)</text>
</g>
<!-- Node8_1&#45;&gt;Node11_1 -->
<g id="edge10" class="edge">
<title>Node8_1&#45;&gt;Node11_1</title>
<path fill="none" stroke="black" d="M205,-307.27C205,-320.58 205,-336.19 205,-347.82"/>
<polygon fill="black" stroke="black" points="208.5,-307.2 205,-297.2 201.5,-307.2 208.5,-307.2"/>
<text text-anchor="middle" x="227.5" y="-318.8" font-family="Times,serif" font-size="14.00">विशेषणम्</text>
</g>
<!-- Node5_3 -->
<g id="node6" class="node">
<title>Node5_3</title>
<ellipse fill="#00bfff" stroke="#00bfff" cx="344" cy="-192" rx="42.79" ry="18"/>
<text text-anchor="middle" x="344" y="-188.3" font-family="Times,serif" font-size="14.00">भृत्(5.3)</text>
</g>
<!-- Node9_1 -->
<g id="node7" class="node">
<title>Node9_1</title>
<ellipse fill="#00bfff" stroke="#00bfff" cx="344" cy="-279" rx="52.79" ry="18"/>
<text text-anchor="middle" x="344" y="-275.3" font-family="Times,serif" font-size="14.00">वनेचरः(9.1)</text>
</g>
<!-- Node5_3&#45;&gt;Node9_1 -->
<g id="edge7" class="edge">
<title>Node5_3&#45;&gt;Node9_1</title>
<path fill="none" stroke="black" d="M344,-220.27C344,-233.58 344,-249.19 344,-260.82"/>
<polygon fill="black" stroke="black" points="347.5,-220.2 344,-210.2 340.5,-220.2 347.5,-220.2"/>
<text text-anchor="middle" x="366.5" y="-231.8" font-family="Times,serif" font-size="14.00">विशेषणम्</text>
</g>
<!-- Node9_1&#45;&gt;Node11_1 -->
<g id="edge11" class="edge">
<title>Node9_1&#45;&gt;Node11_1</title>
<path fill="none" stroke="black" d="M310.78,-300.32C286.05,-315.44 252.8,-335.77 230.22,-349.58"/>
<polygon fill="black" stroke="black" points="312.76,-303.2 319.47,-295 309.11,-297.23 312.76,-303.2"/>
<text text-anchor="middle" x="321" y="-318.8" font-family="Times,serif" font-size="14.00">विधेय_विशेषणम्</text>
</g>
<!-- Node1_1 -->
<g id="node8" class="node">
<title>Node1_1</title>
<ellipse fill="#6fffc3" stroke="#6fffc3" cx="332" cy="-366" rx="48.99" ry="18"/>
<text text-anchor="middle" x="332" y="-362.3" font-family="Times,serif" font-size="14.00">राजन्(1.1)</text>
</g>
<!-- Node1_1&#45;&gt;Node10_1 -->
<g id="edge1" class="edge">
<title>Node1_1&#45;&gt;Node10_1</title>
<path fill="none" stroke="black" d="M313.17,-392.01C302.68,-405.94 289.9,-422.91 280.62,-435.24"/>
<polygon fill="black" stroke="black" points="316.14,-393.89 319.36,-383.79 310.54,-389.68 316.14,-393.89"/>
<text text-anchor="middle" x="324" y="-405.8" font-family="Times,serif" font-size="14.00">सम्बोध्यः</text>
</g>
<!-- Node5_1 -->
<g id="node10" class="node">
<title>Node5_1</title>
<ellipse fill="#ffff00" stroke="#ffff00" cx="344" cy="-18" rx="46.29" ry="18"/>
<text text-anchor="middle" x="344" y="-14.3" font-family="Times,serif" font-size="14.00">चीर&#45;(5.1)</text>
</g>
<!-- Node5_2 -->
<g id="node11" class="node">
<title>Node5_2</title>
<ellipse fill="#ffff00" stroke="#ffff00" cx="344" cy="-105" rx="55.79" ry="18"/>
<text text-anchor="middle" x="344" y="-101.3" font-family="Times,serif" font-size="14.00">वल्कल&#45;(5.2)</text>
</g>
<!-- Node5_1&#45;&gt;Node5_2 -->
<g id="edge5" class="edge">
<title>Node5_1&#45;&gt;Node5_2</title>
<path fill="none" stroke="black" d="M344,-46.27C344,-59.58 344,-75.19 344,-86.82"/>
<polygon fill="black" stroke="black" points="347.5,-46.2 344,-36.2 340.5,-46.2 347.5,-46.2"/>
<text text-anchor="middle" x="361" y="-57.8" font-family="Times,serif" font-size="14.00">समासः</text>
</g>
<!-- Node5_2&#45;&gt;Node5_3 -->
<g id="edge6" class="edge">
<title>Node5_2&#45;&gt;Node5_3</title>
<path fill="none" stroke="black" d="M344,-133.27C344,-146.58 344,-162.19 344,-173.82"/>
<polygon fill="black" stroke="black" points="347.5,-133.2 344,-123.2 340.5,-133.2 347.5,-133.2"/>
<text text-anchor="middle" x="361" y="-144.8" font-family="Times,serif" font-size="14.00">समासः</text>
</g>
<!-- Node6_1 -->
<g id="node12" class="node">
<title>Node6_1</title>
<ellipse fill="#87ceeb" stroke="#87ceeb" cx="205" cy="-105" rx="41.69" ry="18"/>
<text text-anchor="middle" x="205" y="-101.3" font-family="Times,serif" font-size="14.00">तव(6.1)</text>
</g>
<!-- Node7_1 -->
<g id="node13" class="node">
<title>Node7_1</title>
<ellipse fill="#93db70" stroke="#93db70" cx="205" cy="-192" rx="55.79" ry="18"/>
<text text-anchor="middle" x="205" y="-188.3" font-family="Times,serif" font-size="14.00">आशिषः(7.1)</text>
</g>
<!-- Node6_1&#45;&gt;Node7_1 -->
<g id="edge8" class="edge">
<title>Node6_1&#45;&gt;Node7_1</title>
<path fill="none" stroke="black" d="M205,-133.27C205,-146.58 205,-162.19 205,-173.82"/>
<polygon fill="black" stroke="black" points="208.5,-133.2 205,-123.2 201.5,-133.2 208.5,-133.2"/>
<text text-anchor="middle" x="232.5" y="-144.8" font-family="Times,serif" font-size="14.00">षष्ठीसम्बन्धः</text>
</g>
<!-- Node7_1&#45;&gt;Node8_1 -->
<g id="edge9" class="edge">
<title>Node7_1&#45;&gt;Node8_1</title>
<path fill="none" stroke="black" d="M205,-220.27C205,-233.58 205,-249.19 205,-260.82"/>
<polygon fill="black" stroke="black" points="208.5,-220.2 205,-210.2 201.5,-220.2 208.5,-220.2"/>
<text text-anchor="middle" x="214" y="-231.8" font-family="Times,serif" font-size="14.00">कर्म</text>
</g>
</g>
</svg>
