<?xml version="1.0" encoding="UTF-8" standalone="no"?>
<!DOCTYPE svg PUBLIC "-//W3C//DTD SVG 1.1//EN"
 "http://www.w3.org/Graphics/SVG/1.1/DTD/svg11.dtd">
<!-- Generated by graphviz version 2.43.0 (0)
 -->
<!-- Title: G Pages: 1 -->
<svg width="558pt" height="566pt"
 viewBox="0.00 0.00 558.25 566.00" xmlns="http://www.w3.org/2000/svg" xmlns:xlink="http://www.w3.org/1999/xlink">
<g id="graph0" class="graph" transform="scale(1 1) rotate(0) translate(4 562)">
<title>G</title>
<polygon fill="#fffacd" stroke="transparent" points="-4,4 -4,-562 554.25,-562 554.25,4 -4,4"/>
<g id="clust1" class="cluster">
<title>cluster_1</title>
<polygon fill="#fffacd" stroke="black" points="202.25,-166 202.25,-305 542.25,-305 542.25,-166 202.25,-166"/>
</g>
<g id="clust2" class="cluster">
<title>cluster_2</title>
<polygon fill="#fffacd" stroke="black" points="89.25,-340 89.25,-479 207.25,-479 207.25,-340 89.25,-340"/>
</g>
<!-- Node5 -->
<g id="node1" class="node">
<title>Node5</title>
<ellipse fill="#00bfff" stroke="#00bfff" cx="473.25" cy="-192" rx="61.19" ry="18"/>
<text text-anchor="middle" x="473.25" y="-188.3" font-family="Times,serif" font-size="14.00">ऐश्वर्यहारिणः(5)</text>
</g>
<!-- Node7 -->
<g id="node2" class="node">
<title>Node7</title>
<ellipse fill="#00bfff" stroke="#00bfff" cx="306.25" cy="-279" rx="44.69" ry="18"/>
<text text-anchor="middle" x="306.25" y="-275.3" font-family="Times,serif" font-size="14.00">नृशंसाः(7)</text>
</g>
<!-- Node5&#45;&gt;Node7 -->
<g id="edge5" class="edge">
<title>Node5&#45;&gt;Node7</title>
<path fill="none" stroke="black" d="M441.42,-214.35C426.77,-223.73 408.96,-234.51 392.25,-243 375,-251.76 355.02,-259.99 338.67,-266.28"/>
<polygon fill="black" stroke="black" points="443.61,-217.1 450.1,-208.72 439.8,-211.23 443.61,-217.1"/>
<text text-anchor="middle" x="439.75" y="-231.8" font-family="Times,serif" font-size="14.00">विशेषणम्</text>
</g>
<!-- Node12 -->
<g id="node5" class="node">
<title>Node12</title>
<ellipse fill="#00bfff" stroke="#00bfff" cx="148.25" cy="-366" rx="50.89" ry="18"/>
<text text-anchor="middle" x="148.25" y="-362.3" font-family="Times,serif" font-size="14.00">निहताः(12)</text>
</g>
<!-- Node7&#45;&gt;Node12 -->
<g id="edge7" class="edge">
<title>Node7&#45;&gt;Node12</title>
<path fill="none" stroke="black" d="M271.52,-298.68C242.47,-314.31 201.61,-336.29 175.03,-350.59"/>
<polygon fill="black" stroke="black" points="273.36,-301.67 280.51,-293.85 270.04,-295.5 273.36,-301.67"/>
<text text-anchor="middle" x="245.25" y="-318.8" font-family="Times,serif" font-size="14.00">कर्म</text>
</g>
<!-- Node8 -->
<g id="node3" class="node">
<title>Node8</title>
<ellipse fill="#00bfff" stroke="#00bfff" cx="365.25" cy="-192" rx="28.7" ry="18"/>
<text text-anchor="middle" x="365.25" y="-188.3" font-family="Times,serif" font-size="14.00">ते(8)</text>
</g>
<!-- Node8&#45;&gt;Node7 -->
<g id="edge8" class="edge">
<title>Node8&#45;&gt;Node7</title>
<path fill="none" stroke="black" d="M350.67,-217.82C345.66,-225.97 339.9,-235 334.25,-243 329.85,-249.23 324.71,-255.82 320.05,-261.58"/>
<polygon fill="black" stroke="black" points="353.77,-219.45 355.95,-209.08 347.78,-215.83 353.77,-219.45"/>
<text text-anchor="middle" x="365.75" y="-231.8" font-family="Times,serif" font-size="14.00">विशेषणम्</text>
</g>
<!-- Node9 -->
<g id="node4" class="node">
<title>Node9</title>
<ellipse fill="#ff1975" stroke="#ff1975" cx="264.25" cy="-192" rx="53.89" ry="18"/>
<text text-anchor="middle" x="264.25" y="-188.3" font-family="Times,serif" font-size="14.00">अपकर्तारः(9)</text>
</g>
<!-- Node9&#45;&gt;Node7 -->
<g id="edge9" class="edge">
<title>Node9&#45;&gt;Node7</title>
<path fill="none" stroke="black" d="M276.99,-218.8C283.8,-232.58 291.99,-249.14 297.97,-261.24"/>
<polygon fill="black" stroke="black" points="280.11,-217.21 272.54,-209.79 273.84,-220.31 280.11,-217.21"/>
<text text-anchor="middle" x="309.75" y="-231.8" font-family="Times,serif" font-size="14.00">विशेषणम्</text>
</g>
<!-- Node6 -->
<g id="node6" class="node">
<title>Node6</title>
<ellipse fill="#00bfff" stroke="#00bfff" cx="148.25" cy="-453" rx="51.19" ry="18"/>
<text text-anchor="middle" x="148.25" y="-449.3" font-family="Times,serif" font-size="14.00">समतीताः(6)</text>
</g>
<!-- Node12&#45;&gt;Node6 -->
<g id="edge12" class="edge">
<title>Node12&#45;&gt;Node6</title>
<path fill="none" stroke="black" d="M148.25,-394.27C148.25,-407.58 148.25,-423.19 148.25,-434.82"/>
<polygon fill="black" stroke="black" points="151.75,-394.2 148.25,-384.2 144.75,-394.2 151.75,-394.2"/>
<text text-anchor="middle" x="170.75" y="-405.8" font-family="Times,serif" font-size="14.00">विशेषणम्</text>
</g>
<!-- Node6_1 -->
<g id="node11" class="node">
<title>Node6_1</title>
<ellipse fill="#ff1975" stroke="#ff1975" cx="148.25" cy="-540" rx="54.69" ry="18"/>
<text text-anchor="middle" x="148.25" y="-536.3" font-family="Times,serif" font-size="14.00">(सन्ति)(6.1)</text>
</g>
<!-- Node6&#45;&gt;Node6_1 -->
<g id="edge6" class="edge">
<title>Node6&#45;&gt;Node6_1</title>
<path fill="none" stroke="black" d="M148.25,-481.27C148.25,-494.58 148.25,-510.19 148.25,-521.82"/>
<polygon fill="black" stroke="black" points="151.75,-481.2 148.25,-471.2 144.75,-481.2 151.75,-481.2"/>
<text text-anchor="middle" x="183.75" y="-492.8" font-family="Times,serif" font-size="14.00">विधेयविशेषणम्</text>
</g>
<!-- Node1 -->
<g id="node7" class="node">
<title>Node1</title>
<ellipse fill="#87ceeb" stroke="#87ceeb" cx="264.25" cy="-105" rx="44.69" ry="18"/>
<text text-anchor="middle" x="264.25" y="-101.3" font-family="Times,serif" font-size="14.00">द्रौपद्याः(1)</text>
</g>
<!-- Node1&#45;&gt;Node9 -->
<g id="edge1" class="edge">
<title>Node1&#45;&gt;Node9</title>
<path fill="none" stroke="black" d="M264.25,-133.27C264.25,-146.58 264.25,-162.19 264.25,-173.82"/>
<polygon fill="black" stroke="black" points="267.75,-133.2 264.25,-123.2 260.75,-133.2 267.75,-133.2"/>
<text text-anchor="middle" x="273.25" y="-144.8" font-family="Times,serif" font-size="14.00">कर्म</text>
</g>
<!-- Node2 -->
<g id="node8" class="node">
<title>Node2</title>
<ellipse fill="#ff99ff" stroke="#ff99ff" cx="264.25" cy="-18" rx="30.59" ry="18"/>
<text text-anchor="middle" x="264.25" y="-14.3" font-family="Times,serif" font-size="14.00">हि(2)</text>
</g>
<!-- Node2&#45;&gt;Node1 -->
<g id="edge2" class="edge">
<title>Node2&#45;&gt;Node1</title>
<path fill="none" stroke="black" d="M264.25,-46.27C264.25,-59.58 264.25,-75.19 264.25,-86.82"/>
<polygon fill="black" stroke="black" points="267.75,-46.2 264.25,-36.2 260.75,-46.2 267.75,-46.2"/>
<text text-anchor="middle" x="282.75" y="-57.8" font-family="Times,serif" font-size="14.00">सम्बन्धः</text>
</g>
<!-- Node3 -->
<g id="node9" class="node">
<title>Node3</title>
<ellipse fill="#87ceeb" stroke="#87ceeb" cx="473.25" cy="-105" rx="32.49" ry="18"/>
<text text-anchor="middle" x="473.25" y="-101.3" font-family="Times,serif" font-size="14.00">तव(3)</text>
</g>
<!-- Node3&#45;&gt;Node5 -->
<g id="edge3" class="edge">
<title>Node3&#45;&gt;Node5</title>
<path fill="none" stroke="black" d="M473.25,-133.27C473.25,-146.58 473.25,-162.19 473.25,-173.82"/>
<polygon fill="black" stroke="black" points="476.75,-133.2 473.25,-123.2 469.75,-133.2 476.75,-133.2"/>
<text text-anchor="middle" x="500.75" y="-144.8" font-family="Times,serif" font-size="14.00">षष्ठीसम्बन्धः</text>
</g>
<!-- Node4 -->
<g id="node10" class="node">
<title>Node4</title>
<ellipse fill="#ff99ff" stroke="#ff99ff" cx="473.25" cy="-18" rx="28.7" ry="18"/>
<text text-anchor="middle" x="473.25" y="-14.3" font-family="Times,serif" font-size="14.00">च(4)</text>
</g>
<!-- Node4&#45;&gt;Node3 -->
<g id="edge4" class="edge">
<title>Node4&#45;&gt;Node3</title>
<path fill="none" stroke="black" d="M473.25,-46.27C473.25,-59.58 473.25,-75.19 473.25,-86.82"/>
<polygon fill="black" stroke="black" points="476.75,-46.2 473.25,-36.2 469.75,-46.2 476.75,-46.2"/>
<text text-anchor="middle" x="491.75" y="-57.8" font-family="Times,serif" font-size="14.00">सम्बन्धः</text>
</g>
<!-- Node10 -->
<g id="node12" class="node">
<title>Node10</title>
<ellipse fill="#c6e2eb" stroke="#c6e2eb" cx="42.25" cy="-279" rx="42.49" ry="18"/>
<text text-anchor="middle" x="42.25" y="-275.3" font-family="Times,serif" font-size="14.00">युधि(10)</text>
</g>
<!-- Node10&#45;&gt;Node12 -->
<g id="edge10" class="edge">
<title>Node10&#45;&gt;Node12</title>
<path fill="none" stroke="black" d="M62.38,-304.11C70.27,-312.81 79.71,-322.35 89.25,-330 98.91,-337.75 110.46,-344.98 120.77,-350.83"/>
<polygon fill="black" stroke="black" points="64.85,-301.62 55.61,-296.44 59.6,-306.25 64.85,-301.62"/>
<text text-anchor="middle" x="116.75" y="-318.8" font-family="Times,serif" font-size="14.00">अधिकरणम्</text>
</g>
<!-- Node11 -->
<g id="node13" class="node">
<title>Node11</title>
<ellipse fill="#40e0d0" stroke="#40e0d0" cx="148.25" cy="-279" rx="46.29" ry="18"/>
<text text-anchor="middle" x="148.25" y="-275.3" font-family="Times,serif" font-size="14.00">धर्मेण(11)</text>
</g>
<!-- Node11&#45;&gt;Node12 -->
<g id="edge11" class="edge">
<title>Node11&#45;&gt;Node12</title>
<path fill="none" stroke="black" d="M148.25,-307.27C148.25,-320.58 148.25,-336.19 148.25,-347.82"/>
<polygon fill="black" stroke="black" points="151.75,-307.2 148.25,-297.2 144.75,-307.2 151.75,-307.2"/>
<text text-anchor="middle" x="157.75" y="-318.8" font-family="Times,serif" font-size="14.00">हेतुः</text>
</g>
</g>
</svg>
