<?xml version="1.0" encoding="UTF-8" standalone="no"?>
<!DOCTYPE svg PUBLIC "-//W3C//DTD SVG 1.1//EN"
 "http://www.w3.org/Graphics/SVG/1.1/DTD/svg11.dtd">
<!-- Generated by graphviz version 2.43.0 (0)
 -->
<!-- Title: G Pages: 1 -->
<svg width="683pt" height="234pt"
 viewBox="0.00 0.00 682.94 234.00" xmlns="http://www.w3.org/2000/svg" xmlns:xlink="http://www.w3.org/1999/xlink">
<g id="graph0" class="graph" transform="scale(1 1) rotate(0) translate(4 230)">
<title>G</title>
<polygon fill="#fffacd" stroke="transparent" points="-4,4 -4,-230 678.94,-230 678.94,4 -4,4"/>
<g id="clust1" class="cluster">
<title>cluster_1</title>
<polygon fill="#fffacd" stroke="black" points="171.75,-8 171.75,-147 301.75,-147 301.75,-8 171.75,-8"/>
</g>
<g id="clust2" class="cluster">
<title>cluster_2</title>
<polygon fill="#fffacd" stroke="black" points="309.75,-8 309.75,-147 425.75,-147 425.75,-8 309.75,-8"/>
</g>
<!-- Node2 -->
<g id="node1" class="node">
<title>Node2</title>
<ellipse fill="#93db70" stroke="#93db70" cx="236.75" cy="-34" rx="46.59" ry="18"/>
<text text-anchor="middle" x="236.75" y="-30.3" font-family="Times,serif" font-size="14.00">श्राद्धानि(2)</text>
</g>
<!-- Node3 -->
<g id="node2" class="node">
<title>Node3</title>
<ellipse fill="#93db70" stroke="#93db70" cx="236.75" cy="-121" rx="56.59" ry="18"/>
<text text-anchor="middle" x="236.75" y="-117.3" font-family="Times,serif" font-size="14.00">महादानानि(3)</text>
</g>
<!-- Node2&#45;&gt;Node3 -->
<g id="edge2" class="edge">
<title>Node2&#45;&gt;Node3</title>
<path fill="none" stroke="black" d="M236.75,-62.27C236.75,-75.58 236.75,-91.19 236.75,-102.82"/>
<polygon fill="black" stroke="black" points="240.25,-62.2 236.75,-52.2 233.25,-62.2 240.25,-62.2"/>
<text text-anchor="middle" x="259.25" y="-73.8" font-family="Times,serif" font-size="14.00">समुच्चितः</text>
</g>
<!-- Node5 -->
<g id="node6" class="node">
<title>Node5</title>
<ellipse fill="#ff1975" stroke="#ff1975" cx="128.75" cy="-208" rx="43.59" ry="18"/>
<text text-anchor="middle" x="128.75" y="-204.3" font-family="Times,serif" font-size="14.00">दत्तानि(5)</text>
</g>
<!-- Node3&#45;&gt;Node5 -->
<g id="edge3" class="edge">
<title>Node3&#45;&gt;Node5</title>
<path fill="none" stroke="black" d="M209.47,-144.27C198.7,-152.99 186.2,-163.03 174.75,-172 166.37,-178.56 157.05,-185.69 148.99,-191.79"/>
<polygon fill="black" stroke="black" points="211.75,-146.93 217.31,-137.91 207.34,-141.49 211.75,-146.93"/>
<text text-anchor="middle" x="201.75" y="-160.8" font-family="Times,serif" font-size="14.00">कर्म</text>
</g>
<!-- Node13 -->
<g id="node3" class="node">
<title>Node13</title>
<ellipse fill="#00bfff" stroke="#00bfff" cx="367.75" cy="-34" rx="50.09" ry="18"/>
<text text-anchor="middle" x="367.75" y="-30.3" font-family="Times,serif" font-size="14.00">प्रकृष्टम्(13)</text>
</g>
<!-- Node11 -->
<g id="node4" class="node">
<title>Node11</title>
<ellipse fill="#00bfff" stroke="#00bfff" cx="368.75" cy="-121" rx="48.19" ry="18"/>
<text text-anchor="middle" x="368.75" y="-117.3" font-family="Times,serif" font-size="14.00">पुण्यम्(11)</text>
</g>
<!-- Node13&#45;&gt;Node11 -->
<g id="edge11" class="edge">
<title>Node13&#45;&gt;Node11</title>
<path fill="none" stroke="black" d="M368.07,-62.27C368.22,-75.58 368.41,-91.19 368.54,-102.82"/>
<polygon fill="black" stroke="black" points="371.57,-62.16 367.95,-52.2 364.57,-62.24 371.57,-62.16"/>
<text text-anchor="middle" x="390.25" y="-73.8" font-family="Times,serif" font-size="14.00">विशेषणम्</text>
</g>
<!-- Node12 -->
<g id="node12" class="node">
<title>Node12</title>
<ellipse fill="#00bfff" stroke="#00bfff" cx="488.75" cy="-208" rx="48.19" ry="18"/>
<text text-anchor="middle" x="488.75" y="-204.3" font-family="Times,serif" font-size="14.00">चीर्णम्(12)</text>
</g>
<!-- Node11&#45;&gt;Node12 -->
<g id="edge10" class="edge">
<title>Node11&#45;&gt;Node12</title>
<path fill="none" stroke="black" d="M398.56,-143.12C419.82,-158.18 447.93,-178.09 467.07,-191.65"/>
<polygon fill="black" stroke="black" points="400.38,-140.12 390.2,-137.2 396.34,-145.83 400.38,-140.12"/>
<text text-anchor="middle" x="444.75" y="-160.8" font-family="Times,serif" font-size="14.00">कर्म</text>
</g>
<!-- Node1 -->
<g id="node5" class="node">
<title>Node1</title>
<ellipse fill="#6fffc3" stroke="#6fffc3" cx="128.75" cy="-121" rx="33.6" ry="18"/>
<text text-anchor="middle" x="128.75" y="-117.3" font-family="Times,serif" font-size="14.00">पुत्र(1)</text>
</g>
<!-- Node1&#45;&gt;Node5 -->
<g id="edge1" class="edge">
<title>Node1&#45;&gt;Node5</title>
<path fill="none" stroke="black" d="M128.75,-149.27C128.75,-162.58 128.75,-178.19 128.75,-189.82"/>
<polygon fill="black" stroke="black" points="132.25,-149.2 128.75,-139.2 125.25,-149.2 132.25,-149.2"/>
<text text-anchor="middle" x="149.75" y="-160.8" font-family="Times,serif" font-size="14.00">सम्बोध्यः</text>
</g>
<!-- Node4 -->
<g id="node7" class="node">
<title>Node4</title>
<ellipse fill="#ff99ff" stroke="#ff99ff" cx="134.75" cy="-34" rx="28.7" ry="18"/>
<text text-anchor="middle" x="134.75" y="-30.3" font-family="Times,serif" font-size="14.00">च(4)</text>
</g>
<!-- Node4&#45;&gt;Node3 -->
<g id="edge4" class="edge">
<title>Node4&#45;&gt;Node3</title>
<path fill="none" stroke="black" d="M142.2,-61.56C145.57,-69.87 150.28,-78.55 156.75,-85 167.37,-95.6 181.74,-103.24 195.37,-108.62"/>
<polygon fill="black" stroke="black" points="145.49,-60.38 138.85,-52.13 138.9,-62.72 145.49,-60.38"/>
<text text-anchor="middle" x="194.75" y="-73.8" font-family="Times,serif" font-size="14.00">समुच्चय_द्योतकः</text>
</g>
<!-- Node6 -->
<g id="node8" class="node">
<title>Node6</title>
<ellipse fill="#ff99ff" stroke="#ff99ff" cx="35.75" cy="-121" rx="36" ry="18"/>
<text text-anchor="middle" x="35.75" y="-117.3" font-family="Times,serif" font-size="14.00">पुनः(6)</text>
</g>
<!-- Node6&#45;&gt;Node5 -->
<g id="edge5" class="edge">
<title>Node6&#45;&gt;Node5</title>
<path fill="none" stroke="black" d="M41.71,-148.7C44.58,-156.92 48.74,-165.5 54.75,-172 65.26,-183.38 80.24,-191.41 93.97,-196.88"/>
<polygon fill="black" stroke="black" points="45.04,-147.6 38.82,-139.02 38.33,-149.6 45.04,-147.6"/>
<text text-anchor="middle" x="89.75" y="-160.8" font-family="Times,serif" font-size="14.00">क्रियाविशेषणम्</text>
</g>
<!-- Node7 -->
<g id="node9" class="node">
<title>Node7</title>
<ellipse fill="#ff99ff" stroke="#ff99ff" cx="35.75" cy="-34" rx="36" ry="18"/>
<text text-anchor="middle" x="35.75" y="-30.3" font-family="Times,serif" font-size="14.00">पुनः(7)</text>
</g>
<!-- Node7&#45;&gt;Node6 -->
<g id="edge6" class="edge">
<title>Node7&#45;&gt;Node6</title>
<path fill="none" stroke="black" d="M35.75,-62.27C35.75,-75.58 35.75,-91.19 35.75,-102.82"/>
<polygon fill="black" stroke="black" points="39.25,-62.2 35.75,-52.2 32.25,-62.2 39.25,-62.2"/>
<text text-anchor="middle" x="49.75" y="-73.8" font-family="Times,serif" font-size="14.00">वीप्सा</text>
</g>
<!-- Node8 -->
<g id="node10" class="node">
<title>Node8</title>
<ellipse fill="#87ceeb" stroke="#87ceeb" cx="464.75" cy="-34" rx="28.7" ry="18"/>
<text text-anchor="middle" x="464.75" y="-30.3" font-family="Times,serif" font-size="14.00">मे(8)</text>
</g>
<!-- Node8&#45;&gt;Node11 -->
<g id="edge7" class="edge">
<title>Node8&#45;&gt;Node11</title>
<path fill="none" stroke="black" d="M444.69,-57.56C436.37,-66.46 426.42,-76.55 416.75,-85 408.82,-91.92 399.59,-98.88 391.36,-104.75"/>
<polygon fill="black" stroke="black" points="447.34,-59.85 451.53,-50.11 442.18,-55.11 447.34,-59.85"/>
<text text-anchor="middle" x="459.25" y="-73.8" font-family="Times,serif" font-size="14.00">षष्ठीसम्बन्धः</text>
</g>
<!-- Node9 -->
<g id="node11" class="node">
<title>Node9</title>
<ellipse fill="#40e0d0" stroke="#40e0d0" cx="488.75" cy="-121" rx="53.89" ry="18"/>
<text text-anchor="middle" x="488.75" y="-117.3" font-family="Times,serif" font-size="14.00">वयः(यया)(9)</text>
</g>
<!-- Node9&#45;&gt;Node12 -->
<g id="edge8" class="edge">
<title>Node9&#45;&gt;Node12</title>
<path fill="none" stroke="black" d="M488.75,-149.27C488.75,-162.58 488.75,-178.19 488.75,-189.82"/>
<polygon fill="black" stroke="black" points="492.25,-149.2 488.75,-139.2 485.25,-149.2 492.25,-149.2"/>
<text text-anchor="middle" x="499.75" y="-160.8" font-family="Times,serif" font-size="14.00">कर्ता</text>
</g>
<!-- Node10 -->
<g id="node13" class="node">
<title>Node10</title>
<ellipse fill="#93db70" stroke="#93db70" cx="617.75" cy="-121" rx="57.39" ry="18"/>
<text text-anchor="middle" x="617.75" y="-117.3" font-family="Times,serif" font-size="14.00">यथाबलम्(10)</text>
</g>
<!-- Node10&#45;&gt;Node12 -->
<g id="edge9" class="edge">
<title>Node10&#45;&gt;Node12</title>
<path fill="none" stroke="black" d="M585.64,-143.16C562.54,-158.37 531.97,-178.52 511.39,-192.08"/>
<polygon fill="black" stroke="black" points="587.66,-146.02 594.09,-137.59 583.81,-140.17 587.66,-146.02"/>
<text text-anchor="middle" x="595.75" y="-160.8" font-family="Times,serif" font-size="14.00">क्रियाविशेषणम्</text>
</g>
</g>
</svg>
