<?xml version="1.0" encoding="UTF-8" standalone="no"?>
<!DOCTYPE svg PUBLIC "-//W3C//DTD SVG 1.1//EN"
 "http://www.w3.org/Graphics/SVG/1.1/DTD/svg11.dtd">
<!-- Generated by graphviz version 2.43.0 (0)
 -->
<!-- Title: G Pages: 1 -->
<svg width="775pt" height="305pt"
 viewBox="0.00 0.00 775.05 305.00" xmlns="http://www.w3.org/2000/svg" xmlns:xlink="http://www.w3.org/1999/xlink">
<g id="graph0" class="graph" transform="scale(1 1) rotate(0) translate(4 301)">
<title>G</title>
<polygon fill="#fffacd" stroke="transparent" points="-4,4 -4,-301 771.05,-301 771.05,4 -4,4"/>
<g id="clust1" class="cluster">
<title>cluster_1</title>
<polygon fill="#fffacd" stroke="black" points="8,-79 8,-218 102,-218 102,-79 8,-79"/>
</g>
<g id="clust2" class="cluster">
<title>cluster_2</title>
<polygon fill="#fffacd" stroke="black" points="110,-79 110,-218 594,-218 594,-79 110,-79"/>
</g>
<!-- Node1 -->
<g id="node1" class="node">
<title>Node1</title>
<ellipse fill="#00bfff" stroke="#00bfff" cx="49" cy="-105" rx="31.7" ry="18"/>
<text text-anchor="middle" x="49" y="-101.3" font-family="Times,serif" font-size="14.00">सः(1)</text>
</g>
<!-- Node2 -->
<g id="node2" class="node">
<title>Node2</title>
<ellipse fill="#00bfff" stroke="#00bfff" cx="55" cy="-192" rx="38.99" ry="18"/>
<text text-anchor="middle" x="55" y="-188.3" font-family="Times,serif" font-size="14.00">अहम्(2)</text>
</g>
<!-- Node1&#45;&gt;Node2 -->
<g id="edge1" class="edge">
<title>Node1&#45;&gt;Node2</title>
<path fill="none" stroke="black" d="M50.92,-133.27C51.86,-146.58 52.97,-162.19 53.79,-173.82"/>
<polygon fill="black" stroke="black" points="54.41,-132.93 50.21,-123.2 47.43,-133.42 54.41,-132.93"/>
<text text-anchor="middle" x="75.5" y="-144.8" font-family="Times,serif" font-size="14.00">विशेषणम्</text>
</g>
<!-- Node11 -->
<g id="node8" class="node">
<title>Node11</title>
<ellipse fill="#ff1975" stroke="#ff1975" cx="578" cy="-279" rx="55.49" ry="18"/>
<text text-anchor="middle" x="578" y="-275.3" font-family="Times,serif" font-size="14.00">धारयामि(11)</text>
</g>
<!-- Node2&#45;&gt;Node11 -->
<g id="edge2" class="edge">
<title>Node2&#45;&gt;Node11</title>
<path fill="none" stroke="black" d="M87.56,-210.92C93.56,-213.65 99.86,-216.16 106,-218 252.39,-261.86 433.69,-273.66 523,-276.84"/>
<polygon fill="black" stroke="black" points="88.99,-207.72 78.47,-206.51 85.94,-214.02 88.99,-207.72"/>
<text text-anchor="middle" x="218" y="-231.8" font-family="Times,serif" font-size="14.00">कर्ता</text>
</g>
<!-- Node5 -->
<g id="node3" class="node">
<title>Node5</title>
<ellipse fill="#00bfff" stroke="#00bfff" cx="535" cy="-105" rx="50.89" ry="18"/>
<text text-anchor="middle" x="535" y="-101.3" font-family="Times,serif" font-size="14.00">निवृत्तानि(5)</text>
</g>
<!-- Node4 -->
<g id="node4" class="node">
<title>Node4</title>
<ellipse fill="#00bfff" stroke="#00bfff" cx="407" cy="-192" rx="53.89" ry="18"/>
<text text-anchor="middle" x="407" y="-188.3" font-family="Times,serif" font-size="14.00">अलीकानि(4)</text>
</g>
<!-- Node5&#45;&gt;Node4 -->
<g id="edge5" class="edge">
<title>Node5&#45;&gt;Node4</title>
<path fill="none" stroke="black" d="M503.5,-126.92C480.79,-142 450.63,-162.03 430.12,-175.65"/>
<polygon fill="black" stroke="black" points="505.72,-129.64 512.12,-121.2 501.85,-123.81 505.72,-129.64"/>
<text text-anchor="middle" x="500.5" y="-144.8" font-family="Times,serif" font-size="14.00">विशेषणम्</text>
</g>
<!-- Node4&#45;&gt;Node11 -->
<g id="edge4" class="edge">
<title>Node4&#45;&gt;Node11</title>
<path fill="none" stroke="black" d="M445.31,-212.04C476.65,-227.62 520.3,-249.32 548.85,-263.51"/>
<polygon fill="black" stroke="black" points="446.52,-208.74 436.01,-207.42 443.4,-215 446.52,-208.74"/>
<text text-anchor="middle" x="511" y="-231.8" font-family="Times,serif" font-size="14.00">कर्म</text>
</g>
<!-- Node6 -->
<g id="node5" class="node">
<title>Node6</title>
<ellipse fill="#00bfff" stroke="#00bfff" cx="407" cy="-105" rx="59.29" ry="18"/>
<text text-anchor="middle" x="407" y="-101.3" font-family="Times,serif" font-size="14.00">शल्यभूतानि(6)</text>
</g>
<!-- Node6&#45;&gt;Node4 -->
<g id="edge6" class="edge">
<title>Node6&#45;&gt;Node4</title>
<path fill="none" stroke="black" d="M407,-133.27C407,-146.58 407,-162.19 407,-173.82"/>
<polygon fill="black" stroke="black" points="410.5,-133.2 407,-123.2 403.5,-133.2 410.5,-133.2"/>
<text text-anchor="middle" x="429.5" y="-144.8" font-family="Times,serif" font-size="14.00">विशेषणम्</text>
</g>
<!-- Node7 -->
<g id="node6" class="node">
<title>Node7</title>
<ellipse fill="#00bfff" stroke="#00bfff" cx="287" cy="-105" rx="42.79" ry="18"/>
<text text-anchor="middle" x="287" y="-101.3" font-family="Times,serif" font-size="14.00">एतानि(7)</text>
</g>
<!-- Node7&#45;&gt;Node4 -->
<g id="edge7" class="edge">
<title>Node7&#45;&gt;Node4</title>
<path fill="none" stroke="black" d="M316.24,-126.71C337.5,-141.77 365.81,-161.82 385.12,-175.5"/>
<polygon fill="black" stroke="black" points="318.09,-123.73 307.9,-120.81 314.04,-129.44 318.09,-123.73"/>
<text text-anchor="middle" x="376.5" y="-144.8" font-family="Times,serif" font-size="14.00">विशेषणम्</text>
</g>
<!-- Node10 -->
<g id="node7" class="node">
<title>Node10</title>
<ellipse fill="#ff99ff" stroke="#ff99ff" cx="172" cy="-105" rx="53.89" ry="18"/>
<text text-anchor="middle" x="172" y="-101.3" font-family="Times,serif" font-size="14.00">सहस्रशः(10)</text>
</g>
<!-- Node10&#45;&gt;Node4 -->
<g id="edge10" class="edge">
<title>Node10&#45;&gt;Node4</title>
<path fill="none" stroke="black" d="M211.98,-124.24C234.63,-134.24 263.62,-146.5 290,-156 315.03,-165.02 343.64,-173.6 366.3,-180.02"/>
<polygon fill="black" stroke="black" points="213.25,-120.97 202.69,-120.1 210.4,-127.36 213.25,-120.97"/>
<text text-anchor="middle" x="312.5" y="-144.8" font-family="Times,serif" font-size="14.00">विशेषणम्</text>
</g>
<!-- Node3 -->
<g id="node9" class="node">
<title>Node3</title>
<ellipse fill="#87ceeb" stroke="#87ceeb" cx="535" cy="-18" rx="46.29" ry="18"/>
<text text-anchor="middle" x="535" y="-14.3" font-family="Times,serif" font-size="14.00">आत्मनः(3)</text>
</g>
<!-- Node3&#45;&gt;Node5 -->
<g id="edge3" class="edge">
<title>Node3&#45;&gt;Node5</title>
<path fill="none" stroke="black" d="M535,-46.27C535,-59.58 535,-75.19 535,-86.82"/>
<polygon fill="black" stroke="black" points="538.5,-46.2 535,-36.2 531.5,-46.2 538.5,-46.2"/>
<text text-anchor="middle" x="562.5" y="-57.8" font-family="Times,serif" font-size="14.00">षष्ठीसम्बन्धः</text>
</g>
<!-- Node8 -->
<g id="node10" class="node">
<title>Node8</title>
<ellipse fill="#ff99ff" stroke="#ff99ff" cx="638" cy="-192" rx="36.29" ry="18"/>
<text text-anchor="middle" x="638" y="-188.3" font-family="Times,serif" font-size="14.00">सदा(8)</text>
</g>
<!-- Node8&#45;&gt;Node11 -->
<g id="edge8" class="edge">
<title>Node8&#45;&gt;Node11</title>
<path fill="none" stroke="black" d="M620.6,-217.65C610.68,-231.7 598.52,-248.92 589.74,-261.37"/>
<polygon fill="black" stroke="black" points="623.52,-219.58 626.43,-209.39 617.81,-215.54 623.52,-219.58"/>
<text text-anchor="middle" x="646.5" y="-231.8" font-family="Times,serif" font-size="14.00">कालाधिकरणम्</text>
</g>
<!-- Node9 -->
<g id="node11" class="node">
<title>Node9</title>
<ellipse fill="#b0e2ff" stroke="#b0e2ff" cx="730" cy="-192" rx="37.09" ry="18"/>
<text text-anchor="middle" x="730" y="-188.3" font-family="Times,serif" font-size="14.00">हृदये(9)</text>
</g>
<!-- Node9&#45;&gt;Node11 -->
<g id="edge9" class="edge">
<title>Node9&#45;&gt;Node11</title>
<path fill="none" stroke="black" d="M712.86,-217.54C705.49,-226.6 696.21,-236.29 686,-243 667.39,-255.23 644.16,-263.48 624.02,-268.89"/>
<polygon fill="black" stroke="black" points="715.73,-219.55 719.07,-209.49 710.19,-215.27 715.73,-219.55"/>
<text text-anchor="middle" x="734" y="-231.8" font-family="Times,serif" font-size="14.00">देशाधिकरणम्</text>
</g>
</g>
</svg>
