<?xml version="1.0" encoding="UTF-8" standalone="no"?>
<!DOCTYPE svg PUBLIC "-//W3C//DTD SVG 1.1//EN"
 "http://www.w3.org/Graphics/SVG/1.1/DTD/svg11.dtd">
<!-- Generated by graphviz version 2.43.0 (0)
 -->
<!-- Title: G Pages: 1 -->
<svg width="728pt" height="408pt"
 viewBox="0.00 0.00 727.99 408.00" xmlns="http://www.w3.org/2000/svg" xmlns:xlink="http://www.w3.org/1999/xlink">
<g id="graph0" class="graph" transform="scale(1 1) rotate(0) translate(4 404)">
<title>G</title>
<polygon fill="#fffacd" stroke="transparent" points="-4,4 -4,-404 723.99,-404 723.99,4 -4,4"/>
<g id="clust1" class="cluster">
<title>cluster_1</title>
<polygon fill="#fffacd" stroke="black" points="94.15,-95 94.15,-234 218.15,-234 218.15,-95 94.15,-95"/>
</g>
<g id="clust2" class="cluster">
<title>cluster_2</title>
<polygon fill="#fffacd" stroke="black" points="337.15,-8 337.15,-147 495.15,-147 495.15,-8 337.15,-8"/>
</g>
<!-- Node4_2 -->
<g id="node1" class="node">
<title>Node4_2</title>
<ellipse fill="#00bfff" stroke="#00bfff" cx="158.15" cy="-121" rx="46.59" ry="18"/>
<text text-anchor="middle" x="158.15" y="-117.3" font-family="Times,serif" font-size="14.00">भाक्(4.2)</text>
</g>
<!-- Node7_1 -->
<g id="node2" class="node">
<title>Node7_1</title>
<ellipse fill="#00bfff" stroke="#00bfff" cx="156.15" cy="-208" rx="53.89" ry="18"/>
<text text-anchor="middle" x="156.15" y="-204.3" font-family="Times,serif" font-size="14.00">पार्थिवः(7.1)</text>
</g>
<!-- Node4_2&#45;&gt;Node7_1 -->
<g id="edge5" class="edge">
<title>Node4_2&#45;&gt;Node7_1</title>
<path fill="none" stroke="black" d="M157.5,-149.27C157.19,-162.58 156.82,-178.19 156.55,-189.82"/>
<polygon fill="black" stroke="black" points="161,-149.28 157.74,-139.2 154.01,-149.12 161,-149.28"/>
<text text-anchor="middle" x="179.65" y="-160.8" font-family="Times,serif" font-size="14.00">समुच्चितः</text>
</g>
<!-- Node1_1 -->
<g id="node5" class="node">
<title>Node1_1</title>
<ellipse fill="#00bfff" stroke="#00bfff" cx="156.15" cy="-295" rx="44.39" ry="18"/>
<text text-anchor="middle" x="156.15" y="-291.3" font-family="Times,serif" font-size="14.00">त्वम्(1.1)</text>
</g>
<!-- Node7_1&#45;&gt;Node1_1 -->
<g id="edge8" class="edge">
<title>Node7_1&#45;&gt;Node1_1</title>
<path fill="none" stroke="black" d="M156.15,-236.27C156.15,-249.58 156.15,-265.19 156.15,-276.82"/>
<polygon fill="black" stroke="black" points="159.65,-236.2 156.15,-226.2 152.65,-236.2 159.65,-236.2"/>
<text text-anchor="middle" x="195.15" y="-247.8" font-family="Times,serif" font-size="14.00">विधेय_विशेषणम्</text>
</g>
<!-- Node13_1 -->
<g id="node3" class="node">
<title>Node13_1</title>
<ellipse fill="#87ceeb" stroke="#87ceeb" cx="416.15" cy="-34" rx="71.49" ry="18"/>
<text text-anchor="middle" x="416.15" y="-30.3" font-family="Times,serif" font-size="14.00">कल्याणस्य(13.1)</text>
</g>
<!-- Node14_1 -->
<g id="node4" class="node">
<title>Node14_1</title>
<ellipse fill="#87ceeb" stroke="#87ceeb" cx="426.15" cy="-121" rx="59.59" ry="18"/>
<text text-anchor="middle" x="426.15" y="-117.3" font-family="Times,serif" font-size="14.00">इतरस्य(14.1)</text>
</g>
<!-- Node13_1&#45;&gt;Node14_1 -->
<g id="edge14" class="edge">
<title>Node13_1&#45;&gt;Node14_1</title>
<path fill="none" stroke="black" d="M419.35,-62.27C420.92,-75.58 422.76,-91.19 424.13,-102.82"/>
<polygon fill="black" stroke="black" points="422.81,-61.72 418.17,-52.2 415.86,-62.54 422.81,-61.72"/>
<text text-anchor="middle" x="440.15" y="-73.8" font-family="Times,serif" font-size="14.00">अन्यतरः</text>
</g>
<!-- Node10_2 -->
<g id="node14" class="node">
<title>Node10_2</title>
<ellipse fill="#00bfff" stroke="#00bfff" cx="558.15" cy="-208" rx="54.69" ry="18"/>
<text text-anchor="middle" x="558.15" y="-204.3" font-family="Times,serif" font-size="14.00">भाजः(10.2)</text>
</g>
<!-- Node14_1&#45;&gt;Node10_2 -->
<g id="edge15" class="edge">
<title>Node14_1&#45;&gt;Node10_2</title>
<path fill="none" stroke="black" d="M457.09,-143.85C469.97,-152.77 485.15,-163.07 499.15,-172 509.79,-178.79 521.73,-185.96 532.08,-192.03"/>
<polygon fill="black" stroke="black" points="458.79,-140.77 448.58,-137.92 454.79,-146.51 458.79,-140.77"/>
<text text-anchor="middle" x="526.65" y="-160.8" font-family="Times,serif" font-size="14.00">षष्ठीसम्बन्धः</text>
</g>
<!-- Node9_1 -->
<g id="node6" class="node">
<title>Node9_1</title>
<ellipse fill="#ff1975" stroke="#ff1975" cx="83.15" cy="-382" rx="46.59" ry="18"/>
<text text-anchor="middle" x="83.15" y="-378.3" font-family="Times,serif" font-size="14.00">असि(9.1)</text>
</g>
<!-- Node1_1&#45;&gt;Node9_1 -->
<g id="edge1" class="edge">
<title>Node1_1&#45;&gt;Node9_1</title>
<path fill="none" stroke="black" d="M136.08,-320.14C129.18,-328.38 121.37,-337.63 114.15,-346 108.84,-352.15 102.95,-358.83 97.74,-364.7"/>
<polygon fill="black" stroke="black" points="138.91,-322.22 142.63,-312.3 133.54,-317.73 138.91,-322.22"/>
<text text-anchor="middle" x="136.15" y="-334.8" font-family="Times,serif" font-size="14.00">कर्ता</text>
</g>
<!-- Node2_1 -->
<g id="node7" class="node">
<title>Node2_1</title>
<ellipse fill="#ff99ff" stroke="#ff99ff" cx="47.15" cy="-121" rx="37.89" ry="18"/>
<text text-anchor="middle" x="47.15" y="-117.3" font-family="Times,serif" font-size="14.00">च(2.1)</text>
</g>
<!-- Node2_1&#45;&gt;Node7_1 -->
<g id="edge2" class="edge">
<title>Node2_1&#45;&gt;Node7_1</title>
<path fill="none" stroke="black" d="M58.36,-148.31C62.92,-156.7 68.86,-165.49 76.15,-172 87.79,-182.4 103.02,-190.1 117.06,-195.58"/>
<polygon fill="black" stroke="black" points="61.38,-146.53 53.79,-139.14 55.12,-149.65 61.38,-146.53"/>
<text text-anchor="middle" x="114.15" y="-160.8" font-family="Times,serif" font-size="14.00">समुच्चय_द्योतकः</text>
</g>
<!-- Node3_1 -->
<g id="node8" class="node">
<title>Node3_1</title>
<ellipse fill="#ff99ff" stroke="#ff99ff" cx="46.15" cy="-34" rx="46.29" ry="18"/>
<text text-anchor="middle" x="46.15" y="-30.3" font-family="Times,serif" font-size="14.00">अपि(3.1)</text>
</g>
<!-- Node3_1&#45;&gt;Node2_1 -->
<g id="edge3" class="edge">
<title>Node3_1&#45;&gt;Node2_1</title>
<path fill="none" stroke="black" d="M46.47,-62.27C46.62,-75.58 46.81,-91.19 46.94,-102.82"/>
<polygon fill="black" stroke="black" points="49.97,-62.16 46.35,-52.2 42.97,-62.24 49.97,-62.16"/>
<text text-anchor="middle" x="65.65" y="-73.8" font-family="Times,serif" font-size="14.00">सम्बन्धः</text>
</g>
<!-- Node4_1 -->
<g id="node9" class="node">
<title>Node4_1</title>
<ellipse fill="#ffff00" stroke="#ffff00" cx="158.15" cy="-34" rx="48.19" ry="18"/>
<text text-anchor="middle" x="158.15" y="-30.3" font-family="Times,serif" font-size="14.00">फल&#45;(4.1)</text>
</g>
<!-- Node4_1&#45;&gt;Node4_2 -->
<g id="edge4" class="edge">
<title>Node4_1&#45;&gt;Node4_2</title>
<path fill="none" stroke="black" d="M158.15,-62.27C158.15,-75.58 158.15,-91.19 158.15,-102.82"/>
<polygon fill="black" stroke="black" points="161.65,-62.2 158.15,-52.2 154.65,-62.2 161.65,-62.2"/>
<text text-anchor="middle" x="175.15" y="-73.8" font-family="Times,serif" font-size="14.00">समासः</text>
</g>
<!-- Node5_1 -->
<g id="node10" class="node">
<title>Node5_1</title>
<ellipse fill="#6fffc3" stroke="#6fffc3" cx="50.15" cy="-295" rx="44.39" ry="18"/>
<text text-anchor="middle" x="50.15" y="-291.3" font-family="Times,serif" font-size="14.00">तात(5.1)</text>
</g>
<!-- Node5_1&#45;&gt;Node9_1 -->
<g id="edge6" class="edge">
<title>Node5_1&#45;&gt;Node9_1</title>
<path fill="none" stroke="black" d="M60.45,-322.54C65.72,-336.12 71.98,-352.24 76.59,-364.11"/>
<polygon fill="black" stroke="black" points="63.71,-321.26 56.82,-313.2 57.18,-323.79 63.71,-321.26"/>
<text text-anchor="middle" x="90.15" y="-334.8" font-family="Times,serif" font-size="14.00">सम्बोध्यः</text>
</g>
<!-- Node6_1 -->
<g id="node11" class="node">
<title>Node6_1</title>
<ellipse fill="#87ceeb" stroke="#87ceeb" cx="274.15" cy="-34" rx="50.09" ry="18"/>
<text text-anchor="middle" x="274.15" y="-30.3" font-family="Times,serif" font-size="14.00">तपसः(6.1)</text>
</g>
<!-- Node6_1&#45;&gt;Node4_2 -->
<g id="edge7" class="edge">
<title>Node6_1&#45;&gt;Node4_2</title>
<path fill="none" stroke="black" d="M245.05,-56.32C224.49,-71.38 197.43,-91.22 179,-104.72"/>
<polygon fill="black" stroke="black" points="247.14,-59.13 253.14,-50.39 243,-53.48 247.14,-59.13"/>
<text text-anchor="middle" x="249.65" y="-73.8" font-family="Times,serif" font-size="14.00">षष्ठीसम्बन्धः</text>
</g>
<!-- Node8_1 -->
<g id="node12" class="node">
<title>Node8_1</title>
<ellipse fill="#ff99ff" stroke="#ff99ff" cx="265.15" cy="-121" rx="38.99" ry="18"/>
<text text-anchor="middle" x="265.15" y="-117.3" font-family="Times,serif" font-size="14.00">हि(8.1)</text>
</g>
<!-- Node8_1&#45;&gt;Node7_1 -->
<g id="edge9" class="edge">
<title>Node8_1&#45;&gt;Node7_1</title>
<path fill="none" stroke="black" d="M240.1,-144.1C229.77,-152.99 217.56,-163.2 206.15,-172 197.5,-178.66 187.72,-185.63 179.12,-191.58"/>
<polygon fill="black" stroke="black" points="242.68,-146.5 247.94,-137.31 238.09,-141.22 242.68,-146.5"/>
<text text-anchor="middle" x="242.65" y="-160.8" font-family="Times,serif" font-size="14.00">सम्बन्धः</text>
</g>
<!-- Node10_1 -->
<g id="node13" class="node">
<title>Node10_1</title>
<ellipse fill="#ffff00" stroke="#ffff00" cx="558.15" cy="-121" rx="53.89" ry="18"/>
<text text-anchor="middle" x="558.15" y="-117.3" font-family="Times,serif" font-size="14.00">फल&#45;(10.1)</text>
</g>
<!-- Node10_1&#45;&gt;Node10_2 -->
<g id="edge10" class="edge">
<title>Node10_1&#45;&gt;Node10_2</title>
<path fill="none" stroke="black" d="M558.15,-149.27C558.15,-162.58 558.15,-178.19 558.15,-189.82"/>
<polygon fill="black" stroke="black" points="561.65,-149.2 558.15,-139.2 554.65,-149.2 561.65,-149.2"/>
<text text-anchor="middle" x="575.15" y="-160.8" font-family="Times,serif" font-size="14.00">समासः</text>
</g>
<!-- Node12_1 -->
<g id="node15" class="node">
<title>Node12_1</title>
<ellipse fill="#00bfff" stroke="#00bfff" cx="558.15" cy="-295" rx="59.59" ry="18"/>
<text text-anchor="middle" x="558.15" y="-291.3" font-family="Times,serif" font-size="14.00">राजानः(12.1)</text>
</g>
<!-- Node10_2&#45;&gt;Node12_1 -->
<g id="edge11" class="edge">
<title>Node10_2&#45;&gt;Node12_1</title>
<path fill="none" stroke="black" d="M558.15,-236.27C558.15,-249.58 558.15,-265.19 558.15,-276.82"/>
<polygon fill="black" stroke="black" points="561.65,-236.2 558.15,-226.2 554.65,-236.2 561.65,-236.2"/>
<text text-anchor="middle" x="597.15" y="-247.8" font-family="Times,serif" font-size="14.00">विधेय_विशेषणम्</text>
</g>
<!-- Node16_1 -->
<g id="node17" class="node">
<title>Node16_1</title>
<ellipse fill="#ff1975" stroke="#ff1975" cx="558.15" cy="-382" rx="60.39" ry="18"/>
<text text-anchor="middle" x="558.15" y="-378.3" font-family="Times,serif" font-size="14.00">(सन्ति)(16.1)</text>
</g>
<!-- Node12_1&#45;&gt;Node16_1 -->
<g id="edge13" class="edge">
<title>Node12_1&#45;&gt;Node16_1</title>
<path fill="none" stroke="black" d="M558.15,-323.27C558.15,-336.58 558.15,-352.19 558.15,-363.82"/>
<polygon fill="black" stroke="black" points="561.65,-323.2 558.15,-313.2 554.65,-323.2 561.65,-323.2"/>
<text text-anchor="middle" x="569.15" y="-334.8" font-family="Times,serif" font-size="14.00">कर्ता</text>
</g>
<!-- Node11_1 -->
<g id="node16" class="node">
<title>Node11_1</title>
<ellipse fill="#ff99ff" stroke="#ff99ff" cx="675.15" cy="-121" rx="44.69" ry="18"/>
<text text-anchor="middle" x="675.15" y="-117.3" font-family="Times,serif" font-size="14.00">हि(11.1)</text>
</g>
<!-- Node11_1&#45;&gt;Node10_2 -->
<g id="edge12" class="edge">
<title>Node11_1&#45;&gt;Node10_2</title>
<path fill="none" stroke="black" d="M646.14,-143.08C625.58,-158.01 598.45,-177.72 579.78,-191.29"/>
<polygon fill="black" stroke="black" points="648.46,-145.71 654.5,-137 644.35,-140.05 648.46,-145.71"/>
<text text-anchor="middle" x="641.65" y="-160.8" font-family="Times,serif" font-size="14.00">सम्बन्धः</text>
</g>
<!-- Node15_1 -->
<g id="node18" class="node">
<title>Node15_1</title>
<ellipse fill="#ff99ff" stroke="#ff99ff" cx="550.15" cy="-34" rx="44.69" ry="18"/>
<text text-anchor="middle" x="550.15" y="-30.3" font-family="Times,serif" font-size="14.00">वा(15.1)</text>
</g>
<!-- Node15_1&#45;&gt;Node14_1 -->
<g id="edge16" class="edge">
<title>Node15_1&#45;&gt;Node14_1</title>
<path fill="none" stroke="black" d="M520.27,-55.48C498.43,-70.45 469.23,-90.47 449.18,-104.21"/>
<polygon fill="black" stroke="black" points="522.28,-58.35 528.55,-49.81 518.32,-52.57 522.28,-58.35"/>
<text text-anchor="middle" x="531.65" y="-73.8" font-family="Times,serif" font-size="14.00">अन्यतर_द्योतकः</text>
</g>
</g>
</svg>
