<?xml version="1.0" encoding="UTF-8" standalone="no"?>
<!DOCTYPE svg PUBLIC "-//W3C//DTD SVG 1.1//EN"
 "http://www.w3.org/Graphics/SVG/1.1/DTD/svg11.dtd">
<!-- Generated by graphviz version 2.43.0 (0)
 -->
<!-- Title: G Pages: 1 -->
<svg width="695pt" height="392pt"
 viewBox="0.00 0.00 695.00 392.00" xmlns="http://www.w3.org/2000/svg" xmlns:xlink="http://www.w3.org/1999/xlink">
<g id="graph0" class="graph" transform="scale(1 1) rotate(0) translate(4 388)">
<title>G</title>
<polygon fill="#fffacd" stroke="transparent" points="-4,4 -4,-388 691,-388 691,4 -4,4"/>
<g id="clust1" class="cluster">
<title>cluster_1</title>
<polygon fill="#fffacd" stroke="black" points="466,-166 466,-305 679,-305 679,-166 466,-166"/>
</g>
<g id="clust2" class="cluster">
<title>cluster_2</title>
<polygon fill="#fffacd" stroke="black" points="8,-166 8,-305 236,-305 236,-166 8,-166"/>
</g>
<!-- Node5_2 -->
<g id="node1" class="node">
<title>Node5_2</title>
<ellipse fill="#00bfff" stroke="#00bfff" cx="622" cy="-192" rx="49.29" ry="18"/>
<text text-anchor="middle" x="622" y="-188.3" font-family="Times,serif" font-size="14.00">अग्रज(5.2)</text>
</g>
<!-- Node11_1 -->
<g id="node2" class="node">
<title>Node11_1</title>
<ellipse fill="#00bfff" stroke="#00bfff" cx="537" cy="-279" rx="63.09" ry="18"/>
<text text-anchor="middle" x="537" y="-275.3" font-family="Times,serif" font-size="14.00">जनार्दनः(11.1)</text>
</g>
<!-- Node5_2&#45;&gt;Node11_1 -->
<g id="edge7" class="edge">
<title>Node5_2&#45;&gt;Node11_1</title>
<path fill="none" stroke="black" d="M600.23,-216.85C592.41,-225.24 583.43,-234.66 575,-243 568.75,-249.18 561.72,-255.76 555.42,-261.53"/>
<polygon fill="black" stroke="black" points="602.82,-219.21 607.05,-209.5 597.69,-214.45 602.82,-219.21"/>
<text text-anchor="middle" x="611.5" y="-231.8" font-family="Times,serif" font-size="14.00">विशेषणम्</text>
</g>
<!-- Node10_1 -->
<g id="node9" class="node">
<title>Node10_1</title>
<ellipse fill="#ff1975" stroke="#ff1975" cx="350" cy="-366" rx="61.99" ry="18"/>
<text text-anchor="middle" x="350" y="-362.3" font-family="Times,serif" font-size="14.00">अमन्यत(10.1)</text>
</g>
<!-- Node11_1&#45;&gt;Node10_1 -->
<g id="edge12" class="edge">
<title>Node11_1&#45;&gt;Node10_1</title>
<path fill="none" stroke="black" d="M501.2,-300.15C483.62,-309.71 461.96,-320.99 442,-330 424.56,-337.87 404.77,-345.56 388.02,-351.71"/>
<polygon fill="black" stroke="black" points="502.91,-303.21 510,-295.33 499.55,-297.07 502.91,-303.21"/>
<text text-anchor="middle" x="482" y="-318.8" font-family="Times,serif" font-size="14.00">कर्ता</text>
</g>
<!-- Node8_1 -->
<g id="node3" class="node">
<title>Node8_1</title>
<ellipse fill="#00bfff" stroke="#00bfff" cx="514" cy="-192" rx="40.09" ry="18"/>
<text text-anchor="middle" x="514" y="-188.3" font-family="Times,serif" font-size="14.00">सः(8.1)</text>
</g>
<!-- Node8_1&#45;&gt;Node11_1 -->
<g id="edge10" class="edge">
<title>Node8_1&#45;&gt;Node11_1</title>
<path fill="none" stroke="black" d="M521.27,-219.87C524.9,-233.27 529.17,-249.08 532.35,-260.82"/>
<polygon fill="black" stroke="black" points="524.64,-218.94 518.65,-210.2 517.89,-220.77 524.64,-218.94"/>
<text text-anchor="middle" x="548.5" y="-231.8" font-family="Times,serif" font-size="14.00">विशेषणम्</text>
</g>
<!-- Node6_1 -->
<g id="node4" class="node">
<title>Node6_1</title>
<ellipse fill="#93db70" stroke="#93db70" cx="181" cy="-192" rx="46.59" ry="18"/>
<text text-anchor="middle" x="181" y="-188.3" font-family="Times,serif" font-size="14.00">एतत्(6.1)</text>
</g>
<!-- Node7_1 -->
<g id="node5" class="node">
<title>Node7_1</title>
<ellipse fill="#93db70" stroke="#93db70" cx="181" cy="-279" rx="45.49" ry="18"/>
<text text-anchor="middle" x="181" y="-275.3" font-family="Times,serif" font-size="14.00">श्रेयः(7.1)</text>
</g>
<!-- Node6_1&#45;&gt;Node7_1 -->
<g id="edge8" class="edge">
<title>Node6_1&#45;&gt;Node7_1</title>
<path fill="none" stroke="black" d="M181,-220.27C181,-233.58 181,-249.19 181,-260.82"/>
<polygon fill="black" stroke="black" points="184.5,-220.2 181,-210.2 177.5,-220.2 184.5,-220.2"/>
<text text-anchor="middle" x="203.5" y="-231.8" font-family="Times,serif" font-size="14.00">विशेषणम्</text>
</g>
<!-- Node7_1&#45;&gt;Node10_1 -->
<g id="edge9" class="edge">
<title>Node7_1&#45;&gt;Node10_1</title>
<path fill="none" stroke="black" d="M217.26,-298.24C248.03,-313.71 291.64,-335.65 320.36,-350.09"/>
<polygon fill="black" stroke="black" points="218.66,-295.02 208.15,-293.66 215.51,-301.28 218.66,-295.02"/>
<text text-anchor="middle" x="285" y="-318.8" font-family="Times,serif" font-size="14.00">कर्म</text>
</g>
<!-- Node9_1 -->
<g id="node6" class="node">
<title>Node9_1</title>
<ellipse fill="#93db70" stroke="#93db70" cx="66" cy="-192" rx="50.09" ry="18"/>
<text text-anchor="middle" x="66" y="-188.3" font-family="Times,serif" font-size="14.00">परमम्(9.1)</text>
</g>
<!-- Node9_1&#45;&gt;Node7_1 -->
<g id="edge11" class="edge">
<title>Node9_1&#45;&gt;Node7_1</title>
<path fill="none" stroke="black" d="M94.45,-214.83C106.04,-223.65 119.61,-233.88 132,-243 140.93,-249.57 150.86,-256.7 159.44,-262.8"/>
<polygon fill="black" stroke="black" points="96.48,-211.97 86.4,-208.69 92.23,-217.54 96.48,-211.97"/>
<text text-anchor="middle" x="154.5" y="-231.8" font-family="Times,serif" font-size="14.00">विशेषणम्</text>
</g>
<!-- Node1_1 -->
<g id="node7" class="node">
<title>Node1_1</title>
<ellipse fill="#93db70" stroke="#93db70" cx="303" cy="-192" rx="57.39" ry="18"/>
<text text-anchor="middle" x="303" y="-188.3" font-family="Times,serif" font-size="14.00">विनाशम्(1.1)</text>
</g>
<!-- Node2_1 -->
<g id="node8" class="node">
<title>Node2_1</title>
<ellipse fill="#00bfff" stroke="#00bfff" cx="350" cy="-279" rx="59.59" ry="18"/>
<text text-anchor="middle" x="350" y="-275.3" font-family="Times,serif" font-size="14.00">पश्यमानः(2.1)</text>
</g>
<!-- Node1_1&#45;&gt;Node2_1 -->
<g id="edge1" class="edge">
<title>Node1_1&#45;&gt;Node2_1</title>
<path fill="none" stroke="black" d="M317.23,-218.74C324.8,-232.42 333.89,-248.86 340.57,-260.95"/>
<polygon fill="black" stroke="black" points="320.19,-216.85 312.29,-209.79 314.06,-220.24 320.19,-216.85"/>
<text text-anchor="middle" x="339" y="-231.8" font-family="Times,serif" font-size="14.00">कर्म</text>
</g>
<!-- Node2_1&#45;&gt;Node10_1 -->
<g id="edge2" class="edge">
<title>Node2_1&#45;&gt;Node10_1</title>
<path fill="none" stroke="black" d="M350,-307.27C350,-320.58 350,-336.19 350,-347.82"/>
<polygon fill="black" stroke="black" points="353.5,-307.2 350,-297.2 346.5,-307.2 353.5,-307.2"/>
<text text-anchor="middle" x="394" y="-318.8" font-family="Times,serif" font-size="14.00">वर्तमानसमानकालः</text>
</g>
<!-- Node3_1 -->
<g id="node10" class="node">
<title>Node3_1</title>
<ellipse fill="#ff99ff" stroke="#ff99ff" cx="417" cy="-192" rx="38.99" ry="18"/>
<text text-anchor="middle" x="417" y="-188.3" font-family="Times,serif" font-size="14.00">हि(3.1)</text>
</g>
<!-- Node3_1&#45;&gt;Node2_1 -->
<g id="edge3" class="edge">
<title>Node3_1&#45;&gt;Node2_1</title>
<path fill="none" stroke="black" d="M397.88,-217.26C386.75,-231.37 373.01,-248.81 363.11,-261.37"/>
<polygon fill="black" stroke="black" points="400.64,-219.41 404.08,-209.39 395.14,-215.08 400.64,-219.41"/>
<text text-anchor="middle" x="405.5" y="-231.8" font-family="Times,serif" font-size="14.00">सम्बन्धः</text>
</g>
<!-- Node4_1 -->
<g id="node11" class="node">
<title>Node4_1</title>
<ellipse fill="#ffff00" stroke="#ffff00" cx="303" cy="-18" rx="45.49" ry="18"/>
<text text-anchor="middle" x="303" y="-14.3" font-family="Times,serif" font-size="14.00">सर्व&#45;(4.1)</text>
</g>
<!-- Node4_2 -->
<g id="node12" class="node">
<title>Node4_2</title>
<ellipse fill="#87ceeb" stroke="#87ceeb" cx="303" cy="-105" rx="50.89" ry="18"/>
<text text-anchor="middle" x="303" y="-101.3" font-family="Times,serif" font-size="14.00">राज्ञाम्(4.2)</text>
</g>
<!-- Node4_1&#45;&gt;Node4_2 -->
<g id="edge4" class="edge">
<title>Node4_1&#45;&gt;Node4_2</title>
<path fill="none" stroke="black" d="M303,-46.27C303,-59.58 303,-75.19 303,-86.82"/>
<polygon fill="black" stroke="black" points="306.5,-46.2 303,-36.2 299.5,-46.2 306.5,-46.2"/>
<text text-anchor="middle" x="313" y="-57.8" font-family="Times,serif" font-size="14.00">K1</text>
</g>
<!-- Node4_2&#45;&gt;Node1_1 -->
<g id="edge5" class="edge">
<title>Node4_2&#45;&gt;Node1_1</title>
<path fill="none" stroke="black" d="M303,-133.27C303,-146.58 303,-162.19 303,-173.82"/>
<polygon fill="black" stroke="black" points="306.5,-133.2 303,-123.2 299.5,-133.2 306.5,-133.2"/>
<text text-anchor="middle" x="330.5" y="-144.8" font-family="Times,serif" font-size="14.00">षष्ठीसम्बन्धः</text>
</g>
<!-- Node5_1 -->
<g id="node13" class="node">
<title>Node5_1</title>
<ellipse fill="#ffff00" stroke="#ffff00" cx="622" cy="-105" rx="46.59" ry="18"/>
<text text-anchor="middle" x="622" y="-101.3" font-family="Times,serif" font-size="14.00">गदा&#45;(5.1)</text>
</g>
<!-- Node5_1&#45;&gt;Node5_2 -->
<g id="edge6" class="edge">
<title>Node5_1&#45;&gt;Node5_2</title>
<path fill="none" stroke="black" d="M622,-133.27C622,-146.58 622,-162.19 622,-173.82"/>
<polygon fill="black" stroke="black" points="625.5,-133.2 622,-123.2 618.5,-133.2 625.5,-133.2"/>
<text text-anchor="middle" x="636" y="-144.8" font-family="Times,serif" font-size="14.00">Bs6</text>
</g>
</g>
</svg>
