<?xml version="1.0" encoding="UTF-8" standalone="no"?>
<!DOCTYPE svg PUBLIC "-//W3C//DTD SVG 1.1//EN"
 "http://www.w3.org/Graphics/SVG/1.1/DTD/svg11.dtd">
<!-- Generated by graphviz version 2.43.0 (0)
 -->
<!-- Title: G Pages: 1 -->
<svg width="478pt" height="566pt"
 viewBox="0.00 0.00 478.05 566.00" xmlns="http://www.w3.org/2000/svg" xmlns:xlink="http://www.w3.org/1999/xlink">
<g id="graph0" class="graph" transform="scale(1 1) rotate(0) translate(4 562)">
<title>G</title>
<polygon fill="#fffacd" stroke="transparent" points="-4,4 -4,-562 474.05,-562 474.05,4 -4,4"/>
<g id="clust1" class="cluster">
<title>cluster_1</title>
<polygon fill="#fffacd" stroke="black" points="8,-166 8,-305 126,-305 126,-166 8,-166"/>
</g>
<g id="clust2" class="cluster">
<title>cluster_2</title>
<polygon fill="#fffacd" stroke="black" points="134,-79 134,-218 282,-218 282,-79 134,-79"/>
</g>
<!-- Node5_1 -->
<g id="node1" class="node">
<title>Node5_1</title>
<ellipse fill="#93db70" stroke="#93db70" cx="67" cy="-192" rx="51.19" ry="18"/>
<text text-anchor="middle" x="67" y="-188.3" font-family="Times,serif" font-size="14.00">मुख्यम्(5.1)</text>
</g>
<!-- Node6_1 -->
<g id="node2" class="node">
<title>Node6_1</title>
<ellipse fill="#93db70" stroke="#93db70" cx="69" cy="-279" rx="48.99" ry="18"/>
<text text-anchor="middle" x="69" y="-275.3" font-family="Times,serif" font-size="14.00">हितम्(6.1)</text>
</g>
<!-- Node5_1&#45;&gt;Node6_1 -->
<g id="edge6" class="edge">
<title>Node5_1&#45;&gt;Node6_1</title>
<path fill="none" stroke="black" d="M67.64,-220.27C67.95,-233.58 68.32,-249.19 68.6,-260.82"/>
<polygon fill="black" stroke="black" points="71.14,-220.12 67.4,-210.2 64.14,-220.28 71.14,-220.12"/>
<text text-anchor="middle" x="91.5" y="-231.8" font-family="Times,serif" font-size="14.00">विशेषणम्</text>
</g>
<!-- Node7_1 -->
<g id="node9" class="node">
<title>Node7_1</title>
<ellipse fill="#93db70" stroke="#93db70" cx="124" cy="-366" rx="68.49" ry="18"/>
<text text-anchor="middle" x="124" y="-362.3" font-family="Times,serif" font-size="14.00">प्रतिकर्तव्यम्(7.1)</text>
</g>
<!-- Node6_1&#45;&gt;Node7_1 -->
<g id="edge7" class="edge">
<title>Node6_1&#45;&gt;Node7_1</title>
<path fill="none" stroke="black" d="M85.4,-305.34C94.3,-319.1 105.07,-335.74 112.97,-347.95"/>
<polygon fill="black" stroke="black" points="88.24,-303.29 79.87,-296.79 82.36,-307.09 88.24,-303.29"/>
<text text-anchor="middle" x="109" y="-318.8" font-family="Times,serif" font-size="14.00">कर्म</text>
</g>
<!-- Node9_1 -->
<g id="node3" class="node">
<title>Node9_1</title>
<ellipse fill="#87ceeb" stroke="#87ceeb" cx="208" cy="-105" rx="37.09" ry="18"/>
<text text-anchor="middle" x="208" y="-101.3" font-family="Times,serif" font-size="14.00">मे(9.1)</text>
</g>
<!-- Node10_1 -->
<g id="node4" class="node">
<title>Node10_1</title>
<ellipse fill="#87ceeb" stroke="#87ceeb" cx="208" cy="-192" rx="65.79" ry="18"/>
<text text-anchor="middle" x="208" y="-188.3" font-family="Times,serif" font-size="14.00">गान्धार्याः(10.1)</text>
</g>
<!-- Node9_1&#45;&gt;Node10_1 -->
<g id="edge10" class="edge">
<title>Node9_1&#45;&gt;Node10_1</title>
<path fill="none" stroke="black" d="M208,-133.27C208,-146.58 208,-162.19 208,-173.82"/>
<polygon fill="black" stroke="black" points="211.5,-133.2 208,-123.2 204.5,-133.2 211.5,-133.2"/>
<text text-anchor="middle" x="230.5" y="-144.8" font-family="Times,serif" font-size="14.00">समुच्चितः</text>
</g>
<!-- Node10_1&#45;&gt;Node6_1 -->
<g id="edge11" class="edge">
<title>Node10_1&#45;&gt;Node6_1</title>
<path fill="none" stroke="black" d="M173.73,-213.96C148.81,-229.2 115.67,-249.46 93.4,-263.08"/>
<polygon fill="black" stroke="black" points="175.8,-216.79 182.51,-208.59 172.15,-210.82 175.8,-216.79"/>
<text text-anchor="middle" x="174.5" y="-231.8" font-family="Times,serif" font-size="14.00">षष्ठीसम्बन्धः</text>
</g>
<!-- Node1_1 -->
<g id="node5" class="node">
<title>Node1_1</title>
<ellipse fill="#ffff00" stroke="#ffff00" cx="257" cy="-366" rx="46.59" ry="18"/>
<text text-anchor="middle" x="257" y="-362.3" font-family="Times,serif" font-size="14.00">राज&#45;(1.1)</text>
</g>
<!-- Node1_2 -->
<g id="node6" class="node">
<title>Node1_2</title>
<ellipse fill="#6fffc3" stroke="#6fffc3" cx="253" cy="-453" rx="43.59" ry="18"/>
<text text-anchor="middle" x="253" y="-449.3" font-family="Times,serif" font-size="14.00">इन्द्र(1.2)</text>
</g>
<!-- Node1_1&#45;&gt;Node1_2 -->
<g id="edge1" class="edge">
<title>Node1_1&#45;&gt;Node1_2</title>
<path fill="none" stroke="black" d="M255.72,-394.27C255.09,-407.58 254.36,-423.19 253.81,-434.82"/>
<polygon fill="black" stroke="black" points="259.22,-394.35 256.19,-384.2 252.22,-394.03 259.22,-394.35"/>
<text text-anchor="middle" x="273" y="-405.8" font-family="Times,serif" font-size="14.00">समासः</text>
</g>
<!-- Node14_1 -->
<g id="node7" class="node">
<title>Node14_1</title>
<ellipse fill="#ff1975" stroke="#ff1975" cx="253" cy="-540" rx="57.39" ry="18"/>
<text text-anchor="middle" x="253" y="-536.3" font-family="Times,serif" font-size="14.00">अर्हसि(14.1)</text>
</g>
<!-- Node1_2&#45;&gt;Node14_1 -->
<g id="edge2" class="edge">
<title>Node1_2&#45;&gt;Node14_1</title>
<path fill="none" stroke="black" d="M253,-481.27C253,-494.58 253,-510.19 253,-521.82"/>
<polygon fill="black" stroke="black" points="256.5,-481.2 253,-471.2 249.5,-481.2 256.5,-481.2"/>
<text text-anchor="middle" x="274" y="-492.8" font-family="Times,serif" font-size="14.00">सम्बोध्यः</text>
</g>
<!-- Node2_1 -->
<g id="node8" class="node">
<title>Node2_1</title>
<ellipse fill="#ff99ff" stroke="#ff99ff" cx="179" cy="-279" rx="43.59" ry="18"/>
<text text-anchor="middle" x="179" y="-275.3" font-family="Times,serif" font-size="14.00">अद्य(2.1)</text>
</g>
<!-- Node2_1&#45;&gt;Node7_1 -->
<g id="edge3" class="edge">
<title>Node2_1&#45;&gt;Node7_1</title>
<path fill="none" stroke="black" d="M162.6,-305.34C153.7,-319.1 142.93,-335.74 135.03,-347.95"/>
<polygon fill="black" stroke="black" points="165.64,-307.09 168.13,-296.79 159.76,-303.29 165.64,-307.09"/>
<text text-anchor="middle" x="190.5" y="-318.8" font-family="Times,serif" font-size="14.00">कालाधिकरणम्</text>
</g>
<!-- Node8_1 -->
<g id="node12" class="node">
<title>Node8_1</title>
<ellipse fill="#93db70" stroke="#93db70" cx="142" cy="-453" rx="42.49" ry="18"/>
<text text-anchor="middle" x="142" y="-449.3" font-family="Times,serif" font-size="14.00">तत्(8.1)</text>
</g>
<!-- Node7_1&#45;&gt;Node8_1 -->
<g id="edge8" class="edge">
<title>Node7_1&#45;&gt;Node8_1</title>
<path fill="none" stroke="black" d="M129.77,-394.27C132.59,-407.58 135.9,-423.19 138.36,-434.82"/>
<polygon fill="black" stroke="black" points="133.14,-393.26 127.64,-384.2 126.29,-394.71 133.14,-393.26"/>
<text text-anchor="middle" x="156" y="-405.8" font-family="Times,serif" font-size="14.00">प्रतियोगी</text>
</g>
<!-- Node3_1 -->
<g id="node10" class="node">
<title>Node3_1</title>
<ellipse fill="#87ceeb" stroke="#87ceeb" cx="390" cy="-192" rx="55.49" ry="18"/>
<text text-anchor="middle" x="390" y="-188.3" font-family="Times,serif" font-size="14.00">आत्मनः(3.1)</text>
</g>
<!-- Node3_1&#45;&gt;Node6_1 -->
<g id="edge4" class="edge">
<title>Node3_1&#45;&gt;Node6_1</title>
<path fill="none" stroke="black" d="M339.92,-207.25C303.01,-217.59 251.52,-231.7 206,-243 170.63,-251.78 161.26,-251.79 126,-261 119.21,-262.78 112,-264.81 105.08,-266.83"/>
<polygon fill="black" stroke="black" points="341.25,-210.51 349.93,-204.43 339.36,-203.77 341.25,-210.51"/>
<text text-anchor="middle" x="289.5" y="-231.8" font-family="Times,serif" font-size="14.00">षष्ठीसम्बन्धः</text>
</g>
<!-- Node4_1 -->
<g id="node11" class="node">
<title>Node4_1</title>
<ellipse fill="#ff99ff" stroke="#ff99ff" cx="433" cy="-105" rx="37.09" ry="18"/>
<text text-anchor="middle" x="433" y="-101.3" font-family="Times,serif" font-size="14.00">तु(4.1)</text>
</g>
<!-- Node4_1&#45;&gt;Node3_1 -->
<g id="edge5" class="edge">
<title>Node4_1&#45;&gt;Node3_1</title>
<path fill="none" stroke="black" d="M419.98,-131.74C413.06,-145.42 404.74,-161.86 398.62,-173.95"/>
<polygon fill="black" stroke="black" points="423.11,-133.3 424.5,-122.79 416.87,-130.14 423.11,-133.3"/>
<text text-anchor="middle" x="432.5" y="-144.8" font-family="Times,serif" font-size="14.00">सम्बन्धः</text>
</g>
<!-- Node8_1&#45;&gt;Node14_1 -->
<g id="edge9" class="edge">
<title>Node8_1&#45;&gt;Node14_1</title>
<path fill="none" stroke="black" d="M169.73,-475.23C189.07,-490.04 214.46,-509.49 232.1,-522.99"/>
<polygon fill="black" stroke="black" points="171.66,-472.3 161.59,-469 167.4,-477.86 171.66,-472.3"/>
<text text-anchor="middle" x="225" y="-492.8" font-family="Times,serif" font-size="14.00">अनुयोगी</text>
</g>
<!-- Node11_1 -->
<g id="node13" class="node">
<title>Node11_1</title>
<ellipse fill="#ff99ff" stroke="#ff99ff" cx="334" cy="-105" rx="43.59" ry="18"/>
<text text-anchor="middle" x="334" y="-101.3" font-family="Times,serif" font-size="14.00">च(11.1)</text>
</g>
<!-- Node11_1&#45;&gt;Node10_1 -->
<g id="edge12" class="edge">
<title>Node11_1&#45;&gt;Node10_1</title>
<path fill="none" stroke="black" d="M303.7,-126.44C281.66,-141.31 252.22,-161.17 231.84,-174.92"/>
<polygon fill="black" stroke="black" points="305.72,-129.3 312.05,-120.81 301.81,-123.5 305.72,-129.3"/>
<text text-anchor="middle" x="317" y="-144.8" font-family="Times,serif" font-size="14.00">समुच्चय_द्योतकः</text>
</g>
<!-- Node12_1 -->
<g id="node14" class="node">
<title>Node12_1</title>
<ellipse fill="#ff99ff" stroke="#ff99ff" cx="334" cy="-18" rx="47.39" ry="18"/>
<text text-anchor="middle" x="334" y="-14.3" font-family="Times,serif" font-size="14.00">एव(12.1)</text>
</g>
<!-- Node12_1&#45;&gt;Node11_1 -->
<g id="edge13" class="edge">
<title>Node12_1&#45;&gt;Node11_1</title>
<path fill="none" stroke="black" d="M334,-46.27C334,-59.58 334,-75.19 334,-86.82"/>
<polygon fill="black" stroke="black" points="337.5,-46.2 334,-36.2 330.5,-46.2 337.5,-46.2"/>
<text text-anchor="middle" x="352.5" y="-57.8" font-family="Times,serif" font-size="14.00">सम्बन्धः</text>
</g>
<!-- Node13_1 -->
<g id="node15" class="node">
<title>Node13_1</title>
<ellipse fill="#ff99ff" stroke="#ff99ff" cx="381" cy="-453" rx="66.89" ry="18"/>
<text text-anchor="middle" x="381" y="-449.3" font-family="Times,serif" font-size="14.00">अनुज्ञातुम्(13.1)</text>
</g>
<!-- Node13_1&#45;&gt;Node14_1 -->
<g id="edge14" class="edge">
<title>Node13_1&#45;&gt;Node14_1</title>
<path fill="none" stroke="black" d="M348.39,-475.65C325.97,-490.55 296.71,-509.98 276.54,-523.37"/>
<polygon fill="black" stroke="black" points="350.53,-478.44 356.92,-469.99 346.66,-472.6 350.53,-478.44"/>
<text text-anchor="middle" x="356" y="-492.8" font-family="Times,serif" font-size="14.00">सहायकक्रिया</text>
</g>
<!-- Node7 -->
<g id="node16" class="node">
<title>Node7</title>
<ellipse fill="lightgrey" stroke="black" cx="426" cy="-18" rx="27" ry="18"/>
</g>
</g>
</svg>
