<?xml version="1.0" encoding="UTF-8" standalone="no"?>
<!DOCTYPE svg PUBLIC "-//W3C//DTD SVG 1.1//EN"
 "http://www.w3.org/Graphics/SVG/1.1/DTD/svg11.dtd">
<!-- Generated by graphviz version 2.43.0 (0)
 -->
<!-- Title: G Pages: 1 -->
<svg width="1172pt" height="234pt"
 viewBox="0.00 0.00 1172.44 234.00" xmlns="http://www.w3.org/2000/svg" xmlns:xlink="http://www.w3.org/1999/xlink">
<g id="graph0" class="graph" transform="scale(1 1) rotate(0) translate(4 230)">
<title>G</title>
<polygon fill="#fffacd" stroke="transparent" points="-4,4 -4,-230 1168.44,-230 1168.44,4 -4,4"/>
<g id="clust1" class="cluster">
<title>cluster_1</title>
<polygon fill="#fffacd" stroke="black" points="327.85,-8 327.85,-147 455.85,-147 455.85,-8 327.85,-8"/>
</g>
<!-- Node5_1 -->
<g id="node1" class="node">
<title>Node5_1</title>
<ellipse fill="#00bfff" stroke="#00bfff" cx="391.85" cy="-34" rx="44.69" ry="18"/>
<text text-anchor="middle" x="391.85" y="-30.3" font-family="Times,serif" font-size="14.00">सर्वः(5.1)</text>
</g>
<!-- Node6_1 -->
<g id="node2" class="node">
<title>Node6_1</title>
<ellipse fill="#00bfff" stroke="#00bfff" cx="391.85" cy="-121" rx="55.79" ry="18"/>
<text text-anchor="middle" x="391.85" y="-117.3" font-family="Times,serif" font-size="14.00">परिजनः(6.1)</text>
</g>
<!-- Node5_1&#45;&gt;Node6_1 -->
<g id="edge5" class="edge">
<title>Node5_1&#45;&gt;Node6_1</title>
<path fill="none" stroke="black" d="M391.85,-62.27C391.85,-75.58 391.85,-91.19 391.85,-102.82"/>
<polygon fill="black" stroke="black" points="395.35,-62.2 391.85,-52.2 388.35,-62.2 395.35,-62.2"/>
<text text-anchor="middle" x="414.35" y="-73.8" font-family="Times,serif" font-size="14.00">विशेषणम्</text>
</g>
<!-- Node7_2 -->
<g id="node4" class="node">
<title>Node7_2</title>
<ellipse fill="#ff1975" stroke="#ff1975" cx="228.85" cy="-208" rx="51.99" ry="18"/>
<text text-anchor="middle" x="228.85" y="-204.3" font-family="Times,serif" font-size="14.00">(वेत्ति)(7.2)</text>
</g>
<!-- Node6_1&#45;&gt;Node7_2 -->
<g id="edge7" class="edge">
<title>Node6_1&#45;&gt;Node7_2</title>
<path fill="none" stroke="black" stroke-dasharray="1,5" d="M354.95,-141.24C325.06,-156.83 283.59,-178.45 256.5,-192.58"/>
<polygon fill="black" stroke="black" points="356.58,-144.34 363.83,-136.61 353.34,-138.13 356.58,-144.34"/>
<text text-anchor="middle" x="330.85" y="-160.8" font-family="Times,serif" font-size="14.00">कर्ता</text>
</g>
<!-- Node9_1 -->
<g id="node8" class="node">
<title>Node9_1</title>
<ellipse fill="#ff1975" stroke="#ff1975" cx="611.85" cy="-208" rx="63.89" ry="18"/>
<text text-anchor="middle" x="611.85" y="-204.3" font-family="Times,serif" font-size="14.00">(वेत्ति)एति(9.1)</text>
</g>
<!-- Node6_1&#45;&gt;Node9_1 -->
<g id="edge6" class="edge">
<title>Node6_1&#45;&gt;Node9_1</title>
<path fill="none" stroke="black" d="M435.71,-138.95C476.83,-154.83 537.55,-178.3 575.89,-193.11"/>
<polygon fill="black" stroke="black" points="436.81,-135.62 426.22,-135.28 434.29,-142.15 436.81,-135.62"/>
<text text-anchor="middle" x="525.85" y="-160.8" font-family="Times,serif" font-size="14.00">कर्ता</text>
</g>
<!-- Node1_1 -->
<g id="node3" class="node">
<title>Node1_1</title>
<ellipse fill="#ff1975" stroke="#ff1975" cx="159.85" cy="-121" rx="51.99" ry="18"/>
<text text-anchor="middle" x="159.85" y="-117.3" font-family="Times,serif" font-size="14.00">करोति(1.1)</text>
</g>
<!-- Node1_1&#45;&gt;Node7_2 -->
<g id="edge1" class="edge">
<title>Node1_1&#45;&gt;Node7_2</title>
<path fill="none" stroke="black" d="M179.87,-146.67C191.32,-160.77 205.37,-178.08 215.48,-190.53"/>
<polygon fill="black" stroke="black" points="182.5,-144.35 173.48,-138.79 177.06,-148.76 182.5,-144.35"/>
<text text-anchor="middle" x="220.35" y="-160.8" font-family="Times,serif" font-size="14.00">वाक्यकर्म</text>
</g>
<!-- Node2_1 -->
<g id="node5" class="node">
<title>Node2_1</title>
<ellipse fill="#93db70" stroke="#93db70" cx="211.85" cy="-34" rx="55.79" ry="18"/>
<text text-anchor="middle" x="211.85" y="-30.3" font-family="Times,serif" font-size="14.00">आहारम्(2.1)</text>
</g>
<!-- Node2_1&#45;&gt;Node1_1 -->
<g id="edge2" class="edge">
<title>Node2_1&#45;&gt;Node1_1</title>
<path fill="none" stroke="black" d="M196.31,-60.4C187.83,-74.26 177.57,-91.03 170.1,-103.24"/>
<polygon fill="black" stroke="black" points="199.34,-62.15 201.57,-51.79 193.37,-58.5 199.34,-62.15"/>
<text text-anchor="middle" x="198.85" y="-73.8" font-family="Times,serif" font-size="14.00">कर्म</text>
</g>
<!-- Node3_1 -->
<g id="node6" class="node">
<title>Node3_1</title>
<ellipse fill="#ff99ff" stroke="#ff99ff" cx="93.85" cy="-34" rx="44.39" ry="18"/>
<text text-anchor="middle" x="93.85" y="-30.3" font-family="Times,serif" font-size="14.00">इति(3.1)</text>
</g>
<!-- Node3_1&#45;&gt;Node1_1 -->
<g id="edge3" class="edge">
<title>Node3_1&#45;&gt;Node1_1</title>
<path fill="none" stroke="black" d="M90.72,-61.99C91.01,-69.91 92.59,-78.25 96.85,-85 103.18,-95.06 113.49,-102.47 123.95,-107.82"/>
<polygon fill="black" stroke="black" points="94.22,-62.08 90.97,-51.99 87.22,-61.9 94.22,-62.08"/>
<text text-anchor="middle" x="137.85" y="-73.8" font-family="Times,serif" font-size="14.00">वाक्यकर्म_द्योतकः</text>
</g>
<!-- Node4_1 -->
<g id="node7" class="node">
<title>Node4_1</title>
<ellipse fill="#93db70" stroke="#93db70" cx="273.85" cy="-121" rx="44.39" ry="18"/>
<text text-anchor="middle" x="273.85" y="-117.3" font-family="Times,serif" font-size="14.00">माम्(4.1)</text>
</g>
<!-- Node4_1&#45;&gt;Node7_2 -->
<g id="edge4" class="edge">
<title>Node4_1&#45;&gt;Node7_2</title>
<path fill="none" stroke="black" d="M260.19,-147.8C252.89,-161.58 244.12,-178.14 237.72,-190.24"/>
<polygon fill="black" stroke="black" points="263.37,-149.27 264.96,-138.79 257.18,-145.99 263.37,-149.27"/>
<text text-anchor="middle" x="263.85" y="-160.8" font-family="Times,serif" font-size="14.00">कर्म</text>
</g>
<!-- Node7_1 -->
<g id="node9" class="node">
<title>Node7_1</title>
<ellipse fill="#ff99ff" stroke="#ff99ff" cx="44.85" cy="-121" rx="44.69" ry="18"/>
<text text-anchor="middle" x="44.85" y="-117.3" font-family="Times,serif" font-size="14.00">सदा(7.1)</text>
</g>
<!-- Node7_1&#45;&gt;Node7_2 -->
<g id="edge8" class="edge">
<title>Node7_1&#45;&gt;Node7_2</title>
<path fill="none" stroke="black" d="M71.35,-143.67C84.2,-153.36 100.2,-164.31 115.85,-172 138.33,-183.06 165.05,-191.52 186.86,-197.36"/>
<polygon fill="black" stroke="black" points="73.46,-140.87 63.41,-137.53 69.18,-146.41 73.46,-140.87"/>
<text text-anchor="middle" x="151.35" y="-160.8" font-family="Times,serif" font-size="14.00">कालाधिकरणम्</text>
</g>
<!-- Node8_1 -->
<g id="node10" class="node">
<title>Node8_1</title>
<ellipse fill="#ffff00" stroke="#ffff00" cx="521.85" cy="-34" rx="58.49" ry="18"/>
<text text-anchor="middle" x="521.85" y="-30.3" font-family="Times,serif" font-size="14.00">युधिष्ठिर&#45;(8.1)</text>
</g>
<!-- Node8_2 -->
<g id="node11" class="node">
<title>Node8_2</title>
<ellipse fill="#b4ffb4" stroke="#b4ffb4" cx="518.85" cy="-121" rx="50.09" ry="18"/>
<text text-anchor="middle" x="518.85" y="-117.3" font-family="Times,serif" font-size="14.00">भयात्(8.2)</text>
</g>
<!-- Node8_1&#45;&gt;Node8_2 -->
<g id="edge9" class="edge">
<title>Node8_1&#45;&gt;Node8_2</title>
<path fill="none" stroke="black" d="M520.88,-62.27C520.41,-75.58 519.86,-91.19 519.45,-102.82"/>
<polygon fill="black" stroke="black" points="524.38,-62.32 521.24,-52.2 517.39,-62.07 524.38,-62.32"/>
<text text-anchor="middle" x="536.85" y="-73.8" font-family="Times,serif" font-size="14.00">समासः</text>
</g>
<!-- Node8_2&#45;&gt;Node9_1 -->
<g id="edge10" class="edge">
<title>Node8_2&#45;&gt;Node9_1</title>
<path fill="none" stroke="black" d="M544.13,-145.11C559.84,-159.47 579.67,-177.59 593.8,-190.5"/>
<polygon fill="black" stroke="black" points="546.08,-142.15 536.34,-137.99 541.36,-147.32 546.08,-142.15"/>
<text text-anchor="middle" x="580.35" y="-160.8" font-family="Times,serif" font-size="14.00">हेतुः</text>
</g>
<!-- Node10_1 -->
<g id="node12" class="node">
<title>Node10_1</title>
<ellipse fill="#93db70" stroke="#93db70" cx="643.85" cy="-121" rx="57.39" ry="18"/>
<text text-anchor="middle" x="643.85" y="-117.3" font-family="Times,serif" font-size="14.00">(माम्)(10.1)</text>
</g>
<!-- Node10_1&#45;&gt;Node9_1 -->
<g id="edge11" class="edge">
<title>Node10_1&#45;&gt;Node9_1</title>
<path fill="none" stroke="black" d="M633.73,-148.87C628.69,-162.27 622.73,-178.08 618.31,-189.82"/>
<polygon fill="black" stroke="black" points="637.12,-149.79 637.37,-139.2 630.57,-147.33 637.12,-149.79"/>
<text text-anchor="middle" x="637.85" y="-160.8" font-family="Times,serif" font-size="14.00">कर्म</text>
</g>
<!-- Node11_1 -->
<g id="node13" class="node">
<title>Node11_1</title>
<ellipse fill="#00bfff" stroke="#00bfff" cx="822.85" cy="-34" rx="61.19" ry="18"/>
<text text-anchor="middle" x="822.85" y="-30.3" font-family="Times,serif" font-size="14.00">पाण्डवः(11.1)</text>
</g>
<!-- Node12_1 -->
<g id="node14" class="node">
<title>Node12_1</title>
<ellipse fill="#93db70" stroke="#93db70" cx="956.85" cy="-121" rx="54.69" ry="18"/>
<text text-anchor="middle" x="956.85" y="-117.3" font-family="Times,serif" font-size="14.00">भृशम्(12.1)</text>
</g>
<!-- Node11_1&#45;&gt;Node12_1 -->
<g id="edge12" class="edge">
<title>Node11_1&#45;&gt;Node12_1</title>
<path fill="none" stroke="black" d="M856.14,-56.12C879.97,-71.24 911.49,-91.23 932.88,-104.79"/>
<polygon fill="black" stroke="black" points="857.74,-52.99 847.42,-50.59 853.99,-58.9 857.74,-52.99"/>
<text text-anchor="middle" x="908.85" y="-73.8" font-family="Times,serif" font-size="14.00">कर्ता</text>
</g>
<!-- Node12_1&#45;&gt;Node12_1 -->
<g id="edge13" class="edge">
<title>Node12_1&#45;&gt;Node12_1</title>
<path fill="none" stroke="black" d="M1016.09,-114.01C1024.1,-115.18 1029.44,-117.51 1029.44,-121 1029.44,-125.8 1019.33,-128.4 1006.04,-128.82"/>
<polygon fill="black" stroke="black" points="1016.3,-110.52 1006.04,-113.18 1015.72,-117.5 1016.3,-110.52"/>
<text text-anchor="middle" x="1064.44" y="-117.3" font-family="Times,serif" font-size="14.00">क्रियाविशेषणम्</text>
</g>
<!-- Node13_1 -->
<g id="node15" class="node">
<title>Node13_1</title>
<ellipse fill="#ff1975" stroke="#ff1975" cx="801.85" cy="-121" rx="82.59" ry="18"/>
<text text-anchor="middle" x="801.85" y="-117.3" font-family="Times,serif" font-size="14.00">तप्यति(तप्यते)(13.1)</text>
</g>
<!-- Node13_1&#45;&gt;Node9_1 -->
<g id="edge14" class="edge">
<title>Node13_1&#45;&gt;Node9_1</title>
<path fill="none" stroke="black" stroke-dasharray="1,5" d="M758.03,-141.6C723.37,-157.11 675.75,-178.41 644.41,-192.43"/>
<polygon fill="black" stroke="black" points="759.74,-144.67 767.44,-137.39 756.88,-138.28 759.74,-144.67"/>
<text text-anchor="middle" x="727.35" y="-160.8" font-family="Times,serif" font-size="14.00">हेतुः</text>
</g>
<!-- Node14_1 -->
<g id="node16" class="node">
<title>Node14_1</title>
<ellipse fill="#87ceeb" stroke="#87ceeb" cx="956.85" cy="-34" rx="54.69" ry="18"/>
<text text-anchor="middle" x="956.85" y="-30.3" font-family="Times,serif" font-size="14.00">(मम)(14.1)</text>
</g>
<!-- Node14_1&#45;&gt;Node12_1 -->
<g id="edge15" class="edge">
<title>Node14_1&#45;&gt;Node12_1</title>
<path fill="none" stroke="black" d="M956.85,-62.27C956.85,-75.58 956.85,-91.19 956.85,-102.82"/>
<polygon fill="black" stroke="black" points="960.35,-62.2 956.85,-52.2 953.35,-62.2 960.35,-62.2"/>
<text text-anchor="middle" x="975.35" y="-73.8" font-family="Times,serif" font-size="14.00">सम्बन्धः</text>
</g>
<!-- Node15_1 -->
<g id="node17" class="node">
<title>Node15_1</title>
<ellipse fill="#40e0d0" stroke="#40e0d0" cx="1096.85" cy="-34" rx="67.69" ry="18"/>
<text text-anchor="middle" x="1096.85" y="-30.3" font-family="Times,serif" font-size="14.00">(चिन्तया)(15.1)</text>
</g>
<!-- Node15_1&#45;&gt;Node12_1 -->
<g id="edge16" class="edge">
<title>Node15_1&#45;&gt;Node12_1</title>
<path fill="none" stroke="black" d="M1062.05,-56.12C1037.11,-71.27 1004.11,-91.3 981.77,-104.87"/>
<polygon fill="black" stroke="black" points="1064.11,-58.97 1070.84,-50.79 1060.48,-52.99 1064.11,-58.97"/>
<text text-anchor="middle" x="1044.35" y="-73.8" font-family="Times,serif" font-size="14.00">हेतुः</text>
</g>
</g>
</svg>
