<?xml version="1.0" encoding="UTF-8" standalone="no"?>
<!DOCTYPE svg PUBLIC "-//W3C//DTD SVG 1.1//EN"
 "http://www.w3.org/Graphics/SVG/1.1/DTD/svg11.dtd">
<!-- Generated by graphviz version 2.43.0 (0)
 -->
<!-- Title: G Pages: 1 -->
<svg width="709pt" height="321pt"
 viewBox="0.00 0.00 709.24 321.00" xmlns="http://www.w3.org/2000/svg" xmlns:xlink="http://www.w3.org/1999/xlink">
<g id="graph0" class="graph" transform="scale(1 1) rotate(0) translate(4 317)">
<title>G</title>
<polygon fill="#fffacd" stroke="transparent" points="-4,4 -4,-317 705.24,-317 705.24,4 -4,4"/>
<g id="clust1" class="cluster">
<title>cluster_1</title>
<polygon fill="#fffacd" stroke="black" points="330.24,-95 330.24,-234 693.24,-234 693.24,-95 330.24,-95"/>
</g>
<g id="clust2" class="cluster">
<title>cluster_2</title>
<polygon fill="#fffacd" stroke="black" points="325.24,-8 325.24,-60 445.24,-60 445.24,-8 325.24,-8"/>
</g>
<!-- Node1 -->
<g id="node1" class="node">
<title>Node1</title>
<ellipse fill="#00bfff" stroke="#00bfff" cx="625.24" cy="-121" rx="60.39" ry="18"/>
<text text-anchor="middle" x="625.24" y="-117.3" font-family="Times,serif" font-size="14.00">अजिनसंवृतः(1)</text>
</g>
<!-- Node10 -->
<g id="node2" class="node">
<title>Node10</title>
<ellipse fill="#00bfff" stroke="#00bfff" cx="392.24" cy="-208" rx="51.99" ry="18"/>
<text text-anchor="middle" x="392.24" y="-204.3" font-family="Times,serif" font-size="14.00">(अहम्)(10)</text>
</g>
<!-- Node1&#45;&gt;Node10 -->
<g id="edge1" class="edge">
<title>Node1&#45;&gt;Node10</title>
<path fill="none" stroke="black" d="M583.74,-140.22C560.55,-150.13 531.01,-162.31 504.24,-172 480.11,-180.74 452.6,-189.35 430.88,-195.85"/>
<polygon fill="black" stroke="black" points="585.13,-143.43 592.94,-136.27 582.37,-137 585.13,-143.43"/>
<text text-anchor="middle" x="562.74" y="-160.8" font-family="Times,serif" font-size="14.00">विशेषणम्</text>
</g>
<!-- Node9 -->
<g id="node8" class="node">
<title>Node9</title>
<ellipse fill="#ff1975" stroke="#ff1975" cx="237.24" cy="-295" rx="34.39" ry="18"/>
<text text-anchor="middle" x="237.24" y="-291.3" font-family="Times,serif" font-size="14.00">शये(9)</text>
</g>
<!-- Node10&#45;&gt;Node9 -->
<g id="edge9" class="edge">
<title>Node10&#45;&gt;Node9</title>
<path fill="none" stroke="black" d="M370.18,-232.84C360.73,-241.98 349.14,-251.91 337.24,-259 315.59,-271.9 288.48,-281.01 267.95,-286.7"/>
<polygon fill="black" stroke="black" points="372.67,-235.29 377.26,-225.74 367.72,-230.34 372.67,-235.29"/>
<text text-anchor="middle" x="367.24" y="-247.8" font-family="Times,serif" font-size="14.00">कर्ता</text>
</g>
<!-- Node2 -->
<g id="node3" class="node">
<title>Node2</title>
<ellipse fill="#00bfff" stroke="#00bfff" cx="498.24" cy="-121" rx="48.19" ry="18"/>
<text text-anchor="middle" x="498.24" y="-117.3" font-family="Times,serif" font-size="14.00">जप्यपरः(2)</text>
</g>
<!-- Node2&#45;&gt;Node10 -->
<g id="edge2" class="edge">
<title>Node2&#45;&gt;Node10</title>
<path fill="none" stroke="black" d="M471.64,-144.06C460.99,-152.82 448.58,-162.94 437.24,-172 429.36,-178.3 420.61,-185.14 412.94,-191.08"/>
<polygon fill="black" stroke="black" points="473.9,-146.73 479.39,-137.67 469.44,-141.33 473.9,-146.73"/>
<text text-anchor="middle" x="477.74" y="-160.8" font-family="Times,serif" font-size="14.00">विशेषणम्</text>
</g>
<!-- Node4 -->
<g id="node4" class="node">
<title>Node4</title>
<ellipse fill="#00bfff" stroke="#00bfff" cx="385.24" cy="-121" rx="46.59" ry="18"/>
<text text-anchor="middle" x="385.24" y="-117.3" font-family="Times,serif" font-size="14.00">गान्धारी(4)</text>
</g>
<!-- Node4&#45;&gt;Node10 -->
<g id="edge4" class="edge">
<title>Node4&#45;&gt;Node10</title>
<path fill="none" stroke="black" d="M387.49,-149.27C388.59,-162.58 389.87,-178.19 390.83,-189.82"/>
<polygon fill="black" stroke="black" points="390.97,-148.88 386.66,-139.2 383.99,-149.45 390.97,-148.88"/>
<text text-anchor="middle" x="410.74" y="-160.8" font-family="Times,serif" font-size="14.00">समुच्चितः</text>
</g>
<!-- Node3 -->
<g id="node5" class="node">
<title>Node3</title>
<ellipse fill="#00bfff" stroke="#00bfff" cx="385.24" cy="-34" rx="51.99" ry="18"/>
<text text-anchor="middle" x="385.24" y="-30.3" font-family="Times,serif" font-size="14.00">यशस्विनी(3)</text>
</g>
<!-- Node3&#45;&gt;Node4 -->
<g id="edge3" class="edge">
<title>Node3&#45;&gt;Node4</title>
<path fill="none" stroke="black" d="M385.24,-62.27C385.24,-75.58 385.24,-91.19 385.24,-102.82"/>
<polygon fill="black" stroke="black" points="388.74,-62.2 385.24,-52.2 381.74,-62.2 388.74,-62.2"/>
<text text-anchor="middle" x="407.74" y="-73.8" font-family="Times,serif" font-size="14.00">विशेषणम्</text>
</g>
<!-- Node5 -->
<g id="node6" class="node">
<title>Node5</title>
<ellipse fill="#ff99ff" stroke="#ff99ff" cx="292.24" cy="-121" rx="28.7" ry="18"/>
<text text-anchor="middle" x="292.24" y="-117.3" font-family="Times,serif" font-size="14.00">च(5)</text>
</g>
<!-- Node5&#45;&gt;Node10 -->
<g id="edge5" class="edge">
<title>Node5&#45;&gt;Node10</title>
<path fill="none" stroke="black" d="M296.38,-149.09C298.74,-157.23 302.44,-165.68 308.24,-172 319.25,-183.99 335,-191.99 349.89,-197.28"/>
<polygon fill="black" stroke="black" points="299.73,-148.06 294.05,-139.11 292.91,-149.65 299.73,-148.06"/>
<text text-anchor="middle" x="346.24" y="-160.8" font-family="Times,serif" font-size="14.00">समुच्चय_द्योतकः</text>
</g>
<!-- Node6 -->
<g id="node7" class="node">
<title>Node6</title>
<ellipse fill="#40e0d0" stroke="#40e0d0" cx="68.24" cy="-208" rx="68.49" ry="18"/>
<text text-anchor="middle" x="68.24" y="-204.3" font-family="Times,serif" font-size="14.00">नियमव्यपदेशेन(6)</text>
</g>
<!-- Node6&#45;&gt;Node9 -->
<g id="edge6" class="edge">
<title>Node6&#45;&gt;Node9</title>
<path fill="none" stroke="black" d="M107.74,-228.87C140.45,-245.31 185.85,-268.15 213.3,-281.96"/>
<polygon fill="black" stroke="black" points="108.96,-225.56 98.46,-224.2 105.82,-231.82 108.96,-225.56"/>
<text text-anchor="middle" x="172.74" y="-247.8" font-family="Times,serif" font-size="14.00">हेतुः</text>
</g>
<!-- Node7 -->
<g id="node9" class="node">
<title>Node7</title>
<ellipse fill="#c6e2eb" stroke="#c6e2eb" cx="191.24" cy="-208" rx="36.29" ry="18"/>
<text text-anchor="middle" x="191.24" y="-204.3" font-family="Times,serif" font-size="14.00">भूमौ(7)</text>
</g>
<!-- Node7&#45;&gt;Node9 -->
<g id="edge7" class="edge">
<title>Node7&#45;&gt;Node9</title>
<path fill="none" stroke="black" d="M191.6,-236.18C192.6,-243.9 194.56,-252.09 198.24,-259 202.6,-267.19 209.68,-274.41 216.62,-280.13"/>
<polygon fill="black" stroke="black" points="195.08,-235.78 190.77,-226.1 188.1,-236.36 195.08,-235.78"/>
<text text-anchor="middle" x="230.24" y="-247.8" font-family="Times,serif" font-size="14.00">देशाधिकरणम्</text>
</g>
<!-- Node8 -->
<g id="node10" class="node">
<title>Node8</title>
<ellipse fill="#c6e2eb" stroke="#c6e2eb" cx="284.24" cy="-208" rx="38.19" ry="18"/>
<text text-anchor="middle" x="284.24" y="-204.3" font-family="Times,serif" font-size="14.00">दर्भेषु(8)</text>
</g>
<!-- Node8&#45;&gt;Node9 -->
<g id="edge8" class="edge">
<title>Node8&#45;&gt;Node9</title>
<path fill="none" stroke="black" d="M273.81,-235.45C270.44,-243.2 266.47,-251.58 262.24,-259 258.55,-265.49 253.93,-272.25 249.67,-278.08"/>
<polygon fill="black" stroke="black" points="277.1,-236.66 277.75,-226.09 270.65,-233.95 277.1,-236.66"/>
<text text-anchor="middle" x="301.24" y="-247.8" font-family="Times,serif" font-size="14.00">देशाधिकरणम्</text>
</g>
</g>
</svg>
