<?xml version="1.0" encoding="UTF-8" standalone="no"?>
<!DOCTYPE svg PUBLIC "-//W3C//DTD SVG 1.1//EN"
 "http://www.w3.org/Graphics/SVG/1.1/DTD/svg11.dtd">
<!-- Generated by graphviz version 2.43.0 (0)
 -->
<!-- Title: G Pages: 1 -->
<svg width="814pt" height="321pt"
 viewBox="0.00 0.00 813.79 321.00" xmlns="http://www.w3.org/2000/svg" xmlns:xlink="http://www.w3.org/1999/xlink">
<g id="graph0" class="graph" transform="scale(1 1) rotate(0) translate(4 317)">
<title>G</title>
<polygon fill="#fffacd" stroke="transparent" points="-4,4 -4,-317 809.79,-317 809.79,4 -4,4"/>
<g id="clust1" class="cluster">
<title>cluster_1</title>
<polygon fill="#fffacd" stroke="black" points="228.69,-8 228.69,-147 320.69,-147 320.69,-8 228.69,-8"/>
</g>
<!-- Node7 -->
<g id="node1" class="node">
<title>Node7</title>
<ellipse fill="#93db70" stroke="#93db70" cx="274.69" cy="-34" rx="33.29" ry="18"/>
<text text-anchor="middle" x="274.69" y="-30.3" font-family="Times,serif" font-size="14.00">तत्(7)</text>
</g>
<!-- Node8 -->
<g id="node2" class="node">
<title>Node8</title>
<ellipse fill="#93db70" stroke="#93db70" cx="274.69" cy="-121" rx="38.19" ry="18"/>
<text text-anchor="middle" x="274.69" y="-117.3" font-family="Times,serif" font-size="14.00">सर्वम्(8)</text>
</g>
<!-- Node7&#45;&gt;Node8 -->
<g id="edge7" class="edge">
<title>Node7&#45;&gt;Node8</title>
<path fill="none" stroke="black" d="M274.69,-62.27C274.69,-75.58 274.69,-91.19 274.69,-102.82"/>
<polygon fill="black" stroke="black" points="278.19,-62.2 274.69,-52.2 271.19,-62.2 278.19,-62.2"/>
<text text-anchor="middle" x="297.19" y="-73.8" font-family="Times,serif" font-size="14.00">विशेषणम्</text>
</g>
<!-- Node4 -->
<g id="node8" class="node">
<title>Node4</title>
<ellipse fill="#00bfff" stroke="#00bfff" cx="562.69" cy="-121" rx="38.19" ry="18"/>
<text text-anchor="middle" x="562.69" y="-117.3" font-family="Times,serif" font-size="14.00">एतत्(4)</text>
</g>
<!-- Node7&#45;&gt;Node4 -->
<g id="edge8" class="edge">
<title>Node7&#45;&gt;Node4</title>
<path fill="none" stroke="black" stroke-dasharray="1,5" d="M314.17,-45.2C362.12,-57.81 445.32,-80.38 515.69,-103 521.56,-104.89 527.79,-107.03 533.72,-109.15"/>
<polygon fill="black" stroke="black" points="314.77,-41.74 304.2,-42.59 312.99,-48.51 314.77,-41.74"/>
<text text-anchor="middle" x="474.19" y="-73.8" font-family="Times,serif" font-size="14.00">सम्बन्धः</text>
</g>
<!-- Node10 -->
<g id="node10" class="node">
<title>Node10</title>
<ellipse fill="#b4ffb4" stroke="#b4ffb4" cx="330.69" cy="-208" rx="59.29" ry="18"/>
<text text-anchor="middle" x="330.69" y="-204.3" font-family="Times,serif" font-size="14.00">अपराधात्(10)</text>
</g>
<!-- Node8&#45;&gt;Node10 -->
<g id="edge9" class="edge">
<title>Node8&#45;&gt;Node10</title>
<path fill="none" stroke="black" d="M291.16,-146.99C300.3,-160.87 311.43,-177.76 319.55,-190.08"/>
<polygon fill="black" stroke="black" points="293.91,-144.81 285.49,-138.39 288.07,-148.67 293.91,-144.81"/>
<text text-anchor="middle" x="316.69" y="-160.8" font-family="Times,serif" font-size="14.00">कर्ता</text>
</g>
<!-- Node1 -->
<g id="node3" class="node">
<title>Node1</title>
<ellipse fill="#00bfff" stroke="#00bfff" cx="757.69" cy="-121" rx="48.19" ry="18"/>
<text text-anchor="middle" x="757.69" y="-117.3" font-family="Times,serif" font-size="14.00">कुरुक्षयः(1)</text>
</g>
<!-- Node2_1 -->
<g id="node4" class="node">
<title>Node2_1</title>
<ellipse fill="#ff1975" stroke="#ff1975" cx="655.69" cy="-208" rx="49.29" ry="18"/>
<text text-anchor="middle" x="655.69" y="-204.3" font-family="Times,serif" font-size="14.00">अभूत्(2.1)</text>
</g>
<!-- Node1&#45;&gt;Node2_1 -->
<g id="edge1" class="edge">
<title>Node1&#45;&gt;Node2_1</title>
<path fill="none" stroke="black" d="M747.49,-148.21C743.26,-156.6 737.68,-165.41 730.69,-172 719.72,-182.35 705.13,-190.1 691.74,-195.64"/>
<polygon fill="black" stroke="black" points="750.7,-149.61 751.69,-139.06 744.34,-146.69 750.7,-149.61"/>
<text text-anchor="middle" x="752.69" y="-160.8" font-family="Times,serif" font-size="14.00">कर्ता</text>
</g>
<!-- Node2 -->
<g id="node5" class="node">
<title>Node2</title>
<ellipse fill="#00bfff" stroke="#00bfff" cx="655.69" cy="-121" rx="36.29" ry="18"/>
<text text-anchor="middle" x="655.69" y="-117.3" font-family="Times,serif" font-size="14.00">वृत्तः(2)</text>
</g>
<!-- Node2&#45;&gt;Node2_1 -->
<g id="edge2" class="edge">
<title>Node2&#45;&gt;Node2_1</title>
<path fill="none" stroke="black" d="M655.69,-149.27C655.69,-162.58 655.69,-178.19 655.69,-189.82"/>
<polygon fill="black" stroke="black" points="659.19,-149.2 655.69,-139.2 652.19,-149.2 659.19,-149.2"/>
<text text-anchor="middle" x="691.19" y="-160.8" font-family="Times,serif" font-size="14.00">विधेयविशेषणम्</text>
</g>
<!-- Node3 -->
<g id="node6" class="node">
<title>Node3</title>
<ellipse fill="#87ceeb" stroke="#87ceeb" cx="460.69" cy="-121" rx="46.29" ry="18"/>
<text text-anchor="middle" x="460.69" y="-117.3" font-family="Times,serif" font-size="14.00">भवताम्(3)</text>
</g>
<!-- Node6 -->
<g id="node7" class="node">
<title>Node6</title>
<ellipse fill="#93db70" stroke="#93db70" cx="486.69" cy="-208" rx="46.59" ry="18"/>
<text text-anchor="middle" x="486.69" y="-204.3" font-family="Times,serif" font-size="14.00">विदितम्(6)</text>
</g>
<!-- Node3&#45;&gt;Node6 -->
<g id="edge3" class="edge">
<title>Node3&#45;&gt;Node6</title>
<path fill="none" stroke="black" d="M462.7,-149.13C463.73,-156.66 465.31,-164.76 467.69,-172 469.77,-178.3 472.96,-184.8 476.14,-190.46"/>
<polygon fill="black" stroke="black" points="466.16,-148.55 461.56,-139.01 459.2,-149.34 466.16,-148.55"/>
<text text-anchor="middle" x="478.69" y="-160.8" font-family="Times,serif" font-size="14.00">कर्ता</text>
</g>
<!-- Node4&#45;&gt;Node2_1 -->
<g id="edge5" class="edge">
<title>Node4&#45;&gt;Node2_1</title>
<path fill="none" stroke="black" stroke-dasharray="1,5" d="M585.8,-144.79C594.72,-153.43 605.07,-163.28 614.69,-172 621.77,-178.41 629.71,-185.27 636.71,-191.2"/>
<polygon fill="black" stroke="black" points="588,-142.04 578.39,-137.57 583.11,-147.05 588,-142.04"/>
<text text-anchor="middle" x="633.19" y="-160.8" font-family="Times,serif" font-size="14.00">सम्बन्धः</text>
</g>
<!-- Node4&#45;&gt;Node6 -->
<g id="edge4" class="edge">
<title>Node4&#45;&gt;Node6</title>
<path fill="none" stroke="black" d="M537.68,-143.87C533.22,-148.09 528.71,-152.58 524.69,-157 515.16,-167.48 505.5,-180.21 498.32,-190.21"/>
<polygon fill="black" stroke="black" points="540.07,-146.42 545.05,-137.07 535.33,-141.27 540.07,-146.42"/>
<text text-anchor="middle" x="546.19" y="-160.8" font-family="Times,serif" font-size="14.00">वाक्यकर्म</text>
</g>
<!-- Node5 -->
<g id="node9" class="node">
<title>Node5</title>
<ellipse fill="#ff99ff" stroke="#ff99ff" cx="655.69" cy="-34" rx="36.29" ry="18"/>
<text text-anchor="middle" x="655.69" y="-30.3" font-family="Times,serif" font-size="14.00">यथा(5)</text>
</g>
<!-- Node5&#45;&gt;Node2 -->
<g id="edge6" class="edge">
<title>Node5&#45;&gt;Node2</title>
<path fill="none" stroke="black" d="M655.69,-62.27C655.69,-75.58 655.69,-91.19 655.69,-102.82"/>
<polygon fill="black" stroke="black" points="659.19,-62.2 655.69,-52.2 652.19,-62.2 659.19,-62.2"/>
<text text-anchor="middle" x="690.69" y="-73.8" font-family="Times,serif" font-size="14.00">क्रियाविशेषणम्</text>
</g>
<!-- Node10_1 -->
<g id="node12" class="node">
<title>Node10_1</title>
<ellipse fill="#ff1975" stroke="#ff1975" cx="275.69" cy="-295" rx="55.49" ry="18"/>
<text text-anchor="middle" x="275.69" y="-291.3" font-family="Times,serif" font-size="14.00">अभूत्(10.1)</text>
</g>
<!-- Node10&#45;&gt;Node10_1 -->
<g id="edge11" class="edge">
<title>Node10&#45;&gt;Node10_1</title>
<path fill="none" stroke="black" d="M319.01,-235.37C315.15,-243.2 310.58,-251.64 305.69,-259 301.44,-265.4 296.16,-271.92 291.22,-277.57"/>
<polygon fill="black" stroke="black" points="322.22,-236.77 323.35,-226.24 315.9,-233.77 322.22,-236.77"/>
<text text-anchor="middle" x="323.19" y="-247.8" font-family="Times,serif" font-size="14.00">हेतुः</text>
</g>
<!-- Node9 -->
<g id="node11" class="node">
<title>Node9</title>
<ellipse fill="#87ceeb" stroke="#87ceeb" cx="363.69" cy="-121" rx="33.29" ry="18"/>
<text text-anchor="middle" x="363.69" y="-117.3" font-family="Times,serif" font-size="14.00">मम(9)</text>
</g>
<!-- Node9&#45;&gt;Node10 -->
<g id="edge10" class="edge">
<title>Node9&#45;&gt;Node10</title>
<path fill="none" stroke="black" d="M353.55,-148.13C348.27,-161.73 341.96,-177.98 337.31,-189.95"/>
<polygon fill="black" stroke="black" points="356.82,-149.38 357.17,-138.79 350.29,-146.85 356.82,-149.38"/>
<text text-anchor="middle" x="376.19" y="-160.8" font-family="Times,serif" font-size="14.00">षष्ठीसम्बन्धः</text>
</g>
<!-- Node11 -->
<g id="node13" class="node">
<title>Node11</title>
<ellipse fill="#ff99ff" stroke="#ff99ff" cx="212.69" cy="-208" rx="40.89" ry="18"/>
<text text-anchor="middle" x="212.69" y="-204.3" font-family="Times,serif" font-size="14.00">इति(11)</text>
</g>
<!-- Node11&#45;&gt;Node10_1 -->
<g id="edge13" class="edge">
<title>Node11&#45;&gt;Node10_1</title>
<path fill="none" stroke="black" stroke-dasharray="1,5" d="M232.44,-233.27C235.25,-236.84 238.07,-240.5 240.69,-244 248.82,-254.86 257.57,-267.36 264.29,-277.14"/>
<polygon fill="black" stroke="black" points="234.99,-230.85 226.02,-225.21 229.51,-235.21 234.99,-230.85"/>
<text text-anchor="middle" x="269.19" y="-247.8" font-family="Times,serif" font-size="14.00">सम्बन्धः</text>
</g>
<!-- Node14 -->
<g id="node14" class="node">
<title>Node14</title>
<ellipse fill="#93db70" stroke="#93db70" cx="142.69" cy="-295" rx="44.39" ry="18"/>
<text text-anchor="middle" x="142.69" y="-291.3" font-family="Times,serif" font-size="14.00">ज्ञेयम्(14)</text>
</g>
<!-- Node11&#45;&gt;Node14 -->
<g id="edge12" class="edge">
<title>Node11&#45;&gt;Node14</title>
<path fill="none" stroke="black" d="M174.66,-225.98C167.13,-230.86 159.93,-236.84 154.69,-244 147.73,-253.51 144.76,-266.51 143.51,-276.87"/>
<polygon fill="black" stroke="black" points="176.71,-228.84 183.57,-220.76 173.17,-222.8 176.71,-228.84"/>
<text text-anchor="middle" x="195.69" y="-247.8" font-family="Times,serif" font-size="14.00">वाक्यकर्म_द्योतकः</text>
</g>
<!-- Node12 -->
<g id="node15" class="node">
<title>Node12</title>
<ellipse fill="#40e0d0" stroke="#40e0d0" cx="76.69" cy="-208" rx="76.89" ry="18"/>
<text text-anchor="middle" x="76.69" y="-204.3" font-family="Times,serif" font-size="14.00">कौरवाः(कौरवैः)(12)</text>
</g>
<!-- Node12&#45;&gt;Node14 -->
<g id="edge14" class="edge">
<title>Node12&#45;&gt;Node14</title>
<path fill="none" stroke="black" d="M93.13,-234.68C98.5,-242.65 104.64,-251.34 110.69,-259 115.8,-265.46 121.8,-272.21 127.21,-278.04"/>
<polygon fill="black" stroke="black" points="95.88,-232.5 87.44,-226.09 90.04,-236.36 95.88,-232.5"/>
<text text-anchor="middle" x="121.69" y="-247.8" font-family="Times,serif" font-size="14.00">कर्ता</text>
</g>
<!-- Node13 -->
<g id="node16" class="node">
<title>Node13</title>
<ellipse fill="#ff99ff" stroke="#ff99ff" cx="76.69" cy="-121" rx="34.39" ry="18"/>
<text text-anchor="middle" x="76.69" y="-117.3" font-family="Times,serif" font-size="14.00">तु(13)</text>
</g>
<!-- Node13&#45;&gt;Node12 -->
<g id="edge15" class="edge">
<title>Node13&#45;&gt;Node12</title>
<path fill="none" stroke="black" d="M76.69,-149.27C76.69,-162.58 76.69,-178.19 76.69,-189.82"/>
<polygon fill="black" stroke="black" points="80.19,-149.2 76.69,-139.2 73.19,-149.2 80.19,-149.2"/>
<text text-anchor="middle" x="95.19" y="-160.8" font-family="Times,serif" font-size="14.00">सम्बन्धः</text>
</g>
</g>
</svg>
