<?xml version="1.0" encoding="UTF-8" standalone="no"?>
<!DOCTYPE svg PUBLIC "-//W3C//DTD SVG 1.1//EN"
 "http://www.w3.org/Graphics/SVG/1.1/DTD/svg11.dtd">
<!-- Generated by graphviz version 2.43.0 (0)
 -->
<!-- Title: G Pages: 1 -->
<svg width="1125pt" height="495pt"
 viewBox="0.00 0.00 1124.60 495.00" xmlns="http://www.w3.org/2000/svg" xmlns:xlink="http://www.w3.org/1999/xlink">
<g id="graph0" class="graph" transform="scale(1 1) rotate(0) translate(4 491)">
<title>G</title>
<polygon fill="#fffacd" stroke="transparent" points="-4,4 -4,-491 1120.6,-491 1120.6,4 -4,4"/>
<g id="clust1" class="cluster">
<title>cluster_1</title>
<polygon fill="#fffacd" stroke="black" points="8,-253 8,-392 116,-392 116,-253 8,-253"/>
</g>
<g id="clust2" class="cluster">
<title>cluster_2</title>
<polygon fill="#fffacd" stroke="black" points="64,-427 64,-479 237,-479 237,-427 64,-427"/>
</g>
<g id="clust3" class="cluster">
<title>cluster_3</title>
<polygon fill="#fffacd" stroke="black" points="739,-79 739,-218 865,-218 865,-79 739,-79"/>
</g>
<!-- Node3_2 -->
<g id="node1" class="node">
<title>Node3_2</title>
<ellipse fill="#93db70" stroke="#93db70" cx="62" cy="-279" rx="42.49" ry="18"/>
<text text-anchor="middle" x="62" y="-275.3" font-family="Times,serif" font-size="14.00">दश(3.2)</text>
</g>
<!-- Node4_1 -->
<g id="node2" class="node">
<title>Node4_1</title>
<ellipse fill="#93db70" stroke="#93db70" cx="62" cy="-366" rx="46.29" ry="18"/>
<text text-anchor="middle" x="62" y="-362.3" font-family="Times,serif" font-size="14.00">वर्षम्(4.1)</text>
</g>
<!-- Node3_2&#45;&gt;Node4_1 -->
<g id="edge4" class="edge">
<title>Node3_2&#45;&gt;Node4_1</title>
<path fill="none" stroke="black" d="M62,-307.27C62,-320.58 62,-336.19 62,-347.82"/>
<polygon fill="black" stroke="black" points="65.5,-307.2 62,-297.2 58.5,-307.2 65.5,-307.2"/>
<text text-anchor="middle" x="84.5" y="-318.8" font-family="Times,serif" font-size="14.00">विशेषणम्</text>
</g>
<!-- Node9_1 -->
<g id="node3" class="node">
<title>Node9_1</title>
<ellipse fill="#87ceeb" stroke="#87ceeb" cx="119" cy="-453" rx="47.39" ry="18"/>
<text text-anchor="middle" x="119" y="-449.3" font-family="Times,serif" font-size="14.00">अस्य(9.1)</text>
</g>
<!-- Node4_1&#45;&gt;Node9_1 -->
<g id="edge5" class="edge">
<title>Node4_1&#45;&gt;Node9_1</title>
<path fill="none" stroke="black" d="M79.03,-392.4C88.33,-406.26 99.57,-423.03 107.76,-435.24"/>
<polygon fill="black" stroke="black" points="81.74,-390.15 73.26,-383.79 75.92,-394.05 81.74,-390.15"/>
<text text-anchor="middle" x="105" y="-405.8" font-family="Times,serif" font-size="14.00">कर्ता</text>
</g>
<!-- Node9_1&#45;&gt;Node9_1 -->
<g id="edge10" class="edge">
<title>Node9_1&#45;&gt;Node9_1</title>
<path fill="none" stroke="black" d="M172.21,-445.98C179.55,-447.14 184.45,-449.48 184.45,-453 184.45,-458 174.54,-460.62 161.8,-460.86"/>
<polygon fill="black" stroke="black" points="172.05,-442.46 161.8,-445.14 171.49,-449.43 172.05,-442.46"/>
<text text-anchor="middle" x="206.95" y="-449.3" font-family="Times,serif" font-size="14.00">विशेषणम्</text>
</g>
<!-- Node14_2 -->
<g id="node4" class="node">
<title>Node14_2</title>
<ellipse fill="#00bfff" stroke="#00bfff" cx="802" cy="-105" rx="54.69" ry="18"/>
<text text-anchor="middle" x="802" y="-101.3" font-family="Times,serif" font-size="14.00">दुर्मति(14.2)</text>
</g>
<!-- Node13_2 -->
<g id="node5" class="node">
<title>Node13_2</title>
<ellipse fill="#93db70" stroke="#93db70" cx="807" cy="-192" rx="50.09" ry="18"/>
<text text-anchor="middle" x="807" y="-188.3" font-family="Times,serif" font-size="14.00">अर्थ(13.2)</text>
</g>
<!-- Node14_2&#45;&gt;Node13_2 -->
<g id="edge18" class="edge">
<title>Node14_2&#45;&gt;Node13_2</title>
<path fill="none" stroke="black" d="M803.6,-133.27C804.39,-146.58 805.31,-162.19 805.99,-173.82"/>
<polygon fill="black" stroke="black" points="807.09,-132.98 803.01,-123.2 800.11,-133.39 807.09,-132.98"/>
<text text-anchor="middle" x="826.5" y="-144.8" font-family="Times,serif" font-size="14.00">विशेषणम्</text>
</g>
<!-- Node10_1 -->
<g id="node13" class="node">
<title>Node10_1</title>
<ellipse fill="#87ceeb" stroke="#87ceeb" cx="807" cy="-279" rx="59.29" ry="18"/>
<text text-anchor="middle" x="807" y="-275.3" font-family="Times,serif" font-size="14.00">पापस्य(10.1)</text>
</g>
<!-- Node13_2&#45;&gt;Node10_1 -->
<g id="edge16" class="edge">
<title>Node13_2&#45;&gt;Node10_1</title>
<path fill="none" stroke="black" d="M807,-220.27C807,-233.58 807,-249.19 807,-260.82"/>
<polygon fill="black" stroke="black" points="810.5,-220.2 807,-210.2 803.5,-220.2 810.5,-220.2"/>
<text text-anchor="middle" x="828.5" y="-231.8" font-family="Times,serif" font-size="14.00">प्रयोजनम्</text>
</g>
<!-- Node1_1 -->
<g id="node6" class="node">
<title>Node1_1</title>
<ellipse fill="#ff99ff" stroke="#ff99ff" cx="279" cy="-366" rx="57.39" ry="18"/>
<text text-anchor="middle" x="279" y="-362.3" font-family="Times,serif" font-size="14.00">विशेषतः(1.1)</text>
</g>
<!-- Node6_1 -->
<g id="node7" class="node">
<title>Node6_1</title>
<ellipse fill="#ff1975" stroke="#ff1975" cx="446" cy="-453" rx="77.99" ry="18"/>
<text text-anchor="middle" x="446" y="-449.3" font-family="Times,serif" font-size="14.00">दह्यामि(दहामि)(6.1)</text>
</g>
<!-- Node1_1&#45;&gt;Node6_1 -->
<g id="edge1" class="edge">
<title>Node1_1&#45;&gt;Node6_1</title>
<path fill="none" stroke="black" d="M303.62,-389.82C314.72,-399.21 328.38,-409.6 342,-417 358.82,-426.14 378.47,-433.5 396.12,-439.07"/>
<polygon fill="black" stroke="black" points="305.87,-387.13 296.02,-383.21 301.27,-392.42 305.87,-387.13"/>
<text text-anchor="middle" x="377" y="-405.8" font-family="Times,serif" font-size="14.00">क्रियाविशेषणम्</text>
</g>
<!-- Node2_1 -->
<g id="node8" class="node">
<title>Node2_1</title>
<ellipse fill="#ff99ff" stroke="#ff99ff" cx="279" cy="-279" rx="37.09" ry="18"/>
<text text-anchor="middle" x="279" y="-275.3" font-family="Times,serif" font-size="14.00">तु(2.1)</text>
</g>
<!-- Node2_1&#45;&gt;Node1_1 -->
<g id="edge2" class="edge">
<title>Node2_1&#45;&gt;Node1_1</title>
<path fill="none" stroke="black" d="M279,-307.27C279,-320.58 279,-336.19 279,-347.82"/>
<polygon fill="black" stroke="black" points="282.5,-307.2 279,-297.2 275.5,-307.2 282.5,-307.2"/>
<text text-anchor="middle" x="297.5" y="-318.8" font-family="Times,serif" font-size="14.00">सम्बन्धः</text>
</g>
<!-- Node3_1 -->
<g id="node9" class="node">
<title>Node3_1</title>
<ellipse fill="#ffff00" stroke="#ffff00" cx="62" cy="-192" rx="49.29" ry="18"/>
<text text-anchor="middle" x="62" y="-188.3" font-family="Times,serif" font-size="14.00">पञ्च&#45;(3.1)</text>
</g>
<!-- Node3_1&#45;&gt;Node3_2 -->
<g id="edge3" class="edge">
<title>Node3_1&#45;&gt;Node3_2</title>
<path fill="none" stroke="black" d="M62,-220.27C62,-233.58 62,-249.19 62,-260.82"/>
<polygon fill="black" stroke="black" points="65.5,-220.2 62,-210.2 58.5,-220.2 65.5,-220.2"/>
<text text-anchor="middle" x="79" y="-231.8" font-family="Times,serif" font-size="14.00">समासः</text>
</g>
<!-- Node5_1 -->
<g id="node10" class="node">
<title>Node5_1</title>
<ellipse fill="#ff99ff" stroke="#ff99ff" cx="165" cy="-366" rx="38.99" ry="18"/>
<text text-anchor="middle" x="165" y="-362.3" font-family="Times,serif" font-size="14.00">हि(5.1)</text>
</g>
<!-- Node5_1&#45;&gt;Node9_1 -->
<g id="edge7" class="edge">
<title>Node5_1&#45;&gt;Node9_1</title>
<path fill="none" stroke="black" stroke-dasharray="1,5" d="M151.04,-392.8C143.58,-406.58 134.62,-423.14 128.07,-435.24"/>
<polygon fill="black" stroke="black" points="154.23,-394.25 155.91,-383.79 148.07,-390.92 154.23,-394.25"/>
<text text-anchor="middle" x="163.5" y="-405.8" font-family="Times,serif" font-size="14.00">सम्बन्धः</text>
</g>
<!-- Node5_1&#45;&gt;Node6_1 -->
<g id="edge6" class="edge">
<title>Node5_1&#45;&gt;Node6_1</title>
<path fill="none" stroke="black" d="M198.74,-384.9C203.51,-387.33 208.36,-389.76 213,-392 237.54,-403.86 243.02,-408.75 269,-417 305.42,-428.57 347.33,-437.06 381.22,-442.78"/>
<polygon fill="black" stroke="black" points="200.26,-381.74 189.77,-380.26 197.05,-387.96 200.26,-381.74"/>
<text text-anchor="middle" x="292.5" y="-405.8" font-family="Times,serif" font-size="14.00">हेतुद्योतकः</text>
</g>
<!-- Node7_1 -->
<g id="node11" class="node">
<title>Node7_1</title>
<ellipse fill="#ff99ff" stroke="#ff99ff" cx="391" cy="-366" rx="36.29" ry="18"/>
<text text-anchor="middle" x="391" y="-362.3" font-family="Times,serif" font-size="14.00">वै(7.1)</text>
</g>
<!-- Node7_1&#45;&gt;Node6_1 -->
<g id="edge8" class="edge">
<title>Node7_1&#45;&gt;Node6_1</title>
<path fill="none" stroke="black" d="M407.17,-391.99C416.15,-405.87 427.08,-422.76 435.05,-435.08"/>
<polygon fill="black" stroke="black" points="409.98,-389.88 401.6,-383.39 404.1,-393.69 409.98,-389.88"/>
<text text-anchor="middle" x="440.5" y="-405.8" font-family="Times,serif" font-size="14.00">सम्बन्धः</text>
</g>
<!-- Node8_1 -->
<g id="node12" class="node">
<title>Node8_1</title>
<ellipse fill="#00bfff" stroke="#00bfff" cx="500" cy="-366" rx="54.69" ry="18"/>
<text text-anchor="middle" x="500" y="-362.3" font-family="Times,serif" font-size="14.00">(अहम्)(8.1)</text>
</g>
<!-- Node8_1&#45;&gt;Node6_1 -->
<g id="edge9" class="edge">
<title>Node8_1&#45;&gt;Node6_1</title>
<path fill="none" stroke="black" d="M483.9,-392.34C475.16,-406.1 464.59,-422.74 456.83,-434.95"/>
<polygon fill="black" stroke="black" points="486.92,-394.11 489.33,-383.79 481.01,-390.36 486.92,-394.11"/>
<text text-anchor="middle" x="488" y="-405.8" font-family="Times,serif" font-size="14.00">कर्ता</text>
</g>
<!-- Node11_1 -->
<g id="node14" class="node">
<title>Node11_1</title>
<ellipse fill="#ff1975" stroke="#ff1975" cx="628" cy="-366" rx="55.79" ry="18"/>
<text text-anchor="middle" x="628" y="-362.3" font-family="Times,serif" font-size="14.00">अस्ति(11.1)</text>
</g>
<!-- Node10_1&#45;&gt;Node11_1 -->
<g id="edge11" class="edge">
<title>Node10_1&#45;&gt;Node11_1</title>
<path fill="none" stroke="black" d="M766.87,-299.05C733.91,-314.71 687.94,-336.54 658.07,-350.72"/>
<polygon fill="black" stroke="black" points="768.7,-302.06 776.23,-294.61 765.69,-295.74 768.7,-302.06"/>
<text text-anchor="middle" x="755.5" y="-318.8" font-family="Times,serif" font-size="14.00">षष्ठीसम्बन्धः</text>
</g>
<!-- Node3 -->
<g id="node15" class="node">
<title>Node3</title>
<ellipse fill="lightgrey" stroke="black" cx="867" cy="-366" rx="27" ry="18"/>
</g>
<!-- Node10_1&#45;&gt;Node3 -->
<g id="edge12" class="edge">
<title>Node10_1&#45;&gt;Node3</title>
<path fill="none" stroke="black" stroke-dasharray="1,5" d="M824.81,-305.23C834.92,-319.56 847.27,-337.04 855.98,-349.39"/>
<polygon fill="black" stroke="black" points="827.48,-302.94 818.85,-296.79 821.76,-306.98 827.48,-302.94"/>
<text text-anchor="middle" x="867.5" y="-318.8" font-family="Times,serif" font-size="14.00">षष्ठीसम्बन्धः</text>
</g>
<!-- Node11_1&#45;&gt;Node6_1 -->
<g id="edge13" class="edge">
<title>Node11_1&#45;&gt;Node6_1</title>
<path fill="none" stroke="black" stroke-dasharray="1,5" d="M588.26,-385.56C555.56,-400.83 509.74,-422.23 479.03,-436.57"/>
<polygon fill="black" stroke="black" points="589.96,-388.63 597.54,-381.23 587,-382.29 589.96,-388.63"/>
<text text-anchor="middle" x="557.5" y="-405.8" font-family="Times,serif" font-size="14.00">हेतुः</text>
</g>
<!-- Node12_1 -->
<g id="node16" class="node">
<title>Node12_1</title>
<ellipse fill="#00bfff" stroke="#00bfff" cx="932" cy="-105" rx="57.69" ry="18"/>
<text text-anchor="middle" x="932" y="-101.3" font-family="Times,serif" font-size="14.00">नियतः(12.1)</text>
</g>
<!-- Node12_1&#45;&gt;Node13_2 -->
<g id="edge14" class="edge">
<title>Node12_1&#45;&gt;Node13_2</title>
<path fill="none" stroke="black" d="M900.65,-127.32C878.45,-142.41 849.22,-162.29 829.36,-175.79"/>
<polygon fill="black" stroke="black" points="902.77,-130.11 909.07,-121.59 898.84,-124.32 902.77,-130.11"/>
<text text-anchor="middle" x="915" y="-144.8" font-family="Times,serif" font-size="14.00">विधेय_विशेषणम्</text>
</g>
<!-- Node13_1 -->
<g id="node17" class="node">
<title>Node13_1</title>
<ellipse fill="#ffff00" stroke="#ffff00" cx="1062" cy="-105" rx="54.69" ry="18"/>
<text text-anchor="middle" x="1062" y="-101.3" font-family="Times,serif" font-size="14.00">शुद्धि&#45;(13.1)</text>
</g>
<!-- Node13_1&#45;&gt;Node13_2 -->
<g id="edge15" class="edge">
<title>Node13_1&#45;&gt;Node13_2</title>
<path fill="none" stroke="black" d="M1026.41,-125.53C1006.7,-135.71 981.5,-147.74 958,-156 922.96,-168.31 881.82,-177.52 851.34,-183.39"/>
<polygon fill="black" stroke="black" points="1028.1,-128.59 1035.33,-120.84 1024.85,-122.39 1028.1,-128.59"/>
<text text-anchor="middle" x="1010" y="-144.8" font-family="Times,serif" font-size="14.00">समासः</text>
</g>
<!-- Node14_1 -->
<g id="node18" class="node">
<title>Node14_1</title>
<ellipse fill="#ffff00" stroke="#ffff00" cx="802" cy="-18" rx="46.59" ry="18"/>
<text text-anchor="middle" x="802" y="-14.3" font-family="Times,serif" font-size="14.00">सु&#45;(14.1)</text>
</g>
<!-- Node14_1&#45;&gt;Node14_2 -->
<g id="edge17" class="edge">
<title>Node14_1&#45;&gt;Node14_2</title>
<path fill="none" stroke="black" d="M802,-46.27C802,-59.58 802,-75.19 802,-86.82"/>
<polygon fill="black" stroke="black" points="805.5,-46.2 802,-36.2 798.5,-46.2 805.5,-46.2"/>
<text text-anchor="middle" x="819" y="-57.8" font-family="Times,serif" font-size="14.00">समासः</text>
</g>
<!-- Node15_1 -->
<g id="node19" class="node">
<title>Node15_1</title>
<ellipse fill="#ff1975" stroke="#ff1975" cx="923" cy="-18" rx="55.79" ry="18"/>
<text text-anchor="middle" x="923" y="-14.3" font-family="Times,serif" font-size="14.00">अस्मि(15.1)</text>
</g>
<!-- Node16_1 -->
<g id="node20" class="node">
<title>Node16_1</title>
<ellipse fill="#00bfff" stroke="#00bfff" cx="762" cy="-366" rx="60.39" ry="18"/>
<text text-anchor="middle" x="762" y="-362.3" font-family="Times,serif" font-size="14.00">(अहम्)(16.1)</text>
</g>
<!-- Node16_1&#45;&gt;Node6_1 -->
<g id="edge19" class="edge">
<title>Node16_1&#45;&gt;Node6_1</title>
<path fill="none" stroke="black" d="M716.95,-384.12C709.02,-386.91 700.81,-389.65 693,-392 628.15,-411.56 552.26,-429.24 501.89,-440.25"/>
<polygon fill="black" stroke="black" points="718.2,-387.39 726.44,-380.73 715.84,-380.8 718.2,-387.39"/>
<text text-anchor="middle" x="665" y="-405.8" font-family="Times,serif" font-size="14.00">कर्ता</text>
</g>
</g>
</svg>
