<?xml version="1.0" encoding="UTF-8" standalone="no"?>
<!DOCTYPE svg PUBLIC "-//W3C//DTD SVG 1.1//EN"
 "http://www.w3.org/Graphics/SVG/1.1/DTD/svg11.dtd">
<!-- Generated by graphviz version 2.43.0 (0)
 -->
<!-- Title: G Pages: 1 -->
<svg width="1025pt" height="321pt"
 viewBox="0.00 0.00 1025.05 321.00" xmlns="http://www.w3.org/2000/svg" xmlns:xlink="http://www.w3.org/1999/xlink">
<g id="graph0" class="graph" transform="scale(1 1) rotate(0) translate(4 317)">
<title>G</title>
<polygon fill="#fffacd" stroke="transparent" points="-4,4 -4,-317 1021.05,-317 1021.05,4 -4,4"/>
<g id="clust1" class="cluster">
<title>cluster_1</title>
<polygon fill="#fffacd" stroke="black" points="8,-8 8,-147 270,-147 270,-8 8,-8"/>
</g>
<g id="clust2" class="cluster">
<title>cluster_2</title>
<polygon fill="#fffacd" stroke="black" points="289,-95 289,-234 719,-234 719,-95 289,-95"/>
</g>
<!-- Node5_1 -->
<g id="node1" class="node">
<title>Node5_1</title>
<ellipse fill="#c6e2eb" stroke="#c6e2eb" cx="205" cy="-34" rx="56.59" ry="18"/>
<text text-anchor="middle" x="205" y="-30.3" font-family="Times,serif" font-size="14.00">गुणवत्सु(5.1)</text>
</g>
<!-- Node4_1 -->
<g id="node2" class="node">
<title>Node4_1</title>
<ellipse fill="#ffff00" stroke="#ffff00" cx="194" cy="-121" rx="51.19" ry="18"/>
<text text-anchor="middle" x="194" y="-117.3" font-family="Times,serif" font-size="14.00">पाण्डु&#45;(4.1)</text>
</g>
<!-- Node5_1&#45;&gt;Node4_1 -->
<g id="edge6" class="edge">
<title>Node5_1&#45;&gt;Node4_1</title>
<path fill="none" stroke="black" d="M201.47,-62.27C199.75,-75.58 197.73,-91.19 196.22,-102.82"/>
<polygon fill="black" stroke="black" points="204.96,-62.57 202.77,-52.2 198.02,-61.67 204.96,-62.57"/>
<text text-anchor="middle" x="223.5" y="-73.8" font-family="Times,serif" font-size="14.00">विशेषणम्</text>
</g>
<!-- Node4_2 -->
<g id="node12" class="node">
<title>Node4_2</title>
<ellipse fill="#c6e2eb" stroke="#c6e2eb" cx="194" cy="-208" rx="87.18" ry="18"/>
<text text-anchor="middle" x="194" y="-204.3" font-family="Times,serif" font-size="14.00">पुत्रेण(पाण्डुपुत्रेषु)(4.2)</text>
</g>
<!-- Node4_1&#45;&gt;Node4_2 -->
<g id="edge4" class="edge">
<title>Node4_1&#45;&gt;Node4_2</title>
<path fill="none" stroke="black" d="M194,-149.27C194,-162.58 194,-178.19 194,-189.82"/>
<polygon fill="black" stroke="black" points="197.5,-149.2 194,-139.2 190.5,-149.2 197.5,-149.2"/>
<text text-anchor="middle" x="203.5" y="-160.8" font-family="Times,serif" font-size="14.00">T6</text>
</g>
<!-- Node6_1 -->
<g id="node3" class="node">
<title>Node6_1</title>
<ellipse fill="#c6e2eb" stroke="#c6e2eb" cx="73" cy="-34" rx="57.39" ry="18"/>
<text text-anchor="middle" x="73" y="-30.3" font-family="Times,serif" font-size="14.00">महात्मसु(6.1)</text>
</g>
<!-- Node6_1&#45;&gt;Node4_1 -->
<g id="edge7" class="edge">
<title>Node6_1&#45;&gt;Node4_1</title>
<path fill="none" stroke="black" d="M103.58,-56.48C124.88,-71.45 152.8,-91.06 171.95,-104.51"/>
<polygon fill="black" stroke="black" points="105.39,-53.47 95.19,-50.59 101.36,-59.2 105.39,-53.47"/>
<text text-anchor="middle" x="163.5" y="-73.8" font-family="Times,serif" font-size="14.00">विशेषणम्</text>
</g>
<!-- Node10_1 -->
<g id="node4" class="node">
<title>Node10_1</title>
<ellipse fill="#93db70" stroke="#93db70" cx="651" cy="-121" rx="59.59" ry="18"/>
<text text-anchor="middle" x="651" y="-117.3" font-family="Times,serif" font-size="14.00">दीप्ताम्(10.1)</text>
</g>
<!-- Node9_1 -->
<g id="node5" class="node">
<title>Node9_1</title>
<ellipse fill="#93db70" stroke="#93db70" cx="575" cy="-208" rx="50.09" ry="18"/>
<text text-anchor="middle" x="575" y="-204.3" font-family="Times,serif" font-size="14.00">श्रियम्(9.1)</text>
</g>
<!-- Node10_1&#45;&gt;Node9_1 -->
<g id="edge10" class="edge">
<title>Node10_1&#45;&gt;Node9_1</title>
<path fill="none" stroke="black" d="M629.3,-146.27C616.62,-160.45 600.97,-177.96 589.73,-190.53"/>
<polygon fill="black" stroke="black" points="631.93,-148.58 635.98,-138.79 626.71,-143.92 631.93,-148.58"/>
<text text-anchor="middle" x="639.5" y="-160.8" font-family="Times,serif" font-size="14.00">विशेषणम्</text>
</g>
<!-- Node8_1 -->
<g id="node9" class="node">
<title>Node8_1</title>
<ellipse fill="#ff1975" stroke="#ff1975" cx="769" cy="-295" rx="53.89" ry="18"/>
<text text-anchor="middle" x="769" y="-291.3" font-family="Times,serif" font-size="14.00">दत्तवान्(8.1)</text>
</g>
<!-- Node9_1&#45;&gt;Node8_1 -->
<g id="edge9" class="edge">
<title>Node9_1&#45;&gt;Node8_1</title>
<path fill="none" stroke="black" d="M615.07,-226.56C651.47,-242.51 704.41,-265.7 737.76,-280.31"/>
<polygon fill="black" stroke="black" points="616.3,-223.28 605.74,-222.47 613.49,-229.69 616.3,-223.28"/>
<text text-anchor="middle" x="692" y="-247.8" font-family="Times,serif" font-size="14.00">कर्म</text>
</g>
<!-- Node11_1 -->
<g id="node6" class="node">
<title>Node11_1</title>
<ellipse fill="#93db70" stroke="#93db70" cx="499" cy="-121" rx="74.19" ry="18"/>
<text text-anchor="middle" x="499" y="-117.3" font-family="Times,serif" font-size="14.00">पितृपैतामही(11.1)</text>
</g>
<!-- Node11_1&#45;&gt;Node9_1 -->
<g id="edge11" class="edge">
<title>Node11_1&#45;&gt;Node9_1</title>
<path fill="none" stroke="black" d="M520.7,-146.27C533.38,-160.45 549.03,-177.96 560.27,-190.53"/>
<polygon fill="black" stroke="black" points="523.29,-143.92 514.02,-138.79 518.07,-148.58 523.29,-143.92"/>
<text text-anchor="middle" x="563.5" y="-160.8" font-family="Times,serif" font-size="14.00">विशेषणम्</text>
</g>
<!-- Node12_1 -->
<g id="node7" class="node">
<title>Node12_1</title>
<ellipse fill="#93db70" stroke="#93db70" cx="352" cy="-121" rx="54.69" ry="18"/>
<text text-anchor="middle" x="352" y="-117.3" font-family="Times,serif" font-size="14.00">इमाम्(12.1)</text>
</g>
<!-- Node12_1&#45;&gt;Node9_1 -->
<g id="edge12" class="edge">
<title>Node12_1&#45;&gt;Node9_1</title>
<path fill="none" stroke="black" d="M395.18,-138.95C402.14,-141.65 409.26,-144.41 416,-147 459.24,-163.6 509.25,-182.41 541.46,-194.47"/>
<polygon fill="black" stroke="black" points="396.44,-135.68 385.85,-135.31 393.9,-142.2 396.44,-135.68"/>
<text text-anchor="middle" x="503.5" y="-160.8" font-family="Times,serif" font-size="14.00">विशेषणम्</text>
</g>
<!-- Node1_1 -->
<g id="node8" class="node">
<title>Node1_1</title>
<ellipse fill="#ff99ff" stroke="#ff99ff" cx="769" cy="-208" rx="42.49" ry="18"/>
<text text-anchor="middle" x="769" y="-204.3" font-family="Times,serif" font-size="14.00">यत्(1.1)</text>
</g>
<!-- Node1_1&#45;&gt;Node8_1 -->
<g id="edge1" class="edge">
<title>Node1_1&#45;&gt;Node8_1</title>
<path fill="none" stroke="black" d="M769,-236.27C769,-249.58 769,-265.19 769,-276.82"/>
<polygon fill="black" stroke="black" points="772.5,-236.2 769,-226.2 765.5,-236.2 772.5,-236.2"/>
<text text-anchor="middle" x="787.5" y="-247.8" font-family="Times,serif" font-size="14.00">सम्बन्धः</text>
</g>
<!-- Node2_1 -->
<g id="node10" class="node">
<title>Node2_1</title>
<ellipse fill="#ff99ff" stroke="#ff99ff" cx="769" cy="-121" rx="37.89" ry="18"/>
<text text-anchor="middle" x="769" y="-117.3" font-family="Times,serif" font-size="14.00">च(2.1)</text>
</g>
<!-- Node2_1&#45;&gt;Node1_1 -->
<g id="edge2" class="edge">
<title>Node2_1&#45;&gt;Node1_1</title>
<path fill="none" stroke="black" d="M769,-149.27C769,-162.58 769,-178.19 769,-189.82"/>
<polygon fill="black" stroke="black" points="772.5,-149.2 769,-139.2 765.5,-149.2 772.5,-149.2"/>
<text text-anchor="middle" x="787.5" y="-160.8" font-family="Times,serif" font-size="14.00">सम्बन्धः</text>
</g>
<!-- Node3_1 -->
<g id="node11" class="node">
<title>Node3_1</title>
<ellipse fill="#00bfff" stroke="#00bfff" cx="877" cy="-208" rx="48.19" ry="18"/>
<text text-anchor="middle" x="877" y="-204.3" font-family="Times,serif" font-size="14.00">अहम्(3.1)</text>
</g>
<!-- Node3_1&#45;&gt;Node8_1 -->
<g id="edge3" class="edge">
<title>Node3_1&#45;&gt;Node8_1</title>
<path fill="none" stroke="black" d="M849.25,-230.84C830.43,-245.65 805.99,-264.89 789.05,-278.22"/>
<polygon fill="black" stroke="black" points="851.5,-233.53 857.19,-224.59 847.17,-228.02 851.5,-233.53"/>
<text text-anchor="middle" x="840" y="-247.8" font-family="Times,serif" font-size="14.00">कर्ता</text>
</g>
<!-- Node4_2&#45;&gt;Node8_1 -->
<g id="edge5" class="edge">
<title>Node4_2&#45;&gt;Node8_1</title>
<path fill="none" stroke="black" d="M250.68,-225.93C261.98,-228.92 273.81,-231.78 285,-234 440.73,-264.87 627.98,-282.71 717.03,-290.04"/>
<polygon fill="black" stroke="black" points="251.49,-222.52 240.92,-223.29 249.66,-229.28 251.49,-222.52"/>
<text text-anchor="middle" x="457.5" y="-247.8" font-family="Times,serif" font-size="14.00">अधिकरणम्</text>
</g>
<!-- Node7_1 -->
<g id="node13" class="node">
<title>Node7_1</title>
<ellipse fill="#ff99ff" stroke="#ff99ff" cx="980" cy="-208" rx="37.09" ry="18"/>
<text text-anchor="middle" x="980" y="-204.3" font-family="Times,serif" font-size="14.00">न(7.1)</text>
</g>
<!-- Node7_1&#45;&gt;Node8_1 -->
<g id="edge8" class="edge">
<title>Node7_1&#45;&gt;Node8_1</title>
<path fill="none" stroke="black" d="M947.79,-227.29C943.22,-229.65 938.53,-231.96 934,-234 891.34,-253.22 840.52,-270.96 806.66,-282.09"/>
<polygon fill="black" stroke="black" points="949.76,-230.2 956.94,-222.41 946.47,-224.02 949.76,-230.2"/>
<text text-anchor="middle" x="926.5" y="-247.8" font-family="Times,serif" font-size="14.00">प्रतिषेधः</text>
</g>
</g>
</svg>
