<?xml version="1.0" encoding="UTF-8" standalone="no"?>
<!DOCTYPE svg PUBLIC "-//W3C//DTD SVG 1.1//EN"
 "http://www.w3.org/Graphics/SVG/1.1/DTD/svg11.dtd">
<!-- Generated by graphviz version 2.43.0 (0)
 -->
<!-- Title: G Pages: 1 -->
<svg width="842pt" height="305pt"
 viewBox="0.00 0.00 842.24 305.00" xmlns="http://www.w3.org/2000/svg" xmlns:xlink="http://www.w3.org/1999/xlink">
<g id="graph0" class="graph" transform="scale(1 1) rotate(0) translate(4 301)">
<title>G</title>
<polygon fill="#fffacd" stroke="transparent" points="-4,4 -4,-301 838.24,-301 838.24,4 -4,4"/>
<g id="clust1" class="cluster">
<title>cluster_1</title>
<polygon fill="#fffacd" stroke="black" points="168,-79 168,-218 380,-218 380,-79 168,-79"/>
</g>
<g id="clust2" class="cluster">
<title>cluster_2</title>
<polygon fill="#fffacd" stroke="black" points="8,-79 8,-218 160,-218 160,-79 8,-79"/>
</g>
<!-- Node6_1 -->
<g id="node1" class="node">
<title>Node6_1</title>
<ellipse fill="lightgrey" stroke="black" cx="335" cy="-105" rx="37.09" ry="18"/>
<text text-anchor="middle" x="335" y="-101.3" font-family="Times,serif" font-size="14.00">ते(6.1)</text>
</g>
<!-- Node8_1 -->
<g id="node2" class="node">
<title>Node8_1</title>
<ellipse fill="lightgrey" stroke="black" cx="303" cy="-192" rx="42.49" ry="18"/>
<text text-anchor="middle" x="303" y="-188.3" font-family="Times,serif" font-size="14.00">सर्वे(8.1)</text>
</g>
<!-- Node6_1&#45;&gt;Node8_1 -->
<g id="edge7" class="edge">
<title>Node6_1&#45;&gt;Node8_1</title>
<path fill="none" stroke="black" d="M325.01,-132.53C319.92,-146.05 313.88,-162.09 309.42,-173.95"/>
<polygon fill="black" stroke="black" points="328.43,-133.39 328.68,-122.79 321.88,-130.92 328.43,-133.39"/>
<text text-anchor="middle" x="342.5" y="-144.8" font-family="Times,serif" font-size="14.00">विशेषणम्</text>
</g>
<!-- Node11_1 -->
<g id="node10" class="node">
<title>Node11_1</title>
<ellipse fill="lightgrey" stroke="black" cx="303" cy="-279" rx="52.79" ry="18"/>
<text text-anchor="middle" x="303" y="-275.3" font-family="Times,serif" font-size="14.00">गताः(11.1)</text>
</g>
<!-- Node8_1&#45;&gt;Node11_1 -->
<g id="edge9" class="edge">
<title>Node8_1&#45;&gt;Node11_1</title>
<path fill="none" stroke="black" d="M303,-220.27C303,-233.58 303,-249.19 303,-260.82"/>
<polygon fill="black" stroke="black" points="306.5,-220.2 303,-210.2 299.5,-220.2 306.5,-220.2"/>
<text text-anchor="middle" x="314" y="-231.8" font-family="Times,serif" font-size="14.00">कर्ता</text>
</g>
<!-- Node12_1 -->
<g id="node3" class="node">
<title>Node12_1</title>
<ellipse fill="lightgrey" stroke="black" cx="228" cy="-105" rx="51.99" ry="18"/>
<text text-anchor="middle" x="228" y="-101.3" font-family="Times,serif" font-size="14.00">हताः(12.1)</text>
</g>
<!-- Node12_1&#45;&gt;Node8_1 -->
<g id="edge12" class="edge">
<title>Node12_1&#45;&gt;Node8_1</title>
<path fill="none" stroke="black" d="M246.7,-130.48C253.25,-138.75 260.77,-147.92 268,-156 273.85,-162.53 280.59,-169.41 286.59,-175.33"/>
<polygon fill="black" stroke="black" points="249.45,-128.31 240.53,-122.59 243.93,-132.62 249.45,-128.31"/>
<text text-anchor="middle" x="290.5" y="-144.8" font-family="Times,serif" font-size="14.00">विशेषणम्</text>
</g>
<!-- Node9_1 -->
<g id="node4" class="node">
<title>Node9_1</title>
<ellipse fill="lightgrey" stroke="black" cx="84" cy="-105" rx="67.69" ry="18"/>
<text text-anchor="middle" x="84" y="-101.3" font-family="Times,serif" font-size="14.00">शस्त्रजितान्(9.1)</text>
</g>
<!-- Node10_1 -->
<g id="node5" class="node">
<title>Node10_1</title>
<ellipse fill="lightgrey" stroke="black" cx="88" cy="-192" rx="59.59" ry="18"/>
<text text-anchor="middle" x="88" y="-188.3" font-family="Times,serif" font-size="14.00">लोकान्(10.1)</text>
</g>
<!-- Node9_1&#45;&gt;Node10_1 -->
<g id="edge10" class="edge">
<title>Node9_1&#45;&gt;Node10_1</title>
<path fill="none" stroke="black" d="M85.28,-133.27C85.91,-146.58 86.64,-162.19 87.19,-173.82"/>
<polygon fill="black" stroke="black" points="88.78,-133.03 84.81,-123.2 81.78,-133.35 88.78,-133.03"/>
<text text-anchor="middle" x="109.5" y="-144.8" font-family="Times,serif" font-size="14.00">विशेषणम्</text>
</g>
<!-- Node10_1&#45;&gt;Node11_1 -->
<g id="edge11" class="edge">
<title>Node10_1&#45;&gt;Node11_1</title>
<path fill="none" stroke="black" d="M132.46,-210.58C173.3,-226.72 232.91,-250.29 269.76,-264.86"/>
<polygon fill="black" stroke="black" points="133.61,-207.27 123.02,-206.85 131.03,-213.78 133.61,-207.27"/>
<text text-anchor="middle" x="218" y="-231.8" font-family="Times,serif" font-size="14.00">कर्म</text>
</g>
<!-- Node1_1 -->
<g id="node6" class="node">
<title>Node1_1</title>
<ellipse fill="lightgrey" stroke="black" cx="631" cy="-105" rx="46.29" ry="18"/>
<text text-anchor="middle" x="631" y="-101.3" font-family="Times,serif" font-size="14.00">कुरु&#45;(1.1)</text>
</g>
<!-- Node1_2 -->
<g id="node7" class="node">
<title>Node1_2</title>
<ellipse fill="lightgrey" stroke="black" cx="631" cy="-192" rx="48.99" ry="18"/>
<text text-anchor="middle" x="631" y="-188.3" font-family="Times,serif" font-size="14.00">नन्दन(1.2)</text>
</g>
<!-- Node1_1&#45;&gt;Node1_2 -->
<g id="edge1" class="edge">
<title>Node1_1&#45;&gt;Node1_2</title>
<path fill="none" stroke="black" d="M631,-133.27C631,-146.58 631,-162.19 631,-173.82"/>
<polygon fill="black" stroke="black" points="634.5,-133.2 631,-123.2 627.5,-133.2 634.5,-133.2"/>
<text text-anchor="middle" x="648" y="-144.8" font-family="Times,serif" font-size="14.00">समासः</text>
</g>
<!-- Node5_1 -->
<g id="node8" class="node">
<title>Node5_1</title>
<ellipse fill="lightgrey" stroke="black" cx="568" cy="-279" rx="55.49" ry="18"/>
<text text-anchor="middle" x="568" y="-275.3" font-family="Times,serif" font-size="14.00">पश्यामि(5.1)</text>
</g>
<!-- Node1_2&#45;&gt;Node5_1 -->
<g id="edge2" class="edge">
<title>Node1_2&#45;&gt;Node5_1</title>
<path fill="none" stroke="black" d="M612.47,-218.01C602.14,-231.94 589.56,-248.91 580.42,-261.24"/>
<polygon fill="black" stroke="black" points="615.41,-219.91 618.55,-209.79 609.79,-215.74 615.41,-219.91"/>
<text text-anchor="middle" x="624" y="-231.8" font-family="Times,serif" font-size="14.00">सम्बोध्यः</text>
</g>
<!-- Node2_1 -->
<g id="node9" class="node">
<title>Node2_1</title>
<ellipse fill="lightgrey" stroke="black" cx="430" cy="-192" rx="42.49" ry="18"/>
<text text-anchor="middle" x="430" y="-188.3" font-family="Times,serif" font-size="14.00">तेषु(2.1)</text>
</g>
<!-- Node2_1&#45;&gt;Node5_1 -->
<g id="edge3" class="edge">
<title>Node2_1&#45;&gt;Node5_1</title>
<path fill="none" stroke="black" d="M442.49,-218.78C447.78,-227.48 454.67,-236.61 463,-243 479.84,-255.93 501.71,-264.22 521.12,-269.46"/>
<polygon fill="black" stroke="black" points="445.5,-216.99 437.56,-209.98 439.4,-220.42 445.5,-216.99"/>
<text text-anchor="middle" x="500" y="-231.8" font-family="Times,serif" font-size="14.00">विषयाधिकरणम्</text>
</g>
<!-- Node2_1&#45;&gt;Node11_1 -->
<g id="edge4" class="edge">
<title>Node2_1&#45;&gt;Node11_1</title>
<path fill="none" stroke="black" stroke-dasharray="1,5" d="M396.92,-211.85C388.37,-216.93 379.26,-222.54 371,-228 354.5,-238.92 336.5,-252.23 323.16,-262.37"/>
<polygon fill="black" stroke="black" points="398.71,-214.86 405.56,-206.78 395.16,-208.82 398.71,-214.86"/>
<text text-anchor="middle" x="389.5" y="-231.8" font-family="Times,serif" font-size="14.00">सम्बन्धः</text>
</g>
<!-- Node3_1 -->
<g id="node11" class="node">
<title>Node3_1</title>
<ellipse fill="lightgrey" stroke="black" cx="766" cy="-192" rx="68.49" ry="18"/>
<text text-anchor="middle" x="766" y="-188.3" font-family="Times,serif" font-size="14.00">प्रतिकर्तव्यम्(3.1)</text>
</g>
<!-- Node3_1&#45;&gt;Node5_1 -->
<g id="edge5" class="edge">
<title>Node3_1&#45;&gt;Node5_1</title>
<path fill="none" stroke="black" d="M722.43,-211.7C685.43,-227.59 633.19,-250.01 599.96,-264.28"/>
<polygon fill="black" stroke="black" points="724.15,-214.77 731.96,-207.61 721.39,-208.34 724.15,-214.77"/>
<text text-anchor="middle" x="687" y="-231.8" font-family="Times,serif" font-size="14.00">कर्म</text>
</g>
<!-- Node4_1 -->
<g id="node12" class="node">
<title>Node4_1</title>
<ellipse fill="lightgrey" stroke="black" cx="527" cy="-192" rx="37.09" ry="18"/>
<text text-anchor="middle" x="527" y="-188.3" font-family="Times,serif" font-size="14.00">न(4.1)</text>
</g>
<!-- Node4_1&#45;&gt;Node5_1 -->
<g id="edge6" class="edge">
<title>Node4_1&#45;&gt;Node5_1</title>
<path fill="none" stroke="black" d="M538.01,-219.14C541.41,-226.88 545.24,-235.34 549,-243 551.92,-248.96 555.32,-255.37 558.44,-261.06"/>
<polygon fill="black" stroke="black" points="541.17,-217.62 533.99,-209.83 534.74,-220.39 541.17,-217.62"/>
<text text-anchor="middle" x="568.5" y="-231.8" font-family="Times,serif" font-size="14.00">प्रतिषेधः</text>
</g>
<!-- Node7_1 -->
<g id="node13" class="node">
<title>Node7_1</title>
<ellipse fill="lightgrey" stroke="black" cx="228" cy="-18" rx="63.89" ry="18"/>
<text text-anchor="middle" x="228" y="-14.3" font-family="Times,serif" font-size="14.00">अभिमुखम्(7.1)</text>
</g>
<!-- Node7_1&#45;&gt;Node12_1 -->
<g id="edge8" class="edge">
<title>Node7_1&#45;&gt;Node12_1</title>
<path fill="none" stroke="black" d="M228,-46.27C228,-59.58 228,-75.19 228,-86.82"/>
<polygon fill="black" stroke="black" points="231.5,-46.2 228,-36.2 224.5,-46.2 231.5,-46.2"/>
<text text-anchor="middle" x="263" y="-57.8" font-family="Times,serif" font-size="14.00">क्रियाविशेषणम्</text>
</g>
</g>
</svg>
