<?xml version="1.0" encoding="UTF-8" standalone="no"?>
<!DOCTYPE svg PUBLIC "-//W3C//DTD SVG 1.1//EN"
 "http://www.w3.org/Graphics/SVG/1.1/DTD/svg11.dtd">
<!-- Generated by graphviz version 2.43.0 (0)
 -->
<!-- Title: G Pages: 1 -->
<svg width="1804pt" height="163pt"
 viewBox="0.00 0.00 1803.79 163.00" xmlns="http://www.w3.org/2000/svg" xmlns:xlink="http://www.w3.org/1999/xlink">
<g id="graph0" class="graph" transform="scale(1 1) rotate(0) translate(4 159)">
<title>G</title>
<polygon fill="#fffacd" stroke="transparent" points="-4,4 -4,-159 1799.79,-159 1799.79,4 -4,4"/>
<g id="clust1" class="cluster">
<title>cluster_1</title>
<polygon fill="#fffacd" stroke="black" points="8,-8 8,-147 116,-147 116,-8 8,-8"/>
</g>
<!-- Node5_1 -->
<g id="node1" class="node">
<title>Node5_1</title>
<ellipse fill="#93db70" stroke="#93db70" cx="62" cy="-34" rx="46.29" ry="18"/>
<text text-anchor="middle" x="62" y="-30.3" font-family="Times,serif" font-size="14.00">इदम्(5.1)</text>
</g>
<!-- Node3 -->
<g id="node2" class="node">
<title>Node3</title>
<ellipse fill="lightgrey" stroke="black" cx="81" cy="-121" rx="27" ry="18"/>
</g>
<!-- Node5_1&#45;&gt;Node3 -->
<g id="edge5" class="edge">
<title>Node5_1&#45;&gt;Node3</title>
<path fill="none" stroke="black" d="M68.11,-62.34C71.11,-75.75 74.62,-91.47 77.23,-103.11"/>
<polygon fill="black" stroke="black" points="71.44,-61.2 65.84,-52.2 64.61,-62.72 71.44,-61.2"/>
<text text-anchor="middle" x="95.5" y="-73.8" font-family="Times,serif" font-size="14.00">विशेषणम्</text>
</g>
<!-- Node1_1 -->
<g id="node3" class="node">
<title>Node1_1</title>
<ellipse fill="#00bfff" stroke="#00bfff" cx="359" cy="-34" rx="47.39" ry="18"/>
<text text-anchor="middle" x="359" y="-30.3" font-family="Times,serif" font-size="14.00">भद्रम्(1.1)</text>
</g>
<!-- Node14 -->
<g id="node4" class="node">
<title>Node14</title>
<ellipse fill="lightgrey" stroke="black" cx="482" cy="-121" rx="27" ry="18"/>
</g>
<!-- Node1_1&#45;&gt;Node14 -->
<g id="edge1" class="edge">
<title>Node1_1&#45;&gt;Node14</title>
<path fill="none" stroke="black" d="M389.5,-56.08C412.84,-72.21 444.25,-93.91 463.8,-107.43"/>
<polygon fill="black" stroke="black" points="391.21,-53 380.99,-50.2 387.23,-58.76 391.21,-53"/>
<text text-anchor="middle" x="439" y="-73.8" font-family="Times,serif" font-size="14.00">कर्ता</text>
</g>
<!-- Node2_1 -->
<g id="node5" class="node">
<title>Node2_1</title>
<ellipse fill="#87ceeb" stroke="#87ceeb" cx="767" cy="-34" rx="37.09" ry="18"/>
<text text-anchor="middle" x="767" y="-30.3" font-family="Times,serif" font-size="14.00">ते(2.1)</text>
</g>
<!-- Node1 -->
<g id="node6" class="node">
<title>Node1</title>
<ellipse fill="lightgrey" stroke="black" cx="767" cy="-121" rx="27" ry="18"/>
</g>
<!-- Node2_1&#45;&gt;Node1 -->
<g id="edge2" class="edge">
<title>Node2_1&#45;&gt;Node1</title>
<path fill="none" stroke="black" d="M767,-62.27C767,-75.58 767,-91.19 767,-102.82"/>
<polygon fill="black" stroke="black" points="770.5,-62.2 767,-52.2 763.5,-62.2 770.5,-62.2"/>
<text text-anchor="middle" x="794.5" y="-73.8" font-family="Times,serif" font-size="14.00">षष्ठीसम्बन्धः</text>
</g>
<!-- Node3_1 -->
<g id="node7" class="node">
<title>Node3_1</title>
<ellipse fill="#93db70" stroke="#93db70" cx="907" cy="-34" rx="84.49" ry="18"/>
<text text-anchor="middle" x="907" y="-30.3" font-family="Times,serif" font-size="14.00">यादवीमातृवाक्यम्(3.1)</text>
</g>
<!-- Node6 -->
<g id="node8" class="node">
<title>Node6</title>
<ellipse fill="lightgrey" stroke="black" cx="907" cy="-121" rx="27" ry="18"/>
</g>
<!-- Node3_1&#45;&gt;Node6 -->
<g id="edge3" class="edge">
<title>Node3_1&#45;&gt;Node6</title>
<path fill="none" stroke="black" d="M907,-62.27C907,-75.58 907,-91.19 907,-102.82"/>
<polygon fill="black" stroke="black" points="910.5,-62.2 907,-52.2 903.5,-62.2 910.5,-62.2"/>
<text text-anchor="middle" x="916" y="-73.8" font-family="Times,serif" font-size="14.00">कर्म</text>
</g>
<!-- Node4_1 -->
<g id="node9" class="node">
<title>Node4_1</title>
<ellipse fill="#ff99ff" stroke="#ff99ff" cx="164" cy="-34" rx="37.89" ry="18"/>
<text text-anchor="middle" x="164" y="-30.3" font-family="Times,serif" font-size="14.00">च(4.1)</text>
</g>
<!-- Node4_1&#45;&gt;Node3 -->
<g id="edge4" class="edge">
<title>Node4_1&#45;&gt;Node3</title>
<path fill="none" stroke="black" d="M144.9,-59.36C137.98,-67.75 129.9,-77.03 122,-85 114.49,-92.57 105.53,-100.34 97.91,-106.63"/>
<polygon fill="black" stroke="black" points="147.82,-61.32 151.4,-51.35 142.38,-56.91 147.82,-61.32"/>
<text text-anchor="middle" x="154.5" y="-73.8" font-family="Times,serif" font-size="14.00">सम्बन्धः</text>
</g>
<!-- Node6_1 -->
<g id="node10" class="node">
<title>Node6_1</title>
<ellipse fill="#ff1975" stroke="#ff1975" cx="1061" cy="-34" rx="51.99" ry="18"/>
<text text-anchor="middle" x="1061" y="-30.3" font-family="Times,serif" font-size="14.00">निबोध(6.1)</text>
</g>
<!-- Node7_1 -->
<g id="node11" class="node">
<title>Node7_1</title>
<ellipse fill="#87ceeb" stroke="#87ceeb" cx="257" cy="-34" rx="37.09" ry="18"/>
<text text-anchor="middle" x="257" y="-30.3" font-family="Times,serif" font-size="14.00">मे(7.1)</text>
</g>
<!-- Node7_1&#45;&gt;Node3 -->
<g id="edge6" class="edge">
<title>Node7_1&#45;&gt;Node3</title>
<path fill="none" stroke="black" d="M228.24,-55.02C213.37,-64.84 194.67,-76.37 177,-85 153.41,-96.52 125.01,-106.42 105.24,-112.72"/>
<polygon fill="black" stroke="black" points="230.6,-57.65 236.96,-49.17 226.7,-51.84 230.6,-57.65"/>
<text text-anchor="middle" x="232.5" y="-73.8" font-family="Times,serif" font-size="14.00">षष्ठीसम्बन्धः</text>
</g>
<!-- Node8_1 -->
<g id="node12" class="node">
<title>Node8_1</title>
<ellipse fill="#93db70" stroke="#93db70" cx="1181" cy="-34" rx="50.09" ry="18"/>
<text text-anchor="middle" x="1181" y="-30.3" font-family="Times,serif" font-size="14.00">सुखम्(8.1)</text>
</g>
<!-- Node9 -->
<g id="node13" class="node">
<title>Node9</title>
<ellipse fill="lightgrey" stroke="black" cx="1239" cy="-121" rx="27" ry="18"/>
</g>
<!-- Node8_1&#45;&gt;Node9 -->
<g id="edge7" class="edge">
<title>Node8_1&#45;&gt;Node9</title>
<path fill="none" stroke="black" d="M1191.64,-61.22C1195.36,-69.16 1199.91,-77.7 1205,-85 1210.24,-92.5 1217.1,-99.9 1223.3,-105.96"/>
<polygon fill="black" stroke="black" points="1194.78,-59.67 1187.51,-51.95 1188.38,-62.51 1194.78,-59.67"/>
<text text-anchor="middle" x="1240" y="-73.8" font-family="Times,serif" font-size="14.00">क्रियाविशेषणम्</text>
</g>
<!-- Node9_1 -->
<g id="node14" class="node">
<title>Node9_1</title>
<ellipse fill="#ff1975" stroke="#ff1975" cx="1413" cy="-34" rx="50.09" ry="18"/>
<text text-anchor="middle" x="1413" y="-30.3" font-family="Times,serif" font-size="14.00">अस्मि(9.1)</text>
</g>
<!-- Node7 -->
<g id="node15" class="node">
<title>Node7</title>
<ellipse fill="lightgrey" stroke="black" cx="1508" cy="-34" rx="27" ry="18"/>
</g>
<!-- Node10_1 -->
<g id="node16" class="node">
<title>Node10_1</title>
<ellipse fill="#00bfff" stroke="#00bfff" cx="482" cy="-34" rx="57.39" ry="18"/>
<text text-anchor="middle" x="482" y="-30.3" font-family="Times,serif" font-size="14.00">उषितः(10.1)</text>
</g>
<!-- Node10_1&#45;&gt;Node14 -->
<g id="edge8" class="edge">
<title>Node10_1&#45;&gt;Node14</title>
<path fill="none" stroke="black" d="M482,-62.27C482,-75.58 482,-91.19 482,-102.82"/>
<polygon fill="black" stroke="black" points="485.5,-62.2 482,-52.2 478.5,-62.2 485.5,-62.2"/>
<text text-anchor="middle" x="521" y="-73.8" font-family="Times,serif" font-size="14.00">विधेय_विशेषणम्</text>
</g>
<!-- Node11_1 -->
<g id="node17" class="node">
<title>Node11_1</title>
<ellipse fill="#6fffc3" stroke="#6fffc3" cx="1297" cy="-34" rx="48.19" ry="18"/>
<text text-anchor="middle" x="1297" y="-30.3" font-family="Times,serif" font-size="14.00">पुत्र(11.1)</text>
</g>
<!-- Node11_1&#45;&gt;Node9 -->
<g id="edge9" class="edge">
<title>Node11_1&#45;&gt;Node9</title>
<path fill="none" stroke="black" d="M1287.54,-61.6C1284.16,-69.47 1279.94,-77.88 1275,-85 1269.53,-92.88 1262.11,-100.45 1255.44,-106.52"/>
<polygon fill="black" stroke="black" points="1290.9,-62.64 1291.37,-52.05 1284.4,-60.03 1290.9,-62.64"/>
<text text-anchor="middle" x="1304" y="-73.8" font-family="Times,serif" font-size="14.00">सम्बोध्यः</text>
</g>
<!-- Node12_1 -->
<g id="node18" class="node">
<title>Node12_1</title>
<ellipse fill="#40e0d0" stroke="#40e0d0" cx="1606" cy="-34" rx="52.79" ry="18"/>
<text text-anchor="middle" x="1606" y="-30.3" font-family="Times,serif" font-size="14.00">त्वया(12.1)</text>
</g>
<!-- Node13 -->
<g id="node19" class="node">
<title>Node13</title>
<ellipse fill="lightgrey" stroke="black" cx="1606" cy="-121" rx="27" ry="18"/>
</g>
<!-- Node12_1&#45;&gt;Node13 -->
<g id="edge10" class="edge">
<title>Node12_1&#45;&gt;Node13</title>
<path fill="none" stroke="black" d="M1606,-62.27C1606,-75.58 1606,-91.19 1606,-102.82"/>
<polygon fill="black" stroke="black" points="1609.5,-62.2 1606,-52.2 1602.5,-62.2 1609.5,-62.2"/>
<text text-anchor="middle" x="1617" y="-73.8" font-family="Times,serif" font-size="14.00">कर्ता</text>
</g>
<!-- Node13_1 -->
<g id="node20" class="node">
<title>Node13_1</title>
<ellipse fill="#00bfff" stroke="#00bfff" cx="635" cy="-34" rx="77.19" ry="18"/>
<text text-anchor="middle" x="635" y="-30.3" font-family="Times,serif" font-size="14.00">सुपरिपालितः(13.1)</text>
</g>
<!-- Node13_1&#45;&gt;Node14 -->
<g id="edge11" class="edge">
<title>Node13_1&#45;&gt;Node14</title>
<path fill="none" stroke="black" d="M605.81,-57.64C593.32,-66.77 578.34,-77.01 564,-85 544.94,-95.63 522,-105.16 505.23,-111.59"/>
<polygon fill="black" stroke="black" points="608.08,-60.32 614.02,-51.54 603.9,-54.7 608.08,-60.32"/>
<text text-anchor="middle" x="625" y="-73.8" font-family="Times,serif" font-size="14.00">विधेय_विशेषणम्</text>
</g>
<!-- Node14_1 -->
<g id="node21" class="node">
<title>Node14_1</title>
<ellipse fill="#ff1975" stroke="#ff1975" cx="1736" cy="-34" rx="59.59" ry="18"/>
<text text-anchor="middle" x="1736" y="-30.3" font-family="Times,serif" font-size="14.00">(भवतु)(14.1)</text>
</g>
</g>
</svg>
