<?xml version="1.0" encoding="UTF-8" standalone="no"?>
<!DOCTYPE svg PUBLIC "-//W3C//DTD SVG 1.1//EN"
 "http://www.w3.org/Graphics/SVG/1.1/DTD/svg11.dtd">
<!-- Generated by graphviz version 2.43.0 (0)
 -->
<!-- Title: G Pages: 1 -->
<svg width="1081pt" height="408pt"
 viewBox="0.00 0.00 1080.69 408.00" xmlns="http://www.w3.org/2000/svg" xmlns:xlink="http://www.w3.org/1999/xlink">
<g id="graph0" class="graph" transform="scale(1 1) rotate(0) translate(4 404)">
<title>G</title>
<polygon fill="#fffacd" stroke="transparent" points="-4,4 -4,-404 1076.69,-404 1076.69,4 -4,4"/>
<g id="clust1" class="cluster">
<title>cluster_1</title>
<polygon fill="#fffacd" stroke="black" points="796,-166 796,-392 937,-392 937,-166 796,-166"/>
</g>
<g id="clust2" class="cluster">
<title>cluster_2</title>
<polygon fill="#fffacd" stroke="black" points="8,-166 8,-305 589,-305 589,-166 8,-166"/>
</g>
<!-- Node1_3 -->
<g id="node1" class="node">
<title>Node1_3</title>
<ellipse fill="#00bfff" stroke="#00bfff" cx="869" cy="-192" rx="59.59" ry="18"/>
<text text-anchor="middle" x="869" y="-188.3" font-family="Times,serif" font-size="14.00">अभिभूतः(1.3)</text>
</g>
<!-- Node2_3 -->
<g id="node2" class="node">
<title>Node2_3</title>
<ellipse fill="#00bfff" stroke="#00bfff" cx="872" cy="-279" rx="54.69" ry="18"/>
<text text-anchor="middle" x="872" y="-275.3" font-family="Times,serif" font-size="14.00">(अहम्)(2.3)</text>
</g>
<!-- Node1_3&#45;&gt;Node2_3 -->
<g id="edge3" class="edge">
<title>Node1_3&#45;&gt;Node2_3</title>
<path fill="none" stroke="black" d="M869.96,-220.27C870.43,-233.58 870.98,-249.19 871.39,-260.82"/>
<polygon fill="black" stroke="black" points="873.46,-220.07 869.61,-210.2 866.46,-220.32 873.46,-220.07"/>
<text text-anchor="middle" x="892.5" y="-231.8" font-family="Times,serif" font-size="14.00">विशेषणम्</text>
</g>
<!-- Node2_2 -->
<g id="node3" class="node">
<title>Node2_2</title>
<ellipse fill="#00bfff" stroke="#00bfff" cx="853" cy="-366" rx="48.99" ry="18"/>
<text text-anchor="middle" x="853" y="-362.3" font-family="Times,serif" font-size="14.00">उक्तः(2.2)</text>
</g>
<!-- Node2_3&#45;&gt;Node2_2 -->
<g id="edge8" class="edge">
<title>Node2_3&#45;&gt;Node2_2</title>
<path fill="none" stroke="black" stroke-dasharray="1,5" d="M831.81,-299.95C826.67,-304.2 822.12,-309.2 819,-315 812.53,-327.02 821.4,-339.72 831.7,-349.32"/>
<polygon fill="black" stroke="black" points="834.19,-302.55 840.25,-293.86 830.09,-296.87 834.19,-302.55"/>
<text text-anchor="middle" x="838.5" y="-318.8" font-family="Times,serif" font-size="14.00">गौणकर्म</text>
</g>
<!-- Node2_5 -->
<g id="node13" class="node">
<title>Node2_5</title>
<ellipse fill="#ff1975" stroke="#ff1975" cx="1009" cy="-366" rx="63.89" ry="18"/>
<text text-anchor="middle" x="1009" y="-362.3" font-family="Times,serif" font-size="14.00">(अश्रौषम्)(2.5)</text>
</g>
<!-- Node2_3&#45;&gt;Node2_5 -->
<g id="edge7" class="edge">
<title>Node2_3&#45;&gt;Node2_5</title>
<path fill="none" stroke="black" d="M905.01,-300.48C929.23,-315.51 961.63,-335.61 983.79,-349.36"/>
<polygon fill="black" stroke="black" points="906.84,-297.49 896.49,-295.2 903.14,-303.44 906.84,-297.49"/>
<text text-anchor="middle" x="959" y="-318.8" font-family="Times,serif" font-size="14.00">कर्ता</text>
</g>
<!-- Node2_2&#45;&gt;Node2_3 -->
<g id="edge6" class="edge">
<title>Node2_2&#45;&gt;Node2_3</title>
<path fill="none" stroke="black" d="M860.05,-338.19C860.73,-335.43 861.39,-332.66 862,-330 864.48,-319.13 866.94,-306.84 868.8,-297.17"/>
<polygon fill="black" stroke="black" points="856.64,-337.4 857.58,-347.96 863.43,-339.12 856.64,-337.4"/>
<text text-anchor="middle" x="886.5" y="-318.8" font-family="Times,serif" font-size="14.00">विशेषणम्</text>
</g>
<!-- Node3_1 -->
<g id="node4" class="node">
<title>Node3_1</title>
<ellipse fill="#40e0d0" stroke="#40e0d0" cx="519" cy="-192" rx="62.29" ry="18"/>
<text text-anchor="middle" x="519" y="-188.3" font-family="Times,serif" font-size="14.00">मनीषिभिः(3.1)</text>
</g>
<!-- Node8_1 -->
<g id="node5" class="node">
<title>Node8_1</title>
<ellipse fill="#40e0d0" stroke="#40e0d0" cx="426" cy="-279" rx="50.09" ry="18"/>
<text text-anchor="middle" x="426" y="-275.3" font-family="Times,serif" font-size="14.00">कृपेण(8.1)</text>
</g>
<!-- Node3_1&#45;&gt;Node8_1 -->
<g id="edge10" class="edge">
<title>Node3_1&#45;&gt;Node8_1</title>
<path fill="none" stroke="black" d="M493.65,-216.17C477.77,-230.68 457.7,-249.03 443.56,-261.95"/>
<polygon fill="black" stroke="black" points="496.05,-218.72 501.07,-209.39 491.33,-213.55 496.05,-218.72"/>
<text text-anchor="middle" x="500.5" y="-231.8" font-family="Times,serif" font-size="14.00">विशेषणम्</text>
</g>
<!-- Node8_1&#45;&gt;Node2_2 -->
<g id="edge16" class="edge">
<title>Node8_1&#45;&gt;Node2_2</title>
<path fill="none" stroke="black" d="M478.74,-290.65C529.13,-300.82 607.23,-316.53 675,-330 721.49,-339.24 774.84,-349.71 810.91,-356.77"/>
<polygon fill="black" stroke="black" points="479.22,-287.18 468.73,-288.63 477.84,-294.04 479.22,-287.18"/>
<text text-anchor="middle" x="686" y="-318.8" font-family="Times,serif" font-size="14.00">कर्ता</text>
</g>
<!-- Node4_1 -->
<g id="node6" class="node">
<title>Node4_1</title>
<ellipse fill="#ff99ff" stroke="#ff99ff" cx="306" cy="-192" rx="44.39" ry="18"/>
<text text-anchor="middle" x="306" y="-188.3" font-family="Times,serif" font-size="14.00">अथ(4.1)</text>
</g>
<!-- Node4_1&#45;&gt;Node8_1 -->
<g id="edge11" class="edge">
<title>Node4_1&#45;&gt;Node8_1</title>
<path fill="none" stroke="black" d="M335.53,-213.92C356.79,-228.97 384.99,-248.95 404.22,-262.58"/>
<polygon fill="black" stroke="black" points="337.36,-210.92 327.18,-208 333.31,-216.64 337.36,-210.92"/>
<text text-anchor="middle" x="395.5" y="-231.8" font-family="Times,serif" font-size="14.00">समुच्चितः</text>
</g>
<!-- Node4_1&#45;&gt;Node4_1 -->
<g id="edge12" class="edge">
<title>Node4_1&#45;&gt;Node4_1</title>
<path fill="none" stroke="black" d="M356.05,-184.9C363.31,-186.03 368.2,-188.4 368.2,-192 368.2,-197.13 358.31,-199.75 345.78,-199.87"/>
<polygon fill="black" stroke="black" points="356.01,-181.39 345.78,-184.13 355.49,-188.37 356.01,-181.39"/>
<text text-anchor="middle" x="403.2" y="-188.3" font-family="Times,serif" font-size="14.00">समुच्चयद्योतकः</text>
</g>
<!-- Node5_1 -->
<g id="node7" class="node">
<title>Node5_1</title>
<ellipse fill="#40e0d0" stroke="#40e0d0" cx="189" cy="-192" rx="54.69" ry="18"/>
<text text-anchor="middle" x="189" y="-188.3" font-family="Times,serif" font-size="14.00">भीष्मेण(5.1)</text>
</g>
<!-- Node5_1&#45;&gt;Node8_1 -->
<g id="edge13" class="edge">
<title>Node5_1&#45;&gt;Node8_1</title>
<path fill="none" stroke="black" d="M229.69,-211.19C252.73,-221.18 282.22,-233.44 309,-243 334.76,-252.19 364.27,-261.01 387.2,-267.49"/>
<polygon fill="black" stroke="black" points="230.8,-207.86 220.23,-207.07 228,-214.27 230.8,-207.86"/>
<text text-anchor="middle" x="331.5" y="-231.8" font-family="Times,serif" font-size="14.00">समुच्चितः</text>
</g>
<!-- Node6_1 -->
<g id="node8" class="node">
<title>Node6_1</title>
<ellipse fill="#40e0d0" stroke="#40e0d0" cx="66" cy="-192" rx="50.09" ry="18"/>
<text text-anchor="middle" x="66" y="-188.3" font-family="Times,serif" font-size="14.00">द्रोणेन(6.1)</text>
</g>
<!-- Node6_1&#45;&gt;Node8_1 -->
<g id="edge14" class="edge">
<title>Node6_1&#45;&gt;Node8_1</title>
<path fill="none" stroke="black" d="M109.62,-208.67C140.87,-219.46 184.13,-233.51 223,-243 276.16,-255.98 338.28,-265.95 379.67,-271.87"/>
<polygon fill="black" stroke="black" points="110.51,-205.28 99.92,-205.3 108.21,-211.89 110.51,-205.28"/>
<text text-anchor="middle" x="245.5" y="-231.8" font-family="Times,serif" font-size="14.00">समुच्चितः</text>
</g>
<!-- Node1_1 -->
<g id="node9" class="node">
<title>Node1_1</title>
<ellipse fill="#ffff00" stroke="#ffff00" cx="869" cy="-18" rx="45.49" ry="18"/>
<text text-anchor="middle" x="869" y="-14.3" font-family="Times,serif" font-size="14.00">पुत्र&#45;(1.1)</text>
</g>
<!-- Node1_2 -->
<g id="node10" class="node">
<title>Node1_2</title>
<ellipse fill="#ffff00" stroke="#ffff00" cx="869" cy="-105" rx="48.19" ry="18"/>
<text text-anchor="middle" x="869" y="-101.3" font-family="Times,serif" font-size="14.00">स्नेह&#45;(1.2)</text>
</g>
<!-- Node1_1&#45;&gt;Node1_2 -->
<g id="edge1" class="edge">
<title>Node1_1&#45;&gt;Node1_2</title>
<path fill="none" stroke="black" d="M869,-46.27C869,-59.58 869,-75.19 869,-86.82"/>
<polygon fill="black" stroke="black" points="872.5,-46.2 869,-36.2 865.5,-46.2 872.5,-46.2"/>
<text text-anchor="middle" x="878.5" y="-57.8" font-family="Times,serif" font-size="14.00">T6</text>
</g>
<!-- Node1_2&#45;&gt;Node1_3 -->
<g id="edge2" class="edge">
<title>Node1_2&#45;&gt;Node1_3</title>
<path fill="none" stroke="black" d="M869,-133.27C869,-146.58 869,-162.19 869,-173.82"/>
<polygon fill="black" stroke="black" points="872.5,-133.2 869,-123.2 865.5,-133.2 872.5,-133.2"/>
<text text-anchor="middle" x="878.5" y="-144.8" font-family="Times,serif" font-size="14.00">T3</text>
</g>
<!-- Node1_4 -->
<g id="node11" class="node">
<title>Node1_4</title>
<ellipse fill="#93db70" stroke="#93db70" cx="635" cy="-279" rx="37.89" ry="18"/>
<text text-anchor="middle" x="635" y="-275.3" font-family="Times,serif" font-size="14.00">च(1.4)</text>
</g>
<!-- Node1_4&#45;&gt;Node2_2 -->
<g id="edge4" class="edge">
<title>Node1_4&#45;&gt;Node2_2</title>
<path fill="none" stroke="black" d="M667.67,-298.09C672.13,-300.46 676.66,-302.82 681,-305 704.63,-316.88 710.26,-320.66 735,-330 760.99,-339.81 791.01,-348.68 814.27,-355.04"/>
<polygon fill="black" stroke="black" points="669.19,-294.93 658.72,-293.27 665.87,-301.09 669.19,-294.93"/>
<text text-anchor="middle" x="753.5" y="-318.8" font-family="Times,serif" font-size="14.00">सम्बन्धः</text>
</g>
<!-- Node2_1 -->
<g id="node12" class="node">
<title>Node2_1</title>
<ellipse fill="#93db70" stroke="#93db70" cx="739" cy="-279" rx="48.99" ry="18"/>
<text text-anchor="middle" x="739" y="-275.3" font-family="Times,serif" font-size="14.00">हितम्(2.1)</text>
</g>
<!-- Node2_1&#45;&gt;Node2_2 -->
<g id="edge5" class="edge">
<title>Node2_1&#45;&gt;Node2_2</title>
<path fill="none" stroke="black" d="M762.54,-303.34C771.96,-312.14 783.14,-321.97 794,-330 804.15,-337.5 816.01,-344.8 826.43,-350.76"/>
<polygon fill="black" stroke="black" points="764.75,-300.6 755.09,-296.24 759.92,-305.67 764.75,-300.6"/>
<text text-anchor="middle" x="803" y="-318.8" font-family="Times,serif" font-size="14.00">कर्म</text>
</g>
<!-- Node2_4 -->
<g id="node14" class="node">
<title>Node2_4</title>
<ellipse fill="#ff99ff" stroke="#ff99ff" cx="1009" cy="-279" rx="44.39" ry="18"/>
<text text-anchor="middle" x="1009" y="-275.3" font-family="Times,serif" font-size="14.00">(न)(2.4)</text>
</g>
<!-- Node2_4&#45;&gt;Node2_5 -->
<g id="edge9" class="edge">
<title>Node2_4&#45;&gt;Node2_5</title>
<path fill="none" stroke="black" d="M1009,-307.27C1009,-320.58 1009,-336.19 1009,-347.82"/>
<polygon fill="black" stroke="black" points="1012.5,-307.2 1009,-297.2 1005.5,-307.2 1012.5,-307.2"/>
<text text-anchor="middle" x="1024.5" y="-318.8" font-family="Times,serif" font-size="14.00">निषेधः</text>
</g>
<!-- Node7_1 -->
<g id="node15" class="node">
<title>Node7_1</title>
<ellipse fill="#ff99ff" stroke="#ff99ff" cx="66" cy="-105" rx="37.89" ry="18"/>
<text text-anchor="middle" x="66" y="-101.3" font-family="Times,serif" font-size="14.00">च(7.1)</text>
</g>
<!-- Node7_1&#45;&gt;Node6_1 -->
<g id="edge15" class="edge">
<title>Node7_1&#45;&gt;Node6_1</title>
<path fill="none" stroke="black" d="M66,-133.27C66,-146.58 66,-162.19 66,-173.82"/>
<polygon fill="black" stroke="black" points="69.5,-133.2 66,-123.2 62.5,-133.2 69.5,-133.2"/>
<text text-anchor="middle" x="84.5" y="-144.8" font-family="Times,serif" font-size="14.00">सम्बन्धः</text>
</g>
<!-- Node9_1 -->
<g id="node16" class="node">
<title>Node9_1</title>
<ellipse fill="#ff99ff" stroke="#ff99ff" cx="637" cy="-192" rx="37.89" ry="18"/>
<text text-anchor="middle" x="637" y="-188.3" font-family="Times,serif" font-size="14.00">च(9.1)</text>
</g>
<!-- Node9_1&#45;&gt;Node8_1 -->
<g id="edge17" class="edge">
<title>Node9_1&#45;&gt;Node8_1</title>
<path fill="none" stroke="black" d="M602.45,-209.7C580.96,-219.85 552.62,-232.76 527,-243 505.8,-251.47 481.66,-259.88 462.29,-266.33"/>
<polygon fill="black" stroke="black" points="603.98,-212.85 611.51,-205.4 600.98,-206.53 603.98,-212.85"/>
<text text-anchor="middle" x="578.5" y="-231.8" font-family="Times,serif" font-size="14.00">सम्बन्धः</text>
</g>
</g>
</svg>
