<?xml version="1.0" encoding="UTF-8" standalone="no"?>
<!DOCTYPE svg PUBLIC "-//W3C//DTD SVG 1.1//EN"
 "http://www.w3.org/Graphics/SVG/1.1/DTD/svg11.dtd">
<!-- Generated by graphviz version 2.43.0 (0)
 -->
<!-- Title: G Pages: 1 -->
<svg width="780pt" height="582pt"
 viewBox="0.00 0.00 779.70 582.00" xmlns="http://www.w3.org/2000/svg" xmlns:xlink="http://www.w3.org/1999/xlink">
<g id="graph0" class="graph" transform="scale(1 1) rotate(0) translate(4 578)">
<title>G</title>
<polygon fill="#fffacd" stroke="transparent" points="-4,4 -4,-578 775.7,-578 775.7,4 -4,4"/>
<g id="clust1" class="cluster">
<title>cluster_1</title>
<polygon fill="#fffacd" stroke="black" points="236.7,-253 236.7,-392 596.7,-392 596.7,-253 236.7,-253"/>
</g>
<g id="clust2" class="cluster">
<title>cluster_2</title>
<polygon fill="#fffacd" stroke="black" points="114.7,-427 114.7,-566 250.7,-566 250.7,-427 114.7,-427"/>
</g>
<!-- Node5_2 -->
<g id="node1" class="node">
<title>Node5_2</title>
<ellipse fill="#00bfff" stroke="#00bfff" cx="534.7" cy="-279" rx="53.89" ry="18"/>
<text text-anchor="middle" x="534.7" y="-275.3" font-family="Times,serif" font-size="14.00">हारिणः(5.2)</text>
</g>
<!-- Node7_1 -->
<g id="node2" class="node">
<title>Node7_1</title>
<ellipse fill="#00bfff" stroke="#00bfff" cx="307.7" cy="-366" rx="53.89" ry="18"/>
<text text-anchor="middle" x="307.7" y="-362.3" font-family="Times,serif" font-size="14.00">नृशंसाः(7.1)</text>
</g>
<!-- Node5_2&#45;&gt;Node7_1 -->
<g id="edge6" class="edge">
<title>Node5_2&#45;&gt;Node7_1</title>
<path fill="none" stroke="black" d="M496.18,-298.84C475.05,-308.79 448.24,-320.81 423.7,-330 399.07,-339.22 370.84,-347.78 348.39,-354.13"/>
<polygon fill="black" stroke="black" points="497.92,-301.89 505.45,-294.43 494.92,-295.57 497.92,-301.89"/>
<text text-anchor="middle" x="480.2" y="-318.8" font-family="Times,serif" font-size="14.00">विशेषणम्</text>
</g>
<!-- Node12_1 -->
<g id="node5" class="node">
<title>Node12_1</title>
<ellipse fill="#00bfff" stroke="#00bfff" cx="182.7" cy="-453" rx="59.59" ry="18"/>
<text text-anchor="middle" x="182.7" y="-449.3" font-family="Times,serif" font-size="14.00">निहताः(12.1)</text>
</g>
<!-- Node7_1&#45;&gt;Node12_1 -->
<g id="edge8" class="edge">
<title>Node7_1&#45;&gt;Node12_1</title>
<path fill="none" stroke="black" d="M276.75,-388.04C254.86,-402.93 225.97,-422.57 206.01,-436.15"/>
<polygon fill="black" stroke="black" points="278.76,-390.91 285.06,-382.39 274.82,-385.12 278.76,-390.91"/>
<text text-anchor="middle" x="260.7" y="-405.8" font-family="Times,serif" font-size="14.00">कर्म</text>
</g>
<!-- Node8_1 -->
<g id="node3" class="node">
<title>Node8_1</title>
<ellipse fill="#00bfff" stroke="#00bfff" cx="425.7" cy="-279" rx="37.09" ry="18"/>
<text text-anchor="middle" x="425.7" y="-275.3" font-family="Times,serif" font-size="14.00">ते(8.1)</text>
</g>
<!-- Node8_1&#45;&gt;Node7_1 -->
<g id="edge9" class="edge">
<title>Node8_1&#45;&gt;Node7_1</title>
<path fill="none" stroke="black" d="M397.57,-300.45C385.07,-309.52 370.16,-320.31 356.7,-330 347.87,-336.35 338.13,-343.32 329.67,-349.35"/>
<polygon fill="black" stroke="black" points="399.76,-303.18 405.79,-294.48 395.64,-297.52 399.76,-303.18"/>
<text text-anchor="middle" x="397.2" y="-318.8" font-family="Times,serif" font-size="14.00">विशेषणम्</text>
</g>
<!-- Node9_1 -->
<g id="node4" class="node">
<title>Node9_1</title>
<ellipse fill="#00bfff" stroke="#00bfff" cx="307.7" cy="-279" rx="63.09" ry="18"/>
<text text-anchor="middle" x="307.7" y="-275.3" font-family="Times,serif" font-size="14.00">अपकर्तारः(9.1)</text>
</g>
<!-- Node9_1&#45;&gt;Node7_1 -->
<g id="edge10" class="edge">
<title>Node9_1&#45;&gt;Node7_1</title>
<path fill="none" stroke="black" d="M307.7,-307.27C307.7,-320.58 307.7,-336.19 307.7,-347.82"/>
<polygon fill="black" stroke="black" points="311.2,-307.2 307.7,-297.2 304.2,-307.2 311.2,-307.2"/>
<text text-anchor="middle" x="330.2" y="-318.8" font-family="Times,serif" font-size="14.00">विशेषणम्</text>
</g>
<!-- Node6_1 -->
<g id="node6" class="node">
<title>Node6_1</title>
<ellipse fill="#00bfff" stroke="#00bfff" cx="182.7" cy="-540" rx="59.59" ry="18"/>
<text text-anchor="middle" x="182.7" y="-536.3" font-family="Times,serif" font-size="14.00">समतीताः(6.1)</text>
</g>
<!-- Node12_1&#45;&gt;Node6_1 -->
<g id="edge13" class="edge">
<title>Node12_1&#45;&gt;Node6_1</title>
<path fill="none" stroke="black" d="M182.7,-481.27C182.7,-494.58 182.7,-510.19 182.7,-521.82"/>
<polygon fill="black" stroke="black" points="186.2,-481.2 182.7,-471.2 179.2,-481.2 186.2,-481.2"/>
<text text-anchor="middle" x="205.2" y="-492.8" font-family="Times,serif" font-size="14.00">विशेषणम्</text>
</g>
<!-- Node6_1&#45;&gt;Node7_1 -->
<g id="edge7" class="edge">
<title>Node6_1&#45;&gt;Node7_1</title>
<path fill="none" stroke="black" d="M216.62,-517.55C221.98,-513.4 227.22,-508.83 231.7,-504 265.91,-467.1 290.36,-411.99 301.3,-384.25"/>
<polygon fill="black" stroke="black" points="214.21,-514.98 208.19,-523.7 218.34,-520.63 214.21,-514.98"/>
<text text-anchor="middle" x="317.2" y="-449.3" font-family="Times,serif" font-size="14.00">विधेयविशेषणम्</text>
</g>
<!-- Node1_1 -->
<g id="node7" class="node">
<title>Node1_1</title>
<ellipse fill="#87ceeb" stroke="#87ceeb" cx="307.7" cy="-192" rx="53.89" ry="18"/>
<text text-anchor="middle" x="307.7" y="-188.3" font-family="Times,serif" font-size="14.00">द्रौपद्याः(1.1)</text>
</g>
<!-- Node1_1&#45;&gt;Node9_1 -->
<g id="edge1" class="edge">
<title>Node1_1&#45;&gt;Node9_1</title>
<path fill="none" stroke="black" d="M307.7,-220.27C307.7,-233.58 307.7,-249.19 307.7,-260.82"/>
<polygon fill="black" stroke="black" points="311.2,-220.2 307.7,-210.2 304.2,-220.2 311.2,-220.2"/>
<text text-anchor="middle" x="335.2" y="-231.8" font-family="Times,serif" font-size="14.00">षष्ठीसम्बन्धः</text>
</g>
<!-- Node2_1 -->
<g id="node8" class="node">
<title>Node2_1</title>
<ellipse fill="#ff99ff" stroke="#ff99ff" cx="307.7" cy="-105" rx="38.99" ry="18"/>
<text text-anchor="middle" x="307.7" y="-101.3" font-family="Times,serif" font-size="14.00">हि(2.1)</text>
</g>
<!-- Node2_1&#45;&gt;Node1_1 -->
<g id="edge2" class="edge">
<title>Node2_1&#45;&gt;Node1_1</title>
<path fill="none" stroke="black" d="M307.7,-133.27C307.7,-146.58 307.7,-162.19 307.7,-173.82"/>
<polygon fill="black" stroke="black" points="311.2,-133.2 307.7,-123.2 304.2,-133.2 311.2,-133.2"/>
<text text-anchor="middle" x="326.2" y="-144.8" font-family="Times,serif" font-size="14.00">सम्बन्धः</text>
</g>
<!-- Node3_1 -->
<g id="node9" class="node">
<title>Node3_1</title>
<ellipse fill="#87ceeb" stroke="#87ceeb" cx="534.7" cy="-105" rx="41.69" ry="18"/>
<text text-anchor="middle" x="534.7" y="-101.3" font-family="Times,serif" font-size="14.00">तव(3.1)</text>
</g>
<!-- Node5_1 -->
<g id="node10" class="node">
<title>Node5_1</title>
<ellipse fill="#00bfff" stroke="#00bfff" cx="534.7" cy="-192" rx="51.19" ry="18"/>
<text text-anchor="middle" x="534.7" y="-188.3" font-family="Times,serif" font-size="14.00">ऐश्वर्य&#45;(5.1)</text>
</g>
<!-- Node3_1&#45;&gt;Node5_1 -->
<g id="edge3" class="edge">
<title>Node3_1&#45;&gt;Node5_1</title>
<path fill="none" stroke="black" d="M534.7,-133.27C534.7,-146.58 534.7,-162.19 534.7,-173.82"/>
<polygon fill="black" stroke="black" points="538.2,-133.2 534.7,-123.2 531.2,-133.2 538.2,-133.2"/>
<text text-anchor="middle" x="562.2" y="-144.8" font-family="Times,serif" font-size="14.00">षष्ठीसम्बन्धः</text>
</g>
<!-- Node5_1&#45;&gt;Node5_2 -->
<g id="edge5" class="edge">
<title>Node5_1&#45;&gt;Node5_2</title>
<path fill="none" stroke="black" d="M534.7,-220.27C534.7,-233.58 534.7,-249.19 534.7,-260.82"/>
<polygon fill="black" stroke="black" points="538.2,-220.2 534.7,-210.2 531.2,-220.2 538.2,-220.2"/>
<text text-anchor="middle" x="551.7" y="-231.8" font-family="Times,serif" font-size="14.00">समासः</text>
</g>
<!-- Node4_1 -->
<g id="node11" class="node">
<title>Node4_1</title>
<ellipse fill="#ff99ff" stroke="#ff99ff" cx="534.7" cy="-18" rx="37.89" ry="18"/>
<text text-anchor="middle" x="534.7" y="-14.3" font-family="Times,serif" font-size="14.00">च(4.1)</text>
</g>
<!-- Node4_1&#45;&gt;Node3_1 -->
<g id="edge4" class="edge">
<title>Node4_1&#45;&gt;Node3_1</title>
<path fill="none" stroke="black" d="M534.7,-46.27C534.7,-59.58 534.7,-75.19 534.7,-86.82"/>
<polygon fill="black" stroke="black" points="538.2,-46.2 534.7,-36.2 531.2,-46.2 538.2,-46.2"/>
<text text-anchor="middle" x="553.2" y="-57.8" font-family="Times,serif" font-size="14.00">सम्बन्धः</text>
</g>
<!-- Node6_2 -->
<g id="node12" class="node">
<title>Node6_2</title>
<ellipse fill="#ff1975" stroke="#ff1975" cx="644.7" cy="-18" rx="54.69" ry="18"/>
<text text-anchor="middle" x="644.7" y="-14.3" font-family="Times,serif" font-size="14.00">(सन्ति)(6.2)</text>
</g>
<!-- Node7_2 -->
<g id="node13" class="node">
<title>Node7_2</title>
<ellipse fill="lightgrey" stroke="black" cx="744.7" cy="-18" rx="27" ry="18"/>
</g>
<!-- Node10_1 -->
<g id="node14" class="node">
<title>Node10_1</title>
<ellipse fill="#c6e2eb" stroke="#c6e2eb" cx="50.7" cy="-366" rx="50.89" ry="18"/>
<text text-anchor="middle" x="50.7" y="-362.3" font-family="Times,serif" font-size="14.00">युधि(10.1)</text>
</g>
<!-- Node10_1&#45;&gt;Node12_1 -->
<g id="edge11" class="edge">
<title>Node10_1&#45;&gt;Node12_1</title>
<path fill="none" stroke="black" d="M78.26,-389C90.12,-398.09 104.3,-408.46 117.7,-417 128.94,-424.17 141.77,-431.28 153.05,-437.21"/>
<polygon fill="black" stroke="black" points="80.13,-386.03 70.09,-382.67 75.84,-391.56 80.13,-386.03"/>
<text text-anchor="middle" x="145.2" y="-405.8" font-family="Times,serif" font-size="14.00">अधिकरणम्</text>
</g>
<!-- Node11_1 -->
<g id="node15" class="node">
<title>Node11_1</title>
<ellipse fill="#40e0d0" stroke="#40e0d0" cx="173.7" cy="-366" rx="54.69" ry="18"/>
<text text-anchor="middle" x="173.7" y="-362.3" font-family="Times,serif" font-size="14.00">धर्मेण(11.1)</text>
</g>
<!-- Node11_1&#45;&gt;Node12_1 -->
<g id="edge12" class="edge">
<title>Node11_1&#45;&gt;Node12_1</title>
<path fill="none" stroke="black" d="M176.58,-394.27C177.99,-407.58 179.65,-423.19 180.88,-434.82"/>
<polygon fill="black" stroke="black" points="180.05,-393.78 175.52,-384.2 173.09,-394.51 180.05,-393.78"/>
<text text-anchor="middle" x="188.2" y="-405.8" font-family="Times,serif" font-size="14.00">हेतुः</text>
</g>
</g>
</svg>
