<?xml version="1.0" encoding="UTF-8" standalone="no"?>
<!DOCTYPE svg PUBLIC "-//W3C//DTD SVG 1.1//EN"
 "http://www.w3.org/Graphics/SVG/1.1/DTD/svg11.dtd">
<!-- Generated by graphviz version 2.43.0 (0)
 -->
<!-- Title: G Pages: 1 -->
<svg width="739pt" height="392pt"
 viewBox="0.00 0.00 738.64 392.00" xmlns="http://www.w3.org/2000/svg" xmlns:xlink="http://www.w3.org/1999/xlink">
<g id="graph0" class="graph" transform="scale(1 1) rotate(0) translate(4 388)">
<title>G</title>
<polygon fill="#fffacd" stroke="transparent" points="-4,4 -4,-388 734.64,-388 734.64,4 -4,4"/>
<!-- Node1_1 -->
<g id="node1" class="node">
<title>Node1_1</title>
<ellipse fill="#6fffc3" stroke="#6fffc3" cx="59.79" cy="-105" rx="59.59" ry="18"/>
<text text-anchor="middle" x="59.79" y="-101.3" font-family="Times,serif" font-size="14.00">कुरुनन्दन(1.1)</text>
</g>
<!-- Node6_1 -->
<g id="node2" class="node">
<title>Node6_1</title>
<ellipse fill="#ff1975" stroke="#ff1975" cx="224.79" cy="-192" rx="46.29" ry="18"/>
<text text-anchor="middle" x="224.79" y="-188.3" font-family="Times,serif" font-size="14.00">वर्तते(6.1)</text>
</g>
<!-- Node1_1&#45;&gt;Node6_1 -->
<g id="edge1" class="edge">
<title>Node1_1&#45;&gt;Node6_1</title>
<path fill="none" stroke="black" d="M95.51,-126.28C112.18,-135.57 132.37,-146.59 150.79,-156 165.48,-163.5 182.05,-171.39 195.78,-177.77"/>
<polygon fill="black" stroke="black" points="97.08,-123.14 86.64,-121.31 93.66,-129.25 97.08,-123.14"/>
<text text-anchor="middle" x="171.79" y="-144.8" font-family="Times,serif" font-size="14.00">सम्बोध्यः</text>
</g>
<!-- Node2_1 -->
<g id="node3" class="node">
<title>Node2_1</title>
<ellipse fill="#6fffc3" stroke="#6fffc3" cx="181.79" cy="-105" rx="44.39" ry="18"/>
<text text-anchor="middle" x="181.79" y="-101.3" font-family="Times,serif" font-size="14.00">तात(2.1)</text>
</g>
<!-- Node2_1&#45;&gt;Node6_1 -->
<g id="edge2" class="edge">
<title>Node2_1&#45;&gt;Node6_1</title>
<path fill="none" stroke="black" d="M192.6,-132.24C195.99,-139.99 199.87,-148.42 203.79,-156 206.92,-162.04 210.66,-168.47 214.1,-174.15"/>
<polygon fill="black" stroke="black" points="195.76,-130.73 188.61,-122.91 189.33,-133.48 195.76,-130.73"/>
<text text-anchor="middle" x="224.79" y="-144.8" font-family="Times,serif" font-size="14.00">सम्बोध्यः</text>
</g>
<!-- Node3_1 -->
<g id="node4" class="node">
<title>Node3_1</title>
<ellipse fill="#87ceeb" stroke="#87ceeb" cx="287.79" cy="-18" rx="37.09" ry="18"/>
<text text-anchor="middle" x="287.79" y="-14.3" font-family="Times,serif" font-size="14.00">मे(3.1)</text>
</g>
<!-- Node4_1 -->
<g id="node5" class="node">
<title>Node4_1</title>
<ellipse fill="#00bfff" stroke="#00bfff" cx="287.79" cy="-105" rx="44.39" ry="18"/>
<text text-anchor="middle" x="287.79" y="-101.3" font-family="Times,serif" font-size="14.00">मनः(4.1)</text>
</g>
<!-- Node3_1&#45;&gt;Node4_1 -->
<g id="edge3" class="edge">
<title>Node3_1&#45;&gt;Node4_1</title>
<path fill="none" stroke="black" d="M287.79,-46.27C287.79,-59.58 287.79,-75.19 287.79,-86.82"/>
<polygon fill="black" stroke="black" points="291.29,-46.2 287.79,-36.2 284.29,-46.2 291.29,-46.2"/>
<text text-anchor="middle" x="315.29" y="-57.8" font-family="Times,serif" font-size="14.00">षष्ठीसम्बन्धः</text>
</g>
<!-- Node4_1&#45;&gt;Node6_1 -->
<g id="edge4" class="edge">
<title>Node4_1&#45;&gt;Node6_1</title>
<path fill="none" stroke="black" d="M269.52,-130.65C259.11,-144.7 246.34,-161.92 237.12,-174.37"/>
<polygon fill="black" stroke="black" points="272.5,-132.51 275.65,-122.39 266.88,-128.34 272.5,-132.51"/>
<text text-anchor="middle" x="271.79" y="-144.8" font-family="Times,serif" font-size="14.00">कर्ता</text>
</g>
<!-- Node5_1 -->
<g id="node6" class="node">
<title>Node5_1</title>
<ellipse fill="#c6e2eb" stroke="#c6e2eb" cx="402.79" cy="-105" rx="53.09" ry="18"/>
<text text-anchor="middle" x="402.79" y="-101.3" font-family="Times,serif" font-size="14.00">तापस्ये(5.1)</text>
</g>
<!-- Node5_1&#45;&gt;Node6_1 -->
<g id="edge5" class="edge">
<title>Node5_1&#45;&gt;Node6_1</title>
<path fill="none" stroke="black" d="M364.34,-124.36C330.75,-140.4 282.81,-163.3 252.76,-177.64"/>
<polygon fill="black" stroke="black" points="365.89,-127.5 373.4,-120.04 362.87,-121.19 365.89,-127.5"/>
<text text-anchor="middle" x="352.29" y="-144.8" font-family="Times,serif" font-size="14.00">अधिकरणम्</text>
</g>
<!-- Node7_1 -->
<g id="node7" class="node">
<title>Node7_1</title>
<ellipse fill="#6fffc3" stroke="#6fffc3" cx="519.79" cy="-105" rx="45.49" ry="18"/>
<text text-anchor="middle" x="519.79" y="-101.3" font-family="Times,serif" font-size="14.00">प्रभो(7.1)</text>
</g>
<!-- Node11_1 -->
<g id="node8" class="node">
<title>Node11_1</title>
<ellipse fill="#00bfff" stroke="#00bfff" cx="562.79" cy="-192" rx="59.59" ry="18"/>
<text text-anchor="middle" x="562.79" y="-188.3" font-family="Times,serif" font-size="14.00">उचितम्(11.1)</text>
</g>
<!-- Node7_1&#45;&gt;Node11_1 -->
<g id="edge6" class="edge">
<title>Node7_1&#45;&gt;Node11_1</title>
<path fill="none" stroke="black" d="M530.6,-132.24C533.99,-139.99 537.87,-148.42 541.79,-156 544.92,-162.04 548.66,-168.47 552.1,-174.15"/>
<polygon fill="black" stroke="black" points="533.76,-130.73 526.61,-122.91 527.33,-133.48 533.76,-130.73"/>
<text text-anchor="middle" x="562.79" y="-144.8" font-family="Times,serif" font-size="14.00">सम्बोध्यः</text>
</g>
<!-- Node10_1 -->
<g id="node11" class="node">
<title>Node10_1</title>
<ellipse fill="#00bfff" stroke="#00bfff" cx="623.79" cy="-279" rx="76.09" ry="18"/>
<text text-anchor="middle" x="623.79" y="-275.3" font-family="Times,serif" font-size="14.00">अरण्यगमनम्(10.1)</text>
</g>
<!-- Node11_1&#45;&gt;Node10_1 -->
<g id="edge10" class="edge">
<title>Node11_1&#45;&gt;Node10_1</title>
<path fill="none" stroke="black" d="M572.6,-219.41C576.16,-227.36 580.6,-235.86 585.79,-243 590.65,-249.67 596.92,-256.07 602.97,-261.53"/>
<polygon fill="black" stroke="black" points="575.8,-217.99 568.72,-210.11 569.35,-220.69 575.8,-217.99"/>
<text text-anchor="middle" x="624.79" y="-231.8" font-family="Times,serif" font-size="14.00">विधेय_विशेषणम्</text>
</g>
<!-- Node8_1 -->
<g id="node9" class="node">
<title>Node8_1</title>
<ellipse fill="#87ceeb" stroke="#87ceeb" cx="627.79" cy="-18" rx="61.19" ry="18"/>
<text text-anchor="middle" x="627.79" y="-14.3" font-family="Times,serif" font-size="14.00">अस्माकम्(8.1)</text>
</g>
<!-- Node9_1 -->
<g id="node10" class="node">
<title>Node9_1</title>
<ellipse fill="#c6e2eb" stroke="#c6e2eb" cx="627.79" cy="-105" rx="44.39" ry="18"/>
<text text-anchor="middle" x="627.79" y="-101.3" font-family="Times,serif" font-size="14.00">कुले(9.1)</text>
</g>
<!-- Node8_1&#45;&gt;Node9_1 -->
<g id="edge7" class="edge">
<title>Node8_1&#45;&gt;Node9_1</title>
<path fill="none" stroke="black" d="M627.79,-46.27C627.79,-59.58 627.79,-75.19 627.79,-86.82"/>
<polygon fill="black" stroke="black" points="631.29,-46.2 627.79,-36.2 624.29,-46.2 631.29,-46.2"/>
<text text-anchor="middle" x="655.29" y="-57.8" font-family="Times,serif" font-size="14.00">षष्ठीसम्बन्धः</text>
</g>
<!-- Node9_1&#45;&gt;Node11_1 -->
<g id="edge8" class="edge">
<title>Node9_1&#45;&gt;Node11_1</title>
<path fill="none" stroke="black" d="M608.94,-130.65C598.2,-144.7 585.03,-161.92 575.51,-174.37"/>
<polygon fill="black" stroke="black" points="611.97,-132.46 615.26,-122.39 606.41,-128.21 611.97,-132.46"/>
<text text-anchor="middle" x="627.29" y="-144.8" font-family="Times,serif" font-size="14.00">अधिकरणम्</text>
</g>
<!-- Node12_2 -->
<g id="node12" class="node">
<title>Node12_2</title>
<ellipse fill="#ff1975" stroke="#ff1975" cx="623.79" cy="-366" rx="62.29" ry="18"/>
<text text-anchor="middle" x="623.79" y="-362.3" font-family="Times,serif" font-size="14.00">(अस्ति)(12.2)</text>
</g>
<!-- Node10_1&#45;&gt;Node12_2 -->
<g id="edge9" class="edge">
<title>Node10_1&#45;&gt;Node12_2</title>
<path fill="none" stroke="black" d="M623.79,-307.27C623.79,-320.58 623.79,-336.19 623.79,-347.82"/>
<polygon fill="black" stroke="black" points="627.29,-307.2 623.79,-297.2 620.29,-307.2 627.29,-307.2"/>
<text text-anchor="middle" x="634.79" y="-318.8" font-family="Times,serif" font-size="14.00">कर्ता</text>
</g>
<!-- Node12_1 -->
<g id="node13" class="node">
<title>Node12_1</title>
<ellipse fill="#ff99ff" stroke="#ff99ff" cx="685.79" cy="-192" rx="44.69" ry="18"/>
<text text-anchor="middle" x="685.79" y="-188.3" font-family="Times,serif" font-size="14.00">हि(12.1)</text>
</g>
<!-- Node12_1&#45;&gt;Node10_1 -->
<g id="edge11" class="edge">
<title>Node12_1&#45;&gt;Node10_1</title>
<path fill="none" stroke="black" d="M676.68,-219.5C673.29,-227.45 668.98,-235.93 663.79,-243 658.77,-249.84 652.19,-256.29 645.82,-261.74"/>
<polygon fill="black" stroke="black" points="679.94,-220.78 680.35,-210.19 673.43,-218.21 679.94,-220.78"/>
<text text-anchor="middle" x="690.29" y="-231.8" font-family="Times,serif" font-size="14.00">सम्बन्धः</text>
</g>
</g>
</svg>
