<?xml version="1.0" encoding="UTF-8" standalone="no"?>
<!DOCTYPE svg PUBLIC "-//W3C//DTD SVG 1.1//EN"
 "http://www.w3.org/Graphics/SVG/1.1/DTD/svg11.dtd">
<!-- Generated by graphviz version 2.43.0 (0)
 -->
<!-- Title: G Pages: 1 -->
<svg width="750pt" height="305pt"
 viewBox="0.00 0.00 749.84 305.00" xmlns="http://www.w3.org/2000/svg" xmlns:xlink="http://www.w3.org/1999/xlink">
<g id="graph0" class="graph" transform="scale(1 1) rotate(0) translate(4 301)">
<title>G</title>
<polygon fill="#fffacd" stroke="transparent" points="-4,4 -4,-301 745.84,-301 745.84,4 -4,4"/>
<g id="clust1" class="cluster">
<title>cluster_1</title>
<polygon fill="#fffacd" stroke="black" points="8,-79 8,-218 242,-218 242,-79 8,-79"/>
</g>
<g id="clust2" class="cluster">
<title>cluster_2</title>
<polygon fill="#fffacd" stroke="black" points="250,-79 250,-218 378,-218 378,-79 250,-79"/>
</g>
<g id="clust3" class="cluster">
<title>cluster_3</title>
<polygon fill="#fffacd" stroke="black" points="386,-79 386,-218 512,-218 512,-79 386,-79"/>
</g>
<!-- Node3_1 -->
<g id="node1" class="node">
<title>Node3_1</title>
<ellipse fill="#00bfff" stroke="#00bfff" cx="180" cy="-105" rx="53.89" ry="18"/>
<text text-anchor="middle" x="180" y="-101.3" font-family="Times,serif" font-size="14.00">धर्मवित्(3.1)</text>
</g>
<!-- Node5_1 -->
<g id="node2" class="node">
<title>Node5_1</title>
<ellipse fill="#00bfff" stroke="#00bfff" cx="179" cy="-192" rx="55.49" ry="18"/>
<text text-anchor="middle" x="179" y="-188.3" font-family="Times,serif" font-size="14.00">पाण्डवः(5.1)</text>
</g>
<!-- Node3_1&#45;&gt;Node5_1 -->
<g id="edge3" class="edge">
<title>Node3_1&#45;&gt;Node5_1</title>
<path fill="none" stroke="black" d="M179.68,-133.27C179.52,-146.58 179.34,-162.19 179.2,-173.82"/>
<polygon fill="black" stroke="black" points="183.18,-133.24 179.8,-123.2 176.18,-133.16 183.18,-133.24"/>
<text text-anchor="middle" x="202.5" y="-144.8" font-family="Times,serif" font-size="14.00">विशेषणम्</text>
</g>
<!-- Node12_1 -->
<g id="node9" class="node">
<title>Node12_1</title>
<ellipse fill="#ff1975" stroke="#ff1975" cx="460" cy="-279" rx="65.79" ry="18"/>
<text text-anchor="middle" x="460" y="-275.3" font-family="Times,serif" font-size="14.00">पर्यमार्जत(12.1)</text>
</g>
<!-- Node5_1&#45;&gt;Node12_1 -->
<g id="edge5" class="edge">
<title>Node5_1&#45;&gt;Node12_1</title>
<path fill="none" stroke="black" d="M222.28,-209.75C230.13,-212.62 238.28,-215.48 246,-218 303.04,-236.6 369.75,-254.74 413.33,-266.12"/>
<polygon fill="black" stroke="black" points="223.48,-206.47 212.89,-206.27 221.05,-213.03 223.48,-206.47"/>
<text text-anchor="middle" x="338" y="-231.8" font-family="Times,serif" font-size="14.00">कर्ता</text>
</g>
<!-- Node4_1 -->
<g id="node3" class="node">
<title>Node4_1</title>
<ellipse fill="#00bfff" stroke="#00bfff" cx="62" cy="-105" rx="46.29" ry="18"/>
<text text-anchor="middle" x="62" y="-101.3" font-family="Times,serif" font-size="14.00">राजा(4.1)</text>
</g>
<!-- Node4_1&#45;&gt;Node5_1 -->
<g id="edge4" class="edge">
<title>Node4_1&#45;&gt;Node5_1</title>
<path fill="none" stroke="black" d="M91.01,-127.08C111.61,-142.04 138.8,-161.79 157.47,-175.36"/>
<polygon fill="black" stroke="black" points="93.06,-124.24 82.92,-121.2 88.95,-129.91 93.06,-124.24"/>
<text text-anchor="middle" x="150.5" y="-144.8" font-family="Times,serif" font-size="14.00">विशेषणम्</text>
</g>
<!-- Node6_2 -->
<g id="node4" class="node">
<title>Node6_2</title>
<ellipse fill="#40e0d0" stroke="#40e0d0" cx="314" cy="-105" rx="50.09" ry="18"/>
<text text-anchor="middle" x="314" y="-101.3" font-family="Times,serif" font-size="14.00">शीतेन(6.2)</text>
</g>
<!-- Node8_1 -->
<g id="node5" class="node">
<title>Node8_1</title>
<ellipse fill="#40e0d0" stroke="#40e0d0" cx="314" cy="-192" rx="55.79" ry="18"/>
<text text-anchor="middle" x="314" y="-188.3" font-family="Times,serif" font-size="14.00">पाणिना(8.1)</text>
</g>
<!-- Node6_2&#45;&gt;Node8_1 -->
<g id="edge7" class="edge">
<title>Node6_2&#45;&gt;Node8_1</title>
<path fill="none" stroke="black" d="M314,-133.27C314,-146.58 314,-162.19 314,-173.82"/>
<polygon fill="black" stroke="black" points="317.5,-133.2 314,-123.2 310.5,-133.2 317.5,-133.2"/>
<text text-anchor="middle" x="336.5" y="-144.8" font-family="Times,serif" font-size="14.00">विशेषणम्</text>
</g>
<!-- Node8_1&#45;&gt;Node12_1 -->
<g id="edge9" class="edge">
<title>Node8_1&#45;&gt;Node12_1</title>
<path fill="none" stroke="black" d="M348.5,-213.08C374.33,-228.13 409.19,-248.42 433.01,-262.29"/>
<polygon fill="black" stroke="black" points="350.17,-210.01 339.77,-208 346.65,-216.06 350.17,-210.01"/>
<text text-anchor="middle" x="411.5" y="-231.8" font-family="Times,serif" font-size="14.00">करणम्</text>
</g>
<!-- Node10_1 -->
<g id="node6" class="node">
<title>Node10_1</title>
<ellipse fill="#93db70" stroke="#93db70" cx="449" cy="-105" rx="54.69" ry="18"/>
<text text-anchor="middle" x="449" y="-101.3" font-family="Times,serif" font-size="14.00">मुखम्(10.1)</text>
</g>
<!-- Node9_1 -->
<g id="node7" class="node">
<title>Node9_1</title>
<ellipse fill="#93db70" stroke="#93db70" cx="460" cy="-192" rx="42.49" ry="18"/>
<text text-anchor="middle" x="460" y="-188.3" font-family="Times,serif" font-size="14.00">उरः(9.1)</text>
</g>
<!-- Node10_1&#45;&gt;Node9_1 -->
<g id="edge11" class="edge">
<title>Node10_1&#45;&gt;Node9_1</title>
<path fill="none" stroke="black" d="M452.53,-133.27C454.25,-146.58 456.27,-162.19 457.78,-173.82"/>
<polygon fill="black" stroke="black" points="455.98,-132.67 451.23,-123.2 449.04,-133.57 455.98,-132.67"/>
<text text-anchor="middle" x="477.5" y="-144.8" font-family="Times,serif" font-size="14.00">समुच्चितः</text>
</g>
<!-- Node9_1&#45;&gt;Node12_1 -->
<g id="edge10" class="edge">
<title>Node9_1&#45;&gt;Node12_1</title>
<path fill="none" stroke="black" d="M460,-220.27C460,-233.58 460,-249.19 460,-260.82"/>
<polygon fill="black" stroke="black" points="463.5,-220.2 460,-210.2 456.5,-220.2 463.5,-220.2"/>
<text text-anchor="middle" x="469" y="-231.8" font-family="Times,serif" font-size="14.00">कर्म</text>
</g>
<!-- Node1_1 -->
<g id="node8" class="node">
<title>Node1_1</title>
<ellipse fill="#ff99ff" stroke="#ff99ff" cx="564" cy="-192" rx="44.39" ry="18"/>
<text text-anchor="middle" x="564" y="-188.3" font-family="Times,serif" font-size="14.00">ततः(1.1)</text>
</g>
<!-- Node1_1&#45;&gt;Node12_1 -->
<g id="edge1" class="edge">
<title>Node1_1&#45;&gt;Node12_1</title>
<path fill="none" stroke="black" d="M537.14,-214.96C519.29,-229.54 496.26,-248.37 480.02,-261.64"/>
<polygon fill="black" stroke="black" points="539.4,-217.63 544.92,-208.59 534.97,-212.21 539.4,-217.63"/>
<text text-anchor="middle" x="536.5" y="-231.8" font-family="Times,serif" font-size="14.00">सम्बन्धः</text>
</g>
<!-- Node2_1 -->
<g id="node10" class="node">
<title>Node2_1</title>
<ellipse fill="#ff99ff" stroke="#ff99ff" cx="559" cy="-105" rx="37.89" ry="18"/>
<text text-anchor="middle" x="559" y="-101.3" font-family="Times,serif" font-size="14.00">च(2.1)</text>
</g>
<!-- Node2_1&#45;&gt;Node9_1 -->
<g id="edge2" class="edge">
<title>Node2_1&#45;&gt;Node9_1</title>
<path fill="none" stroke="black" d="M534.85,-128.58C525.36,-137.29 514.29,-147.25 504,-156 496.12,-162.7 487.22,-169.86 479.5,-175.94"/>
<polygon fill="black" stroke="black" points="537.43,-130.96 542.41,-121.61 532.68,-125.82 537.43,-130.96"/>
<text text-anchor="middle" x="558" y="-144.8" font-family="Times,serif" font-size="14.00">समुच्चय_द्योतकः</text>
</g>
<!-- Node6_1 -->
<g id="node11" class="node">
<title>Node6_1</title>
<ellipse fill="#ffff00" stroke="#ffff00" cx="314" cy="-18" rx="46.59" ry="18"/>
<text text-anchor="middle" x="314" y="-14.3" font-family="Times,serif" font-size="14.00">जल&#45;(6.1)</text>
</g>
<!-- Node6_1&#45;&gt;Node6_2 -->
<g id="edge6" class="edge">
<title>Node6_1&#45;&gt;Node6_2</title>
<path fill="none" stroke="black" d="M314,-46.27C314,-59.58 314,-75.19 314,-86.82"/>
<polygon fill="black" stroke="black" points="317.5,-46.2 314,-36.2 310.5,-46.2 317.5,-46.2"/>
<text text-anchor="middle" x="331" y="-57.8" font-family="Times,serif" font-size="14.00">समासः</text>
</g>
<!-- Node7_1 -->
<g id="node12" class="node">
<title>Node7_1</title>
<ellipse fill="#87ceeb" stroke="#87ceeb" cx="449" cy="-18" rx="47.39" ry="18"/>
<text text-anchor="middle" x="449" y="-14.3" font-family="Times,serif" font-size="14.00">अस्य(7.1)</text>
</g>
<!-- Node7_1&#45;&gt;Node10_1 -->
<g id="edge8" class="edge">
<title>Node7_1&#45;&gt;Node10_1</title>
<path fill="none" stroke="black" d="M449,-46.27C449,-59.58 449,-75.19 449,-86.82"/>
<polygon fill="black" stroke="black" points="452.5,-46.2 449,-36.2 445.5,-46.2 452.5,-46.2"/>
<text text-anchor="middle" x="476.5" y="-57.8" font-family="Times,serif" font-size="14.00">षष्ठीसम्बन्धः</text>
</g>
<!-- Node11_1 -->
<g id="node13" class="node">
<title>Node11_1</title>
<ellipse fill="#ff99ff" stroke="#ff99ff" cx="684" cy="-192" rx="57.69" ry="18"/>
<text text-anchor="middle" x="684" y="-188.3" font-family="Times,serif" font-size="14.00">शनकैः(11.1)</text>
</g>
<!-- Node11_1&#45;&gt;Node12_1 -->
<g id="edge12" class="edge">
<title>Node11_1&#45;&gt;Node12_1</title>
<path fill="none" stroke="black" d="M641.18,-210.63C617.12,-220.41 586.49,-232.65 559,-243 539.55,-250.32 517.79,-258.07 499.64,-264.4"/>
<polygon fill="black" stroke="black" points="642.78,-213.76 650.72,-206.74 640.14,-207.27 642.78,-213.76"/>
<text text-anchor="middle" x="631" y="-231.8" font-family="Times,serif" font-size="14.00">क्रियाविशेषणम्</text>
</g>
</g>
</svg>
