<?xml version="1.0" encoding="UTF-8" standalone="no"?>
<!DOCTYPE svg PUBLIC "-//W3C//DTD SVG 1.1//EN"
 "http://www.w3.org/Graphics/SVG/1.1/DTD/svg11.dtd">
<!-- Generated by graphviz version 2.43.0 (0)
 -->
<!-- Title: G Pages: 1 -->
<svg width="734pt" height="305pt"
 viewBox="0.00 0.00 734.24 305.00" xmlns="http://www.w3.org/2000/svg" xmlns:xlink="http://www.w3.org/1999/xlink">
<g id="graph0" class="graph" transform="scale(1 1) rotate(0) translate(4 301)">
<title>G</title>
<polygon fill="#fffacd" stroke="transparent" points="-4,4 -4,-301 730.24,-301 730.24,4 -4,4"/>
<g id="clust1" class="cluster">
<title>cluster_1</title>
<polygon fill="#fffacd" stroke="black" points="93.9,-79 93.9,-218 451.9,-218 451.9,-79 93.9,-79"/>
</g>
<!-- Node1_2 -->
<g id="node1" class="node">
<title>Node1_2</title>
<ellipse fill="#00bfff" stroke="#00bfff" cx="153.9" cy="-105" rx="51.99" ry="18"/>
<text text-anchor="middle" x="153.9" y="-101.3" font-family="Times,serif" font-size="14.00">मेखला(1.2)</text>
</g>
<!-- Node3_1 -->
<g id="node2" class="node">
<title>Node3_1</title>
<ellipse fill="#00bfff" stroke="#00bfff" cx="199.9" cy="-192" rx="44.39" ry="18"/>
<text text-anchor="middle" x="199.9" y="-188.3" font-family="Times,serif" font-size="14.00">मही(3.1)</text>
</g>
<!-- Node1_2&#45;&gt;Node3_1 -->
<g id="edge2" class="edge">
<title>Node1_2&#45;&gt;Node3_1</title>
<path fill="none" stroke="black" d="M167.86,-131.8C175.31,-145.58 184.28,-162.14 190.83,-174.24"/>
<polygon fill="black" stroke="black" points="170.82,-129.92 162.98,-122.79 164.67,-133.25 170.82,-129.92"/>
<text text-anchor="middle" x="201.4" y="-144.8" font-family="Times,serif" font-size="14.00">विशेषणम्</text>
</g>
<!-- Node11_1 -->
<g id="node6" class="node">
<title>Node11_1</title>
<ellipse fill="#ff1975" stroke="#ff1975" cx="96.9" cy="-279" rx="53.09" ry="18"/>
<text text-anchor="middle" x="96.9" y="-275.3" font-family="Times,serif" font-size="14.00">भवेत्(11.1)</text>
</g>
<!-- Node3_1&#45;&gt;Node11_1 -->
<g id="edge4" class="edge">
<title>Node3_1&#45;&gt;Node11_1</title>
<path fill="none" stroke="black" d="M173.24,-215C155.45,-229.68 132.45,-248.66 116.37,-261.93"/>
<polygon fill="black" stroke="black" points="175.52,-217.65 181,-208.59 171.06,-212.26 175.52,-217.65"/>
<text text-anchor="middle" x="164.9" y="-231.8" font-family="Times,serif" font-size="14.00">कर्ता</text>
</g>
<!-- Node2_1 -->
<g id="node3" class="node">
<title>Node2_1</title>
<ellipse fill="#00bfff" stroke="#00bfff" cx="269.9" cy="-105" rx="46.29" ry="18"/>
<text text-anchor="middle" x="269.9" y="-101.3" font-family="Times,serif" font-size="14.00">इयम्(2.1)</text>
</g>
<!-- Node2_1&#45;&gt;Node3_1 -->
<g id="edge3" class="edge">
<title>Node2_1&#45;&gt;Node3_1</title>
<path fill="none" stroke="black" d="M249.88,-130.31C238.17,-144.53 223.7,-162.09 213.35,-174.66"/>
<polygon fill="black" stroke="black" points="252.74,-132.33 256.4,-122.39 247.34,-127.88 252.74,-132.33"/>
<text text-anchor="middle" x="261.4" y="-144.8" font-family="Times,serif" font-size="14.00">विशेषणम्</text>
</g>
<!-- Node5_2 -->
<g id="node4" class="node">
<title>Node5_2</title>
<ellipse fill="#00bfff" stroke="#00bfff" cx="388.9" cy="-105" rx="54.69" ry="18"/>
<text text-anchor="middle" x="388.9" y="-101.3" font-family="Times,serif" font-size="14.00">सम्पूर्णा(5.2)</text>
</g>
<!-- Node5_2&#45;&gt;Node3_1 -->
<g id="edge7" class="edge">
<title>Node5_2&#45;&gt;Node3_1</title>
<path fill="none" stroke="black" d="M351.97,-125.18C333,-134.8 309.4,-146.42 287.9,-156 269.42,-164.23 248.39,-172.63 231.51,-179.14"/>
<polygon fill="black" stroke="black" points="353.57,-128.29 360.89,-120.63 350.39,-122.05 353.57,-128.29"/>
<text text-anchor="middle" x="340.4" y="-144.8" font-family="Times,serif" font-size="14.00">विशेषणम्</text>
</g>
<!-- Node1_1 -->
<g id="node5" class="node">
<title>Node1_1</title>
<ellipse fill="#ffff00" stroke="#ffff00" cx="153.9" cy="-18" rx="51.99" ry="18"/>
<text text-anchor="middle" x="153.9" y="-14.3" font-family="Times,serif" font-size="14.00">सागर&#45;(1.1)</text>
</g>
<!-- Node1_1&#45;&gt;Node1_2 -->
<g id="edge1" class="edge">
<title>Node1_1&#45;&gt;Node1_2</title>
<path fill="none" stroke="black" d="M153.9,-46.27C153.9,-59.58 153.9,-75.19 153.9,-86.82"/>
<polygon fill="black" stroke="black" points="157.4,-46.2 153.9,-36.2 150.4,-46.2 157.4,-46.2"/>
<text text-anchor="middle" x="170.9" y="-57.8" font-family="Times,serif" font-size="14.00">समासः</text>
</g>
<!-- Node4_1 -->
<g id="node7" class="node">
<title>Node4_1</title>
<ellipse fill="#ff99ff" stroke="#ff99ff" cx="44.9" cy="-105" rx="38.99" ry="18"/>
<text text-anchor="middle" x="44.9" y="-101.3" font-family="Times,serif" font-size="14.00">हि(4.1)</text>
</g>
<!-- Node4_1&#45;&gt;Node3_1 -->
<g id="edge5" class="edge">
<title>Node4_1&#45;&gt;Node3_1</title>
<path fill="none" stroke="black" d="M77.07,-124.64C93.66,-134.16 114.28,-145.85 132.9,-156 146.15,-163.22 161.01,-171.02 173.37,-177.42"/>
<polygon fill="black" stroke="black" points="78.71,-121.55 68.3,-119.6 75.22,-127.62 78.71,-121.55"/>
<text text-anchor="middle" x="151.4" y="-144.8" font-family="Times,serif" font-size="14.00">सम्बन्धः</text>
</g>
<!-- Node5_1 -->
<g id="node8" class="node">
<title>Node5_1</title>
<ellipse fill="#ffff00" stroke="#ffff00" cx="388.9" cy="-18" rx="45.49" ry="18"/>
<text text-anchor="middle" x="388.9" y="-14.3" font-family="Times,serif" font-size="14.00">वसु&#45;(5.1)</text>
</g>
<!-- Node5_1&#45;&gt;Node5_2 -->
<g id="edge6" class="edge">
<title>Node5_1&#45;&gt;Node5_2</title>
<path fill="none" stroke="black" d="M388.9,-46.27C388.9,-59.58 388.9,-75.19 388.9,-86.82"/>
<polygon fill="black" stroke="black" points="392.4,-46.2 388.9,-36.2 385.4,-46.2 392.4,-46.2"/>
<text text-anchor="middle" x="405.9" y="-57.8" font-family="Times,serif" font-size="14.00">समासः</text>
</g>
<!-- Node6_1 -->
<g id="node9" class="node">
<title>Node6_1</title>
<ellipse fill="#40e0d0" stroke="#40e0d0" cx="661.9" cy="-18" rx="50.09" ry="18"/>
<text text-anchor="middle" x="661.9" y="-14.3" font-family="Times,serif" font-size="14.00">भवता(6.1)</text>
</g>
<!-- Node7_1 -->
<g id="node10" class="node">
<title>Node7_1</title>
<ellipse fill="#87ceeb" stroke="#87ceeb" cx="661.9" cy="-105" rx="64.19" ry="18"/>
<text text-anchor="middle" x="661.9" y="-101.3" font-family="Times,serif" font-size="14.00">विप्रहीनस्य(7.1)</text>
</g>
<!-- Node6_1&#45;&gt;Node7_1 -->
<g id="edge8" class="edge">
<title>Node6_1&#45;&gt;Node7_1</title>
<path fill="none" stroke="black" d="M661.9,-46.27C661.9,-59.58 661.9,-75.19 661.9,-86.82"/>
<polygon fill="black" stroke="black" points="665.4,-46.2 661.9,-36.2 658.4,-46.2 665.4,-46.2"/>
<text text-anchor="middle" x="672.9" y="-57.8" font-family="Times,serif" font-size="14.00">कर्ता</text>
</g>
<!-- Node8_1 -->
<g id="node11" class="node">
<title>Node8_1</title>
<ellipse fill="#b0e2ff" stroke="#b0e2ff" cx="661.9" cy="-192" rx="37.09" ry="18"/>
<text text-anchor="middle" x="661.9" y="-188.3" font-family="Times,serif" font-size="14.00">मे(8.1)</text>
</g>
<!-- Node7_1&#45;&gt;Node8_1 -->
<g id="edge9" class="edge">
<title>Node7_1&#45;&gt;Node8_1</title>
<path fill="none" stroke="black" d="M661.9,-133.27C661.9,-146.58 661.9,-162.19 661.9,-173.82"/>
<polygon fill="black" stroke="black" points="665.4,-133.2 661.9,-123.2 658.4,-133.2 665.4,-133.2"/>
<text text-anchor="middle" x="689.4" y="-144.8" font-family="Times,serif" font-size="14.00">षष्ठीसम्बन्धः</text>
</g>
<!-- Node11 -->
<g id="node12" class="node">
<title>Node11</title>
<ellipse fill="lightgrey" stroke="black" cx="661.9" cy="-279" rx="27" ry="18"/>
</g>
<!-- Node8_1&#45;&gt;Node11 -->
<g id="edge10" class="edge">
<title>Node8_1&#45;&gt;Node11</title>
<path fill="none" stroke="black" d="M661.9,-220.27C661.9,-233.58 661.9,-249.19 661.9,-260.82"/>
<polygon fill="black" stroke="black" points="665.4,-220.2 661.9,-210.2 658.4,-220.2 665.4,-220.2"/>
<text text-anchor="middle" x="685.4" y="-231.8" font-family="Times,serif" font-size="14.00">सम्प्रदानम्</text>
</g>
<!-- Node9_1 -->
<g id="node13" class="node">
<title>Node9_1</title>
<ellipse fill="#00bfff" stroke="#00bfff" cx="520.9" cy="-105" rx="59.29" ry="18"/>
<text text-anchor="middle" x="520.9" y="-101.3" font-family="Times,serif" font-size="14.00">प्रीतिकरी(9.1)</text>
</g>
<!-- Node9_1&#45;&gt;Node3_1 -->
<g id="edge11" class="edge">
<title>Node9_1&#45;&gt;Node3_1</title>
<path fill="none" stroke="black" d="M474.72,-122.43C444.33,-132.88 403.54,-146.24 366.9,-156 323.82,-167.47 273.67,-177.55 239.66,-183.91"/>
<polygon fill="black" stroke="black" points="475.89,-125.73 484.2,-119.15 473.6,-119.11 475.89,-125.73"/>
<text text-anchor="middle" x="456.9" y="-144.8" font-family="Times,serif" font-size="14.00">विधेय_विशेषणम्</text>
</g>
<!-- Node10_1 -->
<g id="node14" class="node">
<title>Node10_1</title>
<ellipse fill="#ff99ff" stroke="#ff99ff" cx="42.9" cy="-192" rx="42.79" ry="18"/>
<text text-anchor="middle" x="42.9" y="-188.3" font-family="Times,serif" font-size="14.00">न(10.1)</text>
</g>
<!-- Node10_1&#45;&gt;Node11_1 -->
<g id="edge12" class="edge">
<title>Node10_1&#45;&gt;Node11_1</title>
<path fill="none" stroke="black" d="M59.03,-218.4C67.84,-232.26 78.49,-249.03 86.25,-261.24"/>
<polygon fill="black" stroke="black" points="61.88,-216.36 53.56,-209.79 55.97,-220.11 61.88,-216.36"/>
<text text-anchor="middle" x="93.4" y="-231.8" font-family="Times,serif" font-size="14.00">प्रतिषेधः</text>
</g>
</g>
</svg>
