<?xml version="1.0" encoding="UTF-8" standalone="no"?>
<!DOCTYPE svg PUBLIC "-//W3C//DTD SVG 1.1//EN"
 "http://www.w3.org/Graphics/SVG/1.1/DTD/svg11.dtd">
<!-- Generated by graphviz version 2.43.0 (0)
 -->
<!-- Title: G Pages: 1 -->
<svg width="1099pt" height="408pt"
 viewBox="0.00 0.00 1099.05 408.00" xmlns="http://www.w3.org/2000/svg" xmlns:xlink="http://www.w3.org/1999/xlink">
<g id="graph0" class="graph" transform="scale(1 1) rotate(0) translate(4 404)">
<title>G</title>
<polygon fill="#fffacd" stroke="transparent" points="-4,4 -4,-404 1095.05,-404 1095.05,4 -4,4"/>
<g id="clust1" class="cluster">
<title>cluster_1</title>
<polygon fill="#fffacd" stroke="black" points="478,-95 478,-234 598,-234 598,-95 478,-95"/>
</g>
<g id="clust2" class="cluster">
<title>cluster_2</title>
<polygon fill="#fffacd" stroke="black" points="8,-182 8,-321 238,-321 238,-182 8,-182"/>
</g>
<g id="clust3" class="cluster">
<title>cluster_3</title>
<polygon fill="#fffacd" stroke="black" points="606,-8 606,-147 746,-147 746,-8 606,-8"/>
</g>
<g id="clust4" class="cluster">
<title>cluster_4</title>
<polygon fill="#fffacd" stroke="black" points="754,-8 754,-147 874,-147 874,-8 754,-8"/>
</g>
<!-- Node3_1 -->
<g id="node1" class="node">
<title>Node3_1</title>
<ellipse fill="#40e0d0" stroke="#40e0d0" cx="538" cy="-121" rx="48.19" ry="18"/>
<text text-anchor="middle" x="538" y="-117.3" font-family="Times,serif" font-size="14.00">भोगैः(3.1)</text>
</g>
<!-- Node4_1 -->
<g id="node2" class="node">
<title>Node4_1</title>
<ellipse fill="#40e0d0" stroke="#40e0d0" cx="538" cy="-208" rx="51.99" ry="18"/>
<text text-anchor="middle" x="538" y="-204.3" font-family="Times,serif" font-size="14.00">राज्येन(4.1)</text>
</g>
<!-- Node3_1&#45;&gt;Node4_1 -->
<g id="edge4" class="edge">
<title>Node3_1&#45;&gt;Node4_1</title>
<path fill="none" stroke="black" d="M538,-149.27C538,-162.58 538,-178.19 538,-189.82"/>
<polygon fill="black" stroke="black" points="541.5,-149.2 538,-139.2 534.5,-149.2 541.5,-149.2"/>
<text text-anchor="middle" x="557" y="-160.8" font-family="Times,serif" font-size="14.00">अन्यतरः</text>
</g>
<!-- Node5_1 -->
<g id="node3" class="node">
<title>Node5_1</title>
<ellipse fill="#00bfff" stroke="#00bfff" cx="110" cy="-295" rx="56.59" ry="18"/>
<text text-anchor="middle" x="110" y="-291.3" font-family="Times,serif" font-size="14.00">(फलम्)(5.1)</text>
</g>
<!-- Node4_1&#45;&gt;Node5_1 -->
<g id="edge5" class="edge">
<title>Node4_1&#45;&gt;Node5_1</title>
<path fill="none" stroke="black" d="M498.62,-226.6C491.52,-229.35 484.11,-231.96 477,-234 368.1,-265.3 236.03,-281.88 163.74,-289.22"/>
<polygon fill="black" stroke="black" points="500.09,-229.78 508.06,-222.79 497.47,-223.29 500.09,-229.78"/>
<text text-anchor="middle" x="448.5" y="-247.8" font-family="Times,serif" font-size="14.00">हेतुः</text>
</g>
<!-- Node5_1&#45;&gt;Node5_1 -->
<g id="edge6" class="edge">
<title>Node5_1&#45;&gt;Node5_1</title>
<path fill="none" stroke="black" d="M171.25,-288.07C179.25,-289.26 184.54,-291.57 184.54,-295 184.54,-299.72 174.52,-302.31 161.22,-302.79"/>
<polygon fill="black" stroke="black" points="171.48,-284.58 161.22,-287.21 170.88,-291.56 171.48,-284.58"/>
<text text-anchor="middle" x="207.04" y="-291.3" font-family="Times,serif" font-size="14.00">विशेषणम्</text>
</g>
<!-- Node5_2 -->
<g id="node14" class="node">
<title>Node5_2</title>
<ellipse fill="#ff1975" stroke="#ff1975" cx="110" cy="-382" rx="56.59" ry="18"/>
<text text-anchor="middle" x="110" y="-378.3" font-family="Times,serif" font-size="14.00">(अस्ति)(5.2)</text>
</g>
<!-- Node5_1&#45;&gt;Node5_2 -->
<g id="edge7" class="edge">
<title>Node5_1&#45;&gt;Node5_2</title>
<path fill="none" stroke="black" d="M110,-323.27C110,-336.58 110,-352.19 110,-363.82"/>
<polygon fill="black" stroke="black" points="113.5,-323.2 110,-313.2 106.5,-323.2 113.5,-323.2"/>
<text text-anchor="middle" x="121" y="-334.8" font-family="Times,serif" font-size="14.00">कर्ता</text>
</g>
<!-- Node8_1 -->
<g id="node4" class="node">
<title>Node8_1</title>
<ellipse fill="#00bfff" stroke="#00bfff" cx="184" cy="-208" rx="46.29" ry="18"/>
<text text-anchor="middle" x="184" y="-204.3" font-family="Times,serif" font-size="14.00">किम्(8.1)</text>
</g>
<!-- Node8_1&#45;&gt;Node5_1 -->
<g id="edge10" class="edge">
<title>Node8_1&#45;&gt;Node5_1</title>
<path fill="none" stroke="black" d="M162.88,-233.26C150.59,-247.37 135.41,-264.81 124.48,-277.37"/>
<polygon fill="black" stroke="black" points="165.81,-235.23 169.73,-225.39 160.53,-230.63 165.81,-235.23"/>
<text text-anchor="middle" x="174.5" y="-247.8" font-family="Times,serif" font-size="14.00">विशेषणम्</text>
</g>
<!-- Node11_1 -->
<g id="node5" class="node">
<title>Node11_1</title>
<ellipse fill="#00bfff" stroke="#00bfff" cx="68" cy="-208" rx="51.99" ry="18"/>
<text text-anchor="middle" x="68" y="-204.3" font-family="Times,serif" font-size="14.00">किम्(11.1)</text>
</g>
<!-- Node11_1&#45;&gt;Node5_1 -->
<g id="edge13" class="edge">
<title>Node11_1&#45;&gt;Node5_1</title>
<path fill="none" stroke="black" d="M80.91,-235.13C87.63,-248.73 95.66,-264.98 101.58,-276.95"/>
<polygon fill="black" stroke="black" points="83.87,-233.21 76.3,-225.79 77.59,-236.31 83.87,-233.21"/>
<text text-anchor="middle" x="114.5" y="-247.8" font-family="Times,serif" font-size="14.00">विशेषणम्</text>
</g>
<!-- Node13_1 -->
<g id="node6" class="node">
<title>Node13_1</title>
<ellipse fill="#00bfff" stroke="#00bfff" cx="676" cy="-34" rx="57.69" ry="18"/>
<text text-anchor="middle" x="676" y="-30.3" font-family="Times,serif" font-size="14.00">एतानि(13.1)</text>
</g>
<!-- Node14_1 -->
<g id="node7" class="node">
<title>Node14_1</title>
<ellipse fill="#00bfff" stroke="#00bfff" cx="676" cy="-121" rx="61.99" ry="18"/>
<text text-anchor="middle" x="676" y="-117.3" font-family="Times,serif" font-size="14.00">दुःखानि(14.1)</text>
</g>
<!-- Node13_1&#45;&gt;Node14_1 -->
<g id="edge15" class="edge">
<title>Node13_1&#45;&gt;Node14_1</title>
<path fill="none" stroke="black" d="M676,-62.27C676,-75.58 676,-91.19 676,-102.82"/>
<polygon fill="black" stroke="black" points="679.5,-62.2 676,-52.2 672.5,-62.2 679.5,-62.2"/>
<text text-anchor="middle" x="698.5" y="-73.8" font-family="Times,serif" font-size="14.00">विशेषणम्</text>
</g>
<!-- Node17_1 -->
<g id="node12" class="node">
<title>Node17_1</title>
<ellipse fill="#00bfff" stroke="#00bfff" cx="888" cy="-208" rx="70.69" ry="18"/>
<text text-anchor="middle" x="888" y="-204.3" font-family="Times,serif" font-size="14.00">अवाप्तवान्(17.1)</text>
</g>
<!-- Node14_1&#45;&gt;Node17_1 -->
<g id="edge16" class="edge">
<title>Node14_1&#45;&gt;Node17_1</title>
<path fill="none" stroke="black" d="M720.51,-139.85C759.41,-155.44 815.2,-177.81 851.52,-192.37"/>
<polygon fill="black" stroke="black" points="721.59,-136.51 711.01,-136.04 718.99,-143.01 721.59,-136.51"/>
<text text-anchor="middle" x="803" y="-160.8" font-family="Times,serif" font-size="14.00">कर्म</text>
</g>
<!-- Node15_1 -->
<g id="node8" class="node">
<title>Node15_1</title>
<ellipse fill="#87ceeb" stroke="#87ceeb" cx="814" cy="-34" rx="51.99" ry="18"/>
<text text-anchor="middle" x="814" y="-30.3" font-family="Times,serif" font-size="14.00">यस्य(15.1)</text>
</g>
<!-- Node16_1 -->
<g id="node9" class="node">
<title>Node16_1</title>
<ellipse fill="#87ceeb" stroke="#87ceeb" cx="819" cy="-121" rx="42.79" ry="18"/>
<text text-anchor="middle" x="819" y="-117.3" font-family="Times,serif" font-size="14.00">मे(16.1)</text>
</g>
<!-- Node15_1&#45;&gt;Node16_1 -->
<g id="edge17" class="edge">
<title>Node15_1&#45;&gt;Node16_1</title>
<path fill="none" stroke="black" d="M815.6,-62.27C816.39,-75.58 817.31,-91.19 817.99,-102.82"/>
<polygon fill="black" stroke="black" points="819.09,-61.98 815.01,-52.2 812.11,-62.39 819.09,-61.98"/>
<text text-anchor="middle" x="838.5" y="-73.8" font-family="Times,serif" font-size="14.00">विशेषणम्</text>
</g>
<!-- Node16_1&#45;&gt;Node17_1 -->
<g id="edge18" class="edge">
<title>Node16_1&#45;&gt;Node17_1</title>
<path fill="none" stroke="black" d="M838.65,-146.2C850.03,-160.22 864.07,-177.52 874.26,-190.08"/>
<polygon fill="black" stroke="black" points="841.32,-143.95 832.3,-138.39 835.89,-148.36 841.32,-143.95"/>
<text text-anchor="middle" x="866.5" y="-160.8" font-family="Times,serif" font-size="14.00">हेतुः</text>
</g>
<!-- Node1_1 -->
<g id="node10" class="node">
<title>Node1_1</title>
<ellipse fill="#ffff00" stroke="#ffff00" cx="944" cy="-34" rx="59.59" ry="18"/>
<text text-anchor="middle" x="944" y="-30.3" font-family="Times,serif" font-size="14.00">मही&#45;पाल(1.1)</text>
</g>
<!-- Node1_2 -->
<g id="node11" class="node">
<title>Node1_2</title>
<ellipse fill="#6fffc3" stroke="#6fffc3" cx="927" cy="-121" rx="45.49" ry="18"/>
<text text-anchor="middle" x="927" y="-117.3" font-family="Times,serif" font-size="14.00">पाल(1.2)</text>
</g>
<!-- Node1_1&#45;&gt;Node1_2 -->
<g id="edge1" class="edge">
<title>Node1_1&#45;&gt;Node1_2</title>
<path fill="none" stroke="black" d="M938.55,-62.27C935.88,-75.58 932.76,-91.19 930.44,-102.82"/>
<polygon fill="black" stroke="black" points="942.03,-62.69 940.56,-52.2 935.17,-61.32 942.03,-62.69"/>
<text text-anchor="middle" x="953" y="-73.8" font-family="Times,serif" font-size="14.00">समासः</text>
</g>
<!-- Node1_2&#45;&gt;Node17_1 -->
<g id="edge2" class="edge">
<title>Node1_2&#45;&gt;Node17_1</title>
<path fill="none" stroke="black" d="M915.01,-148.13C908.77,-161.73 901.32,-177.98 895.82,-189.95"/>
<polygon fill="black" stroke="black" points="918.31,-149.34 919.29,-138.79 911.94,-146.42 918.31,-149.34"/>
<text text-anchor="middle" x="930" y="-160.8" font-family="Times,serif" font-size="14.00">सम्बोध्यः</text>
</g>
<!-- Node2_1 -->
<g id="node13" class="node">
<title>Node2_1</title>
<ellipse fill="#87ceeb" stroke="#87ceeb" cx="538" cy="-34" rx="37.09" ry="18"/>
<text text-anchor="middle" x="538" y="-30.3" font-family="Times,serif" font-size="14.00">मे(2.1)</text>
</g>
<!-- Node2_1&#45;&gt;Node3_1 -->
<g id="edge3" class="edge">
<title>Node2_1&#45;&gt;Node3_1</title>
<path fill="none" stroke="black" d="M538,-62.27C538,-75.58 538,-91.19 538,-102.82"/>
<polygon fill="black" stroke="black" points="541.5,-62.2 538,-52.2 534.5,-62.2 541.5,-62.2"/>
<text text-anchor="middle" x="556.5" y="-73.8" font-family="Times,serif" font-size="14.00">सम्बन्धः</text>
</g>
<!-- Node6_1 -->
<g id="node15" class="node">
<title>Node6_1</title>
<ellipse fill="#ff99ff" stroke="#ff99ff" cx="431" cy="-121" rx="38.99" ry="18"/>
<text text-anchor="middle" x="431" y="-117.3" font-family="Times,serif" font-size="14.00">वा(6.1)</text>
</g>
<!-- Node6_1&#45;&gt;Node4_1 -->
<g id="edge8" class="edge">
<title>Node6_1&#45;&gt;Node4_1</title>
<path fill="none" stroke="black" d="M442.66,-147.98C447.42,-156.45 453.57,-165.37 461,-172 467.96,-178.21 486.96,-186.87 504.35,-194.02"/>
<polygon fill="black" stroke="black" points="445.76,-146.36 438.05,-139.09 439.55,-149.58 445.76,-146.36"/>
<text text-anchor="middle" x="497.5" y="-160.8" font-family="Times,serif" font-size="14.00">अन्यतर_द्योतकः</text>
</g>
<!-- Node7_1 -->
<g id="node16" class="node">
<title>Node7_1</title>
<ellipse fill="#40e0d0" stroke="#40e0d0" cx="293" cy="-208" rx="44.69" ry="18"/>
<text text-anchor="middle" x="293" y="-204.3" font-family="Times,serif" font-size="14.00">यज्ञैः(7.1)</text>
</g>
<!-- Node7_1&#45;&gt;Node5_1 -->
<g id="edge9" class="edge">
<title>Node7_1&#45;&gt;Node5_1</title>
<path fill="none" stroke="black" d="M259.74,-228.44C242.49,-238.17 220.91,-249.81 201,-259 183.48,-267.09 163.52,-274.91 146.76,-281.11"/>
<polygon fill="black" stroke="black" points="261.89,-231.25 268.84,-223.26 258.42,-225.16 261.89,-231.25"/>
<text text-anchor="middle" x="239.5" y="-247.8" font-family="Times,serif" font-size="14.00">हेतुः</text>
</g>
<!-- Node9_1 -->
<g id="node17" class="node">
<title>Node9_1</title>
<ellipse fill="#ff99ff" stroke="#ff99ff" cx="184" cy="-121" rx="38.99" ry="18"/>
<text text-anchor="middle" x="184" y="-117.3" font-family="Times,serif" font-size="14.00">वा(9.1)</text>
</g>
<!-- Node9_1&#45;&gt;Node8_1 -->
<g id="edge11" class="edge">
<title>Node9_1&#45;&gt;Node8_1</title>
<path fill="none" stroke="black" d="M184,-149.27C184,-162.58 184,-178.19 184,-189.82"/>
<polygon fill="black" stroke="black" points="187.5,-149.2 184,-139.2 180.5,-149.2 187.5,-149.2"/>
<text text-anchor="middle" x="202.5" y="-160.8" font-family="Times,serif" font-size="14.00">सम्बन्धः</text>
</g>
<!-- Node10_1 -->
<g id="node18" class="node">
<title>Node10_1</title>
<ellipse fill="#40e0d0" stroke="#40e0d0" cx="412" cy="-208" rx="55.79" ry="18"/>
<text text-anchor="middle" x="412" y="-204.3" font-family="Times,serif" font-size="14.00">सुखेन(10.1)</text>
</g>
<!-- Node10_1&#45;&gt;Node5_1 -->
<g id="edge12" class="edge">
<title>Node10_1&#45;&gt;Node5_1</title>
<path fill="none" stroke="black" d="M369.07,-226.25C361.76,-228.98 354.2,-231.67 347,-234 281.59,-255.21 204.06,-273.6 155.94,-284.25"/>
<polygon fill="black" stroke="black" points="370.74,-229.36 378.84,-222.54 368.25,-222.82 370.74,-229.36"/>
<text text-anchor="middle" x="318.5" y="-247.8" font-family="Times,serif" font-size="14.00">हेतुः</text>
</g>
<!-- Node12_1 -->
<g id="node19" class="node">
<title>Node12_1</title>
<ellipse fill="#00bfff" stroke="#00bfff" cx="1041" cy="-121" rx="50.09" ry="18"/>
<text text-anchor="middle" x="1041" y="-117.3" font-family="Times,serif" font-size="14.00">त्वम्(12.1)</text>
</g>
<!-- Node12_1&#45;&gt;Node17_1 -->
<g id="edge14" class="edge">
<title>Node12_1&#45;&gt;Node17_1</title>
<path fill="none" stroke="black" d="M1007.45,-141.98C991.63,-151.27 972.45,-162.38 955,-172 943.05,-178.59 929.75,-185.6 918.17,-191.61"/>
<polygon fill="black" stroke="black" points="1009.5,-144.83 1016.33,-136.74 1005.94,-138.81 1009.5,-144.83"/>
<text text-anchor="middle" x="992" y="-160.8" font-family="Times,serif" font-size="14.00">कर्ता</text>
</g>
</g>
</svg>
