<?xml version="1.0" encoding="UTF-8" standalone="no"?>
<!DOCTYPE svg PUBLIC "-//W3C//DTD SVG 1.1//EN"
 "http://www.w3.org/Graphics/SVG/1.1/DTD/svg11.dtd">
<!-- Generated by graphviz version 2.43.0 (0)
 -->
<!-- Title: G Pages: 1 -->
<svg width="749pt" height="479pt"
 viewBox="0.00 0.00 749.00 479.00" xmlns="http://www.w3.org/2000/svg" xmlns:xlink="http://www.w3.org/1999/xlink">
<g id="graph0" class="graph" transform="scale(1 1) rotate(0) translate(4 475)">
<title>G</title>
<polygon fill="#fffacd" stroke="transparent" points="-4,4 -4,-475 745,-475 745,4 -4,4"/>
<g id="clust1" class="cluster">
<title>cluster_1</title>
<polygon fill="#fffacd" stroke="black" points="8,-166 8,-305 120,-305 120,-166 8,-166"/>
</g>
<g id="clust2" class="cluster">
<title>cluster_2</title>
<polygon fill="#fffacd" stroke="black" points="353,-79 353,-218 501,-218 501,-79 353,-79"/>
</g>
<!-- Node7_1 -->
<g id="node1" class="node">
<title>Node7_1</title>
<ellipse fill="#00bfff" stroke="#00bfff" cx="64" cy="-192" rx="48.19" ry="18"/>
<text text-anchor="middle" x="64" y="-188.3" font-family="Times,serif" font-size="14.00">परमः(7.1)</text>
</g>
<!-- Node8_1 -->
<g id="node2" class="node">
<title>Node8_1</title>
<ellipse fill="#00bfff" stroke="#00bfff" cx="65" cy="-279" rx="44.39" ry="18"/>
<text text-anchor="middle" x="65" y="-275.3" font-family="Times,serif" font-size="14.00">गुरुः(8.1)</text>
</g>
<!-- Node7_1&#45;&gt;Node8_1 -->
<g id="edge9" class="edge">
<title>Node7_1&#45;&gt;Node8_1</title>
<path fill="none" stroke="black" d="M64.32,-220.27C64.48,-233.58 64.66,-249.19 64.8,-260.82"/>
<polygon fill="black" stroke="black" points="67.82,-220.16 64.2,-210.2 60.82,-220.24 67.82,-220.16"/>
<text text-anchor="middle" x="87.5" y="-231.8" font-family="Times,serif" font-size="14.00">विशेषणम्</text>
</g>
<!-- Node6_1 -->
<g id="node13" class="node">
<title>Node6_1</title>
<ellipse fill="#00bfff" stroke="#00bfff" cx="174" cy="-366" rx="50.09" ry="18"/>
<text text-anchor="middle" x="174" y="-362.3" font-family="Times,serif" font-size="14.00">भवान्(6.1)</text>
</g>
<!-- Node8_1&#45;&gt;Node6_1 -->
<g id="edge10" class="edge">
<title>Node8_1&#45;&gt;Node6_1</title>
<path fill="none" stroke="black" d="M75.08,-306.35C79.3,-314.75 84.9,-323.53 92,-330 104.12,-341.06 120.26,-348.96 135.02,-354.42"/>
<polygon fill="black" stroke="black" points="78.23,-304.82 70.9,-297.17 71.86,-307.72 78.23,-304.82"/>
<text text-anchor="middle" x="131" y="-318.8" font-family="Times,serif" font-size="14.00">विधेय_विशेषणम्</text>
</g>
<!-- Node12_1 -->
<g id="node3" class="node">
<title>Node12_1</title>
<ellipse fill="#00bfff" stroke="#00bfff" cx="427" cy="-105" rx="66.09" ry="18"/>
<text text-anchor="middle" x="427" y="-101.3" font-family="Times,serif" font-size="14.00">विप्रहीनाः(12.1)</text>
</g>
<!-- Node9_1 -->
<g id="node4" class="node">
<title>Node9_1</title>
<ellipse fill="#00bfff" stroke="#00bfff" cx="427" cy="-192" rx="46.29" ry="18"/>
<text text-anchor="middle" x="427" y="-188.3" font-family="Times,serif" font-size="14.00">वयम्(9.1)</text>
</g>
<!-- Node12_1&#45;&gt;Node9_1 -->
<g id="edge17" class="edge">
<title>Node12_1&#45;&gt;Node9_1</title>
<path fill="none" stroke="black" d="M427,-133.27C427,-146.58 427,-162.19 427,-173.82"/>
<polygon fill="black" stroke="black" points="430.5,-133.2 427,-123.2 423.5,-133.2 430.5,-133.2"/>
<text text-anchor="middle" x="449.5" y="-144.8" font-family="Times,serif" font-size="14.00">विशेषणम्</text>
</g>
<!-- Node15_1 -->
<g id="node17" class="node">
<title>Node15_1</title>
<ellipse fill="#ff1975" stroke="#ff1975" cx="441" cy="-279" rx="90.98" ry="18"/>
<text text-anchor="middle" x="441" y="-275.3" font-family="Times,serif" font-size="14.00">तिष्ठामहे(तिष्ठामः)(15.1)</text>
</g>
<!-- Node9_1&#45;&gt;Node15_1 -->
<g id="edge14" class="edge">
<title>Node9_1&#45;&gt;Node15_1</title>
<path fill="none" stroke="black" d="M431.49,-220.27C433.68,-233.58 436.26,-249.19 438.17,-260.82"/>
<polygon fill="black" stroke="black" points="434.91,-219.5 429.83,-210.2 428,-220.64 434.91,-219.5"/>
<text text-anchor="middle" x="445" y="-231.8" font-family="Times,serif" font-size="14.00">कर्ता</text>
</g>
<!-- Node1_1 -->
<g id="node5" class="node">
<title>Node1_1</title>
<ellipse fill="#87ceeb" stroke="#87ceeb" cx="590" cy="-279" rx="39.79" ry="18"/>
<text text-anchor="middle" x="590" y="-275.3" font-family="Times,serif" font-size="14.00">नः(1.1)</text>
</g>
<!-- Node2_1 -->
<g id="node6" class="node">
<title>Node2_1</title>
<ellipse fill="#00bfff" stroke="#00bfff" cx="590" cy="-366" rx="50.09" ry="18"/>
<text text-anchor="middle" x="590" y="-362.3" font-family="Times,serif" font-size="14.00">भवान्(2.1)</text>
</g>
<!-- Node1_1&#45;&gt;Node2_1 -->
<g id="edge1" class="edge">
<title>Node1_1&#45;&gt;Node2_1</title>
<path fill="none" stroke="black" d="M590,-307.27C590,-320.58 590,-336.19 590,-347.82"/>
<polygon fill="black" stroke="black" points="593.5,-307.2 590,-297.2 586.5,-307.2 593.5,-307.2"/>
<text text-anchor="middle" x="617.5" y="-318.8" font-family="Times,serif" font-size="14.00">षष्ठीसम्बन्धः</text>
</g>
<!-- Node3_2 -->
<g id="node7" class="node">
<title>Node3_2</title>
<ellipse fill="#ff1975" stroke="#ff1975" cx="492" cy="-453" rx="56.59" ry="18"/>
<text text-anchor="middle" x="492" y="-449.3" font-family="Times,serif" font-size="14.00">(अस्ति)(3.2)</text>
</g>
<!-- Node2_1&#45;&gt;Node3_2 -->
<g id="edge2" class="edge">
<title>Node2_1&#45;&gt;Node3_2</title>
<path fill="none" stroke="black" d="M563.76,-389.76C547.02,-404.28 525.72,-422.76 510.68,-435.79"/>
<polygon fill="black" stroke="black" points="566.31,-392.18 571.57,-382.99 561.72,-386.9 566.31,-392.18"/>
<text text-anchor="middle" x="557" y="-405.8" font-family="Times,serif" font-size="14.00">कर्ता</text>
</g>
<!-- Node3_1 -->
<g id="node8" class="node">
<title>Node3_1</title>
<ellipse fill="#00bfff" stroke="#00bfff" cx="694" cy="-279" rx="46.59" ry="18"/>
<text text-anchor="middle" x="694" y="-275.3" font-family="Times,serif" font-size="14.00">पिता(3.1)</text>
</g>
<!-- Node3_1&#45;&gt;Node2_1 -->
<g id="edge3" class="edge">
<title>Node3_1&#45;&gt;Node2_1</title>
<path fill="none" stroke="black" d="M674.87,-304.16C667.33,-312.87 658.27,-322.4 649,-330 639.42,-337.85 627.89,-345.1 617.57,-350.94"/>
<polygon fill="black" stroke="black" points="677.57,-306.39 681.33,-296.48 672.21,-301.89 677.57,-306.39"/>
<text text-anchor="middle" x="702" y="-318.8" font-family="Times,serif" font-size="14.00">विधेय_विशेषणम्</text>
</g>
<!-- Node4_1 -->
<g id="node9" class="node">
<title>Node4_1</title>
<ellipse fill="#00bfff" stroke="#00bfff" cx="296" cy="-366" rx="50.09" ry="18"/>
<text text-anchor="middle" x="296" y="-362.3" font-family="Times,serif" font-size="14.00">भवान्(4.1)</text>
</g>
<!-- Node5_2 -->
<g id="node10" class="node">
<title>Node5_2</title>
<ellipse fill="#ff1975" stroke="#ff1975" cx="360" cy="-453" rx="56.59" ry="18"/>
<text text-anchor="middle" x="360" y="-449.3" font-family="Times,serif" font-size="14.00">(अस्ति)(5.2)</text>
</g>
<!-- Node4_1&#45;&gt;Node5_2 -->
<g id="edge4" class="edge">
<title>Node4_1&#45;&gt;Node5_2</title>
<path fill="none" stroke="black" d="M302.02,-394.29C304.57,-402.1 308.12,-410.3 313,-417 318.63,-424.73 326.46,-431.5 334.12,-436.98"/>
<polygon fill="black" stroke="black" points="305.31,-393.07 299.2,-384.41 298.57,-394.99 305.31,-393.07"/>
<text text-anchor="middle" x="324" y="-405.8" font-family="Times,serif" font-size="14.00">कर्ता</text>
</g>
<!-- Node4_2 -->
<g id="node11" class="node">
<title>Node4_2</title>
<ellipse fill="#87ceeb" stroke="#87ceeb" cx="285" cy="-192" rx="46.29" ry="18"/>
<text text-anchor="middle" x="285" y="-188.3" font-family="Times,serif" font-size="14.00">(नः)(4.2)</text>
</g>
<!-- Node5_1 -->
<g id="node12" class="node">
<title>Node5_1</title>
<ellipse fill="#00bfff" stroke="#00bfff" cx="285" cy="-279" rx="46.59" ry="18"/>
<text text-anchor="middle" x="285" y="-275.3" font-family="Times,serif" font-size="14.00">माता(5.1)</text>
</g>
<!-- Node4_2&#45;&gt;Node5_1 -->
<g id="edge5" class="edge">
<title>Node4_2&#45;&gt;Node5_1</title>
<path fill="none" stroke="black" d="M285,-220.27C285,-233.58 285,-249.19 285,-260.82"/>
<polygon fill="black" stroke="black" points="288.5,-220.2 285,-210.2 281.5,-220.2 288.5,-220.2"/>
<text text-anchor="middle" x="312.5" y="-231.8" font-family="Times,serif" font-size="14.00">षष्ठीसम्बन्धः</text>
</g>
<!-- Node5_1&#45;&gt;Node4_1 -->
<g id="edge6" class="edge">
<title>Node5_1&#45;&gt;Node4_1</title>
<path fill="none" stroke="black" d="M288.53,-307.27C290.25,-320.58 292.27,-336.19 293.78,-347.82"/>
<polygon fill="black" stroke="black" points="291.98,-306.67 287.23,-297.2 285.04,-307.57 291.98,-306.67"/>
<text text-anchor="middle" x="330" y="-318.8" font-family="Times,serif" font-size="14.00">विधेय_विशेषणम्</text>
</g>
<!-- Node8_2 -->
<g id="node14" class="node">
<title>Node8_2</title>
<ellipse fill="#ff1975" stroke="#ff1975" cx="227" cy="-453" rx="56.59" ry="18"/>
<text text-anchor="middle" x="227" y="-449.3" font-family="Times,serif" font-size="14.00">(अस्ति)(8.2)</text>
</g>
<!-- Node6_1&#45;&gt;Node8_2 -->
<g id="edge7" class="edge">
<title>Node6_1&#45;&gt;Node8_2</title>
<path fill="none" stroke="black" d="M189.84,-392.4C198.48,-406.26 208.93,-423.03 216.55,-435.24"/>
<polygon fill="black" stroke="black" points="192.73,-390.43 184.47,-383.79 186.79,-394.13 192.73,-390.43"/>
<text text-anchor="middle" x="215" y="-405.8" font-family="Times,serif" font-size="14.00">कर्ता</text>
</g>
<!-- Node6_2 -->
<g id="node15" class="node">
<title>Node6_2</title>
<ellipse fill="#87ceeb" stroke="#87ceeb" cx="174" cy="-279" rx="46.29" ry="18"/>
<text text-anchor="middle" x="174" y="-275.3" font-family="Times,serif" font-size="14.00">(नः)(6.2)</text>
</g>
<!-- Node6_2&#45;&gt;Node6_1 -->
<g id="edge8" class="edge">
<title>Node6_2&#45;&gt;Node6_1</title>
<path fill="none" stroke="black" d="M174,-307.27C174,-320.58 174,-336.19 174,-347.82"/>
<polygon fill="black" stroke="black" points="177.5,-307.2 174,-297.2 170.5,-307.2 177.5,-307.2"/>
<text text-anchor="middle" x="201.5" y="-318.8" font-family="Times,serif" font-size="14.00">षष्ठीसम्बन्धः</text>
</g>
<!-- Node8_3 -->
<g id="node16" class="node">
<title>Node8_3</title>
<ellipse fill="#ff99ff" stroke="#ff99ff" cx="425" cy="-366" rx="52.79" ry="18"/>
<text text-anchor="middle" x="425" y="-362.3" font-family="Times,serif" font-size="14.00">(अतः)(8.3)</text>
</g>
<!-- Node8_3&#45;&gt;Node3_2 -->
<g id="edge11" class="edge">
<title>Node8_3&#45;&gt;Node3_2</title>
<path fill="none" stroke="black" d="M444.71,-392.01C455.69,-405.94 469.07,-422.91 478.79,-435.24"/>
<polygon fill="black" stroke="black" points="447.18,-389.48 438.24,-383.79 441.68,-393.81 447.18,-389.48"/>
<text text-anchor="middle" x="480.5" y="-405.8" font-family="Times,serif" font-size="14.00">सम्बन्धः</text>
</g>
<!-- Node8_3&#45;&gt;Node5_2 -->
<g id="edge12" class="edge">
<title>Node8_3&#45;&gt;Node5_2</title>
<path fill="none" stroke="black" stroke-dasharray="1,5" d="M413.01,-393.08C408.78,-401.1 403.66,-409.72 398,-417 392.72,-423.8 386.05,-430.42 379.78,-436.04"/>
<polygon fill="black" stroke="black" points="416.18,-394.56 417.54,-384.06 409.92,-391.42 416.18,-394.56"/>
<text text-anchor="middle" x="425.5" y="-405.8" font-family="Times,serif" font-size="14.00">सम्बन्धः</text>
</g>
<!-- Node8_3&#45;&gt;Node8_2 -->
<g id="edge13" class="edge">
<title>Node8_3&#45;&gt;Node8_2</title>
<path fill="none" stroke="black" stroke-dasharray="1,5" d="M386.64,-385.7C376.85,-390.76 366.42,-396.39 357,-402 346.83,-408.05 345.63,-411.79 335,-417 314.38,-427.11 290.16,-435.27 269.89,-441.15"/>
<polygon fill="black" stroke="black" points="388.46,-388.7 395.79,-381.05 385.29,-382.46 388.46,-388.7"/>
<text text-anchor="middle" x="375.5" y="-405.8" font-family="Times,serif" font-size="14.00">सम्बन्धः</text>
</g>
<!-- Node15_1&#45;&gt;Node8_3 -->
<g id="edge20" class="edge">
<title>Node15_1&#45;&gt;Node8_3</title>
<path fill="none" stroke="black" stroke-dasharray="1,5" d="M435.87,-307.27C433.36,-320.58 430.42,-336.19 428.23,-347.82"/>
<polygon fill="black" stroke="black" points="439.35,-307.68 437.76,-297.2 432.47,-306.38 439.35,-307.68"/>
<text text-anchor="middle" x="451.5" y="-318.8" font-family="Times,serif" font-size="14.00">सम्बन्धः</text>
</g>
<!-- Node10_1 -->
<g id="node18" class="node">
<title>Node10_1</title>
<ellipse fill="#ff99ff" stroke="#ff99ff" cx="298" cy="-105" rx="44.69" ry="18"/>
<text text-anchor="middle" x="298" y="-101.3" font-family="Times,serif" font-size="14.00">हि(10.1)</text>
</g>
<!-- Node10_1&#45;&gt;Node9_1 -->
<g id="edge15" class="edge">
<title>Node10_1&#45;&gt;Node9_1</title>
<path fill="none" stroke="black" d="M328.94,-126.39C352.16,-141.69 383.43,-162.29 404.35,-176.08"/>
<polygon fill="black" stroke="black" points="330.75,-123.39 320.47,-120.81 326.89,-129.23 330.75,-123.39"/>
<text text-anchor="middle" x="388.5" y="-144.8" font-family="Times,serif" font-size="14.00">सम्बन्धः</text>
</g>
<!-- Node11_1 -->
<g id="node19" class="node">
<title>Node11_1</title>
<ellipse fill="#40e0d0" stroke="#40e0d0" cx="427" cy="-18" rx="55.79" ry="18"/>
<text text-anchor="middle" x="427" y="-14.3" font-family="Times,serif" font-size="14.00">भवता(11.1)</text>
</g>
<!-- Node11_1&#45;&gt;Node12_1 -->
<g id="edge16" class="edge">
<title>Node11_1&#45;&gt;Node12_1</title>
<path fill="none" stroke="black" d="M427,-46.27C427,-59.58 427,-75.19 427,-86.82"/>
<polygon fill="black" stroke="black" points="430.5,-46.2 427,-36.2 423.5,-46.2 430.5,-46.2"/>
<text text-anchor="middle" x="442.5" y="-57.8" font-family="Times,serif" font-size="14.00">विनार्थ</text>
</g>
<!-- Node13_1 -->
<g id="node20" class="node">
<title>Node13_1</title>
<ellipse fill="#ff99ff" stroke="#ff99ff" cx="556" cy="-192" rx="47.39" ry="18"/>
<text text-anchor="middle" x="556" y="-188.3" font-family="Times,serif" font-size="14.00">क्व(13.1)</text>
</g>
<!-- Node13_1&#45;&gt;Node15_1 -->
<g id="edge18" class="edge">
<title>Node13_1&#45;&gt;Node15_1</title>
<path fill="none" stroke="black" d="M526.89,-214.51C507.27,-229.02 481.75,-247.88 463.64,-261.27"/>
<polygon fill="black" stroke="black" points="529.21,-217.15 535.17,-208.39 525.05,-211.52 529.21,-217.15"/>
<text text-anchor="middle" x="537" y="-231.8" font-family="Times,serif" font-size="14.00">देशाधिकरणम्</text>
</g>
<!-- Node14_1 -->
<g id="node21" class="node">
<title>Node14_1</title>
<ellipse fill="#ff99ff" stroke="#ff99ff" cx="556" cy="-105" rx="42.79" ry="18"/>
<text text-anchor="middle" x="556" y="-101.3" font-family="Times,serif" font-size="14.00">नु(14.1)</text>
</g>
<!-- Node14_1&#45;&gt;Node13_1 -->
<g id="edge19" class="edge">
<title>Node14_1&#45;&gt;Node13_1</title>
<path fill="none" stroke="black" d="M556,-133.27C556,-146.58 556,-162.19 556,-173.82"/>
<polygon fill="black" stroke="black" points="559.5,-133.2 556,-123.2 552.5,-133.2 559.5,-133.2"/>
<text text-anchor="middle" x="574.5" y="-144.8" font-family="Times,serif" font-size="14.00">सम्बन्धः</text>
</g>
</g>
</svg>
