<?xml version="1.0" encoding="UTF-8" standalone="no"?>
<!DOCTYPE svg PUBLIC "-//W3C//DTD SVG 1.1//EN"
 "http://www.w3.org/Graphics/SVG/1.1/DTD/svg11.dtd">
<!-- Generated by graphviz version 2.43.0 (0)
 -->
<!-- Title: G Pages: 1 -->
<svg width="756pt" height="321pt"
 viewBox="0.00 0.00 755.79 321.00" xmlns="http://www.w3.org/2000/svg" xmlns:xlink="http://www.w3.org/1999/xlink">
<g id="graph0" class="graph" transform="scale(1 1) rotate(0) translate(4 317)">
<title>G</title>
<polygon fill="#fffacd" stroke="transparent" points="-4,4 -4,-317 751.79,-317 751.79,4 -4,4"/>
<g id="clust1" class="cluster">
<title>cluster_1</title>
<polygon fill="#fffacd" stroke="black" points="8,-95 8,-234 132,-234 132,-95 8,-95"/>
</g>
<g id="clust2" class="cluster">
<title>cluster_2</title>
<polygon fill="#fffacd" stroke="black" points="256,-95 256,-234 380,-234 380,-95 256,-95"/>
</g>
<g id="clust3" class="cluster">
<title>cluster_3</title>
<polygon fill="#fffacd" stroke="black" points="388,-8 388,-147 520,-147 520,-8 388,-8"/>
</g>
<!-- Node2_1 -->
<g id="node1" class="node">
<title>Node2_1</title>
<ellipse fill="#40e0d0" stroke="#40e0d0" cx="70" cy="-121" rx="53.89" ry="18"/>
<text text-anchor="middle" x="70" y="-117.3" font-family="Times,serif" font-size="14.00">बलवता(2.1)</text>
</g>
<!-- Node3_1 -->
<g id="node2" class="node">
<title>Node3_1</title>
<ellipse fill="#40e0d0" stroke="#40e0d0" cx="82" cy="-208" rx="42.49" ry="18"/>
<text text-anchor="middle" x="82" y="-204.3" font-family="Times,serif" font-size="14.00">येन(3.1)</text>
</g>
<!-- Node2_1&#45;&gt;Node3_1 -->
<g id="edge2" class="edge">
<title>Node2_1&#45;&gt;Node3_1</title>
<path fill="none" stroke="black" d="M73.85,-149.27C75.73,-162.58 77.93,-178.19 79.58,-189.82"/>
<polygon fill="black" stroke="black" points="77.29,-148.61 72.43,-139.2 70.36,-149.59 77.29,-148.61"/>
<text text-anchor="middle" x="99.5" y="-160.8" font-family="Times,serif" font-size="14.00">विशेषणम्</text>
</g>
<!-- Node7_1 -->
<g id="node8" class="node">
<title>Node7_1</title>
<ellipse fill="#00bfff" stroke="#00bfff" cx="317" cy="-295" rx="59.59" ry="18"/>
<text text-anchor="middle" x="317" y="-291.3" font-family="Times,serif" font-size="14.00">चूर्णीकृता(7.1)</text>
</g>
<!-- Node3_1&#45;&gt;Node7_1 -->
<g id="edge3" class="edge">
<title>Node3_1&#45;&gt;Node7_1</title>
<path fill="none" stroke="black" d="M122.81,-223.76C167.2,-239.82 237.52,-265.25 280.25,-280.71"/>
<polygon fill="black" stroke="black" points="123.8,-220.4 113.21,-220.29 121.42,-226.98 123.8,-220.4"/>
<text text-anchor="middle" x="225" y="-247.8" font-family="Times,serif" font-size="14.00">कर्ता</text>
</g>
<!-- Node5_1 -->
<g id="node3" class="node">
<title>Node5_1</title>
<ellipse fill="#00bfff" stroke="#00bfff" cx="318" cy="-121" rx="53.89" ry="18"/>
<text text-anchor="middle" x="318" y="-117.3" font-family="Times,serif" font-size="14.00">आयसी(5.1)</text>
</g>
<!-- Node6_1 -->
<g id="node4" class="node">
<title>Node6_1</title>
<ellipse fill="#00bfff" stroke="#00bfff" cx="317" cy="-208" rx="51.99" ry="18"/>
<text text-anchor="middle" x="317" y="-204.3" font-family="Times,serif" font-size="14.00">प्रतिमा(6.1)</text>
</g>
<!-- Node5_1&#45;&gt;Node6_1 -->
<g id="edge6" class="edge">
<title>Node5_1&#45;&gt;Node6_1</title>
<path fill="none" stroke="black" d="M317.68,-149.27C317.52,-162.58 317.34,-178.19 317.2,-189.82"/>
<polygon fill="black" stroke="black" points="321.18,-149.24 317.8,-139.2 314.18,-149.16 321.18,-149.24"/>
<text text-anchor="middle" x="340.5" y="-160.8" font-family="Times,serif" font-size="14.00">विशेषणम्</text>
</g>
<!-- Node6_1&#45;&gt;Node7_1 -->
<g id="edge7" class="edge">
<title>Node6_1&#45;&gt;Node7_1</title>
<path fill="none" stroke="black" d="M317,-236.27C317,-249.58 317,-265.19 317,-276.82"/>
<polygon fill="black" stroke="black" points="320.5,-236.2 317,-226.2 313.5,-236.2 320.5,-236.2"/>
<text text-anchor="middle" x="326" y="-247.8" font-family="Times,serif" font-size="14.00">कर्म</text>
</g>
<!-- Node10_1 -->
<g id="node5" class="node">
<title>Node10_1</title>
<ellipse fill="#00bfff" stroke="#00bfff" cx="454" cy="-34" rx="58.49" ry="18"/>
<text text-anchor="middle" x="454" y="-30.3" font-family="Times,serif" font-size="14.00">बलार्थी(10.1)</text>
</g>
<!-- Node9_1 -->
<g id="node6" class="node">
<title>Node9_1</title>
<ellipse fill="#00bfff" stroke="#00bfff" cx="454" cy="-121" rx="40.09" ry="18"/>
<text text-anchor="middle" x="454" y="-117.3" font-family="Times,serif" font-size="14.00">सः(9.1)</text>
</g>
<!-- Node10_1&#45;&gt;Node9_1 -->
<g id="edge11" class="edge">
<title>Node10_1&#45;&gt;Node9_1</title>
<path fill="none" stroke="black" d="M454,-62.27C454,-75.58 454,-91.19 454,-102.82"/>
<polygon fill="black" stroke="black" points="457.5,-62.2 454,-52.2 450.5,-62.2 457.5,-62.2"/>
<text text-anchor="middle" x="476.5" y="-73.8" font-family="Times,serif" font-size="14.00">विशेषणम्</text>
</g>
<!-- Node9_1&#45;&gt;Node3_1 -->
<g id="edge10" class="edge">
<title>Node9_1&#45;&gt;Node3_1</title>
<path fill="none" stroke="black" stroke-dasharray="1,5" d="M429.55,-144.16C416.86,-154.37 400.58,-165.61 384,-172 371.96,-176.64 202.19,-194.6 122.61,-202.84"/>
<polygon fill="black" stroke="black" points="431.9,-146.75 437.33,-137.66 427.41,-141.38 431.9,-146.75"/>
<text text-anchor="middle" x="429.5" y="-160.8" font-family="Times,serif" font-size="14.00">सम्बन्धः</text>
</g>
<!-- Node12_2 -->
<g id="node13" class="node">
<title>Node12_2</title>
<ellipse fill="#ff1975" stroke="#ff1975" cx="567" cy="-208" rx="62.29" ry="18"/>
<text text-anchor="middle" x="567" y="-204.3" font-family="Times,serif" font-size="14.00">(अस्ति)(12.2)</text>
</g>
<!-- Node9_1&#45;&gt;Node12_2 -->
<g id="edge9" class="edge">
<title>Node9_1&#45;&gt;Node12_2</title>
<path fill="none" stroke="black" d="M481.7,-142.83C501.41,-157.66 527.51,-177.29 545.62,-190.92"/>
<polygon fill="black" stroke="black" points="483.78,-140.02 473.68,-136.81 479.57,-145.61 483.78,-140.02"/>
<text text-anchor="middle" x="529" y="-160.8" font-family="Times,serif" font-size="14.00">कर्ता</text>
</g>
<!-- Node1_1 -->
<g id="node7" class="node">
<title>Node1_1</title>
<ellipse fill="#ff99ff" stroke="#ff99ff" cx="431" cy="-208" rx="42.79" ry="18"/>
<text text-anchor="middle" x="431" y="-204.3" font-family="Times,serif" font-size="14.00">पुरा(1.1)</text>
</g>
<!-- Node1_1&#45;&gt;Node7_1 -->
<g id="edge1" class="edge">
<title>Node1_1&#45;&gt;Node7_1</title>
<path fill="none" stroke="black" d="M402.79,-230.04C382.9,-244.87 356.66,-264.43 338.47,-277.99"/>
<polygon fill="black" stroke="black" points="404.96,-232.78 410.88,-224 400.77,-227.17 404.96,-232.78"/>
<text text-anchor="middle" x="416.5" y="-247.8" font-family="Times,serif" font-size="14.00">कालाधिकरणम्</text>
</g>
<!-- Node4_1 -->
<g id="node9" class="node">
<title>Node4_1</title>
<ellipse fill="#ffff00" stroke="#ffff00" cx="194" cy="-34" rx="48.19" ry="18"/>
<text text-anchor="middle" x="194" y="-30.3" font-family="Times,serif" font-size="14.00">भीम&#45;(4.1)</text>
</g>
<!-- Node4_2 -->
<g id="node10" class="node">
<title>Node4_2</title>
<ellipse fill="#87ceeb" stroke="#87ceeb" cx="194" cy="-121" rx="51.99" ry="18"/>
<text text-anchor="middle" x="194" y="-117.3" font-family="Times,serif" font-size="14.00">सेनस्य(4.2)</text>
</g>
<!-- Node4_1&#45;&gt;Node4_2 -->
<g id="edge4" class="edge">
<title>Node4_1&#45;&gt;Node4_2</title>
<path fill="none" stroke="black" d="M194,-62.27C194,-75.58 194,-91.19 194,-102.82"/>
<polygon fill="black" stroke="black" points="197.5,-62.2 194,-52.2 190.5,-62.2 197.5,-62.2"/>
<text text-anchor="middle" x="211" y="-73.8" font-family="Times,serif" font-size="14.00">समासः</text>
</g>
<!-- Node4_2&#45;&gt;Node6_1 -->
<g id="edge5" class="edge">
<title>Node4_2&#45;&gt;Node6_1</title>
<path fill="none" stroke="black" d="M221.38,-144.16C232.79,-153.11 246.32,-163.34 259,-172 269.29,-179.03 281.01,-186.24 291.2,-192.28"/>
<polygon fill="black" stroke="black" points="223.5,-141.37 213.48,-137.91 219.15,-146.86 223.5,-141.37"/>
<text text-anchor="middle" x="286.5" y="-160.8" font-family="Times,serif" font-size="14.00">षष्ठीसम्बन्धः</text>
</g>
<!-- Node8_1 -->
<g id="node11" class="node">
<title>Node8_1</title>
<ellipse fill="#ff99ff" stroke="#ff99ff" cx="574" cy="-34" rx="36.29" ry="18"/>
<text text-anchor="middle" x="574" y="-30.3" font-family="Times,serif" font-size="14.00">वै(8.1)</text>
</g>
<!-- Node12_1 -->
<g id="node12" class="node">
<title>Node12_1</title>
<ellipse fill="#00bfff" stroke="#00bfff" cx="582" cy="-121" rx="53.89" ry="18"/>
<text text-anchor="middle" x="582" y="-117.3" font-family="Times,serif" font-size="14.00">श्रितः(12.1)</text>
</g>
<!-- Node8_1&#45;&gt;Node12_1 -->
<g id="edge8" class="edge">
<title>Node8_1&#45;&gt;Node12_1</title>
<path fill="none" stroke="black" d="M576.57,-62.27C577.82,-75.58 579.29,-91.19 580.38,-102.82"/>
<polygon fill="black" stroke="black" points="580.04,-61.83 575.62,-52.2 573.07,-62.49 580.04,-61.83"/>
<text text-anchor="middle" x="597.5" y="-73.8" font-family="Times,serif" font-size="14.00">सम्बन्धः</text>
</g>
<!-- Node12_1&#45;&gt;Node12_2 -->
<g id="edge13" class="edge">
<title>Node12_1&#45;&gt;Node12_2</title>
<path fill="none" stroke="black" d="M577.19,-149.27C574.84,-162.58 572.08,-178.19 570.03,-189.82"/>
<polygon fill="black" stroke="black" points="580.67,-149.66 578.96,-139.2 573.78,-148.44 580.67,-149.66"/>
<text text-anchor="middle" x="611.5" y="-160.8" font-family="Times,serif" font-size="14.00">विधेयविशेषणम्</text>
</g>
<!-- Node11_1 -->
<g id="node14" class="node">
<title>Node11_1</title>
<ellipse fill="#93db70" stroke="#93db70" cx="688" cy="-34" rx="59.59" ry="18"/>
<text text-anchor="middle" x="688" y="-30.3" font-family="Times,serif" font-size="14.00">स्त्रियम्(11.1)</text>
</g>
<!-- Node11_1&#45;&gt;Node12_1 -->
<g id="edge12" class="edge">
<title>Node11_1&#45;&gt;Node12_1</title>
<path fill="none" stroke="black" d="M660.06,-57.41C641.75,-72.09 618.26,-90.93 601.85,-104.08"/>
<polygon fill="black" stroke="black" points="662.45,-59.97 668.06,-50.99 658.07,-54.51 662.45,-59.97"/>
<text text-anchor="middle" x="650" y="-73.8" font-family="Times,serif" font-size="14.00">कर्म</text>
</g>
</g>
</svg>
