<?xml version="1.0" encoding="UTF-8" standalone="no"?>
<!DOCTYPE svg PUBLIC "-//W3C//DTD SVG 1.1//EN"
 "http://www.w3.org/Graphics/SVG/1.1/DTD/svg11.dtd">
<!-- Generated by graphviz version 2.43.0 (0)
 -->
<!-- Title: G Pages: 1 -->
<svg width="1007pt" height="321pt"
 viewBox="0.00 0.00 1007.14 321.00" xmlns="http://www.w3.org/2000/svg" xmlns:xlink="http://www.w3.org/1999/xlink">
<g id="graph0" class="graph" transform="scale(1 1) rotate(0) translate(4 317)">
<title>G</title>
<polygon fill="#fffacd" stroke="transparent" points="-4,4 -4,-317 1003.14,-317 1003.14,4 -4,4"/>
<g id="clust1" class="cluster">
<title>cluster_1</title>
<polygon fill="#fffacd" stroke="black" points="8,-8 8,-147 118,-147 118,-8 8,-8"/>
</g>
<g id="clust2" class="cluster">
<title>cluster_2</title>
<polygon fill="#fffacd" stroke="black" points="381,-95 381,-234 513,-234 513,-95 381,-95"/>
</g>
<!-- Node2_1 -->
<g id="node1" class="node">
<title>Node2_1</title>
<ellipse fill="#00bfff" stroke="#00bfff" cx="62" cy="-34" rx="46.29" ry="18"/>
<text text-anchor="middle" x="62" y="-30.3" font-family="Times,serif" font-size="14.00">इदम्(2.1)</text>
</g>
<!-- Node3_1 -->
<g id="node2" class="node">
<title>Node3_1</title>
<ellipse fill="#00bfff" stroke="#00bfff" cx="63" cy="-121" rx="47.39" ry="18"/>
<text text-anchor="middle" x="63" y="-117.3" font-family="Times,serif" font-size="14.00">सर्वम्(3.1)</text>
</g>
<!-- Node2_1&#45;&gt;Node3_1 -->
<g id="edge2" class="edge">
<title>Node2_1&#45;&gt;Node3_1</title>
<path fill="none" stroke="black" d="M62.32,-62.27C62.48,-75.58 62.66,-91.19 62.8,-102.82"/>
<polygon fill="black" stroke="black" points="65.82,-62.16 62.2,-52.2 58.82,-62.24 65.82,-62.16"/>
<text text-anchor="middle" x="85.5" y="-73.8" font-family="Times,serif" font-size="14.00">विशेषणम्</text>
</g>
<!-- Node14_1 -->
<g id="node6" class="node">
<title>Node14_1</title>
<ellipse fill="#ff1975" stroke="#ff1975" cx="121" cy="-208" rx="62.29" ry="18"/>
<text text-anchor="middle" x="121" y="-204.3" font-family="Times,serif" font-size="14.00">(अस्ति)(14.1)</text>
</g>
<!-- Node3_1&#45;&gt;Node14_1 -->
<g id="edge3" class="edge">
<title>Node3_1&#45;&gt;Node14_1</title>
<path fill="none" stroke="black" d="M80.33,-147.4C89.79,-161.26 101.23,-178.03 109.56,-190.24"/>
<polygon fill="black" stroke="black" points="82.99,-145.08 74.46,-138.79 77.2,-149.03 82.99,-145.08"/>
<text text-anchor="middle" x="107" y="-160.8" font-family="Times,serif" font-size="14.00">कर्ता</text>
</g>
<!-- Node11_1 -->
<g id="node3" class="node">
<title>Node11_1</title>
<ellipse fill="#00bfff" stroke="#00bfff" cx="447" cy="-121" rx="58.49" ry="18"/>
<text text-anchor="middle" x="447" y="-117.3" font-family="Times,serif" font-size="14.00">मानसः(11.1)</text>
</g>
<!-- Node12_1 -->
<g id="node4" class="node">
<title>Node12_1</title>
<ellipse fill="#00bfff" stroke="#00bfff" cx="447" cy="-208" rx="51.99" ry="18"/>
<text text-anchor="middle" x="447" y="-204.3" font-family="Times,serif" font-size="14.00">ज्वरः(12.1)</text>
</g>
<!-- Node11_1&#45;&gt;Node12_1 -->
<g id="edge9" class="edge">
<title>Node11_1&#45;&gt;Node12_1</title>
<path fill="none" stroke="black" d="M447,-149.27C447,-162.58 447,-178.19 447,-189.82"/>
<polygon fill="black" stroke="black" points="450.5,-149.2 447,-139.2 443.5,-149.2 450.5,-149.2"/>
<text text-anchor="middle" x="469.5" y="-160.8" font-family="Times,serif" font-size="14.00">विशेषणम्</text>
</g>
<!-- Node13_1 -->
<g id="node16" class="node">
<title>Node13_1</title>
<ellipse fill="#ff1975" stroke="#ff1975" cx="447" cy="-295" rx="50.89" ry="18"/>
<text text-anchor="middle" x="447" y="-291.3" font-family="Times,serif" font-size="14.00">व्येतु(13.1)</text>
</g>
<!-- Node12_1&#45;&gt;Node13_1 -->
<g id="edge10" class="edge">
<title>Node12_1&#45;&gt;Node13_1</title>
<path fill="none" stroke="black" d="M447,-236.27C447,-249.58 447,-265.19 447,-276.82"/>
<polygon fill="black" stroke="black" points="450.5,-236.2 447,-226.2 443.5,-236.2 450.5,-236.2"/>
<text text-anchor="middle" x="458" y="-247.8" font-family="Times,serif" font-size="14.00">कर्ता</text>
</g>
<!-- Node1_1 -->
<g id="node5" class="node">
<title>Node1_1</title>
<ellipse fill="#6fffc3" stroke="#6fffc3" cx="179" cy="-121" rx="50.89" ry="18"/>
<text text-anchor="middle" x="179" y="-117.3" font-family="Times,serif" font-size="14.00">राजेन्द्र(1.1)</text>
</g>
<!-- Node1_1&#45;&gt;Node14_1 -->
<g id="edge1" class="edge">
<title>Node1_1&#45;&gt;Node14_1</title>
<path fill="none" stroke="black" d="M161.67,-147.4C152.21,-161.26 140.77,-178.03 132.44,-190.24"/>
<polygon fill="black" stroke="black" points="164.8,-149.03 167.54,-138.79 159.01,-145.08 164.8,-149.03"/>
<text text-anchor="middle" x="175" y="-160.8" font-family="Times,serif" font-size="14.00">सम्बोध्यः</text>
</g>
<!-- Node4_1 -->
<g id="node7" class="node">
<title>Node4_1</title>
<ellipse fill="#00bfff" stroke="#00bfff" cx="185" cy="-34" rx="59.29" ry="18"/>
<text text-anchor="middle" x="185" y="-30.3" font-family="Times,serif" font-size="14.00">भवदीयम्(4.1)</text>
</g>
<!-- Node4_1&#45;&gt;Node3_1 -->
<g id="edge4" class="edge">
<title>Node4_1&#45;&gt;Node3_1</title>
<path fill="none" stroke="black" d="M154.11,-56.52C132.44,-71.62 104.02,-91.42 84.72,-104.87"/>
<polygon fill="black" stroke="black" points="156.13,-59.38 162.34,-50.79 152.13,-53.63 156.13,-59.38"/>
<text text-anchor="middle" x="171" y="-73.8" font-family="Times,serif" font-size="14.00">विधेय_विशेषणम्</text>
</g>
<!-- Node5_1 -->
<g id="node8" class="node">
<title>Node5_1</title>
<ellipse fill="#93db70" stroke="#93db70" cx="555" cy="-34" rx="46.59" ry="18"/>
<text text-anchor="middle" x="555" y="-30.3" font-family="Times,serif" font-size="14.00">त्वाम्(5.1)</text>
</g>
<!-- Node7_1 -->
<g id="node9" class="node">
<title>Node7_1</title>
<ellipse fill="#ff1975" stroke="#ff1975" cx="672" cy="-121" rx="54.69" ry="18"/>
<text text-anchor="middle" x="672" y="-117.3" font-family="Times,serif" font-size="14.00">प्रसादये(7.1)</text>
</g>
<!-- Node5_1&#45;&gt;Node7_1 -->
<g id="edge5" class="edge">
<title>Node5_1&#45;&gt;Node7_1</title>
<path fill="none" stroke="black" d="M584.01,-56.08C604.61,-71.04 631.8,-90.79 650.47,-104.36"/>
<polygon fill="black" stroke="black" points="586.06,-53.24 575.92,-50.2 581.95,-58.91 586.06,-53.24"/>
<text text-anchor="middle" x="630" y="-73.8" font-family="Times,serif" font-size="14.00">कर्म</text>
</g>
<!-- Node6_1 -->
<g id="node10" class="node">
<title>Node6_1</title>
<ellipse fill="#40e0d0" stroke="#40e0d0" cx="672" cy="-34" rx="51.99" ry="18"/>
<text text-anchor="middle" x="672" y="-30.3" font-family="Times,serif" font-size="14.00">शिरसा(6.1)</text>
</g>
<!-- Node6_1&#45;&gt;Node7_1 -->
<g id="edge6" class="edge">
<title>Node6_1&#45;&gt;Node7_1</title>
<path fill="none" stroke="black" d="M672,-62.27C672,-75.58 672,-91.19 672,-102.82"/>
<polygon fill="black" stroke="black" points="675.5,-62.2 672,-52.2 668.5,-62.2 675.5,-62.2"/>
<text text-anchor="middle" x="688.5" y="-73.8" font-family="Times,serif" font-size="14.00">करणम्</text>
</g>
<!-- Node16_1 -->
<g id="node11" class="node">
<title>Node16_1</title>
<ellipse fill="#00bfff" stroke="#00bfff" cx="802" cy="-34" rx="60.39" ry="18"/>
<text text-anchor="middle" x="802" y="-30.3" font-family="Times,serif" font-size="14.00">(अहम्)(16.1)</text>
</g>
<!-- Node16_1&#45;&gt;Node7_1 -->
<g id="edge12" class="edge">
<title>Node16_1&#45;&gt;Node7_1</title>
<path fill="none" stroke="black" d="M769.75,-56.09C746.79,-71.1 716.45,-90.94 695.69,-104.51"/>
<polygon fill="black" stroke="black" points="771.7,-58.99 778.16,-50.59 767.87,-53.13 771.7,-58.99"/>
<text text-anchor="middle" x="755" y="-73.8" font-family="Times,serif" font-size="14.00">कर्ता</text>
</g>
<!-- Node8_1 -->
<g id="node12" class="node">
<title>Node8_1</title>
<ellipse fill="#00bfff" stroke="#00bfff" cx="324" cy="-34" rx="61.99" ry="18"/>
<text text-anchor="middle" x="324" y="-30.3" font-family="Times,serif" font-size="14.00">त्वदधीनाः(8.1)</text>
</g>
<!-- Node8_1&#45;&gt;Node3_1 -->
<g id="edge7" class="edge">
<title>Node8_1&#45;&gt;Node3_1</title>
<path fill="none" stroke="black" d="M287.74,-55.06C266.81,-65.72 239.63,-78.02 214,-85 173.03,-96.15 160,-83.99 119,-95 109.13,-97.65 98.79,-101.83 89.71,-106.02"/>
<polygon fill="black" stroke="black" points="289.63,-58.02 296.89,-50.31 286.41,-51.81 289.63,-58.02"/>
<text text-anchor="middle" x="294" y="-73.8" font-family="Times,serif" font-size="14.00">विधेय_विशेषणम्</text>
</g>
<!-- Node9_1 -->
<g id="node13" class="node">
<title>Node9_1</title>
<ellipse fill="#ff1975" stroke="#ff1975" cx="940" cy="-121" rx="43.59" ry="18"/>
<text text-anchor="middle" x="940" y="-117.3" font-family="Times,serif" font-size="14.00">स्मः(9.1)</text>
</g>
<!-- Node15_1 -->
<g id="node14" class="node">
<title>Node15_1</title>
<ellipse fill="#00bfff" stroke="#00bfff" cx="940" cy="-34" rx="59.29" ry="18"/>
<text text-anchor="middle" x="940" y="-30.3" font-family="Times,serif" font-size="14.00">(वयम्)(15.1)</text>
</g>
<!-- Node15_1&#45;&gt;Node9_1 -->
<g id="edge11" class="edge">
<title>Node15_1&#45;&gt;Node9_1</title>
<path fill="none" stroke="black" d="M940,-62.27C940,-75.58 940,-91.19 940,-102.82"/>
<polygon fill="black" stroke="black" points="943.5,-62.2 940,-52.2 936.5,-62.2 943.5,-62.2"/>
<text text-anchor="middle" x="951" y="-73.8" font-family="Times,serif" font-size="14.00">कर्ता</text>
</g>
<!-- Node10_1 -->
<g id="node15" class="node">
<title>Node10_1</title>
<ellipse fill="#87ceeb" stroke="#87ceeb" cx="447" cy="-34" rx="42.79" ry="18"/>
<text text-anchor="middle" x="447" y="-30.3" font-family="Times,serif" font-size="14.00">ते(10.1)</text>
</g>
<!-- Node10_1&#45;&gt;Node11_1 -->
<g id="edge8" class="edge">
<title>Node10_1&#45;&gt;Node11_1</title>
<path fill="none" stroke="black" d="M447,-62.27C447,-75.58 447,-91.19 447,-102.82"/>
<polygon fill="black" stroke="black" points="450.5,-62.2 447,-52.2 443.5,-62.2 450.5,-62.2"/>
<text text-anchor="middle" x="474.5" y="-73.8" font-family="Times,serif" font-size="14.00">षष्ठीसम्बन्धः</text>
</g>
</g>
</svg>
