<?xml version="1.0" encoding="UTF-8" standalone="no"?>
<!DOCTYPE svg PUBLIC "-//W3C//DTD SVG 1.1//EN"
 "http://www.w3.org/Graphics/SVG/1.1/DTD/svg11.dtd">
<!-- Generated by graphviz version 2.43.0 (0)
 -->
<!-- Title: G Pages: 1 -->
<svg width="940pt" height="408pt"
 viewBox="0.00 0.00 939.85 408.00" xmlns="http://www.w3.org/2000/svg" xmlns:xlink="http://www.w3.org/1999/xlink">
<g id="graph0" class="graph" transform="scale(1 1) rotate(0) translate(4 404)">
<title>G</title>
<polygon fill="#fffacd" stroke="transparent" points="-4,4 -4,-404 935.85,-404 935.85,4 -4,4"/>
<g id="clust1" class="cluster">
<title>cluster_1</title>
<polygon fill="#fffacd" stroke="black" points="599,-8 599,-234 834,-234 834,-8 599,-8"/>
</g>
<g id="clust2" class="cluster">
<title>cluster_2</title>
<polygon fill="#fffacd" stroke="black" points="8,-182 8,-321 293,-321 293,-182 8,-182"/>
</g>
<!-- Node1_1 -->
<g id="node1" class="node">
<title>Node1_1</title>
<ellipse fill="#93db70" stroke="#93db70" cx="784" cy="-121" rx="42.49" ry="18"/>
<text text-anchor="middle" x="784" y="-117.3" font-family="Times,serif" font-size="14.00">तम्(1.1)</text>
</g>
<!-- Node6_1 -->
<g id="node2" class="node">
<title>Node6_1</title>
<ellipse fill="#93db70" stroke="#93db70" cx="676" cy="-208" rx="67.69" ry="18"/>
<text text-anchor="middle" x="676" y="-204.3" font-family="Times,serif" font-size="14.00">कुरुपार्थिवम्(6.1)</text>
</g>
<!-- Node1_1&#45;&gt;Node6_1 -->
<g id="edge1" class="edge">
<title>Node1_1&#45;&gt;Node6_1</title>
<path fill="none" stroke="black" d="M756.94,-143.57C745.82,-152.41 732.81,-162.72 721,-172 713.22,-178.11 704.65,-184.79 697.1,-190.66"/>
<polygon fill="black" stroke="black" points="759.37,-146.11 765.02,-137.15 755.01,-140.63 759.37,-146.11"/>
<text text-anchor="middle" x="760.5" y="-160.8" font-family="Times,serif" font-size="14.00">विशेषणम्</text>
</g>
<!-- Node3_1 -->
<g id="node9" class="node">
<title>Node3_1</title>
<ellipse fill="#ff99ff" stroke="#ff99ff" cx="599" cy="-295" rx="48.19" ry="18"/>
<text text-anchor="middle" x="599" y="-291.3" font-family="Times,serif" font-size="14.00">दृष्ट्वा(3.1)</text>
</g>
<!-- Node6_1&#45;&gt;Node3_1 -->
<g id="edge7" class="edge">
<title>Node6_1&#45;&gt;Node3_1</title>
<path fill="none" stroke="black" d="M653.97,-233.32C641.04,-247.6 625.05,-265.24 613.66,-277.82"/>
<polygon fill="black" stroke="black" points="656.67,-235.55 660.79,-225.79 651.48,-230.85 656.67,-235.55"/>
<text text-anchor="middle" x="652" y="-247.8" font-family="Times,serif" font-size="14.00">कर्म</text>
</g>
<!-- Node4_2 -->
<g id="node3" class="node">
<title>Node4_2</title>
<ellipse fill="#ff1975" stroke="#ff1975" cx="665" cy="-121" rx="58.49" ry="18"/>
<text text-anchor="middle" x="665" y="-117.3" font-family="Times,serif" font-size="14.00">आसीनम्(4.2)</text>
</g>
<!-- Node4_2&#45;&gt;Node6_1 -->
<g id="edge5" class="edge">
<title>Node4_2&#45;&gt;Node6_1</title>
<path fill="none" stroke="black" d="M668.53,-149.27C670.25,-162.58 672.27,-178.19 673.78,-189.82"/>
<polygon fill="black" stroke="black" points="671.98,-148.67 667.23,-139.2 665.04,-149.57 671.98,-148.67"/>
<text text-anchor="middle" x="694.5" y="-160.8" font-family="Times,serif" font-size="14.00">विशेषणम्</text>
</g>
<!-- Node5_1 -->
<g id="node4" class="node">
<title>Node5_1</title>
<ellipse fill="#93db70" stroke="#93db70" cx="665" cy="-34" rx="55.79" ry="18"/>
<text text-anchor="middle" x="665" y="-30.3" font-family="Times,serif" font-size="14.00">निश्चेष्टम्(5.1)</text>
</g>
<!-- Node5_1&#45;&gt;Node4_2 -->
<g id="edge6" class="edge">
<title>Node5_1&#45;&gt;Node4_2</title>
<path fill="none" stroke="black" d="M665,-62.27C665,-75.58 665,-91.19 665,-102.82"/>
<polygon fill="black" stroke="black" points="668.5,-62.2 665,-52.2 661.5,-62.2 668.5,-62.2"/>
<text text-anchor="middle" x="687.5" y="-73.8" font-family="Times,serif" font-size="14.00">समुच्चितः</text>
</g>
<!-- Node11_1 -->
<g id="node5" class="node">
<title>Node11_1</title>
<ellipse fill="#00bfff" stroke="#00bfff" cx="223" cy="-208" rx="61.99" ry="18"/>
<text text-anchor="middle" x="223" y="-204.3" font-family="Times,serif" font-size="14.00">कौन्तेयः(11.1)</text>
</g>
<!-- Node8_1 -->
<g id="node6" class="node">
<title>Node8_1</title>
<ellipse fill="#00bfff" stroke="#00bfff" cx="223" cy="-295" rx="46.29" ry="18"/>
<text text-anchor="middle" x="223" y="-291.3" font-family="Times,serif" font-size="14.00">राजा(8.1)</text>
</g>
<!-- Node11_1&#45;&gt;Node8_1 -->
<g id="edge11" class="edge">
<title>Node11_1&#45;&gt;Node8_1</title>
<path fill="none" stroke="black" d="M223,-236.27C223,-249.58 223,-265.19 223,-276.82"/>
<polygon fill="black" stroke="black" points="226.5,-236.2 223,-226.2 219.5,-236.2 226.5,-236.2"/>
<text text-anchor="middle" x="245.5" y="-247.8" font-family="Times,serif" font-size="14.00">विशेषणम्</text>
</g>
<!-- Node9_1 -->
<g id="node10" class="node">
<title>Node9_1</title>
<ellipse fill="#ff1975" stroke="#ff1975" cx="416" cy="-382" rx="44.39" ry="18"/>
<text text-anchor="middle" x="416" y="-378.3" font-family="Times,serif" font-size="14.00">ययौ(9.1)</text>
</g>
<!-- Node8_1&#45;&gt;Node9_1 -->
<g id="edge9" class="edge">
<title>Node8_1&#45;&gt;Node9_1</title>
<path fill="none" stroke="black" d="M261.78,-313.08C298.79,-329.38 353.7,-353.56 387.04,-368.25"/>
<polygon fill="black" stroke="black" points="262.88,-309.74 252.31,-308.91 260.05,-316.14 262.88,-309.74"/>
<text text-anchor="middle" x="343" y="-334.8" font-family="Times,serif" font-size="14.00">कर्ता</text>
</g>
<!-- Node12_1 -->
<g id="node7" class="node">
<title>Node12_1</title>
<ellipse fill="#00bfff" stroke="#00bfff" cx="80" cy="-208" rx="63.89" ry="18"/>
<text text-anchor="middle" x="80" y="-204.3" font-family="Times,serif" font-size="14.00">परवीरहा(12.1)</text>
</g>
<!-- Node12_1&#45;&gt;Node8_1 -->
<g id="edge12" class="edge">
<title>Node12_1&#45;&gt;Node8_1</title>
<path fill="none" stroke="black" d="M115.03,-229.82C141.05,-245.29 175.87,-265.99 198.84,-279.64"/>
<polygon fill="black" stroke="black" points="116.61,-226.69 106.23,-224.59 113.04,-232.71 116.61,-226.69"/>
<text text-anchor="middle" x="183.5" y="-247.8" font-family="Times,serif" font-size="14.00">विशेषणम्</text>
</g>
<!-- Node2_1 -->
<g id="node8" class="node">
<title>Node2_1</title>
<ellipse fill="#ff99ff" stroke="#ff99ff" cx="553" cy="-208" rx="37.09" ry="18"/>
<text text-anchor="middle" x="553" y="-204.3" font-family="Times,serif" font-size="14.00">तु(2.1)</text>
</g>
<!-- Node2_1&#45;&gt;Node3_1 -->
<g id="edge2" class="edge">
<title>Node2_1&#45;&gt;Node3_1</title>
<path fill="none" stroke="black" d="M566.96,-234.8C574.42,-248.58 583.38,-265.14 589.93,-277.24"/>
<polygon fill="black" stroke="black" points="569.93,-232.92 562.09,-225.79 563.77,-236.25 569.93,-232.92"/>
<text text-anchor="middle" x="597.5" y="-247.8" font-family="Times,serif" font-size="14.00">सम्बन्धः</text>
</g>
<!-- Node3_1&#45;&gt;Node9_1 -->
<g id="edge3" class="edge">
<title>Node3_1&#45;&gt;Node9_1</title>
<path fill="none" stroke="black" d="M571.35,-317.78C558.17,-327.4 541.85,-338.26 526,-346 502.77,-357.34 475.02,-366.14 453.2,-372.08"/>
<polygon fill="black" stroke="black" points="573.6,-320.47 579.52,-311.68 569.41,-314.86 573.6,-320.47"/>
<text text-anchor="middle" x="572.5" y="-334.8" font-family="Times,serif" font-size="14.00">पूर्वकालः</text>
</g>
<!-- Node4_1 -->
<g id="node11" class="node">
<title>Node4_1</title>
<ellipse fill="#ff99ff" stroke="#ff99ff" cx="887" cy="-34" rx="44.69" ry="18"/>
<text text-anchor="middle" x="887" y="-30.3" font-family="Times,serif" font-size="14.00">तथा(4.1)</text>
</g>
<!-- Node4_1&#45;&gt;Node4_2 -->
<g id="edge4" class="edge">
<title>Node4_1&#45;&gt;Node4_2</title>
<path fill="none" stroke="black" d="M846.32,-50.58C804.46,-66.6 739.94,-91.31 700.21,-106.52"/>
<polygon fill="black" stroke="black" points="847.58,-53.84 855.66,-47 845.07,-47.31 847.58,-53.84"/>
<text text-anchor="middle" x="827" y="-73.8" font-family="Times,serif" font-size="14.00">समुच्चय_द्योतकः</text>
</g>
<!-- Node7_1 -->
<g id="node12" class="node">
<title>Node7_1</title>
<ellipse fill="#93db70" stroke="#93db70" cx="354" cy="-295" rx="52.79" ry="18"/>
<text text-anchor="middle" x="354" y="-291.3" font-family="Times,serif" font-size="14.00">आर्तिम्(7.1)</text>
</g>
<!-- Node7_1&#45;&gt;Node9_1 -->
<g id="edge8" class="edge">
<title>Node7_1&#45;&gt;Node9_1</title>
<path fill="none" stroke="black" d="M372.28,-321.06C382.52,-335.09 394.99,-352.19 403.99,-364.53"/>
<polygon fill="black" stroke="black" points="374.97,-318.81 366.25,-312.79 369.31,-322.93 374.97,-318.81"/>
<text text-anchor="middle" x="398" y="-334.8" font-family="Times,serif" font-size="14.00">कर्म</text>
</g>
<!-- Node10_1 -->
<g id="node13" class="node">
<title>Node10_1</title>
<ellipse fill="#00bfff" stroke="#00bfff" cx="479" cy="-295" rx="53.89" ry="18"/>
<text text-anchor="middle" x="479" y="-291.3" font-family="Times,serif" font-size="14.00">तूर्णम्(10.1)</text>
</g>
<!-- Node10_1&#45;&gt;Node9_1 -->
<g id="edge10" class="edge">
<title>Node10_1&#45;&gt;Node9_1</title>
<path fill="none" stroke="black" d="M460.42,-321.06C450.02,-335.09 437.35,-352.19 428.21,-364.53"/>
<polygon fill="black" stroke="black" points="463.41,-322.91 466.55,-312.79 457.79,-318.74 463.41,-322.91"/>
<text text-anchor="middle" x="487" y="-334.8" font-family="Times,serif" font-size="14.00">क्रियाविशेषणम्</text>
</g>
</g>
</svg>
