<?xml version="1.0" encoding="UTF-8" standalone="no"?>
<!DOCTYPE svg PUBLIC "-//W3C//DTD SVG 1.1//EN"
 "http://www.w3.org/Graphics/SVG/1.1/DTD/svg11.dtd">
<!-- Generated by graphviz version 2.43.0 (0)
 -->
<!-- Title: G Pages: 1 -->
<svg width="983pt" height="392pt"
 viewBox="0.00 0.00 983.00 392.00" xmlns="http://www.w3.org/2000/svg" xmlns:xlink="http://www.w3.org/1999/xlink">
<g id="graph0" class="graph" transform="scale(1 1) rotate(0) translate(4 388)">
<title>G</title>
<polygon fill="#fffacd" stroke="transparent" points="-4,4 -4,-388 979,-388 979,4 -4,4"/>
<g id="clust1" class="cluster">
<title>cluster_1</title>
<polygon fill="#fffacd" stroke="black" points="8,-79 8,-218 430,-218 430,-79 8,-79"/>
</g>
<!-- Node12_1 -->
<g id="node1" class="node">
<title>Node12_1</title>
<ellipse fill="#93db70" stroke="#93db70" cx="552" cy="-105" rx="54.69" ry="18"/>
<text text-anchor="middle" x="552" y="-101.3" font-family="Times,serif" font-size="14.00">(तम्)(12.1)</text>
</g>
<!-- Node10_1 -->
<g id="node2" class="node">
<title>Node10_1</title>
<ellipse fill="#93db70" stroke="#93db70" cx="279" cy="-192" rx="50.09" ry="18"/>
<text text-anchor="middle" x="279" y="-188.3" font-family="Times,serif" font-size="14.00">माम्(10.1)</text>
</g>
<!-- Node12_1&#45;&gt;Node10_1 -->
<g id="edge11" class="edge">
<title>Node12_1&#45;&gt;Node10_1</title>
<path fill="none" stroke="black" stroke-dasharray="1,5" d="M504.11,-120.91C450.37,-137.64 364.35,-164.43 315.68,-179.58"/>
<polygon fill="black" stroke="black" points="505.25,-124.22 513.75,-117.91 503.16,-117.54 505.25,-124.22"/>
<text text-anchor="middle" x="454.5" y="-144.8" font-family="Times,serif" font-size="14.00">विशेषणम्</text>
</g>
<!-- Node6_1 -->
<g id="node12" class="node">
<title>Node6_1</title>
<ellipse fill="#ff99ff" stroke="#ff99ff" cx="779" cy="-105" rx="46.29" ry="18"/>
<text text-anchor="middle" x="779" y="-101.3" font-family="Times,serif" font-size="14.00">एवम्(6.1)</text>
</g>
<!-- Node12_1&#45;&gt;Node6_1 -->
<g id="edge10" class="edge">
<title>Node12_1&#45;&gt;Node6_1</title>
<path fill="none" stroke="red" stroke-dasharray="5,2" d="M616.87,-105C650.29,-105 690.65,-105 722.74,-105"/>
<polygon fill="red" stroke="red" points="616.66,-101.5 606.66,-105 616.66,-108.5 616.66,-101.5"/>
<polygon fill="red" stroke="red" points="722.85,-108.5 732.85,-105 722.85,-101.5 722.85,-108.5"/>
<text text-anchor="middle" x="669.72" y="-90.8" font-family="Times,serif" font-size="14.00">नित्यसम्बन्धः</text>
</g>
<!-- Node9_1 -->
<g id="node14" class="node">
<title>Node9_1</title>
<ellipse fill="#ff99ff" stroke="#ff99ff" cx="279" cy="-279" rx="46.29" ry="18"/>
<text text-anchor="middle" x="279" y="-275.3" font-family="Times,serif" font-size="14.00">धिक्(9.1)</text>
</g>
<!-- Node10_1&#45;&gt;Node9_1 -->
<g id="edge9" class="edge">
<title>Node10_1&#45;&gt;Node9_1</title>
<path fill="none" stroke="black" d="M279,-220.27C279,-233.58 279,-249.19 279,-260.82"/>
<polygon fill="black" stroke="black" points="282.5,-220.2 279,-210.2 275.5,-220.2 282.5,-220.2"/>
<text text-anchor="middle" x="297.5" y="-231.8" font-family="Times,serif" font-size="14.00">सम्बन्धः</text>
</g>
<!-- Node14_2 -->
<g id="node3" class="node">
<title>Node14_2</title>
<ellipse fill="#93db70" stroke="#93db70" cx="228" cy="-105" rx="59.59" ry="18"/>
<text text-anchor="middle" x="228" y="-101.3" font-family="Times,serif" font-size="14.00">दुर्बुद्धिम्(14.2)</text>
</g>
<!-- Node14_2&#45;&gt;Node10_1 -->
<g id="edge13" class="edge">
<title>Node14_2&#45;&gt;Node10_1</title>
<path fill="none" stroke="black" d="M243.24,-131.4C251.56,-145.26 261.62,-162.03 268.94,-174.24"/>
<polygon fill="black" stroke="black" points="246.22,-129.57 238.08,-122.79 240.22,-133.17 246.22,-129.57"/>
<text text-anchor="middle" x="279.5" y="-144.8" font-family="Times,serif" font-size="14.00">विशेषणम्</text>
</g>
<!-- Node15_2 -->
<g id="node4" class="node">
<title>Node15_2</title>
<ellipse fill="#00bfff" stroke="#00bfff" cx="364" cy="-105" rx="58.49" ry="18"/>
<text text-anchor="middle" x="364" y="-101.3" font-family="Times,serif" font-size="14.00">सक्तम्(15.2)</text>
</g>
<!-- Node15_2&#45;&gt;Node10_1 -->
<g id="edge15" class="edge">
<title>Node15_2&#45;&gt;Node10_1</title>
<path fill="none" stroke="black" d="M340.44,-129.56C325.98,-144.02 307.86,-162.14 295.05,-174.95"/>
<polygon fill="black" stroke="black" points="343.01,-131.93 347.61,-122.39 338.07,-126.99 343.01,-131.93"/>
<text text-anchor="middle" x="349.5" y="-144.8" font-family="Times,serif" font-size="14.00">विशेषणम्</text>
</g>
<!-- Node16_1 -->
<g id="node5" class="node">
<title>Node16_1</title>
<ellipse fill="#93db70" stroke="#93db70" cx="83" cy="-105" rx="66.89" ry="18"/>
<text text-anchor="middle" x="83" y="-101.3" font-family="Times,serif" font-size="14.00">प्रमादिनम्(16.1)</text>
</g>
<!-- Node16_1&#45;&gt;Node10_1 -->
<g id="edge16" class="edge">
<title>Node16_1&#45;&gt;Node10_1</title>
<path fill="none" stroke="black" d="M126.21,-124.74C163.19,-140.78 215.51,-163.46 248.32,-177.7"/>
<polygon fill="black" stroke="black" points="127.26,-121.38 116.69,-120.61 124.48,-127.8 127.26,-121.38"/>
<text text-anchor="middle" x="215.5" y="-144.8" font-family="Times,serif" font-size="14.00">विशेषणम्</text>
</g>
<!-- Node1_1 -->
<g id="node6" class="node">
<title>Node1_1</title>
<ellipse fill="#ff99ff" stroke="#ff99ff" cx="475" cy="-192" rx="37.09" ry="18"/>
<text text-anchor="middle" x="475" y="-188.3" font-family="Times,serif" font-size="14.00">न(1.1)</text>
</g>
<!-- Node3_1 -->
<g id="node7" class="node">
<title>Node3_1</title>
<ellipse fill="#ff1975" stroke="#ff1975" cx="688" cy="-279" rx="55.79" ry="18"/>
<text text-anchor="middle" x="688" y="-275.3" font-family="Times,serif" font-size="14.00">प्रीणयते(3.1)</text>
</g>
<!-- Node1_1&#45;&gt;Node3_1 -->
<g id="edge1" class="edge">
<title>Node1_1&#45;&gt;Node3_1</title>
<path fill="none" stroke="black" d="M507.77,-210.9C512.21,-213.3 516.71,-215.72 521,-218 542.23,-229.3 546.69,-234.01 569,-243 593.57,-252.9 622,-261.37 644.91,-267.49"/>
<polygon fill="black" stroke="black" points="509.29,-207.74 498.83,-206.06 505.95,-213.9 509.29,-207.74"/>
<text text-anchor="middle" x="588.5" y="-231.8" font-family="Times,serif" font-size="14.00">प्रतिषेधः</text>
</g>
<!-- Node2_1 -->
<g id="node8" class="node">
<title>Node2_1</title>
<ellipse fill="#93db70" stroke="#93db70" cx="574" cy="-192" rx="44.39" ry="18"/>
<text text-anchor="middle" x="574" y="-188.3" font-family="Times,serif" font-size="14.00">माम्(2.1)</text>
</g>
<!-- Node2_1&#45;&gt;Node3_1 -->
<g id="edge2" class="edge">
<title>Node2_1&#45;&gt;Node3_1</title>
<path fill="none" stroke="black" d="M597.77,-216C607.43,-224.86 618.91,-234.82 630,-243 639.75,-250.19 651.04,-257.27 661.06,-263.15"/>
<polygon fill="black" stroke="black" points="600.16,-213.44 590.46,-209.18 595.38,-218.56 600.16,-213.44"/>
<text text-anchor="middle" x="657" y="-231.8" font-family="Times,serif" font-size="14.00">प्रयोज्यकर्ता</text>
</g>
<!-- Node4_1 -->
<g id="node9" class="node">
<title>Node4_1</title>
<ellipse fill="#00bfff" stroke="#00bfff" cx="688" cy="-192" rx="51.99" ry="18"/>
<text text-anchor="middle" x="688" y="-188.3" font-family="Times,serif" font-size="14.00">राज्यम्(4.1)</text>
</g>
<!-- Node4_1&#45;&gt;Node3_1 -->
<g id="edge3" class="edge">
<title>Node4_1&#45;&gt;Node3_1</title>
<path fill="none" stroke="black" d="M688,-220.27C688,-233.58 688,-249.19 688,-260.82"/>
<polygon fill="black" stroke="black" points="691.5,-220.2 688,-210.2 684.5,-220.2 691.5,-220.2"/>
<text text-anchor="middle" x="717.5" y="-231.8" font-family="Times,serif" font-size="14.00">प्रयोजककर्ता</text>
</g>
<!-- Node5_1 -->
<g id="node10" class="node">
<title>Node5_1</title>
<ellipse fill="#c6e2eb" stroke="#c6e2eb" cx="914" cy="-105" rx="46.59" ry="18"/>
<text text-anchor="middle" x="914" y="-101.3" font-family="Times,serif" font-size="14.00">त्वयि(5.1)</text>
</g>
<!-- Node7_1 -->
<g id="node11" class="node">
<title>Node7_1</title>
<ellipse fill="#c6e2eb" stroke="#c6e2eb" cx="914" cy="-192" rx="53.09" ry="18"/>
<text text-anchor="middle" x="914" y="-188.3" font-family="Times,serif" font-size="14.00">दुःखिते(7.1)</text>
</g>
<!-- Node5_1&#45;&gt;Node7_1 -->
<g id="edge4" class="edge">
<title>Node5_1&#45;&gt;Node7_1</title>
<path fill="none" stroke="black" d="M914,-133.27C914,-146.58 914,-162.19 914,-173.82"/>
<polygon fill="black" stroke="black" points="917.5,-133.2 914,-123.2 910.5,-133.2 917.5,-133.2"/>
<text text-anchor="middle" x="925" y="-144.8" font-family="Times,serif" font-size="14.00">कर्ता</text>
</g>
<!-- Node7_1&#45;&gt;Node3_1 -->
<g id="edge6" class="edge">
<title>Node7_1&#45;&gt;Node3_1</title>
<path fill="none" stroke="black" d="M878.69,-212.51C859.62,-222.52 835.45,-234.39 813,-243 786.7,-253.09 756.28,-261.67 732.04,-267.81"/>
<polygon fill="black" stroke="black" points="880.42,-215.55 887.61,-207.77 877.13,-209.37 880.42,-215.55"/>
<text text-anchor="middle" x="911" y="-231.8" font-family="Times,serif" font-size="14.00">भावलक्षणसप्तमी_पूर्वकालः</text>
</g>
<!-- Node6_1&#45;&gt;Node7_1 -->
<g id="edge5" class="edge">
<title>Node6_1&#45;&gt;Node7_1</title>
<path fill="none" stroke="black" d="M803.71,-128.59C814.42,-137.74 827.37,-148.01 840,-156 852.97,-164.21 868.17,-171.72 881.4,-177.66"/>
<polygon fill="black" stroke="black" points="805.85,-125.8 796.01,-121.86 801.24,-131.08 805.85,-125.8"/>
<text text-anchor="middle" x="875" y="-144.8" font-family="Times,serif" font-size="14.00">क्रियाविशेषणम्</text>
</g>
<!-- Node8_1 -->
<g id="node13" class="node">
<title>Node8_1</title>
<ellipse fill="#6fffc3" stroke="#6fffc3" cx="800" cy="-192" rx="42.49" ry="18"/>
<text text-anchor="middle" x="800" y="-188.3" font-family="Times,serif" font-size="14.00">नृप(8.1)</text>
</g>
<!-- Node8_1&#45;&gt;Node3_1 -->
<g id="edge7" class="edge">
<title>Node8_1&#45;&gt;Node3_1</title>
<path fill="none" stroke="black" d="M779.61,-216.54C771.25,-225.43 761.17,-235.25 751,-243 740.85,-250.74 728.79,-257.86 717.95,-263.64"/>
<polygon fill="black" stroke="black" points="782.29,-218.79 786.46,-209.05 777.13,-214.07 782.29,-218.79"/>
<text text-anchor="middle" x="788" y="-231.8" font-family="Times,serif" font-size="14.00">सम्बोध्यः</text>
</g>
<!-- Node13_1 -->
<g id="node15" class="node">
<title>Node13_1</title>
<ellipse fill="#ff1975" stroke="#ff1975" cx="279" cy="-366" rx="59.59" ry="18"/>
<text text-anchor="middle" x="279" y="-362.3" font-family="Times,serif" font-size="14.00">(अस्तु)(13.1)</text>
</g>
<!-- Node9_1&#45;&gt;Node13_1 -->
<g id="edge8" class="edge">
<title>Node9_1&#45;&gt;Node13_1</title>
<path fill="none" stroke="black" d="M279,-307.27C279,-320.58 279,-336.19 279,-347.82"/>
<polygon fill="black" stroke="black" points="282.5,-307.2 279,-297.2 275.5,-307.2 282.5,-307.2"/>
<text text-anchor="middle" x="297.5" y="-318.8" font-family="Times,serif" font-size="14.00">सम्बन्धः</text>
</g>
<!-- Node14_1 -->
<g id="node16" class="node">
<title>Node14_1</title>
<ellipse fill="#ffff00" stroke="#ffff00" cx="228" cy="-18" rx="46.59" ry="18"/>
<text text-anchor="middle" x="228" y="-14.3" font-family="Times,serif" font-size="14.00">सु&#45;(14.1)</text>
</g>
<!-- Node14_1&#45;&gt;Node14_2 -->
<g id="edge12" class="edge">
<title>Node14_1&#45;&gt;Node14_2</title>
<path fill="none" stroke="black" d="M228,-46.27C228,-59.58 228,-75.19 228,-86.82"/>
<polygon fill="black" stroke="black" points="231.5,-46.2 228,-36.2 224.5,-46.2 231.5,-46.2"/>
<text text-anchor="middle" x="245" y="-57.8" font-family="Times,serif" font-size="14.00">समासः</text>
</g>
<!-- Node15_1 -->
<g id="node17" class="node">
<title>Node15_1</title>
<ellipse fill="#ffff00" stroke="#ffff00" cx="364" cy="-18" rx="55.79" ry="18"/>
<text text-anchor="middle" x="364" y="-14.3" font-family="Times,serif" font-size="14.00">राज्य&#45;(15.1)</text>
</g>
<!-- Node15_1&#45;&gt;Node15_2 -->
<g id="edge14" class="edge">
<title>Node15_1&#45;&gt;Node15_2</title>
<path fill="none" stroke="black" d="M364,-46.27C364,-59.58 364,-75.19 364,-86.82"/>
<polygon fill="black" stroke="black" points="367.5,-46.2 364,-36.2 360.5,-46.2 367.5,-46.2"/>
<text text-anchor="middle" x="381" y="-57.8" font-family="Times,serif" font-size="14.00">समासः</text>
</g>
</g>
</svg>
