<?xml version="1.0" encoding="UTF-8" standalone="no"?>
<!DOCTYPE svg PUBLIC "-//W3C//DTD SVG 1.1//EN"
 "http://www.w3.org/Graphics/SVG/1.1/DTD/svg11.dtd">
<!-- Generated by graphviz version 2.43.0 (0)
 -->
<!-- Title: G Pages: 1 -->
<svg width="632pt" height="495pt"
 viewBox="0.00 0.00 632.49 495.00" xmlns="http://www.w3.org/2000/svg" xmlns:xlink="http://www.w3.org/1999/xlink">
<g id="graph0" class="graph" transform="scale(1 1) rotate(0) translate(4 491)">
<title>G</title>
<polygon fill="#fffacd" stroke="transparent" points="-4,4 -4,-491 628.49,-491 628.49,4 -4,4"/>
<g id="clust1" class="cluster">
<title>cluster_1</title>
<polygon fill="#fffacd" stroke="black" points="182.75,-8 182.75,-147 302.75,-147 302.75,-8 182.75,-8"/>
</g>
<g id="clust2" class="cluster">
<title>cluster_2</title>
<polygon fill="#fffacd" stroke="black" points="106.75,-356 106.75,-408 236.75,-408 236.75,-356 106.75,-356"/>
</g>
<!-- Node3_1 -->
<g id="node1" class="node">
<title>Node3_1</title>
<ellipse fill="#00bfff" stroke="#00bfff" cx="242.75" cy="-34" rx="51.99" ry="18"/>
<text text-anchor="middle" x="242.75" y="-30.3" font-family="Times,serif" font-size="14.00">औरसः(3.1)</text>
</g>
<!-- Node4_1 -->
<g id="node2" class="node">
<title>Node4_1</title>
<ellipse fill="#00bfff" stroke="#00bfff" cx="248.75" cy="-121" rx="44.69" ry="18"/>
<text text-anchor="middle" x="248.75" y="-117.3" font-family="Times,serif" font-size="14.00">पुत्रः(4.1)</text>
</g>
<!-- Node3_1&#45;&gt;Node4_1 -->
<g id="edge4" class="edge">
<title>Node3_1&#45;&gt;Node4_1</title>
<path fill="none" stroke="black" d="M244.67,-62.27C245.61,-75.58 246.71,-91.19 247.53,-102.82"/>
<polygon fill="black" stroke="black" points="248.16,-61.93 243.96,-52.2 241.17,-62.42 248.16,-61.93"/>
<text text-anchor="middle" x="268.25" y="-73.8" font-family="Times,serif" font-size="14.00">विशेषणम्</text>
</g>
<!-- Node5_1 -->
<g id="node9" class="node">
<title>Node5_1</title>
<ellipse fill="#00bfff" stroke="#00bfff" cx="357.75" cy="-208" rx="53.09" ry="18"/>
<text text-anchor="middle" x="357.75" y="-204.3" font-family="Times,serif" font-size="14.00">युयुत्सुः(5.1)</text>
</g>
<!-- Node4_1&#45;&gt;Node5_1 -->
<g id="edge5" class="edge">
<title>Node4_1&#45;&gt;Node5_1</title>
<path fill="none" stroke="black" d="M276.49,-143.64C295.49,-158.45 320.24,-177.75 337.41,-191.15"/>
<polygon fill="black" stroke="black" points="278.52,-140.78 268.48,-137.39 274.22,-146.3 278.52,-140.78"/>
<text text-anchor="middle" x="324.75" y="-160.8" font-family="Times,serif" font-size="14.00">अभेदः</text>
</g>
<!-- Node13_1 -->
<g id="node3" class="node">
<title>Node13_1</title>
<ellipse fill="#93db70" stroke="#93db70" cx="171.75" cy="-295" rx="48.19" ry="18"/>
<text text-anchor="middle" x="171.75" y="-291.3" font-family="Times,serif" font-size="14.00">यम्(13.1)</text>
</g>
<!-- Node10_1 -->
<g id="node4" class="node">
<title>Node10_1</title>
<ellipse fill="#93db70" stroke="#93db70" cx="171.75" cy="-382" rx="56.59" ry="18"/>
<text text-anchor="middle" x="171.75" y="-378.3" font-family="Times,serif" font-size="14.00">अन्यम्(10.1)</text>
</g>
<!-- Node13_1&#45;&gt;Node10_1 -->
<g id="edge13" class="edge">
<title>Node13_1&#45;&gt;Node10_1</title>
<path fill="none" stroke="black" d="M171.75,-323.27C171.75,-336.58 171.75,-352.19 171.75,-363.82"/>
<polygon fill="black" stroke="black" points="175.25,-323.2 171.75,-313.2 168.25,-323.2 175.25,-323.2"/>
<text text-anchor="middle" x="194.25" y="-334.8" font-family="Times,serif" font-size="14.00">विशेषणम्</text>
</g>
<!-- Node12_1 -->
<g id="node7" class="node">
<title>Node12_1</title>
<ellipse fill="#ff1975" stroke="#ff1975" cx="366.75" cy="-469" rx="55.49" ry="18"/>
<text text-anchor="middle" x="366.75" y="-465.3" font-family="Times,serif" font-size="14.00">मन्यते(12.1)</text>
</g>
<!-- Node10_1&#45;&gt;Node12_1 -->
<g id="edge11" class="edge">
<title>Node10_1&#45;&gt;Node12_1</title>
<path fill="none" stroke="black" d="M213.32,-401.12C249.78,-417.01 302.01,-439.78 335.14,-454.23"/>
<polygon fill="black" stroke="black" points="214.51,-397.82 203.95,-397.04 211.71,-404.24 214.51,-397.82"/>
<text text-anchor="middle" x="289.75" y="-421.8" font-family="Times,serif" font-size="14.00">कर्म</text>
</g>
<!-- Node1_1 -->
<g id="node5" class="node">
<title>Node1_1</title>
<ellipse fill="#ffff00" stroke="#ffff00" cx="48.75" cy="-295" rx="44.69" ry="18"/>
<text text-anchor="middle" x="48.75" y="-291.3" font-family="Times,serif" font-size="14.00">नृप&#45;(1.1)</text>
</g>
<!-- Node1_2 -->
<g id="node6" class="node">
<title>Node1_2</title>
<ellipse fill="#6fffc3" stroke="#6fffc3" cx="48.75" cy="-382" rx="48.99" ry="18"/>
<text text-anchor="middle" x="48.75" y="-378.3" font-family="Times,serif" font-size="14.00">सत्तम(1.2)</text>
</g>
<!-- Node1_1&#45;&gt;Node1_2 -->
<g id="edge1" class="edge">
<title>Node1_1&#45;&gt;Node1_2</title>
<path fill="none" stroke="black" d="M48.75,-323.27C48.75,-336.58 48.75,-352.19 48.75,-363.82"/>
<polygon fill="black" stroke="black" points="52.25,-323.2 48.75,-313.2 45.25,-323.2 52.25,-323.2"/>
<text text-anchor="middle" x="65.75" y="-334.8" font-family="Times,serif" font-size="14.00">समासः</text>
</g>
<!-- Node1_2&#45;&gt;Node12_1 -->
<g id="edge2" class="edge">
<title>Node1_2&#45;&gt;Node12_1</title>
<path fill="none" stroke="black" d="M85.43,-401.2C91.15,-403.68 97.05,-406.05 102.75,-408 176.1,-433.17 264.57,-450.82 318.19,-460.19"/>
<polygon fill="black" stroke="black" points="86.6,-397.89 76.04,-396.97 83.72,-404.27 86.6,-397.89"/>
<text text-anchor="middle" x="208.75" y="-421.8" font-family="Times,serif" font-size="14.00">सम्बोध्यः</text>
</g>
<!-- Node2_1 -->
<g id="node8" class="node">
<title>Node2_1</title>
<ellipse fill="#87ceeb" stroke="#87ceeb" cx="362.75" cy="-34" rx="50.09" ry="18"/>
<text text-anchor="middle" x="362.75" y="-30.3" font-family="Times,serif" font-size="14.00">भवतः(2.1)</text>
</g>
<!-- Node2_1&#45;&gt;Node4_1 -->
<g id="edge3" class="edge">
<title>Node2_1&#45;&gt;Node4_1</title>
<path fill="none" stroke="black" d="M333.61,-56.72C313.44,-71.76 287.09,-91.41 269.14,-104.79"/>
<polygon fill="black" stroke="black" points="335.91,-59.37 341.84,-50.59 331.73,-53.76 335.91,-59.37"/>
<text text-anchor="middle" x="339.25" y="-73.8" font-family="Times,serif" font-size="14.00">षष्ठीसम्बन्धः</text>
</g>
<!-- Node5_1&#45;&gt;Node13_1 -->
<g id="edge7" class="edge">
<title>Node5_1&#45;&gt;Node13_1</title>
<path fill="none" stroke="black" stroke-dasharray="1,5" d="M317.99,-227.17C282.93,-243.19 232.64,-266.17 201.11,-280.58"/>
<polygon fill="black" stroke="black" points="319.81,-230.19 327.45,-222.85 316.9,-223.82 319.81,-230.19"/>
<text text-anchor="middle" x="310.75" y="-247.8" font-family="Times,serif" font-size="14.00">अन्यतरसम्बन्धः</text>
</g>
<!-- Node7_1 -->
<g id="node10" class="node">
<title>Node7_1</title>
<ellipse fill="#ff1975" stroke="#ff1975" cx="470.75" cy="-295" rx="47.39" ry="18"/>
<text text-anchor="middle" x="470.75" y="-291.3" font-family="Times,serif" font-size="14.00">अस्तु(7.1)</text>
</g>
<!-- Node5_1&#45;&gt;Node7_1 -->
<g id="edge6" class="edge">
<title>Node5_1&#45;&gt;Node7_1</title>
<path fill="none" stroke="black" d="M386.57,-230.68C406.43,-245.62 432.35,-265.12 450.15,-278.51"/>
<polygon fill="black" stroke="black" points="388.57,-227.8 378.47,-224.59 384.36,-233.4 388.57,-227.8"/>
<text text-anchor="middle" x="431.75" y="-247.8" font-family="Times,serif" font-size="14.00">कर्ता</text>
</g>
<!-- Node6_1 -->
<g id="node11" class="node">
<title>Node6_1</title>
<ellipse fill="#00bfff" stroke="#00bfff" cx="357.75" cy="-121" rx="46.29" ry="18"/>
<text text-anchor="middle" x="357.75" y="-117.3" font-family="Times,serif" font-size="14.00">राजा(6.1)</text>
</g>
<!-- Node6_1&#45;&gt;Node5_1 -->
<g id="edge8" class="edge">
<title>Node6_1&#45;&gt;Node5_1</title>
<path fill="none" stroke="black" d="M357.75,-149.27C357.75,-162.58 357.75,-178.19 357.75,-189.82"/>
<polygon fill="black" stroke="black" points="361.25,-149.2 357.75,-139.2 354.25,-149.2 361.25,-149.2"/>
<text text-anchor="middle" x="396.75" y="-160.8" font-family="Times,serif" font-size="14.00">विधेय_विशेषणम्</text>
</g>
<!-- Node8_1 -->
<g id="node12" class="node">
<title>Node8_1</title>
<ellipse fill="#00bfff" stroke="#00bfff" cx="432.75" cy="-382" rx="50.09" ry="18"/>
<text text-anchor="middle" x="432.75" y="-378.3" font-family="Times,serif" font-size="14.00">भवान्(8.1)</text>
</g>
<!-- Node8_1&#45;&gt;Node12_1 -->
<g id="edge9" class="edge">
<title>Node8_1&#45;&gt;Node12_1</title>
<path fill="none" stroke="black" d="M413.33,-408.01C402.51,-421.94 389.33,-438.91 379.76,-451.24"/>
<polygon fill="black" stroke="black" points="416.34,-409.84 419.71,-399.79 410.81,-405.55 416.34,-409.84"/>
<text text-anchor="middle" x="413.75" y="-421.8" font-family="Times,serif" font-size="14.00">कर्ता</text>
</g>
<!-- Node9_1 -->
<g id="node13" class="node">
<title>Node9_1</title>
<ellipse fill="#ff99ff" stroke="#ff99ff" cx="459.75" cy="-121" rx="37.89" ry="18"/>
<text text-anchor="middle" x="459.75" y="-117.3" font-family="Times,serif" font-size="14.00">च(9.1)</text>
</g>
<!-- Node9_1&#45;&gt;Node5_1 -->
<g id="edge10" class="edge">
<title>Node9_1&#45;&gt;Node5_1</title>
<path fill="none" stroke="black" d="M452.29,-148.56C448.93,-156.87 444.21,-165.55 437.75,-172 426.8,-182.92 411.88,-190.7 397.88,-196.1"/>
<polygon fill="black" stroke="black" points="455.59,-149.72 455.65,-139.13 449,-147.38 455.59,-149.72"/>
<text text-anchor="middle" x="481.25" y="-160.8" font-family="Times,serif" font-size="14.00">अन्यतरद्योतकः</text>
</g>
<!-- Node11_1 -->
<g id="node14" class="node">
<title>Node11_1</title>
<ellipse fill="#6fffc3" stroke="#6fffc3" cx="562.75" cy="-382" rx="61.99" ry="18"/>
<text text-anchor="middle" x="562.75" y="-378.3" font-family="Times,serif" font-size="14.00">महाराज(11.1)</text>
</g>
<!-- Node11_1&#45;&gt;Node12_1 -->
<g id="edge12" class="edge">
<title>Node11_1&#45;&gt;Node12_1</title>
<path fill="none" stroke="black" d="M520.08,-401.5C483.48,-417.37 431.57,-439.89 398.53,-454.22"/>
<polygon fill="black" stroke="black" points="521.72,-404.61 529.5,-397.42 518.93,-398.19 521.72,-404.61"/>
<text text-anchor="middle" x="496.75" y="-421.8" font-family="Times,serif" font-size="14.00">सम्बोध्यः</text>
</g>
<!-- Node13_2 -->
<g id="node15" class="node">
<title>Node13_2</title>
<ellipse fill="#00bfff" stroke="#00bfff" cx="351.75" cy="-295" rx="53.09" ry="18"/>
<text text-anchor="middle" x="351.75" y="-291.3" font-family="Times,serif" font-size="14.00">(सः)(13.2)</text>
</g>
<!-- Node13_2&#45;&gt;Node13_1 -->
<g id="edge15" class="edge">
<title>Node13_2&#45;&gt;Node13_1</title>
<path fill="none" stroke="red" stroke-dasharray="5,2" d="M288.29,-295C269.37,-295 248.74,-295 230.16,-295"/>
<polygon fill="red" stroke="red" points="288.3,-298.5 298.3,-295 288.3,-291.5 288.3,-298.5"/>
<polygon fill="red" stroke="red" points="229.98,-291.5 219.98,-295 229.98,-298.5 229.98,-291.5"/>
<text text-anchor="middle" x="259.15" y="-280.8" font-family="Times,serif" font-size="14.00">नित्यसम्बन्धः</text>
</g>
<!-- Node13_3 -->
<g id="node16" class="node">
<title>Node13_3</title>
<ellipse fill="#00bfff" stroke="#00bfff" cx="305.75" cy="-382" rx="59.29" ry="18"/>
<text text-anchor="middle" x="305.75" y="-378.3" font-family="Times,serif" font-size="14.00">(राजा)(13.3)</text>
</g>
<!-- Node13_2&#45;&gt;Node13_3 -->
<g id="edge14" class="edge">
<title>Node13_2&#45;&gt;Node13_3</title>
<path fill="none" stroke="black" d="M339.27,-321.89C335.38,-329.7 331,-338.26 326.75,-346 323.47,-351.96 319.7,-358.38 316.26,-364.06"/>
<polygon fill="black" stroke="black" points="342.45,-323.35 343.73,-312.83 336.17,-320.26 342.45,-323.35"/>
<text text-anchor="middle" x="344.75" y="-334.8" font-family="Times,serif" font-size="14.00">कर्ता</text>
</g>
<!-- Node13_3&#45;&gt;Node13_1 -->
<g id="edge16" class="edge">
<title>Node13_3&#45;&gt;Node13_1</title>
<path fill="none" stroke="black" d="M269.69,-360.95C261.42,-356.17 252.72,-351.01 244.75,-346 227.05,-334.89 207.56,-321.47 193.17,-311.34"/>
<polygon fill="black" stroke="black" points="268.03,-364.03 278.45,-365.95 271.5,-357.95 268.03,-364.03"/>
<text text-anchor="middle" x="283.75" y="-334.8" font-family="Times,serif" font-size="14.00">विधेय_विशेषणम्</text>
</g>
<!-- Node13_4 -->
<g id="node17" class="node">
<title>Node13_4</title>
<ellipse fill="#ff1975" stroke="#ff1975" cx="490.75" cy="-34" rx="59.59" ry="18"/>
<text text-anchor="middle" x="490.75" y="-30.3" font-family="Times,serif" font-size="14.00">(अस्तु)(13.4)</text>
</g>
</g>
</svg>
