<?xml version="1.0" encoding="UTF-8" standalone="no"?>
<!DOCTYPE svg PUBLIC "-//W3C//DTD SVG 1.1//EN"
 "http://www.w3.org/Graphics/SVG/1.1/DTD/svg11.dtd">
<!-- Generated by graphviz version 2.43.0 (0)
 -->
<!-- Title: G Pages: 1 -->
<svg width="936pt" height="408pt"
 viewBox="0.00 0.00 935.79 408.00" xmlns="http://www.w3.org/2000/svg" xmlns:xlink="http://www.w3.org/1999/xlink">
<g id="graph0" class="graph" transform="scale(1 1) rotate(0) translate(4 404)">
<title>G</title>
<polygon fill="#fffacd" stroke="transparent" points="-4,4 -4,-404 931.79,-404 931.79,4 -4,4"/>
<g id="clust1" class="cluster">
<title>cluster_1</title>
<polygon fill="#fffacd" stroke="black" points="725.75,-182 725.75,-321 853.75,-321 853.75,-182 725.75,-182"/>
</g>
<g id="clust2" class="cluster">
<title>cluster_2</title>
<polygon fill="#fffacd" stroke="black" points="617.75,-8 617.75,-147 735.75,-147 735.75,-8 617.75,-8"/>
</g>
<!-- Node2_1 -->
<g id="node1" class="node">
<title>Node2_1</title>
<ellipse fill="#ff99ff" stroke="#ff99ff" cx="789.75" cy="-208" rx="48.99" ry="18"/>
<text text-anchor="middle" x="789.75" y="-204.3" font-family="Times,serif" font-size="14.00">उक्तः(2.1)</text>
</g>
<!-- Node4_1 -->
<g id="node2" class="node">
<title>Node4_1</title>
<ellipse fill="#00bfff" stroke="#00bfff" cx="789.75" cy="-295" rx="55.79" ry="18"/>
<text text-anchor="middle" x="789.75" y="-291.3" font-family="Times,serif" font-size="14.00">कौन्तेयः(4.1)</text>
</g>
<!-- Node2_1&#45;&gt;Node4_1 -->
<g id="edge2" class="edge">
<title>Node2_1&#45;&gt;Node4_1</title>
<path fill="none" stroke="black" d="M789.75,-236.27C789.75,-249.58 789.75,-265.19 789.75,-276.82"/>
<polygon fill="black" stroke="black" points="793.25,-236.2 789.75,-226.2 786.25,-236.2 793.25,-236.2"/>
<text text-anchor="middle" x="812.25" y="-247.8" font-family="Times,serif" font-size="14.00">विशेषणम्</text>
</g>
<!-- Node8_1 -->
<g id="node7" class="node">
<title>Node8_1</title>
<ellipse fill="#ff1975" stroke="#ff1975" cx="429.75" cy="-382" rx="51.99" ry="18"/>
<text text-anchor="middle" x="429.75" y="-378.3" font-family="Times,serif" font-size="14.00">पस्पर्श(8.1)</text>
</g>
<!-- Node4_1&#45;&gt;Node8_1 -->
<g id="edge4" class="edge">
<title>Node4_1&#45;&gt;Node8_1</title>
<path fill="none" stroke="black" d="M753.07,-315.32C731.42,-325.94 703.16,-338.44 676.75,-346 610.54,-364.94 531.29,-373.86 480.74,-377.89"/>
<polygon fill="black" stroke="black" points="754.84,-318.35 762.22,-310.76 751.71,-312.09 754.84,-318.35"/>
<text text-anchor="middle" x="728.75" y="-334.8" font-family="Times,serif" font-size="14.00">कर्ता</text>
</g>
<!-- Node6_1 -->
<g id="node3" class="node">
<title>Node6_1</title>
<ellipse fill="#40e0d0" stroke="#40e0d0" cx="676.75" cy="-34" rx="50.89" ry="18"/>
<text text-anchor="middle" x="676.75" y="-30.3" font-family="Times,serif" font-size="14.00">ज्येष्ठेन(6.1)</text>
</g>
<!-- Node5_1 -->
<g id="node4" class="node">
<title>Node5_1</title>
<ellipse fill="#40e0d0" stroke="#40e0d0" cx="677.75" cy="-121" rx="47.39" ry="18"/>
<text text-anchor="middle" x="677.75" y="-117.3" font-family="Times,serif" font-size="14.00">पित्रा(5.1)</text>
</g>
<!-- Node6_1&#45;&gt;Node5_1 -->
<g id="edge6" class="edge">
<title>Node6_1&#45;&gt;Node5_1</title>
<path fill="none" stroke="black" d="M677.07,-62.27C677.22,-75.58 677.41,-91.19 677.54,-102.82"/>
<polygon fill="black" stroke="black" points="680.57,-62.16 676.95,-52.2 673.57,-62.24 680.57,-62.16"/>
<text text-anchor="middle" x="699.25" y="-73.8" font-family="Times,serif" font-size="14.00">विशेषणम्</text>
</g>
<!-- Node5_1&#45;&gt;Node2_1 -->
<g id="edge5" class="edge">
<title>Node5_1&#45;&gt;Node2_1</title>
<path fill="none" stroke="black" d="M706.05,-143.48C725.73,-158.42 751.52,-177.99 769.24,-191.43"/>
<polygon fill="black" stroke="black" points="708.11,-140.65 698.03,-137.39 703.88,-146.23 708.11,-140.65"/>
<text text-anchor="middle" x="750.75" y="-160.8" font-family="Times,serif" font-size="14.00">कर्ता</text>
</g>
<!-- Node1_1 -->
<g id="node5" class="node">
<title>Node1_1</title>
<ellipse fill="#ff99ff" stroke="#ff99ff" cx="789.75" cy="-121" rx="46.29" ry="18"/>
<text text-anchor="middle" x="789.75" y="-117.3" font-family="Times,serif" font-size="14.00">एवम्(1.1)</text>
</g>
<!-- Node1_1&#45;&gt;Node2_1 -->
<g id="edge1" class="edge">
<title>Node1_1&#45;&gt;Node2_1</title>
<path fill="none" stroke="black" d="M789.75,-149.27C789.75,-162.58 789.75,-178.19 789.75,-189.82"/>
<polygon fill="black" stroke="black" points="793.25,-149.2 789.75,-139.2 786.25,-149.2 793.25,-149.2"/>
<text text-anchor="middle" x="824.75" y="-160.8" font-family="Times,serif" font-size="14.00">क्रियाविशेषणम्</text>
</g>
<!-- Node3_1 -->
<g id="node6" class="node">
<title>Node3_1</title>
<ellipse fill="#ff99ff" stroke="#ff99ff" cx="890.75" cy="-121" rx="37.09" ry="18"/>
<text text-anchor="middle" x="890.75" y="-117.3" font-family="Times,serif" font-size="14.00">तु(3.1)</text>
</g>
<!-- Node3_1&#45;&gt;Node2_1 -->
<g id="edge3" class="edge">
<title>Node3_1&#45;&gt;Node2_1</title>
<path fill="none" stroke="black" d="M880.52,-148.19C876.29,-156.58 870.72,-165.39 863.75,-172 852.92,-182.27 838.52,-190 825.31,-195.55"/>
<polygon fill="black" stroke="black" points="883.73,-149.59 884.73,-139.05 877.37,-146.67 883.73,-149.59"/>
<text text-anchor="middle" x="893.25" y="-160.8" font-family="Times,serif" font-size="14.00">सम्बन्धः</text>
</g>
<!-- Node7_1 -->
<g id="node8" class="node">
<title>Node7_1</title>
<ellipse fill="#6fffc3" stroke="#6fffc3" cx="48.75" cy="-295" rx="48.99" ry="18"/>
<text text-anchor="middle" x="48.75" y="-291.3" font-family="Times,serif" font-size="14.00">भारत(7.1)</text>
</g>
<!-- Node7_1&#45;&gt;Node8_1 -->
<g id="edge7" class="edge">
<title>Node7_1&#45;&gt;Node8_1</title>
<path fill="none" stroke="black" d="M86.94,-313.5C93.48,-316.19 100.26,-318.81 106.75,-321 200.63,-352.73 315.86,-369.03 380.22,-376.23"/>
<polygon fill="black" stroke="black" points="88.17,-310.22 77.59,-309.53 85.43,-316.66 88.17,-310.22"/>
<text text-anchor="middle" x="214.75" y="-334.8" font-family="Times,serif" font-size="14.00">सम्बोध्यः</text>
</g>
<!-- Node9_1 -->
<g id="node9" class="node">
<title>Node9_1</title>
<ellipse fill="#ffff00" stroke="#ffff00" cx="165.75" cy="-208" rx="45.49" ry="18"/>
<text text-anchor="middle" x="165.75" y="-204.3" font-family="Times,serif" font-size="14.00">सर्व&#45;(9.1)</text>
</g>
<!-- Node9_2 -->
<g id="node10" class="node">
<title>Node9_2</title>
<ellipse fill="#c6e2eb" stroke="#c6e2eb" cx="165.75" cy="-295" rx="50.09" ry="18"/>
<text text-anchor="middle" x="165.75" y="-291.3" font-family="Times,serif" font-size="14.00">गात्रेषु(9.2)</text>
</g>
<!-- Node9_1&#45;&gt;Node9_2 -->
<g id="edge8" class="edge">
<title>Node9_1&#45;&gt;Node9_2</title>
<path fill="none" stroke="black" d="M165.75,-236.27C165.75,-249.58 165.75,-265.19 165.75,-276.82"/>
<polygon fill="black" stroke="black" points="169.25,-236.2 165.75,-226.2 162.25,-236.2 169.25,-236.2"/>
<text text-anchor="middle" x="175.25" y="-247.8" font-family="Times,serif" font-size="14.00">T1</text>
</g>
<!-- Node9_2&#45;&gt;Node8_1 -->
<g id="edge9" class="edge">
<title>Node9_2&#45;&gt;Node8_1</title>
<path fill="none" stroke="black" d="M205.43,-313.27C211.86,-315.93 218.46,-318.6 224.75,-321 256.78,-333.25 264.93,-336.04 297.75,-346 327.92,-355.15 362.37,-364.24 388.51,-370.86"/>
<polygon fill="black" stroke="black" points="206.78,-310.04 196.2,-309.39 204.06,-316.49 206.78,-310.04"/>
<text text-anchor="middle" x="325.25" y="-334.8" font-family="Times,serif" font-size="14.00">अधिकरणम्</text>
</g>
<!-- Node10_1 -->
<g id="node11" class="node">
<title>Node10_1</title>
<ellipse fill="#b4ffb4" stroke="#b4ffb4" cx="298.75" cy="-295" rx="64.99" ry="18"/>
<text text-anchor="middle" x="298.75" y="-291.3" font-family="Times,serif" font-size="14.00">सौहार्दात्(10.1)</text>
</g>
<!-- Node10_1&#45;&gt;Node8_1 -->
<g id="edge10" class="edge">
<title>Node10_1&#45;&gt;Node8_1</title>
<path fill="none" stroke="black" d="M331.61,-317.32C354.91,-332.44 385.61,-352.36 406.42,-365.87"/>
<polygon fill="black" stroke="black" points="333.37,-314.3 323.08,-311.79 329.56,-320.17 333.37,-314.3"/>
<text text-anchor="middle" x="382.25" y="-334.8" font-family="Times,serif" font-size="14.00">हेतुः</text>
</g>
<!-- Node11_1 -->
<g id="node12" class="node">
<title>Node11_1</title>
<ellipse fill="#93db70" stroke="#93db70" cx="429.75" cy="-295" rx="48.19" ry="18"/>
<text text-anchor="middle" x="429.75" y="-291.3" font-family="Times,serif" font-size="14.00">तम्(11.1)</text>
</g>
<!-- Node11_1&#45;&gt;Node8_1 -->
<g id="edge11" class="edge">
<title>Node11_1&#45;&gt;Node8_1</title>
<path fill="none" stroke="black" d="M429.75,-323.27C429.75,-336.58 429.75,-352.19 429.75,-363.82"/>
<polygon fill="black" stroke="black" points="433.25,-323.2 429.75,-313.2 426.25,-323.2 433.25,-323.2"/>
<text text-anchor="middle" x="438.75" y="-334.8" font-family="Times,serif" font-size="14.00">कर्म</text>
</g>
<!-- Node12_1 -->
<g id="node13" class="node">
<title>Node12_1</title>
<ellipse fill="#ff99ff" stroke="#ff99ff" cx="546.75" cy="-295" rx="51.19" ry="18"/>
<text text-anchor="middle" x="546.75" y="-291.3" font-family="Times,serif" font-size="14.00">शनैः(12.1)</text>
</g>
<!-- Node12_1&#45;&gt;Node8_1 -->
<g id="edge12" class="edge">
<title>Node12_1&#45;&gt;Node8_1</title>
<path fill="none" stroke="black" d="M517.17,-317.48C496.58,-332.45 469.58,-352.06 451.07,-365.51"/>
<polygon fill="black" stroke="black" points="519.25,-320.3 525.29,-311.59 515.14,-314.64 519.25,-320.3"/>
<text text-anchor="middle" x="530.75" y="-334.8" font-family="Times,serif" font-size="14.00">क्रियाविशेषणम्</text>
</g>
<!-- Node13_1 -->
<g id="node14" class="node">
<title>Node13_1</title>
<ellipse fill="#ff99ff" stroke="#ff99ff" cx="665.75" cy="-295" rx="50.09" ry="18"/>
<text text-anchor="middle" x="665.75" y="-291.3" font-family="Times,serif" font-size="14.00">तदा(13.1)</text>
</g>
<!-- Node13_1&#45;&gt;Node8_1 -->
<g id="edge13" class="edge">
<title>Node13_1&#45;&gt;Node8_1</title>
<path fill="none" stroke="black" d="M632.27,-315.92C614.22,-326.01 591.29,-337.83 569.75,-346 538.71,-357.77 502.29,-366.74 474.39,-372.64"/>
<polygon fill="black" stroke="black" points="634.26,-318.81 641.23,-310.83 630.8,-312.72 634.26,-318.81"/>
<text text-anchor="middle" x="637.25" y="-334.8" font-family="Times,serif" font-size="14.00">कालाधिकरणम्</text>
</g>
</g>
</svg>
