<?xml version="1.0" encoding="UTF-8" standalone="no"?>
<!DOCTYPE svg PUBLIC "-//W3C//DTD SVG 1.1//EN"
 "http://www.w3.org/Graphics/SVG/1.1/DTD/svg11.dtd">
<!-- Generated by graphviz version 2.43.0 (0)
 -->
<!-- Title: G Pages: 1 -->
<svg width="745pt" height="234pt"
 viewBox="0.00 0.00 744.69 234.00" xmlns="http://www.w3.org/2000/svg" xmlns:xlink="http://www.w3.org/1999/xlink">
<g id="graph0" class="graph" transform="scale(1 1) rotate(0) translate(4 230)">
<title>G</title>
<polygon fill="#fffacd" stroke="transparent" points="-4,4 -4,-230 740.69,-230 740.69,4 -4,4"/>
<g id="clust1" class="cluster">
<title>cluster_1</title>
<polygon fill="#fffacd" stroke="black" points="110.9,-79 110.9,-218 238.9,-218 238.9,-79 110.9,-79"/>
</g>
<!-- Node1_1 -->
<g id="node1" class="node">
<title>Node1_1</title>
<ellipse fill="#ff1975" stroke="#ff1975" cx="174.9" cy="-105" rx="46.59" ry="18"/>
<text text-anchor="middle" x="174.9" y="-101.3" font-family="Times,serif" font-size="14.00">स्पृश(1.1)</text>
</g>
<!-- Node5_1 -->
<g id="node2" class="node">
<title>Node5_1</title>
<ellipse fill="#ff1975" stroke="#ff1975" cx="174.9" cy="-192" rx="55.79" ry="18"/>
<text text-anchor="middle" x="174.9" y="-188.3" font-family="Times,serif" font-size="14.00">परिष्वज(5.1)</text>
</g>
<!-- Node1_1&#45;&gt;Node5_1 -->
<g id="edge1" class="edge">
<title>Node1_1&#45;&gt;Node5_1</title>
<path fill="none" stroke="black" d="M174.9,-133.27C174.9,-146.58 174.9,-162.19 174.9,-173.82"/>
<polygon fill="black" stroke="black" points="178.4,-133.2 174.9,-123.2 171.4,-133.2 178.4,-133.2"/>
<text text-anchor="middle" x="197.4" y="-144.8" font-family="Times,serif" font-size="14.00">समुच्चितः</text>
</g>
<!-- Node2_1 -->
<g id="node3" class="node">
<title>Node2_1</title>
<ellipse fill="#93db70" stroke="#93db70" cx="62.9" cy="-105" rx="39.79" ry="18"/>
<text text-anchor="middle" x="62.9" y="-101.3" font-family="Times,serif" font-size="14.00">मां(2.1)</text>
</g>
<!-- Node2_1&#45;&gt;Node5_1 -->
<g id="edge2" class="edge">
<title>Node2_1&#45;&gt;Node5_1</title>
<path fill="none" stroke="black" d="M90.4,-126.87C110.07,-141.8 136.14,-161.59 154.09,-175.21"/>
<polygon fill="black" stroke="black" points="92.49,-124.06 82.4,-120.81 88.25,-129.64 92.49,-124.06"/>
<text text-anchor="middle" x="133.9" y="-144.8" font-family="Times,serif" font-size="14.00">कर्म</text>
</g>
<!-- Node3_1 -->
<g id="node4" class="node">
<title>Node3_1</title>
<ellipse fill="#40e0d0" stroke="#40e0d0" cx="55.9" cy="-18" rx="55.79" ry="18"/>
<text text-anchor="middle" x="55.9" y="-14.3" font-family="Times,serif" font-size="14.00">पाणिना(3.1)</text>
</g>
<!-- Node3_1&#45;&gt;Node1_1 -->
<g id="edge3" class="edge">
<title>Node3_1&#45;&gt;Node1_1</title>
<path fill="none" stroke="black" d="M86.03,-40.52C107.12,-55.59 134.78,-75.35 153.61,-88.79"/>
<polygon fill="black" stroke="black" points="87.89,-37.55 77.72,-34.59 83.82,-43.25 87.89,-37.55"/>
<text text-anchor="middle" x="138.4" y="-57.8" font-family="Times,serif" font-size="14.00">करणम्</text>
</g>
<!-- Node4_1 -->
<g id="node5" class="node">
<title>Node4_1</title>
<ellipse fill="#6fffc3" stroke="#6fffc3" cx="174.9" cy="-18" rx="45.49" ry="18"/>
<text text-anchor="middle" x="174.9" y="-14.3" font-family="Times,serif" font-size="14.00">भूयः(4.1)</text>
</g>
<!-- Node4_1&#45;&gt;Node1_1 -->
<g id="edge4" class="edge">
<title>Node4_1&#45;&gt;Node1_1</title>
<path fill="none" stroke="black" d="M174.9,-46.27C174.9,-59.58 174.9,-75.19 174.9,-86.82"/>
<polygon fill="black" stroke="black" points="178.4,-46.2 174.9,-36.2 171.4,-46.2 178.4,-46.2"/>
<text text-anchor="middle" x="209.9" y="-57.8" font-family="Times,serif" font-size="14.00">क्रियाविशेषणम्</text>
</g>
<!-- Node0 -->
<g id="node6" class="node">
<title>Node0</title>
<ellipse fill="lightgrey" stroke="black" cx="360.9" cy="-18" rx="27" ry="18"/>
</g>
<!-- Node6_1 -->
<g id="node7" class="node">
<title>Node6_1</title>
<ellipse fill="#ff99ff" stroke="#ff99ff" cx="275.9" cy="-18" rx="37.89" ry="18"/>
<text text-anchor="middle" x="275.9" y="-14.3" font-family="Times,serif" font-size="14.00">च(6.1)</text>
</g>
<!-- Node6_1&#45;&gt;Node1_1 -->
<g id="edge5" class="edge">
<title>Node6_1&#45;&gt;Node1_1</title>
<path fill="none" stroke="black" d="M265.67,-45.19C261.44,-53.58 255.87,-62.39 248.9,-69 237.86,-79.46 223.12,-87.29 209.7,-92.86"/>
<polygon fill="black" stroke="black" points="268.88,-46.59 269.88,-36.05 262.52,-43.67 268.88,-46.59"/>
<text text-anchor="middle" x="297.9" y="-57.8" font-family="Times,serif" font-size="14.00">समुच्चय_द्योतकः</text>
</g>
<!-- Node7_1 -->
<g id="node8" class="node">
<title>Node7_1</title>
<ellipse fill="#6fffc3" stroke="#6fffc3" cx="299.9" cy="-105" rx="52.79" ry="18"/>
<text text-anchor="middle" x="299.9" y="-101.3" font-family="Times,serif" font-size="14.00">पाण्डव(7.1)</text>
</g>
<!-- Node7_1&#45;&gt;Node5_1 -->
<g id="edge6" class="edge">
<title>Node7_1&#45;&gt;Node5_1</title>
<path fill="none" stroke="black" d="M268.89,-127.08C246.85,-142.07 217.74,-161.87 197.79,-175.43"/>
<polygon fill="black" stroke="black" points="270.96,-129.91 277.26,-121.39 267.02,-124.12 270.96,-129.91"/>
<text text-anchor="middle" x="264.9" y="-144.8" font-family="Times,serif" font-size="14.00">सम्बोध्यः</text>
</g>
<!-- Node8_1 -->
<g id="node9" class="node">
<title>Node8_1</title>
<ellipse fill="#ff1975" stroke="#ff1975" cx="536.9" cy="-192" rx="54.69" ry="18"/>
<text text-anchor="middle" x="536.9" y="-188.3" font-family="Times,serif" font-size="14.00">जीवामि(8.1)</text>
</g>
<!-- Node8_2 -->
<g id="node10" class="node">
<title>Node8_2</title>
<ellipse fill="#ff99ff" stroke="#ff99ff" cx="411.9" cy="-105" rx="40.89" ry="18"/>
<text text-anchor="middle" x="411.9" y="-101.3" font-family="Times,serif" font-size="14.00">इव(8.2)</text>
</g>
<!-- Node8_2&#45;&gt;Node8_1 -->
<g id="edge7" class="edge">
<title>Node8_2&#45;&gt;Node8_1</title>
<path fill="none" stroke="black" d="M441.47,-126.11C463.63,-141.18 493.51,-161.49 513.89,-175.36"/>
<polygon fill="black" stroke="black" points="443.34,-123.15 433.1,-120.42 439.4,-128.94 443.34,-123.15"/>
<text text-anchor="middle" x="499.4" y="-144.8" font-family="Times,serif" font-size="14.00">सम्बन्धः</text>
</g>
<!-- Node9_1 -->
<g id="node11" class="node">
<title>Node9_1</title>
<ellipse fill="#ff99ff" stroke="#ff99ff" cx="446.9" cy="-18" rx="38.99" ry="18"/>
<text text-anchor="middle" x="446.9" y="-14.3" font-family="Times,serif" font-size="14.00">हि(9.1)</text>
</g>
<!-- Node10_1 -->
<g id="node12" class="node">
<title>Node10_1</title>
<ellipse fill="#b4ffb4" stroke="#b4ffb4" cx="536.9" cy="-105" rx="65.79" ry="18"/>
<text text-anchor="middle" x="536.9" y="-101.3" font-family="Times,serif" font-size="14.00">संस्पर्शात्(10.1)</text>
</g>
<!-- Node9_1&#45;&gt;Node10_1 -->
<g id="edge8" class="edge">
<title>Node9_1&#45;&gt;Node10_1</title>
<path fill="none" stroke="black" d="M470.93,-41.7C486.14,-56.07 505.47,-74.32 519.26,-87.35"/>
<polygon fill="black" stroke="black" points="473.08,-38.91 463.4,-34.59 468.27,-44 473.08,-38.91"/>
<text text-anchor="middle" x="515.4" y="-57.8" font-family="Times,serif" font-size="14.00">सम्बन्धः</text>
</g>
<!-- Node10_1&#45;&gt;Node8_1 -->
<g id="edge9" class="edge">
<title>Node10_1&#45;&gt;Node8_1</title>
<path fill="none" stroke="black" d="M536.9,-133.27C536.9,-146.58 536.9,-162.19 536.9,-173.82"/>
<polygon fill="black" stroke="black" points="540.4,-133.2 536.9,-123.2 533.4,-133.2 540.4,-133.2"/>
<text text-anchor="middle" x="546.4" y="-144.8" font-family="Times,serif" font-size="14.00">हेतुः</text>
</g>
<!-- Node10_2 -->
<g id="node13" class="node">
<title>Node10_2</title>
<ellipse fill="#87ceeb" stroke="#87ceeb" cx="550.9" cy="-18" rx="47.39" ry="18"/>
<text text-anchor="middle" x="550.9" y="-14.3" font-family="Times,serif" font-size="14.00">तव(10.2)</text>
</g>
<!-- Node10_2&#45;&gt;Node10_1 -->
<g id="edge10" class="edge">
<title>Node10_2&#45;&gt;Node10_1</title>
<path fill="none" stroke="black" d="M546.4,-46.27C544.21,-59.58 541.64,-75.19 539.72,-86.82"/>
<polygon fill="black" stroke="black" points="549.89,-46.64 548.06,-36.2 542.98,-45.5 549.89,-46.64"/>
<text text-anchor="middle" x="571.4" y="-57.8" font-family="Times,serif" font-size="14.00">षष्ठीसम्बन्धः</text>
</g>
<!-- Node11_1 -->
<g id="node14" class="node">
<title>Node11_1</title>
<ellipse fill="#ffff00" stroke="#ffff00" cx="676.9" cy="-18" rx="59.59" ry="18"/>
<text text-anchor="middle" x="676.9" y="-14.3" font-family="Times,serif" font-size="14.00">राजीव&#45;(11.1)</text>
</g>
<!-- Node11_2 -->
<g id="node15" class="node">
<title>Node11_2</title>
<ellipse fill="#6fffc3" stroke="#6fffc3" cx="676.9" cy="-105" rx="56.59" ry="18"/>
<text text-anchor="middle" x="676.9" y="-101.3" font-family="Times,serif" font-size="14.00">लोचन(11.2)</text>
</g>
<!-- Node11_1&#45;&gt;Node11_2 -->
<g id="edge11" class="edge">
<title>Node11_1&#45;&gt;Node11_2</title>
<path fill="none" stroke="black" d="M676.9,-46.27C676.9,-59.58 676.9,-75.19 676.9,-86.82"/>
<polygon fill="black" stroke="black" points="680.4,-46.2 676.9,-36.2 673.4,-46.2 680.4,-46.2"/>
<text text-anchor="middle" x="690.9" y="-57.8" font-family="Times,serif" font-size="14.00">Bsu</text>
</g>
<!-- Node11_2&#45;&gt;Node8_1 -->
<g id="edge12" class="edge">
<title>Node11_2&#45;&gt;Node8_1</title>
<path fill="none" stroke="black" d="M643.05,-126.55C617.96,-141.78 584.33,-162.2 561.71,-175.94"/>
<polygon fill="black" stroke="black" points="645.13,-129.38 651.87,-121.2 641.5,-123.39 645.13,-129.38"/>
<text text-anchor="middle" x="635.9" y="-144.8" font-family="Times,serif" font-size="14.00">सम्बोध्यः</text>
</g>
</g>
</svg>
