<?xml version="1.0" encoding="UTF-8" standalone="no"?>
<!DOCTYPE svg PUBLIC "-//W3C//DTD SVG 1.1//EN"
 "http://www.w3.org/Graphics/SVG/1.1/DTD/svg11.dtd">
<!-- Generated by graphviz version 2.43.0 (0)
 -->
<!-- Title: G Pages: 1 -->
<svg width="1010pt" height="234pt"
 viewBox="0.00 0.00 1010.00 234.00" xmlns="http://www.w3.org/2000/svg" xmlns:xlink="http://www.w3.org/1999/xlink">
<g id="graph0" class="graph" transform="scale(1 1) rotate(0) translate(4 230)">
<title>G</title>
<polygon fill="#fffacd" stroke="transparent" points="-4,4 -4,-230 1006,-230 1006,4 -4,4"/>
<g id="clust1" class="cluster">
<title>cluster_1</title>
<polygon fill="#fffacd" stroke="black" points="8,-8 8,-147 138,-147 138,-8 8,-8"/>
</g>
<!-- Node5_1 -->
<g id="node1" class="node">
<title>Node5_1</title>
<ellipse fill="#93db70" stroke="#93db70" cx="73" cy="-34" rx="56.59" ry="18"/>
<text text-anchor="middle" x="73" y="-30.3" font-family="Times,serif" font-size="14.00">पृथिवीम्(5.1)</text>
</g>
<!-- Node4_1 -->
<g id="node2" class="node">
<title>Node4_1</title>
<ellipse fill="#93db70" stroke="#93db70" cx="73" cy="-121" rx="57.39" ry="18"/>
<text text-anchor="middle" x="73" y="-117.3" font-family="Times,serif" font-size="14.00">जीवितम्(4.1)</text>
</g>
<!-- Node5_1&#45;&gt;Node4_1 -->
<g id="edge4" class="edge">
<title>Node5_1&#45;&gt;Node4_1</title>
<path fill="none" stroke="black" d="M73,-62.27C73,-75.58 73,-91.19 73,-102.82"/>
<polygon fill="black" stroke="black" points="76.5,-62.2 73,-52.2 69.5,-62.2 76.5,-62.2"/>
<text text-anchor="middle" x="95.5" y="-73.8" font-family="Times,serif" font-size="14.00">समुच्चितः</text>
</g>
<!-- Node2_1 -->
<g id="node4" class="node">
<title>Node2_1</title>
<ellipse fill="#ff1975" stroke="#ff1975" cx="234" cy="-208" rx="50.89" ry="18"/>
<text text-anchor="middle" x="234" y="-204.3" font-family="Times,serif" font-size="14.00">कामये(2.1)</text>
</g>
<!-- Node4_1&#45;&gt;Node2_1 -->
<g id="edge3" class="edge">
<title>Node4_1&#45;&gt;Node2_1</title>
<path fill="none" stroke="black" d="M110.21,-141.64C139.72,-157.22 180.28,-178.64 206.81,-192.65"/>
<polygon fill="black" stroke="black" points="111.52,-138.38 101.04,-136.81 108.25,-144.57 111.52,-138.38"/>
<text text-anchor="middle" x="173" y="-160.8" font-family="Times,serif" font-size="14.00">कर्म</text>
</g>
<!-- Node1_1 -->
<g id="node3" class="node">
<title>Node1_1</title>
<ellipse fill="#ff99ff" stroke="#ff99ff" cx="185" cy="-121" rx="37.09" ry="18"/>
<text text-anchor="middle" x="185" y="-117.3" font-family="Times,serif" font-size="14.00">न(1.1)</text>
</g>
<!-- Node1_1&#45;&gt;Node2_1 -->
<g id="edge1" class="edge">
<title>Node1_1&#45;&gt;Node2_1</title>
<path fill="none" stroke="black" d="M199.87,-147.8C207.82,-161.58 217.36,-178.14 224.34,-190.24"/>
<polygon fill="black" stroke="black" points="202.71,-145.71 194.68,-138.79 196.64,-149.2 202.71,-145.71"/>
<text text-anchor="middle" x="232.5" y="-160.8" font-family="Times,serif" font-size="14.00">प्रतिषेधः</text>
</g>
<!-- Node12_3 -->
<g id="node5" class="node">
<title>Node12_3</title>
<ellipse fill="#00bfff" stroke="#00bfff" cx="373" cy="-34" rx="60.39" ry="18"/>
<text text-anchor="middle" x="373" y="-30.3" font-family="Times,serif" font-size="14.00">(अहम्)(12.3)</text>
</g>
<!-- Node11_1 -->
<g id="node13" class="node">
<title>Node11_1</title>
<ellipse fill="#ff1975" stroke="#ff1975" cx="565" cy="-121" rx="69.59" ry="18"/>
<text text-anchor="middle" x="565" y="-117.3" font-family="Times,serif" font-size="14.00">चिकीर्षामि(11.1)</text>
</g>
<!-- Node12_3&#45;&gt;Node11_1 -->
<g id="edge12" class="edge">
<title>Node12_3&#45;&gt;Node11_1</title>
<path fill="none" stroke="black" d="M415.02,-53.6C449.92,-69.05 498.93,-90.75 531.3,-105.08"/>
<polygon fill="black" stroke="black" points="416.13,-50.27 405.57,-49.42 413.3,-56.67 416.13,-50.27"/>
<text text-anchor="middle" x="491" y="-73.8" font-family="Times,serif" font-size="14.00">कर्ता</text>
</g>
<!-- Node3_2 -->
<g id="node6" class="node">
<title>Node3_2</title>
<ellipse fill="#6fffc3" stroke="#6fffc3" cx="283" cy="-121" rx="42.79" ry="18"/>
<text text-anchor="middle" x="283" y="-117.3" font-family="Times,serif" font-size="14.00">श्रेष्ठ(3.2)</text>
</g>
<!-- Node3_2&#45;&gt;Node2_1 -->
<g id="edge2" class="edge">
<title>Node3_2&#45;&gt;Node2_1</title>
<path fill="none" stroke="black" d="M269.45,-147.87C265.24,-155.69 260.52,-164.25 256,-172 252.46,-178.08 248.4,-184.63 244.75,-190.4"/>
<polygon fill="black" stroke="black" points="272.66,-149.29 274.27,-138.82 266.48,-146 272.66,-149.29"/>
<text text-anchor="middle" x="286" y="-160.8" font-family="Times,serif" font-size="14.00">सम्बोध्यः</text>
</g>
<!-- Node6_1 -->
<g id="node7" class="node">
<title>Node6_1</title>
<ellipse fill="#ff99ff" stroke="#ff99ff" cx="192" cy="-34" rx="44.69" ry="18"/>
<text text-anchor="middle" x="192" y="-30.3" font-family="Times,serif" font-size="14.00">तथा(6.1)</text>
</g>
<!-- Node6_1&#45;&gt;Node4_1 -->
<g id="edge5" class="edge">
<title>Node6_1&#45;&gt;Node4_1</title>
<path fill="none" stroke="black" d="M162.77,-55.88C141.83,-70.83 114.08,-90.66 95,-104.29"/>
<polygon fill="black" stroke="black" points="164.9,-58.66 171,-50 160.83,-52.96 164.9,-58.66"/>
<text text-anchor="middle" x="178" y="-73.8" font-family="Times,serif" font-size="14.00">समुच्चय_द्योतकः</text>
</g>
<!-- Node7_1 -->
<g id="node8" class="node">
<title>Node7_1</title>
<ellipse fill="#ff99ff" stroke="#ff99ff" cx="776" cy="-121" rx="44.69" ry="18"/>
<text text-anchor="middle" x="776" y="-117.3" font-family="Times,serif" font-size="14.00">यथा(7.1)</text>
</g>
<!-- Node12_5 -->
<g id="node9" class="node">
<title>Node12_5</title>
<ellipse fill="#ff1975" stroke="#ff1975" cx="827" cy="-208" rx="61.19" ry="18"/>
<text text-anchor="middle" x="827" y="-204.3" font-family="Times,serif" font-size="14.00">(स्यात्)(12.5)</text>
</g>
<!-- Node7_1&#45;&gt;Node12_5 -->
<g id="edge6" class="edge">
<title>Node7_1&#45;&gt;Node12_5</title>
<path fill="none" stroke="black" d="M778.1,-149.3C779.57,-157.02 781.99,-165.18 786,-172 790.26,-179.26 796.6,-185.75 803.02,-191.1"/>
<polygon fill="black" stroke="black" points="781.54,-148.6 776.65,-139.2 774.61,-149.6 781.54,-148.6"/>
<text text-anchor="middle" x="821" y="-160.8" font-family="Times,serif" font-size="14.00">क्रियाविशेषणम्</text>
</g>
<!-- Node8_1 -->
<g id="node10" class="node">
<title>Node8_1</title>
<ellipse fill="#87ceeb" stroke="#87ceeb" cx="888" cy="-34" rx="41.69" ry="18"/>
<text text-anchor="middle" x="888" y="-30.3" font-family="Times,serif" font-size="14.00">तव(8.1)</text>
</g>
<!-- Node9_1 -->
<g id="node11" class="node">
<title>Node9_1</title>
<ellipse fill="#00bfff" stroke="#00bfff" cx="888" cy="-121" rx="49.29" ry="18"/>
<text text-anchor="middle" x="888" y="-117.3" font-family="Times,serif" font-size="14.00">प्रियम्(9.1)</text>
</g>
<!-- Node8_1&#45;&gt;Node9_1 -->
<g id="edge7" class="edge">
<title>Node8_1&#45;&gt;Node9_1</title>
<path fill="none" stroke="black" d="M888,-62.27C888,-75.58 888,-91.19 888,-102.82"/>
<polygon fill="black" stroke="black" points="891.5,-62.2 888,-52.2 884.5,-62.2 891.5,-62.2"/>
<text text-anchor="middle" x="915.5" y="-73.8" font-family="Times,serif" font-size="14.00">षष्ठीसम्बन्धः</text>
</g>
<!-- Node9_1&#45;&gt;Node12_5 -->
<g id="edge8" class="edge">
<title>Node9_1&#45;&gt;Node12_5</title>
<path fill="none" stroke="black" d="M872.47,-147.58C867.42,-155.54 861.65,-164.26 856,-172 851.53,-178.12 846.34,-184.57 841.59,-190.24"/>
<polygon fill="black" stroke="black" points="875.5,-149.34 877.83,-139.01 869.57,-145.63 875.5,-149.34"/>
<text text-anchor="middle" x="877" y="-160.8" font-family="Times,serif" font-size="14.00">कर्ता</text>
</g>
<!-- Node10_1 -->
<g id="node12" class="node">
<title>Node10_1</title>
<ellipse fill="#6fffc3" stroke="#6fffc3" cx="506" cy="-34" rx="54.69" ry="18"/>
<text text-anchor="middle" x="506" y="-30.3" font-family="Times,serif" font-size="14.00">राजन्(10.1)</text>
</g>
<!-- Node10_1&#45;&gt;Node11_1 -->
<g id="edge9" class="edge">
<title>Node10_1&#45;&gt;Node11_1</title>
<path fill="none" stroke="black" d="M523.63,-60.4C533.25,-74.26 544.89,-91.03 553.37,-103.24"/>
<polygon fill="black" stroke="black" points="526.23,-58.01 517.66,-51.79 520.48,-62 526.23,-58.01"/>
<text text-anchor="middle" x="560" y="-73.8" font-family="Times,serif" font-size="14.00">सम्बोध्यः</text>
</g>
<!-- Node0 -->
<g id="node14" class="node">
<title>Node0</title>
<ellipse fill="lightgrey" stroke="black" cx="975" cy="-34" rx="27" ry="18"/>
</g>
<!-- Node12_1 -->
<g id="node15" class="node">
<title>Node12_1</title>
<ellipse fill="#6fffc3" stroke="#6fffc3" cx="637" cy="-34" rx="58.49" ry="18"/>
<text text-anchor="middle" x="637" y="-30.3" font-family="Times,serif" font-size="14.00">परन्तप(12.1)</text>
</g>
<!-- Node12_1&#45;&gt;Node11_1 -->
<g id="edge10" class="edge">
<title>Node12_1&#45;&gt;Node11_1</title>
<path fill="none" stroke="black" d="M616.15,-59.61C604.29,-73.62 589.74,-90.79 579.2,-103.24"/>
<polygon fill="black" stroke="black" points="618.98,-61.69 622.78,-51.79 613.64,-57.16 618.98,-61.69"/>
<text text-anchor="middle" x="626" y="-73.8" font-family="Times,serif" font-size="14.00">सम्बोध्यः</text>
</g>
<!-- Node12_2 -->
<g id="node16" class="node">
<title>Node12_2</title>
<ellipse fill="#ff99ff" stroke="#ff99ff" cx="771" cy="-34" rx="57.69" ry="18"/>
<text text-anchor="middle" x="771" y="-30.3" font-family="Times,serif" font-size="14.00">(तथा)(12.2)</text>
</g>
<!-- Node12_2&#45;&gt;Node11_1 -->
<g id="edge11" class="edge">
<title>Node12_2&#45;&gt;Node11_1</title>
<path fill="none" stroke="black" d="M728.48,-52.82C705.55,-62.4 676.75,-74.4 651,-85 634.6,-91.75 616.42,-99.16 601.01,-105.42"/>
<polygon fill="black" stroke="black" points="730.05,-55.96 737.92,-48.87 727.35,-49.5 730.05,-55.96"/>
<text text-anchor="middle" x="718" y="-73.8" font-family="Times,serif" font-size="14.00">क्रियाविशेषणम्</text>
</g>
<!-- Node12_4 -->
<g id="node17" class="node">
<title>Node12_4</title>
<ellipse fill="#00bfff" stroke="#00bfff" cx="404" cy="-121" rx="60.39" ry="18"/>
<text text-anchor="middle" x="404" y="-117.3" font-family="Times,serif" font-size="14.00">(अहम्)(12.4)</text>
</g>
<!-- Node12_4&#45;&gt;Node2_1 -->
<g id="edge13" class="edge">
<title>Node12_4&#45;&gt;Node2_1</title>
<path fill="none" stroke="black" d="M367.9,-142.13C350.79,-151.49 329.99,-162.59 311,-172 296,-179.43 279.09,-187.18 264.95,-193.5"/>
<polygon fill="black" stroke="black" points="369.91,-145.02 376.98,-137.14 366.53,-138.89 369.91,-145.02"/>
<text text-anchor="middle" x="351" y="-160.8" font-family="Times,serif" font-size="14.00">कर्ता</text>
</g>
</g>
</svg>
