<?xml version="1.0" encoding="UTF-8" standalone="no"?>
<!DOCTYPE svg PUBLIC "-//W3C//DTD SVG 1.1//EN"
 "http://www.w3.org/Graphics/SVG/1.1/DTD/svg11.dtd">
<!-- Generated by graphviz version 2.43.0 (0)
 -->
<!-- Title: G Pages: 1 -->
<svg width="673pt" height="321pt"
 viewBox="0.00 0.00 673.05 321.00" xmlns="http://www.w3.org/2000/svg" xmlns:xlink="http://www.w3.org/1999/xlink">
<g id="graph0" class="graph" transform="scale(1 1) rotate(0) translate(4 317)">
<title>G</title>
<polygon fill="#fffacd" stroke="transparent" points="-4,4 -4,-317 669.05,-317 669.05,4 -4,4"/>
<g id="clust1" class="cluster">
<title>cluster_1</title>
<polygon fill="#fffacd" stroke="black" points="478,-8 478,-147 606,-147 606,-8 478,-8"/>
</g>
<g id="clust2" class="cluster">
<title>cluster_2</title>
<polygon fill="#fffacd" stroke="black" points="8,-95 8,-234 230,-234 230,-95 8,-95"/>
</g>
<!-- Node3_1 -->
<g id="node1" class="node">
<title>Node3_1</title>
<ellipse fill="#c6e2eb" stroke="#c6e2eb" cx="542" cy="-34" rx="50.89" ry="18"/>
<text text-anchor="middle" x="542" y="-30.3" font-family="Times,serif" font-size="14.00">राजेन्द्रे(3.1)</text>
</g>
<!-- Node4_1 -->
<g id="node2" class="node">
<title>Node4_1</title>
<ellipse fill="#c6e2eb" stroke="#c6e2eb" cx="542" cy="-121" rx="55.79" ry="18"/>
<text text-anchor="middle" x="542" y="-117.3" font-family="Times,serif" font-size="14.00">धृतराष्ट्रे(4.1)</text>
</g>
<!-- Node3_1&#45;&gt;Node4_1 -->
<g id="edge3" class="edge">
<title>Node3_1&#45;&gt;Node4_1</title>
<path fill="none" stroke="black" d="M542,-62.27C542,-75.58 542,-91.19 542,-102.82"/>
<polygon fill="black" stroke="black" points="545.5,-62.2 542,-52.2 538.5,-62.2 545.5,-62.2"/>
<text text-anchor="middle" x="564.5" y="-73.8" font-family="Times,serif" font-size="14.00">विशेषणम्</text>
</g>
<!-- Node2_1 -->
<g id="node7" class="node">
<title>Node2_1</title>
<ellipse fill="#ff1975" stroke="#ff1975" cx="348" cy="-208" rx="48.19" ry="18"/>
<text text-anchor="middle" x="348" y="-204.3" font-family="Times,serif" font-size="14.00">ब्रुवति(2.1)</text>
</g>
<!-- Node4_1&#45;&gt;Node2_1 -->
<g id="edge4" class="edge">
<title>Node4_1&#45;&gt;Node2_1</title>
<path fill="none" stroke="black" d="M500.52,-140.17C463.78,-156.27 411.02,-179.39 378.17,-193.78"/>
<polygon fill="black" stroke="black" points="502.21,-143.26 509.96,-136.04 499.4,-136.84 502.21,-143.26"/>
<text text-anchor="middle" x="467" y="-160.8" font-family="Times,serif" font-size="14.00">कर्ता</text>
</g>
<!-- Node6_1 -->
<g id="node3" class="node">
<title>Node6_1</title>
<ellipse fill="#00bfff" stroke="#00bfff" cx="173" cy="-121" rx="49.29" ry="18"/>
<text text-anchor="middle" x="173" y="-117.3" font-family="Times,serif" font-size="14.00">ऋषिः(6.1)</text>
</g>
<!-- Node8_1 -->
<g id="node4" class="node">
<title>Node8_1</title>
<ellipse fill="#00bfff" stroke="#00bfff" cx="171" cy="-208" rx="50.89" ry="18"/>
<text text-anchor="middle" x="171" y="-204.3" font-family="Times,serif" font-size="14.00">व्यासः(8.1)</text>
</g>
<!-- Node6_1&#45;&gt;Node8_1 -->
<g id="edge6" class="edge">
<title>Node6_1&#45;&gt;Node8_1</title>
<path fill="none" stroke="black" d="M172.36,-149.27C172.05,-162.58 171.68,-178.19 171.4,-189.82"/>
<polygon fill="black" stroke="black" points="175.86,-149.28 172.6,-139.2 168.86,-149.12 175.86,-149.28"/>
<text text-anchor="middle" x="195.5" y="-160.8" font-family="Times,serif" font-size="14.00">विशेषणम्</text>
</g>
<!-- Node11_1 -->
<g id="node8" class="node">
<title>Node11_1</title>
<ellipse fill="#ff1975" stroke="#ff1975" cx="408" cy="-295" rx="60.39" ry="18"/>
<text text-anchor="middle" x="408" y="-291.3" font-family="Times,serif" font-size="14.00">अब्रवीत्(11.1)</text>
</g>
<!-- Node8_1&#45;&gt;Node11_1 -->
<g id="edge8" class="edge">
<title>Node8_1&#45;&gt;Node11_1</title>
<path fill="none" stroke="black" d="M211.7,-226.02C236.24,-236.06 268.22,-248.77 297,-259 319.85,-267.12 345.66,-275.32 366.65,-281.74"/>
<polygon fill="black" stroke="black" points="212.93,-222.74 202.35,-222.17 210.26,-229.21 212.93,-222.74"/>
<text text-anchor="middle" x="308" y="-247.8" font-family="Times,serif" font-size="14.00">कर्ता</text>
</g>
<!-- Node7_2 -->
<g id="node5" class="node">
<title>Node7_2</title>
<ellipse fill="#00bfff" stroke="#00bfff" cx="61" cy="-121" rx="44.69" ry="18"/>
<text text-anchor="middle" x="61" y="-117.3" font-family="Times,serif" font-size="14.00">पुत्रः(7.2)</text>
</g>
<!-- Node7_2&#45;&gt;Node8_1 -->
<g id="edge7" class="edge">
<title>Node7_2&#45;&gt;Node8_1</title>
<path fill="none" stroke="black" d="M87.7,-144C98.56,-152.82 111.28,-163.01 123,-172 131.51,-178.53 141.03,-185.53 149.33,-191.54"/>
<polygon fill="black" stroke="black" points="89.77,-141.17 79.8,-137.56 85.34,-146.59 89.77,-141.17"/>
<text text-anchor="middle" x="145.5" y="-160.8" font-family="Times,serif" font-size="14.00">विशेषणम्</text>
</g>
<!-- Node1_1 -->
<g id="node6" class="node">
<title>Node1_1</title>
<ellipse fill="#ff99ff" stroke="#ff99ff" cx="285" cy="-121" rx="44.39" ry="18"/>
<text text-anchor="middle" x="285" y="-117.3" font-family="Times,serif" font-size="14.00">इति(1.1)</text>
</g>
<!-- Node1_1&#45;&gt;Node2_1 -->
<g id="edge1" class="edge">
<title>Node1_1&#45;&gt;Node2_1</title>
<path fill="none" stroke="black" d="M303.27,-146.65C313.68,-160.7 326.45,-177.92 335.68,-190.37"/>
<polygon fill="black" stroke="black" points="305.91,-144.34 297.15,-138.39 300.29,-148.51 305.91,-144.34"/>
<text text-anchor="middle" x="329" y="-160.8" font-family="Times,serif" font-size="14.00">कर्म</text>
</g>
<!-- Node2_1&#45;&gt;Node11_1 -->
<g id="edge2" class="edge">
<title>Node2_1&#45;&gt;Node11_1</title>
<path fill="none" stroke="black" d="M327.95,-234.09C323.78,-242.35 321.99,-251.37 327,-259 334.74,-270.78 347.38,-278.61 360.4,-283.81"/>
<polygon fill="black" stroke="black" points="330.96,-235.88 333.19,-225.52 324.98,-232.22 330.96,-235.88"/>
<text text-anchor="middle" x="398" y="-247.8" font-family="Times,serif" font-size="14.00">भावलक्षणसप्तमी_समानकालः</text>
</g>
<!-- Node5_1 -->
<g id="node9" class="node">
<title>Node5_1</title>
<ellipse fill="#93db70" stroke="#93db70" cx="408" cy="-121" rx="60.39" ry="18"/>
<text text-anchor="middle" x="408" y="-117.3" font-family="Times,serif" font-size="14.00">युधिष्ठिरम्(5.1)</text>
</g>
<!-- Node5_1&#45;&gt;Node2_1 -->
<g id="edge5" class="edge">
<title>Node5_1&#45;&gt;Node2_1</title>
<path fill="none" stroke="black" d="M390.31,-147.06C380.4,-161.09 368.33,-178.19 359.63,-190.53"/>
<polygon fill="black" stroke="black" points="393.24,-148.98 396.15,-138.79 387.52,-144.94 393.24,-148.98"/>
<text text-anchor="middle" x="390" y="-160.8" font-family="Times,serif" font-size="14.00">कर्म</text>
</g>
<!-- Node9_1 -->
<g id="node10" class="node">
<title>Node9_1</title>
<ellipse fill="#ff1975" stroke="#ff1975" cx="491" cy="-208" rx="55.79" ry="18"/>
<text text-anchor="middle" x="491" y="-204.3" font-family="Times,serif" font-size="14.00">अभ्येत्य(9.1)</text>
</g>
<!-- Node9_1&#45;&gt;Node11_1 -->
<g id="edge9" class="edge">
<title>Node9_1&#45;&gt;Node11_1</title>
<path fill="none" stroke="black" d="M482.86,-235.8C479.49,-243.9 474.95,-252.38 469,-259 461.33,-267.54 451.07,-274.52 441.15,-279.95"/>
<polygon fill="black" stroke="black" points="486.2,-236.87 486.41,-226.28 479.64,-234.43 486.2,-236.87"/>
<text text-anchor="middle" x="498.5" y="-247.8" font-family="Times,serif" font-size="14.00">पूर्वकालः</text>
</g>
<!-- Node10_1 -->
<g id="node11" class="node">
<title>Node10_1</title>
<ellipse fill="#93db70" stroke="#93db70" cx="615" cy="-208" rx="50.09" ry="18"/>
<text text-anchor="middle" x="615" y="-204.3" font-family="Times,serif" font-size="14.00">वचः(10.1)</text>
</g>
<!-- Node10_1&#45;&gt;Node11_1 -->
<g id="edge10" class="edge">
<title>Node10_1&#45;&gt;Node11_1</title>
<path fill="none" stroke="black" d="M581.65,-229.25C564.53,-239.1 543.09,-250.59 523,-259 500.29,-268.51 474.08,-276.69 452.42,-282.75"/>
<polygon fill="black" stroke="black" points="583.81,-232.04 590.68,-223.98 580.28,-226 583.81,-232.04"/>
<text text-anchor="middle" x="563" y="-247.8" font-family="Times,serif" font-size="14.00">कर्म</text>
</g>
</g>
</svg>
