<?xml version="1.0" encoding="UTF-8" standalone="no"?>
<!DOCTYPE svg PUBLIC "-//W3C//DTD SVG 1.1//EN"
 "http://www.w3.org/Graphics/SVG/1.1/DTD/svg11.dtd">
<!-- Generated by graphviz version 2.43.0 (0)
 -->
<!-- Title: G Pages: 1 -->
<svg width="1057pt" height="234pt"
 viewBox="0.00 0.00 1057.00 234.00" xmlns="http://www.w3.org/2000/svg" xmlns:xlink="http://www.w3.org/1999/xlink">
<g id="graph0" class="graph" transform="scale(1 1) rotate(0) translate(4 230)">
<title>G</title>
<polygon fill="#fffacd" stroke="transparent" points="-4,4 -4,-230 1053,-230 1053,4 -4,4"/>
<g id="clust1" class="cluster">
<title>cluster_1</title>
<polygon fill="#fffacd" stroke="black" points="8,-8 8,-147 138,-147 138,-8 8,-8"/>
</g>
<!-- Node5_1 -->
<g id="node1" class="node">
<title>Node5_1</title>
<ellipse fill="#93db70" stroke="#93db70" cx="73" cy="-34" rx="56.59" ry="18"/>
<text text-anchor="middle" x="73" y="-30.3" font-family="Times,serif" font-size="14.00">पृथिवीम्(5.1)</text>
</g>
<!-- Node4_1 -->
<g id="node2" class="node">
<title>Node4_1</title>
<ellipse fill="#93db70" stroke="#93db70" cx="73" cy="-121" rx="57.39" ry="18"/>
<text text-anchor="middle" x="73" y="-117.3" font-family="Times,serif" font-size="14.00">जीवितम्(4.1)</text>
</g>
<!-- Node5_1&#45;&gt;Node4_1 -->
<g id="edge5" class="edge">
<title>Node5_1&#45;&gt;Node4_1</title>
<path fill="none" stroke="black" d="M73,-62.27C73,-75.58 73,-91.19 73,-102.82"/>
<polygon fill="black" stroke="black" points="76.5,-62.2 73,-52.2 69.5,-62.2 76.5,-62.2"/>
<text text-anchor="middle" x="95.5" y="-73.8" font-family="Times,serif" font-size="14.00">समुच्चितः</text>
</g>
<!-- Node2_1 -->
<g id="node4" class="node">
<title>Node2_1</title>
<ellipse fill="#ff1975" stroke="#ff1975" cx="224" cy="-208" rx="50.89" ry="18"/>
<text text-anchor="middle" x="224" y="-204.3" font-family="Times,serif" font-size="14.00">कामये(2.1)</text>
</g>
<!-- Node4_1&#45;&gt;Node2_1 -->
<g id="edge4" class="edge">
<title>Node4_1&#45;&gt;Node2_1</title>
<path fill="none" stroke="black" d="M108.56,-142.01C136.04,-157.48 173.43,-178.54 198.12,-192.43"/>
<polygon fill="black" stroke="black" points="110.08,-138.86 99.65,-137 106.65,-144.96 110.08,-138.86"/>
<text text-anchor="middle" x="167" y="-160.8" font-family="Times,serif" font-size="14.00">कर्म</text>
</g>
<!-- Node1_1 -->
<g id="node3" class="node">
<title>Node1_1</title>
<ellipse fill="#ff99ff" stroke="#ff99ff" cx="193" cy="-121" rx="37.09" ry="18"/>
<text text-anchor="middle" x="193" y="-117.3" font-family="Times,serif" font-size="14.00">न(1.1)</text>
</g>
<!-- Node1_1&#45;&gt;Node2_1 -->
<g id="edge1" class="edge">
<title>Node1_1&#45;&gt;Node2_1</title>
<path fill="none" stroke="black" d="M202.68,-148.53C207.61,-162.05 213.46,-178.09 217.78,-189.95"/>
<polygon fill="black" stroke="black" points="205.84,-146.99 199.12,-138.79 199.26,-149.39 205.84,-146.99"/>
<text text-anchor="middle" x="230.5" y="-160.8" font-family="Times,serif" font-size="14.00">प्रतिषेधः</text>
</g>
<!-- Node12_3 -->
<g id="node5" class="node">
<title>Node12_3</title>
<ellipse fill="#00bfff" stroke="#00bfff" cx="420" cy="-34" rx="60.39" ry="18"/>
<text text-anchor="middle" x="420" y="-30.3" font-family="Times,serif" font-size="14.00">(अहम्)(12.3)</text>
</g>
<!-- Node11_1 -->
<g id="node14" class="node">
<title>Node11_1</title>
<ellipse fill="#ff1975" stroke="#ff1975" cx="626" cy="-121" rx="69.59" ry="18"/>
<text text-anchor="middle" x="626" y="-117.3" font-family="Times,serif" font-size="14.00">चिकीर्षामि(11.1)</text>
</g>
<!-- Node12_3&#45;&gt;Node11_1 -->
<g id="edge13" class="edge">
<title>Node12_3&#45;&gt;Node11_1</title>
<path fill="none" stroke="black" d="M463.73,-53.05C501.51,-68.63 555.41,-90.87 590.55,-105.37"/>
<polygon fill="black" stroke="black" points="464.6,-49.61 454.02,-49.04 461.93,-56.09 464.6,-49.61"/>
<text text-anchor="middle" x="546" y="-73.8" font-family="Times,serif" font-size="14.00">कर्ता</text>
</g>
<!-- Node3_1 -->
<g id="node6" class="node">
<title>Node3_1</title>
<ellipse fill="#ffff00" stroke="#ffff00" cx="298" cy="-34" rx="43.59" ry="18"/>
<text text-anchor="middle" x="298" y="-30.3" font-family="Times,serif" font-size="14.00">नर&#45;(3.1)</text>
</g>
<!-- Node3_2 -->
<g id="node7" class="node">
<title>Node3_2</title>
<ellipse fill="#6fffc3" stroke="#6fffc3" cx="291" cy="-121" rx="42.79" ry="18"/>
<text text-anchor="middle" x="291" y="-117.3" font-family="Times,serif" font-size="14.00">श्रेष्ठ(3.2)</text>
</g>
<!-- Node3_1&#45;&gt;Node3_2 -->
<g id="edge2" class="edge">
<title>Node3_1&#45;&gt;Node3_2</title>
<path fill="none" stroke="black" d="M295.75,-62.27C294.66,-75.58 293.37,-91.19 292.41,-102.82"/>
<polygon fill="black" stroke="black" points="299.25,-62.45 296.58,-52.2 292.27,-61.88 299.25,-62.45"/>
<text text-anchor="middle" x="312" y="-73.8" font-family="Times,serif" font-size="14.00">समासः</text>
</g>
<!-- Node3_2&#45;&gt;Node2_1 -->
<g id="edge3" class="edge">
<title>Node3_2&#45;&gt;Node2_1</title>
<path fill="none" stroke="black" d="M271.88,-146.26C260.75,-160.37 247.01,-177.81 237.11,-190.37"/>
<polygon fill="black" stroke="black" points="274.64,-148.41 278.08,-138.39 269.14,-144.08 274.64,-148.41"/>
<text text-anchor="middle" x="283" y="-160.8" font-family="Times,serif" font-size="14.00">सम्बोध्यः</text>
</g>
<!-- Node6_1 -->
<g id="node8" class="node">
<title>Node6_1</title>
<ellipse fill="#ff99ff" stroke="#ff99ff" cx="192" cy="-34" rx="44.69" ry="18"/>
<text text-anchor="middle" x="192" y="-30.3" font-family="Times,serif" font-size="14.00">तथा(6.1)</text>
</g>
<!-- Node6_1&#45;&gt;Node4_1 -->
<g id="edge6" class="edge">
<title>Node6_1&#45;&gt;Node4_1</title>
<path fill="none" stroke="black" d="M162.77,-55.88C141.83,-70.83 114.08,-90.66 95,-104.29"/>
<polygon fill="black" stroke="black" points="164.9,-58.66 171,-50 160.83,-52.96 164.9,-58.66"/>
<text text-anchor="middle" x="178" y="-73.8" font-family="Times,serif" font-size="14.00">समुच्चय_द्योतकः</text>
</g>
<!-- Node7_1 -->
<g id="node9" class="node">
<title>Node7_1</title>
<ellipse fill="#ff99ff" stroke="#ff99ff" cx="823" cy="-121" rx="44.69" ry="18"/>
<text text-anchor="middle" x="823" y="-117.3" font-family="Times,serif" font-size="14.00">यथा(7.1)</text>
</g>
<!-- Node12_5 -->
<g id="node10" class="node">
<title>Node12_5</title>
<ellipse fill="#ff1975" stroke="#ff1975" cx="874" cy="-208" rx="61.19" ry="18"/>
<text text-anchor="middle" x="874" y="-204.3" font-family="Times,serif" font-size="14.00">(स्यात्)(12.5)</text>
</g>
<!-- Node7_1&#45;&gt;Node12_5 -->
<g id="edge7" class="edge">
<title>Node7_1&#45;&gt;Node12_5</title>
<path fill="none" stroke="black" d="M825.1,-149.3C826.57,-157.02 828.99,-165.18 833,-172 837.26,-179.26 843.6,-185.75 850.02,-191.1"/>
<polygon fill="black" stroke="black" points="828.54,-148.6 823.65,-139.2 821.61,-149.6 828.54,-148.6"/>
<text text-anchor="middle" x="868" y="-160.8" font-family="Times,serif" font-size="14.00">क्रियाविशेषणम्</text>
</g>
<!-- Node8_1 -->
<g id="node11" class="node">
<title>Node8_1</title>
<ellipse fill="#87ceeb" stroke="#87ceeb" cx="935" cy="-34" rx="41.69" ry="18"/>
<text text-anchor="middle" x="935" y="-30.3" font-family="Times,serif" font-size="14.00">तव(8.1)</text>
</g>
<!-- Node9_1 -->
<g id="node12" class="node">
<title>Node9_1</title>
<ellipse fill="#00bfff" stroke="#00bfff" cx="935" cy="-121" rx="49.29" ry="18"/>
<text text-anchor="middle" x="935" y="-117.3" font-family="Times,serif" font-size="14.00">प्रियम्(9.1)</text>
</g>
<!-- Node8_1&#45;&gt;Node9_1 -->
<g id="edge8" class="edge">
<title>Node8_1&#45;&gt;Node9_1</title>
<path fill="none" stroke="black" d="M935,-62.27C935,-75.58 935,-91.19 935,-102.82"/>
<polygon fill="black" stroke="black" points="938.5,-62.2 935,-52.2 931.5,-62.2 938.5,-62.2"/>
<text text-anchor="middle" x="962.5" y="-73.8" font-family="Times,serif" font-size="14.00">षष्ठीसम्बन्धः</text>
</g>
<!-- Node9_1&#45;&gt;Node12_5 -->
<g id="edge9" class="edge">
<title>Node9_1&#45;&gt;Node12_5</title>
<path fill="none" stroke="black" d="M919.47,-147.58C914.42,-155.54 908.65,-164.26 903,-172 898.53,-178.12 893.34,-184.57 888.59,-190.24"/>
<polygon fill="black" stroke="black" points="922.5,-149.34 924.83,-139.01 916.57,-145.63 922.5,-149.34"/>
<text text-anchor="middle" x="924" y="-160.8" font-family="Times,serif" font-size="14.00">कर्ता</text>
</g>
<!-- Node10_1 -->
<g id="node13" class="node">
<title>Node10_1</title>
<ellipse fill="#6fffc3" stroke="#6fffc3" cx="553" cy="-34" rx="54.69" ry="18"/>
<text text-anchor="middle" x="553" y="-30.3" font-family="Times,serif" font-size="14.00">राजन्(10.1)</text>
</g>
<!-- Node10_1&#45;&gt;Node11_1 -->
<g id="edge10" class="edge">
<title>Node10_1&#45;&gt;Node11_1</title>
<path fill="none" stroke="black" d="M574.14,-59.61C586.17,-73.62 600.92,-90.79 611.61,-103.24"/>
<polygon fill="black" stroke="black" points="576.59,-57.1 567.42,-51.79 571.28,-61.66 576.59,-57.1"/>
<text text-anchor="middle" x="614" y="-73.8" font-family="Times,serif" font-size="14.00">सम्बोध्यः</text>
</g>
<!-- Node0 -->
<g id="node15" class="node">
<title>Node0</title>
<ellipse fill="lightgrey" stroke="black" cx="1022" cy="-34" rx="27" ry="18"/>
</g>
<!-- Node12_1 -->
<g id="node16" class="node">
<title>Node12_1</title>
<ellipse fill="#6fffc3" stroke="#6fffc3" cx="684" cy="-34" rx="58.49" ry="18"/>
<text text-anchor="middle" x="684" y="-30.3" font-family="Times,serif" font-size="14.00">परन्तप(12.1)</text>
</g>
<!-- Node12_1&#45;&gt;Node11_1 -->
<g id="edge11" class="edge">
<title>Node12_1&#45;&gt;Node11_1</title>
<path fill="none" stroke="black" d="M666.67,-60.4C657.21,-74.26 645.77,-91.03 637.44,-103.24"/>
<polygon fill="black" stroke="black" points="669.8,-62.03 672.54,-51.79 664.01,-58.08 669.8,-62.03"/>
<text text-anchor="middle" x="679" y="-73.8" font-family="Times,serif" font-size="14.00">सम्बोध्यः</text>
</g>
<!-- Node12_2 -->
<g id="node17" class="node">
<title>Node12_2</title>
<ellipse fill="#ff99ff" stroke="#ff99ff" cx="818" cy="-34" rx="57.69" ry="18"/>
<text text-anchor="middle" x="818" y="-30.3" font-family="Times,serif" font-size="14.00">(तथा)(12.2)</text>
</g>
<!-- Node12_2&#45;&gt;Node11_1 -->
<g id="edge12" class="edge">
<title>Node12_2&#45;&gt;Node11_1</title>
<path fill="none" stroke="black" d="M776.4,-53.42C741.41,-68.91 692.03,-90.77 659.53,-105.15"/>
<polygon fill="black" stroke="black" points="778.14,-56.48 785.86,-49.23 775.3,-50.07 778.14,-56.48"/>
<text text-anchor="middle" x="768" y="-73.8" font-family="Times,serif" font-size="14.00">क्रियाविशेषणम्</text>
</g>
<!-- Node12_4 -->
<g id="node18" class="node">
<title>Node12_4</title>
<ellipse fill="#00bfff" stroke="#00bfff" cx="412" cy="-121" rx="60.39" ry="18"/>
<text text-anchor="middle" x="412" y="-117.3" font-family="Times,serif" font-size="14.00">(अहम्)(12.4)</text>
</g>
<!-- Node12_4&#45;&gt;Node2_1 -->
<g id="edge14" class="edge">
<title>Node12_4&#45;&gt;Node2_1</title>
<path fill="none" stroke="black" d="M373.02,-141.35C353.59,-150.84 329.68,-162.28 308,-172 291.13,-179.56 272.14,-187.52 256.48,-193.94"/>
<polygon fill="black" stroke="black" points="374.72,-144.41 382.16,-136.87 371.64,-138.13 374.72,-144.41"/>
<text text-anchor="middle" x="351" y="-160.8" font-family="Times,serif" font-size="14.00">कर्ता</text>
</g>
</g>
</svg>
