<?xml version="1.0" encoding="UTF-8" standalone="no"?>
<!DOCTYPE svg PUBLIC "-//W3C//DTD SVG 1.1//EN"
 "http://www.w3.org/Graphics/SVG/1.1/DTD/svg11.dtd">
<!-- Generated by graphviz version 2.43.0 (0)
 -->
<!-- Title: G Pages: 1 -->
<svg width="623pt" height="566pt"
 viewBox="0.00 0.00 623.14 566.00" xmlns="http://www.w3.org/2000/svg" xmlns:xlink="http://www.w3.org/1999/xlink">
<g id="graph0" class="graph" transform="scale(1 1) rotate(0) translate(4 562)">
<title>G</title>
<polygon fill="#fffacd" stroke="transparent" points="-4,4 -4,-562 619.14,-562 619.14,4 -4,4"/>
<g id="clust1" class="cluster">
<title>cluster_1</title>
<polygon fill="#fffacd" stroke="black" points="197.14,-79 197.14,-218 333.14,-218 333.14,-79 197.14,-79"/>
</g>
<!-- Node6_1 -->
<g id="node1" class="node">
<title>Node6_1</title>
<ellipse fill="#00bfff" stroke="#00bfff" cx="265.14" cy="-105" rx="51.19" ry="18"/>
<text text-anchor="middle" x="265.14" y="-101.3" font-family="Times,serif" font-size="14.00">दयितः(6.1)</text>
</g>
<!-- Node4_1 -->
<g id="node2" class="node">
<title>Node4_1</title>
<ellipse fill="#00bfff" stroke="#00bfff" cx="265.14" cy="-192" rx="59.59" ry="18"/>
<text text-anchor="middle" x="265.14" y="-188.3" font-family="Times,serif" font-size="14.00">अनुग्राह्यः(4.1)</text>
</g>
<!-- Node6_1&#45;&gt;Node4_1 -->
<g id="edge6" class="edge">
<title>Node6_1&#45;&gt;Node4_1</title>
<path fill="none" stroke="black" d="M265.14,-133.27C265.14,-146.58 265.14,-162.19 265.14,-173.82"/>
<polygon fill="black" stroke="black" points="268.64,-133.2 265.14,-123.2 261.64,-133.2 268.64,-133.2"/>
<text text-anchor="middle" x="284.14" y="-144.8" font-family="Times,serif" font-size="14.00">अन्यतरः</text>
</g>
<!-- Node3_1 -->
<g id="node6" class="node">
<title>Node3_1</title>
<ellipse fill="#00bfff" stroke="#00bfff" cx="180.14" cy="-279" rx="48.19" ry="18"/>
<text text-anchor="middle" x="180.14" y="-275.3" font-family="Times,serif" font-size="14.00">अहम्(3.1)</text>
</g>
<!-- Node4_1&#45;&gt;Node3_1 -->
<g id="edge4" class="edge">
<title>Node4_1&#45;&gt;Node3_1</title>
<path fill="none" stroke="black" d="M241.58,-216.56C227.13,-231.02 209,-249.14 196.2,-261.95"/>
<polygon fill="black" stroke="black" points="244.16,-218.93 248.76,-209.39 239.21,-213.99 244.16,-218.93"/>
<text text-anchor="middle" x="266.14" y="-231.8" font-family="Times,serif" font-size="14.00">विधेय_विशेषणम्</text>
</g>
<!-- Node1_1 -->
<g id="node3" class="node">
<title>Node1_1</title>
<ellipse fill="#ff99ff" stroke="#ff99ff" cx="180.14" cy="-453" rx="44.39" ry="18"/>
<text text-anchor="middle" x="180.14" y="-449.3" font-family="Times,serif" font-size="14.00">यदि(1.1)</text>
</g>
<!-- Node10_1 -->
<g id="node4" class="node">
<title>Node10_1</title>
<ellipse fill="#ff99ff" stroke="#ff99ff" cx="382.14" cy="-453" rx="73.39" ry="18"/>
<text text-anchor="middle" x="382.14" y="-449.3" font-family="Times,serif" font-size="14.00">तावत्(तर्हि)(10.1)</text>
</g>
<!-- Node1_1&#45;&gt;Node10_1 -->
<g id="edge1" class="edge">
<title>Node1_1&#45;&gt;Node10_1</title>
<path fill="none" stroke="red" stroke-dasharray="5,2" d="M234.61,-453C254.24,-453 276.86,-453 298.41,-453"/>
<polygon fill="red" stroke="red" points="234.47,-449.5 224.47,-453 234.47,-456.5 234.47,-449.5"/>
<polygon fill="red" stroke="red" points="298.54,-456.5 308.54,-453 298.54,-449.5 298.54,-456.5"/>
<text text-anchor="middle" x="266.52" y="-438.8" font-family="Times,serif" font-size="14.00">नित्य_सम्बन्धः</text>
</g>
<!-- Node9_1 -->
<g id="node11" class="node">
<title>Node9_1</title>
<ellipse fill="#ff1975" stroke="#ff1975" cx="79.14" cy="-540" rx="57.69" ry="18"/>
<text text-anchor="middle" x="79.14" y="-536.3" font-family="Times,serif" font-size="14.00">क्रियताम्(9.1)</text>
</g>
<!-- Node10_1&#45;&gt;Node9_1 -->
<g id="edge9" class="edge">
<title>Node10_1&#45;&gt;Node9_1</title>
<path fill="none" stroke="black" d="M325.81,-469.8C266.28,-486.5 173.81,-512.44 120.62,-527.37"/>
<polygon fill="black" stroke="black" points="327.11,-473.07 335.8,-467 325.22,-466.33 327.11,-473.07"/>
<text text-anchor="middle" x="268.14" y="-492.8" font-family="Times,serif" font-size="14.00">अनुयोगी</text>
</g>
<!-- Node2_1 -->
<g id="node5" class="node">
<title>Node2_1</title>
<ellipse fill="#ff99ff" stroke="#ff99ff" cx="150.14" cy="-192" rx="37.09" ry="18"/>
<text text-anchor="middle" x="150.14" y="-188.3" font-family="Times,serif" font-size="14.00">तु(2.1)</text>
</g>
<!-- Node2_1&#45;&gt;Node3_1 -->
<g id="edge2" class="edge">
<title>Node2_1&#45;&gt;Node3_1</title>
<path fill="none" stroke="black" d="M159.51,-219.53C164.28,-233.05 169.94,-249.09 174.13,-260.95"/>
<polygon fill="black" stroke="black" points="162.7,-218.06 156.07,-209.79 156.1,-220.39 162.7,-218.06"/>
<text text-anchor="middle" x="185.64" y="-231.8" font-family="Times,serif" font-size="14.00">सम्बन्धः</text>
</g>
<!-- Node15_1 -->
<g id="node7" class="node">
<title>Node15_1</title>
<ellipse fill="#ff1975" stroke="#ff1975" cx="180.14" cy="-366" rx="62.29" ry="18"/>
<text text-anchor="middle" x="180.14" y="-362.3" font-family="Times,serif" font-size="14.00">(अस्मि)(15.1)</text>
</g>
<!-- Node3_1&#45;&gt;Node15_1 -->
<g id="edge3" class="edge">
<title>Node3_1&#45;&gt;Node15_1</title>
<path fill="none" stroke="black" d="M180.14,-307.27C180.14,-320.58 180.14,-336.19 180.14,-347.82"/>
<polygon fill="black" stroke="black" points="183.64,-307.2 180.14,-297.2 176.64,-307.2 183.64,-307.2"/>
<text text-anchor="middle" x="191.14" y="-318.8" font-family="Times,serif" font-size="14.00">कर्ता</text>
</g>
<!-- Node15_1&#45;&gt;Node1_1 -->
<g id="edge13" class="edge">
<title>Node15_1&#45;&gt;Node1_1</title>
<path fill="none" stroke="black" d="M180.14,-394.27C180.14,-407.58 180.14,-423.19 180.14,-434.82"/>
<polygon fill="black" stroke="black" points="183.64,-394.2 180.14,-384.2 176.64,-394.2 183.64,-394.2"/>
<text text-anchor="middle" x="201.14" y="-405.8" font-family="Times,serif" font-size="14.00">प्रतियोगी</text>
</g>
<!-- Node5_1 -->
<g id="node8" class="node">
<title>Node5_1</title>
<ellipse fill="#87ceeb" stroke="#87ceeb" cx="265.14" cy="-18" rx="50.09" ry="18"/>
<text text-anchor="middle" x="265.14" y="-14.3" font-family="Times,serif" font-size="14.00">भवतः(5.1)</text>
</g>
<!-- Node5_1&#45;&gt;Node6_1 -->
<g id="edge5" class="edge">
<title>Node5_1&#45;&gt;Node6_1</title>
<path fill="none" stroke="black" d="M265.14,-46.27C265.14,-59.58 265.14,-75.19 265.14,-86.82"/>
<polygon fill="black" stroke="black" points="268.64,-46.2 265.14,-36.2 261.64,-46.2 268.64,-46.2"/>
<text text-anchor="middle" x="292.64" y="-57.8" font-family="Times,serif" font-size="14.00">षष्ठीसम्बन्धः</text>
</g>
<!-- Node7_1 -->
<g id="node9" class="node">
<title>Node7_1</title>
<ellipse fill="#ff99ff" stroke="#ff99ff" cx="143.14" cy="-105" rx="46.29" ry="18"/>
<text text-anchor="middle" x="143.14" y="-101.3" font-family="Times,serif" font-size="14.00">अपि(7.1)</text>
</g>
<!-- Node7_1&#45;&gt;Node4_1 -->
<g id="edge7" class="edge">
<title>Node7_1&#45;&gt;Node4_1</title>
<path fill="none" stroke="black" d="M173.11,-126.88C194.58,-141.83 223.03,-161.66 242.59,-175.29"/>
<polygon fill="black" stroke="black" points="174.88,-123.85 164.68,-121 170.88,-129.59 174.88,-123.85"/>
<text text-anchor="middle" x="229.64" y="-144.8" font-family="Times,serif" font-size="14.00">सम्बन्धः</text>
</g>
<!-- Node8_1 -->
<g id="node10" class="node">
<title>Node8_1</title>
<ellipse fill="#ff99ff" stroke="#ff99ff" cx="380.14" cy="-105" rx="38.99" ry="18"/>
<text text-anchor="middle" x="380.14" y="-101.3" font-family="Times,serif" font-size="14.00">वा(8.1)</text>
</g>
<!-- Node8_1&#45;&gt;Node4_1 -->
<g id="edge8" class="edge">
<title>Node8_1&#45;&gt;Node4_1</title>
<path fill="none" stroke="black" d="M352.17,-126.67C331.98,-141.6 305.12,-161.45 286.61,-175.14"/>
<polygon fill="black" stroke="black" points="354.41,-129.37 360.38,-120.61 350.25,-123.74 354.41,-129.37"/>
<text text-anchor="middle" x="365.64" y="-144.8" font-family="Times,serif" font-size="14.00">अन्यतर_द्योतकः</text>
</g>
<!-- Node11_1 -->
<g id="node12" class="node">
<title>Node11_1</title>
<ellipse fill="#00bfff" stroke="#00bfff" cx="59.14" cy="-453" rx="59.29" ry="18"/>
<text text-anchor="middle" x="59.14" y="-449.3" font-family="Times,serif" font-size="14.00">आहारः(11.1)</text>
</g>
<!-- Node11_1&#45;&gt;Node9_1 -->
<g id="edge10" class="edge">
<title>Node11_1&#45;&gt;Node9_1</title>
<path fill="none" stroke="black" d="M65.56,-481.27C68.69,-494.58 72.37,-510.19 75.1,-521.82"/>
<polygon fill="black" stroke="black" points="68.89,-480.13 63.19,-471.2 62.08,-481.74 68.89,-480.13"/>
<text text-anchor="middle" x="80.14" y="-492.8" font-family="Times,serif" font-size="14.00">कर्म</text>
</g>
<!-- Node12_1 -->
<g id="node13" class="node">
<title>Node12_1</title>
<ellipse fill="#ff99ff" stroke="#ff99ff" cx="443.14" cy="-18" rx="50.09" ry="18"/>
<text text-anchor="middle" x="443.14" y="-14.3" font-family="Times,serif" font-size="14.00">ततः(12.1)</text>
</g>
<!-- Node13_1 -->
<g id="node14" class="node">
<title>Node13_1</title>
<ellipse fill="#ff1975" stroke="#ff1975" cx="503.14" cy="-105" rx="65.79" ry="18"/>
<text text-anchor="middle" x="503.14" y="-101.3" font-family="Times,serif" font-size="14.00">वेत्स्यामहे(13.1)</text>
</g>
<!-- Node12_1&#45;&gt;Node13_1 -->
<g id="edge11" class="edge">
<title>Node12_1&#45;&gt;Node13_1</title>
<path fill="none" stroke="black" d="M460.8,-44.01C470.63,-57.94 482.61,-74.91 491.32,-87.24"/>
<polygon fill="black" stroke="black" points="463.63,-41.94 455,-35.79 457.91,-45.98 463.63,-41.94"/>
<text text-anchor="middle" x="494.64" y="-57.8" font-family="Times,serif" font-size="14.00">सम्बन्धः</text>
</g>
<!-- Node14_1 -->
<g id="node15" class="node">
<title>Node14_1</title>
<ellipse fill="#00bfff" stroke="#00bfff" cx="563.14" cy="-18" rx="51.99" ry="18"/>
<text text-anchor="middle" x="563.14" y="-14.3" font-family="Times,serif" font-size="14.00">वयम्(14.1)</text>
</g>
<!-- Node14_1&#45;&gt;Node13_1 -->
<g id="edge12" class="edge">
<title>Node14_1&#45;&gt;Node13_1</title>
<path fill="none" stroke="black" d="M545.49,-44.01C535.66,-57.94 523.68,-74.91 514.97,-87.24"/>
<polygon fill="black" stroke="black" points="548.38,-45.98 551.29,-35.79 542.66,-41.94 548.38,-45.98"/>
<text text-anchor="middle" x="547.14" y="-57.8" font-family="Times,serif" font-size="14.00">कर्ता</text>
</g>
</g>
</svg>
