<?xml version="1.0" encoding="UTF-8" standalone="no"?>
<!DOCTYPE svg PUBLIC "-//W3C//DTD SVG 1.1//EN"
 "http://www.w3.org/Graphics/SVG/1.1/DTD/svg11.dtd">
<!-- Generated by graphviz version 2.43.0 (0)
 -->
<!-- Title: G Pages: 1 -->
<svg width="673pt" height="321pt"
 viewBox="0.00 0.00 673.14 321.00" xmlns="http://www.w3.org/2000/svg" xmlns:xlink="http://www.w3.org/1999/xlink">
<g id="graph0" class="graph" transform="scale(1 1) rotate(0) translate(4 317)">
<title>G</title>
<polygon fill="#fffacd" stroke="transparent" points="-4,4 -4,-317 669.14,-317 669.14,4 -4,4"/>
<g id="clust1" class="cluster">
<title>cluster_1</title>
<polygon fill="#fffacd" stroke="black" points="478.09,-8 478.09,-147 606.09,-147 606.09,-8 478.09,-8"/>
</g>
<g id="clust2" class="cluster">
<title>cluster_2</title>
<polygon fill="#fffacd" stroke="black" points="8.09,-95 8.09,-234 230.09,-234 230.09,-95 8.09,-95"/>
</g>
<!-- Node3_1 -->
<g id="node1" class="node">
<title>Node3_1</title>
<ellipse fill="#c6e2eb" stroke="#c6e2eb" cx="542.09" cy="-34" rx="50.89" ry="18"/>
<text text-anchor="middle" x="542.09" y="-30.3" font-family="Times,serif" font-size="14.00">राजेन्द्रे(3.1)</text>
</g>
<!-- Node4_1 -->
<g id="node2" class="node">
<title>Node4_1</title>
<ellipse fill="#c6e2eb" stroke="#c6e2eb" cx="542.09" cy="-121" rx="55.79" ry="18"/>
<text text-anchor="middle" x="542.09" y="-117.3" font-family="Times,serif" font-size="14.00">धृतराष्ट्रे(4.1)</text>
</g>
<!-- Node3_1&#45;&gt;Node4_1 -->
<g id="edge3" class="edge">
<title>Node3_1&#45;&gt;Node4_1</title>
<path fill="none" stroke="black" d="M542.09,-62.27C542.09,-75.58 542.09,-91.19 542.09,-102.82"/>
<polygon fill="black" stroke="black" points="545.59,-62.2 542.09,-52.2 538.59,-62.2 545.59,-62.2"/>
<text text-anchor="middle" x="564.59" y="-73.8" font-family="Times,serif" font-size="14.00">विशेषणम्</text>
</g>
<!-- Node2_1 -->
<g id="node7" class="node">
<title>Node2_1</title>
<ellipse fill="#ff1975" stroke="#ff1975" cx="348.09" cy="-208" rx="48.19" ry="18"/>
<text text-anchor="middle" x="348.09" y="-204.3" font-family="Times,serif" font-size="14.00">ब्रुवति(2.1)</text>
</g>
<!-- Node4_1&#45;&gt;Node2_1 -->
<g id="edge4" class="edge">
<title>Node4_1&#45;&gt;Node2_1</title>
<path fill="none" stroke="black" d="M500.62,-140.17C463.88,-156.27 411.12,-179.39 378.26,-193.78"/>
<polygon fill="black" stroke="black" points="502.3,-143.26 510.06,-136.04 499.5,-136.84 502.3,-143.26"/>
<text text-anchor="middle" x="467.09" y="-160.8" font-family="Times,serif" font-size="14.00">कर्ता</text>
</g>
<!-- Node6_1 -->
<g id="node3" class="node">
<title>Node6_1</title>
<ellipse fill="#00bfff" stroke="#00bfff" cx="173.09" cy="-121" rx="49.29" ry="18"/>
<text text-anchor="middle" x="173.09" y="-117.3" font-family="Times,serif" font-size="14.00">ऋषिः(6.1)</text>
</g>
<!-- Node8_1 -->
<g id="node4" class="node">
<title>Node8_1</title>
<ellipse fill="#00bfff" stroke="#00bfff" cx="171.09" cy="-208" rx="50.89" ry="18"/>
<text text-anchor="middle" x="171.09" y="-204.3" font-family="Times,serif" font-size="14.00">व्यासः(8.1)</text>
</g>
<!-- Node6_1&#45;&gt;Node8_1 -->
<g id="edge6" class="edge">
<title>Node6_1&#45;&gt;Node8_1</title>
<path fill="none" stroke="black" d="M172.45,-149.27C172.14,-162.58 171.77,-178.19 171.5,-189.82"/>
<polygon fill="black" stroke="black" points="175.95,-149.28 172.69,-139.2 168.96,-149.12 175.95,-149.28"/>
<text text-anchor="middle" x="195.59" y="-160.8" font-family="Times,serif" font-size="14.00">विशेषणम्</text>
</g>
<!-- Node11_1 -->
<g id="node8" class="node">
<title>Node11_1</title>
<ellipse fill="#ff1975" stroke="#ff1975" cx="408.09" cy="-295" rx="60.39" ry="18"/>
<text text-anchor="middle" x="408.09" y="-291.3" font-family="Times,serif" font-size="14.00">अब्रवीत्(11.1)</text>
</g>
<!-- Node8_1&#45;&gt;Node11_1 -->
<g id="edge9" class="edge">
<title>Node8_1&#45;&gt;Node11_1</title>
<path fill="none" stroke="black" d="M211.8,-226.02C236.34,-236.06 268.32,-248.77 297.09,-259 319.94,-267.12 345.76,-275.32 366.74,-281.74"/>
<polygon fill="black" stroke="black" points="213.02,-222.74 202.44,-222.17 210.36,-229.21 213.02,-222.74"/>
<text text-anchor="middle" x="308.09" y="-247.8" font-family="Times,serif" font-size="14.00">कर्ता</text>
</g>
<!-- Node7_2 -->
<g id="node5" class="node">
<title>Node7_2</title>
<ellipse fill="#00bfff" stroke="#00bfff" cx="61.09" cy="-121" rx="44.69" ry="18"/>
<text text-anchor="middle" x="61.09" y="-117.3" font-family="Times,serif" font-size="14.00">पुत्रः(7.2)</text>
</g>
<!-- Node7_2&#45;&gt;Node8_1 -->
<g id="edge8" class="edge">
<title>Node7_2&#45;&gt;Node8_1</title>
<path fill="none" stroke="black" d="M87.79,-144C98.65,-152.82 111.38,-163.01 123.09,-172 131.61,-178.53 141.12,-185.53 149.42,-191.54"/>
<polygon fill="black" stroke="black" points="89.86,-141.17 79.9,-137.56 85.43,-146.59 89.86,-141.17"/>
<text text-anchor="middle" x="145.59" y="-160.8" font-family="Times,serif" font-size="14.00">विशेषणम्</text>
</g>
<!-- Node1_1 -->
<g id="node6" class="node">
<title>Node1_1</title>
<ellipse fill="#ff99ff" stroke="#ff99ff" cx="285.09" cy="-121" rx="44.39" ry="18"/>
<text text-anchor="middle" x="285.09" y="-117.3" font-family="Times,serif" font-size="14.00">इति(1.1)</text>
</g>
<!-- Node1_1&#45;&gt;Node2_1 -->
<g id="edge1" class="edge">
<title>Node1_1&#45;&gt;Node2_1</title>
<path fill="none" stroke="black" d="M303.37,-146.65C313.78,-160.7 326.54,-177.92 335.77,-190.37"/>
<polygon fill="black" stroke="black" points="306.01,-144.34 297.24,-138.39 300.38,-148.51 306.01,-144.34"/>
<text text-anchor="middle" x="329.09" y="-160.8" font-family="Times,serif" font-size="14.00">कर्म</text>
</g>
<!-- Node2_1&#45;&gt;Node11_1 -->
<g id="edge2" class="edge">
<title>Node2_1&#45;&gt;Node11_1</title>
<path fill="none" stroke="black" d="M328.04,-234.09C323.88,-242.35 322.08,-251.37 327.09,-259 334.84,-270.78 347.47,-278.61 360.49,-283.81"/>
<polygon fill="black" stroke="black" points="331.05,-235.88 333.28,-225.52 325.08,-232.22 331.05,-235.88"/>
<text text-anchor="middle" x="398.09" y="-247.8" font-family="Times,serif" font-size="14.00">भावलक्षणसप्तमी_समानकालः</text>
</g>
<!-- Node5_1 -->
<g id="node9" class="node">
<title>Node5_1</title>
<ellipse fill="#93db70" stroke="#93db70" cx="408.09" cy="-121" rx="60.39" ry="18"/>
<text text-anchor="middle" x="408.09" y="-117.3" font-family="Times,serif" font-size="14.00">युधिष्ठिरम्(5.1)</text>
</g>
<!-- Node5_1&#45;&gt;Node2_1 -->
<g id="edge5" class="edge">
<title>Node5_1&#45;&gt;Node2_1</title>
<path fill="none" stroke="black" d="M390.4,-147.06C380.5,-161.09 368.43,-178.19 359.72,-190.53"/>
<polygon fill="black" stroke="black" points="393.33,-148.98 396.24,-138.79 387.61,-144.94 393.33,-148.98"/>
<text text-anchor="middle" x="390.09" y="-160.8" font-family="Times,serif" font-size="14.00">कर्म</text>
</g>
<!-- Node7_1 -->
<g id="node10" class="node">
<title>Node7_1</title>
<ellipse fill="#ffff00" stroke="#ffff00" cx="61.09" cy="-34" rx="61.19" ry="18"/>
<text text-anchor="middle" x="61.09" y="-30.3" font-family="Times,serif" font-size="14.00">सत्यवती&#45;(7.1)</text>
</g>
<!-- Node7_1&#45;&gt;Node7_2 -->
<g id="edge7" class="edge">
<title>Node7_1&#45;&gt;Node7_2</title>
<path fill="none" stroke="black" d="M61.09,-62.27C61.09,-75.58 61.09,-91.19 61.09,-102.82"/>
<polygon fill="black" stroke="black" points="64.59,-62.2 61.09,-52.2 57.59,-62.2 64.59,-62.2"/>
<text text-anchor="middle" x="78.09" y="-73.8" font-family="Times,serif" font-size="14.00">समासः</text>
</g>
<!-- Node9_1 -->
<g id="node11" class="node">
<title>Node9_1</title>
<ellipse fill="#ff1975" stroke="#ff1975" cx="491.09" cy="-208" rx="55.79" ry="18"/>
<text text-anchor="middle" x="491.09" y="-204.3" font-family="Times,serif" font-size="14.00">अभ्येत्य(9.1)</text>
</g>
<!-- Node9_1&#45;&gt;Node11_1 -->
<g id="edge10" class="edge">
<title>Node9_1&#45;&gt;Node11_1</title>
<path fill="none" stroke="black" d="M482.96,-235.8C479.59,-243.9 475.04,-252.38 469.09,-259 461.42,-267.54 451.16,-274.52 441.24,-279.95"/>
<polygon fill="black" stroke="black" points="486.3,-236.87 486.5,-226.28 479.73,-234.43 486.3,-236.87"/>
<text text-anchor="middle" x="498.59" y="-247.8" font-family="Times,serif" font-size="14.00">पूर्वकालः</text>
</g>
<!-- Node10_1 -->
<g id="node12" class="node">
<title>Node10_1</title>
<ellipse fill="#93db70" stroke="#93db70" cx="615.09" cy="-208" rx="50.09" ry="18"/>
<text text-anchor="middle" x="615.09" y="-204.3" font-family="Times,serif" font-size="14.00">वचः(10.1)</text>
</g>
<!-- Node10_1&#45;&gt;Node11_1 -->
<g id="edge11" class="edge">
<title>Node10_1&#45;&gt;Node11_1</title>
<path fill="none" stroke="black" d="M581.74,-229.25C564.62,-239.1 543.18,-250.59 523.09,-259 500.38,-268.51 474.17,-276.69 452.52,-282.75"/>
<polygon fill="black" stroke="black" points="583.9,-232.04 590.78,-223.98 580.37,-226 583.9,-232.04"/>
<text text-anchor="middle" x="563.09" y="-247.8" font-family="Times,serif" font-size="14.00">कर्म</text>
</g>
</g>
</svg>
