<?xml version="1.0" encoding="UTF-8" standalone="no"?>
<!DOCTYPE svg PUBLIC "-//W3C//DTD SVG 1.1//EN"
 "http://www.w3.org/Graphics/SVG/1.1/DTD/svg11.dtd">
<!-- Generated by graphviz version 2.43.0 (0)
 -->
<!-- Title: G Pages: 1 -->
<svg width="998pt" height="234pt"
 viewBox="0.00 0.00 998.00 234.00" xmlns="http://www.w3.org/2000/svg" xmlns:xlink="http://www.w3.org/1999/xlink">
<g id="graph0" class="graph" transform="scale(1 1) rotate(0) translate(4 230)">
<title>G</title>
<polygon fill="#fffacd" stroke="transparent" points="-4,4 -4,-230 994,-230 994,4 -4,4"/>
<g id="clust1" class="cluster">
<title>cluster_1</title>
<polygon fill="#fffacd" stroke="black" points="8,-8 8,-147 146,-147 146,-8 8,-8"/>
</g>
<!-- Node11_1 -->
<g id="node1" class="node">
<title>Node11_1</title>
<ellipse fill="#00bfff" stroke="#00bfff" cx="77" cy="-34" rx="61.19" ry="18"/>
<text text-anchor="middle" x="77" y="-30.3" font-family="Times,serif" font-size="14.00">सुसूक्ष्मः(11.1)</text>
</g>
<!-- Node7_1 -->
<g id="node2" class="node">
<title>Node7_1</title>
<ellipse fill="#00bfff" stroke="#00bfff" cx="90" cy="-121" rx="46.59" ry="18"/>
<text text-anchor="middle" x="90" y="-117.3" font-family="Times,serif" font-size="14.00">मन्युः(7.1)</text>
</g>
<!-- Node11_1&#45;&gt;Node7_1 -->
<g id="edge11" class="edge">
<title>Node11_1&#45;&gt;Node7_1</title>
<path fill="none" stroke="black" d="M81.17,-62.27C83.21,-75.58 85.59,-91.19 87.37,-102.82"/>
<polygon fill="black" stroke="black" points="84.6,-61.56 79.63,-52.2 77.68,-62.62 84.6,-61.56"/>
<text text-anchor="middle" x="107.5" y="-73.8" font-family="Times,serif" font-size="14.00">विशेषणम्</text>
</g>
<!-- Node13_1 -->
<g id="node12" class="node">
<title>Node13_1</title>
<ellipse fill="#ff1975" stroke="#ff1975" cx="192" cy="-208" rx="54.69" ry="18"/>
<text text-anchor="middle" x="192" y="-204.3" font-family="Times,serif" font-size="14.00">विद्यते(13.1)</text>
</g>
<!-- Node7_1&#45;&gt;Node13_1 -->
<g id="edge7" class="edge">
<title>Node7_1&#45;&gt;Node13_1</title>
<path fill="none" stroke="black" d="M116.4,-144C134.02,-158.68 156.79,-177.66 172.72,-190.93"/>
<polygon fill="black" stroke="black" points="118.63,-141.3 108.71,-137.59 114.15,-146.68 118.63,-141.3"/>
<text text-anchor="middle" x="159" y="-160.8" font-family="Times,serif" font-size="14.00">कर्ता</text>
</g>
<!-- Node1_1 -->
<g id="node3" class="node">
<title>Node1_1</title>
<ellipse fill="#ff1975" stroke="#ff1975" cx="463" cy="-121" rx="65.79" ry="18"/>
<text text-anchor="middle" x="463" y="-117.3" font-family="Times,serif" font-size="14.00">अनुजानीहि(1.1)</text>
</g>
<!-- Node10_1 -->
<g id="node4" class="node">
<title>Node10_1</title>
<ellipse fill="#00bfff" stroke="#00bfff" cx="335" cy="-34" rx="57.39" ry="18"/>
<text text-anchor="middle" x="335" y="-30.3" font-family="Times,serif" font-size="14.00">(त्वम्)(10.1)</text>
</g>
<!-- Node10_1&#45;&gt;Node1_1 -->
<g id="edge10" class="edge">
<title>Node10_1&#45;&gt;Node1_1</title>
<path fill="none" stroke="black" d="M366.94,-56.21C389.21,-71 418.45,-90.42 438.8,-103.93"/>
<polygon fill="black" stroke="black" points="368.74,-53.21 358.48,-50.59 364.87,-59.04 368.74,-53.21"/>
<text text-anchor="middle" x="418" y="-73.8" font-family="Times,serif" font-size="14.00">कर्ता</text>
</g>
<!-- Node2_1 -->
<g id="node5" class="node">
<title>Node2_1</title>
<ellipse fill="#93db70" stroke="#93db70" cx="463" cy="-34" rx="52.79" ry="18"/>
<text text-anchor="middle" x="463" y="-30.3" font-family="Times,serif" font-size="14.00">पितरम्(2.1)</text>
</g>
<!-- Node2_1&#45;&gt;Node1_1 -->
<g id="edge1" class="edge">
<title>Node2_1&#45;&gt;Node1_1</title>
<path fill="none" stroke="black" d="M463,-62.27C463,-75.58 463,-91.19 463,-102.82"/>
<polygon fill="black" stroke="black" points="466.5,-62.2 463,-52.2 459.5,-62.2 466.5,-62.2"/>
<text text-anchor="middle" x="472" y="-73.8" font-family="Times,serif" font-size="14.00">कर्म</text>
</g>
<!-- Node3_1 -->
<g id="node6" class="node">
<title>Node3_1</title>
<ellipse fill="#00bfff" stroke="#00bfff" cx="841" cy="-121" rx="50.09" ry="18"/>
<text text-anchor="middle" x="841" y="-117.3" font-family="Times,serif" font-size="14.00">समयः(3.1)</text>
</g>
<!-- Node14_2 -->
<g id="node7" class="node">
<title>Node14_2</title>
<ellipse fill="lightgrey" stroke="black" cx="782" cy="-208" rx="62.29" ry="18"/>
<text text-anchor="middle" x="782" y="-204.3" font-family="Times,serif" font-size="14.00">(अस्ति)(14.2)</text>
</g>
<!-- Node3_1&#45;&gt;Node14_2 -->
<g id="edge2" class="edge">
<title>Node3_1&#45;&gt;Node14_2</title>
<path fill="none" stroke="black" d="M825.31,-147.46C820.25,-155.42 814.52,-164.16 809,-172 804.76,-178.03 799.9,-184.45 795.49,-190.13"/>
<polygon fill="black" stroke="black" points="828.33,-149.24 830.69,-138.91 822.41,-145.51 828.33,-149.24"/>
<text text-anchor="middle" x="830" y="-160.8" font-family="Times,serif" font-size="14.00">कर्ता</text>
</g>
<!-- Node4_1 -->
<g id="node8" class="node">
<title>Node4_1</title>
<ellipse fill="#87ceeb" stroke="#87ceeb" cx="841" cy="-34" rx="47.39" ry="18"/>
<text text-anchor="middle" x="841" y="-30.3" font-family="Times,serif" font-size="14.00">अस्य(4.1)</text>
</g>
<!-- Node4_1&#45;&gt;Node3_1 -->
<g id="edge3" class="edge">
<title>Node4_1&#45;&gt;Node3_1</title>
<path fill="none" stroke="black" d="M841,-62.27C841,-75.58 841,-91.19 841,-102.82"/>
<polygon fill="black" stroke="black" points="844.5,-62.2 841,-52.2 837.5,-62.2 844.5,-62.2"/>
<text text-anchor="middle" x="868.5" y="-73.8" font-family="Times,serif" font-size="14.00">षष्ठीसम्बन्धः</text>
</g>
<!-- Node5_1 -->
<g id="node9" class="node">
<title>Node5_1</title>
<ellipse fill="#ffff00" stroke="#ffff00" cx="725" cy="-34" rx="50.89" ry="18"/>
<text text-anchor="middle" x="725" y="-30.3" font-family="Times,serif" font-size="14.00">तपस्&#45;(5.1)</text>
</g>
<!-- Node5_2 -->
<g id="node10" class="node">
<title>Node5_2</title>
<ellipse fill="#c6e2eb" stroke="#c6e2eb" cx="725" cy="-121" rx="46.59" ry="18"/>
<text text-anchor="middle" x="725" y="-117.3" font-family="Times,serif" font-size="14.00">विधौ(5.2)</text>
</g>
<!-- Node5_1&#45;&gt;Node5_2 -->
<g id="edge4" class="edge">
<title>Node5_1&#45;&gt;Node5_2</title>
<path fill="none" stroke="black" d="M725,-62.27C725,-75.58 725,-91.19 725,-102.82"/>
<polygon fill="black" stroke="black" points="728.5,-62.2 725,-52.2 721.5,-62.2 728.5,-62.2"/>
<text text-anchor="middle" x="734.5" y="-73.8" font-family="Times,serif" font-size="14.00">T6</text>
</g>
<!-- Node5_2&#45;&gt;Node14_2 -->
<g id="edge5" class="edge">
<title>Node5_2&#45;&gt;Node14_2</title>
<path fill="none" stroke="black" d="M739.04,-147.89C743.57,-155.78 748.79,-164.38 754,-172 758.22,-178.16 763.21,-184.63 767.8,-190.3"/>
<polygon fill="black" stroke="black" points="742.02,-146.05 734.06,-139.05 735.92,-149.48 742.02,-146.05"/>
<text text-anchor="middle" x="781.5" y="-160.8" font-family="Times,serif" font-size="14.00">अधिकरणम्</text>
</g>
<!-- Node6_1 -->
<g id="node11" class="node">
<title>Node6_1</title>
<ellipse fill="#ff99ff" stroke="#ff99ff" cx="192" cy="-121" rx="37.09" ry="18"/>
<text text-anchor="middle" x="192" y="-117.3" font-family="Times,serif" font-size="14.00">न(6.1)</text>
</g>
<!-- Node6_1&#45;&gt;Node13_1 -->
<g id="edge6" class="edge">
<title>Node6_1&#45;&gt;Node13_1</title>
<path fill="none" stroke="black" d="M192,-149.27C192,-162.58 192,-178.19 192,-189.82"/>
<polygon fill="black" stroke="black" points="195.5,-149.2 192,-139.2 188.5,-149.2 195.5,-149.2"/>
<text text-anchor="middle" x="211.5" y="-160.8" font-family="Times,serif" font-size="14.00">प्रतिषेधः</text>
</g>
<!-- Node8_1 -->
<g id="node13" class="node">
<title>Node8_1</title>
<ellipse fill="#ff99ff" stroke="#ff99ff" cx="944" cy="-34" rx="37.89" ry="18"/>
<text text-anchor="middle" x="944" y="-30.3" font-family="Times,serif" font-size="14.00">च(8.1)</text>
</g>
<!-- Node8_1&#45;&gt;Node3_1 -->
<g id="edge8" class="edge">
<title>Node8_1&#45;&gt;Node3_1</title>
<path fill="none" stroke="black" d="M925.15,-59.46C917.83,-68.09 909.04,-77.51 900,-85 890.56,-92.83 879.16,-100.03 868.91,-105.83"/>
<polygon fill="black" stroke="black" points="928.03,-61.46 931.67,-51.51 922.62,-57.01 928.03,-61.46"/>
<text text-anchor="middle" x="952" y="-73.8" font-family="Times,serif" font-size="14.00">समुच्चय_द्योतकः</text>
</g>
<!-- Node9_1 -->
<g id="node14" class="node">
<title>Node9_1</title>
<ellipse fill="#87ceeb" stroke="#87ceeb" cx="294" cy="-121" rx="47.39" ry="18"/>
<text text-anchor="middle" x="294" y="-117.3" font-family="Times,serif" font-size="14.00">अस्य(9.1)</text>
</g>
<!-- Node9_1&#45;&gt;Node13_1 -->
<g id="edge9" class="edge">
<title>Node9_1&#45;&gt;Node13_1</title>
<path fill="none" stroke="black" d="M267.94,-144.28C257.71,-152.97 245.84,-163 235,-172 227.45,-178.27 219.09,-185.1 211.76,-191.05"/>
<polygon fill="black" stroke="black" points="270.4,-146.78 275.74,-137.63 265.86,-141.45 270.4,-146.78"/>
<text text-anchor="middle" x="270.5" y="-160.8" font-family="Times,serif" font-size="14.00">सम्बन्धः</text>
</g>
<!-- Node12_1 -->
<g id="node15" class="node">
<title>Node12_1</title>
<ellipse fill="#ff99ff" stroke="#ff99ff" cx="208" cy="-34" rx="51.99" ry="18"/>
<text text-anchor="middle" x="208" y="-30.3" font-family="Times,serif" font-size="14.00">अपि(12.1)</text>
</g>
<!-- Node12_1&#45;&gt;Node7_1 -->
<g id="edge12" class="edge">
<title>Node12_1&#45;&gt;Node7_1</title>
<path fill="none" stroke="black" d="M178.12,-56.52C157.21,-71.59 129.77,-91.35 111.11,-104.79"/>
<polygon fill="black" stroke="black" points="180.29,-59.28 186.36,-50.59 176.2,-53.6 180.29,-59.28"/>
<text text-anchor="middle" x="175.5" y="-73.8" font-family="Times,serif" font-size="14.00">सम्बन्धः</text>
</g>
<!-- Node14_1 -->
<g id="node16" class="node">
<title>Node14_1</title>
<ellipse fill="#6fffc3" stroke="#6fffc3" cx="595" cy="-34" rx="61.99" ry="18"/>
<text text-anchor="middle" x="595" y="-30.3" font-family="Times,serif" font-size="14.00">युधिष्ठिर(14.1)</text>
</g>
<!-- Node14_1&#45;&gt;Node1_1 -->
<g id="edge13" class="edge">
<title>Node14_1&#45;&gt;Node1_1</title>
<path fill="none" stroke="black" d="M562.31,-56.05C539.15,-70.96 508.58,-90.65 487.5,-104.22"/>
<polygon fill="black" stroke="black" points="564.28,-58.95 570.79,-50.59 560.49,-53.06 564.28,-58.95"/>
<text text-anchor="middle" x="557" y="-73.8" font-family="Times,serif" font-size="14.00">सम्बोध्यः</text>
</g>
</g>
</svg>
