<?xml version="1.0" encoding="UTF-8" standalone="no"?>
<!DOCTYPE svg PUBLIC "-//W3C//DTD SVG 1.1//EN"
 "http://www.w3.org/Graphics/SVG/1.1/DTD/svg11.dtd">
<!-- Generated by graphviz version 2.43.0 (0)
 -->
<!-- Title: G Pages: 1 -->
<svg width="1019pt" height="305pt"
 viewBox="0.00 0.00 1018.89 305.00" xmlns="http://www.w3.org/2000/svg" xmlns:xlink="http://www.w3.org/1999/xlink">
<g id="graph0" class="graph" transform="scale(1 1) rotate(0) translate(4 301)">
<title>G</title>
<polygon fill="#fffacd" stroke="transparent" points="-4,4 -4,-301 1014.89,-301 1014.89,4 -4,4"/>
<g id="clust1" class="cluster">
<title>cluster_1</title>
<polygon fill="#fffacd" stroke="black" points="326.15,-79 326.15,-218 438.15,-218 438.15,-79 326.15,-79"/>
</g>
<!-- Node8_1 -->
<g id="node1" class="node">
<title>Node8_1</title>
<ellipse fill="#00bfff" stroke="#00bfff" cx="382.15" cy="-105" rx="44.39" ry="18"/>
<text text-anchor="middle" x="382.15" y="-101.3" font-family="Times,serif" font-size="14.00">नतः(8.1)</text>
</g>
<!-- Node6_1 -->
<g id="node2" class="node">
<title>Node6_1</title>
<ellipse fill="#00bfff" stroke="#00bfff" cx="382.15" cy="-192" rx="48.19" ry="18"/>
<text text-anchor="middle" x="382.15" y="-188.3" font-family="Times,serif" font-size="14.00">अहम्(6.1)</text>
</g>
<!-- Node8_1&#45;&gt;Node6_1 -->
<g id="edge7" class="edge">
<title>Node8_1&#45;&gt;Node6_1</title>
<path fill="none" stroke="black" d="M382.15,-133.27C382.15,-146.58 382.15,-162.19 382.15,-173.82"/>
<polygon fill="black" stroke="black" points="385.65,-133.2 382.15,-123.2 378.65,-133.2 385.65,-133.2"/>
<text text-anchor="middle" x="404.65" y="-144.8" font-family="Times,serif" font-size="14.00">विशेषणम्</text>
</g>
<!-- Node3_1 -->
<g id="node4" class="node">
<title>Node3_1</title>
<ellipse fill="#ff1975" stroke="#ff1975" cx="213.15" cy="-279" rx="44.69" ry="18"/>
<text text-anchor="middle" x="213.15" y="-275.3" font-family="Times,serif" font-size="14.00">याचे(3.1)</text>
</g>
<!-- Node6_1&#45;&gt;Node3_1 -->
<g id="edge5" class="edge">
<title>Node6_1&#45;&gt;Node3_1</title>
<path fill="none" stroke="black" d="M347.14,-212.48C329.82,-221.95 308.53,-233.34 289.15,-243 273.81,-250.65 256.46,-258.68 242.22,-265.12"/>
<polygon fill="black" stroke="black" points="349.23,-215.32 356.31,-207.44 345.86,-209.19 349.23,-215.32"/>
<text text-anchor="middle" x="328.15" y="-231.8" font-family="Times,serif" font-size="14.00">कर्ता</text>
</g>
<!-- Node1_1 -->
<g id="node3" class="node">
<title>Node1_1</title>
<ellipse fill="#93db70" stroke="#93db70" cx="46.15" cy="-192" rx="46.29" ry="18"/>
<text text-anchor="middle" x="46.15" y="-188.3" font-family="Times,serif" font-size="14.00">इदम्(1.1)</text>
</g>
<!-- Node1_1&#45;&gt;Node3_1 -->
<g id="edge1" class="edge">
<title>Node1_1&#45;&gt;Node3_1</title>
<path fill="none" stroke="black" d="M80.82,-212.19C98.22,-221.68 119.68,-233.17 139.15,-243 153.99,-250.49 170.72,-258.45 184.52,-264.88"/>
<polygon fill="black" stroke="black" points="82.07,-208.88 71.62,-207.15 78.71,-215.02 82.07,-208.88"/>
<text text-anchor="middle" x="158.65" y="-231.8" font-family="Times,serif" font-size="14.00">गौणकर्म</text>
</g>
<!-- Node2_1 -->
<g id="node5" class="node">
<title>Node2_1</title>
<ellipse fill="#ff99ff" stroke="#ff99ff" cx="46.15" cy="-105" rx="37.09" ry="18"/>
<text text-anchor="middle" x="46.15" y="-101.3" font-family="Times,serif" font-size="14.00">तु(2.1)</text>
</g>
<!-- Node2_1&#45;&gt;Node1_1 -->
<g id="edge2" class="edge">
<title>Node2_1&#45;&gt;Node1_1</title>
<path fill="none" stroke="black" d="M46.15,-133.27C46.15,-146.58 46.15,-162.19 46.15,-173.82"/>
<polygon fill="black" stroke="black" points="49.65,-133.2 46.15,-123.2 42.65,-133.2 49.65,-133.2"/>
<text text-anchor="middle" x="64.65" y="-144.8" font-family="Times,serif" font-size="14.00">सम्बन्धः</text>
</g>
<!-- Node4_1 -->
<g id="node6" class="node">
<title>Node4_1</title>
<ellipse fill="#6fffc3" stroke="#6fffc3" cx="157.15" cy="-192" rx="46.59" ry="18"/>
<text text-anchor="middle" x="157.15" y="-188.3" font-family="Times,serif" font-size="14.00">नृपते(4.1)</text>
</g>
<!-- Node4_1&#45;&gt;Node3_1 -->
<g id="edge3" class="edge">
<title>Node4_1&#45;&gt;Node3_1</title>
<path fill="none" stroke="black" d="M173.92,-218.46C183.11,-232.42 194.24,-249.31 202.3,-261.53"/>
<polygon fill="black" stroke="black" points="176.63,-216.22 168.21,-209.79 170.79,-220.07 176.63,-216.22"/>
<text text-anchor="middle" x="210.15" y="-231.8" font-family="Times,serif" font-size="14.00">सम्बोध्यः</text>
</g>
<!-- Node5_1 -->
<g id="node7" class="node">
<title>Node5_1</title>
<ellipse fill="#93db70" stroke="#93db70" cx="269.15" cy="-192" rx="46.59" ry="18"/>
<text text-anchor="middle" x="269.15" y="-188.3" font-family="Times,serif" font-size="14.00">त्वाम्(5.1)</text>
</g>
<!-- Node5_1&#45;&gt;Node3_1 -->
<g id="edge4" class="edge">
<title>Node5_1&#45;&gt;Node3_1</title>
<path fill="none" stroke="black" d="M252.37,-218.46C243.18,-232.42 232.05,-249.31 224,-261.53"/>
<polygon fill="black" stroke="black" points="255.5,-220.07 258.08,-209.79 249.66,-216.22 255.5,-220.07"/>
<text text-anchor="middle" x="265.15" y="-231.8" font-family="Times,serif" font-size="14.00">मुख्यकर्म</text>
</g>
<!-- Node7_1 -->
<g id="node8" class="node">
<title>Node7_1</title>
<ellipse fill="#40e0d0" stroke="#40e0d0" cx="382.15" cy="-18" rx="51.99" ry="18"/>
<text text-anchor="middle" x="382.15" y="-14.3" font-family="Times,serif" font-size="14.00">शिरसा(7.1)</text>
</g>
<!-- Node7_1&#45;&gt;Node8_1 -->
<g id="edge6" class="edge">
<title>Node7_1&#45;&gt;Node8_1</title>
<path fill="none" stroke="black" d="M382.15,-46.27C382.15,-59.58 382.15,-75.19 382.15,-86.82"/>
<polygon fill="black" stroke="black" points="385.65,-46.2 382.15,-36.2 378.65,-46.2 385.65,-46.2"/>
<text text-anchor="middle" x="398.65" y="-57.8" font-family="Times,serif" font-size="14.00">करणम्</text>
</g>
<!-- Node9_1 -->
<g id="node9" class="node">
<title>Node9_1</title>
<ellipse fill="#ff1975" stroke="#ff1975" cx="573.15" cy="-105" rx="57.69" ry="18"/>
<text text-anchor="middle" x="573.15" y="-101.3" font-family="Times,serif" font-size="14.00">क्रियताम्(9.1)</text>
</g>
<!-- Node16_1 -->
<g id="node10" class="node">
<title>Node16_1</title>
<ellipse fill="#00bfff" stroke="#00bfff" cx="706.15" cy="-105" rx="57.39" ry="18"/>
<text text-anchor="middle" x="706.15" y="-101.3" font-family="Times,serif" font-size="14.00">(त्वम्)(16.1)</text>
</g>
<!-- Node13_1 -->
<g id="node14" class="node">
<title>Node13_1</title>
<ellipse fill="#ff1975" stroke="#ff1975" cx="831.15" cy="-192" rx="51.99" ry="18"/>
<text text-anchor="middle" x="831.15" y="-188.3" font-family="Times,serif" font-size="14.00">गच्छ(13.1)</text>
</g>
<!-- Node16_1&#45;&gt;Node13_1 -->
<g id="edge13" class="edge">
<title>Node16_1&#45;&gt;Node13_1</title>
<path fill="none" stroke="black" d="M737.45,-127.28C759.49,-142.27 788.5,-162 808.36,-175.51"/>
<polygon fill="black" stroke="black" points="739.31,-124.32 729.07,-121.59 735.37,-130.11 739.31,-124.32"/>
<text text-anchor="middle" x="786.15" y="-144.8" font-family="Times,serif" font-size="14.00">कर्ता</text>
</g>
<!-- Node10_1 -->
<g id="node11" class="node">
<title>Node10_1</title>
<ellipse fill="#ff99ff" stroke="#ff99ff" cx="507.15" cy="-18" rx="54.69" ry="18"/>
<text text-anchor="middle" x="507.15" y="-14.3" font-family="Times,serif" font-size="14.00">तावत्(10.1)</text>
</g>
<!-- Node10_1&#45;&gt;Node9_1 -->
<g id="edge8" class="edge">
<title>Node10_1&#45;&gt;Node9_1</title>
<path fill="none" stroke="black" d="M526.56,-44.01C537.38,-57.94 550.56,-74.91 560.13,-87.24"/>
<polygon fill="black" stroke="black" points="529.08,-41.55 520.19,-35.79 523.55,-45.84 529.08,-41.55"/>
<text text-anchor="middle" x="561.65" y="-57.8" font-family="Times,serif" font-size="14.00">सम्बन्धः</text>
</g>
<!-- Node11_1 -->
<g id="node12" class="node">
<title>Node11_1</title>
<ellipse fill="#00bfff" stroke="#00bfff" cx="639.15" cy="-18" rx="59.29" ry="18"/>
<text text-anchor="middle" x="639.15" y="-14.3" font-family="Times,serif" font-size="14.00">आहारः(11.1)</text>
</g>
<!-- Node11_1&#45;&gt;Node9_1 -->
<g id="edge9" class="edge">
<title>Node11_1&#45;&gt;Node9_1</title>
<path fill="none" stroke="black" d="M619.73,-44.01C608.91,-57.94 595.73,-74.91 586.16,-87.24"/>
<polygon fill="black" stroke="black" points="622.74,-45.84 626.11,-35.79 617.21,-41.55 622.74,-45.84"/>
<text text-anchor="middle" x="618.15" y="-57.8" font-family="Times,serif" font-size="14.00">कर्म</text>
</g>
<!-- Node12_1 -->
<g id="node13" class="node">
<title>Node12_1</title>
<ellipse fill="#ff99ff" stroke="#ff99ff" cx="831.15" cy="-105" rx="50.09" ry="18"/>
<text text-anchor="middle" x="831.15" y="-101.3" font-family="Times,serif" font-size="14.00">ततः(12.1)</text>
</g>
<!-- Node12_1&#45;&gt;Node13_1 -->
<g id="edge10" class="edge">
<title>Node12_1&#45;&gt;Node13_1</title>
<path fill="none" stroke="black" d="M831.15,-133.27C831.15,-146.58 831.15,-162.19 831.15,-173.82"/>
<polygon fill="black" stroke="black" points="834.65,-133.2 831.15,-123.2 827.65,-133.2 834.65,-133.2"/>
<text text-anchor="middle" x="866.65" y="-144.8" font-family="Times,serif" font-size="14.00">कालाधिकरणम्</text>
</g>
<!-- Node14_1 -->
<g id="node15" class="node">
<title>Node14_1</title>
<ellipse fill="#93db70" stroke="#93db70" cx="949.15" cy="-18" rx="61.99" ry="18"/>
<text text-anchor="middle" x="949.15" y="-14.3" font-family="Times,serif" font-size="14.00">आश्रमम्(14.1)</text>
</g>
<!-- Node15_1 -->
<g id="node16" class="node">
<title>Node15_1</title>
<ellipse fill="#ff99ff" stroke="#ff99ff" cx="949.15" cy="-105" rx="50.09" ry="18"/>
<text text-anchor="middle" x="949.15" y="-101.3" font-family="Times,serif" font-size="14.00">प्रति(15.1)</text>
</g>
<!-- Node14_1&#45;&gt;Node15_1 -->
<g id="edge11" class="edge">
<title>Node14_1&#45;&gt;Node15_1</title>
<path fill="none" stroke="black" d="M949.15,-46.27C949.15,-59.58 949.15,-75.19 949.15,-86.82"/>
<polygon fill="black" stroke="black" points="952.65,-46.2 949.15,-36.2 945.65,-46.2 952.65,-46.2"/>
<text text-anchor="middle" x="979.65" y="-57.8" font-family="Times,serif" font-size="14.00">सन्दर्भ_बिन्दुः</text>
</g>
<!-- Node15_1&#45;&gt;Node13_1 -->
<g id="edge12" class="edge">
<title>Node15_1&#45;&gt;Node13_1</title>
<path fill="none" stroke="black" d="M931.19,-130.97C924.09,-139.66 915.41,-148.98 906.15,-156 894.01,-165.2 879.06,-172.78 865.72,-178.51"/>
<polygon fill="black" stroke="black" points="934.08,-132.96 937.49,-122.93 928.57,-128.65 934.08,-132.96"/>
<text text-anchor="middle" x="948.65" y="-144.8" font-family="Times,serif" font-size="14.00">आभिमुख्यम्</text>
</g>
</g>
</svg>
