<?xml version="1.0" encoding="UTF-8" standalone="no"?>
<!DOCTYPE svg PUBLIC "-//W3C//DTD SVG 1.1//EN"
 "http://www.w3.org/Graphics/SVG/1.1/DTD/svg11.dtd">
<!-- Generated by graphviz version 2.43.0 (0)
 -->
<!-- Title: G Pages: 1 -->
<svg width="877pt" height="479pt"
 viewBox="0.00 0.00 876.94 479.00" xmlns="http://www.w3.org/2000/svg" xmlns:xlink="http://www.w3.org/1999/xlink">
<g id="graph0" class="graph" transform="scale(1 1) rotate(0) translate(4 475)">
<title>G</title>
<polygon fill="#fffacd" stroke="transparent" points="-4,4 -4,-475 872.94,-475 872.94,4 -4,4"/>
<g id="clust1" class="cluster">
<title>cluster_1</title>
<polygon fill="#fffacd" stroke="black" points="329.84,-166 329.84,-305 646.84,-305 646.84,-166 329.84,-166"/>
</g>
<g id="clust2" class="cluster">
<title>cluster_2</title>
<polygon fill="#fffacd" stroke="black" points="125.84,-166 125.84,-305 237.84,-305 237.84,-166 125.84,-166"/>
</g>
<!-- Node1_1 -->
<g id="node1" class="node">
<title>Node1_1</title>
<ellipse fill="#00bfff" stroke="#00bfff" cx="594.84" cy="-192" rx="43.59" ry="18"/>
<text text-anchor="middle" x="594.84" y="-188.3" font-family="Times,serif" font-size="14.00">अयं(1.1)</text>
</g>
<!-- Node4_1 -->
<g id="node2" class="node">
<title>Node4_1</title>
<ellipse fill="#00bfff" stroke="#00bfff" cx="420.84" cy="-279" rx="51.99" ry="18"/>
<text text-anchor="middle" x="420.84" y="-275.3" font-family="Times,serif" font-size="14.00">नृपतिः(4.1)</text>
</g>
<!-- Node1_1&#45;&gt;Node4_1 -->
<g id="edge1" class="edge">
<title>Node1_1&#45;&gt;Node4_1</title>
<path fill="none" stroke="black" d="M564.31,-213.15C548.93,-222.84 529.78,-234.23 511.84,-243 494.2,-251.62 473.87,-259.62 456.9,-265.78"/>
<polygon fill="black" stroke="black" points="566.35,-216 572.89,-207.67 562.58,-210.1 566.35,-216"/>
<text text-anchor="middle" x="559.34" y="-231.8" font-family="Times,serif" font-size="14.00">विशेषणम्</text>
</g>
<!-- Node11_1 -->
<g id="node8" class="node">
<title>Node11_1</title>
<ellipse fill="#ff1975" stroke="#ff1975" cx="284.84" cy="-366" rx="52.79" ry="18"/>
<text text-anchor="middle" x="284.84" y="-362.3" font-family="Times,serif" font-size="14.00">सहेद्(11.1)</text>
</g>
<!-- Node4_1&#45;&gt;Node11_1 -->
<g id="edge4" class="edge">
<title>Node4_1&#45;&gt;Node11_1</title>
<path fill="none" stroke="black" d="M388.28,-300.35C363.92,-315.58 331.14,-336.07 309.06,-349.86"/>
<polygon fill="black" stroke="black" points="390.22,-303.27 396.84,-295 386.51,-297.33 390.22,-303.27"/>
<text text-anchor="middle" x="371.84" y="-318.8" font-family="Times,serif" font-size="14.00">कर्ता</text>
</g>
<!-- Node3_1 -->
<g id="node3" class="node">
<title>Node3_1</title>
<ellipse fill="#00bfff" stroke="#00bfff" cx="381.84" cy="-192" rx="44.39" ry="18"/>
<text text-anchor="middle" x="381.84" y="-188.3" font-family="Times,serif" font-size="14.00">वृद्धः(3.1)</text>
</g>
<!-- Node3_1&#45;&gt;Node4_1 -->
<g id="edge3" class="edge">
<title>Node3_1&#45;&gt;Node4_1</title>
<path fill="none" stroke="black" d="M393.83,-219.13C400.08,-232.73 407.53,-248.98 413.02,-260.95"/>
<polygon fill="black" stroke="black" points="396.9,-217.42 389.55,-209.79 390.54,-220.34 396.9,-217.42"/>
<text text-anchor="middle" x="425.34" y="-231.8" font-family="Times,serif" font-size="14.00">विशेषणम्</text>
</g>
<!-- Node5_2 -->
<g id="node4" class="node">
<title>Node5_2</title>
<ellipse fill="#00bfff" stroke="#00bfff" cx="488.84" cy="-192" rx="44.69" ry="18"/>
<text text-anchor="middle" x="488.84" y="-188.3" font-family="Times,serif" font-size="14.00">पुत्रः(5.2)</text>
</g>
<!-- Node5_2&#45;&gt;Node4_1 -->
<g id="edge6" class="edge">
<title>Node5_2&#45;&gt;Node4_1</title>
<path fill="none" stroke="black" d="M471.29,-217.62C465.28,-225.81 458.4,-234.9 451.84,-243 446.84,-249.18 441.12,-255.76 435.97,-261.52"/>
<polygon fill="black" stroke="black" points="474.15,-219.63 477.2,-209.49 468.49,-215.52 474.15,-219.63"/>
<text text-anchor="middle" x="485.34" y="-231.8" font-family="Times,serif" font-size="14.00">विशेषणम्</text>
</g>
<!-- Node8_1 -->
<g id="node5" class="node">
<title>Node8_1</title>
<ellipse fill="#00bfff" stroke="#00bfff" cx="181.84" cy="-192" rx="40.89" ry="18"/>
<text text-anchor="middle" x="181.84" y="-188.3" font-family="Times,serif" font-size="14.00">इदं(8.1)</text>
</g>
<!-- Node9_1 -->
<g id="node6" class="node">
<title>Node9_1</title>
<ellipse fill="#93db70" stroke="#93db70" cx="181.84" cy="-279" rx="48.19" ry="18"/>
<text text-anchor="middle" x="181.84" y="-275.3" font-family="Times,serif" font-size="14.00">कृच्छ्रं(9.1)</text>
</g>
<!-- Node8_1&#45;&gt;Node9_1 -->
<g id="edge9" class="edge">
<title>Node8_1&#45;&gt;Node9_1</title>
<path fill="none" stroke="black" d="M181.84,-220.27C181.84,-233.58 181.84,-249.19 181.84,-260.82"/>
<polygon fill="black" stroke="black" points="185.34,-220.2 181.84,-210.2 178.34,-220.2 185.34,-220.2"/>
<text text-anchor="middle" x="204.34" y="-231.8" font-family="Times,serif" font-size="14.00">विशेषणम्</text>
</g>
<!-- Node9_1&#45;&gt;Node11_1 -->
<g id="edge10" class="edge">
<title>Node9_1&#45;&gt;Node11_1</title>
<path fill="none" stroke="black" d="M208.55,-302.04C226.47,-316.83 249.64,-335.95 265.72,-349.22"/>
<polygon fill="black" stroke="black" points="210.68,-299.26 200.74,-295.59 206.22,-304.65 210.68,-299.26"/>
<text text-anchor="middle" x="247.84" y="-318.8" font-family="Times,serif" font-size="14.00">कर्म</text>
</g>
<!-- Node2_1 -->
<g id="node7" class="node">
<title>Node2_1</title>
<ellipse fill="#ff99ff" stroke="#ff99ff" cx="381.84" cy="-105" rx="38.99" ry="18"/>
<text text-anchor="middle" x="381.84" y="-101.3" font-family="Times,serif" font-size="14.00">हि(2.1)</text>
</g>
<!-- Node2_1&#45;&gt;Node3_1 -->
<g id="edge2" class="edge">
<title>Node2_1&#45;&gt;Node3_1</title>
<path fill="none" stroke="black" d="M381.84,-133.27C381.84,-146.58 381.84,-162.19 381.84,-173.82"/>
<polygon fill="black" stroke="black" points="385.34,-133.2 381.84,-123.2 378.34,-133.2 385.34,-133.2"/>
<text text-anchor="middle" x="400.34" y="-144.8" font-family="Times,serif" font-size="14.00">सम्बन्धः</text>
</g>
<!-- Node5_1 -->
<g id="node9" class="node">
<title>Node5_1</title>
<ellipse fill="#ffff00" stroke="#ffff00" cx="488.84" cy="-105" rx="44.39" ry="18"/>
<text text-anchor="middle" x="488.84" y="-101.3" font-family="Times,serif" font-size="14.00">हत&#45;(5.1)</text>
</g>
<!-- Node5_1&#45;&gt;Node5_2 -->
<g id="edge5" class="edge">
<title>Node5_1&#45;&gt;Node5_2</title>
<path fill="none" stroke="black" d="M488.84,-133.27C488.84,-146.58 488.84,-162.19 488.84,-173.82"/>
<polygon fill="black" stroke="black" points="492.34,-133.2 488.84,-123.2 485.34,-133.2 492.34,-133.2"/>
<text text-anchor="middle" x="502.84" y="-144.8" font-family="Times,serif" font-size="14.00">Bs6</text>
</g>
<!-- Node6_1 -->
<g id="node10" class="node">
<title>Node6_1</title>
<ellipse fill="#ff99ff" stroke="#ff99ff" cx="488.84" cy="-18" rx="57.39" ry="18"/>
<text text-anchor="middle" x="488.84" y="-14.3" font-family="Times,serif" font-size="14.00">विशेषतः(6.1)</text>
</g>
<!-- Node6_1&#45;&gt;Node5_1 -->
<g id="edge7" class="edge">
<title>Node6_1&#45;&gt;Node5_1</title>
<path fill="none" stroke="black" d="M488.84,-46.27C488.84,-59.58 488.84,-75.19 488.84,-86.82"/>
<polygon fill="black" stroke="black" points="492.34,-46.2 488.84,-36.2 485.34,-46.2 492.34,-46.2"/>
<text text-anchor="middle" x="507.34" y="-57.8" font-family="Times,serif" font-size="14.00">सम्बन्धः</text>
</g>
<!-- Node7_1 -->
<g id="node11" class="node">
<title>Node7_1</title>
<ellipse fill="#ff99ff" stroke="#ff99ff" cx="284.84" cy="-279" rx="37.09" ry="18"/>
<text text-anchor="middle" x="284.84" y="-275.3" font-family="Times,serif" font-size="14.00">न(7.1)</text>
</g>
<!-- Node7_1&#45;&gt;Node11_1 -->
<g id="edge8" class="edge">
<title>Node7_1&#45;&gt;Node11_1</title>
<path fill="none" stroke="black" d="M284.84,-307.27C284.84,-320.58 284.84,-336.19 284.84,-347.82"/>
<polygon fill="black" stroke="black" points="288.34,-307.2 284.84,-297.2 281.34,-307.2 288.34,-307.2"/>
<text text-anchor="middle" x="304.34" y="-318.8" font-family="Times,serif" font-size="14.00">प्रतिषेधः</text>
</g>
<!-- Node10_1 -->
<g id="node12" class="node">
<title>Node10_1</title>
<ellipse fill="#93db70" stroke="#93db70" cx="57.84" cy="-279" rx="57.69" ry="18"/>
<text text-anchor="middle" x="57.84" y="-275.3" font-family="Times,serif" font-size="14.00">चिरतरं(10.1)</text>
</g>
<!-- Node10_1&#45;&gt;Node11_1 -->
<g id="edge11" class="edge">
<title>Node10_1&#45;&gt;Node11_1</title>
<path fill="none" stroke="black" d="M92.12,-300.44C109.81,-310.37 132,-321.87 152.84,-330 181.45,-341.15 214.89,-349.98 240.96,-355.98"/>
<polygon fill="black" stroke="black" points="93.73,-297.33 83.31,-295.42 90.27,-303.42 93.73,-297.33"/>
<text text-anchor="middle" x="187.84" y="-318.8" font-family="Times,serif" font-size="14.00">क्रियाविशेषणम्</text>
</g>
<!-- Node12_1 -->
<g id="node13" class="node">
<title>Node12_1</title>
<ellipse fill="#ff99ff" stroke="#ff99ff" cx="704.84" cy="-279" rx="50.09" ry="18"/>
<text text-anchor="middle" x="704.84" y="-275.3" font-family="Times,serif" font-size="14.00">इति(12.1)</text>
</g>
<!-- Node12_1&#45;&gt;Node11_1 -->
<g id="edge12" class="edge">
<title>Node12_1&#45;&gt;Node11_1</title>
<path fill="none" stroke="black" d="M668.46,-298.46C662.67,-300.92 656.67,-303.21 650.84,-305 541.28,-338.66 407.13,-354.52 335.56,-361.06"/>
<polygon fill="black" stroke="black" points="670.25,-301.49 677.94,-294.2 667.38,-295.1 670.25,-301.49"/>
<text text-anchor="middle" x="630.34" y="-318.8" font-family="Times,serif" font-size="14.00">सम्बन्धः</text>
</g>
<!-- Node13_1 -->
<g id="node14" class="node">
<title>Node13_1</title>
<ellipse fill="#00bfff" stroke="#00bfff" cx="776.84" cy="-366" rx="52.79" ry="18"/>
<text text-anchor="middle" x="776.84" y="-362.3" font-family="Times,serif" font-size="14.00">मतिः(13.1)</text>
</g>
<!-- Node12_1&#45;&gt;Node13_1 -->
<g id="edge13" class="edge">
<title>Node12_1&#45;&gt;Node13_1</title>
<path fill="none" stroke="black" stroke-dasharray="1,5" d="M725.39,-304.26C737.35,-318.37 752.12,-335.81 762.76,-348.37"/>
<polygon fill="black" stroke="black" points="727.86,-301.76 718.73,-296.39 722.52,-306.28 727.86,-301.76"/>
<text text-anchor="middle" x="763.34" y="-318.8" font-family="Times,serif" font-size="14.00">सम्बन्धः</text>
</g>
<!-- Node15_1 -->
<g id="node15" class="node">
<title>Node15_1</title>
<ellipse fill="#ff1975" stroke="#ff1975" cx="776.84" cy="-453" rx="62.29" ry="18"/>
<text text-anchor="middle" x="776.84" y="-449.3" font-family="Times,serif" font-size="14.00">(अस्ति)(15.1)</text>
</g>
<!-- Node13_1&#45;&gt;Node15_1 -->
<g id="edge14" class="edge">
<title>Node13_1&#45;&gt;Node15_1</title>
<path fill="none" stroke="black" d="M776.84,-394.27C776.84,-407.58 776.84,-423.19 776.84,-434.82"/>
<polygon fill="black" stroke="black" points="780.34,-394.2 776.84,-384.2 773.34,-394.2 780.34,-394.2"/>
<text text-anchor="middle" x="787.84" y="-405.8" font-family="Times,serif" font-size="14.00">कर्ता</text>
</g>
<!-- Node14_1 -->
<g id="node16" class="node">
<title>Node14_1</title>
<ellipse fill="#87ceeb" stroke="#87ceeb" cx="820.84" cy="-279" rx="48.19" ry="18"/>
<text text-anchor="middle" x="820.84" y="-275.3" font-family="Times,serif" font-size="14.00">मम(14.1)</text>
</g>
<!-- Node14_1&#45;&gt;Node13_1 -->
<g id="edge15" class="edge">
<title>Node14_1&#45;&gt;Node13_1</title>
<path fill="none" stroke="black" d="M807.49,-305.8C800.36,-319.58 791.78,-336.14 785.52,-348.24"/>
<polygon fill="black" stroke="black" points="810.66,-307.28 812.15,-296.79 804.45,-304.06 810.66,-307.28"/>
<text text-anchor="middle" x="828.34" y="-318.8" font-family="Times,serif" font-size="14.00">षष्ठीसम्बन्धः</text>
</g>
</g>
</svg>
