<?xml version="1.0" encoding="UTF-8" standalone="no"?>
<!DOCTYPE svg PUBLIC "-//W3C//DTD SVG 1.1//EN"
 "http://www.w3.org/Graphics/SVG/1.1/DTD/svg11.dtd">
<!-- Generated by graphviz version 2.43.0 (0)
 -->
<!-- Title: G Pages: 1 -->
<svg width="987pt" height="234pt"
 viewBox="0.00 0.00 986.60 234.00" xmlns="http://www.w3.org/2000/svg" xmlns:xlink="http://www.w3.org/1999/xlink">
<g id="graph0" class="graph" transform="scale(1 1) rotate(0) translate(4 230)">
<title>G</title>
<polygon fill="#fffacd" stroke="transparent" points="-4,4 -4,-230 982.6,-230 982.6,4 -4,4"/>
<g id="clust1" class="cluster">
<title>cluster_1</title>
<polygon fill="#fffacd" stroke="black" points="91.6,-8 91.6,-147 223.6,-147 223.6,-8 91.6,-8"/>
</g>
<g id="clust2" class="cluster">
<title>cluster_2</title>
<polygon fill="#fffacd" stroke="black" points="315.6,-8 315.6,-147 581.6,-147 581.6,-8 315.6,-8"/>
</g>
<!-- Node2_1 -->
<g id="node1" class="node">
<title>Node2_1</title>
<ellipse fill="#6fffc3" stroke="#6fffc3" cx="157.6" cy="-34" rx="57.69" ry="18"/>
<text text-anchor="middle" x="157.6" y="-30.3" font-family="Times,serif" font-size="14.00">महाबाहो(2.1)</text>
</g>
<!-- Node1_1 -->
<g id="node2" class="node">
<title>Node1_1</title>
<ellipse fill="#6fffc3" stroke="#6fffc3" cx="158.6" cy="-121" rx="55.79" ry="18"/>
<text text-anchor="middle" x="158.6" y="-117.3" font-family="Times,serif" font-size="14.00">युधिष्ठिर(1.1)</text>
</g>
<!-- Node2_1&#45;&gt;Node1_1 -->
<g id="edge2" class="edge">
<title>Node2_1&#45;&gt;Node1_1</title>
<path fill="none" stroke="black" d="M157.92,-62.27C158.07,-75.58 158.26,-91.19 158.39,-102.82"/>
<polygon fill="black" stroke="black" points="161.42,-62.16 157.8,-52.2 154.42,-62.24 161.42,-62.16"/>
<text text-anchor="middle" x="180.1" y="-73.8" font-family="Times,serif" font-size="14.00">विशेषणम्</text>
</g>
<!-- Node4_1 -->
<g id="node6" class="node">
<title>Node4_1</title>
<ellipse fill="#ff1975" stroke="#ff1975" cx="291.6" cy="-208" rx="44.69" ry="18"/>
<text text-anchor="middle" x="291.6" y="-204.3" font-family="Times,serif" font-size="14.00">आह(4.1)</text>
</g>
<!-- Node1_1&#45;&gt;Node4_1 -->
<g id="edge1" class="edge">
<title>Node1_1&#45;&gt;Node4_1</title>
<path fill="none" stroke="black" d="M191.12,-142.79C215.12,-158.13 247.19,-178.62 268.58,-192.29"/>
<polygon fill="black" stroke="black" points="192.99,-139.83 182.68,-137.39 189.22,-145.73 192.99,-139.83"/>
<text text-anchor="middle" x="253.6" y="-160.8" font-family="Times,serif" font-size="14.00">सम्बोध्यः</text>
</g>
<!-- Node5_1 -->
<g id="node3" class="node">
<title>Node5_1</title>
<ellipse fill="#00bfff" stroke="#00bfff" cx="511.6" cy="-34" rx="62.29" ry="18"/>
<text text-anchor="middle" x="511.6" y="-30.3" font-family="Times,serif" font-size="14.00">कुरुनन्दनः(5.1)</text>
</g>
<!-- Node6_1 -->
<g id="node4" class="node">
<title>Node6_1</title>
<ellipse fill="#00bfff" stroke="#00bfff" cx="381.6" cy="-121" rx="57.69" ry="18"/>
<text text-anchor="middle" x="381.6" y="-117.3" font-family="Times,serif" font-size="14.00">धृतराष्ट्रः(6.1)</text>
</g>
<!-- Node5_1&#45;&gt;Node6_1 -->
<g id="edge5" class="edge">
<title>Node5_1&#45;&gt;Node6_1</title>
<path fill="none" stroke="black" d="M478.79,-56.45C456.02,-71.34 426.19,-90.84 405.61,-104.3"/>
<polygon fill="black" stroke="black" points="480.99,-59.19 487.45,-50.79 477.16,-53.33 480.99,-59.19"/>
<text text-anchor="middle" x="476.1" y="-73.8" font-family="Times,serif" font-size="14.00">विशेषणम्</text>
</g>
<!-- Node6_1&#45;&gt;Node4_1 -->
<g id="edge6" class="edge">
<title>Node6_1&#45;&gt;Node4_1</title>
<path fill="none" stroke="black" d="M356.59,-145.61C341.19,-160.17 321.85,-178.43 308.29,-191.24"/>
<polygon fill="black" stroke="black" points="359.38,-147.8 364.24,-138.39 354.57,-142.71 359.38,-147.8"/>
<text text-anchor="middle" x="352.6" y="-160.8" font-family="Times,serif" font-size="14.00">कर्ता</text>
</g>
<!-- Node7_1 -->
<g id="node5" class="node">
<title>Node7_1</title>
<ellipse fill="#00bfff" stroke="#00bfff" cx="377.6" cy="-34" rx="53.89" ry="18"/>
<text text-anchor="middle" x="377.6" y="-30.3" font-family="Times,serif" font-size="14.00">महात्मा(7.1)</text>
</g>
<!-- Node7_1&#45;&gt;Node6_1 -->
<g id="edge7" class="edge">
<title>Node7_1&#45;&gt;Node6_1</title>
<path fill="none" stroke="black" d="M378.88,-62.27C379.51,-75.58 380.24,-91.19 380.79,-102.82"/>
<polygon fill="black" stroke="black" points="382.37,-62.03 378.41,-52.2 375.38,-62.35 382.37,-62.03"/>
<text text-anchor="middle" x="402.1" y="-73.8" font-family="Times,serif" font-size="14.00">विशेषणम्</text>
</g>
<!-- Node3_1 -->
<g id="node7" class="node">
<title>Node3_1</title>
<ellipse fill="#93db70" stroke="#93db70" cx="41.6" cy="-121" rx="41.69" ry="18"/>
<text text-anchor="middle" x="41.6" y="-117.3" font-family="Times,serif" font-size="14.00">यद्(3.1)</text>
</g>
<!-- Node3_1&#45;&gt;Node4_1 -->
<g id="edge3" class="edge">
<title>Node3_1&#45;&gt;Node4_1</title>
<path fill="none" stroke="black" d="M73.99,-140.7C78.49,-142.97 83.11,-145.14 87.6,-147 143.72,-170.2 211.95,-188.36 253.55,-198.37"/>
<polygon fill="black" stroke="black" points="75.48,-137.53 65,-135.96 72.21,-143.72 75.48,-137.53"/>
<text text-anchor="middle" x="161.6" y="-160.8" font-family="Times,serif" font-size="14.00">कर्म</text>
</g>
<!-- Node9_1 -->
<g id="node8" class="node">
<title>Node9_1</title>
<ellipse fill="#93db70" stroke="#93db70" cx="733.6" cy="-121" rx="42.49" ry="18"/>
<text text-anchor="middle" x="733.6" y="-117.3" font-family="Times,serif" font-size="14.00">तत्(9.1)</text>
</g>
<!-- Node3_1&#45;&gt;Node9_1 -->
<g id="edge4" class="edge">
<title>Node3_1&#45;&gt;Node9_1</title>
<path fill="none" stroke="red" stroke-dasharray="5,2" d="M81.08,-105.02C83.27,-104.3 85.46,-103.62 87.6,-103 150.21,-84.82 166.7,-81.25 231.6,-75 367.98,-61.86 562.77,-77.85 682.6,-103 686.01,-103.72 689.5,-104.6 692.98,-105.6"/>
<polygon fill="red" stroke="red" points="79.78,-101.77 71.51,-108.39 82.11,-108.37 79.78,-101.77"/>
<polygon fill="red" stroke="red" points="692.09,-108.99 702.68,-108.62 694.18,-102.3 692.09,-108.99"/>
<text text-anchor="middle" x="269.6" y="-73.8" font-family="Times,serif" font-size="14.00">नित्य_सम्बन्धः1</text>
</g>
<!-- Node10_1 -->
<g id="node10" class="node">
<title>Node10_1</title>
<ellipse fill="#ff1975" stroke="#ff1975" cx="795.6" cy="-208" rx="56.59" ry="18"/>
<text text-anchor="middle" x="795.6" y="-204.3" font-family="Times,serif" font-size="14.00">कुरुष्व(10.1)</text>
</g>
<!-- Node9_1&#45;&gt;Node10_1 -->
<g id="edge9" class="edge">
<title>Node9_1&#45;&gt;Node10_1</title>
<path fill="none" stroke="black" d="M751.58,-146.65C761.82,-160.7 774.39,-177.92 783.47,-190.37"/>
<polygon fill="black" stroke="black" points="754.27,-144.41 745.55,-138.39 748.62,-148.53 754.27,-144.41"/>
<text text-anchor="middle" x="776.6" y="-160.8" font-family="Times,serif" font-size="14.00">कर्म</text>
</g>
<!-- Node8_1 -->
<g id="node9" class="node">
<title>Node8_1</title>
<ellipse fill="#93db70" stroke="#93db70" cx="631.6" cy="-121" rx="42.49" ry="18"/>
<text text-anchor="middle" x="631.6" y="-117.3" font-family="Times,serif" font-size="14.00">त्वां(8.1)</text>
</g>
<!-- Node8_1&#45;&gt;Node4_1 -->
<g id="edge8" class="edge">
<title>Node8_1&#45;&gt;Node4_1</title>
<path fill="none" stroke="black" d="M599.34,-141.06C594.82,-143.28 590.16,-145.34 585.6,-147 499.46,-178.4 392.8,-194.99 334.55,-202.28"/>
<polygon fill="black" stroke="black" points="601.1,-144.09 608.35,-136.37 597.86,-137.89 601.1,-144.09"/>
<text text-anchor="middle" x="563.6" y="-160.8" font-family="Times,serif" font-size="14.00">कर्म</text>
</g>
<!-- Node0 -->
<g id="node11" class="node">
<title>Node0</title>
<ellipse fill="lightgrey" stroke="black" cx="951.6" cy="-34" rx="27" ry="18"/>
</g>
<!-- Node11_1 -->
<g id="node12" class="node">
<title>Node11_1</title>
<ellipse fill="#ff1975" stroke="#ff1975" cx="859.6" cy="-34" rx="47.39" ry="18"/>
<text text-anchor="middle" x="859.6" y="-30.3" font-family="Times,serif" font-size="14.00">अ&#45;(11.1)</text>
</g>
<!-- Node11_2 -->
<g id="node13" class="node">
<title>Node11_2</title>
<ellipse fill="#00bfff" stroke="#00bfff" cx="859.6" cy="-121" rx="65.79" ry="18"/>
<text text-anchor="middle" x="859.6" y="-117.3" font-family="Times,serif" font-size="14.00">विचारयन्(11.2)</text>
</g>
<!-- Node11_1&#45;&gt;Node11_2 -->
<g id="edge10" class="edge">
<title>Node11_1&#45;&gt;Node11_2</title>
<path fill="none" stroke="black" d="M859.6,-62.27C859.6,-75.58 859.6,-91.19 859.6,-102.82"/>
<polygon fill="black" stroke="black" points="863.1,-62.2 859.6,-52.2 856.1,-62.2 863.1,-62.2"/>
<text text-anchor="middle" x="869.1" y="-73.8" font-family="Times,serif" font-size="14.00">Tn</text>
</g>
<!-- Node11_2&#45;&gt;Node10_1 -->
<g id="edge11" class="edge">
<title>Node11_2&#45;&gt;Node10_1</title>
<path fill="none" stroke="black" d="M840.77,-147.01C830.28,-160.94 817.5,-177.91 808.21,-190.24"/>
<polygon fill="black" stroke="black" points="843.73,-148.89 846.95,-138.79 838.14,-144.68 843.73,-148.89"/>
<text text-anchor="middle" x="858.1" y="-160.8" font-family="Times,serif" font-size="14.00">समानकालः</text>
</g>
</g>
</svg>
