<?xml version="1.0" encoding="UTF-8" standalone="no"?>
<!DOCTYPE svg PUBLIC "-//W3C//DTD SVG 1.1//EN"
 "http://www.w3.org/Graphics/SVG/1.1/DTD/svg11.dtd">
<!-- Generated by graphviz version 2.43.0 (0)
 -->
<!-- Title: G Pages: 1 -->
<svg width="809pt" height="495pt"
 viewBox="0.00 0.00 809.19 495.00" xmlns="http://www.w3.org/2000/svg" xmlns:xlink="http://www.w3.org/1999/xlink">
<g id="graph0" class="graph" transform="scale(1 1) rotate(0) translate(4 491)">
<title>G</title>
<polygon fill="#fffacd" stroke="transparent" points="-4,4 -4,-491 805.19,-491 805.19,4 -4,4"/>
<g id="clust1" class="cluster">
<title>cluster_1</title>
<polygon fill="#fffacd" stroke="black" points="290,-182 290,-408 442,-408 442,-182 290,-182"/>
</g>
<g id="clust2" class="cluster">
<title>cluster_2</title>
<polygon fill="#fffacd" stroke="black" points="310,-8 310,-147 420,-147 420,-8 310,-8"/>
</g>
<g id="clust3" class="cluster">
<title>cluster_3</title>
<polygon fill="#fffacd" stroke="black" points="8,-269 8,-408 164,-408 164,-269 8,-269"/>
</g>
<!-- Node2_1 -->
<g id="node1" class="node">
<title>Node2_1</title>
<ellipse fill="#00bfff" stroke="#00bfff" cx="357" cy="-295" rx="48.19" ry="18"/>
<text text-anchor="middle" x="357" y="-291.3" font-family="Times,serif" font-size="14.00">अयम्(2.1)</text>
</g>
<!-- Node1_1 -->
<g id="node2" class="node">
<title>Node1_1</title>
<ellipse fill="#00bfff" stroke="#00bfff" cx="347" cy="-382" rx="40.09" ry="18"/>
<text text-anchor="middle" x="347" y="-378.3" font-family="Times,serif" font-size="14.00">सः(1.1)</text>
</g>
<!-- Node2_1&#45;&gt;Node1_1 -->
<g id="edge2" class="edge">
<title>Node2_1&#45;&gt;Node1_1</title>
<path fill="none" stroke="black" d="M353.79,-323.27C352.23,-336.58 350.39,-352.19 349.02,-363.82"/>
<polygon fill="black" stroke="black" points="357.28,-323.54 354.98,-313.2 350.33,-322.72 357.28,-323.54"/>
<text text-anchor="middle" x="374.5" y="-334.8" font-family="Times,serif" font-size="14.00">विशेषणम्</text>
</g>
<!-- Node8_1 -->
<g id="node8" class="node">
<title>Node8_1</title>
<ellipse fill="#ff1975" stroke="#ff1975" cx="227" cy="-469" rx="49.29" ry="18"/>
<text text-anchor="middle" x="227" y="-465.3" font-family="Times,serif" font-size="14.00">करोतु(8.1)</text>
</g>
<!-- Node1_1&#45;&gt;Node8_1 -->
<g id="edge1" class="edge">
<title>Node1_1&#45;&gt;Node8_1</title>
<path fill="none" stroke="black" d="M317.99,-403.55C296.59,-418.7 267.96,-438.99 248.57,-452.72"/>
<polygon fill="black" stroke="black" points="320.23,-406.25 326.37,-397.61 316.19,-400.54 320.23,-406.25"/>
<text text-anchor="middle" x="305" y="-421.8" font-family="Times,serif" font-size="14.00">कर्ता</text>
</g>
<!-- Node4_1 -->
<g id="node3" class="node">
<title>Node4_1</title>
<ellipse fill="#00bfff" stroke="#00bfff" cx="366" cy="-208" rx="67.69" ry="18"/>
<text text-anchor="middle" x="366" y="-204.3" font-family="Times,serif" font-size="14.00">अभ्यनुज्ञातः(4.1)</text>
</g>
<!-- Node4_1&#45;&gt;Node2_1 -->
<g id="edge4" class="edge">
<title>Node4_1&#45;&gt;Node2_1</title>
<path fill="none" stroke="black" d="M363.11,-236.27C361.7,-249.58 360.05,-265.19 358.82,-276.82"/>
<polygon fill="black" stroke="black" points="366.61,-236.51 364.18,-226.2 359.65,-235.78 366.61,-236.51"/>
<text text-anchor="middle" x="384.5" y="-247.8" font-family="Times,serif" font-size="14.00">विशेषणम्</text>
</g>
<!-- Node5_1 -->
<g id="node4" class="node">
<title>Node5_1</title>
<ellipse fill="#40e0d0" stroke="#40e0d0" cx="365" cy="-34" rx="46.59" ry="18"/>
<text text-anchor="middle" x="365" y="-30.3" font-family="Times,serif" font-size="14.00">त्वया(5.1)</text>
</g>
<!-- Node3_1 -->
<g id="node5" class="node">
<title>Node3_1</title>
<ellipse fill="#40e0d0" stroke="#40e0d0" cx="366" cy="-121" rx="44.39" ry="18"/>
<text text-anchor="middle" x="366" y="-117.3" font-family="Times,serif" font-size="14.00">मया(3.1)</text>
</g>
<!-- Node5_1&#45;&gt;Node3_1 -->
<g id="edge5" class="edge">
<title>Node5_1&#45;&gt;Node3_1</title>
<path fill="none" stroke="black" d="M365.32,-62.27C365.48,-75.58 365.66,-91.19 365.8,-102.82"/>
<polygon fill="black" stroke="black" points="368.82,-62.16 365.2,-52.2 361.82,-62.24 368.82,-62.16"/>
<text text-anchor="middle" x="387.5" y="-73.8" font-family="Times,serif" font-size="14.00">समुच्चितः</text>
</g>
<!-- Node3_1&#45;&gt;Node4_1 -->
<g id="edge3" class="edge">
<title>Node3_1&#45;&gt;Node4_1</title>
<path fill="none" stroke="black" d="M366,-149.27C366,-162.58 366,-178.19 366,-189.82"/>
<polygon fill="black" stroke="black" points="369.5,-149.2 366,-139.2 362.5,-149.2 369.5,-149.2"/>
<text text-anchor="middle" x="377" y="-160.8" font-family="Times,serif" font-size="14.00">कर्ता</text>
</g>
<!-- Node9_1 -->
<g id="node6" class="node">
<title>Node9_1</title>
<ellipse fill="#93db70" stroke="#93db70" cx="86" cy="-295" rx="45.49" ry="18"/>
<text text-anchor="middle" x="86" y="-291.3" font-family="Times,serif" font-size="14.00">स्वम्(9.1)</text>
</g>
<!-- Node10_1 -->
<g id="node7" class="node">
<title>Node10_1</title>
<ellipse fill="#93db70" stroke="#93db70" cx="86" cy="-382" rx="69.59" ry="18"/>
<text text-anchor="middle" x="86" y="-378.3" font-family="Times,serif" font-size="14.00">अभिप्रायम्(10.1)</text>
</g>
<!-- Node9_1&#45;&gt;Node10_1 -->
<g id="edge9" class="edge">
<title>Node9_1&#45;&gt;Node10_1</title>
<path fill="none" stroke="black" d="M86,-323.27C86,-336.58 86,-352.19 86,-363.82"/>
<polygon fill="black" stroke="black" points="89.5,-323.2 86,-313.2 82.5,-323.2 89.5,-323.2"/>
<text text-anchor="middle" x="108.5" y="-334.8" font-family="Times,serif" font-size="14.00">विशेषणम्</text>
</g>
<!-- Node10_1&#45;&gt;Node8_1 -->
<g id="edge10" class="edge">
<title>Node10_1&#45;&gt;Node8_1</title>
<path fill="none" stroke="black" d="M120.77,-403.96C146.09,-419.23 179.78,-439.53 202.37,-453.15"/>
<polygon fill="black" stroke="black" points="122.56,-400.95 112.19,-398.79 118.95,-406.95 122.56,-400.95"/>
<text text-anchor="middle" x="174" y="-421.8" font-family="Times,serif" font-size="14.00">कर्म</text>
</g>
<!-- Node6_1 -->
<g id="node9" class="node">
<title>Node6_1</title>
<ellipse fill="#ff99ff" stroke="#ff99ff" cx="467" cy="-34" rx="37.89" ry="18"/>
<text text-anchor="middle" x="467" y="-30.3" font-family="Times,serif" font-size="14.00">च(6.1)</text>
</g>
<!-- Node6_1&#45;&gt;Node3_1 -->
<g id="edge6" class="edge">
<title>Node6_1&#45;&gt;Node3_1</title>
<path fill="none" stroke="black" d="M444.02,-57.89C434.91,-66.64 424.19,-76.54 414,-85 405.59,-91.99 395.92,-99.19 387.47,-105.23"/>
<polygon fill="black" stroke="black" points="446.51,-60.34 451.25,-50.86 441.63,-55.32 446.51,-60.34"/>
<text text-anchor="middle" x="468" y="-73.8" font-family="Times,serif" font-size="14.00">समुच्चय_द्योतकः</text>
</g>
<!-- Node7_1 -->
<g id="node10" class="node">
<title>Node7_1</title>
<ellipse fill="#ffff00" stroke="#ffff00" cx="227" cy="-295" rx="54.69" ry="18"/>
<text text-anchor="middle" x="227" y="-291.3" font-family="Times,serif" font-size="14.00">पृथिवी&#45;(7.1)</text>
</g>
<!-- Node7_2 -->
<g id="node11" class="node">
<title>Node7_2</title>
<ellipse fill="#6fffc3" stroke="#6fffc3" cx="227" cy="-382" rx="42.49" ry="18"/>
<text text-anchor="middle" x="227" y="-378.3" font-family="Times,serif" font-size="14.00">पते(7.2)</text>
</g>
<!-- Node7_1&#45;&gt;Node7_2 -->
<g id="edge7" class="edge">
<title>Node7_1&#45;&gt;Node7_2</title>
<path fill="none" stroke="black" d="M227,-323.27C227,-336.58 227,-352.19 227,-363.82"/>
<polygon fill="black" stroke="black" points="230.5,-323.2 227,-313.2 223.5,-323.2 230.5,-323.2"/>
<text text-anchor="middle" x="236.5" y="-334.8" font-family="Times,serif" font-size="14.00">T6</text>
</g>
<!-- Node7_2&#45;&gt;Node8_1 -->
<g id="edge8" class="edge">
<title>Node7_2&#45;&gt;Node8_1</title>
<path fill="none" stroke="black" d="M227,-410.27C227,-423.58 227,-439.19 227,-450.82"/>
<polygon fill="black" stroke="black" points="230.5,-410.2 227,-400.2 223.5,-410.2 230.5,-410.2"/>
<text text-anchor="middle" x="248" y="-421.8" font-family="Times,serif" font-size="14.00">सम्बोध्यः</text>
</g>
<!-- Node11_1 -->
<g id="node12" class="node">
<title>Node11_1</title>
<ellipse fill="#ff99ff" stroke="#ff99ff" cx="474" cy="-121" rx="45.49" ry="18"/>
<text text-anchor="middle" x="474" y="-117.3" font-family="Times,serif" font-size="14.00">मा(11.1)</text>
</g>
<!-- Node14_1 -->
<g id="node13" class="node">
<title>Node14_1</title>
<ellipse fill="#ff1975" stroke="#ff1975" cx="603" cy="-208" rx="48.19" ry="18"/>
<text text-anchor="middle" x="603" y="-204.3" font-family="Times,serif" font-size="14.00">भव(14.1)</text>
</g>
<!-- Node11_1&#45;&gt;Node14_1 -->
<g id="edge11" class="edge">
<title>Node11_1&#45;&gt;Node14_1</title>
<path fill="none" stroke="black" d="M504.94,-142.39C528.16,-157.69 559.43,-178.29 580.35,-192.08"/>
<polygon fill="black" stroke="black" points="506.75,-139.39 496.47,-136.81 502.89,-145.23 506.75,-139.39"/>
<text text-anchor="middle" x="565.5" y="-160.8" font-family="Times,serif" font-size="14.00">प्रतिषेधः</text>
</g>
<!-- Node12_1 -->
<g id="node14" class="node">
<title>Node12_1</title>
<ellipse fill="#87ceeb" stroke="#87ceeb" cx="603" cy="-34" rx="53.09" ry="18"/>
<text text-anchor="middle" x="603" y="-30.3" font-family="Times,serif" font-size="14.00">अस्य(12.1)</text>
</g>
<!-- Node13_1 -->
<g id="node15" class="node">
<title>Node13_1</title>
<ellipse fill="#00bfff" stroke="#00bfff" cx="603" cy="-121" rx="65.79" ry="18"/>
<text text-anchor="middle" x="603" y="-117.3" font-family="Times,serif" font-size="14.00">विघ्नकरः(13.1)</text>
</g>
<!-- Node12_1&#45;&gt;Node13_1 -->
<g id="edge12" class="edge">
<title>Node12_1&#45;&gt;Node13_1</title>
<path fill="none" stroke="black" d="M603,-62.27C603,-75.58 603,-91.19 603,-102.82"/>
<polygon fill="black" stroke="black" points="606.5,-62.2 603,-52.2 599.5,-62.2 606.5,-62.2"/>
<text text-anchor="middle" x="630.5" y="-73.8" font-family="Times,serif" font-size="14.00">षष्ठीसम्बन्धः</text>
</g>
<!-- Node13_1&#45;&gt;Node14_1 -->
<g id="edge13" class="edge">
<title>Node13_1&#45;&gt;Node14_1</title>
<path fill="none" stroke="black" d="M603,-149.27C603,-162.58 603,-178.19 603,-189.82"/>
<polygon fill="black" stroke="black" points="606.5,-149.2 603,-139.2 599.5,-149.2 606.5,-149.2"/>
<text text-anchor="middle" x="642" y="-160.8" font-family="Times,serif" font-size="14.00">विधेय_विशेषणम्</text>
</g>
<!-- Node15_1 -->
<g id="node16" class="node">
<title>Node15_1</title>
<ellipse fill="#00bfff" stroke="#00bfff" cx="744" cy="-121" rx="57.39" ry="18"/>
<text text-anchor="middle" x="744" y="-117.3" font-family="Times,serif" font-size="14.00">(त्वम्)(15.1)</text>
</g>
<!-- Node15_1&#45;&gt;Node14_1 -->
<g id="edge14" class="edge">
<title>Node15_1&#45;&gt;Node14_1</title>
<path fill="none" stroke="black" d="M719.82,-145.35C709.61,-154.42 697.26,-164.43 685,-172 669.99,-181.27 652.08,-189.23 636.84,-195.2"/>
<polygon fill="black" stroke="black" points="722.47,-147.66 727.5,-138.33 717.76,-142.49 722.47,-147.66"/>
<text text-anchor="middle" x="716" y="-160.8" font-family="Times,serif" font-size="14.00">कर्ता</text>
</g>
</g>
</svg>
