<?xml version="1.0" encoding="UTF-8" standalone="no"?>
<!DOCTYPE svg PUBLIC "-//W3C//DTD SVG 1.1//EN"
 "http://www.w3.org/Graphics/SVG/1.1/DTD/svg11.dtd">
<!-- Generated by graphviz version 2.43.0 (0)
 -->
<!-- Title: G Pages: 1 -->
<svg width="1007pt" height="321pt"
 viewBox="0.00 0.00 1006.90 321.00" xmlns="http://www.w3.org/2000/svg" xmlns:xlink="http://www.w3.org/1999/xlink">
<g id="graph0" class="graph" transform="scale(1 1) rotate(0) translate(4 317)">
<title>G</title>
<polygon fill="#fffacd" stroke="transparent" points="-4,4 -4,-317 1002.9,-317 1002.9,4 -4,4"/>
<g id="clust1" class="cluster">
<title>cluster_1</title>
<polygon fill="#fffacd" stroke="black" points="8,-8 8,-147 222,-147 222,-8 8,-8"/>
</g>
<!-- Node7_1 -->
<g id="node1" class="node">
<title>Node7_1</title>
<ellipse fill="#00bfff" stroke="#00bfff" cx="168" cy="-34" rx="46.29" ry="18"/>
<text text-anchor="middle" x="168" y="-30.3" font-family="Times,serif" font-size="14.00">राजा(7.1)</text>
</g>
<!-- Node6_1 -->
<g id="node2" class="node">
<title>Node6_1</title>
<ellipse fill="#00bfff" stroke="#00bfff" cx="167" cy="-121" rx="46.59" ry="18"/>
<text text-anchor="middle" x="167" y="-117.3" font-family="Times,serif" font-size="14.00">पिता(6.1)</text>
</g>
<!-- Node7_1&#45;&gt;Node6_1 -->
<g id="edge6" class="edge">
<title>Node7_1&#45;&gt;Node6_1</title>
<path fill="none" stroke="black" d="M167.68,-62.27C167.52,-75.58 167.34,-91.19 167.2,-102.82"/>
<polygon fill="black" stroke="black" points="171.18,-62.24 167.8,-52.2 164.18,-62.16 171.18,-62.24"/>
<text text-anchor="middle" x="190.5" y="-73.8" font-family="Times,serif" font-size="14.00">समुच्चितः</text>
</g>
<!-- Node5_1 -->
<g id="node8" class="node">
<title>Node5_1</title>
<ellipse fill="#00bfff" stroke="#00bfff" cx="167" cy="-208" rx="54.69" ry="18"/>
<text text-anchor="middle" x="167" y="-204.3" font-family="Times,serif" font-size="14.00">भगवान्(5.1)</text>
</g>
<!-- Node6_1&#45;&gt;Node5_1 -->
<g id="edge5" class="edge">
<title>Node6_1&#45;&gt;Node5_1</title>
<path fill="none" stroke="black" d="M167,-149.27C167,-162.58 167,-178.19 167,-189.82"/>
<polygon fill="black" stroke="black" points="170.5,-149.2 167,-139.2 163.5,-149.2 170.5,-149.2"/>
<text text-anchor="middle" x="206" y="-160.8" font-family="Times,serif" font-size="14.00">विधेय_विशेषणम्</text>
</g>
<!-- Node8_1 -->
<g id="node3" class="node">
<title>Node8_1</title>
<ellipse fill="#00bfff" stroke="#00bfff" cx="60" cy="-34" rx="44.39" ry="18"/>
<text text-anchor="middle" x="60" y="-30.3" font-family="Times,serif" font-size="14.00">गुरुः(8.1)</text>
</g>
<!-- Node8_1&#45;&gt;Node6_1 -->
<g id="edge7" class="edge">
<title>Node8_1&#45;&gt;Node6_1</title>
<path fill="none" stroke="black" d="M85.59,-57.39C95.84,-66.17 107.84,-76.22 119,-85 127.43,-91.63 136.93,-98.65 145.25,-104.65"/>
<polygon fill="black" stroke="black" points="87.65,-54.54 77.79,-50.66 83.08,-59.85 87.65,-54.54"/>
<text text-anchor="middle" x="141.5" y="-73.8" font-family="Times,serif" font-size="14.00">समुच्चितः</text>
</g>
<!-- Node1_1 -->
<g id="node4" class="node">
<title>Node1_1</title>
<ellipse fill="#00bfff" stroke="#00bfff" cx="517" cy="-121" rx="48.19" ry="18"/>
<text text-anchor="middle" x="517" y="-117.3" font-family="Times,serif" font-size="14.00">अहम्(1.1)</text>
</g>
<!-- Node4_1 -->
<g id="node5" class="node">
<title>Node4_1</title>
<ellipse fill="#ff1975" stroke="#ff1975" cx="517" cy="-208" rx="56.59" ry="18"/>
<text text-anchor="middle" x="517" y="-204.3" font-family="Times,serif" font-size="14.00">(अस्मि)(4.1)</text>
</g>
<!-- Node1_1&#45;&gt;Node4_1 -->
<g id="edge1" class="edge">
<title>Node1_1&#45;&gt;Node4_1</title>
<path fill="none" stroke="black" d="M517,-149.27C517,-162.58 517,-178.19 517,-189.82"/>
<polygon fill="black" stroke="black" points="520.5,-149.2 517,-139.2 513.5,-149.2 520.5,-149.2"/>
<text text-anchor="middle" x="528" y="-160.8" font-family="Times,serif" font-size="14.00">कर्ता</text>
</g>
<!-- Node2_1 -->
<g id="node6" class="node">
<title>Node2_1</title>
<ellipse fill="#ff99ff" stroke="#ff99ff" cx="467" cy="-34" rx="37.09" ry="18"/>
<text text-anchor="middle" x="467" y="-30.3" font-family="Times,serif" font-size="14.00">तु(2.1)</text>
</g>
<!-- Node2_1&#45;&gt;Node1_1 -->
<g id="edge2" class="edge">
<title>Node2_1&#45;&gt;Node1_1</title>
<path fill="none" stroke="black" d="M481.74,-60.05C489.96,-74.02 499.97,-91.04 507.22,-103.37"/>
<polygon fill="black" stroke="black" points="484.73,-58.23 476.64,-51.39 478.69,-61.78 484.73,-58.23"/>
<text text-anchor="middle" x="513.5" y="-73.8" font-family="Times,serif" font-size="14.00">सम्बन्धः</text>
</g>
<!-- Node3_1 -->
<g id="node7" class="node">
<title>Node3_1</title>
<ellipse fill="#00bfff" stroke="#00bfff" cx="567" cy="-34" rx="44.69" ry="18"/>
<text text-anchor="middle" x="567" y="-30.3" font-family="Times,serif" font-size="14.00">पुत्रः(3.1)</text>
</g>
<!-- Node3_1&#45;&gt;Node1_1 -->
<g id="edge3" class="edge">
<title>Node3_1&#45;&gt;Node1_1</title>
<path fill="none" stroke="black" d="M551.82,-60.8C543.72,-74.58 533.97,-91.14 526.86,-103.24"/>
<polygon fill="black" stroke="black" points="555.07,-62.19 557.12,-51.79 549.03,-58.64 555.07,-62.19"/>
<text text-anchor="middle" x="583" y="-73.8" font-family="Times,serif" font-size="14.00">विधेय_विशेषणम्</text>
</g>
<!-- Node11_1 -->
<g id="node9" class="node">
<title>Node11_1</title>
<ellipse fill="#ff1975" stroke="#ff1975" cx="167" cy="-295" rx="62.29" ry="18"/>
<text text-anchor="middle" x="167" y="-291.3" font-family="Times,serif" font-size="14.00">(अस्ति)(11.1)</text>
</g>
<!-- Node5_1&#45;&gt;Node11_1 -->
<g id="edge4" class="edge">
<title>Node5_1&#45;&gt;Node11_1</title>
<path fill="none" stroke="black" d="M167,-236.27C167,-249.58 167,-265.19 167,-276.82"/>
<polygon fill="black" stroke="black" points="170.5,-236.2 167,-226.2 163.5,-236.2 170.5,-236.2"/>
<text text-anchor="middle" x="178" y="-247.8" font-family="Times,serif" font-size="14.00">कर्ता</text>
</g>
<!-- Node9_1 -->
<g id="node10" class="node">
<title>Node9_1</title>
<ellipse fill="#ff99ff" stroke="#ff99ff" cx="270" cy="-34" rx="37.89" ry="18"/>
<text text-anchor="middle" x="270" y="-30.3" font-family="Times,serif" font-size="14.00">च(9.1)</text>
</g>
<!-- Node9_1&#45;&gt;Node6_1 -->
<g id="edge8" class="edge">
<title>Node9_1&#45;&gt;Node6_1</title>
<path fill="none" stroke="black" d="M247.51,-57.6C238.32,-66.46 227.42,-76.51 217,-85 208.46,-91.96 198.6,-99.04 189.91,-105"/>
<polygon fill="black" stroke="black" points="250.07,-59.99 254.77,-50.5 245.18,-54.98 250.07,-59.99"/>
<text text-anchor="middle" x="272" y="-73.8" font-family="Times,serif" font-size="14.00">समुच्चय_द्योतकः</text>
</g>
<!-- Node10_1 -->
<g id="node11" class="node">
<title>Node10_1</title>
<ellipse fill="#87ceeb" stroke="#87ceeb" cx="369" cy="-34" rx="42.79" ry="18"/>
<text text-anchor="middle" x="369" y="-30.3" font-family="Times,serif" font-size="14.00">मे(10.1)</text>
</g>
<!-- Node10_1&#45;&gt;Node6_1 -->
<g id="edge9" class="edge">
<title>Node10_1&#45;&gt;Node6_1</title>
<path fill="none" stroke="black" d="M348.11,-58.65C338.57,-68.12 326.61,-78.34 314,-85 281.99,-101.9 241.77,-110.75 211.5,-115.32"/>
<polygon fill="black" stroke="black" points="350.78,-60.93 355.2,-51.3 345.74,-56.07 350.78,-60.93"/>
<text text-anchor="middle" x="363.5" y="-73.8" font-family="Times,serif" font-size="14.00">षष्ठीसम्बन्धः</text>
</g>
<!-- Node12_1 -->
<g id="node12" class="node">
<title>Node12_1</title>
<ellipse fill="#ffff00" stroke="#ffff00" cx="688" cy="-34" rx="58.49" ry="18"/>
<text text-anchor="middle" x="688" y="-30.3" font-family="Times,serif" font-size="14.00">निदेश&#45;(12.1)</text>
</g>
<!-- Node12_2 -->
<g id="node13" class="node">
<title>Node12_2</title>
<ellipse fill="#00bfff" stroke="#00bfff" cx="748" cy="-121" rx="50.09" ry="18"/>
<text text-anchor="middle" x="748" y="-117.3" font-family="Times,serif" font-size="14.00">वर्ती(12.2)</text>
</g>
<!-- Node12_1&#45;&gt;Node12_2 -->
<g id="edge10" class="edge">
<title>Node12_1&#45;&gt;Node12_2</title>
<path fill="none" stroke="black" d="M705.65,-60.01C715.49,-73.94 727.47,-90.91 736.17,-103.24"/>
<polygon fill="black" stroke="black" points="708.48,-57.94 699.85,-51.79 702.76,-61.98 708.48,-57.94"/>
<text text-anchor="middle" x="727.5" y="-73.8" font-family="Times,serif" font-size="14.00">U</text>
</g>
<!-- Node15_1 -->
<g id="node14" class="node">
<title>Node15_1</title>
<ellipse fill="#00bfff" stroke="#00bfff" cx="818" cy="-208" rx="50.89" ry="18"/>
<text text-anchor="middle" x="818" y="-204.3" font-family="Times,serif" font-size="14.00">पुत्रः(15.1)</text>
</g>
<!-- Node12_2&#45;&gt;Node15_1 -->
<g id="edge11" class="edge">
<title>Node12_2&#45;&gt;Node15_1</title>
<path fill="none" stroke="black" d="M749.24,-149.16C750.66,-157.09 753.28,-165.39 758,-172 764.73,-181.42 774.85,-188.7 784.87,-194.12"/>
<polygon fill="black" stroke="black" points="752.7,-148.62 747.99,-139.13 745.75,-149.49 752.7,-148.62"/>
<text text-anchor="middle" x="797" y="-160.8" font-family="Times,serif" font-size="14.00">विधेय_विशेषणम्</text>
</g>
<!-- Node16_1 -->
<g id="node17" class="node">
<title>Node16_1</title>
<ellipse fill="#ff1975" stroke="#ff1975" cx="901" cy="-295" rx="55.79" ry="18"/>
<text text-anchor="middle" x="901" y="-291.3" font-family="Times,serif" font-size="14.00">भवति(16.1)</text>
</g>
<!-- Node15_1&#45;&gt;Node16_1 -->
<g id="edge14" class="edge">
<title>Node15_1&#45;&gt;Node16_1</title>
<path fill="none" stroke="black" d="M841.35,-232.91C855.3,-247.2 872.66,-264.98 885.05,-277.66"/>
<polygon fill="black" stroke="black" points="843.49,-230.1 834,-225.39 838.49,-234.99 843.49,-230.1"/>
<text text-anchor="middle" x="875" y="-247.8" font-family="Times,serif" font-size="14.00">कर्ता</text>
</g>
<!-- Node13_1 -->
<g id="node15" class="node">
<title>Node13_1</title>
<ellipse fill="#ff99ff" stroke="#ff99ff" cx="808" cy="-34" rx="43.59" ry="18"/>
<text text-anchor="middle" x="808" y="-30.3" font-family="Times,serif" font-size="14.00">च(13.1)</text>
</g>
<!-- Node13_1&#45;&gt;Node12_2 -->
<g id="edge12" class="edge">
<title>Node13_1&#45;&gt;Node12_2</title>
<path fill="none" stroke="black" d="M790.6,-59.65C780.68,-73.7 768.52,-90.92 759.74,-103.37"/>
<polygon fill="black" stroke="black" points="793.52,-61.58 796.43,-51.39 787.81,-57.54 793.52,-61.58"/>
<text text-anchor="middle" x="799.5" y="-73.8" font-family="Times,serif" font-size="14.00">सम्बन्धः</text>
</g>
<!-- Node14_1 -->
<g id="node16" class="node">
<title>Node14_1</title>
<ellipse fill="#87ceeb" stroke="#87ceeb" cx="869" cy="-121" rx="52.79" ry="18"/>
<text text-anchor="middle" x="869" y="-117.3" font-family="Times,serif" font-size="14.00">पितुः(14.1)</text>
</g>
<!-- Node14_1&#45;&gt;Node15_1 -->
<g id="edge13" class="edge">
<title>Node14_1&#45;&gt;Node15_1</title>
<path fill="none" stroke="black" d="M854.42,-147.54C849.86,-155.42 844.77,-164.1 840,-172 836.36,-178.02 832.29,-184.56 828.64,-190.34"/>
<polygon fill="black" stroke="black" points="857.52,-149.17 859.48,-138.75 851.46,-145.67 857.52,-149.17"/>
<text text-anchor="middle" x="875.5" y="-160.8" font-family="Times,serif" font-size="14.00">षष्ठीसम्बन्धः</text>
</g>
<!-- Node17_1 -->
<g id="node18" class="node">
<title>Node17_1</title>
<ellipse fill="#ff99ff" stroke="#ff99ff" cx="943" cy="-208" rx="55.79" ry="18"/>
<text text-anchor="middle" x="943" y="-204.3" font-family="Times,serif" font-size="14.00">धर्मतः(17.1)</text>
</g>
<!-- Node17_1&#45;&gt;Node16_1 -->
<g id="edge15" class="edge">
<title>Node17_1&#45;&gt;Node16_1</title>
<path fill="none" stroke="black" d="M929.88,-235.54C923.17,-249.12 915.21,-265.24 909.34,-277.11"/>
<polygon fill="black" stroke="black" points="933.21,-236.72 934.5,-226.2 926.93,-233.62 933.21,-236.72"/>
<text text-anchor="middle" x="933.5" y="-247.8" font-family="Times,serif" font-size="14.00">हेतुः</text>
</g>
</g>
</svg>
