<?xml version="1.0" encoding="UTF-8" standalone="no"?>
<!DOCTYPE svg PUBLIC "-//W3C//DTD SVG 1.1//EN"
 "http://www.w3.org/Graphics/SVG/1.1/DTD/svg11.dtd">
<!-- Generated by graphviz version 2.43.0 (0)
 -->
<!-- Title: G Pages: 1 -->
<svg width="538pt" height="582pt"
 viewBox="0.00 0.00 538.00 582.00" xmlns="http://www.w3.org/2000/svg" xmlns:xlink="http://www.w3.org/1999/xlink">
<g id="graph0" class="graph" transform="scale(1 1) rotate(0) translate(4 578)">
<title>G</title>
<polygon fill="#fffacd" stroke="transparent" points="-4,4 -4,-578 534,-578 534,4 -4,4"/>
<g id="clust1" class="cluster">
<title>cluster_1</title>
<polygon fill="#fffacd" stroke="black" points="8,-8 8,-147 152,-147 152,-8 8,-8"/>
</g>
<g id="clust2" class="cluster">
<title>cluster_2</title>
<polygon fill="#fffacd" stroke="black" points="228,-269 228,-408 364,-408 364,-269 228,-269"/>
</g>
<!-- Node2_1 -->
<g id="node1" class="node">
<title>Node2_1</title>
<ellipse fill="#87ceeb" stroke="#87ceeb" cx="80" cy="-34" rx="63.89" ry="18"/>
<text text-anchor="middle" x="80" y="-30.3" font-family="Times,serif" font-size="14.00">पुराणानाम्(2.1)</text>
</g>
<!-- Node1_1 -->
<g id="node2" class="node">
<title>Node1_1</title>
<ellipse fill="#87ceeb" stroke="#87ceeb" cx="80" cy="-121" rx="59.59" ry="18"/>
<text text-anchor="middle" x="80" y="-117.3" font-family="Times,serif" font-size="14.00">राजर्षीणां(1.1)</text>
</g>
<!-- Node2_1&#45;&gt;Node1_1 -->
<g id="edge2" class="edge">
<title>Node2_1&#45;&gt;Node1_1</title>
<path fill="none" stroke="black" d="M80,-62.27C80,-75.58 80,-91.19 80,-102.82"/>
<polygon fill="black" stroke="black" points="83.5,-62.2 80,-52.2 76.5,-62.2 83.5,-62.2"/>
<text text-anchor="middle" x="102.5" y="-73.8" font-family="Times,serif" font-size="14.00">विशेषणम्</text>
</g>
<!-- Node4_1 -->
<g id="node5" class="node">
<title>Node4_1</title>
<ellipse fill="#93db70" stroke="#93db70" cx="80" cy="-208" rx="49.29" ry="18"/>
<text text-anchor="middle" x="80" y="-204.3" font-family="Times,serif" font-size="14.00">गतिम्(4.1)</text>
</g>
<!-- Node1_1&#45;&gt;Node4_1 -->
<g id="edge1" class="edge">
<title>Node1_1&#45;&gt;Node4_1</title>
<path fill="none" stroke="black" d="M80,-149.27C80,-162.58 80,-178.19 80,-189.82"/>
<polygon fill="black" stroke="black" points="83.5,-149.2 80,-139.2 76.5,-149.2 83.5,-149.2"/>
<text text-anchor="middle" x="107.5" y="-160.8" font-family="Times,serif" font-size="14.00">षष्ठीसम्बन्धः</text>
</g>
<!-- Node8_1 -->
<g id="node3" class="node">
<title>Node8_1</title>
<ellipse fill="#87ceeb" stroke="#87ceeb" cx="296" cy="-295" rx="50.09" ry="18"/>
<text text-anchor="middle" x="296" y="-291.3" font-family="Times,serif" font-size="14.00">सर्वेषां(8.1)</text>
</g>
<!-- Node6_1 -->
<g id="node4" class="node">
<title>Node6_1</title>
<ellipse fill="#87ceeb" stroke="#87ceeb" cx="296" cy="-382" rx="59.59" ry="18"/>
<text text-anchor="middle" x="296" y="-378.3" font-family="Times,serif" font-size="14.00">राजर्षीणां(6.1)</text>
</g>
<!-- Node8_1&#45;&gt;Node6_1 -->
<g id="edge8" class="edge">
<title>Node8_1&#45;&gt;Node6_1</title>
<path fill="none" stroke="black" d="M296,-323.27C296,-336.58 296,-352.19 296,-363.82"/>
<polygon fill="black" stroke="black" points="299.5,-323.2 296,-313.2 292.5,-323.2 299.5,-323.2"/>
<text text-anchor="middle" x="318.5" y="-334.8" font-family="Times,serif" font-size="14.00">विशेषणम्</text>
</g>
<!-- Node11_1 -->
<g id="node9" class="node">
<title>Node11_1</title>
<ellipse fill="#ff1975" stroke="#ff1975" cx="235" cy="-469" rx="63.09" ry="18"/>
<text text-anchor="middle" x="235" y="-465.3" font-family="Times,serif" font-size="14.00">उपाश्रयः(11.1)</text>
</g>
<!-- Node6_1&#45;&gt;Node11_1 -->
<g id="edge6" class="edge">
<title>Node6_1&#45;&gt;Node11_1</title>
<path fill="none" stroke="black" d="M278.05,-408.01C268.06,-421.94 255.88,-438.91 247.03,-451.24"/>
<polygon fill="black" stroke="black" points="280.96,-409.96 283.95,-399.79 275.27,-405.88 280.96,-409.96"/>
<text text-anchor="middle" x="296.5" y="-421.8" font-family="Times,serif" font-size="14.00">षष्ठीसम्बन्धः</text>
</g>
<!-- Node3_1 -->
<g id="node6" class="node">
<title>Node3_1</title>
<ellipse fill="#ff1975" stroke="#ff1975" cx="164" cy="-295" rx="55.79" ry="18"/>
<text text-anchor="middle" x="164" y="-291.3" font-family="Times,serif" font-size="14.00">अनुयातु(3.1)</text>
</g>
<!-- Node4_1&#45;&gt;Node3_1 -->
<g id="edge4" class="edge">
<title>Node4_1&#45;&gt;Node3_1</title>
<path fill="none" stroke="black" d="M103.24,-232.52C117.42,-246.87 135.2,-264.86 147.85,-277.66"/>
<polygon fill="black" stroke="black" points="105.71,-230.04 96.2,-225.39 100.74,-234.96 105.71,-230.04"/>
<text text-anchor="middle" x="137" y="-247.8" font-family="Times,serif" font-size="14.00">कर्म</text>
</g>
<!-- Node7_1 -->
<g id="node8" class="node">
<title>Node7_1</title>
<ellipse fill="#ff99ff" stroke="#ff99ff" cx="175" cy="-382" rx="38.99" ry="18"/>
<text text-anchor="middle" x="175" y="-378.3" font-family="Times,serif" font-size="14.00">हि(7.1)</text>
</g>
<!-- Node3_1&#45;&gt;Node7_1 -->
<g id="edge3" class="edge">
<title>Node3_1&#45;&gt;Node7_1</title>
<path fill="none" stroke="black" stroke-dasharray="1,5" d="M167.53,-323.27C169.25,-336.58 171.27,-352.19 172.78,-363.82"/>
<polygon fill="black" stroke="black" points="170.98,-322.67 166.23,-313.2 164.04,-323.57 170.98,-322.67"/>
<text text-anchor="middle" x="189.5" y="-334.8" font-family="Times,serif" font-size="14.00">सम्बन्धः</text>
</g>
<!-- Node5_1 -->
<g id="node7" class="node">
<title>Node5_1</title>
<ellipse fill="#00bfff" stroke="#00bfff" cx="192" cy="-208" rx="44.39" ry="18"/>
<text text-anchor="middle" x="192" y="-204.3" font-family="Times,serif" font-size="14.00">नृपः(5.1)</text>
</g>
<!-- Node5_1&#45;&gt;Node3_1 -->
<g id="edge5" class="edge">
<title>Node5_1&#45;&gt;Node3_1</title>
<path fill="none" stroke="black" d="M183.15,-235.87C178.73,-249.27 173.53,-265.08 169.66,-276.82"/>
<polygon fill="black" stroke="black" points="186.53,-236.79 186.33,-226.2 179.88,-234.6 186.53,-236.79"/>
<text text-anchor="middle" x="191" y="-247.8" font-family="Times,serif" font-size="14.00">कर्ता</text>
</g>
<!-- Node7_1&#45;&gt;Node11_1 -->
<g id="edge7" class="edge">
<title>Node7_1&#45;&gt;Node11_1</title>
<path fill="none" stroke="black" d="M192.36,-407.6C202.21,-421.54 214.28,-438.64 223.06,-451.08"/>
<polygon fill="black" stroke="black" points="195.19,-405.54 186.57,-399.39 189.48,-409.58 195.19,-405.54"/>
<text text-anchor="middle" x="227.5" y="-421.8" font-family="Times,serif" font-size="14.00">सम्बन्धः</text>
</g>
<!-- Node12_1 -->
<g id="node11" class="node">
<title>Node12_1</title>
<ellipse fill="#ff1975" stroke="#ff1975" cx="362" cy="-556" rx="59.59" ry="18"/>
<text text-anchor="middle" x="362" y="-552.3" font-family="Times,serif" font-size="14.00">(भवेत्)(12.1)</text>
</g>
<!-- Node11_1&#45;&gt;Node12_1 -->
<g id="edge11" class="edge">
<title>Node11_1&#45;&gt;Node12_1</title>
<path fill="none" stroke="black" d="M256.69,-493.98C265.52,-502.87 276.19,-512.58 287,-520 299.2,-528.37 313.73,-535.67 326.73,-541.41"/>
<polygon fill="black" stroke="black" points="259.2,-491.54 249.74,-486.78 254.17,-496.4 259.2,-491.54"/>
<text text-anchor="middle" x="322.5" y="-508.8" font-family="Times,serif" font-size="14.00">विधेयविशेषणम्</text>
</g>
<!-- Node9_1 -->
<g id="node10" class="node">
<title>Node9_1</title>
<ellipse fill="#c6e2eb" stroke="#c6e2eb" cx="362" cy="-469" rx="46.29" ry="18"/>
<text text-anchor="middle" x="362" y="-465.3" font-family="Times,serif" font-size="14.00">अन्ते(9.1)</text>
</g>
<!-- Node9_1&#45;&gt;Node12_1 -->
<g id="edge9" class="edge">
<title>Node9_1&#45;&gt;Node12_1</title>
<path fill="none" stroke="black" d="M362,-497.27C362,-510.58 362,-526.19 362,-537.82"/>
<polygon fill="black" stroke="black" points="365.5,-497.2 362,-487.2 358.5,-497.2 365.5,-497.2"/>
<text text-anchor="middle" x="397.5" y="-508.8" font-family="Times,serif" font-size="14.00">कालाधिकरणम्</text>
</g>
<!-- Node10_1 -->
<g id="node12" class="node">
<title>Node10_1</title>
<ellipse fill="#93db70" stroke="#93db70" cx="478" cy="-469" rx="51.99" ry="18"/>
<text text-anchor="middle" x="478" y="-465.3" font-family="Times,serif" font-size="14.00">वनम्(10.1)</text>
</g>
<!-- Node10_1&#45;&gt;Node12_1 -->
<g id="edge10" class="edge">
<title>Node10_1&#45;&gt;Node12_1</title>
<path fill="none" stroke="black" d="M461.07,-495C454.32,-503.7 446,-513.01 437,-520 425.65,-528.81 411.72,-536.08 398.97,-541.67"/>
<polygon fill="black" stroke="black" points="463.89,-497.07 467.04,-486.96 458.27,-492.9 463.89,-497.07"/>
<text text-anchor="middle" x="463" y="-508.8" font-family="Times,serif" font-size="14.00">कर्ता</text>
</g>
</g>
</svg>
