<?xml version="1.0" encoding="UTF-8" standalone="no"?>
<!DOCTYPE svg PUBLIC "-//W3C//DTD SVG 1.1//EN"
 "http://www.w3.org/Graphics/SVG/1.1/DTD/svg11.dtd">
<!-- Generated by graphviz version 2.43.0 (0)
 -->
<!-- Title: G Pages: 1 -->
<svg width="871pt" height="408pt"
 viewBox="0.00 0.00 871.00 408.00" xmlns="http://www.w3.org/2000/svg" xmlns:xlink="http://www.w3.org/1999/xlink">
<g id="graph0" class="graph" transform="scale(1 1) rotate(0) translate(4 404)">
<title>G</title>
<polygon fill="#fffacd" stroke="transparent" points="-4,4 -4,-404 867,-404 867,4 -4,4"/>
<g id="clust1" class="cluster">
<title>cluster_1</title>
<polygon fill="#fffacd" stroke="black" points="8,-95 8,-234 118,-234 118,-95 8,-95"/>
</g>
<g id="clust2" class="cluster">
<title>cluster_2</title>
<polygon fill="#fffacd" stroke="black" points="126,-95 126,-234 240,-234 240,-95 126,-95"/>
</g>
<g id="clust3" class="cluster">
<title>cluster_3</title>
<polygon fill="#fffacd" stroke="black" points="601,-182 601,-321 855,-321 855,-182 601,-182"/>
</g>
<g id="clust4" class="cluster">
<title>cluster_4</title>
<polygon fill="#fffacd" stroke="black" points="470,-8 470,-147 600,-147 600,-8 470,-8"/>
</g>
<!-- Node1_1 -->
<g id="node1" class="node">
<title>Node1_1</title>
<ellipse fill="#ff99ff" stroke="#ff99ff" cx="63" cy="-121" rx="46.29" ry="18"/>
<text text-anchor="middle" x="63" y="-117.3" font-family="Times,serif" font-size="14.00">एवम्(1.1)</text>
</g>
<!-- Node2_1 -->
<g id="node2" class="node">
<title>Node2_1</title>
<ellipse fill="#93db70" stroke="#93db70" cx="63" cy="-208" rx="46.59" ry="18"/>
<text text-anchor="middle" x="63" y="-204.3" font-family="Times,serif" font-size="14.00">एतत्(2.1)</text>
</g>
<!-- Node1_1&#45;&gt;Node2_1 -->
<g id="edge1" class="edge">
<title>Node1_1&#45;&gt;Node2_1</title>
<path fill="none" stroke="black" d="M63,-149.27C63,-162.58 63,-178.19 63,-189.82"/>
<polygon fill="black" stroke="black" points="66.5,-149.2 63,-139.2 59.5,-149.2 66.5,-149.2"/>
<text text-anchor="middle" x="85.5" y="-160.8" font-family="Times,serif" font-size="14.00">विशेषणम्</text>
</g>
<!-- Node5_1 -->
<g id="node10" class="node">
<title>Node5_1</title>
<ellipse fill="#ff1975" stroke="#ff1975" cx="262" cy="-295" rx="49.29" ry="18"/>
<text text-anchor="middle" x="262" y="-291.3" font-family="Times,serif" font-size="14.00">वदसि(5.1)</text>
</g>
<!-- Node2_1&#45;&gt;Node5_1 -->
<g id="edge2" class="edge">
<title>Node2_1&#45;&gt;Node5_1</title>
<path fill="none" stroke="black" d="M102.89,-226.04C140.69,-242.19 196.67,-266.1 231.16,-280.83"/>
<polygon fill="black" stroke="black" points="103.79,-222.62 93.22,-221.91 101.05,-229.06 103.79,-222.62"/>
<text text-anchor="middle" x="184" y="-247.8" font-family="Times,serif" font-size="14.00">कर्म</text>
</g>
<!-- Node3_2 -->
<g id="node3" class="node">
<title>Node3_2</title>
<ellipse fill="#6fffc3" stroke="#6fffc3" cx="183" cy="-121" rx="46.29" ry="18"/>
<text text-anchor="middle" x="183" y="-117.3" font-family="Times,serif" font-size="14.00">बाहो(3.2)</text>
</g>
<!-- Node6_1 -->
<g id="node4" class="node">
<title>Node6_1</title>
<ellipse fill="#6fffc3" stroke="#6fffc3" cx="183" cy="-208" rx="48.99" ry="18"/>
<text text-anchor="middle" x="183" y="-204.3" font-family="Times,serif" font-size="14.00">भारत(6.1)</text>
</g>
<!-- Node3_2&#45;&gt;Node6_1 -->
<g id="edge4" class="edge">
<title>Node3_2&#45;&gt;Node6_1</title>
<path fill="none" stroke="black" d="M183,-149.27C183,-162.58 183,-178.19 183,-189.82"/>
<polygon fill="black" stroke="black" points="186.5,-149.2 183,-139.2 179.5,-149.2 186.5,-149.2"/>
<text text-anchor="middle" x="205.5" y="-160.8" font-family="Times,serif" font-size="14.00">विशेषणम्</text>
</g>
<!-- Node6_1&#45;&gt;Node5_1 -->
<g id="edge6" class="edge">
<title>Node6_1&#45;&gt;Node5_1</title>
<path fill="none" stroke="black" d="M205.22,-232.91C218.5,-247.2 235.02,-264.98 246.81,-277.66"/>
<polygon fill="black" stroke="black" points="207.6,-230.33 198.23,-225.39 202.48,-235.1 207.6,-230.33"/>
<text text-anchor="middle" x="249" y="-247.8" font-family="Times,serif" font-size="14.00">सम्बोध्यः</text>
</g>
<!-- Node10_1 -->
<g id="node5" class="node">
<title>Node10_1</title>
<ellipse fill="#00bfff" stroke="#00bfff" cx="791" cy="-208" rx="55.79" ry="18"/>
<text text-anchor="middle" x="791" y="-204.3" font-family="Times,serif" font-size="14.00">प्राप्तः(10.1)</text>
</g>
<!-- Node8_1 -->
<g id="node6" class="node">
<title>Node8_1</title>
<ellipse fill="#00bfff" stroke="#00bfff" cx="663" cy="-295" rx="46.29" ry="18"/>
<text text-anchor="middle" x="663" y="-291.3" font-family="Times,serif" font-size="14.00">राजा(8.1)</text>
</g>
<!-- Node10_1&#45;&gt;Node8_1 -->
<g id="edge10" class="edge">
<title>Node10_1&#45;&gt;Node8_1</title>
<path fill="none" stroke="black" d="M759.45,-229.95C736.54,-245.17 706.08,-265.39 685.58,-279.01"/>
<polygon fill="black" stroke="black" points="761.43,-232.84 767.82,-224.39 757.55,-227.01 761.43,-232.84"/>
<text text-anchor="middle" x="756.5" y="-247.8" font-family="Times,serif" font-size="14.00">विशेषणम्</text>
</g>
<!-- Node14_1 -->
<g id="node14" class="node">
<title>Node14_1</title>
<ellipse fill="#ff1975" stroke="#ff1975" cx="663" cy="-382" rx="62.29" ry="18"/>
<text text-anchor="middle" x="663" y="-378.3" font-family="Times,serif" font-size="14.00">(अस्ति)(14.1)</text>
</g>
<!-- Node8_1&#45;&gt;Node14_1 -->
<g id="edge8" class="edge">
<title>Node8_1&#45;&gt;Node14_1</title>
<path fill="none" stroke="black" d="M663,-323.27C663,-336.58 663,-352.19 663,-363.82"/>
<polygon fill="black" stroke="black" points="666.5,-323.2 663,-313.2 659.5,-323.2 666.5,-323.2"/>
<text text-anchor="middle" x="674" y="-334.8" font-family="Times,serif" font-size="14.00">कर्ता</text>
</g>
<!-- Node15_1 -->
<g id="node7" class="node">
<title>Node15_1</title>
<ellipse fill="#00bfff" stroke="#00bfff" cx="663" cy="-208" rx="53.89" ry="18"/>
<text text-anchor="middle" x="663" y="-204.3" font-family="Times,serif" font-size="14.00">अयम्(15.1)</text>
</g>
<!-- Node15_1&#45;&gt;Node8_1 -->
<g id="edge14" class="edge">
<title>Node15_1&#45;&gt;Node8_1</title>
<path fill="none" stroke="black" d="M663,-236.27C663,-249.58 663,-265.19 663,-276.82"/>
<polygon fill="black" stroke="black" points="666.5,-236.2 663,-226.2 659.5,-236.2 666.5,-236.2"/>
<text text-anchor="middle" x="685.5" y="-247.8" font-family="Times,serif" font-size="14.00">विशेषणम्</text>
</g>
<!-- Node12_1 -->
<g id="node8" class="node">
<title>Node12_1</title>
<ellipse fill="#c6e2eb" stroke="#c6e2eb" cx="535" cy="-34" rx="51.19" ry="18"/>
<text text-anchor="middle" x="535" y="-30.3" font-family="Times,serif" font-size="14.00">परमे(12.1)</text>
</g>
<!-- Node11_1 -->
<g id="node9" class="node">
<title>Node11_1</title>
<ellipse fill="#c6e2eb" stroke="#c6e2eb" cx="535" cy="-121" rx="56.59" ry="18"/>
<text text-anchor="middle" x="535" y="-117.3" font-family="Times,serif" font-size="14.00">प्रमाणे(11.1)</text>
</g>
<!-- Node12_1&#45;&gt;Node11_1 -->
<g id="edge12" class="edge">
<title>Node12_1&#45;&gt;Node11_1</title>
<path fill="none" stroke="black" d="M535,-62.27C535,-75.58 535,-91.19 535,-102.82"/>
<polygon fill="black" stroke="black" points="538.5,-62.2 535,-52.2 531.5,-62.2 538.5,-62.2"/>
<text text-anchor="middle" x="557.5" y="-73.8" font-family="Times,serif" font-size="14.00">विशेषणम्</text>
</g>
<!-- Node13_1 -->
<g id="node16" class="node">
<title>Node13_1</title>
<ellipse fill="#00bfff" stroke="#00bfff" cx="535" cy="-208" rx="56.59" ry="18"/>
<text text-anchor="middle" x="535" y="-204.3" font-family="Times,serif" font-size="14.00">स्थितः(13.1)</text>
</g>
<!-- Node11_1&#45;&gt;Node13_1 -->
<g id="edge11" class="edge">
<title>Node11_1&#45;&gt;Node13_1</title>
<path fill="none" stroke="black" d="M535,-149.27C535,-162.58 535,-178.19 535,-189.82"/>
<polygon fill="black" stroke="black" points="538.5,-149.2 535,-139.2 531.5,-149.2 538.5,-149.2"/>
<text text-anchor="middle" x="562.5" y="-160.8" font-family="Times,serif" font-size="14.00">अधिकरणम्</text>
</g>
<!-- Node3_1 -->
<g id="node11" class="node">
<title>Node3_1</title>
<ellipse fill="#ffff00" stroke="#ffff00" cx="183" cy="-34" rx="46.59" ry="18"/>
<text text-anchor="middle" x="183" y="-30.3" font-family="Times,serif" font-size="14.00">महा&#45;(3.1)</text>
</g>
<!-- Node3_1&#45;&gt;Node3_2 -->
<g id="edge3" class="edge">
<title>Node3_1&#45;&gt;Node3_2</title>
<path fill="none" stroke="black" d="M183,-62.27C183,-75.58 183,-91.19 183,-102.82"/>
<polygon fill="black" stroke="black" points="186.5,-62.2 183,-52.2 179.5,-62.2 186.5,-62.2"/>
<text text-anchor="middle" x="197" y="-73.8" font-family="Times,serif" font-size="14.00">Bs6</text>
</g>
<!-- Node4_1 -->
<g id="node12" class="node">
<title>Node4_1</title>
<ellipse fill="#ff99ff" stroke="#ff99ff" cx="295" cy="-208" rx="44.69" ry="18"/>
<text text-anchor="middle" x="295" y="-204.3" font-family="Times,serif" font-size="14.00">यथा(4.1)</text>
</g>
<!-- Node4_1&#45;&gt;Node5_1 -->
<g id="edge5" class="edge">
<title>Node4_1&#45;&gt;Node5_1</title>
<path fill="none" stroke="black" d="M284.7,-235.54C279.42,-249.12 273.16,-265.24 268.56,-277.11"/>
<polygon fill="black" stroke="black" points="287.97,-236.79 288.32,-226.2 281.44,-234.26 287.97,-236.79"/>
<text text-anchor="middle" x="316" y="-247.8" font-family="Times,serif" font-size="14.00">क्रियाविशेषणम्</text>
</g>
<!-- Node7_1 -->
<g id="node13" class="node">
<title>Node7_1</title>
<ellipse fill="#00bfff" stroke="#00bfff" cx="409" cy="-208" rx="51.19" ry="18"/>
<text text-anchor="middle" x="409" y="-204.3" font-family="Times,serif" font-size="14.00">(त्वम्)(7.1)</text>
</g>
<!-- Node7_1&#45;&gt;Node5_1 -->
<g id="edge7" class="edge">
<title>Node7_1&#45;&gt;Node5_1</title>
<path fill="none" stroke="black" d="M387.04,-232.99C377.81,-242.04 366.55,-251.86 355,-259 338.12,-269.43 317.64,-277.55 300.2,-283.33"/>
<polygon fill="black" stroke="black" points="389.75,-235.22 394.27,-225.64 384.76,-230.31 389.75,-235.22"/>
<text text-anchor="middle" x="385" y="-247.8" font-family="Times,serif" font-size="14.00">कर्ता</text>
</g>
<!-- Node9_1 -->
<g id="node15" class="node">
<title>Node9_1</title>
<ellipse fill="#93db70" stroke="#93db70" cx="791" cy="-121" rx="49.29" ry="18"/>
<text text-anchor="middle" x="791" y="-117.3" font-family="Times,serif" font-size="14.00">वृद्धतां(9.1)</text>
</g>
<!-- Node9_1&#45;&gt;Node10_1 -->
<g id="edge9" class="edge">
<title>Node9_1&#45;&gt;Node10_1</title>
<path fill="none" stroke="black" d="M791,-149.27C791,-162.58 791,-178.19 791,-189.82"/>
<polygon fill="black" stroke="black" points="794.5,-149.2 791,-139.2 787.5,-149.2 794.5,-149.2"/>
<text text-anchor="middle" x="800" y="-160.8" font-family="Times,serif" font-size="14.00">कर्म</text>
</g>
<!-- Node13_1&#45;&gt;Node8_1 -->
<g id="edge13" class="edge">
<title>Node13_1&#45;&gt;Node8_1</title>
<path fill="none" stroke="black" d="M554.11,-233.82C561.77,-242.6 571.12,-252.02 581,-259 595.28,-269.09 612.93,-277.1 628.2,-282.89"/>
<polygon fill="black" stroke="black" points="556.69,-231.45 547.59,-226.03 551.32,-235.94 556.69,-231.45"/>
<text text-anchor="middle" x="620" y="-247.8" font-family="Times,serif" font-size="14.00">विधेय_विशेषणम्</text>
</g>
</g>
</svg>
