<?xml version="1.0" encoding="UTF-8" standalone="no"?>
<!DOCTYPE svg PUBLIC "-//W3C//DTD SVG 1.1//EN"
 "http://www.w3.org/Graphics/SVG/1.1/DTD/svg11.dtd">
<!-- Generated by graphviz version 2.43.0 (0)
 -->
<!-- Title: G Pages: 1 -->
<svg width="775pt" height="392pt"
 viewBox="0.00 0.00 774.55 392.00" xmlns="http://www.w3.org/2000/svg" xmlns:xlink="http://www.w3.org/1999/xlink">
<g id="graph0" class="graph" transform="scale(1 1) rotate(0) translate(4 388)">
<title>G</title>
<polygon fill="#fffacd" stroke="transparent" points="-4,4 -4,-388 770.55,-388 770.55,4 -4,4"/>
<g id="clust1" class="cluster">
<title>cluster_1</title>
<polygon fill="#fffacd" stroke="black" points="600.55,-79 600.55,-218 726.55,-218 726.55,-79 600.55,-79"/>
</g>
<g id="clust2" class="cluster">
<title>cluster_2</title>
<polygon fill="#fffacd" stroke="black" points="603.55,-253 603.55,-305 723.55,-305 723.55,-253 603.55,-253"/>
</g>
<g id="clust3" class="cluster">
<title>cluster_3</title>
<polygon fill="#fffacd" stroke="black" points="243.55,-166 243.55,-305 369.55,-305 369.55,-166 243.55,-166"/>
</g>
<g id="clust4" class="cluster">
<title>cluster_4</title>
<polygon fill="#fffacd" stroke="black" points="95.55,-166 95.55,-305 235.55,-305 235.55,-166 95.55,-166"/>
</g>
<!-- Node1_2 -->
<g id="node1" class="node">
<title>Node1_2</title>
<ellipse fill="#00bfff" stroke="#00bfff" cx="663.55" cy="-105" rx="51.99" ry="18"/>
<text text-anchor="middle" x="663.55" y="-101.3" font-family="Times,serif" font-size="14.00">संस्थम्(1.2)</text>
</g>
<!-- Node3_1 -->
<g id="node2" class="node">
<title>Node3_1</title>
<ellipse fill="#00bfff" stroke="#00bfff" cx="663.55" cy="-192" rx="54.69" ry="18"/>
<text text-anchor="middle" x="663.55" y="-188.3" font-family="Times,serif" font-size="14.00">विपुलम्(3.1)</text>
</g>
<!-- Node1_2&#45;&gt;Node3_1 -->
<g id="edge2" class="edge">
<title>Node1_2&#45;&gt;Node3_1</title>
<path fill="none" stroke="black" d="M663.55,-133.27C663.55,-146.58 663.55,-162.19 663.55,-173.82"/>
<polygon fill="black" stroke="black" points="667.05,-133.2 663.55,-123.2 660.05,-133.2 667.05,-133.2"/>
<text text-anchor="middle" x="686.05" y="-144.8" font-family="Times,serif" font-size="14.00">समुच्चितः</text>
</g>
<!-- Node4_1 -->
<g id="node3" class="node">
<title>Node4_1</title>
<ellipse fill="#00bfff" stroke="#00bfff" cx="663.55" cy="-279" rx="51.99" ry="18"/>
<text text-anchor="middle" x="663.55" y="-275.3" font-family="Times,serif" font-size="14.00">राज्यम्(4.1)</text>
</g>
<!-- Node3_1&#45;&gt;Node4_1 -->
<g id="edge4" class="edge">
<title>Node3_1&#45;&gt;Node4_1</title>
<path fill="none" stroke="black" d="M663.55,-220.27C663.55,-233.58 663.55,-249.19 663.55,-260.82"/>
<polygon fill="black" stroke="black" points="667.05,-220.2 663.55,-210.2 660.05,-220.2 667.05,-220.2"/>
<text text-anchor="middle" x="686.05" y="-231.8" font-family="Times,serif" font-size="14.00">विशेषणम्</text>
</g>
<!-- Node9_1 -->
<g id="node10" class="node">
<title>Node9_1</title>
<ellipse fill="#00bfff" stroke="#00bfff" cx="483.55" cy="-366" rx="52.79" ry="18"/>
<text text-anchor="middle" x="483.55" y="-362.3" font-family="Times,serif" font-size="14.00">भुक्तम्(9.1)</text>
</g>
<!-- Node4_1&#45;&gt;Node9_1 -->
<g id="edge5" class="edge">
<title>Node4_1&#45;&gt;Node9_1</title>
<path fill="none" stroke="black" d="M655.93,-306.7C652.27,-315.28 646.99,-324.08 639.55,-330 610.44,-353.15 569.06,-361.66 536.23,-364.51"/>
<polygon fill="black" stroke="black" points="659.23,-307.88 659.42,-297.29 652.67,-305.45 659.23,-307.88"/>
<text text-anchor="middle" x="660.55" y="-318.8" font-family="Times,serif" font-size="14.00">कर्म</text>
</g>
<!-- Node7_1 -->
<g id="node4" class="node">
<title>Node7_1</title>
<ellipse fill="#93db70" stroke="#93db70" cx="306.55" cy="-192" rx="55.49" ry="18"/>
<text text-anchor="middle" x="306.55" y="-188.3" font-family="Times,serif" font-size="14.00">त्रयोदश(7.1)</text>
</g>
<!-- Node8_1 -->
<g id="node5" class="node">
<title>Node8_1</title>
<ellipse fill="#93db70" stroke="#93db70" cx="306.55" cy="-279" rx="48.19" ry="18"/>
<text text-anchor="middle" x="306.55" y="-275.3" font-family="Times,serif" font-size="14.00">समा:(8.1)</text>
</g>
<!-- Node7_1&#45;&gt;Node8_1 -->
<g id="edge8" class="edge">
<title>Node7_1&#45;&gt;Node8_1</title>
<path fill="none" stroke="black" d="M306.55,-220.27C306.55,-233.58 306.55,-249.19 306.55,-260.82"/>
<polygon fill="black" stroke="black" points="310.05,-220.2 306.55,-210.2 303.05,-220.2 310.05,-220.2"/>
<text text-anchor="middle" x="329.05" y="-231.8" font-family="Times,serif" font-size="14.00">विशेषणम्</text>
</g>
<!-- Node8_1&#45;&gt;Node9_1 -->
<g id="edge9" class="edge">
<title>Node8_1&#45;&gt;Node9_1</title>
<path fill="none" stroke="black" d="M309.27,-307.08C311.4,-315.47 315.11,-324.05 321.55,-330 337.71,-344.94 392.42,-354.52 433.83,-359.82"/>
<polygon fill="black" stroke="black" points="312.68,-306.31 307.38,-297.14 305.81,-307.62 312.68,-306.31"/>
<text text-anchor="middle" x="352.55" y="-318.8" font-family="Times,serif" font-size="14.00">अत्यन्तसंयोग</text>
</g>
<!-- Node10_1 -->
<g id="node13" class="node">
<title>Node10_1</title>
<ellipse fill="#93db70" stroke="#93db70" cx="196.55" cy="-366" rx="53.09" ry="18"/>
<text text-anchor="middle" x="196.55" y="-362.3" font-family="Times,serif" font-size="14.00">दत्तम्(10.1)</text>
</g>
<!-- Node8_1&#45;&gt;Node10_1 -->
<g id="edge10" class="edge">
<title>Node8_1&#45;&gt;Node10_1</title>
<path fill="none" stroke="black" stroke-dasharray="1,5" d="M262.72,-295.46C246.23,-301.9 229.93,-309.2 223.55,-315 213.76,-323.89 206.82,-337.17 202.43,-347.81"/>
<polygon fill="black" stroke="black" points="264.26,-298.62 272.37,-291.8 261.78,-292.08 264.26,-298.62"/>
<text text-anchor="middle" x="254.55" y="-318.8" font-family="Times,serif" font-size="14.00">अत्यन्तसंयोग</text>
</g>
<!-- Node12_1 -->
<g id="node6" class="node">
<title>Node12_1</title>
<ellipse fill="#00bfff" stroke="#00bfff" cx="165.55" cy="-192" rx="61.99" ry="18"/>
<text text-anchor="middle" x="165.55" y="-188.3" font-family="Times,serif" font-size="14.00">विविधम्(12.1)</text>
</g>
<!-- Node13_1 -->
<g id="node7" class="node">
<title>Node13_1</title>
<ellipse fill="#00bfff" stroke="#00bfff" cx="170.55" cy="-279" rx="48.19" ry="18"/>
<text text-anchor="middle" x="170.55" y="-275.3" font-family="Times,serif" font-size="14.00">वसु(13.1)</text>
</g>
<!-- Node12_1&#45;&gt;Node13_1 -->
<g id="edge12" class="edge">
<title>Node12_1&#45;&gt;Node13_1</title>
<path fill="none" stroke="black" d="M167.15,-220.27C167.93,-233.58 168.85,-249.19 169.54,-260.82"/>
<polygon fill="black" stroke="black" points="170.64,-219.98 166.56,-210.2 163.65,-220.39 170.64,-219.98"/>
<text text-anchor="middle" x="190.05" y="-231.8" font-family="Times,serif" font-size="14.00">विशेषणम्</text>
</g>
<!-- Node13_1&#45;&gt;Node10_1 -->
<g id="edge13" class="edge">
<title>Node13_1&#45;&gt;Node10_1</title>
<path fill="none" stroke="black" d="M174.84,-307.37C176.32,-314.8 178.21,-322.79 180.55,-330 182.52,-336.1 185.27,-342.55 187.92,-348.23"/>
<polygon fill="black" stroke="black" points="178.25,-306.58 173.01,-297.38 171.36,-307.84 178.25,-306.58"/>
<text text-anchor="middle" x="189.55" y="-318.8" font-family="Times,serif" font-size="14.00">कर्म</text>
</g>
<!-- Node1_1 -->
<g id="node8" class="node">
<title>Node1_1</title>
<ellipse fill="#ffff00" stroke="#ffff00" cx="612.55" cy="-18" rx="45.49" ry="18"/>
<text text-anchor="middle" x="612.55" y="-14.3" font-family="Times,serif" font-size="14.00">पुत्र&#45;(1.1)</text>
</g>
<!-- Node1_1&#45;&gt;Node1_2 -->
<g id="edge1" class="edge">
<title>Node1_1&#45;&gt;Node1_2</title>
<path fill="none" stroke="black" d="M627.79,-44.4C636.1,-58.26 646.16,-75.03 653.49,-87.24"/>
<polygon fill="black" stroke="black" points="630.77,-42.57 622.62,-35.79 624.77,-46.17 630.77,-42.57"/>
<text text-anchor="middle" x="650.05" y="-57.8" font-family="Times,serif" font-size="14.00">T7</text>
</g>
<!-- Node2_1 -->
<g id="node9" class="node">
<title>Node2_1</title>
<ellipse fill="#ff99ff" stroke="#ff99ff" cx="713.55" cy="-18" rx="37.89" ry="18"/>
<text text-anchor="middle" x="713.55" y="-14.3" font-family="Times,serif" font-size="14.00">च(2.1)</text>
</g>
<!-- Node2_1&#45;&gt;Node1_2 -->
<g id="edge3" class="edge">
<title>Node2_1&#45;&gt;Node1_2</title>
<path fill="none" stroke="black" d="M698.37,-44.8C690.26,-58.58 680.52,-75.14 673.4,-87.24"/>
<polygon fill="black" stroke="black" points="701.61,-46.19 703.67,-35.79 695.58,-42.64 701.61,-46.19"/>
<text text-anchor="middle" x="728.55" y="-57.8" font-family="Times,serif" font-size="14.00">समुच्चय_द्योतकः</text>
</g>
<!-- Node5_1 -->
<g id="node11" class="node">
<title>Node5_1</title>
<ellipse fill="#c6e2eb" stroke="#c6e2eb" cx="535.55" cy="-279" rx="58.49" ry="18"/>
<text text-anchor="middle" x="535.55" y="-275.3" font-family="Times,serif" font-size="14.00">विप्रोषिते(5.1)</text>
</g>
<!-- Node5_1&#45;&gt;Node9_1 -->
<g id="edge6" class="edge">
<title>Node5_1&#45;&gt;Node9_1</title>
<path fill="none" stroke="black" d="M517.84,-305.25C515.67,-308.5 513.53,-311.81 511.55,-315 504.83,-325.82 497.83,-338.32 492.51,-348.11"/>
<polygon fill="black" stroke="black" points="520.79,-307.12 523.51,-296.88 515,-303.19 520.79,-307.12"/>
<text text-anchor="middle" x="575.55" y="-318.8" font-family="Times,serif" font-size="14.00">भावलक्षणसप्तमी_पूर्वकालः</text>
</g>
<!-- Node6_1 -->
<g id="node12" class="node">
<title>Node6_1</title>
<ellipse fill="#c6e2eb" stroke="#c6e2eb" cx="535.55" cy="-192" rx="46.59" ry="18"/>
<text text-anchor="middle" x="535.55" y="-188.3" font-family="Times,serif" font-size="14.00">त्वयि(6.1)</text>
</g>
<!-- Node6_1&#45;&gt;Node5_1 -->
<g id="edge7" class="edge">
<title>Node6_1&#45;&gt;Node5_1</title>
<path fill="none" stroke="black" d="M535.55,-220.27C535.55,-233.58 535.55,-249.19 535.55,-260.82"/>
<polygon fill="black" stroke="black" points="539.05,-220.2 535.55,-210.2 532.05,-220.2 539.05,-220.2"/>
<text text-anchor="middle" x="546.55" y="-231.8" font-family="Times,serif" font-size="14.00">कर्ता</text>
</g>
<!-- Node11_1 -->
<g id="node14" class="node">
<title>Node11_1</title>
<ellipse fill="#ff99ff" stroke="#ff99ff" cx="43.55" cy="-279" rx="43.59" ry="18"/>
<text text-anchor="middle" x="43.55" y="-275.3" font-family="Times,serif" font-size="14.00">च(11.1)</text>
</g>
<!-- Node11_1&#45;&gt;Node10_1 -->
<g id="edge11" class="edge">
<title>Node11_1&#45;&gt;Node10_1</title>
<path fill="none" stroke="black" d="M77.48,-298.85C105.41,-314.37 144.44,-336.05 170.09,-350.3"/>
<polygon fill="black" stroke="black" points="78.91,-295.64 68.47,-293.85 75.51,-301.76 78.91,-295.64"/>
<text text-anchor="middle" x="147.05" y="-318.8" font-family="Times,serif" font-size="14.00">सम्बन्धः</text>
</g>
<!-- Node14_1 -->
<g id="node15" class="node">
<title>Node14_1</title>
<ellipse fill="lightgrey" stroke="black" cx="418.55" cy="-279" rx="40.89" ry="18"/>
<text text-anchor="middle" x="418.55" y="-275.3" font-family="Times,serif" font-size="14.00">.(14.1)</text>
</g>
<!-- Node14_1&#45;&gt;Node9_1 -->
<g id="edge14" class="edge">
<title>Node14_1&#45;&gt;Node9_1</title>
<path fill="none" stroke="black" d="M437.4,-304.65C448.14,-318.7 461.31,-335.92 470.83,-348.37"/>
<polygon fill="black" stroke="black" points="439.93,-302.21 431.08,-296.39 434.37,-306.46 439.93,-302.21"/>
<text text-anchor="middle" x="465.55" y="-318.8" font-family="Times,serif" font-size="14.00">कर्ता</text>
</g>
<!-- Node14_1&#45;&gt;Node10_1 -->
<g id="edge15" class="edge">
<title>Node14_1&#45;&gt;Node10_1</title>
<path fill="none" stroke="black" stroke-dasharray="1,5" d="M405.9,-305.76C400.25,-314.75 392.76,-324.06 383.55,-330 361.41,-344.27 294.26,-354.35 246.79,-359.91"/>
<polygon fill="black" stroke="black" points="408.97,-307.44 410.93,-297.03 402.9,-303.95 408.97,-307.44"/>
<text text-anchor="middle" x="409.55" y="-318.8" font-family="Times,serif" font-size="14.00">कर्ता</text>
</g>
</g>
</svg>
