<?xml version="1.0" encoding="UTF-8" standalone="no"?>
<!DOCTYPE svg PUBLIC "-//W3C//DTD SVG 1.1//EN"
 "http://www.w3.org/Graphics/SVG/1.1/DTD/svg11.dtd">
<!-- Generated by graphviz version 2.43.0 (0)
 -->
<!-- Title: G Pages: 1 -->
<svg width="816pt" height="392pt"
 viewBox="0.00 0.00 815.55 392.00" xmlns="http://www.w3.org/2000/svg" xmlns:xlink="http://www.w3.org/1999/xlink">
<g id="graph0" class="graph" transform="scale(1 1) rotate(0) translate(4 388)">
<title>G</title>
<polygon fill="#fffacd" stroke="transparent" points="-4,4 -4,-388 811.55,-388 811.55,4 -4,4"/>
<g id="clust1" class="cluster">
<title>cluster_1</title>
<polygon fill="#fffacd" stroke="black" points="468,-79 468,-305 710,-305 710,-79 468,-79"/>
</g>
<g id="clust2" class="cluster">
<title>cluster_2</title>
<polygon fill="#fffacd" stroke="black" points="8,-166 8,-305 126,-305 126,-166 8,-166"/>
</g>
<!-- Node3_1 -->
<g id="node1" class="node">
<title>Node3_1</title>
<ellipse fill="#00bfff" stroke="#00bfff" cx="654" cy="-192" rx="48.19" ry="18"/>
<text text-anchor="middle" x="654" y="-188.3" font-family="Times,serif" font-size="14.00">अयम्(3.1)</text>
</g>
<!-- Node6_1 -->
<g id="node2" class="node">
<title>Node6_1</title>
<ellipse fill="#00bfff" stroke="#00bfff" cx="532" cy="-279" rx="44.39" ry="18"/>
<text text-anchor="middle" x="532" y="-275.3" font-family="Times,serif" font-size="14.00">नृपः(6.1)</text>
</g>
<!-- Node3_1&#45;&gt;Node6_1 -->
<g id="edge3" class="edge">
<title>Node3_1&#45;&gt;Node6_1</title>
<path fill="none" stroke="black" d="M623.93,-213.95C602.13,-229.14 573.17,-249.32 553.62,-262.94"/>
<polygon fill="black" stroke="black" points="625.98,-216.78 632.19,-208.2 621.98,-211.04 625.98,-216.78"/>
<text text-anchor="middle" x="623.5" y="-231.8" font-family="Times,serif" font-size="14.00">विशेषणम्</text>
</g>
<!-- Node12_1 -->
<g id="node7" class="node">
<title>Node12_1</title>
<ellipse fill="#ff1975" stroke="#ff1975" cx="273" cy="-366" rx="62.29" ry="18"/>
<text text-anchor="middle" x="273" y="-362.3" font-family="Times,serif" font-size="14.00">(अस्ति)(12.1)</text>
</g>
<!-- Node6_1&#45;&gt;Node12_1 -->
<g id="edge8" class="edge">
<title>Node6_1&#45;&gt;Node12_1</title>
<path fill="none" stroke="black" d="M488.97,-294.12C439.86,-310.24 360.18,-336.39 312.56,-352.02"/>
<polygon fill="black" stroke="black" points="490.26,-297.38 498.67,-290.94 488.08,-290.73 490.26,-297.38"/>
<text text-anchor="middle" x="430" y="-318.8" font-family="Times,serif" font-size="14.00">कर्ता</text>
</g>
<!-- Node9_1 -->
<g id="node3" class="node">
<title>Node9_1</title>
<ellipse fill="#00bfff" stroke="#00bfff" cx="532" cy="-192" rx="55.79" ry="18"/>
<text text-anchor="middle" x="532" y="-188.3" font-family="Times,serif" font-size="14.00">गान्धारी(9.1)</text>
</g>
<!-- Node9_1&#45;&gt;Node6_1 -->
<g id="edge12" class="edge">
<title>Node9_1&#45;&gt;Node6_1</title>
<path fill="none" stroke="black" d="M532,-220.27C532,-233.58 532,-249.19 532,-260.82"/>
<polygon fill="black" stroke="black" points="535.5,-220.2 532,-210.2 528.5,-220.2 535.5,-220.2"/>
<text text-anchor="middle" x="554.5" y="-231.8" font-family="Times,serif" font-size="14.00">समुच्चितः</text>
</g>
<!-- Node11_1 -->
<g id="node4" class="node">
<title>Node11_1</title>
<ellipse fill="#00bfff" stroke="#00bfff" cx="543" cy="-105" rx="66.89" ry="18"/>
<text text-anchor="middle" x="543" y="-101.3" font-family="Times,serif" font-size="14.00">यशस्विनी(11.1)</text>
</g>
<!-- Node11_1&#45;&gt;Node9_1 -->
<g id="edge14" class="edge">
<title>Node11_1&#45;&gt;Node9_1</title>
<path fill="none" stroke="black" d="M539.47,-133.27C537.75,-146.58 535.73,-162.19 534.22,-173.82"/>
<polygon fill="black" stroke="black" points="542.96,-133.57 540.77,-123.2 536.02,-132.67 542.96,-133.57"/>
<text text-anchor="middle" x="561.5" y="-144.8" font-family="Times,serif" font-size="14.00">विशेषणम्</text>
</g>
<!-- Node8_2 -->
<g id="node5" class="node">
<title>Node8_2</title>
<ellipse fill="#40e0d0" stroke="#40e0d0" cx="67" cy="-192" rx="51.19" ry="18"/>
<text text-anchor="middle" x="67" y="-188.3" font-family="Times,serif" font-size="14.00">भृत्येन(8.2)</text>
</g>
<!-- Node1_1 -->
<g id="node6" class="node">
<title>Node1_1</title>
<ellipse fill="#40e0d0" stroke="#40e0d0" cx="71" cy="-279" rx="46.59" ry="18"/>
<text text-anchor="middle" x="71" y="-275.3" font-family="Times,serif" font-size="14.00">त्वया(1.1)</text>
</g>
<!-- Node8_2&#45;&gt;Node1_1 -->
<g id="edge11" class="edge">
<title>Node8_2&#45;&gt;Node1_1</title>
<path fill="none" stroke="black" d="M68.28,-220.27C68.91,-233.58 69.64,-249.19 70.19,-260.82"/>
<polygon fill="black" stroke="black" points="71.78,-220.03 67.81,-210.2 64.78,-220.35 71.78,-220.03"/>
<text text-anchor="middle" x="92.5" y="-231.8" font-family="Times,serif" font-size="14.00">विशेषणम्</text>
</g>
<!-- Node1_1&#45;&gt;Node12_1 -->
<g id="edge1" class="edge">
<title>Node1_1&#45;&gt;Node12_1</title>
<path fill="none" stroke="black" d="M111.29,-296.95C148.81,-312.74 204.1,-336.01 239.33,-350.83"/>
<polygon fill="black" stroke="black" points="112.25,-293.56 101.68,-292.91 109.54,-300.01 112.25,-293.56"/>
<text text-anchor="middle" x="196" y="-318.8" font-family="Times,serif" font-size="14.00">कर्ता</text>
</g>
<!-- Node2_1 -->
<g id="node8" class="node">
<title>Node2_1</title>
<ellipse fill="#ff99ff" stroke="#ff99ff" cx="174" cy="-192" rx="37.89" ry="18"/>
<text text-anchor="middle" x="174" y="-188.3" font-family="Times,serif" font-size="14.00">च(2.1)</text>
</g>
<!-- Node2_1&#45;&gt;Node1_1 -->
<g id="edge2" class="edge">
<title>Node2_1&#45;&gt;Node1_1</title>
<path fill="none" stroke="black" d="M150.47,-215.42C140.91,-224.25 129.63,-234.34 119,-243 110.69,-249.78 101.21,-256.82 92.88,-262.8"/>
<polygon fill="black" stroke="black" points="153.12,-217.73 158.04,-208.35 148.34,-212.61 153.12,-217.73"/>
<text text-anchor="middle" x="155.5" y="-231.8" font-family="Times,serif" font-size="14.00">सम्बन्धः</text>
</g>
<!-- Node4_1 -->
<g id="node9" class="node">
<title>Node4_1</title>
<ellipse fill="#ffff00" stroke="#ffff00" cx="273" cy="-192" rx="43.59" ry="18"/>
<text text-anchor="middle" x="273" y="-188.3" font-family="Times,serif" font-size="14.00">नर&#45;(4.1)</text>
</g>
<!-- Node4_2 -->
<g id="node10" class="node">
<title>Node4_2</title>
<ellipse fill="#6fffc3" stroke="#6fffc3" cx="273" cy="-279" rx="47.39" ry="18"/>
<text text-anchor="middle" x="273" y="-275.3" font-family="Times,serif" font-size="14.00">व्याघ्र(4.2)</text>
</g>
<!-- Node4_1&#45;&gt;Node4_2 -->
<g id="edge4" class="edge">
<title>Node4_1&#45;&gt;Node4_2</title>
<path fill="none" stroke="black" d="M273,-220.27C273,-233.58 273,-249.19 273,-260.82"/>
<polygon fill="black" stroke="black" points="276.5,-220.2 273,-210.2 269.5,-220.2 276.5,-220.2"/>
<text text-anchor="middle" x="283" y="-231.8" font-family="Times,serif" font-size="14.00">K5</text>
</g>
<!-- Node4_2&#45;&gt;Node12_1 -->
<g id="edge5" class="edge">
<title>Node4_2&#45;&gt;Node12_1</title>
<path fill="none" stroke="black" d="M273,-307.27C273,-320.58 273,-336.19 273,-347.82"/>
<polygon fill="black" stroke="black" points="276.5,-307.2 273,-297.2 269.5,-307.2 276.5,-307.2"/>
<text text-anchor="middle" x="294" y="-318.8" font-family="Times,serif" font-size="14.00">सम्बोध्यः</text>
</g>
<!-- Node5_1 -->
<g id="node11" class="node">
<title>Node5_1</title>
<ellipse fill="#ffff00" stroke="#ffff00" cx="396" cy="-18" rx="44.69" ry="18"/>
<text text-anchor="middle" x="396" y="-14.3" font-family="Times,serif" font-size="14.00">गुरु&#45;(5.1)</text>
</g>
<!-- Node5_2 -->
<g id="node12" class="node">
<title>Node5_2</title>
<ellipse fill="#40e0d0" stroke="#40e0d0" cx="396" cy="-105" rx="55.79" ry="18"/>
<text text-anchor="middle" x="396" y="-101.3" font-family="Times,serif" font-size="14.00">शुश्रूषया(5.2)</text>
</g>
<!-- Node5_1&#45;&gt;Node5_2 -->
<g id="edge6" class="edge">
<title>Node5_1&#45;&gt;Node5_2</title>
<path fill="none" stroke="black" d="M396,-46.27C396,-59.58 396,-75.19 396,-86.82"/>
<polygon fill="black" stroke="black" points="399.5,-46.2 396,-36.2 392.5,-46.2 399.5,-46.2"/>
<text text-anchor="middle" x="405.5" y="-57.8" font-family="Times,serif" font-size="14.00">T6</text>
</g>
<!-- Node7_1 -->
<g id="node13" class="node">
<title>Node7_1</title>
<ellipse fill="#00bfff" stroke="#00bfff" cx="396" cy="-192" rx="61.99" ry="18"/>
<text text-anchor="middle" x="396" y="-188.3" font-family="Times,serif" font-size="14.00">आराधितः(7.1)</text>
</g>
<!-- Node5_2&#45;&gt;Node7_1 -->
<g id="edge7" class="edge">
<title>Node5_2&#45;&gt;Node7_1</title>
<path fill="none" stroke="black" d="M396,-133.27C396,-146.58 396,-162.19 396,-173.82"/>
<polygon fill="black" stroke="black" points="399.5,-133.2 396,-123.2 392.5,-133.2 399.5,-133.2"/>
<text text-anchor="middle" x="412.5" y="-144.8" font-family="Times,serif" font-size="14.00">करणम्</text>
</g>
<!-- Node7_1&#45;&gt;Node6_1 -->
<g id="edge9" class="edge">
<title>Node7_1&#45;&gt;Node6_1</title>
<path fill="none" stroke="black" d="M421.16,-216.02C431.77,-225.07 444.53,-235.15 457,-243 470.99,-251.8 487.54,-259.76 501.54,-265.85"/>
<polygon fill="black" stroke="black" points="423.35,-213.29 413.51,-209.35 418.75,-218.56 423.35,-213.29"/>
<text text-anchor="middle" x="492.5" y="-231.8" font-family="Times,serif" font-size="14.00">विधेयविशेषणम्</text>
</g>
<!-- Node8_1 -->
<g id="node14" class="node">
<title>Node8_1</title>
<ellipse fill="#ffff00" stroke="#ffff00" cx="67" cy="-105" rx="40.89" ry="18"/>
<text text-anchor="middle" x="67" y="-101.3" font-family="Times,serif" font-size="14.00">स&#45;(8.1)</text>
</g>
<!-- Node8_1&#45;&gt;Node8_2 -->
<g id="edge10" class="edge">
<title>Node8_1&#45;&gt;Node8_2</title>
<path fill="none" stroke="black" d="M67,-133.27C67,-146.58 67,-162.19 67,-173.82"/>
<polygon fill="black" stroke="black" points="70.5,-133.2 67,-123.2 63.5,-133.2 70.5,-133.2"/>
<text text-anchor="middle" x="80.5" y="-144.8" font-family="Times,serif" font-size="14.00">Bvs</text>
</g>
<!-- Node10_1 -->
<g id="node15" class="node">
<title>Node10_1</title>
<ellipse fill="#ff99ff" stroke="#ff99ff" cx="764" cy="-192" rx="43.59" ry="18"/>
<text text-anchor="middle" x="764" y="-188.3" font-family="Times,serif" font-size="14.00">च(10.1)</text>
</g>
<!-- Node10_1&#45;&gt;Node6_1 -->
<g id="edge13" class="edge">
<title>Node10_1&#45;&gt;Node6_1</title>
<path fill="none" stroke="black" d="M727.4,-210.45C705.28,-220.64 676.34,-233.36 650,-243 623.01,-252.88 591.81,-262.04 568.27,-268.51"/>
<polygon fill="black" stroke="black" points="729.16,-213.49 736.75,-206.1 726.21,-207.14 729.16,-213.49"/>
<text text-anchor="middle" x="722" y="-231.8" font-family="Times,serif" font-size="14.00">समुच्चय_द्योतकः</text>
</g>
</g>
</svg>
