<?xml version="1.0" encoding="UTF-8" standalone="no"?>
<!DOCTYPE svg PUBLIC "-//W3C//DTD SVG 1.1//EN"
 "http://www.w3.org/Graphics/SVG/1.1/DTD/svg11.dtd">
<!-- Generated by graphviz version 2.43.0 (0)
 -->
<!-- Title: G Pages: 1 -->
<svg width="716pt" height="408pt"
 viewBox="0.00 0.00 716.00 408.00" xmlns="http://www.w3.org/2000/svg" xmlns:xlink="http://www.w3.org/1999/xlink">
<g id="graph0" class="graph" transform="scale(1 1) rotate(0) translate(4 404)">
<title>G</title>
<polygon fill="#fffacd" stroke="transparent" points="-4,4 -4,-404 712,-404 712,4 -4,4"/>
<g id="clust1" class="cluster">
<title>cluster_1</title>
<polygon fill="#fffacd" stroke="black" points="8,-8 8,-147 266,-147 266,-8 8,-8"/>
</g>
<!-- Node12_1 -->
<g id="node1" class="node">
<title>Node12_1</title>
<ellipse fill="#87ceeb" stroke="#87ceeb" cx="205" cy="-34" rx="53.09" ry="18"/>
<text text-anchor="middle" x="205" y="-30.3" font-family="Times,serif" font-size="14.00">अस्य(12.1)</text>
</g>
<!-- Node13_1 -->
<g id="node2" class="node">
<title>Node13_1</title>
<ellipse fill="#87ceeb" stroke="#87ceeb" cx="196" cy="-121" rx="61.99" ry="18"/>
<text text-anchor="middle" x="196" y="-117.3" font-family="Times,serif" font-size="14.00">राज्यस्य(13.1)</text>
</g>
<!-- Node12_1&#45;&gt;Node13_1 -->
<g id="edge10" class="edge">
<title>Node12_1&#45;&gt;Node13_1</title>
<path fill="none" stroke="black" d="M202.11,-62.27C200.7,-75.58 199.05,-91.19 197.82,-102.82"/>
<polygon fill="black" stroke="black" points="205.61,-62.51 203.18,-52.2 198.65,-61.78 205.61,-62.51"/>
<text text-anchor="middle" x="224.5" y="-73.8" font-family="Times,serif" font-size="14.00">विशेषणम्</text>
</g>
<!-- Node16_1 -->
<g id="node16" class="node">
<title>Node16_1</title>
<ellipse fill="#00bfff" stroke="#00bfff" cx="196" cy="-208" rx="64.99" ry="18"/>
<text text-anchor="middle" x="196" y="-204.3" font-family="Times,serif" font-size="14.00">परायणम्(16.1)</text>
</g>
<!-- Node13_1&#45;&gt;Node16_1 -->
<g id="edge11" class="edge">
<title>Node13_1&#45;&gt;Node16_1</title>
<path fill="none" stroke="black" d="M196,-149.27C196,-162.58 196,-178.19 196,-189.82"/>
<polygon fill="black" stroke="black" points="199.5,-149.2 196,-139.2 192.5,-149.2 199.5,-149.2"/>
<text text-anchor="middle" x="223.5" y="-160.8" font-family="Times,serif" font-size="14.00">षष्ठीसम्बन्धः</text>
</g>
<!-- Node14_1 -->
<g id="node3" class="node">
<title>Node14_1</title>
<ellipse fill="#87ceeb" stroke="#87ceeb" cx="75" cy="-34" rx="59.29" ry="18"/>
<text text-anchor="middle" x="75" y="-30.3" font-family="Times,serif" font-size="14.00">कुलस्य(14.1)</text>
</g>
<!-- Node14_1&#45;&gt;Node13_1 -->
<g id="edge12" class="edge">
<title>Node14_1&#45;&gt;Node13_1</title>
<path fill="none" stroke="black" d="M105.76,-56.61C126.78,-71.37 154.17,-90.61 173.23,-104.01"/>
<polygon fill="black" stroke="black" points="107.67,-53.67 97.48,-50.79 103.65,-59.4 107.67,-53.67"/>
<text text-anchor="middle" x="165.5" y="-73.8" font-family="Times,serif" font-size="14.00">समुच्चितः</text>
</g>
<!-- Node1_1 -->
<g id="node4" class="node">
<title>Node1_1</title>
<ellipse fill="#00bfff" stroke="#00bfff" cx="396" cy="-208" rx="54.69" ry="18"/>
<text text-anchor="middle" x="396" y="-204.3" font-family="Times,serif" font-size="14.00">भगवान्(1.1)</text>
</g>
<!-- Node5_1 -->
<g id="node5" class="node">
<title>Node5_1</title>
<ellipse fill="#ff1975" stroke="#ff1975" cx="396" cy="-295" rx="56.59" ry="18"/>
<text text-anchor="middle" x="396" y="-291.3" font-family="Times,serif" font-size="14.00">(अस्ति)(5.1)</text>
</g>
<!-- Node1_1&#45;&gt;Node5_1 -->
<g id="edge1" class="edge">
<title>Node1_1&#45;&gt;Node5_1</title>
<path fill="none" stroke="black" d="M396,-236.27C396,-249.58 396,-265.19 396,-276.82"/>
<polygon fill="black" stroke="black" points="399.5,-236.2 396,-226.2 392.5,-236.2 399.5,-236.2"/>
<text text-anchor="middle" x="407" y="-247.8" font-family="Times,serif" font-size="14.00">कर्ता</text>
</g>
<!-- Node2_1 -->
<g id="node6" class="node">
<title>Node2_1</title>
<ellipse fill="#ff99ff" stroke="#ff99ff" cx="317" cy="-121" rx="41.69" ry="18"/>
<text text-anchor="middle" x="317" y="-117.3" font-family="Times,serif" font-size="14.00">एव(2.1)</text>
</g>
<!-- Node2_1&#45;&gt;Node1_1 -->
<g id="edge2" class="edge">
<title>Node2_1&#45;&gt;Node1_1</title>
<path fill="none" stroke="black" d="M338.84,-145.5C352.13,-159.8 368.77,-177.71 380.67,-190.5"/>
<polygon fill="black" stroke="black" points="341.23,-142.93 331.86,-137.99 336.1,-147.7 341.23,-142.93"/>
<text text-anchor="middle" x="380.5" y="-160.8" font-family="Times,serif" font-size="14.00">सम्बन्धः</text>
</g>
<!-- Node3_1 -->
<g id="node7" class="node">
<title>Node3_1</title>
<ellipse fill="#87ceeb" stroke="#87ceeb" cx="426" cy="-34" rx="39.79" ry="18"/>
<text text-anchor="middle" x="426" y="-30.3" font-family="Times,serif" font-size="14.00">नः(3.1)</text>
</g>
<!-- Node4_1 -->
<g id="node8" class="node">
<title>Node4_1</title>
<ellipse fill="#00bfff" stroke="#00bfff" cx="426" cy="-121" rx="49.29" ry="18"/>
<text text-anchor="middle" x="426" y="-117.3" font-family="Times,serif" font-size="14.00">मान्यः(4.1)</text>
</g>
<!-- Node3_1&#45;&gt;Node4_1 -->
<g id="edge3" class="edge">
<title>Node3_1&#45;&gt;Node4_1</title>
<path fill="none" stroke="black" d="M426,-62.27C426,-75.58 426,-91.19 426,-102.82"/>
<polygon fill="black" stroke="black" points="429.5,-62.2 426,-52.2 422.5,-62.2 429.5,-62.2"/>
<text text-anchor="middle" x="453.5" y="-73.8" font-family="Times,serif" font-size="14.00">षष्ठीसम्बन्धः</text>
</g>
<!-- Node4_1&#45;&gt;Node1_1 -->
<g id="edge4" class="edge">
<title>Node4_1&#45;&gt;Node1_1</title>
<path fill="none" stroke="black" d="M416.52,-148.87C411.79,-162.27 406.21,-178.08 402.06,-189.82"/>
<polygon fill="black" stroke="black" points="419.9,-149.8 419.93,-139.2 413.3,-147.47 419.9,-149.8"/>
<text text-anchor="middle" x="451" y="-160.8" font-family="Times,serif" font-size="14.00">विधेय_विशेषणम्</text>
</g>
<!-- Node6_1 -->
<g id="node9" class="node">
<title>Node6_1</title>
<ellipse fill="#00bfff" stroke="#00bfff" cx="572" cy="-208" rx="54.69" ry="18"/>
<text text-anchor="middle" x="572" y="-204.3" font-family="Times,serif" font-size="14.00">भगवान्(6.1)</text>
</g>
<!-- Node10_1 -->
<g id="node10" class="node">
<title>Node10_1</title>
<ellipse fill="#ff1975" stroke="#ff1975" cx="572" cy="-295" rx="62.29" ry="18"/>
<text text-anchor="middle" x="572" y="-291.3" font-family="Times,serif" font-size="14.00">(अस्ति)(10.1)</text>
</g>
<!-- Node6_1&#45;&gt;Node10_1 -->
<g id="edge5" class="edge">
<title>Node6_1&#45;&gt;Node10_1</title>
<path fill="none" stroke="black" d="M572,-236.27C572,-249.58 572,-265.19 572,-276.82"/>
<polygon fill="black" stroke="black" points="575.5,-236.2 572,-226.2 568.5,-236.2 575.5,-236.2"/>
<text text-anchor="middle" x="583" y="-247.8" font-family="Times,serif" font-size="14.00">कर्ता</text>
</g>
<!-- Node7_1 -->
<g id="node11" class="node">
<title>Node7_1</title>
<ellipse fill="#ff99ff" stroke="#ff99ff" cx="549" cy="-121" rx="41.69" ry="18"/>
<text text-anchor="middle" x="549" y="-117.3" font-family="Times,serif" font-size="14.00">एव(7.1)</text>
</g>
<!-- Node7_1&#45;&gt;Node6_1 -->
<g id="edge6" class="edge">
<title>Node7_1&#45;&gt;Node6_1</title>
<path fill="none" stroke="black" d="M556.27,-148.87C559.9,-162.27 564.17,-178.08 567.35,-189.82"/>
<polygon fill="black" stroke="black" points="559.64,-147.94 553.65,-139.2 552.89,-149.77 559.64,-147.94"/>
<text text-anchor="middle" x="579.5" y="-160.8" font-family="Times,serif" font-size="14.00">सम्बन्धः</text>
</g>
<!-- Node8_1 -->
<g id="node12" class="node">
<title>Node8_1</title>
<ellipse fill="#87ceeb" stroke="#87ceeb" cx="653" cy="-34" rx="39.79" ry="18"/>
<text text-anchor="middle" x="653" y="-30.3" font-family="Times,serif" font-size="14.00">नः(8.1)</text>
</g>
<!-- Node9_1 -->
<g id="node13" class="node">
<title>Node9_1</title>
<ellipse fill="#00bfff" stroke="#00bfff" cx="653" cy="-121" rx="44.39" ry="18"/>
<text text-anchor="middle" x="653" y="-117.3" font-family="Times,serif" font-size="14.00">गुरुः(9.1)</text>
</g>
<!-- Node8_1&#45;&gt;Node9_1 -->
<g id="edge7" class="edge">
<title>Node8_1&#45;&gt;Node9_1</title>
<path fill="none" stroke="black" d="M653,-62.27C653,-75.58 653,-91.19 653,-102.82"/>
<polygon fill="black" stroke="black" points="656.5,-62.2 653,-52.2 649.5,-62.2 656.5,-62.2"/>
<text text-anchor="middle" x="680.5" y="-73.8" font-family="Times,serif" font-size="14.00">षष्ठीसम्बन्धः</text>
</g>
<!-- Node9_1&#45;&gt;Node6_1 -->
<g id="edge8" class="edge">
<title>Node9_1&#45;&gt;Node6_1</title>
<path fill="none" stroke="black" d="M630.6,-145.5C616.98,-159.8 599.91,-177.71 587.72,-190.5"/>
<polygon fill="black" stroke="black" points="633.4,-147.64 637.76,-137.99 628.33,-142.81 633.4,-147.64"/>
<text text-anchor="middle" x="656" y="-160.8" font-family="Times,serif" font-size="14.00">विधेय_विशेषणम्</text>
</g>
<!-- Node11_1 -->
<g id="node14" class="node">
<title>Node11_1</title>
<ellipse fill="#00bfff" stroke="#00bfff" cx="196" cy="-295" rx="60.39" ry="18"/>
<text text-anchor="middle" x="196" y="-291.3" font-family="Times,serif" font-size="14.00">भगवान्(11.1)</text>
</g>
<!-- Node17_1 -->
<g id="node15" class="node">
<title>Node17_1</title>
<ellipse fill="#ff1975" stroke="#ff1975" cx="196" cy="-382" rx="62.29" ry="18"/>
<text text-anchor="middle" x="196" y="-378.3" font-family="Times,serif" font-size="14.00">(अस्ति)(17.1)</text>
</g>
<!-- Node11_1&#45;&gt;Node17_1 -->
<g id="edge9" class="edge">
<title>Node11_1&#45;&gt;Node17_1</title>
<path fill="none" stroke="black" d="M196,-323.27C196,-336.58 196,-352.19 196,-363.82"/>
<polygon fill="black" stroke="black" points="199.5,-323.2 196,-313.2 192.5,-323.2 199.5,-323.2"/>
<text text-anchor="middle" x="207" y="-334.8" font-family="Times,serif" font-size="14.00">कर्ता</text>
</g>
<!-- Node16_1&#45;&gt;Node11_1 -->
<g id="edge14" class="edge">
<title>Node16_1&#45;&gt;Node11_1</title>
<path fill="none" stroke="black" d="M196,-236.27C196,-249.58 196,-265.19 196,-276.82"/>
<polygon fill="black" stroke="black" points="199.5,-236.2 196,-226.2 192.5,-236.2 199.5,-236.2"/>
<text text-anchor="middle" x="235" y="-247.8" font-family="Times,serif" font-size="14.00">विधेय_विशेषणम्</text>
</g>
<!-- Node15_1 -->
<g id="node17" class="node">
<title>Node15_1</title>
<ellipse fill="#ff99ff" stroke="#ff99ff" cx="320" cy="-34" rx="43.59" ry="18"/>
<text text-anchor="middle" x="320" y="-30.3" font-family="Times,serif" font-size="14.00">च(15.1)</text>
</g>
<!-- Node15_1&#45;&gt;Node13_1 -->
<g id="edge13" class="edge">
<title>Node15_1&#45;&gt;Node13_1</title>
<path fill="none" stroke="black" d="M291.57,-56.19C279.22,-65.24 264.52,-75.81 251,-85 241.36,-91.55 230.57,-98.5 221.12,-104.46"/>
<polygon fill="black" stroke="black" points="293.72,-58.95 299.7,-50.2 289.57,-53.32 293.72,-58.95"/>
<text text-anchor="middle" x="311" y="-73.8" font-family="Times,serif" font-size="14.00">समुच्चय_द्योतकः</text>
</g>
</g>
</svg>
