<?xml version="1.0" encoding="UTF-8" standalone="no"?>
<!DOCTYPE svg PUBLIC "-//W3C//DTD SVG 1.1//EN"
 "http://www.w3.org/Graphics/SVG/1.1/DTD/svg11.dtd">
<!-- Generated by graphviz version 2.43.0 (0)
 -->
<!-- Title: G Pages: 1 -->
<svg width="604pt" height="495pt"
 viewBox="0.00 0.00 603.79 495.00" xmlns="http://www.w3.org/2000/svg" xmlns:xlink="http://www.w3.org/1999/xlink">
<g id="graph0" class="graph" transform="scale(1 1) rotate(0) translate(4 491)">
<title>G</title>
<polygon fill="#fffacd" stroke="transparent" points="-4,4 -4,-491 599.79,-491 599.79,4 -4,4"/>
<g id="clust1" class="cluster">
<title>cluster_1</title>
<polygon fill="#fffacd" stroke="black" points="346.05,-8 346.05,-147 464.05,-147 464.05,-8 346.05,-8"/>
</g>
<g id="clust2" class="cluster">
<title>cluster_2</title>
<polygon fill="#fffacd" stroke="black" points="344.05,-269 344.05,-408 462.05,-408 462.05,-269 344.05,-269"/>
</g>
<!-- Node7_1 -->
<g id="node1" class="node">
<title>Node7_1</title>
<ellipse fill="lightgrey" stroke="black" cx="405.05" cy="-34" rx="48.99" ry="18"/>
<text text-anchor="middle" x="405.05" y="-30.3" font-family="Times,serif" font-size="14.00">अभेदे(7.1)</text>
</g>
<!-- Node6_1 -->
<g id="node2" class="node">
<title>Node6_1</title>
<ellipse fill="lightgrey" stroke="black" cx="405.05" cy="-121" rx="50.89" ry="18"/>
<text text-anchor="middle" x="405.05" y="-117.3" font-family="Times,serif" font-size="14.00">मन्त्रि&#45;(6.1)</text>
</g>
<!-- Node7_1&#45;&gt;Node6_1 -->
<g id="edge8" class="edge">
<title>Node7_1&#45;&gt;Node6_1</title>
<path fill="none" stroke="black" d="M405.05,-62.27C405.05,-75.58 405.05,-91.19 405.05,-102.82"/>
<polygon fill="black" stroke="black" points="408.55,-62.2 405.05,-52.2 401.55,-62.2 408.55,-62.2"/>
<text text-anchor="middle" x="427.55" y="-73.8" font-family="Times,serif" font-size="14.00">समुच्चितः</text>
</g>
<!-- Node6_2 -->
<g id="node10" class="node">
<title>Node6_2</title>
<ellipse fill="lightgrey" stroke="black" cx="405.05" cy="-208" rx="51.99" ry="18"/>
<text text-anchor="middle" x="405.05" y="-204.3" font-family="Times,serif" font-size="14.00">मण्डले(6.2)</text>
</g>
<!-- Node6_1&#45;&gt;Node6_2 -->
<g id="edge6" class="edge">
<title>Node6_1&#45;&gt;Node6_2</title>
<path fill="none" stroke="black" d="M405.05,-149.27C405.05,-162.58 405.05,-178.19 405.05,-189.82"/>
<polygon fill="black" stroke="black" points="408.55,-149.2 405.05,-139.2 401.55,-149.2 408.55,-149.2"/>
<text text-anchor="middle" x="422.05" y="-160.8" font-family="Times,serif" font-size="14.00">समासः</text>
</g>
<!-- Node9_1 -->
<g id="node3" class="node">
<title>Node9_1</title>
<ellipse fill="lightgrey" stroke="black" cx="403.05" cy="-295" rx="50.89" ry="18"/>
<text text-anchor="middle" x="403.05" y="-291.3" font-family="Times,serif" font-size="14.00">गुणान्(9.1)</text>
</g>
<!-- Node1_1 -->
<g id="node4" class="node">
<title>Node1_1</title>
<ellipse fill="lightgrey" stroke="black" cx="403.05" cy="-382" rx="51.19" ry="18"/>
<text text-anchor="middle" x="403.05" y="-378.3" font-family="Times,serif" font-size="14.00">दोषान्(1.1)</text>
</g>
<!-- Node9_1&#45;&gt;Node1_1 -->
<g id="edge10" class="edge">
<title>Node9_1&#45;&gt;Node1_1</title>
<path fill="none" stroke="black" d="M403.05,-323.27C403.05,-336.58 403.05,-352.19 403.05,-363.82"/>
<polygon fill="black" stroke="black" points="406.55,-323.2 403.05,-313.2 399.55,-323.2 406.55,-323.2"/>
<text text-anchor="middle" x="425.55" y="-334.8" font-family="Times,serif" font-size="14.00">समुच्चितः</text>
</g>
<!-- Node4_1 -->
<g id="node5" class="node">
<title>Node4_1</title>
<ellipse fill="lightgrey" stroke="black" cx="279.05" cy="-469" rx="46.29" ry="18"/>
<text text-anchor="middle" x="279.05" y="-465.3" font-family="Times,serif" font-size="14.00">ब्रूयाः(4.1)</text>
</g>
<!-- Node1_1&#45;&gt;Node4_1 -->
<g id="edge1" class="edge">
<title>Node1_1&#45;&gt;Node4_1</title>
<path fill="none" stroke="black" d="M372.18,-404.16C350.02,-419.35 320.7,-439.45 300.92,-453.01"/>
<polygon fill="black" stroke="black" points="374.32,-406.93 380.59,-398.39 370.36,-401.16 374.32,-406.93"/>
<text text-anchor="middle" x="368.05" y="-421.8" font-family="Times,serif" font-size="14.00">मुख्यकर्म</text>
</g>
<!-- Node2_1 -->
<g id="node6" class="node">
<title>Node2_1</title>
<ellipse fill="lightgrey" stroke="black" cx="184.05" cy="-295" rx="37.89" ry="18"/>
<text text-anchor="middle" x="184.05" y="-291.3" font-family="Times,serif" font-size="14.00">च(2.1)</text>
</g>
<!-- Node2_1&#45;&gt;Node1_1 -->
<g id="edge2" class="edge">
<title>Node2_1&#45;&gt;Node1_1</title>
<path fill="none" stroke="black" d="M206.38,-318.96C217.17,-328.75 230.85,-339.42 245.05,-346 285.22,-364.63 299.92,-353.95 343.05,-364 350.22,-365.67 357.81,-367.65 365.1,-369.66"/>
<polygon fill="black" stroke="black" points="208.74,-316.37 199.07,-312.05 203.94,-321.46 208.74,-316.37"/>
<text text-anchor="middle" x="283.05" y="-334.8" font-family="Times,serif" font-size="14.00">समुच्चय_द्योतकः</text>
</g>
<!-- Node3_1 -->
<g id="node7" class="node">
<title>Node3_1</title>
<ellipse fill="lightgrey" stroke="black" cx="287.05" cy="-208" rx="48.19" ry="18"/>
<text text-anchor="middle" x="287.05" y="-204.3" font-family="Times,serif" font-size="14.00">मन्त्र&#45;(3.1)</text>
</g>
<!-- Node3_2 -->
<g id="node8" class="node">
<title>Node3_2</title>
<ellipse fill="lightgrey" stroke="black" cx="287.05" cy="-295" rx="47.39" ry="18"/>
<text text-anchor="middle" x="287.05" y="-291.3" font-family="Times,serif" font-size="14.00">भेदेषु(3.2)</text>
</g>
<!-- Node3_1&#45;&gt;Node3_2 -->
<g id="edge3" class="edge">
<title>Node3_1&#45;&gt;Node3_2</title>
<path fill="none" stroke="black" d="M287.05,-236.27C287.05,-249.58 287.05,-265.19 287.05,-276.82"/>
<polygon fill="black" stroke="black" points="290.55,-236.2 287.05,-226.2 283.55,-236.2 290.55,-236.2"/>
<text text-anchor="middle" x="304.05" y="-247.8" font-family="Times,serif" font-size="14.00">समासः</text>
</g>
<!-- Node3_2&#45;&gt;Node1_1 -->
<g id="edge4" class="edge">
<title>Node3_2&#45;&gt;Node1_1</title>
<path fill="none" stroke="black" d="M311.26,-319.01C321.1,-327.87 332.78,-337.83 344.05,-346 354.17,-353.34 365.91,-360.55 376.24,-366.5"/>
<polygon fill="black" stroke="black" points="313.55,-316.36 303.82,-312.18 308.83,-321.52 313.55,-316.36"/>
<text text-anchor="middle" x="371.55" y="-334.8" font-family="Times,serif" font-size="14.00">अधिकरणम्</text>
</g>
<!-- Node5_1 -->
<g id="node9" class="node">
<title>Node5_1</title>
<ellipse fill="lightgrey" stroke="black" cx="162.05" cy="-382" rx="44.39" ry="18"/>
<text text-anchor="middle" x="162.05" y="-378.3" font-family="Times,serif" font-size="14.00">त्वम्(5.1)</text>
</g>
<!-- Node5_1&#45;&gt;Node4_1 -->
<g id="edge5" class="edge">
<title>Node5_1&#45;&gt;Node4_1</title>
<path fill="none" stroke="black" d="M190.89,-403.95C211.76,-419.11 239.47,-439.25 258.21,-452.86"/>
<polygon fill="black" stroke="black" points="192.84,-401.05 182.69,-398 188.73,-406.71 192.84,-401.05"/>
<text text-anchor="middle" x="239.05" y="-421.8" font-family="Times,serif" font-size="14.00">कर्ता</text>
</g>
<!-- Node6_2&#45;&gt;Node9_1 -->
<g id="edge7" class="edge">
<title>Node6_2&#45;&gt;Node9_1</title>
<path fill="none" stroke="black" d="M404.4,-236.27C404.09,-249.58 403.72,-265.19 403.45,-276.82"/>
<polygon fill="black" stroke="black" points="407.9,-236.28 404.64,-226.2 400.91,-236.12 407.9,-236.28"/>
<text text-anchor="middle" x="431.55" y="-247.8" font-family="Times,serif" font-size="14.00">अधिकरणम्</text>
</g>
<!-- Node8_1 -->
<g id="node11" class="node">
<title>Node8_1</title>
<ellipse fill="lightgrey" stroke="black" cx="510.05" cy="-34" rx="37.89" ry="18"/>
<text text-anchor="middle" x="510.05" y="-30.3" font-family="Times,serif" font-size="14.00">च(8.1)</text>
</g>
<!-- Node8_1&#45;&gt;Node6_1 -->
<g id="edge9" class="edge">
<title>Node8_1&#45;&gt;Node6_1</title>
<path fill="none" stroke="black" d="M486.37,-57.17C476.57,-66.07 464.97,-76.26 454.05,-85 445.55,-91.79 435.88,-98.84 427.38,-104.82"/>
<polygon fill="black" stroke="black" points="488.79,-59.7 493.79,-50.36 484.06,-54.54 488.79,-59.7"/>
<text text-anchor="middle" x="509.05" y="-73.8" font-family="Times,serif" font-size="14.00">समुच्चय_द्योतकः</text>
</g>
<!-- Node10_1 -->
<g id="node12" class="node">
<title>Node10_1</title>
<ellipse fill="lightgrey" stroke="black" cx="279.05" cy="-382" rx="54.69" ry="18"/>
<text text-anchor="middle" x="279.05" y="-378.3" font-family="Times,serif" font-size="14.00">राजन्(10.1)</text>
</g>
<!-- Node10_1&#45;&gt;Node4_1 -->
<g id="edge11" class="edge">
<title>Node10_1&#45;&gt;Node4_1</title>
<path fill="none" stroke="black" d="M279.05,-410.27C279.05,-423.58 279.05,-439.19 279.05,-450.82"/>
<polygon fill="black" stroke="black" points="282.55,-410.2 279.05,-400.2 275.55,-410.2 282.55,-410.2"/>
<text text-anchor="middle" x="300.05" y="-421.8" font-family="Times,serif" font-size="14.00">सम्बोध्यः</text>
</g>
<!-- Node11_1 -->
<g id="node13" class="node">
<title>Node11_1</title>
<ellipse fill="lightgrey" stroke="black" cx="50.05" cy="-295" rx="50.09" ry="18"/>
<text text-anchor="middle" x="50.05" y="-291.3" font-family="Times,serif" font-size="14.00">पुनः(11.1)</text>
</g>
<!-- Node12_1 -->
<g id="node14" class="node">
<title>Node12_1</title>
<ellipse fill="lightgrey" stroke="black" cx="50.05" cy="-382" rx="50.09" ry="18"/>
<text text-anchor="middle" x="50.05" y="-378.3" font-family="Times,serif" font-size="14.00">पुनः(12.1)</text>
</g>
<!-- Node11_1&#45;&gt;Node12_1 -->
<g id="edge12" class="edge">
<title>Node11_1&#45;&gt;Node12_1</title>
<path fill="none" stroke="black" d="M50.05,-323.27C50.05,-336.58 50.05,-352.19 50.05,-363.82"/>
<polygon fill="black" stroke="black" points="53.55,-323.2 50.05,-313.2 46.55,-323.2 53.55,-323.2"/>
<text text-anchor="middle" x="64.05" y="-334.8" font-family="Times,serif" font-size="14.00">वीप्सा</text>
</g>
<!-- Node12_1&#45;&gt;Node4_1 -->
<g id="edge13" class="edge">
<title>Node12_1&#45;&gt;Node4_1</title>
<path fill="none" stroke="black" d="M82.1,-403.49C98.85,-413.5 119.99,-425.06 140.05,-433 171.98,-445.64 209.87,-454.82 238.03,-460.6"/>
<polygon fill="black" stroke="black" points="83.64,-400.34 73.28,-398.13 80,-406.32 83.64,-400.34"/>
<text text-anchor="middle" x="175.05" y="-421.8" font-family="Times,serif" font-size="14.00">क्रियाविशेषणम्</text>
</g>
<!-- Node13_1 -->
<g id="node15" class="node">
<title>Node13_1</title>
<ellipse fill="lightgrey" stroke="black" cx="534.05" cy="-382" rx="61.99" ry="18"/>
<text text-anchor="middle" x="534.05" y="-378.3" font-family="Times,serif" font-size="14.00">अरिन्दम(13.1)</text>
</g>
<!-- Node13_1&#45;&gt;Node4_1 -->
<g id="edge14" class="edge">
<title>Node13_1&#45;&gt;Node4_1</title>
<path fill="none" stroke="black" d="M487.7,-400.23C480.46,-402.86 473.06,-405.53 466.05,-408 433.31,-419.55 425.07,-422.31 392.05,-433 366.06,-441.41 336.57,-450.53 314.24,-457.35"/>
<polygon fill="black" stroke="black" points="489.22,-403.4 497.41,-396.67 486.81,-396.82 489.22,-403.4"/>
<text text-anchor="middle" x="457.05" y="-421.8" font-family="Times,serif" font-size="14.00">सम्बोध्यः</text>
</g>
</g>
</svg>
