<?xml version="1.0" encoding="UTF-8" standalone="no"?>
<!DOCTYPE svg PUBLIC "-//W3C//DTD SVG 1.1//EN"
 "http://www.w3.org/Graphics/SVG/1.1/DTD/svg11.dtd">
<!-- Generated by graphviz version 2.43.0 (0)
 -->
<!-- Title: G Pages: 1 -->
<svg width="728pt" height="321pt"
 viewBox="0.00 0.00 727.75 321.00" xmlns="http://www.w3.org/2000/svg" xmlns:xlink="http://www.w3.org/1999/xlink">
<g id="graph0" class="graph" transform="scale(1 1) rotate(0) translate(4 317)">
<title>G</title>
<polygon fill="#fffacd" stroke="transparent" points="-4,4 -4,-317 723.75,-317 723.75,4 -4,4"/>
<g id="clust1" class="cluster">
<title>cluster_1</title>
<polygon fill="#fffacd" stroke="black" points="164,-8 164,-234 294,-234 294,-8 164,-8"/>
</g>
<g id="clust2" class="cluster">
<title>cluster_2</title>
<polygon fill="#fffacd" stroke="black" points="8,-95 8,-234 156,-234 156,-95 8,-95"/>
</g>
<!-- Node9_1 -->
<g id="node1" class="node">
<title>Node9_1</title>
<ellipse fill="#40e0d0" stroke="#40e0d0" cx="232" cy="-121" rx="53.89" ry="18"/>
<text text-anchor="middle" x="232" y="-117.3" font-family="Times,serif" font-size="14.00">समस्तैः(9.1)</text>
</g>
<!-- Node1_1 -->
<g id="node2" class="node">
<title>Node1_1</title>
<ellipse fill="#40e0d0" stroke="#40e0d0" cx="238" cy="-208" rx="39.79" ry="18"/>
<text text-anchor="middle" x="238" y="-204.3" font-family="Times,serif" font-size="14.00">तैः(1.1)</text>
</g>
<!-- Node9_1&#45;&gt;Node1_1 -->
<g id="edge10" class="edge">
<title>Node9_1&#45;&gt;Node1_1</title>
<path fill="none" stroke="black" d="M233.92,-149.27C234.86,-162.58 235.97,-178.19 236.79,-189.82"/>
<polygon fill="black" stroke="black" points="237.41,-148.93 233.21,-139.2 230.43,-149.42 237.41,-148.93"/>
<text text-anchor="middle" x="258.5" y="-160.8" font-family="Times,serif" font-size="14.00">विशेषणम्</text>
</g>
<!-- Node3_1 -->
<g id="node6" class="node">
<title>Node3_1</title>
<ellipse fill="#ff1975" stroke="#ff1975" cx="238" cy="-295" rx="60.39" ry="18"/>
<text text-anchor="middle" x="238" y="-291.3" font-family="Times,serif" font-size="14.00">मन्त्रयेथाः(3.1)</text>
</g>
<!-- Node1_1&#45;&gt;Node3_1 -->
<g id="edge1" class="edge">
<title>Node1_1&#45;&gt;Node3_1</title>
<path fill="none" stroke="black" d="M238,-236.27C238,-249.58 238,-265.19 238,-276.82"/>
<polygon fill="black" stroke="black" points="241.5,-236.2 238,-226.2 234.5,-236.2 241.5,-236.2"/>
<text text-anchor="middle" x="254" y="-247.8" font-family="Times,serif" font-size="14.00">सहार्थः</text>
</g>
<!-- Node12_1 -->
<g id="node3" class="node">
<title>Node12_1</title>
<ellipse fill="#40e0d0" stroke="#40e0d0" cx="229" cy="-34" rx="57.39" ry="18"/>
<text text-anchor="middle" x="229" y="-30.3" font-family="Times,serif" font-size="14.00">व्यस्तैः(12.1)</text>
</g>
<!-- Node12_1&#45;&gt;Node9_1 -->
<g id="edge13" class="edge">
<title>Node12_1&#45;&gt;Node9_1</title>
<path fill="none" stroke="black" d="M229.96,-62.27C230.43,-75.58 230.98,-91.19 231.39,-102.82"/>
<polygon fill="black" stroke="black" points="233.46,-62.07 229.61,-52.2 226.46,-62.32 233.46,-62.07"/>
<text text-anchor="middle" x="253.5" y="-73.8" font-family="Times,serif" font-size="14.00">समुच्चितः</text>
</g>
<!-- Node14_1 -->
<g id="node4" class="node">
<title>Node14_1</title>
<ellipse fill="lightgrey" stroke="black" cx="82" cy="-121" rx="61.99" ry="18"/>
<text text-anchor="middle" x="82" y="-117.3" font-family="Times,serif" font-size="14.00">केनचित्(14.1)</text>
</g>
<!-- Node13_1 -->
<g id="node5" class="node">
<title>Node13_1</title>
<ellipse fill="#40e0d0" stroke="#40e0d0" cx="82" cy="-208" rx="65.79" ry="18"/>
<text text-anchor="middle" x="82" y="-204.3" font-family="Times,serif" font-size="14.00">व्यपदेशेन(13.1)</text>
</g>
<!-- Node14_1&#45;&gt;Node13_1 -->
<g id="edge15" class="edge">
<title>Node14_1&#45;&gt;Node13_1</title>
<path fill="none" stroke="black" d="M82,-149.27C82,-162.58 82,-178.19 82,-189.82"/>
<polygon fill="black" stroke="black" points="85.5,-149.2 82,-139.2 78.5,-149.2 85.5,-149.2"/>
<text text-anchor="middle" x="104.5" y="-160.8" font-family="Times,serif" font-size="14.00">विशेषणम्</text>
</g>
<!-- Node13_1&#45;&gt;Node3_1 -->
<g id="edge14" class="edge">
<title>Node13_1&#45;&gt;Node3_1</title>
<path fill="none" stroke="black" d="M119.33,-229.34C147.27,-244.57 184.89,-265.06 210.22,-278.86"/>
<polygon fill="black" stroke="black" points="120.71,-226.1 110.25,-224.39 117.36,-232.25 120.71,-226.1"/>
<text text-anchor="middle" x="179.5" y="-247.8" font-family="Times,serif" font-size="14.00">हेतुः</text>
</g>
<!-- Node2_1 -->
<g id="node7" class="node">
<title>Node2_1</title>
<ellipse fill="#ff99ff" stroke="#ff99ff" cx="350" cy="-121" rx="46.29" ry="18"/>
<text text-anchor="middle" x="350" y="-117.3" font-family="Times,serif" font-size="14.00">सार्धं(2.1)</text>
</g>
<!-- Node2_1&#45;&gt;Node1_1 -->
<g id="edge2" class="edge">
<title>Node2_1&#45;&gt;Node1_1</title>
<path fill="none" stroke="black" d="M322.18,-143.55C310.7,-152.4 297.24,-162.74 285,-172 276.24,-178.63 266.51,-185.9 258.18,-192.08"/>
<polygon fill="black" stroke="black" points="324.37,-146.28 330.15,-137.4 320.09,-140.74 324.37,-146.28"/>
<text text-anchor="middle" x="336.5" y="-160.8" font-family="Times,serif" font-size="14.00">सहार्थ_द्योतकः</text>
</g>
<!-- Node4_1 -->
<g id="node8" class="node">
<title>Node4_1</title>
<ellipse fill="#00bfff" stroke="#00bfff" cx="346" cy="-208" rx="44.39" ry="18"/>
<text text-anchor="middle" x="346" y="-204.3" font-family="Times,serif" font-size="14.00">त्वम्(4.1)</text>
</g>
<!-- Node4_1&#45;&gt;Node3_1 -->
<g id="edge3" class="edge">
<title>Node4_1&#45;&gt;Node3_1</title>
<path fill="none" stroke="black" d="M318.82,-230.4C300.13,-245.1 275.7,-264.33 258.61,-277.78"/>
<polygon fill="black" stroke="black" points="321,-233.13 326.69,-224.2 316.67,-227.63 321,-233.13"/>
<text text-anchor="middle" x="310" y="-247.8" font-family="Times,serif" font-size="14.00">कर्ता</text>
</g>
<!-- Node5_2 -->
<g id="node9" class="node">
<title>Node5_2</title>
<ellipse fill="#ff1975" stroke="#ff1975" cx="539" cy="-295" rx="67.69" ry="18"/>
<text text-anchor="middle" x="539" y="-291.3" font-family="Times,serif" font-size="14.00">(मन्त्रयेथाः)(5.2)</text>
</g>
<!-- Node4_1&#45;&gt;Node5_2 -->
<g id="edge4" class="edge">
<title>Node4_1&#45;&gt;Node5_2</title>
<path fill="none" stroke="black" stroke-dasharray="1,5" d="M382.51,-226.43C388.02,-229 393.65,-231.59 399,-234 434.57,-250 475.63,-267.49 504.04,-279.43"/>
<polygon fill="black" stroke="black" points="383.96,-223.25 373.42,-222.16 380.99,-229.58 383.96,-223.25"/>
<text text-anchor="middle" x="463" y="-247.8" font-family="Times,serif" font-size="14.00">कर्ता</text>
</g>
<!-- Node5_1 -->
<g id="node10" class="node">
<title>Node5_1</title>
<ellipse fill="#ff99ff" stroke="#ff99ff" cx="567" cy="-208" rx="37.09" ry="18"/>
<text text-anchor="middle" x="567" y="-204.3" font-family="Times,serif" font-size="14.00">न(5.1)</text>
</g>
<!-- Node5_1&#45;&gt;Node5_2 -->
<g id="edge5" class="edge">
<title>Node5_1&#45;&gt;Node5_2</title>
<path fill="none" stroke="black" d="M558.15,-235.87C553.73,-249.27 548.53,-265.08 544.66,-276.82"/>
<polygon fill="black" stroke="black" points="561.53,-236.79 561.33,-226.2 554.88,-234.6 561.53,-236.79"/>
<text text-anchor="middle" x="573.5" y="-247.8" font-family="Times,serif" font-size="14.00">प्रतिषेधः</text>
</g>
<!-- Node6_1 -->
<g id="node11" class="node">
<title>Node6_1</title>
<ellipse fill="#ffff00" stroke="#ffff00" cx="671" cy="-121" rx="48.99" ry="18"/>
<text text-anchor="middle" x="671" y="-117.3" font-family="Times,serif" font-size="14.00">अति&#45;(6.1)</text>
</g>
<!-- Node6_2 -->
<g id="node12" class="node">
<title>Node6_2</title>
<ellipse fill="#00bfff" stroke="#00bfff" cx="671" cy="-208" rx="48.99" ry="18"/>
<text text-anchor="middle" x="671" y="-204.3" font-family="Times,serif" font-size="14.00">अर्थम्(6.2)</text>
</g>
<!-- Node6_1&#45;&gt;Node6_2 -->
<g id="edge6" class="edge">
<title>Node6_1&#45;&gt;Node6_2</title>
<path fill="none" stroke="black" d="M671,-149.27C671,-162.58 671,-178.19 671,-189.82"/>
<polygon fill="black" stroke="black" points="674.5,-149.2 671,-139.2 667.5,-149.2 674.5,-149.2"/>
<text text-anchor="middle" x="680.5" y="-160.8" font-family="Times,serif" font-size="14.00">A1</text>
</g>
<!-- Node6_2&#45;&gt;Node5_2 -->
<g id="edge7" class="edge">
<title>Node6_2&#45;&gt;Node5_2</title>
<path fill="none" stroke="black" d="M640.83,-229.89C627.5,-238.99 611.58,-249.69 597,-259 586.79,-265.52 575.41,-272.46 565.45,-278.43"/>
<polygon fill="black" stroke="black" points="642.91,-232.72 649.18,-224.18 638.95,-226.94 642.91,-232.72"/>
<text text-anchor="middle" x="654" y="-247.8" font-family="Times,serif" font-size="14.00">क्रियाविशेषणम्</text>
</g>
<!-- Node7_1 -->
<g id="node13" class="node">
<title>Node7_1</title>
<ellipse fill="#40e0d0" stroke="#40e0d0" cx="460" cy="-208" rx="51.99" ry="18"/>
<text text-anchor="middle" x="460" y="-204.3" font-family="Times,serif" font-size="14.00">बहुभिः(7.1)</text>
</g>
<!-- Node7_1&#45;&gt;Node5_2 -->
<g id="edge8" class="edge">
<title>Node7_1&#45;&gt;Node5_2</title>
<path fill="none" stroke="black" d="M482.18,-232.86C495.36,-247.05 511.76,-264.69 523.55,-277.37"/>
<polygon fill="black" stroke="black" points="484.6,-230.33 475.23,-225.39 479.48,-235.1 484.6,-230.33"/>
<text text-anchor="middle" x="520" y="-247.8" font-family="Times,serif" font-size="14.00">सहार्थः</text>
</g>
<!-- Node8_1 -->
<g id="node14" class="node">
<title>Node8_1</title>
<ellipse fill="#ff99ff" stroke="#ff99ff" cx="460" cy="-121" rx="42.49" ry="18"/>
<text text-anchor="middle" x="460" y="-117.3" font-family="Times,serif" font-size="14.00">सह(8.1)</text>
</g>
<!-- Node8_1&#45;&gt;Node7_1 -->
<g id="edge9" class="edge">
<title>Node8_1&#45;&gt;Node7_1</title>
<path fill="none" stroke="black" d="M460,-149.27C460,-162.58 460,-178.19 460,-189.82"/>
<polygon fill="black" stroke="black" points="463.5,-149.2 460,-139.2 456.5,-149.2 463.5,-149.2"/>
<text text-anchor="middle" x="493.5" y="-160.8" font-family="Times,serif" font-size="14.00">सहार्थ_द्योतकः</text>
</g>
<!-- Node10_1 -->
<g id="node15" class="node">
<title>Node10_1</title>
<ellipse fill="#ff99ff" stroke="#ff99ff" cx="356" cy="-34" rx="51.99" ry="18"/>
<text text-anchor="middle" x="356" y="-30.3" font-family="Times,serif" font-size="14.00">अपि(10.1)</text>
</g>
<!-- Node10_1&#45;&gt;Node9_1 -->
<g id="edge11" class="edge">
<title>Node10_1&#45;&gt;Node9_1</title>
<path fill="none" stroke="black" d="M325.25,-56.08C303.38,-71.07 274.5,-90.87 254.71,-104.43"/>
<polygon fill="black" stroke="black" points="327.28,-58.93 333.54,-50.39 323.32,-53.16 327.28,-58.93"/>
<text text-anchor="middle" x="320.5" y="-73.8" font-family="Times,serif" font-size="14.00">सम्बन्धः</text>
</g>
<!-- Node11_1 -->
<g id="node16" class="node">
<title>Node11_1</title>
<ellipse fill="#ff99ff" stroke="#ff99ff" cx="470" cy="-34" rx="43.59" ry="18"/>
<text text-anchor="middle" x="470" y="-30.3" font-family="Times,serif" font-size="14.00">च(11.1)</text>
</g>
<!-- Node11_1&#45;&gt;Node9_1 -->
<g id="edge12" class="edge">
<title>Node11_1&#45;&gt;Node9_1</title>
<path fill="none" stroke="black" d="M432.29,-51.8C407.33,-62.43 373.67,-75.84 343,-85 322.12,-91.24 315.87,-88.74 295,-95 284.52,-98.15 273.34,-102.31 263.35,-106.33"/>
<polygon fill="black" stroke="black" points="433.94,-54.9 441.74,-47.73 431.17,-48.47 433.94,-54.9"/>
<text text-anchor="middle" x="423" y="-73.8" font-family="Times,serif" font-size="14.00">समुच्चय_द्योतकः</text>
</g>
</g>
</svg>
