<?xml version="1.0" encoding="UTF-8" standalone="no"?>
<!DOCTYPE svg PUBLIC "-//W3C//DTD SVG 1.1//EN"
 "http://www.w3.org/Graphics/SVG/1.1/DTD/svg11.dtd">
<!-- Generated by graphviz version 2.43.0 (0)
 -->
<!-- Title: G Pages: 1 -->
<svg width="755pt" height="479pt"
 viewBox="0.00 0.00 755.34 479.00" xmlns="http://www.w3.org/2000/svg" xmlns:xlink="http://www.w3.org/1999/xlink">
<g id="graph0" class="graph" transform="scale(1 1) rotate(0) translate(4 475)">
<title>G</title>
<polygon fill="#fffacd" stroke="transparent" points="-4,4 -4,-475 751.34,-475 751.34,4 -4,4"/>
<g id="clust1" class="cluster">
<title>cluster_1</title>
<polygon fill="#fffacd" stroke="black" points="128.79,-166 128.79,-392 557.79,-392 557.79,-166 128.79,-166"/>
</g>
<!-- Node4_1 -->
<g id="node1" class="node">
<title>Node4_1</title>
<ellipse fill="#00bfff" stroke="#00bfff" cx="426.79" cy="-279" rx="61.99" ry="18"/>
<text text-anchor="middle" x="426.79" y="-275.3" font-family="Times,serif" font-size="14.00">पर्याप्तानि(4.1)</text>
</g>
<!-- Node2_1 -->
<g id="node2" class="node">
<title>Node2_1</title>
<ellipse fill="#00bfff" stroke="#00bfff" cx="191.79" cy="-366" rx="53.89" ry="18"/>
<text text-anchor="middle" x="191.79" y="-362.3" font-family="Times,serif" font-size="14.00">द्वाराणि(2.1)</text>
</g>
<!-- Node4_1&#45;&gt;Node2_1 -->
<g id="edge3" class="edge">
<title>Node4_1&#45;&gt;Node2_1</title>
<path fill="none" stroke="black" d="M380.01,-296.92C334.9,-313.24 267.65,-337.56 226.94,-352.29"/>
<polygon fill="black" stroke="black" points="381.34,-300.16 389.56,-293.47 378.96,-293.58 381.34,-300.16"/>
<text text-anchor="middle" x="345.29" y="-318.8" font-family="Times,serif" font-size="14.00">विशेषणम्</text>
</g>
<!-- Node3_1 -->
<g id="node7" class="node">
<title>Node3_1</title>
<ellipse fill="#ff1975" stroke="#ff1975" cx="81.79" cy="-453" rx="57.39" ry="18"/>
<text text-anchor="middle" x="81.79" y="-449.3" font-family="Times,serif" font-size="14.00">कार्याणि(3.1)</text>
</g>
<!-- Node2_1&#45;&gt;Node3_1 -->
<g id="edge2" class="edge">
<title>Node2_1&#45;&gt;Node3_1</title>
<path fill="none" stroke="black" d="M163.32,-389C144.28,-403.71 119.67,-422.73 102.49,-436.01"/>
<polygon fill="black" stroke="black" points="165.59,-391.67 171.36,-382.79 161.31,-386.13 165.59,-391.67"/>
<text text-anchor="middle" x="151.79" y="-405.8" font-family="Times,serif" font-size="14.00">कर्म</text>
</g>
<!-- Node5_1 -->
<g id="node3" class="node">
<title>Node5_1</title>
<ellipse fill="#00bfff" stroke="#00bfff" cx="498.79" cy="-192" rx="50.89" ry="18"/>
<text text-anchor="middle" x="498.79" y="-188.3" font-family="Times,serif" font-size="14.00">बृहन्ति(5.1)</text>
</g>
<!-- Node5_1&#45;&gt;Node4_1 -->
<g id="edge4" class="edge">
<title>Node5_1&#45;&gt;Node4_1</title>
<path fill="none" stroke="black" d="M478.25,-217.26C466.29,-231.37 451.52,-248.81 440.88,-261.37"/>
<polygon fill="black" stroke="black" points="481.12,-219.28 484.91,-209.39 475.78,-214.76 481.12,-219.28"/>
<text text-anchor="middle" x="489.29" y="-231.8" font-family="Times,serif" font-size="14.00">समुच्चितः</text>
</g>
<!-- Node8_2 -->
<g id="node4" class="node">
<title>Node8_2</title>
<ellipse fill="#00bfff" stroke="#00bfff" cx="200.79" cy="-192" rx="64.19" ry="18"/>
<text text-anchor="middle" x="200.79" y="-188.3" font-family="Times,serif" font-size="14.00">विभक्तानि(8.2)</text>
</g>
<!-- Node8_2&#45;&gt;Node4_1 -->
<g id="edge8" class="edge">
<title>Node8_2&#45;&gt;Node4_1</title>
<path fill="none" stroke="black" d="M247.14,-210.43C289.54,-226.38 351.42,-249.65 390.37,-264.3"/>
<polygon fill="black" stroke="black" points="248.2,-207.09 237.61,-206.85 245.74,-213.64 248.2,-207.09"/>
<text text-anchor="middle" x="349.29" y="-231.8" font-family="Times,serif" font-size="14.00">समुच्चितः</text>
</g>
<!-- Node10_1 -->
<g id="node5" class="node">
<title>Node10_1</title>
<ellipse fill="#00bfff" stroke="#00bfff" cx="356.79" cy="-192" rx="73.39" ry="18"/>
<text text-anchor="middle" x="356.79" y="-188.3" font-family="Times,serif" font-size="14.00">आरक्षितानि(10.1)</text>
</g>
<!-- Node10_1&#45;&gt;Node4_1 -->
<g id="edge10" class="edge">
<title>Node10_1&#45;&gt;Node4_1</title>
<path fill="none" stroke="black" d="M375.11,-218.02C381.22,-226.11 388.16,-235.05 394.79,-243 399.96,-249.2 405.86,-255.78 411.18,-261.54"/>
<polygon fill="black" stroke="black" points="377.88,-215.88 369.09,-209.96 372.27,-220.07 377.88,-215.88"/>
<text text-anchor="middle" x="417.29" y="-231.8" font-family="Times,serif" font-size="14.00">समुच्चितः</text>
</g>
<!-- Node1_1 -->
<g id="node6" class="node">
<title>Node1_1</title>
<ellipse fill="#87ceeb" stroke="#87ceeb" cx="74.79" cy="-279" rx="46.29" ry="18"/>
<text text-anchor="middle" x="74.79" y="-275.3" font-family="Times,serif" font-size="14.00">तस्य(1.1)</text>
</g>
<!-- Node1_1&#45;&gt;Node2_1 -->
<g id="edge1" class="edge">
<title>Node1_1&#45;&gt;Node2_1</title>
<path fill="none" stroke="black" d="M103.81,-301.08C124.4,-316.04 151.59,-335.79 170.27,-349.36"/>
<polygon fill="black" stroke="black" points="105.86,-298.24 95.71,-295.2 101.75,-303.91 105.86,-298.24"/>
<text text-anchor="middle" x="167.29" y="-318.8" font-family="Times,serif" font-size="14.00">षष्ठीसम्बन्धः</text>
</g>
<!-- Node6_1 -->
<g id="node8" class="node">
<title>Node6_1</title>
<ellipse fill="#ff99ff" stroke="#ff99ff" cx="604.79" cy="-192" rx="37.89" ry="18"/>
<text text-anchor="middle" x="604.79" y="-188.3" font-family="Times,serif" font-size="14.00">च(6.1)</text>
</g>
<!-- Node6_1&#45;&gt;Node4_1 -->
<g id="edge5" class="edge">
<title>Node6_1&#45;&gt;Node4_1</title>
<path fill="none" stroke="black" d="M573.71,-211.85C556.87,-221.71 535.52,-233.64 515.79,-243 499.15,-250.9 480.2,-258.53 464.08,-264.64"/>
<polygon fill="black" stroke="black" points="575.74,-214.72 582.57,-206.61 572.18,-208.69 575.74,-214.72"/>
<text text-anchor="middle" x="580.79" y="-231.8" font-family="Times,serif" font-size="14.00">समुच्चय_द्योतकः</text>
</g>
<!-- Node7_1 -->
<g id="node9" class="node">
<title>Node7_1</title>
<ellipse fill="#ff99ff" stroke="#ff99ff" cx="200.79" cy="-18" rx="50.09" ry="18"/>
<text text-anchor="middle" x="200.79" y="-14.3" font-family="Times,serif" font-size="14.00">सर्वतः(7.1)</text>
</g>
<!-- Node8_1 -->
<g id="node10" class="node">
<title>Node8_1</title>
<ellipse fill="#ffff00" stroke="#ffff00" cx="200.79" cy="-105" rx="40.89" ry="18"/>
<text text-anchor="middle" x="200.79" y="-101.3" font-family="Times,serif" font-size="14.00">सु&#45;(8.1)</text>
</g>
<!-- Node7_1&#45;&gt;Node8_1 -->
<g id="edge6" class="edge">
<title>Node7_1&#45;&gt;Node8_1</title>
<path fill="none" stroke="black" d="M200.79,-46.27C200.79,-59.58 200.79,-75.19 200.79,-86.82"/>
<polygon fill="black" stroke="black" points="204.29,-46.2 200.79,-36.2 197.29,-46.2 204.29,-46.2"/>
<text text-anchor="middle" x="232.79" y="-57.8" font-family="Times,serif" font-size="14.00">देशाधिकरणम्</text>
</g>
<!-- Node8_1&#45;&gt;Node8_2 -->
<g id="edge7" class="edge">
<title>Node8_1&#45;&gt;Node8_2</title>
<path fill="none" stroke="black" d="M200.79,-133.27C200.79,-146.58 200.79,-162.19 200.79,-173.82"/>
<polygon fill="black" stroke="black" points="204.29,-133.2 200.79,-123.2 197.29,-133.2 204.29,-133.2"/>
<text text-anchor="middle" x="210.29" y="-144.8" font-family="Times,serif" font-size="14.00">Tp</text>
</g>
<!-- Node9_1 -->
<g id="node11" class="node">
<title>Node9_1</title>
<ellipse fill="#40e0d0" stroke="#40e0d0" cx="356.79" cy="-105" rx="48.19" ry="18"/>
<text text-anchor="middle" x="356.79" y="-101.3" font-family="Times,serif" font-size="14.00">यन्त्रैः(9.1)</text>
</g>
<!-- Node9_1&#45;&gt;Node10_1 -->
<g id="edge9" class="edge">
<title>Node9_1&#45;&gt;Node10_1</title>
<path fill="none" stroke="black" d="M356.79,-133.27C356.79,-146.58 356.79,-162.19 356.79,-173.82"/>
<polygon fill="black" stroke="black" points="360.29,-133.2 356.79,-123.2 353.29,-133.2 360.29,-133.2"/>
<text text-anchor="middle" x="373.29" y="-144.8" font-family="Times,serif" font-size="14.00">करणम्</text>
</g>
<!-- Node11_1 -->
<g id="node12" class="node">
<title>Node11_1</title>
<ellipse fill="#ff99ff" stroke="#ff99ff" cx="703.79" cy="-192" rx="43.59" ry="18"/>
<text text-anchor="middle" x="703.79" y="-188.3" font-family="Times,serif" font-size="14.00">च(11.1)</text>
</g>
<!-- Node11_1&#45;&gt;Node4_1 -->
<g id="edge11" class="edge">
<title>Node11_1&#45;&gt;Node4_1</title>
<path fill="none" stroke="black" d="M675.64,-214.04C660.66,-224.26 641.51,-235.85 622.79,-243 578.56,-259.9 525.53,-268.73 485.8,-273.3"/>
<polygon fill="black" stroke="black" points="677.76,-216.83 683.94,-208.23 673.74,-211.1 677.76,-216.83"/>
<text text-anchor="middle" x="690.79" y="-231.8" font-family="Times,serif" font-size="14.00">समुच्चय_द्योतकः</text>
</g>
<!-- Node12_1 -->
<g id="node13" class="node">
<title>Node12_1</title>
<ellipse fill="#40e0d0" stroke="#40e0d0" cx="59.79" cy="-366" rx="59.59" ry="18"/>
<text text-anchor="middle" x="59.79" y="-362.3" font-family="Times,serif" font-size="14.00">(त्वया)(12.1)</text>
</g>
<!-- Node12_1&#45;&gt;Node3_1 -->
<g id="edge12" class="edge">
<title>Node12_1&#45;&gt;Node3_1</title>
<path fill="none" stroke="black" d="M66.85,-394.27C70.3,-407.58 74.34,-423.19 77.35,-434.82"/>
<polygon fill="black" stroke="black" points="70.14,-393.01 64.25,-384.2 63.36,-394.76 70.14,-393.01"/>
<text text-anchor="middle" x="83.79" y="-405.8" font-family="Times,serif" font-size="14.00">कर्ता</text>
</g>
</g>
</svg>
