<?xml version="1.0" encoding="UTF-8" standalone="no"?>
<!DOCTYPE svg PUBLIC "-//W3C//DTD SVG 1.1//EN"
 "http://www.w3.org/Graphics/SVG/1.1/DTD/svg11.dtd">
<!-- Generated by graphviz version 2.43.0 (0)
 -->
<!-- Title: G Pages: 1 -->
<svg width="1071pt" height="392pt"
 viewBox="0.00 0.00 1071.04 392.00" xmlns="http://www.w3.org/2000/svg" xmlns:xlink="http://www.w3.org/1999/xlink">
<g id="graph0" class="graph" transform="scale(1 1) rotate(0) translate(4 388)">
<title>G</title>
<polygon fill="#fffacd" stroke="transparent" points="-4,4 -4,-388 1067.04,-388 1067.04,4 -4,4"/>
<g id="clust1" class="cluster">
<title>cluster_1</title>
<polygon fill="#fffacd" stroke="black" points="94.34,-79 94.34,-305 714.34,-305 714.34,-79 94.34,-79"/>
</g>
<g id="clust2" class="cluster">
<title>cluster_2</title>
<polygon fill="#fffacd" stroke="black" points="722.34,-79 722.34,-131 858.34,-131 858.34,-79 722.34,-79"/>
</g>
<!-- Node4_1 -->
<g id="node1" class="node">
<title>Node4_1</title>
<ellipse fill="#00bfff" stroke="#00bfff" cx="655.34" cy="-192" rx="50.89" ry="18"/>
<text text-anchor="middle" x="655.34" y="-188.3" font-family="Times,serif" font-size="14.00">विद्वान्(4.1)</text>
</g>
<!-- Node3_1 -->
<g id="node2" class="node">
<title>Node3_1</title>
<ellipse fill="#00bfff" stroke="#00bfff" cx="280.34" cy="-279" rx="49.29" ry="18"/>
<text text-anchor="middle" x="280.34" y="-275.3" font-family="Times,serif" font-size="14.00">विदुरः(3.1)</text>
</g>
<!-- Node4_1&#45;&gt;Node3_1 -->
<g id="edge3" class="edge">
<title>Node4_1&#45;&gt;Node3_1</title>
<path fill="none" stroke="black" d="M611.3,-208.61C579.42,-219.46 535.13,-233.6 495.34,-243 437.75,-256.62 370.22,-266.66 326.43,-272.42"/>
<polygon fill="black" stroke="black" points="612.46,-211.92 620.78,-205.36 610.19,-205.3 612.46,-211.92"/>
<text text-anchor="middle" x="570.84" y="-231.8" font-family="Times,serif" font-size="14.00">विशेषणम्</text>
</g>
<!-- Node2_1 -->
<g id="node10" class="node">
<title>Node2_1</title>
<ellipse fill="#ff1975" stroke="#ff1975" cx="64.34" cy="-366" rx="64.19" ry="18"/>
<text text-anchor="middle" x="64.34" y="-362.3" font-family="Times,serif" font-size="14.00">अन्वगच्छत्(2.1)</text>
</g>
<!-- Node3_1&#45;&gt;Node2_1 -->
<g id="edge2" class="edge">
<title>Node3_1&#45;&gt;Node2_1</title>
<path fill="none" stroke="black" d="M238.49,-296.47C198.29,-312.29 138.19,-335.94 100.15,-350.91"/>
<polygon fill="black" stroke="black" points="239.98,-299.64 248.01,-292.73 237.42,-293.13 239.98,-299.64"/>
<text text-anchor="middle" x="195.34" y="-318.8" font-family="Times,serif" font-size="14.00">कर्ता</text>
</g>
<!-- Node5_1 -->
<g id="node3" class="node">
<title>Node5_1</title>
<ellipse fill="#00bfff" stroke="#00bfff" cx="541.34" cy="-192" rx="45.49" ry="18"/>
<text text-anchor="middle" x="541.34" y="-188.3" font-family="Times,serif" font-size="14.00">सूतः(5.1)</text>
</g>
<!-- Node5_1&#45;&gt;Node3_1 -->
<g id="edge4" class="edge">
<title>Node5_1&#45;&gt;Node3_1</title>
<path fill="none" stroke="black" d="M500.8,-208.86C473.91,-219.15 437.75,-232.52 405.34,-243 376.82,-252.22 344.2,-261.31 319.43,-267.91"/>
<polygon fill="black" stroke="black" points="502.18,-212.08 510.26,-205.23 499.67,-205.55 502.18,-212.08"/>
<text text-anchor="middle" x="468.84" y="-231.8" font-family="Times,serif" font-size="14.00">समुच्चितः</text>
</g>
<!-- Node7_1 -->
<g id="node4" class="node">
<title>Node7_1</title>
<ellipse fill="#00bfff" stroke="#00bfff" cx="280.34" cy="-192" rx="55.79" ry="18"/>
<text text-anchor="middle" x="280.34" y="-188.3" font-family="Times,serif" font-size="14.00">सञ्जयः(7.1)</text>
</g>
<!-- Node7_1&#45;&gt;Node3_1 -->
<g id="edge6" class="edge">
<title>Node7_1&#45;&gt;Node3_1</title>
<path fill="none" stroke="black" d="M280.34,-220.27C280.34,-233.58 280.34,-249.19 280.34,-260.82"/>
<polygon fill="black" stroke="black" points="283.84,-220.2 280.34,-210.2 276.84,-220.2 283.84,-220.2"/>
<text text-anchor="middle" x="302.84" y="-231.8" font-family="Times,serif" font-size="14.00">समुच्चितः</text>
</g>
<!-- Node8_1 -->
<g id="node5" class="node">
<title>Node8_1</title>
<ellipse fill="#00bfff" stroke="#00bfff" cx="280.34" cy="-105" rx="40.09" ry="18"/>
<text text-anchor="middle" x="280.34" y="-101.3" font-family="Times,serif" font-size="14.00">सः(8.1)</text>
</g>
<!-- Node8_1&#45;&gt;Node7_1 -->
<g id="edge7" class="edge">
<title>Node8_1&#45;&gt;Node7_1</title>
<path fill="none" stroke="black" d="M280.34,-133.27C280.34,-146.58 280.34,-162.19 280.34,-173.82"/>
<polygon fill="black" stroke="black" points="283.84,-133.2 280.34,-123.2 276.84,-133.2 283.84,-133.2"/>
<text text-anchor="middle" x="302.84" y="-144.8" font-family="Times,serif" font-size="14.00">विशेषणम्</text>
</g>
<!-- Node12_1 -->
<g id="node6" class="node">
<title>Node12_1</title>
<ellipse fill="#00bfff" stroke="#00bfff" cx="154.34" cy="-192" rx="51.99" ry="18"/>
<text text-anchor="middle" x="154.34" y="-188.3" font-family="Times,serif" font-size="14.00">कृपः(12.1)</text>
</g>
<!-- Node12_1&#45;&gt;Node3_1 -->
<g id="edge12" class="edge">
<title>Node12_1&#45;&gt;Node3_1</title>
<path fill="none" stroke="black" d="M185.65,-214.12C208.02,-229.21 237.59,-249.16 257.7,-262.72"/>
<polygon fill="black" stroke="black" points="187.41,-211.08 177.16,-208.39 183.49,-216.89 187.41,-211.08"/>
<text text-anchor="middle" x="246.84" y="-231.8" font-family="Times,serif" font-size="14.00">समुच्चितः</text>
</g>
<!-- Node13_1 -->
<g id="node7" class="node">
<title>Node13_1</title>
<ellipse fill="#00bfff" stroke="#00bfff" cx="416.34" cy="-192" rx="61.99" ry="18"/>
<text text-anchor="middle" x="416.34" y="-188.3" font-family="Times,serif" font-size="14.00">शारद्वतः(13.1)</text>
</g>
<!-- Node13_1&#45;&gt;Node3_1 -->
<g id="edge13" class="edge">
<title>Node13_1&#45;&gt;Node3_1</title>
<path fill="none" stroke="black" d="M382.81,-213.96C358.43,-229.2 326.01,-249.46 304.22,-263.08"/>
<polygon fill="black" stroke="black" points="384.77,-216.86 391.4,-208.59 381.06,-210.92 384.77,-216.86"/>
<text text-anchor="middle" x="378.84" y="-231.8" font-family="Times,serif" font-size="14.00">समुच्चितः</text>
</g>
<!-- Node11_2 -->
<g id="node8" class="node">
<title>Node11_2</title>
<ellipse fill="#00bfff" stroke="#00bfff" cx="790.34" cy="-105" rx="60.39" ry="18"/>
<text text-anchor="middle" x="790.34" y="-101.3" font-family="Times,serif" font-size="14.00">इष्वासः(11.2)</text>
</g>
<!-- Node11_2&#45;&gt;Node12_1 -->
<g id="edge11" class="edge">
<title>Node11_2&#45;&gt;Node12_1</title>
<path fill="none" stroke="black" d="M746.4,-123.34C737.25,-126.35 727.58,-129.12 718.34,-131 653.3,-144.23 635.5,-135.7 569.34,-141 411.83,-153.63 370.74,-145.34 215.34,-174 207.67,-175.42 199.56,-177.35 191.84,-179.42"/>
<polygon fill="black" stroke="black" points="747.77,-126.57 756.08,-119.99 745.48,-119.95 747.77,-126.57"/>
<text text-anchor="middle" x="591.84" y="-144.8" font-family="Times,serif" font-size="14.00">विशेषणम्</text>
</g>
<!-- Node1_1 -->
<g id="node9" class="node">
<title>Node1_1</title>
<ellipse fill="#93db70" stroke="#93db70" cx="44.34" cy="-279" rx="42.49" ry="18"/>
<text text-anchor="middle" x="44.34" y="-275.3" font-family="Times,serif" font-size="14.00">तम्(1.1)</text>
</g>
<!-- Node1_1&#45;&gt;Node2_1 -->
<g id="edge1" class="edge">
<title>Node1_1&#45;&gt;Node2_1</title>
<path fill="none" stroke="black" d="M50.76,-307.27C53.89,-320.58 57.57,-336.19 60.3,-347.82"/>
<polygon fill="black" stroke="black" points="54.09,-306.13 48.39,-297.2 47.28,-307.74 54.09,-306.13"/>
<text text-anchor="middle" x="65.34" y="-318.8" font-family="Times,serif" font-size="14.00">कर्म</text>
</g>
<!-- Node6_1 -->
<g id="node11" class="node">
<title>Node6_1</title>
<ellipse fill="#ff99ff" stroke="#ff99ff" cx="46.34" cy="-192" rx="37.89" ry="18"/>
<text text-anchor="middle" x="46.34" y="-188.3" font-family="Times,serif" font-size="14.00">च(6.1)</text>
</g>
<!-- Node6_1&#45;&gt;Node3_1 -->
<g id="edge5" class="edge">
<title>Node6_1&#45;&gt;Node3_1</title>
<path fill="none" stroke="black" d="M74.79,-213.2C90.3,-223.41 110.19,-235.24 129.34,-243 163.64,-256.9 204.65,-265.96 235.28,-271.38"/>
<polygon fill="black" stroke="black" points="76.46,-210.1 66.21,-207.42 72.55,-215.91 76.46,-210.1"/>
<text text-anchor="middle" x="167.34" y="-231.8" font-family="Times,serif" font-size="14.00">समुच्चय_द्योतकः</text>
</g>
<!-- Node9_1 -->
<g id="node12" class="node">
<title>Node9_1</title>
<ellipse fill="#ff99ff" stroke="#ff99ff" cx="906.34" cy="-105" rx="37.89" ry="18"/>
<text text-anchor="middle" x="906.34" y="-101.3" font-family="Times,serif" font-size="14.00">च(9.1)</text>
</g>
<!-- Node9_1&#45;&gt;Node7_1 -->
<g id="edge8" class="edge">
<title>Node9_1&#45;&gt;Node7_1</title>
<path fill="none" stroke="black" d="M876.56,-125.07C871.94,-127.39 867.11,-129.48 862.34,-131 855.85,-133.07 625.13,-155.43 618.34,-156 497.18,-166.2 465.37,-154.53 345.34,-174 337.17,-175.33 328.53,-177.22 320.31,-179.28"/>
<polygon fill="black" stroke="black" points="878.59,-127.95 885.68,-120.08 875.23,-121.81 878.59,-127.95"/>
<text text-anchor="middle" x="786.84" y="-144.8" font-family="Times,serif" font-size="14.00">सम्बन्धः</text>
</g>
<!-- Node10_1 -->
<g id="node13" class="node">
<title>Node10_1</title>
<ellipse fill="#ff99ff" stroke="#ff99ff" cx="910.34" cy="-18" rx="51.99" ry="18"/>
<text text-anchor="middle" x="910.34" y="-14.3" font-family="Times,serif" font-size="14.00">अपि(10.1)</text>
</g>
<!-- Node10_1&#45;&gt;Node9_1 -->
<g id="edge9" class="edge">
<title>Node10_1&#45;&gt;Node9_1</title>
<path fill="none" stroke="black" d="M909.06,-46.27C908.43,-59.58 907.7,-75.19 907.15,-86.82"/>
<polygon fill="black" stroke="black" points="912.56,-46.35 909.53,-36.2 905.57,-46.03 912.56,-46.35"/>
<text text-anchor="middle" x="926.84" y="-57.8" font-family="Times,serif" font-size="14.00">सम्बन्धः</text>
</g>
<!-- Node11_1 -->
<g id="node14" class="node">
<title>Node11_1</title>
<ellipse fill="#ffff00" stroke="#ffff00" cx="786.34" cy="-18" rx="53.89" ry="18"/>
<text text-anchor="middle" x="786.34" y="-14.3" font-family="Times,serif" font-size="14.00">परम&#45;(11.1)</text>
</g>
<!-- Node11_1&#45;&gt;Node11_2 -->
<g id="edge10" class="edge">
<title>Node11_1&#45;&gt;Node11_2</title>
<path fill="none" stroke="black" d="M787.63,-46.27C788.25,-59.58 788.99,-75.19 789.54,-86.82"/>
<polygon fill="black" stroke="black" points="791.12,-46.03 787.15,-36.2 784.13,-46.35 791.12,-46.03"/>
<text text-anchor="middle" x="802.34" y="-57.8" font-family="Times,serif" font-size="14.00">Bs6</text>
</g>
<!-- Node14_1 -->
<g id="node15" class="node">
<title>Node14_1</title>
<ellipse fill="#ff99ff" stroke="#ff99ff" cx="1012.34" cy="-105" rx="50.89" ry="18"/>
<text text-anchor="middle" x="1012.34" y="-101.3" font-family="Times,serif" font-size="14.00">तथा(14.1)</text>
</g>
<!-- Node14_1&#45;&gt;Node13_1 -->
<g id="edge14" class="edge">
<title>Node14_1&#45;&gt;Node13_1</title>
<path fill="none" stroke="black" d="M973.81,-123.78C967.08,-126.46 960.08,-129 953.34,-131 892.75,-149 876.13,-148.69 813.34,-156 669.21,-172.79 630.93,-153.02 487.34,-174 478.44,-175.3 469.01,-177.19 460.04,-179.24"/>
<polygon fill="black" stroke="black" points="975.52,-126.86 983.41,-119.79 972.83,-120.4 975.52,-126.86"/>
<text text-anchor="middle" x="933.84" y="-144.8" font-family="Times,serif" font-size="14.00">सम्बन्धः</text>
</g>
</g>
</svg>
