<?xml version="1.0" encoding="UTF-8" standalone="no"?>
<!DOCTYPE svg PUBLIC "-//W3C//DTD SVG 1.1//EN"
 "http://www.w3.org/Graphics/SVG/1.1/DTD/svg11.dtd">
<!-- Generated by graphviz version 2.43.0 (0)
 -->
<!-- Title: G Pages: 1 -->
<svg width="1023pt" height="278pt"
 viewBox="0.00 0.00 1023.29 277.50" xmlns="http://www.w3.org/2000/svg" xmlns:xlink="http://www.w3.org/1999/xlink">
<g id="graph0" class="graph" transform="scale(1 1) rotate(0) translate(4 273.5)">
<title>G</title>
<polygon fill="#fffacd" stroke="transparent" points="-4,4 -4,-273.5 1019.29,-273.5 1019.29,4 -4,4"/>
<g id="clust1" class="cluster">
<title>cluster_1</title>
<polygon fill="#fffacd" stroke="black" points="223.45,-122.5 223.45,-261.5 347.45,-261.5 347.45,-122.5 223.45,-122.5"/>
</g>
<!-- Node12_1 -->
<g id="node1" class="node">
<title>Node12_1</title>
<ellipse fill="#ff1975" stroke="#ff1975" cx="285.45" cy="-148.5" rx="53.89" ry="18"/>
<text text-anchor="middle" x="285.45" y="-144.8" font-family="Times,serif" font-size="14.00">कुर्याः(12.1)</text>
</g>
<!-- Node7_1 -->
<g id="node2" class="node">
<title>Node7_1</title>
<ellipse fill="#ff1975" stroke="#ff1975" cx="285.45" cy="-235.5" rx="53.89" ry="18"/>
<text text-anchor="middle" x="285.45" y="-231.8" font-family="Times,serif" font-size="14.00">शृणुयाः(7.1)</text>
</g>
<!-- Node12_1&#45;&gt;Node7_1 -->
<g id="edge16" class="edge">
<title>Node12_1&#45;&gt;Node7_1</title>
<path fill="none" stroke="black" d="M285.45,-176.77C285.45,-190.08 285.45,-205.69 285.45,-217.32"/>
<polygon fill="black" stroke="black" points="288.95,-176.7 285.45,-166.7 281.95,-176.7 288.95,-176.7"/>
<text text-anchor="middle" x="307.95" y="-188.3" font-family="Times,serif" font-size="14.00">समुच्चितः</text>
</g>
<!-- Node1_1 -->
<g id="node3" class="node">
<title>Node1_1</title>
<ellipse fill="#ffff00" stroke="#ffff00" cx="558.45" cy="-61.5" rx="49.29" ry="18"/>
<text text-anchor="middle" x="558.45" y="-57.8" font-family="Times,serif" font-size="14.00">विद्या&#45;(1.1)</text>
</g>
<!-- Node1_2 -->
<g id="node4" class="node">
<title>Node1_2</title>
<ellipse fill="#93db70" stroke="#93db70" cx="610.45" cy="-148.5" rx="49.29" ry="18"/>
<text text-anchor="middle" x="610.45" y="-144.8" font-family="Times,serif" font-size="14.00">वृद्धान्(1.2)</text>
</g>
<!-- Node1_1&#45;&gt;Node1_2 -->
<g id="edge1" class="edge">
<title>Node1_1&#45;&gt;Node1_2</title>
<path fill="none" stroke="black" d="M563.1,-89.48C565.19,-97.28 568.19,-105.55 572.45,-112.5 576.85,-119.69 583.14,-126.32 589.35,-131.83"/>
<polygon fill="black" stroke="black" points="566.49,-88.61 560.83,-79.65 559.67,-90.18 566.49,-88.61"/>
<text text-anchor="middle" x="581.95" y="-101.3" font-family="Times,serif" font-size="14.00">T3</text>
</g>
<!-- Node5_1 -->
<g id="node5" class="node">
<title>Node5_1</title>
<ellipse fill="#ff1975" stroke="#ff1975" cx="790.45" cy="-235.5" rx="62.29" ry="18"/>
<text text-anchor="middle" x="790.45" y="-231.8" font-family="Times,serif" font-size="14.00">उपासीथाः(5.1)</text>
</g>
<!-- Node1_2&#45;&gt;Node5_1 -->
<g id="edge2" class="edge">
<title>Node1_2&#45;&gt;Node5_1</title>
<path fill="none" stroke="black" d="M648.67,-167.55C681.58,-183.09 728.47,-205.24 759.18,-219.74"/>
<polygon fill="black" stroke="black" points="649.9,-164.26 639.37,-163.16 646.91,-170.59 649.9,-164.26"/>
<text text-anchor="middle" x="719.45" y="-188.3" font-family="Times,serif" font-size="14.00">कर्म</text>
</g>
<!-- Node2_1 -->
<g id="node6" class="node">
<title>Node2_1</title>
<ellipse fill="#ff99ff" stroke="#ff99ff" cx="970.45" cy="-148.5" rx="44.69" ry="18"/>
<text text-anchor="middle" x="970.45" y="-144.8" font-family="Times,serif" font-size="14.00">सदा(2.1)</text>
</g>
<!-- Node2_1&#45;&gt;Node5_1 -->
<g id="edge3" class="edge">
<title>Node2_1&#45;&gt;Node5_1</title>
<path fill="none" stroke="black" d="M934.97,-167.79C915.95,-177.46 892.05,-189.38 870.45,-199.5 855.34,-206.57 838.45,-214.03 824.09,-220.23"/>
<polygon fill="black" stroke="black" points="936.57,-170.91 943.89,-163.24 933.39,-164.67 936.57,-170.91"/>
<text text-anchor="middle" x="935.95" y="-188.3" font-family="Times,serif" font-size="14.00">कालाधिकरणम्</text>
</g>
<!-- Node3_1 -->
<g id="node7" class="node">
<title>Node3_1</title>
<ellipse fill="#ff99ff" stroke="#ff99ff" cx="970.45" cy="-61.5" rx="41.69" ry="18"/>
<text text-anchor="middle" x="970.45" y="-57.8" font-family="Times,serif" font-size="14.00">एव(3.1)</text>
</g>
<!-- Node3_1&#45;&gt;Node2_1 -->
<g id="edge4" class="edge">
<title>Node3_1&#45;&gt;Node2_1</title>
<path fill="none" stroke="black" d="M970.45,-89.77C970.45,-103.08 970.45,-118.69 970.45,-130.32"/>
<polygon fill="black" stroke="black" points="973.95,-89.7 970.45,-79.7 966.95,-89.7 973.95,-89.7"/>
<text text-anchor="middle" x="988.95" y="-101.3" font-family="Times,serif" font-size="14.00">सम्बन्धः</text>
</g>
<!-- Node4_1 -->
<g id="node8" class="node">
<title>Node4_1</title>
<ellipse fill="#00bfff" stroke="#00bfff" cx="446.45" cy="-61.5" rx="44.39" ry="18"/>
<text text-anchor="middle" x="446.45" y="-57.8" font-family="Times,serif" font-size="14.00">त्वम्(4.1)</text>
</g>
<!-- Node4_1&#45;&gt;Node12_1 -->
<g id="edge7" class="edge">
<title>Node4_1&#45;&gt;Node12_1</title>
<path fill="none" stroke="black" stroke-dasharray="1,5" d="M423.28,-85.63C412.98,-94.95 400.28,-105.2 387.45,-112.5 368.73,-123.14 346.24,-131.28 327.15,-137.02"/>
<polygon fill="black" stroke="black" points="425.74,-88.12 430.66,-78.74 420.96,-83 425.74,-88.12"/>
<text text-anchor="middle" x="418.45" y="-101.3" font-family="Times,serif" font-size="14.00">कर्ता</text>
</g>
<!-- Node4_1&#45;&gt;Node7_1 -->
<g id="edge6" class="edge">
<title>Node4_1&#45;&gt;Node7_1</title>
<path fill="none" stroke="black" stroke-dasharray="1,5" d="M441.87,-89.53C439.78,-97.33 436.77,-105.59 432.45,-112.5 402.02,-161.15 345.59,-199.76 312.19,-219.68"/>
<polygon fill="black" stroke="black" points="445.31,-90.22 444.13,-79.69 438.48,-88.66 445.31,-90.22"/>
<text text-anchor="middle" x="434.45" y="-144.8" font-family="Times,serif" font-size="14.00">कर्ता</text>
</g>
<!-- Node4_1&#45;&gt;Node5_1 -->
<g id="edge5" class="edge">
<title>Node4_1&#45;&gt;Node5_1</title>
<path fill="none" stroke="black" d="M460.65,-88.19C475.14,-112.03 499.81,-146.71 530.45,-166.5 591.88,-206.19 675.56,-222.77 731.21,-229.66"/>
<polygon fill="black" stroke="black" points="463.52,-86.17 455.42,-79.34 457.49,-89.73 463.52,-86.17"/>
<text text-anchor="middle" x="541.45" y="-144.8" font-family="Times,serif" font-size="14.00">कर्ता</text>
</g>
<!-- Node6_1 -->
<g id="node9" class="node">
<title>Node6_1</title>
<ellipse fill="#6fffc3" stroke="#6fffc3" cx="851.45" cy="-148.5" rx="55.79" ry="18"/>
<text text-anchor="middle" x="851.45" y="-144.8" font-family="Times,serif" font-size="14.00">युधिष्ठिर(6.1)</text>
</g>
<!-- Node6_1&#45;&gt;Node5_1 -->
<g id="edge8" class="edge">
<title>Node6_1&#45;&gt;Node5_1</title>
<path fill="none" stroke="black" d="M833.5,-174.51C823.5,-188.44 811.32,-205.41 802.47,-217.74"/>
<polygon fill="black" stroke="black" points="836.41,-176.46 839.39,-166.29 830.72,-172.38 836.41,-176.46"/>
<text text-anchor="middle" x="845.45" y="-188.3" font-family="Times,serif" font-size="14.00">सम्बोध्यः</text>
</g>
<!-- Node8_1 -->
<g id="node10" class="node">
<title>Node8_1</title>
<ellipse fill="#00bfff" stroke="#00bfff" cx="662.45" cy="-61.5" rx="37.09" ry="18"/>
<text text-anchor="middle" x="662.45" y="-57.8" font-family="Times,serif" font-size="14.00">ते(8.1)</text>
</g>
<!-- Node8_1&#45;&gt;Node1_2 -->
<g id="edge10" class="edge">
<title>Node8_1&#45;&gt;Node1_2</title>
<path fill="none" stroke="black" stroke-dasharray="1,5" d="M632.54,-82.95C627.91,-87.28 623.62,-92.17 620.45,-97.5 614.56,-107.39 612.07,-120.13 611.05,-130.27"/>
<polygon fill="black" stroke="black" points="635.12,-85.35 640.51,-76.23 630.61,-80 635.12,-85.35"/>
<text text-anchor="middle" x="638.95" y="-101.3" font-family="Times,serif" font-size="14.00">सम्बन्धः</text>
</g>
<!-- Node11_1 -->
<g id="node11" class="node">
<title>Node11_1</title>
<ellipse fill="#ff1975" stroke="#ff1975" cx="727.45" cy="-148.5" rx="50.09" ry="18"/>
<text text-anchor="middle" x="727.45" y="-144.8" font-family="Times,serif" font-size="14.00">ब्रूयुः(11.1)</text>
</g>
<!-- Node8_1&#45;&gt;Node11_1 -->
<g id="edge9" class="edge">
<title>Node8_1&#45;&gt;Node11_1</title>
<path fill="none" stroke="black" d="M681.3,-87.15C692.04,-101.2 705.21,-118.42 714.73,-130.87"/>
<polygon fill="black" stroke="black" points="683.83,-84.71 674.98,-78.89 678.27,-88.96 683.83,-84.71"/>
<text text-anchor="middle" x="709.45" y="-101.3" font-family="Times,serif" font-size="14.00">कर्ता</text>
</g>
<!-- Node9_1 -->
<g id="node12" class="node">
<title>Node9_1</title>
<ellipse fill="#ff99ff" stroke="#ff99ff" cx="869.45" cy="-61.5" rx="37.89" ry="18"/>
<text text-anchor="middle" x="869.45" y="-57.8" font-family="Times,serif" font-size="14.00">च(9.1)</text>
</g>
<!-- Node9_1&#45;&gt;Node11_1 -->
<g id="edge11" class="edge">
<title>Node9_1&#45;&gt;Node11_1</title>
<path fill="none" stroke="black" d="M838.27,-81.16C812.41,-96.64 776.14,-118.35 752.23,-132.67"/>
<polygon fill="black" stroke="black" points="840.16,-84.11 846.95,-75.97 836.57,-78.1 840.16,-84.11"/>
<text text-anchor="middle" x="824.95" y="-101.3" font-family="Times,serif" font-size="14.00">सम्बन्धः</text>
</g>
<!-- Node10_1 -->
<g id="node13" class="node">
<title>Node10_1</title>
<ellipse fill="#93db70" stroke="#93db70" cx="765.45" cy="-61.5" rx="48.19" ry="18"/>
<text text-anchor="middle" x="765.45" y="-57.8" font-family="Times,serif" font-size="14.00">यत्(10.1)</text>
</g>
<!-- Node10_1&#45;&gt;Node11_1 -->
<g id="edge12" class="edge">
<title>Node10_1&#45;&gt;Node11_1</title>
<path fill="none" stroke="black" d="M753.76,-88.63C747.68,-102.23 740.42,-118.48 735.07,-130.45"/>
<polygon fill="black" stroke="black" points="757.05,-89.85 757.94,-79.29 750.66,-86.99 757.05,-89.85"/>
<text text-anchor="middle" x="757.45" y="-101.3" font-family="Times,serif" font-size="14.00">कर्म</text>
</g>
<!-- Node11_2 -->
<g id="node14" class="node">
<title>Node11_2</title>
<ellipse fill="#93db70" stroke="#93db70" cx="167.45" cy="-61.5" rx="54.69" ry="18"/>
<text text-anchor="middle" x="167.45" y="-57.8" font-family="Times,serif" font-size="14.00">(तत्)(11.2)</text>
</g>
<!-- Node11_2&#45;&gt;Node12_1 -->
<g id="edge14" class="edge">
<title>Node11_2&#45;&gt;Node12_1</title>
<path fill="none" stroke="black" stroke-dasharray="1,5" d="M197.22,-83.94C217.85,-98.81 244.87,-118.27 263.54,-131.72"/>
<polygon fill="black" stroke="black" points="199.25,-81.1 189.09,-78.09 195.16,-86.78 199.25,-81.1"/>
<text text-anchor="middle" x="242.45" y="-101.3" font-family="Times,serif" font-size="14.00">कर्म</text>
</g>
<!-- Node11_2&#45;&gt;Node7_1 -->
<g id="edge13" class="edge">
<title>Node11_2&#45;&gt;Node7_1</title>
<path fill="none" stroke="black" d="M172.86,-89.37C178.25,-111.52 188.12,-142.99 204.45,-166.5 219.53,-188.21 243.27,-207.02 261.16,-219.31"/>
<polygon fill="black" stroke="black" points="176.27,-88.59 170.63,-79.62 169.45,-90.15 176.27,-88.59"/>
<text text-anchor="middle" x="213.45" y="-144.8" font-family="Times,serif" font-size="14.00">कर्म</text>
</g>
<!-- Node11_2&#45;&gt;Node10_1 -->
<g id="edge15" class="edge">
<title>Node11_2&#45;&gt;Node10_1</title>
<path fill="none" stroke="red" stroke-dasharray="5,2" d="M217.24,-46.72C222.02,-45.53 226.81,-44.44 231.45,-43.5 439.24,-1.5 501.33,1.72 708.45,-43.5 712.33,-44.35 716.32,-45.34 720.31,-46.43"/>
<polygon fill="red" stroke="red" points="216.31,-43.34 207.51,-49.24 218.07,-50.12 216.31,-43.34"/>
<polygon fill="red" stroke="red" points="719.56,-49.85 730.14,-49.26 721.5,-43.13 719.56,-49.85"/>
<text text-anchor="middle" x="469.45" y="-14.3" font-family="Times,serif" font-size="14.00">नित्यसम्बन्धः</text>
</g>
<!-- Node13_1 -->
<g id="node15" class="node">
<title>Node13_1</title>
<ellipse fill="#ff99ff" stroke="#ff99ff" cx="54.45" cy="-148.5" rx="43.59" ry="18"/>
<text text-anchor="middle" x="54.45" y="-144.8" font-family="Times,serif" font-size="14.00">च(13.1)</text>
</g>
<!-- Node13_1&#45;&gt;Node7_1 -->
<g id="edge17" class="edge">
<title>Node13_1&#45;&gt;Node7_1</title>
<path fill="none" stroke="black" d="M68.09,-175.31C74.09,-184.3 81.95,-193.6 91.45,-199.5 114.77,-214 185.11,-224.07 234.33,-229.57"/>
<polygon fill="black" stroke="black" points="70.93,-173.25 62.71,-166.56 64.97,-176.92 70.93,-173.25"/>
<text text-anchor="middle" x="129.45" y="-188.3" font-family="Times,serif" font-size="14.00">समुच्चय_द्योतकः</text>
</g>
<!-- Node14_1 -->
<g id="node16" class="node">
<title>Node14_1</title>
<ellipse fill="#ff99ff" stroke="#ff99ff" cx="47.45" cy="-61.5" rx="47.39" ry="18"/>
<text text-anchor="middle" x="47.45" y="-57.8" font-family="Times,serif" font-size="14.00">एव(14.1)</text>
</g>
<!-- Node14_1&#45;&gt;Node13_1 -->
<g id="edge18" class="edge">
<title>Node14_1&#45;&gt;Node13_1</title>
<path fill="none" stroke="black" d="M49.69,-89.77C50.79,-103.08 52.07,-118.69 53.03,-130.32"/>
<polygon fill="black" stroke="black" points="53.17,-89.38 48.86,-79.7 46.19,-89.95 53.17,-89.38"/>
<text text-anchor="middle" x="69.95" y="-101.3" font-family="Times,serif" font-size="14.00">सम्बन्धः</text>
</g>
<!-- Node15_1 -->
<g id="node17" class="node">
<title>Node15_1</title>
<ellipse fill="#00bfff" stroke="#00bfff" cx="312.45" cy="-61.5" rx="72.29" ry="18"/>
<text text-anchor="middle" x="312.45" y="-57.8" font-family="Times,serif" font-size="14.00">अविचारयन्(15.1)</text>
</g>
<!-- Node15_1&#45;&gt;Node12_1 -->
<g id="edge19" class="edge">
<title>Node15_1&#45;&gt;Node12_1</title>
<path fill="none" stroke="black" d="M302.35,-88.98C301.33,-91.85 300.35,-94.73 299.45,-97.5 295.93,-108.3 292.49,-120.58 289.89,-130.27"/>
<polygon fill="black" stroke="black" points="305.67,-90.08 305.81,-79.49 299.1,-87.68 305.67,-90.08"/>
<text text-anchor="middle" x="343.45" y="-101.3" font-family="Times,serif" font-size="14.00">वर्तमानसमानकालः</text>
</g>
</g>
</svg>
