<?xml version="1.0" encoding="UTF-8" standalone="no"?>
<!DOCTYPE svg PUBLIC "-//W3C//DTD SVG 1.1//EN"
 "http://www.w3.org/Graphics/SVG/1.1/DTD/svg11.dtd">
<!-- Generated by graphviz version 2.43.0 (0)
 -->
<!-- Title: G Pages: 1 -->
<svg width="828pt" height="392pt"
 viewBox="0.00 0.00 827.94 392.00" xmlns="http://www.w3.org/2000/svg" xmlns:xlink="http://www.w3.org/1999/xlink">
<g id="graph0" class="graph" transform="scale(1 1) rotate(0) translate(4 388)">
<title>G</title>
<polygon fill="#fffacd" stroke="transparent" points="-4,4 -4,-388 823.94,-388 823.94,4 -4,4"/>
<!-- Node1_1 -->
<g id="node1" class="node">
<title>Node1_1</title>
<ellipse fill="#ffff00" stroke="#ffff00" cx="46.15" cy="-18" rx="46.29" ry="18"/>
<text text-anchor="middle" x="46.15" y="-14.3" font-family="Times,serif" font-size="14.00">पौर&#45;(1.1)</text>
</g>
<!-- Node1_2 -->
<g id="node2" class="node">
<title>Node1_2</title>
<ellipse fill="#87ceeb" stroke="#87ceeb" cx="97.15" cy="-105" rx="69.59" ry="18"/>
<text text-anchor="middle" x="97.15" y="-101.3" font-family="Times,serif" font-size="14.00">जानपदानाम्(1.2)</text>
</g>
<!-- Node1_1&#45;&gt;Node1_2 -->
<g id="edge1" class="edge">
<title>Node1_1&#45;&gt;Node1_2</title>
<path fill="none" stroke="black" d="M61.59,-44.74C69.8,-58.42 79.66,-74.86 86.92,-86.95"/>
<polygon fill="black" stroke="black" points="64.37,-42.57 56.22,-35.79 58.37,-46.17 64.37,-42.57"/>
<text text-anchor="middle" x="92.15" y="-57.8" font-family="Times,serif" font-size="14.00">समासः</text>
</g>
<!-- Node3_2 -->
<g id="node3" class="node">
<title>Node3_2</title>
<ellipse fill="#93db70" stroke="#93db70" cx="165.15" cy="-192" rx="57.39" ry="18"/>
<text text-anchor="middle" x="165.15" y="-188.3" font-family="Times,serif" font-size="14.00">अशौचम्(3.2)</text>
</g>
<!-- Node1_2&#45;&gt;Node3_2 -->
<g id="edge2" class="edge">
<title>Node1_2&#45;&gt;Node3_2</title>
<path fill="none" stroke="black" d="M116.84,-130.61C128.04,-144.62 141.78,-161.79 151.74,-174.24"/>
<polygon fill="black" stroke="black" points="119.56,-128.42 110.58,-122.79 114.09,-132.79 119.56,-128.42"/>
<text text-anchor="middle" x="163.65" y="-144.8" font-family="Times,serif" font-size="14.00">षष्ठीसम्बन्धः</text>
</g>
<!-- Node7_1 -->
<g id="node6" class="node">
<title>Node7_1</title>
<ellipse fill="#93db70" stroke="#93db70" cx="165.15" cy="-279" rx="55.79" ry="18"/>
<text text-anchor="middle" x="165.15" y="-275.3" font-family="Times,serif" font-size="14.00">विदितम्(7.1)</text>
</g>
<!-- Node3_2&#45;&gt;Node7_1 -->
<g id="edge5" class="edge">
<title>Node3_2&#45;&gt;Node7_1</title>
<path fill="none" stroke="black" d="M165.15,-220.27C165.15,-233.58 165.15,-249.19 165.15,-260.82"/>
<polygon fill="black" stroke="black" points="168.65,-220.2 165.15,-210.2 161.65,-220.2 168.65,-220.2"/>
<text text-anchor="middle" x="174.15" y="-231.8" font-family="Times,serif" font-size="14.00">कर्म</text>
</g>
<!-- Node2_1 -->
<g id="node4" class="node">
<title>Node2_1</title>
<ellipse fill="#ff99ff" stroke="#ff99ff" cx="148.15" cy="-18" rx="37.89" ry="18"/>
<text text-anchor="middle" x="148.15" y="-14.3" font-family="Times,serif" font-size="14.00">च(2.1)</text>
</g>
<!-- Node2_1&#45;&gt;Node1_2 -->
<g id="edge3" class="edge">
<title>Node2_1&#45;&gt;Node1_2</title>
<path fill="none" stroke="black" d="M133.15,-43.99C124.83,-57.87 114.69,-74.76 107.3,-87.08"/>
<polygon fill="black" stroke="black" points="136.17,-45.76 138.31,-35.39 130.17,-42.16 136.17,-45.76"/>
<text text-anchor="middle" x="144.65" y="-57.8" font-family="Times,serif" font-size="14.00">सम्बन्धः</text>
</g>
<!-- Node3_1 -->
<g id="node5" class="node">
<title>Node3_1</title>
<ellipse fill="#ffff00" stroke="#ffff00" cx="233.15" cy="-105" rx="48.99" ry="18"/>
<text text-anchor="middle" x="233.15" y="-101.3" font-family="Times,serif" font-size="14.00">शौच&#45;(3.1)</text>
</g>
<!-- Node3_1&#45;&gt;Node3_2 -->
<g id="edge4" class="edge">
<title>Node3_1&#45;&gt;Node3_2</title>
<path fill="none" stroke="black" d="M214.68,-130.89C208.56,-138.98 201.65,-147.94 195.15,-156 190.22,-162.1 184.67,-168.66 179.69,-174.43"/>
<polygon fill="black" stroke="black" points="217.51,-132.95 220.72,-122.86 211.92,-128.75 217.51,-132.95"/>
<text text-anchor="middle" x="224.15" y="-144.8" font-family="Times,serif" font-size="14.00">समासः</text>
</g>
<!-- Node6_1 -->
<g id="node10" class="node">
<title>Node6_1</title>
<ellipse fill="#ff1975" stroke="#ff1975" cx="284.15" cy="-366" rx="48.19" ry="18"/>
<text text-anchor="middle" x="284.15" y="-362.3" font-family="Times,serif" font-size="14.00">स्यात्(6.1)</text>
</g>
<!-- Node7_1&#45;&gt;Node6_1 -->
<g id="edge8" class="edge">
<title>Node7_1&#45;&gt;Node6_1</title>
<path fill="none" stroke="black" d="M195.28,-301.52C216.37,-316.59 244.04,-336.35 262.86,-349.79"/>
<polygon fill="black" stroke="black" points="197.14,-298.55 186.97,-295.59 193.08,-304.25 197.14,-298.55"/>
<text text-anchor="middle" x="241.15" y="-318.8" font-family="Times,serif" font-size="14.00">कर्म</text>
</g>
<!-- Node4_1 -->
<g id="node7" class="node">
<title>Node4_1</title>
<ellipse fill="#6fffc3" stroke="#6fffc3" cx="260.15" cy="-18" rx="55.79" ry="18"/>
<text text-anchor="middle" x="260.15" y="-14.3" font-family="Times,serif" font-size="14.00">युधिष्ठिर(4.1)</text>
</g>
<!-- Node10_1 -->
<g id="node8" class="node">
<title>Node10_1</title>
<ellipse fill="#93db70" stroke="#93db70" cx="495.15" cy="-105" rx="56.59" ry="18"/>
<text text-anchor="middle" x="495.15" y="-101.3" font-family="Times,serif" font-size="14.00">कार्यम्(10.1)</text>
</g>
<!-- Node4_1&#45;&gt;Node10_1 -->
<g id="edge6" class="edge">
<title>Node4_1&#45;&gt;Node10_1</title>
<path fill="none" stroke="black" d="M302.48,-36.42C327.06,-46.35 358.69,-58.8 387.15,-69 409.78,-77.11 435.37,-85.44 455.96,-91.94"/>
<polygon fill="black" stroke="black" points="303.67,-33.13 293.09,-32.62 301.04,-39.62 303.67,-33.13"/>
<text text-anchor="middle" x="408.15" y="-57.8" font-family="Times,serif" font-size="14.00">सम्बोध्यः</text>
</g>
<!-- Node5_1 -->
<g id="node9" class="node">
<title>Node5_1</title>
<ellipse fill="#ff99ff" stroke="#ff99ff" cx="284.15" cy="-279" rx="44.69" ry="18"/>
<text text-anchor="middle" x="284.15" y="-275.3" font-family="Times,serif" font-size="14.00">यथा(5.1)</text>
</g>
<!-- Node5_1&#45;&gt;Node6_1 -->
<g id="edge7" class="edge">
<title>Node5_1&#45;&gt;Node6_1</title>
<path fill="none" stroke="black" d="M284.15,-307.27C284.15,-320.58 284.15,-336.19 284.15,-347.82"/>
<polygon fill="black" stroke="black" points="287.65,-307.2 284.15,-297.2 280.65,-307.2 287.65,-307.2"/>
<text text-anchor="middle" x="319.15" y="-318.8" font-family="Times,serif" font-size="14.00">क्रियाविशेषणम्</text>
</g>
<!-- Node12_1 -->
<g id="node11" class="node">
<title>Node12_1</title>
<ellipse fill="#40e0d0" stroke="#40e0d0" cx="407.15" cy="-279" rx="59.59" ry="18"/>
<text text-anchor="middle" x="407.15" y="-275.3" font-family="Times,serif" font-size="14.00">(त्वया)(12.1)</text>
</g>
<!-- Node12_1&#45;&gt;Node6_1 -->
<g id="edge12" class="edge">
<title>Node12_1&#45;&gt;Node6_1</title>
<path fill="none" stroke="black" d="M386.64,-304.29C378.39,-313.11 368.41,-322.69 358.15,-330 345.53,-338.98 330.24,-346.66 316.84,-352.52"/>
<polygon fill="black" stroke="black" points="389.29,-306.57 393.41,-296.81 384.1,-301.88 389.29,-306.57"/>
<text text-anchor="middle" x="387.15" y="-318.8" font-family="Times,serif" font-size="14.00">कर्ता</text>
</g>
<!-- Node8_1 -->
<g id="node12" class="node">
<title>Node8_1</title>
<ellipse fill="#6fffc3" stroke="#6fffc3" cx="383.15" cy="-18" rx="48.99" ry="18"/>
<text text-anchor="middle" x="383.15" y="-14.3" font-family="Times,serif" font-size="14.00">राजन्(8.1)</text>
</g>
<!-- Node8_1&#45;&gt;Node10_1 -->
<g id="edge9" class="edge">
<title>Node8_1&#45;&gt;Node10_1</title>
<path fill="none" stroke="black" d="M411.4,-40.44C430.95,-55.28 456.53,-74.69 474.26,-88.15"/>
<polygon fill="black" stroke="black" points="413.51,-37.65 403.43,-34.39 409.28,-43.23 413.51,-37.65"/>
<text text-anchor="middle" x="467.15" y="-57.8" font-family="Times,serif" font-size="14.00">सम्बोध्यः</text>
</g>
<!-- Node9_1 -->
<g id="node13" class="node">
<title>Node9_1</title>
<ellipse fill="#ff99ff" stroke="#ff99ff" cx="495.15" cy="-18" rx="44.69" ry="18"/>
<text text-anchor="middle" x="495.15" y="-14.3" font-family="Times,serif" font-size="14.00">तथा(9.1)</text>
</g>
<!-- Node9_1&#45;&gt;Node10_1 -->
<g id="edge10" class="edge">
<title>Node9_1&#45;&gt;Node10_1</title>
<path fill="none" stroke="black" d="M495.15,-46.27C495.15,-59.58 495.15,-75.19 495.15,-86.82"/>
<polygon fill="black" stroke="black" points="498.65,-46.2 495.15,-36.2 491.65,-46.2 498.65,-46.2"/>
<text text-anchor="middle" x="530.15" y="-57.8" font-family="Times,serif" font-size="14.00">क्रियाविशेषणम्</text>
</g>
<!-- Node11_1 -->
<g id="node14" class="node">
<title>Node11_1</title>
<ellipse fill="#6fffc3" stroke="#6fffc3" cx="620.15" cy="-18" rx="61.99" ry="18"/>
<text text-anchor="middle" x="620.15" y="-14.3" font-family="Times,serif" font-size="14.00">अरिन्दम(11.1)</text>
</g>
<!-- Node11_1&#45;&gt;Node10_1 -->
<g id="edge11" class="edge">
<title>Node11_1&#45;&gt;Node10_1</title>
<path fill="none" stroke="black" d="M598.66,-43.24C590.05,-52.06 579.69,-61.65 569.15,-69 557.02,-77.45 542.53,-84.81 529.61,-90.57"/>
<polygon fill="black" stroke="black" points="601.4,-45.44 605.73,-35.77 596.31,-40.63 601.4,-45.44"/>
<text text-anchor="middle" x="609.15" y="-57.8" font-family="Times,serif" font-size="14.00">सम्बोध्यः</text>
</g>
<!-- Node13_1 -->
<g id="node15" class="node">
<title>Node13_1</title>
<ellipse fill="#40e0d0" stroke="#40e0d0" cx="760.15" cy="-18" rx="59.59" ry="18"/>
<text text-anchor="middle" x="760.15" y="-14.3" font-family="Times,serif" font-size="14.00">(त्वया)(13.1)</text>
</g>
<!-- Node13_1&#45;&gt;Node10_1 -->
<g id="edge13" class="edge">
<title>Node13_1&#45;&gt;Node10_1</title>
<path fill="none" stroke="black" d="M718.4,-37.16C694.1,-47.33 662.72,-59.78 634.15,-69 603.36,-78.94 568,-87.81 540.64,-94.13"/>
<polygon fill="black" stroke="black" points="719.83,-40.36 727.68,-33.25 717.1,-33.91 719.83,-40.36"/>
<text text-anchor="middle" x="687.15" y="-57.8" font-family="Times,serif" font-size="14.00">कर्ता</text>
</g>
</g>
</svg>
