<?xml version="1.0" encoding="UTF-8" standalone="no"?>
<!DOCTYPE svg PUBLIC "-//W3C//DTD SVG 1.1//EN"
 "http://www.w3.org/Graphics/SVG/1.1/DTD/svg11.dtd">
<!-- Generated by graphviz version 2.43.0 (0)
 -->
<!-- Title: G Pages: 1 -->
<svg width="942pt" height="321pt"
 viewBox="0.00 0.00 941.69 321.00" xmlns="http://www.w3.org/2000/svg" xmlns:xlink="http://www.w3.org/1999/xlink">
<g id="graph0" class="graph" transform="scale(1 1) rotate(0) translate(4 317)">
<title>G</title>
<polygon fill="#fffacd" stroke="transparent" points="-4,4 -4,-317 937.69,-317 937.69,4 -4,4"/>
<g id="clust1" class="cluster">
<title>cluster_1</title>
<polygon fill="#fffacd" stroke="black" points="373.9,-95 373.9,-234 829.9,-234 829.9,-95 373.9,-95"/>
</g>
<g id="clust2" class="cluster">
<title>cluster_2</title>
<polygon fill="#fffacd" stroke="black" points="221.9,-8 221.9,-147 365.9,-147 365.9,-8 221.9,-8"/>
</g>
<!-- Node1_3 -->
<g id="node1" class="node">
<title>Node1_3</title>
<ellipse fill="#00bfff" stroke="#00bfff" cx="774.9" cy="-121" rx="46.59" ry="18"/>
<text text-anchor="middle" x="774.9" y="-117.3" font-family="Times,serif" font-size="14.00">गतिः(1.3)</text>
</g>
<!-- Node8_2 -->
<g id="node2" class="node">
<title>Node8_2</title>
<ellipse fill="#00bfff" stroke="#00bfff" cx="533.9" cy="-208" rx="48.19" ry="18"/>
<text text-anchor="middle" x="533.9" y="-204.3" font-family="Times,serif" font-size="14.00">पालः(8.2)</text>
</g>
<!-- Node1_3&#45;&gt;Node8_2 -->
<g id="edge3" class="edge">
<title>Node1_3&#45;&gt;Node8_2</title>
<path fill="none" stroke="black" d="M736.79,-139.39C730.83,-142 724.71,-144.62 718.9,-147 689.48,-159.04 682.04,-161.92 651.9,-172 625.15,-180.95 594.61,-189.97 571.3,-196.62"/>
<polygon fill="black" stroke="black" points="738.25,-142.57 745.98,-135.32 735.42,-136.17 738.25,-142.57"/>
<text text-anchor="middle" x="715.4" y="-160.8" font-family="Times,serif" font-size="14.00">विशेषणम्</text>
</g>
<!-- Node12_1 -->
<g id="node13" class="node">
<title>Node12_1</title>
<ellipse fill="#ff1975" stroke="#ff1975" cx="351.9" cy="-295" rx="57.39" ry="18"/>
<text text-anchor="middle" x="351.9" y="-291.3" font-family="Times,serif" font-size="14.00">(ययौ)(12.1)</text>
</g>
<!-- Node8_2&#45;&gt;Node12_1 -->
<g id="edge11" class="edge">
<title>Node8_2&#45;&gt;Node12_1</title>
<path fill="none" stroke="black" d="M495.98,-226.71C462.28,-242.45 413.66,-265.15 382.42,-279.74"/>
<polygon fill="black" stroke="black" points="497.48,-229.87 505.06,-222.47 494.51,-223.53 497.48,-229.87"/>
<text text-anchor="middle" x="463.9" y="-247.8" font-family="Times,serif" font-size="14.00">कर्ता</text>
</g>
<!-- Node2_1 -->
<g id="node3" class="node">
<title>Node2_1</title>
<ellipse fill="#00bfff" stroke="#00bfff" cx="657.9" cy="-121" rx="51.99" ry="18"/>
<text text-anchor="middle" x="657.9" y="-117.3" font-family="Times,serif" font-size="14.00">धीमान्(2.1)</text>
</g>
<!-- Node2_1&#45;&gt;Node8_2 -->
<g id="edge4" class="edge">
<title>Node2_1&#45;&gt;Node8_2</title>
<path fill="none" stroke="black" d="M627.09,-143.12C605.08,-158.21 575.97,-178.16 556.18,-191.72"/>
<polygon fill="black" stroke="black" points="629.17,-145.93 635.44,-137.39 625.21,-140.16 629.17,-145.93"/>
<text text-anchor="middle" x="625.4" y="-160.8" font-family="Times,serif" font-size="14.00">विशेषणम्</text>
</g>
<!-- Node6_1 -->
<g id="node4" class="node">
<title>Node6_1</title>
<ellipse fill="#00bfff" stroke="#00bfff" cx="533.9" cy="-121" rx="53.89" ry="18"/>
<text text-anchor="middle" x="533.9" y="-117.3" font-family="Times,serif" font-size="14.00">पदातिः(6.1)</text>
</g>
<!-- Node6_1&#45;&gt;Node8_2 -->
<g id="edge8" class="edge">
<title>Node6_1&#45;&gt;Node8_2</title>
<path fill="none" stroke="black" d="M533.9,-149.27C533.9,-162.58 533.9,-178.19 533.9,-189.82"/>
<polygon fill="black" stroke="black" points="537.4,-149.2 533.9,-139.2 530.4,-149.2 537.4,-149.2"/>
<text text-anchor="middle" x="556.4" y="-160.8" font-family="Times,serif" font-size="14.00">विशेषणम्</text>
</g>
<!-- Node7_1 -->
<g id="node5" class="node">
<title>Node7_1</title>
<ellipse fill="#00bfff" stroke="#00bfff" cx="421.9" cy="-121" rx="40.09" ry="18"/>
<text text-anchor="middle" x="421.9" y="-117.3" font-family="Times,serif" font-size="14.00">सः(7.1)</text>
</g>
<!-- Node7_1&#45;&gt;Node8_2 -->
<g id="edge9" class="edge">
<title>Node7_1&#45;&gt;Node8_2</title>
<path fill="none" stroke="black" d="M448.52,-143.62C459.66,-152.54 472.81,-162.9 484.9,-172 493.75,-178.67 503.67,-185.81 512.26,-191.9"/>
<polygon fill="black" stroke="black" points="450.43,-140.67 440.45,-137.13 446.05,-146.12 450.43,-140.67"/>
<text text-anchor="middle" x="507.4" y="-160.8" font-family="Times,serif" font-size="14.00">विशेषणम्</text>
</g>
<!-- Node9_1 -->
<g id="node6" class="node">
<title>Node9_1</title>
<ellipse fill="#00bfff" stroke="#00bfff" cx="293.9" cy="-34" rx="49.29" ry="18"/>
<text text-anchor="middle" x="293.9" y="-30.3" font-family="Times,serif" font-size="14.00">जीर्णः(9.1)</text>
</g>
<!-- Node10_1 -->
<g id="node7" class="node">
<title>Node10_1</title>
<ellipse fill="#00bfff" stroke="#00bfff" cx="293.9" cy="-121" rx="63.89" ry="18"/>
<text text-anchor="middle" x="293.9" y="-117.3" font-family="Times,serif" font-size="14.00">गजपतिः(10.1)</text>
</g>
<!-- Node9_1&#45;&gt;Node10_1 -->
<g id="edge12" class="edge">
<title>Node9_1&#45;&gt;Node10_1</title>
<path fill="none" stroke="black" d="M293.9,-62.27C293.9,-75.58 293.9,-91.19 293.9,-102.82"/>
<polygon fill="black" stroke="black" points="297.4,-62.2 293.9,-52.2 290.4,-62.2 297.4,-62.2"/>
<text text-anchor="middle" x="316.4" y="-73.8" font-family="Times,serif" font-size="14.00">विशेषणम्</text>
</g>
<!-- Node10_1&#45;&gt;Node8_2 -->
<g id="edge13" class="edge">
<title>Node10_1&#45;&gt;Node8_2</title>
<path fill="none" stroke="black" d="M337.1,-140.13C361.27,-150.03 392.06,-162.22 419.9,-172 445.39,-180.95 474.51,-189.87 496.94,-196.47"/>
<polygon fill="black" stroke="black" points="338.42,-136.89 327.84,-136.33 335.76,-143.37 338.42,-136.89"/>
<text text-anchor="middle" x="440.4" y="-160.8" font-family="Times,serif" font-size="14.00">उपमानम्</text>
</g>
<!-- Node1_1 -->
<g id="node8" class="node">
<title>Node1_1</title>
<ellipse fill="#ffff00" stroke="#ffff00" cx="718.9" cy="-34" rx="46.59" ry="18"/>
<text text-anchor="middle" x="718.9" y="-30.3" font-family="Times,serif" font-size="14.00">मन्द&#45;(1.1)</text>
</g>
<!-- Node1_1&#45;&gt;Node1_3 -->
<g id="edge1" class="edge">
<title>Node1_1&#45;&gt;Node1_3</title>
<path fill="none" stroke="black" d="M735.63,-60.4C744.76,-74.26 755.81,-91.03 763.85,-103.24"/>
<polygon fill="black" stroke="black" points="738.38,-58.22 729.96,-51.79 732.54,-62.07 738.38,-58.22"/>
<text text-anchor="middle" x="763.9" y="-73.8" font-family="Times,serif" font-size="14.00">Bs6</text>
</g>
<!-- Node1_2 -->
<g id="node9" class="node">
<title>Node1_2</title>
<ellipse fill="#ffff00" stroke="#ffff00" cx="829.9" cy="-34" rx="46.29" ry="18"/>
<text text-anchor="middle" x="829.9" y="-30.3" font-family="Times,serif" font-size="14.00">प्राण(1.2)</text>
</g>
<!-- Node1_2&#45;&gt;Node1_3 -->
<g id="edge2" class="edge">
<title>Node1_2&#45;&gt;Node1_3</title>
<path fill="none" stroke="black" d="M813.46,-60.4C804.49,-74.26 793.64,-91.03 785.74,-103.24"/>
<polygon fill="black" stroke="black" points="816.53,-62.09 819.03,-51.79 810.66,-58.29 816.53,-62.09"/>
<text text-anchor="middle" x="814.4" y="-73.8" font-family="Times,serif" font-size="14.00">T6</text>
</g>
<!-- Node3_1 -->
<g id="node10" class="node">
<title>Node3_1</title>
<ellipse fill="#b4ffb4" stroke="#b4ffb4" cx="55.9" cy="-121" rx="55.79" ry="18"/>
<text text-anchor="middle" x="55.9" y="-117.3" font-family="Times,serif" font-size="14.00">कृच्छ्रात्(3.1)</text>
</g>
<!-- Node5_1 -->
<g id="node11" class="node">
<title>Node5_1</title>
<ellipse fill="#ff1975" stroke="#ff1975" cx="170.9" cy="-208" rx="56.59" ry="18"/>
<text text-anchor="middle" x="170.9" y="-204.3" font-family="Times,serif" font-size="14.00">समुद्धरन्(5.1)</text>
</g>
<!-- Node3_1&#45;&gt;Node5_1 -->
<g id="edge5" class="edge">
<title>Node3_1&#45;&gt;Node5_1</title>
<path fill="none" stroke="black" d="M85.45,-143.85C105.53,-158.68 131.61,-177.96 149.65,-191.3"/>
<polygon fill="black" stroke="black" points="87.38,-140.92 77.26,-137.79 83.22,-146.55 87.38,-140.92"/>
<text text-anchor="middle" x="130.4" y="-160.8" font-family="Times,serif" font-size="14.00">हेतुः</text>
</g>
<!-- Node5_1&#45;&gt;Node12_1 -->
<g id="edge7" class="edge">
<title>Node5_1&#45;&gt;Node12_1</title>
<path fill="none" stroke="black" d="M210.65,-227.67C244.04,-243.35 291.06,-265.43 321.5,-279.73"/>
<polygon fill="black" stroke="black" points="211.73,-224.31 201.19,-223.23 208.75,-230.65 211.73,-224.31"/>
<text text-anchor="middle" x="315.9" y="-247.8" font-family="Times,serif" font-size="14.00">वर्तमानसमानकालः</text>
</g>
<!-- Node4_1 -->
<g id="node12" class="node">
<title>Node4_1</title>
<ellipse fill="#ff99ff" stroke="#ff99ff" cx="170.9" cy="-121" rx="40.89" ry="18"/>
<text text-anchor="middle" x="170.9" y="-117.3" font-family="Times,serif" font-size="14.00">इव(4.1)</text>
</g>
<!-- Node4_1&#45;&gt;Node5_1 -->
<g id="edge6" class="edge">
<title>Node4_1&#45;&gt;Node5_1</title>
<path fill="none" stroke="black" d="M170.9,-149.27C170.9,-162.58 170.9,-178.19 170.9,-189.82"/>
<polygon fill="black" stroke="black" points="174.4,-149.2 170.9,-139.2 167.4,-149.2 174.4,-149.2"/>
<text text-anchor="middle" x="189.4" y="-160.8" font-family="Times,serif" font-size="14.00">सम्बन्धः</text>
</g>
<!-- Node8_1 -->
<g id="node14" class="node">
<title>Node8_1</title>
<ellipse fill="#ffff00" stroke="#ffff00" cx="886.9" cy="-121" rx="46.59" ry="18"/>
<text text-anchor="middle" x="886.9" y="-117.3" font-family="Times,serif" font-size="14.00">मही&#45;(8.1)</text>
</g>
<!-- Node8_1&#45;&gt;Node8_2 -->
<g id="edge10" class="edge">
<title>Node8_1&#45;&gt;Node8_2</title>
<path fill="none" stroke="black" d="M850.85,-140.03C845.24,-142.54 839.46,-144.95 833.9,-147 747.05,-179 639.44,-195.24 579.57,-202.34"/>
<polygon fill="black" stroke="black" points="852.44,-143.15 860.05,-135.78 849.51,-136.8 852.44,-143.15"/>
<text text-anchor="middle" x="808.4" y="-160.8" font-family="Times,serif" font-size="14.00">U</text>
</g>
<!-- Node11_1 -->
<g id="node15" class="node">
<title>Node11_1</title>
<ellipse fill="#ff99ff" stroke="#ff99ff" cx="424.9" cy="-34" rx="50.89" ry="18"/>
<text text-anchor="middle" x="424.9" y="-30.3" font-family="Times,serif" font-size="14.00">यथा(11.1)</text>
</g>
<!-- Node11_1&#45;&gt;Node10_1 -->
<g id="edge14" class="edge">
<title>Node11_1&#45;&gt;Node10_1</title>
<path fill="none" stroke="black" d="M393.08,-55.64C370.11,-70.55 339.54,-90.38 318.45,-104.07"/>
<polygon fill="black" stroke="black" points="394.99,-58.58 401.47,-50.2 391.18,-52.7 394.99,-58.58"/>
<text text-anchor="middle" x="403.4" y="-73.8" font-family="Times,serif" font-size="14.00">उपमान_द्योतकः</text>
</g>
</g>
</svg>
