<?xml version="1.0" encoding="UTF-8" standalone="no"?>
<!DOCTYPE svg PUBLIC "-//W3C//DTD SVG 1.1//EN"
 "http://www.w3.org/Graphics/SVG/1.1/DTD/svg11.dtd">
<!-- Generated by graphviz version 2.43.0 (0)
 -->
<!-- Title: G Pages: 1 -->
<svg width="658pt" height="408pt"
 viewBox="0.00 0.00 658.00 408.00" xmlns="http://www.w3.org/2000/svg" xmlns:xlink="http://www.w3.org/1999/xlink">
<g id="graph0" class="graph" transform="scale(1 1) rotate(0) translate(4 404)">
<title>G</title>
<polygon fill="#fffacd" stroke="transparent" points="-4,4 -4,-404 654,-404 654,4 -4,4"/>
<g id="clust1" class="cluster">
<title>cluster_1</title>
<polygon fill="#fffacd" stroke="black" points="390,-182 390,-321 642,-321 642,-182 390,-182"/>
</g>
<g id="clust2" class="cluster">
<title>cluster_2</title>
<polygon fill="#fffacd" stroke="black" points="8,-182 8,-321 258,-321 258,-182 8,-182"/>
</g>
<g id="clust3" class="cluster">
<title>cluster_3</title>
<polygon fill="#fffacd" stroke="black" points="78,-8 78,-147 309,-147 309,-8 78,-8"/>
</g>
<!-- Node2_2 -->
<g id="node1" class="node">
<title>Node2_2</title>
<ellipse fill="#93db70" stroke="#93db70" cx="576" cy="-208" rx="57.69" ry="18"/>
<text text-anchor="middle" x="576" y="-204.3" font-family="Times,serif" font-size="14.00">अतीतान्(2.2)</text>
</g>
<!-- Node1_1 -->
<g id="node2" class="node">
<title>Node1_1</title>
<ellipse fill="#93db70" stroke="#93db70" cx="462" cy="-295" rx="61.99" ry="18"/>
<text text-anchor="middle" x="462" y="-291.3" font-family="Times,serif" font-size="14.00">अमात्यान्(1.1)</text>
</g>
<!-- Node2_2&#45;&gt;Node1_1 -->
<g id="edge3" class="edge">
<title>Node2_2&#45;&gt;Node1_1</title>
<path fill="none" stroke="black" d="M546.75,-230.81C526.99,-245.54 501.33,-264.67 483.45,-278.01"/>
<polygon fill="black" stroke="black" points="548.9,-233.57 554.82,-224.79 544.72,-227.96 548.9,-233.57"/>
<text text-anchor="middle" x="547.5" y="-247.8" font-family="Times,serif" font-size="14.00">विशेषणम्</text>
</g>
<!-- Node10_1 -->
<g id="node10" class="node">
<title>Node10_1</title>
<ellipse fill="#ff1975" stroke="#ff1975" cx="325" cy="-382" rx="58.49" ry="18"/>
<text text-anchor="middle" x="325" y="-378.3" font-family="Times,serif" font-size="14.00">योजयेः(10.1)</text>
</g>
<!-- Node1_1&#45;&gt;Node10_1 -->
<g id="edge1" class="edge">
<title>Node1_1&#45;&gt;Node10_1</title>
<path fill="none" stroke="black" d="M428.34,-316.89C404.1,-331.92 371.94,-351.88 349.97,-365.51"/>
<polygon fill="black" stroke="black" points="430.22,-319.84 436.87,-311.59 426.53,-313.89 430.22,-319.84"/>
<text text-anchor="middle" x="410" y="-334.8" font-family="Times,serif" font-size="14.00">कर्म</text>
</g>
<!-- Node4_1 -->
<g id="node3" class="node">
<title>Node4_1</title>
<ellipse fill="#93db70" stroke="#93db70" cx="449" cy="-208" rx="50.89" ry="18"/>
<text text-anchor="middle" x="449" y="-204.3" font-family="Times,serif" font-size="14.00">शुचीन्(4.1)</text>
</g>
<!-- Node4_1&#45;&gt;Node1_1 -->
<g id="edge6" class="edge">
<title>Node4_1&#45;&gt;Node1_1</title>
<path fill="none" stroke="black" d="M453.17,-236.27C455.21,-249.58 457.59,-265.19 459.37,-276.82"/>
<polygon fill="black" stroke="black" points="456.6,-235.56 451.63,-226.2 449.68,-236.62 456.6,-235.56"/>
<text text-anchor="middle" x="478.5" y="-247.8" font-family="Times,serif" font-size="14.00">विशेषणम्</text>
</g>
<!-- Node3_2 -->
<g id="node4" class="node">
<title>Node3_2</title>
<ellipse fill="#93db70" stroke="#93db70" cx="189" cy="-295" rx="61.19" ry="18"/>
<text text-anchor="middle" x="189" y="-291.3" font-family="Times,serif" font-size="14.00">पैतामहान्(3.2)</text>
</g>
<!-- Node4_1&#45;&gt;Node3_2 -->
<g id="edge7" class="edge">
<title>Node4_1&#45;&gt;Node3_2</title>
<path fill="none" stroke="black" stroke-dasharray="1,5" d="M403.61,-223.84C354.02,-240.05 275.39,-265.76 228.33,-281.14"/>
<polygon fill="black" stroke="black" points="404.7,-227.16 413.12,-220.73 402.53,-220.51 404.7,-227.16"/>
<text text-anchor="middle" x="356.5" y="-247.8" font-family="Times,serif" font-size="14.00">विशेषणम्</text>
</g>
<!-- Node3_2&#45;&gt;Node10_1 -->
<g id="edge5" class="edge">
<title>Node3_2&#45;&gt;Node10_1</title>
<path fill="none" stroke="black" d="M222.74,-317.09C246.76,-332.1 278.5,-351.94 300.21,-365.51"/>
<polygon fill="black" stroke="black" points="224.28,-313.92 213.94,-311.59 220.57,-319.86 224.28,-313.92"/>
<text text-anchor="middle" x="274" y="-334.8" font-family="Times,serif" font-size="14.00">कर्म</text>
</g>
<!-- Node5_1 -->
<g id="node5" class="node">
<title>Node5_1</title>
<ellipse fill="#93db70" stroke="#93db70" cx="196" cy="-208" rx="53.89" ry="18"/>
<text text-anchor="middle" x="196" y="-204.3" font-family="Times,serif" font-size="14.00">दान्तान्(5.1)</text>
</g>
<!-- Node5_1&#45;&gt;Node3_2 -->
<g id="edge8" class="edge">
<title>Node5_1&#45;&gt;Node3_2</title>
<path fill="none" stroke="black" d="M193.75,-236.27C192.66,-249.58 191.37,-265.19 190.41,-276.82"/>
<polygon fill="black" stroke="black" points="197.25,-236.45 194.58,-226.2 190.27,-235.88 197.25,-236.45"/>
<text text-anchor="middle" x="214.5" y="-247.8" font-family="Times,serif" font-size="14.00">विशेषणम्</text>
</g>
<!-- Node8_1 -->
<g id="node6" class="node">
<title>Node8_1</title>
<ellipse fill="#93db70" stroke="#93db70" cx="70" cy="-208" rx="53.89" ry="18"/>
<text text-anchor="middle" x="70" y="-204.3" font-family="Times,serif" font-size="14.00">मुख्यान्(8.1)</text>
</g>
<!-- Node8_1&#45;&gt;Node3_2 -->
<g id="edge11" class="edge">
<title>Node8_1&#45;&gt;Node3_2</title>
<path fill="none" stroke="black" d="M99.97,-230.41C120.63,-245.17 147.67,-264.48 166.5,-277.93"/>
<polygon fill="black" stroke="black" points="102,-227.55 91.83,-224.59 97.93,-233.25 102,-227.55"/>
<text text-anchor="middle" x="159.5" y="-247.8" font-family="Times,serif" font-size="14.00">विशेषणम्</text>
</g>
<!-- Node7_1 -->
<g id="node7" class="node">
<title>Node7_1</title>
<ellipse fill="#c6e2eb" stroke="#c6e2eb" cx="254" cy="-34" rx="47.39" ry="18"/>
<text text-anchor="middle" x="254" y="-30.3" font-family="Times,serif" font-size="14.00">सर्वेषु(7.1)</text>
</g>
<!-- Node6_1 -->
<g id="node8" class="node">
<title>Node6_1</title>
<ellipse fill="#c6e2eb" stroke="#c6e2eb" cx="196" cy="-121" rx="49.29" ry="18"/>
<text text-anchor="middle" x="196" y="-117.3" font-family="Times,serif" font-size="14.00">कर्मसु(6.1)</text>
</g>
<!-- Node7_1&#45;&gt;Node6_1 -->
<g id="edge10" class="edge">
<title>Node7_1&#45;&gt;Node6_1</title>
<path fill="none" stroke="black" d="M236.67,-60.4C227.21,-74.26 215.77,-91.03 207.44,-103.24"/>
<polygon fill="black" stroke="black" points="239.8,-62.03 242.54,-51.79 234.01,-58.08 239.8,-62.03"/>
<text text-anchor="middle" x="250.5" y="-73.8" font-family="Times,serif" font-size="14.00">विशेषणम्</text>
</g>
<!-- Node6_1&#45;&gt;Node5_1 -->
<g id="edge9" class="edge">
<title>Node6_1&#45;&gt;Node5_1</title>
<path fill="none" stroke="black" d="M196,-149.27C196,-162.58 196,-178.19 196,-189.82"/>
<polygon fill="black" stroke="black" points="199.5,-149.2 196,-139.2 192.5,-149.2 199.5,-149.2"/>
<text text-anchor="middle" x="223.5" y="-160.8" font-family="Times,serif" font-size="14.00">अधिकरणम्</text>
</g>
<!-- Node9_1 -->
<g id="node9" class="node">
<title>Node9_1</title>
<ellipse fill="#c6e2eb" stroke="#c6e2eb" cx="137" cy="-34" rx="51.19" ry="18"/>
<text text-anchor="middle" x="137" y="-30.3" font-family="Times,serif" font-size="14.00">मुख्येषु(9.1)</text>
</g>
<!-- Node9_1&#45;&gt;Node6_1 -->
<g id="edge12" class="edge">
<title>Node9_1&#45;&gt;Node6_1</title>
<path fill="none" stroke="black" d="M154.63,-60.4C164.25,-74.26 175.89,-91.03 184.37,-103.24"/>
<polygon fill="black" stroke="black" points="157.23,-58.01 148.66,-51.79 151.48,-62 157.23,-58.01"/>
<text text-anchor="middle" x="192.5" y="-73.8" font-family="Times,serif" font-size="14.00">विशेषणम्</text>
</g>
<!-- Node2_1 -->
<g id="node11" class="node">
<title>Node2_1</title>
<ellipse fill="#ffff00" stroke="#ffff00" cx="576" cy="-121" rx="51.99" ry="18"/>
<text text-anchor="middle" x="576" y="-117.3" font-family="Times,serif" font-size="14.00">उपधा&#45;(2.1)</text>
</g>
<!-- Node2_1&#45;&gt;Node2_2 -->
<g id="edge2" class="edge">
<title>Node2_1&#45;&gt;Node2_2</title>
<path fill="none" stroke="black" d="M576,-149.27C576,-162.58 576,-178.19 576,-189.82"/>
<polygon fill="black" stroke="black" points="579.5,-149.2 576,-139.2 572.5,-149.2 579.5,-149.2"/>
<text text-anchor="middle" x="585.5" y="-160.8" font-family="Times,serif" font-size="14.00">T2</text>
</g>
<!-- Node3_1 -->
<g id="node12" class="node">
<title>Node3_1</title>
<ellipse fill="#ffff00" stroke="#ffff00" cx="315" cy="-208" rx="47.39" ry="18"/>
<text text-anchor="middle" x="315" y="-204.3" font-family="Times,serif" font-size="14.00">पितृ&#45;(3.1)</text>
</g>
<!-- Node3_1&#45;&gt;Node3_2 -->
<g id="edge4" class="edge">
<title>Node3_1&#45;&gt;Node3_2</title>
<path fill="none" stroke="black" d="M284.31,-229.75C271,-238.75 255.24,-249.4 241,-259 231.62,-265.33 221.28,-272.29 212.3,-278.33"/>
<polygon fill="black" stroke="black" points="286.34,-232.61 292.66,-224.11 282.42,-226.81 286.34,-232.61"/>
<text text-anchor="middle" x="269" y="-247.8" font-family="Times,serif" font-size="14.00">Di</text>
</g>
<!-- Node11_1 -->
<g id="node13" class="node">
<title>Node11_1</title>
<ellipse fill="#00bfff" stroke="#00bfff" cx="325" cy="-295" rx="57.39" ry="18"/>
<text text-anchor="middle" x="325" y="-291.3" font-family="Times,serif" font-size="14.00">(त्वम्)(11.1)</text>
</g>
<!-- Node11_1&#45;&gt;Node10_1 -->
<g id="edge13" class="edge">
<title>Node11_1&#45;&gt;Node10_1</title>
<path fill="none" stroke="black" d="M325,-323.27C325,-336.58 325,-352.19 325,-363.82"/>
<polygon fill="black" stroke="black" points="328.5,-323.2 325,-313.2 321.5,-323.2 328.5,-323.2"/>
<text text-anchor="middle" x="336" y="-334.8" font-family="Times,serif" font-size="14.00">कर्ता</text>
</g>
</g>
</svg>
