<?xml version="1.0" encoding="UTF-8" standalone="no"?>
<!DOCTYPE svg PUBLIC "-//W3C//DTD SVG 1.1//EN"
 "http://www.w3.org/Graphics/SVG/1.1/DTD/svg11.dtd">
<!-- Generated by graphviz version 2.43.0 (0)
 -->
<!-- Title: G Pages: 1 -->
<svg width="869pt" height="392pt"
 viewBox="0.00 0.00 869.00 392.00" xmlns="http://www.w3.org/2000/svg" xmlns:xlink="http://www.w3.org/1999/xlink">
<g id="graph0" class="graph" transform="scale(1 1) rotate(0) translate(4 388)">
<title>G</title>
<polygon fill="#fffacd" stroke="transparent" points="-4,4 -4,-388 865,-388 865,4 -4,4"/>
<g id="clust1" class="cluster">
<title>cluster_1</title>
<polygon fill="#fffacd" stroke="black" points="8,-166 8,-305 221,-305 221,-166 8,-166"/>
</g>
<!-- Node1_1 -->
<g id="node1" class="node">
<title>Node1_1</title>
<ellipse fill="#93db70" stroke="#93db70" cx="171" cy="-192" rx="42.49" ry="18"/>
<text text-anchor="middle" x="171" y="-188.3" font-family="Times,serif" font-size="14.00">तत्(1.1)</text>
</g>
<!-- Node8_1 -->
<g id="node2" class="node">
<title>Node8_1</title>
<ellipse fill="#93db70" stroke="#93db70" cx="161" cy="-279" rx="51.99" ry="18"/>
<text text-anchor="middle" x="161" y="-275.3" font-family="Times,serif" font-size="14.00">राज्यम्(8.1)</text>
</g>
<!-- Node1_1&#45;&gt;Node8_1 -->
<g id="edge1" class="edge">
<title>Node1_1&#45;&gt;Node8_1</title>
<path fill="none" stroke="black" d="M167.79,-220.27C166.23,-233.58 164.39,-249.19 163.02,-260.82"/>
<polygon fill="black" stroke="black" points="171.28,-220.54 168.98,-210.2 164.33,-219.72 171.28,-220.54"/>
<text text-anchor="middle" x="189.5" y="-231.8" font-family="Times,serif" font-size="14.00">विशेषणम्</text>
</g>
<!-- Node11_1 -->
<g id="node9" class="node">
<title>Node11_1</title>
<ellipse fill="#ff1975" stroke="#ff1975" cx="424" cy="-366" rx="62.29" ry="18"/>
<text text-anchor="middle" x="424" y="-362.3" font-family="Times,serif" font-size="14.00">(अस्ति)(11.1)</text>
</g>
<!-- Node8_1&#45;&gt;Node11_1 -->
<g id="edge9" class="edge">
<title>Node8_1&#45;&gt;Node11_1</title>
<path fill="none" stroke="black" d="M207.18,-294.92C257.23,-311.1 336.31,-336.66 383.87,-352.03"/>
<polygon fill="black" stroke="black" points="208.16,-291.56 197.57,-291.82 206.01,-298.22 208.16,-291.56"/>
<text text-anchor="middle" x="319" y="-318.8" font-family="Times,serif" font-size="14.00">कर्ता</text>
</g>
<!-- Node9_1 -->
<g id="node3" class="node">
<title>Node9_1</title>
<ellipse fill="#93db70" stroke="#93db70" cx="63" cy="-192" rx="47.39" ry="18"/>
<text text-anchor="middle" x="63" y="-188.3" font-family="Times,serif" font-size="14.00">धर्मम्(9.1)</text>
</g>
<!-- Node9_1&#45;&gt;Node8_1 -->
<g id="edge10" class="edge">
<title>Node9_1&#45;&gt;Node8_1</title>
<path fill="none" stroke="black" d="M87.08,-216.01C96.3,-224.64 107,-234.42 117,-243 124.55,-249.49 133.07,-256.36 140.59,-262.28"/>
<polygon fill="black" stroke="black" points="89.41,-213.4 79.73,-209.1 84.61,-218.5 89.41,-213.4"/>
<text text-anchor="middle" x="139.5" y="-231.8" font-family="Times,serif" font-size="14.00">समुच्चितः</text>
</g>
<!-- Node2_1 -->
<g id="node4" class="node">
<title>Node2_1</title>
<ellipse fill="#ff99ff" stroke="#ff99ff" cx="171" cy="-105" rx="37.09" ry="18"/>
<text text-anchor="middle" x="171" y="-101.3" font-family="Times,serif" font-size="14.00">तु(2.1)</text>
</g>
<!-- Node2_1&#45;&gt;Node1_1 -->
<g id="edge2" class="edge">
<title>Node2_1&#45;&gt;Node1_1</title>
<path fill="none" stroke="black" d="M171,-133.27C171,-146.58 171,-162.19 171,-173.82"/>
<polygon fill="black" stroke="black" points="174.5,-133.2 171,-123.2 167.5,-133.2 174.5,-133.2"/>
<text text-anchor="middle" x="189.5" y="-144.8" font-family="Times,serif" font-size="14.00">सम्बन्धः</text>
</g>
<!-- Node3_1 -->
<g id="node5" class="node">
<title>Node3_1</title>
<ellipse fill="#93db70" stroke="#93db70" cx="284" cy="-192" rx="52.79" ry="18"/>
<text text-anchor="middle" x="284" y="-188.3" font-family="Times,serif" font-size="14.00">शक्यम्(3.1)</text>
</g>
<!-- Node3_1&#45;&gt;Node8_1 -->
<g id="edge3" class="edge">
<title>Node3_1&#45;&gt;Node8_1</title>
<path fill="none" stroke="black" d="M255.13,-214.89C243.16,-223.8 229.04,-234.07 216,-243 206.1,-249.78 194.97,-256.94 185.32,-263.01"/>
<polygon fill="black" stroke="black" points="257.52,-217.48 263.43,-208.69 253.32,-211.87 257.52,-217.48"/>
<text text-anchor="middle" x="275" y="-231.8" font-family="Times,serif" font-size="14.00">विधेय_विशेषणम्</text>
</g>
<!-- Node4_1 -->
<g id="node6" class="node">
<title>Node4_1</title>
<ellipse fill="#ff99ff" stroke="#ff99ff" cx="284" cy="-18" rx="44.69" ry="18"/>
<text text-anchor="middle" x="284" y="-14.3" font-family="Times,serif" font-size="14.00">यथा(4.1)</text>
</g>
<!-- Node6_1 -->
<g id="node7" class="node">
<title>Node6_1</title>
<ellipse fill="#ff99ff" stroke="#ff99ff" cx="284" cy="-105" rx="53.89" ry="18"/>
<text text-anchor="middle" x="284" y="-101.3" font-family="Times,serif" font-size="14.00">रक्षितुम्(6.1)</text>
</g>
<!-- Node4_1&#45;&gt;Node6_1 -->
<g id="edge4" class="edge">
<title>Node4_1&#45;&gt;Node6_1</title>
<path fill="none" stroke="black" d="M284,-46.27C284,-59.58 284,-75.19 284,-86.82"/>
<polygon fill="black" stroke="black" points="287.5,-46.2 284,-36.2 280.5,-46.2 287.5,-46.2"/>
<text text-anchor="middle" x="319" y="-57.8" font-family="Times,serif" font-size="14.00">क्रियाविशेषणम्</text>
</g>
<!-- Node6_1&#45;&gt;Node3_1 -->
<g id="edge6" class="edge">
<title>Node6_1&#45;&gt;Node3_1</title>
<path fill="none" stroke="black" d="M284,-133.27C284,-146.58 284,-162.19 284,-173.82"/>
<polygon fill="black" stroke="black" points="287.5,-133.2 284,-123.2 280.5,-133.2 287.5,-133.2"/>
<text text-anchor="middle" x="315" y="-144.8" font-family="Times,serif" font-size="14.00">सहायकक्रिया</text>
</g>
<!-- Node5_1 -->
<g id="node8" class="node">
<title>Node5_1</title>
<ellipse fill="#6fffc3" stroke="#6fffc3" cx="347" cy="-279" rx="44.39" ry="18"/>
<text text-anchor="middle" x="347" y="-275.3" font-family="Times,serif" font-size="14.00">तात(5.1)</text>
</g>
<!-- Node5_1&#45;&gt;Node11_1 -->
<g id="edge5" class="edge">
<title>Node5_1&#45;&gt;Node11_1</title>
<path fill="none" stroke="black" d="M368.36,-303.81C375.83,-312.11 384.27,-321.48 392,-330 397.42,-335.98 403.38,-342.51 408.67,-348.29"/>
<polygon fill="black" stroke="black" points="370.85,-301.34 361.56,-296.24 365.64,-306.02 370.85,-301.34"/>
<text text-anchor="middle" x="413" y="-318.8" font-family="Times,serif" font-size="14.00">सम्बोध्यः</text>
</g>
<!-- Node7_1 -->
<g id="node10" class="node">
<title>Node7_1</title>
<ellipse fill="#ffff00" stroke="#ffff00" cx="511" cy="-192" rx="51.19" ry="18"/>
<text text-anchor="middle" x="511" y="-188.3" font-family="Times,serif" font-size="14.00">पाण्डु&#45;(7.1)</text>
</g>
<!-- Node7_2 -->
<g id="node11" class="node">
<title>Node7_2</title>
<ellipse fill="#6fffc3" stroke="#6fffc3" cx="458" cy="-279" rx="48.99" ry="18"/>
<text text-anchor="middle" x="458" y="-275.3" font-family="Times,serif" font-size="14.00">नन्दन(7.2)</text>
</g>
<!-- Node7_1&#45;&gt;Node7_2 -->
<g id="edge7" class="edge">
<title>Node7_1&#45;&gt;Node7_2</title>
<path fill="none" stroke="black" d="M495.16,-218.4C486.52,-232.26 476.07,-249.03 468.45,-261.24"/>
<polygon fill="black" stroke="black" points="498.21,-220.13 500.53,-209.79 492.27,-216.43 498.21,-220.13"/>
<text text-anchor="middle" x="496.5" y="-231.8" font-family="Times,serif" font-size="14.00">T6</text>
</g>
<!-- Node7_2&#45;&gt;Node11_1 -->
<g id="edge8" class="edge">
<title>Node7_2&#45;&gt;Node11_1</title>
<path fill="none" stroke="black" d="M447.25,-306.87C441.89,-320.27 435.57,-336.08 430.87,-347.82"/>
<polygon fill="black" stroke="black" points="450.66,-307.79 451.12,-297.2 444.16,-305.19 450.66,-307.79"/>
<text text-anchor="middle" x="464" y="-318.8" font-family="Times,serif" font-size="14.00">सम्बोध्यः</text>
</g>
<!-- Node10_1 -->
<g id="node12" class="node">
<title>Node10_1</title>
<ellipse fill="#ff99ff" stroke="#ff99ff" cx="398" cy="-192" rx="43.59" ry="18"/>
<text text-anchor="middle" x="398" y="-188.3" font-family="Times,serif" font-size="14.00">च(10.1)</text>
</g>
<!-- Node10_1&#45;&gt;Node8_1 -->
<g id="edge11" class="edge">
<title>Node10_1&#45;&gt;Node8_1</title>
<path fill="none" stroke="black" d="M369.79,-213.94C355.02,-224.02 336.24,-235.52 318,-243 282.73,-257.46 240.43,-266.45 208.64,-271.69"/>
<polygon fill="black" stroke="black" points="371.8,-216.8 377.99,-208.2 367.79,-211.06 371.8,-216.8"/>
<text text-anchor="middle" x="383" y="-231.8" font-family="Times,serif" font-size="14.00">समुच्चय_द्योतकः</text>
</g>
<!-- Node12_1 -->
<g id="node13" class="node">
<title>Node12_1</title>
<ellipse fill="#6fffc3" stroke="#6fffc3" cx="649" cy="-192" rx="59.29" ry="18"/>
<text text-anchor="middle" x="649" y="-188.3" font-family="Times,serif" font-size="14.00">कौन्तेय(12.1)</text>
</g>
<!-- Node14_1 -->
<g id="node14" class="node">
<title>Node14_1</title>
<ellipse fill="#ff1975" stroke="#ff1975" cx="692" cy="-279" rx="52.79" ry="18"/>
<text text-anchor="middle" x="692" y="-275.3" font-family="Times,serif" font-size="14.00">असि(14.1)</text>
</g>
<!-- Node12_1&#45;&gt;Node14_1 -->
<g id="edge12" class="edge">
<title>Node12_1&#45;&gt;Node14_1</title>
<path fill="none" stroke="black" d="M659.11,-219.32C662.34,-227.07 666.09,-235.48 670,-243 673.18,-249.11 677.07,-255.56 680.69,-261.24"/>
<polygon fill="black" stroke="black" points="662.32,-217.94 655.33,-209.98 655.83,-220.56 662.32,-217.94"/>
<text text-anchor="middle" x="691" y="-231.8" font-family="Times,serif" font-size="14.00">सम्बोध्यः</text>
</g>
<!-- Node15_1 -->
<g id="node17" class="node">
<title>Node15_1</title>
<ellipse fill="#ff1975" stroke="#ff1975" cx="606" cy="-366" rx="57.69" ry="18"/>
<text text-anchor="middle" x="606" y="-362.3" font-family="Times,serif" font-size="14.00">निबोध(15.1)</text>
</g>
<!-- Node14_1&#45;&gt;Node15_1 -->
<g id="edge14" class="edge">
<title>Node14_1&#45;&gt;Node15_1</title>
<path fill="none" stroke="black" stroke-dasharray="1,5" d="M668.21,-303.52C653.69,-317.87 635.49,-335.86 622.53,-348.66"/>
<polygon fill="black" stroke="black" points="670.77,-305.91 675.42,-296.39 665.85,-300.93 670.77,-305.91"/>
<text text-anchor="middle" x="672.5" y="-318.8" font-family="Times,serif" font-size="14.00">सम्बन्धः</text>
</g>
<!-- Node13_1 -->
<g id="node15" class="node">
<title>Node13_1</title>
<ellipse fill="#00bfff" stroke="#00bfff" cx="783" cy="-105" rx="56.59" ry="18"/>
<text text-anchor="middle" x="783" y="-101.3" font-family="Times,serif" font-size="14.00">विद्वान्(13.1)</text>
</g>
<!-- Node17_1 -->
<g id="node16" class="node">
<title>Node17_1</title>
<ellipse fill="#00bfff" stroke="#00bfff" cx="783" cy="-192" rx="57.39" ry="18"/>
<text text-anchor="middle" x="783" y="-188.3" font-family="Times,serif" font-size="14.00">(त्वम्)(17.1)</text>
</g>
<!-- Node13_1&#45;&gt;Node17_1 -->
<g id="edge13" class="edge">
<title>Node13_1&#45;&gt;Node17_1</title>
<path fill="none" stroke="black" d="M783,-133.27C783,-146.58 783,-162.19 783,-173.82"/>
<polygon fill="black" stroke="black" points="786.5,-133.2 783,-123.2 779.5,-133.2 786.5,-133.2"/>
<text text-anchor="middle" x="822" y="-144.8" font-family="Times,serif" font-size="14.00">विधेय_विशेषणम्</text>
</g>
<!-- Node17_1&#45;&gt;Node14_1 -->
<g id="edge17" class="edge">
<title>Node17_1&#45;&gt;Node14_1</title>
<path fill="none" stroke="black" d="M757.77,-216.56C742.3,-231.02 722.89,-249.14 709.18,-261.95"/>
<polygon fill="black" stroke="black" points="760.54,-218.77 765.45,-209.39 755.76,-213.66 760.54,-218.77"/>
<text text-anchor="middle" x="753" y="-231.8" font-family="Times,serif" font-size="14.00">कर्ता</text>
</g>
<!-- Node16_1 -->
<g id="node18" class="node">
<title>Node16_1</title>
<ellipse fill="#93db70" stroke="#93db70" cx="573" cy="-279" rx="48.19" ry="18"/>
<text text-anchor="middle" x="573" y="-275.3" font-family="Times,serif" font-size="14.00">तत्(16.1)</text>
</g>
<!-- Node16_1&#45;&gt;Node11_1 -->
<g id="edge16" class="edge">
<title>Node16_1&#45;&gt;Node11_1</title>
<path fill="none" stroke="black" stroke-dasharray="1,5" d="M540.22,-299.95C524.77,-309.24 506.03,-320.35 489,-330 477.18,-336.7 464,-343.85 452.62,-349.93"/>
<polygon fill="black" stroke="black" points="542.15,-302.88 548.9,-294.72 538.53,-296.89 542.15,-302.88"/>
<text text-anchor="middle" x="532.5" y="-318.8" font-family="Times,serif" font-size="14.00">सम्बन्धः</text>
</g>
<!-- Node16_1&#45;&gt;Node15_1 -->
<g id="edge15" class="edge">
<title>Node16_1&#45;&gt;Node15_1</title>
<path fill="none" stroke="black" d="M583.3,-306.54C588.58,-320.12 594.84,-336.24 599.44,-348.11"/>
<polygon fill="black" stroke="black" points="586.56,-305.26 579.68,-297.2 580.03,-307.79 586.56,-305.26"/>
<text text-anchor="middle" x="612.5" y="-318.8" font-family="Times,serif" font-size="14.00">वाक्यकर्म</text>
</g>
</g>
</svg>
