<?xml version="1.0" encoding="UTF-8" standalone="no"?>
<!DOCTYPE svg PUBLIC "-//W3C//DTD SVG 1.1//EN"
 "http://www.w3.org/Graphics/SVG/1.1/DTD/svg11.dtd">
<!-- Generated by graphviz version 2.43.0 (0)
 -->
<!-- Title: G Pages: 1 -->
<svg width="653pt" height="392pt"
 viewBox="0.00 0.00 653.00 392.00" xmlns="http://www.w3.org/2000/svg" xmlns:xlink="http://www.w3.org/1999/xlink">
<g id="graph0" class="graph" transform="scale(1 1) rotate(0) translate(4 388)">
<title>G</title>
<polygon fill="#fffacd" stroke="transparent" points="-4,4 -4,-388 649,-388 649,4 -4,4"/>
<g id="clust1" class="cluster">
<title>cluster_1</title>
<polygon fill="#fffacd" stroke="black" points="427,-166 427,-305 637,-305 637,-166 427,-166"/>
</g>
<!-- Node1_1 -->
<g id="node1" class="node">
<title>Node1_1</title>
<ellipse fill="#00bfff" stroke="#00bfff" cx="589" cy="-192" rx="40.09" ry="18"/>
<text text-anchor="middle" x="589" y="-188.3" font-family="Times,serif" font-size="14.00">सः(1.1)</text>
</g>
<!-- Node4_1 -->
<g id="node2" class="node">
<title>Node4_1</title>
<ellipse fill="#00bfff" stroke="#00bfff" cx="483" cy="-279" rx="46.29" ry="18"/>
<text text-anchor="middle" x="483" y="-275.3" font-family="Times,serif" font-size="14.00">राजा(4.1)</text>
</g>
<!-- Node1_1&#45;&gt;Node4_1 -->
<g id="edge1" class="edge">
<title>Node1_1&#45;&gt;Node4_1</title>
<path fill="none" stroke="black" d="M564.63,-215.33C554.7,-224.17 542.98,-234.29 532,-243 523.31,-249.88 513.42,-257.07 504.8,-263.12"/>
<polygon fill="black" stroke="black" points="567.07,-217.84 572.17,-208.55 562.39,-212.63 567.07,-217.84"/>
<text text-anchor="middle" x="571.5" y="-231.8" font-family="Times,serif" font-size="14.00">विशेषणम्</text>
</g>
<!-- Node9_1 -->
<g id="node7" class="node">
<title>Node9_1</title>
<ellipse fill="#ff1975" stroke="#ff1975" cx="307" cy="-366" rx="55.79" ry="18"/>
<text text-anchor="middle" x="307" y="-362.3" font-family="Times,serif" font-size="14.00">अकरोत्(9.1)</text>
</g>
<!-- Node4_1&#45;&gt;Node9_1 -->
<g id="edge4" class="edge">
<title>Node4_1&#45;&gt;Node9_1</title>
<path fill="none" stroke="black" d="M457.61,-302.46C445.88,-311.97 431.37,-322.55 417,-330 396.27,-340.74 371.62,-348.96 350.92,-354.72"/>
<polygon fill="black" stroke="black" points="460.18,-304.88 465.63,-295.79 455.7,-299.5 460.18,-304.88"/>
<text text-anchor="middle" x="451" y="-318.8" font-family="Times,serif" font-size="14.00">कर्ता</text>
</g>
<!-- Node5_4 -->
<g id="node3" class="node">
<title>Node5_4</title>
<ellipse fill="#00bfff" stroke="#00bfff" cx="483" cy="-192" rx="48.19" ry="18"/>
<text text-anchor="middle" x="483" y="-188.3" font-family="Times,serif" font-size="14.00">क्रियः(5.4)</text>
</g>
<!-- Node5_4&#45;&gt;Node4_1 -->
<g id="edge8" class="edge">
<title>Node5_4&#45;&gt;Node4_1</title>
<path fill="none" stroke="black" d="M483,-220.27C483,-233.58 483,-249.19 483,-260.82"/>
<polygon fill="black" stroke="black" points="486.5,-220.2 483,-210.2 479.5,-220.2 486.5,-220.2"/>
<text text-anchor="middle" x="505.5" y="-231.8" font-family="Times,serif" font-size="14.00">विशेषणम्</text>
</g>
<!-- Node2_1 -->
<g id="node4" class="node">
<title>Node2_1</title>
<ellipse fill="#ff1975" stroke="#ff1975" cx="52" cy="-192" rx="51.99" ry="18"/>
<text text-anchor="middle" x="52" y="-188.3" font-family="Times,serif" font-size="14.00">प्रविश्य(2.1)</text>
</g>
<!-- Node6_1 -->
<g id="node5" class="node">
<title>Node6_1</title>
<ellipse fill="#ff99ff" stroke="#ff99ff" cx="112" cy="-279" rx="59.29" ry="18"/>
<text text-anchor="middle" x="112" y="-275.3" font-family="Times,serif" font-size="14.00">तर्पयित्वा(6.1)</text>
</g>
<!-- Node2_1&#45;&gt;Node6_1 -->
<g id="edge2" class="edge">
<title>Node2_1&#45;&gt;Node6_1</title>
<path fill="none" stroke="black" d="M69.65,-218.01C79.48,-231.94 91.46,-248.91 100.17,-261.24"/>
<polygon fill="black" stroke="black" points="72.48,-215.94 63.85,-209.79 66.76,-219.98 72.48,-215.94"/>
<text text-anchor="middle" x="106.5" y="-231.8" font-family="Times,serif" font-size="14.00">पूर्वकालः</text>
</g>
<!-- Node6_1&#45;&gt;Node9_1 -->
<g id="edge9" class="edge">
<title>Node6_1&#45;&gt;Node9_1</title>
<path fill="none" stroke="black" d="M153.99,-298.31C190.37,-314.16 242.2,-336.76 275.22,-351.15"/>
<polygon fill="black" stroke="black" points="155.2,-295.01 144.63,-294.23 152.4,-301.43 155.2,-295.01"/>
<text text-anchor="middle" x="242.5" y="-318.8" font-family="Times,serif" font-size="14.00">पूर्वकालः</text>
</g>
<!-- Node3_1 -->
<g id="node6" class="node">
<title>Node3_1</title>
<ellipse fill="#93db70" stroke="#93db70" cx="52" cy="-105" rx="41.69" ry="18"/>
<text text-anchor="middle" x="52" y="-101.3" font-family="Times,serif" font-size="14.00">गृहं(3.1)</text>
</g>
<!-- Node3_1&#45;&gt;Node2_1 -->
<g id="edge3" class="edge">
<title>Node3_1&#45;&gt;Node2_1</title>
<path fill="none" stroke="black" d="M52,-133.27C52,-146.58 52,-162.19 52,-173.82"/>
<polygon fill="black" stroke="black" points="55.5,-133.2 52,-123.2 48.5,-133.2 55.5,-133.2"/>
<text text-anchor="middle" x="61" y="-144.8" font-family="Times,serif" font-size="14.00">कर्म</text>
</g>
<!-- Node5_1 -->
<g id="node8" class="node">
<title>Node5_1</title>
<ellipse fill="#ffff00" stroke="#ffff00" cx="440" cy="-105" rx="46.29" ry="18"/>
<text text-anchor="middle" x="440" y="-101.3" font-family="Times,serif" font-size="14.00">कृत&#45;(5.1)</text>
</g>
<!-- Node5_1&#45;&gt;Node5_4 -->
<g id="edge5" class="edge">
<title>Node5_1&#45;&gt;Node5_4</title>
<path fill="none" stroke="black" d="M453.05,-131.8C460.02,-145.58 468.4,-162.14 474.52,-174.24"/>
<polygon fill="black" stroke="black" points="456.13,-130.14 448.49,-122.79 449.88,-133.3 456.13,-130.14"/>
<text text-anchor="middle" x="478" y="-144.8" font-family="Times,serif" font-size="14.00">Bs3</text>
</g>
<!-- Node5_2 -->
<g id="node9" class="node">
<title>Node5_2</title>
<ellipse fill="#ffff00" stroke="#ffff00" cx="561" cy="-18" rx="44.39" ry="18"/>
<text text-anchor="middle" x="561" y="-14.3" font-family="Times,serif" font-size="14.00">पूर्व&#45;(5.2)</text>
</g>
<!-- Node5_3 -->
<g id="node10" class="node">
<title>Node5_3</title>
<ellipse fill="#ffff00" stroke="#ffff00" cx="561" cy="-105" rx="57.39" ry="18"/>
<text text-anchor="middle" x="561" y="-101.3" font-family="Times,serif" font-size="14.00">आह्णिक&#45;(5.3)</text>
</g>
<!-- Node5_2&#45;&gt;Node5_3 -->
<g id="edge6" class="edge">
<title>Node5_2&#45;&gt;Node5_3</title>
<path fill="none" stroke="black" d="M561,-46.27C561,-59.58 561,-75.19 561,-86.82"/>
<polygon fill="black" stroke="black" points="564.5,-46.2 561,-36.2 557.5,-46.2 564.5,-46.2"/>
<text text-anchor="middle" x="571" y="-57.8" font-family="Times,serif" font-size="14.00">K1</text>
</g>
<!-- Node5_3&#45;&gt;Node5_4 -->
<g id="edge7" class="edge">
<title>Node5_3&#45;&gt;Node5_4</title>
<path fill="none" stroke="black" d="M539.05,-129.91C525.94,-144.2 509.63,-161.98 497.99,-174.66"/>
<polygon fill="black" stroke="black" points="541.77,-132.12 545.96,-122.39 536.62,-127.39 541.77,-132.12"/>
<text text-anchor="middle" x="535.5" y="-144.8" font-family="Times,serif" font-size="14.00">T6</text>
</g>
<!-- Node7_1 -->
<g id="node11" class="node">
<title>Node7_1</title>
<ellipse fill="#ffff00" stroke="#ffff00" cx="172" cy="-105" rx="48.19" ry="18"/>
<text text-anchor="middle" x="172" y="-101.3" font-family="Times,serif" font-size="14.00">द्विज&#45;(7.1)</text>
</g>
<!-- Node7_2 -->
<g id="node12" class="node">
<title>Node7_2</title>
<ellipse fill="#93db70" stroke="#93db70" cx="172" cy="-192" rx="50.09" ry="18"/>
<text text-anchor="middle" x="172" y="-188.3" font-family="Times,serif" font-size="14.00">श्रेष्ठान्(7.2)</text>
</g>
<!-- Node7_1&#45;&gt;Node7_2 -->
<g id="edge10" class="edge">
<title>Node7_1&#45;&gt;Node7_2</title>
<path fill="none" stroke="black" d="M172,-133.27C172,-146.58 172,-162.19 172,-173.82"/>
<polygon fill="black" stroke="black" points="175.5,-133.2 172,-123.2 168.5,-133.2 175.5,-133.2"/>
<text text-anchor="middle" x="181.5" y="-144.8" font-family="Times,serif" font-size="14.00">T7</text>
</g>
<!-- Node7_2&#45;&gt;Node6_1 -->
<g id="edge11" class="edge">
<title>Node7_2&#45;&gt;Node6_1</title>
<path fill="none" stroke="black" d="M154.34,-218.01C144.51,-231.94 132.53,-248.91 123.82,-261.24"/>
<polygon fill="black" stroke="black" points="157.23,-219.98 160.14,-209.79 151.52,-215.94 157.23,-219.98"/>
<text text-anchor="middle" x="155" y="-231.8" font-family="Times,serif" font-size="14.00">कर्म</text>
</g>
<!-- Node8_1 -->
<g id="node13" class="node">
<title>Node8_1</title>
<ellipse fill="#93db70" stroke="#93db70" cx="245" cy="-279" rx="55.79" ry="18"/>
<text text-anchor="middle" x="245" y="-275.3" font-family="Times,serif" font-size="14.00">आहारम्(8.1)</text>
</g>
<!-- Node8_1&#45;&gt;Node9_1 -->
<g id="edge12" class="edge">
<title>Node8_1&#45;&gt;Node9_1</title>
<path fill="none" stroke="black" d="M263.24,-305.01C273.4,-318.94 285.78,-335.91 294.77,-348.24"/>
<polygon fill="black" stroke="black" points="265.97,-302.81 257.24,-296.79 260.31,-306.93 265.97,-302.81"/>
<text text-anchor="middle" x="289" y="-318.8" font-family="Times,serif" font-size="14.00">कर्म</text>
</g>
<!-- Node10_1 -->
<g id="node14" class="node">
<title>Node10_1</title>
<ellipse fill="#ff99ff" stroke="#ff99ff" cx="369" cy="-279" rx="50.09" ry="18"/>
<text text-anchor="middle" x="369" y="-275.3" font-family="Times,serif" font-size="14.00">तदा(10.1)</text>
</g>
<!-- Node10_1&#45;&gt;Node9_1 -->
<g id="edge13" class="edge">
<title>Node10_1&#45;&gt;Node9_1</title>
<path fill="none" stroke="black" d="M350.76,-305.01C340.59,-318.94 328.21,-335.91 319.22,-348.24"/>
<polygon fill="black" stroke="black" points="353.68,-306.93 356.75,-296.79 348.03,-302.81 353.68,-306.93"/>
<text text-anchor="middle" x="377.5" y="-318.8" font-family="Times,serif" font-size="14.00">कालाधिकरणम्</text>
</g>
</g>
</svg>
