<?xml version="1.0" encoding="UTF-8" standalone="no"?>
<!DOCTYPE svg PUBLIC "-//W3C//DTD SVG 1.1//EN"
 "http://www.w3.org/Graphics/SVG/1.1/DTD/svg11.dtd">
<!-- Generated by graphviz version 2.43.0 (0)
 -->
<!-- Title: G Pages: 1 -->
<svg width="1977pt" height="408pt"
 viewBox="0.00 0.00 1976.90 408.00" xmlns="http://www.w3.org/2000/svg" xmlns:xlink="http://www.w3.org/1999/xlink">
<g id="graph0" class="graph" transform="scale(1 1) rotate(0) translate(4 404)">
<title>G</title>
<polygon fill="#fffacd" stroke="transparent" points="-4,4 -4,-404 1972.9,-404 1972.9,4 -4,4"/>
<g id="clust1" class="cluster">
<title>cluster_1</title>
<polygon fill="#fffacd" stroke="black" points="8,-8 8,-147 226,-147 226,-8 8,-8"/>
</g>
<g id="clust2" class="cluster">
<title>cluster_2</title>
<polygon fill="#fffacd" stroke="black" points="235,-182 235,-321 439,-321 439,-182 235,-182"/>
</g>
<g id="clust3" class="cluster">
<title>cluster_3</title>
<polygon fill="#fffacd" stroke="black" points="832,-95 832,-234 958,-234 958,-95 832,-95"/>
</g>
<!-- Node2_1 -->
<g id="node1" class="node">
<title>Node2_1</title>
<ellipse fill="#00bfff" stroke="#00bfff" cx="163" cy="-34" rx="54.69" ry="18"/>
<text text-anchor="middle" x="163" y="-30.3" font-family="Times,serif" font-size="14.00">पक्षिणः(2.1)</text>
</g>
<!-- Node1_1 -->
<g id="node2" class="node">
<title>Node1_1</title>
<ellipse fill="#00bfff" stroke="#00bfff" cx="165" cy="-121" rx="51.99" ry="18"/>
<text text-anchor="middle" x="165" y="-117.3" font-family="Times,serif" font-size="14.00">वानराः(1.1)</text>
</g>
<!-- Node2_1&#45;&gt;Node1_1 -->
<g id="edge2" class="edge">
<title>Node2_1&#45;&gt;Node1_1</title>
<path fill="none" stroke="black" d="M163.64,-62.27C163.95,-75.58 164.32,-91.19 164.6,-102.82"/>
<polygon fill="black" stroke="black" points="167.14,-62.12 163.4,-52.2 160.14,-62.28 167.14,-62.12"/>
<text text-anchor="middle" x="187.5" y="-73.8" font-family="Times,serif" font-size="14.00">समुच्चितः</text>
</g>
<!-- Node29_1 -->
<g id="node9" class="node">
<title>Node29_1</title>
<ellipse fill="#ff1975" stroke="#ff1975" cx="165" cy="-208" rx="60.39" ry="18"/>
<text text-anchor="middle" x="165" y="-204.3" font-family="Times,serif" font-size="14.00">(सन्ति)(29.1)</text>
</g>
<!-- Node1_1&#45;&gt;Node29_1 -->
<g id="edge1" class="edge">
<title>Node1_1&#45;&gt;Node29_1</title>
<path fill="none" stroke="black" d="M165,-149.27C165,-162.58 165,-178.19 165,-189.82"/>
<polygon fill="black" stroke="black" points="168.5,-149.2 165,-139.2 161.5,-149.2 168.5,-149.2"/>
<text text-anchor="middle" x="176" y="-160.8" font-family="Times,serif" font-size="14.00">कर्ता</text>
</g>
<!-- Node5_1 -->
<g id="node3" class="node">
<title>Node5_1</title>
<ellipse fill="#00bfff" stroke="#00bfff" cx="53" cy="-34" rx="37.09" ry="18"/>
<text text-anchor="middle" x="53" y="-30.3" font-family="Times,serif" font-size="14.00">ये(5.1)</text>
</g>
<!-- Node5_1&#45;&gt;Node1_1 -->
<g id="edge5" class="edge">
<title>Node5_1&#45;&gt;Node1_1</title>
<path fill="none" stroke="black" d="M78.88,-56.52C89.88,-65.5 102.93,-75.93 115,-85 123.81,-91.62 133.71,-98.64 142.37,-104.64"/>
<polygon fill="black" stroke="black" points="80.87,-53.63 70.92,-49.99 76.43,-59.04 80.87,-53.63"/>
<text text-anchor="middle" x="137.5" y="-73.8" font-family="Times,serif" font-size="14.00">विशेषणम्</text>
</g>
<!-- Node7_1 -->
<g id="node4" class="node">
<title>Node7_1</title>
<ellipse fill="#00bfff" stroke="#00bfff" cx="389" cy="-208" rx="42.49" ry="18"/>
<text text-anchor="middle" x="389" y="-204.3" font-family="Times,serif" font-size="14.00">सर्वे(7.1)</text>
</g>
<!-- Node13_2 -->
<g id="node5" class="node">
<title>Node13_2</title>
<ellipse fill="#00bfff" stroke="#00bfff" cx="367" cy="-295" rx="64.19" ry="18"/>
<text text-anchor="middle" x="367" y="-291.3" font-family="Times,serif" font-size="14.00">पङ्गुकाः(13.2)</text>
</g>
<!-- Node7_1&#45;&gt;Node13_2 -->
<g id="edge8" class="edge">
<title>Node7_1&#45;&gt;Node13_2</title>
<path fill="none" stroke="black" d="M381.94,-236.27C378.5,-249.58 374.46,-265.19 371.45,-276.82"/>
<polygon fill="black" stroke="black" points="385.43,-236.76 384.55,-226.2 378.65,-235.01 385.43,-236.76"/>
<text text-anchor="middle" x="401.5" y="-247.8" font-family="Times,serif" font-size="14.00">विशेषणम्</text>
</g>
<!-- Node30_1 -->
<g id="node21" class="node">
<title>Node30_1</title>
<ellipse fill="#ff1975" stroke="#ff1975" cx="367" cy="-382" rx="60.39" ry="18"/>
<text text-anchor="middle" x="367" y="-378.3" font-family="Times,serif" font-size="14.00">(सन्ति)(30.1)</text>
</g>
<!-- Node13_2&#45;&gt;Node30_1 -->
<g id="edge16" class="edge">
<title>Node13_2&#45;&gt;Node30_1</title>
<path fill="none" stroke="black" d="M367,-323.27C367,-336.58 367,-352.19 367,-363.82"/>
<polygon fill="black" stroke="black" points="370.5,-323.2 367,-313.2 363.5,-323.2 370.5,-323.2"/>
<text text-anchor="middle" x="378" y="-334.8" font-family="Times,serif" font-size="14.00">कर्ता</text>
</g>
<!-- Node10_1 -->
<g id="node6" class="node">
<title>Node10_1</title>
<ellipse fill="#00bfff" stroke="#00bfff" cx="286" cy="-208" rx="42.79" ry="18"/>
<text text-anchor="middle" x="286" y="-204.3" font-family="Times,serif" font-size="14.00">ये(10.1)</text>
</g>
<!-- Node10_1&#45;&gt;Node13_2 -->
<g id="edge12" class="edge">
<title>Node10_1&#45;&gt;Node13_2</title>
<path fill="none" stroke="black" d="M304.62,-233.34C311.39,-241.73 319.27,-251.02 327,-259 333.16,-265.36 340.33,-271.88 346.88,-277.53"/>
<polygon fill="black" stroke="black" points="307.24,-231 298.28,-225.34 301.75,-235.35 307.24,-231"/>
<text text-anchor="middle" x="349.5" y="-247.8" font-family="Times,serif" font-size="14.00">विशेषणम्</text>
</g>
<!-- Node16_1 -->
<g id="node7" class="node">
<title>Node16_1</title>
<ellipse fill="#00bfff" stroke="#00bfff" cx="895" cy="-121" rx="42.79" ry="18"/>
<text text-anchor="middle" x="895" y="-117.3" font-family="Times,serif" font-size="14.00">ये(16.1)</text>
</g>
<!-- Node17_1 -->
<g id="node8" class="node">
<title>Node17_1</title>
<ellipse fill="#00bfff" stroke="#00bfff" cx="895" cy="-208" rx="54.69" ry="18"/>
<text text-anchor="middle" x="895" y="-204.3" font-family="Times,serif" font-size="14.00">दोषाः(17.1)</text>
</g>
<!-- Node16_1&#45;&gt;Node17_1 -->
<g id="edge20" class="edge">
<title>Node16_1&#45;&gt;Node17_1</title>
<path fill="none" stroke="black" d="M895,-149.27C895,-162.58 895,-178.19 895,-189.82"/>
<polygon fill="black" stroke="black" points="898.5,-149.2 895,-139.2 891.5,-149.2 898.5,-149.2"/>
<text text-anchor="middle" x="917.5" y="-160.8" font-family="Times,serif" font-size="14.00">विशेषणम्</text>
</g>
<!-- Node18_1 -->
<g id="node23" class="node">
<title>Node18_1</title>
<ellipse fill="#ff1975" stroke="#ff1975" cx="1034" cy="-295" rx="57.69" ry="18"/>
<text text-anchor="middle" x="1034" y="-291.3" font-family="Times,serif" font-size="14.00">भवन्ति(18.1)</text>
</g>
<!-- Node17_1&#45;&gt;Node18_1 -->
<g id="edge21" class="edge">
<title>Node17_1&#45;&gt;Node18_1</title>
<path fill="none" stroke="black" d="M928.55,-229.52C953.29,-244.65 986.42,-264.91 1008.9,-278.65"/>
<polygon fill="black" stroke="black" points="930.21,-226.43 919.85,-224.2 926.56,-232.4 930.21,-226.43"/>
<text text-anchor="middle" x="983" y="-247.8" font-family="Times,serif" font-size="14.00">कर्ता</text>
</g>
<!-- Node3_1 -->
<g id="node10" class="node">
<title>Node3_1</title>
<ellipse fill="#ff99ff" stroke="#ff99ff" cx="273" cy="-34" rx="37.89" ry="18"/>
<text text-anchor="middle" x="273" y="-30.3" font-family="Times,serif" font-size="14.00">च(3.1)</text>
</g>
<!-- Node3_1&#45;&gt;Node1_1 -->
<g id="edge3" class="edge">
<title>Node3_1&#45;&gt;Node1_1</title>
<path fill="none" stroke="black" d="M247.92,-57.05C237.57,-65.93 225.37,-76.15 214,-85 205.42,-91.68 195.73,-98.71 187.24,-104.7"/>
<polygon fill="black" stroke="black" points="250.49,-59.45 255.76,-50.26 245.91,-54.16 250.49,-59.45"/>
<text text-anchor="middle" x="270" y="-73.8" font-family="Times,serif" font-size="14.00">समुच्चय_द्योतकः</text>
</g>
<!-- Node4_1 -->
<g id="node11" class="node">
<title>Node4_1</title>
<ellipse fill="#ff99ff" stroke="#ff99ff" cx="371" cy="-34" rx="41.69" ry="18"/>
<text text-anchor="middle" x="371" y="-30.3" font-family="Times,serif" font-size="14.00">एव(4.1)</text>
</g>
<!-- Node4_1&#45;&gt;Node1_1 -->
<g id="edge4" class="edge">
<title>Node4_1&#45;&gt;Node1_1</title>
<path fill="none" stroke="black" d="M348.61,-58.33C338.29,-67.87 325.37,-78.24 312,-85 281.1,-100.63 242.98,-109.45 213.31,-114.32"/>
<polygon fill="black" stroke="black" points="351.18,-60.72 355.97,-51.27 346.33,-55.67 351.18,-60.72"/>
<text text-anchor="middle" x="351.5" y="-73.8" font-family="Times,serif" font-size="14.00">सम्बन्धः</text>
</g>
<!-- Node6_1 -->
<g id="node12" class="node">
<title>Node6_1</title>
<ellipse fill="#ffff00" stroke="#ffff00" cx="516" cy="-121" rx="52.79" ry="18"/>
<text text-anchor="middle" x="516" y="-117.3" font-family="Times,serif" font-size="14.00">मनुष्य&#45;(6.1)</text>
</g>
<!-- Node6_2 -->
<g id="node13" class="node">
<title>Node6_2</title>
<ellipse fill="#00bfff" stroke="#00bfff" cx="516" cy="-208" rx="66.09" ry="18"/>
<text text-anchor="middle" x="516" y="-204.3" font-family="Times,serif" font-size="14.00">अनुसारिणः(6.2)</text>
</g>
<!-- Node6_1&#45;&gt;Node6_2 -->
<g id="edge6" class="edge">
<title>Node6_1&#45;&gt;Node6_2</title>
<path fill="none" stroke="black" d="M516,-149.27C516,-162.58 516,-178.19 516,-189.82"/>
<polygon fill="black" stroke="black" points="519.5,-149.2 516,-139.2 512.5,-149.2 519.5,-149.2"/>
<text text-anchor="middle" x="533" y="-160.8" font-family="Times,serif" font-size="14.00">समासः</text>
</g>
<!-- Node6_2&#45;&gt;Node13_2 -->
<g id="edge7" class="edge">
<title>Node6_2&#45;&gt;Node13_2</title>
<path fill="none" stroke="black" d="M479.73,-229.69C453.33,-244.75 418.15,-264.82 394.16,-278.51"/>
<polygon fill="black" stroke="black" points="481.72,-232.59 488.67,-224.59 478.25,-226.51 481.72,-232.59"/>
<text text-anchor="middle" x="477.5" y="-247.8" font-family="Times,serif" font-size="14.00">षष्ठीसम्बन्धः</text>
</g>
<!-- Node8_1 -->
<g id="node14" class="node">
<title>Node8_1</title>
<ellipse fill="#ffff00" stroke="#ffff00" cx="650" cy="-34" rx="48.19" ry="18"/>
<text text-anchor="middle" x="650" y="-30.3" font-family="Times,serif" font-size="14.00">मन्त्र&#45;(8.1)</text>
</g>
<!-- Node8_2 -->
<g id="node15" class="node">
<title>Node8_2</title>
<ellipse fill="#c6e2eb" stroke="#c6e2eb" cx="650" cy="-121" rx="41.69" ry="18"/>
<text text-anchor="middle" x="650" y="-117.3" font-family="Times,serif" font-size="14.00">गृहे(8.2)</text>
</g>
<!-- Node8_1&#45;&gt;Node8_2 -->
<g id="edge9" class="edge">
<title>Node8_1&#45;&gt;Node8_2</title>
<path fill="none" stroke="black" d="M650,-62.27C650,-75.58 650,-91.19 650,-102.82"/>
<polygon fill="black" stroke="black" points="653.5,-62.2 650,-52.2 646.5,-62.2 653.5,-62.2"/>
<text text-anchor="middle" x="667" y="-73.8" font-family="Times,serif" font-size="14.00">समासः</text>
</g>
<!-- Node9_1 -->
<g id="node16" class="node">
<title>Node9_1</title>
<ellipse fill="#00bfff" stroke="#00bfff" cx="650" cy="-208" rx="50.09" ry="18"/>
<text text-anchor="middle" x="650" y="-204.3" font-family="Times,serif" font-size="14.00">वर्ज्याः(9.1)</text>
</g>
<!-- Node8_2&#45;&gt;Node9_1 -->
<g id="edge10" class="edge">
<title>Node8_2&#45;&gt;Node9_1</title>
<path fill="none" stroke="black" d="M650,-149.27C650,-162.58 650,-178.19 650,-189.82"/>
<polygon fill="black" stroke="black" points="653.5,-149.2 650,-139.2 646.5,-149.2 653.5,-149.2"/>
<text text-anchor="middle" x="677.5" y="-160.8" font-family="Times,serif" font-size="14.00">अधिकरणम्</text>
</g>
<!-- Node9_1&#45;&gt;Node13_2 -->
<g id="edge11" class="edge">
<title>Node9_1&#45;&gt;Node13_2</title>
<path fill="none" stroke="black" d="M610.6,-226.37C604.1,-229.04 597.39,-231.68 591,-234 532.16,-255.37 462.15,-272.92 416.26,-283.4"/>
<polygon fill="black" stroke="black" points="612.05,-229.55 619.92,-222.46 609.35,-223.1 612.05,-229.55"/>
<text text-anchor="middle" x="600" y="-247.8" font-family="Times,serif" font-size="14.00">विधेय_विशेषणम्</text>
</g>
<!-- Node11_1 -->
<g id="node17" class="node">
<title>Node11_1</title>
<ellipse fill="#ff99ff" stroke="#ff99ff" cx="1010" cy="-121" rx="43.59" ry="18"/>
<text text-anchor="middle" x="1010" y="-117.3" font-family="Times,serif" font-size="14.00">च(11.1)</text>
</g>
<!-- Node14_2 -->
<g id="node18" class="node">
<title>Node14_2</title>
<ellipse fill="#c6e2eb" stroke="#c6e2eb" cx="1210" cy="-208" rx="48.19" ry="18"/>
<text text-anchor="middle" x="1210" y="-204.3" font-family="Times,serif" font-size="14.00">भेदे(14.2)</text>
</g>
<!-- Node11_1&#45;&gt;Node14_2 -->
<g id="edge13" class="edge">
<title>Node11_1&#45;&gt;Node14_2</title>
<path fill="none" stroke="black" d="M1046.53,-139.39C1052.04,-141.97 1057.66,-144.57 1063,-147 1088.18,-158.46 1094.44,-161.43 1120,-172 1138.9,-179.82 1160.23,-188.13 1177.37,-194.69"/>
<polygon fill="black" stroke="black" points="1047.98,-136.21 1037.44,-135.12 1045,-142.54 1047.98,-136.21"/>
<text text-anchor="middle" x="1138.5" y="-160.8" font-family="Times,serif" font-size="14.00">सम्बन्धः</text>
</g>
<!-- Node14_2&#45;&gt;Node18_1 -->
<g id="edge18" class="edge">
<title>Node14_2&#45;&gt;Node18_1</title>
<path fill="none" stroke="black" d="M1172.57,-227.08C1140.18,-242.72 1093.97,-265.04 1063.97,-279.52"/>
<polygon fill="black" stroke="black" points="1174.24,-230.16 1181.72,-222.66 1171.2,-223.85 1174.24,-230.16"/>
<text text-anchor="middle" x="1159.5" y="-247.8" font-family="Times,serif" font-size="14.00">अधिकरणम्</text>
</g>
<!-- Node12_1 -->
<g id="node19" class="node">
<title>Node12_1</title>
<ellipse fill="#ff99ff" stroke="#ff99ff" cx="1124" cy="-121" rx="51.99" ry="18"/>
<text text-anchor="middle" x="1124" y="-117.3" font-family="Times,serif" font-size="14.00">अपि(12.1)</text>
</g>
<!-- Node12_1&#45;&gt;Node14_2 -->
<g id="edge14" class="edge">
<title>Node12_1&#45;&gt;Node14_2</title>
<path fill="none" stroke="black" d="M1147.84,-145.56C1162.46,-160.02 1180.8,-178.14 1193.76,-190.95"/>
<polygon fill="black" stroke="black" points="1150.15,-142.93 1140.58,-138.39 1145.23,-147.91 1150.15,-142.93"/>
<text text-anchor="middle" x="1190.5" y="-160.8" font-family="Times,serif" font-size="14.00">सम्बन्धः</text>
</g>
<!-- Node13_1 -->
<g id="node20" class="node">
<title>Node13_1</title>
<ellipse fill="#ffff00" stroke="#ffff00" cx="770" cy="-208" rx="51.99" ry="18"/>
<text text-anchor="middle" x="770" y="-204.3" font-family="Times,serif" font-size="14.00">जड&#45;(13.1)</text>
</g>
<!-- Node13_1&#45;&gt;Node13_2 -->
<g id="edge15" class="edge">
<title>Node13_1&#45;&gt;Node13_2</title>
<path fill="none" stroke="black" d="M728.65,-226.12C722.09,-228.79 715.37,-231.49 709,-234 679.82,-245.5 673.44,-251.42 643,-259 570.82,-276.98 485.61,-285.99 429.16,-290.32"/>
<polygon fill="black" stroke="black" points="730.16,-229.29 738.09,-222.27 727.51,-222.81 730.16,-229.29"/>
<text text-anchor="middle" x="702" y="-247.8" font-family="Times,serif" font-size="14.00">समासः</text>
</g>
<!-- Node14_1 -->
<g id="node22" class="node">
<title>Node14_1</title>
<ellipse fill="#ffff00" stroke="#ffff00" cx="1248" cy="-121" rx="53.89" ry="18"/>
<text text-anchor="middle" x="1248" y="-117.3" font-family="Times,serif" font-size="14.00">मन्त्र&#45;(14.1)</text>
</g>
<!-- Node14_1&#45;&gt;Node14_2 -->
<g id="edge17" class="edge">
<title>Node14_1&#45;&gt;Node14_2</title>
<path fill="none" stroke="black" d="M1236.13,-148.54C1230.06,-162.12 1222.86,-178.24 1217.55,-190.11"/>
<polygon fill="black" stroke="black" points="1239.42,-149.76 1240.31,-139.2 1233.03,-146.9 1239.42,-149.76"/>
<text text-anchor="middle" x="1248" y="-160.8" font-family="Times,serif" font-size="14.00">समासः</text>
</g>
<!-- Node15_1 -->
<g id="node24" class="node">
<title>Node15_1</title>
<ellipse fill="#ff99ff" stroke="#ff99ff" cx="1365" cy="-121" rx="44.69" ry="18"/>
<text text-anchor="middle" x="1365" y="-117.3" font-family="Times,serif" font-size="14.00">हि(15.1)</text>
</g>
<!-- Node15_1&#45;&gt;Node14_2 -->
<g id="edge19" class="edge">
<title>Node15_1&#45;&gt;Node14_2</title>
<path fill="none" stroke="black" d="M1330.55,-140.89C1301.93,-156.59 1261.84,-178.57 1235.89,-192.8"/>
<polygon fill="black" stroke="black" points="1332.32,-143.91 1339.4,-136.04 1328.95,-137.78 1332.32,-143.91"/>
<text text-anchor="middle" x="1314.5" y="-160.8" font-family="Times,serif" font-size="14.00">सम्बन्धः</text>
</g>
<!-- Node19_1 -->
<g id="node25" class="node">
<title>Node19_1</title>
<ellipse fill="#ffff00" stroke="#ffff00" cx="1487" cy="-34" rx="60.39" ry="18"/>
<text text-anchor="middle" x="1487" y="-30.3" font-family="Times,serif" font-size="14.00">पृथिवी&#45;(19.1)</text>
</g>
<!-- Node19_2 -->
<g id="node26" class="node">
<title>Node19_2</title>
<ellipse fill="#87ceeb" stroke="#87ceeb" cx="1487" cy="-121" rx="59.29" ry="18"/>
<text text-anchor="middle" x="1487" y="-117.3" font-family="Times,serif" font-size="14.00">क्षिताम्(19.2)</text>
</g>
<!-- Node19_1&#45;&gt;Node19_2 -->
<g id="edge22" class="edge">
<title>Node19_1&#45;&gt;Node19_2</title>
<path fill="none" stroke="black" d="M1487,-62.27C1487,-75.58 1487,-91.19 1487,-102.82"/>
<polygon fill="black" stroke="black" points="1490.5,-62.2 1487,-52.2 1483.5,-62.2 1490.5,-62.2"/>
<text text-anchor="middle" x="1505.5" y="-73.8" font-family="Times,serif" font-size="14.00">सम्बन्धः</text>
</g>
<!-- Node19_2&#45;&gt;Node14_2 -->
<g id="edge23" class="edge">
<title>Node19_2&#45;&gt;Node14_2</title>
<path fill="none" stroke="black" d="M1441.98,-138.96C1434.34,-141.72 1426.46,-144.49 1419,-147 1360.13,-166.78 1290.62,-185.91 1248.45,-197.06"/>
<polygon fill="black" stroke="black" points="1443.3,-142.2 1451.49,-135.48 1440.9,-135.63 1443.3,-142.2"/>
<text text-anchor="middle" x="1412.5" y="-160.8" font-family="Times,serif" font-size="14.00">षष्ठीसम्बन्धः</text>
</g>
<!-- Node20_1 -->
<g id="node27" class="node">
<title>Node20_1</title>
<ellipse fill="#ff99ff" stroke="#ff99ff" cx="1926" cy="-121" rx="42.79" ry="18"/>
<text text-anchor="middle" x="1926" y="-117.3" font-family="Times,serif" font-size="14.00">न(20.1)</text>
</g>
<!-- Node22_1 -->
<g id="node28" class="node">
<title>Node22_1</title>
<ellipse fill="#00bfff" stroke="#00bfff" cx="1855" cy="-208" rx="58.49" ry="18"/>
<text text-anchor="middle" x="1855" y="-204.3" font-family="Times,serif" font-size="14.00">शक्याः(22.1)</text>
</g>
<!-- Node20_1&#45;&gt;Node22_1 -->
<g id="edge24" class="edge">
<title>Node20_1&#45;&gt;Node22_1</title>
<path fill="none" stroke="black" d="M1912,-147.81C1907.1,-155.91 1901.24,-164.64 1895,-172 1889.27,-178.76 1882.21,-185.37 1875.63,-190.99"/>
<polygon fill="black" stroke="black" points="1915.09,-149.46 1917.11,-139.06 1909.05,-145.93 1915.09,-149.46"/>
<text text-anchor="middle" x="1924.5" y="-160.8" font-family="Times,serif" font-size="14.00">प्रतिषेधः</text>
</g>
<!-- Node28_1 -->
<g id="node31" class="node">
<title>Node28_1</title>
<ellipse fill="#ff1975" stroke="#ff1975" cx="1728" cy="-295" rx="62.29" ry="18"/>
<text text-anchor="middle" x="1728" y="-291.3" font-family="Times,serif" font-size="14.00">(अस्ति)(28.1)</text>
</g>
<!-- Node22_1&#45;&gt;Node28_1 -->
<g id="edge26" class="edge">
<title>Node22_1&#45;&gt;Node28_1</title>
<path fill="none" stroke="black" d="M1838.26,-234.25C1831.52,-242.97 1823.18,-252.24 1814,-259 1800.9,-268.66 1784.74,-276.15 1769.99,-281.67"/>
<polygon fill="black" stroke="black" points="1841.1,-236.3 1844.19,-226.16 1835.45,-232.16 1841.1,-236.3"/>
<text text-anchor="middle" x="1838" y="-247.8" font-family="Times,serif" font-size="14.00">कर्म</text>
</g>
<!-- Node21_1 -->
<g id="node29" class="node">
<title>Node21_1</title>
<ellipse fill="#00bfff" stroke="#00bfff" cx="1734" cy="-34" rx="42.79" ry="18"/>
<text text-anchor="middle" x="1734" y="-30.3" font-family="Times,serif" font-size="14.00">ते(21.1)</text>
</g>
<!-- Node23_1 -->
<g id="node30" class="node">
<title>Node23_1</title>
<ellipse fill="#ff1975" stroke="#ff1975" cx="1796" cy="-121" rx="68.79" ry="18"/>
<text text-anchor="middle" x="1796" y="-117.3" font-family="Times,serif" font-size="14.00">समाधातुम्(23.1)</text>
</g>
<!-- Node21_1&#45;&gt;Node23_1 -->
<g id="edge25" class="edge">
<title>Node21_1&#45;&gt;Node23_1</title>
<path fill="none" stroke="black" d="M1751.94,-59.6C1762.11,-73.54 1774.58,-90.64 1783.66,-103.08"/>
<polygon fill="black" stroke="black" points="1754.67,-57.41 1745.95,-51.39 1749.02,-61.53 1754.67,-57.41"/>
<text text-anchor="middle" x="1777" y="-73.8" font-family="Times,serif" font-size="14.00">कर्म</text>
</g>
<!-- Node23_1&#45;&gt;Node22_1 -->
<g id="edge27" class="edge">
<title>Node23_1&#45;&gt;Node22_1</title>
<path fill="none" stroke="black" d="M1813.63,-147.4C1823.25,-161.26 1834.89,-178.03 1843.37,-190.24"/>
<polygon fill="black" stroke="black" points="1816.23,-145.01 1807.66,-138.79 1810.48,-149 1816.23,-145.01"/>
<text text-anchor="middle" x="1860" y="-160.8" font-family="Times,serif" font-size="14.00">सहायकक्रिया</text>
</g>
<!-- Node24_1 -->
<g id="node32" class="node">
<title>Node24_1</title>
<ellipse fill="#ff99ff" stroke="#ff99ff" cx="1857" cy="-34" rx="62.29" ry="18"/>
<text text-anchor="middle" x="1857" y="-30.3" font-family="Times,serif" font-size="14.00">कथंचित्(24.1)</text>
</g>
<!-- Node24_1&#45;&gt;Node23_1 -->
<g id="edge28" class="edge">
<title>Node24_1&#45;&gt;Node23_1</title>
<path fill="none" stroke="black" d="M1839.05,-60.01C1829.06,-73.94 1816.88,-90.91 1808.03,-103.24"/>
<polygon fill="black" stroke="black" points="1841.96,-61.96 1844.95,-51.79 1836.27,-57.88 1841.96,-61.96"/>
<text text-anchor="middle" x="1865" y="-73.8" font-family="Times,serif" font-size="14.00">क्रियाविशेषणम्</text>
</g>
<!-- Node25_1 -->
<g id="node33" class="node">
<title>Node25_1</title>
<ellipse fill="#ff99ff" stroke="#ff99ff" cx="1728" cy="-208" rx="50.09" ry="18"/>
<text text-anchor="middle" x="1728" y="-204.3" font-family="Times,serif" font-size="14.00">इति(25.1)</text>
</g>
<!-- Node25_1&#45;&gt;Node28_1 -->
<g id="edge29" class="edge">
<title>Node25_1&#45;&gt;Node28_1</title>
<path fill="none" stroke="black" d="M1728,-236.27C1728,-249.58 1728,-265.19 1728,-276.82"/>
<polygon fill="black" stroke="black" points="1731.5,-236.2 1728,-226.2 1724.5,-236.2 1731.5,-236.2"/>
<text text-anchor="middle" x="1769" y="-247.8" font-family="Times,serif" font-size="14.00">वाक्यकर्म_द्योतकः</text>
</g>
<!-- Node26_1 -->
<g id="node34" class="node">
<title>Node26_1</title>
<ellipse fill="#87ceeb" stroke="#87ceeb" cx="1607" cy="-121" rx="42.79" ry="18"/>
<text text-anchor="middle" x="1607" y="-117.3" font-family="Times,serif" font-size="14.00">मे(26.1)</text>
</g>
<!-- Node27_1 -->
<g id="node35" class="node">
<title>Node27_1</title>
<ellipse fill="#00bfff" stroke="#00bfff" cx="1607" cy="-208" rx="52.79" ry="18"/>
<text text-anchor="middle" x="1607" y="-204.3" font-family="Times,serif" font-size="14.00">मतिः(27.1)</text>
</g>
<!-- Node26_1&#45;&gt;Node27_1 -->
<g id="edge30" class="edge">
<title>Node26_1&#45;&gt;Node27_1</title>
<path fill="none" stroke="black" d="M1607,-149.27C1607,-162.58 1607,-178.19 1607,-189.82"/>
<polygon fill="black" stroke="black" points="1610.5,-149.2 1607,-139.2 1603.5,-149.2 1610.5,-149.2"/>
<text text-anchor="middle" x="1634.5" y="-160.8" font-family="Times,serif" font-size="14.00">षष्ठीसम्बन्धः</text>
</g>
<!-- Node27_1&#45;&gt;Node28_1 -->
<g id="edge31" class="edge">
<title>Node27_1&#45;&gt;Node28_1</title>
<path fill="none" stroke="black" d="M1637.24,-230.24C1658.39,-245.1 1686.2,-264.63 1705.43,-278.15"/>
<polygon fill="black" stroke="black" points="1639.11,-227.28 1628.91,-224.39 1635.08,-233.01 1639.11,-227.28"/>
<text text-anchor="middle" x="1685" y="-247.8" font-family="Times,serif" font-size="14.00">कर्ता</text>
</g>
</g>
</svg>
