<?xml version="1.0" encoding="UTF-8" standalone="no"?>
<!DOCTYPE svg PUBLIC "-//W3C//DTD SVG 1.1//EN"
 "http://www.w3.org/Graphics/SVG/1.1/DTD/svg11.dtd">
<!-- Generated by graphviz version 2.43.0 (0)
 -->
<!-- Title: G Pages: 1 -->
<svg width="802pt" height="321pt"
 viewBox="0.00 0.00 802.00 321.00" xmlns="http://www.w3.org/2000/svg" xmlns:xlink="http://www.w3.org/1999/xlink">
<g id="graph0" class="graph" transform="scale(1 1) rotate(0) translate(4 317)">
<title>G</title>
<polygon fill="#fffacd" stroke="transparent" points="-4,4 -4,-317 798,-317 798,4 -4,4"/>
<g id="clust1" class="cluster">
<title>cluster_1</title>
<polygon fill="#fffacd" stroke="black" points="8,-95 8,-234 269,-234 269,-95 8,-95"/>
</g>
<g id="clust2" class="cluster">
<title>cluster_2</title>
<polygon fill="#fffacd" stroke="black" points="365,-8 365,-234 501,-234 501,-8 365,-8"/>
</g>
<!-- Node1_1 -->
<g id="node1" class="node">
<title>Node1_1</title>
<ellipse fill="#00bfff" stroke="#00bfff" cx="219" cy="-121" rx="42.49" ry="18"/>
<text text-anchor="middle" x="219" y="-117.3" font-family="Times,serif" font-size="14.00">सर्वे(1.1)</text>
</g>
<!-- Node2_1 -->
<g id="node2" class="node">
<title>Node2_1</title>
<ellipse fill="#00bfff" stroke="#00bfff" cx="201" cy="-208" rx="59.59" ry="18"/>
<text text-anchor="middle" x="201" y="-204.3" font-family="Times,serif" font-size="14.00">जानपदाः(2.1)</text>
</g>
<!-- Node1_1&#45;&gt;Node2_1 -->
<g id="edge1" class="edge">
<title>Node1_1&#45;&gt;Node2_1</title>
<path fill="none" stroke="black" d="M212.79,-148.83C212.17,-151.59 211.57,-154.35 211,-157 208.66,-167.91 206.2,-180.19 204.31,-189.85"/>
<polygon fill="black" stroke="black" points="216.2,-149.6 215,-139.07 209.38,-148.05 216.2,-149.6"/>
<text text-anchor="middle" x="233.5" y="-160.8" font-family="Times,serif" font-size="14.00">विशेषणम्</text>
</g>
<!-- Node12_1 -->
<g id="node7" class="node">
<title>Node12_1</title>
<ellipse fill="#ff1975" stroke="#ff1975" cx="500" cy="-295" rx="51.99" ry="18"/>
<text text-anchor="middle" x="500" y="-291.3" font-family="Times,serif" font-size="14.00">कुर्युः(12.1)</text>
</g>
<!-- Node2_1&#45;&gt;Node12_1 -->
<g id="edge2" class="edge">
<title>Node2_1&#45;&gt;Node12_1</title>
<path fill="none" stroke="black" d="M252.81,-223.73C312.14,-240.6 408.01,-267.85 461.24,-282.98"/>
<polygon fill="black" stroke="black" points="253.47,-220.28 242.89,-220.91 251.55,-227.01 253.47,-220.28"/>
<text text-anchor="middle" x="379" y="-247.8" font-family="Times,serif" font-size="14.00">कर्ता</text>
</g>
<!-- Node14_1 -->
<g id="node3" class="node">
<title>Node14_1</title>
<ellipse fill="#00bfff" stroke="#00bfff" cx="87" cy="-121" rx="71.49" ry="18"/>
<text text-anchor="middle" x="87" y="-117.3" font-family="Times,serif" font-size="14.00">व्यवहारिणः(14.1)</text>
</g>
<!-- Node14_1&#45;&gt;Node2_1 -->
<g id="edge13" class="edge">
<title>Node14_1&#45;&gt;Node2_1</title>
<path fill="none" stroke="black" d="M116.79,-144.21C136.56,-158.95 162.03,-177.94 179.76,-191.16"/>
<polygon fill="black" stroke="black" points="118.82,-141.36 108.71,-138.19 114.64,-146.97 118.82,-141.36"/>
<text text-anchor="middle" x="173.5" y="-160.8" font-family="Times,serif" font-size="14.00">समुच्चितः</text>
</g>
<!-- Node8_1 -->
<g id="node4" class="node">
<title>Node8_1</title>
<ellipse fill="#00bfff" stroke="#00bfff" cx="433" cy="-121" rx="59.59" ry="18"/>
<text text-anchor="middle" x="433" y="-117.3" font-family="Times,serif" font-size="14.00">पौरोगवाः(8.1)</text>
</g>
<!-- Node10_1 -->
<g id="node5" class="node">
<title>Node10_1</title>
<ellipse fill="#00bfff" stroke="#00bfff" cx="435" cy="-208" rx="57.69" ry="18"/>
<text text-anchor="middle" x="435" y="-204.3" font-family="Times,serif" font-size="14.00">सभ्याः(10.1)</text>
</g>
<!-- Node8_1&#45;&gt;Node10_1 -->
<g id="edge8" class="edge">
<title>Node8_1&#45;&gt;Node10_1</title>
<path fill="none" stroke="black" d="M433.64,-149.27C433.95,-162.58 434.32,-178.19 434.6,-189.82"/>
<polygon fill="black" stroke="black" points="437.14,-149.12 433.4,-139.2 430.14,-149.28 437.14,-149.12"/>
<text text-anchor="middle" x="456.5" y="-160.8" font-family="Times,serif" font-size="14.00">समुच्चितः</text>
</g>
<!-- Node10_1&#45;&gt;Node12_1 -->
<g id="edge10" class="edge">
<title>Node10_1&#45;&gt;Node12_1</title>
<path fill="none" stroke="black" d="M431.92,-236.59C432.27,-244.33 433.88,-252.41 438,-259 444.22,-268.96 454.36,-276.35 464.66,-281.7"/>
<polygon fill="black" stroke="black" points="435.43,-236.51 432.11,-226.45 428.43,-236.38 435.43,-236.51"/>
<text text-anchor="middle" x="485" y="-247.8" font-family="Times,serif" font-size="14.00">कर्तृसमानाधिकरणम्</text>
</g>
<!-- Node13_1 -->
<g id="node6" class="node">
<title>Node13_1</title>
<ellipse fill="#00bfff" stroke="#00bfff" cx="433" cy="-34" rx="42.79" ry="18"/>
<text text-anchor="middle" x="433" y="-30.3" font-family="Times,serif" font-size="14.00">ये(13.1)</text>
</g>
<!-- Node13_1&#45;&gt;Node8_1 -->
<g id="edge12" class="edge">
<title>Node13_1&#45;&gt;Node8_1</title>
<path fill="none" stroke="black" d="M433,-62.27C433,-75.58 433,-91.19 433,-102.82"/>
<polygon fill="black" stroke="black" points="436.5,-62.2 433,-52.2 429.5,-62.2 436.5,-62.2"/>
<text text-anchor="middle" x="455.5" y="-73.8" font-family="Times,serif" font-size="14.00">विशेषणम्</text>
</g>
<!-- Node3_1 -->
<g id="node8" class="node">
<title>Node3_1</title>
<ellipse fill="#ff99ff" stroke="#ff99ff" cx="317" cy="-121" rx="37.89" ry="18"/>
<text text-anchor="middle" x="317" y="-117.3" font-family="Times,serif" font-size="14.00">च(3.1)</text>
</g>
<!-- Node3_1&#45;&gt;Node2_1 -->
<g id="edge3" class="edge">
<title>Node3_1&#45;&gt;Node2_1</title>
<path fill="none" stroke="black" d="M291.77,-143.82C280.98,-152.85 268.11,-163.23 256,-172 246.65,-178.77 236.02,-185.7 226.61,-191.59"/>
<polygon fill="black" stroke="black" points="294.18,-146.36 299.56,-137.24 289.67,-141.02 294.18,-146.36"/>
<text text-anchor="middle" x="313" y="-160.8" font-family="Times,serif" font-size="14.00">समुच्चय_द्योतकः</text>
</g>
<!-- Node4_1 -->
<g id="node9" class="node">
<title>Node4_1</title>
<ellipse fill="#ff99ff" stroke="#ff99ff" cx="315" cy="-34" rx="41.69" ry="18"/>
<text text-anchor="middle" x="315" y="-30.3" font-family="Times,serif" font-size="14.00">एव(4.1)</text>
</g>
<!-- Node4_1&#45;&gt;Node3_1 -->
<g id="edge4" class="edge">
<title>Node4_1&#45;&gt;Node3_1</title>
<path fill="none" stroke="black" d="M315.64,-62.27C315.95,-75.58 316.32,-91.19 316.6,-102.82"/>
<polygon fill="black" stroke="black" points="319.14,-62.12 315.4,-52.2 312.14,-62.28 319.14,-62.12"/>
<text text-anchor="middle" x="334.5" y="-73.8" font-family="Times,serif" font-size="14.00">सम्बन्धः</text>
</g>
<!-- Node5_1 -->
<g id="node10" class="node">
<title>Node5_1</title>
<ellipse fill="#87ceeb" stroke="#87ceeb" cx="750" cy="-121" rx="41.69" ry="18"/>
<text text-anchor="middle" x="750" y="-117.3" font-family="Times,serif" font-size="14.00">तव(5.1)</text>
</g>
<!-- Node6_1 -->
<g id="node11" class="node">
<title>Node6_1</title>
<ellipse fill="#93db70" stroke="#93db70" cx="565" cy="-208" rx="54.69" ry="18"/>
<text text-anchor="middle" x="565" y="-204.3" font-family="Times,serif" font-size="14.00">कर्माणि(6.1)</text>
</g>
<!-- Node5_1&#45;&gt;Node6_1 -->
<g id="edge5" class="edge">
<title>Node5_1&#45;&gt;Node6_1</title>
<path fill="none" stroke="black" d="M742.96,-149.13C739.48,-157.63 734.38,-166.28 727,-172 691.66,-199.41 671.63,-180.17 628,-190 620.49,-191.69 612.52,-193.69 604.87,-195.7"/>
<polygon fill="black" stroke="black" points="746.36,-150 746.34,-139.41 739.75,-147.7 746.36,-150"/>
<text text-anchor="middle" x="766.5" y="-160.8" font-family="Times,serif" font-size="14.00">षष्ठीसम्बन्धः</text>
</g>
<!-- Node6_1&#45;&gt;Node12_1 -->
<g id="edge6" class="edge">
<title>Node6_1&#45;&gt;Node12_1</title>
<path fill="none" stroke="black" d="M551.75,-234.94C547.19,-242.95 541.77,-251.61 536,-259 530.85,-265.6 524.5,-272.17 518.58,-277.81"/>
<polygon fill="black" stroke="black" points="554.94,-236.39 556.67,-225.94 548.8,-233.03 554.94,-236.39"/>
<text text-anchor="middle" x="554" y="-247.8" font-family="Times,serif" font-size="14.00">कर्म</text>
</g>
<!-- Node7_1 -->
<g id="node12" class="node">
<title>Node7_1</title>
<ellipse fill="#6fffc3" stroke="#6fffc3" cx="690" cy="-208" rx="52.79" ry="18"/>
<text text-anchor="middle" x="690" y="-204.3" font-family="Times,serif" font-size="14.00">पाण्डव(7.1)</text>
</g>
<!-- Node7_1&#45;&gt;Node12_1 -->
<g id="edge7" class="edge">
<title>Node7_1&#45;&gt;Node12_1</title>
<path fill="none" stroke="black" d="M649.9,-226.94C614.3,-242.87 563.02,-265.8 530.62,-280.3"/>
<polygon fill="black" stroke="black" points="651.35,-230.12 659.05,-222.85 648.49,-223.73 651.35,-230.12"/>
<text text-anchor="middle" x="627" y="-247.8" font-family="Times,serif" font-size="14.00">सम्बोध्यः</text>
</g>
<!-- Node9_1 -->
<g id="node13" class="node">
<title>Node9_1</title>
<ellipse fill="#ff99ff" stroke="#ff99ff" cx="548" cy="-121" rx="37.89" ry="18"/>
<text text-anchor="middle" x="548" y="-117.3" font-family="Times,serif" font-size="14.00">च(9.1)</text>
</g>
<!-- Node9_1&#45;&gt;Node10_1 -->
<g id="edge9" class="edge">
<title>Node9_1&#45;&gt;Node10_1</title>
<path fill="none" stroke="black" d="M521,-143.02C509.36,-152.01 495.56,-162.59 483,-172 474.58,-178.31 465.25,-185.14 457.07,-191.09"/>
<polygon fill="black" stroke="black" points="523.28,-145.68 529.04,-136.79 518.99,-140.14 523.28,-145.68"/>
<text text-anchor="middle" x="540" y="-160.8" font-family="Times,serif" font-size="14.00">समुच्चय_द्योतकः</text>
</g>
<!-- Node11_1 -->
<g id="node14" class="node">
<title>Node11_1</title>
<ellipse fill="#ff99ff" stroke="#ff99ff" cx="647" cy="-121" rx="43.59" ry="18"/>
<text text-anchor="middle" x="647" y="-117.3" font-family="Times,serif" font-size="14.00">च(11.1)</text>
</g>
<!-- Node11_1&#45;&gt;Node10_1 -->
<g id="edge11" class="edge">
<title>Node11_1&#45;&gt;Node10_1</title>
<path fill="none" stroke="black" d="M622.84,-144.67C611.27,-154.41 596.74,-165.11 582,-172 548.59,-187.61 536.86,-181.4 501,-190 493.52,-191.79 485.59,-193.77 477.91,-195.73"/>
<polygon fill="black" stroke="black" points="625.47,-147.03 630.71,-137.82 620.87,-141.75 625.47,-147.03"/>
<text text-anchor="middle" x="645" y="-160.8" font-family="Times,serif" font-size="14.00">समुच्चय_द्योतकः</text>
</g>
</g>
</svg>
