<?xml version="1.0" encoding="UTF-8" standalone="no"?>
<!DOCTYPE svg PUBLIC "-//W3C//DTD SVG 1.1//EN"
 "http://www.w3.org/Graphics/SVG/1.1/DTD/svg11.dtd">
<!-- Generated by graphviz version 2.43.0 (0)
 -->
<!-- Title: G Pages: 1 -->
<svg width="925pt" height="408pt"
 viewBox="0.00 0.00 925.00 408.00" xmlns="http://www.w3.org/2000/svg" xmlns:xlink="http://www.w3.org/1999/xlink">
<g id="graph0" class="graph" transform="scale(1 1) rotate(0) translate(4 404)">
<title>G</title>
<polygon fill="#fffacd" stroke="transparent" points="-4,4 -4,-404 921,-404 921,4 -4,4"/>
<g id="clust1" class="cluster">
<title>cluster_1</title>
<polygon fill="#fffacd" stroke="black" points="8,-8 8,-147 136,-147 136,-8 8,-8"/>
</g>
<g id="clust2" class="cluster">
<title>cluster_2</title>
<polygon fill="#fffacd" stroke="black" points="785,-95 785,-234 909,-234 909,-95 785,-95"/>
</g>
<!-- Node4_1 -->
<g id="node1" class="node">
<title>Node4_1</title>
<ellipse fill="#87ceeb" stroke="#87ceeb" cx="72" cy="-34" rx="55.79" ry="18"/>
<text text-anchor="middle" x="72" y="-30.3" font-family="Times,serif" font-size="14.00">विदुषाम्(4.1)</text>
</g>
<!-- Node1_1 -->
<g id="node2" class="node">
<title>Node1_1</title>
<ellipse fill="#ffff00" stroke="#ffff00" cx="72" cy="-121" rx="46.29" ry="18"/>
<text text-anchor="middle" x="72" y="-117.3" font-family="Times,serif" font-size="14.00">गुण&#45;(1.1)</text>
</g>
<!-- Node4_1&#45;&gt;Node1_1 -->
<g id="edge4" class="edge">
<title>Node4_1&#45;&gt;Node1_1</title>
<path fill="none" stroke="black" d="M72,-62.27C72,-75.58 72,-91.19 72,-102.82"/>
<polygon fill="black" stroke="black" points="75.5,-62.2 72,-52.2 68.5,-62.2 75.5,-62.2"/>
<text text-anchor="middle" x="94.5" y="-73.8" font-family="Times,serif" font-size="14.00">विशेषणम्</text>
</g>
<!-- Node1_2 -->
<g id="node5" class="node">
<title>Node1_2</title>
<ellipse fill="#87ceeb" stroke="#87ceeb" cx="72" cy="-208" rx="58.49" ry="18"/>
<text text-anchor="middle" x="72" y="-204.3" font-family="Times,serif" font-size="14.00">अर्थिनाम्(1.2)</text>
</g>
<!-- Node1_1&#45;&gt;Node1_2 -->
<g id="edge1" class="edge">
<title>Node1_1&#45;&gt;Node1_2</title>
<path fill="none" stroke="black" d="M72,-149.27C72,-162.58 72,-178.19 72,-189.82"/>
<polygon fill="black" stroke="black" points="75.5,-149.2 72,-139.2 68.5,-149.2 75.5,-149.2"/>
<text text-anchor="middle" x="89" y="-160.8" font-family="Times,serif" font-size="14.00">समासः</text>
</g>
<!-- Node14_2 -->
<g id="node3" class="node">
<title>Node14_2</title>
<ellipse fill="#00bfff" stroke="#00bfff" cx="847" cy="-121" rx="53.89" ry="18"/>
<text text-anchor="middle" x="847" y="-117.3" font-family="Times,serif" font-size="14.00">गिरिः(14.2)</text>
</g>
<!-- Node13_1 -->
<g id="node4" class="node">
<title>Node13_1</title>
<ellipse fill="#00bfff" stroke="#00bfff" cx="847" cy="-208" rx="50.09" ry="18"/>
<text text-anchor="middle" x="847" y="-204.3" font-family="Times,serif" font-size="14.00">मेरुः(13.1)</text>
</g>
<!-- Node14_2&#45;&gt;Node13_1 -->
<g id="edge15" class="edge">
<title>Node14_2&#45;&gt;Node13_1</title>
<path fill="none" stroke="black" d="M847,-149.27C847,-162.58 847,-178.19 847,-189.82"/>
<polygon fill="black" stroke="black" points="850.5,-149.2 847,-139.2 843.5,-149.2 850.5,-149.2"/>
<text text-anchor="middle" x="869.5" y="-160.8" font-family="Times,serif" font-size="14.00">विशेषणम्</text>
</g>
<!-- Node12_1 -->
<g id="node16" class="node">
<title>Node12_1</title>
<ellipse fill="#ff99ff" stroke="#ff99ff" cx="847" cy="-295" rx="50.89" ry="18"/>
<text text-anchor="middle" x="847" y="-291.3" font-family="Times,serif" font-size="14.00">यथा(12.1)</text>
</g>
<!-- Node13_1&#45;&gt;Node12_1 -->
<g id="edge13" class="edge">
<title>Node13_1&#45;&gt;Node12_1</title>
<path fill="none" stroke="black" d="M847,-236.27C847,-249.58 847,-265.19 847,-276.82"/>
<polygon fill="black" stroke="black" points="850.5,-236.2 847,-226.2 843.5,-236.2 850.5,-236.2"/>
<text text-anchor="middle" x="867.5" y="-247.8" font-family="Times,serif" font-size="14.00">उपमानम्</text>
</g>
<!-- Node3_1 -->
<g id="node6" class="node">
<title>Node3_1</title>
<ellipse fill="#00bfff" stroke="#00bfff" cx="246" cy="-295" rx="48.19" ry="18"/>
<text text-anchor="middle" x="246" y="-291.3" font-family="Times,serif" font-size="14.00">कार्यः(3.1)</text>
</g>
<!-- Node1_2&#45;&gt;Node3_1 -->
<g id="edge2" class="edge">
<title>Node1_2&#45;&gt;Node3_1</title>
<path fill="none" stroke="black" d="M105.55,-229.74C121.47,-239.2 140.92,-250.22 159,-259 176.43,-267.46 196.45,-275.62 212.89,-281.93"/>
<polygon fill="black" stroke="black" points="107,-226.53 96.63,-224.38 103.4,-232.53 107,-226.53"/>
<text text-anchor="middle" x="186.5" y="-247.8" font-family="Times,serif" font-size="14.00">षष्ठीसम्बन्धः</text>
</g>
<!-- Node2_1 -->
<g id="node7" class="node">
<title>Node2_1</title>
<ellipse fill="#00bfff" stroke="#00bfff" cx="195" cy="-208" rx="46.29" ry="18"/>
<text text-anchor="middle" x="195" y="-204.3" font-family="Times,serif" font-size="14.00">गुणः(2.1)</text>
</g>
<!-- Node2_1&#45;&gt;Node3_1 -->
<g id="edge3" class="edge">
<title>Node2_1&#45;&gt;Node3_1</title>
<path fill="none" stroke="black" d="M210.24,-234.4C218.56,-248.26 228.62,-265.03 235.94,-277.24"/>
<polygon fill="black" stroke="black" points="213.22,-232.57 205.08,-225.79 207.22,-236.17 213.22,-232.57"/>
<text text-anchor="middle" x="233" y="-247.8" font-family="Times,serif" font-size="14.00">कर्म</text>
</g>
<!-- Node5_1 -->
<g id="node8" class="node">
<title>Node5_1</title>
<ellipse fill="#87ceeb" stroke="#87ceeb" cx="296" cy="-208" rx="37.09" ry="18"/>
<text text-anchor="middle" x="296" y="-204.3" font-family="Times,serif" font-size="14.00">ते(5.1)</text>
</g>
<!-- Node5_1&#45;&gt;Node3_1 -->
<g id="edge5" class="edge">
<title>Node5_1&#45;&gt;Node3_1</title>
<path fill="none" stroke="black" d="M281.26,-234.05C273.04,-248.02 263.03,-265.04 255.78,-277.37"/>
<polygon fill="black" stroke="black" points="284.31,-235.78 286.36,-225.39 278.27,-232.23 284.31,-235.78"/>
<text text-anchor="middle" x="300.5" y="-247.8" font-family="Times,serif" font-size="14.00">षष्ठीसम्बन्धः</text>
</g>
<!-- Node6_1 -->
<g id="node9" class="node">
<title>Node6_1</title>
<ellipse fill="#ffff00" stroke="#ffff00" cx="402" cy="-121" rx="46.29" ry="18"/>
<text text-anchor="middle" x="402" y="-117.3" font-family="Times,serif" font-size="14.00">जन&#45;(6.1)</text>
</g>
<!-- Node6_2 -->
<g id="node10" class="node">
<title>Node6_2</title>
<ellipse fill="#6fffc3" stroke="#6fffc3" cx="402" cy="-208" rx="51.19" ry="18"/>
<text text-anchor="middle" x="402" y="-204.3" font-family="Times,serif" font-size="14.00">अधिप(6.2)</text>
</g>
<!-- Node6_1&#45;&gt;Node6_2 -->
<g id="edge6" class="edge">
<title>Node6_1&#45;&gt;Node6_2</title>
<path fill="none" stroke="black" d="M402,-149.27C402,-162.58 402,-178.19 402,-189.82"/>
<polygon fill="black" stroke="black" points="405.5,-149.2 402,-139.2 398.5,-149.2 405.5,-149.2"/>
<text text-anchor="middle" x="419" y="-160.8" font-family="Times,serif" font-size="14.00">समासः</text>
</g>
<!-- Node6_2&#45;&gt;Node3_1 -->
<g id="edge7" class="edge">
<title>Node6_2&#45;&gt;Node3_1</title>
<path fill="none" stroke="black" d="M374.42,-230.97C361.92,-240.33 346.67,-250.92 332,-259 315.62,-268.02 296.43,-276.05 280.33,-282.14"/>
<polygon fill="black" stroke="black" points="376.77,-233.58 382.6,-224.74 372.53,-228.02 376.77,-233.58"/>
<text text-anchor="middle" x="377" y="-247.8" font-family="Times,serif" font-size="14.00">सम्बोध्यः</text>
</g>
<!-- Node7_1 -->
<g id="node11" class="node">
<title>Node7_1</title>
<ellipse fill="#00bfff" stroke="#00bfff" cx="509" cy="-295" rx="73.39" ry="18"/>
<text text-anchor="middle" x="509" y="-291.3" font-family="Times,serif" font-size="14.00">अ&#45;वि&#45;चाल्याः(7.1)</text>
</g>
<!-- Node11_1 -->
<g id="node12" class="node">
<title>Node11_1</title>
<ellipse fill="#ff1975" stroke="#ff1975" cx="686" cy="-382" rx="49.29" ry="18"/>
<text text-anchor="middle" x="686" y="-378.3" font-family="Times,serif" font-size="14.00">स्युः(11.1)</text>
</g>
<!-- Node7_1&#45;&gt;Node11_1 -->
<g id="edge8" class="edge">
<title>Node7_1&#45;&gt;Node11_1</title>
<path fill="none" stroke="black" d="M529.22,-320.55C537.86,-329.69 548.59,-339.42 560,-346 584.98,-360.41 616.18,-369.13 641.29,-374.27"/>
<polygon fill="black" stroke="black" points="531.79,-318.17 522.48,-313.1 526.6,-322.87 531.79,-318.17"/>
<text text-anchor="middle" x="607" y="-334.8" font-family="Times,serif" font-size="14.00">कर्तृसमानाधिकरणम्</text>
</g>
<!-- Node8_1 -->
<g id="node13" class="node">
<title>Node8_1</title>
<ellipse fill="#ff99ff" stroke="#ff99ff" cx="509" cy="-208" rx="37.89" ry="18"/>
<text text-anchor="middle" x="509" y="-204.3" font-family="Times,serif" font-size="14.00">च(8.1)</text>
</g>
<!-- Node8_1&#45;&gt;Node7_1 -->
<g id="edge9" class="edge">
<title>Node8_1&#45;&gt;Node7_1</title>
<path fill="none" stroke="black" d="M509,-236.27C509,-249.58 509,-265.19 509,-276.82"/>
<polygon fill="black" stroke="black" points="512.5,-236.2 509,-226.2 505.5,-236.2 512.5,-236.2"/>
<text text-anchor="middle" x="527.5" y="-247.8" font-family="Times,serif" font-size="14.00">सम्बन्धः</text>
</g>
<!-- Node9_1 -->
<g id="node14" class="node">
<title>Node9_1</title>
<ellipse fill="#00bfff" stroke="#00bfff" cx="637" cy="-295" rx="37.09" ry="18"/>
<text text-anchor="middle" x="637" y="-291.3" font-family="Times,serif" font-size="14.00">ते(9.1)</text>
</g>
<!-- Node9_1&#45;&gt;Node11_1 -->
<g id="edge10" class="edge">
<title>Node9_1&#45;&gt;Node11_1</title>
<path fill="none" stroke="black" d="M651.87,-321.8C659.82,-335.58 669.36,-352.14 676.34,-364.24"/>
<polygon fill="black" stroke="black" points="654.71,-319.71 646.68,-312.79 648.64,-323.2 654.71,-319.71"/>
<text text-anchor="middle" x="675" y="-334.8" font-family="Times,serif" font-size="14.00">कर्ता</text>
</g>
<!-- Node10_1 -->
<g id="node15" class="node">
<title>Node10_1</title>
<ellipse fill="#87ceeb" stroke="#87ceeb" cx="735" cy="-295" rx="42.79" ry="18"/>
<text text-anchor="middle" x="735" y="-291.3" font-family="Times,serif" font-size="14.00">ते(10.1)</text>
</g>
<!-- Node10_1&#45;&gt;Node11_1 -->
<g id="edge11" class="edge">
<title>Node10_1&#45;&gt;Node11_1</title>
<path fill="none" stroke="black" d="M720.13,-321.8C712.18,-335.58 702.64,-352.14 695.66,-364.24"/>
<polygon fill="black" stroke="black" points="723.36,-323.2 725.32,-312.79 717.29,-319.71 723.36,-323.2"/>
<text text-anchor="middle" x="731.5" y="-334.8" font-family="Times,serif" font-size="14.00">सम्बन्धः</text>
</g>
<!-- Node12_1&#45;&gt;Node11_1 -->
<g id="edge12" class="edge">
<title>Node12_1&#45;&gt;Node11_1</title>
<path fill="none" stroke="black" d="M811.06,-315.52C793.84,-324.82 772.89,-336.06 754,-346 740.72,-352.99 725.92,-360.62 713.52,-366.98"/>
<polygon fill="black" stroke="black" points="813.08,-318.4 820.21,-310.57 809.75,-312.25 813.08,-318.4"/>
<text text-anchor="middle" x="815" y="-334.8" font-family="Times,serif" font-size="14.00">उपमानद्योतकः</text>
</g>
<!-- Node14_1 -->
<g id="node17" class="node">
<title>Node14_1</title>
<ellipse fill="#ffff00" stroke="#ffff00" cx="847" cy="-34" rx="52.79" ry="18"/>
<text text-anchor="middle" x="847" y="-30.3" font-family="Times,serif" font-size="14.00">महा&#45;(14.1)</text>
</g>
<!-- Node14_1&#45;&gt;Node14_2 -->
<g id="edge14" class="edge">
<title>Node14_1&#45;&gt;Node14_2</title>
<path fill="none" stroke="black" d="M847,-62.27C847,-75.58 847,-91.19 847,-102.82"/>
<polygon fill="black" stroke="black" points="850.5,-62.2 847,-52.2 843.5,-62.2 850.5,-62.2"/>
<text text-anchor="middle" x="864" y="-73.8" font-family="Times,serif" font-size="14.00">समासः</text>
</g>
</g>
</svg>
