<?xml version="1.0" encoding="UTF-8" standalone="no"?>
<!DOCTYPE svg PUBLIC "-//W3C//DTD SVG 1.1//EN"
 "http://www.w3.org/Graphics/SVG/1.1/DTD/svg11.dtd">
<!-- Generated by graphviz version 2.43.0 (0)
 -->
<!-- Title: G Pages: 1 -->
<svg width="1120pt" height="234pt"
 viewBox="0.00 0.00 1119.64 234.00" xmlns="http://www.w3.org/2000/svg" xmlns:xlink="http://www.w3.org/1999/xlink">
<g id="graph0" class="graph" transform="scale(1 1) rotate(0) translate(4 230)">
<title>G</title>
<polygon fill="#fffacd" stroke="transparent" points="-4,4 -4,-230 1115.64,-230 1115.64,4 -4,4"/>
<g id="clust1" class="cluster">
<title>cluster_1</title>
<polygon fill="#fffacd" stroke="black" points="110.7,-79 110.7,-218 246.7,-218 246.7,-79 110.7,-79"/>
</g>
<g id="clust2" class="cluster">
<title>cluster_2</title>
<polygon fill="#fffacd" stroke="black" points="833.7,-79 833.7,-218 973.7,-218 973.7,-79 833.7,-79"/>
</g>
<!-- Node7_1 -->
<g id="node1" class="node">
<title>Node7_1</title>
<ellipse fill="#ff1975" stroke="#ff1975" cx="178.7" cy="-105" rx="59.59" ry="18"/>
<text text-anchor="middle" x="178.7" y="-101.3" font-family="Times,serif" font-size="14.00">कारयेथाः(7.1)</text>
</g>
<!-- Node5_1 -->
<g id="node2" class="node">
<title>Node5_1</title>
<ellipse fill="#ff1975" stroke="#ff1975" cx="183.7" cy="-192" rx="55.49" ry="18"/>
<text text-anchor="middle" x="183.7" y="-188.3" font-family="Times,serif" font-size="14.00">वरयेथाः(5.1)</text>
</g>
<!-- Node7_1&#45;&gt;Node5_1 -->
<g id="edge7" class="edge">
<title>Node7_1&#45;&gt;Node5_1</title>
<path fill="none" stroke="black" d="M180.3,-133.27C181.08,-146.58 182,-162.19 182.69,-173.82"/>
<polygon fill="black" stroke="black" points="183.79,-132.98 179.71,-123.2 176.8,-133.39 183.79,-132.98"/>
<text text-anchor="middle" x="203.2" y="-144.8" font-family="Times,serif" font-size="14.00">समुच्चितः</text>
</g>
<!-- Node10_2 -->
<g id="node3" class="node">
<title>Node10_2</title>
<ellipse fill="#40e0d0" stroke="#40e0d0" cx="903.7" cy="-105" rx="61.99" ry="18"/>
<text text-anchor="middle" x="903.7" y="-101.3" font-family="Times,serif" font-size="14.00">अयुक्तैः(10.2)</text>
</g>
<!-- Node11 -->
<g id="node4" class="node">
<title>Node11</title>
<ellipse fill="lightgrey" stroke="black" cx="903.7" cy="-192" rx="27" ry="18"/>
</g>
<!-- Node10_2&#45;&gt;Node11 -->
<g id="edge11" class="edge">
<title>Node10_2&#45;&gt;Node11</title>
<path fill="none" stroke="black" d="M903.7,-133.27C903.7,-146.58 903.7,-162.19 903.7,-173.82"/>
<polygon fill="black" stroke="black" points="907.2,-133.2 903.7,-123.2 900.2,-133.2 907.2,-133.2"/>
<text text-anchor="middle" x="926.2" y="-144.8" font-family="Times,serif" font-size="14.00">विशेषणम्</text>
</g>
<!-- Node1_1 -->
<g id="node5" class="node">
<title>Node1_1</title>
<ellipse fill="#ffff00" stroke="#ffff00" cx="50.7" cy="-18" rx="46.29" ry="18"/>
<text text-anchor="middle" x="50.7" y="-14.3" font-family="Times,serif" font-size="14.00">कर्म&#45;(1.1)</text>
</g>
<!-- Node1_2 -->
<g id="node6" class="node">
<title>Node1_2</title>
<ellipse fill="#40e0d0" stroke="#40e0d0" cx="50.7" cy="-105" rx="50.89" ry="18"/>
<text text-anchor="middle" x="50.7" y="-101.3" font-family="Times,serif" font-size="14.00">दृष्ट्या(1.2)</text>
</g>
<!-- Node1_1&#45;&gt;Node1_2 -->
<g id="edge1" class="edge">
<title>Node1_1&#45;&gt;Node1_2</title>
<path fill="none" stroke="black" d="M50.7,-46.27C50.7,-59.58 50.7,-75.19 50.7,-86.82"/>
<polygon fill="black" stroke="black" points="54.2,-46.2 50.7,-36.2 47.2,-46.2 54.2,-46.2"/>
<text text-anchor="middle" x="67.7" y="-57.8" font-family="Times,serif" font-size="14.00">समासः</text>
</g>
<!-- Node1_2&#45;&gt;Node5_1 -->
<g id="edge2" class="edge">
<title>Node1_2&#45;&gt;Node5_1</title>
<path fill="none" stroke="black" d="M82.79,-126.51C106.43,-141.62 138.06,-161.83 159.56,-175.58"/>
<polygon fill="black" stroke="black" points="84.48,-123.44 74.17,-121 80.71,-129.33 84.48,-123.44"/>
<text text-anchor="middle" x="142.2" y="-144.8" font-family="Times,serif" font-size="14.00">करणम्</text>
</g>
<!-- Node2_1 -->
<g id="node7" class="node">
<title>Node2_1</title>
<ellipse fill="#ff99ff" stroke="#ff99ff" cx="300.7" cy="-105" rx="44.39" ry="18"/>
<text text-anchor="middle" x="300.7" y="-101.3" font-family="Times,serif" font-size="14.00">अथ(2.1)</text>
</g>
<!-- Node2_1&#45;&gt;Node5_1 -->
<g id="edge3" class="edge">
<title>Node2_1&#45;&gt;Node5_1</title>
<path fill="none" stroke="black" d="M271.68,-127.08C251.13,-142.01 224,-161.72 205.33,-175.29"/>
<polygon fill="black" stroke="black" points="274.01,-129.71 280.05,-121 269.9,-124.05 274.01,-129.71"/>
<text text-anchor="middle" x="267.2" y="-144.8" font-family="Times,serif" font-size="14.00">सम्बन्धः</text>
</g>
<!-- Node3_1 -->
<g id="node8" class="node">
<title>Node3_1</title>
<ellipse fill="#93db70" stroke="#93db70" cx="416.7" cy="-105" rx="53.89" ry="18"/>
<text text-anchor="middle" x="416.7" y="-101.3" font-family="Times,serif" font-size="14.00">भृत्यान्(3.1)</text>
</g>
<!-- Node3_1&#45;&gt;Node5_1 -->
<g id="edge4" class="edge">
<title>Node3_1&#45;&gt;Node5_1</title>
<path fill="none" stroke="black" d="M374.59,-123.26C349.97,-133.18 318.22,-145.68 289.7,-156 267.46,-164.04 242.34,-172.37 222.14,-178.88"/>
<polygon fill="black" stroke="black" points="376.04,-126.45 384,-119.46 373.41,-119.96 376.04,-126.45"/>
<text text-anchor="middle" x="336.7" y="-144.8" font-family="Times,serif" font-size="14.00">कर्म</text>
</g>
<!-- Node4_1 -->
<g id="node9" class="node">
<title>Node4_1</title>
<ellipse fill="#00bfff" stroke="#00bfff" cx="532.7" cy="-105" rx="44.39" ry="18"/>
<text text-anchor="middle" x="532.7" y="-101.3" font-family="Times,serif" font-size="14.00">त्वम्(4.1)</text>
</g>
<!-- Node4_1&#45;&gt;Node5_1 -->
<g id="edge5" class="edge">
<title>Node4_1&#45;&gt;Node5_1</title>
<path fill="none" stroke="black" d="M489.83,-120C486.41,-121.04 483,-122.05 479.7,-123 392.27,-148.09 288.27,-170.24 229.72,-182.02"/>
<polygon fill="black" stroke="black" points="490.92,-123.32 499.43,-117.02 488.84,-116.64 490.92,-123.32"/>
<text text-anchor="middle" x="417.7" y="-144.8" font-family="Times,serif" font-size="14.00">कर्ता</text>
</g>
<!-- Node6_1 -->
<g id="node10" class="node">
<title>Node6_1</title>
<ellipse fill="#6fffc3" stroke="#6fffc3" cx="647.7" cy="-105" rx="52.79" ry="18"/>
<text text-anchor="middle" x="647.7" y="-101.3" font-family="Times,serif" font-size="14.00">कुरूद्वह(6.1)</text>
</g>
<!-- Node6_1&#45;&gt;Node5_1 -->
<g id="edge6" class="edge">
<title>Node6_1&#45;&gt;Node5_1</title>
<path fill="none" stroke="black" d="M598.43,-119.77C594.13,-120.89 589.84,-121.99 585.7,-123 518.13,-139.54 501.18,-143.82 432.7,-156 364.57,-168.12 285.35,-178.65 234.89,-184.91"/>
<polygon fill="black" stroke="black" points="599.66,-123.07 608.42,-117.12 597.86,-116.3 599.66,-123.07"/>
<text text-anchor="middle" x="529.7" y="-144.8" font-family="Times,serif" font-size="14.00">सम्बोध्यः</text>
</g>
<!-- Node8_1 -->
<g id="node11" class="node">
<title>Node8_1</title>
<ellipse fill="#ff99ff" stroke="#ff99ff" cx="755.7" cy="-105" rx="37.89" ry="18"/>
<text text-anchor="middle" x="755.7" y="-101.3" font-family="Times,serif" font-size="14.00">च(8.1)</text>
</g>
<!-- Node8_1&#45;&gt;Node5_1 -->
<g id="edge8" class="edge">
<title>Node8_1&#45;&gt;Node5_1</title>
<path fill="none" stroke="black" d="M718.12,-120.38C715.29,-121.32 712.46,-122.2 709.7,-123 642.04,-142.59 624.32,-145.34 554.7,-156 442.62,-173.16 310.13,-183.23 237.69,-187.87"/>
<polygon fill="black" stroke="black" points="719.38,-123.65 727.69,-117.08 717.1,-117.04 719.38,-123.65"/>
<text text-anchor="middle" x="675.7" y="-144.8" font-family="Times,serif" font-size="14.00">समुच्चयद्योतकः</text>
</g>
<!-- Node9_1 -->
<g id="node12" class="node">
<title>Node9_1</title>
<ellipse fill="#00bfff" stroke="#00bfff" cx="178.7" cy="-18" rx="54.69" ry="18"/>
<text text-anchor="middle" x="178.7" y="-14.3" font-family="Times,serif" font-size="14.00">कर्माणि(9.1)</text>
</g>
<!-- Node9_1&#45;&gt;Node7_1 -->
<g id="edge9" class="edge">
<title>Node9_1&#45;&gt;Node7_1</title>
<path fill="none" stroke="black" d="M178.7,-46.27C178.7,-59.58 178.7,-75.19 178.7,-86.82"/>
<polygon fill="black" stroke="black" points="182.2,-46.2 178.7,-36.2 175.2,-46.2 182.2,-46.2"/>
<text text-anchor="middle" x="187.7" y="-57.8" font-family="Times,serif" font-size="14.00">कर्म</text>
</g>
<!-- Node10_1 -->
<g id="node13" class="node">
<title>Node10_1</title>
<ellipse fill="#ffff00" stroke="#ffff00" cx="903.7" cy="-18" rx="55.79" ry="18"/>
<text text-anchor="middle" x="903.7" y="-14.3" font-family="Times,serif" font-size="14.00">युक्त&#45;(10.1)</text>
</g>
<!-- Node10_1&#45;&gt;Node10_2 -->
<g id="edge10" class="edge">
<title>Node10_1&#45;&gt;Node10_2</title>
<path fill="none" stroke="black" d="M903.7,-46.27C903.7,-59.58 903.7,-75.19 903.7,-86.82"/>
<polygon fill="black" stroke="black" points="907.2,-46.2 903.7,-36.2 900.2,-46.2 907.2,-46.2"/>
<text text-anchor="middle" x="920.7" y="-57.8" font-family="Times,serif" font-size="14.00">समासः</text>
</g>
<!-- Node11_1 -->
<g id="node14" class="node">
<title>Node11_1</title>
<ellipse fill="#40e0d0" stroke="#40e0d0" cx="1044.7" cy="-18" rx="66.89" ry="18"/>
<text text-anchor="middle" x="1044.7" y="-14.3" font-family="Times,serif" font-size="14.00">अधिष्ठितैः(11.1)</text>
</g>
<!-- Node7 -->
<g id="node15" class="node">
<title>Node7</title>
<ellipse fill="lightgrey" stroke="black" cx="1044.7" cy="-105" rx="27" ry="18"/>
</g>
<!-- Node11_1&#45;&gt;Node7 -->
<g id="edge12" class="edge">
<title>Node11_1&#45;&gt;Node7</title>
<path fill="none" stroke="black" d="M1044.7,-46.27C1044.7,-59.58 1044.7,-75.19 1044.7,-86.82"/>
<polygon fill="black" stroke="black" points="1048.2,-46.2 1044.7,-36.2 1041.2,-46.2 1048.2,-46.2"/>
<text text-anchor="middle" x="1061.2" y="-57.8" font-family="Times,serif" font-size="14.00">करणम्</text>
</g>
</g>
</svg>
