<?xml version="1.0" encoding="UTF-8" standalone="no"?>
<!DOCTYPE svg PUBLIC "-//W3C//DTD SVG 1.1//EN"
 "http://www.w3.org/Graphics/SVG/1.1/DTD/svg11.dtd">
<!-- Generated by graphviz version 2.43.0 (0)
 -->
<!-- Title: G Pages: 1 -->
<svg width="831pt" height="392pt"
 viewBox="0.00 0.00 831.05 392.00" xmlns="http://www.w3.org/2000/svg" xmlns:xlink="http://www.w3.org/1999/xlink">
<g id="graph0" class="graph" transform="scale(1 1) rotate(0) translate(4 388)">
<title>G</title>
<polygon fill="#fffacd" stroke="transparent" points="-4,4 -4,-388 827.05,-388 827.05,4 -4,4"/>
<!-- Node1_1 -->
<g id="node1" class="node">
<title>Node1_1</title>
<ellipse fill="#93db70" stroke="#93db70" cx="749.05" cy="-192" rx="61.99" ry="18"/>
<text text-anchor="middle" x="749.05" y="-188.3" font-family="Times,serif" font-size="14.00">परिमाणम्(1.1)</text>
</g>
<!-- Node2_1 -->
<g id="node2" class="node">
<title>Node2_1</title>
<ellipse fill="#ff99ff" stroke="#ff99ff" cx="676.05" cy="-279" rx="55.79" ry="18"/>
<text text-anchor="middle" x="676.05" y="-275.3" font-family="Times,serif" font-size="14.00">विदित्वा(2.1)</text>
</g>
<!-- Node1_1&#45;&gt;Node2_1 -->
<g id="edge1" class="edge">
<title>Node1_1&#45;&gt;Node2_1</title>
<path fill="none" stroke="black" d="M727.86,-217.67C715.75,-231.77 700.89,-249.08 690.19,-261.53"/>
<polygon fill="black" stroke="black" points="730.76,-219.66 734.62,-209.79 725.45,-215.1 730.76,-219.66"/>
<text text-anchor="middle" x="725.05" y="-231.8" font-family="Times,serif" font-size="14.00">कर्म</text>
</g>
<!-- Node7_1 -->
<g id="node3" class="node">
<title>Node7_1</title>
<ellipse fill="#ff1975" stroke="#ff1975" cx="328.05" cy="-366" rx="55.79" ry="18"/>
<text text-anchor="middle" x="328.05" y="-362.3" font-family="Times,serif" font-size="14.00">प्रणयेयुः(7.1)</text>
</g>
<!-- Node2_1&#45;&gt;Node7_1 -->
<g id="edge2" class="edge">
<title>Node2_1&#45;&gt;Node7_1</title>
<path fill="none" stroke="black" d="M631.39,-296.67C601.6,-307.32 561.36,-320.81 525.05,-330 475.88,-342.44 418.72,-352.07 378.67,-358.06"/>
<polygon fill="black" stroke="black" points="632.86,-299.86 641.08,-293.17 630.48,-293.27 632.86,-299.86"/>
<text text-anchor="middle" x="596.55" y="-318.8" font-family="Times,serif" font-size="14.00">पूर्वकालः</text>
</g>
<!-- Node3_1 -->
<g id="node4" class="node">
<title>Node3_1</title>
<ellipse fill="#ff99ff" stroke="#ff99ff" cx="632.05" cy="-192" rx="37.89" ry="18"/>
<text text-anchor="middle" x="632.05" y="-188.3" font-family="Times,serif" font-size="14.00">च(3.1)</text>
</g>
<!-- Node3_1&#45;&gt;Node2_1 -->
<g id="edge3" class="edge">
<title>Node3_1&#45;&gt;Node2_1</title>
<path fill="none" stroke="black" d="M645.37,-218.74C652.45,-232.42 660.96,-248.86 667.22,-260.95"/>
<polygon fill="black" stroke="black" points="648.44,-217.06 640.74,-209.79 642.23,-220.28 648.44,-217.06"/>
<text text-anchor="middle" x="674.55" y="-231.8" font-family="Times,serif" font-size="14.00">सम्बन्धः</text>
</g>
<!-- Node4_1 -->
<g id="node5" class="node">
<title>Node4_1</title>
<ellipse fill="#93db70" stroke="#93db70" cx="50.05" cy="-279" rx="50.09" ry="18"/>
<text text-anchor="middle" x="50.05" y="-275.3" font-family="Times,serif" font-size="14.00">दण्डम्(4.1)</text>
</g>
<!-- Node4_1&#45;&gt;Node7_1 -->
<g id="edge4" class="edge">
<title>Node4_1&#45;&gt;Node7_1</title>
<path fill="none" stroke="black" d="M96.61,-294.24C150.46,-310.7 238.17,-337.52 288.73,-352.98"/>
<polygon fill="black" stroke="black" points="97.55,-290.86 86.96,-291.29 95.5,-297.56 97.55,-290.86"/>
<text text-anchor="middle" x="215.05" y="-318.8" font-family="Times,serif" font-size="14.00">कर्म</text>
</g>
<!-- Node5_1 -->
<g id="node6" class="node">
<title>Node5_1</title>
<ellipse fill="#c6e2eb" stroke="#c6e2eb" cx="749.05" cy="-105" rx="55.49" ry="18"/>
<text text-anchor="middle" x="749.05" y="-101.3" font-family="Times,serif" font-size="14.00">दण्ड्येषु(5.1)</text>
</g>
<!-- Node5_1&#45;&gt;Node1_1 -->
<g id="edge5" class="edge">
<title>Node5_1&#45;&gt;Node1_1</title>
<path fill="none" stroke="black" d="M749.05,-133.27C749.05,-146.58 749.05,-162.19 749.05,-173.82"/>
<polygon fill="black" stroke="black" points="752.55,-133.2 749.05,-123.2 745.55,-133.2 752.55,-133.2"/>
<text text-anchor="middle" x="786.05" y="-144.8" font-family="Times,serif" font-size="14.00">विषयाधिकरणम्</text>
</g>
<!-- Node6_1 -->
<g id="node7" class="node">
<title>Node6_1</title>
<ellipse fill="#6fffc3" stroke="#6fffc3" cx="167.05" cy="-279" rx="48.99" ry="18"/>
<text text-anchor="middle" x="167.05" y="-275.3" font-family="Times,serif" font-size="14.00">भारत(6.1)</text>
</g>
<!-- Node6_1&#45;&gt;Node7_1 -->
<g id="edge6" class="edge">
<title>Node6_1&#45;&gt;Node7_1</title>
<path fill="none" stroke="black" d="M203.09,-299.03C232.45,-314.53 273.31,-336.1 300.2,-350.3"/>
<polygon fill="black" stroke="black" points="204.47,-295.8 193.99,-294.23 201.2,-301.99 204.47,-295.8"/>
<text text-anchor="middle" x="273.05" y="-318.8" font-family="Times,serif" font-size="14.00">अभेदः</text>
</g>
<!-- Node9_1 -->
<g id="node8" class="node">
<title>Node9_1</title>
<ellipse fill="#00bfff" stroke="#00bfff" cx="286.05" cy="-279" rx="51.99" ry="18"/>
<text text-anchor="middle" x="286.05" y="-275.3" font-family="Times,serif" font-size="14.00">पुरुषाः(9.1)</text>
</g>
<!-- Node9_1&#45;&gt;Node7_1 -->
<g id="edge9" class="edge">
<title>Node9_1&#45;&gt;Node7_1</title>
<path fill="none" stroke="black" d="M298.96,-306.13C305.68,-319.73 313.7,-335.98 319.62,-347.95"/>
<polygon fill="black" stroke="black" points="301.91,-304.21 294.34,-296.79 295.64,-307.31 301.91,-304.21"/>
<text text-anchor="middle" x="321.05" y="-318.8" font-family="Times,serif" font-size="14.00">कर्ता</text>
</g>
<!-- Node8_1 -->
<g id="node9" class="node">
<title>Node8_1</title>
<ellipse fill="#ffff00" stroke="#ffff00" cx="408.05" cy="-192" rx="48.19" ry="18"/>
<text text-anchor="middle" x="408.05" y="-188.3" font-family="Times,serif" font-size="14.00">यथा&#45;(8.1)</text>
</g>
<!-- Node8_2 -->
<g id="node10" class="node">
<title>Node8_2</title>
<ellipse fill="#ff99ff" stroke="#ff99ff" cx="408.05" cy="-279" rx="51.99" ry="18"/>
<text text-anchor="middle" x="408.05" y="-275.3" font-family="Times,serif" font-size="14.00">न्यायम्(8.2)</text>
</g>
<!-- Node8_1&#45;&gt;Node8_2 -->
<g id="edge7" class="edge">
<title>Node8_1&#45;&gt;Node8_2</title>
<path fill="none" stroke="black" d="M408.05,-220.27C408.05,-233.58 408.05,-249.19 408.05,-260.82"/>
<polygon fill="black" stroke="black" points="411.55,-220.2 408.05,-210.2 404.55,-220.2 411.55,-220.2"/>
<text text-anchor="middle" x="425.05" y="-231.8" font-family="Times,serif" font-size="14.00">समासः</text>
</g>
<!-- Node8_2&#45;&gt;Node7_1 -->
<g id="edge8" class="edge">
<title>Node8_2&#45;&gt;Node7_1</title>
<path fill="none" stroke="black" d="M385.54,-303.91C372.09,-318.2 355.36,-335.98 343.42,-348.66"/>
<polygon fill="black" stroke="black" points="388.32,-306.07 392.62,-296.39 383.22,-301.27 388.32,-306.07"/>
<text text-anchor="middle" x="408.05" y="-318.8" font-family="Times,serif" font-size="14.00">क्रियाविशेषणम्</text>
</g>
<!-- Node10_1 -->
<g id="node11" class="node">
<title>Node10_1</title>
<ellipse fill="#87ceeb" stroke="#87ceeb" cx="749.05" cy="-18" rx="42.79" ry="18"/>
<text text-anchor="middle" x="749.05" y="-14.3" font-family="Times,serif" font-size="14.00">ते(10.1)</text>
</g>
<!-- Node10_1&#45;&gt;Node5_1 -->
<g id="edge10" class="edge">
<title>Node10_1&#45;&gt;Node5_1</title>
<path fill="none" stroke="black" d="M749.05,-46.27C749.05,-59.58 749.05,-75.19 749.05,-86.82"/>
<polygon fill="black" stroke="black" points="752.55,-46.2 749.05,-36.2 745.55,-46.2 752.55,-46.2"/>
<text text-anchor="middle" x="776.55" y="-57.8" font-family="Times,serif" font-size="14.00">षष्ठीसम्बन्धः</text>
</g>
<!-- Node11_1 -->
<g id="node12" class="node">
<title>Node11_1</title>
<ellipse fill="#6fffc3" stroke="#6fffc3" cx="540.05" cy="-279" rx="61.99" ry="18"/>
<text text-anchor="middle" x="540.05" y="-275.3" font-family="Times,serif" font-size="14.00">युधिष्ठिर(11.1)</text>
</g>
<!-- Node11_1&#45;&gt;Node7_1 -->
<g id="edge11" class="edge">
<title>Node11_1&#45;&gt;Node7_1</title>
<path fill="none" stroke="black" d="M505.61,-300.73C488.42,-310.49 467.08,-321.77 447.05,-330 422.64,-340.02 394.35,-348.47 371.47,-354.55"/>
<polygon fill="black" stroke="black" points="507.78,-303.52 514.69,-295.49 504.28,-297.45 507.78,-303.52"/>
<text text-anchor="middle" x="500.05" y="-318.8" font-family="Times,serif" font-size="14.00">सम्बोध्यः</text>
</g>
</g>
</svg>
