<?xml version="1.0" encoding="UTF-8" standalone="no"?>
<!DOCTYPE svg PUBLIC "-//W3C//DTD SVG 1.1//EN"
 "http://www.w3.org/Graphics/SVG/1.1/DTD/svg11.dtd">
<!-- Generated by graphviz version 2.43.0 (0)
 -->
<!-- Title: G Pages: 1 -->
<svg width="989pt" height="321pt"
 viewBox="0.00 0.00 988.70 321.00" xmlns="http://www.w3.org/2000/svg" xmlns:xlink="http://www.w3.org/1999/xlink">
<g id="graph0" class="graph" transform="scale(1 1) rotate(0) translate(4 317)">
<title>G</title>
<polygon fill="#fffacd" stroke="transparent" points="-4,4 -4,-317 984.7,-317 984.7,4 -4,4"/>
<g id="clust1" class="cluster">
<title>cluster_1</title>
<polygon fill="#fffacd" stroke="black" points="8,-8 8,-147 150,-147 150,-8 8,-8"/>
</g>
<!-- Node10_1 -->
<g id="node1" class="node">
<title>Node10_1</title>
<ellipse fill="#87ceeb" stroke="#87ceeb" cx="79" cy="-34" rx="63.09" ry="18"/>
<text text-anchor="middle" x="79" y="-30.3" font-family="Times,serif" font-size="14.00">चराणाम्(10.1)</text>
</g>
<!-- Node8_1 -->
<g id="node2" class="node">
<title>Node8_1</title>
<ellipse fill="#87ceeb" stroke="#87ceeb" cx="86" cy="-121" rx="55.79" ry="18"/>
<text text-anchor="middle" x="86" y="-117.3" font-family="Times,serif" font-size="14.00">दूतानाम्(8.1)</text>
</g>
<!-- Node10_1&#45;&gt;Node8_1 -->
<g id="edge10" class="edge">
<title>Node10_1&#45;&gt;Node8_1</title>
<path fill="none" stroke="black" d="M81.25,-62.27C82.34,-75.58 83.63,-91.19 84.59,-102.82"/>
<polygon fill="black" stroke="black" points="84.73,-61.88 80.42,-52.2 77.75,-62.45 84.73,-61.88"/>
<text text-anchor="middle" x="105.5" y="-73.8" font-family="Times,serif" font-size="14.00">समुच्चितः</text>
</g>
<!-- Node16_1 -->
<g id="node11" class="node">
<title>Node16_1</title>
<ellipse fill="#b0e2ff" stroke="#b0e2ff" cx="86" cy="-208" rx="67.69" ry="18"/>
<text text-anchor="middle" x="86" y="-204.3" font-family="Times,serif" font-size="14.00">(दर्शनाय)(16.1)</text>
</g>
<!-- Node8_1&#45;&gt;Node16_1 -->
<g id="edge8" class="edge">
<title>Node8_1&#45;&gt;Node16_1</title>
<path fill="none" stroke="black" d="M86,-149.27C86,-162.58 86,-178.19 86,-189.82"/>
<polygon fill="black" stroke="black" points="89.5,-149.2 86,-139.2 82.5,-149.2 89.5,-149.2"/>
<text text-anchor="middle" x="113.5" y="-160.8" font-family="Times,serif" font-size="14.00">षष्ठीसम्बन्धः</text>
</g>
<!-- Node1_1 -->
<g id="node3" class="node">
<title>Node1_1</title>
<ellipse fill="#ff1975" stroke="#ff1975" cx="644" cy="-208" rx="55.79" ry="18"/>
<text text-anchor="middle" x="644" y="-204.3" font-family="Times,serif" font-size="14.00">पश्येथाः(1.1)</text>
</g>
<!-- Node6_1 -->
<g id="node4" class="node">
<title>Node6_1</title>
<ellipse fill="#00bfff" stroke="#00bfff" cx="359" cy="-121" rx="44.39" ry="18"/>
<text text-anchor="middle" x="359" y="-117.3" font-family="Times,serif" font-size="14.00">त्वम्(6.1)</text>
</g>
<!-- Node6_1&#45;&gt;Node1_1 -->
<g id="edge5" class="edge">
<title>Node6_1&#45;&gt;Node1_1</title>
<path fill="none" stroke="black" d="M393.55,-140.57C414.34,-151.08 441.61,-163.74 467,-172 508.56,-185.51 557.38,-194.69 593.21,-200.25"/>
<polygon fill="black" stroke="black" points="394.98,-137.37 384.49,-135.91 391.78,-143.6 394.98,-137.37"/>
<text text-anchor="middle" x="478" y="-160.8" font-family="Times,serif" font-size="14.00">कर्ता</text>
</g>
<!-- Node2_1 -->
<g id="node5" class="node">
<title>Node2_1</title>
<ellipse fill="#ff99ff" stroke="#ff99ff" cx="396" cy="-34" rx="37.89" ry="18"/>
<text text-anchor="middle" x="396" y="-30.3" font-family="Times,serif" font-size="14.00">च(2.1)</text>
</g>
<!-- Node7_2 -->
<g id="node6" class="node">
<title>Node7_2</title>
<ellipse fill="#00bfff" stroke="#00bfff" cx="473" cy="-121" rx="51.19" ry="18"/>
<text text-anchor="middle" x="473" y="-117.3" font-family="Times,serif" font-size="14.00">हर्षयन्(7.2)</text>
</g>
<!-- Node2_1&#45;&gt;Node7_2 -->
<g id="edge1" class="edge">
<title>Node2_1&#45;&gt;Node7_2</title>
<path fill="none" stroke="black" d="M417.29,-58.5C430.24,-72.8 446.46,-90.71 458.06,-103.5"/>
<polygon fill="black" stroke="black" points="419.79,-56.05 410.48,-50.99 414.6,-60.75 419.79,-56.05"/>
<text text-anchor="middle" x="458.5" y="-73.8" font-family="Times,serif" font-size="14.00">सम्बन्धः</text>
</g>
<!-- Node7_2&#45;&gt;Node1_1 -->
<g id="edge7" class="edge">
<title>Node7_2&#45;&gt;Node1_1</title>
<path fill="none" stroke="black" d="M486.29,-148.11C491.91,-156.85 499.21,-165.91 508,-172 532.35,-188.87 564.22,-197.61 590.99,-202.14"/>
<polygon fill="black" stroke="black" points="489.16,-146.07 481.05,-139.25 483.13,-149.64 489.16,-146.07"/>
<text text-anchor="middle" x="552" y="-160.8" font-family="Times,serif" font-size="14.00">वर्तमानसमानकालः</text>
</g>
<!-- Node3_1 -->
<g id="node7" class="node">
<title>Node3_1</title>
<ellipse fill="#ff99ff" stroke="#ff99ff" cx="587" cy="-121" rx="44.39" ry="18"/>
<text text-anchor="middle" x="587" y="-117.3" font-family="Times,serif" font-size="14.00">ततः(3.1)</text>
</g>
<!-- Node3_1&#45;&gt;Node1_1 -->
<g id="edge2" class="edge">
<title>Node3_1&#45;&gt;Node1_1</title>
<path fill="none" stroke="black" d="M595.87,-148.61C599.09,-156.48 603.15,-164.89 608,-172 612.62,-178.77 618.7,-185.29 624.54,-190.82"/>
<polygon fill="black" stroke="black" points="599.06,-147.17 592.24,-139.07 592.52,-149.66 599.06,-147.17"/>
<text text-anchor="middle" x="643.5" y="-160.8" font-family="Times,serif" font-size="14.00">कालाधिकरणम्</text>
</g>
<!-- Node4_1 -->
<g id="node8" class="node">
<title>Node4_1</title>
<ellipse fill="#93db70" stroke="#93db70" cx="701" cy="-121" rx="51.99" ry="18"/>
<text text-anchor="middle" x="701" y="-117.3" font-family="Times,serif" font-size="14.00">योधान्(4.1)</text>
</g>
<!-- Node4_1&#45;&gt;Node1_1 -->
<g id="edge3" class="edge">
<title>Node4_1&#45;&gt;Node1_1</title>
<path fill="none" stroke="black" d="M691.48,-148.56C688.1,-156.43 683.89,-164.85 679,-172 674.44,-178.67 668.51,-185.16 662.83,-190.7"/>
<polygon fill="black" stroke="black" points="694.83,-149.6 695.32,-139.02 688.34,-146.99 694.83,-149.6"/>
<text text-anchor="middle" x="696" y="-160.8" font-family="Times,serif" font-size="14.00">कर्म</text>
</g>
<!-- Node5_1 -->
<g id="node9" class="node">
<title>Node5_1</title>
<ellipse fill="#ff99ff" stroke="#ff99ff" cx="816" cy="-121" rx="44.69" ry="18"/>
<text text-anchor="middle" x="816" y="-117.3" font-family="Times,serif" font-size="14.00">सदा(5.1)</text>
</g>
<!-- Node5_1&#45;&gt;Node1_1 -->
<g id="edge4" class="edge">
<title>Node5_1&#45;&gt;Node1_1</title>
<path fill="none" stroke="black" d="M779.37,-140.1C747.67,-155.77 702.43,-178.12 673.14,-192.6"/>
<polygon fill="black" stroke="black" points="781.33,-143.04 788.75,-135.47 778.23,-136.76 781.33,-143.04"/>
<text text-anchor="middle" x="775.5" y="-160.8" font-family="Times,serif" font-size="14.00">कालाधिकरणम्</text>
</g>
<!-- Node7_1 -->
<g id="node10" class="node">
<title>Node7_1</title>
<ellipse fill="#ffff00" stroke="#ffff00" cx="498" cy="-34" rx="46.29" ry="18"/>
<text text-anchor="middle" x="498" y="-30.3" font-family="Times,serif" font-size="14.00">परि&#45;(7.1)</text>
</g>
<!-- Node7_1&#45;&gt;Node7_2 -->
<g id="edge6" class="edge">
<title>Node7_1&#45;&gt;Node7_2</title>
<path fill="none" stroke="black" d="M490.1,-61.87C486.16,-75.27 481.51,-91.08 478.05,-102.82"/>
<polygon fill="black" stroke="black" points="493.48,-62.78 492.94,-52.2 486.76,-60.81 493.48,-62.78"/>
<text text-anchor="middle" x="504" y="-73.8" font-family="Times,serif" font-size="14.00">समासः</text>
</g>
<!-- Node15_1 -->
<g id="node15" class="node">
<title>Node15_1</title>
<ellipse fill="#ff1975" stroke="#ff1975" cx="157" cy="-295" rx="53.09" ry="18"/>
<text text-anchor="middle" x="157" y="-291.3" font-family="Times,serif" font-size="14.00">भवेत्(15.1)</text>
</g>
<!-- Node16_1&#45;&gt;Node15_1 -->
<g id="edge15" class="edge">
<title>Node16_1&#45;&gt;Node15_1</title>
<path fill="none" stroke="black" d="M106.6,-233.67C118.39,-247.77 132.84,-265.08 143.24,-277.53"/>
<polygon fill="black" stroke="black" points="109.12,-231.22 100.03,-225.79 103.75,-235.71 109.12,-231.22"/>
<text text-anchor="middle" x="158" y="-247.8" font-family="Times,serif" font-size="14.00">तादर्थ्ये&#45;चतुर्थी</text>
</g>
<!-- Node9_1 -->
<g id="node12" class="node">
<title>Node9_1</title>
<ellipse fill="#ff99ff" stroke="#ff99ff" cx="198" cy="-34" rx="37.89" ry="18"/>
<text text-anchor="middle" x="198" y="-30.3" font-family="Times,serif" font-size="14.00">च(9.1)</text>
</g>
<!-- Node9_1&#45;&gt;Node8_1 -->
<g id="edge9" class="edge">
<title>Node9_1&#45;&gt;Node8_1</title>
<path fill="none" stroke="black" d="M170.76,-55.67C151.09,-70.6 124.93,-90.45 106.9,-104.14"/>
<polygon fill="black" stroke="black" points="172.9,-58.45 178.75,-49.61 168.66,-52.87 172.9,-58.45"/>
<text text-anchor="middle" x="184" y="-73.8" font-family="Times,serif" font-size="14.00">समुच्चयद्योतकः</text>
</g>
<!-- Node11_1 -->
<g id="node13" class="node">
<title>Node11_1</title>
<ellipse fill="#ff99ff" stroke="#ff99ff" cx="297" cy="-34" rx="43.59" ry="18"/>
<text text-anchor="middle" x="297" y="-30.3" font-family="Times,serif" font-size="14.00">च(11.1)</text>
</g>
<!-- Node11_1&#45;&gt;Node8_1 -->
<g id="edge11" class="edge">
<title>Node11_1&#45;&gt;Node8_1</title>
<path fill="none" stroke="black" d="M269.98,-56.56C256.52,-66.43 239.59,-77.55 223,-85 194.78,-97.67 161.16,-106.35 134.28,-111.89"/>
<polygon fill="black" stroke="black" points="272.41,-59.12 278.3,-50.32 268.2,-53.53 272.41,-59.12"/>
<text text-anchor="middle" x="284" y="-73.8" font-family="Times,serif" font-size="14.00">समुच्चयद्योतकः</text>
</g>
<!-- Node12_1 -->
<g id="node14" class="node">
<title>Node12_1</title>
<ellipse fill="#00bfff" stroke="#00bfff" cx="229" cy="-208" rx="57.39" ry="18"/>
<text text-anchor="middle" x="229" y="-204.3" font-family="Times,serif" font-size="14.00">प्रदोषः(12.1)</text>
</g>
<!-- Node12_1&#45;&gt;Node15_1 -->
<g id="edge12" class="edge">
<title>Node12_1&#45;&gt;Node15_1</title>
<path fill="none" stroke="black" d="M212.15,-234.2C206.37,-242.35 199.67,-251.27 193,-259 187.42,-265.47 180.84,-272.11 174.84,-277.85"/>
<polygon fill="black" stroke="black" points="215.19,-235.97 218.02,-225.76 209.44,-231.97 215.19,-235.97"/>
<text text-anchor="middle" x="240.5" y="-247.8" font-family="Times,serif" font-size="14.00">कालाधिकरणम्</text>
</g>
<!-- Node13_1 -->
<g id="node16" class="node">
<title>Node13_1</title>
<ellipse fill="#b0e2ff" stroke="#b0e2ff" cx="229" cy="-121" rx="42.79" ry="18"/>
<text text-anchor="middle" x="229" y="-117.3" font-family="Times,serif" font-size="14.00">ते(13.1)</text>
</g>
<!-- Node13_1&#45;&gt;Node12_1 -->
<g id="edge13" class="edge">
<title>Node13_1&#45;&gt;Node12_1</title>
<path fill="none" stroke="black" d="M229,-149.27C229,-162.58 229,-178.19 229,-189.82"/>
<polygon fill="black" stroke="black" points="232.5,-149.2 229,-139.2 225.5,-149.2 232.5,-149.2"/>
<text text-anchor="middle" x="256.5" y="-160.8" font-family="Times,serif" font-size="14.00">षष्ठीसम्बन्धः</text>
</g>
<!-- Node14_1 -->
<g id="node17" class="node">
<title>Node14_1</title>
<ellipse fill="#ff99ff" stroke="#ff99ff" cx="930" cy="-121" rx="50.89" ry="18"/>
<text text-anchor="middle" x="930" y="-117.3" font-family="Times,serif" font-size="14.00">सदा(14.1)</text>
</g>
<!-- Node14_1&#45;&gt;Node1_1 -->
<g id="edge14" class="edge">
<title>Node14_1&#45;&gt;Node1_1</title>
<path fill="none" stroke="black" d="M892.75,-140.55C870.6,-150.98 841.7,-163.56 815,-172 774.98,-184.64 728.21,-193.85 693.71,-199.64"/>
<polygon fill="black" stroke="black" points="894.29,-143.7 901.81,-136.23 891.27,-137.38 894.29,-143.7"/>
<text text-anchor="middle" x="888.5" y="-160.8" font-family="Times,serif" font-size="14.00">कालाधिकरणम्</text>
</g>
</g>
</svg>
