<?xml version="1.0" encoding="UTF-8" standalone="no"?>
<!DOCTYPE svg PUBLIC "-//W3C//DTD SVG 1.1//EN"
 "http://www.w3.org/Graphics/SVG/1.1/DTD/svg11.dtd">
<!-- Generated by graphviz version 2.43.0 (0)
 -->
<!-- Title: G Pages: 1 -->
<svg width="674pt" height="392pt"
 viewBox="0.00 0.00 673.84 392.00" xmlns="http://www.w3.org/2000/svg" xmlns:xlink="http://www.w3.org/1999/xlink">
<g id="graph0" class="graph" transform="scale(1 1) rotate(0) translate(4 388)">
<title>G</title>
<polygon fill="#fffacd" stroke="transparent" points="-4,4 -4,-388 669.84,-388 669.84,4 -4,4"/>
<g id="clust1" class="cluster">
<title>cluster_1</title>
<polygon fill="#fffacd" stroke="black" points="509.84,-166 509.84,-305 657.84,-305 657.84,-166 509.84,-166"/>
</g>
<!-- Node3_2 -->
<g id="node1" class="node">
<title>Node3_2</title>
<ellipse fill="#b4ffb4" stroke="#b4ffb4" cx="583.84" cy="-192" rx="66.09" ry="18"/>
<text text-anchor="middle" x="583.84" y="-188.3" font-family="Times,serif" font-size="14.00">सङ्ग्रहणात्(3.2)</text>
</g>
<!-- Node7_2 -->
<g id="node2" class="node">
<title>Node7_2</title>
<ellipse fill="#b4ffb4" stroke="#b4ffb4" cx="581.84" cy="-279" rx="62.29" ry="18"/>
<text text-anchor="middle" x="581.84" y="-275.3" font-family="Times,serif" font-size="14.00">निग्रहणात्(7.2)</text>
</g>
<!-- Node3_2&#45;&gt;Node7_2 -->
<g id="edge3" class="edge">
<title>Node3_2&#45;&gt;Node7_2</title>
<path fill="none" stroke="black" d="M583.2,-220.27C582.89,-233.58 582.52,-249.19 582.25,-260.82"/>
<polygon fill="black" stroke="black" points="586.7,-220.28 583.44,-210.2 579.71,-220.12 586.7,-220.28"/>
<text text-anchor="middle" x="605.34" y="-231.8" font-family="Times,serif" font-size="14.00">समुच्चितः</text>
</g>
<!-- Node11_1 -->
<g id="node5" class="node">
<title>Node11_1</title>
<ellipse fill="#ff1975" stroke="#ff1975" cx="313.84" cy="-366" rx="61.99" ry="18"/>
<text text-anchor="middle" x="313.84" y="-362.3" font-family="Times,serif" font-size="14.00">गच्छेथाः(11.1)</text>
</g>
<!-- Node7_2&#45;&gt;Node11_1 -->
<g id="edge7" class="edge">
<title>Node7_2&#45;&gt;Node11_1</title>
<path fill="none" stroke="black" d="M534.67,-296.66C526.41,-299.5 517.89,-302.37 509.84,-305 456.9,-322.29 395.44,-340.86 355.66,-352.69"/>
<polygon fill="black" stroke="black" points="535.89,-299.94 544.19,-293.37 533.6,-293.33 535.89,-299.94"/>
<text text-anchor="middle" x="486.34" y="-318.8" font-family="Times,serif" font-size="14.00">हेतु</text>
</g>
<!-- Node1_1 -->
<g id="node3" class="node">
<title>Node1_1</title>
<ellipse fill="#87ceeb" stroke="#87ceeb" cx="57.84" cy="-192" rx="57.69" ry="18"/>
<text text-anchor="middle" x="57.84" y="-188.3" font-family="Times,serif" font-size="14.00">गणानाम्(1.1)</text>
</g>
<!-- Node2_1 -->
<g id="node4" class="node">
<title>Node2_1</title>
<ellipse fill="#c6e2eb" stroke="#c6e2eb" cx="57.84" cy="-279" rx="47.39" ry="18"/>
<text text-anchor="middle" x="57.84" y="-275.3" font-family="Times,serif" font-size="14.00">भेदने(2.1)</text>
</g>
<!-- Node1_1&#45;&gt;Node2_1 -->
<g id="edge1" class="edge">
<title>Node1_1&#45;&gt;Node2_1</title>
<path fill="none" stroke="black" d="M57.84,-220.27C57.84,-233.58 57.84,-249.19 57.84,-260.82"/>
<polygon fill="black" stroke="black" points="61.34,-220.2 57.84,-210.2 54.34,-220.2 61.34,-220.2"/>
<text text-anchor="middle" x="68.84" y="-231.8" font-family="Times,serif" font-size="14.00">कर्ता</text>
</g>
<!-- Node2_1&#45;&gt;Node11_1 -->
<g id="edge2" class="edge">
<title>Node2_1&#45;&gt;Node11_1</title>
<path fill="none" stroke="black" d="M96.64,-297.36C102.71,-299.98 108.93,-302.6 114.84,-305 144.3,-316.94 151.56,-320.36 181.84,-330 210.08,-338.99 242.22,-347.54 267.71,-353.95"/>
<polygon fill="black" stroke="black" points="97.86,-294.08 87.29,-293.29 95.07,-300.49 97.86,-294.08"/>
<text text-anchor="middle" x="209.34" y="-318.8" font-family="Times,serif" font-size="14.00">अधिकरणम्</text>
</g>
<!-- Node4_1 -->
<g id="node6" class="node">
<title>Node4_1</title>
<ellipse fill="#ff99ff" stroke="#ff99ff" cx="583.84" cy="-105" rx="37.89" ry="18"/>
<text text-anchor="middle" x="583.84" y="-101.3" font-family="Times,serif" font-size="14.00">च(4.1)</text>
</g>
<!-- Node4_1&#45;&gt;Node3_2 -->
<g id="edge4" class="edge">
<title>Node4_1&#45;&gt;Node3_2</title>
<path fill="none" stroke="black" d="M583.84,-133.27C583.84,-146.58 583.84,-162.19 583.84,-173.82"/>
<polygon fill="black" stroke="black" points="587.34,-133.2 583.84,-123.2 580.34,-133.2 587.34,-133.2"/>
<text text-anchor="middle" x="602.34" y="-144.8" font-family="Times,serif" font-size="14.00">सम्बन्धः</text>
</g>
<!-- Node5_1 -->
<g id="node7" class="node">
<title>Node5_1</title>
<ellipse fill="#ff99ff" stroke="#ff99ff" cx="583.84" cy="-18" rx="41.69" ry="18"/>
<text text-anchor="middle" x="583.84" y="-14.3" font-family="Times,serif" font-size="14.00">एव(5.1)</text>
</g>
<!-- Node5_1&#45;&gt;Node4_1 -->
<g id="edge5" class="edge">
<title>Node5_1&#45;&gt;Node4_1</title>
<path fill="none" stroke="black" d="M583.84,-46.27C583.84,-59.58 583.84,-75.19 583.84,-86.82"/>
<polygon fill="black" stroke="black" points="587.34,-46.2 583.84,-36.2 580.34,-46.2 587.34,-46.2"/>
<text text-anchor="middle" x="602.34" y="-57.8" font-family="Times,serif" font-size="14.00">सम्बन्धः</text>
</g>
<!-- Node6_1 -->
<g id="node8" class="node">
<title>Node6_1</title>
<ellipse fill="#ff99ff" stroke="#ff99ff" cx="454.84" cy="-192" rx="44.69" ry="18"/>
<text text-anchor="middle" x="454.84" y="-188.3" font-family="Times,serif" font-size="14.00">तथा(6.1)</text>
</g>
<!-- Node6_1&#45;&gt;Node7_2 -->
<g id="edge6" class="edge">
<title>Node6_1&#45;&gt;Node7_2</title>
<path fill="none" stroke="black" d="M474.14,-217.36C482.04,-226.24 491.71,-235.85 501.84,-243 514.36,-251.83 529.45,-259.14 543.14,-264.75"/>
<polygon fill="black" stroke="black" points="476.58,-214.83 467.42,-209.5 471.26,-219.38 476.58,-214.83"/>
<text text-anchor="middle" x="539.84" y="-231.8" font-family="Times,serif" font-size="14.00">समुच्चय_द्योतकः</text>
</g>
<!-- Node8_1 -->
<g id="node9" class="node">
<title>Node8_1</title>
<ellipse fill="#40e0d0" stroke="#40e0d0" cx="181.84" cy="-279" rx="58.49" ry="18"/>
<text text-anchor="middle" x="181.84" y="-275.3" font-family="Times,serif" font-size="14.00">मन्त्रिभिः(8.1)</text>
</g>
<!-- Node8_1&#45;&gt;Node11_1 -->
<g id="edge8" class="edge">
<title>Node8_1&#45;&gt;Node11_1</title>
<path fill="none" stroke="black" d="M214.53,-301.05C237.69,-315.96 268.26,-335.65 289.34,-349.22"/>
<polygon fill="black" stroke="black" points="216.36,-298.06 206.06,-295.59 212.57,-303.95 216.36,-298.06"/>
<text text-anchor="middle" x="271.84" y="-318.8" font-family="Times,serif" font-size="14.00">सहार्थः</text>
</g>
<!-- Node9_1 -->
<g id="node10" class="node">
<title>Node9_1</title>
<ellipse fill="#ff99ff" stroke="#ff99ff" cx="181.84" cy="-192" rx="42.49" ry="18"/>
<text text-anchor="middle" x="181.84" y="-188.3" font-family="Times,serif" font-size="14.00">सह(9.1)</text>
</g>
<!-- Node9_1&#45;&gt;Node8_1 -->
<g id="edge9" class="edge">
<title>Node9_1&#45;&gt;Node8_1</title>
<path fill="none" stroke="black" d="M181.84,-220.27C181.84,-233.58 181.84,-249.19 181.84,-260.82"/>
<polygon fill="black" stroke="black" points="185.34,-220.2 181.84,-210.2 178.34,-220.2 185.34,-220.2"/>
<text text-anchor="middle" x="215.34" y="-231.8" font-family="Times,serif" font-size="14.00">सहार्थ_द्योतकः</text>
</g>
<!-- Node10_1 -->
<g id="node11" class="node">
<title>Node10_1</title>
<ellipse fill="#93db70" stroke="#93db70" cx="313.84" cy="-279" rx="55.49" ry="18"/>
<text text-anchor="middle" x="313.84" y="-275.3" font-family="Times,serif" font-size="14.00">योगम्(10.1)</text>
</g>
<!-- Node10_1&#45;&gt;Node11_1 -->
<g id="edge10" class="edge">
<title>Node10_1&#45;&gt;Node11_1</title>
<path fill="none" stroke="black" d="M313.84,-307.27C313.84,-320.58 313.84,-336.19 313.84,-347.82"/>
<polygon fill="black" stroke="black" points="317.34,-307.2 313.84,-297.2 310.34,-307.2 317.34,-307.2"/>
<text text-anchor="middle" x="322.84" y="-318.8" font-family="Times,serif" font-size="14.00">कर्म</text>
</g>
<!-- Node12_1 -->
<g id="node12" class="node">
<title>Node12_1</title>
<ellipse fill="#00bfff" stroke="#00bfff" cx="443.84" cy="-279" rx="57.39" ry="18"/>
<text text-anchor="middle" x="443.84" y="-275.3" font-family="Times,serif" font-size="14.00">(त्वम्)(12.1)</text>
</g>
<!-- Node12_1&#45;&gt;Node11_1 -->
<g id="edge11" class="edge">
<title>Node12_1&#45;&gt;Node11_1</title>
<path fill="none" stroke="black" d="M411.35,-301.25C388.58,-316.13 358.64,-335.71 337.98,-349.22"/>
<polygon fill="black" stroke="black" points="413.55,-303.99 420,-295.59 409.72,-298.13 413.55,-303.99"/>
<text text-anchor="middle" x="397.84" y="-318.8" font-family="Times,serif" font-size="14.00">कर्ता</text>
</g>
</g>
</svg>
