<?xml version="1.0" encoding="UTF-8" standalone="no"?>
<!DOCTYPE svg PUBLIC "-//W3C//DTD SVG 1.1//EN"
 "http://www.w3.org/Graphics/SVG/1.1/DTD/svg11.dtd">
<!-- Generated by graphviz version 2.43.0 (0)
 -->
<!-- Title: G Pages: 1 -->
<svg width="1199pt" height="234pt"
 viewBox="0.00 0.00 1199.00 234.00" xmlns="http://www.w3.org/2000/svg" xmlns:xlink="http://www.w3.org/1999/xlink">
<g id="graph0" class="graph" transform="scale(1 1) rotate(0) translate(4 230)">
<title>G</title>
<polygon fill="#fffacd" stroke="transparent" points="-4,4 -4,-230 1195,-230 1195,4 -4,4"/>
<g id="clust1" class="cluster">
<title>cluster_1</title>
<polygon fill="#fffacd" stroke="black" points="8,-8 8,-147 208,-147 208,-8 8,-8"/>
</g>
<g id="clust2" class="cluster">
<title>cluster_2</title>
<polygon fill="#fffacd" stroke="black" points="216,-8 216,-147 697,-147 697,-8 216,-8"/>
</g>
<!-- Node4_1 -->
<g id="node1" class="node">
<title>Node4_1</title>
<ellipse fill="#00bfff" stroke="#00bfff" cx="154" cy="-34" rx="46.29" ry="18"/>
<text text-anchor="middle" x="154" y="-30.3" font-family="Times,serif" font-size="14.00">अन्ये(4.1)</text>
</g>
<!-- Node6_1 -->
<g id="node2" class="node">
<title>Node6_1</title>
<ellipse fill="#00bfff" stroke="#00bfff" cx="127" cy="-121" rx="67.69" ry="18"/>
<text text-anchor="middle" x="127" y="-117.3" font-family="Times,serif" font-size="14.00">प्रियकारिणः(6.1)</text>
</g>
<!-- Node4_1&#45;&gt;Node6_1 -->
<g id="edge4" class="edge">
<title>Node4_1&#45;&gt;Node6_1</title>
<path fill="none" stroke="black" d="M145.46,-61.87C141.21,-75.27 136.19,-91.08 132.46,-102.82"/>
<polygon fill="black" stroke="black" points="148.84,-62.79 148.54,-52.2 142.17,-60.67 148.84,-62.79"/>
<text text-anchor="middle" x="165.5" y="-73.8" font-family="Times,serif" font-size="14.00">विशेषणम्</text>
</g>
<!-- Node7_1 -->
<g id="node13" class="node">
<title>Node7_1</title>
<ellipse fill="#ff1975" stroke="#ff1975" cx="127" cy="-208" rx="54.69" ry="18"/>
<text text-anchor="middle" x="127" y="-204.3" font-family="Times,serif" font-size="14.00">(सन्ति)(7.1)</text>
</g>
<!-- Node6_1&#45;&gt;Node7_1 -->
<g id="edge6" class="edge">
<title>Node6_1&#45;&gt;Node7_1</title>
<path fill="none" stroke="black" d="M127,-149.27C127,-162.58 127,-178.19 127,-189.82"/>
<polygon fill="black" stroke="black" points="130.5,-149.2 127,-139.2 123.5,-149.2 130.5,-149.2"/>
<text text-anchor="middle" x="138" y="-160.8" font-family="Times,serif" font-size="14.00">कर्ता</text>
</g>
<!-- Node5_1 -->
<g id="node3" class="node">
<title>Node5_1</title>
<ellipse fill="#00bfff" stroke="#00bfff" cx="53" cy="-34" rx="37.09" ry="18"/>
<text text-anchor="middle" x="53" y="-30.3" font-family="Times,serif" font-size="14.00">ये(5.1)</text>
</g>
<!-- Node5_1&#45;&gt;Node6_1 -->
<g id="edge5" class="edge">
<title>Node5_1&#45;&gt;Node6_1</title>
<path fill="none" stroke="black" d="M69.87,-59.58C75.92,-67.9 82.98,-77.08 90,-85 95.63,-91.35 102.24,-97.86 108.3,-103.52"/>
<polygon fill="black" stroke="black" points="72.63,-57.43 63.98,-51.32 66.93,-61.49 72.63,-57.43"/>
<text text-anchor="middle" x="112.5" y="-73.8" font-family="Times,serif" font-size="14.00">विशेषणम्</text>
</g>
<!-- Node8_1 -->
<g id="node4" class="node">
<title>Node8_1</title>
<ellipse fill="#40e0d0" stroke="#40e0d0" cx="643" cy="-34" rx="46.29" ry="18"/>
<text text-anchor="middle" x="643" y="-30.3" font-family="Times,serif" font-size="14.00">(तैः)(8.1)</text>
</g>
<!-- Node12_1 -->
<g id="node5" class="node">
<title>Node12_1</title>
<ellipse fill="#40e0d0" stroke="#40e0d0" cx="625" cy="-121" rx="64.19" ry="18"/>
<text text-anchor="middle" x="625" y="-117.3" font-family="Times,serif" font-size="14.00">मन्त्रिभिः(12.1)</text>
</g>
<!-- Node8_1&#45;&gt;Node12_1 -->
<g id="edge7" class="edge">
<title>Node8_1&#45;&gt;Node12_1</title>
<path fill="none" stroke="black" d="M637.23,-62.27C634.41,-75.58 631.1,-91.19 628.64,-102.82"/>
<polygon fill="black" stroke="black" points="640.71,-62.71 639.36,-52.2 633.86,-61.26 640.71,-62.71"/>
<text text-anchor="middle" x="657.5" y="-73.8" font-family="Times,serif" font-size="14.00">समुच्चितः</text>
</g>
<!-- Node15_1 -->
<g id="node11" class="node">
<title>Node15_1</title>
<ellipse fill="#ff1975" stroke="#ff1975" cx="795" cy="-208" rx="63.09" ry="18"/>
<text text-anchor="middle" x="795" y="-204.3" font-family="Times,serif" font-size="14.00">निष्पतेत्(15.1)</text>
</g>
<!-- Node12_1&#45;&gt;Node15_1 -->
<g id="edge11" class="edge">
<title>Node12_1&#45;&gt;Node15_1</title>
<path fill="none" stroke="black" d="M664.14,-141.57C694.84,-156.92 736.94,-177.97 765.01,-192.01"/>
<polygon fill="black" stroke="black" points="665.51,-138.34 655,-137 662.38,-144.6 665.51,-138.34"/>
<text text-anchor="middle" x="736" y="-160.8" font-family="Times,serif" font-size="14.00">सहार्थः</text>
</g>
<!-- Node9_1 -->
<g id="node6" class="node">
<title>Node9_1</title>
<ellipse fill="#40e0d0" stroke="#40e0d0" cx="533" cy="-34" rx="45.49" ry="18"/>
<text text-anchor="middle" x="533" y="-30.3" font-family="Times,serif" font-size="14.00">पौरैः(9.1)</text>
</g>
<!-- Node9_1&#45;&gt;Node12_1 -->
<g id="edge8" class="edge">
<title>Node9_1&#45;&gt;Node12_1</title>
<path fill="none" stroke="black" d="M555.45,-58.32C563.92,-66.89 573.75,-76.55 583,-85 589.87,-91.27 597.63,-97.87 604.6,-103.63"/>
<polygon fill="black" stroke="black" points="557.91,-55.83 548.41,-51.14 552.91,-60.73 557.91,-55.83"/>
<text text-anchor="middle" x="605.5" y="-73.8" font-family="Times,serif" font-size="14.00">समुच्चितः</text>
</g>
<!-- Node10_1 -->
<g id="node7" class="node">
<title>Node10_1</title>
<ellipse fill="#40e0d0" stroke="#40e0d0" cx="412" cy="-34" rx="57.69" ry="18"/>
<text text-anchor="middle" x="412" y="-30.3" font-family="Times,serif" font-size="14.00">कोशेन(10.1)</text>
</g>
<!-- Node10_1&#45;&gt;Node12_1 -->
<g id="edge9" class="edge">
<title>Node10_1&#45;&gt;Node12_1</title>
<path fill="none" stroke="black" d="M450.29,-54.23C470.48,-64.03 495.8,-75.79 519,-85 539.71,-93.23 563.21,-101.12 582.8,-107.33"/>
<polygon fill="black" stroke="black" points="451.63,-51 441.11,-49.74 448.55,-57.28 451.63,-51"/>
<text text-anchor="middle" x="541.5" y="-73.8" font-family="Times,serif" font-size="14.00">समुच्चितः</text>
</g>
<!-- Node11_1 -->
<g id="node8" class="node">
<title>Node11_1</title>
<ellipse fill="#40e0d0" stroke="#40e0d0" cx="280" cy="-34" rx="55.79" ry="18"/>
<text text-anchor="middle" x="280" y="-30.3" font-family="Times,serif" font-size="14.00">दण्डेन(11.1)</text>
</g>
<!-- Node11_1&#45;&gt;Node12_1 -->
<g id="edge10" class="edge">
<title>Node11_1&#45;&gt;Node12_1</title>
<path fill="none" stroke="black" d="M325.79,-51.11C357.11,-61.73 399.72,-75.4 438,-85 482.05,-96.05 532.73,-105.33 570.21,-111.55"/>
<polygon fill="black" stroke="black" points="326.63,-47.7 316.04,-47.78 324.37,-54.33 326.63,-47.7"/>
<text text-anchor="middle" x="460.5" y="-73.8" font-family="Times,serif" font-size="14.00">समुच्चितः</text>
</g>
<!-- Node1_1 -->
<g id="node9" class="node">
<title>Node1_1</title>
<ellipse fill="#b0e2ff" stroke="#b0e2ff" cx="1069" cy="-34" rx="50.09" ry="18"/>
<text text-anchor="middle" x="1069" y="-30.3" font-family="Times,serif" font-size="14.00">युद्धाय(1.1)</text>
</g>
<!-- Node2_2 -->
<g id="node10" class="node">
<title>Node2_2</title>
<ellipse fill="#00bfff" stroke="#00bfff" cx="964" cy="-121" rx="57.39" ry="18"/>
<text text-anchor="middle" x="964" y="-117.3" font-family="Times,serif" font-size="14.00">शक्नुवन्(2.2)</text>
</g>
<!-- Node1_1&#45;&gt;Node2_2 -->
<g id="edge1" class="edge">
<title>Node1_1&#45;&gt;Node2_2</title>
<path fill="none" stroke="black" d="M1041.32,-57.41C1023.19,-72.09 999.91,-90.93 983.66,-104.08"/>
<polygon fill="black" stroke="black" points="1043.68,-60 1049.25,-50.99 1039.28,-54.56 1043.68,-60"/>
<text text-anchor="middle" x="1043.5" y="-73.8" font-family="Times,serif" font-size="14.00">प्रयोजनम्</text>
</g>
<!-- Node2_2&#45;&gt;Node15_1 -->
<g id="edge2" class="edge">
<title>Node2_2&#45;&gt;Node15_1</title>
<path fill="none" stroke="black" d="M925.86,-141.18C895.27,-156.57 852.95,-177.85 824.81,-192.01"/>
<polygon fill="black" stroke="black" points="927.59,-144.23 934.95,-136.61 924.44,-137.98 927.59,-144.23"/>
<text text-anchor="middle" x="900" y="-160.8" font-family="Times,serif" font-size="14.00">कर्ता</text>
</g>
<!-- Node3_1 -->
<g id="node12" class="node">
<title>Node3_1</title>
<ellipse fill="#ff99ff" stroke="#ff99ff" cx="964" cy="-34" rx="37.09" ry="18"/>
<text text-anchor="middle" x="964" y="-30.3" font-family="Times,serif" font-size="14.00">तु(3.1)</text>
</g>
<!-- Node3_1&#45;&gt;Node2_2 -->
<g id="edge3" class="edge">
<title>Node3_1&#45;&gt;Node2_2</title>
<path fill="none" stroke="black" d="M964,-62.27C964,-75.58 964,-91.19 964,-102.82"/>
<polygon fill="black" stroke="black" points="967.5,-62.2 964,-52.2 960.5,-62.2 967.5,-62.2"/>
<text text-anchor="middle" x="982.5" y="-73.8" font-family="Times,serif" font-size="14.00">सम्बन्धः</text>
</g>
<!-- Node13_1 -->
<g id="node14" class="node">
<title>Node13_1</title>
<ellipse fill="#ff99ff" stroke="#ff99ff" cx="751" cy="-34" rx="43.59" ry="18"/>
<text text-anchor="middle" x="751" y="-30.3" font-family="Times,serif" font-size="14.00">च(13.1)</text>
</g>
<!-- Node13_1&#45;&gt;Node12_1 -->
<g id="edge12" class="edge">
<title>Node13_1&#45;&gt;Node12_1</title>
<path fill="none" stroke="black" d="M723.52,-56.53C711.58,-65.62 697.31,-76.12 684,-85 673.89,-91.74 662.47,-98.67 652.39,-104.56"/>
<polygon fill="black" stroke="black" points="725.95,-59.08 731.75,-50.21 721.69,-53.53 725.95,-59.08"/>
<text text-anchor="middle" x="742" y="-73.8" font-family="Times,serif" font-size="14.00">समुच्चय_द्योतकः</text>
</g>
<!-- Node14_1 -->
<g id="node15" class="node">
<title>Node14_1</title>
<ellipse fill="#ff99ff" stroke="#ff99ff" cx="861" cy="-34" rx="48.19" ry="18"/>
<text text-anchor="middle" x="861" y="-30.3" font-family="Times,serif" font-size="14.00">सह(14.1)</text>
</g>
<!-- Node14_1&#45;&gt;Node12_1 -->
<g id="edge13" class="edge">
<title>Node14_1&#45;&gt;Node12_1</title>
<path fill="none" stroke="black" d="M833.27,-56.49C819.19,-66.47 801.41,-77.71 784,-85 751.54,-98.58 713.04,-107.23 682.06,-112.53"/>
<polygon fill="black" stroke="black" points="835.5,-59.2 841.53,-50.48 831.38,-53.54 835.5,-59.2"/>
<text text-anchor="middle" x="843.5" y="-73.8" font-family="Times,serif" font-size="14.00">सहार्थ_द्योतकः</text>
</g>
<!-- Node0 -->
<g id="node16" class="node">
<title>Node0</title>
<ellipse fill="lightgrey" stroke="black" cx="1164" cy="-34" rx="27" ry="18"/>
</g>
</g>
</svg>
