<?xml version="1.0" encoding="UTF-8" standalone="no"?>
<!DOCTYPE svg PUBLIC "-//W3C//DTD SVG 1.1//EN"
 "http://www.w3.org/Graphics/SVG/1.1/DTD/svg11.dtd">
<!-- Generated by graphviz version 2.43.0 (0)
 -->
<!-- Title: G Pages: 1 -->
<svg width="583pt" height="479pt"
 viewBox="0.00 0.00 583.35 479.00" xmlns="http://www.w3.org/2000/svg" xmlns:xlink="http://www.w3.org/1999/xlink">
<g id="graph0" class="graph" transform="scale(1 1) rotate(0) translate(4 475)">
<title>G</title>
<polygon fill="#fffacd" stroke="transparent" points="-4,4 -4,-475 579.35,-475 579.35,4 -4,4"/>
<g id="clust1" class="cluster">
<title>cluster_1</title>
<polygon fill="#fffacd" stroke="black" points="184.35,-166 184.35,-305 567.35,-305 567.35,-166 184.35,-166"/>
</g>
<!-- Node4_1 -->
<g id="node1" class="node">
<title>Node4_1</title>
<ellipse fill="#87ceeb" stroke="#87ceeb" cx="506.35" cy="-192" rx="52.79" ry="18"/>
<text text-anchor="middle" x="506.35" y="-188.3" font-family="Times,serif" font-size="14.00">परेषाम्(4.1)</text>
</g>
<!-- Node9_1 -->
<g id="node2" class="node">
<title>Node9_1</title>
<ellipse fill="#87ceeb" stroke="#87ceeb" cx="258.35" cy="-279" rx="65.79" ry="18"/>
<text text-anchor="middle" x="258.35" y="-275.3" font-family="Times,serif" font-size="14.00">मध्यमानाम्(9.1)</text>
</g>
<!-- Node4_1&#45;&gt;Node9_1 -->
<g id="edge4" class="edge">
<title>Node4_1&#45;&gt;Node9_1</title>
<path fill="none" stroke="black" d="M464.02,-209.88C438.26,-219.95 404.59,-232.72 374.35,-243 350.64,-251.05 323.91,-259.18 302.09,-265.58"/>
<polygon fill="black" stroke="black" points="465.45,-213.08 473.48,-206.17 462.9,-206.57 465.45,-213.08"/>
<text text-anchor="middle" x="436.85" y="-231.8" font-family="Times,serif" font-size="14.00">समुच्चितः</text>
</g>
<!-- Node1_1 -->
<g id="node5" class="node">
<title>Node1_1</title>
<ellipse fill="#00bfff" stroke="#00bfff" cx="182.35" cy="-366" rx="61.99" ry="18"/>
<text text-anchor="middle" x="182.35" y="-362.3" font-family="Times,serif" font-size="14.00">मण्डलानि(1.1)</text>
</g>
<!-- Node9_1&#45;&gt;Node1_1 -->
<g id="edge10" class="edge">
<title>Node9_1&#45;&gt;Node1_1</title>
<path fill="none" stroke="black" d="M236.34,-304.61C223.82,-318.62 208.46,-335.79 197.33,-348.24"/>
<polygon fill="black" stroke="black" points="239.27,-306.58 243.33,-296.79 234.06,-301.92 239.27,-306.58"/>
<text text-anchor="middle" x="251.85" y="-318.8" font-family="Times,serif" font-size="14.00">षष्ठीसम्बन्धः</text>
</g>
<!-- Node5_1 -->
<g id="node3" class="node">
<title>Node5_1</title>
<ellipse fill="#87ceeb" stroke="#87ceeb" cx="247.35" cy="-192" rx="55.49" ry="18"/>
<text text-anchor="middle" x="247.35" y="-188.3" font-family="Times,serif" font-size="14.00">आत्मनः(5.1)</text>
</g>
<!-- Node5_1&#45;&gt;Node9_1 -->
<g id="edge5" class="edge">
<title>Node5_1&#45;&gt;Node9_1</title>
<path fill="none" stroke="black" d="M250.87,-220.27C252.6,-233.58 254.62,-249.19 256.12,-260.82"/>
<polygon fill="black" stroke="black" points="254.33,-219.67 249.57,-210.2 247.38,-220.57 254.33,-219.67"/>
<text text-anchor="middle" x="275.85" y="-231.8" font-family="Times,serif" font-size="14.00">समुच्चितः</text>
</g>
<!-- Node7_2 -->
<g id="node4" class="node">
<title>Node7_2</title>
<ellipse fill="#87ceeb" stroke="#87ceeb" cx="378.35" cy="-192" rx="57.69" ry="18"/>
<text text-anchor="middle" x="378.35" y="-188.3" font-family="Times,serif" font-size="14.00">गुणानाम्(7.2)</text>
</g>
<!-- Node7_2&#45;&gt;Node9_1 -->
<g id="edge8" class="edge">
<title>Node7_2&#45;&gt;Node9_1</title>
<path fill="none" stroke="black" d="M347.84,-214.61C327,-229.37 299.83,-248.61 280.92,-262.01"/>
<polygon fill="black" stroke="black" points="349.92,-217.42 356.06,-208.79 345.87,-211.71 349.92,-217.42"/>
<text text-anchor="middle" x="347.85" y="-231.8" font-family="Times,serif" font-size="14.00">समुच्चितः</text>
</g>
<!-- Node3_1 -->
<g id="node6" class="node">
<title>Node3_1</title>
<ellipse fill="#ff1975" stroke="#ff1975" cx="73.35" cy="-453" rx="55.79" ry="18"/>
<text text-anchor="middle" x="73.35" y="-449.3" font-family="Times,serif" font-size="14.00">बुध्येथाः(3.1)</text>
</g>
<!-- Node1_1&#45;&gt;Node3_1 -->
<g id="edge1" class="edge">
<title>Node1_1&#45;&gt;Node3_1</title>
<path fill="none" stroke="black" d="M153.87,-389.21C135,-403.92 110.7,-422.87 93.76,-436.08"/>
<polygon fill="black" stroke="black" points="156.11,-391.9 161.84,-382.99 151.81,-386.38 156.11,-391.9"/>
<text text-anchor="middle" x="144.35" y="-405.8" font-family="Times,serif" font-size="14.00">कर्म</text>
</g>
<!-- Node2_1 -->
<g id="node7" class="node">
<title>Node2_1</title>
<ellipse fill="#ff99ff" stroke="#ff99ff" cx="137.35" cy="-279" rx="37.89" ry="18"/>
<text text-anchor="middle" x="137.35" y="-275.3" font-family="Times,serif" font-size="14.00">च(2.1)</text>
</g>
<!-- Node2_1&#45;&gt;Node1_1 -->
<g id="edge2" class="edge">
<title>Node2_1&#45;&gt;Node1_1</title>
<path fill="none" stroke="black" d="M150.97,-305.74C158.21,-319.42 166.92,-335.86 173.32,-347.95"/>
<polygon fill="black" stroke="black" points="154.01,-303.99 146.24,-296.79 147.82,-307.27 154.01,-303.99"/>
<text text-anchor="middle" x="181.85" y="-318.8" font-family="Times,serif" font-size="14.00">सम्बन्धः</text>
</g>
<!-- Node3_2 -->
<g id="node8" class="node">
<title>Node3_2</title>
<ellipse fill="#00bfff" stroke="#00bfff" cx="51.35" cy="-366" rx="51.19" ry="18"/>
<text text-anchor="middle" x="51.35" y="-362.3" font-family="Times,serif" font-size="14.00">(त्वम्)(3.2)</text>
</g>
<!-- Node3_2&#45;&gt;Node3_1 -->
<g id="edge3" class="edge">
<title>Node3_2&#45;&gt;Node3_1</title>
<path fill="none" stroke="black" d="M58.4,-394.27C61.85,-407.58 65.89,-423.19 68.9,-434.82"/>
<polygon fill="black" stroke="black" points="61.69,-393.01 55.8,-384.2 54.91,-394.76 61.69,-393.01"/>
<text text-anchor="middle" x="75.35" y="-405.8" font-family="Times,serif" font-size="14.00">कर्ता</text>
</g>
<!-- Node6_1 -->
<g id="node9" class="node">
<title>Node6_1</title>
<ellipse fill="#ff99ff" stroke="#ff99ff" cx="247.35" cy="-105" rx="44.69" ry="18"/>
<text text-anchor="middle" x="247.35" y="-101.3" font-family="Times,serif" font-size="14.00">तथा(6.1)</text>
</g>
<!-- Node6_1&#45;&gt;Node5_1 -->
<g id="edge6" class="edge">
<title>Node6_1&#45;&gt;Node5_1</title>
<path fill="none" stroke="black" d="M247.35,-133.27C247.35,-146.58 247.35,-162.19 247.35,-173.82"/>
<polygon fill="black" stroke="black" points="250.85,-133.2 247.35,-123.2 243.85,-133.2 250.85,-133.2"/>
<text text-anchor="middle" x="265.85" y="-144.8" font-family="Times,serif" font-size="14.00">सम्बन्धः</text>
</g>
<!-- Node7_1 -->
<g id="node10" class="node">
<title>Node7_1</title>
<ellipse fill="#ffff00" stroke="#ffff00" cx="374.35" cy="-105" rx="59.59" ry="18"/>
<text text-anchor="middle" x="374.35" y="-101.3" font-family="Times,serif" font-size="14.00">उदासीन&#45;(7.1)</text>
</g>
<!-- Node7_1&#45;&gt;Node7_2 -->
<g id="edge7" class="edge">
<title>Node7_1&#45;&gt;Node7_2</title>
<path fill="none" stroke="black" d="M375.63,-133.27C376.26,-146.58 376.99,-162.19 377.54,-173.82"/>
<polygon fill="black" stroke="black" points="379.12,-133.03 375.15,-123.2 372.13,-133.35 379.12,-133.03"/>
<text text-anchor="middle" x="390.35" y="-144.8" font-family="Times,serif" font-size="14.00">Bs6</text>
</g>
<!-- Node8_1 -->
<g id="node11" class="node">
<title>Node8_1</title>
<ellipse fill="#ff99ff" stroke="#ff99ff" cx="489.35" cy="-105" rx="37.89" ry="18"/>
<text text-anchor="middle" x="489.35" y="-101.3" font-family="Times,serif" font-size="14.00">च(8.1)</text>
</g>
<!-- Node8_1&#45;&gt;Node7_2 -->
<g id="edge9" class="edge">
<title>Node8_1&#45;&gt;Node7_2</title>
<path fill="none" stroke="black" d="M462.09,-126.87C442.62,-141.78 416.85,-161.52 399.06,-175.14"/>
<polygon fill="black" stroke="black" points="464.45,-129.47 470.26,-120.61 460.2,-123.91 464.45,-129.47"/>
<text text-anchor="middle" x="458.85" y="-144.8" font-family="Times,serif" font-size="14.00">सम्बन्धः</text>
</g>
<!-- Node10_1 -->
<g id="node12" class="node">
<title>Node10_1</title>
<ellipse fill="#ff99ff" stroke="#ff99ff" cx="123.35" cy="-192" rx="50.89" ry="18"/>
<text text-anchor="middle" x="123.35" y="-188.3" font-family="Times,serif" font-size="14.00">तथा(10.1)</text>
</g>
<!-- Node10_1&#45;&gt;Node9_1 -->
<g id="edge11" class="edge">
<title>Node10_1&#45;&gt;Node9_1</title>
<path fill="none" stroke="black" d="M145.48,-216.7C154.74,-225.72 165.97,-235.59 177.35,-243 190.31,-251.45 205.65,-258.68 219.48,-264.33"/>
<polygon fill="black" stroke="black" points="147.76,-214.02 138.22,-209.41 142.8,-218.96 147.76,-214.02"/>
<text text-anchor="middle" x="212.35" y="-231.8" font-family="Times,serif" font-size="14.00">समुच्चयद्योतकः</text>
</g>
<!-- Node11_1 -->
<g id="node13" class="node">
<title>Node11_1</title>
<ellipse fill="#ff99ff" stroke="#ff99ff" cx="123.35" cy="-105" rx="47.39" ry="18"/>
<text text-anchor="middle" x="123.35" y="-101.3" font-family="Times,serif" font-size="14.00">एव(11.1)</text>
</g>
<!-- Node11_1&#45;&gt;Node10_1 -->
<g id="edge12" class="edge">
<title>Node11_1&#45;&gt;Node10_1</title>
<path fill="none" stroke="black" d="M123.35,-133.27C123.35,-146.58 123.35,-162.19 123.35,-173.82"/>
<polygon fill="black" stroke="black" points="126.85,-133.2 123.35,-123.2 119.85,-133.2 126.85,-133.2"/>
<text text-anchor="middle" x="141.85" y="-144.8" font-family="Times,serif" font-size="14.00">सम्बन्धः</text>
</g>
<!-- Node12_1 -->
<g id="node14" class="node">
<title>Node12_1</title>
<ellipse fill="#ff99ff" stroke="#ff99ff" cx="123.35" cy="-18" rx="43.59" ry="18"/>
<text text-anchor="middle" x="123.35" y="-14.3" font-family="Times,serif" font-size="14.00">च(12.1)</text>
</g>
<!-- Node12_1&#45;&gt;Node11_1 -->
<g id="edge13" class="edge">
<title>Node12_1&#45;&gt;Node11_1</title>
<path fill="none" stroke="black" d="M123.35,-46.27C123.35,-59.58 123.35,-75.19 123.35,-86.82"/>
<polygon fill="black" stroke="black" points="126.85,-46.2 123.35,-36.2 119.85,-46.2 126.85,-46.2"/>
<text text-anchor="middle" x="141.85" y="-57.8" font-family="Times,serif" font-size="14.00">सम्बन्धः</text>
</g>
</g>
</svg>
