<?xml version="1.0" encoding="UTF-8" standalone="no"?>
<!DOCTYPE svg PUBLIC "-//W3C//DTD SVG 1.1//EN"
 "http://www.w3.org/Graphics/SVG/1.1/DTD/svg11.dtd">
<!-- Generated by graphviz version 2.43.0 (0)
 -->
<!-- Title: G Pages: 1 -->
<svg width="1331pt" height="479pt"
 viewBox="0.00 0.00 1330.90 479.00" xmlns="http://www.w3.org/2000/svg" xmlns:xlink="http://www.w3.org/1999/xlink">
<g id="graph0" class="graph" transform="scale(1 1) rotate(0) translate(4 475)">
<title>G</title>
<polygon fill="#fffacd" stroke="transparent" points="-4,4 -4,-475 1326.9,-475 1326.9,4 -4,4"/>
<g id="clust1" class="cluster">
<title>cluster_1</title>
<polygon fill="#fffacd" stroke="black" points="8,-253 8,-392 134,-392 134,-253 8,-253"/>
</g>
<!-- Node7_1 -->
<g id="node1" class="node">
<title>Node7_1</title>
<ellipse fill="#00bfff" stroke="#00bfff" cx="71" cy="-279" rx="48.99" ry="18"/>
<text text-anchor="middle" x="71" y="-275.3" font-family="Times,serif" font-size="14.00">महान्(7.1)</text>
</g>
<!-- Node2_1 -->
<g id="node2" class="node">
<title>Node2_1</title>
<ellipse fill="#00bfff" stroke="#00bfff" cx="71" cy="-366" rx="54.69" ry="18"/>
<text text-anchor="middle" x="71" y="-362.3" font-family="Times,serif" font-size="14.00">सञ्चयः(2.1)</text>
</g>
<!-- Node7_1&#45;&gt;Node2_1 -->
<g id="edge8" class="edge">
<title>Node7_1&#45;&gt;Node2_1</title>
<path fill="none" stroke="black" d="M71,-307.27C71,-320.58 71,-336.19 71,-347.82"/>
<polygon fill="black" stroke="black" points="74.5,-307.2 71,-297.2 67.5,-307.2 74.5,-307.2"/>
<text text-anchor="middle" x="93.5" y="-318.8" font-family="Times,serif" font-size="14.00">विशेषणम्</text>
</g>
<!-- Node6_1 -->
<g id="node4" class="node">
<title>Node6_1</title>
<ellipse fill="#ff1975" stroke="#ff1975" cx="188" cy="-453" rx="48.19" ry="18"/>
<text text-anchor="middle" x="188" y="-449.3" font-family="Times,serif" font-size="14.00">स्यात्(6.1)</text>
</g>
<!-- Node2_1&#45;&gt;Node6_1 -->
<g id="edge2" class="edge">
<title>Node2_1&#45;&gt;Node6_1</title>
<path fill="none" stroke="black" d="M100.57,-388.48C121.17,-403.45 148.16,-423.06 166.68,-436.51"/>
<polygon fill="black" stroke="black" points="102.61,-385.64 92.46,-382.59 98.49,-391.3 102.61,-385.64"/>
<text text-anchor="middle" x="148" y="-405.8" font-family="Times,serif" font-size="14.00">कर्ता</text>
</g>
<!-- Node1_1 -->
<g id="node3" class="node">
<title>Node1_1</title>
<ellipse fill="#87ceeb" stroke="#87ceeb" cx="202" cy="-279" rx="60.39" ry="18"/>
<text text-anchor="middle" x="202" y="-275.3" font-family="Times,serif" font-size="14.00">द्रव्याणाम्(1.1)</text>
</g>
<!-- Node1_1&#45;&gt;Node2_1 -->
<g id="edge1" class="edge">
<title>Node1_1&#45;&gt;Node2_1</title>
<path fill="none" stroke="black" d="M169.5,-301.09C146.37,-316.1 115.79,-335.94 94.88,-349.51"/>
<polygon fill="black" stroke="black" points="171.49,-303.97 177.97,-295.59 167.68,-298.1 171.49,-303.97"/>
<text text-anchor="middle" x="172.5" y="-318.8" font-family="Times,serif" font-size="14.00">षष्ठीसम्बन्धः</text>
</g>
<!-- Node3_1 -->
<g id="node5" class="node">
<title>Node3_1</title>
<ellipse fill="#ff99ff" stroke="#ff99ff" cx="318" cy="-279" rx="37.89" ry="18"/>
<text text-anchor="middle" x="318" y="-275.3" font-family="Times,serif" font-size="14.00">च(3.1)</text>
</g>
<!-- Node3_1&#45;&gt;Node2_1 -->
<g id="edge3" class="edge">
<title>Node3_1&#45;&gt;Node2_1</title>
<path fill="none" stroke="black" d="M283.59,-296.83C261.27,-307.32 231.35,-320.56 204,-330 173.64,-340.49 165.06,-339.82 134,-348 126.77,-349.91 119.08,-351.96 111.65,-353.96"/>
<polygon fill="black" stroke="black" points="285.13,-299.98 292.67,-292.53 282.13,-293.65 285.13,-299.98"/>
<text text-anchor="middle" x="261.5" y="-318.8" font-family="Times,serif" font-size="14.00">सम्बन्धः</text>
</g>
<!-- Node4_1 -->
<g id="node6" class="node">
<title>Node4_1</title>
<ellipse fill="#ff99ff" stroke="#ff99ff" cx="292" cy="-192" rx="41.69" ry="18"/>
<text text-anchor="middle" x="292" y="-188.3" font-family="Times,serif" font-size="14.00">एव(4.1)</text>
</g>
<!-- Node4_1&#45;&gt;Node3_1 -->
<g id="edge4" class="edge">
<title>Node4_1&#45;&gt;Node3_1</title>
<path fill="none" stroke="black" d="M300.24,-219.94C304.37,-233.43 309.24,-249.36 312.84,-261.11"/>
<polygon fill="black" stroke="black" points="303.53,-218.74 297.26,-210.2 296.84,-220.79 303.53,-218.74"/>
<text text-anchor="middle" x="325.5" y="-231.8" font-family="Times,serif" font-size="14.00">सम्बन्धः</text>
</g>
<!-- Node5_1 -->
<g id="node7" class="node">
<title>Node5_1</title>
<ellipse fill="#00bfff" stroke="#00bfff" cx="481" cy="-279" rx="53.89" ry="18"/>
<text text-anchor="middle" x="481" y="-275.3" font-family="Times,serif" font-size="14.00">कर्तव्यः(5.1)</text>
</g>
<!-- Node5_1&#45;&gt;Node2_1 -->
<g id="edge5" class="edge">
<title>Node5_1&#45;&gt;Node2_1</title>
<path fill="none" stroke="black" d="M432.04,-294.3C392.41,-305.42 335.01,-320.51 284,-330 217.99,-342.28 199.92,-335.22 134,-348 126.33,-349.49 118.21,-351.41 110.45,-353.42"/>
<polygon fill="black" stroke="black" points="433.04,-297.66 441.71,-291.57 431.14,-290.92 433.04,-297.66"/>
<text text-anchor="middle" x="385.5" y="-318.8" font-family="Times,serif" font-size="14.00">विधेयविशेषणम्</text>
</g>
<!-- Node5_2 -->
<g id="node8" class="node">
<title>Node5_2</title>
<ellipse fill="#40e0d0" stroke="#40e0d0" cx="554" cy="-192" rx="63.89" ry="18"/>
<text text-anchor="middle" x="554" y="-188.3" font-family="Times,serif" font-size="14.00">(नृपतिना)(5.2)</text>
</g>
<!-- Node5_2&#45;&gt;Node5_1 -->
<g id="edge6" class="edge">
<title>Node5_2&#45;&gt;Node5_1</title>
<path fill="none" stroke="black" d="M521.33,-215.04C516.55,-219.04 511.93,-223.41 508,-228 499.53,-237.89 492.62,-250.88 487.91,-261.14"/>
<polygon fill="black" stroke="black" points="523.71,-217.63 529.42,-208.7 519.39,-212.12 523.71,-217.63"/>
<text text-anchor="middle" x="519" y="-231.8" font-family="Times,serif" font-size="14.00">कर्ता</text>
</g>
<!-- Node17_1 -->
<g id="node9" class="node">
<title>Node17_1</title>
<ellipse fill="#00bfff" stroke="#00bfff" cx="639" cy="-279" rx="59.59" ry="18"/>
<text text-anchor="middle" x="639" y="-275.3" font-family="Times,serif" font-size="14.00">विधेयम्(17.1)</text>
</g>
<!-- Node5_2&#45;&gt;Node17_1 -->
<g id="edge7" class="edge">
<title>Node5_2&#45;&gt;Node17_1</title>
<path fill="none" stroke="black" stroke-dasharray="1,5" d="M547.8,-220.17C547.42,-228.09 548.55,-236.39 553,-243 561.46,-255.57 575.3,-263.63 589.43,-268.8"/>
<polygon fill="black" stroke="black" points="551.29,-220.48 549.02,-210.14 544.34,-219.64 551.29,-220.48"/>
<text text-anchor="middle" x="564" y="-231.8" font-family="Times,serif" font-size="14.00">कर्ता</text>
</g>
<!-- Node16_1 -->
<g id="node21" class="node">
<title>Node16_1</title>
<ellipse fill="#00bfff" stroke="#00bfff" cx="639" cy="-366" rx="53.09" ry="18"/>
<text text-anchor="middle" x="639" y="-362.3" font-family="Times,serif" font-size="14.00">सर्वम्(16.1)</text>
</g>
<!-- Node17_1&#45;&gt;Node16_1 -->
<g id="edge23" class="edge">
<title>Node17_1&#45;&gt;Node16_1</title>
<path fill="none" stroke="black" d="M639,-307.27C639,-320.58 639,-336.19 639,-347.82"/>
<polygon fill="black" stroke="black" points="642.5,-307.2 639,-297.2 635.5,-307.2 642.5,-307.2"/>
<text text-anchor="middle" x="674.5" y="-318.8" font-family="Times,serif" font-size="14.00">विधेयविशेषणम्</text>
</g>
<!-- Node8_1 -->
<g id="node10" class="node">
<title>Node8_1</title>
<ellipse fill="#ff99ff" stroke="#ff99ff" cx="188" cy="-366" rx="44.69" ry="18"/>
<text text-anchor="middle" x="188" y="-362.3" font-family="Times,serif" font-size="14.00">तथा(8.1)</text>
</g>
<!-- Node8_1&#45;&gt;Node6_1 -->
<g id="edge9" class="edge">
<title>Node8_1&#45;&gt;Node6_1</title>
<path fill="none" stroke="black" d="M188,-394.27C188,-407.58 188,-423.19 188,-434.82"/>
<polygon fill="black" stroke="black" points="191.5,-394.2 188,-384.2 184.5,-394.2 191.5,-394.2"/>
<text text-anchor="middle" x="223" y="-405.8" font-family="Times,serif" font-size="14.00">क्रियाविशेषणम्</text>
</g>
<!-- Node9_1 -->
<g id="node11" class="node">
<title>Node9_1</title>
<ellipse fill="#ff99ff" stroke="#ff99ff" cx="862" cy="-192" rx="44.39" ry="18"/>
<text text-anchor="middle" x="862" y="-188.3" font-family="Times,serif" font-size="14.00">यदा(9.1)</text>
</g>
<!-- Node10_3 -->
<g id="node12" class="node">
<title>Node10_3</title>
<ellipse fill="#ff1975" stroke="#ff1975" cx="872" cy="-279" rx="59.59" ry="18"/>
<text text-anchor="middle" x="872" y="-275.3" font-family="Times,serif" font-size="14.00">(भवेत्)(10.3)</text>
</g>
<!-- Node9_1&#45;&gt;Node10_3 -->
<g id="edge10" class="edge">
<title>Node9_1&#45;&gt;Node10_3</title>
<path fill="none" stroke="black" d="M841.31,-217.54C836.95,-225.56 834.58,-234.57 838,-243 840.87,-250.06 845.92,-256.49 851.27,-261.85"/>
<polygon fill="black" stroke="black" points="844.35,-219.28 846.86,-208.98 838.48,-215.46 844.35,-219.28"/>
<text text-anchor="middle" x="873.5" y="-231.8" font-family="Times,serif" font-size="14.00">कालाधिकरणम्</text>
</g>
<!-- Node10_1 -->
<g id="node13" class="node">
<title>Node10_1</title>
<ellipse fill="#00bfff" stroke="#00bfff" cx="1019" cy="-105" rx="56.59" ry="18"/>
<text text-anchor="middle" x="1019" y="-101.3" font-family="Times,serif" font-size="14.00">समर्थः(10.1)</text>
</g>
<!-- Node10_2 -->
<g id="node14" class="node">
<title>Node10_2</title>
<ellipse fill="#00bfff" stroke="#00bfff" cx="1019" cy="-192" rx="64.19" ry="18"/>
<text text-anchor="middle" x="1019" y="-188.3" font-family="Times,serif" font-size="14.00">(नृपतिः)(10.2)</text>
</g>
<!-- Node10_1&#45;&gt;Node10_2 -->
<g id="edge11" class="edge">
<title>Node10_1&#45;&gt;Node10_2</title>
<path fill="none" stroke="black" d="M1019,-133.27C1019,-146.58 1019,-162.19 1019,-173.82"/>
<polygon fill="black" stroke="black" points="1022.5,-133.2 1019,-123.2 1015.5,-133.2 1022.5,-133.2"/>
<text text-anchor="middle" x="1054.5" y="-144.8" font-family="Times,serif" font-size="14.00">विधेयविशेषणम्</text>
</g>
<!-- Node10_2&#45;&gt;Node10_3 -->
<g id="edge12" class="edge">
<title>Node10_2&#45;&gt;Node10_3</title>
<path fill="none" stroke="black" d="M1015.54,-219.93C1013.22,-228.3 1009.38,-236.92 1003,-243 983.57,-261.51 955.46,-270.47 930.27,-274.73"/>
<polygon fill="black" stroke="black" points="1018.99,-220.54 1017.67,-210.02 1012.14,-219.07 1018.99,-220.54"/>
<text text-anchor="middle" x="1023" y="-231.8" font-family="Times,serif" font-size="14.00">कर्ता</text>
</g>
<!-- Node22_1 -->
<g id="node15" class="node">
<title>Node22_1</title>
<ellipse fill="#ff1975" stroke="#ff1975" cx="1106" cy="-279" rx="68.79" ry="18"/>
<text text-anchor="middle" x="1106" y="-275.3" font-family="Times,serif" font-size="14.00">विभाजयेत्(22.1)</text>
</g>
<!-- Node10_2&#45;&gt;Node22_1 -->
<g id="edge13" class="edge">
<title>Node10_2&#45;&gt;Node22_1</title>
<path fill="none" stroke="black" stroke-dasharray="1,5" d="M1043.02,-216.47C1057.61,-230.72 1075.88,-248.57 1088.98,-261.37"/>
<polygon fill="black" stroke="black" points="1045.37,-213.87 1035.77,-209.39 1040.48,-218.88 1045.37,-213.87"/>
<text text-anchor="middle" x="1078" y="-231.8" font-family="Times,serif" font-size="14.00">कर्ता</text>
</g>
<!-- Node11_1 -->
<g id="node16" class="node">
<title>Node11_1</title>
<ellipse fill="#b0e2ff" stroke="#b0e2ff" cx="1019" cy="-18" rx="57.69" ry="18"/>
<text text-anchor="middle" x="1019" y="-14.3" font-family="Times,serif" font-size="14.00">यानाय(11.1)</text>
</g>
<!-- Node11_1&#45;&gt;Node10_1 -->
<g id="edge14" class="edge">
<title>Node11_1&#45;&gt;Node10_1</title>
<path fill="none" stroke="black" d="M1019,-46.27C1019,-59.58 1019,-75.19 1019,-86.82"/>
<polygon fill="black" stroke="black" points="1022.5,-46.2 1019,-36.2 1015.5,-46.2 1022.5,-46.2"/>
<text text-anchor="middle" x="1050" y="-57.8" font-family="Times,serif" font-size="14.00">सहायकक्रिया</text>
</g>
<!-- Node12_1 -->
<g id="node17" class="node">
<title>Node12_1</title>
<ellipse fill="#40e0d0" stroke="#40e0d0" cx="412" cy="-192" rx="60.39" ry="18"/>
<text text-anchor="middle" x="412" y="-188.3" font-family="Times,serif" font-size="14.00">नचिरेण(12.1)</text>
</g>
<!-- Node12_1&#45;&gt;Node5_1 -->
<g id="edge15" class="edge">
<title>Node12_1&#45;&gt;Node5_1</title>
<path fill="none" stroke="black" d="M408.15,-220.01C408.27,-227.93 409.73,-236.26 414,-243 420.6,-253.42 431.39,-260.91 442.4,-266.21"/>
<polygon fill="black" stroke="black" points="411.64,-220.17 408.63,-210.01 404.65,-219.83 411.64,-220.17"/>
<text text-anchor="middle" x="449" y="-231.8" font-family="Times,serif" font-size="14.00">क्रियाविशेषणम्</text>
</g>
<!-- Node13_1 -->
<g id="node18" class="node">
<title>Node13_1</title>
<ellipse fill="#ff99ff" stroke="#ff99ff" cx="412" cy="-105" rx="47.39" ry="18"/>
<text text-anchor="middle" x="412" y="-101.3" font-family="Times,serif" font-size="14.00">एव(13.1)</text>
</g>
<!-- Node13_1&#45;&gt;Node12_1 -->
<g id="edge16" class="edge">
<title>Node13_1&#45;&gt;Node12_1</title>
<path fill="none" stroke="black" d="M412,-133.27C412,-146.58 412,-162.19 412,-173.82"/>
<polygon fill="black" stroke="black" points="415.5,-133.2 412,-123.2 408.5,-133.2 415.5,-133.2"/>
<text text-anchor="middle" x="430.5" y="-144.8" font-family="Times,serif" font-size="14.00">सम्बन्धः</text>
</g>
<!-- Node14_1 -->
<g id="node19" class="node">
<title>Node14_1</title>
<ellipse fill="#6fffc3" stroke="#6fffc3" cx="305" cy="-366" rx="54.69" ry="18"/>
<text text-anchor="middle" x="305" y="-362.3" font-family="Times,serif" font-size="14.00">भारत(14.1)</text>
</g>
<!-- Node14_1&#45;&gt;Node6_1 -->
<g id="edge17" class="edge">
<title>Node14_1&#45;&gt;Node6_1</title>
<path fill="none" stroke="black" d="M287.03,-391.94C279.92,-400.63 271.25,-409.95 262,-417 249.79,-426.3 234.71,-433.99 221.36,-439.76"/>
<polygon fill="black" stroke="black" points="289.91,-393.94 293.32,-383.91 284.4,-389.62 289.91,-393.94"/>
<text text-anchor="middle" x="299" y="-405.8" font-family="Times,serif" font-size="14.00">सम्बोध्यः</text>
</g>
<!-- Node15_1 -->
<g id="node20" class="node">
<title>Node15_1</title>
<ellipse fill="#ff99ff" stroke="#ff99ff" cx="689" cy="-192" rx="50.09" ry="18"/>
<text text-anchor="middle" x="689" y="-188.3" font-family="Times,serif" font-size="14.00">तदा(15.1)</text>
</g>
<!-- Node15_1&#45;&gt;Node5_1 -->
<g id="edge20" class="edge">
<title>Node15_1&#45;&gt;Node5_1</title>
<path fill="none" stroke="black" stroke-dasharray="1,5" d="M641.74,-207.11C626.08,-212.64 608.86,-219.68 594,-228 584.61,-233.26 584.38,-237.73 575,-243 557.85,-252.65 537.52,-260.6 520.17,-266.47"/>
<polygon fill="black" stroke="black" points="642.93,-210.4 651.26,-203.86 640.67,-203.78 642.93,-210.4"/>
<text text-anchor="middle" x="629.5" y="-231.8" font-family="Times,serif" font-size="14.00">कालाधिकरणम्</text>
</g>
<!-- Node15_1&#45;&gt;Node17_1 -->
<g id="edge19" class="edge">
<title>Node15_1&#45;&gt;Node17_1</title>
<path fill="none" stroke="black" stroke-dasharray="1,5" d="M680.18,-219.73C677.13,-227.49 673.36,-235.8 669,-243 665.1,-249.43 660.02,-255.86 655.15,-261.42"/>
<polygon fill="black" stroke="black" points="683.47,-220.92 683.65,-210.32 676.9,-218.49 683.47,-220.92"/>
<text text-anchor="middle" x="712.5" y="-231.8" font-family="Times,serif" font-size="14.00">कालाधिकरणम्</text>
</g>
<!-- Node15_1&#45;&gt;Node9_1 -->
<g id="edge18" class="edge">
<title>Node15_1&#45;&gt;Node9_1</title>
<path fill="none" stroke="red" stroke-dasharray="5,2" d="M749.59,-192C768.39,-192 789,-192 807.37,-192"/>
<polygon fill="red" stroke="red" points="749.5,-188.5 739.5,-192 749.5,-195.5 749.5,-188.5"/>
<polygon fill="red" stroke="red" points="807.61,-195.5 817.61,-192 807.61,-188.5 807.61,-195.5"/>
<text text-anchor="middle" x="778.42" y="-177.8" font-family="Times,serif" font-size="14.00">नित्यसम्बन्धः</text>
</g>
<!-- Node15_1&#45;&gt;Node22_1 -->
<g id="edge21" class="edge">
<title>Node15_1&#45;&gt;Node22_1</title>
<path fill="none" stroke="black" stroke-dasharray="1,5" d="M744.74,-201.15C807.42,-210.42 901.49,-224.71 909,-228 918.85,-232.32 918.23,-238.5 928,-243 963.48,-259.32 1006.35,-268.05 1041.13,-272.7"/>
<polygon fill="black" stroke="black" points="744.99,-197.65 734.59,-199.65 743.97,-204.57 744.99,-197.65"/>
<text text-anchor="middle" x="963.5" y="-231.8" font-family="Times,serif" font-size="14.00">कालाधिकरणम्</text>
</g>
<!-- Node18_1 -->
<g id="node22" class="node">
<title>Node18_1</title>
<ellipse fill="#ff1975" stroke="#ff1975" cx="639" cy="-453" rx="53.89" ry="18"/>
<text text-anchor="middle" x="639" y="-449.3" font-family="Times,serif" font-size="14.00">स्यात्(18.1)</text>
</g>
<!-- Node16_1&#45;&gt;Node18_1 -->
<g id="edge22" class="edge">
<title>Node16_1&#45;&gt;Node18_1</title>
<path fill="none" stroke="black" d="M639,-394.27C639,-407.58 639,-423.19 639,-434.82"/>
<polygon fill="black" stroke="black" points="642.5,-394.2 639,-384.2 635.5,-394.2 642.5,-394.2"/>
<text text-anchor="middle" x="650" y="-405.8" font-family="Times,serif" font-size="14.00">कर्ता</text>
</g>
<!-- Node19_1 -->
<g id="node23" class="node">
<title>Node19_1</title>
<ellipse fill="#00bfff" stroke="#00bfff" cx="1160" cy="-192" rx="59.29" ry="18"/>
<text text-anchor="middle" x="1160" y="-188.3" font-family="Times,serif" font-size="14.00">स्थानम्(19.1)</text>
</g>
<!-- Node19_1&#45;&gt;Node22_1 -->
<g id="edge24" class="edge">
<title>Node19_1&#45;&gt;Node22_1</title>
<path fill="none" stroke="black" d="M1143.9,-218.34C1135.16,-232.1 1124.59,-248.74 1116.83,-260.95"/>
<polygon fill="black" stroke="black" points="1146.92,-220.11 1149.33,-209.79 1141.01,-216.36 1146.92,-220.11"/>
<text text-anchor="middle" x="1145" y="-231.8" font-family="Times,serif" font-size="14.00">कर्म</text>
</g>
<!-- Node20_1 -->
<g id="node24" class="node">
<title>Node20_1</title>
<ellipse fill="#ff99ff" stroke="#ff99ff" cx="1160" cy="-105" rx="43.59" ry="18"/>
<text text-anchor="middle" x="1160" y="-101.3" font-family="Times,serif" font-size="14.00">च(20.1)</text>
</g>
<!-- Node20_1&#45;&gt;Node19_1 -->
<g id="edge25" class="edge">
<title>Node20_1&#45;&gt;Node19_1</title>
<path fill="none" stroke="black" d="M1160,-133.27C1160,-146.58 1160,-162.19 1160,-173.82"/>
<polygon fill="black" stroke="black" points="1163.5,-133.2 1160,-123.2 1156.5,-133.2 1163.5,-133.2"/>
<text text-anchor="middle" x="1178.5" y="-144.8" font-family="Times,serif" font-size="14.00">सम्बन्धः</text>
</g>
<!-- Node21_1 -->
<g id="node25" class="node">
<title>Node21_1</title>
<ellipse fill="#ff99ff" stroke="#ff99ff" cx="1280" cy="-192" rx="42.79" ry="18"/>
<text text-anchor="middle" x="1280" y="-188.3" font-family="Times,serif" font-size="14.00">न(21.1)</text>
</g>
<!-- Node21_1&#45;&gt;Node22_1 -->
<g id="edge26" class="edge">
<title>Node21_1&#45;&gt;Node22_1</title>
<path fill="none" stroke="black" d="M1243.87,-210.65C1212.28,-226.08 1166.9,-248.25 1136.95,-262.88"/>
<polygon fill="black" stroke="black" points="1245.74,-213.63 1253.19,-206.09 1242.67,-207.34 1245.74,-213.63"/>
<text text-anchor="middle" x="1222.5" y="-231.8" font-family="Times,serif" font-size="14.00">प्रतिषेधः</text>
</g>
</g>
</svg>
