<?xml version="1.0" encoding="UTF-8" standalone="no"?>
<!DOCTYPE svg PUBLIC "-//W3C//DTD SVG 1.1//EN"
 "http://www.w3.org/Graphics/SVG/1.1/DTD/svg11.dtd">
<!-- Generated by graphviz version 2.43.0 (0)
 -->
<!-- Title: G Pages: 1 -->
<svg width="1618pt" height="392pt"
 viewBox="0.00 0.00 1618.00 392.00" xmlns="http://www.w3.org/2000/svg" xmlns:xlink="http://www.w3.org/1999/xlink">
<g id="graph0" class="graph" transform="scale(1 1) rotate(0) translate(4 388)">
<title>G</title>
<polygon fill="#fffacd" stroke="transparent" points="-4,4 -4,-388 1614,-388 1614,4 -4,4"/>
<g id="clust1" class="cluster">
<title>cluster_1</title>
<polygon fill="#fffacd" stroke="black" points="8,-166 8,-305 120,-305 120,-166 8,-166"/>
</g>
<g id="clust2" class="cluster">
<title>cluster_2</title>
<polygon fill="#fffacd" stroke="black" points="538,-79 538,-305 932,-305 932,-79 538,-79"/>
</g>
<g id="clust3" class="cluster">
<title>cluster_3</title>
<polygon fill="#fffacd" stroke="black" points="1328,-79 1328,-218 1602,-218 1602,-79 1328,-79"/>
</g>
<!-- Node2_2 -->
<g id="node1" class="node">
<title>Node2_2</title>
<ellipse fill="#00bfff" stroke="#00bfff" cx="64" cy="-192" rx="47.39" ry="18"/>
<text text-anchor="middle" x="64" y="-188.3" font-family="Times,serif" font-size="14.00">फला(2.2)</text>
</g>
<!-- Node1_1 -->
<g id="node2" class="node">
<title>Node1_1</title>
<ellipse fill="#00bfff" stroke="#00bfff" cx="64" cy="-279" rx="48.19" ry="18"/>
<text text-anchor="middle" x="64" y="-275.3" font-family="Times,serif" font-size="14.00">भूमिः(1.1)</text>
</g>
<!-- Node2_2&#45;&gt;Node1_1 -->
<g id="edge3" class="edge">
<title>Node2_2&#45;&gt;Node1_1</title>
<path fill="none" stroke="black" d="M64,-220.27C64,-233.58 64,-249.19 64,-260.82"/>
<polygon fill="black" stroke="black" points="67.5,-220.2 64,-210.2 60.5,-220.2 67.5,-220.2"/>
<text text-anchor="middle" x="86.5" y="-231.8" font-family="Times,serif" font-size="14.00">विशेषणम्</text>
</g>
<!-- Node3_1 -->
<g id="node11" class="node">
<title>Node3_1</title>
<ellipse fill="#00bfff" stroke="#00bfff" cx="259" cy="-366" rx="44.39" ry="18"/>
<text text-anchor="middle" x="259" y="-362.3" font-family="Times,serif" font-size="14.00">देया(3.1)</text>
</g>
<!-- Node1_1&#45;&gt;Node3_1 -->
<g id="edge1" class="edge">
<title>Node1_1&#45;&gt;Node3_1</title>
<path fill="none" stroke="black" d="M103.12,-297.18C109.1,-299.8 115.22,-302.47 121,-305 158.59,-321.41 201.98,-340.26 229.91,-352.39"/>
<polygon fill="black" stroke="black" points="104.43,-293.93 93.87,-293.12 101.62,-300.34 104.43,-293.93"/>
<text text-anchor="middle" x="187" y="-318.8" font-family="Times,serif" font-size="14.00">कर्म</text>
</g>
<!-- Node6_1 -->
<g id="node3" class="node">
<title>Node6_1</title>
<ellipse fill="#00bfff" stroke="#00bfff" cx="873" cy="-192" rx="51.19" ry="18"/>
<text text-anchor="middle" x="873" y="-188.3" font-family="Times,serif" font-size="14.00">हिरण्यं(6.1)</text>
</g>
<!-- Node8_1 -->
<g id="node4" class="node">
<title>Node8_1</title>
<ellipse fill="#93db70" stroke="#93db70" cx="665" cy="-279" rx="44.69" ry="18"/>
<text text-anchor="middle" x="665" y="-275.3" font-family="Times,serif" font-size="14.00">मित्रं(8.1)</text>
</g>
<!-- Node6_1&#45;&gt;Node8_1 -->
<g id="edge6" class="edge">
<title>Node6_1&#45;&gt;Node8_1</title>
<path fill="none" stroke="black" d="M834.28,-211.32C813.1,-221.12 786.29,-233.16 762,-243 740.93,-251.53 716.89,-260.21 698.01,-266.8"/>
<polygon fill="black" stroke="black" points="835.99,-214.39 843.59,-206.99 833.04,-208.04 835.99,-214.39"/>
<text text-anchor="middle" x="817.5" y="-231.8" font-family="Times,serif" font-size="14.00">समुच्चितः</text>
</g>
<!-- Node10_2 -->
<g id="node16" class="node">
<title>Node10_2</title>
<ellipse fill="#00bfff" stroke="#00bfff" cx="547" cy="-366" rx="59.29" ry="18"/>
<text text-anchor="middle" x="547" y="-362.3" font-family="Times,serif" font-size="14.00">(देयम्)(10.2)</text>
</g>
<!-- Node8_1&#45;&gt;Node10_2 -->
<g id="edge9" class="edge">
<title>Node8_1&#45;&gt;Node10_2</title>
<path fill="none" stroke="black" d="M635.8,-301.04C615.21,-315.87 588.05,-335.43 569.22,-348.99"/>
<polygon fill="black" stroke="black" points="638.11,-303.69 644.18,-295 634.02,-298.01 638.11,-303.69"/>
<text text-anchor="middle" x="623" y="-318.8" font-family="Times,serif" font-size="14.00">कर्म</text>
</g>
<!-- Node7_2 -->
<g id="node5" class="node">
<title>Node7_2</title>
<ellipse fill="#00bfff" stroke="#00bfff" cx="873" cy="-105" rx="50.09" ry="18"/>
<text text-anchor="middle" x="873" y="-101.3" font-family="Times,serif" font-size="14.00">भूयिष्ठं(7.2)</text>
</g>
<!-- Node7_2&#45;&gt;Node6_1 -->
<g id="edge8" class="edge">
<title>Node7_2&#45;&gt;Node6_1</title>
<path fill="none" stroke="black" d="M873,-133.27C873,-146.58 873,-162.19 873,-173.82"/>
<polygon fill="black" stroke="black" points="876.5,-133.2 873,-123.2 869.5,-133.2 876.5,-133.2"/>
<text text-anchor="middle" x="895.5" y="-144.8" font-family="Times,serif" font-size="14.00">विशेषणम्</text>
</g>
<!-- Node9_1 -->
<g id="node6" class="node">
<title>Node9_1</title>
<ellipse fill="#93db70" stroke="#93db70" cx="752" cy="-192" rx="51.99" ry="18"/>
<text text-anchor="middle" x="752" y="-188.3" font-family="Times,serif" font-size="14.00">क्षीणम्(9.1)</text>
</g>
<!-- Node9_1&#45;&gt;Node8_1 -->
<g id="edge10" class="edge">
<title>Node9_1&#45;&gt;Node8_1</title>
<path fill="none" stroke="black" d="M727.88,-216.56C713.09,-231.02 694.54,-249.14 681.43,-261.95"/>
<polygon fill="black" stroke="black" points="730.52,-218.88 735.23,-209.39 725.63,-213.87 730.52,-218.88"/>
<text text-anchor="middle" x="735.5" y="-231.8" font-family="Times,serif" font-size="14.00">विशेषणम्</text>
</g>
<!-- Node10_1 -->
<g id="node7" class="node">
<title>Node10_1</title>
<ellipse fill="#ff99ff" stroke="#ff99ff" cx="614" cy="-192" rx="68.49" ry="18"/>
<text text-anchor="middle" x="614" y="-188.3" font-family="Times,serif" font-size="14.00">अकोशवत्(10.1)</text>
</g>
<!-- Node10_1&#45;&gt;Node8_1 -->
<g id="edge11" class="edge">
<title>Node10_1&#45;&gt;Node8_1</title>
<path fill="none" stroke="black" d="M629.49,-218.81C637.79,-232.65 647.78,-249.29 655.04,-261.4"/>
<polygon fill="black" stroke="black" points="632.47,-216.98 624.32,-210.2 626.46,-220.58 632.47,-216.98"/>
<text text-anchor="middle" x="665.5" y="-231.8" font-family="Times,serif" font-size="14.00">विशेषणम्</text>
</g>
<!-- Node14_1 -->
<g id="node8" class="node">
<title>Node14_1</title>
<ellipse fill="#ff99ff" stroke="#ff99ff" cx="1538" cy="-105" rx="55.79" ry="18"/>
<text text-anchor="middle" x="1538" y="-101.3" font-family="Times,serif" font-size="14.00">स्वयम्(14.1)</text>
</g>
<!-- Node14_2 -->
<g id="node9" class="node">
<title>Node14_2</title>
<ellipse fill="#00bfff" stroke="#00bfff" cx="1401" cy="-192" rx="64.19" ry="18"/>
<text text-anchor="middle" x="1401" y="-188.3" font-family="Times,serif" font-size="14.00">(नृपतिः)(14.2)</text>
</g>
<!-- Node14_1&#45;&gt;Node14_2 -->
<g id="edge17" class="edge">
<title>Node14_1&#45;&gt;Node14_2</title>
<path fill="none" stroke="black" d="M1504.99,-126.48C1480.77,-141.51 1448.37,-161.61 1426.21,-175.36"/>
<polygon fill="black" stroke="black" points="1506.86,-129.44 1513.51,-121.2 1503.16,-123.49 1506.86,-129.44"/>
<text text-anchor="middle" x="1499.5" y="-144.8" font-family="Times,serif" font-size="14.00">विशेषणम्</text>
</g>
<!-- Node13_1 -->
<g id="node19" class="node">
<title>Node13_1</title>
<ellipse fill="#ff1975" stroke="#ff1975" cx="1198" cy="-279" rx="62.29" ry="18"/>
<text text-anchor="middle" x="1198" y="-275.3" font-family="Times,serif" font-size="14.00">गृह्णीयात्(13.1)</text>
</g>
<!-- Node14_2&#45;&gt;Node13_1 -->
<g id="edge18" class="edge">
<title>Node14_2&#45;&gt;Node13_1</title>
<path fill="none" stroke="black" d="M1356.9,-211.47C1319.36,-227.18 1266.22,-249.44 1231.93,-263.79"/>
<polygon fill="black" stroke="black" points="1358.69,-214.51 1366.56,-207.42 1355.99,-208.05 1358.69,-214.51"/>
<text text-anchor="middle" x="1322" y="-231.8" font-family="Times,serif" font-size="14.00">कर्ता</text>
</g>
<!-- Node15_2 -->
<g id="node10" class="node">
<title>Node15_2</title>
<ellipse fill="#00bfff" stroke="#00bfff" cx="1400" cy="-105" rx="63.89" ry="18"/>
<text text-anchor="middle" x="1400" y="-101.3" font-family="Times,serif" font-size="14.00">विशारदः(15.2)</text>
</g>
<!-- Node15_2&#45;&gt;Node14_2 -->
<g id="edge20" class="edge">
<title>Node15_2&#45;&gt;Node14_2</title>
<path fill="none" stroke="black" d="M1400.32,-133.27C1400.48,-146.58 1400.66,-162.19 1400.8,-173.82"/>
<polygon fill="black" stroke="black" points="1403.82,-133.16 1400.2,-123.2 1396.82,-133.24 1403.82,-133.16"/>
<text text-anchor="middle" x="1422.5" y="-144.8" font-family="Times,serif" font-size="14.00">विशेषणम्</text>
</g>
<!-- Node2_1 -->
<g id="node12" class="node">
<title>Node2_1</title>
<ellipse fill="#ffff00" stroke="#ffff00" cx="64" cy="-105" rx="50.09" ry="18"/>
<text text-anchor="middle" x="64" y="-101.3" font-family="Times,serif" font-size="14.00">अल्प&#45;(2.1)</text>
</g>
<!-- Node2_1&#45;&gt;Node2_2 -->
<g id="edge2" class="edge">
<title>Node2_1&#45;&gt;Node2_2</title>
<path fill="none" stroke="black" d="M64,-133.27C64,-146.58 64,-162.19 64,-173.82"/>
<polygon fill="black" stroke="black" points="67.5,-133.2 64,-123.2 60.5,-133.2 67.5,-133.2"/>
<text text-anchor="middle" x="81" y="-144.8" font-family="Times,serif" font-size="14.00">समासः</text>
</g>
<!-- Node4_1 -->
<g id="node13" class="node">
<title>Node4_1</title>
<ellipse fill="#87ceeb" stroke="#87ceeb" cx="194" cy="-279" rx="63.89" ry="18"/>
<text text-anchor="middle" x="194" y="-275.3" font-family="Times,serif" font-size="14.00">विपरीतस्य(4.1)</text>
</g>
<!-- Node4_1&#45;&gt;Node3_1 -->
<g id="edge4" class="edge">
<title>Node4_1&#45;&gt;Node3_1</title>
<path fill="none" stroke="black" d="M213.17,-305.06C223.9,-319.09 236.97,-336.19 246.41,-348.53"/>
<polygon fill="black" stroke="black" points="215.7,-302.61 206.84,-296.79 210.14,-306.86 215.7,-302.61"/>
<text text-anchor="middle" x="254.5" y="-318.8" font-family="Times,serif" font-size="14.00">सम्प्रदानम्</text>
</g>
<!-- Node5_1 -->
<g id="node14" class="node">
<title>Node5_1</title>
<ellipse fill="#6fffc3" stroke="#6fffc3" cx="324" cy="-279" rx="48.99" ry="18"/>
<text text-anchor="middle" x="324" y="-275.3" font-family="Times,serif" font-size="14.00">भारत(5.1)</text>
</g>
<!-- Node5_1&#45;&gt;Node3_1 -->
<g id="edge5" class="edge">
<title>Node5_1&#45;&gt;Node3_1</title>
<path fill="none" stroke="black" d="M304.83,-305.06C294.1,-319.09 281.03,-336.19 271.59,-348.53"/>
<polygon fill="black" stroke="black" points="307.86,-306.86 311.16,-296.79 302.3,-302.61 307.86,-306.86"/>
<text text-anchor="middle" x="317" y="-318.8" font-family="Times,serif" font-size="14.00">सम्बोध्यः</text>
</g>
<!-- Node7_1 -->
<g id="node15" class="node">
<title>Node7_1</title>
<ellipse fill="#ffff00" stroke="#ffff00" cx="873" cy="-18" rx="49.29" ry="18"/>
<text text-anchor="middle" x="873" y="-14.3" font-family="Times,serif" font-size="14.00">कुप्य&#45;(7.1)</text>
</g>
<!-- Node7_1&#45;&gt;Node7_2 -->
<g id="edge7" class="edge">
<title>Node7_1&#45;&gt;Node7_2</title>
<path fill="none" stroke="black" d="M873,-46.27C873,-59.58 873,-75.19 873,-86.82"/>
<polygon fill="black" stroke="black" points="876.5,-46.2 873,-36.2 869.5,-46.2 876.5,-46.2"/>
<text text-anchor="middle" x="890" y="-57.8" font-family="Times,serif" font-size="14.00">समासः</text>
</g>
<!-- Node10_3 -->
<g id="node17" class="node">
<title>Node10_3</title>
<ellipse fill="#40e0d0" stroke="#40e0d0" cx="460" cy="-279" rx="69.59" ry="18"/>
<text text-anchor="middle" x="460" y="-275.3" font-family="Times,serif" font-size="14.00">(नृपतिना)(10.3)</text>
</g>
<!-- Node10_3&#45;&gt;Node3_1 -->
<g id="edge12" class="edge">
<title>Node10_3&#45;&gt;Node3_1</title>
<path fill="none" stroke="black" d="M415.93,-298.69C393.76,-308.1 366.46,-319.66 342,-330 324.28,-337.49 304.43,-345.86 288.58,-352.54"/>
<polygon fill="black" stroke="black" points="417.57,-301.8 425.41,-294.67 414.84,-295.36 417.57,-301.8"/>
<text text-anchor="middle" x="386" y="-318.8" font-family="Times,serif" font-size="14.00">कर्ता</text>
</g>
<!-- Node10_3&#45;&gt;Node10_2 -->
<g id="edge13" class="edge">
<title>Node10_3&#45;&gt;Node10_2</title>
<path fill="none" stroke="black" stroke-dasharray="1,5" d="M484.44,-303.88C499.02,-318.12 517.16,-335.84 530.14,-348.53"/>
<polygon fill="black" stroke="black" points="486.79,-301.28 477.19,-296.79 481.9,-306.29 486.79,-301.28"/>
<text text-anchor="middle" x="520" y="-318.8" font-family="Times,serif" font-size="14.00">कर्ता</text>
</g>
<!-- Node11_1 -->
<g id="node18" class="node">
<title>Node11_1</title>
<ellipse fill="#b4ffb4" stroke="#b4ffb4" cx="1010" cy="-192" rx="67.69" ry="18"/>
<text text-anchor="middle" x="1010" y="-188.3" font-family="Times,serif" font-size="14.00">विपरीतात्(11.1)</text>
</g>
<!-- Node11_1&#45;&gt;Node13_1 -->
<g id="edge14" class="edge">
<title>Node11_1&#45;&gt;Node13_1</title>
<path fill="none" stroke="black" d="M1048.99,-212.63C1068.15,-222.09 1091.64,-233.43 1113,-243 1129.17,-250.24 1147.29,-257.79 1162.64,-264.01"/>
<polygon fill="black" stroke="black" points="1050.48,-209.46 1039.97,-208.15 1047.37,-215.73 1050.48,-209.46"/>
<text text-anchor="middle" x="1136.5" y="-231.8" font-family="Times,serif" font-size="14.00">अपादानम्</text>
</g>
<!-- Node12_1 -->
<g id="node20" class="node">
<title>Node12_1</title>
<ellipse fill="#ff99ff" stroke="#ff99ff" cx="1138" cy="-192" rx="42.79" ry="18"/>
<text text-anchor="middle" x="1138" y="-188.3" font-family="Times,serif" font-size="14.00">न(12.1)</text>
</g>
<!-- Node12_1&#45;&gt;Node13_1 -->
<g id="edge15" class="edge">
<title>Node12_1&#45;&gt;Node13_1</title>
<path fill="none" stroke="black" d="M1155.36,-217.6C1165.21,-231.54 1177.28,-248.64 1186.06,-261.08"/>
<polygon fill="black" stroke="black" points="1158.19,-215.54 1149.57,-209.39 1152.48,-219.58 1158.19,-215.54"/>
<text text-anchor="middle" x="1190.5" y="-231.8" font-family="Times,serif" font-size="14.00">प्रतिषेधः</text>
</g>
<!-- Node13_2 -->
<g id="node21" class="node">
<title>Node13_2</title>
<ellipse fill="#00bfff" stroke="#00bfff" cx="1259" cy="-192" rx="59.59" ry="18"/>
<text text-anchor="middle" x="1259" y="-188.3" font-family="Times,serif" font-size="14.00">(एतत्)(13.2)</text>
</g>
<!-- Node13_2&#45;&gt;Node13_1 -->
<g id="edge16" class="edge">
<title>Node13_2&#45;&gt;Node13_1</title>
<path fill="none" stroke="black" d="M1241.05,-218.01C1231.06,-231.94 1218.88,-248.91 1210.03,-261.24"/>
<polygon fill="black" stroke="black" points="1243.96,-219.96 1246.95,-209.79 1238.27,-215.88 1243.96,-219.96"/>
<text text-anchor="middle" x="1241" y="-231.8" font-family="Times,serif" font-size="14.00">कर्म</text>
</g>
<!-- Node15_1 -->
<g id="node22" class="node">
<title>Node15_1</title>
<ellipse fill="#ffff00" stroke="#ffff00" cx="1400" cy="-18" rx="57.39" ry="18"/>
<text text-anchor="middle" x="1400" y="-14.3" font-family="Times,serif" font-size="14.00">सन्धि&#45;(15.1)</text>
</g>
<!-- Node15_1&#45;&gt;Node15_2 -->
<g id="edge19" class="edge">
<title>Node15_1&#45;&gt;Node15_2</title>
<path fill="none" stroke="black" d="M1400,-46.27C1400,-59.58 1400,-75.19 1400,-86.82"/>
<polygon fill="black" stroke="black" points="1403.5,-46.2 1400,-36.2 1396.5,-46.2 1403.5,-46.2"/>
<text text-anchor="middle" x="1417" y="-57.8" font-family="Times,serif" font-size="14.00">समासः</text>
</g>
</g>
</svg>
