<?xml version="1.0" encoding="UTF-8" standalone="no"?>
<!DOCTYPE svg PUBLIC "-//W3C//DTD SVG 1.1//EN"
 "http://www.w3.org/Graphics/SVG/1.1/DTD/svg11.dtd">
<!-- Generated by graphviz version 2.43.0 (0)
 -->
<!-- Title: G Pages: 1 -->
<svg width="403pt" height="218pt"
 viewBox="0.00 0.00 402.99 218.00" xmlns="http://www.w3.org/2000/svg" xmlns:xlink="http://www.w3.org/1999/xlink">
<g id="graph0" class="graph" transform="scale(1 1) rotate(0) translate(4 214)">
<title>G</title>
<polygon fill="#fffacd" stroke="transparent" points="-4,4 -4,-214 398.99,-214 398.99,4 -4,4"/>
<!-- Node1_1 -->
<g id="node1" class="node">
<title>Node1_1</title>
<ellipse fill="#87ceeb" stroke="#87ceeb" cx="57.84" cy="-18" rx="57.69" ry="18"/>
<text text-anchor="middle" x="57.84" y="-14.3" font-family="Times,serif" font-size="14.00">प्रकृतीनां(1.1)</text>
</g>
<!-- Node4_1 -->
<g id="node2" class="node">
<title>Node4_1</title>
<ellipse fill="#00bfff" stroke="#00bfff" cx="114.84" cy="-105" rx="46.29" ry="18"/>
<text text-anchor="middle" x="114.84" y="-101.3" font-family="Times,serif" font-size="14.00">राजा(4.1)</text>
</g>
<!-- Node1_1&#45;&gt;Node4_1 -->
<g id="edge1" class="edge">
<title>Node1_1&#45;&gt;Node4_1</title>
<path fill="none" stroke="black" d="M74.88,-44.4C84.17,-58.26 95.42,-75.03 103.61,-87.24"/>
<polygon fill="black" stroke="black" points="77.58,-42.15 69.11,-35.79 71.77,-46.05 77.58,-42.15"/>
<text text-anchor="middle" x="117.34" y="-57.8" font-family="Times,serif" font-size="14.00">षष्ठीसम्बन्धः</text>
</g>
<!-- Node6_1 -->
<g id="node5" class="node">
<title>Node6_1</title>
<ellipse fill="#ff1975" stroke="#ff1975" cx="231.84" cy="-192" rx="61.99" ry="18"/>
<text text-anchor="middle" x="231.84" y="-188.3" font-family="Times,serif" font-size="14.00">विभावयेत्(6.1)</text>
</g>
<!-- Node4_1&#45;&gt;Node6_1 -->
<g id="edge4" class="edge">
<title>Node4_1&#45;&gt;Node6_1</title>
<path fill="none" stroke="black" d="M144.08,-127.24C164.5,-142.07 191.32,-161.56 209.92,-175.07"/>
<polygon fill="black" stroke="black" points="145.91,-124.24 135.76,-121.2 141.8,-129.91 145.91,-124.24"/>
<text text-anchor="middle" x="190.84" y="-144.8" font-family="Times,serif" font-size="14.00">कर्ता</text>
</g>
<!-- Node2_1 -->
<g id="node3" class="node">
<title>Node2_1</title>
<ellipse fill="#ff99ff" stroke="#ff99ff" cx="171.84" cy="-18" rx="37.89" ry="18"/>
<text text-anchor="middle" x="171.84" y="-14.3" font-family="Times,serif" font-size="14.00">च(2.1)</text>
</g>
<!-- Node2_1&#45;&gt;Node4_1 -->
<g id="edge2" class="edge">
<title>Node2_1&#45;&gt;Node4_1</title>
<path fill="none" stroke="black" d="M161.79,-45.23C158.22,-53.18 153.84,-61.72 148.84,-69 144.15,-75.85 138.07,-82.58 132.35,-88.28"/>
<polygon fill="black" stroke="black" points="165.04,-46.54 165.72,-35.97 158.59,-43.81 165.04,-46.54"/>
<text text-anchor="middle" x="191.84" y="-57.8" font-family="Times,serif" font-size="14.00">समुच्चयद्योतकः</text>
</g>
<!-- Node3_1 -->
<g id="node4" class="node">
<title>Node3_1</title>
<ellipse fill="#6fffc3" stroke="#6fffc3" cx="231.84" cy="-105" rx="53.09" ry="18"/>
<text text-anchor="middle" x="231.84" y="-101.3" font-family="Times,serif" font-size="14.00">कौन्तेय(3.1)</text>
</g>
<!-- Node3_1&#45;&gt;Node6_1 -->
<g id="edge3" class="edge">
<title>Node3_1&#45;&gt;Node6_1</title>
<path fill="none" stroke="black" d="M231.84,-133.27C231.84,-146.58 231.84,-162.19 231.84,-173.82"/>
<polygon fill="black" stroke="black" points="235.34,-133.2 231.84,-123.2 228.34,-133.2 235.34,-133.2"/>
<text text-anchor="middle" x="252.84" y="-144.8" font-family="Times,serif" font-size="14.00">सम्बोध्यः</text>
</g>
<!-- Node5_1 -->
<g id="node6" class="node">
<title>Node5_1</title>
<ellipse fill="#93db70" stroke="#93db70" cx="348.84" cy="-105" rx="46.29" ry="18"/>
<text text-anchor="middle" x="348.84" y="-101.3" font-family="Times,serif" font-size="14.00">दीनां(5.1)</text>
</g>
<!-- Node5_1&#45;&gt;Node6_1 -->
<g id="edge5" class="edge">
<title>Node5_1&#45;&gt;Node6_1</title>
<path fill="none" stroke="black" d="M319.61,-127.24C299.19,-142.07 272.37,-161.56 253.77,-175.07"/>
<polygon fill="black" stroke="black" points="321.89,-129.91 327.93,-121.2 317.78,-124.24 321.89,-129.91"/>
<text text-anchor="middle" x="305.84" y="-144.8" font-family="Times,serif" font-size="14.00">कर्म</text>
</g>
</g>
</svg>
