<?xml version="1.0" encoding="UTF-8" standalone="no"?>
<!DOCTYPE svg PUBLIC "-//W3C//DTD SVG 1.1//EN"
 "http://www.w3.org/Graphics/SVG/1.1/DTD/svg11.dtd">
<!-- Generated by graphviz version 2.43.0 (0)
 -->
<!-- Title: G Pages: 1 -->
<svg width="1207pt" height="395pt"
 viewBox="0.00 0.00 1206.89 395.00" xmlns="http://www.w3.org/2000/svg" xmlns:xlink="http://www.w3.org/1999/xlink">
<g id="graph0" class="graph" transform="scale(1 1) rotate(0) translate(4 391)">
<title>G</title>
<polygon fill="#fffacd" stroke="transparent" points="-4,4 -4,-391 1202.89,-391 1202.89,4 -4,4"/>
<g id="clust1" class="cluster">
<title>cluster_1</title>
<polygon fill="#fffacd" stroke="black" points="970.05,-166 970.05,-305 1110.05,-305 1110.05,-166 970.05,-166"/>
</g>
<!-- Node20_1 -->
<g id="node1" class="node">
<title>Node20_1</title>
<ellipse fill="#ff1975" stroke="#ff1975" cx="1040.05" cy="-192" rx="62.29" ry="18"/>
<text text-anchor="middle" x="1040.05" y="-188.3" font-family="Times,serif" font-size="14.00">(अस्ति)(20.1)</text>
</g>
<!-- Node19_1 -->
<g id="node2" class="node">
<title>Node19_1</title>
<ellipse fill="#ff1975" stroke="#ff1975" cx="1040.05" cy="-279" rx="62.29" ry="18"/>
<text text-anchor="middle" x="1040.05" y="-275.3" font-family="Times,serif" font-size="14.00">(अस्ति)(19.1)</text>
</g>
<!-- Node20_1&#45;&gt;Node19_1 -->
<g id="edge25" class="edge">
<title>Node20_1&#45;&gt;Node19_1</title>
<path fill="none" stroke="black" d="M1040.05,-220.27C1040.05,-233.58 1040.05,-249.19 1040.05,-260.82"/>
<polygon fill="black" stroke="black" points="1043.55,-220.2 1040.05,-210.2 1036.55,-220.2 1043.55,-220.2"/>
<text text-anchor="middle" x="1062.55" y="-231.8" font-family="Times,serif" font-size="14.00">समुच्चितः</text>
</g>
<!-- Node1_1 -->
<g id="node3" class="node">
<title>Node1_1</title>
<ellipse fill="#ff99ff" stroke="#ff99ff" cx="837.05" cy="-366" rx="44.39" ry="18"/>
<text text-anchor="middle" x="837.05" y="-362.3" font-family="Times,serif" font-size="14.00">यदा(1.1)</text>
</g>
<!-- Node19_1&#45;&gt;Node1_1 -->
<g id="edge24" class="edge">
<title>Node19_1&#45;&gt;Node1_1</title>
<path fill="none" stroke="black" d="M970.04,-285.75C940.96,-290.52 907.83,-299.2 881.05,-315 867.3,-323.11 855.59,-337 847.71,-348.09"/>
<polygon fill="black" stroke="black" points="970.77,-289.18 980.14,-284.22 969.73,-282.26 970.77,-289.18"/>
<text text-anchor="middle" x="902.05" y="-318.8" font-family="Times,serif" font-size="14.00">प्रतियोगी</text>
</g>
<!-- Node1_1&#45;&gt;Node19_1 -->
<g id="edge1" class="edge">
<title>Node1_1&#45;&gt;Node19_1</title>
<path fill="none" stroke="black" d="M876.46,-348.5C914.13,-332.72 970.32,-309.19 1006.07,-294.23"/>
<polygon fill="black" stroke="black" points="874.71,-345.44 866.83,-352.53 877.41,-351.89 874.71,-345.44"/>
<text text-anchor="middle" x="986.55" y="-318.8" font-family="Times,serif" font-size="14.00">कालाधिकरणम्</text>
</g>
<!-- Node2_1 -->
<g id="node4" class="node">
<title>Node2_1</title>
<ellipse fill="#ffff00" stroke="#ffff00" cx="670.05" cy="-105" rx="43.59" ry="18"/>
<text text-anchor="middle" x="670.05" y="-101.3" font-family="Times,serif" font-size="14.00">स्व&#45;(2.1)</text>
</g>
<!-- Node2_2 -->
<g id="node5" class="node">
<title>Node2_2</title>
<ellipse fill="#00bfff" stroke="#00bfff" cx="670.05" cy="-192" rx="46.29" ry="18"/>
<text text-anchor="middle" x="670.05" y="-188.3" font-family="Times,serif" font-size="14.00">पक्षः(2.2)</text>
</g>
<!-- Node2_1&#45;&gt;Node2_2 -->
<g id="edge2" class="edge">
<title>Node2_1&#45;&gt;Node2_2</title>
<path fill="none" stroke="black" d="M670.05,-133.27C670.05,-146.58 670.05,-162.19 670.05,-173.82"/>
<polygon fill="black" stroke="black" points="673.55,-133.2 670.05,-123.2 666.55,-133.2 673.55,-133.2"/>
<text text-anchor="middle" x="687.05" y="-144.8" font-family="Times,serif" font-size="14.00">समासः</text>
</g>
<!-- Node2_2&#45;&gt;Node19_1 -->
<g id="edge3" class="edge">
<title>Node2_2&#45;&gt;Node19_1</title>
<path fill="none" stroke="black" d="M709.72,-209.48C737.41,-220.4 775.46,-234.28 810.05,-243 867.62,-257.52 934.91,-266.9 981.77,-272.26"/>
<polygon fill="black" stroke="black" points="710.97,-206.21 700.38,-205.75 708.37,-212.71 710.97,-206.21"/>
<text text-anchor="middle" x="821.05" y="-231.8" font-family="Times,serif" font-size="14.00">कर्ता</text>
</g>
<!-- Node3_1 -->
<g id="node6" class="node">
<title>Node3_1</title>
<ellipse fill="#00bfff" stroke="#00bfff" cx="788.05" cy="-192" rx="53.89" ry="18"/>
<text text-anchor="middle" x="788.05" y="-188.3" font-family="Times,serif" font-size="14.00">बलवान्(3.1)</text>
</g>
<!-- Node3_1&#45;&gt;Node19_1 -->
<g id="edge4" class="edge">
<title>Node3_1&#45;&gt;Node19_1</title>
<path fill="none" stroke="black" d="M816.01,-214.84C830.03,-224.81 847.69,-235.93 865.05,-243 902.49,-258.25 947.24,-267.04 982.11,-272.01"/>
<polygon fill="black" stroke="black" points="817.92,-211.91 807.78,-208.84 813.79,-217.56 817.92,-211.91"/>
<text text-anchor="middle" x="904.05" y="-231.8" font-family="Times,serif" font-size="14.00">विधेय_विशेषणम्</text>
</g>
<!-- Node4_1 -->
<g id="node7" class="node">
<title>Node4_1</title>
<ellipse fill="#ffff00" stroke="#ffff00" cx="1048.05" cy="-18" rx="43.59" ry="18"/>
<text text-anchor="middle" x="1048.05" y="-14.3" font-family="Times,serif" font-size="14.00">पर&#45;(4.1)</text>
</g>
<!-- Node4_2 -->
<g id="node8" class="node">
<title>Node4_2</title>
<ellipse fill="#00bfff" stroke="#00bfff" cx="1101.05" cy="-105" rx="46.29" ry="18"/>
<text text-anchor="middle" x="1101.05" y="-101.3" font-family="Times,serif" font-size="14.00">पक्षः(4.2)</text>
</g>
<!-- Node4_1&#45;&gt;Node4_2 -->
<g id="edge5" class="edge">
<title>Node4_1&#45;&gt;Node4_2</title>
<path fill="none" stroke="black" d="M1063.88,-44.4C1072.52,-58.26 1082.98,-75.03 1090.6,-87.24"/>
<polygon fill="black" stroke="black" points="1066.78,-42.43 1058.52,-35.79 1060.84,-46.13 1066.78,-42.43"/>
<text text-anchor="middle" x="1094.05" y="-57.8" font-family="Times,serif" font-size="14.00">समासः</text>
</g>
<!-- Node4_2&#45;&gt;Node20_1 -->
<g id="edge6" class="edge">
<title>Node4_2&#45;&gt;Node20_1</title>
<path fill="none" stroke="black" d="M1087.53,-131.74C1082.95,-139.74 1077.59,-148.44 1072.05,-156 1067.37,-162.37 1061.7,-168.89 1056.44,-174.54"/>
<polygon fill="black" stroke="black" points="1090.71,-133.21 1092.49,-122.77 1084.59,-129.82 1090.71,-133.21"/>
<text text-anchor="middle" x="1092.05" y="-144.8" font-family="Times,serif" font-size="14.00">कर्ता</text>
</g>
<!-- Node5_1 -->
<g id="node9" class="node">
<title>Node5_1</title>
<ellipse fill="#ff99ff" stroke="#ff99ff" cx="1154.05" cy="-18" rx="44.69" ry="18"/>
<text text-anchor="middle" x="1154.05" y="-14.3" font-family="Times,serif" font-size="14.00">तथा(5.1)</text>
</g>
<!-- Node5_1&#45;&gt;Node4_2 -->
<g id="edge7" class="edge">
<title>Node5_1&#45;&gt;Node4_2</title>
<path fill="none" stroke="black" d="M1138.21,-44.4C1129.57,-58.26 1119.11,-75.03 1111.49,-87.24"/>
<polygon fill="black" stroke="black" points="1141.25,-46.13 1143.57,-35.79 1135.31,-42.43 1141.25,-46.13"/>
<text text-anchor="middle" x="1148.55" y="-57.8" font-family="Times,serif" font-size="14.00">सम्बन्धः</text>
</g>
<!-- Node6_1 -->
<g id="node10" class="node">
<title>Node6_1</title>
<ellipse fill="#00bfff" stroke="#00bfff" cx="986.05" cy="-105" rx="51.19" ry="18"/>
<text text-anchor="middle" x="986.05" y="-101.3" font-family="Times,serif" font-size="14.00">अबलः(6.1)</text>
</g>
<!-- Node6_1&#45;&gt;Node20_1 -->
<g id="edge8" class="edge">
<title>Node6_1&#45;&gt;Node20_1</title>
<path fill="none" stroke="black" d="M986.67,-133.41C987.82,-141.13 990.01,-149.26 994.05,-156 998.69,-163.75 1005.75,-170.37 1012.96,-175.71"/>
<polygon fill="black" stroke="black" points="990.14,-132.9 985.69,-123.29 983.17,-133.58 990.14,-132.9"/>
<text text-anchor="middle" x="1033.05" y="-144.8" font-family="Times,serif" font-size="14.00">विधेय_विशेषणम्</text>
</g>
<!-- Node7_1 -->
<g id="node11" class="node">
<title>Node7_1</title>
<ellipse fill="#ff99ff" stroke="#ff99ff" cx="50.05" cy="-192" rx="50.09" ry="18"/>
<text text-anchor="middle" x="50.05" y="-188.3" font-family="Times,serif" font-size="14.00">विगृह्य(7.1)</text>
</g>
<!-- Node10_1 -->
<g id="node12" class="node">
<title>Node10_1</title>
<ellipse fill="#ff1975" stroke="#ff1975" cx="260.05" cy="-279" rx="57.69" ry="18"/>
<text text-anchor="middle" x="260.05" y="-275.3" font-family="Times,serif" font-size="14.00">यायात्(10.1)</text>
</g>
<!-- Node7_1&#45;&gt;Node10_1 -->
<g id="edge9" class="edge">
<title>Node7_1&#45;&gt;Node10_1</title>
<path fill="none" stroke="black" d="M89.57,-210.62C111.9,-220.43 140.4,-232.71 166.05,-243 184.95,-250.59 206.21,-258.55 223.73,-264.96"/>
<polygon fill="black" stroke="black" points="90.96,-207.41 80.4,-206.58 88.14,-213.82 90.96,-207.41"/>
<text text-anchor="middle" x="186.55" y="-231.8" font-family="Times,serif" font-size="14.00">पूर्वकालः</text>
</g>
<!-- Node12_1 -->
<g id="node15" class="node">
<title>Node12_1</title>
<ellipse fill="#ff99ff" stroke="#ff99ff" cx="286.05" cy="-366" rx="50.09" ry="18"/>
<text text-anchor="middle" x="286.05" y="-362.3" font-family="Times,serif" font-size="14.00">तदा(12.1)</text>
</g>
<!-- Node10_1&#45;&gt;Node12_1 -->
<g id="edge12" class="edge">
<title>Node10_1&#45;&gt;Node12_1</title>
<path fill="none" stroke="black" d="M268.27,-306.87C272.36,-320.27 277.2,-336.08 280.79,-347.82"/>
<polygon fill="black" stroke="black" points="271.58,-305.74 265.31,-297.2 264.89,-307.79 271.58,-305.74"/>
<text text-anchor="middle" x="295.05" y="-318.8" font-family="Times,serif" font-size="14.00">अनुयोगी</text>
</g>
<!-- Node8_1 -->
<g id="node13" class="node">
<title>Node8_1</title>
<ellipse fill="#93db70" stroke="#93db70" cx="50.05" cy="-105" rx="48.19" ry="18"/>
<text text-anchor="middle" x="50.05" y="-101.3" font-family="Times,serif" font-size="14.00">शत्रून्(8.1)</text>
</g>
<!-- Node8_1&#45;&gt;Node7_1 -->
<g id="edge10" class="edge">
<title>Node8_1&#45;&gt;Node7_1</title>
<path fill="none" stroke="black" d="M50.05,-133.27C50.05,-146.58 50.05,-162.19 50.05,-173.82"/>
<polygon fill="black" stroke="black" points="53.55,-133.2 50.05,-123.2 46.55,-133.2 53.55,-133.2"/>
<text text-anchor="middle" x="59.05" y="-144.8" font-family="Times,serif" font-size="14.00">कर्म</text>
</g>
<!-- Node9_1 -->
<g id="node14" class="node">
<title>Node9_1</title>
<ellipse fill="#6fffc3" stroke="#6fffc3" cx="171.05" cy="-192" rx="53.09" ry="18"/>
<text text-anchor="middle" x="171.05" y="-188.3" font-family="Times,serif" font-size="14.00">कौन्तेय(9.1)</text>
</g>
<!-- Node9_1&#45;&gt;Node10_1 -->
<g id="edge11" class="edge">
<title>Node9_1&#45;&gt;Node10_1</title>
<path fill="none" stroke="black" d="M195.67,-216.52C210.7,-230.87 229.53,-248.86 242.94,-261.66"/>
<polygon fill="black" stroke="black" points="197.85,-213.76 188.21,-209.39 193.02,-218.83 197.85,-213.76"/>
<text text-anchor="middle" x="242.05" y="-231.8" font-family="Times,serif" font-size="14.00">सम्बोध्यः</text>
</g>
<!-- Node12_1&#45;&gt;Node1_1 -->
<g id="edge16" class="edge">
<title>Node12_1&#45;&gt;Node1_1</title>
<path fill="none" stroke="red" stroke-dasharray="5,2" d="M333.38,-351.11C337.32,-350.01 341.24,-348.96 345.05,-348 402.4,-333.58 416.69,-327.81 475.55,-322 588.5,-310.86 720.82,-336.98 789.79,-353.59"/>
<polygon fill="red" stroke="red" points="332.3,-347.78 323.66,-353.92 334.24,-354.51 332.3,-347.78"/>
<polygon fill="red" stroke="red" points="789.35,-357.08 799.9,-356.06 791.02,-350.28 789.35,-357.08"/>
<text text-anchor="middle" x="506.05" y="-318.8" font-family="Times,serif" font-size="14.00">नित्यसम्बन्धः</text>
</g>
<!-- Node11_1 -->
<g id="node16" class="node">
<title>Node11_1</title>
<ellipse fill="#ffff00" stroke="#ffff00" cx="277.05" cy="-105" rx="57.39" ry="18"/>
<text text-anchor="middle" x="277.05" y="-101.3" font-family="Times,serif" font-size="14.00">क्षिति&#45;(11.1)</text>
</g>
<!-- Node11_2 -->
<g id="node17" class="node">
<title>Node11_2</title>
<ellipse fill="#00bfff" stroke="#00bfff" cx="295.05" cy="-192" rx="52.79" ry="18"/>
<text text-anchor="middle" x="295.05" y="-188.3" font-family="Times,serif" font-size="14.00">पतिः(11.2)</text>
</g>
<!-- Node11_1&#45;&gt;Node11_2 -->
<g id="edge13" class="edge">
<title>Node11_1&#45;&gt;Node11_2</title>
<path fill="none" stroke="black" d="M282.82,-133.27C285.64,-146.58 288.95,-162.19 291.41,-173.82"/>
<polygon fill="black" stroke="black" points="286.18,-132.26 280.69,-123.2 279.34,-133.71 286.18,-132.26"/>
<text text-anchor="middle" x="305.05" y="-144.8" font-family="Times,serif" font-size="14.00">समासः</text>
</g>
<!-- Node11_2&#45;&gt;Node10_1 -->
<g id="edge14" class="edge">
<title>Node11_2&#45;&gt;Node10_1</title>
<path fill="none" stroke="black" d="M284.12,-219.54C278.52,-233.12 271.89,-249.24 267,-261.11"/>
<polygon fill="black" stroke="black" points="287.39,-220.78 287.96,-210.2 280.92,-218.12 287.39,-220.78"/>
<text text-anchor="middle" x="291.05" y="-231.8" font-family="Times,serif" font-size="14.00">कर्ता</text>
</g>
<!-- Node18_1 -->
<g id="node18" class="node">
<title>Node18_1</title>
<ellipse fill="#ff1975" stroke="#ff1975" cx="551.05" cy="-279" rx="66.89" ry="18"/>
<text text-anchor="middle" x="551.05" y="-275.3" font-family="Times,serif" font-size="14.00">समाश्रयेत्(18.1)</text>
</g>
<!-- Node11_2&#45;&gt;Node18_1 -->
<g id="edge15" class="edge">
<title>Node11_2&#45;&gt;Node18_1</title>
<path fill="none" stroke="black" stroke-dasharray="1,5" d="M326.59,-213.7C343.35,-223.86 364.66,-235.51 385.05,-243 423.33,-257.07 435.14,-252.55 475.05,-261 483.64,-262.82 492.77,-264.81 501.61,-266.77"/>
<polygon fill="black" stroke="black" points="328.12,-210.53 317.78,-208.24 324.44,-216.48 328.12,-210.53"/>
<text text-anchor="middle" x="396.05" y="-231.8" font-family="Times,serif" font-size="14.00">कर्ता</text>
</g>
<!-- Node16_1 -->
<g id="node20" class="node">
<title>Node16_1</title>
<ellipse fill="#ff99ff" stroke="#ff99ff" cx="583.05" cy="-366" rx="50.09" ry="18"/>
<text text-anchor="middle" x="583.05" y="-362.3" font-family="Times,serif" font-size="14.00">तदा(16.1)</text>
</g>
<!-- Node18_1&#45;&gt;Node16_1 -->
<g id="edge23" class="edge">
<title>Node18_1&#45;&gt;Node16_1</title>
<path fill="none" stroke="black" d="M561.19,-306.94C566.27,-320.43 572.26,-336.36 576.69,-348.11"/>
<polygon fill="black" stroke="black" points="564.32,-305.33 557.52,-297.2 557.77,-307.79 564.32,-305.33"/>
<text text-anchor="middle" x="589.05" y="-318.8" font-family="Times,serif" font-size="14.00">अनुयोगी</text>
</g>
<!-- Node13_1 -->
<g id="node19" class="node">
<title>Node13_1</title>
<ellipse fill="#ff99ff" stroke="#ff99ff" cx="404.05" cy="-366" rx="50.09" ry="18"/>
<text text-anchor="middle" x="404.05" y="-362.3" font-family="Times,serif" font-size="14.00">यदा(13.1)</text>
</g>
<!-- Node13_1&#45;&gt;Node16_1 -->
<g id="edge17" class="edge">
<title>Node13_1&#45;&gt;Node16_1</title>
<path fill="none" stroke="red" stroke-dasharray="5,2" d="M464.68,-366C483.37,-366 503.94,-366 522.62,-366"/>
<polygon fill="red" stroke="red" points="464.38,-362.5 454.38,-366 464.38,-369.5 464.38,-362.5"/>
<polygon fill="red" stroke="red" points="522.78,-369.5 532.78,-366 522.78,-362.5 522.78,-369.5"/>
<text text-anchor="middle" x="493.55" y="-351.8" font-family="Times,serif" font-size="14.00">नित्यसम्बन्धः</text>
</g>
<!-- Node16_1&#45;&gt;Node13_1 -->
<g id="edge21" class="edge">
<title>Node16_1&#45;&gt;Node13_1</title>
<path fill="none" stroke="red" stroke-dasharray="5,2" d="M537.49,-381.34C532.99,-382.42 528.45,-383.34 524.05,-384 497.23,-388 489.86,-388 463.05,-384 458.64,-383.34 454.1,-382.42 449.6,-381.34"/>
<polygon fill="red" stroke="red" points="538.47,-384.71 547.24,-378.77 536.68,-377.94 538.47,-384.71"/>
<polygon fill="red" stroke="red" points="450.41,-377.94 439.85,-378.77 448.62,-384.71 450.41,-377.94"/>
<text text-anchor="middle" x="493.55" y="-372.8" font-family="Times,serif" font-size="14.00">नित्यसम्बन्धः</text>
</g>
<!-- Node14_1 -->
<g id="node21" class="node">
<title>Node14_1</title>
<ellipse fill="#ffff00" stroke="#ffff00" cx="552.05" cy="-105" rx="49.29" ry="18"/>
<text text-anchor="middle" x="552.05" y="-101.3" font-family="Times,serif" font-size="14.00">स्व&#45;(14.1)</text>
</g>
<!-- Node14_2 -->
<g id="node22" class="node">
<title>Node14_2</title>
<ellipse fill="#00bfff" stroke="#00bfff" cx="418.05" cy="-192" rx="51.99" ry="18"/>
<text text-anchor="middle" x="418.05" y="-188.3" font-family="Times,serif" font-size="14.00">पक्षः(14.2)</text>
</g>
<!-- Node14_1&#45;&gt;Node14_2 -->
<g id="edge18" class="edge">
<title>Node14_1&#45;&gt;Node14_2</title>
<path fill="none" stroke="black" d="M527.73,-129.14C517.51,-138.18 505.18,-148.23 493.05,-156 479.86,-164.45 464.3,-172.05 450.79,-177.99"/>
<polygon fill="black" stroke="black" points="530.38,-131.47 535.44,-122.17 525.68,-126.28 530.38,-131.47"/>
<text text-anchor="middle" x="531.05" y="-144.8" font-family="Times,serif" font-size="14.00">समासः</text>
</g>
<!-- Node22_1 -->
<g id="node23" class="node">
<title>Node22_1</title>
<ellipse fill="#ff1975" stroke="#ff1975" cx="404.05" cy="-279" rx="62.29" ry="18"/>
<text text-anchor="middle" x="404.05" y="-275.3" font-family="Times,serif" font-size="14.00">(अस्ति)(22.1)</text>
</g>
<!-- Node14_2&#45;&gt;Node22_1 -->
<g id="edge19" class="edge">
<title>Node14_2&#45;&gt;Node22_1</title>
<path fill="none" stroke="black" d="M413.55,-220.27C411.36,-233.58 408.79,-249.19 406.87,-260.82"/>
<polygon fill="black" stroke="black" points="417.04,-220.64 415.21,-210.2 410.13,-219.5 417.04,-220.64"/>
<text text-anchor="middle" x="423.05" y="-231.8" font-family="Times,serif" font-size="14.00">कर्ता</text>
</g>
<!-- Node22_1&#45;&gt;Node13_1 -->
<g id="edge27" class="edge">
<title>Node22_1&#45;&gt;Node13_1</title>
<path fill="none" stroke="black" d="M404.05,-307.27C404.05,-320.58 404.05,-336.19 404.05,-347.82"/>
<polygon fill="black" stroke="black" points="407.55,-307.2 404.05,-297.2 400.55,-307.2 407.55,-307.2"/>
<text text-anchor="middle" x="425.05" y="-318.8" font-family="Times,serif" font-size="14.00">प्रतियोगी</text>
</g>
<!-- Node15_1 -->
<g id="node24" class="node">
<title>Node15_1</title>
<ellipse fill="#00bfff" stroke="#00bfff" cx="418.05" cy="-105" rx="66.09" ry="18"/>
<text text-anchor="middle" x="418.05" y="-101.3" font-family="Times,serif" font-size="14.00">अबलवान्(15.1)</text>
</g>
<!-- Node15_1&#45;&gt;Node14_2 -->
<g id="edge20" class="edge">
<title>Node15_1&#45;&gt;Node14_2</title>
<path fill="none" stroke="black" d="M418.05,-133.27C418.05,-146.58 418.05,-162.19 418.05,-173.82"/>
<polygon fill="black" stroke="black" points="421.55,-133.2 418.05,-123.2 414.55,-133.2 421.55,-133.2"/>
<text text-anchor="middle" x="453.55" y="-144.8" font-family="Times,serif" font-size="14.00">विधेयविशेषणम्</text>
</g>
<!-- Node17_1 -->
<g id="node25" class="node">
<title>Node17_1</title>
<ellipse fill="#93db70" stroke="#93db70" cx="547.05" cy="-192" rx="59.29" ry="18"/>
<text text-anchor="middle" x="547.05" y="-188.3" font-family="Times,serif" font-size="14.00">सन्धिम्(17.1)</text>
</g>
<!-- Node17_1&#45;&gt;Node18_1 -->
<g id="edge22" class="edge">
<title>Node17_1&#45;&gt;Node18_1</title>
<path fill="none" stroke="black" d="M548.33,-220.27C548.96,-233.58 549.69,-249.19 550.24,-260.82"/>
<polygon fill="black" stroke="black" points="551.82,-220.03 547.86,-210.2 544.83,-220.35 551.82,-220.03"/>
<text text-anchor="middle" x="559.05" y="-231.8" font-family="Times,serif" font-size="14.00">कर्म</text>
</g>
<!-- Node21_1 -->
<g id="node26" class="node">
<title>Node21_1</title>
<ellipse fill="#ff99ff" stroke="#ff99ff" cx="910.05" cy="-192" rx="50.09" ry="18"/>
<text text-anchor="middle" x="910.05" y="-188.3" font-family="Times,serif" font-size="14.00">(च)(21.1)</text>
</g>
<!-- Node21_1&#45;&gt;Node19_1 -->
<g id="edge26" class="edge">
<title>Node21_1&#45;&gt;Node19_1</title>
<path fill="none" stroke="black" d="M932.98,-216.19C942.66,-225.24 954.39,-235.27 966.05,-243 978.13,-251.01 992.33,-258.19 1005.04,-263.94"/>
<polygon fill="black" stroke="black" points="935.33,-213.59 925.68,-209.2 930.49,-218.65 935.33,-213.59"/>
<text text-anchor="middle" x="1001.05" y="-231.8" font-family="Times,serif" font-size="14.00">समुच्चयद्योतकः</text>
</g>
</g>
</svg>
