<?xml version="1.0" encoding="UTF-8" standalone="no"?>
<!DOCTYPE svg PUBLIC "-//W3C//DTD SVG 1.1//EN"
 "http://www.w3.org/Graphics/SVG/1.1/DTD/svg11.dtd">
<!-- Generated by graphviz version 2.43.0 (0)
 -->
<!-- Title: G Pages: 1 -->
<svg width="960pt" height="321pt"
 viewBox="0.00 0.00 959.70 321.00" xmlns="http://www.w3.org/2000/svg" xmlns:xlink="http://www.w3.org/1999/xlink">
<g id="graph0" class="graph" transform="scale(1 1) rotate(0) translate(4 317)">
<title>G</title>
<polygon fill="#fffacd" stroke="transparent" points="-4,4 -4,-317 955.7,-317 955.7,4 -4,4"/>
<g id="clust1" class="cluster">
<title>cluster_1</title>
<polygon fill="#fffacd" stroke="black" points="8,-8 8,-147 118,-147 118,-8 8,-8"/>
</g>
<g id="clust2" class="cluster">
<title>cluster_2</title>
<polygon fill="#fffacd" stroke="black" points="126,-8 126,-147 252,-147 252,-8 126,-8"/>
</g>
<!-- Node3_1 -->
<g id="node1" class="node">
<title>Node3_1</title>
<ellipse fill="#00bfff" stroke="#00bfff" cx="63" cy="-34" rx="46.29" ry="18"/>
<text text-anchor="middle" x="63" y="-30.3" font-family="Times,serif" font-size="14.00">शुभा(3.1)</text>
</g>
<!-- Node4_1 -->
<g id="node2" class="node">
<title>Node4_1</title>
<ellipse fill="#93db70" stroke="#93db70" cx="63" cy="-121" rx="46.59" ry="18"/>
<text text-anchor="middle" x="63" y="-117.3" font-family="Times,serif" font-size="14.00">वाचः(4.1)</text>
</g>
<!-- Node3_1&#45;&gt;Node4_1 -->
<g id="edge3" class="edge">
<title>Node3_1&#45;&gt;Node4_1</title>
<path fill="none" stroke="black" d="M63,-62.27C63,-75.58 63,-91.19 63,-102.82"/>
<polygon fill="black" stroke="black" points="66.5,-62.2 63,-52.2 59.5,-62.2 66.5,-62.2"/>
<text text-anchor="middle" x="85.5" y="-73.8" font-family="Times,serif" font-size="14.00">विशेषणम्</text>
</g>
<!-- Node7_1 -->
<g id="node8" class="node">
<title>Node7_1</title>
<ellipse fill="#ff1975" stroke="#ff1975" cx="63" cy="-208" rx="49.29" ry="18"/>
<text text-anchor="middle" x="63" y="-204.3" font-family="Times,serif" font-size="14.00">शृणुते(7.1)</text>
</g>
<!-- Node4_1&#45;&gt;Node7_1 -->
<g id="edge4" class="edge">
<title>Node4_1&#45;&gt;Node7_1</title>
<path fill="none" stroke="black" d="M63,-149.27C63,-162.58 63,-178.19 63,-189.82"/>
<polygon fill="black" stroke="black" points="66.5,-149.2 63,-139.2 59.5,-149.2 66.5,-149.2"/>
<text text-anchor="middle" x="72" y="-160.8" font-family="Times,serif" font-size="14.00">कर्म</text>
</g>
<!-- Node6_1 -->
<g id="node3" class="node">
<title>Node6_1</title>
<ellipse fill="#c6e2eb" stroke="#c6e2eb" cx="189" cy="-34" rx="54.69" ry="18"/>
<text text-anchor="middle" x="189" y="-30.3" font-family="Times,serif" font-size="14.00">अस्मिन्(6.1)</text>
</g>
<!-- Node5_1 -->
<g id="node4" class="node">
<title>Node5_1</title>
<ellipse fill="#c6e2eb" stroke="#c6e2eb" cx="193" cy="-121" rx="46.59" ry="18"/>
<text text-anchor="middle" x="193" y="-117.3" font-family="Times,serif" font-size="14.00">लोके(5.1)</text>
</g>
<!-- Node6_1&#45;&gt;Node5_1 -->
<g id="edge6" class="edge">
<title>Node6_1&#45;&gt;Node5_1</title>
<path fill="none" stroke="black" d="M190.28,-62.27C190.91,-75.58 191.64,-91.19 192.19,-102.82"/>
<polygon fill="black" stroke="black" points="193.78,-62.03 189.81,-52.2 186.78,-62.35 193.78,-62.03"/>
<text text-anchor="middle" x="214.5" y="-73.8" font-family="Times,serif" font-size="14.00">विशेषणम्</text>
</g>
<!-- Node15_1 -->
<g id="node9" class="node">
<title>Node15_1</title>
<ellipse fill="#00bfff" stroke="#00bfff" cx="312" cy="-208" rx="61.19" ry="18"/>
<text text-anchor="middle" x="312" y="-204.3" font-family="Times,serif" font-size="14.00">पालयन्(15.1)</text>
</g>
<!-- Node5_1&#45;&gt;Node15_1 -->
<g id="edge5" class="edge">
<title>Node5_1&#45;&gt;Node15_1</title>
<path fill="none" stroke="black" d="M215.89,-145.6C225.11,-154.45 236.12,-164.22 247,-172 257.53,-179.53 269.87,-186.56 280.95,-192.32"/>
<polygon fill="black" stroke="black" points="218.2,-142.97 208.61,-138.46 213.3,-147.96 218.2,-142.97"/>
<text text-anchor="middle" x="279" y="-160.8" font-family="Times,serif" font-size="14.00">देशाधिकरणम्</text>
</g>
<!-- Node1_1 -->
<g id="node5" class="node">
<title>Node1_1</title>
<ellipse fill="#ff99ff" stroke="#ff99ff" cx="439" cy="-121" rx="41.69" ry="18"/>
<text text-anchor="middle" x="439" y="-117.3" font-family="Times,serif" font-size="14.00">एवं(1.1)</text>
</g>
<!-- Node2_1 -->
<g id="node6" class="node">
<title>Node2_1</title>
<ellipse fill="#00bfff" stroke="#00bfff" cx="439" cy="-208" rx="48.19" ry="18"/>
<text text-anchor="middle" x="439" y="-204.3" font-family="Times,serif" font-size="14.00">कुर्वन्(2.1)</text>
</g>
<!-- Node1_1&#45;&gt;Node2_1 -->
<g id="edge1" class="edge">
<title>Node1_1&#45;&gt;Node2_1</title>
<path fill="none" stroke="black" d="M439,-149.27C439,-162.58 439,-178.19 439,-189.82"/>
<polygon fill="black" stroke="black" points="442.5,-149.2 439,-139.2 435.5,-149.2 442.5,-149.2"/>
<text text-anchor="middle" x="457.5" y="-160.8" font-family="Times,serif" font-size="14.00">सम्बन्धः</text>
</g>
<!-- Node12_1 -->
<g id="node7" class="node">
<title>Node12_1</title>
<ellipse fill="#ff1975" stroke="#ff1975" cx="603" cy="-295" rx="63.89" ry="18"/>
<text text-anchor="middle" x="603" y="-291.3" font-family="Times,serif" font-size="14.00">आप्नोति(12.1)</text>
</g>
<!-- Node2_1&#45;&gt;Node12_1 -->
<g id="edge2" class="edge">
<title>Node2_1&#45;&gt;Node12_1</title>
<path fill="none" stroke="black" d="M465.31,-231.07C477.46,-240.53 492.41,-251.19 507,-259 523.89,-268.05 543.61,-275.69 560.78,-281.5"/>
<polygon fill="black" stroke="black" points="467.38,-228.25 457.38,-224.76 463.02,-233.72 467.38,-228.25"/>
<text text-anchor="middle" x="537.5" y="-247.8" font-family="Times,serif" font-size="14.00">अनन्तरकालः</text>
</g>
<!-- Node15_1&#45;&gt;Node12_1 -->
<g id="edge13" class="edge">
<title>Node15_1&#45;&gt;Node12_1</title>
<path fill="none" stroke="black" d="M348.19,-228.88C368.25,-239.18 393.94,-251.19 418,-259 459.82,-272.57 508.76,-281.55 545.8,-287"/>
<polygon fill="black" stroke="black" points="349.6,-225.67 339.11,-224.14 346.36,-231.87 349.6,-225.67"/>
<text text-anchor="middle" x="448.5" y="-247.8" font-family="Times,serif" font-size="14.00">अनन्तरकालः</text>
</g>
<!-- Node8_1 -->
<g id="node10" class="node">
<title>Node8_1</title>
<ellipse fill="#00bfff" stroke="#00bfff" cx="549" cy="-208" rx="44.39" ry="18"/>
<text text-anchor="middle" x="549" y="-204.3" font-family="Times,serif" font-size="14.00">नृपः(8.1)</text>
</g>
<!-- Node8_1&#45;&gt;Node12_1 -->
<g id="edge7" class="edge">
<title>Node8_1&#45;&gt;Node12_1</title>
<path fill="none" stroke="black" d="M565.14,-234.4C573.94,-248.26 584.59,-265.03 592.35,-277.24"/>
<polygon fill="black" stroke="black" points="567.99,-232.36 559.67,-225.79 562.08,-236.11 567.99,-232.36"/>
<text text-anchor="middle" x="590" y="-247.8" font-family="Times,serif" font-size="14.00">कर्ता</text>
</g>
<!-- Node9_1 -->
<g id="node11" class="node">
<title>Node9_1</title>
<ellipse fill="#ff99ff" stroke="#ff99ff" cx="657" cy="-208" rx="45.49" ry="18"/>
<text text-anchor="middle" x="657" y="-204.3" font-family="Times,serif" font-size="14.00">प्रेत्य(9.1)</text>
</g>
<!-- Node9_1&#45;&gt;Node12_1 -->
<g id="edge8" class="edge">
<title>Node9_1&#45;&gt;Node12_1</title>
<path fill="none" stroke="black" d="M640.86,-234.4C632.06,-248.26 621.41,-265.03 613.65,-277.24"/>
<polygon fill="black" stroke="black" points="643.92,-236.11 646.33,-225.79 638.01,-232.36 643.92,-236.11"/>
<text text-anchor="middle" x="653.5" y="-247.8" font-family="Times,serif" font-size="14.00">पूर्वकालः</text>
</g>
<!-- Node10_1 -->
<g id="node12" class="node">
<title>Node10_1</title>
<ellipse fill="#93db70" stroke="#93db70" cx="776" cy="-208" rx="55.79" ry="18"/>
<text text-anchor="middle" x="776" y="-204.3" font-family="Times,serif" font-size="14.00">स्वर्गम्(10.1)</text>
</g>
<!-- Node10_1&#45;&gt;Node12_1 -->
<g id="edge9" class="edge">
<title>Node10_1&#45;&gt;Node12_1</title>
<path fill="none" stroke="black" d="M738.7,-228.42C720.47,-237.81 698.17,-249.15 678,-259 664.06,-265.81 648.53,-273.1 635.24,-279.26"/>
<polygon fill="black" stroke="black" points="740.55,-231.4 747.83,-223.71 737.34,-225.18 740.55,-231.4"/>
<text text-anchor="middle" x="716" y="-247.8" font-family="Times,serif" font-size="14.00">कर्म</text>
</g>
<!-- Node11_1 -->
<g id="node13" class="node">
<title>Node11_1</title>
<ellipse fill="#ff99ff" stroke="#ff99ff" cx="901" cy="-208" rx="50.89" ry="18"/>
<text text-anchor="middle" x="901" y="-204.3" font-family="Times,serif" font-size="14.00">तथा(11.1)</text>
</g>
<!-- Node11_1&#45;&gt;Node12_1 -->
<g id="edge10" class="edge">
<title>Node11_1&#45;&gt;Node12_1</title>
<path fill="none" stroke="black" d="M853.31,-223.03C818.81,-233.14 771.06,-247.04 729,-259 701.81,-266.73 671.27,-275.22 647.06,-281.9"/>
<polygon fill="black" stroke="black" points="854.51,-226.33 863.12,-220.15 852.54,-219.61 854.51,-226.33"/>
<text text-anchor="middle" x="799.5" y="-247.8" font-family="Times,serif" font-size="14.00">सम्बन्धः</text>
</g>
<!-- Node13_1 -->
<g id="node14" class="node">
<title>Node13_1</title>
<ellipse fill="#87ceeb" stroke="#87ceeb" cx="323" cy="-34" rx="61.19" ry="18"/>
<text text-anchor="middle" x="323" y="-30.3" font-family="Times,serif" font-size="14.00">प्रजायाः(13.1)</text>
</g>
<!-- Node14_1 -->
<g id="node15" class="node">
<title>Node14_1</title>
<ellipse fill="#40e0d0" stroke="#40e0d0" cx="319" cy="-121" rx="54.69" ry="18"/>
<text text-anchor="middle" x="319" y="-117.3" font-family="Times,serif" font-size="14.00">धर्मेण(14.1)</text>
</g>
<!-- Node13_1&#45;&gt;Node14_1 -->
<g id="edge11" class="edge">
<title>Node13_1&#45;&gt;Node14_1</title>
<path fill="none" stroke="black" d="M321.72,-62.27C321.09,-75.58 320.36,-91.19 319.81,-102.82"/>
<polygon fill="black" stroke="black" points="325.22,-62.35 322.19,-52.2 318.22,-62.03 325.22,-62.35"/>
<text text-anchor="middle" x="348.5" y="-73.8" font-family="Times,serif" font-size="14.00">षष्ठीसम्बन्धः</text>
</g>
<!-- Node14_1&#45;&gt;Node15_1 -->
<g id="edge12" class="edge">
<title>Node14_1&#45;&gt;Node15_1</title>
<path fill="none" stroke="black" d="M316.75,-149.27C315.66,-162.58 314.37,-178.19 313.41,-189.82"/>
<polygon fill="black" stroke="black" points="320.25,-149.45 317.58,-139.2 313.27,-148.88 320.25,-149.45"/>
<text text-anchor="middle" x="331.5" y="-160.8" font-family="Times,serif" font-size="14.00">करणम्</text>
</g>
</g>
</svg>
