<?xml version="1.0" encoding="UTF-8" standalone="no"?>
<!DOCTYPE svg PUBLIC "-//W3C//DTD SVG 1.1//EN"
 "http://www.w3.org/Graphics/SVG/1.1/DTD/svg11.dtd">
<!-- Generated by graphviz version 2.43.0 (0)
 -->
<!-- Title: G Pages: 1 -->
<svg width="1352pt" height="234pt"
 viewBox="0.00 0.00 1352.45 234.00" xmlns="http://www.w3.org/2000/svg" xmlns:xlink="http://www.w3.org/1999/xlink">
<g id="graph0" class="graph" transform="scale(1 1) rotate(0) translate(4 230)">
<title>G</title>
<polygon fill="#fffacd" stroke="transparent" points="-4,4 -4,-230 1348.45,-230 1348.45,4 -4,4"/>
<g id="clust1" class="cluster">
<title>cluster_1</title>
<polygon fill="#fffacd" stroke="black" points="8,-8 8,-147 150,-147 150,-8 8,-8"/>
</g>
<!-- Node7_1 -->
<g id="node1" class="node">
<title>Node7_1</title>
<ellipse fill="#00bfff" stroke="#00bfff" cx="73" cy="-34" rx="57.39" ry="18"/>
<text text-anchor="middle" x="73" y="-30.3" font-family="Times,serif" font-size="14.00">श्रेणिबलं(7.1)</text>
</g>
<!-- Node8_1 -->
<g id="node2" class="node">
<title>Node8_1</title>
<ellipse fill="#00bfff" stroke="#00bfff" cx="59" cy="-121" rx="42.79" ry="18"/>
<text text-anchor="middle" x="59" y="-117.3" font-family="Times,serif" font-size="14.00">भृतं(8.1)</text>
</g>
<!-- Node7_1&#45;&gt;Node8_1 -->
<g id="edge8" class="edge">
<title>Node7_1&#45;&gt;Node8_1</title>
<path fill="none" stroke="black" d="M68.51,-62.27C66.32,-75.58 63.74,-91.19 61.83,-102.82"/>
<polygon fill="black" stroke="black" points="72,-62.64 70.17,-52.2 65.09,-61.5 72,-62.64"/>
<text text-anchor="middle" x="89.5" y="-73.8" font-family="Times,serif" font-size="14.00">समुच्चितः</text>
</g>
<!-- Node8_1&#45;&gt;Node8_1 -->
<g id="edge9" class="edge">
<title>Node8_1&#45;&gt;Node8_1</title>
<path fill="none" stroke="black" d="M107.83,-113.87C115.03,-114.99 119.9,-117.37 119.9,-121 119.9,-126.17 110.06,-128.79 97.65,-128.87"/>
<polygon fill="black" stroke="black" points="107.88,-110.37 97.65,-113.13 107.37,-117.35 107.88,-110.37"/>
<text text-anchor="middle" x="130.9" y="-117.3" font-family="Times,serif" font-size="14.00">कर्ता</text>
</g>
<!-- Node1_1 -->
<g id="node3" class="node">
<title>Node1_1</title>
<ellipse fill="#ff99ff" stroke="#ff99ff" cx="436" cy="-121" rx="42.49" ry="18"/>
<text text-anchor="middle" x="436" y="-117.3" font-family="Times,serif" font-size="14.00">तत्र(1.1)</text>
</g>
<!-- Node6_1 -->
<g id="node4" class="node">
<title>Node6_1</title>
<ellipse fill="#ff1975" stroke="#ff1975" cx="600" cy="-208" rx="59.59" ry="18"/>
<text text-anchor="middle" x="600" y="-204.3" font-family="Times,serif" font-size="14.00">विशिष्यते(6.1)</text>
</g>
<!-- Node1_1&#45;&gt;Node6_1 -->
<g id="edge1" class="edge">
<title>Node1_1&#45;&gt;Node6_1</title>
<path fill="none" stroke="black" d="M468.73,-141.16C485.41,-150.73 506.11,-162.3 525,-172 538.93,-179.15 554.6,-186.56 567.99,-192.71"/>
<polygon fill="black" stroke="black" points="470.32,-138.04 459.91,-136.08 466.82,-144.11 470.32,-138.04"/>
<text text-anchor="middle" x="543.5" y="-160.8" font-family="Times,serif" font-size="14.00">सम्बन्धः</text>
</g>
<!-- Node2_1 -->
<g id="node5" class="node">
<title>Node2_1</title>
<ellipse fill="#ffff00" stroke="#ffff00" cx="422" cy="-34" rx="48.19" ry="18"/>
<text text-anchor="middle" x="422" y="-30.3" font-family="Times,serif" font-size="14.00">मित्र&#45;(2.1)</text>
</g>
<!-- Node2_2 -->
<g id="node6" class="node">
<title>Node2_2</title>
<ellipse fill="#00bfff" stroke="#00bfff" cx="538" cy="-121" rx="42.49" ry="18"/>
<text text-anchor="middle" x="538" y="-117.3" font-family="Times,serif" font-size="14.00">बलं(2.2)</text>
</g>
<!-- Node2_1&#45;&gt;Node2_2 -->
<g id="edge2" class="edge">
<title>Node2_1&#45;&gt;Node2_2</title>
<path fill="none" stroke="black" d="M451.15,-56.36C471.84,-71.52 499.12,-91.51 517.54,-105.01"/>
<polygon fill="black" stroke="black" points="453.14,-53.48 443.01,-50.39 449,-59.13 453.14,-53.48"/>
<text text-anchor="middle" x="504" y="-73.8" font-family="Times,serif" font-size="14.00">समासः</text>
</g>
<!-- Node2_2&#45;&gt;Node6_1 -->
<g id="edge3" class="edge">
<title>Node2_2&#45;&gt;Node6_1</title>
<path fill="none" stroke="black" d="M555.98,-146.65C566.23,-160.7 578.79,-177.92 587.87,-190.37"/>
<polygon fill="black" stroke="black" points="558.67,-144.41 549.95,-138.39 553.02,-148.53 558.67,-144.41"/>
<text text-anchor="middle" x="584" y="-160.8" font-family="Times,serif" font-size="14.00">कर्ता</text>
</g>
<!-- Node3_1 -->
<g id="node7" class="node">
<title>Node3_1</title>
<ellipse fill="#6fffc3" stroke="#6fffc3" cx="851" cy="-121" rx="48.99" ry="18"/>
<text text-anchor="middle" x="851" y="-117.3" font-family="Times,serif" font-size="14.00">राजन्(3.1)</text>
</g>
<!-- Node16_1 -->
<g id="node8" class="node">
<title>Node16_1</title>
<ellipse fill="#ff1975" stroke="#ff1975" cx="991" cy="-208" rx="62.29" ry="18"/>
<text text-anchor="middle" x="991" y="-204.3" font-family="Times,serif" font-size="14.00">(अस्ति)(16.1)</text>
</g>
<!-- Node3_1&#45;&gt;Node16_1 -->
<g id="edge4" class="edge">
<title>Node3_1&#45;&gt;Node16_1</title>
<path fill="none" stroke="black" d="M884.13,-142.11C909.03,-157.23 942.64,-177.64 965.47,-191.5"/>
<polygon fill="black" stroke="black" points="885.75,-139 875.39,-136.81 882.12,-144.99 885.75,-139"/>
<text text-anchor="middle" x="950" y="-160.8" font-family="Times,serif" font-size="14.00">सम्बोध्यः</text>
</g>
<!-- Node4_1 -->
<g id="node9" class="node">
<title>Node4_1</title>
<ellipse fill="#40e0d0" stroke="#40e0d0" cx="538" cy="-34" rx="50.09" ry="18"/>
<text text-anchor="middle" x="538" y="-30.3" font-family="Times,serif" font-size="14.00">मौलेन(4.1)</text>
</g>
<!-- Node4_1&#45;&gt;Node2_2 -->
<g id="edge5" class="edge">
<title>Node4_1&#45;&gt;Node2_2</title>
<path fill="none" stroke="black" d="M538,-62.27C538,-75.58 538,-91.19 538,-102.82"/>
<polygon fill="black" stroke="black" points="541.5,-62.2 538,-52.2 534.5,-62.2 541.5,-62.2"/>
<text text-anchor="middle" x="568" y="-73.8" font-family="Times,serif" font-size="14.00">तुलना_बिन्दुः</text>
</g>
<!-- Node5_1 -->
<g id="node10" class="node">
<title>Node5_1</title>
<ellipse fill="#ff99ff" stroke="#ff99ff" cx="635" cy="-121" rx="37.09" ry="18"/>
<text text-anchor="middle" x="635" y="-117.3" font-family="Times,serif" font-size="14.00">न(5.1)</text>
</g>
<!-- Node5_1&#45;&gt;Node6_1 -->
<g id="edge6" class="edge">
<title>Node5_1&#45;&gt;Node6_1</title>
<path fill="none" stroke="black" d="M624.24,-148.13C618.64,-161.73 611.95,-177.98 607.02,-189.95"/>
<polygon fill="black" stroke="black" points="627.51,-149.37 628.09,-138.79 621.04,-146.71 627.51,-149.37"/>
<text text-anchor="middle" x="639.5" y="-160.8" font-family="Times,serif" font-size="14.00">प्रतिषेधः</text>
</g>
<!-- Node5_2 -->
<g id="node11" class="node">
<title>Node5_2</title>
<ellipse fill="#00bfff" stroke="#00bfff" cx="659" cy="-34" rx="53.09" ry="18"/>
<text text-anchor="middle" x="659" y="-30.3" font-family="Times,serif" font-size="14.00">(तुल्यं)(5.2)</text>
</g>
<!-- Node5_2&#45;&gt;Node2_2 -->
<g id="edge7" class="edge">
<title>Node5_2&#45;&gt;Node2_2</title>
<path fill="none" stroke="black" d="M634.93,-58.21C625.11,-67.11 613.41,-77.02 602,-85 590.38,-93.13 576.67,-100.84 564.94,-106.95"/>
<polygon fill="black" stroke="black" points="637.38,-60.71 642.35,-51.36 632.63,-55.57 637.38,-60.71"/>
<text text-anchor="middle" x="660" y="-73.8" font-family="Times,serif" font-size="14.00">विधेय_विशेषणम्</text>
</g>
<!-- Node9_1 -->
<g id="node12" class="node">
<title>Node9_1</title>
<ellipse fill="#ff99ff" stroke="#ff99ff" cx="196" cy="-34" rx="37.89" ry="18"/>
<text text-anchor="middle" x="196" y="-30.3" font-family="Times,serif" font-size="14.00">च(9.1)</text>
</g>
<!-- Node9_1&#45;&gt;Node8_1 -->
<g id="edge10" class="edge">
<title>Node9_1&#45;&gt;Node8_1</title>
<path fill="none" stroke="black" d="M165.17,-54.35C150.33,-63.64 132.26,-74.93 116,-85 104.94,-91.85 92.65,-99.4 82.32,-105.74"/>
<polygon fill="black" stroke="black" points="167.34,-57.12 173.96,-48.84 163.63,-51.19 167.34,-57.12"/>
<text text-anchor="middle" x="177" y="-73.8" font-family="Times,serif" font-size="14.00">समुच्चय_द्योतकः</text>
</g>
<!-- Node10_1 -->
<g id="node13" class="node">
<title>Node10_1</title>
<ellipse fill="#ff99ff" stroke="#ff99ff" cx="737" cy="-121" rx="47.39" ry="18"/>
<text text-anchor="middle" x="737" y="-117.3" font-family="Times,serif" font-size="14.00">एव(10.1)</text>
</g>
<!-- Node10_1&#45;&gt;Node6_1 -->
<g id="edge11" class="edge">
<title>Node10_1&#45;&gt;Node6_1</title>
<path fill="none" stroke="black" d="M707.28,-142.94C693.92,-152.13 677.85,-162.88 663,-172 651.8,-178.87 639.19,-186 628.21,-192.01"/>
<polygon fill="black" stroke="black" points="709.4,-145.73 715.63,-137.16 705.42,-139.98 709.4,-145.73"/>
<text text-anchor="middle" x="703.5" y="-160.8" font-family="Times,serif" font-size="14.00">सम्बन्धः</text>
</g>
<!-- Node11_1 -->
<g id="node14" class="node">
<title>Node11_1</title>
<ellipse fill="#ff99ff" stroke="#ff99ff" cx="304" cy="-34" rx="51.99" ry="18"/>
<text text-anchor="middle" x="304" y="-30.3" font-family="Times,serif" font-size="14.00">तुल्य(11.1)</text>
</g>
<!-- Node11_1&#45;&gt;Node8_1 -->
<g id="edge12" class="edge">
<title>Node11_1&#45;&gt;Node8_1</title>
<path fill="none" stroke="black" d="M273.53,-56.11C257.85,-66.14 238.05,-77.53 219,-85 179.82,-100.36 132.46,-109.66 99.48,-114.77"/>
<polygon fill="black" stroke="black" points="275.81,-58.81 282.26,-50.4 271.98,-52.95 275.81,-58.81"/>
<text text-anchor="middle" x="288" y="-73.8" font-family="Times,serif" font-size="14.00">विधेय_विशेषणम्</text>
</g>
<!-- Node12_1 -->
<g id="node15" class="node">
<title>Node12_1</title>
<ellipse fill="#ff99ff" stroke="#ff99ff" cx="1242" cy="-34" rx="47.39" ry="18"/>
<text text-anchor="middle" x="1242" y="-30.3" font-family="Times,serif" font-size="14.00">एव(12.1)</text>
</g>
<!-- Node12_1&#45;&gt;Node12_1 -->
<g id="edge13" class="edge">
<title>Node12_1&#45;&gt;Node12_1</title>
<path fill="none" stroke="black" d="M1295.21,-26.98C1302.55,-28.14 1307.45,-30.48 1307.45,-34 1307.45,-39 1297.54,-41.62 1284.8,-41.86"/>
<polygon fill="black" stroke="black" points="1295.05,-23.46 1284.8,-26.14 1294.49,-30.43 1295.05,-23.46"/>
<text text-anchor="middle" x="1325.95" y="-30.3" font-family="Times,serif" font-size="14.00">सम्बन्धः</text>
</g>
<!-- Node12_2 -->
<g id="node16" class="node">
<title>Node12_2</title>
<ellipse fill="lightgrey" stroke="black" cx="991" cy="-121" rx="72.59" ry="18"/>
<text text-anchor="middle" x="991" y="-117.3" font-family="Times,serif" font-size="14.00">(विशिष्यते)(12.2)</text>
</g>
<!-- Node12_2&#45;&gt;Node16_1 -->
<g id="edge14" class="edge">
<title>Node12_2&#45;&gt;Node16_1</title>
<path fill="none" stroke="black" d="M991,-149.27C991,-162.58 991,-178.19 991,-189.82"/>
<polygon fill="black" stroke="black" points="994.5,-149.2 991,-139.2 987.5,-149.2 994.5,-149.2"/>
<text text-anchor="middle" x="1012.5" y="-160.8" font-family="Times,serif" font-size="14.00">वाक्यकर्म</text>
</g>
<!-- Node13_1 -->
<g id="node17" class="node">
<title>Node13_1</title>
<ellipse fill="#ff99ff" stroke="#ff99ff" cx="991" cy="-34" rx="50.09" ry="18"/>
<text text-anchor="middle" x="991" y="-30.3" font-family="Times,serif" font-size="14.00">इति(13.1)</text>
</g>
<!-- Node13_1&#45;&gt;Node12_2 -->
<g id="edge15" class="edge">
<title>Node13_1&#45;&gt;Node12_2</title>
<path fill="none" stroke="black" d="M991,-62.27C991,-75.58 991,-91.19 991,-102.82"/>
<polygon fill="black" stroke="black" points="994.5,-62.2 991,-52.2 987.5,-62.2 994.5,-62.2"/>
<text text-anchor="middle" x="1032" y="-73.8" font-family="Times,serif" font-size="14.00">वाक्यकर्म_द्योतकः</text>
</g>
<!-- Node14_1 -->
<g id="node18" class="node">
<title>Node14_1</title>
<ellipse fill="#87ceeb" stroke="#87ceeb" cx="1134" cy="-34" rx="42.79" ry="18"/>
<text text-anchor="middle" x="1134" y="-30.3" font-family="Times,serif" font-size="14.00">मे(14.1)</text>
</g>
<!-- Node15_1 -->
<g id="node19" class="node">
<title>Node15_1</title>
<ellipse fill="#00bfff" stroke="#00bfff" cx="1134" cy="-121" rx="52.79" ry="18"/>
<text text-anchor="middle" x="1134" y="-117.3" font-family="Times,serif" font-size="14.00">मतिः(15.1)</text>
</g>
<!-- Node14_1&#45;&gt;Node15_1 -->
<g id="edge16" class="edge">
<title>Node14_1&#45;&gt;Node15_1</title>
<path fill="none" stroke="black" d="M1134,-62.27C1134,-75.58 1134,-91.19 1134,-102.82"/>
<polygon fill="black" stroke="black" points="1137.5,-62.2 1134,-52.2 1130.5,-62.2 1137.5,-62.2"/>
<text text-anchor="middle" x="1161.5" y="-73.8" font-family="Times,serif" font-size="14.00">षष्ठीसम्बन्धः</text>
</g>
<!-- Node15_1&#45;&gt;Node16_1 -->
<g id="edge17" class="edge">
<title>Node15_1&#45;&gt;Node16_1</title>
<path fill="none" stroke="black" d="M1100.16,-142.12C1074.68,-157.26 1040.27,-177.71 1016.95,-191.58"/>
<polygon fill="black" stroke="black" points="1101.96,-145.12 1108.76,-137 1098.38,-139.1 1101.96,-145.12"/>
<text text-anchor="middle" x="1082" y="-160.8" font-family="Times,serif" font-size="14.00">कर्ता</text>
</g>
</g>
</svg>
