<?xml version="1.0" encoding="UTF-8" standalone="no"?>
<!DOCTYPE svg PUBLIC "-//W3C//DTD SVG 1.1//EN"
 "http://www.w3.org/Graphics/SVG/1.1/DTD/svg11.dtd">
<!-- Generated by graphviz version 2.43.0 (0)
 -->
<!-- Title: G Pages: 1 -->
<svg width="1461pt" height="234pt"
 viewBox="0.00 0.00 1460.65 234.00" xmlns="http://www.w3.org/2000/svg" xmlns:xlink="http://www.w3.org/1999/xlink">
<g id="graph0" class="graph" transform="scale(1 1) rotate(0) translate(4 230)">
<title>G</title>
<polygon fill="#fffacd" stroke="transparent" points="-4,4 -4,-230 1456.65,-230 1456.65,4 -4,4"/>
<g id="clust1" class="cluster">
<title>cluster_1</title>
<polygon fill="#fffacd" stroke="black" points="8,-8 8,-147 246,-147 246,-8 8,-8"/>
</g>
<g id="clust2" class="cluster">
<title>cluster_2</title>
<polygon fill="#fffacd" stroke="black" points="879,-8 879,-147 1015,-147 1015,-8 879,-8"/>
</g>
<!-- Node4_1 -->
<g id="node1" class="node">
<title>Node4_1</title>
<ellipse fill="#93db70" stroke="#93db70" cx="184" cy="-34" rx="53.89" ry="18"/>
<text text-anchor="middle" x="184" y="-30.3" font-family="Times,serif" font-size="14.00">शकटम्(4.1)</text>
</g>
<!-- Node6_1 -->
<g id="node2" class="node">
<title>Node6_1</title>
<ellipse fill="#93db70" stroke="#93db70" cx="190" cy="-121" rx="47.39" ry="18"/>
<text text-anchor="middle" x="190" y="-117.3" font-family="Times,serif" font-size="14.00">वज्रम्(6.1)</text>
</g>
<!-- Node4_1&#45;&gt;Node6_1 -->
<g id="edge4" class="edge">
<title>Node4_1&#45;&gt;Node6_1</title>
<path fill="none" stroke="black" d="M185.92,-62.27C186.86,-75.58 187.97,-91.19 188.79,-102.82"/>
<polygon fill="black" stroke="black" points="189.41,-61.93 185.21,-52.2 182.43,-62.42 189.41,-61.93"/>
<text text-anchor="middle" x="210.5" y="-73.8" font-family="Times,serif" font-size="14.00">समुच्चितः</text>
</g>
<!-- Node9_1 -->
<g id="node7" class="node">
<title>Node9_1</title>
<ellipse fill="#ff1975" stroke="#ff1975" cx="487" cy="-208" rx="57.69" ry="18"/>
<text text-anchor="middle" x="487" y="-204.3" font-family="Times,serif" font-size="14.00">(कुर्यात्)(9.1)</text>
</g>
<!-- Node6_1&#45;&gt;Node9_1 -->
<g id="edge6" class="edge">
<title>Node6_1&#45;&gt;Node9_1</title>
<path fill="none" stroke="black" d="M227.52,-139.52C233.94,-142.21 240.61,-144.82 247,-147 312.44,-169.35 390.49,-187.32 439.41,-197.58"/>
<polygon fill="black" stroke="black" points="228.9,-136.3 218.33,-135.55 226.12,-142.73 228.9,-136.3"/>
<text text-anchor="middle" x="340" y="-160.8" font-family="Times,serif" font-size="14.00">सञ्ज्ञा</text>
</g>
<!-- Node5_1 -->
<g id="node3" class="node">
<title>Node5_1</title>
<ellipse fill="#93db70" stroke="#93db70" cx="64" cy="-34" rx="48.19" ry="18"/>
<text text-anchor="middle" x="64" y="-30.3" font-family="Times,serif" font-size="14.00">पद्मम्(5.1)</text>
</g>
<!-- Node5_1&#45;&gt;Node6_1 -->
<g id="edge5" class="edge">
<title>Node5_1&#45;&gt;Node6_1</title>
<path fill="none" stroke="black" d="M94.69,-55.75C108,-64.75 123.76,-75.4 138,-85 147.74,-91.57 158.52,-98.83 167.73,-105.02"/>
<polygon fill="black" stroke="black" points="96.58,-52.81 86.34,-50.11 92.66,-58.61 96.58,-52.81"/>
<text text-anchor="middle" x="160.5" y="-73.8" font-family="Times,serif" font-size="14.00">समुच्चितः</text>
</g>
<!-- Node13_1 -->
<g id="node4" class="node">
<title>Node13_1</title>
<ellipse fill="#93db70" stroke="#93db70" cx="947" cy="-34" rx="48.19" ry="18"/>
<text text-anchor="middle" x="947" y="-30.3" font-family="Times,serif" font-size="14.00">यत्(13.1)</text>
</g>
<!-- Node14_1 -->
<g id="node5" class="node">
<title>Node14_1</title>
<ellipse fill="#93db70" stroke="#93db70" cx="947" cy="-121" rx="60.39" ry="18"/>
<text text-anchor="middle" x="947" y="-117.3" font-family="Times,serif" font-size="14.00">शास्त्रम्(14.1)</text>
</g>
<!-- Node13_1&#45;&gt;Node14_1 -->
<g id="edge12" class="edge">
<title>Node13_1&#45;&gt;Node14_1</title>
<path fill="none" stroke="black" d="M947,-62.27C947,-75.58 947,-91.19 947,-102.82"/>
<polygon fill="black" stroke="black" points="950.5,-62.2 947,-52.2 943.5,-62.2 950.5,-62.2"/>
<text text-anchor="middle" x="969.5" y="-73.8" font-family="Times,serif" font-size="14.00">विशेषणम्</text>
</g>
<!-- Node12_1 -->
<g id="node15" class="node">
<title>Node12_1</title>
<ellipse fill="#ff1975" stroke="#ff1975" cx="1081" cy="-208" rx="46.59" ry="18"/>
<text text-anchor="middle" x="1081" y="-204.3" font-family="Times,serif" font-size="14.00">वेद(12.1)</text>
</g>
<!-- Node14_1&#45;&gt;Node12_1 -->
<g id="edge13" class="edge">
<title>Node14_1&#45;&gt;Node12_1</title>
<path fill="none" stroke="black" d="M980.04,-142.96C1004.06,-158.2 1036.01,-178.46 1057.48,-192.08"/>
<polygon fill="black" stroke="black" points="981.9,-139.99 971.58,-137.59 978.15,-145.9 981.9,-139.99"/>
<text text-anchor="middle" x="1032" y="-160.8" font-family="Times,serif" font-size="14.00">कर्म</text>
</g>
<!-- Node1_1 -->
<g id="node6" class="node">
<title>Node1_1</title>
<ellipse fill="#ff99ff" stroke="#ff99ff" cx="300" cy="-121" rx="44.39" ry="18"/>
<text text-anchor="middle" x="300" y="-117.3" font-family="Times,serif" font-size="14.00">अथ(1.1)</text>
</g>
<!-- Node1_1&#45;&gt;Node9_1 -->
<g id="edge1" class="edge">
<title>Node1_1&#45;&gt;Node9_1</title>
<path fill="none" stroke="black" d="M337.13,-139.63C342.45,-142.12 347.86,-144.64 353,-147 387.74,-162.97 427.77,-180.82 454.97,-192.87"/>
<polygon fill="black" stroke="black" points="338.27,-136.3 327.73,-135.21 335.29,-142.63 338.27,-136.3"/>
<text text-anchor="middle" x="427.5" y="-160.8" font-family="Times,serif" font-size="14.00">सम्बन्धः</text>
</g>
<!-- Node2_1 -->
<g id="node8" class="node">
<title>Node2_1</title>
<ellipse fill="#40e0d0" stroke="#40e0d0" cx="420" cy="-121" rx="57.69" ry="18"/>
<text text-anchor="middle" x="420" y="-117.3" font-family="Times,serif" font-size="14.00">उपपत्त्या(2.1)</text>
</g>
<!-- Node2_1&#45;&gt;Node9_1 -->
<g id="edge2" class="edge">
<title>Node2_1&#45;&gt;Node9_1</title>
<path fill="none" stroke="black" d="M439.71,-147.01C450.69,-160.94 464.07,-177.91 473.79,-190.24"/>
<polygon fill="black" stroke="black" points="442.18,-144.48 433.24,-138.79 436.68,-148.81 442.18,-144.48"/>
<text text-anchor="middle" x="474.5" y="-160.8" font-family="Times,serif" font-size="14.00">करणम्</text>
</g>
<!-- Node3_1 -->
<g id="node9" class="node">
<title>Node3_1</title>
<ellipse fill="#00bfff" stroke="#00bfff" cx="554" cy="-121" rx="58.49" ry="18"/>
<text text-anchor="middle" x="554" y="-117.3" font-family="Times,serif" font-size="14.00">(नृपतिः)(3.1)</text>
</g>
<!-- Node3_1&#45;&gt;Node9_1 -->
<g id="edge3" class="edge">
<title>Node3_1&#45;&gt;Node9_1</title>
<path fill="none" stroke="black" d="M534.29,-147.01C523.31,-160.94 509.93,-177.91 500.21,-190.24"/>
<polygon fill="black" stroke="black" points="537.32,-148.81 540.76,-138.79 531.82,-144.48 537.32,-148.81"/>
<text text-anchor="middle" x="536" y="-160.8" font-family="Times,serif" font-size="14.00">कर्ता</text>
</g>
<!-- Node7_1 -->
<g id="node10" class="node">
<title>Node7_1</title>
<ellipse fill="#ff99ff" stroke="#ff99ff" cx="294" cy="-34" rx="37.89" ry="18"/>
<text text-anchor="middle" x="294" y="-30.3" font-family="Times,serif" font-size="14.00">च(7.1)</text>
</g>
<!-- Node7_1&#45;&gt;Node6_1 -->
<g id="edge7" class="edge">
<title>Node7_1&#45;&gt;Node6_1</title>
<path fill="none" stroke="black" d="M269.77,-57.02C259.77,-65.89 247.98,-76.12 237,-85 228.77,-91.65 219.47,-98.68 211.33,-104.67"/>
<polygon fill="black" stroke="black" points="272.23,-59.51 277.34,-50.24 267.56,-54.3 272.23,-59.51"/>
<text text-anchor="middle" x="293" y="-73.8" font-family="Times,serif" font-size="14.00">समुच्चय_द्योतकः</text>
</g>
<!-- Node8_1 -->
<g id="node11" class="node">
<title>Node8_1</title>
<ellipse fill="#93db70" stroke="#93db70" cx="686" cy="-121" rx="55.79" ry="18"/>
<text text-anchor="middle" x="686" y="-117.3" font-family="Times,serif" font-size="14.00">(व्यूहम्)(8.1)</text>
</g>
<!-- Node8_1&#45;&gt;Node9_1 -->
<g id="edge8" class="edge">
<title>Node8_1&#45;&gt;Node9_1</title>
<path fill="none" stroke="black" d="M644.06,-139.91C607.01,-155.74 553.72,-178.5 519.73,-193.02"/>
<polygon fill="black" stroke="black" points="645.76,-142.99 653.58,-135.85 643.01,-136.56 645.76,-142.99"/>
<text text-anchor="middle" x="608" y="-160.8" font-family="Times,serif" font-size="14.00">कर्म</text>
</g>
<!-- Node8_2 -->
<g id="node12" class="node">
<title>Node8_2</title>
<ellipse fill="#ff99ff" stroke="#ff99ff" cx="394" cy="-34" rx="44.39" ry="18"/>
<text text-anchor="middle" x="394" y="-30.3" font-family="Times,serif" font-size="14.00">नाम(8.2)</text>
</g>
<!-- Node8_2&#45;&gt;Node6_1 -->
<g id="edge9" class="edge">
<title>Node8_2&#45;&gt;Node6_1</title>
<path fill="none" stroke="black" d="M371.71,-58.54C361.41,-68.12 348.47,-78.45 335,-85 299.09,-102.45 285.72,-93.29 247,-103 239.99,-104.76 232.55,-106.83 225.44,-108.9"/>
<polygon fill="black" stroke="black" points="374.3,-60.9 379.05,-51.43 369.43,-55.88 374.3,-60.9"/>
<text text-anchor="middle" x="391" y="-73.8" font-family="Times,serif" font-size="14.00">सञ्ज्ञा_द्योतक</text>
</g>
<!-- Node10_1 -->
<g id="node13" class="node">
<title>Node10_1</title>
<ellipse fill="#6fffc3" stroke="#6fffc3" cx="814" cy="-121" rx="54.69" ry="18"/>
<text text-anchor="middle" x="814" y="-117.3" font-family="Times,serif" font-size="14.00">भारत(10.1)</text>
</g>
<!-- Node10_1&#45;&gt;Node9_1 -->
<g id="edge10" class="edge">
<title>Node10_1&#45;&gt;Node9_1</title>
<path fill="none" stroke="black" d="M772.73,-139.43C765.55,-142.16 758.11,-144.8 751,-147 677.15,-169.9 589.2,-188.14 535.77,-198.26"/>
<polygon fill="black" stroke="black" points="774.25,-142.59 782.29,-135.69 771.7,-136.07 774.25,-142.59"/>
<text text-anchor="middle" x="737" y="-160.8" font-family="Times,serif" font-size="14.00">सम्बोध्यः</text>
</g>
<!-- Node11_1 -->
<g id="node14" class="node">
<title>Node11_1</title>
<ellipse fill="#00bfff" stroke="#00bfff" cx="1081" cy="-121" rx="55.79" ry="18"/>
<text text-anchor="middle" x="1081" y="-117.3" font-family="Times,serif" font-size="14.00">उशना(11.1)</text>
</g>
<!-- Node11_1&#45;&gt;Node12_1 -->
<g id="edge11" class="edge">
<title>Node11_1&#45;&gt;Node12_1</title>
<path fill="none" stroke="black" d="M1081,-149.27C1081,-162.58 1081,-178.19 1081,-189.82"/>
<polygon fill="black" stroke="black" points="1084.5,-149.2 1081,-139.2 1077.5,-149.2 1084.5,-149.2"/>
<text text-anchor="middle" x="1092" y="-160.8" font-family="Times,serif" font-size="14.00">कर्ता</text>
</g>
<!-- Node11 -->
<g id="node16" class="node">
<title>Node11</title>
<ellipse fill="lightgrey" stroke="black" cx="1149" cy="-34" rx="27" ry="18"/>
</g>
<!-- Node15_1 -->
<g id="node17" class="node">
<title>Node15_1</title>
<ellipse fill="#ff99ff" stroke="#ff99ff" cx="1281" cy="-34" rx="48.19" ry="18"/>
<text text-anchor="middle" x="1281" y="-30.3" font-family="Times,serif" font-size="14.00">तत्र(15.1)</text>
</g>
<!-- Node17_1 -->
<g id="node18" class="node">
<title>Node17_1</title>
<ellipse fill="#ff1975" stroke="#ff1975" cx="1341" cy="-121" rx="61.99" ry="18"/>
<text text-anchor="middle" x="1341" y="-117.3" font-family="Times,serif" font-size="14.00">विहितम्(17.1)</text>
</g>
<!-- Node15_1&#45;&gt;Node17_1 -->
<g id="edge14" class="edge">
<title>Node15_1&#45;&gt;Node17_1</title>
<path fill="none" stroke="black" d="M1287.2,-62.16C1289.76,-69.96 1293.27,-78.2 1298,-85 1303.06,-92.27 1310.03,-98.84 1316.89,-104.26"/>
<polygon fill="black" stroke="black" points="1290.49,-60.94 1284.36,-52.3 1283.76,-62.88 1290.49,-60.94"/>
<text text-anchor="middle" x="1330" y="-73.8" font-family="Times,serif" font-size="14.00">देशाधिकरणम्</text>
</g>
<!-- Node16_1 -->
<g id="node19" class="node">
<title>Node16_1</title>
<ellipse fill="#93db70" stroke="#93db70" cx="1400" cy="-34" rx="52.79" ry="18"/>
<text text-anchor="middle" x="1400" y="-30.3" font-family="Times,serif" font-size="14.00">एतत्(16.1)</text>
</g>
<!-- Node16_1&#45;&gt;Node17_1 -->
<g id="edge15" class="edge">
<title>Node16_1&#45;&gt;Node17_1</title>
<path fill="none" stroke="black" d="M1382.37,-60.4C1372.75,-74.26 1361.11,-91.03 1352.63,-103.24"/>
<polygon fill="black" stroke="black" points="1385.52,-62 1388.34,-51.79 1379.77,-58.01 1385.52,-62"/>
<text text-anchor="middle" x="1383" y="-73.8" font-family="Times,serif" font-size="14.00">कर्म</text>
</g>
<!-- Node18_1 -->
<g id="node20" class="node">
<title>Node18_1</title>
<ellipse fill="#6fffc3" stroke="#6fffc3" cx="1208" cy="-121" rx="53.09" ry="18"/>
<text text-anchor="middle" x="1208" y="-117.3" font-family="Times,serif" font-size="14.00">विभो(18.1)</text>
</g>
<!-- Node18_1&#45;&gt;Node12_1 -->
<g id="edge16" class="edge">
<title>Node18_1&#45;&gt;Node12_1</title>
<path fill="none" stroke="black" d="M1176.39,-143.16C1153.69,-158.35 1123.66,-178.45 1103.4,-192.01"/>
<polygon fill="black" stroke="black" points="1178.64,-145.86 1185,-137.39 1174.74,-140.05 1178.64,-145.86"/>
<text text-anchor="middle" x="1173" y="-160.8" font-family="Times,serif" font-size="14.00">सम्बोध्यः</text>
</g>
</g>
</svg>
