<?xml version="1.0" encoding="UTF-8" standalone="no"?>
<!DOCTYPE svg PUBLIC "-//W3C//DTD SVG 1.1//EN"
 "http://www.w3.org/Graphics/SVG/1.1/DTD/svg11.dtd">
<!-- Generated by graphviz version 2.43.0 (0)
 -->
<!-- Title: G Pages: 1 -->
<svg width="733pt" height="479pt"
 viewBox="0.00 0.00 733.39 479.00" xmlns="http://www.w3.org/2000/svg" xmlns:xlink="http://www.w3.org/1999/xlink">
<g id="graph0" class="graph" transform="scale(1 1) rotate(0) translate(4 475)">
<title>G</title>
<polygon fill="#fffacd" stroke="transparent" points="-4,4 -4,-475 729.39,-475 729.39,4 -4,4"/>
<g id="clust1" class="cluster">
<title>cluster_1</title>
<polygon fill="#fffacd" stroke="black" points="258.2,-166 258.2,-305 366.2,-305 366.2,-166 258.2,-166"/>
</g>
<!-- Node6_3 -->
<g id="node1" class="node">
<title>Node6_3</title>
<ellipse fill="#00bfff" stroke="#00bfff" cx="312.2" cy="-192" rx="44.69" ry="18"/>
<text text-anchor="middle" x="312.2" y="-188.3" font-family="Times,serif" font-size="14.00">बलः(6.3)</text>
</g>
<!-- Node7_1 -->
<g id="node2" class="node">
<title>Node7_1</title>
<ellipse fill="#00bfff" stroke="#00bfff" cx="312.2" cy="-279" rx="46.29" ry="18"/>
<text text-anchor="middle" x="312.2" y="-275.3" font-family="Times,serif" font-size="14.00">शत्रुः(7.1)</text>
</g>
<!-- Node6_3&#45;&gt;Node7_1 -->
<g id="edge8" class="edge">
<title>Node6_3&#45;&gt;Node7_1</title>
<path fill="none" stroke="black" d="M312.2,-220.27C312.2,-233.58 312.2,-249.19 312.2,-260.82"/>
<polygon fill="black" stroke="black" points="315.7,-220.2 312.2,-210.2 308.7,-220.2 315.7,-220.2"/>
<text text-anchor="middle" x="334.7" y="-231.8" font-family="Times,serif" font-size="14.00">विशेषणम्</text>
</g>
<!-- Node11_1 -->
<g id="node12" class="node">
<title>Node11_1</title>
<ellipse fill="#ff1975" stroke="#ff1975" cx="312.2" cy="-366" rx="62.29" ry="18"/>
<text text-anchor="middle" x="312.2" y="-362.3" font-family="Times,serif" font-size="14.00">(अस्ति)(11.1)</text>
</g>
<!-- Node7_1&#45;&gt;Node11_1 -->
<g id="edge9" class="edge">
<title>Node7_1&#45;&gt;Node11_1</title>
<path fill="none" stroke="black" d="M312.2,-307.27C312.2,-320.58 312.2,-336.19 312.2,-347.82"/>
<polygon fill="black" stroke="black" points="315.7,-307.2 312.2,-297.2 308.7,-307.2 315.7,-307.2"/>
<text text-anchor="middle" x="323.2" y="-318.8" font-family="Times,serif" font-size="14.00">कर्ता</text>
</g>
<!-- Node1_1 -->
<g id="node3" class="node">
<title>Node1_1</title>
<ellipse fill="#ffff00" stroke="#ffff00" cx="422.2" cy="-105" rx="46.59" ry="18"/>
<text text-anchor="middle" x="422.2" y="-101.3" font-family="Times,serif" font-size="14.00">राज&#45;(1.1)</text>
</g>
<!-- Node1_2 -->
<g id="node4" class="node">
<title>Node1_2</title>
<ellipse fill="#6fffc3" stroke="#6fffc3" cx="422.2" cy="-192" rx="43.59" ry="18"/>
<text text-anchor="middle" x="422.2" y="-188.3" font-family="Times,serif" font-size="14.00">इन्द्र(1.2)</text>
</g>
<!-- Node1_1&#45;&gt;Node1_2 -->
<g id="edge1" class="edge">
<title>Node1_1&#45;&gt;Node1_2</title>
<path fill="none" stroke="black" d="M422.2,-133.27C422.2,-146.58 422.2,-162.19 422.2,-173.82"/>
<polygon fill="black" stroke="black" points="425.7,-133.2 422.2,-123.2 418.7,-133.2 425.7,-133.2"/>
<text text-anchor="middle" x="439.2" y="-144.8" font-family="Times,serif" font-size="14.00">समासः</text>
</g>
<!-- Node2_1 -->
<g id="node5" class="node">
<title>Node2_1</title>
<ellipse fill="#ff1975" stroke="#ff1975" cx="541.2" cy="-279" rx="67.69" ry="18"/>
<text text-anchor="middle" x="541.2" y="-275.3" font-family="Times,serif" font-size="14.00">पर्युपासीथाः(2.1)</text>
</g>
<!-- Node1_2&#45;&gt;Node2_1 -->
<g id="edge2" class="edge">
<title>Node1_2&#45;&gt;Node2_1</title>
<path fill="none" stroke="black" d="M451.37,-213.84C472.17,-228.69 499.71,-248.37 518.79,-261.99"/>
<polygon fill="black" stroke="black" points="453.37,-210.96 443.2,-208 449.3,-216.66 453.37,-210.96"/>
<text text-anchor="middle" x="509.2" y="-231.8" font-family="Times,serif" font-size="14.00">सम्बोध्यः</text>
</g>
<!-- Node13_2 -->
<g id="node6" class="node">
<title>Node13_2</title>
<ellipse fill="#00bfff" stroke="#00bfff" cx="541.2" cy="-192" rx="57.39" ry="18"/>
<text text-anchor="middle" x="541.2" y="-188.3" font-family="Times,serif" font-size="14.00">(त्वम्)(13.2)</text>
</g>
<!-- Node13_2&#45;&gt;Node2_1 -->
<g id="edge15" class="edge">
<title>Node13_2&#45;&gt;Node2_1</title>
<path fill="none" stroke="black" d="M541.2,-220.27C541.2,-233.58 541.2,-249.19 541.2,-260.82"/>
<polygon fill="black" stroke="black" points="544.7,-220.2 541.2,-210.2 537.7,-220.2 544.7,-220.2"/>
<text text-anchor="middle" x="552.2" y="-231.8" font-family="Times,serif" font-size="14.00">कर्ता</text>
</g>
<!-- Node3_1 -->
<g id="node7" class="node">
<title>Node3_1</title>
<ellipse fill="#6fffc3" stroke="#6fffc3" cx="668.2" cy="-192" rx="51.19" ry="18"/>
<text text-anchor="middle" x="668.2" y="-188.3" font-family="Times,serif" font-size="14.00">छित्त्वा(3.1)</text>
</g>
<!-- Node3_1&#45;&gt;Node2_1 -->
<g id="edge3" class="edge">
<title>Node3_1&#45;&gt;Node2_1</title>
<path fill="none" stroke="black" d="M637.06,-213.84C614.82,-228.72 585.36,-248.44 565,-262.07"/>
<polygon fill="black" stroke="black" points="639.13,-216.67 645.49,-208.2 635.23,-210.85 639.13,-216.67"/>
<text text-anchor="middle" x="632.7" y="-231.8" font-family="Times,serif" font-size="14.00">पूर्वकालः</text>
</g>
<!-- Node4_1 -->
<g id="node8" class="node">
<title>Node4_1</title>
<ellipse fill="#93db70" stroke="#93db70" cx="668.2" cy="-105" rx="57.39" ry="18"/>
<text text-anchor="middle" x="668.2" y="-101.3" font-family="Times,serif" font-size="14.00">द्वैविध्यम्(4.1)</text>
</g>
<!-- Node4_1&#45;&gt;Node3_1 -->
<g id="edge4" class="edge">
<title>Node4_1&#45;&gt;Node3_1</title>
<path fill="none" stroke="black" d="M668.2,-133.27C668.2,-146.58 668.2,-162.19 668.2,-173.82"/>
<polygon fill="black" stroke="black" points="671.7,-133.2 668.2,-123.2 664.7,-133.2 671.7,-133.2"/>
<text text-anchor="middle" x="677.2" y="-144.8" font-family="Times,serif" font-size="14.00">कर्म</text>
</g>
<!-- Node5_1 -->
<g id="node9" class="node">
<title>Node5_1</title>
<ellipse fill="#87ceeb" stroke="#87ceeb" cx="668.2" cy="-18" rx="55.49" ry="18"/>
<text text-anchor="middle" x="668.2" y="-14.3" font-family="Times,serif" font-size="14.00">आत्मनः(5.1)</text>
</g>
<!-- Node5_1&#45;&gt;Node4_1 -->
<g id="edge5" class="edge">
<title>Node5_1&#45;&gt;Node4_1</title>
<path fill="none" stroke="black" d="M668.2,-46.27C668.2,-59.58 668.2,-75.19 668.2,-86.82"/>
<polygon fill="black" stroke="black" points="671.7,-46.2 668.2,-36.2 664.7,-46.2 671.7,-46.2"/>
<text text-anchor="middle" x="695.7" y="-57.8" font-family="Times,serif" font-size="14.00">षष्ठीसम्बन्धः</text>
</g>
<!-- Node6_1 -->
<g id="node10" class="node">
<title>Node6_1</title>
<ellipse fill="#ffff00" stroke="#ffff00" cx="312.2" cy="-18" rx="44.69" ry="18"/>
<text text-anchor="middle" x="312.2" y="-14.3" font-family="Times,serif" font-size="14.00">तुष्ट&#45;(6.1)</text>
</g>
<!-- Node6_2 -->
<g id="node11" class="node">
<title>Node6_2</title>
<ellipse fill="#ffff00" stroke="#ffff00" cx="312.2" cy="-105" rx="44.69" ry="18"/>
<text text-anchor="middle" x="312.2" y="-101.3" font-family="Times,serif" font-size="14.00">पुष्ट&#45;(6.2)</text>
</g>
<!-- Node6_1&#45;&gt;Node6_2 -->
<g id="edge6" class="edge">
<title>Node6_1&#45;&gt;Node6_2</title>
<path fill="none" stroke="black" d="M312.2,-46.27C312.2,-59.58 312.2,-75.19 312.2,-86.82"/>
<polygon fill="black" stroke="black" points="315.7,-46.2 312.2,-36.2 308.7,-46.2 315.7,-46.2"/>
<text text-anchor="middle" x="329.2" y="-57.8" font-family="Times,serif" font-size="14.00">समासः</text>
</g>
<!-- Node6_2&#45;&gt;Node6_3 -->
<g id="edge7" class="edge">
<title>Node6_2&#45;&gt;Node6_3</title>
<path fill="none" stroke="black" d="M312.2,-133.27C312.2,-146.58 312.2,-162.19 312.2,-173.82"/>
<polygon fill="black" stroke="black" points="315.7,-133.2 312.2,-123.2 308.7,-133.2 315.7,-133.2"/>
<text text-anchor="middle" x="329.2" y="-144.8" font-family="Times,serif" font-size="14.00">समासः</text>
</g>
<!-- Node13_1 -->
<g id="node15" class="node">
<title>Node13_1</title>
<ellipse fill="#ff1975" stroke="#ff1975" cx="169.2" cy="-453" rx="55.49" ry="18"/>
<text text-anchor="middle" x="169.2" y="-449.3" font-family="Times,serif" font-size="14.00">स्मरेत्(13.1)</text>
</g>
<!-- Node11_1&#45;&gt;Node13_1 -->
<g id="edge13" class="edge">
<title>Node11_1&#45;&gt;Node13_1</title>
<path fill="none" stroke="black" d="M277.67,-387.52C252.18,-402.68 218.02,-422.98 194.9,-436.72"/>
<polygon fill="black" stroke="black" points="279.49,-390.51 286.3,-382.39 275.92,-384.49 279.49,-390.51"/>
<text text-anchor="middle" x="271.7" y="-405.8" font-family="Times,serif" font-size="14.00">वाक्यकर्म</text>
</g>
<!-- Node8_1 -->
<g id="node13" class="node">
<title>Node8_1</title>
<ellipse fill="#00bfff" stroke="#00bfff" cx="189.2" cy="-192" rx="59.59" ry="18"/>
<text text-anchor="middle" x="189.2" y="-188.3" font-family="Times,serif" font-size="14.00">आत्मवान्(8.1)</text>
</g>
<!-- Node8_1&#45;&gt;Node7_1 -->
<g id="edge10" class="edge">
<title>Node8_1&#45;&gt;Node7_1</title>
<path fill="none" stroke="black" d="M206,-218.17C212.74,-226.88 221.08,-236.16 230.2,-243 244.19,-253.5 261.8,-261.55 277.12,-267.26"/>
<polygon fill="black" stroke="black" points="208.8,-216.07 200.06,-210.09 203.17,-220.22 208.8,-216.07"/>
<text text-anchor="middle" x="269.2" y="-231.8" font-family="Times,serif" font-size="14.00">विधेय_विशेषणम्</text>
</g>
<!-- Node9_1 -->
<g id="node14" class="node">
<title>Node9_1</title>
<ellipse fill="#ff99ff" stroke="#ff99ff" cx="44.2" cy="-366" rx="44.39" ry="18"/>
<text text-anchor="middle" x="44.2" y="-362.3" font-family="Times,serif" font-size="14.00">इति(9.1)</text>
</g>
<!-- Node9_1&#45;&gt;Node13_1 -->
<g id="edge11" class="edge">
<title>Node9_1&#45;&gt;Node13_1</title>
<path fill="none" stroke="black" d="M62.51,-391.4C70.05,-400.28 79.34,-409.88 89.2,-417 102.1,-426.32 117.88,-433.88 132,-439.56"/>
<polygon fill="black" stroke="black" points="65.13,-389.08 56.1,-383.53 59.7,-393.5 65.13,-389.08"/>
<text text-anchor="middle" x="127.2" y="-405.8" font-family="Times,serif" font-size="14.00">वाक्यकर्मद्योतकः</text>
</g>
<!-- Node10_1 -->
<g id="node16" class="node">
<title>Node10_1</title>
<ellipse fill="#ff99ff" stroke="#ff99ff" cx="44.2" cy="-279" rx="43.59" ry="18"/>
<text text-anchor="middle" x="44.2" y="-275.3" font-family="Times,serif" font-size="14.00">च(10.1)</text>
</g>
<!-- Node10_1&#45;&gt;Node9_1 -->
<g id="edge12" class="edge">
<title>Node10_1&#45;&gt;Node9_1</title>
<path fill="none" stroke="black" d="M44.2,-307.27C44.2,-320.58 44.2,-336.19 44.2,-347.82"/>
<polygon fill="black" stroke="black" points="47.7,-307.2 44.2,-297.2 40.7,-307.2 47.7,-307.2"/>
<text text-anchor="middle" x="62.7" y="-318.8" font-family="Times,serif" font-size="14.00">सम्बन्धः</text>
</g>
<!-- Node12_1 -->
<g id="node17" class="node">
<title>Node12_1</title>
<ellipse fill="#00bfff" stroke="#00bfff" cx="169.2" cy="-366" rx="62.29" ry="18"/>
<text text-anchor="middle" x="169.2" y="-362.3" font-family="Times,serif" font-size="14.00">(भवान्)(12.1)</text>
</g>
<!-- Node12_1&#45;&gt;Node13_1 -->
<g id="edge14" class="edge">
<title>Node12_1&#45;&gt;Node13_1</title>
<path fill="none" stroke="black" d="M169.2,-394.27C169.2,-407.58 169.2,-423.19 169.2,-434.82"/>
<polygon fill="black" stroke="black" points="172.7,-394.2 169.2,-384.2 165.7,-394.2 172.7,-394.2"/>
<text text-anchor="middle" x="180.2" y="-405.8" font-family="Times,serif" font-size="14.00">कर्ता</text>
</g>
</g>
</svg>
