<?xml version="1.0" encoding="UTF-8" standalone="no"?>
<!DOCTYPE svg PUBLIC "-//W3C//DTD SVG 1.1//EN"
 "http://www.w3.org/Graphics/SVG/1.1/DTD/svg11.dtd">
<!-- Generated by graphviz version 2.43.0 (0)
 -->
<!-- Title: G Pages: 1 -->
<svg width="1026pt" height="305pt"
 viewBox="0.00 0.00 1026.04 305.00" xmlns="http://www.w3.org/2000/svg" xmlns:xlink="http://www.w3.org/1999/xlink">
<g id="graph0" class="graph" transform="scale(1 1) rotate(0) translate(4 301)">
<title>G</title>
<polygon fill="#fffacd" stroke="transparent" points="-4,4 -4,-301 1022.04,-301 1022.04,4 -4,4"/>
<g id="clust1" class="cluster">
<title>cluster_1</title>
<polygon fill="#fffacd" stroke="black" points="213.15,-79 213.15,-218 896.15,-218 896.15,-79 213.15,-79"/>
</g>
<!-- Node2_1 -->
<g id="node1" class="node">
<title>Node2_1</title>
<ellipse fill="#93db70" stroke="#93db70" cx="841.15" cy="-105" rx="47.39" ry="18"/>
<text text-anchor="middle" x="841.15" y="-101.3" font-family="Times,serif" font-size="14.00">बलम्(2.1)</text>
</g>
<!-- Node12_2 -->
<g id="node2" class="node">
<title>Node12_2</title>
<ellipse fill="#93db70" stroke="#93db70" cx="500.15" cy="-192" rx="53.09" ry="18"/>
<text text-anchor="middle" x="500.15" y="-188.3" font-family="Times,serif" font-size="14.00">बलम्(12.2)</text>
</g>
<!-- Node2_1&#45;&gt;Node12_2 -->
<g id="edge2" class="edge">
<title>Node2_1&#45;&gt;Node12_2</title>
<path fill="none" stroke="black" d="M800.57,-122.43C772.69,-133.21 734.64,-146.93 700.15,-156 649.35,-169.35 589.93,-179.02 549.13,-184.77"/>
<polygon fill="black" stroke="black" points="801.94,-125.65 809.98,-118.75 799.39,-119.13 801.94,-125.65"/>
<text text-anchor="middle" x="769.65" y="-144.8" font-family="Times,serif" font-size="14.00">समुच्चितः</text>
</g>
<!-- Node13_1 -->
<g id="node9" class="node">
<title>Node13_1</title>
<ellipse fill="#ff1975" stroke="#ff1975" cx="158.15" cy="-279" rx="62.29" ry="18"/>
<text text-anchor="middle" x="158.15" y="-275.3" font-family="Times,serif" font-size="14.00">आददीत(13.1)</text>
</g>
<!-- Node12_2&#45;&gt;Node13_1 -->
<g id="edge15" class="edge">
<title>Node12_2&#45;&gt;Node13_1</title>
<path fill="none" stroke="black" d="M448.7,-205.79C382.19,-222.32 267.36,-250.86 203.8,-266.65"/>
<polygon fill="black" stroke="black" points="449.69,-209.15 458.55,-203.34 448,-202.35 449.69,-209.15"/>
<text text-anchor="middle" x="358.15" y="-231.8" font-family="Times,serif" font-size="14.00">कर्म</text>
</g>
<!-- Node3_1 -->
<g id="node3" class="node">
<title>Node3_1</title>
<ellipse fill="#93db70" stroke="#93db70" cx="385.15" cy="-105" rx="50.09" ry="18"/>
<text text-anchor="middle" x="385.15" y="-101.3" font-family="Times,serif" font-size="14.00">मौलम्(3.1)</text>
</g>
<!-- Node3_1&#45;&gt;Node12_2 -->
<g id="edge3" class="edge">
<title>Node3_1&#45;&gt;Node12_2</title>
<path fill="none" stroke="black" d="M413.6,-127.83C425.19,-136.65 438.75,-146.88 451.15,-156 459.9,-162.44 469.63,-169.43 478.1,-175.45"/>
<polygon fill="black" stroke="black" points="415.62,-124.97 405.55,-121.69 411.38,-130.54 415.62,-124.97"/>
<text text-anchor="middle" x="473.65" y="-144.8" font-family="Times,serif" font-size="14.00">समुच्चितः</text>
</g>
<!-- Node5_2 -->
<g id="node4" class="node">
<title>Node5_2</title>
<ellipse fill="#93db70" stroke="#93db70" cx="500.15" cy="-105" rx="47.39" ry="18"/>
<text text-anchor="middle" x="500.15" y="-101.3" font-family="Times,serif" font-size="14.00">बलम्(5.2)</text>
</g>
<!-- Node5_2&#45;&gt;Node12_2 -->
<g id="edge6" class="edge">
<title>Node5_2&#45;&gt;Node12_2</title>
<path fill="none" stroke="black" d="M500.15,-133.27C500.15,-146.58 500.15,-162.19 500.15,-173.82"/>
<polygon fill="black" stroke="black" points="503.65,-133.2 500.15,-123.2 496.65,-133.2 503.65,-133.2"/>
<text text-anchor="middle" x="522.65" y="-144.8" font-family="Times,serif" font-size="14.00">समुच्चितः</text>
</g>
<!-- Node7_1 -->
<g id="node5" class="node">
<title>Node7_1</title>
<ellipse fill="#93db70" stroke="#93db70" cx="614.15" cy="-105" rx="48.19" ry="18"/>
<text text-anchor="middle" x="614.15" y="-101.3" font-family="Times,serif" font-size="14.00">भृतम्(7.1)</text>
</g>
<!-- Node7_1&#45;&gt;Node12_2 -->
<g id="edge8" class="edge">
<title>Node7_1&#45;&gt;Node12_2</title>
<path fill="none" stroke="black" d="M586.42,-127.67C574.95,-136.55 561.48,-146.86 549.15,-156 540.41,-162.48 530.69,-169.47 522.22,-175.48"/>
<polygon fill="black" stroke="black" points="588.62,-130.4 594.37,-121.5 584.33,-124.87 588.62,-130.4"/>
<text text-anchor="middle" x="590.65" y="-144.8" font-family="Times,serif" font-size="14.00">समुच्चितः</text>
</g>
<!-- Node9_2 -->
<g id="node6" class="node">
<title>Node9_2</title>
<ellipse fill="#93db70" stroke="#93db70" cx="728.15" cy="-105" rx="47.39" ry="18"/>
<text text-anchor="middle" x="728.15" y="-101.3" font-family="Times,serif" font-size="14.00">बलम्(9.2)</text>
</g>
<!-- Node9_2&#45;&gt;Node12_2 -->
<g id="edge11" class="edge">
<title>Node9_2&#45;&gt;Node12_2</title>
<path fill="none" stroke="black" d="M691.24,-124.11C669.89,-134.21 642.33,-146.61 617.15,-156 592.21,-165.3 563.61,-173.89 540.92,-180.24"/>
<polygon fill="black" stroke="black" points="692.77,-127.25 700.29,-119.79 689.76,-120.94 692.77,-127.25"/>
<text text-anchor="middle" x="673.65" y="-144.8" font-family="Times,serif" font-size="14.00">समुच्चितः</text>
</g>
<!-- Node11_1 -->
<g id="node7" class="node">
<title>Node11_1</title>
<ellipse fill="#ff99ff" stroke="#ff99ff" cx="269.15" cy="-105" rx="48.19" ry="18"/>
<text text-anchor="middle" x="269.15" y="-101.3" font-family="Times,serif" font-size="14.00">यत्(11.1)</text>
</g>
<!-- Node11_1&#45;&gt;Node12_2 -->
<g id="edge13" class="edge">
<title>Node11_1&#45;&gt;Node12_2</title>
<path fill="none" stroke="black" d="M306.38,-124.13C327.93,-134.24 355.73,-146.64 381.15,-156 406.71,-165.42 436.06,-174.07 459.22,-180.42"/>
<polygon fill="black" stroke="black" points="307.79,-120.92 297.25,-119.81 304.79,-127.25 307.79,-120.92"/>
<text text-anchor="middle" x="403.65" y="-144.8" font-family="Times,serif" font-size="14.00">विशेषणम्</text>
</g>
<!-- Node1_1 -->
<g id="node8" class="node">
<title>Node1_1</title>
<ellipse fill="#00bfff" stroke="#00bfff" cx="46.15" cy="-192" rx="46.29" ry="18"/>
<text text-anchor="middle" x="46.15" y="-188.3" font-family="Times,serif" font-size="14.00">राजा(1.1)</text>
</g>
<!-- Node1_1&#45;&gt;Node13_1 -->
<g id="edge1" class="edge">
<title>Node1_1&#45;&gt;Node13_1</title>
<path fill="none" stroke="black" d="M74.6,-214.6C93.99,-229.31 119.23,-248.46 136.87,-261.85"/>
<polygon fill="black" stroke="black" points="76.51,-211.65 66.43,-208.39 72.28,-217.23 76.51,-211.65"/>
<text text-anchor="middle" x="120.15" y="-231.8" font-family="Times,serif" font-size="14.00">कर्ता</text>
</g>
<!-- Node4_1 -->
<g id="node10" class="node">
<title>Node4_1</title>
<ellipse fill="#ff99ff" stroke="#ff99ff" cx="385.15" cy="-18" rx="44.69" ry="18"/>
<text text-anchor="middle" x="385.15" y="-14.3" font-family="Times,serif" font-size="14.00">तथा(4.1)</text>
</g>
<!-- Node4_1&#45;&gt;Node3_1 -->
<g id="edge4" class="edge">
<title>Node4_1&#45;&gt;Node3_1</title>
<path fill="none" stroke="black" d="M385.15,-46.27C385.15,-59.58 385.15,-75.19 385.15,-86.82"/>
<polygon fill="black" stroke="black" points="388.65,-46.2 385.15,-36.2 381.65,-46.2 388.65,-46.2"/>
<text text-anchor="middle" x="423.15" y="-57.8" font-family="Times,serif" font-size="14.00">समुच्चय_द्योतकः</text>
</g>
<!-- Node5_1 -->
<g id="node11" class="node">
<title>Node5_1</title>
<ellipse fill="#ffff00" stroke="#ffff00" cx="500.15" cy="-18" rx="48.19" ry="18"/>
<text text-anchor="middle" x="500.15" y="-14.3" font-family="Times,serif" font-size="14.00">मित्र&#45;(5.1)</text>
</g>
<!-- Node5_1&#45;&gt;Node5_2 -->
<g id="edge5" class="edge">
<title>Node5_1&#45;&gt;Node5_2</title>
<path fill="none" stroke="black" d="M500.15,-46.27C500.15,-59.58 500.15,-75.19 500.15,-86.82"/>
<polygon fill="black" stroke="black" points="503.65,-46.2 500.15,-36.2 496.65,-46.2 503.65,-46.2"/>
<text text-anchor="middle" x="517.15" y="-57.8" font-family="Times,serif" font-size="14.00">समासः</text>
</g>
<!-- Node6_1 -->
<g id="node12" class="node">
<title>Node6_1</title>
<ellipse fill="#ff99ff" stroke="#ff99ff" cx="614.15" cy="-18" rx="37.89" ry="18"/>
<text text-anchor="middle" x="614.15" y="-14.3" font-family="Times,serif" font-size="14.00">च(6.1)</text>
</g>
<!-- Node6_1&#45;&gt;Node7_1 -->
<g id="edge7" class="edge">
<title>Node6_1&#45;&gt;Node7_1</title>
<path fill="none" stroke="black" d="M614.15,-46.27C614.15,-59.58 614.15,-75.19 614.15,-86.82"/>
<polygon fill="black" stroke="black" points="617.65,-46.2 614.15,-36.2 610.65,-46.2 617.65,-46.2"/>
<text text-anchor="middle" x="652.15" y="-57.8" font-family="Times,serif" font-size="14.00">समुच्चय_द्योतकः</text>
</g>
<!-- Node8_1 -->
<g id="node13" class="node">
<title>Node8_1</title>
<ellipse fill="#ff99ff" stroke="#ff99ff" cx="720.15" cy="-18" rx="37.89" ry="18"/>
<text text-anchor="middle" x="720.15" y="-14.3" font-family="Times,serif" font-size="14.00">च(8.1)</text>
</g>
<!-- Node8_1&#45;&gt;Node9_2 -->
<g id="edge9" class="edge">
<title>Node8_1&#45;&gt;Node9_2</title>
<path fill="none" stroke="black" d="M722.71,-46.27C723.97,-59.58 725.43,-75.19 726.53,-86.82"/>
<polygon fill="black" stroke="black" points="726.19,-45.83 721.76,-36.2 719.22,-46.49 726.19,-45.83"/>
<text text-anchor="middle" x="762.15" y="-57.8" font-family="Times,serif" font-size="14.00">समुच्चय_द्योतकः</text>
</g>
<!-- Node9_1 -->
<g id="node14" class="node">
<title>Node9_1</title>
<ellipse fill="#ffff00" stroke="#ffff00" cx="828.15" cy="-18" rx="52.79" ry="18"/>
<text text-anchor="middle" x="828.15" y="-14.3" font-family="Times,serif" font-size="14.00">अटवी&#45;(9.1)</text>
</g>
<!-- Node9_1&#45;&gt;Node9_2 -->
<g id="edge10" class="edge">
<title>Node9_1&#45;&gt;Node9_2</title>
<path fill="none" stroke="black" d="M819.5,-45.5C815.79,-53.81 810.76,-62.49 804.15,-69 802.28,-70.83 778.47,-81.68 757.99,-90.82"/>
<polygon fill="black" stroke="black" points="822.8,-46.66 823.25,-36.08 816.3,-44.07 822.8,-46.66"/>
<text text-anchor="middle" x="831.15" y="-57.8" font-family="Times,serif" font-size="14.00">समासः</text>
</g>
<!-- Node10_1 -->
<g id="node15" class="node">
<title>Node10_1</title>
<ellipse fill="#ff99ff" stroke="#ff99ff" cx="152.15" cy="-105" rx="50.89" ry="18"/>
<text text-anchor="middle" x="152.15" y="-101.3" font-family="Times,serif" font-size="14.00">तथा(10.1)</text>
</g>
<!-- Node10_1&#45;&gt;Node12_2 -->
<g id="edge12" class="edge">
<title>Node10_1&#45;&gt;Node12_2</title>
<path fill="none" stroke="black" d="M188.74,-125.02C210.66,-135.65 239.38,-148.28 266.15,-156 327.52,-173.71 400.67,-182.82 448.65,-187.24"/>
<polygon fill="black" stroke="black" points="190,-121.74 179.49,-120.45 186.91,-128.02 190,-121.74"/>
<text text-anchor="middle" x="304.15" y="-144.8" font-family="Times,serif" font-size="14.00">समुच्चय_द्योतकः</text>
</g>
<!-- Node12_1 -->
<g id="node16" class="node">
<title>Node12_1</title>
<ellipse fill="#ffff00" stroke="#ffff00" cx="962.15" cy="-105" rx="55.79" ry="18"/>
<text text-anchor="middle" x="962.15" y="-101.3" font-family="Times,serif" font-size="14.00">श्रेणी&#45;(12.1)</text>
</g>
<!-- Node12_1&#45;&gt;Node12_2 -->
<g id="edge14" class="edge">
<title>Node12_1&#45;&gt;Node12_2</title>
<path fill="none" stroke="black" d="M916.21,-122.2C883.19,-133.26 837.4,-147.42 796.15,-156 711.54,-173.6 611.36,-183.13 551.92,-187.63"/>
<polygon fill="black" stroke="black" points="917.67,-125.4 926.02,-118.88 915.43,-118.77 917.67,-125.4"/>
<text text-anchor="middle" x="868.15" y="-144.8" font-family="Times,serif" font-size="14.00">समासः</text>
</g>
<!-- Node14_1 -->
<g id="node17" class="node">
<title>Node14_1</title>
<ellipse fill="#ff99ff" stroke="#ff99ff" cx="158.15" cy="-192" rx="47.39" ry="18"/>
<text text-anchor="middle" x="158.15" y="-188.3" font-family="Times,serif" font-size="14.00">एव(14.1)</text>
</g>
<!-- Node14_1&#45;&gt;Node13_1 -->
<g id="edge16" class="edge">
<title>Node14_1&#45;&gt;Node13_1</title>
<path fill="none" stroke="black" d="M158.15,-220.27C158.15,-233.58 158.15,-249.19 158.15,-260.82"/>
<polygon fill="black" stroke="black" points="161.65,-220.2 158.15,-210.2 154.65,-220.2 161.65,-220.2"/>
<text text-anchor="middle" x="176.65" y="-231.8" font-family="Times,serif" font-size="14.00">सम्बन्धः</text>
</g>
</g>
</svg>
