<?xml version="1.0" encoding="UTF-8" standalone="no"?>
<!DOCTYPE svg PUBLIC "-//W3C//DTD SVG 1.1//EN"
 "http://www.w3.org/Graphics/SVG/1.1/DTD/svg11.dtd">
<!-- Generated by graphviz version 2.43.0 (0)
 -->
<!-- Title: G Pages: 1 -->
<svg width="809pt" height="305pt"
 viewBox="0.00 0.00 808.55 305.00" xmlns="http://www.w3.org/2000/svg" xmlns:xlink="http://www.w3.org/1999/xlink">
<g id="graph0" class="graph" transform="scale(1 1) rotate(0) translate(4 301)">
<title>G</title>
<polygon fill="#fffacd" stroke="transparent" points="-4,4 -4,-301 804.55,-301 804.55,4 -4,4"/>
<g id="clust1" class="cluster">
<title>cluster_1</title>
<polygon fill="#fffacd" stroke="black" points="8,-79 8,-218 128,-218 128,-79 8,-79"/>
</g>
<!-- Node5_1 -->
<g id="node1" class="node">
<title>Node5_1</title>
<ellipse fill="#93db70" stroke="#93db70" cx="68" cy="-105" rx="51.99" ry="18"/>
<text text-anchor="middle" x="68" y="-101.3" font-family="Times,serif" font-size="14.00">धनिनः(5.1)</text>
</g>
<!-- Node6_1 -->
<g id="node2" class="node">
<title>Node6_1</title>
<ellipse fill="#93db70" stroke="#93db70" cx="69" cy="-192" rx="48.19" ry="18"/>
<text text-anchor="middle" x="69" y="-188.3" font-family="Times,serif" font-size="14.00">नरान्(6.1)</text>
</g>
<!-- Node5_1&#45;&gt;Node6_1 -->
<g id="edge5" class="edge">
<title>Node5_1&#45;&gt;Node6_1</title>
<path fill="none" stroke="black" d="M68.32,-133.27C68.48,-146.58 68.66,-162.19 68.8,-173.82"/>
<polygon fill="black" stroke="black" points="71.82,-133.16 68.2,-123.2 64.82,-133.24 71.82,-133.16"/>
<text text-anchor="middle" x="91.5" y="-144.8" font-family="Times,serif" font-size="14.00">विशेषणम्</text>
</g>
<!-- Node4_1 -->
<g id="node6" class="node">
<title>Node4_1</title>
<ellipse fill="#ff1975" stroke="#ff1975" cx="111" cy="-279" rx="57.69" ry="18"/>
<text text-anchor="middle" x="111" y="-275.3" font-family="Times,serif" font-size="14.00">निक्षिपेत्(4.1)</text>
</g>
<!-- Node6_1&#45;&gt;Node4_1 -->
<g id="edge6" class="edge">
<title>Node6_1&#45;&gt;Node4_1</title>
<path fill="none" stroke="black" d="M81.91,-219.13C88.63,-232.73 96.66,-248.98 102.58,-260.95"/>
<polygon fill="black" stroke="black" points="84.87,-217.21 77.3,-209.79 78.59,-220.31 84.87,-217.21"/>
<text text-anchor="middle" x="102" y="-231.8" font-family="Times,serif" font-size="14.00">कर्म</text>
</g>
<!-- Node1_1 -->
<g id="node3" class="node">
<title>Node1_1</title>
<ellipse fill="#93db70" stroke="#93db70" cx="293" cy="-192" rx="46.59" ry="18"/>
<text text-anchor="middle" x="293" y="-188.3" font-family="Times,serif" font-size="14.00">लब्धं(1.1)</text>
</g>
<!-- Node2_1 -->
<g id="node4" class="node">
<title>Node2_1</title>
<ellipse fill="#ff1975" stroke="#ff1975" cx="267" cy="-279" rx="57.69" ry="18"/>
<text text-anchor="middle" x="267" y="-275.3" font-family="Times,serif" font-size="14.00">प्रशमयेत्(2.1)</text>
</g>
<!-- Node1_1&#45;&gt;Node2_1 -->
<g id="edge1" class="edge">
<title>Node1_1&#45;&gt;Node2_1</title>
<path fill="none" stroke="black" d="M284.78,-219.87C280.68,-233.27 275.85,-249.08 272.25,-260.82"/>
<polygon fill="black" stroke="black" points="288.16,-220.79 287.74,-210.2 281.47,-218.74 288.16,-220.79"/>
<text text-anchor="middle" x="290" y="-231.8" font-family="Times,serif" font-size="14.00">कर्म</text>
</g>
<!-- Node3_1 -->
<g id="node5" class="node">
<title>Node3_1</title>
<ellipse fill="#00bfff" stroke="#00bfff" cx="182" cy="-192" rx="46.29" ry="18"/>
<text text-anchor="middle" x="182" y="-188.3" font-family="Times,serif" font-size="14.00">राजा(3.1)</text>
</g>
<!-- Node3_1&#45;&gt;Node2_1 -->
<g id="edge2" class="edge">
<title>Node3_1&#45;&gt;Node2_1</title>
<path fill="none" stroke="black" d="M184.12,-220.46C185.85,-228.4 188.85,-236.63 194,-243 202.3,-253.28 214.35,-260.72 226.27,-266.04"/>
<polygon fill="black" stroke="black" points="187.54,-219.7 182.51,-210.38 180.63,-220.81 187.54,-219.7"/>
<text text-anchor="middle" x="205" y="-231.8" font-family="Times,serif" font-size="14.00">कर्ता</text>
</g>
<!-- Node3_1&#45;&gt;Node4_1 -->
<g id="edge3" class="edge">
<title>Node3_1&#45;&gt;Node4_1</title>
<path fill="none" stroke="black" stroke-dasharray="1,5" d="M155.15,-215.33C150.89,-219.36 146.68,-223.67 143,-228 134.32,-238.21 126.21,-250.94 120.32,-261.01"/>
<polygon fill="black" stroke="black" points="157.71,-217.74 162.77,-208.43 153.01,-212.55 157.71,-217.74"/>
<text text-anchor="middle" x="154" y="-231.8" font-family="Times,serif" font-size="14.00">कर्ता</text>
</g>
<!-- Node12_1 -->
<g id="node7" class="node">
<title>Node12_1</title>
<ellipse fill="#ff1975" stroke="#ff1975" cx="553" cy="-279" rx="63.89" ry="18"/>
<text text-anchor="middle" x="553" y="-275.3" font-family="Times,serif" font-size="14.00">उपक्रमेत्(12.1)</text>
</g>
<!-- Node3_1&#45;&gt;Node12_1 -->
<g id="edge4" class="edge">
<title>Node3_1&#45;&gt;Node12_1</title>
<path fill="none" stroke="black" stroke-dasharray="1,5" d="M206.72,-215.36C219.37,-225.52 235.54,-236.65 252,-243 294.34,-259.32 416.29,-269.54 491.33,-274.47"/>
<polygon fill="black" stroke="black" points="208.87,-212.6 198.95,-208.89 204.39,-217.98 208.87,-212.6"/>
<text text-anchor="middle" x="263" y="-231.8" font-family="Times,serif" font-size="14.00">कर्ता</text>
</g>
<!-- Node7_1 -->
<g id="node8" class="node">
<title>Node7_1</title>
<ellipse fill="#ff99ff" stroke="#ff99ff" cx="553" cy="-192" rx="50.09" ry="18"/>
<text text-anchor="middle" x="553" y="-188.3" font-family="Times,serif" font-size="14.00">ज्ञात्वा(7.1)</text>
</g>
<!-- Node7_1&#45;&gt;Node12_1 -->
<g id="edge7" class="edge">
<title>Node7_1&#45;&gt;Node12_1</title>
<path fill="none" stroke="black" d="M553,-220.27C553,-233.58 553,-249.19 553,-260.82"/>
<polygon fill="black" stroke="black" points="556.5,-220.2 553,-210.2 549.5,-220.2 556.5,-220.2"/>
<text text-anchor="middle" x="573.5" y="-231.8" font-family="Times,serif" font-size="14.00">पूर्वकालः</text>
</g>
<!-- Node8_1 -->
<g id="node9" class="node">
<title>Node8_1</title>
<ellipse fill="#ffff00" stroke="#ffff00" cx="553" cy="-18" rx="43.59" ry="18"/>
<text text-anchor="middle" x="553" y="-14.3" font-family="Times,serif" font-size="14.00">स्व&#45;(8.1)</text>
</g>
<!-- Node8_2 -->
<g id="node10" class="node">
<title>Node8_2</title>
<ellipse fill="#93db70" stroke="#93db70" cx="553" cy="-105" rx="53.89" ry="18"/>
<text text-anchor="middle" x="553" y="-101.3" font-family="Times,serif" font-size="14.00">विषयम्(8.2)</text>
</g>
<!-- Node8_1&#45;&gt;Node8_2 -->
<g id="edge8" class="edge">
<title>Node8_1&#45;&gt;Node8_2</title>
<path fill="none" stroke="black" d="M553,-46.27C553,-59.58 553,-75.19 553,-86.82"/>
<polygon fill="black" stroke="black" points="556.5,-46.2 553,-36.2 549.5,-46.2 556.5,-46.2"/>
<text text-anchor="middle" x="570" y="-57.8" font-family="Times,serif" font-size="14.00">समासः</text>
</g>
<!-- Node8_2&#45;&gt;Node7_1 -->
<g id="edge9" class="edge">
<title>Node8_2&#45;&gt;Node7_1</title>
<path fill="none" stroke="black" d="M553,-133.27C553,-146.58 553,-162.19 553,-173.82"/>
<polygon fill="black" stroke="black" points="556.5,-133.2 553,-123.2 549.5,-133.2 556.5,-133.2"/>
<text text-anchor="middle" x="562" y="-144.8" font-family="Times,serif" font-size="14.00">कर्म</text>
</g>
<!-- Node9_1 -->
<g id="node11" class="node">
<title>Node9_1</title>
<ellipse fill="#93db70" stroke="#93db70" cx="658" cy="-192" rx="37.09" ry="18"/>
<text text-anchor="middle" x="658" y="-188.3" font-family="Times,serif" font-size="14.00">तं(9.1)</text>
</g>
<!-- Node9_1&#45;&gt;Node12_1 -->
<g id="edge10" class="edge">
<title>Node9_1&#45;&gt;Node12_1</title>
<path fill="none" stroke="black" d="M632.57,-214.51C621.95,-223.41 609.45,-233.78 598,-243 590.29,-249.21 581.74,-255.91 574.18,-261.76"/>
<polygon fill="black" stroke="black" points="634.87,-217.15 640.28,-208.04 630.37,-211.79 634.87,-217.15"/>
<text text-anchor="middle" x="625" y="-231.8" font-family="Times,serif" font-size="14.00">कर्म</text>
</g>
<!-- Node10_1 -->
<g id="node12" class="node">
<title>Node10_1</title>
<ellipse fill="#ff99ff" stroke="#ff99ff" cx="757" cy="-192" rx="43.59" ry="18"/>
<text text-anchor="middle" x="757" y="-188.3" font-family="Times,serif" font-size="14.00">च(10.1)</text>
</g>
<!-- Node10_1&#45;&gt;Node12_1 -->
<g id="edge11" class="edge">
<title>Node10_1&#45;&gt;Node12_1</title>
<path fill="none" stroke="black" d="M720.73,-210.48C715.15,-213.06 709.44,-215.64 704,-218 665.31,-234.79 620.32,-252.43 589.57,-264.21"/>
<polygon fill="black" stroke="black" points="722.34,-213.59 729.91,-206.18 719.37,-207.25 722.34,-213.59"/>
<text text-anchor="middle" x="697.5" y="-231.8" font-family="Times,serif" font-size="14.00">सम्बन्धः</text>
</g>
<!-- Node11_1 -->
<g id="node13" class="node">
<title>Node11_1</title>
<ellipse fill="#ffff00" stroke="#ffff00" cx="421" cy="-105" rx="53.89" ry="18"/>
<text text-anchor="middle" x="421" y="-101.3" font-family="Times,serif" font-size="14.00">साम&#45;(11.1)</text>
</g>
<!-- Node11_2 -->
<g id="node14" class="node">
<title>Node11_2</title>
<ellipse fill="#40e0d0" stroke="#40e0d0" cx="421" cy="-192" rx="63.89" ry="18"/>
<text text-anchor="middle" x="421" y="-188.3" font-family="Times,serif" font-size="14.00">आदिभिः(11.2)</text>
</g>
<!-- Node11_1&#45;&gt;Node11_2 -->
<g id="edge12" class="edge">
<title>Node11_1&#45;&gt;Node11_2</title>
<path fill="none" stroke="black" d="M421,-133.27C421,-146.58 421,-162.19 421,-173.82"/>
<polygon fill="black" stroke="black" points="424.5,-133.2 421,-123.2 417.5,-133.2 424.5,-133.2"/>
<text text-anchor="middle" x="438" y="-144.8" font-family="Times,serif" font-size="14.00">समासः</text>
</g>
<!-- Node11_2&#45;&gt;Node12_1 -->
<g id="edge13" class="edge">
<title>Node11_2&#45;&gt;Node12_1</title>
<path fill="none" stroke="black" d="M454,-214.25C477.17,-229.17 507.63,-248.78 528.61,-262.3"/>
<polygon fill="black" stroke="black" points="455.82,-211.26 445.52,-208.79 452.03,-217.15 455.82,-211.26"/>
<text text-anchor="middle" x="510.5" y="-231.8" font-family="Times,serif" font-size="14.00">करणम्</text>
</g>
</g>
</svg>
