<?xml version="1.0" encoding="UTF-8" standalone="no"?>
<!DOCTYPE svg PUBLIC "-//W3C//DTD SVG 1.1//EN"
 "http://www.w3.org/Graphics/SVG/1.1/DTD/svg11.dtd">
<!-- Generated by graphviz version 2.43.0 (0)
 -->
<!-- Title: G Pages: 1 -->
<svg width="742pt" height="479pt"
 viewBox="0.00 0.00 742.00 479.00" xmlns="http://www.w3.org/2000/svg" xmlns:xlink="http://www.w3.org/1999/xlink">
<g id="graph0" class="graph" transform="scale(1 1) rotate(0) translate(4 475)">
<title>G</title>
<polygon fill="#fffacd" stroke="transparent" points="-4,4 -4,-475 738,-475 738,4 -4,4"/>
<g id="clust1" class="cluster">
<title>cluster_1</title>
<polygon fill="#fffacd" stroke="black" points="355,-253 355,-392 726,-392 726,-253 355,-253"/>
</g>
<g id="clust2" class="cluster">
<title>cluster_2</title>
<polygon fill="#fffacd" stroke="black" points="331,-79 331,-218 453,-218 453,-79 331,-79"/>
</g>
<g id="clust3" class="cluster">
<title>cluster_3</title>
<polygon fill="#fffacd" stroke="black" points="461,-79 461,-218 609,-218 609,-79 461,-79"/>
</g>
<!-- Node4_1 -->
<g id="node1" class="node">
<title>Node4_1</title>
<ellipse fill="#00bfff" stroke="#00bfff" cx="412" cy="-279" rx="49.29" ry="18"/>
<text text-anchor="middle" x="412" y="-275.3" font-family="Times,serif" font-size="14.00">युक्तः(4.1)</text>
</g>
<!-- Node5_1 -->
<g id="node2" class="node">
<title>Node5_1</title>
<ellipse fill="#00bfff" stroke="#00bfff" cx="460" cy="-366" rx="46.29" ry="18"/>
<text text-anchor="middle" x="460" y="-362.3" font-family="Times,serif" font-size="14.00">राजा(5.1)</text>
</g>
<!-- Node4_1&#45;&gt;Node5_1 -->
<g id="edge3" class="edge">
<title>Node4_1&#45;&gt;Node5_1</title>
<path fill="none" stroke="black" d="M426.56,-305.8C434.35,-319.58 443.7,-336.14 450.53,-348.24"/>
<polygon fill="black" stroke="black" points="429.44,-303.78 421.48,-296.79 423.35,-307.22 429.44,-303.78"/>
<text text-anchor="middle" x="460.5" y="-318.8" font-family="Times,serif" font-size="14.00">विशेषणम्</text>
</g>
<!-- Node2_1 -->
<g id="node10" class="node">
<title>Node2_1</title>
<ellipse fill="#ff1975" stroke="#ff1975" cx="235" cy="-453" rx="51.99" ry="18"/>
<text text-anchor="middle" x="235" y="-449.3" font-family="Times,serif" font-size="14.00">यायात्(2.1)</text>
</g>
<!-- Node5_1&#45;&gt;Node2_1 -->
<g id="edge4" class="edge">
<title>Node5_1&#45;&gt;Node2_1</title>
<path fill="none" stroke="black" d="M423.14,-385.22C402.02,-395.29 374.84,-407.62 350,-417 325.4,-426.29 297.15,-434.91 274.81,-441.28"/>
<polygon fill="black" stroke="black" points="424.9,-388.26 432.39,-380.77 421.86,-381.95 424.9,-388.26"/>
<text text-anchor="middle" x="394" y="-405.8" font-family="Times,serif" font-size="14.00">कर्ता</text>
</g>
<!-- Node8_1 -->
<g id="node3" class="node">
<title>Node8_1</title>
<ellipse fill="#ff99ff" stroke="#ff99ff" cx="535" cy="-279" rx="55.49" ry="18"/>
<text text-anchor="middle" x="535" y="-275.3" font-family="Times,serif" font-size="14.00">संयुक्तः(8.1)</text>
</g>
<!-- Node8_1&#45;&gt;Node5_1 -->
<g id="edge7" class="edge">
<title>Node8_1&#45;&gt;Node5_1</title>
<path fill="none" stroke="black" d="M513.9,-303.91C501.29,-318.2 485.61,-335.98 474.41,-348.66"/>
<polygon fill="black" stroke="black" points="516.54,-306.2 520.53,-296.39 511.29,-301.57 516.54,-306.2"/>
<text text-anchor="middle" x="523.5" y="-318.8" font-family="Times,serif" font-size="14.00">विशेषणम्</text>
</g>
<!-- Node13_1 -->
<g id="node4" class="node">
<title>Node13_1</title>
<ellipse fill="#00bfff" stroke="#00bfff" cx="663" cy="-279" rx="55.49" ry="18"/>
<text text-anchor="middle" x="663" y="-275.3" font-family="Times,serif" font-size="14.00">युक्तः(13.1)</text>
</g>
<!-- Node13_1&#45;&gt;Node5_1 -->
<g id="edge13" class="edge">
<title>Node13_1&#45;&gt;Node5_1</title>
<path fill="none" stroke="black" d="M622.83,-298.31C601.32,-307.97 574.33,-319.89 550,-330 530.95,-337.91 509.43,-346.3 492.21,-352.88"/>
<polygon fill="black" stroke="black" points="624.31,-301.48 631.98,-294.18 621.43,-295.1 624.31,-301.48"/>
<text text-anchor="middle" x="606.5" y="-318.8" font-family="Times,serif" font-size="14.00">विशेषणम्</text>
</g>
<!-- Node6_1 -->
<g id="node5" class="node">
<title>Node6_1</title>
<ellipse fill="#40e0d0" stroke="#40e0d0" cx="392" cy="-105" rx="52.79" ry="18"/>
<text text-anchor="middle" x="392" y="-101.3" font-family="Times,serif" font-size="14.00">षड्भिः(6.1)</text>
</g>
<!-- Node3_1 -->
<g id="node6" class="node">
<title>Node3_1</title>
<ellipse fill="#40e0d0" stroke="#40e0d0" cx="396" cy="-192" rx="44.69" ry="18"/>
<text text-anchor="middle" x="396" y="-188.3" font-family="Times,serif" font-size="14.00">बलैः(3.1)</text>
</g>
<!-- Node6_1&#45;&gt;Node3_1 -->
<g id="edge5" class="edge">
<title>Node6_1&#45;&gt;Node3_1</title>
<path fill="none" stroke="black" d="M393.28,-133.27C393.91,-146.58 394.64,-162.19 395.19,-173.82"/>
<polygon fill="black" stroke="black" points="396.77,-133.03 392.8,-123.2 389.78,-133.35 396.77,-133.03"/>
<text text-anchor="middle" x="416.5" y="-144.8" font-family="Times,serif" font-size="14.00">विशेषणम्</text>
</g>
<!-- Node3_1&#45;&gt;Node4_1 -->
<g id="edge2" class="edge">
<title>Node3_1&#45;&gt;Node4_1</title>
<path fill="none" stroke="black" d="M401.13,-220.27C403.63,-233.58 406.57,-249.19 408.76,-260.82"/>
<polygon fill="black" stroke="black" points="404.52,-219.38 399.23,-210.2 397.64,-220.68 404.52,-219.38"/>
<text text-anchor="middle" x="420.5" y="-231.8" font-family="Times,serif" font-size="14.00">करणम्</text>
</g>
<!-- Node9_2 -->
<g id="node7" class="node">
<title>Node9_2</title>
<ellipse fill="#40e0d0" stroke="#40e0d0" cx="535" cy="-105" rx="65.79" ry="18"/>
<text text-anchor="middle" x="535" y="-101.3" font-family="Times,serif" font-size="14.00">कालाभ्याम्(9.2)</text>
</g>
<!-- Node11_1 -->
<g id="node8" class="node">
<title>Node11_1</title>
<ellipse fill="#40e0d0" stroke="#40e0d0" cx="535" cy="-192" rx="50.89" ry="18"/>
<text text-anchor="middle" x="535" y="-188.3" font-family="Times,serif" font-size="14.00">बलैः(11.1)</text>
</g>
<!-- Node9_2&#45;&gt;Node11_1 -->
<g id="edge9" class="edge">
<title>Node9_2&#45;&gt;Node11_1</title>
<path fill="none" stroke="black" d="M535,-133.27C535,-146.58 535,-162.19 535,-173.82"/>
<polygon fill="black" stroke="black" points="538.5,-133.2 535,-123.2 531.5,-133.2 538.5,-133.2"/>
<text text-anchor="middle" x="557.5" y="-144.8" font-family="Times,serif" font-size="14.00">विशेषणम्</text>
</g>
<!-- Node11_1&#45;&gt;Node8_1 -->
<g id="edge10" class="edge">
<title>Node11_1&#45;&gt;Node8_1</title>
<path fill="none" stroke="black" d="M535,-220.27C535,-233.58 535,-249.19 535,-260.82"/>
<polygon fill="black" stroke="black" points="538.5,-220.2 535,-210.2 531.5,-220.2 538.5,-220.2"/>
<text text-anchor="middle" x="551.5" y="-231.8" font-family="Times,serif" font-size="14.00">करणम्</text>
</g>
<!-- Node1_1 -->
<g id="node9" class="node">
<title>Node1_1</title>
<ellipse fill="#93db70" stroke="#93db70" cx="52" cy="-366" rx="51.99" ry="18"/>
<text text-anchor="middle" x="52" y="-362.3" font-family="Times,serif" font-size="14.00">यात्राम्(1.1)</text>
</g>
<!-- Node1_1&#45;&gt;Node2_1 -->
<g id="edge1" class="edge">
<title>Node1_1&#45;&gt;Node2_1</title>
<path fill="none" stroke="black" d="M91.02,-385.13C125.19,-401 174.1,-423.71 205.2,-438.16"/>
<polygon fill="black" stroke="black" points="92.35,-381.88 81.8,-380.85 89.4,-388.23 92.35,-381.88"/>
<text text-anchor="middle" x="164" y="-405.8" font-family="Times,serif" font-size="14.00">कर्म</text>
</g>
<!-- Node7_1 -->
<g id="node11" class="node">
<title>Node7_1</title>
<ellipse fill="#6fffc3" stroke="#6fffc3" cx="175" cy="-366" rx="52.79" ry="18"/>
<text text-anchor="middle" x="175" y="-362.3" font-family="Times,serif" font-size="14.00">परन्तप(7.1)</text>
</g>
<!-- Node7_1&#45;&gt;Node2_1 -->
<g id="edge6" class="edge">
<title>Node7_1&#45;&gt;Node2_1</title>
<path fill="none" stroke="black" d="M192.65,-392.01C202.48,-405.94 214.46,-422.91 223.17,-435.24"/>
<polygon fill="black" stroke="black" points="195.48,-389.94 186.85,-383.79 189.76,-393.98 195.48,-389.94"/>
<text text-anchor="middle" x="230" y="-405.8" font-family="Times,serif" font-size="14.00">सम्बोध्यः</text>
</g>
<!-- Node9_1 -->
<g id="node12" class="node">
<title>Node9_1</title>
<ellipse fill="#ffff00" stroke="#ffff00" cx="535" cy="-18" rx="45.49" ry="18"/>
<text text-anchor="middle" x="535" y="-14.3" font-family="Times,serif" font-size="14.00">देश&#45;(9.1)</text>
</g>
<!-- Node9_1&#45;&gt;Node9_2 -->
<g id="edge8" class="edge">
<title>Node9_1&#45;&gt;Node9_2</title>
<path fill="none" stroke="black" d="M535,-46.27C535,-59.58 535,-75.19 535,-86.82"/>
<polygon fill="black" stroke="black" points="538.5,-46.2 535,-36.2 531.5,-46.2 538.5,-46.2"/>
<text text-anchor="middle" x="552" y="-57.8" font-family="Times,serif" font-size="14.00">समासः</text>
</g>
<!-- Node12_1 -->
<g id="node13" class="node">
<title>Node12_1</title>
<ellipse fill="#ffff00" stroke="#ffff00" cx="675" cy="-105" rx="56.59" ry="18"/>
<text text-anchor="middle" x="675" y="-101.3" font-family="Times,serif" font-size="14.00">आत्म&#45;(12.1)</text>
</g>
<!-- Node12_2 -->
<g id="node14" class="node">
<title>Node12_2</title>
<ellipse fill="#40e0d0" stroke="#40e0d0" cx="672" cy="-192" rx="51.99" ry="18"/>
<text text-anchor="middle" x="672" y="-188.3" font-family="Times,serif" font-size="14.00">गुणैः(12.2)</text>
</g>
<!-- Node12_1&#45;&gt;Node12_2 -->
<g id="edge11" class="edge">
<title>Node12_1&#45;&gt;Node12_2</title>
<path fill="none" stroke="black" d="M674.03,-133.27C673.56,-146.58 673.01,-162.19 672.6,-173.82"/>
<polygon fill="black" stroke="black" points="677.53,-133.32 674.39,-123.2 670.54,-133.07 677.53,-133.32"/>
<text text-anchor="middle" x="690" y="-144.8" font-family="Times,serif" font-size="14.00">समासः</text>
</g>
<!-- Node12_2&#45;&gt;Node13_1 -->
<g id="edge12" class="edge">
<title>Node12_2&#45;&gt;Node13_1</title>
<path fill="none" stroke="black" d="M669.11,-220.27C667.7,-233.58 666.05,-249.19 664.81,-260.82"/>
<polygon fill="black" stroke="black" points="672.6,-220.51 670.17,-210.2 665.64,-219.78 672.6,-220.51"/>
<text text-anchor="middle" x="684.5" y="-231.8" font-family="Times,serif" font-size="14.00">करणम्</text>
</g>
<!-- Node14_1 -->
<g id="node15" class="node">
<title>Node14_1</title>
<ellipse fill="#ff99ff" stroke="#ff99ff" cx="296" cy="-366" rx="50.89" ry="18"/>
<text text-anchor="middle" x="296" y="-362.3" font-family="Times,serif" font-size="14.00">तथा(14.1)</text>
</g>
<!-- Node14_1&#45;&gt;Node2_1 -->
<g id="edge14" class="edge">
<title>Node14_1&#45;&gt;Node2_1</title>
<path fill="none" stroke="black" d="M278.05,-392.01C268.05,-405.94 255.87,-422.91 247.02,-435.24"/>
<polygon fill="black" stroke="black" points="280.96,-393.96 283.94,-383.79 275.27,-389.88 280.96,-393.96"/>
<text text-anchor="middle" x="308" y="-405.8" font-family="Times,serif" font-size="14.00">समुच्चय_द्योतकः</text>
</g>
</g>
</svg>
