<?xml version="1.0" encoding="UTF-8" standalone="no"?>
<!DOCTYPE svg PUBLIC "-//W3C//DTD SVG 1.1//EN"
 "http://www.w3.org/Graphics/SVG/1.1/DTD/svg11.dtd">
<!-- Generated by graphviz version 2.43.0 (0)
 -->
<!-- Title: G Pages: 1 -->
<svg width="725pt" height="479pt"
 viewBox="0.00 0.00 725.44 479.00" xmlns="http://www.w3.org/2000/svg" xmlns:xlink="http://www.w3.org/1999/xlink">
<g id="graph0" class="graph" transform="scale(1 1) rotate(0) translate(4 475)">
<title>G</title>
<polygon fill="#fffacd" stroke="transparent" points="-4,4 -4,-475 721.44,-475 721.44,4 -4,4"/>
<g id="clust1" class="cluster">
<title>cluster_1</title>
<polygon fill="#fffacd" stroke="black" points="475.2,-79 475.2,-392 599.2,-392 599.2,-79 475.2,-79"/>
</g>
<!-- Node7_2 -->
<g id="node1" class="node">
<title>Node7_2</title>
<ellipse fill="#00bfff" stroke="#00bfff" cx="537.2" cy="-279" rx="51.99" ry="18"/>
<text text-anchor="middle" x="537.2" y="-275.3" font-family="Times,serif" font-size="14.00">योनिम्(7.2)</text>
</g>
<!-- Node1_2 -->
<g id="node2" class="node">
<title>Node1_2</title>
<ellipse fill="#93db70" stroke="#93db70" cx="537.2" cy="-366" rx="53.09" ry="18"/>
<text text-anchor="middle" x="537.2" y="-362.3" font-family="Times,serif" font-size="14.00">विग्रहम्(1.2)</text>
</g>
<!-- Node7_2&#45;&gt;Node1_2 -->
<g id="edge9" class="edge">
<title>Node7_2&#45;&gt;Node1_2</title>
<path fill="none" stroke="black" d="M537.2,-307.27C537.2,-320.58 537.2,-336.19 537.2,-347.82"/>
<polygon fill="black" stroke="black" points="540.7,-307.2 537.2,-297.2 533.7,-307.2 540.7,-307.2"/>
<text text-anchor="middle" x="559.7" y="-318.8" font-family="Times,serif" font-size="14.00">विशेषणम्</text>
</g>
<!-- Node5_1 -->
<g id="node6" class="node">
<title>Node5_1</title>
<ellipse fill="#ff1975" stroke="#ff1975" cx="276.2" cy="-453" rx="48.19" ry="18"/>
<text text-anchor="middle" x="276.2" y="-449.3" font-family="Times,serif" font-size="14.00">पश्येः(5.1)</text>
</g>
<!-- Node1_2&#45;&gt;Node5_1 -->
<g id="edge2" class="edge">
<title>Node1_2&#45;&gt;Node5_1</title>
<path fill="none" stroke="black" d="M495.51,-384.36C488.76,-387.02 481.81,-389.65 475.2,-392 419.77,-411.69 354.25,-430.63 313.96,-441.79"/>
<polygon fill="black" stroke="black" points="497.22,-387.45 505.21,-380.49 494.63,-380.95 497.22,-387.45"/>
<text text-anchor="middle" x="452.2" y="-405.8" font-family="Times,serif" font-size="14.00">कर्म</text>
</g>
<!-- Node8_2 -->
<g id="node3" class="node">
<title>Node8_2</title>
<ellipse fill="#00bfff" stroke="#00bfff" cx="537.2" cy="-192" rx="53.89" ry="18"/>
<text text-anchor="middle" x="537.2" y="-188.3" font-family="Times,serif" font-size="14.00">उपायम्(8.2)</text>
</g>
<!-- Node8_2&#45;&gt;Node7_2 -->
<g id="edge11" class="edge">
<title>Node8_2&#45;&gt;Node7_2</title>
<path fill="none" stroke="black" d="M537.2,-220.27C537.2,-233.58 537.2,-249.19 537.2,-260.82"/>
<polygon fill="black" stroke="black" points="540.7,-220.2 537.2,-210.2 533.7,-220.2 540.7,-220.2"/>
<text text-anchor="middle" x="559.7" y="-231.8" font-family="Times,serif" font-size="14.00">विशेषणम्</text>
</g>
<!-- Node9_2 -->
<g id="node4" class="node">
<title>Node9_2</title>
<ellipse fill="#00bfff" stroke="#00bfff" cx="537.2" cy="-105" rx="51.99" ry="18"/>
<text text-anchor="middle" x="537.2" y="-101.3" font-family="Times,serif" font-size="14.00">कल्पम्(9.2)</text>
</g>
<!-- Node9_2&#45;&gt;Node8_2 -->
<g id="edge13" class="edge">
<title>Node9_2&#45;&gt;Node8_2</title>
<path fill="none" stroke="black" d="M537.2,-133.27C537.2,-146.58 537.2,-162.19 537.2,-173.82"/>
<polygon fill="black" stroke="black" points="540.7,-133.2 537.2,-123.2 533.7,-133.2 540.7,-133.2"/>
<text text-anchor="middle" x="559.7" y="-144.8" font-family="Times,serif" font-size="14.00">विशेषणम्</text>
</g>
<!-- Node1_1 -->
<g id="node5" class="node">
<title>Node1_1</title>
<ellipse fill="#ffff00" stroke="#ffff00" cx="416.2" cy="-279" rx="51.19" ry="18"/>
<text text-anchor="middle" x="416.2" y="-275.3" font-family="Times,serif" font-size="14.00">सन्धि&#45;(1.1)</text>
</g>
<!-- Node1_1&#45;&gt;Node1_2 -->
<g id="edge1" class="edge">
<title>Node1_1&#45;&gt;Node1_2</title>
<path fill="none" stroke="black" d="M446.49,-301.28C467.79,-316.24 495.81,-335.93 515.04,-349.43"/>
<polygon fill="black" stroke="black" points="448.3,-298.28 438.11,-295.39 444.28,-304.01 448.3,-298.28"/>
<text text-anchor="middle" x="500.2" y="-318.8" font-family="Times,serif" font-size="14.00">समासः</text>
</g>
<!-- Node2_1 -->
<g id="node7" class="node">
<title>Node2_1</title>
<ellipse fill="#ff99ff" stroke="#ff99ff" cx="653.2" cy="-279" rx="46.29" ry="18"/>
<text text-anchor="middle" x="653.2" y="-275.3" font-family="Times,serif" font-size="14.00">अपि(2.1)</text>
</g>
<!-- Node2_1&#45;&gt;Node1_2 -->
<g id="edge3" class="edge">
<title>Node2_1&#45;&gt;Node1_2</title>
<path fill="none" stroke="black" d="M624.81,-301.39C612.92,-310.29 598.93,-320.7 586.2,-330 577.42,-336.41 567.68,-343.39 559.22,-349.42"/>
<polygon fill="black" stroke="black" points="627.15,-304.01 633.05,-295.21 622.95,-298.41 627.15,-304.01"/>
<text text-anchor="middle" x="624.7" y="-318.8" font-family="Times,serif" font-size="14.00">सम्बन्धः</text>
</g>
<!-- Node3_1 -->
<g id="node8" class="node">
<title>Node3_1</title>
<ellipse fill="#ff99ff" stroke="#ff99ff" cx="44.2" cy="-366" rx="44.39" ry="18"/>
<text text-anchor="middle" x="44.2" y="-362.3" font-family="Times,serif" font-size="14.00">अत्र(3.1)</text>
</g>
<!-- Node3_1&#45;&gt;Node5_1 -->
<g id="edge4" class="edge">
<title>Node3_1&#45;&gt;Node5_1</title>
<path fill="none" stroke="black" d="M79.49,-385.28C100.06,-395.48 126.69,-407.91 151.2,-417 179.19,-427.38 211.7,-436.39 236.54,-442.67"/>
<polygon fill="black" stroke="black" points="81.01,-382.13 70.5,-380.78 77.87,-388.39 81.01,-382.13"/>
<text text-anchor="middle" x="178.7" y="-405.8" font-family="Times,serif" font-size="14.00">अधिकरणम्</text>
</g>
<!-- Node4_1 -->
<g id="node9" class="node">
<title>Node4_1</title>
<ellipse fill="#00bfff" stroke="#00bfff" cx="158.2" cy="-366" rx="51.19" ry="18"/>
<text text-anchor="middle" x="158.2" y="-362.3" font-family="Times,serif" font-size="14.00">(त्वम्)(4.1)</text>
</g>
<!-- Node4_1&#45;&gt;Node5_1 -->
<g id="edge5" class="edge">
<title>Node4_1&#45;&gt;Node5_1</title>
<path fill="none" stroke="black" d="M187.79,-388.32C208.7,-403.38 236.24,-423.22 254.99,-436.72"/>
<polygon fill="black" stroke="black" points="189.72,-385.4 179.56,-382.39 185.63,-391.08 189.72,-385.4"/>
<text text-anchor="middle" x="236.2" y="-405.8" font-family="Times,serif" font-size="14.00">कर्ता</text>
</g>
<!-- Node6_1 -->
<g id="node10" class="node">
<title>Node6_1</title>
<ellipse fill="#ffff00" stroke="#ffff00" cx="276.2" cy="-279" rx="46.59" ry="18"/>
<text text-anchor="middle" x="276.2" y="-275.3" font-family="Times,serif" font-size="14.00">राज&#45;(6.1)</text>
</g>
<!-- Node6_2 -->
<g id="node11" class="node">
<title>Node6_2</title>
<ellipse fill="#6fffc3" stroke="#6fffc3" cx="276.2" cy="-366" rx="48.99" ry="18"/>
<text text-anchor="middle" x="276.2" y="-362.3" font-family="Times,serif" font-size="14.00">सत्तम(6.2)</text>
</g>
<!-- Node6_1&#45;&gt;Node6_2 -->
<g id="edge6" class="edge">
<title>Node6_1&#45;&gt;Node6_2</title>
<path fill="none" stroke="black" d="M276.2,-307.27C276.2,-320.58 276.2,-336.19 276.2,-347.82"/>
<polygon fill="black" stroke="black" points="279.7,-307.2 276.2,-297.2 272.7,-307.2 279.7,-307.2"/>
<text text-anchor="middle" x="293.2" y="-318.8" font-family="Times,serif" font-size="14.00">समासः</text>
</g>
<!-- Node6_2&#45;&gt;Node5_1 -->
<g id="edge7" class="edge">
<title>Node6_2&#45;&gt;Node5_1</title>
<path fill="none" stroke="black" d="M276.2,-394.27C276.2,-407.58 276.2,-423.19 276.2,-434.82"/>
<polygon fill="black" stroke="black" points="279.7,-394.2 276.2,-384.2 272.7,-394.2 279.7,-394.2"/>
<text text-anchor="middle" x="297.2" y="-405.8" font-family="Times,serif" font-size="14.00">सम्बोध्यः</text>
</g>
<!-- Node7_1 -->
<g id="node12" class="node">
<title>Node7_1</title>
<ellipse fill="#ffff00" stroke="#ffff00" cx="651.2" cy="-192" rx="42.49" ry="18"/>
<text text-anchor="middle" x="651.2" y="-188.3" font-family="Times,serif" font-size="14.00">द्वि&#45;(7.1)</text>
</g>
<!-- Node7_1&#45;&gt;Node7_2 -->
<g id="edge8" class="edge">
<title>Node7_1&#45;&gt;Node7_2</title>
<path fill="none" stroke="black" d="M623.98,-214.28C612.41,-223.24 598.71,-233.72 586.2,-243 577.46,-249.48 567.74,-256.47 559.27,-262.48"/>
<polygon fill="black" stroke="black" points="626.24,-216.95 631.99,-208.06 621.95,-211.43 626.24,-216.95"/>
<text text-anchor="middle" x="622.2" y="-231.8" font-family="Times,serif" font-size="14.00">समासः</text>
</g>
<!-- Node8_1 -->
<g id="node13" class="node">
<title>Node8_1</title>
<ellipse fill="#ffff00" stroke="#ffff00" cx="662.2" cy="-105" rx="55.49" ry="18"/>
<text text-anchor="middle" x="662.2" y="-101.3" font-family="Times,serif" font-size="14.00">त्रिविध&#45;(8.1)</text>
</g>
<!-- Node8_1&#45;&gt;Node8_2 -->
<g id="edge10" class="edge">
<title>Node8_1&#45;&gt;Node8_2</title>
<path fill="none" stroke="black" d="M630.9,-127.28C608.85,-142.27 579.84,-162 559.98,-175.51"/>
<polygon fill="black" stroke="black" points="632.97,-130.11 639.27,-121.59 629.03,-124.32 632.97,-130.11"/>
<text text-anchor="middle" x="623.2" y="-144.8" font-family="Times,serif" font-size="14.00">समासः</text>
</g>
<!-- Node9_1 -->
<g id="node14" class="node">
<title>Node9_1</title>
<ellipse fill="#ffff00" stroke="#ffff00" cx="537.2" cy="-18" rx="44.39" ry="18"/>
<text text-anchor="middle" x="537.2" y="-14.3" font-family="Times,serif" font-size="14.00">बहु&#45;(9.1)</text>
</g>
<!-- Node9_1&#45;&gt;Node9_2 -->
<g id="edge12" class="edge">
<title>Node9_1&#45;&gt;Node9_2</title>
<path fill="none" stroke="black" d="M537.2,-46.27C537.2,-59.58 537.2,-75.19 537.2,-86.82"/>
<polygon fill="black" stroke="black" points="540.7,-46.2 537.2,-36.2 533.7,-46.2 540.7,-46.2"/>
<text text-anchor="middle" x="554.2" y="-57.8" font-family="Times,serif" font-size="14.00">समासः</text>
</g>
<!-- Node11_1 -->
<g id="node15" class="node">
<title>Node11_1</title>
<ellipse fill="#6fffc3" stroke="#6fffc3" cx="404.2" cy="-366" rx="61.99" ry="18"/>
<text text-anchor="middle" x="404.2" y="-362.3" font-family="Times,serif" font-size="14.00">युधिष्ठिर(11.1)</text>
</g>
<!-- Node11_1&#45;&gt;Node5_1 -->
<g id="edge14" class="edge">
<title>Node11_1&#45;&gt;Node5_1</title>
<path fill="none" stroke="black" d="M372.08,-388.32C349.32,-403.44 319.32,-423.36 298.98,-436.87"/>
<polygon fill="black" stroke="black" points="374.03,-391.24 380.42,-382.79 370.15,-385.4 374.03,-391.24"/>
<text text-anchor="middle" x="369.2" y="-405.8" font-family="Times,serif" font-size="14.00">सम्बोध्यः</text>
</g>
</g>
</svg>
