<?xml version="1.0" encoding="UTF-8" standalone="no"?>
<!DOCTYPE svg PUBLIC "-//W3C//DTD SVG 1.1//EN"
 "http://www.w3.org/Graphics/SVG/1.1/DTD/svg11.dtd">
<!-- Generated by graphviz version 2.43.0 (0)
 -->
<!-- Title: G Pages: 1 -->
<svg width="827pt" height="392pt"
 viewBox="0.00 0.00 826.89 392.00" xmlns="http://www.w3.org/2000/svg" xmlns:xlink="http://www.w3.org/1999/xlink">
<g id="graph0" class="graph" transform="scale(1 1) rotate(0) translate(4 388)">
<title>G</title>
<polygon fill="#fffacd" stroke="transparent" points="-4,4 -4,-388 822.89,-388 822.89,4 -4,4"/>
<!-- Node1_1 -->
<g id="node1" class="node">
<title>Node1_1</title>
<ellipse fill="#ff99ff" stroke="#ff99ff" cx="547" cy="-192" rx="44.69" ry="18"/>
<text text-anchor="middle" x="547" y="-188.3" font-family="Times,serif" font-size="14.00">तथा(1.1)</text>
</g>
<!-- Node12_1 -->
<g id="node2" class="node">
<title>Node12_1</title>
<ellipse fill="#ff1975" stroke="#ff1975" cx="441" cy="-279" rx="62.29" ry="18"/>
<text text-anchor="middle" x="441" y="-275.3" font-family="Times,serif" font-size="14.00">(अस्ति)(12.1)</text>
</g>
<!-- Node1_1&#45;&gt;Node12_1 -->
<g id="edge1" class="edge">
<title>Node1_1&#45;&gt;Node12_1</title>
<path fill="none" stroke="black" d="M537.43,-219.31C533.38,-227.7 527.95,-236.49 521,-243 510.37,-252.94 496.46,-260.35 483.23,-265.72"/>
<polygon fill="black" stroke="black" points="540.64,-220.71 541.43,-210.14 534.23,-217.91 540.64,-220.71"/>
<text text-anchor="middle" x="550.5" y="-231.8" font-family="Times,serif" font-size="14.00">सम्बन्धः</text>
</g>
<!-- Node7_1 -->
<g id="node10" class="node">
<title>Node7_1</title>
<ellipse fill="#00bfff" stroke="#00bfff" cx="262" cy="-366" rx="49.29" ry="18"/>
<text text-anchor="middle" x="262" y="-362.3" font-family="Times,serif" font-size="14.00">विज्ञेयं(7.1)</text>
</g>
<!-- Node12_1&#45;&gt;Node7_1 -->
<g id="edge14" class="edge">
<title>Node12_1&#45;&gt;Node7_1</title>
<path fill="none" stroke="black" d="M400.76,-299.11C367.31,-314.99 320.53,-337.2 290.75,-351.35"/>
<polygon fill="black" stroke="black" points="402.28,-302.26 409.82,-294.81 399.28,-295.93 402.28,-302.26"/>
<text text-anchor="middle" x="384.5" y="-318.8" font-family="Times,serif" font-size="14.00">वाक्यकर्म</text>
</g>
<!-- Node2_1 -->
<g id="node3" class="node">
<title>Node2_1</title>
<ellipse fill="#ffff00" stroke="#ffff00" cx="550" cy="-105" rx="46.29" ry="18"/>
<text text-anchor="middle" x="550" y="-101.3" font-family="Times,serif" font-size="14.00">चार&#45;(2.1)</text>
</g>
<!-- Node2_2 -->
<g id="node4" class="node">
<title>Node2_2</title>
<ellipse fill="#00bfff" stroke="#00bfff" cx="652" cy="-192" rx="42.49" ry="18"/>
<text text-anchor="middle" x="652" y="-188.3" font-family="Times,serif" font-size="14.00">बलं(2.2)</text>
</g>
<!-- Node2_1&#45;&gt;Node2_2 -->
<g id="edge2" class="edge">
<title>Node2_1&#45;&gt;Node2_2</title>
<path fill="none" stroke="black" d="M576.5,-128.08C594.36,-142.97 617.48,-162.24 633.41,-175.51"/>
<polygon fill="black" stroke="black" points="578.63,-125.3 568.7,-121.59 574.15,-130.68 578.63,-125.3"/>
<text text-anchor="middle" x="624" y="-144.8" font-family="Times,serif" font-size="14.00">समासः</text>
</g>
<!-- Node2_2&#45;&gt;Node12_1 -->
<g id="edge3" class="edge">
<title>Node2_2&#45;&gt;Node12_1</title>
<path fill="none" stroke="black" d="M623.64,-213.93C609.09,-223.87 590.73,-235.25 573,-243 547.14,-254.29 516.8,-262.65 491.73,-268.36"/>
<polygon fill="black" stroke="black" points="625.97,-216.56 632.16,-207.97 621.96,-210.83 625.97,-216.56"/>
<text text-anchor="middle" x="611" y="-231.8" font-family="Times,serif" font-size="14.00">कर्ता</text>
</g>
<!-- Node3_1 -->
<g id="node5" class="node">
<title>Node3_1</title>
<ellipse fill="#ff99ff" stroke="#ff99ff" cx="652" cy="-105" rx="37.89" ry="18"/>
<text text-anchor="middle" x="652" y="-101.3" font-family="Times,serif" font-size="14.00">च(3.1)</text>
</g>
<!-- Node3_1&#45;&gt;Node2_2 -->
<g id="edge4" class="edge">
<title>Node3_1&#45;&gt;Node2_2</title>
<path fill="none" stroke="black" d="M652,-133.27C652,-146.58 652,-162.19 652,-173.82"/>
<polygon fill="black" stroke="black" points="655.5,-133.2 652,-123.2 648.5,-133.2 655.5,-133.2"/>
<text text-anchor="middle" x="670.5" y="-144.8" font-family="Times,serif" font-size="14.00">सम्बन्धः</text>
</g>
<!-- Node4_1 -->
<g id="node6" class="node">
<title>Node4_1</title>
<ellipse fill="#ff99ff" stroke="#ff99ff" cx="648" cy="-18" rx="41.69" ry="18"/>
<text text-anchor="middle" x="648" y="-14.3" font-family="Times,serif" font-size="14.00">एव(4.1)</text>
</g>
<!-- Node4_1&#45;&gt;Node3_1 -->
<g id="edge5" class="edge">
<title>Node4_1&#45;&gt;Node3_1</title>
<path fill="none" stroke="black" d="M649.28,-46.27C649.91,-59.58 650.64,-75.19 651.19,-86.82"/>
<polygon fill="black" stroke="black" points="652.77,-46.03 648.8,-36.2 645.78,-46.35 652.77,-46.03"/>
<text text-anchor="middle" x="668.5" y="-57.8" font-family="Times,serif" font-size="14.00">सम्बन्धः</text>
</g>
<!-- Node5_1 -->
<g id="node7" class="node">
<title>Node5_1</title>
<ellipse fill="#ffff00" stroke="#ffff00" cx="763" cy="-18" rx="55.79" ry="18"/>
<text text-anchor="middle" x="763" y="-14.3" font-family="Times,serif" font-size="14.00">परस्पर&#45;(5.1)</text>
</g>
<!-- Node5_2 -->
<g id="node8" class="node">
<title>Node5_2</title>
<ellipse fill="#00bfff" stroke="#00bfff" cx="755" cy="-105" rx="42.79" ry="18"/>
<text text-anchor="middle" x="755" y="-101.3" font-family="Times,serif" font-size="14.00">समं(5.2)</text>
</g>
<!-- Node5_1&#45;&gt;Node5_2 -->
<g id="edge6" class="edge">
<title>Node5_1&#45;&gt;Node5_2</title>
<path fill="none" stroke="black" d="M760.43,-46.27C759.18,-59.58 757.71,-75.19 756.61,-86.82"/>
<polygon fill="black" stroke="black" points="763.92,-46.49 761.38,-36.2 756.95,-45.83 763.92,-46.49"/>
<text text-anchor="middle" x="776" y="-57.8" font-family="Times,serif" font-size="14.00">समासः</text>
</g>
<!-- Node5_2&#45;&gt;Node2_2 -->
<g id="edge7" class="edge">
<title>Node5_2&#45;&gt;Node2_2</title>
<path fill="none" stroke="black" d="M728.18,-128.13C710.02,-143.11 686.5,-162.53 670.42,-175.79"/>
<polygon fill="black" stroke="black" points="730.62,-130.65 736.1,-121.59 726.16,-125.26 730.62,-130.65"/>
<text text-anchor="middle" x="748" y="-144.8" font-family="Times,serif" font-size="14.00">विधेय_विशेषणम्</text>
</g>
<!-- Node6_1 -->
<g id="node9" class="node">
<title>Node6_1</title>
<ellipse fill="#6fffc3" stroke="#6fffc3" cx="311" cy="-192" rx="42.49" ry="18"/>
<text text-anchor="middle" x="311" y="-188.3" font-family="Times,serif" font-size="14.00">नृप(6.1)</text>
</g>
<!-- Node6_1&#45;&gt;Node12_1 -->
<g id="edge8" class="edge">
<title>Node6_1&#45;&gt;Node12_1</title>
<path fill="none" stroke="black" d="M341.58,-213.19C355.43,-222.32 372.03,-233.22 387,-243 396.72,-249.35 407.46,-256.32 416.78,-262.35"/>
<polygon fill="black" stroke="black" points="343.19,-210.06 332.92,-207.48 339.34,-215.91 343.19,-210.06"/>
<text text-anchor="middle" x="408" y="-231.8" font-family="Times,serif" font-size="14.00">सम्बोध्यः</text>
</g>
<!-- Node13_1 -->
<g id="node11" class="node">
<title>Node13_1</title>
<ellipse fill="#ff99ff" stroke="#ff99ff" cx="428" cy="-192" rx="56.59" ry="18"/>
<text text-anchor="middle" x="428" y="-188.3" font-family="Times,serif" font-size="14.00">(इति)(13.1)</text>
</g>
<!-- Node13_1&#45;&gt;Node12_1 -->
<g id="edge15" class="edge">
<title>Node13_1&#45;&gt;Node12_1</title>
<path fill="none" stroke="black" d="M432.17,-220.27C434.2,-233.58 436.59,-249.19 438.37,-260.82"/>
<polygon fill="black" stroke="black" points="435.6,-219.56 430.63,-210.2 428.68,-220.62 435.6,-219.56"/>
<text text-anchor="middle" x="476" y="-231.8" font-family="Times,serif" font-size="14.00">वाक्यकर्म_द्योतकः</text>
</g>
<!-- Node8_1 -->
<g id="node12" class="node">
<title>Node8_1</title>
<ellipse fill="#ffff00" stroke="#ffff00" cx="52" cy="-192" rx="45.49" ry="18"/>
<text text-anchor="middle" x="52" y="-188.3" font-family="Times,serif" font-size="14.00">बल&#45;(8.1)</text>
</g>
<!-- Node8_2 -->
<g id="node13" class="node">
<title>Node8_2</title>
<ellipse fill="#c6e2eb" stroke="#c6e2eb" cx="52" cy="-279" rx="51.99" ry="18"/>
<text text-anchor="middle" x="52" y="-275.3" font-family="Times,serif" font-size="14.00">कालेषु(8.2)</text>
</g>
<!-- Node8_1&#45;&gt;Node8_2 -->
<g id="edge9" class="edge">
<title>Node8_1&#45;&gt;Node8_2</title>
<path fill="none" stroke="black" d="M52,-220.27C52,-233.58 52,-249.19 52,-260.82"/>
<polygon fill="black" stroke="black" points="55.5,-220.2 52,-210.2 48.5,-220.2 55.5,-220.2"/>
<text text-anchor="middle" x="69" y="-231.8" font-family="Times,serif" font-size="14.00">समासः</text>
</g>
<!-- Node8_2&#45;&gt;Node7_1 -->
<g id="edge10" class="edge">
<title>Node8_2&#45;&gt;Node7_1</title>
<path fill="none" stroke="black" d="M82.09,-301.16C97.14,-311 115.95,-322.22 134,-330 161.6,-341.91 194.32,-350.77 219.77,-356.6"/>
<polygon fill="black" stroke="black" points="83.96,-298.2 73.7,-295.57 80.08,-304.03 83.96,-298.2"/>
<text text-anchor="middle" x="161.5" y="-318.8" font-family="Times,serif" font-size="14.00">अधिकरणम्</text>
</g>
<!-- Node9_1 -->
<g id="node14" class="node">
<title>Node9_1</title>
<ellipse fill="#40e0d0" stroke="#40e0d0" cx="314" cy="-279" rx="46.29" ry="18"/>
<text text-anchor="middle" x="314" y="-275.3" font-family="Times,serif" font-size="14.00">राज्ञा(9.1)</text>
</g>
<!-- Node9_1&#45;&gt;Node7_1 -->
<g id="edge11" class="edge">
<title>Node9_1&#45;&gt;Node7_1</title>
<path fill="none" stroke="black" d="M298.46,-305.4C289.98,-319.26 279.72,-336.03 272.25,-348.24"/>
<polygon fill="black" stroke="black" points="301.49,-307.15 303.72,-296.79 295.52,-303.5 301.49,-307.15"/>
<text text-anchor="middle" x="303" y="-318.8" font-family="Times,serif" font-size="14.00">कर्ता</text>
</g>
<!-- Node10_1 -->
<g id="node15" class="node">
<title>Node10_1</title>
<ellipse fill="#00bfff" stroke="#00bfff" cx="186" cy="-192" rx="52.79" ry="18"/>
<text text-anchor="middle" x="186" y="-188.3" font-family="Times,serif" font-size="14.00">काले(10.1)</text>
</g>
<!-- Node11_1 -->
<g id="node16" class="node">
<title>Node11_1</title>
<ellipse fill="#c6e2eb" stroke="#c6e2eb" cx="186" cy="-279" rx="63.89" ry="18"/>
<text text-anchor="middle" x="186" y="-275.3" font-family="Times,serif" font-size="14.00">उपस्थिते(11.1)</text>
</g>
<!-- Node10_1&#45;&gt;Node11_1 -->
<g id="edge12" class="edge">
<title>Node10_1&#45;&gt;Node11_1</title>
<path fill="none" stroke="black" d="M186,-220.27C186,-233.58 186,-249.19 186,-260.82"/>
<polygon fill="black" stroke="black" points="189.5,-220.2 186,-210.2 182.5,-220.2 189.5,-220.2"/>
<text text-anchor="middle" x="197" y="-231.8" font-family="Times,serif" font-size="14.00">कर्ता</text>
</g>
<!-- Node11_1&#45;&gt;Node7_1 -->
<g id="edge13" class="edge">
<title>Node11_1&#45;&gt;Node7_1</title>
<path fill="none" stroke="black" d="M189.59,-307.29C191.65,-315.22 194.89,-323.49 200,-330 207.55,-339.63 218.53,-347.05 229.16,-352.52"/>
<polygon fill="black" stroke="black" points="192.96,-306.32 187.5,-297.24 186.1,-307.74 192.96,-306.32"/>
<text text-anchor="middle" x="240.5" y="-318.8" font-family="Times,serif" font-size="14.00">भावलक्षणसप्तमी</text>
</g>
</g>
</svg>
