<?xml version="1.0" encoding="UTF-8" standalone="no"?>
<!DOCTYPE svg PUBLIC "-//W3C//DTD SVG 1.1//EN"
 "http://www.w3.org/Graphics/SVG/1.1/DTD/svg11.dtd">
<!-- Generated by graphviz version 2.43.0 (0)
 -->
<!-- Title: G Pages: 1 -->
<svg width="810pt" height="392pt"
 viewBox="0.00 0.00 809.59 392.00" xmlns="http://www.w3.org/2000/svg" xmlns:xlink="http://www.w3.org/1999/xlink">
<g id="graph0" class="graph" transform="scale(1 1) rotate(0) translate(4 388)">
<title>G</title>
<polygon fill="#fffacd" stroke="transparent" points="-4,4 -4,-388 805.59,-388 805.59,4 -4,4"/>
<!-- Node1_1 -->
<g id="node1" class="node">
<title>Node1_1</title>
<ellipse fill="#6fffc3" stroke="#6fffc3" cx="311.64" cy="-18" rx="42.49" ry="18"/>
<text text-anchor="middle" x="311.64" y="-14.3" font-family="Times,serif" font-size="14.00">पुत्र(1.1)</text>
</g>
<!-- Node3_1 -->
<g id="node2" class="node">
<title>Node3_1</title>
<ellipse fill="#ff1975" stroke="#ff1975" cx="364.64" cy="-105" rx="61.19" ry="18"/>
<text text-anchor="middle" x="364.64" y="-101.3" font-family="Times,serif" font-size="14.00">विश्रम्यस्व(3.1)</text>
</g>
<!-- Node1_1&#45;&gt;Node3_1 -->
<g id="edge1" class="edge">
<title>Node1_1&#45;&gt;Node3_1</title>
<path fill="none" stroke="black" d="M327.48,-44.4C336.12,-58.26 346.58,-75.03 354.19,-87.24"/>
<polygon fill="black" stroke="black" points="330.38,-42.43 322.12,-35.79 324.44,-46.13 330.38,-42.43"/>
<text text-anchor="middle" x="362.64" y="-57.8" font-family="Times,serif" font-size="14.00">सम्बोध्यः</text>
</g>
<!-- Node2_1 -->
<g id="node3" class="node">
<title>Node2_1</title>
<ellipse fill="#00bfff" stroke="#00bfff" cx="417.64" cy="-18" rx="46.29" ry="18"/>
<text text-anchor="middle" x="417.64" y="-14.3" font-family="Times,serif" font-size="14.00">(त्वं)(2.1)</text>
</g>
<!-- Node2_1&#45;&gt;Node3_1 -->
<g id="edge2" class="edge">
<title>Node2_1&#45;&gt;Node3_1</title>
<path fill="none" stroke="black" d="M402.58,-44.56C397.87,-52.44 392.6,-61.11 387.64,-69 383.93,-74.91 379.77,-81.31 376.02,-87"/>
<polygon fill="black" stroke="black" points="405.71,-46.15 407.81,-35.77 399.69,-42.57 405.71,-46.15"/>
<text text-anchor="middle" x="407.64" y="-57.8" font-family="Times,serif" font-size="14.00">कर्ता</text>
</g>
<!-- Node4_1 -->
<g id="node4" class="node">
<title>Node4_1</title>
<ellipse fill="#87ceeb" stroke="#87ceeb" cx="523.64" cy="-18" rx="42.49" ry="18"/>
<text text-anchor="middle" x="523.64" y="-14.3" font-family="Times,serif" font-size="14.00">मम(4.1)</text>
</g>
<!-- Node5_1 -->
<g id="node5" class="node">
<title>Node5_1</title>
<ellipse fill="#00bfff" stroke="#00bfff" cx="629.64" cy="-105" rx="45.49" ry="18"/>
<text text-anchor="middle" x="629.64" y="-101.3" font-family="Times,serif" font-size="14.00">श्रमः(5.1)</text>
</g>
<!-- Node4_1&#45;&gt;Node5_1 -->
<g id="edge3" class="edge">
<title>Node4_1&#45;&gt;Node5_1</title>
<path fill="none" stroke="black" d="M543.78,-43.11C551.67,-51.81 561.11,-61.35 570.64,-69 580.59,-76.97 592.52,-84.39 603.05,-90.33"/>
<polygon fill="black" stroke="black" points="546.25,-40.62 537.01,-35.44 541,-45.25 546.25,-40.62"/>
<text text-anchor="middle" x="598.14" y="-57.8" font-family="Times,serif" font-size="14.00">षष्ठीसम्बन्धः</text>
</g>
<!-- Node8_1 -->
<g id="node6" class="node">
<title>Node8_1</title>
<ellipse fill="#ff1975" stroke="#ff1975" cx="629.64" cy="-192" rx="56.59" ry="18"/>
<text text-anchor="middle" x="629.64" y="-188.3" font-family="Times,serif" font-size="14.00">(अस्ति)(8.1)</text>
</g>
<!-- Node5_1&#45;&gt;Node8_1 -->
<g id="edge4" class="edge">
<title>Node5_1&#45;&gt;Node8_1</title>
<path fill="none" stroke="black" d="M629.64,-133.27C629.64,-146.58 629.64,-162.19 629.64,-173.82"/>
<polygon fill="black" stroke="black" points="633.14,-133.2 629.64,-123.2 626.14,-133.2 633.14,-133.2"/>
<text text-anchor="middle" x="640.64" y="-144.8" font-family="Times,serif" font-size="14.00">कर्ता</text>
</g>
<!-- Node11_1 -->
<g id="node9" class="node">
<title>Node11_1</title>
<ellipse fill="#ff99ff" stroke="#ff99ff" cx="565.64" cy="-279" rx="57.39" ry="18"/>
<text text-anchor="middle" x="565.64" y="-275.3" font-family="Times,serif" font-size="14.00">उक्त्वा(11.1)</text>
</g>
<!-- Node8_1&#45;&gt;Node11_1 -->
<g id="edge7" class="edge">
<title>Node8_1&#45;&gt;Node11_1</title>
<path fill="none" stroke="black" stroke-dasharray="1,5" d="M614.35,-218.75C609.3,-226.72 603.48,-235.4 597.64,-243 592.83,-249.27 587.13,-255.76 581.88,-261.42"/>
<polygon fill="black" stroke="black" points="617.38,-220.5 619.67,-210.15 611.43,-216.81 617.38,-220.5"/>
<text text-anchor="middle" x="630.14" y="-231.8" font-family="Times,serif" font-size="14.00">वाक्यकर्म</text>
</g>
<!-- Node6_1 -->
<g id="node7" class="node">
<title>Node6_1</title>
<ellipse fill="#ff99ff" stroke="#ff99ff" cx="629.64" cy="-18" rx="46.29" ry="18"/>
<text text-anchor="middle" x="629.64" y="-14.3" font-family="Times,serif" font-size="14.00">अपि(6.1)</text>
</g>
<!-- Node6_1&#45;&gt;Node5_1 -->
<g id="edge5" class="edge">
<title>Node6_1&#45;&gt;Node5_1</title>
<path fill="none" stroke="black" d="M629.64,-46.27C629.64,-59.58 629.64,-75.19 629.64,-86.82"/>
<polygon fill="black" stroke="black" points="633.14,-46.2 629.64,-36.2 626.14,-46.2 633.14,-46.2"/>
<text text-anchor="middle" x="648.14" y="-57.8" font-family="Times,serif" font-size="14.00">सम्बन्धः</text>
</g>
<!-- Node7_1 -->
<g id="node8" class="node">
<title>Node7_1</title>
<ellipse fill="#00bfff" stroke="#00bfff" cx="747.64" cy="-18" rx="53.89" ry="18"/>
<text text-anchor="middle" x="747.64" y="-14.3" font-family="Times,serif" font-size="14.00">बलवान्(7.1)</text>
</g>
<!-- Node7_1&#45;&gt;Node5_1 -->
<g id="edge6" class="edge">
<title>Node7_1&#45;&gt;Node5_1</title>
<path fill="none" stroke="black" d="M717.77,-40.52C696.85,-55.59 669.42,-75.35 650.75,-88.79"/>
<polygon fill="black" stroke="black" points="719.93,-43.28 726,-34.59 715.84,-37.6 719.93,-43.28"/>
<text text-anchor="middle" x="734.64" y="-57.8" font-family="Times,serif" font-size="14.00">विधेय_विशेषणम्</text>
</g>
<!-- Node16_1 -->
<g id="node12" class="node">
<title>Node16_1</title>
<ellipse fill="#ff1975" stroke="#ff1975" cx="320.64" cy="-366" rx="63.09" ry="18"/>
<text text-anchor="middle" x="320.64" y="-362.3" font-family="Times,serif" font-size="14.00">प्राविशत्(16.1)</text>
</g>
<!-- Node11_1&#45;&gt;Node16_1 -->
<g id="edge10" class="edge">
<title>Node11_1&#45;&gt;Node16_1</title>
<path fill="none" stroke="black" d="M530.07,-299.79C510.84,-309.89 486.43,-321.74 463.64,-330 433.85,-340.81 399.37,-349.35 371.73,-355.3"/>
<polygon fill="black" stroke="black" points="531.88,-302.8 539.06,-295.01 528.59,-296.62 531.88,-302.8"/>
<text text-anchor="middle" x="519.14" y="-318.8" font-family="Times,serif" font-size="14.00">पूर्वकालः</text>
</g>
<!-- Node9_1 -->
<g id="node10" class="node">
<title>Node9_1</title>
<ellipse fill="#ff99ff" stroke="#ff99ff" cx="510.64" cy="-192" rx="44.39" ry="18"/>
<text text-anchor="middle" x="510.64" y="-188.3" font-family="Times,serif" font-size="14.00">इति(9.1)</text>
</g>
<!-- Node9_1&#45;&gt;Node11_1 -->
<g id="edge8" class="edge">
<title>Node9_1&#45;&gt;Node11_1</title>
<path fill="none" stroke="black" d="M513.22,-220.41C514.83,-228.13 517.44,-236.26 521.64,-243 526.4,-250.62 533.42,-257.28 540.46,-262.69"/>
<polygon fill="black" stroke="black" points="516.63,-219.6 511.57,-210.29 509.72,-220.72 516.63,-219.6"/>
<text text-anchor="middle" x="559.64" y="-231.8" font-family="Times,serif" font-size="14.00">वाक्यकर्मद्योतकः</text>
</g>
<!-- Node10_1 -->
<g id="node11" class="node">
<title>Node10_1</title>
<ellipse fill="#93db70" stroke="#93db70" cx="195.64" cy="-279" rx="54.69" ry="18"/>
<text text-anchor="middle" x="195.64" y="-275.3" font-family="Times,serif" font-size="14.00">तावत्(10.1)</text>
</g>
<!-- Node10_1&#45;&gt;Node16_1 -->
<g id="edge9" class="edge">
<title>Node10_1&#45;&gt;Node16_1</title>
<path fill="none" stroke="black" d="M217.13,-304.24C225.74,-313.06 236.1,-322.65 246.64,-330 258.42,-338.21 272.42,-345.39 285.06,-351.07"/>
<polygon fill="black" stroke="black" points="219.48,-301.63 210.06,-296.77 214.39,-306.44 219.48,-301.63"/>
<text text-anchor="middle" x="281.64" y="-318.8" font-family="Times,serif" font-size="14.00">क्रियाविशेषणम्</text>
</g>
<!-- Node12_1 -->
<g id="node13" class="node">
<title>Node12_1</title>
<ellipse fill="#00bfff" stroke="#00bfff" cx="320.64" cy="-279" rx="51.99" ry="18"/>
<text text-anchor="middle" x="320.64" y="-275.3" font-family="Times,serif" font-size="14.00">राजा(12.1)</text>
</g>
<!-- Node12_1&#45;&gt;Node16_1 -->
<g id="edge11" class="edge">
<title>Node12_1&#45;&gt;Node16_1</title>
<path fill="none" stroke="black" d="M320.64,-307.27C320.64,-320.58 320.64,-336.19 320.64,-347.82"/>
<polygon fill="black" stroke="black" points="324.14,-307.2 320.64,-297.2 317.14,-307.2 324.14,-307.2"/>
<text text-anchor="middle" x="331.64" y="-318.8" font-family="Times,serif" font-size="14.00">कर्ता</text>
</g>
<!-- Node13_1 -->
<g id="node14" class="node">
<title>Node13_1</title>
<ellipse fill="#ff99ff" stroke="#ff99ff" cx="440.64" cy="-279" rx="50.09" ry="18"/>
<text text-anchor="middle" x="440.64" y="-275.3" font-family="Times,serif" font-size="14.00">तदा(13.1)</text>
</g>
<!-- Node13_1&#45;&gt;Node16_1 -->
<g id="edge12" class="edge">
<title>Node13_1&#45;&gt;Node16_1</title>
<path fill="none" stroke="black" d="M410.66,-301.24C389.68,-316.1 362.1,-335.63 343.03,-349.15"/>
<polygon fill="black" stroke="black" points="412.78,-304.03 418.91,-295.39 408.73,-298.32 412.78,-304.03"/>
<text text-anchor="middle" x="424.14" y="-318.8" font-family="Times,serif" font-size="14.00">कालाधिकरणम्</text>
</g>
<!-- Node14_1 -->
<g id="node15" class="node">
<title>Node14_1</title>
<ellipse fill="#87ceeb" stroke="#87ceeb" cx="65.64" cy="-192" rx="65.79" ry="18"/>
<text text-anchor="middle" x="65.64" y="-188.3" font-family="Times,serif" font-size="14.00">गान्धार्याः(14.1)</text>
</g>
<!-- Node15_1 -->
<g id="node16" class="node">
<title>Node15_1</title>
<ellipse fill="#93db70" stroke="#93db70" cx="65.64" cy="-279" rx="57.69" ry="18"/>
<text text-anchor="middle" x="65.64" y="-275.3" font-family="Times,serif" font-size="14.00">भवनम्(15.1)</text>
</g>
<!-- Node14_1&#45;&gt;Node15_1 -->
<g id="edge13" class="edge">
<title>Node14_1&#45;&gt;Node15_1</title>
<path fill="none" stroke="black" d="M65.64,-220.27C65.64,-233.58 65.64,-249.19 65.64,-260.82"/>
<polygon fill="black" stroke="black" points="69.14,-220.2 65.64,-210.2 62.14,-220.2 69.14,-220.2"/>
<text text-anchor="middle" x="93.14" y="-231.8" font-family="Times,serif" font-size="14.00">षष्ठीसम्बन्धः</text>
</g>
<!-- Node15_1&#45;&gt;Node16_1 -->
<g id="edge14" class="edge">
<title>Node15_1&#45;&gt;Node16_1</title>
<path fill="none" stroke="black" d="M111.17,-296.7C138.71,-306.67 174.58,-319.4 206.64,-330 230.33,-337.83 256.98,-346.05 278.55,-352.55"/>
<polygon fill="black" stroke="black" points="112.02,-293.29 101.43,-293.17 109.64,-299.87 112.02,-293.29"/>
<text text-anchor="middle" x="215.64" y="-318.8" font-family="Times,serif" font-size="14.00">कर्म</text>
</g>
</g>
</svg>
