<?xml version="1.0" encoding="UTF-8" standalone="no"?>
<!DOCTYPE svg PUBLIC "-//W3C//DTD SVG 1.1//EN"
 "http://www.w3.org/Graphics/SVG/1.1/DTD/svg11.dtd">
<!-- Generated by graphviz version 2.43.0 (0)
 -->
<!-- Title: G Pages: 1 -->
<svg width="832pt" height="305pt"
 viewBox="0.00 0.00 831.80 305.00" xmlns="http://www.w3.org/2000/svg" xmlns:xlink="http://www.w3.org/1999/xlink">
<g id="graph0" class="graph" transform="scale(1 1) rotate(0) translate(4 301)">
<title>G</title>
<polygon fill="#fffacd" stroke="transparent" points="-4,4 -4,-301 827.8,-301 827.8,4 -4,4"/>
<g id="clust1" class="cluster">
<title>cluster_1</title>
<polygon fill="#fffacd" stroke="black" points="8,-79 8,-218 388,-218 388,-79 8,-79"/>
</g>
<g id="clust2" class="cluster">
<title>cluster_2</title>
<polygon fill="#fffacd" stroke="black" points="396,-79 396,-218 722,-218 722,-79 396,-79"/>
</g>
<!-- Node1_1 -->
<g id="node1" class="node">
<title>Node1_1</title>
<ellipse fill="#00bfff" stroke="#00bfff" cx="325" cy="-105" rx="54.69" ry="18"/>
<text text-anchor="middle" x="325" y="-101.3" font-family="Times,serif" font-size="14.00">कालज्ञा(1.1)</text>
</g>
<!-- Node4_1 -->
<g id="node2" class="node">
<title>Node4_1</title>
<ellipse fill="#93db70" stroke="#93db70" cx="255" cy="-192" rx="55.79" ry="18"/>
<text text-anchor="middle" x="255" y="-188.3" font-family="Times,serif" font-size="14.00">गान्धारी(4.1)</text>
</g>
<!-- Node1_1&#45;&gt;Node4_1 -->
<g id="edge1" class="edge">
<title>Node1_1&#45;&gt;Node4_1</title>
<path fill="none" stroke="black" d="M304.69,-130.67C293.07,-144.77 278.82,-162.08 268.56,-174.53"/>
<polygon fill="black" stroke="black" points="307.51,-132.74 311.17,-122.79 302.11,-128.29 307.51,-132.74"/>
<text text-anchor="middle" x="316.5" y="-144.8" font-family="Times,serif" font-size="14.00">विशेषणम्</text>
</g>
<!-- Node10_1 -->
<g id="node9" class="node">
<title>Node10_1</title>
<ellipse fill="#ff1975" stroke="#ff1975" cx="553" cy="-279" rx="54.69" ry="18"/>
<text text-anchor="middle" x="553" y="-275.3" font-family="Times,serif" font-size="14.00">उवाच(10.1)</text>
</g>
<!-- Node4_1&#45;&gt;Node10_1 -->
<g id="edge4" class="edge">
<title>Node4_1&#45;&gt;Node10_1</title>
<path fill="none" stroke="black" d="M305.27,-207.34C363.82,-224.04 459.35,-251.29 513.06,-266.61"/>
<polygon fill="black" stroke="black" points="306.08,-203.93 295.5,-204.55 304.16,-210.66 306.08,-203.93"/>
<text text-anchor="middle" x="432" y="-231.8" font-family="Times,serif" font-size="14.00">कर्ता</text>
</g>
<!-- Node2_1 -->
<g id="node3" class="node">
<title>Node2_1</title>
<ellipse fill="#00bfff" stroke="#00bfff" cx="187" cy="-105" rx="64.99" ry="18"/>
<text text-anchor="middle" x="187" y="-101.3" font-family="Times,serif" font-size="14.00">धर्मचारिणी(2.1)</text>
</g>
<!-- Node2_1&#45;&gt;Node4_1 -->
<g id="edge2" class="edge">
<title>Node2_1&#45;&gt;Node4_1</title>
<path fill="none" stroke="black" d="M206.69,-130.61C217.89,-144.62 231.63,-161.79 241.59,-174.24"/>
<polygon fill="black" stroke="black" points="209.41,-128.42 200.43,-122.79 203.95,-132.79 209.41,-128.42"/>
<text text-anchor="middle" x="247.5" y="-144.8" font-family="Times,serif" font-size="14.00">विशेषणम्</text>
</g>
<!-- Node3_1 -->
<g id="node4" class="node">
<title>Node3_1</title>
<ellipse fill="#00bfff" stroke="#00bfff" cx="60" cy="-105" rx="43.59" ry="18"/>
<text text-anchor="middle" x="60" y="-101.3" font-family="Times,serif" font-size="14.00">देवी(3.1)</text>
</g>
<!-- Node3_1&#45;&gt;Node4_1 -->
<g id="edge3" class="edge">
<title>Node3_1&#45;&gt;Node4_1</title>
<path fill="none" stroke="black" d="M96.11,-123.52C116.74,-133.36 143.17,-145.7 167,-156 184.36,-163.5 203.88,-171.32 220.12,-177.67"/>
<polygon fill="black" stroke="black" points="97.6,-120.35 87.07,-119.18 94.57,-126.66 97.6,-120.35"/>
<text text-anchor="middle" x="189.5" y="-144.8" font-family="Times,serif" font-size="14.00">विशेषणम्</text>
</g>
<!-- Node6_2 -->
<g id="node5" class="node">
<title>Node6_2</title>
<ellipse fill="#93db70" stroke="#93db70" cx="553" cy="-105" rx="46.59" ry="18"/>
<text text-anchor="middle" x="553" y="-101.3" font-family="Times,serif" font-size="14.00">गतम्(6.2)</text>
</g>
<!-- Node9_1 -->
<g id="node6" class="node">
<title>Node9_1</title>
<ellipse fill="#93db70" stroke="#93db70" cx="553" cy="-192" rx="49.29" ry="18"/>
<text text-anchor="middle" x="553" y="-188.3" font-family="Times,serif" font-size="14.00">पतिम्(9.1)</text>
</g>
<!-- Node6_2&#45;&gt;Node9_1 -->
<g id="edge7" class="edge">
<title>Node6_2&#45;&gt;Node9_1</title>
<path fill="none" stroke="black" d="M553,-133.27C553,-146.58 553,-162.19 553,-173.82"/>
<polygon fill="black" stroke="black" points="556.5,-133.2 553,-123.2 549.5,-133.2 556.5,-133.2"/>
<text text-anchor="middle" x="575.5" y="-144.8" font-family="Times,serif" font-size="14.00">विशेषणम्</text>
</g>
<!-- Node9_1&#45;&gt;Node10_1 -->
<g id="edge11" class="edge">
<title>Node9_1&#45;&gt;Node10_1</title>
<path fill="none" stroke="black" d="M553,-220.27C553,-233.58 553,-249.19 553,-260.82"/>
<polygon fill="black" stroke="black" points="556.5,-220.2 553,-210.2 549.5,-220.2 556.5,-220.2"/>
<text text-anchor="middle" x="562" y="-231.8" font-family="Times,serif" font-size="14.00">कर्म</text>
</g>
<!-- Node7_2 -->
<g id="node7" class="node">
<title>Node7_2</title>
<ellipse fill="#93db70" stroke="#93db70" cx="666" cy="-105" rx="48.19" ry="18"/>
<text text-anchor="middle" x="666" y="-101.3" font-family="Times,serif" font-size="14.00">समम्(7.2)</text>
</g>
<!-- Node7_2&#45;&gt;Node9_1 -->
<g id="edge9" class="edge">
<title>Node7_2&#45;&gt;Node9_1</title>
<path fill="none" stroke="black" d="M638.41,-127.97C627.2,-136.79 614.06,-146.99 602,-156 593.29,-162.51 583.57,-169.5 575.1,-175.52"/>
<polygon fill="black" stroke="black" points="640.88,-130.48 646.56,-121.54 636.54,-124.99 640.88,-130.48"/>
<text text-anchor="middle" x="643.5" y="-144.8" font-family="Times,serif" font-size="14.00">विशेषणम्</text>
</g>
<!-- Node8_1 -->
<g id="node8" class="node">
<title>Node8_1</title>
<ellipse fill="#93db70" stroke="#93db70" cx="446" cy="-105" rx="42.49" ry="18"/>
<text text-anchor="middle" x="446" y="-101.3" font-family="Times,serif" font-size="14.00">तम्(8.1)</text>
</g>
<!-- Node8_1&#45;&gt;Node9_1 -->
<g id="edge10" class="edge">
<title>Node8_1&#45;&gt;Node9_1</title>
<path fill="none" stroke="black" d="M470.84,-128.29C480.95,-137.13 492.86,-147.25 504,-156 512.55,-162.72 522.24,-169.75 530.73,-175.74"/>
<polygon fill="black" stroke="black" points="472.98,-125.51 463.16,-121.52 468.35,-130.76 472.98,-125.51"/>
<text text-anchor="middle" x="526.5" y="-144.8" font-family="Times,serif" font-size="14.00">विशेषणम्</text>
</g>
<!-- Node5_1 -->
<g id="node10" class="node">
<title>Node5_1</title>
<ellipse fill="#c6e2eb" stroke="#c6e2eb" cx="777" cy="-192" rx="46.59" ry="18"/>
<text text-anchor="middle" x="777" y="-188.3" font-family="Times,serif" font-size="14.00">काले(5.1)</text>
</g>
<!-- Node5_1&#45;&gt;Node10_1 -->
<g id="edge5" class="edge">
<title>Node5_1&#45;&gt;Node10_1</title>
<path fill="none" stroke="black" d="M740.93,-211.36C735.96,-213.69 730.88,-215.97 726,-218 680.66,-236.89 627.04,-254.83 591.64,-266.09"/>
<polygon fill="black" stroke="black" points="742.79,-214.34 750.28,-206.86 739.76,-208.04 742.79,-214.34"/>
<text text-anchor="middle" x="725.5" y="-231.8" font-family="Times,serif" font-size="14.00">अधिकरणम्</text>
</g>
<!-- Node6_1 -->
<g id="node11" class="node">
<title>Node6_1</title>
<ellipse fill="#ffff00" stroke="#ffff00" cx="544" cy="-18" rx="53.89" ry="18"/>
<text text-anchor="middle" x="544" y="-14.3" font-family="Times,serif" font-size="14.00">आसन&#45;(6.1)</text>
</g>
<!-- Node6_1&#45;&gt;Node6_2 -->
<g id="edge6" class="edge">
<title>Node6_1&#45;&gt;Node6_2</title>
<path fill="none" stroke="black" d="M546.89,-46.27C548.3,-59.58 549.95,-75.19 551.18,-86.82"/>
<polygon fill="black" stroke="black" points="550.35,-45.78 545.82,-36.2 543.39,-46.51 550.35,-45.78"/>
<text text-anchor="middle" x="566" y="-57.8" font-family="Times,serif" font-size="14.00">समासः</text>
</g>
<!-- Node7_1 -->
<g id="node12" class="node">
<title>Node7_1</title>
<ellipse fill="#ffff00" stroke="#ffff00" cx="676" cy="-18" rx="60.39" ry="18"/>
<text text-anchor="middle" x="676" y="-14.3" font-family="Times,serif" font-size="14.00">प्रजापति&#45;(7.1)</text>
</g>
<!-- Node7_1&#45;&gt;Node7_2 -->
<g id="edge8" class="edge">
<title>Node7_1&#45;&gt;Node7_2</title>
<path fill="none" stroke="black" d="M672.79,-46.27C671.23,-59.58 669.39,-75.19 668.02,-86.82"/>
<polygon fill="black" stroke="black" points="676.28,-46.54 673.98,-36.2 669.33,-45.72 676.28,-46.54"/>
<text text-anchor="middle" x="688" y="-57.8" font-family="Times,serif" font-size="14.00">समासः</text>
</g>
</g>
</svg>
