<?xml version="1.0" encoding="UTF-8" standalone="no"?>
<!DOCTYPE svg PUBLIC "-//W3C//DTD SVG 1.1//EN"
 "http://www.w3.org/Graphics/SVG/1.1/DTD/svg11.dtd">
<!-- Generated by graphviz version 2.43.0 (0)
 -->
<!-- Title: G Pages: 1 -->
<svg width="929pt" height="234pt"
 viewBox="0.00 0.00 928.74 234.00" xmlns="http://www.w3.org/2000/svg" xmlns:xlink="http://www.w3.org/1999/xlink">
<g id="graph0" class="graph" transform="scale(1 1) rotate(0) translate(4 230)">
<title>G</title>
<polygon fill="#fffacd" stroke="transparent" points="-4,4 -4,-230 924.74,-230 924.74,4 -4,4"/>
<g id="clust1" class="cluster">
<title>cluster_1</title>
<polygon fill="#fffacd" stroke="black" points="8,-8 8,-147 251,-147 251,-8 8,-8"/>
</g>
<!-- Node6_1 -->
<g id="node1" class="node">
<title>Node6_1</title>
<ellipse fill="#00bfff" stroke="#00bfff" cx="203" cy="-34" rx="40.09" ry="18"/>
<text text-anchor="middle" x="203" y="-30.3" font-family="Times,serif" font-size="14.00">सः(6.1)</text>
</g>
<!-- Node5_1 -->
<g id="node2" class="node">
<title>Node5_1</title>
<ellipse fill="#00bfff" stroke="#00bfff" cx="188" cy="-121" rx="53.89" ry="18"/>
<text text-anchor="middle" x="188" y="-117.3" font-family="Times,serif" font-size="14.00">पार्थिवः(5.1)</text>
</g>
<!-- Node6_1&#45;&gt;Node5_1 -->
<g id="edge5" class="edge">
<title>Node6_1&#45;&gt;Node5_1</title>
<path fill="none" stroke="black" d="M198.19,-62.27C195.84,-75.58 193.08,-91.19 191.03,-102.82"/>
<polygon fill="black" stroke="black" points="201.67,-62.66 199.96,-52.2 194.78,-61.44 201.67,-62.66"/>
<text text-anchor="middle" x="219.5" y="-73.8" font-family="Times,serif" font-size="14.00">विशेषणम्</text>
</g>
<!-- Node9_1 -->
<g id="node8" class="node">
<title>Node9_1</title>
<ellipse fill="#ff1975" stroke="#ff1975" cx="398" cy="-208" rx="59.59" ry="18"/>
<text text-anchor="middle" x="398" y="-204.3" font-family="Times,serif" font-size="14.00">समानिन्ये(9.1)</text>
</g>
<!-- Node5_1&#45;&gt;Node9_1 -->
<g id="edge4" class="edge">
<title>Node5_1&#45;&gt;Node9_1</title>
<path fill="none" stroke="black" d="M230.85,-139.34C270.13,-155.24 327.56,-178.49 363.84,-193.17"/>
<polygon fill="black" stroke="black" points="231.86,-135.98 221.28,-135.47 229.23,-142.46 231.86,-135.98"/>
<text text-anchor="middle" x="317" y="-160.8" font-family="Times,serif" font-size="14.00">कर्ता</text>
</g>
<!-- Node10_1 -->
<g id="node3" class="node">
<title>Node10_1</title>
<ellipse fill="#00bfff" stroke="#00bfff" cx="80" cy="-34" rx="64.19" ry="18"/>
<text text-anchor="middle" x="80" y="-30.3" font-family="Times,serif" font-size="14.00">महीपतिः(10.1)</text>
</g>
<!-- Node10_1&#45;&gt;Node5_1 -->
<g id="edge8" class="edge">
<title>Node10_1&#45;&gt;Node5_1</title>
<path fill="none" stroke="black" d="M108.48,-57.41C127.17,-72.12 151.15,-91 167.87,-104.16"/>
<polygon fill="black" stroke="black" points="110.59,-54.62 100.57,-51.19 106.26,-60.12 110.59,-54.62"/>
<text text-anchor="middle" x="163.5" y="-73.8" font-family="Times,serif" font-size="14.00">विशेषणम्</text>
</g>
<!-- Node1_1 -->
<g id="node4" class="node">
<title>Node1_1</title>
<ellipse fill="#ff99ff" stroke="#ff99ff" cx="678" cy="-34" rx="44.39" ry="18"/>
<text text-anchor="middle" x="678" y="-30.3" font-family="Times,serif" font-size="14.00">इति(1.1)</text>
</g>
<!-- Node2_1 -->
<g id="node5" class="node">
<title>Node2_1</title>
<ellipse fill="#ff99ff" stroke="#ff99ff" cx="728" cy="-121" rx="51.19" ry="18"/>
<text text-anchor="middle" x="728" y="-117.3" font-family="Times,serif" font-size="14.00">उक्त्वा(2.1)</text>
</g>
<!-- Node1_1&#45;&gt;Node2_1 -->
<g id="edge1" class="edge">
<title>Node1_1&#45;&gt;Node2_1</title>
<path fill="none" stroke="black" d="M693.18,-60.8C701.28,-74.58 711.03,-91.14 718.14,-103.24"/>
<polygon fill="black" stroke="black" points="695.97,-58.64 687.88,-51.79 689.93,-62.19 695.97,-58.64"/>
<text text-anchor="middle" x="714" y="-73.8" font-family="Times,serif" font-size="14.00">कर्म</text>
</g>
<!-- Node4_1 -->
<g id="node6" class="node">
<title>Node4_1</title>
<ellipse fill="#00bfff" stroke="#00bfff" cx="826" cy="-208" rx="62.29" ry="18"/>
<text text-anchor="middle" x="826" y="-204.3" font-family="Times,serif" font-size="14.00">प्रेषयामास(4.1)</text>
</g>
<!-- Node2_1&#45;&gt;Node4_1 -->
<g id="edge2" class="edge">
<title>Node2_1&#45;&gt;Node4_1</title>
<path fill="none" stroke="black" d="M754.24,-144.76C770.98,-159.28 792.28,-177.76 807.32,-190.79"/>
<polygon fill="black" stroke="black" points="756.28,-141.9 746.43,-137.99 751.69,-147.18 756.28,-141.9"/>
<text text-anchor="middle" x="802.5" y="-160.8" font-family="Times,serif" font-size="14.00">पूर्वकालः</text>
</g>
<!-- Node3_1 -->
<g id="node7" class="node">
<title>Node3_1</title>
<ellipse fill="#b0e2ff" stroke="#b0e2ff" cx="859" cy="-121" rx="61.99" ry="18"/>
<text text-anchor="middle" x="859" y="-117.3" font-family="Times,serif" font-size="14.00">धर्मराजाय(3.1)</text>
</g>
<!-- Node3_1&#45;&gt;Node4_1 -->
<g id="edge3" class="edge">
<title>Node3_1&#45;&gt;Node4_1</title>
<path fill="none" stroke="black" d="M848.57,-148.87C843.37,-162.27 837.23,-178.08 832.67,-189.82"/>
<polygon fill="black" stroke="black" points="851.97,-149.79 852.32,-139.2 845.44,-147.26 851.97,-149.79"/>
<text text-anchor="middle" x="867.5" y="-160.8" font-family="Times,serif" font-size="14.00">सम्प्रदानम्</text>
</g>
<!-- Node7_1 -->
<g id="node9" class="node">
<title>Node7_1</title>
<ellipse fill="#ff99ff" stroke="#ff99ff" cx="778" cy="-34" rx="37.89" ry="18"/>
<text text-anchor="middle" x="778" y="-30.3" font-family="Times,serif" font-size="14.00">च(7.1)</text>
</g>
<!-- Node7_1&#45;&gt;Node2_1 -->
<g id="edge6" class="edge">
<title>Node7_1&#45;&gt;Node2_1</title>
<path fill="none" stroke="black" d="M762.82,-60.8C754.72,-74.58 744.97,-91.14 737.86,-103.24"/>
<polygon fill="black" stroke="black" points="766.07,-62.19 768.12,-51.79 760.03,-58.64 766.07,-62.19"/>
<text text-anchor="middle" x="773.5" y="-73.8" font-family="Times,serif" font-size="14.00">सम्बन्धः</text>
</g>
<!-- Node8_1 -->
<g id="node10" class="node">
<title>Node8_1</title>
<ellipse fill="#b4ffb4" stroke="#b4ffb4" cx="322" cy="-121" rx="61.99" ry="18"/>
<text text-anchor="middle" x="322" y="-117.3" font-family="Times,serif" font-size="14.00">तत्वचनात्(8.1)</text>
</g>
<!-- Node8_1&#45;&gt;Node9_1 -->
<g id="edge7" class="edge">
<title>Node8_1&#45;&gt;Node9_1</title>
<path fill="none" stroke="black" d="M343.7,-146.27C356.38,-160.45 372.03,-177.96 383.27,-190.53"/>
<polygon fill="black" stroke="black" points="346.29,-143.92 337.02,-138.79 341.07,-148.58 346.29,-143.92"/>
<text text-anchor="middle" x="373.5" y="-160.8" font-family="Times,serif" font-size="14.00">हेतुः</text>
</g>
<!-- Node11_1 -->
<g id="node11" class="node">
<title>Node11_1</title>
<ellipse fill="#93db70" stroke="#93db70" cx="473" cy="-121" rx="71.49" ry="18"/>
<text text-anchor="middle" x="473" y="-117.3" font-family="Times,serif" font-size="14.00">(धर्मराजम्)(11.1)</text>
</g>
<!-- Node11_1&#45;&gt;Node9_1 -->
<g id="edge9" class="edge">
<title>Node11_1&#45;&gt;Node9_1</title>
<path fill="none" stroke="black" d="M451.24,-146.67C438.79,-160.77 423.52,-178.08 412.53,-190.53"/>
<polygon fill="black" stroke="black" points="454.19,-148.61 458.18,-138.79 448.94,-143.98 454.19,-148.61"/>
<text text-anchor="middle" x="458.5" y="-160.8" font-family="Times,serif" font-size="14.00">गौणकर्म</text>
</g>
<!-- Node12_1 -->
<g id="node12" class="node">
<title>Node12_1</title>
<ellipse fill="#93db70" stroke="#93db70" cx="611" cy="-121" rx="48.19" ry="18"/>
<text text-anchor="middle" x="611" y="-117.3" font-family="Times,serif" font-size="14.00">सर्वं(12.1)</text>
</g>
<!-- Node12_1&#45;&gt;Node9_1 -->
<g id="edge10" class="edge">
<title>Node12_1&#45;&gt;Node9_1</title>
<path fill="none" stroke="black" d="M571.48,-139.27C565.31,-141.9 558.99,-144.55 553,-147 512.4,-163.6 465.37,-181.64 433.86,-193.56"/>
<polygon fill="black" stroke="black" points="573.18,-142.35 580.99,-135.19 570.42,-135.92 573.18,-142.35"/>
<text text-anchor="middle" x="547" y="-160.8" font-family="Times,serif" font-size="14.00">मुख्यकर्म</text>
</g>
</g>
</svg>
