<?xml version="1.0" encoding="UTF-8" standalone="no"?>
<!DOCTYPE svg PUBLIC "-//W3C//DTD SVG 1.1//EN"
 "http://www.w3.org/Graphics/SVG/1.1/DTD/svg11.dtd">
<!-- Generated by graphviz version 2.43.0 (0)
 -->
<!-- Title: G Pages: 1 -->
<svg width="550pt" height="408pt"
 viewBox="0.00 0.00 550.00 408.00" xmlns="http://www.w3.org/2000/svg" xmlns:xlink="http://www.w3.org/1999/xlink">
<g id="graph0" class="graph" transform="scale(1 1) rotate(0) translate(4 404)">
<title>G</title>
<polygon fill="#fffacd" stroke="transparent" points="-4,4 -4,-404 546,-404 546,4 -4,4"/>
<g id="clust1" class="cluster">
<title>cluster_1</title>
<polygon fill="#fffacd" stroke="black" points="8,-8 8,-147 140,-147 140,-8 8,-8"/>
</g>
<g id="clust2" class="cluster">
<title>cluster_2</title>
<polygon fill="#fffacd" stroke="black" points="8,-182 8,-321 140,-321 140,-182 8,-182"/>
</g>
<!-- Node3_1 -->
<g id="node1" class="node">
<title>Node3_1</title>
<ellipse fill="#40e0d0" stroke="#40e0d0" cx="74" cy="-34" rx="47.39" ry="18"/>
<text text-anchor="middle" x="74" y="-30.3" font-family="Times,serif" font-size="14.00">पित्रा(3.1)</text>
</g>
<!-- Node2_1 -->
<g id="node2" class="node">
<title>Node2_1</title>
<ellipse fill="#40e0d0" stroke="#40e0d0" cx="74" cy="-121" rx="58.49" ry="18"/>
<text text-anchor="middle" x="74" y="-117.3" font-family="Times,serif" font-size="14.00">महात्मना(2.1)</text>
</g>
<!-- Node3_1&#45;&gt;Node2_1 -->
<g id="edge3" class="edge">
<title>Node3_1&#45;&gt;Node2_1</title>
<path fill="none" stroke="black" d="M74,-62.27C74,-75.58 74,-91.19 74,-102.82"/>
<polygon fill="black" stroke="black" points="77.5,-62.2 74,-52.2 70.5,-62.2 77.5,-62.2"/>
<text text-anchor="middle" x="96.5" y="-73.8" font-family="Times,serif" font-size="14.00">विशेषणम्</text>
</g>
<!-- Node4_1 -->
<g id="node3" class="node">
<title>Node4_1</title>
<ellipse fill="#00bfff" stroke="#00bfff" cx="74" cy="-208" rx="58.49" ry="18"/>
<text text-anchor="middle" x="74" y="-204.3" font-family="Times,serif" font-size="14.00">अनुज्ञातः(4.1)</text>
</g>
<!-- Node2_1&#45;&gt;Node4_1 -->
<g id="edge2" class="edge">
<title>Node2_1&#45;&gt;Node4_1</title>
<path fill="none" stroke="black" d="M74,-149.27C74,-162.58 74,-178.19 74,-189.82"/>
<polygon fill="black" stroke="black" points="77.5,-149.2 74,-139.2 70.5,-149.2 77.5,-149.2"/>
<text text-anchor="middle" x="85" y="-160.8" font-family="Times,serif" font-size="14.00">कर्ता</text>
</g>
<!-- Node6_1 -->
<g id="node4" class="node">
<title>Node6_1</title>
<ellipse fill="#00bfff" stroke="#00bfff" cx="79" cy="-295" rx="48.19" ry="18"/>
<text text-anchor="middle" x="79" y="-291.3" font-family="Times,serif" font-size="14.00">अहम्(6.1)</text>
</g>
<!-- Node4_1&#45;&gt;Node6_1 -->
<g id="edge4" class="edge">
<title>Node4_1&#45;&gt;Node6_1</title>
<path fill="none" stroke="black" d="M75.6,-236.27C76.39,-249.58 77.31,-265.19 77.99,-276.82"/>
<polygon fill="black" stroke="black" points="79.09,-235.98 75.01,-226.2 72.11,-236.39 79.09,-235.98"/>
<text text-anchor="middle" x="99.5" y="-247.8" font-family="Times,serif" font-size="14.00">विशेषणम्</text>
</g>
<!-- Node12_1 -->
<g id="node7" class="node">
<title>Node12_1</title>
<ellipse fill="#ff1975" stroke="#ff1975" cx="205" cy="-382" rx="55.79" ry="18"/>
<text text-anchor="middle" x="205" y="-378.3" font-family="Times,serif" font-size="14.00">अस्मि(12.1)</text>
</g>
<!-- Node6_1&#45;&gt;Node12_1 -->
<g id="edge6" class="edge">
<title>Node6_1&#45;&gt;Node12_1</title>
<path fill="none" stroke="black" d="M109.65,-316.68C131.86,-331.66 161.42,-351.6 181.71,-365.29"/>
<polygon fill="black" stroke="black" points="111.48,-313.69 101.24,-311 107.57,-319.49 111.48,-313.69"/>
<text text-anchor="middle" x="160" y="-334.8" font-family="Times,serif" font-size="14.00">कर्ता</text>
</g>
<!-- Node1_1 -->
<g id="node5" class="node">
<title>Node1_1</title>
<ellipse fill="#ff99ff" stroke="#ff99ff" cx="201" cy="-121" rx="50.09" ry="18"/>
<text text-anchor="middle" x="201" y="-117.3" font-family="Times,serif" font-size="14.00">स्वयम्(1.1)</text>
</g>
<!-- Node1_1&#45;&gt;Node4_1 -->
<g id="edge1" class="edge">
<title>Node1_1&#45;&gt;Node4_1</title>
<path fill="none" stroke="black" d="M169.8,-142.88C147.42,-157.86 117.73,-177.73 97.37,-191.36"/>
<polygon fill="black" stroke="black" points="171.93,-145.67 178.29,-137.2 168.04,-139.85 171.93,-145.67"/>
<text text-anchor="middle" x="180" y="-160.8" font-family="Times,serif" font-size="14.00">क्रियाविशेषणम्</text>
</g>
<!-- Node5_1 -->
<g id="node6" class="node">
<title>Node5_1</title>
<ellipse fill="#6fffc3" stroke="#6fffc3" cx="205" cy="-295" rx="55.79" ry="18"/>
<text text-anchor="middle" x="205" y="-291.3" font-family="Times,serif" font-size="14.00">गान्धारि(5.1)</text>
</g>
<!-- Node5_1&#45;&gt;Node12_1 -->
<g id="edge5" class="edge">
<title>Node5_1&#45;&gt;Node12_1</title>
<path fill="none" stroke="black" d="M205,-323.27C205,-336.58 205,-352.19 205,-363.82"/>
<polygon fill="black" stroke="black" points="208.5,-323.2 205,-313.2 201.5,-323.2 208.5,-323.2"/>
<text text-anchor="middle" x="226" y="-334.8" font-family="Times,serif" font-size="14.00">सम्बोध्यः</text>
</g>
<!-- Node7_1 -->
<g id="node8" class="node">
<title>Node7_1</title>
<ellipse fill="#87ceeb" stroke="#87ceeb" cx="455" cy="-121" rx="64.19" ry="18"/>
<text text-anchor="middle" x="455" y="-117.3" font-family="Times,serif" font-size="14.00">युधिष्ठिरस्य(7.1)</text>
</g>
<!-- Node8_1 -->
<g id="node9" class="node">
<title>Node8_1</title>
<ellipse fill="#c6e2eb" stroke="#c6e2eb" cx="455" cy="-208" rx="53.09" ry="18"/>
<text text-anchor="middle" x="455" y="-204.3" font-family="Times,serif" font-size="14.00">अनुमते(8.1)</text>
</g>
<!-- Node7_1&#45;&gt;Node8_1 -->
<g id="edge7" class="edge">
<title>Node7_1&#45;&gt;Node8_1</title>
<path fill="none" stroke="black" d="M455,-149.27C455,-162.58 455,-178.19 455,-189.82"/>
<polygon fill="black" stroke="black" points="458.5,-149.2 455,-139.2 451.5,-149.2 458.5,-149.2"/>
<text text-anchor="middle" x="482.5" y="-160.8" font-family="Times,serif" font-size="14.00">षष्ठीसम्बन्धः</text>
</g>
<!-- Node11_1 -->
<g id="node10" class="node">
<title>Node11_1</title>
<ellipse fill="#00bfff" stroke="#00bfff" cx="332" cy="-295" rx="52.79" ry="18"/>
<text text-anchor="middle" x="332" y="-291.3" font-family="Times,serif" font-size="14.00">गन्ता(11.1)</text>
</g>
<!-- Node8_1&#45;&gt;Node11_1 -->
<g id="edge8" class="edge">
<title>Node8_1&#45;&gt;Node11_1</title>
<path fill="none" stroke="black" d="M424.49,-230.08C402.81,-245.07 374.16,-264.87 354.52,-278.43"/>
<polygon fill="black" stroke="black" points="426.49,-232.96 432.73,-224.39 422.51,-227.2 426.49,-232.96"/>
<text text-anchor="middle" x="471" y="-247.8" font-family="Times,serif" font-size="14.00">भावलक्षणसप्तमी_समानकालः</text>
</g>
<!-- Node11_1&#45;&gt;Node12_1 -->
<g id="edge11" class="edge">
<title>Node11_1&#45;&gt;Node12_1</title>
<path fill="none" stroke="black" d="M300.5,-317.08C278.11,-332.07 248.53,-351.87 228.26,-365.43"/>
<polygon fill="black" stroke="black" points="302.64,-319.86 309,-311.39 298.74,-314.05 302.64,-319.86"/>
<text text-anchor="middle" x="287" y="-334.8" font-family="Times,serif" font-size="14.00">कर्ता</text>
</g>
<!-- Node9_1 -->
<g id="node11" class="node">
<title>Node9_1</title>
<ellipse fill="#b4ffb4" stroke="#b4ffb4" cx="206" cy="-208" rx="55.79" ry="18"/>
<text text-anchor="middle" x="206" y="-204.3" font-family="Times,serif" font-size="14.00">नचिरात्(9.1)</text>
</g>
<!-- Node9_1&#45;&gt;Node11_1 -->
<g id="edge9" class="edge">
<title>Node9_1&#45;&gt;Node11_1</title>
<path fill="none" stroke="black" d="M227.71,-232.95C236.55,-241.84 247.21,-251.56 258,-259 270.52,-267.63 285.5,-275.16 298.7,-281.01"/>
<polygon fill="black" stroke="black" points="230.22,-230.51 220.76,-225.75 225.19,-235.38 230.22,-230.51"/>
<text text-anchor="middle" x="293" y="-247.8" font-family="Times,serif" font-size="14.00">क्रियाविशेषणम्</text>
</g>
<!-- Node10_1 -->
<g id="node12" class="node">
<title>Node10_1</title>
<ellipse fill="#93db70" stroke="#93db70" cx="332" cy="-208" rx="51.99" ry="18"/>
<text text-anchor="middle" x="332" y="-204.3" font-family="Times,serif" font-size="14.00">वनम्(10.1)</text>
</g>
<!-- Node10_1&#45;&gt;Node11_1 -->
<g id="edge10" class="edge">
<title>Node10_1&#45;&gt;Node11_1</title>
<path fill="none" stroke="black" d="M332,-236.27C332,-249.58 332,-265.19 332,-276.82"/>
<polygon fill="black" stroke="black" points="335.5,-236.2 332,-226.2 328.5,-236.2 335.5,-236.2"/>
<text text-anchor="middle" x="341" y="-247.8" font-family="Times,serif" font-size="14.00">कर्म</text>
</g>
</g>
</svg>
