<?xml version="1.0" encoding="UTF-8" standalone="no"?>
<!DOCTYPE svg PUBLIC "-//W3C//DTD SVG 1.1//EN"
 "http://www.w3.org/Graphics/SVG/1.1/DTD/svg11.dtd">
<!-- Generated by graphviz version 2.43.0 (0)
 -->
<!-- Title: G Pages: 1 -->
<svg width="762pt" height="479pt"
 viewBox="0.00 0.00 762.34 479.00" xmlns="http://www.w3.org/2000/svg" xmlns:xlink="http://www.w3.org/1999/xlink">
<g id="graph0" class="graph" transform="scale(1 1) rotate(0) translate(4 475)">
<title>G</title>
<polygon fill="#fffacd" stroke="transparent" points="-4,4 -4,-475 758.34,-475 758.34,4 -4,4"/>
<g id="clust1" class="cluster">
<title>cluster_1</title>
<polygon fill="#fffacd" stroke="black" points="516.34,-79 516.34,-218 746.34,-218 746.34,-79 516.34,-79"/>
</g>
<g id="clust2" class="cluster">
<title>cluster_2</title>
<polygon fill="#fffacd" stroke="black" points="396.34,-253 396.34,-392 528.34,-392 528.34,-253 396.34,-253"/>
</g>
<!-- Node1_1 -->
<g id="node1" class="node">
<title>Node1_1</title>
<ellipse fill="#40e0d0" stroke="#40e0d0" cx="696.34" cy="-105" rx="42.49" ry="18"/>
<text text-anchor="middle" x="696.34" y="-101.3" font-family="Times,serif" font-size="14.00">तेन(1.1)</text>
</g>
<!-- Node3_1 -->
<g id="node2" class="node">
<title>Node3_1</title>
<ellipse fill="#40e0d0" stroke="#40e0d0" cx="580.34" cy="-192" rx="53.09" ry="18"/>
<text text-anchor="middle" x="580.34" y="-188.3" font-family="Times,serif" font-size="14.00">व्यासेन(3.1)</text>
</g>
<!-- Node1_1&#45;&gt;Node3_1 -->
<g id="edge1" class="edge">
<title>Node1_1&#45;&gt;Node3_1</title>
<path fill="none" stroke="black" d="M668.22,-127.19C656.28,-136.14 642.17,-146.63 629.34,-156 620.56,-162.41 610.83,-169.39 602.37,-175.42"/>
<polygon fill="black" stroke="black" points="670.59,-129.79 676.49,-120.99 666.39,-124.19 670.59,-129.79"/>
<text text-anchor="middle" x="671.84" y="-144.8" font-family="Times,serif" font-size="14.00">विशेषणम्</text>
</g>
<!-- Node5_1 -->
<g id="node4" class="node">
<title>Node5_1</title>
<ellipse fill="#00bfff" stroke="#00bfff" cx="462.34" cy="-279" rx="58.49" ry="18"/>
<text text-anchor="middle" x="462.34" y="-275.3" font-family="Times,serif" font-size="14.00">अनुज्ञातः(5.1)</text>
</g>
<!-- Node3_1&#45;&gt;Node5_1 -->
<g id="edge4" class="edge">
<title>Node3_1&#45;&gt;Node5_1</title>
<path fill="none" stroke="black" d="M550.57,-214.44C529.94,-229.31 502.92,-248.77 484.25,-262.22"/>
<polygon fill="black" stroke="black" points="552.63,-217.28 558.7,-208.59 548.54,-211.6 552.63,-217.28"/>
<text text-anchor="middle" x="539.34" y="-231.8" font-family="Times,serif" font-size="14.00">कर्ता</text>
</g>
<!-- Node2_2 -->
<g id="node3" class="node">
<title>Node2_2</title>
<ellipse fill="#40e0d0" stroke="#40e0d0" cx="580.34" cy="-105" rx="55.79" ry="18"/>
<text text-anchor="middle" x="580.34" y="-101.3" font-family="Times,serif" font-size="14.00">ऋषिणा(2.2)</text>
</g>
<!-- Node2_2&#45;&gt;Node3_1 -->
<g id="edge3" class="edge">
<title>Node2_2&#45;&gt;Node3_1</title>
<path fill="none" stroke="black" d="M580.34,-133.27C580.34,-146.58 580.34,-162.19 580.34,-173.82"/>
<polygon fill="black" stroke="black" points="583.84,-133.2 580.34,-123.2 576.84,-133.2 583.84,-133.2"/>
<text text-anchor="middle" x="602.84" y="-144.8" font-family="Times,serif" font-size="14.00">विशेषणम्</text>
</g>
<!-- Node11_2 -->
<g id="node5" class="node">
<title>Node11_2</title>
<ellipse fill="#00bfff" stroke="#00bfff" cx="462.34" cy="-366" rx="57.39" ry="18"/>
<text text-anchor="middle" x="462.34" y="-362.3" font-family="Times,serif" font-size="14.00">(त्वम्)(11.2)</text>
</g>
<!-- Node5_1&#45;&gt;Node11_2 -->
<g id="edge6" class="edge">
<title>Node5_1&#45;&gt;Node11_2</title>
<path fill="none" stroke="black" d="M462.34,-307.27C462.34,-320.58 462.34,-336.19 462.34,-347.82"/>
<polygon fill="black" stroke="black" points="465.84,-307.2 462.34,-297.2 458.84,-307.2 465.84,-307.2"/>
<text text-anchor="middle" x="484.84" y="-318.8" font-family="Times,serif" font-size="14.00">विशेषणम्</text>
</g>
<!-- Node10_1 -->
<g id="node11" class="node">
<title>Node10_1</title>
<ellipse fill="#ff1975" stroke="#ff1975" cx="282.34" cy="-453" rx="66.09" ry="18"/>
<text text-anchor="middle" x="282.34" y="-449.3" font-family="Times,serif" font-size="14.00">गमिष्यसि(10.1)</text>
</g>
<!-- Node11_2&#45;&gt;Node10_1 -->
<g id="edge12" class="edge">
<title>Node11_2&#45;&gt;Node10_1</title>
<path fill="none" stroke="black" d="M433.23,-389.05C419.76,-398.54 403.26,-409.22 387.34,-417 368.44,-426.24 346.5,-433.98 327.58,-439.81"/>
<polygon fill="black" stroke="black" points="435.52,-391.71 441.6,-383.03 431.43,-386.03 435.52,-391.71"/>
<text text-anchor="middle" x="424.34" y="-405.8" font-family="Times,serif" font-size="14.00">कर्ता</text>
</g>
<!-- Node2_1 -->
<g id="node6" class="node">
<title>Node2_1</title>
<ellipse fill="#ffff00" stroke="#ffff00" cx="580.34" cy="-18" rx="46.59" ry="18"/>
<text text-anchor="middle" x="580.34" y="-14.3" font-family="Times,serif" font-size="14.00">महा&#45;(2.1)</text>
</g>
<!-- Node2_1&#45;&gt;Node2_2 -->
<g id="edge2" class="edge">
<title>Node2_1&#45;&gt;Node2_2</title>
<path fill="none" stroke="black" d="M580.34,-46.27C580.34,-59.58 580.34,-75.19 580.34,-86.82"/>
<polygon fill="black" stroke="black" points="583.84,-46.2 580.34,-36.2 576.84,-46.2 583.84,-46.2"/>
<text text-anchor="middle" x="597.34" y="-57.8" font-family="Times,serif" font-size="14.00">समासः</text>
</g>
<!-- Node4_1 -->
<g id="node7" class="node">
<title>Node4_1</title>
<ellipse fill="#ff99ff" stroke="#ff99ff" cx="348.34" cy="-192" rx="50.09" ry="18"/>
<text text-anchor="middle" x="348.34" y="-188.3" font-family="Times,serif" font-size="14.00">स्वयम्(4.1)</text>
</g>
<!-- Node4_1&#45;&gt;Node5_1 -->
<g id="edge5" class="edge">
<title>Node4_1&#45;&gt;Node5_1</title>
<path fill="none" stroke="black" d="M364.99,-218.26C371.53,-226.88 379.58,-236.07 388.34,-243 399.6,-251.9 413.5,-259.23 426.19,-264.83"/>
<polygon fill="black" stroke="black" points="367.67,-216 358.98,-209.95 362,-220.1 367.67,-216"/>
<text text-anchor="middle" x="423.34" y="-231.8" font-family="Times,serif" font-size="14.00">क्रियाविशेषणम्</text>
</g>
<!-- Node6_1 -->
<g id="node8" class="node">
<title>Node6_1</title>
<ellipse fill="#ff99ff" stroke="#ff99ff" cx="462.34" cy="-192" rx="46.29" ry="18"/>
<text text-anchor="middle" x="462.34" y="-188.3" font-family="Times,serif" font-size="14.00">अपि(6.1)</text>
</g>
<!-- Node6_1&#45;&gt;Node5_1 -->
<g id="edge7" class="edge">
<title>Node6_1&#45;&gt;Node5_1</title>
<path fill="none" stroke="black" d="M462.34,-220.27C462.34,-233.58 462.34,-249.19 462.34,-260.82"/>
<polygon fill="black" stroke="black" points="465.84,-220.2 462.34,-210.2 458.84,-220.2 465.84,-220.2"/>
<text text-anchor="middle" x="480.84" y="-231.8" font-family="Times,serif" font-size="14.00">सम्बन्धः</text>
</g>
<!-- Node7_1 -->
<g id="node9" class="node">
<title>Node7_1</title>
<ellipse fill="#87ceeb" stroke="#87ceeb" cx="64.34" cy="-279" rx="64.19" ry="18"/>
<text text-anchor="middle" x="64.34" y="-275.3" font-family="Times,serif" font-size="14.00">युधिष्ठिरस्य(7.1)</text>
</g>
<!-- Node8_1 -->
<g id="node10" class="node">
<title>Node8_1</title>
<ellipse fill="#c6e2eb" stroke="#c6e2eb" cx="64.34" cy="-366" rx="53.09" ry="18"/>
<text text-anchor="middle" x="64.34" y="-362.3" font-family="Times,serif" font-size="14.00">अनुमते(8.1)</text>
</g>
<!-- Node7_1&#45;&gt;Node8_1 -->
<g id="edge8" class="edge">
<title>Node7_1&#45;&gt;Node8_1</title>
<path fill="none" stroke="black" d="M64.34,-307.27C64.34,-320.58 64.34,-336.19 64.34,-347.82"/>
<polygon fill="black" stroke="black" points="67.84,-307.2 64.34,-297.2 60.84,-307.2 67.84,-307.2"/>
<text text-anchor="middle" x="82.84" y="-318.8" font-family="Times,serif" font-size="14.00">सम्बन्धः</text>
</g>
<!-- Node8_1&#45;&gt;Node10_1 -->
<g id="edge9" class="edge">
<title>Node8_1&#45;&gt;Node10_1</title>
<path fill="none" stroke="black" d="M75.63,-393.02C80.72,-401.91 87.6,-411.09 96.34,-417 116.43,-430.56 175.12,-440.11 221.26,-445.77"/>
<polygon fill="black" stroke="black" points="78.67,-391.27 70.96,-384 72.45,-394.49 78.67,-391.27"/>
<text text-anchor="middle" x="167.34" y="-405.8" font-family="Times,serif" font-size="14.00">भावलक्षणसप्तमी_समानकालः</text>
</g>
<!-- Node9_1 -->
<g id="node12" class="node">
<title>Node9_1</title>
<ellipse fill="#93db70" stroke="#93db70" cx="210.34" cy="-366" rx="55.79" ry="18"/>
<text text-anchor="middle" x="210.34" y="-362.3" font-family="Times,serif" font-size="14.00">अरण्यम्(9.1)</text>
</g>
<!-- Node9_1&#45;&gt;Node10_1 -->
<g id="edge10" class="edge">
<title>Node9_1&#45;&gt;Node10_1</title>
<path fill="none" stroke="black" d="M231.19,-391.61C243.06,-405.62 257.6,-422.79 268.15,-435.24"/>
<polygon fill="black" stroke="black" points="233.7,-389.16 224.57,-383.79 228.36,-393.69 233.7,-389.16"/>
<text text-anchor="middle" x="260.34" y="-405.8" font-family="Times,serif" font-size="14.00">कर्म</text>
</g>
<!-- Node11_1 -->
<g id="node13" class="node">
<title>Node11_1</title>
<ellipse fill="#ff99ff" stroke="#ff99ff" cx="335.34" cy="-366" rx="51.19" ry="18"/>
<text text-anchor="middle" x="335.34" y="-362.3" font-family="Times,serif" font-size="14.00">कदा(11.1)</text>
</g>
<!-- Node11_1&#45;&gt;Node10_1 -->
<g id="edge11" class="edge">
<title>Node11_1&#45;&gt;Node10_1</title>
<path fill="none" stroke="black" d="M319.54,-392.34C310.96,-406.1 300.59,-422.74 292.98,-434.95"/>
<polygon fill="black" stroke="black" points="322.55,-394.13 324.87,-383.79 316.61,-390.43 322.55,-394.13"/>
<text text-anchor="middle" x="347.84" y="-405.8" font-family="Times,serif" font-size="14.00">कालाधिकरणम्</text>
</g>
</g>
</svg>
