<?xml version="1.0" encoding="UTF-8" standalone="no"?>
<!DOCTYPE svg PUBLIC "-//W3C//DTD SVG 1.1//EN"
 "http://www.w3.org/Graphics/SVG/1.1/DTD/svg11.dtd">
<!-- Generated by graphviz version 2.43.0 (0)
 -->
<!-- Title: G Pages: 1 -->
<svg width="1080pt" height="236pt"
 viewBox="0.00 0.00 1079.69 235.96" xmlns="http://www.w3.org/2000/svg" xmlns:xlink="http://www.w3.org/1999/xlink">
<g id="graph0" class="graph" transform="scale(1 1) rotate(0) translate(4 231.96)">
<title>G</title>
<polygon fill="#fffacd" stroke="transparent" points="-4,4 -4,-231.96 1075.69,-231.96 1075.69,4 -4,4"/>
<g id="clust1" class="cluster">
<title>cluster_1</title>
<polygon fill="#fffacd" stroke="black" points="8,-8 8,-147 134,-147 134,-8 8,-8"/>
</g>
<!-- Node5_1 -->
<g id="node1" class="node">
<title>Node5_1</title>
<ellipse fill="#c6e2eb" stroke="#c6e2eb" cx="71" cy="-34" rx="54.69" ry="18"/>
<text text-anchor="middle" x="71" y="-30.3" font-family="Times,serif" font-size="14.00">अस्मिन्(5.1)</text>
</g>
<!-- Node6_1 -->
<g id="node2" class="node">
<title>Node6_1</title>
<ellipse fill="#c6e2eb" stroke="#c6e2eb" cx="76" cy="-121" rx="46.59" ry="18"/>
<text text-anchor="middle" x="76" y="-117.3" font-family="Times,serif" font-size="14.00">काले(6.1)</text>
</g>
<!-- Node5_1&#45;&gt;Node6_1 -->
<g id="edge6" class="edge">
<title>Node5_1&#45;&gt;Node6_1</title>
<path fill="none" stroke="black" d="M72.6,-62.27C73.39,-75.58 74.31,-91.19 74.99,-102.82"/>
<polygon fill="black" stroke="black" points="76.09,-61.98 72.01,-52.2 69.11,-62.39 76.09,-61.98"/>
<text text-anchor="middle" x="96.5" y="-73.8" font-family="Times,serif" font-size="14.00">विशेषणम्</text>
</g>
<!-- Node4_1 -->
<g id="node4" class="node">
<title>Node4_1</title>
<ellipse fill="#ff1975" stroke="#ff1975" cx="259" cy="-208" rx="48.99" ry="18"/>
<text text-anchor="middle" x="259" y="-204.3" font-family="Times,serif" font-size="14.00">ब्रूयाम्(4.1)</text>
</g>
<!-- Node6_1&#45;&gt;Node4_1 -->
<g id="edge7" class="edge">
<title>Node6_1&#45;&gt;Node4_1</title>
<path fill="none" stroke="black" d="M101.42,-144.27C113.39,-153.87 128.26,-164.57 143,-172 166.57,-183.89 194.91,-192.53 217.68,-198.25"/>
<polygon fill="black" stroke="black" points="103.57,-141.51 93.63,-137.86 99.12,-146.92 103.57,-141.51"/>
<text text-anchor="middle" x="178.5" y="-160.8" font-family="Times,serif" font-size="14.00">कालाधिकरणम्</text>
</g>
<!-- Node1_1 -->
<g id="node3" class="node">
<title>Node1_1</title>
<ellipse fill="#93db70" stroke="#93db70" cx="428" cy="-208" rx="42.49" ry="18"/>
<text text-anchor="middle" x="428" y="-204.3" font-family="Times,serif" font-size="14.00">यत्(1.1)</text>
</g>
<!-- Node1_1&#45;&gt;Node4_1 -->
<g id="edge1" class="edge">
<title>Node1_1&#45;&gt;Node4_1</title>
<path fill="none" stroke="black" d="M387.79,-192.36C384.26,-191.41 380.72,-190.6 377.25,-190 350.53,-185.4 343.05,-185.89 316.25,-190 308.83,-191.14 301.06,-193.06 293.72,-195.23"/>
<polygon fill="black" stroke="black" points="387,-195.77 397.59,-195.33 389.03,-189.08 387,-195.77"/>
<text text-anchor="middle" x="346.75" y="-172.8" font-family="Times,serif" font-size="14.00">कर्म</text>
</g>
<!-- Node1_1&#45;&gt;Node4_1 -->
<g id="edge2" class="edge">
<title>Node1_1&#45;&gt;Node4_1</title>
<path fill="none" stroke="red" stroke-dasharray="5,2" d="M375.39,-208C357.16,-208 336.61,-208 317.9,-208"/>
<polygon fill="red" stroke="red" points="375.54,-211.5 385.54,-208 375.54,-204.5 375.54,-211.5"/>
<polygon fill="red" stroke="red" points="317.88,-204.5 307.88,-208 317.88,-211.5 317.88,-204.5"/>
<text text-anchor="middle" x="346.75" y="-193.8" font-family="Times,serif" font-size="14.00">नित्यसम्बन्धः</text>
</g>
<!-- Node4_1&#45;&gt;Node1_1 -->
<g id="edge5" class="edge">
<title>Node4_1&#45;&gt;Node1_1</title>
<path fill="none" stroke="black" stroke-dasharray="1,5" d="M306.16,-222.36C312.69,-223.86 319.35,-225.15 325.75,-226 344.25,-228.45 349.28,-228.7 367.75,-226 376.93,-224.66 386.66,-222.22 395.56,-219.57"/>
<polygon fill="black" stroke="black" points="306.62,-218.87 296.07,-219.85 304.93,-225.66 306.62,-218.87"/>
<text text-anchor="middle" x="346.75" y="-214.8" font-family="Times,serif" font-size="14.00">प्रतियोगी</text>
</g>
<!-- Node2_1 -->
<g id="node5" class="node">
<title>Node2_1</title>
<ellipse fill="#ff99ff" stroke="#ff99ff" cx="198" cy="-121" rx="55.79" ry="18"/>
<text text-anchor="middle" x="198" y="-117.3" font-family="Times,serif" font-size="14.00">इदानीम्(2.1)</text>
</g>
<!-- Node2_1&#45;&gt;Node4_1 -->
<g id="edge3" class="edge">
<title>Node2_1&#45;&gt;Node4_1</title>
<path fill="none" stroke="black" d="M211.73,-148.11C216.26,-156.01 221.54,-164.56 227,-172 231.77,-178.5 237.58,-185.16 242.93,-190.89"/>
<polygon fill="black" stroke="black" points="214.72,-146.27 206.8,-139.23 208.6,-149.67 214.72,-146.27"/>
<text text-anchor="middle" x="262.5" y="-160.8" font-family="Times,serif" font-size="14.00">कालाधिकरणम्</text>
</g>
<!-- Node3_1 -->
<g id="node6" class="node">
<title>Node3_1</title>
<ellipse fill="#00bfff" stroke="#00bfff" cx="320" cy="-121" rx="48.19" ry="18"/>
<text text-anchor="middle" x="320" y="-117.3" font-family="Times,serif" font-size="14.00">अहम्(3.1)</text>
</g>
<!-- Node3_1&#45;&gt;Node4_1 -->
<g id="edge4" class="edge">
<title>Node3_1&#45;&gt;Node4_1</title>
<path fill="none" stroke="black" d="M310.83,-148.46C307.44,-156.41 303.14,-164.9 298,-172 292.88,-179.07 286.11,-185.76 279.66,-191.36"/>
<polygon fill="black" stroke="black" points="314.09,-149.74 314.51,-139.16 307.58,-147.17 314.09,-149.74"/>
<text text-anchor="middle" x="318" y="-160.8" font-family="Times,serif" font-size="14.00">कर्ता</text>
</g>
<!-- Node7_1 -->
<g id="node7" class="node">
<title>Node7_1</title>
<ellipse fill="#c6e2eb" stroke="#c6e2eb" cx="444" cy="-121" rx="57.69" ry="18"/>
<text text-anchor="middle" x="444" y="-117.3" font-family="Times,serif" font-size="14.00">उपस्थिते(7.1)</text>
</g>
<!-- Node7_1&#45;&gt;Node4_1 -->
<g id="edge8" class="edge">
<title>Node7_1&#45;&gt;Node4_1</title>
<path fill="none" stroke="black" d="M403.63,-140.55C368.81,-156.55 319.35,-179.27 288.23,-193.57"/>
<polygon fill="black" stroke="black" points="405.41,-143.58 413.04,-136.23 402.49,-137.22 405.41,-143.58"/>
<text text-anchor="middle" x="434" y="-160.8" font-family="Times,serif" font-size="14.00">भावलक्षणसप्तमी_समानकालः</text>
</g>
<!-- Node8_1 -->
<g id="node8" class="node">
<title>Node8_1</title>
<ellipse fill="#ff99ff" stroke="#ff99ff" cx="619" cy="-121" rx="44.69" ry="18"/>
<text text-anchor="middle" x="619" y="-117.3" font-family="Times,serif" font-size="14.00">तथा(8.1)</text>
</g>
<!-- Node10_1 -->
<g id="node9" class="node">
<title>Node10_1</title>
<ellipse fill="#00bfff" stroke="#00bfff" cx="765" cy="-208" rx="61.99" ry="18"/>
<text text-anchor="middle" x="765" y="-204.3" font-family="Times,serif" font-size="14.00">कर्तव्यम्(10.1)</text>
</g>
<!-- Node8_1&#45;&gt;Node10_1 -->
<g id="edge9" class="edge">
<title>Node8_1&#45;&gt;Node10_1</title>
<path fill="none" stroke="black" d="M606.61,-148.62C604.66,-156.83 604.75,-165.44 610,-172 622.23,-187.3 668.58,-196.39 707.44,-201.46"/>
<polygon fill="black" stroke="black" points="609.99,-149.55 609.79,-138.95 603.34,-147.36 609.99,-149.55"/>
<text text-anchor="middle" x="645" y="-160.8" font-family="Times,serif" font-size="14.00">क्रियाविशेषणम्</text>
</g>
<!-- Node8_1&#45;&gt;Node10_1 -->
<g id="edge10" class="edge">
<title>Node8_1&#45;&gt;Node10_1</title>
<path fill="none" stroke="black" stroke-dasharray="1,5" d="M652.36,-141.05C661.34,-146.21 671.05,-151.8 680,-157 699.84,-168.52 722.2,-181.68 739,-191.61"/>
<polygon fill="black" stroke="black" points="654.09,-138.01 643.67,-136.07 650.61,-144.08 654.09,-138.01"/>
<text text-anchor="middle" x="723" y="-160.8" font-family="Times,serif" font-size="14.00">अनुयोगी</text>
</g>
<!-- Node9_1 -->
<g id="node10" class="node">
<title>Node9_1</title>
<ellipse fill="#40e0d0" stroke="#40e0d0" cx="755" cy="-121" rx="53.09" ry="18"/>
<text text-anchor="middle" x="755" y="-117.3" font-family="Times,serif" font-size="14.00">भवद्भिः(9.1)</text>
</g>
<!-- Node9_1&#45;&gt;Node10_1 -->
<g id="edge11" class="edge">
<title>Node9_1&#45;&gt;Node10_1</title>
<path fill="none" stroke="black" d="M758.21,-149.27C759.77,-162.58 761.61,-178.19 762.98,-189.82"/>
<polygon fill="black" stroke="black" points="761.67,-148.72 757.02,-139.2 754.72,-149.54 761.67,-148.72"/>
<text text-anchor="middle" x="771" y="-160.8" font-family="Times,serif" font-size="14.00">कर्ता</text>
</g>
<!-- Node12_1 -->
<g id="node11" class="node">
<title>Node12_1</title>
<ellipse fill="#00bfff" stroke="#00bfff" cx="876" cy="-121" rx="50.09" ry="18"/>
<text text-anchor="middle" x="876" y="-117.3" font-family="Times,serif" font-size="14.00">वचः(12.1)</text>
</g>
<!-- Node12_1&#45;&gt;Node10_1 -->
<g id="edge13" class="edge">
<title>Node12_1&#45;&gt;Node10_1</title>
<path fill="none" stroke="black" d="M847.53,-143.8C828.32,-158.51 803.4,-177.6 785.98,-190.93"/>
<polygon fill="black" stroke="black" points="849.83,-146.45 855.64,-137.59 845.57,-140.89 849.83,-146.45"/>
<text text-anchor="middle" x="836" y="-160.8" font-family="Times,serif" font-size="14.00">कर्म</text>
</g>
<!-- Node11_1 -->
<g id="node12" class="node">
<title>Node11_1</title>
<ellipse fill="#ff99ff" stroke="#ff99ff" cx="1008" cy="-121" rx="63.89" ry="18"/>
<text text-anchor="middle" x="1008" y="-117.3" font-family="Times,serif" font-size="14.00">अविचार्य(11.1)</text>
</g>
<!-- Node11_1&#45;&gt;Node10_1 -->
<g id="edge12" class="edge">
<title>Node11_1&#45;&gt;Node10_1</title>
<path fill="none" stroke="black" d="M960.03,-138.78C913.96,-154.89 845.29,-178.92 802.92,-193.73"/>
<polygon fill="black" stroke="black" points="961.21,-142.07 969.5,-135.47 958.9,-135.47 961.21,-142.07"/>
<text text-anchor="middle" x="921.5" y="-160.8" font-family="Times,serif" font-size="14.00">पूर्वकालः</text>
</g>
<!-- Node13_1 -->
<g id="node13" class="node">
<title>Node13_1</title>
<ellipse fill="#87ceeb" stroke="#87ceeb" cx="876" cy="-34" rx="48.19" ry="18"/>
<text text-anchor="middle" x="876" y="-30.3" font-family="Times,serif" font-size="14.00">मम(13.1)</text>
</g>
<!-- Node13_1&#45;&gt;Node12_1 -->
<g id="edge14" class="edge">
<title>Node13_1&#45;&gt;Node12_1</title>
<path fill="none" stroke="black" d="M876,-62.27C876,-75.58 876,-91.19 876,-102.82"/>
<polygon fill="black" stroke="black" points="879.5,-62.2 876,-52.2 872.5,-62.2 879.5,-62.2"/>
<text text-anchor="middle" x="903.5" y="-73.8" font-family="Times,serif" font-size="14.00">षष्ठिसम्बन्धः</text>
</g>
</g>
</svg>
