<?xml version="1.0" encoding="UTF-8" standalone="no"?>
<!DOCTYPE svg PUBLIC "-//W3C//DTD SVG 1.1//EN"
 "http://www.w3.org/Graphics/SVG/1.1/DTD/svg11.dtd">
<!-- Generated by graphviz version 2.43.0 (0)
 -->
<!-- Title: G Pages: 1 -->
<svg width="537pt" height="392pt"
 viewBox="0.00 0.00 537.20 392.00" xmlns="http://www.w3.org/2000/svg" xmlns:xlink="http://www.w3.org/1999/xlink">
<g id="graph0" class="graph" transform="scale(1 1) rotate(0) translate(4 388)">
<title>G</title>
<polygon fill="#fffacd" stroke="transparent" points="-4,4 -4,-388 533.2,-388 533.2,4 -4,4"/>
<g id="clust1" class="cluster">
<title>cluster_1</title>
<polygon fill="#fffacd" stroke="black" points="8,-166 8,-305 278,-305 278,-166 8,-166"/>
</g>
<g id="clust2" class="cluster">
<title>cluster_2</title>
<polygon fill="#fffacd" stroke="black" points="287,-79 287,-218 427,-218 427,-79 287,-79"/>
</g>
<g id="clust3" class="cluster">
<title>cluster_3</title>
<polygon fill="#fffacd" stroke="black" points="286,-253 286,-305 430,-305 430,-253 286,-253"/>
</g>
<!-- Node2_1 -->
<g id="node1" class="node">
<title>Node2_1</title>
<ellipse fill="#00bfff" stroke="#00bfff" cx="210" cy="-192" rx="59.59" ry="18"/>
<text text-anchor="middle" x="210" y="-188.3" font-family="Times,serif" font-size="14.00">महातेजाः(2.1)</text>
</g>
<!-- Node4_1 -->
<g id="node2" class="node">
<title>Node4_1</title>
<ellipse fill="#00bfff" stroke="#00bfff" cx="210" cy="-279" rx="57.69" ry="18"/>
<text text-anchor="middle" x="210" y="-275.3" font-family="Times,serif" font-size="14.00">धृतराष्ट्रः(4.1)</text>
</g>
<!-- Node2_1&#45;&gt;Node4_1 -->
<g id="edge2" class="edge">
<title>Node2_1&#45;&gt;Node4_1</title>
<path fill="none" stroke="black" d="M210,-220.27C210,-233.58 210,-249.19 210,-260.82"/>
<polygon fill="black" stroke="black" points="213.5,-220.2 210,-210.2 206.5,-220.2 213.5,-220.2"/>
<text text-anchor="middle" x="232.5" y="-231.8" font-family="Times,serif" font-size="14.00">विशेषणम्</text>
</g>
<!-- Node9_1 -->
<g id="node8" class="node">
<title>Node9_1</title>
<ellipse fill="#ff1975" stroke="#ff1975" cx="358" cy="-366" rx="44.39" ry="18"/>
<text text-anchor="middle" x="358" y="-362.3" font-family="Times,serif" font-size="14.00">प्राह(9.1)</text>
</g>
<!-- Node4_1&#45;&gt;Node9_1 -->
<g id="edge4" class="edge">
<title>Node4_1&#45;&gt;Node9_1</title>
<path fill="none" stroke="black" d="M245.25,-300.25C272.38,-315.83 309.18,-336.96 333.25,-350.78"/>
<polygon fill="black" stroke="black" points="246.87,-297.14 236.46,-295.2 243.39,-303.21 246.87,-297.14"/>
<text text-anchor="middle" x="303" y="-318.8" font-family="Times,serif" font-size="14.00">कर्ता</text>
</g>
<!-- Node3_1 -->
<g id="node3" class="node">
<title>Node3_1</title>
<ellipse fill="#00bfff" stroke="#00bfff" cx="74" cy="-192" rx="58.49" ry="18"/>
<text text-anchor="middle" x="74" y="-188.3" font-family="Times,serif" font-size="14.00">महीपतिः(3.1)</text>
</g>
<!-- Node3_1&#45;&gt;Node4_1 -->
<g id="edge3" class="edge">
<title>Node3_1&#45;&gt;Node4_1</title>
<path fill="none" stroke="black" d="M107.41,-213.88C131.43,-228.89 163.29,-248.81 185.1,-262.43"/>
<polygon fill="black" stroke="black" points="108.96,-210.72 98.63,-208.39 105.25,-216.66 108.96,-210.72"/>
<text text-anchor="middle" x="173.5" y="-231.8" font-family="Times,serif" font-size="14.00">विशेषणम्</text>
</g>
<!-- Node5_3 -->
<g id="node4" class="node">
<title>Node5_3</title>
<ellipse fill="#93db70" stroke="#93db70" cx="357" cy="-105" rx="62.29" ry="18"/>
<text text-anchor="middle" x="357" y="-101.3" font-family="Times,serif" font-size="14.00">समागतान्(5.3)</text>
</g>
<!-- Node6_1 -->
<g id="node5" class="node">
<title>Node6_1</title>
<ellipse fill="#93db70" stroke="#93db70" cx="357" cy="-192" rx="59.29" ry="18"/>
<text text-anchor="middle" x="357" y="-188.3" font-family="Times,serif" font-size="14.00">ब्राह्मणान्(6.1)</text>
</g>
<!-- Node5_3&#45;&gt;Node6_1 -->
<g id="edge7" class="edge">
<title>Node5_3&#45;&gt;Node6_1</title>
<path fill="none" stroke="black" d="M357,-133.27C357,-146.58 357,-162.19 357,-173.82"/>
<polygon fill="black" stroke="black" points="360.5,-133.2 357,-123.2 353.5,-133.2 360.5,-133.2"/>
<text text-anchor="middle" x="379.5" y="-144.8" font-family="Times,serif" font-size="14.00">विशेषणम्</text>
</g>
<!-- Node7_1 -->
<g id="node6" class="node">
<title>Node7_1</title>
<ellipse fill="#93db70" stroke="#93db70" cx="358" cy="-279" rx="64.19" ry="18"/>
<text text-anchor="middle" x="358" y="-275.3" font-family="Times,serif" font-size="14.00">महीपालान्(7.1)</text>
</g>
<!-- Node6_1&#45;&gt;Node7_1 -->
<g id="edge8" class="edge">
<title>Node6_1&#45;&gt;Node7_1</title>
<path fill="none" stroke="black" d="M357.32,-220.27C357.48,-233.58 357.66,-249.19 357.8,-260.82"/>
<polygon fill="black" stroke="black" points="360.82,-220.16 357.2,-210.2 353.82,-220.24 360.82,-220.16"/>
<text text-anchor="middle" x="379.5" y="-231.8" font-family="Times,serif" font-size="14.00">समुच्चितः</text>
</g>
<!-- Node7_1&#45;&gt;Node9_1 -->
<g id="edge9" class="edge">
<title>Node7_1&#45;&gt;Node9_1</title>
<path fill="none" stroke="black" d="M358,-307.27C358,-320.58 358,-336.19 358,-347.82"/>
<polygon fill="black" stroke="black" points="361.5,-307.2 358,-297.2 354.5,-307.2 361.5,-307.2"/>
<text text-anchor="middle" x="367" y="-318.8" font-family="Times,serif" font-size="14.00">कर्म</text>
</g>
<!-- Node1_1 -->
<g id="node7" class="node">
<title>Node1_1</title>
<ellipse fill="#ff99ff" stroke="#ff99ff" cx="485" cy="-279" rx="44.39" ry="18"/>
<text text-anchor="middle" x="485" y="-275.3" font-family="Times,serif" font-size="14.00">ततः(1.1)</text>
</g>
<!-- Node1_1&#45;&gt;Node9_1 -->
<g id="edge1" class="edge">
<title>Node1_1&#45;&gt;Node9_1</title>
<path fill="none" stroke="black" d="M454.54,-300.39C431.68,-315.69 400.89,-336.29 380.29,-350.08"/>
<polygon fill="black" stroke="black" points="456.51,-303.28 462.88,-294.81 452.62,-297.46 456.51,-303.28"/>
<text text-anchor="middle" x="447.5" y="-318.8" font-family="Times,serif" font-size="14.00">सम्बन्धः</text>
</g>
<!-- Node5_1 -->
<g id="node9" class="node">
<title>Node5_1</title>
<ellipse fill="#ffff00" stroke="#ffff00" cx="300" cy="-18" rx="50.09" ry="18"/>
<text text-anchor="middle" x="300" y="-14.3" font-family="Times,serif" font-size="14.00">नाना&#45;(5.1)</text>
</g>
<!-- Node5_1&#45;&gt;Node5_3 -->
<g id="edge5" class="edge">
<title>Node5_1&#45;&gt;Node5_3</title>
<path fill="none" stroke="black" d="M317.03,-44.4C326.33,-58.26 337.57,-75.03 345.76,-87.24"/>
<polygon fill="black" stroke="black" points="319.74,-42.15 311.26,-35.79 313.92,-46.05 319.74,-42.15"/>
<text text-anchor="middle" x="348" y="-57.8" font-family="Times,serif" font-size="14.00">समासः</text>
</g>
<!-- Node5_2 -->
<g id="node10" class="node">
<title>Node5_2</title>
<ellipse fill="#ffff00" stroke="#ffff00" cx="414" cy="-18" rx="45.49" ry="18"/>
<text text-anchor="middle" x="414" y="-14.3" font-family="Times,serif" font-size="14.00">देश&#45;(5.2)</text>
</g>
<!-- Node5_2&#45;&gt;Node5_3 -->
<g id="edge6" class="edge">
<title>Node5_2&#45;&gt;Node5_3</title>
<path fill="none" stroke="black" d="M396.97,-44.4C387.67,-58.26 376.43,-75.03 368.24,-87.24"/>
<polygon fill="black" stroke="black" points="400.08,-46.05 402.74,-35.79 394.26,-42.15 400.08,-46.05"/>
<text text-anchor="middle" x="405" y="-57.8" font-family="Times,serif" font-size="14.00">समासः</text>
</g>
<!-- Node8_1 -->
<g id="node11" class="node">
<title>Node8_1</title>
<ellipse fill="#ff99ff" stroke="#ff99ff" cx="473" cy="-192" rx="37.89" ry="18"/>
<text text-anchor="middle" x="473" y="-188.3" font-family="Times,serif" font-size="14.00">च(8.1)</text>
</g>
<!-- Node8_1&#45;&gt;Node7_1 -->
<g id="edge10" class="edge">
<title>Node8_1&#45;&gt;Node7_1</title>
<path fill="none" stroke="black" d="M445.36,-213.74C433.29,-222.76 418.97,-233.43 406,-243 397.53,-249.24 388.19,-256.07 380.02,-262.02"/>
<polygon fill="black" stroke="black" points="447.78,-216.29 453.69,-207.5 443.59,-210.69 447.78,-216.29"/>
<text text-anchor="middle" x="462" y="-231.8" font-family="Times,serif" font-size="14.00">समुच्चय_द्योतकः</text>
</g>
</g>
</svg>
