<?xml version="1.0" encoding="UTF-8" standalone="no"?>
<!DOCTYPE svg PUBLIC "-//W3C//DTD SVG 1.1//EN"
 "http://www.w3.org/Graphics/SVG/1.1/DTD/svg11.dtd">
<!-- Generated by graphviz version 2.43.0 (0)
 -->
<!-- Title: G Pages: 1 -->
<svg width="772pt" height="392pt"
 viewBox="0.00 0.00 772.49 392.00" xmlns="http://www.w3.org/2000/svg" xmlns:xlink="http://www.w3.org/1999/xlink">
<g id="graph0" class="graph" transform="scale(1 1) rotate(0) translate(4 388)">
<title>G</title>
<polygon fill="#fffacd" stroke="transparent" points="-4,4 -4,-388 768.49,-388 768.49,4 -4,4"/>
<g id="clust1" class="cluster">
<title>cluster_1</title>
<polygon fill="#fffacd" stroke="black" points="228.05,-166 228.05,-305 338.05,-305 338.05,-166 228.05,-166"/>
</g>
<!-- Node6_2 -->
<g id="node1" class="node">
<title>Node6_2</title>
<ellipse fill="#c6e2eb" stroke="#c6e2eb" cx="283.05" cy="-192" rx="42.49" ry="18"/>
<text text-anchor="middle" x="283.05" y="-188.3" font-family="Times,serif" font-size="14.00">गते(6.2)</text>
</g>
<!-- Node7_1 -->
<g id="node2" class="node">
<title>Node7_1</title>
<ellipse fill="#c6e2eb" stroke="#c6e2eb" cx="283.05" cy="-279" rx="46.59" ry="18"/>
<text text-anchor="middle" x="283.05" y="-275.3" font-family="Times,serif" font-size="14.00">राज्ये(7.1)</text>
</g>
<!-- Node6_2&#45;&gt;Node7_1 -->
<g id="edge7" class="edge">
<title>Node6_2&#45;&gt;Node7_1</title>
<path fill="none" stroke="black" d="M283.05,-220.27C283.05,-233.58 283.05,-249.19 283.05,-260.82"/>
<polygon fill="black" stroke="black" points="286.55,-220.2 283.05,-210.2 279.55,-220.2 286.55,-220.2"/>
<text text-anchor="middle" x="305.55" y="-231.8" font-family="Times,serif" font-size="14.00">विशेषणम्</text>
</g>
<!-- Node8_1 -->
<g id="node8" class="node">
<title>Node8_1</title>
<ellipse fill="#ff1975" stroke="#ff1975" cx="217.05" cy="-366" rx="50.09" ry="18"/>
<text text-anchor="middle" x="217.05" y="-362.3" font-family="Times,serif" font-size="14.00">अस्मि(8.1)</text>
</g>
<!-- Node7_1&#45;&gt;Node8_1 -->
<g id="edge8" class="edge">
<title>Node7_1&#45;&gt;Node8_1</title>
<path fill="none" stroke="black" d="M263.9,-304.65C253,-318.7 239.62,-335.92 229.96,-348.37"/>
<polygon fill="black" stroke="black" points="266.95,-306.43 270.32,-296.39 261.42,-302.14 266.95,-306.43"/>
<text text-anchor="middle" x="324.05" y="-318.8" font-family="Times,serif" font-size="14.00">भावलक्षणसप्तमी_समानकालः</text>
</g>
<!-- Node1_1 -->
<g id="node3" class="node">
<title>Node1_1</title>
<ellipse fill="#00bfff" stroke="#00bfff" cx="50.05" cy="-18" rx="46.29" ry="18"/>
<text text-anchor="middle" x="50.05" y="-14.3" font-family="Times,serif" font-size="14.00">महत्(1.1)</text>
</g>
<!-- Node2_1 -->
<g id="node4" class="node">
<title>Node2_1</title>
<ellipse fill="#00bfff" stroke="#00bfff" cx="50.05" cy="-105" rx="50.09" ry="18"/>
<text text-anchor="middle" x="50.05" y="-101.3" font-family="Times,serif" font-size="14.00">सुखम्(2.1)</text>
</g>
<!-- Node1_1&#45;&gt;Node2_1 -->
<g id="edge1" class="edge">
<title>Node1_1&#45;&gt;Node2_1</title>
<path fill="none" stroke="black" d="M50.05,-46.27C50.05,-59.58 50.05,-75.19 50.05,-86.82"/>
<polygon fill="black" stroke="black" points="53.55,-46.2 50.05,-36.2 46.55,-46.2 53.55,-46.2"/>
<text text-anchor="middle" x="74.55" y="-57.8" font-family="Times,serif" font-size="14.00">तीव्रतादर्शी</text>
</g>
<!-- Node3_1 -->
<g id="node5" class="node">
<title>Node3_1</title>
<ellipse fill="#00bfff" stroke="#00bfff" cx="142.05" cy="-192" rx="50.09" ry="18"/>
<text text-anchor="middle" x="142.05" y="-188.3" font-family="Times,serif" font-size="14.00">प्राप्तः(3.1)</text>
</g>
<!-- Node2_1&#45;&gt;Node3_1 -->
<g id="edge2" class="edge">
<title>Node2_1&#45;&gt;Node3_1</title>
<path fill="none" stroke="black" d="M74.73,-128.8C90.55,-143.43 110.71,-162.04 124.82,-175.08"/>
<polygon fill="black" stroke="black" points="77.07,-126.2 67.35,-121.99 72.32,-131.34 77.07,-126.2"/>
<text text-anchor="middle" x="111.05" y="-144.8" font-family="Times,serif" font-size="14.00">कर्म</text>
</g>
<!-- Node5_1 -->
<g id="node6" class="node">
<title>Node5_1</title>
<ellipse fill="#00bfff" stroke="#00bfff" cx="153.05" cy="-279" rx="54.69" ry="18"/>
<text text-anchor="middle" x="153.05" y="-275.3" font-family="Times,serif" font-size="14.00">(अहम्)(5.1)</text>
</g>
<!-- Node3_1&#45;&gt;Node5_1 -->
<g id="edge3" class="edge">
<title>Node3_1&#45;&gt;Node5_1</title>
<path fill="none" stroke="black" d="M143.65,-220.4C144.24,-227.76 145.03,-235.7 146.05,-243 146.87,-248.89 148.06,-255.29 149.22,-260.98"/>
<polygon fill="black" stroke="black" points="147.13,-219.9 142.92,-210.18 140.14,-220.4 147.13,-219.9"/>
<text text-anchor="middle" x="185.05" y="-231.8" font-family="Times,serif" font-size="14.00">विधेय_विशेषणम्</text>
</g>
<!-- Node5_1&#45;&gt;Node8_1 -->
<g id="edge5" class="edge">
<title>Node5_1&#45;&gt;Node8_1</title>
<path fill="none" stroke="black" d="M171.92,-305.06C182.48,-319.09 195.36,-336.19 204.65,-348.53"/>
<polygon fill="black" stroke="black" points="174.5,-302.68 165.69,-296.79 168.91,-306.89 174.5,-302.68"/>
<text text-anchor="middle" x="200.05" y="-318.8" font-family="Times,serif" font-size="14.00">कर्ता</text>
</g>
<!-- Node4_1 -->
<g id="node7" class="node">
<title>Node4_1</title>
<ellipse fill="#ff99ff" stroke="#ff99ff" cx="156.05" cy="-105" rx="37.89" ry="18"/>
<text text-anchor="middle" x="156.05" y="-101.3" font-family="Times,serif" font-size="14.00">च(4.1)</text>
</g>
<!-- Node4_1&#45;&gt;Node3_1 -->
<g id="edge4" class="edge">
<title>Node4_1&#45;&gt;Node3_1</title>
<path fill="none" stroke="black" d="M151.55,-133.27C149.36,-146.58 146.79,-162.19 144.87,-173.82"/>
<polygon fill="black" stroke="black" points="155.04,-133.64 153.21,-123.2 148.13,-132.5 155.04,-133.64"/>
<text text-anchor="middle" x="168.55" y="-144.8" font-family="Times,serif" font-size="14.00">सम्बन्धः</text>
</g>
<!-- Node6_1 -->
<g id="node9" class="node">
<title>Node6_1</title>
<ellipse fill="#ffff00" stroke="#ffff00" cx="283.05" cy="-105" rx="58.49" ry="18"/>
<text text-anchor="middle" x="283.05" y="-101.3" font-family="Times,serif" font-size="14.00">युधिष्ठिर&#45;(6.1)</text>
</g>
<!-- Node6_1&#45;&gt;Node6_2 -->
<g id="edge6" class="edge">
<title>Node6_1&#45;&gt;Node6_2</title>
<path fill="none" stroke="black" d="M283.05,-133.27C283.05,-146.58 283.05,-162.19 283.05,-173.82"/>
<polygon fill="black" stroke="black" points="286.55,-133.2 283.05,-123.2 279.55,-133.2 286.55,-133.2"/>
<text text-anchor="middle" x="300.05" y="-144.8" font-family="Times,serif" font-size="14.00">समासः</text>
</g>
<!-- Node9_1 -->
<g id="node10" class="node">
<title>Node9_1</title>
<ellipse fill="#6fffc3" stroke="#6fffc3" cx="428.05" cy="-192" rx="53.89" ry="18"/>
<text text-anchor="middle" x="428.05" y="-188.3" font-family="Times,serif" font-size="14.00">सत्तमाः(9.1)</text>
</g>
<!-- Node15_1 -->
<g id="node11" class="node">
<title>Node15_1</title>
<ellipse fill="#ff1975" stroke="#ff1975" cx="563.05" cy="-279" rx="50.09" ry="18"/>
<text text-anchor="middle" x="563.05" y="-275.3" font-family="Times,serif" font-size="14.00">मन्ये(15.1)</text>
</g>
<!-- Node9_1&#45;&gt;Node15_1 -->
<g id="edge9" class="edge">
<title>Node9_1&#45;&gt;Node15_1</title>
<path fill="none" stroke="black" d="M460.69,-213.55C484.88,-228.78 517.3,-249.2 539.12,-262.94"/>
<polygon fill="black" stroke="black" points="462.51,-210.56 452.18,-208.2 458.78,-216.49 462.51,-210.56"/>
<text text-anchor="middle" x="524.05" y="-231.8" font-family="Times,serif" font-size="14.00">सम्बोध्यः</text>
</g>
<!-- Node10_1 -->
<g id="node12" class="node">
<title>Node10_1</title>
<ellipse fill="#ffff00" stroke="#ffff00" cx="421.05" cy="-18" rx="63.09" ry="18"/>
<text text-anchor="middle" x="421.05" y="-14.3" font-family="Times,serif" font-size="14.00">दुर्योधन&#45;(10.1)</text>
</g>
<!-- Node10_2 -->
<g id="node13" class="node">
<title>Node10_2</title>
<ellipse fill="#b4ffb4" stroke="#b4ffb4" cx="421.05" cy="-105" rx="61.99" ry="18"/>
<text text-anchor="middle" x="421.05" y="-101.3" font-family="Times,serif" font-size="14.00">ऐश्वर्यात्(10.2)</text>
</g>
<!-- Node10_1&#45;&gt;Node10_2 -->
<g id="edge10" class="edge">
<title>Node10_1&#45;&gt;Node10_2</title>
<path fill="none" stroke="black" d="M421.05,-46.27C421.05,-59.58 421.05,-75.19 421.05,-86.82"/>
<polygon fill="black" stroke="black" points="424.55,-46.2 421.05,-36.2 417.55,-46.2 424.55,-46.2"/>
<text text-anchor="middle" x="438.05" y="-57.8" font-family="Times,serif" font-size="14.00">समासः</text>
</g>
<!-- Node12_1 -->
<g id="node14" class="node">
<title>Node12_1</title>
<ellipse fill="#00bfff" stroke="#00bfff" cx="563.05" cy="-192" rx="63.09" ry="18"/>
<text text-anchor="middle" x="563.05" y="-188.3" font-family="Times,serif" font-size="14.00">विशिष्टम्(12.1)</text>
</g>
<!-- Node10_2&#45;&gt;Node12_1 -->
<g id="edge11" class="edge">
<title>Node10_2&#45;&gt;Node12_1</title>
<path fill="none" stroke="black" d="M455.6,-126.68C480.71,-141.72 514.17,-161.75 537.04,-175.43"/>
<polygon fill="black" stroke="black" points="457.14,-123.53 446.76,-121.39 453.54,-129.53 457.14,-123.53"/>
<text text-anchor="middle" x="509.55" y="-144.8" font-family="Times,serif" font-size="14.00">हेतुः</text>
</g>
<!-- Node12_1&#45;&gt;Node15_1 -->
<g id="edge13" class="edge">
<title>Node12_1&#45;&gt;Node15_1</title>
<path fill="none" stroke="black" d="M563.05,-220.27C563.05,-233.58 563.05,-249.19 563.05,-260.82"/>
<polygon fill="black" stroke="black" points="566.55,-220.2 563.05,-210.2 559.55,-220.2 566.55,-220.2"/>
<text text-anchor="middle" x="584.55" y="-231.8" font-family="Times,serif" font-size="14.00">वाक्यकर्म</text>
</g>
<!-- Node11_1 -->
<g id="node15" class="node">
<title>Node11_1</title>
<ellipse fill="#00bfff" stroke="#00bfff" cx="563.05" cy="-105" rx="62.29" ry="18"/>
<text text-anchor="middle" x="563.05" y="-101.3" font-family="Times,serif" font-size="14.00">(सुखम्)(11.1)</text>
</g>
<!-- Node11_1&#45;&gt;Node12_1 -->
<g id="edge12" class="edge">
<title>Node11_1&#45;&gt;Node12_1</title>
<path fill="none" stroke="black" d="M563.05,-133.27C563.05,-146.58 563.05,-162.19 563.05,-173.82"/>
<polygon fill="black" stroke="black" points="566.55,-133.2 563.05,-123.2 559.55,-133.2 566.55,-133.2"/>
<text text-anchor="middle" x="572.05" y="-144.8" font-family="Times,serif" font-size="14.00">कर्म</text>
</g>
<!-- Node13_1 -->
<g id="node16" class="node">
<title>Node13_1</title>
<ellipse fill="#ff99ff" stroke="#ff99ff" cx="693.05" cy="-105" rx="50.09" ry="18"/>
<text text-anchor="middle" x="693.05" y="-101.3" font-family="Times,serif" font-size="14.00">इति(13.1)</text>
</g>
<!-- Node13_1&#45;&gt;Node12_1 -->
<g id="edge14" class="edge">
<title>Node13_1&#45;&gt;Node12_1</title>
<path fill="none" stroke="black" d="M661.73,-126.48C638.78,-141.48 608.1,-161.54 587.08,-175.29"/>
<polygon fill="black" stroke="black" points="663.65,-129.4 670.1,-121 659.82,-123.54 663.65,-129.4"/>
<text text-anchor="middle" x="676.05" y="-144.8" font-family="Times,serif" font-size="14.00">वाक्यकर्म_द्योतकः</text>
</g>
<!-- Node14_1 -->
<g id="node17" class="node">
<title>Node14_1</title>
<ellipse fill="#00bfff" stroke="#00bfff" cx="704.05" cy="-192" rx="60.39" ry="18"/>
<text text-anchor="middle" x="704.05" y="-188.3" font-family="Times,serif" font-size="14.00">(अहम्)(14.1)</text>
</g>
<!-- Node14_1&#45;&gt;Node15_1 -->
<g id="edge15" class="edge">
<title>Node14_1&#45;&gt;Node15_1</title>
<path fill="none" stroke="black" d="M669.62,-213.75C644.34,-228.99 610.6,-249.33 587.92,-263.01"/>
<polygon fill="black" stroke="black" points="671.75,-216.55 678.51,-208.39 668.14,-210.56 671.75,-216.55"/>
<text text-anchor="middle" x="652.05" y="-231.8" font-family="Times,serif" font-size="14.00">कर्ता</text>
</g>
</g>
</svg>
