<?xml version="1.0" encoding="UTF-8" standalone="no"?>
<!DOCTYPE svg PUBLIC "-//W3C//DTD SVG 1.1//EN"
 "http://www.w3.org/Graphics/SVG/1.1/DTD/svg11.dtd">
<!-- Generated by graphviz version 2.43.0 (0)
 -->
<!-- Title: G Pages: 1 -->
<svg width="1026pt" height="305pt"
 viewBox="0.00 0.00 1025.84 305.00" xmlns="http://www.w3.org/2000/svg" xmlns:xlink="http://www.w3.org/1999/xlink">
<g id="graph0" class="graph" transform="scale(1 1) rotate(0) translate(4 301)">
<title>G</title>
<polygon fill="#fffacd" stroke="transparent" points="-4,4 -4,-301 1021.84,-301 1021.84,4 -4,4"/>
<g id="clust1" class="cluster">
<title>cluster_1</title>
<polygon fill="#fffacd" stroke="black" points="299.25,-79 299.25,-218 417.25,-218 417.25,-79 299.25,-79"/>
</g>
<!-- Node9_1 -->
<g id="node1" class="node">
<title>Node9_1</title>
<ellipse fill="#00bfff" stroke="#00bfff" cx="358.25" cy="-105" rx="50.89" ry="18"/>
<text text-anchor="middle" x="358.25" y="-101.3" font-family="Times,serif" font-size="14.00">स्थितः(9.1)</text>
</g>
<!-- Node6_1 -->
<g id="node2" class="node">
<title>Node6_1</title>
<ellipse fill="#00bfff" stroke="#00bfff" cx="358.25" cy="-192" rx="50.09" ry="18"/>
<text text-anchor="middle" x="358.25" y="-188.3" font-family="Times,serif" font-size="14.00">भवान्(6.1)</text>
</g>
<!-- Node9_1&#45;&gt;Node6_1 -->
<g id="edge8" class="edge">
<title>Node9_1&#45;&gt;Node6_1</title>
<path fill="none" stroke="black" d="M358.25,-133.27C358.25,-146.58 358.25,-162.19 358.25,-173.82"/>
<polygon fill="black" stroke="black" points="361.75,-133.2 358.25,-123.2 354.75,-133.2 361.75,-133.2"/>
<text text-anchor="middle" x="380.75" y="-144.8" font-family="Times,serif" font-size="14.00">विशेषणम्</text>
</g>
<!-- Node4_1 -->
<g id="node4" class="node">
<title>Node4_1</title>
<ellipse fill="#ff1975" stroke="#ff1975" cx="197.25" cy="-279" rx="63.09" ry="18"/>
<text text-anchor="middle" x="197.25" y="-275.3" font-family="Times,serif" font-size="14.00">अनुशास्ति(4.1)</text>
</g>
<!-- Node6_1&#45;&gt;Node4_1 -->
<g id="edge5" class="edge">
<title>Node6_1&#45;&gt;Node4_1</title>
<path fill="none" stroke="black" d="M333.56,-215.7C322.45,-225.07 308.8,-235.47 295.25,-243 278.35,-252.39 258.45,-260.04 241.02,-265.77"/>
<polygon fill="black" stroke="black" points="335.9,-218.3 341.17,-209.11 331.32,-213.01 335.9,-218.3"/>
<text text-anchor="middle" x="328.25" y="-231.8" font-family="Times,serif" font-size="14.00">कर्ता</text>
</g>
<!-- Node1_1 -->
<g id="node3" class="node">
<title>Node1_1</title>
<ellipse fill="#93db70" stroke="#93db70" cx="42.25" cy="-192" rx="42.49" ry="18"/>
<text text-anchor="middle" x="42.25" y="-188.3" font-family="Times,serif" font-size="14.00">यत्(1.1)</text>
</g>
<!-- Node1_1&#45;&gt;Node4_1 -->
<g id="edge1" class="edge">
<title>Node1_1&#45;&gt;Node4_1</title>
<path fill="none" stroke="black" d="M73.44,-212.7C88.85,-222.19 107.82,-233.54 125.25,-243 138.19,-250.03 152.76,-257.24 165.39,-263.27"/>
<polygon fill="black" stroke="black" points="75.17,-209.65 64.83,-207.35 71.48,-215.6 75.17,-209.65"/>
<text text-anchor="middle" x="145.25" y="-231.8" font-family="Times,serif" font-size="14.00">मुख्यकर्म</text>
</g>
<!-- Node2_1 -->
<g id="node5" class="node">
<title>Node2_1</title>
<ellipse fill="#ff99ff" stroke="#ff99ff" cx="42.25" cy="-105" rx="37.09" ry="18"/>
<text text-anchor="middle" x="42.25" y="-101.3" font-family="Times,serif" font-size="14.00">तु(2.1)</text>
</g>
<!-- Node2_1&#45;&gt;Node1_1 -->
<g id="edge2" class="edge">
<title>Node2_1&#45;&gt;Node1_1</title>
<path fill="none" stroke="black" d="M42.25,-133.27C42.25,-146.58 42.25,-162.19 42.25,-173.82"/>
<polygon fill="black" stroke="black" points="45.75,-133.2 42.25,-123.2 38.75,-133.2 45.75,-133.2"/>
<text text-anchor="middle" x="60.75" y="-144.8" font-family="Times,serif" font-size="14.00">सम्बन्धः</text>
</g>
<!-- Node3_1 -->
<g id="node6" class="node">
<title>Node3_1</title>
<ellipse fill="#93db70" stroke="#93db70" cx="146.25" cy="-192" rx="44.39" ry="18"/>
<text text-anchor="middle" x="146.25" y="-188.3" font-family="Times,serif" font-size="14.00">माम्(3.1)</text>
</g>
<!-- Node3_1&#45;&gt;Node4_1 -->
<g id="edge3" class="edge">
<title>Node3_1&#45;&gt;Node4_1</title>
<path fill="none" stroke="black" d="M161.69,-218.74C169.9,-232.42 179.76,-248.86 187.02,-260.95"/>
<polygon fill="black" stroke="black" points="164.47,-216.57 156.32,-209.79 158.47,-220.17 164.47,-216.57"/>
<text text-anchor="middle" x="194.75" y="-231.8" font-family="Times,serif" font-size="14.00">गौणकर्म</text>
</g>
<!-- Node5_1 -->
<g id="node7" class="node">
<title>Node5_1</title>
<ellipse fill="#ff99ff" stroke="#ff99ff" cx="249.25" cy="-192" rx="40.89" ry="18"/>
<text text-anchor="middle" x="249.25" y="-188.3" font-family="Times,serif" font-size="14.00">इह(5.1)</text>
</g>
<!-- Node5_1&#45;&gt;Node4_1 -->
<g id="edge4" class="edge">
<title>Node5_1&#45;&gt;Node4_1</title>
<path fill="none" stroke="black" d="M233.74,-218.34C225.33,-232.1 215.14,-248.74 207.68,-260.95"/>
<polygon fill="black" stroke="black" points="236.74,-220.15 238.97,-209.79 230.77,-216.5 236.74,-220.15"/>
<text text-anchor="middle" x="259.25" y="-231.8" font-family="Times,serif" font-size="14.00">देशाधिकरणम्</text>
</g>
<!-- Node7_1 -->
<g id="node8" class="node">
<title>Node7_1</title>
<ellipse fill="#ff99ff" stroke="#ff99ff" cx="305.25" cy="-18" rx="43.59" ry="18"/>
<text text-anchor="middle" x="305.25" y="-14.3" font-family="Times,serif" font-size="14.00">अद्य(7.1)</text>
</g>
<!-- Node7_1&#45;&gt;Node9_1 -->
<g id="edge6" class="edge">
<title>Node7_1&#45;&gt;Node9_1</title>
<path fill="none" stroke="black" d="M309.18,-46.04C311.11,-53.84 313.99,-62.1 318.25,-69 322.8,-76.38 329.41,-83.06 335.94,-88.56"/>
<polygon fill="black" stroke="black" points="312.6,-45.29 307.14,-36.2 305.74,-46.71 312.6,-45.29"/>
<text text-anchor="middle" x="353.75" y="-57.8" font-family="Times,serif" font-size="14.00">कालाधिकरणम्</text>
</g>
<!-- Node8_1 -->
<g id="node9" class="node">
<title>Node8_1</title>
<ellipse fill="#93db70" stroke="#93db70" cx="411.25" cy="-18" rx="44.39" ry="18"/>
<text text-anchor="middle" x="411.25" y="-14.3" font-family="Times,serif" font-size="14.00">हिते(8.1)</text>
</g>
<!-- Node8_1&#45;&gt;Node9_1 -->
<g id="edge7" class="edge">
<title>Node8_1&#45;&gt;Node9_1</title>
<path fill="none" stroke="black" d="M401.46,-45.38C398.06,-53.24 393.92,-61.7 389.25,-69 385.04,-75.56 379.63,-82.12 374.51,-87.76"/>
<polygon fill="black" stroke="black" points="404.8,-46.45 405.34,-35.87 398.32,-43.8 404.8,-46.45"/>
<text text-anchor="middle" x="423.75" y="-57.8" font-family="Times,serif" font-size="14.00">अधिकरणम्</text>
</g>
<!-- Node9_2 -->
<g id="node10" class="node">
<title>Node9_2</title>
<ellipse fill="#00bfff" stroke="#00bfff" cx="477.25" cy="-105" rx="50.09" ry="18"/>
<text text-anchor="middle" x="477.25" y="-101.3" font-family="Times,serif" font-size="14.00">(अहं)(9.2)</text>
</g>
<!-- Node10_1 -->
<g id="node11" class="node">
<title>Node10_1</title>
<ellipse fill="#ff1975" stroke="#ff1975" cx="593.25" cy="-192" rx="63.09" ry="18"/>
<text text-anchor="middle" x="593.25" y="-188.3" font-family="Times,serif" font-size="14.00">कर्तास्मि(10.1)</text>
</g>
<!-- Node9_2&#45;&gt;Node10_1 -->
<g id="edge9" class="edge">
<title>Node9_2&#45;&gt;Node10_1</title>
<path fill="none" stroke="black" d="M506.45,-127.4C526.56,-142.13 552.86,-161.4 571.21,-174.85"/>
<polygon fill="black" stroke="black" points="508.39,-124.48 498.25,-121.39 504.25,-130.13 508.39,-124.48"/>
<text text-anchor="middle" x="552.25" y="-144.8" font-family="Times,serif" font-size="14.00">कर्ता</text>
</g>
<!-- Node11_1 -->
<g id="node12" class="node">
<title>Node11_1</title>
<ellipse fill="#93db70" stroke="#93db70" cx="593.25" cy="-105" rx="48.19" ry="18"/>
<text text-anchor="middle" x="593.25" y="-101.3" font-family="Times,serif" font-size="14.00">तत्(11.1)</text>
</g>
<!-- Node11_1&#45;&gt;Node10_1 -->
<g id="edge10" class="edge">
<title>Node11_1&#45;&gt;Node10_1</title>
<path fill="none" stroke="black" d="M593.25,-133.27C593.25,-146.58 593.25,-162.19 593.25,-173.82"/>
<polygon fill="black" stroke="black" points="596.75,-133.2 593.25,-123.2 589.75,-133.2 596.75,-133.2"/>
<text text-anchor="middle" x="602.25" y="-144.8" font-family="Times,serif" font-size="14.00">कर्म</text>
</g>
<!-- Node12_1 -->
<g id="node13" class="node">
<title>Node12_1</title>
<ellipse fill="#ffff00" stroke="#ffff00" cx="710.25" cy="-18" rx="52.79" ry="18"/>
<text text-anchor="middle" x="710.25" y="-14.3" font-family="Times,serif" font-size="14.00">मही&#45;(12.1)</text>
</g>
<!-- Node12_2 -->
<g id="node14" class="node">
<title>Node12_2</title>
<ellipse fill="#6fffc3" stroke="#6fffc3" cx="710.25" cy="-105" rx="51.19" ry="18"/>
<text text-anchor="middle" x="710.25" y="-101.3" font-family="Times,serif" font-size="14.00">पाल(12.2)</text>
</g>
<!-- Node12_1&#45;&gt;Node12_2 -->
<g id="edge11" class="edge">
<title>Node12_1&#45;&gt;Node12_2</title>
<path fill="none" stroke="black" d="M710.25,-46.27C710.25,-59.58 710.25,-75.19 710.25,-86.82"/>
<polygon fill="black" stroke="black" points="713.75,-46.2 710.25,-36.2 706.75,-46.2 713.75,-46.2"/>
<text text-anchor="middle" x="727.25" y="-57.8" font-family="Times,serif" font-size="14.00">समासः</text>
</g>
<!-- Node12_2&#45;&gt;Node10_1 -->
<g id="edge12" class="edge">
<title>Node12_2&#45;&gt;Node10_1</title>
<path fill="none" stroke="black" d="M680.51,-127.6C660.23,-142.34 633.8,-161.54 615.36,-174.93"/>
<polygon fill="black" stroke="black" points="682.75,-130.3 688.79,-121.59 678.64,-124.64 682.75,-130.3"/>
<text text-anchor="middle" x="679.25" y="-144.8" font-family="Times,serif" font-size="14.00">सम्बोध्यः</text>
</g>
<!-- Node13_1 -->
<g id="node15" class="node">
<title>Node13_1</title>
<ellipse fill="#00bfff" stroke="#00bfff" cx="838.25" cy="-18" rx="57.39" ry="18"/>
<text text-anchor="middle" x="838.25" y="-14.3" font-family="Times,serif" font-size="14.00">निवृतः(13.1)</text>
</g>
<!-- Node13_2 -->
<g id="node16" class="node">
<title>Node13_2</title>
<ellipse fill="#00bfff" stroke="#00bfff" cx="838.25" cy="-105" rx="51.99" ry="18"/>
<text text-anchor="middle" x="838.25" y="-101.3" font-family="Times,serif" font-size="14.00">(त्वं)(13.2)</text>
</g>
<!-- Node13_1&#45;&gt;Node13_2 -->
<g id="edge13" class="edge">
<title>Node13_1&#45;&gt;Node13_2</title>
<path fill="none" stroke="black" d="M838.25,-46.27C838.25,-59.58 838.25,-75.19 838.25,-86.82"/>
<polygon fill="black" stroke="black" points="841.75,-46.2 838.25,-36.2 834.75,-46.2 841.75,-46.2"/>
<text text-anchor="middle" x="877.25" y="-57.8" font-family="Times,serif" font-size="14.00">विधेय_विशेषणम्</text>
</g>
<!-- Node14_1 -->
<g id="node17" class="node">
<title>Node14_1</title>
<ellipse fill="#ff1975" stroke="#ff1975" cx="931.25" cy="-192" rx="48.19" ry="18"/>
<text text-anchor="middle" x="931.25" y="-188.3" font-family="Times,serif" font-size="14.00">भव(14.1)</text>
</g>
<!-- Node13_2&#45;&gt;Node14_1 -->
<g id="edge14" class="edge">
<title>Node13_2&#45;&gt;Node14_1</title>
<path fill="none" stroke="black" d="M863.2,-128.8C879.2,-143.43 899.57,-162.04 913.83,-175.08"/>
<polygon fill="black" stroke="black" points="865.48,-126.15 855.74,-121.99 860.76,-131.32 865.48,-126.15"/>
<text text-anchor="middle" x="901.25" y="-144.8" font-family="Times,serif" font-size="14.00">कर्ता</text>
</g>
<!-- Node15_1 -->
<g id="node18" class="node">
<title>Node15_1</title>
<ellipse fill="#6fffc3" stroke="#6fffc3" cx="963.25" cy="-105" rx="54.69" ry="18"/>
<text text-anchor="middle" x="963.25" y="-101.3" font-family="Times,serif" font-size="14.00">भारत(15.1)</text>
</g>
<!-- Node15_1&#45;&gt;Node14_1 -->
<g id="edge15" class="edge">
<title>Node15_1&#45;&gt;Node14_1</title>
<path fill="none" stroke="black" d="M953.1,-132.94C948.02,-146.43 942.03,-162.36 937.6,-174.11"/>
<polygon fill="black" stroke="black" points="956.52,-133.79 956.77,-123.2 949.97,-131.33 956.52,-133.79"/>
<text text-anchor="middle" x="969.25" y="-144.8" font-family="Times,serif" font-size="14.00">सम्बोध्यः</text>
</g>
</g>
</svg>
