<?xml version="1.0" encoding="UTF-8" standalone="no"?>
<!DOCTYPE svg PUBLIC "-//W3C//DTD SVG 1.1//EN"
 "http://www.w3.org/Graphics/SVG/1.1/DTD/svg11.dtd">
<!-- Generated by graphviz version 2.43.0 (0)
 -->
<!-- Title: G Pages: 1 -->
<svg width="1016pt" height="479pt"
 viewBox="0.00 0.00 1015.79 479.00" xmlns="http://www.w3.org/2000/svg" xmlns:xlink="http://www.w3.org/1999/xlink">
<g id="graph0" class="graph" transform="scale(1 1) rotate(0) translate(4 475)">
<title>G</title>
<polygon fill="#fffacd" stroke="transparent" points="-4,4 -4,-475 1011.79,-475 1011.79,4 -4,4"/>
<g id="clust1" class="cluster">
<title>cluster_1</title>
<polygon fill="#fffacd" stroke="black" points="8,-79 8,-218 372,-218 372,-79 8,-79"/>
</g>
<g id="clust2" class="cluster">
<title>cluster_2</title>
<polygon fill="#fffacd" stroke="black" points="581,-79 581,-218 827,-218 827,-79 581,-79"/>
</g>
<!-- Node3_1 -->
<g id="node1" class="node">
<title>Node3_1</title>
<ellipse fill="#40e0d0" stroke="#40e0d0" cx="324" cy="-105" rx="39.79" ry="18"/>
<text text-anchor="middle" x="324" y="-101.3" font-family="Times,serif" font-size="14.00">तैः(3.1)</text>
</g>
<!-- Node8_1 -->
<g id="node2" class="node">
<title>Node8_1</title>
<ellipse fill="#40e0d0" stroke="#40e0d0" cx="319" cy="-192" rx="45.49" ry="18"/>
<text text-anchor="middle" x="319" y="-188.3" font-family="Times,serif" font-size="14.00">सुतैः(8.1)</text>
</g>
<!-- Node3_1&#45;&gt;Node8_1 -->
<g id="edge3" class="edge">
<title>Node3_1&#45;&gt;Node8_1</title>
<path fill="none" stroke="black" d="M322.4,-133.27C321.61,-146.58 320.69,-162.19 320.01,-173.82"/>
<polygon fill="black" stroke="black" points="325.89,-133.39 322.99,-123.2 318.91,-132.98 325.89,-133.39"/>
<text text-anchor="middle" x="344.5" y="-144.8" font-family="Times,serif" font-size="14.00">विशेषणम्</text>
</g>
<!-- Node4_1 -->
<g id="node11" class="node">
<title>Node4_1</title>
<ellipse fill="#00bfff" stroke="#00bfff" cx="483" cy="-279" rx="48.19" ry="18"/>
<text text-anchor="middle" x="483" y="-275.3" font-family="Times,serif" font-size="14.00">कृतम्(4.1)</text>
</g>
<!-- Node8_1&#45;&gt;Node4_1 -->
<g id="edge8" class="edge">
<title>Node8_1&#45;&gt;Node4_1</title>
<path fill="none" stroke="black" d="M354.74,-211.52C385.22,-227.32 428.37,-249.69 456.02,-264.02"/>
<polygon fill="black" stroke="black" points="356.2,-208.34 345.71,-206.85 352.98,-214.55 356.2,-208.34"/>
<text text-anchor="middle" x="421" y="-231.8" font-family="Times,serif" font-size="14.00">कर्ता</text>
</g>
<!-- Node11_1 -->
<g id="node3" class="node">
<title>Node11_1</title>
<ellipse fill="#40e0d0" stroke="#40e0d0" cx="210" cy="-105" rx="56.59" ry="18"/>
<text text-anchor="middle" x="210" y="-101.3" font-family="Times,serif" font-size="14.00">अन्येन(11.1)</text>
</g>
<!-- Node11_1&#45;&gt;Node8_1 -->
<g id="edge11" class="edge">
<title>Node11_1&#45;&gt;Node8_1</title>
<path fill="none" stroke="black" d="M238.58,-128.29C257.71,-143.2 282.38,-162.44 299.32,-175.66"/>
<polygon fill="black" stroke="black" points="240.54,-125.38 230.5,-121.99 236.24,-130.9 240.54,-125.38"/>
<text text-anchor="middle" x="291" y="-144.8" font-family="Times,serif" font-size="14.00">अन्यतरः</text>
</g>
<!-- Node12_1 -->
<g id="node4" class="node">
<title>Node12_1</title>
<ellipse fill="#40e0d0" stroke="#40e0d0" cx="76" cy="-105" rx="59.59" ry="18"/>
<text text-anchor="middle" x="76" y="-101.3" font-family="Times,serif" font-size="14.00">मदीयेन(12.1)</text>
</g>
<!-- Node12_1&#45;&gt;Node8_1 -->
<g id="edge12" class="edge">
<title>Node12_1&#45;&gt;Node8_1</title>
<path fill="none" stroke="black" d="M122.44,-122.79C149.67,-132.58 184.74,-145.11 216,-156 239.18,-164.08 265.38,-172.98 285.56,-179.78"/>
<polygon fill="black" stroke="black" points="123.39,-119.41 112.79,-119.31 121.01,-126 123.39,-119.41"/>
<text text-anchor="middle" x="235" y="-144.8" font-family="Times,serif" font-size="14.00">अन्यतरः</text>
</g>
<!-- Node5_1 -->
<g id="node5" class="node">
<title>Node5_1</title>
<ellipse fill="#ff99ff" stroke="#ff99ff" cx="761" cy="-105" rx="57.69" ry="18"/>
<text text-anchor="middle" x="761" y="-101.3" font-family="Times,serif" font-size="14.00">किञ्चित्(5.1)</text>
</g>
<!-- Node6_1 -->
<g id="node6" class="node">
<title>Node6_1</title>
<ellipse fill="#00bfff" stroke="#00bfff" cx="649" cy="-192" rx="59.59" ry="18"/>
<text text-anchor="middle" x="649" y="-188.3" font-family="Times,serif" font-size="14.00">व्यलीकम्(6.1)</text>
</g>
<!-- Node5_1&#45;&gt;Node6_1 -->
<g id="edge5" class="edge">
<title>Node5_1&#45;&gt;Node6_1</title>
<path fill="none" stroke="black" d="M731.74,-128.21C712.35,-142.92 687.39,-161.87 669.97,-175.08"/>
<polygon fill="black" stroke="black" points="734.08,-130.82 739.93,-121.99 729.85,-125.25 734.08,-130.82"/>
<text text-anchor="middle" x="733.5" y="-144.8" font-family="Times,serif" font-size="14.00">विशेषणम्</text>
</g>
<!-- Node6_1&#45;&gt;Node4_1 -->
<g id="edge6" class="edge">
<title>Node6_1&#45;&gt;Node4_1</title>
<path fill="none" stroke="black" d="M610.95,-212.48C580.19,-228.24 537.63,-250.03 510.21,-264.07"/>
<polygon fill="black" stroke="black" points="612.78,-215.48 620.09,-207.81 609.59,-209.25 612.78,-215.48"/>
<text text-anchor="middle" x="595" y="-231.8" font-family="Times,serif" font-size="14.00">मुख्यकर्म</text>
</g>
<!-- Node10_1 -->
<g id="node7" class="node">
<title>Node10_1</title>
<ellipse fill="#00bfff" stroke="#00bfff" cx="637" cy="-105" rx="48.19" ry="18"/>
<text text-anchor="middle" x="637" y="-101.3" font-family="Times,serif" font-size="14.00">यत्(10.1)</text>
</g>
<!-- Node10_1&#45;&gt;Node6_1 -->
<g id="edge10" class="edge">
<title>Node10_1&#45;&gt;Node6_1</title>
<path fill="none" stroke="black" d="M640.85,-133.27C642.73,-146.58 644.93,-162.19 646.58,-173.82"/>
<polygon fill="black" stroke="black" points="644.29,-132.61 639.43,-123.2 637.36,-133.59 644.29,-132.61"/>
<text text-anchor="middle" x="665.5" y="-144.8" font-family="Times,serif" font-size="14.00">विशेषणम्</text>
</g>
<!-- Node1_1 -->
<g id="node8" class="node">
<title>Node1_1</title>
<ellipse fill="#ff99ff" stroke="#ff99ff" cx="483" cy="-366" rx="44.39" ry="18"/>
<text text-anchor="middle" x="483" y="-362.3" font-family="Times,serif" font-size="14.00">यदि(1.1)</text>
</g>
<!-- Node16_1 -->
<g id="node9" class="node">
<title>Node16_1</title>
<ellipse fill="#ff99ff" stroke="#ff99ff" cx="662" cy="-366" rx="56.59" ry="18"/>
<text text-anchor="middle" x="662" y="-362.3" font-family="Times,serif" font-size="14.00">(तर्हि)(16.1)</text>
</g>
<!-- Node1_1&#45;&gt;Node16_1 -->
<g id="edge1" class="edge">
<title>Node1_1&#45;&gt;Node16_1</title>
<path fill="none" stroke="red" stroke-dasharray="5,2" d="M537.52,-366C555.74,-366 576.26,-366 595.3,-366"/>
<polygon fill="red" stroke="red" points="537.25,-362.5 527.25,-366 537.25,-369.5 537.25,-362.5"/>
<polygon fill="red" stroke="red" points="595.4,-369.5 605.4,-366 595.4,-362.5 595.4,-369.5"/>
<text text-anchor="middle" x="566.33" y="-351.8" font-family="Times,serif" font-size="14.00">नित्यसम्बन्धः</text>
</g>
<!-- Node15_1 -->
<g id="node16" class="node">
<title>Node15_1</title>
<ellipse fill="#ff1975" stroke="#ff1975" cx="803" cy="-453" rx="53.89" ry="18"/>
<text text-anchor="middle" x="803" y="-449.3" font-family="Times,serif" font-size="14.00">अर्हथ(15.1)</text>
</g>
<!-- Node16_1&#45;&gt;Node15_1 -->
<g id="edge15" class="edge">
<title>Node16_1&#45;&gt;Node15_1</title>
<path fill="none" stroke="black" d="M696.09,-387.55C721.36,-402.78 755.22,-423.2 778.01,-436.94"/>
<polygon fill="black" stroke="black" points="697.58,-384.36 687.21,-382.2 693.97,-390.36 697.58,-384.36"/>
<text text-anchor="middle" x="760" y="-405.8" font-family="Times,serif" font-size="14.00">अनुयोगी</text>
</g>
<!-- Node2_1 -->
<g id="node10" class="node">
<title>Node2_1</title>
<ellipse fill="#ff99ff" stroke="#ff99ff" cx="761" cy="-18" rx="41.69" ry="18"/>
<text text-anchor="middle" x="761" y="-14.3" font-family="Times,serif" font-size="14.00">एव(2.1)</text>
</g>
<!-- Node2_1&#45;&gt;Node5_1 -->
<g id="edge2" class="edge">
<title>Node2_1&#45;&gt;Node5_1</title>
<path fill="none" stroke="black" d="M761,-46.27C761,-59.58 761,-75.19 761,-86.82"/>
<polygon fill="black" stroke="black" points="764.5,-46.2 761,-36.2 757.5,-46.2 764.5,-46.2"/>
<text text-anchor="middle" x="779.5" y="-57.8" font-family="Times,serif" font-size="14.00">सम्बन्धः</text>
</g>
<!-- Node4_1&#45;&gt;Node1_1 -->
<g id="edge4" class="edge">
<title>Node4_1&#45;&gt;Node1_1</title>
<path fill="none" stroke="black" stroke-dasharray="1,5" d="M483,-307.27C483,-320.58 483,-336.19 483,-347.82"/>
<polygon fill="black" stroke="black" points="486.5,-307.2 483,-297.2 479.5,-307.2 486.5,-307.2"/>
<text text-anchor="middle" x="504" y="-318.8" font-family="Times,serif" font-size="14.00">प्रतियोगी</text>
</g>
<!-- Node7_1 -->
<g id="node12" class="node">
<title>Node7_1</title>
<ellipse fill="#ff99ff" stroke="#ff99ff" cx="421" cy="-105" rx="38.99" ry="18"/>
<text text-anchor="middle" x="421" y="-101.3" font-family="Times,serif" font-size="14.00">वा(7.1)</text>
</g>
<!-- Node7_1&#45;&gt;Node8_1 -->
<g id="edge7" class="edge">
<title>Node7_1&#45;&gt;Node8_1</title>
<path fill="none" stroke="black" d="M399.39,-129.46C390.89,-138.18 380.82,-147.91 371,-156 362.18,-163.26 351.85,-170.46 342.73,-176.42"/>
<polygon fill="black" stroke="black" points="402.02,-131.76 406.41,-122.12 396.97,-126.92 402.02,-131.76"/>
<text text-anchor="middle" x="422.5" y="-144.8" font-family="Times,serif" font-size="14.00">अन्यतर_द्योतकः</text>
</g>
<!-- Node9_1 -->
<g id="node13" class="node">
<title>Node9_1</title>
<ellipse fill="#87ceeb" stroke="#87ceeb" cx="520" cy="-105" rx="42.49" ry="18"/>
<text text-anchor="middle" x="520" y="-101.3" font-family="Times,serif" font-size="14.00">मम(9.1)</text>
</g>
<!-- Node9_1&#45;&gt;Node8_1 -->
<g id="edge9" class="edge">
<title>Node9_1&#45;&gt;Node8_1</title>
<path fill="none" stroke="black" d="M498.48,-129.32C488.53,-138.86 476.03,-149.23 463,-156 431.38,-172.43 391.83,-181.33 362.18,-186.03"/>
<polygon fill="black" stroke="black" points="500.96,-131.8 505.57,-122.26 496.02,-126.84 500.96,-131.8"/>
<text text-anchor="middle" x="510.5" y="-144.8" font-family="Times,serif" font-size="14.00">षष्ठीसम्बन्धः</text>
</g>
<!-- Node13_1 -->
<g id="node14" class="node">
<title>Node13_1</title>
<ellipse fill="#00bfff" stroke="#00bfff" cx="803" cy="-279" rx="48.19" ry="18"/>
<text text-anchor="middle" x="803" y="-275.3" font-family="Times,serif" font-size="14.00">तत्(13.1)</text>
</g>
<!-- Node14_1 -->
<g id="node15" class="node">
<title>Node14_1</title>
<ellipse fill="#ff99ff" stroke="#ff99ff" cx="803" cy="-366" rx="66.89" ry="18"/>
<text text-anchor="middle" x="803" y="-362.3" font-family="Times,serif" font-size="14.00">अनुज्ञातुम्(14.1)</text>
</g>
<!-- Node13_1&#45;&gt;Node14_1 -->
<g id="edge13" class="edge">
<title>Node13_1&#45;&gt;Node14_1</title>
<path fill="none" stroke="black" d="M803,-307.27C803,-320.58 803,-336.19 803,-347.82"/>
<polygon fill="black" stroke="black" points="806.5,-307.2 803,-297.2 799.5,-307.2 806.5,-307.2"/>
<text text-anchor="middle" x="812" y="-318.8" font-family="Times,serif" font-size="14.00">कर्म</text>
</g>
<!-- Node14_1&#45;&gt;Node15_1 -->
<g id="edge14" class="edge">
<title>Node14_1&#45;&gt;Node15_1</title>
<path fill="none" stroke="black" d="M803,-394.27C803,-407.58 803,-423.19 803,-434.82"/>
<polygon fill="black" stroke="black" points="806.5,-394.2 803,-384.2 799.5,-394.2 806.5,-394.2"/>
<text text-anchor="middle" x="824.5" y="-405.8" font-family="Times,serif" font-size="14.00">प्रयोजनम्</text>
</g>
<!-- Node17_1 -->
<g id="node17" class="node">
<title>Node17_1</title>
<ellipse fill="#00bfff" stroke="#00bfff" cx="948" cy="-366" rx="59.59" ry="18"/>
<text text-anchor="middle" x="948" y="-362.3" font-family="Times,serif" font-size="14.00">(यूयम्)(17.1)</text>
</g>
<!-- Node17_1&#45;&gt;Node15_1 -->
<g id="edge16" class="edge">
<title>Node17_1&#45;&gt;Node15_1</title>
<path fill="none" stroke="black" d="M912.94,-387.55C886.91,-402.81 852.01,-423.27 828.58,-437.01"/>
<polygon fill="black" stroke="black" points="914.88,-390.47 921.74,-382.39 911.34,-384.43 914.88,-390.47"/>
<text text-anchor="middle" x="895" y="-405.8" font-family="Times,serif" font-size="14.00">कर्ता</text>
</g>
</g>
</svg>
