<?xml version="1.0" encoding="UTF-8" standalone="no"?>
<!DOCTYPE svg PUBLIC "-//W3C//DTD SVG 1.1//EN"
 "http://www.w3.org/Graphics/SVG/1.1/DTD/svg11.dtd">
<!-- Generated by graphviz version 2.43.0 (0)
 -->
<!-- Title: G Pages: 1 -->
<svg width="1006pt" height="566pt"
 viewBox="0.00 0.00 1006.00 566.00" xmlns="http://www.w3.org/2000/svg" xmlns:xlink="http://www.w3.org/1999/xlink">
<g id="graph0" class="graph" transform="scale(1 1) rotate(0) translate(4 562)">
<title>G</title>
<polygon fill="#fffacd" stroke="transparent" points="-4,4 -4,-562 1002,-562 1002,4 -4,4"/>
<g id="clust1" class="cluster">
<title>cluster_1</title>
<polygon fill="#fffacd" stroke="black" points="8,-166 8,-305 132,-305 132,-166 8,-166"/>
</g>
<g id="clust2" class="cluster">
<title>cluster_2</title>
<polygon fill="#fffacd" stroke="black" points="140,-79 140,-218 260,-218 260,-79 140,-79"/>
</g>
<!-- Node3_1 -->
<g id="node1" class="node">
<title>Node3_1</title>
<ellipse fill="#00bfff" stroke="#00bfff" cx="70" cy="-192" rx="46.29" ry="18"/>
<text text-anchor="middle" x="70" y="-188.3" font-family="Times,serif" font-size="14.00">इदम्(3.1)</text>
</g>
<!-- Node10_1 -->
<g id="node2" class="node">
<title>Node10_1</title>
<ellipse fill="#00bfff" stroke="#00bfff" cx="70" cy="-279" rx="53.89" ry="18"/>
<text text-anchor="middle" x="70" y="-275.3" font-family="Times,serif" font-size="14.00">कृतम्(10.1)</text>
</g>
<!-- Node3_1&#45;&gt;Node10_1 -->
<g id="edge3" class="edge">
<title>Node3_1&#45;&gt;Node10_1</title>
<path fill="none" stroke="black" d="M70,-220.27C70,-233.58 70,-249.19 70,-260.82"/>
<polygon fill="black" stroke="black" points="73.5,-220.2 70,-210.2 66.5,-220.2 73.5,-220.2"/>
<text text-anchor="middle" x="92.5" y="-231.8" font-family="Times,serif" font-size="14.00">विशेषणम्</text>
</g>
<!-- Node11_1 -->
<g id="node6" class="node">
<title>Node11_1</title>
<ellipse fill="#ff1975" stroke="#ff1975" cx="127" cy="-366" rx="62.29" ry="18"/>
<text text-anchor="middle" x="127" y="-362.3" font-family="Times,serif" font-size="14.00">(अस्ति)(11.1)</text>
</g>
<!-- Node10_1&#45;&gt;Node11_1 -->
<g id="edge10" class="edge">
<title>Node10_1&#45;&gt;Node11_1</title>
<path fill="none" stroke="black" d="M87.03,-305.4C96.33,-319.26 107.57,-336.03 115.76,-348.24"/>
<polygon fill="black" stroke="black" points="89.74,-303.15 81.26,-296.79 83.92,-307.05 89.74,-303.15"/>
<text text-anchor="middle" x="113" y="-318.8" font-family="Times,serif" font-size="14.00">कर्ता</text>
</g>
<!-- Node5_1 -->
<g id="node3" class="node">
<title>Node5_1</title>
<ellipse fill="#00bfff" stroke="#00bfff" cx="200" cy="-105" rx="51.99" ry="18"/>
<text text-anchor="middle" x="200" y="-101.3" font-family="Times,serif" font-size="14.00">असाधु(5.1)</text>
</g>
<!-- Node7_1 -->
<g id="node4" class="node">
<title>Node7_1</title>
<ellipse fill="#00bfff" stroke="#00bfff" cx="203" cy="-192" rx="46.29" ry="18"/>
<text text-anchor="middle" x="203" y="-188.3" font-family="Times,serif" font-size="14.00">साधु(7.1)</text>
</g>
<!-- Node5_1&#45;&gt;Node7_1 -->
<g id="edge5" class="edge">
<title>Node5_1&#45;&gt;Node7_1</title>
<path fill="none" stroke="black" d="M200.96,-133.27C201.43,-146.58 201.98,-162.19 202.39,-173.82"/>
<polygon fill="black" stroke="black" points="204.46,-133.07 200.61,-123.2 197.46,-133.32 204.46,-133.07"/>
<text text-anchor="middle" x="220" y="-144.8" font-family="Times,serif" font-size="14.00">अन्यतरः</text>
</g>
<!-- Node7_1&#45;&gt;Node10_1 -->
<g id="edge7" class="edge">
<title>Node7_1&#45;&gt;Node10_1</title>
<path fill="none" stroke="black" d="M171.16,-213.35C147.38,-228.55 115.38,-249 93.8,-262.79"/>
<polygon fill="black" stroke="black" points="173.29,-216.14 179.83,-207.81 169.52,-210.24 173.29,-216.14"/>
<text text-anchor="middle" x="154" y="-231.8" font-family="Times,serif" font-size="14.00">कर्म</text>
</g>
<!-- Node1_1 -->
<g id="node5" class="node">
<title>Node1_1</title>
<ellipse fill="#00bfff" stroke="#00bfff" cx="184" cy="-279" rx="42.49" ry="18"/>
<text text-anchor="middle" x="184" y="-275.3" font-family="Times,serif" font-size="14.00">तत्(1.1)</text>
</g>
<!-- Node1_1&#45;&gt;Node11_1 -->
<g id="edge1" class="edge">
<title>Node1_1&#45;&gt;Node11_1</title>
<path fill="none" stroke="black" d="M167.24,-304.99C157.94,-318.87 146.61,-335.76 138.35,-348.08"/>
<polygon fill="black" stroke="black" points="170.35,-306.64 173.01,-296.39 164.53,-302.74 170.35,-306.64"/>
<text text-anchor="middle" x="194.5" y="-318.8" font-family="Times,serif" font-size="14.00">कालाधिकरणम्</text>
</g>
<!-- Node12_1 -->
<g id="node12" class="node">
<title>Node12_1</title>
<ellipse fill="#ff99ff" stroke="#ff99ff" cx="127" cy="-453" rx="50.09" ry="18"/>
<text text-anchor="middle" x="127" y="-449.3" font-family="Times,serif" font-size="14.00">यदि(12.1)</text>
</g>
<!-- Node11_1&#45;&gt;Node12_1 -->
<g id="edge11" class="edge">
<title>Node11_1&#45;&gt;Node12_1</title>
<path fill="none" stroke="black" d="M127,-394.27C127,-407.58 127,-423.19 127,-434.82"/>
<polygon fill="black" stroke="black" points="130.5,-394.2 127,-384.2 123.5,-394.2 130.5,-394.2"/>
<text text-anchor="middle" x="148" y="-405.8" font-family="Times,serif" font-size="14.00">प्रतियोगी</text>
</g>
<!-- Node2_1 -->
<g id="node7" class="node">
<title>Node2_1</title>
<ellipse fill="#40e0d0" stroke="#40e0d0" cx="312" cy="-192" rx="44.39" ry="18"/>
<text text-anchor="middle" x="312" y="-188.3" font-family="Times,serif" font-size="14.00">मया(2.1)</text>
</g>
<!-- Node2_1&#45;&gt;Node10_1 -->
<g id="edge2" class="edge">
<title>Node2_1&#45;&gt;Node10_1</title>
<path fill="none" stroke="black" d="M277.81,-211.75C273.23,-213.99 268.54,-216.13 264,-218 235.88,-229.56 157.57,-252.79 109.48,-266.7"/>
<polygon fill="black" stroke="black" points="279.65,-214.74 287,-207.11 276.49,-208.5 279.65,-214.74"/>
<text text-anchor="middle" x="243" y="-231.8" font-family="Times,serif" font-size="14.00">कर्ता</text>
</g>
<!-- Node4_1 -->
<g id="node8" class="node">
<title>Node4_1</title>
<ellipse fill="#ff99ff" stroke="#ff99ff" cx="411" cy="-192" rx="36.29" ry="18"/>
<text text-anchor="middle" x="411" y="-188.3" font-family="Times,serif" font-size="14.00">वै(4.1)</text>
</g>
<!-- Node4_1&#45;&gt;Node10_1 -->
<g id="edge4" class="edge">
<title>Node4_1&#45;&gt;Node10_1</title>
<path fill="none" stroke="black" d="M379.98,-211.3C375.07,-213.78 369.97,-216.11 365,-218 266.99,-255.3 235.71,-239.83 133,-261 125.34,-262.58 117.24,-264.54 109.48,-266.57"/>
<polygon fill="black" stroke="black" points="381.92,-214.24 389.11,-206.45 378.64,-208.05 381.92,-214.24"/>
<text text-anchor="middle" x="350.5" y="-231.8" font-family="Times,serif" font-size="14.00">सम्बन्धः</text>
</g>
<!-- Node6_1 -->
<g id="node9" class="node">
<title>Node6_1</title>
<ellipse fill="#ff99ff" stroke="#ff99ff" cx="309" cy="-105" rx="38.99" ry="18"/>
<text text-anchor="middle" x="309" y="-101.3" font-family="Times,serif" font-size="14.00">वा(6.1)</text>
</g>
<!-- Node6_1&#45;&gt;Node7_1 -->
<g id="edge6" class="edge">
<title>Node6_1&#45;&gt;Node7_1</title>
<path fill="none" stroke="black" d="M282.22,-127.48C263.62,-142.39 239.27,-161.91 222.5,-175.36"/>
<polygon fill="black" stroke="black" points="284.44,-130.18 290.05,-121.2 280.06,-124.72 284.44,-130.18"/>
<text text-anchor="middle" x="298.5" y="-144.8" font-family="Times,serif" font-size="14.00">अन्यतर_द्योतकः</text>
</g>
<!-- Node8_1 -->
<g id="node10" class="node">
<title>Node8_1</title>
<ellipse fill="#ff99ff" stroke="#ff99ff" cx="405" cy="-105" rx="38.99" ry="18"/>
<text text-anchor="middle" x="405" y="-101.3" font-family="Times,serif" font-size="14.00">वा(8.1)</text>
</g>
<!-- Node8_1&#45;&gt;Node7_1 -->
<g id="edge8" class="edge">
<title>Node8_1&#45;&gt;Node7_1</title>
<path fill="none" stroke="black" d="M381.78,-128.4C369.91,-138.52 354.69,-149.62 339,-156 305.81,-169.5 293.51,-156.37 259,-166 249.15,-168.75 238.82,-172.95 229.74,-177.13"/>
<polygon fill="black" stroke="black" points="384.27,-130.87 389.43,-121.62 379.62,-125.64 384.27,-130.87"/>
<text text-anchor="middle" x="412.5" y="-144.8" font-family="Times,serif" font-size="14.00">सुप्_अन्यतर_द्योतकः</text>
</g>
<!-- Node9_1 -->
<g id="node11" class="node">
<title>Node9_1</title>
<ellipse fill="#ff99ff" stroke="#ff99ff" cx="405" cy="-18" rx="46.29" ry="18"/>
<text text-anchor="middle" x="405" y="-14.3" font-family="Times,serif" font-size="14.00">अपि(9.1)</text>
</g>
<!-- Node9_1&#45;&gt;Node8_1 -->
<g id="edge9" class="edge">
<title>Node9_1&#45;&gt;Node8_1</title>
<path fill="none" stroke="black" d="M405,-46.27C405,-59.58 405,-75.19 405,-86.82"/>
<polygon fill="black" stroke="black" points="408.5,-46.2 405,-36.2 401.5,-46.2 408.5,-46.2"/>
<text text-anchor="middle" x="423.5" y="-57.8" font-family="Times,serif" font-size="14.00">सम्बन्धः</text>
</g>
<!-- Node13_1 -->
<g id="node13" class="node">
<title>Node13_1</title>
<ellipse fill="#ff99ff" stroke="#ff99ff" cx="312" cy="-453" rx="56.59" ry="18"/>
<text text-anchor="middle" x="312" y="-449.3" font-family="Times,serif" font-size="14.00">(तर्हि)(13.1)</text>
</g>
<!-- Node12_1&#45;&gt;Node13_1 -->
<g id="edge12" class="edge">
<title>Node12_1&#45;&gt;Node13_1</title>
<path fill="none" stroke="red" stroke-dasharray="5,2" d="M187.24,-453C205.8,-453 226.34,-453 245.31,-453"/>
<polygon fill="red" stroke="red" points="187.06,-449.5 177.06,-453 187.06,-456.5 187.06,-449.5"/>
<polygon fill="red" stroke="red" points="245.36,-456.5 255.36,-453 245.36,-449.5 245.36,-456.5"/>
<text text-anchor="middle" x="216.25" y="-438.8" font-family="Times,serif" font-size="14.00">नित्यसम्बन्धः</text>
</g>
<!-- Node22_1 -->
<g id="node14" class="node">
<title>Node22_1</title>
<ellipse fill="#ff1975" stroke="#ff1975" cx="453" cy="-540" rx="53.89" ry="18"/>
<text text-anchor="middle" x="453" y="-536.3" font-family="Times,serif" font-size="14.00">अर्हथ(22.1)</text>
</g>
<!-- Node13_1&#45;&gt;Node22_1 -->
<g id="edge13" class="edge">
<title>Node13_1&#45;&gt;Node22_1</title>
<path fill="none" stroke="black" d="M346.09,-474.55C371.36,-489.78 405.22,-510.2 428.01,-523.94"/>
<polygon fill="black" stroke="black" points="347.58,-471.36 337.21,-469.2 343.97,-477.36 347.58,-471.36"/>
<text text-anchor="middle" x="410" y="-492.8" font-family="Times,serif" font-size="14.00">अनुयोगी</text>
</g>
<!-- Node14_1 -->
<g id="node15" class="node">
<title>Node14_1</title>
<ellipse fill="#00bfff" stroke="#00bfff" cx="828" cy="-453" rx="48.19" ry="18"/>
<text text-anchor="middle" x="828" y="-449.3" font-family="Times,serif" font-size="14.00">तत्(14.1)</text>
</g>
<!-- Node18_1 -->
<g id="node16" class="node">
<title>Node18_1</title>
<ellipse fill="#00bfff" stroke="#00bfff" cx="773" cy="-540" rx="61.99" ry="18"/>
<text text-anchor="middle" x="773" y="-536.3" font-family="Times,serif" font-size="14.00">कर्तव्यम्(18.1)</text>
</g>
<!-- Node14_1&#45;&gt;Node18_1 -->
<g id="edge14" class="edge">
<title>Node14_1&#45;&gt;Node18_1</title>
<path fill="none" stroke="black" d="M811.56,-479.4C802.6,-493.26 791.75,-510.03 783.84,-522.24"/>
<polygon fill="black" stroke="black" points="814.64,-481.09 817.13,-470.79 808.76,-477.29 814.64,-481.09"/>
<text text-anchor="middle" x="812" y="-492.8" font-family="Times,serif" font-size="14.00">कर्म</text>
</g>
<!-- Node15_1 -->
<g id="node17" class="node">
<title>Node15_1</title>
<ellipse fill="#87ceeb" stroke="#87ceeb" cx="943" cy="-366" rx="44.69" ry="18"/>
<text text-anchor="middle" x="943" y="-362.3" font-family="Times,serif" font-size="14.00">वः(15.1)</text>
</g>
<!-- Node16_1 -->
<g id="node18" class="node">
<title>Node16_1</title>
<ellipse fill="#c6e2eb" stroke="#c6e2eb" cx="943" cy="-453" rx="49.29" ry="18"/>
<text text-anchor="middle" x="943" y="-449.3" font-family="Times,serif" font-size="14.00">हृदि(16.1)</text>
</g>
<!-- Node15_1&#45;&gt;Node16_1 -->
<g id="edge15" class="edge">
<title>Node15_1&#45;&gt;Node16_1</title>
<path fill="none" stroke="black" d="M943,-394.27C943,-407.58 943,-423.19 943,-434.82"/>
<polygon fill="black" stroke="black" points="946.5,-394.2 943,-384.2 939.5,-394.2 946.5,-394.2"/>
<text text-anchor="middle" x="970.5" y="-405.8" font-family="Times,serif" font-size="14.00">षष्ठीसम्बन्धः</text>
</g>
<!-- Node16_1&#45;&gt;Node18_1 -->
<g id="edge16" class="edge">
<title>Node16_1&#45;&gt;Node18_1</title>
<path fill="none" stroke="black" d="M905.77,-472.62C874.86,-488.07 831.48,-509.76 802.83,-524.08"/>
<polygon fill="black" stroke="black" points="907.55,-475.64 914.93,-468.04 904.42,-469.38 907.55,-475.64"/>
<text text-anchor="middle" x="895.5" y="-492.8" font-family="Times,serif" font-size="14.00">अधिकरणम्</text>
</g>
<!-- Node17_1 -->
<g id="node19" class="node">
<title>Node17_1</title>
<ellipse fill="#ff99ff" stroke="#ff99ff" cx="719" cy="-453" rx="42.79" ry="18"/>
<text text-anchor="middle" x="719" y="-449.3" font-family="Times,serif" font-size="14.00">न(17.1)</text>
</g>
<!-- Node17_1&#45;&gt;Node18_1 -->
<g id="edge17" class="edge">
<title>Node17_1&#45;&gt;Node18_1</title>
<path fill="none" stroke="black" d="M735.14,-479.4C743.94,-493.26 754.59,-510.03 762.35,-522.24"/>
<polygon fill="black" stroke="black" points="737.99,-477.36 729.67,-470.79 732.08,-481.11 737.99,-477.36"/>
<text text-anchor="middle" x="768.5" y="-492.8" font-family="Times,serif" font-size="14.00">प्रतिषेधः</text>
</g>
<!-- Node19_1 -->
<g id="node20" class="node">
<title>Node19_1</title>
<ellipse fill="#00bfff" stroke="#00bfff" cx="598" cy="-453" rx="59.59" ry="18"/>
<text text-anchor="middle" x="598" y="-449.3" font-family="Times,serif" font-size="14.00">(यूयम्)(19.1)</text>
</g>
<!-- Node19_1&#45;&gt;Node22_1 -->
<g id="edge18" class="edge">
<title>Node19_1&#45;&gt;Node22_1</title>
<path fill="none" stroke="black" d="M568.47,-476.1C555.71,-485.22 540.43,-495.6 526,-504 512.76,-511.71 497.56,-519.19 484.47,-525.25"/>
<polygon fill="black" stroke="black" points="570.81,-478.73 576.85,-470.03 566.7,-473.06 570.81,-478.73"/>
<text text-anchor="middle" x="559" y="-492.8" font-family="Times,serif" font-size="14.00">कर्ता</text>
</g>
<!-- Node19_1&#45;&gt;Node18_1 -->
<g id="edge19" class="edge">
<title>Node19_1&#45;&gt;Node18_1</title>
<path fill="none" stroke="black" stroke-dasharray="1,5" d="M637.14,-473.01C669.06,-488.51 713.48,-510.09 742.72,-524.29"/>
<polygon fill="black" stroke="black" points="638.61,-469.83 628.08,-468.61 635.55,-476.13 638.61,-469.83"/>
<text text-anchor="middle" x="706" y="-492.8" font-family="Times,serif" font-size="14.00">कर्ता</text>
</g>
<!-- Node20_1 -->
<g id="node21" class="node">
<title>Node20_1</title>
<ellipse fill="#93db70" stroke="#93db70" cx="453" cy="-366" rx="50.09" ry="18"/>
<text text-anchor="middle" x="453" y="-362.3" font-family="Times,serif" font-size="14.00">माम्(20.1)</text>
</g>
<!-- Node21_1 -->
<g id="node22" class="node">
<title>Node21_1</title>
<ellipse fill="#ff99ff" stroke="#ff99ff" cx="453" cy="-453" rx="66.89" ry="18"/>
<text text-anchor="middle" x="453" y="-449.3" font-family="Times,serif" font-size="14.00">अनुज्ञातुम्(21.1)</text>
</g>
<!-- Node20_1&#45;&gt;Node21_1 -->
<g id="edge20" class="edge">
<title>Node20_1&#45;&gt;Node21_1</title>
<path fill="none" stroke="black" d="M453,-394.27C453,-407.58 453,-423.19 453,-434.82"/>
<polygon fill="black" stroke="black" points="456.5,-394.2 453,-384.2 449.5,-394.2 456.5,-394.2"/>
<text text-anchor="middle" x="462" y="-405.8" font-family="Times,serif" font-size="14.00">कर्म</text>
</g>
<!-- Node21_1&#45;&gt;Node22_1 -->
<g id="edge21" class="edge">
<title>Node21_1&#45;&gt;Node22_1</title>
<path fill="none" stroke="black" d="M453,-481.27C453,-494.58 453,-510.19 453,-521.82"/>
<polygon fill="black" stroke="black" points="456.5,-481.2 453,-471.2 449.5,-481.2 456.5,-481.2"/>
<text text-anchor="middle" x="487.5" y="-492.8" font-family="Times,serif" font-size="14.00">सहायक_क्रिया</text>
</g>
</g>
</svg>
