<?xml version="1.0" encoding="UTF-8" standalone="no"?>
<!DOCTYPE svg PUBLIC "-//W3C//DTD SVG 1.1//EN"
 "http://www.w3.org/Graphics/SVG/1.1/DTD/svg11.dtd">
<!-- Generated by graphviz version 2.43.0 (0)
 -->
<!-- Title: G Pages: 1 -->
<svg width="597pt" height="392pt"
 viewBox="0.00 0.00 596.70 392.00" xmlns="http://www.w3.org/2000/svg" xmlns:xlink="http://www.w3.org/1999/xlink">
<g id="graph0" class="graph" transform="scale(1 1) rotate(0) translate(4 388)">
<title>G</title>
<polygon fill="#fffacd" stroke="transparent" points="-4,4 -4,-388 592.7,-388 592.7,4 -4,4"/>
<g id="clust1" class="cluster">
<title>cluster_1</title>
<polygon fill="#fffacd" stroke="black" points="8,-166 8,-305 132,-305 132,-166 8,-166"/>
</g>
<g id="clust2" class="cluster">
<title>cluster_2</title>
<polygon fill="#fffacd" stroke="black" points="244,-166 244,-305 366,-305 366,-166 244,-166"/>
</g>
<g id="clust3" class="cluster">
<title>cluster_3</title>
<polygon fill="#fffacd" stroke="black" points="387,-79 387,-218 505,-218 505,-79 387,-79"/>
</g>
<g id="clust4" class="cluster">
<title>cluster_4</title>
<polygon fill="#fffacd" stroke="black" points="374,-253 374,-305 518,-305 518,-253 374,-253"/>
</g>
<!-- Node1_1 -->
<g id="node1" class="node">
<title>Node1_1</title>
<ellipse fill="#c6e2eb" stroke="#c6e2eb" cx="70" cy="-192" rx="48.19" ry="18"/>
<text text-anchor="middle" x="70" y="-188.3" font-family="Times,serif" font-size="14.00">समेषु(1.1)</text>
</g>
<!-- Node2_1 -->
<g id="node2" class="node">
<title>Node2_1</title>
<ellipse fill="#c6e2eb" stroke="#c6e2eb" cx="70" cy="-279" rx="53.89" ry="18"/>
<text text-anchor="middle" x="70" y="-275.3" font-family="Times,serif" font-size="14.00">विषमेषु(2.1)</text>
</g>
<!-- Node1_1&#45;&gt;Node2_1 -->
<g id="edge1" class="edge">
<title>Node1_1&#45;&gt;Node2_1</title>
<path fill="none" stroke="black" d="M70,-220.27C70,-233.58 70,-249.19 70,-260.82"/>
<polygon fill="black" stroke="black" points="73.5,-220.2 70,-210.2 66.5,-220.2 73.5,-220.2"/>
<text text-anchor="middle" x="92.5" y="-231.8" font-family="Times,serif" font-size="14.00">समुच्चितः</text>
</g>
<!-- Node6_1 -->
<g id="node8" class="node">
<title>Node6_1</title>
<ellipse fill="#00bfff" stroke="#00bfff" cx="305" cy="-366" rx="51.99" ry="18"/>
<text text-anchor="middle" x="305" y="-362.3" font-family="Times,serif" font-size="14.00">द्रष्टव्यः(6.1)</text>
</g>
<!-- Node2_1&#45;&gt;Node6_1 -->
<g id="edge2" class="edge">
<title>Node2_1&#45;&gt;Node6_1</title>
<path fill="none" stroke="black" d="M114.74,-296.18C160.02,-312.56 229.07,-337.53 270.34,-352.47"/>
<polygon fill="black" stroke="black" points="115.78,-292.84 105.18,-292.73 113.4,-299.42 115.78,-292.84"/>
<text text-anchor="middle" x="228.5" y="-318.8" font-family="Times,serif" font-size="14.00">अधिकरणम्</text>
</g>
<!-- Node4_1 -->
<g id="node3" class="node">
<title>Node4_1</title>
<ellipse fill="#40e0d0" stroke="#40e0d0" cx="305" cy="-192" rx="53.09" ry="18"/>
<text text-anchor="middle" x="305" y="-188.3" font-family="Times,serif" font-size="14.00">भवद्भिः(4.1)</text>
</g>
<!-- Node5_1 -->
<g id="node4" class="node">
<title>Node5_1</title>
<ellipse fill="#40e0d0" stroke="#40e0d0" cx="305" cy="-279" rx="44.69" ry="18"/>
<text text-anchor="middle" x="305" y="-275.3" font-family="Times,serif" font-size="14.00">सर्वैः(5.1)</text>
</g>
<!-- Node4_1&#45;&gt;Node5_1 -->
<g id="edge4" class="edge">
<title>Node4_1&#45;&gt;Node5_1</title>
<path fill="none" stroke="black" d="M305,-220.27C305,-233.58 305,-249.19 305,-260.82"/>
<polygon fill="black" stroke="black" points="308.5,-220.2 305,-210.2 301.5,-220.2 308.5,-220.2"/>
<text text-anchor="middle" x="327.5" y="-231.8" font-family="Times,serif" font-size="14.00">विशेषणम्</text>
</g>
<!-- Node5_1&#45;&gt;Node6_1 -->
<g id="edge5" class="edge">
<title>Node5_1&#45;&gt;Node6_1</title>
<path fill="none" stroke="black" d="M305,-307.27C305,-320.58 305,-336.19 305,-347.82"/>
<polygon fill="black" stroke="black" points="308.5,-307.2 305,-297.2 301.5,-307.2 308.5,-307.2"/>
<text text-anchor="middle" x="316" y="-318.8" font-family="Times,serif" font-size="14.00">कर्ता</text>
</g>
<!-- Node7_2 -->
<g id="node5" class="node">
<title>Node7_2</title>
<ellipse fill="#00bfff" stroke="#00bfff" cx="446" cy="-105" rx="44.69" ry="18"/>
<text text-anchor="middle" x="446" y="-101.3" font-family="Times,serif" font-size="14.00">पुत्रः(7.2)</text>
</g>
<!-- Node9_1 -->
<g id="node6" class="node">
<title>Node9_1</title>
<ellipse fill="#00bfff" stroke="#00bfff" cx="446" cy="-192" rx="51.19" ry="18"/>
<text text-anchor="middle" x="446" y="-188.3" font-family="Times,serif" font-size="14.00">कौरवः(9.1)</text>
</g>
<!-- Node7_2&#45;&gt;Node9_1 -->
<g id="edge7" class="edge">
<title>Node7_2&#45;&gt;Node9_1</title>
<path fill="none" stroke="black" d="M446,-133.27C446,-146.58 446,-162.19 446,-173.82"/>
<polygon fill="black" stroke="black" points="449.5,-133.2 446,-123.2 442.5,-133.2 449.5,-133.2"/>
<text text-anchor="middle" x="468.5" y="-144.8" font-family="Times,serif" font-size="14.00">समुच्चितः</text>
</g>
<!-- Node10_1 -->
<g id="node7" class="node">
<title>Node10_1</title>
<ellipse fill="#00bfff" stroke="#00bfff" cx="446" cy="-279" rx="63.89" ry="18"/>
<text text-anchor="middle" x="446" y="-275.3" font-family="Times,serif" font-size="14.00">युधिष्ठिरः(10.1)</text>
</g>
<!-- Node9_1&#45;&gt;Node10_1 -->
<g id="edge9" class="edge">
<title>Node9_1&#45;&gt;Node10_1</title>
<path fill="none" stroke="black" d="M446,-220.27C446,-233.58 446,-249.19 446,-260.82"/>
<polygon fill="black" stroke="black" points="449.5,-220.2 446,-210.2 442.5,-220.2 449.5,-220.2"/>
<text text-anchor="middle" x="468.5" y="-231.8" font-family="Times,serif" font-size="14.00">विशेषणम्</text>
</g>
<!-- Node10_1&#45;&gt;Node6_1 -->
<g id="edge10" class="edge">
<title>Node10_1&#45;&gt;Node6_1</title>
<path fill="none" stroke="black" d="M411.57,-300.76C386.25,-316.02 352.44,-336.4 329.75,-350.08"/>
<polygon fill="black" stroke="black" points="413.38,-303.75 420.14,-295.59 409.77,-297.76 413.38,-303.75"/>
<text text-anchor="middle" x="392" y="-318.8" font-family="Times,serif" font-size="14.00">कर्म</text>
</g>
<!-- Node3_1 -->
<g id="node9" class="node">
<title>Node3_1</title>
<ellipse fill="#ff99ff" stroke="#ff99ff" cx="178" cy="-192" rx="37.89" ry="18"/>
<text text-anchor="middle" x="178" y="-188.3" font-family="Times,serif" font-size="14.00">च(3.1)</text>
</g>
<!-- Node3_1&#45;&gt;Node2_1 -->
<g id="edge3" class="edge">
<title>Node3_1&#45;&gt;Node2_1</title>
<path fill="none" stroke="black" d="M152.92,-215.05C142.57,-223.93 130.37,-234.15 119,-243 110.59,-249.55 101.1,-256.44 92.73,-262.35"/>
<polygon fill="black" stroke="black" points="155.49,-217.45 160.76,-208.26 150.91,-212.16 155.49,-217.45"/>
<text text-anchor="middle" x="175" y="-231.8" font-family="Times,serif" font-size="14.00">समुच्चय_द्योतकः</text>
</g>
<!-- Node7_1 -->
<g id="node10" class="node">
<title>Node7_1</title>
<ellipse fill="#ffff00" stroke="#ffff00" cx="446" cy="-18" rx="51.19" ry="18"/>
<text text-anchor="middle" x="446" y="-14.3" font-family="Times,serif" font-size="14.00">कुन्ती&#45;(7.1)</text>
</g>
<!-- Node7_1&#45;&gt;Node7_2 -->
<g id="edge6" class="edge">
<title>Node7_1&#45;&gt;Node7_2</title>
<path fill="none" stroke="black" d="M446,-46.27C446,-59.58 446,-75.19 446,-86.82"/>
<polygon fill="black" stroke="black" points="449.5,-46.2 446,-36.2 442.5,-46.2 449.5,-46.2"/>
<text text-anchor="middle" x="463" y="-57.8" font-family="Times,serif" font-size="14.00">समासः</text>
</g>
<!-- Node8_1 -->
<g id="node11" class="node">
<title>Node8_1</title>
<ellipse fill="#ff99ff" stroke="#ff99ff" cx="551" cy="-105" rx="37.89" ry="18"/>
<text text-anchor="middle" x="551" y="-101.3" font-family="Times,serif" font-size="14.00">च(8.1)</text>
</g>
<!-- Node8_1&#45;&gt;Node9_1 -->
<g id="edge8" class="edge">
<title>Node8_1&#45;&gt;Node9_1</title>
<path fill="none" stroke="black" d="M527.33,-128.17C517.53,-137.07 505.92,-147.26 495,-156 486.67,-162.66 477.2,-169.57 468.82,-175.47"/>
<polygon fill="black" stroke="black" points="529.74,-130.7 534.75,-121.36 525.01,-125.54 529.74,-130.7"/>
<text text-anchor="middle" x="550" y="-144.8" font-family="Times,serif" font-size="14.00">समुच्चय_द्योतकः</text>
</g>
</g>
</svg>
