<?xml version="1.0" encoding="UTF-8" standalone="no"?>
<!DOCTYPE svg PUBLIC "-//W3C//DTD SVG 1.1//EN"
 "http://www.w3.org/Graphics/SVG/1.1/DTD/svg11.dtd">
<!-- Generated by graphviz version 2.43.0 (0)
 -->
<!-- Title: G Pages: 1 -->
<svg width="707pt" height="495pt"
 viewBox="0.00 0.00 706.60 495.00" xmlns="http://www.w3.org/2000/svg" xmlns:xlink="http://www.w3.org/1999/xlink">
<g id="graph0" class="graph" transform="scale(1 1) rotate(0) translate(4 491)">
<title>G</title>
<polygon fill="#fffacd" stroke="transparent" points="-4,4 -4,-491 702.6,-491 702.6,4 -4,4"/>
<g id="clust1" class="cluster">
<title>cluster_1</title>
<polygon fill="#fffacd" stroke="black" points="563.6,-8 563.6,-147 677.6,-147 677.6,-8 563.6,-8"/>
</g>
<g id="clust2" class="cluster">
<title>cluster_2</title>
<polygon fill="#fffacd" stroke="black" points="265.6,-182 265.6,-321 690.6,-321 690.6,-182 265.6,-182"/>
</g>
<!-- Node2_1 -->
<g id="node1" class="node">
<title>Node2_1</title>
<ellipse fill="#87ceeb" stroke="#87ceeb" cx="620.6" cy="-34" rx="46.29" ry="18"/>
<text text-anchor="middle" x="620.6" y="-30.3" font-family="Times,serif" font-size="14.00">तस्य(2.1)</text>
</g>
<!-- Node3_1 -->
<g id="node2" class="node">
<title>Node3_1</title>
<ellipse fill="#87ceeb" stroke="#87ceeb" cx="620.6" cy="-121" rx="48.99" ry="18"/>
<text text-anchor="middle" x="620.6" y="-117.3" font-family="Times,serif" font-size="14.00">दुर्बुद्धेः(3.1)</text>
</g>
<!-- Node2_1&#45;&gt;Node3_1 -->
<g id="edge2" class="edge">
<title>Node2_1&#45;&gt;Node3_1</title>
<path fill="none" stroke="black" d="M620.6,-62.27C620.6,-75.58 620.6,-91.19 620.6,-102.82"/>
<polygon fill="black" stroke="black" points="624.1,-62.2 620.6,-52.2 617.1,-62.2 624.1,-62.2"/>
<text text-anchor="middle" x="643.1" y="-73.8" font-family="Times,serif" font-size="14.00">विशेषणम्</text>
</g>
<!-- Node4_1 -->
<g id="node3" class="node">
<title>Node4_1</title>
<ellipse fill="#b4ffb4" stroke="#b4ffb4" cx="620.6" cy="-208" rx="61.99" ry="18"/>
<text text-anchor="middle" x="620.6" y="-204.3" font-family="Times,serif" font-size="14.00">अपराधात्(4.1)</text>
</g>
<!-- Node3_1&#45;&gt;Node4_1 -->
<g id="edge3" class="edge">
<title>Node3_1&#45;&gt;Node4_1</title>
<path fill="none" stroke="black" d="M620.6,-149.27C620.6,-162.58 620.6,-178.19 620.6,-189.82"/>
<polygon fill="black" stroke="black" points="624.1,-149.2 620.6,-139.2 617.1,-149.2 624.1,-149.2"/>
<text text-anchor="middle" x="648.1" y="-160.8" font-family="Times,serif" font-size="14.00">षष्ठीसम्बन्धः</text>
</g>
<!-- Node8_1 -->
<g id="node4" class="node">
<title>Node8_1</title>
<ellipse fill="#b4ffb4" stroke="#b4ffb4" cx="331.6" cy="-295" rx="55.79" ry="18"/>
<text text-anchor="middle" x="331.6" y="-291.3" font-family="Times,serif" font-size="14.00">अनयात्(8.1)</text>
</g>
<!-- Node4_1&#45;&gt;Node8_1 -->
<g id="edge4" class="edge">
<title>Node4_1&#45;&gt;Node8_1</title>
<path fill="none" stroke="black" d="M571.08,-225.01C539.55,-235.07 497.78,-248.15 460.6,-259 431.64,-267.45 398.82,-276.34 373.54,-283.05"/>
<polygon fill="black" stroke="black" points="572.48,-228.23 580.94,-221.85 570.35,-221.56 572.48,-228.23"/>
<text text-anchor="middle" x="531.1" y="-247.8" font-family="Times,serif" font-size="14.00">समुच्चितः</text>
</g>
<!-- Node11_1 -->
<g id="node10" class="node">
<title>Node11_1</title>
<ellipse fill="#00bfff" stroke="#00bfff" cx="192.6" cy="-382" rx="56.59" ry="18"/>
<text text-anchor="middle" x="192.6" y="-378.3" font-family="Times,serif" font-size="14.00">विमर्दः(11.1)</text>
</g>
<!-- Node8_1&#45;&gt;Node11_1 -->
<g id="edge8" class="edge">
<title>Node8_1&#45;&gt;Node11_1</title>
<path fill="none" stroke="black" d="M298.61,-316.86C284.22,-325.89 267.12,-336.55 251.6,-346 240.81,-352.57 228.84,-359.7 218.52,-365.8"/>
<polygon fill="black" stroke="black" points="300.58,-319.75 307.18,-311.47 296.85,-313.83 300.58,-319.75"/>
<text text-anchor="middle" x="285.1" y="-334.8" font-family="Times,serif" font-size="14.00">हेतुः</text>
</g>
<!-- Node5_1 -->
<g id="node5" class="node">
<title>Node5_1</title>
<ellipse fill="#b4ffb4" stroke="#b4ffb4" cx="474.6" cy="-208" rx="66.09" ry="18"/>
<text text-anchor="middle" x="474.6" y="-204.3" font-family="Times,serif" font-size="14.00">अभिमानात्(5.1)</text>
</g>
<!-- Node5_1&#45;&gt;Node8_1 -->
<g id="edge5" class="edge">
<title>Node5_1&#45;&gt;Node8_1</title>
<path fill="none" stroke="black" d="M439.73,-229.72C414.23,-244.88 380.2,-265.11 357.18,-278.79"/>
<polygon fill="black" stroke="black" points="441.56,-232.71 448.37,-224.59 437.98,-226.69 441.56,-232.71"/>
<text text-anchor="middle" x="434.1" y="-247.8" font-family="Times,serif" font-size="14.00">समुच्चितः</text>
</g>
<!-- Node7_1 -->
<g id="node6" class="node">
<title>Node7_1</title>
<ellipse fill="#b4ffb4" stroke="#b4ffb4" cx="331.6" cy="-208" rx="58.49" ry="18"/>
<text text-anchor="middle" x="331.6" y="-204.3" font-family="Times,serif" font-size="14.00">मत्कृतात्(7.1)</text>
</g>
<!-- Node7_1&#45;&gt;Node8_1 -->
<g id="edge7" class="edge">
<title>Node7_1&#45;&gt;Node8_1</title>
<path fill="none" stroke="black" d="M331.6,-236.27C331.6,-249.58 331.6,-265.19 331.6,-276.82"/>
<polygon fill="black" stroke="black" points="335.1,-236.2 331.6,-226.2 328.1,-236.2 335.1,-236.2"/>
<text text-anchor="middle" x="354.1" y="-247.8" font-family="Times,serif" font-size="14.00">विशेषणम्</text>
</g>
<!-- Node1_1 -->
<g id="node7" class="node">
<title>Node1_1</title>
<ellipse fill="#ff99ff" stroke="#ff99ff" cx="311.6" cy="-382" rx="44.39" ry="18"/>
<text text-anchor="middle" x="311.6" y="-378.3" font-family="Times,serif" font-size="14.00">अथ(1.1)</text>
</g>
<!-- Node12_1 -->
<g id="node8" class="node">
<title>Node12_1</title>
<ellipse fill="#ff1975" stroke="#ff1975" cx="251.6" cy="-469" rx="59.59" ry="18"/>
<text text-anchor="middle" x="251.6" y="-465.3" font-family="Times,serif" font-size="14.00">आसीत्(12.1)</text>
</g>
<!-- Node1_1&#45;&gt;Node12_1 -->
<g id="edge1" class="edge">
<title>Node1_1&#45;&gt;Node12_1</title>
<path fill="none" stroke="black" d="M294.23,-407.6C284.39,-421.54 272.32,-438.64 263.54,-451.08"/>
<polygon fill="black" stroke="black" points="297.12,-409.58 300.03,-399.39 291.4,-405.54 297.12,-409.58"/>
<text text-anchor="middle" x="303.1" y="-421.8" font-family="Times,serif" font-size="14.00">सम्बन्धः</text>
</g>
<!-- Node6_1 -->
<g id="node9" class="node">
<title>Node6_1</title>
<ellipse fill="#ff99ff" stroke="#ff99ff" cx="210.6" cy="-208" rx="44.39" ry="18"/>
<text text-anchor="middle" x="210.6" y="-204.3" font-family="Times,serif" font-size="14.00">(च)(6.1)</text>
</g>
<!-- Node6_1&#45;&gt;Node8_1 -->
<g id="edge6" class="edge">
<title>Node6_1&#45;&gt;Node8_1</title>
<path fill="none" stroke="black" d="M227.14,-233.73C233.93,-242.55 242.37,-252.01 251.6,-259 264.16,-268.52 279.72,-276.08 293.77,-281.7"/>
<polygon fill="black" stroke="black" points="229.89,-231.57 221.15,-225.58 224.25,-235.72 229.89,-231.57"/>
<text text-anchor="middle" x="289.6" y="-247.8" font-family="Times,serif" font-size="14.00">समुच्चय_द्योतकः</text>
</g>
<!-- Node11_1&#45;&gt;Node12_1 -->
<g id="edge12" class="edge">
<title>Node11_1&#45;&gt;Node12_1</title>
<path fill="none" stroke="black" d="M210.23,-408.4C219.85,-422.26 231.48,-439.03 239.96,-451.24"/>
<polygon fill="black" stroke="black" points="212.83,-406.01 204.25,-399.79 207.08,-410 212.83,-406.01"/>
<text text-anchor="middle" x="237.6" y="-421.8" font-family="Times,serif" font-size="14.00">कर्ता</text>
</g>
<!-- Node9_1 -->
<g id="node11" class="node">
<title>Node9_1</title>
<ellipse fill="#87ceeb" stroke="#87ceeb" cx="192.6" cy="-295" rx="64.99" ry="18"/>
<text text-anchor="middle" x="192.6" y="-291.3" font-family="Times,serif" font-size="14.00">महीक्षिताम्(9.1)</text>
</g>
<!-- Node9_1&#45;&gt;Node11_1 -->
<g id="edge9" class="edge">
<title>Node9_1&#45;&gt;Node11_1</title>
<path fill="none" stroke="black" d="M192.6,-323.27C192.6,-336.58 192.6,-352.19 192.6,-363.82"/>
<polygon fill="black" stroke="black" points="196.1,-323.2 192.6,-313.2 189.1,-323.2 196.1,-323.2"/>
<text text-anchor="middle" x="220.1" y="-334.8" font-family="Times,serif" font-size="14.00">षष्ठीसम्बन्धः</text>
</g>
<!-- Node10_1 -->
<g id="node12" class="node">
<title>Node10_1</title>
<ellipse fill="#ffff00" stroke="#ffff00" cx="54.6" cy="-208" rx="46.59" ry="18"/>
<text text-anchor="middle" x="54.6" y="-204.3" font-family="Times,serif" font-size="14.00">सु&#45;(10.1)</text>
</g>
<!-- Node10_2 -->
<g id="node13" class="node">
<title>Node10_2</title>
<ellipse fill="#00bfff" stroke="#00bfff" cx="54.6" cy="-295" rx="54.69" ry="18"/>
<text text-anchor="middle" x="54.6" y="-291.3" font-family="Times,serif" font-size="14.00">महान्(10.2)</text>
</g>
<!-- Node10_1&#45;&gt;Node10_2 -->
<g id="edge10" class="edge">
<title>Node10_1&#45;&gt;Node10_2</title>
<path fill="none" stroke="black" d="M54.6,-236.27C54.6,-249.58 54.6,-265.19 54.6,-276.82"/>
<polygon fill="black" stroke="black" points="58.1,-236.2 54.6,-226.2 51.1,-236.2 58.1,-236.2"/>
<text text-anchor="middle" x="71.6" y="-247.8" font-family="Times,serif" font-size="14.00">समासः</text>
</g>
<!-- Node10_2&#45;&gt;Node11_1 -->
<g id="edge11" class="edge">
<title>Node10_2&#45;&gt;Node11_1</title>
<path fill="none" stroke="black" d="M87.9,-316.52C112.47,-331.65 145.36,-351.91 167.67,-365.65"/>
<polygon fill="black" stroke="black" points="89.62,-313.46 79.27,-311.2 85.95,-319.42 89.62,-313.46"/>
<text text-anchor="middle" x="157.1" y="-334.8" font-family="Times,serif" font-size="14.00">तीव्रतादर्शी</text>
</g>
</g>
</svg>
