<?xml version="1.0" encoding="UTF-8" standalone="no"?>
<!DOCTYPE svg PUBLIC "-//W3C//DTD SVG 1.1//EN"
 "http://www.w3.org/Graphics/SVG/1.1/DTD/svg11.dtd">
<!-- Generated by graphviz version 2.43.0 (0)
 -->
<!-- Title: G Pages: 1 -->
<svg width="978pt" height="305pt"
 viewBox="0.00 0.00 978.00 305.00" xmlns="http://www.w3.org/2000/svg" xmlns:xlink="http://www.w3.org/1999/xlink">
<g id="graph0" class="graph" transform="scale(1 1) rotate(0) translate(4 301)">
<title>G</title>
<polygon fill="#fffacd" stroke="transparent" points="-4,4 -4,-301 974,-301 974,4 -4,4"/>
<g id="clust1" class="cluster">
<title>cluster_1</title>
<polygon fill="#fffacd" stroke="black" points="527,-79 527,-218 962,-218 962,-79 527,-79"/>
</g>
<g id="clust2" class="cluster">
<title>cluster_2</title>
<polygon fill="#fffacd" stroke="black" points="8,-79 8,-218 124,-218 124,-79 8,-79"/>
</g>
<g id="clust3" class="cluster">
<title>cluster_3</title>
<polygon fill="#fffacd" stroke="black" points="132,-79 132,-218 268,-218 268,-79 132,-79"/>
</g>
<!-- Node2_2 -->
<g id="node1" class="node">
<title>Node2_2</title>
<ellipse fill="#87ceeb" stroke="#87ceeb" cx="897" cy="-105" rx="56.59" ry="18"/>
<text text-anchor="middle" x="897" y="-101.3" font-family="Times,serif" font-size="14.00">बुद्धीनाम्(2.2)</text>
</g>
<!-- Node5_1 -->
<g id="node2" class="node">
<title>Node5_1</title>
<ellipse fill="#87ceeb" stroke="#87ceeb" cx="608" cy="-192" rx="49.29" ry="18"/>
<text text-anchor="middle" x="608" y="-188.3" font-family="Times,serif" font-size="14.00">तेषाम्(5.1)</text>
</g>
<!-- Node2_2&#45;&gt;Node5_1 -->
<g id="edge3" class="edge">
<title>Node2_2&#45;&gt;Node5_1</title>
<path fill="none" stroke="black" d="M850.34,-121.81C819.68,-132.01 778.62,-145.32 742,-156 710.49,-165.19 674.49,-174.53 647.74,-181.25"/>
<polygon fill="black" stroke="black" points="851.54,-125.1 859.91,-118.62 849.32,-118.46 851.54,-125.1"/>
<text text-anchor="middle" x="811.5" y="-144.8" font-family="Times,serif" font-size="14.00">विशेषणम्</text>
</g>
<!-- Node12_1 -->
<g id="node10" class="node">
<title>Node12_1</title>
<ellipse fill="#ff1975" stroke="#ff1975" cx="332" cy="-279" rx="60.39" ry="18"/>
<text text-anchor="middle" x="332" y="-275.3" font-family="Times,serif" font-size="14.00">याचामि(12.1)</text>
</g>
<!-- Node5_1&#45;&gt;Node12_1 -->
<g id="edge6" class="edge">
<title>Node5_1&#45;&gt;Node12_1</title>
<path fill="none" stroke="black" d="M561.87,-207.55C529.92,-217.59 486.41,-231.2 448,-243 423.17,-250.63 395.3,-259.04 373.1,-265.71"/>
<polygon fill="black" stroke="black" points="563.32,-210.76 571.81,-204.42 561.22,-204.08 563.32,-210.76"/>
<text text-anchor="middle" x="517.5" y="-231.8" font-family="Times,serif" font-size="14.00">प्रयोजनम्</text>
</g>
<!-- Node3_1 -->
<g id="node3" class="node">
<title>Node3_1</title>
<ellipse fill="#87ceeb" stroke="#87ceeb" cx="761" cy="-105" rx="61.99" ry="18"/>
<text text-anchor="middle" x="761" y="-101.3" font-family="Times,serif" font-size="14.00">लुब्धानाम्(3.1)</text>
</g>
<!-- Node3_1&#45;&gt;Node5_1 -->
<g id="edge4" class="edge">
<title>Node3_1&#45;&gt;Node5_1</title>
<path fill="none" stroke="black" d="M724.58,-126.23C696.63,-141.76 658.74,-162.81 633.84,-176.64"/>
<polygon fill="black" stroke="black" points="726.6,-129.11 733.65,-121.2 723.21,-122.99 726.6,-129.11"/>
<text text-anchor="middle" x="715.5" y="-144.8" font-family="Times,serif" font-size="14.00">विशेषणम्</text>
</g>
<!-- Node4_1 -->
<g id="node4" class="node">
<title>Node4_1</title>
<ellipse fill="#87ceeb" stroke="#87ceeb" cx="608" cy="-105" rx="73.39" ry="18"/>
<text text-anchor="middle" x="608" y="-101.3" font-family="Times,serif" font-size="14.00">कामचारिणाम्(4.1)</text>
</g>
<!-- Node4_1&#45;&gt;Node5_1 -->
<g id="edge5" class="edge">
<title>Node4_1&#45;&gt;Node5_1</title>
<path fill="none" stroke="black" d="M608,-133.27C608,-146.58 608,-162.19 608,-173.82"/>
<polygon fill="black" stroke="black" points="611.5,-133.2 608,-123.2 604.5,-133.2 611.5,-133.2"/>
<text text-anchor="middle" x="630.5" y="-144.8" font-family="Times,serif" font-size="14.00">विशेषणम्</text>
</g>
<!-- Node8_1 -->
<g id="node5" class="node">
<title>Node8_1</title>
<ellipse fill="#93db70" stroke="#93db70" cx="66" cy="-105" rx="38.99" ry="18"/>
<text text-anchor="middle" x="66" y="-101.3" font-family="Times,serif" font-size="14.00">वः(8.1)</text>
</g>
<!-- Node9_1 -->
<g id="node6" class="node">
<title>Node9_1</title>
<ellipse fill="#93db70" stroke="#93db70" cx="66" cy="-192" rx="50.09" ry="18"/>
<text text-anchor="middle" x="66" y="-188.3" font-family="Times,serif" font-size="14.00">सर्वान्(9.1)</text>
</g>
<!-- Node8_1&#45;&gt;Node9_1 -->
<g id="edge9" class="edge">
<title>Node8_1&#45;&gt;Node9_1</title>
<path fill="none" stroke="black" d="M66,-133.27C66,-146.58 66,-162.19 66,-173.82"/>
<polygon fill="black" stroke="black" points="69.5,-133.2 66,-123.2 62.5,-133.2 69.5,-133.2"/>
<text text-anchor="middle" x="88.5" y="-144.8" font-family="Times,serif" font-size="14.00">विशेषणम्</text>
</g>
<!-- Node9_1&#45;&gt;Node12_1 -->
<g id="edge10" class="edge">
<title>Node9_1&#45;&gt;Node12_1</title>
<path fill="none" stroke="black" d="M106.49,-209.98C113.62,-212.78 120.99,-215.56 128,-218 182.57,-236.98 246.66,-255.17 288.23,-266.45"/>
<polygon fill="black" stroke="black" points="107.58,-206.65 97,-206.19 104.98,-213.15 107.58,-206.65"/>
<text text-anchor="middle" x="225.5" y="-231.8" font-family="Times,serif" font-size="14.00">गौणकर्म</text>
</g>
<!-- Node10_2 -->
<g id="node7" class="node">
<title>Node10_2</title>
<ellipse fill="#00bfff" stroke="#00bfff" cx="200" cy="-105" rx="57.69" ry="18"/>
<text text-anchor="middle" x="200" y="-101.3" font-family="Times,serif" font-size="14.00">सहितः(10.2)</text>
</g>
<!-- Node11_1 -->
<g id="node8" class="node">
<title>Node11_1</title>
<ellipse fill="#00bfff" stroke="#00bfff" cx="200" cy="-192" rx="60.39" ry="18"/>
<text text-anchor="middle" x="200" y="-188.3" font-family="Times,serif" font-size="14.00">(अहम्)(11.1)</text>
</g>
<!-- Node10_2&#45;&gt;Node11_1 -->
<g id="edge12" class="edge">
<title>Node10_2&#45;&gt;Node11_1</title>
<path fill="none" stroke="black" d="M200,-133.27C200,-146.58 200,-162.19 200,-173.82"/>
<polygon fill="black" stroke="black" points="203.5,-133.2 200,-123.2 196.5,-133.2 203.5,-133.2"/>
<text text-anchor="middle" x="222.5" y="-144.8" font-family="Times,serif" font-size="14.00">विशेषणम्</text>
</g>
<!-- Node11_1&#45;&gt;Node12_1 -->
<g id="edge13" class="edge">
<title>Node11_1&#45;&gt;Node12_1</title>
<path fill="none" stroke="black" d="M232.69,-214.05C255.85,-228.96 286.42,-248.65 307.5,-262.22"/>
<polygon fill="black" stroke="black" points="234.51,-211.06 224.21,-208.59 230.72,-216.95 234.51,-211.06"/>
<text text-anchor="middle" x="284" y="-231.8" font-family="Times,serif" font-size="14.00">कर्ता</text>
</g>
<!-- Node1_1 -->
<g id="node9" class="node">
<title>Node1_1</title>
<ellipse fill="#6fffc3" stroke="#6fffc3" cx="332" cy="-192" rx="53.09" ry="18"/>
<text text-anchor="middle" x="332" y="-188.3" font-family="Times,serif" font-size="14.00">अनघाः(1.1)</text>
</g>
<!-- Node1_1&#45;&gt;Node12_1 -->
<g id="edge1" class="edge">
<title>Node1_1&#45;&gt;Node12_1</title>
<path fill="none" stroke="black" d="M332,-220.27C332,-233.58 332,-249.19 332,-260.82"/>
<polygon fill="black" stroke="black" points="335.5,-220.2 332,-210.2 328.5,-220.2 335.5,-220.2"/>
<text text-anchor="middle" x="353" y="-231.8" font-family="Times,serif" font-size="14.00">सम्बोध्यः</text>
</g>
<!-- Node2_1 -->
<g id="node11" class="node">
<title>Node2_1</title>
<ellipse fill="#ffff00" stroke="#ffff00" cx="897" cy="-18" rx="55.79" ry="18"/>
<text text-anchor="middle" x="897" y="-14.3" font-family="Times,serif" font-size="14.00">अस्थिर&#45;(2.1)</text>
</g>
<!-- Node2_1&#45;&gt;Node2_2 -->
<g id="edge2" class="edge">
<title>Node2_1&#45;&gt;Node2_2</title>
<path fill="none" stroke="black" d="M897,-46.27C897,-59.58 897,-75.19 897,-86.82"/>
<polygon fill="black" stroke="black" points="900.5,-46.2 897,-36.2 893.5,-46.2 900.5,-46.2"/>
<text text-anchor="middle" x="914" y="-57.8" font-family="Times,serif" font-size="14.00">समासः</text>
</g>
<!-- Node6_1 -->
<g id="node12" class="node">
<title>Node6_1</title>
<ellipse fill="#ff99ff" stroke="#ff99ff" cx="473" cy="-105" rx="43.59" ry="18"/>
<text text-anchor="middle" x="473" y="-101.3" font-family="Times,serif" font-size="14.00">कृते(6.1)</text>
</g>
<!-- Node6_1&#45;&gt;Node5_1 -->
<g id="edge7" class="edge">
<title>Node6_1&#45;&gt;Node5_1</title>
<path fill="none" stroke="black" d="M492.93,-130.2C501.22,-139.17 511.38,-148.88 522,-156 536.99,-166.06 555.33,-174.02 571.21,-179.78"/>
<polygon fill="black" stroke="black" points="495.42,-127.73 486.16,-122.59 490.19,-132.39 495.42,-127.73"/>
<text text-anchor="middle" x="563" y="-144.8" font-family="Times,serif" font-size="14.00">प्रयोजनम्_द्योतकः</text>
</g>
<!-- Node7_1 -->
<g id="node13" class="node">
<title>Node7_1</title>
<ellipse fill="#93db70" stroke="#93db70" cx="461" cy="-192" rx="57.69" ry="18"/>
<text text-anchor="middle" x="461" y="-188.3" font-family="Times,serif" font-size="14.00">(क्षमाम्)(7.1)</text>
</g>
<!-- Node7_1&#45;&gt;Node12_1 -->
<g id="edge8" class="edge">
<title>Node7_1&#45;&gt;Node12_1</title>
<path fill="none" stroke="black" d="M428.76,-214.25C406.16,-229.13 376.45,-248.71 355.95,-262.22"/>
<polygon fill="black" stroke="black" points="430.91,-217.02 437.34,-208.59 427.06,-211.17 430.91,-217.02"/>
<text text-anchor="middle" x="424" y="-231.8" font-family="Times,serif" font-size="14.00">मुख्यकर्म</text>
</g>
<!-- Node10_1 -->
<g id="node14" class="node">
<title>Node10_1</title>
<ellipse fill="#ffff00" stroke="#ffff00" cx="200" cy="-18" rx="64.19" ry="18"/>
<text text-anchor="middle" x="200" y="-14.3" font-family="Times,serif" font-size="14.00">गान्धारी&#45;(10.1)</text>
</g>
<!-- Node10_1&#45;&gt;Node10_2 -->
<g id="edge11" class="edge">
<title>Node10_1&#45;&gt;Node10_2</title>
<path fill="none" stroke="black" d="M200,-46.27C200,-59.58 200,-75.19 200,-86.82"/>
<polygon fill="black" stroke="black" points="203.5,-46.2 200,-36.2 196.5,-46.2 203.5,-46.2"/>
<text text-anchor="middle" x="217" y="-57.8" font-family="Times,serif" font-size="14.00">समासः</text>
</g>
</g>
</svg>
