<?xml version="1.0" encoding="UTF-8" standalone="no"?>
<!DOCTYPE svg PUBLIC "-//W3C//DTD SVG 1.1//EN"
 "http://www.w3.org/Graphics/SVG/1.1/DTD/svg11.dtd">
<!-- Generated by graphviz version 2.43.0 (0)
 -->
<!-- Title: G Pages: 1 -->
<svg width="591pt" height="392pt"
 viewBox="0.00 0.00 590.65 392.00" xmlns="http://www.w3.org/2000/svg" xmlns:xlink="http://www.w3.org/1999/xlink">
<g id="graph0" class="graph" transform="scale(1 1) rotate(0) translate(4 388)">
<title>G</title>
<polygon fill="#fffacd" stroke="transparent" points="-4,4 -4,-388 586.65,-388 586.65,4 -4,4"/>
<g id="clust1" class="cluster">
<title>cluster_1</title>
<polygon fill="#fffacd" stroke="black" points="8,-166 8,-305 120,-305 120,-166 8,-166"/>
</g>
<!-- Node9_1 -->
<g id="node1" class="node">
<title>Node9_1</title>
<ellipse fill="#93db70" stroke="#93db70" cx="63" cy="-192" rx="47.39" ry="18"/>
<text text-anchor="middle" x="63" y="-188.3" font-family="Times,serif" font-size="14.00">भवत्(9.1)</text>
</g>
<!-- Node7_1 -->
<g id="node2" class="node">
<title>Node7_1</title>
<ellipse fill="#ff99ff" stroke="#ff99ff" cx="64" cy="-279" rx="48.19" ry="18"/>
<text text-anchor="middle" x="64" y="-275.3" font-family="Times,serif" font-size="14.00">चिरम्(7.1)</text>
</g>
<!-- Node9_1&#45;&gt;Node7_1 -->
<g id="edge9" class="edge">
<title>Node9_1&#45;&gt;Node7_1</title>
<path fill="none" stroke="black" d="M63.32,-220.27C63.48,-233.58 63.66,-249.19 63.8,-260.82"/>
<polygon fill="black" stroke="black" points="66.82,-220.16 63.2,-210.2 59.82,-220.24 66.82,-220.16"/>
<text text-anchor="middle" x="86.5" y="-231.8" font-family="Times,serif" font-size="14.00">विशेषणम्</text>
</g>
<!-- Node6_1 -->
<g id="node6" class="node">
<title>Node6_1</title>
<ellipse fill="#ff1975" stroke="#ff1975" cx="198" cy="-366" rx="62.29" ry="18"/>
<text text-anchor="middle" x="198" y="-362.3" font-family="Times,serif" font-size="14.00">भविष्यामः(6.1)</text>
</g>
<!-- Node7_1&#45;&gt;Node6_1 -->
<g id="edge7" class="edge">
<title>Node7_1&#45;&gt;Node6_1</title>
<path fill="none" stroke="black" d="M88.26,-302.61C98.78,-311.77 111.52,-322.03 124,-330 136.34,-337.88 150.73,-345.08 163.52,-350.88"/>
<polygon fill="black" stroke="black" points="90.49,-299.92 80.69,-295.89 85.84,-305.15 90.49,-299.92"/>
<text text-anchor="middle" x="159" y="-318.8" font-family="Times,serif" font-size="14.00">क्रियाविशेषणम्</text>
</g>
<!-- Node1_1 -->
<g id="node3" class="node">
<title>Node1_1</title>
<ellipse fill="#ff1975" stroke="#ff1975" cx="530" cy="-105" rx="52.79" ry="18"/>
<text text-anchor="middle" x="530" y="-101.3" font-family="Times,serif" font-size="14.00">त्यक्ता(1.1)</text>
</g>
<!-- Node4_1 -->
<g id="node4" class="node">
<title>Node4_1</title>
<ellipse fill="#40e0d0" stroke="#40e0d0" cx="530" cy="-18" rx="50.09" ry="18"/>
<text text-anchor="middle" x="530" y="-14.3" font-family="Times,serif" font-size="14.00">भवता(4.1)</text>
</g>
<!-- Node4_1&#45;&gt;Node1_1 -->
<g id="edge3" class="edge">
<title>Node4_1&#45;&gt;Node1_1</title>
<path fill="none" stroke="black" d="M530,-46.27C530,-59.58 530,-75.19 530,-86.82"/>
<polygon fill="black" stroke="black" points="533.5,-46.2 530,-36.2 526.5,-46.2 533.5,-46.2"/>
<text text-anchor="middle" x="541" y="-57.8" font-family="Times,serif" font-size="14.00">कर्ता</text>
</g>
<!-- Node2_1 -->
<g id="node5" class="node">
<title>Node2_1</title>
<ellipse fill="#00bfff" stroke="#00bfff" cx="198" cy="-279" rx="41.69" ry="18"/>
<text text-anchor="middle" x="198" y="-275.3" font-family="Times,serif" font-size="14.00">वयं(2.1)</text>
</g>
<!-- Node2_1&#45;&gt;Node6_1 -->
<g id="edge1" class="edge">
<title>Node2_1&#45;&gt;Node6_1</title>
<path fill="none" stroke="black" d="M198,-307.27C198,-320.58 198,-336.19 198,-347.82"/>
<polygon fill="black" stroke="black" points="201.5,-307.2 198,-297.2 194.5,-307.2 201.5,-307.2"/>
<text text-anchor="middle" x="209" y="-318.8" font-family="Times,serif" font-size="14.00">कर्ता</text>
</g>
<!-- Node3_1 -->
<g id="node7" class="node">
<title>Node3_1</title>
<ellipse fill="#ff99ff" stroke="#ff99ff" cx="165" cy="-192" rx="37.09" ry="18"/>
<text text-anchor="middle" x="165" y="-188.3" font-family="Times,serif" font-size="14.00">तु(3.1)</text>
</g>
<!-- Node3_1&#45;&gt;Node2_1 -->
<g id="edge2" class="edge">
<title>Node3_1&#45;&gt;Node2_1</title>
<path fill="none" stroke="black" d="M175.15,-219.13C180.43,-232.73 186.73,-248.98 191.38,-260.95"/>
<polygon fill="black" stroke="black" points="178.4,-217.85 171.52,-209.79 171.88,-220.38 178.4,-217.85"/>
<text text-anchor="middle" x="202.5" y="-231.8" font-family="Times,serif" font-size="14.00">सम्बन्धः</text>
</g>
<!-- Node5_1 -->
<g id="node8" class="node">
<title>Node5_1</title>
<ellipse fill="#ffff00" stroke="#ffff00" cx="167" cy="-105" rx="48.99" ry="18"/>
<text text-anchor="middle" x="167" y="-101.3" font-family="Times,serif" font-size="14.00">दुःख&#45;(5.1)</text>
</g>
<!-- Node5_3 -->
<g id="node9" class="node">
<title>Node5_3</title>
<ellipse fill="#00bfff" stroke="#00bfff" cx="279" cy="-192" rx="59.29" ry="18"/>
<text text-anchor="middle" x="279" y="-188.3" font-family="Times,serif" font-size="14.00">परायणाः(5.3)</text>
</g>
<!-- Node5_1&#45;&gt;Node5_3 -->
<g id="edge4" class="edge">
<title>Node5_1&#45;&gt;Node5_3</title>
<path fill="none" stroke="black" d="M195.25,-127.44C214.8,-142.28 240.39,-161.69 258.11,-175.15"/>
<polygon fill="black" stroke="black" points="197.36,-124.65 187.28,-121.39 193.13,-130.23 197.36,-124.65"/>
<text text-anchor="middle" x="247" y="-144.8" font-family="Times,serif" font-size="14.00">समासः</text>
</g>
<!-- Node5_3&#45;&gt;Node2_1 -->
<g id="edge6" class="edge">
<title>Node5_3&#45;&gt;Node2_1</title>
<path fill="none" stroke="black" d="M256.16,-216.96C242.46,-231.35 225.39,-249.26 213.29,-261.95"/>
<polygon fill="black" stroke="black" points="259.02,-219.04 263.38,-209.39 253.95,-214.21 259.02,-219.04"/>
<text text-anchor="middle" x="283" y="-231.8" font-family="Times,serif" font-size="14.00">विधेय_विशेषणम्</text>
</g>
<!-- Node5_2 -->
<g id="node10" class="node">
<title>Node5_2</title>
<ellipse fill="#ffff00" stroke="#ffff00" cx="284" cy="-105" rx="50.09" ry="18"/>
<text text-anchor="middle" x="284" y="-101.3" font-family="Times,serif" font-size="14.00">शोक&#45;(5.2)</text>
</g>
<!-- Node5_2&#45;&gt;Node5_3 -->
<g id="edge5" class="edge">
<title>Node5_2&#45;&gt;Node5_3</title>
<path fill="none" stroke="black" d="M282.4,-133.27C281.61,-146.58 280.69,-162.19 280.01,-173.82"/>
<polygon fill="black" stroke="black" points="285.89,-133.39 282.99,-123.2 278.91,-132.98 285.89,-133.39"/>
<text text-anchor="middle" x="299" y="-144.8" font-family="Times,serif" font-size="14.00">समासः</text>
</g>
<!-- Node8_1 -->
<g id="node11" class="node">
<title>Node8_1</title>
<ellipse fill="#6fffc3" stroke="#6fffc3" cx="306" cy="-279" rx="48.99" ry="18"/>
<text text-anchor="middle" x="306" y="-275.3" font-family="Times,serif" font-size="14.00">राजन्(8.1)</text>
</g>
<!-- Node8_1&#45;&gt;Node6_1 -->
<g id="edge8" class="edge">
<title>Node8_1&#45;&gt;Node6_1</title>
<path fill="none" stroke="black" d="M278.3,-301.8C259.61,-316.51 235.36,-335.6 218.42,-348.93"/>
<polygon fill="black" stroke="black" points="280.5,-304.53 286.19,-295.59 276.17,-299.02 280.5,-304.53"/>
<text text-anchor="middle" x="280" y="-318.8" font-family="Times,serif" font-size="14.00">सम्बोध्यः</text>
</g>
<!-- Node10_1 -->
<g id="node12" class="node">
<title>Node10_1</title>
<ellipse fill="#ffff00" stroke="#ffff00" cx="408" cy="-18" rx="51.99" ry="18"/>
<text text-anchor="middle" x="408" y="-14.3" font-family="Times,serif" font-size="14.00">गुण&#45;(10.1)</text>
</g>
<!-- Node10_2 -->
<g id="node13" class="node">
<title>Node10_2</title>
<ellipse fill="#40e0d0" stroke="#40e0d0" cx="408" cy="-105" rx="51.19" ry="18"/>
<text text-anchor="middle" x="408" y="-101.3" font-family="Times,serif" font-size="14.00">शतैः(10.2)</text>
</g>
<!-- Node10_1&#45;&gt;Node10_2 -->
<g id="edge10" class="edge">
<title>Node10_1&#45;&gt;Node10_2</title>
<path fill="none" stroke="black" d="M408,-46.27C408,-59.58 408,-75.19 408,-86.82"/>
<polygon fill="black" stroke="black" points="411.5,-46.2 408,-36.2 404.5,-46.2 411.5,-46.2"/>
<text text-anchor="middle" x="425" y="-57.8" font-family="Times,serif" font-size="14.00">समासः</text>
</g>
<!-- Node11_1 -->
<g id="node14" class="node">
<title>Node11_1</title>
<ellipse fill="#00bfff" stroke="#00bfff" cx="408" cy="-192" rx="51.99" ry="18"/>
<text text-anchor="middle" x="408" y="-188.3" font-family="Times,serif" font-size="14.00">हृताः(11.1)</text>
</g>
<!-- Node10_2&#45;&gt;Node11_1 -->
<g id="edge11" class="edge">
<title>Node10_2&#45;&gt;Node11_1</title>
<path fill="none" stroke="black" d="M408,-133.27C408,-146.58 408,-162.19 408,-173.82"/>
<polygon fill="black" stroke="black" points="411.5,-133.2 408,-123.2 404.5,-133.2 411.5,-133.2"/>
<text text-anchor="middle" x="424.5" y="-144.8" font-family="Times,serif" font-size="14.00">करणम्</text>
</g>
<!-- Node11_1&#45;&gt;Node2_1 -->
<g id="edge12" class="edge">
<title>Node11_1&#45;&gt;Node2_1</title>
<path fill="none" stroke="black" d="M378.36,-214.27C363.29,-224.23 344.33,-235.53 326,-243 293.06,-256.43 282.22,-251.26 248,-261 241.83,-262.76 235.29,-264.82 229.05,-266.9"/>
<polygon fill="black" stroke="black" points="380.42,-217.1 386.74,-208.6 376.5,-211.3 380.42,-217.1"/>
<text text-anchor="middle" x="394" y="-231.8" font-family="Times,serif" font-size="14.00">विधेय_विशेषणम्</text>
</g>
</g>
</svg>
