<?xml version="1.0" encoding="UTF-8" standalone="no"?>
<!DOCTYPE svg PUBLIC "-//W3C//DTD SVG 1.1//EN"
 "http://www.w3.org/Graphics/SVG/1.1/DTD/svg11.dtd">
<!-- Generated by graphviz version 2.43.0 (0)
 -->
<!-- Title: G Pages: 1 -->
<svg width="516pt" height="392pt"
 viewBox="0.00 0.00 515.85 392.00" xmlns="http://www.w3.org/2000/svg" xmlns:xlink="http://www.w3.org/1999/xlink">
<g id="graph0" class="graph" transform="scale(1 1) rotate(0) translate(4 388)">
<title>G</title>
<polygon fill="#fffacd" stroke="transparent" points="-4,4 -4,-388 511.85,-388 511.85,4 -4,4"/>
<g id="clust1" class="cluster">
<title>cluster_1</title>
<polygon fill="#fffacd" stroke="black" points="363.85,-79 363.85,-218 499.85,-218 499.85,-79 363.85,-79"/>
</g>
<g id="clust2" class="cluster">
<title>cluster_2</title>
<polygon fill="#fffacd" stroke="black" points="243.85,-79 243.85,-218 355.85,-218 355.85,-79 243.85,-79"/>
</g>
<!-- Node1_2 -->
<g id="node1" class="node">
<title>Node1_2</title>
<ellipse fill="#93db70" stroke="#93db70" cx="431.85" cy="-105" rx="60.39" ry="18"/>
<text text-anchor="middle" x="431.85" y="-101.3" font-family="Times,serif" font-size="14.00">प्रवासजम्(1.2)</text>
</g>
<!-- Node2_1 -->
<g id="node2" class="node">
<title>Node2_1</title>
<ellipse fill="#93db70" stroke="#93db70" cx="426.85" cy="-192" rx="50.89" ry="18"/>
<text text-anchor="middle" x="426.85" y="-188.3" font-family="Times,serif" font-size="14.00">दुःखम्(2.1)</text>
</g>
<!-- Node1_2&#45;&gt;Node2_1 -->
<g id="edge2" class="edge">
<title>Node1_2&#45;&gt;Node2_1</title>
<path fill="none" stroke="black" d="M430.24,-133.27C429.46,-146.58 428.54,-162.19 427.86,-173.82"/>
<polygon fill="black" stroke="black" points="433.74,-133.39 430.83,-123.2 426.75,-132.98 433.74,-133.39"/>
<text text-anchor="middle" x="451.35" y="-144.8" font-family="Times,serif" font-size="14.00">विशेषणम्</text>
</g>
<!-- Node5_1 -->
<g id="node6" class="node">
<title>Node5_1</title>
<ellipse fill="#00bfff" stroke="#00bfff" cx="334.85" cy="-279" rx="66.09" ry="18"/>
<text text-anchor="middle" x="334.85" y="-275.3" font-family="Times,serif" font-size="14.00">सन्धारयन्तः(5.1)</text>
</g>
<!-- Node2_1&#45;&gt;Node5_1 -->
<g id="edge3" class="edge">
<title>Node2_1&#45;&gt;Node5_1</title>
<path fill="none" stroke="black" d="M401.84,-216.11C386.29,-230.47 366.68,-248.59 352.7,-261.5"/>
<polygon fill="black" stroke="black" points="404.57,-218.34 409.54,-208.99 399.82,-213.2 404.57,-218.34"/>
<text text-anchor="middle" x="394.85" y="-231.8" font-family="Times,serif" font-size="14.00">कर्म</text>
</g>
<!-- Node3_2 -->
<g id="node3" class="node">
<title>Node3_2</title>
<ellipse fill="#40e0d0" stroke="#40e0d0" cx="299.85" cy="-105" rx="45.49" ry="18"/>
<text text-anchor="middle" x="299.85" y="-101.3" font-family="Times,serif" font-size="14.00">भूतैः(3.2)</text>
</g>
<!-- Node4_1 -->
<g id="node4" class="node">
<title>Node4_1</title>
<ellipse fill="#40e0d0" stroke="#40e0d0" cx="299.85" cy="-192" rx="48.19" ry="18"/>
<text text-anchor="middle" x="299.85" y="-188.3" font-family="Times,serif" font-size="14.00">हृदयैः(4.1)</text>
</g>
<!-- Node3_2&#45;&gt;Node4_1 -->
<g id="edge5" class="edge">
<title>Node3_2&#45;&gt;Node4_1</title>
<path fill="none" stroke="black" d="M299.85,-133.27C299.85,-146.58 299.85,-162.19 299.85,-173.82"/>
<polygon fill="black" stroke="black" points="303.35,-133.2 299.85,-123.2 296.35,-133.2 303.35,-133.2"/>
<text text-anchor="middle" x="322.35" y="-144.8" font-family="Times,serif" font-size="14.00">विशेषणम्</text>
</g>
<!-- Node4_1&#45;&gt;Node5_1 -->
<g id="edge6" class="edge">
<title>Node4_1&#45;&gt;Node5_1</title>
<path fill="none" stroke="black" d="M303.82,-220.06C305.47,-227.67 307.74,-235.82 310.85,-243 313.6,-249.35 317.57,-255.76 321.48,-261.33"/>
<polygon fill="black" stroke="black" points="307.25,-219.35 301.95,-210.17 300.37,-220.65 307.25,-219.35"/>
<text text-anchor="middle" x="327.35" y="-231.8" font-family="Times,serif" font-size="14.00">करणम्</text>
</g>
<!-- Node1_1 -->
<g id="node5" class="node">
<title>Node1_1</title>
<ellipse fill="#ffff00" stroke="#ffff00" cx="431.85" cy="-18" rx="58.49" ry="18"/>
<text text-anchor="middle" x="431.85" y="-14.3" font-family="Times,serif" font-size="14.00">धृतराष्ट्र&#45;(1.1)</text>
</g>
<!-- Node1_1&#45;&gt;Node1_2 -->
<g id="edge1" class="edge">
<title>Node1_1&#45;&gt;Node1_2</title>
<path fill="none" stroke="black" d="M431.85,-46.27C431.85,-59.58 431.85,-75.19 431.85,-86.82"/>
<polygon fill="black" stroke="black" points="435.35,-46.2 431.85,-36.2 428.35,-46.2 435.35,-46.2"/>
<text text-anchor="middle" x="448.85" y="-57.8" font-family="Times,serif" font-size="14.00">समासः</text>
</g>
<!-- Node10_1 -->
<g id="node8" class="node">
<title>Node10_1</title>
<ellipse fill="#ff1975" stroke="#ff1975" cx="209.85" cy="-366" rx="59.59" ry="18"/>
<text text-anchor="middle" x="209.85" y="-362.3" font-family="Times,serif" font-size="14.00">अभवन्(10.1)</text>
</g>
<!-- Node5_1&#45;&gt;Node10_1 -->
<g id="edge7" class="edge">
<title>Node5_1&#45;&gt;Node10_1</title>
<path fill="none" stroke="black" d="M303,-301.65C281.1,-316.55 252.53,-335.98 232.83,-349.37"/>
<polygon fill="black" stroke="black" points="305.03,-304.51 311.33,-295.99 301.1,-298.72 305.03,-304.51"/>
<text text-anchor="middle" x="306.35" y="-318.8" font-family="Times,serif" font-size="14.00">समानकालः</text>
</g>
<!-- Node3_1 -->
<g id="node7" class="node">
<title>Node3_1</title>
<ellipse fill="#ffff00" stroke="#ffff00" cx="299.85" cy="-18" rx="48.19" ry="18"/>
<text text-anchor="middle" x="299.85" y="-14.3" font-family="Times,serif" font-size="14.00">शून्य&#45;(3.1)</text>
</g>
<!-- Node3_1&#45;&gt;Node3_2 -->
<g id="edge4" class="edge">
<title>Node3_1&#45;&gt;Node3_2</title>
<path fill="none" stroke="black" d="M299.85,-46.27C299.85,-59.58 299.85,-75.19 299.85,-86.82"/>
<polygon fill="black" stroke="black" points="303.35,-46.2 299.85,-36.2 296.35,-46.2 303.35,-46.2"/>
<text text-anchor="middle" x="316.85" y="-57.8" font-family="Times,serif" font-size="14.00">समासः</text>
</g>
<!-- Node6_1 -->
<g id="node9" class="node">
<title>Node6_1</title>
<ellipse fill="#00bfff" stroke="#00bfff" cx="113.85" cy="-279" rx="37.09" ry="18"/>
<text text-anchor="middle" x="113.85" y="-275.3" font-family="Times,serif" font-size="14.00">ते(6.1)</text>
</g>
<!-- Node6_1&#45;&gt;Node10_1 -->
<g id="edge8" class="edge">
<title>Node6_1&#45;&gt;Node10_1</title>
<path fill="none" stroke="black" d="M138.68,-301.99C155.2,-316.62 176.54,-335.51 191.52,-348.78"/>
<polygon fill="black" stroke="black" points="140.82,-299.2 131.01,-295.2 136.18,-304.45 140.82,-299.2"/>
<text text-anchor="middle" x="178.85" y="-318.8" font-family="Times,serif" font-size="14.00">कर्ता</text>
</g>
<!-- Node7_1 -->
<g id="node10" class="node">
<title>Node7_1</title>
<ellipse fill="#ff99ff" stroke="#ff99ff" cx="209.85" cy="-279" rx="40.89" ry="18"/>
<text text-anchor="middle" x="209.85" y="-275.3" font-family="Times,serif" font-size="14.00">स्म(7.1)</text>
</g>
<!-- Node7_1&#45;&gt;Node10_1 -->
<g id="edge9" class="edge">
<title>Node7_1&#45;&gt;Node10_1</title>
<path fill="none" stroke="black" d="M209.85,-307.27C209.85,-320.58 209.85,-336.19 209.85,-347.82"/>
<polygon fill="black" stroke="black" points="213.35,-307.2 209.85,-297.2 206.35,-307.2 213.35,-307.2"/>
<text text-anchor="middle" x="228.35" y="-318.8" font-family="Times,serif" font-size="14.00">सम्बन्धः</text>
</g>
<!-- Node8_1 -->
<g id="node11" class="node">
<title>Node8_1</title>
<ellipse fill="#ffff00" stroke="#ffff00" cx="44.85" cy="-105" rx="44.69" ry="18"/>
<text text-anchor="middle" x="44.85" y="-101.3" font-family="Times,serif" font-size="14.00">नष्ट&#45;(8.1)</text>
</g>
<!-- Node8_2 -->
<g id="node12" class="node">
<title>Node8_2</title>
<ellipse fill="#00bfff" stroke="#00bfff" cx="113.85" cy="-192" rx="52.79" ry="18"/>
<text text-anchor="middle" x="113.85" y="-188.3" font-family="Times,serif" font-size="14.00">सञ्ज्ञाः(8.2)</text>
</g>
<!-- Node8_1&#45;&gt;Node8_2 -->
<g id="edge10" class="edge">
<title>Node8_1&#45;&gt;Node8_2</title>
<path fill="none" stroke="black" d="M64.54,-130.26C76,-144.37 90.15,-161.81 100.35,-174.37"/>
<polygon fill="black" stroke="black" points="67.17,-127.95 58.15,-122.39 61.74,-132.36 67.17,-127.95"/>
<text text-anchor="middle" x="100.85" y="-144.8" font-family="Times,serif" font-size="14.00">समासः</text>
</g>
<!-- Node8_2&#45;&gt;Node6_1 -->
<g id="edge11" class="edge">
<title>Node8_2&#45;&gt;Node6_1</title>
<path fill="none" stroke="black" d="M113.85,-220.27C113.85,-233.58 113.85,-249.19 113.85,-260.82"/>
<polygon fill="black" stroke="black" points="117.35,-220.2 113.85,-210.2 110.35,-220.2 117.35,-220.2"/>
<text text-anchor="middle" x="134.35" y="-231.8" font-family="Times,serif" font-size="14.00">उपमानम्</text>
</g>
<!-- Node9_1 -->
<g id="node13" class="node">
<title>Node9_1</title>
<ellipse fill="#ff99ff" stroke="#ff99ff" cx="148.85" cy="-105" rx="40.89" ry="18"/>
<text text-anchor="middle" x="148.85" y="-101.3" font-family="Times,serif" font-size="14.00">इव(9.1)</text>
</g>
<!-- Node9_1&#45;&gt;Node8_2 -->
<g id="edge12" class="edge">
<title>Node9_1&#45;&gt;Node8_2</title>
<path fill="none" stroke="black" d="M138.09,-132.13C132.48,-145.73 125.8,-161.98 120.87,-173.95"/>
<polygon fill="black" stroke="black" points="141.36,-133.37 141.93,-122.79 134.89,-130.71 141.36,-133.37"/>
<text text-anchor="middle" x="170.35" y="-144.8" font-family="Times,serif" font-size="14.00">उपमान_द्योतकः</text>
</g>
</g>
</svg>
