<?xml version="1.0" encoding="UTF-8" standalone="no"?>
<!DOCTYPE svg PUBLIC "-//W3C//DTD SVG 1.1//EN"
 "http://www.w3.org/Graphics/SVG/1.1/DTD/svg11.dtd">
<!-- Generated by graphviz version 2.43.0 (0)
 -->
<!-- Title: G Pages: 1 -->
<svg width="837pt" height="321pt"
 viewBox="0.00 0.00 837.00 321.00" xmlns="http://www.w3.org/2000/svg" xmlns:xlink="http://www.w3.org/1999/xlink">
<g id="graph0" class="graph" transform="scale(1 1) rotate(0) translate(4 317)">
<title>G</title>
<polygon fill="#fffacd" stroke="transparent" points="-4,4 -4,-317 833,-317 833,4 -4,4"/>
<g id="clust1" class="cluster">
<title>cluster_1</title>
<polygon fill="#fffacd" stroke="black" points="8,-8 8,-147 236,-147 236,-8 8,-8"/>
</g>
<g id="clust2" class="cluster">
<title>cluster_2</title>
<polygon fill="#fffacd" stroke="black" points="472,-8 472,-147 596,-147 596,-8 472,-8"/>
</g>
<!-- Node4_1 -->
<g id="node1" class="node">
<title>Node4_1</title>
<ellipse fill="#00bfff" stroke="#00bfff" cx="178" cy="-34" rx="50.09" ry="18"/>
<text text-anchor="middle" x="178" y="-30.3" font-family="Times,serif" font-size="14.00">धर्मज्ञः(4.1)</text>
</g>
<!-- Node6_2 -->
<g id="node2" class="node">
<title>Node6_2</title>
<ellipse fill="#00bfff" stroke="#00bfff" cx="180" cy="-121" rx="45.49" ry="18"/>
<text text-anchor="middle" x="180" y="-117.3" font-family="Times,serif" font-size="14.00">सुतः(6.2)</text>
</g>
<!-- Node4_1&#45;&gt;Node6_2 -->
<g id="edge3" class="edge">
<title>Node4_1&#45;&gt;Node6_2</title>
<path fill="none" stroke="black" d="M178.64,-62.27C178.95,-75.58 179.32,-91.19 179.6,-102.82"/>
<polygon fill="black" stroke="black" points="182.14,-62.12 178.4,-52.2 175.14,-62.28 182.14,-62.12"/>
<text text-anchor="middle" x="202.5" y="-73.8" font-family="Times,serif" font-size="14.00">विशेषणम्</text>
</g>
<!-- Node3_1 -->
<g id="node7" class="node">
<title>Node3_1</title>
<ellipse fill="#ff1975" stroke="#ff1975" cx="300" cy="-208" rx="50.89" ry="18"/>
<text text-anchor="middle" x="300" y="-204.3" font-family="Times,serif" font-size="14.00">ब्रवीति(3.1)</text>
</g>
<!-- Node6_2&#45;&gt;Node3_1 -->
<g id="edge6" class="edge">
<title>Node6_2&#45;&gt;Node3_1</title>
<path fill="none" stroke="black" d="M209.53,-142.92C230.79,-157.97 258.99,-177.95 278.22,-191.58"/>
<polygon fill="black" stroke="black" points="211.36,-139.92 201.18,-137 207.31,-145.64 211.36,-139.92"/>
<text text-anchor="middle" x="259" y="-160.8" font-family="Times,serif" font-size="14.00">कर्ता</text>
</g>
<!-- Node5_1 -->
<g id="node3" class="node">
<title>Node5_1</title>
<ellipse fill="#00bfff" stroke="#00bfff" cx="63" cy="-34" rx="46.59" ry="18"/>
<text text-anchor="middle" x="63" y="-30.3" font-family="Times,serif" font-size="14.00">मुनिः(5.1)</text>
</g>
<!-- Node5_1&#45;&gt;Node6_2 -->
<g id="edge4" class="edge">
<title>Node5_1&#45;&gt;Node6_2</title>
<path fill="none" stroke="black" d="M91.34,-56.45C103.22,-65.36 117.22,-75.76 130,-85 139.1,-91.58 149.24,-98.71 157.99,-104.81"/>
<polygon fill="black" stroke="black" points="93.21,-53.47 83.11,-50.26 89,-59.07 93.21,-53.47"/>
<text text-anchor="middle" x="152.5" y="-73.8" font-family="Times,serif" font-size="14.00">विशेषणम्</text>
</g>
<!-- Node12_1 -->
<g id="node4" class="node">
<title>Node12_1</title>
<ellipse fill="#00bfff" stroke="#00bfff" cx="534" cy="-34" rx="53.89" ry="18"/>
<text text-anchor="middle" x="534" y="-30.3" font-family="Times,serif" font-size="14.00">परमः(12.1)</text>
</g>
<!-- Node13_1 -->
<g id="node5" class="node">
<title>Node13_1</title>
<ellipse fill="#00bfff" stroke="#00bfff" cx="537" cy="-121" rx="50.09" ry="18"/>
<text text-anchor="middle" x="537" y="-117.3" font-family="Times,serif" font-size="14.00">गुरुः(13.1)</text>
</g>
<!-- Node12_1&#45;&gt;Node13_1 -->
<g id="edge11" class="edge">
<title>Node12_1&#45;&gt;Node13_1</title>
<path fill="none" stroke="black" d="M534.96,-62.27C535.43,-75.58 535.98,-91.19 536.39,-102.82"/>
<polygon fill="black" stroke="black" points="538.46,-62.07 534.61,-52.2 531.46,-62.32 538.46,-62.07"/>
<text text-anchor="middle" x="558.5" y="-73.8" font-family="Times,serif" font-size="14.00">विशेषणम्</text>
</g>
<!-- Node9_1 -->
<g id="node12" class="node">
<title>Node9_1</title>
<ellipse fill="#00bfff" stroke="#00bfff" cx="596" cy="-208" rx="40.09" ry="18"/>
<text text-anchor="middle" x="596" y="-204.3" font-family="Times,serif" font-size="14.00">सः(9.1)</text>
</g>
<!-- Node13_1&#45;&gt;Node9_1 -->
<g id="edge12" class="edge">
<title>Node13_1&#45;&gt;Node9_1</title>
<path fill="none" stroke="black" d="M536.1,-149.52C536.92,-157.25 538.89,-165.35 543,-172 548.97,-181.66 558.71,-189.22 568.23,-194.79"/>
<polygon fill="black" stroke="black" points="539.59,-149.2 535.59,-139.39 532.6,-149.55 539.59,-149.2"/>
<text text-anchor="middle" x="582" y="-160.8" font-family="Times,serif" font-size="14.00">विधेय_विशेषणम्</text>
</g>
<!-- Node1_1 -->
<g id="node6" class="node">
<title>Node1_1</title>
<ellipse fill="#6fffc3" stroke="#6fffc3" cx="300" cy="-121" rx="55.79" ry="18"/>
<text text-anchor="middle" x="300" y="-117.3" font-family="Times,serif" font-size="14.00">महाराज(1.1)</text>
</g>
<!-- Node1_1&#45;&gt;Node3_1 -->
<g id="edge1" class="edge">
<title>Node1_1&#45;&gt;Node3_1</title>
<path fill="none" stroke="black" d="M300,-149.27C300,-162.58 300,-178.19 300,-189.82"/>
<polygon fill="black" stroke="black" points="303.5,-149.2 300,-139.2 296.5,-149.2 303.5,-149.2"/>
<text text-anchor="middle" x="321" y="-160.8" font-family="Times,serif" font-size="14.00">सम्बोध्यः</text>
</g>
<!-- Node2_1 -->
<g id="node8" class="node">
<title>Node2_1</title>
<ellipse fill="#ff99ff" stroke="#ff99ff" cx="419" cy="-121" rx="44.69" ry="18"/>
<text text-anchor="middle" x="419" y="-117.3" font-family="Times,serif" font-size="14.00">यथा(2.1)</text>
</g>
<!-- Node2_1&#45;&gt;Node3_1 -->
<g id="edge2" class="edge">
<title>Node2_1&#45;&gt;Node3_1</title>
<path fill="none" stroke="black" d="M389.72,-142.92C368.64,-157.97 340.66,-177.95 321.59,-191.58"/>
<polygon fill="black" stroke="black" points="391.9,-145.66 398,-137 387.83,-139.96 391.9,-145.66"/>
<text text-anchor="middle" x="402" y="-160.8" font-family="Times,serif" font-size="14.00">क्रियाविशेषणम्</text>
</g>
<!-- Node6_1 -->
<g id="node9" class="node">
<title>Node6_1</title>
<ellipse fill="#ffff00" stroke="#ffff00" cx="307" cy="-34" rx="61.19" ry="18"/>
<text text-anchor="middle" x="307" y="-30.3" font-family="Times,serif" font-size="14.00">सत्यवती&#45;(6.1)</text>
</g>
<!-- Node6_1&#45;&gt;Node6_2 -->
<g id="edge5" class="edge">
<title>Node6_1&#45;&gt;Node6_2</title>
<path fill="none" stroke="black" d="M275.09,-56.36C252.35,-71.58 222.35,-91.65 202.19,-105.15"/>
<polygon fill="black" stroke="black" points="277.05,-59.26 283.41,-50.79 273.15,-53.44 277.05,-59.26"/>
<text text-anchor="middle" x="269" y="-73.8" font-family="Times,serif" font-size="14.00">समासः</text>
</g>
<!-- Node7_1 -->
<g id="node10" class="node">
<title>Node7_1</title>
<ellipse fill="#ff99ff" stroke="#ff99ff" cx="759" cy="-34" rx="44.69" ry="18"/>
<text text-anchor="middle" x="759" y="-30.3" font-family="Times,serif" font-size="14.00">तथा(7.1)</text>
</g>
<!-- Node8_1 -->
<g id="node11" class="node">
<title>Node8_1</title>
<ellipse fill="#ff1975" stroke="#ff1975" cx="759" cy="-121" rx="43.59" ry="18"/>
<text text-anchor="middle" x="759" y="-117.3" font-family="Times,serif" font-size="14.00">कुरु(8.1)</text>
</g>
<!-- Node7_1&#45;&gt;Node8_1 -->
<g id="edge7" class="edge">
<title>Node7_1&#45;&gt;Node8_1</title>
<path fill="none" stroke="black" d="M759,-62.27C759,-75.58 759,-91.19 759,-102.82"/>
<polygon fill="black" stroke="black" points="762.5,-62.2 759,-52.2 755.5,-62.2 762.5,-62.2"/>
<text text-anchor="middle" x="794" y="-73.8" font-family="Times,serif" font-size="14.00">क्रियाविशेषणम्</text>
</g>
<!-- Node14_1 -->
<g id="node13" class="node">
<title>Node14_1</title>
<ellipse fill="#ff1975" stroke="#ff1975" cx="596" cy="-295" rx="62.29" ry="18"/>
<text text-anchor="middle" x="596" y="-291.3" font-family="Times,serif" font-size="14.00">(अस्ति)(14.1)</text>
</g>
<!-- Node9_1&#45;&gt;Node14_1 -->
<g id="edge8" class="edge">
<title>Node9_1&#45;&gt;Node14_1</title>
<path fill="none" stroke="black" d="M596,-236.27C596,-249.58 596,-265.19 596,-276.82"/>
<polygon fill="black" stroke="black" points="599.5,-236.2 596,-226.2 592.5,-236.2 599.5,-236.2"/>
<text text-anchor="middle" x="607" y="-247.8" font-family="Times,serif" font-size="14.00">कर्ता</text>
</g>
<!-- Node10_1 -->
<g id="node14" class="node">
<title>Node10_1</title>
<ellipse fill="#ff99ff" stroke="#ff99ff" cx="650" cy="-121" rx="44.69" ry="18"/>
<text text-anchor="middle" x="650" y="-117.3" font-family="Times,serif" font-size="14.00">हि(10.1)</text>
</g>
<!-- Node10_1&#45;&gt;Node9_1 -->
<g id="edge9" class="edge">
<title>Node10_1&#45;&gt;Node9_1</title>
<path fill="none" stroke="black" d="M638.24,-148.32C634.38,-156.15 629.82,-164.6 625,-172 620.78,-178.48 615.54,-185.13 610.68,-190.86"/>
<polygon fill="black" stroke="black" points="641.45,-149.73 642.59,-139.2 635.13,-146.72 641.45,-149.73"/>
<text text-anchor="middle" x="652.5" y="-160.8" font-family="Times,serif" font-size="14.00">सम्बन्धः</text>
</g>
<!-- Node11_1 -->
<g id="node15" class="node">
<title>Node11_1</title>
<ellipse fill="#87ceeb" stroke="#87ceeb" cx="651" cy="-34" rx="45.49" ry="18"/>
<text text-anchor="middle" x="651" y="-30.3" font-family="Times,serif" font-size="14.00">नः(11.1)</text>
</g>
<!-- Node11_1&#45;&gt;Node13_1 -->
<g id="edge10" class="edge">
<title>Node11_1&#45;&gt;Node13_1</title>
<path fill="none" stroke="black" d="M622.77,-56.57C611.11,-65.43 597.44,-75.75 585,-85 576.39,-91.4 566.86,-98.37 558.57,-104.4"/>
<polygon fill="black" stroke="black" points="625.01,-59.26 630.85,-50.41 620.77,-53.69 625.01,-59.26"/>
<text text-anchor="middle" x="631.5" y="-73.8" font-family="Times,serif" font-size="14.00">षष्ठीसम्बन्धः</text>
</g>
</g>
</svg>
