<?xml version="1.0" encoding="UTF-8" standalone="no"?>
<!DOCTYPE svg PUBLIC "-//W3C//DTD SVG 1.1//EN"
 "http://www.w3.org/Graphics/SVG/1.1/DTD/svg11.dtd">
<!-- Generated by graphviz version 2.43.0 (0)
 -->
<!-- Title: G Pages: 1 -->
<svg width="1328pt" height="321pt"
 viewBox="0.00 0.00 1328.44 321.00" xmlns="http://www.w3.org/2000/svg" xmlns:xlink="http://www.w3.org/1999/xlink">
<g id="graph0" class="graph" transform="scale(1 1) rotate(0) translate(4 317)">
<title>G</title>
<polygon fill="#fffacd" stroke="transparent" points="-4,4 -4,-317 1324.44,-317 1324.44,4 -4,4"/>
<g id="clust1" class="cluster">
<title>cluster_1</title>
<polygon fill="#fffacd" stroke="black" points="8,-95 8,-234 122,-234 122,-95 8,-95"/>
</g>
<g id="clust2" class="cluster">
<title>cluster_2</title>
<polygon fill="#fffacd" stroke="black" points="363,-8 363,-147 473,-147 473,-8 363,-8"/>
</g>
<g id="clust3" class="cluster">
<title>cluster_3</title>
<polygon fill="#fffacd" stroke="black" points="878,-8 878,-234 1022,-234 1022,-8 878,-8"/>
</g>
<g id="clust4" class="cluster">
<title>cluster_4</title>
<polygon fill="#fffacd" stroke="black" points="1030,-95 1030,-234 1192,-234 1192,-95 1030,-95"/>
</g>
<!-- Node1_1 -->
<g id="node1" class="node">
<title>Node1_1</title>
<ellipse fill="#ff99ff" stroke="#ff99ff" cx="61" cy="-121" rx="44.69" ry="18"/>
<text text-anchor="middle" x="61" y="-117.3" font-family="Times,serif" font-size="14.00">यथा(1.1)</text>
</g>
<!-- Node2_1 -->
<g id="node2" class="node">
<title>Node2_1</title>
<ellipse fill="#ff1975" stroke="#ff1975" cx="65" cy="-208" rx="49.29" ry="18"/>
<text text-anchor="middle" x="65" y="-204.3" font-family="Times,serif" font-size="14.00">वदसि(2.1)</text>
</g>
<!-- Node1_1&#45;&gt;Node2_1 -->
<g id="edge1" class="edge">
<title>Node1_1&#45;&gt;Node2_1</title>
<path fill="none" stroke="black" d="M62.28,-149.27C62.91,-162.58 63.64,-178.19 64.19,-189.82"/>
<polygon fill="black" stroke="black" points="65.78,-149.03 61.81,-139.2 58.78,-149.35 65.78,-149.03"/>
<text text-anchor="middle" x="102" y="-160.8" font-family="Times,serif" font-size="14.00">क्रिया_विशेषणम्</text>
</g>
<!-- Node5_1 -->
<g id="node3" class="node">
<title>Node5_1</title>
<ellipse fill="#00bfff" stroke="#00bfff" cx="418" cy="-34" rx="46.59" ry="18"/>
<text text-anchor="middle" x="418" y="-30.3" font-family="Times,serif" font-size="14.00">एतत्(5.1)</text>
</g>
<!-- Node4_1 -->
<g id="node4" class="node">
<title>Node4_1</title>
<ellipse fill="#00bfff" stroke="#00bfff" cx="418" cy="-121" rx="47.39" ry="18"/>
<text text-anchor="middle" x="418" y="-117.3" font-family="Times,serif" font-size="14.00">सर्वम्(4.1)</text>
</g>
<!-- Node5_1&#45;&gt;Node4_1 -->
<g id="edge5" class="edge">
<title>Node5_1&#45;&gt;Node4_1</title>
<path fill="none" stroke="black" d="M418,-62.27C418,-75.58 418,-91.19 418,-102.82"/>
<polygon fill="black" stroke="black" points="421.5,-62.2 418,-52.2 414.5,-62.2 421.5,-62.2"/>
<text text-anchor="middle" x="440.5" y="-73.8" font-family="Times,serif" font-size="14.00">विशेषणम्</text>
</g>
<!-- Node15_1 -->
<g id="node13" class="node">
<title>Node15_1</title>
<ellipse fill="#ff1975" stroke="#ff1975" cx="484" cy="-208" rx="62.29" ry="18"/>
<text text-anchor="middle" x="484" y="-204.3" font-family="Times,serif" font-size="14.00">(अस्ति)(15.1)</text>
</g>
<!-- Node4_1&#45;&gt;Node15_1 -->
<g id="edge4" class="edge">
<title>Node4_1&#45;&gt;Node15_1</title>
<path fill="none" stroke="black" d="M437.14,-146.65C448.05,-160.7 461.42,-177.92 471.09,-190.37"/>
<polygon fill="black" stroke="black" points="439.62,-144.14 430.73,-138.39 434.09,-148.43 439.62,-144.14"/>
<text text-anchor="middle" x="475" y="-160.8" font-family="Times,serif" font-size="14.00">मुख्यकर्म</text>
</g>
<!-- Node9_1 -->
<g id="node5" class="node">
<title>Node9_1</title>
<ellipse fill="#ff99ff" stroke="#ff99ff" cx="948" cy="-121" rx="50.09" ry="18"/>
<text text-anchor="middle" x="948" y="-117.3" font-family="Times,serif" font-size="14.00">मिथ्या(9.1)</text>
</g>
<!-- Node10_1 -->
<g id="node6" class="node">
<title>Node10_1</title>
<ellipse fill="#00bfff" stroke="#00bfff" cx="944" cy="-208" rx="50.09" ry="18"/>
<text text-anchor="middle" x="944" y="-204.3" font-family="Times,serif" font-size="14.00">वचः(10.1)</text>
</g>
<!-- Node9_1&#45;&gt;Node10_1 -->
<g id="edge9" class="edge">
<title>Node9_1&#45;&gt;Node10_1</title>
<path fill="none" stroke="black" d="M946.72,-149.27C946.09,-162.58 945.36,-178.19 944.81,-189.82"/>
<polygon fill="black" stroke="black" points="950.22,-149.35 947.19,-139.2 943.22,-149.03 950.22,-149.35"/>
<text text-anchor="middle" x="969.5" y="-160.8" font-family="Times,serif" font-size="14.00">विशेषणम्</text>
</g>
<!-- Node19_1 -->
<g id="node16" class="node">
<title>Node19_1</title>
<ellipse fill="#ff1975" stroke="#ff1975" cx="774" cy="-295" rx="62.29" ry="18"/>
<text text-anchor="middle" x="774" y="-291.3" font-family="Times,serif" font-size="14.00">(अस्ति)(19.1)</text>
</g>
<!-- Node10_1&#45;&gt;Node19_1 -->
<g id="edge10" class="edge">
<title>Node10_1&#45;&gt;Node19_1</title>
<path fill="none" stroke="black" d="M911.1,-228.87C894.77,-238.43 874.6,-249.78 856,-259 840.88,-266.49 823.77,-273.95 809.11,-280.04"/>
<polygon fill="black" stroke="black" points="912.91,-231.86 919.75,-223.77 909.36,-225.83 912.91,-231.86"/>
<text text-anchor="middle" x="895" y="-247.8" font-family="Times,serif" font-size="14.00">कर्ता</text>
</g>
<!-- Node11_1 -->
<g id="node7" class="node">
<title>Node11_1</title>
<ellipse fill="#ff99ff" stroke="#ff99ff" cx="950" cy="-34" rx="63.89" ry="18"/>
<text text-anchor="middle" x="950" y="-30.3" font-family="Times,serif" font-size="14.00">किञ्चित्(11.1)</text>
</g>
<!-- Node11_1&#45;&gt;Node9_1 -->
<g id="edge11" class="edge">
<title>Node11_1&#45;&gt;Node9_1</title>
<path fill="none" stroke="black" d="M949.36,-62.27C949.05,-75.58 948.68,-91.19 948.4,-102.82"/>
<polygon fill="black" stroke="black" points="952.86,-62.28 949.6,-52.2 945.86,-62.12 952.86,-62.28"/>
<text text-anchor="middle" x="972.5" y="-73.8" font-family="Times,serif" font-size="14.00">विशेषणम्</text>
</g>
<!-- Node14_1 -->
<g id="node8" class="node">
<title>Node14_1</title>
<ellipse fill="#93db70" stroke="#93db70" cx="1108" cy="-121" rx="63.89" ry="18"/>
<text text-anchor="middle" x="1108" y="-117.3" font-family="Times,serif" font-size="14.00">परस्परम्(14.1)</text>
</g>
<!-- Node17_1 -->
<g id="node9" class="node">
<title>Node17_1</title>
<ellipse fill="#00bfff" stroke="#00bfff" cx="1111" cy="-208" rx="73.39" ry="18"/>
<text text-anchor="middle" x="1111" y="-204.3" font-family="Times,serif" font-size="14.00">(स्थापितम्)(17.1)</text>
</g>
<!-- Node14_1&#45;&gt;Node17_1 -->
<g id="edge14" class="edge">
<title>Node14_1&#45;&gt;Node17_1</title>
<path fill="none" stroke="black" d="M1108.96,-149.27C1109.43,-162.58 1109.98,-178.19 1110.39,-189.82"/>
<polygon fill="black" stroke="black" points="1112.46,-149.07 1108.61,-139.2 1105.46,-149.32 1112.46,-149.07"/>
<text text-anchor="middle" x="1147" y="-160.8" font-family="Times,serif" font-size="14.00">क्रिया_विशेषणम्</text>
</g>
<!-- Node12_1 -->
<g id="node10" class="node">
<title>Node12_1</title>
<ellipse fill="#00bfff" stroke="#00bfff" cx="187" cy="-121" rx="57.39" ry="18"/>
<text text-anchor="middle" x="187" y="-117.3" font-family="Times,serif" font-size="14.00">(त्वम्)(12.1)</text>
</g>
<!-- Node12_1&#45;&gt;Node2_1 -->
<g id="edge12" class="edge">
<title>Node12_1&#45;&gt;Node2_1</title>
<path fill="none" stroke="black" d="M169.12,-147.07C162.03,-155.77 153.33,-165.07 144,-172 130.87,-181.75 114.6,-189.54 100.25,-195.28"/>
<polygon fill="black" stroke="black" points="172.02,-149.05 175.4,-139.01 166.49,-144.75 172.02,-149.05"/>
<text text-anchor="middle" x="172" y="-160.8" font-family="Times,serif" font-size="14.00">कर्ता</text>
</g>
<!-- Node3_1 -->
<g id="node11" class="node">
<title>Node3_1</title>
<ellipse fill="#ffff00" stroke="#ffff00" cx="306" cy="-34" rx="46.59" ry="18"/>
<text text-anchor="middle" x="306" y="-30.3" font-family="Times,serif" font-size="14.00">राज&#45;(3.1)</text>
</g>
<!-- Node3_2 -->
<g id="node12" class="node">
<title>Node3_2</title>
<ellipse fill="#6fffc3" stroke="#6fffc3" cx="306" cy="-121" rx="43.59" ry="18"/>
<text text-anchor="middle" x="306" y="-117.3" font-family="Times,serif" font-size="14.00">इन्द्र(3.2)</text>
</g>
<!-- Node3_1&#45;&gt;Node3_2 -->
<g id="edge2" class="edge">
<title>Node3_1&#45;&gt;Node3_2</title>
<path fill="none" stroke="black" d="M306,-62.27C306,-75.58 306,-91.19 306,-102.82"/>
<polygon fill="black" stroke="black" points="309.5,-62.2 306,-52.2 302.5,-62.2 309.5,-62.2"/>
<text text-anchor="middle" x="323" y="-73.8" font-family="Times,serif" font-size="14.00">समासः</text>
</g>
<!-- Node3_2&#45;&gt;Node2_1 -->
<g id="edge3" class="edge">
<title>Node3_2&#45;&gt;Node2_1</title>
<path fill="none" stroke="black" d="M269.76,-139.55C264.18,-142.12 258.46,-144.68 253,-147 224.13,-159.26 216.77,-162.11 187,-172 159.4,-181.17 127.82,-190.19 103.71,-196.77"/>
<polygon fill="black" stroke="black" points="271.37,-142.67 278.95,-135.26 268.41,-136.32 271.37,-142.67"/>
<text text-anchor="middle" x="250" y="-160.8" font-family="Times,serif" font-size="14.00">सम्बोध्यः</text>
</g>
<!-- Node6_1 -->
<g id="node14" class="node">
<title>Node6_1</title>
<ellipse fill="#ff99ff" stroke="#ff99ff" cx="528" cy="-121" rx="44.69" ry="18"/>
<text text-anchor="middle" x="528" y="-117.3" font-family="Times,serif" font-size="14.00">तथा(6.1)</text>
</g>
<!-- Node6_1&#45;&gt;Node15_1 -->
<g id="edge6" class="edge">
<title>Node6_1&#45;&gt;Node15_1</title>
<path fill="none" stroke="black" d="M514.68,-147.74C507.6,-161.42 499.08,-177.86 492.83,-189.95"/>
<polygon fill="black" stroke="black" points="517.82,-149.28 519.31,-138.79 511.6,-146.06 517.82,-149.28"/>
<text text-anchor="middle" x="544" y="-160.8" font-family="Times,serif" font-size="14.00">क्रियाविशेषणम्</text>
</g>
<!-- Node7_1 -->
<g id="node15" class="node">
<title>Node7_1</title>
<ellipse fill="#6fffc3" stroke="#6fffc3" cx="612" cy="-208" rx="47.39" ry="18"/>
<text text-anchor="middle" x="612" y="-204.3" font-family="Times,serif" font-size="14.00">विभो(7.1)</text>
</g>
<!-- Node7_1&#45;&gt;Node19_1 -->
<g id="edge7" class="edge">
<title>Node7_1&#45;&gt;Node19_1</title>
<path fill="none" stroke="black" d="M643.81,-229.11C659.31,-238.61 678.38,-249.84 696,-259 710.22,-266.39 726.33,-273.78 740.2,-279.84"/>
<polygon fill="black" stroke="black" points="645.47,-226.02 635.13,-223.74 641.79,-231.98 645.47,-226.02"/>
<text text-anchor="middle" x="717" y="-247.8" font-family="Times,serif" font-size="14.00">सम्बोध्यः</text>
</g>
<!-- Node8_1 -->
<g id="node17" class="node">
<title>Node8_1</title>
<ellipse fill="#ff99ff" stroke="#ff99ff" cx="722" cy="-208" rx="44.39" ry="18"/>
<text text-anchor="middle" x="722" y="-204.3" font-family="Times,serif" font-size="14.00">अत्र(8.1)</text>
</g>
<!-- Node8_1&#45;&gt;Node19_1 -->
<g id="edge8" class="edge">
<title>Node8_1&#45;&gt;Node19_1</title>
<path fill="none" stroke="black" d="M735.8,-234.7C740.2,-242.58 745.17,-251.22 750,-259 753.73,-265.01 758.04,-271.43 761.97,-277.12"/>
<polygon fill="black" stroke="black" points="738.85,-232.96 730.96,-225.89 732.71,-236.34 738.85,-232.96"/>
<text text-anchor="middle" x="777.5" y="-247.8" font-family="Times,serif" font-size="14.00">अधिकरणम्</text>
</g>
<!-- Node13_1 -->
<g id="node18" class="node">
<title>Node13_1</title>
<ellipse fill="#87ceeb" stroke="#87ceeb" cx="1260" cy="-34" rx="45.49" ry="18"/>
<text text-anchor="middle" x="1260" y="-30.3" font-family="Times,serif" font-size="14.00">नः(13.1)</text>
</g>
<!-- Node18_1 -->
<g id="node19" class="node">
<title>Node18_1</title>
<ellipse fill="#00bfff" stroke="#00bfff" cx="1260" cy="-121" rx="60.39" ry="18"/>
<text text-anchor="middle" x="1260" y="-117.3" font-family="Times,serif" font-size="14.00">सुहृत्वम्(18.1)</text>
</g>
<!-- Node13_1&#45;&gt;Node18_1 -->
<g id="edge13" class="edge">
<title>Node13_1&#45;&gt;Node18_1</title>
<path fill="none" stroke="black" d="M1260,-62.27C1260,-75.58 1260,-91.19 1260,-102.82"/>
<polygon fill="black" stroke="black" points="1263.5,-62.2 1260,-52.2 1256.5,-62.2 1263.5,-62.2"/>
<text text-anchor="middle" x="1287.5" y="-73.8" font-family="Times,serif" font-size="14.00">षष्ठीसम्बन्धः</text>
</g>
<!-- Node18_1&#45;&gt;Node17_1 -->
<g id="edge16" class="edge">
<title>Node18_1&#45;&gt;Node17_1</title>
<path fill="none" stroke="black" d="M1231.29,-144.11C1218.68,-153.31 1203.48,-163.76 1189,-172 1175.97,-179.42 1161.08,-186.43 1147.83,-192.2"/>
<polygon fill="black" stroke="black" points="1233.62,-146.74 1239.57,-137.97 1229.45,-141.12 1233.62,-146.74"/>
<text text-anchor="middle" x="1222" y="-160.8" font-family="Times,serif" font-size="14.00">कर्ता</text>
</g>
<!-- Node16_1 -->
<g id="node20" class="node">
<title>Node16_1</title>
<ellipse fill="#ff99ff" stroke="#ff99ff" cx="827" cy="-208" rx="42.79" ry="18"/>
<text text-anchor="middle" x="827" y="-204.3" font-family="Times,serif" font-size="14.00">न(16.1)</text>
</g>
<!-- Node16_1&#45;&gt;Node19_1 -->
<g id="edge15" class="edge">
<title>Node16_1&#45;&gt;Node19_1</title>
<path fill="none" stroke="black" d="M817.21,-235.38C813.82,-243.24 809.68,-251.7 805,-259 800.88,-265.43 795.61,-271.85 790.59,-277.41"/>
<polygon fill="black" stroke="black" points="820.55,-236.45 821.09,-225.87 814.07,-233.8 820.55,-236.45"/>
<text text-anchor="middle" x="832.5" y="-247.8" font-family="Times,serif" font-size="14.00">प्रतिषेधः</text>
</g>
</g>
</svg>
