<?xml version="1.0" encoding="UTF-8" standalone="no"?>
<!DOCTYPE svg PUBLIC "-//W3C//DTD SVG 1.1//EN"
 "http://www.w3.org/Graphics/SVG/1.1/DTD/svg11.dtd">
<!-- Generated by graphviz version 2.43.0 (0)
 -->
<!-- Title: G Pages: 1 -->
<svg width="766pt" height="321pt"
 viewBox="0.00 0.00 766.19 321.00" xmlns="http://www.w3.org/2000/svg" xmlns:xlink="http://www.w3.org/1999/xlink">
<g id="graph0" class="graph" transform="scale(1 1) rotate(0) translate(4 317)">
<title>G</title>
<polygon fill="#fffacd" stroke="transparent" points="-4,4 -4,-317 762.19,-317 762.19,4 -4,4"/>
<g id="clust1" class="cluster">
<title>cluster_1</title>
<polygon fill="#fffacd" stroke="black" points="8,-8 8,-147 128,-147 128,-8 8,-8"/>
</g>
<g id="clust2" class="cluster">
<title>cluster_2</title>
<polygon fill="#fffacd" stroke="black" points="136,-95 136,-234 260,-234 260,-95 136,-95"/>
</g>
<!-- Node4_1 -->
<g id="node1" class="node">
<title>Node4_1</title>
<ellipse fill="#87ceeb" stroke="#87ceeb" cx="68" cy="-34" rx="47.39" ry="18"/>
<text text-anchor="middle" x="68" y="-30.3" font-family="Times,serif" font-size="14.00">अस्य(4.1)</text>
</g>
<!-- Node3_1 -->
<g id="node2" class="node">
<title>Node3_1</title>
<ellipse fill="#87ceeb" stroke="#87ceeb" cx="68" cy="-121" rx="51.99" ry="18"/>
<text text-anchor="middle" x="68" y="-117.3" font-family="Times,serif" font-size="14.00">जनस्य(3.1)</text>
</g>
<!-- Node4_1&#45;&gt;Node3_1 -->
<g id="edge4" class="edge">
<title>Node4_1&#45;&gt;Node3_1</title>
<path fill="none" stroke="black" d="M68,-62.27C68,-75.58 68,-91.19 68,-102.82"/>
<polygon fill="black" stroke="black" points="71.5,-62.2 68,-52.2 64.5,-62.2 71.5,-62.2"/>
<text text-anchor="middle" x="90.5" y="-73.8" font-family="Times,serif" font-size="14.00">विशेषणम्</text>
</g>
<!-- Node2_1 -->
<g id="node4" class="node">
<title>Node2_1</title>
<ellipse fill="#00bfff" stroke="#00bfff" cx="198" cy="-208" rx="53.89" ry="18"/>
<text text-anchor="middle" x="198" y="-204.3" font-family="Times,serif" font-size="14.00">वाक्यम्(2.1)</text>
</g>
<!-- Node3_1&#45;&gt;Node2_1 -->
<g id="edge3" class="edge">
<title>Node3_1&#45;&gt;Node2_1</title>
<path fill="none" stroke="black" d="M97.46,-143.52C110.1,-152.55 125.12,-163.01 139,-172 149.6,-178.86 161.53,-186.04 171.88,-192.1"/>
<polygon fill="black" stroke="black" points="99.3,-140.53 89.14,-137.54 95.22,-146.22 99.3,-140.53"/>
<text text-anchor="middle" x="166.5" y="-160.8" font-family="Times,serif" font-size="14.00">षष्ठीसम्बन्धः</text>
</g>
<!-- Node6_1 -->
<g id="node3" class="node">
<title>Node6_1</title>
<ellipse fill="#00bfff" stroke="#00bfff" cx="198" cy="-121" rx="47.39" ry="18"/>
<text text-anchor="middle" x="198" y="-117.3" font-family="Times,serif" font-size="14.00">सर्वम्(6.1)</text>
</g>
<!-- Node6_1&#45;&gt;Node2_1 -->
<g id="edge6" class="edge">
<title>Node6_1&#45;&gt;Node2_1</title>
<path fill="none" stroke="black" d="M198,-149.27C198,-162.58 198,-178.19 198,-189.82"/>
<polygon fill="black" stroke="black" points="201.5,-149.2 198,-139.2 194.5,-149.2 201.5,-149.2"/>
<text text-anchor="middle" x="220.5" y="-160.8" font-family="Times,serif" font-size="14.00">विशेषणम्</text>
</g>
<!-- Node7_1 -->
<g id="node6" class="node">
<title>Node7_1</title>
<ellipse fill="#00bfff" stroke="#00bfff" cx="319" cy="-295" rx="59.59" ry="18"/>
<text text-anchor="middle" x="319" y="-291.3" font-family="Times,serif" font-size="14.00">समर्पितम्(7.1)</text>
</g>
<!-- Node2_1&#45;&gt;Node7_1 -->
<g id="edge2" class="edge">
<title>Node2_1&#45;&gt;Node7_1</title>
<path fill="none" stroke="black" d="M228.53,-230.44C249.69,-245.31 277.39,-264.77 296.54,-278.22"/>
<polygon fill="black" stroke="black" points="230.39,-227.47 220.19,-224.59 226.36,-233.2 230.39,-227.47"/>
<text text-anchor="middle" x="275" y="-247.8" font-family="Times,serif" font-size="14.00">कर्म</text>
</g>
<!-- Node1_1 -->
<g id="node5" class="node">
<title>Node1_1</title>
<ellipse fill="#6fffc3" stroke="#6fffc3" cx="319" cy="-208" rx="48.99" ry="18"/>
<text text-anchor="middle" x="319" y="-204.3" font-family="Times,serif" font-size="14.00">राजन्(1.1)</text>
</g>
<!-- Node1_1&#45;&gt;Node7_1 -->
<g id="edge1" class="edge">
<title>Node1_1&#45;&gt;Node7_1</title>
<path fill="none" stroke="black" d="M319,-236.27C319,-249.58 319,-265.19 319,-276.82"/>
<polygon fill="black" stroke="black" points="322.5,-236.2 319,-226.2 315.5,-236.2 322.5,-236.2"/>
<text text-anchor="middle" x="340" y="-247.8" font-family="Times,serif" font-size="14.00">सम्बोध्यः</text>
</g>
<!-- Node5_1 -->
<g id="node7" class="node">
<title>Node5_1</title>
<ellipse fill="#c6e2eb" stroke="#c6e2eb" cx="430" cy="-208" rx="44.39" ry="18"/>
<text text-anchor="middle" x="430" y="-204.3" font-family="Times,serif" font-size="14.00">मयि(5.1)</text>
</g>
<!-- Node5_1&#45;&gt;Node7_1 -->
<g id="edge5" class="edge">
<title>Node5_1&#45;&gt;Node7_1</title>
<path fill="none" stroke="black" d="M402.13,-230.49C390.65,-239.33 377.19,-249.67 365,-259 356.87,-265.22 347.92,-272.04 340.09,-277.99"/>
<polygon fill="black" stroke="black" points="404.32,-233.22 410.11,-224.35 400.05,-227.67 404.32,-233.22"/>
<text text-anchor="middle" x="409.5" y="-247.8" font-family="Times,serif" font-size="14.00">अधिकरणम्</text>
</g>
<!-- Node8_1 -->
<g id="node8" class="node">
<title>Node8_1</title>
<ellipse fill="#ff1975" stroke="#ff1975" cx="324" cy="-121" rx="55.79" ry="18"/>
<text text-anchor="middle" x="324" y="-117.3" font-family="Times,serif" font-size="14.00">वक्ष्यामि(8.1)</text>
</g>
<!-- Node10_1 -->
<g id="node9" class="node">
<title>Node10_1</title>
<ellipse fill="#00bfff" stroke="#00bfff" cx="210" cy="-34" rx="53.89" ry="18"/>
<text text-anchor="middle" x="210" y="-30.3" font-family="Times,serif" font-size="14.00">अहम्(10.1)</text>
</g>
<!-- Node10_1&#45;&gt;Node8_1 -->
<g id="edge8" class="edge">
<title>Node10_1&#45;&gt;Node8_1</title>
<path fill="none" stroke="black" d="M239.3,-56.85C259.2,-71.68 285.05,-90.96 302.94,-104.3"/>
<polygon fill="black" stroke="black" points="241.28,-53.96 231.18,-50.79 237.1,-59.57 241.28,-53.96"/>
<text text-anchor="middle" x="285" y="-73.8" font-family="Times,serif" font-size="14.00">कर्ता</text>
</g>
<!-- Node9_1 -->
<g id="node10" class="node">
<title>Node9_1</title>
<ellipse fill="#93db70" stroke="#93db70" cx="324" cy="-34" rx="42.49" ry="18"/>
<text text-anchor="middle" x="324" y="-30.3" font-family="Times,serif" font-size="14.00">तत्(9.1)</text>
</g>
<!-- Node9_1&#45;&gt;Node8_1 -->
<g id="edge7" class="edge">
<title>Node9_1&#45;&gt;Node8_1</title>
<path fill="none" stroke="black" d="M324,-62.27C324,-75.58 324,-91.19 324,-102.82"/>
<polygon fill="black" stroke="black" points="327.5,-62.2 324,-52.2 320.5,-62.2 327.5,-62.2"/>
<text text-anchor="middle" x="344" y="-73.8" font-family="Times,serif" font-size="14.00">मुख्यकर्म</text>
</g>
<!-- Node11_1 -->
<g id="node11" class="node">
<title>Node11_1</title>
<ellipse fill="#6fffc3" stroke="#6fffc3" cx="432" cy="-34" rx="48.19" ry="18"/>
<text text-anchor="middle" x="432" y="-30.3" font-family="Times,serif" font-size="14.00">वीर(11.1)</text>
</g>
<!-- Node11_1&#45;&gt;Node8_1 -->
<g id="edge9" class="edge">
<title>Node11_1&#45;&gt;Node8_1</title>
<path fill="none" stroke="black" d="M404.3,-56.8C385.61,-71.51 361.36,-90.6 344.42,-103.93"/>
<polygon fill="black" stroke="black" points="406.5,-59.53 412.19,-50.59 402.17,-54.02 406.5,-59.53"/>
<text text-anchor="middle" x="405" y="-73.8" font-family="Times,serif" font-size="14.00">सम्बोध्यः</text>
</g>
<!-- Node12_1 -->
<g id="node12" class="node">
<title>Node12_1</title>
<ellipse fill="#93db70" stroke="#93db70" cx="446" cy="-121" rx="48.19" ry="18"/>
<text text-anchor="middle" x="446" y="-117.3" font-family="Times,serif" font-size="14.00">तत्(12.1)</text>
</g>
<!-- Node13_1 -->
<g id="node13" class="node">
<title>Node13_1</title>
<ellipse fill="#ff1975" stroke="#ff1975" cx="569" cy="-208" rx="57.39" ry="18"/>
<text text-anchor="middle" x="569" y="-204.3" font-family="Times,serif" font-size="14.00">जुषस्व(13.1)</text>
</g>
<!-- Node12_1&#45;&gt;Node13_1 -->
<g id="edge10" class="edge">
<title>Node12_1&#45;&gt;Node13_1</title>
<path fill="none" stroke="black" d="M476.5,-143.08C498.15,-158.04 526.74,-177.79 546.37,-191.36"/>
<polygon fill="black" stroke="black" points="478.21,-140 467.99,-137.2 474.23,-145.76 478.21,-140"/>
<text text-anchor="middle" x="523" y="-160.8" font-family="Times,serif" font-size="14.00">कर्म</text>
</g>
<!-- Node15_1 -->
<g id="node14" class="node">
<title>Node15_1</title>
<ellipse fill="#00bfff" stroke="#00bfff" cx="569" cy="-121" rx="57.39" ry="18"/>
<text text-anchor="middle" x="569" y="-117.3" font-family="Times,serif" font-size="14.00">(त्वम्)(15.1)</text>
</g>
<!-- Node15_1&#45;&gt;Node13_1 -->
<g id="edge13" class="edge">
<title>Node15_1&#45;&gt;Node13_1</title>
<path fill="none" stroke="black" d="M569,-149.27C569,-162.58 569,-178.19 569,-189.82"/>
<polygon fill="black" stroke="black" points="572.5,-149.2 569,-139.2 565.5,-149.2 572.5,-149.2"/>
<text text-anchor="middle" x="580" y="-160.8" font-family="Times,serif" font-size="14.00">कर्ता</text>
</g>
<!-- Node14_1 -->
<g id="node15" class="node">
<title>Node14_1</title>
<ellipse fill="#ffff00" stroke="#ffff00" cx="701" cy="-34" rx="49.29" ry="18"/>
<text text-anchor="middle" x="701" y="-30.3" font-family="Times,serif" font-size="14.00">नर&#45;(14.1)</text>
</g>
<!-- Node14_2 -->
<g id="node16" class="node">
<title>Node14_2</title>
<ellipse fill="#6fffc3" stroke="#6fffc3" cx="701" cy="-121" rx="57.39" ry="18"/>
<text text-anchor="middle" x="701" y="-117.3" font-family="Times,serif" font-size="14.00">अधिप(14.2)</text>
</g>
<!-- Node14_1&#45;&gt;Node14_2 -->
<g id="edge11" class="edge">
<title>Node14_1&#45;&gt;Node14_2</title>
<path fill="none" stroke="black" d="M701,-62.27C701,-75.58 701,-91.19 701,-102.82"/>
<polygon fill="black" stroke="black" points="704.5,-62.2 701,-52.2 697.5,-62.2 704.5,-62.2"/>
<text text-anchor="middle" x="718" y="-73.8" font-family="Times,serif" font-size="14.00">समासः</text>
</g>
<!-- Node14_2&#45;&gt;Node13_1 -->
<g id="edge12" class="edge">
<title>Node14_2&#45;&gt;Node13_1</title>
<path fill="none" stroke="black" d="M668.57,-142.88C645.26,-157.89 614.34,-177.81 593.17,-191.43"/>
<polygon fill="black" stroke="black" points="670.58,-145.75 677.1,-137.39 666.79,-139.86 670.58,-145.75"/>
<text text-anchor="middle" x="663" y="-160.8" font-family="Times,serif" font-size="14.00">सम्बोध्यः</text>
</g>
</g>
</svg>
