<?xml version="1.0" encoding="UTF-8" standalone="no"?>
<!DOCTYPE svg PUBLIC "-//W3C//DTD SVG 1.1//EN"
 "http://www.w3.org/Graphics/SVG/1.1/DTD/svg11.dtd">
<!-- Generated by graphviz version 2.43.0 (0)
 -->
<!-- Title: G Pages: 1 -->
<svg width="964pt" height="479pt"
 viewBox="0.00 0.00 964.25 479.00" xmlns="http://www.w3.org/2000/svg" xmlns:xlink="http://www.w3.org/1999/xlink">
<g id="graph0" class="graph" transform="scale(1 1) rotate(0) translate(4 475)">
<title>G</title>
<polygon fill="#fffacd" stroke="transparent" points="-4,4 -4,-475 960.25,-475 960.25,4 -4,4"/>
<g id="clust1" class="cluster">
<title>cluster_1</title>
<polygon fill="#fffacd" stroke="black" points="8,-79 8,-218 148,-218 148,-79 8,-79"/>
</g>
<!-- Node12_1 -->
<g id="node1" class="node">
<title>Node12_1</title>
<ellipse fill="#c6e2eb" stroke="#c6e2eb" cx="78" cy="-105" rx="59.29" ry="18"/>
<text text-anchor="middle" x="78" y="-101.3" font-family="Times,serif" font-size="14.00">तस्मिन्(12.1)</text>
</g>
<!-- Node14_1 -->
<g id="node2" class="node">
<title>Node14_1</title>
<ellipse fill="#c6e2eb" stroke="#c6e2eb" cx="78" cy="-192" rx="61.99" ry="18"/>
<text text-anchor="middle" x="78" y="-188.3" font-family="Times,serif" font-size="14.00">नराधिपे(14.1)</text>
</g>
<!-- Node12_1&#45;&gt;Node14_1 -->
<g id="edge11" class="edge">
<title>Node12_1&#45;&gt;Node14_1</title>
<path fill="none" stroke="black" d="M78,-133.27C78,-146.58 78,-162.19 78,-173.82"/>
<polygon fill="black" stroke="black" points="81.5,-133.2 78,-123.2 74.5,-133.2 81.5,-133.2"/>
<text text-anchor="middle" x="100.5" y="-144.8" font-family="Times,serif" font-size="14.00">विशेषणम्</text>
</g>
<!-- Node16_1 -->
<g id="node16" class="node">
<title>Node16_1</title>
<ellipse fill="#ff1975" stroke="#ff1975" cx="277" cy="-279" rx="55.49" ry="18"/>
<text text-anchor="middle" x="277" y="-275.3" font-family="Times,serif" font-size="14.00">आस्म(16.1)</text>
</g>
<!-- Node14_1&#45;&gt;Node16_1 -->
<g id="edge13" class="edge">
<title>Node14_1&#45;&gt;Node16_1</title>
<path fill="none" stroke="black" d="M120.89,-211.32C158.13,-227.23 211.23,-249.91 244.9,-264.29"/>
<polygon fill="black" stroke="black" points="121.88,-207.94 111.31,-207.23 119.13,-214.37 121.88,-207.94"/>
<text text-anchor="middle" x="217.5" y="-231.8" font-family="Times,serif" font-size="14.00">अधिकरणम्</text>
</g>
<!-- Node1_1 -->
<g id="node3" class="node">
<title>Node1_1</title>
<ellipse fill="#ff99ff" stroke="#ff99ff" cx="471" cy="-105" rx="37.09" ry="18"/>
<text text-anchor="middle" x="471" y="-101.3" font-family="Times,serif" font-size="14.00">न(1.1)</text>
</g>
<!-- Node7_1 -->
<g id="node4" class="node">
<title>Node7_1</title>
<ellipse fill="#00bfff" stroke="#00bfff" cx="700" cy="-192" rx="55.49" ry="18"/>
<text text-anchor="middle" x="700" y="-188.3" font-family="Times,serif" font-size="14.00">कृतवान्(7.1)</text>
</g>
<!-- Node1_1&#45;&gt;Node7_1 -->
<g id="edge1" class="edge">
<title>Node1_1&#45;&gt;Node7_1</title>
<path fill="none" stroke="black" d="M506.41,-121.86C529.91,-132.14 561.54,-145.52 590,-156 613.13,-164.52 639.43,-172.93 660.51,-179.37"/>
<polygon fill="black" stroke="black" points="507.76,-118.63 497.2,-117.81 504.94,-125.04 507.76,-118.63"/>
<text text-anchor="middle" x="609.5" y="-144.8" font-family="Times,serif" font-size="14.00">प्रतिषेधः</text>
</g>
<!-- Node2_1 -->
<g id="node5" class="node">
<title>Node2_1</title>
<ellipse fill="#93db70" stroke="#93db70" cx="581" cy="-18" rx="53.89" ry="18"/>
<text text-anchor="middle" x="581" y="-14.3" font-family="Times,serif" font-size="14.00">स्वल्पम्(2.1)</text>
</g>
<!-- Node6_1 -->
<g id="node6" class="node">
<title>Node6_1</title>
<ellipse fill="#93db70" stroke="#93db70" cx="581" cy="-105" rx="54.69" ry="18"/>
<text text-anchor="middle" x="581" y="-101.3" font-family="Times,serif" font-size="14.00">व्यलीकं(6.1)</text>
</g>
<!-- Node2_1&#45;&gt;Node6_1 -->
<g id="edge2" class="edge">
<title>Node2_1&#45;&gt;Node6_1</title>
<path fill="none" stroke="black" d="M581,-46.27C581,-59.58 581,-75.19 581,-86.82"/>
<polygon fill="black" stroke="black" points="584.5,-46.2 581,-36.2 577.5,-46.2 584.5,-46.2"/>
<text text-anchor="middle" x="628" y="-57.8" font-family="Times,serif" font-size="14.00">कर्मसमानाधिकरणम्</text>
</g>
<!-- Node6_1&#45;&gt;Node7_1 -->
<g id="edge6" class="edge">
<title>Node6_1&#45;&gt;Node7_1</title>
<path fill="none" stroke="black" d="M611.02,-127.44C631.83,-142.31 659.08,-161.77 677.91,-175.22"/>
<polygon fill="black" stroke="black" points="613,-124.55 602.83,-121.59 608.93,-130.25 613,-124.55"/>
<text text-anchor="middle" x="656" y="-144.8" font-family="Times,serif" font-size="14.00">कर्म</text>
</g>
<!-- Node3_1 -->
<g id="node7" class="node">
<title>Node3_1</title>
<ellipse fill="#ff99ff" stroke="#ff99ff" cx="700" cy="-105" rx="46.29" ry="18"/>
<text text-anchor="middle" x="700" y="-101.3" font-family="Times,serif" font-size="14.00">अपि(3.1)</text>
</g>
<!-- Node3_1&#45;&gt;Node7_1 -->
<g id="edge3" class="edge">
<title>Node3_1&#45;&gt;Node7_1</title>
<path fill="none" stroke="black" d="M700,-133.27C700,-146.58 700,-162.19 700,-173.82"/>
<polygon fill="black" stroke="black" points="703.5,-133.2 700,-123.2 696.5,-133.2 703.5,-133.2"/>
<text text-anchor="middle" x="718.5" y="-144.8" font-family="Times,serif" font-size="14.00">सम्बन्धः</text>
</g>
<!-- Node4_1 -->
<g id="node8" class="node">
<title>Node4_1</title>
<ellipse fill="#00bfff" stroke="#00bfff" cx="809" cy="-105" rx="44.69" ry="18"/>
<text text-anchor="middle" x="809" y="-101.3" font-family="Times,serif" font-size="14.00">पुत्रः(4.1)</text>
</g>
<!-- Node4_1&#45;&gt;Node7_1 -->
<g id="edge4" class="edge">
<title>Node4_1&#45;&gt;Node7_1</title>
<path fill="none" stroke="black" d="M781.25,-127.64C762.26,-142.45 737.5,-161.75 720.33,-175.15"/>
<polygon fill="black" stroke="black" points="783.53,-130.3 789.26,-121.39 779.22,-124.78 783.53,-130.3"/>
<text text-anchor="middle" x="772" y="-144.8" font-family="Times,serif" font-size="14.00">कर्ता</text>
</g>
<!-- Node5_1 -->
<g id="node9" class="node">
<title>Node5_1</title>
<ellipse fill="#87ceeb" stroke="#87ceeb" cx="809" cy="-18" rx="37.09" ry="18"/>
<text text-anchor="middle" x="809" y="-14.3" font-family="Times,serif" font-size="14.00">ते(5.1)</text>
</g>
<!-- Node5_1&#45;&gt;Node4_1 -->
<g id="edge5" class="edge">
<title>Node5_1&#45;&gt;Node4_1</title>
<path fill="none" stroke="black" d="M809,-46.27C809,-59.58 809,-75.19 809,-86.82"/>
<polygon fill="black" stroke="black" points="812.5,-46.2 809,-36.2 805.5,-46.2 812.5,-46.2"/>
<text text-anchor="middle" x="836.5" y="-57.8" font-family="Times,serif" font-size="14.00">षष्ठीसम्बन्धः</text>
</g>
<!-- Node8_1 -->
<g id="node10" class="node">
<title>Node8_1</title>
<ellipse fill="#6fffc3" stroke="#6fffc3" cx="914" cy="-105" rx="42.49" ry="18"/>
<text text-anchor="middle" x="914" y="-101.3" font-family="Times,serif" font-size="14.00">नृप(8.1)</text>
</g>
<!-- Node8_1&#45;&gt;Node7_1 -->
<g id="edge7" class="edge">
<title>Node8_1&#45;&gt;Node7_1</title>
<path fill="none" stroke="black" d="M874.72,-121.6C834.3,-137.66 771.99,-162.4 733.73,-177.6"/>
<polygon fill="black" stroke="black" points="876.24,-124.76 884.24,-117.82 873.66,-118.26 876.24,-124.76"/>
<text text-anchor="middle" x="840" y="-144.8" font-family="Times,serif" font-size="14.00">सम्बोध्यः</text>
</g>
<!-- Node9_1 -->
<g id="node11" class="node">
<title>Node9_1</title>
<ellipse fill="#c6e2eb" stroke="#c6e2eb" cx="206" cy="-105" rx="50.09" ry="18"/>
<text text-anchor="middle" x="206" y="-101.3" font-family="Times,serif" font-size="14.00">पितरि(9.1)</text>
</g>
<!-- Node9_1&#45;&gt;Node14_1 -->
<g id="edge8" class="edge">
<title>Node9_1&#45;&gt;Node14_1</title>
<path fill="none" stroke="black" d="M174.56,-126.88C152,-141.86 122.07,-161.73 101.55,-175.36"/>
<polygon fill="black" stroke="black" points="176.72,-129.64 183.12,-121.2 172.85,-123.81 176.72,-129.64"/>
<text text-anchor="middle" x="170.5" y="-144.8" font-family="Times,serif" font-size="14.00">उपमानम्</text>
</g>
<!-- Node10_1 -->
<g id="node12" class="node">
<title>Node10_1</title>
<ellipse fill="#ff99ff" stroke="#ff99ff" cx="206" cy="-18" rx="46.59" ry="18"/>
<text text-anchor="middle" x="206" y="-14.3" font-family="Times,serif" font-size="14.00">इव(10.1)</text>
</g>
<!-- Node10_1&#45;&gt;Node9_1 -->
<g id="edge9" class="edge">
<title>Node10_1&#45;&gt;Node9_1</title>
<path fill="none" stroke="black" d="M206,-46.27C206,-59.58 206,-75.19 206,-86.82"/>
<polygon fill="black" stroke="black" points="209.5,-46.2 206,-36.2 202.5,-46.2 209.5,-46.2"/>
<text text-anchor="middle" x="242.5" y="-57.8" font-family="Times,serif" font-size="14.00">उपमान_द्योतकः</text>
</g>
<!-- Node11_1 -->
<g id="node13" class="node">
<title>Node11_1</title>
<ellipse fill="#00bfff" stroke="#00bfff" cx="345" cy="-105" rx="70.69" ry="18"/>
<text text-anchor="middle" x="345" y="-101.3" font-family="Times,serif" font-size="14.00">सुविश्वस्ताः(11.1)</text>
</g>
<!-- Node15_1 -->
<g id="node14" class="node">
<title>Node15_1</title>
<ellipse fill="#00bfff" stroke="#00bfff" cx="277" cy="-192" rx="51.99" ry="18"/>
<text text-anchor="middle" x="277" y="-188.3" font-family="Times,serif" font-size="14.00">वयम्(15.1)</text>
</g>
<!-- Node11_1&#45;&gt;Node15_1 -->
<g id="edge10" class="edge">
<title>Node11_1&#45;&gt;Node15_1</title>
<path fill="none" stroke="black" d="M325.27,-130.67C313.98,-144.77 300.14,-162.08 290.18,-174.53"/>
<polygon fill="black" stroke="black" points="328.05,-132.79 331.57,-122.79 322.59,-128.42 328.05,-132.79"/>
<text text-anchor="middle" x="355" y="-144.8" font-family="Times,serif" font-size="14.00">विधेय_विशेषणम्</text>
</g>
<!-- Node15_1&#45;&gt;Node16_1 -->
<g id="edge14" class="edge">
<title>Node15_1&#45;&gt;Node16_1</title>
<path fill="none" stroke="black" d="M277,-220.27C277,-233.58 277,-249.19 277,-260.82"/>
<polygon fill="black" stroke="black" points="280.5,-220.2 277,-210.2 273.5,-220.2 280.5,-220.2"/>
<text text-anchor="middle" x="288" y="-231.8" font-family="Times,serif" font-size="14.00">कर्ता</text>
</g>
<!-- Node13_1 -->
<g id="node15" class="node">
<title>Node13_1</title>
<ellipse fill="#ff99ff" stroke="#ff99ff" cx="399" cy="-192" rx="51.99" ry="18"/>
<text text-anchor="middle" x="399" y="-188.3" font-family="Times,serif" font-size="14.00">अपि(13.1)</text>
</g>
<!-- Node13_1&#45;&gt;Node16_1 -->
<g id="edge12" class="edge">
<title>Node13_1&#45;&gt;Node16_1</title>
<path fill="none" stroke="black" d="M368.46,-214.28C346.98,-229.24 318.73,-248.93 299.34,-262.43"/>
<polygon fill="black" stroke="black" points="370.7,-216.98 376.91,-208.39 366.7,-211.24 370.7,-216.98"/>
<text text-anchor="middle" x="364.5" y="-231.8" font-family="Times,serif" font-size="14.00">सम्बन्धः</text>
</g>
<!-- Node17_1 -->
<g id="node17" class="node">
<title>Node17_1</title>
<ellipse fill="#ff99ff" stroke="#ff99ff" cx="277" cy="-366" rx="50.89" ry="18"/>
<text text-anchor="middle" x="277" y="-362.3" font-family="Times,serif" font-size="14.00">यथा(17.1)</text>
</g>
<!-- Node16_1&#45;&gt;Node17_1 -->
<g id="edge15" class="edge">
<title>Node16_1&#45;&gt;Node17_1</title>
<path fill="none" stroke="black" stroke-dasharray="1,5" d="M277,-307.27C277,-320.58 277,-336.19 277,-347.82"/>
<polygon fill="black" stroke="black" points="280.5,-307.2 277,-297.2 273.5,-307.2 280.5,-307.2"/>
<text text-anchor="middle" x="298" y="-318.8" font-family="Times,serif" font-size="14.00">प्रतियोगी</text>
</g>
<!-- Node21_1 -->
<g id="node18" class="node">
<title>Node21_1</title>
<ellipse fill="#ff99ff" stroke="#ff99ff" cx="457" cy="-366" rx="50.89" ry="18"/>
<text text-anchor="middle" x="457" y="-362.3" font-family="Times,serif" font-size="14.00">तथा(21.1)</text>
</g>
<!-- Node17_1&#45;&gt;Node21_1 -->
<g id="edge16" class="edge">
<title>Node17_1&#45;&gt;Node21_1</title>
<path fill="none" stroke="red" stroke-dasharray="5,2" d="M338.36,-366C356.96,-366 377.39,-366 395.97,-366"/>
<polygon fill="red" stroke="red" points="338.1,-362.5 328.1,-366 338.1,-369.5 338.1,-362.5"/>
<polygon fill="red" stroke="red" points="396.08,-369.5 406.08,-366 396.08,-362.5 396.08,-369.5"/>
<text text-anchor="middle" x="367" y="-351.8" font-family="Times,serif" font-size="14.00">नित्यसम्बन्धः</text>
</g>
<!-- Node20_2 -->
<g id="node20" class="node">
<title>Node20_2</title>
<ellipse fill="#ff1975" stroke="#ff1975" cx="650" cy="-453" rx="62.29" ry="18"/>
<text text-anchor="middle" x="650" y="-449.3" font-family="Times,serif" font-size="14.00">(अस्ति)(20.2)</text>
</g>
<!-- Node21_1&#45;&gt;Node20_2 -->
<g id="edge20" class="edge">
<title>Node21_1&#45;&gt;Node20_2</title>
<path fill="none" stroke="black" d="M496.79,-384.9C518.17,-394.49 544.99,-406.45 569,-417 584.57,-423.84 601.86,-431.33 616.46,-437.62"/>
<polygon fill="black" stroke="black" points="497.94,-381.58 487.38,-380.68 495.07,-387.97 497.94,-381.58"/>
<text text-anchor="middle" x="589" y="-405.8" font-family="Times,serif" font-size="14.00">अनुयोगी</text>
</g>
<!-- Node18_1 -->
<g id="node19" class="node">
<title>Node18_1</title>
<ellipse fill="#ff99ff" stroke="#ff99ff" cx="584" cy="-366" rx="57.69" ry="18"/>
<text text-anchor="middle" x="584" y="-362.3" font-family="Times,serif" font-size="14.00">सम्यक्(18.1)</text>
</g>
<!-- Node18_1&#45;&gt;Node20_2 -->
<g id="edge17" class="edge">
<title>Node18_1&#45;&gt;Node20_2</title>
<path fill="none" stroke="black" d="M603.42,-392.01C614.24,-405.94 627.41,-422.91 636.99,-435.24"/>
<polygon fill="black" stroke="black" points="605.94,-389.55 597.04,-383.79 600.41,-393.84 605.94,-389.55"/>
<text text-anchor="middle" x="655" y="-405.8" font-family="Times,serif" font-size="14.00">क्रियाविशेषणम्</text>
</g>
<!-- Node19_1 -->
<g id="node21" class="node">
<title>Node19_1</title>
<ellipse fill="#87ceeb" stroke="#87ceeb" cx="716" cy="-366" rx="55.79" ry="18"/>
<text text-anchor="middle" x="716" y="-362.3" font-family="Times,serif" font-size="14.00">भवतः(19.1)</text>
</g>
<!-- Node19_1&#45;&gt;Node20_2 -->
<g id="edge18" class="edge">
<title>Node19_1&#45;&gt;Node20_2</title>
<path fill="none" stroke="black" d="M707.09,-393.65C703.71,-401.61 699.35,-410.06 694,-417 688.52,-424.11 681.29,-430.63 674.29,-436.07"/>
<polygon fill="black" stroke="black" points="710.35,-394.91 710.73,-384.32 703.83,-392.36 710.35,-394.91"/>
<text text-anchor="middle" x="713" y="-405.8" font-family="Times,serif" font-size="14.00">कर्ता</text>
</g>
<!-- Node20_1 -->
<g id="node22" class="node">
<title>Node20_1</title>
<ellipse fill="#93db70" stroke="#93db70" cx="846" cy="-366" rx="56.59" ry="18"/>
<text text-anchor="middle" x="846" y="-362.3" font-family="Times,serif" font-size="14.00">विदितं(20.1)</text>
</g>
<!-- Node20_1&#45;&gt;Node20_2 -->
<g id="edge19" class="edge">
<title>Node20_1&#45;&gt;Node20_2</title>
<path fill="none" stroke="black" d="M804.33,-385.07C768.15,-400.76 716.47,-423.18 683.07,-437.66"/>
<polygon fill="black" stroke="black" points="805.85,-388.23 813.63,-381.04 803.07,-381.8 805.85,-388.23"/>
<text text-anchor="middle" x="768" y="-405.8" font-family="Times,serif" font-size="14.00">कर्म</text>
</g>
</g>
</svg>
