<?xml version="1.0" encoding="UTF-8" standalone="no"?>
<!DOCTYPE svg PUBLIC "-//W3C//DTD SVG 1.1//EN"
 "http://www.w3.org/Graphics/SVG/1.1/DTD/svg11.dtd">
<!-- Generated by graphviz version 2.43.0 (0)
 -->
<!-- Title: G Pages: 1 -->
<svg width="889pt" height="392pt"
 viewBox="0.00 0.00 889.05 392.00" xmlns="http://www.w3.org/2000/svg" xmlns:xlink="http://www.w3.org/1999/xlink">
<g id="graph0" class="graph" transform="scale(1 1) rotate(0) translate(4 388)">
<title>G</title>
<polygon fill="#fffacd" stroke="transparent" points="-4,4 -4,-388 885.05,-388 885.05,4 -4,4"/>
<g id="clust1" class="cluster">
<title>cluster_1</title>
<polygon fill="#fffacd" stroke="black" points="631.05,-79 631.05,-218 873.05,-218 873.05,-79 631.05,-79"/>
</g>
<!-- Node1_2 -->
<g id="node1" class="node">
<title>Node1_2</title>
<ellipse fill="#93db70" stroke="#93db70" cx="803.05" cy="-105" rx="61.99" ry="18"/>
<text text-anchor="middle" x="803.05" y="-101.3" font-family="Times,serif" font-size="14.00">वियोगजम्(1.2)</text>
</g>
<!-- Node3_1 -->
<g id="node2" class="node">
<title>Node3_1</title>
<ellipse fill="#93db70" stroke="#93db70" cx="697.05" cy="-192" rx="58.49" ry="18"/>
<text text-anchor="middle" x="697.05" y="-188.3" font-family="Times,serif" font-size="14.00">आयासम्(3.1)</text>
</g>
<!-- Node1_2&#45;&gt;Node3_1 -->
<g id="edge2" class="edge">
<title>Node1_2&#45;&gt;Node3_1</title>
<path fill="none" stroke="black" d="M774.65,-128.77C756.47,-143.35 733.33,-161.91 717.06,-174.95"/>
<polygon fill="black" stroke="black" points="777,-131.38 782.61,-122.39 772.62,-125.91 777,-131.38"/>
<text text-anchor="middle" x="778.55" y="-144.8" font-family="Times,serif" font-size="14.00">विशेषणम्</text>
</g>
<!-- Node7_1 -->
<g id="node5" class="node">
<title>Node7_1</title>
<ellipse fill="#ff99ff" stroke="#ff99ff" cx="636.05" cy="-279" rx="51.19" ry="18"/>
<text text-anchor="middle" x="636.05" y="-275.3" font-family="Times,serif" font-size="14.00">विनीय(7.1)</text>
</g>
<!-- Node3_1&#45;&gt;Node7_1 -->
<g id="edge4" class="edge">
<title>Node3_1&#45;&gt;Node7_1</title>
<path fill="none" stroke="black" d="M679.1,-218.01C669.1,-231.94 656.92,-248.91 648.07,-261.24"/>
<polygon fill="black" stroke="black" points="682.01,-219.96 685,-209.79 676.32,-215.88 682.01,-219.96"/>
<text text-anchor="middle" x="679.05" y="-231.8" font-family="Times,serif" font-size="14.00">कर्म</text>
</g>
<!-- Node2_1 -->
<g id="node3" class="node">
<title>Node2_1</title>
<ellipse fill="#93db70" stroke="#93db70" cx="681.05" cy="-105" rx="42.49" ry="18"/>
<text text-anchor="middle" x="681.05" y="-101.3" font-family="Times,serif" font-size="14.00">तम्(2.1)</text>
</g>
<!-- Node2_1&#45;&gt;Node3_1 -->
<g id="edge3" class="edge">
<title>Node2_1&#45;&gt;Node3_1</title>
<path fill="none" stroke="black" d="M686.18,-133.27C688.69,-146.58 691.62,-162.19 693.81,-173.82"/>
<polygon fill="black" stroke="black" points="689.57,-132.38 684.28,-123.2 682.69,-133.68 689.57,-132.38"/>
<text text-anchor="middle" x="711.55" y="-144.8" font-family="Times,serif" font-size="14.00">विशेषणम्</text>
</g>
<!-- Node1_1 -->
<g id="node4" class="node">
<title>Node1_1</title>
<ellipse fill="#ffff00" stroke="#ffff00" cx="803.05" cy="-18" rx="57.69" ry="18"/>
<text text-anchor="middle" x="803.05" y="-14.3" font-family="Times,serif" font-size="14.00">कुरुराज&#45;(1.1)</text>
</g>
<!-- Node1_1&#45;&gt;Node1_2 -->
<g id="edge1" class="edge">
<title>Node1_1&#45;&gt;Node1_2</title>
<path fill="none" stroke="black" d="M803.05,-46.27C803.05,-59.58 803.05,-75.19 803.05,-86.82"/>
<polygon fill="black" stroke="black" points="806.55,-46.2 803.05,-36.2 799.55,-46.2 806.55,-46.2"/>
<text text-anchor="middle" x="820.05" y="-57.8" font-family="Times,serif" font-size="14.00">समासः</text>
</g>
<!-- Node11_1 -->
<g id="node7" class="node">
<title>Node11_1</title>
<ellipse fill="#ff1975" stroke="#ff1975" cx="308.05" cy="-366" rx="57.69" ry="18"/>
<text text-anchor="middle" x="308.05" y="-362.3" font-family="Times,serif" font-size="14.00">अब्रुवन्(11.1)</text>
</g>
<!-- Node7_1&#45;&gt;Node11_1 -->
<g id="edge8" class="edge">
<title>Node7_1&#45;&gt;Node11_1</title>
<path fill="none" stroke="black" d="M591.12,-295.58C559.7,-306.14 516.61,-319.96 478.05,-330 437.66,-340.52 391.21,-349.9 357.09,-356.3"/>
<polygon fill="black" stroke="black" points="592.55,-298.8 600.9,-292.28 590.3,-292.16 592.55,-298.8"/>
<text text-anchor="middle" x="551.55" y="-318.8" font-family="Times,serif" font-size="14.00">पूर्वकालः</text>
</g>
<!-- Node4_1 -->
<g id="node6" class="node">
<title>Node4_1</title>
<ellipse fill="#00bfff" stroke="#00bfff" cx="37.05" cy="-279" rx="37.09" ry="18"/>
<text text-anchor="middle" x="37.05" y="-275.3" font-family="Times,serif" font-size="14.00">ते(4.1)</text>
</g>
<!-- Node4_1&#45;&gt;Node11_1 -->
<g id="edge5" class="edge">
<title>Node4_1&#45;&gt;Node11_1</title>
<path fill="none" stroke="black" d="M71.74,-296.44C95.16,-307.07 126.99,-320.63 156.05,-330 190.07,-340.97 229.41,-349.94 259.55,-356.04"/>
<polygon fill="black" stroke="black" points="73.11,-293.22 62.56,-292.23 70.19,-299.58 73.11,-293.22"/>
<text text-anchor="middle" x="167.05" y="-318.8" font-family="Times,serif" font-size="14.00">कर्ता</text>
</g>
<!-- Node5_1 -->
<g id="node8" class="node">
<title>Node5_1</title>
<ellipse fill="#ff99ff" stroke="#ff99ff" cx="575.05" cy="-105" rx="45.49" ry="18"/>
<text text-anchor="middle" x="575.05" y="-101.3" font-family="Times,serif" font-size="14.00">शनैः(5.1)</text>
</g>
<!-- Node6_1 -->
<g id="node9" class="node">
<title>Node6_1</title>
<ellipse fill="#ff99ff" stroke="#ff99ff" cx="575.05" cy="-192" rx="45.49" ry="18"/>
<text text-anchor="middle" x="575.05" y="-188.3" font-family="Times,serif" font-size="14.00">शनैः(6.1)</text>
</g>
<!-- Node5_1&#45;&gt;Node6_1 -->
<g id="edge6" class="edge">
<title>Node5_1&#45;&gt;Node6_1</title>
<path fill="none" stroke="black" d="M575.05,-133.27C575.05,-146.58 575.05,-162.19 575.05,-173.82"/>
<polygon fill="black" stroke="black" points="578.55,-133.2 575.05,-123.2 571.55,-133.2 578.55,-133.2"/>
<text text-anchor="middle" x="589.05" y="-144.8" font-family="Times,serif" font-size="14.00">वीप्सा</text>
</g>
<!-- Node6_1&#45;&gt;Node7_1 -->
<g id="edge7" class="edge">
<title>Node6_1&#45;&gt;Node7_1</title>
<path fill="none" stroke="black" d="M578.6,-220.29C580.52,-228.09 583.49,-236.3 588.05,-243 593.56,-251.1 601.59,-258.01 609.51,-263.49"/>
<polygon fill="black" stroke="black" points="582.02,-219.53 576.63,-210.41 575.16,-220.9 582.02,-219.53"/>
<text text-anchor="middle" x="623.05" y="-231.8" font-family="Times,serif" font-size="14.00">क्रियाविशेषणम्</text>
</g>
<!-- Node8_1 -->
<g id="node10" class="node">
<title>Node8_1</title>
<ellipse fill="#ff99ff" stroke="#ff99ff" cx="136.05" cy="-279" rx="44.39" ry="18"/>
<text text-anchor="middle" x="136.05" y="-275.3" font-family="Times,serif" font-size="14.00">तदा(8.1)</text>
</g>
<!-- Node8_1&#45;&gt;Node11_1 -->
<g id="edge9" class="edge">
<title>Node8_1&#45;&gt;Node11_1</title>
<path fill="none" stroke="black" d="M162.88,-301.96C175.44,-311.49 190.94,-322.22 206.05,-330 224.86,-339.68 246.93,-347.64 265.73,-353.5"/>
<polygon fill="black" stroke="black" points="164.73,-298.97 154.69,-295.6 160.44,-304.5 164.73,-298.97"/>
<text text-anchor="middle" x="241.55" y="-318.8" font-family="Times,serif" font-size="14.00">कालाधिकरणम्</text>
</g>
<!-- Node9_1 -->
<g id="node11" class="node">
<title>Node9_1</title>
<ellipse fill="#93db70" stroke="#93db70" cx="259.05" cy="-279" rx="60.39" ry="18"/>
<text text-anchor="middle" x="259.05" y="-275.3" font-family="Times,serif" font-size="14.00">अन्योन्यम्(9.1)</text>
</g>
<!-- Node9_1&#45;&gt;Node11_1 -->
<g id="edge10" class="edge">
<title>Node9_1&#45;&gt;Node11_1</title>
<path fill="none" stroke="black" d="M273.92,-305.8C281.86,-319.58 291.41,-336.14 298.39,-348.24"/>
<polygon fill="black" stroke="black" points="276.75,-303.71 268.73,-296.79 270.69,-307.2 276.75,-303.71"/>
<text text-anchor="middle" x="306.55" y="-318.8" font-family="Times,serif" font-size="14.00">गौणकर्म</text>
</g>
<!-- Node10_1 -->
<g id="node12" class="node">
<title>Node10_1</title>
<ellipse fill="#ffff00" stroke="#ffff00" cx="395.05" cy="-192" rx="49.29" ry="18"/>
<text text-anchor="middle" x="395.05" y="-188.3" font-family="Times,serif" font-size="14.00">स्व&#45;(10.1)</text>
</g>
<!-- Node10_2 -->
<g id="node13" class="node">
<title>Node10_2</title>
<ellipse fill="#93db70" stroke="#93db70" cx="395.05" cy="-279" rx="57.69" ry="18"/>
<text text-anchor="middle" x="395.05" y="-275.3" font-family="Times,serif" font-size="14.00">मतानि(10.2)</text>
</g>
<!-- Node10_1&#45;&gt;Node10_2 -->
<g id="edge11" class="edge">
<title>Node10_1&#45;&gt;Node10_2</title>
<path fill="none" stroke="black" d="M395.05,-220.27C395.05,-233.58 395.05,-249.19 395.05,-260.82"/>
<polygon fill="black" stroke="black" points="398.55,-220.2 395.05,-210.2 391.55,-220.2 398.55,-220.2"/>
<text text-anchor="middle" x="412.05" y="-231.8" font-family="Times,serif" font-size="14.00">समासः</text>
</g>
<!-- Node10_2&#45;&gt;Node11_1 -->
<g id="edge12" class="edge">
<title>Node10_2&#45;&gt;Node11_1</title>
<path fill="none" stroke="black" d="M370.98,-303.52C356.29,-317.87 337.87,-335.86 324.77,-348.66"/>
<polygon fill="black" stroke="black" points="373.57,-305.88 378.27,-296.39 368.67,-300.87 373.57,-305.88"/>
<text text-anchor="middle" x="377.05" y="-318.8" font-family="Times,serif" font-size="14.00">मुख्यकर्म</text>
</g>
<!-- Node12_1 -->
<g id="node14" class="node">
<title>Node12_1</title>
<ellipse fill="#ff1975" stroke="#ff1975" cx="519.05" cy="-279" rx="48.19" ry="18"/>
<text text-anchor="middle" x="519.05" y="-275.3" font-family="Times,serif" font-size="14.00">युत(12.1)</text>
</g>
<!-- Node12_1&#45;&gt;Node11_1 -->
<g id="edge13" class="edge">
<title>Node12_1&#45;&gt;Node11_1</title>
<path fill="none" stroke="black" d="M479.27,-297.33C456.47,-307.15 427.26,-319.52 401.05,-330 382.31,-337.49 361.27,-345.45 343.95,-351.88"/>
<polygon fill="black" stroke="black" points="480.83,-300.47 488.63,-293.29 478.06,-294.04 480.83,-300.47"/>
<text text-anchor="middle" x="455.55" y="-318.8" font-family="Times,serif" font-size="14.00">सम्बन्धः</text>
</g>
</g>
</svg>
