<?xml version="1.0" encoding="UTF-8" standalone="no"?>
<!DOCTYPE svg PUBLIC "-//W3C//DTD SVG 1.1//EN"
 "http://www.w3.org/Graphics/SVG/1.1/DTD/svg11.dtd">
<!-- Generated by graphviz version 2.43.0 (0)
 -->
<!-- Title: G Pages: 1 -->
<svg width="882pt" height="321pt"
 viewBox="0.00 0.00 882.00 321.00" xmlns="http://www.w3.org/2000/svg" xmlns:xlink="http://www.w3.org/1999/xlink">
<g id="graph0" class="graph" transform="scale(1 1) rotate(0) translate(4 317)">
<title>G</title>
<polygon fill="#fffacd" stroke="transparent" points="-4,4 -4,-317 878,-317 878,4 -4,4"/>
<g id="clust1" class="cluster">
<title>cluster_1</title>
<polygon fill="#fffacd" stroke="black" points="8,-8 8,-147 126,-147 126,-8 8,-8"/>
</g>
<g id="clust2" class="cluster">
<title>cluster_2</title>
<polygon fill="#fffacd" stroke="black" points="134,-95 134,-234 272,-234 272,-95 134,-95"/>
</g>
<!-- Node1_1 -->
<g id="node1" class="node">
<title>Node1_1</title>
<ellipse fill="#87ceeb" stroke="#87ceeb" cx="67" cy="-34" rx="47.39" ry="18"/>
<text text-anchor="middle" x="67" y="-30.3" font-family="Times,serif" font-size="14.00">अस्य(1.1)</text>
</g>
<!-- Node3_1 -->
<g id="node2" class="node">
<title>Node3_1</title>
<ellipse fill="#87ceeb" stroke="#87ceeb" cx="67" cy="-121" rx="51.19" ry="18"/>
<text text-anchor="middle" x="67" y="-117.3" font-family="Times,serif" font-size="14.00">वंशस्य(3.1)</text>
</g>
<!-- Node1_1&#45;&gt;Node3_1 -->
<g id="edge1" class="edge">
<title>Node1_1&#45;&gt;Node3_1</title>
<path fill="none" stroke="black" d="M67,-62.27C67,-75.58 67,-91.19 67,-102.82"/>
<polygon fill="black" stroke="black" points="70.5,-62.2 67,-52.2 63.5,-62.2 70.5,-62.2"/>
<text text-anchor="middle" x="89.5" y="-73.8" font-family="Times,serif" font-size="14.00">विशेषणम्</text>
</g>
<!-- Node7_1 -->
<g id="node4" class="node">
<title>Node7_1</title>
<ellipse fill="#00bfff" stroke="#00bfff" cx="203" cy="-208" rx="46.29" ry="18"/>
<text text-anchor="middle" x="203" y="-204.3" font-family="Times,serif" font-size="14.00">राजा(7.1)</text>
</g>
<!-- Node3_1&#45;&gt;Node7_1 -->
<g id="edge3" class="edge">
<title>Node3_1&#45;&gt;Node7_1</title>
<path fill="none" stroke="black" d="M98.76,-143.03C112.57,-152.08 129,-162.69 144,-172 155.23,-178.97 167.81,-186.48 178.47,-192.75"/>
<polygon fill="black" stroke="black" points="100.37,-139.91 90.09,-137.34 96.53,-145.76 100.37,-139.91"/>
<text text-anchor="middle" x="171.5" y="-160.8" font-family="Times,serif" font-size="14.00">षष्ठीसम्बन्धः</text>
</g>
<!-- Node6_1 -->
<g id="node3" class="node">
<title>Node6_1</title>
<ellipse fill="#00bfff" stroke="#00bfff" cx="203" cy="-121" rx="61.19" ry="18"/>
<text text-anchor="middle" x="203" y="-117.3" font-family="Times,serif" font-size="14.00">प्रजापालः(6.1)</text>
</g>
<!-- Node6_1&#45;&gt;Node7_1 -->
<g id="edge6" class="edge">
<title>Node6_1&#45;&gt;Node7_1</title>
<path fill="none" stroke="black" d="M203,-149.27C203,-162.58 203,-178.19 203,-189.82"/>
<polygon fill="black" stroke="black" points="206.5,-149.2 203,-139.2 199.5,-149.2 206.5,-149.2"/>
<text text-anchor="middle" x="225.5" y="-160.8" font-family="Times,serif" font-size="14.00">विशेषणम्</text>
</g>
<!-- Node8_1 -->
<g id="node8" class="node">
<title>Node8_1</title>
<ellipse fill="#ff1975" stroke="#ff1975" cx="280" cy="-295" rx="53.89" ry="18"/>
<text text-anchor="middle" x="280" y="-291.3" font-family="Times,serif" font-size="14.00">आसीत्(8.1)</text>
</g>
<!-- Node7_1&#45;&gt;Node8_1 -->
<g id="edge7" class="edge">
<title>Node7_1&#45;&gt;Node8_1</title>
<path fill="none" stroke="black" d="M224.66,-232.91C237.6,-247.2 253.71,-264.98 265.2,-277.66"/>
<polygon fill="black" stroke="black" points="227.15,-230.45 217.85,-225.39 221.97,-235.15 227.15,-230.45"/>
<text text-anchor="middle" x="257" y="-247.8" font-family="Times,serif" font-size="14.00">कर्ता</text>
</g>
<!-- Node2_1 -->
<g id="node5" class="node">
<title>Node2_1</title>
<ellipse fill="#87ceeb" stroke="#87ceeb" cx="185" cy="-34" rx="50.89" ry="18"/>
<text text-anchor="middle" x="185" y="-30.3" font-family="Times,serif" font-size="14.00">राज्ञाम्(2.1)</text>
</g>
<!-- Node2_1&#45;&gt;Node3_1 -->
<g id="edge2" class="edge">
<title>Node2_1&#45;&gt;Node3_1</title>
<path fill="none" stroke="black" d="M155.15,-56.7C143.02,-65.5 128.85,-75.75 116,-85 107.17,-91.35 97.43,-98.32 88.98,-104.35"/>
<polygon fill="black" stroke="black" points="157.54,-59.28 163.58,-50.58 153.43,-53.62 157.54,-59.28"/>
<text text-anchor="middle" x="162.5" y="-73.8" font-family="Times,serif" font-size="14.00">षष्ठीसम्बन्धः</text>
</g>
<!-- Node4_1 -->
<g id="node6" class="node">
<title>Node4_1</title>
<ellipse fill="#ff99ff" stroke="#ff99ff" cx="291" cy="-34" rx="37.09" ry="18"/>
<text text-anchor="middle" x="291" y="-30.3" font-family="Times,serif" font-size="14.00">तु(4.1)</text>
</g>
<!-- Node4_1&#45;&gt;Node3_1 -->
<g id="edge4" class="edge">
<title>Node4_1&#45;&gt;Node3_1</title>
<path fill="none" stroke="black" d="M260.3,-54.06C241.75,-64.75 217.27,-77.41 194,-85 166.63,-93.93 157.77,-87.42 130,-95 119.1,-97.97 107.52,-102.23 97.3,-106.39"/>
<polygon fill="black" stroke="black" points="262.31,-56.94 269.16,-48.85 258.76,-50.91 262.31,-56.94"/>
<text text-anchor="middle" x="248.5" y="-73.8" font-family="Times,serif" font-size="14.00">सम्बन्धः</text>
</g>
<!-- Node5_1 -->
<g id="node7" class="node">
<title>Node5_1</title>
<ellipse fill="#00bfff" stroke="#00bfff" cx="320" cy="-208" rx="39.79" ry="18"/>
<text text-anchor="middle" x="320" y="-204.3" font-family="Times,serif" font-size="14.00">यः(5.1)</text>
</g>
<!-- Node5_1&#45;&gt;Node8_1 -->
<g id="edge5" class="edge">
<title>Node5_1&#45;&gt;Node8_1</title>
<path fill="none" stroke="black" d="M307.7,-235.13C301.3,-248.73 293.66,-264.98 288.02,-276.95"/>
<polygon fill="black" stroke="black" points="311.01,-236.33 312.1,-225.79 304.67,-233.35 311.01,-236.33"/>
<text text-anchor="middle" x="323" y="-247.8" font-family="Times,serif" font-size="14.00">प्रतियोगी</text>
</g>
<!-- Node9_1 -->
<g id="node9" class="node">
<title>Node9_1</title>
<ellipse fill="#00bfff" stroke="#00bfff" cx="796" cy="-208" rx="51.99" ry="18"/>
<text text-anchor="middle" x="796" y="-204.3" font-family="Times,serif" font-size="14.00">कश्चित्(9.1)</text>
</g>
<!-- Node14_1 -->
<g id="node10" class="node">
<title>Node14_1</title>
<ellipse fill="#ff1975" stroke="#ff1975" cx="598" cy="-295" rx="53.09" ry="18"/>
<text text-anchor="middle" x="598" y="-291.3" font-family="Times,serif" font-size="14.00">भवेत्(14.1)</text>
</g>
<!-- Node9_1&#45;&gt;Node14_1 -->
<g id="edge8" class="edge">
<title>Node9_1&#45;&gt;Node14_1</title>
<path fill="none" stroke="black" d="M769.33,-231.1C756.55,-240.78 740.66,-251.61 725,-259 699.15,-271.21 668.26,-279.84 643.42,-285.48"/>
<polygon fill="black" stroke="black" points="771.49,-233.85 777.23,-224.94 767.19,-228.32 771.49,-233.85"/>
<text text-anchor="middle" x="769" y="-247.8" font-family="Times,serif" font-size="14.00">अनुयोगी</text>
</g>
<!-- Node10_1 -->
<g id="node11" class="node">
<title>Node10_1</title>
<ellipse fill="#87ceeb" stroke="#87ceeb" cx="796" cy="-34" rx="63.89" ry="18"/>
<text text-anchor="middle" x="796" y="-30.3" font-family="Times,serif" font-size="14.00">प्रजानाम्(10.1)</text>
</g>
<!-- Node11_1 -->
<g id="node12" class="node">
<title>Node11_1</title>
<ellipse fill="#00bfff" stroke="#00bfff" cx="796" cy="-121" rx="59.29" ry="18"/>
<text text-anchor="middle" x="796" y="-117.3" font-family="Times,serif" font-size="14.00">अप्रियः(11.1)</text>
</g>
<!-- Node10_1&#45;&gt;Node11_1 -->
<g id="edge9" class="edge">
<title>Node10_1&#45;&gt;Node11_1</title>
<path fill="none" stroke="black" d="M796,-62.27C796,-75.58 796,-91.19 796,-102.82"/>
<polygon fill="black" stroke="black" points="799.5,-62.2 796,-52.2 792.5,-62.2 799.5,-62.2"/>
<text text-anchor="middle" x="823.5" y="-73.8" font-family="Times,serif" font-size="14.00">षष्ठीसम्बन्धः</text>
</g>
<!-- Node11_1&#45;&gt;Node9_1 -->
<g id="edge10" class="edge">
<title>Node11_1&#45;&gt;Node9_1</title>
<path fill="none" stroke="black" d="M796,-149.27C796,-162.58 796,-178.19 796,-189.82"/>
<polygon fill="black" stroke="black" points="799.5,-149.2 796,-139.2 792.5,-149.2 799.5,-149.2"/>
<text text-anchor="middle" x="835" y="-160.8" font-family="Times,serif" font-size="14.00">विधेय_विशेषणम्</text>
</g>
<!-- Node12_1 -->
<g id="node13" class="node">
<title>Node12_1</title>
<ellipse fill="#ff99ff" stroke="#ff99ff" cx="421" cy="-208" rx="42.79" ry="18"/>
<text text-anchor="middle" x="421" y="-204.3" font-family="Times,serif" font-size="14.00">न(12.1)</text>
</g>
<!-- Node12_1&#45;&gt;Node14_1 -->
<g id="edge11" class="edge">
<title>Node12_1&#45;&gt;Node14_1</title>
<path fill="none" stroke="black" d="M455.08,-227.51C473.29,-237.21 496.19,-249.1 517,-259 532.77,-266.5 550.56,-274.26 565.44,-280.56"/>
<polygon fill="black" stroke="black" points="456.48,-224.3 446.02,-222.66 453.18,-230.47 456.48,-224.3"/>
<text text-anchor="middle" x="536.5" y="-247.8" font-family="Times,serif" font-size="14.00">प्रतिषेधः</text>
</g>
<!-- Node13_1 -->
<g id="node14" class="node">
<title>Node13_1</title>
<ellipse fill="#ff99ff" stroke="#ff99ff" cx="533" cy="-208" rx="51.19" ry="18"/>
<text text-anchor="middle" x="533" y="-204.3" font-family="Times,serif" font-size="14.00">जातु(13.1)</text>
</g>
<!-- Node13_1&#45;&gt;Node14_1 -->
<g id="edge12" class="edge">
<title>Node13_1&#45;&gt;Node14_1</title>
<path fill="none" stroke="black" d="M551.71,-233.7C557.85,-241.77 564.7,-250.78 571,-259 575.57,-264.97 580.6,-271.5 585.07,-277.28"/>
<polygon fill="black" stroke="black" points="554.47,-231.54 545.64,-225.69 548.89,-235.77 554.47,-231.54"/>
<text text-anchor="middle" x="606.5" y="-247.8" font-family="Times,serif" font-size="14.00">कालाधिकरणम्</text>
</g>
<!-- Node15_1 -->
<g id="node15" class="node">
<title>Node15_1</title>
<ellipse fill="#ff99ff" stroke="#ff99ff" cx="664" cy="-208" rx="61.99" ry="18"/>
<text text-anchor="middle" x="664" y="-204.3" font-family="Times,serif" font-size="14.00">कदाचन(15.1)</text>
</g>
<!-- Node15_1&#45;&gt;Node14_1 -->
<g id="edge13" class="edge">
<title>Node15_1&#45;&gt;Node14_1</title>
<path fill="none" stroke="black" d="M655.09,-235.65C651.71,-243.61 647.35,-252.06 642,-259 636.28,-266.42 628.66,-273.2 621.37,-278.77"/>
<polygon fill="black" stroke="black" points="658.35,-236.91 658.73,-226.32 651.83,-234.36 658.35,-236.91"/>
<text text-anchor="middle" x="685.5" y="-247.8" font-family="Times,serif" font-size="14.00">कालाधिकरणम्</text>
</g>
</g>
</svg>
