<?xml version="1.0" encoding="UTF-8" standalone="no"?>
<!DOCTYPE svg PUBLIC "-//W3C//DTD SVG 1.1//EN"
 "http://www.w3.org/Graphics/SVG/1.1/DTD/svg11.dtd">
<!-- Generated by graphviz version 2.43.0 (0)
 -->
<!-- Title: G Pages: 1 -->
<svg width="1574pt" height="408pt"
 viewBox="0.00 0.00 1574.00 408.00" xmlns="http://www.w3.org/2000/svg" xmlns:xlink="http://www.w3.org/1999/xlink">
<g id="graph0" class="graph" transform="scale(1 1) rotate(0) translate(4 404)">
<title>G</title>
<polygon fill="#fffacd" stroke="transparent" points="-4,4 -4,-404 1570,-404 1570,4 -4,4"/>
<g id="clust1" class="cluster">
<title>cluster_1</title>
<polygon fill="#fffacd" stroke="black" points="8,-8 8,-147 556,-147 556,-8 8,-8"/>
</g>
<g id="clust2" class="cluster">
<title>cluster_2</title>
<polygon fill="#fffacd" stroke="black" points="564,-95 564,-234 690,-234 690,-95 564,-95"/>
</g>
<g id="clust3" class="cluster">
<title>cluster_3</title>
<polygon fill="#fffacd" stroke="black" points="698,-182 698,-321 971,-321 971,-182 698,-182"/>
</g>
<g id="clust4" class="cluster">
<title>cluster_4</title>
<polygon fill="#fffacd" stroke="black" points="804,-8 804,-147 948,-147 948,-8 804,-8"/>
</g>
<!-- Node1_1 -->
<g id="node1" class="node">
<title>Node1_1</title>
<ellipse fill="#87ceeb" stroke="#87ceeb" cx="488" cy="-34" rx="59.59" ry="18"/>
<text text-anchor="middle" x="488" y="-30.3" font-family="Times,serif" font-size="14.00">राजर्षीणां(1.1)</text>
</g>
<!-- Node5_2 -->
<g id="node2" class="node">
<title>Node5_2</title>
<ellipse fill="#87ceeb" stroke="#87ceeb" cx="419" cy="-121" rx="73.39" ry="18"/>
<text text-anchor="middle" x="419" y="-117.3" font-family="Times,serif" font-size="14.00">संवरणादीनाम्(5.2)</text>
</g>
<!-- Node1_1&#45;&gt;Node5_2 -->
<g id="edge1" class="edge">
<title>Node1_1&#45;&gt;Node5_2</title>
<path fill="none" stroke="black" d="M468.02,-59.61C456.65,-73.62 442.71,-90.79 432.6,-103.24"/>
<polygon fill="black" stroke="black" points="470.78,-61.76 474.37,-51.79 465.35,-57.35 470.78,-61.76"/>
<text text-anchor="middle" x="480.5" y="-73.8" font-family="Times,serif" font-size="14.00">विशेषणम्</text>
</g>
<!-- Node6_1 -->
<g id="node6" class="node">
<title>Node6_1</title>
<ellipse fill="#87ceeb" stroke="#87ceeb" cx="627" cy="-208" rx="55.49" ry="18"/>
<text text-anchor="middle" x="627" y="-204.3" font-family="Times,serif" font-size="14.00">भरतस्य(6.1)</text>
</g>
<!-- Node5_2&#45;&gt;Node6_1 -->
<g id="edge6" class="edge">
<title>Node5_2&#45;&gt;Node6_1</title>
<path fill="none" stroke="black" d="M464.79,-140.71C503.84,-156.67 559.05,-179.23 593.93,-193.48"/>
<polygon fill="black" stroke="black" points="465.81,-137.35 455.23,-136.81 463.16,-143.83 465.81,-137.35"/>
<text text-anchor="middle" x="558.5" y="-160.8" font-family="Times,serif" font-size="14.00">समुच्चितः</text>
</g>
<!-- Node2_1 -->
<g id="node3" class="node">
<title>Node2_1</title>
<ellipse fill="#87ceeb" stroke="#87ceeb" cx="351" cy="-34" rx="59.29" ry="18"/>
<text text-anchor="middle" x="351" y="-30.3" font-family="Times,serif" font-size="14.00">पुराणानां(2.1)</text>
</g>
<!-- Node2_1&#45;&gt;Node5_2 -->
<g id="edge2" class="edge">
<title>Node2_1&#45;&gt;Node5_2</title>
<path fill="none" stroke="black" d="M368.39,-60.35C374.12,-68.38 380.66,-77.2 387,-85 391.98,-91.13 397.73,-97.59 402.97,-103.26"/>
<polygon fill="black" stroke="black" points="371.14,-58.19 362.52,-52.03 365.42,-62.22 371.14,-58.19"/>
<text text-anchor="middle" x="409.5" y="-73.8" font-family="Times,serif" font-size="14.00">विशेषणम्</text>
</g>
<!-- Node3_1 -->
<g id="node4" class="node">
<title>Node3_1</title>
<ellipse fill="#87ceeb" stroke="#87ceeb" cx="224" cy="-34" rx="50.09" ry="18"/>
<text text-anchor="middle" x="224" y="-30.3" font-family="Times,serif" font-size="14.00">भवतां(3.1)</text>
</g>
<!-- Node3_1&#45;&gt;Node5_2 -->
<g id="edge3" class="edge">
<title>Node3_1&#45;&gt;Node5_2</title>
<path fill="none" stroke="black" d="M260.8,-53.85C280.29,-63.57 304.73,-75.38 327,-85 343.94,-92.32 362.96,-99.69 379.3,-105.77"/>
<polygon fill="black" stroke="black" points="262.18,-50.62 251.67,-49.26 259.03,-56.87 262.18,-50.62"/>
<text text-anchor="middle" x="349.5" y="-73.8" font-family="Times,serif" font-size="14.00">विशेषणम्</text>
</g>
<!-- Node4_1 -->
<g id="node5" class="node">
<title>Node4_1</title>
<ellipse fill="#87ceeb" stroke="#87ceeb" cx="86" cy="-34" rx="69.59" ry="18"/>
<text text-anchor="middle" x="86" y="-30.3" font-family="Times,serif" font-size="14.00">वंशधारिणाम्(4.1)</text>
</g>
<!-- Node4_1&#45;&gt;Node5_2 -->
<g id="edge4" class="edge">
<title>Node4_1&#45;&gt;Node5_2</title>
<path fill="none" stroke="black" d="M136.25,-52.03C167.82,-62.38 209.52,-75.39 247,-85 284.78,-94.69 327.78,-103.44 361.34,-109.76"/>
<polygon fill="black" stroke="black" points="136.97,-48.58 126.37,-48.77 134.77,-55.23 136.97,-48.58"/>
<text text-anchor="middle" x="269.5" y="-73.8" font-family="Times,serif" font-size="14.00">विशेषणम्</text>
</g>
<!-- Node9_1 -->
<g id="node14" class="node">
<title>Node9_1</title>
<ellipse fill="#93db70" stroke="#93db70" cx="641" cy="-295" rx="42.49" ry="18"/>
<text text-anchor="middle" x="641" y="-291.3" font-family="Times,serif" font-size="14.00">वृत्तं(9.1)</text>
</g>
<!-- Node6_1&#45;&gt;Node9_1 -->
<g id="edge7" class="edge">
<title>Node6_1&#45;&gt;Node9_1</title>
<path fill="none" stroke="black" d="M631.49,-236.27C633.68,-249.58 636.26,-265.19 638.17,-276.82"/>
<polygon fill="black" stroke="black" points="634.91,-235.5 629.83,-226.2 628,-236.64 634.91,-235.5"/>
<text text-anchor="middle" x="662.5" y="-247.8" font-family="Times,serif" font-size="14.00">षष्ठीसम्बन्धः</text>
</g>
<!-- Node8_1 -->
<g id="node7" class="node">
<title>Node8_1</title>
<ellipse fill="#87ceeb" stroke="#87ceeb" cx="627" cy="-121" rx="51.99" ry="18"/>
<text text-anchor="middle" x="627" y="-117.3" font-family="Times,serif" font-size="14.00">धीमतः(8.1)</text>
</g>
<!-- Node8_1&#45;&gt;Node6_1 -->
<g id="edge9" class="edge">
<title>Node8_1&#45;&gt;Node6_1</title>
<path fill="none" stroke="black" d="M627,-149.27C627,-162.58 627,-178.19 627,-189.82"/>
<polygon fill="black" stroke="black" points="630.5,-149.2 627,-139.2 623.5,-149.2 630.5,-149.2"/>
<text text-anchor="middle" x="649.5" y="-160.8" font-family="Times,serif" font-size="14.00">विशेषणम्</text>
</g>
<!-- Node12_1 -->
<g id="node8" class="node">
<title>Node12_1</title>
<ellipse fill="#00bfff" stroke="#00bfff" cx="915" cy="-208" rx="48.19" ry="18"/>
<text text-anchor="middle" x="915" y="-204.3" font-family="Times,serif" font-size="14.00">एष(12.1)</text>
</g>
<!-- Node13_1 -->
<g id="node9" class="node">
<title>Node13_1</title>
<ellipse fill="#00bfff" stroke="#00bfff" cx="777" cy="-295" rx="60.39" ry="18"/>
<text text-anchor="middle" x="777" y="-291.3" font-family="Times,serif" font-size="14.00">धर्मात्मा(13.1)</text>
</g>
<!-- Node12_1&#45;&gt;Node13_1 -->
<g id="edge11" class="edge">
<title>Node12_1&#45;&gt;Node13_1</title>
<path fill="none" stroke="black" d="M882.34,-229.11C857.8,-244.23 824.67,-264.64 802.16,-278.5"/>
<polygon fill="black" stroke="black" points="884.28,-232.03 890.96,-223.81 880.61,-226.07 884.28,-232.03"/>
<text text-anchor="middle" x="877.5" y="-247.8" font-family="Times,serif" font-size="14.00">विशेषणम्</text>
</g>
<!-- Node10_1 -->
<g id="node16" class="node">
<title>Node10_1</title>
<ellipse fill="#ff1975" stroke="#ff1975" cx="715" cy="-382" rx="68.49" ry="18"/>
<text text-anchor="middle" x="715" y="-378.3" font-family="Times,serif" font-size="14.00">समनुयाति(10.1)</text>
</g>
<!-- Node13_1&#45;&gt;Node10_1 -->
<g id="edge12" class="edge">
<title>Node13_1&#45;&gt;Node10_1</title>
<path fill="none" stroke="black" d="M758.76,-321.01C748.6,-334.94 736.22,-351.91 727.22,-364.24"/>
<polygon fill="black" stroke="black" points="761.69,-322.93 764.75,-312.79 756.03,-318.81 761.69,-322.93"/>
<text text-anchor="middle" x="761" y="-334.8" font-family="Times,serif" font-size="14.00">कर्ता</text>
</g>
<!-- Node14_1 -->
<g id="node10" class="node">
<title>Node14_1</title>
<ellipse fill="#00bfff" stroke="#00bfff" cx="777" cy="-208" rx="71.49" ry="18"/>
<text text-anchor="middle" x="777" y="-204.3" font-family="Times,serif" font-size="14.00">भूरिदक्षिणः(14.1)</text>
</g>
<!-- Node14_1&#45;&gt;Node13_1 -->
<g id="edge13" class="edge">
<title>Node14_1&#45;&gt;Node13_1</title>
<path fill="none" stroke="black" d="M777,-236.27C777,-249.58 777,-265.19 777,-276.82"/>
<polygon fill="black" stroke="black" points="780.5,-236.2 777,-226.2 773.5,-236.2 780.5,-236.2"/>
<text text-anchor="middle" x="799.5" y="-247.8" font-family="Times,serif" font-size="14.00">विशेषणम्</text>
</g>
<!-- Node19_1 -->
<g id="node11" class="node">
<title>Node19_1</title>
<ellipse fill="#93db70" stroke="#93db70" cx="876" cy="-34" rx="63.89" ry="18"/>
<text text-anchor="middle" x="876" y="-30.3" font-family="Times,serif" font-size="14.00">सुसूक्ष्मम्(19.1)</text>
</g>
<!-- Node17_1 -->
<g id="node12" class="node">
<title>Node17_1</title>
<ellipse fill="#93db70" stroke="#93db70" cx="882" cy="-121" rx="53.09" ry="18"/>
<text text-anchor="middle" x="882" y="-117.3" font-family="Times,serif" font-size="14.00">वाच्यं(17.1)</text>
</g>
<!-- Node19_1&#45;&gt;Node17_1 -->
<g id="edge18" class="edge">
<title>Node19_1&#45;&gt;Node17_1</title>
<path fill="none" stroke="black" d="M877.92,-62.27C878.86,-75.58 879.97,-91.19 880.79,-102.82"/>
<polygon fill="black" stroke="black" points="881.41,-61.93 877.21,-52.2 874.43,-62.42 881.41,-61.93"/>
<text text-anchor="middle" x="902.5" y="-73.8" font-family="Times,serif" font-size="14.00">विशेषणम्</text>
</g>
<!-- Node21_1 -->
<g id="node18" class="node">
<title>Node21_1</title>
<ellipse fill="#ff1975" stroke="#ff1975" cx="1175" cy="-208" rx="54.69" ry="18"/>
<text text-anchor="middle" x="1175" y="-204.3" font-family="Times,serif" font-size="14.00">विद्यते(21.1)</text>
</g>
<!-- Node17_1&#45;&gt;Node21_1 -->
<g id="edge16" class="edge">
<title>Node17_1&#45;&gt;Node21_1</title>
<path fill="none" stroke="black" d="M923.94,-138.88C931.56,-141.74 939.48,-144.56 947,-147 1010.27,-167.52 1085.08,-186.16 1131.29,-197.05"/>
<polygon fill="black" stroke="black" points="925.08,-135.57 914.49,-135.28 922.59,-142.11 925.08,-135.57"/>
<text text-anchor="middle" x="1037" y="-160.8" font-family="Times,serif" font-size="14.00">कर्म</text>
</g>
<!-- Node5_1 -->
<g id="node13" class="node">
<title>Node5_1</title>
<ellipse fill="#ffff00" stroke="#ffff00" cx="612" cy="-34" rx="46.29" ry="18"/>
<text text-anchor="middle" x="612" y="-30.3" font-family="Times,serif" font-size="14.00">कुरु&#45;(5.1)</text>
</g>
<!-- Node5_1&#45;&gt;Node5_2 -->
<g id="edge5" class="edge">
<title>Node5_1&#45;&gt;Node5_2</title>
<path fill="none" stroke="black" d="M575.49,-53.11C555.43,-62.88 530,-74.96 507,-85 490.73,-92.1 472.52,-99.44 456.91,-105.55"/>
<polygon fill="black" stroke="black" points="577.15,-56.2 584.59,-48.66 574.07,-49.91 577.15,-56.2"/>
<text text-anchor="middle" x="557" y="-73.8" font-family="Times,serif" font-size="14.00">समासः</text>
</g>
<!-- Node9_1&#45;&gt;Node10_1 -->
<g id="edge10" class="edge">
<title>Node9_1&#45;&gt;Node10_1</title>
<path fill="none" stroke="black" d="M662.12,-320.26C674.41,-334.37 689.59,-351.81 700.52,-364.37"/>
<polygon fill="black" stroke="black" points="664.47,-317.63 655.27,-312.39 659.19,-322.23 664.47,-317.63"/>
<text text-anchor="middle" x="692" y="-334.8" font-family="Times,serif" font-size="14.00">कर्म</text>
</g>
<!-- Node7_1 -->
<g id="node15" class="node">
<title>Node7_1</title>
<ellipse fill="#ff99ff" stroke="#ff99ff" cx="736" cy="-121" rx="37.89" ry="18"/>
<text text-anchor="middle" x="736" y="-117.3" font-family="Times,serif" font-size="14.00">च(7.1)</text>
</g>
<!-- Node7_1&#45;&gt;Node6_1 -->
<g id="edge8" class="edge">
<title>Node7_1&#45;&gt;Node6_1</title>
<path fill="none" stroke="black" d="M710.99,-143.55C700.35,-152.53 687.72,-162.95 676,-172 667.56,-178.52 658.07,-185.4 649.7,-191.32"/>
<polygon fill="black" stroke="black" points="713.34,-146.15 718.69,-137.01 708.8,-140.82 713.34,-146.15"/>
<text text-anchor="middle" x="733" y="-160.8" font-family="Times,serif" font-size="14.00">समुच्चय_द्योतकः</text>
</g>
<!-- Node15_1 -->
<g id="node17" class="node">
<title>Node15_1</title>
<ellipse fill="#ff99ff" stroke="#ff99ff" cx="999" cy="-121" rx="42.79" ry="18"/>
<text text-anchor="middle" x="999" y="-117.3" font-family="Times,serif" font-size="14.00">न(15.1)</text>
</g>
<!-- Node15_1&#45;&gt;Node21_1 -->
<g id="edge14" class="edge">
<title>Node15_1&#45;&gt;Node21_1</title>
<path fill="none" stroke="black" d="M1031.96,-141.27C1049.04,-150.96 1070.38,-162.61 1090,-172 1106.41,-179.86 1125.06,-187.66 1140.7,-193.89"/>
<polygon fill="black" stroke="black" points="1033.37,-138.05 1022.95,-136.12 1029.89,-144.12 1033.37,-138.05"/>
<text text-anchor="middle" x="1109.5" y="-160.8" font-family="Times,serif" font-size="14.00">प्रतिषेधः</text>
</g>
<!-- Node16_1 -->
<g id="node19" class="node">
<title>Node16_1</title>
<ellipse fill="#ff99ff" stroke="#ff99ff" cx="1110" cy="-121" rx="50.09" ry="18"/>
<text text-anchor="middle" x="1110" y="-117.3" font-family="Times,serif" font-size="14.00">अत्र(16.1)</text>
</g>
<!-- Node16_1&#45;&gt;Node21_1 -->
<g id="edge15" class="edge">
<title>Node16_1&#45;&gt;Node21_1</title>
<path fill="none" stroke="black" d="M1126.51,-147.63C1131.88,-155.59 1138.01,-164.29 1144,-172 1148.88,-178.28 1154.57,-184.88 1159.73,-190.64"/>
<polygon fill="black" stroke="black" points="1129.26,-145.44 1120.81,-139.05 1123.43,-149.31 1129.26,-145.44"/>
<text text-anchor="middle" x="1181" y="-160.8" font-family="Times,serif" font-size="14.00">विषयाधिकरणम्</text>
</g>
<!-- Node18_1 -->
<g id="node20" class="node">
<title>Node18_1</title>
<ellipse fill="#6fffc3" stroke="#6fffc3" cx="1240" cy="-121" rx="61.99" ry="18"/>
<text text-anchor="middle" x="1240" y="-117.3" font-family="Times,serif" font-size="14.00">महाराज(18.1)</text>
</g>
<!-- Node18_1&#45;&gt;Node21_1 -->
<g id="edge17" class="edge">
<title>Node18_1&#45;&gt;Node21_1</title>
<path fill="none" stroke="black" d="M1231.04,-148.61C1227.66,-156.57 1223.31,-165.03 1218,-172 1212.52,-179.2 1205.26,-185.83 1198.28,-191.34"/>
<polygon fill="black" stroke="black" points="1234.3,-149.87 1234.69,-139.29 1227.78,-147.32 1234.3,-149.87"/>
<text text-anchor="middle" x="1247" y="-160.8" font-family="Times,serif" font-size="14.00">सम्बोध्यः</text>
</g>
<!-- Node19_2 -->
<g id="node21" class="node">
<title>Node19_2</title>
<ellipse fill="#00bfff" stroke="#00bfff" cx="1382" cy="-121" rx="62.29" ry="18"/>
<text text-anchor="middle" x="1382" y="-117.3" font-family="Times,serif" font-size="14.00">(भवान्)(19.2)</text>
</g>
<!-- Node19_2&#45;&gt;Node21_1 -->
<g id="edge19" class="edge">
<title>Node19_2&#45;&gt;Node21_1</title>
<path fill="none" stroke="black" d="M1341.87,-141.18C1321.17,-150.83 1295.42,-162.47 1272,-172 1252.27,-180.03 1229.92,-188.16 1211.65,-194.56"/>
<polygon fill="black" stroke="black" points="1343.43,-144.31 1351,-136.9 1340.46,-137.97 1343.43,-144.31"/>
<text text-anchor="middle" x="1316" y="-160.8" font-family="Times,serif" font-size="14.00">कर्ता</text>
</g>
<!-- Node20_1 -->
<g id="node22" class="node">
<title>Node20_1</title>
<ellipse fill="#ff99ff" stroke="#ff99ff" cx="1514" cy="-121" rx="51.99" ry="18"/>
<text text-anchor="middle" x="1514" y="-117.3" font-family="Times,serif" font-size="14.00">अपि(20.1)</text>
</g>
<!-- Node20_1&#45;&gt;Node21_1 -->
<g id="edge20" class="edge">
<title>Node20_1&#45;&gt;Node21_1</title>
<path fill="none" stroke="black" d="M1474.32,-139.44C1467.29,-142.19 1459.99,-144.83 1453,-147 1373.77,-171.57 1278.81,-189.73 1222.88,-199.32"/>
<polygon fill="black" stroke="black" points="1475.7,-142.65 1483.67,-135.66 1473.08,-136.16 1475.7,-142.65"/>
<text text-anchor="middle" x="1433.5" y="-160.8" font-family="Times,serif" font-size="14.00">सम्बन्धः</text>
</g>
</g>
</svg>
