<?xml version="1.0" encoding="UTF-8" standalone="no"?>
<!DOCTYPE svg PUBLIC "-//W3C//DTD SVG 1.1//EN"
 "http://www.w3.org/Graphics/SVG/1.1/DTD/svg11.dtd">
<!-- Generated by graphviz version 2.43.0 (0)
 -->
<!-- Title: G Pages: 1 -->
<svg width="662pt" height="321pt"
 viewBox="0.00 0.00 661.65 321.00" xmlns="http://www.w3.org/2000/svg" xmlns:xlink="http://www.w3.org/1999/xlink">
<g id="graph0" class="graph" transform="scale(1 1) rotate(0) translate(4 317)">
<title>G</title>
<polygon fill="#fffacd" stroke="transparent" points="-4,4 -4,-317 657.65,-317 657.65,4 -4,4"/>
<g id="clust1" class="cluster">
<title>cluster_1</title>
<polygon fill="#fffacd" stroke="black" points="426,-8 426,-147 566,-147 566,-8 426,-8"/>
</g>
<g id="clust2" class="cluster">
<title>cluster_2</title>
<polygon fill="#fffacd" stroke="black" points="225,-182 225,-234 333,-234 333,-182 225,-182"/>
</g>
<g id="clust3" class="cluster">
<title>cluster_3</title>
<polygon fill="#fffacd" stroke="black" points="8,-95 8,-234 122,-234 122,-95 8,-95"/>
</g>
<!-- Node1_1 -->
<g id="node1" class="node">
<title>Node1_1</title>
<ellipse fill="#00bfff" stroke="#00bfff" cx="496" cy="-34" rx="40.09" ry="18"/>
<text text-anchor="middle" x="496" y="-30.3" font-family="Times,serif" font-size="14.00">सः(1.1)</text>
</g>
<!-- Node3_1 -->
<g id="node2" class="node">
<title>Node3_1</title>
<ellipse fill="#00bfff" stroke="#00bfff" cx="496" cy="-121" rx="61.99" ry="18"/>
<text text-anchor="middle" x="496" y="-117.3" font-family="Times,serif" font-size="14.00">सम्पूजितः(3.1)</text>
</g>
<!-- Node1_1&#45;&gt;Node3_1 -->
<g id="edge1" class="edge">
<title>Node1_1&#45;&gt;Node3_1</title>
<path fill="none" stroke="black" d="M496,-62.27C496,-75.58 496,-91.19 496,-102.82"/>
<polygon fill="black" stroke="black" points="499.5,-62.2 496,-52.2 492.5,-62.2 499.5,-62.2"/>
<text text-anchor="middle" x="518.5" y="-73.8" font-family="Times,serif" font-size="14.00">विशेषणम्</text>
</g>
<!-- Node4_1 -->
<g id="node3" class="node">
<title>Node4_1</title>
<ellipse fill="#00bfff" stroke="#00bfff" cx="279" cy="-208" rx="46.29" ry="18"/>
<text text-anchor="middle" x="279" y="-204.3" font-family="Times,serif" font-size="14.00">राजा(4.1)</text>
</g>
<!-- Node3_1&#45;&gt;Node4_1 -->
<g id="edge3" class="edge">
<title>Node3_1&#45;&gt;Node4_1</title>
<path fill="none" stroke="black" d="M469.09,-144.49C455.51,-154.6 438.28,-165.67 421,-172 384.45,-185.39 371.51,-171.6 334,-182 324.3,-184.69 314.14,-188.88 305.23,-193.06"/>
<polygon fill="black" stroke="black" points="471.25,-147.24 477.04,-138.37 466.98,-141.69 471.25,-147.24"/>
<text text-anchor="middle" x="472.5" y="-160.8" font-family="Times,serif" font-size="14.00">विशेषणम्</text>
</g>
<!-- Node8_1 -->
<g id="node7" class="node">
<title>Node8_1</title>
<ellipse fill="#ff1975" stroke="#ff1975" cx="360" cy="-295" rx="63.89" ry="18"/>
<text text-anchor="middle" x="360" y="-291.3" font-family="Times,serif" font-size="14.00">पूजयामास(8.1)</text>
</g>
<!-- Node4_1&#45;&gt;Node8_1 -->
<g id="edge4" class="edge">
<title>Node4_1&#45;&gt;Node8_1</title>
<path fill="none" stroke="black" d="M301.74,-232.86C315.26,-247.05 332.07,-264.69 344.15,-277.37"/>
<polygon fill="black" stroke="black" points="304.05,-230.21 294.62,-225.39 298.98,-235.04 304.05,-230.21"/>
<text text-anchor="middle" x="336" y="-247.8" font-family="Times,serif" font-size="14.00">कर्ता</text>
</g>
<!-- Node9_1 -->
<g id="node4" class="node">
<title>Node9_1</title>
<ellipse fill="#93db70" stroke="#93db70" cx="65" cy="-121" rx="37.09" ry="18"/>
<text text-anchor="middle" x="65" y="-117.3" font-family="Times,serif" font-size="14.00">तं(9.1)</text>
</g>
<!-- Node10_1 -->
<g id="node5" class="node">
<title>Node10_1</title>
<ellipse fill="#93db70" stroke="#93db70" cx="65" cy="-208" rx="48.99" ry="18"/>
<text text-anchor="middle" x="65" y="-204.3" font-family="Times,serif" font-size="14.00">जनं(10.1)</text>
</g>
<!-- Node9_1&#45;&gt;Node10_1 -->
<g id="edge8" class="edge">
<title>Node9_1&#45;&gt;Node10_1</title>
<path fill="none" stroke="black" d="M65,-149.27C65,-162.58 65,-178.19 65,-189.82"/>
<polygon fill="black" stroke="black" points="68.5,-149.2 65,-139.2 61.5,-149.2 68.5,-149.2"/>
<text text-anchor="middle" x="87.5" y="-160.8" font-family="Times,serif" font-size="14.00">विशेषणम्</text>
</g>
<!-- Node10_1&#45;&gt;Node8_1 -->
<g id="edge9" class="edge">
<title>Node10_1&#45;&gt;Node8_1</title>
<path fill="none" stroke="black" d="M112.1,-222.57C168.47,-238.81 262.1,-265.79 316.73,-281.53"/>
<polygon fill="black" stroke="black" points="112.94,-219.17 102.36,-219.77 111,-225.9 112.94,-219.17"/>
<text text-anchor="middle" x="240" y="-247.8" font-family="Times,serif" font-size="14.00">कर्म</text>
</g>
<!-- Node2_1 -->
<g id="node6" class="node">
<title>Node2_1</title>
<ellipse fill="#40e0d0" stroke="#40e0d0" cx="614" cy="-34" rx="39.79" ry="18"/>
<text text-anchor="middle" x="614" y="-30.3" font-family="Times,serif" font-size="14.00">तैः(2.1)</text>
</g>
<!-- Node2_1&#45;&gt;Node3_1 -->
<g id="edge2" class="edge">
<title>Node2_1&#45;&gt;Node3_1</title>
<path fill="none" stroke="black" d="M585.6,-55.65C573.16,-64.68 558.37,-75.38 545,-85 536.34,-91.23 526.81,-98.05 518.47,-104"/>
<polygon fill="black" stroke="black" points="587.76,-58.4 593.8,-49.69 583.65,-52.74 587.76,-58.4"/>
<text text-anchor="middle" x="574" y="-73.8" font-family="Times,serif" font-size="14.00">कर्ता</text>
</g>
<!-- Node5_1 -->
<g id="node8" class="node">
<title>Node5_1</title>
<ellipse fill="#00bfff" stroke="#00bfff" cx="203" cy="-121" rx="72.59" ry="18"/>
<text text-anchor="middle" x="203" y="-117.3" font-family="Times,serif" font-size="14.00">शिवेनावेक्षितः(5.1)</text>
</g>
<!-- Node5_1&#45;&gt;Node4_1 -->
<g id="edge5" class="edge">
<title>Node5_1&#45;&gt;Node4_1</title>
<path fill="none" stroke="black" d="M224.75,-146.32C237.51,-160.6 253.29,-178.24 264.53,-190.82"/>
<polygon fill="black" stroke="black" points="227.29,-143.92 218.02,-138.79 222.07,-148.58 227.29,-143.92"/>
<text text-anchor="middle" x="285" y="-160.8" font-family="Times,serif" font-size="14.00">विधेय_विशेषणम्</text>
</g>
<!-- Node6_1 -->
<g id="node9" class="node">
<title>Node6_1</title>
<ellipse fill="#ff99ff" stroke="#ff99ff" cx="387" cy="-208" rx="44.39" ry="18"/>
<text text-anchor="middle" x="387" y="-204.3" font-family="Times,serif" font-size="14.00">तदा(6.1)</text>
</g>
<!-- Node6_1&#45;&gt;Node8_1 -->
<g id="edge6" class="edge">
<title>Node6_1&#45;&gt;Node8_1</title>
<path fill="none" stroke="black" d="M378.46,-235.87C374.21,-249.27 369.19,-265.08 365.46,-276.82"/>
<polygon fill="black" stroke="black" points="381.84,-236.79 381.54,-226.2 375.17,-234.67 381.84,-236.79"/>
<text text-anchor="middle" x="411.5" y="-247.8" font-family="Times,serif" font-size="14.00">कालाधिकरणम्</text>
</g>
<!-- Node7_1 -->
<g id="node10" class="node">
<title>Node7_1</title>
<ellipse fill="#00bfff" stroke="#00bfff" cx="355" cy="-121" rx="61.19" ry="18"/>
<text text-anchor="middle" x="355" y="-117.3" font-family="Times,serif" font-size="14.00">प्राञ्जलिः(7.1)</text>
</g>
<!-- Node7_1&#45;&gt;Node4_1 -->
<g id="edge7" class="edge">
<title>Node7_1&#45;&gt;Node4_1</title>
<path fill="none" stroke="black" d="M343.73,-148.15C339.5,-156.3 334.19,-164.98 328,-172 321.08,-179.84 312.09,-186.9 303.71,-192.58"/>
<polygon fill="black" stroke="black" points="346.98,-149.48 348.2,-138.95 340.68,-146.42 346.98,-149.48"/>
<text text-anchor="middle" x="378" y="-160.8" font-family="Times,serif" font-size="14.00">विधेय_विशेषणम्</text>
</g>
<!-- Node11_1 -->
<g id="node11" class="node">
<title>Node11_1</title>
<ellipse fill="#6fffc3" stroke="#6fffc3" cx="512" cy="-208" rx="63.09" ry="18"/>
<text text-anchor="middle" x="512" y="-204.3" font-family="Times,serif" font-size="14.00">भरतर्षभ(11.1)</text>
</g>
<!-- Node11_1&#45;&gt;Node8_1 -->
<g id="edge10" class="edge">
<title>Node11_1&#45;&gt;Node8_1</title>
<path fill="none" stroke="black" d="M487.34,-232.26C476.73,-241.43 463.83,-251.54 451,-259 435.64,-267.94 417.57,-275.43 401.6,-281.16"/>
<polygon fill="black" stroke="black" points="489.81,-234.74 494.97,-225.49 485.16,-229.51 489.81,-234.74"/>
<text text-anchor="middle" x="494" y="-247.8" font-family="Times,serif" font-size="14.00">सम्बोध्यः</text>
</g>
</g>
</svg>
