<?xml version="1.0" encoding="UTF-8" standalone="no"?>
<!DOCTYPE svg PUBLIC "-//W3C//DTD SVG 1.1//EN"
 "http://www.w3.org/Graphics/SVG/1.1/DTD/svg11.dtd">
<!-- Generated by graphviz version 2.43.0 (0)
 -->
<!-- Title: G Pages: 1 -->
<svg width="790pt" height="392pt"
 viewBox="0.00 0.00 789.85 392.00" xmlns="http://www.w3.org/2000/svg" xmlns:xlink="http://www.w3.org/1999/xlink">
<g id="graph0" class="graph" transform="scale(1 1) rotate(0) translate(4 388)">
<title>G</title>
<polygon fill="#fffacd" stroke="transparent" points="-4,4 -4,-388 785.85,-388 785.85,4 -4,4"/>
<g id="clust1" class="cluster">
<title>cluster_1</title>
<polygon fill="#fffacd" stroke="black" points="245.85,-79 245.85,-218 773.85,-218 773.85,-79 245.85,-79"/>
</g>
<g id="clust2" class="cluster">
<title>cluster_2</title>
<polygon fill="#fffacd" stroke="black" points="99.85,-166 99.85,-305 237.85,-305 237.85,-166 99.85,-166"/>
</g>
<!-- Node2_1 -->
<g id="node1" class="node">
<title>Node2_1</title>
<ellipse fill="#00bfff" stroke="#00bfff" cx="709.85" cy="-105" rx="55.79" ry="18"/>
<text text-anchor="middle" x="709.85" y="-101.3" font-family="Times,serif" font-size="14.00">कृतप्रज्ञः(2.1)</text>
</g>
<!-- Node1_1 -->
<g id="node2" class="node">
<title>Node1_1</title>
<ellipse fill="#00bfff" stroke="#00bfff" cx="385.85" cy="-192" rx="56.59" ry="18"/>
<text text-anchor="middle" x="385.85" y="-188.3" font-family="Times,serif" font-size="14.00">दीर्घदर्शी(1.1)</text>
</g>
<!-- Node2_1&#45;&gt;Node1_1 -->
<g id="edge2" class="edge">
<title>Node2_1&#45;&gt;Node1_1</title>
<path fill="none" stroke="black" d="M664.59,-122.16C634.11,-132.68 592.87,-146.21 555.85,-156 515.21,-166.75 468.38,-176.17 434.17,-182.53"/>
<polygon fill="black" stroke="black" points="665.79,-125.45 674.09,-118.86 663.49,-118.83 665.79,-125.45"/>
<text text-anchor="middle" x="629.35" y="-144.8" font-family="Times,serif" font-size="14.00">समुच्चितः</text>
</g>
<!-- Node9_1 -->
<g id="node7" class="node">
<title>Node9_1</title>
<ellipse fill="#00bfff" stroke="#00bfff" cx="168.85" cy="-279" rx="61.19" ry="18"/>
<text text-anchor="middle" x="168.85" y="-275.3" font-family="Times,serif" font-size="14.00">कुन्तीपुत्रः(9.1)</text>
</g>
<!-- Node1_1&#45;&gt;Node9_1 -->
<g id="edge1" class="edge">
<title>Node1_1&#45;&gt;Node9_1</title>
<path fill="none" stroke="black" d="M342.08,-210.14C301.48,-226.05 241.8,-249.42 204.15,-264.17"/>
<polygon fill="black" stroke="black" points="343.43,-213.37 351.46,-206.47 340.87,-206.86 343.43,-213.37"/>
<text text-anchor="middle" x="328.85" y="-231.8" font-family="Times,serif" font-size="14.00">विधेय_विशेषणम्</text>
</g>
<!-- Node4_1 -->
<g id="node3" class="node">
<title>Node4_1</title>
<ellipse fill="#00bfff" stroke="#00bfff" cx="455.85" cy="-105" rx="55.79" ry="18"/>
<text text-anchor="middle" x="455.85" y="-101.3" font-family="Times,serif" font-size="14.00">वैश्रवणः(4.1)</text>
</g>
<!-- Node4_1&#45;&gt;Node1_1 -->
<g id="edge4" class="edge">
<title>Node4_1&#45;&gt;Node1_1</title>
<path fill="none" stroke="black" d="M435.58,-130.61C424.04,-144.62 409.9,-161.79 399.65,-174.24"/>
<polygon fill="black" stroke="black" points="438.36,-132.74 442.02,-122.79 432.96,-128.29 438.36,-132.74"/>
<text text-anchor="middle" x="447.35" y="-144.8" font-family="Times,serif" font-size="14.00">समुच्चितः</text>
</g>
<!-- Node6_2 -->
<g id="node4" class="node">
<title>Node6_2</title>
<ellipse fill="#00bfff" stroke="#00bfff" cx="582.85" cy="-105" rx="52.79" ry="18"/>
<text text-anchor="middle" x="582.85" y="-101.3" font-family="Times,serif" font-size="14.00">सचिवः(6.2)</text>
</g>
<!-- Node6_2&#45;&gt;Node1_1 -->
<g id="edge7" class="edge">
<title>Node6_2&#45;&gt;Node1_1</title>
<path fill="none" stroke="black" d="M544.29,-124.27C523.53,-133.96 497.42,-145.91 473.85,-156 456.46,-163.44 436.94,-171.26 420.71,-177.61"/>
<polygon fill="black" stroke="black" points="545.85,-127.41 553.42,-120 542.88,-121.07 545.85,-127.41"/>
<text text-anchor="middle" x="529.35" y="-144.8" font-family="Times,serif" font-size="14.00">समुच्चितः</text>
</g>
<!-- Node10_1 -->
<g id="node5" class="node">
<title>Node10_1</title>
<ellipse fill="#00bfff" stroke="#00bfff" cx="317.85" cy="-105" rx="64.19" ry="18"/>
<text text-anchor="middle" x="317.85" y="-101.3" font-family="Times,serif" font-size="14.00">महामनाः(10.1)</text>
</g>
<!-- Node10_1&#45;&gt;Node1_1 -->
<g id="edge11" class="edge">
<title>Node10_1&#45;&gt;Node1_1</title>
<path fill="none" stroke="black" d="M337.54,-130.61C348.74,-144.62 362.48,-161.79 372.44,-174.24"/>
<polygon fill="black" stroke="black" points="340.26,-128.42 331.28,-122.79 334.79,-132.79 340.26,-128.42"/>
<text text-anchor="middle" x="378.35" y="-144.8" font-family="Times,serif" font-size="14.00">समुच्चितः</text>
</g>
<!-- Node8_1 -->
<g id="node6" class="node">
<title>Node8_1</title>
<ellipse fill="#00bfff" stroke="#00bfff" cx="168.85" cy="-192" rx="48.19" ry="18"/>
<text text-anchor="middle" x="168.85" y="-188.3" font-family="Times,serif" font-size="14.00">अयम्(8.1)</text>
</g>
<!-- Node8_1&#45;&gt;Node9_1 -->
<g id="edge9" class="edge">
<title>Node8_1&#45;&gt;Node9_1</title>
<path fill="none" stroke="black" d="M168.85,-220.27C168.85,-233.58 168.85,-249.19 168.85,-260.82"/>
<polygon fill="black" stroke="black" points="172.35,-220.2 168.85,-210.2 165.35,-220.2 172.35,-220.2"/>
<text text-anchor="middle" x="191.35" y="-231.8" font-family="Times,serif" font-size="14.00">विशेषणम्</text>
</g>
<!-- Node11_1 -->
<g id="node9" class="node">
<title>Node11_1</title>
<ellipse fill="#ff1975" stroke="#ff1975" cx="91.85" cy="-366" rx="62.29" ry="18"/>
<text text-anchor="middle" x="91.85" y="-362.3" font-family="Times,serif" font-size="14.00">(अस्ति)(11.1)</text>
</g>
<!-- Node9_1&#45;&gt;Node11_1 -->
<g id="edge10" class="edge">
<title>Node9_1&#45;&gt;Node11_1</title>
<path fill="none" stroke="black" d="M151.88,-305.12C145.9,-313.35 138.91,-322.34 131.85,-330 125.84,-336.51 118.72,-343.07 112.16,-348.71"/>
<polygon fill="black" stroke="black" points="154.77,-307.09 157.69,-296.91 149.06,-303.05 154.77,-307.09"/>
<text text-anchor="middle" x="154.85" y="-318.8" font-family="Times,serif" font-size="14.00">कर्ता</text>
</g>
<!-- Node3_1 -->
<g id="node8" class="node">
<title>Node3_1</title>
<ellipse fill="#ff99ff" stroke="#ff99ff" cx="44.85" cy="-279" rx="44.69" ry="18"/>
<text text-anchor="middle" x="44.85" y="-275.3" font-family="Times,serif" font-size="14.00">सदा(3.1)</text>
</g>
<!-- Node3_1&#45;&gt;Node11_1 -->
<g id="edge3" class="edge">
<title>Node3_1&#45;&gt;Node11_1</title>
<path fill="none" stroke="black" d="M51.27,-307.07C53.68,-314.76 56.83,-322.95 60.85,-330 64.62,-336.63 69.8,-343.11 74.85,-348.66"/>
<polygon fill="black" stroke="black" points="54.62,-306.06 48.52,-297.4 47.89,-307.97 54.62,-306.06"/>
<text text-anchor="middle" x="96.35" y="-318.8" font-family="Times,serif" font-size="14.00">कालाधिकरणम्</text>
</g>
<!-- Node5_1 -->
<g id="node10" class="node">
<title>Node5_1</title>
<ellipse fill="#ff99ff" stroke="#ff99ff" cx="455.85" cy="-18" rx="44.69" ry="18"/>
<text text-anchor="middle" x="455.85" y="-14.3" font-family="Times,serif" font-size="14.00">यथा(5.1)</text>
</g>
<!-- Node5_1&#45;&gt;Node4_1 -->
<g id="edge5" class="edge">
<title>Node5_1&#45;&gt;Node4_1</title>
<path fill="none" stroke="black" d="M455.85,-46.27C455.85,-59.58 455.85,-75.19 455.85,-86.82"/>
<polygon fill="black" stroke="black" points="459.35,-46.2 455.85,-36.2 452.35,-46.2 459.35,-46.2"/>
<text text-anchor="middle" x="474.35" y="-57.8" font-family="Times,serif" font-size="14.00">सम्बन्धः</text>
</g>
<!-- Node6_1 -->
<g id="node11" class="node">
<title>Node6_1</title>
<ellipse fill="#ffff00" stroke="#ffff00" cx="582.85" cy="-18" rx="51.99" ry="18"/>
<text text-anchor="middle" x="582.85" y="-14.3" font-family="Times,serif" font-size="14.00">अक्षुद्र&#45;(6.1)</text>
</g>
<!-- Node6_1&#45;&gt;Node6_2 -->
<g id="edge6" class="edge">
<title>Node6_1&#45;&gt;Node6_2</title>
<path fill="none" stroke="black" d="M582.85,-46.27C582.85,-59.58 582.85,-75.19 582.85,-86.82"/>
<polygon fill="black" stroke="black" points="586.35,-46.2 582.85,-36.2 579.35,-46.2 586.35,-46.2"/>
<text text-anchor="middle" x="599.85" y="-57.8" font-family="Times,serif" font-size="14.00">समासः</text>
</g>
<!-- Node7_1 -->
<g id="node12" class="node">
<title>Node7_1</title>
<ellipse fill="#ff99ff" stroke="#ff99ff" cx="197.85" cy="-105" rx="37.89" ry="18"/>
<text text-anchor="middle" x="197.85" y="-101.3" font-family="Times,serif" font-size="14.00">च(7.1)</text>
</g>
<!-- Node7_1&#45;&gt;Node1_1 -->
<g id="edge8" class="edge">
<title>Node7_1&#45;&gt;Node1_1</title>
<path fill="none" stroke="black" d="M223.3,-127.67C235.78,-137.42 251.42,-148.42 266.85,-156 289.85,-167.3 317.18,-175.65 339.84,-181.36"/>
<polygon fill="black" stroke="black" points="225.2,-124.7 215.21,-121.17 220.82,-130.16 225.2,-124.7"/>
<text text-anchor="middle" x="304.85" y="-144.8" font-family="Times,serif" font-size="14.00">समुच्चय_द्योतकः</text>
</g>
</g>
</svg>
