<?xml version="1.0" encoding="UTF-8" standalone="no"?>
<!DOCTYPE svg PUBLIC "-//W3C//DTD SVG 1.1//EN"
 "http://www.w3.org/Graphics/SVG/1.1/DTD/svg11.dtd">
<!-- Generated by graphviz version 2.43.0 (0)
 -->
<!-- Title: G Pages: 1 -->
<svg width="937pt" height="305pt"
 viewBox="0.00 0.00 937.50 305.00" xmlns="http://www.w3.org/2000/svg" xmlns:xlink="http://www.w3.org/1999/xlink">
<g id="graph0" class="graph" transform="scale(1 1) rotate(0) translate(4 301)">
<title>G</title>
<polygon fill="#fffacd" stroke="transparent" points="-4,4 -4,-301 933.5,-301 933.5,4 -4,4"/>
<g id="clust1" class="cluster">
<title>cluster_1</title>
<polygon fill="#fffacd" stroke="black" points="612,-79 612,-218 838,-218 838,-79 612,-79"/>
</g>
<g id="clust2" class="cluster">
<title>cluster_2</title>
<polygon fill="#fffacd" stroke="black" points="8,-79 8,-218 492,-218 492,-79 8,-79"/>
</g>
<!-- Node1_4 -->
<g id="node1" class="node">
<title>Node1_4</title>
<ellipse fill="#40e0d0" stroke="#40e0d0" cx="774" cy="-105" rx="55.79" ry="18"/>
<text text-anchor="middle" x="774" y="-101.3" font-family="Times,serif" font-size="14.00">अन्वितैः(1.4)</text>
</g>
<!-- Node3_2 -->
<g id="node2" class="node">
<title>Node3_2</title>
<ellipse fill="#40e0d0" stroke="#40e0d0" cx="670" cy="-192" rx="50.09" ry="18"/>
<text text-anchor="middle" x="670" y="-188.3" font-family="Times,serif" font-size="14.00">व्याघ्रैः(3.2)</text>
</g>
<!-- Node1_4&#45;&gt;Node3_2 -->
<g id="edge4" class="edge">
<title>Node1_4&#45;&gt;Node3_2</title>
<path fill="none" stroke="black" d="M747.58,-128.8C737.47,-137.42 725.77,-147.25 715,-156 707.01,-162.49 698.08,-169.48 690.3,-175.5"/>
<polygon fill="black" stroke="black" points="749.98,-131.35 755.3,-122.19 745.43,-126.03 749.98,-131.35"/>
<text text-anchor="middle" x="756.5" y="-144.8" font-family="Times,serif" font-size="14.00">विशेषणम्</text>
</g>
<!-- Node9_1 -->
<g id="node13" class="node">
<title>Node9_1</title>
<ellipse fill="#00bfff" stroke="#00bfff" cx="529" cy="-279" rx="51.19" ry="18"/>
<text text-anchor="middle" x="529" y="-275.3" font-family="Times,serif" font-size="14.00">निहता(9.1)</text>
</g>
<!-- Node3_2&#45;&gt;Node9_1 -->
<g id="edge7" class="edge">
<title>Node3_2&#45;&gt;Node9_1</title>
<path fill="none" stroke="black" d="M636.85,-212.98C611.4,-228.32 576.82,-249.17 553.75,-263.08"/>
<polygon fill="black" stroke="black" points="638.68,-215.97 645.44,-207.81 635.07,-209.97 638.68,-215.97"/>
<text text-anchor="middle" x="619" y="-231.8" font-family="Times,serif" font-size="14.00">कर्ता</text>
</g>
<!-- Node2_1 -->
<g id="node3" class="node">
<title>Node2_1</title>
<ellipse fill="#40e0d0" stroke="#40e0d0" cx="660" cy="-105" rx="39.79" ry="18"/>
<text text-anchor="middle" x="660" y="-101.3" font-family="Times,serif" font-size="14.00">तैः(2.1)</text>
</g>
<!-- Node2_1&#45;&gt;Node3_2 -->
<g id="edge5" class="edge">
<title>Node2_1&#45;&gt;Node3_2</title>
<path fill="none" stroke="black" d="M663.21,-133.27C664.77,-146.58 666.61,-162.19 667.98,-173.82"/>
<polygon fill="black" stroke="black" points="666.67,-132.72 662.02,-123.2 659.72,-133.54 666.67,-132.72"/>
<text text-anchor="middle" x="688.5" y="-144.8" font-family="Times,serif" font-size="14.00">विशेषणम्</text>
</g>
<!-- Node4_1 -->
<g id="node4" class="node">
<title>Node4_1</title>
<ellipse fill="#00bfff" stroke="#00bfff" cx="438" cy="-105" rx="46.29" ry="18"/>
<text text-anchor="middle" x="438" y="-101.3" font-family="Times,serif" font-size="14.00">इयम्(4.1)</text>
</g>
<!-- Node8_1 -->
<g id="node5" class="node">
<title>Node8_1</title>
<ellipse fill="#00bfff" stroke="#00bfff" cx="310" cy="-192" rx="51.99" ry="18"/>
<text text-anchor="middle" x="310" y="-188.3" font-family="Times,serif" font-size="14.00">पृथिवी(8.1)</text>
</g>
<!-- Node4_1&#45;&gt;Node8_1 -->
<g id="edge8" class="edge">
<title>Node4_1&#45;&gt;Node8_1</title>
<path fill="none" stroke="black" d="M407.36,-126.35C384.47,-141.55 353.68,-162 332.9,-175.79"/>
<polygon fill="black" stroke="black" points="409.31,-129.25 415.7,-120.81 405.44,-123.42 409.31,-129.25"/>
<text text-anchor="middle" x="404.5" y="-144.8" font-family="Times,serif" font-size="14.00">विशेषणम्</text>
</g>
<!-- Node8_1&#45;&gt;Node9_1 -->
<g id="edge12" class="edge">
<title>Node8_1&#45;&gt;Node9_1</title>
<path fill="none" stroke="black" d="M352.64,-209.55C394.51,-225.8 457.51,-250.25 495.79,-265.11"/>
<polygon fill="black" stroke="black" points="353.85,-206.27 343.26,-205.91 351.32,-212.79 353.85,-206.27"/>
<text text-anchor="middle" x="442" y="-231.8" font-family="Times,serif" font-size="14.00">कर्म</text>
</g>
<!-- Node5_1 -->
<g id="node6" class="node">
<title>Node5_1</title>
<ellipse fill="#00bfff" stroke="#00bfff" cx="310" cy="-105" rx="63.89" ry="18"/>
<text text-anchor="middle" x="310" y="-101.3" font-family="Times,serif" font-size="14.00">सरथ&#45;द्विपा(5.1)</text>
</g>
<!-- Node5_1&#45;&gt;Node8_1 -->
<g id="edge9" class="edge">
<title>Node5_1&#45;&gt;Node8_1</title>
<path fill="none" stroke="black" d="M310,-133.27C310,-146.58 310,-162.19 310,-173.82"/>
<polygon fill="black" stroke="black" points="313.5,-133.2 310,-123.2 306.5,-133.2 313.5,-133.2"/>
<text text-anchor="middle" x="332.5" y="-144.8" font-family="Times,serif" font-size="14.00">विशेषणम्</text>
</g>
<!-- Node6_1 -->
<g id="node7" class="node">
<title>Node6_1</title>
<ellipse fill="#00bfff" stroke="#00bfff" cx="176" cy="-105" rx="52.79" ry="18"/>
<text text-anchor="middle" x="176" y="-101.3" font-family="Times,serif" font-size="14.00">स&#45;हया(6.1)</text>
</g>
<!-- Node6_1&#45;&gt;Node8_1 -->
<g id="edge10" class="edge">
<title>Node6_1&#45;&gt;Node8_1</title>
<path fill="none" stroke="black" d="M208.72,-126.75C232.69,-141.96 264.69,-162.26 286.25,-175.94"/>
<polygon fill="black" stroke="black" points="210.28,-123.6 199.96,-121.2 206.53,-129.51 210.28,-123.6"/>
<text text-anchor="middle" x="274.5" y="-144.8" font-family="Times,serif" font-size="14.00">विशेषणम्</text>
</g>
<!-- Node7_1 -->
<g id="node8" class="node">
<title>Node7_1</title>
<ellipse fill="#00bfff" stroke="#00bfff" cx="61" cy="-105" rx="44.69" ry="18"/>
<text text-anchor="middle" x="61" y="-101.3" font-family="Times,serif" font-size="14.00">सर्वा(7.1)</text>
</g>
<!-- Node7_1&#45;&gt;Node8_1 -->
<g id="edge11" class="edge">
<title>Node7_1&#45;&gt;Node8_1</title>
<path fill="none" stroke="black" d="M99.53,-122.64C124.05,-132.91 156.6,-146 186,-156 213.53,-165.36 245.08,-174.24 269.46,-180.71"/>
<polygon fill="black" stroke="black" points="100.8,-119.37 90.22,-118.71 98.07,-125.82 100.8,-119.37"/>
<text text-anchor="middle" x="208.5" y="-144.8" font-family="Times,serif" font-size="14.00">विशेषणम्</text>
</g>
<!-- Node1_1 -->
<g id="node9" class="node">
<title>Node1_1</title>
<ellipse fill="#ffff00" stroke="#ffff00" cx="660" cy="-18" rx="49.29" ry="18"/>
<text text-anchor="middle" x="660" y="-14.3" font-family="Times,serif" font-size="14.00">विद्या&#45;(1.1)</text>
</g>
<!-- Node1_1&#45;&gt;Node1_4 -->
<g id="edge1" class="edge">
<title>Node1_1&#45;&gt;Node1_4</title>
<path fill="none" stroke="black" d="M688.75,-40.44C708.65,-55.28 734.7,-74.69 752.74,-88.15"/>
<polygon fill="black" stroke="black" points="690.75,-37.56 680.64,-34.39 686.57,-43.18 690.75,-37.56"/>
<text text-anchor="middle" x="741" y="-57.8" font-family="Times,serif" font-size="14.00">समासः</text>
</g>
<!-- Node1_2 -->
<g id="node10" class="node">
<title>Node1_2</title>
<ellipse fill="#ffff00" stroke="#ffff00" cx="774" cy="-18" rx="46.29" ry="18"/>
<text text-anchor="middle" x="774" y="-14.3" font-family="Times,serif" font-size="14.00">बाहु&#45;(1.2)</text>
</g>
<!-- Node1_2&#45;&gt;Node1_4 -->
<g id="edge2" class="edge">
<title>Node1_2&#45;&gt;Node1_4</title>
<path fill="none" stroke="black" d="M774,-46.27C774,-59.58 774,-75.19 774,-86.82"/>
<polygon fill="black" stroke="black" points="777.5,-46.2 774,-36.2 770.5,-46.2 777.5,-46.2"/>
<text text-anchor="middle" x="791" y="-57.8" font-family="Times,serif" font-size="14.00">समासः</text>
</g>
<!-- Node1_3 -->
<g id="node11" class="node">
<title>Node1_3</title>
<ellipse fill="#ffff00" stroke="#ffff00" cx="884" cy="-18" rx="45.49" ry="18"/>
<text text-anchor="middle" x="884" y="-14.3" font-family="Times,serif" font-size="14.00">बल&#45;(1.3)</text>
</g>
<!-- Node1_3&#45;&gt;Node1_4 -->
<g id="edge3" class="edge">
<title>Node1_3&#45;&gt;Node1_4</title>
<path fill="none" stroke="black" d="M856,-40.64C836.83,-55.45 811.85,-74.75 794.52,-88.15"/>
<polygon fill="black" stroke="black" points="858.31,-43.28 864.08,-34.39 854.03,-37.74 858.31,-43.28"/>
<text text-anchor="middle" x="853" y="-57.8" font-family="Times,serif" font-size="14.00">समासः</text>
</g>
<!-- Node3_1 -->
<g id="node12" class="node">
<title>Node3_1</title>
<ellipse fill="#ffff00" stroke="#ffff00" cx="552" cy="-105" rx="50.09" ry="18"/>
<text text-anchor="middle" x="552" y="-101.3" font-family="Times,serif" font-size="14.00">पुरुष&#45;(3.1)</text>
</g>
<!-- Node3_1&#45;&gt;Node3_2 -->
<g id="edge6" class="edge">
<title>Node3_1&#45;&gt;Node3_2</title>
<path fill="none" stroke="black" d="M581.54,-127.28C602.31,-142.24 629.64,-161.93 648.39,-175.43"/>
<polygon fill="black" stroke="black" points="583.53,-124.4 573.37,-121.39 579.44,-130.08 583.53,-124.4"/>
<text text-anchor="middle" x="636" y="-144.8" font-family="Times,serif" font-size="14.00">समासः</text>
</g>
</g>
</svg>
