<?xml version="1.0" encoding="UTF-8" standalone="no"?>
<!DOCTYPE svg PUBLIC "-//W3C//DTD SVG 1.1//EN"
 "http://www.w3.org/Graphics/SVG/1.1/DTD/svg11.dtd">
<!-- Generated by graphviz version 2.43.0 (0)
 -->
<!-- Title: G Pages: 1 -->
<svg width="856pt" height="392pt"
 viewBox="0.00 0.00 856.00 392.00" xmlns="http://www.w3.org/2000/svg" xmlns:xlink="http://www.w3.org/1999/xlink">
<g id="graph0" class="graph" transform="scale(1 1) rotate(0) translate(4 388)">
<title>G</title>
<polygon fill="#fffacd" stroke="transparent" points="-4,4 -4,-388 852,-388 852,4 -4,4"/>
<g id="clust1" class="cluster">
<title>cluster_1</title>
<polygon fill="#fffacd" stroke="black" points="502,-79 502,-218 840,-218 840,-79 502,-79"/>
</g>
<g id="clust2" class="cluster">
<title>cluster_2</title>
<polygon fill="#fffacd" stroke="black" points="8,-166 8,-305 236,-305 236,-166 8,-166"/>
</g>
<!-- Node2_1 -->
<g id="node1" class="node">
<title>Node2_1</title>
<ellipse fill="#93db70" stroke="#93db70" cx="790" cy="-105" rx="42.49" ry="18"/>
<text text-anchor="middle" x="790" y="-101.3" font-family="Times,serif" font-size="14.00">तत्(2.1)</text>
</g>
<!-- Node3_1 -->
<g id="node2" class="node">
<title>Node3_1</title>
<ellipse fill="#93db70" stroke="#93db70" cx="580" cy="-192" rx="51.99" ry="18"/>
<text text-anchor="middle" x="580" y="-188.3" font-family="Times,serif" font-size="14.00">वचनम्(3.1)</text>
</g>
<!-- Node2_1&#45;&gt;Node3_1 -->
<g id="edge2" class="edge">
<title>Node2_1&#45;&gt;Node3_1</title>
<path fill="none" stroke="black" d="M754.59,-123.97C734.21,-133.99 707.95,-146.36 684,-156 662.44,-164.68 637.81,-173.03 617.93,-179.4"/>
<polygon fill="black" stroke="black" points="756.4,-126.98 763.8,-119.4 753.29,-120.7 756.4,-126.98"/>
<text text-anchor="middle" x="738.5" y="-144.8" font-family="Times,serif" font-size="14.00">विशेषणम्</text>
</g>
<!-- Node5_1 -->
<g id="node9" class="node">
<title>Node5_1</title>
<ellipse fill="#ff99ff" stroke="#ff99ff" cx="580" cy="-279" rx="65.79" ry="18"/>
<text text-anchor="middle" x="580" y="-275.3" font-family="Times,serif" font-size="14.00">(अनुबन्ध्य)(5.1)</text>
</g>
<!-- Node3_1&#45;&gt;Node5_1 -->
<g id="edge3" class="edge">
<title>Node3_1&#45;&gt;Node5_1</title>
<path fill="none" stroke="black" d="M580,-220.27C580,-233.58 580,-249.19 580,-260.82"/>
<polygon fill="black" stroke="black" points="583.5,-220.2 580,-210.2 576.5,-220.2 583.5,-220.2"/>
<text text-anchor="middle" x="589" y="-231.8" font-family="Times,serif" font-size="14.00">कर्म</text>
</g>
<!-- Node4_1 -->
<g id="node3" class="node">
<title>Node4_1</title>
<ellipse fill="#93db70" stroke="#93db70" cx="680" cy="-105" rx="50.09" ry="18"/>
<text text-anchor="middle" x="680" y="-101.3" font-family="Times,serif" font-size="14.00">धर्म्यम्(4.1)</text>
</g>
<!-- Node4_1&#45;&gt;Node3_1 -->
<g id="edge4" class="edge">
<title>Node4_1&#45;&gt;Node3_1</title>
<path fill="none" stroke="black" d="M653.17,-128.8C635.97,-143.43 614.07,-162.04 598.72,-175.08"/>
<polygon fill="black" stroke="black" points="655.84,-131.13 661.19,-121.99 651.3,-125.8 655.84,-131.13"/>
<text text-anchor="middle" x="657.5" y="-144.8" font-family="Times,serif" font-size="14.00">विशेषणम्</text>
</g>
<!-- Node6_2 -->
<g id="node4" class="node">
<title>Node6_2</title>
<ellipse fill="#93db70" stroke="#93db70" cx="561" cy="-105" rx="50.89" ry="18"/>
<text text-anchor="middle" x="561" y="-101.3" font-family="Times,serif" font-size="14.00">उत्तरम्(6.2)</text>
</g>
<!-- Node6_2&#45;&gt;Node3_1 -->
<g id="edge7" class="edge">
<title>Node6_2&#45;&gt;Node3_1</title>
<path fill="none" stroke="black" d="M567.09,-133.27C570.07,-146.58 573.56,-162.19 576.16,-173.82"/>
<polygon fill="black" stroke="black" points="570.44,-132.2 564.84,-123.2 563.61,-133.72 570.44,-132.2"/>
<text text-anchor="middle" x="593.5" y="-144.8" font-family="Times,serif" font-size="14.00">विशेषणम्</text>
</g>
<!-- Node11_1 -->
<g id="node5" class="node">
<title>Node11_1</title>
<ellipse fill="#00bfff" stroke="#00bfff" cx="177" cy="-192" rx="50.89" ry="18"/>
<text text-anchor="middle" x="177" y="-188.3" font-family="Times,serif" font-size="14.00">सर्वः(11.1)</text>
</g>
<!-- Node13_1 -->
<g id="node6" class="node">
<title>Node13_1</title>
<ellipse fill="#00bfff" stroke="#00bfff" cx="175" cy="-279" rx="51.19" ry="18"/>
<text text-anchor="middle" x="175" y="-275.3" font-family="Times,serif" font-size="14.00">जनः(13.1)</text>
</g>
<!-- Node11_1&#45;&gt;Node13_1 -->
<g id="edge12" class="edge">
<title>Node11_1&#45;&gt;Node13_1</title>
<path fill="none" stroke="black" d="M176.36,-220.27C176.05,-233.58 175.68,-249.19 175.4,-260.82"/>
<polygon fill="black" stroke="black" points="179.86,-220.28 176.6,-210.2 172.86,-220.12 179.86,-220.28"/>
<text text-anchor="middle" x="199.5" y="-231.8" font-family="Times,serif" font-size="14.00">विशेषणम्</text>
</g>
<!-- Node14_2 -->
<g id="node10" class="node">
<title>Node14_2</title>
<ellipse fill="#00bfff" stroke="#00bfff" cx="409" cy="-366" rx="66.09" ry="18"/>
<text text-anchor="middle" x="409" y="-362.3" font-family="Times,serif" font-size="14.00">गृहीतवान्(14.2)</text>
</g>
<!-- Node13_1&#45;&gt;Node14_2 -->
<g id="edge14" class="edge">
<title>Node13_1&#45;&gt;Node14_2</title>
<path fill="none" stroke="black" d="M215.59,-297.32C222.06,-299.96 228.69,-302.6 235,-305 280.25,-322.21 332.88,-340.06 368.31,-351.77"/>
<polygon fill="black" stroke="black" points="216.88,-294.06 206.3,-293.48 214.21,-300.53 216.88,-294.06"/>
<text text-anchor="middle" x="313" y="-318.8" font-family="Times,serif" font-size="14.00">कर्ता</text>
</g>
<!-- Node12_1 -->
<g id="node7" class="node">
<title>Node12_1</title>
<ellipse fill="#00bfff" stroke="#00bfff" cx="62" cy="-192" rx="46.29" ry="18"/>
<text text-anchor="middle" x="62" y="-188.3" font-family="Times,serif" font-size="14.00">सः(12.1)</text>
</g>
<!-- Node12_1&#45;&gt;Node13_1 -->
<g id="edge13" class="edge">
<title>Node12_1&#45;&gt;Node13_1</title>
<path fill="none" stroke="black" d="M89.77,-214.61C101.24,-223.48 114.71,-233.8 127,-243 135.58,-249.43 145.12,-256.41 153.41,-262.44"/>
<polygon fill="black" stroke="black" points="91.86,-211.81 81.81,-208.45 87.58,-217.34 91.86,-211.81"/>
<text text-anchor="middle" x="149.5" y="-231.8" font-family="Times,serif" font-size="14.00">विशेषणम्</text>
</g>
<!-- Node1_1 -->
<g id="node8" class="node">
<title>Node1_1</title>
<ellipse fill="#87ceeb" stroke="#87ceeb" cx="446" cy="-105" rx="46.29" ry="18"/>
<text text-anchor="middle" x="446" y="-101.3" font-family="Times,serif" font-size="14.00">तस्य(1.1)</text>
</g>
<!-- Node1_1&#45;&gt;Node3_1 -->
<g id="edge1" class="edge">
<title>Node1_1&#45;&gt;Node3_1</title>
<path fill="none" stroke="black" d="M471.84,-128.1C483.17,-137.27 496.86,-147.7 510,-156 522.41,-163.84 536.8,-171.29 549.3,-177.29"/>
<polygon fill="black" stroke="black" points="473.99,-125.33 464.04,-121.68 469.54,-130.74 473.99,-125.33"/>
<text text-anchor="middle" x="537.5" y="-144.8" font-family="Times,serif" font-size="14.00">षष्ठीसम्बन्धः</text>
</g>
<!-- Node5_1&#45;&gt;Node14_2 -->
<g id="edge5" class="edge">
<title>Node5_1&#45;&gt;Node14_2</title>
<path fill="none" stroke="black" d="M540.66,-299.55C509.88,-314.86 467.69,-335.82 439.45,-349.86"/>
<polygon fill="black" stroke="black" points="542.43,-302.59 549.82,-295 539.31,-296.32 542.43,-302.59"/>
<text text-anchor="middle" x="525.5" y="-318.8" font-family="Times,serif" font-size="14.00">पूर्वकालः</text>
</g>
<!-- Node6_1 -->
<g id="node11" class="node">
<title>Node6_1</title>
<ellipse fill="#ffff00" stroke="#ffff00" cx="561" cy="-18" rx="46.29" ry="18"/>
<text text-anchor="middle" x="561" y="-14.3" font-family="Times,serif" font-size="14.00">गुण&#45;(6.1)</text>
</g>
<!-- Node6_1&#45;&gt;Node6_2 -->
<g id="edge6" class="edge">
<title>Node6_1&#45;&gt;Node6_2</title>
<path fill="none" stroke="black" d="M561,-46.27C561,-59.58 561,-75.19 561,-86.82"/>
<polygon fill="black" stroke="black" points="564.5,-46.2 561,-36.2 557.5,-46.2 564.5,-46.2"/>
<text text-anchor="middle" x="578" y="-57.8" font-family="Times,serif" font-size="14.00">समासः</text>
</g>
<!-- Node7_1 -->
<g id="node12" class="node">
<title>Node7_1</title>
<ellipse fill="#00bfff" stroke="#00bfff" cx="206" cy="-105" rx="46.29" ry="18"/>
<text text-anchor="middle" x="206" y="-101.3" font-family="Times,serif" font-size="14.00">साधु(7.1)</text>
</g>
<!-- Node8_1 -->
<g id="node13" class="node">
<title>Node8_1</title>
<ellipse fill="#00bfff" stroke="#00bfff" cx="308" cy="-192" rx="46.29" ry="18"/>
<text text-anchor="middle" x="308" y="-188.3" font-family="Times,serif" font-size="14.00">साधु(8.1)</text>
</g>
<!-- Node7_1&#45;&gt;Node8_1 -->
<g id="edge8" class="edge">
<title>Node7_1&#45;&gt;Node8_1</title>
<path fill="none" stroke="black" d="M232.5,-128.08C250.36,-142.97 273.49,-162.24 289.41,-175.51"/>
<polygon fill="black" stroke="black" points="234.63,-125.3 224.71,-121.59 230.15,-130.68 234.63,-125.3"/>
<text text-anchor="middle" x="278" y="-144.8" font-family="Times,serif" font-size="14.00">वीप्सा</text>
</g>
<!-- Node10_1 -->
<g id="node14" class="node">
<title>Node10_1</title>
<ellipse fill="#ff99ff" stroke="#ff99ff" cx="308" cy="-279" rx="63.89" ry="18"/>
<text text-anchor="middle" x="308" y="-275.3" font-family="Times,serif" font-size="14.00">(उक्त्वा)(10.1)</text>
</g>
<!-- Node8_1&#45;&gt;Node10_1 -->
<g id="edge9" class="edge">
<title>Node8_1&#45;&gt;Node10_1</title>
<path fill="none" stroke="black" d="M308,-220.27C308,-233.58 308,-249.19 308,-260.82"/>
<polygon fill="black" stroke="black" points="311.5,-220.2 308,-210.2 304.5,-220.2 311.5,-220.2"/>
<text text-anchor="middle" x="329.5" y="-231.8" font-family="Times,serif" font-size="14.00">वाक्यकर्म</text>
</g>
<!-- Node10_1&#45;&gt;Node14_2 -->
<g id="edge11" class="edge">
<title>Node10_1&#45;&gt;Node14_2</title>
<path fill="none" stroke="black" d="M335.47,-303.12C352.6,-317.54 374.23,-335.74 389.59,-348.66"/>
<polygon fill="black" stroke="black" points="337.38,-300.15 327.47,-296.39 332.87,-305.51 337.38,-300.15"/>
<text text-anchor="middle" x="385.5" y="-318.8" font-family="Times,serif" font-size="14.00">पूर्वकालः</text>
</g>
<!-- Node9_1 -->
<g id="node15" class="node">
<title>Node9_1</title>
<ellipse fill="#ff99ff" stroke="#ff99ff" cx="314" cy="-105" rx="44.39" ry="18"/>
<text text-anchor="middle" x="314" y="-101.3" font-family="Times,serif" font-size="14.00">इति(9.1)</text>
</g>
<!-- Node9_1&#45;&gt;Node8_1 -->
<g id="edge10" class="edge">
<title>Node9_1&#45;&gt;Node8_1</title>
<path fill="none" stroke="black" d="M312.08,-133.27C311.14,-146.58 310.03,-162.19 309.21,-173.82"/>
<polygon fill="black" stroke="black" points="315.57,-133.42 312.79,-123.2 308.59,-132.93 315.57,-133.42"/>
<text text-anchor="middle" x="353" y="-144.8" font-family="Times,serif" font-size="14.00">वाक्यकर्म_द्योतकः</text>
</g>
<!-- Node14_1 -->
<g id="node16" class="node">
<title>Node14_1</title>
<ellipse fill="#ffff00" stroke="#ffff00" cx="443" cy="-279" rx="53.09" ry="18"/>
<text text-anchor="middle" x="443" y="-275.3" font-family="Times,serif" font-size="14.00">प्रति&#45;(14.1)</text>
</g>
<!-- Node14_1&#45;&gt;Node14_2 -->
<g id="edge15" class="edge">
<title>Node14_1&#45;&gt;Node14_2</title>
<path fill="none" stroke="black" d="M432.25,-306.87C426.89,-320.27 420.57,-336.08 415.87,-347.82"/>
<polygon fill="black" stroke="black" points="435.66,-307.79 436.12,-297.2 429.16,-305.19 435.66,-307.79"/>
<text text-anchor="middle" x="446" y="-318.8" font-family="Times,serif" font-size="14.00">समासः</text>
</g>
</g>
</svg>
