<?xml version="1.0" encoding="UTF-8" standalone="no"?>
<!DOCTYPE svg PUBLIC "-//W3C//DTD SVG 1.1//EN"
 "http://www.w3.org/Graphics/SVG/1.1/DTD/svg11.dtd">
<!-- Generated by graphviz version 2.43.0 (0)
 -->
<!-- Title: G Pages: 1 -->
<svg width="813pt" height="321pt"
 viewBox="0.00 0.00 813.14 321.00" xmlns="http://www.w3.org/2000/svg" xmlns:xlink="http://www.w3.org/1999/xlink">
<g id="graph0" class="graph" transform="scale(1 1) rotate(0) translate(4 317)">
<title>G</title>
<polygon fill="#fffacd" stroke="transparent" points="-4,4 -4,-317 809.14,-317 809.14,4 -4,4"/>
<g id="clust1" class="cluster">
<title>cluster_1</title>
<polygon fill="#fffacd" stroke="black" points="8,-95 8,-234 138,-234 138,-95 8,-95"/>
</g>
<g id="clust2" class="cluster">
<title>cluster_2</title>
<polygon fill="#fffacd" stroke="black" points="339,-8 339,-147 465,-147 465,-8 339,-8"/>
</g>
<g id="clust3" class="cluster">
<title>cluster_3</title>
<polygon fill="#fffacd" stroke="black" points="146,-95 146,-234 276,-234 276,-95 146,-95"/>
</g>
<!-- Node1_1 -->
<g id="node1" class="node">
<title>Node1_1</title>
<ellipse fill="#00bfff" stroke="#00bfff" cx="73" cy="-121" rx="40.09" ry="18"/>
<text text-anchor="middle" x="73" y="-117.3" font-family="Times,serif" font-size="14.00">सः(1.1)</text>
</g>
<!-- Node15_1 -->
<g id="node2" class="node">
<title>Node15_1</title>
<ellipse fill="#00bfff" stroke="#00bfff" cx="73" cy="-208" rx="57.39" ry="18"/>
<text text-anchor="middle" x="73" y="-204.3" font-family="Times,serif" font-size="14.00">(त्वम्)(15.1)</text>
</g>
<!-- Node1_1&#45;&gt;Node15_1 -->
<g id="edge1" class="edge">
<title>Node1_1&#45;&gt;Node15_1</title>
<path fill="none" stroke="black" d="M73,-149.27C73,-162.58 73,-178.19 73,-189.82"/>
<polygon fill="black" stroke="black" points="76.5,-149.2 73,-139.2 69.5,-149.2 76.5,-149.2"/>
<text text-anchor="middle" x="95.5" y="-160.8" font-family="Times,serif" font-size="14.00">विशेषणम्</text>
</g>
<!-- Node7_1 -->
<g id="node8" class="node">
<title>Node7_1</title>
<ellipse fill="#ff1975" stroke="#ff1975" cx="382" cy="-295" rx="43.59" ry="18"/>
<text text-anchor="middle" x="382" y="-291.3" font-family="Times,serif" font-size="14.00">कुरु(7.1)</text>
</g>
<!-- Node15_1&#45;&gt;Node7_1 -->
<g id="edge13" class="edge">
<title>Node15_1&#45;&gt;Node7_1</title>
<path fill="none" stroke="black" d="M117.54,-225.89C125.63,-228.75 134.03,-231.57 142,-234 212.65,-255.57 296.71,-275.24 344.26,-285.83"/>
<polygon fill="black" stroke="black" points="118.46,-222.51 107.87,-222.42 116.1,-229.09 118.46,-222.51"/>
<text text-anchor="middle" x="239" y="-247.8" font-family="Times,serif" font-size="14.00">कर्ता</text>
</g>
<!-- Node3_1 -->
<g id="node3" class="node">
<title>Node3_1</title>
<ellipse fill="#93db70" stroke="#93db70" cx="402" cy="-34" rx="55.49" ry="18"/>
<text text-anchor="middle" x="402" y="-30.3" font-family="Times,serif" font-size="14.00">मानसम्(3.1)</text>
</g>
<!-- Node4_1 -->
<g id="node4" class="node">
<title>Node4_1</title>
<ellipse fill="#93db70" stroke="#93db70" cx="403" cy="-121" rx="50.89" ry="18"/>
<text text-anchor="middle" x="403" y="-117.3" font-family="Times,serif" font-size="14.00">दुःखम्(4.1)</text>
</g>
<!-- Node3_1&#45;&gt;Node4_1 -->
<g id="edge3" class="edge">
<title>Node3_1&#45;&gt;Node4_1</title>
<path fill="none" stroke="black" d="M402.32,-62.27C402.48,-75.58 402.66,-91.19 402.8,-102.82"/>
<polygon fill="black" stroke="black" points="405.82,-62.16 402.2,-52.2 398.82,-62.24 405.82,-62.16"/>
<text text-anchor="middle" x="425.5" y="-73.8" font-family="Times,serif" font-size="14.00">विशेषणम्</text>
</g>
<!-- Node5_1 -->
<g id="node9" class="node">
<title>Node5_1</title>
<ellipse fill="#ff99ff" stroke="#ff99ff" cx="458" cy="-208" rx="55.79" ry="18"/>
<text text-anchor="middle" x="458" y="-204.3" font-family="Times,serif" font-size="14.00">अपनीय(5.1)</text>
</g>
<!-- Node4_1&#45;&gt;Node5_1 -->
<g id="edge4" class="edge">
<title>Node4_1&#45;&gt;Node5_1</title>
<path fill="none" stroke="black" d="M419.44,-147.4C428.4,-161.26 439.25,-178.03 447.16,-190.24"/>
<polygon fill="black" stroke="black" points="422.24,-145.29 413.87,-138.79 416.36,-149.09 422.24,-145.29"/>
<text text-anchor="middle" x="443" y="-160.8" font-family="Times,serif" font-size="14.00">कर्म</text>
</g>
<!-- Node9_1 -->
<g id="node5" class="node">
<title>Node9_1</title>
<ellipse fill="#93db70" stroke="#93db70" cx="211" cy="-121" rx="56.59" ry="18"/>
<text text-anchor="middle" x="211" y="-117.3" font-family="Times,serif" font-size="14.00">धर्म्याणि(9.1)</text>
</g>
<!-- Node8_1 -->
<g id="node6" class="node">
<title>Node8_1</title>
<ellipse fill="#93db70" stroke="#93db70" cx="211" cy="-208" rx="57.39" ry="18"/>
<text text-anchor="middle" x="211" y="-204.3" font-family="Times,serif" font-size="14.00">कार्याणि(8.1)</text>
</g>
<!-- Node9_1&#45;&gt;Node8_1 -->
<g id="edge8" class="edge">
<title>Node9_1&#45;&gt;Node8_1</title>
<path fill="none" stroke="black" d="M211,-149.27C211,-162.58 211,-178.19 211,-189.82"/>
<polygon fill="black" stroke="black" points="214.5,-149.2 211,-139.2 207.5,-149.2 214.5,-149.2"/>
<text text-anchor="middle" x="233.5" y="-160.8" font-family="Times,serif" font-size="14.00">विशेषणम्</text>
</g>
<!-- Node8_1&#45;&gt;Node7_1 -->
<g id="edge7" class="edge">
<title>Node8_1&#45;&gt;Node7_1</title>
<path fill="none" stroke="black" d="M249.53,-228.15C281.74,-244.16 326.85,-266.59 355.24,-280.7"/>
<polygon fill="black" stroke="black" points="250.91,-224.93 240.4,-223.61 247.79,-231.2 250.91,-224.93"/>
<text text-anchor="middle" x="316" y="-247.8" font-family="Times,serif" font-size="14.00">कर्म</text>
</g>
<!-- Node2_1 -->
<g id="node7" class="node">
<title>Node2_1</title>
<ellipse fill="#6fffc3" stroke="#6fffc3" cx="335" cy="-208" rx="48.99" ry="18"/>
<text text-anchor="middle" x="335" y="-204.3" font-family="Times,serif" font-size="14.00">राजन्(2.1)</text>
</g>
<!-- Node2_1&#45;&gt;Node7_1 -->
<g id="edge2" class="edge">
<title>Node2_1&#45;&gt;Node7_1</title>
<path fill="none" stroke="black" d="M349.27,-234.8C356.88,-248.58 366.04,-265.14 372.73,-277.24"/>
<polygon fill="black" stroke="black" points="352.19,-232.85 344.29,-225.79 346.06,-236.24 352.19,-232.85"/>
<text text-anchor="middle" x="383" y="-247.8" font-family="Times,serif" font-size="14.00">सम्बोध्यः</text>
</g>
<!-- Node5_1&#45;&gt;Node7_1 -->
<g id="edge5" class="edge">
<title>Node5_1&#45;&gt;Node7_1</title>
<path fill="none" stroke="black" d="M436.57,-232.96C423.71,-247.35 407.7,-265.26 396.35,-277.95"/>
<polygon fill="black" stroke="black" points="439.29,-235.18 443.35,-225.39 434.07,-230.51 439.29,-235.18"/>
<text text-anchor="middle" x="445.5" y="-247.8" font-family="Times,serif" font-size="14.00">पूर्वकालः</text>
</g>
<!-- Node6_1 -->
<g id="node10" class="node">
<title>Node6_1</title>
<ellipse fill="#b4ffb4" stroke="#b4ffb4" cx="536" cy="-121" rx="63.09" ry="18"/>
<text text-anchor="middle" x="536" y="-117.3" font-family="Times,serif" font-size="14.00">युधिष्ठिरात्(6.1)</text>
</g>
<!-- Node6_1&#45;&gt;Node5_1 -->
<g id="edge6" class="edge">
<title>Node6_1&#45;&gt;Node5_1</title>
<path fill="none" stroke="black" d="M513.73,-146.27C500.72,-160.45 484.65,-177.96 473.11,-190.53"/>
<polygon fill="black" stroke="black" points="516.41,-148.53 520.59,-138.79 511.25,-143.79 516.41,-148.53"/>
<text text-anchor="middle" x="511.5" y="-160.8" font-family="Times,serif" font-size="14.00">हेतुः</text>
</g>
<!-- Node10_1 -->
<g id="node11" class="node">
<title>Node10_1</title>
<ellipse fill="#93db70" stroke="#93db70" cx="619" cy="-34" rx="50.09" ry="18"/>
<text text-anchor="middle" x="619" y="-30.3" font-family="Times,serif" font-size="14.00">नमः(10.1)</text>
</g>
<!-- Node14_1 -->
<g id="node12" class="node">
<title>Node14_1</title>
<ellipse fill="#ff1975" stroke="#ff1975" cx="683" cy="-121" rx="65.79" ry="18"/>
<text text-anchor="middle" x="683" y="-117.3" font-family="Times,serif" font-size="14.00">(कुर्वन्ति)(14.1)</text>
</g>
<!-- Node10_1&#45;&gt;Node14_1 -->
<g id="edge9" class="edge">
<title>Node10_1&#45;&gt;Node14_1</title>
<path fill="none" stroke="black" d="M637.83,-60.01C648.32,-73.94 661.1,-90.91 670.38,-103.24"/>
<polygon fill="black" stroke="black" points="640.46,-57.68 631.64,-51.79 634.86,-61.89 640.46,-57.68"/>
<text text-anchor="middle" x="663" y="-73.8" font-family="Times,serif" font-size="14.00">कर्म</text>
</g>
<!-- Node11_1 -->
<g id="node13" class="node">
<title>Node11_1</title>
<ellipse fill="#b0e2ff" stroke="#b0e2ff" cx="575" cy="-208" rx="42.79" ry="18"/>
<text text-anchor="middle" x="575" y="-204.3" font-family="Times,serif" font-size="14.00">ते(11.1)</text>
</g>
<!-- Node11_1&#45;&gt;Node7_1 -->
<g id="edge10" class="edge">
<title>Node11_1&#45;&gt;Node7_1</title>
<path fill="none" stroke="black" d="M538.72,-226.48C533.45,-229.01 528.09,-231.58 523,-234 499.49,-245.2 493.89,-248.63 470,-259 451.3,-267.12 430.07,-275.59 413.15,-282.16"/>
<polygon fill="black" stroke="black" points="540.53,-229.5 548.03,-222.01 537.5,-223.19 540.53,-229.5"/>
<text text-anchor="middle" x="525.5" y="-247.8" font-family="Times,serif" font-size="14.00">सम्प्रदानम्</text>
</g>
<!-- Node12_1 -->
<g id="node14" class="node">
<title>Node12_1</title>
<ellipse fill="#6fffc3" stroke="#6fffc3" cx="699" cy="-208" rx="63.09" ry="18"/>
<text text-anchor="middle" x="699" y="-204.3" font-family="Times,serif" font-size="14.00">भरतर्षभ(12.1)</text>
</g>
<!-- Node12_1&#45;&gt;Node7_1 -->
<g id="edge11" class="edge">
<title>Node12_1&#45;&gt;Node7_1</title>
<path fill="none" stroke="black" d="M650.94,-225.75C642.95,-228.52 634.74,-231.35 627,-234 594.16,-245.25 586.51,-249.95 553,-259 508.53,-271.01 456.59,-281.1 421.72,-287.31"/>
<polygon fill="black" stroke="black" points="652.23,-229.01 660.53,-222.42 649.94,-222.39 652.23,-229.01"/>
<text text-anchor="middle" x="619" y="-247.8" font-family="Times,serif" font-size="14.00">सम्बोध्यः</text>
</g>
<!-- Node13_1 -->
<g id="node15" class="node">
<title>Node13_1</title>
<ellipse fill="#00bfff" stroke="#00bfff" cx="746" cy="-34" rx="59.29" ry="18"/>
<text text-anchor="middle" x="746" y="-30.3" font-family="Times,serif" font-size="14.00">(वयम्)(13.1)</text>
</g>
<!-- Node13_1&#45;&gt;Node14_1 -->
<g id="edge12" class="edge">
<title>Node13_1&#45;&gt;Node14_1</title>
<path fill="none" stroke="black" d="M727.47,-60.01C717.14,-73.94 704.56,-90.91 695.42,-103.24"/>
<polygon fill="black" stroke="black" points="730.41,-61.91 733.55,-51.79 724.79,-57.74 730.41,-61.91"/>
<text text-anchor="middle" x="729" y="-73.8" font-family="Times,serif" font-size="14.00">कर्ता</text>
</g>
</g>
</svg>
