<?xml version="1.0" encoding="UTF-8" standalone="no"?>
<!DOCTYPE svg PUBLIC "-//W3C//DTD SVG 1.1//EN"
 "http://www.w3.org/Graphics/SVG/1.1/DTD/svg11.dtd">
<!-- Generated by graphviz version 2.43.0 (0)
 -->
<!-- Title: G Pages: 1 -->
<svg width="660pt" height="392pt"
 viewBox="0.00 0.00 660.00 392.00" xmlns="http://www.w3.org/2000/svg" xmlns:xlink="http://www.w3.org/1999/xlink">
<g id="graph0" class="graph" transform="scale(1 1) rotate(0) translate(4 388)">
<title>G</title>
<polygon fill="#fffacd" stroke="transparent" points="-4,4 -4,-388 656,-388 656,4 -4,4"/>
<g id="clust1" class="cluster">
<title>cluster_1</title>
<polygon fill="#fffacd" stroke="black" points="496,-79 496,-218 644,-218 644,-79 496,-79"/>
</g>
<g id="clust2" class="cluster">
<title>cluster_2</title>
<polygon fill="#fffacd" stroke="black" points="372,-166 372,-305 488,-305 488,-166 372,-166"/>
</g>
<g id="clust3" class="cluster">
<title>cluster_3</title>
<polygon fill="#fffacd" stroke="black" points="8,-166 8,-305 164,-305 164,-166 8,-166"/>
</g>
<!-- Node1_2 -->
<g id="node1" class="node">
<title>Node1_2</title>
<ellipse fill="#93db70" stroke="#93db70" cx="570" cy="-105" rx="61.19" ry="18"/>
<text text-anchor="middle" x="570" y="-101.3" font-family="Times,serif" font-size="14.00">विवर्धितम्(1.2)</text>
</g>
<!-- Node2_1 -->
<g id="node2" class="node">
<title>Node2_1</title>
<ellipse fill="#93db70" stroke="#93db70" cx="570" cy="-192" rx="66.09" ry="18"/>
<text text-anchor="middle" x="570" y="-188.3" font-family="Times,serif" font-size="14.00">भवत्&#45;कृतम्(2.1)</text>
</g>
<!-- Node1_2&#45;&gt;Node2_1 -->
<g id="edge2" class="edge">
<title>Node1_2&#45;&gt;Node2_1</title>
<path fill="none" stroke="black" d="M570,-133.27C570,-146.58 570,-162.19 570,-173.82"/>
<polygon fill="black" stroke="black" points="573.5,-133.2 570,-123.2 566.5,-133.2 573.5,-133.2"/>
<text text-anchor="middle" x="592.5" y="-144.8" font-family="Times,serif" font-size="14.00">समुच्चितः</text>
</g>
<!-- Node5_1 -->
<g id="node3" class="node">
<title>Node5_1</title>
<ellipse fill="#93db70" stroke="#93db70" cx="430" cy="-279" rx="50.09" ry="18"/>
<text text-anchor="middle" x="430" y="-275.3" font-family="Times,serif" font-size="14.00">स्नेहम्(5.1)</text>
</g>
<!-- Node2_1&#45;&gt;Node5_1 -->
<g id="edge3" class="edge">
<title>Node2_1&#45;&gt;Node5_1</title>
<path fill="none" stroke="black" d="M535.15,-214.16C510.04,-229.4 476.79,-249.59 454.46,-263.15"/>
<polygon fill="black" stroke="black" points="537.26,-216.97 544,-208.79 533.63,-210.99 537.26,-216.97"/>
<text text-anchor="middle" x="531.5" y="-231.8" font-family="Times,serif" font-size="14.00">विशेषणम्</text>
</g>
<!-- Node10_1 -->
<g id="node9" class="node">
<title>Node10_1</title>
<ellipse fill="#ff1975" stroke="#ff1975" cx="261" cy="-366" rx="67.69" ry="18"/>
<text text-anchor="middle" x="261" y="-362.3" font-family="Times,serif" font-size="14.00">करिष्यन्ति(10.1)</text>
</g>
<!-- Node5_1&#45;&gt;Node10_1 -->
<g id="edge6" class="edge">
<title>Node5_1&#45;&gt;Node10_1</title>
<path fill="none" stroke="black" d="M404.75,-302.58C393.23,-312.01 379.05,-322.5 365,-330 347.1,-339.55 326.09,-347.21 307.66,-352.9"/>
<polygon fill="black" stroke="black" points="407.22,-305.06 412.62,-295.95 402.72,-299.71 407.22,-305.06"/>
<text text-anchor="middle" x="397" y="-318.8" font-family="Times,serif" font-size="14.00">कर्म</text>
</g>
<!-- Node4_1 -->
<g id="node4" class="node">
<title>Node4_1</title>
<ellipse fill="#93db70" stroke="#93db70" cx="430" cy="-192" rx="46.29" ry="18"/>
<text text-anchor="middle" x="430" y="-188.3" font-family="Times,serif" font-size="14.00">इमम्(4.1)</text>
</g>
<!-- Node4_1&#45;&gt;Node5_1 -->
<g id="edge5" class="edge">
<title>Node4_1&#45;&gt;Node5_1</title>
<path fill="none" stroke="black" d="M430,-220.27C430,-233.58 430,-249.19 430,-260.82"/>
<polygon fill="black" stroke="black" points="433.5,-220.2 430,-210.2 426.5,-220.2 433.5,-220.2"/>
<text text-anchor="middle" x="452.5" y="-231.8" font-family="Times,serif" font-size="14.00">विशेषणम्</text>
</g>
<!-- Node6_1 -->
<g id="node5" class="node">
<title>Node6_1</title>
<ellipse fill="#00bfff" stroke="#00bfff" cx="86" cy="-192" rx="70.39" ry="18"/>
<text text-anchor="middle" x="86" y="-188.3" font-family="Times,serif" font-size="14.00">पौरजानपदाः(6.1)</text>
</g>
<!-- Node7_1 -->
<g id="node6" class="node">
<title>Node7_1</title>
<ellipse fill="#00bfff" stroke="#00bfff" cx="96" cy="-279" rx="48.19" ry="18"/>
<text text-anchor="middle" x="96" y="-275.3" font-family="Times,serif" font-size="14.00">जनाः(7.1)</text>
</g>
<!-- Node6_1&#45;&gt;Node7_1 -->
<g id="edge7" class="edge">
<title>Node6_1&#45;&gt;Node7_1</title>
<path fill="none" stroke="black" d="M89.21,-220.27C90.77,-233.58 92.61,-249.19 93.98,-260.82"/>
<polygon fill="black" stroke="black" points="92.67,-219.72 88.02,-210.2 85.72,-220.54 92.67,-219.72"/>
<text text-anchor="middle" x="114.5" y="-231.8" font-family="Times,serif" font-size="14.00">विशेषणम्</text>
</g>
<!-- Node7_1&#45;&gt;Node10_1 -->
<g id="edge8" class="edge">
<title>Node7_1&#45;&gt;Node10_1</title>
<path fill="none" stroke="black" d="M132.47,-298.79C162.24,-314.12 203.77,-335.52 231.48,-349.79"/>
<polygon fill="black" stroke="black" points="133.74,-295.5 123.25,-294.04 130.53,-301.73 133.74,-295.5"/>
<text text-anchor="middle" x="200" y="-318.8" font-family="Times,serif" font-size="14.00">कर्ता</text>
</g>
<!-- Node1_1 -->
<g id="node7" class="node">
<title>Node1_1</title>
<ellipse fill="#ffff00" stroke="#ffff00" cx="570" cy="-18" rx="58.49" ry="18"/>
<text text-anchor="middle" x="570" y="-14.3" font-family="Times,serif" font-size="14.00">युधिष्ठिर&#45;(1.1)</text>
</g>
<!-- Node1_1&#45;&gt;Node1_2 -->
<g id="edge1" class="edge">
<title>Node1_1&#45;&gt;Node1_2</title>
<path fill="none" stroke="black" d="M570,-46.27C570,-59.58 570,-75.19 570,-86.82"/>
<polygon fill="black" stroke="black" points="573.5,-46.2 570,-36.2 566.5,-46.2 573.5,-46.2"/>
<text text-anchor="middle" x="587" y="-57.8" font-family="Times,serif" font-size="14.00">समासः</text>
</g>
<!-- Node3_1 -->
<g id="node8" class="node">
<title>Node3_1</title>
<ellipse fill="#ff99ff" stroke="#ff99ff" cx="444" cy="-105" rx="44.39" ry="18"/>
<text text-anchor="middle" x="444" y="-101.3" font-family="Times,serif" font-size="14.00">(च)(3.1)</text>
</g>
<!-- Node3_1&#45;&gt;Node2_1 -->
<g id="edge4" class="edge">
<title>Node3_1&#45;&gt;Node2_1</title>
<path fill="none" stroke="black" d="M462.8,-130.38C470.53,-139.26 480,-148.87 490,-156 502.22,-164.72 516.95,-171.93 530.42,-177.49"/>
<polygon fill="black" stroke="black" points="465.33,-127.95 456.24,-122.52 459.96,-132.44 465.33,-127.95"/>
<text text-anchor="middle" x="528" y="-144.8" font-family="Times,serif" font-size="14.00">समुच्चय_द्योतकः</text>
</g>
<!-- Node8_1 -->
<g id="node10" class="node">
<title>Node8_1</title>
<ellipse fill="#ff99ff" stroke="#ff99ff" cx="209" cy="-279" rx="37.09" ry="18"/>
<text text-anchor="middle" x="209" y="-275.3" font-family="Times,serif" font-size="14.00">न(8.1)</text>
</g>
<!-- Node8_1&#45;&gt;Node10_1 -->
<g id="edge9" class="edge">
<title>Node8_1&#45;&gt;Node10_1</title>
<path fill="none" stroke="black" d="M224.29,-304.99C232.78,-318.87 243.11,-335.76 250.65,-348.08"/>
<polygon fill="black" stroke="black" points="227.23,-303.09 219.03,-296.39 221.26,-306.75 227.23,-303.09"/>
<text text-anchor="middle" x="258.5" y="-318.8" font-family="Times,serif" font-size="14.00">प्रतिषेधः</text>
</g>
<!-- Node9_1 -->
<g id="node11" class="node">
<title>Node9_1</title>
<ellipse fill="#ff99ff" stroke="#ff99ff" cx="313" cy="-279" rx="49.29" ry="18"/>
<text text-anchor="middle" x="313" y="-275.3" font-family="Times,serif" font-size="14.00">पृष्ठतः(9.1)</text>
</g>
<!-- Node9_1&#45;&gt;Node10_1 -->
<g id="edge10" class="edge">
<title>Node9_1&#45;&gt;Node10_1</title>
<path fill="none" stroke="black" d="M297.5,-305.34C289.08,-319.1 278.9,-335.74 271.43,-347.95"/>
<polygon fill="black" stroke="black" points="300.49,-307.15 302.73,-296.79 294.52,-303.5 300.49,-307.15"/>
<text text-anchor="middle" x="326" y="-318.8" font-family="Times,serif" font-size="14.00">क्रियाविशेषणम्</text>
</g>
</g>
</svg>
