<?xml version="1.0" encoding="UTF-8" standalone="no"?>
<!DOCTYPE svg PUBLIC "-//W3C//DTD SVG 1.1//EN"
 "http://www.w3.org/Graphics/SVG/1.1/DTD/svg11.dtd">
<!-- Generated by graphviz version 2.43.0 (0)
 -->
<!-- Title: G Pages: 1 -->
<svg width="1242pt" height="495pt"
 viewBox="0.00 0.00 1241.94 495.00" xmlns="http://www.w3.org/2000/svg" xmlns:xlink="http://www.w3.org/1999/xlink">
<g id="graph0" class="graph" transform="scale(1 1) rotate(0) translate(4 491)">
<title>G</title>
<polygon fill="#fffacd" stroke="transparent" points="-4,4 -4,-491 1237.94,-491 1237.94,4 -4,4"/>
<g id="clust1" class="cluster">
<title>cluster_1</title>
<polygon fill="#fffacd" stroke="black" points="522.35,-269 522.35,-408 1048.35,-408 1048.35,-269 522.35,-269"/>
</g>
<g id="clust2" class="cluster">
<title>cluster_2</title>
<polygon fill="#fffacd" stroke="black" points="288.35,-182 288.35,-234 402.35,-234 402.35,-182 288.35,-182"/>
</g>
<g id="clust3" class="cluster">
<title>cluster_3</title>
<polygon fill="#fffacd" stroke="black" points="410.35,-95 410.35,-234 560.35,-234 560.35,-95 410.35,-95"/>
</g>
<g id="clust5" class="cluster">
<title>cluster_5</title>
<polygon fill="#fffacd" stroke="black" points="833.35,-8 833.35,-147 981.35,-147 981.35,-8 833.35,-8"/>
</g>
<!-- Node5_1 -->
<g id="node1" class="node">
<title>Node5_1</title>
<ellipse fill="#40e0d0" stroke="#40e0d0" cx="982.35" cy="-295" rx="58.49" ry="18"/>
<text text-anchor="middle" x="982.35" y="-291.3" font-family="Times,serif" font-size="14.00">महात्मना(5.1)</text>
</g>
<!-- Node3_1 -->
<g id="node2" class="node">
<title>Node3_1</title>
<ellipse fill="#40e0d0" stroke="#40e0d0" cx="718.35" cy="-382" rx="50.09" ry="18"/>
<text text-anchor="middle" x="718.35" y="-378.3" font-family="Times,serif" font-size="14.00">कर्णेन(3.1)</text>
</g>
<!-- Node5_1&#45;&gt;Node3_1 -->
<g id="edge8" class="edge">
<title>Node5_1&#45;&gt;Node3_1</title>
<path fill="none" stroke="black" d="M936.53,-312.57C908.33,-322.6 871.38,-335.45 838.35,-346 811.16,-354.68 780.24,-363.68 756.6,-370.38"/>
<polygon fill="black" stroke="black" points="937.88,-315.8 946.12,-309.15 935.52,-309.21 937.88,-315.8"/>
<text text-anchor="middle" x="903.85" y="-334.8" font-family="Times,serif" font-size="14.00">विशेषणम्</text>
</g>
<!-- Node12_1 -->
<g id="node15" class="node">
<title>Node12_1</title>
<ellipse fill="#00bfff" stroke="#00bfff" cx="430.35" cy="-469" rx="59.29" ry="18"/>
<text text-anchor="middle" x="430.35" y="-465.3" font-family="Times,serif" font-size="14.00">(हताः)(12.1)</text>
</g>
<!-- Node3_1&#45;&gt;Node12_1 -->
<g id="edge6" class="edge">
<title>Node3_1&#45;&gt;Node12_1</title>
<path fill="none" stroke="black" d="M671.39,-396.86C615.82,-413.26 524.19,-440.3 471.35,-455.9"/>
<polygon fill="black" stroke="black" points="672.39,-400.21 680.99,-394.03 670.41,-393.5 672.39,-400.21"/>
<text text-anchor="middle" x="602.35" y="-421.8" font-family="Times,serif" font-size="14.00">कर्ता</text>
</g>
<!-- Node6_1 -->
<g id="node3" class="node">
<title>Node6_1</title>
<ellipse fill="#40e0d0" stroke="#40e0d0" cx="846.35" cy="-295" rx="59.59" ry="18"/>
<text text-anchor="middle" x="846.35" y="-291.3" font-family="Times,serif" font-size="14.00">युयुधानेन(6.1)</text>
</g>
<!-- Node6_1&#45;&gt;Node3_1 -->
<g id="edge9" class="edge">
<title>Node6_1&#45;&gt;Node3_1</title>
<path fill="none" stroke="black" d="M814.24,-317.32C791.51,-332.41 761.58,-352.29 741.24,-365.79"/>
<polygon fill="black" stroke="black" points="816.47,-320.04 822.87,-311.59 812.6,-314.21 816.47,-320.04"/>
<text text-anchor="middle" x="811.85" y="-334.8" font-family="Times,serif" font-size="14.00">समुच्चितः</text>
</g>
<!-- Node8_1 -->
<g id="node4" class="node">
<title>Node8_1</title>
<ellipse fill="#40e0d0" stroke="#40e0d0" cx="590.35" cy="-295" rx="59.59" ry="18"/>
<text text-anchor="middle" x="590.35" y="-291.3" font-family="Times,serif" font-size="14.00">धृष्टद्युम्नेन(8.1)</text>
</g>
<!-- Node8_1&#45;&gt;Node3_1 -->
<g id="edge11" class="edge">
<title>Node8_1&#45;&gt;Node3_1</title>
<path fill="none" stroke="black" d="M622.45,-317.32C645.18,-332.41 675.11,-352.29 695.45,-365.79"/>
<polygon fill="black" stroke="black" points="624.09,-314.21 613.82,-311.59 620.22,-320.04 624.09,-314.21"/>
<text text-anchor="middle" x="683.85" y="-334.8" font-family="Times,serif" font-size="14.00">समुच्चितः</text>
</g>
<!-- Node16_3 -->
<g id="node5" class="node">
<title>Node16_3</title>
<ellipse fill="#40e0d0" stroke="#40e0d0" cx="718.35" cy="-295" rx="50.09" ry="18"/>
<text text-anchor="middle" x="718.35" y="-291.3" font-family="Times,serif" font-size="14.00">यमैः(16.3)</text>
</g>
<!-- Node16_3&#45;&gt;Node3_1 -->
<g id="edge20" class="edge">
<title>Node16_3&#45;&gt;Node3_1</title>
<path fill="none" stroke="black" d="M718.35,-323.27C718.35,-336.58 718.35,-352.19 718.35,-363.82"/>
<polygon fill="black" stroke="black" points="721.85,-323.2 718.35,-313.2 714.85,-323.2 721.85,-323.2"/>
<text text-anchor="middle" x="740.85" y="-334.8" font-family="Times,serif" font-size="14.00">समुच्चितः</text>
</g>
<!-- Node7_1 -->
<g id="node6" class="node">
<title>Node7_1</title>
<ellipse fill="#40e0d0" stroke="#40e0d0" cx="345.35" cy="-208" rx="48.99" ry="18"/>
<text text-anchor="middle" x="345.35" y="-204.3" font-family="Times,serif" font-size="14.00">वीरेण(7.1)</text>
</g>
<!-- Node7_1&#45;&gt;Node8_1 -->
<g id="edge10" class="edge">
<title>Node7_1&#45;&gt;Node8_1</title>
<path fill="none" stroke="black" d="M386.01,-225.91C392.79,-228.66 399.75,-231.44 406.35,-234 436.36,-245.66 443.39,-250.14 474.35,-259 495.3,-265 501.4,-263 522.35,-269 533.35,-272.15 545.12,-276.22 555.73,-280.16"/>
<polygon fill="black" stroke="black" points="386.87,-222.48 376.29,-221.94 384.22,-228.96 386.87,-222.48"/>
<text text-anchor="middle" x="496.85" y="-247.8" font-family="Times,serif" font-size="14.00">विशेषणम्</text>
</g>
<!-- Node13_1 -->
<g id="node7" class="node">
<title>Node13_1</title>
<ellipse fill="#40e0d0" stroke="#40e0d0" cx="485.35" cy="-121" rx="59.29" ry="18"/>
<text text-anchor="middle" x="485.35" y="-117.3" font-family="Times,serif" font-size="14.00">चतुर्भिः(13.1)</text>
</g>
<!-- Node14_1 -->
<g id="node8" class="node">
<title>Node14_1</title>
<ellipse fill="#40e0d0" stroke="#40e0d0" cx="485.35" cy="-208" rx="66.89" ry="18"/>
<text text-anchor="middle" x="485.35" y="-204.3" font-family="Times,serif" font-size="14.00">पाण्डुपुत्रैः(14.1)</text>
</g>
<!-- Node13_1&#45;&gt;Node14_1 -->
<g id="edge15" class="edge">
<title>Node13_1&#45;&gt;Node14_1</title>
<path fill="none" stroke="black" d="M485.35,-149.27C485.35,-162.58 485.35,-178.19 485.35,-189.82"/>
<polygon fill="black" stroke="black" points="488.85,-149.2 485.35,-139.2 481.85,-149.2 488.85,-149.2"/>
<text text-anchor="middle" x="507.85" y="-160.8" font-family="Times,serif" font-size="14.00">विशेषणम्</text>
</g>
<!-- Node14_1&#45;&gt;Node16_3 -->
<g id="edge16" class="edge">
<title>Node14_1&#45;&gt;Node16_3</title>
<path fill="none" stroke="black" d="M508.27,-232.56C519.39,-242.48 533.53,-253.08 548.35,-259 594.34,-277.39 611.3,-256.97 659.35,-269 669.71,-271.59 680.59,-275.76 690.15,-279.95"/>
<polygon fill="black" stroke="black" points="510.44,-229.8 500.75,-225.54 505.67,-234.92 510.44,-229.8"/>
<text text-anchor="middle" x="570.85" y="-247.8" font-family="Times,serif" font-size="14.00">विशेषणम्</text>
</g>
<!-- Node19_1 -->
<g id="node9" class="node">
<title>Node19_1</title>
<ellipse fill="#00bfff" stroke="#00bfff" cx="907.35" cy="-34" rx="49.29" ry="18"/>
<text text-anchor="middle" x="907.35" y="-30.3" font-family="Times,serif" font-size="14.00">अयं(19.1)</text>
</g>
<!-- Node18_1 -->
<g id="node10" class="node">
<title>Node18_1</title>
<ellipse fill="#00bfff" stroke="#00bfff" cx="907.35" cy="-121" rx="65.79" ry="18"/>
<text text-anchor="middle" x="907.35" y="-117.3" font-family="Times,serif" font-size="14.00">जन&#45;क्षयः(18.1)</text>
</g>
<!-- Node19_1&#45;&gt;Node18_1 -->
<g id="edge23" class="edge">
<title>Node19_1&#45;&gt;Node18_1</title>
<path fill="none" stroke="black" d="M907.35,-62.27C907.35,-75.58 907.35,-91.19 907.35,-102.82"/>
<polygon fill="black" stroke="black" points="910.85,-62.2 907.35,-52.2 903.85,-62.2 910.85,-62.2"/>
<text text-anchor="middle" x="929.85" y="-73.8" font-family="Times,serif" font-size="14.00">विशेषणम्</text>
</g>
<!-- Node21_1 -->
<g id="node25" class="node">
<title>Node21_1</title>
<ellipse fill="#00bfff" stroke="#00bfff" cx="1043.35" cy="-208" rx="51.99" ry="18"/>
<text text-anchor="middle" x="1043.35" y="-204.3" font-family="Times,serif" font-size="14.00">कृतः(21.1)</text>
</g>
<!-- Node18_1&#45;&gt;Node21_1 -->
<g id="edge22" class="edge">
<title>Node18_1&#45;&gt;Node21_1</title>
<path fill="none" stroke="black" d="M941.15,-143.12C965.37,-158.27 997.43,-178.3 1019.13,-191.87"/>
<polygon fill="black" stroke="black" points="942.94,-140.12 932.61,-137.79 939.23,-146.06 942.94,-140.12"/>
<text text-anchor="middle" x="992.35" y="-160.8" font-family="Times,serif" font-size="14.00">कर्म</text>
</g>
<!-- Node1_1 -->
<g id="node11" class="node">
<title>Node1_1</title>
<ellipse fill="#ffff00" stroke="#ffff00" cx="51.35" cy="-295" rx="51.19" ry="18"/>
<text text-anchor="middle" x="51.35" y="-291.3" font-family="Times,serif" font-size="14.00">भीष्म&#45;(1.1)</text>
</g>
<!-- Node1_4 -->
<g id="node12" class="node">
<title>Node1_4</title>
<ellipse fill="#40e0d0" stroke="#40e0d0" cx="280.35" cy="-382" rx="48.19" ry="18"/>
<text text-anchor="middle" x="280.35" y="-378.3" font-family="Times,serif" font-size="14.00">आद्यैः(1.4)</text>
</g>
<!-- Node1_1&#45;&gt;Node1_4 -->
<g id="edge1" class="edge">
<title>Node1_1&#45;&gt;Node1_4</title>
<path fill="none" stroke="black" d="M93.69,-312.82C118.8,-322.69 151.3,-335.29 180.35,-346 202.09,-354.02 226.66,-362.62 246,-369.29"/>
<polygon fill="black" stroke="black" points="94.69,-309.45 84.1,-309.04 92.13,-315.96 94.69,-309.45"/>
<text text-anchor="middle" x="197.35" y="-334.8" font-family="Times,serif" font-size="14.00">समासः</text>
</g>
<!-- Node1_4&#45;&gt;Node12_1 -->
<g id="edge4" class="edge">
<title>Node1_4&#45;&gt;Node12_1</title>
<path fill="none" stroke="black" d="M314.52,-402.37C341.51,-417.66 378.63,-438.7 403.51,-452.79"/>
<polygon fill="black" stroke="black" points="316.22,-399.3 305.79,-397.42 312.77,-405.39 316.22,-399.3"/>
<text text-anchor="middle" x="375.35" y="-421.8" font-family="Times,serif" font-size="14.00">कर्ता</text>
</g>
<!-- Node1_2 -->
<g id="node13" class="node">
<title>Node1_2</title>
<ellipse fill="#ffff00" stroke="#ffff00" cx="168.35" cy="-295" rx="48.19" ry="18"/>
<text text-anchor="middle" x="168.35" y="-291.3" font-family="Times,serif" font-size="14.00">द्रोण&#45;(1.2)</text>
</g>
<!-- Node1_2&#45;&gt;Node1_4 -->
<g id="edge2" class="edge">
<title>Node1_2&#45;&gt;Node1_4</title>
<path fill="none" stroke="black" d="M196.65,-317.48C216.33,-332.42 242.12,-351.99 259.84,-365.43"/>
<polygon fill="black" stroke="black" points="198.71,-314.65 188.63,-311.39 194.48,-320.23 198.71,-314.65"/>
<text text-anchor="middle" x="248.35" y="-334.8" font-family="Times,serif" font-size="14.00">समासः</text>
</g>
<!-- Node1_3 -->
<g id="node14" class="node">
<title>Node1_3</title>
<ellipse fill="#ffff00" stroke="#ffff00" cx="280.35" cy="-295" rx="46.29" ry="18"/>
<text text-anchor="middle" x="280.35" y="-291.3" font-family="Times,serif" font-size="14.00">कृप&#45;(1.3)</text>
</g>
<!-- Node1_3&#45;&gt;Node1_4 -->
<g id="edge3" class="edge">
<title>Node1_3&#45;&gt;Node1_4</title>
<path fill="none" stroke="black" d="M280.35,-323.27C280.35,-336.58 280.35,-352.19 280.35,-363.82"/>
<polygon fill="black" stroke="black" points="283.85,-323.2 280.35,-313.2 276.85,-323.2 283.85,-323.2"/>
<text text-anchor="middle" x="297.35" y="-334.8" font-family="Times,serif" font-size="14.00">समासः</text>
</g>
<!-- Node2_1 -->
<g id="node16" class="node">
<title>Node2_1</title>
<ellipse fill="#ff99ff" stroke="#ff99ff" cx="382.35" cy="-295" rx="37.89" ry="18"/>
<text text-anchor="middle" x="382.35" y="-291.3" font-family="Times,serif" font-size="14.00">च(2.1)</text>
</g>
<!-- Node2_1&#45;&gt;Node1_4 -->
<g id="edge5" class="edge">
<title>Node2_1&#45;&gt;Node1_4</title>
<path fill="none" stroke="black" d="M356.33,-317.68C338.47,-332.56 315.18,-351.97 299.11,-365.36"/>
<polygon fill="black" stroke="black" points="358.67,-320.29 364.11,-311.2 354.19,-314.91 358.67,-320.29"/>
<text text-anchor="middle" x="356.85" y="-334.8" font-family="Times,serif" font-size="14.00">सम्बन्धः</text>
</g>
<!-- Node4_1 -->
<g id="node17" class="node">
<title>Node4_1</title>
<ellipse fill="#ff99ff" stroke="#ff99ff" cx="475.35" cy="-295" rx="37.89" ry="18"/>
<text text-anchor="middle" x="475.35" y="-291.3" font-family="Times,serif" font-size="14.00">च(4.1)</text>
</g>
<!-- Node4_1&#45;&gt;Node3_1 -->
<g id="edge7" class="edge">
<title>Node4_1&#45;&gt;Node3_1</title>
<path fill="none" stroke="black" d="M505.13,-315.11C522.43,-325.5 544.97,-337.85 566.35,-346 601.14,-359.27 642.4,-368.38 673.15,-373.97"/>
<polygon fill="black" stroke="black" points="506.95,-312.12 496.6,-309.89 503.3,-318.09 506.95,-312.12"/>
<text text-anchor="middle" x="604.35" y="-334.8" font-family="Times,serif" font-size="14.00">समुच्चय_द्योतकः</text>
</g>
<!-- Node9_1 -->
<g id="node18" class="node">
<title>Node9_1</title>
<ellipse fill="#ff99ff" stroke="#ff99ff" cx="608.35" cy="-208" rx="37.89" ry="18"/>
<text text-anchor="middle" x="608.35" y="-204.3" font-family="Times,serif" font-size="14.00">च(9.1)</text>
</g>
<!-- Node9_1&#45;&gt;Node8_1 -->
<g id="edge12" class="edge">
<title>Node9_1&#45;&gt;Node8_1</title>
<path fill="none" stroke="black" d="M602.57,-236.27C599.75,-249.58 596.45,-265.19 593.98,-276.82"/>
<polygon fill="black" stroke="black" points="606.06,-236.71 604.7,-226.2 599.21,-235.26 606.06,-236.71"/>
<text text-anchor="middle" x="618.85" y="-247.8" font-family="Times,serif" font-size="14.00">सम्बन्धः</text>
</g>
<!-- Node10_1 -->
<g id="node19" class="node">
<title>Node10_1</title>
<ellipse fill="#ff99ff" stroke="#ff99ff" cx="615.35" cy="-121" rx="47.39" ry="18"/>
<text text-anchor="middle" x="615.35" y="-117.3" font-family="Times,serif" font-size="14.00">एव(10.1)</text>
</g>
<!-- Node10_1&#45;&gt;Node9_1 -->
<g id="edge13" class="edge">
<title>Node10_1&#45;&gt;Node9_1</title>
<path fill="none" stroke="black" d="M613.1,-149.27C612,-162.58 610.72,-178.19 609.76,-189.82"/>
<polygon fill="black" stroke="black" points="616.6,-149.45 613.93,-139.2 609.62,-148.88 616.6,-149.45"/>
<text text-anchor="middle" x="629.85" y="-160.8" font-family="Times,serif" font-size="14.00">सम्बन्धः</text>
</g>
<!-- Node11_1 -->
<g id="node20" class="node">
<title>Node11_1</title>
<ellipse fill="#ff99ff" stroke="#ff99ff" cx="615.35" cy="-34" rx="42.49" ry="18"/>
<text text-anchor="middle" x="615.35" y="-30.3" font-family="Times,serif" font-size="14.00">ह(11.1)</text>
</g>
<!-- Node11_1&#45;&gt;Node10_1 -->
<g id="edge14" class="edge">
<title>Node11_1&#45;&gt;Node10_1</title>
<path fill="none" stroke="black" d="M615.35,-62.27C615.35,-75.58 615.35,-91.19 615.35,-102.82"/>
<polygon fill="black" stroke="black" points="618.85,-62.2 615.35,-52.2 611.85,-62.2 618.85,-62.2"/>
<text text-anchor="middle" x="633.85" y="-73.8" font-family="Times,serif" font-size="14.00">सम्बन्धः</text>
</g>
<!-- Node15_1 -->
<g id="node21" class="node">
<title>Node15_1</title>
<ellipse fill="#ff99ff" stroke="#ff99ff" cx="1102.35" cy="-295" rx="43.59" ry="18"/>
<text text-anchor="middle" x="1102.35" y="-291.3" font-family="Times,serif" font-size="14.00">च(15.1)</text>
</g>
<!-- Node15_1&#45;&gt;Node3_1 -->
<g id="edge17" class="edge">
<title>Node15_1&#45;&gt;Node3_1</title>
<path fill="none" stroke="black" d="M1060.65,-310.4C1057.85,-311.3 1055.06,-312.17 1052.35,-313 998.62,-329.38 985.24,-334.08 930.35,-346 873.66,-358.31 807.62,-368.58 764.5,-374.75"/>
<polygon fill="black" stroke="black" points="1061.76,-313.72 1070.17,-307.28 1059.57,-307.07 1061.76,-313.72"/>
<text text-anchor="middle" x="1029.35" y="-334.8" font-family="Times,serif" font-size="14.00">समुच्चय_द्योतकः</text>
</g>
<!-- Node16_1 -->
<g id="node22" class="node">
<title>Node16_1</title>
<ellipse fill="#ffff00" stroke="#ffff00" cx="718.35" cy="-208" rx="53.89" ry="18"/>
<text text-anchor="middle" x="718.35" y="-204.3" font-family="Times,serif" font-size="14.00">भीम&#45;(16.1)</text>
</g>
<!-- Node16_1&#45;&gt;Node16_3 -->
<g id="edge18" class="edge">
<title>Node16_1&#45;&gt;Node16_3</title>
<path fill="none" stroke="black" d="M718.35,-236.27C718.35,-249.58 718.35,-265.19 718.35,-276.82"/>
<polygon fill="black" stroke="black" points="721.85,-236.2 718.35,-226.2 714.85,-236.2 721.85,-236.2"/>
<text text-anchor="middle" x="735.35" y="-247.8" font-family="Times,serif" font-size="14.00">समासः</text>
</g>
<!-- Node16_2 -->
<g id="node23" class="node">
<title>Node16_2</title>
<ellipse fill="#ffff00" stroke="#ffff00" cx="848.35" cy="-208" rx="57.69" ry="18"/>
<text text-anchor="middle" x="848.35" y="-204.3" font-family="Times,serif" font-size="14.00">अर्जुन&#45;(16.2)</text>
</g>
<!-- Node16_2&#45;&gt;Node16_3 -->
<g id="edge19" class="edge">
<title>Node16_2&#45;&gt;Node16_3</title>
<path fill="none" stroke="black" d="M816.04,-230.12C792.93,-245.24 762.35,-265.23 741.6,-278.79"/>
<polygon fill="black" stroke="black" points="818.05,-232.99 824.5,-224.59 814.22,-227.13 818.05,-232.99"/>
<text text-anchor="middle" x="807.35" y="-247.8" font-family="Times,serif" font-size="14.00">समासः</text>
</g>
<!-- Node17_1 -->
<g id="node24" class="node">
<title>Node17_1</title>
<ellipse fill="#6fffc3" stroke="#6fffc3" cx="430.35" cy="-382" rx="48.19" ry="18"/>
<text text-anchor="middle" x="430.35" y="-378.3" font-family="Times,serif" font-size="14.00">नृप(17.1)</text>
</g>
<!-- Node17_1&#45;&gt;Node12_1 -->
<g id="edge21" class="edge">
<title>Node17_1&#45;&gt;Node12_1</title>
<path fill="none" stroke="black" d="M430.35,-410.27C430.35,-423.58 430.35,-439.19 430.35,-450.82"/>
<polygon fill="black" stroke="black" points="433.85,-410.2 430.35,-400.2 426.85,-410.2 433.85,-410.2"/>
<text text-anchor="middle" x="451.35" y="-421.8" font-family="Times,serif" font-size="14.00">सम्बोध्यः</text>
</g>
<!-- Node20_1 -->
<g id="node26" class="node">
<title>Node20_1</title>
<ellipse fill="#6fffc3" stroke="#6fffc3" cx="1043.35" cy="-121" rx="52.79" ry="18"/>
<text text-anchor="middle" x="1043.35" y="-117.3" font-family="Times,serif" font-size="14.00">नृपते(20.1)</text>
</g>
<!-- Node20_1&#45;&gt;Node21_1 -->
<g id="edge24" class="edge">
<title>Node20_1&#45;&gt;Node21_1</title>
<path fill="none" stroke="black" d="M1043.35,-149.27C1043.35,-162.58 1043.35,-178.19 1043.35,-189.82"/>
<polygon fill="black" stroke="black" points="1046.85,-149.2 1043.35,-139.2 1039.85,-149.2 1046.85,-149.2"/>
<text text-anchor="middle" x="1064.35" y="-160.8" font-family="Times,serif" font-size="14.00">सम्बोध्यः</text>
</g>
<!-- Node22_1 -->
<g id="node27" class="node">
<title>Node22_1</title>
<ellipse fill="#b4ffb4" stroke="#b4ffb4" cx="1166.35" cy="-34" rx="67.69" ry="18"/>
<text text-anchor="middle" x="1166.35" y="-30.3" font-family="Times,serif" font-size="14.00">दैव&#45;बलात्(22.1)</text>
</g>
<!-- Node23_1 -->
<g id="node28" class="node">
<title>Node23_1</title>
<ellipse fill="#00bfff" stroke="#00bfff" cx="1166.35" cy="-121" rx="51.99" ry="18"/>
<text text-anchor="middle" x="1166.35" y="-117.3" font-family="Times,serif" font-size="14.00">कृतैः(23.1)</text>
</g>
<!-- Node22_1&#45;&gt;Node23_1 -->
<g id="edge25" class="edge">
<title>Node22_1&#45;&gt;Node23_1</title>
<path fill="none" stroke="black" d="M1166.35,-62.27C1166.35,-75.58 1166.35,-91.19 1166.35,-102.82"/>
<polygon fill="black" stroke="black" points="1169.85,-62.2 1166.35,-52.2 1162.85,-62.2 1169.85,-62.2"/>
<text text-anchor="middle" x="1175.85" y="-73.8" font-family="Times,serif" font-size="14.00">हेतुः</text>
</g>
<!-- Node23_1&#45;&gt;Node21_1 -->
<g id="edge26" class="edge">
<title>Node23_1&#45;&gt;Node21_1</title>
<path fill="none" stroke="black" d="M1135.84,-143.08C1114.15,-158.07 1085.5,-177.87 1065.87,-191.43"/>
<polygon fill="black" stroke="black" points="1137.83,-145.96 1144.07,-137.39 1133.85,-140.2 1137.83,-145.96"/>
<text text-anchor="middle" x="1122.35" y="-160.8" font-family="Times,serif" font-size="14.00">कर्ता</text>
</g>
</g>
</svg>
