<?xml version="1.0" encoding="UTF-8" standalone="no"?>
<!DOCTYPE svg PUBLIC "-//W3C//DTD SVG 1.1//EN"
 "http://www.w3.org/Graphics/SVG/1.1/DTD/svg11.dtd">
<!-- Generated by graphviz version 2.43.0 (0)
 -->
<!-- Title: G Pages: 1 -->
<svg width="1016pt" height="234pt"
 viewBox="0.00 0.00 1016.44 234.00" xmlns="http://www.w3.org/2000/svg" xmlns:xlink="http://www.w3.org/1999/xlink">
<g id="graph0" class="graph" transform="scale(1 1) rotate(0) translate(4 230)">
<title>G</title>
<polygon fill="#fffacd" stroke="transparent" points="-4,4 -4,-230 1012.44,-230 1012.44,4 -4,4"/>
<g id="clust1" class="cluster">
<title>cluster_1</title>
<polygon fill="#fffacd" stroke="black" points="8,-8 8,-147 136,-147 136,-8 8,-8"/>
</g>
<g id="clust2" class="cluster">
<title>cluster_2</title>
<polygon fill="#fffacd" stroke="black" points="348,-8 348,-147 618,-147 618,-8 348,-8"/>
</g>
<!-- Node1_1 -->
<g id="node1" class="node">
<title>Node1_1</title>
<ellipse fill="#c6e2eb" stroke="#c6e2eb" cx="72" cy="-34" rx="46.59" ry="18"/>
<text text-anchor="middle" x="72" y="-30.3" font-family="Times,serif" font-size="14.00">लोके(1.1)</text>
</g>
<!-- Node3_1 -->
<g id="node2" class="node">
<title>Node3_1</title>
<ellipse fill="#c6e2eb" stroke="#c6e2eb" cx="72" cy="-121" rx="55.79" ry="18"/>
<text text-anchor="middle" x="72" y="-117.3" font-family="Times,serif" font-size="14.00">सङ्ग्रामे(3.1)</text>
</g>
<!-- Node1_1&#45;&gt;Node3_1 -->
<g id="edge1" class="edge">
<title>Node1_1&#45;&gt;Node3_1</title>
<path fill="none" stroke="black" d="M72,-62.27C72,-75.58 72,-91.19 72,-102.82"/>
<polygon fill="black" stroke="black" points="75.5,-62.2 72,-52.2 68.5,-62.2 75.5,-62.2"/>
<text text-anchor="middle" x="94.5" y="-73.8" font-family="Times,serif" font-size="14.00">समुच्चितः</text>
</g>
<!-- Node12_1 -->
<g id="node7" class="node">
<title>Node12_1</title>
<ellipse fill="#ff1975" stroke="#ff1975" cx="683" cy="-208" rx="61.99" ry="18"/>
<text text-anchor="middle" x="683" y="-204.3" font-family="Times,serif" font-size="14.00">कर्तव्यम्(12.1)</text>
</g>
<!-- Node3_1&#45;&gt;Node12_1 -->
<g id="edge3" class="edge">
<title>Node3_1&#45;&gt;Node12_1</title>
<path fill="none" stroke="black" d="M132.28,-130.39C251.2,-146.93 514.32,-183.53 628.44,-199.41"/>
<polygon fill="black" stroke="black" points="132.65,-126.9 122.26,-128.99 131.68,-133.84 132.65,-126.9"/>
<text text-anchor="middle" x="441.5" y="-160.8" font-family="Times,serif" font-size="14.00">अधिकरणम्</text>
</g>
<!-- Node5_1 -->
<g id="node3" class="node">
<title>Node5_1</title>
<ellipse fill="#40e0d0" stroke="#40e0d0" cx="556" cy="-34" rx="53.89" ry="18"/>
<text text-anchor="middle" x="556" y="-30.3" font-family="Times,serif" font-size="14.00">शस्त्रेण(5.1)</text>
</g>
<!-- Node7_1 -->
<g id="node4" class="node">
<title>Node7_1</title>
<ellipse fill="#40e0d0" stroke="#40e0d0" cx="519" cy="-121" rx="57.69" ry="18"/>
<text text-anchor="middle" x="519" y="-117.3" font-family="Times,serif" font-size="14.00">क्षत्रियेण(7.1)</text>
</g>
<!-- Node5_1&#45;&gt;Node7_1 -->
<g id="edge5" class="edge">
<title>Node5_1&#45;&gt;Node7_1</title>
<path fill="none" stroke="black" d="M544.45,-61.54C538.54,-75.12 531.52,-91.24 526.35,-103.11"/>
<polygon fill="black" stroke="black" points="547.73,-62.77 548.51,-52.2 541.31,-59.97 547.73,-62.77"/>
<text text-anchor="middle" x="561.5" y="-73.8" font-family="Times,serif" font-size="14.00">समुच्चितः</text>
</g>
<!-- Node7_1&#45;&gt;Node12_1 -->
<g id="edge7" class="edge">
<title>Node7_1&#45;&gt;Node12_1</title>
<path fill="none" stroke="black" d="M556.75,-141.57C586.32,-156.89 626.85,-177.9 653.93,-191.94"/>
<polygon fill="black" stroke="black" points="558.06,-138.3 547.57,-136.81 554.83,-144.51 558.06,-138.3"/>
<text text-anchor="middle" x="621" y="-160.8" font-family="Times,serif" font-size="14.00">कर्ता</text>
</g>
<!-- Node6_1 -->
<g id="node5" class="node">
<title>Node6_1</title>
<ellipse fill="#40e0d0" stroke="#40e0d0" cx="420" cy="-34" rx="63.89" ry="18"/>
<text text-anchor="middle" x="420" y="-30.3" font-family="Times,serif" font-size="14.00">क्षत्रबन्धुना(6.1)</text>
</g>
<!-- Node6_1&#45;&gt;Node7_1 -->
<g id="edge6" class="edge">
<title>Node6_1&#45;&gt;Node7_1</title>
<path fill="none" stroke="black" d="M446.98,-58.17C463.89,-72.68 485.25,-91.03 500.31,-103.95"/>
<polygon fill="black" stroke="black" points="448.96,-55.25 439.09,-51.39 444.4,-60.56 448.96,-55.25"/>
<text text-anchor="middle" x="497.5" y="-73.8" font-family="Times,serif" font-size="14.00">समुच्चितः</text>
</g>
<!-- Node2_1 -->
<g id="node6" class="node">
<title>Node2_1</title>
<ellipse fill="#ff99ff" stroke="#ff99ff" cx="683" cy="-121" rx="57.39" ry="18"/>
<text text-anchor="middle" x="683" y="-117.3" font-family="Times,serif" font-size="14.00">विशेषतः(2.1)</text>
</g>
<!-- Node2_1&#45;&gt;Node12_1 -->
<g id="edge2" class="edge">
<title>Node2_1&#45;&gt;Node12_1</title>
<path fill="none" stroke="black" d="M683,-149.27C683,-162.58 683,-178.19 683,-189.82"/>
<polygon fill="black" stroke="black" points="686.5,-149.2 683,-139.2 679.5,-149.2 686.5,-149.2"/>
<text text-anchor="middle" x="718" y="-160.8" font-family="Times,serif" font-size="14.00">क्रियाविशेषणम्</text>
</g>
<!-- Node4_1 -->
<g id="node8" class="node">
<title>Node4_1</title>
<ellipse fill="#ff99ff" stroke="#ff99ff" cx="188" cy="-34" rx="44.39" ry="18"/>
<text text-anchor="middle" x="188" y="-30.3" font-family="Times,serif" font-size="14.00">(च)(4.1)</text>
</g>
<!-- Node4_1&#45;&gt;Node3_1 -->
<g id="edge4" class="edge">
<title>Node4_1&#45;&gt;Node3_1</title>
<path fill="none" stroke="black" d="M159.61,-56.39C147.73,-65.29 133.73,-75.7 121,-85 112.22,-91.41 102.49,-98.39 94.02,-104.42"/>
<polygon fill="black" stroke="black" points="161.95,-59.01 167.85,-50.21 157.75,-53.41 161.95,-59.01"/>
<text text-anchor="middle" x="179" y="-73.8" font-family="Times,serif" font-size="14.00">समुच्चय_द्योतकः</text>
</g>
<!-- Node8_1 -->
<g id="node9" class="node">
<title>Node8_1</title>
<ellipse fill="#ff99ff" stroke="#ff99ff" cx="294" cy="-34" rx="44.39" ry="18"/>
<text text-anchor="middle" x="294" y="-30.3" font-family="Times,serif" font-size="14.00">(च)(8.1)</text>
</g>
<!-- Node8_1&#45;&gt;Node7_1 -->
<g id="edge8" class="edge">
<title>Node8_1&#45;&gt;Node7_1</title>
<path fill="none" stroke="black" d="M324.99,-55.05C341.66,-65.14 362.88,-76.92 383,-85 411.39,-96.4 444.63,-105.04 471.14,-110.88"/>
<polygon fill="black" stroke="black" points="326.59,-51.92 316.24,-49.65 322.91,-57.88 326.59,-51.92"/>
<text text-anchor="middle" x="421" y="-73.8" font-family="Times,serif" font-size="14.00">समुच्चय_द्योतकः</text>
</g>
<!-- Node9_1 -->
<g id="node10" class="node">
<title>Node9_1</title>
<ellipse fill="#ff99ff" stroke="#ff99ff" cx="814" cy="-121" rx="55.79" ry="18"/>
<text text-anchor="middle" x="814" y="-117.3" font-family="Times,serif" font-size="14.00">अवश्यम्(9.1)</text>
</g>
<!-- Node9_1&#45;&gt;Node12_1 -->
<g id="edge9" class="edge">
<title>Node9_1&#45;&gt;Node12_1</title>
<path fill="none" stroke="black" d="M790.16,-145.56C780.38,-154.5 768.64,-164.36 757,-172 744.76,-180.03 730.39,-187.27 717.59,-193.05"/>
<polygon fill="black" stroke="black" points="792.64,-148.04 797.55,-138.65 787.86,-142.93 792.64,-148.04"/>
<text text-anchor="middle" x="811" y="-160.8" font-family="Times,serif" font-size="14.00">क्रियाविशेषणम्</text>
</g>
<!-- Node10_1 -->
<g id="node11" class="node">
<title>Node10_1</title>
<ellipse fill="#ff99ff" stroke="#ff99ff" cx="814" cy="-34" rx="47.39" ry="18"/>
<text text-anchor="middle" x="814" y="-30.3" font-family="Times,serif" font-size="14.00">एव(10.1)</text>
</g>
<!-- Node10_1&#45;&gt;Node9_1 -->
<g id="edge10" class="edge">
<title>Node10_1&#45;&gt;Node9_1</title>
<path fill="none" stroke="black" d="M814,-62.27C814,-75.58 814,-91.19 814,-102.82"/>
<polygon fill="black" stroke="black" points="817.5,-62.2 814,-52.2 810.5,-62.2 817.5,-62.2"/>
<text text-anchor="middle" x="832.5" y="-73.8" font-family="Times,serif" font-size="14.00">सम्बन्धः</text>
</g>
<!-- Node11_1 -->
<g id="node12" class="node">
<title>Node11_1</title>
<ellipse fill="#00bfff" stroke="#00bfff" cx="948" cy="-121" rx="60.39" ry="18"/>
<text text-anchor="middle" x="948" y="-117.3" font-family="Times,serif" font-size="14.00">निधनम्(11.1)</text>
</g>
<!-- Node11_1&#45;&gt;Node12_1 -->
<g id="edge11" class="edge">
<title>Node11_1&#45;&gt;Node12_1</title>
<path fill="none" stroke="black" d="M913.38,-142.51C895.06,-152.63 871.88,-164.28 850,-172 813.4,-184.91 770.53,-193.77 737.39,-199.35"/>
<polygon fill="black" stroke="black" points="915.22,-145.5 922.22,-137.55 911.79,-139.39 915.22,-145.5"/>
<text text-anchor="middle" x="892" y="-160.8" font-family="Times,serif" font-size="14.00">कर्म</text>
</g>
</g>
</svg>
