<?xml version="1.0" encoding="UTF-8" standalone="no"?>
<!DOCTYPE svg PUBLIC "-//W3C//DTD SVG 1.1//EN"
 "http://www.w3.org/Graphics/SVG/1.1/DTD/svg11.dtd">
<!-- Generated by graphviz version 2.43.0 (0)
 -->
<!-- Title: G Pages: 1 -->
<svg width="637pt" height="408pt"
 viewBox="0.00 0.00 637.00 408.00" xmlns="http://www.w3.org/2000/svg" xmlns:xlink="http://www.w3.org/1999/xlink">
<g id="graph0" class="graph" transform="scale(1 1) rotate(0) translate(4 404)">
<title>G</title>
<polygon fill="#fffacd" stroke="transparent" points="-4,4 -4,-404 633,-404 633,4 -4,4"/>
<g id="clust1" class="cluster">
<title>cluster_1</title>
<polygon fill="#fffacd" stroke="black" points="8,-8 8,-147 255,-147 255,-8 8,-8"/>
</g>
<g id="clust2" class="cluster">
<title>cluster_2</title>
<polygon fill="#fffacd" stroke="black" points="263,-8 263,-147 407,-147 407,-8 263,-8"/>
</g>
<!-- Node4_1 -->
<g id="node1" class="node">
<title>Node4_1</title>
<ellipse fill="#87ceeb" stroke="#87ceeb" cx="200" cy="-34" rx="47.39" ry="18"/>
<text text-anchor="middle" x="200" y="-30.3" font-family="Times,serif" font-size="14.00">अस्य(4.1)</text>
</g>
<!-- Node6_1 -->
<g id="node2" class="node">
<title>Node6_1</title>
<ellipse fill="#87ceeb" stroke="#87ceeb" cx="170" cy="-121" rx="50.09" ry="18"/>
<text text-anchor="middle" x="170" y="-117.3" font-family="Times,serif" font-size="14.00">जगतः(6.1)</text>
</g>
<!-- Node4_1&#45;&gt;Node6_1 -->
<g id="edge3" class="edge">
<title>Node4_1&#45;&gt;Node6_1</title>
<path fill="none" stroke="black" d="M190.49,-61.94C185.73,-75.43 180.11,-91.36 175.96,-103.11"/>
<polygon fill="black" stroke="black" points="193.9,-62.8 193.93,-52.2 187.3,-60.47 193.9,-62.8"/>
<text text-anchor="middle" x="209.5" y="-73.8" font-family="Times,serif" font-size="14.00">विशेषणम्</text>
</g>
<!-- Node7_1 -->
<g id="node9" class="node">
<title>Node7_1</title>
<ellipse fill="#00bfff" stroke="#00bfff" cx="170" cy="-208" rx="45.49" ry="18"/>
<text text-anchor="middle" x="170" y="-204.3" font-family="Times,serif" font-size="14.00">प्रभुः(7.1)</text>
</g>
<!-- Node6_1&#45;&gt;Node7_1 -->
<g id="edge5" class="edge">
<title>Node6_1&#45;&gt;Node7_1</title>
<path fill="none" stroke="black" d="M170,-149.27C170,-162.58 170,-178.19 170,-189.82"/>
<polygon fill="black" stroke="black" points="173.5,-149.2 170,-139.2 166.5,-149.2 173.5,-149.2"/>
<text text-anchor="middle" x="197.5" y="-160.8" font-family="Times,serif" font-size="14.00">षष्ठीसम्बन्धः</text>
</g>
<!-- Node5_1 -->
<g id="node3" class="node">
<title>Node5_1</title>
<ellipse fill="#87ceeb" stroke="#87ceeb" cx="75" cy="-34" rx="59.29" ry="18"/>
<text text-anchor="middle" x="75" y="-30.3" font-family="Times,serif" font-size="14.00">कृत्स्नस्य(5.1)</text>
</g>
<!-- Node5_1&#45;&gt;Node6_1 -->
<g id="edge4" class="edge">
<title>Node5_1&#45;&gt;Node6_1</title>
<path fill="none" stroke="black" d="M100.89,-58.17C117.12,-72.68 137.62,-91.03 152.06,-103.95"/>
<polygon fill="black" stroke="black" points="103.1,-55.45 93.32,-51.39 98.44,-60.67 103.1,-55.45"/>
<text text-anchor="middle" x="151.5" y="-73.8" font-family="Times,serif" font-size="14.00">विशेषणम्</text>
</g>
<!-- Node8_1 -->
<g id="node4" class="node">
<title>Node8_1</title>
<ellipse fill="#93db70" stroke="#93db70" cx="335" cy="-34" rx="64.19" ry="18"/>
<text text-anchor="middle" x="335" y="-30.3" font-family="Times,serif" font-size="14.00">धर्मात्मानम्(8.1)</text>
</g>
<!-- Node12_1 -->
<g id="node5" class="node">
<title>Node12_1</title>
<ellipse fill="#93db70" stroke="#93db70" cx="339" cy="-121" rx="53.89" ry="18"/>
<text text-anchor="middle" x="339" y="-117.3" font-family="Times,serif" font-size="14.00">सुतम्(12.1)</text>
</g>
<!-- Node8_1&#45;&gt;Node12_1 -->
<g id="edge7" class="edge">
<title>Node8_1&#45;&gt;Node12_1</title>
<path fill="none" stroke="black" d="M336.28,-62.27C336.91,-75.58 337.64,-91.19 338.19,-102.82"/>
<polygon fill="black" stroke="black" points="339.78,-62.03 335.81,-52.2 332.78,-62.35 339.78,-62.03"/>
<text text-anchor="middle" x="359.5" y="-73.8" font-family="Times,serif" font-size="14.00">विशेषणम्</text>
</g>
<!-- Node11_1 -->
<g id="node11" class="node">
<title>Node11_1</title>
<ellipse fill="#ff1975" stroke="#ff1975" cx="461" cy="-208" rx="74.19" ry="18"/>
<text text-anchor="middle" x="461" y="-204.3" font-family="Times,serif" font-size="14.00">अनुजानीमहे(11.1)</text>
</g>
<!-- Node12_1&#45;&gt;Node11_1 -->
<g id="edge10" class="edge">
<title>Node12_1&#45;&gt;Node11_1</title>
<path fill="none" stroke="black" d="M369.67,-143.37C390.71,-158.03 418.21,-177.19 437.52,-190.64"/>
<polygon fill="black" stroke="black" points="371.58,-140.44 361.38,-137.59 367.58,-146.18 371.58,-140.44"/>
<text text-anchor="middle" x="416" y="-160.8" font-family="Times,serif" font-size="14.00">कर्म</text>
</g>
<!-- Node1_1 -->
<g id="node6" class="node">
<title>Node1_1</title>
<ellipse fill="#00bfff" stroke="#00bfff" cx="282" cy="-295" rx="44.39" ry="18"/>
<text text-anchor="middle" x="282" y="-291.3" font-family="Times,serif" font-size="14.00">गुरुः(1.1)</text>
</g>
<!-- Node2_1 -->
<g id="node7" class="node">
<title>Node2_1</title>
<ellipse fill="#00bfff" stroke="#00bfff" cx="282" cy="-382" rx="44.39" ry="18"/>
<text text-anchor="middle" x="282" y="-378.3" font-family="Times,serif" font-size="14.00">मतः(2.1)</text>
</g>
<!-- Node1_1&#45;&gt;Node2_1 -->
<g id="edge1" class="edge">
<title>Node1_1&#45;&gt;Node2_1</title>
<path fill="none" stroke="black" d="M282,-323.27C282,-336.58 282,-352.19 282,-363.82"/>
<polygon fill="black" stroke="black" points="285.5,-323.2 282,-313.2 278.5,-323.2 285.5,-323.2"/>
<text text-anchor="middle" x="321" y="-334.8" font-family="Times,serif" font-size="14.00">विधेय_विशेषणम्</text>
</g>
<!-- Node3_1 -->
<g id="node8" class="node">
<title>Node3_1</title>
<ellipse fill="#00bfff" stroke="#00bfff" cx="170" cy="-295" rx="50.09" ry="18"/>
<text text-anchor="middle" x="170" y="-291.3" font-family="Times,serif" font-size="14.00">भवान्(3.1)</text>
</g>
<!-- Node3_1&#45;&gt;Node2_1 -->
<g id="edge2" class="edge">
<title>Node3_1&#45;&gt;Node2_1</title>
<path fill="none" stroke="black" d="M198.62,-317.72C218.44,-332.76 244.33,-352.41 261.96,-365.79"/>
<polygon fill="black" stroke="black" points="200.62,-314.85 190.54,-311.59 196.39,-320.42 200.62,-314.85"/>
<text text-anchor="middle" x="244" y="-334.8" font-family="Times,serif" font-size="14.00">कर्ता</text>
</g>
<!-- Node7_1&#45;&gt;Node3_1 -->
<g id="edge6" class="edge">
<title>Node7_1&#45;&gt;Node3_1</title>
<path fill="none" stroke="black" d="M170,-236.27C170,-249.58 170,-265.19 170,-276.82"/>
<polygon fill="black" stroke="black" points="173.5,-236.2 170,-226.2 166.5,-236.2 173.5,-236.2"/>
<text text-anchor="middle" x="209" y="-247.8" font-family="Times,serif" font-size="14.00">विधेय_विशेषणम्</text>
</g>
<!-- Node9_1 -->
<g id="node10" class="node">
<title>Node9_1</title>
<ellipse fill="#ff99ff" stroke="#ff99ff" cx="461" cy="-121" rx="46.29" ry="18"/>
<text text-anchor="middle" x="461" y="-117.3" font-family="Times,serif" font-size="14.00">अतः(9.1)</text>
</g>
<!-- Node9_1&#45;&gt;Node11_1 -->
<g id="edge8" class="edge">
<title>Node9_1&#45;&gt;Node11_1</title>
<path fill="none" stroke="black" d="M461,-149.27C461,-162.58 461,-178.19 461,-189.82"/>
<polygon fill="black" stroke="black" points="464.5,-149.2 461,-139.2 457.5,-149.2 464.5,-149.2"/>
<text text-anchor="middle" x="479.5" y="-160.8" font-family="Times,serif" font-size="14.00">सम्बन्धः</text>
</g>
<!-- Node10_1 -->
<g id="node12" class="node">
<title>Node10_1</title>
<ellipse fill="#b0e2ff" stroke="#b0e2ff" cx="577" cy="-121" rx="51.99" ry="18"/>
<text text-anchor="middle" x="577" y="-117.3" font-family="Times,serif" font-size="14.00">तुभ्यं(10.1)</text>
</g>
<!-- Node10_1&#45;&gt;Node11_1 -->
<g id="edge9" class="edge">
<title>Node10_1&#45;&gt;Node11_1</title>
<path fill="none" stroke="black" d="M547.57,-143.56C527.6,-158.2 501.6,-177.25 483.33,-190.64"/>
<polygon fill="black" stroke="black" points="549.73,-146.32 555.72,-137.59 545.59,-140.68 549.73,-146.32"/>
<text text-anchor="middle" x="548.5" y="-160.8" font-family="Times,serif" font-size="14.00">सम्प्रदानम्</text>
</g>
<!-- Node13_1 -->
<g id="node13" class="node">
<title>Node13_1</title>
<ellipse fill="#87ceeb" stroke="#87ceeb" cx="418" cy="-295" rx="73.39" ry="18"/>
<text text-anchor="middle" x="418" y="-291.3" font-family="Times,serif" font-size="14.00">(अस्माकम्)(13.1)</text>
</g>
<!-- Node13_1&#45;&gt;Node2_1 -->
<g id="edge11" class="edge">
<title>Node13_1&#45;&gt;Node2_1</title>
<path fill="none" stroke="black" d="M395.47,-320.13C386.3,-329.04 375.22,-338.72 364,-346 348.93,-355.77 330.69,-363.87 315.23,-369.81"/>
<polygon fill="black" stroke="black" points="398.1,-322.45 402.68,-312.9 393.14,-317.5 398.1,-322.45"/>
<text text-anchor="middle" x="403" y="-334.8" font-family="Times,serif" font-size="14.00">षष्ठीकर्ता</text>
</g>
<!-- Node14_1 -->
<g id="node14" class="node">
<title>Node14_1</title>
<ellipse fill="lightgrey" stroke="black" cx="458" cy="-34" rx="40.89" ry="18"/>
<text text-anchor="middle" x="458" y="-30.3" font-family="Times,serif" font-size="14.00">&#45;(14.1)</text>
</g>
</g>
</svg>
