<?xml version="1.0" encoding="UTF-8" standalone="no"?>
<!DOCTYPE svg PUBLIC "-//W3C//DTD SVG 1.1//EN"
 "http://www.w3.org/Graphics/SVG/1.1/DTD/svg11.dtd">
<!-- Generated by graphviz version 2.43.0 (0)
 -->
<!-- Title: G Pages: 1 -->
<svg width="764pt" height="305pt"
 viewBox="0.00 0.00 764.10 305.00" xmlns="http://www.w3.org/2000/svg" xmlns:xlink="http://www.w3.org/1999/xlink">
<g id="graph0" class="graph" transform="scale(1 1) rotate(0) translate(4 301)">
<title>G</title>
<polygon fill="#fffacd" stroke="transparent" points="-4,4 -4,-301 760.1,-301 760.1,4 -4,4"/>
<g id="clust1" class="cluster">
<title>cluster_1</title>
<polygon fill="#fffacd" stroke="black" points="8,-79 8,-218 152,-218 152,-79 8,-79"/>
</g>
<g id="clust2" class="cluster">
<title>cluster_2</title>
<polygon fill="#fffacd" stroke="black" points="384,-79 384,-218 652,-218 652,-79 384,-79"/>
</g>
<!-- Node1_1 -->
<g id="node1" class="node">
<title>Node1_1</title>
<ellipse fill="#93db70" stroke="#93db70" cx="80" cy="-105" rx="63.89" ry="18"/>
<text text-anchor="middle" x="80" y="-101.3" font-family="Times,serif" font-size="14.00">अधर्मिष्ठान्(1.1)</text>
</g>
<!-- Node6_1 -->
<g id="node2" class="node">
<title>Node6_1</title>
<ellipse fill="#93db70" stroke="#93db70" cx="88" cy="-192" rx="55.79" ry="18"/>
<text text-anchor="middle" x="88" y="-188.3" font-family="Times,serif" font-size="14.00">मानवान्(6.1)</text>
</g>
<!-- Node1_1&#45;&gt;Node6_1 -->
<g id="edge1" class="edge">
<title>Node1_1&#45;&gt;Node6_1</title>
<path fill="none" stroke="black" d="M82.57,-133.27C83.82,-146.58 85.29,-162.19 86.38,-173.82"/>
<polygon fill="black" stroke="black" points="86.04,-132.83 81.62,-123.2 79.07,-133.49 86.04,-132.83"/>
<text text-anchor="middle" x="107.5" y="-144.8" font-family="Times,serif" font-size="14.00">विशेषणम्</text>
</g>
<!-- Node7_1 -->
<g id="node10" class="node">
<title>Node7_1</title>
<ellipse fill="#ff1975" stroke="#ff1975" cx="451" cy="-279" rx="70.39" ry="18"/>
<text text-anchor="middle" x="451" y="-275.3" font-family="Times,serif" font-size="14.00">पालयिष्यन्ति(7.1)</text>
</g>
<!-- Node6_1&#45;&gt;Node7_1 -->
<g id="edge7" class="edge">
<title>Node6_1&#45;&gt;Node7_1</title>
<path fill="none" stroke="black" d="M141.72,-205.58C211.63,-221.95 332.89,-250.34 400.95,-266.28"/>
<polygon fill="black" stroke="black" points="142.32,-202.13 131.79,-203.25 140.72,-208.94 142.32,-202.13"/>
<text text-anchor="middle" x="300" y="-231.8" font-family="Times,serif" font-size="14.00">कर्म</text>
</g>
<!-- Node5_1 -->
<g id="node3" class="node">
<title>Node5_1</title>
<ellipse fill="#00bfff" stroke="#00bfff" cx="586" cy="-105" rx="57.69" ry="18"/>
<text text-anchor="middle" x="586" y="-101.3" font-family="Times,serif" font-size="14.00">महारथाः(5.1)</text>
</g>
<!-- Node4_2 -->
<g id="node4" class="node">
<title>Node4_2</title>
<ellipse fill="#00bfff" stroke="#00bfff" cx="451" cy="-192" rx="47.39" ry="18"/>
<text text-anchor="middle" x="451" y="-188.3" font-family="Times,serif" font-size="14.00">पुत्राः(4.2)</text>
</g>
<!-- Node5_1&#45;&gt;Node4_2 -->
<g id="edge6" class="edge">
<title>Node5_1&#45;&gt;Node4_2</title>
<path fill="none" stroke="black" d="M552.98,-126.79C528.62,-142.13 496.07,-162.62 474.36,-176.29"/>
<polygon fill="black" stroke="black" points="554.96,-129.68 561.55,-121.39 551.23,-123.76 554.96,-129.68"/>
<text text-anchor="middle" x="548.5" y="-144.8" font-family="Times,serif" font-size="14.00">विशेषणम्</text>
</g>
<!-- Node4_2&#45;&gt;Node7_1 -->
<g id="edge5" class="edge">
<title>Node4_2&#45;&gt;Node7_1</title>
<path fill="none" stroke="black" d="M451,-220.27C451,-233.58 451,-249.19 451,-260.82"/>
<polygon fill="black" stroke="black" points="454.5,-220.2 451,-210.2 447.5,-220.2 454.5,-220.2"/>
<text text-anchor="middle" x="462" y="-231.8" font-family="Times,serif" font-size="14.00">कर्ता</text>
</g>
<!-- Node9_2 -->
<g id="node5" class="node">
<title>Node9_2</title>
<ellipse fill="#00bfff" stroke="#00bfff" cx="451" cy="-105" rx="59.29" ry="18"/>
<text text-anchor="middle" x="451" y="-101.3" font-family="Times,serif" font-size="14.00">परायणाः(9.2)</text>
</g>
<!-- Node9_2&#45;&gt;Node4_2 -->
<g id="edge10" class="edge">
<title>Node9_2&#45;&gt;Node4_2</title>
<path fill="none" stroke="black" d="M451,-133.27C451,-146.58 451,-162.19 451,-173.82"/>
<polygon fill="black" stroke="black" points="454.5,-133.2 451,-123.2 447.5,-133.2 454.5,-133.2"/>
<text text-anchor="middle" x="473.5" y="-144.8" font-family="Times,serif" font-size="14.00">विशेषणम्</text>
</g>
<!-- Node2_1 -->
<g id="node6" class="node">
<title>Node2_1</title>
<ellipse fill="#ff99ff" stroke="#ff99ff" cx="208" cy="-105" rx="46.29" ry="18"/>
<text text-anchor="middle" x="208" y="-101.3" font-family="Times,serif" font-size="14.00">अपि(2.1)</text>
</g>
<!-- Node2_1&#45;&gt;Node6_1 -->
<g id="edge2" class="edge">
<title>Node2_1&#45;&gt;Node6_1</title>
<path fill="none" stroke="black" d="M178.53,-126.88C157.41,-141.83 129.42,-161.66 110.18,-175.29"/>
<polygon fill="black" stroke="black" points="180.69,-129.64 186.82,-121 176.64,-123.92 180.69,-129.64"/>
<text text-anchor="middle" x="173.5" y="-144.8" font-family="Times,serif" font-size="14.00">सम्बन्धः</text>
</g>
<!-- Node3_1 -->
<g id="node7" class="node">
<title>Node3_1</title>
<ellipse fill="#93db70" stroke="#93db70" cx="708" cy="-105" rx="45.49" ry="18"/>
<text text-anchor="middle" x="708" y="-101.3" font-family="Times,serif" font-size="14.00">सतः(3.1)</text>
</g>
<!-- Node8_1 -->
<g id="node8" class="node">
<title>Node8_1</title>
<ellipse fill="#ff99ff" stroke="#ff99ff" cx="708" cy="-192" rx="48.19" ry="18"/>
<text text-anchor="middle" x="708" y="-188.3" font-family="Times,serif" font-size="14.00">भूत्वा(8.1)</text>
</g>
<!-- Node3_1&#45;&gt;Node8_1 -->
<g id="edge3" class="edge">
<title>Node3_1&#45;&gt;Node8_1</title>
<path fill="none" stroke="black" d="M708,-133.27C708,-146.58 708,-162.19 708,-173.82"/>
<polygon fill="black" stroke="black" points="711.5,-133.2 708,-123.2 704.5,-133.2 711.5,-133.2"/>
<text text-anchor="middle" x="717" y="-144.8" font-family="Times,serif" font-size="14.00">कर्म</text>
</g>
<!-- Node8_1&#45;&gt;Node7_1 -->
<g id="edge8" class="edge">
<title>Node8_1&#45;&gt;Node7_1</title>
<path fill="none" stroke="black" d="M671.86,-211.3C666.6,-213.69 661.2,-216 656,-218 603.89,-238 542.2,-255.22 500.2,-266.02"/>
<polygon fill="black" stroke="black" points="673.55,-214.38 681.11,-206.96 670.57,-208.04 673.55,-214.38"/>
<text text-anchor="middle" x="643.5" y="-231.8" font-family="Times,serif" font-size="14.00">पूर्वकालः</text>
</g>
<!-- Node4_1 -->
<g id="node9" class="node">
<title>Node4_1</title>
<ellipse fill="#ffff00" stroke="#ffff00" cx="323" cy="-105" rx="51.19" ry="18"/>
<text text-anchor="middle" x="323" y="-101.3" font-family="Times,serif" font-size="14.00">कुन्ती&#45;(4.1)</text>
</g>
<!-- Node4_1&#45;&gt;Node4_2 -->
<g id="edge4" class="edge">
<title>Node4_1&#45;&gt;Node4_2</title>
<path fill="none" stroke="black" d="M354.25,-126.75C377.15,-141.96 407.72,-162.26 428.31,-175.94"/>
<polygon fill="black" stroke="black" points="356.15,-123.81 345.88,-121.2 352.28,-129.64 356.15,-123.81"/>
<text text-anchor="middle" x="411" y="-144.8" font-family="Times,serif" font-size="14.00">समासः</text>
</g>
<!-- Node9_1 -->
<g id="node11" class="node">
<title>Node9_1</title>
<ellipse fill="#ffff00" stroke="#ffff00" cx="451" cy="-18" rx="45.49" ry="18"/>
<text text-anchor="middle" x="451" y="-14.3" font-family="Times,serif" font-size="14.00">धर्म&#45;(9.1)</text>
</g>
<!-- Node9_1&#45;&gt;Node9_2 -->
<g id="edge9" class="edge">
<title>Node9_1&#45;&gt;Node9_2</title>
<path fill="none" stroke="black" d="M451,-46.27C451,-59.58 451,-75.19 451,-86.82"/>
<polygon fill="black" stroke="black" points="454.5,-46.2 451,-36.2 447.5,-46.2 454.5,-46.2"/>
<text text-anchor="middle" x="468" y="-57.8" font-family="Times,serif" font-size="14.00">समासः</text>
</g>
</g>
</svg>
