<?xml version="1.0" encoding="UTF-8" standalone="no"?>
<!DOCTYPE svg PUBLIC "-//W3C//DTD SVG 1.1//EN"
 "http://www.w3.org/Graphics/SVG/1.1/DTD/svg11.dtd">
<!-- Generated by graphviz version 2.43.0 (0)
 -->
<!-- Title: G Pages: 1 -->
<svg width="1471pt" height="408pt"
 viewBox="0.00 0.00 1470.84 408.00" xmlns="http://www.w3.org/2000/svg" xmlns:xlink="http://www.w3.org/1999/xlink">
<g id="graph0" class="graph" transform="scale(1 1) rotate(0) translate(4 404)">
<title>G</title>
<polygon fill="#fffacd" stroke="transparent" points="-4,4 -4,-404 1466.84,-404 1466.84,4 -4,4"/>
<g id="clust1" class="cluster">
<title>cluster_1</title>
<polygon fill="#fffacd" stroke="black" points="8,-8 8,-147 362,-147 362,-8 8,-8"/>
</g>
<g id="clust2" class="cluster">
<title>cluster_2</title>
<polygon fill="#fffacd" stroke="black" points="370,-8 370,-147 514,-147 514,-8 370,-8"/>
</g>
<g id="clust3" class="cluster">
<title>cluster_3</title>
<polygon fill="#fffacd" stroke="black" points="924,-8 924,-147 1056,-147 1056,-8 924,-8"/>
</g>
<!-- Node3_1 -->
<g id="node1" class="node">
<title>Node3_1</title>
<ellipse fill="#93db70" stroke="#93db70" cx="308" cy="-34" rx="46.29" ry="18"/>
<text text-anchor="middle" x="308" y="-30.3" font-family="Times,serif" font-size="14.00">ज्येष्ठं(3.1)</text>
</g>
<!-- Node1_1 -->
<g id="node2" class="node">
<title>Node1_1</title>
<ellipse fill="#93db70" stroke="#93db70" cx="190" cy="-121" rx="55.79" ry="18"/>
<text text-anchor="middle" x="190" y="-117.3" font-family="Times,serif" font-size="14.00">राजानम्(1.1)</text>
</g>
<!-- Node3_1&#45;&gt;Node1_1 -->
<g id="edge2" class="edge">
<title>Node3_1&#45;&gt;Node1_1</title>
<path fill="none" stroke="black" d="M279.05,-56.04C266.72,-64.99 252.17,-75.52 239,-85 230.17,-91.35 220.43,-98.32 211.98,-104.35"/>
<polygon fill="black" stroke="black" points="281.16,-58.84 287.19,-50.13 277.04,-53.18 281.16,-58.84"/>
<text text-anchor="middle" x="280.5" y="-73.8" font-family="Times,serif" font-size="14.00">विशेषणम्</text>
</g>
<!-- Node4_1 -->
<g id="node3" class="node">
<title>Node4_1</title>
<ellipse fill="#93db70" stroke="#93db70" cx="190" cy="-34" rx="53.89" ry="18"/>
<text text-anchor="middle" x="190" y="-30.3" font-family="Times,serif" font-size="14.00">भ्रातरम्(4.1)</text>
</g>
<!-- Node4_1&#45;&gt;Node1_1 -->
<g id="edge3" class="edge">
<title>Node4_1&#45;&gt;Node1_1</title>
<path fill="none" stroke="black" d="M190,-62.27C190,-75.58 190,-91.19 190,-102.82"/>
<polygon fill="black" stroke="black" points="193.5,-62.2 190,-52.2 186.5,-62.2 193.5,-62.2"/>
<text text-anchor="middle" x="212.5" y="-73.8" font-family="Times,serif" font-size="14.00">विशेषणम्</text>
</g>
<!-- Node5_1 -->
<g id="node4" class="node">
<title>Node5_1</title>
<ellipse fill="#93db70" stroke="#93db70" cx="67" cy="-34" rx="51.19" ry="18"/>
<text text-anchor="middle" x="67" y="-30.3" font-family="Times,serif" font-size="14.00">ईश्वरम्(5.1)</text>
</g>
<!-- Node5_1&#45;&gt;Node1_1 -->
<g id="edge4" class="edge">
<title>Node5_1&#45;&gt;Node1_1</title>
<path fill="none" stroke="black" d="M97.51,-56.08C119.19,-71.07 147.84,-90.87 167.48,-104.43"/>
<polygon fill="black" stroke="black" points="99.49,-53.2 89.27,-50.39 95.51,-58.96 99.49,-53.2"/>
<text text-anchor="middle" x="158.5" y="-73.8" font-family="Times,serif" font-size="14.00">विशेषणम्</text>
</g>
<!-- Node15_1 -->
<g id="node5" class="node">
<title>Node15_1</title>
<ellipse fill="#93db70" stroke="#93db70" cx="442" cy="-34" rx="63.89" ry="18"/>
<text text-anchor="middle" x="442" y="-30.3" font-family="Times,serif" font-size="14.00">ब्रुवाणम् (15.1)</text>
</g>
<!-- Node16_1 -->
<g id="node6" class="node">
<title>Node16_1</title>
<ellipse fill="#93db70" stroke="#93db70" cx="442" cy="-121" rx="63.89" ry="18"/>
<text text-anchor="middle" x="442" y="-117.3" font-family="Times,serif" font-size="14.00">कौन्तेयम्(16.1)</text>
</g>
<!-- Node15_1&#45;&gt;Node16_1 -->
<g id="edge13" class="edge">
<title>Node15_1&#45;&gt;Node16_1</title>
<path fill="none" stroke="black" d="M442,-62.27C442,-75.58 442,-91.19 442,-102.82"/>
<polygon fill="black" stroke="black" points="445.5,-62.2 442,-52.2 438.5,-62.2 445.5,-62.2"/>
<text text-anchor="middle" x="464.5" y="-73.8" font-family="Times,serif" font-size="14.00">विशेषणम्</text>
</g>
<!-- Node18_1 -->
<g id="node18" class="node">
<title>Node18_1</title>
<ellipse fill="#ff1975" stroke="#ff1975" cx="654" cy="-208" rx="82.59" ry="18"/>
<text text-anchor="middle" x="654" y="-204.3" font-family="Times,serif" font-size="14.00">अभि&#45;अपूजयत्(18.1)</text>
</g>
<!-- Node16_1&#45;&gt;Node18_1 -->
<g id="edge14" class="edge">
<title>Node16_1&#45;&gt;Node18_1</title>
<path fill="none" stroke="black" d="M486.88,-140C525.32,-155.41 580.03,-177.34 616.25,-191.87"/>
<polygon fill="black" stroke="black" points="488.07,-136.7 477.48,-136.23 485.46,-143.2 488.07,-136.7"/>
<text text-anchor="middle" x="570" y="-160.8" font-family="Times,serif" font-size="14.00">कर्म</text>
</g>
<!-- Node21_1 -->
<g id="node7" class="node">
<title>Node21_1</title>
<ellipse fill="#00bfff" stroke="#00bfff" cx="990" cy="-34" rx="57.69" ry="18"/>
<text text-anchor="middle" x="990" y="-30.3" font-family="Times,serif" font-size="14.00">(अर्हः)(21.1)</text>
</g>
<!-- Node19_1 -->
<g id="node8" class="node">
<title>Node19_1</title>
<ellipse fill="#00bfff" stroke="#00bfff" cx="990" cy="-121" rx="57.39" ry="18"/>
<text text-anchor="middle" x="990" y="-117.3" font-family="Times,serif" font-size="14.00">(त्वम्)(19.1)</text>
</g>
<!-- Node21_1&#45;&gt;Node19_1 -->
<g id="edge17" class="edge">
<title>Node21_1&#45;&gt;Node19_1</title>
<path fill="none" stroke="black" d="M990,-62.27C990,-75.58 990,-91.19 990,-102.82"/>
<polygon fill="black" stroke="black" points="993.5,-62.2 990,-52.2 986.5,-62.2 993.5,-62.2"/>
<text text-anchor="middle" x="1012.5" y="-73.8" font-family="Times,serif" font-size="14.00">विशेषणम्</text>
</g>
<!-- Node20_1 -->
<g id="node21" class="node">
<title>Node20_1</title>
<ellipse fill="#ff1975" stroke="#ff1975" cx="990" cy="-208" rx="59.59" ry="18"/>
<text text-anchor="middle" x="990" y="-204.3" font-family="Times,serif" font-size="14.00">(असि)(20.1)</text>
</g>
<!-- Node19_1&#45;&gt;Node20_1 -->
<g id="edge16" class="edge">
<title>Node19_1&#45;&gt;Node20_1</title>
<path fill="none" stroke="black" d="M990,-149.27C990,-162.58 990,-178.19 990,-189.82"/>
<polygon fill="black" stroke="black" points="993.5,-149.2 990,-139.2 986.5,-149.2 993.5,-149.2"/>
<text text-anchor="middle" x="1001" y="-160.8" font-family="Times,serif" font-size="14.00">कर्ता</text>
</g>
<!-- Node2_1 -->
<g id="node9" class="node">
<title>Node2_1</title>
<ellipse fill="#6fffc3" stroke="#6fffc3" cx="1128" cy="-34" rx="61.99" ry="18"/>
<text text-anchor="middle" x="1128" y="-30.3" font-family="Times,serif" font-size="14.00">उपतिष्ठस्व(2.1)</text>
</g>
<!-- Node2_1&#45;&gt;Node2_1 -->
<g id="edge1" class="edge">
<title>Node2_1&#45;&gt;Node2_1</title>
<path fill="none" stroke="black" d="M1193.93,-27.13C1202.26,-28.34 1207.74,-30.63 1207.74,-34 1207.74,-38.59 1197.57,-41.18 1183.9,-41.75"/>
<polygon fill="black" stroke="black" points="1194.16,-23.64 1183.9,-26.25 1193.55,-30.61 1194.16,-23.64"/>
<text text-anchor="middle" x="1216.74" y="-30.3" font-family="Times,serif" font-size="14.00">कर्म</text>
</g>
<!-- Node6_1 -->
<g id="node10" class="node">
<title>Node6_1</title>
<ellipse fill="#00bfff" stroke="#00bfff" cx="1286" cy="-208" rx="45.49" ry="18"/>
<text text-anchor="middle" x="1286" y="-204.3" font-family="Times,serif" font-size="14.00">अर्हः(6.1)</text>
</g>
<!-- Node7_1 -->
<g id="node11" class="node">
<title>Node7_1</title>
<ellipse fill="#00bfff" stroke="#00bfff" cx="1286" cy="-295" rx="44.39" ry="18"/>
<text text-anchor="middle" x="1286" y="-291.3" font-family="Times,serif" font-size="14.00">त्वम्(7.1)</text>
</g>
<!-- Node6_1&#45;&gt;Node7_1 -->
<g id="edge5" class="edge">
<title>Node6_1&#45;&gt;Node7_1</title>
<path fill="none" stroke="black" d="M1286,-236.27C1286,-249.58 1286,-265.19 1286,-276.82"/>
<polygon fill="black" stroke="black" points="1289.5,-236.2 1286,-226.2 1282.5,-236.2 1289.5,-236.2"/>
<text text-anchor="middle" x="1325" y="-247.8" font-family="Times,serif" font-size="14.00">विधेय_विशेषणम्</text>
</g>
<!-- Node8_1 -->
<g id="node12" class="node">
<title>Node8_1</title>
<ellipse fill="#ff1975" stroke="#ff1975" cx="1286" cy="-382" rx="46.59" ry="18"/>
<text text-anchor="middle" x="1286" y="-378.3" font-family="Times,serif" font-size="14.00">असि(8.1)</text>
</g>
<!-- Node7_1&#45;&gt;Node8_1 -->
<g id="edge6" class="edge">
<title>Node7_1&#45;&gt;Node8_1</title>
<path fill="none" stroke="black" d="M1286,-323.27C1286,-336.58 1286,-352.19 1286,-363.82"/>
<polygon fill="black" stroke="black" points="1289.5,-323.2 1286,-313.2 1282.5,-323.2 1289.5,-323.2"/>
<text text-anchor="middle" x="1297" y="-334.8" font-family="Times,serif" font-size="14.00">कर्ता</text>
</g>
<!-- Node9_1 -->
<g id="node13" class="node">
<title>Node9_1</title>
<ellipse fill="#ff99ff" stroke="#ff99ff" cx="1181" cy="-121" rx="44.39" ry="18"/>
<text text-anchor="middle" x="1181" y="-117.3" font-family="Times,serif" font-size="14.00">दातुं(9.1)</text>
</g>
<!-- Node9_1&#45;&gt;Node6_1 -->
<g id="edge7" class="edge">
<title>Node9_1&#45;&gt;Node6_1</title>
<path fill="none" stroke="black" d="M1206.15,-144.37C1216.23,-153.15 1228.03,-163.21 1239,-172 1247.41,-178.75 1256.92,-185.91 1265.17,-191.98"/>
<polygon fill="black" stroke="black" points="1208.32,-141.61 1198.49,-137.65 1203.7,-146.88 1208.32,-141.61"/>
<text text-anchor="middle" x="1260.5" y="-160.8" font-family="Times,serif" font-size="14.00">प्रयोजनम्</text>
</g>
<!-- Node10_1 -->
<g id="node14" class="node">
<title>Node10_1</title>
<ellipse fill="#ff99ff" stroke="#ff99ff" cx="1286" cy="-34" rx="42.49" ry="18"/>
<text text-anchor="middle" x="1286" y="-30.3" font-family="Times,serif" font-size="14.00">वै(10.1)</text>
</g>
<!-- Node11_1 -->
<g id="node15" class="node">
<title>Node11_1</title>
<ellipse fill="#ff99ff" stroke="#ff99ff" cx="1286" cy="-121" rx="42.79" ry="18"/>
<text text-anchor="middle" x="1286" y="-117.3" font-family="Times,serif" font-size="14.00">न(11.1)</text>
</g>
<!-- Node10_1&#45;&gt;Node11_1 -->
<g id="edge8" class="edge">
<title>Node10_1&#45;&gt;Node11_1</title>
<path fill="none" stroke="black" d="M1286,-62.27C1286,-75.58 1286,-91.19 1286,-102.82"/>
<polygon fill="black" stroke="black" points="1289.5,-62.2 1286,-52.2 1282.5,-62.2 1289.5,-62.2"/>
<text text-anchor="middle" x="1304.5" y="-73.8" font-family="Times,serif" font-size="14.00">सम्बन्धः</text>
</g>
<!-- Node11_1&#45;&gt;Node6_1 -->
<g id="edge9" class="edge">
<title>Node11_1&#45;&gt;Node6_1</title>
<path fill="none" stroke="black" d="M1286,-149.27C1286,-162.58 1286,-178.19 1286,-189.82"/>
<polygon fill="black" stroke="black" points="1289.5,-149.2 1286,-139.2 1282.5,-149.2 1289.5,-149.2"/>
<text text-anchor="middle" x="1305.5" y="-160.8" font-family="Times,serif" font-size="14.00">प्रतिषेधः</text>
</g>
<!-- Node12_1 -->
<g id="node16" class="node">
<title>Node12_1</title>
<ellipse fill="#ff99ff" stroke="#ff99ff" cx="1405" cy="-121" rx="57.69" ry="18"/>
<text text-anchor="middle" x="1405" y="-117.3" font-family="Times,serif" font-size="14.00">आदातुं(12.1)</text>
</g>
<!-- Node12_1&#45;&gt;Node6_1 -->
<g id="edge10" class="edge">
<title>Node12_1&#45;&gt;Node6_1</title>
<path fill="none" stroke="black" d="M1374.58,-143.73C1353.49,-158.79 1325.93,-178.48 1307.19,-191.87"/>
<polygon fill="black" stroke="black" points="1376.79,-146.45 1382.9,-137.79 1372.72,-140.75 1376.79,-146.45"/>
<text text-anchor="middle" x="1383" y="-160.8" font-family="Times,serif" font-size="14.00">सहायकक्रिया</text>
</g>
<!-- Node13_1 -->
<g id="node17" class="node">
<title>Node13_1</title>
<ellipse fill="#6fffc3" stroke="#6fffc3" cx="587" cy="-121" rx="63.09" ry="18"/>
<text text-anchor="middle" x="587" y="-117.3" font-family="Times,serif" font-size="14.00">भरतर्षभ(13.1)</text>
</g>
<!-- Node13_1&#45;&gt;Node18_1 -->
<g id="edge11" class="edge">
<title>Node13_1&#45;&gt;Node18_1</title>
<path fill="none" stroke="black" d="M606.67,-146.95C617.57,-160.78 630.85,-177.63 640.56,-189.95"/>
<polygon fill="black" stroke="black" points="609.18,-144.48 600.24,-138.79 603.68,-148.81 609.18,-144.48"/>
<text text-anchor="middle" x="646" y="-160.8" font-family="Times,serif" font-size="14.00">सम्बोध्यः</text>
</g>
<!-- Node14_1 -->
<g id="node19" class="node">
<title>Node14_1</title>
<ellipse fill="#ff99ff" stroke="#ff99ff" cx="720" cy="-121" rx="51.99" ry="18"/>
<text text-anchor="middle" x="720" y="-117.3" font-family="Times,serif" font-size="14.00">एवम्(14.1)</text>
</g>
<!-- Node14_1&#45;&gt;Node18_1 -->
<g id="edge12" class="edge">
<title>Node14_1&#45;&gt;Node18_1</title>
<path fill="none" stroke="black" d="M700.63,-146.95C689.89,-160.78 676.81,-177.63 667.24,-189.95"/>
<polygon fill="black" stroke="black" points="703.59,-148.84 706.96,-138.79 698.06,-144.55 703.59,-148.84"/>
<text text-anchor="middle" x="709.5" y="-160.8" font-family="Times,serif" font-size="14.00">सम्बन्धः</text>
</g>
<!-- Node17_1 -->
<g id="node20" class="node">
<title>Node17_1</title>
<ellipse fill="#00bfff" stroke="#00bfff" cx="852" cy="-121" rx="62.29" ry="18"/>
<text text-anchor="middle" x="852" y="-117.3" font-family="Times,serif" font-size="14.00">धर्मराजः(17.1)</text>
</g>
<!-- Node17_1&#45;&gt;Node18_1 -->
<g id="edge15" class="edge">
<title>Node17_1&#45;&gt;Node18_1</title>
<path fill="none" stroke="black" d="M809.22,-140.36C773.55,-155.68 723.32,-177.24 689.76,-191.65"/>
<polygon fill="black" stroke="black" points="810.6,-143.58 818.41,-136.42 807.84,-137.15 810.6,-143.58"/>
<text text-anchor="middle" x="776" y="-160.8" font-family="Times,serif" font-size="14.00">कर्ता</text>
</g>
</g>
</svg>
