<?xml version="1.0" encoding="UTF-8" standalone="no"?>
<!DOCTYPE svg PUBLIC "-//W3C//DTD SVG 1.1//EN"
 "http://www.w3.org/Graphics/SVG/1.1/DTD/svg11.dtd">
<!-- Generated by graphviz version 2.43.0 (0)
 -->
<!-- Title: G Pages: 1 -->
<svg width="2124pt" height="511pt"
 viewBox="0.00 0.00 2124.00 511.00" xmlns="http://www.w3.org/2000/svg" xmlns:xlink="http://www.w3.org/1999/xlink">
<g id="graph0" class="graph" transform="scale(1 1) rotate(0) translate(4 507)">
<title>G</title>
<polygon fill="#fffacd" stroke="transparent" points="-4,4 -4,-507 2120,-507 2120,4 -4,4"/>
<g id="clust1" class="cluster">
<title>cluster_1</title>
<polygon fill="#fffacd" stroke="black" points="8,-8 8,-147 178,-147 178,-8 8,-8"/>
</g>
<g id="clust2" class="cluster">
<title>cluster_2</title>
<polygon fill="#fffacd" stroke="black" points="192,-95 192,-234 420,-234 420,-95 192,-95"/>
</g>
<g id="clust3" class="cluster">
<title>cluster_3</title>
<polygon fill="#fffacd" stroke="black" points="1203,-8 1203,-147 1333,-147 1333,-8 1203,-8"/>
</g>
<g id="clust4" class="cluster">
<title>cluster_4</title>
<polygon fill="#fffacd" stroke="black" points="1270,-182 1270,-234 1394,-234 1394,-182 1270,-182"/>
</g>
<g id="clust5" class="cluster">
<title>cluster_5</title>
<polygon fill="#fffacd" stroke="black" points="1088,-356 1088,-495 1224,-495 1224,-356 1088,-356"/>
</g>
<g id="clust6" class="cluster">
<title>cluster_6</title>
<polygon fill="#fffacd" stroke="black" points="1764,-269 1764,-408 2108,-408 2108,-269 1764,-269"/>
</g>
<!-- Node4_1 -->
<g id="node1" class="node">
<title>Node4_1</title>
<ellipse fill="#93db70" stroke="#93db70" cx="93" cy="-34" rx="77.19" ry="18"/>
<text text-anchor="middle" x="93" y="-30.3" font-family="Times,serif" font-size="14.00">द्वादश&#45;वार्षिकम्(4.1)</text>
</g>
<!-- Node5_1 -->
<g id="node2" class="node">
<title>Node5_1</title>
<ellipse fill="#93db70" stroke="#93db70" cx="101" cy="-121" rx="65.79" ry="18"/>
<text text-anchor="middle" x="101" y="-117.3" font-family="Times,serif" font-size="14.00">(वनवासम्)(5.1)</text>
</g>
<!-- Node4_1&#45;&gt;Node5_1 -->
<g id="edge4" class="edge">
<title>Node4_1&#45;&gt;Node5_1</title>
<path fill="none" stroke="black" d="M95.57,-62.27C96.82,-75.58 98.29,-91.19 99.38,-102.82"/>
<polygon fill="black" stroke="black" points="99.04,-61.83 94.62,-52.2 92.07,-62.49 99.04,-61.83"/>
<text text-anchor="middle" x="120.5" y="-73.8" font-family="Times,serif" font-size="14.00">विशेषणम्</text>
</g>
<!-- Node8_1 -->
<g id="node3" class="node">
<title>Node8_1</title>
<ellipse fill="#93db70" stroke="#93db70" cx="322" cy="-208" rx="89.08" ry="18"/>
<text text-anchor="middle" x="322" y="-204.3" font-family="Times,serif" font-size="14.00">अज्ञात&#45;वास&#45;गमनम्(8.1)</text>
</g>
<!-- Node5_1&#45;&gt;Node8_1 -->
<g id="edge5" class="edge">
<title>Node5_1&#45;&gt;Node8_1</title>
<path fill="none" stroke="black" d="M147.02,-139.7C187.06,-155.1 244.47,-177.18 282.47,-191.79"/>
<polygon fill="black" stroke="black" points="148.08,-136.36 137.49,-136.04 145.57,-142.89 148.08,-136.36"/>
<text text-anchor="middle" x="247.5" y="-160.8" font-family="Times,serif" font-size="14.00">समुच्चितः</text>
</g>
<!-- Node10_1 -->
<g id="node19" class="node">
<title>Node10_1</title>
<ellipse fill="#ff99ff" stroke="#ff99ff" cx="322" cy="-295" rx="61.99" ry="18"/>
<text text-anchor="middle" x="322" y="-291.3" font-family="Times,serif" font-size="14.00">विस्मृत्य(10.1)</text>
</g>
<!-- Node8_1&#45;&gt;Node10_1 -->
<g id="edge9" class="edge">
<title>Node8_1&#45;&gt;Node10_1</title>
<path fill="none" stroke="black" d="M322,-236.27C322,-249.58 322,-265.19 322,-276.82"/>
<polygon fill="black" stroke="black" points="325.5,-236.2 322,-226.2 318.5,-236.2 325.5,-236.2"/>
<text text-anchor="middle" x="331" y="-247.8" font-family="Times,serif" font-size="14.00">कर्म</text>
</g>
<!-- Node6_1 -->
<g id="node4" class="node">
<title>Node6_1</title>
<ellipse fill="#93db70" stroke="#93db70" cx="367" cy="-121" rx="44.69" ry="18"/>
<text text-anchor="middle" x="367" y="-117.3" font-family="Times,serif" font-size="14.00">वैरम्(6.1)</text>
</g>
<!-- Node6_1&#45;&gt;Node8_1 -->
<g id="edge6" class="edge">
<title>Node6_1&#45;&gt;Node8_1</title>
<path fill="none" stroke="black" d="M353.37,-147.74C346.13,-161.42 337.43,-177.86 331.03,-189.95"/>
<polygon fill="black" stroke="black" points="356.52,-149.27 358.11,-138.79 350.34,-145.99 356.52,-149.27"/>
<text text-anchor="middle" x="369.5" y="-160.8" font-family="Times,serif" font-size="14.00">समुच्चितः</text>
</g>
<!-- Node7_2 -->
<g id="node5" class="node">
<title>Node7_2</title>
<ellipse fill="#93db70" stroke="#93db70" cx="252" cy="-121" rx="51.99" ry="18"/>
<text text-anchor="middle" x="252" y="-117.3" font-family="Times,serif" font-size="14.00">वर्धनम्(7.2)</text>
</g>
<!-- Node7_2&#45;&gt;Node8_1 -->
<g id="edge8" class="edge">
<title>Node7_2&#45;&gt;Node8_1</title>
<path fill="none" stroke="black" d="M271.57,-146.8C278.02,-154.88 285.26,-163.87 292,-172 296.9,-177.92 302.34,-184.32 307.23,-190.01"/>
<polygon fill="black" stroke="black" points="274.16,-144.43 265.19,-138.78 268.68,-148.79 274.16,-144.43"/>
<text text-anchor="middle" x="314.5" y="-160.8" font-family="Times,serif" font-size="14.00">विशेषणम्</text>
</g>
<!-- Node19_1 -->
<g id="node6" class="node">
<title>Node19_1</title>
<ellipse fill="#00bfff" stroke="#00bfff" cx="1268" cy="-34" rx="45.49" ry="18"/>
<text text-anchor="middle" x="1268" y="-30.3" font-family="Times,serif" font-size="14.00">तौ(19.1)</text>
</g>
<!-- Node20_2 -->
<g id="node7" class="node">
<title>Node20_2</title>
<ellipse fill="#00bfff" stroke="#00bfff" cx="1268" cy="-121" rx="56.59" ry="18"/>
<text text-anchor="middle" x="1268" y="-117.3" font-family="Times,serif" font-size="14.00">भीष्मौ(20.2)</text>
</g>
<!-- Node19_1&#45;&gt;Node20_2 -->
<g id="edge18" class="edge">
<title>Node19_1&#45;&gt;Node20_2</title>
<path fill="none" stroke="black" d="M1268,-62.27C1268,-75.58 1268,-91.19 1268,-102.82"/>
<polygon fill="black" stroke="black" points="1271.5,-62.2 1268,-52.2 1264.5,-62.2 1271.5,-62.2"/>
<text text-anchor="middle" x="1290.5" y="-73.8" font-family="Times,serif" font-size="14.00">विशेषणम्</text>
</g>
<!-- Node21_1 -->
<g id="node8" class="node">
<title>Node21_1</title>
<ellipse fill="#ffff00" stroke="#ffff00" cx="1332" cy="-208" rx="53.89" ry="18"/>
<text text-anchor="middle" x="1332" y="-204.3" font-family="Times,serif" font-size="14.00">सोम&#45;(21.1)</text>
</g>
<!-- Node20_2&#45;&gt;Node21_1 -->
<g id="edge20" class="edge">
<title>Node20_2&#45;&gt;Node21_1</title>
<path fill="none" stroke="black" d="M1286.83,-147.01C1297.32,-160.94 1310.1,-177.91 1319.38,-190.24"/>
<polygon fill="black" stroke="black" points="1289.46,-144.68 1280.64,-138.79 1283.86,-148.89 1289.46,-144.68"/>
<text text-anchor="middle" x="1325.5" y="-160.8" font-family="Times,serif" font-size="14.00">समुच्चितः</text>
</g>
<!-- Node21_2 -->
<g id="node28" class="node">
<title>Node21_2</title>
<ellipse fill="#00bfff" stroke="#00bfff" cx="1332" cy="-295" rx="50.89" ry="18"/>
<text text-anchor="middle" x="1332" y="-291.3" font-family="Times,serif" font-size="14.00">दत्तः(21.2)</text>
</g>
<!-- Node21_1&#45;&gt;Node21_2 -->
<g id="edge21" class="edge">
<title>Node21_1&#45;&gt;Node21_2</title>
<path fill="none" stroke="black" d="M1332,-236.27C1332,-249.58 1332,-265.19 1332,-276.82"/>
<polygon fill="black" stroke="black" points="1335.5,-236.2 1332,-226.2 1328.5,-236.2 1335.5,-236.2"/>
<text text-anchor="middle" x="1349" y="-247.8" font-family="Times,serif" font-size="14.00">समासः</text>
</g>
<!-- Node23_1 -->
<g id="node9" class="node">
<title>Node23_1</title>
<ellipse fill="#ff1975" stroke="#ff1975" cx="1156" cy="-382" rx="59.59" ry="18"/>
<text text-anchor="middle" x="1156" y="-378.3" font-family="Times,serif" font-size="14.00">अभवत्(23.1)</text>
</g>
<!-- Node17_1 -->
<g id="node10" class="node">
<title>Node17_1</title>
<ellipse fill="#ff1975" stroke="#ff1975" cx="1156" cy="-469" rx="59.59" ry="18"/>
<text text-anchor="middle" x="1156" y="-465.3" font-family="Times,serif" font-size="14.00">अभवत्(17.1)</text>
</g>
<!-- Node23_1&#45;&gt;Node17_1 -->
<g id="edge24" class="edge">
<title>Node23_1&#45;&gt;Node17_1</title>
<path fill="none" stroke="black" d="M1156,-410.27C1156,-423.58 1156,-439.19 1156,-450.82"/>
<polygon fill="black" stroke="black" points="1159.5,-410.2 1156,-400.2 1152.5,-410.2 1159.5,-410.2"/>
<text text-anchor="middle" x="1175" y="-421.8" font-family="Times,serif" font-size="14.00">अन्यतरः</text>
</g>
<!-- Node27_4 -->
<g id="node11" class="node">
<title>Node27_4</title>
<ellipse fill="#00bfff" stroke="#00bfff" cx="2042" cy="-295" rx="57.69" ry="18"/>
<text text-anchor="middle" x="2042" y="-291.3" font-family="Times,serif" font-size="14.00">संवीतः(27.4)</text>
</g>
<!-- Node29_1 -->
<g id="node12" class="node">
<title>Node29_1</title>
<ellipse fill="#00bfff" stroke="#00bfff" cx="1869" cy="-382" rx="50.09" ry="18"/>
<text text-anchor="middle" x="1869" y="-378.3" font-family="Times,serif" font-size="14.00">त्वम्(29.1)</text>
</g>
<!-- Node27_4&#45;&gt;Node29_1 -->
<g id="edge31" class="edge">
<title>Node27_4&#45;&gt;Node29_1</title>
<path fill="none" stroke="black" d="M2003.16,-315.08C1971.09,-330.84 1926.32,-352.84 1897.49,-367"/>
<polygon fill="black" stroke="black" points="2004.83,-318.16 2012.26,-310.61 2001.74,-311.88 2004.83,-318.16"/>
<text text-anchor="middle" x="1987.5" y="-334.8" font-family="Times,serif" font-size="14.00">विशेषणम्</text>
</g>
<!-- Node33_1 -->
<g id="node33" class="node">
<title>Node33_1</title>
<ellipse fill="#00bfff" stroke="#00bfff" cx="1647" cy="-469" rx="74.99" ry="18"/>
<text text-anchor="middle" x="1647" y="-465.3" font-family="Times,serif" font-size="14.00">उपजग्मिवान्(33.1)</text>
</g>
<!-- Node29_1&#45;&gt;Node33_1 -->
<g id="edge33" class="edge">
<title>Node29_1&#45;&gt;Node33_1</title>
<path fill="none" stroke="black" d="M1826.33,-399.34C1785.41,-415.01 1724.2,-438.44 1684.93,-453.48"/>
<polygon fill="black" stroke="black" points="1827.68,-402.57 1835.76,-395.73 1825.17,-396.03 1827.68,-402.57"/>
<text text-anchor="middle" x="1782" y="-421.8" font-family="Times,serif" font-size="14.00">कर्ता</text>
</g>
<!-- Node28_1 -->
<g id="node13" class="node">
<title>Node28_1</title>
<ellipse fill="#00bfff" stroke="#00bfff" cx="1869" cy="-295" rx="96.68" ry="18"/>
<text text-anchor="middle" x="1869" y="-291.3" font-family="Times,serif" font-size="14.00">हृत&#45;आभरण&#45;भूषणः(28.1)</text>
</g>
<!-- Node28_1&#45;&gt;Node29_1 -->
<g id="edge32" class="edge">
<title>Node28_1&#45;&gt;Node29_1</title>
<path fill="none" stroke="black" d="M1869,-323.27C1869,-336.58 1869,-352.19 1869,-363.82"/>
<polygon fill="black" stroke="black" points="1872.5,-323.2 1869,-313.2 1865.5,-323.2 1872.5,-323.2"/>
<text text-anchor="middle" x="1891.5" y="-334.8" font-family="Times,serif" font-size="14.00">विशेषणम्</text>
</g>
<!-- Node1_1 -->
<g id="node14" class="node">
<title>Node1_1</title>
<ellipse fill="#ff1975" stroke="#ff1975" cx="448" cy="-295" rx="46.29" ry="18"/>
<text text-anchor="middle" x="448" y="-291.3" font-family="Times,serif" font-size="14.00">कुतः(1.1)</text>
</g>
<!-- Node11_1 -->
<g id="node15" class="node">
<title>Node11_1</title>
<ellipse fill="#ff1975" stroke="#ff1975" cx="502" cy="-382" rx="59.59" ry="18"/>
<text text-anchor="middle" x="502" y="-378.3" font-family="Times,serif" font-size="14.00">(असि)(11.1)</text>
</g>
<!-- Node1_1&#45;&gt;Node11_1 -->
<g id="edge1" class="edge">
<title>Node1_1&#45;&gt;Node11_1</title>
<path fill="none" stroke="black" d="M453.86,-322.98C456.27,-330.78 459.57,-339.06 464,-346 468.44,-352.96 474.6,-359.43 480.66,-364.88"/>
<polygon fill="black" stroke="black" points="457.19,-321.88 451.18,-313.16 450.43,-323.72 457.19,-321.88"/>
<text text-anchor="middle" x="499" y="-334.8" font-family="Times,serif" font-size="14.00">क्रियाविशेषणम्</text>
</g>
<!-- Node2_1 -->
<g id="node16" class="node">
<title>Node2_1</title>
<ellipse fill="#ff99ff" stroke="#ff99ff" cx="556" cy="-295" rx="43.59" ry="18"/>
<text text-anchor="middle" x="556" y="-291.3" font-family="Times,serif" font-size="14.00">अद्य(2.1)</text>
</g>
<!-- Node2_1&#45;&gt;Node11_1 -->
<g id="edge2" class="edge">
<title>Node2_1&#45;&gt;Node11_1</title>
<path fill="none" stroke="black" d="M546.28,-322.42C542.89,-330.29 538.73,-338.74 534,-346 529.77,-352.48 524.34,-358.93 519.15,-364.48"/>
<polygon fill="black" stroke="black" points="549.63,-323.49 550.15,-312.91 543.14,-320.85 549.63,-323.49"/>
<text text-anchor="middle" x="577.5" y="-334.8" font-family="Times,serif" font-size="14.00">कालाधिकरणम्</text>
</g>
<!-- Node3_1 -->
<g id="node17" class="node">
<title>Node3_1</title>
<ellipse fill="#00bfff" stroke="#00bfff" cx="662" cy="-295" rx="44.39" ry="18"/>
<text text-anchor="middle" x="662" y="-291.3" font-family="Times,serif" font-size="14.00">त्वम्(3.1)</text>
</g>
<!-- Node3_1&#45;&gt;Node11_1 -->
<g id="edge3" class="edge">
<title>Node3_1&#45;&gt;Node11_1</title>
<path fill="none" stroke="black" d="M644.44,-320.63C636.89,-329.7 627.41,-339.38 617,-346 597.46,-358.44 573.24,-366.67 552.08,-372"/>
<polygon fill="black" stroke="black" points="647.35,-322.58 650.8,-312.56 641.86,-318.25 647.35,-322.58"/>
<text text-anchor="middle" x="645" y="-334.8" font-family="Times,serif" font-size="14.00">कर्ता</text>
</g>
<!-- Node7_1 -->
<g id="node18" class="node">
<title>Node7_1</title>
<ellipse fill="#ffff00" stroke="#ffff00" cx="257" cy="-34" rx="68.49" ry="18"/>
<text text-anchor="middle" x="257" y="-30.3" font-family="Times,serif" font-size="14.00">द्रौपदीशोक&#45;(7.1)</text>
</g>
<!-- Node7_1&#45;&gt;Node7_2 -->
<g id="edge7" class="edge">
<title>Node7_1&#45;&gt;Node7_2</title>
<path fill="none" stroke="black" d="M255.4,-62.27C254.61,-75.58 253.69,-91.19 253.01,-102.82"/>
<polygon fill="black" stroke="black" points="258.89,-62.39 255.99,-52.2 251.91,-61.98 258.89,-62.39"/>
<text text-anchor="middle" x="272" y="-73.8" font-family="Times,serif" font-size="14.00">समासः</text>
</g>
<!-- Node10_1&#45;&gt;Node11_1 -->
<g id="edge11" class="edge">
<title>Node10_1&#45;&gt;Node11_1</title>
<path fill="none" stroke="black" d="M355.86,-316.55C372.23,-326.08 392.33,-337.22 411,-346 428.16,-354.07 447.72,-361.77 464.3,-367.89"/>
<polygon fill="black" stroke="black" points="357.58,-313.5 347.19,-311.44 354.03,-319.53 357.58,-313.5"/>
<text text-anchor="middle" x="431.5" y="-334.8" font-family="Times,serif" font-size="14.00">पूर्वकालः</text>
</g>
<!-- Node9_1 -->
<g id="node20" class="node">
<title>Node9_1</title>
<ellipse fill="#ff99ff" stroke="#ff99ff" cx="474" cy="-121" rx="44.39" ry="18"/>
<text text-anchor="middle" x="474" y="-117.3" font-family="Times,serif" font-size="14.00">(च)(9.1)</text>
</g>
<!-- Node9_1&#45;&gt;Node8_1 -->
<g id="edge10" class="edge">
<title>Node9_1&#45;&gt;Node8_1</title>
<path fill="none" stroke="black" d="M444.15,-142.41C429.85,-151.86 412.31,-162.96 396,-172 383.69,-178.82 369.84,-185.6 357.47,-191.35"/>
<polygon fill="black" stroke="black" points="446.22,-145.23 452.6,-136.77 442.34,-139.41 446.22,-145.23"/>
<text text-anchor="middle" x="458" y="-160.8" font-family="Times,serif" font-size="14.00">समुच्चय_द्योतकः</text>
</g>
<!-- Node12_1 -->
<g id="node21" class="node">
<title>Node12_1</title>
<ellipse fill="#ff99ff" stroke="#ff99ff" cx="913" cy="-382" rx="47.39" ry="18"/>
<text text-anchor="middle" x="913" y="-378.3" font-family="Times,serif" font-size="14.00">क्व(12.1)</text>
</g>
<!-- Node12_1&#45;&gt;Node17_1 -->
<g id="edge12" class="edge">
<title>Node12_1&#45;&gt;Node17_1</title>
<path fill="none" stroke="black" d="M941.89,-404.18C956.8,-414.23 975.68,-425.62 994,-433 1028.7,-446.98 1069.93,-455.78 1102.11,-461.07"/>
<polygon fill="black" stroke="black" points="943.82,-401.26 933.6,-398.46 939.84,-407.02 943.82,-401.26"/>
<text text-anchor="middle" x="1026" y="-421.8" font-family="Times,serif" font-size="14.00">देशाधिकरणम्</text>
</g>
<!-- Node13_1 -->
<g id="node22" class="node">
<title>Node13_1</title>
<ellipse fill="#ff99ff" stroke="#ff99ff" cx="1028" cy="-382" rx="50.09" ry="18"/>
<text text-anchor="middle" x="1028" y="-378.3" font-family="Times,serif" font-size="14.00">तदा(13.1)</text>
</g>
<!-- Node13_1&#45;&gt;Node17_1 -->
<g id="edge13" class="edge">
<title>Node13_1&#45;&gt;Node17_1</title>
<path fill="none" stroke="black" d="M1049.77,-406.56C1058.86,-415.55 1069.88,-425.45 1081,-433 1093.24,-441.31 1107.78,-448.6 1120.77,-454.35"/>
<polygon fill="black" stroke="black" points="1052.14,-403.97 1042.64,-399.29 1047.14,-408.88 1052.14,-403.97"/>
<text text-anchor="middle" x="1116.5" y="-421.8" font-family="Times,serif" font-size="14.00">कालाधिकरणम्</text>
</g>
<!-- Node14_1 -->
<g id="node23" class="node">
<title>Node14_1</title>
<ellipse fill="#87ceeb" stroke="#87ceeb" cx="794" cy="-295" rx="70.39" ry="18"/>
<text text-anchor="middle" x="794" y="-291.3" font-family="Times,serif" font-size="14.00">धृतराष्ट्रस्य(14.1)</text>
</g>
<!-- Node15_1 -->
<g id="node24" class="node">
<title>Node15_1</title>
<ellipse fill="#00bfff" stroke="#00bfff" cx="794" cy="-382" rx="53.89" ry="18"/>
<text text-anchor="middle" x="794" y="-378.3" font-family="Times,serif" font-size="14.00">स्नेहः(15.1)</text>
</g>
<!-- Node14_1&#45;&gt;Node15_1 -->
<g id="edge14" class="edge">
<title>Node14_1&#45;&gt;Node15_1</title>
<path fill="none" stroke="black" d="M794,-323.27C794,-336.58 794,-352.19 794,-363.82"/>
<polygon fill="black" stroke="black" points="797.5,-323.2 794,-313.2 790.5,-323.2 797.5,-323.2"/>
<text text-anchor="middle" x="821.5" y="-334.8" font-family="Times,serif" font-size="14.00">षष्ठीसम्बन्धः</text>
</g>
<!-- Node15_1&#45;&gt;Node17_1 -->
<g id="edge15" class="edge">
<title>Node15_1&#45;&gt;Node17_1</title>
<path fill="none" stroke="black" d="M835.88,-400.17C842.9,-402.89 850.13,-405.59 857,-408 892.96,-420.59 901.88,-424.39 939,-433 993.83,-445.72 1057.52,-455.4 1101.65,-461.32"/>
<polygon fill="black" stroke="black" points="837.09,-396.89 826.51,-396.49 834.53,-403.4 837.09,-396.89"/>
<text text-anchor="middle" x="950" y="-421.8" font-family="Times,serif" font-size="14.00">कर्ता</text>
</g>
<!-- Node16_1 -->
<g id="node25" class="node">
<title>Node16_1</title>
<ellipse fill="#c6e2eb" stroke="#c6e2eb" cx="1296" cy="-382" rx="61.99" ry="18"/>
<text text-anchor="middle" x="1296" y="-378.3" font-family="Times,serif" font-size="14.00">अस्मासु(16.1)</text>
</g>
<!-- Node16_1&#45;&gt;Node17_1 -->
<g id="edge16" class="edge">
<title>Node16_1&#45;&gt;Node17_1</title>
<path fill="none" stroke="black" d="M1261.6,-403.89C1236.83,-418.92 1203.96,-438.88 1181.52,-452.51"/>
<polygon fill="black" stroke="black" points="1263.59,-406.77 1270.32,-398.59 1259.96,-400.79 1263.59,-406.77"/>
<text text-anchor="middle" x="1271" y="-421.8" font-family="Times,serif" font-size="14.00">विषयाधिकरणम्</text>
</g>
<!-- Node18_1 -->
<g id="node26" class="node">
<title>Node18_1</title>
<ellipse fill="#ff99ff" stroke="#ff99ff" cx="990" cy="-295" rx="47.39" ry="18"/>
<text text-anchor="middle" x="990" y="-291.3" font-family="Times,serif" font-size="14.00">क्व(18.1)</text>
</g>
<!-- Node18_1&#45;&gt;Node23_1 -->
<g id="edge17" class="edge">
<title>Node18_1&#45;&gt;Node23_1</title>
<path fill="none" stroke="black" d="M1009.75,-320.05C1018.68,-329.46 1029.93,-339.53 1042,-346 1060.06,-355.68 1067.33,-350.28 1087,-356 1098.13,-359.24 1110.07,-363.33 1120.83,-367.27"/>
<polygon fill="black" stroke="black" points="1012.14,-317.46 1002.84,-312.39 1006.94,-322.16 1012.14,-317.46"/>
<text text-anchor="middle" x="1074" y="-334.8" font-family="Times,serif" font-size="14.00">देशाधिकरणम्</text>
</g>
<!-- Node20_1 -->
<g id="node27" class="node">
<title>Node20_1</title>
<ellipse fill="#ffff00" stroke="#ffff00" cx="1395" cy="-34" rx="53.89" ry="18"/>
<text text-anchor="middle" x="1395" y="-30.3" font-family="Times,serif" font-size="14.00">द्रोण&#45;(20.1)</text>
</g>
<!-- Node20_1&#45;&gt;Node20_2 -->
<g id="edge19" class="edge">
<title>Node20_1&#45;&gt;Node20_2</title>
<path fill="none" stroke="black" d="M1363.5,-56.08C1341.11,-71.07 1311.53,-90.87 1291.26,-104.43"/>
<polygon fill="black" stroke="black" points="1365.64,-58.86 1372,-50.39 1361.74,-53.05 1365.64,-58.86"/>
<text text-anchor="middle" x="1356" y="-73.8" font-family="Times,serif" font-size="14.00">समासः</text>
</g>
<!-- Node21_2&#45;&gt;Node23_1 -->
<g id="edge22" class="edge">
<title>Node21_2&#45;&gt;Node23_1</title>
<path fill="none" stroke="black" d="M1310.16,-319.55C1300.04,-329.13 1287.31,-339.46 1274,-346 1254.05,-355.8 1246.39,-349.98 1225,-356 1213.72,-359.18 1201.63,-363.3 1190.78,-367.28"/>
<polygon fill="black" stroke="black" points="1312.7,-321.96 1317.36,-312.44 1307.78,-316.98 1312.7,-321.96"/>
<text text-anchor="middle" x="1307" y="-334.8" font-family="Times,serif" font-size="14.00">कर्ता</text>
</g>
<!-- Node22_1 -->
<g id="node29" class="node">
<title>Node22_1</title>
<ellipse fill="#ff99ff" stroke="#ff99ff" cx="1395" cy="-121" rx="51.99" ry="18"/>
<text text-anchor="middle" x="1395" y="-117.3" font-family="Times,serif" font-size="14.00">अपि(22.1)</text>
</g>
<!-- Node22_1&#45;&gt;Node21_1 -->
<g id="edge23" class="edge">
<title>Node22_1&#45;&gt;Node21_1</title>
<path fill="none" stroke="black" d="M1376.47,-147.01C1366.14,-160.94 1353.56,-177.91 1344.42,-190.24"/>
<polygon fill="black" stroke="black" points="1379.41,-148.91 1382.55,-138.79 1373.79,-144.74 1379.41,-148.91"/>
<text text-anchor="middle" x="1385.5" y="-160.8" font-family="Times,serif" font-size="14.00">सम्बन्धः</text>
</g>
<!-- Node24_1 -->
<g id="node30" class="node">
<title>Node24_1</title>
<ellipse fill="#ff99ff" stroke="#ff99ff" cx="1100" cy="-295" rx="44.69" ry="18"/>
<text text-anchor="middle" x="1100" y="-291.3" font-family="Times,serif" font-size="14.00">वा(24.1)</text>
</g>
<!-- Node24_1&#45;&gt;Node23_1 -->
<g id="edge25" class="edge">
<title>Node24_1&#45;&gt;Node23_1</title>
<path fill="none" stroke="black" d="M1106.97,-322.72C1109.71,-330.59 1113.34,-338.97 1118,-346 1122.56,-352.87 1128.75,-359.33 1134.81,-364.78"/>
<polygon fill="black" stroke="black" points="1110.3,-321.64 1103.97,-313.15 1103.62,-323.74 1110.3,-321.64"/>
<text text-anchor="middle" x="1154.5" y="-334.8" font-family="Times,serif" font-size="14.00">अन्यतर_द्योतकः</text>
</g>
<!-- Node25_1 -->
<g id="node31" class="node">
<title>Node25_1</title>
<ellipse fill="#ff99ff" stroke="#ff99ff" cx="1213" cy="-295" rx="50.09" ry="18"/>
<text text-anchor="middle" x="1213" y="-291.3" font-family="Times,serif" font-size="14.00">तदा(25.1)</text>
</g>
<!-- Node25_1&#45;&gt;Node23_1 -->
<g id="edge26" class="edge">
<title>Node25_1&#45;&gt;Node23_1</title>
<path fill="none" stroke="black" d="M1203.48,-322.56C1200.1,-330.43 1195.89,-338.85 1191,-346 1186.44,-352.67 1180.51,-359.16 1174.83,-364.7"/>
<polygon fill="black" stroke="black" points="1206.83,-323.6 1207.32,-313.02 1200.34,-320.99 1206.83,-323.6"/>
<text text-anchor="middle" x="1234.5" y="-334.8" font-family="Times,serif" font-size="14.00">कालाधिकरणम्</text>
</g>
<!-- Node26_1 -->
<g id="node32" class="node">
<title>Node26_1</title>
<ellipse fill="#ff99ff" stroke="#ff99ff" cx="1432" cy="-382" rx="56.59" ry="18"/>
<text text-anchor="middle" x="1432" y="-378.3" font-family="Times,serif" font-size="14.00">(यदा)(26.1)</text>
</g>
<!-- Node26_1&#45;&gt;Node33_1 -->
<g id="edge27" class="edge">
<title>Node26_1&#45;&gt;Node33_1</title>
<path fill="none" stroke="black" d="M1465.25,-403.65C1482.1,-413.5 1503.15,-424.87 1523,-433 1545.98,-442.41 1572.34,-450.24 1594.83,-456.09"/>
<polygon fill="black" stroke="black" points="1466.74,-400.47 1456.35,-398.37 1463.16,-406.49 1466.74,-400.47"/>
<text text-anchor="middle" x="1558.5" y="-421.8" font-family="Times,serif" font-size="14.00">कालाधिकरणम्</text>
</g>
<!-- Node27_1 -->
<g id="node34" class="node">
<title>Node27_1</title>
<ellipse fill="#ffff00" stroke="#ffff00" cx="2042" cy="-34" rx="55.79" ry="18"/>
<text text-anchor="middle" x="2042" y="-30.3" font-family="Times,serif" font-size="14.00">कृष्ण&#45;(27.1)</text>
</g>
<!-- Node27_2 -->
<g id="node35" class="node">
<title>Node27_2</title>
<ellipse fill="#ffff00" stroke="#ffff00" cx="2042" cy="-121" rx="60.39" ry="18"/>
<text text-anchor="middle" x="2042" y="-117.3" font-family="Times,serif" font-size="14.00">अजिन&#45;(27.2)</text>
</g>
<!-- Node27_1&#45;&gt;Node27_2 -->
<g id="edge28" class="edge">
<title>Node27_1&#45;&gt;Node27_2</title>
<path fill="none" stroke="black" d="M2042,-62.27C2042,-75.58 2042,-91.19 2042,-102.82"/>
<polygon fill="black" stroke="black" points="2045.5,-62.2 2042,-52.2 2038.5,-62.2 2045.5,-62.2"/>
<text text-anchor="middle" x="2059" y="-73.8" font-family="Times,serif" font-size="14.00">समासः</text>
</g>
<!-- Node27_3 -->
<g id="node36" class="node">
<title>Node27_3</title>
<ellipse fill="#ffff00" stroke="#ffff00" cx="2042" cy="-208" rx="50.09" ry="18"/>
<text text-anchor="middle" x="2042" y="-204.3" font-family="Times,serif" font-size="14.00">उप&#45;(27.3)</text>
</g>
<!-- Node27_2&#45;&gt;Node27_3 -->
<g id="edge29" class="edge">
<title>Node27_2&#45;&gt;Node27_3</title>
<path fill="none" stroke="black" d="M2042,-149.27C2042,-162.58 2042,-178.19 2042,-189.82"/>
<polygon fill="black" stroke="black" points="2045.5,-149.2 2042,-139.2 2038.5,-149.2 2045.5,-149.2"/>
<text text-anchor="middle" x="2059" y="-160.8" font-family="Times,serif" font-size="14.00">समासः</text>
</g>
<!-- Node27_3&#45;&gt;Node27_4 -->
<g id="edge30" class="edge">
<title>Node27_3&#45;&gt;Node27_4</title>
<path fill="none" stroke="black" d="M2042,-236.27C2042,-249.58 2042,-265.19 2042,-276.82"/>
<polygon fill="black" stroke="black" points="2045.5,-236.2 2042,-226.2 2038.5,-236.2 2045.5,-236.2"/>
<text text-anchor="middle" x="2059" y="-247.8" font-family="Times,serif" font-size="14.00">समासः</text>
</g>
<!-- Node30_1 -->
<g id="node37" class="node">
<title>Node30_1</title>
<ellipse fill="#ffff00" stroke="#ffff00" cx="1560" cy="-295" rx="65.79" ry="18"/>
<text text-anchor="middle" x="1560" y="-291.3" font-family="Times,serif" font-size="14.00">पाञ्चाल&#45;(30.1)</text>
</g>
<!-- Node30_2 -->
<g id="node38" class="node">
<title>Node30_2</title>
<ellipse fill="#40e0d0" stroke="#40e0d0" cx="1560" cy="-382" rx="53.89" ry="18"/>
<text text-anchor="middle" x="1560" y="-378.3" font-family="Times,serif" font-size="14.00">पुत्र्या(30.2)</text>
</g>
<!-- Node30_1&#45;&gt;Node30_2 -->
<g id="edge34" class="edge">
<title>Node30_1&#45;&gt;Node30_2</title>
<path fill="none" stroke="black" d="M1560,-323.27C1560,-336.58 1560,-352.19 1560,-363.82"/>
<polygon fill="black" stroke="black" points="1563.5,-323.2 1560,-313.2 1556.5,-323.2 1563.5,-323.2"/>
<text text-anchor="middle" x="1577" y="-334.8" font-family="Times,serif" font-size="14.00">समासः</text>
</g>
<!-- Node30_2&#45;&gt;Node33_1 -->
<g id="edge35" class="edge">
<title>Node30_2&#45;&gt;Node33_1</title>
<path fill="none" stroke="black" d="M1584.02,-406.47C1598.61,-420.72 1616.88,-438.57 1629.98,-451.37"/>
<polygon fill="black" stroke="black" points="1586.37,-403.87 1576.77,-399.39 1581.48,-408.88 1586.37,-403.87"/>
<text text-anchor="middle" x="1624" y="-421.8" font-family="Times,serif" font-size="14.00">सहार्थः</text>
</g>
<!-- Node31_1 -->
<g id="node39" class="node">
<title>Node31_1</title>
<ellipse fill="#ff99ff" stroke="#ff99ff" cx="1560" cy="-208" rx="56.59" ry="18"/>
<text text-anchor="middle" x="1560" y="-204.3" font-family="Times,serif" font-size="14.00">सार्धम्(31.1)</text>
</g>
<!-- Node31_1&#45;&gt;Node30_1 -->
<g id="edge36" class="edge">
<title>Node31_1&#45;&gt;Node30_1</title>
<path fill="none" stroke="black" d="M1560,-236.27C1560,-249.58 1560,-265.19 1560,-276.82"/>
<polygon fill="black" stroke="black" points="1563.5,-236.2 1560,-226.2 1556.5,-236.2 1563.5,-236.2"/>
<text text-anchor="middle" x="1593.5" y="-247.8" font-family="Times,serif" font-size="14.00">सहार्थ_द्योतकः</text>
</g>
<!-- Node32_1 -->
<g id="node40" class="node">
<title>Node32_1</title>
<ellipse fill="#93db70" stroke="#93db70" cx="1694" cy="-382" rx="61.99" ry="18"/>
<text text-anchor="middle" x="1694" y="-378.3" font-family="Times,serif" font-size="14.00">राजानम्(32.1)</text>
</g>
<!-- Node32_1&#45;&gt;Node33_1 -->
<g id="edge37" class="edge">
<title>Node32_1&#45;&gt;Node33_1</title>
<path fill="none" stroke="black" d="M1679.54,-409.15C1671.99,-422.81 1662.96,-439.13 1656.34,-451.11"/>
<polygon fill="black" stroke="black" points="1682.71,-410.65 1684.49,-400.2 1676.59,-407.26 1682.71,-410.65"/>
<text text-anchor="middle" x="1682" y="-421.8" font-family="Times,serif" font-size="14.00">कर्म</text>
</g>
</g>
</svg>
