<?xml version="1.0" encoding="UTF-8" standalone="no"?>
<!DOCTYPE svg PUBLIC "-//W3C//DTD SVG 1.1//EN"
 "http://www.w3.org/Graphics/SVG/1.1/DTD/svg11.dtd">
<!-- Generated by graphviz version 2.43.0 (0)
 -->
<!-- Title: G Pages: 1 -->
<svg width="646pt" height="234pt"
 viewBox="0.00 0.00 645.79 234.00" xmlns="http://www.w3.org/2000/svg" xmlns:xlink="http://www.w3.org/1999/xlink">
<g id="graph0" class="graph" transform="scale(1 1) rotate(0) translate(4 230)">
<title>G</title>
<polygon fill="#fffacd" stroke="transparent" points="-4,4 -4,-230 641.79,-230 641.79,4 -4,4"/>
<g id="clust1" class="cluster">
<title>cluster_1</title>
<polygon fill="#fffacd" stroke="black" points="8,-8 8,-147 148,-147 148,-8 8,-8"/>
</g>
<g id="clust2" class="cluster">
<title>cluster_2</title>
<polygon fill="#fffacd" stroke="black" points="242,-8 242,-147 398,-147 398,-8 242,-8"/>
</g>
<!-- Node1_1 -->
<g id="node1" class="node">
<title>Node1_1</title>
<ellipse fill="#c6e2eb" stroke="#c6e2eb" cx="78" cy="-34" rx="61.99" ry="18"/>
<text text-anchor="middle" x="78" y="-30.3" font-family="Times,serif" font-size="14.00">व्युषितायां(1.1)</text>
</g>
<!-- Node2_1 -->
<g id="node2" class="node">
<title>Node2_1</title>
<ellipse fill="#c6e2eb" stroke="#c6e2eb" cx="89" cy="-121" rx="51.19" ry="18"/>
<text text-anchor="middle" x="89" y="-117.3" font-family="Times,serif" font-size="14.00">रजन्यां(2.1)</text>
</g>
<!-- Node1_1&#45;&gt;Node2_1 -->
<g id="edge1" class="edge">
<title>Node1_1&#45;&gt;Node2_1</title>
<path fill="none" stroke="black" d="M81.53,-62.27C83.25,-75.58 85.27,-91.19 86.78,-102.82"/>
<polygon fill="black" stroke="black" points="84.98,-61.67 80.23,-52.2 78.04,-62.57 84.98,-61.67"/>
<text text-anchor="middle" x="107.5" y="-73.8" font-family="Times,serif" font-size="14.00">विशेषणम्</text>
</g>
<!-- Node7_1 -->
<g id="node5" class="node">
<title>Node7_1</title>
<ellipse fill="#ff1975" stroke="#ff1975" cx="421" cy="-208" rx="62.29" ry="18"/>
<text text-anchor="middle" x="421" y="-204.3" font-family="Times,serif" font-size="14.00">प्रेषयामास(7.1)</text>
</g>
<!-- Node2_1&#45;&gt;Node7_1 -->
<g id="edge2" class="edge">
<title>Node2_1&#45;&gt;Node7_1</title>
<path fill="none" stroke="black" d="M128,-139.94C152.53,-150.6 185.09,-163.62 215,-172 264.43,-185.84 322.15,-195.07 363.9,-200.57"/>
<polygon fill="black" stroke="black" points="129.25,-136.66 118.69,-135.83 126.43,-143.07 129.25,-136.66"/>
<text text-anchor="middle" x="289" y="-160.8" font-family="Times,serif" font-size="14.00">भावलक्षणसप्तमी_अनन्तरकालः</text>
</g>
<!-- Node5_1 -->
<g id="node3" class="node">
<title>Node5_1</title>
<ellipse fill="#00bfff" stroke="#00bfff" cx="320" cy="-34" rx="70.39" ry="18"/>
<text text-anchor="middle" x="320" y="-30.3" font-family="Times,serif" font-size="14.00">अम्बिकासुतः(5.1)</text>
</g>
<!-- Node4_1 -->
<g id="node4" class="node">
<title>Node4_1</title>
<ellipse fill="#00bfff" stroke="#00bfff" cx="325" cy="-121" rx="57.69" ry="18"/>
<text text-anchor="middle" x="325" y="-117.3" font-family="Times,serif" font-size="14.00">धृतराष्ट्रः(4.1)</text>
</g>
<!-- Node5_1&#45;&gt;Node4_1 -->
<g id="edge5" class="edge">
<title>Node5_1&#45;&gt;Node4_1</title>
<path fill="none" stroke="black" d="M321.6,-62.27C322.39,-75.58 323.31,-91.19 323.99,-102.82"/>
<polygon fill="black" stroke="black" points="325.09,-61.98 321.01,-52.2 318.11,-62.39 325.09,-61.98"/>
<text text-anchor="middle" x="344.5" y="-73.8" font-family="Times,serif" font-size="14.00">विशेषणम्</text>
</g>
<!-- Node4_1&#45;&gt;Node7_1 -->
<g id="edge4" class="edge">
<title>Node4_1&#45;&gt;Node7_1</title>
<path fill="none" stroke="black" d="M351.11,-145.12C367.4,-159.54 387.95,-177.74 402.55,-190.66"/>
<polygon fill="black" stroke="black" points="353.32,-142.4 343.51,-138.39 348.68,-147.64 353.32,-142.4"/>
<text text-anchor="middle" x="389" y="-160.8" font-family="Times,serif" font-size="14.00">कर्ता</text>
</g>
<!-- Node3_1 -->
<g id="node6" class="node">
<title>Node3_1</title>
<ellipse fill="#ff99ff" stroke="#ff99ff" cx="195" cy="-34" rx="37.09" ry="18"/>
<text text-anchor="middle" x="195" y="-30.3" font-family="Times,serif" font-size="14.00">तु(3.1)</text>
</g>
<!-- Node3_1&#45;&gt;Node2_1 -->
<g id="edge3" class="edge">
<title>Node3_1&#45;&gt;Node2_1</title>
<path fill="none" stroke="black" d="M169.11,-56.47C158.31,-65.36 145.6,-75.74 134,-85 125.96,-91.42 117.02,-98.4 109.25,-104.43"/>
<polygon fill="black" stroke="black" points="171.46,-59.06 176.95,-50 167.01,-53.66 171.46,-59.06"/>
<text text-anchor="middle" x="170.5" y="-73.8" font-family="Times,serif" font-size="14.00">सम्बन्धः</text>
</g>
<!-- Node6_1 -->
<g id="node7" class="node">
<title>Node6_1</title>
<ellipse fill="#93db70" stroke="#93db70" cx="453" cy="-121" rx="46.59" ry="18"/>
<text text-anchor="middle" x="453" y="-117.3" font-family="Times,serif" font-size="14.00">विदुरं(6.1)</text>
</g>
<!-- Node6_1&#45;&gt;Node7_1 -->
<g id="edge6" class="edge">
<title>Node6_1&#45;&gt;Node7_1</title>
<path fill="none" stroke="black" d="M442.88,-148.87C437.84,-162.27 431.89,-178.08 427.47,-189.82"/>
<polygon fill="black" stroke="black" points="446.28,-149.79 446.52,-139.2 439.73,-147.33 446.28,-149.79"/>
<text text-anchor="middle" x="458" y="-160.8" font-family="Times,serif" font-size="14.00">मुख्यकर्म</text>
</g>
<!-- Node8_1 -->
<g id="node8" class="node">
<title>Node8_1</title>
<ellipse fill="#ffff00" stroke="#ffff00" cx="578" cy="-34" rx="55.79" ry="18"/>
<text text-anchor="middle" x="578" y="-30.3" font-family="Times,serif" font-size="14.00">युधिष्ठर&#45;(8.1)</text>
</g>
<!-- Node8_2 -->
<g id="node9" class="node">
<title>Node8_2</title>
<ellipse fill="#93db70" stroke="#93db70" cx="578" cy="-121" rx="59.59" ry="18"/>
<text text-anchor="middle" x="578" y="-117.3" font-family="Times,serif" font-size="14.00">निवेशनम्(8.2)</text>
</g>
<!-- Node8_1&#45;&gt;Node8_2 -->
<g id="edge7" class="edge">
<title>Node8_1&#45;&gt;Node8_2</title>
<path fill="none" stroke="black" d="M578,-62.27C578,-75.58 578,-91.19 578,-102.82"/>
<polygon fill="black" stroke="black" points="581.5,-62.2 578,-52.2 574.5,-62.2 581.5,-62.2"/>
<text text-anchor="middle" x="595" y="-73.8" font-family="Times,serif" font-size="14.00">समासः</text>
</g>
<!-- Node8_2&#45;&gt;Node7_1 -->
<g id="edge8" class="edge">
<title>Node8_2&#45;&gt;Node7_1</title>
<path fill="none" stroke="black" d="M541.15,-141.95C512.95,-157.22 474.67,-177.95 448.96,-191.86"/>
<polygon fill="black" stroke="black" points="543.17,-144.84 550.29,-137 539.83,-138.68 543.17,-144.84"/>
<text text-anchor="middle" x="527.5" y="-160.8" font-family="Times,serif" font-size="14.00">गौणकर्म</text>
</g>
</g>
</svg>
