<?xml version="1.0" encoding="UTF-8" standalone="no"?>
<!DOCTYPE svg PUBLIC "-//W3C//DTD SVG 1.1//EN"
 "http://www.w3.org/Graphics/SVG/1.1/DTD/svg11.dtd">
<!-- Generated by graphviz version 2.43.0 (0)
 -->
<!-- Title: G Pages: 1 -->
<svg width="2629pt" height="495pt"
 viewBox="0.00 0.00 2628.54 495.00" xmlns="http://www.w3.org/2000/svg" xmlns:xlink="http://www.w3.org/1999/xlink">
<g id="graph0" class="graph" transform="scale(1 1) rotate(0) translate(4 491)">
<title>G</title>
<polygon fill="#fffacd" stroke="transparent" points="-4,4 -4,-491 2624.54,-491 2624.54,4 -4,4"/>
<g id="clust1" class="cluster">
<title>cluster_1</title>
<polygon fill="#fffacd" stroke="black" points="8,-8 8,-147 140,-147 140,-8 8,-8"/>
</g>
<g id="clust2" class="cluster">
<title>cluster_2</title>
<polygon fill="#fffacd" stroke="black" points="461,-8 461,-147 605,-147 605,-8 461,-8"/>
</g>
<g id="clust3" class="cluster">
<title>cluster_3</title>
<polygon fill="#fffacd" stroke="black" points="710,-8 710,-234 1437,-234 1437,-8 710,-8"/>
</g>
<g id="clust4" class="cluster">
<title>cluster_4</title>
<polygon fill="#fffacd" stroke="black" points="1545,-95 1545,-234 1787,-234 1787,-95 1545,-95"/>
</g>
<!-- Node4_1 -->
<g id="node1" class="node">
<title>Node4_1</title>
<ellipse fill="#93db70" stroke="#93db70" cx="74" cy="-34" rx="57.69" ry="18"/>
<text text-anchor="middle" x="74" y="-30.3" font-family="Times,serif" font-size="14.00">किञ्चित्(4.1)</text>
</g>
<!-- Node5_1 -->
<g id="node2" class="node">
<title>Node5_1</title>
<ellipse fill="#93db70" stroke="#93db70" cx="79" cy="-121" rx="48.99" ry="18"/>
<text text-anchor="middle" x="79" y="-117.3" font-family="Times,serif" font-size="14.00">अर्थम्(5.1)</text>
</g>
<!-- Node4_1&#45;&gt;Node5_1 -->
<g id="edge5" class="edge">
<title>Node4_1&#45;&gt;Node5_1</title>
<path fill="none" stroke="black" d="M75.6,-62.27C76.39,-75.58 77.31,-91.19 77.99,-102.82"/>
<polygon fill="black" stroke="black" points="79.09,-61.98 75.01,-52.2 72.11,-62.39 79.09,-61.98"/>
<text text-anchor="middle" x="99.5" y="-73.8" font-family="Times,serif" font-size="14.00">विशेषणम्</text>
</g>
<!-- Node6_1 -->
<g id="node17" class="node">
<title>Node6_1</title>
<ellipse fill="#ff1975" stroke="#ff1975" cx="238" cy="-208" rx="63.09" ry="18"/>
<text text-anchor="middle" x="238" y="-204.3" font-family="Times,serif" font-size="14.00">अभीप्सति(6.1)</text>
</g>
<!-- Node5_1&#45;&gt;Node6_1 -->
<g id="edge6" class="edge">
<title>Node5_1&#45;&gt;Node6_1</title>
<path fill="none" stroke="black" d="M112.47,-141.63C128.8,-151.05 148.79,-162.35 167,-172 179.99,-178.89 194.53,-186.13 207.05,-192.23"/>
<polygon fill="black" stroke="black" points="114.23,-138.6 103.82,-136.62 110.72,-144.66 114.23,-138.6"/>
<text text-anchor="middle" x="187" y="-160.8" font-family="Times,serif" font-size="14.00">मुख्यकर्म</text>
</g>
<!-- Node12_1 -->
<g id="node3" class="node">
<title>Node12_1</title>
<ellipse fill="#87ceeb" stroke="#87ceeb" cx="533" cy="-34" rx="64.19" ry="18"/>
<text text-anchor="middle" x="533" y="-30.3" font-family="Times,serif" font-size="14.00">महात्मनः(12.1)</text>
</g>
<!-- Node11_1_1 -->
<g id="node4" class="node">
<title>Node11_1_1</title>
<ellipse fill="lightgrey" stroke="black" cx="533" cy="-121" rx="27" ry="18"/>
</g>
<!-- Node12_1&#45;&gt;Node11_1_1 -->
<g id="edge11" class="edge">
<title>Node12_1&#45;&gt;Node11_1_1</title>
<path fill="none" stroke="black" d="M533,-62.27C533,-75.58 533,-91.19 533,-102.82"/>
<polygon fill="black" stroke="black" points="536.5,-62.2 533,-52.2 529.5,-62.2 536.5,-62.2"/>
<text text-anchor="middle" x="555.5" y="-73.8" font-family="Times,serif" font-size="14.00">विशेषणम्</text>
</g>
<!-- Node13_1 -->
<g id="node5" class="node">
<title>Node13_1</title>
<ellipse fill="#87ceeb" stroke="#87ceeb" cx="1369" cy="-121" rx="59.59" ry="18"/>
<text text-anchor="middle" x="1369" y="-117.3" font-family="Times,serif" font-size="14.00">द्रोणस्य(13.1)</text>
</g>
<!-- Node11_1 -->
<g id="node6" class="node">
<title>Node11_1</title>
<ellipse fill="#87ceeb" stroke="#87ceeb" cx="1065" cy="-208" rx="69.59" ry="18"/>
<text text-anchor="middle" x="1065" y="-204.3" font-family="Times,serif" font-size="14.00">गाङ्गेयस्य(11.1)</text>
</g>
<!-- Node13_1&#45;&gt;Node11_1 -->
<g id="edge12" class="edge">
<title>Node13_1&#45;&gt;Node11_1</title>
<path fill="none" stroke="black" d="M1323.93,-139.05C1316,-141.84 1307.79,-144.6 1300,-147 1237.22,-166.34 1163.69,-184.39 1115.82,-195.54"/>
<polygon fill="black" stroke="black" points="1325.18,-142.31 1333.41,-135.64 1322.82,-135.72 1325.18,-142.31"/>
<text text-anchor="middle" x="1284.5" y="-160.8" font-family="Times,serif" font-size="14.00">समुच्चितः</text>
</g>
<!-- Node7_1 -->
<g id="node21" class="node">
<title>Node7_1</title>
<ellipse fill="#93db70" stroke="#93db70" cx="1065" cy="-295" rx="50.89" ry="18"/>
<text text-anchor="middle" x="1065" y="-291.3" font-family="Times,serif" font-size="14.00">श्राद्धम्(7.1)</text>
</g>
<!-- Node11_1&#45;&gt;Node7_1 -->
<g id="edge10" class="edge">
<title>Node11_1&#45;&gt;Node7_1</title>
<path fill="none" stroke="black" d="M1065,-236.27C1065,-249.58 1065,-265.19 1065,-276.82"/>
<polygon fill="black" stroke="black" points="1068.5,-236.2 1065,-226.2 1061.5,-236.2 1068.5,-236.2"/>
<text text-anchor="middle" x="1092.5" y="-247.8" font-family="Times,serif" font-size="14.00">षष्ठीसम्बन्धः</text>
</g>
<!-- Node14_1 -->
<g id="node7" class="node">
<title>Node14_1</title>
<ellipse fill="#87ceeb" stroke="#87ceeb" cx="1221" cy="-121" rx="70.39" ry="18"/>
<text text-anchor="middle" x="1221" y="-117.3" font-family="Times,serif" font-size="14.00">सोमदत्तस्य(14.1)</text>
</g>
<!-- Node14_1&#45;&gt;Node11_1 -->
<g id="edge13" class="edge">
<title>Node14_1&#45;&gt;Node11_1</title>
<path fill="none" stroke="black" d="M1183.39,-142.49C1155.71,-157.57 1118.66,-177.76 1093.43,-191.51"/>
<polygon fill="black" stroke="black" points="1185.28,-145.45 1192.39,-137.59 1181.93,-139.3 1185.28,-145.45"/>
<text text-anchor="middle" x="1175.5" y="-160.8" font-family="Times,serif" font-size="14.00">समुच्चितः</text>
</g>
<!-- Node15_1 -->
<g id="node8" class="node">
<title>Node15_1</title>
<ellipse fill="#87ceeb" stroke="#87ceeb" cx="1065" cy="-121" rx="67.69" ry="18"/>
<text text-anchor="middle" x="1065" y="-117.3" font-family="Times,serif" font-size="14.00">बाह्लीकस्य(15.1)</text>
</g>
<!-- Node15_1&#45;&gt;Node11_1 -->
<g id="edge14" class="edge">
<title>Node15_1&#45;&gt;Node11_1</title>
<path fill="none" stroke="black" d="M1065,-149.27C1065,-162.58 1065,-178.19 1065,-189.82"/>
<polygon fill="black" stroke="black" points="1068.5,-149.2 1065,-139.2 1061.5,-149.2 1068.5,-149.2"/>
<text text-anchor="middle" x="1087.5" y="-160.8" font-family="Times,serif" font-size="14.00">समुच्चितः</text>
</g>
<!-- Node17_1 -->
<g id="node9" class="node">
<title>Node17_1</title>
<ellipse fill="#87ceeb" stroke="#87ceeb" cx="1065" cy="-34" rx="57.69" ry="18"/>
<text text-anchor="middle" x="1065" y="-30.3" font-family="Times,serif" font-size="14.00">धीमतः(17.1)</text>
</g>
<!-- Node17_1&#45;&gt;Node15_1 -->
<g id="edge16" class="edge">
<title>Node17_1&#45;&gt;Node15_1</title>
<path fill="none" stroke="black" d="M1065,-62.27C1065,-75.58 1065,-91.19 1065,-102.82"/>
<polygon fill="black" stroke="black" points="1068.5,-62.2 1065,-52.2 1061.5,-62.2 1068.5,-62.2"/>
<text text-anchor="middle" x="1087.5" y="-73.8" font-family="Times,serif" font-size="14.00">विशेषणम्</text>
</g>
<!-- Node18_1 -->
<g id="node10" class="node">
<title>Node18_1</title>
<ellipse fill="#87ceeb" stroke="#87ceeb" cx="920" cy="-121" rx="59.59" ry="18"/>
<text text-anchor="middle" x="920" y="-117.3" font-family="Times,serif" font-size="14.00">पुत्राणां(18.1)</text>
</g>
<!-- Node18_1&#45;&gt;Node11_1 -->
<g id="edge17" class="edge">
<title>Node18_1&#45;&gt;Node11_1</title>
<path fill="none" stroke="black" d="M954.89,-142.45C980.4,-157.41 1014.5,-177.39 1037.95,-191.15"/>
<polygon fill="black" stroke="black" points="956.66,-139.43 946.26,-137.39 953.12,-145.47 956.66,-139.43"/>
<text text-anchor="middle" x="1024.5" y="-160.8" font-family="Times,serif" font-size="14.00">समुच्चितः</text>
</g>
<!-- Node21_1 -->
<g id="node11" class="node">
<title>Node21_1</title>
<ellipse fill="#87ceeb" stroke="#87ceeb" cx="920" cy="-34" rx="55.79" ry="18"/>
<text text-anchor="middle" x="920" y="-30.3" font-family="Times,serif" font-size="14.00">सर्वेषां(21.1)</text>
</g>
<!-- Node21_1&#45;&gt;Node18_1 -->
<g id="edge20" class="edge">
<title>Node21_1&#45;&gt;Node18_1</title>
<path fill="none" stroke="black" d="M920,-62.27C920,-75.58 920,-91.19 920,-102.82"/>
<polygon fill="black" stroke="black" points="923.5,-62.2 920,-52.2 916.5,-62.2 923.5,-62.2"/>
<text text-anchor="middle" x="942.5" y="-73.8" font-family="Times,serif" font-size="14.00">विशेषणम्</text>
</g>
<!-- Node38_1 -->
<g id="node12" class="node">
<title>Node38_1</title>
<ellipse fill="#87ceeb" stroke="#87ceeb" cx="780" cy="-121" rx="61.99" ry="18"/>
<text text-anchor="middle" x="780" y="-117.3" font-family="Times,serif" font-size="14.00">(तेषाम्)(38.1)</text>
</g>
<!-- Node38_1&#45;&gt;Node11_1 -->
<g id="edge35" class="edge">
<title>Node38_1&#45;&gt;Node11_1</title>
<path fill="none" stroke="black" d="M826.76,-138.83C834.82,-141.63 843.14,-144.45 851,-147 907.52,-165.35 973.48,-183.33 1017.07,-194.75"/>
<polygon fill="black" stroke="black" points="827.69,-135.45 817.1,-135.45 825.38,-142.06 827.69,-135.45"/>
<text text-anchor="middle" x="955.5" y="-160.8" font-family="Times,serif" font-size="14.00">समुच्चितः</text>
</g>
<!-- Node24_1 -->
<g id="node13" class="node">
<title>Node24_1</title>
<ellipse fill="#00bfff" stroke="#00bfff" cx="1727" cy="-121" rx="51.99" ry="18"/>
<text text-anchor="middle" x="1727" y="-117.3" font-family="Times,serif" font-size="14.00">अन्ये(24.1)</text>
</g>
<!-- Node25_1 -->
<g id="node14" class="node">
<title>Node25_1</title>
<ellipse fill="#00bfff" stroke="#00bfff" cx="1609" cy="-208" rx="55.49" ry="18"/>
<text text-anchor="middle" x="1609" y="-204.3" font-family="Times,serif" font-size="14.00">सुहृदः(25.1)</text>
</g>
<!-- Node24_1&#45;&gt;Node25_1 -->
<g id="edge23" class="edge">
<title>Node24_1&#45;&gt;Node25_1</title>
<path fill="none" stroke="black" d="M1697.23,-143.44C1676.6,-158.31 1649.58,-177.77 1630.91,-191.22"/>
<polygon fill="black" stroke="black" points="1699.29,-146.28 1705.36,-137.59 1695.2,-140.6 1699.29,-146.28"/>
<text text-anchor="middle" x="1698.5" y="-160.8" font-family="Times,serif" font-size="14.00">विशेषणम्</text>
</g>
<!-- Node39_1 -->
<g id="node29" class="node">
<title>Node39_1</title>
<ellipse fill="#ff1975" stroke="#ff1975" cx="1539" cy="-295" rx="60.39" ry="18"/>
<text text-anchor="middle" x="1539" y="-291.3" font-family="Times,serif" font-size="14.00">(सन्ति)(39.1)</text>
</g>
<!-- Node25_1&#45;&gt;Node39_1 -->
<g id="edge24" class="edge">
<title>Node25_1&#45;&gt;Node39_1</title>
<path fill="none" stroke="black" d="M1588.73,-233.61C1577.2,-247.62 1563.05,-264.79 1552.8,-277.24"/>
<polygon fill="black" stroke="black" points="1591.51,-235.74 1595.17,-225.79 1586.11,-231.29 1591.51,-235.74"/>
<text text-anchor="middle" x="1590" y="-247.8" font-family="Times,serif" font-size="14.00">कर्ता</text>
</g>
<!-- Node26_1 -->
<g id="node15" class="node">
<title>Node26_1</title>
<ellipse fill="#00bfff" stroke="#00bfff" cx="1605" cy="-121" rx="51.99" ry="18"/>
<text text-anchor="middle" x="1605" y="-117.3" font-family="Times,serif" font-size="14.00">हताः(26.1)</text>
</g>
<!-- Node26_1&#45;&gt;Node25_1 -->
<g id="edge25" class="edge">
<title>Node26_1&#45;&gt;Node25_1</title>
<path fill="none" stroke="black" d="M1606.28,-149.27C1606.91,-162.58 1607.64,-178.19 1608.19,-189.82"/>
<polygon fill="black" stroke="black" points="1609.78,-149.03 1605.81,-139.2 1602.78,-149.35 1609.78,-149.03"/>
<text text-anchor="middle" x="1630.5" y="-160.8" font-family="Times,serif" font-size="14.00">समुच्चितः</text>
</g>
<!-- Node1_1 -->
<g id="node16" class="node">
<title>Node1_1</title>
<ellipse fill="#00bfff" stroke="#00bfff" cx="188" cy="-121" rx="40.09" ry="18"/>
<text text-anchor="middle" x="188" y="-117.3" font-family="Times,serif" font-size="14.00">सः(1.1)</text>
</g>
<!-- Node1_1&#45;&gt;Node6_1 -->
<g id="edge1" class="edge">
<title>Node1_1&#45;&gt;Node6_1</title>
<path fill="none" stroke="black" d="M203.14,-147.74C211.19,-161.42 220.86,-177.86 227.97,-189.95"/>
<polygon fill="black" stroke="black" points="205.97,-145.64 197.88,-138.79 199.93,-149.19 205.97,-145.64"/>
<text text-anchor="middle" x="227" y="-160.8" font-family="Times,serif" font-size="14.00">कर्ता</text>
</g>
<!-- Node2_1 -->
<g id="node18" class="node">
<title>Node2_1</title>
<ellipse fill="#93db70" stroke="#93db70" cx="289" cy="-121" rx="42.49" ry="18"/>
<text text-anchor="middle" x="289" y="-117.3" font-family="Times,serif" font-size="14.00">त्वां(2.1)</text>
</g>
<!-- Node2_1&#45;&gt;Node6_1 -->
<g id="edge2" class="edge">
<title>Node2_1&#45;&gt;Node6_1</title>
<path fill="none" stroke="black" d="M273.56,-147.74C265.35,-161.42 255.48,-177.86 248.23,-189.95"/>
<polygon fill="black" stroke="black" points="276.78,-149.17 278.92,-138.79 270.78,-145.57 276.78,-149.17"/>
<text text-anchor="middle" x="286.5" y="-160.8" font-family="Times,serif" font-size="14.00">गौणकर्म</text>
</g>
<!-- Node3_1 -->
<g id="node19" class="node">
<title>Node3_1</title>
<ellipse fill="#ffff00" stroke="#ffff00" cx="392" cy="-34" rx="58.49" ry="18"/>
<text text-anchor="middle" x="392" y="-30.3" font-family="Times,serif" font-size="14.00">कुरुकुल&#45;(3.1)</text>
</g>
<!-- Node3_2 -->
<g id="node20" class="node">
<title>Node3_2</title>
<ellipse fill="#6fffc3" stroke="#6fffc3" cx="392" cy="-121" rx="42.79" ry="18"/>
<text text-anchor="middle" x="392" y="-117.3" font-family="Times,serif" font-size="14.00">श्रेष्ठ(3.2)</text>
</g>
<!-- Node3_1&#45;&gt;Node3_2 -->
<g id="edge3" class="edge">
<title>Node3_1&#45;&gt;Node3_2</title>
<path fill="none" stroke="black" d="M392,-62.27C392,-75.58 392,-91.19 392,-102.82"/>
<polygon fill="black" stroke="black" points="395.5,-62.2 392,-52.2 388.5,-62.2 395.5,-62.2"/>
<text text-anchor="middle" x="409" y="-73.8" font-family="Times,serif" font-size="14.00">समासः</text>
</g>
<!-- Node3_2&#45;&gt;Node6_1 -->
<g id="edge4" class="edge">
<title>Node3_2&#45;&gt;Node6_1</title>
<path fill="none" stroke="black" d="M361.21,-141.73C346,-151.23 327.25,-162.58 310,-172 297.07,-179.06 282.5,-186.28 269.87,-192.31"/>
<polygon fill="black" stroke="black" points="363.11,-144.67 369.72,-136.38 359.39,-138.74 363.11,-144.67"/>
<text text-anchor="middle" x="357" y="-160.8" font-family="Times,serif" font-size="14.00">सम्बोध्यः</text>
</g>
<!-- Node9_1 -->
<g id="node22" class="node">
<title>Node9_1</title>
<ellipse fill="#ff99ff" stroke="#ff99ff" cx="1065" cy="-382" rx="44.39" ry="18"/>
<text text-anchor="middle" x="1065" y="-378.3" font-family="Times,serif" font-size="14.00">दातुं(9.1)</text>
</g>
<!-- Node7_1&#45;&gt;Node9_1 -->
<g id="edge7" class="edge">
<title>Node7_1&#45;&gt;Node9_1</title>
<path fill="none" stroke="black" d="M1065,-323.27C1065,-336.58 1065,-352.19 1065,-363.82"/>
<polygon fill="black" stroke="black" points="1068.5,-323.2 1065,-313.2 1061.5,-323.2 1068.5,-323.2"/>
<text text-anchor="middle" x="1085" y="-334.8" font-family="Times,serif" font-size="14.00">मुख्यकर्म</text>
</g>
<!-- Node8_1 -->
<g id="node23" class="node">
<title>Node8_1</title>
<ellipse fill="#ff1975" stroke="#ff1975" cx="979" cy="-469" rx="52.79" ry="18"/>
<text text-anchor="middle" x="979" y="-465.3" font-family="Times,serif" font-size="14.00">इच्छति(8.1)</text>
</g>
<!-- Node9_1&#45;&gt;Node8_1 -->
<g id="edge8" class="edge">
<title>Node9_1&#45;&gt;Node8_1</title>
<path fill="none" stroke="black" d="M1041.57,-406.16C1026.94,-420.62 1008.47,-438.88 995.4,-451.79"/>
<polygon fill="black" stroke="black" points="1044.17,-408.51 1048.82,-398.99 1039.25,-403.53 1044.17,-408.51"/>
<text text-anchor="middle" x="1049.5" y="-421.8" font-family="Times,serif" font-size="14.00">वाक्यकर्म</text>
</g>
<!-- Node10_1 -->
<g id="node24" class="node">
<title>Node10_1</title>
<ellipse fill="#00bfff" stroke="#00bfff" cx="957" cy="-382" rx="46.29" ry="18"/>
<text text-anchor="middle" x="957" y="-378.3" font-family="Times,serif" font-size="14.00">सः(10.1)</text>
</g>
<!-- Node10_1&#45;&gt;Node8_1 -->
<g id="edge9" class="edge">
<title>Node10_1&#45;&gt;Node8_1</title>
<path fill="none" stroke="black" d="M964.06,-410.27C967.5,-423.58 971.54,-439.19 974.55,-450.82"/>
<polygon fill="black" stroke="black" points="967.35,-409.01 961.45,-400.2 960.57,-410.76 967.35,-409.01"/>
<text text-anchor="middle" x="981" y="-421.8" font-family="Times,serif" font-size="14.00">कर्ता</text>
</g>
<!-- Node16_1 -->
<g id="node25" class="node">
<title>Node16_1</title>
<ellipse fill="#ff99ff" stroke="#ff99ff" cx="657" cy="-121" rx="43.59" ry="18"/>
<text text-anchor="middle" x="657" y="-117.3" font-family="Times,serif" font-size="14.00">च(16.1)</text>
</g>
<!-- Node16_1&#45;&gt;Node11_1 -->
<g id="edge15" class="edge">
<title>Node16_1&#45;&gt;Node11_1</title>
<path fill="none" stroke="black" d="M690.97,-140.57C695.93,-142.92 701.04,-145.14 706,-147 803.34,-183.46 923.82,-197.84 997.5,-203.46"/>
<polygon fill="black" stroke="black" points="692.2,-137.27 681.68,-135.97 689.09,-143.55 692.2,-137.27"/>
<text text-anchor="middle" x="820" y="-160.8" font-family="Times,serif" font-size="14.00">समुच्चय_द्योतकः</text>
</g>
<!-- Node19_1 -->
<g id="node26" class="node">
<title>Node19_1</title>
<ellipse fill="#ff99ff" stroke="#ff99ff" cx="1491" cy="-121" rx="43.59" ry="18"/>
<text text-anchor="middle" x="1491" y="-117.3" font-family="Times,serif" font-size="14.00">च(19.1)</text>
</g>
<!-- Node19_1&#45;&gt;Node11_1 -->
<g id="edge18" class="edge">
<title>Node19_1&#45;&gt;Node11_1</title>
<path fill="none" stroke="black" d="M1457.14,-140.47C1451.84,-142.91 1446.34,-145.19 1441,-147 1336.61,-182.39 1208.68,-197.13 1132.17,-203.11"/>
<polygon fill="black" stroke="black" points="1458.93,-143.49 1466.4,-135.98 1455.87,-137.2 1458.93,-143.49"/>
<text text-anchor="middle" x="1440" y="-160.8" font-family="Times,serif" font-size="14.00">समुच्चय_द्योतकः</text>
</g>
<!-- Node20_1 -->
<g id="node27" class="node">
<title>Node20_1</title>
<ellipse fill="#ff99ff" stroke="#ff99ff" cx="1492" cy="-34" rx="47.39" ry="18"/>
<text text-anchor="middle" x="1492" y="-30.3" font-family="Times,serif" font-size="14.00">एव(20.1)</text>
</g>
<!-- Node20_1&#45;&gt;Node19_1 -->
<g id="edge19" class="edge">
<title>Node20_1&#45;&gt;Node19_1</title>
<path fill="none" stroke="black" d="M1491.68,-62.27C1491.52,-75.58 1491.34,-91.19 1491.2,-102.82"/>
<polygon fill="black" stroke="black" points="1495.18,-62.24 1491.8,-52.2 1488.18,-62.16 1495.18,-62.24"/>
<text text-anchor="middle" x="1510.5" y="-73.8" font-family="Times,serif" font-size="14.00">सम्बन्धः</text>
</g>
<!-- Node22_1 -->
<g id="node28" class="node">
<title>Node22_1</title>
<ellipse fill="#00bfff" stroke="#00bfff" cx="1493" cy="-208" rx="42.79" ry="18"/>
<text text-anchor="middle" x="1493" y="-204.3" font-family="Times,serif" font-size="14.00">ये(22.1)</text>
</g>
<!-- Node22_1&#45;&gt;Node39_1 -->
<g id="edge21" class="edge">
<title>Node22_1&#45;&gt;Node39_1</title>
<path fill="none" stroke="black" d="M1506.86,-234.7C1511.08,-242.51 1515.73,-251.11 1520,-259 1523.16,-264.84 1526.62,-271.22 1529.72,-276.91"/>
<polygon fill="black" stroke="black" points="1509.82,-232.81 1501.99,-225.67 1503.66,-236.13 1509.82,-232.81"/>
<text text-anchor="middle" x="1541" y="-247.8" font-family="Times,serif" font-size="14.00">प्रतियोगी</text>
</g>
<!-- Node23_1 -->
<g id="node30" class="node">
<title>Node23_1</title>
<ellipse fill="#ff99ff" stroke="#ff99ff" cx="1727" cy="-34" rx="43.59" ry="18"/>
<text text-anchor="middle" x="1727" y="-30.3" font-family="Times,serif" font-size="14.00">च(23.1)</text>
</g>
<!-- Node23_1&#45;&gt;Node24_1 -->
<g id="edge22" class="edge">
<title>Node23_1&#45;&gt;Node24_1</title>
<path fill="none" stroke="black" d="M1727,-62.27C1727,-75.58 1727,-91.19 1727,-102.82"/>
<polygon fill="black" stroke="black" points="1730.5,-62.2 1727,-52.2 1723.5,-62.2 1730.5,-62.2"/>
<text text-anchor="middle" x="1765" y="-73.8" font-family="Times,serif" font-size="14.00">समुच्चय_द्योतकः</text>
</g>
<!-- Node27_1 -->
<g id="node31" class="node">
<title>Node27_1</title>
<ellipse fill="#ff99ff" stroke="#ff99ff" cx="1839" cy="-34" rx="50.09" ry="18"/>
<text text-anchor="middle" x="1839" y="-30.3" font-family="Times,serif" font-size="14.00">यदि(27.1)</text>
</g>
<!-- Node29_1 -->
<g id="node32" class="node">
<title>Node29_1</title>
<ellipse fill="#ff1975" stroke="#ff1975" cx="1951" cy="-121" rx="78.79" ry="18"/>
<text text-anchor="middle" x="1951" y="-117.3" font-family="Times,serif" font-size="14.00">अभ्यनुजानीषे(29.1)</text>
</g>
<!-- Node27_1&#45;&gt;Node29_1 -->
<g id="edge26" class="edge">
<title>Node27_1&#45;&gt;Node29_1</title>
<path fill="none" stroke="black" d="M1867.67,-56.76C1886.92,-71.37 1911.88,-90.31 1929.44,-103.64"/>
<polygon fill="black" stroke="black" points="1869.62,-53.85 1859.54,-50.59 1865.39,-59.42 1869.62,-53.85"/>
<text text-anchor="middle" x="1922" y="-73.8" font-family="Times,serif" font-size="14.00">प्रतियोगी</text>
</g>
<!-- Node28_1 -->
<g id="node33" class="node">
<title>Node28_1</title>
<ellipse fill="#ff99ff" stroke="#ff99ff" cx="1951" cy="-34" rx="43.59" ry="18"/>
<text text-anchor="middle" x="1951" y="-30.3" font-family="Times,serif" font-size="14.00">च(28.1)</text>
</g>
<!-- Node28_1&#45;&gt;Node29_1 -->
<g id="edge27" class="edge">
<title>Node28_1&#45;&gt;Node29_1</title>
<path fill="none" stroke="black" d="M1951,-62.27C1951,-75.58 1951,-91.19 1951,-102.82"/>
<polygon fill="black" stroke="black" points="1954.5,-62.2 1951,-52.2 1947.5,-62.2 1954.5,-62.2"/>
<text text-anchor="middle" x="1969.5" y="-73.8" font-family="Times,serif" font-size="14.00">सम्बन्धः</text>
</g>
<!-- Node36_1 -->
<g id="node34" class="node">
<title>Node36_1</title>
<ellipse fill="#00bfff" stroke="#00bfff" cx="2070" cy="-34" rx="57.39" ry="18"/>
<text text-anchor="middle" x="2070" y="-30.3" font-family="Times,serif" font-size="14.00">(त्वम्)(36.1)</text>
</g>
<!-- Node36_1&#45;&gt;Node29_1 -->
<g id="edge33" class="edge">
<title>Node36_1&#45;&gt;Node29_1</title>
<path fill="none" stroke="black" d="M2039.53,-56.77C2019.04,-71.4 1992.46,-90.38 1973.8,-103.72"/>
<polygon fill="black" stroke="black" points="2041.79,-59.45 2047.9,-50.79 2037.72,-53.75 2041.79,-59.45"/>
<text text-anchor="middle" x="2028" y="-73.8" font-family="Times,serif" font-size="14.00">कर्ता</text>
</g>
<!-- Node30_1 -->
<g id="node35" class="node">
<title>Node30_1</title>
<ellipse fill="#87ceeb" stroke="#87ceeb" cx="2228" cy="-34" rx="82.59" ry="18"/>
<text text-anchor="middle" x="2228" y="-30.3" font-family="Times,serif" font-size="14.00">सैन्धवापसदस्य(30.1)</text>
</g>
<!-- Node32_1 -->
<g id="node36" class="node">
<title>Node32_1</title>
<ellipse fill="#93db70" stroke="#93db70" cx="2300" cy="-121" rx="63.89" ry="18"/>
<text text-anchor="middle" x="2300" y="-117.3" font-family="Times,serif" font-size="14.00">(श्राद्धम्)(32.1)</text>
</g>
<!-- Node30_1&#45;&gt;Node32_1 -->
<g id="edge28" class="edge">
<title>Node30_1&#45;&gt;Node32_1</title>
<path fill="none" stroke="black" d="M2248.85,-59.61C2260.71,-73.62 2275.26,-90.79 2285.8,-103.24"/>
<polygon fill="black" stroke="black" points="2251.36,-57.16 2242.22,-51.79 2246.02,-61.69 2251.36,-57.16"/>
<text text-anchor="middle" x="2295.5" y="-73.8" font-family="Times,serif" font-size="14.00">षष्ठीसम्बन्धः</text>
</g>
<!-- Node33_1 -->
<g id="node38" class="node">
<title>Node33_1</title>
<ellipse fill="#ff99ff" stroke="#ff99ff" cx="2300" cy="-208" rx="64.19" ry="18"/>
<text text-anchor="middle" x="2300" y="-204.3" font-family="Times,serif" font-size="14.00">(दातुम् )(33.1)</text>
</g>
<!-- Node32_1&#45;&gt;Node33_1 -->
<g id="edge30" class="edge">
<title>Node32_1&#45;&gt;Node33_1</title>
<path fill="none" stroke="black" d="M2300,-149.27C2300,-162.58 2300,-178.19 2300,-189.82"/>
<polygon fill="black" stroke="black" points="2303.5,-149.2 2300,-139.2 2296.5,-149.2 2303.5,-149.2"/>
<text text-anchor="middle" x="2309" y="-160.8" font-family="Times,serif" font-size="14.00">कर्म</text>
</g>
<!-- Node31_1 -->
<g id="node37" class="node">
<title>Node31_1</title>
<ellipse fill="#ff99ff" stroke="#ff99ff" cx="2372" cy="-34" rx="43.59" ry="18"/>
<text text-anchor="middle" x="2372" y="-30.3" font-family="Times,serif" font-size="14.00">च(31.1)</text>
</g>
<!-- Node31_1&#45;&gt;Node32_1 -->
<g id="edge29" class="edge">
<title>Node31_1&#45;&gt;Node32_1</title>
<path fill="none" stroke="black" d="M2351.45,-59.26C2339.49,-73.37 2324.73,-90.81 2314.09,-103.37"/>
<polygon fill="black" stroke="black" points="2354.32,-61.28 2358.12,-51.39 2348.98,-56.76 2354.32,-61.28"/>
<text text-anchor="middle" x="2358.5" y="-73.8" font-family="Times,serif" font-size="14.00">सम्बन्धः</text>
</g>
<!-- Node34_1 -->
<g id="node39" class="node">
<title>Node34_1</title>
<ellipse fill="#ff1975" stroke="#ff1975" cx="2436" cy="-295" rx="65.79" ry="18"/>
<text text-anchor="middle" x="2436" y="-291.3" font-family="Times,serif" font-size="14.00">(इच्छति)(34.1)</text>
</g>
<!-- Node33_1&#45;&gt;Node34_1 -->
<g id="edge31" class="edge">
<title>Node33_1&#45;&gt;Node34_1</title>
<path fill="none" stroke="black" d="M2334,-230.25C2357.87,-245.17 2389.25,-264.78 2410.87,-278.3"/>
<polygon fill="black" stroke="black" points="2335.6,-227.12 2325.26,-224.79 2331.89,-233.06 2335.6,-227.12"/>
<text text-anchor="middle" x="2385" y="-247.8" font-family="Times,serif" font-size="14.00">कर्म</text>
</g>
<!-- Node37_1 -->
<g id="node40" class="node">
<title>Node37_1</title>
<ellipse fill="#00bfff" stroke="#00bfff" cx="2436" cy="-208" rx="53.09" ry="18"/>
<text text-anchor="middle" x="2436" y="-204.3" font-family="Times,serif" font-size="14.00">(सः)(37.1)</text>
</g>
<!-- Node37_1&#45;&gt;Node34_1 -->
<g id="edge34" class="edge">
<title>Node37_1&#45;&gt;Node34_1</title>
<path fill="none" stroke="black" d="M2436,-236.27C2436,-249.58 2436,-265.19 2436,-276.82"/>
<polygon fill="black" stroke="black" points="2439.5,-236.2 2436,-226.2 2432.5,-236.2 2439.5,-236.2"/>
<text text-anchor="middle" x="2447" y="-247.8" font-family="Times,serif" font-size="14.00">कर्ता</text>
</g>
<!-- Node35_1 -->
<g id="node41" class="node">
<title>Node35_1</title>
<ellipse fill="#ff99ff" stroke="#ff99ff" cx="2564" cy="-208" rx="56.59" ry="18"/>
<text text-anchor="middle" x="2564" y="-204.3" font-family="Times,serif" font-size="14.00">(तर्हि)(35.1)</text>
</g>
<!-- Node35_1&#45;&gt;Node34_1 -->
<g id="edge32" class="edge">
<title>Node35_1&#45;&gt;Node34_1</title>
<path fill="none" stroke="black" d="M2532.06,-230.21C2509.79,-245 2480.55,-264.42 2460.2,-277.93"/>
<polygon fill="black" stroke="black" points="2534.13,-233.04 2540.52,-224.59 2530.26,-227.21 2534.13,-233.04"/>
<text text-anchor="middle" x="2527" y="-247.8" font-family="Times,serif" font-size="14.00">अनुयोगी</text>
</g>
</g>
</svg>
