<?xml version="1.0" encoding="UTF-8" standalone="no"?>
<!DOCTYPE svg PUBLIC "-//W3C//DTD SVG 1.1//EN"
 "http://www.w3.org/Graphics/SVG/1.1/DTD/svg11.dtd">
<!-- Generated by graphviz version 2.43.0 (0)
 -->
<!-- Title: G Pages: 1 -->
<svg width="868pt" height="392pt"
 viewBox="0.00 0.00 868.30 392.00" xmlns="http://www.w3.org/2000/svg" xmlns:xlink="http://www.w3.org/1999/xlink">
<g id="graph0" class="graph" transform="scale(1 1) rotate(0) translate(4 388)">
<title>G</title>
<polygon fill="#fffacd" stroke="transparent" points="-4,4 -4,-388 864.3,-388 864.3,4 -4,4"/>
<g id="clust1" class="cluster">
<title>cluster_1</title>
<polygon fill="#fffacd" stroke="black" points="493,-79 493,-218 755,-218 755,-79 493,-79"/>
</g>
<g id="clust2" class="cluster">
<title>cluster_2</title>
<polygon fill="#fffacd" stroke="black" points="8,-79 8,-218 242,-218 242,-79 8,-79"/>
</g>
<!-- Node2_4 -->
<g id="node1" class="node">
<title>Node2_4</title>
<ellipse fill="#40e0d0" stroke="#40e0d0" cx="689" cy="-105" rx="57.69" ry="18"/>
<text text-anchor="middle" x="689" y="-101.3" font-family="Times,serif" font-size="14.00">आदिभिः(2.4)</text>
</g>
<!-- Node4_1 -->
<g id="node2" class="node">
<title>Node4_1</title>
<ellipse fill="#40e0d0" stroke="#40e0d0" cx="557" cy="-192" rx="48.19" ry="18"/>
<text text-anchor="middle" x="557" y="-188.3" font-family="Times,serif" font-size="14.00">दुःखैः(4.1)</text>
</g>
<!-- Node2_4&#45;&gt;Node4_1 -->
<g id="edge5" class="edge">
<title>Node2_4&#45;&gt;Node4_1</title>
<path fill="none" stroke="black" d="M656.46,-126.95C632.83,-142.17 601.43,-162.39 580.28,-176.01"/>
<polygon fill="black" stroke="black" points="658.58,-129.75 665.1,-121.39 654.79,-123.86 658.58,-129.75"/>
<text text-anchor="middle" x="652.5" y="-144.8" font-family="Times,serif" font-size="14.00">विशेषणम्</text>
</g>
<!-- Node10_1 -->
<g id="node8" class="node">
<title>Node10_1</title>
<ellipse fill="#ff1975" stroke="#ff1975" cx="366" cy="-279" rx="59.59" ry="18"/>
<text text-anchor="middle" x="366" y="-275.3" font-family="Times,serif" font-size="14.00">(बभूव)(10.1)</text>
</g>
<!-- Node4_1&#45;&gt;Node10_1 -->
<g id="edge7" class="edge">
<title>Node4_1&#45;&gt;Node10_1</title>
<path fill="none" stroke="black" d="M530.55,-214.78C517.72,-224.5 501.71,-235.44 486,-243 463.12,-254.01 436.09,-262.27 413.48,-267.99"/>
<polygon fill="black" stroke="black" points="532.73,-217.52 538.48,-208.62 528.44,-211.99 532.73,-217.52"/>
<text text-anchor="middle" x="519.5" y="-231.8" font-family="Times,serif" font-size="14.00">हेतुः</text>
</g>
<!-- Node3_1 -->
<g id="node3" class="node">
<title>Node3_1</title>
<ellipse fill="#40e0d0" stroke="#40e0d0" cx="557" cy="-105" rx="55.79" ry="18"/>
<text text-anchor="middle" x="557" y="-101.3" font-family="Times,serif" font-size="14.00">बहुविधैः(3.1)</text>
</g>
<!-- Node3_1&#45;&gt;Node4_1 -->
<g id="edge6" class="edge">
<title>Node3_1&#45;&gt;Node4_1</title>
<path fill="none" stroke="black" d="M557,-133.27C557,-146.58 557,-162.19 557,-173.82"/>
<polygon fill="black" stroke="black" points="560.5,-133.2 557,-123.2 553.5,-133.2 560.5,-133.2"/>
<text text-anchor="middle" x="579.5" y="-144.8" font-family="Times,serif" font-size="14.00">विशेषणम्</text>
</g>
<!-- Node6_1 -->
<g id="node4" class="node">
<title>Node6_1</title>
<ellipse fill="#00bfff" stroke="#00bfff" cx="186" cy="-105" rx="48.19" ry="18"/>
<text text-anchor="middle" x="186" y="-101.3" font-family="Times,serif" font-size="14.00">अयम्(6.1)</text>
</g>
<!-- Node9_1 -->
<g id="node5" class="node">
<title>Node9_1</title>
<ellipse fill="#00bfff" stroke="#00bfff" cx="186" cy="-192" rx="48.19" ry="18"/>
<text text-anchor="middle" x="186" y="-188.3" font-family="Times,serif" font-size="14.00">भीमः(9.1)</text>
</g>
<!-- Node6_1&#45;&gt;Node9_1 -->
<g id="edge9" class="edge">
<title>Node6_1&#45;&gt;Node9_1</title>
<path fill="none" stroke="black" d="M186,-133.27C186,-146.58 186,-162.19 186,-173.82"/>
<polygon fill="black" stroke="black" points="189.5,-133.2 186,-123.2 182.5,-133.2 189.5,-133.2"/>
<text text-anchor="middle" x="208.5" y="-144.8" font-family="Times,serif" font-size="14.00">विशेषणम्</text>
</g>
<!-- Node9_1&#45;&gt;Node10_1 -->
<g id="edge12" class="edge">
<title>Node9_1&#45;&gt;Node10_1</title>
<path fill="none" stroke="black" d="M224.29,-211.08C257.41,-226.72 304.67,-249.04 335.34,-263.52"/>
<polygon fill="black" stroke="black" points="225.46,-207.76 214.92,-206.66 222.47,-214.09 225.46,-207.76"/>
<text text-anchor="middle" x="297" y="-231.8" font-family="Times,serif" font-size="14.00">कर्ता</text>
</g>
<!-- Node7_1 -->
<g id="node6" class="node">
<title>Node7_1</title>
<ellipse fill="#00bfff" stroke="#00bfff" cx="68" cy="-105" rx="51.99" ry="18"/>
<text text-anchor="middle" x="68" y="-101.3" font-family="Times,serif" font-size="14.00">धीमान्(7.1)</text>
</g>
<!-- Node7_1&#45;&gt;Node9_1 -->
<g id="edge10" class="edge">
<title>Node7_1&#45;&gt;Node9_1</title>
<path fill="none" stroke="black" d="M97.85,-127.7C109.98,-136.5 124.15,-146.75 137,-156 146,-162.47 155.94,-169.58 164.51,-175.7"/>
<polygon fill="black" stroke="black" points="99.57,-124.62 89.42,-121.58 95.46,-130.28 99.57,-124.62"/>
<text text-anchor="middle" x="159.5" y="-144.8" font-family="Times,serif" font-size="14.00">विशेषणम्</text>
</g>
<!-- Node1_1 -->
<g id="node7" class="node">
<title>Node1_1</title>
<ellipse fill="#c6e2eb" stroke="#c6e2eb" cx="303" cy="-192" rx="50.89" ry="18"/>
<text text-anchor="middle" x="303" y="-188.3" font-family="Times,serif" font-size="14.00">अरण्ये(1.1)</text>
</g>
<!-- Node1_1&#45;&gt;Node10_1 -->
<g id="edge1" class="edge">
<title>Node1_1&#45;&gt;Node10_1</title>
<path fill="none" stroke="black" d="M317.5,-218.41C322.43,-226.48 328.18,-235.31 334,-243 338.77,-249.3 344.46,-255.8 349.71,-261.46"/>
<polygon fill="black" stroke="black" points="320.44,-216.51 312.31,-209.72 314.43,-220.1 320.44,-216.51"/>
<text text-anchor="middle" x="361.5" y="-231.8" font-family="Times,serif" font-size="14.00">अधिकरणम्</text>
</g>
<!-- Node13_1 -->
<g id="node14" class="node">
<title>Node13_1</title>
<ellipse fill="#93db70" stroke="#93db70" cx="263" cy="-366" rx="61.99" ry="18"/>
<text text-anchor="middle" x="263" y="-362.3" font-family="Times,serif" font-size="14.00">विदितम्(13.1)</text>
</g>
<!-- Node10_1&#45;&gt;Node13_1 -->
<g id="edge13" class="edge">
<title>Node10_1&#45;&gt;Node13_1</title>
<path fill="none" stroke="black" d="M337.98,-303.12C320.51,-317.54 298.46,-335.74 282.8,-348.66"/>
<polygon fill="black" stroke="black" points="340.66,-305.45 346.14,-296.39 336.2,-300.05 340.66,-305.45"/>
<text text-anchor="middle" x="341.5" y="-318.8" font-family="Times,serif" font-size="14.00">वाक्यकर्म</text>
</g>
<!-- Node2_1 -->
<g id="node9" class="node">
<title>Node2_1</title>
<ellipse fill="#ffff00" stroke="#ffff00" cx="577" cy="-18" rx="46.59" ry="18"/>
<text text-anchor="middle" x="577" y="-14.3" font-family="Times,serif" font-size="14.00">हिम&#45;(2.1)</text>
</g>
<!-- Node2_1&#45;&gt;Node2_4 -->
<g id="edge2" class="edge">
<title>Node2_1&#45;&gt;Node2_4</title>
<path fill="none" stroke="black" d="M605.25,-40.44C624.8,-55.28 650.39,-74.69 668.11,-88.15"/>
<polygon fill="black" stroke="black" points="607.36,-37.65 597.28,-34.39 603.13,-43.23 607.36,-37.65"/>
<text text-anchor="middle" x="656" y="-57.8" font-family="Times,serif" font-size="14.00">समासः</text>
</g>
<!-- Node2_2 -->
<g id="node10" class="node">
<title>Node2_2</title>
<ellipse fill="#ffff00" stroke="#ffff00" cx="689" cy="-18" rx="46.59" ry="18"/>
<text text-anchor="middle" x="689" y="-14.3" font-family="Times,serif" font-size="14.00">वृष्टि&#45;(2.2)</text>
</g>
<!-- Node2_2&#45;&gt;Node2_4 -->
<g id="edge3" class="edge">
<title>Node2_2&#45;&gt;Node2_4</title>
<path fill="none" stroke="black" d="M689,-46.27C689,-59.58 689,-75.19 689,-86.82"/>
<polygon fill="black" stroke="black" points="692.5,-46.2 689,-36.2 685.5,-46.2 692.5,-46.2"/>
<text text-anchor="middle" x="706" y="-57.8" font-family="Times,serif" font-size="14.00">समासः</text>
</g>
<!-- Node2_3 -->
<g id="node11" class="node">
<title>Node2_3</title>
<ellipse fill="#ffff00" stroke="#ffff00" cx="807" cy="-18" rx="53.09" ry="18"/>
<text text-anchor="middle" x="807" y="-14.3" font-family="Times,serif" font-size="14.00">आतप&#45;(2.3)</text>
</g>
<!-- Node2_3&#45;&gt;Node2_4 -->
<g id="edge4" class="edge">
<title>Node2_3&#45;&gt;Node2_4</title>
<path fill="none" stroke="black" d="M777.23,-40.44C756.6,-55.31 729.58,-74.77 710.91,-88.22"/>
<polygon fill="black" stroke="black" points="779.29,-43.28 785.36,-34.59 775.2,-37.6 779.29,-43.28"/>
<text text-anchor="middle" x="772" y="-57.8" font-family="Times,serif" font-size="14.00">समासः</text>
</g>
<!-- Node5_1 -->
<g id="node12" class="node">
<title>Node5_1</title>
<ellipse fill="#00bfff" stroke="#00bfff" cx="316" cy="-105" rx="63.89" ry="18"/>
<text text-anchor="middle" x="316" y="-101.3" font-family="Times,serif" font-size="14.00">परिक्लिष्टः(5.1)</text>
</g>
<!-- Node5_1&#45;&gt;Node9_1 -->
<g id="edge8" class="edge">
<title>Node5_1&#45;&gt;Node9_1</title>
<path fill="none" stroke="black" d="M283.39,-127.32C260.26,-142.44 229.8,-162.36 209.14,-175.87"/>
<polygon fill="black" stroke="black" points="285.4,-130.19 291.85,-121.79 281.57,-124.33 285.4,-130.19"/>
<text text-anchor="middle" x="297" y="-144.8" font-family="Times,serif" font-size="14.00">विधेय_विशेषणम्</text>
</g>
<!-- Node8_1 -->
<g id="node13" class="node">
<title>Node8_1</title>
<ellipse fill="#ff99ff" stroke="#ff99ff" cx="68" cy="-18" rx="38.99" ry="18"/>
<text text-anchor="middle" x="68" y="-14.3" font-family="Times,serif" font-size="14.00">हि(8.1)</text>
</g>
<!-- Node8_1&#45;&gt;Node7_1 -->
<g id="edge11" class="edge">
<title>Node8_1&#45;&gt;Node7_1</title>
<path fill="none" stroke="black" d="M68,-46.27C68,-59.58 68,-75.19 68,-86.82"/>
<polygon fill="black" stroke="black" points="71.5,-46.2 68,-36.2 64.5,-46.2 71.5,-46.2"/>
<text text-anchor="middle" x="86.5" y="-57.8" font-family="Times,serif" font-size="14.00">सम्बन्धः</text>
</g>
<!-- Node11_1 -->
<g id="node15" class="node">
<title>Node11_1</title>
<ellipse fill="#ff99ff" stroke="#ff99ff" cx="428" cy="-192" rx="56.59" ry="18"/>
<text text-anchor="middle" x="428" y="-188.3" font-family="Times,serif" font-size="14.00">(इति)(11.1)</text>
</g>
<!-- Node11_1&#45;&gt;Node10_1 -->
<g id="edge14" class="edge">
<title>Node11_1&#45;&gt;Node10_1</title>
<path fill="none" stroke="black" d="M409.76,-218.01C399.6,-231.94 387.22,-248.91 378.22,-261.24"/>
<polygon fill="black" stroke="black" points="412.69,-219.93 415.75,-209.79 407.03,-215.81 412.69,-219.93"/>
<text text-anchor="middle" x="441" y="-231.8" font-family="Times,serif" font-size="14.00">वाक्यकर्म_द्योतकः</text>
</g>
<!-- Node12_1 -->
<g id="node16" class="node">
<title>Node12_1</title>
<ellipse fill="#87ceeb" stroke="#87ceeb" cx="241" cy="-279" rx="47.39" ry="18"/>
<text text-anchor="middle" x="241" y="-275.3" font-family="Times,serif" font-size="14.00">तव(12.1)</text>
</g>
<!-- Node12_1&#45;&gt;Node13_1 -->
<g id="edge15" class="edge">
<title>Node12_1&#45;&gt;Node13_1</title>
<path fill="none" stroke="black" d="M248.06,-307.27C251.5,-320.58 255.54,-336.19 258.55,-347.82"/>
<polygon fill="black" stroke="black" points="251.35,-306.01 245.45,-297.2 244.57,-307.76 251.35,-306.01"/>
<text text-anchor="middle" x="264" y="-318.8" font-family="Times,serif" font-size="14.00">कर्ता</text>
</g>
</g>
</svg>
