<?xml version="1.0" encoding="UTF-8" standalone="no"?>
<!DOCTYPE svg PUBLIC "-//W3C//DTD SVG 1.1//EN"
 "http://www.w3.org/Graphics/SVG/1.1/DTD/svg11.dtd">
<!-- Generated by graphviz version 2.43.0 (0)
 -->
<!-- Title: G Pages: 1 -->
<svg width="1095pt" height="408pt"
 viewBox="0.00 0.00 1095.39 408.00" xmlns="http://www.w3.org/2000/svg" xmlns:xlink="http://www.w3.org/1999/xlink">
<g id="graph0" class="graph" transform="scale(1 1) rotate(0) translate(4 404)">
<title>G</title>
<polygon fill="#fffacd" stroke="transparent" points="-4,4 -4,-404 1091.39,-404 1091.39,4 -4,4"/>
<g id="clust1" class="cluster">
<title>cluster_1</title>
<polygon fill="#fffacd" stroke="black" points="99.5,-95 99.5,-234 211.5,-234 211.5,-95 99.5,-95"/>
</g>
<g id="clust2" class="cluster">
<title>cluster_2</title>
<polygon fill="#fffacd" stroke="black" points="219.5,-8 219.5,-147 363.5,-147 363.5,-8 219.5,-8"/>
</g>
<!-- Node3_1 -->
<g id="node1" class="node">
<title>Node3_1</title>
<ellipse fill="#00bfff" stroke="#00bfff" cx="155.5" cy="-121" rx="48.19" ry="18"/>
<text text-anchor="middle" x="155.5" y="-117.3" font-family="Times,serif" font-size="14.00">ज्येष्ठः(3.1)</text>
</g>
<!-- Node4_1 -->
<g id="node2" class="node">
<title>Node4_1</title>
<ellipse fill="#00bfff" stroke="#00bfff" cx="153.5" cy="-208" rx="44.39" ry="18"/>
<text text-anchor="middle" x="153.5" y="-204.3" font-family="Times,serif" font-size="14.00">गुरुः(4.1)</text>
</g>
<!-- Node3_1&#45;&gt;Node4_1 -->
<g id="edge3" class="edge">
<title>Node3_1&#45;&gt;Node4_1</title>
<path fill="none" stroke="black" d="M154.85,-149.27C154.54,-162.58 154.17,-178.19 153.9,-189.82"/>
<polygon fill="black" stroke="black" points="158.35,-149.28 155.09,-139.2 151.36,-149.12 158.35,-149.28"/>
<text text-anchor="middle" x="177" y="-160.8" font-family="Times,serif" font-size="14.00">समुच्चितः</text>
</g>
<!-- Node6_1 -->
<g id="node8" class="node">
<title>Node6_1</title>
<ellipse fill="#00bfff" stroke="#00bfff" cx="153.5" cy="-295" rx="44.39" ry="18"/>
<text text-anchor="middle" x="153.5" y="-291.3" font-family="Times,serif" font-size="14.00">त्वम्(6.1)</text>
</g>
<!-- Node4_1&#45;&gt;Node6_1 -->
<g id="edge4" class="edge">
<title>Node4_1&#45;&gt;Node6_1</title>
<path fill="none" stroke="black" d="M153.5,-236.27C153.5,-249.58 153.5,-265.19 153.5,-276.82"/>
<polygon fill="black" stroke="black" points="157,-236.2 153.5,-226.2 150,-236.2 157,-236.2"/>
<text text-anchor="middle" x="192.5" y="-247.8" font-family="Times,serif" font-size="14.00">विधेय_विशेषणम्</text>
</g>
<!-- Node14_1 -->
<g id="node3" class="node">
<title>Node14_1</title>
<ellipse fill="#00bfff" stroke="#00bfff" cx="291.5" cy="-34" rx="59.59" ry="18"/>
<text text-anchor="middle" x="291.5" y="-30.3" font-family="Times,serif" font-size="14.00">राजर्षिः(14.1)</text>
</g>
<!-- Node15_1 -->
<g id="node4" class="node">
<title>Node15_1</title>
<ellipse fill="#00bfff" stroke="#00bfff" cx="291.5" cy="-121" rx="63.89" ry="18"/>
<text text-anchor="middle" x="291.5" y="-117.3" font-family="Times,serif" font-size="14.00">धृतराष्ट्रः(15.1)</text>
</g>
<!-- Node14_1&#45;&gt;Node15_1 -->
<g id="edge12" class="edge">
<title>Node14_1&#45;&gt;Node15_1</title>
<path fill="none" stroke="black" d="M291.5,-62.27C291.5,-75.58 291.5,-91.19 291.5,-102.82"/>
<polygon fill="black" stroke="black" points="295,-62.2 291.5,-52.2 288,-62.2 295,-62.2"/>
<text text-anchor="middle" x="314" y="-73.8" font-family="Times,serif" font-size="14.00">विशेषणम्</text>
</g>
<!-- Node19_1 -->
<g id="node16" class="node">
<title>Node19_1</title>
<ellipse fill="#ff1975" stroke="#ff1975" cx="429.5" cy="-208" rx="55.79" ry="18"/>
<text text-anchor="middle" x="429.5" y="-204.3" font-family="Times,serif" font-size="14.00">अर्हति(19.1)</text>
</g>
<!-- Node15_1&#45;&gt;Node19_1 -->
<g id="edge13" class="edge">
<title>Node15_1&#45;&gt;Node19_1</title>
<path fill="none" stroke="black" d="M325.46,-142.92C350.04,-158.06 382.69,-178.17 404.81,-191.79"/>
<polygon fill="black" stroke="black" points="327.16,-139.85 316.81,-137.59 323.49,-145.81 327.16,-139.85"/>
<text text-anchor="middle" x="379.5" y="-160.8" font-family="Times,serif" font-size="14.00">कर्ता</text>
</g>
<!-- Node1_1 -->
<g id="node5" class="node">
<title>Node1_1</title>
<ellipse fill="#6fffc3" stroke="#6fffc3" cx="45.5" cy="-295" rx="45.49" ry="18"/>
<text text-anchor="middle" x="45.5" y="-291.3" font-family="Times,serif" font-size="14.00">भीम(1.1)</text>
</g>
<!-- Node7_1 -->
<g id="node6" class="node">
<title>Node7_1</title>
<ellipse fill="#ff1975" stroke="#ff1975" cx="77.5" cy="-382" rx="57.69" ry="18"/>
<text text-anchor="middle" x="77.5" y="-378.3" font-family="Times,serif" font-size="14.00">(आसीः)(7.1)</text>
</g>
<!-- Node1_1&#45;&gt;Node7_1 -->
<g id="edge1" class="edge">
<title>Node1_1&#45;&gt;Node7_1</title>
<path fill="none" stroke="black" d="M55.61,-322.87C60.66,-336.27 66.61,-352.08 71.03,-363.82"/>
<polygon fill="black" stroke="black" points="58.77,-321.33 51.97,-313.2 52.22,-323.79 58.77,-321.33"/>
<text text-anchor="middle" x="84.5" y="-334.8" font-family="Times,serif" font-size="14.00">सम्बोध्यः</text>
</g>
<!-- Node2_1 -->
<g id="node7" class="node">
<title>Node2_1</title>
<ellipse fill="#87ceeb" stroke="#87ceeb" cx="155.5" cy="-34" rx="37.09" ry="18"/>
<text text-anchor="middle" x="155.5" y="-30.3" font-family="Times,serif" font-size="14.00">मे(2.1)</text>
</g>
<!-- Node2_1&#45;&gt;Node3_1 -->
<g id="edge2" class="edge">
<title>Node2_1&#45;&gt;Node3_1</title>
<path fill="none" stroke="black" d="M155.5,-62.27C155.5,-75.58 155.5,-91.19 155.5,-102.82"/>
<polygon fill="black" stroke="black" points="159,-62.2 155.5,-52.2 152,-62.2 159,-62.2"/>
<text text-anchor="middle" x="183" y="-73.8" font-family="Times,serif" font-size="14.00">षष्ठीसम्बन्धः</text>
</g>
<!-- Node6_1&#45;&gt;Node7_1 -->
<g id="edge6" class="edge">
<title>Node6_1&#45;&gt;Node7_1</title>
<path fill="none" stroke="black" d="M132.66,-319.86C125.37,-328.16 117.1,-337.52 109.5,-346 104.11,-352.01 98.16,-358.54 92.86,-364.32"/>
<polygon fill="black" stroke="black" points="135.35,-322.11 139.31,-312.28 130.08,-317.49 135.35,-322.11"/>
<text text-anchor="middle" x="132.5" y="-334.8" font-family="Times,serif" font-size="14.00">कर्ता</text>
</g>
<!-- Node5_1 -->
<g id="node9" class="node">
<title>Node5_1</title>
<ellipse fill="#ff99ff" stroke="#ff99ff" cx="45.5" cy="-121" rx="44.39" ry="18"/>
<text text-anchor="middle" x="45.5" y="-117.3" font-family="Times,serif" font-size="14.00">(च)(5.1)</text>
</g>
<!-- Node5_1&#45;&gt;Node4_1 -->
<g id="edge5" class="edge">
<title>Node5_1&#45;&gt;Node4_1</title>
<path fill="none" stroke="black" d="M56.16,-148.31C60.55,-156.71 66.32,-165.49 73.5,-172 86.08,-183.4 102.96,-191.53 117.98,-197.06"/>
<polygon fill="black" stroke="black" points="59.25,-146.66 51.78,-139.14 52.93,-149.68 59.25,-146.66"/>
<text text-anchor="middle" x="111.5" y="-160.8" font-family="Times,serif" font-size="14.00">समुच्चय_द्योतकः</text>
</g>
<!-- Node8_1 -->
<g id="node10" class="node">
<title>Node8_1</title>
<ellipse fill="#ff99ff" stroke="#ff99ff" cx="677.5" cy="-121" rx="46.29" ry="18"/>
<text text-anchor="middle" x="677.5" y="-117.3" font-family="Times,serif" font-size="14.00">अतः(8.1)</text>
</g>
<!-- Node13_1 -->
<g id="node11" class="node">
<title>Node13_1</title>
<ellipse fill="#ff1975" stroke="#ff1975" cx="840.5" cy="-208" rx="55.79" ry="18"/>
<text text-anchor="middle" x="840.5" y="-204.3" font-family="Times,serif" font-size="14.00">उत्सहे(13.1)</text>
</g>
<!-- Node8_1&#45;&gt;Node13_1 -->
<g id="edge7" class="edge">
<title>Node8_1&#45;&gt;Node13_1</title>
<path fill="none" stroke="black" d="M713.26,-140.65C743.04,-156.18 784.87,-177.99 812.31,-192.3"/>
<polygon fill="black" stroke="black" points="714.53,-137.37 704.05,-135.85 711.3,-143.57 714.53,-137.37"/>
<text text-anchor="middle" x="787" y="-160.8" font-family="Times,serif" font-size="14.00">सम्बन्धः</text>
</g>
<!-- Node9_1 -->
<g id="node12" class="node">
<title>Node9_1</title>
<ellipse fill="#00bfff" stroke="#00bfff" cx="796.5" cy="-121" rx="54.69" ry="18"/>
<text text-anchor="middle" x="796.5" y="-117.3" font-family="Times,serif" font-size="14.00">(अहम्)(9.1)</text>
</g>
<!-- Node9_1&#45;&gt;Node13_1 -->
<g id="edge8" class="edge">
<title>Node9_1&#45;&gt;Node13_1</title>
<path fill="none" stroke="black" d="M809.82,-147.74C816.9,-161.42 825.41,-177.86 831.67,-189.95"/>
<polygon fill="black" stroke="black" points="812.89,-146.06 805.19,-138.79 806.68,-149.28 812.89,-146.06"/>
<text text-anchor="middle" x="831.5" y="-160.8" font-family="Times,serif" font-size="14.00">कर्ता</text>
</g>
<!-- Node10_1 -->
<g id="node13" class="node">
<title>Node10_1</title>
<ellipse fill="#93db70" stroke="#93db70" cx="926.5" cy="-34" rx="56.59" ry="18"/>
<text text-anchor="middle" x="926.5" y="-30.3" font-family="Times,serif" font-size="14.00">अन्यत्(10.1)</text>
</g>
<!-- Node11_1 -->
<g id="node14" class="node">
<title>Node11_1</title>
<ellipse fill="#ff99ff" stroke="#ff99ff" cx="926.5" cy="-121" rx="57.39" ry="18"/>
<text text-anchor="middle" x="926.5" y="-117.3" font-family="Times,serif" font-size="14.00">वक्तुम्(11.1)</text>
</g>
<!-- Node10_1&#45;&gt;Node11_1 -->
<g id="edge9" class="edge">
<title>Node10_1&#45;&gt;Node11_1</title>
<path fill="none" stroke="black" d="M926.5,-62.27C926.5,-75.58 926.5,-91.19 926.5,-102.82"/>
<polygon fill="black" stroke="black" points="930,-62.2 926.5,-52.2 923,-62.2 930,-62.2"/>
<text text-anchor="middle" x="935.5" y="-73.8" font-family="Times,serif" font-size="14.00">कर्म</text>
</g>
<!-- Node11_1&#45;&gt;Node13_1 -->
<g id="edge10" class="edge">
<title>Node11_1&#45;&gt;Node13_1</title>
<path fill="none" stroke="black" d="M902.7,-145.52C888.18,-159.87 869.98,-177.86 857.03,-190.66"/>
<polygon fill="black" stroke="black" points="905.26,-147.91 909.91,-138.39 900.34,-142.93 905.26,-147.91"/>
<text text-anchor="middle" x="910" y="-160.8" font-family="Times,serif" font-size="14.00">प्रयोजनम्</text>
</g>
<!-- Node12_1 -->
<g id="node15" class="node">
<title>Node12_1</title>
<ellipse fill="#ff99ff" stroke="#ff99ff" cx="1044.5" cy="-121" rx="42.79" ry="18"/>
<text text-anchor="middle" x="1044.5" y="-117.3" font-family="Times,serif" font-size="14.00">न(12.1)</text>
</g>
<!-- Node12_1&#45;&gt;Node13_1 -->
<g id="edge11" class="edge">
<title>Node12_1&#45;&gt;Node13_1</title>
<path fill="none" stroke="black" d="M1008.28,-139.61C1003,-142.12 997.62,-144.65 992.5,-147 967.36,-158.55 961.15,-161.66 935.5,-172 916.26,-179.75 894.57,-187.8 876.78,-194.21"/>
<polygon fill="black" stroke="black" points="1010.08,-142.63 1017.59,-135.15 1007.06,-136.31 1010.08,-142.63"/>
<text text-anchor="middle" x="989" y="-160.8" font-family="Times,serif" font-size="14.00">प्रतिषेधः</text>
</g>
<!-- Node16_1 -->
<g id="node17" class="node">
<title>Node16_1</title>
<ellipse fill="#ff99ff" stroke="#ff99ff" cx="416.5" cy="-34" rx="44.69" ry="18"/>
<text text-anchor="middle" x="416.5" y="-30.3" font-family="Times,serif" font-size="14.00">हि(16.1)</text>
</g>
<!-- Node16_1&#45;&gt;Node15_1 -->
<g id="edge14" class="edge">
<title>Node16_1&#45;&gt;Node15_1</title>
<path fill="none" stroke="black" d="M386.38,-55.48C364.36,-70.45 334.93,-90.47 314.71,-104.21"/>
<polygon fill="black" stroke="black" points="388.42,-58.32 394.72,-49.81 384.49,-52.53 388.42,-58.32"/>
<text text-anchor="middle" x="379" y="-73.8" font-family="Times,serif" font-size="14.00">सम्बन्धः</text>
</g>
<!-- Node17_1 -->
<g id="node18" class="node">
<title>Node17_1</title>
<ellipse fill="#ff99ff" stroke="#ff99ff" cx="429.5" cy="-121" rx="55.79" ry="18"/>
<text text-anchor="middle" x="429.5" y="-117.3" font-family="Times,serif" font-size="14.00">सर्वथा(17.1)</text>
</g>
<!-- Node17_1&#45;&gt;Node19_1 -->
<g id="edge15" class="edge">
<title>Node17_1&#45;&gt;Node19_1</title>
<path fill="none" stroke="black" d="M429.5,-149.27C429.5,-162.58 429.5,-178.19 429.5,-189.82"/>
<polygon fill="black" stroke="black" points="433,-149.2 429.5,-139.2 426,-149.2 433,-149.2"/>
<text text-anchor="middle" x="464.5" y="-160.8" font-family="Times,serif" font-size="14.00">क्रियाविशेषणम्</text>
</g>
<!-- Node18_1 -->
<g id="node19" class="node">
<title>Node18_1</title>
<ellipse fill="#93db70" stroke="#93db70" cx="558.5" cy="-121" rx="55.49" ry="18"/>
<text text-anchor="middle" x="558.5" y="-117.3" font-family="Times,serif" font-size="14.00">मानम्(18.1)</text>
</g>
<!-- Node18_1&#45;&gt;Node19_1 -->
<g id="edge16" class="edge">
<title>Node18_1&#45;&gt;Node19_1</title>
<path fill="none" stroke="black" d="M535.33,-145.88C525.97,-154.76 514.72,-164.49 503.5,-172 491.09,-180.3 476.42,-187.68 463.42,-193.5"/>
<polygon fill="black" stroke="black" points="537.99,-148.17 542.72,-138.69 533.11,-143.16 537.99,-148.17"/>
<text text-anchor="middle" x="531.5" y="-160.8" font-family="Times,serif" font-size="14.00">कर्म</text>
</g>
</g>
</svg>
