<?xml version="1.0" encoding="UTF-8" standalone="no"?>
<!DOCTYPE svg PUBLIC "-//W3C//DTD SVG 1.1//EN"
 "http://www.w3.org/Graphics/SVG/1.1/DTD/svg11.dtd">
<!-- Generated by graphviz version 2.43.0 (0)
 -->
<!-- Title: G Pages: 1 -->
<svg width="986pt" height="234pt"
 viewBox="0.00 0.00 986.05 234.00" xmlns="http://www.w3.org/2000/svg" xmlns:xlink="http://www.w3.org/1999/xlink">
<g id="graph0" class="graph" transform="scale(1 1) rotate(0) translate(4 230)">
<title>G</title>
<polygon fill="#fffacd" stroke="transparent" points="-4,4 -4,-230 982.05,-230 982.05,4 -4,4"/>
<g id="clust1" class="cluster">
<title>cluster_1</title>
<polygon fill="#fffacd" stroke="black" points="8,-8 8,-147 274,-147 274,-8 8,-8"/>
</g>
<g id="clust2" class="cluster">
<title>cluster_2</title>
<polygon fill="#fffacd" stroke="black" points="282,-8 282,-147 414,-147 414,-8 282,-8"/>
</g>
<g id="clust3" class="cluster">
<title>cluster_3</title>
<polygon fill="#fffacd" stroke="black" points="422,-8 422,-147 558,-147 558,-8 422,-8"/>
</g>
<!-- Node1_1 -->
<g id="node1" class="node">
<title>Node1_1</title>
<ellipse fill="#00bfff" stroke="#00bfff" cx="198" cy="-34" rx="67.69" ry="18"/>
<text text-anchor="middle" x="198" y="-30.3" font-family="Times,serif" font-size="14.00">भृशदुःखितः(1.1)</text>
</g>
<!-- Node3_1 -->
<g id="node2" class="node">
<title>Node3_1</title>
<ellipse fill="#00bfff" stroke="#00bfff" cx="198" cy="-121" rx="48.19" ry="18"/>
<text text-anchor="middle" x="198" y="-117.3" font-family="Times,serif" font-size="14.00">भीमः(3.1)</text>
</g>
<!-- Node1_1&#45;&gt;Node3_1 -->
<g id="edge1" class="edge">
<title>Node1_1&#45;&gt;Node3_1</title>
<path fill="none" stroke="black" d="M198,-62.27C198,-75.58 198,-91.19 198,-102.82"/>
<polygon fill="black" stroke="black" points="201.5,-62.2 198,-52.2 194.5,-62.2 201.5,-62.2"/>
<text text-anchor="middle" x="220.5" y="-73.8" font-family="Times,serif" font-size="14.00">विशेषणम्</text>
</g>
<!-- Node6_1 -->
<g id="node8" class="node">
<title>Node6_1</title>
<ellipse fill="#ff1975" stroke="#ff1975" cx="274" cy="-208" rx="51.99" ry="18"/>
<text text-anchor="middle" x="274" y="-204.3" font-family="Times,serif" font-size="14.00">करोति(6.1)</text>
</g>
<!-- Node3_1&#45;&gt;Node6_1 -->
<g id="edge3" class="edge">
<title>Node3_1&#45;&gt;Node6_1</title>
<path fill="none" stroke="black" d="M219.38,-145.91C232.15,-160.2 248.05,-177.98 259.39,-190.66"/>
<polygon fill="black" stroke="black" points="221.93,-143.51 212.65,-138.39 216.71,-148.18 221.93,-143.51"/>
<text text-anchor="middle" x="252" y="-160.8" font-family="Times,serif" font-size="14.00">कर्ता</text>
</g>
<!-- Node2_1 -->
<g id="node3" class="node">
<title>Node2_1</title>
<ellipse fill="#00bfff" stroke="#00bfff" cx="64" cy="-34" rx="48.19" ry="18"/>
<text text-anchor="middle" x="64" y="-30.3" font-family="Times,serif" font-size="14.00">अयम्(2.1)</text>
</g>
<!-- Node2_1&#45;&gt;Node3_1 -->
<g id="edge2" class="edge">
<title>Node2_1&#45;&gt;Node3_1</title>
<path fill="none" stroke="black" d="M95.82,-55.18C119.97,-70.51 152.65,-91.23 174.48,-105.08"/>
<polygon fill="black" stroke="black" points="97.66,-52.21 87.34,-49.81 93.91,-58.12 97.66,-52.21"/>
<text text-anchor="middle" x="162.5" y="-73.8" font-family="Times,serif" font-size="14.00">विशेषणम्</text>
</g>
<!-- Node4_1 -->
<g id="node4" class="node">
<title>Node4_1</title>
<ellipse fill="#93db70" stroke="#93db70" cx="348" cy="-34" rx="42.49" ry="18"/>
<text text-anchor="middle" x="348" y="-30.3" font-family="Times,serif" font-size="14.00">यत्(4.1)</text>
</g>
<!-- Node5_1 -->
<g id="node5" class="node">
<title>Node5_1</title>
<ellipse fill="#93db70" stroke="#93db70" cx="348" cy="-121" rx="57.69" ry="18"/>
<text text-anchor="middle" x="348" y="-117.3" font-family="Times,serif" font-size="14.00">मात्सर्यम्(5.1)</text>
</g>
<!-- Node4_1&#45;&gt;Node5_1 -->
<g id="edge4" class="edge">
<title>Node4_1&#45;&gt;Node5_1</title>
<path fill="none" stroke="black" d="M348,-62.27C348,-75.58 348,-91.19 348,-102.82"/>
<polygon fill="black" stroke="black" points="351.5,-62.2 348,-52.2 344.5,-62.2 351.5,-62.2"/>
<text text-anchor="middle" x="370.5" y="-73.8" font-family="Times,serif" font-size="14.00">विशेषणम्</text>
</g>
<!-- Node5_1&#45;&gt;Node6_1 -->
<g id="edge5" class="edge">
<title>Node5_1&#45;&gt;Node6_1</title>
<path fill="none" stroke="black" d="M326.53,-146.67C314.25,-160.77 299.18,-178.08 288.34,-190.53"/>
<polygon fill="black" stroke="black" points="329.45,-148.63 333.38,-138.79 324.17,-144.04 329.45,-148.63"/>
<text text-anchor="middle" x="324" y="-160.8" font-family="Times,serif" font-size="14.00">कर्म</text>
</g>
<!-- Node13_1 -->
<g id="node6" class="node">
<title>Node13_1</title>
<ellipse fill="#00bfff" stroke="#00bfff" cx="490" cy="-34" rx="46.29" ry="18"/>
<text text-anchor="middle" x="490" y="-30.3" font-family="Times,serif" font-size="14.00">सः(13.1)</text>
</g>
<!-- Node14_1 -->
<g id="node7" class="node">
<title>Node14_1</title>
<ellipse fill="#00bfff" stroke="#00bfff" cx="490" cy="-121" rx="59.59" ry="18"/>
<text text-anchor="middle" x="490" y="-117.3" font-family="Times,serif" font-size="14.00">पार्थिवः(14.1)</text>
</g>
<!-- Node13_1&#45;&gt;Node14_1 -->
<g id="edge12" class="edge">
<title>Node13_1&#45;&gt;Node14_1</title>
<path fill="none" stroke="black" d="M490,-62.27C490,-75.58 490,-91.19 490,-102.82"/>
<polygon fill="black" stroke="black" points="493.5,-62.2 490,-52.2 486.5,-62.2 493.5,-62.2"/>
<text text-anchor="middle" x="512.5" y="-73.8" font-family="Times,serif" font-size="14.00">विशेषणम्</text>
</g>
<!-- Node15_1 -->
<g id="node13" class="node">
<title>Node15_1</title>
<ellipse fill="#00bfff" stroke="#00bfff" cx="718" cy="-208" rx="55.79" ry="18"/>
<text text-anchor="middle" x="718" y="-204.3" font-family="Times,serif" font-size="14.00">वाच्यः(15.1)</text>
</g>
<!-- Node14_1&#45;&gt;Node15_1 -->
<g id="edge13" class="edge">
<title>Node14_1&#45;&gt;Node15_1</title>
<path fill="none" stroke="black" d="M535.58,-138.99C578.94,-155.16 643.25,-179.13 682.79,-193.87"/>
<polygon fill="black" stroke="black" points="536.72,-135.68 526.13,-135.47 534.27,-142.24 536.72,-135.68"/>
<text text-anchor="middle" x="626" y="-160.8" font-family="Times,serif" font-size="14.00">कर्म</text>
</g>
<!-- Node7_1 -->
<g id="node9" class="node">
<title>Node7_1</title>
<ellipse fill="#ff99ff" stroke="#ff99ff" cx="608" cy="-34" rx="42.49" ry="18"/>
<text text-anchor="middle" x="608" y="-30.3" font-family="Times,serif" font-size="14.00">तत्(7.1)</text>
</g>
<!-- Node10_1 -->
<g id="node10" class="node">
<title>Node10_1</title>
<ellipse fill="#00bfff" stroke="#00bfff" cx="718" cy="-121" rx="61.99" ry="18"/>
<text text-anchor="middle" x="718" y="-117.3" font-family="Times,serif" font-size="14.00">कर्तव्यम्(10.1)</text>
</g>
<!-- Node7_1&#45;&gt;Node10_1 -->
<g id="edge6" class="edge">
<title>Node7_1&#45;&gt;Node10_1</title>
<path fill="none" stroke="black" d="M635.48,-56.23C654.64,-71.04 679.81,-90.49 697.29,-103.99"/>
<polygon fill="black" stroke="black" points="637.47,-53.35 627.41,-50 633.19,-58.88 637.47,-53.35"/>
<text text-anchor="middle" x="687.5" y="-73.8" font-family="Times,serif" font-size="14.00">सम्बन्धः</text>
</g>
<!-- Node10_1&#45;&gt;Node15_1 -->
<g id="edge9" class="edge">
<title>Node10_1&#45;&gt;Node15_1</title>
<path fill="none" stroke="black" d="M718,-149.27C718,-162.58 718,-178.19 718,-189.82"/>
<polygon fill="black" stroke="black" points="721.5,-149.2 718,-139.2 714.5,-149.2 721.5,-149.2"/>
<text text-anchor="middle" x="739.5" y="-160.8" font-family="Times,serif" font-size="14.00">वाक्यकर्म</text>
</g>
<!-- Node8_1 -->
<g id="node11" class="node">
<title>Node8_1</title>
<ellipse fill="#c6e2eb" stroke="#c6e2eb" cx="718" cy="-34" rx="50.09" ry="18"/>
<text text-anchor="middle" x="718" y="-30.3" font-family="Times,serif" font-size="14.00">मनसि(8.1)</text>
</g>
<!-- Node8_1&#45;&gt;Node10_1 -->
<g id="edge7" class="edge">
<title>Node8_1&#45;&gt;Node10_1</title>
<path fill="none" stroke="black" d="M718,-62.27C718,-75.58 718,-91.19 718,-102.82"/>
<polygon fill="black" stroke="black" points="721.5,-62.2 718,-52.2 714.5,-62.2 721.5,-62.2"/>
<text text-anchor="middle" x="745.5" y="-73.8" font-family="Times,serif" font-size="14.00">अधिकरणम्</text>
</g>
<!-- Node9_1 -->
<g id="node12" class="node">
<title>Node9_1</title>
<ellipse fill="#ff99ff" stroke="#ff99ff" cx="823" cy="-34" rx="37.09" ry="18"/>
<text text-anchor="middle" x="823" y="-30.3" font-family="Times,serif" font-size="14.00">न(9.1)</text>
</g>
<!-- Node9_1&#45;&gt;Node10_1 -->
<g id="edge8" class="edge">
<title>Node9_1&#45;&gt;Node10_1</title>
<path fill="none" stroke="black" d="M803.71,-58.75C795.93,-67.55 786.54,-77.27 777,-85 767.84,-92.43 756.94,-99.34 747.02,-105.03"/>
<polygon fill="black" stroke="black" points="806.51,-60.87 810.37,-51 801.2,-56.31 806.51,-60.87"/>
<text text-anchor="middle" x="811.5" y="-73.8" font-family="Times,serif" font-size="14.00">प्रतिषेधः</text>
</g>
<!-- Node11_1 -->
<g id="node14" class="node">
<title>Node11_1</title>
<ellipse fill="#ff99ff" stroke="#ff99ff" cx="928" cy="-34" rx="50.09" ry="18"/>
<text text-anchor="middle" x="928" y="-30.3" font-family="Times,serif" font-size="14.00">इति(11.1)</text>
</g>
<!-- Node11_1&#45;&gt;Node10_1 -->
<g id="edge10" class="edge">
<title>Node11_1&#45;&gt;Node10_1</title>
<path fill="none" stroke="black" d="M895.12,-54.79C877.68,-64.74 855.63,-76.47 835,-85 811.98,-94.52 785.44,-102.67 763.47,-108.71"/>
<polygon fill="black" stroke="black" points="896.89,-57.81 903.8,-49.77 893.39,-51.75 896.89,-57.81"/>
<text text-anchor="middle" x="907" y="-73.8" font-family="Times,serif" font-size="14.00">वाक्यकर्म_द्योतकः</text>
</g>
<!-- Node12_1 -->
<g id="node15" class="node">
<title>Node12_1</title>
<ellipse fill="#40e0d0" stroke="#40e0d0" cx="860" cy="-121" rx="62.29" ry="18"/>
<text text-anchor="middle" x="860" y="-117.3" font-family="Times,serif" font-size="14.00">(भवता)(12.1)</text>
</g>
<!-- Node12_1&#45;&gt;Node15_1 -->
<g id="edge11" class="edge">
<title>Node12_1&#45;&gt;Node15_1</title>
<path fill="none" stroke="black" d="M825.05,-142.92C799.76,-158.06 766.16,-178.17 743.4,-191.79"/>
<polygon fill="black" stroke="black" points="827.17,-145.73 833.96,-137.59 823.58,-139.72 827.17,-145.73"/>
<text text-anchor="middle" x="808" y="-160.8" font-family="Times,serif" font-size="14.00">कर्ता</text>
</g>
</g>
</svg>
