<?xml version="1.0" encoding="UTF-8" standalone="no"?>
<!DOCTYPE svg PUBLIC "-//W3C//DTD SVG 1.1//EN"
 "http://www.w3.org/Graphics/SVG/1.1/DTD/svg11.dtd">
<!-- Generated by graphviz version 2.43.0 (0)
 -->
<!-- Title: G Pages: 1 -->
<svg width="1184pt" height="321pt"
 viewBox="0.00 0.00 1183.99 321.00" xmlns="http://www.w3.org/2000/svg" xmlns:xlink="http://www.w3.org/1999/xlink">
<g id="graph0" class="graph" transform="scale(1 1) rotate(0) translate(4 317)">
<title>G</title>
<polygon fill="#fffacd" stroke="transparent" points="-4,4 -4,-317 1179.99,-317 1179.99,4 -4,4"/>
<g id="clust1" class="cluster">
<title>cluster_1</title>
<polygon fill="#fffacd" stroke="black" points="242,-8 242,-147 354,-147 354,-8 242,-8"/>
</g>
<g id="clust2" class="cluster">
<title>cluster_2</title>
<polygon fill="#fffacd" stroke="black" points="475,-95 475,-234 575,-234 575,-95 475,-95"/>
</g>
<g id="clust3" class="cluster">
<title>cluster_3</title>
<polygon fill="#fffacd" stroke="black" points="822,-95 822,-234 946,-234 946,-95 822,-95"/>
</g>
<!-- Node5_1 -->
<g id="node1" class="node">
<title>Node5_1</title>
<ellipse fill="#00bfff" stroke="#00bfff" cx="298" cy="-34" rx="48.19" ry="18"/>
<text text-anchor="middle" x="298" y="-30.3" font-family="Times,serif" font-size="14.00">अयम्(5.1)</text>
</g>
<!-- Node4_1 -->
<g id="node2" class="node">
<title>Node4_1</title>
<ellipse fill="#00bfff" stroke="#00bfff" cx="296" cy="-121" rx="44.69" ry="18"/>
<text text-anchor="middle" x="296" y="-117.3" font-family="Times,serif" font-size="14.00">धर्मः(4.1)</text>
</g>
<!-- Node5_1&#45;&gt;Node4_1 -->
<g id="edge5" class="edge">
<title>Node5_1&#45;&gt;Node4_1</title>
<path fill="none" stroke="black" d="M297.35,-62.27C297.04,-75.58 296.67,-91.19 296.4,-102.82"/>
<polygon fill="black" stroke="black" points="300.86,-62.28 297.59,-52.2 293.86,-62.12 300.86,-62.28"/>
<text text-anchor="middle" x="319.5" y="-73.8" font-family="Times,serif" font-size="14.00">विशेषणम्</text>
</g>
<!-- Node14_1 -->
<g id="node8" class="node">
<title>Node14_1</title>
<ellipse fill="#ff1975" stroke="#ff1975" cx="233" cy="-208" rx="62.29" ry="18"/>
<text text-anchor="middle" x="233" y="-204.3" font-family="Times,serif" font-size="14.00">(अस्ति)(14.1)</text>
</g>
<!-- Node4_1&#45;&gt;Node14_1 -->
<g id="edge4" class="edge">
<title>Node4_1&#45;&gt;Node14_1</title>
<path fill="none" stroke="black" d="M282.13,-147.5C277.37,-155.57 271.77,-164.38 266,-172 261.16,-178.39 255.31,-184.91 249.88,-190.56"/>
<polygon fill="black" stroke="black" points="285.19,-149.21 287.12,-138.79 279.11,-145.73 285.19,-149.21"/>
<text text-anchor="middle" x="286" y="-160.8" font-family="Times,serif" font-size="14.00">कर्ता</text>
</g>
<!-- Node8_1 -->
<g id="node3" class="node">
<title>Node8_1</title>
<ellipse fill="#c6e2eb" stroke="#c6e2eb" cx="525" cy="-121" rx="42.49" ry="18"/>
<text text-anchor="middle" x="525" y="-117.3" font-family="Times,serif" font-size="14.00">युद्धे(8.1)</text>
</g>
<!-- Node9_2 -->
<g id="node4" class="node">
<title>Node9_2</title>
<ellipse fill="#c6e2eb" stroke="#c6e2eb" cx="525" cy="-208" rx="42.49" ry="18"/>
<text text-anchor="middle" x="525" y="-204.3" font-family="Times,serif" font-size="14.00">धर्मे(9.2)</text>
</g>
<!-- Node8_1&#45;&gt;Node9_2 -->
<g id="edge9" class="edge">
<title>Node8_1&#45;&gt;Node9_2</title>
<path fill="none" stroke="black" d="M525,-149.27C525,-162.58 525,-178.19 525,-189.82"/>
<polygon fill="black" stroke="black" points="528.5,-149.2 525,-139.2 521.5,-149.2 528.5,-149.2"/>
<text text-anchor="middle" x="547.5" y="-160.8" font-family="Times,serif" font-size="14.00">समुच्चितः</text>
</g>
<!-- Node15_1 -->
<g id="node15" class="node">
<title>Node15_1</title>
<ellipse fill="#ff1975" stroke="#ff1975" cx="704" cy="-295" rx="62.29" ry="18"/>
<text text-anchor="middle" x="704" y="-291.3" font-family="Times,serif" font-size="14.00">(अस्ति)(15.1)</text>
</g>
<!-- Node9_2&#45;&gt;Node15_1 -->
<g id="edge11" class="edge">
<title>Node9_2&#45;&gt;Node15_1</title>
<path fill="none" stroke="black" d="M561.43,-226.3C594.23,-241.88 641.91,-264.52 672.94,-279.25"/>
<polygon fill="black" stroke="black" points="562.72,-223.04 552.18,-221.91 559.71,-229.36 562.72,-223.04"/>
<text text-anchor="middle" x="662" y="-247.8" font-family="Times,serif" font-size="14.00">विषयाधिकरणम्</text>
</g>
<!-- Node12_1 -->
<g id="node5" class="node">
<title>Node12_1</title>
<ellipse fill="#00bfff" stroke="#00bfff" cx="884" cy="-121" rx="53.89" ry="18"/>
<text text-anchor="middle" x="884" y="-117.3" font-family="Times,serif" font-size="14.00">अयम्(12.1)</text>
</g>
<!-- Node13_2 -->
<g id="node6" class="node">
<title>Node13_2</title>
<ellipse fill="#00bfff" stroke="#00bfff" cx="884" cy="-208" rx="52.79" ry="18"/>
<text text-anchor="middle" x="884" y="-204.3" font-family="Times,serif" font-size="14.00">उदरः(13.2)</text>
</g>
<!-- Node12_1&#45;&gt;Node13_2 -->
<g id="edge15" class="edge">
<title>Node12_1&#45;&gt;Node13_2</title>
<path fill="none" stroke="black" d="M884,-149.27C884,-162.58 884,-178.19 884,-189.82"/>
<polygon fill="black" stroke="black" points="887.5,-149.2 884,-139.2 880.5,-149.2 887.5,-149.2"/>
<text text-anchor="middle" x="906.5" y="-160.8" font-family="Times,serif" font-size="14.00">विशेषणम्</text>
</g>
<!-- Node13_2&#45;&gt;Node15_1 -->
<g id="edge17" class="edge">
<title>Node13_2&#45;&gt;Node15_1</title>
<path fill="none" stroke="black" d="M844.94,-227.44C811.97,-243.01 765.41,-265 734.97,-279.37"/>
<polygon fill="black" stroke="black" points="846.73,-230.47 854.27,-223.04 843.74,-224.14 846.73,-230.47"/>
<text text-anchor="middle" x="815" y="-247.8" font-family="Times,serif" font-size="14.00">कर्ता</text>
</g>
<!-- Node1_1 -->
<g id="node7" class="node">
<title>Node1_1</title>
<ellipse fill="#ff99ff" stroke="#ff99ff" cx="187" cy="-121" rx="46.29" ry="18"/>
<text text-anchor="middle" x="187" y="-117.3" font-family="Times,serif" font-size="14.00">एवम्(1.1)</text>
</g>
<!-- Node1_1&#45;&gt;Node14_1 -->
<g id="edge1" class="edge">
<title>Node1_1&#45;&gt;Node14_1</title>
<path fill="none" stroke="black" d="M188.71,-149.16C190.02,-156.88 192.25,-165.07 196,-172 199.78,-179 205.48,-185.4 211.27,-190.77"/>
<polygon fill="black" stroke="black" points="192.16,-148.56 187.43,-139.08 185.22,-149.45 192.16,-148.56"/>
<text text-anchor="middle" x="231" y="-160.8" font-family="Times,serif" font-size="14.00">क्रियाविशेषणम्</text>
</g>
<!-- Node2_1 -->
<g id="node9" class="node">
<title>Node2_1</title>
<ellipse fill="#ff99ff" stroke="#ff99ff" cx="58" cy="-121" rx="46.59" ry="18"/>
<text text-anchor="middle" x="58" y="-117.3" font-family="Times,serif" font-size="14.00">प्रायः(2.1)</text>
</g>
<!-- Node2_1&#45;&gt;Node14_1 -->
<g id="edge2" class="edge">
<title>Node2_1&#45;&gt;Node14_1</title>
<path fill="none" stroke="black" d="M81.03,-145.36C91.31,-154.73 104.03,-164.95 117,-172 137.69,-183.25 162.48,-191.36 183.83,-196.92"/>
<polygon fill="black" stroke="black" points="83.35,-142.74 73.67,-138.43 78.55,-147.84 83.35,-142.74"/>
<text text-anchor="middle" x="152" y="-160.8" font-family="Times,serif" font-size="14.00">क्रियाविशेषणम्</text>
</g>
<!-- Node3_1 -->
<g id="node10" class="node">
<title>Node3_1</title>
<ellipse fill="#ff99ff" stroke="#ff99ff" cx="39" cy="-34" rx="38.99" ry="18"/>
<text text-anchor="middle" x="39" y="-30.3" font-family="Times,serif" font-size="14.00">हि(3.1)</text>
</g>
<!-- Node3_1&#45;&gt;Node2_1 -->
<g id="edge3" class="edge">
<title>Node3_1&#45;&gt;Node2_1</title>
<path fill="none" stroke="black" d="M45.09,-62.27C48.07,-75.58 51.56,-91.19 54.16,-102.82"/>
<polygon fill="black" stroke="black" points="48.44,-61.2 42.84,-52.2 41.61,-62.72 48.44,-61.2"/>
<text text-anchor="middle" x="68.5" y="-73.8" font-family="Times,serif" font-size="14.00">सम्बन्धः</text>
</g>
<!-- Node6_1 -->
<g id="node11" class="node">
<title>Node6_1</title>
<ellipse fill="#87ceeb" stroke="#87ceeb" cx="164" cy="-34" rx="67.69" ry="18"/>
<text text-anchor="middle" x="164" y="-30.3" font-family="Times,serif" font-size="14.00">क्षत्रियाणाम्(6.1)</text>
</g>
<!-- Node6_1&#45;&gt;Node4_1 -->
<g id="edge6" class="edge">
<title>Node6_1&#45;&gt;Node4_1</title>
<path fill="none" stroke="black" d="M195.23,-57.05C208.04,-65.93 223.11,-76.14 237,-85 248.14,-92.11 260.71,-99.64 271.38,-105.88"/>
<polygon fill="black" stroke="black" points="196.96,-53.99 186.75,-51.15 192.96,-59.74 196.96,-53.99"/>
<text text-anchor="middle" x="264.5" y="-73.8" font-family="Times,serif" font-size="14.00">षष्ठीसम्बन्धः</text>
</g>
<!-- Node7_1 -->
<g id="node12" class="node">
<title>Node7_1</title>
<ellipse fill="#ffff00" stroke="#ffff00" cx="413" cy="-34" rx="43.59" ry="18"/>
<text text-anchor="middle" x="413" y="-30.3" font-family="Times,serif" font-size="14.00">नर&#45;(7.1)</text>
</g>
<!-- Node7_2 -->
<g id="node13" class="node">
<title>Node7_2</title>
<ellipse fill="#6fffc3" stroke="#6fffc3" cx="413" cy="-121" rx="51.19" ry="18"/>
<text text-anchor="middle" x="413" y="-117.3" font-family="Times,serif" font-size="14.00">अधिप(7.2)</text>
</g>
<!-- Node7_1&#45;&gt;Node7_2 -->
<g id="edge7" class="edge">
<title>Node7_1&#45;&gt;Node7_2</title>
<path fill="none" stroke="black" d="M413,-62.27C413,-75.58 413,-91.19 413,-102.82"/>
<polygon fill="black" stroke="black" points="416.5,-62.2 413,-52.2 409.5,-62.2 416.5,-62.2"/>
<text text-anchor="middle" x="430" y="-73.8" font-family="Times,serif" font-size="14.00">समासः</text>
</g>
<!-- Node7_2&#45;&gt;Node14_1 -->
<g id="edge8" class="edge">
<title>Node7_2&#45;&gt;Node14_1</title>
<path fill="none" stroke="black" d="M374.35,-140.25C341.42,-155.8 294.69,-177.87 264.12,-192.3"/>
<polygon fill="black" stroke="black" points="376.13,-143.28 383.68,-135.85 373.14,-136.95 376.13,-143.28"/>
<text text-anchor="middle" x="354" y="-160.8" font-family="Times,serif" font-size="14.00">सम्बोध्यः</text>
</g>
<!-- Node9_1 -->
<g id="node14" class="node">
<title>Node9_1</title>
<ellipse fill="#ffff00" stroke="#ffff00" cx="639" cy="-121" rx="53.89" ry="18"/>
<text text-anchor="middle" x="639" y="-117.3" font-family="Times,serif" font-size="14.00">क्षत्रिय&#45;(9.1)</text>
</g>
<!-- Node9_1&#45;&gt;Node9_2 -->
<g id="edge10" class="edge">
<title>Node9_1&#45;&gt;Node9_2</title>
<path fill="none" stroke="black" d="M611.01,-143.87C599.6,-152.7 586.24,-162.93 574,-172 564.93,-178.72 554.79,-186 546.1,-192.17"/>
<polygon fill="black" stroke="black" points="613.18,-146.62 618.93,-137.73 608.89,-141.09 613.18,-146.62"/>
<text text-anchor="middle" x="610" y="-160.8" font-family="Times,serif" font-size="14.00">समासः</text>
</g>
<!-- Node10_1 -->
<g id="node16" class="node">
<title>Node10_1</title>
<ellipse fill="#ff99ff" stroke="#ff99ff" cx="754" cy="-121" rx="43.59" ry="18"/>
<text text-anchor="middle" x="754" y="-117.3" font-family="Times,serif" font-size="14.00">च(10.1)</text>
</g>
<!-- Node10_1&#45;&gt;Node9_2 -->
<g id="edge12" class="edge">
<title>Node10_1&#45;&gt;Node9_2</title>
<path fill="none" stroke="black" d="M718.11,-139.88C712.75,-142.37 707.26,-144.82 702,-147 653.15,-167.27 594.75,-186.05 558.76,-197.02"/>
<polygon fill="black" stroke="black" points="719.99,-142.86 727.53,-135.41 716.99,-136.54 719.99,-142.86"/>
<text text-anchor="middle" x="711" y="-160.8" font-family="Times,serif" font-size="14.00">समुच्चय_द्योतकः</text>
</g>
<!-- Node11_1 -->
<g id="node17" class="node">
<title>Node11_1</title>
<ellipse fill="#ffff00" stroke="#ffff00" cx="1005" cy="-34" rx="48.19" ry="18"/>
<text text-anchor="middle" x="1005" y="-30.3" font-family="Times,serif" font-size="14.00">नि&#45;(11.1)</text>
</g>
<!-- Node11_2 -->
<g id="node18" class="node">
<title>Node11_2</title>
<ellipse fill="#00bfff" stroke="#00bfff" cx="1005" cy="-121" rx="48.99" ry="18"/>
<text text-anchor="middle" x="1005" y="-117.3" font-family="Times,serif" font-size="14.00">रतः(11.2)</text>
</g>
<!-- Node11_1&#45;&gt;Node11_2 -->
<g id="edge13" class="edge">
<title>Node11_1&#45;&gt;Node11_2</title>
<path fill="none" stroke="black" d="M1005,-62.27C1005,-75.58 1005,-91.19 1005,-102.82"/>
<polygon fill="black" stroke="black" points="1008.5,-62.2 1005,-52.2 1001.5,-62.2 1008.5,-62.2"/>
<text text-anchor="middle" x="1022" y="-73.8" font-family="Times,serif" font-size="14.00">समासः</text>
</g>
<!-- Node11_2&#45;&gt;Node13_2 -->
<g id="edge14" class="edge">
<title>Node11_2&#45;&gt;Node13_2</title>
<path fill="none" stroke="black" d="M974.99,-143.08C953.7,-158.04 925.57,-177.79 906.26,-191.36"/>
<polygon fill="black" stroke="black" points="977.19,-145.81 983.36,-137.2 973.17,-140.08 977.19,-145.81"/>
<text text-anchor="middle" x="990" y="-160.8" font-family="Times,serif" font-size="14.00">विधेय_विशेषणम्</text>
</g>
<!-- Node13_1 -->
<g id="node19" class="node">
<title>Node13_1</title>
<ellipse fill="#ffff00" stroke="#ffff00" cx="1124" cy="-121" rx="51.99" ry="18"/>
<text text-anchor="middle" x="1124" y="-117.3" font-family="Times,serif" font-size="14.00">वृक&#45;(13.1)</text>
</g>
<!-- Node13_1&#45;&gt;Node13_2 -->
<g id="edge16" class="edge">
<title>Node13_1&#45;&gt;Node13_2</title>
<path fill="none" stroke="black" d="M1091.61,-142.61C1074.68,-152.65 1053.3,-164.2 1033,-172 999.76,-184.76 960.49,-193.75 930.61,-199.42"/>
<polygon fill="black" stroke="black" points="1093.78,-145.39 1100.52,-137.23 1090.16,-139.4 1093.78,-145.39"/>
<text text-anchor="middle" x="1081" y="-160.8" font-family="Times,serif" font-size="14.00">समासः</text>
</g>
</g>
</svg>
