<?xml version="1.0" encoding="UTF-8" standalone="no"?>
<!DOCTYPE svg PUBLIC "-//W3C//DTD SVG 1.1//EN"
 "http://www.w3.org/Graphics/SVG/1.1/DTD/svg11.dtd">
<!-- Generated by graphviz version 2.43.0 (0)
 -->
<!-- Title: G Pages: 1 -->
<svg width="714pt" height="479pt"
 viewBox="0.00 0.00 714.20 479.00" xmlns="http://www.w3.org/2000/svg" xmlns:xlink="http://www.w3.org/1999/xlink">
<g id="graph0" class="graph" transform="scale(1 1) rotate(0) translate(4 475)">
<title>G</title>
<polygon fill="#fffacd" stroke="transparent" points="-4,4 -4,-475 710.2,-475 710.2,4 -4,4"/>
<g id="clust1" class="cluster">
<title>cluster_1</title>
<polygon fill="#fffacd" stroke="black" points="96.2,-253 96.2,-392 698.2,-392 698.2,-253 96.2,-253"/>
</g>
<!-- Node1_4 -->
<g id="node1" class="node">
<title>Node1_4</title>
<ellipse fill="#93db70" stroke="#93db70" cx="154.2" cy="-279" rx="50.09" ry="18"/>
<text text-anchor="middle" x="154.2" y="-275.3" font-family="Times,serif" font-size="14.00">हारान्(1.4)</text>
</g>
<!-- Node12_1 -->
<g id="node2" class="node">
<title>Node12_1</title>
<ellipse fill="#93db70" stroke="#93db70" cx="340.2" cy="-366" rx="70.69" ry="18"/>
<text text-anchor="middle" x="340.2" y="-362.3" font-family="Times,serif" font-size="14.00">अजाविकम्(12.1)</text>
</g>
<!-- Node1_4&#45;&gt;Node12_1 -->
<g id="edge4" class="edge">
<title>Node1_4&#45;&gt;Node12_1</title>
<path fill="none" stroke="black" d="M190.76,-298.86C209.82,-308.5 233.6,-320.22 255.2,-330 270.9,-337.11 288.48,-344.45 303.56,-350.56"/>
<polygon fill="black" stroke="black" points="192.32,-295.73 181.81,-294.32 189.14,-301.97 192.32,-295.73"/>
<text text-anchor="middle" x="277.7" y="-318.8" font-family="Times,serif" font-size="14.00">समुच्चितः</text>
</g>
<!-- Node13_1 -->
<g id="node15" class="node">
<title>Node13_1</title>
<ellipse fill="#ff1975" stroke="#ff1975" cx="74.2" cy="-453" rx="68.49" ry="18"/>
<text text-anchor="middle" x="74.2" y="-449.3" font-family="Times,serif" font-size="14.00">(प्रयच्छतु)(13.1)</text>
</g>
<!-- Node12_1&#45;&gt;Node13_1 -->
<g id="edge17" class="edge">
<title>Node12_1&#45;&gt;Node13_1</title>
<path fill="none" stroke="black" d="M288.34,-383.57C238.07,-399.63 162.76,-423.7 116.15,-438.59"/>
<polygon fill="black" stroke="black" points="289.59,-386.85 298.05,-380.47 287.46,-380.18 289.59,-386.85"/>
<text text-anchor="middle" x="231.2" y="-405.8" font-family="Times,serif" font-size="14.00">कर्म</text>
</g>
<!-- Node5_2 -->
<g id="node3" class="node">
<title>Node5_2</title>
<ellipse fill="#93db70" stroke="#93db70" cx="277.2" cy="-279" rx="54.69" ry="18"/>
<text text-anchor="middle" x="277.2" y="-275.3" font-family="Times,serif" font-size="14.00">देहिकम्(5.2)</text>
</g>
<!-- Node5_2&#45;&gt;Node12_1 -->
<g id="edge9" class="edge">
<title>Node5_2&#45;&gt;Node12_1</title>
<path fill="none" stroke="black" d="M295.73,-305.01C306.06,-318.94 318.64,-335.91 327.78,-348.24"/>
<polygon fill="black" stroke="black" points="298.41,-302.74 289.64,-296.79 292.79,-306.91 298.41,-302.74"/>
<text text-anchor="middle" x="334.7" y="-318.8" font-family="Times,serif" font-size="14.00">समुच्चितः</text>
</g>
<!-- Node7_1 -->
<g id="node4" class="node">
<title>Node7_1</title>
<ellipse fill="#93db70" stroke="#93db70" cx="404.2" cy="-279" rx="53.89" ry="18"/>
<text text-anchor="middle" x="404.2" y="-275.3" font-family="Times,serif" font-size="14.00">रत्नानि(7.1)</text>
</g>
<!-- Node7_1&#45;&gt;Node12_1 -->
<g id="edge11" class="edge">
<title>Node7_1&#45;&gt;Node12_1</title>
<path fill="none" stroke="black" d="M385.37,-305.01C374.88,-318.94 362.1,-335.91 352.81,-348.24"/>
<polygon fill="black" stroke="black" points="388.33,-306.89 391.55,-296.79 382.74,-302.68 388.33,-306.89"/>
<text text-anchor="middle" x="397.7" y="-318.8" font-family="Times,serif" font-size="14.00">समुच्चितः</text>
</g>
<!-- Node8_1 -->
<g id="node5" class="node">
<title>Node8_1</title>
<ellipse fill="#93db70" stroke="#93db70" cx="518.2" cy="-279" rx="42.49" ry="18"/>
<text text-anchor="middle" x="518.2" y="-275.3" font-family="Times,serif" font-size="14.00">गाः(8.1)</text>
</g>
<!-- Node8_1&#45;&gt;Node12_1 -->
<g id="edge12" class="edge">
<title>Node8_1&#45;&gt;Node12_1</title>
<path fill="none" stroke="black" d="M484.92,-298.68C467.11,-308.43 444.69,-320.31 424.2,-330 408.91,-337.23 391.73,-344.53 376.91,-350.58"/>
<polygon fill="black" stroke="black" points="486.71,-301.69 493.78,-293.8 483.33,-295.56 486.71,-301.69"/>
<text text-anchor="middle" x="474.7" y="-318.8" font-family="Times,serif" font-size="14.00">समुच्चितः</text>
</g>
<!-- Node11_2 -->
<g id="node6" class="node">
<title>Node11_2</title>
<ellipse fill="#93db70" stroke="#93db70" cx="634.2" cy="-279" rx="55.79" ry="18"/>
<text text-anchor="middle" x="634.2" y="-275.3" font-family="Times,serif" font-size="14.00">दासम्(11.2)</text>
</g>
<!-- Node11_2&#45;&gt;Node12_1 -->
<g id="edge16" class="edge">
<title>Node11_2&#45;&gt;Node12_1</title>
<path fill="none" stroke="black" d="M592.08,-297.63C566.18,-308.02 532.14,-320.87 501.2,-330 466.76,-340.16 427.4,-348.77 396.21,-354.9"/>
<polygon fill="black" stroke="black" points="593.63,-300.78 601.58,-293.78 591,-294.29 593.63,-300.78"/>
<text text-anchor="middle" x="567.7" y="-318.8" font-family="Times,serif" font-size="14.00">समुच्चितः</text>
</g>
<!-- Node1_1 -->
<g id="node7" class="node">
<title>Node1_1</title>
<ellipse fill="#ffff00" stroke="#ffff00" cx="54.2" cy="-18" rx="46.29" ry="18"/>
<text text-anchor="middle" x="54.2" y="-14.3" font-family="Times,serif" font-size="14.00">ब्रह्म&#45;(1.1)</text>
</g>
<!-- Node1_2 -->
<g id="node8" class="node">
<title>Node1_2</title>
<ellipse fill="#ffff00" stroke="#ffff00" cx="54.2" cy="-105" rx="44.39" ry="18"/>
<text text-anchor="middle" x="54.2" y="-101.3" font-family="Times,serif" font-size="14.00">देय&#45;(1.2)</text>
</g>
<!-- Node1_1&#45;&gt;Node1_2 -->
<g id="edge1" class="edge">
<title>Node1_1&#45;&gt;Node1_2</title>
<path fill="none" stroke="black" d="M54.2,-46.27C54.2,-59.58 54.2,-75.19 54.2,-86.82"/>
<polygon fill="black" stroke="black" points="57.7,-46.2 54.2,-36.2 50.7,-46.2 57.7,-46.2"/>
<text text-anchor="middle" x="71.2" y="-57.8" font-family="Times,serif" font-size="14.00">समासः</text>
</g>
<!-- Node1_3 -->
<g id="node9" class="node">
<title>Node1_3</title>
<ellipse fill="#ffff00" stroke="#ffff00" cx="54.2" cy="-192" rx="46.29" ry="18"/>
<text text-anchor="middle" x="54.2" y="-188.3" font-family="Times,serif" font-size="14.00">अग्र&#45;(1.3)</text>
</g>
<!-- Node1_2&#45;&gt;Node1_3 -->
<g id="edge2" class="edge">
<title>Node1_2&#45;&gt;Node1_3</title>
<path fill="none" stroke="black" d="M54.2,-133.27C54.2,-146.58 54.2,-162.19 54.2,-173.82"/>
<polygon fill="black" stroke="black" points="57.7,-133.2 54.2,-123.2 50.7,-133.2 57.7,-133.2"/>
<text text-anchor="middle" x="71.2" y="-144.8" font-family="Times,serif" font-size="14.00">समासः</text>
</g>
<!-- Node1_3&#45;&gt;Node1_4 -->
<g id="edge3" class="edge">
<title>Node1_3&#45;&gt;Node1_4</title>
<path fill="none" stroke="black" d="M80.6,-215.44C97.93,-230.17 120.16,-249.07 135.63,-262.22"/>
<polygon fill="black" stroke="black" points="82.42,-212.4 72.54,-208.59 77.89,-217.73 82.42,-212.4"/>
<text text-anchor="middle" x="126.2" y="-231.8" font-family="Times,serif" font-size="14.00">समासः</text>
</g>
<!-- Node2_1 -->
<g id="node10" class="node">
<title>Node2_1</title>
<ellipse fill="#ff99ff" stroke="#ff99ff" cx="156.2" cy="-192" rx="37.89" ry="18"/>
<text text-anchor="middle" x="156.2" y="-188.3" font-family="Times,serif" font-size="14.00">च(2.1)</text>
</g>
<!-- Node2_1&#45;&gt;Node1_4 -->
<g id="edge5" class="edge">
<title>Node2_1&#45;&gt;Node1_4</title>
<path fill="none" stroke="black" d="M155.55,-220.27C155.24,-233.58 154.87,-249.19 154.6,-260.82"/>
<polygon fill="black" stroke="black" points="159.06,-220.28 155.79,-210.2 152.06,-220.12 159.06,-220.28"/>
<text text-anchor="middle" x="193.2" y="-231.8" font-family="Times,serif" font-size="14.00">समुच्चय_द्योतकः</text>
</g>
<!-- Node3_1 -->
<g id="node11" class="node">
<title>Node3_1</title>
<ellipse fill="#87ceeb" stroke="#87ceeb" cx="272.2" cy="-192" rx="58.49" ry="18"/>
<text text-anchor="middle" x="272.2" y="-188.3" font-family="Times,serif" font-size="14.00">पुत्राणाम्(3.1)</text>
</g>
<!-- Node3_1&#45;&gt;Node5_2 -->
<g id="edge6" class="edge">
<title>Node3_1&#45;&gt;Node5_2</title>
<path fill="none" stroke="black" d="M273.8,-220.27C274.58,-233.58 275.5,-249.19 276.19,-260.82"/>
<polygon fill="black" stroke="black" points="277.29,-219.98 273.21,-210.2 270.3,-220.39 277.29,-219.98"/>
<text text-anchor="middle" x="301.7" y="-231.8" font-family="Times,serif" font-size="14.00">षष्ठीसम्बन्धः</text>
</g>
<!-- Node4_1 -->
<g id="node12" class="node">
<title>Node4_1</title>
<ellipse fill="#ff99ff" stroke="#ff99ff" cx="272.2" cy="-105" rx="37.89" ry="18"/>
<text text-anchor="middle" x="272.2" y="-101.3" font-family="Times,serif" font-size="14.00">च(4.1)</text>
</g>
<!-- Node4_1&#45;&gt;Node3_1 -->
<g id="edge7" class="edge">
<title>Node4_1&#45;&gt;Node3_1</title>
<path fill="none" stroke="black" d="M272.2,-133.27C272.2,-146.58 272.2,-162.19 272.2,-173.82"/>
<polygon fill="black" stroke="black" points="275.7,-133.2 272.2,-123.2 268.7,-133.2 275.7,-133.2"/>
<text text-anchor="middle" x="290.7" y="-144.8" font-family="Times,serif" font-size="14.00">सम्बन्धः</text>
</g>
<!-- Node5_1 -->
<g id="node13" class="node">
<title>Node5_1</title>
<ellipse fill="#ffff00" stroke="#ffff00" cx="400.2" cy="-192" rx="51.99" ry="18"/>
<text text-anchor="middle" x="400.2" y="-188.3" font-family="Times,serif" font-size="14.00">और्ध्व&#45;(5.1)</text>
</g>
<!-- Node5_1&#45;&gt;Node5_2 -->
<g id="edge8" class="edge">
<title>Node5_1&#45;&gt;Node5_2</title>
<path fill="none" stroke="black" d="M371.83,-214.98C360.04,-223.9 346.11,-234.17 333.2,-243 323.26,-249.8 312.05,-256.9 302.29,-262.93"/>
<polygon fill="black" stroke="black" points="374.15,-217.61 379.99,-208.76 369.91,-212.04 374.15,-217.61"/>
<text text-anchor="middle" x="370.2" y="-231.8" font-family="Times,serif" font-size="14.00">समासः</text>
</g>
<!-- Node6_1 -->
<g id="node14" class="node">
<title>Node6_1</title>
<ellipse fill="#ff99ff" stroke="#ff99ff" cx="44.2" cy="-366" rx="44.39" ry="18"/>
<text text-anchor="middle" x="44.2" y="-362.3" font-family="Times,serif" font-size="14.00">इतः(6.1)</text>
</g>
<!-- Node6_1&#45;&gt;Node13_1 -->
<g id="edge10" class="edge">
<title>Node6_1&#45;&gt;Node13_1</title>
<path fill="none" stroke="black" d="M53.68,-393.87C58.41,-407.27 63.99,-423.08 68.13,-434.82"/>
<polygon fill="black" stroke="black" points="56.9,-392.47 50.27,-384.2 50.29,-394.8 56.9,-392.47"/>
<text text-anchor="middle" x="79.7" y="-405.8" font-family="Times,serif" font-size="14.00">सम्बन्धः</text>
</g>
<!-- Node9_1 -->
<g id="node16" class="node">
<title>Node9_1</title>
<ellipse fill="#ff99ff" stroke="#ff99ff" cx="518.2" cy="-192" rx="37.89" ry="18"/>
<text text-anchor="middle" x="518.2" y="-188.3" font-family="Times,serif" font-size="14.00">च(9.1)</text>
</g>
<!-- Node9_1&#45;&gt;Node8_1 -->
<g id="edge13" class="edge">
<title>Node9_1&#45;&gt;Node8_1</title>
<path fill="none" stroke="black" d="M518.2,-220.27C518.2,-233.58 518.2,-249.19 518.2,-260.82"/>
<polygon fill="black" stroke="black" points="521.7,-220.2 518.2,-210.2 514.7,-220.2 521.7,-220.2"/>
<text text-anchor="middle" x="556.2" y="-231.8" font-family="Times,serif" font-size="14.00">समुच्चय_द्योतकः</text>
</g>
<!-- Node10_1 -->
<g id="node17" class="node">
<title>Node10_1</title>
<ellipse fill="#ff99ff" stroke="#ff99ff" cx="518.2" cy="-105" rx="47.39" ry="18"/>
<text text-anchor="middle" x="518.2" y="-101.3" font-family="Times,serif" font-size="14.00">एव(10.1)</text>
</g>
<!-- Node10_1&#45;&gt;Node9_1 -->
<g id="edge14" class="edge">
<title>Node10_1&#45;&gt;Node9_1</title>
<path fill="none" stroke="black" d="M518.2,-133.27C518.2,-146.58 518.2,-162.19 518.2,-173.82"/>
<polygon fill="black" stroke="black" points="521.7,-133.2 518.2,-123.2 514.7,-133.2 521.7,-133.2"/>
<text text-anchor="middle" x="536.7" y="-144.8" font-family="Times,serif" font-size="14.00">सम्बन्धः</text>
</g>
<!-- Node11_1 -->
<g id="node18" class="node">
<title>Node11_1</title>
<ellipse fill="#ffff00" stroke="#ffff00" cx="634.2" cy="-192" rx="55.79" ry="18"/>
<text text-anchor="middle" x="634.2" y="-188.3" font-family="Times,serif" font-size="14.00">दासी&#45;(11.1)</text>
</g>
<!-- Node11_1&#45;&gt;Node11_2 -->
<g id="edge15" class="edge">
<title>Node11_1&#45;&gt;Node11_2</title>
<path fill="none" stroke="black" d="M634.2,-220.27C634.2,-233.58 634.2,-249.19 634.2,-260.82"/>
<polygon fill="black" stroke="black" points="637.7,-220.2 634.2,-210.2 630.7,-220.2 637.7,-220.2"/>
<text text-anchor="middle" x="651.2" y="-231.8" font-family="Times,serif" font-size="14.00">समासः</text>
</g>
<!-- Node0 -->
<g id="node19" class="node">
<title>Node0</title>
<ellipse fill="lightgrey" stroke="black" cx="145.2" cy="-18" rx="27" ry="18"/>
</g>
</g>
</svg>
