<?xml version="1.0" encoding="UTF-8" standalone="no"?>
<!DOCTYPE svg PUBLIC "-//W3C//DTD SVG 1.1//EN"
 "http://www.w3.org/Graphics/SVG/1.1/DTD/svg11.dtd">
<!-- Generated by graphviz version 2.43.0 (0)
 -->
<!-- Title: G Pages: 1 -->
<svg width="949pt" height="321pt"
 viewBox="0.00 0.00 949.05 321.00" xmlns="http://www.w3.org/2000/svg" xmlns:xlink="http://www.w3.org/1999/xlink">
<g id="graph0" class="graph" transform="scale(1 1) rotate(0) translate(4 317)">
<title>G</title>
<polygon fill="#fffacd" stroke="transparent" points="-4,4 -4,-317 945.05,-317 945.05,4 -4,4"/>
<g id="clust1" class="cluster">
<title>cluster_1</title>
<polygon fill="#fffacd" stroke="black" points="8,-8 8,-147 156,-147 156,-8 8,-8"/>
</g>
<!-- Node10_1 -->
<g id="node1" class="node">
<title>Node10_1</title>
<ellipse fill="#87ceeb" stroke="#87ceeb" cx="82" cy="-34" rx="61.99" ry="18"/>
<text text-anchor="middle" x="82" y="-30.3" font-family="Times,serif" font-size="14.00">राज्यस्य(10.1)</text>
</g>
<!-- Node11_1 -->
<g id="node2" class="node">
<title>Node11_1</title>
<ellipse fill="#87ceeb" stroke="#87ceeb" cx="82" cy="-121" rx="66.09" ry="18"/>
<text text-anchor="middle" x="82" y="-117.3" font-family="Times,serif" font-size="14.00">प्राणानाम्(11.1)</text>
</g>
<!-- Node10_1&#45;&gt;Node11_1 -->
<g id="edge9" class="edge">
<title>Node10_1&#45;&gt;Node11_1</title>
<path fill="none" stroke="black" d="M82,-62.27C82,-75.58 82,-91.19 82,-102.82"/>
<polygon fill="black" stroke="black" points="85.5,-62.2 82,-52.2 78.5,-62.2 85.5,-62.2"/>
<text text-anchor="middle" x="104.5" y="-73.8" font-family="Times,serif" font-size="14.00">समुच्चितः</text>
</g>
<!-- Node8_1 -->
<g id="node11" class="node">
<title>Node8_1</title>
<ellipse fill="#00bfff" stroke="#00bfff" cx="82" cy="-208" rx="48.99" ry="18"/>
<text text-anchor="middle" x="82" y="-204.3" font-family="Times,serif" font-size="14.00">ईश्वरः(8.1)</text>
</g>
<!-- Node11_1&#45;&gt;Node8_1 -->
<g id="edge10" class="edge">
<title>Node11_1&#45;&gt;Node8_1</title>
<path fill="none" stroke="black" d="M82,-149.27C82,-162.58 82,-178.19 82,-189.82"/>
<polygon fill="black" stroke="black" points="85.5,-149.2 82,-139.2 78.5,-149.2 85.5,-149.2"/>
<text text-anchor="middle" x="109.5" y="-160.8" font-family="Times,serif" font-size="14.00">षष्ठीसम्बन्धः</text>
</g>
<!-- Node1_1 -->
<g id="node3" class="node">
<title>Node1_1</title>
<ellipse fill="#ff1975" stroke="#ff1975" cx="771" cy="-121" rx="53.09" ry="18"/>
<text text-anchor="middle" x="771" y="-117.3" font-family="Times,serif" font-size="14.00">प्रददातु(1.1)</text>
</g>
<!-- Node2_1 -->
<g id="node4" class="node">
<title>Node2_1</title>
<ellipse fill="#00bfff" stroke="#00bfff" cx="651" cy="-34" rx="50.09" ry="18"/>
<text text-anchor="middle" x="651" y="-30.3" font-family="Times,serif" font-size="14.00">भवान्(2.1)</text>
</g>
<!-- Node2_1&#45;&gt;Node1_1 -->
<g id="edge1" class="edge">
<title>Node2_1&#45;&gt;Node1_1</title>
<path fill="none" stroke="black" d="M681.04,-56.28C702.17,-71.24 729.95,-90.93 749.03,-104.43"/>
<polygon fill="black" stroke="black" points="682.91,-53.32 672.73,-50.39 678.87,-59.03 682.91,-53.32"/>
<text text-anchor="middle" x="729" y="-73.8" font-family="Times,serif" font-size="14.00">कर्ता</text>
</g>
<!-- Node5_1 -->
<g id="node5" class="node">
<title>Node5_1</title>
<ellipse fill="#ff1975" stroke="#ff1975" cx="586" cy="-121" rx="53.89" ry="18"/>
<text text-anchor="middle" x="586" y="-117.3" font-family="Times,serif" font-size="14.00">इच्छसि(5.1)</text>
</g>
<!-- Node2_1&#45;&gt;Node5_1 -->
<g id="edge2" class="edge">
<title>Node2_1&#45;&gt;Node5_1</title>
<path fill="none" stroke="black" stroke-dasharray="1,5" d="M634.49,-60.63C629.12,-68.59 622.99,-77.29 617,-85 612.12,-91.28 606.43,-97.88 601.27,-103.64"/>
<polygon fill="black" stroke="black" points="637.57,-62.31 640.19,-52.05 631.74,-58.44 637.57,-62.31"/>
<text text-anchor="middle" x="638" y="-73.8" font-family="Times,serif" font-size="14.00">कर्ता</text>
</g>
<!-- Node3_1 -->
<g id="node6" class="node">
<title>Node3_1</title>
<ellipse fill="#93db70" stroke="#93db70" cx="891" cy="-34" rx="50.09" ry="18"/>
<text text-anchor="middle" x="891" y="-30.3" font-family="Times,serif" font-size="14.00">वित्तम्(3.1)</text>
</g>
<!-- Node3_1&#45;&gt;Node1_1 -->
<g id="edge3" class="edge">
<title>Node3_1&#45;&gt;Node1_1</title>
<path fill="none" stroke="black" d="M860.96,-56.28C839.83,-71.24 812.05,-90.93 792.97,-104.43"/>
<polygon fill="black" stroke="black" points="863.13,-59.03 869.27,-50.39 859.09,-53.32 863.13,-59.03"/>
<text text-anchor="middle" x="847" y="-73.8" font-family="Times,serif" font-size="14.00">कर्म</text>
</g>
<!-- Node4_1 -->
<g id="node7" class="node">
<title>Node4_1</title>
<ellipse fill="#ff99ff" stroke="#ff99ff" cx="534" cy="-34" rx="48.99" ry="18"/>
<text text-anchor="middle" x="534" y="-30.3" font-family="Times,serif" font-size="14.00">यावत्(4.1)</text>
</g>
<!-- Node4_1&#45;&gt;Node5_1 -->
<g id="edge4" class="edge">
<title>Node4_1&#45;&gt;Node5_1</title>
<path fill="none" stroke="black" d="M537.99,-62.01C539.92,-69.81 542.78,-78.08 547,-85 551.45,-92.3 557.89,-98.96 564.26,-104.47"/>
<polygon fill="black" stroke="black" points="541.41,-61.25 535.94,-52.18 534.55,-62.68 541.41,-61.25"/>
<text text-anchor="middle" x="582" y="-73.8" font-family="Times,serif" font-size="14.00">क्रियाविशेषणम्</text>
</g>
<!-- Node6_1 -->
<g id="node8" class="node">
<title>Node6_1</title>
<ellipse fill="#6fffc3" stroke="#6fffc3" cx="771" cy="-34" rx="51.99" ry="18"/>
<text text-anchor="middle" x="771" y="-30.3" font-family="Times,serif" font-size="14.00">पार्थिव(6.1)</text>
</g>
<!-- Node6_1&#45;&gt;Node1_1 -->
<g id="edge5" class="edge">
<title>Node6_1&#45;&gt;Node1_1</title>
<path fill="none" stroke="black" d="M771,-62.27C771,-75.58 771,-91.19 771,-102.82"/>
<polygon fill="black" stroke="black" points="774.5,-62.2 771,-52.2 767.5,-62.2 774.5,-62.2"/>
<text text-anchor="middle" x="792" y="-73.8" font-family="Times,serif" font-size="14.00">सम्बोध्यः</text>
</g>
<!-- Node7_1 -->
<g id="node9" class="node">
<title>Node7_1</title>
<ellipse fill="#00bfff" stroke="#00bfff" cx="199" cy="-208" rx="44.39" ry="18"/>
<text text-anchor="middle" x="199" y="-204.3" font-family="Times,serif" font-size="14.00">त्वम्(7.1)</text>
</g>
<!-- Node15_1 -->
<g id="node10" class="node">
<title>Node15_1</title>
<ellipse fill="#ff1975" stroke="#ff1975" cx="199" cy="-295" rx="59.59" ry="18"/>
<text text-anchor="middle" x="199" y="-291.3" font-family="Times,serif" font-size="14.00">(असि)(15.1)</text>
</g>
<!-- Node7_1&#45;&gt;Node15_1 -->
<g id="edge6" class="edge">
<title>Node7_1&#45;&gt;Node15_1</title>
<path fill="none" stroke="black" d="M199,-236.27C199,-249.58 199,-265.19 199,-276.82"/>
<polygon fill="black" stroke="black" points="202.5,-236.2 199,-226.2 195.5,-236.2 202.5,-236.2"/>
<text text-anchor="middle" x="210" y="-247.8" font-family="Times,serif" font-size="14.00">कर्ता</text>
</g>
<!-- Node8_1&#45;&gt;Node15_1 -->
<g id="edge7" class="edge">
<title>Node8_1&#45;&gt;Node15_1</title>
<path fill="none" stroke="black" d="M87.59,-236.06C90.44,-244.3 94.68,-252.81 101,-259 114.03,-271.77 132.03,-279.91 149.06,-285.09"/>
<polygon fill="black" stroke="black" points="90.91,-234.95 84.78,-226.31 84.19,-236.89 90.91,-234.95"/>
<text text-anchor="middle" x="148" y="-247.8" font-family="Times,serif" font-size="14.00">कर्तृसमानाधिकरणम्</text>
</g>
<!-- Node9_1 -->
<g id="node12" class="node">
<title>Node9_1</title>
<ellipse fill="#87ceeb" stroke="#87ceeb" cx="204" cy="-34" rx="39.79" ry="18"/>
<text text-anchor="middle" x="204" y="-30.3" font-family="Times,serif" font-size="14.00">नः(9.1)</text>
</g>
<!-- Node9_1&#45;&gt;Node11_1 -->
<g id="edge8" class="edge">
<title>Node9_1&#45;&gt;Node11_1</title>
<path fill="none" stroke="black" d="M174.9,-55.28C153.45,-70.22 124.69,-90.26 104.88,-104.06"/>
<polygon fill="black" stroke="black" points="177.1,-58.01 183.3,-49.42 173.1,-52.26 177.1,-58.01"/>
<text text-anchor="middle" x="178.5" y="-73.8" font-family="Times,serif" font-size="14.00">षष्ठीसम्बन्धः</text>
</g>
<!-- Node12_1 -->
<g id="node13" class="node">
<title>Node12_1</title>
<ellipse fill="#ff99ff" stroke="#ff99ff" cx="305" cy="-34" rx="43.59" ry="18"/>
<text text-anchor="middle" x="305" y="-30.3" font-family="Times,serif" font-size="14.00">च(12.1)</text>
</g>
<!-- Node12_1&#45;&gt;Node11_1 -->
<g id="edge11" class="edge">
<title>Node12_1&#45;&gt;Node11_1</title>
<path fill="none" stroke="black" d="M272.56,-54.33C254.58,-64.46 231.56,-76.5 210,-85 184.82,-94.93 155.79,-103.12 131.75,-109.07"/>
<polygon fill="black" stroke="black" points="274.53,-57.23 281.47,-49.23 271.06,-51.16 274.53,-57.23"/>
<text text-anchor="middle" x="281" y="-73.8" font-family="Times,serif" font-size="14.00">समुच्चय_द्योतकः</text>
</g>
<!-- Node13_1 -->
<g id="node14" class="node">
<title>Node13_1</title>
<ellipse fill="#ff99ff" stroke="#ff99ff" cx="417" cy="-34" rx="50.09" ry="18"/>
<text text-anchor="middle" x="417" y="-30.3" font-family="Times,serif" font-size="14.00">इति(13.1)</text>
</g>
<!-- Node13_1&#45;&gt;Node11_1 -->
<g id="edge12" class="edge">
<title>Node13_1&#45;&gt;Node11_1</title>
<path fill="none" stroke="black" d="M385.31,-55.4C367.64,-65.85 344.84,-77.85 323,-85 265.04,-103.98 195.88,-112.69 146.54,-116.67"/>
<polygon fill="black" stroke="black" points="387.31,-58.28 394.05,-50.11 383.69,-52.29 387.31,-58.28"/>
<text text-anchor="middle" x="376.5" y="-73.8" font-family="Times,serif" font-size="14.00">सम्बन्धः</text>
</g>
<!-- Node14_1 -->
<g id="node15" class="node">
<title>Node14_1</title>
<ellipse fill="#6fffc3" stroke="#6fffc3" cx="316" cy="-208" rx="54.69" ry="18"/>
<text text-anchor="middle" x="316" y="-204.3" font-family="Times,serif" font-size="14.00">भारत(14.1)</text>
</g>
<!-- Node14_1&#45;&gt;Node15_1 -->
<g id="edge13" class="edge">
<title>Node14_1&#45;&gt;Node15_1</title>
<path fill="none" stroke="black" d="M286.21,-230.64C265.79,-245.48 239.15,-264.83 220.72,-278.22"/>
<polygon fill="black" stroke="black" points="288.51,-233.3 294.54,-224.59 284.39,-227.64 288.51,-233.3"/>
<text text-anchor="middle" x="286" y="-247.8" font-family="Times,serif" font-size="14.00">सम्बोध्यः</text>
</g>
</g>
</svg>
