<?xml version="1.0" encoding="UTF-8" standalone="no"?>
<!DOCTYPE svg PUBLIC "-//W3C//DTD SVG 1.1//EN"
 "http://www.w3.org/Graphics/SVG/1.1/DTD/svg11.dtd">
<!-- Generated by graphviz version 2.43.0 (0)
 -->
<!-- Title: G Pages: 1 -->
<svg width="940pt" height="408pt"
 viewBox="0.00 0.00 939.70 408.00" xmlns="http://www.w3.org/2000/svg" xmlns:xlink="http://www.w3.org/1999/xlink">
<g id="graph0" class="graph" transform="scale(1 1) rotate(0) translate(4 404)">
<title>G</title>
<polygon fill="#fffacd" stroke="transparent" points="-4,4 -4,-404 935.7,-404 935.7,4 -4,4"/>
<g id="clust1" class="cluster">
<title>cluster_1</title>
<polygon fill="#fffacd" stroke="black" points="8,-8 8,-147 126,-147 126,-8 8,-8"/>
</g>
<!-- Node12_1 -->
<g id="node1" class="node">
<title>Node12_1</title>
<ellipse fill="#93db70" stroke="#93db70" cx="67" cy="-34" rx="48.19" ry="18"/>
<text text-anchor="middle" x="67" y="-30.3" font-family="Times,serif" font-size="14.00">तत्(12.1)</text>
</g>
<!-- Node13_1 -->
<g id="node2" class="node">
<title>Node13_1</title>
<ellipse fill="#93db70" stroke="#93db70" cx="67" cy="-121" rx="50.89" ry="18"/>
<text text-anchor="middle" x="67" y="-117.3" font-family="Times,serif" font-size="14.00">वैरम्(13.1)</text>
</g>
<!-- Node12_1&#45;&gt;Node13_1 -->
<g id="edge12" class="edge">
<title>Node12_1&#45;&gt;Node13_1</title>
<path fill="none" stroke="black" d="M67,-62.27C67,-75.58 67,-91.19 67,-102.82"/>
<polygon fill="black" stroke="black" points="70.5,-62.2 67,-52.2 63.5,-62.2 70.5,-62.2"/>
<text text-anchor="middle" x="89.5" y="-73.8" font-family="Times,serif" font-size="14.00">विशेषणम्</text>
</g>
<!-- Node10_1 -->
<g id="node14" class="node">
<title>Node10_1</title>
<ellipse fill="#ff99ff" stroke="#ff99ff" cx="67" cy="-208" rx="61.19" ry="18"/>
<text text-anchor="middle" x="67" y="-204.3" font-family="Times,serif" font-size="14.00">संस्मृत्य(10.1)</text>
</g>
<!-- Node13_1&#45;&gt;Node10_1 -->
<g id="edge13" class="edge">
<title>Node13_1&#45;&gt;Node10_1</title>
<path fill="none" stroke="black" d="M67,-149.27C67,-162.58 67,-178.19 67,-189.82"/>
<polygon fill="black" stroke="black" points="70.5,-149.2 67,-139.2 63.5,-149.2 70.5,-149.2"/>
<text text-anchor="middle" x="76" y="-160.8" font-family="Times,serif" font-size="14.00">कर्म</text>
</g>
<!-- Node1_1 -->
<g id="node3" class="node">
<title>Node1_1</title>
<ellipse fill="#ff99ff" stroke="#ff99ff" cx="894" cy="-208" rx="37.09" ry="18"/>
<text text-anchor="middle" x="894" y="-204.3" font-family="Times,serif" font-size="14.00">न(1.1)</text>
</g>
<!-- Node17_1 -->
<g id="node4" class="node">
<title>Node17_1</title>
<ellipse fill="#ff1975" stroke="#ff1975" cx="765" cy="-295" rx="62.29" ry="18"/>
<text text-anchor="middle" x="765" y="-291.3" font-family="Times,serif" font-size="14.00">(अस्ति)(17.1)</text>
</g>
<!-- Node1_1&#45;&gt;Node17_1 -->
<g id="edge1" class="edge">
<title>Node1_1&#45;&gt;Node17_1</title>
<path fill="none" stroke="black" d="M883.82,-235.27C879.43,-243.8 873.54,-252.69 866,-259 851.63,-271.03 832.87,-279.02 815.44,-284.28"/>
<polygon fill="black" stroke="black" points="887.12,-236.48 888.15,-225.93 880.77,-233.53 887.12,-236.48"/>
<text text-anchor="middle" x="897.5" y="-247.8" font-family="Times,serif" font-size="14.00">प्रतिषेधः</text>
</g>
<!-- Node8_1 -->
<g id="node11" class="node">
<title>Node8_1</title>
<ellipse fill="#6fffc3" stroke="#6fffc3" cx="596" cy="-382" rx="44.39" ry="18"/>
<text text-anchor="middle" x="596" y="-378.3" font-family="Times,serif" font-size="14.00">प्राह(8.1)</text>
</g>
<!-- Node17_1&#45;&gt;Node8_1 -->
<g id="edge17" class="edge">
<title>Node17_1&#45;&gt;Node8_1</title>
<path fill="none" stroke="black" d="M726.18,-315.52C694.51,-331.45 650.6,-353.54 622.74,-367.55"/>
<polygon fill="black" stroke="black" points="727.81,-318.62 735.18,-311 724.67,-312.37 727.81,-318.62"/>
<text text-anchor="middle" x="711.5" y="-334.8" font-family="Times,serif" font-size="14.00">वाक्यकर्म</text>
</g>
<!-- Node2_1 -->
<g id="node5" class="node">
<title>Node2_1</title>
<ellipse fill="#ff99ff" stroke="#ff99ff" cx="894" cy="-121" rx="37.89" ry="18"/>
<text text-anchor="middle" x="894" y="-117.3" font-family="Times,serif" font-size="14.00">च(2.1)</text>
</g>
<!-- Node2_1&#45;&gt;Node1_1 -->
<g id="edge2" class="edge">
<title>Node2_1&#45;&gt;Node1_1</title>
<path fill="none" stroke="black" d="M894,-149.27C894,-162.58 894,-178.19 894,-189.82"/>
<polygon fill="black" stroke="black" points="897.5,-149.2 894,-139.2 890.5,-149.2 897.5,-149.2"/>
<text text-anchor="middle" x="912.5" y="-160.8" font-family="Times,serif" font-size="14.00">सम्बन्धः</text>
</g>
<!-- Node3_1 -->
<g id="node6" class="node">
<title>Node3_1</title>
<ellipse fill="#00bfff" stroke="#00bfff" cx="683" cy="-208" rx="46.59" ry="18"/>
<text text-anchor="middle" x="683" y="-204.3" font-family="Times,serif" font-size="14.00">मन्युः(3.1)</text>
</g>
<!-- Node3_1&#45;&gt;Node17_1 -->
<g id="edge3" class="edge">
<title>Node3_1&#45;&gt;Node17_1</title>
<path fill="none" stroke="black" d="M706.02,-232.86C719.71,-247.05 736.72,-264.69 748.96,-277.37"/>
<polygon fill="black" stroke="black" points="708.27,-230.16 698.81,-225.39 703.23,-235.02 708.27,-230.16"/>
<text text-anchor="middle" x="739" y="-247.8" font-family="Times,serif" font-size="14.00">कर्ता</text>
</g>
<!-- Node4_1 -->
<g id="node7" class="node">
<title>Node4_1</title>
<ellipse fill="#40e0d0" stroke="#40e0d0" cx="683" cy="-34" rx="46.59" ry="18"/>
<text text-anchor="middle" x="683" y="-30.3" font-family="Times,serif" font-size="14.00">त्वया(4.1)</text>
</g>
<!-- Node5_1 -->
<g id="node8" class="node">
<title>Node5_1</title>
<ellipse fill="#00bfff" stroke="#00bfff" cx="683" cy="-121" rx="48.19" ry="18"/>
<text text-anchor="middle" x="683" y="-117.3" font-family="Times,serif" font-size="14.00">कार्यः(5.1)</text>
</g>
<!-- Node4_1&#45;&gt;Node5_1 -->
<g id="edge4" class="edge">
<title>Node4_1&#45;&gt;Node5_1</title>
<path fill="none" stroke="black" d="M683,-62.27C683,-75.58 683,-91.19 683,-102.82"/>
<polygon fill="black" stroke="black" points="686.5,-62.2 683,-52.2 679.5,-62.2 686.5,-62.2"/>
<text text-anchor="middle" x="694" y="-73.8" font-family="Times,serif" font-size="14.00">कर्ता</text>
</g>
<!-- Node5_1&#45;&gt;Node3_1 -->
<g id="edge5" class="edge">
<title>Node5_1&#45;&gt;Node3_1</title>
<path fill="none" stroke="black" d="M683,-149.27C683,-162.58 683,-178.19 683,-189.82"/>
<polygon fill="black" stroke="black" points="686.5,-149.2 683,-139.2 679.5,-149.2 686.5,-149.2"/>
<text text-anchor="middle" x="722" y="-160.8" font-family="Times,serif" font-size="14.00">विधेय_विशेषणम्</text>
</g>
<!-- Node6_1 -->
<g id="node9" class="node">
<title>Node6_1</title>
<ellipse fill="#ff99ff" stroke="#ff99ff" cx="792" cy="-208" rx="44.39" ry="18"/>
<text text-anchor="middle" x="792" y="-204.3" font-family="Times,serif" font-size="14.00">इति(6.1)</text>
</g>
<!-- Node6_1&#45;&gt;Node17_1 -->
<g id="edge6" class="edge">
<title>Node6_1&#45;&gt;Node17_1</title>
<path fill="none" stroke="black" d="M783.46,-235.87C779.21,-249.27 774.19,-265.08 770.46,-276.82"/>
<polygon fill="black" stroke="black" points="786.84,-236.79 786.54,-226.2 780.17,-234.67 786.84,-236.79"/>
<text text-anchor="middle" x="821" y="-247.8" font-family="Times,serif" font-size="14.00">वाक्यकर्म_द्योतकः</text>
</g>
<!-- Node7_1 -->
<g id="node10" class="node">
<title>Node7_1</title>
<ellipse fill="#93db70" stroke="#93db70" cx="489" cy="-295" rx="46.59" ry="18"/>
<text text-anchor="middle" x="489" y="-291.3" font-family="Times,serif" font-size="14.00">त्वाम्(7.1)</text>
</g>
<!-- Node7_1&#45;&gt;Node8_1 -->
<g id="edge7" class="edge">
<title>Node7_1&#45;&gt;Node8_1</title>
<path fill="none" stroke="black" d="M516.55,-317.88C535.32,-332.8 559.72,-352.18 576.5,-365.51"/>
<polygon fill="black" stroke="black" points="518.63,-315.07 508.63,-311.59 514.28,-320.55 518.63,-315.07"/>
<text text-anchor="middle" x="567.5" y="-334.8" font-family="Times,serif" font-size="14.00">गौणकर्म</text>
</g>
<!-- Node9_2 -->
<g id="node12" class="node">
<title>Node9_2</title>
<ellipse fill="#00bfff" stroke="#00bfff" cx="596" cy="-295" rx="42.49" ry="18"/>
<text text-anchor="middle" x="596" y="-291.3" font-family="Times,serif" font-size="14.00">राट्(9.2)</text>
</g>
<!-- Node9_2&#45;&gt;Node8_1 -->
<g id="edge9" class="edge">
<title>Node9_2&#45;&gt;Node8_1</title>
<path fill="none" stroke="black" d="M596,-323.27C596,-336.58 596,-352.19 596,-363.82"/>
<polygon fill="black" stroke="black" points="599.5,-323.2 596,-313.2 592.5,-323.2 599.5,-323.2"/>
<text text-anchor="middle" x="607" y="-334.8" font-family="Times,serif" font-size="14.00">कर्ता</text>
</g>
<!-- Node9_1 -->
<g id="node13" class="node">
<title>Node9_1</title>
<ellipse fill="#ffff00" stroke="#ffff00" cx="573" cy="-208" rx="45.49" ry="18"/>
<text text-anchor="middle" x="573" y="-204.3" font-family="Times,serif" font-size="14.00">धर्म&#45;(9.1)</text>
</g>
<!-- Node9_1&#45;&gt;Node9_2 -->
<g id="edge8" class="edge">
<title>Node9_1&#45;&gt;Node9_2</title>
<path fill="none" stroke="black" d="M580.27,-235.87C583.9,-249.27 588.17,-265.08 591.35,-276.82"/>
<polygon fill="black" stroke="black" points="583.64,-234.94 577.65,-226.2 576.89,-236.77 583.64,-234.94"/>
<text text-anchor="middle" x="602" y="-247.8" font-family="Times,serif" font-size="14.00">समासः</text>
</g>
<!-- Node16_1 -->
<g id="node15" class="node">
<title>Node16_1</title>
<ellipse fill="#ff1975" stroke="#ff1975" cx="260" cy="-295" rx="59.59" ry="18"/>
<text text-anchor="middle" x="260" y="-291.3" font-family="Times,serif" font-size="14.00">आचरेत्(16.1)</text>
</g>
<!-- Node10_1&#45;&gt;Node16_1 -->
<g id="edge10" class="edge">
<title>Node10_1&#45;&gt;Node16_1</title>
<path fill="none" stroke="black" d="M108.93,-227.47C144.62,-243.18 195.14,-265.44 227.74,-279.79"/>
<polygon fill="black" stroke="black" points="110.3,-224.25 99.74,-223.42 107.48,-230.65 110.3,-224.25"/>
<text text-anchor="middle" x="196.5" y="-247.8" font-family="Times,serif" font-size="14.00">पूर्वकालः</text>
</g>
<!-- Node11_1 -->
<g id="node16" class="node">
<title>Node11_1</title>
<ellipse fill="#00bfff" stroke="#00bfff" cx="200" cy="-208" rx="53.89" ry="18"/>
<text text-anchor="middle" x="200" y="-204.3" font-family="Times,serif" font-size="14.00">भीमः(11.1)</text>
</g>
<!-- Node11_1&#45;&gt;Node16_1 -->
<g id="edge11" class="edge">
<title>Node11_1&#45;&gt;Node16_1</title>
<path fill="none" stroke="black" d="M217.65,-234.01C227.49,-247.94 239.47,-264.91 248.17,-277.24"/>
<polygon fill="black" stroke="black" points="220.48,-231.94 211.85,-225.79 214.76,-235.98 220.48,-231.94"/>
<text text-anchor="middle" x="245" y="-247.8" font-family="Times,serif" font-size="14.00">कर्ता</text>
</g>
<!-- Node14_1 -->
<g id="node17" class="node">
<title>Node14_1</title>
<ellipse fill="#ff99ff" stroke="#ff99ff" cx="320" cy="-208" rx="48.19" ry="18"/>
<text text-anchor="middle" x="320" y="-204.3" font-family="Times,serif" font-size="14.00">यत्(14.1)</text>
</g>
<!-- Node14_1&#45;&gt;Node16_1 -->
<g id="edge14" class="edge">
<title>Node14_1&#45;&gt;Node16_1</title>
<path fill="none" stroke="black" d="M302.35,-234.01C292.51,-247.94 280.53,-264.91 271.83,-277.24"/>
<polygon fill="black" stroke="black" points="305.24,-235.98 308.15,-225.79 299.52,-231.94 305.24,-235.98"/>
<text text-anchor="middle" x="311.5" y="-247.8" font-family="Times,serif" font-size="14.00">सम्बन्धः</text>
</g>
<!-- Node15_1 -->
<g id="node18" class="node">
<title>Node15_1</title>
<ellipse fill="#ffff00" stroke="#ffff00" cx="448" cy="-121" rx="47.39" ry="18"/>
<text text-anchor="middle" x="448" y="-117.3" font-family="Times,serif" font-size="14.00">अ&#45;(15.1)</text>
</g>
<!-- Node15_2 -->
<g id="node19" class="node">
<title>Node15_2</title>
<ellipse fill="#ff99ff" stroke="#ff99ff" cx="448" cy="-208" rx="61.99" ry="18"/>
<text text-anchor="middle" x="448" y="-204.3" font-family="Times,serif" font-size="14.00">न्यायवत्(15.2)</text>
</g>
<!-- Node15_1&#45;&gt;Node15_2 -->
<g id="edge15" class="edge">
<title>Node15_1&#45;&gt;Node15_2</title>
<path fill="none" stroke="black" d="M448,-149.27C448,-162.58 448,-178.19 448,-189.82"/>
<polygon fill="black" stroke="black" points="451.5,-149.2 448,-139.2 444.5,-149.2 451.5,-149.2"/>
<text text-anchor="middle" x="465" y="-160.8" font-family="Times,serif" font-size="14.00">समासः</text>
</g>
<!-- Node15_2&#45;&gt;Node16_1 -->
<g id="edge16" class="edge">
<title>Node15_2&#45;&gt;Node16_1</title>
<path fill="none" stroke="black" d="M406.74,-227.65C372.12,-243.31 323.37,-265.35 291.73,-279.65"/>
<polygon fill="black" stroke="black" points="408.44,-230.73 416.11,-223.42 405.55,-224.35 408.44,-230.73"/>
<text text-anchor="middle" x="400" y="-247.8" font-family="Times,serif" font-size="14.00">क्रियाविशेषणम्</text>
</g>
</g>
</svg>
