<?xml version="1.0" encoding="UTF-8" standalone="no"?>
<!DOCTYPE svg PUBLIC "-//W3C//DTD SVG 1.1//EN"
 "http://www.w3.org/Graphics/SVG/1.1/DTD/svg11.dtd">
<!-- Generated by graphviz version 2.43.0 (0)
 -->
<!-- Title: G Pages: 1 -->
<svg width="1008pt" height="305pt"
 viewBox="0.00 0.00 1007.99 305.00" xmlns="http://www.w3.org/2000/svg" xmlns:xlink="http://www.w3.org/1999/xlink">
<g id="graph0" class="graph" transform="scale(1 1) rotate(0) translate(4 301)">
<title>G</title>
<polygon fill="#fffacd" stroke="transparent" points="-4,4 -4,-301 1003.99,-301 1003.99,4 -4,4"/>
<g id="clust1" class="cluster">
<title>cluster_1</title>
<polygon fill="#fffacd" stroke="black" points="8,-79 8,-218 229,-218 229,-79 8,-79"/>
</g>
<!-- Node4_1 -->
<g id="node1" class="node">
<title>Node4_1</title>
<ellipse fill="#00bfff" stroke="#00bfff" cx="175" cy="-105" rx="46.29" ry="18"/>
<text text-anchor="middle" x="175" y="-101.3" font-family="Times,serif" font-size="14.00">राजा(4.1)</text>
</g>
<!-- Node8_1 -->
<g id="node2" class="node">
<title>Node8_1</title>
<ellipse fill="#00bfff" stroke="#00bfff" cx="161" cy="-192" rx="60.39" ry="18"/>
<text text-anchor="middle" x="161" y="-188.3" font-family="Times,serif" font-size="14.00">धनञ्जयः(8.1)</text>
</g>
<!-- Node4_1&#45;&gt;Node8_1 -->
<g id="edge3" class="edge">
<title>Node4_1&#45;&gt;Node8_1</title>
<path fill="none" stroke="black" d="M170.51,-133.27C168.32,-146.58 165.74,-162.19 163.83,-173.82"/>
<polygon fill="black" stroke="black" points="174,-133.64 172.17,-123.2 167.09,-132.5 174,-133.64"/>
<text text-anchor="middle" x="191.5" y="-144.8" font-family="Times,serif" font-size="14.00">समुच्चितः</text>
</g>
<!-- Node3_1 -->
<g id="node5" class="node">
<title>Node3_1</title>
<ellipse fill="#ff1975" stroke="#ff1975" cx="284" cy="-279" rx="54.69" ry="18"/>
<text text-anchor="middle" x="284" y="-275.3" font-family="Times,serif" font-size="14.00">अब्रवीत्(3.1)</text>
</g>
<!-- Node8_1&#45;&gt;Node3_1 -->
<g id="edge7" class="edge">
<title>Node8_1&#45;&gt;Node3_1</title>
<path fill="none" stroke="black" d="M192.33,-214.65C213.84,-229.51 241.89,-248.9 261.28,-262.3"/>
<polygon fill="black" stroke="black" points="194.06,-211.59 183.85,-208.79 190.08,-217.35 194.06,-211.59"/>
<text text-anchor="middle" x="241" y="-231.8" font-family="Times,serif" font-size="14.00">कर्ता</text>
</g>
<!-- Node5_1 -->
<g id="node3" class="node">
<title>Node5_1</title>
<ellipse fill="#00bfff" stroke="#00bfff" cx="63" cy="-105" rx="47.39" ry="18"/>
<text text-anchor="middle" x="63" y="-101.3" font-family="Times,serif" font-size="14.00">पार्थः(5.1)</text>
</g>
<!-- Node5_1&#45;&gt;Node8_1 -->
<g id="edge4" class="edge">
<title>Node5_1&#45;&gt;Node8_1</title>
<path fill="none" stroke="black" d="M88.17,-128.8C97.76,-137.4 108.82,-147.22 119,-156 126.19,-162.2 134.17,-168.9 141.23,-174.76"/>
<polygon fill="black" stroke="black" points="90.29,-126 80.52,-121.92 85.61,-131.21 90.29,-126"/>
<text text-anchor="middle" x="141.5" y="-144.8" font-family="Times,serif" font-size="14.00">विशेषणम्</text>
</g>
<!-- Node1_1 -->
<g id="node4" class="node">
<title>Node1_1</title>
<ellipse fill="#ff99ff" stroke="#ff99ff" cx="284" cy="-192" rx="44.39" ry="18"/>
<text text-anchor="middle" x="284" y="-188.3" font-family="Times,serif" font-size="14.00">इति(1.1)</text>
</g>
<!-- Node1_1&#45;&gt;Node3_1 -->
<g id="edge1" class="edge">
<title>Node1_1&#45;&gt;Node3_1</title>
<path fill="none" stroke="black" d="M284,-220.27C284,-233.58 284,-249.19 284,-260.82"/>
<polygon fill="black" stroke="black" points="287.5,-220.2 284,-210.2 280.5,-220.2 287.5,-220.2"/>
<text text-anchor="middle" x="302.5" y="-231.8" font-family="Times,serif" font-size="14.00">सम्बन्धः</text>
</g>
<!-- Node2_1 -->
<g id="node6" class="node">
<title>Node2_1</title>
<ellipse fill="#93db70" stroke="#93db70" cx="390" cy="-192" rx="44.39" ry="18"/>
<text text-anchor="middle" x="390" y="-188.3" font-family="Times,serif" font-size="14.00">माम्(2.1)</text>
</g>
<!-- Node2_1&#45;&gt;Node3_1 -->
<g id="edge2" class="edge">
<title>Node2_1&#45;&gt;Node3_1</title>
<path fill="none" stroke="black" d="M362.57,-215C344.26,-229.68 320.59,-248.66 304.04,-261.93"/>
<polygon fill="black" stroke="black" points="364.95,-217.58 370.56,-208.59 360.57,-212.12 364.95,-217.58"/>
<text text-anchor="middle" x="362.5" y="-231.8" font-family="Times,serif" font-size="14.00">गौणकर्म</text>
</g>
<!-- Node6_1 -->
<g id="node7" class="node">
<title>Node6_1</title>
<ellipse fill="#ff99ff" stroke="#ff99ff" cx="277" cy="-105" rx="37.89" ry="18"/>
<text text-anchor="middle" x="277" y="-101.3" font-family="Times,serif" font-size="14.00">च(6.1)</text>
</g>
<!-- Node6_1&#45;&gt;Node8_1 -->
<g id="edge5" class="edge">
<title>Node6_1&#45;&gt;Node8_1</title>
<path fill="none" stroke="black" d="M252.22,-128.45C241.92,-137.4 229.67,-147.55 218,-156 208.41,-162.95 197.41,-169.92 187.65,-175.78"/>
<polygon fill="black" stroke="black" points="254.82,-130.83 260.01,-121.6 250.19,-125.58 254.82,-130.83"/>
<text text-anchor="middle" x="275" y="-144.8" font-family="Times,serif" font-size="14.00">समुच्चय_द्योतकः</text>
</g>
<!-- Node7_1 -->
<g id="node8" class="node">
<title>Node7_1</title>
<ellipse fill="#ff99ff" stroke="#ff99ff" cx="277" cy="-18" rx="41.69" ry="18"/>
<text text-anchor="middle" x="277" y="-14.3" font-family="Times,serif" font-size="14.00">एव(7.1)</text>
</g>
<!-- Node7_1&#45;&gt;Node6_1 -->
<g id="edge6" class="edge">
<title>Node7_1&#45;&gt;Node6_1</title>
<path fill="none" stroke="black" d="M277,-46.27C277,-59.58 277,-75.19 277,-86.82"/>
<polygon fill="black" stroke="black" points="280.5,-46.2 277,-36.2 273.5,-46.2 280.5,-46.2"/>
<text text-anchor="middle" x="295.5" y="-57.8" font-family="Times,serif" font-size="14.00">सम्बन्धः</text>
</g>
<!-- Node9_1 -->
<g id="node9" class="node">
<title>Node9_1</title>
<ellipse fill="#00bfff" stroke="#00bfff" cx="379" cy="-18" rx="42.49" ry="18"/>
<text text-anchor="middle" x="379" y="-14.3" font-family="Times,serif" font-size="14.00">यत्(9.1)</text>
</g>
<!-- Node17_1 -->
<g id="node10" class="node">
<title>Node17_1</title>
<ellipse fill="#ff1975" stroke="#ff1975" cx="690" cy="-105" rx="62.29" ry="18"/>
<text text-anchor="middle" x="690" y="-101.3" font-family="Times,serif" font-size="14.00">(अस्ति)(17.1)</text>
</g>
<!-- Node9_1&#45;&gt;Node17_1 -->
<g id="edge8" class="edge">
<title>Node9_1&#45;&gt;Node17_1</title>
<path fill="none" stroke="black" d="M418,-34.65C447.69,-45.93 489.81,-60.6 528,-69 567.74,-77.74 579.33,-69.96 619,-79 630.98,-81.73 643.73,-85.82 655.08,-89.91"/>
<polygon fill="black" stroke="black" points="419.03,-31.3 408.44,-30.97 416.51,-37.83 419.03,-31.3"/>
<text text-anchor="middle" x="539" y="-57.8" font-family="Times,serif" font-size="14.00">कर्ता</text>
</g>
<!-- Node13_1 -->
<g id="node11" class="node">
<title>Node13_1</title>
<ellipse fill="#93db70" stroke="#93db70" cx="554" cy="-18" rx="48.19" ry="18"/>
<text text-anchor="middle" x="554" y="-14.3" font-family="Times,serif" font-size="14.00">तत्(13.1)</text>
</g>
<!-- Node9_1&#45;&gt;Node13_1 -->
<g id="edge9" class="edge">
<title>Node9_1&#45;&gt;Node13_1</title>
<path fill="none" stroke="red" stroke-dasharray="5,2" d="M431.54,-18C451.73,-18 474.89,-18 495.59,-18"/>
<polygon fill="red" stroke="red" points="431.36,-14.5 421.36,-18 431.36,-21.5 431.36,-14.5"/>
<polygon fill="red" stroke="red" points="495.85,-21.5 505.85,-18 495.85,-14.5 495.85,-21.5"/>
<text text-anchor="middle" x="463.58" y="-3.8" font-family="Times,serif" font-size="14.00">नित्य_सम्बन्धः</text>
</g>
<!-- Node14_1 -->
<g id="node15" class="node">
<title>Node14_1</title>
<ellipse fill="#00bfff" stroke="#00bfff" cx="554" cy="-105" rx="55.79" ry="18"/>
<text text-anchor="middle" x="554" y="-101.3" font-family="Times,serif" font-size="14.00">भवान्(14.1)</text>
</g>
<!-- Node13_1&#45;&gt;Node14_1 -->
<g id="edge13" class="edge">
<title>Node13_1&#45;&gt;Node14_1</title>
<path fill="none" stroke="black" d="M554,-46.27C554,-59.58 554,-75.19 554,-86.82"/>
<polygon fill="black" stroke="black" points="557.5,-46.2 554,-36.2 550.5,-46.2 557.5,-46.2"/>
<text text-anchor="middle" x="563" y="-57.8" font-family="Times,serif" font-size="14.00">कर्म</text>
</g>
<!-- Node10_1 -->
<g id="node12" class="node">
<title>Node10_1</title>
<ellipse fill="#ff99ff" stroke="#ff99ff" cx="802" cy="-18" rx="50.09" ry="18"/>
<text text-anchor="middle" x="802" y="-14.3" font-family="Times,serif" font-size="14.00">अत्र(10.1)</text>
</g>
<!-- Node10_1&#45;&gt;Node17_1 -->
<g id="edge10" class="edge">
<title>Node10_1&#45;&gt;Node17_1</title>
<path fill="none" stroke="black" d="M787.29,-44.64C781.47,-53.18 774.21,-62.24 766,-69 755.01,-78.05 741.3,-85.3 728.56,-90.81"/>
<polygon fill="black" stroke="black" points="790.35,-46.34 792.8,-36.03 784.46,-42.56 790.35,-46.34"/>
<text text-anchor="middle" x="812" y="-57.8" font-family="Times,serif" font-size="14.00">देशाधिकरणम्</text>
</g>
<!-- Node11_1 -->
<g id="node13" class="node">
<title>Node11_1</title>
<ellipse fill="#ff99ff" stroke="#ff99ff" cx="935" cy="-18" rx="64.99" ry="18"/>
<text text-anchor="middle" x="935" y="-14.3" font-family="Times,serif" font-size="14.00">अनन्तरम्(11.1)</text>
</g>
<!-- Node11_1&#45;&gt;Node17_1 -->
<g id="edge11" class="edge">
<title>Node11_1&#45;&gt;Node17_1</title>
<path fill="none" stroke="black" d="M904.5,-40.63C888.43,-50.93 867.96,-62.41 848,-69 811.46,-81.06 799.51,-70.42 762,-79 749.75,-81.8 736.67,-85.97 725.07,-90.1"/>
<polygon fill="black" stroke="black" points="906.52,-43.49 912.94,-35.06 902.66,-37.64 906.52,-43.49"/>
<text text-anchor="middle" x="898.5" y="-57.8" font-family="Times,serif" font-size="14.00">सम्बन्धः</text>
</g>
<!-- Node12_1 -->
<g id="node14" class="node">
<title>Node12_1</title>
<ellipse fill="#00bfff" stroke="#00bfff" cx="677" cy="-18" rx="56.59" ry="18"/>
<text text-anchor="middle" x="677" y="-14.3" font-family="Times,serif" font-size="14.00">कार्यम्(12.1)</text>
</g>
<!-- Node12_1&#45;&gt;Node17_1 -->
<g id="edge12" class="edge">
<title>Node12_1&#45;&gt;Node17_1</title>
<path fill="none" stroke="black" d="M681.17,-46.27C683.21,-59.58 685.59,-75.19 687.37,-86.82"/>
<polygon fill="black" stroke="black" points="684.6,-45.56 679.63,-36.2 677.68,-46.62 684.6,-45.56"/>
<text text-anchor="middle" x="723" y="-57.8" font-family="Times,serif" font-size="14.00">विधेय_विशेषणम्</text>
</g>
<!-- Node16_1 -->
<g id="node16" class="node">
<title>Node16_1</title>
<ellipse fill="#ff1975" stroke="#ff1975" cx="748" cy="-192" rx="55.79" ry="18"/>
<text text-anchor="middle" x="748" y="-188.3" font-family="Times,serif" font-size="14.00">अर्हति(16.1)</text>
</g>
<!-- Node14_1&#45;&gt;Node16_1 -->
<g id="edge14" class="edge">
<title>Node14_1&#45;&gt;Node16_1</title>
<path fill="none" stroke="black" d="M595.33,-124.11C631.49,-139.95 683.25,-162.63 716.24,-177.08"/>
<polygon fill="black" stroke="black" points="596.6,-120.84 586.04,-120.04 593.79,-127.26 596.6,-120.84"/>
<text text-anchor="middle" x="673" y="-144.8" font-family="Times,serif" font-size="14.00">कर्ता</text>
</g>
<!-- Node15_1 -->
<g id="node17" class="node">
<title>Node15_1</title>
<ellipse fill="#ff99ff" stroke="#ff99ff" cx="828" cy="-105" rx="57.39" ry="18"/>
<text text-anchor="middle" x="828" y="-101.3" font-family="Times,serif" font-size="14.00">वक्तुम्(15.1)</text>
</g>
<!-- Node15_1&#45;&gt;Node16_1 -->
<g id="edge15" class="edge">
<title>Node15_1&#45;&gt;Node16_1</title>
<path fill="none" stroke="black" d="M805.49,-129.91C792.05,-144.2 775.32,-161.98 763.38,-174.66"/>
<polygon fill="black" stroke="black" points="808.27,-132.07 812.58,-122.39 803.17,-127.27 808.27,-132.07"/>
<text text-anchor="middle" x="810.5" y="-144.8" font-family="Times,serif" font-size="14.00">तुमुन्कर्म</text>
</g>
</g>
</svg>
