<?xml version="1.0" encoding="UTF-8" standalone="no"?>
<!DOCTYPE svg PUBLIC "-//W3C//DTD SVG 1.1//EN"
 "http://www.w3.org/Graphics/SVG/1.1/DTD/svg11.dtd">
<!-- Generated by graphviz version 2.43.0 (0)
 -->
<!-- Title: G Pages: 1 -->
<svg width="594pt" height="392pt"
 viewBox="0.00 0.00 594.00 392.00" xmlns="http://www.w3.org/2000/svg" xmlns:xlink="http://www.w3.org/1999/xlink">
<g id="graph0" class="graph" transform="scale(1 1) rotate(0) translate(4 388)">
<title>G</title>
<polygon fill="#fffacd" stroke="transparent" points="-4,4 -4,-388 590,-388 590,4 -4,4"/>
<g id="clust1" class="cluster">
<title>cluster_1</title>
<polygon fill="#fffacd" stroke="black" points="448,-79 448,-218 578,-218 578,-79 448,-79"/>
</g>
<g id="clust2" class="cluster">
<title>cluster_2</title>
<polygon fill="#fffacd" stroke="black" points="8,-166 8,-305 120,-305 120,-166 8,-166"/>
</g>
<!-- Node5_1 -->
<g id="node1" class="node">
<title>Node5_1</title>
<ellipse fill="#93db70" stroke="#93db70" cx="513" cy="-105" rx="56.59" ry="18"/>
<text text-anchor="middle" x="513" y="-101.3" font-family="Times,serif" font-size="14.00">बहुलानि(5.1)</text>
</g>
<!-- Node3_2 -->
<g id="node2" class="node">
<title>Node3_2</title>
<ellipse fill="#93db70" stroke="#93db70" cx="513" cy="-192" rx="55.79" ry="18"/>
<text text-anchor="middle" x="513" y="-188.3" font-family="Times,serif" font-size="14.00">दुःखानि(3.2)</text>
</g>
<!-- Node5_1&#45;&gt;Node3_2 -->
<g id="edge6" class="edge">
<title>Node5_1&#45;&gt;Node3_2</title>
<path fill="none" stroke="black" d="M513,-133.27C513,-146.58 513,-162.19 513,-173.82"/>
<polygon fill="black" stroke="black" points="516.5,-133.2 513,-123.2 509.5,-133.2 516.5,-133.2"/>
<text text-anchor="middle" x="535.5" y="-144.8" font-family="Times,serif" font-size="14.00">विशेषणम्</text>
</g>
<!-- Node4_1 -->
<g id="node8" class="node">
<title>Node4_1</title>
<ellipse fill="#ff99ff" stroke="#ff99ff" cx="513" cy="-279" rx="55.49" ry="18"/>
<text text-anchor="middle" x="513" y="-275.3" font-family="Times,serif" font-size="14.00">संस्मृत्य(4.1)</text>
</g>
<!-- Node3_2&#45;&gt;Node4_1 -->
<g id="edge4" class="edge">
<title>Node3_2&#45;&gt;Node4_1</title>
<path fill="none" stroke="black" d="M513,-220.27C513,-233.58 513,-249.19 513,-260.82"/>
<polygon fill="black" stroke="black" points="516.5,-220.2 513,-210.2 509.5,-220.2 516.5,-220.2"/>
<text text-anchor="middle" x="522" y="-231.8" font-family="Times,serif" font-size="14.00">कर्म</text>
</g>
<!-- Node9_2 -->
<g id="node3" class="node">
<title>Node9_2</title>
<ellipse fill="#00bfff" stroke="#00bfff" cx="64" cy="-192" rx="46.29" ry="18"/>
<text text-anchor="middle" x="64" y="-188.3" font-family="Times,serif" font-size="14.00">बाहुः(9.2)</text>
</g>
<!-- Node1_1 -->
<g id="node4" class="node">
<title>Node1_1</title>
<ellipse fill="#00bfff" stroke="#00bfff" cx="64" cy="-279" rx="48.19" ry="18"/>
<text text-anchor="middle" x="64" y="-275.3" font-family="Times,serif" font-size="14.00">भीमः(1.1)</text>
</g>
<!-- Node9_2&#45;&gt;Node1_1 -->
<g id="edge11" class="edge">
<title>Node9_2&#45;&gt;Node1_1</title>
<path fill="none" stroke="black" d="M64,-220.27C64,-233.58 64,-249.19 64,-260.82"/>
<polygon fill="black" stroke="black" points="67.5,-220.2 64,-210.2 60.5,-220.2 67.5,-220.2"/>
<text text-anchor="middle" x="86.5" y="-231.8" font-family="Times,serif" font-size="14.00">विशेषणम्</text>
</g>
<!-- Node10_1 -->
<g id="node5" class="node">
<title>Node10_1</title>
<ellipse fill="#ff1975" stroke="#ff1975" cx="321" cy="-366" rx="61.99" ry="18"/>
<text text-anchor="middle" x="321" y="-362.3" font-family="Times,serif" font-size="14.00">अनुमन्ये(10.1)</text>
</g>
<!-- Node1_1&#45;&gt;Node10_1 -->
<g id="edge1" class="edge">
<title>Node1_1&#45;&gt;Node10_1</title>
<path fill="none" stroke="black" d="M108.58,-294.75C157.37,-310.88 234.84,-336.5 281.51,-351.94"/>
<polygon fill="black" stroke="black" points="109.52,-291.37 98.93,-291.55 107.32,-298.02 109.52,-291.37"/>
<text text-anchor="middle" x="219" y="-318.8" font-family="Times,serif" font-size="14.00">कर्ता</text>
</g>
<!-- Node2_1 -->
<g id="node6" class="node">
<title>Node2_1</title>
<ellipse fill="#ff99ff" stroke="#ff99ff" cx="165" cy="-192" rx="37.09" ry="18"/>
<text text-anchor="middle" x="165" y="-188.3" font-family="Times,serif" font-size="14.00">तु(2.1)</text>
</g>
<!-- Node2_1&#45;&gt;Node1_1 -->
<g id="edge2" class="edge">
<title>Node2_1&#45;&gt;Node1_1</title>
<path fill="none" stroke="black" d="M142.95,-215.58C133.93,-224.44 123.24,-234.5 113,-243 104.64,-249.95 94.98,-257.02 86.46,-262.98"/>
<polygon fill="black" stroke="black" points="145.46,-218.02 150.07,-208.49 140.52,-213.06 145.46,-218.02"/>
<text text-anchor="middle" x="148.5" y="-231.8" font-family="Times,serif" font-size="14.00">सम्बन्धः</text>
</g>
<!-- Node3_1 -->
<g id="node7" class="node">
<title>Node3_1</title>
<ellipse fill="#ffff00" stroke="#ffff00" cx="393" cy="-105" rx="45.49" ry="18"/>
<text text-anchor="middle" x="393" y="-101.3" font-family="Times,serif" font-size="14.00">सर्व&#45;(3.1)</text>
</g>
<!-- Node3_1&#45;&gt;Node3_2 -->
<g id="edge3" class="edge">
<title>Node3_1&#45;&gt;Node3_2</title>
<path fill="none" stroke="black" d="M422.47,-126.88C443.59,-141.83 471.58,-161.66 490.82,-175.29"/>
<polygon fill="black" stroke="black" points="424.36,-123.92 414.18,-121 420.31,-129.64 424.36,-123.92"/>
<text text-anchor="middle" x="478" y="-144.8" font-family="Times,serif" font-size="14.00">समासः</text>
</g>
<!-- Node4_1&#45;&gt;Node10_1 -->
<g id="edge5" class="edge">
<title>Node4_1&#45;&gt;Node10_1</title>
<path fill="none" stroke="black" d="M485.15,-302.15C472.03,-311.75 455.82,-322.49 440,-330 417.53,-340.67 391.11,-348.83 368.88,-354.59"/>
<polygon fill="black" stroke="black" points="487.38,-304.85 493.28,-296.05 483.18,-299.25 487.38,-304.85"/>
<text text-anchor="middle" x="486.5" y="-318.8" font-family="Times,serif" font-size="14.00">पूर्वकालः</text>
</g>
<!-- Node6_1 -->
<g id="node9" class="node">
<title>Node6_1</title>
<ellipse fill="#ff99ff" stroke="#ff99ff" cx="513" cy="-18" rx="41.69" ry="18"/>
<text text-anchor="middle" x="513" y="-14.3" font-family="Times,serif" font-size="14.00">उत(6.1)</text>
</g>
<!-- Node6_1&#45;&gt;Node5_1 -->
<g id="edge7" class="edge">
<title>Node6_1&#45;&gt;Node5_1</title>
<path fill="none" stroke="black" d="M513,-46.27C513,-59.58 513,-75.19 513,-86.82"/>
<polygon fill="black" stroke="black" points="516.5,-46.2 513,-36.2 509.5,-46.2 516.5,-46.2"/>
<text text-anchor="middle" x="531.5" y="-57.8" font-family="Times,serif" font-size="14.00">सम्बन्धः</text>
</g>
<!-- Node7_1 -->
<g id="node10" class="node">
<title>Node7_1</title>
<ellipse fill="#b4ffb4" stroke="#b4ffb4" cx="223" cy="-279" rx="55.79" ry="18"/>
<text text-anchor="middle" x="223" y="-275.3" font-family="Times,serif" font-size="14.00">कृच्छ्रात्(7.1)</text>
</g>
<!-- Node7_1&#45;&gt;Node10_1 -->
<g id="edge8" class="edge">
<title>Node7_1&#45;&gt;Node10_1</title>
<path fill="none" stroke="black" d="M242.9,-304.58C250.34,-313.08 259.15,-322.38 268,-330 276.19,-337.05 285.88,-343.83 294.71,-349.52"/>
<polygon fill="black" stroke="black" points="245.38,-302.09 236.22,-296.75 240.05,-306.63 245.38,-302.09"/>
<text text-anchor="middle" x="303" y="-318.8" font-family="Times,serif" font-size="14.00">क्रियाविशेषणम्</text>
</g>
<!-- Node8_1 -->
<g id="node11" class="node">
<title>Node8_1</title>
<ellipse fill="#ff99ff" stroke="#ff99ff" cx="261" cy="-192" rx="40.89" ry="18"/>
<text text-anchor="middle" x="261" y="-188.3" font-family="Times,serif" font-size="14.00">इव(8.1)</text>
</g>
<!-- Node8_1&#45;&gt;Node7_1 -->
<g id="edge9" class="edge">
<title>Node8_1&#45;&gt;Node7_1</title>
<path fill="none" stroke="black" d="M249.32,-219.13C243.24,-232.73 235.98,-248.98 230.62,-260.95"/>
<polygon fill="black" stroke="black" points="252.61,-220.35 253.49,-209.79 246.22,-217.49 252.61,-220.35"/>
<text text-anchor="middle" x="263.5" y="-231.8" font-family="Times,serif" font-size="14.00">सम्बन्धः</text>
</g>
<!-- Node9_1 -->
<g id="node12" class="node">
<title>Node9_1</title>
<ellipse fill="#ffff00" stroke="#ffff00" cx="64" cy="-105" rx="49.29" ry="18"/>
<text text-anchor="middle" x="64" y="-101.3" font-family="Times,serif" font-size="14.00">महत्&#45;(9.1)</text>
</g>
<!-- Node9_1&#45;&gt;Node9_2 -->
<g id="edge10" class="edge">
<title>Node9_1&#45;&gt;Node9_2</title>
<path fill="none" stroke="black" d="M64,-133.27C64,-146.58 64,-162.19 64,-173.82"/>
<polygon fill="black" stroke="black" points="67.5,-133.2 64,-123.2 60.5,-133.2 67.5,-133.2"/>
<text text-anchor="middle" x="81" y="-144.8" font-family="Times,serif" font-size="14.00">समासः</text>
</g>
<!-- Node11_1 -->
<g id="node13" class="node">
<title>Node11_1</title>
<ellipse fill="#00bfff" stroke="#00bfff" cx="368" cy="-279" rx="71.49" ry="18"/>
<text text-anchor="middle" x="368" y="-275.3" font-family="Times,serif" font-size="14.00">विनिःश्वसन्(11.1)</text>
</g>
<!-- Node11_1&#45;&gt;Node10_1 -->
<g id="edge12" class="edge">
<title>Node11_1&#45;&gt;Node10_1</title>
<path fill="none" stroke="black" d="M353.54,-306.15C345.99,-319.81 336.96,-336.13 330.34,-348.11"/>
<polygon fill="black" stroke="black" points="356.71,-307.65 358.49,-297.2 350.59,-304.26 356.71,-307.65"/>
<text text-anchor="middle" x="392" y="-318.8" font-family="Times,serif" font-size="14.00">वर्तमानसमानकालः</text>
</g>
</g>
</svg>
