<?xml version="1.0" encoding="UTF-8" standalone="no"?>
<!DOCTYPE svg PUBLIC "-//W3C//DTD SVG 1.1//EN"
 "http://www.w3.org/Graphics/SVG/1.1/DTD/svg11.dtd">
<!-- Generated by graphviz version 2.43.0 (0)
 -->
<!-- Title: G Pages: 1 -->
<svg width="865pt" height="653pt"
 viewBox="0.00 0.00 864.80 653.00" xmlns="http://www.w3.org/2000/svg" xmlns:xlink="http://www.w3.org/1999/xlink">
<g id="graph0" class="graph" transform="scale(1 1) rotate(0) translate(4 649)">
<title>G</title>
<polygon fill="#fffacd" stroke="transparent" points="-4,4 -4,-649 860.8,-649 860.8,4 -4,4"/>
<g id="clust1" class="cluster">
<title>cluster_1</title>
<polygon fill="#fffacd" stroke="black" points="722.8,-340 722.8,-479 848.8,-479 848.8,-340 722.8,-340"/>
</g>
<g id="clust2" class="cluster">
<title>cluster_2</title>
<polygon fill="#fffacd" stroke="black" points="101.8,-427 101.8,-566 490.8,-566 490.8,-427 101.8,-427"/>
</g>
<!-- Node1_5 -->
<g id="node1" class="node">
<title>Node1_5</title>
<ellipse fill="#00bfff" stroke="#00bfff" cx="785.8" cy="-366" rx="55.49" ry="18"/>
<text text-anchor="middle" x="785.8" y="-362.3" font-family="Times,serif" font-size="14.00">आढ्याः(1.5)</text>
</g>
<!-- Node2_1 -->
<g id="node2" class="node">
<title>Node2_1</title>
<ellipse fill="#00bfff" stroke="#00bfff" cx="782.8" cy="-453" rx="48.99" ry="18"/>
<text text-anchor="middle" x="782.8" y="-449.3" font-family="Times,serif" font-size="14.00">सभाः(2.1)</text>
</g>
<!-- Node1_5&#45;&gt;Node2_1 -->
<g id="edge5" class="edge">
<title>Node1_5&#45;&gt;Node2_1</title>
<path fill="none" stroke="black" d="M784.83,-394.27C784.36,-407.58 783.81,-423.19 783.4,-434.82"/>
<polygon fill="black" stroke="black" points="788.33,-394.32 785.19,-384.2 781.34,-394.07 788.33,-394.32"/>
<text text-anchor="middle" x="806.3" y="-405.8" font-family="Times,serif" font-size="14.00">विशेषणम्</text>
</g>
<!-- Node10_2 -->
<g id="node3" class="node">
<title>Node10_2</title>
<ellipse fill="#93db70" stroke="#93db70" cx="431.8" cy="-540" rx="49.29" ry="18"/>
<text text-anchor="middle" x="431.8" y="-536.3" font-family="Times,serif" font-size="14.00">कर्म(10.2)</text>
</g>
<!-- Node2_1&#45;&gt;Node10_2 -->
<g id="edge6" class="edge">
<title>Node2_1&#45;&gt;Node10_2</title>
<path fill="none" stroke="black" d="M746.61,-472.66C724.4,-483.37 695.08,-496.19 667.8,-504 604.28,-522.17 528.3,-531.29 480.04,-535.58"/>
<polygon fill="black" stroke="black" points="748.22,-475.77 755.66,-468.23 745.14,-469.48 748.22,-475.77"/>
<text text-anchor="middle" x="732.3" y="-492.8" font-family="Times,serif" font-size="14.00">समुच्चितः</text>
</g>
<!-- Node4_1 -->
<g id="node12" class="node">
<title>Node4_1</title>
<ellipse fill="#ff1975" stroke="#ff1975" cx="78.8" cy="-627" rx="49.29" ry="18"/>
<text text-anchor="middle" x="78.8" y="-623.3" font-family="Times,serif" font-size="14.00">कारय(4.1)</text>
</g>
<!-- Node10_2&#45;&gt;Node4_1 -->
<g id="edge14" class="edge">
<title>Node10_2&#45;&gt;Node4_1</title>
<path fill="none" stroke="black" d="M381.65,-553.07C311.02,-570.08 183.64,-600.75 118.91,-616.34"/>
<polygon fill="black" stroke="black" points="382.74,-556.41 391.65,-550.67 381.1,-549.61 382.74,-556.41"/>
<text text-anchor="middle" x="284.8" y="-579.8" font-family="Times,serif" font-size="14.00">कर्म</text>
</g>
<!-- Node6_1 -->
<g id="node4" class="node">
<title>Node6_1</title>
<ellipse fill="#93db70" stroke="#93db70" cx="301.8" cy="-453" rx="61.99" ry="18"/>
<text text-anchor="middle" x="301.8" y="-449.3" font-family="Times,serif" font-size="14.00">निपानानि(6.1)</text>
</g>
<!-- Node6_1&#45;&gt;Node10_2 -->
<g id="edge9" class="edge">
<title>Node6_1&#45;&gt;Node10_2</title>
<path fill="none" stroke="black" d="M334.41,-475.32C357.53,-490.44 388,-510.36 408.65,-523.87"/>
<polygon fill="black" stroke="black" points="336.23,-472.33 325.94,-469.79 332.4,-478.19 336.23,-472.33"/>
<text text-anchor="middle" x="396.3" y="-492.8" font-family="Times,serif" font-size="14.00">समुच्चितः</text>
</g>
<!-- Node7_1 -->
<g id="node5" class="node">
<title>Node7_1</title>
<ellipse fill="#93db70" stroke="#93db70" cx="431.8" cy="-453" rx="50.89" ry="18"/>
<text text-anchor="middle" x="431.8" y="-449.3" font-family="Times,serif" font-size="14.00">अन्यत्(7.1)</text>
</g>
<!-- Node7_1&#45;&gt;Node10_2 -->
<g id="edge10" class="edge">
<title>Node7_1&#45;&gt;Node10_2</title>
<path fill="none" stroke="black" d="M431.8,-481.27C431.8,-494.58 431.8,-510.19 431.8,-521.82"/>
<polygon fill="black" stroke="black" points="435.3,-481.2 431.8,-471.2 428.3,-481.2 435.3,-481.2"/>
<text text-anchor="middle" x="454.3" y="-492.8" font-family="Times,serif" font-size="14.00">विशेषणम्</text>
</g>
<!-- Node9_1 -->
<g id="node6" class="node">
<title>Node9_1</title>
<ellipse fill="#93db70" stroke="#93db70" cx="165.8" cy="-453" rx="55.79" ry="18"/>
<text text-anchor="middle" x="165.8" y="-449.3" font-family="Times,serif" font-size="14.00">विविधम्(9.1)</text>
</g>
<!-- Node9_1&#45;&gt;Node10_2 -->
<g id="edge12" class="edge">
<title>Node9_1&#45;&gt;Node10_2</title>
<path fill="none" stroke="black" d="M209.3,-471.15C216.46,-473.85 223.81,-476.56 230.8,-479 286.65,-498.56 352.58,-517.46 393.3,-528.66"/>
<polygon fill="black" stroke="black" points="210.31,-467.79 199.72,-467.5 207.82,-474.33 210.31,-467.79"/>
<text text-anchor="middle" x="329.3" y="-492.8" font-family="Times,serif" font-size="14.00">विशेषणम्</text>
</g>
<!-- Node1_1 -->
<g id="node7" class="node">
<title>Node1_1</title>
<ellipse fill="#ffff00" stroke="#ffff00" cx="785.8" cy="-18" rx="44.39" ry="18"/>
<text text-anchor="middle" x="785.8" y="-14.3" font-family="Times,serif" font-size="14.00">बहु&#45;(1.1)</text>
</g>
<!-- Node1_2 -->
<g id="node8" class="node">
<title>Node1_2</title>
<ellipse fill="#ffff00" stroke="#ffff00" cx="785.8" cy="-105" rx="49.29" ry="18"/>
<text text-anchor="middle" x="785.8" y="-101.3" font-family="Times,serif" font-size="14.00">अन्न&#45;(1.2)</text>
</g>
<!-- Node1_1&#45;&gt;Node1_2 -->
<g id="edge1" class="edge">
<title>Node1_1&#45;&gt;Node1_2</title>
<path fill="none" stroke="black" d="M785.8,-46.27C785.8,-59.58 785.8,-75.19 785.8,-86.82"/>
<polygon fill="black" stroke="black" points="789.3,-46.2 785.8,-36.2 782.3,-46.2 789.3,-46.2"/>
<text text-anchor="middle" x="802.8" y="-57.8" font-family="Times,serif" font-size="14.00">समासः</text>
</g>
<!-- Node1_3 -->
<g id="node9" class="node">
<title>Node1_3</title>
<ellipse fill="#ffff00" stroke="#ffff00" cx="785.8" cy="-192" rx="44.39" ry="18"/>
<text text-anchor="middle" x="785.8" y="-188.3" font-family="Times,serif" font-size="14.00">रस&#45;(1.3)</text>
</g>
<!-- Node1_2&#45;&gt;Node1_3 -->
<g id="edge2" class="edge">
<title>Node1_2&#45;&gt;Node1_3</title>
<path fill="none" stroke="black" d="M785.8,-133.27C785.8,-146.58 785.8,-162.19 785.8,-173.82"/>
<polygon fill="black" stroke="black" points="789.3,-133.2 785.8,-123.2 782.3,-133.2 789.3,-133.2"/>
<text text-anchor="middle" x="802.8" y="-144.8" font-family="Times,serif" font-size="14.00">समासः</text>
</g>
<!-- Node1_4 -->
<g id="node10" class="node">
<title>Node1_4</title>
<ellipse fill="#ffff00" stroke="#ffff00" cx="785.8" cy="-279" rx="47.39" ry="18"/>
<text text-anchor="middle" x="785.8" y="-275.3" font-family="Times,serif" font-size="14.00">पान&#45;(1.4)</text>
</g>
<!-- Node1_3&#45;&gt;Node1_4 -->
<g id="edge3" class="edge">
<title>Node1_3&#45;&gt;Node1_4</title>
<path fill="none" stroke="black" d="M785.8,-220.27C785.8,-233.58 785.8,-249.19 785.8,-260.82"/>
<polygon fill="black" stroke="black" points="789.3,-220.2 785.8,-210.2 782.3,-220.2 789.3,-220.2"/>
<text text-anchor="middle" x="802.8" y="-231.8" font-family="Times,serif" font-size="14.00">समासः</text>
</g>
<!-- Node1_4&#45;&gt;Node1_5 -->
<g id="edge4" class="edge">
<title>Node1_4&#45;&gt;Node1_5</title>
<path fill="none" stroke="black" d="M785.8,-307.27C785.8,-320.58 785.8,-336.19 785.8,-347.82"/>
<polygon fill="black" stroke="black" points="789.3,-307.2 785.8,-297.2 782.3,-307.2 789.3,-307.2"/>
<text text-anchor="middle" x="802.8" y="-318.8" font-family="Times,serif" font-size="14.00">समासः</text>
</g>
<!-- Node3_1 -->
<g id="node11" class="node">
<title>Node3_1</title>
<ellipse fill="#6fffc3" stroke="#6fffc3" cx="46.8" cy="-540" rx="46.59" ry="18"/>
<text text-anchor="middle" x="46.8" y="-536.3" font-family="Times,serif" font-size="14.00">विदुर(3.1)</text>
</g>
<!-- Node3_1&#45;&gt;Node4_1 -->
<g id="edge7" class="edge">
<title>Node3_1&#45;&gt;Node4_1</title>
<path fill="none" stroke="black" d="M56.94,-567.94C62.02,-581.43 68.01,-597.36 72.44,-609.11"/>
<polygon fill="black" stroke="black" points="60.07,-566.33 53.27,-558.2 53.52,-568.79 60.07,-566.33"/>
<text text-anchor="middle" x="85.8" y="-579.8" font-family="Times,serif" font-size="14.00">सम्बोध्यः</text>
</g>
<!-- Node5_1 -->
<g id="node13" class="node">
<title>Node5_1</title>
<ellipse fill="#87ceeb" stroke="#87ceeb" cx="301.8" cy="-366" rx="48.99" ry="18"/>
<text text-anchor="middle" x="301.8" y="-362.3" font-family="Times,serif" font-size="14.00">गवाम्(5.1)</text>
</g>
<!-- Node5_1&#45;&gt;Node6_1 -->
<g id="edge8" class="edge">
<title>Node5_1&#45;&gt;Node6_1</title>
<path fill="none" stroke="black" d="M301.8,-394.27C301.8,-407.58 301.8,-423.19 301.8,-434.82"/>
<polygon fill="black" stroke="black" points="305.3,-394.2 301.8,-384.2 298.3,-394.2 305.3,-394.2"/>
<text text-anchor="middle" x="329.3" y="-405.8" font-family="Times,serif" font-size="14.00">षष्ठीसम्बन्धः</text>
</g>
<!-- Node8_1 -->
<g id="node14" class="node">
<title>Node8_1</title>
<ellipse fill="#ff99ff" stroke="#ff99ff" cx="431.8" cy="-366" rx="37.89" ry="18"/>
<text text-anchor="middle" x="431.8" y="-362.3" font-family="Times,serif" font-size="14.00">च(8.1)</text>
</g>
<!-- Node8_1&#45;&gt;Node7_1 -->
<g id="edge11" class="edge">
<title>Node8_1&#45;&gt;Node7_1</title>
<path fill="none" stroke="black" d="M431.8,-394.27C431.8,-407.58 431.8,-423.19 431.8,-434.82"/>
<polygon fill="black" stroke="black" points="435.3,-394.2 431.8,-384.2 428.3,-394.2 435.3,-394.2"/>
<text text-anchor="middle" x="450.3" y="-405.8" font-family="Times,serif" font-size="14.00">सम्बन्धः</text>
</g>
<!-- Node10_1 -->
<g id="node15" class="node">
<title>Node10_1</title>
<ellipse fill="#ffff00" stroke="#ffff00" cx="554.8" cy="-453" rx="54.69" ry="18"/>
<text text-anchor="middle" x="554.8" y="-449.3" font-family="Times,serif" font-size="14.00">पुण्य&#45;(10.1)</text>
</g>
<!-- Node10_1&#45;&gt;Node10_2 -->
<g id="edge13" class="edge">
<title>Node10_1&#45;&gt;Node10_2</title>
<path fill="none" stroke="black" d="M523.94,-475.32C502.1,-490.41 473.34,-510.29 453.8,-523.79"/>
<polygon fill="black" stroke="black" points="526,-478.15 532.24,-469.59 522.02,-472.4 526,-478.15"/>
<text text-anchor="middle" x="516.8" y="-492.8" font-family="Times,serif" font-size="14.00">समासः</text>
</g>
<!-- Node11_1 -->
<g id="node16" class="node">
<title>Node11_1</title>
<ellipse fill="#ff99ff" stroke="#ff99ff" cx="670.8" cy="-453" rx="43.59" ry="18"/>
<text text-anchor="middle" x="670.8" y="-449.3" font-family="Times,serif" font-size="14.00">च(11.1)</text>
</g>
<!-- Node11_1&#45;&gt;Node10_2 -->
<g id="edge15" class="edge">
<title>Node11_1&#45;&gt;Node10_2</title>
<path fill="none" stroke="black" d="M635.54,-471.75C630,-474.31 624.28,-476.81 618.8,-479 568.28,-499.14 508.12,-517.47 469.94,-528.43"/>
<polygon fill="black" stroke="black" points="637.12,-474.88 644.66,-467.43 634.12,-468.55 637.12,-474.88"/>
<text text-anchor="middle" x="625.8" y="-492.8" font-family="Times,serif" font-size="14.00">समुच्चय_द्योतकः</text>
</g>
</g>
</svg>
