<?xml version="1.0" encoding="UTF-8" standalone="no"?>
<!DOCTYPE svg PUBLIC "-//W3C//DTD SVG 1.1//EN"
 "http://www.w3.org/Graphics/SVG/1.1/DTD/svg11.dtd">
<!-- Generated by graphviz version 2.43.0 (0)
 -->
<!-- Title: G Pages: 1 -->
<svg width="1195pt" height="408pt"
 viewBox="0.00 0.00 1194.60 408.00" xmlns="http://www.w3.org/2000/svg" xmlns:xlink="http://www.w3.org/1999/xlink">
<g id="graph0" class="graph" transform="scale(1 1) rotate(0) translate(4 404)">
<title>G</title>
<polygon fill="#fffacd" stroke="transparent" points="-4,4 -4,-404 1190.6,-404 1190.6,4 -4,4"/>
<g id="clust1" class="cluster">
<title>cluster_1</title>
<polygon fill="#fffacd" stroke="black" points="233.6,-8 233.6,-234 882.6,-234 882.6,-8 233.6,-8"/>
</g>
<!-- Node1_1 -->
<g id="node1" class="node">
<title>Node1_1</title>
<ellipse fill="#93db70" stroke="#93db70" cx="566.6" cy="-121" rx="50.09" ry="18"/>
<text text-anchor="middle" x="566.6" y="-117.3" font-family="Times,serif" font-size="14.00">द्रोणम्(1.1)</text>
</g>
<!-- Node11_1 -->
<g id="node2" class="node">
<title>Node11_1</title>
<ellipse fill="#93db70" stroke="#93db70" cx="438.6" cy="-208" rx="55.79" ry="18"/>
<text text-anchor="middle" x="438.6" y="-204.3" font-family="Times,serif" font-size="14.00">पुत्रान्(11.1)</text>
</g>
<!-- Node1_1&#45;&gt;Node11_1 -->
<g id="edge1" class="edge">
<title>Node1_1&#45;&gt;Node11_1</title>
<path fill="none" stroke="black" d="M535.15,-142.88C512.59,-157.86 482.67,-177.73 462.15,-191.36"/>
<polygon fill="black" stroke="black" points="537.32,-145.64 543.71,-137.2 533.44,-139.81 537.32,-145.64"/>
<text text-anchor="middle" x="532.1" y="-160.8" font-family="Times,serif" font-size="14.00">समुच्चितः</text>
</g>
<!-- Node2_1 -->
<g id="node8" class="node">
<title>Node2_1</title>
<ellipse fill="#ff99ff" stroke="#ff99ff" cx="304.6" cy="-295" rx="60.39" ry="18"/>
<text text-anchor="middle" x="304.6" y="-291.3" font-family="Times,serif" font-size="14.00">सङ्कीर्त्य(2.1)</text>
</g>
<!-- Node11_1&#45;&gt;Node2_1 -->
<g id="edge11" class="edge">
<title>Node11_1&#45;&gt;Node2_1</title>
<path fill="none" stroke="black" d="M405.67,-229.88C382.01,-244.89 350.62,-264.81 329.13,-278.43"/>
<polygon fill="black" stroke="black" points="407.76,-232.7 414.33,-224.39 404.01,-226.79 407.76,-232.7"/>
<text text-anchor="middle" x="388.6" y="-247.8" font-family="Times,serif" font-size="14.00">कर्म</text>
</g>
<!-- Node3_1 -->
<g id="node3" class="node">
<title>Node3_1</title>
<ellipse fill="#93db70" stroke="#93db70" cx="687.6" cy="-121" rx="53.09" ry="18"/>
<text text-anchor="middle" x="687.6" y="-117.3" font-family="Times,serif" font-size="14.00">भीष्मम्(3.1)</text>
</g>
<!-- Node3_1&#45;&gt;Node11_1 -->
<g id="edge3" class="edge">
<title>Node3_1&#45;&gt;Node11_1</title>
<path fill="none" stroke="black" d="M645.71,-139.29C620.63,-149.37 588.02,-162.03 558.6,-172 532.7,-180.78 503.22,-189.39 479.97,-195.88"/>
<polygon fill="black" stroke="black" points="647.31,-142.41 655.27,-135.42 644.69,-135.92 647.31,-142.41"/>
<text text-anchor="middle" x="620.1" y="-160.8" font-family="Times,serif" font-size="14.00">समुच्चितः</text>
</g>
<!-- Node5_1 -->
<g id="node4" class="node">
<title>Node5_1</title>
<ellipse fill="#93db70" stroke="#93db70" cx="438.6" cy="-121" rx="60.39" ry="18"/>
<text text-anchor="middle" x="438.6" y="-117.3" font-family="Times,serif" font-size="14.00">सोमदत्तम्(5.1)</text>
</g>
<!-- Node5_1&#45;&gt;Node11_1 -->
<g id="edge5" class="edge">
<title>Node5_1&#45;&gt;Node11_1</title>
<path fill="none" stroke="black" d="M438.6,-149.27C438.6,-162.58 438.6,-178.19 438.6,-189.82"/>
<polygon fill="black" stroke="black" points="442.1,-149.2 438.6,-139.2 435.1,-149.2 442.1,-149.2"/>
<text text-anchor="middle" x="461.1" y="-160.8" font-family="Times,serif" font-size="14.00">समुच्चितः</text>
</g>
<!-- Node7_1 -->
<g id="node5" class="node">
<title>Node7_1</title>
<ellipse fill="#93db70" stroke="#93db70" cx="816.6" cy="-121" rx="57.69" ry="18"/>
<text text-anchor="middle" x="816.6" y="-117.3" font-family="Times,serif" font-size="14.00">बाह्लिकम्(7.1)</text>
</g>
<!-- Node7_1&#45;&gt;Node11_1 -->
<g id="edge7" class="edge">
<title>Node7_1&#45;&gt;Node11_1</title>
<path fill="none" stroke="black" d="M768.82,-137.71C734.97,-148.44 688.34,-162.38 646.6,-172 593.43,-184.25 531.69,-194.09 489.37,-200.19"/>
<polygon fill="black" stroke="black" points="769.99,-141.01 778.46,-134.64 767.87,-134.34 769.99,-141.01"/>
<text text-anchor="middle" x="725.1" y="-160.8" font-family="Times,serif" font-size="14.00">समुच्चितः</text>
</g>
<!-- Node8_1 -->
<g id="node6" class="node">
<title>Node8_1</title>
<ellipse fill="#93db70" stroke="#93db70" cx="300.6" cy="-121" rx="59.29" ry="18"/>
<text text-anchor="middle" x="300.6" y="-117.3" font-family="Times,serif" font-size="14.00">दुर्योधनम्(8.1)</text>
</g>
<!-- Node8_1&#45;&gt;Node11_1 -->
<g id="edge8" class="edge">
<title>Node8_1&#45;&gt;Node11_1</title>
<path fill="none" stroke="black" d="M334.23,-142.72C358.8,-157.85 391.57,-178.04 413.79,-191.72"/>
<polygon fill="black" stroke="black" points="335.94,-139.66 325.59,-137.39 332.26,-145.62 335.94,-139.66"/>
<text text-anchor="middle" x="400.1" y="-160.8" font-family="Times,serif" font-size="14.00">समुच्चितः</text>
</g>
<!-- Node10_1 -->
<g id="node7" class="node">
<title>Node10_1</title>
<ellipse fill="#93db70" stroke="#93db70" cx="303.6" cy="-34" rx="61.99" ry="18"/>
<text text-anchor="middle" x="303.6" y="-30.3" font-family="Times,serif" font-size="14.00">राजानम्(10.1)</text>
</g>
<!-- Node10_1&#45;&gt;Node8_1 -->
<g id="edge10" class="edge">
<title>Node10_1&#45;&gt;Node8_1</title>
<path fill="none" stroke="black" d="M302.63,-62.27C302.16,-75.58 301.61,-91.19 301.2,-102.82"/>
<polygon fill="black" stroke="black" points="306.13,-62.32 302.99,-52.2 299.14,-62.07 306.13,-62.32"/>
<text text-anchor="middle" x="324.1" y="-73.8" font-family="Times,serif" font-size="14.00">विशेषणम्</text>
</g>
<!-- Node15_1 -->
<g id="node9" class="node">
<title>Node15_1</title>
<ellipse fill="#ff1975" stroke="#ff1975" cx="194.6" cy="-382" rx="55.79" ry="18"/>
<text text-anchor="middle" x="194.6" y="-378.3" font-family="Times,serif" font-size="14.00">(ददौ)(15.1)</text>
</g>
<!-- Node2_1&#45;&gt;Node15_1 -->
<g id="edge2" class="edge">
<title>Node2_1&#45;&gt;Node15_1</title>
<path fill="none" stroke="black" d="M275.86,-318.21C256.82,-332.92 232.3,-351.87 215.19,-365.08"/>
<polygon fill="black" stroke="black" points="278.13,-320.87 283.9,-311.99 273.85,-315.33 278.13,-320.87"/>
<text text-anchor="middle" x="276.1" y="-334.8" font-family="Times,serif" font-size="14.00">पूर्वकालः</text>
</g>
<!-- Node4_1 -->
<g id="node10" class="node">
<title>Node4_1</title>
<ellipse fill="#ff99ff" stroke="#ff99ff" cx="1120.6" cy="-34" rx="37.89" ry="18"/>
<text text-anchor="middle" x="1120.6" y="-30.3" font-family="Times,serif" font-size="14.00">च(4.1)</text>
</g>
<!-- Node4_1&#45;&gt;Node3_1 -->
<g id="edge4" class="edge">
<title>Node4_1&#45;&gt;Node3_1</title>
<path fill="none" stroke="black" d="M1114.77,-62C1111.49,-70.76 1106.42,-79.6 1098.6,-85 1066.63,-107.05 787.93,-96.83 749.6,-103 741.66,-104.28 733.29,-106.18 725.34,-108.26"/>
<polygon fill="black" stroke="black" points="1118.14,-62.93 1117.75,-52.34 1111.45,-60.86 1118.14,-62.93"/>
<text text-anchor="middle" x="1148.6" y="-73.8" font-family="Times,serif" font-size="14.00">समुच्चय_द्योतकः</text>
</g>
<!-- Node6_1 -->
<g id="node11" class="node">
<title>Node6_1</title>
<ellipse fill="#ff99ff" stroke="#ff99ff" cx="1021.6" cy="-34" rx="37.89" ry="18"/>
<text text-anchor="middle" x="1021.6" y="-30.3" font-family="Times,serif" font-size="14.00">च(6.1)</text>
</g>
<!-- Node6_1&#45;&gt;Node5_1 -->
<g id="edge6" class="edge">
<title>Node6_1&#45;&gt;Node5_1</title>
<path fill="none" stroke="black" d="M1015.81,-62.07C1012.54,-70.83 1007.46,-79.66 999.6,-85 954.34,-115.73 561.77,-95.42 507.6,-103 498.92,-104.21 489.75,-106.06 481.03,-108.1"/>
<polygon fill="black" stroke="black" points="1019.19,-62.98 1018.78,-52.39 1012.5,-60.92 1019.19,-62.98"/>
<text text-anchor="middle" x="1049.6" y="-73.8" font-family="Times,serif" font-size="14.00">समुच्चय_द्योतकः</text>
</g>
<!-- Node9_1 -->
<g id="node12" class="node">
<title>Node9_1</title>
<ellipse fill="#ff99ff" stroke="#ff99ff" cx="928.6" cy="-34" rx="37.89" ry="18"/>
<text text-anchor="middle" x="928.6" y="-30.3" font-family="Times,serif" font-size="14.00">च(9.1)</text>
</g>
<!-- Node9_1&#45;&gt;Node8_1 -->
<g id="edge9" class="edge">
<title>Node9_1&#45;&gt;Node8_1</title>
<path fill="none" stroke="black" d="M892.5,-50.36C890.52,-50.97 888.54,-51.52 886.6,-52 662.4,-107.21 597.16,-63.95 369.6,-103 361.08,-104.46 352.07,-106.39 343.46,-108.43"/>
<polygon fill="black" stroke="black" points="894.01,-53.54 902.31,-46.97 891.72,-46.93 894.01,-53.54"/>
<text text-anchor="middle" x="827.6" y="-73.8" font-family="Times,serif" font-size="14.00">समुच्चय_द्योतकः</text>
</g>
<!-- Node12_1 -->
<g id="node13" class="node">
<title>Node12_1</title>
<ellipse fill="#ff99ff" stroke="#ff99ff" cx="175.6" cy="-121" rx="48.19" ry="18"/>
<text text-anchor="middle" x="175.6" y="-117.3" font-family="Times,serif" font-size="14.00">चैव(12.1)</text>
</g>
<!-- Node12_1&#45;&gt;Node11_1 -->
<g id="edge12" class="edge">
<title>Node12_1&#45;&gt;Node11_1</title>
<path fill="none" stroke="black" d="M210.7,-141.18C230.71,-151.48 256.53,-163.72 280.6,-172 316.33,-184.29 358.13,-193.33 389.76,-199.14"/>
<polygon fill="black" stroke="black" points="212.14,-137.98 201.65,-136.45 208.9,-144.18 212.14,-137.98"/>
<text text-anchor="middle" x="318.6" y="-160.8" font-family="Times,serif" font-size="14.00">समुच्चय_द्योतकः</text>
</g>
<!-- Node13_1 -->
<g id="node14" class="node">
<title>Node13_1</title>
<ellipse fill="#ff99ff" stroke="#ff99ff" cx="54.6" cy="-121" rx="54.69" ry="18"/>
<text text-anchor="middle" x="54.6" y="-117.3" font-family="Times,serif" font-size="14.00">पृथक्(13.1)</text>
</g>
<!-- Node14_1 -->
<g id="node15" class="node">
<title>Node14_1</title>
<ellipse fill="#ff99ff" stroke="#ff99ff" cx="112.6" cy="-208" rx="54.69" ry="18"/>
<text text-anchor="middle" x="112.6" y="-204.3" font-family="Times,serif" font-size="14.00">पृथक्(14.1)</text>
</g>
<!-- Node13_1&#45;&gt;Node14_1 -->
<g id="edge13" class="edge">
<title>Node13_1&#45;&gt;Node14_1</title>
<path fill="none" stroke="black" d="M71.93,-147.4C81.38,-161.26 92.82,-178.03 101.16,-190.24"/>
<polygon fill="black" stroke="black" points="74.58,-145.08 66.05,-138.79 68.8,-149.03 74.58,-145.08"/>
<text text-anchor="middle" x="101.6" y="-160.8" font-family="Times,serif" font-size="14.00">वीप्सा</text>
</g>
<!-- Node14_1&#45;&gt;Node2_1 -->
<g id="edge14" class="edge">
<title>Node14_1&#45;&gt;Node2_1</title>
<path fill="none" stroke="black" d="M153.45,-227.09C188.95,-242.8 239.67,-265.26 272.37,-279.73"/>
<polygon fill="black" stroke="black" points="154.43,-223.69 143.87,-222.85 151.6,-230.09 154.43,-223.69"/>
<text text-anchor="middle" x="255.6" y="-247.8" font-family="Times,serif" font-size="14.00">क्रियाविशेषणम्</text>
</g>
<!-- Node16_1 -->
<g id="node16" class="node">
<title>Node16_1</title>
<ellipse fill="#00bfff" stroke="#00bfff" cx="172.6" cy="-295" rx="53.09" ry="18"/>
<text text-anchor="middle" x="172.6" y="-291.3" font-family="Times,serif" font-size="14.00">(सः)(16.1)</text>
</g>
<!-- Node16_1&#45;&gt;Node15_1 -->
<g id="edge15" class="edge">
<title>Node16_1&#45;&gt;Node15_1</title>
<path fill="none" stroke="black" d="M179.65,-323.27C183.1,-336.58 187.14,-352.19 190.15,-363.82"/>
<polygon fill="black" stroke="black" points="182.94,-322.01 177.05,-313.2 176.16,-323.76 182.94,-322.01"/>
<text text-anchor="middle" x="196.6" y="-334.8" font-family="Times,serif" font-size="14.00">कर्ता</text>
</g>
</g>
</svg>
