<?xml version="1.0" encoding="UTF-8" standalone="no"?>
<!DOCTYPE svg PUBLIC "-//W3C//DTD SVG 1.1//EN"
 "http://www.w3.org/Graphics/SVG/1.1/DTD/svg11.dtd">
<!-- Generated by graphviz version 2.43.0 (0)
 -->
<!-- Title: G Pages: 1 -->
<svg width="939pt" height="337pt"
 viewBox="0.00 0.00 938.85 337.00" xmlns="http://www.w3.org/2000/svg" xmlns:xlink="http://www.w3.org/1999/xlink">
<g id="graph0" class="graph" transform="scale(1 1) rotate(0) translate(4 333)">
<title>G</title>
<polygon fill="#fffacd" stroke="transparent" points="-4,4 -4,-333 934.85,-333 934.85,4 -4,4"/>
<g id="clust1" class="cluster">
<title>cluster_1</title>
<polygon fill="#fffacd" stroke="black" points="8,-8 8,-147 110,-147 110,-8 8,-8"/>
</g>
<g id="clust2" class="cluster">
<title>cluster_2</title>
<polygon fill="#fffacd" stroke="black" points="236,-95 236,-234 500,-234 500,-95 236,-95"/>
</g>
<g id="clust3" class="cluster">
<title>cluster_3</title>
<polygon fill="#fffacd" stroke="black" points="88,-182 88,-321 228,-321 228,-182 88,-182"/>
</g>
<!-- Node2_1 -->
<g id="node1" class="node">
<title>Node2_1</title>
<ellipse fill="#c6e2eb" stroke="#c6e2eb" cx="58" cy="-34" rx="41.69" ry="18"/>
<text text-anchor="middle" x="58" y="-30.3" font-family="Times,serif" font-size="14.00">देये(2.1)</text>
</g>
<!-- Node1_1 -->
<g id="node2" class="node">
<title>Node1_1</title>
<ellipse fill="#c6e2eb" stroke="#c6e2eb" cx="59" cy="-121" rx="42.79" ry="18"/>
<text text-anchor="middle" x="59" y="-117.3" font-family="Times,serif" font-size="14.00">शते(1.1)</text>
</g>
<!-- Node2_1&#45;&gt;Node1_1 -->
<g id="edge2" class="edge">
<title>Node2_1&#45;&gt;Node1_1</title>
<path fill="none" stroke="black" d="M58.32,-62.27C58.48,-75.58 58.66,-91.19 58.8,-102.82"/>
<polygon fill="black" stroke="black" points="61.82,-62.16 58.2,-52.2 54.82,-62.24 61.82,-62.16"/>
<text text-anchor="middle" x="81.5" y="-73.8" font-family="Times,serif" font-size="14.00">विशेषणम्</text>
</g>
<!-- Node13_1 -->
<g id="node6" class="node">
<title>Node13_1</title>
<ellipse fill="#ff1975" stroke="#ff1975" cx="158" cy="-208" rx="61.99" ry="18"/>
<text text-anchor="middle" x="158" y="-204.3" font-family="Times,serif" font-size="14.00">(दीयते)(13.1)</text>
</g>
<!-- Node1_1&#45;&gt;Node13_1 -->
<g id="edge1" class="edge">
<title>Node1_1&#45;&gt;Node13_1</title>
<path fill="none" stroke="black" d="M77.98,-146.3C85.31,-154.92 94.08,-164.36 103,-172 111.43,-179.21 121.46,-186.03 130.64,-191.7"/>
<polygon fill="black" stroke="black" points="80.5,-143.86 71.43,-138.38 75.11,-148.32 80.5,-143.86"/>
<text text-anchor="middle" x="130.5" y="-160.8" font-family="Times,serif" font-size="14.00">अधिकरणम्</text>
</g>
<!-- Node11_2 -->
<g id="node3" class="node">
<title>Node11_2</title>
<ellipse fill="#87ceeb" stroke="#87ceeb" cx="435" cy="-121" rx="57.39" ry="18"/>
<text text-anchor="middle" x="435" y="-117.3" font-family="Times,serif" font-size="14.00">पुत्रस्य(11.2)</text>
</g>
<!-- Node9_1 -->
<g id="node4" class="node">
<title>Node9_1</title>
<ellipse fill="#b4ffb4" stroke="#b4ffb4" cx="384" cy="-208" rx="53.89" ry="18"/>
<text text-anchor="middle" x="384" y="-204.3" font-family="Times,serif" font-size="14.00">वचनात्(9.1)</text>
</g>
<!-- Node11_2&#45;&gt;Node9_1 -->
<g id="edge12" class="edge">
<title>Node11_2&#45;&gt;Node9_1</title>
<path fill="none" stroke="black" d="M419.76,-147.4C411.44,-161.26 401.38,-178.03 394.06,-190.24"/>
<polygon fill="black" stroke="black" points="422.78,-149.17 424.92,-138.79 416.78,-145.57 422.78,-149.17"/>
<text text-anchor="middle" x="434.5" y="-160.8" font-family="Times,serif" font-size="14.00">विशेषणम्</text>
</g>
<!-- Node8_1 -->
<g id="node7" class="node">
<title>Node8_1</title>
<ellipse fill="#ff1975" stroke="#ff1975" cx="171" cy="-295" rx="48.99" ry="18"/>
<text text-anchor="middle" x="171" y="-291.3" font-family="Times,serif" font-size="14.00">दीयते(8.1)</text>
</g>
<!-- Node9_1&#45;&gt;Node8_1 -->
<g id="edge9" class="edge">
<title>Node9_1&#45;&gt;Node8_1</title>
<path fill="none" stroke="black" d="M341.3,-226.04C300.48,-242.33 239.83,-266.53 203,-281.23"/>
<polygon fill="black" stroke="black" points="342.73,-229.24 350.72,-222.28 340.13,-222.74 342.73,-229.24"/>
<text text-anchor="middle" x="299.5" y="-247.8" font-family="Times,serif" font-size="14.00">हेतुः</text>
</g>
<!-- Node12_1 -->
<g id="node5" class="node">
<title>Node12_1</title>
<ellipse fill="#87ceeb" stroke="#87ceeb" cx="302" cy="-121" rx="57.69" ry="18"/>
<text text-anchor="middle" x="302" y="-117.3" font-family="Times,serif" font-size="14.00">धीमतः(12.1)</text>
</g>
<!-- Node12_1&#45;&gt;Node9_1 -->
<g id="edge13" class="edge">
<title>Node12_1&#45;&gt;Node9_1</title>
<path fill="none" stroke="black" d="M325.07,-145.91C338.85,-160.2 356,-177.98 368.24,-190.66"/>
<polygon fill="black" stroke="black" points="327.27,-143.16 317.81,-138.39 322.23,-148.02 327.27,-143.16"/>
<text text-anchor="middle" x="369.5" y="-160.8" font-family="Times,serif" font-size="14.00">विशेषणम्</text>
</g>
<!-- Node13_1&#45;&gt;Node8_1 -->
<g id="edge14" class="edge">
<title>Node13_1&#45;&gt;Node8_1</title>
<path fill="none" stroke="black" d="M162.17,-236.27C164.21,-249.58 166.59,-265.19 168.37,-276.82"/>
<polygon fill="black" stroke="black" points="165.6,-235.56 160.63,-226.2 158.68,-236.62 165.6,-235.56"/>
<text text-anchor="middle" x="187.5" y="-247.8" font-family="Times,serif" font-size="14.00">समुच्चितः</text>
</g>
<!-- Node3_1 -->
<g id="node8" class="node">
<title>Node3_1</title>
<ellipse fill="#ffff00" stroke="#ffff00" cx="168" cy="-34" rx="45.49" ry="18"/>
<text text-anchor="middle" x="168" y="-30.3" font-family="Times,serif" font-size="14.00">दश&#45;(3.1)</text>
</g>
<!-- Node3_2 -->
<g id="node9" class="node">
<title>Node3_2</title>
<ellipse fill="#93db70" stroke="#93db70" cx="168" cy="-121" rx="48.19" ry="18"/>
<text text-anchor="middle" x="168" y="-117.3" font-family="Times,serif" font-size="14.00">शतम्(3.2)</text>
</g>
<!-- Node3_1&#45;&gt;Node3_2 -->
<g id="edge3" class="edge">
<title>Node3_1&#45;&gt;Node3_2</title>
<path fill="none" stroke="black" d="M168,-62.27C168,-75.58 168,-91.19 168,-102.82"/>
<polygon fill="black" stroke="black" points="171.5,-62.2 168,-52.2 164.5,-62.2 171.5,-62.2"/>
<text text-anchor="middle" x="185" y="-73.8" font-family="Times,serif" font-size="14.00">समासः</text>
</g>
<!-- Node3_2&#45;&gt;Node13_1 -->
<g id="edge4" class="edge">
<title>Node3_2&#45;&gt;Node13_1</title>
<path fill="none" stroke="black" d="M164.79,-149.27C163.23,-162.58 161.39,-178.19 160.02,-189.82"/>
<polygon fill="black" stroke="black" points="168.28,-149.54 165.98,-139.2 161.33,-148.72 168.28,-149.54"/>
<text text-anchor="middle" x="172" y="-160.8" font-family="Times,serif" font-size="14.00">कर्म</text>
</g>
<!-- Node4_1 -->
<g id="node10" class="node">
<title>Node4_1</title>
<ellipse fill="#c6e2eb" stroke="#c6e2eb" cx="557" cy="-208" rx="48.99" ry="18"/>
<text text-anchor="middle" x="557" y="-204.3" font-family="Times,serif" font-size="14.00">सहस्रे(4.1)</text>
</g>
<!-- Node4_1&#45;&gt;Node8_1 -->
<g id="edge5" class="edge">
<title>Node4_1&#45;&gt;Node8_1</title>
<path fill="none" stroke="black" d="M521.1,-227.47C515.47,-229.91 509.65,-232.19 504,-234 404.55,-265.8 282.66,-282.37 217.44,-289.52"/>
<polygon fill="black" stroke="black" points="522.68,-230.6 530.32,-223.25 519.77,-224.23 522.68,-230.6"/>
<text text-anchor="middle" x="495.5" y="-247.8" font-family="Times,serif" font-size="14.00">अधिकरणम्</text>
</g>
<!-- Node5_1 -->
<g id="node11" class="node">
<title>Node5_1</title>
<ellipse fill="#ff99ff" stroke="#ff99ff" cx="661" cy="-208" rx="37.89" ry="18"/>
<text text-anchor="middle" x="661" y="-204.3" font-family="Times,serif" font-size="14.00">च(5.1)</text>
</g>
<!-- Node5_1&#45;&gt;Node8_1 -->
<g id="edge6" class="edge">
<title>Node5_1&#45;&gt;Node8_1</title>
<path fill="none" stroke="black" d="M629.59,-227.25C624.79,-229.7 619.82,-232.03 615,-234 577.35,-249.36 566.95,-251.43 527,-259 418.09,-279.65 287.98,-288.52 219.18,-292"/>
<polygon fill="black" stroke="black" points="631.37,-230.27 638.56,-222.49 628.08,-224.09 631.37,-230.27"/>
<text text-anchor="middle" x="626" y="-247.8" font-family="Times,serif" font-size="14.00">समुच्चय_द्योतकः</text>
</g>
<!-- Node6_1 -->
<g id="node12" class="node">
<title>Node6_1</title>
<ellipse fill="#93db70" stroke="#93db70" cx="770" cy="-208" rx="53.09" ry="18"/>
<text text-anchor="middle" x="770" y="-204.3" font-family="Times,serif" font-size="14.00">अयुतम्(6.1)</text>
</g>
<!-- Node6_1&#45;&gt;Node8_1 -->
<g id="edge7" class="edge">
<title>Node6_1&#45;&gt;Node8_1</title>
<path fill="none" stroke="black" d="M737.17,-229.14C717.78,-239.98 692.33,-252.45 668,-259 584.37,-281.52 327.47,-290.22 219.55,-292.95"/>
<polygon fill="black" stroke="black" points="738.97,-232.14 745.9,-224.14 735.49,-226.07 738.97,-232.14"/>
<text text-anchor="middle" x="714" y="-247.8" font-family="Times,serif" font-size="14.00">कर्म</text>
</g>
<!-- Node7_1 -->
<g id="node13" class="node">
<title>Node7_1</title>
<ellipse fill="#ff99ff" stroke="#ff99ff" cx="886" cy="-208" rx="44.69" ry="18"/>
<text text-anchor="middle" x="886" y="-204.3" font-family="Times,serif" font-size="14.00">तथा(7.1)</text>
</g>
<!-- Node7_1&#45;&gt;Node8_1 -->
<g id="edge8" class="edge">
<title>Node7_1&#45;&gt;Node8_1</title>
<path fill="none" stroke="black" d="M850.3,-226.74C844.28,-229.38 838.02,-231.91 832,-234 786.67,-249.71 774.44,-251.91 727,-259 540.95,-286.8 316.66,-292.56 219.63,-293.72"/>
<polygon fill="black" stroke="black" points="851.87,-229.87 859.52,-222.54 848.97,-223.5 851.87,-229.87"/>
<text text-anchor="middle" x="838" y="-247.8" font-family="Times,serif" font-size="14.00">समुच्चय_द्योतकः</text>
</g>
<!-- Node10_1 -->
<g id="node14" class="node">
<title>Node10_1</title>
<ellipse fill="#87ceeb" stroke="#87ceeb" cx="562" cy="-121" rx="51.99" ry="18"/>
<text text-anchor="middle" x="562" y="-117.3" font-family="Times,serif" font-size="14.00">राज्ञः(10.1)</text>
</g>
<!-- Node10_1&#45;&gt;Node9_1 -->
<g id="edge10" class="edge">
<title>Node10_1&#45;&gt;Node9_1</title>
<path fill="none" stroke="black" d="M524.88,-140.74C505.85,-150.26 482.27,-161.91 461,-172 446.01,-179.12 429.25,-186.77 415.2,-193.1"/>
<polygon fill="black" stroke="black" points="526.45,-143.87 533.82,-136.26 523.32,-137.61 526.45,-143.87"/>
<text text-anchor="middle" x="518.5" y="-160.8" font-family="Times,serif" font-size="14.00">षष्ठीसम्बन्धः</text>
</g>
<!-- Node11_1 -->
<g id="node15" class="node">
<title>Node11_1</title>
<ellipse fill="#ffff00" stroke="#ffff00" cx="435" cy="-34" rx="57.39" ry="18"/>
<text text-anchor="middle" x="435" y="-30.3" font-family="Times,serif" font-size="14.00">कुन्ती&#45;(11.1)</text>
</g>
<!-- Node11_1&#45;&gt;Node11_2 -->
<g id="edge11" class="edge">
<title>Node11_1&#45;&gt;Node11_2</title>
<path fill="none" stroke="black" d="M435,-62.27C435,-75.58 435,-91.19 435,-102.82"/>
<polygon fill="black" stroke="black" points="438.5,-62.2 435,-52.2 431.5,-62.2 438.5,-62.2"/>
<text text-anchor="middle" x="452" y="-73.8" font-family="Times,serif" font-size="14.00">समासः</text>
</g>
</g>
</svg>
