<?xml version="1.0" encoding="UTF-8" standalone="no"?>
<!DOCTYPE svg PUBLIC "-//W3C//DTD SVG 1.1//EN"
 "http://www.w3.org/Graphics/SVG/1.1/DTD/svg11.dtd">
<!-- Generated by graphviz version 2.43.0 (0)
 -->
<!-- Title: G Pages: 1 -->
<svg width="668pt" height="479pt"
 viewBox="0.00 0.00 668.00 479.00" xmlns="http://www.w3.org/2000/svg" xmlns:xlink="http://www.w3.org/1999/xlink">
<g id="graph0" class="graph" transform="scale(1 1) rotate(0) translate(4 475)">
<title>G</title>
<polygon fill="#fffacd" stroke="transparent" points="-4,4 -4,-475 664,-475 664,4 -4,4"/>
<g id="clust1" class="cluster">
<title>cluster_1</title>
<polygon fill="#fffacd" stroke="black" points="236,-253 236,-392 491,-392 491,-253 236,-253"/>
</g>
<g id="clust2" class="cluster">
<title>cluster_2</title>
<polygon fill="#fffacd" stroke="black" points="8,-253 8,-392 126,-392 126,-253 8,-253"/>
</g>
<!-- Node4_1 -->
<g id="node1" class="node">
<title>Node4_1</title>
<ellipse fill="#00bfff" stroke="#00bfff" cx="302" cy="-279" rx="57.69" ry="18"/>
<text text-anchor="middle" x="302" y="-275.3" font-family="Times,serif" font-size="14.00">वर्षमाणः(4.1)</text>
</g>
<!-- Node2_1 -->
<g id="node2" class="node">
<title>Node2_1</title>
<ellipse fill="#00bfff" stroke="#00bfff" cx="302" cy="-366" rx="40.09" ry="18"/>
<text text-anchor="middle" x="302" y="-362.3" font-family="Times,serif" font-size="14.00">सः(2.1)</text>
</g>
<!-- Node4_1&#45;&gt;Node2_1 -->
<g id="edge5" class="edge">
<title>Node4_1&#45;&gt;Node2_1</title>
<path fill="none" stroke="black" d="M302,-307.27C302,-320.58 302,-336.19 302,-347.82"/>
<polygon fill="black" stroke="black" points="305.5,-307.2 302,-297.2 298.5,-307.2 305.5,-307.2"/>
<text text-anchor="middle" x="324.5" y="-318.8" font-family="Times,serif" font-size="14.00">विशेषणम्</text>
</g>
<!-- Node6_1 -->
<g id="node7" class="node">
<title>Node6_1</title>
<ellipse fill="#ff1975" stroke="#ff1975" cx="182" cy="-453" rx="62.29" ry="18"/>
<text text-anchor="middle" x="182" y="-449.3" font-family="Times,serif" font-size="14.00">तर्पयामास(6.1)</text>
</g>
<!-- Node2_1&#45;&gt;Node6_1 -->
<g id="edge2" class="edge">
<title>Node2_1&#45;&gt;Node6_1</title>
<path fill="none" stroke="black" d="M283.08,-391.23C275.35,-400.09 265.89,-409.72 256,-417 244.55,-425.42 230.76,-432.61 218.2,-438.23"/>
<polygon fill="black" stroke="black" points="285.92,-393.3 289.67,-383.39 280.56,-388.79 285.92,-393.3"/>
<text text-anchor="middle" x="284" y="-405.8" font-family="Times,serif" font-size="14.00">कर्ता</text>
</g>
<!-- Node5_2 -->
<g id="node3" class="node">
<title>Node5_2</title>
<ellipse fill="#00bfff" stroke="#00bfff" cx="430" cy="-279" rx="52.79" ry="18"/>
<text text-anchor="middle" x="430" y="-275.3" font-family="Times,serif" font-size="14.00">अम्बुदः(5.2)</text>
</g>
<!-- Node5_2&#45;&gt;Node2_1 -->
<g id="edge7" class="edge">
<title>Node5_2&#45;&gt;Node2_1</title>
<path fill="none" stroke="black" d="M398.34,-301.03C375.12,-316.44 344.2,-336.98 323.73,-350.57"/>
<polygon fill="black" stroke="black" points="400.43,-303.84 406.82,-295.39 396.55,-298.01 400.43,-303.84"/>
<text text-anchor="middle" x="396.5" y="-318.8" font-family="Times,serif" font-size="14.00">विशेषणम्</text>
</g>
<!-- Node8_1 -->
<g id="node4" class="node">
<title>Node8_1</title>
<ellipse fill="#93db70" stroke="#93db70" cx="67" cy="-279" rx="44.39" ry="18"/>
<text text-anchor="middle" x="67" y="-275.3" font-family="Times,serif" font-size="14.00">तान्(8.1)</text>
</g>
<!-- Node7_1 -->
<g id="node5" class="node">
<title>Node7_1</title>
<ellipse fill="#93db70" stroke="#93db70" cx="67" cy="-366" rx="51.19" ry="18"/>
<text text-anchor="middle" x="67" y="-362.3" font-family="Times,serif" font-size="14.00">विप्रान्(7.1)</text>
</g>
<!-- Node8_1&#45;&gt;Node7_1 -->
<g id="edge9" class="edge">
<title>Node8_1&#45;&gt;Node7_1</title>
<path fill="none" stroke="black" d="M67,-307.27C67,-320.58 67,-336.19 67,-347.82"/>
<polygon fill="black" stroke="black" points="70.5,-307.2 67,-297.2 63.5,-307.2 70.5,-307.2"/>
<text text-anchor="middle" x="89.5" y="-318.8" font-family="Times,serif" font-size="14.00">विशेषणम्</text>
</g>
<!-- Node7_1&#45;&gt;Node6_1 -->
<g id="edge8" class="edge">
<title>Node7_1&#45;&gt;Node6_1</title>
<path fill="none" stroke="black" d="M96.23,-388.6C116.16,-403.34 142.14,-422.54 160.26,-435.93"/>
<polygon fill="black" stroke="black" points="98.21,-385.72 88.09,-382.59 94.05,-391.35 98.21,-385.72"/>
<text text-anchor="middle" x="141" y="-405.8" font-family="Times,serif" font-size="14.00">कर्म</text>
</g>
<!-- Node1_1 -->
<g id="node6" class="node">
<title>Node1_1</title>
<ellipse fill="#ff99ff" stroke="#ff99ff" cx="182" cy="-366" rx="46.29" ry="18"/>
<text text-anchor="middle" x="182" y="-362.3" font-family="Times,serif" font-size="14.00">एवम्(1.1)</text>
</g>
<!-- Node1_1&#45;&gt;Node6_1 -->
<g id="edge1" class="edge">
<title>Node1_1&#45;&gt;Node6_1</title>
<path fill="none" stroke="black" d="M182,-394.27C182,-407.58 182,-423.19 182,-434.82"/>
<polygon fill="black" stroke="black" points="185.5,-394.2 182,-384.2 178.5,-394.2 185.5,-394.2"/>
<text text-anchor="middle" x="217" y="-405.8" font-family="Times,serif" font-size="14.00">क्रियाविशेषणम्</text>
</g>
<!-- Node3_1 -->
<g id="node8" class="node">
<title>Node3_1</title>
<ellipse fill="#ffff00" stroke="#ffff00" cx="302" cy="-105" rx="45.49" ry="18"/>
<text text-anchor="middle" x="302" y="-101.3" font-family="Times,serif" font-size="14.00">वसु&#45;(3.1)</text>
</g>
<!-- Node3_2 -->
<g id="node9" class="node">
<title>Node3_2</title>
<ellipse fill="#40e0d0" stroke="#40e0d0" cx="302" cy="-192" rx="56.59" ry="18"/>
<text text-anchor="middle" x="302" y="-188.3" font-family="Times,serif" font-size="14.00">धाराभिः(3.2)</text>
</g>
<!-- Node3_1&#45;&gt;Node3_2 -->
<g id="edge3" class="edge">
<title>Node3_1&#45;&gt;Node3_2</title>
<path fill="none" stroke="black" d="M302,-133.27C302,-146.58 302,-162.19 302,-173.82"/>
<polygon fill="black" stroke="black" points="305.5,-133.2 302,-123.2 298.5,-133.2 305.5,-133.2"/>
<text text-anchor="middle" x="319" y="-144.8" font-family="Times,serif" font-size="14.00">समासः</text>
</g>
<!-- Node3_2&#45;&gt;Node4_1 -->
<g id="edge4" class="edge">
<title>Node3_2&#45;&gt;Node4_1</title>
<path fill="none" stroke="black" d="M302,-220.27C302,-233.58 302,-249.19 302,-260.82"/>
<polygon fill="black" stroke="black" points="305.5,-220.2 302,-210.2 298.5,-220.2 305.5,-220.2"/>
<text text-anchor="middle" x="318.5" y="-231.8" font-family="Times,serif" font-size="14.00">करणम्</text>
</g>
<!-- Node5_1 -->
<g id="node10" class="node">
<title>Node5_1</title>
<ellipse fill="#ffff00" stroke="#ffff00" cx="425" cy="-192" rx="44.69" ry="18"/>
<text text-anchor="middle" x="425" y="-188.3" font-family="Times,serif" font-size="14.00">नृप&#45;(5.1)</text>
</g>
<!-- Node5_1&#45;&gt;Node5_2 -->
<g id="edge6" class="edge">
<title>Node5_1&#45;&gt;Node5_2</title>
<path fill="none" stroke="black" d="M426.6,-220.27C427.39,-233.58 428.31,-249.19 428.99,-260.82"/>
<polygon fill="black" stroke="black" points="430.09,-219.98 426.01,-210.2 423.11,-220.39 430.09,-219.98"/>
<text text-anchor="middle" x="445" y="-231.8" font-family="Times,serif" font-size="14.00">समासः</text>
</g>
<!-- Node9_1 -->
<g id="node11" class="node">
<title>Node9_1</title>
<ellipse fill="#00bfff" stroke="#00bfff" cx="490" cy="-105" rx="46.29" ry="18"/>
<text text-anchor="middle" x="490" y="-101.3" font-family="Times,serif" font-size="14.00">वर्षन्(9.1)</text>
</g>
<!-- Node12_1 -->
<g id="node12" class="node">
<title>Node12_1</title>
<ellipse fill="#00bfff" stroke="#00bfff" cx="546" cy="-192" rx="58.49" ry="18"/>
<text text-anchor="middle" x="546" y="-188.3" font-family="Times,serif" font-size="14.00">अम्बुदः(12.1)</text>
</g>
<!-- Node9_1&#45;&gt;Node12_1 -->
<g id="edge10" class="edge">
<title>Node9_1&#45;&gt;Node12_1</title>
<path fill="none" stroke="black" d="M482.95,-133.39C482.36,-141.11 483.15,-149.25 487,-156 492.3,-165.31 501.17,-172.41 510.44,-177.69"/>
<polygon fill="black" stroke="black" points="486.45,-133.68 484.47,-123.27 479.53,-132.65 486.45,-133.68"/>
<text text-anchor="middle" x="531" y="-144.8" font-family="Times,serif" font-size="14.00">वर्तमानसमानकालः</text>
</g>
<!-- Node12_1&#45;&gt;Node5_2 -->
<g id="edge13" class="edge">
<title>Node12_1&#45;&gt;Node5_2</title>
<path fill="none" stroke="black" d="M516.19,-214.85C495.94,-229.68 469.63,-248.96 451.43,-262.3"/>
<polygon fill="black" stroke="black" points="518.46,-217.52 524.45,-208.79 514.32,-211.88 518.46,-217.52"/>
<text text-anchor="middle" x="514.5" y="-231.8" font-family="Times,serif" font-size="14.00">उपमानम्</text>
</g>
<!-- Node10_1 -->
<g id="node13" class="node">
<title>Node10_1</title>
<ellipse fill="#93db70" stroke="#93db70" cx="490" cy="-18" rx="55.79" ry="18"/>
<text text-anchor="middle" x="490" y="-14.3" font-family="Times,serif" font-size="14.00">भूमिम्(10.1)</text>
</g>
<!-- Node10_1&#45;&gt;Node9_1 -->
<g id="edge11" class="edge">
<title>Node10_1&#45;&gt;Node9_1</title>
<path fill="none" stroke="black" d="M490,-46.27C490,-59.58 490,-75.19 490,-86.82"/>
<polygon fill="black" stroke="black" points="493.5,-46.2 490,-36.2 486.5,-46.2 493.5,-46.2"/>
<text text-anchor="middle" x="499" y="-57.8" font-family="Times,serif" font-size="14.00">कर्म</text>
</g>
<!-- Node11_1 -->
<g id="node14" class="node">
<title>Node11_1</title>
<ellipse fill="#ff99ff" stroke="#ff99ff" cx="601" cy="-105" rx="46.59" ry="18"/>
<text text-anchor="middle" x="601" y="-101.3" font-family="Times,serif" font-size="14.00">इव(11.1)</text>
</g>
<!-- Node11_1&#45;&gt;Node12_1 -->
<g id="edge12" class="edge">
<title>Node11_1&#45;&gt;Node12_1</title>
<path fill="none" stroke="black" d="M591.35,-132.47C587.96,-140.33 583.79,-148.77 579,-156 574.66,-162.54 569.06,-169 563.71,-174.55"/>
<polygon fill="black" stroke="black" points="594.7,-133.53 595.21,-122.95 588.21,-130.9 594.7,-133.53"/>
<text text-anchor="middle" x="623.5" y="-144.8" font-family="Times,serif" font-size="14.00">उपमान_द्योतकः</text>
</g>
</g>
</svg>
