<?xml version="1.0" encoding="UTF-8" standalone="no"?>
<!DOCTYPE svg PUBLIC "-//W3C//DTD SVG 1.1//EN"
 "http://www.w3.org/Graphics/SVG/1.1/DTD/svg11.dtd">
<!-- Generated by graphviz version 2.43.0 (0)
 -->
<!-- Title: G Pages: 1 -->
<svg width="647pt" height="305pt"
 viewBox="0.00 0.00 647.19 305.00" xmlns="http://www.w3.org/2000/svg" xmlns:xlink="http://www.w3.org/1999/xlink">
<g id="graph0" class="graph" transform="scale(1 1) rotate(0) translate(4 301)">
<title>G</title>
<polygon fill="#fffacd" stroke="transparent" points="-4,4 -4,-301 643.19,-301 643.19,4 -4,4"/>
<g id="clust1" class="cluster">
<title>cluster_1</title>
<polygon fill="#fffacd" stroke="black" points="292.9,-79 292.9,-218 432.9,-218 432.9,-79 292.9,-79"/>
</g>
<!-- Node8_1 -->
<g id="node1" class="node">
<title>Node8_1</title>
<ellipse fill="#93db70" stroke="#93db70" cx="362.9" cy="-105" rx="62.29" ry="18"/>
<text text-anchor="middle" x="362.9" y="-101.3" font-family="Times,serif" font-size="14.00">उपस्थितम्(8.1)</text>
</g>
<!-- Node7_1 -->
<g id="node2" class="node">
<title>Node7_1</title>
<ellipse fill="#93db70" stroke="#93db70" cx="353.9" cy="-192" rx="42.49" ry="18"/>
<text text-anchor="middle" x="353.9" y="-188.3" font-family="Times,serif" font-size="14.00">तत्(7.1)</text>
</g>
<!-- Node8_1&#45;&gt;Node7_1 -->
<g id="edge7" class="edge">
<title>Node8_1&#45;&gt;Node7_1</title>
<path fill="none" stroke="black" d="M360.01,-133.27C358.6,-146.58 356.95,-162.19 355.71,-173.82"/>
<polygon fill="black" stroke="black" points="363.5,-133.51 361.07,-123.2 356.54,-132.78 363.5,-133.51"/>
<text text-anchor="middle" x="381.4" y="-144.8" font-family="Times,serif" font-size="14.00">विशेषणम्</text>
</g>
<!-- Node12_1 -->
<g id="node10" class="node">
<title>Node12_1</title>
<ellipse fill="#ff1975" stroke="#ff1975" cx="234.9" cy="-279" rx="60.39" ry="18"/>
<text text-anchor="middle" x="234.9" y="-275.3" font-family="Times,serif" font-size="14.00">प्रदृश्यते(12.1)</text>
</g>
<!-- Node7_1&#45;&gt;Node12_1 -->
<g id="edge6" class="edge">
<title>Node7_1&#45;&gt;Node12_1</title>
<path fill="none" stroke="black" d="M332.66,-216.66C323.96,-225.56 313.47,-235.36 302.9,-243 292.02,-250.85 279.15,-257.95 267.54,-263.68"/>
<polygon fill="black" stroke="black" points="335.44,-218.81 339.79,-209.15 330.37,-213.99 335.44,-218.81"/>
<text text-anchor="middle" x="329.9" y="-231.8" font-family="Times,serif" font-size="14.00">कर्म</text>
</g>
<!-- Node1_1 -->
<g id="node3" class="node">
<title>Node1_1</title>
<ellipse fill="#ff1975" stroke="#ff1975" cx="542.9" cy="-192" rx="57.69" ry="18"/>
<text text-anchor="middle" x="542.9" y="-188.3" font-family="Times,serif" font-size="14.00">आज्ञापय(1.1)</text>
</g>
<!-- Node2_1 -->
<g id="node4" class="node">
<title>Node2_1</title>
<ellipse fill="#ff99ff" stroke="#ff99ff" cx="468.9" cy="-18" rx="46.29" ry="18"/>
<text text-anchor="middle" x="468.9" y="-14.3" font-family="Times,serif" font-size="14.00">किम्(2.1)</text>
</g>
<!-- Node4_1 -->
<g id="node5" class="node">
<title>Node4_1</title>
<ellipse fill="#93db70" stroke="#93db70" cx="542.9" cy="-105" rx="51.19" ry="18"/>
<text text-anchor="middle" x="542.9" y="-101.3" font-family="Times,serif" font-size="14.00">प्रदेयम्(4.1)</text>
</g>
<!-- Node2_1&#45;&gt;Node4_1 -->
<g id="edge1" class="edge">
<title>Node2_1&#45;&gt;Node4_1</title>
<path fill="none" stroke="black" d="M490.06,-43.31C502.44,-57.53 517.73,-75.09 528.67,-87.66"/>
<polygon fill="black" stroke="black" points="492.37,-40.63 483.16,-35.39 487.09,-45.23 492.37,-40.63"/>
<text text-anchor="middle" x="518.9" y="-57.8" font-family="Times,serif" font-size="14.00">कर्म</text>
</g>
<!-- Node4_1&#45;&gt;Node1_1 -->
<g id="edge3" class="edge">
<title>Node4_1&#45;&gt;Node1_1</title>
<path fill="none" stroke="black" d="M542.9,-133.27C542.9,-146.58 542.9,-162.19 542.9,-173.82"/>
<polygon fill="black" stroke="black" points="546.4,-133.2 542.9,-123.2 539.4,-133.2 546.4,-133.2"/>
<text text-anchor="middle" x="551.9" y="-144.8" font-family="Times,serif" font-size="14.00">कर्म</text>
</g>
<!-- Node3_1 -->
<g id="node6" class="node">
<title>Node3_1</title>
<ellipse fill="#b0e2ff" stroke="#b0e2ff" cx="585.9" cy="-18" rx="53.09" ry="18"/>
<text text-anchor="middle" x="585.9" y="-14.3" font-family="Times,serif" font-size="14.00">एतेभ्यः(3.1)</text>
</g>
<!-- Node3_1&#45;&gt;Node4_1 -->
<g id="edge2" class="edge">
<title>Node3_1&#45;&gt;Node4_1</title>
<path fill="none" stroke="black" d="M572.84,-44.8C565.87,-58.58 557.49,-75.14 551.37,-87.24"/>
<polygon fill="black" stroke="black" points="576.01,-46.3 577.4,-35.79 569.76,-43.14 576.01,-46.3"/>
<text text-anchor="middle" x="590.4" y="-57.8" font-family="Times,serif" font-size="14.00">सम्प्रदानम्</text>
</g>
<!-- Node5_1 -->
<g id="node7" class="node">
<title>Node5_1</title>
<ellipse fill="#ff1975" stroke="#ff1975" cx="55.9" cy="-18" rx="55.79" ry="18"/>
<text text-anchor="middle" x="55.9" y="-14.3" font-family="Times,serif" font-size="14.00">दीयताम्(5.1)</text>
</g>
<!-- Node6_1 -->
<g id="node8" class="node">
<title>Node6_1</title>
<ellipse fill="#ff99ff" stroke="#ff99ff" cx="55.9" cy="-105" rx="44.39" ry="18"/>
<text text-anchor="middle" x="55.9" y="-101.3" font-family="Times,serif" font-size="14.00">इति(6.1)</text>
</g>
<!-- Node5_1&#45;&gt;Node6_1 -->
<g id="edge4" class="edge">
<title>Node5_1&#45;&gt;Node6_1</title>
<path fill="none" stroke="black" d="M55.9,-46.27C55.9,-59.58 55.9,-75.19 55.9,-86.82"/>
<polygon fill="black" stroke="black" points="59.4,-46.2 55.9,-36.2 52.4,-46.2 59.4,-46.2"/>
<text text-anchor="middle" x="75.9" y="-57.8" font-family="Times,serif" font-size="14.00">अनुयोगी</text>
</g>
<!-- Node11_2 -->
<g id="node9" class="node">
<title>Node11_2</title>
<ellipse fill="#c6e2eb" stroke="#c6e2eb" cx="114.9" cy="-192" rx="51.99" ry="18"/>
<text text-anchor="middle" x="114.9" y="-188.3" font-family="Times,serif" font-size="14.00">अन्ते(11.2)</text>
</g>
<!-- Node6_1&#45;&gt;Node11_2 -->
<g id="edge5" class="edge">
<title>Node6_1&#45;&gt;Node11_2</title>
<path fill="none" stroke="black" d="M73.53,-131.4C83.15,-145.26 94.78,-162.03 103.26,-174.24"/>
<polygon fill="black" stroke="black" points="76.13,-129.01 67.55,-122.79 70.38,-133 76.13,-129.01"/>
<text text-anchor="middle" x="110.9" y="-144.8" font-family="Times,serif" font-size="14.00">प्रतियोगी</text>
</g>
<!-- Node11_2&#45;&gt;Node12_1 -->
<g id="edge11" class="edge">
<title>Node11_2&#45;&gt;Node12_1</title>
<path fill="none" stroke="black" d="M140.7,-215.61C151.32,-224.52 163.92,-234.61 175.9,-243 185.84,-249.97 197.23,-256.94 207.33,-262.81"/>
<polygon fill="black" stroke="black" points="142.9,-212.88 133.01,-209.07 138.36,-218.21 142.9,-212.88"/>
<text text-anchor="middle" x="203.4" y="-231.8" font-family="Times,serif" font-size="14.00">अधिकरणम्</text>
</g>
<!-- Node9_1 -->
<g id="node11" class="node">
<title>Node9_1</title>
<ellipse fill="#ff99ff" stroke="#ff99ff" cx="362.9" cy="-18" rx="41.69" ry="18"/>
<text text-anchor="middle" x="362.9" y="-14.3" font-family="Times,serif" font-size="14.00">एव(9.1)</text>
</g>
<!-- Node9_1&#45;&gt;Node8_1 -->
<g id="edge8" class="edge">
<title>Node9_1&#45;&gt;Node8_1</title>
<path fill="none" stroke="black" d="M362.9,-46.27C362.9,-59.58 362.9,-75.19 362.9,-86.82"/>
<polygon fill="black" stroke="black" points="366.4,-46.2 362.9,-36.2 359.4,-46.2 366.4,-46.2"/>
<text text-anchor="middle" x="381.4" y="-57.8" font-family="Times,serif" font-size="14.00">सम्बन्धः</text>
</g>
<!-- Node10_1 -->
<g id="node12" class="node">
<title>Node10_1</title>
<ellipse fill="#ff99ff" stroke="#ff99ff" cx="234.9" cy="-192" rx="50.09" ry="18"/>
<text text-anchor="middle" x="234.9" y="-188.3" font-family="Times,serif" font-size="14.00">अत्र(10.1)</text>
</g>
<!-- Node10_1&#45;&gt;Node12_1 -->
<g id="edge9" class="edge">
<title>Node10_1&#45;&gt;Node12_1</title>
<path fill="none" stroke="black" d="M234.9,-220.27C234.9,-233.58 234.9,-249.19 234.9,-260.82"/>
<polygon fill="black" stroke="black" points="238.4,-220.2 234.9,-210.2 231.4,-220.2 238.4,-220.2"/>
<text text-anchor="middle" x="266.9" y="-231.8" font-family="Times,serif" font-size="14.00">देशाधिकरणम्</text>
</g>
<!-- Node11_1 -->
<g id="node13" class="node">
<title>Node11_1</title>
<ellipse fill="#ffff00" stroke="#ffff00" cx="173.9" cy="-105" rx="55.79" ry="18"/>
<text text-anchor="middle" x="173.9" y="-101.3" font-family="Times,serif" font-size="14.00">वचन&#45;(11.1)</text>
</g>
<!-- Node11_1&#45;&gt;Node11_2 -->
<g id="edge10" class="edge">
<title>Node11_1&#45;&gt;Node11_2</title>
<path fill="none" stroke="black" d="M156.26,-131.4C146.64,-145.26 135.01,-162.03 126.53,-174.24"/>
<polygon fill="black" stroke="black" points="159.41,-133 162.24,-122.79 153.66,-129.01 159.41,-133"/>
<text text-anchor="middle" x="165.9" y="-144.8" font-family="Times,serif" font-size="14.00">समासः</text>
</g>
</g>
</svg>
