<?xml version="1.0" encoding="UTF-8" standalone="no"?>
<!DOCTYPE svg PUBLIC "-//W3C//DTD SVG 1.1//EN"
 "http://www.w3.org/Graphics/SVG/1.1/DTD/svg11.dtd">
<!-- Generated by graphviz version 2.43.0 (0)
 -->
<!-- Title: G Pages: 1 -->
<svg width="716pt" height="392pt"
 viewBox="0.00 0.00 716.20 392.00" xmlns="http://www.w3.org/2000/svg" xmlns:xlink="http://www.w3.org/1999/xlink">
<g id="graph0" class="graph" transform="scale(1 1) rotate(0) translate(4 388)">
<title>G</title>
<polygon fill="#fffacd" stroke="transparent" points="-4,4 -4,-388 712.2,-388 712.2,4 -4,4"/>
<g id="clust1" class="cluster">
<title>cluster_1</title>
<polygon fill="#fffacd" stroke="black" points="576.2,-166 576.2,-305 700.2,-305 700.2,-166 576.2,-166"/>
</g>
<!-- Node6_2 -->
<g id="node1" class="node">
<title>Node6_2</title>
<ellipse fill="#00bfff" stroke="#00bfff" cx="638.2" cy="-192" rx="46.59" ry="18"/>
<text text-anchor="middle" x="638.2" y="-188.3" font-family="Times,serif" font-size="14.00">पतिः(6.2)</text>
</g>
<!-- Node9_1 -->
<g id="node2" class="node">
<title>Node9_1</title>
<ellipse fill="#00bfff" stroke="#00bfff" cx="638.2" cy="-279" rx="53.89" ry="18"/>
<text text-anchor="middle" x="638.2" y="-275.3" font-family="Times,serif" font-size="14.00">पार्थिवः(9.1)</text>
</g>
<!-- Node6_2&#45;&gt;Node9_1 -->
<g id="edge8" class="edge">
<title>Node6_2&#45;&gt;Node9_1</title>
<path fill="none" stroke="black" d="M638.2,-220.27C638.2,-233.58 638.2,-249.19 638.2,-260.82"/>
<polygon fill="black" stroke="black" points="641.7,-220.2 638.2,-210.2 634.7,-220.2 641.7,-220.2"/>
<text text-anchor="middle" x="660.7" y="-231.8" font-family="Times,serif" font-size="14.00">विशेषणम्</text>
</g>
<!-- Node8_1 -->
<g id="node4" class="node">
<title>Node8_1</title>
<ellipse fill="#ff1975" stroke="#ff1975" cx="329.2" cy="-366" rx="68.49" ry="18"/>
<text text-anchor="middle" x="329.2" y="-362.3" font-family="Times,serif" font-size="14.00">प्लावयामास(8.1)</text>
</g>
<!-- Node9_1&#45;&gt;Node8_1 -->
<g id="edge13" class="edge">
<title>Node9_1&#45;&gt;Node8_1</title>
<path fill="none" stroke="black" d="M596.89,-297.33C589.72,-300.07 582.29,-302.74 575.2,-305 509.44,-325.96 431.81,-343.77 381.61,-354.42"/>
<polygon fill="black" stroke="black" points="598.42,-300.49 606.46,-293.59 595.87,-293.97 598.42,-300.49"/>
<text text-anchor="middle" x="547.2" y="-318.8" font-family="Times,serif" font-size="14.00">कर्ता</text>
</g>
<!-- Node1_1 -->
<g id="node3" class="node">
<title>Node1_1</title>
<ellipse fill="#ff99ff" stroke="#ff99ff" cx="44.2" cy="-279" rx="44.39" ry="18"/>
<text text-anchor="middle" x="44.2" y="-275.3" font-family="Times,serif" font-size="14.00">ततः(1.1)</text>
</g>
<!-- Node1_1&#45;&gt;Node8_1 -->
<g id="edge1" class="edge">
<title>Node1_1&#45;&gt;Node8_1</title>
<path fill="none" stroke="black" d="M80.66,-297.54C86.18,-300.09 91.82,-302.65 97.2,-305 124.42,-316.9 130.75,-321.41 159.2,-330 196.26,-341.19 238.95,-349.96 272.28,-355.93"/>
<polygon fill="black" stroke="black" points="82.11,-294.35 71.57,-293.28 79.14,-300.69 82.11,-294.35"/>
<text text-anchor="middle" x="177.7" y="-318.8" font-family="Times,serif" font-size="14.00">सम्बन्धः</text>
</g>
<!-- Node2_1 -->
<g id="node5" class="node">
<title>Node2_1</title>
<ellipse fill="#ff99ff" stroke="#ff99ff" cx="165.2" cy="-279" rx="59.29" ry="18"/>
<text text-anchor="middle" x="165.2" y="-275.3" font-family="Times,serif" font-size="14.00">अनन्तरम्(2.1)</text>
</g>
<!-- Node2_1&#45;&gt;Node8_1 -->
<g id="edge2" class="edge">
<title>Node2_1&#45;&gt;Node8_1</title>
<path fill="none" stroke="black" d="M186.97,-304.3C196.17,-313.39 207.47,-323.17 219.2,-330 237.38,-340.59 259.15,-348.38 278.51,-353.89"/>
<polygon fill="black" stroke="black" points="189.25,-301.62 179.77,-296.89 184.23,-306.5 189.25,-301.62"/>
<text text-anchor="middle" x="254.7" y="-318.8" font-family="Times,serif" font-size="14.00">कालाधिकरणम्</text>
</g>
<!-- Node3_1 -->
<g id="node6" class="node">
<title>Node3_1</title>
<ellipse fill="#ff99ff" stroke="#ff99ff" cx="165.2" cy="-192" rx="41.69" ry="18"/>
<text text-anchor="middle" x="165.2" y="-188.3" font-family="Times,serif" font-size="14.00">एव(3.1)</text>
</g>
<!-- Node3_1&#45;&gt;Node2_1 -->
<g id="edge3" class="edge">
<title>Node3_1&#45;&gt;Node2_1</title>
<path fill="none" stroke="black" d="M165.2,-220.27C165.2,-233.58 165.2,-249.19 165.2,-260.82"/>
<polygon fill="black" stroke="black" points="168.7,-220.2 165.2,-210.2 161.7,-220.2 168.7,-220.2"/>
<text text-anchor="middle" x="183.7" y="-231.8" font-family="Times,serif" font-size="14.00">सम्बन्धः</text>
</g>
<!-- Node4_1 -->
<g id="node7" class="node">
<title>Node4_1</title>
<ellipse fill="#ff99ff" stroke="#ff99ff" cx="286.2" cy="-279" rx="44.39" ry="18"/>
<text text-anchor="middle" x="286.2" y="-275.3" font-family="Times,serif" font-size="14.00">अत्र(4.1)</text>
</g>
<!-- Node4_1&#45;&gt;Node8_1 -->
<g id="edge4" class="edge">
<title>Node4_1&#45;&gt;Node8_1</title>
<path fill="none" stroke="black" d="M290.92,-307.3C292.86,-314.91 295.54,-323 299.2,-330 302.61,-336.53 307.44,-342.88 312.23,-348.35"/>
<polygon fill="black" stroke="black" points="294.3,-306.37 288.71,-297.37 287.47,-307.89 294.3,-306.37"/>
<text text-anchor="middle" x="331.2" y="-318.8" font-family="Times,serif" font-size="14.00">देशाधिकरणम्</text>
</g>
<!-- Node5_1 -->
<g id="node8" class="node">
<title>Node5_1</title>
<ellipse fill="#ffff00" stroke="#ffff00" cx="398.2" cy="-192" rx="45.49" ry="18"/>
<text text-anchor="middle" x="398.2" y="-188.3" font-family="Times,serif" font-size="14.00">सर्व&#45;(5.1)</text>
</g>
<!-- Node5_2 -->
<g id="node9" class="node">
<title>Node5_2</title>
<ellipse fill="#93db70" stroke="#93db70" cx="398.2" cy="-279" rx="50.09" ry="18"/>
<text text-anchor="middle" x="398.2" y="-275.3" font-family="Times,serif" font-size="14.00">वर्णान्(5.2)</text>
</g>
<!-- Node5_1&#45;&gt;Node5_2 -->
<g id="edge5" class="edge">
<title>Node5_1&#45;&gt;Node5_2</title>
<path fill="none" stroke="black" d="M398.2,-220.27C398.2,-233.58 398.2,-249.19 398.2,-260.82"/>
<polygon fill="black" stroke="black" points="401.7,-220.2 398.2,-210.2 394.7,-220.2 401.7,-220.2"/>
<text text-anchor="middle" x="415.2" y="-231.8" font-family="Times,serif" font-size="14.00">समासः</text>
</g>
<!-- Node5_2&#45;&gt;Node8_1 -->
<g id="edge6" class="edge">
<title>Node5_2&#45;&gt;Node8_1</title>
<path fill="none" stroke="black" d="M381.77,-305.13C376.15,-313.27 369.64,-322.2 363.2,-330 358.01,-336.27 351.94,-342.76 346.37,-348.42"/>
<polygon fill="black" stroke="black" points="384.77,-306.94 387.48,-296.7 378.98,-303.01 384.77,-306.94"/>
<text text-anchor="middle" x="384.2" y="-318.8" font-family="Times,serif" font-size="14.00">कर्म</text>
</g>
<!-- Node6_1 -->
<g id="node10" class="node">
<title>Node6_1</title>
<ellipse fill="#ffff00" stroke="#ffff00" cx="638.2" cy="-105" rx="46.59" ry="18"/>
<text text-anchor="middle" x="638.2" y="-101.3" font-family="Times,serif" font-size="14.00">मही&#45;(6.1)</text>
</g>
<!-- Node6_1&#45;&gt;Node6_2 -->
<g id="edge7" class="edge">
<title>Node6_1&#45;&gt;Node6_2</title>
<path fill="none" stroke="black" d="M638.2,-133.27C638.2,-146.58 638.2,-162.19 638.2,-173.82"/>
<polygon fill="black" stroke="black" points="641.7,-133.2 638.2,-123.2 634.7,-133.2 641.7,-133.2"/>
<text text-anchor="middle" x="655.2" y="-144.8" font-family="Times,serif" font-size="14.00">समासः</text>
</g>
<!-- Node7_1 -->
<g id="node11" class="node">
<title>Node7_1</title>
<ellipse fill="#ffff00" stroke="#ffff00" cx="516.2" cy="-18" rx="49.29" ry="18"/>
<text text-anchor="middle" x="516.2" y="-14.3" font-family="Times,serif" font-size="14.00">अन्न&#45;(7.1)</text>
</g>
<!-- Node7_2 -->
<g id="node12" class="node">
<title>Node7_2</title>
<ellipse fill="#ffff00" stroke="#ffff00" cx="516.2" cy="-105" rx="47.39" ry="18"/>
<text text-anchor="middle" x="516.2" y="-101.3" font-family="Times,serif" font-size="14.00">पान&#45;(7.2)</text>
</g>
<!-- Node7_1&#45;&gt;Node7_2 -->
<g id="edge9" class="edge">
<title>Node7_1&#45;&gt;Node7_2</title>
<path fill="none" stroke="black" d="M516.2,-46.27C516.2,-59.58 516.2,-75.19 516.2,-86.82"/>
<polygon fill="black" stroke="black" points="519.7,-46.2 516.2,-36.2 512.7,-46.2 519.7,-46.2"/>
<text text-anchor="middle" x="533.2" y="-57.8" font-family="Times,serif" font-size="14.00">समासः</text>
</g>
<!-- Node7_3 -->
<g id="node13" class="node">
<title>Node7_3</title>
<ellipse fill="#ffff00" stroke="#ffff00" cx="516.2" cy="-192" rx="44.39" ry="18"/>
<text text-anchor="middle" x="516.2" y="-188.3" font-family="Times,serif" font-size="14.00">रस&#45;(7.3)</text>
</g>
<!-- Node7_2&#45;&gt;Node7_3 -->
<g id="edge10" class="edge">
<title>Node7_2&#45;&gt;Node7_3</title>
<path fill="none" stroke="black" d="M516.2,-133.27C516.2,-146.58 516.2,-162.19 516.2,-173.82"/>
<polygon fill="black" stroke="black" points="519.7,-133.2 516.2,-123.2 512.7,-133.2 519.7,-133.2"/>
<text text-anchor="middle" x="533.2" y="-144.8" font-family="Times,serif" font-size="14.00">समासः</text>
</g>
<!-- Node7_4 -->
<g id="node14" class="node">
<title>Node7_4</title>
<ellipse fill="#40e0d0" stroke="#40e0d0" cx="516.2" cy="-279" rx="50.09" ry="18"/>
<text text-anchor="middle" x="516.2" y="-275.3" font-family="Times,serif" font-size="14.00">ओघेन(7.4)</text>
</g>
<!-- Node7_3&#45;&gt;Node7_4 -->
<g id="edge11" class="edge">
<title>Node7_3&#45;&gt;Node7_4</title>
<path fill="none" stroke="black" d="M516.2,-220.27C516.2,-233.58 516.2,-249.19 516.2,-260.82"/>
<polygon fill="black" stroke="black" points="519.7,-220.2 516.2,-210.2 512.7,-220.2 519.7,-220.2"/>
<text text-anchor="middle" x="533.2" y="-231.8" font-family="Times,serif" font-size="14.00">समासः</text>
</g>
<!-- Node7_4&#45;&gt;Node8_1 -->
<g id="edge12" class="edge">
<title>Node7_4&#45;&gt;Node8_1</title>
<path fill="none" stroke="black" d="M476.95,-297.84C442.86,-313.34 394.05,-335.52 362,-350.09"/>
<polygon fill="black" stroke="black" points="478.5,-300.98 486.15,-293.66 475.6,-294.61 478.5,-300.98"/>
<text text-anchor="middle" x="450.7" y="-318.8" font-family="Times,serif" font-size="14.00">करणम्</text>
</g>
</g>
</svg>
