<?xml version="1.0" encoding="UTF-8" standalone="no"?>
<!DOCTYPE svg PUBLIC "-//W3C//DTD SVG 1.1//EN"
 "http://www.w3.org/Graphics/SVG/1.1/DTD/svg11.dtd">
<!-- Generated by graphviz version 2.43.0 (0)
 -->
<!-- Title: G Pages: 1 -->
<svg width="863pt" height="392pt"
 viewBox="0.00 0.00 863.15 392.00" xmlns="http://www.w3.org/2000/svg" xmlns:xlink="http://www.w3.org/1999/xlink">
<g id="graph0" class="graph" transform="scale(1 1) rotate(0) translate(4 388)">
<title>G</title>
<polygon fill="#fffacd" stroke="transparent" points="-4,4 -4,-388 859.15,-388 859.15,4 -4,4"/>
<g id="clust1" class="cluster">
<title>cluster_1</title>
<polygon fill="#fffacd" stroke="black" points="442.15,-79 442.15,-218 842.15,-218 842.15,-79 442.15,-79"/>
</g>
<!-- Node3_2 -->
<g id="node1" class="node">
<title>Node3_2</title>
<ellipse fill="#87ceeb" stroke="#87ceeb" cx="511.15" cy="-105" rx="61.19" ry="18"/>
<text text-anchor="middle" x="511.15" y="-101.3" font-family="Times,serif" font-size="14.00">पौत्राणाम्(3.2)</text>
</g>
<!-- Node7_1 -->
<g id="node2" class="node">
<title>Node7_1</title>
<ellipse fill="#87ceeb" stroke="#87ceeb" cx="512.15" cy="-192" rx="59.59" ry="18"/>
<text text-anchor="middle" x="512.15" y="-188.3" font-family="Times,serif" font-size="14.00">गान्धार्याः(7.1)</text>
</g>
<!-- Node3_2&#45;&gt;Node7_1 -->
<g id="edge4" class="edge">
<title>Node3_2&#45;&gt;Node7_1</title>
<path fill="none" stroke="black" d="M511.47,-133.27C511.62,-146.58 511.81,-162.19 511.94,-173.82"/>
<polygon fill="black" stroke="black" points="514.97,-133.16 511.35,-123.2 507.97,-133.24 514.97,-133.16"/>
<text text-anchor="middle" x="533.65" y="-144.8" font-family="Times,serif" font-size="14.00">समुच्चितः</text>
</g>
<!-- Node11_2 -->
<g id="node10" class="node">
<title>Node11_2</title>
<ellipse fill="#93db70" stroke="#93db70" cx="376.15" cy="-279" rx="60.39" ry="18"/>
<text text-anchor="middle" x="376.15" y="-275.3" font-family="Times,serif" font-size="14.00">देहिकम्(11.2)</text>
</g>
<!-- Node7_1&#45;&gt;Node11_2 -->
<g id="edge8" class="edge">
<title>Node7_1&#45;&gt;Node11_2</title>
<path fill="none" stroke="black" d="M478.41,-214.09C454.39,-229.1 422.64,-248.94 400.93,-262.51"/>
<polygon fill="black" stroke="black" points="480.58,-216.86 487.2,-208.59 476.87,-210.92 480.58,-216.86"/>
<text text-anchor="middle" x="479.65" y="-231.8" font-family="Times,serif" font-size="14.00">षष्ठीसम्बन्धः</text>
</g>
<!-- Node4_1 -->
<g id="node3" class="node">
<title>Node4_1</title>
<ellipse fill="#87ceeb" stroke="#87ceeb" cx="648.15" cy="-105" rx="57.69" ry="18"/>
<text text-anchor="middle" x="648.15" y="-101.3" font-family="Times,serif" font-size="14.00">पितॄणाम्(4.1)</text>
</g>
<!-- Node4_1&#45;&gt;Node7_1 -->
<g id="edge5" class="edge">
<title>Node4_1&#45;&gt;Node7_1</title>
<path fill="none" stroke="black" d="M614.73,-126.88C590.72,-141.89 558.86,-161.81 537.05,-175.43"/>
<polygon fill="black" stroke="black" points="616.89,-129.66 623.52,-121.39 613.18,-123.72 616.89,-129.66"/>
<text text-anchor="middle" x="610.65" y="-144.8" font-family="Times,serif" font-size="14.00">समुच्चितः</text>
</g>
<!-- Node5_1 -->
<g id="node4" class="node">
<title>Node5_1</title>
<ellipse fill="#87ceeb" stroke="#87ceeb" cx="779.15" cy="-105" rx="55.49" ry="18"/>
<text text-anchor="middle" x="779.15" y="-101.3" font-family="Times,serif" font-size="14.00">आत्मनः(5.1)</text>
</g>
<!-- Node5_1&#45;&gt;Node7_1 -->
<g id="edge6" class="edge">
<title>Node5_1&#45;&gt;Node7_1</title>
<path fill="none" stroke="black" d="M734.59,-122.53C706.74,-132.66 670.03,-145.62 637.15,-156 610.28,-164.48 579.85,-173.02 555.74,-179.55"/>
<polygon fill="black" stroke="black" points="735.86,-125.79 744.06,-119.08 733.46,-119.22 735.86,-125.79"/>
<text text-anchor="middle" x="702.65" y="-144.8" font-family="Times,serif" font-size="14.00">समुच्चितः</text>
</g>
<!-- Node1_1 -->
<g id="node5" class="node">
<title>Node1_1</title>
<ellipse fill="#ff99ff" stroke="#ff99ff" cx="46.15" cy="-279" rx="46.29" ry="18"/>
<text text-anchor="middle" x="46.15" y="-275.3" font-family="Times,serif" font-size="14.00">एवम्(1.1)</text>
</g>
<!-- Node10_1 -->
<g id="node6" class="node">
<title>Node10_1</title>
<ellipse fill="#ff1975" stroke="#ff1975" cx="186.15" cy="-366" rx="53.89" ry="18"/>
<text text-anchor="middle" x="186.15" y="-362.3" font-family="Times,serif" font-size="14.00">प्रददौ(10.1)</text>
</g>
<!-- Node1_1&#45;&gt;Node10_1 -->
<g id="edge1" class="edge">
<title>Node1_1&#45;&gt;Node10_1</title>
<path fill="none" stroke="black" d="M64.74,-304.68C72.44,-313.6 81.95,-323.15 92.15,-330 108.04,-340.68 127.64,-348.65 144.81,-354.26"/>
<polygon fill="black" stroke="black" points="67.28,-302.25 58.22,-296.76 61.88,-306.7 67.28,-302.25"/>
<text text-anchor="middle" x="127.15" y="-318.8" font-family="Times,serif" font-size="14.00">क्रियाविशेषणम्</text>
</g>
<!-- Node2_1 -->
<g id="node7" class="node">
<title>Node2_1</title>
<ellipse fill="#00bfff" stroke="#00bfff" cx="150.15" cy="-279" rx="40.09" ry="18"/>
<text text-anchor="middle" x="150.15" y="-275.3" font-family="Times,serif" font-size="14.00">सः(2.1)</text>
</g>
<!-- Node2_1&#45;&gt;Node10_1 -->
<g id="edge2" class="edge">
<title>Node2_1&#45;&gt;Node10_1</title>
<path fill="none" stroke="black" d="M161.21,-306.13C166.97,-319.73 173.85,-335.98 178.93,-347.95"/>
<polygon fill="black" stroke="black" points="164.38,-304.64 157.26,-296.79 157.94,-307.37 164.38,-304.64"/>
<text text-anchor="middle" x="182.15" y="-318.8" font-family="Times,serif" font-size="14.00">कर्ता</text>
</g>
<!-- Node3_1 -->
<g id="node8" class="node">
<title>Node3_1</title>
<ellipse fill="#ffff00" stroke="#ffff00" cx="511.15" cy="-18" rx="45.49" ry="18"/>
<text text-anchor="middle" x="511.15" y="-14.3" font-family="Times,serif" font-size="14.00">पुत्र&#45;(3.1)</text>
</g>
<!-- Node3_1&#45;&gt;Node3_2 -->
<g id="edge3" class="edge">
<title>Node3_1&#45;&gt;Node3_2</title>
<path fill="none" stroke="black" d="M511.15,-46.27C511.15,-59.58 511.15,-75.19 511.15,-86.82"/>
<polygon fill="black" stroke="black" points="514.65,-46.2 511.15,-36.2 507.65,-46.2 514.65,-46.2"/>
<text text-anchor="middle" x="528.15" y="-57.8" font-family="Times,serif" font-size="14.00">समासः</text>
</g>
<!-- Node6_1 -->
<g id="node9" class="node">
<title>Node6_1</title>
<ellipse fill="#ff99ff" stroke="#ff99ff" cx="779.15" cy="-18" rx="44.69" ry="18"/>
<text text-anchor="middle" x="779.15" y="-14.3" font-family="Times,serif" font-size="14.00">तथा(6.1)</text>
</g>
<!-- Node6_1&#45;&gt;Node5_1 -->
<g id="edge7" class="edge">
<title>Node6_1&#45;&gt;Node5_1</title>
<path fill="none" stroke="black" d="M779.15,-46.27C779.15,-59.58 779.15,-75.19 779.15,-86.82"/>
<polygon fill="black" stroke="black" points="782.65,-46.2 779.15,-36.2 775.65,-46.2 782.65,-46.2"/>
<text text-anchor="middle" x="817.15" y="-57.8" font-family="Times,serif" font-size="14.00">समुच्चय_द्योतकः</text>
</g>
<!-- Node11_2&#45;&gt;Node10_1 -->
<g id="edge13" class="edge">
<title>Node11_2&#45;&gt;Node10_1</title>
<path fill="none" stroke="black" d="M336.24,-299.09C316.19,-308.57 291.47,-320.08 269.15,-330 252.71,-337.3 234.29,-345.11 218.99,-351.49"/>
<polygon fill="black" stroke="black" points="337.85,-302.2 345.38,-294.75 334.85,-295.87 337.85,-302.2"/>
<text text-anchor="middle" x="311.15" y="-318.8" font-family="Times,serif" font-size="14.00">कर्म</text>
</g>
<!-- Node8_1 -->
<g id="node11" class="node">
<title>Node8_1</title>
<ellipse fill="#ff99ff" stroke="#ff99ff" cx="394.15" cy="-105" rx="37.89" ry="18"/>
<text text-anchor="middle" x="394.15" y="-101.3" font-family="Times,serif" font-size="14.00">च(8.1)</text>
</g>
<!-- Node8_1&#45;&gt;Node7_1 -->
<g id="edge9" class="edge">
<title>Node8_1&#45;&gt;Node7_1</title>
<path fill="none" stroke="black" d="M408.84,-131.08C414.89,-139.82 422.52,-149.15 431.15,-156 443.15,-165.52 458.13,-172.95 471.94,-178.46"/>
<polygon fill="black" stroke="black" points="411.73,-129.1 403.33,-122.64 405.87,-132.93 411.73,-129.1"/>
<text text-anchor="middle" x="469.15" y="-144.8" font-family="Times,serif" font-size="14.00">समुच्चय_द्योतकः</text>
</g>
<!-- Node9_1 -->
<g id="node12" class="node">
<title>Node9_1</title>
<ellipse fill="#ffff00" stroke="#ffff00" cx="251.15" cy="-192" rx="49.29" ry="18"/>
<text text-anchor="middle" x="251.15" y="-188.3" font-family="Times,serif" font-size="14.00">महत्&#45;(9.1)</text>
</g>
<!-- Node9_2 -->
<g id="node13" class="node">
<title>Node9_2</title>
<ellipse fill="#6fffc3" stroke="#6fffc3" cx="252.15" cy="-279" rx="44.39" ry="18"/>
<text text-anchor="middle" x="252.15" y="-275.3" font-family="Times,serif" font-size="14.00">राज(9.2)</text>
</g>
<!-- Node9_1&#45;&gt;Node9_2 -->
<g id="edge10" class="edge">
<title>Node9_1&#45;&gt;Node9_2</title>
<path fill="none" stroke="black" d="M251.47,-220.27C251.62,-233.58 251.81,-249.19 251.94,-260.82"/>
<polygon fill="black" stroke="black" points="254.97,-220.16 251.35,-210.2 247.97,-220.24 254.97,-220.16"/>
<text text-anchor="middle" x="269.15" y="-231.8" font-family="Times,serif" font-size="14.00">समासः</text>
</g>
<!-- Node9_2&#45;&gt;Node10_1 -->
<g id="edge11" class="edge">
<title>Node9_2&#45;&gt;Node10_1</title>
<path fill="none" stroke="black" d="M233,-304.65C222.1,-318.7 208.72,-335.92 199.06,-348.37"/>
<polygon fill="black" stroke="black" points="236.05,-306.43 239.42,-296.39 230.52,-302.14 236.05,-306.43"/>
<text text-anchor="middle" x="244.15" y="-318.8" font-family="Times,serif" font-size="14.00">सम्बोध्यः</text>
</g>
<!-- Node11_1 -->
<g id="node14" class="node">
<title>Node11_1</title>
<ellipse fill="#ffff00" stroke="#ffff00" cx="376.15" cy="-192" rx="57.69" ry="18"/>
<text text-anchor="middle" x="376.15" y="-188.3" font-family="Times,serif" font-size="14.00">और्ध्व&#45;(11.1)</text>
</g>
<!-- Node11_1&#45;&gt;Node11_2 -->
<g id="edge12" class="edge">
<title>Node11_1&#45;&gt;Node11_2</title>
<path fill="none" stroke="black" d="M376.15,-220.27C376.15,-233.58 376.15,-249.19 376.15,-260.82"/>
<polygon fill="black" stroke="black" points="379.65,-220.2 376.15,-210.2 372.65,-220.2 379.65,-220.2"/>
<text text-anchor="middle" x="393.15" y="-231.8" font-family="Times,serif" font-size="14.00">समासः</text>
</g>
</g>
</svg>
