<?xml version="1.0" encoding="UTF-8" standalone="no"?>
<!DOCTYPE svg PUBLIC "-//W3C//DTD SVG 1.1//EN"
 "http://www.w3.org/Graphics/SVG/1.1/DTD/svg11.dtd">
<!-- Generated by graphviz version 2.43.0 (0)
 -->
<!-- Title: G Pages: 1 -->
<svg width="826pt" height="479pt"
 viewBox="0.00 0.00 826.00 479.00" xmlns="http://www.w3.org/2000/svg" xmlns:xlink="http://www.w3.org/1999/xlink">
<g id="graph0" class="graph" transform="scale(1 1) rotate(0) translate(4 475)">
<title>G</title>
<polygon fill="#fffacd" stroke="transparent" points="-4,4 -4,-475 822,-475 822,4 -4,4"/>
<g id="clust1" class="cluster">
<title>cluster_1</title>
<polygon fill="#fffacd" stroke="black" points="495,-253 495,-392 810,-392 810,-253 495,-253"/>
</g>
<g id="clust2" class="cluster">
<title>cluster_2</title>
<polygon fill="#fffacd" stroke="black" points="8,-166 8,-305 144,-305 144,-166 8,-166"/>
</g>
<!-- Node3_1 -->
<g id="node1" class="node">
<title>Node3_1</title>
<ellipse fill="#00bfff" stroke="#00bfff" cx="756" cy="-279" rx="46.29" ry="18"/>
<text text-anchor="middle" x="756" y="-275.3" font-family="Times,serif" font-size="14.00">राजा(3.1)</text>
</g>
<!-- Node5_1 -->
<g id="node2" class="node">
<title>Node5_1</title>
<ellipse fill="#00bfff" stroke="#00bfff" cx="561" cy="-366" rx="57.69" ry="18"/>
<text text-anchor="middle" x="561" y="-362.3" font-family="Times,serif" font-size="14.00">धृतराष्ट्रः(5.1)</text>
</g>
<!-- Node3_1&#45;&gt;Node5_1 -->
<g id="edge3" class="edge">
<title>Node3_1&#45;&gt;Node5_1</title>
<path fill="none" stroke="black" d="M724.48,-299.96C708.05,-309.83 687.39,-321.42 668,-330 647.09,-339.25 622.94,-347.36 602.88,-353.43"/>
<polygon fill="black" stroke="black" points="726.41,-302.88 733.13,-294.68 722.77,-296.9 726.41,-302.88"/>
<text text-anchor="middle" x="719.5" y="-318.8" font-family="Times,serif" font-size="14.00">विशेषणम्</text>
</g>
<!-- Node11_1 -->
<g id="node10" class="node">
<title>Node11_1</title>
<ellipse fill="#ff1975" stroke="#ff1975" cx="416" cy="-453" rx="63.89" ry="18"/>
<text text-anchor="middle" x="416" y="-449.3" font-family="Times,serif" font-size="14.00">(आसन्)(11.1)</text>
</g>
<!-- Node5_1&#45;&gt;Node11_1 -->
<g id="edge5" class="edge">
<title>Node5_1&#45;&gt;Node11_1</title>
<path fill="none" stroke="black" d="M526.4,-387.28C500.72,-402.33 466.24,-422.55 442.68,-436.36"/>
<polygon fill="black" stroke="black" points="528.22,-390.27 535.08,-382.2 524.68,-384.23 528.22,-390.27"/>
<text text-anchor="middle" x="508" y="-405.8" font-family="Times,serif" font-size="14.00">कर्ता</text>
</g>
<!-- Node4_1 -->
<g id="node3" class="node">
<title>Node4_1</title>
<ellipse fill="#00bfff" stroke="#00bfff" cx="652" cy="-279" rx="40.09" ry="18"/>
<text text-anchor="middle" x="652" y="-275.3" font-family="Times,serif" font-size="14.00">सः(4.1)</text>
</g>
<!-- Node4_1&#45;&gt;Node5_1 -->
<g id="edge4" class="edge">
<title>Node4_1&#45;&gt;Node5_1</title>
<path fill="none" stroke="black" d="M630.36,-303.72C622.31,-312.23 612.94,-321.76 604,-330 596.92,-336.52 588.81,-343.29 581.56,-349.12"/>
<polygon fill="black" stroke="black" points="633.07,-305.95 637.35,-296.25 627.96,-301.17 633.07,-305.95"/>
<text text-anchor="middle" x="641.5" y="-318.8" font-family="Times,serif" font-size="14.00">विशेषणम्</text>
</g>
<!-- Node6_2 -->
<g id="node4" class="node">
<title>Node6_2</title>
<ellipse fill="#00bfff" stroke="#00bfff" cx="548" cy="-279" rx="45.49" ry="18"/>
<text text-anchor="middle" x="548" y="-275.3" font-family="Times,serif" font-size="14.00">सुतः(6.2)</text>
</g>
<!-- Node6_2&#45;&gt;Node5_1 -->
<g id="edge7" class="edge">
<title>Node6_2&#45;&gt;Node5_1</title>
<path fill="none" stroke="black" d="M552.17,-307.27C554.21,-320.58 556.59,-336.19 558.37,-347.82"/>
<polygon fill="black" stroke="black" points="555.6,-306.56 550.63,-297.2 548.68,-307.62 555.6,-306.56"/>
<text text-anchor="middle" x="577.5" y="-318.8" font-family="Times,serif" font-size="14.00">विशेषणम्</text>
</g>
<!-- Node9_1 -->
<g id="node5" class="node">
<title>Node9_1</title>
<ellipse fill="#93db70" stroke="#93db70" cx="76" cy="-192" rx="50.09" ry="18"/>
<text text-anchor="middle" x="76" y="-188.3" font-family="Times,serif" font-size="14.00">वीरान्(9.1)</text>
</g>
<!-- Node8_1 -->
<g id="node6" class="node">
<title>Node8_1</title>
<ellipse fill="#93db70" stroke="#93db70" cx="76" cy="-279" rx="59.59" ry="18"/>
<text text-anchor="middle" x="76" y="-275.3" font-family="Times,serif" font-size="14.00">पाण्डवान्(8.1)</text>
</g>
<!-- Node9_1&#45;&gt;Node8_1 -->
<g id="edge10" class="edge">
<title>Node9_1&#45;&gt;Node8_1</title>
<path fill="none" stroke="black" d="M76,-220.27C76,-233.58 76,-249.19 76,-260.82"/>
<polygon fill="black" stroke="black" points="79.5,-220.2 76,-210.2 72.5,-220.2 79.5,-220.2"/>
<text text-anchor="middle" x="98.5" y="-231.8" font-family="Times,serif" font-size="14.00">विशेषणम्</text>
</g>
<!-- Node7_1 -->
<g id="node8" class="node">
<title>Node7_1</title>
<ellipse fill="#ff99ff" stroke="#ff99ff" cx="235" cy="-366" rx="50.09" ry="18"/>
<text text-anchor="middle" x="235" y="-362.3" font-family="Times,serif" font-size="14.00">आहूय(7.1)</text>
</g>
<!-- Node8_1&#45;&gt;Node7_1 -->
<g id="edge9" class="edge">
<title>Node8_1&#45;&gt;Node7_1</title>
<path fill="none" stroke="black" d="M113.12,-299.84C142.28,-315.43 182.19,-336.77 208.28,-350.72"/>
<polygon fill="black" stroke="black" points="114.53,-296.63 104.06,-295 111.23,-302.8 114.53,-296.63"/>
<text text-anchor="middle" x="175" y="-318.8" font-family="Times,serif" font-size="14.00">कर्म</text>
</g>
<!-- Node1_1 -->
<g id="node7" class="node">
<title>Node1_1</title>
<ellipse fill="#ff99ff" stroke="#ff99ff" cx="198" cy="-279" rx="44.39" ry="18"/>
<text text-anchor="middle" x="198" y="-275.3" font-family="Times,serif" font-size="14.00">ततः(1.1)</text>
</g>
<!-- Node1_1&#45;&gt;Node7_1 -->
<g id="edge1" class="edge">
<title>Node1_1&#45;&gt;Node7_1</title>
<path fill="none" stroke="black" d="M209.38,-306.13C215.3,-319.73 222.37,-335.98 227.58,-347.95"/>
<polygon fill="black" stroke="black" points="212.51,-304.57 205.31,-296.79 206.09,-307.36 212.51,-304.57"/>
<text text-anchor="middle" x="237.5" y="-318.8" font-family="Times,serif" font-size="14.00">सम्बन्धः</text>
</g>
<!-- Node7_1&#45;&gt;Node11_1 -->
<g id="edge8" class="edge">
<title>Node7_1&#45;&gt;Node11_1</title>
<path fill="none" stroke="black" d="M273.44,-385.05C306.53,-400.59 353.68,-422.74 384.56,-437.24"/>
<polygon fill="black" stroke="black" points="274.62,-381.74 264.08,-380.66 271.64,-388.08 274.62,-381.74"/>
<text text-anchor="middle" x="356.5" y="-405.8" font-family="Times,serif" font-size="14.00">पूर्वकालः</text>
</g>
<!-- Node2_1 -->
<g id="node9" class="node">
<title>Node2_1</title>
<ellipse fill="#c6e2eb" stroke="#c6e2eb" cx="310" cy="-279" rx="50.09" ry="18"/>
<text text-anchor="middle" x="310" y="-275.3" font-family="Times,serif" font-size="14.00">प्रभाते(2.1)</text>
</g>
<!-- Node2_1&#45;&gt;Node7_1 -->
<g id="edge2" class="edge">
<title>Node2_1&#45;&gt;Node7_1</title>
<path fill="none" stroke="black" d="M288.9,-303.91C276.3,-318.2 260.61,-335.98 249.42,-348.66"/>
<polygon fill="black" stroke="black" points="291.55,-306.2 295.54,-296.39 286.3,-301.57 291.55,-306.2"/>
<text text-anchor="middle" x="311.5" y="-318.8" font-family="Times,serif" font-size="14.00">कालाधिकरणम्</text>
</g>
<!-- Node6_1 -->
<g id="node11" class="node">
<title>Node6_1</title>
<ellipse fill="#ffff00" stroke="#ffff00" cx="551" cy="-192" rx="59.59" ry="18"/>
<text text-anchor="middle" x="551" y="-188.3" font-family="Times,serif" font-size="14.00">अम्बिका&#45;(6.1)</text>
</g>
<!-- Node6_1&#45;&gt;Node6_2 -->
<g id="edge6" class="edge">
<title>Node6_1&#45;&gt;Node6_2</title>
<path fill="none" stroke="black" d="M550.04,-220.27C549.57,-233.58 549.02,-249.19 548.61,-260.82"/>
<polygon fill="black" stroke="black" points="553.54,-220.32 550.39,-210.2 546.54,-220.07 553.54,-220.32"/>
<text text-anchor="middle" x="580" y="-231.8" font-family="Times,serif" font-size="14.00">षष्ठी&#45;तत्पुरुषः</text>
</g>
<!-- Node10_1 -->
<g id="node12" class="node">
<title>Node10_1</title>
<ellipse fill="#ffff00" stroke="#ffff00" cx="421" cy="-18" rx="50.09" ry="18"/>
<text text-anchor="middle" x="421" y="-14.3" font-family="Times,serif" font-size="14.00">वन&#45;(10.1)</text>
</g>
<!-- Node10_2 -->
<g id="node13" class="node">
<title>Node10_2</title>
<ellipse fill="#ffff00" stroke="#ffff00" cx="421" cy="-105" rx="53.89" ry="18"/>
<text text-anchor="middle" x="421" y="-101.3" font-family="Times,serif" font-size="14.00">वास&#45;(10.2)</text>
</g>
<!-- Node10_1&#45;&gt;Node10_2 -->
<g id="edge11" class="edge">
<title>Node10_1&#45;&gt;Node10_2</title>
<path fill="none" stroke="black" d="M421,-46.27C421,-59.58 421,-75.19 421,-86.82"/>
<polygon fill="black" stroke="black" points="424.5,-46.2 421,-36.2 417.5,-46.2 424.5,-46.2"/>
<text text-anchor="middle" x="459" y="-57.8" font-family="Times,serif" font-size="14.00">सप्तमी&#45;तत्पुरुषः</text>
</g>
<!-- Node10_3 -->
<g id="node14" class="node">
<title>Node10_3</title>
<ellipse fill="#ffff00" stroke="#ffff00" cx="421" cy="-192" rx="51.99" ry="18"/>
<text text-anchor="middle" x="421" y="-188.3" font-family="Times,serif" font-size="14.00">कृत&#45;(10.3)</text>
</g>
<!-- Node10_2&#45;&gt;Node10_3 -->
<g id="edge12" class="edge">
<title>Node10_2&#45;&gt;Node10_3</title>
<path fill="none" stroke="black" d="M421,-133.27C421,-146.58 421,-162.19 421,-173.82"/>
<polygon fill="black" stroke="black" points="424.5,-133.2 421,-123.2 417.5,-133.2 424.5,-133.2"/>
<text text-anchor="middle" x="456.5" y="-144.8" font-family="Times,serif" font-size="14.00">चतुर्थी&#45;तत्पुरुषः</text>
</g>
<!-- Node10_4 -->
<g id="node15" class="node">
<title>Node10_4</title>
<ellipse fill="#00bfff" stroke="#00bfff" cx="431" cy="-279" rx="53.09" ry="18"/>
<text text-anchor="middle" x="431" y="-275.3" font-family="Times,serif" font-size="14.00">क्षणः(10.4)</text>
</g>
<!-- Node10_3&#45;&gt;Node10_4 -->
<g id="edge13" class="edge">
<title>Node10_3&#45;&gt;Node10_4</title>
<path fill="none" stroke="black" d="M424.21,-220.27C425.77,-233.58 427.61,-249.19 428.98,-260.82"/>
<polygon fill="black" stroke="black" points="427.67,-219.72 423.02,-210.2 420.72,-220.54 427.67,-219.72"/>
<text text-anchor="middle" x="467" y="-231.8" font-family="Times,serif" font-size="14.00">तृतीयार्थ&#45;बहुव्रीहिः</text>
</g>
<!-- Node10_4&#45;&gt;Node5_1 -->
<g id="edge14" class="edge">
<title>Node10_4&#45;&gt;Node5_1</title>
<path fill="none" stroke="black" d="M446.88,-304.95C453.48,-313.79 461.77,-323.22 471,-330 485.05,-340.32 502.54,-348.03 518.35,-353.55"/>
<polygon fill="black" stroke="black" points="449.72,-302.91 441.1,-296.76 444.01,-306.95 449.72,-302.91"/>
<text text-anchor="middle" x="510" y="-318.8" font-family="Times,serif" font-size="14.00">विधेय_विशेषणम्</text>
</g>
</g>
</svg>
