<?xml version="1.0" encoding="UTF-8" standalone="no"?>
<!DOCTYPE svg PUBLIC "-//W3C//DTD SVG 1.1//EN"
 "http://www.w3.org/Graphics/SVG/1.1/DTD/svg11.dtd">
<!-- Generated by graphviz version 2.43.0 (0)
 -->
<!-- Title: G Pages: 1 -->
<svg width="1125pt" height="392pt"
 viewBox="0.00 0.00 1125.00 392.00" xmlns="http://www.w3.org/2000/svg" xmlns:xlink="http://www.w3.org/1999/xlink">
<g id="graph0" class="graph" transform="scale(1 1) rotate(0) translate(4 388)">
<title>G</title>
<polygon fill="#fffacd" stroke="transparent" points="-4,4 -4,-388 1121,-388 1121,4 -4,4"/>
<g id="clust1" class="cluster">
<title>cluster_1</title>
<polygon fill="#fffacd" stroke="black" points="8,-79 8,-218 146,-218 146,-79 8,-79"/>
</g>
<g id="clust2" class="cluster">
<title>cluster_2</title>
<polygon fill="#fffacd" stroke="black" points="947,-79 947,-218 1109,-218 1109,-79 947,-79"/>
</g>
<!-- Node3_1 -->
<g id="node1" class="node">
<title>Node3_1</title>
<ellipse fill="#87ceeb" stroke="#87ceeb" cx="77" cy="-105" rx="61.19" ry="18"/>
<text text-anchor="middle" x="77" y="-101.3" font-family="Times,serif" font-size="14.00">रुदतीनाम्(3.1)</text>
</g>
<!-- Node1_1 -->
<g id="node2" class="node">
<title>Node1_1</title>
<ellipse fill="#87ceeb" stroke="#87ceeb" cx="83" cy="-192" rx="52.79" ry="18"/>
<text text-anchor="middle" x="83" y="-188.3" font-family="Times,serif" font-size="14.00">तासाम्(1.1)</text>
</g>
<!-- Node3_1&#45;&gt;Node1_1 -->
<g id="edge3" class="edge">
<title>Node3_1&#45;&gt;Node1_1</title>
<path fill="none" stroke="black" d="M78.92,-133.27C79.86,-146.58 80.97,-162.19 81.79,-173.82"/>
<polygon fill="black" stroke="black" points="82.41,-132.93 78.21,-123.2 75.43,-133.42 82.41,-132.93"/>
<text text-anchor="middle" x="103.5" y="-144.8" font-family="Times,serif" font-size="14.00">विशेषणम्</text>
</g>
<!-- Node2_1 -->
<g id="node5" class="node">
<title>Node2_1</title>
<ellipse fill="#00bfff" stroke="#00bfff" cx="168" cy="-279" rx="46.29" ry="18"/>
<text text-anchor="middle" x="168" y="-275.3" font-family="Times,serif" font-size="14.00">नादः(2.1)</text>
</g>
<!-- Node1_1&#45;&gt;Node2_1 -->
<g id="edge1" class="edge">
<title>Node1_1&#45;&gt;Node2_1</title>
<path fill="none" stroke="black" d="M101.72,-217.93C108.4,-226.24 116.2,-235.32 124,-243 131.09,-249.99 139.52,-256.96 147.09,-262.83"/>
<polygon fill="black" stroke="black" points="104.4,-215.67 95.46,-209.97 98.89,-220 104.4,-215.67"/>
<text text-anchor="middle" x="151.5" y="-231.8" font-family="Times,serif" font-size="14.00">षष्ठीसम्बन्धः</text>
</g>
<!-- Node13_2 -->
<g id="node3" class="node">
<title>Node13_2</title>
<ellipse fill="#87ceeb" stroke="#87ceeb" cx="1028" cy="-105" rx="73.39" ry="18"/>
<text text-anchor="middle" x="1028" y="-101.3" font-family="Times,serif" font-size="14.00">क्षत्रियाणाम्(13.2)</text>
</g>
<!-- Node14_2 -->
<g id="node4" class="node">
<title>Node14_2</title>
<ellipse fill="#87ceeb" stroke="#87ceeb" cx="1019" cy="-192" rx="64.19" ry="18"/>
<text text-anchor="middle" x="1019" y="-188.3" font-family="Times,serif" font-size="14.00">शूद्राणाम्(14.2)</text>
</g>
<!-- Node13_2&#45;&gt;Node14_2 -->
<g id="edge12" class="edge">
<title>Node13_2&#45;&gt;Node14_2</title>
<path fill="none" stroke="black" d="M1025.11,-133.27C1023.7,-146.58 1022.05,-162.19 1020.82,-173.82"/>
<polygon fill="black" stroke="black" points="1028.61,-133.51 1026.18,-123.2 1021.65,-132.78 1028.61,-133.51"/>
<text text-anchor="middle" x="1046.5" y="-144.8" font-family="Times,serif" font-size="14.00">समुच्चितः</text>
</g>
<!-- Node17_1 -->
<g id="node16" class="node">
<title>Node17_1</title>
<ellipse fill="#00bfff" stroke="#00bfff" cx="1019" cy="-279" rx="52.79" ry="18"/>
<text text-anchor="middle" x="1019" y="-275.3" font-family="Times,serif" font-size="14.00">नार्यः(17.1)</text>
</g>
<!-- Node14_2&#45;&gt;Node17_1 -->
<g id="edge14" class="edge">
<title>Node14_2&#45;&gt;Node17_1</title>
<path fill="none" stroke="black" d="M1019,-220.27C1019,-233.58 1019,-249.19 1019,-260.82"/>
<polygon fill="black" stroke="black" points="1022.5,-220.2 1019,-210.2 1015.5,-220.2 1022.5,-220.2"/>
<text text-anchor="middle" x="1046.5" y="-231.8" font-family="Times,serif" font-size="14.00">षष्ठीसम्बन्धः</text>
</g>
<!-- Node5_1 -->
<g id="node6" class="node">
<title>Node5_1</title>
<ellipse fill="#ff1975" stroke="#ff1975" cx="387" cy="-366" rx="53.89" ry="18"/>
<text text-anchor="middle" x="387" y="-362.3" font-family="Times,serif" font-size="14.00">आसीत्(5.1)</text>
</g>
<!-- Node2_1&#45;&gt;Node5_1 -->
<g id="edge2" class="edge">
<title>Node2_1&#45;&gt;Node5_1</title>
<path fill="none" stroke="black" d="M203.37,-298.44C223.47,-308.51 249.28,-320.77 273,-330 296.92,-339.31 324.42,-347.81 346.41,-354.11"/>
<polygon fill="black" stroke="black" points="204.79,-295.23 194.28,-293.84 201.62,-301.48 204.79,-295.23"/>
<text text-anchor="middle" x="284" y="-318.8" font-family="Times,serif" font-size="14.00">कर्ता</text>
</g>
<!-- Node4_1 -->
<g id="node7" class="node">
<title>Node4_1</title>
<ellipse fill="#ff99ff" stroke="#ff99ff" cx="276" cy="-279" rx="44.39" ry="18"/>
<text text-anchor="middle" x="276" y="-275.3" font-family="Times,serif" font-size="14.00">तदा(4.1)</text>
</g>
<!-- Node4_1&#45;&gt;Node5_1 -->
<g id="edge4" class="edge">
<title>Node4_1&#45;&gt;Node5_1</title>
<path fill="none" stroke="black" d="M290.73,-305.61C296.55,-314.16 303.81,-323.21 312,-330 323.4,-339.44 337.77,-346.95 350.87,-352.55"/>
<polygon fill="black" stroke="black" points="293.56,-303.54 285.21,-297.01 287.67,-307.32 293.56,-303.54"/>
<text text-anchor="middle" x="347.5" y="-318.8" font-family="Times,serif" font-size="14.00">कालाधिकरणम्</text>
</g>
<!-- Node6_1 -->
<g id="node8" class="node">
<title>Node6_1</title>
<ellipse fill="#6fffc3" stroke="#6fffc3" cx="387" cy="-279" rx="48.99" ry="18"/>
<text text-anchor="middle" x="387" y="-275.3" font-family="Times,serif" font-size="14.00">राजन्(6.1)</text>
</g>
<!-- Node6_1&#45;&gt;Node5_1 -->
<g id="edge5" class="edge">
<title>Node6_1&#45;&gt;Node5_1</title>
<path fill="none" stroke="black" d="M387,-307.27C387,-320.58 387,-336.19 387,-347.82"/>
<polygon fill="black" stroke="black" points="390.5,-307.2 387,-297.2 383.5,-307.2 390.5,-307.2"/>
<text text-anchor="middle" x="408" y="-318.8" font-family="Times,serif" font-size="14.00">सम्बोध्यः</text>
</g>
<!-- Node7_1 -->
<g id="node9" class="node">
<title>Node7_1</title>
<ellipse fill="#b4ffb4" stroke="#b4ffb4" cx="507" cy="-279" rx="53.09" ry="18"/>
<text text-anchor="middle" x="507" y="-275.3" font-family="Times,serif" font-size="14.00">दुःखात्(7.1)</text>
</g>
<!-- Node7_1&#45;&gt;Node5_1 -->
<g id="edge6" class="edge">
<title>Node7_1&#45;&gt;Node5_1</title>
<path fill="none" stroke="black" d="M476.67,-301.48C455.54,-316.45 427.86,-336.06 408.87,-349.51"/>
<polygon fill="black" stroke="black" points="478.85,-304.23 484.99,-295.59 474.81,-298.51 478.85,-304.23"/>
<text text-anchor="middle" x="464.5" y="-318.8" font-family="Times,serif" font-size="14.00">हेतुः</text>
</g>
<!-- Node8_1 -->
<g id="node10" class="node">
<title>Node8_1</title>
<ellipse fill="#87ceeb" stroke="#87ceeb" cx="215" cy="-18" rx="61.99" ry="18"/>
<text text-anchor="middle" x="215" y="-14.3" font-family="Times,serif" font-size="14.00">कुररीणाम्(8.1)</text>
</g>
<!-- Node19_1 -->
<g id="node11" class="node">
<title>Node19_1</title>
<ellipse fill="#00bfff" stroke="#00bfff" cx="215" cy="-105" rx="59.29" ry="18"/>
<text text-anchor="middle" x="215" y="-101.3" font-family="Times,serif" font-size="14.00">(नादः)(19.1)</text>
</g>
<!-- Node8_1&#45;&gt;Node19_1 -->
<g id="edge7" class="edge">
<title>Node8_1&#45;&gt;Node19_1</title>
<path fill="none" stroke="black" d="M215,-46.27C215,-59.58 215,-75.19 215,-86.82"/>
<polygon fill="black" stroke="black" points="218.5,-46.2 215,-36.2 211.5,-46.2 218.5,-46.2"/>
<text text-anchor="middle" x="242.5" y="-57.8" font-family="Times,serif" font-size="14.00">षष्ठीसम्बन्धः</text>
</g>
<!-- Node9_1 -->
<g id="node12" class="node">
<title>Node9_1</title>
<ellipse fill="#ff99ff" stroke="#ff99ff" cx="200" cy="-192" rx="40.89" ry="18"/>
<text text-anchor="middle" x="200" y="-188.3" font-family="Times,serif" font-size="14.00">इव(9.1)</text>
</g>
<!-- Node19_1&#45;&gt;Node9_1 -->
<g id="edge19" class="edge">
<title>Node19_1&#45;&gt;Node9_1</title>
<path fill="none" stroke="black" d="M210.19,-133.27C207.84,-146.58 205.08,-162.19 203.03,-173.82"/>
<polygon fill="black" stroke="black" points="213.67,-133.66 211.96,-123.2 206.78,-132.44 213.67,-133.66"/>
<text text-anchor="middle" x="229.5" y="-144.8" font-family="Times,serif" font-size="14.00">उपमानम्</text>
</g>
<!-- Node9_1&#45;&gt;Node2_1 -->
<g id="edge8" class="edge">
<title>Node9_1&#45;&gt;Node2_1</title>
<path fill="none" stroke="black" d="M190.01,-219.53C184.92,-233.05 178.88,-249.09 174.42,-260.95"/>
<polygon fill="black" stroke="black" points="193.43,-220.39 193.68,-209.79 186.88,-217.92 193.43,-220.39"/>
<text text-anchor="middle" x="222.5" y="-231.8" font-family="Times,serif" font-size="14.00">उपमान_द्योतकः</text>
</g>
<!-- Node10_1 -->
<g id="node13" class="node">
<title>Node10_1</title>
<ellipse fill="#ff99ff" stroke="#ff99ff" cx="632" cy="-279" rx="53.09" ry="18"/>
<text text-anchor="middle" x="632" y="-275.3" font-family="Times,serif" font-size="14.00">उच्चैः(10.1)</text>
</g>
<!-- Node10_1&#45;&gt;Node5_1 -->
<g id="edge9" class="edge">
<title>Node10_1&#45;&gt;Node5_1</title>
<path fill="none" stroke="black" d="M586.44,-295.81C539.21,-312.19 466.33,-337.48 422.98,-352.52"/>
<polygon fill="black" stroke="black" points="587.81,-299.04 596.11,-292.45 585.52,-292.42 587.81,-299.04"/>
<text text-anchor="middle" x="560" y="-318.8" font-family="Times,serif" font-size="14.00">क्रियाविशेषणम्</text>
</g>
<!-- Node11_1 -->
<g id="node14" class="node">
<title>Node11_1</title>
<ellipse fill="#ff99ff" stroke="#ff99ff" cx="753" cy="-279" rx="50.09" ry="18"/>
<text text-anchor="middle" x="753" y="-275.3" font-family="Times,serif" font-size="14.00">ततः(11.1)</text>
</g>
<!-- Node12_1 -->
<g id="node15" class="node">
<title>Node12_1</title>
<ellipse fill="#ff1975" stroke="#ff1975" cx="885" cy="-366" rx="60.39" ry="18"/>
<text text-anchor="middle" x="885" y="-362.3" font-family="Times,serif" font-size="14.00">निष्पेतुः(12.1)</text>
</g>
<!-- Node11_1&#45;&gt;Node12_1 -->
<g id="edge10" class="edge">
<title>Node11_1&#45;&gt;Node12_1</title>
<path fill="none" stroke="black" d="M784.8,-300.48C808.1,-315.48 839.25,-335.54 860.6,-349.29"/>
<polygon fill="black" stroke="black" points="786.6,-297.47 776.3,-295 782.81,-303.36 786.6,-297.47"/>
<text text-anchor="middle" x="844.5" y="-318.8" font-family="Times,serif" font-size="14.00">सम्बन्धः</text>
</g>
<!-- Node17_1&#45;&gt;Node12_1 -->
<g id="edge17" class="edge">
<title>Node17_1&#45;&gt;Node12_1</title>
<path fill="none" stroke="black" d="M994.51,-302.81C984.04,-311.92 971.39,-322.09 959,-330 946.54,-337.95 931.99,-345.22 919.11,-351.05"/>
<polygon fill="black" stroke="black" points="996.9,-305.37 1002.05,-296.12 992.25,-300.14 996.9,-305.37"/>
<text text-anchor="middle" x="989" y="-318.8" font-family="Times,serif" font-size="14.00">कर्ता</text>
</g>
<!-- Node13_1 -->
<g id="node17" class="node">
<title>Node13_1</title>
<ellipse fill="#ffff00" stroke="#ffff00" cx="1028" cy="-18" rx="60.39" ry="18"/>
<text text-anchor="middle" x="1028" y="-14.3" font-family="Times,serif" font-size="14.00">ब्राह्मण&#45;(13.1)</text>
</g>
<!-- Node13_1&#45;&gt;Node13_2 -->
<g id="edge11" class="edge">
<title>Node13_1&#45;&gt;Node13_2</title>
<path fill="none" stroke="black" d="M1028,-46.27C1028,-59.58 1028,-75.19 1028,-86.82"/>
<polygon fill="black" stroke="black" points="1031.5,-46.2 1028,-36.2 1024.5,-46.2 1031.5,-46.2"/>
<text text-anchor="middle" x="1039" y="-57.8" font-family="Times,serif" font-size="14.00">द्वन्द्वः</text>
</g>
<!-- Node14_1 -->
<g id="node18" class="node">
<title>Node14_1</title>
<ellipse fill="#ffff00" stroke="#ffff00" cx="779" cy="-105" rx="51.99" ry="18"/>
<text text-anchor="middle" x="779" y="-101.3" font-family="Times,serif" font-size="14.00">विट्&#45;(14.1)</text>
</g>
<!-- Node14_1&#45;&gt;Node14_2 -->
<g id="edge13" class="edge">
<title>Node14_1&#45;&gt;Node14_2</title>
<path fill="none" stroke="black" d="M818.35,-123.89C841.32,-133.99 871.01,-146.46 898,-156 922.64,-164.71 950.64,-172.91 973.5,-179.19"/>
<polygon fill="black" stroke="black" points="819.51,-120.58 808.95,-119.72 816.67,-126.97 819.51,-120.58"/>
<text text-anchor="middle" x="909" y="-144.8" font-family="Times,serif" font-size="14.00">द्वन्द्वः</text>
</g>
<!-- Node15_1 -->
<g id="node19" class="node">
<title>Node15_1</title>
<ellipse fill="#ff99ff" stroke="#ff99ff" cx="893" cy="-105" rx="43.59" ry="18"/>
<text text-anchor="middle" x="893" y="-101.3" font-family="Times,serif" font-size="14.00">च(15.1)</text>
</g>
<!-- Node15_1&#45;&gt;Node14_2 -->
<g id="edge15" class="edge">
<title>Node15_1&#45;&gt;Node14_2</title>
<path fill="none" stroke="black" d="M913.08,-129.98C921.39,-138.92 931.53,-148.67 942,-156 954.03,-164.42 968.41,-171.61 981.47,-177.23"/>
<polygon fill="black" stroke="black" points="915.57,-127.51 906.28,-122.41 910.36,-132.19 915.57,-127.51"/>
<text text-anchor="middle" x="980" y="-144.8" font-family="Times,serif" font-size="14.00">समुच्चय_द्योतकः</text>
</g>
<!-- Node16_1 -->
<g id="node20" class="node">
<title>Node16_1</title>
<ellipse fill="#ff99ff" stroke="#ff99ff" cx="893" cy="-18" rx="47.39" ry="18"/>
<text text-anchor="middle" x="893" y="-14.3" font-family="Times,serif" font-size="14.00">एव(16.1)</text>
</g>
<!-- Node16_1&#45;&gt;Node15_1 -->
<g id="edge16" class="edge">
<title>Node16_1&#45;&gt;Node15_1</title>
<path fill="none" stroke="black" d="M893,-46.27C893,-59.58 893,-75.19 893,-86.82"/>
<polygon fill="black" stroke="black" points="896.5,-46.2 893,-36.2 889.5,-46.2 896.5,-46.2"/>
<text text-anchor="middle" x="911.5" y="-57.8" font-family="Times,serif" font-size="14.00">सम्बन्धः</text>
</g>
<!-- Node18_1 -->
<g id="node21" class="node">
<title>Node18_1</title>
<ellipse fill="#ff99ff" stroke="#ff99ff" cx="885" cy="-279" rx="63.89" ry="18"/>
<text text-anchor="middle" x="885" y="-275.3" font-family="Times,serif" font-size="14.00">समन्तात्(18.1)</text>
</g>
<!-- Node18_1&#45;&gt;Node12_1 -->
<g id="edge18" class="edge">
<title>Node18_1&#45;&gt;Node12_1</title>
<path fill="none" stroke="black" d="M885,-307.27C885,-320.58 885,-336.19 885,-347.82"/>
<polygon fill="black" stroke="black" points="888.5,-307.2 885,-297.2 881.5,-307.2 888.5,-307.2"/>
<text text-anchor="middle" x="920" y="-318.8" font-family="Times,serif" font-size="14.00">क्रियाविशेषणम्</text>
</g>
</g>
</svg>
