<?xml version="1.0" encoding="UTF-8" standalone="no"?>
<!DOCTYPE svg PUBLIC "-//W3C//DTD SVG 1.1//EN"
 "http://www.w3.org/Graphics/SVG/1.1/DTD/svg11.dtd">
<!-- Generated by graphviz version 2.43.0 (0)
 -->
<!-- Title: G Pages: 1 -->
<svg width="744pt" height="392pt"
 viewBox="0.00 0.00 744.00 392.00" xmlns="http://www.w3.org/2000/svg" xmlns:xlink="http://www.w3.org/1999/xlink">
<g id="graph0" class="graph" transform="scale(1 1) rotate(0) translate(4 388)">
<title>G</title>
<polygon fill="#fffacd" stroke="transparent" points="-4,4 -4,-388 740,-388 740,4 -4,4"/>
<g id="clust1" class="cluster">
<title>cluster_1</title>
<polygon fill="#fffacd" stroke="black" points="260,-79 260,-218 380,-218 380,-79 260,-79"/>
</g>
<g id="clust2" class="cluster">
<title>cluster_2</title>
<polygon fill="#fffacd" stroke="black" points="8,-166 8,-305 120,-305 120,-166 8,-166"/>
</g>
<!-- Node2_2 -->
<g id="node1" class="node">
<title>Node2_2</title>
<ellipse fill="#93db70" stroke="#93db70" cx="320" cy="-105" rx="51.99" ry="18"/>
<text text-anchor="middle" x="320" y="-101.3" font-family="Times,serif" font-size="14.00">कलाम्(2.2)</text>
</g>
<!-- Node3_1 -->
<g id="node2" class="node">
<title>Node3_1</title>
<ellipse fill="#93db70" stroke="#93db70" cx="318" cy="-192" rx="49.29" ry="18"/>
<text text-anchor="middle" x="318" y="-188.3" font-family="Times,serif" font-size="14.00">वाचम्(3.1)</text>
</g>
<!-- Node2_2&#45;&gt;Node3_1 -->
<g id="edge3" class="edge">
<title>Node2_2&#45;&gt;Node3_1</title>
<path fill="none" stroke="black" d="M319.36,-133.27C319.05,-146.58 318.68,-162.19 318.4,-173.82"/>
<polygon fill="black" stroke="black" points="322.86,-133.28 319.6,-123.2 315.86,-133.12 322.86,-133.28"/>
<text text-anchor="middle" x="341.5" y="-144.8" font-family="Times,serif" font-size="14.00">विशेषणम्</text>
</g>
<!-- Node6_1 -->
<g id="node6" class="node">
<title>Node6_1</title>
<ellipse fill="#00bfff" stroke="#00bfff" cx="286" cy="-279" rx="53.89" ry="18"/>
<text text-anchor="middle" x="286" y="-275.3" font-family="Times,serif" font-size="14.00">शृण्वती(6.1)</text>
</g>
<!-- Node3_1&#45;&gt;Node6_1 -->
<g id="edge4" class="edge">
<title>Node3_1&#45;&gt;Node6_1</title>
<path fill="none" stroke="black" d="M307.86,-219.94C302.78,-233.43 296.78,-249.36 292.36,-261.11"/>
<polygon fill="black" stroke="black" points="311.28,-220.79 311.52,-210.2 304.73,-218.33 311.28,-220.79"/>
<text text-anchor="middle" x="313" y="-231.8" font-family="Times,serif" font-size="14.00">कर्म</text>
</g>
<!-- Node9_3 -->
<g id="node3" class="node">
<title>Node9_3</title>
<ellipse fill="#00bfff" stroke="#00bfff" cx="64" cy="-192" rx="47.39" ry="18"/>
<text text-anchor="middle" x="64" y="-188.3" font-family="Times,serif" font-size="14.00">अक्षी(9.3)</text>
</g>
<!-- Node4_1 -->
<g id="node4" class="node">
<title>Node4_1</title>
<ellipse fill="#00bfff" stroke="#00bfff" cx="64" cy="-279" rx="48.19" ry="18"/>
<text text-anchor="middle" x="64" y="-275.3" font-family="Times,serif" font-size="14.00">कुन्ती(4.1)</text>
</g>
<!-- Node9_3&#45;&gt;Node4_1 -->
<g id="edge11" class="edge">
<title>Node9_3&#45;&gt;Node4_1</title>
<path fill="none" stroke="black" d="M64,-220.27C64,-233.58 64,-249.19 64,-260.82"/>
<polygon fill="black" stroke="black" points="67.5,-220.2 64,-210.2 60.5,-220.2 67.5,-220.2"/>
<text text-anchor="middle" x="86.5" y="-231.8" font-family="Times,serif" font-size="14.00">विशेषणम्</text>
</g>
<!-- Node7_1 -->
<g id="node8" class="node">
<title>Node7_1</title>
<ellipse fill="#ff1975" stroke="#ff1975" cx="172" cy="-366" rx="50.09" ry="18"/>
<text text-anchor="middle" x="172" y="-362.3" font-family="Times,serif" font-size="14.00">जगाम(7.1)</text>
</g>
<!-- Node4_1&#45;&gt;Node7_1 -->
<g id="edge5" class="edge">
<title>Node4_1&#45;&gt;Node7_1</title>
<path fill="none" stroke="black" d="M91.75,-301.84C110.57,-316.65 135.01,-335.89 151.95,-349.22"/>
<polygon fill="black" stroke="black" points="93.83,-299.02 83.81,-295.59 89.5,-304.53 93.83,-299.02"/>
<text text-anchor="middle" x="136" y="-318.8" font-family="Times,serif" font-size="14.00">कर्ता</text>
</g>
<!-- Node1_1 -->
<g id="node5" class="node">
<title>Node1_1</title>
<ellipse fill="#ff99ff" stroke="#ff99ff" cx="206" cy="-192" rx="44.39" ry="18"/>
<text text-anchor="middle" x="206" y="-188.3" font-family="Times,serif" font-size="14.00">इति(1.1)</text>
</g>
<!-- Node1_1&#45;&gt;Node6_1 -->
<g id="edge1" class="edge">
<title>Node1_1&#45;&gt;Node6_1</title>
<path fill="none" stroke="black" d="M228.12,-216.5C241.58,-230.8 258.43,-248.71 270.47,-261.5"/>
<polygon fill="black" stroke="black" points="230.45,-213.87 221.05,-208.99 225.35,-218.67 230.45,-213.87"/>
<text text-anchor="middle" x="269.5" y="-231.8" font-family="Times,serif" font-size="14.00">सम्बन्धः</text>
</g>
<!-- Node6_1&#45;&gt;Node7_1 -->
<g id="edge7" class="edge">
<title>Node6_1&#45;&gt;Node7_1</title>
<path fill="none" stroke="black" d="M256.65,-301.89C236.61,-316.83 210.56,-336.25 192.68,-349.58"/>
<polygon fill="black" stroke="black" points="258.9,-304.57 264.82,-295.79 254.72,-298.96 258.9,-304.57"/>
<text text-anchor="middle" x="280" y="-318.8" font-family="Times,serif" font-size="14.00">वर्तमानसमानकालः</text>
</g>
<!-- Node2_1 -->
<g id="node7" class="node">
<title>Node2_1</title>
<ellipse fill="#ffff00" stroke="#ffff00" cx="320" cy="-18" rx="50.09" ry="18"/>
<text text-anchor="middle" x="320" y="-14.3" font-family="Times,serif" font-size="14.00">बाष्प&#45;(2.1)</text>
</g>
<!-- Node2_1&#45;&gt;Node2_2 -->
<g id="edge2" class="edge">
<title>Node2_1&#45;&gt;Node2_2</title>
<path fill="none" stroke="black" d="M320,-46.27C320,-59.58 320,-75.19 320,-86.82"/>
<polygon fill="black" stroke="black" points="323.5,-46.2 320,-36.2 316.5,-46.2 323.5,-46.2"/>
<text text-anchor="middle" x="337" y="-57.8" font-family="Times,serif" font-size="14.00">समासः</text>
</g>
<!-- Node5_1 -->
<g id="node9" class="node">
<title>Node5_1</title>
<ellipse fill="#87ceeb" stroke="#87ceeb" cx="199" cy="-105" rx="51.19" ry="18"/>
<text text-anchor="middle" x="199" y="-101.3" font-family="Times,serif" font-size="14.00">पुत्रस्य(5.1)</text>
</g>
<!-- Node5_1&#45;&gt;Node3_1 -->
<g id="edge6" class="edge">
<title>Node5_1&#45;&gt;Node3_1</title>
<path fill="none" stroke="black" d="M224.65,-128.91C235.02,-137.76 247.29,-147.73 259,-156 269.41,-163.35 281.42,-170.67 291.88,-176.7"/>
<polygon fill="black" stroke="black" points="226.63,-126 216.78,-122.1 222.05,-131.29 226.63,-126"/>
<text text-anchor="middle" x="286.5" y="-144.8" font-family="Times,serif" font-size="14.00">षष्ठीसम्बन्धः</text>
</g>
<!-- Node8_1 -->
<g id="node10" class="node">
<title>Node8_1</title>
<ellipse fill="#ff99ff" stroke="#ff99ff" cx="172" cy="-279" rx="41.69" ry="18"/>
<text text-anchor="middle" x="172" y="-275.3" font-family="Times,serif" font-size="14.00">एव(8.1)</text>
</g>
<!-- Node8_1&#45;&gt;Node7_1 -->
<g id="edge8" class="edge">
<title>Node8_1&#45;&gt;Node7_1</title>
<path fill="none" stroke="black" d="M172,-307.27C172,-320.58 172,-336.19 172,-347.82"/>
<polygon fill="black" stroke="black" points="175.5,-307.2 172,-297.2 168.5,-307.2 175.5,-307.2"/>
<text text-anchor="middle" x="190.5" y="-318.8" font-family="Times,serif" font-size="14.00">सम्बन्धः</text>
</g>
<!-- Node9_1 -->
<g id="node11" class="node">
<title>Node9_1</title>
<ellipse fill="#ffff00" stroke="#ffff00" cx="64" cy="-18" rx="47.39" ry="18"/>
<text text-anchor="middle" x="64" y="-14.3" font-family="Times,serif" font-size="14.00">अश्रु&#45;(9.1)</text>
</g>
<!-- Node9_2 -->
<g id="node12" class="node">
<title>Node9_2</title>
<ellipse fill="#ffff00" stroke="#ffff00" cx="64" cy="-105" rx="46.29" ry="18"/>
<text text-anchor="middle" x="64" y="-101.3" font-family="Times,serif" font-size="14.00">पूर्ण&#45;(9.2)</text>
</g>
<!-- Node9_1&#45;&gt;Node9_2 -->
<g id="edge9" class="edge">
<title>Node9_1&#45;&gt;Node9_2</title>
<path fill="none" stroke="black" d="M64,-46.27C64,-59.58 64,-75.19 64,-86.82"/>
<polygon fill="black" stroke="black" points="67.5,-46.2 64,-36.2 60.5,-46.2 67.5,-46.2"/>
<text text-anchor="middle" x="81" y="-57.8" font-family="Times,serif" font-size="14.00">समासः</text>
</g>
<!-- Node9_2&#45;&gt;Node9_3 -->
<g id="edge10" class="edge">
<title>Node9_2&#45;&gt;Node9_3</title>
<path fill="none" stroke="black" d="M64,-133.27C64,-146.58 64,-162.19 64,-173.82"/>
<polygon fill="black" stroke="black" points="67.5,-133.2 64,-123.2 60.5,-133.2 67.5,-133.2"/>
<text text-anchor="middle" x="81" y="-144.8" font-family="Times,serif" font-size="14.00">समासः</text>
</g>
<!-- Node10_1 -->
<g id="node13" class="node">
<title>Node10_1</title>
<ellipse fill="#00bfff" stroke="#00bfff" cx="442" cy="-18" rx="53.89" ry="18"/>
<text text-anchor="middle" x="442" y="-14.3" font-family="Times,serif" font-size="14.00">भीमः(10.1)</text>
</g>
<!-- Node13_1 -->
<g id="node14" class="node">
<title>Node13_1</title>
<ellipse fill="#ff1975" stroke="#ff1975" cx="564" cy="-105" rx="60.39" ry="18"/>
<text text-anchor="middle" x="564" y="-101.3" font-family="Times,serif" font-size="14.00">अब्रवीत्(13.1)</text>
</g>
<!-- Node10_1&#45;&gt;Node13_1 -->
<g id="edge12" class="edge">
<title>Node10_1&#45;&gt;Node13_1</title>
<path fill="none" stroke="black" d="M472.78,-40.44C494.11,-55.31 522.04,-74.77 541.35,-88.22"/>
<polygon fill="black" stroke="black" points="474.58,-37.44 464.38,-34.59 470.58,-43.18 474.58,-37.44"/>
<text text-anchor="middle" x="521" y="-57.8" font-family="Times,serif" font-size="14.00">कर्ता</text>
</g>
<!-- Node11_1 -->
<g id="node15" class="node">
<title>Node11_1</title>
<ellipse fill="#93db70" stroke="#93db70" cx="564" cy="-18" rx="50.09" ry="18"/>
<text text-anchor="middle" x="564" y="-14.3" font-family="Times,serif" font-size="14.00">ताम्(11.1)</text>
</g>
<!-- Node11_1&#45;&gt;Node13_1 -->
<g id="edge13" class="edge">
<title>Node11_1&#45;&gt;Node13_1</title>
<path fill="none" stroke="black" d="M564,-46.27C564,-59.58 564,-75.19 564,-86.82"/>
<polygon fill="black" stroke="black" points="567.5,-46.2 564,-36.2 560.5,-46.2 567.5,-46.2"/>
<text text-anchor="middle" x="583.5" y="-57.8" font-family="Times,serif" font-size="14.00">गौणकर्म</text>
</g>
<!-- Node12_1 -->
<g id="node16" class="node">
<title>Node12_1</title>
<ellipse fill="#93db70" stroke="#93db70" cx="684" cy="-18" rx="51.99" ry="18"/>
<text text-anchor="middle" x="684" y="-14.3" font-family="Times,serif" font-size="14.00">इदम्(12.1)</text>
</g>
<!-- Node12_1&#45;&gt;Node13_1 -->
<g id="edge14" class="edge">
<title>Node12_1&#45;&gt;Node13_1</title>
<path fill="none" stroke="black" d="M654.01,-40.24C633.03,-55.1 605.46,-74.63 586.38,-88.15"/>
<polygon fill="black" stroke="black" points="656.13,-43.03 662.27,-34.39 652.09,-37.32 656.13,-43.03"/>
<text text-anchor="middle" x="651" y="-57.8" font-family="Times,serif" font-size="14.00">मुख्यकर्म</text>
</g>
</g>
</svg>
