<?xml version="1.0" encoding="UTF-8" standalone="no"?>
<!DOCTYPE svg PUBLIC "-//W3C//DTD SVG 1.1//EN"
 "http://www.w3.org/Graphics/SVG/1.1/DTD/svg11.dtd">
<!-- Generated by graphviz version 2.43.0 (0)
 -->
<!-- Title: G Pages: 1 -->
<svg width="878pt" height="392pt"
 viewBox="0.00 0.00 878.04 392.00" xmlns="http://www.w3.org/2000/svg" xmlns:xlink="http://www.w3.org/1999/xlink">
<g id="graph0" class="graph" transform="scale(1 1) rotate(0) translate(4 388)">
<title>G</title>
<polygon fill="#fffacd" stroke="transparent" points="-4,4 -4,-388 874.04,-388 874.04,4 -4,4"/>
<g id="clust1" class="cluster">
<title>cluster_1</title>
<polygon fill="#fffacd" stroke="black" points="202.2,-166 202.2,-305 342.2,-305 342.2,-166 202.2,-166"/>
</g>
<!-- Node5_3 -->
<g id="node1" class="node">
<title>Node5_3</title>
<ellipse fill="#00bfff" stroke="#00bfff" cx="272.2" cy="-192" rx="61.99" ry="18"/>
<text text-anchor="middle" x="272.2" y="-188.3" font-family="Times,serif" font-size="14.00">अन्तःपुराः(5.3)</text>
</g>
<!-- Node2_1 -->
<g id="node2" class="node">
<title>Node2_1</title>
<ellipse fill="#00bfff" stroke="#00bfff" cx="271.2" cy="-279" rx="57.69" ry="18"/>
<text text-anchor="middle" x="271.2" y="-275.3" font-family="Times,serif" font-size="14.00">पाण्डवाः(2.1)</text>
</g>
<!-- Node5_3&#45;&gt;Node2_1 -->
<g id="edge6" class="edge">
<title>Node5_3&#45;&gt;Node2_1</title>
<path fill="none" stroke="black" d="M271.88,-220.27C271.72,-233.58 271.53,-249.19 271.4,-260.82"/>
<polygon fill="black" stroke="black" points="275.38,-220.24 271.99,-210.2 268.38,-220.16 275.38,-220.24"/>
<text text-anchor="middle" x="293.7" y="-231.8" font-family="Times,serif" font-size="14.00">विशेषणम्</text>
</g>
<!-- Node1_1 -->
<g id="node3" class="node">
<title>Node1_1</title>
<ellipse fill="#ff1975" stroke="#ff1975" cx="150.2" cy="-366" rx="53.09" ry="18"/>
<text text-anchor="middle" x="150.2" y="-362.3" font-family="Times,serif" font-size="14.00">अन्वयुः(1.1)</text>
</g>
<!-- Node2_1&#45;&gt;Node1_1 -->
<g id="edge1" class="edge">
<title>Node2_1&#45;&gt;Node1_1</title>
<path fill="none" stroke="black" d="M251.96,-304.65C244.29,-313.4 234.96,-322.85 225.2,-330 213.02,-338.91 198.22,-346.4 184.99,-352.13"/>
<polygon fill="black" stroke="black" points="254.73,-306.78 258.5,-296.88 249.38,-302.27 254.73,-306.78"/>
<text text-anchor="middle" x="252.2" y="-318.8" font-family="Times,serif" font-size="14.00">कर्ता</text>
</g>
<!-- Node3_1 -->
<g id="node4" class="node">
<title>Node3_1</title>
<ellipse fill="#93db70" stroke="#93db70" cx="44.2" cy="-279" rx="44.39" ry="18"/>
<text text-anchor="middle" x="44.2" y="-275.3" font-family="Times,serif" font-size="14.00">ताम्(3.1)</text>
</g>
<!-- Node3_1&#45;&gt;Node1_1 -->
<g id="edge2" class="edge">
<title>Node3_1&#45;&gt;Node1_1</title>
<path fill="none" stroke="black" d="M71.68,-302.04C90.12,-316.83 113.97,-335.95 130.52,-349.22"/>
<polygon fill="black" stroke="black" points="73.63,-299.12 63.64,-295.59 69.25,-304.58 73.63,-299.12"/>
<text text-anchor="middle" x="113.2" y="-318.8" font-family="Times,serif" font-size="14.00">कर्म</text>
</g>
<!-- Node4_1 -->
<g id="node5" class="node">
<title>Node4_1</title>
<ellipse fill="#ff99ff" stroke="#ff99ff" cx="44.2" cy="-192" rx="37.09" ry="18"/>
<text text-anchor="middle" x="44.2" y="-188.3" font-family="Times,serif" font-size="14.00">तु(4.1)</text>
</g>
<!-- Node4_1&#45;&gt;Node3_1 -->
<g id="edge3" class="edge">
<title>Node4_1&#45;&gt;Node3_1</title>
<path fill="none" stroke="black" d="M44.2,-220.27C44.2,-233.58 44.2,-249.19 44.2,-260.82"/>
<polygon fill="black" stroke="black" points="47.7,-220.2 44.2,-210.2 40.7,-220.2 47.7,-220.2"/>
<text text-anchor="middle" x="62.7" y="-231.8" font-family="Times,serif" font-size="14.00">सम्बन्धः</text>
</g>
<!-- Node5_1 -->
<g id="node6" class="node">
<title>Node5_1</title>
<ellipse fill="#ffff00" stroke="#ffff00" cx="272.2" cy="-18" rx="40.89" ry="18"/>
<text text-anchor="middle" x="272.2" y="-14.3" font-family="Times,serif" font-size="14.00">स&#45;(5.1)</text>
</g>
<!-- Node5_2 -->
<g id="node7" class="node">
<title>Node5_2</title>
<ellipse fill="#ffff00" stroke="#ffff00" cx="272.2" cy="-105" rx="49.29" ry="18"/>
<text text-anchor="middle" x="272.2" y="-101.3" font-family="Times,serif" font-size="14.00">भृत्य&#45;(5.2)</text>
</g>
<!-- Node5_1&#45;&gt;Node5_2 -->
<g id="edge4" class="edge">
<title>Node5_1&#45;&gt;Node5_2</title>
<path fill="none" stroke="black" d="M272.2,-46.27C272.2,-59.58 272.2,-75.19 272.2,-86.82"/>
<polygon fill="black" stroke="black" points="275.7,-46.2 272.2,-36.2 268.7,-46.2 275.7,-46.2"/>
<text text-anchor="middle" x="289.2" y="-57.8" font-family="Times,serif" font-size="14.00">समासः</text>
</g>
<!-- Node5_2&#45;&gt;Node5_3 -->
<g id="edge5" class="edge">
<title>Node5_2&#45;&gt;Node5_3</title>
<path fill="none" stroke="black" d="M272.2,-133.27C272.2,-146.58 272.2,-162.19 272.2,-173.82"/>
<polygon fill="black" stroke="black" points="275.7,-133.2 272.2,-123.2 268.7,-133.2 275.7,-133.2"/>
<text text-anchor="middle" x="289.2" y="-144.8" font-family="Times,serif" font-size="14.00">समासः</text>
</g>
<!-- Node6_1 -->
<g id="node8" class="node">
<title>Node6_1</title>
<ellipse fill="#ff99ff" stroke="#ff99ff" cx="150.2" cy="-279" rx="44.39" ry="18"/>
<text text-anchor="middle" x="150.2" y="-275.3" font-family="Times,serif" font-size="14.00">तदा(6.1)</text>
</g>
<!-- Node6_1&#45;&gt;Node1_1 -->
<g id="edge7" class="edge">
<title>Node6_1&#45;&gt;Node1_1</title>
<path fill="none" stroke="black" d="M150.2,-307.27C150.2,-320.58 150.2,-336.19 150.2,-347.82"/>
<polygon fill="black" stroke="black" points="153.7,-307.2 150.2,-297.2 146.7,-307.2 153.7,-307.2"/>
<text text-anchor="middle" x="185.7" y="-318.8" font-family="Times,serif" font-size="14.00">कालाधिकरणम्</text>
</g>
<!-- Node7_1 -->
<g id="node9" class="node">
<title>Node7_1</title>
<ellipse fill="#ff99ff" stroke="#ff99ff" cx="384.2" cy="-105" rx="44.39" ry="18"/>
<text text-anchor="middle" x="384.2" y="-101.3" font-family="Times,serif" font-size="14.00">ततः(7.1)</text>
</g>
<!-- Node13_1 -->
<g id="node10" class="node">
<title>Node13_1</title>
<ellipse fill="#ff1975" stroke="#ff1975" cx="555.2" cy="-192" rx="60.39" ry="18"/>
<text text-anchor="middle" x="555.2" y="-188.3" font-family="Times,serif" font-size="14.00">अब्रवीत्(13.1)</text>
</g>
<!-- Node7_1&#45;&gt;Node13_1 -->
<g id="edge8" class="edge">
<title>Node7_1&#45;&gt;Node13_1</title>
<path fill="none" stroke="black" d="M394.45,-132.4C399,-141.06 405.18,-149.99 413.2,-156 437.17,-173.98 469.21,-182.82 496.79,-187.12"/>
<polygon fill="black" stroke="black" points="397.57,-130.81 390.14,-123.26 391.24,-133.8 397.57,-130.81"/>
<text text-anchor="middle" x="431.7" y="-144.8" font-family="Times,serif" font-size="14.00">सम्बन्धः</text>
</g>
<!-- Node8_1 -->
<g id="node11" class="node">
<title>Node8_1</title>
<ellipse fill="#ff99ff" stroke="#ff99ff" cx="555.2" cy="-105" rx="50.89" ry="18"/>
<text text-anchor="middle" x="555.2" y="-101.3" font-family="Times,serif" font-size="14.00">प्रमृज्य(8.1)</text>
</g>
<!-- Node8_1&#45;&gt;Node13_1 -->
<g id="edge9" class="edge">
<title>Node8_1&#45;&gt;Node13_1</title>
<path fill="none" stroke="black" d="M555.2,-133.27C555.2,-146.58 555.2,-162.19 555.2,-173.82"/>
<polygon fill="black" stroke="black" points="558.7,-133.2 555.2,-123.2 551.7,-133.2 558.7,-133.2"/>
<text text-anchor="middle" x="575.7" y="-144.8" font-family="Times,serif" font-size="14.00">पूर्वकालः</text>
</g>
<!-- Node9_1 -->
<g id="node12" class="node">
<title>Node9_1</title>
<ellipse fill="#00bfff" stroke="#00bfff" cx="464.2" cy="-18" rx="40.09" ry="18"/>
<text text-anchor="middle" x="464.2" y="-14.3" font-family="Times,serif" font-size="14.00">सा(9.1)</text>
</g>
<!-- Node9_1&#45;&gt;Node13_1 -->
<g id="edge10" class="edge">
<title>Node9_1&#45;&gt;Node13_1</title>
<path fill="none" stroke="black" d="M461,-46.31C459.69,-68.27 460.77,-99.27 473.2,-123 485.21,-145.94 508.61,-164.12 527.34,-175.9"/>
<polygon fill="black" stroke="black" points="464.49,-46.57 461.8,-36.32 457.51,-46.01 464.49,-46.57"/>
<text text-anchor="middle" x="484.2" y="-101.3" font-family="Times,serif" font-size="14.00">कर्ता</text>
</g>
<!-- Node9_1&#45;&gt;Node8_1 -->
<g id="edge11" class="edge">
<title>Node9_1&#45;&gt;Node8_1</title>
<path fill="none" stroke="black" stroke-dasharray="1,5" d="M488.6,-41.8C504.2,-56.36 524.04,-74.9 537.99,-87.93"/>
<polygon fill="black" stroke="black" points="490.58,-38.86 480.89,-34.59 485.81,-43.97 490.58,-38.86"/>
<text text-anchor="middle" x="525.2" y="-57.8" font-family="Times,serif" font-size="14.00">कर्ता</text>
</g>
<!-- Node10_1 -->
<g id="node13" class="node">
<title>Node10_1</title>
<ellipse fill="#93db70" stroke="#93db70" cx="581.2" cy="-18" rx="59.29" ry="18"/>
<text text-anchor="middle" x="581.2" y="-14.3" font-family="Times,serif" font-size="14.00">अश्रूणि(10.1)</text>
</g>
<!-- Node10_1&#45;&gt;Node8_1 -->
<g id="edge12" class="edge">
<title>Node10_1&#45;&gt;Node8_1</title>
<path fill="none" stroke="black" d="M572.98,-45.87C568.88,-59.27 564.04,-75.08 560.45,-86.82"/>
<polygon fill="black" stroke="black" points="576.36,-46.79 575.93,-36.2 569.66,-44.74 576.36,-46.79"/>
<text text-anchor="middle" x="578.2" y="-57.8" font-family="Times,serif" font-size="14.00">कर्म</text>
</g>
<!-- Node11_1 -->
<g id="node14" class="node">
<title>Node11_1</title>
<ellipse fill="#93db70" stroke="#93db70" cx="680.2" cy="-105" rx="55.79" ry="18"/>
<text text-anchor="middle" x="680.2" y="-101.3" font-family="Times,serif" font-size="14.00">पुत्रान्(11.1)</text>
</g>
<!-- Node11_1&#45;&gt;Node13_1 -->
<g id="edge13" class="edge">
<title>Node11_1&#45;&gt;Node13_1</title>
<path fill="none" stroke="black" d="M648.95,-127.25C627.06,-142.13 598.27,-161.71 578.4,-175.22"/>
<polygon fill="black" stroke="black" points="650.97,-130.11 657.27,-121.59 647.03,-124.32 650.97,-130.11"/>
<text text-anchor="middle" x="643.7" y="-144.8" font-family="Times,serif" font-size="14.00">गौणकर्म</text>
</g>
<!-- Node12_1 -->
<g id="node15" class="node">
<title>Node12_1</title>
<ellipse fill="#00bfff" stroke="#00bfff" cx="812.2" cy="-105" rx="57.69" ry="18"/>
<text text-anchor="middle" x="812.2" y="-101.3" font-family="Times,serif" font-size="14.00">वचनम्(12.1)</text>
</g>
<!-- Node12_1&#45;&gt;Node13_1 -->
<g id="edge14" class="edge">
<title>Node12_1&#45;&gt;Node13_1</title>
<path fill="none" stroke="black" d="M765.69,-122.42C737.3,-132.35 700.24,-145.14 667.2,-156 643.68,-163.73 617.26,-172 595.99,-178.57"/>
<polygon fill="black" stroke="black" points="767.07,-125.65 775.35,-119.04 764.75,-119.04 767.07,-125.65"/>
<text text-anchor="middle" x="730.2" y="-144.8" font-family="Times,serif" font-size="14.00">मुख्यकर्म</text>
</g>
</g>
</svg>
