<?xml version="1.0" encoding="UTF-8" standalone="no"?>
<!DOCTYPE svg PUBLIC "-//W3C//DTD SVG 1.1//EN"
 "http://www.w3.org/Graphics/SVG/1.1/DTD/svg11.dtd">
<!-- Generated by graphviz version 2.43.0 (0)
 -->
<!-- Title: G Pages: 1 -->
<svg width="756pt" height="321pt"
 viewBox="0.00 0.00 755.69 321.00" xmlns="http://www.w3.org/2000/svg" xmlns:xlink="http://www.w3.org/1999/xlink">
<g id="graph0" class="graph" transform="scale(1 1) rotate(0) translate(4 317)">
<title>G</title>
<polygon fill="#fffacd" stroke="transparent" points="-4,4 -4,-317 751.69,-317 751.69,4 -4,4"/>
<g id="clust1" class="cluster">
<title>cluster_1</title>
<polygon fill="#fffacd" stroke="black" points="113.65,-95 113.65,-234 267.65,-234 267.65,-95 113.65,-95"/>
</g>
<g id="clust2" class="cluster">
<title>cluster_2</title>
<polygon fill="#fffacd" stroke="black" points="275.65,-8 275.65,-147 393.65,-147 393.65,-8 275.65,-8"/>
</g>
<g id="clust3" class="cluster">
<title>cluster_3</title>
<polygon fill="#fffacd" stroke="black" points="401.65,-8 401.65,-147 543.65,-147 543.65,-8 401.65,-8"/>
</g>
<!-- Node5_1 -->
<g id="node1" class="node">
<title>Node5_1</title>
<ellipse fill="#93db70" stroke="#93db70" cx="190.65" cy="-121" rx="68.79" ry="18"/>
<text text-anchor="middle" x="190.65" y="-117.3" font-family="Times,serif" font-size="14.00">अपलायिनम्(5.1)</text>
</g>
<!-- Node1_1 -->
<g id="node2" class="node">
<title>Node1_1</title>
<ellipse fill="#93db70" stroke="#93db70" cx="181.65" cy="-208" rx="50.09" ry="18"/>
<text text-anchor="middle" x="181.65" y="-204.3" font-family="Times,serif" font-size="14.00">कर्णम्(1.1)</text>
</g>
<!-- Node5_1&#45;&gt;Node1_1 -->
<g id="edge4" class="edge">
<title>Node5_1&#45;&gt;Node1_1</title>
<path fill="none" stroke="black" d="M187.76,-149.27C186.35,-162.58 184.7,-178.19 183.46,-189.82"/>
<polygon fill="black" stroke="black" points="191.25,-149.51 188.82,-139.2 184.29,-148.78 191.25,-149.51"/>
<text text-anchor="middle" x="209.15" y="-160.8" font-family="Times,serif" font-size="14.00">विशेषणम्</text>
</g>
<!-- Node2_1 -->
<g id="node7" class="node">
<title>Node2_1</title>
<ellipse fill="#ff1975" stroke="#ff1975" cx="98.65" cy="-295" rx="54.69" ry="18"/>
<text text-anchor="middle" x="98.65" y="-291.3" font-family="Times,serif" font-size="14.00">स्मरेथाः(2.1)</text>
</g>
<!-- Node1_1&#45;&gt;Node2_1 -->
<g id="edge1" class="edge">
<title>Node1_1&#45;&gt;Node2_1</title>
<path fill="none" stroke="black" d="M161.28,-233.3C154.02,-241.64 145.66,-250.91 137.65,-259 131.24,-265.46 123.89,-272.22 117.31,-278.05"/>
<polygon fill="black" stroke="black" points="163.98,-235.52 167.85,-225.65 158.68,-230.95 163.98,-235.52"/>
<text text-anchor="middle" x="159.65" y="-247.8" font-family="Times,serif" font-size="14.00">कर्म</text>
</g>
<!-- Node10_1 -->
<g id="node3" class="node">
<title>Node10_1</title>
<ellipse fill="#00bfff" stroke="#00bfff" cx="334.65" cy="-34" rx="50.89" ry="18"/>
<text text-anchor="middle" x="334.65" y="-30.3" font-family="Times,serif" font-size="14.00">वीरः(10.1)</text>
</g>
<!-- Node8_1 -->
<g id="node4" class="node">
<title>Node8_1</title>
<ellipse fill="#00bfff" stroke="#00bfff" cx="342.65" cy="-121" rx="40.09" ry="18"/>
<text text-anchor="middle" x="342.65" y="-117.3" font-family="Times,serif" font-size="14.00">सः(8.1)</text>
</g>
<!-- Node10_1&#45;&gt;Node8_1 -->
<g id="edge8" class="edge">
<title>Node10_1&#45;&gt;Node8_1</title>
<path fill="none" stroke="black" d="M337.21,-62.27C338.46,-75.58 339.93,-91.19 341.03,-102.82"/>
<polygon fill="black" stroke="black" points="340.69,-61.83 336.26,-52.2 333.72,-62.49 340.69,-61.83"/>
<text text-anchor="middle" x="361.15" y="-73.8" font-family="Times,serif" font-size="14.00">विशेषणम्</text>
</g>
<!-- Node6_1 -->
<g id="node10" class="node">
<title>Node6_1</title>
<ellipse fill="#00bfff" stroke="#00bfff" cx="568.65" cy="-208" rx="60.39" ry="18"/>
<text text-anchor="middle" x="568.65" y="-204.3" font-family="Times,serif" font-size="14.00">अवकीर्णः(6.1)</text>
</g>
<!-- Node8_1&#45;&gt;Node6_1 -->
<g id="edge6" class="edge">
<title>Node8_1&#45;&gt;Node6_1</title>
<path fill="none" stroke="black" d="M378.84,-139C385.07,-141.77 391.51,-144.54 397.65,-147 442.17,-164.89 494.33,-182.76 529.22,-194.28"/>
<polygon fill="black" stroke="black" points="379.85,-135.62 369.29,-134.69 376.97,-142 379.85,-135.62"/>
<text text-anchor="middle" x="471.65" y="-160.8" font-family="Times,serif" font-size="14.00">कर्म</text>
</g>
<!-- Node11_1 -->
<g id="node5" class="node">
<title>Node11_1</title>
<ellipse fill="#40e0d0" stroke="#40e0d0" cx="472.65" cy="-34" rx="63.09" ry="18"/>
<text text-anchor="middle" x="472.65" y="-30.3" font-family="Times,serif" font-size="14.00">दुष्प्रज्ञया(11.1)</text>
</g>
<!-- Node9_1 -->
<g id="node6" class="node">
<title>Node9_1</title>
<ellipse fill="#40e0d0" stroke="#40e0d0" cx="484.65" cy="-121" rx="44.39" ry="18"/>
<text text-anchor="middle" x="484.65" y="-117.3" font-family="Times,serif" font-size="14.00">मया(9.1)</text>
</g>
<!-- Node11_1&#45;&gt;Node9_1 -->
<g id="edge9" class="edge">
<title>Node11_1&#45;&gt;Node9_1</title>
<path fill="none" stroke="black" d="M476.49,-62.27C478.37,-75.58 480.58,-91.19 482.22,-102.82"/>
<polygon fill="black" stroke="black" points="479.94,-61.61 475.07,-52.2 473.01,-62.59 479.94,-61.61"/>
<text text-anchor="middle" x="501.15" y="-73.8" font-family="Times,serif" font-size="14.00">विशेषणम्</text>
</g>
<!-- Node9_1&#45;&gt;Node6_1 -->
<g id="edge7" class="edge">
<title>Node9_1&#45;&gt;Node6_1</title>
<path fill="none" stroke="black" d="M507.48,-145.11C521.67,-159.47 539.58,-177.59 552.34,-190.5"/>
<polygon fill="black" stroke="black" points="509.96,-142.64 500.45,-137.99 504.98,-147.56 509.96,-142.64"/>
<text text-anchor="middle" x="542.65" y="-160.8" font-family="Times,serif" font-size="14.00">कर्ता</text>
</g>
<!-- Node3_1 -->
<g id="node8" class="node">
<title>Node3_1</title>
<ellipse fill="#ff99ff" stroke="#ff99ff" cx="52.65" cy="-208" rx="52.79" ry="18"/>
<text text-anchor="middle" x="52.65" y="-204.3" font-family="Times,serif" font-size="14.00">सततम्(3.1)</text>
</g>
<!-- Node3_1&#45;&gt;Node2_1 -->
<g id="edge2" class="edge">
<title>Node3_1&#45;&gt;Node2_1</title>
<path fill="none" stroke="black" d="M58.46,-236.08C60.71,-243.76 63.72,-251.95 67.65,-259 71.36,-265.67 76.52,-272.16 81.57,-277.7"/>
<polygon fill="black" stroke="black" points="61.84,-235.18 55.91,-226.4 55.07,-236.96 61.84,-235.18"/>
<text text-anchor="middle" x="102.65" y="-247.8" font-family="Times,serif" font-size="14.00">क्रियाविशेषणम्</text>
</g>
<!-- Node4_1 -->
<g id="node9" class="node">
<title>Node4_1</title>
<ellipse fill="#c6e2eb" stroke="#c6e2eb" cx="190.65" cy="-34" rx="60.39" ry="18"/>
<text text-anchor="middle" x="190.65" y="-30.3" font-family="Times,serif" font-size="14.00">सङ्ग्रामेषु(4.1)</text>
</g>
<!-- Node4_1&#45;&gt;Node5_1 -->
<g id="edge3" class="edge">
<title>Node4_1&#45;&gt;Node5_1</title>
<path fill="none" stroke="black" d="M190.65,-62.27C190.65,-75.58 190.65,-91.19 190.65,-102.82"/>
<polygon fill="black" stroke="black" points="194.15,-62.2 190.65,-52.2 187.15,-62.2 194.15,-62.2"/>
<text text-anchor="middle" x="222.65" y="-73.8" font-family="Times,serif" font-size="14.00">देशाधिकरणम्</text>
</g>
<!-- Node7_1 -->
<g id="node11" class="node">
<title>Node7_1</title>
<ellipse fill="#ff99ff" stroke="#ff99ff" cx="590.65" cy="-121" rx="38.99" ry="18"/>
<text text-anchor="middle" x="590.65" y="-117.3" font-family="Times,serif" font-size="14.00">हि(7.1)</text>
</g>
<!-- Node7_1&#45;&gt;Node6_1 -->
<g id="edge5" class="edge">
<title>Node7_1&#45;&gt;Node6_1</title>
<path fill="none" stroke="black" d="M583.59,-149.27C580.14,-162.58 576.1,-178.19 573.09,-189.82"/>
<polygon fill="black" stroke="black" points="587.08,-149.76 586.19,-139.2 580.3,-148.01 587.08,-149.76"/>
<text text-anchor="middle" x="599.15" y="-160.8" font-family="Times,serif" font-size="14.00">सम्बन्धः</text>
</g>
<!-- Node12_1 -->
<g id="node12" class="node">
<title>Node12_1</title>
<ellipse fill="#ff99ff" stroke="#ff99ff" cx="697.65" cy="-121" rx="50.09" ry="18"/>
<text text-anchor="middle" x="697.65" y="-117.3" font-family="Times,serif" font-size="14.00">तदा(12.1)</text>
</g>
<!-- Node12_1&#45;&gt;Node6_1 -->
<g id="edge10" class="edge">
<title>Node12_1&#45;&gt;Node6_1</title>
<path fill="none" stroke="black" d="M665.96,-142.88C643.22,-157.86 613.06,-177.73 592.38,-191.36"/>
<polygon fill="black" stroke="black" points="668.16,-145.62 674.58,-137.2 664.31,-139.78 668.16,-145.62"/>
<text text-anchor="middle" x="676.15" y="-160.8" font-family="Times,serif" font-size="14.00">कालाधिकरणम्</text>
</g>
</g>
</svg>
