<?xml version="1.0" encoding="UTF-8" standalone="no"?>
<!DOCTYPE svg PUBLIC "-//W3C//DTD SVG 1.1//EN"
 "http://www.w3.org/Graphics/SVG/1.1/DTD/svg11.dtd">
<!-- Generated by graphviz version 2.43.0 (0)
 -->
<!-- Title: G Pages: 1 -->
<svg width="924pt" height="408pt"
 viewBox="0.00 0.00 923.69 408.00" xmlns="http://www.w3.org/2000/svg" xmlns:xlink="http://www.w3.org/1999/xlink">
<g id="graph0" class="graph" transform="scale(1 1) rotate(0) translate(4 404)">
<title>G</title>
<polygon fill="#fffacd" stroke="transparent" points="-4,4 -4,-404 919.69,-404 919.69,4 -4,4"/>
<g id="clust1" class="cluster">
<title>cluster_1</title>
<polygon fill="#fffacd" stroke="black" points="100.7,-79 100.7,-218 342.7,-218 342.7,-79 100.7,-79"/>
</g>
<g id="clust2" class="cluster">
<title>cluster_2</title>
<polygon fill="#fffacd" stroke="black" points="191.7,-253 191.7,-392 333.7,-392 333.7,-253 191.7,-253"/>
</g>
<g id="clust3" class="cluster">
<title>cluster_3</title>
<polygon fill="#fffacd" stroke="black" points="565.7,-166 565.7,-305 687.7,-305 687.7,-166 565.7,-166"/>
</g>
<!-- Node3_1 -->
<g id="node1" class="node">
<title>Node3_1</title>
<ellipse fill="#00bfff" stroke="#00bfff" cx="288.7" cy="-105" rx="46.29" ry="18"/>
<text text-anchor="middle" x="288.7" y="-101.3" font-family="Times,serif" font-size="14.00">इदम्(3.1)</text>
</g>
<!-- Node2_1 -->
<g id="node2" class="node">
<title>Node2_1</title>
<ellipse fill="#00bfff" stroke="#00bfff" cx="281.7" cy="-192" rx="51.99" ry="18"/>
<text text-anchor="middle" x="281.7" y="-188.3" font-family="Times,serif" font-size="14.00">राज्यम्(2.1)</text>
</g>
<!-- Node3_1&#45;&gt;Node2_1 -->
<g id="edge4" class="edge">
<title>Node3_1&#45;&gt;Node2_1</title>
<path fill="none" stroke="black" d="M286.45,-133.27C285.35,-146.58 284.07,-162.19 283.11,-173.82"/>
<polygon fill="black" stroke="black" points="289.95,-133.45 287.28,-123.2 282.97,-132.88 289.95,-133.45"/>
<text text-anchor="middle" x="307.2" y="-144.8" font-family="Times,serif" font-size="14.00">विशेषणम्</text>
</g>
<!-- Node5_1 -->
<g id="node4" class="node">
<title>Node5_1</title>
<ellipse fill="#00bfff" stroke="#00bfff" cx="262.7" cy="-279" rx="63.09" ry="18"/>
<text text-anchor="middle" x="262.7" y="-275.3" font-family="Times,serif" font-size="14.00">भोक्तव्यम्(5.1)</text>
</g>
<!-- Node2_1&#45;&gt;Node5_1 -->
<g id="edge3" class="edge">
<title>Node2_1&#45;&gt;Node5_1</title>
<path fill="none" stroke="black" d="M275.6,-220.27C272.63,-233.58 269.14,-249.19 266.54,-260.82"/>
<polygon fill="black" stroke="black" points="279.09,-220.72 277.85,-210.2 272.25,-219.2 279.09,-220.72"/>
<text text-anchor="middle" x="281.7" y="-231.8" font-family="Times,serif" font-size="14.00">कर्म</text>
</g>
<!-- Node6_2 -->
<g id="node3" class="node">
<title>Node6_2</title>
<ellipse fill="#00bfff" stroke="#00bfff" cx="166.7" cy="-105" rx="57.69" ry="18"/>
<text text-anchor="middle" x="166.7" y="-101.3" font-family="Times,serif" font-size="14.00">निर्जितम्(6.2)</text>
</g>
<!-- Node6_2&#45;&gt;Node2_1 -->
<g id="edge8" class="edge">
<title>Node6_2&#45;&gt;Node2_1</title>
<path fill="none" stroke="black" d="M196.25,-127.85C216.33,-142.68 242.41,-161.96 260.45,-175.3"/>
<polygon fill="black" stroke="black" points="198.18,-124.92 188.06,-121.79 194.02,-130.55 198.18,-124.92"/>
<text text-anchor="middle" x="253.2" y="-144.8" font-family="Times,serif" font-size="14.00">विशेषणम्</text>
</g>
<!-- Node7_1 -->
<g id="node5" class="node">
<title>Node7_1</title>
<ellipse fill="#00bfff" stroke="#00bfff" cx="259.7" cy="-366" rx="57.69" ry="18"/>
<text text-anchor="middle" x="259.7" y="-362.3" font-family="Times,serif" font-size="14.00">प्राप्तव्या(7.1)</text>
</g>
<!-- Node5_1&#45;&gt;Node7_1 -->
<g id="edge6" class="edge">
<title>Node5_1&#45;&gt;Node7_1</title>
<path fill="none" stroke="black" d="M261.73,-307.27C261.26,-320.58 260.71,-336.19 260.3,-347.82"/>
<polygon fill="black" stroke="black" points="265.23,-307.32 262.09,-297.2 258.24,-307.07 265.23,-307.32"/>
<text text-anchor="middle" x="283.2" y="-318.8" font-family="Times,serif" font-size="14.00">समुच्चितः</text>
</g>
<!-- Node11_1 -->
<g id="node6" class="node">
<title>Node11_1</title>
<ellipse fill="#00bfff" stroke="#00bfff" cx="625.7" cy="-192" rx="51.99" ry="18"/>
<text text-anchor="middle" x="625.7" y="-188.3" font-family="Times,serif" font-size="14.00">इयम्(11.1)</text>
</g>
<!-- Node14_1 -->
<g id="node7" class="node">
<title>Node14_1</title>
<ellipse fill="#00bfff" stroke="#00bfff" cx="626.7" cy="-279" rx="52.79" ry="18"/>
<text text-anchor="middle" x="626.7" y="-275.3" font-family="Times,serif" font-size="14.00">मतिः(14.1)</text>
</g>
<!-- Node11_1&#45;&gt;Node14_1 -->
<g id="edge13" class="edge">
<title>Node11_1&#45;&gt;Node14_1</title>
<path fill="none" stroke="black" d="M626.02,-220.27C626.17,-233.58 626.36,-249.19 626.49,-260.82"/>
<polygon fill="black" stroke="black" points="629.52,-220.16 625.9,-210.2 622.52,-220.24 629.52,-220.16"/>
<text text-anchor="middle" x="648.2" y="-231.8" font-family="Times,serif" font-size="14.00">विशेषणम्</text>
</g>
<!-- Node15_1 -->
<g id="node11" class="node">
<title>Node15_1</title>
<ellipse fill="#ff1975" stroke="#ff1975" cx="704.7" cy="-366" rx="62.29" ry="18"/>
<text text-anchor="middle" x="704.7" y="-362.3" font-family="Times,serif" font-size="14.00">(अस्ति)(15.1)</text>
</g>
<!-- Node14_1&#45;&gt;Node15_1 -->
<g id="edge16" class="edge">
<title>Node14_1&#45;&gt;Node15_1</title>
<path fill="none" stroke="black" d="M648.59,-303.86C661.61,-318.05 677.8,-335.69 689.44,-348.37"/>
<polygon fill="black" stroke="black" points="651.08,-301.39 641.74,-296.39 645.92,-306.12 651.08,-301.39"/>
<text text-anchor="middle" x="680.7" y="-318.8" font-family="Times,serif" font-size="14.00">कर्ता</text>
</g>
<!-- Node1_1 -->
<g id="node8" class="node">
<title>Node1_1</title>
<ellipse fill="#ff99ff" stroke="#ff99ff" cx="137.7" cy="-279" rx="44.39" ry="18"/>
<text text-anchor="middle" x="137.7" y="-275.3" font-family="Times,serif" font-size="14.00">यदा(1.1)</text>
</g>
<!-- Node1_1&#45;&gt;Node7_1 -->
<g id="edge1" class="edge">
<title>Node1_1&#45;&gt;Node7_1</title>
<path fill="none" stroke="black" d="M157.35,-303.91C165.49,-312.85 175.42,-322.61 185.7,-330 197.58,-338.55 211.88,-345.89 224.73,-351.6"/>
<polygon fill="black" stroke="black" points="159.93,-301.55 150.69,-296.36 154.68,-306.18 159.93,-301.55"/>
<text text-anchor="middle" x="221.2" y="-318.8" font-family="Times,serif" font-size="14.00">कालाधिकरणम्</text>
</g>
<!-- Node10_1 -->
<g id="node9" class="node">
<title>Node10_1</title>
<ellipse fill="#ff99ff" stroke="#ff99ff" cx="505.7" cy="-279" rx="50.09" ry="18"/>
<text text-anchor="middle" x="505.7" y="-275.3" font-family="Times,serif" font-size="14.00">तदा(10.1)</text>
</g>
<!-- Node1_1&#45;&gt;Node10_1 -->
<g id="edge2" class="edge">
<title>Node1_1&#45;&gt;Node10_1</title>
<path fill="none" stroke="red" stroke-dasharray="5,2" d="M162.73,-255.7C173.19,-247.49 185.98,-239.24 199.2,-235 247.83,-219.39 388.54,-237.7 446.7,-253 453.53,-254.8 460.59,-257.29 467.34,-260.03"/>
<polygon fill="red" stroke="red" points="160.34,-253.13 154.87,-262.21 164.81,-258.52 160.34,-253.13"/>
<polygon fill="red" stroke="red" points="466.37,-263.42 476.94,-264.16 469.14,-256.99 466.37,-263.42"/>
<text text-anchor="middle" x="232.7" y="-231.8" font-family="Times,serif" font-size="14.00">नित्य_सम्बन्धः</text>
</g>
<!-- Node10_1&#45;&gt;Node15_1 -->
<g id="edge12" class="edge">
<title>Node10_1&#45;&gt;Node15_1</title>
<path fill="none" stroke="black" d="M535.47,-301.33C550.08,-311.07 568.25,-322.16 585.7,-330 608.48,-340.24 635.05,-348.39 657.3,-354.23"/>
<polygon fill="black" stroke="black" points="537.11,-298.21 526.87,-295.47 533.17,-303.99 537.11,-298.21"/>
<text text-anchor="middle" x="621.2" y="-318.8" font-family="Times,serif" font-size="14.00">कालाधिकरणम्</text>
</g>
<!-- Node4_1 -->
<g id="node10" class="node">
<title>Node4_1</title>
<ellipse fill="#6fffc3" stroke="#6fffc3" cx="745.7" cy="-279" rx="48.19" ry="18"/>
<text text-anchor="middle" x="745.7" y="-275.3" font-family="Times,serif" font-size="14.00">कुन्ति(4.1)</text>
</g>
<!-- Node4_1&#45;&gt;Node15_1 -->
<g id="edge5" class="edge">
<title>Node4_1&#45;&gt;Node15_1</title>
<path fill="none" stroke="black" d="M733.09,-306.13C726.53,-319.73 718.7,-335.98 712.92,-347.95"/>
<polygon fill="black" stroke="black" points="736.4,-307.32 737.6,-296.79 730.1,-304.28 736.4,-307.32"/>
<text text-anchor="middle" x="747.7" y="-318.8" font-family="Times,serif" font-size="14.00">सम्बोध्यः</text>
</g>
<!-- Node6_1 -->
<g id="node12" class="node">
<title>Node6_1</title>
<ellipse fill="#ffff00" stroke="#ffff00" cx="166.7" cy="-18" rx="45.49" ry="18"/>
<text text-anchor="middle" x="166.7" y="-14.3" font-family="Times,serif" font-size="14.00">पुत्र&#45;(6.1)</text>
</g>
<!-- Node6_1&#45;&gt;Node6_2 -->
<g id="edge7" class="edge">
<title>Node6_1&#45;&gt;Node6_2</title>
<path fill="none" stroke="black" d="M166.7,-46.27C166.7,-59.58 166.7,-75.19 166.7,-86.82"/>
<polygon fill="black" stroke="black" points="170.2,-46.2 166.7,-36.2 163.2,-46.2 170.2,-46.2"/>
<text text-anchor="middle" x="183.7" y="-57.8" font-family="Times,serif" font-size="14.00">समासः</text>
</g>
<!-- Node8_1 -->
<g id="node13" class="node">
<title>Node8_1</title>
<ellipse fill="#ffff00" stroke="#ffff00" cx="398.7" cy="-192" rx="46.59" ry="18"/>
<text text-anchor="middle" x="398.7" y="-188.3" font-family="Times,serif" font-size="14.00">राज&#45;(8.1)</text>
</g>
<!-- Node8_2 -->
<g id="node14" class="node">
<title>Node8_2</title>
<ellipse fill="#00bfff" stroke="#00bfff" cx="390.7" cy="-279" rx="47.39" ry="18"/>
<text text-anchor="middle" x="390.7" y="-275.3" font-family="Times,serif" font-size="14.00">धर्माः(8.2)</text>
</g>
<!-- Node8_1&#45;&gt;Node8_2 -->
<g id="edge9" class="edge">
<title>Node8_1&#45;&gt;Node8_2</title>
<path fill="none" stroke="black" d="M396.13,-220.27C394.88,-233.58 393.41,-249.19 392.31,-260.82"/>
<polygon fill="black" stroke="black" points="399.63,-220.49 397.08,-210.2 392.66,-219.83 399.63,-220.49"/>
<text text-anchor="middle" x="411.7" y="-231.8" font-family="Times,serif" font-size="14.00">समासः</text>
</g>
<!-- Node8_2&#45;&gt;Node7_1 -->
<g id="edge10" class="edge">
<title>Node8_2&#45;&gt;Node7_1</title>
<path fill="none" stroke="black" d="M359.39,-300.31C336.12,-315.41 304.85,-335.7 283.58,-349.5"/>
<polygon fill="black" stroke="black" points="361.39,-303.19 367.88,-294.81 357.58,-297.31 361.39,-303.19"/>
<text text-anchor="middle" x="341.7" y="-318.8" font-family="Times,serif" font-size="14.00">कर्म</text>
</g>
<!-- Node9_1 -->
<g id="node15" class="node">
<title>Node9_1</title>
<ellipse fill="#ff99ff" stroke="#ff99ff" cx="37.7" cy="-279" rx="37.89" ry="18"/>
<text text-anchor="middle" x="37.7" y="-275.3" font-family="Times,serif" font-size="14.00">च(9.1)</text>
</g>
<!-- Node9_1&#45;&gt;Node7_1 -->
<g id="edge11" class="edge">
<title>Node9_1&#45;&gt;Node7_1</title>
<path fill="none" stroke="black" d="M56.47,-304.16C65.02,-313.59 75.87,-323.64 87.7,-330 123.26,-349.11 168.09,-357.82 203.06,-361.77"/>
<polygon fill="black" stroke="black" points="59.04,-301.78 49.87,-296.48 53.74,-306.35 59.04,-301.78"/>
<text text-anchor="middle" x="125.7" y="-318.8" font-family="Times,serif" font-size="14.00">समुच्चय_द्योतकः</text>
</g>
<!-- Node12_1 -->
<g id="node16" class="node">
<title>Node12_1</title>
<ellipse fill="#87ceeb" stroke="#87ceeb" cx="738.7" cy="-192" rx="42.79" ry="18"/>
<text text-anchor="middle" x="738.7" y="-188.3" font-family="Times,serif" font-size="14.00">ते(12.1)</text>
</g>
<!-- Node12_1&#45;&gt;Node14_1 -->
<g id="edge14" class="edge">
<title>Node12_1&#45;&gt;Node14_1</title>
<path fill="none" stroke="black" d="M711.64,-214.46C700.3,-223.37 686.92,-233.77 674.7,-243 666.14,-249.46 656.61,-256.45 648.31,-262.47"/>
<polygon fill="black" stroke="black" points="713.81,-217.2 719.5,-208.27 709.48,-211.7 713.81,-217.2"/>
<text text-anchor="middle" x="721.2" y="-231.8" font-family="Times,serif" font-size="14.00">षष्ठीसम्बन्धः</text>
</g>
<!-- Node13_1 -->
<g id="node17" class="node">
<title>Node13_1</title>
<ellipse fill="#ff99ff" stroke="#ff99ff" cx="863.7" cy="-279" rx="51.99" ry="18"/>
<text text-anchor="middle" x="863.7" y="-275.3" font-family="Times,serif" font-size="14.00">कुतः(13.1)</text>
</g>
<!-- Node13_1&#45;&gt;Node15_1 -->
<g id="edge15" class="edge">
<title>Node13_1&#45;&gt;Node15_1</title>
<path fill="none" stroke="black" d="M828.57,-299.59C811.73,-308.91 791.23,-320.14 772.7,-330 760.15,-336.67 746.22,-343.88 734.24,-350.01"/>
<polygon fill="black" stroke="black" points="830.47,-302.54 837.52,-294.63 827.07,-296.42 830.47,-302.54"/>
<text text-anchor="middle" x="818.2" y="-318.8" font-family="Times,serif" font-size="14.00">सम्बन्धः</text>
</g>
</g>
</svg>
