<?xml version="1.0" encoding="UTF-8" standalone="no"?>
<!DOCTYPE svg PUBLIC "-//W3C//DTD SVG 1.1//EN"
 "http://www.w3.org/Graphics/SVG/1.1/DTD/svg11.dtd">
<!-- Generated by graphviz version 2.43.0 (0)
 -->
<!-- Title: G Pages: 1 -->
<svg width="1065pt" height="305pt"
 viewBox="0.00 0.00 1065.15 305.00" xmlns="http://www.w3.org/2000/svg" xmlns:xlink="http://www.w3.org/1999/xlink">
<g id="graph0" class="graph" transform="scale(1 1) rotate(0) translate(4 301)">
<title>G</title>
<polygon fill="#fffacd" stroke="transparent" points="-4,4 -4,-301 1061.15,-301 1061.15,4 -4,4"/>
<g id="clust1" class="cluster">
<title>cluster_1</title>
<polygon fill="#fffacd" stroke="black" points="531.15,-79 531.15,-218 1049.15,-218 1049.15,-79 531.15,-79"/>
</g>
<!-- Node4_1 -->
<g id="node1" class="node">
<title>Node4_1</title>
<ellipse fill="#00bfff" stroke="#00bfff" cx="992.15" cy="-105" rx="49.29" ry="18"/>
<text text-anchor="middle" x="992.15" y="-101.3" font-family="Times,serif" font-size="14.00">विदुरः(4.1)</text>
</g>
<!-- Node8_1 -->
<g id="node2" class="node">
<title>Node8_1</title>
<ellipse fill="#00bfff" stroke="#00bfff" cx="661.15" cy="-192" rx="55.79" ry="18"/>
<text text-anchor="middle" x="661.15" y="-188.3" font-family="Times,serif" font-size="14.00">सञ्जयः(8.1)</text>
</g>
<!-- Node4_1&#45;&gt;Node8_1 -->
<g id="edge4" class="edge">
<title>Node4_1&#45;&gt;Node8_1</title>
<path fill="none" stroke="black" d="M949.21,-121.84C919.23,-132.51 878.11,-146.33 841.15,-156 797.26,-167.48 746.46,-177.03 710.04,-183.23"/>
<polygon fill="black" stroke="black" points="950.7,-125.03 958.93,-118.36 948.33,-118.44 950.7,-125.03"/>
<text text-anchor="middle" x="913.65" y="-144.8" font-family="Times,serif" font-size="14.00">समुच्चितः</text>
</g>
<!-- Node14_1 -->
<g id="node8" class="node">
<title>Node14_1</title>
<ellipse fill="#ff1975" stroke="#ff1975" cx="408.15" cy="-279" rx="66.09" ry="18"/>
<text text-anchor="middle" x="408.15" y="-275.3" font-family="Times,serif" font-size="14.00">(आसीत्)(14.1)</text>
</g>
<!-- Node8_1&#45;&gt;Node14_1 -->
<g id="edge8" class="edge">
<title>Node8_1&#45;&gt;Node14_1</title>
<path fill="none" stroke="black" d="M614.33,-208.73C566.57,-224.77 493.26,-249.4 448.14,-264.56"/>
<polygon fill="black" stroke="black" points="615.45,-212.04 623.81,-205.54 613.22,-205.41 615.45,-212.04"/>
<text text-anchor="middle" x="560.15" y="-231.8" font-family="Times,serif" font-size="14.00">कर्ता</text>
</g>
<!-- Node10_2 -->
<g id="node3" class="node">
<title>Node10_2</title>
<ellipse fill="#00bfff" stroke="#00bfff" cx="871.15" cy="-105" rx="53.09" ry="18"/>
<text text-anchor="middle" x="871.15" y="-101.3" font-family="Times,serif" font-size="14.00">मात्रः(10.2)</text>
</g>
<!-- Node10_2&#45;&gt;Node8_1 -->
<g id="edge11" class="edge">
<title>Node10_2&#45;&gt;Node8_1</title>
<path fill="none" stroke="black" d="M831.99,-124.14C810.37,-133.95 782.95,-146.05 758.15,-156 738.54,-163.86 716.4,-171.91 698.22,-178.31"/>
<polygon fill="black" stroke="black" points="833.53,-127.28 841.17,-119.95 830.62,-120.91 833.53,-127.28"/>
<text text-anchor="middle" x="814.65" y="-144.8" font-family="Times,serif" font-size="14.00">विशेषणम्</text>
</g>
<!-- Node11_1 -->
<g id="node4" class="node">
<title>Node11_1</title>
<ellipse fill="#00bfff" stroke="#00bfff" cx="748.15" cy="-105" rx="51.19" ry="18"/>
<text text-anchor="middle" x="748.15" y="-101.3" font-family="Times,serif" font-size="14.00">सूतः(11.1)</text>
</g>
<!-- Node11_1&#45;&gt;Node8_1 -->
<g id="edge12" class="edge">
<title>Node11_1&#45;&gt;Node8_1</title>
<path fill="none" stroke="black" d="M724.08,-129.52C709.39,-143.87 690.97,-161.86 677.87,-174.66"/>
<polygon fill="black" stroke="black" points="726.66,-131.88 731.37,-122.39 721.77,-126.87 726.66,-131.88"/>
<text text-anchor="middle" x="731.65" y="-144.8" font-family="Times,serif" font-size="14.00">विशेषणम्</text>
</g>
<!-- Node12_1 -->
<g id="node5" class="node">
<title>Node12_1</title>
<ellipse fill="#00bfff" stroke="#00bfff" cx="609.15" cy="-105" rx="69.59" ry="18"/>
<text text-anchor="middle" x="609.15" y="-101.3" font-family="Times,serif" font-size="14.00">गावल्गणिः(12.1)</text>
</g>
<!-- Node12_1&#45;&gt;Node8_1 -->
<g id="edge13" class="edge">
<title>Node12_1&#45;&gt;Node8_1</title>
<path fill="none" stroke="black" d="M624.9,-131.75C633.31,-145.49 643.41,-162.01 650.82,-174.11"/>
<polygon fill="black" stroke="black" points="627.87,-129.9 619.67,-123.2 621.9,-133.56 627.87,-129.9"/>
<text text-anchor="middle" x="660.65" y="-144.8" font-family="Times,serif" font-size="14.00">विशेषणम्</text>
</g>
<!-- Node1_1 -->
<g id="node6" class="node">
<title>Node1_1</title>
<ellipse fill="#93db70" stroke="#93db70" cx="46.15" cy="-105" rx="46.29" ry="18"/>
<text text-anchor="middle" x="46.15" y="-101.3" font-family="Times,serif" font-size="14.00">वनम्(1.1)</text>
</g>
<!-- Node2_1 -->
<g id="node7" class="node">
<title>Node2_1</title>
<ellipse fill="#ff99ff" stroke="#ff99ff" cx="219.15" cy="-192" rx="49.29" ry="18"/>
<text text-anchor="middle" x="219.15" y="-188.3" font-family="Times,serif" font-size="14.00">गन्तुम्(2.1)</text>
</g>
<!-- Node1_1&#45;&gt;Node2_1 -->
<g id="edge1" class="edge">
<title>Node1_1&#45;&gt;Node2_1</title>
<path fill="none" stroke="black" d="M83.06,-124.14C115.31,-139.98 161.44,-162.65 190.84,-177.09"/>
<polygon fill="black" stroke="black" points="84.46,-120.93 73.94,-119.66 81.37,-127.21 84.46,-120.93"/>
<text text-anchor="middle" x="152.15" y="-144.8" font-family="Times,serif" font-size="14.00">कर्म</text>
</g>
<!-- Node2_1&#45;&gt;Node14_1 -->
<g id="edge2" class="edge">
<title>Node2_1&#45;&gt;Node14_1</title>
<path fill="none" stroke="black" d="M253.94,-212.14C272.22,-221.88 295.13,-233.62 316.15,-243 333.31,-250.66 352.71,-258.2 369.26,-264.31"/>
<polygon fill="black" stroke="black" points="255.57,-209.04 245.1,-207.39 252.26,-215.21 255.57,-209.04"/>
<text text-anchor="middle" x="337.65" y="-231.8" font-family="Times,serif" font-size="14.00">प्रयोजनम्</text>
</g>
<!-- Node3_1 -->
<g id="node9" class="node">
<title>Node3_1</title>
<ellipse fill="#ff99ff" stroke="#ff99ff" cx="148.15" cy="-105" rx="37.89" ry="18"/>
<text text-anchor="middle" x="148.15" y="-101.3" font-family="Times,serif" font-size="14.00">च(3.1)</text>
</g>
<!-- Node3_1&#45;&gt;Node2_1 -->
<g id="edge3" class="edge">
<title>Node3_1&#45;&gt;Node2_1</title>
<path fill="none" stroke="black" d="M168.11,-129.9C180,-144.13 194.78,-161.83 205.37,-174.5"/>
<polygon fill="black" stroke="black" points="170.6,-127.42 161.5,-121.99 165.23,-131.91 170.6,-127.42"/>
<text text-anchor="middle" x="206.65" y="-144.8" font-family="Times,serif" font-size="14.00">सम्बन्धः</text>
</g>
<!-- Node5_1 -->
<g id="node10" class="node">
<title>Node5_1</title>
<ellipse fill="#40e0d0" stroke="#40e0d0" cx="250.15" cy="-105" rx="46.29" ry="18"/>
<text text-anchor="middle" x="250.15" y="-101.3" font-family="Times,serif" font-size="14.00">राज्ञा(5.1)</text>
</g>
<!-- Node5_1&#45;&gt;Node2_1 -->
<g id="edge5" class="edge">
<title>Node5_1&#45;&gt;Node2_1</title>
<path fill="none" stroke="black" d="M240.32,-132.94C235.4,-146.43 229.59,-162.36 225.3,-174.11"/>
<polygon fill="black" stroke="black" points="243.73,-133.79 243.87,-123.2 237.16,-131.4 243.73,-133.79"/>
<text text-anchor="middle" x="253.15" y="-144.8" font-family="Times,serif" font-size="14.00">सहार्थः</text>
</g>
<!-- Node6_1 -->
<g id="node11" class="node">
<title>Node6_1</title>
<ellipse fill="#ff99ff" stroke="#ff99ff" cx="356.15" cy="-105" rx="42.49" ry="18"/>
<text text-anchor="middle" x="356.15" y="-101.3" font-family="Times,serif" font-size="14.00">सह(6.1)</text>
</g>
<!-- Node6_1&#45;&gt;Node2_1 -->
<g id="edge6" class="edge">
<title>Node6_1&#45;&gt;Node2_1</title>
<path fill="none" stroke="black" d="M324.52,-125.62C299.7,-141.02 265.67,-162.14 243.07,-176.15"/>
<polygon fill="black" stroke="black" points="326.56,-128.47 333.22,-120.23 322.87,-122.53 326.56,-128.47"/>
<text text-anchor="middle" x="329.65" y="-144.8" font-family="Times,serif" font-size="14.00">सहार्थ_द्योतकः</text>
</g>
<!-- Node7_1 -->
<g id="node12" class="node">
<title>Node7_1</title>
<ellipse fill="#00bfff" stroke="#00bfff" cx="345.15" cy="-192" rx="58.49" ry="18"/>
<text text-anchor="middle" x="345.15" y="-188.3" font-family="Times,serif" font-size="14.00">कृतक्षणः(7.1)</text>
</g>
<!-- Node7_1&#45;&gt;Node14_1 -->
<g id="edge7" class="edge">
<title>Node7_1&#45;&gt;Node14_1</title>
<path fill="none" stroke="black" d="M357.26,-218.98C361.49,-227 366.59,-235.65 372.15,-243 377.09,-249.54 383.25,-255.99 389.08,-261.54"/>
<polygon fill="black" stroke="black" points="360.34,-217.33 352.71,-209.98 354.09,-220.48 360.34,-217.33"/>
<text text-anchor="middle" x="411.15" y="-231.8" font-family="Times,serif" font-size="14.00">विधेय_विशेषणम्</text>
</g>
<!-- Node9_1 -->
<g id="node13" class="node">
<title>Node9_1</title>
<ellipse fill="#ff99ff" stroke="#ff99ff" cx="484.15" cy="-105" rx="37.89" ry="18"/>
<text text-anchor="middle" x="484.15" y="-101.3" font-family="Times,serif" font-size="14.00">च(9.1)</text>
</g>
<!-- Node9_1&#45;&gt;Node8_1 -->
<g id="edge9" class="edge">
<title>Node9_1&#45;&gt;Node8_1</title>
<path fill="none" stroke="black" d="M509.1,-127.76C521.17,-137.44 536.25,-148.35 551.15,-156 572,-166.71 596.77,-174.95 617.52,-180.73"/>
<polygon fill="black" stroke="black" points="511.21,-124.96 501.27,-121.31 506.76,-130.37 511.21,-124.96"/>
<text text-anchor="middle" x="589.15" y="-144.8" font-family="Times,serif" font-size="14.00">समुच्चय_द्योतकः</text>
</g>
<!-- Node10_1 -->
<g id="node14" class="node">
<title>Node10_1</title>
<ellipse fill="#ffff00" stroke="#ffff00" cx="871.15" cy="-18" rx="52.79" ry="18"/>
<text text-anchor="middle" x="871.15" y="-14.3" font-family="Times,serif" font-size="14.00">महा&#45;(10.1)</text>
</g>
<!-- Node10_1&#45;&gt;Node10_2 -->
<g id="edge10" class="edge">
<title>Node10_1&#45;&gt;Node10_2</title>
<path fill="none" stroke="black" d="M871.15,-46.27C871.15,-59.58 871.15,-75.19 871.15,-86.82"/>
<polygon fill="black" stroke="black" points="874.65,-46.2 871.15,-36.2 867.65,-46.2 874.65,-46.2"/>
<text text-anchor="middle" x="890.65" y="-57.8" font-family="Times,serif" font-size="14.00">बहुव्रीहिः</text>
</g>
<!-- Node13_1 -->
<g id="node15" class="node">
<title>Node13_1</title>
<ellipse fill="#ff99ff" stroke="#ff99ff" cx="472.15" cy="-192" rx="50.89" ry="18"/>
<text text-anchor="middle" x="472.15" y="-188.3" font-family="Times,serif" font-size="14.00">तथा(13.1)</text>
</g>
<!-- Node13_1&#45;&gt;Node14_1 -->
<g id="edge14" class="edge">
<title>Node13_1&#45;&gt;Node14_1</title>
<path fill="none" stroke="black" d="M463.13,-219.58C459.75,-227.53 455.42,-236 450.15,-243 444.89,-249.98 437.99,-256.46 431.31,-261.9"/>
<polygon fill="black" stroke="black" points="466.4,-220.84 466.79,-210.26 459.88,-218.29 466.4,-220.84"/>
<text text-anchor="middle" x="477.65" y="-231.8" font-family="Times,serif" font-size="14.00">सम्बन्धः</text>
</g>
</g>
</svg>
