<?xml version="1.0" encoding="UTF-8" standalone="no"?>
<!DOCTYPE svg PUBLIC "-//W3C//DTD SVG 1.1//EN"
 "http://www.w3.org/Graphics/SVG/1.1/DTD/svg11.dtd">
<!-- Generated by graphviz version 2.43.0 (0)
 -->
<!-- Title: G Pages: 1 -->
<svg width="1002pt" height="321pt"
 viewBox="0.00 0.00 1002.24 321.00" xmlns="http://www.w3.org/2000/svg" xmlns:xlink="http://www.w3.org/1999/xlink">
<g id="graph0" class="graph" transform="scale(1 1) rotate(0) translate(4 317)">
<title>G</title>
<polygon fill="#fffacd" stroke="transparent" points="-4,4 -4,-317 998.24,-317 998.24,4 -4,4"/>
<g id="clust1" class="cluster">
<title>cluster_1</title>
<polygon fill="#fffacd" stroke="black" points="275.6,-8 275.6,-147 385.6,-147 385.6,-8 275.6,-8"/>
</g>
<!-- Node3_1 -->
<g id="node1" class="node">
<title>Node3_1</title>
<ellipse fill="#00bfff" stroke="#00bfff" cx="330.6" cy="-34" rx="46.59" ry="18"/>
<text text-anchor="middle" x="330.6" y="-30.3" font-family="Times,serif" font-size="14.00">बुद्धिः(3.1)</text>
</g>
<!-- Node4_1 -->
<g id="node2" class="node">
<title>Node4_1</title>
<ellipse fill="#00bfff" stroke="#00bfff" cx="330.6" cy="-121" rx="46.29" ry="18"/>
<text text-anchor="middle" x="330.6" y="-117.3" font-family="Times,serif" font-size="14.00">इयम्(4.1)</text>
</g>
<!-- Node3_1&#45;&gt;Node4_1 -->
<g id="edge3" class="edge">
<title>Node3_1&#45;&gt;Node4_1</title>
<path fill="none" stroke="black" d="M330.6,-62.27C330.6,-75.58 330.6,-91.19 330.6,-102.82"/>
<polygon fill="black" stroke="black" points="334.1,-62.2 330.6,-52.2 327.1,-62.2 334.1,-62.2"/>
<text text-anchor="middle" x="353.1" y="-73.8" font-family="Times,serif" font-size="14.00">समुच्चितः</text>
</g>
<!-- Node2_1 -->
<g id="node3" class="node">
<title>Node2_1</title>
<ellipse fill="#00bfff" stroke="#00bfff" cx="403.6" cy="-208" rx="40.09" ry="18"/>
<text text-anchor="middle" x="403.6" y="-204.3" font-family="Times,serif" font-size="14.00">सा(2.1)</text>
</g>
<!-- Node4_1&#45;&gt;Node2_1 -->
<g id="edge4" class="edge">
<title>Node4_1&#45;&gt;Node2_1</title>
<path fill="none" stroke="black" d="M351.52,-146.36C363.82,-160.68 379.01,-178.38 389.81,-190.95"/>
<polygon fill="black" stroke="black" points="353.84,-143.69 344.67,-138.39 348.53,-148.26 353.84,-143.69"/>
<text text-anchor="middle" x="394.1" y="-160.8" font-family="Times,serif" font-size="14.00">विशेषणम्</text>
</g>
<!-- Node18_1 -->
<g id="node5" class="node">
<title>Node18_1</title>
<ellipse fill="#ff1975" stroke="#ff1975" cx="144.6" cy="-295" rx="62.29" ry="18"/>
<text text-anchor="middle" x="144.6" y="-291.3" font-family="Times,serif" font-size="14.00">(अस्ति)(18.1)</text>
</g>
<!-- Node2_1&#45;&gt;Node18_1 -->
<g id="edge2" class="edge">
<title>Node2_1&#45;&gt;Node18_1</title>
<path fill="none" stroke="black" d="M385.61,-233.66C377.49,-243.04 367.12,-252.92 355.6,-259 309.61,-283.24 250.82,-291.44 206.98,-293.88"/>
<polygon fill="black" stroke="black" points="388.53,-235.62 392.14,-225.66 383.11,-231.19 388.53,-235.62"/>
<text text-anchor="middle" x="386.6" y="-247.8" font-family="Times,serif" font-size="14.00">कर्ता</text>
</g>
<!-- Node1_1 -->
<g id="node4" class="node">
<title>Node1_1</title>
<ellipse fill="#ff99ff" stroke="#ff99ff" cx="41.6" cy="-208" rx="41.69" ry="18"/>
<text text-anchor="middle" x="41.6" y="-204.3" font-family="Times,serif" font-size="14.00">क्व(1.1)</text>
</g>
<!-- Node1_1&#45;&gt;Node18_1 -->
<g id="edge1" class="edge">
<title>Node1_1&#45;&gt;Node18_1</title>
<path fill="none" stroke="black" d="M55.95,-234.45C61.61,-242.98 68.66,-252.07 76.6,-259 86.3,-267.47 98.41,-274.55 109.71,-280.07"/>
<polygon fill="black" stroke="black" points="58.85,-232.5 50.58,-225.88 52.92,-236.21 58.85,-232.5"/>
<text text-anchor="middle" x="108.6" y="-247.8" font-family="Times,serif" font-size="14.00">देशाधिकरणम्</text>
</g>
<!-- Node5_1 -->
<g id="node6" class="node">
<title>Node5_1</title>
<ellipse fill="#ff99ff" stroke="#ff99ff" cx="432.6" cy="-34" rx="37.89" ry="18"/>
<text text-anchor="middle" x="432.6" y="-30.3" font-family="Times,serif" font-size="14.00">च(5.1)</text>
</g>
<!-- Node5_1&#45;&gt;Node4_1 -->
<g id="edge5" class="edge">
<title>Node5_1&#45;&gt;Node4_1</title>
<path fill="none" stroke="black" d="M409.66,-57.94C400.55,-66.69 389.82,-76.59 379.6,-85 371.2,-91.91 361.54,-98.98 353.03,-104.94"/>
<polygon fill="black" stroke="black" points="412.15,-60.39 416.88,-50.91 407.27,-55.38 412.15,-60.39"/>
<text text-anchor="middle" x="415.1" y="-73.8" font-family="Times,serif" font-size="14.00">सम्बन्धः</text>
</g>
<!-- Node6_1 -->
<g id="node7" class="node">
<title>Node6_1</title>
<ellipse fill="#ff99ff" stroke="#ff99ff" cx="144.6" cy="-208" rx="43.59" ry="18"/>
<text text-anchor="middle" x="144.6" y="-204.3" font-family="Times,serif" font-size="14.00">अद्य(6.1)</text>
</g>
<!-- Node6_1&#45;&gt;Node18_1 -->
<g id="edge6" class="edge">
<title>Node6_1&#45;&gt;Node18_1</title>
<path fill="none" stroke="black" d="M144.6,-236.27C144.6,-249.58 144.6,-265.19 144.6,-276.82"/>
<polygon fill="black" stroke="black" points="148.1,-236.2 144.6,-226.2 141.1,-236.2 148.1,-236.2"/>
<text text-anchor="middle" x="180.1" y="-247.8" font-family="Times,serif" font-size="14.00">कालाधिकरणम्</text>
</g>
<!-- Node7_1 -->
<g id="node8" class="node">
<title>Node7_1</title>
<ellipse fill="#87ceeb" stroke="#87ceeb" cx="450.6" cy="-121" rx="55.79" ry="18"/>
<text text-anchor="middle" x="450.6" y="-117.3" font-family="Times,serif" font-size="14.00">भवत्याः(7.1)</text>
</g>
<!-- Node7_1&#45;&gt;Node2_1 -->
<g id="edge7" class="edge">
<title>Node7_1&#45;&gt;Node2_1</title>
<path fill="none" stroke="black" d="M436.33,-147.8C428.71,-161.58 419.55,-178.14 412.86,-190.24"/>
<polygon fill="black" stroke="black" points="439.53,-149.24 441.31,-138.79 433.41,-145.85 439.53,-149.24"/>
<text text-anchor="middle" x="458.1" y="-160.8" font-family="Times,serif" font-size="14.00">षष्ठीसम्बन्धः</text>
</g>
<!-- Node8_1 -->
<g id="node9" class="node">
<title>Node8_1</title>
<ellipse fill="#00bfff" stroke="#00bfff" cx="245.6" cy="-208" rx="39.79" ry="18"/>
<text text-anchor="middle" x="245.6" y="-204.3" font-family="Times,serif" font-size="14.00">या(8.1)</text>
</g>
<!-- Node8_1&#45;&gt;Node2_1 -->
<g id="edge8" class="edge">
<title>Node8_1&#45;&gt;Node2_1</title>
<path fill="none" stroke="red" stroke-dasharray="5,2" d="M295.54,-208C313.85,-208 334.59,-208 352.97,-208"/>
<polygon fill="red" stroke="red" points="295.47,-204.5 285.47,-208 295.47,-211.5 295.47,-204.5"/>
<polygon fill="red" stroke="red" points="353.19,-211.5 363.19,-208 353.19,-204.5 353.19,-211.5"/>
<text text-anchor="middle" x="324.27" y="-193.8" font-family="Times,serif" font-size="14.00">नित्यसम्बन्धः</text>
</g>
<!-- Node9_1 -->
<g id="node10" class="node">
<title>Node9_1</title>
<ellipse fill="#00bfff" stroke="#00bfff" cx="402.6" cy="-295" rx="45.49" ry="18"/>
<text text-anchor="middle" x="402.6" y="-291.3" font-family="Times,serif" font-size="14.00">श्रुता(9.1)</text>
</g>
<!-- Node8_1&#45;&gt;Node9_1 -->
<g id="edge9" class="edge">
<title>Node8_1&#45;&gt;Node9_1</title>
<path fill="none" stroke="black" stroke-dasharray="1,5" d="M279.15,-227.17C308.43,-243.02 350.27,-265.67 376.93,-280.11"/>
<polygon fill="black" stroke="black" points="280.59,-223.96 270.13,-222.28 277.26,-230.12 280.59,-223.96"/>
<text text-anchor="middle" x="342.6" y="-247.8" font-family="Times,serif" font-size="14.00">कर्म</text>
</g>
<!-- Node10_1 -->
<g id="node11" class="node">
<title>Node10_1</title>
<ellipse fill="#40e0d0" stroke="#40e0d0" cx="511.6" cy="-208" rx="50.09" ry="18"/>
<text text-anchor="middle" x="511.6" y="-204.3" font-family="Times,serif" font-size="14.00">मया(10.1)</text>
</g>
<!-- Node10_1&#45;&gt;Node9_1 -->
<g id="edge10" class="edge">
<title>Node10_1&#45;&gt;Node9_1</title>
<path fill="none" stroke="black" d="M483.53,-230.88C464.41,-245.8 439.56,-265.18 422.46,-278.51"/>
<polygon fill="black" stroke="black" points="485.87,-233.5 491.6,-224.59 481.57,-227.98 485.87,-233.5"/>
<text text-anchor="middle" x="475.6" y="-247.8" font-family="Times,serif" font-size="14.00">कर्ता</text>
</g>
<!-- Node11_1 -->
<g id="node12" class="node">
<title>Node11_1</title>
<ellipse fill="#ffff00" stroke="#ffff00" cx="941.6" cy="-34" rx="52.79" ry="18"/>
<text text-anchor="middle" x="941.6" y="-30.3" font-family="Times,serif" font-size="14.00">क्षत्र&#45;(11.1)</text>
</g>
<!-- Node11_2 -->
<g id="node13" class="node">
<title>Node11_2</title>
<ellipse fill="#c6e2eb" stroke="#c6e2eb" cx="941.6" cy="-121" rx="48.19" ry="18"/>
<text text-anchor="middle" x="941.6" y="-117.3" font-family="Times,serif" font-size="14.00">धर्मे(11.2)</text>
</g>
<!-- Node11_1&#45;&gt;Node11_2 -->
<g id="edge11" class="edge">
<title>Node11_1&#45;&gt;Node11_2</title>
<path fill="none" stroke="black" d="M941.6,-62.27C941.6,-75.58 941.6,-91.19 941.6,-102.82"/>
<polygon fill="black" stroke="black" points="945.1,-62.2 941.6,-52.2 938.1,-62.2 945.1,-62.2"/>
<text text-anchor="middle" x="958.6" y="-73.8" font-family="Times,serif" font-size="14.00">समासः</text>
</g>
<!-- Node14_1 -->
<g id="node14" class="node">
<title>Node14_1</title>
<ellipse fill="#ff99ff" stroke="#ff99ff" cx="805.6" cy="-208" rx="57.39" ry="18"/>
<text text-anchor="middle" x="805.6" y="-204.3" font-family="Times,serif" font-size="14.00">उक्त्वा(14.1)</text>
</g>
<!-- Node11_2&#45;&gt;Node14_1 -->
<g id="edge12" class="edge">
<title>Node11_2&#45;&gt;Node14_1</title>
<path fill="none" stroke="black" d="M909.41,-142.11C885.22,-157.23 852.57,-177.64 830.39,-191.5"/>
<polygon fill="black" stroke="black" points="911.28,-145.07 917.91,-136.81 907.57,-139.14 911.28,-145.07"/>
<text text-anchor="middle" x="918.6" y="-160.8" font-family="Times,serif" font-size="14.00">विषयाधिकरणम्</text>
</g>
<!-- Node17_1 -->
<g id="node17" class="node">
<title>Node17_1</title>
<ellipse fill="#ff1975" stroke="#ff1975" cx="735.6" cy="-295" rx="59.59" ry="18"/>
<text text-anchor="middle" x="735.6" y="-291.3" font-family="Times,serif" font-size="14.00">इच्छसि(17.1)</text>
</g>
<!-- Node14_1&#45;&gt;Node17_1 -->
<g id="edge15" class="edge">
<title>Node14_1&#45;&gt;Node17_1</title>
<path fill="none" stroke="black" d="M785.33,-233.61C773.79,-247.62 759.65,-264.79 749.4,-277.24"/>
<polygon fill="black" stroke="black" points="788.11,-235.74 791.77,-225.79 782.71,-231.29 788.11,-235.74"/>
<text text-anchor="middle" x="795.1" y="-247.8" font-family="Times,serif" font-size="14.00">पूर्वकालः</text>
</g>
<!-- Node12_1 -->
<g id="node15" class="node">
<title>Node12_1</title>
<ellipse fill="#93db70" stroke="#93db70" cx="711.6" cy="-121" rx="56.59" ry="18"/>
<text text-anchor="middle" x="711.6" y="-117.3" font-family="Times,serif" font-size="14.00">स्थितिं(12.1)</text>
</g>
<!-- Node12_1&#45;&gt;Node14_1 -->
<g id="edge13" class="edge">
<title>Node12_1&#45;&gt;Node14_1</title>
<path fill="none" stroke="black" d="M737.17,-145.12C753.11,-159.54 773.24,-177.74 787.53,-190.66"/>
<polygon fill="black" stroke="black" points="739.49,-142.5 729.72,-138.39 734.79,-147.69 739.49,-142.5"/>
<text text-anchor="middle" x="772.6" y="-160.8" font-family="Times,serif" font-size="14.00">कर्म</text>
</g>
<!-- Node13_1 -->
<g id="node16" class="node">
<title>Node13_1</title>
<ellipse fill="#ff99ff" stroke="#ff99ff" cx="830.6" cy="-121" rx="44.69" ry="18"/>
<text text-anchor="middle" x="830.6" y="-117.3" font-family="Times,serif" font-size="14.00">हि(13.1)</text>
</g>
<!-- Node13_1&#45;&gt;Node14_1 -->
<g id="edge14" class="edge">
<title>Node13_1&#45;&gt;Node14_1</title>
<path fill="none" stroke="black" d="M822.69,-148.87C818.75,-162.27 814.1,-178.08 810.65,-189.82"/>
<polygon fill="black" stroke="black" points="826.07,-149.78 825.54,-139.2 819.36,-147.81 826.07,-149.78"/>
<text text-anchor="middle" x="837.1" y="-160.8" font-family="Times,serif" font-size="14.00">सम्बन्धः</text>
</g>
<!-- Node15_1 -->
<g id="node18" class="node">
<title>Node15_1</title>
<ellipse fill="#b4ffb4" stroke="#b4ffb4" cx="580.6" cy="-121" rx="56.59" ry="18"/>
<text text-anchor="middle" x="580.6" y="-117.3" font-family="Times,serif" font-size="14.00">तस्याः(15.1)</text>
</g>
<!-- Node16_1 -->
<g id="node19" class="node">
<title>Node16_1</title>
<ellipse fill="#ff99ff" stroke="#ff99ff" cx="666.6" cy="-208" rx="61.99" ry="18"/>
<text text-anchor="middle" x="666.6" y="-204.3" font-family="Times,serif" font-size="14.00">चलितुम्(16.1)</text>
</g>
<!-- Node15_1&#45;&gt;Node16_1 -->
<g id="edge16" class="edge">
<title>Node15_1&#45;&gt;Node16_1</title>
<path fill="none" stroke="black" d="M604.34,-145.47C618.76,-159.72 636.82,-177.57 649.77,-190.37"/>
<polygon fill="black" stroke="black" points="606.75,-142.93 597.18,-138.39 601.83,-147.91 606.75,-142.93"/>
<text text-anchor="middle" x="652.1" y="-160.8" font-family="Times,serif" font-size="14.00">अपादानम्</text>
</g>
<!-- Node16_1&#45;&gt;Node17_1 -->
<g id="edge17" class="edge">
<title>Node16_1&#45;&gt;Node17_1</title>
<path fill="none" stroke="black" d="M686.58,-233.61C697.95,-247.62 711.89,-264.79 721.99,-277.24"/>
<polygon fill="black" stroke="black" points="689.25,-231.35 680.23,-225.79 683.81,-235.76 689.25,-231.35"/>
<text text-anchor="middle" x="719.1" y="-247.8" font-family="Times,serif" font-size="14.00">इष्कर्म</text>
</g>
</g>
</svg>
