<?xml version="1.0" encoding="UTF-8" standalone="no"?>
<!DOCTYPE svg PUBLIC "-//W3C//DTD SVG 1.1//EN"
 "http://www.w3.org/Graphics/SVG/1.1/DTD/svg11.dtd">
<!-- Generated by graphviz version 2.43.0 (0)
 -->
<!-- Title: G Pages: 1 -->
<svg width="621pt" height="392pt"
 viewBox="0.00 0.00 621.00 392.00" xmlns="http://www.w3.org/2000/svg" xmlns:xlink="http://www.w3.org/1999/xlink">
<g id="graph0" class="graph" transform="scale(1 1) rotate(0) translate(4 388)">
<title>G</title>
<polygon fill="#fffacd" stroke="transparent" points="-4,4 -4,-388 617,-388 617,4 -4,4"/>
<g id="clust1" class="cluster">
<title>cluster_1</title>
<polygon fill="#fffacd" stroke="black" points="8,-79 8,-218 240,-218 240,-79 8,-79"/>
</g>
<g id="clust2" class="cluster">
<title>cluster_2</title>
<polygon fill="#fffacd" stroke="black" points="248,-79 248,-218 506,-218 506,-79 248,-79"/>
</g>
<!-- Node3_1 -->
<g id="node1" class="node">
<title>Node3_1</title>
<ellipse fill="#93db70" stroke="#93db70" cx="183" cy="-105" rx="48.99" ry="18"/>
<text text-anchor="middle" x="183" y="-101.3" font-family="Times,serif" font-size="14.00">रुदतः(3.1)</text>
</g>
<!-- Node2_1 -->
<g id="node2" class="node">
<title>Node2_1</title>
<ellipse fill="#93db70" stroke="#93db70" cx="182" cy="-192" rx="50.09" ry="18"/>
<text text-anchor="middle" x="182" y="-188.3" font-family="Times,serif" font-size="14.00">पुत्रान्(2.1)</text>
</g>
<!-- Node3_1&#45;&gt;Node2_1 -->
<g id="edge3" class="edge">
<title>Node3_1&#45;&gt;Node2_1</title>
<path fill="none" stroke="black" d="M182.68,-133.27C182.52,-146.58 182.34,-162.19 182.2,-173.82"/>
<polygon fill="black" stroke="black" points="186.18,-133.24 182.8,-123.2 179.18,-133.16 186.18,-133.24"/>
<text text-anchor="middle" x="205.5" y="-144.8" font-family="Times,serif" font-size="14.00">विशेषणम्</text>
</g>
<!-- Node7_1 -->
<g id="node7" class="node">
<title>Node7_1</title>
<ellipse fill="#00bfff" stroke="#00bfff" cx="358" cy="-279" rx="56.59" ry="18"/>
<text text-anchor="middle" x="358" y="-275.3" font-family="Times,serif" font-size="14.00">अवेक्षती(7.1)</text>
</g>
<!-- Node2_1&#45;&gt;Node7_1 -->
<g id="edge2" class="edge">
<title>Node2_1&#45;&gt;Node7_1</title>
<path fill="none" stroke="black" d="M219.84,-211.28C252.26,-226.93 298.3,-249.17 328.17,-263.59"/>
<polygon fill="black" stroke="black" points="221.2,-208.04 210.67,-206.85 218.15,-214.35 221.2,-208.04"/>
<text text-anchor="middle" x="290" y="-231.8" font-family="Times,serif" font-size="14.00">कर्म</text>
</g>
<!-- Node4_1 -->
<g id="node3" class="node">
<title>Node4_1</title>
<ellipse fill="#93db70" stroke="#93db70" cx="66" cy="-105" rx="50.09" ry="18"/>
<text text-anchor="middle" x="66" y="-101.3" font-family="Times,serif" font-size="14.00">सर्वान्(4.1)</text>
</g>
<!-- Node4_1&#45;&gt;Node2_1 -->
<g id="edge4" class="edge">
<title>Node4_1&#45;&gt;Node2_1</title>
<path fill="none" stroke="black" d="M95.43,-127.68C107.39,-136.48 121.35,-146.73 134,-156 142.65,-162.34 152.2,-169.3 160.48,-175.34"/>
<polygon fill="black" stroke="black" points="97.25,-124.67 87.12,-121.56 93.1,-130.31 97.25,-124.67"/>
<text text-anchor="middle" x="156.5" y="-144.8" font-family="Times,serif" font-size="14.00">विशेषणम्</text>
</g>
<!-- Node10_2 -->
<g id="node4" class="node">
<title>Node10_2</title>
<ellipse fill="#00bfff" stroke="#00bfff" cx="309" cy="-105" rx="53.09" ry="18"/>
<text text-anchor="middle" x="309" y="-101.3" font-family="Times,serif" font-size="14.00">प्राज्ञा(10.2)</text>
</g>
<!-- Node1_1 -->
<g id="node5" class="node">
<title>Node1_1</title>
<ellipse fill="#00bfff" stroke="#00bfff" cx="358" cy="-192" rx="40.09" ry="18"/>
<text text-anchor="middle" x="358" y="-188.3" font-family="Times,serif" font-size="14.00">सा(1.1)</text>
</g>
<!-- Node10_2&#45;&gt;Node1_1 -->
<g id="edge10" class="edge">
<title>Node10_2&#45;&gt;Node1_1</title>
<path fill="none" stroke="black" d="M323.87,-131.8C331.82,-145.58 341.36,-162.14 348.34,-174.24"/>
<polygon fill="black" stroke="black" points="326.71,-129.71 318.68,-122.79 320.64,-133.2 326.71,-129.71"/>
<text text-anchor="middle" x="359.5" y="-144.8" font-family="Times,serif" font-size="14.00">विशेषणम्</text>
</g>
<!-- Node1_1&#45;&gt;Node7_1 -->
<g id="edge1" class="edge">
<title>Node1_1&#45;&gt;Node7_1</title>
<path fill="none" stroke="black" d="M358,-220.27C358,-233.58 358,-249.19 358,-260.82"/>
<polygon fill="black" stroke="black" points="361.5,-220.2 358,-210.2 354.5,-220.2 361.5,-220.2"/>
<text text-anchor="middle" x="369" y="-231.8" font-family="Times,serif" font-size="14.00">कर्ता</text>
</g>
<!-- Node12_2 -->
<g id="node6" class="node">
<title>Node12_2</title>
<ellipse fill="#00bfff" stroke="#00bfff" cx="439" cy="-105" rx="59.29" ry="18"/>
<text text-anchor="middle" x="439" y="-101.3" font-family="Times,serif" font-size="14.00">निश्चया(12.2)</text>
</g>
<!-- Node12_2&#45;&gt;Node1_1 -->
<g id="edge13" class="edge">
<title>Node12_2&#45;&gt;Node1_1</title>
<path fill="none" stroke="black" d="M416.12,-130.01C402.31,-144.5 385.12,-162.55 373.02,-175.24"/>
<polygon fill="black" stroke="black" points="419.02,-132.04 423.38,-122.39 413.95,-127.21 419.02,-132.04"/>
<text text-anchor="middle" x="426.5" y="-144.8" font-family="Times,serif" font-size="14.00">विशेषणम्</text>
</g>
<!-- Node8_1 -->
<g id="node10" class="node">
<title>Node8_1</title>
<ellipse fill="#ff1975" stroke="#ff1975" cx="416" cy="-366" rx="50.09" ry="18"/>
<text text-anchor="middle" x="416" y="-362.3" font-family="Times,serif" font-size="14.00">जगाम(8.1)</text>
</g>
<!-- Node7_1&#45;&gt;Node8_1 -->
<g id="edge7" class="edge">
<title>Node7_1&#45;&gt;Node8_1</title>
<path fill="none" stroke="black" d="M357.14,-307.5C357.96,-315.23 359.92,-323.33 364,-330 369.39,-338.82 377.95,-345.91 386.57,-351.35"/>
<polygon fill="black" stroke="black" points="360.62,-307.18 356.62,-297.37 353.63,-307.53 360.62,-307.18"/>
<text text-anchor="middle" x="408" y="-318.8" font-family="Times,serif" font-size="14.00">वर्तमानसमानकालः</text>
</g>
<!-- Node5_1 -->
<g id="node8" class="node">
<title>Node5_1</title>
<ellipse fill="#ff99ff" stroke="#ff99ff" cx="560" cy="-105" rx="44.39" ry="18"/>
<text text-anchor="middle" x="560" y="-101.3" font-family="Times,serif" font-size="14.00">मुहुः(5.1)</text>
</g>
<!-- Node6_1 -->
<g id="node9" class="node">
<title>Node6_1</title>
<ellipse fill="#ff99ff" stroke="#ff99ff" cx="559" cy="-192" rx="44.39" ry="18"/>
<text text-anchor="middle" x="559" y="-188.3" font-family="Times,serif" font-size="14.00">मुहुः(6.1)</text>
</g>
<!-- Node5_1&#45;&gt;Node6_1 -->
<g id="edge5" class="edge">
<title>Node5_1&#45;&gt;Node6_1</title>
<path fill="none" stroke="black" d="M559.68,-133.27C559.52,-146.58 559.34,-162.19 559.2,-173.82"/>
<polygon fill="black" stroke="black" points="563.18,-133.24 559.8,-123.2 556.18,-133.16 563.18,-133.24"/>
<text text-anchor="middle" x="573" y="-144.8" font-family="Times,serif" font-size="14.00">वीप्सा</text>
</g>
<!-- Node6_1&#45;&gt;Node7_1 -->
<g id="edge6" class="edge">
<title>Node6_1&#45;&gt;Node7_1</title>
<path fill="none" stroke="black" d="M524.3,-211.22C519.53,-213.57 514.67,-215.89 510,-218 470.82,-235.68 424.78,-253.45 393.72,-265.01"/>
<polygon fill="black" stroke="black" points="525.92,-214.32 533.29,-206.7 522.78,-208.07 525.92,-214.32"/>
<text text-anchor="middle" x="521" y="-231.8" font-family="Times,serif" font-size="14.00">क्रियाविशेषणम्</text>
</g>
<!-- Node9_1 -->
<g id="node11" class="node">
<title>Node9_1</title>
<ellipse fill="#ff99ff" stroke="#ff99ff" cx="474" cy="-279" rx="41.69" ry="18"/>
<text text-anchor="middle" x="474" y="-275.3" font-family="Times,serif" font-size="14.00">एव(9.1)</text>
</g>
<!-- Node9_1&#45;&gt;Node8_1 -->
<g id="edge8" class="edge">
<title>Node9_1&#45;&gt;Node8_1</title>
<path fill="none" stroke="black" d="M464.54,-306.6C461.16,-314.47 456.94,-322.88 452,-330 447.23,-336.87 440.97,-343.51 435.02,-349.13"/>
<polygon fill="black" stroke="black" points="467.9,-307.64 468.37,-297.05 461.4,-305.03 467.9,-307.64"/>
<text text-anchor="middle" x="479.5" y="-318.8" font-family="Times,serif" font-size="14.00">सम्बन्धः</text>
</g>
<!-- Node10_1 -->
<g id="node12" class="node">
<title>Node10_1</title>
<ellipse fill="#ffff00" stroke="#ffff00" cx="309" cy="-18" rx="52.79" ry="18"/>
<text text-anchor="middle" x="309" y="-14.3" font-family="Times,serif" font-size="14.00">महा&#45;(10.1)</text>
</g>
<!-- Node10_1&#45;&gt;Node10_2 -->
<g id="edge9" class="edge">
<title>Node10_1&#45;&gt;Node10_2</title>
<path fill="none" stroke="black" d="M309,-46.27C309,-59.58 309,-75.19 309,-86.82"/>
<polygon fill="black" stroke="black" points="312.5,-46.2 309,-36.2 305.5,-46.2 312.5,-46.2"/>
<text text-anchor="middle" x="326" y="-57.8" font-family="Times,serif" font-size="14.00">समासः</text>
</g>
<!-- Node11_1 -->
<g id="node13" class="node">
<title>Node11_1</title>
<ellipse fill="#b0e2ff" stroke="#b0e2ff" cx="436" cy="-18" rx="54.69" ry="18"/>
<text text-anchor="middle" x="436" y="-14.3" font-family="Times,serif" font-size="14.00">वनाय(11.1)</text>
</g>
<!-- Node11_1&#45;&gt;Node12_2 -->
<g id="edge11" class="edge">
<title>Node11_1&#45;&gt;Node12_2</title>
<path fill="none" stroke="black" d="M436.96,-46.27C437.43,-59.58 437.98,-75.19 438.39,-86.82"/>
<polygon fill="black" stroke="black" points="440.46,-46.07 436.61,-36.2 433.46,-46.32 440.46,-46.07"/>
<text text-anchor="middle" x="459.5" y="-57.8" font-family="Times,serif" font-size="14.00">प्रयोजनम्</text>
</g>
<!-- Node12_1 -->
<g id="node14" class="node">
<title>Node12_1</title>
<ellipse fill="#ffff00" stroke="#ffff00" cx="561" cy="-18" rx="51.99" ry="18"/>
<text text-anchor="middle" x="561" y="-14.3" font-family="Times,serif" font-size="14.00">कृत&#45;(12.1)</text>
</g>
<!-- Node12_1&#45;&gt;Node12_2 -->
<g id="edge12" class="edge">
<title>Node12_1&#45;&gt;Node12_2</title>
<path fill="none" stroke="black" d="M530.51,-40.24C509.18,-55.1 481.15,-74.63 461.76,-88.15"/>
<polygon fill="black" stroke="black" points="532.7,-42.98 538.91,-34.39 528.7,-37.24 532.7,-42.98"/>
<text text-anchor="middle" x="525" y="-57.8" font-family="Times,serif" font-size="14.00">समासः</text>
</g>
</g>
</svg>
