<?xml version="1.0" encoding="UTF-8" standalone="no"?>
<!DOCTYPE svg PUBLIC "-//W3C//DTD SVG 1.1//EN"
 "http://www.w3.org/Graphics/SVG/1.1/DTD/svg11.dtd">
<!-- Generated by graphviz version 2.43.0 (0)
 -->
<!-- Title: G Pages: 1 -->
<svg width="1058pt" height="234pt"
 viewBox="0.00 0.00 1057.59 234.00" xmlns="http://www.w3.org/2000/svg" xmlns:xlink="http://www.w3.org/1999/xlink">
<g id="graph0" class="graph" transform="scale(1 1) rotate(0) translate(4 230)">
<title>G</title>
<polygon fill="#fffacd" stroke="transparent" points="-4,4 -4,-230 1053.59,-230 1053.59,4 -4,4"/>
<g id="clust1" class="cluster">
<title>cluster_1</title>
<polygon fill="#fffacd" stroke="black" points="8.39,-8 8.39,-147 116.39,-147 116.39,-8 8.39,-8"/>
</g>
<!-- Node2_1 -->
<g id="node1" class="node">
<title>Node2_1</title>
<ellipse fill="#00bfff" stroke="#00bfff" cx="62.39" cy="-34" rx="46.29" ry="18"/>
<text text-anchor="middle" x="62.39" y="-30.3" font-family="Times,serif" font-size="14.00">इदम्(2.1)</text>
</g>
<!-- Node1_1 -->
<g id="node2" class="node">
<title>Node1_1</title>
<ellipse fill="#00bfff" stroke="#00bfff" cx="62.39" cy="-121" rx="46.29" ry="18"/>
<text text-anchor="middle" x="62.39" y="-117.3" font-family="Times,serif" font-size="14.00">किम्(1.1)</text>
</g>
<!-- Node2_1&#45;&gt;Node1_1 -->
<g id="edge2" class="edge">
<title>Node2_1&#45;&gt;Node1_1</title>
<path fill="none" stroke="black" d="M62.39,-62.27C62.39,-75.58 62.39,-91.19 62.39,-102.82"/>
<polygon fill="black" stroke="black" points="65.89,-62.2 62.39,-52.2 58.89,-62.2 65.89,-62.2"/>
<text text-anchor="middle" x="84.89" y="-73.8" font-family="Times,serif" font-size="14.00">विशेषणम्</text>
</g>
<!-- Node16_1 -->
<g id="node3" class="node">
<title>Node16_1</title>
<ellipse fill="#ff1975" stroke="#ff1975" cx="62.39" cy="-208" rx="62.29" ry="18"/>
<text text-anchor="middle" x="62.39" y="-204.3" font-family="Times,serif" font-size="14.00">(अस्ति)(16.1)</text>
</g>
<!-- Node1_1&#45;&gt;Node16_1 -->
<g id="edge1" class="edge">
<title>Node1_1&#45;&gt;Node16_1</title>
<path fill="none" stroke="black" d="M62.39,-149.27C62.39,-162.58 62.39,-178.19 62.39,-189.82"/>
<polygon fill="black" stroke="black" points="65.89,-149.2 62.39,-139.2 58.89,-149.2 65.89,-149.2"/>
<text text-anchor="middle" x="73.39" y="-160.8" font-family="Times,serif" font-size="14.00">कर्ता</text>
</g>
<!-- Node3_1 -->
<g id="node4" class="node">
<title>Node3_1</title>
<ellipse fill="#87ceeb" stroke="#87ceeb" cx="163.39" cy="-34" rx="37.09" ry="18"/>
<text text-anchor="middle" x="163.39" y="-30.3" font-family="Times,serif" font-size="14.00">ते(3.1)</text>
</g>
<!-- Node3_1&#45;&gt;Node1_1 -->
<g id="edge3" class="edge">
<title>Node3_1&#45;&gt;Node1_1</title>
<path fill="none" stroke="black" d="M141.34,-57.58C132.33,-66.44 121.63,-76.5 111.39,-85 103.03,-91.95 93.37,-99.02 84.86,-104.98"/>
<polygon fill="black" stroke="black" points="143.85,-60.02 148.47,-50.49 138.91,-55.06 143.85,-60.02"/>
<text text-anchor="middle" x="155.89" y="-73.8" font-family="Times,serif" font-size="14.00">षष्ठीसम्बन्धः</text>
</g>
<!-- Node4_1 -->
<g id="node5" class="node">
<title>Node4_1</title>
<ellipse fill="#00bfff" stroke="#00bfff" cx="280.39" cy="-34" rx="62.29" ry="18"/>
<text text-anchor="middle" x="280.39" y="-30.3" font-family="Times,serif" font-size="14.00">व्यवसितम्(4.1)</text>
</g>
<!-- Node4_1&#45;&gt;Node1_1 -->
<g id="edge4" class="edge">
<title>Node4_1&#45;&gt;Node1_1</title>
<path fill="none" stroke="black" d="M246,-55.84C228.83,-65.63 207.48,-76.9 187.39,-85 159.49,-96.25 126.7,-105.28 101.7,-111.35"/>
<polygon fill="black" stroke="black" points="248.18,-58.63 255.08,-50.58 244.67,-52.57 248.18,-58.63"/>
<text text-anchor="middle" x="258.39" y="-73.8" font-family="Times,serif" font-size="14.00">विधेय_विशेषणम्</text>
</g>
<!-- Node5_1 -->
<g id="node6" class="node">
<title>Node5_1</title>
<ellipse fill="#ff99ff" stroke="#ff99ff" cx="301.39" cy="-121" rx="37.09" ry="18"/>
<text text-anchor="middle" x="301.39" y="-117.3" font-family="Times,serif" font-size="14.00">न(5.1)</text>
</g>
<!-- Node9_1 -->
<g id="node7" class="node">
<title>Node9_1</title>
<ellipse fill="#ff1975" stroke="#ff1975" cx="407.39" cy="-208" rx="51.19" ry="18"/>
<text text-anchor="middle" x="407.39" y="-204.3" font-family="Times,serif" font-size="14.00">अर्हसि(9.1)</text>
</g>
<!-- Node5_1&#45;&gt;Node9_1 -->
<g id="edge5" class="edge">
<title>Node5_1&#45;&gt;Node9_1</title>
<path fill="none" stroke="black" d="M327.68,-143.08C346.26,-157.98 370.79,-177.65 387.71,-191.21"/>
<polygon fill="black" stroke="black" points="329.85,-140.33 319.86,-136.81 325.47,-145.79 329.85,-140.33"/>
<text text-anchor="middle" x="379.89" y="-160.8" font-family="Times,serif" font-size="14.00">प्रतिषेधः</text>
</g>
<!-- Node6_1 -->
<g id="node8" class="node">
<title>Node6_1</title>
<ellipse fill="#ff99ff" stroke="#ff99ff" cx="407.39" cy="-34" rx="46.29" ry="18"/>
<text text-anchor="middle" x="407.39" y="-30.3" font-family="Times,serif" font-size="14.00">एवम्(6.1)</text>
</g>
<!-- Node8_1 -->
<g id="node9" class="node">
<title>Node8_1</title>
<ellipse fill="#ff99ff" stroke="#ff99ff" cx="407.39" cy="-121" rx="51.19" ry="18"/>
<text text-anchor="middle" x="407.39" y="-117.3" font-family="Times,serif" font-size="14.00">वक्तुम्(8.1)</text>
</g>
<!-- Node6_1&#45;&gt;Node8_1 -->
<g id="edge6" class="edge">
<title>Node6_1&#45;&gt;Node8_1</title>
<path fill="none" stroke="black" d="M407.39,-62.27C407.39,-75.58 407.39,-91.19 407.39,-102.82"/>
<polygon fill="black" stroke="black" points="410.89,-62.2 407.39,-52.2 403.89,-62.2 410.89,-62.2"/>
<text text-anchor="middle" x="442.39" y="-73.8" font-family="Times,serif" font-size="14.00">क्रियाविशेषणम्</text>
</g>
<!-- Node8_1&#45;&gt;Node9_1 -->
<g id="edge8" class="edge">
<title>Node8_1&#45;&gt;Node9_1</title>
<path fill="none" stroke="black" d="M407.39,-149.27C407.39,-162.58 407.39,-178.19 407.39,-189.82"/>
<polygon fill="black" stroke="black" points="410.89,-149.2 407.39,-139.2 403.89,-149.2 410.89,-149.2"/>
<text text-anchor="middle" x="425.89" y="-160.8" font-family="Times,serif" font-size="14.00">तुमुन्कर्म</text>
</g>
<!-- Node7_1 -->
<g id="node10" class="node">
<title>Node7_1</title>
<ellipse fill="#00bfff" stroke="#00bfff" cx="521.39" cy="-121" rx="44.39" ry="18"/>
<text text-anchor="middle" x="521.39" y="-117.3" font-family="Times,serif" font-size="14.00">त्वम्(7.1)</text>
</g>
<!-- Node7_1&#45;&gt;Node9_1 -->
<g id="edge7" class="edge">
<title>Node7_1&#45;&gt;Node9_1</title>
<path fill="none" stroke="black" d="M492.86,-143.28C472.83,-158.21 446.49,-177.85 428.37,-191.36"/>
<polygon fill="black" stroke="black" points="495.09,-145.98 501.01,-137.2 490.9,-140.37 495.09,-145.98"/>
<text text-anchor="middle" x="481.39" y="-160.8" font-family="Times,serif" font-size="14.00">कर्ता</text>
</g>
<!-- Node10_1 -->
<g id="node11" class="node">
<title>Node10_1</title>
<ellipse fill="#ff99ff" stroke="#ff99ff" cx="584.39" cy="-34" rx="42.79" ry="18"/>
<text text-anchor="middle" x="584.39" y="-30.3" font-family="Times,serif" font-size="14.00">न(10.1)</text>
</g>
<!-- Node12_1 -->
<g id="node12" class="node">
<title>Node12_1</title>
<ellipse fill="#ff1975" stroke="#ff1975" cx="664.39" cy="-121" rx="81.49" ry="18"/>
<text text-anchor="middle" x="664.39" y="-117.3" font-family="Times,serif" font-size="14.00">अभ्यनुजानामि(12.1)</text>
</g>
<!-- Node10_1&#45;&gt;Node12_1 -->
<g id="edge9" class="edge">
<title>Node10_1&#45;&gt;Node12_1</title>
<path fill="none" stroke="black" d="M606.47,-58.45C619.83,-72.65 636.55,-90.42 648.59,-103.21"/>
<polygon fill="black" stroke="black" points="608.84,-55.87 599.44,-50.99 603.75,-60.67 608.84,-55.87"/>
<text text-anchor="middle" x="647.89" y="-73.8" font-family="Times,serif" font-size="14.00">प्रतिषेधः</text>
</g>
<!-- Node11_1 -->
<g id="node13" class="node">
<title>Node11_1</title>
<ellipse fill="#93db70" stroke="#93db70" cx="698.39" cy="-34" rx="52.79" ry="18"/>
<text text-anchor="middle" x="698.39" y="-30.3" font-family="Times,serif" font-size="14.00">त्वाम्(11.1)</text>
</g>
<!-- Node11_1&#45;&gt;Node12_1 -->
<g id="edge10" class="edge">
<title>Node11_1&#45;&gt;Node12_1</title>
<path fill="none" stroke="black" d="M687.65,-61.87C682.29,-75.27 675.96,-91.08 671.26,-102.82"/>
<polygon fill="black" stroke="black" points="691.05,-62.79 691.51,-52.2 684.55,-60.19 691.05,-62.79"/>
<text text-anchor="middle" x="692.39" y="-73.8" font-family="Times,serif" font-size="14.00">कर्म</text>
</g>
<!-- Node13_1 -->
<g id="node14" class="node">
<title>Node13_1</title>
<ellipse fill="#93db70" stroke="#93db70" cx="863.39" cy="-34" rx="60.39" ry="18"/>
<text text-anchor="middle" x="863.39" y="-30.3" font-family="Times,serif" font-size="14.00">प्रसादम्(13.1)</text>
</g>
<!-- Node14_1 -->
<g id="node15" class="node">
<title>Node14_1</title>
<ellipse fill="#ff99ff" stroke="#ff99ff" cx="863.39" cy="-121" rx="53.89" ry="18"/>
<text text-anchor="middle" x="863.39" y="-117.3" font-family="Times,serif" font-size="14.00">कर्तुम्(14.1)</text>
</g>
<!-- Node13_1&#45;&gt;Node14_1 -->
<g id="edge11" class="edge">
<title>Node13_1&#45;&gt;Node14_1</title>
<path fill="none" stroke="black" d="M863.39,-62.27C863.39,-75.58 863.39,-91.19 863.39,-102.82"/>
<polygon fill="black" stroke="black" points="866.89,-62.2 863.39,-52.2 859.89,-62.2 866.89,-62.2"/>
<text text-anchor="middle" x="872.39" y="-73.8" font-family="Times,serif" font-size="14.00">कर्म</text>
</g>
<!-- Node15_1 -->
<g id="node16" class="node">
<title>Node15_1</title>
<ellipse fill="#ff1975" stroke="#ff1975" cx="959.39" cy="-208" rx="57.39" ry="18"/>
<text text-anchor="middle" x="959.39" y="-204.3" font-family="Times,serif" font-size="14.00">अर्हसि(15.1)</text>
</g>
<!-- Node14_1&#45;&gt;Node15_1 -->
<g id="edge12" class="edge">
<title>Node14_1&#45;&gt;Node15_1</title>
<path fill="none" stroke="black" d="M889.1,-144.76C905.5,-159.28 926.37,-177.76 941.09,-190.79"/>
<polygon fill="black" stroke="black" points="891.26,-142 881.45,-137.99 886.62,-147.24 891.26,-142"/>
<text text-anchor="middle" x="934.89" y="-160.8" font-family="Times,serif" font-size="14.00">तुमुन्कर्म</text>
</g>
<!-- Node17_1 -->
<g id="node17" class="node">
<title>Node17_1</title>
<ellipse fill="#00bfff" stroke="#00bfff" cx="992.39" cy="-121" rx="57.39" ry="18"/>
<text text-anchor="middle" x="992.39" y="-117.3" font-family="Times,serif" font-size="14.00">(त्वम्)(17.1)</text>
</g>
<!-- Node17_1&#45;&gt;Node15_1 -->
<g id="edge13" class="edge">
<title>Node17_1&#45;&gt;Node15_1</title>
<path fill="none" stroke="black" d="M982.09,-148.54C976.82,-162.12 970.56,-178.24 965.95,-190.11"/>
<polygon fill="black" stroke="black" points="985.36,-149.79 985.72,-139.2 978.83,-147.26 985.36,-149.79"/>
<text text-anchor="middle" x="988.39" y="-160.8" font-family="Times,serif" font-size="14.00">कर्ता</text>
</g>
</g>
</svg>
