<?xml version="1.0" encoding="UTF-8" standalone="no"?>
<!DOCTYPE svg PUBLIC "-//W3C//DTD SVG 1.1//EN"
 "http://www.w3.org/Graphics/SVG/1.1/DTD/svg11.dtd">
<!-- Generated by graphviz version 2.43.0 (0)
 -->
<!-- Title: G Pages: 1 -->
<svg width="886pt" height="234pt"
 viewBox="0.00 0.00 886.34 234.00" xmlns="http://www.w3.org/2000/svg" xmlns:xlink="http://www.w3.org/1999/xlink">
<g id="graph0" class="graph" transform="scale(1 1) rotate(0) translate(4 230)">
<title>G</title>
<polygon fill="#fffacd" stroke="transparent" points="-4,4 -4,-230 882.34,-230 882.34,4 -4,4"/>
<g id="clust1" class="cluster">
<title>cluster_1</title>
<polygon fill="#fffacd" stroke="black" points="8,-8 8,-147 128,-147 128,-8 8,-8"/>
</g>
<!-- Node6_1 -->
<g id="node1" class="node">
<title>Node6_1</title>
<ellipse fill="#93db70" stroke="#93db70" cx="68" cy="-34" rx="51.99" ry="18"/>
<text text-anchor="middle" x="68" y="-30.3" font-family="Times,serif" font-size="14.00">उत्तमम्(6.1)</text>
</g>
<!-- Node3_1 -->
<g id="node2" class="node">
<title>Node3_1</title>
<ellipse fill="#93db70" stroke="#93db70" cx="71" cy="-121" rx="48.99" ry="18"/>
<text text-anchor="middle" x="71" y="-117.3" font-family="Times,serif" font-size="14.00">दानम्(3.1)</text>
</g>
<!-- Node6_1&#45;&gt;Node3_1 -->
<g id="edge6" class="edge">
<title>Node6_1&#45;&gt;Node3_1</title>
<path fill="none" stroke="black" d="M68.96,-62.27C69.43,-75.58 69.98,-91.19 70.39,-102.82"/>
<polygon fill="black" stroke="black" points="72.46,-62.07 68.61,-52.2 65.46,-62.32 72.46,-62.07"/>
<text text-anchor="middle" x="92.5" y="-73.8" font-family="Times,serif" font-size="14.00">विशेषणम्</text>
</g>
<!-- Node4_1 -->
<g id="node5" class="node">
<title>Node4_1</title>
<ellipse fill="#ff1975" stroke="#ff1975" cx="506" cy="-208" rx="46.29" ry="18"/>
<text text-anchor="middle" x="506" y="-204.3" font-family="Times,serif" font-size="14.00">दद्याः(4.1)</text>
</g>
<!-- Node3_1&#45;&gt;Node4_1 -->
<g id="edge4" class="edge">
<title>Node3_1&#45;&gt;Node4_1</title>
<path fill="none" stroke="black" d="M123.12,-132.18C210.97,-149.35 386.67,-183.68 465.77,-199.14"/>
<polygon fill="black" stroke="black" points="123.59,-128.71 113.1,-130.23 122.25,-135.58 123.59,-128.71"/>
<text text-anchor="middle" x="323" y="-160.8" font-family="Times,serif" font-size="14.00">कर्म</text>
</g>
<!-- Node1_1 -->
<g id="node3" class="node">
<title>Node1_1</title>
<ellipse fill="#ffff00" stroke="#ffff00" cx="329" cy="-34" rx="44.69" ry="18"/>
<text text-anchor="middle" x="329" y="-30.3" font-family="Times,serif" font-size="14.00">तत्&#45;(1.1)</text>
</g>
<!-- Node1_2 -->
<g id="node4" class="node">
<title>Node1_2</title>
<ellipse fill="#00bfff" stroke="#00bfff" cx="326" cy="-121" rx="57.69" ry="18"/>
<text text-anchor="middle" x="326" y="-117.3" font-family="Times,serif" font-size="14.00">निमित्तम्(1.2)</text>
</g>
<!-- Node1_1&#45;&gt;Node1_2 -->
<g id="edge1" class="edge">
<title>Node1_1&#45;&gt;Node1_2</title>
<path fill="none" stroke="black" d="M328.04,-62.27C327.57,-75.58 327.02,-91.19 326.61,-102.82"/>
<polygon fill="black" stroke="black" points="331.54,-62.32 328.39,-52.2 324.54,-62.07 331.54,-62.32"/>
<text text-anchor="middle" x="344" y="-73.8" font-family="Times,serif" font-size="14.00">समासः</text>
</g>
<!-- Node1_2&#45;&gt;Node4_1 -->
<g id="edge2" class="edge">
<title>Node1_2&#45;&gt;Node4_1</title>
<path fill="none" stroke="black" d="M365.7,-140.75C399.61,-156.76 447.55,-179.4 477.69,-193.63"/>
<polygon fill="black" stroke="black" points="367.07,-137.52 356.53,-136.42 364.08,-143.85 367.07,-137.52"/>
<text text-anchor="middle" x="444.5" y="-160.8" font-family="Times,serif" font-size="14.00">सम्बन्धः</text>
</g>
<!-- Node2_1 -->
<g id="node6" class="node">
<title>Node2_1</title>
<ellipse fill="#6fffc3" stroke="#6fffc3" cx="460" cy="-121" rx="57.69" ry="18"/>
<text text-anchor="middle" x="460" y="-117.3" font-family="Times,serif" font-size="14.00">महाबाहो(2.1)</text>
</g>
<!-- Node2_1&#45;&gt;Node4_1 -->
<g id="edge3" class="edge">
<title>Node2_1&#45;&gt;Node4_1</title>
<path fill="none" stroke="black" d="M473.96,-147.8C481.42,-161.58 490.38,-178.14 496.93,-190.24"/>
<polygon fill="black" stroke="black" points="476.93,-145.92 469.09,-138.79 470.77,-149.25 476.93,-145.92"/>
<text text-anchor="middle" x="506" y="-160.8" font-family="Times,serif" font-size="14.00">सम्बोध्यः</text>
</g>
<!-- Node5_1 -->
<g id="node7" class="node">
<title>Node5_1</title>
<ellipse fill="#00bfff" stroke="#00bfff" cx="580" cy="-121" rx="44.39" ry="18"/>
<text text-anchor="middle" x="580" y="-117.3" font-family="Times,serif" font-size="14.00">त्वम्(5.1)</text>
</g>
<!-- Node5_1&#45;&gt;Node4_1 -->
<g id="edge5" class="edge">
<title>Node5_1&#45;&gt;Node4_1</title>
<path fill="none" stroke="black" d="M558.84,-146.31C546.46,-160.53 531.17,-178.09 520.22,-190.66"/>
<polygon fill="black" stroke="black" points="561.81,-148.23 565.73,-138.39 556.53,-143.63 561.81,-148.23"/>
<text text-anchor="middle" x="558" y="-160.8" font-family="Times,serif" font-size="14.00">कर्ता</text>
</g>
<!-- Node7_1 -->
<g id="node8" class="node">
<title>Node7_1</title>
<ellipse fill="#ff99ff" stroke="#ff99ff" cx="687" cy="-121" rx="44.69" ry="18"/>
<text text-anchor="middle" x="687" y="-117.3" font-family="Times,serif" font-size="14.00">सदा(7.1)</text>
</g>
<!-- Node7_1&#45;&gt;Node4_1 -->
<g id="edge7" class="edge">
<title>Node7_1&#45;&gt;Node4_1</title>
<path fill="none" stroke="black" d="M649.51,-139.61C615.27,-155.68 565.41,-179.1 534.38,-193.67"/>
<polygon fill="black" stroke="black" points="651.15,-142.7 658.72,-135.28 648.18,-136.36 651.15,-142.7"/>
<text text-anchor="middle" x="642.5" y="-160.8" font-family="Times,serif" font-size="14.00">कालाधिकरणम्</text>
</g>
<!-- Node8_1 -->
<g id="node9" class="node">
<title>Node8_1</title>
<ellipse fill="#ff99ff" stroke="#ff99ff" cx="696" cy="-34" rx="41.69" ry="18"/>
<text text-anchor="middle" x="696" y="-30.3" font-family="Times,serif" font-size="14.00">एव(8.1)</text>
</g>
<!-- Node8_1&#45;&gt;Node7_1 -->
<g id="edge8" class="edge">
<title>Node8_1&#45;&gt;Node7_1</title>
<path fill="none" stroke="black" d="M693.11,-62.27C691.7,-75.58 690.05,-91.19 688.82,-102.82"/>
<polygon fill="black" stroke="black" points="696.61,-62.51 694.18,-52.2 689.65,-61.78 696.61,-62.51"/>
<text text-anchor="middle" x="710.5" y="-73.8" font-family="Times,serif" font-size="14.00">सम्बन्धः</text>
</g>
<!-- Node9_1 -->
<g id="node10" class="node">
<title>Node9_1</title>
<ellipse fill="#40e0d0" stroke="#40e0d0" cx="450" cy="-34" rx="55.79" ry="18"/>
<text text-anchor="middle" x="450" y="-30.3" font-family="Times,serif" font-size="14.00">भ्रातृभिः(9.1)</text>
</g>
<!-- Node9_1&#45;&gt;Node5_1 -->
<g id="edge9" class="edge">
<title>Node9_1&#45;&gt;Node5_1</title>
<path fill="none" stroke="black" d="M482.1,-55.99C505.53,-71.31 536.69,-91.68 557.5,-105.29"/>
<polygon fill="black" stroke="black" points="483.83,-52.94 473.54,-50.39 480,-58.79 483.83,-52.94"/>
<text text-anchor="middle" x="538" y="-73.8" font-family="Times,serif" font-size="14.00">सहार्थः</text>
</g>
<!-- Node10_1 -->
<g id="node11" class="node">
<title>Node10_1</title>
<ellipse fill="#ff99ff" stroke="#ff99ff" cx="580" cy="-34" rx="56.59" ry="18"/>
<text text-anchor="middle" x="580" y="-30.3" font-family="Times,serif" font-size="14.00">सार्धम्(10.1)</text>
</g>
<!-- Node10_1&#45;&gt;Node5_1 -->
<g id="edge10" class="edge">
<title>Node10_1&#45;&gt;Node5_1</title>
<path fill="none" stroke="black" d="M580,-62.27C580,-75.58 580,-91.19 580,-102.82"/>
<polygon fill="black" stroke="black" points="583.5,-62.2 580,-52.2 576.5,-62.2 583.5,-62.2"/>
<text text-anchor="middle" x="613.5" y="-73.8" font-family="Times,serif" font-size="14.00">सहार्थ_द्योतकः</text>
</g>
<!-- Node11_1 -->
<g id="node12" class="node">
<title>Node11_1</title>
<ellipse fill="#87ceeb" stroke="#87ceeb" cx="202" cy="-34" rx="63.89" ry="18"/>
<text text-anchor="middle" x="202" y="-30.3" font-family="Times,serif" font-size="14.00">अग्रजस्य(11.1)</text>
</g>
<!-- Node11_1&#45;&gt;Node3_1 -->
<g id="edge11" class="edge">
<title>Node11_1&#45;&gt;Node3_1</title>
<path fill="none" stroke="black" d="M169.14,-56.32C145.84,-71.44 115.14,-91.36 94.32,-104.87"/>
<polygon fill="black" stroke="black" points="171.18,-59.17 177.67,-50.79 167.37,-53.3 171.18,-59.17"/>
<text text-anchor="middle" x="171.5" y="-73.8" font-family="Times,serif" font-size="14.00">षष्ठीसम्बन्धः</text>
</g>
<!-- Node12_1 -->
<g id="node13" class="node">
<title>Node12_1</title>
<ellipse fill="#6fffc3" stroke="#6fffc3" cx="814" cy="-121" rx="64.19" ry="18"/>
<text text-anchor="middle" x="814" y="-117.3" font-family="Times,serif" font-size="14.00">अरिमर्दन(12.1)</text>
</g>
<!-- Node12_1&#45;&gt;Node4_1 -->
<g id="edge12" class="edge">
<title>Node12_1&#45;&gt;Node4_1</title>
<path fill="none" stroke="black" d="M771.22,-140.27C745.68,-150.66 712.39,-163.29 682,-172 637.08,-184.88 584.37,-194.68 548.43,-200.59"/>
<polygon fill="black" stroke="black" points="772.69,-143.45 780.61,-136.41 770.03,-136.98 772.69,-143.45"/>
<text text-anchor="middle" x="747" y="-160.8" font-family="Times,serif" font-size="14.00">सम्बोध्यः</text>
</g>
</g>
</svg>
