<?xml version="1.0" encoding="UTF-8" standalone="no"?>
<!DOCTYPE svg PUBLIC "-//W3C//DTD SVG 1.1//EN"
 "http://www.w3.org/Graphics/SVG/1.1/DTD/svg11.dtd">
<!-- Generated by graphviz version 2.43.0 (0)
 -->
<!-- Title: G Pages: 1 -->
<svg width="608pt" height="392pt"
 viewBox="0.00 0.00 608.05 392.00" xmlns="http://www.w3.org/2000/svg" xmlns:xlink="http://www.w3.org/1999/xlink">
<g id="graph0" class="graph" transform="scale(1 1) rotate(0) translate(4 388)">
<title>G</title>
<polygon fill="#fffacd" stroke="transparent" points="-4,4 -4,-388 604.05,-388 604.05,4 -4,4"/>
<g id="clust1" class="cluster">
<title>cluster_1</title>
<polygon fill="#fffacd" stroke="black" points="8,-166 8,-305 366,-305 366,-166 8,-166"/>
</g>
<!-- Node8_1 -->
<g id="node1" class="node">
<title>Node8_1</title>
<ellipse fill="#00bfff" stroke="#00bfff" cx="314" cy="-192" rx="44.39" ry="18"/>
<text text-anchor="middle" x="314" y="-188.3" font-family="Times,serif" font-size="14.00">एषः(8.1)</text>
</g>
<!-- Node6_1 -->
<g id="node2" class="node">
<title>Node6_1</title>
<ellipse fill="#00bfff" stroke="#00bfff" cx="193" cy="-279" rx="46.29" ry="18"/>
<text text-anchor="middle" x="193" y="-275.3" font-family="Times,serif" font-size="14.00">राजा(6.1)</text>
</g>
<!-- Node8_1&#45;&gt;Node6_1 -->
<g id="edge7" class="edge">
<title>Node8_1&#45;&gt;Node6_1</title>
<path fill="none" stroke="black" d="M284.46,-213.75C262.85,-228.94 234.02,-249.19 214.55,-262.86"/>
<polygon fill="black" stroke="black" points="286.48,-216.61 292.65,-208 282.45,-210.88 286.48,-216.61"/>
<text text-anchor="middle" x="283.5" y="-231.8" font-family="Times,serif" font-size="14.00">विशेषणम्</text>
</g>
<!-- Node7_1 -->
<g id="node11" class="node">
<title>Node7_1</title>
<ellipse fill="#ff1975" stroke="#ff1975" cx="193" cy="-366" rx="44.39" ry="18"/>
<text text-anchor="middle" x="193" y="-362.3" font-family="Times,serif" font-size="14.00">यातु(7.1)</text>
</g>
<!-- Node6_1&#45;&gt;Node7_1 -->
<g id="edge6" class="edge">
<title>Node6_1&#45;&gt;Node7_1</title>
<path fill="none" stroke="black" d="M193,-307.27C193,-320.58 193,-336.19 193,-347.82"/>
<polygon fill="black" stroke="black" points="196.5,-307.2 193,-297.2 189.5,-307.2 196.5,-307.2"/>
<text text-anchor="middle" x="204" y="-318.8" font-family="Times,serif" font-size="14.00">कर्ता</text>
</g>
<!-- Node9_2 -->
<g id="node3" class="node">
<title>Node9_2</title>
<ellipse fill="#00bfff" stroke="#00bfff" cx="66" cy="-192" rx="50.09" ry="18"/>
<text text-anchor="middle" x="66" y="-188.3" font-family="Times,serif" font-size="14.00">आत्मा(9.2)</text>
</g>
<!-- Node9_2&#45;&gt;Node6_1 -->
<g id="edge9" class="edge">
<title>Node9_2&#45;&gt;Node6_1</title>
<path fill="none" stroke="black" d="M97.31,-213.95C120,-229.14 150.15,-249.32 170.49,-262.94"/>
<polygon fill="black" stroke="black" points="98.96,-210.85 88.71,-208.2 95.07,-216.67 98.96,-210.85"/>
<text text-anchor="middle" x="160.5" y="-231.8" font-family="Times,serif" font-size="14.00">विशेषणम्</text>
</g>
<!-- Node11_2 -->
<g id="node4" class="node">
<title>Node11_2</title>
<ellipse fill="#00bfff" stroke="#00bfff" cx="193" cy="-192" rx="59.29" ry="18"/>
<text text-anchor="middle" x="193" y="-188.3" font-family="Times,serif" font-size="14.00">निश्चयः(11.2)</text>
</g>
<!-- Node11_2&#45;&gt;Node6_1 -->
<g id="edge12" class="edge">
<title>Node11_2&#45;&gt;Node6_1</title>
<path fill="none" stroke="black" d="M193,-220.27C193,-233.58 193,-249.19 193,-260.82"/>
<polygon fill="black" stroke="black" points="196.5,-220.2 193,-210.2 189.5,-220.2 196.5,-220.2"/>
<text text-anchor="middle" x="215.5" y="-231.8" font-family="Times,serif" font-size="14.00">विशेषणम्</text>
</g>
<!-- Node1_1 -->
<g id="node5" class="node">
<title>Node1_1</title>
<ellipse fill="#ffff00" stroke="#ffff00" cx="317" cy="-18" rx="44.69" ry="18"/>
<text text-anchor="middle" x="317" y="-14.3" font-family="Times,serif" font-size="14.00">वधू&#45;(1.1)</text>
</g>
<!-- Node1_2 -->
<g id="node6" class="node">
<title>Node1_2</title>
<ellipse fill="#00bfff" stroke="#00bfff" cx="317" cy="-105" rx="54.69" ry="18"/>
<text text-anchor="middle" x="317" y="-101.3" font-family="Times,serif" font-size="14.00">परिवृता(1.2)</text>
</g>
<!-- Node1_1&#45;&gt;Node1_2 -->
<g id="edge1" class="edge">
<title>Node1_1&#45;&gt;Node1_2</title>
<path fill="none" stroke="black" d="M317,-46.27C317,-59.58 317,-75.19 317,-86.82"/>
<polygon fill="black" stroke="black" points="320.5,-46.2 317,-36.2 313.5,-46.2 320.5,-46.2"/>
<text text-anchor="middle" x="351.5" y="-57.8" font-family="Times,serif" font-size="14.00">तृतीयातत्पुरुषः</text>
</g>
<!-- Node5_1 -->
<g id="node7" class="node">
<title>Node5_1</title>
<ellipse fill="#ff1975" stroke="#ff1975" cx="436" cy="-192" rx="51.19" ry="18"/>
<text text-anchor="middle" x="436" y="-188.3" font-family="Times,serif" font-size="14.00">अर्हसि(5.1)</text>
</g>
<!-- Node1_2&#45;&gt;Node5_1 -->
<g id="edge2" class="edge">
<title>Node1_2&#45;&gt;Node5_1</title>
<path fill="none" stroke="black" d="M347.08,-127.48C368.03,-142.45 395.48,-162.06 414.31,-175.51"/>
<polygon fill="black" stroke="black" points="349,-124.55 338.83,-121.59 344.93,-130.25 349,-124.55"/>
<text text-anchor="middle" x="394" y="-144.8" font-family="Times,serif" font-size="14.00">कर्ता</text>
</g>
<!-- Node2_1 -->
<g id="node8" class="node">
<title>Node2_1</title>
<ellipse fill="#6fffc3" stroke="#6fffc3" cx="436" cy="-105" rx="46.29" ry="18"/>
<text text-anchor="middle" x="436" y="-101.3" font-family="Times,serif" font-size="14.00">राज्ञि(2.1)</text>
</g>
<!-- Node2_1&#45;&gt;Node5_1 -->
<g id="edge3" class="edge">
<title>Node2_1&#45;&gt;Node5_1</title>
<path fill="none" stroke="black" d="M436,-133.27C436,-146.58 436,-162.19 436,-173.82"/>
<polygon fill="black" stroke="black" points="439.5,-133.2 436,-123.2 432.5,-133.2 439.5,-133.2"/>
<text text-anchor="middle" x="457" y="-144.8" font-family="Times,serif" font-size="14.00">सम्बोध्यः</text>
</g>
<!-- Node3_1 -->
<g id="node9" class="node">
<title>Node3_1</title>
<ellipse fill="#93db70" stroke="#93db70" cx="550" cy="-18" rx="50.09" ry="18"/>
<text text-anchor="middle" x="550" y="-14.3" font-family="Times,serif" font-size="14.00">नगरम्(3.1)</text>
</g>
<!-- Node4_1 -->
<g id="node10" class="node">
<title>Node4_1</title>
<ellipse fill="#ff99ff" stroke="#ff99ff" cx="550" cy="-105" rx="49.29" ry="18"/>
<text text-anchor="middle" x="550" y="-101.3" font-family="Times,serif" font-size="14.00">गन्तुम्(4.1)</text>
</g>
<!-- Node3_1&#45;&gt;Node4_1 -->
<g id="edge4" class="edge">
<title>Node3_1&#45;&gt;Node4_1</title>
<path fill="none" stroke="black" d="M550,-46.27C550,-59.58 550,-75.19 550,-86.82"/>
<polygon fill="black" stroke="black" points="553.5,-46.2 550,-36.2 546.5,-46.2 553.5,-46.2"/>
<text text-anchor="middle" x="559" y="-57.8" font-family="Times,serif" font-size="14.00">कर्म</text>
</g>
<!-- Node4_1&#45;&gt;Node5_1 -->
<g id="edge5" class="edge">
<title>Node4_1&#45;&gt;Node5_1</title>
<path fill="none" stroke="black" d="M521.19,-127.48C501.16,-142.42 474.91,-161.99 456.88,-175.43"/>
<polygon fill="black" stroke="black" points="523.43,-130.18 529.36,-121.39 519.25,-124.56 523.43,-130.18"/>
<text text-anchor="middle" x="517.5" y="-144.8" font-family="Times,serif" font-size="14.00">तुमुन्कर्म</text>
</g>
<!-- Node9_1 -->
<g id="node12" class="node">
<title>Node9_1</title>
<ellipse fill="#ffff00" stroke="#ffff00" cx="66" cy="-105" rx="45.49" ry="18"/>
<text text-anchor="middle" x="66" y="-101.3" font-family="Times,serif" font-size="14.00">धर्म&#45;(9.1)</text>
</g>
<!-- Node9_1&#45;&gt;Node9_2 -->
<g id="edge8" class="edge">
<title>Node9_1&#45;&gt;Node9_2</title>
<path fill="none" stroke="black" d="M66,-133.27C66,-146.58 66,-162.19 66,-173.82"/>
<polygon fill="black" stroke="black" points="69.5,-133.2 66,-123.2 62.5,-133.2 69.5,-133.2"/>
<text text-anchor="middle" x="83" y="-144.8" font-family="Times,serif" font-size="14.00">समासः</text>
</g>
<!-- Node10_1 -->
<g id="node13" class="node">
<title>Node10_1</title>
<ellipse fill="#b0e2ff" stroke="#b0e2ff" cx="193" cy="-18" rx="53.89" ry="18"/>
<text text-anchor="middle" x="193" y="-14.3" font-family="Times,serif" font-size="14.00">तपसे(10.1)</text>
</g>
<!-- Node11_1 -->
<g id="node14" class="node">
<title>Node11_1</title>
<ellipse fill="#ffff00" stroke="#ffff00" cx="193" cy="-105" rx="51.19" ry="18"/>
<text text-anchor="middle" x="193" y="-101.3" font-family="Times,serif" font-size="14.00">धृत&#45;(11.1)</text>
</g>
<!-- Node10_1&#45;&gt;Node11_1 -->
<g id="edge10" class="edge">
<title>Node10_1&#45;&gt;Node11_1</title>
<path fill="none" stroke="black" d="M193,-46.27C193,-59.58 193,-75.19 193,-86.82"/>
<polygon fill="black" stroke="black" points="196.5,-46.2 193,-36.2 189.5,-46.2 196.5,-46.2"/>
<text text-anchor="middle" x="216.5" y="-57.8" font-family="Times,serif" font-size="14.00">सम्प्रदानम्</text>
</g>
<!-- Node11_1&#45;&gt;Node11_2 -->
<g id="edge11" class="edge">
<title>Node11_1&#45;&gt;Node11_2</title>
<path fill="none" stroke="black" d="M193,-133.27C193,-146.58 193,-162.19 193,-173.82"/>
<polygon fill="black" stroke="black" points="196.5,-133.2 193,-123.2 189.5,-133.2 196.5,-133.2"/>
<text text-anchor="middle" x="212.5" y="-144.8" font-family="Times,serif" font-size="14.00">बहुव्रीहिः</text>
</g>
</g>
</svg>
