<?xml version="1.0" encoding="UTF-8" standalone="no"?>
<!DOCTYPE svg PUBLIC "-//W3C//DTD SVG 1.1//EN"
 "http://www.w3.org/Graphics/SVG/1.1/DTD/svg11.dtd">
<!-- Generated by graphviz version 2.43.0 (0)
 -->
<!-- Title: G Pages: 1 -->
<svg width="562pt" height="566pt"
 viewBox="0.00 0.00 562.44 566.00" xmlns="http://www.w3.org/2000/svg" xmlns:xlink="http://www.w3.org/1999/xlink">
<g id="graph0" class="graph" transform="scale(1 1) rotate(0) translate(4 562)">
<title>G</title>
<polygon fill="#fffacd" stroke="transparent" points="-4,4 -4,-562 558.44,-562 558.44,4 -4,4"/>
<g id="clust1" class="cluster">
<title>cluster_1</title>
<polygon fill="#fffacd" stroke="black" points="108.3,-166 108.3,-305 356.3,-305 356.3,-166 108.3,-166"/>
</g>
<!-- Node5_2 -->
<g id="node1" class="node">
<title>Node5_2</title>
<ellipse fill="#00bfff" stroke="#00bfff" cx="161.3" cy="-192" rx="44.69" ry="18"/>
<text text-anchor="middle" x="161.3" y="-188.3" font-family="Times,serif" font-size="14.00">पुत्रः(5.2)</text>
</g>
<!-- Node6_1 -->
<g id="node2" class="node">
<title>Node6_1</title>
<ellipse fill="#00bfff" stroke="#00bfff" cx="215.3" cy="-279" rx="57.69" ry="18"/>
<text text-anchor="middle" x="215.3" y="-275.3" font-family="Times,serif" font-size="14.00">युधिष्ठिरः(6.1)</text>
</g>
<!-- Node5_2&#45;&gt;Node6_1 -->
<g id="edge6" class="edge">
<title>Node5_2&#45;&gt;Node6_1</title>
<path fill="none" stroke="black" d="M177.43,-218.4C186.24,-232.26 196.89,-249.03 204.65,-261.24"/>
<polygon fill="black" stroke="black" points="180.28,-216.36 171.96,-209.79 174.37,-220.11 180.28,-216.36"/>
<text text-anchor="middle" x="214.8" y="-231.8" font-family="Times,serif" font-size="14.00">विशेषणम्</text>
</g>
<!-- Node1_1 -->
<g id="node4" class="node">
<title>Node1_1</title>
<ellipse fill="#00bfff" stroke="#00bfff" cx="215.3" cy="-366" rx="40.09" ry="18"/>
<text text-anchor="middle" x="215.3" y="-362.3" font-family="Times,serif" font-size="14.00">सः(1.1)</text>
</g>
<!-- Node6_1&#45;&gt;Node1_1 -->
<g id="edge7" class="edge">
<title>Node6_1&#45;&gt;Node1_1</title>
<path fill="none" stroke="black" d="M215.3,-307.27C215.3,-320.58 215.3,-336.19 215.3,-347.82"/>
<polygon fill="black" stroke="black" points="218.8,-307.2 215.3,-297.2 211.8,-307.2 218.8,-307.2"/>
<text text-anchor="middle" x="235.8" y="-318.8" font-family="Times,serif" font-size="14.00">उपमानम्</text>
</g>
<!-- Node10_3 -->
<g id="node3" class="node">
<title>Node10_3</title>
<ellipse fill="#00bfff" stroke="#00bfff" cx="286.3" cy="-192" rx="62.29" ry="18"/>
<text text-anchor="middle" x="286.3" y="-188.3" font-family="Times,serif" font-size="14.00">परायणः(10.3)</text>
</g>
<!-- Node10_3&#45;&gt;Node6_1 -->
<g id="edge11" class="edge">
<title>Node10_3&#45;&gt;Node6_1</title>
<path fill="none" stroke="black" d="M265.74,-217.61C254.04,-231.62 239.69,-248.79 229.29,-261.24"/>
<polygon fill="black" stroke="black" points="268.54,-219.71 272.27,-209.79 263.17,-215.22 268.54,-219.71"/>
<text text-anchor="middle" x="277.8" y="-231.8" font-family="Times,serif" font-size="14.00">विशेषणम्</text>
</g>
<!-- Node7_1 -->
<g id="node5" class="node">
<title>Node7_1</title>
<ellipse fill="#ff1975" stroke="#ff1975" cx="177.3" cy="-540" rx="48.99" ry="18"/>
<text text-anchor="middle" x="177.3" y="-536.3" font-family="Times,serif" font-size="14.00">उवाच(7.1)</text>
</g>
<!-- Node1_1&#45;&gt;Node7_1 -->
<g id="edge1" class="edge">
<title>Node1_1&#45;&gt;Node7_1</title>
<path fill="none" stroke="black" d="M229.57,-392.76C239.48,-414.18 249.28,-445.23 239.3,-471 230.98,-492.45 212.41,-511.29 197.74,-523.66"/>
<polygon fill="black" stroke="black" points="232.63,-391.06 225.07,-383.64 226.35,-394.16 232.63,-391.06"/>
<text text-anchor="middle" x="255.3" y="-449.3" font-family="Times,serif" font-size="14.00">कर्ता</text>
</g>
<!-- Node4_1 -->
<g id="node6" class="node">
<title>Node4_1</title>
<ellipse fill="#ff99ff" stroke="#ff99ff" cx="53.3" cy="-453" rx="53.09" ry="18"/>
<text text-anchor="middle" x="53.3" y="-449.3" font-family="Times,serif" font-size="14.00">ध्यात्वा(4.1)</text>
</g>
<!-- Node1_1&#45;&gt;Node4_1 -->
<g id="edge2" class="edge">
<title>Node1_1&#45;&gt;Node4_1</title>
<path fill="none" stroke="black" stroke-dasharray="1,5" d="M180.78,-385.11C150.97,-400.75 108.46,-423.06 80.87,-437.53"/>
<polygon fill="black" stroke="black" points="182.75,-388.03 189.98,-380.28 179.5,-381.83 182.75,-388.03"/>
<text text-anchor="middle" x="155.3" y="-405.8" font-family="Times,serif" font-size="14.00">कर्ता</text>
</g>
<!-- Node4_1&#45;&gt;Node7_1 -->
<g id="edge4" class="edge">
<title>Node4_1&#45;&gt;Node7_1</title>
<path fill="none" stroke="black" d="M84.1,-475.12C106.11,-490.21 135.22,-510.16 155.01,-523.72"/>
<polygon fill="black" stroke="black" points="85.98,-472.16 75.75,-469.39 82.02,-477.93 85.98,-472.16"/>
<text text-anchor="middle" x="143.8" y="-492.8" font-family="Times,serif" font-size="14.00">पूर्वकालः</text>
</g>
<!-- Node2_1 -->
<g id="node7" class="node">
<title>Node2_1</title>
<ellipse fill="#93db70" stroke="#93db70" cx="53.3" cy="-366" rx="51.19" ry="18"/>
<text text-anchor="middle" x="53.3" y="-362.3" font-family="Times,serif" font-size="14.00">मुहूर्तम्(2.1)</text>
</g>
<!-- Node2_1&#45;&gt;Node4_1 -->
<g id="edge3" class="edge">
<title>Node2_1&#45;&gt;Node4_1</title>
<path fill="none" stroke="black" d="M53.3,-394.27C53.3,-407.58 53.3,-423.19 53.3,-434.82"/>
<polygon fill="black" stroke="black" points="56.8,-394.2 53.3,-384.2 49.8,-394.2 56.8,-394.2"/>
<text text-anchor="middle" x="62.3" y="-405.8" font-family="Times,serif" font-size="14.00">कर्म</text>
</g>
<!-- Node3_1 -->
<g id="node8" class="node">
<title>Node3_1</title>
<ellipse fill="#ff99ff" stroke="#ff99ff" cx="403.3" cy="-18" rx="40.89" ry="18"/>
<text text-anchor="middle" x="403.3" y="-14.3" font-family="Times,serif" font-size="14.00">इव(3.1)</text>
</g>
<!-- Node5_1 -->
<g id="node9" class="node">
<title>Node5_1</title>
<ellipse fill="#ffff00" stroke="#ffff00" cx="161.3" cy="-105" rx="45.49" ry="18"/>
<text text-anchor="middle" x="161.3" y="-101.3" font-family="Times,serif" font-size="14.00">धर्म&#45;(5.1)</text>
</g>
<!-- Node5_1&#45;&gt;Node5_2 -->
<g id="edge5" class="edge">
<title>Node5_1&#45;&gt;Node5_2</title>
<path fill="none" stroke="black" d="M161.3,-133.27C161.3,-146.58 161.3,-162.19 161.3,-173.82"/>
<polygon fill="black" stroke="black" points="164.8,-133.2 161.3,-123.2 157.8,-133.2 164.8,-133.2"/>
<text text-anchor="middle" x="178.3" y="-144.8" font-family="Times,serif" font-size="14.00">समासः</text>
</g>
<!-- Node8_1 -->
<g id="node10" class="node">
<title>Node8_1</title>
<ellipse fill="#93db70" stroke="#93db70" cx="177.3" cy="-453" rx="52.79" ry="18"/>
<text text-anchor="middle" x="177.3" y="-449.3" font-family="Times,serif" font-size="14.00">मातरम्(8.1)</text>
</g>
<!-- Node8_1&#45;&gt;Node7_1 -->
<g id="edge8" class="edge">
<title>Node8_1&#45;&gt;Node7_1</title>
<path fill="none" stroke="black" d="M177.3,-481.27C177.3,-494.58 177.3,-510.19 177.3,-521.82"/>
<polygon fill="black" stroke="black" points="180.8,-481.2 177.3,-471.2 173.8,-481.2 180.8,-481.2"/>
<text text-anchor="middle" x="186.3" y="-492.8" font-family="Times,serif" font-size="14.00">कर्म</text>
</g>
<!-- Node9_1 -->
<g id="node11" class="node">
<title>Node9_1</title>
<ellipse fill="lightgrey" stroke="black" cx="508.3" cy="-18" rx="46.29" ry="18"/>
<text text-anchor="middle" x="508.3" y="-14.3" font-family="Times,serif" font-size="14.00">दीनः(9.1)</text>
</g>
<!-- Node10_1 -->
<g id="node12" class="node">
<title>Node10_1</title>
<ellipse fill="#ffff00" stroke="#ffff00" cx="286.3" cy="-18" rx="58.49" ry="18"/>
<text text-anchor="middle" x="286.3" y="-14.3" font-family="Times,serif" font-size="14.00">चिन्ता&#45;(10.1)</text>
</g>
<!-- Node10_2 -->
<g id="node13" class="node">
<title>Node10_2</title>
<ellipse fill="#ffff00" stroke="#ffff00" cx="286.3" cy="-105" rx="55.79" ry="18"/>
<text text-anchor="middle" x="286.3" y="-101.3" font-family="Times,serif" font-size="14.00">शोक&#45;(10.2)</text>
</g>
<!-- Node10_1&#45;&gt;Node10_2 -->
<g id="edge9" class="edge">
<title>Node10_1&#45;&gt;Node10_2</title>
<path fill="none" stroke="black" d="M286.3,-46.27C286.3,-59.58 286.3,-75.19 286.3,-86.82"/>
<polygon fill="black" stroke="black" points="289.8,-46.2 286.3,-36.2 282.8,-46.2 289.8,-46.2"/>
<text text-anchor="middle" x="303.3" y="-57.8" font-family="Times,serif" font-size="14.00">समासः</text>
</g>
<!-- Node10_2&#45;&gt;Node10_3 -->
<g id="edge10" class="edge">
<title>Node10_2&#45;&gt;Node10_3</title>
<path fill="none" stroke="black" d="M286.3,-133.27C286.3,-146.58 286.3,-162.19 286.3,-173.82"/>
<polygon fill="black" stroke="black" points="289.8,-133.2 286.3,-123.2 282.8,-133.2 289.8,-133.2"/>
<text text-anchor="middle" x="303.3" y="-144.8" font-family="Times,serif" font-size="14.00">समासः</text>
</g>
</g>
</svg>
