<?xml version="1.0" encoding="UTF-8" standalone="no"?>
<!DOCTYPE svg PUBLIC "-//W3C//DTD SVG 1.1//EN"
 "http://www.w3.org/Graphics/SVG/1.1/DTD/svg11.dtd">
<!-- Generated by graphviz version 2.43.0 (0)
 -->
<!-- Title: G Pages: 1 -->
<svg width="830pt" height="305pt"
 viewBox="0.00 0.00 829.99 305.00" xmlns="http://www.w3.org/2000/svg" xmlns:xlink="http://www.w3.org/1999/xlink">
<g id="graph0" class="graph" transform="scale(1 1) rotate(0) translate(4 301)">
<title>G</title>
<polygon fill="#fffacd" stroke="transparent" points="-4,4 -4,-301 825.99,-301 825.99,4 -4,4"/>
<g id="clust1" class="cluster">
<title>cluster_1</title>
<polygon fill="#fffacd" stroke="black" points="115.95,-79 115.95,-218 473.95,-218 473.95,-79 115.95,-79"/>
</g>
<!-- Node8_1 -->
<g id="node1" class="node">
<title>Node8_1</title>
<ellipse fill="#00bfff" stroke="#00bfff" cx="421.95" cy="-105" rx="44.39" ry="18"/>
<text text-anchor="middle" x="421.95" y="-101.3" font-family="Times,serif" font-size="14.00">एषः(8.1)</text>
</g>
<!-- Node6_1 -->
<g id="node2" class="node">
<title>Node6_1</title>
<ellipse fill="#00bfff" stroke="#00bfff" cx="222.95" cy="-192" rx="46.29" ry="18"/>
<text text-anchor="middle" x="222.95" y="-188.3" font-family="Times,serif" font-size="14.00">राजा(6.1)</text>
</g>
<!-- Node8_1&#45;&gt;Node6_1 -->
<g id="edge7" class="edge">
<title>Node8_1&#45;&gt;Node6_1</title>
<path fill="none" stroke="black" d="M385.9,-123.65C365.28,-133.54 338.85,-145.88 314.95,-156 295.59,-164.19 273.59,-172.59 255.96,-179.11"/>
<polygon fill="black" stroke="black" points="387.44,-126.8 394.93,-119.3 384.4,-120.49 387.44,-126.8"/>
<text text-anchor="middle" x="369.45" y="-144.8" font-family="Times,serif" font-size="14.00">विशेषणम्</text>
</g>
<!-- Node7_1 -->
<g id="node11" class="node">
<title>Node7_1</title>
<ellipse fill="#ff1975" stroke="#ff1975" cx="88.95" cy="-279" rx="44.39" ry="18"/>
<text text-anchor="middle" x="88.95" y="-275.3" font-family="Times,serif" font-size="14.00">यातु(7.1)</text>
</g>
<!-- Node6_1&#45;&gt;Node7_1 -->
<g id="edge6" class="edge">
<title>Node6_1&#45;&gt;Node7_1</title>
<path fill="none" stroke="black" d="M191.39,-213.02C167.08,-228.44 134.04,-249.4 112.13,-263.29"/>
<polygon fill="black" stroke="black" points="193.34,-215.92 199.91,-207.61 189.59,-210.01 193.34,-215.92"/>
<text text-anchor="middle" x="174.95" y="-231.8" font-family="Times,serif" font-size="14.00">कर्ता</text>
</g>
<!-- Node9_2 -->
<g id="node3" class="node">
<title>Node9_2</title>
<ellipse fill="#00bfff" stroke="#00bfff" cx="173.95" cy="-105" rx="50.09" ry="18"/>
<text text-anchor="middle" x="173.95" y="-101.3" font-family="Times,serif" font-size="14.00">आत्मा(9.2)</text>
</g>
<!-- Node9_2&#45;&gt;Node6_1 -->
<g id="edge9" class="edge">
<title>Node9_2&#45;&gt;Node6_1</title>
<path fill="none" stroke="black" d="M188.82,-131.8C196.76,-145.58 206.31,-162.14 213.28,-174.24"/>
<polygon fill="black" stroke="black" points="191.65,-129.71 183.63,-122.79 185.59,-133.2 191.65,-129.71"/>
<text text-anchor="middle" x="223.45" y="-144.8" font-family="Times,serif" font-size="14.00">विशेषणम्</text>
</g>
<!-- Node11_2 -->
<g id="node4" class="node">
<title>Node11_2</title>
<ellipse fill="#00bfff" stroke="#00bfff" cx="300.95" cy="-105" rx="59.29" ry="18"/>
<text text-anchor="middle" x="300.95" y="-101.3" font-family="Times,serif" font-size="14.00">निश्चयः(11.2)</text>
</g>
<!-- Node11_2&#45;&gt;Node6_1 -->
<g id="edge12" class="edge">
<title>Node11_2&#45;&gt;Node6_1</title>
<path fill="none" stroke="black" d="M278.63,-130.32C265.53,-144.6 249.33,-162.24 237.79,-174.82"/>
<polygon fill="black" stroke="black" points="281.35,-132.53 285.53,-122.79 276.19,-127.79 281.35,-132.53"/>
<text text-anchor="middle" x="288.45" y="-144.8" font-family="Times,serif" font-size="14.00">विशेषणम्</text>
</g>
<!-- Node1_1 -->
<g id="node5" class="node">
<title>Node1_1</title>
<ellipse fill="#ffff00" stroke="#ffff00" cx="538.95" cy="-18" rx="44.69" ry="18"/>
<text text-anchor="middle" x="538.95" y="-14.3" font-family="Times,serif" font-size="14.00">वधू&#45;(1.1)</text>
</g>
<!-- Node1_2 -->
<g id="node6" class="node">
<title>Node1_2</title>
<ellipse fill="#00bfff" stroke="#00bfff" cx="538.95" cy="-105" rx="54.69" ry="18"/>
<text text-anchor="middle" x="538.95" y="-101.3" font-family="Times,serif" font-size="14.00">परिवृता(1.2)</text>
</g>
<!-- Node1_1&#45;&gt;Node1_2 -->
<g id="edge1" class="edge">
<title>Node1_1&#45;&gt;Node1_2</title>
<path fill="none" stroke="black" d="M538.95,-46.27C538.95,-59.58 538.95,-75.19 538.95,-86.82"/>
<polygon fill="black" stroke="black" points="542.45,-46.2 538.95,-36.2 535.45,-46.2 542.45,-46.2"/>
<text text-anchor="middle" x="573.45" y="-57.8" font-family="Times,serif" font-size="14.00">तृतीयातत्पुरुषः</text>
</g>
<!-- Node5_1 -->
<g id="node7" class="node">
<title>Node5_1</title>
<ellipse fill="#ff1975" stroke="#ff1975" cx="657.95" cy="-192" rx="51.19" ry="18"/>
<text text-anchor="middle" x="657.95" y="-188.3" font-family="Times,serif" font-size="14.00">अर्हसि(5.1)</text>
</g>
<!-- Node1_2&#45;&gt;Node5_1 -->
<g id="edge2" class="edge">
<title>Node1_2&#45;&gt;Node5_1</title>
<path fill="none" stroke="black" d="M569.02,-127.48C589.97,-142.45 617.43,-162.06 636.26,-175.51"/>
<polygon fill="black" stroke="black" points="570.94,-124.55 560.77,-121.59 566.87,-130.25 570.94,-124.55"/>
<text text-anchor="middle" x="615.95" y="-144.8" font-family="Times,serif" font-size="14.00">कर्ता</text>
</g>
<!-- Node2_1 -->
<g id="node8" class="node">
<title>Node2_1</title>
<ellipse fill="#6fffc3" stroke="#6fffc3" cx="657.95" cy="-105" rx="46.29" ry="18"/>
<text text-anchor="middle" x="657.95" y="-101.3" font-family="Times,serif" font-size="14.00">राज्ञि(2.1)</text>
</g>
<!-- Node2_1&#45;&gt;Node5_1 -->
<g id="edge3" class="edge">
<title>Node2_1&#45;&gt;Node5_1</title>
<path fill="none" stroke="black" d="M657.95,-133.27C657.95,-146.58 657.95,-162.19 657.95,-173.82"/>
<polygon fill="black" stroke="black" points="661.45,-133.2 657.95,-123.2 654.45,-133.2 661.45,-133.2"/>
<text text-anchor="middle" x="678.95" y="-144.8" font-family="Times,serif" font-size="14.00">सम्बोध्यः</text>
</g>
<!-- Node3_1 -->
<g id="node9" class="node">
<title>Node3_1</title>
<ellipse fill="#93db70" stroke="#93db70" cx="771.95" cy="-18" rx="50.09" ry="18"/>
<text text-anchor="middle" x="771.95" y="-14.3" font-family="Times,serif" font-size="14.00">नगरम्(3.1)</text>
</g>
<!-- Node4_1 -->
<g id="node10" class="node">
<title>Node4_1</title>
<ellipse fill="#ff99ff" stroke="#ff99ff" cx="771.95" cy="-105" rx="49.29" ry="18"/>
<text text-anchor="middle" x="771.95" y="-101.3" font-family="Times,serif" font-size="14.00">गन्तुम्(4.1)</text>
</g>
<!-- Node3_1&#45;&gt;Node4_1 -->
<g id="edge4" class="edge">
<title>Node3_1&#45;&gt;Node4_1</title>
<path fill="none" stroke="black" d="M771.95,-46.27C771.95,-59.58 771.95,-75.19 771.95,-86.82"/>
<polygon fill="black" stroke="black" points="775.45,-46.2 771.95,-36.2 768.45,-46.2 775.45,-46.2"/>
<text text-anchor="middle" x="780.95" y="-57.8" font-family="Times,serif" font-size="14.00">कर्म</text>
</g>
<!-- Node4_1&#45;&gt;Node5_1 -->
<g id="edge5" class="edge">
<title>Node4_1&#45;&gt;Node5_1</title>
<path fill="none" stroke="black" d="M743.14,-127.48C723.1,-142.42 696.86,-161.99 678.82,-175.43"/>
<polygon fill="black" stroke="black" points="745.38,-130.18 751.3,-121.39 741.19,-124.56 745.38,-130.18"/>
<text text-anchor="middle" x="739.45" y="-144.8" font-family="Times,serif" font-size="14.00">तुमुन्कर्म</text>
</g>
<!-- Node9_1 -->
<g id="node12" class="node">
<title>Node9_1</title>
<ellipse fill="#ffff00" stroke="#ffff00" cx="173.95" cy="-18" rx="45.49" ry="18"/>
<text text-anchor="middle" x="173.95" y="-14.3" font-family="Times,serif" font-size="14.00">धर्म&#45;(9.1)</text>
</g>
<!-- Node9_1&#45;&gt;Node9_2 -->
<g id="edge8" class="edge">
<title>Node9_1&#45;&gt;Node9_2</title>
<path fill="none" stroke="black" d="M173.95,-46.27C173.95,-59.58 173.95,-75.19 173.95,-86.82"/>
<polygon fill="black" stroke="black" points="177.45,-46.2 173.95,-36.2 170.45,-46.2 177.45,-46.2"/>
<text text-anchor="middle" x="190.95" y="-57.8" font-family="Times,serif" font-size="14.00">समासः</text>
</g>
<!-- Node10_1 -->
<g id="node13" class="node">
<title>Node10_1</title>
<ellipse fill="#b0e2ff" stroke="#b0e2ff" cx="53.95" cy="-192" rx="53.89" ry="18"/>
<text text-anchor="middle" x="53.95" y="-188.3" font-family="Times,serif" font-size="14.00">तपसे(10.1)</text>
</g>
<!-- Node10_1&#45;&gt;Node7_1 -->
<g id="edge10" class="edge">
<title>Node10_1&#45;&gt;Node7_1</title>
<path fill="none" stroke="black" d="M64.87,-219.54C70.47,-233.12 77.1,-249.24 81.99,-261.11"/>
<polygon fill="black" stroke="black" points="68.07,-218.12 61.03,-210.2 61.6,-220.78 68.07,-218.12"/>
<text text-anchor="middle" x="97.45" y="-231.8" font-family="Times,serif" font-size="14.00">सम्प्रदानम्</text>
</g>
<!-- Node11_1 -->
<g id="node14" class="node">
<title>Node11_1</title>
<ellipse fill="#ffff00" stroke="#ffff00" cx="300.95" cy="-18" rx="51.19" ry="18"/>
<text text-anchor="middle" x="300.95" y="-14.3" font-family="Times,serif" font-size="14.00">धृत&#45;(11.1)</text>
</g>
<!-- Node11_1&#45;&gt;Node11_2 -->
<g id="edge11" class="edge">
<title>Node11_1&#45;&gt;Node11_2</title>
<path fill="none" stroke="black" d="M300.95,-46.27C300.95,-59.58 300.95,-75.19 300.95,-86.82"/>
<polygon fill="black" stroke="black" points="304.45,-46.2 300.95,-36.2 297.45,-46.2 304.45,-46.2"/>
<text text-anchor="middle" x="320.45" y="-57.8" font-family="Times,serif" font-size="14.00">बहुव्रीहिः</text>
</g>
</g>
</svg>
