<?xml version="1.0" encoding="UTF-8" standalone="no"?>
<!DOCTYPE svg PUBLIC "-//W3C//DTD SVG 1.1//EN"
 "http://www.w3.org/Graphics/SVG/1.1/DTD/svg11.dtd">
<!-- Generated by graphviz version 2.43.0 (0)
 -->
<!-- Title: G Pages: 1 -->
<svg width="765pt" height="392pt"
 viewBox="0.00 0.00 765.35 392.00" xmlns="http://www.w3.org/2000/svg" xmlns:xlink="http://www.w3.org/1999/xlink">
<g id="graph0" class="graph" transform="scale(1 1) rotate(0) translate(4 388)">
<title>G</title>
<polygon fill="#fffacd" stroke="transparent" points="-4,4 -4,-388 761.35,-388 761.35,4 -4,4"/>
<g id="clust1" class="cluster">
<title>cluster_1</title>
<polygon fill="#fffacd" stroke="black" points="291.35,-166 291.35,-305 749.35,-305 749.35,-166 291.35,-166"/>
</g>
<!-- Node1_1 -->
<g id="node1" class="node">
<title>Node1_1</title>
<ellipse fill="#00bfff" stroke="#00bfff" cx="701.35" cy="-192" rx="40.09" ry="18"/>
<text text-anchor="middle" x="701.35" y="-188.3" font-family="Times,serif" font-size="14.00">सः(1.1)</text>
</g>
<!-- Node6_1 -->
<g id="node2" class="node">
<title>Node6_1</title>
<ellipse fill="#00bfff" stroke="#00bfff" cx="453.35" cy="-279" rx="57.69" ry="18"/>
<text text-anchor="middle" x="453.35" y="-275.3" font-family="Times,serif" font-size="14.00">युधिष्ठिरः(6.1)</text>
</g>
<!-- Node1_1&#45;&gt;Node6_1 -->
<g id="edge1" class="edge">
<title>Node1_1&#45;&gt;Node6_1</title>
<path fill="none" stroke="black" d="M663.31,-208.88C638.02,-219.18 603.95,-232.58 573.35,-243 547.77,-251.71 518.69,-260.22 495.56,-266.67"/>
<polygon fill="black" stroke="black" points="664.96,-211.98 672.89,-204.95 662.31,-205.51 664.96,-211.98"/>
<text text-anchor="middle" x="634.85" y="-231.8" font-family="Times,serif" font-size="14.00">विशेषणम्</text>
</g>
<!-- Node7_1 -->
<g id="node9" class="node">
<title>Node7_1</title>
<ellipse fill="#ff1975" stroke="#ff1975" cx="230.35" cy="-366" rx="48.99" ry="18"/>
<text text-anchor="middle" x="230.35" y="-362.3" font-family="Times,serif" font-size="14.00">उवाच(7.1)</text>
</g>
<!-- Node6_1&#45;&gt;Node7_1 -->
<g id="edge7" class="edge">
<title>Node6_1&#45;&gt;Node7_1</title>
<path fill="none" stroke="black" d="M408.62,-297.05C365.55,-313.46 301.44,-337.9 262.98,-352.56"/>
<polygon fill="black" stroke="black" points="409.91,-300.3 418.01,-293.47 407.42,-293.76 409.91,-300.3"/>
<text text-anchor="middle" x="365.35" y="-318.8" font-family="Times,serif" font-size="14.00">कर्ता</text>
</g>
<!-- Node5_2 -->
<g id="node3" class="node">
<title>Node5_2</title>
<ellipse fill="#00bfff" stroke="#00bfff" cx="344.35" cy="-192" rx="44.69" ry="18"/>
<text text-anchor="middle" x="344.35" y="-188.3" font-family="Times,serif" font-size="14.00">पुत्रः(5.2)</text>
</g>
<!-- Node5_2&#45;&gt;Node6_1 -->
<g id="edge6" class="edge">
<title>Node5_2&#45;&gt;Node6_1</title>
<path fill="none" stroke="black" d="M370.36,-215.4C380.79,-224.18 393,-234.24 404.35,-243 412.79,-249.52 422.28,-256.4 430.65,-262.32"/>
<polygon fill="black" stroke="black" points="372.33,-212.48 362.44,-208.68 367.8,-217.82 372.33,-212.48"/>
<text text-anchor="middle" x="426.85" y="-231.8" font-family="Times,serif" font-size="14.00">विशेषणम्</text>
</g>
<!-- Node9_1 -->
<g id="node4" class="node">
<title>Node9_1</title>
<ellipse fill="#00bfff" stroke="#00bfff" cx="453.35" cy="-192" rx="46.29" ry="18"/>
<text text-anchor="middle" x="453.35" y="-188.3" font-family="Times,serif" font-size="14.00">दीनः(9.1)</text>
</g>
<!-- Node9_1&#45;&gt;Node6_1 -->
<g id="edge9" class="edge">
<title>Node9_1&#45;&gt;Node6_1</title>
<path fill="none" stroke="black" d="M453.35,-220.27C453.35,-233.58 453.35,-249.19 453.35,-260.82"/>
<polygon fill="black" stroke="black" points="456.85,-220.2 453.35,-210.2 449.85,-220.2 456.85,-220.2"/>
<text text-anchor="middle" x="475.85" y="-231.8" font-family="Times,serif" font-size="14.00">विशेषणम्</text>
</g>
<!-- Node10_3 -->
<g id="node5" class="node">
<title>Node10_3</title>
<ellipse fill="#00bfff" stroke="#00bfff" cx="580.35" cy="-192" rx="62.29" ry="18"/>
<text text-anchor="middle" x="580.35" y="-188.3" font-family="Times,serif" font-size="14.00">परायणः(10.3)</text>
</g>
<!-- Node10_3&#45;&gt;Node6_1 -->
<g id="edge12" class="edge">
<title>Node10_3&#45;&gt;Node6_1</title>
<path fill="none" stroke="black" d="M548.3,-214.45C526.05,-229.34 496.91,-248.84 476.81,-262.3"/>
<polygon fill="black" stroke="black" points="550.39,-217.26 556.76,-208.79 546.5,-211.44 550.39,-217.26"/>
<text text-anchor="middle" x="546.85" y="-231.8" font-family="Times,serif" font-size="14.00">विशेषणम्</text>
</g>
<!-- Node2_1 -->
<g id="node6" class="node">
<title>Node2_1</title>
<ellipse fill="#93db70" stroke="#93db70" cx="51.35" cy="-192" rx="51.19" ry="18"/>
<text text-anchor="middle" x="51.35" y="-188.3" font-family="Times,serif" font-size="14.00">मुहूर्तम्(2.1)</text>
</g>
<!-- Node4_1 -->
<g id="node7" class="node">
<title>Node4_1</title>
<ellipse fill="#ff99ff" stroke="#ff99ff" cx="106.35" cy="-279" rx="53.09" ry="18"/>
<text text-anchor="middle" x="106.35" y="-275.3" font-family="Times,serif" font-size="14.00">ध्यात्वा(4.1)</text>
</g>
<!-- Node2_1&#45;&gt;Node4_1 -->
<g id="edge2" class="edge">
<title>Node2_1&#45;&gt;Node4_1</title>
<path fill="none" stroke="black" d="M67.78,-218.4C76.75,-232.26 87.6,-249.03 95.5,-261.24"/>
<polygon fill="black" stroke="black" points="70.58,-216.29 62.21,-209.79 64.71,-220.09 70.58,-216.29"/>
<text text-anchor="middle" x="91.35" y="-231.8" font-family="Times,serif" font-size="14.00">कर्म</text>
</g>
<!-- Node4_1&#45;&gt;Node7_1 -->
<g id="edge4" class="edge">
<title>Node4_1&#45;&gt;Node7_1</title>
<path fill="none" stroke="black" d="M137.15,-301.12C159.17,-316.21 188.27,-336.16 208.06,-349.72"/>
<polygon fill="black" stroke="black" points="139.03,-298.16 128.8,-295.39 135.07,-303.93 139.03,-298.16"/>
<text text-anchor="middle" x="196.85" y="-318.8" font-family="Times,serif" font-size="14.00">पूर्वकालः</text>
</g>
<!-- Node3_1 -->
<g id="node8" class="node">
<title>Node3_1</title>
<ellipse fill="#ff99ff" stroke="#ff99ff" cx="161.35" cy="-192" rx="40.89" ry="18"/>
<text text-anchor="middle" x="161.35" y="-188.3" font-family="Times,serif" font-size="14.00">इव(3.1)</text>
</g>
<!-- Node3_1&#45;&gt;Node4_1 -->
<g id="edge3" class="edge">
<title>Node3_1&#45;&gt;Node4_1</title>
<path fill="none" stroke="black" d="M145.17,-217.99C136.2,-231.87 125.27,-248.76 117.29,-261.08"/>
<polygon fill="black" stroke="black" points="148.25,-219.69 150.74,-209.39 142.37,-215.88 148.25,-219.69"/>
<text text-anchor="middle" x="155.85" y="-231.8" font-family="Times,serif" font-size="14.00">सम्बन्धः</text>
</g>
<!-- Node5_1 -->
<g id="node10" class="node">
<title>Node5_1</title>
<ellipse fill="#ffff00" stroke="#ffff00" cx="344.35" cy="-105" rx="45.49" ry="18"/>
<text text-anchor="middle" x="344.35" y="-101.3" font-family="Times,serif" font-size="14.00">धर्म&#45;(5.1)</text>
</g>
<!-- Node5_1&#45;&gt;Node5_2 -->
<g id="edge5" class="edge">
<title>Node5_1&#45;&gt;Node5_2</title>
<path fill="none" stroke="black" d="M344.35,-133.27C344.35,-146.58 344.35,-162.19 344.35,-173.82"/>
<polygon fill="black" stroke="black" points="347.85,-133.2 344.35,-123.2 340.85,-133.2 347.85,-133.2"/>
<text text-anchor="middle" x="361.35" y="-144.8" font-family="Times,serif" font-size="14.00">समासः</text>
</g>
<!-- Node8_1 -->
<g id="node11" class="node">
<title>Node8_1</title>
<ellipse fill="#93db70" stroke="#93db70" cx="230.35" cy="-279" rx="52.79" ry="18"/>
<text text-anchor="middle" x="230.35" y="-275.3" font-family="Times,serif" font-size="14.00">मातरम्(8.1)</text>
</g>
<!-- Node8_1&#45;&gt;Node7_1 -->
<g id="edge8" class="edge">
<title>Node8_1&#45;&gt;Node7_1</title>
<path fill="none" stroke="black" d="M230.35,-307.27C230.35,-320.58 230.35,-336.19 230.35,-347.82"/>
<polygon fill="black" stroke="black" points="233.85,-307.2 230.35,-297.2 226.85,-307.2 233.85,-307.2"/>
<text text-anchor="middle" x="249.85" y="-318.8" font-family="Times,serif" font-size="14.00">गौणकर्म</text>
</g>
<!-- Node10_1 -->
<g id="node12" class="node">
<title>Node10_1</title>
<ellipse fill="#ffff00" stroke="#ffff00" cx="580.35" cy="-18" rx="58.49" ry="18"/>
<text text-anchor="middle" x="580.35" y="-14.3" font-family="Times,serif" font-size="14.00">चिन्ता&#45;(10.1)</text>
</g>
<!-- Node10_2 -->
<g id="node13" class="node">
<title>Node10_2</title>
<ellipse fill="#ffff00" stroke="#ffff00" cx="580.35" cy="-105" rx="55.79" ry="18"/>
<text text-anchor="middle" x="580.35" y="-101.3" font-family="Times,serif" font-size="14.00">शोक&#45;(10.2)</text>
</g>
<!-- Node10_1&#45;&gt;Node10_2 -->
<g id="edge10" class="edge">
<title>Node10_1&#45;&gt;Node10_2</title>
<path fill="none" stroke="black" d="M580.35,-46.27C580.35,-59.58 580.35,-75.19 580.35,-86.82"/>
<polygon fill="black" stroke="black" points="583.85,-46.2 580.35,-36.2 576.85,-46.2 583.85,-46.2"/>
<text text-anchor="middle" x="597.35" y="-57.8" font-family="Times,serif" font-size="14.00">समासः</text>
</g>
<!-- Node10_2&#45;&gt;Node10_3 -->
<g id="edge11" class="edge">
<title>Node10_2&#45;&gt;Node10_3</title>
<path fill="none" stroke="black" d="M580.35,-133.27C580.35,-146.58 580.35,-162.19 580.35,-173.82"/>
<polygon fill="black" stroke="black" points="583.85,-133.2 580.35,-123.2 576.85,-133.2 583.85,-133.2"/>
<text text-anchor="middle" x="597.35" y="-144.8" font-family="Times,serif" font-size="14.00">समासः</text>
</g>
</g>
</svg>
