<?xml version="1.0" encoding="UTF-8" standalone="no"?>
<!DOCTYPE svg PUBLIC "-//W3C//DTD SVG 1.1//EN"
 "http://www.w3.org/Graphics/SVG/1.1/DTD/svg11.dtd">
<!-- Generated by graphviz version 2.43.0 (0)
 -->
<!-- Title: G Pages: 1 -->
<svg width="1052pt" height="392pt"
 viewBox="0.00 0.00 1052.44 392.00" xmlns="http://www.w3.org/2000/svg" xmlns:xlink="http://www.w3.org/1999/xlink">
<g id="graph0" class="graph" transform="scale(1 1) rotate(0) translate(4 388)">
<title>G</title>
<polygon fill="#fffacd" stroke="transparent" points="-4,4 -4,-388 1048.44,-388 1048.44,4 -4,4"/>
<g id="clust1" class="cluster">
<title>cluster_1</title>
<polygon fill="#fffacd" stroke="black" points="432.75,-79 432.75,-305 816.75,-305 816.75,-79 432.75,-79"/>
</g>
<!-- Node7_1 -->
<g id="node1" class="node">
<title>Node7_1</title>
<ellipse fill="#00bfff" stroke="#00bfff" cx="496.75" cy="-192" rx="55.79" ry="18"/>
<text text-anchor="middle" x="496.75" y="-188.3" font-family="Times,serif" font-size="14.00">बालकाः(7.1)</text>
</g>
<!-- Node10_2 -->
<g id="node2" class="node">
<title>Node10_2</title>
<ellipse fill="#00bfff" stroke="#00bfff" cx="496.75" cy="-279" rx="50.89" ry="18"/>
<text text-anchor="middle" x="496.75" y="-275.3" font-family="Times,serif" font-size="14.00">पुत्रौ(10.2)</text>
</g>
<!-- Node7_1&#45;&gt;Node10_2 -->
<g id="edge6" class="edge">
<title>Node7_1&#45;&gt;Node10_2</title>
<path fill="none" stroke="black" d="M496.75,-220.27C496.75,-233.58 496.75,-249.19 496.75,-260.82"/>
<polygon fill="black" stroke="black" points="500.25,-220.2 496.75,-210.2 493.25,-220.2 500.25,-220.2"/>
<text text-anchor="middle" x="519.25" y="-231.8" font-family="Times,serif" font-size="14.00">समुच्चितः</text>
</g>
<!-- Node5_1 -->
<g id="node7" class="node">
<title>Node5_1</title>
<ellipse fill="#00bfff" stroke="#00bfff" cx="254.75" cy="-366" rx="55.49" ry="18"/>
<text text-anchor="middle" x="254.75" y="-362.3" font-family="Times,serif" font-size="14.00">आनीता(5.1)</text>
</g>
<!-- Node10_2&#45;&gt;Node5_1 -->
<g id="edge12" class="edge">
<title>Node10_2&#45;&gt;Node5_1</title>
<path fill="none" stroke="black" d="M455.27,-296.83C448.12,-299.62 440.74,-302.44 433.75,-305 385.57,-322.62 329.4,-341.12 293.02,-352.84"/>
<polygon fill="black" stroke="black" points="456.81,-299.98 464.82,-293.06 454.24,-293.47 456.81,-299.98"/>
<text text-anchor="middle" x="413.75" y="-318.8" font-family="Times,serif" font-size="14.00">कर्म</text>
</g>
<!-- Node8_1 -->
<g id="node3" class="node">
<title>Node8_1</title>
<ellipse fill="#00bfff" stroke="#00bfff" cx="496.75" cy="-105" rx="46.29" ry="18"/>
<text text-anchor="middle" x="496.75" y="-101.3" font-family="Times,serif" font-size="14.00">वयम्(8.1)</text>
</g>
<!-- Node8_1&#45;&gt;Node7_1 -->
<g id="edge7" class="edge">
<title>Node8_1&#45;&gt;Node7_1</title>
<path fill="none" stroke="black" d="M496.75,-133.27C496.75,-146.58 496.75,-162.19 496.75,-173.82"/>
<polygon fill="black" stroke="black" points="500.25,-133.2 496.75,-123.2 493.25,-133.2 500.25,-133.2"/>
<text text-anchor="middle" x="519.25" y="-144.8" font-family="Times,serif" font-size="14.00">विशेषणम्</text>
</g>
<!-- Node9_3 -->
<g id="node4" class="node">
<title>Node9_3</title>
<ellipse fill="#00bfff" stroke="#00bfff" cx="630.75" cy="-192" rx="59.59" ry="18"/>
<text text-anchor="middle" x="630.75" y="-188.3" font-family="Times,serif" font-size="14.00">समाविष्टौ(9.3)</text>
</g>
<!-- Node9_3&#45;&gt;Node10_2 -->
<g id="edge10" class="edge">
<title>Node9_3&#45;&gt;Node10_2</title>
<path fill="none" stroke="black" d="M597.45,-214.12C573.62,-229.24 542.1,-249.23 520.72,-262.79"/>
<polygon fill="black" stroke="black" points="599.6,-216.9 606.17,-208.59 595.85,-210.99 599.6,-216.9"/>
<text text-anchor="middle" x="594.25" y="-231.8" font-family="Times,serif" font-size="14.00">विशेषणम्</text>
</g>
<!-- Node11_1 -->
<g id="node5" class="node">
<title>Node11_1</title>
<ellipse fill="#00bfff" stroke="#00bfff" cx="758.75" cy="-192" rx="50.09" ry="18"/>
<text text-anchor="middle" x="758.75" y="-188.3" font-family="Times,serif" font-size="14.00">इमौ(11.1)</text>
</g>
<!-- Node11_1&#45;&gt;Node10_2 -->
<g id="edge13" class="edge">
<title>Node11_1&#45;&gt;Node10_2</title>
<path fill="none" stroke="black" d="M716.22,-209.31C689.08,-219.5 653.04,-232.61 620.75,-243 592.74,-252.01 560.79,-261 536.34,-267.61"/>
<polygon fill="black" stroke="black" points="717.67,-212.5 725.8,-205.7 715.2,-205.95 717.67,-212.5"/>
<text text-anchor="middle" x="685.25" y="-231.8" font-family="Times,serif" font-size="14.00">विशेषणम्</text>
</g>
<!-- Node1_1 -->
<g id="node6" class="node">
<title>Node1_1</title>
<ellipse fill="#b4ffb4" stroke="#b4ffb4" cx="48.75" cy="-279" rx="48.99" ry="18"/>
<text text-anchor="middle" x="48.75" y="-275.3" font-family="Times,serif" font-size="14.00">वनात्(1.1)</text>
</g>
<!-- Node1_1&#45;&gt;Node5_1 -->
<g id="edge1" class="edge">
<title>Node1_1&#45;&gt;Node5_1</title>
<path fill="none" stroke="black" d="M83.34,-299.35C101.82,-309.25 125.16,-321.06 146.75,-330 168.69,-339.09 193.9,-347.37 214.45,-353.6"/>
<polygon fill="black" stroke="black" points="84.88,-296.2 74.42,-294.52 81.55,-302.36 84.88,-296.2"/>
<text text-anchor="middle" x="170.25" y="-318.8" font-family="Times,serif" font-size="14.00">अपादानम्</text>
</g>
<!-- Node2_1 -->
<g id="node8" class="node">
<title>Node2_1</title>
<ellipse fill="#ff99ff" stroke="#ff99ff" cx="152.75" cy="-279" rx="37.89" ry="18"/>
<text text-anchor="middle" x="152.75" y="-275.3" font-family="Times,serif" font-size="14.00">च(2.1)</text>
</g>
<!-- Node2_1&#45;&gt;Node5_1 -->
<g id="edge2" class="edge">
<title>Node2_1&#45;&gt;Node5_1</title>
<path fill="none" stroke="black" d="M178.71,-301.64C196.45,-316.42 219.56,-335.68 235.63,-349.07"/>
<polygon fill="black" stroke="black" points="180.9,-298.91 170.98,-295.2 176.42,-304.29 180.9,-298.91"/>
<text text-anchor="middle" x="229.25" y="-318.8" font-family="Times,serif" font-size="14.00">सम्बन्धः</text>
</g>
<!-- Node3_1 -->
<g id="node9" class="node">
<title>Node3_1</title>
<ellipse fill="#ff99ff" stroke="#ff99ff" cx="152.75" cy="-192" rx="46.29" ry="18"/>
<text text-anchor="middle" x="152.75" y="-188.3" font-family="Times,serif" font-size="14.00">अपि(3.1)</text>
</g>
<!-- Node3_1&#45;&gt;Node2_1 -->
<g id="edge3" class="edge">
<title>Node3_1&#45;&gt;Node2_1</title>
<path fill="none" stroke="black" d="M152.75,-220.27C152.75,-233.58 152.75,-249.19 152.75,-260.82"/>
<polygon fill="black" stroke="black" points="156.25,-220.2 152.75,-210.2 149.25,-220.2 156.25,-220.2"/>
<text text-anchor="middle" x="171.25" y="-231.8" font-family="Times,serif" font-size="14.00">सम्बन्धः</text>
</g>
<!-- Node4_1 -->
<g id="node10" class="node">
<title>Node4_1</title>
<ellipse fill="#ff99ff" stroke="#ff99ff" cx="254.75" cy="-279" rx="46.29" ry="18"/>
<text text-anchor="middle" x="254.75" y="-275.3" font-family="Times,serif" font-size="14.00">किम्(4.1)</text>
</g>
<!-- Node4_1&#45;&gt;Node5_1 -->
<g id="edge4" class="edge">
<title>Node4_1&#45;&gt;Node5_1</title>
<path fill="none" stroke="black" d="M254.75,-307.27C254.75,-320.58 254.75,-336.19 254.75,-347.82"/>
<polygon fill="black" stroke="black" points="258.25,-307.2 254.75,-297.2 251.25,-307.2 258.25,-307.2"/>
<text text-anchor="middle" x="273.25" y="-318.8" font-family="Times,serif" font-size="14.00">सम्बन्धः</text>
</g>
<!-- Node6_1 -->
<g id="node11" class="node">
<title>Node6_1</title>
<ellipse fill="#40e0d0" stroke="#40e0d0" cx="371.75" cy="-279" rx="53.09" ry="18"/>
<text text-anchor="middle" x="371.75" y="-275.3" font-family="Times,serif" font-size="14.00">भवत्या(6.1)</text>
</g>
<!-- Node6_1&#45;&gt;Node5_1 -->
<g id="edge5" class="edge">
<title>Node6_1&#45;&gt;Node5_1</title>
<path fill="none" stroke="black" d="M341.96,-301.64C321.53,-316.48 294.9,-335.83 276.47,-349.22"/>
<polygon fill="black" stroke="black" points="344.25,-304.3 350.29,-295.59 340.14,-298.64 344.25,-304.3"/>
<text text-anchor="middle" x="331.75" y="-318.8" font-family="Times,serif" font-size="14.00">कर्ता</text>
</g>
<!-- Node9_1 -->
<g id="node12" class="node">
<title>Node9_1</title>
<ellipse fill="#ffff00" stroke="#ffff00" cx="874.75" cy="-18" rx="48.99" ry="18"/>
<text text-anchor="middle" x="874.75" y="-14.3" font-family="Times,serif" font-size="14.00">दुःख&#45;(9.1)</text>
</g>
<!-- Node9_2 -->
<g id="node13" class="node">
<title>Node9_2</title>
<ellipse fill="#ffff00" stroke="#ffff00" cx="874.75" cy="-105" rx="50.09" ry="18"/>
<text text-anchor="middle" x="874.75" y="-101.3" font-family="Times,serif" font-size="14.00">शोक&#45;(9.2)</text>
</g>
<!-- Node9_1&#45;&gt;Node9_2 -->
<g id="edge8" class="edge">
<title>Node9_1&#45;&gt;Node9_2</title>
<path fill="none" stroke="black" d="M874.75,-46.27C874.75,-59.58 874.75,-75.19 874.75,-86.82"/>
<polygon fill="black" stroke="black" points="878.25,-46.2 874.75,-36.2 871.25,-46.2 878.25,-46.2"/>
<text text-anchor="middle" x="891.75" y="-57.8" font-family="Times,serif" font-size="14.00">समासः</text>
</g>
<!-- Node9_2&#45;&gt;Node9_3 -->
<g id="edge9" class="edge">
<title>Node9_2&#45;&gt;Node9_3</title>
<path fill="none" stroke="black" d="M830.57,-121.39C784.27,-137.52 712.29,-162.59 668.53,-177.84"/>
<polygon fill="black" stroke="black" points="831.75,-124.68 840.05,-118.09 829.45,-118.07 831.75,-124.68"/>
<text text-anchor="middle" x="783.75" y="-144.8" font-family="Times,serif" font-size="14.00">समासः</text>
</g>
<!-- Node10_1 -->
<g id="node14" class="node">
<title>Node10_1</title>
<ellipse fill="#ffff00" stroke="#ffff00" cx="367.75" cy="-192" rx="55.49" ry="18"/>
<text text-anchor="middle" x="367.75" y="-188.3" font-family="Times,serif" font-size="14.00">माद्री&#45;(10.1)</text>
</g>
<!-- Node10_1&#45;&gt;Node10_2 -->
<g id="edge11" class="edge">
<title>Node10_1&#45;&gt;Node10_2</title>
<path fill="none" stroke="black" d="M399.49,-213.92C422.43,-229.03 452.88,-249.1 473.56,-262.72"/>
<polygon fill="black" stroke="black" points="401.38,-210.97 391.11,-208.39 397.53,-216.82 401.38,-210.97"/>
<text text-anchor="middle" x="456.75" y="-231.8" font-family="Times,serif" font-size="14.00">समासः</text>
</g>
<!-- Node12_1 -->
<g id="node15" class="node">
<title>Node12_1</title>
<ellipse fill="#ff99ff" stroke="#ff99ff" cx="993.75" cy="-105" rx="50.89" ry="18"/>
<text text-anchor="middle" x="993.75" y="-101.3" font-family="Times,serif" font-size="14.00">तथा(12.1)</text>
</g>
<!-- Node12_1&#45;&gt;Node11_1 -->
<g id="edge14" class="edge">
<title>Node12_1&#45;&gt;Node11_1</title>
<path fill="none" stroke="black" d="M950,-121.82C904.58,-138.25 834.49,-163.6 792.96,-178.63"/>
<polygon fill="black" stroke="black" points="951.36,-125.05 959.57,-118.36 948.98,-118.47 951.36,-125.05"/>
<text text-anchor="middle" x="927.75" y="-144.8" font-family="Times,serif" font-size="14.00">समुच्चय_द्योतकः</text>
</g>
</g>
</svg>
