<?xml version="1.0" encoding="UTF-8" standalone="no"?>
<!DOCTYPE svg PUBLIC "-//W3C//DTD SVG 1.1//EN"
 "http://www.w3.org/Graphics/SVG/1.1/DTD/svg11.dtd">
<!-- Generated by graphviz version 2.43.0 (0)
 -->
<!-- Title: G Pages: 1 -->
<svg width="372pt" height="305pt"
 viewBox="0.00 0.00 371.65 305.00" xmlns="http://www.w3.org/2000/svg" xmlns:xlink="http://www.w3.org/1999/xlink">
<g id="graph0" class="graph" transform="scale(1 1) rotate(0) translate(4 301)">
<title>G</title>
<polygon fill="#fffacd" stroke="transparent" points="-4,4 -4,-301 367.65,-301 367.65,4 -4,4"/>
<!-- Node1_1 -->
<g id="node1" class="node">
<title>Node1_1</title>
<ellipse fill="#87ceeb" stroke="#87ceeb" cx="308.65" cy="-105" rx="53.89" ry="18"/>
<text text-anchor="middle" x="308.65" y="-101.3" font-family="Times,serif" font-size="14.00">द्रौपद्याः(1.1)</text>
</g>
<!-- Node3_1 -->
<g id="node2" class="node">
<title>Node3_1</title>
<ellipse fill="#c6e2eb" stroke="#c6e2eb" cx="308.65" cy="-192" rx="44.39" ry="18"/>
<text text-anchor="middle" x="308.65" y="-188.3" font-family="Times,serif" font-size="14.00">प्रिये(3.1)</text>
</g>
<!-- Node1_1&#45;&gt;Node3_1 -->
<g id="edge1" class="edge">
<title>Node1_1&#45;&gt;Node3_1</title>
<path fill="none" stroke="black" d="M308.65,-133.27C308.65,-146.58 308.65,-162.19 308.65,-173.82"/>
<polygon fill="black" stroke="black" points="312.15,-133.2 308.65,-123.2 305.15,-133.2 312.15,-133.2"/>
<text text-anchor="middle" x="336.15" y="-144.8" font-family="Times,serif" font-size="14.00">षष्ठीसम्बन्धः</text>
</g>
<!-- Node5_1 -->
<g id="node4" class="node">
<title>Node5_1</title>
<ellipse fill="#00bfff" stroke="#00bfff" cx="184.65" cy="-279" rx="61.19" ry="18"/>
<text text-anchor="middle" x="184.65" y="-275.3" font-family="Times,serif" font-size="14.00">स्थातव्यम्(5.1)</text>
</g>
<!-- Node3_1&#45;&gt;Node5_1 -->
<g id="edge3" class="edge">
<title>Node3_1&#45;&gt;Node5_1</title>
<path fill="none" stroke="black" d="M278.77,-213.48C256.93,-228.45 227.73,-248.47 207.68,-262.21"/>
<polygon fill="black" stroke="black" points="280.78,-216.35 287.05,-207.81 276.82,-210.57 280.78,-216.35"/>
<text text-anchor="middle" x="281.15" y="-231.8" font-family="Times,serif" font-size="14.00">अधिकरणम्</text>
</g>
<!-- Node2_1 -->
<g id="node3" class="node">
<title>Node2_1</title>
<ellipse fill="#ff99ff" stroke="#ff99ff" cx="308.65" cy="-18" rx="37.89" ry="18"/>
<text text-anchor="middle" x="308.65" y="-14.3" font-family="Times,serif" font-size="14.00">च(2.1)</text>
</g>
<!-- Node2_1&#45;&gt;Node1_1 -->
<g id="edge2" class="edge">
<title>Node2_1&#45;&gt;Node1_1</title>
<path fill="none" stroke="black" d="M308.65,-46.27C308.65,-59.58 308.65,-75.19 308.65,-86.82"/>
<polygon fill="black" stroke="black" points="312.15,-46.2 308.65,-36.2 305.15,-46.2 312.15,-46.2"/>
<text text-anchor="middle" x="327.15" y="-57.8" font-family="Times,serif" font-size="14.00">सम्बन्धः</text>
</g>
<!-- Node4_1 -->
<g id="node5" class="node">
<title>Node4_1</title>
<ellipse fill="#00bfff" stroke="#00bfff" cx="52.65" cy="-192" rx="52.79" ry="18"/>
<text text-anchor="middle" x="52.65" y="-188.3" font-family="Times,serif" font-size="14.00">नित्यम्(4.1)</text>
</g>
<!-- Node4_1&#45;&gt;Node5_1 -->
<g id="edge4" class="edge">
<title>Node4_1&#45;&gt;Node5_1</title>
<path fill="none" stroke="black" d="M76.51,-216.14C86.56,-225.18 98.69,-235.22 110.65,-243 122.92,-250.98 137.29,-258.21 150.09,-263.99"/>
<polygon fill="black" stroke="black" points="78.67,-213.36 68.94,-209.16 73.92,-218.51 78.67,-213.36"/>
<text text-anchor="middle" x="145.65" y="-231.8" font-family="Times,serif" font-size="14.00">क्रियाविशेषणम्</text>
</g>
<!-- Node6_1 -->
<g id="node6" class="node">
<title>Node6_1</title>
<ellipse fill="#6fffc3" stroke="#6fffc3" cx="184.65" cy="-192" rx="61.99" ry="18"/>
<text text-anchor="middle" x="184.65" y="-188.3" font-family="Times,serif" font-size="14.00">अरिकर्शन(6.1)</text>
</g>
<!-- Node6_1&#45;&gt;Node5_1 -->
<g id="edge5" class="edge">
<title>Node6_1&#45;&gt;Node5_1</title>
<path fill="none" stroke="black" d="M184.65,-220.27C184.65,-233.58 184.65,-249.19 184.65,-260.82"/>
<polygon fill="black" stroke="black" points="188.15,-220.2 184.65,-210.2 181.15,-220.2 188.15,-220.2"/>
<text text-anchor="middle" x="205.65" y="-231.8" font-family="Times,serif" font-size="14.00">सम्बोध्यः</text>
</g>
</g>
</svg>
