<?xml version="1.0" encoding="UTF-8" standalone="no"?>
<!DOCTYPE svg PUBLIC "-//W3C//DTD SVG 1.1//EN"
 "http://www.w3.org/Graphics/SVG/1.1/DTD/svg11.dtd">
<!-- Generated by graphviz version 2.43.0 (0)
 -->
<!-- Title: G Pages: 1 -->
<svg width="876pt" height="321pt"
 viewBox="0.00 0.00 876.10 321.00" xmlns="http://www.w3.org/2000/svg" xmlns:xlink="http://www.w3.org/1999/xlink">
<g id="graph0" class="graph" transform="scale(1 1) rotate(0) translate(4 317)">
<title>G</title>
<polygon fill="#fffacd" stroke="transparent" points="-4,4 -4,-317 872.1,-317 872.1,4 -4,4"/>
<g id="clust1" class="cluster">
<title>cluster_1</title>
<polygon fill="#fffacd" stroke="black" points="8,-95 8,-234 120,-234 120,-95 8,-95"/>
</g>
<g id="clust2" class="cluster">
<title>cluster_2</title>
<polygon fill="#fffacd" stroke="black" points="371,-8 371,-147 493,-147 493,-8 371,-8"/>
</g>
<!-- Node1_1 -->
<g id="node1" class="node">
<title>Node1_1</title>
<ellipse fill="#00bfff" stroke="#00bfff" cx="64" cy="-121" rx="40.09" ry="18"/>
<text text-anchor="middle" x="64" y="-117.3" font-family="Times,serif" font-size="14.00">सा(1.1)</text>
</g>
<!-- Node2_1 -->
<g id="node2" class="node">
<title>Node2_1</title>
<ellipse fill="#00bfff" stroke="#00bfff" cx="64" cy="-208" rx="48.19" ry="18"/>
<text text-anchor="middle" x="64" y="-204.3" font-family="Times,serif" font-size="14.00">अहम्(2.1)</text>
</g>
<!-- Node1_1&#45;&gt;Node2_1 -->
<g id="edge1" class="edge">
<title>Node1_1&#45;&gt;Node2_1</title>
<path fill="none" stroke="black" d="M64,-149.27C64,-162.58 64,-178.19 64,-189.82"/>
<polygon fill="black" stroke="black" points="67.5,-149.2 64,-139.2 60.5,-149.2 67.5,-149.2"/>
<text text-anchor="middle" x="86.5" y="-160.8" font-family="Times,serif" font-size="14.00">विशेषणम्</text>
</g>
<!-- Node7_1 -->
<g id="node5" class="node">
<title>Node7_1</title>
<ellipse fill="#ff1975" stroke="#ff1975" cx="208" cy="-295" rx="58.49" ry="18"/>
<text text-anchor="middle" x="208" y="-291.3" font-family="Times,serif" font-size="14.00">अचूचुदम्(7.1)</text>
</g>
<!-- Node2_1&#45;&gt;Node7_1 -->
<g id="edge2" class="edge">
<title>Node2_1&#45;&gt;Node7_1</title>
<path fill="none" stroke="black" d="M97.46,-228.75C123.26,-243.98 158.43,-264.74 182.11,-278.72"/>
<polygon fill="black" stroke="black" points="99.15,-225.68 88.75,-223.61 95.59,-231.71 99.15,-225.68"/>
<text text-anchor="middle" x="156" y="-247.8" font-family="Times,serif" font-size="14.00">कर्ता</text>
</g>
<!-- Node10_1 -->
<g id="node3" class="node">
<title>Node10_1</title>
<ellipse fill="#40e0d0" stroke="#40e0d0" cx="432" cy="-34" rx="45.49" ry="18"/>
<text text-anchor="middle" x="432" y="-30.3" font-family="Times,serif" font-size="14.00">तैः(10.1)</text>
</g>
<!-- Node9_1 -->
<g id="node4" class="node">
<title>Node9_1</title>
<ellipse fill="#40e0d0" stroke="#40e0d0" cx="432" cy="-121" rx="52.79" ry="18"/>
<text text-anchor="middle" x="432" y="-117.3" font-family="Times,serif" font-size="14.00">प्रलापैः(9.1)</text>
</g>
<!-- Node10_1&#45;&gt;Node9_1 -->
<g id="edge11" class="edge">
<title>Node10_1&#45;&gt;Node9_1</title>
<path fill="none" stroke="black" d="M432,-62.27C432,-75.58 432,-91.19 432,-102.82"/>
<polygon fill="black" stroke="black" points="435.5,-62.2 432,-52.2 428.5,-62.2 435.5,-62.2"/>
<text text-anchor="middle" x="454.5" y="-73.8" font-family="Times,serif" font-size="14.00">विशेषणम्</text>
</g>
<!-- Node14_1 -->
<g id="node13" class="node">
<title>Node14_1</title>
<ellipse fill="#00bfff" stroke="#00bfff" cx="699" cy="-208" rx="53.89" ry="18"/>
<text text-anchor="middle" x="699" y="-204.3" font-family="Times,serif" font-size="14.00">कृतम्(14.1)</text>
</g>
<!-- Node9_1&#45;&gt;Node14_1 -->
<g id="edge10" class="edge">
<title>Node9_1&#45;&gt;Node14_1</title>
<path fill="none" stroke="black" d="M478.76,-136.89C530.66,-153.41 613.41,-179.75 661.33,-195.01"/>
<polygon fill="black" stroke="black" points="479.72,-133.52 469.13,-133.82 477.59,-140.19 479.72,-133.52"/>
<text text-anchor="middle" x="597.5" y="-160.8" font-family="Times,serif" font-size="14.00">करणम्</text>
</g>
<!-- Node3_1 -->
<g id="node6" class="node">
<title>Node3_1</title>
<ellipse fill="#ff99ff" stroke="#ff99ff" cx="167" cy="-208" rx="37.09" ry="18"/>
<text text-anchor="middle" x="167" y="-204.3" font-family="Times,serif" font-size="14.00">न(3.1)</text>
</g>
<!-- Node3_1&#45;&gt;Node7_1 -->
<g id="edge3" class="edge">
<title>Node3_1&#45;&gt;Node7_1</title>
<path fill="none" stroke="black" d="M178.01,-235.14C181.41,-242.88 185.24,-251.34 189,-259 191.92,-264.96 195.32,-271.37 198.44,-277.06"/>
<polygon fill="black" stroke="black" points="181.17,-233.62 173.99,-225.83 174.74,-236.39 181.17,-233.62"/>
<text text-anchor="middle" x="208.5" y="-247.8" font-family="Times,serif" font-size="14.00">प्रतिषेधः</text>
</g>
<!-- Node4_1 -->
<g id="node7" class="node">
<title>Node4_1</title>
<ellipse fill="#ffff00" stroke="#ffff00" cx="223" cy="-34" rx="50.89" ry="18"/>
<text text-anchor="middle" x="223" y="-30.3" font-family="Times,serif" font-size="14.00">आत्म&#45;(4.1)</text>
</g>
<!-- Node4_2 -->
<g id="node8" class="node">
<title>Node4_2</title>
<ellipse fill="#ffff00" stroke="#ffff00" cx="223" cy="-121" rx="48.19" ry="18"/>
<text text-anchor="middle" x="223" y="-117.3" font-family="Times,serif" font-size="14.00">फल&#45;(4.2)</text>
</g>
<!-- Node4_1&#45;&gt;Node4_2 -->
<g id="edge4" class="edge">
<title>Node4_1&#45;&gt;Node4_2</title>
<path fill="none" stroke="black" d="M223,-62.27C223,-75.58 223,-91.19 223,-102.82"/>
<polygon fill="black" stroke="black" points="226.5,-62.2 223,-52.2 219.5,-62.2 226.5,-62.2"/>
<text text-anchor="middle" x="240" y="-73.8" font-family="Times,serif" font-size="14.00">समासः</text>
</g>
<!-- Node4_3 -->
<g id="node9" class="node">
<title>Node4_3</title>
<ellipse fill="#00bfff" stroke="#00bfff" cx="271" cy="-208" rx="48.99" ry="18"/>
<text text-anchor="middle" x="271" y="-204.3" font-family="Times,serif" font-size="14.00">अर्थम्(4.3)</text>
</g>
<!-- Node4_2&#45;&gt;Node4_3 -->
<g id="edge5" class="edge">
<title>Node4_2&#45;&gt;Node4_3</title>
<path fill="none" stroke="black" d="M237.57,-147.8C245.35,-161.58 254.7,-178.14 261.54,-190.24"/>
<polygon fill="black" stroke="black" points="240.45,-145.78 232.48,-138.79 234.35,-149.22 240.45,-145.78"/>
<text text-anchor="middle" x="267" y="-160.8" font-family="Times,serif" font-size="14.00">समासः</text>
</g>
<!-- Node4_3&#45;&gt;Node7_1 -->
<g id="edge6" class="edge">
<title>Node4_3&#45;&gt;Node7_1</title>
<path fill="none" stroke="black" d="M252.47,-234.01C242.14,-247.94 229.56,-264.91 220.42,-277.24"/>
<polygon fill="black" stroke="black" points="255.41,-235.91 258.55,-225.79 249.79,-231.74 255.41,-235.91"/>
<text text-anchor="middle" x="265.5" y="-247.8" font-family="Times,serif" font-size="14.00">प्रयोजनम्</text>
</g>
<!-- Node5_1 -->
<g id="node10" class="node">
<title>Node5_1</title>
<ellipse fill="#ff99ff" stroke="#ff99ff" cx="325" cy="-121" rx="36.29" ry="18"/>
<text text-anchor="middle" x="325" y="-117.3" font-family="Times,serif" font-size="14.00">वै(5.1)</text>
</g>
<!-- Node5_1&#45;&gt;Node4_3 -->
<g id="edge7" class="edge">
<title>Node5_1&#45;&gt;Node4_3</title>
<path fill="none" stroke="black" d="M309.08,-147.05C300.21,-161.02 289.4,-178.04 281.56,-190.37"/>
<polygon fill="black" stroke="black" points="312.18,-148.71 314.59,-138.39 306.27,-144.95 312.18,-148.71"/>
<text text-anchor="middle" x="320.5" y="-160.8" font-family="Times,serif" font-size="14.00">सम्बन्धः</text>
</g>
<!-- Node6_1 -->
<g id="node11" class="node">
<title>Node6_1</title>
<ellipse fill="#93db70" stroke="#93db70" cx="396" cy="-208" rx="58.49" ry="18"/>
<text text-anchor="middle" x="396" y="-204.3" font-family="Times,serif" font-size="14.00">वासुदेवम्(6.1)</text>
</g>
<!-- Node6_1&#45;&gt;Node7_1 -->
<g id="edge8" class="edge">
<title>Node6_1&#45;&gt;Node7_1</title>
<path fill="none" stroke="black" d="M357.03,-228.07C337.34,-237.58 313,-249.13 291,-259 274.88,-266.23 256.82,-273.9 241.67,-280.21"/>
<polygon fill="black" stroke="black" points="358.82,-231.1 366.3,-223.59 355.77,-224.8 358.82,-231.1"/>
<text text-anchor="middle" x="332" y="-247.8" font-family="Times,serif" font-size="14.00">कर्म</text>
</g>
<!-- Node8_1 -->
<g id="node12" class="node">
<title>Node8_1</title>
<ellipse fill="#87ceeb" stroke="#87ceeb" cx="560" cy="-34" rx="59.29" ry="18"/>
<text text-anchor="middle" x="560" y="-30.3" font-family="Times,serif" font-size="14.00">विदुरायाः(8.1)</text>
</g>
<!-- Node8_1&#45;&gt;Node9_1 -->
<g id="edge9" class="edge">
<title>Node8_1&#45;&gt;Node9_1</title>
<path fill="none" stroke="black" d="M527.95,-56.28C505.38,-71.27 475.67,-91 455.33,-104.51"/>
<polygon fill="black" stroke="black" points="530.13,-59.04 536.52,-50.59 526.26,-53.21 530.13,-59.04"/>
<text text-anchor="middle" x="530.5" y="-73.8" font-family="Times,serif" font-size="14.00">षष्ठीसम्बन्धः</text>
</g>
<!-- Node11_1 -->
<g id="node14" class="node">
<title>Node11_1</title>
<ellipse fill="#ffff00" stroke="#ffff00" cx="699" cy="-34" rx="61.99" ry="18"/>
<text text-anchor="middle" x="699" y="-30.3" font-family="Times,serif" font-size="14.00">प्लावन&#45;(11.1)</text>
</g>
<!-- Node11_2 -->
<g id="node15" class="node">
<title>Node11_2</title>
<ellipse fill="#00bfff" stroke="#00bfff" cx="699" cy="-121" rx="54.69" ry="18"/>
<text text-anchor="middle" x="699" y="-117.3" font-family="Times,serif" font-size="14.00">अर्थम्(11.2)</text>
</g>
<!-- Node11_1&#45;&gt;Node11_2 -->
<g id="edge12" class="edge">
<title>Node11_1&#45;&gt;Node11_2</title>
<path fill="none" stroke="black" d="M699,-62.27C699,-75.58 699,-91.19 699,-102.82"/>
<polygon fill="black" stroke="black" points="702.5,-62.2 699,-52.2 695.5,-62.2 702.5,-62.2"/>
<text text-anchor="middle" x="716" y="-73.8" font-family="Times,serif" font-size="14.00">समासः</text>
</g>
<!-- Node11_2&#45;&gt;Node14_1 -->
<g id="edge13" class="edge">
<title>Node11_2&#45;&gt;Node14_1</title>
<path fill="none" stroke="black" d="M699,-149.27C699,-162.58 699,-178.19 699,-189.82"/>
<polygon fill="black" stroke="black" points="702.5,-149.2 699,-139.2 695.5,-149.2 702.5,-149.2"/>
<text text-anchor="middle" x="720.5" y="-160.8" font-family="Times,serif" font-size="14.00">प्रयोजनम्</text>
</g>
<!-- Node12_1 -->
<g id="node16" class="node">
<title>Node12_1</title>
<ellipse fill="#ff99ff" stroke="#ff99ff" cx="822" cy="-34" rx="42.79" ry="18"/>
<text text-anchor="middle" x="822" y="-30.3" font-family="Times,serif" font-size="14.00">तु(12.1)</text>
</g>
<!-- Node12_1&#45;&gt;Node11_2 -->
<g id="edge14" class="edge">
<title>Node12_1&#45;&gt;Node11_2</title>
<path fill="none" stroke="black" d="M792.32,-55.51C770.5,-70.59 741.31,-90.76 721.43,-104.5"/>
<polygon fill="black" stroke="black" points="794.34,-58.37 800.58,-49.81 790.36,-52.61 794.34,-58.37"/>
<text text-anchor="middle" x="785.5" y="-73.8" font-family="Times,serif" font-size="14.00">सम्बन्धः</text>
</g>
<!-- Node13_1 -->
<g id="node17" class="node">
<title>Node13_1</title>
<ellipse fill="#00bfff" stroke="#00bfff" cx="820" cy="-121" rx="48.19" ry="18"/>
<text text-anchor="middle" x="820" y="-117.3" font-family="Times,serif" font-size="14.00">तत्(13.1)</text>
</g>
<!-- Node13_1&#45;&gt;Node14_1 -->
<g id="edge15" class="edge">
<title>Node13_1&#45;&gt;Node14_1</title>
<path fill="none" stroke="black" d="M789.99,-143.08C768.7,-158.04 740.58,-177.79 721.26,-191.36"/>
<polygon fill="black" stroke="black" points="792.2,-145.81 798.37,-137.2 788.17,-140.08 792.2,-145.81"/>
<text text-anchor="middle" x="775" y="-160.8" font-family="Times,serif" font-size="14.00">कर्म</text>
</g>
</g>
</svg>
