<?xml version="1.0" encoding="UTF-8" standalone="no"?>
<!DOCTYPE svg PUBLIC "-//W3C//DTD SVG 1.1//EN"
 "http://www.w3.org/Graphics/SVG/1.1/DTD/svg11.dtd">
<!-- Generated by graphviz version 2.43.0 (0)
 -->
<!-- Title: G Pages: 1 -->
<svg width="924pt" height="321pt"
 viewBox="0.00 0.00 924.20 321.00" xmlns="http://www.w3.org/2000/svg" xmlns:xlink="http://www.w3.org/1999/xlink">
<g id="graph0" class="graph" transform="scale(1 1) rotate(0) translate(4 317)">
<title>G</title>
<polygon fill="#fffacd" stroke="transparent" points="-4,4 -4,-317 920.2,-317 920.2,4 -4,4"/>
<g id="clust1" class="cluster">
<title>cluster_1</title>
<polygon fill="#fffacd" stroke="black" points="344,-79 344,-218 580,-218 580,-79 344,-79"/>
</g>
<g id="clust2" class="cluster">
<title>cluster_2</title>
<polygon fill="#fffacd" stroke="black" points="8,-166 8,-305 134,-305 134,-166 8,-166"/>
</g>
<!-- Node3_1 -->
<g id="node1" class="node">
<title>Node3_1</title>
<ellipse fill="#40e0d0" stroke="#40e0d0" cx="523" cy="-105" rx="49.29" ry="18"/>
<text text-anchor="middle" x="523" y="-101.3" font-family="Times,serif" font-size="14.00">पापेन(3.1)</text>
</g>
<!-- Node6_1 -->
<g id="node2" class="node">
<title>Node6_1</title>
<ellipse fill="#40e0d0" stroke="#40e0d0" cx="417" cy="-192" rx="63.09" ry="18"/>
<text text-anchor="middle" x="417" y="-188.3" font-family="Times,serif" font-size="14.00">दुःशासनेन(6.1)</text>
</g>
<!-- Node3_1&#45;&gt;Node6_1 -->
<g id="edge3" class="edge">
<title>Node3_1&#45;&gt;Node6_1</title>
<path fill="none" stroke="black" d="M516.67,-132.91C513.65,-141.14 509.28,-149.68 503,-156 492.2,-166.86 477.58,-174.48 463.45,-179.77"/>
<polygon fill="black" stroke="black" points="520.07,-133.78 519.72,-123.19 513.39,-131.69 520.07,-133.78"/>
<text text-anchor="middle" x="534.5" y="-144.8" font-family="Times,serif" font-size="14.00">विशेषणम्</text>
</g>
<!-- Node2_1 -->
<g id="node5" class="node">
<title>Node2_1</title>
<ellipse fill="#00bfff" stroke="#00bfff" cx="71" cy="-279" rx="55.49" ry="18"/>
<text text-anchor="middle" x="71" y="-275.3" font-family="Times,serif" font-size="14.00">परामृष्टा(2.1)</text>
</g>
<!-- Node6_1&#45;&gt;Node2_1 -->
<g id="edge8" class="edge">
<title>Node6_1&#45;&gt;Node2_1</title>
<path fill="none" stroke="black" d="M380.19,-212.86C359.28,-223.34 332.3,-235.53 307,-243 245.82,-261.05 172.84,-270.05 124.4,-274.36"/>
<polygon fill="black" stroke="black" points="382.03,-215.86 389.35,-208.19 378.85,-209.62 382.03,-215.86"/>
<text text-anchor="middle" x="359" y="-231.8" font-family="Times,serif" font-size="14.00">कर्ता</text>
</g>
<!-- Node4_2 -->
<g id="node3" class="node">
<title>Node4_2</title>
<ellipse fill="#40e0d0" stroke="#40e0d0" cx="404" cy="-105" rx="51.99" ry="18"/>
<text text-anchor="middle" x="404" y="-101.3" font-family="Times,serif" font-size="14.00">बुद्धिना(4.2)</text>
</g>
<!-- Node4_2&#45;&gt;Node6_1 -->
<g id="edge5" class="edge">
<title>Node4_2&#45;&gt;Node6_1</title>
<path fill="none" stroke="black" d="M392.25,-132.41C390.29,-140.09 389.58,-148.43 392,-156 394.1,-162.54 397.91,-168.9 401.95,-174.37"/>
<polygon fill="black" stroke="black" points="395.6,-133.43 395.38,-122.84 388.94,-131.25 395.6,-133.43"/>
<text text-anchor="middle" x="414.5" y="-144.8" font-family="Times,serif" font-size="14.00">विशेषणम्</text>
</g>
<!-- Node7_1 -->
<g id="node4" class="node">
<title>Node7_1</title>
<ellipse fill="#00bfff" stroke="#00bfff" cx="71" cy="-192" rx="44.39" ry="18"/>
<text text-anchor="middle" x="71" y="-188.3" font-family="Times,serif" font-size="14.00">एषा(7.1)</text>
</g>
<!-- Node7_1&#45;&gt;Node2_1 -->
<g id="edge9" class="edge">
<title>Node7_1&#45;&gt;Node2_1</title>
<path fill="none" stroke="black" d="M71,-220.27C71,-233.58 71,-249.19 71,-260.82"/>
<polygon fill="black" stroke="black" points="74.5,-220.2 71,-210.2 67.5,-220.2 74.5,-220.2"/>
<text text-anchor="middle" x="93.5" y="-231.8" font-family="Times,serif" font-size="14.00">विशेषणम्</text>
</g>
<!-- Node1_1 -->
<g id="node6" class="node">
<title>Node1_1</title>
<ellipse fill="#ffff00" stroke="#ffff00" cx="186" cy="-105" rx="47.39" ry="18"/>
<text text-anchor="middle" x="186" y="-101.3" font-family="Times,serif" font-size="14.00">केश&#45;(1.1)</text>
</g>
<!-- Node1_2 -->
<g id="node7" class="node">
<title>Node1_2</title>
<ellipse fill="#c6e2eb" stroke="#c6e2eb" cx="186" cy="-192" rx="43.59" ry="18"/>
<text text-anchor="middle" x="186" y="-188.3" font-family="Times,serif" font-size="14.00">पक्षे(1.2)</text>
</g>
<!-- Node1_1&#45;&gt;Node1_2 -->
<g id="edge1" class="edge">
<title>Node1_1&#45;&gt;Node1_2</title>
<path fill="none" stroke="black" d="M186,-133.27C186,-146.58 186,-162.19 186,-173.82"/>
<polygon fill="black" stroke="black" points="189.5,-133.2 186,-123.2 182.5,-133.2 189.5,-133.2"/>
<text text-anchor="middle" x="203" y="-144.8" font-family="Times,serif" font-size="14.00">समासः</text>
</g>
<!-- Node1_2&#45;&gt;Node2_1 -->
<g id="edge2" class="edge">
<title>Node1_2&#45;&gt;Node2_1</title>
<path fill="none" stroke="black" d="M158.07,-214.43C146.37,-223.34 132.58,-233.75 120,-243 111.24,-249.44 101.51,-256.43 93.05,-262.45"/>
<polygon fill="black" stroke="black" points="160.35,-217.09 166.18,-208.24 156.11,-211.53 160.35,-217.09"/>
<text text-anchor="middle" x="168.5" y="-231.8" font-family="Times,serif" font-size="14.00">अधिकरणम्</text>
</g>
<!-- Node4_1 -->
<g id="node8" class="node">
<title>Node4_1</title>
<ellipse fill="#ffff00" stroke="#ffff00" cx="404" cy="-18" rx="44.39" ry="18"/>
<text text-anchor="middle" x="404" y="-14.3" font-family="Times,serif" font-size="14.00">हत&#45;(4.1)</text>
</g>
<!-- Node4_1&#45;&gt;Node4_2 -->
<g id="edge4" class="edge">
<title>Node4_1&#45;&gt;Node4_2</title>
<path fill="none" stroke="black" d="M404,-46.27C404,-59.58 404,-75.19 404,-86.82"/>
<polygon fill="black" stroke="black" points="407.5,-46.2 404,-36.2 400.5,-46.2 407.5,-46.2"/>
<text text-anchor="middle" x="421" y="-57.8" font-family="Times,serif" font-size="14.00">समासः</text>
</g>
<!-- Node5_1 -->
<g id="node9" class="node">
<title>Node5_1</title>
<ellipse fill="#ff99ff" stroke="#ff99ff" cx="292" cy="-192" rx="44.39" ry="18"/>
<text text-anchor="middle" x="292" y="-188.3" font-family="Times,serif" font-size="14.00">यदा(5.1)</text>
</g>
<!-- Node5_1&#45;&gt;Node2_1 -->
<g id="edge6" class="edge">
<title>Node5_1&#45;&gt;Node2_1</title>
<path fill="none" stroke="black" d="M259.83,-212.89C242.57,-222.94 220.64,-234.72 200,-243 172.86,-253.88 141.19,-262.53 116.02,-268.51"/>
<polygon fill="black" stroke="black" points="262.09,-215.62 268.91,-207.52 258.52,-209.6 262.09,-215.62"/>
<text text-anchor="middle" x="267.5" y="-231.8" font-family="Times,serif" font-size="14.00">कालाधिकरणम्</text>
</g>
<!-- Node8_1 -->
<g id="node10" class="node">
<title>Node8_1</title>
<ellipse fill="#ff99ff" stroke="#ff99ff" cx="872" cy="-192" rx="44.39" ry="18"/>
<text text-anchor="middle" x="872" y="-188.3" font-family="Times,serif" font-size="14.00">तदा(8.1)</text>
</g>
<!-- Node5_1&#45;&gt;Node8_1 -->
<g id="edge7" class="edge">
<title>Node5_1&#45;&gt;Node8_1</title>
<path fill="none" stroke="red" stroke-dasharray="5,2" d="M325.25,-172.25C330.09,-169.89 335.09,-167.72 340,-166 382.83,-151 395.3,-152.02 440.5,-148 556.23,-137.72 711.91,-137.93 819,-166 825.25,-167.64 831.63,-170.04 837.7,-172.74"/>
<polygon fill="red" stroke="red" points="323.48,-169.22 316.22,-176.94 326.71,-175.44 323.48,-169.22"/>
<polygon fill="red" stroke="red" points="836.39,-175.99 846.92,-177.15 839.41,-169.68 836.39,-175.99"/>
<text text-anchor="middle" x="471" y="-144.8" font-family="Times,serif" font-size="14.00">नित्यसम्बन्धः</text>
</g>
<!-- Node9_1 -->
<g id="node11" class="node">
<title>Node9_1</title>
<ellipse fill="#ff1975" stroke="#ff1975" cx="762" cy="-279" rx="53.09" ry="18"/>
<text text-anchor="middle" x="762" y="-275.3" font-family="Times,serif" font-size="14.00">मुह्यामि(9.1)</text>
</g>
<!-- Node8_1&#45;&gt;Node9_1 -->
<g id="edge10" class="edge">
<title>Node8_1&#45;&gt;Node9_1</title>
<path fill="none" stroke="black" d="M844.27,-214.79C833.04,-223.58 819.92,-233.81 808,-243 799.74,-249.37 790.59,-256.34 782.65,-262.38"/>
<polygon fill="black" stroke="black" points="846.73,-217.31 852.44,-208.38 842.41,-211.8 846.73,-217.31"/>
<text text-anchor="middle" x="860.5" y="-231.8" font-family="Times,serif" font-size="14.00">कालाधिकरणम्</text>
</g>
<!-- Node10_1 -->
<g id="node12" class="node">
<title>Node10_1</title>
<ellipse fill="#00bfff" stroke="#00bfff" cx="642" cy="-192" rx="53.89" ry="18"/>
<text text-anchor="middle" x="642" y="-188.3" font-family="Times,serif" font-size="14.00">अहम्(10.1)</text>
</g>
<!-- Node10_1&#45;&gt;Node9_1 -->
<g id="edge11" class="edge">
<title>Node10_1&#45;&gt;Node9_1</title>
<path fill="none" stroke="black" d="M672.33,-214.48C693.46,-229.45 721.14,-249.06 740.13,-262.51"/>
<polygon fill="black" stroke="black" points="674.19,-211.51 664.01,-208.59 670.15,-217.23 674.19,-211.51"/>
<text text-anchor="middle" x="720" y="-231.8" font-family="Times,serif" font-size="14.00">कर्ता</text>
</g>
<!-- Node11_1 -->
<g id="node13" class="node">
<title>Node11_1</title>
<ellipse fill="#6fffc3" stroke="#6fffc3" cx="762" cy="-192" rx="48.19" ry="18"/>
<text text-anchor="middle" x="762" y="-188.3" font-family="Times,serif" font-size="14.00">नृप(11.1)</text>
</g>
<!-- Node11_1&#45;&gt;Node9_1 -->
<g id="edge12" class="edge">
<title>Node11_1&#45;&gt;Node9_1</title>
<path fill="none" stroke="black" d="M762,-220.27C762,-233.58 762,-249.19 762,-260.82"/>
<polygon fill="black" stroke="black" points="765.5,-220.2 762,-210.2 758.5,-220.2 765.5,-220.2"/>
<text text-anchor="middle" x="783" y="-231.8" font-family="Times,serif" font-size="14.00">सम्बोध्यः</text>
</g>
</g>
</svg>
