<?xml version="1.0" encoding="UTF-8" standalone="no"?>
<!DOCTYPE svg PUBLIC "-//W3C//DTD SVG 1.1//EN"
 "http://www.w3.org/Graphics/SVG/1.1/DTD/svg11.dtd">
<!-- Generated by graphviz version 2.43.0 (0)
 -->
<!-- Title: G Pages: 1 -->
<svg width="956pt" height="321pt"
 viewBox="0.00 0.00 955.65 321.00" xmlns="http://www.w3.org/2000/svg" xmlns:xlink="http://www.w3.org/1999/xlink">
<g id="graph0" class="graph" transform="scale(1 1) rotate(0) translate(4 317)">
<title>G</title>
<polygon fill="#fffacd" stroke="transparent" points="-4,4 -4,-317 951.65,-317 951.65,4 -4,4"/>
<g id="clust1" class="cluster">
<title>cluster_1</title>
<polygon fill="#fffacd" stroke="black" points="8,-8 8,-147 150,-147 150,-8 8,-8"/>
</g>
<!-- Node12_1 -->
<g id="node1" class="node">
<title>Node12_1</title>
<ellipse fill="#87ceeb" stroke="#87ceeb" cx="79" cy="-34" rx="63.09" ry="18"/>
<text text-anchor="middle" x="79" y="-30.3" font-family="Times,serif" font-size="14.00">सीदताम्(12.1)</text>
</g>
<!-- Node11_1 -->
<g id="node2" class="node">
<title>Node11_1</title>
<ellipse fill="#87ceeb" stroke="#87ceeb" cx="79" cy="-121" rx="44.69" ry="18"/>
<text text-anchor="middle" x="79" y="-117.3" font-family="Times,serif" font-size="14.00">वः(11.1)</text>
</g>
<!-- Node12_1&#45;&gt;Node11_1 -->
<g id="edge11" class="edge">
<title>Node12_1&#45;&gt;Node11_1</title>
<path fill="none" stroke="black" d="M79,-62.27C79,-75.58 79,-91.19 79,-102.82"/>
<polygon fill="black" stroke="black" points="82.5,-62.2 79,-52.2 75.5,-62.2 82.5,-62.2"/>
<text text-anchor="middle" x="101.5" y="-73.8" font-family="Times,serif" font-size="14.00">विशेषणम्</text>
</g>
<!-- Node8_1 -->
<g id="node11" class="node">
<title>Node8_1</title>
<ellipse fill="#00bfff" stroke="#00bfff" cx="79" cy="-208" rx="57.69" ry="18"/>
<text text-anchor="middle" x="79" y="-204.3" font-family="Times,serif" font-size="14.00">उद्धर्षणम्(8.1)</text>
</g>
<!-- Node11_1&#45;&gt;Node8_1 -->
<g id="edge10" class="edge">
<title>Node11_1&#45;&gt;Node8_1</title>
<path fill="none" stroke="black" d="M79,-149.27C79,-162.58 79,-178.19 79,-189.82"/>
<polygon fill="black" stroke="black" points="82.5,-149.2 79,-139.2 75.5,-149.2 82.5,-149.2"/>
<text text-anchor="middle" x="106.5" y="-160.8" font-family="Times,serif" font-size="14.00">षष्ठीसम्बन्धः</text>
</g>
<!-- Node1_1 -->
<g id="node3" class="node">
<title>Node1_1</title>
<ellipse fill="#ff99ff" stroke="#ff99ff" cx="448" cy="-121" rx="46.29" ry="18"/>
<text text-anchor="middle" x="448" y="-117.3" font-family="Times,serif" font-size="14.00">एवम्(1.1)</text>
</g>
<!-- Node14_1 -->
<g id="node4" class="node">
<title>Node14_1</title>
<ellipse fill="#ff1975" stroke="#ff1975" cx="559" cy="-208" rx="62.29" ry="18"/>
<text text-anchor="middle" x="559" y="-204.3" font-family="Times,serif" font-size="14.00">(अस्ति)(14.1)</text>
</g>
<!-- Node1_1&#45;&gt;Node14_1 -->
<g id="edge1" class="edge">
<title>Node1_1&#45;&gt;Node14_1</title>
<path fill="none" stroke="black" d="M463.28,-147.58C469.27,-156.12 476.7,-165.18 485,-172 495.76,-180.84 509.13,-188.04 521.53,-193.56"/>
<polygon fill="black" stroke="black" points="466.02,-145.39 457.58,-138.98 460.19,-149.25 466.02,-145.39"/>
<text text-anchor="middle" x="520" y="-160.8" font-family="Times,serif" font-size="14.00">क्रियाविशेषणम्</text>
</g>
<!-- Node2_1 -->
<g id="node5" class="node">
<title>Node2_1</title>
<ellipse fill="#00bfff" stroke="#00bfff" cx="559" cy="-121" rx="46.59" ry="18"/>
<text text-anchor="middle" x="559" y="-117.3" font-family="Times,serif" font-size="14.00">एतत्(2.1)</text>
</g>
<!-- Node2_1&#45;&gt;Node14_1 -->
<g id="edge2" class="edge">
<title>Node2_1&#45;&gt;Node14_1</title>
<path fill="none" stroke="black" d="M559,-149.27C559,-162.58 559,-178.19 559,-189.82"/>
<polygon fill="black" stroke="black" points="562.5,-149.2 559,-139.2 555.5,-149.2 562.5,-149.2"/>
<text text-anchor="middle" x="570" y="-160.8" font-family="Times,serif" font-size="14.00">कर्ता</text>
</g>
<!-- Node3_1 -->
<g id="node6" class="node">
<title>Node3_1</title>
<ellipse fill="#ffff00" stroke="#ffff00" cx="670" cy="-34" rx="46.59" ry="18"/>
<text text-anchor="middle" x="670" y="-30.3" font-family="Times,serif" font-size="14.00">महा&#45;(3.1)</text>
</g>
<!-- Node3_2 -->
<g id="node7" class="node">
<title>Node3_2</title>
<ellipse fill="#6fffc3" stroke="#6fffc3" cx="670" cy="-121" rx="46.29" ry="18"/>
<text text-anchor="middle" x="670" y="-117.3" font-family="Times,serif" font-size="14.00">बाहो(3.2)</text>
</g>
<!-- Node3_1&#45;&gt;Node3_2 -->
<g id="edge3" class="edge">
<title>Node3_1&#45;&gt;Node3_2</title>
<path fill="none" stroke="black" d="M670,-62.27C670,-75.58 670,-91.19 670,-102.82"/>
<polygon fill="black" stroke="black" points="673.5,-62.2 670,-52.2 666.5,-62.2 673.5,-62.2"/>
<text text-anchor="middle" x="687" y="-73.8" font-family="Times,serif" font-size="14.00">समासः</text>
</g>
<!-- Node3_2&#45;&gt;Node14_1 -->
<g id="edge4" class="edge">
<title>Node3_2&#45;&gt;Node14_1</title>
<path fill="none" stroke="black" d="M641.8,-143.6C622.59,-158.31 597.57,-177.46 580.08,-190.85"/>
<polygon fill="black" stroke="black" points="644.09,-146.25 649.9,-137.39 639.83,-140.69 644.09,-146.25"/>
<text text-anchor="middle" x="642" y="-160.8" font-family="Times,serif" font-size="14.00">सम्बोध्यः</text>
</g>
<!-- Node4_1 -->
<g id="node8" class="node">
<title>Node4_1</title>
<ellipse fill="#ff99ff" stroke="#ff99ff" cx="780" cy="-34" rx="44.69" ry="18"/>
<text text-anchor="middle" x="780" y="-30.3" font-family="Times,serif" font-size="14.00">यथा(4.1)</text>
</g>
<!-- Node5_1 -->
<g id="node9" class="node">
<title>Node5_1</title>
<ellipse fill="#ff1975" stroke="#ff1975" cx="840" cy="-121" rx="49.29" ry="18"/>
<text text-anchor="middle" x="840" y="-117.3" font-family="Times,serif" font-size="14.00">वदसि(5.1)</text>
</g>
<!-- Node4_1&#45;&gt;Node5_1 -->
<g id="edge5" class="edge">
<title>Node4_1&#45;&gt;Node5_1</title>
<path fill="none" stroke="black" d="M781.69,-62.55C783.15,-70.28 785.67,-78.38 790,-85 795.56,-93.52 803.99,-100.57 812.34,-106.05"/>
<polygon fill="black" stroke="black" points="785.13,-61.85 780.31,-52.41 778.19,-62.79 785.13,-61.85"/>
<text text-anchor="middle" x="825" y="-73.8" font-family="Times,serif" font-size="14.00">क्रियाविशेषणम्</text>
</g>
<!-- Node6_1 -->
<g id="node10" class="node">
<title>Node6_1</title>
<ellipse fill="#6fffc3" stroke="#6fffc3" cx="895" cy="-34" rx="52.79" ry="18"/>
<text text-anchor="middle" x="895" y="-30.3" font-family="Times,serif" font-size="14.00">पाण्डव(6.1)</text>
</g>
<!-- Node6_1&#45;&gt;Node5_1 -->
<g id="edge6" class="edge">
<title>Node6_1&#45;&gt;Node5_1</title>
<path fill="none" stroke="black" d="M878.56,-60.4C869.6,-74.26 858.75,-91.03 850.84,-103.24"/>
<polygon fill="black" stroke="black" points="881.64,-62.09 884.13,-51.79 875.76,-58.29 881.64,-62.09"/>
<text text-anchor="middle" x="891" y="-73.8" font-family="Times,serif" font-size="14.00">सम्बोध्यः</text>
</g>
<!-- Node7_1 -->
<g id="node12" class="node">
<title>Node7_1</title>
<ellipse fill="#00bfff" stroke="#00bfff" cx="258" cy="-295" rx="48.19" ry="18"/>
<text text-anchor="middle" x="258" y="-291.3" font-family="Times,serif" font-size="14.00">कृतम्(7.1)</text>
</g>
<!-- Node8_1&#45;&gt;Node7_1 -->
<g id="edge7" class="edge">
<title>Node8_1&#45;&gt;Node7_1</title>
<path fill="none" stroke="black" d="M118.42,-227.72C151.93,-243.63 199.24,-266.1 229.27,-280.36"/>
<polygon fill="black" stroke="black" points="119.9,-224.55 109.36,-223.42 116.9,-230.87 119.9,-224.55"/>
<text text-anchor="middle" x="189" y="-247.8" font-family="Times,serif" font-size="14.00">कर्म</text>
</g>
<!-- Node9_1 -->
<g id="node13" class="node">
<title>Node9_1</title>
<ellipse fill="#ff99ff" stroke="#ff99ff" cx="201" cy="-208" rx="46.29" ry="18"/>
<text text-anchor="middle" x="201" y="-204.3" font-family="Times,serif" font-size="14.00">पूर्वम्(9.1)</text>
</g>
<!-- Node9_1&#45;&gt;Node7_1 -->
<g id="edge8" class="edge">
<title>Node9_1&#45;&gt;Node7_1</title>
<path fill="none" stroke="black" d="M209.87,-235.61C213.09,-243.48 217.15,-251.89 222,-259 226.72,-265.91 232.96,-272.56 238.92,-278.18"/>
<polygon fill="black" stroke="black" points="213.06,-234.17 206.24,-226.07 206.52,-236.66 213.06,-234.17"/>
<text text-anchor="middle" x="257.5" y="-247.8" font-family="Times,serif" font-size="14.00">कालाधिकरणम्</text>
</g>
<!-- Node10_1 -->
<g id="node14" class="node">
<title>Node10_1</title>
<ellipse fill="#40e0d0" stroke="#40e0d0" cx="315" cy="-208" rx="50.09" ry="18"/>
<text text-anchor="middle" x="315" y="-204.3" font-family="Times,serif" font-size="14.00">मया(10.1)</text>
</g>
<!-- Node10_1&#45;&gt;Node7_1 -->
<g id="edge9" class="edge">
<title>Node10_1&#45;&gt;Node7_1</title>
<path fill="none" stroke="black" d="M305.48,-235.56C302.1,-243.43 297.89,-251.85 293,-259 288.34,-265.81 282.26,-272.43 276.47,-278.05"/>
<polygon fill="black" stroke="black" points="308.83,-236.6 309.32,-226.02 302.34,-233.99 308.83,-236.6"/>
<text text-anchor="middle" x="313" y="-247.8" font-family="Times,serif" font-size="14.00">कर्ता</text>
</g>
<!-- Node13_1 -->
<g id="node15" class="node">
<title>Node13_1</title>
<ellipse fill="#6fffc3" stroke="#6fffc3" cx="431" cy="-208" rx="48.19" ry="18"/>
<text text-anchor="middle" x="431" y="-204.3" font-family="Times,serif" font-size="14.00">नृप(13.1)</text>
</g>
<!-- Node13_1&#45;&gt;Node7_1 -->
<g id="edge12" class="edge">
<title>Node13_1&#45;&gt;Node7_1</title>
<path fill="none" stroke="black" d="M393.66,-227.35C361.28,-243.26 315.13,-265.93 285.88,-280.3"/>
<polygon fill="black" stroke="black" points="395.39,-230.4 402.82,-222.85 392.3,-224.11 395.39,-230.4"/>
<text text-anchor="middle" x="375" y="-247.8" font-family="Times,serif" font-size="14.00">सम्बोध्यः</text>
</g>
</g>
</svg>
