<?xml version="1.0" encoding="UTF-8" standalone="no"?>
<!DOCTYPE svg PUBLIC "-//W3C//DTD SVG 1.1//EN"
 "http://www.w3.org/Graphics/SVG/1.1/DTD/svg11.dtd">
<!-- Generated by graphviz version 2.43.0 (0)
 -->
<!-- Title: G Pages: 1 -->
<svg width="436pt" height="479pt"
 viewBox="0.00 0.00 435.90 479.00" xmlns="http://www.w3.org/2000/svg" xmlns:xlink="http://www.w3.org/1999/xlink">
<g id="graph0" class="graph" transform="scale(1 1) rotate(0) translate(4 475)">
<title>G</title>
<polygon fill="#fffacd" stroke="transparent" points="-4,4 -4,-475 431.9,-475 431.9,4 -4,4"/>
<g id="clust1" class="cluster">
<title>cluster_1</title>
<polygon fill="#fffacd" stroke="black" points="121.9,-166 121.9,-305 419.9,-305 419.9,-166 121.9,-166"/>
</g>
<!-- Node2_1 -->
<g id="node1" class="node">
<title>Node2_1</title>
<ellipse fill="#87ceeb" stroke="#87ceeb" cx="193.9" cy="-192" rx="63.89" ry="18"/>
<text text-anchor="middle" x="193.9" y="-188.3" font-family="Times,serif" font-size="14.00">पतितानाम्(2.1)</text>
</g>
<!-- Node1_3 -->
<g id="node2" class="node">
<title>Node1_3</title>
<ellipse fill="#87ceeb" stroke="#87ceeb" cx="193.9" cy="-279" rx="61.99" ry="18"/>
<text text-anchor="middle" x="193.9" y="-275.3" font-family="Times,serif" font-size="14.00">राज्यानाम्(1.3)</text>
</g>
<!-- Node2_1&#45;&gt;Node1_3 -->
<g id="edge4" class="edge">
<title>Node2_1&#45;&gt;Node1_3</title>
<path fill="none" stroke="black" d="M193.9,-220.27C193.9,-233.58 193.9,-249.19 193.9,-260.82"/>
<polygon fill="black" stroke="black" points="197.4,-220.2 193.9,-210.2 190.4,-220.2 197.4,-220.2"/>
<text text-anchor="middle" x="216.4" y="-231.8" font-family="Times,serif" font-size="14.00">विशेषणम्</text>
</g>
<!-- Node8_1 -->
<g id="node6" class="node">
<title>Node8_1</title>
<ellipse fill="#00bfff" stroke="#00bfff" cx="193.9" cy="-366" rx="57.69" ry="18"/>
<text text-anchor="middle" x="193.9" y="-362.3" font-family="Times,serif" font-size="14.00">उद्धर्षणम्(8.1)</text>
</g>
<!-- Node1_3&#45;&gt;Node8_1 -->
<g id="edge3" class="edge">
<title>Node1_3&#45;&gt;Node8_1</title>
<path fill="none" stroke="black" d="M193.9,-307.27C193.9,-320.58 193.9,-336.19 193.9,-347.82"/>
<polygon fill="black" stroke="black" points="197.4,-307.2 193.9,-297.2 190.4,-307.2 197.4,-307.2"/>
<text text-anchor="middle" x="221.4" y="-318.8" font-family="Times,serif" font-size="14.00">षष्ठीसम्बन्धः</text>
</g>
<!-- Node6_1 -->
<g id="node3" class="node">
<title>Node6_1</title>
<ellipse fill="#87ceeb" stroke="#87ceeb" cx="343.9" cy="-192" rx="68.49" ry="18"/>
<text text-anchor="middle" x="343.9" y="-188.3" font-family="Times,serif" font-size="14.00">परिभूतानाम्(6.1)</text>
</g>
<!-- Node6_1&#45;&gt;Node1_3 -->
<g id="edge8" class="edge">
<title>Node6_1&#45;&gt;Node1_3</title>
<path fill="none" stroke="black" d="M307.36,-213.71C280.69,-228.82 245.13,-248.97 220.98,-262.65"/>
<polygon fill="black" stroke="black" points="309.41,-216.57 316.38,-208.59 305.96,-210.48 309.41,-216.57"/>
<text text-anchor="middle" x="299.4" y="-231.8" font-family="Times,serif" font-size="14.00">विशेषणम्</text>
</g>
<!-- Node1_1 -->
<g id="node4" class="node">
<title>Node1_1</title>
<ellipse fill="#ffff00" stroke="#ffff00" cx="55.9" cy="-105" rx="44.69" ry="18"/>
<text text-anchor="middle" x="55.9" y="-101.3" font-family="Times,serif" font-size="14.00">द्यूत&#45;(1.1)</text>
</g>
<!-- Node1_2 -->
<g id="node5" class="node">
<title>Node1_2</title>
<ellipse fill="#ffff00" stroke="#ffff00" cx="55.9" cy="-192" rx="55.79" ry="18"/>
<text text-anchor="middle" x="55.9" y="-188.3" font-family="Times,serif" font-size="14.00">अपहृत&#45;(1.2)</text>
</g>
<!-- Node1_1&#45;&gt;Node1_2 -->
<g id="edge1" class="edge">
<title>Node1_1&#45;&gt;Node1_2</title>
<path fill="none" stroke="black" d="M55.9,-133.27C55.9,-146.58 55.9,-162.19 55.9,-173.82"/>
<polygon fill="black" stroke="black" points="59.4,-133.2 55.9,-123.2 52.4,-133.2 59.4,-133.2"/>
<text text-anchor="middle" x="72.9" y="-144.8" font-family="Times,serif" font-size="14.00">समासः</text>
</g>
<!-- Node1_2&#45;&gt;Node1_3 -->
<g id="edge2" class="edge">
<title>Node1_2&#45;&gt;Node1_3</title>
<path fill="none" stroke="black" d="M89.15,-213.48C113.55,-228.51 146.18,-248.61 168.5,-262.36"/>
<polygon fill="black" stroke="black" points="90.92,-210.46 80.57,-208.2 87.25,-216.42 90.92,-210.46"/>
<text text-anchor="middle" x="149.9" y="-231.8" font-family="Times,serif" font-size="14.00">समासः</text>
</g>
<!-- Node7_1 -->
<g id="node10" class="node">
<title>Node7_1</title>
<ellipse fill="#00bfff" stroke="#00bfff" cx="95.9" cy="-453" rx="48.19" ry="18"/>
<text text-anchor="middle" x="95.9" y="-449.3" font-family="Times,serif" font-size="14.00">कृतम्(7.1)</text>
</g>
<!-- Node8_1&#45;&gt;Node7_1 -->
<g id="edge9" class="edge">
<title>Node8_1&#45;&gt;Node7_1</title>
<path fill="none" stroke="black" d="M167.13,-390.21C150.28,-404.83 128.97,-423.31 114.07,-436.24"/>
<polygon fill="black" stroke="black" points="169.74,-392.59 175,-383.39 165.15,-387.3 169.74,-392.59"/>
<text text-anchor="middle" x="158.9" y="-405.8" font-family="Times,serif" font-size="14.00">कर्म</text>
</g>
<!-- Node3_1 -->
<g id="node7" class="node">
<title>Node3_1</title>
<ellipse fill="#b4ffb4" stroke="#b4ffb4" cx="193.9" cy="-105" rx="51.99" ry="18"/>
<text text-anchor="middle" x="193.9" y="-101.3" font-family="Times,serif" font-size="14.00">सुखाद्(3.1)</text>
</g>
<!-- Node3_1&#45;&gt;Node2_1 -->
<g id="edge5" class="edge">
<title>Node3_1&#45;&gt;Node2_1</title>
<path fill="none" stroke="black" d="M193.9,-133.27C193.9,-146.58 193.9,-162.19 193.9,-173.82"/>
<polygon fill="black" stroke="black" points="197.4,-133.2 193.9,-123.2 190.4,-133.2 197.4,-133.2"/>
<text text-anchor="middle" x="203.4" y="-144.8" font-family="Times,serif" font-size="14.00">हेतुः</text>
</g>
<!-- Node4_1 -->
<g id="node8" class="node">
<title>Node4_1</title>
<ellipse fill="#ff99ff" stroke="#ff99ff" cx="193.9" cy="-18" rx="46.29" ry="18"/>
<text text-anchor="middle" x="193.9" y="-14.3" font-family="Times,serif" font-size="14.00">अपि(4.1)</text>
</g>
<!-- Node4_1&#45;&gt;Node3_1 -->
<g id="edge6" class="edge">
<title>Node4_1&#45;&gt;Node3_1</title>
<path fill="none" stroke="black" d="M193.9,-46.27C193.9,-59.58 193.9,-75.19 193.9,-86.82"/>
<polygon fill="black" stroke="black" points="197.4,-46.2 193.9,-36.2 190.4,-46.2 197.4,-46.2"/>
<text text-anchor="middle" x="212.4" y="-57.8" font-family="Times,serif" font-size="14.00">सम्बन्धः</text>
</g>
<!-- Node5_1 -->
<g id="node9" class="node">
<title>Node5_1</title>
<ellipse fill="#40e0d0" stroke="#40e0d0" cx="343.9" cy="-105" rx="57.69" ry="18"/>
<text text-anchor="middle" x="343.9" y="-101.3" font-family="Times,serif" font-size="14.00">ज्ञातिभिः(5.1)</text>
</g>
<!-- Node5_1&#45;&gt;Node6_1 -->
<g id="edge7" class="edge">
<title>Node5_1&#45;&gt;Node6_1</title>
<path fill="none" stroke="black" d="M343.9,-133.27C343.9,-146.58 343.9,-162.19 343.9,-173.82"/>
<polygon fill="black" stroke="black" points="347.4,-133.2 343.9,-123.2 340.4,-133.2 347.4,-133.2"/>
<text text-anchor="middle" x="354.9" y="-144.8" font-family="Times,serif" font-size="14.00">कर्ता</text>
</g>
<!-- Node9_1 -->
<g id="node11" class="node">
<title>Node9_1</title>
<ellipse fill="#40e0d0" stroke="#40e0d0" cx="73.9" cy="-366" rx="44.39" ry="18"/>
<text text-anchor="middle" x="73.9" y="-362.3" font-family="Times,serif" font-size="14.00">मया(9.1)</text>
</g>
<!-- Node9_1&#45;&gt;Node7_1 -->
<g id="edge10" class="edge">
<title>Node9_1&#45;&gt;Node7_1</title>
<path fill="none" stroke="black" d="M80.95,-394.27C84.4,-407.58 88.44,-423.19 91.45,-434.82"/>
<polygon fill="black" stroke="black" points="84.24,-393.01 78.35,-384.2 77.46,-394.76 84.24,-393.01"/>
<text text-anchor="middle" x="97.9" y="-405.8" font-family="Times,serif" font-size="14.00">कर्ता</text>
</g>
</g>
</svg>
