<?xml version="1.0" encoding="UTF-8" standalone="no"?>
<!DOCTYPE svg PUBLIC "-//W3C//DTD SVG 1.1//EN"
 "http://www.w3.org/Graphics/SVG/1.1/DTD/svg11.dtd">
<!-- Generated by graphviz version 2.43.0 (0)
 -->
<!-- Title: G Pages: 1 -->
<svg width="1021pt" height="392pt"
 viewBox="0.00 0.00 1020.69 392.00" xmlns="http://www.w3.org/2000/svg" xmlns:xlink="http://www.w3.org/1999/xlink">
<g id="graph0" class="graph" transform="scale(1 1) rotate(0) translate(4 388)">
<title>G</title>
<polygon fill="#fffacd" stroke="transparent" points="-4,4 -4,-388 1016.69,-388 1016.69,4 -4,4"/>
<g id="clust1" class="cluster">
<title>cluster_1</title>
<polygon fill="#fffacd" stroke="black" points="225.65,-166 225.65,-305 575.65,-305 575.65,-166 225.65,-166"/>
</g>
<!-- Node2_2 -->
<g id="node1" class="node">
<title>Node2_2</title>
<ellipse fill="#00bfff" stroke="#00bfff" cx="281.65" cy="-192" rx="48.19" ry="18"/>
<text text-anchor="middle" x="281.65" y="-188.3" font-family="Times,serif" font-size="14.00">समाः(2.2)</text>
</g>
<!-- Node1_1 -->
<g id="node2" class="node">
<title>Node1_1</title>
<ellipse fill="#00bfff" stroke="#00bfff" cx="281.65" cy="-279" rx="46.59" ry="18"/>
<text text-anchor="middle" x="281.65" y="-275.3" font-family="Times,serif" font-size="14.00">यूयम्(1.1)</text>
</g>
<!-- Node2_2&#45;&gt;Node1_1 -->
<g id="edge3" class="edge">
<title>Node2_2&#45;&gt;Node1_1</title>
<path fill="none" stroke="black" d="M281.65,-220.27C281.65,-233.58 281.65,-249.19 281.65,-260.82"/>
<polygon fill="black" stroke="black" points="285.15,-220.2 281.65,-210.2 278.15,-220.2 285.15,-220.2"/>
<text text-anchor="middle" x="304.15" y="-231.8" font-family="Times,serif" font-size="14.00">विशेषणम्</text>
</g>
<!-- Node8_1 -->
<g id="node5" class="node">
<title>Node8_1</title>
<ellipse fill="#ff1975" stroke="#ff1975" cx="208.65" cy="-366" rx="40.89" ry="18"/>
<text text-anchor="middle" x="208.65" y="-362.3" font-family="Times,serif" font-size="14.00">स्थ(8.1)</text>
</g>
<!-- Node1_1&#45;&gt;Node8_1 -->
<g id="edge1" class="edge">
<title>Node1_1&#45;&gt;Node8_1</title>
<path fill="none" stroke="black" d="M260.72,-304.36C248.43,-318.68 233.23,-336.38 222.43,-348.95"/>
<polygon fill="black" stroke="black" points="263.71,-306.26 267.57,-296.39 258.4,-301.69 263.71,-306.26"/>
<text text-anchor="middle" x="259.65" y="-318.8" font-family="Times,serif" font-size="14.00">कर्ता</text>
</g>
<!-- Node3_1 -->
<g id="node3" class="node">
<title>Node3_1</title>
<ellipse fill="#00bfff" stroke="#00bfff" cx="389.65" cy="-192" rx="42.49" ry="18"/>
<text text-anchor="middle" x="389.65" y="-188.3" font-family="Times,serif" font-size="14.00">सर्वे(3.1)</text>
</g>
<!-- Node3_1&#45;&gt;Node1_1 -->
<g id="edge4" class="edge">
<title>Node3_1&#45;&gt;Node1_1</title>
<path fill="none" stroke="black" d="M364.33,-215.25C354.04,-224.08 341.93,-234.21 330.65,-243 321.9,-249.81 312,-256.98 303.39,-263.05"/>
<polygon fill="black" stroke="black" points="366.87,-217.68 372.15,-208.49 362.29,-212.38 366.87,-217.68"/>
<text text-anchor="middle" x="371.15" y="-231.8" font-family="Times,serif" font-size="14.00">विशेषणम्</text>
</g>
<!-- Node4_3 -->
<g id="node4" class="node">
<title>Node4_3</title>
<ellipse fill="#00bfff" stroke="#00bfff" cx="508.65" cy="-192" rx="59.29" ry="18"/>
<text text-anchor="middle" x="508.65" y="-188.3" font-family="Times,serif" font-size="14.00">पराक्रमाः(4.3)</text>
</g>
<!-- Node4_3&#45;&gt;Node1_1 -->
<g id="edge7" class="edge">
<title>Node4_3&#45;&gt;Node1_1</title>
<path fill="none" stroke="black" d="M469.68,-212.05C448.63,-221.96 422.02,-233.88 397.65,-243 371.74,-252.7 341.84,-261.67 318.88,-268.1"/>
<polygon fill="black" stroke="black" points="471.4,-215.11 478.94,-207.66 468.4,-208.78 471.4,-215.11"/>
<text text-anchor="middle" x="454.15" y="-231.8" font-family="Times,serif" font-size="14.00">विशेषणम्</text>
</g>
<!-- Node2_1 -->
<g id="node6" class="node">
<title>Node2_1</title>
<ellipse fill="#ffff00" stroke="#ffff00" cx="281.65" cy="-105" rx="46.29" ry="18"/>
<text text-anchor="middle" x="281.65" y="-101.3" font-family="Times,serif" font-size="14.00">इन्द्र&#45;(2.1)</text>
</g>
<!-- Node2_1&#45;&gt;Node2_2 -->
<g id="edge2" class="edge">
<title>Node2_1&#45;&gt;Node2_2</title>
<path fill="none" stroke="black" d="M281.65,-133.27C281.65,-146.58 281.65,-162.19 281.65,-173.82"/>
<polygon fill="black" stroke="black" points="285.15,-133.2 281.65,-123.2 278.15,-133.2 285.15,-133.2"/>
<text text-anchor="middle" x="298.65" y="-144.8" font-family="Times,serif" font-size="14.00">समासः</text>
</g>
<!-- Node4_1 -->
<g id="node7" class="node">
<title>Node4_1</title>
<ellipse fill="#ffff00" stroke="#ffff00" cx="508.65" cy="-18" rx="44.39" ry="18"/>
<text text-anchor="middle" x="508.65" y="-14.3" font-family="Times,serif" font-size="14.00">देव&#45;(4.1)</text>
</g>
<!-- Node4_2 -->
<g id="node8" class="node">
<title>Node4_2</title>
<ellipse fill="#ffff00" stroke="#ffff00" cx="508.65" cy="-105" rx="49.29" ry="18"/>
<text text-anchor="middle" x="508.65" y="-101.3" font-family="Times,serif" font-size="14.00">तुल्य&#45;(4.2)</text>
</g>
<!-- Node4_1&#45;&gt;Node4_2 -->
<g id="edge5" class="edge">
<title>Node4_1&#45;&gt;Node4_2</title>
<path fill="none" stroke="black" d="M508.65,-46.27C508.65,-59.58 508.65,-75.19 508.65,-86.82"/>
<polygon fill="black" stroke="black" points="512.15,-46.2 508.65,-36.2 505.15,-46.2 512.15,-46.2"/>
<text text-anchor="middle" x="525.65" y="-57.8" font-family="Times,serif" font-size="14.00">समासः</text>
</g>
<!-- Node4_2&#45;&gt;Node4_3 -->
<g id="edge6" class="edge">
<title>Node4_2&#45;&gt;Node4_3</title>
<path fill="none" stroke="black" d="M508.65,-133.27C508.65,-146.58 508.65,-162.19 508.65,-173.82"/>
<polygon fill="black" stroke="black" points="512.15,-133.2 508.65,-123.2 505.15,-133.2 512.15,-133.2"/>
<text text-anchor="middle" x="525.65" y="-144.8" font-family="Times,serif" font-size="14.00">समासः</text>
</g>
<!-- Node5_1 -->
<g id="node9" class="node">
<title>Node5_1</title>
<ellipse fill="#ff99ff" stroke="#ff99ff" cx="177.65" cy="-279" rx="39.79" ry="18"/>
<text text-anchor="middle" x="177.65" y="-275.3" font-family="Times,serif" font-size="14.00">मा(5.1)</text>
</g>
<!-- Node5_1&#45;&gt;Node8_1 -->
<g id="edge8" class="edge">
<title>Node5_1&#45;&gt;Node8_1</title>
<path fill="none" stroke="black" d="M187.32,-306.53C192.25,-320.05 198.1,-336.09 202.43,-347.95"/>
<polygon fill="black" stroke="black" points="190.48,-304.99 183.77,-296.79 183.91,-307.39 190.48,-304.99"/>
<text text-anchor="middle" x="215.15" y="-318.8" font-family="Times,serif" font-size="14.00">प्रतिषेधः</text>
</g>
<!-- Node6_1 -->
<g id="node10" class="node">
<title>Node6_1</title>
<ellipse fill="#87ceeb" stroke="#87ceeb" cx="52.65" cy="-105" rx="52.79" ry="18"/>
<text text-anchor="middle" x="52.65" y="-101.3" font-family="Times,serif" font-size="14.00">परेषाम्(6.1)</text>
</g>
<!-- Node7_2 -->
<g id="node11" class="node">
<title>Node7_2</title>
<ellipse fill="#00bfff" stroke="#00bfff" cx="167.65" cy="-192" rx="48.19" ry="18"/>
<text text-anchor="middle" x="167.65" y="-188.3" font-family="Times,serif" font-size="14.00">प्रेक्षाः(7.2)</text>
</g>
<!-- Node6_1&#45;&gt;Node7_2 -->
<g id="edge9" class="edge">
<title>Node6_1&#45;&gt;Node7_2</title>
<path fill="none" stroke="black" d="M76.89,-128.96C86.73,-137.82 98.41,-147.78 109.65,-156 119.8,-163.43 131.6,-170.76 141.9,-176.78"/>
<polygon fill="black" stroke="black" points="79.18,-126.31 69.44,-122.15 74.46,-131.48 79.18,-126.31"/>
<text text-anchor="middle" x="137.15" y="-144.8" font-family="Times,serif" font-size="14.00">षष्ठीसम्बन्धः</text>
</g>
<!-- Node7_2&#45;&gt;Node1_1 -->
<g id="edge11" class="edge">
<title>Node7_2&#45;&gt;Node1_1</title>
<path fill="none" stroke="black" d="M180.29,-219.07C185.39,-227.54 191.9,-236.45 199.65,-243 212.76,-254.1 229.92,-262.16 245.15,-267.72"/>
<polygon fill="black" stroke="black" points="183.26,-217.2 175.34,-210.16 177.15,-220.6 183.26,-217.2"/>
<text text-anchor="middle" x="238.65" y="-231.8" font-family="Times,serif" font-size="14.00">विधेय_विशेषणम्</text>
</g>
<!-- Node7_1 -->
<g id="node12" class="node">
<title>Node7_1</title>
<ellipse fill="#ffff00" stroke="#ffff00" cx="169.65" cy="-105" rx="46.59" ry="18"/>
<text text-anchor="middle" x="169.65" y="-101.3" font-family="Times,serif" font-size="14.00">मुख&#45;(7.1)</text>
</g>
<!-- Node7_1&#45;&gt;Node7_2 -->
<g id="edge10" class="edge">
<title>Node7_1&#45;&gt;Node7_2</title>
<path fill="none" stroke="black" d="M169,-133.27C168.69,-146.58 168.32,-162.19 168.05,-173.82"/>
<polygon fill="black" stroke="black" points="172.5,-133.28 169.24,-123.2 165.51,-133.12 172.5,-133.28"/>
<text text-anchor="middle" x="186.65" y="-144.8" font-family="Times,serif" font-size="14.00">समासः</text>
</g>
<!-- Node9_1 -->
<g id="node13" class="node">
<title>Node9_1</title>
<ellipse fill="#ff99ff" stroke="#ff99ff" cx="614.65" cy="-18" rx="44.39" ry="18"/>
<text text-anchor="middle" x="614.65" y="-14.3" font-family="Times,serif" font-size="14.00">इति(9.1)</text>
</g>
<!-- Node12_1 -->
<g id="node14" class="node">
<title>Node12_1</title>
<ellipse fill="#93db70" stroke="#93db70" cx="787.65" cy="-105" rx="53.89" ry="18"/>
<text text-anchor="middle" x="787.65" y="-101.3" font-family="Times,serif" font-size="14.00">कृतम्(12.1)</text>
</g>
<!-- Node9_1&#45;&gt;Node12_1 -->
<g id="edge12" class="edge">
<title>Node9_1&#45;&gt;Node12_1</title>
<path fill="none" stroke="black" d="M647.2,-38.5C663.84,-48.15 684.56,-59.7 703.65,-69 719.84,-76.89 738.27,-84.69 753.73,-90.92"/>
<polygon fill="black" stroke="black" points="648.81,-35.39 638.41,-33.36 645.28,-41.43 648.81,-35.39"/>
<text text-anchor="middle" x="722.15" y="-57.8" font-family="Times,serif" font-size="14.00">सम्बन्धः</text>
</g>
<!-- Node10_1 -->
<g id="node15" class="node">
<title>Node10_1</title>
<ellipse fill="#ff99ff" stroke="#ff99ff" cx="728.65" cy="-18" rx="51.99" ry="18"/>
<text text-anchor="middle" x="728.65" y="-14.3" font-family="Times,serif" font-size="14.00">एवम्(10.1)</text>
</g>
<!-- Node10_1&#45;&gt;Node12_1 -->
<g id="edge13" class="edge">
<title>Node10_1&#45;&gt;Node12_1</title>
<path fill="none" stroke="black" d="M740.38,-44.86C744.46,-52.87 749.35,-61.55 754.65,-69 759.29,-75.54 765.09,-82.09 770.53,-87.73"/>
<polygon fill="black" stroke="black" points="743.52,-43.33 735.99,-35.88 737.23,-46.4 743.52,-43.33"/>
<text text-anchor="middle" x="789.65" y="-57.8" font-family="Times,serif" font-size="14.00">क्रियाविशेषणम्</text>
</g>
<!-- Node11_1 -->
<g id="node16" class="node">
<title>Node11_1</title>
<ellipse fill="#00bfff" stroke="#00bfff" cx="846.65" cy="-18" rx="48.19" ry="18"/>
<text text-anchor="middle" x="846.65" y="-14.3" font-family="Times,serif" font-size="14.00">तत्(11.1)</text>
</g>
<!-- Node11_1&#45;&gt;Node12_1 -->
<g id="edge14" class="edge">
<title>Node11_1&#45;&gt;Node12_1</title>
<path fill="none" stroke="black" d="M837.25,-45.64C833.87,-53.51 829.64,-61.91 824.65,-69 819.76,-75.94 813.33,-82.6 807.21,-88.21"/>
<polygon fill="black" stroke="black" points="840.6,-46.67 841.06,-36.09 834.1,-44.08 840.6,-46.67"/>
<text text-anchor="middle" x="841.65" y="-57.8" font-family="Times,serif" font-size="14.00">कर्म</text>
</g>
<!-- Node13_1 -->
<g id="node17" class="node">
<title>Node13_1</title>
<ellipse fill="#40e0d0" stroke="#40e0d0" cx="962.65" cy="-18" rx="50.09" ry="18"/>
<text text-anchor="middle" x="962.65" y="-14.3" font-family="Times,serif" font-size="14.00">मया(13.1)</text>
</g>
<!-- Node13_1&#45;&gt;Node12_1 -->
<g id="edge15" class="edge">
<title>Node13_1&#45;&gt;Node12_1</title>
<path fill="none" stroke="black" d="M924.99,-37.29C892.65,-53 846.69,-75.32 817.02,-89.73"/>
<polygon fill="black" stroke="black" points="926.67,-40.36 934.14,-32.85 923.61,-34.07 926.67,-40.36"/>
<text text-anchor="middle" x="895.65" y="-57.8" font-family="Times,serif" font-size="14.00">कर्ता</text>
</g>
</g>
</svg>
