<?xml version="1.0" encoding="UTF-8" standalone="no"?>
<!DOCTYPE svg PUBLIC "-//W3C//DTD SVG 1.1//EN"
 "http://www.w3.org/Graphics/SVG/1.1/DTD/svg11.dtd">
<!-- Generated by graphviz version 2.43.0 (0)
 -->
<!-- Title: G Pages: 1 -->
<svg width="889pt" height="234pt"
 viewBox="0.00 0.00 889.00 234.00" xmlns="http://www.w3.org/2000/svg" xmlns:xlink="http://www.w3.org/1999/xlink">
<g id="graph0" class="graph" transform="scale(1 1) rotate(0) translate(4 230)">
<title>G</title>
<polygon fill="#fffacd" stroke="transparent" points="-4,4 -4,-230 885,-230 885,4 -4,4"/>
<g id="clust1" class="cluster">
<title>cluster_1</title>
<polygon fill="#fffacd" stroke="black" points="8,-8 8,-147 134,-147 134,-8 8,-8"/>
</g>
<!-- Node11_1 -->
<g id="node1" class="node">
<title>Node11_1</title>
<ellipse fill="#00bfff" stroke="#00bfff" cx="71" cy="-34" rx="51.99" ry="18"/>
<text text-anchor="middle" x="71" y="-30.3" font-family="Times,serif" font-size="14.00">इदम्(11.1)</text>
</g>
<!-- Node12_1 -->
<g id="node2" class="node">
<title>Node12_1</title>
<ellipse fill="#00bfff" stroke="#00bfff" cx="71" cy="-121" rx="55.49" ry="18"/>
<text text-anchor="middle" x="71" y="-117.3" font-family="Times,serif" font-size="14.00">कुलम्(12.1)</text>
</g>
<!-- Node11_1&#45;&gt;Node12_1 -->
<g id="edge9" class="edge">
<title>Node11_1&#45;&gt;Node12_1</title>
<path fill="none" stroke="black" d="M71,-62.27C71,-75.58 71,-91.19 71,-102.82"/>
<polygon fill="black" stroke="black" points="74.5,-62.2 71,-52.2 67.5,-62.2 74.5,-62.2"/>
<text text-anchor="middle" x="93.5" y="-73.8" font-family="Times,serif" font-size="14.00">विशेषणम्</text>
</g>
<!-- Node10_1 -->
<g id="node12" class="node">
<title>Node10_1</title>
<ellipse fill="#00bfff" stroke="#00bfff" cx="172" cy="-208" rx="64.19" ry="18"/>
<text text-anchor="middle" x="172" y="-204.3" font-family="Times,serif" font-size="14.00">पराभूतम्(10.1)</text>
</g>
<!-- Node12_1&#45;&gt;Node10_1 -->
<g id="edge10" class="edge">
<title>Node12_1&#45;&gt;Node10_1</title>
<path fill="none" stroke="black" d="M98.04,-144.76C115.3,-159.28 137.25,-177.76 152.74,-190.79"/>
<polygon fill="black" stroke="black" points="99.9,-141.75 90,-137.99 95.39,-147.1 99.9,-141.75"/>
<text text-anchor="middle" x="137" y="-160.8" font-family="Times,serif" font-size="14.00">कर्म</text>
</g>
<!-- Node1_1 -->
<g id="node3" class="node">
<title>Node1_1</title>
<ellipse fill="#00bfff" stroke="#00bfff" cx="425" cy="-121" rx="60.39" ry="18"/>
<text text-anchor="middle" x="425" y="-117.3" font-family="Times,serif" font-size="14.00">दुःशासनः(1.1)</text>
</g>
<!-- Node5_1 -->
<g id="node4" class="node">
<title>Node5_1</title>
<ellipse fill="#ff1975" stroke="#ff1975" cx="492" cy="-208" rx="57.69" ry="18"/>
<text text-anchor="middle" x="492" y="-204.3" font-family="Times,serif" font-size="14.00">पर्यकर्षत(5.1)</text>
</g>
<!-- Node1_1&#45;&gt;Node5_1 -->
<g id="edge1" class="edge">
<title>Node1_1&#45;&gt;Node5_1</title>
<path fill="none" stroke="black" d="M444.71,-147.01C455.69,-160.94 469.07,-177.91 478.79,-190.24"/>
<polygon fill="black" stroke="black" points="447.18,-144.48 438.24,-138.79 441.68,-148.81 447.18,-144.48"/>
<text text-anchor="middle" x="473" y="-160.8" font-family="Times,serif" font-size="14.00">कर्ता</text>
</g>
<!-- Node2_1 -->
<g id="node5" class="node">
<title>Node2_1</title>
<ellipse fill="#ff99ff" stroke="#ff99ff" cx="302" cy="-121" rx="44.39" ry="18"/>
<text text-anchor="middle" x="302" y="-117.3" font-family="Times,serif" font-size="14.00">यदा(2.1)</text>
</g>
<!-- Node2_1&#45;&gt;Node5_1 -->
<g id="edge2" class="edge">
<title>Node2_1&#45;&gt;Node5_1</title>
<path fill="none" stroke="black" d="M330.3,-143.07C344.4,-152.85 362.03,-164.05 379,-172 400.85,-182.24 426.45,-190.45 447.75,-196.34"/>
<polygon fill="black" stroke="black" points="332.2,-140.12 322.02,-137.2 328.15,-145.84 332.2,-140.12"/>
<text text-anchor="middle" x="414.5" y="-160.8" font-family="Times,serif" font-size="14.00">कालाधिकरणम्</text>
</g>
<!-- Node6_1 -->
<g id="node6" class="node">
<title>Node6_1</title>
<ellipse fill="#ff99ff" stroke="#ff99ff" cx="810" cy="-121" rx="44.39" ry="18"/>
<text text-anchor="middle" x="810" y="-117.3" font-family="Times,serif" font-size="14.00">तदा(6.1)</text>
</g>
<!-- Node2_1&#45;&gt;Node6_1 -->
<g id="edge3" class="edge">
<title>Node2_1&#45;&gt;Node6_1</title>
<path fill="none" stroke="red" stroke-dasharray="5,2" d="M344.94,-106.02C348.66,-104.93 352.38,-103.9 356,-103 428.81,-84.86 447.72,-81.24 522.5,-75 627.1,-66.27 655.21,-77.39 757,-103 760.4,-103.86 763.9,-104.83 767.39,-105.87"/>
<polygon fill="red" stroke="red" points="343.7,-102.74 335.18,-109.04 345.76,-109.43 343.7,-102.74"/>
<polygon fill="red" stroke="red" points="766.58,-109.28 777.17,-108.93 768.67,-102.6 766.58,-109.28"/>
<text text-anchor="middle" x="556" y="-73.8" font-family="Times,serif" font-size="14.00">नित्य_सम्बन्धः</text>
</g>
<!-- Node8_1 -->
<g id="node9" class="node">
<title>Node8_1</title>
<ellipse fill="#00bfff" stroke="#00bfff" cx="810" cy="-208" rx="55.79" ry="18"/>
<text text-anchor="middle" x="810" y="-204.3" font-family="Times,serif" font-size="14.00">विदितम्(8.1)</text>
</g>
<!-- Node6_1&#45;&gt;Node8_1 -->
<g id="edge6" class="edge">
<title>Node6_1&#45;&gt;Node8_1</title>
<path fill="none" stroke="black" d="M810,-149.27C810,-162.58 810,-178.19 810,-189.82"/>
<polygon fill="black" stroke="black" points="813.5,-149.2 810,-139.2 806.5,-149.2 813.5,-149.2"/>
<text text-anchor="middle" x="845.5" y="-160.8" font-family="Times,serif" font-size="14.00">कालाधिकरणम्</text>
</g>
<!-- Node3_1 -->
<g id="node7" class="node">
<title>Node3_1</title>
<ellipse fill="#b4ffb4" stroke="#b4ffb4" cx="560" cy="-121" rx="56.59" ry="18"/>
<text text-anchor="middle" x="560" y="-117.3" font-family="Times,serif" font-size="14.00">मौढ्यात्(3.1)</text>
</g>
<!-- Node3_1&#45;&gt;Node5_1 -->
<g id="edge4" class="edge">
<title>Node3_1&#45;&gt;Node5_1</title>
<path fill="none" stroke="black" d="M540.31,-146.61C529.11,-160.62 515.37,-177.79 505.41,-190.24"/>
<polygon fill="black" stroke="black" points="543.05,-148.79 546.57,-138.79 537.59,-144.42 543.05,-148.79"/>
<text text-anchor="middle" x="539.5" y="-160.8" font-family="Times,serif" font-size="14.00">हेतुः</text>
</g>
<!-- Node4_1 -->
<g id="node8" class="node">
<title>Node4_1</title>
<ellipse fill="#ff99ff" stroke="#ff99ff" cx="691" cy="-121" rx="56.59" ry="18"/>
<text text-anchor="middle" x="691" y="-117.3" font-family="Times,serif" font-size="14.00">दासीवत्(4.1)</text>
</g>
<!-- Node4_1&#45;&gt;Node5_1 -->
<g id="edge5" class="edge">
<title>Node4_1&#45;&gt;Node5_1</title>
<path fill="none" stroke="black" d="M649.06,-139.91C612.01,-155.74 558.72,-178.5 524.73,-193.02"/>
<polygon fill="black" stroke="black" points="650.76,-142.99 658.58,-135.85 648.01,-136.56 650.76,-142.99"/>
<text text-anchor="middle" x="638" y="-160.8" font-family="Times,serif" font-size="14.00">क्रियाविशेषणम्</text>
</g>
<!-- Node7_1 -->
<g id="node10" class="node">
<title>Node7_1</title>
<ellipse fill="#ff99ff" stroke="#ff99ff" cx="810" cy="-34" rx="41.69" ry="18"/>
<text text-anchor="middle" x="810" y="-30.3" font-family="Times,serif" font-size="14.00">एव(7.1)</text>
</g>
<!-- Node7_1&#45;&gt;Node6_1 -->
<g id="edge7" class="edge">
<title>Node7_1&#45;&gt;Node6_1</title>
<path fill="none" stroke="black" d="M810,-62.27C810,-75.58 810,-91.19 810,-102.82"/>
<polygon fill="black" stroke="black" points="813.5,-62.2 810,-52.2 806.5,-62.2 813.5,-62.2"/>
<text text-anchor="middle" x="828.5" y="-73.8" font-family="Times,serif" font-size="14.00">सम्बन्धः</text>
</g>
<!-- Node9_1 -->
<g id="node11" class="node">
<title>Node9_1</title>
<ellipse fill="#b0e2ff" stroke="#b0e2ff" cx="192" cy="-121" rx="48.19" ry="18"/>
<text text-anchor="middle" x="192" y="-117.3" font-family="Times,serif" font-size="14.00">मह्यम्(9.1)</text>
</g>
<!-- Node9_1&#45;&gt;Node10_1 -->
<g id="edge8" class="edge">
<title>Node9_1&#45;&gt;Node10_1</title>
<path fill="none" stroke="black" d="M185.58,-149.27C182.45,-162.58 178.78,-178.19 176.04,-189.82"/>
<polygon fill="black" stroke="black" points="189.07,-149.74 187.95,-139.2 182.26,-148.13 189.07,-149.74"/>
<text text-anchor="middle" x="207.5" y="-160.8" font-family="Times,serif" font-size="14.00">सम्प्रदानम्</text>
</g>
</g>
</svg>
