<?xml version="1.0" encoding="UTF-8" standalone="no"?>
<!DOCTYPE svg PUBLIC "-//W3C//DTD SVG 1.1//EN"
 "http://www.w3.org/Graphics/SVG/1.1/DTD/svg11.dtd">
<!-- Generated by graphviz version 2.43.0 (0)
 -->
<!-- Title: G Pages: 1 -->
<svg width="1011pt" height="305pt"
 viewBox="0.00 0.00 1010.69 305.00" xmlns="http://www.w3.org/2000/svg" xmlns:xlink="http://www.w3.org/1999/xlink">
<g id="graph0" class="graph" transform="scale(1 1) rotate(0) translate(4 301)">
<title>G</title>
<polygon fill="#fffacd" stroke="transparent" points="-4,4 -4,-301 1006.69,-301 1006.69,4 -4,4"/>
<g id="clust1" class="cluster">
<title>cluster_1</title>
<polygon fill="#fffacd" stroke="black" points="86,-79 86,-218 196,-218 196,-79 86,-79"/>
</g>
<g id="clust2" class="cluster">
<title>cluster_2</title>
<polygon fill="#fffacd" stroke="black" points="204,-79 204,-218 344,-218 344,-79 204,-79"/>
</g>
<!-- Node3_1 -->
<g id="node1" class="node">
<title>Node3_1</title>
<ellipse fill="#00bfff" stroke="#00bfff" cx="141" cy="-105" rx="44.69" ry="18"/>
<text text-anchor="middle" x="141" y="-101.3" font-family="Times,serif" font-size="14.00">पुत्रः(3.1)</text>
</g>
<!-- Node4_1 -->
<g id="node2" class="node">
<title>Node4_1</title>
<ellipse fill="#00bfff" stroke="#00bfff" cx="141" cy="-192" rx="47.39" ry="18"/>
<text text-anchor="middle" x="141" y="-188.3" font-family="Times,serif" font-size="14.00">पौत्रः(4.1)</text>
</g>
<!-- Node3_1&#45;&gt;Node4_1 -->
<g id="edge3" class="edge">
<title>Node3_1&#45;&gt;Node4_1</title>
<path fill="none" stroke="black" d="M141,-133.27C141,-146.58 141,-162.19 141,-173.82"/>
<polygon fill="black" stroke="black" points="144.5,-133.2 141,-123.2 137.5,-133.2 144.5,-133.2"/>
<text text-anchor="middle" x="160" y="-144.8" font-family="Times,serif" font-size="14.00">अन्यतरः</text>
</g>
<!-- Node16_1 -->
<g id="node6" class="node">
<title>Node16_1</title>
<ellipse fill="#ff1975" stroke="#ff1975" cx="70" cy="-279" rx="61.99" ry="18"/>
<text text-anchor="middle" x="70" y="-275.3" font-family="Times,serif" font-size="14.00">(लभते)(16.1)</text>
</g>
<!-- Node4_1&#45;&gt;Node16_1 -->
<g id="edge4" class="edge">
<title>Node4_1&#45;&gt;Node16_1</title>
<path fill="none" stroke="black" d="M120.74,-217.26C108.94,-231.37 94.38,-248.81 83.89,-261.37"/>
<polygon fill="black" stroke="black" points="123.58,-219.31 127.31,-209.39 118.21,-214.82 123.58,-219.31"/>
<text text-anchor="middle" x="120" y="-231.8" font-family="Times,serif" font-size="14.00">कर्ता</text>
</g>
<!-- Node11_1 -->
<g id="node3" class="node">
<title>Node11_1</title>
<ellipse fill="#93db70" stroke="#93db70" cx="274" cy="-105" rx="62.29" ry="18"/>
<text text-anchor="middle" x="274" y="-101.3" font-family="Times,serif" font-size="14.00">सुकृतान्(11.1)</text>
</g>
<!-- Node10_1 -->
<g id="node4" class="node">
<title>Node10_1</title>
<ellipse fill="#ff1975" stroke="#ff1975" cx="281" cy="-192" rx="54.69" ry="18"/>
<text text-anchor="middle" x="281" y="-188.3" font-family="Times,serif" font-size="14.00">लभते(10.1)</text>
</g>
<!-- Node11_1&#45;&gt;Node10_1 -->
<g id="edge10" class="edge">
<title>Node11_1&#45;&gt;Node10_1</title>
<path fill="none" stroke="black" d="M276.24,-133.27C277.34,-146.58 278.62,-162.19 279.58,-173.82"/>
<polygon fill="black" stroke="black" points="279.72,-132.88 275.41,-123.2 272.75,-133.45 279.72,-132.88"/>
<text text-anchor="middle" x="299.5" y="-144.8" font-family="Times,serif" font-size="14.00">विशेषणम्</text>
</g>
<!-- Node1_1 -->
<g id="node5" class="node">
<title>Node1_1</title>
<ellipse fill="#ff99ff" stroke="#ff99ff" cx="39" cy="-192" rx="37.09" ry="18"/>
<text text-anchor="middle" x="39" y="-188.3" font-family="Times,serif" font-size="14.00">न(1.1)</text>
</g>
<!-- Node1_1&#45;&gt;Node16_1 -->
<g id="edge1" class="edge">
<title>Node1_1&#45;&gt;Node16_1</title>
<path fill="none" stroke="black" d="M48.67,-219.53C53.6,-233.05 59.45,-249.09 63.78,-260.95"/>
<polygon fill="black" stroke="black" points="51.84,-217.99 45.12,-209.79 45.26,-220.39 51.84,-217.99"/>
<text text-anchor="middle" x="76.5" y="-231.8" font-family="Times,serif" font-size="14.00">प्रतिषेधः</text>
</g>
<!-- Node2_1 -->
<g id="node7" class="node">
<title>Node2_1</title>
<ellipse fill="#87ceeb" stroke="#87ceeb" cx="141" cy="-18" rx="46.29" ry="18"/>
<text text-anchor="middle" x="141" y="-14.3" font-family="Times,serif" font-size="14.00">तस्य(2.1)</text>
</g>
<!-- Node2_1&#45;&gt;Node3_1 -->
<g id="edge2" class="edge">
<title>Node2_1&#45;&gt;Node3_1</title>
<path fill="none" stroke="black" d="M141,-46.27C141,-59.58 141,-75.19 141,-86.82"/>
<polygon fill="black" stroke="black" points="144.5,-46.2 141,-36.2 137.5,-46.2 144.5,-46.2"/>
<text text-anchor="middle" x="168.5" y="-57.8" font-family="Times,serif" font-size="14.00">षष्ठीसम्बन्धः</text>
</g>
<!-- Node5_1 -->
<g id="node8" class="node">
<title>Node5_1</title>
<ellipse fill="#ff99ff" stroke="#ff99ff" cx="39" cy="-105" rx="38.99" ry="18"/>
<text text-anchor="middle" x="39" y="-101.3" font-family="Times,serif" font-size="14.00">वा(5.1)</text>
</g>
<!-- Node5_1&#45;&gt;Node4_1 -->
<g id="edge5" class="edge">
<title>Node5_1&#45;&gt;Node4_1</title>
<path fill="none" stroke="black" d="M48.19,-132.52C52.06,-140.83 57.27,-149.51 64,-156 75.31,-166.9 90.62,-174.81 104.61,-180.31"/>
<polygon fill="black" stroke="black" points="51.33,-130.97 44.24,-123.1 44.87,-133.67 51.33,-130.97"/>
<text text-anchor="middle" x="100.5" y="-144.8" font-family="Times,serif" font-size="14.00">अन्यतर_द्योतकः</text>
</g>
<!-- Node6_1 -->
<g id="node9" class="node">
<title>Node6_1</title>
<ellipse fill="#ff99ff" stroke="#ff99ff" cx="401" cy="-105" rx="46.29" ry="18"/>
<text text-anchor="middle" x="401" y="-101.3" font-family="Times,serif" font-size="14.00">कुतः(6.1)</text>
</g>
<!-- Node6_1&#45;&gt;Node10_1 -->
<g id="edge6" class="edge">
<title>Node6_1&#45;&gt;Node10_1</title>
<path fill="none" stroke="black" d="M371.52,-126.88C350.41,-141.83 322.42,-161.66 303.18,-175.29"/>
<polygon fill="black" stroke="black" points="373.68,-129.64 379.82,-121 369.64,-123.92 373.68,-129.64"/>
<text text-anchor="middle" x="366.5" y="-144.8" font-family="Times,serif" font-size="14.00">सम्बन्धः</text>
</g>
<!-- Node7_1 -->
<g id="node10" class="node">
<title>Node7_1</title>
<ellipse fill="#ff99ff" stroke="#ff99ff" cx="401" cy="-18" rx="41.69" ry="18"/>
<text text-anchor="middle" x="401" y="-14.3" font-family="Times,serif" font-size="14.00">एव(7.1)</text>
</g>
<!-- Node7_1&#45;&gt;Node6_1 -->
<g id="edge7" class="edge">
<title>Node7_1&#45;&gt;Node6_1</title>
<path fill="none" stroke="black" d="M401,-46.27C401,-59.58 401,-75.19 401,-86.82"/>
<polygon fill="black" stroke="black" points="404.5,-46.2 401,-36.2 397.5,-46.2 404.5,-46.2"/>
<text text-anchor="middle" x="419.5" y="-57.8" font-family="Times,serif" font-size="14.00">सम्बन्धः</text>
</g>
<!-- Node8_1 -->
<g id="node11" class="node">
<title>Node8_1</title>
<ellipse fill="#00bfff" stroke="#00bfff" cx="505" cy="-105" rx="40.09" ry="18"/>
<text text-anchor="middle" x="505" y="-101.3" font-family="Times,serif" font-size="14.00">सः(8.1)</text>
</g>
<!-- Node8_1&#45;&gt;Node10_1 -->
<g id="edge8" class="edge">
<title>Node8_1&#45;&gt;Node10_1</title>
<path fill="none" stroke="black" d="M468.85,-122.62C446.14,-132.8 416.11,-145.79 389,-156 366.4,-164.51 340.7,-172.89 320.04,-179.32"/>
<polygon fill="black" stroke="black" points="470.42,-125.75 478.1,-118.44 467.55,-119.37 470.42,-125.75"/>
<text text-anchor="middle" x="435" y="-144.8" font-family="Times,serif" font-size="14.00">कर्ता</text>
</g>
<!-- Node9_1 -->
<g id="node12" class="node">
<title>Node9_1</title>
<ellipse fill="#6fffc3" stroke="#6fffc3" cx="615" cy="-105" rx="51.99" ry="18"/>
<text text-anchor="middle" x="615" y="-101.3" font-family="Times,serif" font-size="14.00">पार्थिव(9.1)</text>
</g>
<!-- Node9_1&#45;&gt;Node10_1 -->
<g id="edge9" class="edge">
<title>Node9_1&#45;&gt;Node10_1</title>
<path fill="none" stroke="black" d="M569.09,-121.12C536.16,-131.68 490.61,-145.66 450,-156 408.91,-166.46 361.61,-176.05 327.52,-182.53"/>
<polygon fill="black" stroke="black" points="570.44,-124.37 578.89,-117.97 568.29,-117.7 570.44,-124.37"/>
<text text-anchor="middle" x="521" y="-144.8" font-family="Times,serif" font-size="14.00">सम्बोध्यः</text>
</g>
<!-- Node12_1 -->
<g id="node13" class="node">
<title>Node12_1</title>
<ellipse fill="#93db70" stroke="#93db70" cx="745" cy="-105" rx="59.59" ry="18"/>
<text text-anchor="middle" x="745" y="-101.3" font-family="Times,serif" font-size="14.00">लोकान्(12.1)</text>
</g>
<!-- Node12_1&#45;&gt;Node10_1 -->
<g id="edge11" class="edge">
<title>Node12_1&#45;&gt;Node10_1</title>
<path fill="none" stroke="black" d="M693.6,-120.64C653.63,-131.61 596.64,-146.33 546,-156 472.38,-170.06 386.18,-180.31 332.57,-185.96"/>
<polygon fill="black" stroke="black" points="694.67,-123.98 703.38,-117.94 692.81,-117.23 694.67,-123.98"/>
<text text-anchor="middle" x="621" y="-144.8" font-family="Times,serif" font-size="14.00">कर्म</text>
</g>
<!-- Node13_1 -->
<g id="node14" class="node">
<title>Node13_1</title>
<ellipse fill="#b4ffb4" stroke="#b4ffb4" cx="824" cy="-18" rx="59.29" ry="18"/>
<text text-anchor="middle" x="824" y="-14.3" font-family="Times,serif" font-size="14.00">यस्मात्(13.1)</text>
</g>
<!-- Node15_1 -->
<g id="node15" class="node">
<title>Node15_1</title>
<ellipse fill="#ff1975" stroke="#ff1975" cx="888" cy="-105" rx="64.99" ry="18"/>
<text text-anchor="middle" x="888" y="-101.3" font-family="Times,serif" font-size="14.00">प्रणश्यति(15.1)</text>
</g>
<!-- Node13_1&#45;&gt;Node15_1 -->
<g id="edge12" class="edge">
<title>Node13_1&#45;&gt;Node15_1</title>
<path fill="none" stroke="black" d="M842.83,-44.01C853.32,-57.94 866.09,-74.91 875.38,-87.24"/>
<polygon fill="black" stroke="black" points="845.45,-41.68 836.64,-35.79 839.86,-45.89 845.45,-41.68"/>
<text text-anchor="middle" x="893" y="-57.8" font-family="Times,serif" font-size="14.00">कारण_द्योतकः</text>
</g>
<!-- Node14_1 -->
<g id="node16" class="node">
<title>Node14_1</title>
<ellipse fill="#00bfff" stroke="#00bfff" cx="952" cy="-18" rx="50.89" ry="18"/>
<text text-anchor="middle" x="952" y="-14.3" font-family="Times,serif" font-size="14.00">वंशः(14.1)</text>
</g>
<!-- Node14_1&#45;&gt;Node15_1 -->
<g id="edge13" class="edge">
<title>Node14_1&#45;&gt;Node15_1</title>
<path fill="none" stroke="black" d="M942.99,-45.58C939.6,-53.53 935.27,-62 930,-69 924.74,-75.98 917.84,-82.46 911.16,-87.9"/>
<polygon fill="black" stroke="black" points="946.25,-46.84 946.64,-36.26 939.73,-44.29 946.25,-46.84"/>
<text text-anchor="middle" x="949" y="-57.8" font-family="Times,serif" font-size="14.00">कर्ता</text>
</g>
</g>
</svg>
