<?xml version="1.0" encoding="UTF-8" standalone="no"?>
<!DOCTYPE svg PUBLIC "-//W3C//DTD SVG 1.1//EN"
 "http://www.w3.org/Graphics/SVG/1.1/DTD/svg11.dtd">
<!-- Generated by graphviz version 2.43.0 (0)
 -->
<!-- Title: G Pages: 1 -->
<svg width="678pt" height="321pt"
 viewBox="0.00 0.00 678.04 321.00" xmlns="http://www.w3.org/2000/svg" xmlns:xlink="http://www.w3.org/1999/xlink">
<g id="graph0" class="graph" transform="scale(1 1) rotate(0) translate(4 317)">
<title>G</title>
<polygon fill="#fffacd" stroke="transparent" points="-4,4 -4,-317 674.04,-317 674.04,4 -4,4"/>
<g id="clust1" class="cluster">
<title>cluster_1</title>
<polygon fill="#fffacd" stroke="black" points="8,-8 8,-147 114,-147 114,-8 8,-8"/>
</g>
<g id="clust2" class="cluster">
<title>cluster_2</title>
<polygon fill="#fffacd" stroke="black" points="122,-8 122,-147 246,-147 246,-8 122,-8"/>
</g>
<g id="clust3" class="cluster">
<title>cluster_3</title>
<polygon fill="#fffacd" stroke="black" points="254,-8 254,-147 386,-147 386,-8 254,-8"/>
</g>
<!-- Node3_1 -->
<g id="node1" class="node">
<title>Node3_1</title>
<ellipse fill="#40e0d0" stroke="#40e0d0" cx="61" cy="-34" rx="42.49" ry="18"/>
<text text-anchor="middle" x="61" y="-30.3" font-family="Times,serif" font-size="14.00">तेन(3.1)</text>
</g>
<!-- Node4_1 -->
<g id="node2" class="node">
<title>Node4_1</title>
<ellipse fill="#40e0d0" stroke="#40e0d0" cx="61" cy="-121" rx="45.49" ry="18"/>
<text text-anchor="middle" x="61" y="-117.3" font-family="Times,serif" font-size="14.00">अह्ना(4.1)</text>
</g>
<!-- Node3_1&#45;&gt;Node4_1 -->
<g id="edge4" class="edge">
<title>Node3_1&#45;&gt;Node4_1</title>
<path fill="none" stroke="black" d="M61,-62.27C61,-75.58 61,-91.19 61,-102.82"/>
<polygon fill="black" stroke="black" points="64.5,-62.2 61,-52.2 57.5,-62.2 64.5,-62.2"/>
<text text-anchor="middle" x="83.5" y="-73.8" font-family="Times,serif" font-size="14.00">विशेषणम्</text>
</g>
<!-- Node5_1 -->
<g id="node8" class="node">
<title>Node5_1</title>
<ellipse fill="#ff99ff" stroke="#ff99ff" cx="198" cy="-208" rx="46.59" ry="18"/>
<text text-anchor="middle" x="198" y="-204.3" font-family="Times,serif" font-size="14.00">गत्वा(5.1)</text>
</g>
<!-- Node4_1&#45;&gt;Node5_1 -->
<g id="edge5" class="edge">
<title>Node4_1&#45;&gt;Node5_1</title>
<path fill="none" stroke="black" d="M81.4,-146.2C89.87,-155.17 100.23,-164.88 111,-172 126.62,-182.32 145.76,-190.43 162.11,-196.24"/>
<polygon fill="black" stroke="black" points="83.79,-143.64 74.48,-138.59 78.62,-148.35 83.79,-143.64"/>
<text text-anchor="middle" x="148.5" y="-160.8" font-family="Times,serif" font-size="14.00">अपवर्ग_सम्बन्धः</text>
</g>
<!-- Node6_1 -->
<g id="node3" class="node">
<title>Node6_1</title>
<ellipse fill="#93db70" stroke="#93db70" cx="184" cy="-34" rx="51.99" ry="18"/>
<text text-anchor="middle" x="184" y="-30.3" font-family="Times,serif" font-size="14.00">सुमहत्(6.1)</text>
</g>
<!-- Node7_1 -->
<g id="node4" class="node">
<title>Node7_1</title>
<ellipse fill="#93db70" stroke="#93db70" cx="184" cy="-121" rx="53.89" ry="18"/>
<text text-anchor="middle" x="184" y="-117.3" font-family="Times,serif" font-size="14.00">अन्तरम्(7.1)</text>
</g>
<!-- Node6_1&#45;&gt;Node7_1 -->
<g id="edge7" class="edge">
<title>Node6_1&#45;&gt;Node7_1</title>
<path fill="none" stroke="black" d="M184,-62.27C184,-75.58 184,-91.19 184,-102.82"/>
<polygon fill="black" stroke="black" points="187.5,-62.2 184,-52.2 180.5,-62.2 187.5,-62.2"/>
<text text-anchor="middle" x="206.5" y="-73.8" font-family="Times,serif" font-size="14.00">विशेषणम्</text>
</g>
<!-- Node7_1&#45;&gt;Node5_1 -->
<g id="edge8" class="edge">
<title>Node7_1&#45;&gt;Node5_1</title>
<path fill="none" stroke="black" d="M188.49,-149.27C190.68,-162.58 193.26,-178.19 195.17,-189.82"/>
<polygon fill="black" stroke="black" points="191.91,-148.5 186.83,-139.2 185,-149.64 191.91,-148.5"/>
<text text-anchor="middle" x="200" y="-160.8" font-family="Times,serif" font-size="14.00">कर्म</text>
</g>
<!-- Node12_1 -->
<g id="node5" class="node">
<title>Node12_1</title>
<ellipse fill="#00bfff" stroke="#00bfff" cx="320" cy="-34" rx="51.19" ry="18"/>
<text text-anchor="middle" x="320" y="-30.3" font-family="Times,serif" font-size="14.00">प्रभुः(12.1)</text>
</g>
<!-- Node1_1 -->
<g id="node6" class="node">
<title>Node1_1</title>
<ellipse fill="#00bfff" stroke="#00bfff" cx="320" cy="-121" rx="57.69" ry="18"/>
<text text-anchor="middle" x="320" y="-117.3" font-family="Times,serif" font-size="14.00">धृतराष्ट्रः(1.1)</text>
</g>
<!-- Node12_1&#45;&gt;Node1_1 -->
<g id="edge13" class="edge">
<title>Node12_1&#45;&gt;Node1_1</title>
<path fill="none" stroke="black" d="M320,-62.27C320,-75.58 320,-91.19 320,-102.82"/>
<polygon fill="black" stroke="black" points="323.5,-62.2 320,-52.2 316.5,-62.2 323.5,-62.2"/>
<text text-anchor="middle" x="342.5" y="-73.8" font-family="Times,serif" font-size="14.00">विशेषणम्</text>
</g>
<!-- Node11_1 -->
<g id="node7" class="node">
<title>Node11_1</title>
<ellipse fill="#ff1975" stroke="#ff1975" cx="378" cy="-295" rx="61.99" ry="18"/>
<text text-anchor="middle" x="378" y="-291.3" font-family="Times,serif" font-size="14.00">अकरोत्(11.1)</text>
</g>
<!-- Node1_1&#45;&gt;Node11_1 -->
<g id="edge1" class="edge">
<title>Node1_1&#45;&gt;Node11_1</title>
<path fill="none" stroke="black" d="M307.7,-148.48C299.47,-170.15 291.99,-201.16 303,-226 312.97,-248.5 334.47,-266.72 351.9,-278.62"/>
<polygon fill="black" stroke="black" points="311.05,-149.53 311.59,-138.95 304.57,-146.89 311.05,-149.53"/>
<text text-anchor="middle" x="314" y="-204.3" font-family="Times,serif" font-size="14.00">कर्ता</text>
</g>
<!-- Node1_1&#45;&gt;Node5_1 -->
<g id="edge2" class="edge">
<title>Node1_1&#45;&gt;Node5_1</title>
<path fill="none" stroke="black" stroke-dasharray="1,5" d="M282.5,-141.73C274.25,-146.46 265.69,-151.69 258,-157 242.83,-167.48 226.84,-180.93 215.19,-191.25"/>
<polygon fill="black" stroke="black" points="284.25,-144.76 291.26,-136.81 280.83,-138.65 284.25,-144.76"/>
<text text-anchor="middle" x="269" y="-160.8" font-family="Times,serif" font-size="14.00">कर्ता</text>
</g>
<!-- Node5_1&#45;&gt;Node11_1 -->
<g id="edge6" class="edge">
<title>Node5_1&#45;&gt;Node11_1</title>
<path fill="none" stroke="black" d="M213.66,-234.18C220.43,-243.22 229.09,-252.71 239,-259 263.48,-274.53 294.47,-283.17 320.97,-287.98"/>
<polygon fill="black" stroke="black" points="216.37,-231.96 207.76,-225.79 210.65,-235.98 216.37,-231.96"/>
<text text-anchor="middle" x="259.5" y="-247.8" font-family="Times,serif" font-size="14.00">पूर्वकालः</text>
</g>
<!-- Node2_1 -->
<g id="node9" class="node">
<title>Node2_1</title>
<ellipse fill="#ff99ff" stroke="#ff99ff" cx="431" cy="-34" rx="37.09" ry="18"/>
<text text-anchor="middle" x="431" y="-30.3" font-family="Times,serif" font-size="14.00">तु(2.1)</text>
</g>
<!-- Node2_1&#45;&gt;Node1_1 -->
<g id="edge3" class="edge">
<title>Node2_1&#45;&gt;Node1_1</title>
<path fill="none" stroke="black" d="M405.07,-56.47C394.07,-65.43 381.02,-75.87 369,-85 360.51,-91.45 351,-98.31 342.64,-104.24"/>
<polygon fill="black" stroke="black" points="407.52,-58.98 413.04,-49.94 403.09,-53.57 407.52,-58.98"/>
<text text-anchor="middle" x="406.5" y="-73.8" font-family="Times,serif" font-size="14.00">सम्बन्धः</text>
</g>
<!-- Node8_1 -->
<g id="node10" class="node">
<title>Node8_1</title>
<ellipse fill="#ff99ff" stroke="#ff99ff" cx="378" cy="-208" rx="44.39" ry="18"/>
<text text-anchor="middle" x="378" y="-204.3" font-family="Times,serif" font-size="14.00">ततः(8.1)</text>
</g>
<!-- Node8_1&#45;&gt;Node11_1 -->
<g id="edge9" class="edge">
<title>Node8_1&#45;&gt;Node11_1</title>
<path fill="none" stroke="black" d="M378,-236.27C378,-249.58 378,-265.19 378,-276.82"/>
<polygon fill="black" stroke="black" points="381.5,-236.2 378,-226.2 374.5,-236.2 381.5,-236.2"/>
<text text-anchor="middle" x="396.5" y="-247.8" font-family="Times,serif" font-size="14.00">सम्बन्धः</text>
</g>
<!-- Node9_1 -->
<g id="node11" class="node">
<title>Node9_1</title>
<ellipse fill="#ffff00" stroke="#ffff00" cx="483" cy="-121" rx="61.99" ry="18"/>
<text text-anchor="middle" x="483" y="-117.3" font-family="Times,serif" font-size="14.00">भागीरथी&#45;(9.1)</text>
</g>
<!-- Node9_2 -->
<g id="node12" class="node">
<title>Node9_2</title>
<ellipse fill="#c6e2eb" stroke="#c6e2eb" cx="483" cy="-208" rx="42.79" ry="18"/>
<text text-anchor="middle" x="483" y="-204.3" font-family="Times,serif" font-size="14.00">तीरे(9.2)</text>
</g>
<!-- Node9_1&#45;&gt;Node9_2 -->
<g id="edge10" class="edge">
<title>Node9_1&#45;&gt;Node9_2</title>
<path fill="none" stroke="black" d="M483,-149.27C483,-162.58 483,-178.19 483,-189.82"/>
<polygon fill="black" stroke="black" points="486.5,-149.2 483,-139.2 479.5,-149.2 486.5,-149.2"/>
<text text-anchor="middle" x="500" y="-160.8" font-family="Times,serif" font-size="14.00">समासः</text>
</g>
<!-- Node9_2&#45;&gt;Node11_1 -->
<g id="edge11" class="edge">
<title>Node9_2&#45;&gt;Node11_1</title>
<path fill="none" stroke="black" d="M456.33,-230.59C438.19,-245.28 414.58,-264.39 398.04,-277.78"/>
<polygon fill="black" stroke="black" points="458.66,-233.21 464.23,-224.2 454.25,-227.77 458.66,-233.21"/>
<text text-anchor="middle" x="463.5" y="-247.8" font-family="Times,serif" font-size="14.00">अधिकरणम्</text>
</g>
<!-- Node10_1 -->
<g id="node13" class="node">
<title>Node10_1</title>
<ellipse fill="#93db70" stroke="#93db70" cx="607" cy="-208" rx="63.09" ry="18"/>
<text text-anchor="middle" x="607" y="-204.3" font-family="Times,serif" font-size="14.00">निवासम्(10.1)</text>
</g>
<!-- Node10_1&#45;&gt;Node11_1 -->
<g id="edge12" class="edge">
<title>Node10_1&#45;&gt;Node11_1</title>
<path fill="none" stroke="black" d="M567.23,-228.26C546.05,-238.13 519.41,-249.94 495,-259 471.25,-267.81 444.17,-276.02 422.06,-282.28"/>
<polygon fill="black" stroke="black" points="568.98,-231.3 576.54,-223.88 566,-224.97 568.98,-231.3"/>
<text text-anchor="middle" x="538" y="-247.8" font-family="Times,serif" font-size="14.00">कर्म</text>
</g>
</g>
</svg>
