<?xml version="1.0" encoding="UTF-8" standalone="no"?>
<!DOCTYPE svg PUBLIC "-//W3C//DTD SVG 1.1//EN"
 "http://www.w3.org/Graphics/SVG/1.1/DTD/svg11.dtd">
<!-- Generated by graphviz version 2.43.0 (0)
 -->
<!-- Title: G Pages: 1 -->
<svg width="898pt" height="305pt"
 viewBox="0.00 0.00 898.09 305.00" xmlns="http://www.w3.org/2000/svg" xmlns:xlink="http://www.w3.org/1999/xlink">
<g id="graph0" class="graph" transform="scale(1 1) rotate(0) translate(4 301)">
<title>G</title>
<polygon fill="#fffacd" stroke="transparent" points="-4,4 -4,-301 894.09,-301 894.09,4 -4,4"/>
<g id="clust1" class="cluster">
<title>cluster_1</title>
<polygon fill="#fffacd" stroke="black" points="211.1,-79 211.1,-218 563.1,-218 563.1,-79 211.1,-79"/>
</g>
<!-- Node6_1 -->
<g id="node1" class="node">
<title>Node6_1</title>
<ellipse fill="#00bfff" stroke="#00bfff" cx="498.1" cy="-105" rx="56.59" ry="18"/>
<text text-anchor="middle" x="498.1" y="-101.3" font-family="Times,serif" font-size="14.00">याजकाः(6.1)</text>
</g>
<!-- Node12_1 -->
<g id="node2" class="node">
<title>Node12_1</title>
<ellipse fill="#00bfff" stroke="#00bfff" cx="290.1" cy="-192" rx="71.49" ry="18"/>
<text text-anchor="middle" x="290.1" y="-188.3" font-family="Times,serif" font-size="14.00">अनुयायिनः(12.1)</text>
</g>
<!-- Node6_1&#45;&gt;Node12_1 -->
<g id="edge6" class="edge">
<title>Node6_1&#45;&gt;Node12_1</title>
<path fill="none" stroke="black" d="M459.25,-124.85C438.61,-134.61 412.69,-146.44 389.1,-156 370.51,-163.53 349.62,-171.05 331.83,-177.18"/>
<polygon fill="black" stroke="black" points="460.81,-127.99 468.34,-120.53 457.81,-121.66 460.81,-127.99"/>
<text text-anchor="middle" x="444.6" y="-144.8" font-family="Times,serif" font-size="14.00">समुच्चितः</text>
</g>
<!-- Node13_1 -->
<g id="node14" class="node">
<title>Node13_1</title>
<ellipse fill="#ff1975" stroke="#ff1975" cx="193.1" cy="-279" rx="63.89" ry="18"/>
<text text-anchor="middle" x="193.1" y="-275.3" font-family="Times,serif" font-size="14.00">(निषेदुः)(13.1)</text>
</g>
<!-- Node12_1&#45;&gt;Node13_1 -->
<g id="edge13" class="edge">
<title>Node12_1&#45;&gt;Node13_1</title>
<path fill="none" stroke="black" d="M263.71,-216.12C247.26,-230.54 226.49,-248.74 211.74,-261.66"/>
<polygon fill="black" stroke="black" points="266.18,-218.61 271.39,-209.39 261.57,-213.35 266.18,-218.61"/>
<text text-anchor="middle" x="258.1" y="-231.8" font-family="Times,serif" font-size="14.00">कर्ता</text>
</g>
<!-- Node9_1 -->
<g id="node3" class="node">
<title>Node9_1</title>
<ellipse fill="#00bfff" stroke="#00bfff" cx="373.1" cy="-105" rx="50.09" ry="18"/>
<text text-anchor="middle" x="373.1" y="-101.3" font-family="Times,serif" font-size="14.00">द्विजाः(9.1)</text>
</g>
<!-- Node9_1&#45;&gt;Node12_1 -->
<g id="edge10" class="edge">
<title>Node9_1&#45;&gt;Node12_1</title>
<path fill="none" stroke="black" d="M351.2,-129.73C343.36,-138.11 334.41,-147.55 326.1,-156 320.11,-162.09 313.43,-168.65 307.46,-174.42"/>
<polygon fill="black" stroke="black" points="353.78,-132.09 358.04,-122.39 348.66,-127.32 353.78,-132.09"/>
<text text-anchor="middle" x="362.6" y="-144.8" font-family="Times,serif" font-size="14.00">समुच्चितः</text>
</g>
<!-- Node10_1 -->
<g id="node4" class="node">
<title>Node10_1</title>
<ellipse fill="#00bfff" stroke="#00bfff" cx="262.1" cy="-105" rx="42.79" ry="18"/>
<text text-anchor="middle" x="262.1" y="-101.3" font-family="Times,serif" font-size="14.00">ये(10.1)</text>
</g>
<!-- Node10_1&#45;&gt;Node12_1 -->
<g id="edge11" class="edge">
<title>Node10_1&#45;&gt;Node12_1</title>
<path fill="none" stroke="black" d="M270.95,-132.87C275.36,-146.27 280.57,-162.08 284.44,-173.82"/>
<polygon fill="black" stroke="black" points="274.22,-131.6 267.76,-123.2 267.57,-133.79 274.22,-131.6"/>
<text text-anchor="middle" x="299.6" y="-144.8" font-family="Times,serif" font-size="14.00">विशेषणम्</text>
</g>
<!-- Node1_1 -->
<g id="node5" class="node">
<title>Node1_1</title>
<ellipse fill="#87ceeb" stroke="#87ceeb" cx="603.1" cy="-18" rx="49.29" ry="18"/>
<text text-anchor="middle" x="603.1" y="-14.3" font-family="Times,serif" font-size="14.00">तेषाम्(1.1)</text>
</g>
<!-- Node2_1 -->
<g id="node6" class="node">
<title>Node2_1</title>
<ellipse fill="#c6e2eb" stroke="#c6e2eb" cx="713.1" cy="-105" rx="54.69" ry="18"/>
<text text-anchor="middle" x="713.1" y="-101.3" font-family="Times,serif" font-size="14.00">संश्रवणे(2.1)</text>
</g>
<!-- Node1_1&#45;&gt;Node2_1 -->
<g id="edge1" class="edge">
<title>Node1_1&#45;&gt;Node2_1</title>
<path fill="none" stroke="black" d="M625.74,-42.32C634.8,-51.12 645.58,-60.95 656.1,-69 665.59,-76.27 676.67,-83.36 686.53,-89.23"/>
<polygon fill="black" stroke="black" points="628.13,-39.77 618.56,-35.22 623.21,-44.74 628.13,-39.77"/>
<text text-anchor="middle" x="683.6" y="-57.8" font-family="Times,serif" font-size="14.00">षष्ठीसम्बन्धः</text>
</g>
<!-- Node4_1 -->
<g id="node7" class="node">
<title>Node4_1</title>
<ellipse fill="#ff1975" stroke="#ff1975" cx="764.1" cy="-192" rx="51.19" ry="18"/>
<text text-anchor="middle" x="764.1" y="-188.3" font-family="Times,serif" font-size="14.00">निषेदुः(4.1)</text>
</g>
<!-- Node2_1&#45;&gt;Node4_1 -->
<g id="edge2" class="edge">
<title>Node2_1&#45;&gt;Node4_1</title>
<path fill="none" stroke="black" d="M728.34,-131.4C736.65,-145.26 746.71,-162.03 754.04,-174.24"/>
<polygon fill="black" stroke="black" points="731.32,-129.57 723.17,-122.79 725.32,-133.17 731.32,-129.57"/>
<text text-anchor="middle" x="768.6" y="-144.8" font-family="Times,serif" font-size="14.00">अधिकरणम्</text>
</g>
<!-- Node3_1 -->
<g id="node8" class="node">
<title>Node3_1</title>
<ellipse fill="#ff99ff" stroke="#ff99ff" cx="718.1" cy="-18" rx="47.39" ry="18"/>
<text text-anchor="middle" x="718.1" y="-14.3" font-family="Times,serif" font-size="14.00">चापि(3.1)</text>
</g>
<!-- Node3_1&#45;&gt;Node2_1 -->
<g id="edge3" class="edge">
<title>Node3_1&#45;&gt;Node2_1</title>
<path fill="none" stroke="black" d="M716.49,-46.27C715.71,-59.58 714.79,-75.19 714.11,-86.82"/>
<polygon fill="black" stroke="black" points="719.99,-46.39 717.08,-36.2 713,-45.98 719.99,-46.39"/>
<text text-anchor="middle" x="733.6" y="-57.8" font-family="Times,serif" font-size="14.00">सम्बन्धः</text>
</g>
<!-- Node5_2 -->
<g id="node9" class="node">
<title>Node5_2</title>
<ellipse fill="#00bfff" stroke="#00bfff" cx="838.1" cy="-105" rx="51.99" ry="18"/>
<text text-anchor="middle" x="838.1" y="-101.3" font-family="Times,serif" font-size="14.00">आदयः(5.2)</text>
</g>
<!-- Node5_2&#45;&gt;Node4_1 -->
<g id="edge5" class="edge">
<title>Node5_2&#45;&gt;Node4_1</title>
<path fill="none" stroke="black" d="M820.34,-130.87C814.18,-139.08 807.07,-148.12 800.1,-156 794.43,-162.4 787.83,-169.02 781.84,-174.77"/>
<polygon fill="black" stroke="black" points="823.25,-132.83 826.37,-122.7 817.62,-128.67 823.25,-132.83"/>
<text text-anchor="middle" x="823.1" y="-144.8" font-family="Times,serif" font-size="14.00">कर्ता</text>
</g>
<!-- Node5_1 -->
<g id="node10" class="node">
<title>Node5_1</title>
<ellipse fill="#ffff00" stroke="#ffff00" cx="838.1" cy="-18" rx="50.09" ry="18"/>
<text text-anchor="middle" x="838.1" y="-14.3" font-family="Times,serif" font-size="14.00">विदुर&#45;(5.1)</text>
</g>
<!-- Node5_1&#45;&gt;Node5_2 -->
<g id="edge4" class="edge">
<title>Node5_1&#45;&gt;Node5_2</title>
<path fill="none" stroke="black" d="M838.1,-46.27C838.1,-59.58 838.1,-75.19 838.1,-86.82"/>
<polygon fill="black" stroke="black" points="841.6,-46.2 838.1,-36.2 834.6,-46.2 841.6,-46.2"/>
<text text-anchor="middle" x="855.1" y="-57.8" font-family="Times,serif" font-size="14.00">समासः</text>
</g>
<!-- Node7_1 -->
<g id="node11" class="node">
<title>Node7_1</title>
<ellipse fill="#ff99ff" stroke="#ff99ff" cx="498.1" cy="-18" rx="37.89" ry="18"/>
<text text-anchor="middle" x="498.1" y="-14.3" font-family="Times,serif" font-size="14.00">च(7.1)</text>
</g>
<!-- Node7_1&#45;&gt;Node6_1 -->
<g id="edge7" class="edge">
<title>Node7_1&#45;&gt;Node6_1</title>
<path fill="none" stroke="black" d="M498.1,-46.27C498.1,-59.58 498.1,-75.19 498.1,-86.82"/>
<polygon fill="black" stroke="black" points="501.6,-46.2 498.1,-36.2 494.6,-46.2 501.6,-46.2"/>
<text text-anchor="middle" x="536.1" y="-57.8" font-family="Times,serif" font-size="14.00">समुच्चय_द्योतकः</text>
</g>
<!-- Node8_1 -->
<g id="node12" class="node">
<title>Node8_1</title>
<ellipse fill="#ffff00" stroke="#ffff00" cx="48.1" cy="-105" rx="48.19" ry="18"/>
<text text-anchor="middle" x="48.1" y="-101.3" font-family="Times,serif" font-size="14.00">यथा&#45;(8.1)</text>
</g>
<!-- Node8_2 -->
<g id="node13" class="node">
<title>Node8_2</title>
<ellipse fill="#00bfff" stroke="#00bfff" cx="98.1" cy="-192" rx="51.19" ry="18"/>
<text text-anchor="middle" x="98.1" y="-188.3" font-family="Times,serif" font-size="14.00">उद्देशम्(8.2)</text>
</g>
<!-- Node8_1&#45;&gt;Node8_2 -->
<g id="edge8" class="edge">
<title>Node8_1&#45;&gt;Node8_2</title>
<path fill="none" stroke="black" d="M63.27,-131.8C71.38,-145.58 81.12,-162.14 88.24,-174.24"/>
<polygon fill="black" stroke="black" points="66.06,-129.64 57.97,-122.79 60.03,-133.19 66.06,-129.64"/>
<text text-anchor="middle" x="93.1" y="-144.8" font-family="Times,serif" font-size="14.00">समासः</text>
</g>
<!-- Node8_2&#45;&gt;Node13_1 -->
<g id="edge9" class="edge">
<title>Node8_2&#45;&gt;Node13_1</title>
<path fill="none" stroke="black" d="M123.48,-215.71C139.6,-230.13 160.09,-248.47 174.66,-261.5"/>
<polygon fill="black" stroke="black" points="125.75,-213.05 115.96,-208.99 121.08,-218.26 125.75,-213.05"/>
<text text-anchor="middle" x="187.1" y="-231.8" font-family="Times,serif" font-size="14.00">क्रियाविशेषणम्</text>
</g>
<!-- Node11_1 -->
<g id="node15" class="node">
<title>Node11_1</title>
<ellipse fill="#ff99ff" stroke="#ff99ff" cx="158.1" cy="-105" rx="43.59" ry="18"/>
<text text-anchor="middle" x="158.1" y="-101.3" font-family="Times,serif" font-size="14.00">च(11.1)</text>
</g>
<!-- Node11_1&#45;&gt;Node12_1 -->
<g id="edge12" class="edge">
<title>Node11_1&#45;&gt;Node12_1</title>
<path fill="none" stroke="black" d="M188.14,-126.4C201.78,-135.57 218.17,-146.45 233.1,-156 243.07,-162.39 254.15,-169.24 263.86,-175.17"/>
<polygon fill="black" stroke="black" points="189.87,-123.34 179.62,-120.66 185.95,-129.15 189.87,-123.34"/>
<text text-anchor="middle" x="251.6" y="-144.8" font-family="Times,serif" font-size="14.00">सम्बन्धः</text>
</g>
</g>
</svg>
