<?xml version="1.0" encoding="UTF-8" standalone="no"?>
<!DOCTYPE svg PUBLIC "-//W3C//DTD SVG 1.1//EN"
 "http://www.w3.org/Graphics/SVG/1.1/DTD/svg11.dtd">
<!-- Generated by graphviz version 2.43.0 (0)
 -->
<!-- Title: G Pages: 1 -->
<svg width="579pt" height="305pt"
 viewBox="0.00 0.00 579.24 305.00" xmlns="http://www.w3.org/2000/svg" xmlns:xlink="http://www.w3.org/1999/xlink">
<g id="graph0" class="graph" transform="scale(1 1) rotate(0) translate(4 301)">
<title>G</title>
<polygon fill="#fffacd" stroke="transparent" points="-4,4 -4,-301 575.24,-301 575.24,4 -4,4"/>
<g id="clust1" class="cluster">
<title>cluster_1</title>
<polygon fill="#fffacd" stroke="black" points="112,-79 112,-218 354,-218 354,-79 112,-79"/>
</g>
<!-- Node4_1 -->
<g id="node1" class="node">
<title>Node4_1</title>
<ellipse fill="#40e0d0" stroke="#40e0d0" cx="287" cy="-105" rx="59.29" ry="18"/>
<text text-anchor="middle" x="287" y="-101.3" font-family="Times,serif" font-size="14.00">वेदपारगैः(4.1)</text>
</g>
<!-- Node6_2 -->
<g id="node2" class="node">
<title>Node6_2</title>
<ellipse fill="#40e0d0" stroke="#40e0d0" cx="287" cy="-192" rx="45.49" ry="18"/>
<text text-anchor="middle" x="287" y="-188.3" font-family="Times,serif" font-size="14.00">श्रेष्ठैः(6.2)</text>
</g>
<!-- Node4_1&#45;&gt;Node6_2 -->
<g id="edge5" class="edge">
<title>Node4_1&#45;&gt;Node6_2</title>
<path fill="none" stroke="black" d="M287,-133.27C287,-146.58 287,-162.19 287,-173.82"/>
<polygon fill="black" stroke="black" points="290.5,-133.2 287,-123.2 283.5,-133.2 290.5,-133.2"/>
<text text-anchor="middle" x="309.5" y="-144.8" font-family="Times,serif" font-size="14.00">विशेषणम्</text>
</g>
<!-- Node1_1 -->
<g id="node4" class="node">
<title>Node1_1</title>
<ellipse fill="#00bfff" stroke="#00bfff" cx="287" cy="-279" rx="63.09" ry="18"/>
<text text-anchor="middle" x="287" y="-275.3" font-family="Times,serif" font-size="14.00">प्रादुष्कृताः(1.1)</text>
</g>
<!-- Node6_2&#45;&gt;Node1_1 -->
<g id="edge7" class="edge">
<title>Node6_2&#45;&gt;Node1_1</title>
<path fill="none" stroke="black" d="M287,-220.27C287,-233.58 287,-249.19 287,-260.82"/>
<polygon fill="black" stroke="black" points="290.5,-220.2 287,-210.2 283.5,-220.2 290.5,-220.2"/>
<text text-anchor="middle" x="298" y="-231.8" font-family="Times,serif" font-size="14.00">कर्ता</text>
</g>
<!-- Node9_2 -->
<g id="node3" class="node">
<title>Node9_2</title>
<ellipse fill="#40e0d0" stroke="#40e0d0" cx="165" cy="-105" rx="44.69" ry="18"/>
<text text-anchor="middle" x="165" y="-101.3" font-family="Times,serif" font-size="14.00">धनैः(9.2)</text>
</g>
<!-- Node9_2&#45;&gt;Node6_2 -->
<g id="edge11" class="edge">
<title>Node9_2&#45;&gt;Node6_2</title>
<path fill="none" stroke="black" d="M194.78,-126.75C216.57,-141.94 245.64,-162.19 265.27,-175.86"/>
<polygon fill="black" stroke="black" points="196.73,-123.85 186.53,-121 192.73,-129.59 196.73,-123.85"/>
<text text-anchor="middle" x="255.5" y="-144.8" font-family="Times,serif" font-size="14.00">विशेषणम्</text>
</g>
<!-- Node2_1 -->
<g id="node5" class="node">
<title>Node2_1</title>
<ellipse fill="#ffff00" stroke="#ffff00" cx="52" cy="-105" rx="48.19" ry="18"/>
<text text-anchor="middle" x="52" y="-101.3" font-family="Times,serif" font-size="14.00">यथा&#45;(2.1)</text>
</g>
<!-- Node2_2 -->
<g id="node6" class="node">
<title>Node2_2</title>
<ellipse fill="#00bfff" stroke="#00bfff" cx="52" cy="-192" rx="51.99" ry="18"/>
<text text-anchor="middle" x="52" y="-188.3" font-family="Times,serif" font-size="14.00">न्यायम्(2.2)</text>
</g>
<!-- Node2_1&#45;&gt;Node2_2 -->
<g id="edge1" class="edge">
<title>Node2_1&#45;&gt;Node2_2</title>
<path fill="none" stroke="black" d="M52,-133.27C52,-146.58 52,-162.19 52,-173.82"/>
<polygon fill="black" stroke="black" points="55.5,-133.2 52,-123.2 48.5,-133.2 55.5,-133.2"/>
<text text-anchor="middle" x="69" y="-144.8" font-family="Times,serif" font-size="14.00">समासः</text>
</g>
<!-- Node2_2&#45;&gt;Node1_1 -->
<g id="edge2" class="edge">
<title>Node2_2&#45;&gt;Node1_1</title>
<path fill="none" stroke="black" d="M91.04,-211C96.69,-213.44 102.47,-215.85 108,-218 154.41,-236.09 208.81,-253.85 245.35,-265.3"/>
<polygon fill="black" stroke="black" points="92.27,-207.72 81.7,-206.9 89.45,-214.13 92.27,-207.72"/>
<text text-anchor="middle" x="211" y="-231.8" font-family="Times,serif" font-size="14.00">क्रियाविशेषणम्</text>
</g>
<!-- Node3_1 -->
<g id="node7" class="node">
<title>Node3_1</title>
<ellipse fill="#00bfff" stroke="#00bfff" cx="415" cy="-192" rx="53.09" ry="18"/>
<text text-anchor="middle" x="415" y="-188.3" font-family="Times,serif" font-size="14.00">अग्नयः(3.1)</text>
</g>
<!-- Node3_1&#45;&gt;Node1_1 -->
<g id="edge3" class="edge">
<title>Node3_1&#45;&gt;Node1_1</title>
<path fill="none" stroke="black" d="M383.31,-214.04C360.89,-228.93 331.31,-248.57 310.87,-262.15"/>
<polygon fill="black" stroke="black" points="385.42,-216.84 391.82,-208.39 381.55,-211.01 385.42,-216.84"/>
<text text-anchor="middle" x="367" y="-231.8" font-family="Times,serif" font-size="14.00">कर्म</text>
</g>
<!-- Node5_1 -->
<g id="node8" class="node">
<title>Node5_1</title>
<ellipse fill="#ff1975" stroke="#ff1975" cx="441" cy="-279" rx="59.29" ry="18"/>
<text text-anchor="middle" x="441" y="-275.3" font-family="Times,serif" font-size="14.00">व्यराजन्त(5.1)</text>
</g>
<!-- Node3_1&#45;&gt;Node5_1 -->
<g id="edge4" class="edge">
<title>Node3_1&#45;&gt;Node5_1</title>
<path fill="none" stroke="black" stroke-dasharray="1,5" d="M423.21,-219.87C427.31,-233.27 432.15,-249.08 435.74,-260.82"/>
<polygon fill="black" stroke="black" points="426.53,-218.74 420.26,-210.2 419.84,-220.79 426.53,-218.74"/>
<text text-anchor="middle" x="440" y="-231.8" font-family="Times,serif" font-size="14.00">कर्ता</text>
</g>
<!-- Node6_1 -->
<g id="node9" class="node">
<title>Node6_1</title>
<ellipse fill="#ffff00" stroke="#ffff00" cx="412" cy="-105" rx="48.19" ry="18"/>
<text text-anchor="middle" x="412" y="-101.3" font-family="Times,serif" font-size="14.00">द्विज&#45;(6.1)</text>
</g>
<!-- Node6_1&#45;&gt;Node6_2 -->
<g id="edge6" class="edge">
<title>Node6_1&#45;&gt;Node6_2</title>
<path fill="none" stroke="black" d="M381.42,-126.79C358.94,-142.07 328.93,-162.48 308.83,-176.15"/>
<polygon fill="black" stroke="black" points="383.63,-129.52 389.94,-121 379.7,-123.73 383.63,-129.52"/>
<text text-anchor="middle" x="373" y="-144.8" font-family="Times,serif" font-size="14.00">समासः</text>
</g>
<!-- Node7_1 -->
<g id="node10" class="node">
<title>Node7_1</title>
<ellipse fill="#ff99ff" stroke="#ff99ff" cx="529" cy="-105" rx="42.49" ry="18"/>
<text text-anchor="middle" x="529" y="-101.3" font-family="Times,serif" font-size="14.00">तत्र(7.1)</text>
</g>
<!-- Node8_1 -->
<g id="node11" class="node">
<title>Node8_1</title>
<ellipse fill="#ff99ff" stroke="#ff99ff" cx="529" cy="-192" rx="42.49" ry="18"/>
<text text-anchor="middle" x="529" y="-188.3" font-family="Times,serif" font-size="14.00">तत्र(8.1)</text>
</g>
<!-- Node7_1&#45;&gt;Node8_1 -->
<g id="edge8" class="edge">
<title>Node7_1&#45;&gt;Node8_1</title>
<path fill="none" stroke="black" d="M529,-133.27C529,-146.58 529,-162.19 529,-173.82"/>
<polygon fill="black" stroke="black" points="532.5,-133.2 529,-123.2 525.5,-133.2 532.5,-133.2"/>
<text text-anchor="middle" x="543" y="-144.8" font-family="Times,serif" font-size="14.00">वीप्सा</text>
</g>
<!-- Node8_1&#45;&gt;Node5_1 -->
<g id="edge9" class="edge">
<title>Node8_1&#45;&gt;Node5_1</title>
<path fill="none" stroke="black" d="M505.07,-216.11C490.21,-230.47 471.45,-248.59 458.07,-261.5"/>
<polygon fill="black" stroke="black" points="507.68,-218.45 512.44,-208.99 502.82,-213.42 507.68,-218.45"/>
<text text-anchor="middle" x="522" y="-231.8" font-family="Times,serif" font-size="14.00">देशाधिकरणम्</text>
</g>
<!-- Node9_1 -->
<g id="node12" class="node">
<title>Node9_1</title>
<ellipse fill="#ffff00" stroke="#ffff00" cx="165" cy="-18" rx="50.89" ry="18"/>
<text text-anchor="middle" x="165" y="-14.3" font-family="Times,serif" font-size="14.00">तपस्&#45;(9.1)</text>
</g>
<!-- Node9_1&#45;&gt;Node9_2 -->
<g id="edge10" class="edge">
<title>Node9_1&#45;&gt;Node9_2</title>
<path fill="none" stroke="black" d="M165,-46.27C165,-59.58 165,-75.19 165,-86.82"/>
<polygon fill="black" stroke="black" points="168.5,-46.2 165,-36.2 161.5,-46.2 168.5,-46.2"/>
<text text-anchor="middle" x="182" y="-57.8" font-family="Times,serif" font-size="14.00">समासः</text>
</g>
</g>
</svg>
