<?xml version="1.0" encoding="UTF-8" standalone="no"?>
<!DOCTYPE svg PUBLIC "-//W3C//DTD SVG 1.1//EN"
 "http://www.w3.org/Graphics/SVG/1.1/DTD/svg11.dtd">
<!-- Generated by graphviz version 2.43.0 (0)
 -->
<!-- Title: G Pages: 1 -->
<svg width="1037pt" height="250pt"
 viewBox="0.00 0.00 1037.00 250.00" xmlns="http://www.w3.org/2000/svg" xmlns:xlink="http://www.w3.org/1999/xlink">
<g id="graph0" class="graph" transform="scale(1 1) rotate(0) translate(4 246)">
<title>G</title>
<polygon fill="#fffacd" stroke="transparent" points="-4,4 -4,-246 1033,-246 1033,4 -4,4"/>
<g id="clust1" class="cluster">
<title>cluster_1</title>
<polygon fill="#fffacd" stroke="black" points="238,-95 238,-234 581,-234 581,-95 238,-95"/>
</g>
<g id="clust2" class="cluster">
<title>cluster_2</title>
<polygon fill="#fffacd" stroke="black" points="8,-8 8,-147 126,-147 126,-8 8,-8"/>
</g>
<!-- Node3_1 -->
<g id="node1" class="node">
<title>Node3_1</title>
<ellipse fill="#00bfff" stroke="#00bfff" cx="296" cy="-121" rx="50.09" ry="18"/>
<text text-anchor="middle" x="296" y="-117.3" font-family="Times,serif" font-size="14.00">तप्तम्(3.1)</text>
</g>
<!-- Node9_1 -->
<g id="node2" class="node">
<title>Node9_1</title>
<ellipse fill="#00bfff" stroke="#00bfff" cx="343" cy="-208" rx="52.79" ry="18"/>
<text text-anchor="middle" x="343" y="-204.3" font-family="Times,serif" font-size="14.00">शक्यम्(9.1)</text>
</g>
<!-- Node3_1&#45;&gt;Node9_1 -->
<g id="edge4" class="edge">
<title>Node3_1&#45;&gt;Node9_1</title>
<path fill="none" stroke="black" d="M310.27,-147.8C317.88,-161.58 327.04,-178.14 333.73,-190.24"/>
<polygon fill="black" stroke="black" points="313.19,-145.85 305.29,-138.79 307.06,-149.24 313.19,-145.85"/>
<text text-anchor="middle" x="345.5" y="-160.8" font-family="Times,serif" font-size="14.00">समुच्चितः</text>
</g>
<!-- Node5_1 -->
<g id="node3" class="node">
<title>Node5_1</title>
<ellipse fill="#ff1975" stroke="#ff1975" cx="411" cy="-121" rx="47.39" ry="18"/>
<text text-anchor="middle" x="411" y="-117.3" font-family="Times,serif" font-size="14.00">दत्तम्(5.1)</text>
</g>
<!-- Node5_1&#45;&gt;Node9_1 -->
<g id="edge6" class="edge">
<title>Node5_1&#45;&gt;Node9_1</title>
<path fill="none" stroke="black" d="M391.9,-146.78C385.61,-154.86 378.55,-163.85 372,-172 367.15,-178.03 361.77,-184.57 356.97,-190.35"/>
<polygon fill="black" stroke="black" points="394.76,-148.81 398.12,-138.76 389.23,-144.52 394.76,-148.81"/>
<text text-anchor="middle" x="405.5" y="-160.8" font-family="Times,serif" font-size="14.00">समुच्चितः</text>
</g>
<!-- Node7_1 -->
<g id="node4" class="node">
<title>Node7_1</title>
<ellipse fill="#00bfff" stroke="#00bfff" cx="525" cy="-121" rx="48.19" ry="18"/>
<text text-anchor="middle" x="525" y="-117.3" font-family="Times,serif" font-size="14.00">कृतम्(7.1)</text>
</g>
<!-- Node7_1&#45;&gt;Node9_1 -->
<g id="edge8" class="edge">
<title>Node7_1&#45;&gt;Node9_1</title>
<path fill="none" stroke="black" d="M490.6,-141.76C473.27,-151.38 451.79,-162.83 432,-172 414.53,-180.1 394.61,-188.04 378.06,-194.31"/>
<polygon fill="black" stroke="black" points="492.74,-144.57 499.76,-136.62 489.32,-138.46 492.74,-144.57"/>
<text text-anchor="middle" x="482.5" y="-160.8" font-family="Times,serif" font-size="14.00">समुच्चितः</text>
</g>
<!-- Node8_1 -->
<g id="node5" class="node">
<title>Node8_1</title>
<ellipse fill="#40e0d0" stroke="#40e0d0" cx="67" cy="-34" rx="50.89" ry="18"/>
<text text-anchor="middle" x="67" y="-30.3" font-family="Times,serif" font-size="14.00">अनया(8.1)</text>
</g>
<!-- Node1_2 -->
<g id="node6" class="node">
<title>Node1_2</title>
<ellipse fill="#40e0d0" stroke="#40e0d0" cx="70" cy="-121" rx="48.19" ry="18"/>
<text text-anchor="middle" x="70" y="-117.3" font-family="Times,serif" font-size="14.00">स्थया(1.2)</text>
</g>
<!-- Node8_1&#45;&gt;Node1_2 -->
<g id="edge9" class="edge">
<title>Node8_1&#45;&gt;Node1_2</title>
<path fill="none" stroke="black" d="M67.96,-62.27C68.43,-75.58 68.98,-91.19 69.39,-102.82"/>
<polygon fill="black" stroke="black" points="71.46,-62.07 67.61,-52.2 64.46,-62.32 71.46,-62.07"/>
<text text-anchor="middle" x="91.5" y="-73.8" font-family="Times,serif" font-size="14.00">विशेषणम्</text>
</g>
<!-- Node1_2&#45;&gt;Node9_1 -->
<g id="edge2" class="edge">
<title>Node1_2&#45;&gt;Node9_1</title>
<path fill="none" stroke="black" d="M115.55,-136.18C168.83,-152.77 256.03,-179.92 305.55,-195.34"/>
<polygon fill="black" stroke="black" points="116.28,-132.74 105.69,-133.11 114.2,-139.43 116.28,-132.74"/>
<text text-anchor="middle" x="234" y="-160.8" font-family="Times,serif" font-size="14.00">कर्ता</text>
</g>
<!-- Node1_1 -->
<g id="node7" class="node">
<title>Node1_1</title>
<ellipse fill="#ffff00" stroke="#ffff00" cx="186" cy="-34" rx="50.09" ry="18"/>
<text text-anchor="middle" x="186" y="-30.3" font-family="Times,serif" font-size="14.00">राज्य&#45;(1.1)</text>
</g>
<!-- Node1_1&#45;&gt;Node1_2 -->
<g id="edge1" class="edge">
<title>Node1_1&#45;&gt;Node1_2</title>
<path fill="none" stroke="black" d="M156.57,-56.68C144.61,-65.48 130.65,-75.73 118,-85 109.18,-91.46 99.43,-98.57 91.04,-104.68"/>
<polygon fill="black" stroke="black" points="158.9,-59.31 164.88,-50.56 154.75,-53.67 158.9,-59.31"/>
<text text-anchor="middle" x="154" y="-73.8" font-family="Times,serif" font-size="14.00">समासः</text>
</g>
<!-- Node2_1 -->
<g id="node8" class="node">
<title>Node2_1</title>
<ellipse fill="#00bfff" stroke="#00bfff" cx="298" cy="-34" rx="44.39" ry="18"/>
<text text-anchor="middle" x="298" y="-30.3" font-family="Times,serif" font-size="14.00">तपः(2.1)</text>
</g>
<!-- Node2_1&#45;&gt;Node3_1 -->
<g id="edge3" class="edge">
<title>Node2_1&#45;&gt;Node3_1</title>
<path fill="none" stroke="black" d="M297.36,-62.27C297.05,-75.58 296.68,-91.19 296.4,-102.82"/>
<polygon fill="black" stroke="black" points="300.86,-62.28 297.6,-52.2 293.86,-62.12 300.86,-62.28"/>
<text text-anchor="middle" x="307" y="-73.8" font-family="Times,serif" font-size="14.00">कर्म</text>
</g>
<!-- Node4_1 -->
<g id="node9" class="node">
<title>Node4_1</title>
<ellipse fill="#00bfff" stroke="#00bfff" cx="411" cy="-34" rx="48.99" ry="18"/>
<text text-anchor="middle" x="411" y="-30.3" font-family="Times,serif" font-size="14.00">दानम्(4.1)</text>
</g>
<!-- Node4_1&#45;&gt;Node5_1 -->
<g id="edge5" class="edge">
<title>Node4_1&#45;&gt;Node5_1</title>
<path fill="none" stroke="black" d="M411,-62.27C411,-75.58 411,-91.19 411,-102.82"/>
<polygon fill="black" stroke="black" points="414.5,-62.2 411,-52.2 407.5,-62.2 414.5,-62.2"/>
<text text-anchor="middle" x="420" y="-73.8" font-family="Times,serif" font-size="14.00">कर्म</text>
</g>
<!-- Node6_1 -->
<g id="node10" class="node">
<title>Node6_1</title>
<ellipse fill="#00bfff" stroke="#00bfff" cx="525" cy="-34" rx="46.29" ry="18"/>
<text text-anchor="middle" x="525" y="-30.3" font-family="Times,serif" font-size="14.00">व्रतम्(6.1)</text>
</g>
<!-- Node6_1&#45;&gt;Node7_1 -->
<g id="edge7" class="edge">
<title>Node6_1&#45;&gt;Node7_1</title>
<path fill="none" stroke="black" d="M525,-62.27C525,-75.58 525,-91.19 525,-102.82"/>
<polygon fill="black" stroke="black" points="528.5,-62.2 525,-52.2 521.5,-62.2 528.5,-62.2"/>
<text text-anchor="middle" x="534" y="-73.8" font-family="Times,serif" font-size="14.00">कर्म</text>
</g>
<!-- Node10_1 -->
<g id="node11" class="node">
<title>Node10_1</title>
<ellipse fill="#ff99ff" stroke="#ff99ff" cx="640" cy="-121" rx="49.29" ry="18"/>
<text text-anchor="middle" x="640" y="-117.3" font-family="Times,serif" font-size="14.00">अद्य(10.1)</text>
</g>
<!-- Node12_1 -->
<g id="node12" class="node">
<title>Node12_1</title>
<ellipse fill="#ff1975" stroke="#ff1975" cx="808" cy="-208" rx="61.19" ry="18"/>
<text text-anchor="middle" x="808" y="-204.3" font-family="Times,serif" font-size="14.00">श्रूयताम्(12.1)</text>
</g>
<!-- Node10_1&#45;&gt;Node12_1 -->
<g id="edge10" class="edge">
<title>Node10_1&#45;&gt;Node12_1</title>
<path fill="none" stroke="black" d="M660.38,-146.01C669.29,-155.24 680.35,-165.18 692,-172 712.24,-183.85 736.86,-192.01 758.2,-197.46"/>
<polygon fill="black" stroke="black" points="662.81,-143.48 653.45,-138.51 657.67,-148.23 662.81,-143.48"/>
<text text-anchor="middle" x="727.5" y="-160.8" font-family="Times,serif" font-size="14.00">कालाधिकरणम्</text>
</g>
<!-- Node11_1 -->
<g id="node13" class="node">
<title>Node11_1</title>
<ellipse fill="#ff99ff" stroke="#ff99ff" cx="754" cy="-121" rx="46.59" ry="18"/>
<text text-anchor="middle" x="754" y="-117.3" font-family="Times,serif" font-size="14.00">इह(11.1)</text>
</g>
<!-- Node11_1&#45;&gt;Node12_1 -->
<g id="edge11" class="edge">
<title>Node11_1&#45;&gt;Node12_1</title>
<path fill="none" stroke="black" d="M763.72,-148.42C767.11,-156.29 771.27,-164.74 776,-172 780.23,-178.48 785.66,-184.93 790.85,-190.48"/>
<polygon fill="black" stroke="black" points="766.86,-146.85 759.85,-138.91 760.37,-149.49 766.86,-146.85"/>
<text text-anchor="middle" x="808" y="-160.8" font-family="Times,serif" font-size="14.00">देशाधिकरणम्</text>
</g>
<!-- Node13_1 -->
<g id="node14" class="node">
<title>Node13_1</title>
<ellipse fill="#ff99ff" stroke="#ff99ff" cx="862" cy="-121" rx="43.59" ry="18"/>
<text text-anchor="middle" x="862" y="-117.3" font-family="Times,serif" font-size="14.00">च(13.1)</text>
</g>
<!-- Node13_1&#45;&gt;Node12_1 -->
<g id="edge12" class="edge">
<title>Node13_1&#45;&gt;Node12_1</title>
<path fill="none" stroke="black" d="M852.28,-148.42C848.89,-156.29 844.73,-164.74 840,-172 835.77,-178.48 830.34,-184.93 825.15,-190.48"/>
<polygon fill="black" stroke="black" points="855.63,-149.49 856.15,-138.91 849.14,-146.85 855.63,-149.49"/>
<text text-anchor="middle" x="866.5" y="-160.8" font-family="Times,serif" font-size="14.00">सम्बन्धः</text>
</g>
<!-- Node14_1 -->
<g id="node15" class="node">
<title>Node14_1</title>
<ellipse fill="#93db70" stroke="#93db70" cx="974" cy="-121" rx="50.09" ry="18"/>
<text text-anchor="middle" x="974" y="-117.3" font-family="Times,serif" font-size="14.00">वचः(14.1)</text>
</g>
<!-- Node14_1&#45;&gt;Node12_1 -->
<g id="edge13" class="edge">
<title>Node14_1&#45;&gt;Node12_1</title>
<path fill="none" stroke="black" d="M941.51,-142.39C925.89,-151.86 906.74,-162.99 889,-172 874.11,-179.56 857.22,-187.03 842.72,-193.11"/>
<polygon fill="black" stroke="black" points="943.56,-145.24 950.26,-137.03 939.91,-139.27 943.56,-145.24"/>
<text text-anchor="middle" x="924" y="-160.8" font-family="Times,serif" font-size="14.00">कर्म</text>
</g>
<!-- Node15_1 -->
<g id="node16" class="node">
<title>Node15_1</title>
<ellipse fill="#87ceeb" stroke="#87ceeb" cx="974" cy="-34" rx="48.19" ry="18"/>
<text text-anchor="middle" x="974" y="-30.3" font-family="Times,serif" font-size="14.00">मम(15.1)</text>
</g>
<!-- Node15_1&#45;&gt;Node14_1 -->
<g id="edge14" class="edge">
<title>Node15_1&#45;&gt;Node14_1</title>
<path fill="none" stroke="black" d="M974,-62.27C974,-75.58 974,-91.19 974,-102.82"/>
<polygon fill="black" stroke="black" points="977.5,-62.2 974,-52.2 970.5,-62.2 977.5,-62.2"/>
<text text-anchor="middle" x="1001.5" y="-73.8" font-family="Times,serif" font-size="14.00">षष्ठीसम्बन्धः</text>
</g>
</g>
</svg>
