<?xml version="1.0" encoding="UTF-8" standalone="no"?>
<!DOCTYPE svg PUBLIC "-//W3C//DTD SVG 1.1//EN"
 "http://www.w3.org/Graphics/SVG/1.1/DTD/svg11.dtd">
<!-- Generated by graphviz version 2.43.0 (0)
 -->
<!-- Title: G Pages: 1 -->
<svg width="759pt" height="321pt"
 viewBox="0.00 0.00 759.15 321.00" xmlns="http://www.w3.org/2000/svg" xmlns:xlink="http://www.w3.org/1999/xlink">
<g id="graph0" class="graph" transform="scale(1 1) rotate(0) translate(4 317)">
<title>G</title>
<polygon fill="#fffacd" stroke="transparent" points="-4,4 -4,-317 755.15,-317 755.15,4 -4,4"/>
<g id="clust1" class="cluster">
<title>cluster_1</title>
<polygon fill="#fffacd" stroke="black" points="573,-95 573,-234 705,-234 705,-95 573,-95"/>
</g>
<g id="clust2" class="cluster">
<title>cluster_2</title>
<polygon fill="#fffacd" stroke="black" points="152,-8 152,-147 377,-147 377,-8 152,-8"/>
</g>
<g id="clust3" class="cluster">
<title>cluster_3</title>
<polygon fill="#fffacd" stroke="black" points="8,-95 8,-234 144,-234 144,-95 8,-95"/>
</g>
<!-- Node2_1 -->
<g id="node1" class="node">
<title>Node2_1</title>
<ellipse fill="#00bfff" stroke="#00bfff" cx="639" cy="-121" rx="48.99" ry="18"/>
<text text-anchor="middle" x="639" y="-117.3" font-family="Times,serif" font-size="14.00">उक्ता(2.1)</text>
</g>
<!-- Node3_1 -->
<g id="node2" class="node">
<title>Node3_1</title>
<ellipse fill="#00bfff" stroke="#00bfff" cx="639" cy="-208" rx="57.69" ry="18"/>
<text text-anchor="middle" x="639" y="-204.3" font-family="Times,serif" font-size="14.00">सौबलेयी(3.1)</text>
</g>
<!-- Node2_1&#45;&gt;Node3_1 -->
<g id="edge2" class="edge">
<title>Node2_1&#45;&gt;Node3_1</title>
<path fill="none" stroke="black" d="M639,-149.27C639,-162.58 639,-178.19 639,-189.82"/>
<polygon fill="black" stroke="black" points="642.5,-149.2 639,-139.2 635.5,-149.2 642.5,-149.2"/>
<text text-anchor="middle" x="661.5" y="-160.8" font-family="Times,serif" font-size="14.00">विशेषणम्</text>
</g>
<!-- Node7_1 -->
<g id="node9" class="node">
<title>Node7_1</title>
<ellipse fill="#ff1975" stroke="#ff1975" cx="347" cy="-295" rx="48.99" ry="18"/>
<text text-anchor="middle" x="347" y="-291.3" font-family="Times,serif" font-size="14.00">उवाच(7.1)</text>
</g>
<!-- Node3_1&#45;&gt;Node7_1 -->
<g id="edge3" class="edge">
<title>Node3_1&#45;&gt;Node7_1</title>
<path fill="none" stroke="black" d="M592.64,-225.37C562.91,-235.62 523.39,-248.76 488,-259 454.32,-268.74 415.65,-278.22 387.33,-284.85"/>
<polygon fill="black" stroke="black" points="594.02,-228.6 602.32,-222.02 591.73,-221.98 594.02,-228.6"/>
<text text-anchor="middle" x="544" y="-247.8" font-family="Times,serif" font-size="14.00">कर्ता</text>
</g>
<!-- Node9_1 -->
<g id="node3" class="node">
<title>Node9_1</title>
<ellipse fill="#93db70" stroke="#93db70" cx="327" cy="-34" rx="42.49" ry="18"/>
<text text-anchor="middle" x="327" y="-30.3" font-family="Times,serif" font-size="14.00">तत्(9.1)</text>
</g>
<!-- Node11_2 -->
<g id="node4" class="node">
<title>Node11_2</title>
<ellipse fill="#93db70" stroke="#93db70" cx="260" cy="-121" rx="57.69" ry="18"/>
<text text-anchor="middle" x="260" y="-117.3" font-family="Times,serif" font-size="14.00">वचनम्(11.2)</text>
</g>
<!-- Node9_1&#45;&gt;Node11_2 -->
<g id="edge8" class="edge">
<title>Node9_1&#45;&gt;Node11_2</title>
<path fill="none" stroke="black" d="M307.88,-59.26C296.75,-73.37 283.01,-90.81 273.11,-103.37"/>
<polygon fill="black" stroke="black" points="310.64,-61.41 314.08,-51.39 305.14,-57.08 310.64,-61.41"/>
<text text-anchor="middle" x="320.5" y="-73.8" font-family="Times,serif" font-size="14.00">विशेषणम्</text>
</g>
<!-- Node14_1 -->
<g id="node6" class="node">
<title>Node14_1</title>
<ellipse fill="#93db70" stroke="#93db70" cx="76" cy="-208" rx="59.59" ry="18"/>
<text text-anchor="middle" x="76" y="-204.3" font-family="Times,serif" font-size="14.00">वाक्यम्(14.1)</text>
</g>
<!-- Node11_2&#45;&gt;Node14_1 -->
<g id="edge11" class="edge">
<title>Node11_2&#45;&gt;Node14_1</title>
<path fill="none" stroke="black" d="M219.65,-140.64C185.87,-156.24 138.35,-178.2 107.37,-192.51"/>
<polygon fill="black" stroke="black" points="221.18,-143.79 228.79,-136.42 218.24,-137.44 221.18,-143.79"/>
<text text-anchor="middle" x="202.5" y="-160.8" font-family="Times,serif" font-size="14.00">समुच्चितः</text>
</g>
<!-- Node10_1 -->
<g id="node5" class="node">
<title>Node10_1</title>
<ellipse fill="#93db70" stroke="#93db70" cx="213" cy="-34" rx="53.09" ry="18"/>
<text text-anchor="middle" x="213" y="-30.3" font-family="Times,serif" font-size="14.00">सर्वम्(10.1)</text>
</g>
<!-- Node10_1&#45;&gt;Node11_2 -->
<g id="edge9" class="edge">
<title>Node10_1&#45;&gt;Node11_2</title>
<path fill="none" stroke="black" d="M224.12,-61.37C227.65,-69.12 231.76,-77.52 236,-85 239.49,-91.15 243.74,-97.61 247.68,-103.28"/>
<polygon fill="black" stroke="black" points="227.23,-59.75 219.97,-52.02 220.83,-62.58 227.23,-59.75"/>
<text text-anchor="middle" x="258.5" y="-73.8" font-family="Times,serif" font-size="14.00">विशेषणम्</text>
</g>
<!-- Node14_1&#45;&gt;Node7_1 -->
<g id="edge14" class="edge">
<title>Node14_1&#45;&gt;Node7_1</title>
<path fill="none" stroke="black" d="M125.64,-224.57C179.33,-241.41 263.6,-267.84 311.18,-282.76"/>
<polygon fill="black" stroke="black" points="126.58,-221.2 115.99,-221.54 124.48,-227.87 126.58,-221.2"/>
<text text-anchor="middle" x="237" y="-247.8" font-family="Times,serif" font-size="14.00">कर्म</text>
</g>
<!-- Node12_1 -->
<g id="node7" class="node">
<title>Node12_1</title>
<ellipse fill="#93db70" stroke="#93db70" cx="76" cy="-121" rx="51.19" ry="18"/>
<text text-anchor="middle" x="76" y="-117.3" font-family="Times,serif" font-size="14.00">स्वम्(12.1)</text>
</g>
<!-- Node12_1&#45;&gt;Node14_1 -->
<g id="edge12" class="edge">
<title>Node12_1&#45;&gt;Node14_1</title>
<path fill="none" stroke="black" d="M76,-149.27C76,-162.58 76,-178.19 76,-189.82"/>
<polygon fill="black" stroke="black" points="79.5,-149.2 76,-139.2 72.5,-149.2 79.5,-149.2"/>
<text text-anchor="middle" x="98.5" y="-160.8" font-family="Times,serif" font-size="14.00">विशेषणम्</text>
</g>
<!-- Node1_1 -->
<g id="node8" class="node">
<title>Node1_1</title>
<ellipse fill="#ff99ff" stroke="#ff99ff" cx="597" cy="-34" rx="44.39" ry="18"/>
<text text-anchor="middle" x="597" y="-30.3" font-family="Times,serif" font-size="14.00">इति(1.1)</text>
</g>
<!-- Node1_1&#45;&gt;Node2_1 -->
<g id="edge1" class="edge">
<title>Node1_1&#45;&gt;Node2_1</title>
<path fill="none" stroke="black" d="M609.75,-60.8C616.56,-74.58 624.74,-91.14 630.72,-103.24"/>
<polygon fill="black" stroke="black" points="612.87,-59.21 605.3,-51.79 606.59,-62.31 612.87,-59.21"/>
<text text-anchor="middle" x="638.5" y="-73.8" font-family="Times,serif" font-size="14.00">सम्बन्धः</text>
</g>
<!-- Node4_1 -->
<g id="node10" class="node">
<title>Node4_1</title>
<ellipse fill="#ff99ff" stroke="#ff99ff" cx="528" cy="-121" rx="37.09" ry="18"/>
<text text-anchor="middle" x="528" y="-117.3" font-family="Times,serif" font-size="14.00">तु(4.1)</text>
</g>
<!-- Node4_1&#45;&gt;Node3_1 -->
<g id="edge4" class="edge">
<title>Node4_1&#45;&gt;Node3_1</title>
<path fill="none" stroke="black" d="M555.26,-142.87C574.72,-157.78 600.5,-177.52 618.28,-191.14"/>
<polygon fill="black" stroke="black" points="557.15,-139.91 547.08,-136.61 552.89,-145.47 557.15,-139.91"/>
<text text-anchor="middle" x="608.5" y="-160.8" font-family="Times,serif" font-size="14.00">सम्बन्धः</text>
</g>
<!-- Node5_1 -->
<g id="node11" class="node">
<title>Node5_1</title>
<ellipse fill="#40e0d0" stroke="#40e0d0" cx="705" cy="-34" rx="46.29" ry="18"/>
<text text-anchor="middle" x="705" y="-30.3" font-family="Times,serif" font-size="14.00">राज्ञा(5.1)</text>
</g>
<!-- Node5_1&#45;&gt;Node2_1 -->
<g id="edge5" class="edge">
<title>Node5_1&#45;&gt;Node2_1</title>
<path fill="none" stroke="black" d="M685.86,-59.65C674.95,-73.7 661.58,-90.92 651.91,-103.37"/>
<polygon fill="black" stroke="black" points="688.91,-61.43 692.27,-51.39 683.38,-57.14 688.91,-61.43"/>
<text text-anchor="middle" x="686" y="-73.8" font-family="Times,serif" font-size="14.00">कर्ता</text>
</g>
<!-- Node6_1 -->
<g id="node12" class="node">
<title>Node6_1</title>
<ellipse fill="#93db70" stroke="#93db70" cx="239" cy="-208" rx="53.09" ry="18"/>
<text text-anchor="middle" x="239" y="-204.3" font-family="Times,serif" font-size="14.00">कुन्तीम्(6.1)</text>
</g>
<!-- Node6_1&#45;&gt;Node7_1 -->
<g id="edge6" class="edge">
<title>Node6_1&#45;&gt;Node7_1</title>
<path fill="none" stroke="black" d="M267.01,-231.05C285.83,-245.86 310.18,-265.02 327.05,-278.3"/>
<polygon fill="black" stroke="black" points="269.08,-228.22 259.06,-224.79 264.75,-233.72 269.08,-228.22"/>
<text text-anchor="middle" x="319.5" y="-247.8" font-family="Times,serif" font-size="14.00">गौणकर्म</text>
</g>
<!-- Node8_1 -->
<g id="node13" class="node">
<title>Node8_1</title>
<ellipse fill="#ff99ff" stroke="#ff99ff" cx="347" cy="-208" rx="36.29" ry="18"/>
<text text-anchor="middle" x="347" y="-204.3" font-family="Times,serif" font-size="14.00">ह(8.1)</text>
</g>
<!-- Node8_1&#45;&gt;Node7_1 -->
<g id="edge7" class="edge">
<title>Node8_1&#45;&gt;Node7_1</title>
<path fill="none" stroke="black" d="M347,-236.27C347,-249.58 347,-265.19 347,-276.82"/>
<polygon fill="black" stroke="black" points="350.5,-236.2 347,-226.2 343.5,-236.2 350.5,-236.2"/>
<text text-anchor="middle" x="365.5" y="-247.8" font-family="Times,serif" font-size="14.00">सम्बन्धः</text>
</g>
<!-- Node11_1 -->
<g id="node14" class="node">
<title>Node11_1</title>
<ellipse fill="#ffff00" stroke="#ffff00" cx="440" cy="-34" rx="52.79" ry="18"/>
<text text-anchor="middle" x="440" y="-30.3" font-family="Times,serif" font-size="14.00">राज&#45;(11.1)</text>
</g>
<!-- Node11_1&#45;&gt;Node11_2 -->
<g id="edge10" class="edge">
<title>Node11_1&#45;&gt;Node11_2</title>
<path fill="none" stroke="black" d="M405.19,-54.9C387.92,-64.46 366.61,-75.82 347,-85 330.34,-92.8 311.44,-100.53 295.52,-106.74"/>
<polygon fill="black" stroke="black" points="407.31,-57.72 414.34,-49.79 403.9,-51.61 407.31,-57.72"/>
<text text-anchor="middle" x="393" y="-73.8" font-family="Times,serif" font-size="14.00">समासः</text>
</g>
<!-- Node13_1 -->
<g id="node15" class="node">
<title>Node13_1</title>
<ellipse fill="#ff99ff" stroke="#ff99ff" cx="429" cy="-121" rx="43.59" ry="18"/>
<text text-anchor="middle" x="429" y="-117.3" font-family="Times,serif" font-size="14.00">च(13.1)</text>
</g>
<!-- Node13_1&#45;&gt;Node14_1 -->
<g id="edge13" class="edge">
<title>Node13_1&#45;&gt;Node14_1</title>
<path fill="none" stroke="black" d="M395.99,-140.74C391.07,-143.08 385.97,-145.26 381,-147 357.26,-155.32 206.23,-183.36 125.98,-197.98"/>
<polygon fill="black" stroke="black" points="397.83,-143.74 405.19,-136.11 394.68,-137.48 397.83,-143.74"/>
<text text-anchor="middle" x="375" y="-160.8" font-family="Times,serif" font-size="14.00">समुच्चय_द्योतकः</text>
</g>
<!-- Node15_1 -->
<g id="node16" class="node">
<title>Node15_1</title>
<ellipse fill="#ff99ff" stroke="#ff99ff" cx="466" cy="-208" rx="64.99" ry="18"/>
<text text-anchor="middle" x="466" y="-204.3" font-family="Times,serif" font-size="14.00">विशेषवत्(15.1)</text>
</g>
<!-- Node15_1&#45;&gt;Node7_1 -->
<g id="edge15" class="edge">
<title>Node15_1&#45;&gt;Node7_1</title>
<path fill="none" stroke="black" d="M435.35,-230.89C414.4,-245.86 387.15,-265.32 368.48,-278.66"/>
<polygon fill="black" stroke="black" points="437.51,-233.65 443.62,-224.99 433.45,-227.95 437.51,-233.65"/>
<text text-anchor="middle" x="449" y="-247.8" font-family="Times,serif" font-size="14.00">क्रियाविशेषणम्</text>
</g>
</g>
</svg>
