<?xml version="1.0" encoding="UTF-8" standalone="no"?>
<!DOCTYPE svg PUBLIC "-//W3C//DTD SVG 1.1//EN"
 "http://www.w3.org/Graphics/SVG/1.1/DTD/svg11.dtd">
<!-- Generated by graphviz version 2.43.0 (0)
 -->
<!-- Title: G Pages: 1 -->
<svg width="890pt" height="218pt"
 viewBox="0.00 0.00 890.24 218.00" xmlns="http://www.w3.org/2000/svg" xmlns:xlink="http://www.w3.org/1999/xlink">
<g id="graph0" class="graph" transform="scale(1 1) rotate(0) translate(4 214)">
<title>G</title>
<polygon fill="#fffacd" stroke="transparent" points="-4,4 -4,-214 886.24,-214 886.24,4 -4,4"/>
<!-- Node1_1 -->
<g id="node1" class="node">
<title>Node1_1</title>
<ellipse fill="#6fffc3" stroke="#6fffc3" cx="55.9" cy="-105" rx="55.79" ry="18"/>
<text text-anchor="middle" x="55.9" y="-101.3" font-family="Times,serif" font-size="14.00">गान्धारि(1.1)</text>
</g>
<!-- Node3_1 -->
<g id="node2" class="node">
<title>Node3_1</title>
<ellipse fill="#ff1975" stroke="#ff1975" cx="243.9" cy="-192" rx="50.09" ry="18"/>
<text text-anchor="middle" x="243.9" y="-188.3" font-family="Times,serif" font-size="14.00">अस्मि(3.1)</text>
</g>
<!-- Node1_1&#45;&gt;Node3_1 -->
<g id="edge1" class="edge">
<title>Node1_1&#45;&gt;Node3_1</title>
<path fill="none" stroke="black" d="M90.95,-126.36C108.13,-135.94 129.29,-147.17 148.9,-156 168.13,-164.66 190.2,-172.89 208.23,-179.19"/>
<polygon fill="black" stroke="black" points="92.29,-123.09 81.86,-121.23 88.85,-129.19 92.29,-123.09"/>
<text text-anchor="middle" x="169.9" y="-144.8" font-family="Times,serif" font-size="14.00">सम्बोध्यः</text>
</g>
<!-- Node2_1 -->
<g id="node3" class="node">
<title>Node2_1</title>
<ellipse fill="#00bfff" stroke="#00bfff" cx="184.9" cy="-105" rx="55.49" ry="18"/>
<text text-anchor="middle" x="184.9" y="-101.3" font-family="Times,serif" font-size="14.00">परितुष्टः(2.1)</text>
</g>
<!-- Node2_1&#45;&gt;Node3_1 -->
<g id="edge2" class="edge">
<title>Node2_1&#45;&gt;Node3_1</title>
<path fill="none" stroke="black" d="M191.14,-133.12C193.7,-140.93 197.2,-149.17 201.9,-156 207.05,-163.51 214.25,-170.31 221.23,-175.88"/>
<polygon fill="black" stroke="black" points="194.43,-131.91 188.29,-123.27 187.71,-133.85 194.43,-131.91"/>
<text text-anchor="middle" x="240.9" y="-144.8" font-family="Times,serif" font-size="14.00">विधेय_विशेषणम्</text>
</g>
<!-- Node4_1 -->
<g id="node4" class="node">
<title>Node4_1</title>
<ellipse fill="#87ceeb" stroke="#87ceeb" cx="265.9" cy="-18" rx="50.09" ry="18"/>
<text text-anchor="middle" x="265.9" y="-14.3" font-family="Times,serif" font-size="14.00">वध्वाः(4.1)</text>
</g>
<!-- Node5_1 -->
<g id="node5" class="node">
<title>Node5_1</title>
<ellipse fill="#40e0d0" stroke="#40e0d0" cx="317.9" cy="-105" rx="59.59" ry="18"/>
<text text-anchor="middle" x="317.9" y="-101.3" font-family="Times,serif" font-size="14.00">शुश्रूषणेन(5.1)</text>
</g>
<!-- Node4_1&#45;&gt;Node5_1 -->
<g id="edge3" class="edge">
<title>Node4_1&#45;&gt;Node5_1</title>
<path fill="none" stroke="black" d="M279.16,-45.04C283.36,-52.86 288.14,-61.38 292.9,-69 296.69,-75.08 301.15,-81.52 305.25,-87.2"/>
<polygon fill="black" stroke="black" points="282.14,-43.18 274.38,-35.96 275.95,-46.44 282.14,-43.18"/>
<text text-anchor="middle" x="320.4" y="-57.8" font-family="Times,serif" font-size="14.00">षष्ठीसम्बन्धः</text>
</g>
<!-- Node5_1&#45;&gt;Node3_1 -->
<g id="edge4" class="edge">
<title>Node5_1&#45;&gt;Node3_1</title>
<path fill="none" stroke="black" d="M300.14,-130.87C293.98,-139.08 286.87,-148.12 279.9,-156 274.23,-162.4 267.63,-169.02 261.64,-174.77"/>
<polygon fill="black" stroke="black" points="303.05,-132.83 306.17,-122.7 297.42,-128.67 303.05,-132.83"/>
<text text-anchor="middle" x="302.4" y="-144.8" font-family="Times,serif" font-size="14.00">हेतुः</text>
</g>
<!-- Node6_1 -->
<g id="node6" class="node">
<title>Node6_1</title>
<ellipse fill="#ff99ff" stroke="#ff99ff" cx="369.9" cy="-18" rx="36.29" ry="18"/>
<text text-anchor="middle" x="369.9" y="-14.3" font-family="Times,serif" font-size="14.00">वै(6.1)</text>
</g>
<!-- Node6_1&#45;&gt;Node5_1 -->
<g id="edge5" class="edge">
<title>Node6_1&#45;&gt;Node5_1</title>
<path fill="none" stroke="black" d="M360.03,-45.33C356.64,-53.19 352.51,-61.66 347.9,-69 343.89,-75.37 338.78,-81.78 333.92,-87.34"/>
<polygon fill="black" stroke="black" points="363.37,-46.41 363.92,-35.83 356.89,-43.76 363.37,-46.41"/>
<text text-anchor="middle" x="374.4" y="-57.8" font-family="Times,serif" font-size="14.00">सम्बन्धः</text>
</g>
<!-- Node7_1 -->
<g id="node7" class="node">
<title>Node7_1</title>
<ellipse fill="#b4ffb4" stroke="#b4ffb4" cx="448.9" cy="-105" rx="53.09" ry="18"/>
<text text-anchor="middle" x="448.9" y="-101.3" font-family="Times,serif" font-size="14.00">तस्मात्(7.1)</text>
</g>
<!-- Node7_1&#45;&gt;Node3_1 -->
<g id="edge6" class="edge">
<title>Node7_1&#45;&gt;Node3_1</title>
<path fill="none" stroke="black" d="M406.92,-123.4C367.96,-139.56 310.81,-163.25 275.55,-177.87"/>
<polygon fill="black" stroke="black" points="408.52,-126.53 416.41,-119.47 405.83,-120.07 408.52,-126.53"/>
<text text-anchor="middle" x="389.4" y="-144.8" font-family="Times,serif" font-size="14.00">कार्य_द्योतकः</text>
</g>
<!-- Node8_1 -->
<g id="node8" class="node">
<title>Node8_1</title>
<ellipse fill="#00bfff" stroke="#00bfff" cx="563.9" cy="-105" rx="44.39" ry="18"/>
<text text-anchor="middle" x="563.9" y="-101.3" font-family="Times,serif" font-size="14.00">त्वम्(8.1)</text>
</g>
<!-- Node12_1 -->
<g id="node9" class="node">
<title>Node12_1</title>
<ellipse fill="#ff1975" stroke="#ff1975" cx="697.9" cy="-192" rx="57.39" ry="18"/>
<text text-anchor="middle" x="697.9" y="-188.3" font-family="Times,serif" font-size="14.00">अर्हसि(12.1)</text>
</g>
<!-- Node8_1&#45;&gt;Node12_1 -->
<g id="edge7" class="edge">
<title>Node8_1&#45;&gt;Node12_1</title>
<path fill="none" stroke="black" d="M595.6,-126.11C619.39,-141.2 651.49,-161.57 673.35,-175.43"/>
<polygon fill="black" stroke="black" points="597.25,-123.01 586.93,-120.61 593.5,-128.92 597.25,-123.01"/>
<text text-anchor="middle" x="650.9" y="-144.8" font-family="Times,serif" font-size="14.00">कर्ता</text>
</g>
<!-- Node9_1 -->
<g id="node10" class="node">
<title>Node9_1</title>
<ellipse fill="#93db70" stroke="#93db70" cx="697.9" cy="-18" rx="49.29" ry="18"/>
<text text-anchor="middle" x="697.9" y="-14.3" font-family="Times,serif" font-size="14.00">एनाम्(9.1)</text>
</g>
<!-- Node11_1 -->
<g id="node11" class="node">
<title>Node11_1</title>
<ellipse fill="#ff99ff" stroke="#ff99ff" cx="697.9" cy="-105" rx="71.49" ry="18"/>
<text text-anchor="middle" x="697.9" y="-101.3" font-family="Times,serif" font-size="14.00">समनुज्ञातुम्(11.1)</text>
</g>
<!-- Node9_1&#45;&gt;Node11_1 -->
<g id="edge8" class="edge">
<title>Node9_1&#45;&gt;Node11_1</title>
<path fill="none" stroke="black" d="M697.9,-46.27C697.9,-59.58 697.9,-75.19 697.9,-86.82"/>
<polygon fill="black" stroke="black" points="701.4,-46.2 697.9,-36.2 694.4,-46.2 701.4,-46.2"/>
<text text-anchor="middle" x="706.9" y="-57.8" font-family="Times,serif" font-size="14.00">कर्म</text>
</g>
<!-- Node11_1&#45;&gt;Node12_1 -->
<g id="edge11" class="edge">
<title>Node11_1&#45;&gt;Node12_1</title>
<path fill="none" stroke="black" d="M697.9,-133.27C697.9,-146.58 697.9,-162.19 697.9,-173.82"/>
<polygon fill="black" stroke="black" points="701.4,-133.2 697.9,-123.2 694.4,-133.2 701.4,-133.2"/>
<text text-anchor="middle" x="719.4" y="-144.8" font-family="Times,serif" font-size="14.00">प्रयोजनम्</text>
</g>
<!-- Node10_1 -->
<g id="node12" class="node">
<title>Node10_1</title>
<ellipse fill="#ffff00" stroke="#ffff00" cx="830.9" cy="-18" rx="51.19" ry="18"/>
<text text-anchor="middle" x="830.9" y="-14.3" font-family="Times,serif" font-size="14.00">धर्म&#45;(10.1)</text>
</g>
<!-- Node10_2 -->
<g id="node13" class="node">
<title>Node10_2</title>
<ellipse fill="#6fffc3" stroke="#6fffc3" cx="830.9" cy="-105" rx="43.59" ry="18"/>
<text text-anchor="middle" x="830.9" y="-101.3" font-family="Times,serif" font-size="14.00">ज्ञे(10.2)</text>
</g>
<!-- Node10_1&#45;&gt;Node10_2 -->
<g id="edge9" class="edge">
<title>Node10_1&#45;&gt;Node10_2</title>
<path fill="none" stroke="black" d="M830.9,-46.27C830.9,-59.58 830.9,-75.19 830.9,-86.82"/>
<polygon fill="black" stroke="black" points="834.4,-46.2 830.9,-36.2 827.4,-46.2 834.4,-46.2"/>
<text text-anchor="middle" x="847.9" y="-57.8" font-family="Times,serif" font-size="14.00">समासः</text>
</g>
<!-- Node10_2&#45;&gt;Node12_1 -->
<g id="edge10" class="edge">
<title>Node10_2&#45;&gt;Node12_1</title>
<path fill="none" stroke="black" d="M799.68,-125.95C775.92,-141.14 743.69,-161.73 721.92,-175.65"/>
<polygon fill="black" stroke="black" points="801.79,-128.75 808.33,-120.42 798.02,-122.86 801.79,-128.75"/>
<text text-anchor="middle" x="793.9" y="-144.8" font-family="Times,serif" font-size="14.00">सम्बोध्यः</text>
</g>
</g>
</svg>
