<?xml version="1.0" encoding="UTF-8" standalone="no"?>
<!DOCTYPE svg PUBLIC "-//W3C//DTD SVG 1.1//EN"
 "http://www.w3.org/Graphics/SVG/1.1/DTD/svg11.dtd">
<!-- Generated by graphviz version 2.43.0 (0)
 -->
<!-- Title: G Pages: 1 -->
<svg width="942pt" height="305pt"
 viewBox="0.00 0.00 942.05 305.00" xmlns="http://www.w3.org/2000/svg" xmlns:xlink="http://www.w3.org/1999/xlink">
<g id="graph0" class="graph" transform="scale(1 1) rotate(0) translate(4 301)">
<title>G</title>
<polygon fill="#fffacd" stroke="transparent" points="-4,4 -4,-301 938.05,-301 938.05,4 -4,4"/>
<g id="clust1" class="cluster">
<title>cluster_1</title>
<polygon fill="#fffacd" stroke="black" points="8,-79 8,-218 240,-218 240,-79 8,-79"/>
</g>
<g id="clust2" class="cluster">
<title>cluster_2</title>
<polygon fill="#fffacd" stroke="black" points="248,-79 248,-218 358,-218 358,-79 248,-79"/>
</g>
<!-- Node2_1 -->
<g id="node1" class="node">
<title>Node2_1</title>
<ellipse fill="#93db70" stroke="#93db70" cx="185" cy="-105" rx="47.39" ry="18"/>
<text text-anchor="middle" x="185" y="-101.3" font-family="Times,serif" font-size="14.00">सर्वम्(2.1)</text>
</g>
<!-- Node8_1 -->
<g id="node2" class="node">
<title>Node8_1</title>
<ellipse fill="#93db70" stroke="#93db70" cx="168" cy="-192" rx="63.89" ry="18"/>
<text text-anchor="middle" x="168" y="-188.3" font-family="Times,serif" font-size="14.00">आरण्यकम्(8.1)</text>
</g>
<!-- Node2_1&#45;&gt;Node8_1 -->
<g id="edge2" class="edge">
<title>Node2_1&#45;&gt;Node8_1</title>
<path fill="none" stroke="black" d="M179.55,-133.27C176.88,-146.58 173.76,-162.19 171.44,-173.82"/>
<polygon fill="black" stroke="black" points="183.03,-133.69 181.56,-123.2 176.17,-132.32 183.03,-133.69"/>
<text text-anchor="middle" x="200.5" y="-144.8" font-family="Times,serif" font-size="14.00">विशेषणम्</text>
</g>
<!-- Node6_1 -->
<g id="node7" class="node">
<title>Node6_1</title>
<ellipse fill="#ff1975" stroke="#ff1975" cx="525" cy="-279" rx="57.69" ry="18"/>
<text text-anchor="middle" x="525" y="-275.3" font-family="Times,serif" font-size="14.00">आचख्यौ(6.1)</text>
</g>
<!-- Node8_1&#45;&gt;Node6_1 -->
<g id="edge8" class="edge">
<title>Node8_1&#45;&gt;Node6_1</title>
<path fill="none" stroke="black" d="M216.19,-209.71C225.37,-212.65 234.94,-215.55 244,-218 324.54,-239.78 419.78,-258.71 476.14,-269.22"/>
<polygon fill="black" stroke="black" points="217.01,-206.3 206.42,-206.53 214.84,-212.96 217.01,-206.3"/>
<text text-anchor="middle" x="353" y="-231.8" font-family="Times,serif" font-size="14.00">कर्म</text>
</g>
<!-- Node3_1 -->
<g id="node3" class="node">
<title>Node3_1</title>
<ellipse fill="#93db70" stroke="#93db70" cx="68" cy="-105" rx="51.99" ry="18"/>
<text text-anchor="middle" x="68" y="-101.3" font-family="Times,serif" font-size="14.00">विधिम्(3.1)</text>
</g>
<!-- Node3_1&#45;&gt;Node8_1 -->
<g id="edge3" class="edge">
<title>Node3_1&#45;&gt;Node8_1</title>
<path fill="none" stroke="black" d="M94.77,-128.76C111.86,-143.28 133.6,-161.76 148.94,-174.79"/>
<polygon fill="black" stroke="black" points="96.7,-125.8 86.81,-121.99 92.16,-131.13 96.7,-125.8"/>
<text text-anchor="middle" x="146.5" y="-144.8" font-family="Times,serif" font-size="14.00">विशेषणम्</text>
</g>
<!-- Node7_2 -->
<g id="node4" class="node">
<title>Node7_2</title>
<ellipse fill="#00bfff" stroke="#00bfff" cx="303" cy="-105" rx="46.59" ry="18"/>
<text text-anchor="middle" x="303" y="-101.3" font-family="Times,serif" font-size="14.00">मतिः(7.2)</text>
</g>
<!-- Node5_1 -->
<g id="node5" class="node">
<title>Node5_1</title>
<ellipse fill="#00bfff" stroke="#00bfff" cx="302" cy="-192" rx="46.29" ry="18"/>
<text text-anchor="middle" x="302" y="-188.3" font-family="Times,serif" font-size="14.00">राजा(5.1)</text>
</g>
<!-- Node7_2&#45;&gt;Node5_1 -->
<g id="edge7" class="edge">
<title>Node7_2&#45;&gt;Node5_1</title>
<path fill="none" stroke="black" d="M302.68,-133.27C302.52,-146.58 302.34,-162.19 302.2,-173.82"/>
<polygon fill="black" stroke="black" points="306.18,-133.24 302.8,-123.2 299.18,-133.16 306.18,-133.24"/>
<text text-anchor="middle" x="325.5" y="-144.8" font-family="Times,serif" font-size="14.00">विशेषणम्</text>
</g>
<!-- Node5_1&#45;&gt;Node6_1 -->
<g id="edge5" class="edge">
<title>Node5_1&#45;&gt;Node6_1</title>
<path fill="none" stroke="black" d="M339.6,-210.59C345.39,-213.16 351.33,-215.7 357,-218 401.06,-235.85 452.69,-253.86 486.96,-265.43"/>
<polygon fill="black" stroke="black" points="340.62,-207.22 330.07,-206.3 337.75,-213.6 340.62,-207.22"/>
<text text-anchor="middle" x="433" y="-231.8" font-family="Times,serif" font-size="14.00">कर्ता</text>
</g>
<!-- Node1_1 -->
<g id="node6" class="node">
<title>Node1_1</title>
<ellipse fill="#b0e2ff" stroke="#b0e2ff" cx="412" cy="-192" rx="46.29" ry="18"/>
<text text-anchor="middle" x="412" y="-188.3" font-family="Times,serif" font-size="14.00">तस्मै(1.1)</text>
</g>
<!-- Node1_1&#45;&gt;Node6_1 -->
<g id="edge1" class="edge">
<title>Node1_1&#45;&gt;Node6_1</title>
<path fill="none" stroke="black" d="M438.57,-215.17C449.41,-224.02 462.16,-234.18 474,-243 482.87,-249.61 492.86,-256.56 501.63,-262.52"/>
<polygon fill="black" stroke="black" points="440.64,-212.35 430.7,-208.7 436.2,-217.76 440.64,-212.35"/>
<text text-anchor="middle" x="497.5" y="-231.8" font-family="Times,serif" font-size="14.00">सम्प्रदानम्</text>
</g>
<!-- Node4_1 -->
<g id="node8" class="node">
<title>Node4_1</title>
<ellipse fill="#6fffc3" stroke="#6fffc3" cx="525" cy="-192" rx="48.99" ry="18"/>
<text text-anchor="middle" x="525" y="-188.3" font-family="Times,serif" font-size="14.00">राजन्(4.1)</text>
</g>
<!-- Node4_1&#45;&gt;Node6_1 -->
<g id="edge4" class="edge">
<title>Node4_1&#45;&gt;Node6_1</title>
<path fill="none" stroke="black" d="M525,-220.27C525,-233.58 525,-249.19 525,-260.82"/>
<polygon fill="black" stroke="black" points="528.5,-220.2 525,-210.2 521.5,-220.2 528.5,-220.2"/>
<text text-anchor="middle" x="546" y="-231.8" font-family="Times,serif" font-size="14.00">सम्बोध्यः</text>
</g>
<!-- Node7_1 -->
<g id="node9" class="node">
<title>Node7_1</title>
<ellipse fill="#ffff00" stroke="#ffff00" cx="303" cy="-18" rx="46.59" ry="18"/>
<text text-anchor="middle" x="303" y="-14.3" font-family="Times,serif" font-size="14.00">महा&#45;(7.1)</text>
</g>
<!-- Node7_1&#45;&gt;Node7_2 -->
<g id="edge6" class="edge">
<title>Node7_1&#45;&gt;Node7_2</title>
<path fill="none" stroke="black" d="M303,-46.27C303,-59.58 303,-75.19 303,-86.82"/>
<polygon fill="black" stroke="black" points="306.5,-46.2 303,-36.2 299.5,-46.2 306.5,-46.2"/>
<text text-anchor="middle" x="320" y="-57.8" font-family="Times,serif" font-size="14.00">समासः</text>
</g>
<!-- Node9_1 -->
<g id="node10" class="node">
<title>Node9_1</title>
<ellipse fill="#ffff00" stroke="#ffff00" cx="632" cy="-105" rx="46.59" ry="18"/>
<text text-anchor="middle" x="632" y="-101.3" font-family="Times,serif" font-size="14.00">महा&#45;(9.1)</text>
</g>
<!-- Node9_2 -->
<g id="node11" class="node">
<title>Node9_2</title>
<ellipse fill="#6fffc3" stroke="#6fffc3" cx="636" cy="-192" rx="44.39" ry="18"/>
<text text-anchor="middle" x="636" y="-188.3" font-family="Times,serif" font-size="14.00">राज(9.2)</text>
</g>
<!-- Node9_1&#45;&gt;Node9_2 -->
<g id="edge9" class="edge">
<title>Node9_1&#45;&gt;Node9_2</title>
<path fill="none" stroke="black" d="M633.28,-133.27C633.91,-146.58 634.64,-162.19 635.19,-173.82"/>
<polygon fill="black" stroke="black" points="636.78,-133.03 632.81,-123.2 629.78,-133.35 636.78,-133.03"/>
<text text-anchor="middle" x="651" y="-144.8" font-family="Times,serif" font-size="14.00">समासः</text>
</g>
<!-- Node9_2&#45;&gt;Node6_1 -->
<g id="edge10" class="edge">
<title>Node9_2&#45;&gt;Node6_1</title>
<path fill="none" stroke="black" d="M608.13,-214.49C596.65,-223.33 583.19,-233.67 571,-243 562.87,-249.22 553.92,-256.04 546.09,-261.99"/>
<polygon fill="black" stroke="black" points="610.32,-217.22 616.11,-208.35 606.05,-211.67 610.32,-217.22"/>
<text text-anchor="middle" x="609" y="-231.8" font-family="Times,serif" font-size="14.00">सम्बोध्यः</text>
</g>
<!-- Node10_1 -->
<g id="node12" class="node">
<title>Node10_1</title>
<ellipse fill="#87ceeb" stroke="#87ceeb" cx="760" cy="-105" rx="63.09" ry="18"/>
<text text-anchor="middle" x="760" y="-101.3" font-family="Times,serif" font-size="14.00">व्यासस्य(10.1)</text>
</g>
<!-- Node11_1 -->
<g id="node13" class="node">
<title>Node11_1</title>
<ellipse fill="#c6e2eb" stroke="#c6e2eb" cx="757" cy="-192" rx="59.29" ry="18"/>
<text text-anchor="middle" x="757" y="-188.3" font-family="Times,serif" font-size="14.00">अनुमते(11.1)</text>
</g>
<!-- Node10_1&#45;&gt;Node11_1 -->
<g id="edge11" class="edge">
<title>Node10_1&#45;&gt;Node11_1</title>
<path fill="none" stroke="black" d="M759.04,-133.27C758.57,-146.58 758.02,-162.19 757.61,-173.82"/>
<polygon fill="black" stroke="black" points="762.54,-133.32 759.39,-123.2 755.54,-133.07 762.54,-133.32"/>
<text text-anchor="middle" x="785.5" y="-144.8" font-family="Times,serif" font-size="14.00">षष्ठीसम्बन्धः</text>
</g>
<!-- Node11_1&#45;&gt;Node6_1 -->
<g id="edge12" class="edge">
<title>Node11_1&#45;&gt;Node6_1</title>
<path fill="none" stroke="black" d="M715,-210.99C691.37,-220.88 661.23,-233.11 634,-243 611.4,-251.21 585.81,-259.48 565.11,-265.92"/>
<polygon fill="black" stroke="black" points="716.51,-214.15 724.37,-207.05 713.8,-207.7 716.51,-214.15"/>
<text text-anchor="middle" x="698.5" y="-231.8" font-family="Times,serif" font-size="14.00">अधिकरणम्</text>
</g>
<!-- Node12_1 -->
<g id="node14" class="node">
<title>Node12_1</title>
<ellipse fill="#ff99ff" stroke="#ff99ff" cx="884" cy="-192" rx="50.09" ry="18"/>
<text text-anchor="middle" x="884" y="-188.3" font-family="Times,serif" font-size="14.00">तदा(12.1)</text>
</g>
<!-- Node12_1&#45;&gt;Node6_1 -->
<g id="edge13" class="edge">
<title>Node12_1&#45;&gt;Node6_1</title>
<path fill="none" stroke="black" d="M844.89,-210.5C838.31,-213.17 831.51,-215.78 825,-218 741.06,-246.66 638.97,-263.46 578.13,-271.68"/>
<polygon fill="black" stroke="black" points="846.43,-213.65 854.31,-206.56 843.73,-207.19 846.43,-213.65"/>
<text text-anchor="middle" x="828.5" y="-231.8" font-family="Times,serif" font-size="14.00">कालाधिकरणम्</text>
</g>
</g>
</svg>
