<?xml version="1.0" encoding="UTF-8" standalone="no"?>
<!DOCTYPE svg PUBLIC "-//W3C//DTD SVG 1.1//EN"
 "http://www.w3.org/Graphics/SVG/1.1/DTD/svg11.dtd">
<!-- Generated by graphviz version 2.43.0 (0)
 -->
<!-- Title: G Pages: 1 -->
<svg width="1083pt" height="392pt"
 viewBox="0.00 0.00 1083.00 392.00" xmlns="http://www.w3.org/2000/svg" xmlns:xlink="http://www.w3.org/1999/xlink">
<g id="graph0" class="graph" transform="scale(1 1) rotate(0) translate(4 388)">
<title>G</title>
<polygon fill="#fffacd" stroke="transparent" points="-4,4 -4,-388 1079,-388 1079,4 -4,4"/>
<g id="clust1" class="cluster">
<title>cluster_1</title>
<polygon fill="#fffacd" stroke="black" points="380,-166 380,-305 1067,-305 1067,-166 380,-166"/>
</g>
<g id="clust2" class="cluster">
<title>cluster_2</title>
<polygon fill="#fffacd" stroke="black" points="8,-166 8,-305 134,-305 134,-166 8,-166"/>
</g>
<!-- Node1_3 -->
<g id="node1" class="node">
<title>Node1_3</title>
<ellipse fill="#00bfff" stroke="#00bfff" cx="433" cy="-192" rx="45.49" ry="18"/>
<text text-anchor="middle" x="433" y="-188.3" font-family="Times,serif" font-size="14.00">भूतः(1.3)</text>
</g>
<!-- Node6_1 -->
<g id="node2" class="node">
<title>Node6_1</title>
<ellipse fill="#00bfff" stroke="#00bfff" cx="643" cy="-279" rx="53.89" ry="18"/>
<text text-anchor="middle" x="643" y="-275.3" font-family="Times,serif" font-size="14.00">पार्थिवः(6.1)</text>
</g>
<!-- Node1_3&#45;&gt;Node6_1 -->
<g id="edge3" class="edge">
<title>Node1_3&#45;&gt;Node6_1</title>
<path fill="none" stroke="black" d="M466.28,-212.5C484.18,-222.47 506.86,-234.31 528,-243 551.74,-252.76 579.22,-261.22 601.36,-267.38"/>
<polygon fill="black" stroke="black" points="467.81,-209.35 457.39,-207.48 464.37,-215.44 467.81,-209.35"/>
<text text-anchor="middle" x="550.5" y="-231.8" font-family="Times,serif" font-size="14.00">विशेषणम्</text>
</g>
<!-- Node9_1 -->
<g id="node16" class="node">
<title>Node9_1</title>
<ellipse fill="#ff1975" stroke="#ff1975" cx="246" cy="-366" rx="48.99" ry="18"/>
<text text-anchor="middle" x="246" y="-362.3" font-family="Times,serif" font-size="14.00">चचार(9.1)</text>
</g>
<!-- Node6_1&#45;&gt;Node9_1 -->
<g id="edge12" class="edge">
<title>Node6_1&#45;&gt;Node9_1</title>
<path fill="none" stroke="black" d="M589.08,-291.54C508.76,-308.74 359.42,-340.72 287.21,-356.18"/>
<polygon fill="black" stroke="black" points="589.95,-294.94 599,-289.42 588.49,-288.09 589.95,-294.94"/>
<text text-anchor="middle" x="480" y="-318.8" font-family="Times,serif" font-size="14.00">कर्ता</text>
</g>
<!-- Node2_2 -->
<g id="node3" class="node">
<title>Node2_2</title>
<ellipse fill="#00bfff" stroke="#00bfff" cx="643" cy="-192" rx="48.19" ry="18"/>
<text text-anchor="middle" x="643" y="-188.3" font-family="Times,serif" font-size="14.00">मांसः(2.2)</text>
</g>
<!-- Node2_2&#45;&gt;Node6_1 -->
<g id="edge5" class="edge">
<title>Node2_2&#45;&gt;Node6_1</title>
<path fill="none" stroke="black" d="M643,-220.27C643,-233.58 643,-249.19 643,-260.82"/>
<polygon fill="black" stroke="black" points="646.5,-220.2 643,-210.2 639.5,-220.2 646.5,-220.2"/>
<text text-anchor="middle" x="665.5" y="-231.8" font-family="Times,serif" font-size="14.00">विशेषणम्</text>
</g>
<!-- Node3_2 -->
<g id="node4" class="node">
<title>Node3_2</title>
<ellipse fill="#00bfff" stroke="#00bfff" cx="763" cy="-192" rx="53.89" ry="18"/>
<text text-anchor="middle" x="763" y="-188.3" font-family="Times,serif" font-size="14.00">अजिनी(3.2)</text>
</g>
<!-- Node3_2&#45;&gt;Node6_1 -->
<g id="edge7" class="edge">
<title>Node3_2&#45;&gt;Node6_1</title>
<path fill="none" stroke="black" d="M732.67,-214.48C711.54,-229.45 683.86,-249.06 664.87,-262.51"/>
<polygon fill="black" stroke="black" points="734.85,-217.23 740.99,-208.59 730.81,-211.51 734.85,-217.23"/>
<text text-anchor="middle" x="732.5" y="-231.8" font-family="Times,serif" font-size="14.00">विशेषणम्</text>
</g>
<!-- Node4_3 -->
<g id="node5" class="node">
<title>Node4_3</title>
<ellipse fill="#00bfff" stroke="#00bfff" cx="886" cy="-192" rx="51.19" ry="18"/>
<text text-anchor="middle" x="886" y="-188.3" font-family="Times,serif" font-size="14.00">अङ्गः(4.3)</text>
</g>
<!-- Node4_3&#45;&gt;Node6_1 -->
<g id="edge10" class="edge">
<title>Node4_3&#45;&gt;Node6_1</title>
<path fill="none" stroke="black" d="M845.01,-210.13C820.28,-220.21 788.05,-232.92 759,-243 733.96,-251.69 705.47,-260.3 682.99,-266.81"/>
<polygon fill="black" stroke="black" points="846.51,-213.3 854.43,-206.26 843.85,-206.82 846.51,-213.3"/>
<text text-anchor="middle" x="819.5" y="-231.8" font-family="Times,serif" font-size="14.00">विशेषणम्</text>
</g>
<!-- Node5_1 -->
<g id="node6" class="node">
<title>Node5_1</title>
<ellipse fill="#00bfff" stroke="#00bfff" cx="537" cy="-192" rx="40.09" ry="18"/>
<text text-anchor="middle" x="537" y="-188.3" font-family="Times,serif" font-size="14.00">सः(5.1)</text>
</g>
<!-- Node5_1&#45;&gt;Node6_1 -->
<g id="edge11" class="edge">
<title>Node5_1&#45;&gt;Node6_1</title>
<path fill="none" stroke="black" d="M561.37,-215.33C571.3,-224.17 583.01,-234.29 594,-243 602.36,-249.62 611.83,-256.52 620.21,-262.43"/>
<polygon fill="black" stroke="black" points="563.61,-212.63 553.83,-208.55 558.93,-217.84 563.61,-212.63"/>
<text text-anchor="middle" x="616.5" y="-231.8" font-family="Times,serif" font-size="14.00">विशेषणम्</text>
</g>
<!-- Node12_2 -->
<g id="node7" class="node">
<title>Node12_2</title>
<ellipse fill="#00bfff" stroke="#00bfff" cx="1007" cy="-192" rx="51.99" ry="18"/>
<text text-anchor="middle" x="1007" y="-188.3" font-family="Times,serif" font-size="14.00">दोषः(12.2)</text>
</g>
<!-- Node12_2&#45;&gt;Node6_1 -->
<g id="edge18" class="edge">
<title>Node12_2&#45;&gt;Node6_1</title>
<path fill="none" stroke="black" d="M962.34,-208.59C930.27,-219.36 885.84,-233.42 846,-243 794.02,-255.5 733.52,-265.33 692.18,-271.36"/>
<polygon fill="black" stroke="black" points="963.53,-211.88 971.88,-205.36 961.28,-205.25 963.53,-211.88"/>
<text text-anchor="middle" x="921.5" y="-231.8" font-family="Times,serif" font-size="14.00">विशेषणम्</text>
</g>
<!-- Node11_1 -->
<g id="node8" class="node">
<title>Node11_1</title>
<ellipse fill="#93db70" stroke="#93db70" cx="71" cy="-192" rx="54.69" ry="18"/>
<text text-anchor="middle" x="71" y="-188.3" font-family="Times,serif" font-size="14.00">तीव्रम्(11.1)</text>
</g>
<!-- Node8_1 -->
<g id="node9" class="node">
<title>Node8_1</title>
<ellipse fill="#93db70" stroke="#93db70" cx="76" cy="-279" rx="44.39" ry="18"/>
<text text-anchor="middle" x="76" y="-275.3" font-family="Times,serif" font-size="14.00">तपः(8.1)</text>
</g>
<!-- Node11_1&#45;&gt;Node8_1 -->
<g id="edge16" class="edge">
<title>Node11_1&#45;&gt;Node8_1</title>
<path fill="none" stroke="black" d="M72.6,-220.27C73.39,-233.58 74.31,-249.19 74.99,-260.82"/>
<polygon fill="black" stroke="black" points="76.09,-219.98 72.01,-210.2 69.11,-220.39 76.09,-219.98"/>
<text text-anchor="middle" x="96.5" y="-231.8" font-family="Times,serif" font-size="14.00">विशेषणम्</text>
</g>
<!-- Node8_1&#45;&gt;Node9_1 -->
<g id="edge14" class="edge">
<title>Node8_1&#45;&gt;Node9_1</title>
<path fill="none" stroke="black" d="M111.91,-297.95C143.67,-313.83 189.35,-336.67 218.34,-351.17"/>
<polygon fill="black" stroke="black" points="113.45,-294.81 102.94,-293.47 110.32,-301.07 113.45,-294.81"/>
<text text-anchor="middle" x="181" y="-318.8" font-family="Times,serif" font-size="14.00">कर्म</text>
</g>
<!-- Node1_1 -->
<g id="node10" class="node">
<title>Node1_1</title>
<ellipse fill="#ffff00" stroke="#ffff00" cx="433" cy="-18" rx="48.99" ry="18"/>
<text text-anchor="middle" x="433" y="-14.3" font-family="Times,serif" font-size="14.00">त्वक्&#45;(1.1)</text>
</g>
<!-- Node1_2 -->
<g id="node11" class="node">
<title>Node1_2</title>
<ellipse fill="#ffff00" stroke="#ffff00" cx="433" cy="-105" rx="52.79" ry="18"/>
<text text-anchor="middle" x="433" y="-101.3" font-family="Times,serif" font-size="14.00">अस्थि&#45;(1.2)</text>
</g>
<!-- Node1_1&#45;&gt;Node1_2 -->
<g id="edge1" class="edge">
<title>Node1_1&#45;&gt;Node1_2</title>
<path fill="none" stroke="black" d="M433,-46.27C433,-59.58 433,-75.19 433,-86.82"/>
<polygon fill="black" stroke="black" points="436.5,-46.2 433,-36.2 429.5,-46.2 436.5,-46.2"/>
<text text-anchor="middle" x="450" y="-57.8" font-family="Times,serif" font-size="14.00">समासः</text>
</g>
<!-- Node1_2&#45;&gt;Node1_3 -->
<g id="edge2" class="edge">
<title>Node1_2&#45;&gt;Node1_3</title>
<path fill="none" stroke="black" d="M433,-133.27C433,-146.58 433,-162.19 433,-173.82"/>
<polygon fill="black" stroke="black" points="436.5,-133.2 433,-123.2 429.5,-133.2 436.5,-133.2"/>
<text text-anchor="middle" x="450" y="-144.8" font-family="Times,serif" font-size="14.00">समासः</text>
</g>
<!-- Node2_1 -->
<g id="node12" class="node">
<title>Node2_1</title>
<ellipse fill="#ffff00" stroke="#ffff00" cx="637" cy="-105" rx="61.19" ry="18"/>
<text text-anchor="middle" x="637" y="-101.3" font-family="Times,serif" font-size="14.00">परिशुष्क&#45;(2.1)</text>
</g>
<!-- Node2_1&#45;&gt;Node2_2 -->
<g id="edge4" class="edge">
<title>Node2_1&#45;&gt;Node2_2</title>
<path fill="none" stroke="black" d="M638.92,-133.27C639.86,-146.58 640.97,-162.19 641.79,-173.82"/>
<polygon fill="black" stroke="black" points="642.41,-132.93 638.21,-123.2 635.43,-133.42 642.41,-132.93"/>
<text text-anchor="middle" x="658" y="-144.8" font-family="Times,serif" font-size="14.00">समासः</text>
</g>
<!-- Node3_1 -->
<g id="node13" class="node">
<title>Node3_1</title>
<ellipse fill="#ffff00" stroke="#ffff00" cx="764" cy="-105" rx="48.19" ry="18"/>
<text text-anchor="middle" x="764" y="-101.3" font-family="Times,serif" font-size="14.00">जटा&#45;(3.1)</text>
</g>
<!-- Node3_1&#45;&gt;Node3_2 -->
<g id="edge6" class="edge">
<title>Node3_1&#45;&gt;Node3_2</title>
<path fill="none" stroke="black" d="M763.68,-133.27C763.52,-146.58 763.34,-162.19 763.2,-173.82"/>
<polygon fill="black" stroke="black" points="767.18,-133.24 763.8,-123.2 760.18,-133.16 767.18,-133.24"/>
<text text-anchor="middle" x="780" y="-144.8" font-family="Times,serif" font-size="14.00">समासः</text>
</g>
<!-- Node4_1 -->
<g id="node14" class="node">
<title>Node4_1</title>
<ellipse fill="#ffff00" stroke="#ffff00" cx="885" cy="-18" rx="55.79" ry="18"/>
<text text-anchor="middle" x="885" y="-14.3" font-family="Times,serif" font-size="14.00">वल्कल&#45;(4.1)</text>
</g>
<!-- Node4_2 -->
<g id="node15" class="node">
<title>Node4_2</title>
<ellipse fill="#ffff00" stroke="#ffff00" cx="885" cy="-105" rx="53.09" ry="18"/>
<text text-anchor="middle" x="885" y="-101.3" font-family="Times,serif" font-size="14.00">सम्वृत&#45;(4.2)</text>
</g>
<!-- Node4_1&#45;&gt;Node4_2 -->
<g id="edge8" class="edge">
<title>Node4_1&#45;&gt;Node4_2</title>
<path fill="none" stroke="black" d="M885,-46.27C885,-59.58 885,-75.19 885,-86.82"/>
<polygon fill="black" stroke="black" points="888.5,-46.2 885,-36.2 881.5,-46.2 888.5,-46.2"/>
<text text-anchor="middle" x="902" y="-57.8" font-family="Times,serif" font-size="14.00">समासः</text>
</g>
<!-- Node4_2&#45;&gt;Node4_3 -->
<g id="edge9" class="edge">
<title>Node4_2&#45;&gt;Node4_3</title>
<path fill="none" stroke="black" d="M885.32,-133.27C885.48,-146.58 885.66,-162.19 885.8,-173.82"/>
<polygon fill="black" stroke="black" points="888.82,-133.16 885.2,-123.2 881.82,-133.24 888.82,-133.16"/>
<text text-anchor="middle" x="902" y="-144.8" font-family="Times,serif" font-size="14.00">समासः</text>
</g>
<!-- Node7_1 -->
<g id="node17" class="node">
<title>Node7_1</title>
<ellipse fill="#ff99ff" stroke="#ff99ff" cx="184" cy="-279" rx="42.49" ry="18"/>
<text text-anchor="middle" x="184" y="-275.3" font-family="Times,serif" font-size="14.00">तत्र(7.1)</text>
</g>
<!-- Node7_1&#45;&gt;Node9_1 -->
<g id="edge13" class="edge">
<title>Node7_1&#45;&gt;Node9_1</title>
<path fill="none" stroke="black" d="M201.98,-304.65C212.23,-318.7 224.79,-335.92 233.87,-348.37"/>
<polygon fill="black" stroke="black" points="204.67,-302.41 195.95,-296.39 199.02,-306.53 204.67,-302.41"/>
<text text-anchor="middle" x="251" y="-318.8" font-family="Times,serif" font-size="14.00">देशाधिकरणम्</text>
</g>
<!-- Node10_1 -->
<g id="node18" class="node">
<title>Node10_1</title>
<ellipse fill="#ff99ff" stroke="#ff99ff" cx="308" cy="-279" rx="63.89" ry="18"/>
<text text-anchor="middle" x="308" y="-275.3" font-family="Times,serif" font-size="14.00">महर्षिवत्(10.1)</text>
</g>
<!-- Node10_1&#45;&gt;Node9_1 -->
<g id="edge15" class="edge">
<title>Node10_1&#45;&gt;Node9_1</title>
<path fill="none" stroke="black" d="M298.88,-306.5C295.5,-314.45 291.19,-322.93 286,-330 280.76,-337.14 273.82,-343.85 267.2,-349.44"/>
<polygon fill="black" stroke="black" points="302.14,-307.78 302.56,-297.19 295.63,-305.21 302.14,-307.78"/>
<text text-anchor="middle" x="330" y="-318.8" font-family="Times,serif" font-size="14.00">क्रियाविशेषणम्</text>
</g>
<!-- Node12_1 -->
<g id="node19" class="node">
<title>Node12_1</title>
<ellipse fill="#ffff00" stroke="#ffff00" cx="1013" cy="-105" rx="57.39" ry="18"/>
<text text-anchor="middle" x="1013" y="-101.3" font-family="Times,serif" font-size="14.00">अपेत&#45;(12.1)</text>
</g>
<!-- Node12_1&#45;&gt;Node12_2 -->
<g id="edge17" class="edge">
<title>Node12_1&#45;&gt;Node12_2</title>
<path fill="none" stroke="black" d="M1011.08,-133.27C1010.14,-146.58 1009.03,-162.19 1008.21,-173.82"/>
<polygon fill="black" stroke="black" points="1014.57,-133.42 1011.79,-123.2 1007.59,-132.93 1014.57,-133.42"/>
<text text-anchor="middle" x="1027" y="-144.8" font-family="Times,serif" font-size="14.00">समासः</text>
</g>
</g>
</svg>
