<?xml version="1.0" encoding="UTF-8" standalone="no"?>
<!DOCTYPE svg PUBLIC "-//W3C//DTD SVG 1.1//EN"
 "http://www.w3.org/Graphics/SVG/1.1/DTD/svg11.dtd">
<!-- Generated by graphviz version 2.43.0 (0)
 -->
<!-- Title: G Pages: 1 -->
<svg width="855pt" height="392pt"
 viewBox="0.00 0.00 855.19 392.00" xmlns="http://www.w3.org/2000/svg" xmlns:xlink="http://www.w3.org/1999/xlink">
<g id="graph0" class="graph" transform="scale(1 1) rotate(0) translate(4 388)">
<title>G</title>
<polygon fill="#fffacd" stroke="transparent" points="-4,4 -4,-388 851.19,-388 851.19,4 -4,4"/>
<g id="clust1" class="cluster">
<title>cluster_1</title>
<polygon fill="#fffacd" stroke="black" points="615.19,-79 615.19,-218 839.19,-218 839.19,-79 615.19,-79"/>
</g>
<g id="clust2" class="cluster">
<title>cluster_2</title>
<polygon fill="#fffacd" stroke="black" points="96.19,-166 96.19,-305 240.19,-305 240.19,-166 96.19,-166"/>
</g>
<!-- Node1_1 -->
<g id="node1" class="node">
<title>Node1_1</title>
<ellipse fill="#00bfff" stroke="#00bfff" cx="791.19" cy="-105" rx="40.09" ry="18"/>
<text text-anchor="middle" x="791.19" y="-101.3" font-family="Times,serif" font-size="14.00">सः(1.1)</text>
</g>
<!-- Node4_1 -->
<g id="node2" class="node">
<title>Node4_1</title>
<ellipse fill="#00bfff" stroke="#00bfff" cx="678.19" cy="-192" rx="46.29" ry="18"/>
<text text-anchor="middle" x="678.19" y="-188.3" font-family="Times,serif" font-size="14.00">राजा(4.1)</text>
</g>
<!-- Node1_1&#45;&gt;Node4_1 -->
<g id="edge1" class="edge">
<title>Node1_1&#45;&gt;Node4_1</title>
<path fill="none" stroke="black" d="M764.44,-127.32C753.04,-136.29 739.56,-146.76 727.19,-156 718.32,-162.63 708.39,-169.77 699.81,-175.86"/>
<polygon fill="black" stroke="black" points="766.64,-130.04 772.32,-121.09 762.3,-124.55 766.64,-130.04"/>
<text text-anchor="middle" x="768.69" y="-144.8" font-family="Times,serif" font-size="14.00">विशेषणम्</text>
</g>
<!-- Node12_1 -->
<g id="node5" class="node">
<title>Node12_1</title>
<ellipse fill="#ff99ff" stroke="#ff99ff" cx="168.19" cy="-279" rx="63.89" ry="18"/>
<text text-anchor="middle" x="168.19" y="-275.3" font-family="Times,serif" font-size="14.00">प्रतिपूज्य(12.1)</text>
</g>
<!-- Node4_1&#45;&gt;Node12_1 -->
<g id="edge5" class="edge">
<title>Node4_1&#45;&gt;Node12_1</title>
<path fill="none" stroke="black" stroke-dasharray="1,5" d="M642.03,-211.17C618.25,-222.27 586.1,-235.7 556.19,-243 444.33,-270.31 309.65,-276.78 231.98,-278.04"/>
<polygon fill="black" stroke="black" points="643.83,-214.19 651.36,-206.73 640.83,-207.87 643.83,-214.19"/>
<text text-anchor="middle" x="612.19" y="-231.8" font-family="Times,serif" font-size="14.00">कर्ता</text>
</g>
<!-- Node8_1 -->
<g id="node7" class="node">
<title>Node8_1</title>
<ellipse fill="#ff1975" stroke="#ff1975" cx="423.19" cy="-366" rx="54.69" ry="18"/>
<text text-anchor="middle" x="423.19" y="-362.3" font-family="Times,serif" font-size="14.00">अनुजज्ञे(8.1)</text>
</g>
<!-- Node4_1&#45;&gt;Node8_1 -->
<g id="edge4" class="edge">
<title>Node4_1&#45;&gt;Node8_1</title>
<path fill="none" stroke="black" d="M656.31,-216.71C647.66,-225.46 637.37,-235.15 627.19,-243 568.88,-288 492.71,-329.56 451.93,-350.6"/>
<polygon fill="black" stroke="black" points="659.02,-218.95 663.45,-209.33 653.98,-214.08 659.02,-218.95"/>
<text text-anchor="middle" x="612.19" y="-275.3" font-family="Times,serif" font-size="14.00">कर्ता</text>
</g>
<!-- Node3_1 -->
<g id="node3" class="node">
<title>Node3_1</title>
<ellipse fill="#00bfff" stroke="#00bfff" cx="678.19" cy="-105" rx="54.69" ry="18"/>
<text text-anchor="middle" x="678.19" y="-101.3" font-family="Times,serif" font-size="14.00">परिवृतः(3.1)</text>
</g>
<!-- Node3_1&#45;&gt;Node4_1 -->
<g id="edge3" class="edge">
<title>Node3_1&#45;&gt;Node4_1</title>
<path fill="none" stroke="black" d="M678.19,-133.27C678.19,-146.58 678.19,-162.19 678.19,-173.82"/>
<polygon fill="black" stroke="black" points="681.7,-133.2 678.19,-123.2 674.7,-133.2 681.7,-133.2"/>
<text text-anchor="middle" x="700.69" y="-144.8" font-family="Times,serif" font-size="14.00">विशेषणम्</text>
</g>
<!-- Node6_1 -->
<g id="node4" class="node">
<title>Node6_1</title>
<ellipse fill="#ff99ff" stroke="#ff99ff" cx="168.19" cy="-192" rx="59.29" ry="18"/>
<text text-anchor="middle" x="168.19" y="-188.3" font-family="Times,serif" font-size="14.00">अभिनन्द्य(6.1)</text>
</g>
<!-- Node6_1&#45;&gt;Node12_1 -->
<g id="edge7" class="edge">
<title>Node6_1&#45;&gt;Node12_1</title>
<path fill="none" stroke="black" d="M168.19,-220.27C168.19,-233.58 168.19,-249.19 168.19,-260.82"/>
<polygon fill="black" stroke="black" points="171.7,-220.2 168.19,-210.2 164.7,-220.2 171.7,-220.2"/>
<text text-anchor="middle" x="190.69" y="-231.8" font-family="Times,serif" font-size="14.00">समुच्चितः</text>
</g>
<!-- Node12_1&#45;&gt;Node8_1 -->
<g id="edge13" class="edge">
<title>Node12_1&#45;&gt;Node8_1</title>
<path fill="none" stroke="black" d="M217.26,-296.36C266.56,-312.79 341.44,-337.75 386.03,-352.61"/>
<polygon fill="black" stroke="black" points="218.35,-293.03 207.76,-293.19 216.14,-299.67 218.35,-293.03"/>
<text text-anchor="middle" x="331.69" y="-318.8" font-family="Times,serif" font-size="14.00">पूर्वकालः</text>
</g>
<!-- Node2_1 -->
<g id="node6" class="node">
<title>Node2_1</title>
<ellipse fill="#40e0d0" stroke="#40e0d0" cx="678.19" cy="-18" rx="39.79" ry="18"/>
<text text-anchor="middle" x="678.19" y="-14.3" font-family="Times,serif" font-size="14.00">तैः(2.1)</text>
</g>
<!-- Node2_1&#45;&gt;Node3_1 -->
<g id="edge2" class="edge">
<title>Node2_1&#45;&gt;Node3_1</title>
<path fill="none" stroke="black" d="M678.19,-46.27C678.19,-59.58 678.19,-75.19 678.19,-86.82"/>
<polygon fill="black" stroke="black" points="681.7,-46.2 678.19,-36.2 674.7,-46.2 681.7,-46.2"/>
<text text-anchor="middle" x="689.19" y="-57.8" font-family="Times,serif" font-size="14.00">कर्ता</text>
</g>
<!-- Node5_1 -->
<g id="node8" class="node">
<title>Node5_1</title>
<ellipse fill="#40e0d0" stroke="#40e0d0" cx="57.19" cy="-105" rx="57.39" ry="18"/>
<text text-anchor="middle" x="57.19" y="-101.3" font-family="Times,serif" font-size="14.00">कथाभिः(5.1)</text>
</g>
<!-- Node5_1&#45;&gt;Node6_1 -->
<g id="edge6" class="edge">
<title>Node5_1&#45;&gt;Node6_1</title>
<path fill="none" stroke="black" d="M86.2,-128.21C105.41,-142.92 130.15,-161.87 147.41,-175.08"/>
<polygon fill="black" stroke="black" points="88.14,-125.29 78.07,-121.99 83.88,-130.85 88.14,-125.29"/>
<text text-anchor="middle" x="129.69" y="-144.8" font-family="Times,serif" font-size="14.00">हेतुः</text>
</g>
<!-- Node7_1 -->
<g id="node9" class="node">
<title>Node7_1</title>
<ellipse fill="#93db70" stroke="#93db70" cx="176.19" cy="-105" rx="44.39" ry="18"/>
<text text-anchor="middle" x="176.19" y="-101.3" font-family="Times,serif" font-size="14.00">तान्(7.1)</text>
</g>
<!-- Node7_1&#45;&gt;Node6_1 -->
<g id="edge8" class="edge">
<title>Node7_1&#45;&gt;Node6_1</title>
<path fill="none" stroke="black" d="M173.63,-133.27C172.38,-146.58 170.91,-162.19 169.81,-173.82"/>
<polygon fill="black" stroke="black" points="177.12,-133.49 174.58,-123.2 170.15,-132.83 177.12,-133.49"/>
<text text-anchor="middle" x="182.19" y="-144.8" font-family="Times,serif" font-size="14.00">कर्म</text>
</g>
<!-- Node9_1 -->
<g id="node10" class="node">
<title>Node9_1</title>
<ellipse fill="#ffff00" stroke="#ffff00" cx="295.19" cy="-105" rx="40.89" ry="18"/>
<text text-anchor="middle" x="295.19" y="-101.3" font-family="Times,serif" font-size="14.00">स&#45;(9.1)</text>
</g>
<!-- Node9_2 -->
<g id="node11" class="node">
<title>Node9_2</title>
<ellipse fill="#93db70" stroke="#93db70" cx="304.19" cy="-192" rx="55.79" ry="18"/>
<text text-anchor="middle" x="304.19" y="-188.3" font-family="Times,serif" font-size="14.00">शिष्यान्(9.2)</text>
</g>
<!-- Node9_1&#45;&gt;Node9_2 -->
<g id="edge9" class="edge">
<title>Node9_1&#45;&gt;Node9_2</title>
<path fill="none" stroke="black" d="M298.08,-133.27C299.49,-146.58 301.14,-162.19 302.38,-173.82"/>
<polygon fill="black" stroke="black" points="301.55,-132.78 297.02,-123.2 294.59,-133.51 301.55,-132.78"/>
<text text-anchor="middle" x="318.19" y="-144.8" font-family="Times,serif" font-size="14.00">समासः</text>
</g>
<!-- Node9_2&#45;&gt;Node12_1 -->
<g id="edge10" class="edge">
<title>Node9_2&#45;&gt;Node12_1</title>
<path fill="none" stroke="black" d="M270.84,-213.85C246.99,-228.76 215.37,-248.51 193.56,-262.15"/>
<polygon fill="black" stroke="black" points="272.94,-216.66 279.57,-208.39 269.23,-210.72 272.94,-216.66"/>
<text text-anchor="middle" x="254.19" y="-231.8" font-family="Times,serif" font-size="14.00">कर्म</text>
</g>
<!-- Node10_1 -->
<g id="node12" class="node">
<title>Node10_1</title>
<ellipse fill="#ff99ff" stroke="#ff99ff" cx="396.19" cy="-105" rx="42.49" ry="18"/>
<text text-anchor="middle" x="396.19" y="-101.3" font-family="Times,serif" font-size="14.00">वै(10.1)</text>
</g>
<!-- Node10_1&#45;&gt;Node9_2 -->
<g id="edge11" class="edge">
<title>Node10_1&#45;&gt;Node9_2</title>
<path fill="none" stroke="black" d="M371.57,-128.75C355.92,-143.21 336.01,-161.61 321.9,-174.64"/>
<polygon fill="black" stroke="black" points="374.35,-130.95 379.32,-121.59 369.6,-125.81 374.35,-130.95"/>
<text text-anchor="middle" x="374.69" y="-144.8" font-family="Times,serif" font-size="14.00">सम्बन्धः</text>
</g>
<!-- Node11_1 -->
<g id="node13" class="node">
<title>Node11_1</title>
<ellipse fill="#ff99ff" stroke="#ff99ff" cx="440.19" cy="-192" rx="61.99" ry="18"/>
<text text-anchor="middle" x="440.19" y="-188.3" font-family="Times,serif" font-size="14.00">विधिवत्(11.1)</text>
</g>
<!-- Node11_1&#45;&gt;Node12_1 -->
<g id="edge12" class="edge">
<title>Node11_1&#45;&gt;Node12_1</title>
<path fill="none" stroke="black" d="M393.43,-209.83C385.37,-212.62 377.06,-215.44 369.19,-218 315.17,-235.56 252.35,-254 211.51,-265.73"/>
<polygon fill="black" stroke="black" points="394.81,-213.05 403.09,-206.45 392.5,-206.45 394.81,-213.05"/>
<text text-anchor="middle" x="372.19" y="-231.8" font-family="Times,serif" font-size="14.00">क्रियाविशेषणम्</text>
</g>
<!-- Node13_1 -->
<g id="node14" class="node">
<title>Node13_1</title>
<ellipse fill="#ff99ff" stroke="#ff99ff" cx="563.19" cy="-192" rx="43.59" ry="18"/>
<text text-anchor="middle" x="563.19" y="-188.3" font-family="Times,serif" font-size="14.00">च(13.1)</text>
</g>
<!-- Node13_1&#45;&gt;Node12_1 -->
<g id="edge14" class="edge">
<title>Node13_1&#45;&gt;Node12_1</title>
<path fill="none" stroke="black" d="M528.25,-210.99C522.62,-213.54 516.81,-215.97 511.19,-218 416.24,-252.29 299.21,-267.38 229.31,-273.72"/>
<polygon fill="black" stroke="black" points="529.9,-214.08 537.45,-206.65 526.92,-207.75 529.9,-214.08"/>
<text text-anchor="middle" x="514.19" y="-231.8" font-family="Times,serif" font-size="14.00">समुच्चय_द्योतकः</text>
</g>
</g>
</svg>
