<?xml version="1.0" encoding="UTF-8" standalone="no"?>
<!DOCTYPE svg PUBLIC "-//W3C//DTD SVG 1.1//EN"
 "http://www.w3.org/Graphics/SVG/1.1/DTD/svg11.dtd">
<!-- Generated by graphviz version 2.43.0 (0)
 -->
<!-- Title: G Pages: 1 -->
<svg width="692pt" height="392pt"
 viewBox="0.00 0.00 692.04 392.00" xmlns="http://www.w3.org/2000/svg" xmlns:xlink="http://www.w3.org/1999/xlink">
<g id="graph0" class="graph" transform="scale(1 1) rotate(0) translate(4 388)">
<title>G</title>
<polygon fill="#fffacd" stroke="transparent" points="-4,4 -4,-388 688.04,-388 688.04,4 -4,4"/>
<g id="clust1" class="cluster">
<title>cluster_1</title>
<polygon fill="#fffacd" stroke="black" points="231.8,-166 231.8,-305 589.8,-305 589.8,-166 231.8,-166"/>
</g>
<!-- Node2_1 -->
<g id="node1" class="node">
<title>Node2_1</title>
<ellipse fill="#00bfff" stroke="#00bfff" cx="537.8" cy="-192" rx="43.59" ry="18"/>
<text text-anchor="middle" x="537.8" y="-188.3" font-family="Times,serif" font-size="14.00">देवी(2.1)</text>
</g>
<!-- Node3_1 -->
<g id="node2" class="node">
<title>Node3_1</title>
<ellipse fill="#00bfff" stroke="#00bfff" cx="359.8" cy="-279" rx="55.79" ry="18"/>
<text text-anchor="middle" x="359.8" y="-275.3" font-family="Times,serif" font-size="14.00">गान्धारी(3.1)</text>
</g>
<!-- Node2_1&#45;&gt;Node3_1 -->
<g id="edge2" class="edge">
<title>Node2_1&#45;&gt;Node3_1</title>
<path fill="none" stroke="black" d="M503.75,-211.82C485.81,-221.51 463.31,-233.3 442.8,-243 426.82,-250.56 408.78,-258.26 393.6,-264.51"/>
<polygon fill="black" stroke="black" points="505.57,-214.81 512.69,-206.97 502.23,-208.66 505.57,-214.81"/>
<text text-anchor="middle" x="494.3" y="-231.8" font-family="Times,serif" font-size="14.00">विशेषणम्</text>
</g>
<!-- Node9_1 -->
<g id="node6" class="node">
<title>Node9_1</title>
<ellipse fill="#ff1975" stroke="#ff1975" cx="167.8" cy="-366" rx="56.59" ry="18"/>
<text text-anchor="middle" x="167.8" y="-362.3" font-family="Times,serif" font-size="14.00">(चकार)(9.1)</text>
</g>
<!-- Node3_1&#45;&gt;Node9_1 -->
<g id="edge3" class="edge">
<title>Node3_1&#45;&gt;Node9_1</title>
<path fill="none" stroke="black" d="M318.92,-298.1C283.25,-313.89 232.22,-336.48 199.55,-350.94"/>
<polygon fill="black" stroke="black" points="320.36,-301.28 328.09,-294.04 317.53,-294.88 320.36,-301.28"/>
<text text-anchor="middle" x="285.8" y="-318.8" font-family="Times,serif" font-size="14.00">कर्ता</text>
</g>
<!-- Node4_3 -->
<g id="node3" class="node">
<title>Node4_3</title>
<ellipse fill="#00bfff" stroke="#00bfff" cx="294.8" cy="-192" rx="54.69" ry="18"/>
<text text-anchor="middle" x="294.8" y="-188.3" font-family="Times,serif" font-size="14.00">वासिनी(4.3)</text>
</g>
<!-- Node4_3&#45;&gt;Node3_1 -->
<g id="edge6" class="edge">
<title>Node4_3&#45;&gt;Node3_1</title>
<path fill="none" stroke="black" d="M313.92,-218.01C324.57,-231.94 337.55,-248.91 346.98,-261.24"/>
<polygon fill="black" stroke="black" points="316.49,-215.61 307.64,-209.79 310.93,-219.86 316.49,-215.61"/>
<text text-anchor="middle" x="353.3" y="-231.8" font-family="Times,serif" font-size="14.00">विशेषणम्</text>
</g>
<!-- Node8_3 -->
<g id="node4" class="node">
<title>Node8_3</title>
<ellipse fill="#00bfff" stroke="#00bfff" cx="421.8" cy="-192" rx="54.69" ry="18"/>
<text text-anchor="middle" x="421.8" y="-188.3" font-family="Times,serif" font-size="14.00">चारिणी(8.3)</text>
</g>
<!-- Node8_3&#45;&gt;Node3_1 -->
<g id="edge12" class="edge">
<title>Node8_3&#45;&gt;Node3_1</title>
<path fill="none" stroke="black" d="M403.56,-218.01C393.39,-231.94 381.01,-248.91 372.02,-261.24"/>
<polygon fill="black" stroke="black" points="406.48,-219.93 409.55,-209.79 400.83,-215.81 406.48,-219.93"/>
<text text-anchor="middle" x="416.3" y="-231.8" font-family="Times,serif" font-size="14.00">विशेषणम्</text>
</g>
<!-- Node1_1 -->
<g id="node5" class="node">
<title>Node1_1</title>
<ellipse fill="#ff99ff" stroke="#ff99ff" cx="46.8" cy="-279" rx="46.59" ry="18"/>
<text text-anchor="middle" x="46.8" y="-275.3" font-family="Times,serif" font-size="14.00">तथैव(1.1)</text>
</g>
<!-- Node1_1&#45;&gt;Node9_1 -->
<g id="edge1" class="edge">
<title>Node1_1&#45;&gt;Node9_1</title>
<path fill="none" stroke="black" d="M66.2,-304.21C74.12,-313.07 83.77,-322.7 93.8,-330 105.63,-338.61 119.92,-345.96 132.78,-351.67"/>
<polygon fill="black" stroke="black" points="68.64,-301.67 59.46,-296.38 63.33,-306.24 68.64,-301.67"/>
<text text-anchor="middle" x="128.8" y="-318.8" font-family="Times,serif" font-size="14.00">क्रियाविशेषणम्</text>
</g>
<!-- Node4_1 -->
<g id="node7" class="node">
<title>Node4_1</title>
<ellipse fill="#ffff00" stroke="#ffff00" cx="292.8" cy="-18" rx="58.49" ry="18"/>
<text text-anchor="middle" x="292.8" y="-14.3" font-family="Times,serif" font-size="14.00">वल्कला&#45;(4.1)</text>
</g>
<!-- Node4_2 -->
<g id="node8" class="node">
<title>Node4_2</title>
<ellipse fill="#ffff00" stroke="#ffff00" cx="293.8" cy="-105" rx="54.69" ry="18"/>
<text text-anchor="middle" x="293.8" y="-101.3" font-family="Times,serif" font-size="14.00">अजिन&#45;(4.2)</text>
</g>
<!-- Node4_1&#45;&gt;Node4_2 -->
<g id="edge4" class="edge">
<title>Node4_1&#45;&gt;Node4_2</title>
<path fill="none" stroke="black" d="M293.12,-46.27C293.27,-59.58 293.46,-75.19 293.59,-86.82"/>
<polygon fill="black" stroke="black" points="296.62,-46.16 293,-36.2 289.62,-46.24 296.62,-46.16"/>
<text text-anchor="middle" x="309.8" y="-57.8" font-family="Times,serif" font-size="14.00">समासः</text>
</g>
<!-- Node4_2&#45;&gt;Node4_3 -->
<g id="edge5" class="edge">
<title>Node4_2&#45;&gt;Node4_3</title>
<path fill="none" stroke="black" d="M294.12,-133.27C294.27,-146.58 294.46,-162.19 294.59,-173.82"/>
<polygon fill="black" stroke="black" points="297.62,-133.16 294,-123.2 290.62,-133.24 297.62,-133.16"/>
<text text-anchor="middle" x="310.8" y="-144.8" font-family="Times,serif" font-size="14.00">समासः</text>
</g>
<!-- Node5_1 -->
<g id="node9" class="node">
<title>Node5_1</title>
<ellipse fill="#40e0d0" stroke="#40e0d0" cx="169.8" cy="-192" rx="51.99" ry="18"/>
<text text-anchor="middle" x="169.8" y="-188.3" font-family="Times,serif" font-size="14.00">कुन्त्या(5.1)</text>
</g>
<!-- Node5_1&#45;&gt;Node3_1 -->
<g id="edge7" class="edge">
<title>Node5_1&#45;&gt;Node3_1</title>
<path fill="none" stroke="black" d="M209.85,-210.92C245.17,-226.72 295.94,-249.43 328.4,-263.95"/>
<polygon fill="black" stroke="black" points="210.88,-207.55 200.32,-206.66 208.02,-213.94 210.88,-207.55"/>
<text text-anchor="middle" x="291.8" y="-231.8" font-family="Times,serif" font-size="14.00">सहार्थः</text>
</g>
<!-- Node6_1 -->
<g id="node10" class="node">
<title>Node6_1</title>
<ellipse fill="#ff99ff" stroke="#ff99ff" cx="641.8" cy="-192" rx="42.49" ry="18"/>
<text text-anchor="middle" x="641.8" y="-188.3" font-family="Times,serif" font-size="14.00">सह(6.1)</text>
</g>
<!-- Node6_1&#45;&gt;Node3_1 -->
<g id="edge8" class="edge">
<title>Node6_1&#45;&gt;Node3_1</title>
<path fill="none" stroke="black" d="M605.14,-210.15C581.46,-220.72 549.78,-233.94 520.8,-243 483.67,-254.61 440.55,-263.76 408.28,-269.79"/>
<polygon fill="black" stroke="black" points="606.77,-213.25 614.44,-205.95 603.88,-206.87 606.77,-213.25"/>
<text text-anchor="middle" x="594.3" y="-231.8" font-family="Times,serif" font-size="14.00">सहार्थ_द्योतकः</text>
</g>
<!-- Node7_1 -->
<g id="node11" class="node">
<title>Node7_1</title>
<ellipse fill="#6fffc3" stroke="#6fffc3" cx="167.8" cy="-279" rx="55.79" ry="18"/>
<text text-anchor="middle" x="167.8" y="-275.3" font-family="Times,serif" font-size="14.00">महाराज(7.1)</text>
</g>
<!-- Node7_1&#45;&gt;Node9_1 -->
<g id="edge9" class="edge">
<title>Node7_1&#45;&gt;Node9_1</title>
<path fill="none" stroke="black" d="M167.8,-307.27C167.8,-320.58 167.8,-336.19 167.8,-347.82"/>
<polygon fill="black" stroke="black" points="171.3,-307.2 167.8,-297.2 164.3,-307.2 171.3,-307.2"/>
<text text-anchor="middle" x="188.8" y="-318.8" font-family="Times,serif" font-size="14.00">सम्बोध्यः</text>
</g>
<!-- Node8_1 -->
<g id="node12" class="node">
<title>Node8_1</title>
<ellipse fill="#ffff00" stroke="#ffff00" cx="422.8" cy="-18" rx="53.09" ry="18"/>
<text text-anchor="middle" x="422.8" y="-14.3" font-family="Times,serif" font-size="14.00">समान&#45;(8.1)</text>
</g>
<!-- Node8_2 -->
<g id="node13" class="node">
<title>Node8_2</title>
<ellipse fill="#ffff00" stroke="#ffff00" cx="422.8" cy="-105" rx="44.39" ry="18"/>
<text text-anchor="middle" x="422.8" y="-101.3" font-family="Times,serif" font-size="14.00">व्रत&#45;(8.2)</text>
</g>
<!-- Node8_1&#45;&gt;Node8_2 -->
<g id="edge10" class="edge">
<title>Node8_1&#45;&gt;Node8_2</title>
<path fill="none" stroke="black" d="M422.8,-46.27C422.8,-59.58 422.8,-75.19 422.8,-86.82"/>
<polygon fill="black" stroke="black" points="426.3,-46.2 422.8,-36.2 419.3,-46.2 426.3,-46.2"/>
<text text-anchor="middle" x="439.8" y="-57.8" font-family="Times,serif" font-size="14.00">समासः</text>
</g>
<!-- Node8_2&#45;&gt;Node8_3 -->
<g id="edge11" class="edge">
<title>Node8_2&#45;&gt;Node8_3</title>
<path fill="none" stroke="black" d="M422.48,-133.27C422.32,-146.58 422.13,-162.19 422,-173.82"/>
<polygon fill="black" stroke="black" points="425.98,-133.24 422.59,-123.2 418.98,-133.16 425.98,-133.24"/>
<text text-anchor="middle" x="438.8" y="-144.8" font-family="Times,serif" font-size="14.00">समासः</text>
</g>
</g>
</svg>
