<?xml version="1.0" encoding="UTF-8" standalone="no"?>
<!DOCTYPE svg PUBLIC "-//W3C//DTD SVG 1.1//EN"
 "http://www.w3.org/Graphics/SVG/1.1/DTD/svg11.dtd">
<!-- Generated by graphviz version 2.43.0 (0)
 -->
<!-- Title: G Pages: 1 -->
<svg width="969pt" height="305pt"
 viewBox="0.00 0.00 969.00 305.00" xmlns="http://www.w3.org/2000/svg" xmlns:xlink="http://www.w3.org/1999/xlink">
<g id="graph0" class="graph" transform="scale(1 1) rotate(0) translate(4 301)">
<title>G</title>
<polygon fill="#fffacd" stroke="transparent" points="-4,4 -4,-301 965,-301 965,4 -4,4"/>
<g id="clust1" class="cluster">
<title>cluster_1</title>
<polygon fill="#fffacd" stroke="black" points="609,-79 609,-218 953,-218 953,-79 609,-79"/>
</g>
<g id="clust2" class="cluster">
<title>cluster_2</title>
<polygon fill="#fffacd" stroke="black" points="8,-79 8,-218 138,-218 138,-79 8,-79"/>
</g>
<!-- Node3_1 -->
<g id="node1" class="node">
<title>Node3_1</title>
<ellipse fill="#00bfff" stroke="#00bfff" cx="899" cy="-105" rx="46.29" ry="18"/>
<text text-anchor="middle" x="899" y="-101.3" font-family="Times,serif" font-size="14.00">अन्ये(3.1)</text>
</g>
<!-- Node13_1 -->
<g id="node2" class="node">
<title>Node13_1</title>
<ellipse fill="#00bfff" stroke="#00bfff" cx="710" cy="-192" rx="57.69" ry="18"/>
<text text-anchor="middle" x="710" y="-188.3" font-family="Times,serif" font-size="14.00">पुरुषाः(13.1)</text>
</g>
<!-- Node3_1&#45;&gt;Node13_1 -->
<g id="edge3" class="edge">
<title>Node3_1&#45;&gt;Node13_1</title>
<path fill="none" stroke="black" d="M865.52,-125.24C847.81,-135.04 825.54,-146.8 805,-156 786.55,-164.26 765.51,-172.16 747.92,-178.36"/>
<polygon fill="black" stroke="black" points="867.31,-128.25 874.33,-120.31 863.89,-122.14 867.31,-128.25"/>
<text text-anchor="middle" x="855.5" y="-144.8" font-family="Times,serif" font-size="14.00">विशेषणम्</text>
</g>
<!-- Node9_1 -->
<g id="node8" class="node">
<title>Node9_1</title>
<ellipse fill="#ff1975" stroke="#ff1975" cx="405" cy="-279" rx="46.29" ry="18"/>
<text text-anchor="middle" x="405" y="-275.3" font-family="Times,serif" font-size="14.00">चक्रुः(9.1)</text>
</g>
<!-- Node13_1&#45;&gt;Node9_1 -->
<g id="edge12" class="edge">
<title>Node13_1&#45;&gt;Node9_1</title>
<path fill="none" stroke="black" d="M664.96,-209.61C635.83,-220 596.97,-233.23 562,-243 522.87,-253.94 477.5,-263.75 445.63,-270.18"/>
<polygon fill="black" stroke="black" points="666.22,-212.88 674.44,-206.2 663.85,-206.29 666.22,-212.88"/>
<text text-anchor="middle" x="618" y="-231.8" font-family="Times,serif" font-size="14.00">कर्ता</text>
</g>
<!-- Node5_1 -->
<g id="node3" class="node">
<title>Node5_1</title>
<ellipse fill="#00bfff" stroke="#00bfff" cx="793" cy="-105" rx="42.49" ry="18"/>
<text text-anchor="middle" x="793" y="-101.3" font-family="Times,serif" font-size="14.00">सर्वे(5.1)</text>
</g>
<!-- Node5_1&#45;&gt;Node13_1 -->
<g id="edge5" class="edge">
<title>Node5_1&#45;&gt;Node13_1</title>
<path fill="none" stroke="black" d="M770.05,-129.5C756.09,-143.8 738.6,-161.71 726.11,-174.5"/>
<polygon fill="black" stroke="black" points="772.91,-131.59 777.39,-121.99 767.9,-126.7 772.91,-131.59"/>
<text text-anchor="middle" x="778.5" y="-144.8" font-family="Times,serif" font-size="14.00">विशेषणम्</text>
</g>
<!-- Node14_2 -->
<g id="node4" class="node">
<title>Node14_2</title>
<ellipse fill="#00bfff" stroke="#00bfff" cx="675" cy="-105" rx="57.69" ry="18"/>
<text text-anchor="middle" x="675" y="-101.3" font-family="Times,serif" font-size="14.00">आदयः(14.2)</text>
</g>
<!-- Node14_2&#45;&gt;Node13_1 -->
<g id="edge14" class="edge">
<title>Node14_2&#45;&gt;Node13_1</title>
<path fill="none" stroke="black" d="M685.93,-132.54C691.52,-146.12 698.16,-162.24 703.05,-174.11"/>
<polygon fill="black" stroke="black" points="689.13,-131.12 682.08,-123.2 682.65,-133.78 689.13,-131.12"/>
<text text-anchor="middle" x="716.5" y="-144.8" font-family="Times,serif" font-size="14.00">विशेषणम्</text>
</g>
<!-- Node10_1 -->
<g id="node5" class="node">
<title>Node10_1</title>
<ellipse fill="#93db70" stroke="#93db70" cx="73" cy="-105" rx="53.09" ry="18"/>
<text text-anchor="middle" x="73" y="-101.3" font-family="Times,serif" font-size="14.00">सर्वाः(10.1)</text>
</g>
<!-- Node11_1 -->
<g id="node6" class="node">
<title>Node11_1</title>
<ellipse fill="#93db70" stroke="#93db70" cx="73" cy="-192" rx="56.59" ry="18"/>
<text text-anchor="middle" x="73" y="-188.3" font-family="Times,serif" font-size="14.00">क्रियाः(11.1)</text>
</g>
<!-- Node10_1&#45;&gt;Node11_1 -->
<g id="edge9" class="edge">
<title>Node10_1&#45;&gt;Node11_1</title>
<path fill="none" stroke="black" d="M73,-133.27C73,-146.58 73,-162.19 73,-173.82"/>
<polygon fill="black" stroke="black" points="76.5,-133.2 73,-123.2 69.5,-133.2 76.5,-133.2"/>
<text text-anchor="middle" x="95.5" y="-144.8" font-family="Times,serif" font-size="14.00">विशेषणम्</text>
</g>
<!-- Node11_1&#45;&gt;Node9_1 -->
<g id="edge10" class="edge">
<title>Node11_1&#45;&gt;Node9_1</title>
<path fill="none" stroke="black" d="M115.85,-210.49C123.18,-213.19 130.76,-215.81 138,-218 216.66,-241.85 310.94,-260.86 363.8,-270.69"/>
<polygon fill="black" stroke="black" points="116.67,-207.06 106.08,-206.79 114.19,-213.6 116.67,-207.06"/>
<text text-anchor="middle" x="235" y="-231.8" font-family="Times,serif" font-size="14.00">कर्म</text>
</g>
<!-- Node1_1 -->
<g id="node7" class="node">
<title>Node1_1</title>
<ellipse fill="#ff99ff" stroke="#ff99ff" cx="192" cy="-192" rx="44.69" ry="18"/>
<text text-anchor="middle" x="192" y="-188.3" font-family="Times,serif" font-size="14.00">तथा(1.1)</text>
</g>
<!-- Node1_1&#45;&gt;Node9_1 -->
<g id="edge1" class="edge">
<title>Node1_1&#45;&gt;Node9_1</title>
<path fill="none" stroke="black" d="M228.94,-210.53C234.62,-213.1 240.45,-215.67 246,-218 288.98,-236.06 339.47,-254.68 371.83,-266.29"/>
<polygon fill="black" stroke="black" points="230.13,-207.22 219.58,-206.23 227.21,-213.58 230.13,-207.22"/>
<text text-anchor="middle" x="324.5" y="-231.8" font-family="Times,serif" font-size="14.00">सम्बन्धः</text>
</g>
<!-- Node2_1 -->
<g id="node9" class="node">
<title>Node2_1</title>
<ellipse fill="#ff99ff" stroke="#ff99ff" cx="192" cy="-105" rx="41.69" ry="18"/>
<text text-anchor="middle" x="192" y="-101.3" font-family="Times,serif" font-size="14.00">एव(2.1)</text>
</g>
<!-- Node2_1&#45;&gt;Node1_1 -->
<g id="edge2" class="edge">
<title>Node2_1&#45;&gt;Node1_1</title>
<path fill="none" stroke="black" d="M192,-133.27C192,-146.58 192,-162.19 192,-173.82"/>
<polygon fill="black" stroke="black" points="195.5,-133.2 192,-123.2 188.5,-133.2 195.5,-133.2"/>
<text text-anchor="middle" x="210.5" y="-144.8" font-family="Times,serif" font-size="14.00">सम्बन्धः</text>
</g>
<!-- Node4_1 -->
<g id="node10" class="node">
<title>Node4_1</title>
<ellipse fill="#ff99ff" stroke="#ff99ff" cx="306" cy="-105" rx="48.99" ry="18"/>
<text text-anchor="middle" x="306" y="-101.3" font-family="Times,serif" font-size="14.00">पृथक्(4.1)</text>
</g>
<!-- Node7_1 -->
<g id="node11" class="node">
<title>Node7_1</title>
<ellipse fill="#ff99ff" stroke="#ff99ff" cx="313" cy="-192" rx="57.69" ry="18"/>
<text text-anchor="middle" x="313" y="-188.3" font-family="Times,serif" font-size="14.00">आप्लुत्य(7.1)</text>
</g>
<!-- Node4_1&#45;&gt;Node7_1 -->
<g id="edge4" class="edge">
<title>Node4_1&#45;&gt;Node7_1</title>
<path fill="none" stroke="black" d="M308.25,-133.27C309.34,-146.58 310.63,-162.19 311.59,-173.82"/>
<polygon fill="black" stroke="black" points="311.73,-132.88 307.42,-123.2 304.75,-133.45 311.73,-132.88"/>
<text text-anchor="middle" x="344" y="-144.8" font-family="Times,serif" font-size="14.00">क्रियाविशेषणम्</text>
</g>
<!-- Node7_1&#45;&gt;Node9_1 -->
<g id="edge7" class="edge">
<title>Node7_1&#45;&gt;Node9_1</title>
<path fill="none" stroke="black" d="M338.12,-216.21C353.95,-230.83 373.95,-249.31 387.94,-262.24"/>
<polygon fill="black" stroke="black" points="340.46,-213.6 330.74,-209.39 335.71,-218.75 340.46,-213.6"/>
<text text-anchor="middle" x="384.5" y="-231.8" font-family="Times,serif" font-size="14.00">पूर्वकालः</text>
</g>
<!-- Node6_1 -->
<g id="node12" class="node">
<title>Node6_1</title>
<ellipse fill="#c6e2eb" stroke="#c6e2eb" cx="423" cy="-105" rx="50.09" ry="18"/>
<text text-anchor="middle" x="423" y="-101.3" font-family="Times,serif" font-size="14.00">तीर्थेषु(6.1)</text>
</g>
<!-- Node6_1&#45;&gt;Node7_1 -->
<g id="edge6" class="edge">
<title>Node6_1&#45;&gt;Node7_1</title>
<path fill="none" stroke="black" d="M406.27,-131.16C399.72,-139.76 391.69,-148.98 383,-156 372.43,-164.54 359.44,-171.75 347.53,-177.37"/>
<polygon fill="black" stroke="black" points="409.25,-133.01 412.3,-122.86 403.59,-128.9 409.25,-133.01"/>
<text text-anchor="middle" x="425.5" y="-144.8" font-family="Times,serif" font-size="14.00">अधिकरणम्</text>
</g>
<!-- Node8_1 -->
<g id="node13" class="node">
<title>Node8_1</title>
<ellipse fill="#6fffc3" stroke="#6fffc3" cx="438" cy="-192" rx="48.99" ry="18"/>
<text text-anchor="middle" x="438" y="-188.3" font-family="Times,serif" font-size="14.00">भारत(8.1)</text>
</g>
<!-- Node8_1&#45;&gt;Node9_1 -->
<g id="edge8" class="edge">
<title>Node8_1&#45;&gt;Node9_1</title>
<path fill="none" stroke="black" d="M427.7,-219.54C422.42,-233.12 416.16,-249.24 411.56,-261.11"/>
<polygon fill="black" stroke="black" points="430.97,-220.79 431.32,-210.2 424.44,-218.26 430.97,-220.79"/>
<text text-anchor="middle" x="444" y="-231.8" font-family="Times,serif" font-size="14.00">सम्बोध्यः</text>
</g>
<!-- Node12_1 -->
<g id="node14" class="node">
<title>Node12_1</title>
<ellipse fill="#ff99ff" stroke="#ff99ff" cx="553" cy="-192" rx="48.19" ry="18"/>
<text text-anchor="middle" x="553" y="-188.3" font-family="Times,serif" font-size="14.00">तत्र(12.1)</text>
</g>
<!-- Node12_1&#45;&gt;Node9_1 -->
<g id="edge11" class="edge">
<title>Node12_1&#45;&gt;Node9_1</title>
<path fill="none" stroke="black" d="M520.19,-212.9C504.74,-222.18 486,-233.29 469,-243 456.57,-250.09 442.65,-257.74 430.97,-264.08"/>
<polygon fill="black" stroke="black" points="522.11,-215.83 528.88,-207.68 518.5,-209.84 522.11,-215.83"/>
<text text-anchor="middle" x="526" y="-231.8" font-family="Times,serif" font-size="14.00">देशाधिकरणम्</text>
</g>
<!-- Node14_1 -->
<g id="node15" class="node">
<title>Node14_1</title>
<ellipse fill="#ffff00" stroke="#ffff00" cx="675" cy="-18" rx="55.79" ry="18"/>
<text text-anchor="middle" x="675" y="-14.3" font-family="Times,serif" font-size="14.00">विदुर&#45;(14.1)</text>
</g>
<!-- Node14_1&#45;&gt;Node14_2 -->
<g id="edge13" class="edge">
<title>Node14_1&#45;&gt;Node14_2</title>
<path fill="none" stroke="black" d="M675,-46.27C675,-59.58 675,-75.19 675,-86.82"/>
<polygon fill="black" stroke="black" points="678.5,-46.2 675,-36.2 671.5,-46.2 678.5,-46.2"/>
<text text-anchor="middle" x="692" y="-57.8" font-family="Times,serif" font-size="14.00">समासः</text>
</g>
</g>
</svg>
