<?xml version="1.0" encoding="UTF-8" standalone="no"?>
<!DOCTYPE svg PUBLIC "-//W3C//DTD SVG 1.1//EN"
 "http://www.w3.org/Graphics/SVG/1.1/DTD/svg11.dtd">
<!-- Generated by graphviz version 2.43.0 (0)
 -->
<!-- Title: G Pages: 1 -->
<svg width="1036pt" height="305pt"
 viewBox="0.00 0.00 1036.00 305.00" xmlns="http://www.w3.org/2000/svg" xmlns:xlink="http://www.w3.org/1999/xlink">
<g id="graph0" class="graph" transform="scale(1 1) rotate(0) translate(4 301)">
<title>G</title>
<polygon fill="#fffacd" stroke="transparent" points="-4,4 -4,-301 1032,-301 1032,4 -4,4"/>
<g id="clust1" class="cluster">
<title>cluster_1</title>
<polygon fill="#fffacd" stroke="black" points="702,-79 702,-218 1020,-218 1020,-79 702,-79"/>
</g>
<g id="clust2" class="cluster">
<title>cluster_2</title>
<polygon fill="#fffacd" stroke="black" points="8,-79 8,-218 262,-218 262,-79 8,-79"/>
</g>
<!-- Node2_1 -->
<g id="node1" class="node">
<title>Node2_1</title>
<ellipse fill="#00bfff" stroke="#00bfff" cx="972" cy="-105" rx="40.09" ry="18"/>
<text text-anchor="middle" x="972" y="-101.3" font-family="Times,serif" font-size="14.00">सः(2.1)</text>
</g>
<!-- Node5_1 -->
<g id="node2" class="node">
<title>Node5_1</title>
<ellipse fill="#00bfff" stroke="#00bfff" cx="797" cy="-192" rx="57.69" ry="18"/>
<text text-anchor="middle" x="797" y="-188.3" font-family="Times,serif" font-size="14.00">धृतराष्ट्रः(5.1)</text>
</g>
<!-- Node2_1&#45;&gt;Node5_1 -->
<g id="edge2" class="edge">
<title>Node2_1&#45;&gt;Node5_1</title>
<path fill="none" stroke="black" d="M941.81,-125.98C926.38,-135.72 907.08,-147.2 889,-156 871.64,-164.45 851.68,-172.26 834.79,-178.35"/>
<polygon fill="black" stroke="black" points="943.87,-128.81 950.41,-120.47 940.1,-122.91 943.87,-128.81"/>
<text text-anchor="middle" x="936.5" y="-144.8" font-family="Times,serif" font-size="14.00">विशेषणम्</text>
</g>
<!-- Node7_1 -->
<g id="node9" class="node">
<title>Node7_1</title>
<ellipse fill="#ff1975" stroke="#ff1975" cx="485" cy="-279" rx="65.79" ry="18"/>
<text text-anchor="middle" x="485" y="-275.3" font-family="Times,serif" font-size="14.00">योजयामास(7.1)</text>
</g>
<!-- Node5_1&#45;&gt;Node7_1 -->
<g id="edge5" class="edge">
<title>Node5_1&#45;&gt;Node7_1</title>
<path fill="none" stroke="black" d="M746.78,-207.88C712.09,-218.05 664.84,-231.69 623,-243 592.94,-251.13 559.04,-259.74 532.36,-266.38"/>
<polygon fill="black" stroke="black" points="748.06,-211.16 756.67,-204.98 746.09,-204.44 748.06,-211.16"/>
<text text-anchor="middle" x="704.5" y="-231.8" font-family="Times,serif" font-size="14.00">प्रयोजककर्ता</text>
</g>
<!-- Node4_1 -->
<g id="node3" class="node">
<title>Node4_1</title>
<ellipse fill="#00bfff" stroke="#00bfff" cx="868" cy="-105" rx="46.29" ry="18"/>
<text text-anchor="middle" x="868" y="-101.3" font-family="Times,serif" font-size="14.00">राजा(4.1)</text>
</g>
<!-- Node4_1&#45;&gt;Node5_1 -->
<g id="edge4" class="edge">
<title>Node4_1&#45;&gt;Node5_1</title>
<path fill="none" stroke="black" d="M849.01,-130.23C842.45,-138.48 834.98,-147.71 828,-156 822.88,-162.09 817.13,-168.64 811.99,-174.41"/>
<polygon fill="black" stroke="black" points="851.77,-132.39 855.23,-122.38 846.28,-128.05 851.77,-132.39"/>
<text text-anchor="middle" x="862.5" y="-144.8" font-family="Times,serif" font-size="14.00">विशेषणम्</text>
</g>
<!-- Node6_2 -->
<g id="node4" class="node">
<title>Node6_2</title>
<ellipse fill="#00bfff" stroke="#00bfff" cx="757" cy="-105" rx="46.59" ry="18"/>
<text text-anchor="middle" x="757" y="-101.3" font-family="Times,serif" font-size="14.00">मनाः(6.2)</text>
</g>
<!-- Node6_2&#45;&gt;Node5_1 -->
<g id="edge7" class="edge">
<title>Node6_2&#45;&gt;Node5_1</title>
<path fill="none" stroke="black" d="M769.3,-132.13C775.7,-145.73 783.34,-161.98 788.98,-173.95"/>
<polygon fill="black" stroke="black" points="772.33,-130.35 764.9,-122.79 765.99,-133.33 772.33,-130.35"/>
<text text-anchor="middle" x="801.5" y="-144.8" font-family="Times,serif" font-size="14.00">विशेषणम्</text>
</g>
<!-- Node9_1 -->
<g id="node5" class="node">
<title>Node9_1</title>
<ellipse fill="#93db70" stroke="#93db70" cx="194" cy="-105" rx="59.59" ry="18"/>
<text text-anchor="middle" x="194" y="-101.3" font-family="Times,serif" font-size="14.00">आत्मानम्(9.1)</text>
</g>
<!-- Node13_1 -->
<g id="node6" class="node">
<title>Node13_1</title>
<ellipse fill="#93db70" stroke="#93db70" cx="188" cy="-192" rx="65.79" ry="18"/>
<text text-anchor="middle" x="188" y="-188.3" font-family="Times,serif" font-size="14.00">अनुचरान्(13.1)</text>
</g>
<!-- Node9_1&#45;&gt;Node13_1 -->
<g id="edge9" class="edge">
<title>Node9_1&#45;&gt;Node13_1</title>
<path fill="none" stroke="black" d="M192.08,-133.27C191.14,-146.58 190.03,-162.19 189.21,-173.82"/>
<polygon fill="black" stroke="black" points="195.57,-133.42 192.79,-123.2 188.59,-132.93 195.57,-133.42"/>
<text text-anchor="middle" x="214.5" y="-144.8" font-family="Times,serif" font-size="14.00">समुच्चितः</text>
</g>
<!-- Node13_1&#45;&gt;Node7_1 -->
<g id="edge13" class="edge">
<title>Node13_1&#45;&gt;Node7_1</title>
<path fill="none" stroke="black" d="M235.48,-210.17C264.58,-220.38 302.7,-233.21 337,-243 369.24,-252.2 405.92,-260.89 434.7,-267.3"/>
<polygon fill="black" stroke="black" points="236.57,-206.84 225.98,-206.82 234.24,-213.44 236.57,-206.84"/>
<text text-anchor="middle" x="346" y="-231.8" font-family="Times,serif" font-size="14.00">कर्म</text>
</g>
<!-- Node10_1 -->
<g id="node7" class="node">
<title>Node10_1</title>
<ellipse fill="#93db70" stroke="#93db70" cx="66" cy="-105" rx="50.09" ry="18"/>
<text text-anchor="middle" x="66" y="-101.3" font-family="Times,serif" font-size="14.00">तान्(10.1)</text>
</g>
<!-- Node10_1&#45;&gt;Node13_1 -->
<g id="edge10" class="edge">
<title>Node10_1&#45;&gt;Node13_1</title>
<path fill="none" stroke="black" d="M96.43,-127.2C117.62,-141.96 145.43,-161.34 164.83,-174.85"/>
<polygon fill="black" stroke="black" points="98.3,-124.24 88.09,-121.39 94.3,-129.98 98.3,-124.24"/>
<text text-anchor="middle" x="157.5" y="-144.8" font-family="Times,serif" font-size="14.00">विशेषणम्</text>
</g>
<!-- Node1_1 -->
<g id="node8" class="node">
<title>Node1_1</title>
<ellipse fill="#ff99ff" stroke="#ff99ff" cx="318" cy="-192" rx="46.29" ry="18"/>
<text text-anchor="middle" x="318" y="-188.3" font-family="Times,serif" font-size="14.00">एवम्(1.1)</text>
</g>
<!-- Node1_1&#45;&gt;Node7_1 -->
<g id="edge1" class="edge">
<title>Node1_1&#45;&gt;Node7_1</title>
<path fill="none" stroke="black" d="M342.38,-215.61C353.52,-225.06 367.28,-235.54 381,-243 398.99,-252.78 420.22,-260.52 438.78,-266.2"/>
<polygon fill="black" stroke="black" points="344.6,-212.91 334.76,-208.98 340,-218.19 344.6,-212.91"/>
<text text-anchor="middle" x="416" y="-231.8" font-family="Times,serif" font-size="14.00">क्रियाविशेषणम्</text>
</g>
<!-- Node3_1 -->
<g id="node10" class="node">
<title>Node3_1</title>
<ellipse fill="#40e0d0" stroke="#40e0d0" cx="432" cy="-192" rx="50.09" ry="18"/>
<text text-anchor="middle" x="432" y="-188.3" font-family="Times,serif" font-size="14.00">तपसा(3.1)</text>
</g>
<!-- Node3_1&#45;&gt;Node7_1 -->
<g id="edge3" class="edge">
<title>Node3_1&#45;&gt;Node7_1</title>
<path fill="none" stroke="black" d="M447.8,-218.34C456.38,-232.1 466.76,-248.74 474.37,-260.95"/>
<polygon fill="black" stroke="black" points="450.73,-216.43 442.47,-209.79 444.79,-220.13 450.73,-216.43"/>
<text text-anchor="middle" x="470.5" y="-231.8" font-family="Times,serif" font-size="14.00">हेतुः</text>
</g>
<!-- Node6_1 -->
<g id="node11" class="node">
<title>Node6_1</title>
<ellipse fill="#ffff00" stroke="#ffff00" cx="757" cy="-18" rx="46.59" ry="18"/>
<text text-anchor="middle" x="757" y="-14.3" font-family="Times,serif" font-size="14.00">महा&#45;(6.1)</text>
</g>
<!-- Node6_1&#45;&gt;Node6_2 -->
<g id="edge6" class="edge">
<title>Node6_1&#45;&gt;Node6_2</title>
<path fill="none" stroke="black" d="M757,-46.27C757,-59.58 757,-75.19 757,-86.82"/>
<polygon fill="black" stroke="black" points="760.5,-46.2 757,-36.2 753.5,-46.2 760.5,-46.2"/>
<text text-anchor="middle" x="774" y="-57.8" font-family="Times,serif" font-size="14.00">समासः</text>
</g>
<!-- Node8_1 -->
<g id="node12" class="node">
<title>Node8_1</title>
<ellipse fill="#ff99ff" stroke="#ff99ff" cx="538" cy="-192" rx="37.89" ry="18"/>
<text text-anchor="middle" x="538" y="-188.3" font-family="Times,serif" font-size="14.00">च(8.1)</text>
</g>
<!-- Node8_1&#45;&gt;Node7_1 -->
<g id="edge8" class="edge">
<title>Node8_1&#45;&gt;Node7_1</title>
<path fill="none" stroke="black" d="M522.42,-217.99C513.77,-231.87 503.23,-248.76 495.55,-261.08"/>
<polygon fill="black" stroke="black" points="525.46,-219.73 527.78,-209.39 519.52,-216.02 525.46,-219.73"/>
<text text-anchor="middle" x="532.5" y="-231.8" font-family="Times,serif" font-size="14.00">सम्बन्धः</text>
</g>
<!-- Node11_1 -->
<g id="node13" class="node">
<title>Node11_1</title>
<ellipse fill="#ff99ff" stroke="#ff99ff" cx="315" cy="-105" rx="43.59" ry="18"/>
<text text-anchor="middle" x="315" y="-101.3" font-family="Times,serif" font-size="14.00">च(11.1)</text>
</g>
<!-- Node11_1&#45;&gt;Node13_1 -->
<g id="edge11" class="edge">
<title>Node11_1&#45;&gt;Node13_1</title>
<path fill="none" stroke="black" d="M284.94,-126.41C271.52,-135.5 255.49,-146.32 241,-156 231.56,-162.31 221.13,-169.21 212.04,-175.2"/>
<polygon fill="black" stroke="black" points="287.03,-129.23 293.35,-120.72 283.1,-123.43 287.03,-129.23"/>
<text text-anchor="middle" x="300" y="-144.8" font-family="Times,serif" font-size="14.00">समुच्चय_द्योतकः</text>
</g>
<!-- Node12_1 -->
<g id="node14" class="node">
<title>Node12_1</title>
<ellipse fill="#ff99ff" stroke="#ff99ff" cx="315" cy="-18" rx="51.99" ry="18"/>
<text text-anchor="middle" x="315" y="-14.3" font-family="Times,serif" font-size="14.00">अपि(12.1)</text>
</g>
<!-- Node12_1&#45;&gt;Node11_1 -->
<g id="edge12" class="edge">
<title>Node12_1&#45;&gt;Node11_1</title>
<path fill="none" stroke="black" d="M315,-46.27C315,-59.58 315,-75.19 315,-86.82"/>
<polygon fill="black" stroke="black" points="318.5,-46.2 315,-36.2 311.5,-46.2 318.5,-46.2"/>
<text text-anchor="middle" x="353" y="-57.8" font-family="Times,serif" font-size="14.00">समुच्चय_द्योतकः</text>
</g>
<!-- Node14_1 -->
<g id="node15" class="node">
<title>Node14_1</title>
<ellipse fill="#ff99ff" stroke="#ff99ff" cx="644" cy="-192" rx="50.09" ry="18"/>
<text text-anchor="middle" x="644" y="-188.3" font-family="Times,serif" font-size="14.00">तदा(14.1)</text>
</g>
<!-- Node14_1&#45;&gt;Node7_1 -->
<g id="edge14" class="edge">
<title>Node14_1&#45;&gt;Node7_1</title>
<path fill="none" stroke="black" d="M609.74,-212.76C593.29,-222.11 573.23,-233.33 555,-243 542.28,-249.75 528.09,-256.91 515.83,-262.98"/>
<polygon fill="black" stroke="black" points="611.52,-215.77 618.48,-207.77 608.06,-209.69 611.52,-215.77"/>
<text text-anchor="middle" x="600.5" y="-231.8" font-family="Times,serif" font-size="14.00">सम्बन्धः</text>
</g>
</g>
</svg>
