<?xml version="1.0" encoding="UTF-8" standalone="no"?>
<!DOCTYPE svg PUBLIC "-//W3C//DTD SVG 1.1//EN"
 "http://www.w3.org/Graphics/SVG/1.1/DTD/svg11.dtd">
<!-- Generated by graphviz version 2.43.0 (0)
 -->
<!-- Title: G Pages: 1 -->
<svg width="1041pt" height="234pt"
 viewBox="0.00 0.00 1040.95 234.00" xmlns="http://www.w3.org/2000/svg" xmlns:xlink="http://www.w3.org/1999/xlink">
<g id="graph0" class="graph" transform="scale(1 1) rotate(0) translate(4 230)">
<title>G</title>
<polygon fill="#fffacd" stroke="transparent" points="-4,4 -4,-230 1036.95,-230 1036.95,4 -4,4"/>
<g id="clust1" class="cluster">
<title>cluster_1</title>
<polygon fill="#fffacd" stroke="black" points="8,-8 8,-147 250,-147 250,-8 8,-8"/>
</g>
<!-- Node4_1 -->
<g id="node1" class="node">
<title>Node4_1</title>
<ellipse fill="#00bfff" stroke="#00bfff" cx="193" cy="-34" rx="48.99" ry="18"/>
<text text-anchor="middle" x="193" y="-30.3" font-family="Times,serif" font-size="14.00">महान्(4.1)</text>
</g>
<!-- Node1_1 -->
<g id="node2" class="node">
<title>Node1_1</title>
<ellipse fill="#00bfff" stroke="#00bfff" cx="201" cy="-121" rx="40.09" ry="18"/>
<text text-anchor="middle" x="201" y="-117.3" font-family="Times,serif" font-size="14.00">सः(1.1)</text>
</g>
<!-- Node4_1&#45;&gt;Node1_1 -->
<g id="edge4" class="edge">
<title>Node4_1&#45;&gt;Node1_1</title>
<path fill="none" stroke="black" d="M195.57,-62.27C196.82,-75.58 198.29,-91.19 199.38,-102.82"/>
<polygon fill="black" stroke="black" points="199.04,-61.83 194.62,-52.2 192.07,-62.49 199.04,-61.83"/>
<text text-anchor="middle" x="220.5" y="-73.8" font-family="Times,serif" font-size="14.00">विशेषणम्</text>
</g>
<!-- Node5_1 -->
<g id="node4" class="node">
<title>Node5_1</title>
<ellipse fill="#ff1975" stroke="#ff1975" cx="257" cy="-208" rx="53.89" ry="18"/>
<text text-anchor="middle" x="257" y="-204.3" font-family="Times,serif" font-size="14.00">आसीत्(5.1)</text>
</g>
<!-- Node1_1&#45;&gt;Node5_1 -->
<g id="edge1" class="edge">
<title>Node1_1&#45;&gt;Node5_1</title>
<path fill="none" stroke="black" d="M217.5,-147.05C226.71,-161.02 237.92,-178.04 246.04,-190.37"/>
<polygon fill="black" stroke="black" points="220.22,-144.81 211.8,-138.39 214.38,-148.67 220.22,-144.81"/>
<text text-anchor="middle" x="244" y="-160.8" font-family="Times,serif" font-size="14.00">कर्ता</text>
</g>
<!-- Node7_1 -->
<g id="node3" class="node">
<title>Node7_1</title>
<ellipse fill="#00bfff" stroke="#00bfff" cx="71" cy="-34" rx="55.49" ry="18"/>
<text text-anchor="middle" x="71" y="-30.3" font-family="Times,serif" font-size="14.00">परन्तपः(7.1)</text>
</g>
<!-- Node7_1&#45;&gt;Node1_1 -->
<g id="edge6" class="edge">
<title>Node7_1&#45;&gt;Node1_1</title>
<path fill="none" stroke="black" d="M103.16,-56.03C126.74,-71.44 158.14,-91.98 178.93,-105.57"/>
<polygon fill="black" stroke="black" points="104.83,-52.94 94.54,-50.39 101,-58.79 104.83,-52.94"/>
<text text-anchor="middle" x="166.5" y="-73.8" font-family="Times,serif" font-size="14.00">विशेषणम्</text>
</g>
<!-- Node2_1 -->
<g id="node5" class="node">
<title>Node2_1</title>
<ellipse fill="#ff99ff" stroke="#ff99ff" cx="299" cy="-34" rx="38.99" ry="18"/>
<text text-anchor="middle" x="299" y="-30.3" font-family="Times,serif" font-size="14.00">हि(2.1)</text>
</g>
<!-- Node2_1&#45;&gt;Node1_1 -->
<g id="edge2" class="edge">
<title>Node2_1&#45;&gt;Node1_1</title>
<path fill="none" stroke="black" d="M276.14,-58.08C267.26,-66.76 256.86,-76.56 247,-85 238.92,-91.92 229.64,-99.11 221.55,-105.16"/>
<polygon fill="black" stroke="black" points="278.85,-60.32 283.51,-50.81 273.94,-55.34 278.85,-60.32"/>
<text text-anchor="middle" x="282.5" y="-73.8" font-family="Times,serif" font-size="14.00">सम्बन्धः</text>
</g>
<!-- Node3_1 -->
<g id="node6" class="node">
<title>Node3_1</title>
<ellipse fill="#00bfff" stroke="#00bfff" cx="402" cy="-34" rx="46.29" ry="18"/>
<text text-anchor="middle" x="402" y="-30.3" font-family="Times,serif" font-size="14.00">राजा(3.1)</text>
</g>
<!-- Node3_1&#45;&gt;Node1_1 -->
<g id="edge3" class="edge">
<title>Node3_1&#45;&gt;Node1_1</title>
<path fill="none" stroke="black" d="M368.15,-54.14C349.8,-64.08 326.53,-75.99 305,-85 281.27,-94.92 274.37,-94.78 250,-103 244.11,-104.98 237.84,-107.13 231.82,-109.22"/>
<polygon fill="black" stroke="black" points="369.91,-57.17 377,-49.29 366.55,-51.03 369.91,-57.17"/>
<text text-anchor="middle" x="374" y="-73.8" font-family="Times,serif" font-size="14.00">विधेय_विशेषणम्</text>
</g>
<!-- Node6_1 -->
<g id="node7" class="node">
<title>Node6_1</title>
<ellipse fill="#c6e2eb" stroke="#c6e2eb" cx="314" cy="-121" rx="54.69" ry="18"/>
<text text-anchor="middle" x="314" y="-117.3" font-family="Times,serif" font-size="14.00">केकयेषु(6.1)</text>
</g>
<!-- Node6_1&#45;&gt;Node5_1 -->
<g id="edge5" class="edge">
<title>Node6_1&#45;&gt;Node5_1</title>
<path fill="none" stroke="black" d="M296.97,-147.4C287.67,-161.26 276.43,-178.03 268.24,-190.24"/>
<polygon fill="black" stroke="black" points="300.08,-149.05 302.74,-138.79 294.26,-145.15 300.08,-149.05"/>
<text text-anchor="middle" x="316.5" y="-160.8" font-family="Times,serif" font-size="14.00">अधिकरणम्</text>
</g>
<!-- Node8_1 -->
<g id="node8" class="node">
<title>Node8_1</title>
<ellipse fill="#00bfff" stroke="#00bfff" cx="754" cy="-34" rx="40.09" ry="18"/>
<text text-anchor="middle" x="754" y="-30.3" font-family="Times,serif" font-size="14.00">सः(8.1)</text>
</g>
<!-- Node13_1 -->
<g id="node9" class="node">
<title>Node13_1</title>
<ellipse fill="#ff1975" stroke="#ff1975" cx="642" cy="-121" rx="63.89" ry="18"/>
<text text-anchor="middle" x="642" y="-117.3" font-family="Times,serif" font-size="14.00">आविशत्(13.1)</text>
</g>
<!-- Node8_1&#45;&gt;Node13_1 -->
<g id="edge7" class="edge">
<title>Node8_1&#45;&gt;Node13_1</title>
<path fill="none" stroke="black" d="M726.28,-56.03C706.78,-70.84 681.06,-90.35 663.19,-103.92"/>
<polygon fill="black" stroke="black" points="728.64,-58.64 734.49,-49.81 724.41,-53.06 728.64,-58.64"/>
<text text-anchor="middle" x="715" y="-73.8" font-family="Times,serif" font-size="14.00">कर्ता</text>
</g>
<!-- Node11_1 -->
<g id="node10" class="node">
<title>Node11_1</title>
<ellipse fill="#ff99ff" stroke="#ff99ff" cx="860" cy="-121" rx="57.69" ry="18"/>
<text text-anchor="middle" x="860" y="-117.3" font-family="Times,serif" font-size="14.00">निवेश्य(11.1)</text>
</g>
<!-- Node8_1&#45;&gt;Node11_1 -->
<g id="edge8" class="edge">
<title>Node8_1&#45;&gt;Node11_1</title>
<path fill="none" stroke="black" stroke-dasharray="1,5" d="M780.98,-56.64C799.42,-71.42 823.44,-90.68 840.13,-104.07"/>
<polygon fill="black" stroke="black" points="782.94,-53.72 772.95,-50.2 778.56,-59.18 782.94,-53.72"/>
<text text-anchor="middle" x="824" y="-73.8" font-family="Times,serif" font-size="14.00">कर्ता</text>
</g>
<!-- Node9_1 -->
<g id="node11" class="node">
<title>Node9_1</title>
<ellipse fill="#93db70" stroke="#93db70" cx="860" cy="-34" rx="47.39" ry="18"/>
<text text-anchor="middle" x="860" y="-30.3" font-family="Times,serif" font-size="14.00">पुत्रम्(9.1)</text>
</g>
<!-- Node9_1&#45;&gt;Node11_1 -->
<g id="edge9" class="edge">
<title>Node9_1&#45;&gt;Node11_1</title>
<path fill="none" stroke="black" d="M860,-62.27C860,-75.58 860,-91.19 860,-102.82"/>
<polygon fill="black" stroke="black" points="863.5,-62.2 860,-52.2 856.5,-62.2 863.5,-62.2"/>
<text text-anchor="middle" x="869" y="-73.8" font-family="Times,serif" font-size="14.00">कर्म</text>
</g>
<!-- Node10_1 -->
<g id="node12" class="node">
<title>Node10_1</title>
<ellipse fill="#6fffc3" stroke="#6fffc3" cx="642" cy="-34" rx="53.89" ry="18"/>
<text text-anchor="middle" x="642" y="-30.3" font-family="Times,serif" font-size="14.00">मनुज(10.1)</text>
</g>
<!-- Node10_1&#45;&gt;Node13_1 -->
<g id="edge10" class="edge">
<title>Node10_1&#45;&gt;Node13_1</title>
<path fill="none" stroke="black" d="M642,-62.27C642,-75.58 642,-91.19 642,-102.82"/>
<polygon fill="black" stroke="black" points="645.5,-62.2 642,-52.2 638.5,-62.2 645.5,-62.2"/>
<text text-anchor="middle" x="663" y="-73.8" font-family="Times,serif" font-size="14.00">सम्बोध्यः</text>
</g>
<!-- Node10_2 -->
<g id="node13" class="node">
<title>Node10_2</title>
<ellipse fill="#c6e2eb" stroke="#c6e2eb" cx="979" cy="-34" rx="53.89" ry="18"/>
<text text-anchor="middle" x="979" y="-30.3" font-family="Times,serif" font-size="14.00">ऐश्वर्ये(10.2)</text>
</g>
<!-- Node10_2&#45;&gt;Node11_1 -->
<g id="edge11" class="edge">
<title>Node10_2&#45;&gt;Node11_1</title>
<path fill="none" stroke="black" d="M948.98,-56.44C928.17,-71.31 900.92,-90.77 882.09,-104.22"/>
<polygon fill="black" stroke="black" points="951.07,-59.25 957.17,-50.59 947,-53.55 951.07,-59.25"/>
<text text-anchor="middle" x="953.5" y="-73.8" font-family="Times,serif" font-size="14.00">अधिकरणम्</text>
</g>
<!-- Node12_1 -->
<g id="node14" class="node">
<title>Node12_1</title>
<ellipse fill="#93db70" stroke="#93db70" cx="518" cy="-34" rx="51.99" ry="18"/>
<text text-anchor="middle" x="518" y="-30.3" font-family="Times,serif" font-size="14.00">वनम्(12.1)</text>
</g>
<!-- Node12_1&#45;&gt;Node13_1 -->
<g id="edge12" class="edge">
<title>Node12_1&#45;&gt;Node13_1</title>
<path fill="none" stroke="black" d="M548.99,-56.24C570.67,-71.1 599.16,-90.63 618.87,-104.15"/>
<polygon fill="black" stroke="black" points="550.68,-53.16 540.46,-50.39 546.72,-58.93 550.68,-53.16"/>
<text text-anchor="middle" x="596" y="-73.8" font-family="Times,serif" font-size="14.00">कर्म</text>
</g>
</g>
</svg>
