<?xml version="1.0" encoding="UTF-8" standalone="no"?>
<!DOCTYPE svg PUBLIC "-//W3C//DTD SVG 1.1//EN"
 "http://www.w3.org/Graphics/SVG/1.1/DTD/svg11.dtd">
<!-- Generated by graphviz version 2.43.0 (0)
 -->
<!-- Title: G Pages: 1 -->
<svg width="703pt" height="392pt"
 viewBox="0.00 0.00 703.20 392.00" xmlns="http://www.w3.org/2000/svg" xmlns:xlink="http://www.w3.org/1999/xlink">
<g id="graph0" class="graph" transform="scale(1 1) rotate(0) translate(4 388)">
<title>G</title>
<polygon fill="#fffacd" stroke="transparent" points="-4,4 -4,-388 699.2,-388 699.2,4 -4,4"/>
<g id="clust1" class="cluster">
<title>cluster_1</title>
<polygon fill="#fffacd" stroke="black" points="8,-166 8,-305 124,-305 124,-166 8,-166"/>
</g>
<g id="clust2" class="cluster">
<title>cluster_2</title>
<polygon fill="#fffacd" stroke="black" points="418,-79 418,-218 538,-218 538,-79 418,-79"/>
</g>
<g id="clust3" class="cluster">
<title>cluster_3</title>
<polygon fill="#fffacd" stroke="black" points="132,-79 132,-218 410,-218 410,-79 132,-79"/>
</g>
<!-- Node2_1 -->
<g id="node1" class="node">
<title>Node2_1</title>
<ellipse fill="#93db70" stroke="#93db70" cx="66" cy="-192" rx="50.09" ry="18"/>
<text text-anchor="middle" x="66" y="-188.3" font-family="Times,serif" font-size="14.00">धर्म्याः(2.1)</text>
</g>
<!-- Node3_1 -->
<g id="node2" class="node">
<title>Node3_1</title>
<ellipse fill="#93db70" stroke="#93db70" cx="67" cy="-279" rx="48.99" ry="18"/>
<text text-anchor="middle" x="67" y="-275.3" font-family="Times,serif" font-size="14.00">कथाः(3.1)</text>
</g>
<!-- Node2_1&#45;&gt;Node3_1 -->
<g id="edge2" class="edge">
<title>Node2_1&#45;&gt;Node3_1</title>
<path fill="none" stroke="black" d="M66.32,-220.27C66.48,-233.58 66.66,-249.19 66.8,-260.82"/>
<polygon fill="black" stroke="black" points="69.82,-220.16 66.2,-210.2 62.82,-220.24 69.82,-220.16"/>
<text text-anchor="middle" x="89.5" y="-231.8" font-family="Times,serif" font-size="14.00">विशेषणम्</text>
</g>
<!-- Node5_1 -->
<g id="node9" class="node">
<title>Node5_1</title>
<ellipse fill="#ff1975" stroke="#ff1975" cx="465" cy="-366" rx="46.29" ry="18"/>
<text text-anchor="middle" x="465" y="-362.3" font-family="Times,serif" font-size="14.00">चक्रुः(5.1)</text>
</g>
<!-- Node3_1&#45;&gt;Node5_1 -->
<g id="edge3" class="edge">
<title>Node3_1&#45;&gt;Node5_1</title>
<path fill="none" stroke="black" d="M118,-290.89C198.43,-308.07 353.06,-341.09 425.6,-356.59"/>
<polygon fill="black" stroke="black" points="118.6,-287.44 108.09,-288.78 117.14,-294.29 118.6,-287.44"/>
<text text-anchor="middle" x="298" y="-318.8" font-family="Times,serif" font-size="14.00">कर्म</text>
</g>
<!-- Node6_1 -->
<g id="node3" class="node">
<title>Node6_1</title>
<ellipse fill="#00bfff" stroke="#00bfff" cx="478" cy="-105" rx="37.09" ry="18"/>
<text text-anchor="middle" x="478" y="-101.3" font-family="Times,serif" font-size="14.00">ते(6.1)</text>
</g>
<!-- Node7_2 -->
<g id="node4" class="node">
<title>Node7_2</title>
<ellipse fill="#00bfff" stroke="#00bfff" cx="478" cy="-192" rx="51.99" ry="18"/>
<text text-anchor="middle" x="478" y="-188.3" font-family="Times,serif" font-size="14.00">ऋषयः(7.2)</text>
</g>
<!-- Node6_1&#45;&gt;Node7_2 -->
<g id="edge5" class="edge">
<title>Node6_1&#45;&gt;Node7_2</title>
<path fill="none" stroke="black" d="M478,-133.27C478,-146.58 478,-162.19 478,-173.82"/>
<polygon fill="black" stroke="black" points="481.5,-133.2 478,-123.2 474.5,-133.2 481.5,-133.2"/>
<text text-anchor="middle" x="500.5" y="-144.8" font-family="Times,serif" font-size="14.00">विशेषणम्</text>
</g>
<!-- Node7_2&#45;&gt;Node5_1 -->
<g id="edge7" class="edge">
<title>Node7_2&#45;&gt;Node5_1</title>
<path fill="none" stroke="black" d="M475.93,-220.36C473.22,-256.24 468.54,-318.12 466.29,-347.95"/>
<polygon fill="black" stroke="black" points="479.44,-220.36 476.71,-210.12 472.46,-219.83 479.44,-220.36"/>
<text text-anchor="middle" x="483" y="-275.3" font-family="Times,serif" font-size="14.00">कर्ता</text>
</g>
<!-- Node8_1 -->
<g id="node12" class="node">
<title>Node8_1</title>
<ellipse fill="#00bfff" stroke="#00bfff" cx="374" cy="-279" rx="55.49" ry="18"/>
<text text-anchor="middle" x="374" y="-275.3" font-family="Times,serif" font-size="14.00">रमयन्तः(8.1)</text>
</g>
<!-- Node7_2&#45;&gt;Node8_1 -->
<g id="edge8" class="edge">
<title>Node7_2&#45;&gt;Node8_1</title>
<path fill="none" stroke="black" stroke-dasharray="1,5" d="M446.62,-214.58C440.68,-218.9 434.58,-223.5 429,-228 415.74,-238.7 401.54,-251.66 390.88,-261.7"/>
<polygon fill="black" stroke="black" points="449.05,-217.15 455.15,-208.49 444.98,-211.46 449.05,-217.15"/>
<text text-anchor="middle" x="440" y="-231.8" font-family="Times,serif" font-size="14.00">कर्ता</text>
</g>
<!-- Node9_2 -->
<g id="node5" class="node">
<title>Node9_2</title>
<ellipse fill="#93db70" stroke="#93db70" cx="200" cy="-105" rx="59.59" ry="18"/>
<text text-anchor="middle" x="200" y="-101.3" font-family="Times,serif" font-size="14.00">आत्मानम्(9.2)</text>
</g>
<!-- Node10_1 -->
<g id="node6" class="node">
<title>Node10_1</title>
<ellipse fill="#93db70" stroke="#93db70" cx="336" cy="-192" rx="66.09" ry="18"/>
<text text-anchor="middle" x="336" y="-188.3" font-family="Times,serif" font-size="14.00">धृतराष्ट्रम्(10.1)</text>
</g>
<!-- Node9_2&#45;&gt;Node10_1 -->
<g id="edge11" class="edge">
<title>Node9_2&#45;&gt;Node10_1</title>
<path fill="none" stroke="black" d="M233.68,-127.05C257.54,-141.96 289.04,-161.65 310.75,-175.22"/>
<polygon fill="black" stroke="black" points="235.28,-123.92 224.94,-121.59 231.57,-129.86 235.28,-123.92"/>
<text text-anchor="middle" x="298.5" y="-144.8" font-family="Times,serif" font-size="14.00">विशेषणम्</text>
</g>
<!-- Node10_1&#45;&gt;Node8_1 -->
<g id="edge12" class="edge">
<title>Node10_1&#45;&gt;Node8_1</title>
<path fill="none" stroke="black" d="M347.87,-219.54C353.94,-233.12 361.14,-249.24 366.45,-261.11"/>
<polygon fill="black" stroke="black" points="350.97,-217.9 343.69,-210.2 344.58,-220.76 350.97,-217.9"/>
<text text-anchor="middle" x="366" y="-231.8" font-family="Times,serif" font-size="14.00">कर्म</text>
</g>
<!-- Node11_2 -->
<g id="node7" class="node">
<title>Node11_2</title>
<ellipse fill="#93db70" stroke="#93db70" cx="340" cy="-105" rx="61.99" ry="18"/>
<text text-anchor="middle" x="340" y="-101.3" font-family="Times,serif" font-size="14.00">अधिपम्(11.2)</text>
</g>
<!-- Node11_2&#45;&gt;Node10_1 -->
<g id="edge14" class="edge">
<title>Node11_2&#45;&gt;Node10_1</title>
<path fill="none" stroke="black" d="M338.72,-133.27C338.09,-146.58 337.36,-162.19 336.81,-173.82"/>
<polygon fill="black" stroke="black" points="342.22,-133.35 339.19,-123.2 335.22,-133.03 342.22,-133.35"/>
<text text-anchor="middle" x="360.5" y="-144.8" font-family="Times,serif" font-size="14.00">विशेषणम्</text>
</g>
<!-- Node1_1 -->
<g id="node8" class="node">
<title>Node1_1</title>
<ellipse fill="#ff99ff" stroke="#ff99ff" cx="547" cy="-279" rx="42.49" ry="18"/>
<text text-anchor="middle" x="547" y="-275.3" font-family="Times,serif" font-size="14.00">तत्र(1.1)</text>
</g>
<!-- Node1_1&#45;&gt;Node5_1 -->
<g id="edge1" class="edge">
<title>Node1_1&#45;&gt;Node5_1</title>
<path fill="none" stroke="black" d="M524.28,-303.55C510.39,-317.95 492.98,-335.99 480.63,-348.79"/>
<polygon fill="black" stroke="black" points="527.15,-305.61 531.58,-295.99 522.11,-300.75 527.15,-305.61"/>
<text text-anchor="middle" x="528.5" y="-318.8" font-family="Times,serif" font-size="14.00">सम्बन्धः</text>
</g>
<!-- Node4_1 -->
<g id="node10" class="node">
<title>Node4_1</title>
<ellipse fill="#6fffc3" stroke="#6fffc3" cx="651" cy="-279" rx="44.39" ry="18"/>
<text text-anchor="middle" x="651" y="-275.3" font-family="Times,serif" font-size="14.00">तात(4.1)</text>
</g>
<!-- Node4_1&#45;&gt;Node5_1 -->
<g id="edge4" class="edge">
<title>Node4_1&#45;&gt;Node5_1</title>
<path fill="none" stroke="black" d="M616.03,-298.31C596.98,-308.08 572.88,-320.09 551,-330 533.23,-338.04 513.05,-346.3 496.7,-352.78"/>
<polygon fill="black" stroke="black" points="617.66,-301.41 624.95,-293.72 614.46,-295.19 617.66,-301.41"/>
<text text-anchor="middle" x="602" y="-318.8" font-family="Times,serif" font-size="14.00">सम्बोध्यः</text>
</g>
<!-- Node7_1 -->
<g id="node11" class="node">
<title>Node7_1</title>
<ellipse fill="#ffff00" stroke="#ffff00" cx="594" cy="-105" rx="48.19" ry="18"/>
<text text-anchor="middle" x="594" y="-101.3" font-family="Times,serif" font-size="14.00">परम&#45;(7.1)</text>
</g>
<!-- Node7_1&#45;&gt;Node7_2 -->
<g id="edge6" class="edge">
<title>Node7_1&#45;&gt;Node7_2</title>
<path fill="none" stroke="black" d="M565.35,-127.59C553.52,-136.45 539.64,-146.77 527,-156 518.22,-162.41 508.49,-169.39 500.02,-175.42"/>
<polygon fill="black" stroke="black" points="567.66,-130.23 573.56,-121.43 563.46,-124.63 567.66,-130.23"/>
<text text-anchor="middle" x="564" y="-144.8" font-family="Times,serif" font-size="14.00">समासः</text>
</g>
<!-- Node8_1&#45;&gt;Node5_1 -->
<g id="edge9" class="edge">
<title>Node8_1&#45;&gt;Node5_1</title>
<path fill="none" stroke="black" d="M381.78,-306.62C385.15,-314.84 389.79,-323.44 396,-330 405.7,-340.24 419.05,-347.97 431.42,-353.53"/>
<polygon fill="black" stroke="black" points="384.98,-305.16 378.28,-296.96 378.4,-307.55 384.98,-305.16"/>
<text text-anchor="middle" x="423.5" y="-318.8" font-family="Times,serif" font-size="14.00">समानकालः</text>
</g>
<!-- Node9_1 -->
<g id="node13" class="node">
<title>Node9_1</title>
<ellipse fill="#ffff00" stroke="#ffff00" cx="200" cy="-18" rx="46.59" ry="18"/>
<text text-anchor="middle" x="200" y="-14.3" font-family="Times,serif" font-size="14.00">महा&#45;(9.1)</text>
</g>
<!-- Node9_1&#45;&gt;Node9_2 -->
<g id="edge10" class="edge">
<title>Node9_1&#45;&gt;Node9_2</title>
<path fill="none" stroke="black" d="M200,-46.27C200,-59.58 200,-75.19 200,-86.82"/>
<polygon fill="black" stroke="black" points="203.5,-46.2 200,-36.2 196.5,-46.2 203.5,-46.2"/>
<text text-anchor="middle" x="217" y="-57.8" font-family="Times,serif" font-size="14.00">समासः</text>
</g>
<!-- Node11_1 -->
<g id="node14" class="node">
<title>Node11_1</title>
<ellipse fill="#ffff00" stroke="#ffff00" cx="340" cy="-18" rx="51.99" ry="18"/>
<text text-anchor="middle" x="340" y="-14.3" font-family="Times,serif" font-size="14.00">जन&#45;(11.1)</text>
</g>
<!-- Node11_1&#45;&gt;Node11_2 -->
<g id="edge13" class="edge">
<title>Node11_1&#45;&gt;Node11_2</title>
<path fill="none" stroke="black" d="M340,-46.27C340,-59.58 340,-75.19 340,-86.82"/>
<polygon fill="black" stroke="black" points="343.5,-46.2 340,-36.2 336.5,-46.2 343.5,-46.2"/>
<text text-anchor="middle" x="357" y="-57.8" font-family="Times,serif" font-size="14.00">समासः</text>
</g>
</g>
</svg>
