<?xml version="1.0" encoding="UTF-8" standalone="no"?>
<!DOCTYPE svg PUBLIC "-//W3C//DTD SVG 1.1//EN"
 "http://www.w3.org/Graphics/SVG/1.1/DTD/svg11.dtd">
<!-- Generated by graphviz version 2.43.0 (0)
 -->
<!-- Title: G Pages: 1 -->
<svg width="729pt" height="321pt"
 viewBox="0.00 0.00 729.00 321.00" xmlns="http://www.w3.org/2000/svg" xmlns:xlink="http://www.w3.org/1999/xlink">
<g id="graph0" class="graph" transform="scale(1 1) rotate(0) translate(4 317)">
<title>G</title>
<polygon fill="#fffacd" stroke="transparent" points="-4,4 -4,-317 725,-317 725,4 -4,4"/>
<g id="clust1" class="cluster">
<title>cluster_1</title>
<polygon fill="#fffacd" stroke="black" points="577,-8 577,-147 713,-147 713,-8 577,-8"/>
</g>
<g id="clust2" class="cluster">
<title>cluster_2</title>
<polygon fill="#fffacd" stroke="black" points="8,-95 8,-234 264,-234 264,-95 8,-95"/>
</g>
<!-- Node1_1 -->
<g id="node1" class="node">
<title>Node1_1</title>
<ellipse fill="#87ceeb" stroke="#87ceeb" cx="645" cy="-34" rx="41.69" ry="18"/>
<text text-anchor="middle" x="645" y="-30.3" font-family="Times,serif" font-size="14.00">तव(1.1)</text>
</g>
<!-- Node4_1 -->
<g id="node2" class="node">
<title>Node4_1</title>
<ellipse fill="#87ceeb" stroke="#87ceeb" cx="645" cy="-121" rx="59.59" ry="18"/>
<text text-anchor="middle" x="645" y="-117.3" font-family="Times,serif" font-size="14.00">गान्धार्याः(4.1)</text>
</g>
<!-- Node1_1&#45;&gt;Node4_1 -->
<g id="edge1" class="edge">
<title>Node1_1&#45;&gt;Node4_1</title>
<path fill="none" stroke="black" d="M645,-62.27C645,-75.58 645,-91.19 645,-102.82"/>
<polygon fill="black" stroke="black" points="648.5,-62.2 645,-52.2 641.5,-62.2 648.5,-62.2"/>
<text text-anchor="middle" x="667.5" y="-73.8" font-family="Times,serif" font-size="14.00">समुच्चितः</text>
</g>
<!-- Node2_1 -->
<g id="node6" class="node">
<title>Node2_1</title>
<ellipse fill="#40e0d0" stroke="#40e0d0" cx="525" cy="-208" rx="55.79" ry="18"/>
<text text-anchor="middle" x="525" y="-204.3" font-family="Times,serif" font-size="14.00">शुश्रूषया(2.1)</text>
</g>
<!-- Node4_1&#45;&gt;Node2_1 -->
<g id="edge4" class="edge">
<title>Node4_1&#45;&gt;Node2_1</title>
<path fill="none" stroke="black" d="M614.44,-143.65C593.45,-158.51 566.08,-177.9 547.17,-191.3"/>
<polygon fill="black" stroke="black" points="616.57,-146.42 622.71,-137.79 612.53,-140.71 616.57,-146.42"/>
<text text-anchor="middle" x="619.5" y="-160.8" font-family="Times,serif" font-size="14.00">षष्ठीसम्बन्धः</text>
</g>
<!-- Node6_1 -->
<g id="node3" class="node">
<title>Node6_1</title>
<ellipse fill="#00bfff" stroke="#00bfff" cx="195" cy="-121" rx="61.19" ry="18"/>
<text text-anchor="middle" x="195" y="-117.3" font-family="Times,serif" font-size="14.00">यशस्विनी(6.1)</text>
</g>
<!-- Node9_1 -->
<g id="node4" class="node">
<title>Node9_1</title>
<ellipse fill="#00bfff" stroke="#00bfff" cx="195" cy="-208" rx="48.19" ry="18"/>
<text text-anchor="middle" x="195" y="-204.3" font-family="Times,serif" font-size="14.00">कुन्ती(9.1)</text>
</g>
<!-- Node6_1&#45;&gt;Node9_1 -->
<g id="edge6" class="edge">
<title>Node6_1&#45;&gt;Node9_1</title>
<path fill="none" stroke="black" d="M195,-149.27C195,-162.58 195,-178.19 195,-189.82"/>
<polygon fill="black" stroke="black" points="198.5,-149.2 195,-139.2 191.5,-149.2 198.5,-149.2"/>
<text text-anchor="middle" x="217.5" y="-160.8" font-family="Times,serif" font-size="14.00">विशेषणम्</text>
</g>
<!-- Node10_1 -->
<g id="node7" class="node">
<title>Node10_1</title>
<ellipse fill="#ff1975" stroke="#ff1975" cx="361" cy="-295" rx="65.79" ry="18"/>
<text text-anchor="middle" x="361" y="-291.3" font-family="Times,serif" font-size="14.00">गमिष्यति(10.1)</text>
</g>
<!-- Node9_1&#45;&gt;Node10_1 -->
<g id="edge10" class="edge">
<title>Node9_1&#45;&gt;Node10_1</title>
<path fill="none" stroke="black" d="M231.69,-227.79C261.64,-243.12 303.43,-264.52 331.3,-278.79"/>
<polygon fill="black" stroke="black" points="232.91,-224.48 222.41,-223.04 229.72,-230.71 232.91,-224.48"/>
<text text-anchor="middle" x="298" y="-247.8" font-family="Times,serif" font-size="14.00">कर्ता</text>
</g>
<!-- Node11_1 -->
<g id="node5" class="node">
<title>Node11_1</title>
<ellipse fill="#00bfff" stroke="#00bfff" cx="66" cy="-121" rx="50.09" ry="18"/>
<text text-anchor="middle" x="66" y="-117.3" font-family="Times,serif" font-size="14.00">वधूः(11.1)</text>
</g>
<!-- Node11_1&#45;&gt;Node9_1 -->
<g id="edge11" class="edge">
<title>Node11_1&#45;&gt;Node9_1</title>
<path fill="none" stroke="black" d="M97.49,-142.75C120.58,-157.96 151.38,-178.26 172.14,-191.94"/>
<polygon fill="black" stroke="black" points="99.34,-139.78 89.06,-137.2 95.49,-145.62 99.34,-139.78"/>
<text text-anchor="middle" x="161.5" y="-160.8" font-family="Times,serif" font-size="14.00">विशेषणम्</text>
</g>
<!-- Node2_1&#45;&gt;Node10_1 -->
<g id="edge2" class="edge">
<title>Node2_1&#45;&gt;Node10_1</title>
<path fill="none" stroke="black" d="M487.63,-228.37C458.08,-243.68 417.4,-264.77 390.2,-278.86"/>
<polygon fill="black" stroke="black" points="489.54,-231.32 496.81,-223.61 486.32,-225.11 489.54,-231.32"/>
<text text-anchor="middle" x="468.5" y="-247.8" font-family="Times,serif" font-size="14.00">करणम्</text>
</g>
<!-- Node3_1 -->
<g id="node8" class="node">
<title>Node3_1</title>
<ellipse fill="#ff99ff" stroke="#ff99ff" cx="525" cy="-121" rx="42.49" ry="18"/>
<text text-anchor="middle" x="525" y="-117.3" font-family="Times,serif" font-size="14.00">चैव(3.1)</text>
</g>
<!-- Node3_1&#45;&gt;Node2_1 -->
<g id="edge3" class="edge">
<title>Node3_1&#45;&gt;Node2_1</title>
<path fill="none" stroke="black" d="M525,-149.27C525,-162.58 525,-178.19 525,-189.82"/>
<polygon fill="black" stroke="black" points="528.5,-149.2 525,-139.2 521.5,-149.2 528.5,-149.2"/>
<text text-anchor="middle" x="543.5" y="-160.8" font-family="Times,serif" font-size="14.00">सम्बन्धः</text>
</g>
<!-- Node5_1 -->
<g id="node9" class="node">
<title>Node5_1</title>
<ellipse fill="#ff99ff" stroke="#ff99ff" cx="531" cy="-34" rx="37.89" ry="18"/>
<text text-anchor="middle" x="531" y="-30.3" font-family="Times,serif" font-size="14.00">च(5.1)</text>
</g>
<!-- Node5_1&#45;&gt;Node4_1 -->
<g id="edge5" class="edge">
<title>Node5_1&#45;&gt;Node4_1</title>
<path fill="none" stroke="black" d="M544.34,-60.36C549.84,-69.03 556.85,-78.23 565,-85 576.55,-94.59 591.13,-101.99 604.67,-107.47"/>
<polygon fill="black" stroke="black" points="547.28,-58.46 539.17,-51.65 541.26,-62.03 547.28,-58.46"/>
<text text-anchor="middle" x="603" y="-73.8" font-family="Times,serif" font-size="14.00">समुच्चय_द्योतकः</text>
</g>
<!-- Node7_1 -->
<g id="node10" class="node">
<title>Node7_1</title>
<ellipse fill="#87ceeb" stroke="#87ceeb" cx="320" cy="-121" rx="45.49" ry="18"/>
<text text-anchor="middle" x="320" y="-117.3" font-family="Times,serif" font-size="14.00">भर्तुः(7.1)</text>
</g>
<!-- Node8_2 -->
<g id="node11" class="node">
<title>Node8_2</title>
<ellipse fill="#93db70" stroke="#93db70" cx="361" cy="-208" rx="59.29" ry="18"/>
<text text-anchor="middle" x="361" y="-204.3" font-family="Times,serif" font-size="14.00">लोकताम्(8.2)</text>
</g>
<!-- Node7_1&#45;&gt;Node8_2 -->
<g id="edge7" class="edge">
<title>Node7_1&#45;&gt;Node8_2</title>
<path fill="none" stroke="black" d="M332.6,-148.13C339.17,-161.73 347,-177.98 352.78,-189.95"/>
<polygon fill="black" stroke="black" points="335.6,-146.28 328.1,-138.79 329.29,-149.32 335.6,-146.28"/>
<text text-anchor="middle" x="369.5" y="-160.8" font-family="Times,serif" font-size="14.00">षष्ठीसम्बन्धः</text>
</g>
<!-- Node8_2&#45;&gt;Node10_1 -->
<g id="edge9" class="edge">
<title>Node8_2&#45;&gt;Node10_1</title>
<path fill="none" stroke="black" d="M361,-236.27C361,-249.58 361,-265.19 361,-276.82"/>
<polygon fill="black" stroke="black" points="364.5,-236.2 361,-226.2 357.5,-236.2 364.5,-236.2"/>
<text text-anchor="middle" x="370" y="-247.8" font-family="Times,serif" font-size="14.00">कर्म</text>
</g>
<!-- Node8_1 -->
<g id="node12" class="node">
<title>Node8_1</title>
<ellipse fill="#ffff00" stroke="#ffff00" cx="424" cy="-121" rx="40.89" ry="18"/>
<text text-anchor="middle" x="424" y="-117.3" font-family="Times,serif" font-size="14.00">स&#45;(8.1)</text>
</g>
<!-- Node8_1&#45;&gt;Node8_2 -->
<g id="edge8" class="edge">
<title>Node8_1&#45;&gt;Node8_2</title>
<path fill="none" stroke="black" d="M414.3,-148.49C410.75,-156.44 406.28,-164.93 401,-172 395.81,-178.95 389.04,-185.51 382.55,-191.04"/>
<polygon fill="black" stroke="black" points="417.56,-149.76 418.17,-139.18 411.1,-147.07 417.56,-149.76"/>
<text text-anchor="middle" x="426" y="-160.8" font-family="Times,serif" font-size="14.00">समासः</text>
</g>
<!-- Node12_1 -->
<g id="node13" class="node">
<title>Node12_1</title>
<ellipse fill="#87ceeb" stroke="#87ceeb" cx="66" cy="-34" rx="47.39" ry="18"/>
<text text-anchor="middle" x="66" y="-30.3" font-family="Times,serif" font-size="14.00">तव(12.1)</text>
</g>
<!-- Node12_1&#45;&gt;Node11_1 -->
<g id="edge12" class="edge">
<title>Node12_1&#45;&gt;Node11_1</title>
<path fill="none" stroke="black" d="M66,-62.27C66,-75.58 66,-91.19 66,-102.82"/>
<polygon fill="black" stroke="black" points="69.5,-62.2 66,-52.2 62.5,-62.2 69.5,-62.2"/>
<text text-anchor="middle" x="93.5" y="-73.8" font-family="Times,serif" font-size="14.00">षष्ठीसम्बन्धः</text>
</g>
</g>
</svg>
