<?xml version="1.0" encoding="UTF-8" standalone="no"?>
<!DOCTYPE svg PUBLIC "-//W3C//DTD SVG 1.1//EN"
 "http://www.w3.org/Graphics/SVG/1.1/DTD/svg11.dtd">
<!-- Generated by graphviz version 2.43.0 (0)
 -->
<!-- Title: G Pages: 1 -->
<svg width="889pt" height="234pt"
 viewBox="0.00 0.00 889.10 234.00" xmlns="http://www.w3.org/2000/svg" xmlns:xlink="http://www.w3.org/1999/xlink">
<g id="graph0" class="graph" transform="scale(1 1) rotate(0) translate(4 230)">
<title>G</title>
<polygon fill="#fffacd" stroke="transparent" points="-4,4 -4,-230 885.1,-230 885.1,4 -4,4"/>
<g id="clust1" class="cluster">
<title>cluster_1</title>
<polygon fill="#fffacd" stroke="black" points="8,-8 8,-147 146,-147 146,-8 8,-8"/>
</g>
<!-- Node7_1 -->
<g id="node1" class="node">
<title>Node7_1</title>
<ellipse fill="#00bfff" stroke="#00bfff" cx="77" cy="-34" rx="37.09" ry="18"/>
<text text-anchor="middle" x="77" y="-30.3" font-family="Times,serif" font-size="14.00">ते(7.1)</text>
</g>
<!-- Node11_1 -->
<g id="node2" class="node">
<title>Node11_1</title>
<ellipse fill="#00bfff" stroke="#00bfff" cx="77" cy="-121" rx="61.19" ry="18"/>
<text text-anchor="middle" x="77" y="-117.3" font-family="Times,serif" font-size="14.00">तापसाः(11.1)</text>
</g>
<!-- Node7_1&#45;&gt;Node11_1 -->
<g id="edge7" class="edge">
<title>Node7_1&#45;&gt;Node11_1</title>
<path fill="none" stroke="black" d="M77,-62.27C77,-75.58 77,-91.19 77,-102.82"/>
<polygon fill="black" stroke="black" points="80.5,-62.2 77,-52.2 73.5,-62.2 80.5,-62.2"/>
<text text-anchor="middle" x="99.5" y="-73.8" font-family="Times,serif" font-size="14.00">विशेषणम्</text>
</g>
<!-- Node9_1 -->
<g id="node11" class="node">
<title>Node9_1</title>
<ellipse fill="#ff1975" stroke="#ff1975" cx="187" cy="-208" rx="49.29" ry="18"/>
<text text-anchor="middle" x="187" y="-204.3" font-family="Times,serif" font-size="14.00">तुतुषुः(9.1)</text>
</g>
<!-- Node11_1&#45;&gt;Node9_1 -->
<g id="edge10" class="edge">
<title>Node11_1&#45;&gt;Node9_1</title>
<path fill="none" stroke="black" d="M105.79,-144.25C124.96,-159.06 149.67,-178.15 166.77,-191.37"/>
<polygon fill="black" stroke="black" points="107.74,-141.33 97.69,-137.99 103.46,-146.87 107.74,-141.33"/>
<text text-anchor="middle" x="150" y="-160.8" font-family="Times,serif" font-size="14.00">कर्ता</text>
</g>
<!-- Node1_1 -->
<g id="node3" class="node">
<title>Node1_1</title>
<ellipse fill="#87ceeb" stroke="#87ceeb" cx="474" cy="-34" rx="49.29" ry="18"/>
<text text-anchor="middle" x="474" y="-30.3" font-family="Times,serif" font-size="14.00">तेषाम्(1.1)</text>
</g>
<!-- Node4_1 -->
<g id="node4" class="node">
<title>Node4_1</title>
<ellipse fill="#93db70" stroke="#93db70" cx="474" cy="-121" rx="50.09" ry="18"/>
<text text-anchor="middle" x="474" y="-117.3" font-family="Times,serif" font-size="14.00">पूजाम्(4.1)</text>
</g>
<!-- Node1_1&#45;&gt;Node4_1 -->
<g id="edge1" class="edge">
<title>Node1_1&#45;&gt;Node4_1</title>
<path fill="none" stroke="black" d="M474,-62.27C474,-75.58 474,-91.19 474,-102.82"/>
<polygon fill="black" stroke="black" points="477.5,-62.2 474,-52.2 470.5,-62.2 477.5,-62.2"/>
<text text-anchor="middle" x="501.5" y="-73.8" font-family="Times,serif" font-size="14.00">षष्ठीसम्बन्धः</text>
</g>
<!-- Node5_1 -->
<g id="node6" class="node">
<title>Node5_1</title>
<ellipse fill="#ff1975" stroke="#ff1975" cx="651" cy="-208" rx="44.39" ry="18"/>
<text text-anchor="middle" x="651" y="-204.3" font-family="Times,serif" font-size="14.00">चक्रे(5.1)</text>
</g>
<!-- Node4_1&#45;&gt;Node5_1 -->
<g id="edge4" class="edge">
<title>Node4_1&#45;&gt;Node5_1</title>
<path fill="none" stroke="black" d="M511.89,-140.19C545.46,-156.32 593.68,-179.48 623.64,-193.86"/>
<polygon fill="black" stroke="black" points="513.36,-137.02 502.83,-135.85 510.33,-143.33 513.36,-137.02"/>
<text text-anchor="middle" x="582" y="-160.8" font-family="Times,serif" font-size="14.00">कर्म</text>
</g>
<!-- Node2_1 -->
<g id="node5" class="node">
<title>Node2_1</title>
<ellipse fill="#00bfff" stroke="#00bfff" cx="590" cy="-121" rx="48.19" ry="18"/>
<text text-anchor="middle" x="590" y="-117.3" font-family="Times,serif" font-size="14.00">कुन्ती(2.1)</text>
</g>
<!-- Node2_1&#45;&gt;Node5_1 -->
<g id="edge2" class="edge">
<title>Node2_1&#45;&gt;Node5_1</title>
<path fill="none" stroke="black" d="M607.99,-147.06C618.06,-161.09 630.33,-178.19 639.18,-190.53"/>
<polygon fill="black" stroke="black" points="610.73,-144.88 602.05,-138.79 605.04,-148.96 610.73,-144.88"/>
<text text-anchor="middle" x="635" y="-160.8" font-family="Times,serif" font-size="14.00">कर्ता</text>
</g>
<!-- Node3_1 -->
<g id="node7" class="node">
<title>Node3_1</title>
<ellipse fill="#6fffc3" stroke="#6fffc3" cx="712" cy="-121" rx="55.79" ry="18"/>
<text text-anchor="middle" x="712" y="-117.3" font-family="Times,serif" font-size="14.00">महाराज(3.1)</text>
</g>
<!-- Node3_1&#45;&gt;Node5_1 -->
<g id="edge3" class="edge">
<title>Node3_1&#45;&gt;Node5_1</title>
<path fill="none" stroke="black" d="M694.01,-147.06C683.94,-161.09 671.67,-178.19 662.82,-190.53"/>
<polygon fill="black" stroke="black" points="696.96,-148.96 699.95,-138.79 691.27,-144.88 696.96,-148.96"/>
<text text-anchor="middle" x="706" y="-160.8" font-family="Times,serif" font-size="14.00">सम्बोध्यः</text>
</g>
<!-- Node6_1 -->
<g id="node8" class="node">
<title>Node6_1</title>
<ellipse fill="#ffff00" stroke="#ffff00" cx="833" cy="-34" rx="48.19" ry="18"/>
<text text-anchor="middle" x="833" y="-30.3" font-family="Times,serif" font-size="14.00">यथा&#45;(6.1)</text>
</g>
<!-- Node6_2 -->
<g id="node9" class="node">
<title>Node6_2</title>
<ellipse fill="#ff99ff" stroke="#ff99ff" cx="833" cy="-121" rx="46.59" ry="18"/>
<text text-anchor="middle" x="833" y="-117.3" font-family="Times,serif" font-size="14.00">विधि(6.2)</text>
</g>
<!-- Node6_1&#45;&gt;Node6_2 -->
<g id="edge5" class="edge">
<title>Node6_1&#45;&gt;Node6_2</title>
<path fill="none" stroke="black" d="M833,-62.27C833,-75.58 833,-91.19 833,-102.82"/>
<polygon fill="black" stroke="black" points="836.5,-62.2 833,-52.2 829.5,-62.2 836.5,-62.2"/>
<text text-anchor="middle" x="850" y="-73.8" font-family="Times,serif" font-size="14.00">समासः</text>
</g>
<!-- Node6_2&#45;&gt;Node5_1 -->
<g id="edge6" class="edge">
<title>Node6_2&#45;&gt;Node5_1</title>
<path fill="none" stroke="black" d="M796.78,-140.23C777.37,-149.88 752.99,-161.81 731,-172 714.36,-179.72 695.58,-187.96 680.39,-194.5"/>
<polygon fill="black" stroke="black" points="798.49,-143.29 805.88,-135.69 795.37,-137.02 798.49,-143.29"/>
<text text-anchor="middle" x="797" y="-160.8" font-family="Times,serif" font-size="14.00">क्रियाविशेषणम्</text>
</g>
<!-- Node8_1 -->
<g id="node10" class="node">
<title>Node8_1</title>
<ellipse fill="#ff99ff" stroke="#ff99ff" cx="201" cy="-34" rx="47.39" ry="18"/>
<text text-anchor="middle" x="201" y="-30.3" font-family="Times,serif" font-size="14.00">चापि(8.1)</text>
</g>
<!-- Node8_1&#45;&gt;Node11_1 -->
<g id="edge8" class="edge">
<title>Node8_1&#45;&gt;Node11_1</title>
<path fill="none" stroke="black" d="M170.84,-55.68C148.98,-70.66 119.89,-90.6 99.92,-104.29"/>
<polygon fill="black" stroke="black" points="172.85,-58.54 179.12,-50 168.89,-52.77 172.85,-58.54"/>
<text text-anchor="middle" x="165.5" y="-73.8" font-family="Times,serif" font-size="14.00">सम्बन्धः</text>
</g>
<!-- Node10_1 -->
<g id="node12" class="node">
<title>Node10_1</title>
<ellipse fill="#87ceeb" stroke="#87ceeb" cx="323" cy="-34" rx="56.59" ry="18"/>
<text text-anchor="middle" x="323" y="-30.3" font-family="Times,serif" font-size="14.00">तस्याः(10.1)</text>
</g>
<!-- Node12_1 -->
<g id="node13" class="node">
<title>Node12_1</title>
<ellipse fill="#40e0d0" stroke="#40e0d0" cx="295" cy="-121" rx="66.09" ry="18"/>
<text text-anchor="middle" x="295" y="-117.3" font-family="Times,serif" font-size="14.00">परिचर्यया(12.1)</text>
</g>
<!-- Node10_1&#45;&gt;Node12_1 -->
<g id="edge9" class="edge">
<title>Node10_1&#45;&gt;Node12_1</title>
<path fill="none" stroke="black" d="M314.15,-61.87C309.73,-75.27 304.53,-91.08 300.66,-102.82"/>
<polygon fill="black" stroke="black" points="317.53,-62.79 317.33,-52.2 310.88,-60.6 317.53,-62.79"/>
<text text-anchor="middle" x="338.5" y="-73.8" font-family="Times,serif" font-size="14.00">षष्ठीसम्बन्धः</text>
</g>
<!-- Node12_1&#45;&gt;Node9_1 -->
<g id="edge11" class="edge">
<title>Node12_1&#45;&gt;Node9_1</title>
<path fill="none" stroke="black" d="M266.47,-144.45C247.65,-159.26 223.48,-178.29 206.76,-191.45"/>
<polygon fill="black" stroke="black" points="268.74,-147.12 274.43,-138.19 264.41,-141.62 268.74,-147.12"/>
<text text-anchor="middle" x="264.5" y="-160.8" font-family="Times,serif" font-size="14.00">करणम्</text>
</g>
</g>
</svg>
