<?xml version="1.0" encoding="UTF-8" standalone="no"?>
<!DOCTYPE svg PUBLIC "-//W3C//DTD SVG 1.1//EN"
 "http://www.w3.org/Graphics/SVG/1.1/DTD/svg11.dtd">
<!-- Generated by graphviz version 2.43.0 (0)
 -->
<!-- Title: G Pages: 1 -->
<svg width="852pt" height="392pt"
 viewBox="0.00 0.00 852.20 392.00" xmlns="http://www.w3.org/2000/svg" xmlns:xlink="http://www.w3.org/1999/xlink">
<g id="graph0" class="graph" transform="scale(1 1) rotate(0) translate(4 388)">
<title>G</title>
<polygon fill="#fffacd" stroke="transparent" points="-4,4 -4,-388 848.2,-388 848.2,4 -4,4"/>
<g id="clust1" class="cluster">
<title>cluster_1</title>
<polygon fill="#fffacd" stroke="black" points="8,-166 8,-305 152,-305 152,-166 8,-166"/>
</g>
<g id="clust2" class="cluster">
<title>cluster_2</title>
<polygon fill="#fffacd" stroke="black" points="362,-166 362,-305 619,-305 619,-166 362,-166"/>
</g>
<g id="clust3" class="cluster">
<title>cluster_3</title>
<polygon fill="#fffacd" stroke="black" points="627,-166 627,-305 745,-305 745,-166 627,-166"/>
</g>
<!-- Node3_1 -->
<g id="node1" class="node">
<title>Node3_1</title>
<ellipse fill="#c6e2eb" stroke="#c6e2eb" cx="80" cy="-192" rx="63.89" ry="18"/>
<text text-anchor="middle" x="80" y="-188.3" font-family="Times,serif" font-size="14.00">कस्मिंश्चित्(3.1)</text>
</g>
<!-- Node1_2 -->
<g id="node2" class="node">
<title>Node1_2</title>
<ellipse fill="#c6e2eb" stroke="#c6e2eb" cx="95" cy="-279" rx="49.29" ry="18"/>
<text text-anchor="middle" x="95" y="-275.3" font-family="Times,serif" font-size="14.00">अन्तरे(1.2)</text>
</g>
<!-- Node3_1&#45;&gt;Node1_2 -->
<g id="edge4" class="edge">
<title>Node3_1&#45;&gt;Node1_2</title>
<path fill="none" stroke="black" d="M84.81,-220.27C87.16,-233.58 89.92,-249.19 91.97,-260.82"/>
<polygon fill="black" stroke="black" points="88.22,-219.44 83.04,-210.2 81.33,-220.66 88.22,-219.44"/>
<text text-anchor="middle" x="111.5" y="-231.8" font-family="Times,serif" font-size="14.00">विशेषणम्</text>
</g>
<!-- Node9_1 -->
<g id="node9" class="node">
<title>Node9_1</title>
<ellipse fill="#ff1975" stroke="#ff1975" cx="617" cy="-366" rx="59.59" ry="18"/>
<text text-anchor="middle" x="617" y="-362.3" font-family="Times,serif" font-size="14.00">अकथयत्(9.1)</text>
</g>
<!-- Node1_2&#45;&gt;Node9_1 -->
<g id="edge2" class="edge">
<title>Node1_2&#45;&gt;Node9_1</title>
<path fill="none" stroke="black" d="M149.06,-288.8C250.17,-305.27 466.62,-340.51 565.64,-356.64"/>
<polygon fill="black" stroke="black" points="149.49,-285.33 139.06,-287.17 148.36,-292.24 149.49,-285.33"/>
<text text-anchor="middle" x="424" y="-318.8" font-family="Times,serif" font-size="14.00">विषयाधिकरणम्</text>
</g>
<!-- Node4_2 -->
<g id="node3" class="node">
<title>Node4_2</title>
<ellipse fill="#00bfff" stroke="#00bfff" cx="419" cy="-192" rx="49.29" ry="18"/>
<text text-anchor="middle" x="419" y="-188.3" font-family="Times,serif" font-size="14.00">ऋषिः(4.2)</text>
</g>
<!-- Node5_1 -->
<g id="node4" class="node">
<title>Node5_1</title>
<ellipse fill="#00bfff" stroke="#00bfff" cx="549" cy="-279" rx="50.09" ry="18"/>
<text text-anchor="middle" x="549" y="-275.3" font-family="Times,serif" font-size="14.00">नारदः(5.1)</text>
</g>
<!-- Node4_2&#45;&gt;Node5_1 -->
<g id="edge6" class="edge">
<title>Node4_2&#45;&gt;Node5_1</title>
<path fill="none" stroke="black" d="M450.43,-213.55C473.69,-228.76 504.84,-249.13 525.85,-262.86"/>
<polygon fill="black" stroke="black" points="452.23,-210.54 441.94,-208 448.4,-216.4 452.23,-210.54"/>
<text text-anchor="middle" x="513.5" y="-231.8" font-family="Times,serif" font-size="14.00">विशेषणम्</text>
</g>
<!-- Node5_1&#45;&gt;Node9_1 -->
<g id="edge7" class="edge">
<title>Node5_1&#45;&gt;Node9_1</title>
<path fill="none" stroke="black" d="M568.41,-304.26C579.7,-318.37 593.65,-335.81 603.7,-348.37"/>
<polygon fill="black" stroke="black" points="571.09,-302.01 562.11,-296.39 565.63,-306.38 571.09,-302.01"/>
<text text-anchor="middle" x="598" y="-318.8" font-family="Times,serif" font-size="14.00">कर्ता</text>
</g>
<!-- Node10_3 -->
<g id="node5" class="node">
<title>Node10_3</title>
<ellipse fill="#00bfff" stroke="#00bfff" cx="549" cy="-192" rx="62.29" ry="18"/>
<text text-anchor="middle" x="549" y="-188.3" font-family="Times,serif" font-size="14.00">दर्शिवान्(10.3)</text>
</g>
<!-- Node10_3&#45;&gt;Node5_1 -->
<g id="edge13" class="edge">
<title>Node10_3&#45;&gt;Node5_1</title>
<path fill="none" stroke="black" d="M549,-220.27C549,-233.58 549,-249.19 549,-260.82"/>
<polygon fill="black" stroke="black" points="552.5,-220.2 549,-210.2 545.5,-220.2 552.5,-220.2"/>
<text text-anchor="middle" x="571.5" y="-231.8" font-family="Times,serif" font-size="14.00">विशेषणम्</text>
</g>
<!-- Node8_1 -->
<g id="node6" class="node">
<title>Node8_1</title>
<ellipse fill="#93db70" stroke="#93db70" cx="686" cy="-192" rx="48.99" ry="18"/>
<text text-anchor="middle" x="686" y="-188.3" font-family="Times,serif" font-size="14.00">इमाम्(8.1)</text>
</g>
<!-- Node7_1 -->
<g id="node7" class="node">
<title>Node7_1</title>
<ellipse fill="#93db70" stroke="#93db70" cx="686" cy="-279" rx="51.19" ry="18"/>
<text text-anchor="middle" x="686" y="-275.3" font-family="Times,serif" font-size="14.00">कथाम्(7.1)</text>
</g>
<!-- Node8_1&#45;&gt;Node7_1 -->
<g id="edge10" class="edge">
<title>Node8_1&#45;&gt;Node7_1</title>
<path fill="none" stroke="black" d="M686,-220.27C686,-233.58 686,-249.19 686,-260.82"/>
<polygon fill="black" stroke="black" points="689.5,-220.2 686,-210.2 682.5,-220.2 689.5,-220.2"/>
<text text-anchor="middle" x="708.5" y="-231.8" font-family="Times,serif" font-size="14.00">विशेषणम्</text>
</g>
<!-- Node7_1&#45;&gt;Node9_1 -->
<g id="edge9" class="edge">
<title>Node7_1&#45;&gt;Node9_1</title>
<path fill="none" stroke="black" d="M666.31,-304.26C654.85,-318.37 640.7,-335.81 630.5,-348.37"/>
<polygon fill="black" stroke="black" points="669.11,-306.36 672.7,-296.39 663.68,-301.95 669.11,-306.36"/>
<text text-anchor="middle" x="664" y="-318.8" font-family="Times,serif" font-size="14.00">कर्म</text>
</g>
<!-- Node1_1 -->
<g id="node8" class="node">
<title>Node1_1</title>
<ellipse fill="#ffff00" stroke="#ffff00" cx="211" cy="-192" rx="49.29" ry="18"/>
<text text-anchor="middle" x="211" y="-188.3" font-family="Times,serif" font-size="14.00">कथा&#45;(1.1)</text>
</g>
<!-- Node1_1&#45;&gt;Node1_2 -->
<g id="edge1" class="edge">
<title>Node1_1&#45;&gt;Node1_2</title>
<path fill="none" stroke="black" d="M181.69,-214.48C161.3,-229.42 134.6,-248.99 116.24,-262.43"/>
<polygon fill="black" stroke="black" points="184,-217.13 189.99,-208.39 179.86,-211.48 184,-217.13"/>
<text text-anchor="middle" x="176" y="-231.8" font-family="Times,serif" font-size="14.00">समासः</text>
</g>
<!-- Node2_1 -->
<g id="node10" class="node">
<title>Node2_1</title>
<ellipse fill="#ff99ff" stroke="#ff99ff" cx="315" cy="-192" rx="37.09" ry="18"/>
<text text-anchor="middle" x="315" y="-188.3" font-family="Times,serif" font-size="14.00">तु(2.1)</text>
</g>
<!-- Node2_1&#45;&gt;Node1_2 -->
<g id="edge3" class="edge">
<title>Node2_1&#45;&gt;Node1_2</title>
<path fill="none" stroke="black" d="M279.05,-209.01C255.81,-219.16 224.82,-232.35 197,-243 175.14,-251.37 150.31,-259.91 130.62,-266.46"/>
<polygon fill="black" stroke="black" points="280.76,-212.08 288.5,-204.86 277.94,-205.67 280.76,-212.08"/>
<text text-anchor="middle" x="250.5" y="-231.8" font-family="Times,serif" font-size="14.00">सम्बन्धः</text>
</g>
<!-- Node4_1 -->
<g id="node11" class="node">
<title>Node4_1</title>
<ellipse fill="#ffff00" stroke="#ffff00" cx="419" cy="-105" rx="44.39" ry="18"/>
<text text-anchor="middle" x="419" y="-101.3" font-family="Times,serif" font-size="14.00">देव&#45;(4.1)</text>
</g>
<!-- Node4_1&#45;&gt;Node4_2 -->
<g id="edge5" class="edge">
<title>Node4_1&#45;&gt;Node4_2</title>
<path fill="none" stroke="black" d="M419,-133.27C419,-146.58 419,-162.19 419,-173.82"/>
<polygon fill="black" stroke="black" points="422.5,-133.2 419,-123.2 415.5,-133.2 422.5,-133.2"/>
<text text-anchor="middle" x="436" y="-144.8" font-family="Times,serif" font-size="14.00">समासः</text>
</g>
<!-- Node6_1 -->
<g id="node12" class="node">
<title>Node6_1</title>
<ellipse fill="#ff99ff" stroke="#ff99ff" cx="800" cy="-279" rx="44.39" ry="18"/>
<text text-anchor="middle" x="800" y="-275.3" font-family="Times,serif" font-size="14.00">तदा(6.1)</text>
</g>
<!-- Node6_1&#45;&gt;Node9_1 -->
<g id="edge8" class="edge">
<title>Node6_1&#45;&gt;Node9_1</title>
<path fill="none" stroke="black" d="M763.74,-297.94C758.8,-300.33 753.78,-302.74 749,-305 715.08,-321.02 675.93,-338.71 649.13,-350.71"/>
<polygon fill="black" stroke="black" points="765.62,-300.91 773.07,-293.38 762.55,-294.62 765.62,-300.91"/>
<text text-anchor="middle" x="762.5" y="-318.8" font-family="Times,serif" font-size="14.00">कालाधिकरणम्</text>
</g>
<!-- Node10_1 -->
<g id="node13" class="node">
<title>Node10_1</title>
<ellipse fill="#ffff00" stroke="#ffff00" cx="549" cy="-18" rx="51.19" ry="18"/>
<text text-anchor="middle" x="549" y="-14.3" font-family="Times,serif" font-size="14.00">सर्व&#45;(10.1)</text>
</g>
<!-- Node10_2 -->
<g id="node14" class="node">
<title>Node10_2</title>
<ellipse fill="#ffff00" stroke="#ffff00" cx="549" cy="-105" rx="60.39" ry="18"/>
<text text-anchor="middle" x="549" y="-101.3" font-family="Times,serif" font-size="14.00">प्रत्यक्ष&#45;(10.2)</text>
</g>
<!-- Node10_1&#45;&gt;Node10_2 -->
<g id="edge11" class="edge">
<title>Node10_1&#45;&gt;Node10_2</title>
<path fill="none" stroke="black" d="M549,-46.27C549,-59.58 549,-75.19 549,-86.82"/>
<polygon fill="black" stroke="black" points="552.5,-46.2 549,-36.2 545.5,-46.2 552.5,-46.2"/>
<text text-anchor="middle" x="566" y="-57.8" font-family="Times,serif" font-size="14.00">समासः</text>
</g>
<!-- Node10_2&#45;&gt;Node10_3 -->
<g id="edge12" class="edge">
<title>Node10_2&#45;&gt;Node10_3</title>
<path fill="none" stroke="black" d="M549,-133.27C549,-146.58 549,-162.19 549,-173.82"/>
<polygon fill="black" stroke="black" points="552.5,-133.2 549,-123.2 545.5,-133.2 552.5,-133.2"/>
<text text-anchor="middle" x="566" y="-144.8" font-family="Times,serif" font-size="14.00">समासः</text>
</g>
</g>
</svg>
