<?xml version="1.0" encoding="UTF-8" standalone="no"?>
<!DOCTYPE svg PUBLIC "-//W3C//DTD SVG 1.1//EN"
 "http://www.w3.org/Graphics/SVG/1.1/DTD/svg11.dtd">
<!-- Generated by graphviz version 2.43.0 (0)
 -->
<!-- Title: G Pages: 1 -->
<svg width="965pt" height="305pt"
 viewBox="0.00 0.00 964.89 305.00" xmlns="http://www.w3.org/2000/svg" xmlns:xlink="http://www.w3.org/1999/xlink">
<g id="graph0" class="graph" transform="scale(1 1) rotate(0) translate(4 301)">
<title>G</title>
<polygon fill="#fffacd" stroke="transparent" points="-4,4 -4,-301 960.89,-301 960.89,4 -4,4"/>
<!-- Node1_1 -->
<g id="node1" class="node">
<title>Node1_1</title>
<ellipse fill="#00bfff" stroke="#00bfff" cx="50.7" cy="-192" rx="50.89" ry="18"/>
<text text-anchor="middle" x="50.7" y="-188.3" font-family="Times,serif" font-size="14.00">पाण्डुः(1.1)</text>
</g>
<!-- Node2_1 -->
<g id="node2" class="node">
<title>Node2_1</title>
<ellipse fill="#ff1975" stroke="#ff1975" cx="375.7" cy="-279" rx="51.99" ry="18"/>
<text text-anchor="middle" x="375.7" y="-275.3" font-family="Times,serif" font-size="14.00">स्मरति(2.1)</text>
</g>
<!-- Node1_1&#45;&gt;Node2_1 -->
<g id="edge1" class="edge">
<title>Node1_1&#45;&gt;Node2_1</title>
<path fill="none" stroke="black" d="M92.1,-209.71C119.69,-220.37 156.94,-233.84 190.7,-243 236.91,-255.54 290.82,-265.19 328.48,-271.15"/>
<polygon fill="black" stroke="black" points="93.36,-206.45 82.77,-206.07 90.82,-212.97 93.36,-206.45"/>
<text text-anchor="middle" x="201.7" y="-231.8" font-family="Times,serif" font-size="14.00">कर्ता</text>
</g>
<!-- Node3_1 -->
<g id="node3" class="node">
<title>Node3_1</title>
<ellipse fill="#00bfff" stroke="#00bfff" cx="171.7" cy="-192" rx="52.79" ry="18"/>
<text text-anchor="middle" x="171.7" y="-188.3" font-family="Times,serif" font-size="14.00">नित्यम्(3.1)</text>
</g>
<!-- Node3_1&#45;&gt;Node2_1 -->
<g id="edge2" class="edge">
<title>Node3_1&#45;&gt;Node2_1</title>
<path fill="none" stroke="black" d="M197.4,-215.54C209.53,-225.19 224.64,-235.86 239.7,-243 268.11,-256.48 302.42,-265.26 329.47,-270.66"/>
<polygon fill="black" stroke="black" points="199.47,-212.71 189.51,-209.08 195.03,-218.12 199.47,-212.71"/>
<text text-anchor="middle" x="274.7" y="-231.8" font-family="Times,serif" font-size="14.00">क्रियाविशेषणम्</text>
</g>
<!-- Node4_1 -->
<g id="node4" class="node">
<title>Node4_1</title>
<ellipse fill="#ff99ff" stroke="#ff99ff" cx="171.7" cy="-105" rx="37.89" ry="18"/>
<text text-anchor="middle" x="171.7" y="-101.3" font-family="Times,serif" font-size="14.00">च(4.1)</text>
</g>
<!-- Node4_1&#45;&gt;Node3_1 -->
<g id="edge3" class="edge">
<title>Node4_1&#45;&gt;Node3_1</title>
<path fill="none" stroke="black" d="M171.7,-133.27C171.7,-146.58 171.7,-162.19 171.7,-173.82"/>
<polygon fill="black" stroke="black" points="175.2,-133.2 171.7,-123.2 168.2,-133.2 175.2,-133.2"/>
<text text-anchor="middle" x="190.2" y="-144.8" font-family="Times,serif" font-size="14.00">सम्बन्धः</text>
</g>
<!-- Node5_1 -->
<g id="node5" class="node">
<title>Node5_1</title>
<ellipse fill="#ffff00" stroke="#ffff00" cx="299.7" cy="-18" rx="45.49" ry="18"/>
<text text-anchor="middle" x="299.7" y="-14.3" font-family="Times,serif" font-size="14.00">बल&#45;(5.1)</text>
</g>
<!-- Node5_2 -->
<g id="node6" class="node">
<title>Node5_2</title>
<ellipse fill="#87ceeb" stroke="#87ceeb" cx="299.7" cy="-105" rx="46.29" ry="18"/>
<text text-anchor="middle" x="299.7" y="-101.3" font-family="Times,serif" font-size="14.00">हन्तुः(5.2)</text>
</g>
<!-- Node5_1&#45;&gt;Node5_2 -->
<g id="edge4" class="edge">
<title>Node5_1&#45;&gt;Node5_2</title>
<path fill="none" stroke="black" d="M299.7,-46.27C299.7,-59.58 299.7,-75.19 299.7,-86.82"/>
<polygon fill="black" stroke="black" points="303.2,-46.2 299.7,-36.2 296.2,-46.2 303.2,-46.2"/>
<text text-anchor="middle" x="316.7" y="-57.8" font-family="Times,serif" font-size="14.00">समासः</text>
</g>
<!-- Node6_1 -->
<g id="node7" class="node">
<title>Node6_1</title>
<ellipse fill="#ff99ff" stroke="#ff99ff" cx="299.7" cy="-192" rx="57.69" ry="18"/>
<text text-anchor="middle" x="299.7" y="-188.3" font-family="Times,serif" font-size="14.00">समीपतः(6.1)</text>
</g>
<!-- Node5_2&#45;&gt;Node6_1 -->
<g id="edge5" class="edge">
<title>Node5_2&#45;&gt;Node6_1</title>
<path fill="none" stroke="black" d="M299.7,-133.27C299.7,-146.58 299.7,-162.19 299.7,-173.82"/>
<polygon fill="black" stroke="black" points="303.2,-133.2 299.7,-123.2 296.2,-133.2 303.2,-133.2"/>
<text text-anchor="middle" x="327.2" y="-144.8" font-family="Times,serif" font-size="14.00">षष्ठीसम्बन्धः</text>
</g>
<!-- Node6_1&#45;&gt;Node2_1 -->
<g id="edge6" class="edge">
<title>Node6_1&#45;&gt;Node2_1</title>
<path fill="none" stroke="black" d="M308.66,-219.58C312.21,-227.66 316.86,-236.2 322.7,-243 329.66,-251.12 338.96,-258.11 347.82,-263.66"/>
<polygon fill="black" stroke="black" points="311.83,-218.08 304.88,-210.09 305.33,-220.68 311.83,-218.08"/>
<text text-anchor="middle" x="357.7" y="-231.8" font-family="Times,serif" font-size="14.00">क्रियाविशेषणम्</text>
</g>
<!-- Node7_1 -->
<g id="node8" class="node">
<title>Node7_1</title>
<ellipse fill="#93db70" stroke="#93db70" cx="422.7" cy="-192" rx="46.59" ry="18"/>
<text text-anchor="middle" x="422.7" y="-188.3" font-family="Times,serif" font-size="14.00">त्वाम्(7.1)</text>
</g>
<!-- Node7_1&#45;&gt;Node2_1 -->
<g id="edge7" class="edge">
<title>Node7_1&#45;&gt;Node2_1</title>
<path fill="none" stroke="black" d="M408.43,-218.8C400.81,-232.58 391.65,-249.14 384.96,-261.24"/>
<polygon fill="black" stroke="black" points="411.63,-220.24 413.41,-209.79 405.51,-216.85 411.63,-220.24"/>
<text text-anchor="middle" x="411.7" y="-231.8" font-family="Times,serif" font-size="14.00">कर्म</text>
</g>
<!-- Node8_1 -->
<g id="node9" class="node">
<title>Node8_1</title>
<ellipse fill="#ff99ff" stroke="#ff99ff" cx="534.7" cy="-192" rx="46.59" ry="18"/>
<text text-anchor="middle" x="534.7" y="-188.3" font-family="Times,serif" font-size="14.00">सदैव(8.1)</text>
</g>
<!-- Node8_1&#45;&gt;Node2_1 -->
<g id="edge8" class="edge">
<title>Node8_1&#45;&gt;Node2_1</title>
<path fill="none" stroke="black" d="M499.41,-211.86C470.25,-227.45 429.43,-249.27 402.79,-263.52"/>
<polygon fill="black" stroke="black" points="501.27,-214.84 508.44,-207.04 497.97,-208.66 501.27,-214.84"/>
<text text-anchor="middle" x="501.2" y="-231.8" font-family="Times,serif" font-size="14.00">कालाधिकरणम्</text>
</g>
<!-- Node9_1 -->
<g id="node10" class="node">
<title>Node9_1</title>
<ellipse fill="#ffff00" stroke="#ffff00" cx="644.7" cy="-105" rx="46.59" ry="18"/>
<text text-anchor="middle" x="644.7" y="-101.3" font-family="Times,serif" font-size="14.00">मही&#45;(9.1)</text>
</g>
<!-- Node9_2 -->
<g id="node11" class="node">
<title>Node9_2</title>
<ellipse fill="#6fffc3" stroke="#6fffc3" cx="644.7" cy="-192" rx="45.49" ry="18"/>
<text text-anchor="middle" x="644.7" y="-188.3" font-family="Times,serif" font-size="14.00">पाल(9.2)</text>
</g>
<!-- Node9_1&#45;&gt;Node9_2 -->
<g id="edge9" class="edge">
<title>Node9_1&#45;&gt;Node9_2</title>
<path fill="none" stroke="black" d="M644.7,-133.27C644.7,-146.58 644.7,-162.19 644.7,-173.82"/>
<polygon fill="black" stroke="black" points="648.2,-133.2 644.7,-123.2 641.2,-133.2 648.2,-133.2"/>
<text text-anchor="middle" x="661.7" y="-144.8" font-family="Times,serif" font-size="14.00">समासः</text>
</g>
<!-- Node9_2&#45;&gt;Node2_1 -->
<g id="edge10" class="edge">
<title>Node9_2&#45;&gt;Node2_1</title>
<path fill="none" stroke="black" d="M610.79,-211.85C590.87,-222.27 564.92,-234.74 540.7,-243 501.89,-256.23 456.18,-265.46 422.73,-271.1"/>
<polygon fill="black" stroke="black" points="612.58,-214.86 619.77,-207.08 609.3,-208.68 612.58,-214.86"/>
<text text-anchor="middle" x="597.7" y="-231.8" font-family="Times,serif" font-size="14.00">सम्बोध्यः</text>
</g>
<!-- Node10_1 -->
<g id="node12" class="node">
<title>Node10_1</title>
<ellipse fill="#00bfff" stroke="#00bfff" cx="654.7" cy="-18" rx="46.29" ry="18"/>
<text text-anchor="middle" x="654.7" y="-14.3" font-family="Times,serif" font-size="14.00">सः(10.1)</text>
</g>
<!-- Node13_1 -->
<g id="node13" class="node">
<title>Node13_1</title>
<ellipse fill="#ff1975" stroke="#ff1975" cx="771.7" cy="-105" rx="61.99" ry="18"/>
<text text-anchor="middle" x="771.7" y="-101.3" font-family="Times,serif" font-size="14.00">योक्ष्यति(13.1)</text>
</g>
<!-- Node10_1&#45;&gt;Node13_1 -->
<g id="edge11" class="edge">
<title>Node10_1&#45;&gt;Node13_1</title>
<path fill="none" stroke="black" d="M683.93,-40.24C704.35,-55.07 731.17,-74.56 749.77,-88.07"/>
<polygon fill="black" stroke="black" points="685.76,-37.24 675.61,-34.2 681.65,-42.91 685.76,-37.24"/>
<text text-anchor="middle" x="731.7" y="-57.8" font-family="Times,serif" font-size="14.00">कर्ता</text>
</g>
<!-- Node11_1 -->
<g id="node14" class="node">
<title>Node11_1</title>
<ellipse fill="#93db70" stroke="#93db70" cx="771.7" cy="-18" rx="52.79" ry="18"/>
<text text-anchor="middle" x="771.7" y="-14.3" font-family="Times,serif" font-size="14.00">त्वाम्(11.1)</text>
</g>
<!-- Node11_1&#45;&gt;Node13_1 -->
<g id="edge12" class="edge">
<title>Node11_1&#45;&gt;Node13_1</title>
<path fill="none" stroke="black" d="M771.7,-46.27C771.7,-59.58 771.7,-75.19 771.7,-86.82"/>
<polygon fill="black" stroke="black" points="775.2,-46.2 771.7,-36.2 768.2,-46.2 775.2,-46.2"/>
<text text-anchor="middle" x="780.7" y="-57.8" font-family="Times,serif" font-size="14.00">कर्म</text>
</g>
<!-- Node12_1 -->
<g id="node15" class="node">
<title>Node12_1</title>
<ellipse fill="#c6e2eb" stroke="#c6e2eb" cx="899.7" cy="-18" rx="57.39" ry="18"/>
<text text-anchor="middle" x="899.7" y="-14.3" font-family="Times,serif" font-size="14.00">श्रेयसि(12.1)</text>
</g>
<!-- Node12_1&#45;&gt;Node13_1 -->
<g id="edge13" class="edge">
<title>Node12_1&#45;&gt;Node13_1</title>
<path fill="none" stroke="black" d="M867.7,-40.25C845.28,-55.13 815.8,-74.71 795.46,-88.22"/>
<polygon fill="black" stroke="black" points="869.82,-43.04 876.22,-34.59 865.95,-37.21 869.82,-43.04"/>
<text text-anchor="middle" x="871.2" y="-57.8" font-family="Times,serif" font-size="14.00">अधिकरणम्</text>
</g>
</g>
</svg>
