<?xml version="1.0" encoding="UTF-8" standalone="no"?>
<!DOCTYPE svg PUBLIC "-//W3C//DTD SVG 1.1//EN"
 "http://www.w3.org/Graphics/SVG/1.1/DTD/svg11.dtd">
<!-- Generated by graphviz version 2.43.0 (0)
 -->
<!-- Title: G Pages: 1 -->
<svg width="851pt" height="321pt"
 viewBox="0.00 0.00 851.29 321.00" xmlns="http://www.w3.org/2000/svg" xmlns:xlink="http://www.w3.org/1999/xlink">
<g id="graph0" class="graph" transform="scale(1 1) rotate(0) translate(4 317)">
<title>G</title>
<polygon fill="#fffacd" stroke="transparent" points="-4,4 -4,-317 847.29,-317 847.29,4 -4,4"/>
<g id="clust1" class="cluster">
<title>cluster_1</title>
<polygon fill="#fffacd" stroke="black" points="601.8,-95 601.8,-234 827.8,-234 827.8,-95 601.8,-95"/>
</g>
<g id="clust2" class="cluster">
<title>cluster_2</title>
<polygon fill="#fffacd" stroke="black" points="221.8,-8 221.8,-147 369.8,-147 369.8,-8 221.8,-8"/>
</g>
<!-- Node8_1 -->
<g id="node1" class="node">
<title>Node8_1</title>
<ellipse fill="#00bfff" stroke="#00bfff" cx="653.8" cy="-121" rx="44.39" ry="18"/>
<text text-anchor="middle" x="653.8" y="-117.3" font-family="Times,serif" font-size="14.00">वृतः(8.1)</text>
</g>
<!-- Node1_1 -->
<g id="node2" class="node">
<title>Node1_1</title>
<ellipse fill="#00bfff" stroke="#00bfff" cx="653.8" cy="-208" rx="44.39" ry="18"/>
<text text-anchor="middle" x="653.8" y="-204.3" font-family="Times,serif" font-size="14.00">त्वम्(1.1)</text>
</g>
<!-- Node8_1&#45;&gt;Node1_1 -->
<g id="edge9" class="edge">
<title>Node8_1&#45;&gt;Node1_1</title>
<path fill="none" stroke="black" d="M653.8,-149.27C653.8,-162.58 653.8,-178.19 653.8,-189.82"/>
<polygon fill="black" stroke="black" points="657.3,-149.2 653.8,-139.2 650.3,-149.2 657.3,-149.2"/>
<text text-anchor="middle" x="676.3" y="-160.8" font-family="Times,serif" font-size="14.00">विशेषणम्</text>
</g>
<!-- Node10_1 -->
<g id="node6" class="node">
<title>Node10_1</title>
<ellipse fill="#ff1975" stroke="#ff1975" cx="212.8" cy="-295" rx="52.79" ry="18"/>
<text text-anchor="middle" x="212.8" y="-291.3" font-family="Times,serif" font-size="14.00">गन्ता(10.1)</text>
</g>
<!-- Node1_1&#45;&gt;Node10_1 -->
<g id="edge1" class="edge">
<title>Node1_1&#45;&gt;Node10_1</title>
<path fill="none" stroke="black" d="M604.59,-218.49C518.16,-235.14 340.4,-269.41 257.37,-285.41"/>
<polygon fill="black" stroke="black" points="605.5,-221.87 614.66,-216.54 604.18,-215 605.5,-221.87"/>
<text text-anchor="middle" x="469.8" y="-247.8" font-family="Times,serif" font-size="14.00">कर्ता</text>
</g>
<!-- Node9_2 -->
<g id="node3" class="node">
<title>Node9_2</title>
<ellipse fill="#00bfff" stroke="#00bfff" cx="767.8" cy="-121" rx="51.99" ry="18"/>
<text text-anchor="middle" x="767.8" y="-117.3" font-family="Times,serif" font-size="14.00">सहितः(9.2)</text>
</g>
<!-- Node9_2&#45;&gt;Node1_1 -->
<g id="edge11" class="edge">
<title>Node9_2&#45;&gt;Node1_1</title>
<path fill="none" stroke="black" d="M739.81,-143.87C728.4,-152.7 715.04,-162.93 702.8,-172 693.73,-178.72 683.59,-186 674.9,-192.17"/>
<polygon fill="black" stroke="black" points="741.98,-146.62 747.73,-137.73 737.69,-141.09 741.98,-146.62"/>
<text text-anchor="middle" x="744.3" y="-160.8" font-family="Times,serif" font-size="14.00">विशेषणम्</text>
</g>
<!-- Node12_1 -->
<g id="node4" class="node">
<title>Node12_1</title>
<ellipse fill="#87ceeb" stroke="#87ceeb" cx="295.8" cy="-34" rx="55.49" ry="18"/>
<text text-anchor="middle" x="295.8" y="-30.3" font-family="Times,serif" font-size="14.00">तेषाम्(12.1)</text>
</g>
<!-- Node13_2 -->
<g id="node5" class="node">
<title>Node13_2</title>
<ellipse fill="#87ceeb" stroke="#87ceeb" cx="295.8" cy="-121" rx="65.79" ry="18"/>
<text text-anchor="middle" x="295.8" y="-117.3" font-family="Times,serif" font-size="14.00">आत्मनाम्(13.2)</text>
</g>
<!-- Node12_1&#45;&gt;Node13_2 -->
<g id="edge13" class="edge">
<title>Node12_1&#45;&gt;Node13_2</title>
<path fill="none" stroke="black" d="M295.8,-62.27C295.8,-75.58 295.8,-91.19 295.8,-102.82"/>
<polygon fill="black" stroke="black" points="299.3,-62.2 295.8,-52.2 292.3,-62.2 299.3,-62.2"/>
<text text-anchor="middle" x="318.3" y="-73.8" font-family="Times,serif" font-size="14.00">विशेषणम्</text>
</g>
<!-- Node11_1 -->
<g id="node15" class="node">
<title>Node11_1</title>
<ellipse fill="#93db70" stroke="#93db70" cx="286.8" cy="-208" rx="55.49" ry="18"/>
<text text-anchor="middle" x="286.8" y="-204.3" font-family="Times,serif" font-size="14.00">गतिम्(11.1)</text>
</g>
<!-- Node13_2&#45;&gt;Node11_1 -->
<g id="edge15" class="edge">
<title>Node13_2&#45;&gt;Node11_1</title>
<path fill="none" stroke="black" d="M292.91,-149.27C291.5,-162.58 289.85,-178.19 288.61,-189.82"/>
<polygon fill="black" stroke="black" points="296.4,-149.51 293.97,-139.2 289.44,-148.78 296.4,-149.51"/>
<text text-anchor="middle" x="320.3" y="-160.8" font-family="Times,serif" font-size="14.00">षष्ठीसम्बन्धः</text>
</g>
<!-- Node2_1 -->
<g id="node7" class="node">
<title>Node2_1</title>
<ellipse fill="#ff99ff" stroke="#ff99ff" cx="550.8" cy="-121" rx="37.89" ry="18"/>
<text text-anchor="middle" x="550.8" y="-117.3" font-family="Times,serif" font-size="14.00">च(2.1)</text>
</g>
<!-- Node2_1&#45;&gt;Node1_1 -->
<g id="edge2" class="edge">
<title>Node2_1&#45;&gt;Node1_1</title>
<path fill="none" stroke="black" d="M577.12,-143.72C595.28,-158.71 618.98,-178.27 635.19,-191.65"/>
<polygon fill="black" stroke="black" points="579.15,-140.86 569.21,-137.2 574.7,-146.26 579.15,-140.86"/>
<text text-anchor="middle" x="626.3" y="-160.8" font-family="Times,serif" font-size="14.00">सम्बन्धः</text>
</g>
<!-- Node3_1 -->
<g id="node8" class="node">
<title>Node3_1</title>
<ellipse fill="#ff99ff" stroke="#ff99ff" cx="547.8" cy="-34" rx="46.29" ry="18"/>
<text text-anchor="middle" x="547.8" y="-30.3" font-family="Times,serif" font-size="14.00">अपि(3.1)</text>
</g>
<!-- Node3_1&#45;&gt;Node2_1 -->
<g id="edge3" class="edge">
<title>Node3_1&#45;&gt;Node2_1</title>
<path fill="none" stroke="black" d="M548.76,-62.27C549.23,-75.58 549.78,-91.19 550.19,-102.82"/>
<polygon fill="black" stroke="black" points="552.25,-62.07 548.4,-52.2 545.26,-62.32 552.25,-62.07"/>
<text text-anchor="middle" x="567.3" y="-73.8" font-family="Times,serif" font-size="14.00">सम्बन्धः</text>
</g>
<!-- Node4_1 -->
<g id="node9" class="node">
<title>Node4_1</title>
<ellipse fill="#ffff00" stroke="#ffff00" cx="46.8" cy="-121" rx="46.59" ry="18"/>
<text text-anchor="middle" x="46.8" y="-117.3" font-family="Times,serif" font-size="14.00">राज&#45;(4.1)</text>
</g>
<!-- Node4_2 -->
<g id="node10" class="node">
<title>Node4_2</title>
<ellipse fill="#6fffc3" stroke="#6fffc3" cx="50.8" cy="-208" rx="50.89" ry="18"/>
<text text-anchor="middle" x="50.8" y="-204.3" font-family="Times,serif" font-size="14.00">शार्दूल(4.2)</text>
</g>
<!-- Node4_1&#45;&gt;Node4_2 -->
<g id="edge4" class="edge">
<title>Node4_1&#45;&gt;Node4_2</title>
<path fill="none" stroke="black" d="M48.08,-149.27C48.71,-162.58 49.44,-178.19 49.99,-189.82"/>
<polygon fill="black" stroke="black" points="51.57,-149.03 47.61,-139.2 44.58,-149.35 51.57,-149.03"/>
<text text-anchor="middle" x="66.8" y="-160.8" font-family="Times,serif" font-size="14.00">समासः</text>
</g>
<!-- Node4_2&#45;&gt;Node10_1 -->
<g id="edge5" class="edge">
<title>Node4_2&#45;&gt;Node10_1</title>
<path fill="none" stroke="black" d="M85.05,-228.61C101.75,-238.02 122.2,-249.32 140.8,-259 154.6,-266.19 170.11,-273.78 183.19,-280.06"/>
<polygon fill="black" stroke="black" points="86.63,-225.48 76.2,-223.6 83.18,-231.57 86.63,-225.48"/>
<text text-anchor="middle" x="161.8" y="-247.8" font-family="Times,serif" font-size="14.00">सम्बोध्यः</text>
</g>
<!-- Node5_1 -->
<g id="node11" class="node">
<title>Node5_1</title>
<ellipse fill="#87ceeb" stroke="#87ceeb" cx="161.8" cy="-121" rx="50.09" ry="18"/>
<text text-anchor="middle" x="161.8" y="-117.3" font-family="Times,serif" font-size="14.00">तपसः(5.1)</text>
</g>
<!-- Node6_1 -->
<g id="node12" class="node">
<title>Node6_1</title>
<ellipse fill="#c6e2eb" stroke="#c6e2eb" cx="165.8" cy="-208" rx="46.29" ry="18"/>
<text text-anchor="middle" x="165.8" y="-204.3" font-family="Times,serif" font-size="14.00">अन्ते(6.1)</text>
</g>
<!-- Node5_1&#45;&gt;Node6_1 -->
<g id="edge6" class="edge">
<title>Node5_1&#45;&gt;Node6_1</title>
<path fill="none" stroke="black" d="M163.08,-149.27C163.71,-162.58 164.44,-178.19 164.99,-189.82"/>
<polygon fill="black" stroke="black" points="166.57,-149.03 162.61,-139.2 159.58,-149.35 166.57,-149.03"/>
<text text-anchor="middle" x="192.3" y="-160.8" font-family="Times,serif" font-size="14.00">षष्ठीसम्बन्धः</text>
</g>
<!-- Node6_1&#45;&gt;Node10_1 -->
<g id="edge7" class="edge">
<title>Node6_1&#45;&gt;Node10_1</title>
<path fill="none" stroke="black" d="M180.06,-234.8C187.68,-248.58 196.84,-265.14 203.53,-277.24"/>
<polygon fill="black" stroke="black" points="182.98,-232.85 175.08,-225.79 176.86,-236.24 182.98,-232.85"/>
<text text-anchor="middle" x="220.3" y="-247.8" font-family="Times,serif" font-size="14.00">अधिकरणम्</text>
</g>
<!-- Node7_1 -->
<g id="node13" class="node">
<title>Node7_1</title>
<ellipse fill="#40e0d0" stroke="#40e0d0" cx="659.8" cy="-34" rx="48.19" ry="18"/>
<text text-anchor="middle" x="659.8" y="-30.3" font-family="Times,serif" font-size="14.00">श्रिया(7.1)</text>
</g>
<!-- Node7_1&#45;&gt;Node8_1 -->
<g id="edge8" class="edge">
<title>Node7_1&#45;&gt;Node8_1</title>
<path fill="none" stroke="black" d="M657.87,-62.27C656.93,-75.58 655.83,-91.19 655.01,-102.82"/>
<polygon fill="black" stroke="black" points="661.37,-62.42 658.58,-52.2 654.39,-61.93 661.37,-62.42"/>
<text text-anchor="middle" x="667.8" y="-73.8" font-family="Times,serif" font-size="14.00">कर्ता</text>
</g>
<!-- Node9_1 -->
<g id="node14" class="node">
<title>Node9_1</title>
<ellipse fill="#ffff00" stroke="#ffff00" cx="784.8" cy="-34" rx="58.49" ry="18"/>
<text text-anchor="middle" x="784.8" y="-30.3" font-family="Times,serif" font-size="14.00">गान्धारी&#45;(9.1)</text>
</g>
<!-- Node9_1&#45;&gt;Node9_2 -->
<g id="edge10" class="edge">
<title>Node9_1&#45;&gt;Node9_2</title>
<path fill="none" stroke="black" d="M779.34,-62.27C776.68,-75.58 773.56,-91.19 771.23,-102.82"/>
<polygon fill="black" stroke="black" points="782.83,-62.69 781.36,-52.2 775.96,-61.32 782.83,-62.69"/>
<text text-anchor="middle" x="793.8" y="-73.8" font-family="Times,serif" font-size="14.00">समासः</text>
</g>
<!-- Node11_1&#45;&gt;Node10_1 -->
<g id="edge12" class="edge">
<title>Node11_1&#45;&gt;Node10_1</title>
<path fill="none" stroke="black" d="M270.68,-234.39C265.08,-242.55 258.5,-251.43 251.8,-259 245.88,-265.67 238.78,-272.37 232.27,-278.09"/>
<polygon fill="black" stroke="black" points="273.7,-236.18 276.34,-225.92 267.88,-232.29 273.7,-236.18"/>
<text text-anchor="middle" x="272.8" y="-247.8" font-family="Times,serif" font-size="14.00">कर्म</text>
</g>
<!-- Node13_1 -->
<g id="node16" class="node">
<title>Node13_1</title>
<ellipse fill="#ffff00" stroke="#ffff00" cx="430.8" cy="-34" rx="52.79" ry="18"/>
<text text-anchor="middle" x="430.8" y="-30.3" font-family="Times,serif" font-size="14.00">महा&#45;(13.1)</text>
</g>
<!-- Node13_1&#45;&gt;Node13_2 -->
<g id="edge14" class="edge">
<title>Node13_1&#45;&gt;Node13_2</title>
<path fill="none" stroke="black" d="M398.01,-55.64C374.34,-70.55 342.84,-90.38 321.1,-104.07"/>
<polygon fill="black" stroke="black" points="400.06,-58.49 406.66,-50.2 396.33,-52.56 400.06,-58.49"/>
<text text-anchor="middle" x="387.8" y="-73.8" font-family="Times,serif" font-size="14.00">समासः</text>
</g>
</g>
</svg>
