<?xml version="1.0" encoding="UTF-8" standalone="no"?>
<!DOCTYPE svg PUBLIC "-//W3C//DTD SVG 1.1//EN"
 "http://www.w3.org/Graphics/SVG/1.1/DTD/svg11.dtd">
<!-- Generated by graphviz version 2.43.0 (0)
 -->
<!-- Title: G Pages: 1 -->
<svg width="839pt" height="321pt"
 viewBox="0.00 0.00 838.90 321.00" xmlns="http://www.w3.org/2000/svg" xmlns:xlink="http://www.w3.org/1999/xlink">
<g id="graph0" class="graph" transform="scale(1 1) rotate(0) translate(4 317)">
<title>G</title>
<polygon fill="#fffacd" stroke="transparent" points="-4,4 -4,-317 834.9,-317 834.9,4 -4,4"/>
<g id="clust1" class="cluster">
<title>cluster_1</title>
<polygon fill="#fffacd" stroke="black" points="8,-8 8,-147 132,-147 132,-8 8,-8"/>
</g>
<g id="clust2" class="cluster">
<title>cluster_2</title>
<polygon fill="#fffacd" stroke="black" points="339,-8 339,-147 475,-147 475,-8 339,-8"/>
</g>
<!-- Node2_1 -->
<g id="node1" class="node">
<title>Node2_1</title>
<ellipse fill="#00bfff" stroke="#00bfff" cx="70" cy="-34" rx="53.89" ry="18"/>
<text text-anchor="middle" x="70" y="-30.3" font-family="Times,serif" font-size="14.00">काचित्(2.1)</text>
</g>
<!-- Node3_1 -->
<g id="node2" class="node">
<title>Node3_1</title>
<ellipse fill="#00bfff" stroke="#00bfff" cx="72" cy="-121" rx="51.99" ry="18"/>
<text text-anchor="middle" x="72" y="-117.3" font-family="Times,serif" font-size="14.00">विवक्षा(3.1)</text>
</g>
<!-- Node2_1&#45;&gt;Node3_1 -->
<g id="edge1" class="edge">
<title>Node2_1&#45;&gt;Node3_1</title>
<path fill="none" stroke="black" d="M70.64,-62.27C70.95,-75.58 71.32,-91.19 71.6,-102.82"/>
<polygon fill="black" stroke="black" points="74.14,-62.12 70.4,-52.2 67.14,-62.28 74.14,-62.12"/>
<text text-anchor="middle" x="94.5" y="-73.8" font-family="Times,serif" font-size="14.00">विशेषणम्</text>
</g>
<!-- Node1_1 -->
<g id="node5" class="node">
<title>Node1_1</title>
<ellipse fill="#ff1975" stroke="#ff1975" cx="72" cy="-208" rx="50.09" ry="18"/>
<text text-anchor="middle" x="72" y="-204.3" font-family="Times,serif" font-size="14.00">अस्ति(1.1)</text>
</g>
<!-- Node3_1&#45;&gt;Node1_1 -->
<g id="edge2" class="edge">
<title>Node3_1&#45;&gt;Node1_1</title>
<path fill="none" stroke="black" d="M72,-149.27C72,-162.58 72,-178.19 72,-189.82"/>
<polygon fill="black" stroke="black" points="75.5,-149.2 72,-139.2 68.5,-149.2 75.5,-149.2"/>
<text text-anchor="middle" x="83" y="-160.8" font-family="Times,serif" font-size="14.00">कर्ता</text>
</g>
<!-- Node11_1 -->
<g id="node3" class="node">
<title>Node11_1</title>
<ellipse fill="#93db70" stroke="#93db70" cx="407" cy="-34" rx="52.79" ry="18"/>
<text text-anchor="middle" x="407" y="-30.3" font-family="Times,serif" font-size="14.00">नृपम्(11.1)</text>
</g>
<!-- Node9_1 -->
<g id="node4" class="node">
<title>Node9_1</title>
<ellipse fill="#93db70" stroke="#93db70" cx="407" cy="-121" rx="60.39" ry="18"/>
<text text-anchor="middle" x="407" y="-117.3" font-family="Times,serif" font-size="14.00">धृतराष्ट्रम्(9.1)</text>
</g>
<!-- Node11_1&#45;&gt;Node9_1 -->
<g id="edge9" class="edge">
<title>Node11_1&#45;&gt;Node9_1</title>
<path fill="none" stroke="black" d="M407,-62.27C407,-75.58 407,-91.19 407,-102.82"/>
<polygon fill="black" stroke="black" points="410.5,-62.2 407,-52.2 403.5,-62.2 410.5,-62.2"/>
<text text-anchor="middle" x="429.5" y="-73.8" font-family="Times,serif" font-size="14.00">विशेषणम्</text>
</g>
<!-- Node10_1 -->
<g id="node11" class="node">
<title>Node10_1</title>
<ellipse fill="#ff99ff" stroke="#ff99ff" cx="413" cy="-208" rx="50.09" ry="18"/>
<text text-anchor="middle" x="413" y="-204.3" font-family="Times,serif" font-size="14.00">प्रति(10.1)</text>
</g>
<!-- Node9_1&#45;&gt;Node10_1 -->
<g id="edge7" class="edge">
<title>Node9_1&#45;&gt;Node10_1</title>
<path fill="none" stroke="black" d="M408.92,-149.27C409.86,-162.58 410.97,-178.19 411.79,-189.82"/>
<polygon fill="black" stroke="black" points="412.41,-148.93 408.21,-139.2 405.43,-149.42 412.41,-148.93"/>
<text text-anchor="middle" x="419" y="-160.8" font-family="Times,serif" font-size="14.00">कर्म</text>
</g>
<!-- Node4_1 -->
<g id="node6" class="node">
<title>Node4_1</title>
<ellipse fill="#ff99ff" stroke="#ff99ff" cx="179" cy="-34" rx="37.09" ry="18"/>
<text text-anchor="middle" x="179" y="-30.3" font-family="Times,serif" font-size="14.00">तु(4.1)</text>
</g>
<!-- Node4_1&#45;&gt;Node3_1 -->
<g id="edge3" class="edge">
<title>Node4_1&#45;&gt;Node3_1</title>
<path fill="none" stroke="black" d="M154.38,-57.09C144.22,-65.98 132.22,-76.19 121,-85 112.61,-91.59 103.13,-98.48 94.76,-104.39"/>
<polygon fill="black" stroke="black" points="156.9,-59.54 162.09,-50.3 152.27,-54.29 156.9,-59.54"/>
<text text-anchor="middle" x="157.5" y="-73.8" font-family="Times,serif" font-size="14.00">सम्बन्धः</text>
</g>
<!-- Node5_1 -->
<g id="node7" class="node">
<title>Node5_1</title>
<ellipse fill="#87ceeb" stroke="#87ceeb" cx="276" cy="-34" rx="42.49" ry="18"/>
<text text-anchor="middle" x="276" y="-30.3" font-family="Times,serif" font-size="14.00">मम(5.1)</text>
</g>
<!-- Node5_1&#45;&gt;Node3_1 -->
<g id="edge4" class="edge">
<title>Node5_1&#45;&gt;Node3_1</title>
<path fill="none" stroke="black" d="M243.29,-53.77C225.02,-63.81 201.65,-75.93 180,-85 157.64,-94.37 131.83,-102.81 111.06,-109.06"/>
<polygon fill="black" stroke="black" points="245.03,-56.81 252.07,-48.89 241.63,-50.69 245.03,-56.81"/>
<text text-anchor="middle" x="240.5" y="-73.8" font-family="Times,serif" font-size="14.00">षष्ठीसम्बन्धः</text>
</g>
<!-- Node6_1 -->
<g id="node8" class="node">
<title>Node6_1</title>
<ellipse fill="#93db70" stroke="#93db70" cx="535" cy="-208" rx="44.39" ry="18"/>
<text text-anchor="middle" x="535" y="-204.3" font-family="Times,serif" font-size="14.00">ताम्(6.1)</text>
</g>
<!-- Node8_1 -->
<g id="node9" class="node">
<title>Node8_1</title>
<ellipse fill="#ff1975" stroke="#ff1975" cx="592" cy="-295" rx="44.39" ry="18"/>
<text text-anchor="middle" x="592" y="-291.3" font-family="Times,serif" font-size="14.00">शृणु(8.1)</text>
</g>
<!-- Node6_1&#45;&gt;Node8_1 -->
<g id="edge5" class="edge">
<title>Node6_1&#45;&gt;Node8_1</title>
<path fill="none" stroke="black" d="M552.07,-234.46C561.43,-248.42 572.76,-265.31 580.96,-277.53"/>
<polygon fill="black" stroke="black" points="554.74,-232.15 546.26,-225.79 548.92,-236.05 554.74,-232.15"/>
<text text-anchor="middle" x="575" y="-247.8" font-family="Times,serif" font-size="14.00">कर्म</text>
</g>
<!-- Node7_1 -->
<g id="node10" class="node">
<title>Node7_1</title>
<ellipse fill="#87ceeb" stroke="#87ceeb" cx="534" cy="-121" rx="48.99" ry="18"/>
<text text-anchor="middle" x="534" y="-117.3" font-family="Times,serif" font-size="14.00">गदतः(7.1)</text>
</g>
<!-- Node7_1&#45;&gt;Node6_1 -->
<g id="edge6" class="edge">
<title>Node7_1&#45;&gt;Node6_1</title>
<path fill="none" stroke="black" d="M534.32,-149.27C534.48,-162.58 534.66,-178.19 534.8,-189.82"/>
<polygon fill="black" stroke="black" points="537.82,-149.16 534.2,-139.2 530.82,-149.24 537.82,-149.16"/>
<text text-anchor="middle" x="561.5" y="-160.8" font-family="Times,serif" font-size="14.00">षष्ठीसम्बन्धः</text>
</g>
<!-- Node10_1&#45;&gt;Node8_1 -->
<g id="edge8" class="edge">
<title>Node10_1&#45;&gt;Node8_1</title>
<path fill="none" stroke="black" d="M443.28,-230.12C457.88,-239.72 475.9,-250.75 493,-259 513.69,-268.97 538,-277.61 557.35,-283.81"/>
<polygon fill="black" stroke="black" points="444.93,-227.01 434.67,-224.36 441.04,-232.83 444.93,-227.01"/>
<text text-anchor="middle" x="524.5" y="-247.8" font-family="Times,serif" font-size="14.00">कर्मप्रवचनीयः</text>
</g>
<!-- Node12_1 -->
<g id="node12" class="node">
<title>Node12_1</title>
<ellipse fill="#ffff00" stroke="#ffff00" cx="651" cy="-121" rx="50.09" ry="18"/>
<text text-anchor="middle" x="651" y="-117.3" font-family="Times,serif" font-size="14.00">देव&#45;(12.1)</text>
</g>
<!-- Node12_2 -->
<g id="node13" class="node">
<title>Node12_2</title>
<ellipse fill="#6fffc3" stroke="#6fffc3" cx="649" cy="-208" rx="50.09" ry="18"/>
<text text-anchor="middle" x="649" y="-204.3" font-family="Times,serif" font-size="14.00">ऋषे(12.2)</text>
</g>
<!-- Node12_1&#45;&gt;Node12_2 -->
<g id="edge10" class="edge">
<title>Node12_1&#45;&gt;Node12_2</title>
<path fill="none" stroke="black" d="M650.36,-149.27C650.05,-162.58 649.68,-178.19 649.4,-189.82"/>
<polygon fill="black" stroke="black" points="653.86,-149.28 650.6,-139.2 646.86,-149.12 653.86,-149.28"/>
<text text-anchor="middle" x="667" y="-160.8" font-family="Times,serif" font-size="14.00">समासः</text>
</g>
<!-- Node12_2&#45;&gt;Node8_1 -->
<g id="edge11" class="edge">
<title>Node12_2&#45;&gt;Node8_1</title>
<path fill="none" stroke="black" d="M631.93,-234.46C622.57,-248.42 611.24,-265.31 603.04,-277.53"/>
<polygon fill="black" stroke="black" points="635.08,-236.05 637.74,-225.79 629.26,-232.15 635.08,-236.05"/>
<text text-anchor="middle" x="644" y="-247.8" font-family="Times,serif" font-size="14.00">सम्बोध्यः</text>
</g>
<!-- Node13_1 -->
<g id="node14" class="node">
<title>Node13_1</title>
<ellipse fill="#ffff00" stroke="#ffff00" cx="775" cy="-121" rx="55.79" ry="18"/>
<text text-anchor="middle" x="775" y="-117.3" font-family="Times,serif" font-size="14.00">लोक&#45;(13.1)</text>
</g>
<!-- Node13_2 -->
<g id="node15" class="node">
<title>Node13_2</title>
<ellipse fill="#6fffc3" stroke="#6fffc3" cx="774" cy="-208" rx="55.79" ry="18"/>
<text text-anchor="middle" x="774" y="-204.3" font-family="Times,serif" font-size="14.00">पूजित(13.2)</text>
</g>
<!-- Node13_1&#45;&gt;Node13_2 -->
<g id="edge12" class="edge">
<title>Node13_1&#45;&gt;Node13_2</title>
<path fill="none" stroke="black" d="M774.68,-149.27C774.52,-162.58 774.34,-178.19 774.2,-189.82"/>
<polygon fill="black" stroke="black" points="778.18,-149.24 774.8,-139.2 771.18,-149.16 778.18,-149.24"/>
<text text-anchor="middle" x="791" y="-160.8" font-family="Times,serif" font-size="14.00">समासः</text>
</g>
<!-- Node13_2&#45;&gt;Node8_1 -->
<g id="edge13" class="edge">
<title>Node13_2&#45;&gt;Node8_1</title>
<path fill="none" stroke="black" d="M734.91,-227.82C715.19,-237.26 690.87,-248.82 669,-259 653.02,-266.43 635.11,-274.59 620.58,-281.16"/>
<polygon fill="black" stroke="black" points="736.69,-230.84 744.2,-223.37 733.67,-224.53 736.69,-230.84"/>
<text text-anchor="middle" x="721" y="-247.8" font-family="Times,serif" font-size="14.00">सम्बोध्यः</text>
</g>
</g>
</svg>
