<?xml version="1.0" encoding="UTF-8" standalone="no"?>
<!DOCTYPE svg PUBLIC "-//W3C//DTD SVG 1.1//EN"
 "http://www.w3.org/Graphics/SVG/1.1/DTD/svg11.dtd">
<!-- Generated by graphviz version 2.43.0 (0)
 -->
<!-- Title: G Pages: 1 -->
<svg width="625pt" height="392pt"
 viewBox="0.00 0.00 625.00 392.00" xmlns="http://www.w3.org/2000/svg" xmlns:xlink="http://www.w3.org/1999/xlink">
<g id="graph0" class="graph" transform="scale(1 1) rotate(0) translate(4 388)">
<title>G</title>
<polygon fill="#fffacd" stroke="transparent" points="-4,4 -4,-388 621,-388 621,4 -4,4"/>
<g id="clust1" class="cluster">
<title>cluster_1</title>
<polygon fill="#fffacd" stroke="black" points="253,-166 253,-305 609,-305 609,-166 253,-166"/>
</g>
<g id="clust2" class="cluster">
<title>cluster_2</title>
<polygon fill="#fffacd" stroke="black" points="8,-166 8,-305 132,-305 132,-166 8,-166"/>
</g>
<!-- Node2_1 -->
<g id="node1" class="node">
<title>Node2_1</title>
<ellipse fill="#00bfff" stroke="#00bfff" cx="310" cy="-192" rx="48.99" ry="18"/>
<text text-anchor="middle" x="310" y="-188.3" font-family="Times,serif" font-size="14.00">उक्तः(2.1)</text>
</g>
<!-- Node3_1 -->
<g id="node2" class="node">
<title>Node3_1</title>
<ellipse fill="#00bfff" stroke="#00bfff" cx="356" cy="-279" rx="50.09" ry="18"/>
<text text-anchor="middle" x="356" y="-275.3" font-family="Times,serif" font-size="14.00">नारदः(3.1)</text>
</g>
<!-- Node2_1&#45;&gt;Node3_1 -->
<g id="edge2" class="edge">
<title>Node2_1&#45;&gt;Node3_1</title>
<path fill="none" stroke="black" d="M323.96,-218.8C331.42,-232.58 340.38,-249.14 346.93,-261.24"/>
<polygon fill="black" stroke="black" points="326.93,-216.92 319.09,-209.79 320.77,-220.25 326.93,-216.92"/>
<text text-anchor="middle" x="357.5" y="-231.8" font-family="Times,serif" font-size="14.00">विशेषणम्</text>
</g>
<!-- Node7_1 -->
<g id="node8" class="node">
<title>Node7_1</title>
<ellipse fill="#ff1975" stroke="#ff1975" cx="190" cy="-366" rx="58.49" ry="18"/>
<text text-anchor="middle" x="190" y="-362.3" font-family="Times,serif" font-size="14.00">व्याजहार(7.1)</text>
</g>
<!-- Node3_1&#45;&gt;Node7_1 -->
<g id="edge3" class="edge">
<title>Node3_1&#45;&gt;Node7_1</title>
<path fill="none" stroke="black" d="M319.23,-298.83C288.93,-314.34 246.56,-336.04 218.71,-350.3"/>
<polygon fill="black" stroke="black" points="320.91,-301.9 328.22,-294.23 317.72,-295.67 320.91,-301.9"/>
<text text-anchor="middle" x="294" y="-318.8" font-family="Times,serif" font-size="14.00">कर्ता</text>
</g>
<!-- Node10_2 -->
<g id="node3" class="node">
<title>Node10_2</title>
<ellipse fill="#00bfff" stroke="#00bfff" cx="427" cy="-192" rx="50.89" ry="18"/>
<text text-anchor="middle" x="427" y="-188.3" font-family="Times,serif" font-size="14.00">दर्शी(10.2)</text>
</g>
<!-- Node10_2&#45;&gt;Node3_1 -->
<g id="edge12" class="edge">
<title>Node10_2&#45;&gt;Node3_1</title>
<path fill="none" stroke="black" d="M406.69,-217.31C394.82,-231.53 380.15,-249.09 369.65,-261.66"/>
<polygon fill="black" stroke="black" points="409.59,-219.31 413.31,-209.39 404.21,-214.82 409.59,-219.31"/>
<text text-anchor="middle" x="417.5" y="-231.8" font-family="Times,serif" font-size="14.00">विशेषणम्</text>
</g>
<!-- Node11_2 -->
<g id="node4" class="node">
<title>Node11_2</title>
<ellipse fill="#00bfff" stroke="#00bfff" cx="548" cy="-192" rx="52.79" ry="18"/>
<text text-anchor="middle" x="548" y="-188.3" font-family="Times,serif" font-size="14.00">तपाः(11.2)</text>
</g>
<!-- Node11_2&#45;&gt;Node3_1 -->
<g id="edge14" class="edge">
<title>Node11_2&#45;&gt;Node3_1</title>
<path fill="none" stroke="black" d="M510.34,-211.88C490.72,-221.53 466.23,-233.25 444,-243 426.08,-250.86 405.81,-258.97 389.24,-265.41"/>
<polygon fill="black" stroke="black" points="512.14,-214.9 519.56,-207.34 509.04,-208.62 512.14,-214.9"/>
<text text-anchor="middle" x="497.5" y="-231.8" font-family="Times,serif" font-size="14.00">विशेषणम्</text>
</g>
<!-- Node6_3 -->
<g id="node5" class="node">
<title>Node6_3</title>
<ellipse fill="#93db70" stroke="#93db70" cx="69" cy="-192" rx="53.09" ry="18"/>
<text text-anchor="middle" x="69" y="-188.3" font-family="Times,serif" font-size="14.00">अनुगम्(6.3)</text>
</g>
<!-- Node5_1 -->
<g id="node6" class="node">
<title>Node5_1</title>
<ellipse fill="#93db70" stroke="#93db70" cx="70" cy="-279" rx="53.89" ry="18"/>
<text text-anchor="middle" x="70" y="-275.3" font-family="Times,serif" font-size="14.00">वाक्यम्(5.1)</text>
</g>
<!-- Node6_3&#45;&gt;Node5_1 -->
<g id="edge8" class="edge">
<title>Node6_3&#45;&gt;Node5_1</title>
<path fill="none" stroke="black" d="M69.32,-220.27C69.48,-233.58 69.66,-249.19 69.8,-260.82"/>
<polygon fill="black" stroke="black" points="72.82,-220.16 69.2,-210.2 65.82,-220.24 72.82,-220.16"/>
<text text-anchor="middle" x="92.5" y="-231.8" font-family="Times,serif" font-size="14.00">विशेषणम्</text>
</g>
<!-- Node5_1&#45;&gt;Node7_1 -->
<g id="edge5" class="edge">
<title>Node5_1&#45;&gt;Node7_1</title>
<path fill="none" stroke="black" d="M100.27,-301.44C121.26,-316.31 148.73,-335.77 167.72,-349.22"/>
<polygon fill="black" stroke="black" points="102.19,-298.51 92.01,-295.59 98.15,-304.23 102.19,-298.51"/>
<text text-anchor="middle" x="147" y="-318.8" font-family="Times,serif" font-size="14.00">कर्म</text>
</g>
<!-- Node1_1 -->
<g id="node7" class="node">
<title>Node1_1</title>
<ellipse fill="#ff99ff" stroke="#ff99ff" cx="206" cy="-105" rx="44.39" ry="18"/>
<text text-anchor="middle" x="206" y="-101.3" font-family="Times,serif" font-size="14.00">इति(1.1)</text>
</g>
<!-- Node1_1&#45;&gt;Node2_1 -->
<g id="edge1" class="edge">
<title>Node1_1&#45;&gt;Node2_1</title>
<path fill="none" stroke="black" d="M232.97,-128.04C251.06,-142.83 274.45,-161.95 290.69,-175.22"/>
<polygon fill="black" stroke="black" points="235.03,-125.21 225.08,-121.59 230.6,-130.63 235.03,-125.21"/>
<text text-anchor="middle" x="283.5" y="-144.8" font-family="Times,serif" font-size="14.00">सम्बन्धः</text>
</g>
<!-- Node4_1 -->
<g id="node9" class="node">
<title>Node4_1</title>
<ellipse fill="#40e0d0" stroke="#40e0d0" cx="310" cy="-105" rx="42.49" ry="18"/>
<text text-anchor="middle" x="310" y="-101.3" font-family="Times,serif" font-size="14.00">तेन(4.1)</text>
</g>
<!-- Node4_1&#45;&gt;Node2_1 -->
<g id="edge4" class="edge">
<title>Node4_1&#45;&gt;Node2_1</title>
<path fill="none" stroke="black" d="M310,-133.27C310,-146.58 310,-162.19 310,-173.82"/>
<polygon fill="black" stroke="black" points="313.5,-133.2 310,-123.2 306.5,-133.2 313.5,-133.2"/>
<text text-anchor="middle" x="321" y="-144.8" font-family="Times,serif" font-size="14.00">कर्ता</text>
</g>
<!-- Node6_1 -->
<g id="node10" class="node">
<title>Node6_1</title>
<ellipse fill="#ffff00" stroke="#ffff00" cx="69" cy="-18" rx="45.49" ry="18"/>
<text text-anchor="middle" x="69" y="-14.3" font-family="Times,serif" font-size="14.00">सर्व&#45;(6.1)</text>
</g>
<!-- Node6_2 -->
<g id="node11" class="node">
<title>Node6_2</title>
<ellipse fill="#ffff00" stroke="#ffff00" cx="69" cy="-105" rx="50.89" ry="18"/>
<text text-anchor="middle" x="69" y="-101.3" font-family="Times,serif" font-size="14.00">मनस्&#45;(6.2)</text>
</g>
<!-- Node6_1&#45;&gt;Node6_2 -->
<g id="edge6" class="edge">
<title>Node6_1&#45;&gt;Node6_2</title>
<path fill="none" stroke="black" d="M69,-46.27C69,-59.58 69,-75.19 69,-86.82"/>
<polygon fill="black" stroke="black" points="72.5,-46.2 69,-36.2 65.5,-46.2 72.5,-46.2"/>
<text text-anchor="middle" x="86" y="-57.8" font-family="Times,serif" font-size="14.00">समासः</text>
</g>
<!-- Node6_2&#45;&gt;Node6_3 -->
<g id="edge7" class="edge">
<title>Node6_2&#45;&gt;Node6_3</title>
<path fill="none" stroke="black" d="M69,-133.27C69,-146.58 69,-162.19 69,-173.82"/>
<polygon fill="black" stroke="black" points="72.5,-133.2 69,-123.2 65.5,-133.2 72.5,-133.2"/>
<text text-anchor="middle" x="86" y="-144.8" font-family="Times,serif" font-size="14.00">समासः</text>
</g>
<!-- Node8_1 -->
<g id="node12" class="node">
<title>Node8_1</title>
<ellipse fill="#87ceeb" stroke="#87ceeb" cx="190" cy="-192" rx="50.09" ry="18"/>
<text text-anchor="middle" x="190" y="-188.3" font-family="Times,serif" font-size="14.00">सताम्(8.1)</text>
</g>
<!-- Node9_1 -->
<g id="node13" class="node">
<title>Node9_1</title>
<ellipse fill="#c6e2eb" stroke="#c6e2eb" cx="190" cy="-279" rx="46.29" ry="18"/>
<text text-anchor="middle" x="190" y="-275.3" font-family="Times,serif" font-size="14.00">मध्ये(9.1)</text>
</g>
<!-- Node8_1&#45;&gt;Node9_1 -->
<g id="edge9" class="edge">
<title>Node8_1&#45;&gt;Node9_1</title>
<path fill="none" stroke="black" d="M190,-220.27C190,-233.58 190,-249.19 190,-260.82"/>
<polygon fill="black" stroke="black" points="193.5,-220.2 190,-210.2 186.5,-220.2 193.5,-220.2"/>
<text text-anchor="middle" x="217.5" y="-231.8" font-family="Times,serif" font-size="14.00">षष्ठीसम्बन्धः</text>
</g>
<!-- Node9_1&#45;&gt;Node7_1 -->
<g id="edge10" class="edge">
<title>Node9_1&#45;&gt;Node7_1</title>
<path fill="none" stroke="black" d="M190,-307.27C190,-320.58 190,-336.19 190,-347.82"/>
<polygon fill="black" stroke="black" points="193.5,-307.2 190,-297.2 186.5,-307.2 193.5,-307.2"/>
<text text-anchor="middle" x="217.5" y="-318.8" font-family="Times,serif" font-size="14.00">अधिकरणम्</text>
</g>
<!-- Node10_1 -->
<g id="node14" class="node">
<title>Node10_1</title>
<ellipse fill="#ffff00" stroke="#ffff00" cx="426" cy="-105" rx="55.79" ry="18"/>
<text text-anchor="middle" x="426" y="-101.3" font-family="Times,serif" font-size="14.00">दिव्य&#45;(10.1)</text>
</g>
<!-- Node10_1&#45;&gt;Node10_2 -->
<g id="edge11" class="edge">
<title>Node10_1&#45;&gt;Node10_2</title>
<path fill="none" stroke="black" d="M426.32,-133.27C426.48,-146.58 426.66,-162.19 426.8,-173.82"/>
<polygon fill="black" stroke="black" points="429.82,-133.16 426.2,-123.2 422.82,-133.24 429.82,-133.16"/>
<text text-anchor="middle" x="443" y="-144.8" font-family="Times,serif" font-size="14.00">समासः</text>
</g>
<!-- Node11_1 -->
<g id="node15" class="node">
<title>Node11_1</title>
<ellipse fill="#ffff00" stroke="#ffff00" cx="553" cy="-105" rx="52.79" ry="18"/>
<text text-anchor="middle" x="553" y="-101.3" font-family="Times,serif" font-size="14.00">महा&#45;(11.1)</text>
</g>
<!-- Node11_1&#45;&gt;Node11_2 -->
<g id="edge13" class="edge">
<title>Node11_1&#45;&gt;Node11_2</title>
<path fill="none" stroke="black" d="M551.4,-133.27C550.61,-146.58 549.69,-162.19 549.01,-173.82"/>
<polygon fill="black" stroke="black" points="554.89,-133.39 551.99,-123.2 547.91,-132.98 554.89,-133.39"/>
<text text-anchor="middle" x="567" y="-144.8" font-family="Times,serif" font-size="14.00">समासः</text>
</g>
</g>
</svg>
