<?xml version="1.0" encoding="UTF-8" standalone="no"?>
<!DOCTYPE svg PUBLIC "-//W3C//DTD SVG 1.1//EN"
 "http://www.w3.org/Graphics/SVG/1.1/DTD/svg11.dtd">
<!-- Generated by graphviz version 2.43.0 (0)
 -->
<!-- Title: G Pages: 1 -->
<svg width="728pt" height="392pt"
 viewBox="0.00 0.00 728.20 392.00" xmlns="http://www.w3.org/2000/svg" xmlns:xlink="http://www.w3.org/1999/xlink">
<g id="graph0" class="graph" transform="scale(1 1) rotate(0) translate(4 388)">
<title>G</title>
<polygon fill="#fffacd" stroke="transparent" points="-4,4 -4,-388 724.2,-388 724.2,4 -4,4"/>
<g id="clust1" class="cluster">
<title>cluster_1</title>
<polygon fill="#fffacd" stroke="black" points="218.2,-166 218.2,-305 712.2,-305 712.2,-166 218.2,-166"/>
</g>
<!-- Node3_2 -->
<g id="node1" class="node">
<title>Node3_2</title>
<ellipse fill="#00bfff" stroke="#00bfff" cx="278.2" cy="-192" rx="51.99" ry="18"/>
<text text-anchor="middle" x="278.2" y="-188.3" font-family="Times,serif" font-size="14.00">सहितः(3.2)</text>
</g>
<!-- Node6_1 -->
<g id="node2" class="node">
<title>Node6_1</title>
<ellipse fill="#00bfff" stroke="#00bfff" cx="396.2" cy="-279" rx="57.69" ry="18"/>
<text text-anchor="middle" x="396.2" y="-275.3" font-family="Times,serif" font-size="14.00">धृतराष्ट्रः(6.1)</text>
</g>
<!-- Node3_2&#45;&gt;Node6_1 -->
<g id="edge5" class="edge">
<title>Node3_2&#45;&gt;Node6_1</title>
<path fill="none" stroke="black" d="M308.04,-214.7C320.18,-223.5 334.34,-233.75 347.2,-243 355.85,-249.23 365.39,-256.05 373.73,-262"/>
<polygon fill="black" stroke="black" points="309.76,-211.62 299.61,-208.58 305.65,-217.28 309.76,-211.62"/>
<text text-anchor="middle" x="369.7" y="-231.8" font-family="Times,serif" font-size="14.00">विशेषणम्</text>
</g>
<!-- Node5_1 -->
<g id="node7" class="node">
<title>Node5_1</title>
<ellipse fill="#ff1975" stroke="#ff1975" cx="158.2" cy="-366" rx="50.89" ry="18"/>
<text text-anchor="middle" x="158.2" y="-362.3" font-family="Times,serif" font-size="14.00">विहर्ता(5.1)</text>
</g>
<!-- Node6_1&#45;&gt;Node5_1 -->
<g id="edge7" class="edge">
<title>Node6_1&#45;&gt;Node5_1</title>
<path fill="none" stroke="black" d="M350.34,-296.38C304.24,-312.84 234.23,-337.85 192.66,-352.69"/>
<polygon fill="black" stroke="black" points="351.55,-299.66 359.79,-293 349.2,-293.07 351.55,-299.66"/>
<text text-anchor="middle" x="302.2" y="-318.8" font-family="Times,serif" font-size="14.00">कर्ता</text>
</g>
<!-- Node4_1 -->
<g id="node3" class="node">
<title>Node4_1</title>
<ellipse fill="#00bfff" stroke="#00bfff" cx="506.2" cy="-192" rx="44.39" ry="18"/>
<text text-anchor="middle" x="506.2" y="-188.3" font-family="Times,serif" font-size="14.00">नृपः(4.1)</text>
</g>
<!-- Node4_1&#45;&gt;Node6_1 -->
<g id="edge6" class="edge">
<title>Node4_1&#45;&gt;Node6_1</title>
<path fill="none" stroke="black" d="M480.25,-214.9C469.53,-223.79 456.89,-234.04 445.2,-243 436.73,-249.48 427.23,-256.36 418.87,-262.28"/>
<polygon fill="black" stroke="black" points="482.59,-217.51 488.03,-208.42 478.11,-212.13 482.59,-217.51"/>
<text text-anchor="middle" x="485.7" y="-231.8" font-family="Times,serif" font-size="14.00">विशेषणम्</text>
</g>
<!-- Node7_1 -->
<g id="node4" class="node">
<title>Node7_1</title>
<ellipse fill="#00bfff" stroke="#00bfff" cx="396.2" cy="-192" rx="48.19" ry="18"/>
<text text-anchor="middle" x="396.2" y="-188.3" font-family="Times,serif" font-size="14.00">अयम्(7.1)</text>
</g>
<!-- Node7_1&#45;&gt;Node6_1 -->
<g id="edge8" class="edge">
<title>Node7_1&#45;&gt;Node6_1</title>
<path fill="none" stroke="black" d="M396.2,-220.27C396.2,-233.58 396.2,-249.19 396.2,-260.82"/>
<polygon fill="black" stroke="black" points="399.7,-220.2 396.2,-210.2 392.7,-220.2 399.7,-220.2"/>
<text text-anchor="middle" x="418.7" y="-231.8" font-family="Times,serif" font-size="14.00">विशेषणम्</text>
</g>
<!-- Node8_3 -->
<g id="node5" class="node">
<title>Node8_3</title>
<ellipse fill="#00bfff" stroke="#00bfff" cx="636.2" cy="-192" rx="67.69" ry="18"/>
<text text-anchor="middle" x="636.2" y="-188.3" font-family="Times,serif" font-size="14.00">अभिपूजितः(8.3)</text>
</g>
<!-- Node8_3&#45;&gt;Node6_1 -->
<g id="edge11" class="edge">
<title>Node8_3&#45;&gt;Node6_1</title>
<path fill="none" stroke="black" d="M592.91,-211.57C569.25,-221.44 539.33,-233.46 512.2,-243 487.79,-251.58 460.06,-260 437.83,-266.43"/>
<polygon fill="black" stroke="black" points="594.43,-214.73 602.3,-207.63 591.73,-208.27 594.43,-214.73"/>
<text text-anchor="middle" x="571.7" y="-231.8" font-family="Times,serif" font-size="14.00">विशेषणम्</text>
</g>
<!-- Node1_1 -->
<g id="node6" class="node">
<title>Node1_1</title>
<ellipse fill="#ff99ff" stroke="#ff99ff" cx="44.2" cy="-279" rx="44.39" ry="18"/>
<text text-anchor="middle" x="44.2" y="-275.3" font-family="Times,serif" font-size="14.00">ततः(1.1)</text>
</g>
<!-- Node1_1&#45;&gt;Node5_1 -->
<g id="edge1" class="edge">
<title>Node1_1&#45;&gt;Node5_1</title>
<path fill="none" stroke="black" d="M60.84,-305.26C67.38,-313.88 75.43,-323.07 84.2,-330 96.01,-339.34 110.73,-346.95 123.92,-352.65"/>
<polygon fill="black" stroke="black" points="63.52,-303 54.83,-296.95 57.85,-307.1 63.52,-303"/>
<text text-anchor="middle" x="119.2" y="-318.8" font-family="Times,serif" font-size="14.00">क्रियाविशेषणम्</text>
</g>
<!-- Node2_1 -->
<g id="node8" class="node">
<title>Node2_1</title>
<ellipse fill="#ffff00" stroke="#ffff00" cx="158.2" cy="-192" rx="49.29" ry="18"/>
<text text-anchor="middle" x="158.2" y="-188.3" font-family="Times,serif" font-size="14.00">कुबेर&#45;(2.1)</text>
</g>
<!-- Node2_2 -->
<g id="node9" class="node">
<title>Node2_2</title>
<ellipse fill="#93db70" stroke="#93db70" cx="158.2" cy="-279" rx="51.99" ry="18"/>
<text text-anchor="middle" x="158.2" y="-275.3" font-family="Times,serif" font-size="14.00">भवनम्(2.2)</text>
</g>
<!-- Node2_1&#45;&gt;Node2_2 -->
<g id="edge2" class="edge">
<title>Node2_1&#45;&gt;Node2_2</title>
<path fill="none" stroke="black" d="M158.2,-220.27C158.2,-233.58 158.2,-249.19 158.2,-260.82"/>
<polygon fill="black" stroke="black" points="161.7,-220.2 158.2,-210.2 154.7,-220.2 161.7,-220.2"/>
<text text-anchor="middle" x="175.2" y="-231.8" font-family="Times,serif" font-size="14.00">समासः</text>
</g>
<!-- Node2_2&#45;&gt;Node5_1 -->
<g id="edge3" class="edge">
<title>Node2_2&#45;&gt;Node5_1</title>
<path fill="none" stroke="black" d="M158.2,-307.27C158.2,-320.58 158.2,-336.19 158.2,-347.82"/>
<polygon fill="black" stroke="black" points="161.7,-307.2 158.2,-297.2 154.7,-307.2 161.7,-307.2"/>
<text text-anchor="middle" x="167.2" y="-318.8" font-family="Times,serif" font-size="14.00">कर्म</text>
</g>
<!-- Node3_1 -->
<g id="node10" class="node">
<title>Node3_1</title>
<ellipse fill="#ffff00" stroke="#ffff00" cx="278.2" cy="-105" rx="58.49" ry="18"/>
<text text-anchor="middle" x="278.2" y="-101.3" font-family="Times,serif" font-size="14.00">गान्धारी&#45;(3.1)</text>
</g>
<!-- Node3_1&#45;&gt;Node3_2 -->
<g id="edge4" class="edge">
<title>Node3_1&#45;&gt;Node3_2</title>
<path fill="none" stroke="black" d="M278.2,-133.27C278.2,-146.58 278.2,-162.19 278.2,-173.82"/>
<polygon fill="black" stroke="black" points="281.7,-133.2 278.2,-123.2 274.7,-133.2 281.7,-133.2"/>
<text text-anchor="middle" x="295.2" y="-144.8" font-family="Times,serif" font-size="14.00">समासः</text>
</g>
<!-- Node8_1 -->
<g id="node11" class="node">
<title>Node8_1</title>
<ellipse fill="#ffff00" stroke="#ffff00" cx="636.2" cy="-18" rx="46.59" ry="18"/>
<text text-anchor="middle" x="636.2" y="-14.3" font-family="Times,serif" font-size="14.00">राज&#45;(8.1)</text>
</g>
<!-- Node8_2 -->
<g id="node12" class="node">
<title>Node8_2</title>
<ellipse fill="#ffff00" stroke="#ffff00" cx="636.2" cy="-105" rx="46.59" ry="18"/>
<text text-anchor="middle" x="636.2" y="-101.3" font-family="Times,serif" font-size="14.00">राज&#45;(8.2)</text>
</g>
<!-- Node8_1&#45;&gt;Node8_2 -->
<g id="edge9" class="edge">
<title>Node8_1&#45;&gt;Node8_2</title>
<path fill="none" stroke="black" d="M636.2,-46.27C636.2,-59.58 636.2,-75.19 636.2,-86.82"/>
<polygon fill="black" stroke="black" points="639.7,-46.2 636.2,-36.2 632.7,-46.2 639.7,-46.2"/>
<text text-anchor="middle" x="653.2" y="-57.8" font-family="Times,serif" font-size="14.00">समासः</text>
</g>
<!-- Node8_2&#45;&gt;Node8_3 -->
<g id="edge10" class="edge">
<title>Node8_2&#45;&gt;Node8_3</title>
<path fill="none" stroke="black" d="M636.2,-133.27C636.2,-146.58 636.2,-162.19 636.2,-173.82"/>
<polygon fill="black" stroke="black" points="639.7,-133.2 636.2,-123.2 632.7,-133.2 639.7,-133.2"/>
<text text-anchor="middle" x="653.2" y="-144.8" font-family="Times,serif" font-size="14.00">समासः</text>
</g>
</g>
</svg>
