<?xml version="1.0" encoding="UTF-8" standalone="no"?>
<!DOCTYPE svg PUBLIC "-//W3C//DTD SVG 1.1//EN"
 "http://www.w3.org/Graphics/SVG/1.1/DTD/svg11.dtd">
<!-- Generated by graphviz version 2.43.0 (0)
 -->
<!-- Title: G Pages: 1 -->
<svg width="941pt" height="392pt"
 viewBox="0.00 0.00 941.45 392.00" xmlns="http://www.w3.org/2000/svg" xmlns:xlink="http://www.w3.org/1999/xlink">
<g id="graph0" class="graph" transform="scale(1 1) rotate(0) translate(4 388)">
<title>G</title>
<polygon fill="#fffacd" stroke="transparent" points="-4,4 -4,-388 937.45,-388 937.45,4 -4,4"/>
<g id="clust1" class="cluster">
<title>cluster_1</title>
<polygon fill="#fffacd" stroke="black" points="654,-166 654,-305 770,-305 770,-166 654,-166"/>
</g>
<g id="clust2" class="cluster">
<title>cluster_2</title>
<polygon fill="#fffacd" stroke="black" points="477,-79 477,-218 597,-218 597,-79 477,-79"/>
</g>
<g id="clust3" class="cluster">
<title>cluster_3</title>
<polygon fill="#fffacd" stroke="black" points="8,-166 8,-305 148,-305 148,-166 8,-166"/>
</g>
<!-- Node1_5 -->
<g id="node1" class="node">
<title>Node1_5</title>
<ellipse fill="#00bfff" stroke="#00bfff" cx="722" cy="-192" rx="40.09" ry="18"/>
<text text-anchor="middle" x="722" y="-188.3" font-family="Times,serif" font-size="14.00">ज्ञः(1.5)</text>
</g>
<!-- Node2_1 -->
<g id="node2" class="node">
<title>Node2_1</title>
<ellipse fill="#00bfff" stroke="#00bfff" cx="712" cy="-279" rx="50.09" ry="18"/>
<text text-anchor="middle" x="712" y="-275.3" font-family="Times,serif" font-size="14.00">भवान्(2.1)</text>
</g>
<!-- Node1_5&#45;&gt;Node2_1 -->
<g id="edge5" class="edge">
<title>Node1_5&#45;&gt;Node2_1</title>
<path fill="none" stroke="black" d="M718.79,-220.27C717.23,-233.58 715.39,-249.19 714.02,-260.82"/>
<polygon fill="black" stroke="black" points="722.28,-220.54 719.98,-210.2 715.33,-219.72 722.28,-220.54"/>
<text text-anchor="middle" x="740.5" y="-231.8" font-family="Times,serif" font-size="14.00">विशेषणम्</text>
</g>
<!-- Node6_1 -->
<g id="node11" class="node">
<title>Node6_1</title>
<ellipse fill="#ff1975" stroke="#ff1975" cx="424" cy="-366" rx="53.89" ry="18"/>
<text text-anchor="middle" x="424" y="-362.3" font-family="Times,serif" font-size="14.00">पश्यसि(6.1)</text>
</g>
<!-- Node2_1&#45;&gt;Node6_1 -->
<g id="edge6" class="edge">
<title>Node2_1&#45;&gt;Node6_1</title>
<path fill="none" stroke="black" d="M664.93,-293.89C608.68,-310.49 515.61,-337.96 463.13,-353.45"/>
<polygon fill="black" stroke="black" points="666.04,-297.21 674.64,-291.03 664.06,-290.5 666.04,-297.21"/>
<text text-anchor="middle" x="597" y="-318.8" font-family="Times,serif" font-size="14.00">कर्ता</text>
</g>
<!-- Node3_1 -->
<g id="node3" class="node">
<title>Node3_1</title>
<ellipse fill="#40e0d0" stroke="#40e0d0" cx="537" cy="-105" rx="51.99" ry="18"/>
<text text-anchor="middle" x="537" y="-101.3" font-family="Times,serif" font-size="14.00">दिव्येन(3.1)</text>
</g>
<!-- Node4_1 -->
<g id="node4" class="node">
<title>Node4_1</title>
<ellipse fill="#40e0d0" stroke="#40e0d0" cx="538" cy="-192" rx="51.19" ry="18"/>
<text text-anchor="middle" x="538" y="-188.3" font-family="Times,serif" font-size="14.00">चक्षुषा(4.1)</text>
</g>
<!-- Node3_1&#45;&gt;Node4_1 -->
<g id="edge7" class="edge">
<title>Node3_1&#45;&gt;Node4_1</title>
<path fill="none" stroke="black" d="M537.32,-133.27C537.48,-146.58 537.66,-162.19 537.8,-173.82"/>
<polygon fill="black" stroke="black" points="540.82,-133.16 537.2,-123.2 533.82,-133.24 540.82,-133.16"/>
<text text-anchor="middle" x="560.5" y="-144.8" font-family="Times,serif" font-size="14.00">विशेषणम्</text>
</g>
<!-- Node4_1&#45;&gt;Node2_1 -->
<g id="edge8" class="edge">
<title>Node4_1&#45;&gt;Node2_1</title>
<path fill="none" stroke="black" d="M575.9,-211.51C608.29,-227.34 654.18,-249.75 683.51,-264.08"/>
<polygon fill="black" stroke="black" points="577.25,-208.28 566.73,-207.04 574.18,-214.57 577.25,-208.28"/>
<text text-anchor="middle" x="652" y="-231.8" font-family="Times,serif" font-size="14.00">सहार्थः</text>
</g>
<!-- Node10_1 -->
<g id="node5" class="node">
<title>Node10_1</title>
<ellipse fill="#93db70" stroke="#93db70" cx="78" cy="-192" rx="61.99" ry="18"/>
<text text-anchor="middle" x="78" y="-188.3" font-family="Times,serif" font-size="14.00">विविधाः(10.1)</text>
</g>
<!-- Node8_1 -->
<g id="node6" class="node">
<title>Node8_1</title>
<ellipse fill="#93db70" stroke="#93db70" cx="93" cy="-279" rx="46.59" ry="18"/>
<text text-anchor="middle" x="93" y="-275.3" font-family="Times,serif" font-size="14.00">गतीः(8.1)</text>
</g>
<!-- Node10_1&#45;&gt;Node8_1 -->
<g id="edge14" class="edge">
<title>Node10_1&#45;&gt;Node8_1</title>
<path fill="none" stroke="black" d="M82.81,-220.27C85.16,-233.58 87.92,-249.19 89.97,-260.82"/>
<polygon fill="black" stroke="black" points="86.22,-219.44 81.04,-210.2 79.33,-220.66 86.22,-219.44"/>
<text text-anchor="middle" x="109.5" y="-231.8" font-family="Times,serif" font-size="14.00">विशेषणम्</text>
</g>
<!-- Node8_1&#45;&gt;Node6_1 -->
<g id="edge12" class="edge">
<title>Node8_1&#45;&gt;Node6_1</title>
<path fill="none" stroke="black" d="M140.96,-292.32C206.02,-309.02 321.13,-338.58 382.59,-354.37"/>
<polygon fill="black" stroke="black" points="141.53,-288.85 130.97,-289.75 139.79,-295.63 141.53,-288.85"/>
<text text-anchor="middle" x="288" y="-318.8" font-family="Times,serif" font-size="14.00">कर्म</text>
</g>
<!-- Node1_1 -->
<g id="node7" class="node">
<title>Node1_1</title>
<ellipse fill="#ffff00" stroke="#ffff00" cx="717" cy="-18" rx="45.49" ry="18"/>
<text text-anchor="middle" x="717" y="-14.3" font-family="Times,serif" font-size="14.00">सर्व&#45;(1.1)</text>
</g>
<!-- Node1_3 -->
<g id="node8" class="node">
<title>Node1_3</title>
<ellipse fill="#ffff00" stroke="#ffff00" cx="772" cy="-105" rx="48.99" ry="18"/>
<text text-anchor="middle" x="772" y="-101.3" font-family="Times,serif" font-size="14.00">अन्त&#45;(1.3)</text>
</g>
<!-- Node1_1&#45;&gt;Node1_3 -->
<g id="edge1" class="edge">
<title>Node1_1&#45;&gt;Node1_3</title>
<path fill="none" stroke="black" d="M733.44,-44.4C742.4,-58.26 753.25,-75.03 761.16,-87.24"/>
<polygon fill="black" stroke="black" points="736.24,-42.29 727.87,-35.79 730.36,-46.09 736.24,-42.29"/>
<text text-anchor="middle" x="765" y="-57.8" font-family="Times,serif" font-size="14.00">समासः</text>
</g>
<!-- Node1_3&#45;&gt;Node1_5 -->
<g id="edge3" class="edge">
<title>Node1_3&#45;&gt;Node1_5</title>
<path fill="none" stroke="black" d="M756.82,-131.8C748.72,-145.58 738.97,-162.14 731.86,-174.24"/>
<polygon fill="black" stroke="black" points="760.07,-133.19 762.12,-122.79 754.03,-129.64 760.07,-133.19"/>
<text text-anchor="middle" x="767" y="-144.8" font-family="Times,serif" font-size="14.00">समासः</text>
</g>
<!-- Node1_2 -->
<g id="node9" class="node">
<title>Node1_2</title>
<ellipse fill="#ffff00" stroke="#ffff00" cx="826" cy="-18" rx="45.49" ry="18"/>
<text text-anchor="middle" x="826" y="-14.3" font-family="Times,serif" font-size="14.00">वृत्त&#45;(1.2)</text>
</g>
<!-- Node1_2&#45;&gt;Node1_3 -->
<g id="edge2" class="edge">
<title>Node1_2&#45;&gt;Node1_3</title>
<path fill="none" stroke="black" d="M809.86,-44.4C801.06,-58.26 790.41,-75.03 782.65,-87.24"/>
<polygon fill="black" stroke="black" points="812.92,-46.11 815.33,-35.79 807.01,-42.36 812.92,-46.11"/>
<text text-anchor="middle" x="819" y="-57.8" font-family="Times,serif" font-size="14.00">समासः</text>
</g>
<!-- Node1_4 -->
<g id="node10" class="node">
<title>Node1_4</title>
<ellipse fill="#ffff00" stroke="#ffff00" cx="886" cy="-105" rx="47.39" ry="18"/>
<text text-anchor="middle" x="886" y="-101.3" font-family="Times,serif" font-size="14.00">तत्व&#45;(1.4)</text>
</g>
<!-- Node1_4&#45;&gt;Node1_5 -->
<g id="edge4" class="edge">
<title>Node1_4&#45;&gt;Node1_5</title>
<path fill="none" stroke="black" d="M849.71,-124.81C818.62,-140.92 774.63,-163.72 747.23,-177.92"/>
<polygon fill="black" stroke="black" points="851.65,-127.75 858.92,-120.04 848.43,-121.53 851.65,-127.75"/>
<text text-anchor="middle" x="830" y="-144.8" font-family="Times,serif" font-size="14.00">समासः</text>
</g>
<!-- Node5_1 -->
<g id="node12" class="node">
<title>Node5_1</title>
<ellipse fill="#00bfff" stroke="#00bfff" cx="656" cy="-105" rx="49.29" ry="18"/>
<text text-anchor="middle" x="656" y="-101.3" font-family="Times,serif" font-size="14.00">युक्तः(5.1)</text>
</g>
<!-- Node5_1&#45;&gt;Node4_1 -->
<g id="edge9" class="edge">
<title>Node5_1&#45;&gt;Node4_1</title>
<path fill="none" stroke="black" d="M626.78,-127.24C614.51,-136.14 600.07,-146.59 587,-156 578.17,-162.35 568.43,-169.32 559.98,-175.35"/>
<polygon fill="black" stroke="black" points="628.85,-130.06 634.89,-121.36 624.74,-124.4 628.85,-130.06"/>
<text text-anchor="middle" x="639.5" y="-144.8" font-family="Times,serif" font-size="14.00">सहार्थ_द्योतकः</text>
</g>
<!-- Node7_1 -->
<g id="node13" class="node">
<title>Node7_1</title>
<ellipse fill="#ffff00" stroke="#ffff00" cx="424" cy="-192" rx="44.39" ry="18"/>
<text text-anchor="middle" x="424" y="-188.3" font-family="Times,serif" font-size="14.00">देव&#45;(7.1)</text>
</g>
<!-- Node7_2 -->
<g id="node14" class="node">
<title>Node7_2</title>
<ellipse fill="#6fffc3" stroke="#6fffc3" cx="424" cy="-279" rx="44.39" ry="18"/>
<text text-anchor="middle" x="424" y="-275.3" font-family="Times,serif" font-size="14.00">ऋषे(7.2)</text>
</g>
<!-- Node7_1&#45;&gt;Node7_2 -->
<g id="edge10" class="edge">
<title>Node7_1&#45;&gt;Node7_2</title>
<path fill="none" stroke="black" d="M424,-220.27C424,-233.58 424,-249.19 424,-260.82"/>
<polygon fill="black" stroke="black" points="427.5,-220.2 424,-210.2 420.5,-220.2 427.5,-220.2"/>
<text text-anchor="middle" x="441" y="-231.8" font-family="Times,serif" font-size="14.00">समासः</text>
</g>
<!-- Node7_2&#45;&gt;Node6_1 -->
<g id="edge11" class="edge">
<title>Node7_2&#45;&gt;Node6_1</title>
<path fill="none" stroke="black" d="M424,-307.27C424,-320.58 424,-336.19 424,-347.82"/>
<polygon fill="black" stroke="black" points="427.5,-307.2 424,-297.2 420.5,-307.2 427.5,-307.2"/>
<text text-anchor="middle" x="445" y="-318.8" font-family="Times,serif" font-size="14.00">सम्बोध्यः</text>
</g>
<!-- Node9_1 -->
<g id="node15" class="node">
<title>Node9_1</title>
<ellipse fill="#ff99ff" stroke="#ff99ff" cx="194" cy="-192" rx="36.29" ry="18"/>
<text text-anchor="middle" x="194" y="-188.3" font-family="Times,serif" font-size="14.00">वै(9.1)</text>
</g>
<!-- Node9_1&#45;&gt;Node8_1 -->
<g id="edge13" class="edge">
<title>Node9_1&#45;&gt;Node8_1</title>
<path fill="none" stroke="black" d="M169.1,-214.74C158.9,-223.57 146.94,-233.84 136,-243 128.33,-249.43 119.79,-256.41 112.36,-262.43"/>
<polygon fill="black" stroke="black" points="171.59,-217.2 176.85,-208.01 167.01,-211.92 171.59,-217.2"/>
<text text-anchor="middle" x="172.5" y="-231.8" font-family="Times,serif" font-size="14.00">सम्बन्धः</text>
</g>
<!-- Node11_1 -->
<g id="node16" class="node">
<title>Node11_1</title>
<ellipse fill="#87ceeb" stroke="#87ceeb" cx="305" cy="-192" rx="56.59" ry="18"/>
<text text-anchor="middle" x="305" y="-188.3" font-family="Times,serif" font-size="14.00">नृणाम्(11.1)</text>
</g>
<!-- Node11_1&#45;&gt;Node8_1 -->
<g id="edge15" class="edge">
<title>Node11_1&#45;&gt;Node8_1</title>
<path fill="none" stroke="black" d="M266.26,-211.71C245.37,-221.52 219,-233.45 195,-243 173.08,-251.72 148.03,-260.33 128.24,-266.83"/>
<polygon fill="black" stroke="black" points="267.91,-214.8 275.45,-207.36 264.92,-208.47 267.91,-214.8"/>
<text text-anchor="middle" x="256.5" y="-231.8" font-family="Times,serif" font-size="14.00">षष्ठीसम्बन्धः</text>
</g>
</g>
</svg>
