<?xml version="1.0" encoding="UTF-8" standalone="no"?>
<!DOCTYPE svg PUBLIC "-//W3C//DTD SVG 1.1//EN"
 "http://www.w3.org/Graphics/SVG/1.1/DTD/svg11.dtd">
<!-- Generated by graphviz version 2.43.0 (0)
 -->
<!-- Title: G Pages: 1 -->
<svg width="910pt" height="408pt"
 viewBox="0.00 0.00 910.19 408.00" xmlns="http://www.w3.org/2000/svg" xmlns:xlink="http://www.w3.org/1999/xlink">
<g id="graph0" class="graph" transform="scale(1 1) rotate(0) translate(4 404)">
<title>G</title>
<polygon fill="#fffacd" stroke="transparent" points="-4,4 -4,-404 906.19,-404 906.19,4 -4,4"/>
<g id="clust1" class="cluster">
<title>cluster_1</title>
<polygon fill="#fffacd" stroke="black" points="344.5,-8 344.5,-234 708.5,-234 708.5,-8 344.5,-8"/>
</g>
<!-- Node4_2 -->
<g id="node1" class="node">
<title>Node4_2</title>
<ellipse fill="#87ceeb" stroke="#87ceeb" cx="527.5" cy="-121" rx="52.79" ry="18"/>
<text text-anchor="middle" x="527.5" y="-117.3" font-family="Times,serif" font-size="14.00">राजस्य(4.2)</text>
</g>
<!-- Node10_1 -->
<g id="node2" class="node">
<title>Node10_1</title>
<ellipse fill="#87ceeb" stroke="#87ceeb" cx="404.5" cy="-208" rx="48.19" ry="18"/>
<text text-anchor="middle" x="404.5" y="-204.3" font-family="Times,serif" font-size="14.00">मम(10.1)</text>
</g>
<!-- Node4_2&#45;&gt;Node10_1 -->
<g id="edge5" class="edge">
<title>Node4_2&#45;&gt;Node10_1</title>
<path fill="none" stroke="black" d="M496.94,-143.12C475.1,-158.21 446.23,-178.16 426.6,-191.72"/>
<polygon fill="black" stroke="black" points="498.98,-145.96 505.22,-137.39 495.01,-140.2 498.98,-145.96"/>
<text text-anchor="middle" x="495" y="-160.8" font-family="Times,serif" font-size="14.00">समुच्चितः</text>
</g>
<!-- Node3_1 -->
<g id="node9" class="node">
<title>Node3_1</title>
<ellipse fill="#00bfff" stroke="#00bfff" cx="400.5" cy="-295" rx="46.29" ry="18"/>
<text text-anchor="middle" x="400.5" y="-291.3" font-family="Times,serif" font-size="14.00">श्रद्धा(3.1)</text>
</g>
<!-- Node10_1&#45;&gt;Node3_1 -->
<g id="edge10" class="edge">
<title>Node10_1&#45;&gt;Node3_1</title>
<path fill="none" stroke="black" d="M403.21,-236.27C402.59,-249.58 401.85,-265.19 401.3,-276.82"/>
<polygon fill="black" stroke="black" points="406.71,-236.35 403.69,-226.2 399.72,-236.03 406.71,-236.35"/>
<text text-anchor="middle" x="430" y="-247.8" font-family="Times,serif" font-size="14.00">षष्ठीसम्बन्धः</text>
</g>
<!-- Node6_1 -->
<g id="node3" class="node">
<title>Node6_1</title>
<ellipse fill="#87ceeb" stroke="#87ceeb" cx="649.5" cy="-121" rx="51.19" ry="18"/>
<text text-anchor="middle" x="649.5" y="-117.3" font-family="Times,serif" font-size="14.00">सर्वस्य(6.1)</text>
</g>
<!-- Node6_1&#45;&gt;Node10_1 -->
<g id="edge6" class="edge">
<title>Node6_1&#45;&gt;Node10_1</title>
<path fill="none" stroke="black" d="M608.18,-139.13C583.26,-149.21 550.77,-161.92 521.5,-172 495.13,-181.07 464.98,-190.06 441.89,-196.66"/>
<polygon fill="black" stroke="black" points="609.73,-142.28 617.68,-135.27 607.09,-135.79 609.73,-142.28"/>
<text text-anchor="middle" x="583" y="-160.8" font-family="Times,serif" font-size="14.00">समुच्चितः</text>
</g>
<!-- Node8_1 -->
<g id="node4" class="node">
<title>Node8_1</title>
<ellipse fill="#87ceeb" stroke="#87ceeb" cx="404.5" cy="-121" rx="51.99" ry="18"/>
<text text-anchor="middle" x="404.5" y="-117.3" font-family="Times,serif" font-size="14.00">जनस्य(8.1)</text>
</g>
<!-- Node8_1&#45;&gt;Node10_1 -->
<g id="edge8" class="edge">
<title>Node8_1&#45;&gt;Node10_1</title>
<path fill="none" stroke="black" d="M404.5,-149.27C404.5,-162.58 404.5,-178.19 404.5,-189.82"/>
<polygon fill="black" stroke="black" points="408,-149.2 404.5,-139.2 401,-149.2 408,-149.2"/>
<text text-anchor="middle" x="427" y="-160.8" font-family="Times,serif" font-size="14.00">समुच्चितः</text>
</g>
<!-- Node9_1 -->
<g id="node5" class="node">
<title>Node9_1</title>
<ellipse fill="#87ceeb" stroke="#87ceeb" cx="404.5" cy="-34" rx="47.39" ry="18"/>
<text text-anchor="middle" x="404.5" y="-30.3" font-family="Times,serif" font-size="14.00">अस्य(9.1)</text>
</g>
<!-- Node9_1&#45;&gt;Node8_1 -->
<g id="edge9" class="edge">
<title>Node9_1&#45;&gt;Node8_1</title>
<path fill="none" stroke="black" d="M404.5,-62.27C404.5,-75.58 404.5,-91.19 404.5,-102.82"/>
<polygon fill="black" stroke="black" points="408,-62.2 404.5,-52.2 401,-62.2 408,-62.2"/>
<text text-anchor="middle" x="427" y="-73.8" font-family="Times,serif" font-size="14.00">विशेषणम्</text>
</g>
<!-- Node1_1 -->
<g id="node6" class="node">
<title>Node1_1</title>
<ellipse fill="#ff99ff" stroke="#ff99ff" cx="45.5" cy="-295" rx="45.49" ry="18"/>
<text text-anchor="middle" x="45.5" y="-291.3" font-family="Times,serif" font-size="14.00">अहो(1.1)</text>
</g>
<!-- Node5_1 -->
<g id="node7" class="node">
<title>Node5_1</title>
<ellipse fill="#00bfff" stroke="#00bfff" cx="204.5" cy="-382" rx="51.99" ry="18"/>
<text text-anchor="middle" x="204.5" y="-378.3" font-family="Times,serif" font-size="14.00">वर्धिता(5.1)</text>
</g>
<!-- Node1_1&#45;&gt;Node5_1 -->
<g id="edge1" class="edge">
<title>Node1_1&#45;&gt;Node5_1</title>
<path fill="none" stroke="black" d="M80.44,-314.68C109.68,-330.31 150.8,-352.29 177.54,-366.59"/>
<polygon fill="black" stroke="black" points="81.86,-311.47 71.4,-309.85 78.56,-317.65 81.86,-311.47"/>
<text text-anchor="middle" x="154" y="-334.8" font-family="Times,serif" font-size="14.00">सम्बन्धः</text>
</g>
<!-- Node2_1 -->
<g id="node8" class="node">
<title>Node2_1</title>
<ellipse fill="#40e0d0" stroke="#40e0d0" cx="163.5" cy="-295" rx="54.69" ry="18"/>
<text text-anchor="middle" x="163.5" y="-291.3" font-family="Times,serif" font-size="14.00">भगवता(2.1)</text>
</g>
<!-- Node2_1&#45;&gt;Node5_1 -->
<g id="edge2" class="edge">
<title>Node2_1&#45;&gt;Node5_1</title>
<path fill="none" stroke="black" d="M176.3,-322.54C182.85,-336.12 190.63,-352.24 196.35,-364.11"/>
<polygon fill="black" stroke="black" points="179.29,-320.69 171.79,-313.2 172.99,-323.73 179.29,-320.69"/>
<text text-anchor="middle" x="197.5" y="-334.8" font-family="Times,serif" font-size="14.00">कर्ता</text>
</g>
<!-- Node3_1&#45;&gt;Node5_1 -->
<g id="edge3" class="edge">
<title>Node3_1&#45;&gt;Node5_1</title>
<path fill="none" stroke="black" d="M364.03,-314.21C343.98,-324.02 318.56,-336.09 295.5,-346 276.99,-353.95 256.02,-362.07 238.89,-368.49"/>
<polygon fill="black" stroke="black" points="365.7,-317.3 373.13,-309.75 362.61,-311.02 365.7,-317.3"/>
<text text-anchor="middle" x="337.5" y="-334.8" font-family="Times,serif" font-size="14.00">कर्म</text>
</g>
<!-- Node4_1 -->
<g id="node10" class="node">
<title>Node4_1</title>
<ellipse fill="#ffff00" stroke="#ffff00" cx="762.5" cy="-34" rx="46.29" ry="18"/>
<text text-anchor="middle" x="762.5" y="-30.3" font-family="Times,serif" font-size="14.00">कुरु&#45;(4.1)</text>
</g>
<!-- Node4_1&#45;&gt;Node4_2 -->
<g id="edge4" class="edge">
<title>Node4_1&#45;&gt;Node4_2</title>
<path fill="none" stroke="black" d="M720.31,-50.26C675.12,-66.6 604.25,-92.24 562.19,-107.45"/>
<polygon fill="black" stroke="black" points="721.61,-53.51 729.82,-46.82 719.23,-46.93 721.61,-53.51"/>
<text text-anchor="middle" x="675.5" y="-73.8" font-family="Times,serif" font-size="14.00">समासः</text>
</g>
<!-- Node7_1 -->
<g id="node11" class="node">
<title>Node7_1</title>
<ellipse fill="#ff99ff" stroke="#ff99ff" cx="864.5" cy="-34" rx="37.89" ry="18"/>
<text text-anchor="middle" x="864.5" y="-30.3" font-family="Times,serif" font-size="14.00">च(7.1)</text>
</g>
<!-- Node7_1&#45;&gt;Node6_1 -->
<g id="edge7" class="edge">
<title>Node7_1&#45;&gt;Node6_1</title>
<path fill="none" stroke="black" d="M840.98,-57.42C829.55,-67.2 815.14,-78.01 800.5,-85 767.96,-100.54 728.11,-109.4 697.52,-114.32"/>
<polygon fill="black" stroke="black" points="843.57,-59.8 848.73,-50.55 838.92,-54.56 843.57,-59.8"/>
<text text-anchor="middle" x="860.5" y="-73.8" font-family="Times,serif" font-size="14.00">समुच्चय_द्योतकः</text>
</g>
<!-- Node11_1 -->
<g id="node12" class="node">
<title>Node11_1</title>
<ellipse fill="#ff99ff" stroke="#ff99ff" cx="286.5" cy="-121" rx="48.19" ry="18"/>
<text text-anchor="middle" x="286.5" y="-117.3" font-family="Times,serif" font-size="14.00">चैव(11.1)</text>
</g>
<!-- Node11_1&#45;&gt;Node10_1 -->
<g id="edge11" class="edge">
<title>Node11_1&#45;&gt;Node10_1</title>
<path fill="none" stroke="black" d="M301.99,-147.43C308.18,-156.06 315.88,-165.22 324.5,-172 337.48,-182.22 353.91,-190.08 368.5,-195.74"/>
<polygon fill="black" stroke="black" points="304.85,-145.4 296.34,-139.09 299.05,-149.33 304.85,-145.4"/>
<text text-anchor="middle" x="362.5" y="-160.8" font-family="Times,serif" font-size="14.00">समुच्चय_द्योतकः</text>
</g>
<!-- Node12_1 -->
<g id="node13" class="node">
<title>Node12_1</title>
<ellipse fill="#ffff00" stroke="#ffff00" cx="283.5" cy="-208" rx="52.79" ry="18"/>
<text text-anchor="middle" x="283.5" y="-204.3" font-family="Times,serif" font-size="14.00">महा&#45;(12.1)</text>
</g>
<!-- Node12_2 -->
<g id="node14" class="node">
<title>Node12_2</title>
<ellipse fill="#6fffc3" stroke="#6fffc3" cx="284.5" cy="-295" rx="48.19" ry="18"/>
<text text-anchor="middle" x="284.5" y="-291.3" font-family="Times,serif" font-size="14.00">द्युते(12.2)</text>
</g>
<!-- Node12_1&#45;&gt;Node12_2 -->
<g id="edge12" class="edge">
<title>Node12_1&#45;&gt;Node12_2</title>
<path fill="none" stroke="black" d="M283.82,-236.27C283.97,-249.58 284.16,-265.19 284.29,-276.82"/>
<polygon fill="black" stroke="black" points="287.32,-236.16 283.7,-226.2 280.32,-236.24 287.32,-236.16"/>
<text text-anchor="middle" x="301.5" y="-247.8" font-family="Times,serif" font-size="14.00">समासः</text>
</g>
<!-- Node12_2&#45;&gt;Node5_1 -->
<g id="edge13" class="edge">
<title>Node12_2&#45;&gt;Node5_1</title>
<path fill="none" stroke="black" d="M261.99,-319.91C248.54,-334.2 231.81,-351.98 219.87,-364.66"/>
<polygon fill="black" stroke="black" points="264.77,-322.07 269.07,-312.39 259.67,-317.27 264.77,-322.07"/>
<text text-anchor="middle" x="270.5" y="-334.8" font-family="Times,serif" font-size="14.00">सम्बोध्यः</text>
</g>
</g>
</svg>
