<?xml version="1.0" encoding="UTF-8" standalone="no"?>
<!DOCTYPE svg PUBLIC "-//W3C//DTD SVG 1.1//EN"
 "http://www.w3.org/Graphics/SVG/1.1/DTD/svg11.dtd">
<!-- Generated by graphviz version 2.43.0 (0)
 -->
<!-- Title: G Pages: 1 -->
<svg width="490pt" height="408pt"
 viewBox="0.00 0.00 490.05 408.00" xmlns="http://www.w3.org/2000/svg" xmlns:xlink="http://www.w3.org/1999/xlink">
<g id="graph0" class="graph" transform="scale(1 1) rotate(0) translate(4 404)">
<title>G</title>
<polygon fill="#fffacd" stroke="transparent" points="-4,4 -4,-404 486.05,-404 486.05,4 -4,4"/>
<g id="clust1" class="cluster">
<title>cluster_1</title>
<polygon fill="#fffacd" stroke="black" points="277,-182 277,-321 385,-321 385,-182 277,-182"/>
</g>
<g id="clust2" class="cluster">
<title>cluster_2</title>
<polygon fill="#fffacd" stroke="black" points="8,-8 8,-147 134,-147 134,-8 8,-8"/>
</g>
<!-- Node2_1 -->
<g id="node1" class="node">
<title>Node2_1</title>
<ellipse fill="#00bfff" stroke="#00bfff" cx="331" cy="-208" rx="46.29" ry="18"/>
<text text-anchor="middle" x="331" y="-204.3" font-family="Times,serif" font-size="14.00">इयम्(2.1)</text>
</g>
<!-- Node4_1 -->
<g id="node2" class="node">
<title>Node4_1</title>
<ellipse fill="#00bfff" stroke="#00bfff" cx="331" cy="-295" rx="46.29" ry="18"/>
<text text-anchor="middle" x="331" y="-291.3" font-family="Times,serif" font-size="14.00">कथा(4.1)</text>
</g>
<!-- Node2_1&#45;&gt;Node4_1 -->
<g id="edge2" class="edge">
<title>Node2_1&#45;&gt;Node4_1</title>
<path fill="none" stroke="black" d="M331,-236.27C331,-249.58 331,-265.19 331,-276.82"/>
<polygon fill="black" stroke="black" points="334.5,-236.2 331,-226.2 327.5,-236.2 334.5,-236.2"/>
<text text-anchor="middle" x="353.5" y="-247.8" font-family="Times,serif" font-size="14.00">विशेषणम्</text>
</g>
<!-- Node5_1 -->
<g id="node6" class="node">
<title>Node5_1</title>
<ellipse fill="#ff1975" stroke="#ff1975" cx="199" cy="-382" rx="57.69" ry="18"/>
<text text-anchor="middle" x="199" y="-378.3" font-family="Times,serif" font-size="14.00">समभवत्(5.1)</text>
</g>
<!-- Node4_1&#45;&gt;Node5_1 -->
<g id="edge4" class="edge">
<title>Node4_1&#45;&gt;Node5_1</title>
<path fill="none" stroke="black" d="M305.12,-318.02C293.78,-327.19 280.09,-337.62 267,-346 255.26,-353.51 241.71,-360.75 229.81,-366.68"/>
<polygon fill="black" stroke="black" points="307.41,-320.67 312.92,-311.62 302.97,-315.26 307.41,-320.67"/>
<text text-anchor="middle" x="298" y="-334.8" font-family="Times,serif" font-size="14.00">कर्ता</text>
</g>
<!-- Node9_1 -->
<g id="node3" class="node">
<title>Node9_1</title>
<ellipse fill="#87ceeb" stroke="#87ceeb" cx="71" cy="-34" rx="47.39" ry="18"/>
<text text-anchor="middle" x="71" y="-30.3" font-family="Times,serif" font-size="14.00">अस्य(9.1)</text>
</g>
<!-- Node8_1 -->
<g id="node4" class="node">
<title>Node8_1</title>
<ellipse fill="#87ceeb" stroke="#87ceeb" cx="71" cy="-121" rx="55.49" ry="18"/>
<text text-anchor="middle" x="71" y="-117.3" font-family="Times,serif" font-size="14.00">दुश्चरस्य(8.1)</text>
</g>
<!-- Node9_1&#45;&gt;Node8_1 -->
<g id="edge8" class="edge">
<title>Node9_1&#45;&gt;Node8_1</title>
<path fill="none" stroke="black" d="M71,-62.27C71,-75.58 71,-91.19 71,-102.82"/>
<polygon fill="black" stroke="black" points="74.5,-62.2 71,-52.2 67.5,-62.2 74.5,-62.2"/>
<text text-anchor="middle" x="93.5" y="-73.8" font-family="Times,serif" font-size="14.00">विशेषणम्</text>
</g>
<!-- Node7_1 -->
<g id="node9" class="node">
<title>Node7_1</title>
<ellipse fill="#87ceeb" stroke="#87ceeb" cx="71" cy="-208" rx="50.09" ry="18"/>
<text text-anchor="middle" x="71" y="-204.3" font-family="Times,serif" font-size="14.00">तपसः(7.1)</text>
</g>
<!-- Node8_1&#45;&gt;Node7_1 -->
<g id="edge7" class="edge">
<title>Node8_1&#45;&gt;Node7_1</title>
<path fill="none" stroke="black" d="M71,-149.27C71,-162.58 71,-178.19 71,-189.82"/>
<polygon fill="black" stroke="black" points="74.5,-149.2 71,-139.2 67.5,-149.2 74.5,-149.2"/>
<text text-anchor="middle" x="98.5" y="-160.8" font-family="Times,serif" font-size="14.00">षष्ठीसम्बन्धः</text>
</g>
<!-- Node1_1 -->
<g id="node5" class="node">
<title>Node1_1</title>
<ellipse fill="#ff99ff" stroke="#ff99ff" cx="199" cy="-295" rx="42.49" ry="18"/>
<text text-anchor="middle" x="199" y="-291.3" font-family="Times,serif" font-size="14.00">तत्र(1.1)</text>
</g>
<!-- Node1_1&#45;&gt;Node5_1 -->
<g id="edge1" class="edge">
<title>Node1_1&#45;&gt;Node5_1</title>
<path fill="none" stroke="black" d="M199,-323.27C199,-336.58 199,-352.19 199,-363.82"/>
<polygon fill="black" stroke="black" points="202.5,-323.2 199,-313.2 195.5,-323.2 202.5,-323.2"/>
<text text-anchor="middle" x="231" y="-334.8" font-family="Times,serif" font-size="14.00">देशाधिकरणम्</text>
</g>
<!-- Node3_1 -->
<g id="node7" class="node">
<title>Node3_1</title>
<ellipse fill="#87ceeb" stroke="#87ceeb" cx="203" cy="-208" rx="64.19" ry="18"/>
<text text-anchor="middle" x="203" y="-204.3" font-family="Times,serif" font-size="14.00">धृतराष्ट्रस्य(3.1)</text>
</g>
<!-- Node3_1&#45;&gt;Node4_1 -->
<g id="edge3" class="edge">
<title>Node3_1&#45;&gt;Node4_1</title>
<path fill="none" stroke="black" d="M232.46,-231.26C244.54,-240.14 258.77,-250.31 272,-259 282.95,-266.19 295.38,-273.67 306,-279.85"/>
<polygon fill="black" stroke="black" points="234.21,-228.2 224.09,-225.05 230.04,-233.82 234.21,-228.2"/>
<text text-anchor="middle" x="299.5" y="-247.8" font-family="Times,serif" font-size="14.00">षष्ठीसम्बन्धः</text>
</g>
<!-- Node6_1 -->
<g id="node8" class="node">
<title>Node6_1</title>
<ellipse fill="#6fffc3" stroke="#6fffc3" cx="91" cy="-295" rx="42.49" ry="18"/>
<text text-anchor="middle" x="91" y="-291.3" font-family="Times,serif" font-size="14.00">नृप(6.1)</text>
</g>
<!-- Node6_1&#45;&gt;Node5_1 -->
<g id="edge5" class="edge">
<title>Node6_1&#45;&gt;Node5_1</title>
<path fill="none" stroke="black" d="M117.55,-317.68C128.47,-326.53 141.29,-336.83 153,-346 161.06,-352.31 170,-359.15 177.84,-365.09"/>
<polygon fill="black" stroke="black" points="119.58,-314.82 109.61,-311.24 115.17,-320.26 119.58,-314.82"/>
<text text-anchor="middle" x="174" y="-334.8" font-family="Times,serif" font-size="14.00">सम्बोध्यः</text>
</g>
<!-- Node7_1&#45;&gt;Node6_1 -->
<g id="edge6" class="edge">
<title>Node7_1&#45;&gt;Node6_1</title>
<path fill="none" stroke="black" d="M77.42,-236.27C80.55,-249.58 84.22,-265.19 86.96,-276.82"/>
<polygon fill="black" stroke="black" points="80.74,-235.13 75.05,-226.2 73.93,-236.74 80.74,-235.13"/>
<text text-anchor="middle" x="109.5" y="-247.8" font-family="Times,serif" font-size="14.00">षष्ठीसम्बन्धः</text>
</g>
<!-- Node10_1 -->
<g id="node10" class="node">
<title>Node10_1</title>
<ellipse fill="#ff99ff" stroke="#ff99ff" cx="190" cy="-34" rx="48.19" ry="18"/>
<text text-anchor="middle" x="190" y="-30.3" font-family="Times,serif" font-size="14.00">यत्(10.1)</text>
</g>
<!-- Node12_1 -->
<g id="node11" class="node">
<title>Node12_1</title>
<ellipse fill="#ff1975" stroke="#ff1975" cx="310" cy="-121" rx="55.79" ry="18"/>
<text text-anchor="middle" x="310" y="-117.3" font-family="Times,serif" font-size="14.00">तप्यते(12.1)</text>
</g>
<!-- Node10_1&#45;&gt;Node12_1 -->
<g id="edge9" class="edge">
<title>Node10_1&#45;&gt;Node12_1</title>
<path fill="none" stroke="black" d="M219.76,-56.08C240.88,-71.04 268.77,-90.79 287.92,-104.36"/>
<polygon fill="black" stroke="black" points="221.64,-53.12 211.45,-50.2 217.59,-58.83 221.64,-53.12"/>
<text text-anchor="middle" x="275.5" y="-73.8" font-family="Times,serif" font-size="14.00">सम्बन्धः</text>
</g>
<!-- Node11_1 -->
<g id="node12" class="node">
<title>Node11_1</title>
<ellipse fill="#93db70" stroke="#93db70" cx="310" cy="-34" rx="53.89" ry="18"/>
<text text-anchor="middle" x="310" y="-30.3" font-family="Times,serif" font-size="14.00">अयम्(11.1)</text>
</g>
<!-- Node11_1&#45;&gt;Node12_1 -->
<g id="edge10" class="edge">
<title>Node11_1&#45;&gt;Node12_1</title>
<path fill="none" stroke="black" d="M310,-62.27C310,-75.58 310,-91.19 310,-102.82"/>
<polygon fill="black" stroke="black" points="313.5,-62.2 310,-52.2 306.5,-62.2 313.5,-62.2"/>
<text text-anchor="middle" x="319" y="-73.8" font-family="Times,serif" font-size="14.00">कर्म</text>
</g>
<!-- Node13_1 -->
<g id="node13" class="node">
<title>Node13_1</title>
<ellipse fill="#00bfff" stroke="#00bfff" cx="432" cy="-34" rx="50.09" ry="18"/>
<text text-anchor="middle" x="432" y="-30.3" font-family="Times,serif" font-size="14.00">नृपः(13.1)</text>
</g>
<!-- Node13_1&#45;&gt;Node12_1 -->
<g id="edge11" class="edge">
<title>Node13_1&#45;&gt;Node12_1</title>
<path fill="none" stroke="black" d="M401.46,-56.28C379.98,-71.24 351.73,-90.93 332.34,-104.43"/>
<polygon fill="black" stroke="black" points="403.7,-58.98 409.91,-50.39 399.7,-53.24 403.7,-58.98"/>
<text text-anchor="middle" x="389" y="-73.8" font-family="Times,serif" font-size="14.00">कर्ता</text>
</g>
</g>
</svg>
