<?xml version="1.0" encoding="UTF-8" standalone="no"?>
<!DOCTYPE svg PUBLIC "-//W3C//DTD SVG 1.1//EN"
 "http://www.w3.org/Graphics/SVG/1.1/DTD/svg11.dtd">
<!-- Generated by graphviz version 2.43.0 (0)
 -->
<!-- Title: G Pages: 1 -->
<svg width="1106pt" height="392pt"
 viewBox="0.00 0.00 1105.54 392.00" xmlns="http://www.w3.org/2000/svg" xmlns:xlink="http://www.w3.org/1999/xlink">
<g id="graph0" class="graph" transform="scale(1 1) rotate(0) translate(4 388)">
<title>G</title>
<polygon fill="#fffacd" stroke="transparent" points="-4,4 -4,-388 1101.54,-388 1101.54,4 -4,4"/>
<g id="clust1" class="cluster">
<title>cluster_1</title>
<polygon fill="#fffacd" stroke="black" points="421.15,-79 421.15,-218 893.15,-218 893.15,-79 421.15,-79"/>
</g>
<g id="clust2" class="cluster">
<title>cluster_2</title>
<polygon fill="#fffacd" stroke="black" points="100.15,-79 100.15,-218 310.15,-218 310.15,-79 100.15,-79"/>
</g>
<!-- Node2_1 -->
<g id="node1" class="node">
<title>Node2_1</title>
<ellipse fill="#00bfff" stroke="#00bfff" cx="845.15" cy="-105" rx="40.09" ry="18"/>
<text text-anchor="middle" x="845.15" y="-101.3" font-family="Times,serif" font-size="14.00">सः(2.1)</text>
</g>
<!-- Node4_2 -->
<g id="node2" class="node">
<title>Node4_2</title>
<ellipse fill="#00bfff" stroke="#00bfff" cx="659.15" cy="-192" rx="49.29" ry="18"/>
<text text-anchor="middle" x="659.15" y="-188.3" font-family="Times,serif" font-size="14.00">ऋषिः(4.2)</text>
</g>
<!-- Node2_1&#45;&gt;Node4_2 -->
<g id="edge3" class="edge">
<title>Node2_1&#45;&gt;Node4_2</title>
<path fill="none" stroke="black" d="M810.59,-123.84C791.21,-133.66 766.51,-145.87 744.15,-156 726.99,-163.77 707.59,-171.81 691.66,-178.22"/>
<polygon fill="black" stroke="black" points="812.32,-126.89 819.64,-119.24 809.14,-120.65 812.32,-126.89"/>
<text text-anchor="middle" x="796.65" y="-144.8" font-family="Times,serif" font-size="14.00">विशेषणम्</text>
</g>
<!-- Node11_1 -->
<g id="node13" class="node">
<title>Node11_1</title>
<ellipse fill="#ff99ff" stroke="#ff99ff" cx="213.15" cy="-279" rx="64.19" ry="18"/>
<text text-anchor="middle" x="213.15" y="-275.3" font-family="Times,serif" font-size="14.00">समासाद्य(11.1)</text>
</g>
<!-- Node4_2&#45;&gt;Node11_1 -->
<g id="edge6" class="edge">
<title>Node4_2&#45;&gt;Node11_1</title>
<path fill="none" stroke="black" d="M606.55,-203.02C520.35,-219.45 350.07,-251.9 264.61,-268.19"/>
<polygon fill="black" stroke="black" points="607.21,-206.46 616.38,-201.15 605.9,-199.58 607.21,-206.46"/>
<text text-anchor="middle" x="473.15" y="-231.8" font-family="Times,serif" font-size="14.00">कर्ता</text>
</g>
<!-- Node5_2 -->
<g id="node3" class="node">
<title>Node5_2</title>
<ellipse fill="#00bfff" stroke="#00bfff" cx="476.15" cy="-105" rx="47.39" ry="18"/>
<text text-anchor="middle" x="476.15" y="-101.3" font-family="Times,serif" font-size="14.00">सुखी(5.2)</text>
</g>
<!-- Node5_2&#45;&gt;Node4_2 -->
<g id="edge8" class="edge">
<title>Node5_2&#45;&gt;Node4_2</title>
<path fill="none" stroke="black" d="M508.96,-125.76C525.75,-135.48 546.71,-147 566.15,-156 584.93,-164.7 606.54,-172.93 624.2,-179.22"/>
<polygon fill="black" stroke="black" points="510.49,-122.6 500.09,-120.57 506.96,-128.64 510.49,-122.6"/>
<text text-anchor="middle" x="588.65" y="-144.8" font-family="Times,serif" font-size="14.00">विशेषणम्</text>
</g>
<!-- Node12_2 -->
<g id="node4" class="node">
<title>Node12_2</title>
<ellipse fill="#00bfff" stroke="#00bfff" cx="593.15" cy="-105" rx="51.99" ry="18"/>
<text text-anchor="middle" x="593.15" y="-101.3" font-family="Times,serif" font-size="14.00">चक्षुः(12.2)</text>
</g>
<!-- Node12_2&#45;&gt;Node4_2 -->
<g id="edge16" class="edge">
<title>Node12_2&#45;&gt;Node4_2</title>
<path fill="none" stroke="black" d="M608.7,-131.4C613.96,-139.47 620.05,-148.3 626.15,-156 631.23,-162.42 637.25,-169.05 642.76,-174.79"/>
<polygon fill="black" stroke="black" points="611.49,-129.26 603.16,-122.71 605.58,-133.02 611.49,-129.26"/>
<text text-anchor="middle" x="648.65" y="-144.8" font-family="Times,serif" font-size="14.00">विशेषणम्</text>
</g>
<!-- Node13_2 -->
<g id="node5" class="node">
<title>Node13_2</title>
<ellipse fill="#00bfff" stroke="#00bfff" cx="725.15" cy="-105" rx="61.99" ry="18"/>
<text text-anchor="middle" x="725.15" y="-101.3" font-family="Times,serif" font-size="14.00">आत्मजः(13.2)</text>
</g>
<!-- Node13_2&#45;&gt;Node4_2 -->
<g id="edge18" class="edge">
<title>Node13_2&#45;&gt;Node4_2</title>
<path fill="none" stroke="black" d="M705.69,-131.06C694.79,-145.09 681.51,-162.19 671.93,-174.53"/>
<polygon fill="black" stroke="black" points="708.74,-132.84 712.11,-122.79 703.21,-128.55 708.74,-132.84"/>
<text text-anchor="middle" x="717.65" y="-144.8" font-family="Times,serif" font-size="14.00">विशेषणम्</text>
</g>
<!-- Node6_1 -->
<g id="node6" class="node">
<title>Node6_1</title>
<ellipse fill="#93db70" stroke="#93db70" cx="260.15" cy="-105" rx="41.69" ry="18"/>
<text text-anchor="middle" x="260.15" y="-101.3" font-family="Times,serif" font-size="14.00">तद्(6.1)</text>
</g>
<!-- Node7_1 -->
<g id="node7" class="node">
<title>Node7_1</title>
<ellipse fill="#93db70" stroke="#93db70" cx="213.15" cy="-192" rx="46.29" ry="18"/>
<text text-anchor="middle" x="213.15" y="-188.3" font-family="Times,serif" font-size="14.00">वनम्(7.1)</text>
</g>
<!-- Node6_1&#45;&gt;Node7_1 -->
<g id="edge9" class="edge">
<title>Node6_1&#45;&gt;Node7_1</title>
<path fill="none" stroke="black" d="M245.88,-131.8C238.26,-145.58 229.1,-162.14 222.41,-174.24"/>
<polygon fill="black" stroke="black" points="249.08,-133.24 250.86,-122.79 242.96,-129.85 249.08,-133.24"/>
<text text-anchor="middle" x="261.65" y="-144.8" font-family="Times,serif" font-size="14.00">विशेषणम्</text>
</g>
<!-- Node7_1&#45;&gt;Node11_1 -->
<g id="edge10" class="edge">
<title>Node7_1&#45;&gt;Node11_1</title>
<path fill="none" stroke="black" d="M213.15,-220.27C213.15,-233.58 213.15,-249.19 213.15,-260.82"/>
<polygon fill="black" stroke="black" points="216.65,-220.2 213.15,-210.2 209.65,-220.2 216.65,-220.2"/>
<text text-anchor="middle" x="222.15" y="-231.8" font-family="Times,serif" font-size="14.00">कर्म</text>
</g>
<!-- Node8_1 -->
<g id="node8" class="node">
<title>Node8_1</title>
<ellipse fill="#93db70" stroke="#93db70" cx="154.15" cy="-105" rx="46.29" ry="18"/>
<text text-anchor="middle" x="154.15" y="-101.3" font-family="Times,serif" font-size="14.00">महत्(8.1)</text>
</g>
<!-- Node8_1&#45;&gt;Node7_1 -->
<g id="edge11" class="edge">
<title>Node8_1&#45;&gt;Node7_1</title>
<path fill="none" stroke="black" d="M168.68,-131.91C173.38,-139.8 178.76,-148.4 184.15,-156 188.62,-162.31 193.91,-168.92 198.75,-174.67"/>
<polygon fill="black" stroke="black" points="171.59,-129.95 163.53,-123.07 165.54,-133.47 171.59,-129.95"/>
<text text-anchor="middle" x="206.65" y="-144.8" font-family="Times,serif" font-size="14.00">विशेषणम्</text>
</g>
<!-- Node1_1 -->
<g id="node9" class="node">
<title>Node1_1</title>
<ellipse fill="#ffff00" stroke="#ffff00" cx="365.15" cy="-18" rx="48.19" ry="18"/>
<text text-anchor="middle" x="365.15" y="-14.3" font-family="Times,serif" font-size="14.00">सुख&#45;(1.1)</text>
</g>
<!-- Node1_2 -->
<g id="node10" class="node">
<title>Node1_2</title>
<ellipse fill="#00bfff" stroke="#00bfff" cx="365.15" cy="-105" rx="45.49" ry="18"/>
<text text-anchor="middle" x="365.15" y="-101.3" font-family="Times,serif" font-size="14.00">अर्हः(1.2)</text>
</g>
<!-- Node1_1&#45;&gt;Node1_2 -->
<g id="edge1" class="edge">
<title>Node1_1&#45;&gt;Node1_2</title>
<path fill="none" stroke="black" d="M365.15,-46.27C365.15,-59.58 365.15,-75.19 365.15,-86.82"/>
<polygon fill="black" stroke="black" points="368.65,-46.2 365.15,-36.2 361.65,-46.2 368.65,-46.2"/>
<text text-anchor="middle" x="382.15" y="-57.8" font-family="Times,serif" font-size="14.00">समासः</text>
</g>
<!-- Node1_2&#45;&gt;Node4_2 -->
<g id="edge2" class="edge">
<title>Node1_2&#45;&gt;Node4_2</title>
<path fill="none" stroke="black" d="M396.29,-126.49C413.33,-136.81 435.19,-148.67 456.15,-156 507.46,-173.95 569.4,-182.93 611.26,-187.25"/>
<polygon fill="black" stroke="black" points="397.69,-123.24 387.35,-120.95 394.01,-129.19 397.69,-123.24"/>
<text text-anchor="middle" x="495.15" y="-144.8" font-family="Times,serif" font-size="14.00">विधेय_विशेषणम्</text>
</g>
<!-- Node3_1 -->
<g id="node11" class="node">
<title>Node3_1</title>
<ellipse fill="#ff99ff" stroke="#ff99ff" cx="942.15" cy="-105" rx="38.99" ry="18"/>
<text text-anchor="middle" x="942.15" y="-101.3" font-family="Times,serif" font-size="14.00">हि(3.1)</text>
</g>
<!-- Node3_1&#45;&gt;Node4_2 -->
<g id="edge4" class="edge">
<title>Node3_1&#45;&gt;Node4_2</title>
<path fill="none" stroke="black" d="M907.05,-122.8C883.69,-133.46 852.09,-146.92 823.15,-156 783.42,-168.46 736.91,-177.92 703.58,-183.85"/>
<polygon fill="black" stroke="black" points="908.6,-125.94 916.21,-118.57 905.66,-119.58 908.6,-125.94"/>
<text text-anchor="middle" x="881.65" y="-144.8" font-family="Times,serif" font-size="14.00">सम्बन्धः</text>
</g>
<!-- Node4_1 -->
<g id="node12" class="node">
<title>Node4_1</title>
<ellipse fill="#00bfff" stroke="#00bfff" cx="1048.15" cy="-105" rx="49.29" ry="18"/>
<text text-anchor="middle" x="1048.15" y="-101.3" font-family="Times,serif" font-size="14.00">राजा&#45;(4.1)</text>
</g>
<!-- Node4_1&#45;&gt;Node4_2 -->
<g id="edge5" class="edge">
<title>Node4_1&#45;&gt;Node4_2</title>
<path fill="none" stroke="black" d="M1007.04,-122.64C978.57,-133.58 939.57,-147.4 904.15,-156 836.5,-172.41 756.36,-182.07 706.63,-186.95"/>
<polygon fill="black" stroke="black" points="1008.59,-125.8 1016.64,-118.91 1006.06,-119.27 1008.59,-125.8"/>
<text text-anchor="middle" x="971.65" y="-144.8" font-family="Times,serif" font-size="14.00">तत्पुरुषः</text>
</g>
<!-- Node14_1 -->
<g id="node17" class="node">
<title>Node14_1</title>
<ellipse fill="#ff1975" stroke="#ff1975" cx="133.15" cy="-366" rx="62.29" ry="18"/>
<text text-anchor="middle" x="133.15" y="-362.3" font-family="Times,serif" font-size="14.00">(वसति)(14.1)</text>
</g>
<!-- Node11_1&#45;&gt;Node14_1 -->
<g id="edge14" class="edge">
<title>Node11_1&#45;&gt;Node14_1</title>
<path fill="none" stroke="black" d="M190.3,-304.27C176.96,-318.45 160.48,-335.96 148.65,-348.53"/>
<polygon fill="black" stroke="black" points="193.04,-306.47 197.34,-296.79 187.94,-301.68 193.04,-306.47"/>
<text text-anchor="middle" x="197.65" y="-318.8" font-family="Times,serif" font-size="14.00">पूर्वकालः</text>
</g>
<!-- Node5_1 -->
<g id="node14" class="node">
<title>Node5_1</title>
<ellipse fill="#ffff00" stroke="#ffff00" cx="476.15" cy="-18" rx="41.69" ry="18"/>
<text text-anchor="middle" x="476.15" y="-14.3" font-family="Times,serif" font-size="14.00">अ&#45;(5.1)</text>
</g>
<!-- Node5_1&#45;&gt;Node5_2 -->
<g id="edge7" class="edge">
<title>Node5_1&#45;&gt;Node5_2</title>
<path fill="none" stroke="black" d="M476.15,-46.27C476.15,-59.58 476.15,-75.19 476.15,-86.82"/>
<polygon fill="black" stroke="black" points="479.65,-46.2 476.15,-36.2 472.65,-46.2 479.65,-46.2"/>
<text text-anchor="middle" x="493.15" y="-57.8" font-family="Times,serif" font-size="14.00">समासः</text>
</g>
<!-- Node9_1 -->
<g id="node15" class="node">
<title>Node9_1</title>
<ellipse fill="#00bfff" stroke="#00bfff" cx="46.15" cy="-192" rx="46.29" ry="18"/>
<text text-anchor="middle" x="46.15" y="-188.3" font-family="Times,serif" font-size="14.00">किम्(9.1)</text>
</g>
<!-- Node10_1 -->
<g id="node16" class="node">
<title>Node10_1</title>
<ellipse fill="#00bfff" stroke="#00bfff" cx="63.15" cy="-279" rx="59.59" ry="18"/>
<text text-anchor="middle" x="63.15" y="-275.3" font-family="Times,serif" font-size="14.00">अवस्थः(10.1)</text>
</g>
<!-- Node9_1&#45;&gt;Node10_1 -->
<g id="edge12" class="edge">
<title>Node9_1&#45;&gt;Node10_1</title>
<path fill="none" stroke="black" d="M51.6,-220.27C54.26,-233.58 57.38,-249.19 59.71,-260.82"/>
<polygon fill="black" stroke="black" points="54.98,-219.32 49.59,-210.2 48.12,-220.69 54.98,-219.32"/>
<text text-anchor="middle" x="73.15" y="-231.8" font-family="Times,serif" font-size="14.00">समासः</text>
</g>
<!-- Node10_1&#45;&gt;Node14_1 -->
<g id="edge13" class="edge">
<title>Node10_1&#45;&gt;Node14_1</title>
<path fill="none" stroke="black" d="M83.42,-304.61C94.95,-318.62 109.09,-335.79 119.34,-348.24"/>
<polygon fill="black" stroke="black" points="86.03,-302.29 76.98,-296.79 80.63,-306.74 86.03,-302.29"/>
<text text-anchor="middle" x="113.15" y="-318.8" font-family="Times,serif" font-size="14.00">कर्ता</text>
</g>
<!-- Node12_1 -->
<g id="node18" class="node">
<title>Node12_1</title>
<ellipse fill="#ffff00" stroke="#ffff00" cx="593.15" cy="-18" rx="53.89" ry="18"/>
<text text-anchor="middle" x="593.15" y="-14.3" font-family="Times,serif" font-size="14.00">प्रज्ञा&#45;(12.1)</text>
</g>
<!-- Node12_1&#45;&gt;Node12_2 -->
<g id="edge15" class="edge">
<title>Node12_1&#45;&gt;Node12_2</title>
<path fill="none" stroke="black" d="M593.15,-46.27C593.15,-59.58 593.15,-75.19 593.15,-86.82"/>
<polygon fill="black" stroke="black" points="596.65,-46.2 593.15,-36.2 589.65,-46.2 596.65,-46.2"/>
<text text-anchor="middle" x="610.15" y="-57.8" font-family="Times,serif" font-size="14.00">समासः</text>
</g>
<!-- Node13_1 -->
<g id="node19" class="node">
<title>Node13_1</title>
<ellipse fill="#ffff00" stroke="#ffff00" cx="725.15" cy="-18" rx="50.09" ry="18"/>
<text text-anchor="middle" x="725.15" y="-14.3" font-family="Times,serif" font-size="14.00">हत&#45;(13.1)</text>
</g>
<!-- Node13_1&#45;&gt;Node13_2 -->
<g id="edge17" class="edge">
<title>Node13_1&#45;&gt;Node13_2</title>
<path fill="none" stroke="black" d="M725.15,-46.27C725.15,-59.58 725.15,-75.19 725.15,-86.82"/>
<polygon fill="black" stroke="black" points="728.65,-46.2 725.15,-36.2 721.65,-46.2 728.65,-46.2"/>
<text text-anchor="middle" x="742.15" y="-57.8" font-family="Times,serif" font-size="14.00">समासः</text>
</g>
</g>
</svg>
