<?xml version="1.0" encoding="UTF-8" standalone="no"?>
<!DOCTYPE svg PUBLIC "-//W3C//DTD SVG 1.1//EN"
 "http://www.w3.org/Graphics/SVG/1.1/DTD/svg11.dtd">
<!-- Generated by graphviz version 2.43.0 (0)
 -->
<!-- Title: G Pages: 1 -->
<svg width="742pt" height="392pt"
 viewBox="0.00 0.00 742.05 392.00" xmlns="http://www.w3.org/2000/svg" xmlns:xlink="http://www.w3.org/1999/xlink">
<g id="graph0" class="graph" transform="scale(1 1) rotate(0) translate(4 388)">
<title>G</title>
<polygon fill="#fffacd" stroke="transparent" points="-4,4 -4,-388 738.05,-388 738.05,4 -4,4"/>
<g id="clust1" class="cluster">
<title>cluster_1</title>
<polygon fill="#fffacd" stroke="black" points="608.05,-79 608.05,-218 726.05,-218 726.05,-79 608.05,-79"/>
</g>
<g id="clust2" class="cluster">
<title>cluster_2</title>
<polygon fill="#fffacd" stroke="black" points="295.05,-79 295.05,-218 421.05,-218 421.05,-79 295.05,-79"/>
</g>
<!-- Node2_2 -->
<g id="node1" class="node">
<title>Node2_2</title>
<ellipse fill="#00bfff" stroke="#00bfff" cx="667.05" cy="-105" rx="44.69" ry="18"/>
<text text-anchor="middle" x="667.05" y="-101.3" font-family="Times,serif" font-size="14.00">पुत्रा(2.2)</text>
</g>
<!-- Node1_1 -->
<g id="node2" class="node">
<title>Node1_1</title>
<ellipse fill="#00bfff" stroke="#00bfff" cx="667.05" cy="-192" rx="50.89" ry="18"/>
<text text-anchor="middle" x="667.05" y="-188.3" font-family="Times,serif" font-size="14.00">द्रौपदी(1.1)</text>
</g>
<!-- Node2_2&#45;&gt;Node1_1 -->
<g id="edge3" class="edge">
<title>Node2_2&#45;&gt;Node1_1</title>
<path fill="none" stroke="black" d="M667.05,-133.27C667.05,-146.58 667.05,-162.19 667.05,-173.82"/>
<polygon fill="black" stroke="black" points="670.55,-133.2 667.05,-123.2 663.55,-133.2 670.55,-133.2"/>
<text text-anchor="middle" x="689.55" y="-144.8" font-family="Times,serif" font-size="14.00">विशेषणम्</text>
</g>
<!-- Node10_1 -->
<g id="node5" class="node">
<title>Node10_1</title>
<ellipse fill="#00bfff" stroke="#00bfff" cx="468.05" cy="-279" rx="52.79" ry="18"/>
<text text-anchor="middle" x="468.05" y="-275.3" font-family="Times,serif" font-size="14.00">देव्यौ(10.1)</text>
</g>
<!-- Node1_1&#45;&gt;Node10_1 -->
<g id="edge1" class="edge">
<title>Node1_1&#45;&gt;Node10_1</title>
<path fill="none" stroke="black" d="M631.6,-212.33C612.96,-222.12 589.57,-233.84 568.05,-243 547.74,-251.64 524.49,-259.87 505.53,-266.18"/>
<polygon fill="black" stroke="black" points="633.41,-215.33 640.6,-207.55 630.13,-209.14 633.41,-215.33"/>
<text text-anchor="middle" x="612.05" y="-231.8" font-family="Times,serif" font-size="14.00">घटकः</text>
</g>
<!-- Node7_1 -->
<g id="node3" class="node">
<title>Node7_1</title>
<ellipse fill="#00bfff" stroke="#00bfff" cx="358.05" cy="-105" rx="55.49" ry="18"/>
<text text-anchor="middle" x="358.05" y="-101.3" font-family="Times,serif" font-size="14.00">भामिनी(7.1)</text>
</g>
<!-- Node4_1 -->
<g id="node4" class="node">
<title>Node4_1</title>
<ellipse fill="#00bfff" stroke="#00bfff" cx="361.05" cy="-192" rx="50.89" ry="18"/>
<text text-anchor="middle" x="361.05" y="-188.3" font-family="Times,serif" font-size="14.00">सुभद्रा(4.1)</text>
</g>
<!-- Node7_1&#45;&gt;Node4_1 -->
<g id="edge8" class="edge">
<title>Node7_1&#45;&gt;Node4_1</title>
<path fill="none" stroke="black" d="M359.01,-133.27C359.48,-146.58 360.03,-162.19 360.44,-173.82"/>
<polygon fill="black" stroke="black" points="362.5,-133.07 358.65,-123.2 355.51,-133.32 362.5,-133.07"/>
<text text-anchor="middle" x="382.55" y="-144.8" font-family="Times,serif" font-size="14.00">विशेषणम्</text>
</g>
<!-- Node4_1&#45;&gt;Node10_1 -->
<g id="edge5" class="edge">
<title>Node4_1&#45;&gt;Node10_1</title>
<path fill="none" stroke="black" d="M388.8,-215.05C407.44,-229.86 431.57,-249.02 448.28,-262.3"/>
<polygon fill="black" stroke="black" points="390.93,-212.27 380.92,-208.79 386.57,-217.75 390.93,-212.27"/>
<text text-anchor="middle" x="435.05" y="-231.8" font-family="Times,serif" font-size="14.00">घटकः</text>
</g>
<!-- Node12_1 -->
<g id="node11" class="node">
<title>Node12_1</title>
<ellipse fill="#ff1975" stroke="#ff1975" cx="198.05" cy="-366" rx="62.29" ry="18"/>
<text text-anchor="middle" x="198.05" y="-362.3" font-family="Times,serif" font-size="14.00">आस्ताम्(12.1)</text>
</g>
<!-- Node10_1&#45;&gt;Node12_1 -->
<g id="edge11" class="edge">
<title>Node10_1&#45;&gt;Node12_1</title>
<path fill="none" stroke="black" d="M423.06,-295.65C393.58,-305.76 354.15,-319.04 319.05,-330 293.37,-338.02 264.44,-346.41 241.3,-352.97"/>
<polygon fill="black" stroke="black" points="424.34,-298.91 432.66,-292.34 422.06,-292.29 424.34,-298.91"/>
<text text-anchor="middle" x="376.05" y="-318.8" font-family="Times,serif" font-size="14.00">कर्ता</text>
</g>
<!-- Node2_1 -->
<g id="node6" class="node">
<title>Node2_1</title>
<ellipse fill="#ffff00" stroke="#ffff00" cx="667.05" cy="-18" rx="44.39" ry="18"/>
<text text-anchor="middle" x="667.05" y="-14.3" font-family="Times,serif" font-size="14.00">हत&#45;(2.1)</text>
</g>
<!-- Node2_1&#45;&gt;Node2_2 -->
<g id="edge2" class="edge">
<title>Node2_1&#45;&gt;Node2_2</title>
<path fill="none" stroke="black" d="M667.05,-46.27C667.05,-59.58 667.05,-75.19 667.05,-86.82"/>
<polygon fill="black" stroke="black" points="670.55,-46.2 667.05,-36.2 663.55,-46.2 670.55,-46.2"/>
<text text-anchor="middle" x="684.05" y="-57.8" font-family="Times,serif" font-size="14.00">समासः</text>
</g>
<!-- Node3_1 -->
<g id="node7" class="node">
<title>Node3_1</title>
<ellipse fill="#ff99ff" stroke="#ff99ff" cx="562.05" cy="-105" rx="37.89" ry="18"/>
<text text-anchor="middle" x="562.05" y="-101.3" font-family="Times,serif" font-size="14.00">च(3.1)</text>
</g>
<!-- Node3_1&#45;&gt;Node1_1 -->
<g id="edge4" class="edge">
<title>Node3_1&#45;&gt;Node1_1</title>
<path fill="none" stroke="black" d="M571.18,-132.58C575.05,-140.89 580.27,-149.56 587.05,-156 598.59,-166.96 614.12,-174.82 628.43,-180.28"/>
<polygon fill="black" stroke="black" points="574.33,-131.02 567.24,-123.14 567.87,-133.72 574.33,-131.02"/>
<text text-anchor="middle" x="625.05" y="-144.8" font-family="Times,serif" font-size="14.00">समुच्चय_द्योतकः</text>
</g>
<!-- Node5_1 -->
<g id="node8" class="node">
<title>Node5_1</title>
<ellipse fill="#ff99ff" stroke="#ff99ff" cx="469.05" cy="-105" rx="37.89" ry="18"/>
<text text-anchor="middle" x="469.05" y="-101.3" font-family="Times,serif" font-size="14.00">च(5.1)</text>
</g>
<!-- Node5_1&#45;&gt;Node4_1 -->
<g id="edge6" class="edge">
<title>Node5_1&#45;&gt;Node4_1</title>
<path fill="none" stroke="black" d="M443.76,-127.69C433.16,-136.62 420.63,-146.96 409.05,-156 400.59,-162.6 391.08,-169.61 382.77,-175.61"/>
<polygon fill="black" stroke="black" points="446.07,-130.32 451.44,-121.18 441.55,-124.98 446.07,-130.32"/>
<text text-anchor="middle" x="466.05" y="-144.8" font-family="Times,serif" font-size="14.00">समुच्चय_द्योतकः</text>
</g>
<!-- Node6_1 -->
<g id="node9" class="node">
<title>Node6_1</title>
<ellipse fill="#ff99ff" stroke="#ff99ff" cx="469.05" cy="-18" rx="41.69" ry="18"/>
<text text-anchor="middle" x="469.05" y="-14.3" font-family="Times,serif" font-size="14.00">एव(6.1)</text>
</g>
<!-- Node6_1&#45;&gt;Node5_1 -->
<g id="edge7" class="edge">
<title>Node6_1&#45;&gt;Node5_1</title>
<path fill="none" stroke="black" d="M469.05,-46.27C469.05,-59.58 469.05,-75.19 469.05,-86.82"/>
<polygon fill="black" stroke="black" points="472.55,-46.2 469.05,-36.2 465.55,-46.2 472.55,-46.2"/>
<text text-anchor="middle" x="487.55" y="-57.8" font-family="Times,serif" font-size="14.00">सम्बन्धः</text>
</g>
<!-- Node8_1 -->
<g id="node10" class="node">
<title>Node8_1</title>
<ellipse fill="#ff99ff" stroke="#ff99ff" cx="37.05" cy="-279" rx="37.09" ry="18"/>
<text text-anchor="middle" x="37.05" y="-275.3" font-family="Times,serif" font-size="14.00">न(8.1)</text>
</g>
<!-- Node8_1&#45;&gt;Node12_1 -->
<g id="edge9" class="edge">
<title>Node8_1&#45;&gt;Node12_1</title>
<path fill="none" stroke="black" d="M64.53,-300.61C78.11,-310.26 94.98,-321.47 111.05,-330 126.57,-338.25 144.48,-345.77 160,-351.7"/>
<polygon fill="black" stroke="black" points="66.28,-297.56 56.13,-294.55 62.19,-303.24 66.28,-297.56"/>
<text text-anchor="middle" x="130.55" y="-318.8" font-family="Times,serif" font-size="14.00">प्रतिषेधः</text>
</g>
<!-- Node9_1 -->
<g id="node12" class="node">
<title>Node9_1</title>
<ellipse fill="#00bfff" stroke="#00bfff" cx="500.05" cy="-192" rx="70.39" ry="18"/>
<text text-anchor="middle" x="500.05" y="-188.3" font-family="Times,serif" font-size="14.00">अतिप्रीतियुते(9.1)</text>
</g>
<!-- Node9_1&#45;&gt;Node10_1 -->
<g id="edge10" class="edge">
<title>Node9_1&#45;&gt;Node10_1</title>
<path fill="none" stroke="black" d="M489.91,-219.94C484.82,-233.43 478.83,-249.36 474.4,-261.11"/>
<polygon fill="black" stroke="black" points="493.32,-220.79 493.57,-210.2 486.77,-218.33 493.32,-220.79"/>
<text text-anchor="middle" x="525.05" y="-231.8" font-family="Times,serif" font-size="14.00">विधेय_विशेषणम्</text>
</g>
<!-- Node11_1 -->
<g id="node13" class="node">
<title>Node11_1</title>
<ellipse fill="#ff99ff" stroke="#ff99ff" cx="142.05" cy="-279" rx="50.09" ry="18"/>
<text text-anchor="middle" x="142.05" y="-275.3" font-family="Times,serif" font-size="14.00">तदा(11.1)</text>
</g>
<!-- Node11_1&#45;&gt;Node12_1 -->
<g id="edge12" class="edge">
<title>Node11_1&#45;&gt;Node12_1</title>
<path fill="none" stroke="black" d="M149.67,-306.67C152.57,-314.54 156.34,-322.94 161.05,-330 165.56,-336.77 171.61,-343.19 177.5,-348.64"/>
<polygon fill="black" stroke="black" points="152.96,-305.48 146.46,-297.12 146.33,-307.71 152.96,-305.48"/>
<text text-anchor="middle" x="196.55" y="-318.8" font-family="Times,serif" font-size="14.00">कालाधिकरणम्</text>
</g>
<!-- Node13_1 -->
<g id="node14" class="node">
<title>Node13_1</title>
<ellipse fill="#ffff00" stroke="#ffff00" cx="240.05" cy="-192" rx="47.39" ry="18"/>
<text text-anchor="middle" x="240.05" y="-188.3" font-family="Times,serif" font-size="14.00">अ&#45;(13.1)</text>
</g>
<!-- Node13_2 -->
<g id="node15" class="node">
<title>Node13_2</title>
<ellipse fill="#00bfff" stroke="#00bfff" cx="272.05" cy="-279" rx="61.99" ry="18"/>
<text text-anchor="middle" x="272.05" y="-275.3" font-family="Times,serif" font-size="14.00">प्रहृष्टवत्(13.2)</text>
</g>
<!-- Node13_1&#45;&gt;Node13_2 -->
<g id="edge13" class="edge">
<title>Node13_1&#45;&gt;Node13_2</title>
<path fill="none" stroke="black" d="M250.16,-219.87C255.21,-233.27 261.16,-249.08 265.58,-260.82"/>
<polygon fill="black" stroke="black" points="253.32,-218.33 246.52,-210.2 246.77,-220.79 253.32,-218.33"/>
<text text-anchor="middle" x="273.05" y="-231.8" font-family="Times,serif" font-size="14.00">समास</text>
</g>
<!-- Node13_2&#45;&gt;Node12_1 -->
<g id="edge14" class="edge">
<title>Node13_2&#45;&gt;Node12_1</title>
<path fill="none" stroke="black" d="M252.77,-305.06C246.34,-313.15 239.03,-322.08 232.05,-330 226.55,-336.23 220.29,-342.81 214.64,-348.58"/>
<polygon fill="black" stroke="black" points="255.68,-307.02 259.11,-297 250.18,-302.7 255.68,-307.02"/>
<text text-anchor="middle" x="280.05" y="-318.8" font-family="Times,serif" font-size="14.00">क्रियाविशेषणम्</text>
</g>
</g>
</svg>
