<?xml version="1.0" encoding="UTF-8" standalone="no"?>
<!DOCTYPE svg PUBLIC "-//W3C//DTD SVG 1.1//EN"
 "http://www.w3.org/Graphics/SVG/1.1/DTD/svg11.dtd">
<!-- Generated by graphviz version 2.43.0 (0)
 -->
<!-- Title: G Pages: 1 -->
<svg width="660pt" height="408pt"
 viewBox="0.00 0.00 659.60 408.00" xmlns="http://www.w3.org/2000/svg" xmlns:xlink="http://www.w3.org/1999/xlink">
<g id="graph0" class="graph" transform="scale(1 1) rotate(0) translate(4 404)">
<title>G</title>
<polygon fill="#fffacd" stroke="transparent" points="-4,4 -4,-404 655.6,-404 655.6,4 -4,4"/>
<g id="clust1" class="cluster">
<title>cluster_1</title>
<polygon fill="#fffacd" stroke="black" points="8,-8 8,-147 293,-147 293,-8 8,-8"/>
</g>
<g id="clust2" class="cluster">
<title>cluster_2</title>
<polygon fill="#fffacd" stroke="black" points="298,-182 298,-321 420,-321 420,-182 298,-182"/>
</g>
<!-- Node3_1 -->
<g id="node1" class="node">
<title>Node3_1</title>
<ellipse fill="#87ceeb" stroke="#87ceeb" cx="217" cy="-34" rx="67.69" ry="18"/>
<text text-anchor="middle" x="217" y="-30.3" font-family="Times,serif" font-size="14.00">द्रौपदेयानाम्(3.1)</text>
</g>
<!-- Node5_2 -->
<g id="node2" class="node">
<title>Node5_2</title>
<ellipse fill="#87ceeb" stroke="#87ceeb" cx="232" cy="-121" rx="48.19" ry="18"/>
<text text-anchor="middle" x="232" y="-117.3" font-family="Times,serif" font-size="14.00">हृदाम्(5.2)</text>
</g>
<!-- Node3_1&#45;&gt;Node5_2 -->
<g id="edge3" class="edge">
<title>Node3_1&#45;&gt;Node5_2</title>
<path fill="none" stroke="black" d="M221.81,-62.27C224.16,-75.58 226.92,-91.19 228.97,-102.82"/>
<polygon fill="black" stroke="black" points="225.22,-61.44 220.04,-52.2 218.33,-62.66 225.22,-61.44"/>
<text text-anchor="middle" x="247.5" y="-73.8" font-family="Times,serif" font-size="14.00">समुच्चितः</text>
</g>
<!-- Node7_1 -->
<g id="node10" class="node">
<title>Node7_1</title>
<ellipse fill="#93db70" stroke="#93db70" cx="232" cy="-208" rx="46.59" ry="18"/>
<text text-anchor="middle" x="232" y="-204.3" font-family="Times,serif" font-size="14.00">वधम्(7.1)</text>
</g>
<!-- Node5_2&#45;&gt;Node7_1 -->
<g id="edge6" class="edge">
<title>Node5_2&#45;&gt;Node7_1</title>
<path fill="none" stroke="black" d="M232,-149.27C232,-162.58 232,-178.19 232,-189.82"/>
<polygon fill="black" stroke="black" points="235.5,-149.2 232,-139.2 228.5,-149.2 235.5,-149.2"/>
<text text-anchor="middle" x="259.5" y="-160.8" font-family="Times,serif" font-size="14.00">षष्ठीसम्बन्धः</text>
</g>
<!-- Node4_1 -->
<g id="node3" class="node">
<title>Node4_1</title>
<ellipse fill="#87ceeb" stroke="#87ceeb" cx="74" cy="-34" rx="57.69" ry="18"/>
<text text-anchor="middle" x="74" y="-30.3" font-family="Times,serif" font-size="14.00">अन्येषाम्(4.1)</text>
</g>
<!-- Node4_1&#45;&gt;Node5_2 -->
<g id="edge4" class="edge">
<title>Node4_1&#45;&gt;Node5_2</title>
<path fill="none" stroke="black" d="M110.91,-54.86C139.99,-70.5 179.8,-91.92 205.71,-105.86"/>
<polygon fill="black" stroke="black" points="112.35,-51.66 101.88,-50 109.03,-57.82 112.35,-51.66"/>
<text text-anchor="middle" x="184.5" y="-73.8" font-family="Times,serif" font-size="14.00">विशेषणम्</text>
</g>
<!-- Node9_1 -->
<g id="node4" class="node">
<title>Node9_1</title>
<ellipse fill="#00bfff" stroke="#00bfff" cx="359" cy="-208" rx="37.09" ry="18"/>
<text text-anchor="middle" x="359" y="-204.3" font-family="Times,serif" font-size="14.00">ते(9.1)</text>
</g>
<!-- Node10_1 -->
<g id="node5" class="node">
<title>Node10_1</title>
<ellipse fill="#00bfff" stroke="#00bfff" cx="359" cy="-295" rx="53.09" ry="18"/>
<text text-anchor="middle" x="359" y="-291.3" font-family="Times,serif" font-size="14.00">वीराः(10.1)</text>
</g>
<!-- Node9_1&#45;&gt;Node10_1 -->
<g id="edge10" class="edge">
<title>Node9_1&#45;&gt;Node10_1</title>
<path fill="none" stroke="black" d="M359,-236.27C359,-249.58 359,-265.19 359,-276.82"/>
<polygon fill="black" stroke="black" points="362.5,-236.2 359,-226.2 355.5,-236.2 362.5,-236.2"/>
<text text-anchor="middle" x="381.5" y="-247.8" font-family="Times,serif" font-size="14.00">विशेषणम्</text>
</g>
<!-- Node13_1 -->
<g id="node7" class="node">
<title>Node13_1</title>
<ellipse fill="#ff1975" stroke="#ff1975" cx="431" cy="-382" rx="59.59" ry="18"/>
<text text-anchor="middle" x="431" y="-378.3" font-family="Times,serif" font-size="14.00">अभवन्(13.1)</text>
</g>
<!-- Node10_1&#45;&gt;Node13_1 -->
<g id="edge11" class="edge">
<title>Node10_1&#45;&gt;Node13_1</title>
<path fill="none" stroke="black" d="M379.55,-320.26C391.51,-334.37 406.27,-351.81 416.91,-364.37"/>
<polygon fill="black" stroke="black" points="382.02,-317.76 372.88,-312.39 376.68,-322.28 382.02,-317.76"/>
<text text-anchor="middle" x="410" y="-334.8" font-family="Times,serif" font-size="14.00">कर्ता</text>
</g>
<!-- Node1_1 -->
<g id="node6" class="node">
<title>Node1_1</title>
<ellipse fill="#ff99ff" stroke="#ff99ff" cx="475" cy="-295" rx="44.69" ry="18"/>
<text text-anchor="middle" x="475" y="-291.3" font-family="Times,serif" font-size="14.00">तथा(1.1)</text>
</g>
<!-- Node1_1&#45;&gt;Node13_1 -->
<g id="edge1" class="edge">
<title>Node1_1&#45;&gt;Node13_1</title>
<path fill="none" stroke="black" d="M461.68,-321.74C454.6,-335.42 446.08,-351.86 439.83,-363.95"/>
<polygon fill="black" stroke="black" points="464.82,-323.28 466.31,-312.79 458.6,-320.06 464.82,-323.28"/>
<text text-anchor="middle" x="490" y="-334.8" font-family="Times,serif" font-size="14.00">क्रियाविशेषणम्</text>
</g>
<!-- Node2_1 -->
<g id="node8" class="node">
<title>Node2_1</title>
<ellipse fill="#ff99ff" stroke="#ff99ff" cx="610" cy="-208" rx="41.69" ry="18"/>
<text text-anchor="middle" x="610" y="-204.3" font-family="Times,serif" font-size="14.00">एव(2.1)</text>
</g>
<!-- Node2_1&#45;&gt;Node1_1 -->
<g id="edge2" class="edge">
<title>Node2_1&#45;&gt;Node1_1</title>
<path fill="none" stroke="black" d="M578.78,-228.65C554.16,-244.16 520.37,-265.44 498.12,-279.44"/>
<polygon fill="black" stroke="black" points="580.81,-231.52 587.4,-223.23 577.08,-225.59 580.81,-231.52"/>
<text text-anchor="middle" x="568.5" y="-247.8" font-family="Times,serif" font-size="14.00">सम्बन्धः</text>
</g>
<!-- Node5_1 -->
<g id="node9" class="node">
<title>Node5_1</title>
<ellipse fill="#ffff00" stroke="#ffff00" cx="344" cy="-34" rx="40.89" ry="18"/>
<text text-anchor="middle" x="344" y="-30.3" font-family="Times,serif" font-size="14.00">सु&#45;(5.1)</text>
</g>
<!-- Node5_1&#45;&gt;Node5_2 -->
<g id="edge5" class="edge">
<title>Node5_1&#45;&gt;Node5_2</title>
<path fill="none" stroke="black" d="M316.18,-56.12C296.37,-71.15 270.19,-91.01 252.32,-104.58"/>
<polygon fill="black" stroke="black" points="318.38,-58.83 324.23,-50 314.15,-53.26 318.38,-58.83"/>
<text text-anchor="middle" x="311" y="-73.8" font-family="Times,serif" font-size="14.00">समासः</text>
</g>
<!-- Node8_1 -->
<g id="node12" class="node">
<title>Node8_1</title>
<ellipse fill="#ff99ff" stroke="#ff99ff" cx="232" cy="-295" rx="55.49" ry="18"/>
<text text-anchor="middle" x="232" y="-291.3" font-family="Times,serif" font-size="14.00">संस्मृत्य(8.1)</text>
</g>
<!-- Node7_1&#45;&gt;Node8_1 -->
<g id="edge8" class="edge">
<title>Node7_1&#45;&gt;Node8_1</title>
<path fill="none" stroke="black" d="M232,-236.27C232,-249.58 232,-265.19 232,-276.82"/>
<polygon fill="black" stroke="black" points="235.5,-236.2 232,-226.2 228.5,-236.2 235.5,-236.2"/>
<text text-anchor="middle" x="241" y="-247.8" font-family="Times,serif" font-size="14.00">कर्म</text>
</g>
<!-- Node6_1 -->
<g id="node11" class="node">
<title>Node6_1</title>
<ellipse fill="#ff99ff" stroke="#ff99ff" cx="449" cy="-34" rx="46.29" ry="18"/>
<text text-anchor="middle" x="449" y="-30.3" font-family="Times,serif" font-size="14.00">अपि(6.1)</text>
</g>
<!-- Node6_1&#45;&gt;Node5_2 -->
<g id="edge7" class="edge">
<title>Node6_1&#45;&gt;Node5_2</title>
<path fill="none" stroke="black" d="M410.6,-52.18C387.89,-62.15 358.49,-74.72 332,-85 310.57,-93.32 286.22,-101.86 266.92,-108.42"/>
<polygon fill="black" stroke="black" points="412.16,-55.32 419.89,-48.08 409.33,-48.92 412.16,-55.32"/>
<text text-anchor="middle" x="405" y="-73.8" font-family="Times,serif" font-size="14.00">समुच्चय_द्योतकः</text>
</g>
<!-- Node8_1&#45;&gt;Node13_1 -->
<g id="edge9" class="edge">
<title>Node8_1&#45;&gt;Node13_1</title>
<path fill="none" stroke="black" d="M272.23,-314.15C293.75,-323.78 320.75,-335.7 345,-346 361.91,-353.18 380.82,-360.91 396.59,-367.27"/>
<polygon fill="black" stroke="black" points="273.62,-310.94 263.07,-310.05 270.76,-317.33 273.62,-310.94"/>
<text text-anchor="middle" x="365.5" y="-334.8" font-family="Times,serif" font-size="14.00">पूर्वकालः</text>
</g>
<!-- Node11_1 -->
<g id="node13" class="node">
<title>Node11_1</title>
<ellipse fill="#ff99ff" stroke="#ff99ff" cx="581" cy="-295" rx="42.79" ry="18"/>
<text text-anchor="middle" x="581" y="-291.3" font-family="Times,serif" font-size="14.00">न(11.1)</text>
</g>
<!-- Node11_1&#45;&gt;Node13_1 -->
<g id="edge12" class="edge">
<title>Node11_1&#45;&gt;Node13_1</title>
<path fill="none" stroke="black" d="M560.44,-319.72C551.51,-328.9 540.48,-338.89 529,-346 512.41,-356.27 492.38,-364.11 474.76,-369.73"/>
<polygon fill="black" stroke="black" points="563.13,-321.97 567.41,-312.28 558.02,-317.19 563.13,-321.97"/>
<text text-anchor="middle" x="566.5" y="-334.8" font-family="Times,serif" font-size="14.00">प्रतिषेधः</text>
</g>
<!-- Node12_1 -->
<g id="node14" class="node">
<title>Node12_1</title>
<ellipse fill="#ffff00" stroke="#ffff00" cx="489" cy="-121" rx="54.69" ry="18"/>
<text text-anchor="middle" x="489" y="-117.3" font-family="Times,serif" font-size="14.00">अति&#45;(12.1)</text>
</g>
<!-- Node12_2 -->
<g id="node15" class="node">
<title>Node12_2</title>
<ellipse fill="#00bfff" stroke="#00bfff" cx="489" cy="-208" rx="61.19" ry="18"/>
<text text-anchor="middle" x="489" y="-204.3" font-family="Times,serif" font-size="14.00">प्रमनसः(12.2)</text>
</g>
<!-- Node12_1&#45;&gt;Node12_2 -->
<g id="edge13" class="edge">
<title>Node12_1&#45;&gt;Node12_2</title>
<path fill="none" stroke="black" d="M489,-149.27C489,-162.58 489,-178.19 489,-189.82"/>
<polygon fill="black" stroke="black" points="492.5,-149.2 489,-139.2 485.5,-149.2 492.5,-149.2"/>
<text text-anchor="middle" x="506" y="-160.8" font-family="Times,serif" font-size="14.00">समासः</text>
</g>
<!-- Node12_2&#45;&gt;Node10_1 -->
<g id="edge14" class="edge">
<title>Node12_2&#45;&gt;Node10_1</title>
<path fill="none" stroke="black" d="M456.7,-230.12C433.58,-245.24 403,-265.23 382.26,-278.79"/>
<polygon fill="black" stroke="black" points="458.7,-232.99 465.16,-224.59 454.87,-227.13 458.7,-232.99"/>
<text text-anchor="middle" x="470" y="-247.8" font-family="Times,serif" font-size="14.00">विधेय_विशेषणम्</text>
</g>
</g>
</svg>
