<?xml version="1.0" encoding="UTF-8" standalone="no"?>
<!DOCTYPE svg PUBLIC "-//W3C//DTD SVG 1.1//EN"
 "http://www.w3.org/Graphics/SVG/1.1/DTD/svg11.dtd">
<!-- Generated by graphviz version 2.43.0 (0)
 -->
<!-- Title: G Pages: 1 -->
<svg width="583pt" height="392pt"
 viewBox="0.00 0.00 583.19 392.00" xmlns="http://www.w3.org/2000/svg" xmlns:xlink="http://www.w3.org/1999/xlink">
<g id="graph0" class="graph" transform="scale(1 1) rotate(0) translate(4 388)">
<title>G</title>
<polygon fill="#fffacd" stroke="transparent" points="-4,4 -4,-388 579.19,-388 579.19,4 -4,4"/>
<!-- Node1_1 -->
<g id="node1" class="node">
<title>Node1_1</title>
<ellipse fill="#93db70" stroke="#93db70" cx="396.45" cy="-192" rx="41.69" ry="18"/>
<text text-anchor="middle" x="396.45" y="-188.3" font-family="Times,serif" font-size="14.00">वनं(1.1)</text>
</g>
<!-- Node2_1 -->
<g id="node2" class="node">
<title>Node2_1</title>
<ellipse fill="#c6e2eb" stroke="#c6e2eb" cx="396.45" cy="-279" rx="42.49" ry="18"/>
<text text-anchor="middle" x="396.45" y="-275.3" font-family="Times,serif" font-size="14.00">गते(2.1)</text>
</g>
<!-- Node1_1&#45;&gt;Node2_1 -->
<g id="edge1" class="edge">
<title>Node1_1&#45;&gt;Node2_1</title>
<path fill="none" stroke="black" d="M396.45,-220.27C396.45,-233.58 396.45,-249.19 396.45,-260.82"/>
<polygon fill="black" stroke="black" points="399.95,-220.2 396.45,-210.2 392.95,-220.2 399.95,-220.2"/>
<text text-anchor="middle" x="405.45" y="-231.8" font-family="Times,serif" font-size="14.00">कर्म</text>
</g>
<!-- Node5_1 -->
<g id="node3" class="node">
<title>Node5_1</title>
<ellipse fill="#ff1975" stroke="#ff1975" cx="375.45" cy="-366" rx="49.29" ry="18"/>
<text text-anchor="middle" x="375.45" y="-362.3" font-family="Times,serif" font-size="14.00">बभूवुः(5.1)</text>
</g>
<!-- Node2_1&#45;&gt;Node5_1 -->
<g id="edge2" class="edge">
<title>Node2_1&#45;&gt;Node5_1</title>
<path fill="none" stroke="black" d="M380.06,-305.36C378.6,-308.51 377.34,-311.76 376.45,-315 373.53,-325.54 373.24,-337.82 373.7,-347.57"/>
<polygon fill="black" stroke="black" points="383.26,-306.81 384.87,-296.34 377.08,-303.52 383.26,-306.81"/>
<text text-anchor="middle" x="440.45" y="-318.8" font-family="Times,serif" font-size="14.00">भावलक्षणसप्तमी_पूर्वकालः</text>
</g>
<!-- Node3_1 -->
<g id="node4" class="node">
<title>Node3_1</title>
<ellipse fill="#ffff00" stroke="#ffff00" cx="499.45" cy="-105" rx="51.99" ry="18"/>
<text text-anchor="middle" x="499.45" y="-101.3" font-family="Times,serif" font-size="14.00">कौरव&#45;(3.1)</text>
</g>
<!-- Node3_2 -->
<g id="node5" class="node">
<title>Node3_2</title>
<ellipse fill="#c6e2eb" stroke="#c6e2eb" cx="499.45" cy="-192" rx="43.59" ry="18"/>
<text text-anchor="middle" x="499.45" y="-188.3" font-family="Times,serif" font-size="14.00">इन्द्रे(3.2)</text>
</g>
<!-- Node3_1&#45;&gt;Node3_2 -->
<g id="edge3" class="edge">
<title>Node3_1&#45;&gt;Node3_2</title>
<path fill="none" stroke="black" d="M499.45,-133.27C499.45,-146.58 499.45,-162.19 499.45,-173.82"/>
<polygon fill="black" stroke="black" points="502.95,-133.2 499.45,-123.2 495.95,-133.2 502.95,-133.2"/>
<text text-anchor="middle" x="516.45" y="-144.8" font-family="Times,serif" font-size="14.00">समासः</text>
</g>
<!-- Node3_2&#45;&gt;Node2_1 -->
<g id="edge4" class="edge">
<title>Node3_2&#45;&gt;Node2_1</title>
<path fill="none" stroke="black" d="M472.63,-215.13C454.47,-230.11 430.95,-249.53 414.87,-262.79"/>
<polygon fill="black" stroke="black" points="475.07,-217.65 480.55,-208.59 470.61,-212.26 475.07,-217.65"/>
<text text-anchor="middle" x="465.45" y="-231.8" font-family="Times,serif" font-size="14.00">कर्ता</text>
</g>
<!-- Node4_1 -->
<g id="node6" class="node">
<title>Node4_1</title>
<ellipse fill="#ffff00" stroke="#ffff00" cx="274.45" cy="-18" rx="48.99" ry="18"/>
<text text-anchor="middle" x="274.45" y="-14.3" font-family="Times,serif" font-size="14.00">दुःख&#45;(4.1)</text>
</g>
<!-- Node4_2 -->
<g id="node7" class="node">
<title>Node4_2</title>
<ellipse fill="#ffff00" stroke="#ffff00" cx="274.45" cy="-105" rx="50.09" ry="18"/>
<text text-anchor="middle" x="274.45" y="-101.3" font-family="Times,serif" font-size="14.00">शोक&#45;(4.2)</text>
</g>
<!-- Node4_1&#45;&gt;Node4_2 -->
<g id="edge5" class="edge">
<title>Node4_1&#45;&gt;Node4_2</title>
<path fill="none" stroke="black" d="M274.45,-46.27C274.45,-59.58 274.45,-75.19 274.45,-86.82"/>
<polygon fill="black" stroke="black" points="277.95,-46.2 274.45,-36.2 270.95,-46.2 277.95,-46.2"/>
<text text-anchor="middle" x="291.45" y="-57.8" font-family="Times,serif" font-size="14.00">समासः</text>
</g>
<!-- Node4_3 -->
<g id="node8" class="node">
<title>Node4_3</title>
<ellipse fill="#00bfff" stroke="#00bfff" cx="274.45" cy="-192" rx="62.29" ry="18"/>
<text text-anchor="middle" x="274.45" y="-188.3" font-family="Times,serif" font-size="14.00">समन्विताः(4.3)</text>
</g>
<!-- Node4_2&#45;&gt;Node4_3 -->
<g id="edge6" class="edge">
<title>Node4_2&#45;&gt;Node4_3</title>
<path fill="none" stroke="black" d="M274.45,-133.27C274.45,-146.58 274.45,-162.19 274.45,-173.82"/>
<polygon fill="black" stroke="black" points="277.95,-133.2 274.45,-123.2 270.95,-133.2 277.95,-133.2"/>
<text text-anchor="middle" x="291.45" y="-144.8" font-family="Times,serif" font-size="14.00">समासः</text>
</g>
<!-- Node6_1 -->
<g id="node9" class="node">
<title>Node6_1</title>
<ellipse fill="#00bfff" stroke="#00bfff" cx="274.45" cy="-279" rx="57.69" ry="18"/>
<text text-anchor="middle" x="274.45" y="-275.3" font-family="Times,serif" font-size="14.00">पाण्डवाः(6.1)</text>
</g>
<!-- Node4_3&#45;&gt;Node6_1 -->
<g id="edge7" class="edge">
<title>Node4_3&#45;&gt;Node6_1</title>
<path fill="none" stroke="black" d="M274.45,-220.27C274.45,-233.58 274.45,-249.19 274.45,-260.82"/>
<polygon fill="black" stroke="black" points="277.95,-220.2 274.45,-210.2 270.95,-220.2 277.95,-220.2"/>
<text text-anchor="middle" x="313.45" y="-231.8" font-family="Times,serif" font-size="14.00">विधेय_विशेषणम्</text>
</g>
<!-- Node6_1&#45;&gt;Node5_1 -->
<g id="edge8" class="edge">
<title>Node6_1&#45;&gt;Node5_1</title>
<path fill="none" stroke="black" d="M302.03,-303.21C319.4,-317.83 341.36,-336.31 356.71,-349.24"/>
<polygon fill="black" stroke="black" points="303.82,-300.15 293.92,-296.39 299.32,-305.51 303.82,-300.15"/>
<text text-anchor="middle" x="342.45" y="-318.8" font-family="Times,serif" font-size="14.00">कर्ता</text>
</g>
<!-- Node7_1 -->
<g id="node10" class="node">
<title>Node7_1</title>
<ellipse fill="#6fffc3" stroke="#6fffc3" cx="526.45" cy="-279" rx="48.99" ry="18"/>
<text text-anchor="middle" x="526.45" y="-275.3" font-family="Times,serif" font-size="14.00">राजन्(7.1)</text>
</g>
<!-- Node7_1&#45;&gt;Node5_1 -->
<g id="edge9" class="edge">
<title>Node7_1&#45;&gt;Node5_1</title>
<path fill="none" stroke="black" d="M519.67,-306.77C516.34,-315.23 511.47,-323.95 504.45,-330 482.11,-349.22 450.19,-357.99 423.69,-361.94"/>
<polygon fill="black" stroke="black" points="523.05,-307.71 522.92,-297.11 516.41,-305.48 523.05,-307.71"/>
<text text-anchor="middle" x="535.45" y="-318.8" font-family="Times,serif" font-size="14.00">सम्बोध्यः</text>
</g>
<!-- Node8_1 -->
<g id="node11" class="node">
<title>Node8_1</title>
<ellipse fill="#ffff00" stroke="#ffff00" cx="47.45" cy="-18" rx="47.39" ry="18"/>
<text text-anchor="middle" x="47.45" y="-14.3" font-family="Times,serif" font-size="14.00">मातृ&#45;(8.1)</text>
</g>
<!-- Node8_2 -->
<g id="node12" class="node">
<title>Node8_2</title>
<ellipse fill="#40e0d0" stroke="#40e0d0" cx="130.45" cy="-105" rx="51.99" ry="18"/>
<text text-anchor="middle" x="130.45" y="-101.3" font-family="Times,serif" font-size="14.00">शोकेन(8.2)</text>
</g>
<!-- Node8_1&#45;&gt;Node8_2 -->
<g id="edge10" class="edge">
<title>Node8_1&#45;&gt;Node8_2</title>
<path fill="none" stroke="black" d="M70.8,-42.91C84.75,-57.2 102.1,-74.98 114.49,-87.66"/>
<polygon fill="black" stroke="black" points="72.94,-40.1 63.45,-35.39 67.93,-44.99 72.94,-40.1"/>
<text text-anchor="middle" x="111.45" y="-57.8" font-family="Times,serif" font-size="14.00">समासः</text>
</g>
<!-- Node10_1 -->
<g id="node13" class="node">
<title>Node10_1</title>
<ellipse fill="#00bfff" stroke="#00bfff" cx="130.45" cy="-192" rx="63.89" ry="18"/>
<text text-anchor="middle" x="130.45" y="-188.3" font-family="Times,serif" font-size="14.00">अन्विताः(10.1)</text>
</g>
<!-- Node8_2&#45;&gt;Node10_1 -->
<g id="edge11" class="edge">
<title>Node8_2&#45;&gt;Node10_1</title>
<path fill="none" stroke="black" d="M130.45,-133.27C130.45,-146.58 130.45,-162.19 130.45,-173.82"/>
<polygon fill="black" stroke="black" points="133.95,-133.2 130.45,-123.2 126.95,-133.2 133.95,-133.2"/>
<text text-anchor="middle" x="141.45" y="-144.8" font-family="Times,serif" font-size="14.00">कर्ता</text>
</g>
<!-- Node10_1&#45;&gt;Node6_1 -->
<g id="edge13" class="edge">
<title>Node10_1&#45;&gt;Node6_1</title>
<path fill="none" stroke="black" d="M155.94,-216.21C166.71,-225.29 179.69,-235.34 192.45,-243 206.64,-251.53 223.3,-259.04 237.87,-264.9"/>
<polygon fill="black" stroke="black" points="158.04,-213.39 148.18,-209.51 153.46,-218.69 158.04,-213.39"/>
<text text-anchor="middle" x="231.45" y="-231.8" font-family="Times,serif" font-size="14.00">विधेय_विशेषणम्</text>
</g>
<!-- Node9_1 -->
<g id="node14" class="node">
<title>Node9_1</title>
<ellipse fill="#ff99ff" stroke="#ff99ff" cx="150.45" cy="-18" rx="37.89" ry="18"/>
<text text-anchor="middle" x="150.45" y="-14.3" font-family="Times,serif" font-size="14.00">च(9.1)</text>
</g>
<!-- Node9_1&#45;&gt;Node8_2 -->
<g id="edge12" class="edge">
<title>Node9_1&#45;&gt;Node8_2</title>
<path fill="none" stroke="black" d="M144.03,-46.27C140.9,-59.58 137.22,-75.19 134.49,-86.82"/>
<polygon fill="black" stroke="black" points="147.51,-46.74 146.4,-36.2 140.7,-45.13 147.51,-46.74"/>
<text text-anchor="middle" x="160.95" y="-57.8" font-family="Times,serif" font-size="14.00">सम्बन्धः</text>
</g>
</g>
</svg>
