<?xml version="1.0" encoding="UTF-8" standalone="no"?>
<!DOCTYPE svg PUBLIC "-//W3C//DTD SVG 1.1//EN"
 "http://www.w3.org/Graphics/SVG/1.1/DTD/svg11.dtd">
<!-- Generated by graphviz version 2.43.0 (0)
 -->
<!-- Title: G Pages: 1 -->
<svg width="845pt" height="234pt"
 viewBox="0.00 0.00 845.40 234.00" xmlns="http://www.w3.org/2000/svg" xmlns:xlink="http://www.w3.org/1999/xlink">
<g id="graph0" class="graph" transform="scale(1 1) rotate(0) translate(4 230)">
<title>G</title>
<polygon fill="#fffacd" stroke="transparent" points="-4,4 -4,-230 841.4,-230 841.4,4 -4,4"/>
<g id="clust1" class="cluster">
<title>cluster_1</title>
<polygon fill="#fffacd" stroke="black" points="8,-8 8,-147 132,-147 132,-8 8,-8"/>
</g>
<g id="clust2" class="cluster">
<title>cluster_2</title>
<polygon fill="#fffacd" stroke="black" points="366,-8 366,-147 488,-147 488,-8 366,-8"/>
</g>
<!-- Node4_1 -->
<g id="node1" class="node">
<title>Node4_1</title>
<ellipse fill="#00bfff" stroke="#00bfff" cx="70" cy="-34" rx="37.09" ry="18"/>
<text text-anchor="middle" x="70" y="-30.3" font-family="Times,serif" font-size="14.00">ते(4.1)</text>
</g>
<!-- Node5_2 -->
<g id="node2" class="node">
<title>Node5_2</title>
<ellipse fill="#00bfff" stroke="#00bfff" cx="70" cy="-121" rx="53.89" ry="18"/>
<text text-anchor="middle" x="70" y="-117.3" font-family="Times,serif" font-size="14.00">नन्दनाः(5.2)</text>
</g>
<!-- Node4_1&#45;&gt;Node5_2 -->
<g id="edge3" class="edge">
<title>Node4_1&#45;&gt;Node5_2</title>
<path fill="none" stroke="black" d="M70,-62.27C70,-75.58 70,-91.19 70,-102.82"/>
<polygon fill="black" stroke="black" points="73.5,-62.2 70,-52.2 66.5,-62.2 73.5,-62.2"/>
<text text-anchor="middle" x="92.5" y="-73.8" font-family="Times,serif" font-size="14.00">विशेषणम्</text>
</g>
<!-- Node1_1 -->
<g id="node6" class="node">
<title>Node1_1</title>
<ellipse fill="#00bfff" stroke="#00bfff" cx="197" cy="-208" rx="65.79" ry="18"/>
<text text-anchor="middle" x="197" y="-204.3" font-family="Times,serif" font-size="14.00">अनुस्मरन्तः(1.1)</text>
</g>
<!-- Node5_2&#45;&gt;Node1_1 -->
<g id="edge5" class="edge">
<title>Node5_2&#45;&gt;Node1_1</title>
<path fill="none" stroke="black" d="M101.44,-143.04C123.68,-157.93 153.04,-177.57 173.31,-191.15"/>
<polygon fill="black" stroke="black" points="103.26,-140.05 93,-137.39 99.36,-145.86 103.26,-140.05"/>
<text text-anchor="middle" x="153" y="-160.8" font-family="Times,serif" font-size="14.00">कर्ता</text>
</g>
<!-- Node12_1 -->
<g id="node3" class="node">
<title>Node12_1</title>
<ellipse fill="#00bfff" stroke="#00bfff" cx="427" cy="-34" rx="52.79" ry="18"/>
<text text-anchor="middle" x="427" y="-30.3" font-family="Times,serif" font-size="14.00">कृशा(12.1)</text>
</g>
<!-- Node11_1 -->
<g id="node4" class="node">
<title>Node11_1</title>
<ellipse fill="#00bfff" stroke="#00bfff" cx="428" cy="-121" rx="50.89" ry="18"/>
<text text-anchor="middle" x="428" y="-117.3" font-family="Times,serif" font-size="14.00">पृथा(11.1)</text>
</g>
<!-- Node12_1&#45;&gt;Node11_1 -->
<g id="edge12" class="edge">
<title>Node12_1&#45;&gt;Node11_1</title>
<path fill="none" stroke="black" d="M427.32,-62.27C427.48,-75.58 427.66,-91.19 427.8,-102.82"/>
<polygon fill="black" stroke="black" points="430.82,-62.16 427.2,-52.2 423.82,-62.24 430.82,-62.16"/>
<text text-anchor="middle" x="449.5" y="-73.8" font-family="Times,serif" font-size="14.00">विशेषणम्</text>
</g>
<!-- Node9_1 -->
<g id="node10" class="node">
<title>Node9_1</title>
<ellipse fill="#ff1975" stroke="#ff1975" cx="605" cy="-208" rx="48.19" ry="18"/>
<text text-anchor="middle" x="605" y="-204.3" font-family="Times,serif" font-size="14.00">वहति(9.1)</text>
</g>
<!-- Node11_1&#45;&gt;Node9_1 -->
<g id="edge11" class="edge">
<title>Node11_1&#45;&gt;Node9_1</title>
<path fill="none" stroke="black" d="M464.17,-141.05C482.57,-150.59 505.35,-162.17 526,-172 541.85,-179.55 559.71,-187.5 574.44,-193.92"/>
<polygon fill="black" stroke="black" points="465.74,-137.92 455.26,-136.41 462.51,-144.13 465.74,-137.92"/>
<text text-anchor="middle" x="537" y="-160.8" font-family="Times,serif" font-size="14.00">कर्ता</text>
</g>
<!-- Node2_1 -->
<g id="node5" class="node">
<title>Node2_1</title>
<ellipse fill="#93db70" stroke="#93db70" cx="197" cy="-121" rx="55.49" ry="18"/>
<text text-anchor="middle" x="197" y="-117.3" font-family="Times,serif" font-size="14.00">जननीम्(2.1)</text>
</g>
<!-- Node2_1&#45;&gt;Node1_1 -->
<g id="edge1" class="edge">
<title>Node2_1&#45;&gt;Node1_1</title>
<path fill="none" stroke="black" d="M197,-149.27C197,-162.58 197,-178.19 197,-189.82"/>
<polygon fill="black" stroke="black" points="200.5,-149.2 197,-139.2 193.5,-149.2 200.5,-149.2"/>
<text text-anchor="middle" x="206" y="-160.8" font-family="Times,serif" font-size="14.00">कर्म</text>
</g>
<!-- Node3_1 -->
<g id="node7" class="node">
<title>Node3_1</title>
<ellipse fill="#ff99ff" stroke="#ff99ff" cx="314" cy="-121" rx="44.39" ry="18"/>
<text text-anchor="middle" x="314" y="-117.3" font-family="Times,serif" font-size="14.00">ततः(3.1)</text>
</g>
<!-- Node3_1&#45;&gt;Node1_1 -->
<g id="edge2" class="edge">
<title>Node3_1&#45;&gt;Node1_1</title>
<path fill="none" stroke="black" d="M285.04,-143.04C264.63,-157.87 237.71,-177.43 219.03,-190.99"/>
<polygon fill="black" stroke="black" points="287.32,-145.71 293.35,-137 283.2,-140.05 287.32,-145.71"/>
<text text-anchor="middle" x="281.5" y="-160.8" font-family="Times,serif" font-size="14.00">सम्बन्धः</text>
</g>
<!-- Node5_1 -->
<g id="node8" class="node">
<title>Node5_1</title>
<ellipse fill="#ffff00" stroke="#ffff00" cx="186" cy="-34" rx="46.29" ry="18"/>
<text text-anchor="middle" x="186" y="-30.3" font-family="Times,serif" font-size="14.00">कुरु&#45;(5.1)</text>
</g>
<!-- Node5_1&#45;&gt;Node5_2 -->
<g id="edge4" class="edge">
<title>Node5_1&#45;&gt;Node5_2</title>
<path fill="none" stroke="black" d="M157.61,-56.39C145.73,-65.29 131.73,-75.7 119,-85 110.22,-91.41 100.49,-98.39 92.02,-104.42"/>
<polygon fill="black" stroke="black" points="159.95,-59.01 165.85,-50.21 155.75,-53.41 159.95,-59.01"/>
<text text-anchor="middle" x="157" y="-73.8" font-family="Times,serif" font-size="14.00">समासः</text>
</g>
<!-- Node6_1 -->
<g id="node9" class="node">
<title>Node6_1</title>
<ellipse fill="#ff99ff" stroke="#ff99ff" cx="545" cy="-121" rx="48.99" ry="18"/>
<text text-anchor="middle" x="545" y="-117.3" font-family="Times,serif" font-size="14.00">कथम्(6.1)</text>
</g>
<!-- Node6_1&#45;&gt;Node9_1 -->
<g id="edge6" class="edge">
<title>Node6_1&#45;&gt;Node9_1</title>
<path fill="none" stroke="black" d="M549.9,-149.22C552.14,-157.02 555.37,-165.24 560,-172 565.37,-179.84 573.04,-186.72 580.53,-192.26"/>
<polygon fill="black" stroke="black" points="553.26,-148.23 547.49,-139.35 546.46,-149.9 553.26,-148.23"/>
<text text-anchor="middle" x="595" y="-160.8" font-family="Times,serif" font-size="14.00">क्रियाविशेषणम्</text>
</g>
<!-- Node7_1 -->
<g id="node11" class="node">
<title>Node7_1</title>
<ellipse fill="#ff99ff" stroke="#ff99ff" cx="545" cy="-34" rx="37.09" ry="18"/>
<text text-anchor="middle" x="545" y="-30.3" font-family="Times,serif" font-size="14.00">नु(7.1)</text>
</g>
<!-- Node7_1&#45;&gt;Node6_1 -->
<g id="edge7" class="edge">
<title>Node7_1&#45;&gt;Node6_1</title>
<path fill="none" stroke="black" d="M545,-62.27C545,-75.58 545,-91.19 545,-102.82"/>
<polygon fill="black" stroke="black" points="548.5,-62.2 545,-52.2 541.5,-62.2 548.5,-62.2"/>
<text text-anchor="middle" x="563.5" y="-73.8" font-family="Times,serif" font-size="14.00">सम्बन्धः</text>
</g>
<!-- Node8_1 -->
<g id="node12" class="node">
<title>Node8_1</title>
<ellipse fill="#ffff00" stroke="#ffff00" cx="666" cy="-34" rx="44.69" ry="18"/>
<text text-anchor="middle" x="666" y="-30.3" font-family="Times,serif" font-size="14.00">वृद्ध&#45;(8.1)</text>
</g>
<!-- Node8_2 -->
<g id="node13" class="node">
<title>Node8_2</title>
<ellipse fill="#93db70" stroke="#93db70" cx="666" cy="-121" rx="54.69" ry="18"/>
<text text-anchor="middle" x="666" y="-117.3" font-family="Times,serif" font-size="14.00">मिथुनम्(8.2)</text>
</g>
<!-- Node8_1&#45;&gt;Node8_2 -->
<g id="edge8" class="edge">
<title>Node8_1&#45;&gt;Node8_2</title>
<path fill="none" stroke="black" d="M666,-62.27C666,-75.58 666,-91.19 666,-102.82"/>
<polygon fill="black" stroke="black" points="669.5,-62.2 666,-52.2 662.5,-62.2 669.5,-62.2"/>
<text text-anchor="middle" x="683" y="-73.8" font-family="Times,serif" font-size="14.00">समासः</text>
</g>
<!-- Node8_2&#45;&gt;Node9_1 -->
<g id="edge9" class="edge">
<title>Node8_2&#45;&gt;Node9_1</title>
<path fill="none" stroke="black" d="M648.01,-147.06C637.94,-161.09 625.67,-178.19 616.82,-190.53"/>
<polygon fill="black" stroke="black" points="650.96,-148.96 653.95,-138.79 645.27,-144.88 650.96,-148.96"/>
<text text-anchor="middle" x="648" y="-160.8" font-family="Times,serif" font-size="14.00">कर्म</text>
</g>
<!-- Node10_1 -->
<g id="node14" class="node">
<title>Node10_1</title>
<ellipse fill="#ff99ff" stroke="#ff99ff" cx="788" cy="-121" rx="49.29" ry="18"/>
<text text-anchor="middle" x="788" y="-117.3" font-family="Times,serif" font-size="14.00">अद्य(10.1)</text>
</g>
<!-- Node10_1&#45;&gt;Node9_1 -->
<g id="edge10" class="edge">
<title>Node10_1&#45;&gt;Node9_1</title>
<path fill="none" stroke="black" d="M749.31,-139.97C714.85,-155.98 665.19,-179.04 634.03,-193.52"/>
<polygon fill="black" stroke="black" points="751,-143.04 758.6,-135.66 748.05,-136.7 751,-143.04"/>
<text text-anchor="middle" x="742.5" y="-160.8" font-family="Times,serif" font-size="14.00">कालाधिकरणम्</text>
</g>
</g>
</svg>
