<?xml version="1.0" encoding="UTF-8" standalone="no"?>
<!DOCTYPE svg PUBLIC "-//W3C//DTD SVG 1.1//EN"
 "http://www.w3.org/Graphics/SVG/1.1/DTD/svg11.dtd">
<!-- Generated by graphviz version 2.43.0 (0)
 -->
<!-- Title: G Pages: 1 -->
<svg width="711pt" height="305pt"
 viewBox="0.00 0.00 711.40 305.00" xmlns="http://www.w3.org/2000/svg" xmlns:xlink="http://www.w3.org/1999/xlink">
<g id="graph0" class="graph" transform="scale(1 1) rotate(0) translate(4 301)">
<title>G</title>
<polygon fill="#fffacd" stroke="transparent" points="-4,4 -4,-301 707.4,-301 707.4,4 -4,4"/>
<g id="clust1" class="cluster">
<title>cluster_1</title>
<polygon fill="#fffacd" stroke="black" points="245.4,-79 245.4,-218 367.4,-218 367.4,-79 245.4,-79"/>
</g>
<g id="clust2" class="cluster">
<title>cluster_2</title>
<polygon fill="#fffacd" stroke="black" points="583.4,-79 583.4,-218 695.4,-218 695.4,-79 583.4,-79"/>
</g>
<!-- Node1_2 -->
<g id="node1" class="node">
<title>Node1_2</title>
<ellipse fill="#00bfff" stroke="#00bfff" cx="306.4" cy="-105" rx="52.79" ry="18"/>
<text text-anchor="middle" x="306.4" y="-101.3" font-family="Times,serif" font-size="14.00">नित्याः(1.2)</text>
</g>
<!-- Node4_1 -->
<g id="node2" class="node">
<title>Node4_1</title>
<ellipse fill="#00bfff" stroke="#00bfff" cx="302.4" cy="-192" rx="49.29" ry="18"/>
<text text-anchor="middle" x="302.4" y="-188.3" font-family="Times,serif" font-size="14.00">गतयः(4.1)</text>
</g>
<!-- Node1_2&#45;&gt;Node4_1 -->
<g id="edge2" class="edge">
<title>Node1_2&#45;&gt;Node4_1</title>
<path fill="none" stroke="black" d="M305.11,-133.27C304.49,-146.58 303.75,-162.19 303.2,-173.82"/>
<polygon fill="black" stroke="black" points="308.61,-133.35 305.59,-123.2 301.62,-133.03 308.61,-133.35"/>
<text text-anchor="middle" x="327.9" y="-144.8" font-family="Times,serif" font-size="14.00">विशेषणम्</text>
</g>
<!-- Node12_1 -->
<g id="node8" class="node">
<title>Node12_1</title>
<ellipse fill="lightgrey" stroke="black" cx="195.4" cy="-279" rx="60.39" ry="18"/>
<text text-anchor="middle" x="195.4" y="-275.3" font-family="Times,serif" font-size="14.00">(सन्ति)(12.1)</text>
</g>
<!-- Node4_1&#45;&gt;Node12_1 -->
<g id="edge5" class="edge">
<title>Node4_1&#45;&gt;Node12_1</title>
<path fill="none" stroke="black" d="M274.7,-215C256.22,-229.68 232.33,-248.66 215.62,-261.93"/>
<polygon fill="black" stroke="black" points="277.12,-217.55 282.77,-208.59 272.76,-212.07 277.12,-217.55"/>
<text text-anchor="middle" x="266.4" y="-231.8" font-family="Times,serif" font-size="14.00">कर्ता</text>
</g>
<!-- Node7_2 -->
<g id="node3" class="node">
<title>Node7_2</title>
<ellipse fill="#00bfff" stroke="#00bfff" cx="639.4" cy="-105" rx="45.49" ry="18"/>
<text text-anchor="middle" x="639.4" y="-101.3" font-family="Times,serif" font-size="14.00">सुता(7.2)</text>
</g>
<!-- Node6_1 -->
<g id="node4" class="node">
<title>Node6_1</title>
<ellipse fill="#00bfff" stroke="#00bfff" cx="639.4" cy="-192" rx="48.19" ry="18"/>
<text text-anchor="middle" x="639.4" y="-188.3" font-family="Times,serif" font-size="14.00">कुन्ती(6.1)</text>
</g>
<!-- Node7_2&#45;&gt;Node6_1 -->
<g id="edge10" class="edge">
<title>Node7_2&#45;&gt;Node6_1</title>
<path fill="none" stroke="black" d="M639.4,-133.27C639.4,-146.58 639.4,-162.19 639.4,-173.82"/>
<polygon fill="black" stroke="black" points="642.9,-133.2 639.4,-123.2 635.9,-133.2 642.9,-133.2"/>
<text text-anchor="middle" x="661.9" y="-144.8" font-family="Times,serif" font-size="14.00">विशेषणम्</text>
</g>
<!-- Node9_1 -->
<g id="node11" class="node">
<title>Node9_1</title>
<ellipse fill="#ff1975" stroke="#ff1975" cx="525.4" cy="-279" rx="50.09" ry="18"/>
<text text-anchor="middle" x="525.4" y="-275.3" font-family="Times,serif" font-size="14.00">वसति(9.1)</text>
</g>
<!-- Node6_1&#45;&gt;Node9_1 -->
<g id="edge8" class="edge">
<title>Node6_1&#45;&gt;Node9_1</title>
<path fill="none" stroke="black" d="M620.01,-217.44C612.32,-226.18 603.02,-235.66 593.4,-243 582.2,-251.53 568.62,-259 556.55,-264.82"/>
<polygon fill="black" stroke="black" points="622.77,-219.6 626.58,-209.72 617.43,-215.07 622.77,-219.6"/>
<text text-anchor="middle" x="620.4" y="-231.8" font-family="Times,serif" font-size="14.00">कर्ता</text>
</g>
<!-- Node1_1 -->
<g id="node5" class="node">
<title>Node1_1</title>
<ellipse fill="#ffff00" stroke="#ffff00" cx="254.4" cy="-18" rx="41.69" ry="18"/>
<text text-anchor="middle" x="254.4" y="-14.3" font-family="Times,serif" font-size="14.00">अ&#45;(1.1)</text>
</g>
<!-- Node1_1&#45;&gt;Node1_2 -->
<g id="edge1" class="edge">
<title>Node1_1&#45;&gt;Node1_2</title>
<path fill="none" stroke="black" d="M268.88,-44.6C273.43,-52.48 278.54,-61.15 283.4,-69 287.14,-75.06 291.39,-81.61 295.21,-87.39"/>
<polygon fill="black" stroke="black" points="271.84,-42.74 263.83,-35.8 265.77,-46.22 271.84,-42.74"/>
<text text-anchor="middle" x="309.9" y="-57.8" font-family="Times,serif" font-size="14.00">नञ्तत्पुरुषः</text>
</g>
<!-- Node2_1 -->
<g id="node6" class="node">
<title>Node2_1</title>
<ellipse fill="#ff99ff" stroke="#ff99ff" cx="358.4" cy="-18" rx="44.69" ry="18"/>
<text text-anchor="middle" x="358.4" y="-14.3" font-family="Times,serif" font-size="14.00">खलु(2.1)</text>
</g>
<!-- Node2_1&#45;&gt;Node1_2 -->
<g id="edge3" class="edge">
<title>Node2_1&#45;&gt;Node1_2</title>
<path fill="none" stroke="black" d="M348.37,-45.69C345.01,-53.45 340.94,-61.78 336.4,-69 332.3,-75.5 327.06,-82.05 322.11,-87.69"/>
<polygon fill="black" stroke="black" points="351.67,-46.87 352.24,-36.29 345.2,-44.21 351.67,-46.87"/>
<text text-anchor="middle" x="362.9" y="-57.8" font-family="Times,serif" font-size="14.00">सम्बन्धः</text>
</g>
<!-- Node3_1 -->
<g id="node7" class="node">
<title>Node3_1</title>
<ellipse fill="#87ceeb" stroke="#87ceeb" cx="176.4" cy="-105" rx="59.59" ry="18"/>
<text text-anchor="middle" x="176.4" y="-101.3" font-family="Times,serif" font-size="14.00">मर्त्यानाम्(3.1)</text>
</g>
<!-- Node3_1&#45;&gt;Node4_1 -->
<g id="edge4" class="edge">
<title>Node3_1&#45;&gt;Node4_1</title>
<path fill="none" stroke="black" d="M205.92,-128.16C218.01,-137.03 232.23,-147.21 245.4,-156 255.73,-162.9 267.38,-170.15 277.45,-176.25"/>
<polygon fill="black" stroke="black" points="207.67,-125.09 197.54,-121.97 203.51,-130.72 207.67,-125.09"/>
<text text-anchor="middle" x="272.9" y="-144.8" font-family="Times,serif" font-size="14.00">षष्ठीसम्बन्धः</text>
</g>
<!-- Node5_1 -->
<g id="node9" class="node">
<title>Node5_1</title>
<ellipse fill="#ffff00" stroke="#ffff00" cx="49.4" cy="-105" rx="49.29" ry="18"/>
<text text-anchor="middle" x="49.4" y="-101.3" font-family="Times,serif" font-size="14.00">भरत&#45;(5.1)</text>
</g>
<!-- Node5_2 -->
<g id="node10" class="node">
<title>Node5_2</title>
<ellipse fill="#6fffc3" stroke="#6fffc3" cx="117.4" cy="-192" rx="50.09" ry="18"/>
<text text-anchor="middle" x="117.4" y="-188.3" font-family="Times,serif" font-size="14.00">ऋषभ(5.2)</text>
</g>
<!-- Node5_1&#45;&gt;Node5_2 -->
<g id="edge6" class="edge">
<title>Node5_1&#45;&gt;Node5_2</title>
<path fill="none" stroke="black" d="M68.8,-130.26C80.1,-144.37 94.04,-161.81 104.09,-174.37"/>
<polygon fill="black" stroke="black" points="71.49,-128.01 62.51,-122.39 66.02,-132.38 71.49,-128.01"/>
<text text-anchor="middle" x="105.4" y="-144.8" font-family="Times,serif" font-size="14.00">समासः</text>
</g>
<!-- Node5_2&#45;&gt;Node12_1 -->
<g id="edge7" class="edge">
<title>Node5_2&#45;&gt;Node12_1</title>
<path fill="none" stroke="black" d="M139.29,-216.86C152.31,-231.05 168.5,-248.69 180.14,-261.37"/>
<polygon fill="black" stroke="black" points="141.77,-214.39 132.43,-209.39 136.62,-219.12 141.77,-214.39"/>
<text text-anchor="middle" x="182.4" y="-231.8" font-family="Times,serif" font-size="14.00">सम्बोध्यः</text>
</g>
<!-- Node7_1 -->
<g id="node12" class="node">
<title>Node7_1</title>
<ellipse fill="#ffff00" stroke="#ffff00" cx="639.4" cy="-18" rx="46.59" ry="18"/>
<text text-anchor="middle" x="639.4" y="-14.3" font-family="Times,serif" font-size="14.00">राज&#45;(7.1)</text>
</g>
<!-- Node7_1&#45;&gt;Node7_2 -->
<g id="edge9" class="edge">
<title>Node7_1&#45;&gt;Node7_2</title>
<path fill="none" stroke="black" d="M639.4,-46.27C639.4,-59.58 639.4,-75.19 639.4,-86.82"/>
<polygon fill="black" stroke="black" points="642.9,-46.2 639.4,-36.2 635.9,-46.2 642.9,-46.2"/>
<text text-anchor="middle" x="668.4" y="-57.8" font-family="Times,serif" font-size="14.00">षष्ठीतत्पुरुषः</text>
</g>
<!-- Node8_1 -->
<g id="node13" class="node">
<title>Node8_1</title>
<ellipse fill="#ff99ff" stroke="#ff99ff" cx="417.4" cy="-192" rx="42.49" ry="18"/>
<text text-anchor="middle" x="417.4" y="-188.3" font-family="Times,serif" font-size="14.00">यत्र(8.1)</text>
</g>
<!-- Node8_1&#45;&gt;Node9_1 -->
<g id="edge11" class="edge">
<title>Node8_1&#45;&gt;Node9_1</title>
<path fill="none" stroke="black" d="M434.17,-218.1C440.73,-226.7 448.75,-235.93 457.4,-243 468.19,-251.83 481.56,-259.3 493.59,-265.05"/>
<polygon fill="black" stroke="black" points="436.85,-215.84 428.14,-209.82 431.19,-219.96 436.85,-215.84"/>
<text text-anchor="middle" x="489.4" y="-231.8" font-family="Times,serif" font-size="14.00">देशाधिकरणम्</text>
</g>
<!-- Node10_1 -->
<g id="node14" class="node">
<title>Node10_1</title>
<ellipse fill="#00bfff" stroke="#00bfff" cx="508.4" cy="-105" rx="66.89" ry="18"/>
<text text-anchor="middle" x="508.4" y="-101.3" font-family="Times,serif" font-size="14.00">असुखिता(10.1)</text>
</g>
<!-- Node10_1&#45;&gt;Node6_1 -->
<g id="edge12" class="edge">
<title>Node10_1&#45;&gt;Node6_1</title>
<path fill="none" stroke="black" d="M528.75,-130.5C536.99,-139.35 547,-148.89 557.4,-156 571.71,-165.78 589.19,-173.7 604.33,-179.52"/>
<polygon fill="black" stroke="black" points="531.3,-128.09 522.01,-122.98 526.08,-132.76 531.3,-128.09"/>
<text text-anchor="middle" x="596.4" y="-144.8" font-family="Times,serif" font-size="14.00">विधेय_विशेषणम्</text>
</g>
<!-- Node11_1 -->
<g id="node15" class="node">
<title>Node11_1</title>
<ellipse fill="#c6e2eb" stroke="#c6e2eb" cx="525.4" cy="-192" rx="47.39" ry="18"/>
<text text-anchor="middle" x="525.4" y="-188.3" font-family="Times,serif" font-size="14.00">वने(11.1)</text>
</g>
<!-- Node11_1&#45;&gt;Node9_1 -->
<g id="edge13" class="edge">
<title>Node11_1&#45;&gt;Node9_1</title>
<path fill="none" stroke="black" d="M525.4,-220.27C525.4,-233.58 525.4,-249.19 525.4,-260.82"/>
<polygon fill="black" stroke="black" points="528.9,-220.2 525.4,-210.2 521.9,-220.2 528.9,-220.2"/>
<text text-anchor="middle" x="557.4" y="-231.8" font-family="Times,serif" font-size="14.00">देशाधिकरणम्</text>
</g>
</g>
</svg>
