<?xml version="1.0" encoding="UTF-8" standalone="no"?>
<!DOCTYPE svg PUBLIC "-//W3C//DTD SVG 1.1//EN"
 "http://www.w3.org/Graphics/SVG/1.1/DTD/svg11.dtd">
<!-- Generated by graphviz version 2.43.0 (0)
 -->
<!-- Title: G Pages: 1 -->
<svg width="841pt" height="321pt"
 viewBox="0.00 0.00 841.24 321.00" xmlns="http://www.w3.org/2000/svg" xmlns:xlink="http://www.w3.org/1999/xlink">
<g id="graph0" class="graph" transform="scale(1 1) rotate(0) translate(4 317)">
<title>G</title>
<polygon fill="#fffacd" stroke="transparent" points="-4,4 -4,-317 837.24,-317 837.24,4 -4,4"/>
<g id="clust1" class="cluster">
<title>cluster_1</title>
<polygon fill="#fffacd" stroke="black" points="233.54,-8 233.54,-147 451.54,-147 451.54,-8 233.54,-8"/>
</g>
<!-- Node1_1 -->
<g id="node1" class="node">
<title>Node1_1</title>
<ellipse fill="#00bfff" stroke="#00bfff" cx="403.54" cy="-34" rx="39.79" ry="18"/>
<text text-anchor="middle" x="403.54" y="-30.3" font-family="Times,serif" font-size="14.00">यः(1.1)</text>
</g>
<!-- Node3_2 -->
<g id="node2" class="node">
<title>Node3_2</title>
<ellipse fill="#00bfff" stroke="#00bfff" cx="289.54" cy="-121" rx="45.49" ry="18"/>
<text text-anchor="middle" x="289.54" y="-117.3" font-family="Times,serif" font-size="14.00">जनः(3.2)</text>
</g>
<!-- Node1_1&#45;&gt;Node3_2 -->
<g id="edge1" class="edge">
<title>Node1_1&#45;&gt;Node3_2</title>
<path fill="none" stroke="black" d="M377.25,-56.54C366.07,-65.52 352.81,-75.94 340.54,-85 331.3,-91.83 320.88,-99.06 311.87,-105.17"/>
<polygon fill="black" stroke="black" points="379.76,-59.01 385.34,-50 375.36,-53.56 379.76,-59.01"/>
<text text-anchor="middle" x="382.04" y="-73.8" font-family="Times,serif" font-size="14.00">विशेषणम्</text>
</g>
<!-- Node6_1 -->
<g id="node5" class="node">
<title>Node6_1</title>
<ellipse fill="#ff1975" stroke="#ff1975" cx="178.54" cy="-208" rx="52.79" ry="18"/>
<text text-anchor="middle" x="178.54" y="-204.3" font-family="Times,serif" font-size="14.00">इच्छति(6.1)</text>
</g>
<!-- Node3_2&#45;&gt;Node6_1 -->
<g id="edge4" class="edge">
<title>Node3_2&#45;&gt;Node6_1</title>
<path fill="none" stroke="black" d="M261.29,-143.64C241.95,-158.45 216.74,-177.75 199.25,-191.15"/>
<polygon fill="black" stroke="black" points="263.63,-146.25 269.44,-137.39 259.38,-140.69 263.63,-146.25"/>
<text text-anchor="middle" x="251.54" y="-160.8" font-family="Times,serif" font-size="14.00">कर्ता</text>
</g>
<!-- Node4_1 -->
<g id="node3" class="node">
<title>Node4_1</title>
<ellipse fill="#00bfff" stroke="#00bfff" cx="293.54" cy="-34" rx="51.99" ry="18"/>
<text text-anchor="middle" x="293.54" y="-30.3" font-family="Times,serif" font-size="14.00">कश्चित्(4.1)</text>
</g>
<!-- Node4_1&#45;&gt;Node3_2 -->
<g id="edge5" class="edge">
<title>Node4_1&#45;&gt;Node3_2</title>
<path fill="none" stroke="black" d="M292.26,-62.27C291.64,-75.58 290.9,-91.19 290.35,-102.82"/>
<polygon fill="black" stroke="black" points="295.76,-62.35 292.74,-52.2 288.77,-62.03 295.76,-62.35"/>
<text text-anchor="middle" x="314.04" y="-73.8" font-family="Times,serif" font-size="14.00">विशेषणम्</text>
</g>
<!-- Node2_1 -->
<g id="node4" class="node">
<title>Node2_1</title>
<ellipse fill="#ff99ff" stroke="#ff99ff" cx="178.54" cy="-121" rx="37.89" ry="18"/>
<text text-anchor="middle" x="178.54" y="-117.3" font-family="Times,serif" font-size="14.00">च(2.1)</text>
</g>
<!-- Node2_1&#45;&gt;Node6_1 -->
<g id="edge2" class="edge">
<title>Node2_1&#45;&gt;Node6_1</title>
<path fill="none" stroke="black" d="M178.54,-149.27C178.54,-162.58 178.54,-178.19 178.54,-189.82"/>
<polygon fill="black" stroke="black" points="182.05,-149.2 178.54,-139.2 175.05,-149.2 182.05,-149.2"/>
<text text-anchor="middle" x="197.04" y="-160.8" font-family="Times,serif" font-size="14.00">सम्बन्धः</text>
</g>
<!-- Node3_1 -->
<g id="node6" class="node">
<title>Node3_1</title>
<ellipse fill="#ffff00" stroke="#ffff00" cx="177.54" cy="-34" rx="46.29" ry="18"/>
<text text-anchor="middle" x="177.54" y="-30.3" font-family="Times,serif" font-size="14.00">पौर&#45;(3.1)</text>
</g>
<!-- Node3_1&#45;&gt;Node3_2 -->
<g id="edge3" class="edge">
<title>Node3_1&#45;&gt;Node3_2</title>
<path fill="none" stroke="black" d="M205.9,-56.52C225.72,-71.56 251.7,-91.28 269.41,-104.72"/>
<polygon fill="black" stroke="black" points="207.91,-53.65 197.83,-50.39 203.68,-59.23 207.91,-53.65"/>
<text text-anchor="middle" x="256.54" y="-73.8" font-family="Times,serif" font-size="14.00">समासः</text>
</g>
<!-- Node5_1 -->
<g id="node7" class="node">
<title>Node5_1</title>
<ellipse fill="#ff99ff" stroke="#ff99ff" cx="69.54" cy="-121" rx="46.29" ry="18"/>
<text text-anchor="middle" x="69.54" y="-117.3" font-family="Times,serif" font-size="14.00">द्रष्टुम्(5.1)</text>
</g>
<!-- Node5_1&#45;&gt;Node6_1 -->
<g id="edge6" class="edge">
<title>Node5_1&#45;&gt;Node6_1</title>
<path fill="none" stroke="black" d="M97.29,-143.64C116.29,-158.45 141.04,-177.75 158.21,-191.15"/>
<polygon fill="black" stroke="black" points="99.32,-140.78 89.28,-137.39 95.02,-146.3 99.32,-140.78"/>
<text text-anchor="middle" x="140.54" y="-160.8" font-family="Times,serif" font-size="14.00">कर्म</text>
</g>
<!-- Node7_1 -->
<g id="node8" class="node">
<title>Node7_1</title>
<ellipse fill="#93db70" stroke="#93db70" cx="56.54" cy="-34" rx="56.59" ry="18"/>
<text text-anchor="middle" x="56.54" y="-30.3" font-family="Times,serif" font-size="14.00">पार्थिवम्(7.1)</text>
</g>
<!-- Node7_1&#45;&gt;Node5_1 -->
<g id="edge7" class="edge">
<title>Node7_1&#45;&gt;Node5_1</title>
<path fill="none" stroke="black" d="M60.72,-62.27C62.75,-75.58 65.14,-91.19 66.92,-102.82"/>
<polygon fill="black" stroke="black" points="64.15,-61.56 59.18,-52.2 57.23,-62.62 64.15,-61.56"/>
<text text-anchor="middle" x="73.54" y="-73.8" font-family="Times,serif" font-size="14.00">कर्म</text>
</g>
<!-- Node8_1 -->
<g id="node9" class="node">
<title>Node8_1</title>
<ellipse fill="#ffff00" stroke="#ffff00" cx="511.54" cy="-34" rx="46.29" ry="18"/>
<text text-anchor="middle" x="511.54" y="-30.3" font-family="Times,serif" font-size="14.00">अन्&#45;(8.1)</text>
</g>
<!-- Node8_2 -->
<g id="node10" class="node">
<title>Node8_2</title>
<ellipse fill="#00bfff" stroke="#00bfff" cx="511.54" cy="-121" rx="51.99" ry="18"/>
<text text-anchor="middle" x="511.54" y="-117.3" font-family="Times,serif" font-size="14.00">आवृतः(8.2)</text>
</g>
<!-- Node8_1&#45;&gt;Node8_2 -->
<g id="edge8" class="edge">
<title>Node8_1&#45;&gt;Node8_2</title>
<path fill="none" stroke="black" d="M511.54,-62.27C511.54,-75.58 511.54,-91.19 511.54,-102.82"/>
<polygon fill="black" stroke="black" points="515.05,-62.2 511.54,-52.2 508.05,-62.2 515.05,-62.2"/>
<text text-anchor="middle" x="535.54" y="-73.8" font-family="Times,serif" font-size="14.00">नञ्समासः</text>
</g>
<!-- Node10_1 -->
<g id="node11" class="node">
<title>Node10_1</title>
<ellipse fill="#00bfff" stroke="#00bfff" cx="634.54" cy="-208" rx="46.29" ry="18"/>
<text text-anchor="middle" x="634.54" y="-204.3" font-family="Times,serif" font-size="14.00">सः(10.1)</text>
</g>
<!-- Node8_2&#45;&gt;Node10_1 -->
<g id="edge9" class="edge">
<title>Node8_2&#45;&gt;Node10_1</title>
<path fill="none" stroke="black" d="M528.35,-147.17C535.09,-155.88 543.43,-165.16 552.54,-172 566.54,-182.5 584.15,-190.55 599.47,-196.26"/>
<polygon fill="black" stroke="black" points="531.15,-145.07 522.41,-139.09 525.52,-149.22 531.15,-145.07"/>
<text text-anchor="middle" x="591.54" y="-160.8" font-family="Times,serif" font-size="14.00">विधेय_विशेषणम्</text>
</g>
<!-- Node12_1 -->
<g id="node14" class="node">
<title>Node12_1</title>
<ellipse fill="#ff1975" stroke="#ff1975" cx="688.54" cy="-295" rx="50.09" ry="18"/>
<text text-anchor="middle" x="688.54" y="-291.3" font-family="Times,serif" font-size="14.00">यातु(12.1)</text>
</g>
<!-- Node10_1&#45;&gt;Node12_1 -->
<g id="edge12" class="edge">
<title>Node10_1&#45;&gt;Node12_1</title>
<path fill="none" stroke="black" d="M650.68,-234.4C659.49,-248.26 670.14,-265.03 677.9,-277.24"/>
<polygon fill="black" stroke="black" points="653.53,-232.36 645.21,-225.79 647.62,-236.11 653.53,-232.36"/>
<text text-anchor="middle" x="675.54" y="-247.8" font-family="Times,serif" font-size="14.00">कर्ता</text>
</g>
<!-- Node9_1 -->
<g id="node12" class="node">
<title>Node9_1</title>
<ellipse fill="#ffff00" stroke="#ffff00" cx="634.54" cy="-34" rx="40.89" ry="18"/>
<text text-anchor="middle" x="634.54" y="-30.3" font-family="Times,serif" font-size="14.00">सु&#45;(9.1)</text>
</g>
<!-- Node9_2 -->
<g id="node13" class="node">
<title>Node9_2</title>
<ellipse fill="#00bfff" stroke="#00bfff" cx="634.54" cy="-121" rx="53.09" ry="18"/>
<text text-anchor="middle" x="634.54" y="-117.3" font-family="Times,serif" font-size="14.00">विहितः(9.2)</text>
</g>
<!-- Node9_1&#45;&gt;Node9_2 -->
<g id="edge10" class="edge">
<title>Node9_1&#45;&gt;Node9_2</title>
<path fill="none" stroke="black" d="M634.54,-62.27C634.54,-75.58 634.54,-91.19 634.54,-102.82"/>
<polygon fill="black" stroke="black" points="638.05,-62.2 634.54,-52.2 631.05,-62.2 638.05,-62.2"/>
<text text-anchor="middle" x="651.54" y="-73.8" font-family="Times,serif" font-size="14.00">समासः</text>
</g>
<!-- Node9_2&#45;&gt;Node10_1 -->
<g id="edge11" class="edge">
<title>Node9_2&#45;&gt;Node10_1</title>
<path fill="none" stroke="black" d="M634.54,-149.27C634.54,-162.58 634.54,-178.19 634.54,-189.82"/>
<polygon fill="black" stroke="black" points="638.05,-149.2 634.54,-139.2 631.05,-149.2 638.05,-149.2"/>
<text text-anchor="middle" x="673.54" y="-160.8" font-family="Times,serif" font-size="14.00">विधेय_विशेषणम्</text>
</g>
<!-- Node11_1 -->
<g id="node15" class="node">
<title>Node11_1</title>
<ellipse fill="#ff99ff" stroke="#ff99ff" cx="742.54" cy="-208" rx="43.59" ry="18"/>
<text text-anchor="middle" x="742.54" y="-204.3" font-family="Times,serif" font-size="14.00">च(11.1)</text>
</g>
<!-- Node11_1&#45;&gt;Node12_1 -->
<g id="edge13" class="edge">
<title>Node11_1&#45;&gt;Node12_1</title>
<path fill="none" stroke="black" d="M726.41,-234.4C717.6,-248.26 706.95,-265.03 699.19,-277.24"/>
<polygon fill="black" stroke="black" points="729.47,-236.11 731.88,-225.79 723.56,-232.36 729.47,-236.11"/>
<text text-anchor="middle" x="735.04" y="-247.8" font-family="Times,serif" font-size="14.00">सम्बन्ध</text>
</g>
<!-- Node13_1 -->
<g id="node16" class="node">
<title>Node13_1</title>
<ellipse fill="lightgrey" stroke="black" cx="769.54" cy="-121" rx="63.89" ry="18"/>
<text text-anchor="middle" x="769.54" y="-117.3" font-family="Times,serif" font-size="14.00">सुरक्षितः(13.1)</text>
</g>
<!-- Node13_1&#45;&gt;Node10_1 -->
<g id="edge14" class="edge">
<title>Node13_1&#45;&gt;Node10_1</title>
<path fill="none" stroke="black" d="M747.5,-146.15C738.5,-155.06 727.62,-164.74 716.54,-172 701.78,-181.67 683.91,-189.67 668.62,-195.56"/>
<polygon fill="black" stroke="black" points="750.08,-148.51 754.57,-138.92 745.07,-143.62 750.08,-148.51"/>
<text text-anchor="middle" x="773.54" y="-160.8" font-family="Times,serif" font-size="14.00">विधेय_विशेषणम्</text>
</g>
</g>
</svg>
