<?xml version="1.0" encoding="UTF-8" standalone="no"?>
<!DOCTYPE svg PUBLIC "-//W3C//DTD SVG 1.1//EN"
 "http://www.w3.org/Graphics/SVG/1.1/DTD/svg11.dtd">
<!-- Generated by graphviz version 2.43.0 (0)
 -->
<!-- Title: G Pages: 1 -->
<svg width="740pt" height="408pt"
 viewBox="0.00 0.00 740.19 408.00" xmlns="http://www.w3.org/2000/svg" xmlns:xlink="http://www.w3.org/1999/xlink">
<g id="graph0" class="graph" transform="scale(1 1) rotate(0) translate(4 404)">
<title>G</title>
<polygon fill="#fffacd" stroke="transparent" points="-4,4 -4,-404 736.19,-404 736.19,4 -4,4"/>
<g id="clust1" class="cluster">
<title>cluster_1</title>
<polygon fill="#fffacd" stroke="black" points="8,-8 8,-147 120,-147 120,-8 8,-8"/>
</g>
<g id="clust2" class="cluster">
<title>cluster_2</title>
<polygon fill="#fffacd" stroke="black" points="289,-182 289,-321 395,-321 395,-182 289,-182"/>
</g>
<!-- Node3_1 -->
<g id="node1" class="node">
<title>Node3_1</title>
<ellipse fill="#93db70" stroke="#93db70" cx="64" cy="-34" rx="44.39" ry="18"/>
<text text-anchor="middle" x="64" y="-30.3" font-family="Times,serif" font-size="14.00">ताम्(3.1)</text>
</g>
<!-- Node4_1 -->
<g id="node2" class="node">
<title>Node4_1</title>
<ellipse fill="#93db70" stroke="#93db70" cx="64" cy="-121" rx="48.19" ry="18"/>
<text text-anchor="middle" x="64" y="-117.3" font-family="Times,serif" font-size="14.00">देवीम्(4.1)</text>
</g>
<!-- Node3_1&#45;&gt;Node4_1 -->
<g id="edge2" class="edge">
<title>Node3_1&#45;&gt;Node4_1</title>
<path fill="none" stroke="black" d="M64,-62.27C64,-75.58 64,-91.19 64,-102.82"/>
<polygon fill="black" stroke="black" points="67.5,-62.2 64,-52.2 60.5,-62.2 67.5,-62.2"/>
<text text-anchor="middle" x="86.5" y="-73.8" font-family="Times,serif" font-size="14.00">विशेषणम्</text>
</g>
<!-- Node2_1 -->
<g id="node6" class="node">
<title>Node2_1</title>
<ellipse fill="#ff1975" stroke="#ff1975" cx="156" cy="-208" rx="55.79" ry="18"/>
<text text-anchor="middle" x="156" y="-204.3" font-family="Times,serif" font-size="14.00">द्रक्ष्यामि(2.1)</text>
</g>
<!-- Node4_1&#45;&gt;Node2_1 -->
<g id="edge3" class="edge">
<title>Node4_1&#45;&gt;Node2_1</title>
<path fill="none" stroke="black" d="M89.06,-145.16C104.71,-159.62 124.48,-177.88 138.46,-190.79"/>
<polygon fill="black" stroke="black" points="91.02,-142.2 81.3,-137.99 86.27,-147.34 91.02,-142.2"/>
<text text-anchor="middle" x="125" y="-160.8" font-family="Times,serif" font-size="14.00">कर्म</text>
</g>
<!-- Node7_1 -->
<g id="node3" class="node">
<title>Node7_1</title>
<ellipse fill="#00bfff" stroke="#00bfff" cx="342" cy="-208" rx="40.09" ry="18"/>
<text text-anchor="middle" x="342" y="-204.3" font-family="Times,serif" font-size="14.00">सा(7.1)</text>
</g>
<!-- Node8_1 -->
<g id="node4" class="node">
<title>Node8_1</title>
<ellipse fill="#00bfff" stroke="#00bfff" cx="342" cy="-295" rx="44.69" ry="18"/>
<text text-anchor="middle" x="342" y="-291.3" font-family="Times,serif" font-size="14.00">पृथा(8.1)</text>
</g>
<!-- Node7_1&#45;&gt;Node8_1 -->
<g id="edge5" class="edge">
<title>Node7_1&#45;&gt;Node8_1</title>
<path fill="none" stroke="black" d="M342,-236.27C342,-249.58 342,-265.19 342,-276.82"/>
<polygon fill="black" stroke="black" points="345.5,-236.2 342,-226.2 338.5,-236.2 345.5,-236.2"/>
<text text-anchor="middle" x="364.5" y="-247.8" font-family="Times,serif" font-size="14.00">विशेषणम्</text>
</g>
<!-- Node6_1 -->
<g id="node8" class="node">
<title>Node6_1</title>
<ellipse fill="#ff1975" stroke="#ff1975" cx="400" cy="-382" rx="51.99" ry="18"/>
<text text-anchor="middle" x="400" y="-378.3" font-family="Times,serif" font-size="14.00">जीवति(6.1)</text>
</g>
<!-- Node8_1&#45;&gt;Node6_1 -->
<g id="edge6" class="edge">
<title>Node8_1&#45;&gt;Node6_1</title>
<path fill="none" stroke="black" d="M359.33,-321.4C368.79,-335.26 380.23,-352.03 388.56,-364.24"/>
<polygon fill="black" stroke="black" points="361.99,-319.08 353.46,-312.79 356.2,-323.03 361.99,-319.08"/>
<text text-anchor="middle" x="385" y="-334.8" font-family="Times,serif" font-size="14.00">कर्ता</text>
</g>
<!-- Node1_1 -->
<g id="node5" class="node">
<title>Node1_1</title>
<ellipse fill="#ff99ff" stroke="#ff99ff" cx="176" cy="-121" rx="45.49" ry="18"/>
<text text-anchor="middle" x="176" y="-117.3" font-family="Times,serif" font-size="14.00">कदा(1.1)</text>
</g>
<!-- Node1_1&#45;&gt;Node2_1 -->
<g id="edge1" class="edge">
<title>Node1_1&#45;&gt;Node2_1</title>
<path fill="none" stroke="black" d="M169.58,-149.27C166.45,-162.58 162.78,-178.19 160.04,-189.82"/>
<polygon fill="black" stroke="black" points="173.07,-149.74 171.95,-139.2 166.26,-148.13 173.07,-149.74"/>
<text text-anchor="middle" x="203.5" y="-160.8" font-family="Times,serif" font-size="14.00">कालाधिकरणम्</text>
</g>
<!-- Node5_1 -->
<g id="node7" class="node">
<title>Node5_1</title>
<ellipse fill="#ff99ff" stroke="#ff99ff" cx="459" cy="-295" rx="44.39" ry="18"/>
<text text-anchor="middle" x="459" y="-291.3" font-family="Times,serif" font-size="14.00">यदि(5.1)</text>
</g>
<!-- Node5_1&#45;&gt;Node6_1 -->
<g id="edge4" class="edge">
<title>Node5_1&#45;&gt;Node6_1</title>
<path fill="none" stroke="black" d="M441.37,-321.4C431.75,-335.26 420.11,-352.03 411.63,-364.24"/>
<polygon fill="black" stroke="black" points="444.52,-323 447.34,-312.79 438.77,-319.01 444.52,-323"/>
<text text-anchor="middle" x="454" y="-334.8" font-family="Times,serif" font-size="14.00">प्रतियोगी</text>
</g>
<!-- Node9_1 -->
<g id="node9" class="node">
<title>Node9_1</title>
<ellipse fill="#40e0d0" stroke="#40e0d0" cx="297" cy="-121" rx="57.69" ry="18"/>
<text text-anchor="middle" x="297" y="-117.3" font-family="Times,serif" font-size="14.00">जीवन्त्या(9.1)</text>
</g>
<!-- Node14_1 -->
<g id="node10" class="node">
<title>Node14_1</title>
<ellipse fill="#ff1975" stroke="#ff1975" cx="469" cy="-208" rx="65.79" ry="18"/>
<text text-anchor="middle" x="469" y="-204.3" font-family="Times,serif" font-size="14.00">भविष्यति(14.1)</text>
</g>
<!-- Node9_1&#45;&gt;Node14_1 -->
<g id="edge7" class="edge">
<title>Node9_1&#45;&gt;Node14_1</title>
<path fill="none" stroke="black" d="M333.87,-141.73C351.64,-151.11 373.32,-162.35 393,-172 407.09,-178.91 422.81,-186.22 436.29,-192.36"/>
<polygon fill="black" stroke="black" points="335.44,-138.61 324.96,-137.02 332.16,-144.79 335.44,-138.61"/>
<text text-anchor="middle" x="409.5" y="-160.8" font-family="Times,serif" font-size="14.00">करणम्</text>
</g>
<!-- Node14_1&#45;&gt;Node5_1 -->
<g id="edge12" class="edge">
<title>Node14_1&#45;&gt;Node5_1</title>
<path fill="none" stroke="black" stroke-dasharray="1,5" d="M465.79,-236.27C464.23,-249.58 462.39,-265.19 461.02,-276.82"/>
<polygon fill="black" stroke="black" points="469.28,-236.54 466.98,-226.2 462.33,-235.72 469.28,-236.54"/>
<text text-anchor="middle" x="484" y="-247.8" font-family="Times,serif" font-size="14.00">अनुयोगी</text>
</g>
<!-- Node10_1 -->
<g id="node11" class="node">
<title>Node10_1</title>
<ellipse fill="#ff99ff" stroke="#ff99ff" cx="297" cy="-34" rx="44.69" ry="18"/>
<text text-anchor="middle" x="297" y="-30.3" font-family="Times,serif" font-size="14.00">हि(10.1)</text>
</g>
<!-- Node10_1&#45;&gt;Node9_1 -->
<g id="edge8" class="edge">
<title>Node10_1&#45;&gt;Node9_1</title>
<path fill="none" stroke="black" d="M297,-62.27C297,-75.58 297,-91.19 297,-102.82"/>
<polygon fill="black" stroke="black" points="300.5,-62.2 297,-52.2 293.5,-62.2 300.5,-62.2"/>
<text text-anchor="middle" x="315.5" y="-73.8" font-family="Times,serif" font-size="14.00">सम्बन्धः</text>
</g>
<!-- Node11_1 -->
<g id="node12" class="node">
<title>Node11_1</title>
<ellipse fill="#ff99ff" stroke="#ff99ff" cx="422" cy="-121" rx="49.29" ry="18"/>
<text text-anchor="middle" x="422" y="-117.3" font-family="Times,serif" font-size="14.00">अद्य(11.1)</text>
</g>
<!-- Node11_1&#45;&gt;Node14_1 -->
<g id="edge9" class="edge">
<title>Node11_1&#45;&gt;Node14_1</title>
<path fill="none" stroke="black" d="M427.64,-148.76C429.9,-156.55 432.96,-164.87 437,-172 440.74,-178.59 445.92,-184.96 451.03,-190.42"/>
<polygon fill="black" stroke="black" points="431,-147.77 425.1,-138.97 424.22,-149.53 431,-147.77"/>
<text text-anchor="middle" x="472.5" y="-160.8" font-family="Times,serif" font-size="14.00">कालाधिकरणम्</text>
</g>
<!-- Node12_1 -->
<g id="node13" class="node">
<title>Node12_1</title>
<ellipse fill="#87ceeb" stroke="#87ceeb" cx="545" cy="-34" rx="45.49" ry="18"/>
<text text-anchor="middle" x="545" y="-30.3" font-family="Times,serif" font-size="14.00">नः(12.1)</text>
</g>
<!-- Node13_1 -->
<g id="node14" class="node">
<title>Node13_1</title>
<ellipse fill="#00bfff" stroke="#00bfff" cx="545" cy="-121" rx="55.49" ry="18"/>
<text text-anchor="middle" x="545" y="-117.3" font-family="Times,serif" font-size="14.00">प्रीतिः(13.1)</text>
</g>
<!-- Node12_1&#45;&gt;Node13_1 -->
<g id="edge10" class="edge">
<title>Node12_1&#45;&gt;Node13_1</title>
<path fill="none" stroke="black" d="M545,-62.27C545,-75.58 545,-91.19 545,-102.82"/>
<polygon fill="black" stroke="black" points="548.5,-62.2 545,-52.2 541.5,-62.2 548.5,-62.2"/>
<text text-anchor="middle" x="572.5" y="-73.8" font-family="Times,serif" font-size="14.00">षष्ठीसम्बन्धः</text>
</g>
<!-- Node13_1&#45;&gt;Node14_1 -->
<g id="edge11" class="edge">
<title>Node13_1&#45;&gt;Node14_1</title>
<path fill="none" stroke="black" d="M527.97,-147.07C521.99,-155.29 515.01,-164.29 508,-172 502.12,-178.46 495.17,-185 488.77,-190.64"/>
<polygon fill="black" stroke="black" points="530.86,-149.05 533.8,-138.87 525.15,-144.99 530.86,-149.05"/>
<text text-anchor="middle" x="531" y="-160.8" font-family="Times,serif" font-size="14.00">कर्ता</text>
</g>
<!-- Node15_1 -->
<g id="node15" class="node">
<title>Node15_1</title>
<ellipse fill="#ffff00" stroke="#ffff00" cx="675" cy="-34" rx="51.99" ry="18"/>
<text text-anchor="middle" x="675" y="-30.3" font-family="Times,serif" font-size="14.00">जन&#45;(15.1)</text>
</g>
<!-- Node15_2 -->
<g id="node16" class="node">
<title>Node15_2</title>
<ellipse fill="#6fffc3" stroke="#6fffc3" cx="675" cy="-121" rx="57.39" ry="18"/>
<text text-anchor="middle" x="675" y="-117.3" font-family="Times,serif" font-size="14.00">अधिप(15.2)</text>
</g>
<!-- Node15_1&#45;&gt;Node15_2 -->
<g id="edge13" class="edge">
<title>Node15_1&#45;&gt;Node15_2</title>
<path fill="none" stroke="black" d="M675,-62.27C675,-75.58 675,-91.19 675,-102.82"/>
<polygon fill="black" stroke="black" points="678.5,-62.2 675,-52.2 671.5,-62.2 678.5,-62.2"/>
<text text-anchor="middle" x="692" y="-73.8" font-family="Times,serif" font-size="14.00">समासः</text>
</g>
<!-- Node15_2&#45;&gt;Node14_1 -->
<g id="edge14" class="edge">
<title>Node15_2&#45;&gt;Node14_1</title>
<path fill="none" stroke="black" d="M632.17,-139.67C594.16,-155.36 539.32,-177.98 503.92,-192.59"/>
<polygon fill="black" stroke="black" points="633.54,-142.9 641.44,-135.85 630.87,-136.42 633.54,-142.9"/>
<text text-anchor="middle" x="605" y="-160.8" font-family="Times,serif" font-size="14.00">सम्बोध्यः</text>
</g>
</g>
</svg>
