<?xml version="1.0" encoding="UTF-8" standalone="no"?>
<!DOCTYPE svg PUBLIC "-//W3C//DTD SVG 1.1//EN"
 "http://www.w3.org/Graphics/SVG/1.1/DTD/svg11.dtd">
<!-- Generated by graphviz version 2.43.0 (0)
 -->
<!-- Title: G Pages: 1 -->
<svg width="691pt" height="392pt"
 viewBox="0.00 0.00 690.95 392.00" xmlns="http://www.w3.org/2000/svg" xmlns:xlink="http://www.w3.org/1999/xlink">
<g id="graph0" class="graph" transform="scale(1 1) rotate(0) translate(4 388)">
<title>G</title>
<polygon fill="#fffacd" stroke="transparent" points="-4,4 -4,-388 686.95,-388 686.95,4 -4,4"/>
<g id="clust1" class="cluster">
<title>cluster_1</title>
<polygon fill="#fffacd" stroke="black" points="330.95,-166 330.95,-305 674.95,-305 674.95,-166 330.95,-166"/>
</g>
<!-- Node1_1 -->
<g id="node1" class="node">
<title>Node1_1</title>
<ellipse fill="#00bfff" stroke="#00bfff" cx="629.95" cy="-192" rx="37.09" ry="18"/>
<text text-anchor="middle" x="629.95" y="-188.3" font-family="Times,serif" font-size="14.00">ते(1.1)</text>
</g>
<!-- Node3_1 -->
<g id="node2" class="node">
<title>Node3_1</title>
<ellipse fill="#00bfff" stroke="#00bfff" cx="387.95" cy="-279" rx="47.39" ry="18"/>
<text text-anchor="middle" x="387.95" y="-275.3" font-family="Times,serif" font-size="14.00">वीराः(3.1)</text>
</g>
<!-- Node1_1&#45;&gt;Node3_1 -->
<g id="edge1" class="edge">
<title>Node1_1&#45;&gt;Node3_1</title>
<path fill="none" stroke="black" d="M594.46,-208.87C570.56,-219.27 538.17,-232.77 508.95,-243 481.49,-252.61 449.91,-261.68 425.89,-268.18"/>
<polygon fill="black" stroke="black" points="596.08,-211.99 603.83,-204.77 593.27,-205.58 596.08,-211.99"/>
<text text-anchor="middle" x="568.45" y="-231.8" font-family="Times,serif" font-size="14.00">विशेषणम्</text>
</g>
<!-- Node10_1 -->
<g id="node6" class="node">
<title>Node10_1</title>
<ellipse fill="#ff1975" stroke="#ff1975" cx="311.95" cy="-366" rx="59.59" ry="18"/>
<text text-anchor="middle" x="311.95" y="-362.3" font-family="Times,serif" font-size="14.00">अभवन्(10.1)</text>
</g>
<!-- Node3_1&#45;&gt;Node10_1 -->
<g id="edge3" class="edge">
<title>Node3_1&#45;&gt;Node10_1</title>
<path fill="none" stroke="black" d="M366.61,-303.86C353.93,-318.05 338.15,-335.69 326.81,-348.37"/>
<polygon fill="black" stroke="black" points="369.24,-306.18 373.29,-296.39 364.02,-301.51 369.24,-306.18"/>
<text text-anchor="middle" x="364.95" y="-318.8" font-family="Times,serif" font-size="14.00">कर्ता</text>
</g>
<!-- Node4_1 -->
<g id="node3" class="node">
<title>Node4_1</title>
<ellipse fill="#00bfff" stroke="#00bfff" cx="516.95" cy="-192" rx="57.69" ry="18"/>
<text text-anchor="middle" x="516.95" y="-188.3" font-family="Times,serif" font-size="14.00">दुराधर्षाः(4.1)</text>
</g>
<!-- Node4_1&#45;&gt;Node3_1 -->
<g id="edge4" class="edge">
<title>Node4_1&#45;&gt;Node3_1</title>
<path fill="none" stroke="black" d="M484.84,-214.16C461.74,-229.37 431.17,-249.52 410.59,-263.08"/>
<polygon fill="black" stroke="black" points="486.86,-217.02 493.28,-208.59 483.01,-211.17 486.86,-217.02"/>
<text text-anchor="middle" x="482.45" y="-231.8" font-family="Times,serif" font-size="14.00">विशेषणम्</text>
</g>
<!-- Node6_2 -->
<g id="node4" class="node">
<title>Node6_2</title>
<ellipse fill="#00bfff" stroke="#00bfff" cx="389.95" cy="-192" rx="51.19" ry="18"/>
<text text-anchor="middle" x="389.95" y="-188.3" font-family="Times,serif" font-size="14.00">उपमाः(6.2)</text>
</g>
<!-- Node6_2&#45;&gt;Node3_1 -->
<g id="edge7" class="edge">
<title>Node6_2&#45;&gt;Node3_1</title>
<path fill="none" stroke="black" d="M389.3,-220.27C388.99,-233.58 388.62,-249.19 388.35,-260.82"/>
<polygon fill="black" stroke="black" points="392.8,-220.28 389.54,-210.2 385.81,-220.12 392.8,-220.28"/>
<text text-anchor="middle" x="411.45" y="-231.8" font-family="Times,serif" font-size="14.00">विशेषणम्</text>
</g>
<!-- Node2_1 -->
<g id="node5" class="node">
<title>Node2_1</title>
<ellipse fill="#ff99ff" stroke="#ff99ff" cx="281.95" cy="-279" rx="40.89" ry="18"/>
<text text-anchor="middle" x="281.95" y="-275.3" font-family="Times,serif" font-size="14.00">स्म(2.1)</text>
</g>
<!-- Node2_1&#45;&gt;Node10_1 -->
<g id="edge2" class="edge">
<title>Node2_1&#45;&gt;Node10_1</title>
<path fill="none" stroke="black" d="M291.43,-306.87C296.16,-320.27 301.74,-336.08 305.88,-347.82"/>
<polygon fill="black" stroke="black" points="294.64,-305.47 288.02,-297.2 288.04,-307.8 294.64,-305.47"/>
<text text-anchor="middle" x="317.45" y="-318.8" font-family="Times,serif" font-size="14.00">सम्बन्धः</text>
</g>
<!-- Node5_1 -->
<g id="node7" class="node">
<title>Node5_1</title>
<ellipse fill="#c6e2eb" stroke="#c6e2eb" cx="389.95" cy="-105" rx="55.79" ry="18"/>
<text text-anchor="middle" x="389.95" y="-101.3" font-family="Times,serif" font-size="14.00">गाम्भीर्ये(5.1)</text>
</g>
<!-- Node5_1&#45;&gt;Node6_2 -->
<g id="edge5" class="edge">
<title>Node5_1&#45;&gt;Node6_2</title>
<path fill="none" stroke="black" d="M389.95,-133.27C389.95,-146.58 389.95,-162.19 389.95,-173.82"/>
<polygon fill="black" stroke="black" points="393.45,-133.2 389.95,-123.2 386.45,-133.2 393.45,-133.2"/>
<text text-anchor="middle" x="426.95" y="-144.8" font-family="Times,serif" font-size="14.00">विषयाधिकरणम्</text>
</g>
<!-- Node6_1 -->
<g id="node8" class="node">
<title>Node6_1</title>
<ellipse fill="#ffff00" stroke="#ffff00" cx="515.95" cy="-105" rx="51.99" ry="18"/>
<text text-anchor="middle" x="515.95" y="-101.3" font-family="Times,serif" font-size="14.00">सागर&#45;(6.1)</text>
</g>
<!-- Node6_1&#45;&gt;Node6_2 -->
<g id="edge6" class="edge">
<title>Node6_1&#45;&gt;Node6_2</title>
<path fill="none" stroke="black" d="M496.37,-130.02C488.24,-138.97 478.29,-148.71 467.95,-156 460.06,-161.56 440.07,-170.5 422.3,-177.95"/>
<polygon fill="black" stroke="black" points="499.05,-132.27 503.01,-122.45 493.79,-127.66 499.05,-132.27"/>
<text text-anchor="middle" x="504.45" y="-144.8" font-family="Times,serif" font-size="14.00">बहुव्रीहिः</text>
</g>
<!-- Node7_1 -->
<g id="node9" class="node">
<title>Node7_1</title>
<ellipse fill="#ffff00" stroke="#ffff00" cx="53.95" cy="-18" rx="50.09" ry="18"/>
<text text-anchor="middle" x="53.95" y="-14.3" font-family="Times,serif" font-size="14.00">शोक&#45;(7.1)</text>
</g>
<!-- Node7_2 -->
<g id="node10" class="node">
<title>Node7_2</title>
<ellipse fill="#ffff00" stroke="#ffff00" cx="53.95" cy="-105" rx="53.89" ry="18"/>
<text text-anchor="middle" x="53.95" y="-101.3" font-family="Times,serif" font-size="14.00">उपहत&#45;(7.2)</text>
</g>
<!-- Node7_1&#45;&gt;Node7_2 -->
<g id="edge8" class="edge">
<title>Node7_1&#45;&gt;Node7_2</title>
<path fill="none" stroke="black" d="M53.95,-46.27C53.95,-59.58 53.95,-75.19 53.95,-86.82"/>
<polygon fill="black" stroke="black" points="57.45,-46.2 53.95,-36.2 50.45,-46.2 57.45,-46.2"/>
<text text-anchor="middle" x="88.45" y="-57.8" font-family="Times,serif" font-size="14.00">तृतीयातत्पुरुषः</text>
</g>
<!-- Node7_3 -->
<g id="node11" class="node">
<title>Node7_3</title>
<ellipse fill="#00bfff" stroke="#00bfff" cx="101.95" cy="-192" rx="56.59" ry="18"/>
<text text-anchor="middle" x="101.95" y="-188.3" font-family="Times,serif" font-size="14.00">विज्ञानाः(7.3)</text>
</g>
<!-- Node7_2&#45;&gt;Node7_3 -->
<g id="edge9" class="edge">
<title>Node7_2&#45;&gt;Node7_3</title>
<path fill="none" stroke="black" d="M68.51,-131.8C76.3,-145.58 85.65,-162.14 92.48,-174.24"/>
<polygon fill="black" stroke="black" points="71.39,-129.78 63.43,-122.79 65.3,-133.22 71.39,-129.78"/>
<text text-anchor="middle" x="100.45" y="-144.8" font-family="Times,serif" font-size="14.00">बहुव्रीहिः</text>
</g>
<!-- Node7_3&#45;&gt;Node3_1 -->
<g id="edge10" class="edge">
<title>Node7_3&#45;&gt;Node3_1</title>
<path fill="none" stroke="black" d="M137.97,-212.65C158.74,-223.18 185.68,-235.49 210.95,-243 263.06,-258.49 278.9,-249.07 331.95,-261 338.88,-262.56 346.22,-264.54 353.21,-266.59"/>
<polygon fill="black" stroke="black" points="139.38,-209.44 128.89,-207.97 136.17,-215.66 139.38,-209.44"/>
<text text-anchor="middle" x="249.95" y="-231.8" font-family="Times,serif" font-size="14.00">विधेय_विशेषणम्</text>
</g>
<!-- Node8_1 -->
<g id="node12" class="node">
<title>Node8_1</title>
<ellipse fill="#ffff00" stroke="#ffff00" cx="170.95" cy="-105" rx="44.69" ry="18"/>
<text text-anchor="middle" x="170.95" y="-101.3" font-family="Times,serif" font-size="14.00">नष्ट&#45;(8.1)</text>
</g>
<!-- Node8_2 -->
<g id="node13" class="node">
<title>Node8_2</title>
<ellipse fill="#00bfff" stroke="#00bfff" cx="272.95" cy="-192" rx="48.19" ry="18"/>
<text text-anchor="middle" x="272.95" y="-188.3" font-family="Times,serif" font-size="14.00">संज्ञाः(8.2)</text>
</g>
<!-- Node8_1&#45;&gt;Node8_2 -->
<g id="edge11" class="edge">
<title>Node8_1&#45;&gt;Node8_2</title>
<path fill="none" stroke="black" d="M197.39,-128.04C215.14,-142.83 238.08,-161.95 254.01,-175.22"/>
<polygon fill="black" stroke="black" points="199.58,-125.3 189.65,-121.59 195.1,-130.68 199.58,-125.3"/>
<text text-anchor="middle" x="248.45" y="-144.8" font-family="Times,serif" font-size="14.00">बहुव्रीहिः</text>
</g>
<!-- Node8_2&#45;&gt;Node3_1 -->
<g id="edge12" class="edge">
<title>Node8_2&#45;&gt;Node3_1</title>
<path fill="none" stroke="black" d="M286.13,-219.06C291.39,-227.54 298.09,-236.44 305.95,-243 319.02,-253.91 336,-261.91 351.11,-267.48"/>
<polygon fill="black" stroke="black" points="289.02,-217.07 281,-210.16 282.96,-220.57 289.02,-217.07"/>
<text text-anchor="middle" x="344.95" y="-231.8" font-family="Times,serif" font-size="14.00">विधेय_विशेषणम्</text>
</g>
<!-- Node9_1 -->
<g id="node14" class="node">
<title>Node9_1</title>
<ellipse fill="#ff99ff" stroke="#ff99ff" cx="274.95" cy="-105" rx="40.89" ry="18"/>
<text text-anchor="middle" x="274.95" y="-101.3" font-family="Times,serif" font-size="14.00">इव(9.1)</text>
</g>
<!-- Node9_1&#45;&gt;Node8_2 -->
<g id="edge13" class="edge">
<title>Node9_1&#45;&gt;Node8_2</title>
<path fill="none" stroke="black" d="M274.3,-133.27C273.99,-146.58 273.62,-162.19 273.35,-173.82"/>
<polygon fill="black" stroke="black" points="277.8,-133.28 274.54,-123.2 270.81,-133.12 277.8,-133.28"/>
<text text-anchor="middle" x="293.45" y="-144.8" font-family="Times,serif" font-size="14.00">सम्बन्धः</text>
</g>
</g>
</svg>
