<?xml version="1.0" encoding="UTF-8" standalone="no"?>
<!DOCTYPE svg PUBLIC "-//W3C//DTD SVG 1.1//EN"
 "http://www.w3.org/Graphics/SVG/1.1/DTD/svg11.dtd">
<!-- Generated by graphviz version 2.43.0 (0)
 -->
<!-- Title: G Pages: 1 -->
<svg width="1186pt" height="305pt"
 viewBox="0.00 0.00 1185.84 305.00" xmlns="http://www.w3.org/2000/svg" xmlns:xlink="http://www.w3.org/1999/xlink">
<g id="graph0" class="graph" transform="scale(1 1) rotate(0) translate(4 301)">
<title>G</title>
<polygon fill="#fffacd" stroke="transparent" points="-4,4 -4,-301 1181.84,-301 1181.84,4 -4,4"/>
<!-- Node1_1 -->
<g id="node1" class="node">
<title>Node1_1</title>
<ellipse fill="#00bfff" stroke="#00bfff" cx="390.7" cy="-192" rx="37.09" ry="18"/>
<text text-anchor="middle" x="390.7" y="-188.3" font-family="Times,serif" font-size="14.00">ये(1.1)</text>
</g>
<!-- Node6_1 -->
<g id="node2" class="node">
<title>Node6_1</title>
<ellipse fill="#ff1975" stroke="#ff1975" cx="221.7" cy="-279" rx="53.89" ry="18"/>
<text text-anchor="middle" x="221.7" y="-275.3" font-family="Times,serif" font-size="14.00">अभवन्(6.1)</text>
</g>
<!-- Node1_1&#45;&gt;Node6_1 -->
<g id="edge1" class="edge">
<title>Node1_1&#45;&gt;Node6_1</title>
<path fill="none" stroke="black" d="M367.49,-215.08C356.42,-224.69 342.58,-235.46 328.7,-243 308.6,-253.91 284.52,-262.16 264.3,-267.9"/>
<polygon fill="black" stroke="black" points="369.9,-217.62 375.03,-208.34 365.24,-212.4 369.9,-217.62"/>
<text text-anchor="middle" x="361.7" y="-231.8" font-family="Times,serif" font-size="14.00">कर्ता</text>
</g>
<!-- Node7_1 -->
<g id="node3" class="node">
<title>Node7_1</title>
<ellipse fill="#00bfff" stroke="#00bfff" cx="558.7" cy="-192" rx="37.09" ry="18"/>
<text text-anchor="middle" x="558.7" y="-188.3" font-family="Times,serif" font-size="14.00">ते(7.1)</text>
</g>
<!-- Node1_1&#45;&gt;Node7_1 -->
<g id="edge2" class="edge">
<title>Node1_1&#45;&gt;Node7_1</title>
<path fill="none" stroke="red" stroke-dasharray="5,2" d="M438.15,-192C461.05,-192 488.46,-192 511.35,-192"/>
<polygon fill="red" stroke="red" points="437.98,-188.5 427.98,-192 437.98,-195.5 437.98,-188.5"/>
<polygon fill="red" stroke="red" points="511.52,-195.5 521.52,-192 511.52,-188.5 511.52,-195.5"/>
<text text-anchor="middle" x="474.7" y="-177.8" font-family="Times,serif" font-size="14.00">नित्य_सम्बन्धः1</text>
</g>
<!-- Node11_1 -->
<g id="node10" class="node">
<title>Node11_1</title>
<ellipse fill="#ff1975" stroke="#ff1975" cx="841.7" cy="-279" rx="60.39" ry="18"/>
<text text-anchor="middle" x="841.7" y="-275.3" font-family="Times,serif" font-size="14.00">अकार्षुः(11.1)</text>
</g>
<!-- Node7_1&#45;&gt;Node11_1 -->
<g id="edge9" class="edge">
<title>Node7_1&#45;&gt;Node11_1</title>
<path fill="none" stroke="black" d="M596.33,-207.17C599.15,-208.15 601.96,-209.11 604.7,-210 671.41,-231.86 749.91,-253.62 797.72,-266.44"/>
<polygon fill="black" stroke="black" points="597.39,-203.83 586.8,-203.76 595.04,-210.42 597.39,-203.83"/>
<text text-anchor="middle" x="718.7" y="-231.8" font-family="Times,serif" font-size="14.00">कर्ता</text>
</g>
<!-- Node2_1 -->
<g id="node4" class="node">
<title>Node2_1</title>
<ellipse fill="#ffff00" stroke="#ffff00" cx="50.7" cy="-105" rx="46.59" ry="18"/>
<text text-anchor="middle" x="50.7" y="-101.3" font-family="Times,serif" font-size="14.00">राज&#45;(2.1)</text>
</g>
<!-- Node2_2 -->
<g id="node5" class="node">
<title>Node2_2</title>
<ellipse fill="#c6e2eb" stroke="#c6e2eb" cx="50.7" cy="-192" rx="50.89" ry="18"/>
<text text-anchor="middle" x="50.7" y="-188.3" font-family="Times,serif" font-size="14.00">कार्येषु(2.2)</text>
</g>
<!-- Node2_1&#45;&gt;Node2_2 -->
<g id="edge3" class="edge">
<title>Node2_1&#45;&gt;Node2_2</title>
<path fill="none" stroke="black" d="M50.7,-133.27C50.7,-146.58 50.7,-162.19 50.7,-173.82"/>
<polygon fill="black" stroke="black" points="54.2,-133.2 50.7,-123.2 47.2,-133.2 54.2,-133.2"/>
<text text-anchor="middle" x="79.7" y="-144.8" font-family="Times,serif" font-size="14.00">षष्ठीतत्पुरुषः</text>
</g>
<!-- Node2_2&#45;&gt;Node6_1 -->
<g id="edge4" class="edge">
<title>Node2_2&#45;&gt;Node6_1</title>
<path fill="none" stroke="black" d="M65.1,-218.42C71.31,-227.36 79.31,-236.73 88.7,-243 113.11,-259.32 144.77,-268.04 171.07,-272.69"/>
<polygon fill="black" stroke="black" points="67.86,-216.25 59.5,-209.75 61.98,-220.05 67.86,-216.25"/>
<text text-anchor="middle" x="125.7" y="-231.8" font-family="Times,serif" font-size="14.00">विषयाधिकरणम्</text>
</g>
<!-- Node3_1 -->
<g id="node6" class="node">
<title>Node3_1</title>
<ellipse fill="#ff99ff" stroke="#ff99ff" cx="162.7" cy="-192" rx="42.79" ry="18"/>
<text text-anchor="middle" x="162.7" y="-188.3" font-family="Times,serif" font-size="14.00">पुरा(3.1)</text>
</g>
<!-- Node3_1&#45;&gt;Node6_1 -->
<g id="edge5" class="edge">
<title>Node3_1&#45;&gt;Node6_1</title>
<path fill="none" stroke="black" d="M164.43,-220.53C165.88,-228.26 168.4,-236.36 172.7,-243 177.97,-251.16 185.88,-258.02 193.82,-263.43"/>
<polygon fill="black" stroke="black" points="167.87,-219.82 163.04,-210.39 160.93,-220.77 167.87,-219.82"/>
<text text-anchor="middle" x="208.2" y="-231.8" font-family="Times,serif" font-size="14.00">कालाधिकरणम्</text>
</g>
<!-- Node4_1 -->
<g id="node7" class="node">
<title>Node4_1</title>
<ellipse fill="#ffff00" stroke="#ffff00" cx="390.7" cy="-18" rx="42.49" ry="18"/>
<text text-anchor="middle" x="390.7" y="-14.3" font-family="Times,serif" font-size="14.00">वि&#45;(4.1)</text>
</g>
<!-- Node4_2 -->
<g id="node8" class="node">
<title>Node4_2</title>
<ellipse fill="#00bfff" stroke="#00bfff" cx="390.7" cy="-105" rx="61.19" ry="18"/>
<text text-anchor="middle" x="390.7" y="-101.3" font-family="Times,serif" font-size="14.00">आसक्ताः(4.2)</text>
</g>
<!-- Node4_1&#45;&gt;Node4_2 -->
<g id="edge6" class="edge">
<title>Node4_1&#45;&gt;Node4_2</title>
<path fill="none" stroke="black" d="M390.7,-46.27C390.7,-59.58 390.7,-75.19 390.7,-86.82"/>
<polygon fill="black" stroke="black" points="394.2,-46.2 390.7,-36.2 387.2,-46.2 394.2,-46.2"/>
<text text-anchor="middle" x="407.7" y="-57.8" font-family="Times,serif" font-size="14.00">समासः</text>
</g>
<!-- Node4_2&#45;&gt;Node1_1 -->
<g id="edge7" class="edge">
<title>Node4_2&#45;&gt;Node1_1</title>
<path fill="none" stroke="black" d="M390.7,-133.27C390.7,-146.58 390.7,-162.19 390.7,-173.82"/>
<polygon fill="black" stroke="black" points="394.2,-133.2 390.7,-123.2 387.2,-133.2 394.2,-133.2"/>
<text text-anchor="middle" x="429.7" y="-144.8" font-family="Times,serif" font-size="14.00">विधेय_विशेषणम्</text>
</g>
<!-- Node5_1 -->
<g id="node9" class="node">
<title>Node5_1</title>
<ellipse fill="#ff99ff" stroke="#ff99ff" cx="279.7" cy="-192" rx="55.79" ry="18"/>
<text text-anchor="middle" x="279.7" y="-188.3" font-family="Times,serif" font-size="14.00">नित्यशः(5.1)</text>
</g>
<!-- Node5_1&#45;&gt;Node6_1 -->
<g id="edge8" class="edge">
<title>Node5_1&#45;&gt;Node6_1</title>
<path fill="none" stroke="black" d="M262.36,-218.4C252.91,-232.26 241.47,-249.03 233.13,-261.24"/>
<polygon fill="black" stroke="black" points="265.49,-220.03 268.24,-209.79 259.71,-216.08 265.49,-220.03"/>
<text text-anchor="middle" x="289.7" y="-231.8" font-family="Times,serif" font-size="14.00">क्रियाविशेषणम्</text>
</g>
<!-- Node8_1 -->
<g id="node11" class="node">
<title>Node8_1</title>
<ellipse fill="#ffff00" stroke="#ffff00" cx="670.7" cy="-105" rx="46.59" ry="18"/>
<text text-anchor="middle" x="670.7" y="-101.3" font-family="Times,serif" font-size="14.00">राज&#45;(8.1)</text>
</g>
<!-- Node8_2 -->
<g id="node12" class="node">
<title>Node8_2</title>
<ellipse fill="#93db70" stroke="#93db70" cx="670.7" cy="-192" rx="57.39" ry="18"/>
<text text-anchor="middle" x="670.7" y="-188.3" font-family="Times,serif" font-size="14.00">कार्याणि(8.2)</text>
</g>
<!-- Node8_1&#45;&gt;Node8_2 -->
<g id="edge10" class="edge">
<title>Node8_1&#45;&gt;Node8_2</title>
<path fill="none" stroke="black" d="M670.7,-133.27C670.7,-146.58 670.7,-162.19 670.7,-173.82"/>
<polygon fill="black" stroke="black" points="674.2,-133.2 670.7,-123.2 667.2,-133.2 674.2,-133.2"/>
<text text-anchor="middle" x="699.7" y="-144.8" font-family="Times,serif" font-size="14.00">षष्ठीतत्पुरुषः</text>
</g>
<!-- Node8_2&#45;&gt;Node11_1 -->
<g id="edge11" class="edge">
<title>Node8_2&#45;&gt;Node11_1</title>
<path fill="none" stroke="black" d="M709.35,-212.21C740.5,-227.7 783.66,-249.15 812.11,-263.29"/>
<polygon fill="black" stroke="black" points="710.6,-208.93 700.09,-207.61 707.49,-215.2 710.6,-208.93"/>
<text text-anchor="middle" x="774.7" y="-231.8" font-family="Times,serif" font-size="14.00">कर्म</text>
</g>
<!-- Node9_1 -->
<g id="node13" class="node">
<title>Node9_1</title>
<ellipse fill="#ff99ff" stroke="#ff99ff" cx="789.7" cy="-192" rx="44.39" ry="18"/>
<text text-anchor="middle" x="789.7" y="-188.3" font-family="Times,serif" font-size="14.00">तदा(9.1)</text>
</g>
<!-- Node9_1&#45;&gt;Node11_1 -->
<g id="edge12" class="edge">
<title>Node9_1&#45;&gt;Node11_1</title>
<path fill="none" stroke="black" d="M793.02,-220.03C794.8,-227.83 797.52,-236.09 801.7,-243 806.09,-250.26 812.49,-256.83 818.89,-262.26"/>
<polygon fill="black" stroke="black" points="796.46,-219.39 791.19,-210.2 789.58,-220.67 796.46,-219.39"/>
<text text-anchor="middle" x="837.2" y="-231.8" font-family="Times,serif" font-size="14.00">कालाधिकरणम्</text>
</g>
<!-- Node10_1 -->
<g id="node14" class="node">
<title>Node10_1</title>
<ellipse fill="#ff99ff" stroke="#ff99ff" cx="894.7" cy="-192" rx="42.79" ry="18"/>
<text text-anchor="middle" x="894.7" y="-188.3" font-family="Times,serif" font-size="14.00">न(10.1)</text>
</g>
<!-- Node10_1&#45;&gt;Node11_1 -->
<g id="edge13" class="edge">
<title>Node10_1&#45;&gt;Node11_1</title>
<path fill="none" stroke="black" d="M884.91,-219.38C881.51,-227.24 877.37,-235.7 872.7,-243 868.58,-249.43 863.31,-255.85 858.28,-261.41"/>
<polygon fill="black" stroke="black" points="888.25,-220.45 888.79,-209.87 881.77,-217.8 888.25,-220.45"/>
<text text-anchor="middle" x="899.2" y="-231.8" font-family="Times,serif" font-size="14.00">प्रतिषेधः</text>
</g>
<!-- Node12_1 -->
<g id="node15" class="node">
<title>Node12_1</title>
<ellipse fill="#ff99ff" stroke="#ff99ff" cx="1011.7" cy="-192" rx="55.79" ry="18"/>
<text text-anchor="middle" x="1011.7" y="-188.3" font-family="Times,serif" font-size="14.00">सर्वतः(12.1)</text>
</g>
<!-- Node12_1&#45;&gt;Node11_1 -->
<g id="edge14" class="edge">
<title>Node12_1&#45;&gt;Node11_1</title>
<path fill="none" stroke="black" d="M977.67,-213.21C961.27,-222.67 941.19,-233.84 922.7,-243 907.6,-250.48 890.52,-257.99 875.95,-264.13"/>
<polygon fill="black" stroke="black" points="979.48,-216.21 986.37,-208.16 975.96,-210.16 979.48,-216.21"/>
<text text-anchor="middle" x="984.7" y="-231.8" font-family="Times,serif" font-size="14.00">क्रियाविशेषणम्</text>
</g>
<!-- Node13_1 -->
<g id="node16" class="node">
<title>Node13_1</title>
<ellipse fill="#c6e2eb" stroke="#c6e2eb" cx="1131.7" cy="-192" rx="46.29" ry="18"/>
<text text-anchor="middle" x="1131.7" y="-188.3" font-family="Times,serif" font-size="14.00">पुरे(13.1)</text>
</g>
<!-- Node13_1&#45;&gt;Node11_1 -->
<g id="edge15" class="edge">
<title>Node13_1&#45;&gt;Node11_1</title>
<path fill="none" stroke="black" d="M1096.74,-211.83C1076.01,-222.32 1048.94,-234.87 1023.7,-243 981.89,-256.47 932.92,-265.53 896.32,-271.05"/>
<polygon fill="black" stroke="black" points="1098.5,-214.86 1105.79,-207.18 1095.3,-208.64 1098.5,-214.86"/>
<text text-anchor="middle" x="1091.7" y="-231.8" font-family="Times,serif" font-size="14.00">देशाधिकरणम्</text>
</g>
</g>
</svg>
