<?xml version="1.0" encoding="UTF-8" standalone="no"?>
<!DOCTYPE svg PUBLIC "-//W3C//DTD SVG 1.1//EN"
 "http://www.w3.org/Graphics/SVG/1.1/DTD/svg11.dtd">
<!-- Generated by graphviz version 2.43.0 (0)
 -->
<!-- Title: G Pages: 1 -->
<svg width="620pt" height="566pt"
 viewBox="0.00 0.00 620.00 566.00" xmlns="http://www.w3.org/2000/svg" xmlns:xlink="http://www.w3.org/1999/xlink">
<g id="graph0" class="graph" transform="scale(1 1) rotate(0) translate(4 562)">
<title>G</title>
<polygon fill="#fffacd" stroke="transparent" points="-4,4 -4,-562 616,-562 616,4 -4,4"/>
<g id="clust1" class="cluster">
<title>cluster_1</title>
<polygon fill="#fffacd" stroke="black" points="362,-253 362,-392 604,-392 604,-253 362,-253"/>
</g>
<g id="clust2" class="cluster">
<title>cluster_2</title>
<polygon fill="#fffacd" stroke="black" points="8,-340 8,-479 248,-479 248,-340 8,-340"/>
</g>
<!-- Node3_2 -->
<g id="node1" class="node">
<title>Node3_2</title>
<ellipse fill="#40e0d0" stroke="#40e0d0" cx="425" cy="-279" rx="55.49" ry="18"/>
<text text-anchor="middle" x="425" y="-275.3" font-family="Times,serif" font-size="14.00">संकाशैः(3.2)</text>
</g>
<!-- Node1_1 -->
<g id="node2" class="node">
<title>Node1_1</title>
<ellipse fill="#40e0d0" stroke="#40e0d0" cx="421" cy="-366" rx="45.49" ry="18"/>
<text text-anchor="middle" x="421" y="-362.3" font-family="Times,serif" font-size="14.00">गजैः(1.1)</text>
</g>
<!-- Node3_2&#45;&gt;Node1_1 -->
<g id="edge4" class="edge">
<title>Node3_2&#45;&gt;Node1_1</title>
<path fill="none" stroke="black" d="M423.72,-307.27C423.09,-320.58 422.36,-336.19 421.81,-347.82"/>
<polygon fill="black" stroke="black" points="427.22,-307.35 424.19,-297.2 420.22,-307.03 427.22,-307.35"/>
<text text-anchor="middle" x="446.5" y="-318.8" font-family="Times,serif" font-size="14.00">विशेषणम्</text>
</g>
<!-- Node4_2 -->
<g id="node5" class="node">
<title>Node4_2</title>
<ellipse fill="#00bfff" stroke="#00bfff" cx="191" cy="-453" rx="46.29" ry="18"/>
<text text-anchor="middle" x="191" y="-449.3" font-family="Times,serif" font-size="14.00">कर्मा(4.2)</text>
</g>
<!-- Node1_1&#45;&gt;Node4_2 -->
<g id="edge1" class="edge">
<title>Node1_1&#45;&gt;Node4_2</title>
<path fill="none" stroke="black" d="M382.6,-383.93C376.09,-386.69 369.37,-389.48 363,-392 315.96,-410.64 260.53,-429.42 225.58,-440.88"/>
<polygon fill="black" stroke="black" points="384.12,-387.09 391.93,-379.93 381.36,-380.65 384.12,-387.09"/>
<text text-anchor="middle" x="352" y="-405.8" font-family="Times,serif" font-size="14.00">सहार्थः</text>
</g>
<!-- Node6_4 -->
<g id="node3" class="node">
<title>Node6_4</title>
<ellipse fill="#40e0d0" stroke="#40e0d0" cx="547" cy="-279" rx="48.99" ry="18"/>
<text text-anchor="middle" x="547" y="-275.3" font-family="Times,serif" font-size="14.00">उपेतैः(6.4)</text>
</g>
<!-- Node6_4&#45;&gt;Node1_1 -->
<g id="edge12" class="edge">
<title>Node6_4&#45;&gt;Node1_1</title>
<path fill="none" stroke="black" d="M516.31,-300.75C503,-309.75 487.24,-320.4 473,-330 463.17,-336.63 452.28,-343.96 443.02,-350.19"/>
<polygon fill="black" stroke="black" points="518.34,-303.61 524.66,-295.11 514.42,-297.81 518.34,-303.61"/>
<text text-anchor="middle" x="516.5" y="-318.8" font-family="Times,serif" font-size="14.00">विशेषणम्</text>
</g>
<!-- Node5_2 -->
<g id="node4" class="node">
<title>Node5_2</title>
<ellipse fill="#00bfff" stroke="#00bfff" cx="63" cy="-366" rx="46.59" ry="18"/>
<text text-anchor="middle" x="63" y="-362.3" font-family="Times,serif" font-size="14.00">उदरः(5.2)</text>
</g>
<!-- Node5_2&#45;&gt;Node4_2 -->
<g id="edge8" class="edge">
<title>Node5_2&#45;&gt;Node4_2</title>
<path fill="none" stroke="black" d="M94,-387.59C117.05,-402.89 147.96,-423.42 168.64,-437.15"/>
<polygon fill="black" stroke="black" points="95.86,-384.62 85.59,-382 91.98,-390.45 95.86,-384.62"/>
<text text-anchor="middle" x="157.5" y="-405.8" font-family="Times,serif" font-size="14.00">विशेषणम्</text>
</g>
<!-- Node7_1 -->
<g id="node10" class="node">
<title>Node7_1</title>
<ellipse fill="#ff1975" stroke="#ff1975" cx="191" cy="-540" rx="49.29" ry="18"/>
<text text-anchor="middle" x="191" y="-536.3" font-family="Times,serif" font-size="14.00">प्रययौ(7.1)</text>
</g>
<!-- Node4_2&#45;&gt;Node7_1 -->
<g id="edge6" class="edge">
<title>Node4_2&#45;&gt;Node7_1</title>
<path fill="none" stroke="black" d="M191,-481.27C191,-494.58 191,-510.19 191,-521.82"/>
<polygon fill="black" stroke="black" points="194.5,-481.2 191,-471.2 187.5,-481.2 194.5,-481.2"/>
<text text-anchor="middle" x="202" y="-492.8" font-family="Times,serif" font-size="14.00">कर्ता</text>
</g>
<!-- Node8_2 -->
<g id="node6" class="node">
<title>Node8_2</title>
<ellipse fill="#00bfff" stroke="#00bfff" cx="184" cy="-366" rx="55.79" ry="18"/>
<text text-anchor="middle" x="184" y="-362.3" font-family="Times,serif" font-size="14.00">आत्मजः(8.2)</text>
</g>
<!-- Node8_2&#45;&gt;Node4_2 -->
<g id="edge14" class="edge">
<title>Node8_2&#45;&gt;Node4_2</title>
<path fill="none" stroke="black" d="M186.25,-394.27C187.34,-407.58 188.63,-423.19 189.59,-434.82"/>
<polygon fill="black" stroke="black" points="189.73,-393.88 185.42,-384.2 182.75,-394.45 189.73,-393.88"/>
<text text-anchor="middle" x="210.5" y="-405.8" font-family="Times,serif" font-size="14.00">विशेषणम्</text>
</g>
<!-- Node2_1 -->
<g id="node7" class="node">
<title>Node2_1</title>
<ellipse fill="#ff99ff" stroke="#ff99ff" cx="314" cy="-279" rx="37.89" ry="18"/>
<text text-anchor="middle" x="314" y="-275.3" font-family="Times,serif" font-size="14.00">च(2.1)</text>
</g>
<!-- Node2_1&#45;&gt;Node1_1 -->
<g id="edge2" class="edge">
<title>Node2_1&#45;&gt;Node1_1</title>
<path fill="none" stroke="black" d="M340.58,-301.12C359.47,-316.12 384.42,-335.94 401.49,-349.5"/>
<polygon fill="black" stroke="black" points="342.65,-298.29 332.64,-294.81 338.29,-303.77 342.65,-298.29"/>
<text text-anchor="middle" x="392.5" y="-318.8" font-family="Times,serif" font-size="14.00">सम्बन्धः</text>
</g>
<!-- Node3_1 -->
<g id="node8" class="node">
<title>Node3_1</title>
<ellipse fill="#ffff00" stroke="#ffff00" cx="424" cy="-192" rx="52.79" ry="18"/>
<text text-anchor="middle" x="424" y="-188.3" font-family="Times,serif" font-size="14.00">अचल&#45;(3.1)</text>
</g>
<!-- Node3_1&#45;&gt;Node3_2 -->
<g id="edge3" class="edge">
<title>Node3_1&#45;&gt;Node3_2</title>
<path fill="none" stroke="black" d="M424.32,-220.27C424.48,-233.58 424.66,-249.19 424.8,-260.82"/>
<polygon fill="black" stroke="black" points="427.82,-220.16 424.2,-210.2 420.82,-220.24 427.82,-220.16"/>
<text text-anchor="middle" x="442" y="-231.8" font-family="Times,serif" font-size="14.00">समासः</text>
</g>
<!-- Node4_1 -->
<g id="node9" class="node">
<title>Node4_1</title>
<ellipse fill="#ffff00" stroke="#ffff00" cx="306" cy="-366" rx="48.19" ry="18"/>
<text text-anchor="middle" x="306" y="-362.3" font-family="Times,serif" font-size="14.00">भीम&#45;(4.1)</text>
</g>
<!-- Node4_1&#45;&gt;Node4_2 -->
<g id="edge5" class="edge">
<title>Node4_1&#45;&gt;Node4_2</title>
<path fill="none" stroke="black" d="M276.88,-388.52C256.54,-403.56 229.86,-423.28 211.67,-436.72"/>
<polygon fill="black" stroke="black" points="279.21,-391.15 285.17,-382.39 275.05,-385.52 279.21,-391.15"/>
<text text-anchor="middle" x="273" y="-405.8" font-family="Times,serif" font-size="14.00">समासः</text>
</g>
<!-- Node5_1 -->
<g id="node11" class="node">
<title>Node5_1</title>
<ellipse fill="#ffff00" stroke="#ffff00" cx="63" cy="-279" rx="46.29" ry="18"/>
<text text-anchor="middle" x="63" y="-275.3" font-family="Times,serif" font-size="14.00">वृक&#45;(5.1)</text>
</g>
<!-- Node5_1&#45;&gt;Node5_2 -->
<g id="edge7" class="edge">
<title>Node5_1&#45;&gt;Node5_2</title>
<path fill="none" stroke="black" d="M63,-307.27C63,-320.58 63,-336.19 63,-347.82"/>
<polygon fill="black" stroke="black" points="66.5,-307.2 63,-297.2 59.5,-307.2 66.5,-307.2"/>
<text text-anchor="middle" x="80" y="-318.8" font-family="Times,serif" font-size="14.00">समासः</text>
</g>
<!-- Node6_1 -->
<g id="node12" class="node">
<title>Node6_1</title>
<ellipse fill="#ffff00" stroke="#ffff00" cx="549" cy="-18" rx="51.19" ry="18"/>
<text text-anchor="middle" x="549" y="-14.3" font-family="Times,serif" font-size="14.00">सज्ज&#45;(6.1)</text>
</g>
<!-- Node6_2 -->
<g id="node13" class="node">
<title>Node6_2</title>
<ellipse fill="#ffff00" stroke="#ffff00" cx="549" cy="-105" rx="48.19" ry="18"/>
<text text-anchor="middle" x="549" y="-101.3" font-family="Times,serif" font-size="14.00">यन्त्र&#45;(6.2)</text>
</g>
<!-- Node6_1&#45;&gt;Node6_2 -->
<g id="edge9" class="edge">
<title>Node6_1&#45;&gt;Node6_2</title>
<path fill="none" stroke="black" d="M549,-46.27C549,-59.58 549,-75.19 549,-86.82"/>
<polygon fill="black" stroke="black" points="552.5,-46.2 549,-36.2 545.5,-46.2 552.5,-46.2"/>
<text text-anchor="middle" x="566" y="-57.8" font-family="Times,serif" font-size="14.00">समासः</text>
</g>
<!-- Node6_3 -->
<g id="node14" class="node">
<title>Node6_3</title>
<ellipse fill="#ffff00" stroke="#ffff00" cx="549" cy="-192" rx="53.89" ry="18"/>
<text text-anchor="middle" x="549" y="-188.3" font-family="Times,serif" font-size="14.00">आयुध&#45;(6.3)</text>
</g>
<!-- Node6_2&#45;&gt;Node6_3 -->
<g id="edge10" class="edge">
<title>Node6_2&#45;&gt;Node6_3</title>
<path fill="none" stroke="black" d="M549,-133.27C549,-146.58 549,-162.19 549,-173.82"/>
<polygon fill="black" stroke="black" points="552.5,-133.2 549,-123.2 545.5,-133.2 552.5,-133.2"/>
<text text-anchor="middle" x="566" y="-144.8" font-family="Times,serif" font-size="14.00">समासः</text>
</g>
<!-- Node6_3&#45;&gt;Node6_4 -->
<g id="edge11" class="edge">
<title>Node6_3&#45;&gt;Node6_4</title>
<path fill="none" stroke="black" d="M548.36,-220.27C548.05,-233.58 547.68,-249.19 547.4,-260.82"/>
<polygon fill="black" stroke="black" points="551.86,-220.28 548.6,-210.2 544.86,-220.12 551.86,-220.28"/>
<text text-anchor="middle" x="566" y="-231.8" font-family="Times,serif" font-size="14.00">समासः</text>
</g>
<!-- Node8_1 -->
<g id="node15" class="node">
<title>Node8_1</title>
<ellipse fill="#ffff00" stroke="#ffff00" cx="184" cy="-279" rx="51.99" ry="18"/>
<text text-anchor="middle" x="184" y="-275.3" font-family="Times,serif" font-size="14.00">मारुत&#45;(8.1)</text>
</g>
<!-- Node8_1&#45;&gt;Node8_2 -->
<g id="edge13" class="edge">
<title>Node8_1&#45;&gt;Node8_2</title>
<path fill="none" stroke="black" d="M184,-307.27C184,-320.58 184,-336.19 184,-347.82"/>
<polygon fill="black" stroke="black" points="187.5,-307.2 184,-297.2 180.5,-307.2 187.5,-307.2"/>
<text text-anchor="middle" x="213" y="-318.8" font-family="Times,serif" font-size="14.00">षष्ठीतत्पुरुषः</text>
</g>
</g>
</svg>
