<?xml version="1.0" encoding="UTF-8" standalone="no"?>
<!DOCTYPE svg PUBLIC "-//W3C//DTD SVG 1.1//EN"
 "http://www.w3.org/Graphics/SVG/1.1/DTD/svg11.dtd">
<!-- Generated by graphviz version 2.43.0 (0)
 -->
<!-- Title: G Pages: 1 -->
<svg width="717pt" height="408pt"
 viewBox="0.00 0.00 717.00 408.00" xmlns="http://www.w3.org/2000/svg" xmlns:xlink="http://www.w3.org/1999/xlink">
<g id="graph0" class="graph" transform="scale(1 1) rotate(0) translate(4 404)">
<title>G</title>
<polygon fill="#fffacd" stroke="transparent" points="-4,4 -4,-404 713,-404 713,4 -4,4"/>
<g id="clust1" class="cluster">
<title>cluster_1</title>
<polygon fill="#fffacd" stroke="black" points="8,-8 8,-147 126,-147 126,-8 8,-8"/>
</g>
<g id="clust2" class="cluster">
<title>cluster_2</title>
<polygon fill="#fffacd" stroke="black" points="304,-95 304,-234 414,-234 414,-95 304,-95"/>
</g>
<g id="clust3" class="cluster">
<title>cluster_3</title>
<polygon fill="#fffacd" stroke="black" points="435,-182 435,-321 701,-321 701,-182 435,-182"/>
</g>
<!-- Node1_1 -->
<g id="node1" class="node">
<title>Node1_1</title>
<ellipse fill="#00bfff" stroke="#00bfff" cx="67" cy="-34" rx="51.19" ry="18"/>
<text text-anchor="middle" x="67" y="-30.3" font-family="Times,serif" font-size="14.00">केचित्(1.1)</text>
</g>
<!-- Node3_1 -->
<g id="node2" class="node">
<title>Node3_1</title>
<ellipse fill="#00bfff" stroke="#00bfff" cx="69" cy="-121" rx="45.49" ry="18"/>
<text text-anchor="middle" x="69" y="-117.3" font-family="Times,serif" font-size="14.00">नराः(3.1)</text>
</g>
<!-- Node1_1&#45;&gt;Node3_1 -->
<g id="edge1" class="edge">
<title>Node1_1&#45;&gt;Node3_1</title>
<path fill="none" stroke="black" d="M67.64,-62.27C67.95,-75.58 68.32,-91.19 68.6,-102.82"/>
<polygon fill="black" stroke="black" points="71.14,-62.12 67.4,-52.2 64.14,-62.28 71.14,-62.12"/>
<text text-anchor="middle" x="91.5" y="-73.8" font-family="Times,serif" font-size="14.00">विशेषणम्</text>
</g>
<!-- Node4_1 -->
<g id="node9" class="node">
<title>Node4_1</title>
<ellipse fill="#ff1975" stroke="#ff1975" cx="125" cy="-208" rx="48.19" ry="18"/>
<text text-anchor="middle" x="125" y="-204.3" font-family="Times,serif" font-size="14.00">जग्मुः(4.1)</text>
</g>
<!-- Node3_1&#45;&gt;Node4_1 -->
<g id="edge3" class="edge">
<title>Node3_1&#45;&gt;Node4_1</title>
<path fill="none" stroke="black" d="M85.74,-147.4C94.86,-161.26 105.91,-178.03 113.96,-190.24"/>
<polygon fill="black" stroke="black" points="88.49,-145.22 80.06,-138.79 82.64,-149.07 88.49,-145.22"/>
<text text-anchor="middle" x="112" y="-160.8" font-family="Times,serif" font-size="14.00">कर्ता</text>
</g>
<!-- Node7_2 -->
<g id="node3" class="node">
<title>Node7_2</title>
<ellipse fill="#40e0d0" stroke="#40e0d0" cx="359" cy="-121" rx="44.69" ry="18"/>
<text text-anchor="middle" x="359" y="-117.3" font-family="Times,serif" font-size="14.00">जवैः(7.2)</text>
</g>
<!-- Node6_1 -->
<g id="node4" class="node">
<title>Node6_1</title>
<ellipse fill="#40e0d0" stroke="#40e0d0" cx="359" cy="-208" rx="47.39" ry="18"/>
<text text-anchor="middle" x="359" y="-204.3" font-family="Times,serif" font-size="14.00">अश्वैः(6.1)</text>
</g>
<!-- Node7_2&#45;&gt;Node6_1 -->
<g id="edge7" class="edge">
<title>Node7_2&#45;&gt;Node6_1</title>
<path fill="none" stroke="black" d="M359,-149.27C359,-162.58 359,-178.19 359,-189.82"/>
<polygon fill="black" stroke="black" points="362.5,-149.2 359,-139.2 355.5,-149.2 362.5,-149.2"/>
<text text-anchor="middle" x="381.5" y="-160.8" font-family="Times,serif" font-size="14.00">विशेषणम्</text>
</g>
<!-- Node12_1 -->
<g id="node11" class="node">
<title>Node12_1</title>
<ellipse fill="#ff1975" stroke="#ff1975" cx="258" cy="-295" rx="60.39" ry="18"/>
<text text-anchor="middle" x="258" y="-291.3" font-family="Times,serif" font-size="14.00">(जग्मुः)(12.1)</text>
</g>
<!-- Node6_1&#45;&gt;Node12_1 -->
<g id="edge5" class="edge">
<title>Node6_1&#45;&gt;Node12_1</title>
<path fill="none" stroke="black" d="M332.44,-231.35C315.18,-245.88 293.07,-264.49 277.44,-277.64"/>
<polygon fill="black" stroke="black" points="335.08,-233.71 340.48,-224.59 330.57,-228.35 335.08,-233.71"/>
<text text-anchor="middle" x="330.5" y="-247.8" font-family="Times,serif" font-size="14.00">करणम्</text>
</g>
<!-- Node10_2 -->
<g id="node5" class="node">
<title>Node10_2</title>
<ellipse fill="#40e0d0" stroke="#40e0d0" cx="504" cy="-208" rx="61.19" ry="18"/>
<text text-anchor="middle" x="504" y="-204.3" font-family="Times,serif" font-size="14.00">आकारैः(10.2)</text>
</g>
<!-- Node8_1 -->
<g id="node6" class="node">
<title>Node8_1</title>
<ellipse fill="#40e0d0" stroke="#40e0d0" cx="504" cy="-295" rx="43.59" ry="18"/>
<text text-anchor="middle" x="504" y="-291.3" font-family="Times,serif" font-size="14.00">रथैः(8.1)</text>
</g>
<!-- Node10_2&#45;&gt;Node8_1 -->
<g id="edge11" class="edge">
<title>Node10_2&#45;&gt;Node8_1</title>
<path fill="none" stroke="black" d="M504,-236.27C504,-249.58 504,-265.19 504,-276.82"/>
<polygon fill="black" stroke="black" points="507.5,-236.2 504,-226.2 500.5,-236.2 507.5,-236.2"/>
<text text-anchor="middle" x="526.5" y="-247.8" font-family="Times,serif" font-size="14.00">विशेषणम्</text>
</g>
<!-- Node13_1 -->
<g id="node13" class="node">
<title>Node13_1</title>
<ellipse fill="#ff1975" stroke="#ff1975" cx="419" cy="-382" rx="60.39" ry="18"/>
<text text-anchor="middle" x="419" y="-378.3" font-family="Times,serif" font-size="14.00">(जग्मुः)(13.1)</text>
</g>
<!-- Node8_1&#45;&gt;Node13_1 -->
<g id="edge8" class="edge">
<title>Node8_1&#45;&gt;Node13_1</title>
<path fill="none" stroke="black" d="M480.89,-319.11C466.53,-333.47 448.41,-351.59 435.5,-364.5"/>
<polygon fill="black" stroke="black" points="483.42,-321.53 488.01,-311.99 478.47,-316.58 483.42,-321.53"/>
<text text-anchor="middle" x="482.5" y="-334.8" font-family="Times,serif" font-size="14.00">करणम्</text>
</g>
<!-- Node11_3 -->
<g id="node7" class="node">
<title>Node11_3</title>
<ellipse fill="#40e0d0" stroke="#40e0d0" cx="638" cy="-208" rx="54.69" ry="18"/>
<text text-anchor="middle" x="638" y="-204.3" font-family="Times,serif" font-size="14.00">उपमैः(11.3)</text>
</g>
<!-- Node11_3&#45;&gt;Node8_1 -->
<g id="edge14" class="edge">
<title>Node11_3&#45;&gt;Node8_1</title>
<path fill="none" stroke="black" d="M605.49,-229.62C581.16,-245.06 548.48,-265.79 526.85,-279.5"/>
<polygon fill="black" stroke="black" points="607.47,-232.51 614.04,-224.2 603.72,-226.6 607.47,-232.51"/>
<text text-anchor="middle" x="601.5" y="-247.8" font-family="Times,serif" font-size="14.00">विशेषणम्</text>
</g>
<!-- Node2_1 -->
<g id="node8" class="node">
<title>Node2_1</title>
<ellipse fill="#40e0d0" stroke="#40e0d0" cx="181" cy="-121" rx="46.59" ry="18"/>
<text text-anchor="middle" x="181" y="-117.3" font-family="Times,serif" font-size="14.00">यानैः(2.1)</text>
</g>
<!-- Node2_1&#45;&gt;Node4_1 -->
<g id="edge2" class="edge">
<title>Node2_1&#45;&gt;Node4_1</title>
<path fill="none" stroke="black" d="M164.26,-147.4C155.14,-161.26 144.09,-178.03 136.04,-190.24"/>
<polygon fill="black" stroke="black" points="167.36,-149.07 169.94,-138.79 161.51,-145.22 167.36,-149.07"/>
<text text-anchor="middle" x="173.5" y="-160.8" font-family="Times,serif" font-size="14.00">करणम्</text>
</g>
<!-- Node5_1 -->
<g id="node10" class="node">
<title>Node5_1</title>
<ellipse fill="#00bfff" stroke="#00bfff" cx="242" cy="-208" rx="51.19" ry="18"/>
<text text-anchor="middle" x="242" y="-204.3" font-family="Times,serif" font-size="14.00">केचित्(5.1)</text>
</g>
<!-- Node5_1&#45;&gt;Node12_1 -->
<g id="edge4" class="edge">
<title>Node5_1&#45;&gt;Node12_1</title>
<path fill="none" stroke="black" d="M247.13,-236.27C249.64,-249.58 252.58,-265.19 254.77,-276.82"/>
<polygon fill="black" stroke="black" points="250.53,-235.38 245.24,-226.2 243.65,-236.68 250.53,-235.38"/>
<text text-anchor="middle" x="262" y="-247.8" font-family="Times,serif" font-size="14.00">कर्ता</text>
</g>
<!-- Node7_1 -->
<g id="node12" class="node">
<title>Node7_1</title>
<ellipse fill="#ffff00" stroke="#ffff00" cx="359" cy="-34" rx="47.39" ry="18"/>
<text text-anchor="middle" x="359" y="-30.3" font-family="Times,serif" font-size="14.00">मनो&#45;(7.1)</text>
</g>
<!-- Node7_1&#45;&gt;Node7_2 -->
<g id="edge6" class="edge">
<title>Node7_1&#45;&gt;Node7_2</title>
<path fill="none" stroke="black" d="M359,-62.27C359,-75.58 359,-91.19 359,-102.82"/>
<polygon fill="black" stroke="black" points="362.5,-62.2 359,-52.2 355.5,-62.2 362.5,-62.2"/>
<text text-anchor="middle" x="376" y="-73.8" font-family="Times,serif" font-size="14.00">समासः</text>
</g>
<!-- Node9_1 -->
<g id="node14" class="node">
<title>Node9_1</title>
<ellipse fill="#ff99ff" stroke="#ff99ff" cx="389" cy="-295" rx="37.89" ry="18"/>
<text text-anchor="middle" x="389" y="-291.3" font-family="Times,serif" font-size="14.00">च(9.1)</text>
</g>
<!-- Node9_1&#45;&gt;Node13_1 -->
<g id="edge9" class="edge">
<title>Node9_1&#45;&gt;Node13_1</title>
<path fill="none" stroke="black" d="M398.36,-322.53C403.13,-336.05 408.8,-352.09 412.98,-363.95"/>
<polygon fill="black" stroke="black" points="401.56,-321.06 394.93,-312.79 394.95,-323.39 401.56,-321.06"/>
<text text-anchor="middle" x="423.5" y="-334.8" font-family="Times,serif" font-size="14.00">सम्बन्धः</text>
</g>
<!-- Node10_1 -->
<g id="node15" class="node">
<title>Node10_1</title>
<ellipse fill="#ffff00" stroke="#ffff00" cx="504" cy="-121" rx="53.89" ry="18"/>
<text text-anchor="middle" x="504" y="-117.3" font-family="Times,serif" font-size="14.00">नगर&#45;(10.1)</text>
</g>
<!-- Node10_1&#45;&gt;Node10_2 -->
<g id="edge10" class="edge">
<title>Node10_1&#45;&gt;Node10_2</title>
<path fill="none" stroke="black" d="M504,-149.27C504,-162.58 504,-178.19 504,-189.82"/>
<polygon fill="black" stroke="black" points="507.5,-149.2 504,-139.2 500.5,-149.2 507.5,-149.2"/>
<text text-anchor="middle" x="521" y="-160.8" font-family="Times,serif" font-size="14.00">समासः</text>
</g>
<!-- Node11_1 -->
<g id="node16" class="node">
<title>Node11_1</title>
<ellipse fill="#ffff00" stroke="#ffff00" cx="638" cy="-34" rx="60.39" ry="18"/>
<text text-anchor="middle" x="638" y="-30.3" font-family="Times,serif" font-size="14.00">प्रदीप्त&#45;(11.1)</text>
</g>
<!-- Node11_2 -->
<g id="node17" class="node">
<title>Node11_2</title>
<ellipse fill="#ffff00" stroke="#ffff00" cx="638" cy="-121" rx="59.59" ry="18"/>
<text text-anchor="middle" x="638" y="-117.3" font-family="Times,serif" font-size="14.00">ज्वलन&#45;(11.2)</text>
</g>
<!-- Node11_1&#45;&gt;Node11_2 -->
<g id="edge12" class="edge">
<title>Node11_1&#45;&gt;Node11_2</title>
<path fill="none" stroke="black" d="M638,-62.27C638,-75.58 638,-91.19 638,-102.82"/>
<polygon fill="black" stroke="black" points="641.5,-62.2 638,-52.2 634.5,-62.2 641.5,-62.2"/>
<text text-anchor="middle" x="655" y="-73.8" font-family="Times,serif" font-size="14.00">समासः</text>
</g>
<!-- Node11_2&#45;&gt;Node11_3 -->
<g id="edge13" class="edge">
<title>Node11_2&#45;&gt;Node11_3</title>
<path fill="none" stroke="black" d="M638,-149.27C638,-162.58 638,-178.19 638,-189.82"/>
<polygon fill="black" stroke="black" points="641.5,-149.2 638,-139.2 634.5,-149.2 641.5,-149.2"/>
<text text-anchor="middle" x="655" y="-160.8" font-family="Times,serif" font-size="14.00">समासः</text>
</g>
</g>
</svg>
