<?xml version="1.0" encoding="UTF-8" standalone="no"?>
<!DOCTYPE svg PUBLIC "-//W3C//DTD SVG 1.1//EN"
 "http://www.w3.org/Graphics/SVG/1.1/DTD/svg11.dtd">
<!-- Generated by graphviz version 2.43.0 (0)
 -->
<!-- Title: G Pages: 1 -->
<svg width="620pt" height="305pt"
 viewBox="0.00 0.00 620.39 305.00" xmlns="http://www.w3.org/2000/svg" xmlns:xlink="http://www.w3.org/1999/xlink">
<g id="graph0" class="graph" transform="scale(1 1) rotate(0) translate(4 301)">
<title>G</title>
<polygon fill="#fffacd" stroke="transparent" points="-4,4 -4,-301 616.39,-301 616.39,4 -4,4"/>
<!-- Node1_1 -->
<g id="node1" class="node">
<title>Node1_1</title>
<ellipse fill="#ffff00" stroke="#ffff00" cx="331.9" cy="-105" rx="46.29" ry="18"/>
<text text-anchor="middle" x="331.9" y="-101.3" font-family="Times,serif" font-size="14.00">पौर&#45;(1.1)</text>
</g>
<!-- Node1_2 -->
<g id="node2" class="node">
<title>Node1_2</title>
<ellipse fill="#00bfff" stroke="#00bfff" cx="418.9" cy="-192" rx="59.59" ry="18"/>
<text text-anchor="middle" x="418.9" y="-188.3" font-family="Times,serif" font-size="14.00">जानपदाः(1.2)</text>
</g>
<!-- Node1_1&#45;&gt;Node1_2 -->
<g id="edge1" class="edge">
<title>Node1_1&#45;&gt;Node1_2</title>
<path fill="none" stroke="black" d="M355.55,-129.11C370.24,-143.47 388.79,-161.59 402.01,-174.5"/>
<polygon fill="black" stroke="black" points="357.86,-126.47 348.26,-121.99 352.97,-131.48 357.86,-126.47"/>
<text text-anchor="middle" x="396.9" y="-144.8" font-family="Times,serif" font-size="14.00">समासः</text>
</g>
<!-- Node7_1 -->
<g id="node3" class="node">
<title>Node7_1</title>
<ellipse fill="#ff1975" stroke="#ff1975" cx="295.9" cy="-279" rx="53.09" ry="18"/>
<text text-anchor="middle" x="295.9" y="-275.3" font-family="Times,serif" font-size="14.00">अन्वयुः(7.1)</text>
</g>
<!-- Node1_2&#45;&gt;Node7_1 -->
<g id="edge2" class="edge">
<title>Node1_2&#45;&gt;Node7_1</title>
<path fill="none" stroke="black" d="M398.39,-217.29C390.14,-226.11 380.16,-235.69 369.9,-243 357.62,-251.74 342.83,-259.24 329.7,-265.03"/>
<polygon fill="black" stroke="black" points="401.04,-219.57 405.16,-209.81 395.85,-214.88 401.04,-219.57"/>
<text text-anchor="middle" x="397.9" y="-231.8" font-family="Times,serif" font-size="14.00">कर्ता</text>
</g>
<!-- Node2_1 -->
<g id="node4" class="node">
<title>Node2_1</title>
<ellipse fill="#ff99ff" stroke="#ff99ff" cx="433.9" cy="-105" rx="37.89" ry="18"/>
<text text-anchor="middle" x="433.9" y="-101.3" font-family="Times,serif" font-size="14.00">च(2.1)</text>
</g>
<!-- Node2_1&#45;&gt;Node1_2 -->
<g id="edge3" class="edge">
<title>Node2_1&#45;&gt;Node1_2</title>
<path fill="none" stroke="black" d="M429.08,-133.27C426.73,-146.58 423.98,-162.19 421.93,-173.82"/>
<polygon fill="black" stroke="black" points="432.57,-133.66 430.86,-123.2 425.67,-132.44 432.57,-133.66"/>
<text text-anchor="middle" x="445.4" y="-144.8" font-family="Times,serif" font-size="14.00">सम्बन्धः</text>
</g>
<!-- Node3_1 -->
<g id="node5" class="node">
<title>Node3_1</title>
<ellipse fill="#ff99ff" stroke="#ff99ff" cx="433.9" cy="-18" rx="41.69" ry="18"/>
<text text-anchor="middle" x="433.9" y="-14.3" font-family="Times,serif" font-size="14.00">एव(3.1)</text>
</g>
<!-- Node3_1&#45;&gt;Node2_1 -->
<g id="edge4" class="edge">
<title>Node3_1&#45;&gt;Node2_1</title>
<path fill="none" stroke="black" d="M433.9,-46.27C433.9,-59.58 433.9,-75.19 433.9,-86.82"/>
<polygon fill="black" stroke="black" points="437.4,-46.2 433.9,-36.2 430.4,-46.2 437.4,-46.2"/>
<text text-anchor="middle" x="452.4" y="-57.8" font-family="Times,serif" font-size="14.00">सम्बन्धः</text>
</g>
<!-- Node4_1 -->
<g id="node6" class="node">
<title>Node4_1</title>
<ellipse fill="#40e0d0" stroke="#40e0d0" cx="55.9" cy="-192" rx="46.59" ry="18"/>
<text text-anchor="middle" x="55.9" y="-188.3" font-family="Times,serif" font-size="14.00">यानैः(4.1)</text>
</g>
<!-- Node4_1&#45;&gt;Node7_1 -->
<g id="edge5" class="edge">
<title>Node4_1&#45;&gt;Node7_1</title>
<path fill="none" stroke="black" d="M97.76,-208.55C124.84,-218.55 160.89,-231.72 192.9,-243 214.8,-250.72 239.44,-259.1 259.12,-265.73"/>
<polygon fill="black" stroke="black" points="98.8,-205.21 88.21,-205.02 96.37,-211.77 98.8,-205.21"/>
<text text-anchor="middle" x="209.4" y="-231.8" font-family="Times,serif" font-size="14.00">करणम्</text>
</g>
<!-- Node5_1 -->
<g id="node7" class="node">
<title>Node5_1</title>
<ellipse fill="#40e0d0" stroke="#40e0d0" cx="55.9" cy="-105" rx="55.79" ry="18"/>
<text text-anchor="middle" x="55.9" y="-101.3" font-family="Times,serif" font-size="14.00">बहुविधैः(5.1)</text>
</g>
<!-- Node5_1&#45;&gt;Node4_1 -->
<g id="edge6" class="edge">
<title>Node5_1&#45;&gt;Node4_1</title>
<path fill="none" stroke="black" d="M55.9,-133.27C55.9,-146.58 55.9,-162.19 55.9,-173.82"/>
<polygon fill="black" stroke="black" points="59.4,-133.2 55.9,-123.2 52.4,-133.2 59.4,-133.2"/>
<text text-anchor="middle" x="77.4" y="-144.8" font-family="Times,serif" font-size="14.00">विशेषमम्</text>
</g>
<!-- Node6_1 -->
<g id="node8" class="node">
<title>Node6_1</title>
<ellipse fill="#ff99ff" stroke="#ff99ff" cx="295.9" cy="-192" rx="44.69" ry="18"/>
<text text-anchor="middle" x="295.9" y="-188.3" font-family="Times,serif" font-size="14.00">तथा(6.1)</text>
</g>
<!-- Node6_1&#45;&gt;Node7_1 -->
<g id="edge7" class="edge">
<title>Node6_1&#45;&gt;Node7_1</title>
<path fill="none" stroke="black" d="M295.9,-220.27C295.9,-233.58 295.9,-249.19 295.9,-260.82"/>
<polygon fill="black" stroke="black" points="299.4,-220.2 295.9,-210.2 292.4,-220.2 299.4,-220.2"/>
<text text-anchor="middle" x="330.9" y="-231.8" font-family="Times,serif" font-size="14.00">क्रियाविशेषणम्</text>
</g>
<!-- Node8_1 -->
<g id="node9" class="node">
<title>Node8_1</title>
<ellipse fill="#ffff00" stroke="#ffff00" cx="176.9" cy="-105" rx="46.29" ry="18"/>
<text text-anchor="middle" x="176.9" y="-101.3" font-family="Times,serif" font-size="14.00">कुरु&#45;(8.1)</text>
</g>
<!-- Node8_2 -->
<g id="node10" class="node">
<title>Node8_2</title>
<ellipse fill="#93db70" stroke="#93db70" cx="176.9" cy="-192" rx="55.79" ry="18"/>
<text text-anchor="middle" x="176.9" y="-188.3" font-family="Times,serif" font-size="14.00">राजानम्(8.2)</text>
</g>
<!-- Node8_1&#45;&gt;Node8_2 -->
<g id="edge8" class="edge">
<title>Node8_1&#45;&gt;Node8_2</title>
<path fill="none" stroke="black" d="M176.9,-133.27C176.9,-146.58 176.9,-162.19 176.9,-173.82"/>
<polygon fill="black" stroke="black" points="180.4,-133.2 176.9,-123.2 173.4,-133.2 180.4,-133.2"/>
<text text-anchor="middle" x="205.9" y="-144.8" font-family="Times,serif" font-size="14.00">षष्ठीतत्पुरुषः</text>
</g>
<!-- Node8_2&#45;&gt;Node7_1 -->
<g id="edge9" class="edge">
<title>Node8_2&#45;&gt;Node7_1</title>
<path fill="none" stroke="black" d="M206.97,-214.48C227.92,-229.45 255.38,-249.06 274.21,-262.51"/>
<polygon fill="black" stroke="black" points="208.89,-211.55 198.72,-208.59 204.82,-217.25 208.89,-211.55"/>
<text text-anchor="middle" x="252.9" y="-231.8" font-family="Times,serif" font-size="14.00">कर्म</text>
</g>
<!-- Node9_1 -->
<g id="node11" class="node">
<title>Node9_1</title>
<ellipse fill="#ffff00" stroke="#ffff00" cx="553.9" cy="-105" rx="58.49" ry="18"/>
<text text-anchor="middle" x="553.9" y="-101.3" font-family="Times,serif" font-size="14.00">धृतराष्ट्र&#45;(9.1)</text>
</g>
<!-- Node9_2 -->
<g id="node12" class="node">
<title>Node9_2</title>
<ellipse fill="#40e0d0" stroke="#40e0d0" cx="553.9" cy="-192" rx="57.39" ry="18"/>
<text text-anchor="middle" x="553.9" y="-188.3" font-family="Times,serif" font-size="14.00">दिदृक्षया(9.2)</text>
</g>
<!-- Node9_1&#45;&gt;Node9_2 -->
<g id="edge10" class="edge">
<title>Node9_1&#45;&gt;Node9_2</title>
<path fill="none" stroke="black" d="M553.9,-133.27C553.9,-146.58 553.9,-162.19 553.9,-173.82"/>
<polygon fill="black" stroke="black" points="557.4,-133.2 553.9,-123.2 550.4,-133.2 557.4,-133.2"/>
<text text-anchor="middle" x="582.9" y="-144.8" font-family="Times,serif" font-size="14.00">षष्ठीतत्पुरुषः</text>
</g>
<!-- Node9_2&#45;&gt;Node7_1 -->
<g id="edge11" class="edge">
<title>Node9_2&#45;&gt;Node7_1</title>
<path fill="none" stroke="black" d="M508.67,-209.69C481.11,-219.69 445.11,-232.48 412.9,-243 387.2,-251.39 358.08,-260.11 335.31,-266.74"/>
<polygon fill="black" stroke="black" points="510.23,-212.84 518.43,-206.13 507.83,-206.27 510.23,-212.84"/>
<text text-anchor="middle" x="464.4" y="-231.8" font-family="Times,serif" font-size="14.00">हेतुः</text>
</g>
</g>
</svg>
