<?xml version="1.0" encoding="UTF-8" standalone="no"?>
<!DOCTYPE svg PUBLIC "-//W3C//DTD SVG 1.1//EN"
 "http://www.w3.org/Graphics/SVG/1.1/DTD/svg11.dtd">
<!-- Generated by graphviz version 2.43.0 (0)
 -->
<!-- Title: G Pages: 1 -->
<svg width="569pt" height="392pt"
 viewBox="0.00 0.00 568.54 392.00" xmlns="http://www.w3.org/2000/svg" xmlns:xlink="http://www.w3.org/1999/xlink">
<g id="graph0" class="graph" transform="scale(1 1) rotate(0) translate(4 388)">
<title>G</title>
<polygon fill="#fffacd" stroke="transparent" points="-4,4 -4,-388 564.54,-388 564.54,4 -4,4"/>
<g id="clust1" class="cluster">
<title>cluster_1</title>
<polygon fill="#fffacd" stroke="black" points="108.4,-166 108.4,-305 458.4,-305 458.4,-166 108.4,-166"/>
</g>
<!-- Node5_2 -->
<g id="node1" class="node">
<title>Node5_2</title>
<ellipse fill="#00bfff" stroke="#00bfff" cx="166.4" cy="-192" rx="50.09" ry="18"/>
<text text-anchor="middle" x="166.4" y="-188.3" font-family="Times,serif" font-size="14.00">संवृतौ(5.2)</text>
</g>
<!-- Node1_2 -->
<g id="node2" class="node">
<title>Node1_2</title>
<ellipse fill="#00bfff" stroke="#00bfff" cx="237.4" cy="-279" rx="44.69" ry="18"/>
<text text-anchor="middle" x="237.4" y="-275.3" font-family="Times,serif" font-size="14.00">पुत्रौ(1.2)</text>
</g>
<!-- Node5_2&#45;&gt;Node1_2 -->
<g id="edge8" class="edge">
<title>Node5_2&#45;&gt;Node1_2</title>
<path fill="none" stroke="black" d="M186.7,-217.31C198.58,-231.53 213.25,-249.09 223.75,-261.66"/>
<polygon fill="black" stroke="black" points="189.18,-214.82 180.09,-209.39 183.81,-219.31 189.18,-214.82"/>
<text text-anchor="middle" x="227.9" y="-231.8" font-family="Times,serif" font-size="14.00">विशेषणम्</text>
</g>
<!-- Node6_1 -->
<g id="node6" class="node">
<title>Node6_1</title>
<ellipse fill="#ff1975" stroke="#ff1975" cx="101.4" cy="-366" rx="52.79" ry="18"/>
<text text-anchor="middle" x="101.4" y="-362.3" font-family="Times,serif" font-size="14.00">जग्मतुः(6.1)</text>
</g>
<!-- Node1_2&#45;&gt;Node6_1 -->
<g id="edge2" class="edge">
<title>Node1_2&#45;&gt;Node6_1</title>
<path fill="none" stroke="black" d="M205.48,-299.95C181.14,-315.16 148.11,-335.8 125.84,-349.72"/>
<polygon fill="black" stroke="black" points="207.39,-302.88 214.02,-294.61 203.68,-296.94 207.39,-302.88"/>
<text text-anchor="middle" x="188.4" y="-318.8" font-family="Times,serif" font-size="14.00">कर्ता</text>
</g>
<!-- Node7_2 -->
<g id="node3" class="node">
<title>Node7_2</title>
<ellipse fill="#00bfff" stroke="#00bfff" cx="284.4" cy="-192" rx="50.09" ry="18"/>
<text text-anchor="middle" x="284.4" y="-188.3" font-family="Times,serif" font-size="14.00">जननौ(7.2)</text>
</g>
<!-- Node7_2&#45;&gt;Node1_2 -->
<g id="edge10" class="edge">
<title>Node7_2&#45;&gt;Node1_2</title>
<path fill="none" stroke="black" d="M270.13,-218.8C262.51,-232.58 253.35,-249.14 246.66,-261.24"/>
<polygon fill="black" stroke="black" points="273.33,-220.24 275.11,-209.79 267.21,-216.85 273.33,-220.24"/>
<text text-anchor="middle" x="285.9" y="-231.8" font-family="Times,serif" font-size="14.00">विशेषणम्</text>
</g>
<!-- Node8_3 -->
<g id="node4" class="node">
<title>Node8_3</title>
<ellipse fill="#00bfff" stroke="#00bfff" cx="401.4" cy="-192" rx="48.99" ry="18"/>
<text text-anchor="middle" x="401.4" y="-188.3" font-family="Times,serif" font-size="14.00">ध्वजौ(8.3)</text>
</g>
<!-- Node8_3&#45;&gt;Node1_2 -->
<g id="edge13" class="edge">
<title>Node8_3&#45;&gt;Node1_2</title>
<path fill="none" stroke="black" d="M367.61,-212.77C351.12,-222.22 330.89,-233.51 312.4,-243 297.44,-250.68 280.49,-258.65 266.49,-265.04"/>
<polygon fill="black" stroke="black" points="369.43,-215.76 376.35,-207.74 365.94,-209.69 369.43,-215.76"/>
<text text-anchor="middle" x="361.9" y="-231.8" font-family="Times,serif" font-size="14.00">विशेषणम्</text>
</g>
<!-- Node1_1 -->
<g id="node5" class="node">
<title>Node1_1</title>
<ellipse fill="#ffff00" stroke="#ffff00" cx="49.4" cy="-192" rx="49.29" ry="18"/>
<text text-anchor="middle" x="49.4" y="-188.3" font-family="Times,serif" font-size="14.00">माद्री&#45;(1.1)</text>
</g>
<!-- Node1_1&#45;&gt;Node1_2 -->
<g id="edge1" class="edge">
<title>Node1_1&#45;&gt;Node1_2</title>
<path fill="none" stroke="black" d="M88.5,-210.83C109.51,-220.4 135.85,-232.37 159.4,-243 175.63,-250.33 193.78,-258.48 208.49,-265.07"/>
<polygon fill="black" stroke="black" points="89.81,-207.58 79.26,-206.62 86.91,-213.95 89.81,-207.58"/>
<text text-anchor="middle" x="176.4" y="-231.8" font-family="Times,serif" font-size="14.00">समासः</text>
</g>
<!-- Node2_1 -->
<g id="node7" class="node">
<title>Node2_1</title>
<ellipse fill="#ff99ff" stroke="#ff99ff" cx="514.4" cy="-192" rx="46.29" ry="18"/>
<text text-anchor="middle" x="514.4" y="-188.3" font-family="Times,serif" font-size="14.00">अपि(2.1)</text>
</g>
<!-- Node2_1&#45;&gt;Node1_2 -->
<g id="edge3" class="edge">
<title>Node2_1&#45;&gt;Node1_2</title>
<path fill="none" stroke="black" d="M475.95,-210C451.27,-220.48 418.34,-233.65 388.4,-243 351.28,-254.59 307.95,-264.25 277.25,-270.46"/>
<polygon fill="black" stroke="black" points="477.5,-213.14 485.31,-205.99 474.74,-206.71 477.5,-213.14"/>
<text text-anchor="middle" x="448.9" y="-231.8" font-family="Times,serif" font-size="14.00">सम्बन्धः</text>
</g>
<!-- Node3_1 -->
<g id="node8" class="node">
<title>Node3_1</title>
<ellipse fill="#ff99ff" stroke="#ff99ff" cx="55.4" cy="-279" rx="44.69" ry="18"/>
<text text-anchor="middle" x="55.4" y="-275.3" font-family="Times,serif" font-size="14.00">तथा(3.1)</text>
</g>
<!-- Node3_1&#45;&gt;Node6_1 -->
<g id="edge4" class="edge">
<title>Node3_1&#45;&gt;Node6_1</title>
<path fill="none" stroke="black" d="M69.36,-305.8C76.81,-319.58 85.78,-336.14 92.33,-348.24"/>
<polygon fill="black" stroke="black" points="72.32,-303.92 64.48,-296.79 66.17,-307.25 72.32,-303.92"/>
<text text-anchor="middle" x="116.4" y="-318.8" font-family="Times,serif" font-size="14.00">क्रियाविशेषणम्</text>
</g>
<!-- Node4_1 -->
<g id="node9" class="node">
<title>Node4_1</title>
<ellipse fill="#ffff00" stroke="#ffff00" cx="58.4" cy="-18" rx="44.39" ry="18"/>
<text text-anchor="middle" x="58.4" y="-14.3" font-family="Times,serif" font-size="14.00">हय&#45;(4.1)</text>
</g>
<!-- Node4_2 -->
<g id="node10" class="node">
<title>Node4_2</title>
<ellipse fill="#40e0d0" stroke="#40e0d0" cx="58.4" cy="-105" rx="53.09" ry="18"/>
<text text-anchor="middle" x="58.4" y="-101.3" font-family="Times,serif" font-size="14.00">आरोहैः(4.2)</text>
</g>
<!-- Node4_1&#45;&gt;Node4_2 -->
<g id="edge5" class="edge">
<title>Node4_1&#45;&gt;Node4_2</title>
<path fill="none" stroke="black" d="M58.4,-46.27C58.4,-59.58 58.4,-75.19 58.4,-86.82"/>
<polygon fill="black" stroke="black" points="61.9,-46.2 58.4,-36.2 54.9,-46.2 61.9,-46.2"/>
<text text-anchor="middle" x="75.4" y="-57.8" font-family="Times,serif" font-size="14.00">समासः</text>
</g>
<!-- Node4_2&#45;&gt;Node5_2 -->
<g id="edge6" class="edge">
<title>Node4_2&#45;&gt;Node5_2</title>
<path fill="none" stroke="black" d="M86.41,-128.05C105.23,-142.86 129.58,-162.02 146.44,-175.3"/>
<polygon fill="black" stroke="black" points="88.48,-125.22 78.46,-121.79 84.15,-130.72 88.48,-125.22"/>
<text text-anchor="middle" x="134.9" y="-144.8" font-family="Times,serif" font-size="14.00">करणम्</text>
</g>
<!-- Node5_1 -->
<g id="node11" class="node">
<title>Node5_1</title>
<ellipse fill="#ffff00" stroke="#ffff00" cx="170.4" cy="-105" rx="40.89" ry="18"/>
<text text-anchor="middle" x="170.4" y="-101.3" font-family="Times,serif" font-size="14.00">सु&#45;(5.1)</text>
</g>
<!-- Node5_1&#45;&gt;Node5_2 -->
<g id="edge7" class="edge">
<title>Node5_1&#45;&gt;Node5_2</title>
<path fill="none" stroke="black" d="M169.11,-133.27C168.49,-146.58 167.75,-162.19 167.2,-173.82"/>
<polygon fill="black" stroke="black" points="172.61,-133.35 169.59,-123.2 165.62,-133.03 172.61,-133.35"/>
<text text-anchor="middle" x="185.4" y="-144.8" font-family="Times,serif" font-size="14.00">समासः</text>
</g>
<!-- Node7_1 -->
<g id="node12" class="node">
<title>Node7_1</title>
<ellipse fill="#ffff00" stroke="#ffff00" cx="283.4" cy="-105" rx="50.09" ry="18"/>
<text text-anchor="middle" x="283.4" y="-101.3" font-family="Times,serif" font-size="14.00">प्रीति&#45;(7.1)</text>
</g>
<!-- Node7_1&#45;&gt;Node7_2 -->
<g id="edge9" class="edge">
<title>Node7_1&#45;&gt;Node7_2</title>
<path fill="none" stroke="black" d="M283.72,-133.27C283.87,-146.58 284.06,-162.19 284.19,-173.82"/>
<polygon fill="black" stroke="black" points="287.22,-133.16 283.6,-123.2 280.22,-133.24 287.22,-133.16"/>
<text text-anchor="middle" x="300.4" y="-144.8" font-family="Times,serif" font-size="14.00">समासः</text>
</g>
<!-- Node8_1 -->
<g id="node13" class="node">
<title>Node8_1</title>
<ellipse fill="#ffff00" stroke="#ffff00" cx="402.4" cy="-18" rx="51.19" ry="18"/>
<text text-anchor="middle" x="402.4" y="-14.3" font-family="Times,serif" font-size="14.00">संनद्ध&#45;(8.1)</text>
</g>
<!-- Node8_2 -->
<g id="node14" class="node">
<title>Node8_2</title>
<ellipse fill="#ffff00" stroke="#ffff00" cx="402.4" cy="-105" rx="51.19" ry="18"/>
<text text-anchor="middle" x="402.4" y="-101.3" font-family="Times,serif" font-size="14.00">कवच&#45;(8.2)</text>
</g>
<!-- Node8_1&#45;&gt;Node8_2 -->
<g id="edge11" class="edge">
<title>Node8_1&#45;&gt;Node8_2</title>
<path fill="none" stroke="black" d="M402.4,-46.27C402.4,-59.58 402.4,-75.19 402.4,-86.82"/>
<polygon fill="black" stroke="black" points="405.9,-46.2 402.4,-36.2 398.9,-46.2 405.9,-46.2"/>
<text text-anchor="middle" x="419.4" y="-57.8" font-family="Times,serif" font-size="14.00">समासः</text>
</g>
<!-- Node8_2&#45;&gt;Node8_3 -->
<g id="edge12" class="edge">
<title>Node8_2&#45;&gt;Node8_3</title>
<path fill="none" stroke="black" d="M402.07,-133.27C401.92,-146.58 401.73,-162.19 401.6,-173.82"/>
<polygon fill="black" stroke="black" points="405.58,-133.24 402.19,-123.2 398.58,-133.16 405.58,-133.24"/>
<text text-anchor="middle" x="418.4" y="-144.8" font-family="Times,serif" font-size="14.00">समासः</text>
</g>
</g>
</svg>
