<?xml version="1.0" encoding="UTF-8" standalone="no"?>
<!DOCTYPE svg PUBLIC "-//W3C//DTD SVG 1.1//EN"
 "http://www.w3.org/Graphics/SVG/1.1/DTD/svg11.dtd">
<!-- Generated by graphviz version 2.43.0 (0)
 -->
<!-- Title: G Pages: 1 -->
<svg width="646pt" height="321pt"
 viewBox="0.00 0.00 646.15 321.00" xmlns="http://www.w3.org/2000/svg" xmlns:xlink="http://www.w3.org/1999/xlink">
<g id="graph0" class="graph" transform="scale(1 1) rotate(0) translate(4 317)">
<title>G</title>
<polygon fill="#fffacd" stroke="transparent" points="-4,4 -4,-317 642.15,-317 642.15,4 -4,4"/>
<g id="clust1" class="cluster">
<title>cluster_1</title>
<polygon fill="#fffacd" stroke="black" points="8,-8 8,-147 286,-147 286,-8 8,-8"/>
</g>
<g id="clust2" class="cluster">
<title>cluster_2</title>
<polygon fill="#fffacd" stroke="black" points="406,-8 406,-147 536,-147 536,-8 406,-8"/>
</g>
<!-- Node1_1 -->
<g id="node1" class="node">
<title>Node1_1</title>
<ellipse fill="#40e0d0" stroke="#40e0d0" cx="220" cy="-34" rx="57.69" ry="18"/>
<text text-anchor="middle" x="220" y="-30.3" font-family="Times,serif" font-size="14.00">पाण्डुरेण(1.1)</text>
</g>
<!-- Node2_1 -->
<g id="node2" class="node">
<title>Node2_1</title>
<ellipse fill="#40e0d0" stroke="#40e0d0" cx="216" cy="-121" rx="61.99" ry="18"/>
<text text-anchor="middle" x="216" y="-117.3" font-family="Times,serif" font-size="14.00">आतपत्रेण(2.1)</text>
</g>
<!-- Node1_1&#45;&gt;Node2_1 -->
<g id="edge1" class="edge">
<title>Node1_1&#45;&gt;Node2_1</title>
<path fill="none" stroke="black" d="M218.72,-62.27C218.09,-75.58 217.36,-91.19 216.81,-102.82"/>
<polygon fill="black" stroke="black" points="222.22,-62.35 219.19,-52.2 215.22,-62.03 222.22,-62.35"/>
<text text-anchor="middle" x="240.5" y="-73.8" font-family="Times,serif" font-size="14.00">विशेषणम्</text>
</g>
<!-- Node8_2 -->
<g id="node6" class="node">
<title>Node8_2</title>
<ellipse fill="#00bfff" stroke="#00bfff" cx="471" cy="-208" rx="51.19" ry="18"/>
<text text-anchor="middle" x="471" y="-204.3" font-family="Times,serif" font-size="14.00">नन्दनः(8.2)</text>
</g>
<!-- Node2_1&#45;&gt;Node8_2 -->
<g id="edge2" class="edge">
<title>Node2_1&#45;&gt;Node8_2</title>
<path fill="none" stroke="black" d="M264.57,-138.19C314.25,-154.75 390.29,-180.1 434.89,-194.96"/>
<polygon fill="black" stroke="black" points="265.6,-134.84 255.01,-135 263.39,-141.48 265.6,-134.84"/>
<text text-anchor="middle" x="374" y="-160.8" font-family="Times,serif" font-size="14.00">सहार्थः</text>
</g>
<!-- Node3_1 -->
<g id="node3" class="node">
<title>Node3_1</title>
<ellipse fill="#40e0d0" stroke="#40e0d0" cx="80" cy="-34" rx="63.89" ry="18"/>
<text text-anchor="middle" x="80" y="-30.3" font-family="Times,serif" font-size="14.00">ध्रियमाणेन(3.1)</text>
</g>
<!-- Node3_1&#45;&gt;Node2_1 -->
<g id="edge3" class="edge">
<title>Node3_1&#45;&gt;Node2_1</title>
<path fill="none" stroke="black" d="M113.74,-56.09C137.76,-71.1 169.5,-90.94 191.21,-104.51"/>
<polygon fill="black" stroke="black" points="115.28,-52.92 104.94,-50.59 111.57,-58.86 115.28,-52.92"/>
<text text-anchor="middle" x="179.5" y="-73.8" font-family="Times,serif" font-size="14.00">विशेषणम्</text>
</g>
<!-- Node6_1 -->
<g id="node4" class="node">
<title>Node6_1</title>
<ellipse fill="#40e0d0" stroke="#40e0d0" cx="471" cy="-34" rx="48.99" ry="18"/>
<text text-anchor="middle" x="471" y="-30.3" font-family="Times,serif" font-size="14.00">महता(6.1)</text>
</g>
<!-- Node5_2 -->
<g id="node5" class="node">
<title>Node5_2</title>
<ellipse fill="#40e0d0" stroke="#40e0d0" cx="471" cy="-121" rx="57.39" ry="18"/>
<text text-anchor="middle" x="471" y="-117.3" font-family="Times,serif" font-size="14.00">अनीकेन(5.2)</text>
</g>
<!-- Node6_1&#45;&gt;Node5_2 -->
<g id="edge7" class="edge">
<title>Node6_1&#45;&gt;Node5_2</title>
<path fill="none" stroke="black" d="M471,-62.27C471,-75.58 471,-91.19 471,-102.82"/>
<polygon fill="black" stroke="black" points="474.5,-62.2 471,-52.2 467.5,-62.2 474.5,-62.2"/>
<text text-anchor="middle" x="493.5" y="-73.8" font-family="Times,serif" font-size="14.00">विशेषणम्</text>
</g>
<!-- Node5_2&#45;&gt;Node8_2 -->
<g id="edge6" class="edge">
<title>Node5_2&#45;&gt;Node8_2</title>
<path fill="none" stroke="black" d="M471,-149.27C471,-162.58 471,-178.19 471,-189.82"/>
<polygon fill="black" stroke="black" points="474.5,-149.2 471,-139.2 467.5,-149.2 474.5,-149.2"/>
<text text-anchor="middle" x="487" y="-160.8" font-family="Times,serif" font-size="14.00">सहार्थः</text>
</g>
<!-- Node7_1 -->
<g id="node9" class="node">
<title>Node7_1</title>
<ellipse fill="#ff1975" stroke="#ff1975" cx="471" cy="-295" rx="51.99" ry="18"/>
<text text-anchor="middle" x="471" y="-291.3" font-family="Times,serif" font-size="14.00">निर्ययौ(7.1)</text>
</g>
<!-- Node8_2&#45;&gt;Node7_1 -->
<g id="edge9" class="edge">
<title>Node8_2&#45;&gt;Node7_1</title>
<path fill="none" stroke="black" d="M471,-236.27C471,-249.58 471,-265.19 471,-276.82"/>
<polygon fill="black" stroke="black" points="474.5,-236.2 471,-226.2 467.5,-236.2 474.5,-236.2"/>
<text text-anchor="middle" x="482" y="-247.8" font-family="Times,serif" font-size="14.00">कर्ता</text>
</g>
<!-- Node4_1 -->
<g id="node7" class="node">
<title>Node4_1</title>
<ellipse fill="#c6e2eb" stroke="#c6e2eb" cx="346" cy="-34" rx="50.09" ry="18"/>
<text text-anchor="middle" x="346" y="-30.3" font-family="Times,serif" font-size="14.00">मूर्धनि(4.1)</text>
</g>
<!-- Node4_1&#45;&gt;Node2_1 -->
<g id="edge4" class="edge">
<title>Node4_1&#45;&gt;Node2_1</title>
<path fill="none" stroke="black" d="M314.68,-55.48C291.74,-70.48 261.06,-90.54 240.03,-104.29"/>
<polygon fill="black" stroke="black" points="316.6,-58.4 323.06,-50 312.77,-52.54 316.6,-58.4"/>
<text text-anchor="middle" x="315.5" y="-73.8" font-family="Times,serif" font-size="14.00">अधिकरणम्</text>
</g>
<!-- Node5_1 -->
<g id="node8" class="node">
<title>Node5_1</title>
<ellipse fill="#ffff00" stroke="#ffff00" cx="588" cy="-34" rx="44.39" ry="18"/>
<text text-anchor="middle" x="588" y="-30.3" font-family="Times,serif" font-size="14.00">रथ&#45;(5.1)</text>
</g>
<!-- Node5_1&#45;&gt;Node5_2 -->
<g id="edge5" class="edge">
<title>Node5_1&#45;&gt;Node5_2</title>
<path fill="none" stroke="black" d="M559.16,-56.34C547.08,-65.24 532.89,-75.66 520,-85 511.2,-91.38 501.46,-98.35 493,-104.38"/>
<polygon fill="black" stroke="black" points="561.55,-58.92 567.52,-50.17 557.4,-53.29 561.55,-58.92"/>
<text text-anchor="middle" x="567" y="-73.8" font-family="Times,serif" font-size="14.00">षष्ठीतत्पुरुषः</text>
</g>
<!-- Node8_1 -->
<g id="node10" class="node">
<title>Node8_1</title>
<ellipse fill="#ffff00" stroke="#ffff00" cx="592" cy="-121" rx="46.29" ry="18"/>
<text text-anchor="middle" x="592" y="-117.3" font-family="Times,serif" font-size="14.00">कुरु&#45;(8.1)</text>
</g>
<!-- Node8_1&#45;&gt;Node8_2 -->
<g id="edge8" class="edge">
<title>Node8_1&#45;&gt;Node8_2</title>
<path fill="none" stroke="black" d="M562.23,-142.92C540.79,-157.97 512.35,-177.95 492.96,-191.58"/>
<polygon fill="black" stroke="black" points="564.48,-145.61 570.65,-137 560.45,-139.88 564.48,-145.61"/>
<text text-anchor="middle" x="567" y="-160.8" font-family="Times,serif" font-size="14.00">षष्ठीतत्पुरुषः</text>
</g>
</g>
</svg>
