<?xml version="1.0" encoding="UTF-8" standalone="no"?>
<!DOCTYPE svg PUBLIC "-//W3C//DTD SVG 1.1//EN"
 "http://www.w3.org/Graphics/SVG/1.1/DTD/svg11.dtd">
<!-- Generated by graphviz version 2.43.0 (0)
 -->
<!-- Title: G Pages: 1 -->
<svg width="638pt" height="479pt"
 viewBox="0.00 0.00 638.00 479.00" xmlns="http://www.w3.org/2000/svg" xmlns:xlink="http://www.w3.org/1999/xlink">
<g id="graph0" class="graph" transform="scale(1 1) rotate(0) translate(4 475)">
<title>G</title>
<polygon fill="#fffacd" stroke="transparent" points="-4,4 -4,-475 634,-475 634,4 -4,4"/>
<g id="clust1" class="cluster">
<title>cluster_1</title>
<polygon fill="#fffacd" stroke="black" points="8,-79 8,-218 358,-218 358,-79 8,-79"/>
</g>
<g id="clust2" class="cluster">
<title>cluster_2</title>
<polygon fill="#fffacd" stroke="black" points="163,-253 163,-305 319,-305 319,-253 163,-253"/>
</g>
<!-- Node5_1 -->
<g id="node1" class="node">
<title>Node5_1</title>
<ellipse fill="#87ceeb" stroke="#87ceeb" cx="299" cy="-105" rx="51.19" ry="18"/>
<text text-anchor="middle" x="299" y="-101.3" font-family="Times,serif" font-size="14.00">राजर्षेः(5.1)</text>
</g>
<!-- Node8_1 -->
<g id="node2" class="node">
<title>Node8_1</title>
<ellipse fill="#87ceeb" stroke="#87ceeb" cx="189" cy="-192" rx="61.99" ry="18"/>
<text text-anchor="middle" x="189" y="-188.3" font-family="Times,serif" font-size="14.00">शतयूपस्य(8.1)</text>
</g>
<!-- Node5_1&#45;&gt;Node8_1 -->
<g id="edge4" class="edge">
<title>Node5_1&#45;&gt;Node8_1</title>
<path fill="none" stroke="black" d="M271.54,-128.09C260.55,-136.86 247.73,-146.98 236,-156 227.77,-162.33 218.64,-169.17 210.63,-175.11"/>
<polygon fill="black" stroke="black" points="273.92,-130.67 279.54,-121.7 269.54,-125.21 273.92,-130.67"/>
<text text-anchor="middle" x="278.5" y="-144.8" font-family="Times,serif" font-size="14.00">विशेषणम्</text>
</g>
<!-- Node10_1 -->
<g id="node5" class="node">
<title>Node10_1</title>
<ellipse fill="#87ceeb" stroke="#87ceeb" cx="241" cy="-279" rx="70.39" ry="18"/>
<text text-anchor="middle" x="241" y="-275.3" font-family="Times,serif" font-size="14.00">धृतराष्ट्रस्य(10.1)</text>
</g>
<!-- Node8_1&#45;&gt;Node10_1 -->
<g id="edge7" class="edge">
<title>Node8_1&#45;&gt;Node10_1</title>
<path fill="none" stroke="black" d="M199.02,-219.69C202.39,-227.45 206.45,-235.78 211,-243 215.01,-249.37 220.11,-255.78 224.98,-261.34"/>
<polygon fill="black" stroke="black" points="202.2,-218.21 195.15,-210.29 195.72,-220.87 202.2,-218.21"/>
<text text-anchor="middle" x="233.5" y="-231.8" font-family="Times,serif" font-size="14.00">समुच्चितः</text>
</g>
<!-- Node6_1 -->
<g id="node3" class="node">
<title>Node6_1</title>
<ellipse fill="#87ceeb" stroke="#87ceeb" cx="184" cy="-105" rx="46.29" ry="18"/>
<text text-anchor="middle" x="184" y="-101.3" font-family="Times,serif" font-size="14.00">तस्य(6.1)</text>
</g>
<!-- Node6_1&#45;&gt;Node8_1 -->
<g id="edge5" class="edge">
<title>Node6_1&#45;&gt;Node8_1</title>
<path fill="none" stroke="black" d="M185.6,-133.27C186.39,-146.58 187.31,-162.19 187.99,-173.82"/>
<polygon fill="black" stroke="black" points="189.09,-132.98 185.01,-123.2 182.11,-133.39 189.09,-132.98"/>
<text text-anchor="middle" x="209.5" y="-144.8" font-family="Times,serif" font-size="14.00">विशेषणम्</text>
</g>
<!-- Node7_1 -->
<g id="node4" class="node">
<title>Node7_1</title>
<ellipse fill="#87ceeb" stroke="#87ceeb" cx="68" cy="-105" rx="51.99" ry="18"/>
<text text-anchor="middle" x="68" y="-101.3" font-family="Times,serif" font-size="14.00">धीमतः(7.1)</text>
</g>
<!-- Node7_1&#45;&gt;Node8_1 -->
<g id="edge6" class="edge">
<title>Node7_1&#45;&gt;Node8_1</title>
<path fill="none" stroke="black" d="M97.59,-127.32C110.03,-136.24 124.68,-146.67 138,-156 147.06,-162.34 157.09,-169.25 165.83,-175.24"/>
<polygon fill="black" stroke="black" points="99.54,-124.41 89.37,-121.42 95.45,-130.1 99.54,-124.41"/>
<text text-anchor="middle" x="160.5" y="-144.8" font-family="Times,serif" font-size="14.00">विशेषणम्</text>
</g>
<!-- Node3_1 -->
<g id="node8" class="node">
<title>Node3_1</title>
<ellipse fill="#93db70" stroke="#93db70" cx="241" cy="-366" rx="55.79" ry="18"/>
<text text-anchor="middle" x="241" y="-362.3" font-family="Times,serif" font-size="14.00">आश्रमम्(3.1)</text>
</g>
<!-- Node10_1&#45;&gt;Node3_1 -->
<g id="edge9" class="edge">
<title>Node10_1&#45;&gt;Node3_1</title>
<path fill="none" stroke="black" d="M241,-307.27C241,-320.58 241,-336.19 241,-347.82"/>
<polygon fill="black" stroke="black" points="244.5,-307.2 241,-297.2 237.5,-307.2 244.5,-307.2"/>
<text text-anchor="middle" x="268.5" y="-318.8" font-family="Times,serif" font-size="14.00">षष्ठीसम्बन्धः</text>
</g>
<!-- Node1_1 -->
<g id="node6" class="node">
<title>Node1_1</title>
<ellipse fill="#00bfff" stroke="#00bfff" cx="355" cy="-366" rx="40.09" ry="18"/>
<text text-anchor="middle" x="355" y="-362.3" font-family="Times,serif" font-size="14.00">सः(1.1)</text>
</g>
<!-- Node2_1 -->
<g id="node7" class="node">
<title>Node2_1</title>
<ellipse fill="#ff1975" stroke="#ff1975" cx="408" cy="-453" rx="46.59" ry="18"/>
<text text-anchor="middle" x="408" y="-449.3" font-family="Times,serif" font-size="14.00">ददर्श(2.1)</text>
</g>
<!-- Node1_1&#45;&gt;Node2_1 -->
<g id="edge1" class="edge">
<title>Node1_1&#45;&gt;Node2_1</title>
<path fill="none" stroke="black" d="M370.84,-392.4C379.48,-406.26 389.93,-423.03 397.55,-435.24"/>
<polygon fill="black" stroke="black" points="373.73,-390.43 365.47,-383.79 367.79,-394.13 373.73,-390.43"/>
<text text-anchor="middle" x="396" y="-405.8" font-family="Times,serif" font-size="14.00">कर्ता</text>
</g>
<!-- Node3_1&#45;&gt;Node2_1 -->
<g id="edge2" class="edge">
<title>Node3_1&#45;&gt;Node2_1</title>
<path fill="none" stroke="black" d="M278.95,-386.31C310.08,-402.16 353.37,-424.2 381.05,-438.28"/>
<polygon fill="black" stroke="black" points="280.21,-383.03 269.71,-381.61 277.03,-389.27 280.21,-383.03"/>
<text text-anchor="middle" x="344" y="-405.8" font-family="Times,serif" font-size="14.00">कर्म</text>
</g>
<!-- Node4_1 -->
<g id="node9" class="node">
<title>Node4_1</title>
<ellipse fill="#b4ffb4" stroke="#b4ffb4" cx="461" cy="-366" rx="47.39" ry="18"/>
<text text-anchor="middle" x="461" y="-362.3" font-family="Times,serif" font-size="14.00">दूरात्(4.1)</text>
</g>
<!-- Node4_1&#45;&gt;Node2_1 -->
<g id="edge3" class="edge">
<title>Node4_1&#45;&gt;Node2_1</title>
<path fill="none" stroke="black" d="M445.16,-392.4C436.52,-406.26 426.07,-423.03 418.45,-435.24"/>
<polygon fill="black" stroke="black" points="448.21,-394.13 450.53,-383.79 442.27,-390.43 448.21,-394.13"/>
<text text-anchor="middle" x="472" y="-405.8" font-family="Times,serif" font-size="14.00">क्रियाविशेषणम्</text>
</g>
<!-- Node9_1 -->
<g id="node10" class="node">
<title>Node9_1</title>
<ellipse fill="#6fffc3" stroke="#6fffc3" cx="578" cy="-366" rx="51.99" ry="18"/>
<text text-anchor="middle" x="578" y="-362.3" font-family="Times,serif" font-size="14.00">कौरव्य(9.1)</text>
</g>
<!-- Node9_1&#45;&gt;Node2_1 -->
<g id="edge8" class="edge">
<title>Node9_1&#45;&gt;Node2_1</title>
<path fill="none" stroke="black" d="M552.21,-389.24C540.25,-398.74 525.51,-409.37 511,-417 490.44,-427.82 465.86,-436.32 445.87,-442.23"/>
<polygon fill="black" stroke="black" points="554.45,-391.93 560,-382.9 550.03,-386.5 554.45,-391.93"/>
<text text-anchor="middle" x="555" y="-405.8" font-family="Times,serif" font-size="14.00">सम्बोध्यः</text>
</g>
<!-- Node11_1 -->
<g id="node11" class="node">
<title>Node11_1</title>
<ellipse fill="#ff99ff" stroke="#ff99ff" cx="413" cy="-192" rx="43.59" ry="18"/>
<text text-anchor="middle" x="413" y="-188.3" font-family="Times,serif" font-size="14.00">च(11.1)</text>
</g>
<!-- Node11_1&#45;&gt;Node10_1 -->
<g id="edge10" class="edge">
<title>Node11_1&#45;&gt;Node10_1</title>
<path fill="none" stroke="black" d="M376.92,-210.83C345.76,-226.23 301.24,-248.23 271.75,-262.8"/>
<polygon fill="black" stroke="black" points="378.71,-213.85 386.12,-206.28 375.61,-207.57 378.71,-213.85"/>
<text text-anchor="middle" x="376" y="-231.8" font-family="Times,serif" font-size="14.00">समुच्चय_द्योतकः</text>
</g>
<!-- Node12_1 -->
<g id="node12" class="node">
<title>Node12_1</title>
<ellipse fill="#ff99ff" stroke="#ff99ff" cx="416" cy="-105" rx="47.39" ry="18"/>
<text text-anchor="middle" x="416" y="-101.3" font-family="Times,serif" font-size="14.00">एव(12.1)</text>
</g>
<!-- Node12_1&#45;&gt;Node11_1 -->
<g id="edge11" class="edge">
<title>Node12_1&#45;&gt;Node11_1</title>
<path fill="none" stroke="black" d="M415.04,-133.27C414.57,-146.58 414.02,-162.19 413.61,-173.82"/>
<polygon fill="black" stroke="black" points="418.54,-133.32 415.39,-123.2 411.54,-133.07 418.54,-133.32"/>
<text text-anchor="middle" x="433.5" y="-144.8" font-family="Times,serif" font-size="14.00">सम्बन्धः</text>
</g>
<!-- Node13_1 -->
<g id="node13" class="node">
<title>Node13_1</title>
<ellipse fill="#ff99ff" stroke="#ff99ff" cx="416" cy="-18" rx="42.49" ry="18"/>
<text text-anchor="middle" x="416" y="-14.3" font-family="Times,serif" font-size="14.00">ह(13.1)</text>
</g>
<!-- Node13_1&#45;&gt;Node12_1 -->
<g id="edge12" class="edge">
<title>Node13_1&#45;&gt;Node12_1</title>
<path fill="none" stroke="black" d="M416,-46.27C416,-59.58 416,-75.19 416,-86.82"/>
<polygon fill="black" stroke="black" points="419.5,-46.2 416,-36.2 412.5,-46.2 419.5,-46.2"/>
<text text-anchor="middle" x="434.5" y="-57.8" font-family="Times,serif" font-size="14.00">सम्बन्धः</text>
</g>
</g>
</svg>
