<?xml version="1.0" encoding="UTF-8" standalone="no"?>
<!DOCTYPE svg PUBLIC "-//W3C//DTD SVG 1.1//EN"
 "http://www.w3.org/Graphics/SVG/1.1/DTD/svg11.dtd">
<!-- Generated by graphviz version 2.43.0 (0)
 -->
<!-- Title: G Pages: 1 -->
<svg width="711pt" height="305pt"
 viewBox="0.00 0.00 711.30 305.00" xmlns="http://www.w3.org/2000/svg" xmlns:xlink="http://www.w3.org/1999/xlink">
<g id="graph0" class="graph" transform="scale(1 1) rotate(0) translate(4 301)">
<title>G</title>
<polygon fill="#fffacd" stroke="transparent" points="-4,4 -4,-301 707.3,-301 707.3,4 -4,4"/>
<g id="clust1" class="cluster">
<title>cluster_1</title>
<polygon fill="#fffacd" stroke="black" points="8,-79 8,-218 120,-218 120,-79 8,-79"/>
</g>
<g id="clust2" class="cluster">
<title>cluster_2</title>
<polygon fill="#fffacd" stroke="black" points="128,-79 128,-218 260,-218 260,-79 128,-79"/>
</g>
<!-- Node4_1 -->
<g id="node1" class="node">
<title>Node4_1</title>
<ellipse fill="#93db70" stroke="#93db70" cx="64" cy="-105" rx="42.49" ry="18"/>
<text text-anchor="middle" x="64" y="-101.3" font-family="Times,serif" font-size="14.00">तम्(4.1)</text>
</g>
<!-- Node3_1 -->
<g id="node2" class="node">
<title>Node3_1</title>
<ellipse fill="#93db70" stroke="#93db70" cx="64" cy="-192" rx="48.19" ry="18"/>
<text text-anchor="middle" x="64" y="-188.3" font-family="Times,serif" font-size="14.00">जनम्(3.1)</text>
</g>
<!-- Node4_1&#45;&gt;Node3_1 -->
<g id="edge3" class="edge">
<title>Node4_1&#45;&gt;Node3_1</title>
<path fill="none" stroke="black" d="M64,-133.27C64,-146.58 64,-162.19 64,-173.82"/>
<polygon fill="black" stroke="black" points="67.5,-133.2 64,-123.2 60.5,-133.2 67.5,-133.2"/>
<text text-anchor="middle" x="86.5" y="-144.8" font-family="Times,serif" font-size="14.00">विशेषणम्</text>
</g>
<!-- Node1_1 -->
<g id="node5" class="node">
<title>Node1_1</title>
<ellipse fill="#ff1975" stroke="#ff1975" cx="284" cy="-279" rx="68.79" ry="18"/>
<text text-anchor="middle" x="284" y="-275.3" font-family="Times,serif" font-size="14.00">निवेदयामास(1.1)</text>
</g>
<!-- Node3_1&#45;&gt;Node1_1 -->
<g id="edge2" class="edge">
<title>Node3_1&#45;&gt;Node1_1</title>
<path fill="none" stroke="black" d="M104.22,-209.99C110.81,-212.71 117.58,-215.46 124,-218 165.24,-234.32 212.88,-252.04 245.38,-263.96"/>
<polygon fill="black" stroke="black" points="105.32,-206.66 94.75,-206.06 102.64,-213.13 105.32,-206.66"/>
<text text-anchor="middle" x="195" y="-231.8" font-family="Times,serif" font-size="14.00">कर्म</text>
</g>
<!-- Node7_2 -->
<g id="node3" class="node">
<title>Node7_2</title>
<ellipse fill="#00bfff" stroke="#00bfff" cx="194" cy="-105" rx="46.59" ry="18"/>
<text text-anchor="middle" x="194" y="-101.3" font-family="Times,serif" font-size="14.00">पतिः(7.2)</text>
</g>
<!-- Node6_1 -->
<g id="node4" class="node">
<title>Node6_1</title>
<ellipse fill="#00bfff" stroke="#00bfff" cx="194" cy="-192" rx="57.69" ry="18"/>
<text text-anchor="middle" x="194" y="-188.3" font-family="Times,serif" font-size="14.00">युधिष्ठिरः(6.1)</text>
</g>
<!-- Node7_2&#45;&gt;Node6_1 -->
<g id="edge8" class="edge">
<title>Node7_2&#45;&gt;Node6_1</title>
<path fill="none" stroke="black" d="M194,-133.27C194,-146.58 194,-162.19 194,-173.82"/>
<polygon fill="black" stroke="black" points="197.5,-133.2 194,-123.2 190.5,-133.2 197.5,-133.2"/>
<text text-anchor="middle" x="216.5" y="-144.8" font-family="Times,serif" font-size="14.00">विशेषणम्</text>
</g>
<!-- Node6_1&#45;&gt;Node1_1 -->
<g id="edge6" class="edge">
<title>Node6_1&#45;&gt;Node1_1</title>
<path fill="none" stroke="black" d="M218.85,-216.47C233.94,-230.72 252.84,-248.57 266.39,-261.37"/>
<polygon fill="black" stroke="black" points="221.03,-213.71 211.35,-209.39 216.22,-218.8 221.03,-213.71"/>
<text text-anchor="middle" x="255" y="-231.8" font-family="Times,serif" font-size="14.00">कर्ता</text>
</g>
<!-- Node2_1 -->
<g id="node6" class="node">
<title>Node2_1</title>
<ellipse fill="#ff99ff" stroke="#ff99ff" cx="314" cy="-192" rx="44.39" ry="18"/>
<text text-anchor="middle" x="314" y="-188.3" font-family="Times,serif" font-size="14.00">तदा(2.1)</text>
</g>
<!-- Node2_1&#45;&gt;Node1_1 -->
<g id="edge1" class="edge">
<title>Node2_1&#45;&gt;Node1_1</title>
<path fill="none" stroke="black" d="M304.52,-219.87C299.79,-233.27 294.21,-249.08 290.06,-260.82"/>
<polygon fill="black" stroke="black" points="307.9,-220.8 307.93,-210.2 301.3,-218.47 307.9,-220.8"/>
<text text-anchor="middle" x="335.5" y="-231.8" font-family="Times,serif" font-size="14.00">कालाधिकरणम्</text>
</g>
<!-- Node5_1 -->
<g id="node7" class="node">
<title>Node5_1</title>
<ellipse fill="#ff99ff" stroke="#ff99ff" cx="428" cy="-105" rx="47.39" ry="18"/>
<text text-anchor="middle" x="428" y="-101.3" font-family="Times,serif" font-size="14.00">नाम&#45;(5.1)</text>
</g>
<!-- Node5_2 -->
<g id="node8" class="node">
<title>Node5_2</title>
<ellipse fill="#ff99ff" stroke="#ff99ff" cx="428" cy="-192" rx="51.99" ry="18"/>
<text text-anchor="middle" x="428" y="-188.3" font-family="Times,serif" font-size="14.00">गोत्रतः(5.2)</text>
</g>
<!-- Node5_1&#45;&gt;Node5_2 -->
<g id="edge4" class="edge">
<title>Node5_1&#45;&gt;Node5_2</title>
<path fill="none" stroke="black" d="M428,-133.27C428,-146.58 428,-162.19 428,-173.82"/>
<polygon fill="black" stroke="black" points="431.5,-133.2 428,-123.2 424.5,-133.2 431.5,-133.2"/>
<text text-anchor="middle" x="445" y="-144.8" font-family="Times,serif" font-size="14.00">समासः</text>
</g>
<!-- Node5_2&#45;&gt;Node1_1 -->
<g id="edge5" class="edge">
<title>Node5_2&#45;&gt;Node1_1</title>
<path fill="none" stroke="black" d="M406.49,-216.96C397.44,-226.01 386.38,-235.84 375,-243 360.53,-252.11 343.31,-259.47 327.77,-265.06"/>
<polygon fill="black" stroke="black" points="409.15,-219.24 413.58,-209.62 404.11,-214.38 409.15,-219.24"/>
<text text-anchor="middle" x="403.5" y="-231.8" font-family="Times,serif" font-size="14.00">हेतुः</text>
</g>
<!-- Node7_1 -->
<g id="node9" class="node">
<title>Node7_1</title>
<ellipse fill="#ffff00" stroke="#ffff00" cx="194" cy="-18" rx="43.59" ry="18"/>
<text text-anchor="middle" x="194" y="-14.3" font-family="Times,serif" font-size="14.00">नर&#45;(7.1)</text>
</g>
<!-- Node7_1&#45;&gt;Node7_2 -->
<g id="edge7" class="edge">
<title>Node7_1&#45;&gt;Node7_2</title>
<path fill="none" stroke="black" d="M194,-46.27C194,-59.58 194,-75.19 194,-86.82"/>
<polygon fill="black" stroke="black" points="197.5,-46.2 194,-36.2 190.5,-46.2 197.5,-46.2"/>
<text text-anchor="middle" x="211" y="-57.8" font-family="Times,serif" font-size="14.00">समासः</text>
</g>
<!-- Node8_1 -->
<g id="node10" class="node">
<title>Node8_1</title>
<ellipse fill="#00bfff" stroke="#00bfff" cx="663" cy="-105" rx="40.09" ry="18"/>
<text text-anchor="middle" x="663" y="-101.3" font-family="Times,serif" font-size="14.00">सः(8.1)</text>
</g>
<!-- Node11_1 -->
<g id="node11" class="node">
<title>Node11_1</title>
<ellipse fill="#ff1975" stroke="#ff1975" cx="598" cy="-192" rx="71.49" ry="18"/>
<text text-anchor="middle" x="598" y="-188.3" font-family="Times,serif" font-size="14.00">प्रत्यपूजयन्(11.1)</text>
</g>
<!-- Node8_1&#45;&gt;Node11_1 -->
<g id="edge9" class="edge">
<title>Node8_1&#45;&gt;Node11_1</title>
<path fill="none" stroke="black" d="M644.19,-130.6C633.52,-144.54 620.45,-161.64 610.94,-174.08"/>
<polygon fill="black" stroke="black" points="647.17,-132.46 650.47,-122.39 641.61,-128.21 647.17,-132.46"/>
<text text-anchor="middle" x="645" y="-144.8" font-family="Times,serif" font-size="14.00">कर्ता</text>
</g>
<!-- Node9_1 -->
<g id="node12" class="node">
<title>Node9_1</title>
<ellipse fill="#ff99ff" stroke="#ff99ff" cx="663" cy="-18" rx="37.89" ry="18"/>
<text text-anchor="middle" x="663" y="-14.3" font-family="Times,serif" font-size="14.00">च(9.1)</text>
</g>
<!-- Node9_1&#45;&gt;Node8_1 -->
<g id="edge10" class="edge">
<title>Node9_1&#45;&gt;Node8_1</title>
<path fill="none" stroke="black" d="M663,-46.27C663,-59.58 663,-75.19 663,-86.82"/>
<polygon fill="black" stroke="black" points="666.5,-46.2 663,-36.2 659.5,-46.2 666.5,-46.2"/>
<text text-anchor="middle" x="681.5" y="-57.8" font-family="Times,serif" font-size="14.00">सम्बन्धः</text>
</g>
<!-- Node10_1 -->
<g id="node13" class="node">
<title>Node10_1</title>
<ellipse fill="#93db70" stroke="#93db70" cx="549" cy="-105" rx="55.49" ry="18"/>
<text text-anchor="middle" x="549" y="-101.3" font-family="Times,serif" font-size="14.00">एनान्(10.1)</text>
</g>
<!-- Node10_1&#45;&gt;Node11_1 -->
<g id="edge11" class="edge">
<title>Node10_1&#45;&gt;Node11_1</title>
<path fill="none" stroke="black" d="M563.84,-131.74C571.72,-145.42 581.2,-161.86 588.17,-173.95"/>
<polygon fill="black" stroke="black" points="566.71,-129.71 558.68,-122.79 560.64,-133.2 566.71,-129.71"/>
<text text-anchor="middle" x="585" y="-144.8" font-family="Times,serif" font-size="14.00">कर्म</text>
</g>
</g>
</svg>
