<?xml version="1.0" encoding="UTF-8" standalone="no"?>
<!DOCTYPE svg PUBLIC "-//W3C//DTD SVG 1.1//EN"
 "http://www.w3.org/Graphics/SVG/1.1/DTD/svg11.dtd">
<!-- Generated by graphviz version 2.43.0 (0)
 -->
<!-- Title: G Pages: 1 -->
<svg width="616pt" height="479pt"
 viewBox="0.00 0.00 615.99 479.00" xmlns="http://www.w3.org/2000/svg" xmlns:xlink="http://www.w3.org/1999/xlink">
<g id="graph0" class="graph" transform="scale(1 1) rotate(0) translate(4 475)">
<title>G</title>
<polygon fill="#fffacd" stroke="transparent" points="-4,4 -4,-475 611.99,-475 611.99,4 -4,4"/>
<g id="clust1" class="cluster">
<title>cluster_1</title>
<polygon fill="#fffacd" stroke="black" points="97.2,-253 97.2,-392 372.2,-392 372.2,-253 97.2,-253"/>
</g>
<!-- Node5_3 -->
<g id="node1" class="node">
<title>Node5_3</title>
<ellipse fill="#93db70" stroke="#93db70" cx="160.2" cy="-279" rx="54.69" ry="18"/>
<text text-anchor="middle" x="160.2" y="-275.3" font-family="Times,serif" font-size="14.00">सेवितम्(5.3)</text>
</g>
<!-- Node3_1 -->
<g id="node2" class="node">
<title>Node3_1</title>
<ellipse fill="#93db70" stroke="#93db70" cx="162.2" cy="-366" rx="55.79" ry="18"/>
<text text-anchor="middle" x="162.2" y="-362.3" font-family="Times,serif" font-size="14.00">आश्रमम्(3.1)</text>
</g>
<!-- Node5_3&#45;&gt;Node3_1 -->
<g id="edge6" class="edge">
<title>Node5_3&#45;&gt;Node3_1</title>
<path fill="none" stroke="black" d="M160.84,-307.27C161.15,-320.58 161.52,-336.19 161.79,-347.82"/>
<polygon fill="black" stroke="black" points="164.34,-307.12 160.6,-297.2 157.34,-307.28 164.34,-307.12"/>
<text text-anchor="middle" x="183.7" y="-318.8" font-family="Times,serif" font-size="14.00">विशेषणम्</text>
</g>
<!-- Node4_1 -->
<g id="node5" class="node">
<title>Node4_1</title>
<ellipse fill="#ff1975" stroke="#ff1975" cx="103.2" cy="-453" rx="59.29" ry="18"/>
<text text-anchor="middle" x="103.2" y="-449.3" font-family="Times,serif" font-size="14.00">आगच्छत्(4.1)</text>
</g>
<!-- Node3_1&#45;&gt;Node4_1 -->
<g id="edge3" class="edge">
<title>Node3_1&#45;&gt;Node4_1</title>
<path fill="none" stroke="black" d="M144.56,-392.4C134.95,-406.26 123.31,-423.03 114.83,-435.24"/>
<polygon fill="black" stroke="black" points="147.71,-394 150.54,-383.79 141.96,-390.01 147.71,-394"/>
<text text-anchor="middle" x="145.2" y="-405.8" font-family="Times,serif" font-size="14.00">कर्म</text>
</g>
<!-- Node7_1 -->
<g id="node3" class="node">
<title>Node7_1</title>
<ellipse fill="#93db70" stroke="#93db70" cx="298.2" cy="-279" rx="65.79" ry="18"/>
<text text-anchor="middle" x="298.2" y="-275.3" font-family="Times,serif" font-size="14.00">समाकीर्णम्(7.1)</text>
</g>
<!-- Node7_1&#45;&gt;Node3_1 -->
<g id="edge8" class="edge">
<title>Node7_1&#45;&gt;Node3_1</title>
<path fill="none" stroke="black" d="M264.45,-301.09C240.39,-316.13 208.57,-336.01 186.86,-349.58"/>
<polygon fill="black" stroke="black" points="266.31,-304.06 272.93,-295.79 262.6,-298.12 266.31,-304.06"/>
<text text-anchor="middle" x="260.7" y="-318.8" font-family="Times,serif" font-size="14.00">विशेषणम्</text>
</g>
<!-- Node1_1 -->
<g id="node4" class="node">
<title>Node1_1</title>
<ellipse fill="#ff99ff" stroke="#ff99ff" cx="44.2" cy="-366" rx="44.39" ry="18"/>
<text text-anchor="middle" x="44.2" y="-362.3" font-family="Times,serif" font-size="14.00">ततः(1.1)</text>
</g>
<!-- Node1_1&#45;&gt;Node4_1 -->
<g id="edge1" class="edge">
<title>Node1_1&#45;&gt;Node4_1</title>
<path fill="none" stroke="black" d="M61.83,-392.4C71.45,-406.26 83.08,-423.03 91.56,-435.24"/>
<polygon fill="black" stroke="black" points="64.43,-390.01 55.85,-383.79 58.68,-394 64.43,-390.01"/>
<text text-anchor="middle" x="96.7" y="-405.8" font-family="Times,serif" font-size="14.00">सम्बन्धः</text>
</g>
<!-- Node2_1 -->
<g id="node6" class="node">
<title>Node2_1</title>
<ellipse fill="#ff99ff" stroke="#ff99ff" cx="44.2" cy="-279" rx="37.89" ry="18"/>
<text text-anchor="middle" x="44.2" y="-275.3" font-family="Times,serif" font-size="14.00">च(2.1)</text>
</g>
<!-- Node2_1&#45;&gt;Node1_1 -->
<g id="edge2" class="edge">
<title>Node2_1&#45;&gt;Node1_1</title>
<path fill="none" stroke="black" d="M44.2,-307.27C44.2,-320.58 44.2,-336.19 44.2,-347.82"/>
<polygon fill="black" stroke="black" points="47.7,-307.2 44.2,-297.2 40.7,-307.2 47.7,-307.2"/>
<text text-anchor="middle" x="62.7" y="-318.8" font-family="Times,serif" font-size="14.00">सम्बन्धः</text>
</g>
<!-- Node5_1 -->
<g id="node7" class="node">
<title>Node5_1</title>
<ellipse fill="#ffff00" stroke="#ffff00" cx="160.2" cy="-105" rx="48.99" ry="18"/>
<text text-anchor="middle" x="160.2" y="-101.3" font-family="Times,serif" font-size="14.00">सिद्ध&#45;(5.1)</text>
</g>
<!-- Node5_2 -->
<g id="node8" class="node">
<title>Node5_2</title>
<ellipse fill="#ffff00" stroke="#ffff00" cx="160.2" cy="-192" rx="52.79" ry="18"/>
<text text-anchor="middle" x="160.2" y="-188.3" font-family="Times,serif" font-size="14.00">चारण&#45;(5.2)</text>
</g>
<!-- Node5_1&#45;&gt;Node5_2 -->
<g id="edge4" class="edge">
<title>Node5_1&#45;&gt;Node5_2</title>
<path fill="none" stroke="black" d="M160.2,-133.27C160.2,-146.58 160.2,-162.19 160.2,-173.82"/>
<polygon fill="black" stroke="black" points="163.7,-133.2 160.2,-123.2 156.7,-133.2 163.7,-133.2"/>
<text text-anchor="middle" x="177.2" y="-144.8" font-family="Times,serif" font-size="14.00">समासः</text>
</g>
<!-- Node5_2&#45;&gt;Node5_3 -->
<g id="edge5" class="edge">
<title>Node5_2&#45;&gt;Node5_3</title>
<path fill="none" stroke="black" d="M160.2,-220.27C160.2,-233.58 160.2,-249.19 160.2,-260.82"/>
<polygon fill="black" stroke="black" points="163.7,-220.2 160.2,-210.2 156.7,-220.2 163.7,-220.2"/>
<text text-anchor="middle" x="177.2" y="-231.8" font-family="Times,serif" font-size="14.00">समासः</text>
</g>
<!-- Node6_1 -->
<g id="node9" class="node">
<title>Node6_1</title>
<ellipse fill="#40e0d0" stroke="#40e0d0" cx="294.2" cy="-192" rx="60.39" ry="18"/>
<text text-anchor="middle" x="294.2" y="-188.3" font-family="Times,serif" font-size="14.00">दिदृक्षुभिः(6.1)</text>
</g>
<!-- Node6_1&#45;&gt;Node7_1 -->
<g id="edge7" class="edge">
<title>Node6_1&#45;&gt;Node7_1</title>
<path fill="none" stroke="black" d="M295.48,-220.27C296.11,-233.58 296.84,-249.19 297.39,-260.82"/>
<polygon fill="black" stroke="black" points="298.97,-220.03 295.01,-210.2 291.98,-220.35 298.97,-220.03"/>
<text text-anchor="middle" x="307.2" y="-231.8" font-family="Times,serif" font-size="14.00">कर्ता</text>
</g>
<!-- Node8_1 -->
<g id="node10" class="node">
<title>Node8_1</title>
<ellipse fill="#93db70" stroke="#93db70" cx="340.2" cy="-105" rx="45.49" ry="18"/>
<text text-anchor="middle" x="340.2" y="-101.3" font-family="Times,serif" font-size="14.00">नभः(8.1)</text>
</g>
<!-- Node11_1 -->
<g id="node11" class="node">
<title>Node11_1</title>
<ellipse fill="#93db70" stroke="#93db70" cx="450.2" cy="-192" rx="77.99" ry="18"/>
<text text-anchor="middle" x="450.2" y="-188.3" font-family="Times,serif" font-size="14.00">(समाकीर्णम्)(11.1)</text>
</g>
<!-- Node8_1&#45;&gt;Node11_1 -->
<g id="edge9" class="edge">
<title>Node8_1&#45;&gt;Node11_1</title>
<path fill="none" stroke="black" d="M368.09,-127.56C387,-142.16 411.6,-161.17 428.92,-174.56"/>
<polygon fill="black" stroke="black" points="370.17,-124.74 360.12,-121.39 365.89,-130.28 370.17,-124.74"/>
<text text-anchor="middle" x="410.2" y="-144.8" font-family="Times,serif" font-size="14.00">कर्म</text>
</g>
<!-- Node11_1&#45;&gt;Node7_1 -->
<g id="edge13" class="edge">
<title>Node11_1&#45;&gt;Node7_1</title>
<path fill="none" stroke="black" d="M413.19,-213.7C386.21,-228.78 350.24,-248.89 325.77,-262.58"/>
<polygon fill="black" stroke="black" points="414.94,-216.72 421.96,-208.79 411.53,-210.61 414.94,-216.72"/>
<text text-anchor="middle" x="403.7" y="-231.8" font-family="Times,serif" font-size="14.00">उपमानम्</text>
</g>
<!-- Node9_1 -->
<g id="node12" class="node">
<title>Node9_1</title>
<ellipse fill="#ffff00" stroke="#ffff00" cx="450.2" cy="-18" rx="48.19" ry="18"/>
<text text-anchor="middle" x="450.2" y="-14.3" font-family="Times,serif" font-size="14.00">तारा&#45;(9.1)</text>
</g>
<!-- Node9_2 -->
<g id="node13" class="node">
<title>Node9_2</title>
<ellipse fill="#40e0d0" stroke="#40e0d0" cx="450.2" cy="-105" rx="46.29" ry="18"/>
<text text-anchor="middle" x="450.2" y="-101.3" font-family="Times,serif" font-size="14.00">गणैः(9.2)</text>
</g>
<!-- Node9_1&#45;&gt;Node9_2 -->
<g id="edge10" class="edge">
<title>Node9_1&#45;&gt;Node9_2</title>
<path fill="none" stroke="black" d="M450.2,-46.27C450.2,-59.58 450.2,-75.19 450.2,-86.82"/>
<polygon fill="black" stroke="black" points="453.7,-46.2 450.2,-36.2 446.7,-46.2 453.7,-46.2"/>
<text text-anchor="middle" x="467.2" y="-57.8" font-family="Times,serif" font-size="14.00">समासः</text>
</g>
<!-- Node9_2&#45;&gt;Node11_1 -->
<g id="edge11" class="edge">
<title>Node9_2&#45;&gt;Node11_1</title>
<path fill="none" stroke="black" d="M450.2,-133.27C450.2,-146.58 450.2,-162.19 450.2,-173.82"/>
<polygon fill="black" stroke="black" points="453.7,-133.2 450.2,-123.2 446.7,-133.2 453.7,-133.2"/>
<text text-anchor="middle" x="461.2" y="-144.8" font-family="Times,serif" font-size="14.00">कर्ता</text>
</g>
<!-- Node10_1 -->
<g id="node14" class="node">
<title>Node10_1</title>
<ellipse fill="#ff99ff" stroke="#ff99ff" cx="561.2" cy="-105" rx="46.59" ry="18"/>
<text text-anchor="middle" x="561.2" y="-101.3" font-family="Times,serif" font-size="14.00">इव(10.1)</text>
</g>
<!-- Node10_1&#45;&gt;Node11_1 -->
<g id="edge12" class="edge">
<title>Node10_1&#45;&gt;Node11_1</title>
<path fill="none" stroke="black" d="M533.05,-127.56C513.97,-142.16 489.15,-161.17 471.66,-174.56"/>
<polygon fill="black" stroke="black" points="535.28,-130.25 541.09,-121.39 531.03,-124.69 535.28,-130.25"/>
<text text-anchor="middle" x="548.7" y="-144.8" font-family="Times,serif" font-size="14.00">उपमान_द्योतकः</text>
</g>
</g>
</svg>
