<?xml version="1.0" encoding="UTF-8" standalone="no"?>
<!DOCTYPE svg PUBLIC "-//W3C//DTD SVG 1.1//EN"
 "http://www.w3.org/Graphics/SVG/1.1/DTD/svg11.dtd">
<!-- Generated by graphviz version 2.43.0 (0)
 -->
<!-- Title: G Pages: 1 -->
<svg width="702pt" height="479pt"
 viewBox="0.00 0.00 702.19 479.00" xmlns="http://www.w3.org/2000/svg" xmlns:xlink="http://www.w3.org/1999/xlink">
<g id="graph0" class="graph" transform="scale(1 1) rotate(0) translate(4 475)">
<title>G</title>
<polygon fill="#fffacd" stroke="transparent" points="-4,4 -4,-475 698.19,-475 698.19,4 -4,4"/>
<g id="clust1" class="cluster">
<title>cluster_1</title>
<polygon fill="#fffacd" stroke="black" points="8,-253 8,-392 116,-392 116,-253 8,-253"/>
</g>
<g id="clust2" class="cluster">
<title>cluster_2</title>
<polygon fill="#fffacd" stroke="black" points="124,-166 124,-305 450,-305 450,-166 124,-166"/>
</g>
<!-- Node1_1 -->
<g id="node1" class="node">
<title>Node1_1</title>
<ellipse fill="#00bfff" stroke="#00bfff" cx="62" cy="-279" rx="40.09" ry="18"/>
<text text-anchor="middle" x="62" y="-275.3" font-family="Times,serif" font-size="14.00">सः(1.1)</text>
</g>
<!-- Node7_1 -->
<g id="node2" class="node">
<title>Node7_1</title>
<ellipse fill="#00bfff" stroke="#00bfff" cx="62" cy="-366" rx="46.29" ry="18"/>
<text text-anchor="middle" x="62" y="-362.3" font-family="Times,serif" font-size="14.00">राजा(7.1)</text>
</g>
<!-- Node1_1&#45;&gt;Node7_1 -->
<g id="edge1" class="edge">
<title>Node1_1&#45;&gt;Node7_1</title>
<path fill="none" stroke="black" d="M62,-307.27C62,-320.58 62,-336.19 62,-347.82"/>
<polygon fill="black" stroke="black" points="65.5,-307.2 62,-297.2 58.5,-307.2 65.5,-307.2"/>
<text text-anchor="middle" x="84.5" y="-318.8" font-family="Times,serif" font-size="14.00">विशेषणम्</text>
</g>
<!-- Node10_1 -->
<g id="node11" class="node">
<title>Node10_1</title>
<ellipse fill="#ff1975" stroke="#ff1975" cx="479" cy="-453" rx="50.09" ry="18"/>
<text text-anchor="middle" x="479" y="-449.3" font-family="Times,serif" font-size="14.00">चक्रे(10.1)</text>
</g>
<!-- Node7_1&#45;&gt;Node10_1 -->
<g id="edge9" class="edge">
<title>Node7_1&#45;&gt;Node10_1</title>
<path fill="none" stroke="black" d="M111.91,-377.17C194.74,-394.06 359.14,-427.57 436.66,-443.37"/>
<polygon fill="black" stroke="black" points="112.48,-373.72 101.98,-375.15 111.08,-380.58 112.48,-373.72"/>
<text text-anchor="middle" x="307" y="-405.8" font-family="Times,serif" font-size="14.00">कर्ता</text>
</g>
<!-- Node2_1 -->
<g id="node3" class="node">
<title>Node2_1</title>
<ellipse fill="#40e0d0" stroke="#40e0d0" cx="402" cy="-192" rx="39.79" ry="18"/>
<text text-anchor="middle" x="402" y="-188.3" font-family="Times,serif" font-size="14.00">तैः(2.1)</text>
</g>
<!-- Node5_1 -->
<g id="node4" class="node">
<title>Node5_1</title>
<ellipse fill="#40e0d0" stroke="#40e0d0" cx="297" cy="-279" rx="55.79" ry="18"/>
<text text-anchor="middle" x="297" y="-275.3" font-family="Times,serif" font-size="14.00">भ्रातृभिः(5.1)</text>
</g>
<!-- Node2_1&#45;&gt;Node5_1 -->
<g id="edge2" class="edge">
<title>Node2_1&#45;&gt;Node5_1</title>
<path fill="none" stroke="black" d="M377.6,-215.82C367.96,-224.56 356.66,-234.48 346,-243 337.67,-249.66 328.2,-256.57 319.82,-262.47"/>
<polygon fill="black" stroke="black" points="380.25,-218.15 385.26,-208.81 375.52,-212.98 380.25,-218.15"/>
<text text-anchor="middle" x="385.5" y="-231.8" font-family="Times,serif" font-size="14.00">विशेषणम्</text>
</g>
<!-- Node5_1&#45;&gt;Node7_1 -->
<g id="edge6" class="edge">
<title>Node5_1&#45;&gt;Node7_1</title>
<path fill="none" stroke="black" d="M251.87,-296.32C205.83,-312.98 135.51,-338.41 94.61,-353.2"/>
<polygon fill="black" stroke="black" points="253.1,-299.6 261.31,-292.91 250.71,-293.02 253.1,-299.6"/>
<text text-anchor="middle" x="210" y="-318.8" font-family="Times,serif" font-size="14.00">सहार्थः</text>
</g>
<!-- Node4_2 -->
<g id="node5" class="node">
<title>Node4_2</title>
<ellipse fill="#40e0d0" stroke="#40e0d0" cx="182" cy="-192" rx="50.09" ry="18"/>
<text text-anchor="middle" x="182" y="-188.3" font-family="Times,serif" font-size="14.00">व्याघ्रैः(4.2)</text>
</g>
<!-- Node4_2&#45;&gt;Node5_1 -->
<g id="edge5" class="edge">
<title>Node4_2&#45;&gt;Node5_1</title>
<path fill="none" stroke="black" d="M210.45,-214.83C222.04,-223.65 235.61,-233.88 248,-243 256.76,-249.44 266.49,-256.43 274.95,-262.45"/>
<polygon fill="black" stroke="black" points="212.48,-211.97 202.4,-208.69 208.23,-217.54 212.48,-211.97"/>
<text text-anchor="middle" x="270.5" y="-231.8" font-family="Times,serif" font-size="14.00">विशेषणम्</text>
</g>
<!-- Node8_3 -->
<g id="node6" class="node">
<title>Node8_3</title>
<ellipse fill="#40e0d0" stroke="#40e0d0" cx="297" cy="-192" rx="47.39" ry="18"/>
<text text-anchor="middle" x="297" y="-188.3" font-family="Times,serif" font-size="14.00">अक्षैः(8.3)</text>
</g>
<!-- Node8_3&#45;&gt;Node5_1 -->
<g id="edge12" class="edge">
<title>Node8_3&#45;&gt;Node5_1</title>
<path fill="none" stroke="black" d="M297,-220.27C297,-233.58 297,-249.19 297,-260.82"/>
<polygon fill="black" stroke="black" points="300.5,-220.2 297,-210.2 293.5,-220.2 300.5,-220.2"/>
<text text-anchor="middle" x="319.5" y="-231.8" font-family="Times,serif" font-size="14.00">विशेषणम्</text>
</g>
<!-- Node3_1 -->
<g id="node7" class="node">
<title>Node3_1</title>
<ellipse fill="#ff99ff" stroke="#ff99ff" cx="502" cy="-192" rx="42.49" ry="18"/>
<text text-anchor="middle" x="502" y="-188.3" font-family="Times,serif" font-size="14.00">सह(3.1)</text>
</g>
<!-- Node3_1&#45;&gt;Node5_1 -->
<g id="edge3" class="edge">
<title>Node3_1&#45;&gt;Node5_1</title>
<path fill="none" stroke="black" d="M470.48,-212.67C453.58,-222.66 432.13,-234.46 412,-243 388.75,-252.86 361.79,-261.22 339.82,-267.29"/>
<polygon fill="black" stroke="black" points="472.59,-215.49 479.37,-207.34 468.99,-209.48 472.59,-215.49"/>
<text text-anchor="middle" x="475.5" y="-231.8" font-family="Times,serif" font-size="14.00">सहार्थ_द्योतकः</text>
</g>
<!-- Node4_1 -->
<g id="node8" class="node">
<title>Node4_1</title>
<ellipse fill="#ffff00" stroke="#ffff00" cx="182" cy="-105" rx="43.59" ry="18"/>
<text text-anchor="middle" x="182" y="-101.3" font-family="Times,serif" font-size="14.00">नर&#45;(4.1)</text>
</g>
<!-- Node4_1&#45;&gt;Node4_2 -->
<g id="edge4" class="edge">
<title>Node4_1&#45;&gt;Node4_2</title>
<path fill="none" stroke="black" d="M182,-133.27C182,-146.58 182,-162.19 182,-173.82"/>
<polygon fill="black" stroke="black" points="185.5,-133.2 182,-123.2 178.5,-133.2 185.5,-133.2"/>
<text text-anchor="middle" x="199" y="-144.8" font-family="Times,serif" font-size="14.00">समासः</text>
</g>
<!-- Node6_1 -->
<g id="node9" class="node">
<title>Node6_1</title>
<ellipse fill="#ffff00" stroke="#ffff00" cx="507" cy="-279" rx="49.29" ry="18"/>
<text text-anchor="middle" x="507" y="-275.3" font-family="Times,serif" font-size="14.00">भरत&#45;(6.1)</text>
</g>
<!-- Node6_2 -->
<g id="node10" class="node">
<title>Node6_2</title>
<ellipse fill="#6fffc3" stroke="#6fffc3" cx="394" cy="-366" rx="50.09" ry="18"/>
<text text-anchor="middle" x="394" y="-362.3" font-family="Times,serif" font-size="14.00">ऋषभ(6.2)</text>
</g>
<!-- Node6_1&#45;&gt;Node6_2 -->
<g id="edge7" class="edge">
<title>Node6_1&#45;&gt;Node6_2</title>
<path fill="none" stroke="black" d="M478.44,-301.48C458.59,-316.42 432.57,-335.99 414.69,-349.43"/>
<polygon fill="black" stroke="black" points="480.65,-304.2 486.54,-295.39 476.44,-298.61 480.65,-304.2"/>
<text text-anchor="middle" x="474" y="-318.8" font-family="Times,serif" font-size="14.00">समासः</text>
</g>
<!-- Node6_2&#45;&gt;Node10_1 -->
<g id="edge8" class="edge">
<title>Node6_2&#45;&gt;Node10_1</title>
<path fill="none" stroke="black" d="M417.56,-390.56C432.02,-405.02 450.14,-423.14 462.95,-435.95"/>
<polygon fill="black" stroke="black" points="419.93,-387.99 410.39,-383.39 414.99,-392.93 419.93,-387.99"/>
<text text-anchor="middle" x="462" y="-405.8" font-family="Times,serif" font-size="14.00">सम्बोध्यः</text>
</g>
<!-- Node8_1 -->
<g id="node12" class="node">
<title>Node8_1</title>
<ellipse fill="#ffff00" stroke="#ffff00" cx="293" cy="-18" rx="51.19" ry="18"/>
<text text-anchor="middle" x="293" y="-14.3" font-family="Times,serif" font-size="14.00">रुचिर&#45;(8.1)</text>
</g>
<!-- Node8_2 -->
<g id="node13" class="node">
<title>Node8_2</title>
<ellipse fill="#ffff00" stroke="#ffff00" cx="293" cy="-105" rx="46.29" ry="18"/>
<text text-anchor="middle" x="293" y="-101.3" font-family="Times,serif" font-size="14.00">पद्म&#45;(8.2)</text>
</g>
<!-- Node8_1&#45;&gt;Node8_2 -->
<g id="edge10" class="edge">
<title>Node8_1&#45;&gt;Node8_2</title>
<path fill="none" stroke="black" d="M293,-46.27C293,-59.58 293,-75.19 293,-86.82"/>
<polygon fill="black" stroke="black" points="296.5,-46.2 293,-36.2 289.5,-46.2 296.5,-46.2"/>
<text text-anchor="middle" x="310" y="-57.8" font-family="Times,serif" font-size="14.00">समासः</text>
</g>
<!-- Node8_2&#45;&gt;Node8_3 -->
<g id="edge11" class="edge">
<title>Node8_2&#45;&gt;Node8_3</title>
<path fill="none" stroke="black" d="M294.28,-133.27C294.91,-146.58 295.64,-162.19 296.19,-173.82"/>
<polygon fill="black" stroke="black" points="297.78,-133.03 293.81,-123.2 290.78,-133.35 297.78,-133.03"/>
<text text-anchor="middle" x="313" y="-144.8" font-family="Times,serif" font-size="14.00">समासः</text>
</g>
<!-- Node9_1 -->
<g id="node14" class="node">
<title>Node9_1</title>
<ellipse fill="#87ceeb" stroke="#87ceeb" cx="411" cy="-105" rx="53.89" ry="18"/>
<text text-anchor="middle" x="411" y="-101.3" font-family="Times,serif" font-size="14.00">आसाम्(9.1)</text>
</g>
<!-- Node9_1&#45;&gt;Node8_3 -->
<g id="edge13" class="edge">
<title>Node9_1&#45;&gt;Node8_3</title>
<path fill="none" stroke="black" d="M381.65,-127.89C361.61,-142.83 335.56,-162.25 317.68,-175.58"/>
<polygon fill="black" stroke="black" points="383.9,-130.57 389.82,-121.79 379.72,-124.96 383.9,-130.57"/>
<text text-anchor="middle" x="387.5" y="-144.8" font-family="Times,serif" font-size="14.00">षष्ठीसम्बन्धः</text>
</g>
<!-- Node11_1 -->
<g id="node15" class="node">
<title>Node11_1</title>
<ellipse fill="#ff99ff" stroke="#ff99ff" cx="512" cy="-366" rx="50.09" ry="18"/>
<text text-anchor="middle" x="512" y="-362.3" font-family="Times,serif" font-size="14.00">तदा(11.1)</text>
</g>
<!-- Node11_1&#45;&gt;Node10_1 -->
<g id="edge14" class="edge">
<title>Node11_1&#45;&gt;Node10_1</title>
<path fill="none" stroke="black" d="M501.7,-393.54C496.42,-407.12 490.16,-423.24 485.56,-435.11"/>
<polygon fill="black" stroke="black" points="504.97,-394.79 505.32,-384.2 498.44,-392.26 504.97,-394.79"/>
<text text-anchor="middle" x="532.5" y="-405.8" font-family="Times,serif" font-size="14.00">कालाधिकरणम्</text>
</g>
<!-- Node11_2 -->
<g id="node16" class="node">
<title>Node11_2</title>
<ellipse fill="#c6e2eb" stroke="#c6e2eb" cx="637" cy="-366" rx="57.39" ry="18"/>
<text text-anchor="middle" x="637" y="-362.3" font-family="Times,serif" font-size="14.00">आश्रमे(11.2)</text>
</g>
<!-- Node11_2&#45;&gt;Node10_1 -->
<g id="edge15" class="edge">
<title>Node11_2&#45;&gt;Node10_1</title>
<path fill="none" stroke="black" d="M611.12,-389.75C599.67,-399.04 585.71,-409.37 572,-417 554.51,-426.73 533.78,-434.83 516.33,-440.78"/>
<polygon fill="black" stroke="black" points="613.52,-392.3 618.97,-383.22 609.04,-386.92 613.52,-392.3"/>
<text text-anchor="middle" x="626" y="-405.8" font-family="Times,serif" font-size="14.00">देशाधिकरणम्</text>
</g>
</g>
</svg>
