<?xml version="1.0" encoding="UTF-8" standalone="no"?>
<!DOCTYPE svg PUBLIC "-//W3C//DTD SVG 1.1//EN"
 "http://www.w3.org/Graphics/SVG/1.1/DTD/svg11.dtd">
<!-- Generated by graphviz version 2.43.0 (0)
 -->
<!-- Title: G Pages: 1 -->
<svg width="707pt" height="479pt"
 viewBox="0.00 0.00 707.00 479.00" xmlns="http://www.w3.org/2000/svg" xmlns:xlink="http://www.w3.org/1999/xlink">
<g id="graph0" class="graph" transform="scale(1 1) rotate(0) translate(4 475)">
<title>G</title>
<polygon fill="#fffacd" stroke="transparent" points="-4,4 -4,-475 703,-475 703,4 -4,4"/>
<g id="clust1" class="cluster">
<title>cluster_1</title>
<polygon fill="#fffacd" stroke="black" points="419,-166 419,-305 677,-305 677,-166 419,-166"/>
</g>
<g id="clust2" class="cluster">
<title>cluster_2</title>
<polygon fill="#fffacd" stroke="black" points="140,-166 140,-305 272,-305 272,-166 140,-166"/>
</g>
<g id="clust3" class="cluster">
<title>cluster_3</title>
<polygon fill="#fffacd" stroke="black" points="8,-166 8,-392 132,-392 132,-166 8,-166"/>
</g>
<!-- Node4_2 -->
<g id="node1" class="node">
<title>Node4_2</title>
<ellipse fill="#87ceeb" stroke="#87ceeb" cx="487" cy="-192" rx="59.59" ry="18"/>
<text text-anchor="middle" x="487" y="-188.3" font-family="Times,serif" font-size="14.00">अधिपस्य(4.2)</text>
</g>
<!-- Node3_1 -->
<g id="node2" class="node">
<title>Node3_1</title>
<ellipse fill="#87ceeb" stroke="#87ceeb" cx="487" cy="-279" rx="46.29" ry="18"/>
<text text-anchor="middle" x="487" y="-275.3" font-family="Times,serif" font-size="14.00">राज्ञः(3.1)</text>
</g>
<!-- Node4_2&#45;&gt;Node3_1 -->
<g id="edge5" class="edge">
<title>Node4_2&#45;&gt;Node3_1</title>
<path fill="none" stroke="black" d="M487,-220.27C487,-233.58 487,-249.19 487,-260.82"/>
<polygon fill="black" stroke="black" points="490.5,-220.2 487,-210.2 483.5,-220.2 490.5,-220.2"/>
<text text-anchor="middle" x="509.5" y="-231.8" font-family="Times,serif" font-size="14.00">विशेषणम्</text>
</g>
<!-- Node5_1 -->
<g id="node12" class="node">
<title>Node5_1</title>
<ellipse fill="#00bfff" stroke="#00bfff" cx="472" cy="-366" rx="45.49" ry="18"/>
<text text-anchor="middle" x="472" y="-362.3" font-family="Times,serif" font-size="14.00">सुता(5.1)</text>
</g>
<!-- Node3_1&#45;&gt;Node5_1 -->
<g id="edge3" class="edge">
<title>Node3_1&#45;&gt;Node5_1</title>
<path fill="none" stroke="black" d="M482.19,-307.27C479.84,-320.58 477.08,-336.19 475.03,-347.82"/>
<polygon fill="black" stroke="black" points="485.67,-307.66 483.96,-297.2 478.78,-306.44 485.67,-307.66"/>
<text text-anchor="middle" x="507.5" y="-318.8" font-family="Times,serif" font-size="14.00">षष्ठीसम्बन्धः</text>
</g>
<!-- Node8_1 -->
<g id="node3" class="node">
<title>Node8_1</title>
<ellipse fill="#87ceeb" stroke="#87ceeb" cx="617" cy="-192" rx="51.99" ry="18"/>
<text text-anchor="middle" x="617" y="-188.3" font-family="Times,serif" font-size="14.00">श्रुतस्य(8.1)</text>
</g>
<!-- Node8_1&#45;&gt;Node3_1 -->
<g id="edge9" class="edge">
<title>Node8_1&#45;&gt;Node3_1</title>
<path fill="none" stroke="black" d="M585.21,-213.79C561.79,-229.1 530.51,-249.55 509.6,-263.22"/>
<polygon fill="black" stroke="black" points="587.3,-216.6 593.76,-208.2 583.47,-210.74 587.3,-216.6"/>
<text text-anchor="middle" x="581.5" y="-231.8" font-family="Times,serif" font-size="14.00">विशेषणम्</text>
</g>
<!-- Node9_1 -->
<g id="node4" class="node">
<title>Node9_1</title>
<ellipse fill="#87ceeb" stroke="#87ceeb" cx="205" cy="-192" rx="57.39" ry="18"/>
<text text-anchor="middle" x="205" y="-188.3" font-family="Times,serif" font-size="14.00">यवीयसः(9.1)</text>
</g>
<!-- Node10_2 -->
<g id="node5" class="node">
<title>Node10_2</title>
<ellipse fill="#87ceeb" stroke="#87ceeb" cx="206" cy="-279" rx="57.69" ry="18"/>
<text text-anchor="middle" x="206" y="-275.3" font-family="Times,serif" font-size="14.00">सुतस्य(10.2)</text>
</g>
<!-- Node9_1&#45;&gt;Node10_2 -->
<g id="edge10" class="edge">
<title>Node9_1&#45;&gt;Node10_2</title>
<path fill="none" stroke="black" d="M205.32,-220.27C205.48,-233.58 205.66,-249.19 205.8,-260.82"/>
<polygon fill="black" stroke="black" points="208.82,-220.16 205.2,-210.2 201.82,-220.24 208.82,-220.16"/>
<text text-anchor="middle" x="227.5" y="-231.8" font-family="Times,serif" font-size="14.00">विशेषणम्</text>
</g>
<!-- Node11_1 -->
<g id="node7" class="node">
<title>Node11_1</title>
<ellipse fill="#00bfff" stroke="#00bfff" cx="70" cy="-366" rx="53.89" ry="18"/>
<text text-anchor="middle" x="70" y="-362.3" font-family="Times,serif" font-size="14.00">भार्या(11.1)</text>
</g>
<!-- Node10_2&#45;&gt;Node11_1 -->
<g id="edge12" class="edge">
<title>Node10_2&#45;&gt;Node11_1</title>
<path fill="none" stroke="black" d="M172.85,-300.72C148.63,-315.85 116.34,-336.04 94.45,-349.72"/>
<polygon fill="black" stroke="black" points="174.75,-303.66 181.37,-295.39 171.04,-297.72 174.75,-303.66"/>
<text text-anchor="middle" x="173.5" y="-318.8" font-family="Times,serif" font-size="14.00">षष्ठीसम्बन्धः</text>
</g>
<!-- Node12_1 -->
<g id="node6" class="node">
<title>Node12_1</title>
<ellipse fill="#00bfff" stroke="#00bfff" cx="70" cy="-279" rx="50.09" ry="18"/>
<text text-anchor="middle" x="70" y="-275.3" font-family="Times,serif" font-size="14.00">मता(12.1)</text>
</g>
<!-- Node12_1&#45;&gt;Node11_1 -->
<g id="edge14" class="edge">
<title>Node12_1&#45;&gt;Node11_1</title>
<path fill="none" stroke="black" d="M70,-307.27C70,-320.58 70,-336.19 70,-347.82"/>
<polygon fill="black" stroke="black" points="73.5,-307.2 70,-297.2 66.5,-307.2 73.5,-307.2"/>
<text text-anchor="middle" x="92.5" y="-318.8" font-family="Times,serif" font-size="14.00">विशेषणम्</text>
</g>
<!-- Node14_1 -->
<g id="node10" class="node">
<title>Node14_1</title>
<ellipse fill="#ff1975" stroke="#ff1975" cx="334" cy="-453" rx="62.29" ry="18"/>
<text text-anchor="middle" x="334" y="-449.3" font-family="Times,serif" font-size="14.00">(अस्ति)(14.1)</text>
</g>
<!-- Node11_1&#45;&gt;Node14_1 -->
<g id="edge13" class="edge">
<title>Node11_1&#45;&gt;Node14_1</title>
<path fill="none" stroke="black" d="M117.22,-382.2C167.61,-398.43 246.56,-423.85 293.99,-439.12"/>
<polygon fill="black" stroke="black" points="118.14,-378.82 107.54,-379.09 115.99,-385.48 118.14,-378.82"/>
<text text-anchor="middle" x="264" y="-405.8" font-family="Times,serif" font-size="14.00">कर्तृसमानाधिकरणम्</text>
</g>
<!-- Node13_3 -->
<g id="node8" class="node">
<title>Node13_3</title>
<ellipse fill="#00bfff" stroke="#00bfff" cx="70" cy="-192" rx="51.19" ry="18"/>
<text text-anchor="middle" x="70" y="-188.3" font-family="Times,serif" font-size="14.00">गौरी(13.3)</text>
</g>
<!-- Node13_3&#45;&gt;Node12_1 -->
<g id="edge17" class="edge">
<title>Node13_3&#45;&gt;Node12_1</title>
<path fill="none" stroke="black" d="M70,-220.27C70,-233.58 70,-249.19 70,-260.82"/>
<polygon fill="black" stroke="black" points="73.5,-220.2 70,-210.2 66.5,-220.2 73.5,-220.2"/>
<text text-anchor="middle" x="92.5" y="-231.8" font-family="Times,serif" font-size="14.00">विशेषणम्</text>
</g>
<!-- Node1_1 -->
<g id="node9" class="node">
<title>Node1_1</title>
<ellipse fill="#00bfff" stroke="#00bfff" cx="334" cy="-366" rx="46.29" ry="18"/>
<text text-anchor="middle" x="334" y="-362.3" font-family="Times,serif" font-size="14.00">इयम्(1.1)</text>
</g>
<!-- Node1_1&#45;&gt;Node14_1 -->
<g id="edge1" class="edge">
<title>Node1_1&#45;&gt;Node14_1</title>
<path fill="none" stroke="black" d="M334,-394.27C334,-407.58 334,-423.19 334,-434.82"/>
<polygon fill="black" stroke="black" points="337.5,-394.2 334,-384.2 330.5,-394.2 337.5,-394.2"/>
<text text-anchor="middle" x="345" y="-405.8" font-family="Times,serif" font-size="14.00">कर्ता</text>
</g>
<!-- Node2_1 -->
<g id="node11" class="node">
<title>Node2_1</title>
<ellipse fill="#ff99ff" stroke="#ff99ff" cx="334" cy="-279" rx="37.89" ry="18"/>
<text text-anchor="middle" x="334" y="-275.3" font-family="Times,serif" font-size="14.00">च(2.1)</text>
</g>
<!-- Node2_1&#45;&gt;Node1_1 -->
<g id="edge2" class="edge">
<title>Node2_1&#45;&gt;Node1_1</title>
<path fill="none" stroke="black" d="M334,-307.27C334,-320.58 334,-336.19 334,-347.82"/>
<polygon fill="black" stroke="black" points="337.5,-307.2 334,-297.2 330.5,-307.2 337.5,-307.2"/>
<text text-anchor="middle" x="352.5" y="-318.8" font-family="Times,serif" font-size="14.00">सम्बन्धः</text>
</g>
<!-- Node5_1&#45;&gt;Node14_1 -->
<g id="edge6" class="edge">
<title>Node5_1&#45;&gt;Node14_1</title>
<path fill="none" stroke="black" d="M439.67,-386.91C415.14,-402.03 381.88,-422.51 359.28,-436.43"/>
<polygon fill="black" stroke="black" points="441.6,-389.84 448.28,-381.61 437.93,-383.88 441.6,-389.84"/>
<text text-anchor="middle" x="458" y="-405.8" font-family="Times,serif" font-size="14.00">कर्तृसमानाधिकरणम्</text>
</g>
<!-- Node4_1 -->
<g id="node13" class="node">
<title>Node4_1</title>
<ellipse fill="#ffff00" stroke="#ffff00" cx="487" cy="-105" rx="50.09" ry="18"/>
<text text-anchor="middle" x="487" y="-101.3" font-family="Times,serif" font-size="14.00">मगध&#45;(4.1)</text>
</g>
<!-- Node4_1&#45;&gt;Node4_2 -->
<g id="edge4" class="edge">
<title>Node4_1&#45;&gt;Node4_2</title>
<path fill="none" stroke="black" d="M487,-133.27C487,-146.58 487,-162.19 487,-173.82"/>
<polygon fill="black" stroke="black" points="490.5,-133.2 487,-123.2 483.5,-133.2 490.5,-133.2"/>
<text text-anchor="middle" x="504" y="-144.8" font-family="Times,serif" font-size="14.00">समासः</text>
</g>
<!-- Node6_1 -->
<g id="node14" class="node">
<title>Node6_1</title>
<ellipse fill="#00bfff" stroke="#00bfff" cx="617" cy="-105" rx="59.59" ry="18"/>
<text text-anchor="middle" x="617" y="-101.3" font-family="Times,serif" font-size="14.00">जरासन्धः(6.1)</text>
</g>
<!-- Node6_1&#45;&gt;Node8_1 -->
<g id="edge7" class="edge">
<title>Node6_1&#45;&gt;Node8_1</title>
<path fill="none" stroke="black" d="M617,-133.27C617,-146.58 617,-162.19 617,-173.82"/>
<polygon fill="black" stroke="black" points="620.5,-133.2 617,-123.2 613.5,-133.2 620.5,-133.2"/>
<text text-anchor="middle" x="638.5" y="-144.8" font-family="Times,serif" font-size="14.00">वाक्यकर्म</text>
</g>
<!-- Node7_1 -->
<g id="node15" class="node">
<title>Node7_1</title>
<ellipse fill="#ff99ff" stroke="#ff99ff" cx="617" cy="-18" rx="44.39" ry="18"/>
<text text-anchor="middle" x="617" y="-14.3" font-family="Times,serif" font-size="14.00">इति(7.1)</text>
</g>
<!-- Node7_1&#45;&gt;Node6_1 -->
<g id="edge8" class="edge">
<title>Node7_1&#45;&gt;Node6_1</title>
<path fill="none" stroke="black" d="M617,-46.27C617,-59.58 617,-75.19 617,-86.82"/>
<polygon fill="black" stroke="black" points="620.5,-46.2 617,-36.2 613.5,-46.2 620.5,-46.2"/>
<text text-anchor="middle" x="658" y="-57.8" font-family="Times,serif" font-size="14.00">वाक्यकर्म_द्योतकः</text>
</g>
<!-- Node10_1 -->
<g id="node16" class="node">
<title>Node10_1</title>
<ellipse fill="#ffff00" stroke="#ffff00" cx="345" cy="-192" rx="64.19" ry="18"/>
<text text-anchor="middle" x="345" y="-188.3" font-family="Times,serif" font-size="14.00">माद्रवती&#45;(10.1)</text>
</g>
<!-- Node10_1&#45;&gt;Node10_2 -->
<g id="edge11" class="edge">
<title>Node10_1&#45;&gt;Node10_2</title>
<path fill="none" stroke="black" d="M310.84,-213.89C286.25,-228.92 253.62,-248.88 231.33,-262.51"/>
<polygon fill="black" stroke="black" points="312.8,-216.79 319.51,-208.59 309.15,-210.82 312.8,-216.79"/>
<text text-anchor="middle" x="300" y="-231.8" font-family="Times,serif" font-size="14.00">समासः</text>
</g>
<!-- Node13_1 -->
<g id="node17" class="node">
<title>Node13_1</title>
<ellipse fill="#ffff00" stroke="#ffff00" cx="70" cy="-18" rx="60.39" ry="18"/>
<text text-anchor="middle" x="70" y="-14.3" font-family="Times,serif" font-size="14.00">चम्पक&#45;(13.1)</text>
</g>
<!-- Node13_2 -->
<g id="node18" class="node">
<title>Node13_2</title>
<ellipse fill="#ffff00" stroke="#ffff00" cx="70" cy="-105" rx="52.79" ry="18"/>
<text text-anchor="middle" x="70" y="-101.3" font-family="Times,serif" font-size="14.00">दाम&#45;(13.2)</text>
</g>
<!-- Node13_1&#45;&gt;Node13_2 -->
<g id="edge15" class="edge">
<title>Node13_1&#45;&gt;Node13_2</title>
<path fill="none" stroke="black" d="M70,-46.27C70,-59.58 70,-75.19 70,-86.82"/>
<polygon fill="black" stroke="black" points="73.5,-46.2 70,-36.2 66.5,-46.2 73.5,-46.2"/>
<text text-anchor="middle" x="87" y="-57.8" font-family="Times,serif" font-size="14.00">समासः</text>
</g>
<!-- Node13_2&#45;&gt;Node13_3 -->
<g id="edge16" class="edge">
<title>Node13_2&#45;&gt;Node13_3</title>
<path fill="none" stroke="black" d="M70,-133.27C70,-146.58 70,-162.19 70,-173.82"/>
<polygon fill="black" stroke="black" points="73.5,-133.2 70,-123.2 66.5,-133.2 73.5,-133.2"/>
<text text-anchor="middle" x="87" y="-144.8" font-family="Times,serif" font-size="14.00">समासः</text>
</g>
</g>
</svg>
