<?xml version="1.0" encoding="UTF-8" standalone="no"?>
<!DOCTYPE svg PUBLIC "-//W3C//DTD SVG 1.1//EN"
 "http://www.w3.org/Graphics/SVG/1.1/DTD/svg11.dtd">
<!-- Generated by graphviz version 2.43.0 (0)
 -->
<!-- Title: G Pages: 1 -->
<svg width="809pt" height="566pt"
 viewBox="0.00 0.00 809.14 566.00" xmlns="http://www.w3.org/2000/svg" xmlns:xlink="http://www.w3.org/1999/xlink">
<g id="graph0" class="graph" transform="scale(1 1) rotate(0) translate(4 562)">
<title>G</title>
<polygon fill="#fffacd" stroke="transparent" points="-4,4 -4,-562 805.14,-562 805.14,4 -4,4"/>
<g id="clust1" class="cluster">
<title>cluster_1</title>
<polygon fill="#fffacd" stroke="black" points="8,-253 8,-305 112,-305 112,-253 8,-253"/>
</g>
<g id="clust2" class="cluster">
<title>cluster_2</title>
<polygon fill="#fffacd" stroke="black" points="575,-427 575,-479 695,-479 695,-427 575,-427"/>
</g>
<!-- Node2_1 -->
<g id="node1" class="node">
<title>Node2_1</title>
<ellipse fill="#00bfff" stroke="#00bfff" cx="60" cy="-279" rx="44.39" ry="18"/>
<text text-anchor="middle" x="60" y="-275.3" font-family="Times,serif" font-size="14.00">एषः(2.1)</text>
</g>
<!-- Node1_1 -->
<g id="node2" class="node">
<title>Node1_1</title>
<ellipse fill="#00bfff" stroke="#00bfff" cx="388" cy="-366" rx="39.79" ry="18"/>
<text text-anchor="middle" x="388" y="-362.3" font-family="Times,serif" font-size="14.00">यः(1.1)</text>
</g>
<!-- Node2_1&#45;&gt;Node1_1 -->
<g id="edge3" class="edge">
<title>Node2_1&#45;&gt;Node1_1</title>
<path fill="none" stroke="black" d="M88.83,-300.77C104.67,-311.18 125.1,-323.02 145,-330 213.98,-354.2 299.59,-361.68 348.6,-363.99"/>
<polygon fill="black" stroke="black" points="90.78,-297.87 80.53,-295.18 86.86,-303.67 90.78,-297.87"/>
<text text-anchor="middle" x="167.5" y="-318.8" font-family="Times,serif" font-size="14.00">विशेषणम्</text>
</g>
<!-- Node12_1 -->
<g id="node3" class="node">
<title>Node12_1</title>
<ellipse fill="#00bfff" stroke="#00bfff" cx="562" cy="-366" rx="50.09" ry="18"/>
<text text-anchor="middle" x="562" y="-362.3" font-family="Times,serif" font-size="14.00">एषः(12.1)</text>
</g>
<!-- Node1_1&#45;&gt;Node12_1 -->
<g id="edge2" class="edge">
<title>Node1_1&#45;&gt;Node12_1</title>
<path fill="none" stroke="red" stroke-dasharray="5,2" d="M438.19,-366C457.93,-366 480.77,-366 501.41,-366"/>
<polygon fill="red" stroke="red" points="437.92,-362.5 427.92,-366 437.92,-369.5 437.92,-362.5"/>
<polygon fill="red" stroke="red" points="501.66,-369.5 511.66,-366 501.66,-362.5 501.66,-369.5"/>
<text text-anchor="middle" x="469.8" y="-351.8" font-family="Times,serif" font-size="14.00">नित्य_सम्बन्धः</text>
</g>
<!-- Node13_1 -->
<g id="node5" class="node">
<title>Node13_1</title>
<ellipse fill="#ff1975" stroke="#ff1975" cx="388" cy="-453" rx="62.29" ry="18"/>
<text text-anchor="middle" x="388" y="-449.3" font-family="Times,serif" font-size="14.00">(अस्ति)(13.1)</text>
</g>
<!-- Node1_1&#45;&gt;Node13_1 -->
<g id="edge1" class="edge">
<title>Node1_1&#45;&gt;Node13_1</title>
<path fill="none" stroke="black" d="M388,-394.27C388,-407.58 388,-423.19 388,-434.82"/>
<polygon fill="black" stroke="black" points="391.5,-394.2 388,-384.2 384.5,-394.2 391.5,-394.2"/>
<text text-anchor="middle" x="399" y="-405.8" font-family="Times,serif" font-size="14.00">कर्ता</text>
</g>
<!-- Node11_2 -->
<g id="node4" class="node">
<title>Node11_2</title>
<ellipse fill="#00bfff" stroke="#00bfff" cx="635" cy="-453" rx="51.99" ry="18"/>
<text text-anchor="middle" x="635" y="-449.3" font-family="Times,serif" font-size="14.00">राजः(11.2)</text>
</g>
<!-- Node12_1&#45;&gt;Node11_2 -->
<g id="edge22" class="edge">
<title>Node12_1&#45;&gt;Node11_2</title>
<path fill="none" stroke="black" d="M582.88,-391.31C595.09,-405.53 610.17,-423.09 620.97,-435.66"/>
<polygon fill="black" stroke="black" points="585.25,-388.69 576.08,-383.39 579.94,-393.26 585.25,-388.69"/>
<text text-anchor="middle" x="624.5" y="-405.8" font-family="Times,serif" font-size="14.00">विशेषणम्</text>
</g>
<!-- Node14_1 -->
<g id="node23" class="node">
<title>Node14_1</title>
<ellipse fill="#ff1975" stroke="#ff1975" cx="635" cy="-540" rx="62.29" ry="18"/>
<text text-anchor="middle" x="635" y="-536.3" font-family="Times,serif" font-size="14.00">(अस्ति)(14.1)</text>
</g>
<!-- Node11_2&#45;&gt;Node14_1 -->
<g id="edge21" class="edge">
<title>Node11_2&#45;&gt;Node14_1</title>
<path fill="none" stroke="black" d="M635,-481.27C635,-494.58 635,-510.19 635,-521.82"/>
<polygon fill="black" stroke="black" points="638.5,-481.2 635,-471.2 631.5,-481.2 638.5,-481.2"/>
<text text-anchor="middle" x="646" y="-492.8" font-family="Times,serif" font-size="14.00">कर्ता</text>
</g>
<!-- Node3_1 -->
<g id="node6" class="node">
<title>Node3_1</title>
<ellipse fill="#ffff00" stroke="#ffff00" cx="168" cy="-105" rx="59.59" ry="18"/>
<text text-anchor="middle" x="168" y="-101.3" font-family="Times,serif" font-size="14.00">जाम्बूनद&#45;(3.1)</text>
</g>
<!-- Node3_2 -->
<g id="node7" class="node">
<title>Node3_2</title>
<ellipse fill="#ffff00" stroke="#ffff00" cx="168" cy="-192" rx="46.29" ry="18"/>
<text text-anchor="middle" x="168" y="-188.3" font-family="Times,serif" font-size="14.00">शुद्ध&#45;(3.2)</text>
</g>
<!-- Node3_1&#45;&gt;Node3_2 -->
<g id="edge4" class="edge">
<title>Node3_1&#45;&gt;Node3_2</title>
<path fill="none" stroke="black" d="M168,-133.27C168,-146.58 168,-162.19 168,-173.82"/>
<polygon fill="black" stroke="black" points="171.5,-133.2 168,-123.2 164.5,-133.2 171.5,-133.2"/>
<text text-anchor="middle" x="185" y="-144.8" font-family="Times,serif" font-size="14.00">समासः</text>
</g>
<!-- Node3_3 -->
<g id="node8" class="node">
<title>Node3_3</title>
<ellipse fill="#00bfff" stroke="#00bfff" cx="168" cy="-279" rx="45.49" ry="18"/>
<text text-anchor="middle" x="168" y="-275.3" font-family="Times,serif" font-size="14.00">गौरः(3.3)</text>
</g>
<!-- Node3_2&#45;&gt;Node3_3 -->
<g id="edge5" class="edge">
<title>Node3_2&#45;&gt;Node3_3</title>
<path fill="none" stroke="black" d="M168,-220.27C168,-233.58 168,-249.19 168,-260.82"/>
<polygon fill="black" stroke="black" points="171.5,-220.2 168,-210.2 164.5,-220.2 171.5,-220.2"/>
<text text-anchor="middle" x="185" y="-231.8" font-family="Times,serif" font-size="14.00">समासः</text>
</g>
<!-- Node3_3&#45;&gt;Node1_1 -->
<g id="edge6" class="edge">
<title>Node3_3&#45;&gt;Node1_1</title>
<path fill="none" stroke="black" d="M184.75,-305.17C192.07,-314.32 201.41,-323.9 212,-330 254.38,-354.42 310.97,-362.05 348.41,-364.3"/>
<polygon fill="black" stroke="black" points="187.42,-302.89 178.61,-297 181.82,-307.1 187.42,-302.89"/>
<text text-anchor="middle" x="251" y="-318.8" font-family="Times,serif" font-size="14.00">विधेय_विशेषणम्</text>
</g>
<!-- Node4_1 -->
<g id="node9" class="node">
<title>Node4_1</title>
<ellipse fill="#00bfff" stroke="#00bfff" cx="276" cy="-279" rx="44.39" ry="18"/>
<text text-anchor="middle" x="276" y="-275.3" font-family="Times,serif" font-size="14.00">तनुः(4.1)</text>
</g>
<!-- Node4_1&#45;&gt;Node1_1 -->
<g id="edge7" class="edge">
<title>Node4_1&#45;&gt;Node1_1</title>
<path fill="none" stroke="black" d="M287.57,-306.07C292.32,-314.55 298.49,-323.45 306,-330 319.89,-342.1 338.58,-350.52 354.61,-356.06"/>
<polygon fill="black" stroke="black" points="290.67,-304.45 282.98,-297.17 284.45,-307.66 290.67,-304.45"/>
<text text-anchor="middle" x="345" y="-318.8" font-family="Times,serif" font-size="14.00">विधेय_विशेषणम्</text>
</g>
<!-- Node5_1 -->
<g id="node10" class="node">
<title>Node5_1</title>
<ellipse fill="#ffff00" stroke="#ffff00" cx="386" cy="-18" rx="49.29" ry="18"/>
<text text-anchor="middle" x="386" y="-14.3" font-family="Times,serif" font-size="14.00">महत्&#45;(5.1)</text>
</g>
<!-- Node5_2 -->
<g id="node11" class="node">
<title>Node5_2</title>
<ellipse fill="#00bfff" stroke="#00bfff" cx="386" cy="-105" rx="47.39" ry="18"/>
<text text-anchor="middle" x="386" y="-101.3" font-family="Times,serif" font-size="14.00">सिंहः(5.2)</text>
</g>
<!-- Node5_1&#45;&gt;Node5_2 -->
<g id="edge8" class="edge">
<title>Node5_1&#45;&gt;Node5_2</title>
<path fill="none" stroke="black" d="M386,-46.27C386,-59.58 386,-75.19 386,-86.82"/>
<polygon fill="black" stroke="black" points="389.5,-46.2 386,-36.2 382.5,-46.2 389.5,-46.2"/>
<text text-anchor="middle" x="403" y="-57.8" font-family="Times,serif" font-size="14.00">समासः</text>
</g>
<!-- Node6_1 -->
<g id="node12" class="node">
<title>Node6_1</title>
<ellipse fill="#ff99ff" stroke="#ff99ff" cx="386" cy="-192" rx="40.89" ry="18"/>
<text text-anchor="middle" x="386" y="-188.3" font-family="Times,serif" font-size="14.00">इव(6.1)</text>
</g>
<!-- Node5_2&#45;&gt;Node6_1 -->
<g id="edge9" class="edge">
<title>Node5_2&#45;&gt;Node6_1</title>
<path fill="none" stroke="black" d="M386,-133.27C386,-146.58 386,-162.19 386,-173.82"/>
<polygon fill="black" stroke="black" points="389.5,-133.2 386,-123.2 382.5,-133.2 389.5,-133.2"/>
<text text-anchor="middle" x="406.5" y="-144.8" font-family="Times,serif" font-size="14.00">उपमानम्</text>
</g>
<!-- Node7_1 -->
<g id="node13" class="node">
<title>Node7_1</title>
<ellipse fill="#00bfff" stroke="#00bfff" cx="388" cy="-279" rx="49.29" ry="18"/>
<text text-anchor="middle" x="388" y="-275.3" font-family="Times,serif" font-size="14.00">प्रवृद्धः(7.1)</text>
</g>
<!-- Node6_1&#45;&gt;Node7_1 -->
<g id="edge10" class="edge">
<title>Node6_1&#45;&gt;Node7_1</title>
<path fill="none" stroke="black" d="M386.64,-220.27C386.95,-233.58 387.32,-249.19 387.6,-260.82"/>
<polygon fill="black" stroke="black" points="390.14,-220.12 386.4,-210.2 383.14,-220.28 390.14,-220.12"/>
<text text-anchor="middle" x="424.5" y="-231.8" font-family="Times,serif" font-size="14.00">उपमान_द्योतकः</text>
</g>
<!-- Node7_1&#45;&gt;Node1_1 -->
<g id="edge11" class="edge">
<title>Node7_1&#45;&gt;Node1_1</title>
<path fill="none" stroke="black" d="M388,-307.27C388,-320.58 388,-336.19 388,-347.82"/>
<polygon fill="black" stroke="black" points="391.5,-307.2 388,-297.2 384.5,-307.2 391.5,-307.2"/>
<text text-anchor="middle" x="427" y="-318.8" font-family="Times,serif" font-size="14.00">विधेय_विशेषणम्</text>
</g>
<!-- Node8_1 -->
<g id="node14" class="node">
<title>Node8_1</title>
<ellipse fill="#ffff00" stroke="#ffff00" cx="499" cy="-192" rx="53.89" ry="18"/>
<text text-anchor="middle" x="499" y="-188.3" font-family="Times,serif" font-size="14.00">प्रचण्ड&#45;(8.1)</text>
</g>
<!-- Node8_2 -->
<g id="node15" class="node">
<title>Node8_2</title>
<ellipse fill="#00bfff" stroke="#00bfff" cx="503" cy="-279" rx="48.19" ry="18"/>
<text text-anchor="middle" x="503" y="-275.3" font-family="Times,serif" font-size="14.00">घोणः(8.2)</text>
</g>
<!-- Node8_1&#45;&gt;Node8_2 -->
<g id="edge12" class="edge">
<title>Node8_1&#45;&gt;Node8_2</title>
<path fill="none" stroke="black" d="M500.28,-220.27C500.91,-233.58 501.64,-249.19 502.19,-260.82"/>
<polygon fill="black" stroke="black" points="503.78,-220.03 499.81,-210.2 496.78,-220.35 503.78,-220.03"/>
<text text-anchor="middle" x="518" y="-231.8" font-family="Times,serif" font-size="14.00">समासः</text>
</g>
<!-- Node8_2&#45;&gt;Node1_1 -->
<g id="edge13" class="edge">
<title>Node8_2&#45;&gt;Node1_1</title>
<path fill="none" stroke="black" d="M489.81,-306.06C484.55,-314.54 477.86,-323.44 470,-330 455.86,-341.8 437.14,-350.19 421.17,-355.8"/>
<polygon fill="black" stroke="black" points="492.98,-307.57 494.95,-297.16 486.92,-304.07 492.98,-307.57"/>
<text text-anchor="middle" x="522" y="-318.8" font-family="Times,serif" font-size="14.00">विधेय_विशेषणम्</text>
</g>
<!-- Node9_1 -->
<g id="node16" class="node">
<title>Node9_1</title>
<ellipse fill="#ffff00" stroke="#ffff00" cx="618" cy="-105" rx="45.49" ry="18"/>
<text text-anchor="middle" x="618" y="-101.3" font-family="Times,serif" font-size="14.00">पृथु&#45;(9.1)</text>
</g>
<!-- Node9_2 -->
<g id="node17" class="node">
<title>Node9_2</title>
<ellipse fill="#ffff00" stroke="#ffff00" cx="618" cy="-192" rx="46.59" ry="18"/>
<text text-anchor="middle" x="618" y="-188.3" font-family="Times,serif" font-size="14.00">दीर्घ&#45;(9.2)</text>
</g>
<!-- Node9_1&#45;&gt;Node9_2 -->
<g id="edge14" class="edge">
<title>Node9_1&#45;&gt;Node9_2</title>
<path fill="none" stroke="black" d="M618,-133.27C618,-146.58 618,-162.19 618,-173.82"/>
<polygon fill="black" stroke="black" points="621.5,-133.2 618,-123.2 614.5,-133.2 621.5,-133.2"/>
<text text-anchor="middle" x="635" y="-144.8" font-family="Times,serif" font-size="14.00">समासः</text>
</g>
<!-- Node9_3 -->
<g id="node18" class="node">
<title>Node9_3</title>
<ellipse fill="#00bfff" stroke="#00bfff" cx="617" cy="-279" rx="44.69" ry="18"/>
<text text-anchor="middle" x="617" y="-275.3" font-family="Times,serif" font-size="14.00">नेत्रः(9.3)</text>
</g>
<!-- Node9_2&#45;&gt;Node9_3 -->
<g id="edge15" class="edge">
<title>Node9_2&#45;&gt;Node9_3</title>
<path fill="none" stroke="black" d="M617.68,-220.27C617.52,-233.58 617.34,-249.19 617.2,-260.82"/>
<polygon fill="black" stroke="black" points="621.18,-220.24 617.8,-210.2 614.18,-220.16 621.18,-220.24"/>
<text text-anchor="middle" x="634" y="-231.8" font-family="Times,serif" font-size="14.00">समासः</text>
</g>
<!-- Node9_3&#45;&gt;Node1_1 -->
<g id="edge16" class="edge">
<title>Node9_3&#45;&gt;Node1_1</title>
<path fill="none" stroke="black" d="M597.32,-304.19C588.41,-313.62 577.15,-323.67 565,-330 541.25,-342.38 470.25,-353.84 425.73,-360.08"/>
<polygon fill="black" stroke="black" points="600.14,-306.28 604.22,-296.5 594.94,-301.6 600.14,-306.28"/>
<text text-anchor="middle" x="624" y="-318.8" font-family="Times,serif" font-size="14.00">विधेय_विशेषणम्</text>
</g>
<!-- Node10_1 -->
<g id="node19" class="node">
<title>Node10_1</title>
<ellipse fill="#ffff00" stroke="#ffff00" cx="742" cy="-105" rx="53.09" ry="18"/>
<text text-anchor="middle" x="742" y="-101.3" font-family="Times,serif" font-size="14.00">ताम्र&#45;(10.1)</text>
</g>
<!-- Node10_2 -->
<g id="node20" class="node">
<title>Node10_2</title>
<ellipse fill="#ffff00" stroke="#ffff00" cx="742" cy="-192" rx="59.29" ry="18"/>
<text text-anchor="middle" x="742" y="-188.3" font-family="Times,serif" font-size="14.00">आयत&#45;(10.2)</text>
</g>
<!-- Node10_1&#45;&gt;Node10_2 -->
<g id="edge17" class="edge">
<title>Node10_1&#45;&gt;Node10_2</title>
<path fill="none" stroke="black" d="M742,-133.27C742,-146.58 742,-162.19 742,-173.82"/>
<polygon fill="black" stroke="black" points="745.5,-133.2 742,-123.2 738.5,-133.2 745.5,-133.2"/>
<text text-anchor="middle" x="759" y="-144.8" font-family="Times,serif" font-size="14.00">समासः</text>
</g>
<!-- Node10_3 -->
<g id="node21" class="node">
<title>Node10_3</title>
<ellipse fill="#00bfff" stroke="#00bfff" cx="741" cy="-279" rx="57.69" ry="18"/>
<text text-anchor="middle" x="741" y="-275.3" font-family="Times,serif" font-size="14.00">आस्यः(10.3)</text>
</g>
<!-- Node10_2&#45;&gt;Node10_3 -->
<g id="edge18" class="edge">
<title>Node10_2&#45;&gt;Node10_3</title>
<path fill="none" stroke="black" d="M741.68,-220.27C741.52,-233.58 741.34,-249.19 741.2,-260.82"/>
<polygon fill="black" stroke="black" points="745.18,-220.24 741.8,-210.2 738.18,-220.16 745.18,-220.24"/>
<text text-anchor="middle" x="758" y="-231.8" font-family="Times,serif" font-size="14.00">समासः</text>
</g>
<!-- Node10_3&#45;&gt;Node1_1 -->
<g id="edge19" class="edge">
<title>Node10_3&#45;&gt;Node1_1</title>
<path fill="none" stroke="black" d="M714.41,-302.61C701.04,-312.71 684.07,-323.73 667,-330 598.16,-355.27 575.73,-338.64 503,-348 476.78,-351.38 447.28,-355.75 424.72,-359.21"/>
<polygon fill="black" stroke="black" points="716.93,-305.08 722.64,-296.16 712.61,-299.57 716.93,-305.08"/>
<text text-anchor="middle" x="734" y="-318.8" font-family="Times,serif" font-size="14.00">विधेय_विशेषणम्</text>
</g>
<!-- Node11_1 -->
<g id="node22" class="node">
<title>Node11_1</title>
<ellipse fill="#ffff00" stroke="#ffff00" cx="682" cy="-366" rx="51.99" ry="18"/>
<text text-anchor="middle" x="682" y="-362.3" font-family="Times,serif" font-size="14.00">कुरु&#45;(11.1)</text>
</g>
<!-- Node11_1&#45;&gt;Node11_2 -->
<g id="edge20" class="edge">
<title>Node11_1&#45;&gt;Node11_2</title>
<path fill="none" stroke="black" d="M667.73,-392.8C660.12,-406.58 650.96,-423.14 644.27,-435.24"/>
<polygon fill="black" stroke="black" points="670.94,-394.24 672.71,-383.79 664.81,-390.85 670.94,-394.24"/>
<text text-anchor="middle" x="678" y="-405.8" font-family="Times,serif" font-size="14.00">समासः</text>
</g>
</g>
</svg>
