<?xml version="1.0" encoding="UTF-8" standalone="no"?>
<!DOCTYPE svg PUBLIC "-//W3C//DTD SVG 1.1//EN"
 "http://www.w3.org/Graphics/SVG/1.1/DTD/svg11.dtd">
<!-- Generated by graphviz version 2.43.0 (0)
 -->
<!-- Title: G Pages: 1 -->
<svg width="1126pt" height="337pt"
 viewBox="0.00 0.00 1126.19 337.00" xmlns="http://www.w3.org/2000/svg" xmlns:xlink="http://www.w3.org/1999/xlink">
<g id="graph0" class="graph" transform="scale(1 1) rotate(0) translate(4 333)">
<title>G</title>
<polygon fill="#fffacd" stroke="transparent" points="-4,4 -4,-333 1122.19,-333 1122.19,4 -4,4"/>
<g id="clust1" class="cluster">
<title>cluster_1</title>
<polygon fill="#fffacd" stroke="black" points="371,-182 371,-321 623,-321 623,-182 371,-182"/>
</g>
<g id="clust2" class="cluster">
<title>cluster_2</title>
<polygon fill="#fffacd" stroke="black" points="8,-8 8,-147 140,-147 140,-8 8,-8"/>
</g>
<!-- Node2_1 -->
<g id="node1" class="node">
<title>Node2_1</title>
<ellipse fill="#ff1975" stroke="#ff1975" cx="430" cy="-208" rx="51.19" ry="18"/>
<text text-anchor="middle" x="430" y="-204.3" font-family="Times,serif" font-size="14.00">यजसि(2.1)</text>
</g>
<!-- Node7_1 -->
<g id="node2" class="node">
<title>Node7_1</title>
<ellipse fill="#ff99ff" stroke="#ff99ff" cx="479" cy="-295" rx="37.89" ry="18"/>
<text text-anchor="middle" x="479" y="-291.3" font-family="Times,serif" font-size="14.00">च(7.1)</text>
</g>
<!-- Node2_1&#45;&gt;Node7_1 -->
<g id="edge2" class="edge">
<title>Node2_1&#45;&gt;Node7_1</title>
<path fill="none" stroke="black" d="M444.68,-234.46C452.72,-248.42 462.46,-265.31 469.51,-277.53"/>
<polygon fill="black" stroke="black" points="447.71,-232.71 439.68,-225.79 441.64,-236.2 447.71,-232.71"/>
<text text-anchor="middle" x="480.5" y="-247.8" font-family="Times,serif" font-size="14.00">समुच्चितः</text>
</g>
<!-- Node10_1 -->
<g id="node3" class="node">
<title>Node10_1</title>
<ellipse fill="#ff1975" stroke="#ff1975" cx="557" cy="-208" rx="57.69" ry="18"/>
<text text-anchor="middle" x="557" y="-204.3" font-family="Times,serif" font-size="14.00">अर्चसि(10.1)</text>
</g>
<!-- Node10_1&#45;&gt;Node7_1 -->
<g id="edge12" class="edge">
<title>Node10_1&#45;&gt;Node7_1</title>
<path fill="none" stroke="black" d="M534.96,-233.01C521.67,-247.5 505.11,-265.55 493.47,-278.24"/>
<polygon fill="black" stroke="black" points="537.78,-235.12 541.96,-225.39 532.62,-230.39 537.78,-235.12"/>
<text text-anchor="middle" x="545.5" y="-247.8" font-family="Times,serif" font-size="14.00">समुच्चितः</text>
</g>
<!-- Node4_1 -->
<g id="node4" class="node">
<title>Node4_1</title>
<ellipse fill="#00bfff" stroke="#00bfff" cx="74" cy="-34" rx="57.69" ry="18"/>
<text text-anchor="middle" x="74" y="-30.3" font-family="Times,serif" font-size="14.00">श्रद्धावान्(4.1)</text>
</g>
<!-- Node12_1 -->
<g id="node5" class="node">
<title>Node12_1</title>
<ellipse fill="#00bfff" stroke="#00bfff" cx="74" cy="-121" rx="57.39" ry="18"/>
<text text-anchor="middle" x="74" y="-117.3" font-family="Times,serif" font-size="14.00">(त्वम्)(12.1)</text>
</g>
<!-- Node4_1&#45;&gt;Node12_1 -->
<g id="edge5" class="edge">
<title>Node4_1&#45;&gt;Node12_1</title>
<path fill="none" stroke="black" d="M74,-62.27C74,-75.58 74,-91.19 74,-102.82"/>
<polygon fill="black" stroke="black" points="77.5,-62.2 74,-52.2 70.5,-62.2 77.5,-62.2"/>
<text text-anchor="middle" x="96.5" y="-73.8" font-family="Times,serif" font-size="14.00">विशेषणम्</text>
</g>
<!-- Node12_1&#45;&gt;Node2_1 -->
<g id="edge14" class="edge">
<title>Node12_1&#45;&gt;Node2_1</title>
<path fill="none" stroke="black" d="M116.74,-139.31C124.41,-142.1 132.39,-144.79 140,-147 224.79,-171.66 326.34,-190.24 384,-199.8"/>
<polygon fill="black" stroke="black" points="117.82,-135.98 107.23,-135.76 115.37,-142.54 117.82,-135.98"/>
<text text-anchor="middle" x="246" y="-160.8" font-family="Times,serif" font-size="14.00">कर्ता</text>
</g>
<!-- Node1_1 -->
<g id="node6" class="node">
<title>Node1_1</title>
<ellipse fill="#ff99ff" stroke="#ff99ff" cx="203" cy="-121" rx="53.89" ry="18"/>
<text text-anchor="middle" x="203" y="-117.3" font-family="Times,serif" font-size="14.00">कच्चित्(1.1)</text>
</g>
<!-- Node1_1&#45;&gt;Node2_1 -->
<g id="edge1" class="edge">
<title>Node1_1&#45;&gt;Node2_1</title>
<path fill="none" stroke="black" d="M244.67,-139.48C268.63,-149.36 299.36,-161.74 327,-172 348.96,-180.15 373.81,-188.62 393.6,-195.18"/>
<polygon fill="black" stroke="black" points="245.76,-136.14 235.18,-135.55 243.08,-142.61 245.76,-136.14"/>
<text text-anchor="middle" x="345.5" y="-160.8" font-family="Times,serif" font-size="14.00">सम्बन्धः</text>
</g>
<!-- Node3_1 -->
<g id="node7" class="node">
<title>Node3_1</title>
<ellipse fill="#ffff00" stroke="#ffff00" cx="318" cy="-34" rx="46.59" ry="18"/>
<text text-anchor="middle" x="318" y="-30.3" font-family="Times,serif" font-size="14.00">राज&#45;(3.1)</text>
</g>
<!-- Node3_2 -->
<g id="node8" class="node">
<title>Node3_2</title>
<ellipse fill="#6fffc3" stroke="#6fffc3" cx="318" cy="-121" rx="43.59" ry="18"/>
<text text-anchor="middle" x="318" y="-117.3" font-family="Times,serif" font-size="14.00">इन्द्र(3.2)</text>
</g>
<!-- Node3_1&#45;&gt;Node3_2 -->
<g id="edge3" class="edge">
<title>Node3_1&#45;&gt;Node3_2</title>
<path fill="none" stroke="black" d="M318,-62.27C318,-75.58 318,-91.19 318,-102.82"/>
<polygon fill="black" stroke="black" points="321.5,-62.2 318,-52.2 314.5,-62.2 321.5,-62.2"/>
<text text-anchor="middle" x="335" y="-73.8" font-family="Times,serif" font-size="14.00">समासः</text>
</g>
<!-- Node3_2&#45;&gt;Node2_1 -->
<g id="edge4" class="edge">
<title>Node3_2&#45;&gt;Node2_1</title>
<path fill="none" stroke="black" d="M346.04,-143.28C365.72,-158.21 391.6,-177.85 409.39,-191.36"/>
<polygon fill="black" stroke="black" points="348.11,-140.45 338.02,-137.2 343.87,-146.03 348.11,-140.45"/>
<text text-anchor="middle" x="402" y="-160.8" font-family="Times,serif" font-size="14.00">सम्बोध्यः</text>
</g>
<!-- Node5_1 -->
<g id="node9" class="node">
<title>Node5_1</title>
<ellipse fill="#ffff00" stroke="#ffff00" cx="430" cy="-34" rx="47.39" ry="18"/>
<text text-anchor="middle" x="430" y="-30.3" font-family="Times,serif" font-size="14.00">पितृ&#45;(5.1)</text>
</g>
<!-- Node5_2 -->
<g id="node10" class="node">
<title>Node5_2</title>
<ellipse fill="#93db70" stroke="#93db70" cx="430" cy="-121" rx="50.89" ry="18"/>
<text text-anchor="middle" x="430" y="-117.3" font-family="Times,serif" font-size="14.00">देवताः(5.2)</text>
</g>
<!-- Node5_1&#45;&gt;Node5_2 -->
<g id="edge6" class="edge">
<title>Node5_1&#45;&gt;Node5_2</title>
<path fill="none" stroke="black" d="M430,-62.27C430,-75.58 430,-91.19 430,-102.82"/>
<polygon fill="black" stroke="black" points="433.5,-62.2 430,-52.2 426.5,-62.2 433.5,-62.2"/>
<text text-anchor="middle" x="447" y="-73.8" font-family="Times,serif" font-size="14.00">समासः</text>
</g>
<!-- Node5_2&#45;&gt;Node2_1 -->
<g id="edge7" class="edge">
<title>Node5_2&#45;&gt;Node2_1</title>
<path fill="none" stroke="black" d="M430,-149.27C430,-162.58 430,-178.19 430,-189.82"/>
<polygon fill="black" stroke="black" points="433.5,-149.2 430,-139.2 426.5,-149.2 433.5,-149.2"/>
<text text-anchor="middle" x="439" y="-160.8" font-family="Times,serif" font-size="14.00">कर्म</text>
</g>
<!-- Node6_1 -->
<g id="node11" class="node">
<title>Node6_1</title>
<ellipse fill="#93db70" stroke="#93db70" cx="557" cy="-121" rx="58.49" ry="18"/>
<text text-anchor="middle" x="557" y="-117.3" font-family="Times,serif" font-size="14.00">अतिथीन्(6.1)</text>
</g>
<!-- Node6_1&#45;&gt;Node10_1 -->
<g id="edge8" class="edge">
<title>Node6_1&#45;&gt;Node10_1</title>
<path fill="none" stroke="black" d="M557,-149.27C557,-162.58 557,-178.19 557,-189.82"/>
<polygon fill="black" stroke="black" points="560.5,-149.2 557,-139.2 553.5,-149.2 560.5,-149.2"/>
<text text-anchor="middle" x="566" y="-160.8" font-family="Times,serif" font-size="14.00">कर्म</text>
</g>
<!-- Node8_1 -->
<g id="node12" class="node">
<title>Node8_1</title>
<ellipse fill="#ffff00" stroke="#ffff00" cx="683" cy="-34" rx="49.29" ry="18"/>
<text text-anchor="middle" x="683" y="-30.3" font-family="Times,serif" font-size="14.00">अन्न&#45;(8.1)</text>
</g>
<!-- Node8_2 -->
<g id="node13" class="node">
<title>Node8_2</title>
<ellipse fill="#40e0d0" stroke="#40e0d0" cx="683" cy="-121" rx="49.29" ry="18"/>
<text text-anchor="middle" x="683" y="-117.3" font-family="Times,serif" font-size="14.00">पानेन(8.2)</text>
</g>
<!-- Node8_1&#45;&gt;Node8_2 -->
<g id="edge9" class="edge">
<title>Node8_1&#45;&gt;Node8_2</title>
<path fill="none" stroke="black" d="M683,-62.27C683,-75.58 683,-91.19 683,-102.82"/>
<polygon fill="black" stroke="black" points="686.5,-62.2 683,-52.2 679.5,-62.2 686.5,-62.2"/>
<text text-anchor="middle" x="700" y="-73.8" font-family="Times,serif" font-size="14.00">समासः</text>
</g>
<!-- Node8_2&#45;&gt;Node10_1 -->
<g id="edge10" class="edge">
<title>Node8_2&#45;&gt;Node10_1</title>
<path fill="none" stroke="black" d="M652.05,-142.88C629.84,-157.86 600.38,-177.73 580.18,-191.36"/>
<polygon fill="black" stroke="black" points="654.14,-145.69 660.47,-137.2 650.23,-139.89 654.14,-145.69"/>
<text text-anchor="middle" x="644.5" y="-160.8" font-family="Times,serif" font-size="14.00">करणम्</text>
</g>
<!-- Node9_1 -->
<g id="node14" class="node">
<title>Node9_1</title>
<ellipse fill="#ff99ff" stroke="#ff99ff" cx="804" cy="-121" rx="53.89" ry="18"/>
<text text-anchor="middle" x="804" y="-117.3" font-family="Times,serif" font-size="14.00">कच्चित्(9.1)</text>
</g>
<!-- Node9_1&#45;&gt;Node10_1 -->
<g id="edge11" class="edge">
<title>Node9_1&#45;&gt;Node10_1</title>
<path fill="none" stroke="black" d="M761.36,-139.32C754.58,-141.96 747.62,-144.6 741,-147 691.72,-164.86 634.18,-183.24 596.74,-194.86"/>
<polygon fill="black" stroke="black" points="763.1,-142.4 771.12,-135.48 760.53,-135.89 763.1,-142.4"/>
<text text-anchor="middle" x="730.5" y="-160.8" font-family="Times,serif" font-size="14.00">सम्बन्धः</text>
</g>
<!-- Node11_1 -->
<g id="node15" class="node">
<title>Node11_1</title>
<ellipse fill="#6fffc3" stroke="#6fffc3" cx="931" cy="-121" rx="54.69" ry="18"/>
<text text-anchor="middle" x="931" y="-117.3" font-family="Times,serif" font-size="14.00">भारत(11.1)</text>
</g>
<!-- Node11_1&#45;&gt;Node10_1 -->
<g id="edge13" class="edge">
<title>Node11_1&#45;&gt;Node10_1</title>
<path fill="none" stroke="black" d="M889.07,-139.46C881.78,-142.18 874.22,-144.81 867,-147 778.34,-173.86 671.64,-191.4 609.35,-200.23"/>
<polygon fill="black" stroke="black" points="890.71,-142.57 898.79,-135.72 888.2,-136.04 890.71,-142.57"/>
<text text-anchor="middle" x="847" y="-160.8" font-family="Times,serif" font-size="14.00">सम्बोध्यः</text>
</g>
<!-- Node13_1 -->
<g id="node16" class="node">
<title>Node13_1</title>
<ellipse fill="#00bfff" stroke="#00bfff" cx="1061" cy="-121" rx="57.39" ry="18"/>
<text text-anchor="middle" x="1061" y="-117.3" font-family="Times,serif" font-size="14.00">(त्वम्)(13.1)</text>
</g>
<!-- Node13_1&#45;&gt;Node10_1 -->
<g id="edge15" class="edge">
<title>Node13_1&#45;&gt;Node10_1</title>
<path fill="none" stroke="black" d="M1018.27,-139.33C1010.59,-142.12 1002.61,-144.8 995,-147 861.72,-185.51 698.3,-199.55 613.74,-204.48"/>
<polygon fill="black" stroke="black" points="1019.63,-142.56 1027.78,-135.78 1017.19,-136 1019.63,-142.56"/>
<text text-anchor="middle" x="959" y="-160.8" font-family="Times,serif" font-size="14.00">कर्ता</text>
</g>
</g>
</svg>
