<?xml version="1.0" encoding="UTF-8" standalone="no"?>
<!DOCTYPE svg PUBLIC "-//W3C//DTD SVG 1.1//EN"
 "http://www.w3.org/Graphics/SVG/1.1/DTD/svg11.dtd">
<!-- Generated by graphviz version 2.43.0 (0)
 -->
<!-- Title: G Pages: 1 -->
<svg width="714pt" height="566pt"
 viewBox="0.00 0.00 714.19 566.00" xmlns="http://www.w3.org/2000/svg" xmlns:xlink="http://www.w3.org/1999/xlink">
<g id="graph0" class="graph" transform="scale(1 1) rotate(0) translate(4 562)">
<title>G</title>
<polygon fill="#fffacd" stroke="transparent" points="-4,4 -4,-562 710.19,-562 710.19,4 -4,4"/>
<g id="clust1" class="cluster">
<title>cluster_1</title>
<polygon fill="#fffacd" stroke="black" points="123.54,-340 123.54,-479 359.54,-479 359.54,-340 123.54,-340"/>
</g>
<!-- Node12_1 -->
<g id="node1" class="node">
<title>Node12_1</title>
<ellipse fill="#00bfff" stroke="#00bfff" cx="296.54" cy="-366" rx="54.69" ry="18"/>
<text text-anchor="middle" x="296.54" y="-362.3" font-family="Times,serif" font-size="14.00">उक्तः(12.1)</text>
</g>
<!-- Node18_3 -->
<g id="node2" class="node">
<title>Node18_3</title>
<ellipse fill="#00bfff" stroke="#00bfff" cx="224.54" cy="-453" rx="46.29" ry="18"/>
<text text-anchor="middle" x="224.54" y="-449.3" font-family="Times,serif" font-size="14.00">जः(18.3)</text>
</g>
<!-- Node12_1&#45;&gt;Node18_3 -->
<g id="edge13" class="edge">
<title>Node12_1&#45;&gt;Node18_3</title>
<path fill="none" stroke="black" d="M275.65,-391.67C263.7,-405.77 249.04,-423.08 238.5,-435.53"/>
<polygon fill="black" stroke="black" points="278.53,-393.69 282.32,-383.79 273.19,-389.16 278.53,-393.69"/>
<text text-anchor="middle" x="287.04" y="-405.8" font-family="Times,serif" font-size="14.00">विशेषणम्</text>
</g>
<!-- Node17_1 -->
<g id="node18" class="node">
<title>Node17_1</title>
<ellipse fill="#ff1975" stroke="#ff1975" cx="502.54" cy="-540" rx="50.09" ry="18"/>
<text text-anchor="middle" x="502.54" y="-536.3" font-family="Times,serif" font-size="14.00">प्राह(17.1)</text>
</g>
<!-- Node18_3&#45;&gt;Node17_1 -->
<g id="edge20" class="edge">
<title>Node18_3&#45;&gt;Node17_1</title>
<path fill="none" stroke="black" d="M269.48,-467.74C323.95,-484.39 414.72,-512.15 465.41,-527.65"/>
<polygon fill="black" stroke="black" points="270.34,-464.34 259.75,-464.77 268.29,-471.04 270.34,-464.34"/>
<text text-anchor="middle" x="390.54" y="-492.8" font-family="Times,serif" font-size="14.00">कर्ता</text>
</g>
<!-- Node13_1 -->
<g id="node3" class="node">
<title>Node13_1</title>
<ellipse fill="#00bfff" stroke="#00bfff" cx="177.54" cy="-366" rx="46.29" ry="18"/>
<text text-anchor="middle" x="177.54" y="-362.3" font-family="Times,serif" font-size="14.00">सः(13.1)</text>
</g>
<!-- Node13_1&#45;&gt;Node18_3 -->
<g id="edge14" class="edge">
<title>Node13_1&#45;&gt;Node18_3</title>
<path fill="none" stroke="black" d="M191.3,-392.76C195.51,-400.57 200.18,-409.15 204.54,-417 207.88,-423 211.59,-429.53 214.9,-435.31"/>
<polygon fill="black" stroke="black" points="194.26,-390.87 186.45,-383.72 188.1,-394.19 194.26,-390.87"/>
<text text-anchor="middle" x="227.04" y="-405.8" font-family="Times,serif" font-size="14.00">विशेषणम्</text>
</g>
<!-- Node1_1 -->
<g id="node4" class="node">
<title>Node1_1</title>
<ellipse fill="#93db70" stroke="#93db70" cx="301.54" cy="-18" rx="42.49" ry="18"/>
<text text-anchor="middle" x="301.54" y="-14.3" font-family="Times,serif" font-size="14.00">यत्(1.1)</text>
</g>
<!-- Node2_1 -->
<g id="node5" class="node">
<title>Node2_1</title>
<ellipse fill="#00bfff" stroke="#00bfff" cx="335.54" cy="-105" rx="48.99" ry="18"/>
<text text-anchor="middle" x="335.54" y="-101.3" font-family="Times,serif" font-size="14.00">अन्नः(2.1)</text>
</g>
<!-- Node1_1&#45;&gt;Node2_1 -->
<g id="edge1" class="edge">
<title>Node1_1&#45;&gt;Node2_1</title>
<path fill="none" stroke="black" d="M312,-45.13C317.44,-58.73 323.94,-74.98 328.73,-86.95"/>
<polygon fill="black" stroke="black" points="315.23,-43.78 308.26,-35.79 308.73,-46.38 315.23,-43.78"/>
<text text-anchor="middle" x="329.54" y="-57.8" font-family="Times,serif" font-size="14.00">कर्म</text>
</g>
<!-- Node6_1 -->
<g id="node6" class="node">
<title>Node6_1</title>
<ellipse fill="#93db70" stroke="#93db70" cx="470.54" cy="-18" rx="42.49" ry="18"/>
<text text-anchor="middle" x="470.54" y="-14.3" font-family="Times,serif" font-size="14.00">तत्(6.1)</text>
</g>
<!-- Node1_1&#45;&gt;Node6_1 -->
<g id="edge2" class="edge">
<title>Node1_1&#45;&gt;Node6_1</title>
<path fill="none" stroke="red" stroke-dasharray="5,2" d="M354.45,-18C374.68,-18 397.73,-18 417.93,-18"/>
<polygon fill="red" stroke="red" points="354.19,-14.5 344.19,-18 354.19,-21.5 354.19,-14.5"/>
<polygon fill="red" stroke="red" points="418.21,-21.5 428.21,-18 418.21,-14.5 418.21,-21.5"/>
<text text-anchor="middle" x="386.04" y="-3.8" font-family="Times,serif" font-size="14.00">नित्य_सम्बन्धः</text>
</g>
<!-- Node4_1 -->
<g id="node7" class="node">
<title>Node4_1</title>
<ellipse fill="#00bfff" stroke="#00bfff" cx="502.54" cy="-192" rx="42.79" ry="18"/>
<text text-anchor="middle" x="502.54" y="-188.3" font-family="Times,serif" font-size="14.00">नरः(4.1)</text>
</g>
<!-- Node2_1&#45;&gt;Node4_1 -->
<g id="edge3" class="edge">
<title>Node2_1&#45;&gt;Node4_1</title>
<path fill="none" stroke="black" d="M334.28,-133.45C335.28,-141.61 337.86,-149.98 343.54,-156 351.77,-164.71 418.8,-177.23 463.17,-184.7"/>
<polygon fill="black" stroke="black" points="337.77,-133.21 333.76,-123.41 330.78,-133.58 337.77,-133.21"/>
<text text-anchor="middle" x="382.54" y="-144.8" font-family="Times,serif" font-size="14.00">विधेय_विशेषणम्</text>
</g>
<!-- Node7_1 -->
<g id="node11" class="node">
<title>Node7_1</title>
<ellipse fill="#00bfff" stroke="#00bfff" cx="450.54" cy="-105" rx="48.99" ry="18"/>
<text text-anchor="middle" x="450.54" y="-101.3" font-family="Times,serif" font-size="14.00">अन्नः(7.1)</text>
</g>
<!-- Node6_1&#45;&gt;Node7_1 -->
<g id="edge7" class="edge">
<title>Node6_1&#45;&gt;Node7_1</title>
<path fill="none" stroke="black" d="M464.13,-46.27C461,-59.58 457.32,-75.19 454.59,-86.82"/>
<polygon fill="black" stroke="black" points="467.61,-46.74 466.5,-36.2 460.8,-45.13 467.61,-46.74"/>
<text text-anchor="middle" x="470.54" y="-57.8" font-family="Times,serif" font-size="14.00">कर्म</text>
</g>
<!-- Node20_1 -->
<g id="node9" class="node">
<title>Node20_1</title>
<ellipse fill="#ff1975" stroke="#ff1975" cx="573.54" cy="-279" rx="62.29" ry="18"/>
<text text-anchor="middle" x="573.54" y="-275.3" font-family="Times,serif" font-size="14.00">(अस्ति)(20.1)</text>
</g>
<!-- Node4_1&#45;&gt;Node20_1 -->
<g id="edge5" class="edge">
<title>Node4_1&#45;&gt;Node20_1</title>
<path fill="none" stroke="black" d="M522.81,-217.26C534.6,-231.37 549.16,-248.81 559.66,-261.37"/>
<polygon fill="black" stroke="black" points="525.33,-214.82 516.23,-209.39 519.96,-219.31 525.33,-214.82"/>
<text text-anchor="middle" x="552.54" y="-231.8" font-family="Times,serif" font-size="14.00">कर्ता</text>
</g>
<!-- Node3_1 -->
<g id="node8" class="node">
<title>Node3_1</title>
<ellipse fill="#ff99ff" stroke="#ff99ff" cx="556.54" cy="-105" rx="38.99" ry="18"/>
<text text-anchor="middle" x="556.54" y="-101.3" font-family="Times,serif" font-size="14.00">हि(3.1)</text>
</g>
<!-- Node3_1&#45;&gt;Node4_1 -->
<g id="edge4" class="edge">
<title>Node3_1&#45;&gt;Node4_1</title>
<path fill="none" stroke="black" d="M541.06,-131.26C536.15,-139.21 530.66,-147.99 525.54,-156 521.71,-162.01 517.44,-168.54 513.63,-174.32"/>
<polygon fill="black" stroke="black" points="544.05,-133.08 546.32,-122.74 538.09,-129.41 544.05,-133.08"/>
<text text-anchor="middle" x="552.04" y="-144.8" font-family="Times,serif" font-size="14.00">सम्बन्धः</text>
</g>
<!-- Node5_1 -->
<g id="node10" class="node">
<title>Node5_1</title>
<ellipse fill="#6fffc3" stroke="#6fffc3" cx="612.54" cy="-192" rx="48.99" ry="18"/>
<text text-anchor="middle" x="612.54" y="-188.3" font-family="Times,serif" font-size="14.00">राजन्(5.1)</text>
</g>
<!-- Node5_1&#45;&gt;Node20_1 -->
<g id="edge6" class="edge">
<title>Node5_1&#45;&gt;Node20_1</title>
<path fill="none" stroke="black" d="M600.55,-219.13C594.31,-232.73 586.86,-248.98 581.37,-260.95"/>
<polygon fill="black" stroke="black" points="603.85,-220.34 604.84,-209.79 597.49,-217.42 603.85,-220.34"/>
<text text-anchor="middle" x="615.54" y="-231.8" font-family="Times,serif" font-size="14.00">सम्बोध्यः</text>
</g>
<!-- Node9_1 -->
<g id="node12" class="node">
<title>Node9_1</title>
<ellipse fill="#00bfff" stroke="#00bfff" cx="214.54" cy="-192" rx="55.79" ry="18"/>
<text text-anchor="middle" x="214.54" y="-188.3" font-family="Times,serif" font-size="14.00">अतिथिः(9.1)</text>
</g>
<!-- Node7_1&#45;&gt;Node9_1 -->
<g id="edge8" class="edge">
<title>Node7_1&#45;&gt;Node9_1</title>
<path fill="none" stroke="black" d="M440.86,-132.54C436.33,-141.37 430.02,-150.38 421.54,-156 395.04,-173.58 310.77,-167.96 279.54,-174 271.64,-175.53 263.28,-177.47 255.28,-179.48"/>
<polygon fill="black" stroke="black" points="444.16,-133.75 445.1,-123.2 437.78,-130.86 444.16,-133.75"/>
<text text-anchor="middle" x="474.54" y="-144.8" font-family="Times,serif" font-size="14.00">विधेय_विशेषणम्</text>
</g>
<!-- Node21_1 -->
<g id="node14" class="node">
<title>Node21_1</title>
<ellipse fill="#ff1975" stroke="#ff1975" cx="296.54" cy="-279" rx="62.29" ry="18"/>
<text text-anchor="middle" x="296.54" y="-275.3" font-family="Times,serif" font-size="14.00">(अस्ति)(21.1)</text>
</g>
<!-- Node9_1&#45;&gt;Node21_1 -->
<g id="edge10" class="edge">
<title>Node9_1&#45;&gt;Node21_1</title>
<path fill="none" stroke="black" d="M237.56,-216.86C251.25,-231.05 268.27,-248.69 280.5,-261.37"/>
<polygon fill="black" stroke="black" points="239.82,-214.16 230.36,-209.39 234.78,-219.02 239.82,-214.16"/>
<text text-anchor="middle" x="270.54" y="-231.8" font-family="Times,serif" font-size="14.00">कर्ता</text>
</g>
<!-- Node8_1 -->
<g id="node13" class="node">
<title>Node8_1</title>
<ellipse fill="#87ceeb" stroke="#87ceeb" cx="95.54" cy="-105" rx="47.39" ry="18"/>
<text text-anchor="middle" x="95.54" y="-101.3" font-family="Times,serif" font-size="14.00">अस्य(8.1)</text>
</g>
<!-- Node8_1&#45;&gt;Node9_1 -->
<g id="edge9" class="edge">
<title>Node8_1&#45;&gt;Node9_1</title>
<path fill="none" stroke="black" d="M120.65,-128.44C131.14,-137.41 143.63,-147.58 155.54,-156 165.66,-163.15 177.3,-170.26 187.54,-176.19"/>
<polygon fill="black" stroke="black" points="122.92,-125.78 113.07,-121.87 118.33,-131.07 122.92,-125.78"/>
<text text-anchor="middle" x="183.04" y="-144.8" font-family="Times,serif" font-size="14.00">षष्ठीसम्बन्धः</text>
</g>
<!-- Node21_1&#45;&gt;Node12_1 -->
<g id="edge22" class="edge">
<title>Node21_1&#45;&gt;Node12_1</title>
<path fill="none" stroke="black" d="M296.54,-307.27C296.54,-320.58 296.54,-336.19 296.54,-347.82"/>
<polygon fill="black" stroke="black" points="300.05,-307.2 296.54,-297.2 293.05,-307.2 300.05,-307.2"/>
<text text-anchor="middle" x="318.04" y="-318.8" font-family="Times,serif" font-size="14.00">वाक्यकर्म</text>
</g>
<!-- Node10_1 -->
<g id="node15" class="node">
<title>Node10_1</title>
<ellipse fill="#00bfff" stroke="#00bfff" cx="214.54" cy="-105" rx="53.89" ry="18"/>
<text text-anchor="middle" x="214.54" y="-101.3" font-family="Times,serif" font-size="14.00">स्मृतः(10.1)</text>
</g>
<!-- Node10_1&#45;&gt;Node9_1 -->
<g id="edge11" class="edge">
<title>Node10_1&#45;&gt;Node9_1</title>
<path fill="none" stroke="black" d="M214.54,-133.27C214.54,-146.58 214.54,-162.19 214.54,-173.82"/>
<polygon fill="black" stroke="black" points="218.05,-133.2 214.54,-123.2 211.05,-133.2 218.05,-133.2"/>
<text text-anchor="middle" x="253.54" y="-144.8" font-family="Times,serif" font-size="14.00">विधेय_विशेषणम्</text>
</g>
<!-- Node11_1 -->
<g id="node16" class="node">
<title>Node11_1</title>
<ellipse fill="#ff99ff" stroke="#ff99ff" cx="338.54" cy="-192" rx="50.09" ry="18"/>
<text text-anchor="middle" x="338.54" y="-188.3" font-family="Times,serif" font-size="14.00">इति(11.1)</text>
</g>
<!-- Node11_1&#45;&gt;Node21_1 -->
<g id="edge12" class="edge">
<title>Node11_1&#45;&gt;Node21_1</title>
<path fill="none" stroke="black" d="M325.63,-219.13C318.91,-232.73 310.89,-248.98 304.97,-260.95"/>
<polygon fill="black" stroke="black" points="328.96,-220.31 330.25,-209.79 322.68,-217.21 328.96,-220.31"/>
<text text-anchor="middle" x="360.54" y="-231.8" font-family="Times,serif" font-size="14.00">वाक्यकर्म_द्योतकः</text>
</g>
<!-- Node14_1 -->
<g id="node17" class="node">
<title>Node14_1</title>
<ellipse fill="#ff99ff" stroke="#ff99ff" cx="419.54" cy="-453" rx="50.89" ry="18"/>
<text text-anchor="middle" x="419.54" y="-449.3" font-family="Times,serif" font-size="14.00">तथा(14.1)</text>
</g>
<!-- Node14_1&#45;&gt;Node17_1 -->
<g id="edge15" class="edge">
<title>Node14_1&#45;&gt;Node17_1</title>
<path fill="none" stroke="black" d="M442.89,-477.91C456.84,-492.2 474.2,-509.98 486.59,-522.66"/>
<polygon fill="black" stroke="black" points="445.04,-475.1 435.55,-470.39 440.03,-479.99 445.04,-475.1"/>
<text text-anchor="middle" x="487.04" y="-492.8" font-family="Times,serif" font-size="14.00">वाक्यकर्म</text>
</g>
<!-- Node15_1 -->
<g id="node19" class="node">
<title>Node15_1</title>
<ellipse fill="#ff99ff" stroke="#ff99ff" cx="419.54" cy="-366" rx="50.09" ry="18"/>
<text text-anchor="middle" x="419.54" y="-362.3" font-family="Times,serif" font-size="14.00">इति(15.1)</text>
</g>
<!-- Node15_1&#45;&gt;Node14_1 -->
<g id="edge16" class="edge">
<title>Node15_1&#45;&gt;Node14_1</title>
<path fill="none" stroke="black" d="M419.54,-394.27C419.54,-407.58 419.54,-423.19 419.54,-434.82"/>
<polygon fill="black" stroke="black" points="423.05,-394.2 419.54,-384.2 416.05,-394.2 423.05,-394.2"/>
<text text-anchor="middle" x="460.54" y="-405.8" font-family="Times,serif" font-size="14.00">वाक्यकर्म_द्योतकः</text>
</g>
<!-- Node16_1 -->
<g id="node20" class="node">
<title>Node16_1</title>
<ellipse fill="#ff99ff" stroke="#ff99ff" cx="535.54" cy="-453" rx="47.39" ry="18"/>
<text text-anchor="middle" x="535.54" y="-449.3" font-family="Times,serif" font-size="14.00">एव(16.1)</text>
</g>
<!-- Node16_1&#45;&gt;Node17_1 -->
<g id="edge17" class="edge">
<title>Node16_1&#45;&gt;Node17_1</title>
<path fill="none" stroke="black" d="M525.24,-480.54C519.97,-494.12 513.71,-510.24 509.1,-522.11"/>
<polygon fill="black" stroke="black" points="528.51,-481.79 528.87,-471.2 521.98,-479.26 528.51,-481.79"/>
<text text-anchor="middle" x="539.04" y="-492.8" font-family="Times,serif" font-size="14.00">सम्बन्धः</text>
</g>
<!-- Node18_1 -->
<g id="node21" class="node">
<title>Node18_1</title>
<ellipse fill="#ffff00" stroke="#ffff00" cx="56.54" cy="-279" rx="51.19" ry="18"/>
<text text-anchor="middle" x="56.54" y="-275.3" font-family="Times,serif" font-size="14.00">धर्म&#45;(18.1)</text>
</g>
<!-- Node18_2 -->
<g id="node22" class="node">
<title>Node18_2</title>
<ellipse fill="#ffff00" stroke="#ffff00" cx="56.54" cy="-366" rx="56.59" ry="18"/>
<text text-anchor="middle" x="56.54" y="-362.3" font-family="Times,serif" font-size="14.00">आत्म&#45;(18.2)</text>
</g>
<!-- Node18_1&#45;&gt;Node18_2 -->
<g id="edge18" class="edge">
<title>Node18_1&#45;&gt;Node18_2</title>
<path fill="none" stroke="black" d="M56.54,-307.27C56.54,-320.58 56.54,-336.19 56.54,-347.82"/>
<polygon fill="black" stroke="black" points="60.05,-307.2 56.54,-297.2 53.05,-307.2 60.05,-307.2"/>
<text text-anchor="middle" x="73.54" y="-318.8" font-family="Times,serif" font-size="14.00">समासः</text>
</g>
<!-- Node18_2&#45;&gt;Node18_3 -->
<g id="edge19" class="edge">
<title>Node18_2&#45;&gt;Node18_3</title>
<path fill="none" stroke="black" d="M94.72,-386.31C126.03,-402.16 169.59,-424.2 197.43,-438.28"/>
<polygon fill="black" stroke="black" points="95.93,-383 85.43,-381.61 92.77,-389.25 95.93,-383"/>
<text text-anchor="middle" x="167.54" y="-405.8" font-family="Times,serif" font-size="14.00">समासः</text>
</g>
<!-- Node19_1 -->
<g id="node23" class="node">
<title>Node19_1</title>
<ellipse fill="#93db70" stroke="#93db70" cx="653.54" cy="-453" rx="52.79" ry="18"/>
<text text-anchor="middle" x="653.54" y="-449.3" font-family="Times,serif" font-size="14.00">नृपम्(19.1)</text>
</g>
<!-- Node19_1&#45;&gt;Node17_1 -->
<g id="edge21" class="edge">
<title>Node19_1&#45;&gt;Node17_1</title>
<path fill="none" stroke="black" d="M618.35,-473.81C590.88,-489.28 553.34,-510.4 528.55,-524.36"/>
<polygon fill="black" stroke="black" points="620.25,-476.76 627.24,-468.81 616.81,-470.66 620.25,-476.76"/>
<text text-anchor="middle" x="606.04" y="-492.8" font-family="Times,serif" font-size="14.00">गौणकर्म</text>
</g>
</g>
</svg>
