<?xml version="1.0" encoding="UTF-8" standalone="no"?>
<!DOCTYPE svg PUBLIC "-//W3C//DTD SVG 1.1//EN"
 "http://www.w3.org/Graphics/SVG/1.1/DTD/svg11.dtd">
<!-- Generated by graphviz version 2.43.0 (0)
 -->
<!-- Title: G Pages: 1 -->
<svg width="687pt" height="392pt"
 viewBox="0.00 0.00 687.10 392.00" xmlns="http://www.w3.org/2000/svg" xmlns:xlink="http://www.w3.org/1999/xlink">
<g id="graph0" class="graph" transform="scale(1 1) rotate(0) translate(4 388)">
<title>G</title>
<polygon fill="#fffacd" stroke="transparent" points="-4,4 -4,-388 683.1,-388 683.1,4 -4,4"/>
<g id="clust1" class="cluster">
<title>cluster_1</title>
<polygon fill="#fffacd" stroke="black" points="393.1,-166 393.1,-305 671.1,-305 671.1,-166 393.1,-166"/>
</g>
<!-- Node2_1 -->
<g id="node1" class="node">
<title>Node2_1</title>
<ellipse fill="#00bfff" stroke="#00bfff" cx="463.1" cy="-192" rx="62.29" ry="18"/>
<text text-anchor="middle" x="463.1" y="-188.3" font-family="Times,serif" font-size="14.00">आलक्षितः(2.1)</text>
</g>
<!-- Node3_1 -->
<g id="node2" class="node">
<title>Node3_1</title>
<ellipse fill="#00bfff" stroke="#00bfff" cx="455.1" cy="-279" rx="46.59" ry="18"/>
<text text-anchor="middle" x="455.1" y="-275.3" font-family="Times,serif" font-size="14.00">क्षत्ता(3.1)</text>
</g>
<!-- Node2_1&#45;&gt;Node3_1 -->
<g id="edge2" class="edge">
<title>Node2_1&#45;&gt;Node3_1</title>
<path fill="none" stroke="black" d="M460.53,-220.27C459.28,-233.58 457.81,-249.19 456.71,-260.82"/>
<polygon fill="black" stroke="black" points="464.02,-220.49 461.48,-210.2 457.06,-219.83 464.02,-220.49"/>
<text text-anchor="middle" x="481.6" y="-231.8" font-family="Times,serif" font-size="14.00">विशेषणम्</text>
</g>
<!-- Node13_1 -->
<g id="node5" class="node">
<title>Node13_1</title>
<ellipse fill="#ff1975" stroke="#ff1975" cx="176.1" cy="-366" rx="66.09" ry="18"/>
<text text-anchor="middle" x="176.1" y="-362.3" font-family="Times,serif" font-size="14.00">(अभवत्)(13.1)</text>
</g>
<!-- Node3_1&#45;&gt;Node13_1 -->
<g id="edge3" class="edge">
<title>Node3_1&#45;&gt;Node13_1</title>
<path fill="none" stroke="black" d="M409.71,-293.83C356.91,-309.91 270.42,-336.26 218.8,-351.99"/>
<polygon fill="black" stroke="black" points="410.93,-297.11 419.48,-290.85 408.89,-290.42 410.93,-297.11"/>
<text text-anchor="middle" x="344.1" y="-318.8" font-family="Times,serif" font-size="14.00">कर्ता</text>
</g>
<!-- Node5_1 -->
<g id="node3" class="node">
<title>Node5_1</title>
<ellipse fill="#00bfff" stroke="#00bfff" cx="603.1" cy="-192" rx="59.59" ry="18"/>
<text text-anchor="middle" x="603.1" y="-188.3" font-family="Times,serif" font-size="14.00">आख्यातः(5.1)</text>
</g>
<!-- Node5_1&#45;&gt;Node3_1 -->
<g id="edge5" class="edge">
<title>Node5_1&#45;&gt;Node3_1</title>
<path fill="none" stroke="black" d="M567.9,-213.22C540.95,-228.69 504.43,-249.67 480.34,-263.5"/>
<polygon fill="black" stroke="black" points="569.71,-216.21 576.64,-208.2 566.22,-210.14 569.71,-216.21"/>
<text text-anchor="middle" x="559.6" y="-231.8" font-family="Times,serif" font-size="14.00">विशेषणम्</text>
</g>
<!-- Node1_1 -->
<g id="node4" class="node">
<title>Node1_1</title>
<ellipse fill="#b4ffb4" stroke="#b4ffb4" cx="373.1" cy="-105" rx="47.39" ry="18"/>
<text text-anchor="middle" x="373.1" y="-101.3" font-family="Times,serif" font-size="14.00">दूरात्(1.1)</text>
</g>
<!-- Node1_1&#45;&gt;Node2_1 -->
<g id="edge1" class="edge">
<title>Node1_1&#45;&gt;Node2_1</title>
<path fill="none" stroke="black" d="M386.52,-131.85C391.61,-140.17 397.94,-149.03 405.1,-156 413.1,-163.8 423.15,-170.63 432.63,-176.13"/>
<polygon fill="black" stroke="black" points="389.52,-130.05 381.49,-123.15 383.46,-133.56 389.52,-130.05"/>
<text text-anchor="middle" x="435.6" y="-144.8" font-family="Times,serif" font-size="14.00">सन्दर्भ_बिन्दुः</text>
</g>
<!-- Node4_1 -->
<g id="node6" class="node">
<title>Node4_1</title>
<ellipse fill="#ff99ff" stroke="#ff99ff" cx="481.1" cy="-105" rx="42.49" ry="18"/>
<text text-anchor="middle" x="481.1" y="-101.3" font-family="Times,serif" font-size="14.00">तत्र(4.1)</text>
</g>
<!-- Node4_1&#45;&gt;Node2_1 -->
<g id="edge4" class="edge">
<title>Node4_1&#45;&gt;Node2_1</title>
<path fill="none" stroke="black" d="M475.32,-133.27C472.5,-146.58 469.2,-162.19 466.73,-173.82"/>
<polygon fill="black" stroke="black" points="478.81,-133.71 477.45,-123.2 471.96,-132.26 478.81,-133.71"/>
<text text-anchor="middle" x="505.1" y="-144.8" font-family="Times,serif" font-size="14.00">देशाधिकरणम्</text>
</g>
<!-- Node6_1 -->
<g id="node7" class="node">
<title>Node6_1</title>
<ellipse fill="#ffff00" stroke="#ffff00" cx="603.1" cy="-18" rx="46.59" ry="18"/>
<text text-anchor="middle" x="603.1" y="-14.3" font-family="Times,serif" font-size="14.00">मही&#45;(6.1)</text>
</g>
<!-- Node6_2 -->
<g id="node8" class="node">
<title>Node6_2</title>
<ellipse fill="#87ceeb" stroke="#87ceeb" cx="603.1" cy="-105" rx="44.39" ry="18"/>
<text text-anchor="middle" x="603.1" y="-101.3" font-family="Times,serif" font-size="14.00">पतेः(6.2)</text>
</g>
<!-- Node6_1&#45;&gt;Node6_2 -->
<g id="edge6" class="edge">
<title>Node6_1&#45;&gt;Node6_2</title>
<path fill="none" stroke="black" d="M603.1,-46.27C603.1,-59.58 603.1,-75.19 603.1,-86.82"/>
<polygon fill="black" stroke="black" points="606.6,-46.2 603.1,-36.2 599.6,-46.2 606.6,-46.2"/>
<text text-anchor="middle" x="620.1" y="-57.8" font-family="Times,serif" font-size="14.00">समासः</text>
</g>
<!-- Node6_2&#45;&gt;Node5_1 -->
<g id="edge7" class="edge">
<title>Node6_2&#45;&gt;Node5_1</title>
<path fill="none" stroke="black" d="M603.1,-133.27C603.1,-146.58 603.1,-162.19 603.1,-173.82"/>
<polygon fill="black" stroke="black" points="606.6,-133.2 603.1,-123.2 599.6,-133.2 606.6,-133.2"/>
<text text-anchor="middle" x="630.6" y="-144.8" font-family="Times,serif" font-size="14.00">षष्ठीसम्बन्धः</text>
</g>
<!-- Node7_1 -->
<g id="node9" class="node">
<title>Node7_1</title>
<ellipse fill="#00bfff" stroke="#00bfff" cx="319.1" cy="-192" rx="63.89" ry="18"/>
<text text-anchor="middle" x="319.1" y="-188.3" font-family="Times,serif" font-size="14.00">निवर्तमानः(7.1)</text>
</g>
<!-- Node7_1&#45;&gt;Node3_1 -->
<g id="edge8" class="edge">
<title>Node7_1&#45;&gt;Node3_1</title>
<path fill="none" stroke="black" d="M342.83,-216.71C352.6,-225.67 364.37,-235.51 376.1,-243 390.38,-252.13 407.45,-260.02 422.06,-265.98"/>
<polygon fill="black" stroke="black" points="345.15,-214.08 335.47,-209.77 340.35,-219.18 345.15,-214.08"/>
<text text-anchor="middle" x="415.1" y="-231.8" font-family="Times,serif" font-size="14.00">विधेय_विशेषणम्</text>
</g>
<!-- Node8_1 -->
<g id="node10" class="node">
<title>Node8_1</title>
<ellipse fill="#ff99ff" stroke="#ff99ff" cx="53.1" cy="-279" rx="50.89" ry="18"/>
<text text-anchor="middle" x="53.1" y="-275.3" font-family="Times,serif" font-size="14.00">सहसा(8.1)</text>
</g>
<!-- Node8_1&#45;&gt;Node13_1 -->
<g id="edge9" class="edge">
<title>Node8_1&#45;&gt;Node13_1</title>
<path fill="none" stroke="black" d="M73.6,-304.29C81.85,-313.11 91.83,-322.69 102.1,-330 113.56,-338.16 127.22,-345.24 139.67,-350.86"/>
<polygon fill="black" stroke="black" points="76.14,-301.88 66.83,-296.81 70.95,-306.57 76.14,-301.88"/>
<text text-anchor="middle" x="137.1" y="-318.8" font-family="Times,serif" font-size="14.00">क्रियाविशेषणम्</text>
</g>
<!-- Node9_1 -->
<g id="node11" class="node">
<title>Node9_1</title>
<ellipse fill="#93db70" stroke="#93db70" cx="48.1" cy="-192" rx="48.19" ry="18"/>
<text text-anchor="middle" x="48.1" y="-188.3" font-family="Times,serif" font-size="14.00">जनम्(9.1)</text>
</g>
<!-- Node10_1 -->
<g id="node12" class="node">
<title>Node10_1</title>
<ellipse fill="#ff99ff" stroke="#ff99ff" cx="176.1" cy="-279" rx="53.89" ry="18"/>
<text text-anchor="middle" x="176.1" y="-275.3" font-family="Times,serif" font-size="14.00">दृष्ट्वा(10.1)</text>
</g>
<!-- Node9_1&#45;&gt;Node10_1 -->
<g id="edge10" class="edge">
<title>Node9_1&#45;&gt;Node10_1</title>
<path fill="none" stroke="black" d="M79.29,-213.71C102,-228.8 132.26,-248.89 152.87,-262.58"/>
<polygon fill="black" stroke="black" points="80.95,-210.62 70.68,-208 77.08,-216.45 80.95,-210.62"/>
<text text-anchor="middle" x="129.1" y="-231.8" font-family="Times,serif" font-size="14.00">कर्म</text>
</g>
<!-- Node10_1&#45;&gt;Node13_1 -->
<g id="edge11" class="edge">
<title>Node10_1&#45;&gt;Node13_1</title>
<path fill="none" stroke="black" d="M176.1,-307.27C176.1,-320.58 176.1,-336.19 176.1,-347.82"/>
<polygon fill="black" stroke="black" points="179.6,-307.2 176.1,-297.2 172.6,-307.2 179.6,-307.2"/>
<text text-anchor="middle" x="196.6" y="-318.8" font-family="Times,serif" font-size="14.00">पूर्वकालः</text>
</g>
<!-- Node11_1 -->
<g id="node13" class="node">
<title>Node11_1</title>
<ellipse fill="#93db70" stroke="#93db70" cx="176.1" cy="-192" rx="61.99" ry="18"/>
<text text-anchor="middle" x="176.1" y="-188.3" font-family="Times,serif" font-size="14.00">आश्रमम्(11.1)</text>
</g>
<!-- Node11_1&#45;&gt;Node10_1 -->
<g id="edge12" class="edge">
<title>Node11_1&#45;&gt;Node10_1</title>
<path fill="none" stroke="black" d="M176.1,-220.27C176.1,-233.58 176.1,-249.19 176.1,-260.82"/>
<polygon fill="black" stroke="black" points="179.6,-220.2 176.1,-210.2 172.6,-220.2 179.6,-220.2"/>
<text text-anchor="middle" x="185.1" y="-231.8" font-family="Times,serif" font-size="14.00">कर्म</text>
</g>
<!-- Node12_1 -->
<g id="node14" class="node">
<title>Node12_1</title>
<ellipse fill="#ff99ff" stroke="#ff99ff" cx="176.1" cy="-105" rx="50.09" ry="18"/>
<text text-anchor="middle" x="176.1" y="-101.3" font-family="Times,serif" font-size="14.00">प्रति(12.1)</text>
</g>
<!-- Node12_1&#45;&gt;Node11_1 -->
<g id="edge13" class="edge">
<title>Node12_1&#45;&gt;Node11_1</title>
<path fill="none" stroke="black" d="M176.1,-133.27C176.1,-146.58 176.1,-162.19 176.1,-173.82"/>
<polygon fill="black" stroke="black" points="179.6,-133.2 176.1,-123.2 172.6,-133.2 179.6,-133.2"/>
<text text-anchor="middle" x="207.6" y="-144.8" font-family="Times,serif" font-size="14.00">कर्मप्रवचनीयः</text>
</g>
</g>
</svg>
