<?xml version="1.0" encoding="UTF-8" standalone="no"?>
<!DOCTYPE svg PUBLIC "-//W3C//DTD SVG 1.1//EN"
 "http://www.w3.org/Graphics/SVG/1.1/DTD/svg11.dtd">
<!-- Generated by graphviz version 2.43.0 (0)
 -->
<!-- Title: G Pages: 1 -->
<svg width="594pt" height="392pt"
 viewBox="0.00 0.00 594.45 392.00" xmlns="http://www.w3.org/2000/svg" xmlns:xlink="http://www.w3.org/1999/xlink">
<g id="graph0" class="graph" transform="scale(1 1) rotate(0) translate(4 388)">
<title>G</title>
<polygon fill="#fffacd" stroke="transparent" points="-4,4 -4,-388 590.45,-388 590.45,4 -4,4"/>
<g id="clust1" class="cluster">
<title>cluster_1</title>
<polygon fill="#fffacd" stroke="black" points="228,-79 228,-218 342,-218 342,-79 228,-79"/>
</g>
<g id="clust2" class="cluster">
<title>cluster_2</title>
<polygon fill="#fffacd" stroke="black" points="8,-79 8,-218 130,-218 130,-79 8,-79"/>
</g>
<!-- Node1_1 -->
<g id="node1" class="node">
<title>Node1_1</title>
<ellipse fill="#00bfff" stroke="#00bfff" cx="285" cy="-105" rx="40.09" ry="18"/>
<text text-anchor="middle" x="285" y="-101.3" font-family="Times,serif" font-size="14.00">सः(1.1)</text>
</g>
<!-- Node7_1 -->
<g id="node2" class="node">
<title>Node7_1</title>
<ellipse fill="#00bfff" stroke="#00bfff" cx="285" cy="-192" rx="49.29" ry="18"/>
<text text-anchor="middle" x="285" y="-188.3" font-family="Times,serif" font-size="14.00">विदुरः(7.1)</text>
</g>
<!-- Node1_1&#45;&gt;Node7_1 -->
<g id="edge1" class="edge">
<title>Node1_1&#45;&gt;Node7_1</title>
<path fill="none" stroke="black" d="M285,-133.27C285,-146.58 285,-162.19 285,-173.82"/>
<polygon fill="black" stroke="black" points="288.5,-133.2 285,-123.2 281.5,-133.2 288.5,-133.2"/>
<text text-anchor="middle" x="307.5" y="-144.8" font-family="Times,serif" font-size="14.00">विशेषणम्</text>
</g>
<!-- Node3_1 -->
<g id="node7" class="node">
<title>Node3_1</title>
<ellipse fill="#ff99ff" stroke="#ff99ff" cx="339" cy="-279" rx="56.59" ry="18"/>
<text text-anchor="middle" x="339" y="-275.3" font-family="Times,serif" font-size="14.00">आस्थाय(3.1)</text>
</g>
<!-- Node7_1&#45;&gt;Node3_1 -->
<g id="edge9" class="edge">
<title>Node7_1&#45;&gt;Node3_1</title>
<path fill="none" stroke="black" stroke-dasharray="1,5" d="M300.48,-218.26C305.4,-226.21 310.89,-234.99 316,-243 319.83,-249.01 324.1,-255.54 327.91,-261.32"/>
<polygon fill="black" stroke="black" points="303.45,-216.41 295.22,-209.74 297.49,-220.08 303.45,-216.41"/>
<text text-anchor="middle" x="327" y="-231.8" font-family="Times,serif" font-size="14.00">कर्ता</text>
</g>
<!-- Node4_1 -->
<g id="node8" class="node">
<title>Node4_1</title>
<ellipse fill="#ff1975" stroke="#ff1975" cx="242" cy="-366" rx="49.29" ry="18"/>
<text text-anchor="middle" x="242" y="-362.3" font-family="Times,serif" font-size="14.00">विवेश(4.1)</text>
</g>
<!-- Node7_1&#45;&gt;Node4_1 -->
<g id="edge8" class="edge">
<title>Node7_1&#45;&gt;Node4_1</title>
<path fill="none" stroke="black" d="M269.41,-218.44C262.57,-230.83 255.17,-246.22 251,-261 242.63,-290.65 241.41,-326.78 241.53,-347.71"/>
<polygon fill="black" stroke="black" points="272.53,-220.02 274.46,-209.6 266.46,-216.54 272.53,-220.02"/>
<text text-anchor="middle" x="262" y="-275.3" font-family="Times,serif" font-size="14.00">कर्ता</text>
</g>
<!-- Node8_2 -->
<g id="node3" class="node">
<title>Node8_2</title>
<ellipse fill="#87ceeb" stroke="#87ceeb" cx="69" cy="-105" rx="52.79" ry="18"/>
<text text-anchor="middle" x="69" y="-101.3" font-family="Times,serif" font-size="14.00">राजस्य(8.2)</text>
</g>
<!-- Node5_2 -->
<g id="node4" class="node">
<title>Node5_2</title>
<ellipse fill="#87ceeb" stroke="#87ceeb" cx="78" cy="-192" rx="44.39" ry="18"/>
<text text-anchor="middle" x="78" y="-188.3" font-family="Times,serif" font-size="14.00">पतेः(5.2)</text>
</g>
<!-- Node8_2&#45;&gt;Node5_2 -->
<g id="edge11" class="edge">
<title>Node8_2&#45;&gt;Node5_2</title>
<path fill="none" stroke="black" d="M71.89,-133.27C73.3,-146.58 74.95,-162.19 76.18,-173.82"/>
<polygon fill="black" stroke="black" points="75.35,-132.78 70.82,-123.2 68.39,-133.51 75.35,-132.78"/>
<text text-anchor="middle" x="97.5" y="-144.8" font-family="Times,serif" font-size="14.00">विशेषणम्</text>
</g>
<!-- Node6_1 -->
<g id="node10" class="node">
<title>Node6_1</title>
<ellipse fill="#93db70" stroke="#93db70" cx="139" cy="-279" rx="46.59" ry="18"/>
<text text-anchor="middle" x="139" y="-275.3" font-family="Times,serif" font-size="14.00">तनुम्(6.1)</text>
</g>
<!-- Node5_2&#45;&gt;Node6_1 -->
<g id="edge6" class="edge">
<title>Node5_2&#45;&gt;Node6_1</title>
<path fill="none" stroke="black" d="M95.69,-217.65C105.77,-231.7 118.13,-248.92 127.07,-261.37"/>
<polygon fill="black" stroke="black" points="98.44,-215.47 89.76,-209.39 92.75,-219.55 98.44,-215.47"/>
<text text-anchor="middle" x="140.5" y="-231.8" font-family="Times,serif" font-size="14.00">षष्ठीसम्बन्धः</text>
</g>
<!-- Node2_1 -->
<g id="node5" class="node">
<title>Node2_1</title>
<ellipse fill="#ffff00" stroke="#ffff00" cx="539" cy="-105" rx="47.39" ry="18"/>
<text text-anchor="middle" x="539" y="-101.3" font-family="Times,serif" font-size="14.00">योग&#45;(2.1)</text>
</g>
<!-- Node2_2 -->
<g id="node6" class="node">
<title>Node2_2</title>
<ellipse fill="#93db70" stroke="#93db70" cx="470" cy="-192" rx="47.39" ry="18"/>
<text text-anchor="middle" x="470" y="-188.3" font-family="Times,serif" font-size="14.00">बलम्(2.2)</text>
</g>
<!-- Node2_1&#45;&gt;Node2_2 -->
<g id="edge2" class="edge">
<title>Node2_1&#45;&gt;Node2_2</title>
<path fill="none" stroke="black" d="M519.27,-130.31C507.72,-144.53 493.47,-162.09 483.26,-174.66"/>
<polygon fill="black" stroke="black" points="522.11,-132.36 525.7,-122.39 516.68,-127.95 522.11,-132.36"/>
<text text-anchor="middle" x="525" y="-144.8" font-family="Times,serif" font-size="14.00">समासः</text>
</g>
<!-- Node2_2&#45;&gt;Node3_1 -->
<g id="edge3" class="edge">
<title>Node2_2&#45;&gt;Node3_1</title>
<path fill="none" stroke="black" d="M438.69,-213.31C415.42,-228.41 384.16,-248.7 362.88,-262.5"/>
<polygon fill="black" stroke="black" points="440.7,-216.19 447.18,-207.81 436.89,-210.31 440.7,-216.19"/>
<text text-anchor="middle" x="421" y="-231.8" font-family="Times,serif" font-size="14.00">कर्म</text>
</g>
<!-- Node3_1&#45;&gt;Node4_1 -->
<g id="edge4" class="edge">
<title>Node3_1&#45;&gt;Node4_1</title>
<path fill="none" stroke="black" d="M312.56,-303.17C296,-317.68 275.07,-336.03 260.32,-348.95"/>
<polygon fill="black" stroke="black" points="315.08,-305.61 320.3,-296.39 310.47,-300.35 315.08,-305.61"/>
<text text-anchor="middle" x="316.5" y="-318.8" font-family="Times,serif" font-size="14.00">पूर्वकालः</text>
</g>
<!-- Node5_1 -->
<g id="node9" class="node">
<title>Node5_1</title>
<ellipse fill="#ffff00" stroke="#ffff00" cx="180" cy="-105" rx="40.09" ry="18"/>
<text text-anchor="middle" x="180" y="-101.3" font-family="Times,serif" font-size="14.00">नृ&#45;(5.1)</text>
</g>
<!-- Node5_1&#45;&gt;Node5_2 -->
<g id="edge5" class="edge">
<title>Node5_1&#45;&gt;Node5_2</title>
<path fill="none" stroke="black" d="M155.47,-128.66C145.81,-137.38 134.53,-147.32 124,-156 115.79,-162.77 106.5,-169.93 98.42,-176"/>
<polygon fill="black" stroke="black" points="158.1,-130.99 163.15,-121.67 153.39,-125.81 158.1,-130.99"/>
<text text-anchor="middle" x="158" y="-144.8" font-family="Times,serif" font-size="14.00">समासः</text>
</g>
<!-- Node6_1&#45;&gt;Node4_1 -->
<g id="edge7" class="edge">
<title>Node6_1&#45;&gt;Node4_1</title>
<path fill="none" stroke="black" d="M165.71,-302.04C183.62,-316.83 206.8,-335.95 222.88,-349.22"/>
<polygon fill="black" stroke="black" points="167.83,-299.26 157.89,-295.59 163.38,-304.65 167.83,-299.26"/>
<text text-anchor="middle" x="205" y="-318.8" font-family="Times,serif" font-size="14.00">कर्म</text>
</g>
<!-- Node8_1 -->
<g id="node11" class="node">
<title>Node8_1</title>
<ellipse fill="#ffff00" stroke="#ffff00" cx="69" cy="-18" rx="45.49" ry="18"/>
<text text-anchor="middle" x="69" y="-14.3" font-family="Times,serif" font-size="14.00">धर्म&#45;(8.1)</text>
</g>
<!-- Node8_1&#45;&gt;Node8_2 -->
<g id="edge10" class="edge">
<title>Node8_1&#45;&gt;Node8_2</title>
<path fill="none" stroke="black" d="M69,-46.27C69,-59.58 69,-75.19 69,-86.82"/>
<polygon fill="black" stroke="black" points="72.5,-46.2 69,-36.2 65.5,-46.2 72.5,-46.2"/>
<text text-anchor="middle" x="86" y="-57.8" font-family="Times,serif" font-size="14.00">समासः</text>
</g>
<!-- Node9_1 -->
<g id="node12" class="node">
<title>Node9_1</title>
<ellipse fill="#40e0d0" stroke="#40e0d0" cx="470" cy="-18" rx="51.19" ry="18"/>
<text text-anchor="middle" x="470" y="-14.3" font-family="Times,serif" font-size="14.00">तेजसा(9.1)</text>
</g>
<!-- Node10_1 -->
<g id="node13" class="node">
<title>Node10_1</title>
<ellipse fill="#00bfff" stroke="#00bfff" cx="412" cy="-105" rx="61.99" ry="18"/>
<text text-anchor="middle" x="412" y="-101.3" font-family="Times,serif" font-size="14.00">प्रज्वलन्(10.1)</text>
</g>
<!-- Node9_1&#45;&gt;Node10_1 -->
<g id="edge12" class="edge">
<title>Node9_1&#45;&gt;Node10_1</title>
<path fill="none" stroke="black" d="M452.67,-44.4C443.21,-58.26 431.77,-75.03 423.44,-87.24"/>
<polygon fill="black" stroke="black" points="455.8,-46.03 458.54,-35.79 450.01,-42.08 455.8,-46.03"/>
<text text-anchor="middle" x="460.5" y="-57.8" font-family="Times,serif" font-size="14.00">करणम्</text>
</g>
<!-- Node10_1&#45;&gt;Node7_1 -->
<g id="edge13" class="edge">
<title>Node10_1&#45;&gt;Node7_1</title>
<path fill="none" stroke="black" d="M379.84,-127.52C357.29,-142.62 327.7,-162.42 307.61,-175.87"/>
<polygon fill="black" stroke="black" points="382.05,-130.26 388.41,-121.79 378.15,-124.44 382.05,-130.26"/>
<text text-anchor="middle" x="376.5" y="-144.8" font-family="Times,serif" font-size="14.00">उपमानम्</text>
</g>
<!-- Node11_1 -->
<g id="node14" class="node">
<title>Node11_1</title>
<ellipse fill="#ff99ff" stroke="#ff99ff" cx="354" cy="-18" rx="46.59" ry="18"/>
<text text-anchor="middle" x="354" y="-14.3" font-family="Times,serif" font-size="14.00">इव(11.1)</text>
</g>
<!-- Node11_1&#45;&gt;Node10_1 -->
<g id="edge14" class="edge">
<title>Node11_1&#45;&gt;Node10_1</title>
<path fill="none" stroke="black" d="M353.14,-46.5C353.96,-54.23 355.92,-62.33 360,-69 365.05,-77.26 372.88,-84.01 380.94,-89.3"/>
<polygon fill="black" stroke="black" points="356.62,-46.18 352.62,-36.37 349.63,-46.53 356.62,-46.18"/>
<text text-anchor="middle" x="396.5" y="-57.8" font-family="Times,serif" font-size="14.00">उपमान_द्योतकः</text>
</g>
</g>
</svg>
