<?xml version="1.0" encoding="UTF-8" standalone="no"?>
<!DOCTYPE svg PUBLIC "-//W3C//DTD SVG 1.1//EN"
 "http://www.w3.org/Graphics/SVG/1.1/DTD/svg11.dtd">
<!-- Generated by graphviz version 2.43.0 (0)
 -->
<!-- Title: G Pages: 1 -->
<svg width="647pt" height="392pt"
 viewBox="0.00 0.00 646.74 392.00" xmlns="http://www.w3.org/2000/svg" xmlns:xlink="http://www.w3.org/1999/xlink">
<g id="graph0" class="graph" transform="scale(1 1) rotate(0) translate(4 388)">
<title>G</title>
<polygon fill="#fffacd" stroke="transparent" points="-4,4 -4,-388 642.74,-388 642.74,4 -4,4"/>
<g id="clust1" class="cluster">
<title>cluster_1</title>
<polygon fill="#fffacd" stroke="black" points="386,-79 386,-218 620,-218 620,-79 386,-79"/>
</g>
<g id="clust2" class="cluster">
<title>cluster_2</title>
<polygon fill="#fffacd" stroke="black" points="8,-79 8,-218 146,-218 146,-79 8,-79"/>
</g>
<!-- Node2_1 -->
<g id="node1" class="node">
<title>Node2_1</title>
<ellipse fill="#00bfff" stroke="#00bfff" cx="452" cy="-105" rx="57.69" ry="18"/>
<text text-anchor="middle" x="452" y="-101.3" font-family="Times,serif" font-size="14.00">विविक्तः(2.1)</text>
</g>
<!-- Node7_1 -->
<g id="node2" class="node">
<title>Node7_1</title>
<ellipse fill="#00bfff" stroke="#00bfff" cx="451" cy="-192" rx="49.29" ry="18"/>
<text text-anchor="middle" x="451" y="-188.3" font-family="Times,serif" font-size="14.00">विदुरः(7.1)</text>
</g>
<!-- Node2_1&#45;&gt;Node7_1 -->
<g id="edge2" class="edge">
<title>Node2_1&#45;&gt;Node7_1</title>
<path fill="none" stroke="black" d="M451.68,-133.27C451.52,-146.58 451.34,-162.19 451.2,-173.82"/>
<polygon fill="black" stroke="black" points="455.18,-133.24 451.8,-123.2 448.18,-133.16 455.18,-133.24"/>
<text text-anchor="middle" x="474.5" y="-144.8" font-family="Times,serif" font-size="14.00">विशेषणम्</text>
</g>
<!-- Node4_1 -->
<g id="node7" class="node">
<title>Node4_1</title>
<ellipse fill="#ff1975" stroke="#ff1975" cx="323" cy="-366" rx="48.19" ry="18"/>
<text text-anchor="middle" x="323" y="-362.3" font-family="Times,serif" font-size="14.00">तस्थौ(4.1)</text>
</g>
<!-- Node7_1&#45;&gt;Node4_1 -->
<g id="edge6" class="edge">
<title>Node7_1&#45;&gt;Node4_1</title>
<path fill="none" stroke="black" d="M444.27,-219.9C441.85,-227.58 438.77,-235.82 435,-243 412.33,-286.22 402.43,-295.41 368,-330 361.02,-337.02 352.62,-343.89 344.99,-349.66"/>
<polygon fill="black" stroke="black" points="447.64,-220.83 447.06,-210.25 440.92,-218.88 447.64,-220.83"/>
<text text-anchor="middle" x="436" y="-275.3" font-family="Times,serif" font-size="14.00">कर्ता</text>
</g>
<!-- Node9_1 -->
<g id="node10" class="node">
<title>Node9_1</title>
<ellipse fill="#ff99ff" stroke="#ff99ff" cx="323" cy="-279" rx="57.39" ry="18"/>
<text text-anchor="middle" x="323" y="-275.3" font-family="Times,serif" font-size="14.00">आश्रित्य(9.1)</text>
</g>
<!-- Node7_1&#45;&gt;Node9_1 -->
<g id="edge7" class="edge">
<title>Node7_1&#45;&gt;Node9_1</title>
<path fill="none" stroke="black" stroke-dasharray="1,5" d="M425.41,-215.47C414.54,-224.52 401.51,-234.75 389,-243 377.63,-250.5 364.49,-257.73 352.93,-263.66"/>
<polygon fill="black" stroke="black" points="427.88,-217.97 433.25,-208.83 423.36,-212.62 427.88,-217.97"/>
<text text-anchor="middle" x="420" y="-231.8" font-family="Times,serif" font-size="14.00">कर्ता</text>
</g>
<!-- Node6_1 -->
<g id="node3" class="node">
<title>Node6_1</title>
<ellipse fill="#00bfff" stroke="#00bfff" cx="570" cy="-105" rx="42.49" ry="18"/>
<text text-anchor="middle" x="570" y="-101.3" font-family="Times,serif" font-size="14.00">वरः(6.1)</text>
</g>
<!-- Node6_1&#45;&gt;Node7_1 -->
<g id="edge5" class="edge">
<title>Node6_1&#45;&gt;Node7_1</title>
<path fill="none" stroke="black" d="M541.37,-126.9C528.99,-135.9 514.31,-146.52 501,-156 491.85,-162.52 481.71,-169.64 472.96,-175.74"/>
<polygon fill="black" stroke="black" points="543.51,-129.68 549.53,-120.97 539.39,-124.02 543.51,-129.68"/>
<text text-anchor="middle" x="542.5" y="-144.8" font-family="Times,serif" font-size="14.00">विशेषणम्</text>
</g>
<!-- Node10_1 -->
<g id="node4" class="node">
<title>Node10_1</title>
<ellipse fill="#93db70" stroke="#93db70" cx="77" cy="-105" rx="61.19" ry="18"/>
<text text-anchor="middle" x="77" y="-101.3" font-family="Times,serif" font-size="14.00">कञ्चित्(10.1)</text>
</g>
<!-- Node8_1 -->
<g id="node5" class="node">
<title>Node8_1</title>
<ellipse fill="#93db70" stroke="#93db70" cx="83" cy="-192" rx="48.19" ry="18"/>
<text text-anchor="middle" x="83" y="-188.3" font-family="Times,serif" font-size="14.00">वृक्षम्(8.1)</text>
</g>
<!-- Node10_1&#45;&gt;Node8_1 -->
<g id="edge10" class="edge">
<title>Node10_1&#45;&gt;Node8_1</title>
<path fill="none" stroke="black" d="M78.92,-133.27C79.86,-146.58 80.97,-162.19 81.79,-173.82"/>
<polygon fill="black" stroke="black" points="82.41,-132.93 78.21,-123.2 75.43,-133.42 82.41,-132.93"/>
<text text-anchor="middle" x="103.5" y="-144.8" font-family="Times,serif" font-size="14.00">विशेषणम्</text>
</g>
<!-- Node8_1&#45;&gt;Node9_1 -->
<g id="edge8" class="edge">
<title>Node8_1&#45;&gt;Node9_1</title>
<path fill="none" stroke="black" d="M123.61,-209.68C130.72,-212.51 138.06,-215.38 145,-218 192.29,-235.85 247.57,-254.08 283.83,-265.69"/>
<polygon fill="black" stroke="black" points="124.7,-206.34 114.12,-205.86 122.09,-212.84 124.7,-206.34"/>
<text text-anchor="middle" x="223" y="-231.8" font-family="Times,serif" font-size="14.00">कर्म</text>
</g>
<!-- Node1_1 -->
<g id="node6" class="node">
<title>Node1_1</title>
<ellipse fill="#ff99ff" stroke="#ff99ff" cx="204" cy="-279" rx="44.39" ry="18"/>
<text text-anchor="middle" x="204" y="-275.3" font-family="Times,serif" font-size="14.00">ततः(1.1)</text>
</g>
<!-- Node1_1&#45;&gt;Node4_1 -->
<g id="edge1" class="edge">
<title>Node1_1&#45;&gt;Node4_1</title>
<path fill="none" stroke="black" d="M233.28,-300.92C254.36,-315.97 282.34,-335.95 301.41,-349.58"/>
<polygon fill="black" stroke="black" points="235.17,-297.96 225,-295 231.1,-303.66 235.17,-297.96"/>
<text text-anchor="middle" x="289.5" y="-318.8" font-family="Times,serif" font-size="14.00">सम्बन्धः</text>
</g>
<!-- Node3_1 -->
<g id="node8" class="node">
<title>Node3_1</title>
<ellipse fill="#c6e2eb" stroke="#c6e2eb" cx="444" cy="-18" rx="53.09" ry="18"/>
<text text-anchor="middle" x="444" y="-14.3" font-family="Times,serif" font-size="14.00">एकान्ते(3.1)</text>
</g>
<!-- Node3_1&#45;&gt;Node2_1 -->
<g id="edge3" class="edge">
<title>Node3_1&#45;&gt;Node2_1</title>
<path fill="none" stroke="black" d="M446.57,-46.27C447.82,-59.58 449.29,-75.19 450.38,-86.82"/>
<polygon fill="black" stroke="black" points="450.04,-45.83 445.62,-36.2 443.07,-46.49 450.04,-45.83"/>
<text text-anchor="middle" x="458" y="-57.8" font-family="Times,serif" font-size="14.00">कर्म</text>
</g>
<!-- Node5_1 -->
<g id="node9" class="node">
<title>Node5_1</title>
<ellipse fill="#87ceeb" stroke="#87ceeb" cx="577" cy="-18" rx="61.99" ry="18"/>
<text text-anchor="middle" x="577" y="-14.3" font-family="Times,serif" font-size="14.00">बुद्धिमताम्(5.1)</text>
</g>
<!-- Node5_1&#45;&gt;Node6_1 -->
<g id="edge4" class="edge">
<title>Node5_1&#45;&gt;Node6_1</title>
<path fill="none" stroke="black" d="M574.75,-46.27C573.66,-59.58 572.37,-75.19 571.41,-86.82"/>
<polygon fill="black" stroke="black" points="578.25,-46.45 575.58,-36.2 571.27,-45.88 578.25,-46.45"/>
<text text-anchor="middle" x="596" y="-57.8" font-family="Times,serif" font-size="14.00">निर्धारणम्</text>
</g>
<!-- Node9_1&#45;&gt;Node4_1 -->
<g id="edge9" class="edge">
<title>Node9_1&#45;&gt;Node4_1</title>
<path fill="none" stroke="black" d="M323,-307.27C323,-320.58 323,-336.19 323,-347.82"/>
<polygon fill="black" stroke="black" points="326.5,-307.2 323,-297.2 319.5,-307.2 326.5,-307.2"/>
<text text-anchor="middle" x="343.5" y="-318.8" font-family="Times,serif" font-size="14.00">पूर्वकालः</text>
</g>
<!-- Node11_1 -->
<g id="node11" class="node">
<title>Node11_1</title>
<ellipse fill="#ff99ff" stroke="#ff99ff" cx="202" cy="-192" rx="48.19" ry="18"/>
<text text-anchor="middle" x="202" y="-188.3" font-family="Times,serif" font-size="14.00">तत्र(11.1)</text>
</g>
<!-- Node11_1&#45;&gt;Node9_1 -->
<g id="edge11" class="edge">
<title>Node11_1&#45;&gt;Node9_1</title>
<path fill="none" stroke="black" d="M224.33,-216.74C233.36,-225.6 244.19,-235.35 255,-243 266.16,-250.9 279.35,-258.11 291.13,-263.9"/>
<polygon fill="black" stroke="black" points="226.74,-214.2 217.21,-209.57 221.78,-219.13 226.74,-214.2"/>
<text text-anchor="middle" x="287" y="-231.8" font-family="Times,serif" font-size="14.00">देशाधिकरणम्</text>
</g>
<!-- Node12_1 -->
<g id="node12" class="node">
<title>Node12_1</title>
<ellipse fill="#ffff00" stroke="#ffff00" cx="323" cy="-105" rx="50.09" ry="18"/>
<text text-anchor="middle" x="323" y="-101.3" font-family="Times,serif" font-size="14.00">वन&#45;(12.1)</text>
</g>
<!-- Node12_2 -->
<g id="node13" class="node">
<title>Node12_2</title>
<ellipse fill="#c6e2eb" stroke="#c6e2eb" cx="323" cy="-192" rx="55.49" ry="18"/>
<text text-anchor="middle" x="323" y="-188.3" font-family="Times,serif" font-size="14.00">अन्तरे(12.2)</text>
</g>
<!-- Node12_1&#45;&gt;Node12_2 -->
<g id="edge12" class="edge">
<title>Node12_1&#45;&gt;Node12_2</title>
<path fill="none" stroke="black" d="M323,-133.27C323,-146.58 323,-162.19 323,-173.82"/>
<polygon fill="black" stroke="black" points="326.5,-133.2 323,-123.2 319.5,-133.2 326.5,-133.2"/>
<text text-anchor="middle" x="340" y="-144.8" font-family="Times,serif" font-size="14.00">समासः</text>
</g>
<!-- Node12_2&#45;&gt;Node9_1 -->
<g id="edge13" class="edge">
<title>Node12_2&#45;&gt;Node9_1</title>
<path fill="none" stroke="black" d="M323,-220.27C323,-233.58 323,-249.19 323,-260.82"/>
<polygon fill="black" stroke="black" points="326.5,-220.2 323,-210.2 319.5,-220.2 326.5,-220.2"/>
<text text-anchor="middle" x="355" y="-231.8" font-family="Times,serif" font-size="14.00">देशाधिकरणम्</text>
</g>
</g>
</svg>
