<?xml version="1.0" encoding="UTF-8" standalone="no"?>
<!DOCTYPE svg PUBLIC "-//W3C//DTD SVG 1.1//EN"
 "http://www.w3.org/Graphics/SVG/1.1/DTD/svg11.dtd">
<!-- Generated by graphviz version 2.43.0 (0)
 -->
<!-- Title: G Pages: 1 -->
<svg width="1066pt" height="408pt"
 viewBox="0.00 0.00 1065.64 408.00" xmlns="http://www.w3.org/2000/svg" xmlns:xlink="http://www.w3.org/1999/xlink">
<g id="graph0" class="graph" transform="scale(1 1) rotate(0) translate(4 404)">
<title>G</title>
<polygon fill="#fffacd" stroke="transparent" points="-4,4 -4,-404 1061.64,-404 1061.64,4 -4,4"/>
<g id="clust1" class="cluster">
<title>cluster_1</title>
<polygon fill="#fffacd" stroke="black" points="259.94,-182 259.94,-321 634.94,-321 634.94,-182 259.94,-182"/>
</g>
<g id="clust2" class="cluster">
<title>cluster_2</title>
<polygon fill="#fffacd" stroke="black" points="506.94,-8 506.94,-147 632.94,-147 632.94,-8 506.94,-8"/>
</g>
<!-- Node1_1 -->
<g id="node1" class="node">
<title>Node1_1</title>
<ellipse fill="#93db70" stroke="#93db70" cx="577.94" cy="-208" rx="48.99" ry="18"/>
<text text-anchor="middle" x="577.94" y="-204.3" font-family="Times,serif" font-size="14.00">हतान्(1.1)</text>
</g>
<!-- Node2_1 -->
<g id="node2" class="node">
<title>Node2_1</title>
<ellipse fill="#93db70" stroke="#93db70" cx="352.94" cy="-295" rx="50.09" ry="18"/>
<text text-anchor="middle" x="352.94" y="-291.3" font-family="Times,serif" font-size="14.00">पुत्रान्(2.1)</text>
</g>
<!-- Node1_1&#45;&gt;Node2_1 -->
<g id="edge1" class="edge">
<title>Node1_1&#45;&gt;Node2_1</title>
<path fill="none" stroke="black" d="M537.94,-226.12C514.25,-236.08 483.55,-248.67 455.94,-259 433.84,-267.28 408.76,-275.82 388.89,-282.39"/>
<polygon fill="black" stroke="black" points="539.46,-229.28 547.31,-222.16 536.74,-222.83 539.46,-229.28"/>
<text text-anchor="middle" x="515.44" y="-247.8" font-family="Times,serif" font-size="14.00">विशेषणम्</text>
</g>
<!-- Node14_1 -->
<g id="node7" class="node">
<title>Node14_1</title>
<ellipse fill="#ff1975" stroke="#ff1975" cx="201.94" cy="-382" rx="65.79" ry="18"/>
<text text-anchor="middle" x="201.94" y="-378.3" font-family="Times,serif" font-size="14.00">(शोचति)(14.1)</text>
</g>
<!-- Node2_1&#45;&gt;Node14_1 -->
<g id="edge2" class="edge">
<title>Node2_1&#45;&gt;Node14_1</title>
<path fill="none" stroke="black" d="M318.24,-315.53C291.24,-330.73 254.29,-351.53 229.35,-365.57"/>
<polygon fill="black" stroke="black" points="319.99,-318.57 326.99,-310.61 316.56,-312.47 319.99,-318.57"/>
<text text-anchor="middle" x="294.94" y="-334.8" font-family="Times,serif" font-size="14.00">कर्म</text>
</g>
<!-- Node3_2 -->
<g id="node3" class="node">
<title>Node3_2</title>
<ellipse fill="#93db70" stroke="#93db70" cx="318.94" cy="-208" rx="51.19" ry="18"/>
<text text-anchor="middle" x="318.94" y="-204.3" font-family="Times,serif" font-size="14.00">वीर्यान्(3.2)</text>
</g>
<!-- Node3_2&#45;&gt;Node2_1 -->
<g id="edge4" class="edge">
<title>Node3_2&#45;&gt;Node2_1</title>
<path fill="none" stroke="black" d="M329.56,-235.54C334.99,-249.12 341.44,-265.24 346.19,-277.11"/>
<polygon fill="black" stroke="black" points="332.79,-234.19 325.82,-226.2 326.29,-236.79 332.79,-234.19"/>
<text text-anchor="middle" x="360.44" y="-247.8" font-family="Times,serif" font-size="14.00">विशेषणम्</text>
</g>
<!-- Node4_3 -->
<g id="node4" class="node">
<title>Node4_3</title>
<ellipse fill="#93db70" stroke="#93db70" cx="449.94" cy="-208" rx="61.99" ry="18"/>
<text text-anchor="middle" x="449.94" y="-204.3" font-family="Times,serif" font-size="14.00">परायणान्(4.3)</text>
</g>
<!-- Node4_3&#45;&gt;Node2_1 -->
<g id="edge7" class="edge">
<title>Node4_3&#45;&gt;Node2_1</title>
<path fill="none" stroke="black" d="M423.51,-232.17C406.94,-246.68 386.01,-265.03 371.26,-277.95"/>
<polygon fill="black" stroke="black" points="426.03,-234.61 431.24,-225.39 421.41,-229.35 426.03,-234.61"/>
<text text-anchor="middle" x="429.44" y="-247.8" font-family="Times,serif" font-size="14.00">विशेषणम्</text>
</g>
<!-- Node9_1 -->
<g id="node5" class="node">
<title>Node9_1</title>
<ellipse fill="#93db70" stroke="#93db70" cx="569.94" cy="-34" rx="54.69" ry="18"/>
<text text-anchor="middle" x="569.94" y="-30.3" font-family="Times,serif" font-size="14.00">अस्मान्(9.1)</text>
</g>
<!-- Node10_2 -->
<g id="node6" class="node">
<title>Node10_2</title>
<ellipse fill="#93db70" stroke="#93db70" cx="571.94" cy="-121" rx="51.99" ry="18"/>
<text text-anchor="middle" x="571.94" y="-117.3" font-family="Times,serif" font-size="14.00">कृतः(10.2)</text>
</g>
<!-- Node9_1&#45;&gt;Node10_2 -->
<g id="edge11" class="edge">
<title>Node9_1&#45;&gt;Node10_2</title>
<path fill="none" stroke="black" d="M570.59,-62.27C570.9,-75.58 571.27,-91.19 571.54,-102.82"/>
<polygon fill="black" stroke="black" points="574.08,-62.12 570.35,-52.2 567.09,-62.28 574.08,-62.12"/>
<text text-anchor="middle" x="593.44" y="-73.8" font-family="Times,serif" font-size="14.00">विशेषणम्</text>
</g>
<!-- Node6_1 -->
<g id="node12" class="node">
<title>Node6_1</title>
<ellipse fill="#ff1975" stroke="#ff1975" cx="772.94" cy="-208" rx="66.89" ry="18"/>
<text text-anchor="middle" x="772.94" y="-204.3" font-family="Times,serif" font-size="14.00">अपध्यायति(6.1)</text>
</g>
<!-- Node10_2&#45;&gt;Node6_1 -->
<g id="edge13" class="edge">
<title>Node10_2&#45;&gt;Node6_1</title>
<path fill="none" stroke="black" d="M613.29,-139.48C650.27,-155.12 703.86,-177.78 738.55,-192.46"/>
<polygon fill="black" stroke="black" points="614.37,-136.14 603.79,-135.47 611.64,-142.59 614.37,-136.14"/>
<text text-anchor="middle" x="692.94" y="-160.8" font-family="Times,serif" font-size="14.00">कर्म</text>
</g>
<!-- Node3_1 -->
<g id="node8" class="node">
<title>Node3_1</title>
<ellipse fill="#ffff00" stroke="#ffff00" cx="318.94" cy="-121" rx="49.29" ry="18"/>
<text text-anchor="middle" x="318.94" y="-117.3" font-family="Times,serif" font-size="14.00">महत्&#45;(3.1)</text>
</g>
<!-- Node3_1&#45;&gt;Node3_2 -->
<g id="edge3" class="edge">
<title>Node3_1&#45;&gt;Node3_2</title>
<path fill="none" stroke="black" d="M318.94,-149.27C318.94,-162.58 318.94,-178.19 318.94,-189.82"/>
<polygon fill="black" stroke="black" points="322.44,-149.2 318.94,-139.2 315.44,-149.2 322.44,-149.2"/>
<text text-anchor="middle" x="335.94" y="-160.8" font-family="Times,serif" font-size="14.00">समासः</text>
</g>
<!-- Node4_1 -->
<g id="node9" class="node">
<title>Node4_1</title>
<ellipse fill="#ffff00" stroke="#ffff00" cx="449.94" cy="-34" rx="46.59" ry="18"/>
<text text-anchor="middle" x="449.94" y="-30.3" font-family="Times,serif" font-size="14.00">क्षत्र&#45;(4.1)</text>
</g>
<!-- Node4_2 -->
<g id="node10" class="node">
<title>Node4_2</title>
<ellipse fill="#ffff00" stroke="#ffff00" cx="449.94" cy="-121" rx="45.49" ry="18"/>
<text text-anchor="middle" x="449.94" y="-117.3" font-family="Times,serif" font-size="14.00">धर्म&#45;(4.2)</text>
</g>
<!-- Node4_1&#45;&gt;Node4_2 -->
<g id="edge5" class="edge">
<title>Node4_1&#45;&gt;Node4_2</title>
<path fill="none" stroke="black" d="M449.94,-62.27C449.94,-75.58 449.94,-91.19 449.94,-102.82"/>
<polygon fill="black" stroke="black" points="453.44,-62.2 449.94,-52.2 446.44,-62.2 453.44,-62.2"/>
<text text-anchor="middle" x="466.94" y="-73.8" font-family="Times,serif" font-size="14.00">समासः</text>
</g>
<!-- Node4_2&#45;&gt;Node4_3 -->
<g id="edge6" class="edge">
<title>Node4_2&#45;&gt;Node4_3</title>
<path fill="none" stroke="black" d="M449.94,-149.27C449.94,-162.58 449.94,-178.19 449.94,-189.82"/>
<polygon fill="black" stroke="black" points="453.44,-149.2 449.94,-139.2 446.44,-149.2 453.44,-149.2"/>
<text text-anchor="middle" x="466.94" y="-160.8" font-family="Times,serif" font-size="14.00">समासः</text>
</g>
<!-- Node5_1 -->
<g id="node11" class="node">
<title>Node5_1</title>
<ellipse fill="#ff99ff" stroke="#ff99ff" cx="678.94" cy="-121" rx="37.09" ry="18"/>
<text text-anchor="middle" x="678.94" y="-117.3" font-family="Times,serif" font-size="14.00">न(5.1)</text>
</g>
<!-- Node5_1&#45;&gt;Node6_1 -->
<g id="edge8" class="edge">
<title>Node5_1&#45;&gt;Node6_1</title>
<path fill="none" stroke="black" d="M701.45,-144.95C710.18,-153.61 720.36,-163.44 729.94,-172 736.98,-178.29 744.93,-184.89 752.06,-190.64"/>
<polygon fill="black" stroke="black" points="703.75,-142.3 694.21,-137.7 698.8,-147.25 703.75,-142.3"/>
<text text-anchor="middle" x="749.44" y="-160.8" font-family="Times,serif" font-size="14.00">प्रतिषेधः</text>
</g>
<!-- Node7_1 -->
<g id="node13" class="node">
<title>Node7_1</title>
<ellipse fill="#ff99ff" stroke="#ff99ff" cx="772.94" cy="-121" rx="38.99" ry="18"/>
<text text-anchor="middle" x="772.94" y="-117.3" font-family="Times,serif" font-size="14.00">वा(7.1)</text>
</g>
<!-- Node7_1&#45;&gt;Node6_1 -->
<g id="edge9" class="edge">
<title>Node7_1&#45;&gt;Node6_1</title>
<path fill="none" stroke="black" d="M772.94,-149.27C772.94,-162.58 772.94,-178.19 772.94,-189.82"/>
<polygon fill="black" stroke="black" points="776.44,-149.2 772.94,-139.2 769.44,-149.2 776.44,-149.2"/>
<text text-anchor="middle" x="791.44" y="-160.8" font-family="Times,serif" font-size="14.00">सम्बन्धः</text>
</g>
<!-- Node8_1 -->
<g id="node14" class="node">
<title>Node8_1</title>
<ellipse fill="#ff99ff" stroke="#ff99ff" cx="883.94" cy="-121" rx="53.89" ry="18"/>
<text text-anchor="middle" x="883.94" y="-117.3" font-family="Times,serif" font-size="14.00">कच्चित्(8.1)</text>
</g>
<!-- Node8_1&#45;&gt;Node6_1 -->
<g id="edge10" class="edge">
<title>Node8_1&#45;&gt;Node6_1</title>
<path fill="none" stroke="black" d="M855.26,-143.96C836.19,-158.57 811.54,-177.44 794.21,-190.72"/>
<polygon fill="black" stroke="black" points="857.51,-146.65 863.33,-137.79 853.26,-141.09 857.51,-146.65"/>
<text text-anchor="middle" x="853.44" y="-160.8" font-family="Times,serif" font-size="14.00">सम्बन्धः</text>
</g>
<!-- Node10_1 -->
<g id="node15" class="node">
<title>Node10_1</title>
<ellipse fill="#ffff00" stroke="#ffff00" cx="695.94" cy="-34" rx="53.09" ry="18"/>
<text text-anchor="middle" x="695.94" y="-30.3" font-family="Times,serif" font-size="14.00">पाप&#45;(10.1)</text>
</g>
<!-- Node10_1&#45;&gt;Node10_2 -->
<g id="edge12" class="edge">
<title>Node10_1&#45;&gt;Node10_2</title>
<path fill="none" stroke="black" d="M665.14,-56.12C643.12,-71.21 614.02,-91.16 594.23,-104.72"/>
<polygon fill="black" stroke="black" points="667.22,-58.93 673.49,-50.39 663.26,-53.16 667.22,-58.93"/>
<text text-anchor="middle" x="657.94" y="-73.8" font-family="Times,serif" font-size="14.00">समासः</text>
</g>
<!-- Node11_1 -->
<g id="node16" class="node">
<title>Node11_1</title>
<ellipse fill="#ff99ff" stroke="#ff99ff" cx="1006.94" cy="-121" rx="50.89" ry="18"/>
<text text-anchor="middle" x="1006.94" y="-117.3" font-family="Times,serif" font-size="14.00">सदा(11.1)</text>
</g>
<!-- Node11_1&#45;&gt;Node6_1 -->
<g id="edge14" class="edge">
<title>Node11_1&#45;&gt;Node6_1</title>
<path fill="none" stroke="black" d="M966.55,-139.19C960.02,-141.87 953.31,-144.55 946.94,-147 901.9,-164.3 849.46,-182.06 814.01,-193.73"/>
<polygon fill="black" stroke="black" points="968.04,-142.37 975.94,-135.31 965.36,-135.9 968.04,-142.37"/>
<text text-anchor="middle" x="953.44" y="-160.8" font-family="Times,serif" font-size="14.00">कालाधिकरणम्</text>
</g>
<!-- Node12_1 -->
<g id="node17" class="node">
<title>Node12_1</title>
<ellipse fill="#ff99ff" stroke="#ff99ff" cx="66.94" cy="-295" rx="66.89" ry="18"/>
<text text-anchor="middle" x="66.94" y="-291.3" font-family="Times,serif" font-size="14.00">(कच्चित्)(12.1)</text>
</g>
<!-- Node12_1&#45;&gt;Node14_1 -->
<g id="edge15" class="edge">
<title>Node12_1&#45;&gt;Node14_1</title>
<path fill="none" stroke="black" d="M100.7,-317.25C124.39,-332.17 155.54,-351.78 177,-365.3"/>
<polygon fill="black" stroke="black" points="102.35,-314.16 92.02,-311.79 98.62,-320.08 102.35,-314.16"/>
<text text-anchor="middle" x="161.44" y="-334.8" font-family="Times,serif" font-size="14.00">सम्बन्धः</text>
</g>
<!-- Node13_1 -->
<g id="node18" class="node">
<title>Node13_1</title>
<ellipse fill="#ff99ff" stroke="#ff99ff" cx="201.94" cy="-295" rx="50.09" ry="18"/>
<text text-anchor="middle" x="201.94" y="-291.3" font-family="Times,serif" font-size="14.00">(न)(13.1)</text>
</g>
<!-- Node13_1&#45;&gt;Node14_1 -->
<g id="edge16" class="edge">
<title>Node13_1&#45;&gt;Node14_1</title>
<path fill="none" stroke="black" d="M201.94,-323.27C201.94,-336.58 201.94,-352.19 201.94,-363.82"/>
<polygon fill="black" stroke="black" points="205.44,-323.2 201.94,-313.2 198.44,-323.2 205.44,-323.2"/>
<text text-anchor="middle" x="221.44" y="-334.8" font-family="Times,serif" font-size="14.00">प्रतिषेधः</text>
</g>
</g>
</svg>
