<?xml version="1.0" encoding="UTF-8" standalone="no"?>
<!DOCTYPE svg PUBLIC "-//W3C//DTD SVG 1.1//EN"
 "http://www.w3.org/Graphics/SVG/1.1/DTD/svg11.dtd">
<!-- Generated by graphviz version 2.43.0 (0)
 -->
<!-- Title: G Pages: 1 -->
<svg width="863pt" height="305pt"
 viewBox="0.00 0.00 863.44 305.00" xmlns="http://www.w3.org/2000/svg" xmlns:xlink="http://www.w3.org/1999/xlink">
<g id="graph0" class="graph" transform="scale(1 1) rotate(0) translate(4 301)">
<title>G</title>
<polygon fill="#fffacd" stroke="transparent" points="-4,4 -4,-301 859.44,-301 859.44,4 -4,4"/>
<g id="clust1" class="cluster">
<title>cluster_1</title>
<polygon fill="#fffacd" stroke="black" points="501.74,-79 501.74,-218 621.74,-218 621.74,-79 501.74,-79"/>
</g>
<!-- Node3_1 -->
<g id="node1" class="node">
<title>Node3_1</title>
<ellipse fill="#00bfff" stroke="#00bfff" cx="561.74" cy="-105" rx="51.99" ry="18"/>
<text text-anchor="middle" x="561.74" y="-101.3" font-family="Times,serif" font-size="14.00">धीमान्(3.1)</text>
</g>
<!-- Node2_1 -->
<g id="node2" class="node">
<title>Node2_1</title>
<ellipse fill="#00bfff" stroke="#00bfff" cx="561.74" cy="-192" rx="49.29" ry="18"/>
<text text-anchor="middle" x="561.74" y="-188.3" font-family="Times,serif" font-size="14.00">विदुरः(2.1)</text>
</g>
<!-- Node3_1&#45;&gt;Node2_1 -->
<g id="edge3" class="edge">
<title>Node3_1&#45;&gt;Node2_1</title>
<path fill="none" stroke="black" d="M561.74,-133.27C561.74,-146.58 561.74,-162.19 561.74,-173.82"/>
<polygon fill="black" stroke="black" points="565.24,-133.2 561.74,-123.2 558.24,-133.2 565.24,-133.2"/>
<text text-anchor="middle" x="584.24" y="-144.8" font-family="Times,serif" font-size="14.00">विशेषणम्</text>
</g>
<!-- Node1_1 -->
<g id="node3" class="node">
<title>Node1_1</title>
<ellipse fill="#ff1975" stroke="#ff1975" cx="410.74" cy="-279" rx="49.29" ry="18"/>
<text text-anchor="middle" x="410.74" y="-275.3" font-family="Times,serif" font-size="14.00">विवेश(1.1)</text>
</g>
<!-- Node2_1&#45;&gt;Node1_1 -->
<g id="edge1" class="edge">
<title>Node2_1&#45;&gt;Node1_1</title>
<path fill="none" stroke="black" d="M527.2,-212.45C499.58,-227.99 461.48,-249.44 436.49,-263.51"/>
<polygon fill="black" stroke="black" points="529.13,-215.37 536.13,-207.42 525.7,-209.27 529.13,-215.37"/>
<text text-anchor="middle" x="505.74" y="-231.8" font-family="Times,serif" font-size="14.00">कर्ता</text>
</g>
<!-- Node15_1 -->
<g id="node4" class="node">
<title>Node15_1</title>
<ellipse fill="#ff1975" stroke="#ff1975" cx="682.74" cy="-279" rx="61.99" ry="18"/>
<text text-anchor="middle" x="682.74" y="-275.3" font-family="Times,serif" font-size="14.00">(विवेश)(15.1)</text>
</g>
<!-- Node2_1&#45;&gt;Node15_1 -->
<g id="edge2" class="edge">
<title>Node2_1&#45;&gt;Node15_1</title>
<path fill="none" stroke="black" stroke-dasharray="1,5" d="M591.69,-214.04C612.85,-228.9 640.75,-248.5 660.07,-262.07"/>
<polygon fill="black" stroke="black" points="593.57,-211.08 583.38,-208.2 589.55,-216.81 593.57,-211.08"/>
<text text-anchor="middle" x="639.74" y="-231.8" font-family="Times,serif" font-size="14.00">कर्ता</text>
</g>
<!-- Node4_1 -->
<g id="node5" class="node">
<title>Node4_1</title>
<ellipse fill="#40e0d0" stroke="#40e0d0" cx="444.74" cy="-105" rx="47.39" ry="18"/>
<text text-anchor="middle" x="444.74" y="-101.3" font-family="Times,serif" font-size="14.00">गात्रैः(4.1)</text>
</g>
<!-- Node5_1 -->
<g id="node6" class="node">
<title>Node5_1</title>
<ellipse fill="#93db70" stroke="#93db70" cx="410.74" cy="-192" rx="55.79" ry="18"/>
<text text-anchor="middle" x="410.74" y="-188.3" font-family="Times,serif" font-size="14.00">गात्राणि(5.1)</text>
</g>
<!-- Node4_1&#45;&gt;Node5_1 -->
<g id="edge4" class="edge">
<title>Node4_1&#45;&gt;Node5_1</title>
<path fill="none" stroke="black" d="M434.13,-132.54C428.7,-146.12 422.25,-162.24 417.5,-174.11"/>
<polygon fill="black" stroke="black" points="437.4,-133.79 437.86,-123.2 430.9,-131.19 437.4,-133.79"/>
<text text-anchor="middle" x="447.24" y="-144.8" font-family="Times,serif" font-size="14.00">करणम्</text>
</g>
<!-- Node5_1&#45;&gt;Node1_1 -->
<g id="edge5" class="edge">
<title>Node5_1&#45;&gt;Node1_1</title>
<path fill="none" stroke="black" d="M410.74,-220.27C410.74,-233.58 410.74,-249.19 410.74,-260.82"/>
<polygon fill="black" stroke="black" points="414.24,-220.2 410.74,-210.2 407.24,-220.2 414.24,-220.2"/>
<text text-anchor="middle" x="419.74" y="-231.8" font-family="Times,serif" font-size="14.00">कर्म</text>
</g>
<!-- Node6_1 -->
<g id="node7" class="node">
<title>Node6_1</title>
<ellipse fill="#ff99ff" stroke="#ff99ff" cx="336.74" cy="-105" rx="42.49" ry="18"/>
<text text-anchor="middle" x="336.74" y="-101.3" font-family="Times,serif" font-size="14.00">चैव(6.1)</text>
</g>
<!-- Node6_1&#45;&gt;Node5_1 -->
<g id="edge6" class="edge">
<title>Node6_1&#45;&gt;Node5_1</title>
<path fill="none" stroke="black" d="M357.86,-130.26C370.15,-144.37 385.33,-161.81 396.27,-174.37"/>
<polygon fill="black" stroke="black" points="360.22,-127.63 351.01,-122.39 354.94,-132.23 360.22,-127.63"/>
<text text-anchor="middle" x="397.24" y="-144.8" font-family="Times,serif" font-size="14.00">सम्बन्धः</text>
</g>
<!-- Node7_1 -->
<g id="node8" class="node">
<title>Node7_1</title>
<ellipse fill="#ff99ff" stroke="#ff99ff" cx="336.74" cy="-18" rx="36.29" ry="18"/>
<text text-anchor="middle" x="336.74" y="-14.3" font-family="Times,serif" font-size="14.00">ह(7.1)</text>
</g>
<!-- Node7_1&#45;&gt;Node6_1 -->
<g id="edge7" class="edge">
<title>Node7_1&#45;&gt;Node6_1</title>
<path fill="none" stroke="black" d="M336.74,-46.27C336.74,-59.58 336.74,-75.19 336.74,-86.82"/>
<polygon fill="black" stroke="black" points="340.24,-46.2 336.74,-36.2 333.24,-46.2 340.24,-46.2"/>
<text text-anchor="middle" x="355.24" y="-57.8" font-family="Times,serif" font-size="14.00">सम्बन्धः</text>
</g>
<!-- Node8_1 -->
<g id="node9" class="node">
<title>Node8_1</title>
<ellipse fill="#93db70" stroke="#93db70" cx="682.74" cy="-192" rx="53.09" ry="18"/>
<text text-anchor="middle" x="682.74" y="-188.3" font-family="Times,serif" font-size="14.00">प्राणान्(8.1)</text>
</g>
<!-- Node8_1&#45;&gt;Node15_1 -->
<g id="edge8" class="edge">
<title>Node8_1&#45;&gt;Node15_1</title>
<path fill="none" stroke="black" d="M682.74,-220.27C682.74,-233.58 682.74,-249.19 682.74,-260.82"/>
<polygon fill="black" stroke="black" points="686.24,-220.2 682.74,-210.2 679.24,-220.2 686.24,-220.2"/>
<text text-anchor="middle" x="691.74" y="-231.8" font-family="Times,serif" font-size="14.00">कर्म</text>
</g>
<!-- Node9_1 -->
<g id="node10" class="node">
<title>Node9_1</title>
<ellipse fill="#c6e2eb" stroke="#c6e2eb" cx="804.74" cy="-192" rx="50.89" ry="18"/>
<text text-anchor="middle" x="804.74" y="-188.3" font-family="Times,serif" font-size="14.00">प्राणेषु(9.1)</text>
</g>
<!-- Node9_1&#45;&gt;Node15_1 -->
<g id="edge9" class="edge">
<title>Node9_1&#45;&gt;Node15_1</title>
<path fill="none" stroke="black" d="M774.26,-214.24C752.93,-229.1 724.89,-248.63 705.5,-262.15"/>
<polygon fill="black" stroke="black" points="776.45,-216.98 782.65,-208.39 772.45,-211.24 776.45,-216.98"/>
<text text-anchor="middle" x="778.24" y="-231.8" font-family="Times,serif" font-size="14.00">अधिकरणम्</text>
</g>
<!-- Node10_1 -->
<g id="node11" class="node">
<title>Node10_1</title>
<ellipse fill="#ff99ff" stroke="#ff99ff" cx="804.74" cy="-105" rx="43.59" ry="18"/>
<text text-anchor="middle" x="804.74" y="-101.3" font-family="Times,serif" font-size="14.00">च(10.1)</text>
</g>
<!-- Node10_1&#45;&gt;Node9_1 -->
<g id="edge10" class="edge">
<title>Node10_1&#45;&gt;Node9_1</title>
<path fill="none" stroke="black" d="M804.74,-133.27C804.74,-146.58 804.74,-162.19 804.74,-173.82"/>
<polygon fill="black" stroke="black" points="808.24,-133.2 804.74,-123.2 801.24,-133.2 808.24,-133.2"/>
<text text-anchor="middle" x="823.24" y="-144.8" font-family="Times,serif" font-size="14.00">सम्बन्धः</text>
</g>
<!-- Node11_1 -->
<g id="node12" class="node">
<title>Node11_1</title>
<ellipse fill="#00bfff" stroke="#00bfff" cx="208.74" cy="-192" rx="52.79" ry="18"/>
<text text-anchor="middle" x="208.74" y="-188.3" font-family="Times,serif" font-size="14.00">दधत्(11.1)</text>
</g>
<!-- Node11_1&#45;&gt;Node1_1 -->
<g id="edge11" class="edge">
<title>Node11_1&#45;&gt;Node1_1</title>
<path fill="none" stroke="black" d="M247.61,-211.39C268.55,-221.11 294.9,-233.06 318.74,-243 337.83,-250.96 359.43,-259.21 376.9,-265.71"/>
<polygon fill="black" stroke="black" points="248.94,-208.15 238.4,-207.09 245.98,-214.49 248.94,-208.15"/>
<text text-anchor="middle" x="362.74" y="-231.8" font-family="Times,serif" font-size="14.00">वर्तमानसमानकालः</text>
</g>
<!-- Node12_1 -->
<g id="node13" class="node">
<title>Node12_1</title>
<ellipse fill="#93db70" stroke="#93db70" cx="208.74" cy="-105" rx="67.69" ry="18"/>
<text text-anchor="middle" x="208.74" y="-101.3" font-family="Times,serif" font-size="14.00">इन्द्रियाणि(12.1)</text>
</g>
<!-- Node12_1&#45;&gt;Node11_1 -->
<g id="edge12" class="edge">
<title>Node12_1&#45;&gt;Node11_1</title>
<path fill="none" stroke="black" d="M208.74,-133.27C208.74,-146.58 208.74,-162.19 208.74,-173.82"/>
<polygon fill="black" stroke="black" points="212.24,-133.2 208.74,-123.2 205.24,-133.2 212.24,-133.2"/>
<text text-anchor="middle" x="217.74" y="-144.8" font-family="Times,serif" font-size="14.00">कर्म</text>
</g>
<!-- Node13_1 -->
<g id="node14" class="node">
<title>Node13_1</title>
<ellipse fill="#c6e2eb" stroke="#c6e2eb" cx="61.74" cy="-105" rx="61.99" ry="18"/>
<text text-anchor="middle" x="61.74" y="-101.3" font-family="Times,serif" font-size="14.00">इन्द्रियेषु(13.1)</text>
</g>
<!-- Node13_1&#45;&gt;Node11_1 -->
<g id="edge13" class="edge">
<title>Node13_1&#45;&gt;Node11_1</title>
<path fill="none" stroke="black" d="M97.29,-126.55C123.68,-141.81 159.06,-162.27 182.82,-176.01"/>
<polygon fill="black" stroke="black" points="98.77,-123.37 88.37,-121.39 95.27,-129.43 98.77,-123.37"/>
<text text-anchor="middle" x="172.24" y="-144.8" font-family="Times,serif" font-size="14.00">अधिकरणम्</text>
</g>
<!-- Node14_1 -->
<g id="node15" class="node">
<title>Node14_1</title>
<ellipse fill="#ff99ff" stroke="#ff99ff" cx="61.74" cy="-18" rx="43.59" ry="18"/>
<text text-anchor="middle" x="61.74" y="-14.3" font-family="Times,serif" font-size="14.00">च(14.1)</text>
</g>
<!-- Node14_1&#45;&gt;Node13_1 -->
<g id="edge14" class="edge">
<title>Node14_1&#45;&gt;Node13_1</title>
<path fill="none" stroke="black" d="M61.74,-46.27C61.74,-59.58 61.74,-75.19 61.74,-86.82"/>
<polygon fill="black" stroke="black" points="65.24,-46.2 61.74,-36.2 58.24,-46.2 65.24,-46.2"/>
<text text-anchor="middle" x="80.24" y="-57.8" font-family="Times,serif" font-size="14.00">सम्बन्धः</text>
</g>
</g>
</svg>
