<?xml version="1.0" encoding="UTF-8" standalone="no"?>
<!DOCTYPE svg PUBLIC "-//W3C//DTD SVG 1.1//EN"
 "http://www.w3.org/Graphics/SVG/1.1/DTD/svg11.dtd">
<!-- Generated by graphviz version 2.43.0 (0)
 -->
<!-- Title: G Pages: 1 -->
<svg width="866pt" height="305pt"
 viewBox="0.00 0.00 865.84 305.00" xmlns="http://www.w3.org/2000/svg" xmlns:xlink="http://www.w3.org/1999/xlink">
<g id="graph0" class="graph" transform="scale(1 1) rotate(0) translate(4 301)">
<title>G</title>
<polygon fill="#fffacd" stroke="transparent" points="-4,4 -4,-301 861.84,-301 861.84,4 -4,4"/>
<g id="clust1" class="cluster">
<title>cluster_1</title>
<polygon fill="#fffacd" stroke="black" points="115.95,-79 115.95,-218 381.95,-218 381.95,-79 115.95,-79"/>
</g>
<!-- Node3_1 -->
<g id="node1" class="node">
<title>Node3_1</title>
<ellipse fill="#93db70" stroke="#93db70" cx="314.95" cy="-105" rx="59.29" ry="18"/>
<text text-anchor="middle" x="314.95" y="-101.3" font-family="Times,serif" font-size="14.00">पौराणीम्(3.1)</text>
</g>
<!-- Node4_1 -->
<g id="node2" class="node">
<title>Node4_1</title>
<ellipse fill="#93db70" stroke="#93db70" cx="180.95" cy="-192" rx="50.09" ry="18"/>
<text text-anchor="middle" x="180.95" y="-188.3" font-family="Times,serif" font-size="14.00">वृत्तिम्(4.1)</text>
</g>
<!-- Node3_1&#45;&gt;Node4_1 -->
<g id="edge2" class="edge">
<title>Node3_1&#45;&gt;Node4_1</title>
<path fill="none" stroke="black" d="M281.91,-126.96C257.88,-142.2 225.94,-162.46 204.47,-176.08"/>
<polygon fill="black" stroke="black" points="283.8,-129.9 290.37,-121.59 280.05,-123.99 283.8,-129.9"/>
<text text-anchor="middle" x="278.45" y="-144.8" font-family="Times,serif" font-size="14.00">विशेषणम्</text>
</g>
<!-- Node2_1 -->
<g id="node5" class="node">
<title>Node2_1</title>
<ellipse fill="#ff1975" stroke="#ff1975" cx="83.95" cy="-279" rx="50.09" ry="18"/>
<text text-anchor="middle" x="83.95" y="-275.3" font-family="Times,serif" font-size="14.00">वर्तसि(2.1)</text>
</g>
<!-- Node4_1&#45;&gt;Node2_1 -->
<g id="edge3" class="edge">
<title>Node4_1&#45;&gt;Node2_1</title>
<path fill="none" stroke="black" d="M154.92,-215.8C138.23,-230.43 116.99,-249.04 102.11,-262.08"/>
<polygon fill="black" stroke="black" points="157.49,-218.21 162.7,-208.99 152.87,-212.95 157.49,-218.21"/>
<text text-anchor="middle" x="146.95" y="-231.8" font-family="Times,serif" font-size="14.00">कर्म</text>
</g>
<!-- Node5_2 -->
<g id="node3" class="node">
<title>Node5_2</title>
<ellipse fill="#93db70" stroke="#93db70" cx="180.95" cy="-105" rx="57.39" ry="18"/>
<text text-anchor="middle" x="180.95" y="-101.3" font-family="Times,serif" font-size="14.00">सेविताम्(5.2)</text>
</g>
<!-- Node5_2&#45;&gt;Node4_1 -->
<g id="edge5" class="edge">
<title>Node5_2&#45;&gt;Node4_1</title>
<path fill="none" stroke="black" d="M180.95,-133.27C180.95,-146.58 180.95,-162.19 180.95,-173.82"/>
<polygon fill="black" stroke="black" points="184.45,-133.2 180.95,-123.2 177.45,-133.2 184.45,-133.2"/>
<text text-anchor="middle" x="203.45" y="-144.8" font-family="Times,serif" font-size="14.00">विशेषणम्</text>
</g>
<!-- Node1_1 -->
<g id="node4" class="node">
<title>Node1_1</title>
<ellipse fill="#ff99ff" stroke="#ff99ff" cx="53.95" cy="-192" rx="53.89" ry="18"/>
<text text-anchor="middle" x="53.95" y="-188.3" font-family="Times,serif" font-size="14.00">कच्चित्(1.1)</text>
</g>
<!-- Node1_1&#45;&gt;Node2_1 -->
<g id="edge1" class="edge">
<title>Node1_1&#45;&gt;Node2_1</title>
<path fill="none" stroke="black" d="M63.45,-219.94C68.22,-233.43 73.84,-249.36 77.99,-261.11"/>
<polygon fill="black" stroke="black" points="66.64,-218.47 60.02,-210.2 60.04,-220.8 66.64,-218.47"/>
<text text-anchor="middle" x="89.45" y="-231.8" font-family="Times,serif" font-size="14.00">सम्बन्धः</text>
</g>
<!-- Node5_1 -->
<g id="node6" class="node">
<title>Node5_1</title>
<ellipse fill="#ffff00" stroke="#ffff00" cx="180.95" cy="-18" rx="53.89" ry="18"/>
<text text-anchor="middle" x="180.95" y="-14.3" font-family="Times,serif" font-size="14.00">राजर्षि&#45;(5.1)</text>
</g>
<!-- Node5_1&#45;&gt;Node5_2 -->
<g id="edge4" class="edge">
<title>Node5_1&#45;&gt;Node5_2</title>
<path fill="none" stroke="black" d="M180.95,-46.27C180.95,-59.58 180.95,-75.19 180.95,-86.82"/>
<polygon fill="black" stroke="black" points="184.45,-46.2 180.95,-36.2 177.45,-46.2 184.45,-46.2"/>
<text text-anchor="middle" x="197.95" y="-57.8" font-family="Times,serif" font-size="14.00">समासः</text>
</g>
<!-- Node6_1 -->
<g id="node7" class="node">
<title>Node6_1</title>
<ellipse fill="#ff99ff" stroke="#ff99ff" cx="445.95" cy="-105" rx="53.89" ry="18"/>
<text text-anchor="middle" x="445.95" y="-101.3" font-family="Times,serif" font-size="14.00">कच्चित्(6.1)</text>
</g>
<!-- Node11_1 -->
<g id="node8" class="node">
<title>Node11_1</title>
<ellipse fill="#ff1975" stroke="#ff1975" cx="671.95" cy="-192" rx="72.29" ry="18"/>
<text text-anchor="middle" x="671.95" y="-188.3" font-family="Times,serif" font-size="14.00">अभिप्रपूर्यते(11.1)</text>
</g>
<!-- Node6_1&#45;&gt;Node11_1 -->
<g id="edge6" class="edge">
<title>Node6_1&#45;&gt;Node11_1</title>
<path fill="none" stroke="black" d="M489.58,-122.6C515.28,-132.36 548.45,-144.92 577.95,-156 596.2,-162.86 616.48,-170.41 633.51,-176.74"/>
<polygon fill="black" stroke="black" points="490.7,-119.28 480.11,-119 488.22,-125.83 490.7,-119.28"/>
<text text-anchor="middle" x="596.45" y="-144.8" font-family="Times,serif" font-size="14.00">सम्बन्धः</text>
</g>
<!-- Node7_1 -->
<g id="node9" class="node">
<title>Node7_1</title>
<ellipse fill="#93db70" stroke="#93db70" cx="577.95" cy="-18" rx="51.19" ry="18"/>
<text text-anchor="middle" x="577.95" y="-14.3" font-family="Times,serif" font-size="14.00">दायान्(7.1)</text>
</g>
<!-- Node8_1 -->
<g id="node10" class="node">
<title>Node8_1</title>
<ellipse fill="#ff99ff" stroke="#ff99ff" cx="577.95" cy="-105" rx="59.59" ry="18"/>
<text text-anchor="middle" x="577.95" y="-101.3" font-family="Times,serif" font-size="14.00">अनुच्छिद्य(8.1)</text>
</g>
<!-- Node7_1&#45;&gt;Node8_1 -->
<g id="edge7" class="edge">
<title>Node7_1&#45;&gt;Node8_1</title>
<path fill="none" stroke="black" d="M577.95,-46.27C577.95,-59.58 577.95,-75.19 577.95,-86.82"/>
<polygon fill="black" stroke="black" points="581.45,-46.2 577.95,-36.2 574.45,-46.2 581.45,-46.2"/>
<text text-anchor="middle" x="586.95" y="-57.8" font-family="Times,serif" font-size="14.00">कर्म</text>
</g>
<!-- Node8_1&#45;&gt;Node11_1 -->
<g id="edge8" class="edge">
<title>Node8_1&#45;&gt;Node11_1</title>
<path fill="none" stroke="black" d="M603.9,-129.47C619.66,-143.72 639.4,-161.57 653.56,-174.37"/>
<polygon fill="black" stroke="black" points="605.83,-126.5 596.07,-122.39 601.14,-131.69 605.83,-126.5"/>
<text text-anchor="middle" x="650.45" y="-144.8" font-family="Times,serif" font-size="14.00">पूर्वकालः</text>
</g>
<!-- Node9_1 -->
<g id="node11" class="node">
<title>Node9_1</title>
<ellipse fill="#00bfff" stroke="#00bfff" cx="704.95" cy="-105" rx="49.29" ry="18"/>
<text text-anchor="middle" x="704.95" y="-101.3" font-family="Times,serif" font-size="14.00">कोशः(9.1)</text>
</g>
<!-- Node9_1&#45;&gt;Node11_1 -->
<g id="edge9" class="edge">
<title>Node9_1&#45;&gt;Node11_1</title>
<path fill="none" stroke="black" d="M694.51,-132.87C689.31,-146.27 683.17,-162.08 678.61,-173.82"/>
<polygon fill="black" stroke="black" points="697.91,-133.79 698.27,-123.2 691.39,-131.26 697.91,-133.79"/>
<text text-anchor="middle" x="698.95" y="-144.8" font-family="Times,serif" font-size="14.00">कर्म</text>
</g>
<!-- Node10_1 -->
<g id="node12" class="node">
<title>Node10_1</title>
<ellipse fill="#87ceeb" stroke="#87ceeb" cx="814.95" cy="-105" rx="42.79" ry="18"/>
<text text-anchor="middle" x="814.95" y="-101.3" font-family="Times,serif" font-size="14.00">ते(10.1)</text>
</g>
<!-- Node10_1&#45;&gt;Node11_1 -->
<g id="edge10" class="edge">
<title>Node10_1&#45;&gt;Node11_1</title>
<path fill="none" stroke="black" d="M782.45,-125.32C757.07,-140.4 722.24,-161.1 698.51,-175.21"/>
<polygon fill="black" stroke="black" points="784.52,-128.15 791.33,-120.04 780.95,-122.14 784.52,-128.15"/>
<text text-anchor="middle" x="779.45" y="-144.8" font-family="Times,serif" font-size="14.00">षष्ठीसम्बन्धः</text>
</g>
</g>
</svg>
