<?xml version="1.0" encoding="UTF-8" standalone="no"?>
<!DOCTYPE svg PUBLIC "-//W3C//DTD SVG 1.1//EN"
 "http://www.w3.org/Graphics/SVG/1.1/DTD/svg11.dtd">
<!-- Generated by graphviz version 2.43.0 (0)
 -->
<!-- Title: G Pages: 1 -->
<svg width="653pt" height="392pt"
 viewBox="0.00 0.00 653.00 392.00" xmlns="http://www.w3.org/2000/svg" xmlns:xlink="http://www.w3.org/1999/xlink">
<g id="graph0" class="graph" transform="scale(1 1) rotate(0) translate(4 388)">
<title>G</title>
<polygon fill="#fffacd" stroke="transparent" points="-4,4 -4,-388 649,-388 649,4 -4,4"/>
<g id="clust1" class="cluster">
<title>cluster_1</title>
<polygon fill="#fffacd" stroke="black" points="425,-79 425,-218 637,-218 637,-79 425,-79"/>
</g>
<g id="clust2" class="cluster">
<title>cluster_2</title>
<polygon fill="#fffacd" stroke="black" points="8,-166 8,-305 164,-305 164,-166 8,-166"/>
</g>
<g id="clust3" class="cluster">
<title>cluster_3</title>
<polygon fill="#fffacd" stroke="black" points="172,-166 172,-305 294,-305 294,-166 172,-166"/>
</g>
<!-- Node2_1 -->
<g id="node1" class="node">
<title>Node2_1</title>
<ellipse fill="#00bfff" stroke="#00bfff" cx="580" cy="-105" rx="48.99" ry="18"/>
<text text-anchor="middle" x="580" y="-101.3" font-family="Times,serif" font-size="14.00">उक्तः(2.1)</text>
</g>
<!-- Node3_1 -->
<g id="node2" class="node">
<title>Node3_1</title>
<ellipse fill="#00bfff" stroke="#00bfff" cx="545" cy="-192" rx="56.59" ry="18"/>
<text text-anchor="middle" x="545" y="-188.3" font-family="Times,serif" font-size="14.00">धर्मराजः(3.1)</text>
</g>
<!-- Node2_1&#45;&gt;Node3_1 -->
<g id="edge2" class="edge">
<title>Node2_1&#45;&gt;Node3_1</title>
<path fill="none" stroke="black" d="M569.07,-132.54C563.48,-146.12 556.84,-162.24 551.95,-174.11"/>
<polygon fill="black" stroke="black" points="572.35,-133.78 572.92,-123.2 565.87,-131.12 572.35,-133.78"/>
<text text-anchor="middle" x="586.5" y="-144.8" font-family="Times,serif" font-size="14.00">विशेषणम्</text>
</g>
<!-- Node12_1 -->
<g id="node9" class="node">
<title>Node12_1</title>
<ellipse fill="#ff1975" stroke="#ff1975" cx="363" cy="-366" rx="69.59" ry="18"/>
<text text-anchor="middle" x="363" y="-362.3" font-family="Times,serif" font-size="14.00">प्रत्यवेदयत्(12.1)</text>
</g>
<!-- Node3_1&#45;&gt;Node12_1 -->
<g id="edge3" class="edge">
<title>Node3_1&#45;&gt;Node12_1</title>
<path fill="none" stroke="black" d="M549.08,-220.24C551.3,-244.07 551.18,-278.85 537,-305 516.82,-342.22 470.91,-356.98 431.32,-362.57"/>
<polygon fill="black" stroke="black" points="552.54,-219.68 547.94,-210.14 545.58,-220.47 552.54,-219.68"/>
<text text-anchor="middle" x="560" y="-275.3" font-family="Times,serif" font-size="14.00">कर्ता</text>
</g>
<!-- Node5_1 -->
<g id="node10" class="node">
<title>Node5_1</title>
<ellipse fill="#ff99ff" stroke="#ff99ff" cx="363" cy="-279" rx="59.29" ry="18"/>
<text text-anchor="middle" x="363" y="-275.3" font-family="Times,serif" font-size="14.00">विनिवृत्य(5.1)</text>
</g>
<!-- Node3_1&#45;&gt;Node5_1 -->
<g id="edge4" class="edge">
<title>Node3_1&#45;&gt;Node5_1</title>
<path fill="none" stroke="black" stroke-dasharray="1,5" d="M505.05,-211.66C471.59,-227.29 424.5,-249.28 393.87,-263.58"/>
<polygon fill="black" stroke="black" points="506.96,-214.63 514.54,-207.23 504,-208.29 506.96,-214.63"/>
<text text-anchor="middle" x="475" y="-231.8" font-family="Times,serif" font-size="14.00">कर्ता</text>
</g>
<!-- Node4_1 -->
<g id="node3" class="node">
<title>Node4_1</title>
<ellipse fill="#00bfff" stroke="#00bfff" cx="473" cy="-105" rx="40.09" ry="18"/>
<text text-anchor="middle" x="473" y="-101.3" font-family="Times,serif" font-size="14.00">सः(4.1)</text>
</g>
<!-- Node4_1&#45;&gt;Node3_1 -->
<g id="edge5" class="edge">
<title>Node4_1&#45;&gt;Node3_1</title>
<path fill="none" stroke="black" d="M490.88,-130.76C497.05,-138.96 504.14,-148.02 511,-156 516.41,-162.29 522.67,-168.9 528.32,-174.65"/>
<polygon fill="black" stroke="black" points="493.61,-128.55 484.84,-122.6 487.98,-132.72 493.61,-128.55"/>
<text text-anchor="middle" x="533.5" y="-144.8" font-family="Times,serif" font-size="14.00">विशेषणम्</text>
</g>
<!-- Node8_1 -->
<g id="node4" class="node">
<title>Node8_1</title>
<ellipse fill="#87ceeb" stroke="#87ceeb" cx="86" cy="-192" rx="46.29" ry="18"/>
<text text-anchor="middle" x="86" y="-188.3" font-family="Times,serif" font-size="14.00">राज्ञः(8.1)</text>
</g>
<!-- Node9_1 -->
<g id="node5" class="node">
<title>Node9_1</title>
<ellipse fill="#87ceeb" stroke="#87ceeb" cx="86" cy="-279" rx="70.39" ry="18"/>
<text text-anchor="middle" x="86" y="-275.3" font-family="Times,serif" font-size="14.00">वैचित्रवीर्यस्य(9.1)</text>
</g>
<!-- Node8_1&#45;&gt;Node9_1 -->
<g id="edge9" class="edge">
<title>Node8_1&#45;&gt;Node9_1</title>
<path fill="none" stroke="black" d="M86,-220.27C86,-233.58 86,-249.19 86,-260.82"/>
<polygon fill="black" stroke="black" points="89.5,-220.2 86,-210.2 82.5,-220.2 89.5,-220.2"/>
<text text-anchor="middle" x="108.5" y="-231.8" font-family="Times,serif" font-size="14.00">विशेषणम्</text>
</g>
<!-- Node9_1&#45;&gt;Node12_1 -->
<g id="edge10" class="edge">
<title>Node9_1&#45;&gt;Node12_1</title>
<path fill="none" stroke="black" d="M134.45,-297.53C162.74,-307.53 199.21,-320.02 232,-330 259.25,-338.3 290.01,-346.57 314.87,-352.99"/>
<polygon fill="black" stroke="black" points="135.4,-294.15 124.8,-294.1 133.06,-300.75 135.4,-294.15"/>
<text text-anchor="middle" x="259.5" y="-318.8" font-family="Times,serif" font-size="14.00">षष्ठीसम्बन्धः</text>
</g>
<!-- Node10_1 -->
<g id="node6" class="node">
<title>Node10_1</title>
<ellipse fill="#93db70" stroke="#93db70" cx="233" cy="-192" rx="48.19" ry="18"/>
<text text-anchor="middle" x="233" y="-188.3" font-family="Times,serif" font-size="14.00">तत्(10.1)</text>
</g>
<!-- Node11_1 -->
<g id="node7" class="node">
<title>Node11_1</title>
<ellipse fill="#93db70" stroke="#93db70" cx="233" cy="-279" rx="53.09" ry="18"/>
<text text-anchor="middle" x="233" y="-275.3" font-family="Times,serif" font-size="14.00">सर्वम्(11.1)</text>
</g>
<!-- Node10_1&#45;&gt;Node11_1 -->
<g id="edge11" class="edge">
<title>Node10_1&#45;&gt;Node11_1</title>
<path fill="none" stroke="black" d="M233,-220.27C233,-233.58 233,-249.19 233,-260.82"/>
<polygon fill="black" stroke="black" points="236.5,-220.2 233,-210.2 229.5,-220.2 236.5,-220.2"/>
<text text-anchor="middle" x="255.5" y="-231.8" font-family="Times,serif" font-size="14.00">विशेषणम्</text>
</g>
<!-- Node11_1&#45;&gt;Node12_1 -->
<g id="edge12" class="edge">
<title>Node11_1&#45;&gt;Node12_1</title>
<path fill="none" stroke="black" d="M265.13,-301.01C287.74,-315.79 317.55,-335.28 338.31,-348.85"/>
<polygon fill="black" stroke="black" points="266.83,-297.94 256.54,-295.39 263,-303.79 266.83,-297.94"/>
<text text-anchor="middle" x="315" y="-318.8" font-family="Times,serif" font-size="14.00">कर्म</text>
</g>
<!-- Node1_1 -->
<g id="node8" class="node">
<title>Node1_1</title>
<ellipse fill="#ff99ff" stroke="#ff99ff" cx="580" cy="-18" rx="44.39" ry="18"/>
<text text-anchor="middle" x="580" y="-14.3" font-family="Times,serif" font-size="14.00">इति(1.1)</text>
</g>
<!-- Node1_1&#45;&gt;Node2_1 -->
<g id="edge1" class="edge">
<title>Node1_1&#45;&gt;Node2_1</title>
<path fill="none" stroke="black" d="M580,-46.27C580,-59.58 580,-75.19 580,-86.82"/>
<polygon fill="black" stroke="black" points="583.5,-46.2 580,-36.2 576.5,-46.2 583.5,-46.2"/>
<text text-anchor="middle" x="598.5" y="-57.8" font-family="Times,serif" font-size="14.00">सम्बन्धः</text>
</g>
<!-- Node5_1&#45;&gt;Node12_1 -->
<g id="edge6" class="edge">
<title>Node5_1&#45;&gt;Node12_1</title>
<path fill="none" stroke="black" d="M363,-307.27C363,-320.58 363,-336.19 363,-347.82"/>
<polygon fill="black" stroke="black" points="366.5,-307.2 363,-297.2 359.5,-307.2 366.5,-307.2"/>
<text text-anchor="middle" x="383.5" y="-318.8" font-family="Times,serif" font-size="14.00">पूर्वकालः</text>
</g>
<!-- Node6_1 -->
<g id="node11" class="node">
<title>Node6_1</title>
<ellipse fill="#ff99ff" stroke="#ff99ff" cx="363" cy="-192" rx="44.39" ry="18"/>
<text text-anchor="middle" x="363" y="-188.3" font-family="Times,serif" font-size="14.00">ततः(6.1)</text>
</g>
<!-- Node6_1&#45;&gt;Node5_1 -->
<g id="edge7" class="edge">
<title>Node6_1&#45;&gt;Node5_1</title>
<path fill="none" stroke="black" d="M363,-220.27C363,-233.58 363,-249.19 363,-260.82"/>
<polygon fill="black" stroke="black" points="366.5,-220.2 363,-210.2 359.5,-220.2 366.5,-220.2"/>
<text text-anchor="middle" x="381.5" y="-231.8" font-family="Times,serif" font-size="14.00">सम्बन्धः</text>
</g>
<!-- Node7_1 -->
<g id="node12" class="node">
<title>Node7_1</title>
<ellipse fill="#ff99ff" stroke="#ff99ff" cx="484" cy="-279" rx="44.39" ry="18"/>
<text text-anchor="middle" x="484" y="-275.3" font-family="Times,serif" font-size="14.00">पुनः(7.1)</text>
</g>
<!-- Node7_1&#45;&gt;Node12_1 -->
<g id="edge8" class="edge">
<title>Node7_1&#45;&gt;Node12_1</title>
<path fill="none" stroke="black" d="M454.39,-300.8C433.39,-315.55 405.6,-335.07 386.2,-348.7"/>
<polygon fill="black" stroke="black" points="456.48,-303.61 462.65,-295 452.45,-297.88 456.48,-303.61"/>
<text text-anchor="middle" x="465" y="-318.8" font-family="Times,serif" font-size="14.00">क्रियाविशेषणम्</text>
</g>
</g>
</svg>
