<?xml version="1.0" encoding="UTF-8" standalone="no"?>
<!DOCTYPE svg PUBLIC "-//W3C//DTD SVG 1.1//EN"
 "http://www.w3.org/Graphics/SVG/1.1/DTD/svg11.dtd">
<!-- Generated by graphviz version 2.43.0 (0)
 -->
<!-- Title: G Pages: 1 -->
<svg width="972pt" height="321pt"
 viewBox="0.00 0.00 972.30 321.00" xmlns="http://www.w3.org/2000/svg" xmlns:xlink="http://www.w3.org/1999/xlink">
<g id="graph0" class="graph" transform="scale(1 1) rotate(0) translate(4 317)">
<title>G</title>
<polygon fill="#fffacd" stroke="transparent" points="-4,4 -4,-317 968.3,-317 968.3,4 -4,4"/>
<g id="clust1" class="cluster">
<title>cluster_1</title>
<polygon fill="#fffacd" stroke="black" points="222.3,-95 222.3,-234 592.3,-234 592.3,-95 222.3,-95"/>
</g>
<g id="clust2" class="cluster">
<title>cluster_2</title>
<polygon fill="#fffacd" stroke="black" points="600.3,-8 600.3,-147 862.3,-147 862.3,-8 600.3,-8"/>
</g>
<!-- Node6_1 -->
<g id="node1" class="node">
<title>Node6_1</title>
<ellipse fill="#00bfff" stroke="#00bfff" cx="537.3" cy="-121" rx="46.59" ry="18"/>
<text text-anchor="middle" x="537.3" y="-117.3" font-family="Times,serif" font-size="14.00">एतत्(6.1)</text>
</g>
<!-- Node8_1 -->
<g id="node2" class="node">
<title>Node8_1</title>
<ellipse fill="#00bfff" stroke="#00bfff" cx="287.3" cy="-208" rx="57.39" ry="18"/>
<text text-anchor="middle" x="287.3" y="-204.3" font-family="Times,serif" font-size="14.00">कलेवरम्(8.1)</text>
</g>
<!-- Node6_1&#45;&gt;Node8_1 -->
<g id="edge6" class="edge">
<title>Node6_1&#45;&gt;Node8_1</title>
<path fill="none" stroke="black" d="M499.47,-139.49C493.43,-142.11 487.22,-144.7 481.3,-147 430.04,-166.93 369.21,-184.85 329.51,-195.81"/>
<polygon fill="black" stroke="black" points="501.01,-142.63 508.75,-135.39 498.19,-136.23 501.01,-142.63"/>
<text text-anchor="middle" x="471.8" y="-160.8" font-family="Times,serif" font-size="14.00">विशेषणम्</text>
</g>
<!-- Node16_1 -->
<g id="node11" class="node">
<title>Node16_1</title>
<ellipse fill="#ff1975" stroke="#ff1975" cx="164.3" cy="-295" rx="62.29" ry="18"/>
<text text-anchor="middle" x="164.3" y="-291.3" font-family="Times,serif" font-size="14.00">(अस्ति)(16.1)</text>
</g>
<!-- Node8_1&#45;&gt;Node16_1 -->
<g id="edge9" class="edge">
<title>Node8_1&#45;&gt;Node16_1</title>
<path fill="none" stroke="black" d="M256.27,-230.44C234.76,-245.31 206.6,-264.77 187.13,-278.22"/>
<polygon fill="black" stroke="black" points="258.5,-233.15 264.74,-224.59 254.52,-227.4 258.5,-233.15"/>
<text text-anchor="middle" x="243.3" y="-247.8" font-family="Times,serif" font-size="14.00">कर्ता</text>
</g>
<!-- Node7_2 -->
<g id="node3" class="node">
<title>Node7_2</title>
<ellipse fill="#00bfff" stroke="#00bfff" cx="413.3" cy="-121" rx="59.29" ry="18"/>
<text text-anchor="middle" x="413.3" y="-117.3" font-family="Times,serif" font-size="14.00">सञ्ज्ञकम्(7.2)</text>
</g>
<!-- Node7_2&#45;&gt;Node8_1 -->
<g id="edge8" class="edge">
<title>Node7_2&#45;&gt;Node8_1</title>
<path fill="none" stroke="black" d="M381.75,-143.28C359.53,-158.27 330.29,-178 310.26,-191.51"/>
<polygon fill="black" stroke="black" points="383.85,-146.08 390.19,-137.59 379.94,-140.28 383.85,-146.08"/>
<text text-anchor="middle" x="379.8" y="-160.8" font-family="Times,serif" font-size="14.00">विशेषणम्</text>
</g>
<!-- Node10_1 -->
<g id="node4" class="node">
<title>Node10_1</title>
<ellipse fill="#00bfff" stroke="#00bfff" cx="283.3" cy="-121" rx="52.79" ry="18"/>
<text text-anchor="middle" x="283.3" y="-117.3" font-family="Times,serif" font-size="14.00">एतत्(10.1)</text>
</g>
<!-- Node10_1&#45;&gt;Node8_1 -->
<g id="edge11" class="edge">
<title>Node10_1&#45;&gt;Node8_1</title>
<path fill="none" stroke="black" d="M284.58,-149.27C285.21,-162.58 285.94,-178.19 286.49,-189.82"/>
<polygon fill="black" stroke="black" points="288.07,-149.03 284.11,-139.2 281.08,-149.35 288.07,-149.03"/>
<text text-anchor="middle" x="307.8" y="-160.8" font-family="Times,serif" font-size="14.00">विशेषणम्</text>
</g>
<!-- Node13_1 -->
<g id="node5" class="node">
<title>Node13_1</title>
<ellipse fill="#00bfff" stroke="#00bfff" cx="804.3" cy="-34" rx="50.09" ry="18"/>
<text text-anchor="middle" x="804.3" y="-30.3" font-family="Times,serif" font-size="14.00">एषः(13.1)</text>
</g>
<!-- Node12_1 -->
<g id="node6" class="node">
<title>Node12_1</title>
<ellipse fill="#00bfff" stroke="#00bfff" cx="803.3" cy="-121" rx="50.89" ry="18"/>
<text text-anchor="middle" x="803.3" y="-117.3" font-family="Times,serif" font-size="14.00">धर्मः(12.1)</text>
</g>
<!-- Node13_1&#45;&gt;Node12_1 -->
<g id="edge14" class="edge">
<title>Node13_1&#45;&gt;Node12_1</title>
<path fill="none" stroke="black" d="M803.98,-62.27C803.82,-75.58 803.64,-91.19 803.5,-102.82"/>
<polygon fill="black" stroke="black" points="807.48,-62.24 804.09,-52.2 800.48,-62.16 807.48,-62.24"/>
<text text-anchor="middle" x="825.8" y="-73.8" font-family="Times,serif" font-size="14.00">विशेषणम्</text>
</g>
<!-- Node15_1 -->
<g id="node16" class="node">
<title>Node15_1</title>
<ellipse fill="#ff1975" stroke="#ff1975" cx="885.3" cy="-208" rx="62.29" ry="18"/>
<text text-anchor="middle" x="885.3" y="-204.3" font-family="Times,serif" font-size="14.00">(अस्ति)(15.1)</text>
</g>
<!-- Node12_1&#45;&gt;Node15_1 -->
<g id="edge13" class="edge">
<title>Node12_1&#45;&gt;Node15_1</title>
<path fill="none" stroke="black" d="M826.32,-145.86C840,-160.05 857.02,-177.69 869.25,-190.37"/>
<polygon fill="black" stroke="black" points="828.57,-143.16 819.11,-138.39 823.53,-148.02 828.57,-143.16"/>
<text text-anchor="middle" x="859.3" y="-160.8" font-family="Times,serif" font-size="14.00">कर्ता</text>
</g>
<!-- Node14_1 -->
<g id="node7" class="node">
<title>Node14_1</title>
<ellipse fill="#00bfff" stroke="#00bfff" cx="672.3" cy="-34" rx="63.89" ry="18"/>
<text text-anchor="middle" x="672.3" y="-30.3" font-family="Times,serif" font-size="14.00">सनातनः(14.1)</text>
</g>
<!-- Node14_1&#45;&gt;Node12_1 -->
<g id="edge15" class="edge">
<title>Node14_1&#45;&gt;Node12_1</title>
<path fill="none" stroke="black" d="M705.16,-56.32C728.46,-71.44 759.16,-91.36 779.97,-104.87"/>
<polygon fill="black" stroke="black" points="706.92,-53.3 696.63,-50.79 703.11,-59.17 706.92,-53.3"/>
<text text-anchor="middle" x="767.8" y="-73.8" font-family="Times,serif" font-size="14.00">विशेषणम्</text>
</g>
<!-- Node1_1 -->
<g id="node8" class="node">
<title>Node1_1</title>
<ellipse fill="#ff99ff" stroke="#ff99ff" cx="40.3" cy="-34" rx="40.09" ry="18"/>
<text text-anchor="middle" x="40.3" y="-30.3" font-family="Times,serif" font-size="14.00">भो(1.1)</text>
</g>
<!-- Node2_1 -->
<g id="node9" class="node">
<title>Node2_1</title>
<ellipse fill="#ff99ff" stroke="#ff99ff" cx="40.3" cy="-121" rx="40.09" ry="18"/>
<text text-anchor="middle" x="40.3" y="-117.3" font-family="Times,serif" font-size="14.00">भो(2.1)</text>
</g>
<!-- Node1_1&#45;&gt;Node2_1 -->
<g id="edge1" class="edge">
<title>Node1_1&#45;&gt;Node2_1</title>
<path fill="none" stroke="black" d="M40.3,-62.27C40.3,-75.58 40.3,-91.19 40.3,-102.82"/>
<polygon fill="black" stroke="black" points="43.8,-62.2 40.3,-52.2 36.8,-62.2 43.8,-62.2"/>
<text text-anchor="middle" x="54.3" y="-73.8" font-family="Times,serif" font-size="14.00">वीप्सा</text>
</g>
<!-- Node3_1 -->
<g id="node10" class="node">
<title>Node3_1</title>
<ellipse fill="#6fffc3" stroke="#6fffc3" cx="56.3" cy="-208" rx="48.99" ry="18"/>
<text text-anchor="middle" x="56.3" y="-204.3" font-family="Times,serif" font-size="14.00">राजन्(3.1)</text>
</g>
<!-- Node2_1&#45;&gt;Node3_1 -->
<g id="edge2" class="edge">
<title>Node2_1&#45;&gt;Node3_1</title>
<path fill="none" stroke="black" d="M45.43,-149.27C47.94,-162.58 50.87,-178.19 53.06,-189.82"/>
<polygon fill="black" stroke="black" points="48.82,-148.38 43.53,-139.2 41.94,-149.68 48.82,-148.38"/>
<text text-anchor="middle" x="88.8" y="-160.8" font-family="Times,serif" font-size="14.00">सम्बोधन_द्योतकः</text>
</g>
<!-- Node3_1&#45;&gt;Node16_1 -->
<g id="edge3" class="edge">
<title>Node3_1&#45;&gt;Node16_1</title>
<path fill="none" stroke="black" d="M83.33,-231.08C94.15,-239.84 106.76,-249.96 118.3,-259 126.2,-265.19 134.94,-271.88 142.67,-277.74"/>
<polygon fill="black" stroke="black" points="85.42,-228.27 75.45,-224.68 81.01,-233.7 85.42,-228.27"/>
<text text-anchor="middle" x="139.3" y="-247.8" font-family="Times,serif" font-size="14.00">सम्बोध्यः</text>
</g>
<!-- Node4_1 -->
<g id="node12" class="node">
<title>Node4_1</title>
<ellipse fill="#ff99ff" stroke="#ff99ff" cx="164.3" cy="-208" rx="37.09" ry="18"/>
<text text-anchor="middle" x="164.3" y="-204.3" font-family="Times,serif" font-size="14.00">न(4.1)</text>
</g>
<!-- Node4_1&#45;&gt;Node16_1 -->
<g id="edge4" class="edge">
<title>Node4_1&#45;&gt;Node16_1</title>
<path fill="none" stroke="black" d="M164.3,-236.27C164.3,-249.58 164.3,-265.19 164.3,-276.82"/>
<polygon fill="black" stroke="black" points="167.8,-236.2 164.3,-226.2 160.8,-236.2 167.8,-236.2"/>
<text text-anchor="middle" x="183.8" y="-247.8" font-family="Times,serif" font-size="14.00">प्रतिषेधः</text>
</g>
<!-- Node5_1 -->
<g id="node13" class="node">
<title>Node5_1</title>
<ellipse fill="#00bfff" stroke="#00bfff" cx="155.3" cy="-121" rx="57.39" ry="18"/>
<text text-anchor="middle" x="155.3" y="-117.3" font-family="Times,serif" font-size="14.00">दग्धव्यम्(5.1)</text>
</g>
<!-- Node5_1&#45;&gt;Node8_1 -->
<g id="edge5" class="edge">
<title>Node5_1&#45;&gt;Node8_1</title>
<path fill="none" stroke="black" d="M174.51,-146.48C182.4,-155.38 192.08,-164.96 202.3,-172 216.09,-181.51 232.87,-189.11 247.87,-194.76"/>
<polygon fill="black" stroke="black" points="176.95,-143.95 167.8,-138.6 171.62,-148.48 176.95,-143.95"/>
<text text-anchor="middle" x="241.3" y="-160.8" font-family="Times,serif" font-size="14.00">विधेय_विशेषणम्</text>
</g>
<!-- Node7_1 -->
<g id="node14" class="node">
<title>Node7_1</title>
<ellipse fill="#ffff00" stroke="#ffff00" cx="413.3" cy="-34" rx="50.09" ry="18"/>
<text text-anchor="middle" x="413.3" y="-30.3" font-family="Times,serif" font-size="14.00">विदुर&#45;(7.1)</text>
</g>
<!-- Node7_1&#45;&gt;Node7_2 -->
<g id="edge7" class="edge">
<title>Node7_1&#45;&gt;Node7_2</title>
<path fill="none" stroke="black" d="M413.3,-62.27C413.3,-75.58 413.3,-91.19 413.3,-102.82"/>
<polygon fill="black" stroke="black" points="416.8,-62.2 413.3,-52.2 409.8,-62.2 416.8,-62.2"/>
<text text-anchor="middle" x="430.3" y="-73.8" font-family="Times,serif" font-size="14.00">समासः</text>
</g>
<!-- Node9_1 -->
<g id="node15" class="node">
<title>Node9_1</title>
<ellipse fill="#ff99ff" stroke="#ff99ff" cx="913.3" cy="-121" rx="40.89" ry="18"/>
<text text-anchor="middle" x="913.3" y="-117.3" font-family="Times,serif" font-size="14.00">इह(9.1)</text>
</g>
<!-- Node9_1&#45;&gt;Node15_1 -->
<g id="edge10" class="edge">
<title>Node9_1&#45;&gt;Node15_1</title>
<path fill="none" stroke="black" d="M904.44,-148.87C900.03,-162.27 894.82,-178.08 890.95,-189.82"/>
<polygon fill="black" stroke="black" points="907.83,-149.79 907.63,-139.2 901.18,-147.6 907.83,-149.79"/>
<text text-anchor="middle" x="932.3" y="-160.8" font-family="Times,serif" font-size="14.00">देशाधिकरणम्</text>
</g>
<!-- Node11_1 -->
<g id="node17" class="node">
<title>Node11_1</title>
<ellipse fill="#00bfff" stroke="#00bfff" cx="915.3" cy="-34" rx="42.79" ry="18"/>
<text text-anchor="middle" x="915.3" y="-30.3" font-family="Times,serif" font-size="14.00">ते(11.1)</text>
</g>
<!-- Node11_1&#45;&gt;Node12_1 -->
<g id="edge12" class="edge">
<title>Node11_1&#45;&gt;Node12_1</title>
<path fill="none" stroke="black" d="M888.42,-56.82C877.33,-65.69 864.3,-75.96 852.3,-85 843.61,-91.54 833.9,-98.54 825.42,-104.55"/>
<polygon fill="black" stroke="black" points="890.87,-59.34 896.47,-50.35 886.48,-53.89 890.87,-59.34"/>
<text text-anchor="middle" x="898.8" y="-73.8" font-family="Times,serif" font-size="14.00">षष्ठीसम्बन्धः</text>
</g>
</g>
</svg>
