<?xml version="1.0" encoding="UTF-8" standalone="no"?>
<!DOCTYPE svg PUBLIC "-//W3C//DTD SVG 1.1//EN"
 "http://www.w3.org/Graphics/SVG/1.1/DTD/svg11.dtd">
<!-- Generated by graphviz version 2.43.0 (0)
 -->
<!-- Title: G Pages: 1 -->
<svg width="1143pt" height="321pt"
 viewBox="0.00 0.00 1142.70 321.00" xmlns="http://www.w3.org/2000/svg" xmlns:xlink="http://www.w3.org/1999/xlink">
<g id="graph0" class="graph" transform="scale(1 1) rotate(0) translate(4 317)">
<title>G</title>
<polygon fill="#fffacd" stroke="transparent" points="-4,4 -4,-317 1138.7,-317 1138.7,4 -4,4"/>
<g id="clust1" class="cluster">
<title>cluster_1</title>
<polygon fill="#fffacd" stroke="black" points="490,-8 490,-234 761,-234 761,-8 490,-8"/>
</g>
<g id="clust2" class="cluster">
<title>cluster_2</title>
<polygon fill="#fffacd" stroke="black" points="8,-95 8,-234 254,-234 254,-95 8,-95"/>
</g>
<!-- Node1_1 -->
<g id="node1" class="node">
<title>Node1_1</title>
<ellipse fill="#93db70" stroke="#93db70" cx="555" cy="-121" rx="56.59" ry="18"/>
<text text-anchor="middle" x="555" y="-117.3" font-family="Times,serif" font-size="14.00">पौराणम्(1.1)</text>
</g>
<!-- Node8_2 -->
<g id="node2" class="node">
<title>Node8_2</title>
<ellipse fill="#93db70" stroke="#93db70" cx="550" cy="-208" rx="47.39" ry="18"/>
<text text-anchor="middle" x="550" y="-204.3" font-family="Times,serif" font-size="14.00">धर्मम्(8.2)</text>
</g>
<!-- Node1_1&#45;&gt;Node8_2 -->
<g id="edge1" class="edge">
<title>Node1_1&#45;&gt;Node8_2</title>
<path fill="none" stroke="black" d="M553.4,-149.27C552.61,-162.58 551.69,-178.19 551.01,-189.82"/>
<polygon fill="black" stroke="black" points="556.89,-149.39 553.99,-139.2 549.91,-148.98 556.89,-149.39"/>
<text text-anchor="middle" x="575.5" y="-160.8" font-family="Times,serif" font-size="14.00">समुच्चितः</text>
</g>
<!-- Node13_1 -->
<g id="node9" class="node">
<title>Node13_1</title>
<ellipse fill="#ff1975" stroke="#ff1975" cx="316" cy="-295" rx="65.79" ry="18"/>
<text text-anchor="middle" x="316" y="-291.3" font-family="Times,serif" font-size="14.00">(सस्मार)(13.1)</text>
</g>
<!-- Node8_2&#45;&gt;Node13_1 -->
<g id="edge9" class="edge">
<title>Node8_2&#45;&gt;Node13_1</title>
<path fill="none" stroke="black" d="M507.46,-224.45C463.63,-240.37 395.95,-264.96 353.9,-280.23"/>
<polygon fill="black" stroke="black" points="508.77,-227.7 516.97,-221 506.38,-221.12 508.77,-227.7"/>
<text text-anchor="middle" x="457" y="-247.8" font-family="Times,serif" font-size="14.00">कर्म</text>
</g>
<!-- Node3_1 -->
<g id="node3" class="node">
<title>Node3_1</title>
<ellipse fill="#93db70" stroke="#93db70" cx="555" cy="-34" rx="47.39" ry="18"/>
<text text-anchor="middle" x="555" y="-30.3" font-family="Times,serif" font-size="14.00">सर्वम्(3.1)</text>
</g>
<!-- Node3_1&#45;&gt;Node1_1 -->
<g id="edge3" class="edge">
<title>Node3_1&#45;&gt;Node1_1</title>
<path fill="none" stroke="black" d="M555,-62.27C555,-75.58 555,-91.19 555,-102.82"/>
<polygon fill="black" stroke="black" points="558.5,-62.2 555,-52.2 551.5,-62.2 558.5,-62.2"/>
<text text-anchor="middle" x="577.5" y="-73.8" font-family="Times,serif" font-size="14.00">विशेषणम्</text>
</g>
<!-- Node11_1 -->
<g id="node4" class="node">
<title>Node11_1</title>
<ellipse fill="#93db70" stroke="#93db70" cx="691" cy="-121" rx="61.99" ry="18"/>
<text text-anchor="middle" x="691" y="-117.3" font-family="Times,serif" font-size="14.00">कथितम्(11.1)</text>
</g>
<!-- Node11_1&#45;&gt;Node8_2 -->
<g id="edge13" class="edge">
<title>Node11_1&#45;&gt;Node8_2</title>
<path fill="none" stroke="black" d="M656.85,-142.59C631.37,-157.95 597.17,-178.56 574.4,-192.29"/>
<polygon fill="black" stroke="black" points="658.71,-145.55 665.47,-137.39 655.09,-139.56 658.71,-145.55"/>
<text text-anchor="middle" x="651.5" y="-160.8" font-family="Times,serif" font-size="14.00">विशेषणम्</text>
</g>
<!-- Node4_1 -->
<g id="node5" class="node">
<title>Node4_1</title>
<ellipse fill="#00bfff" stroke="#00bfff" cx="188" cy="-121" rx="57.69" ry="18"/>
<text text-anchor="middle" x="188" y="-117.3" font-family="Times,serif" font-size="14.00">विद्यावान्(4.1)</text>
</g>
<!-- Node5_1 -->
<g id="node6" class="node">
<title>Node5_1</title>
<ellipse fill="#00bfff" stroke="#00bfff" cx="188" cy="-208" rx="40.09" ry="18"/>
<text text-anchor="middle" x="188" y="-204.3" font-family="Times,serif" font-size="14.00">सः(5.1)</text>
</g>
<!-- Node4_1&#45;&gt;Node5_1 -->
<g id="edge4" class="edge">
<title>Node4_1&#45;&gt;Node5_1</title>
<path fill="none" stroke="black" d="M188,-149.27C188,-162.58 188,-178.19 188,-189.82"/>
<polygon fill="black" stroke="black" points="191.5,-149.2 188,-139.2 184.5,-149.2 191.5,-149.2"/>
<text text-anchor="middle" x="210.5" y="-160.8" font-family="Times,serif" font-size="14.00">विशेषणम्</text>
</g>
<!-- Node5_1&#45;&gt;Node13_1 -->
<g id="edge5" class="edge">
<title>Node5_1&#45;&gt;Node13_1</title>
<path fill="none" stroke="black" d="M218.23,-229.08C240.76,-244.04 271.12,-264.2 292,-278.06"/>
<polygon fill="black" stroke="black" points="219.98,-226.04 209.71,-223.42 216.11,-231.87 219.98,-226.04"/>
<text text-anchor="middle" x="271" y="-247.8" font-family="Times,serif" font-size="14.00">कर्ता</text>
</g>
<!-- Node9_2 -->
<g id="node7" class="node">
<title>Node9_2</title>
<ellipse fill="#00bfff" stroke="#00bfff" cx="64" cy="-121" rx="48.19" ry="18"/>
<text text-anchor="middle" x="64" y="-117.3" font-family="Times,serif" font-size="14.00">तेजाः(9.2)</text>
</g>
<!-- Node9_2&#45;&gt;Node5_1 -->
<g id="edge11" class="edge">
<title>Node9_2&#45;&gt;Node5_1</title>
<path fill="none" stroke="black" d="M94.68,-143.03C117.13,-158.42 147.02,-178.91 166.85,-192.5"/>
<polygon fill="black" stroke="black" points="96.4,-139.96 86.17,-137.2 92.44,-145.74 96.4,-139.96"/>
<text text-anchor="middle" x="156.5" y="-160.8" font-family="Times,serif" font-size="14.00">विशेषणम्</text>
</g>
<!-- Node2_1 -->
<g id="node8" class="node">
<title>Node2_1</title>
<ellipse fill="#87ceeb" stroke="#87ceeb" cx="824" cy="-34" rx="55.49" ry="18"/>
<text text-anchor="middle" x="824" y="-30.3" font-family="Times,serif" font-size="14.00">आत्मनः(2.1)</text>
</g>
<!-- Node2_1&#45;&gt;Node1_1 -->
<g id="edge2" class="edge">
<title>Node2_1&#45;&gt;Node1_1</title>
<path fill="none" stroke="black" d="M774.31,-49.38C718.81,-65.49 634.76,-90 620,-95 609.69,-98.49 598.6,-102.62 588.55,-106.5"/>
<polygon fill="black" stroke="black" points="775.35,-52.73 783.98,-46.58 773.4,-46 775.35,-52.73"/>
<text text-anchor="middle" x="729.5" y="-73.8" font-family="Times,serif" font-size="14.00">षष्ठीसम्बन्धः</text>
</g>
<!-- Node6_1 -->
<g id="node10" class="node">
<title>Node6_1</title>
<ellipse fill="#87ceeb" stroke="#87ceeb" cx="316" cy="-121" rx="51.99" ry="18"/>
<text text-anchor="middle" x="316" y="-117.3" font-family="Times,serif" font-size="14.00">विशाम्(6.1)</text>
</g>
<!-- Node7_1 -->
<g id="node11" class="node">
<title>Node7_1</title>
<ellipse fill="#6fffc3" stroke="#6fffc3" cx="316" cy="-208" rx="42.49" ry="18"/>
<text text-anchor="middle" x="316" y="-204.3" font-family="Times,serif" font-size="14.00">पते(7.1)</text>
</g>
<!-- Node6_1&#45;&gt;Node7_1 -->
<g id="edge6" class="edge">
<title>Node6_1&#45;&gt;Node7_1</title>
<path fill="none" stroke="black" d="M316,-149.27C316,-162.58 316,-178.19 316,-189.82"/>
<polygon fill="black" stroke="black" points="319.5,-149.2 316,-139.2 312.5,-149.2 319.5,-149.2"/>
<text text-anchor="middle" x="343.5" y="-160.8" font-family="Times,serif" font-size="14.00">षष्ठीसम्बन्धः</text>
</g>
<!-- Node7_1&#45;&gt;Node13_1 -->
<g id="edge7" class="edge">
<title>Node7_1&#45;&gt;Node13_1</title>
<path fill="none" stroke="black" d="M316,-236.27C316,-249.58 316,-265.19 316,-276.82"/>
<polygon fill="black" stroke="black" points="319.5,-236.2 316,-226.2 312.5,-236.2 319.5,-236.2"/>
<text text-anchor="middle" x="337" y="-247.8" font-family="Times,serif" font-size="14.00">सम्बोध्यः</text>
</g>
<!-- Node8_1 -->
<g id="node12" class="node">
<title>Node8_1</title>
<ellipse fill="#ffff00" stroke="#ffff00" cx="433" cy="-121" rx="47.39" ry="18"/>
<text text-anchor="middle" x="433" y="-117.3" font-family="Times,serif" font-size="14.00">योग&#45;(8.1)</text>
</g>
<!-- Node8_1&#45;&gt;Node8_2 -->
<g id="edge8" class="edge">
<title>Node8_1&#45;&gt;Node8_2</title>
<path fill="none" stroke="black" d="M462.07,-143.12C482.8,-158.18 510.2,-178.09 528.87,-191.65"/>
<polygon fill="black" stroke="black" points="464.06,-140.24 453.92,-137.2 459.95,-145.91 464.06,-140.24"/>
<text text-anchor="middle" x="516" y="-160.8" font-family="Times,serif" font-size="14.00">समासः</text>
</g>
<!-- Node9_1 -->
<g id="node13" class="node">
<title>Node9_1</title>
<ellipse fill="#ffff00" stroke="#ffff00" cx="64" cy="-34" rx="49.29" ry="18"/>
<text text-anchor="middle" x="64" y="-30.3" font-family="Times,serif" font-size="14.00">महत्&#45;(9.1)</text>
</g>
<!-- Node9_1&#45;&gt;Node9_2 -->
<g id="edge10" class="edge">
<title>Node9_1&#45;&gt;Node9_2</title>
<path fill="none" stroke="black" d="M64,-62.27C64,-75.58 64,-91.19 64,-102.82"/>
<polygon fill="black" stroke="black" points="67.5,-62.2 64,-52.2 60.5,-62.2 67.5,-62.2"/>
<text text-anchor="middle" x="81" y="-73.8" font-family="Times,serif" font-size="14.00">समासः</text>
</g>
<!-- Node10_1 -->
<g id="node14" class="node">
<title>Node10_1</title>
<ellipse fill="#40e0d0" stroke="#40e0d0" cx="956" cy="-34" rx="59.29" ry="18"/>
<text text-anchor="middle" x="956" y="-30.3" font-family="Times,serif" font-size="14.00">व्यासेन(10.1)</text>
</g>
<!-- Node10_1&#45;&gt;Node11_1 -->
<g id="edge12" class="edge">
<title>Node10_1&#45;&gt;Node11_1</title>
<path fill="none" stroke="black" d="M929.05,-57.51C915.92,-67.38 899.43,-78.24 883,-85 840.54,-102.47 789.24,-111.25 750.35,-115.65"/>
<polygon fill="black" stroke="black" points="931.41,-60.11 937.17,-51.21 927.12,-54.58 931.41,-60.11"/>
<text text-anchor="middle" x="921" y="-73.8" font-family="Times,serif" font-size="14.00">कर्ता</text>
</g>
<!-- Node12_1 -->
<g id="node15" class="node">
<title>Node12_1</title>
<ellipse fill="#ff99ff" stroke="#ff99ff" cx="1084" cy="-34" rx="50.89" ry="18"/>
<text text-anchor="middle" x="1084" y="-30.3" font-family="Times,serif" font-size="14.00">यथा(12.1)</text>
</g>
<!-- Node12_1&#45;&gt;Node11_1 -->
<g id="edge14" class="edge">
<title>Node12_1&#45;&gt;Node11_1</title>
<path fill="none" stroke="black" d="M1042.09,-51.46C1012.78,-62.4 972.5,-76.3 936,-85 872.89,-100.03 798.99,-109.51 748.99,-114.75"/>
<polygon fill="black" stroke="black" points="1043.47,-54.68 1051.59,-47.88 1041,-48.14 1043.47,-54.68"/>
<text text-anchor="middle" x="1020" y="-73.8" font-family="Times,serif" font-size="14.00">क्रियाविशेषणम्</text>
</g>
</g>
</svg>
