<?xml version="1.0" encoding="UTF-8" standalone="no"?>
<!DOCTYPE svg PUBLIC "-//W3C//DTD SVG 1.1//EN"
 "http://www.w3.org/Graphics/SVG/1.1/DTD/svg11.dtd">
<!-- Generated by graphviz version 2.43.0 (0)
 -->
<!-- Title: G Pages: 1 -->
<svg width="726pt" height="392pt"
 viewBox="0.00 0.00 726.05 392.00" xmlns="http://www.w3.org/2000/svg" xmlns:xlink="http://www.w3.org/1999/xlink">
<g id="graph0" class="graph" transform="scale(1 1) rotate(0) translate(4 388)">
<title>G</title>
<polygon fill="#fffacd" stroke="transparent" points="-4,4 -4,-388 722.05,-388 722.05,4 -4,4"/>
<g id="clust1" class="cluster">
<title>cluster_1</title>
<polygon fill="#fffacd" stroke="black" points="466.05,-166 466.05,-305 710.05,-305 710.05,-166 466.05,-166"/>
</g>
<!-- Node1_3 -->
<g id="node1" class="node">
<title>Node1_3</title>
<ellipse fill="#00bfff" stroke="#00bfff" cx="530.05" cy="-192" rx="55.79" ry="18"/>
<text text-anchor="middle" x="530.05" y="-188.3" font-family="Times,serif" font-size="14.00">परीवारः(1.3)</text>
</g>
<!-- Node3_2 -->
<g id="node2" class="node">
<title>Node3_2</title>
<ellipse fill="#00bfff" stroke="#00bfff" cx="531.05" cy="-279" rx="57.39" ry="18"/>
<text text-anchor="middle" x="531.05" y="-275.3" font-family="Times,serif" font-size="14.00">पुरोहितः(3.2)</text>
</g>
<!-- Node1_3&#45;&gt;Node3_2 -->
<g id="edge3" class="edge">
<title>Node1_3&#45;&gt;Node3_2</title>
<path fill="none" stroke="black" d="M530.37,-220.27C530.52,-233.58 530.71,-249.19 530.84,-260.82"/>
<polygon fill="black" stroke="black" points="533.87,-220.16 530.25,-210.2 526.87,-220.24 533.87,-220.16"/>
<text text-anchor="middle" x="552.55" y="-231.8" font-family="Times,serif" font-size="14.00">विशेषणम्</text>
</g>
<!-- Node7_1 -->
<g id="node8" class="node">
<title>Node7_1</title>
<ellipse fill="#ff1975" stroke="#ff1975" cx="225.05" cy="-366" rx="53.89" ry="18"/>
<text text-anchor="middle" x="225.05" y="-362.3" font-family="Times,serif" font-size="14.00">(ददर्श)(7.1)</text>
</g>
<!-- Node3_2&#45;&gt;Node7_1 -->
<g id="edge7" class="edge">
<title>Node3_2&#45;&gt;Node7_1</title>
<path fill="none" stroke="black" d="M480.07,-294.16C419.69,-310.93 320.36,-338.52 265.17,-353.85"/>
<polygon fill="black" stroke="black" points="481.08,-297.51 489.78,-291.46 479.21,-290.77 481.08,-297.51"/>
<text text-anchor="middle" x="408.05" y="-318.8" font-family="Times,serif" font-size="14.00">कर्ता</text>
</g>
<!-- Node2_2 -->
<g id="node3" class="node">
<title>Node2_2</title>
<ellipse fill="#00bfff" stroke="#00bfff" cx="653.05" cy="-192" rx="48.99" ry="18"/>
<text text-anchor="middle" x="653.05" y="-188.3" font-family="Times,serif" font-size="14.00">भृत्यः(2.2)</text>
</g>
<!-- Node2_2&#45;&gt;Node3_2 -->
<g id="edge5" class="edge">
<title>Node2_2&#45;&gt;Node3_2</title>
<path fill="none" stroke="black" d="M622.79,-214.08C601.32,-229.04 572.97,-248.79 553.49,-262.36"/>
<polygon fill="black" stroke="black" points="625.03,-216.78 631.23,-208.2 621.03,-211.04 625.03,-216.78"/>
<text text-anchor="middle" x="621.55" y="-231.8" font-family="Times,serif" font-size="14.00">विशेषणम्</text>
</g>
<!-- Node1_1 -->
<g id="node4" class="node">
<title>Node1_1</title>
<ellipse fill="#ffff00" stroke="#ffff00" cx="530.05" cy="-18" rx="40.89" ry="18"/>
<text text-anchor="middle" x="530.05" y="-14.3" font-family="Times,serif" font-size="14.00">स&#45;(1.1)</text>
</g>
<!-- Node1_2 -->
<g id="node5" class="node">
<title>Node1_2</title>
<ellipse fill="#ffff00" stroke="#ffff00" cx="530.05" cy="-105" rx="59.59" ry="18"/>
<text text-anchor="middle" x="530.05" y="-101.3" font-family="Times,serif" font-size="14.00">अन्तःपुर&#45;(1.2)</text>
</g>
<!-- Node1_1&#45;&gt;Node1_2 -->
<g id="edge1" class="edge">
<title>Node1_1&#45;&gt;Node1_2</title>
<path fill="none" stroke="black" d="M530.05,-46.27C530.05,-59.58 530.05,-75.19 530.05,-86.82"/>
<polygon fill="black" stroke="black" points="533.55,-46.2 530.05,-36.2 526.55,-46.2 533.55,-46.2"/>
<text text-anchor="middle" x="547.05" y="-57.8" font-family="Times,serif" font-size="14.00">समासः</text>
</g>
<!-- Node1_2&#45;&gt;Node1_3 -->
<g id="edge2" class="edge">
<title>Node1_2&#45;&gt;Node1_3</title>
<path fill="none" stroke="black" d="M530.05,-133.27C530.05,-146.58 530.05,-162.19 530.05,-173.82"/>
<polygon fill="black" stroke="black" points="533.55,-133.2 530.05,-123.2 526.55,-133.2 533.55,-133.2"/>
<text text-anchor="middle" x="547.05" y="-144.8" font-family="Times,serif" font-size="14.00">समासः</text>
</g>
<!-- Node2_1 -->
<g id="node6" class="node">
<title>Node2_1</title>
<ellipse fill="#ffff00" stroke="#ffff00" cx="653.05" cy="-105" rx="40.89" ry="18"/>
<text text-anchor="middle" x="653.05" y="-101.3" font-family="Times,serif" font-size="14.00">स&#45;(2.1)</text>
</g>
<!-- Node2_1&#45;&gt;Node2_2 -->
<g id="edge4" class="edge">
<title>Node2_1&#45;&gt;Node2_2</title>
<path fill="none" stroke="black" d="M653.05,-133.27C653.05,-146.58 653.05,-162.19 653.05,-173.82"/>
<polygon fill="black" stroke="black" points="656.55,-133.2 653.05,-123.2 649.55,-133.2 656.55,-133.2"/>
<text text-anchor="middle" x="670.05" y="-144.8" font-family="Times,serif" font-size="14.00">समासः</text>
</g>
<!-- Node3_1 -->
<g id="node7" class="node">
<title>Node3_1</title>
<ellipse fill="#ffff00" stroke="#ffff00" cx="415.05" cy="-192" rx="40.89" ry="18"/>
<text text-anchor="middle" x="415.05" y="-188.3" font-family="Times,serif" font-size="14.00">स&#45;(3.1)</text>
</g>
<!-- Node3_1&#45;&gt;Node3_2 -->
<g id="edge6" class="edge">
<title>Node3_1&#45;&gt;Node3_2</title>
<path fill="none" stroke="black" d="M443.53,-213.87C463.91,-228.8 490.91,-248.59 509.5,-262.21"/>
<polygon fill="black" stroke="black" points="445.39,-210.89 435.25,-207.81 441.25,-216.54 445.39,-210.89"/>
<text text-anchor="middle" x="496.05" y="-231.8" font-family="Times,serif" font-size="14.00">समासः</text>
</g>
<!-- Node4_1 -->
<g id="node9" class="node">
<title>Node4_1</title>
<ellipse fill="#ffff00" stroke="#ffff00" cx="50.05" cy="-192" rx="48.19" ry="18"/>
<text text-anchor="middle" x="50.05" y="-188.3" font-family="Times,serif" font-size="14.00">यथा&#45;(4.1)</text>
</g>
<!-- Node4_2 -->
<g id="node10" class="node">
<title>Node4_2</title>
<ellipse fill="#ff99ff" stroke="#ff99ff" cx="50.05" cy="-279" rx="50.09" ry="18"/>
<text text-anchor="middle" x="50.05" y="-275.3" font-family="Times,serif" font-size="14.00">सुखम्(4.2)</text>
</g>
<!-- Node4_1&#45;&gt;Node4_2 -->
<g id="edge8" class="edge">
<title>Node4_1&#45;&gt;Node4_2</title>
<path fill="none" stroke="black" d="M50.05,-220.27C50.05,-233.58 50.05,-249.19 50.05,-260.82"/>
<polygon fill="black" stroke="black" points="53.55,-220.2 50.05,-210.2 46.55,-220.2 53.55,-220.2"/>
<text text-anchor="middle" x="67.05" y="-231.8" font-family="Times,serif" font-size="14.00">समासः</text>
</g>
<!-- Node4_2&#45;&gt;Node7_1 -->
<g id="edge9" class="edge">
<title>Node4_2&#45;&gt;Node7_1</title>
<path fill="none" stroke="black" d="M75.79,-302.34C87.73,-311.85 102.49,-322.47 117.05,-330 137.7,-340.68 162.26,-348.95 182.74,-354.77"/>
<polygon fill="black" stroke="black" points="77.97,-299.6 68.01,-295.98 73.54,-305.02 77.97,-299.6"/>
<text text-anchor="middle" x="152.05" y="-318.8" font-family="Times,serif" font-size="14.00">क्रियाविशेषणम्</text>
</g>
<!-- Node5_1 -->
<g id="node11" class="node">
<title>Node5_1</title>
<ellipse fill="#ffff00" stroke="#ffff00" cx="169.05" cy="-192" rx="48.19" ry="18"/>
<text text-anchor="middle" x="169.05" y="-188.3" font-family="Times,serif" font-size="14.00">यथा&#45;(5.1)</text>
</g>
<!-- Node5_2 -->
<g id="node12" class="node">
<title>Node5_2</title>
<ellipse fill="#ff99ff" stroke="#ff99ff" cx="169.05" cy="-279" rx="51.19" ry="18"/>
<text text-anchor="middle" x="169.05" y="-275.3" font-family="Times,serif" font-size="14.00">उद्देशम्(5.2)</text>
</g>
<!-- Node5_1&#45;&gt;Node5_2 -->
<g id="edge10" class="edge">
<title>Node5_1&#45;&gt;Node5_2</title>
<path fill="none" stroke="black" d="M169.05,-220.27C169.05,-233.58 169.05,-249.19 169.05,-260.82"/>
<polygon fill="black" stroke="black" points="172.55,-220.2 169.05,-210.2 165.55,-220.2 172.55,-220.2"/>
<text text-anchor="middle" x="186.05" y="-231.8" font-family="Times,serif" font-size="14.00">समासः</text>
</g>
<!-- Node5_2&#45;&gt;Node7_1 -->
<g id="edge11" class="edge">
<title>Node5_2&#45;&gt;Node7_1</title>
<path fill="none" stroke="black" d="M184.34,-305.38C189.25,-313.33 194.78,-322.09 200.05,-330 204.1,-336.09 208.72,-342.65 212.87,-348.42"/>
<polygon fill="black" stroke="black" points="187.32,-303.54 179.11,-296.84 181.35,-307.2 187.32,-303.54"/>
<text text-anchor="middle" x="235.05" y="-318.8" font-family="Times,serif" font-size="14.00">क्रियाविशेषणम्</text>
</g>
<!-- Node6_1 -->
<g id="node13" class="node">
<title>Node6_1</title>
<ellipse fill="#ffff00" stroke="#ffff00" cx="298.05" cy="-192" rx="58.49" ry="18"/>
<text text-anchor="middle" x="298.05" y="-188.3" font-family="Times,serif" font-size="14.00">धृतराष्ट्र&#45;(6.1)</text>
</g>
<!-- Node6_2 -->
<g id="node14" class="node">
<title>Node6_2</title>
<ellipse fill="#40e0d0" stroke="#40e0d0" cx="303.05" cy="-279" rx="64.99" ry="18"/>
<text text-anchor="middle" x="303.05" y="-275.3" font-family="Times,serif" font-size="14.00">अभ्यनुज्ञया(6.2)</text>
</g>
<!-- Node6_1&#45;&gt;Node6_2 -->
<g id="edge12" class="edge">
<title>Node6_1&#45;&gt;Node6_2</title>
<path fill="none" stroke="black" d="M299.65,-220.27C300.43,-233.58 301.35,-249.19 302.04,-260.82"/>
<polygon fill="black" stroke="black" points="303.14,-219.98 299.06,-210.2 296.15,-220.39 303.14,-219.98"/>
<text text-anchor="middle" x="318.05" y="-231.8" font-family="Times,serif" font-size="14.00">समासः</text>
</g>
<!-- Node6_2&#45;&gt;Node7_1 -->
<g id="edge13" class="edge">
<title>Node6_2&#45;&gt;Node7_1</title>
<path fill="none" stroke="black" d="M288.35,-305.73C283.09,-313.91 276.79,-322.71 270.05,-330 263.46,-337.12 255.32,-343.92 247.78,-349.6"/>
<polygon fill="black" stroke="black" points="291.33,-307.55 293.61,-297.2 285.38,-303.87 291.33,-307.55"/>
<text text-anchor="middle" x="291.55" y="-318.8" font-family="Times,serif" font-size="14.00">हेतुः</text>
</g>
</g>
</svg>
