<?xml version="1.0" encoding="UTF-8" standalone="no"?>
<!DOCTYPE svg PUBLIC "-//W3C//DTD SVG 1.1//EN"
 "http://www.w3.org/Graphics/SVG/1.1/DTD/svg11.dtd">
<!-- Generated by graphviz version 2.43.0 (0)
 -->
<!-- Title: G Pages: 1 -->
<svg width="416pt" height="408pt"
 viewBox="0.00 0.00 416.00 408.00" xmlns="http://www.w3.org/2000/svg" xmlns:xlink="http://www.w3.org/1999/xlink">
<g id="graph0" class="graph" transform="scale(1 1) rotate(0) translate(4 404)">
<title>G</title>
<polygon fill="#fffacd" stroke="transparent" points="-4,4 -4,-404 412,-404 412,4 -4,4"/>
<g id="clust1" class="cluster">
<title>cluster_1</title>
<polygon fill="#fffacd" stroke="black" points="162,-182 162,-321 400,-321 400,-182 162,-182"/>
</g>
<g id="clust2" class="cluster">
<title>cluster_2</title>
<polygon fill="#fffacd" stroke="black" points="8,-8 8,-147 148,-147 148,-8 8,-8"/>
</g>
<!-- Node1_1 -->
<g id="node1" class="node">
<title>Node1_1</title>
<ellipse fill="#00bfff" stroke="#00bfff" cx="334" cy="-208" rx="57.69" ry="18"/>
<text text-anchor="middle" x="334" y="-204.3" font-family="Times,serif" font-size="14.00">समागतः(1.1)</text>
</g>
<!-- Node3_1 -->
<g id="node2" class="node">
<title>Node3_1</title>
<ellipse fill="#00bfff" stroke="#00bfff" cx="221" cy="-295" rx="50.89" ry="18"/>
<text text-anchor="middle" x="221" y="-291.3" font-family="Times,serif" font-size="14.00">व्यासः(3.1)</text>
</g>
<!-- Node1_1&#45;&gt;Node3_1 -->
<g id="edge1" class="edge">
<title>Node1_1&#45;&gt;Node3_1</title>
<path fill="none" stroke="black" d="M304.96,-230.85C285.23,-245.68 259.6,-264.96 241.88,-278.3"/>
<polygon fill="black" stroke="black" points="307.12,-233.6 313.01,-224.79 302.91,-228 307.12,-233.6"/>
<text text-anchor="middle" x="306.5" y="-247.8" font-family="Times,serif" font-size="14.00">विशेषणम्</text>
</g>
<!-- Node10_1 -->
<g id="node7" class="node">
<title>Node10_1</title>
<ellipse fill="#ff1975" stroke="#ff1975" cx="159" cy="-382" rx="62.29" ry="18"/>
<text text-anchor="middle" x="159" y="-378.3" font-family="Times,serif" font-size="14.00">अभाषत(10.1)</text>
</g>
<!-- Node3_1&#45;&gt;Node10_1 -->
<g id="edge3" class="edge">
<title>Node3_1&#45;&gt;Node10_1</title>
<path fill="none" stroke="black" d="M202.76,-321.01C192.6,-334.94 180.22,-351.91 171.22,-364.24"/>
<polygon fill="black" stroke="black" points="205.69,-322.93 208.75,-312.79 200.03,-318.81 205.69,-322.93"/>
<text text-anchor="middle" x="204" y="-334.8" font-family="Times,serif" font-size="14.00">कर्ता</text>
</g>
<!-- Node5_1 -->
<g id="node3" class="node">
<title>Node5_1</title>
<ellipse fill="#00bfff" stroke="#00bfff" cx="214" cy="-208" rx="44.39" ry="18"/>
<text text-anchor="middle" x="214" y="-204.3" font-family="Times,serif" font-size="14.00">वृतः(5.1)</text>
</g>
<!-- Node5_1&#45;&gt;Node3_1 -->
<g id="edge6" class="edge">
<title>Node5_1&#45;&gt;Node3_1</title>
<path fill="none" stroke="black" d="M216.25,-236.27C217.34,-249.58 218.63,-265.19 219.59,-276.82"/>
<polygon fill="black" stroke="black" points="219.73,-235.88 215.42,-226.2 212.75,-236.45 219.73,-235.88"/>
<text text-anchor="middle" x="239.5" y="-247.8" font-family="Times,serif" font-size="14.00">विशेषणम्</text>
</g>
<!-- Node7_1 -->
<g id="node4" class="node">
<title>Node7_1</title>
<ellipse fill="#93db70" stroke="#93db70" cx="78" cy="-34" rx="61.99" ry="18"/>
<text text-anchor="middle" x="78" y="-30.3" font-family="Times,serif" font-size="14.00">महीपालम्(7.1)</text>
</g>
<!-- Node6_1 -->
<g id="node5" class="node">
<title>Node6_1</title>
<ellipse fill="#93db70" stroke="#93db70" cx="78" cy="-121" rx="60.39" ry="18"/>
<text text-anchor="middle" x="78" y="-117.3" font-family="Times,serif" font-size="14.00">धृतराष्ट्रम्(6.1)</text>
</g>
<!-- Node7_1&#45;&gt;Node6_1 -->
<g id="edge8" class="edge">
<title>Node7_1&#45;&gt;Node6_1</title>
<path fill="none" stroke="black" d="M78,-62.27C78,-75.58 78,-91.19 78,-102.82"/>
<polygon fill="black" stroke="black" points="81.5,-62.2 78,-52.2 74.5,-62.2 81.5,-62.2"/>
<text text-anchor="middle" x="100.5" y="-73.8" font-family="Times,serif" font-size="14.00">विशेषणम्</text>
</g>
<!-- Node6_1&#45;&gt;Node5_1 -->
<g id="edge7" class="edge">
<title>Node6_1&#45;&gt;Node5_1</title>
<path fill="none" stroke="black" d="M111.59,-142.99C136.13,-158.33 168.8,-178.75 190.58,-192.36"/>
<polygon fill="black" stroke="black" points="113.28,-139.92 102.94,-137.59 109.57,-145.86 113.28,-139.92"/>
<text text-anchor="middle" x="163" y="-160.8" font-family="Times,serif" font-size="14.00">कर्म</text>
</g>
<!-- Node2_1 -->
<g id="node6" class="node">
<title>Node2_1</title>
<ellipse fill="#ff99ff" stroke="#ff99ff" cx="334" cy="-121" rx="44.39" ry="18"/>
<text text-anchor="middle" x="334" y="-117.3" font-family="Times,serif" font-size="14.00">ततः(2.1)</text>
</g>
<!-- Node2_1&#45;&gt;Node1_1 -->
<g id="edge2" class="edge">
<title>Node2_1&#45;&gt;Node1_1</title>
<path fill="none" stroke="black" d="M334,-149.27C334,-162.58 334,-178.19 334,-189.82"/>
<polygon fill="black" stroke="black" points="337.5,-149.2 334,-139.2 330.5,-149.2 337.5,-149.2"/>
<text text-anchor="middle" x="352.5" y="-160.8" font-family="Times,serif" font-size="14.00">सम्बन्धः</text>
</g>
<!-- Node4_1 -->
<g id="node8" class="node">
<title>Node4_1</title>
<ellipse fill="#ffff00" stroke="#ffff00" cx="214" cy="-34" rx="55.79" ry="18"/>
<text text-anchor="middle" x="214" y="-30.3" font-family="Times,serif" font-size="14.00">शतयूप&#45;(4.1)</text>
</g>
<!-- Node4_2 -->
<g id="node9" class="node">
<title>Node4_2</title>
<ellipse fill="#40e0d0" stroke="#40e0d0" cx="214" cy="-121" rx="57.69" ry="18"/>
<text text-anchor="middle" x="214" y="-117.3" font-family="Times,serif" font-size="14.00">आदिभिः(4.2)</text>
</g>
<!-- Node4_1&#45;&gt;Node4_2 -->
<g id="edge4" class="edge">
<title>Node4_1&#45;&gt;Node4_2</title>
<path fill="none" stroke="black" d="M214,-62.27C214,-75.58 214,-91.19 214,-102.82"/>
<polygon fill="black" stroke="black" points="217.5,-62.2 214,-52.2 210.5,-62.2 217.5,-62.2"/>
<text text-anchor="middle" x="231" y="-73.8" font-family="Times,serif" font-size="14.00">समासः</text>
</g>
<!-- Node4_2&#45;&gt;Node5_1 -->
<g id="edge5" class="edge">
<title>Node4_2&#45;&gt;Node5_1</title>
<path fill="none" stroke="black" d="M214,-149.27C214,-162.58 214,-178.19 214,-189.82"/>
<polygon fill="black" stroke="black" points="217.5,-149.2 214,-139.2 210.5,-149.2 217.5,-149.2"/>
<text text-anchor="middle" x="225" y="-160.8" font-family="Times,serif" font-size="14.00">कर्ता</text>
</g>
<!-- Node8_1 -->
<g id="node10" class="node">
<title>Node8_1</title>
<ellipse fill="#ff1975" stroke="#ff1975" cx="90" cy="-208" rx="61.99" ry="18"/>
<text text-anchor="middle" x="90" y="-204.3" font-family="Times,serif" font-size="14.00">आस्यताम्(8.1)</text>
</g>
<!-- Node9_1 -->
<g id="node11" class="node">
<title>Node9_1</title>
<ellipse fill="#ff99ff" stroke="#ff99ff" cx="99" cy="-295" rx="44.39" ry="18"/>
<text text-anchor="middle" x="99" y="-291.3" font-family="Times,serif" font-size="14.00">इति(9.1)</text>
</g>
<!-- Node8_1&#45;&gt;Node9_1 -->
<g id="edge9" class="edge">
<title>Node8_1&#45;&gt;Node9_1</title>
<path fill="none" stroke="black" d="M92.89,-236.27C94.3,-249.58 95.95,-265.19 97.18,-276.82"/>
<polygon fill="black" stroke="black" points="96.35,-235.78 91.82,-226.2 89.39,-236.51 96.35,-235.78"/>
<text text-anchor="middle" x="117" y="-247.8" font-family="Times,serif" font-size="14.00">प्रतियोगी</text>
</g>
<!-- Node9_1&#45;&gt;Node10_1 -->
<g id="edge10" class="edge">
<title>Node9_1&#45;&gt;Node10_1</title>
<path fill="none" stroke="black" d="M116.36,-320.6C126.21,-334.54 138.28,-351.64 147.06,-364.08"/>
<polygon fill="black" stroke="black" points="119.19,-318.54 110.57,-312.39 113.48,-322.58 119.19,-318.54"/>
<text text-anchor="middle" x="152" y="-334.8" font-family="Times,serif" font-size="14.00">अनुयोगी</text>
</g>
</g>
</svg>
