<?xml version="1.0" encoding="UTF-8" standalone="no"?>
<!DOCTYPE svg PUBLIC "-//W3C//DTD SVG 1.1//EN"
 "http://www.w3.org/Graphics/SVG/1.1/DTD/svg11.dtd">
<!-- Generated by graphviz version 2.43.0 (0)
 -->
<!-- Title: G Pages: 1 -->
<svg width="728pt" height="479pt"
 viewBox="0.00 0.00 728.00 479.00" xmlns="http://www.w3.org/2000/svg" xmlns:xlink="http://www.w3.org/1999/xlink">
<g id="graph0" class="graph" transform="scale(1 1) rotate(0) translate(4 475)">
<title>G</title>
<polygon fill="#fffacd" stroke="transparent" points="-4,4 -4,-475 724,-475 724,4 -4,4"/>
<g id="clust1" class="cluster">
<title>cluster_1</title>
<polygon fill="#fffacd" stroke="black" points="365,-79 365,-218 712,-218 712,-79 365,-79"/>
</g>
<g id="clust2" class="cluster">
<title>cluster_2</title>
<polygon fill="#fffacd" stroke="black" points="256,-253 256,-392 384,-392 384,-253 256,-253"/>
</g>
<g id="clust3" class="cluster">
<title>cluster_3</title>
<polygon fill="#fffacd" stroke="black" points="8,-166 8,-305 233,-305 233,-166 8,-166"/>
</g>
<!-- Node2_1 -->
<g id="node1" class="node">
<title>Node2_1</title>
<ellipse fill="#00bfff" stroke="#00bfff" cx="664" cy="-105" rx="40.09" ry="18"/>
<text text-anchor="middle" x="664" y="-101.3" font-family="Times,serif" font-size="14.00">सः(2.1)</text>
</g>
<!-- Node3_1 -->
<g id="node2" class="node">
<title>Node3_1</title>
<ellipse fill="#00bfff" stroke="#00bfff" cx="426" cy="-192" rx="46.29" ry="18"/>
<text text-anchor="middle" x="426" y="-188.3" font-family="Times,serif" font-size="14.00">राजा(3.1)</text>
</g>
<!-- Node2_1&#45;&gt;Node3_1 -->
<g id="edge2" class="edge">
<title>Node2_1&#45;&gt;Node3_1</title>
<path fill="none" stroke="black" d="M627.42,-122.44C603.85,-132.73 572.41,-145.9 544,-156 517.22,-165.52 486.42,-174.59 463,-181.12"/>
<polygon fill="black" stroke="black" points="628.94,-125.59 636.68,-118.36 626.12,-119.18 628.94,-125.59"/>
<text text-anchor="middle" x="602.5" y="-144.8" font-family="Times,serif" font-size="14.00">विशेषणम्</text>
</g>
<!-- Node5_1 -->
<g id="node5" class="node">
<title>Node5_1</title>
<ellipse fill="#ff99ff" stroke="#ff99ff" cx="320" cy="-279" rx="51.19" ry="18"/>
<text text-anchor="middle" x="320" y="-275.3" font-family="Times,serif" font-size="14.00">परीत्य(5.1)</text>
</g>
<!-- Node3_1&#45;&gt;Node5_1 -->
<g id="edge4" class="edge">
<title>Node3_1&#45;&gt;Node5_1</title>
<path fill="none" stroke="black" stroke-dasharray="1,5" d="M398.1,-215.14C392.75,-219.4 387.2,-223.84 382,-228 367.75,-239.41 351.71,-252.35 339.52,-262.2"/>
<polygon fill="black" stroke="black" points="400.62,-217.62 406.26,-208.65 396.26,-212.14 400.62,-217.62"/>
<text text-anchor="middle" x="393" y="-231.8" font-family="Times,serif" font-size="14.00">कर्ता</text>
</g>
<!-- Node12_1 -->
<g id="node11" class="node">
<title>Node12_1</title>
<ellipse fill="#ff1975" stroke="#ff1975" cx="258" cy="-453" rx="58.49" ry="18"/>
<text text-anchor="middle" x="258" y="-449.3" font-family="Times,serif" font-size="14.00">आयात्(12.1)</text>
</g>
<!-- Node3_1&#45;&gt;Node12_1 -->
<g id="edge3" class="edge">
<title>Node3_1&#45;&gt;Node12_1</title>
<path fill="none" stroke="black" d="M427.99,-220.33C429.55,-261.72 426.68,-340.9 388,-392 367.97,-418.46 333.48,-433.64 305.06,-442.11"/>
<polygon fill="black" stroke="black" points="431.48,-220 427.49,-210.18 424.49,-220.34 431.48,-220"/>
<text text-anchor="middle" x="432" y="-318.8" font-family="Times,serif" font-size="14.00">कर्ता</text>
</g>
<!-- Node4_1 -->
<g id="node3" class="node">
<title>Node4_1</title>
<ellipse fill="#00bfff" stroke="#00bfff" cx="551" cy="-105" rx="54.69" ry="18"/>
<text text-anchor="middle" x="551" y="-101.3" font-family="Times,serif" font-size="14.00">धर्मात्मा(4.1)</text>
</g>
<!-- Node4_1&#45;&gt;Node3_1 -->
<g id="edge5" class="edge">
<title>Node4_1&#45;&gt;Node3_1</title>
<path fill="none" stroke="black" d="M519.89,-127.16C497.55,-142.35 467.99,-162.45 448.05,-176.01"/>
<polygon fill="black" stroke="black" points="522.06,-129.91 528.36,-121.39 518.13,-124.12 522.06,-129.91"/>
<text text-anchor="middle" x="517.5" y="-144.8" font-family="Times,serif" font-size="14.00">विशेषणम्</text>
</g>
<!-- Node13_2 -->
<g id="node4" class="node">
<title>Node13_2</title>
<ellipse fill="#00bfff" stroke="#00bfff" cx="426" cy="-105" rx="52.79" ry="18"/>
<text text-anchor="middle" x="426" y="-101.3" font-family="Times,serif" font-size="14.00">पतिः(13.2)</text>
</g>
<!-- Node13_2&#45;&gt;Node3_1 -->
<g id="edge15" class="edge">
<title>Node13_2&#45;&gt;Node3_1</title>
<path fill="none" stroke="black" d="M426,-133.27C426,-146.58 426,-162.19 426,-173.82"/>
<polygon fill="black" stroke="black" points="429.5,-133.2 426,-123.2 422.5,-133.2 429.5,-133.2"/>
<text text-anchor="middle" x="448.5" y="-144.8" font-family="Times,serif" font-size="14.00">विशेषणम्</text>
</g>
<!-- Node8_1 -->
<g id="node6" class="node">
<title>Node8_1</title>
<ellipse fill="#ff99ff" stroke="#ff99ff" cx="320" cy="-366" rx="55.79" ry="18"/>
<text text-anchor="middle" x="320" y="-362.3" font-family="Times,serif" font-size="14.00">विश्राण्य(8.1)</text>
</g>
<!-- Node5_1&#45;&gt;Node8_1 -->
<g id="edge6" class="edge">
<title>Node5_1&#45;&gt;Node8_1</title>
<path fill="none" stroke="black" d="M320,-307.27C320,-320.58 320,-336.19 320,-347.82"/>
<polygon fill="black" stroke="black" points="323.5,-307.2 320,-297.2 316.5,-307.2 323.5,-307.2"/>
<text text-anchor="middle" x="342.5" y="-318.8" font-family="Times,serif" font-size="14.00">समुच्चितः</text>
</g>
<!-- Node8_1&#45;&gt;Node12_1 -->
<g id="edge10" class="edge">
<title>Node8_1&#45;&gt;Node12_1</title>
<path fill="none" stroke="black" d="M301.76,-392.01C291.6,-405.94 279.22,-422.91 270.22,-435.24"/>
<polygon fill="black" stroke="black" points="304.69,-393.93 307.75,-383.79 299.03,-389.81 304.69,-393.93"/>
<text text-anchor="middle" x="313.5" y="-405.8" font-family="Times,serif" font-size="14.00">पूर्वकालः</text>
</g>
<!-- Node9_1 -->
<g id="node7" class="node">
<title>Node9_1</title>
<ellipse fill="#93db70" stroke="#93db70" cx="183" cy="-192" rx="42.49" ry="18"/>
<text text-anchor="middle" x="183" y="-188.3" font-family="Times,serif" font-size="14.00">तत्(9.1)</text>
</g>
<!-- Node7_1 -->
<g id="node8" class="node">
<title>Node7_1</title>
<ellipse fill="#93db70" stroke="#93db70" cx="180" cy="-279" rx="42.49" ry="18"/>
<text text-anchor="middle" x="180" y="-275.3" font-family="Times,serif" font-size="14.00">वसु(7.1)</text>
</g>
<!-- Node9_1&#45;&gt;Node7_1 -->
<g id="edge11" class="edge">
<title>Node9_1&#45;&gt;Node7_1</title>
<path fill="none" stroke="black" d="M182.04,-220.27C181.57,-233.58 181.02,-249.19 180.61,-260.82"/>
<polygon fill="black" stroke="black" points="185.54,-220.32 182.39,-210.2 178.54,-220.07 185.54,-220.32"/>
<text text-anchor="middle" x="204.5" y="-231.8" font-family="Times,serif" font-size="14.00">विशेषणम्</text>
</g>
<!-- Node7_1&#45;&gt;Node8_1 -->
<g id="edge9" class="edge">
<title>Node7_1&#45;&gt;Node8_1</title>
<path fill="none" stroke="black" d="M212.26,-299.58C237.46,-314.88 271.97,-335.84 295.07,-349.87"/>
<polygon fill="black" stroke="black" points="213.8,-296.43 203.43,-294.23 210.16,-302.41 213.8,-296.43"/>
<text text-anchor="middle" x="268" y="-318.8" font-family="Times,serif" font-size="14.00">कर्म</text>
</g>
<!-- Node10_1 -->
<g id="node9" class="node">
<title>Node10_1</title>
<ellipse fill="#93db70" stroke="#93db70" cx="69" cy="-192" rx="53.09" ry="18"/>
<text text-anchor="middle" x="69" y="-188.3" font-family="Times,serif" font-size="14.00">सर्वम्(10.1)</text>
</g>
<!-- Node10_1&#45;&gt;Node7_1 -->
<g id="edge12" class="edge">
<title>Node10_1&#45;&gt;Node7_1</title>
<path fill="none" stroke="black" d="M97.19,-215.25C108.3,-223.96 121.21,-234 133,-243 141.74,-249.66 151.47,-256.93 159.8,-263.11"/>
<polygon fill="black" stroke="black" points="99.11,-212.31 89.08,-208.88 94.79,-217.81 99.11,-212.31"/>
<text text-anchor="middle" x="155.5" y="-231.8" font-family="Times,serif" font-size="14.00">विशेषणम्</text>
</g>
<!-- Node1_1 -->
<g id="node10" class="node">
<title>Node1_1</title>
<ellipse fill="#ff99ff" stroke="#ff99ff" cx="82" cy="-366" rx="46.29" ry="18"/>
<text text-anchor="middle" x="82" y="-362.3" font-family="Times,serif" font-size="14.00">एवम्(1.1)</text>
</g>
<!-- Node1_1&#45;&gt;Node12_1 -->
<g id="edge1" class="edge">
<title>Node1_1&#45;&gt;Node12_1</title>
<path fill="none" stroke="black" d="M101.15,-391.46C109.45,-400.63 119.82,-410.42 131,-417 154.06,-430.58 182.57,-439.06 206.73,-444.26"/>
<polygon fill="black" stroke="black" points="103.6,-388.94 94.42,-383.65 98.3,-393.51 103.6,-388.94"/>
<text text-anchor="middle" x="166" y="-405.8" font-family="Times,serif" font-size="14.00">क्रियाविशेषणम्</text>
</g>
<!-- Node6_1 -->
<g id="node12" class="node">
<title>Node6_1</title>
<ellipse fill="#ffff00" stroke="#ffff00" cx="300" cy="-105" rx="53.89" ry="18"/>
<text text-anchor="middle" x="300" y="-101.3" font-family="Times,serif" font-size="14.00">आश्रम&#45;(6.1)</text>
</g>
<!-- Node6_2 -->
<g id="node13" class="node">
<title>Node6_2</title>
<ellipse fill="#93db70" stroke="#93db70" cx="300" cy="-192" rx="56.59" ry="18"/>
<text text-anchor="middle" x="300" y="-188.3" font-family="Times,serif" font-size="14.00">मण्डलम्(6.2)</text>
</g>
<!-- Node6_1&#45;&gt;Node6_2 -->
<g id="edge7" class="edge">
<title>Node6_1&#45;&gt;Node6_2</title>
<path fill="none" stroke="black" d="M300,-133.27C300,-146.58 300,-162.19 300,-173.82"/>
<polygon fill="black" stroke="black" points="303.5,-133.2 300,-123.2 296.5,-133.2 303.5,-133.2"/>
<text text-anchor="middle" x="317" y="-144.8" font-family="Times,serif" font-size="14.00">समासः</text>
</g>
<!-- Node6_2&#45;&gt;Node5_1 -->
<g id="edge8" class="edge">
<title>Node6_2&#45;&gt;Node5_1</title>
<path fill="none" stroke="black" d="M306.42,-220.27C309.55,-233.58 313.22,-249.19 315.96,-260.82"/>
<polygon fill="black" stroke="black" points="309.74,-219.13 304.05,-210.2 302.93,-220.74 309.74,-219.13"/>
<text text-anchor="middle" x="321" y="-231.8" font-family="Times,serif" font-size="14.00">कर्म</text>
</g>
<!-- Node11_1 -->
<g id="node14" class="node">
<title>Node11_1</title>
<ellipse fill="#ff99ff" stroke="#ff99ff" cx="196" cy="-366" rx="50.09" ry="18"/>
<text text-anchor="middle" x="196" y="-362.3" font-family="Times,serif" font-size="14.00">पुनः(11.1)</text>
</g>
<!-- Node11_1&#45;&gt;Node12_1 -->
<g id="edge13" class="edge">
<title>Node11_1&#45;&gt;Node12_1</title>
<path fill="none" stroke="black" d="M201.46,-394.25C203.86,-402.06 207.25,-410.27 212,-417 217.33,-424.54 224.77,-431.18 232.11,-436.6"/>
<polygon fill="black" stroke="black" points="204.79,-393.15 198.84,-384.38 198.02,-394.94 204.79,-393.15"/>
<text text-anchor="middle" x="247" y="-405.8" font-family="Times,serif" font-size="14.00">क्रियाविशेषणम्</text>
</g>
<!-- Node13_1 -->
<g id="node15" class="node">
<title>Node13_1</title>
<ellipse fill="#ffff00" stroke="#ffff00" cx="426" cy="-18" rx="52.79" ry="18"/>
<text text-anchor="middle" x="426" y="-14.3" font-family="Times,serif" font-size="14.00">मही&#45;(13.1)</text>
</g>
<!-- Node13_1&#45;&gt;Node13_2 -->
<g id="edge14" class="edge">
<title>Node13_1&#45;&gt;Node13_2</title>
<path fill="none" stroke="black" d="M426,-46.27C426,-59.58 426,-75.19 426,-86.82"/>
<polygon fill="black" stroke="black" points="429.5,-46.2 426,-36.2 422.5,-46.2 429.5,-46.2"/>
<text text-anchor="middle" x="443" y="-57.8" font-family="Times,serif" font-size="14.00">समासः</text>
</g>
</g>
</svg>
