<?xml version="1.0" encoding="UTF-8" standalone="no"?>
<!DOCTYPE svg PUBLIC "-//W3C//DTD SVG 1.1//EN"
 "http://www.w3.org/Graphics/SVG/1.1/DTD/svg11.dtd">
<!-- Generated by graphviz version 2.43.0 (0)
 -->
<!-- Title: G Pages: 1 -->
<svg width="740pt" height="305pt"
 viewBox="0.00 0.00 740.00 305.00" xmlns="http://www.w3.org/2000/svg" xmlns:xlink="http://www.w3.org/1999/xlink">
<g id="graph0" class="graph" transform="scale(1 1) rotate(0) translate(4 301)">
<title>G</title>
<polygon fill="#fffacd" stroke="transparent" points="-4,4 -4,-301 736,-301 736,4 -4,4"/>
<g id="clust1" class="cluster">
<title>cluster_1</title>
<polygon fill="#fffacd" stroke="black" points="246,-79 246,-218 724,-218 724,-79 246,-79"/>
</g>
<!-- Node1_1 -->
<g id="node1" class="node">
<title>Node1_1</title>
<ellipse fill="#00bfff" stroke="#00bfff" cx="291" cy="-105" rx="37.09" ry="18"/>
<text text-anchor="middle" x="291" y="-101.3" font-family="Times,serif" font-size="14.00">ते(1.1)</text>
</g>
<!-- Node4_2 -->
<g id="node2" class="node">
<title>Node4_2</title>
<ellipse fill="#00bfff" stroke="#00bfff" cx="331" cy="-192" rx="48.19" ry="18"/>
<text text-anchor="middle" x="331" y="-188.3" font-family="Times,serif" font-size="14.00">श्रेष्ठाः(4.2)</text>
</g>
<!-- Node1_1&#45;&gt;Node4_2 -->
<g id="edge1" class="edge">
<title>Node1_1&#45;&gt;Node4_2</title>
<path fill="none" stroke="black" d="M303.32,-132.2C309.77,-145.9 317.47,-162.26 323.11,-174.24"/>
<polygon fill="black" stroke="black" points="306.32,-130.35 298.9,-122.79 299.99,-133.33 306.32,-130.35"/>
<text text-anchor="middle" x="335.5" y="-144.8" font-family="Times,serif" font-size="14.00">विशेषणम्</text>
</g>
<!-- Node8_1 -->
<g id="node8" class="node">
<title>Node8_1</title>
<ellipse fill="#ff1975" stroke="#ff1975" cx="180" cy="-279" rx="51.19" ry="18"/>
<text text-anchor="middle" x="180" y="-275.3" font-family="Times,serif" font-size="14.00">निषेदुः(8.1)</text>
</g>
<!-- Node4_2&#45;&gt;Node8_1 -->
<g id="edge5" class="edge">
<title>Node4_2&#45;&gt;Node8_1</title>
<path fill="none" stroke="black" d="M300.95,-213.85C286.95,-223.21 269.9,-234.13 254,-243 240.22,-250.69 224.48,-258.29 211.06,-264.43"/>
<polygon fill="black" stroke="black" points="302.92,-216.74 309.24,-208.25 299,-210.94 302.92,-216.74"/>
<text text-anchor="middle" x="288" y="-231.8" font-family="Times,serif" font-size="14.00">कर्ता</text>
</g>
<!-- Node3_1 -->
<g id="node3" class="node">
<title>Node3_1</title>
<ellipse fill="#00bfff" stroke="#00bfff" cx="546" cy="-105" rx="42.49" ry="18"/>
<text text-anchor="middle" x="546" y="-101.3" font-family="Times,serif" font-size="14.00">सर्वे(3.1)</text>
</g>
<!-- Node3_1&#45;&gt;Node4_2 -->
<g id="edge3" class="edge">
<title>Node3_1&#45;&gt;Node4_2</title>
<path fill="none" stroke="black" d="M508.11,-122.47C484.83,-132.45 454.32,-145.29 427,-156 406.52,-164.03 383.35,-172.49 364.91,-179.08"/>
<polygon fill="black" stroke="black" points="509.5,-125.68 517.3,-118.51 506.73,-119.25 509.5,-125.68"/>
<text text-anchor="middle" x="485.5" y="-144.8" font-family="Times,serif" font-size="14.00">विशेषणम्</text>
</g>
<!-- Node7_2 -->
<g id="node4" class="node">
<title>Node7_2</title>
<ellipse fill="#00bfff" stroke="#00bfff" cx="416" cy="-105" rx="69.59" ry="18"/>
<text text-anchor="middle" x="416" y="-101.3" font-family="Times,serif" font-size="14.00">अभ्यनुज्ञाताः(7.2)</text>
</g>
<!-- Node7_2&#45;&gt;Node4_2 -->
<g id="edge9" class="edge">
<title>Node7_2&#45;&gt;Node4_2</title>
<path fill="none" stroke="black" d="M392.07,-129.93C377.72,-144.27 359.87,-162.13 347.18,-174.82"/>
<polygon fill="black" stroke="black" points="394.61,-132.34 399.2,-122.79 389.66,-127.39 394.61,-132.34"/>
<text text-anchor="middle" x="400.5" y="-144.8" font-family="Times,serif" font-size="14.00">विशेषणम्</text>
</g>
<!-- Node9_2 -->
<g id="node5" class="node">
<title>Node9_2</title>
<ellipse fill="#00bfff" stroke="#00bfff" cx="661" cy="-105" rx="54.69" ry="18"/>
<text text-anchor="middle" x="661" y="-101.3" font-family="Times,serif" font-size="14.00">औजसः(9.2)</text>
</g>
<!-- Node9_2&#45;&gt;Node4_2 -->
<g id="edge11" class="edge">
<title>Node9_2&#45;&gt;Node4_2</title>
<path fill="none" stroke="black" d="M616.91,-122.51C587.49,-133.1 547.79,-146.58 512,-156 465.57,-168.22 411.41,-178.14 374.51,-184.25"/>
<polygon fill="black" stroke="black" points="618.26,-125.74 626.47,-119.04 615.87,-119.16 618.26,-125.74"/>
<text text-anchor="middle" x="583.5" y="-144.8" font-family="Times,serif" font-size="14.00">विशेषणम्</text>
</g>
<!-- Node2_1 -->
<g id="node6" class="node">
<title>Node2_1</title>
<ellipse fill="#ff99ff" stroke="#ff99ff" cx="291" cy="-18" rx="37.89" ry="18"/>
<text text-anchor="middle" x="291" y="-14.3" font-family="Times,serif" font-size="14.00">च(2.1)</text>
</g>
<!-- Node2_1&#45;&gt;Node1_1 -->
<g id="edge2" class="edge">
<title>Node2_1&#45;&gt;Node1_1</title>
<path fill="none" stroke="black" d="M291,-46.27C291,-59.58 291,-75.19 291,-86.82"/>
<polygon fill="black" stroke="black" points="294.5,-46.2 291,-36.2 287.5,-46.2 294.5,-46.2"/>
<text text-anchor="middle" x="309.5" y="-57.8" font-family="Times,serif" font-size="14.00">सम्बन्धः</text>
</g>
<!-- Node4_1 -->
<g id="node7" class="node">
<title>Node4_1</title>
<ellipse fill="#ffff00" stroke="#ffff00" cx="188" cy="-105" rx="48.19" ry="18"/>
<text text-anchor="middle" x="188" y="-101.3" font-family="Times,serif" font-size="14.00">द्विज&#45;(4.1)</text>
</g>
<!-- Node4_1&#45;&gt;Node4_2 -->
<g id="edge4" class="edge">
<title>Node4_1&#45;&gt;Node4_2</title>
<path fill="none" stroke="black" d="M220.81,-126.28C235.76,-135.45 253.71,-146.37 270,-156 281.66,-162.9 294.68,-170.4 305.68,-176.68"/>
<polygon fill="black" stroke="black" points="222.29,-123.08 211.93,-120.83 218.62,-129.05 222.29,-123.08"/>
<text text-anchor="middle" x="287" y="-144.8" font-family="Times,serif" font-size="14.00">समासः</text>
</g>
<!-- Node5_1 -->
<g id="node9" class="node">
<title>Node5_1</title>
<ellipse fill="#c6e2eb" stroke="#c6e2eb" cx="52" cy="-192" rx="51.99" ry="18"/>
<text text-anchor="middle" x="52" y="-188.3" font-family="Times,serif" font-size="14.00">विष्टरेषु(5.1)</text>
</g>
<!-- Node5_1&#45;&gt;Node8_1 -->
<g id="edge6" class="edge">
<title>Node5_1&#45;&gt;Node8_1</title>
<path fill="none" stroke="black" d="M76.85,-215.81C87.3,-224.83 99.83,-234.94 112,-243 123.84,-250.85 137.66,-258.25 149.74,-264.21"/>
<polygon fill="black" stroke="black" points="79.13,-213.15 69.31,-209.18 74.51,-218.41 79.13,-213.15"/>
<text text-anchor="middle" x="144" y="-231.8" font-family="Times,serif" font-size="14.00">देशाधिकरणम्</text>
</g>
<!-- Node6_1 -->
<g id="node10" class="node">
<title>Node6_1</title>
<ellipse fill="#ff99ff" stroke="#ff99ff" cx="180" cy="-192" rx="57.69" ry="18"/>
<text text-anchor="middle" x="180" y="-188.3" font-family="Times,serif" font-size="14.00">समन्ततः(6.1)</text>
</g>
<!-- Node6_1&#45;&gt;Node8_1 -->
<g id="edge7" class="edge">
<title>Node6_1&#45;&gt;Node8_1</title>
<path fill="none" stroke="black" d="M180,-220.27C180,-233.58 180,-249.19 180,-260.82"/>
<polygon fill="black" stroke="black" points="183.5,-220.2 180,-210.2 176.5,-220.2 183.5,-220.2"/>
<text text-anchor="middle" x="215" y="-231.8" font-family="Times,serif" font-size="14.00">क्रियाविशेषणम्</text>
</g>
<!-- Node7_1 -->
<g id="node11" class="node">
<title>Node7_1</title>
<ellipse fill="#ffff00" stroke="#ffff00" cx="416" cy="-18" rx="56.59" ry="18"/>
<text text-anchor="middle" x="416" y="-14.3" font-family="Times,serif" font-size="14.00">द्वैपायन&#45;(7.1)</text>
</g>
<!-- Node7_1&#45;&gt;Node7_2 -->
<g id="edge8" class="edge">
<title>Node7_1&#45;&gt;Node7_2</title>
<path fill="none" stroke="black" d="M416,-46.27C416,-59.58 416,-75.19 416,-86.82"/>
<polygon fill="black" stroke="black" points="419.5,-46.2 416,-36.2 412.5,-46.2 419.5,-46.2"/>
<text text-anchor="middle" x="433" y="-57.8" font-family="Times,serif" font-size="14.00">समासः</text>
</g>
<!-- Node9_1 -->
<g id="node12" class="node">
<title>Node9_1</title>
<ellipse fill="#ffff00" stroke="#ffff00" cx="661" cy="-18" rx="52.79" ry="18"/>
<text text-anchor="middle" x="661" y="-14.3" font-family="Times,serif" font-size="14.00">विपुल&#45;(9.1)</text>
</g>
<!-- Node9_1&#45;&gt;Node9_2 -->
<g id="edge10" class="edge">
<title>Node9_1&#45;&gt;Node9_2</title>
<path fill="none" stroke="black" d="M661,-46.27C661,-59.58 661,-75.19 661,-86.82"/>
<polygon fill="black" stroke="black" points="664.5,-46.2 661,-36.2 657.5,-46.2 664.5,-46.2"/>
<text text-anchor="middle" x="678" y="-57.8" font-family="Times,serif" font-size="14.00">समासः</text>
</g>
</g>
</svg>
