<?xml version="1.0" encoding="UTF-8" standalone="no"?>
<!DOCTYPE svg PUBLIC "-//W3C//DTD SVG 1.1//EN"
 "http://www.w3.org/Graphics/SVG/1.1/DTD/svg11.dtd">
<!-- Generated by graphviz version 2.43.0 (0)
 -->
<!-- Title: G Pages: 1 -->
<svg width="816pt" height="392pt"
 viewBox="0.00 0.00 815.94 392.00" xmlns="http://www.w3.org/2000/svg" xmlns:xlink="http://www.w3.org/1999/xlink">
<g id="graph0" class="graph" transform="scale(1 1) rotate(0) translate(4 388)">
<title>G</title>
<polygon fill="#fffacd" stroke="transparent" points="-4,4 -4,-388 811.94,-388 811.94,4 -4,4"/>
<g id="clust1" class="cluster">
<title>cluster_1</title>
<polygon fill="#fffacd" stroke="black" points="317.94,-166 317.94,-305 799.94,-305 799.94,-166 317.94,-166"/>
</g>
<!-- Node1_1 -->
<g id="node1" class="node">
<title>Node1_1</title>
<ellipse fill="#40e0d0" stroke="#40e0d0" cx="383.94" cy="-192" rx="57.69" ry="18"/>
<text text-anchor="middle" x="383.94" y="-188.3" font-family="Times,serif" font-size="14.00">केकाभिः(1.1)</text>
</g>
<!-- Node8_1 -->
<g id="node2" class="node">
<title>Node8_1</title>
<ellipse fill="#40e0d0" stroke="#40e0d0" cx="430.94" cy="-279" rx="48.99" ry="18"/>
<text text-anchor="middle" x="430.94" y="-275.3" font-family="Times,serif" font-size="14.00">कुहरैः(8.1)</text>
</g>
<!-- Node1_1&#45;&gt;Node8_1 -->
<g id="edge1" class="edge">
<title>Node1_1&#45;&gt;Node8_1</title>
<path fill="none" stroke="black" d="M398.21,-218.8C405.83,-232.58 414.99,-249.14 421.68,-261.24"/>
<polygon fill="black" stroke="black" points="401.13,-216.85 393.23,-209.79 395.01,-220.24 401.13,-216.85"/>
<text text-anchor="middle" x="432.44" y="-231.8" font-family="Times,serif" font-size="14.00">समुच्चितः</text>
</g>
<!-- Node14_1 -->
<g id="node11" class="node">
<title>Node14_1</title>
<ellipse fill="#ff1975" stroke="#ff1975" cx="230.94" cy="-366" rx="66.09" ry="18"/>
<text text-anchor="middle" x="230.94" y="-362.3" font-family="Times,serif" font-size="14.00">(आसीत्)(14.1)</text>
</g>
<!-- Node8_1&#45;&gt;Node14_1 -->
<g id="edge8" class="edge">
<title>Node8_1&#45;&gt;Node14_1</title>
<path fill="none" stroke="black" d="M390.69,-297.11C353.86,-312.76 299.94,-335.68 265.14,-350.47"/>
<polygon fill="black" stroke="black" points="392.3,-300.23 400.13,-293.09 389.56,-293.79 392.3,-300.23"/>
<text text-anchor="middle" x="358.44" y="-318.8" font-family="Times,serif" font-size="14.00">करणम्</text>
</g>
<!-- Node5_1 -->
<g id="node3" class="node">
<title>Node5_1</title>
<ellipse fill="#40e0d0" stroke="#40e0d0" cx="623.94" cy="-192" rx="53.89" ry="18"/>
<text text-anchor="middle" x="623.94" y="-188.3" font-family="Times,serif" font-size="14.00">कूजितैः(5.1)</text>
</g>
<!-- Node5_1&#45;&gt;Node8_1 -->
<g id="edge5" class="edge">
<title>Node5_1&#45;&gt;Node8_1</title>
<path fill="none" stroke="black" d="M586.7,-211.98C567.27,-221.65 543.02,-233.37 520.94,-243 502.5,-251.05 481.58,-259.24 464.55,-265.67"/>
<polygon fill="black" stroke="black" points="588.44,-215.03 595.81,-207.42 585.31,-208.77 588.44,-215.03"/>
<text text-anchor="middle" x="574.44" y="-231.8" font-family="Times,serif" font-size="14.00">समुच्चितः</text>
</g>
<!-- Node9_1 -->
<g id="node4" class="node">
<title>Node9_1</title>
<ellipse fill="#40e0d0" stroke="#40e0d0" cx="505.94" cy="-192" rx="46.29" ry="18"/>
<text text-anchor="middle" x="505.94" y="-188.3" font-family="Times,serif" font-size="14.00">शुभैः(9.1)</text>
</g>
<!-- Node9_1&#45;&gt;Node8_1 -->
<g id="edge9" class="edge">
<title>Node9_1&#45;&gt;Node8_1</title>
<path fill="none" stroke="black" d="M484.84,-216.91C472.24,-231.2 456.55,-248.98 445.36,-261.66"/>
<polygon fill="black" stroke="black" points="487.49,-219.2 491.48,-209.39 482.24,-214.57 487.49,-219.2"/>
<text text-anchor="middle" x="494.44" y="-231.8" font-family="Times,serif" font-size="14.00">विशेषणम्</text>
</g>
<!-- Node10_3 -->
<g id="node5" class="node">
<title>Node10_3</title>
<ellipse fill="#40e0d0" stroke="#40e0d0" cx="743.94" cy="-192" rx="48.19" ry="18"/>
<text text-anchor="middle" x="743.94" y="-188.3" font-family="Times,serif" font-size="14.00">हरैः(10.3)</text>
</g>
<!-- Node10_3&#45;&gt;Node8_1 -->
<g id="edge12" class="edge">
<title>Node10_3&#45;&gt;Node8_1</title>
<path fill="none" stroke="black" d="M702.4,-209.18C674.11,-219.78 635.64,-233.41 600.94,-243 558.4,-254.76 508.87,-264.52 474.29,-270.72"/>
<polygon fill="black" stroke="black" points="703.84,-212.37 711.96,-205.56 701.37,-205.82 703.84,-212.37"/>
<text text-anchor="middle" x="670.44" y="-231.8" font-family="Times,serif" font-size="14.00">विशेषणम्</text>
</g>
<!-- Node2_1 -->
<g id="node6" class="node">
<title>Node2_1</title>
<ellipse fill="#87ceeb" stroke="#87ceeb" cx="383.94" cy="-105" rx="75.29" ry="18"/>
<text text-anchor="middle" x="383.94" y="-101.3" font-family="Times,serif" font-size="14.00">नीलकण्ठानाम्(2.1)</text>
</g>
<!-- Node2_1&#45;&gt;Node1_1 -->
<g id="edge2" class="edge">
<title>Node2_1&#45;&gt;Node1_1</title>
<path fill="none" stroke="black" d="M383.94,-133.27C383.94,-146.58 383.94,-162.19 383.94,-173.82"/>
<polygon fill="black" stroke="black" points="387.44,-133.2 383.94,-123.2 380.44,-133.2 387.44,-133.2"/>
<text text-anchor="middle" x="411.44" y="-144.8" font-family="Times,serif" font-size="14.00">षष्ठीसम्बन्धः</text>
</g>
<!-- Node3_1 -->
<g id="node7" class="node">
<title>Node3_1</title>
<ellipse fill="#87ceeb" stroke="#87ceeb" cx="608.94" cy="-105" rx="66.09" ry="18"/>
<text text-anchor="middle" x="608.94" y="-101.3" font-family="Times,serif" font-size="14.00">दात्यूहानाम्(3.1)</text>
</g>
<!-- Node3_1&#45;&gt;Node5_1 -->
<g id="edge3" class="edge">
<title>Node3_1&#45;&gt;Node5_1</title>
<path fill="none" stroke="black" d="M613.76,-133.27C616.11,-146.58 618.86,-162.19 620.91,-173.82"/>
<polygon fill="black" stroke="black" points="617.16,-132.44 611.98,-123.2 610.27,-133.66 617.16,-132.44"/>
<text text-anchor="middle" x="644.44" y="-144.8" font-family="Times,serif" font-size="14.00">षष्ठीसम्बन्धः</text>
</g>
<!-- Node4_1 -->
<g id="node8" class="node">
<title>Node4_1</title>
<ellipse fill="#ff99ff" stroke="#ff99ff" cx="608.94" cy="-18" rx="37.89" ry="18"/>
<text text-anchor="middle" x="608.94" y="-14.3" font-family="Times,serif" font-size="14.00">च(4.1)</text>
</g>
<!-- Node4_1&#45;&gt;Node3_1 -->
<g id="edge4" class="edge">
<title>Node4_1&#45;&gt;Node3_1</title>
<path fill="none" stroke="black" d="M608.94,-46.27C608.94,-59.58 608.94,-75.19 608.94,-86.82"/>
<polygon fill="black" stroke="black" points="612.44,-46.2 608.94,-36.2 605.44,-46.2 612.44,-46.2"/>
<text text-anchor="middle" x="646.94" y="-57.8" font-family="Times,serif" font-size="14.00">समुच्चय_द्योतकः</text>
</g>
<!-- Node6_1 -->
<g id="node9" class="node">
<title>Node6_1</title>
<ellipse fill="#87ceeb" stroke="#87ceeb" cx="237.94" cy="-192" rx="70.39" ry="18"/>
<text text-anchor="middle" x="237.94" y="-188.3" font-family="Times,serif" font-size="14.00">कोकिलानाम्(6.1)</text>
</g>
<!-- Node6_1&#45;&gt;Node8_1 -->
<g id="edge6" class="edge">
<title>Node6_1&#45;&gt;Node8_1</title>
<path fill="none" stroke="black" d="M278.67,-212.62C298.55,-222.05 322.88,-233.36 344.94,-243 362.67,-250.74 382.67,-258.92 398.93,-265.42"/>
<polygon fill="black" stroke="black" points="280.12,-209.44 269.59,-208.3 277.12,-215.76 280.12,-209.44"/>
<text text-anchor="middle" x="372.44" y="-231.8" font-family="Times,serif" font-size="14.00">षष्ठीसम्बन्धः</text>
</g>
<!-- Node7_1 -->
<g id="node10" class="node">
<title>Node7_1</title>
<ellipse fill="#ff99ff" stroke="#ff99ff" cx="237.94" cy="-105" rx="37.89" ry="18"/>
<text text-anchor="middle" x="237.94" y="-101.3" font-family="Times,serif" font-size="14.00">च(7.1)</text>
</g>
<!-- Node7_1&#45;&gt;Node6_1 -->
<g id="edge7" class="edge">
<title>Node7_1&#45;&gt;Node6_1</title>
<path fill="none" stroke="black" d="M237.94,-133.27C237.94,-146.58 237.94,-162.19 237.94,-173.82"/>
<polygon fill="black" stroke="black" points="241.44,-133.2 237.94,-123.2 234.44,-133.2 241.44,-133.2"/>
<text text-anchor="middle" x="275.94" y="-144.8" font-family="Times,serif" font-size="14.00">समुच्चय_द्योतकः</text>
</g>
<!-- Node10_1 -->
<g id="node12" class="node">
<title>Node10_1</title>
<ellipse fill="#ffff00" stroke="#ffff00" cx="749.94" cy="-18" rx="53.89" ry="18"/>
<text text-anchor="middle" x="749.94" y="-14.3" font-family="Times,serif" font-size="14.00">श्रुति&#45;(10.1)</text>
</g>
<!-- Node10_2 -->
<g id="node13" class="node">
<title>Node10_2</title>
<ellipse fill="#ffff00" stroke="#ffff00" cx="749.94" cy="-105" rx="56.59" ry="18"/>
<text text-anchor="middle" x="749.94" y="-101.3" font-family="Times,serif" font-size="14.00">मनस्&#45;(10.2)</text>
</g>
<!-- Node10_1&#45;&gt;Node10_2 -->
<g id="edge10" class="edge">
<title>Node10_1&#45;&gt;Node10_2</title>
<path fill="none" stroke="black" d="M749.94,-46.27C749.94,-59.58 749.94,-75.19 749.94,-86.82"/>
<polygon fill="black" stroke="black" points="753.44,-46.2 749.94,-36.2 746.44,-46.2 753.44,-46.2"/>
<text text-anchor="middle" x="766.94" y="-57.8" font-family="Times,serif" font-size="14.00">समासः</text>
</g>
<!-- Node10_2&#45;&gt;Node10_3 -->
<g id="edge11" class="edge">
<title>Node10_2&#45;&gt;Node10_3</title>
<path fill="none" stroke="black" d="M748.02,-133.27C747.08,-146.58 745.98,-162.19 745.16,-173.82"/>
<polygon fill="black" stroke="black" points="751.52,-133.42 748.73,-123.2 744.53,-132.93 751.52,-133.42"/>
<text text-anchor="middle" x="763.94" y="-144.8" font-family="Times,serif" font-size="14.00">समासः</text>
</g>
<!-- Node11_1 -->
<g id="node14" class="node">
<title>Node11_1</title>
<ellipse fill="#ff99ff" stroke="#ff99ff" cx="66.94" cy="-192" rx="66.89" ry="18"/>
<text text-anchor="middle" x="66.94" y="-188.3" font-family="Times,serif" font-size="14.00">(क्वचित्)(11.1)</text>
</g>
<!-- Node12_1 -->
<g id="node15" class="node">
<title>Node12_1</title>
<ellipse fill="#ff99ff" stroke="#ff99ff" cx="66.94" cy="-279" rx="66.89" ry="18"/>
<text text-anchor="middle" x="66.94" y="-275.3" font-family="Times,serif" font-size="14.00">(क्वचित्)(12.1)</text>
</g>
<!-- Node11_1&#45;&gt;Node12_1 -->
<g id="edge13" class="edge">
<title>Node11_1&#45;&gt;Node12_1</title>
<path fill="none" stroke="black" d="M66.94,-220.27C66.94,-233.58 66.94,-249.19 66.94,-260.82"/>
<polygon fill="black" stroke="black" points="70.44,-220.2 66.94,-210.2 63.44,-220.2 70.44,-220.2"/>
<text text-anchor="middle" x="80.94" y="-231.8" font-family="Times,serif" font-size="14.00">वीप्सा</text>
</g>
<!-- Node12_1&#45;&gt;Node14_1 -->
<g id="edge14" class="edge">
<title>Node12_1&#45;&gt;Node14_1</title>
<path fill="none" stroke="black" d="M105.66,-300.22C123.15,-309.34 144.08,-320.23 162.94,-330 175.56,-336.53 189.51,-343.72 201.47,-349.87"/>
<polygon fill="black" stroke="black" points="106.82,-296.88 96.34,-295.36 103.58,-303.08 106.82,-296.88"/>
<text text-anchor="middle" x="194.94" y="-318.8" font-family="Times,serif" font-size="14.00">देशाधिकरणम्</text>
</g>
<!-- Node13_1 -->
<g id="node16" class="node">
<title>Node13_1</title>
<ellipse fill="#00bfff" stroke="#00bfff" cx="230.94" cy="-279" rx="78.79" ry="18"/>
<text text-anchor="middle" x="230.94" y="-275.3" font-family="Times,serif" font-size="14.00">(अलङ्कृतम्)(13.1)</text>
</g>
<!-- Node13_1&#45;&gt;Node14_1 -->
<g id="edge15" class="edge">
<title>Node13_1&#45;&gt;Node14_1</title>
<path fill="none" stroke="black" d="M230.94,-307.27C230.94,-320.58 230.94,-336.19 230.94,-347.82"/>
<polygon fill="black" stroke="black" points="234.44,-307.2 230.94,-297.2 227.44,-307.2 234.44,-307.2"/>
<text text-anchor="middle" x="241.94" y="-318.8" font-family="Times,serif" font-size="14.00">कर्ता</text>
</g>
</g>
</svg>
