<?xml version="1.0" encoding="UTF-8" standalone="no"?>
<!DOCTYPE svg PUBLIC "-//W3C//DTD SVG 1.1//EN"
 "http://www.w3.org/Graphics/SVG/1.1/DTD/svg11.dtd">
<!-- Generated by graphviz version 2.43.0 (0)
 -->
<!-- Title: G Pages: 1 -->
<svg width="795pt" height="392pt"
 viewBox="0.00 0.00 795.00 392.00" xmlns="http://www.w3.org/2000/svg" xmlns:xlink="http://www.w3.org/1999/xlink">
<g id="graph0" class="graph" transform="scale(1 1) rotate(0) translate(4 388)">
<title>G</title>
<polygon fill="#fffacd" stroke="transparent" points="-4,4 -4,-388 791,-388 791,4 -4,4"/>
<g id="clust1" class="cluster">
<title>cluster_1</title>
<polygon fill="#fffacd" stroke="black" points="435,-166 435,-305 779,-305 779,-166 435,-166"/>
</g>
<g id="clust2" class="cluster">
<title>cluster_2</title>
<polygon fill="#fffacd" stroke="black" points="8,-79 8,-218 267,-218 267,-79 8,-79"/>
</g>
<g id="clust3" class="cluster">
<title>cluster_3</title>
<polygon fill="#fffacd" stroke="black" points="275,-79 275,-218 427,-218 427,-79 275,-79"/>
</g>
<!-- Node1_1 -->
<g id="node1" class="node">
<title>Node1_1</title>
<ellipse fill="#00bfff" stroke="#00bfff" cx="731" cy="-192" rx="40.09" ry="18"/>
<text text-anchor="middle" x="731" y="-188.3" font-family="Times,serif" font-size="14.00">सः(1.1)</text>
</g>
<!-- Node4_1 -->
<g id="node2" class="node">
<title>Node4_1</title>
<ellipse fill="#00bfff" stroke="#00bfff" cx="494" cy="-279" rx="46.29" ry="18"/>
<text text-anchor="middle" x="494" y="-275.3" font-family="Times,serif" font-size="14.00">राजा(4.1)</text>
</g>
<!-- Node1_1&#45;&gt;Node4_1 -->
<g id="edge1" class="edge">
<title>Node1_1&#45;&gt;Node4_1</title>
<path fill="none" stroke="black" d="M697.4,-210.86C692.29,-213.36 687.04,-215.82 682,-218 631.35,-239.86 570.05,-257.95 531.53,-268.37"/>
<polygon fill="black" stroke="black" points="699.01,-213.97 706.37,-206.35 695.86,-207.71 699.01,-213.97"/>
<text text-anchor="middle" x="679.5" y="-231.8" font-family="Times,serif" font-size="14.00">विशेषणम्</text>
</g>
<!-- Node5_1 -->
<g id="node11" class="node">
<title>Node5_1</title>
<ellipse fill="#ff1975" stroke="#ff1975" cx="305" cy="-366" rx="50.09" ry="18"/>
<text text-anchor="middle" x="305" y="-362.3" font-family="Times,serif" font-size="14.00">शुशुभे(5.1)</text>
</g>
<!-- Node4_1&#45;&gt;Node5_1 -->
<g id="edge4" class="edge">
<title>Node4_1&#45;&gt;Node5_1</title>
<path fill="none" stroke="black" d="M459.59,-298.93C441.25,-308.72 418.17,-320.55 397,-330 378.27,-338.36 356.89,-346.57 339.45,-352.94"/>
<polygon fill="black" stroke="black" points="461.3,-301.99 468.45,-294.17 457.98,-295.83 461.3,-301.99"/>
<text text-anchor="middle" x="438" y="-318.8" font-family="Times,serif" font-size="14.00">कर्ता</text>
</g>
<!-- Node3_1 -->
<g id="node3" class="node">
<title>Node3_1</title>
<ellipse fill="#00bfff" stroke="#00bfff" cx="618" cy="-192" rx="54.69" ry="18"/>
<text text-anchor="middle" x="618" y="-188.3" font-family="Times,serif" font-size="14.00">परिवृतः(3.1)</text>
</g>
<!-- Node3_1&#45;&gt;Node4_1 -->
<g id="edge3" class="edge">
<title>Node3_1&#45;&gt;Node4_1</title>
<path fill="none" stroke="black" d="M586.84,-214.36C564.68,-229.55 535.46,-249.58 515.77,-263.08"/>
<polygon fill="black" stroke="black" points="588.99,-217.13 595.26,-208.59 585.03,-211.36 588.99,-217.13"/>
<text text-anchor="middle" x="585.5" y="-231.8" font-family="Times,serif" font-size="14.00">विशेषणम्</text>
</g>
<!-- Node7_1 -->
<g id="node4" class="node">
<title>Node7_1</title>
<ellipse fill="#00bfff" stroke="#00bfff" cx="494" cy="-192" rx="51.19" ry="18"/>
<text text-anchor="middle" x="494" y="-188.3" font-family="Times,serif" font-size="14.00">कौरवः(7.1)</text>
</g>
<!-- Node7_1&#45;&gt;Node4_1 -->
<g id="edge6" class="edge">
<title>Node7_1&#45;&gt;Node4_1</title>
<path fill="none" stroke="black" d="M494,-220.27C494,-233.58 494,-249.19 494,-260.82"/>
<polygon fill="black" stroke="black" points="497.5,-220.2 494,-210.2 490.5,-220.2 497.5,-220.2"/>
<text text-anchor="middle" x="516.5" y="-231.8" font-family="Times,serif" font-size="14.00">विशेषणम्</text>
</g>
<!-- Node9_1 -->
<g id="node5" class="node">
<title>Node9_1</title>
<ellipse fill="#93db70" stroke="#93db70" cx="206" cy="-105" rx="52.79" ry="18"/>
<text text-anchor="middle" x="206" y="-101.3" font-family="Times,serif" font-size="14.00">ब्राह्मीम्(9.1)</text>
</g>
<!-- Node10_1 -->
<g id="node6" class="node">
<title>Node10_1</title>
<ellipse fill="#93db70" stroke="#93db70" cx="203" cy="-192" rx="55.79" ry="18"/>
<text text-anchor="middle" x="203" y="-188.3" font-family="Times,serif" font-size="14.00">श्रियम्(10.1)</text>
</g>
<!-- Node9_1&#45;&gt;Node10_1 -->
<g id="edge8" class="edge">
<title>Node9_1&#45;&gt;Node10_1</title>
<path fill="none" stroke="black" d="M205.04,-133.27C204.57,-146.58 204.02,-162.19 203.61,-173.82"/>
<polygon fill="black" stroke="black" points="208.54,-133.32 205.39,-123.2 201.54,-133.07 208.54,-133.32"/>
<text text-anchor="middle" x="227.5" y="-144.8" font-family="Times,serif" font-size="14.00">विशेषणम्</text>
</g>
<!-- Node8_1 -->
<g id="node13" class="node">
<title>Node8_1</title>
<ellipse fill="#00bfff" stroke="#00bfff" cx="305" cy="-279" rx="50.09" ry="18"/>
<text text-anchor="middle" x="305" y="-275.3" font-family="Times,serif" font-size="14.00">बिभ्रत्(8.1)</text>
</g>
<!-- Node10_1&#45;&gt;Node8_1 -->
<g id="edge9" class="edge">
<title>Node10_1&#45;&gt;Node8_1</title>
<path fill="none" stroke="black" d="M229.89,-215.41C247.51,-230.09 270.11,-248.93 285.9,-262.08"/>
<polygon fill="black" stroke="black" points="232.11,-212.7 222.19,-208.99 227.63,-218.08 232.11,-212.7"/>
<text text-anchor="middle" x="270" y="-231.8" font-family="Times,serif" font-size="14.00">कर्म</text>
</g>
<!-- Node11_1 -->
<g id="node7" class="node">
<title>Node11_1</title>
<ellipse fill="#93db70" stroke="#93db70" cx="76" cy="-105" rx="59.59" ry="18"/>
<text text-anchor="middle" x="76" y="-101.3" font-family="Times,serif" font-size="14.00">दीप्ताम्(11.1)</text>
</g>
<!-- Node11_1&#45;&gt;Node10_1 -->
<g id="edge10" class="edge">
<title>Node11_1&#45;&gt;Node10_1</title>
<path fill="none" stroke="black" d="M107.8,-127.28C130.2,-142.27 159.67,-162 179.85,-175.51"/>
<polygon fill="black" stroke="black" points="109.55,-124.24 99.29,-121.59 105.66,-130.06 109.55,-124.24"/>
<text text-anchor="middle" x="170.5" y="-144.8" font-family="Times,serif" font-size="14.00">विशेषणम्</text>
</g>
<!-- Node15_1 -->
<g id="node8" class="node">
<title>Node15_1</title>
<ellipse fill="#00bfff" stroke="#00bfff" cx="351" cy="-105" rx="67.69" ry="18"/>
<text text-anchor="middle" x="351" y="-101.3" font-family="Times,serif" font-size="14.00">(परिवृतः)(15.1)</text>
</g>
<!-- Node14_1 -->
<g id="node9" class="node">
<title>Node14_1</title>
<ellipse fill="#00bfff" stroke="#00bfff" cx="353" cy="-192" rx="65.79" ry="18"/>
<text text-anchor="middle" x="353" y="-188.3" font-family="Times,serif" font-size="14.00">बृहस्पतिः(14.1)</text>
</g>
<!-- Node15_1&#45;&gt;Node14_1 -->
<g id="edge14" class="edge">
<title>Node15_1&#45;&gt;Node14_1</title>
<path fill="none" stroke="black" d="M351.64,-133.27C351.95,-146.58 352.32,-162.19 352.6,-173.82"/>
<polygon fill="black" stroke="black" points="355.14,-133.12 351.4,-123.2 348.14,-133.28 355.14,-133.12"/>
<text text-anchor="middle" x="375.5" y="-144.8" font-family="Times,serif" font-size="14.00">विशेषणम्</text>
</g>
<!-- Node14_1&#45;&gt;Node4_1 -->
<g id="edge13" class="edge">
<title>Node14_1&#45;&gt;Node4_1</title>
<path fill="none" stroke="black" d="M387.49,-213.79C412.97,-229.15 447.04,-249.69 469.72,-263.36"/>
<polygon fill="black" stroke="black" points="389.23,-210.76 378.86,-208.59 385.62,-216.75 389.23,-210.76"/>
<text text-anchor="middle" x="452.5" y="-231.8" font-family="Times,serif" font-size="14.00">उपमानम्</text>
</g>
<!-- Node2_1 -->
<g id="node10" class="node">
<title>Node2_1</title>
<ellipse fill="#40e0d0" stroke="#40e0d0" cx="618" cy="-105" rx="39.79" ry="18"/>
<text text-anchor="middle" x="618" y="-101.3" font-family="Times,serif" font-size="14.00">तैः(2.1)</text>
</g>
<!-- Node2_1&#45;&gt;Node3_1 -->
<g id="edge2" class="edge">
<title>Node2_1&#45;&gt;Node3_1</title>
<path fill="none" stroke="black" d="M618,-133.27C618,-146.58 618,-162.19 618,-173.82"/>
<polygon fill="black" stroke="black" points="621.5,-133.2 618,-123.2 614.5,-133.2 621.5,-133.2"/>
<text text-anchor="middle" x="629" y="-144.8" font-family="Times,serif" font-size="14.00">कर्ता</text>
</g>
<!-- Node6_1 -->
<g id="node12" class="node">
<title>Node6_1</title>
<ellipse fill="#ff99ff" stroke="#ff99ff" cx="187" cy="-279" rx="50.09" ry="18"/>
<text text-anchor="middle" x="187" y="-275.3" font-family="Times,serif" font-size="14.00">अतीव(6.1)</text>
</g>
<!-- Node6_1&#45;&gt;Node5_1 -->
<g id="edge5" class="edge">
<title>Node6_1&#45;&gt;Node5_1</title>
<path fill="none" stroke="black" d="M205.48,-304.93C212.76,-313.61 221.62,-322.94 231,-330 243.15,-339.15 258.07,-346.76 271.32,-352.53"/>
<polygon fill="black" stroke="black" points="208.01,-302.49 199.02,-296.89 202.56,-306.88 208.01,-302.49"/>
<text text-anchor="middle" x="266" y="-318.8" font-family="Times,serif" font-size="14.00">क्रियाविशेषणम्</text>
</g>
<!-- Node8_1&#45;&gt;Node5_1 -->
<g id="edge7" class="edge">
<title>Node8_1&#45;&gt;Node5_1</title>
<path fill="none" stroke="black" d="M305,-307.27C305,-320.58 305,-336.19 305,-347.82"/>
<polygon fill="black" stroke="black" points="308.5,-307.2 305,-297.2 301.5,-307.2 308.5,-307.2"/>
<text text-anchor="middle" x="349" y="-318.8" font-family="Times,serif" font-size="14.00">वर्तमानसमानकालः</text>
</g>
<!-- Node12_1 -->
<g id="node14" class="node">
<title>Node12_1</title>
<ellipse fill="#40e0d0" stroke="#40e0d0" cx="351" cy="-18" rx="49.29" ry="18"/>
<text text-anchor="middle" x="351" y="-14.3" font-family="Times,serif" font-size="14.00">देवैः(12.1)</text>
</g>
<!-- Node12_1&#45;&gt;Node15_1 -->
<g id="edge11" class="edge">
<title>Node12_1&#45;&gt;Node15_1</title>
<path fill="none" stroke="black" d="M351,-46.27C351,-59.58 351,-75.19 351,-86.82"/>
<polygon fill="black" stroke="black" points="354.5,-46.2 351,-36.2 347.5,-46.2 354.5,-46.2"/>
<text text-anchor="middle" x="362" y="-57.8" font-family="Times,serif" font-size="14.00">कर्ता</text>
</g>
<!-- Node13_1 -->
<g id="node15" class="node">
<title>Node13_1</title>
<ellipse fill="#ff99ff" stroke="#ff99ff" cx="483" cy="-105" rx="46.59" ry="18"/>
<text text-anchor="middle" x="483" y="-101.3" font-family="Times,serif" font-size="14.00">इव(13.1)</text>
</g>
<!-- Node13_1&#45;&gt;Node14_1 -->
<g id="edge12" class="edge">
<title>Node13_1&#45;&gt;Node14_1</title>
<path fill="none" stroke="black" d="M451.68,-126.48C428.78,-141.45 398.17,-161.47 377.15,-175.21"/>
<polygon fill="black" stroke="black" points="453.9,-129.21 460.36,-120.81 450.07,-123.35 453.9,-129.21"/>
<text text-anchor="middle" x="462.5" y="-144.8" font-family="Times,serif" font-size="14.00">उपमान_द्योतकः</text>
</g>
</g>
</svg>
