<?xml version="1.0" encoding="UTF-8" standalone="no"?>
<!DOCTYPE svg PUBLIC "-//W3C//DTD SVG 1.1//EN"
 "http://www.w3.org/Graphics/SVG/1.1/DTD/svg11.dtd">
<!-- Generated by graphviz version 2.43.0 (0)
 -->
<!-- Title: G Pages: 1 -->
<svg width="890pt" height="305pt"
 viewBox="0.00 0.00 889.94 305.00" xmlns="http://www.w3.org/2000/svg" xmlns:xlink="http://www.w3.org/1999/xlink">
<g id="graph0" class="graph" transform="scale(1 1) rotate(0) translate(4 301)">
<title>G</title>
<polygon fill="#fffacd" stroke="transparent" points="-4,4 -4,-301 885.94,-301 885.94,4 -4,4"/>
<g id="clust1" class="cluster">
<title>cluster_1</title>
<polygon fill="#fffacd" stroke="black" points="117.6,-79 117.6,-218 779.6,-218 779.6,-79 117.6,-79"/>
</g>
<!-- Node1_1 -->
<g id="node1" class="node">
<title>Node1_1</title>
<ellipse fill="#93db70" stroke="#93db70" cx="178.6" cy="-105" rx="52.79" ry="18"/>
<text text-anchor="middle" x="178.6" y="-101.3" font-family="Times,serif" font-size="14.00">मातरम्(1.1)</text>
</g>
<!-- Node7_1 -->
<g id="node2" class="node">
<title>Node7_1</title>
<ellipse fill="#93db70" stroke="#93db70" cx="369.6" cy="-192" rx="53.09" ry="18"/>
<text text-anchor="middle" x="369.6" y="-188.3" font-family="Times,serif" font-size="14.00">कुन्तीम्(7.1)</text>
</g>
<!-- Node1_1&#45;&gt;Node7_1 -->
<g id="edge1" class="edge">
<title>Node1_1&#45;&gt;Node7_1</title>
<path fill="none" stroke="black" d="M216.79,-124.58C236.86,-134.2 261.94,-146 284.6,-156 301.53,-163.48 320.57,-171.36 336.33,-177.75"/>
<polygon fill="black" stroke="black" points="218.19,-121.37 207.66,-120.19 215.15,-127.68 218.19,-121.37"/>
<text text-anchor="middle" x="307.1" y="-144.8" font-family="Times,serif" font-size="14.00">विशेषणम्</text>
</g>
<!-- Node8_1 -->
<g id="node11" class="node">
<title>Node8_1</title>
<ellipse fill="#ff1975" stroke="#ff1975" cx="76.6" cy="-279" rx="46.59" ry="18"/>
<text text-anchor="middle" x="76.6" y="-275.3" font-family="Times,serif" font-size="14.00">ददर्श(8.1)</text>
</g>
<!-- Node7_1&#45;&gt;Node8_1 -->
<g id="edge9" class="edge">
<title>Node7_1&#45;&gt;Node8_1</title>
<path fill="none" stroke="black" d="M320.6,-207.21C261.96,-224.23 165.12,-252.32 112.81,-267.49"/>
<polygon fill="black" stroke="black" points="321.76,-210.52 330.38,-204.38 319.8,-203.8 321.76,-210.52"/>
<text text-anchor="middle" x="249.6" y="-231.8" font-family="Times,serif" font-size="14.00">कर्म</text>
</g>
<!-- Node3_3 -->
<g id="node3" class="node">
<title>Node3_3</title>
<ellipse fill="#93db70" stroke="#93db70" cx="435.6" cy="-105" rx="55.79" ry="18"/>
<text text-anchor="middle" x="435.6" y="-101.3" font-family="Times,serif" font-size="14.00">दूरस्थाम्(3.3)</text>
</g>
<!-- Node3_3&#45;&gt;Node7_1 -->
<g id="edge5" class="edge">
<title>Node3_3&#45;&gt;Node7_1</title>
<path fill="none" stroke="black" d="M416.18,-131.01C405.36,-144.94 392.18,-161.91 382.61,-174.24"/>
<polygon fill="black" stroke="black" points="419.19,-132.84 422.56,-122.79 413.66,-128.55 419.19,-132.84"/>
<text text-anchor="middle" x="428.1" y="-144.8" font-family="Times,serif" font-size="14.00">विशेषणम्</text>
</g>
<!-- Node5_1 -->
<g id="node4" class="node">
<title>Node5_1</title>
<ellipse fill="#93db70" stroke="#93db70" cx="565.6" cy="-105" rx="55.79" ry="18"/>
<text text-anchor="middle" x="565.6" y="-101.3" font-family="Times,serif" font-size="14.00">प्रणताम्(5.1)</text>
</g>
<!-- Node5_1&#45;&gt;Node7_1 -->
<g id="edge7" class="edge">
<title>Node5_1&#45;&gt;Node7_1</title>
<path fill="none" stroke="black" d="M525.35,-124.51C504.34,-134.08 478.16,-145.84 454.6,-156 437.45,-163.39 418.22,-171.34 402.39,-177.79"/>
<polygon fill="black" stroke="black" points="526.97,-127.62 534.62,-120.28 524.06,-121.25 526.97,-127.62"/>
<text text-anchor="middle" x="510.1" y="-144.8" font-family="Times,serif" font-size="14.00">विशेषणम्</text>
</g>
<!-- Node6_1 -->
<g id="node5" class="node">
<title>Node6_1</title>
<ellipse fill="#93db70" stroke="#93db70" cx="305.6" cy="-105" rx="55.79" ry="18"/>
<text text-anchor="middle" x="305.6" y="-101.3" font-family="Times,serif" font-size="14.00">स्थिताम्(6.1)</text>
</g>
<!-- Node6_1&#45;&gt;Node7_1 -->
<g id="edge8" class="edge">
<title>Node6_1&#45;&gt;Node7_1</title>
<path fill="none" stroke="black" d="M324.42,-131.01C334.91,-144.94 347.69,-161.91 356.98,-174.24"/>
<polygon fill="black" stroke="black" points="327.05,-128.68 318.24,-122.79 321.46,-132.89 327.05,-128.68"/>
<text text-anchor="middle" x="363.1" y="-144.8" font-family="Times,serif" font-size="14.00">विशेषणम्</text>
</g>
<!-- Node11_2 -->
<g id="node6" class="node">
<title>Node11_2</title>
<ellipse fill="#93db70" stroke="#93db70" cx="705.6" cy="-105" rx="65.79" ry="18"/>
<text text-anchor="middle" x="705.6" y="-101.3" font-family="Times,serif" font-size="14.00">चारिणीम्(11.2)</text>
</g>
<!-- Node11_2&#45;&gt;Node7_1 -->
<g id="edge13" class="edge">
<title>Node11_2&#45;&gt;Node7_1</title>
<path fill="none" stroke="black" d="M654.98,-122.14C621.56,-132.51 576.69,-145.88 536.6,-156 495.81,-166.29 448.89,-175.93 415.19,-182.48"/>
<polygon fill="black" stroke="black" points="656.02,-125.48 664.53,-119.17 653.94,-118.8 656.02,-125.48"/>
<text text-anchor="middle" x="610.1" y="-144.8" font-family="Times,serif" font-size="14.00">विशेषणम्</text>
</g>
<!-- Node2_1 -->
<g id="node7" class="node">
<title>Node2_1</title>
<ellipse fill="#ff99ff" stroke="#ff99ff" cx="178.6" cy="-18" rx="37.89" ry="18"/>
<text text-anchor="middle" x="178.6" y="-14.3" font-family="Times,serif" font-size="14.00">च(2.1)</text>
</g>
<!-- Node2_1&#45;&gt;Node1_1 -->
<g id="edge2" class="edge">
<title>Node2_1&#45;&gt;Node1_1</title>
<path fill="none" stroke="black" d="M178.6,-46.27C178.6,-59.58 178.6,-75.19 178.6,-86.82"/>
<polygon fill="black" stroke="black" points="182.1,-46.2 178.6,-36.2 175.1,-46.2 182.1,-46.2"/>
<text text-anchor="middle" x="197.1" y="-57.8" font-family="Times,serif" font-size="14.00">सम्बन्धः</text>
</g>
<!-- Node3_1 -->
<g id="node8" class="node">
<title>Node3_1</title>
<ellipse fill="#ffff00" stroke="#ffff00" cx="339.6" cy="-18" rx="41.69" ry="18"/>
<text text-anchor="middle" x="339.6" y="-14.3" font-family="Times,serif" font-size="14.00">अ&#45;(3.1)</text>
</g>
<!-- Node3_1&#45;&gt;Node3_3 -->
<g id="edge3" class="edge">
<title>Node3_1&#45;&gt;Node3_3</title>
<path fill="none" stroke="black" d="M364.89,-41.4C381.41,-56.02 402.59,-74.78 417.45,-87.93"/>
<polygon fill="black" stroke="black" points="367.01,-38.6 357.2,-34.59 362.37,-43.84 367.01,-38.6"/>
<text text-anchor="middle" x="409.6" y="-57.8" font-family="Times,serif" font-size="14.00">समासः</text>
</g>
<!-- Node3_2 -->
<g id="node9" class="node">
<title>Node3_2</title>
<ellipse fill="#ffff00" stroke="#ffff00" cx="441.6" cy="-18" rx="42.49" ry="18"/>
<text text-anchor="middle" x="441.6" y="-14.3" font-family="Times,serif" font-size="14.00">वि&#45;(3.2)</text>
</g>
<!-- Node3_2&#45;&gt;Node3_3 -->
<g id="edge4" class="edge">
<title>Node3_2&#45;&gt;Node3_3</title>
<path fill="none" stroke="black" d="M439.67,-46.27C438.73,-59.58 437.63,-75.19 436.81,-86.82"/>
<polygon fill="black" stroke="black" points="443.17,-46.42 440.38,-36.2 436.19,-45.93 443.17,-46.42"/>
<text text-anchor="middle" x="455.6" y="-57.8" font-family="Times,serif" font-size="14.00">समासः</text>
</g>
<!-- Node4_1 -->
<g id="node10" class="node">
<title>Node4_1</title>
<ellipse fill="#00bfff" stroke="#00bfff" cx="565.6" cy="-18" rx="57.69" ry="18"/>
<text text-anchor="middle" x="565.6" y="-14.3" font-family="Times,serif" font-size="14.00">शिष्यवत्(4.1)</text>
</g>
<!-- Node4_1&#45;&gt;Node5_1 -->
<g id="edge6" class="edge">
<title>Node4_1&#45;&gt;Node5_1</title>
<path fill="none" stroke="black" d="M565.6,-46.27C565.6,-59.58 565.6,-75.19 565.6,-86.82"/>
<polygon fill="black" stroke="black" points="569.1,-46.2 565.6,-36.2 562.1,-46.2 569.1,-46.2"/>
<text text-anchor="middle" x="600.6" y="-57.8" font-family="Times,serif" font-size="14.00">क्रियाविशेषणम्</text>
</g>
<!-- Node9_1 -->
<g id="node12" class="node">
<title>Node9_1</title>
<ellipse fill="#00bfff" stroke="#00bfff" cx="54.6" cy="-192" rx="54.69" ry="18"/>
<text text-anchor="middle" x="54.6" y="-188.3" font-family="Times,serif" font-size="14.00">धर्मात्मा(9.1)</text>
</g>
<!-- Node9_1&#45;&gt;Node8_1 -->
<g id="edge10" class="edge">
<title>Node9_1&#45;&gt;Node8_1</title>
<path fill="none" stroke="black" d="M61.65,-220.27C65.1,-233.58 69.14,-249.19 72.15,-260.82"/>
<polygon fill="black" stroke="black" points="64.94,-219.01 59.05,-210.2 58.16,-220.76 64.94,-219.01"/>
<text text-anchor="middle" x="78.6" y="-231.8" font-family="Times,serif" font-size="14.00">कर्ता</text>
</g>
<!-- Node10_1 -->
<g id="node13" class="node">
<title>Node10_1</title>
<ellipse fill="#ff99ff" stroke="#ff99ff" cx="702.6" cy="-18" rx="58.49" ry="18"/>
<text text-anchor="middle" x="702.6" y="-14.3" font-family="Times,serif" font-size="14.00">सततम्(10.1)</text>
</g>
<!-- Node10_1&#45;&gt;Node11_2 -->
<g id="edge11" class="edge">
<title>Node10_1&#45;&gt;Node11_2</title>
<path fill="none" stroke="black" d="M703.56,-46.27C704.03,-59.58 704.58,-75.19 704.99,-86.82"/>
<polygon fill="black" stroke="black" points="707.05,-46.07 703.2,-36.2 700.06,-46.32 707.05,-46.07"/>
<text text-anchor="middle" x="722.1" y="-57.8" font-family="Times,serif" font-size="14.00">सम्बन्धः</text>
</g>
<!-- Node11_1 -->
<g id="node14" class="node">
<title>Node11_1</title>
<ellipse fill="#ffff00" stroke="#ffff00" cx="830.6" cy="-18" rx="51.19" ry="18"/>
<text text-anchor="middle" x="830.6" y="-14.3" font-family="Times,serif" font-size="14.00">धर्म&#45;(11.1)</text>
</g>
<!-- Node11_1&#45;&gt;Node11_2 -->
<g id="edge12" class="edge">
<title>Node11_1&#45;&gt;Node11_2</title>
<path fill="none" stroke="black" d="M799.65,-40.04C777.76,-54.93 748.87,-74.57 728.91,-88.15"/>
<polygon fill="black" stroke="black" points="801.66,-42.91 807.96,-34.39 797.72,-37.12 801.66,-42.91"/>
<text text-anchor="middle" x="791.6" y="-57.8" font-family="Times,serif" font-size="14.00">समासः</text>
</g>
</g>
</svg>
