<?xml version="1.0" encoding="UTF-8" standalone="no"?>
<!DOCTYPE svg PUBLIC "-//W3C//DTD SVG 1.1//EN"
 "http://www.w3.org/Graphics/SVG/1.1/DTD/svg11.dtd">
<!-- Generated by graphviz version 2.43.0 (0)
 -->
<!-- Title: G Pages: 1 -->
<svg width="590pt" height="566pt"
 viewBox="0.00 0.00 590.00 566.00" xmlns="http://www.w3.org/2000/svg" xmlns:xlink="http://www.w3.org/1999/xlink">
<g id="graph0" class="graph" transform="scale(1 1) rotate(0) translate(4 562)">
<title>G</title>
<polygon fill="#fffacd" stroke="transparent" points="-4,4 -4,-562 586,-562 586,4 -4,4"/>
<g id="clust1" class="cluster">
<title>cluster_1</title>
<polygon fill="#fffacd" stroke="black" points="131,-166 131,-305 263,-305 263,-166 131,-166"/>
</g>
<g id="clust2" class="cluster">
<title>cluster_2</title>
<polygon fill="#fffacd" stroke="black" points="8,-340 8,-479 140,-479 140,-340 8,-340"/>
</g>
<!-- Node1_1 -->
<g id="node1" class="node">
<title>Node1_1</title>
<ellipse fill="#40e0d0" stroke="#40e0d0" cx="79" cy="-192" rx="42.49" ry="18"/>
<text text-anchor="middle" x="79" y="-188.3" font-family="Times,serif" font-size="14.00">येन(1.1)</text>
</g>
<!-- Node10_1 -->
<g id="node2" class="node">
<title>Node10_1</title>
<ellipse fill="#40e0d0" stroke="#40e0d0" cx="196" cy="-279" rx="55.79" ry="18"/>
<text text-anchor="middle" x="196" y="-275.3" font-family="Times,serif" font-size="14.00">प्राज्ञेन(10.1)</text>
</g>
<!-- Node1_1&#45;&gt;Node10_1 -->
<g id="edge1" class="edge">
<title>Node1_1&#45;&gt;Node10_1</title>
<path fill="none" stroke="black" d="M107.58,-214.15C119.71,-223.09 134.02,-233.59 147,-243 155.8,-249.38 165.54,-256.35 174,-262.38"/>
<polygon fill="black" stroke="black" points="109.3,-211.07 99.18,-207.95 105.15,-216.7 109.3,-211.07"/>
<text text-anchor="middle" x="169.5" y="-231.8" font-family="Times,serif" font-size="14.00">विशेषणम्</text>
</g>
<!-- Node8_1 -->
<g id="node6" class="node">
<title>Node8_1</title>
<ellipse fill="#00bfff" stroke="#00bfff" cx="429" cy="-192" rx="44.39" ry="18"/>
<text text-anchor="middle" x="429" y="-188.3" font-family="Times,serif" font-size="14.00">एषः(8.1)</text>
</g>
<!-- Node1_1&#45;&gt;Node8_1 -->
<g id="edge2" class="edge">
<title>Node1_1&#45;&gt;Node8_1</title>
<path fill="none" stroke="red" stroke-dasharray="5,2" d="M103.71,-168.82C113.73,-160.93 125.9,-153.08 138.5,-149 185.41,-133.82 329.72,-152.81 376,-166 382.14,-167.75 388.44,-170.19 394.45,-172.88"/>
<polygon fill="red" stroke="red" points="101.28,-166.28 95.84,-175.37 105.76,-171.66 101.28,-166.28"/>
<polygon fill="red" stroke="red" points="393.06,-176.1 403.59,-177.25 396.08,-169.78 393.06,-176.1"/>
<text text-anchor="middle" x="172" y="-144.8" font-family="Times,serif" font-size="14.00">नित्य_सम्बन्धः</text>
</g>
<!-- Node3_1 -->
<g id="node10" class="node">
<title>Node3_1</title>
<ellipse fill="#00bfff" stroke="#00bfff" cx="196" cy="-366" rx="48.19" ry="18"/>
<text text-anchor="middle" x="196" y="-362.3" font-family="Times,serif" font-size="14.00">जातः(3.1)</text>
</g>
<!-- Node10_1&#45;&gt;Node3_1 -->
<g id="edge13" class="edge">
<title>Node10_1&#45;&gt;Node3_1</title>
<path fill="none" stroke="black" d="M196,-307.27C196,-320.58 196,-336.19 196,-347.82"/>
<polygon fill="black" stroke="black" points="199.5,-307.2 196,-297.2 192.5,-307.2 199.5,-307.2"/>
<text text-anchor="middle" x="225.5" y="-318.8" font-family="Times,serif" font-size="14.00">प्रयोजककर्ता</text>
</g>
<!-- Node11_3 -->
<g id="node3" class="node">
<title>Node11_3</title>
<ellipse fill="#40e0d0" stroke="#40e0d0" cx="197" cy="-192" rx="57.69" ry="18"/>
<text text-anchor="middle" x="197" y="-188.3" font-family="Times,serif" font-size="14.00">बुद्धिना(11.3)</text>
</g>
<!-- Node11_3&#45;&gt;Node10_1 -->
<g id="edge16" class="edge">
<title>Node11_3&#45;&gt;Node10_1</title>
<path fill="none" stroke="black" d="M196.68,-220.27C196.52,-233.58 196.34,-249.19 196.2,-260.82"/>
<polygon fill="black" stroke="black" points="200.18,-220.24 196.8,-210.2 193.18,-220.16 200.18,-220.24"/>
<text text-anchor="middle" x="218.5" y="-231.8" font-family="Times,serif" font-size="14.00">विशेषणम्</text>
</g>
<!-- Node4_2 -->
<g id="node4" class="node">
<title>Node4_2</title>
<ellipse fill="#00bfff" stroke="#00bfff" cx="74" cy="-366" rx="46.29" ry="18"/>
<text text-anchor="middle" x="74" y="-362.3" font-family="Times,serif" font-size="14.00">राजः(4.2)</text>
</g>
<!-- Node5_1 -->
<g id="node5" class="node">
<title>Node5_1</title>
<ellipse fill="#00bfff" stroke="#00bfff" cx="74" cy="-453" rx="57.69" ry="18"/>
<text text-anchor="middle" x="74" y="-449.3" font-family="Times,serif" font-size="14.00">युधिष्ठिरः(5.1)</text>
</g>
<!-- Node4_2&#45;&gt;Node5_1 -->
<g id="edge7" class="edge">
<title>Node4_2&#45;&gt;Node5_1</title>
<path fill="none" stroke="black" d="M74,-394.27C74,-407.58 74,-423.19 74,-434.82"/>
<polygon fill="black" stroke="black" points="77.5,-394.2 74,-384.2 70.5,-394.2 77.5,-394.2"/>
<text text-anchor="middle" x="96.5" y="-405.8" font-family="Times,serif" font-size="14.00">विशेषणम्</text>
</g>
<!-- Node13_1 -->
<g id="node9" class="node">
<title>Node13_1</title>
<ellipse fill="#ff1975" stroke="#ff1975" cx="164" cy="-540" rx="62.29" ry="18"/>
<text text-anchor="middle" x="164" y="-536.3" font-family="Times,serif" font-size="14.00">(अस्ति)(13.1)</text>
</g>
<!-- Node5_1&#45;&gt;Node13_1 -->
<g id="edge8" class="edge">
<title>Node5_1&#45;&gt;Node13_1</title>
<path fill="none" stroke="black" d="M98.9,-477.52C114.1,-491.87 133.14,-509.86 146.7,-522.66"/>
<polygon fill="black" stroke="black" points="101.03,-474.71 91.35,-470.39 96.22,-479.8 101.03,-474.71"/>
<text text-anchor="middle" x="135" y="-492.8" font-family="Times,serif" font-size="14.00">कर्ता</text>
</g>
<!-- Node12_1 -->
<g id="node13" class="node">
<title>Node12_1</title>
<ellipse fill="#ff1975" stroke="#ff1975" cx="429" cy="-279" rx="62.29" ry="18"/>
<text text-anchor="middle" x="429" y="-275.3" font-family="Times,serif" font-size="14.00">(अस्ति)(12.1)</text>
</g>
<!-- Node8_1&#45;&gt;Node12_1 -->
<g id="edge11" class="edge">
<title>Node8_1&#45;&gt;Node12_1</title>
<path fill="none" stroke="black" d="M429,-220.27C429,-233.58 429,-249.19 429,-260.82"/>
<polygon fill="black" stroke="black" points="432.5,-220.2 429,-210.2 425.5,-220.2 432.5,-220.2"/>
<text text-anchor="middle" x="440" y="-231.8" font-family="Times,serif" font-size="14.00">कर्ता</text>
</g>
<!-- Node2_1 -->
<g id="node7" class="node">
<title>Node2_1</title>
<ellipse fill="#ffff00" stroke="#ffff00" cx="310" cy="-366" rx="47.39" ry="18"/>
<text text-anchor="middle" x="310" y="-362.3" font-family="Times,serif" font-size="14.00">योग&#45;(2.1)</text>
</g>
<!-- Node2_2 -->
<g id="node8" class="node">
<title>Node2_2</title>
<ellipse fill="#b4ffb4" stroke="#b4ffb4" cx="255" cy="-453" rx="50.09" ry="18"/>
<text text-anchor="middle" x="255" y="-449.3" font-family="Times,serif" font-size="14.00">बलात्(2.2)</text>
</g>
<!-- Node2_1&#45;&gt;Node2_2 -->
<g id="edge3" class="edge">
<title>Node2_1&#45;&gt;Node2_2</title>
<path fill="none" stroke="black" d="M293.56,-392.4C284.6,-406.26 273.75,-423.03 265.84,-435.24"/>
<polygon fill="black" stroke="black" points="296.64,-394.09 299.13,-383.79 290.76,-390.29 296.64,-394.09"/>
<text text-anchor="middle" x="302" y="-405.8" font-family="Times,serif" font-size="14.00">समासः</text>
</g>
<!-- Node2_2&#45;&gt;Node13_1 -->
<g id="edge4" class="edge">
<title>Node2_2&#45;&gt;Node13_1</title>
<path fill="none" stroke="black" d="M230.26,-477.11C214.89,-491.47 195.49,-509.59 181.66,-522.5"/>
<polygon fill="black" stroke="black" points="232.96,-479.37 237.88,-469.99 228.19,-474.26 232.96,-479.37"/>
<text text-anchor="middle" x="223.5" y="-492.8" font-family="Times,serif" font-size="14.00">हेतुः</text>
</g>
<!-- Node3_1&#45;&gt;Node5_1 -->
<g id="edge5" class="edge">
<title>Node3_1&#45;&gt;Node5_1</title>
<path fill="none" stroke="black" d="M165.75,-388.08C144.27,-403.04 115.92,-422.79 96.45,-436.36"/>
<polygon fill="black" stroke="black" points="167.98,-390.78 174.19,-382.2 163.98,-385.04 167.98,-390.78"/>
<text text-anchor="middle" x="181" y="-405.8" font-family="Times,serif" font-size="14.00">विधेय_विशेषणम्</text>
</g>
<!-- Node4_1 -->
<g id="node11" class="node">
<title>Node4_1</title>
<ellipse fill="#ffff00" stroke="#ffff00" cx="74" cy="-279" rx="46.29" ry="18"/>
<text text-anchor="middle" x="74" y="-275.3" font-family="Times,serif" font-size="14.00">कुरु&#45;(4.1)</text>
</g>
<!-- Node4_1&#45;&gt;Node4_2 -->
<g id="edge6" class="edge">
<title>Node4_1&#45;&gt;Node4_2</title>
<path fill="none" stroke="black" d="M74,-307.27C74,-320.58 74,-336.19 74,-347.82"/>
<polygon fill="black" stroke="black" points="77.5,-307.2 74,-297.2 70.5,-307.2 77.5,-307.2"/>
<text text-anchor="middle" x="91" y="-318.8" font-family="Times,serif" font-size="14.00">समासः</text>
</g>
<!-- Node6_1 -->
<g id="node12" class="node">
<title>Node6_1</title>
<ellipse fill="#00bfff" stroke="#00bfff" cx="536" cy="-192" rx="44.69" ry="18"/>
<text text-anchor="middle" x="536" y="-188.3" font-family="Times,serif" font-size="14.00">धर्मः(6.1)</text>
</g>
<!-- Node6_1&#45;&gt;Node12_1 -->
<g id="edge9" class="edge">
<title>Node6_1&#45;&gt;Node12_1</title>
<path fill="none" stroke="black" d="M508.31,-215C489.82,-229.68 465.94,-248.66 449.23,-261.93"/>
<polygon fill="black" stroke="black" points="510.72,-217.55 516.37,-208.59 506.37,-212.07 510.72,-217.55"/>
<text text-anchor="middle" x="535" y="-231.8" font-family="Times,serif" font-size="14.00">कर्तृसमानाधिकरणम्</text>
</g>
<!-- Node7_1 -->
<g id="node14" class="node">
<title>Node7_1</title>
<ellipse fill="#ff99ff" stroke="#ff99ff" cx="536" cy="-105" rx="44.39" ry="18"/>
<text text-anchor="middle" x="536" y="-101.3" font-family="Times,serif" font-size="14.00">इति(7.1)</text>
</g>
<!-- Node7_1&#45;&gt;Node6_1 -->
<g id="edge10" class="edge">
<title>Node7_1&#45;&gt;Node6_1</title>
<path fill="none" stroke="black" d="M536,-133.27C536,-146.58 536,-162.19 536,-173.82"/>
<polygon fill="black" stroke="black" points="539.5,-133.2 536,-123.2 532.5,-133.2 539.5,-133.2"/>
<text text-anchor="middle" x="554.5" y="-144.8" font-family="Times,serif" font-size="14.00">सम्बन्धः</text>
</g>
<!-- Node9_1 -->
<g id="node15" class="node">
<title>Node9_1</title>
<ellipse fill="#6fffc3" stroke="#6fffc3" cx="320" cy="-192" rx="46.59" ry="18"/>
<text text-anchor="middle" x="320" y="-188.3" font-family="Times,serif" font-size="14.00">नृपते(9.1)</text>
</g>
<!-- Node9_1&#45;&gt;Node12_1 -->
<g id="edge12" class="edge">
<title>Node9_1&#45;&gt;Node12_1</title>
<path fill="none" stroke="black" d="M347.26,-214.83C358.31,-223.63 371.23,-233.85 383,-243 391.08,-249.28 400.03,-256.11 407.86,-262.06"/>
<polygon fill="black" stroke="black" points="349.22,-211.92 339.22,-208.42 344.86,-217.39 349.22,-211.92"/>
<text text-anchor="middle" x="404" y="-231.8" font-family="Times,serif" font-size="14.00">सम्बोध्यः</text>
</g>
<!-- Node11_1 -->
<g id="node16" class="node">
<title>Node11_1</title>
<ellipse fill="#ffff00" stroke="#ffff00" cx="229" cy="-18" rx="47.39" ry="18"/>
<text text-anchor="middle" x="229" y="-14.3" font-family="Times,serif" font-size="14.00">अ&#45;(11.1)</text>
</g>
<!-- Node11_2 -->
<g id="node17" class="node">
<title>Node11_2</title>
<ellipse fill="#ffff00" stroke="#ffff00" cx="229" cy="-105" rx="53.09" ry="18"/>
<text text-anchor="middle" x="229" y="-101.3" font-family="Times,serif" font-size="14.00">मित&#45;(11.2)</text>
</g>
<!-- Node11_1&#45;&gt;Node11_2 -->
<g id="edge14" class="edge">
<title>Node11_1&#45;&gt;Node11_2</title>
<path fill="none" stroke="black" d="M229,-46.27C229,-59.58 229,-75.19 229,-86.82"/>
<polygon fill="black" stroke="black" points="232.5,-46.2 229,-36.2 225.5,-46.2 232.5,-46.2"/>
<text text-anchor="middle" x="246" y="-57.8" font-family="Times,serif" font-size="14.00">समासः</text>
</g>
<!-- Node11_2&#45;&gt;Node11_3 -->
<g id="edge15" class="edge">
<title>Node11_2&#45;&gt;Node11_3</title>
<path fill="none" stroke="black" d="M218.88,-132.87C213.84,-146.27 207.89,-162.08 203.47,-173.82"/>
<polygon fill="black" stroke="black" points="222.28,-133.79 222.52,-123.2 215.73,-131.33 222.28,-133.79"/>
<text text-anchor="middle" x="231" y="-144.8" font-family="Times,serif" font-size="14.00">समासः</text>
</g>
</g>
</svg>
