<?xml version="1.0" encoding="UTF-8" standalone="no"?>
<!DOCTYPE svg PUBLIC "-//W3C//DTD SVG 1.1//EN"
 "http://www.w3.org/Graphics/SVG/1.1/DTD/svg11.dtd">
<!-- Generated by graphviz version 2.43.0 (0)
 -->
<!-- Title: G Pages: 1 -->
<svg width="651pt" height="408pt"
 viewBox="0.00 0.00 651.00 408.00" xmlns="http://www.w3.org/2000/svg" xmlns:xlink="http://www.w3.org/1999/xlink">
<g id="graph0" class="graph" transform="scale(1 1) rotate(0) translate(4 404)">
<title>G</title>
<polygon fill="#fffacd" stroke="transparent" points="-4,4 -4,-404 647,-404 647,4 -4,4"/>
<g id="clust1" class="cluster">
<title>cluster_1</title>
<polygon fill="#fffacd" stroke="black" points="8,-182 8,-321 112,-321 112,-182 8,-182"/>
</g>
<g id="clust2" class="cluster">
<title>cluster_2</title>
<polygon fill="#fffacd" stroke="black" points="102,-8 102,-147 234,-147 234,-8 102,-8"/>
</g>
<g id="clust3" class="cluster">
<title>cluster_3</title>
<polygon fill="#fffacd" stroke="black" points="507,-95 507,-234 635,-234 635,-95 507,-95"/>
</g>
<!-- Node3_1 -->
<g id="node1" class="node">
<title>Node3_1</title>
<ellipse fill="#00bfff" stroke="#00bfff" cx="59" cy="-208" rx="42.49" ry="18"/>
<text text-anchor="middle" x="59" y="-204.3" font-family="Times,serif" font-size="14.00">यत्(3.1)</text>
</g>
<!-- Node6_1 -->
<g id="node2" class="node">
<title>Node6_1</title>
<ellipse fill="#00bfff" stroke="#00bfff" cx="60" cy="-295" rx="43.59" ry="18"/>
<text text-anchor="middle" x="60" y="-291.3" font-family="Times,serif" font-size="14.00">कर्म(6.1)</text>
</g>
<!-- Node3_1&#45;&gt;Node6_1 -->
<g id="edge3" class="edge">
<title>Node3_1&#45;&gt;Node6_1</title>
<path fill="none" stroke="black" d="M59.32,-236.27C59.48,-249.58 59.66,-265.19 59.8,-276.82"/>
<polygon fill="black" stroke="black" points="62.82,-236.16 59.2,-226.2 55.82,-236.24 62.82,-236.16"/>
<text text-anchor="middle" x="82.5" y="-247.8" font-family="Times,serif" font-size="14.00">विशेषणम्</text>
</g>
<!-- Node14_1 -->
<g id="node8" class="node">
<title>Node14_1</title>
<ellipse fill="#ff1975" stroke="#ff1975" cx="208" cy="-382" rx="66.09" ry="18"/>
<text text-anchor="middle" x="208" y="-378.3" font-family="Times,serif" font-size="14.00">(आसीत्)(14.1)</text>
</g>
<!-- Node6_1&#45;&gt;Node14_1 -->
<g id="edge6" class="edge">
<title>Node6_1&#45;&gt;Node14_1</title>
<path fill="none" stroke="black" d="M93.35,-315.15C119.82,-330.36 156.36,-351.34 181.02,-365.5"/>
<polygon fill="black" stroke="black" points="94.85,-311.98 84.44,-310.04 91.37,-318.05 94.85,-311.98"/>
<text text-anchor="middle" x="154" y="-334.8" font-family="Times,serif" font-size="14.00">कर्ता</text>
</g>
<!-- Node5_1 -->
<g id="node3" class="node">
<title>Node5_1</title>
<ellipse fill="#40e0d0" stroke="#40e0d0" cx="168" cy="-34" rx="51.99" ry="18"/>
<text text-anchor="middle" x="168" y="-30.3" font-family="Times,serif" font-size="14.00">कैश्चित्(5.1)</text>
</g>
<!-- Node8_2 -->
<g id="node4" class="node">
<title>Node8_2</title>
<ellipse fill="#40e0d0" stroke="#40e0d0" cx="168" cy="-121" rx="57.69" ry="18"/>
<text text-anchor="middle" x="168" y="-117.3" font-family="Times,serif" font-size="14.00">ऋषिभिः(8.2)</text>
</g>
<!-- Node5_1&#45;&gt;Node8_2 -->
<g id="edge5" class="edge">
<title>Node5_1&#45;&gt;Node8_2</title>
<path fill="none" stroke="black" d="M168,-62.27C168,-75.58 168,-91.19 168,-102.82"/>
<polygon fill="black" stroke="black" points="171.5,-62.2 168,-52.2 164.5,-62.2 171.5,-62.2"/>
<text text-anchor="middle" x="190.5" y="-73.8" font-family="Times,serif" font-size="14.00">विशेषणम्</text>
</g>
<!-- Node2_1 -->
<g id="node9" class="node">
<title>Node2_1</title>
<ellipse fill="#00bfff" stroke="#00bfff" cx="168" cy="-208" rx="48.19" ry="18"/>
<text text-anchor="middle" x="168" y="-204.3" font-family="Times,serif" font-size="14.00">कृतम्(2.1)</text>
</g>
<!-- Node8_2&#45;&gt;Node2_1 -->
<g id="edge9" class="edge">
<title>Node8_2&#45;&gt;Node2_1</title>
<path fill="none" stroke="black" d="M168,-149.27C168,-162.58 168,-178.19 168,-189.82"/>
<polygon fill="black" stroke="black" points="171.5,-149.2 168,-139.2 164.5,-149.2 171.5,-149.2"/>
<text text-anchor="middle" x="179" y="-160.8" font-family="Times,serif" font-size="14.00">कर्ता</text>
</g>
<!-- Node9_2 -->
<g id="node5" class="node">
<title>Node9_2</title>
<ellipse fill="#93db70" stroke="#93db70" cx="571" cy="-121" rx="48.19" ry="18"/>
<text text-anchor="middle" x="571" y="-117.3" font-family="Times,serif" font-size="14.00">भूतम्(9.2)</text>
</g>
<!-- Node11_1 -->
<g id="node6" class="node">
<title>Node11_1</title>
<ellipse fill="#93db70" stroke="#93db70" cx="571" cy="-208" rx="55.79" ry="18"/>
<text text-anchor="middle" x="571" y="-204.3" font-family="Times,serif" font-size="14.00">फलम्(11.1)</text>
</g>
<!-- Node9_2&#45;&gt;Node11_1 -->
<g id="edge11" class="edge">
<title>Node9_2&#45;&gt;Node11_1</title>
<path fill="none" stroke="black" d="M571,-149.27C571,-162.58 571,-178.19 571,-189.82"/>
<polygon fill="black" stroke="black" points="574.5,-149.2 571,-139.2 567.5,-149.2 574.5,-149.2"/>
<text text-anchor="middle" x="593.5" y="-160.8" font-family="Times,serif" font-size="14.00">विशेषणम्</text>
</g>
<!-- Node12_1 -->
<g id="node15" class="node">
<title>Node12_1</title>
<ellipse fill="#ff1975" stroke="#ff1975" cx="499" cy="-295" rx="68.79" ry="18"/>
<text text-anchor="middle" x="499" y="-291.3" font-family="Times,serif" font-size="14.00">संदर्शयामि(12.1)</text>
</g>
<!-- Node11_1&#45;&gt;Node12_1 -->
<g id="edge13" class="edge">
<title>Node11_1&#45;&gt;Node12_1</title>
<path fill="none" stroke="black" d="M550.15,-233.61C538.29,-247.62 523.74,-264.79 513.2,-277.24"/>
<polygon fill="black" stroke="black" points="552.98,-235.69 556.78,-225.79 547.64,-231.16 552.98,-235.69"/>
<text text-anchor="middle" x="548" y="-247.8" font-family="Times,serif" font-size="14.00">कर्म</text>
</g>
<!-- Node1_1 -->
<g id="node7" class="node">
<title>Node1_1</title>
<ellipse fill="#ff99ff" stroke="#ff99ff" cx="159" cy="-295" rx="37.09" ry="18"/>
<text text-anchor="middle" x="159" y="-291.3" font-family="Times,serif" font-size="14.00">न(1.1)</text>
</g>
<!-- Node1_1&#45;&gt;Node14_1 -->
<g id="edge1" class="edge">
<title>Node1_1&#45;&gt;Node14_1</title>
<path fill="none" stroke="black" d="M173.84,-321.74C181.72,-335.42 191.2,-351.86 198.17,-363.95"/>
<polygon fill="black" stroke="black" points="176.71,-319.71 168.68,-312.79 170.64,-323.2 176.71,-319.71"/>
<text text-anchor="middle" x="206.5" y="-334.8" font-family="Times,serif" font-size="14.00">प्रतिषेधः</text>
</g>
<!-- Node2_1&#45;&gt;Node6_1 -->
<g id="edge2" class="edge">
<title>Node2_1&#45;&gt;Node6_1</title>
<path fill="none" stroke="black" d="M142.23,-231.64C132.03,-240.38 120.12,-250.34 109,-259 100.26,-265.81 90.35,-272.98 81.75,-279.05"/>
<polygon fill="black" stroke="black" points="144.71,-234.12 149.99,-224.94 140.13,-228.83 144.71,-234.12"/>
<text text-anchor="middle" x="167" y="-247.8" font-family="Times,serif" font-size="14.00">विधेय_विशेषणम्</text>
</g>
<!-- Node4_1 -->
<g id="node10" class="node">
<title>Node4_1</title>
<ellipse fill="#ff99ff" stroke="#ff99ff" cx="257" cy="-295" rx="42.79" ry="18"/>
<text text-anchor="middle" x="257" y="-291.3" font-family="Times,serif" font-size="14.00">पुरा(4.1)</text>
</g>
<!-- Node4_1&#45;&gt;Node14_1 -->
<g id="edge4" class="edge">
<title>Node4_1&#45;&gt;Node14_1</title>
<path fill="none" stroke="black" d="M243.45,-321.87C239.24,-329.69 234.52,-338.25 230,-346 226.53,-351.95 222.57,-358.36 218.97,-364.05"/>
<polygon fill="black" stroke="black" points="246.66,-323.29 248.27,-312.82 240.48,-320 246.66,-323.29"/>
<text text-anchor="middle" x="274.5" y="-334.8" font-family="Times,serif" font-size="14.00">कालाधिकरणम्</text>
</g>
<!-- Node7_1 -->
<g id="node11" class="node">
<title>Node7_1</title>
<ellipse fill="#c6e2eb" stroke="#c6e2eb" cx="365" cy="-295" rx="46.59" ry="18"/>
<text text-anchor="middle" x="365" y="-291.3" font-family="Times,serif" font-size="14.00">लोके(7.1)</text>
</g>
<!-- Node7_1&#45;&gt;Node14_1 -->
<g id="edge7" class="edge">
<title>Node7_1&#45;&gt;Node14_1</title>
<path fill="none" stroke="black" d="M344.99,-319.87C336.26,-329.08 325.42,-339.04 314,-346 296.71,-356.54 275.87,-364.3 257.26,-369.81"/>
<polygon fill="black" stroke="black" points="347.65,-322.15 351.8,-312.4 342.48,-317.44 347.65,-322.15"/>
<text text-anchor="middle" x="365" y="-334.8" font-family="Times,serif" font-size="14.00">देशाधिकरणम्</text>
</g>
<!-- Node8_1 -->
<g id="node12" class="node">
<title>Node8_1</title>
<ellipse fill="#ffff00" stroke="#ffff00" cx="291" cy="-34" rx="49.29" ry="18"/>
<text text-anchor="middle" x="291" y="-30.3" font-family="Times,serif" font-size="14.00">महत्&#45;(8.1)</text>
</g>
<!-- Node8_1&#45;&gt;Node8_2 -->
<g id="edge8" class="edge">
<title>Node8_1&#45;&gt;Node8_2</title>
<path fill="none" stroke="black" d="M260.5,-56.08C238.85,-71.04 210.26,-90.79 190.63,-104.36"/>
<polygon fill="black" stroke="black" points="262.77,-58.76 269.01,-50.2 258.79,-53 262.77,-58.76"/>
<text text-anchor="middle" x="254" y="-73.8" font-family="Times,serif" font-size="14.00">समासः</text>
</g>
<!-- Node9_1 -->
<g id="node13" class="node">
<title>Node9_1</title>
<ellipse fill="#ffff00" stroke="#ffff00" cx="571" cy="-34" rx="54.69" ry="18"/>
<text text-anchor="middle" x="571" y="-30.3" font-family="Times,serif" font-size="14.00">आश्चर्य&#45;(9.1)</text>
</g>
<!-- Node9_1&#45;&gt;Node9_2 -->
<g id="edge10" class="edge">
<title>Node9_1&#45;&gt;Node9_2</title>
<path fill="none" stroke="black" d="M571,-62.27C571,-75.58 571,-91.19 571,-102.82"/>
<polygon fill="black" stroke="black" points="574.5,-62.2 571,-52.2 567.5,-62.2 574.5,-62.2"/>
<text text-anchor="middle" x="588" y="-73.8" font-family="Times,serif" font-size="14.00">समासः</text>
</g>
<!-- Node10_1 -->
<g id="node14" class="node">
<title>Node10_1</title>
<ellipse fill="#87ceeb" stroke="#87ceeb" cx="443" cy="-121" rx="55.79" ry="18"/>
<text text-anchor="middle" x="443" y="-117.3" font-family="Times,serif" font-size="14.00">तपसः(10.1)</text>
</g>
<!-- Node10_1&#45;&gt;Node11_1 -->
<g id="edge12" class="edge">
<title>Node10_1&#45;&gt;Node11_1</title>
<path fill="none" stroke="black" d="M471.84,-143.8C484.05,-152.79 498.54,-163.16 512,-172 522.45,-178.87 534.26,-185.99 544.54,-192"/>
<polygon fill="black" stroke="black" points="473.9,-140.97 463.79,-137.83 469.73,-146.6 473.9,-140.97"/>
<text text-anchor="middle" x="539.5" y="-160.8" font-family="Times,serif" font-size="14.00">षष्ठीसम्बन्धः</text>
</g>
<!-- Node13_1 -->
<g id="node16" class="node">
<title>Node13_1</title>
<ellipse fill="#b0e2ff" stroke="#b0e2ff" cx="452" cy="-208" rx="44.69" ry="18"/>
<text text-anchor="middle" x="452" y="-204.3" font-family="Times,serif" font-size="14.00">वः(13.1)</text>
</g>
<!-- Node13_1&#45;&gt;Node12_1 -->
<g id="edge14" class="edge">
<title>Node13_1&#45;&gt;Node12_1</title>
<path fill="none" stroke="black" d="M466.23,-234.74C473.8,-248.42 482.89,-264.86 489.57,-276.95"/>
<polygon fill="black" stroke="black" points="469.19,-232.85 461.29,-225.79 463.06,-236.24 469.19,-232.85"/>
<text text-anchor="middle" x="499.5" y="-247.8" font-family="Times,serif" font-size="14.00">प्रयोजनम्</text>
</g>
</g>
</svg>
