<?xml version="1.0" encoding="UTF-8" standalone="no"?>
<!DOCTYPE svg PUBLIC "-//W3C//DTD SVG 1.1//EN"
 "http://www.w3.org/Graphics/SVG/1.1/DTD/svg11.dtd">
<!-- Generated by graphviz version 2.43.0 (0)
 -->
<!-- Title: G Pages: 1 -->
<svg width="907pt" height="408pt"
 viewBox="0.00 0.00 906.95 408.00" xmlns="http://www.w3.org/2000/svg" xmlns:xlink="http://www.w3.org/1999/xlink">
<g id="graph0" class="graph" transform="scale(1 1) rotate(0) translate(4 404)">
<title>G</title>
<polygon fill="#fffacd" stroke="transparent" points="-4,4 -4,-404 902.95,-404 902.95,4 -4,4"/>
<g id="clust1" class="cluster">
<title>cluster_1</title>
<polygon fill="#fffacd" stroke="black" points="772.95,-182 772.95,-321 890.95,-321 890.95,-182 772.95,-182"/>
</g>
<g id="clust2" class="cluster">
<title>cluster_2</title>
<polygon fill="#fffacd" stroke="black" points="39.95,-8 39.95,-147 171.95,-147 171.95,-8 39.95,-8"/>
</g>
<!-- Node6_1 -->
<g id="node1" class="node">
<title>Node6_1</title>
<ellipse fill="#00bfff" stroke="#00bfff" cx="831.95" cy="-208" rx="51.19" ry="18"/>
<text text-anchor="middle" x="831.95" y="-204.3" font-family="Times,serif" font-size="14.00">शुश्रूषुः(6.1)</text>
</g>
<!-- Node2_1 -->
<g id="node2" class="node">
<title>Node2_1</title>
<ellipse fill="#00bfff" stroke="#00bfff" cx="828.95" cy="-295" rx="48.19" ry="18"/>
<text text-anchor="middle" x="828.95" y="-291.3" font-family="Times,serif" font-size="14.00">कुन्ती(2.1)</text>
</g>
<!-- Node6_1&#45;&gt;Node2_1 -->
<g id="edge6" class="edge">
<title>Node6_1&#45;&gt;Node2_1</title>
<path fill="none" stroke="black" d="M830.98,-236.27C830.51,-249.58 829.96,-265.19 829.55,-276.82"/>
<polygon fill="black" stroke="black" points="834.48,-236.32 831.34,-226.2 827.49,-236.07 834.48,-236.32"/>
<text text-anchor="middle" x="852.45" y="-247.8" font-family="Times,serif" font-size="14.00">विशेषणम्</text>
</g>
<!-- Node14_1 -->
<g id="node7" class="node">
<title>Node14_1</title>
<ellipse fill="#ff1975" stroke="#ff1975" cx="174.95" cy="-382" rx="62.29" ry="18"/>
<text text-anchor="middle" x="174.95" y="-378.3" font-family="Times,serif" font-size="14.00">(अस्ति)(14.1)</text>
</g>
<!-- Node2_1&#45;&gt;Node14_1 -->
<g id="edge2" class="edge">
<title>Node2_1&#45;&gt;Node14_1</title>
<path fill="none" stroke="black" d="M774.31,-303.1C651.49,-319.06 354.62,-357.65 230.72,-373.75"/>
<polygon fill="black" stroke="black" points="774.79,-306.57 784.25,-301.81 773.88,-299.63 774.79,-306.57"/>
<text text-anchor="middle" x="551.95" y="-334.8" font-family="Times,serif" font-size="14.00">कर्ता</text>
</g>
<!-- Node16_1 -->
<g id="node3" class="node">
<title>Node16_1</title>
<ellipse fill="#00bfff" stroke="#00bfff" cx="615.95" cy="-208" rx="53.09" ry="18"/>
<text text-anchor="middle" x="615.95" y="-204.3" font-family="Times,serif" font-size="14.00">(सा)(16.1)</text>
</g>
<!-- Node16_1&#45;&gt;Node2_1 -->
<g id="edge17" class="edge">
<title>Node16_1&#45;&gt;Node2_1</title>
<path fill="none" stroke="black" d="M653.04,-228.13C672.9,-237.99 697.95,-249.84 720.95,-259 744.2,-268.26 770.96,-276.95 792.03,-283.35"/>
<polygon fill="black" stroke="black" points="654.53,-224.96 644.02,-223.61 651.39,-231.22 654.53,-224.96"/>
<text text-anchor="middle" x="743.45" y="-247.8" font-family="Times,serif" font-size="14.00">विशेषणम्</text>
</g>
<!-- Node11_1 -->
<g id="node4" class="node">
<title>Node11_1</title>
<ellipse fill="#93db70" stroke="#93db70" cx="105.95" cy="-34" rx="51.19" ry="18"/>
<text text-anchor="middle" x="105.95" y="-30.3" font-family="Times,serif" font-size="14.00">स्वम्(11.1)</text>
</g>
<!-- Node10_1 -->
<g id="node5" class="node">
<title>Node10_1</title>
<ellipse fill="#93db70" stroke="#93db70" cx="105.95" cy="-121" rx="57.69" ry="18"/>
<text text-anchor="middle" x="105.95" y="-117.3" font-family="Times,serif" font-size="14.00">राज्यम्(10.1)</text>
</g>
<!-- Node11_1&#45;&gt;Node10_1 -->
<g id="edge13" class="edge">
<title>Node11_1&#45;&gt;Node10_1</title>
<path fill="none" stroke="black" d="M105.95,-62.27C105.95,-75.58 105.95,-91.19 105.95,-102.82"/>
<polygon fill="black" stroke="black" points="109.45,-62.2 105.95,-52.2 102.45,-62.2 109.45,-62.2"/>
<text text-anchor="middle" x="128.45" y="-73.8" font-family="Times,serif" font-size="14.00">विशेषणम्</text>
</g>
<!-- Node9_1 -->
<g id="node15" class="node">
<title>Node9_1</title>
<ellipse fill="#ff99ff" stroke="#ff99ff" cx="105.95" cy="-208" rx="59.59" ry="18"/>
<text text-anchor="middle" x="105.95" y="-204.3" font-family="Times,serif" font-size="14.00">परित्यज्य(9.1)</text>
</g>
<!-- Node10_1&#45;&gt;Node9_1 -->
<g id="edge12" class="edge">
<title>Node10_1&#45;&gt;Node9_1</title>
<path fill="none" stroke="black" d="M105.95,-149.27C105.95,-162.58 105.95,-178.19 105.95,-189.82"/>
<polygon fill="black" stroke="black" points="109.45,-149.2 105.95,-139.2 102.45,-149.2 109.45,-149.2"/>
<text text-anchor="middle" x="114.95" y="-160.8" font-family="Times,serif" font-size="14.00">कर्म</text>
</g>
<!-- Node1_1 -->
<g id="node6" class="node">
<title>Node1_1</title>
<ellipse fill="#ff99ff" stroke="#ff99ff" cx="53.95" cy="-295" rx="53.89" ry="18"/>
<text text-anchor="middle" x="53.95" y="-291.3" font-family="Times,serif" font-size="14.00">कच्चित्(1.1)</text>
</g>
<!-- Node1_1&#45;&gt;Node14_1 -->
<g id="edge1" class="edge">
<title>Node1_1&#45;&gt;Node14_1</title>
<path fill="none" stroke="black" d="M84.42,-317.41C105.43,-332.17 132.92,-351.48 152.07,-364.93"/>
<polygon fill="black" stroke="black" points="86.33,-314.47 76.14,-311.59 82.31,-320.2 86.33,-314.47"/>
<text text-anchor="middle" x="139.45" y="-334.8" font-family="Times,serif" font-size="14.00">सम्बन्धः</text>
</g>
<!-- Node3_1 -->
<g id="node8" class="node">
<title>Node3_1</title>
<ellipse fill="#ff99ff" stroke="#ff99ff" cx="724.95" cy="-208" rx="37.89" ry="18"/>
<text text-anchor="middle" x="724.95" y="-204.3" font-family="Times,serif" font-size="14.00">च(3.1)</text>
</g>
<!-- Node3_1&#45;&gt;Node2_1 -->
<g id="edge3" class="edge">
<title>Node3_1&#45;&gt;Node2_1</title>
<path fill="none" stroke="black" d="M750.98,-230.28C769.18,-245.16 793.11,-264.71 809.63,-278.21"/>
<polygon fill="black" stroke="black" points="753.02,-227.42 743.06,-223.81 748.59,-232.84 753.02,-227.42"/>
<text text-anchor="middle" x="801.45" y="-247.8" font-family="Times,serif" font-size="14.00">सम्बन्धः</text>
</g>
<!-- Node4_1 -->
<g id="node9" class="node">
<title>Node4_1</title>
<ellipse fill="#6fffc3" stroke="#6fffc3" cx="174.95" cy="-295" rx="48.99" ry="18"/>
<text text-anchor="middle" x="174.95" y="-291.3" font-family="Times,serif" font-size="14.00">राजन्(4.1)</text>
</g>
<!-- Node4_1&#45;&gt;Node14_1 -->
<g id="edge4" class="edge">
<title>Node4_1&#45;&gt;Node14_1</title>
<path fill="none" stroke="black" d="M174.95,-323.27C174.95,-336.58 174.95,-352.19 174.95,-363.82"/>
<polygon fill="black" stroke="black" points="178.45,-323.2 174.95,-313.2 171.45,-323.2 178.45,-323.2"/>
<text text-anchor="middle" x="195.95" y="-334.8" font-family="Times,serif" font-size="14.00">सम्बोध्यः</text>
</g>
<!-- Node5_1 -->
<g id="node10" class="node">
<title>Node5_1</title>
<ellipse fill="#93db70" stroke="#93db70" cx="831.95" cy="-121" rx="46.59" ry="18"/>
<text text-anchor="middle" x="831.95" y="-117.3" font-family="Times,serif" font-size="14.00">त्वाम्(5.1)</text>
</g>
<!-- Node5_1&#45;&gt;Node6_1 -->
<g id="edge5" class="edge">
<title>Node5_1&#45;&gt;Node6_1</title>
<path fill="none" stroke="black" d="M831.95,-149.27C831.95,-162.58 831.95,-178.19 831.95,-189.82"/>
<polygon fill="black" stroke="black" points="835.45,-149.2 831.95,-139.2 828.45,-149.2 835.45,-149.2"/>
<text text-anchor="middle" x="840.95" y="-160.8" font-family="Times,serif" font-size="14.00">कर्म</text>
</g>
<!-- Node7_1 -->
<g id="node11" class="node">
<title>Node7_1</title>
<ellipse fill="#ffff00" stroke="#ffff00" cx="536.95" cy="-121" rx="46.29" ry="18"/>
<text text-anchor="middle" x="536.95" y="-117.3" font-family="Times,serif" font-size="14.00">अन्&#45;(7.1)</text>
</g>
<!-- Node7_2 -->
<g id="node12" class="node">
<title>Node7_2</title>
<ellipse fill="#00bfff" stroke="#00bfff" cx="482.95" cy="-208" rx="61.99" ry="18"/>
<text text-anchor="middle" x="482.95" y="-204.3" font-family="Times,serif" font-size="14.00">अहङ्कृता(7.2)</text>
</g>
<!-- Node7_1&#45;&gt;Node7_2 -->
<g id="edge7" class="edge">
<title>Node7_1&#45;&gt;Node7_2</title>
<path fill="none" stroke="black" d="M527.23,-148.42C523.84,-156.29 519.68,-164.74 514.95,-172 510.72,-178.48 505.28,-184.93 500.09,-190.48"/>
<polygon fill="black" stroke="black" points="530.57,-149.49 531.1,-138.91 524.09,-146.85 530.57,-149.49"/>
<text text-anchor="middle" x="539.95" y="-160.8" font-family="Times,serif" font-size="14.00">समासः</text>
</g>
<!-- Node7_2&#45;&gt;Node2_1 -->
<g id="edge8" class="edge">
<title>Node7_2&#45;&gt;Node2_1</title>
<path fill="none" stroke="black" d="M522.95,-228C546.61,-238.54 577.44,-251.08 605.95,-259 665.79,-275.62 737.02,-285.08 782.59,-289.87"/>
<polygon fill="black" stroke="black" points="524.15,-224.7 513.6,-223.77 521.27,-231.08 524.15,-224.7"/>
<text text-anchor="middle" x="644.95" y="-247.8" font-family="Times,serif" font-size="14.00">विधेय_विशेषणम्</text>
</g>
<!-- Node8_1 -->
<g id="node13" class="node">
<title>Node8_1</title>
<ellipse fill="#00bfff" stroke="#00bfff" cx="363.95" cy="-208" rx="39.79" ry="18"/>
<text text-anchor="middle" x="363.95" y="-204.3" font-family="Times,serif" font-size="14.00">या(8.1)</text>
</g>
<!-- Node8_1&#45;&gt;Node16_1 -->
<g id="edge10" class="edge">
<title>Node8_1&#45;&gt;Node16_1</title>
<path fill="none" stroke="red" stroke-dasharray="5,2" d="M394.31,-187.47C409.3,-178.6 428.08,-169.28 446.45,-165 475.45,-158.24 484.25,-159.12 513.45,-165 535.94,-169.53 559.65,-179.13 578.6,-188.11"/>
<polygon fill="red" stroke="red" points="392.19,-184.67 385.51,-192.89 395.86,-190.63 392.19,-184.67"/>
<polygon fill="red" stroke="red" points="577.24,-191.34 587.76,-192.58 580.31,-185.05 577.24,-191.34"/>
<text text-anchor="middle" x="479.95" y="-160.8" font-family="Times,serif" font-size="14.00">नित्य_सम्बन्धः</text>
</g>
<!-- Node15_1 -->
<g id="node14" class="node">
<title>Node15_1</title>
<ellipse fill="#ff1975" stroke="#ff1975" cx="303.95" cy="-295" rx="62.29" ry="18"/>
<text text-anchor="middle" x="303.95" y="-291.3" font-family="Times,serif" font-size="14.00">(अस्ति)(15.1)</text>
</g>
<!-- Node8_1&#45;&gt;Node15_1 -->
<g id="edge9" class="edge">
<title>Node8_1&#45;&gt;Node15_1</title>
<path fill="none" stroke="black" d="M347.93,-234.05C342.64,-242.1 336.65,-251.01 330.95,-259 326.66,-265 321.8,-271.42 317.38,-277.1"/>
<polygon fill="black" stroke="black" points="351.03,-235.71 353.54,-225.42 345.16,-231.89 351.03,-235.71"/>
<text text-anchor="middle" x="351.95" y="-247.8" font-family="Times,serif" font-size="14.00">कर्ता</text>
</g>
<!-- Node9_1&#45;&gt;Node15_1 -->
<g id="edge11" class="edge">
<title>Node9_1&#45;&gt;Node15_1</title>
<path fill="none" stroke="black" d="M142.6,-228.92C161.04,-238.58 183.89,-250 204.95,-259 223.89,-267.09 245.4,-274.86 263.52,-281.01"/>
<polygon fill="black" stroke="black" points="144.13,-225.77 133.66,-224.2 140.86,-231.96 144.13,-225.77"/>
<text text-anchor="middle" x="225.45" y="-247.8" font-family="Times,serif" font-size="14.00">पूर्वकालः</text>
</g>
<!-- Node12_1 -->
<g id="node16" class="node">
<title>Node12_1</title>
<ellipse fill="#ffff00" stroke="#ffff00" cx="244.95" cy="-121" rx="50.89" ry="18"/>
<text text-anchor="middle" x="244.95" y="-117.3" font-family="Times,serif" font-size="14.00">गुरु&#45;(12.1)</text>
</g>
<!-- Node12_2 -->
<g id="node17" class="node">
<title>Node12_2</title>
<ellipse fill="#c6e2eb" stroke="#c6e2eb" cx="244.95" cy="-208" rx="61.19" ry="18"/>
<text text-anchor="middle" x="244.95" y="-204.3" font-family="Times,serif" font-size="14.00">शुश्रुषणे(12.2)</text>
</g>
<!-- Node12_1&#45;&gt;Node12_2 -->
<g id="edge14" class="edge">
<title>Node12_1&#45;&gt;Node12_2</title>
<path fill="none" stroke="black" d="M244.95,-149.27C244.95,-162.58 244.95,-178.19 244.95,-189.82"/>
<polygon fill="black" stroke="black" points="248.45,-149.2 244.95,-139.2 241.45,-149.2 248.45,-149.2"/>
<text text-anchor="middle" x="261.95" y="-160.8" font-family="Times,serif" font-size="14.00">समासः</text>
</g>
<!-- Node12_2&#45;&gt;Node15_1 -->
<g id="edge15" class="edge">
<title>Node12_2&#45;&gt;Node15_1</title>
<path fill="none" stroke="black" d="M247.94,-236.24C249.7,-244.05 252.5,-252.26 256.95,-259 261.99,-266.64 269.29,-273.24 276.65,-278.58"/>
<polygon fill="black" stroke="black" points="251.37,-235.6 246.16,-226.37 244.49,-236.84 251.37,-235.6"/>
<text text-anchor="middle" x="293.95" y="-247.8" font-family="Times,serif" font-size="14.00">विषयाधिकरणम्</text>
</g>
<!-- Node13_1 -->
<g id="node18" class="node">
<title>Node13_1</title>
<ellipse fill="#00bfff" stroke="#00bfff" cx="362.95" cy="-121" rx="48.99" ry="18"/>
<text text-anchor="middle" x="362.95" y="-117.3" font-family="Times,serif" font-size="14.00">रता(13.1)</text>
</g>
<!-- Node13_1&#45;&gt;Node8_1 -->
<g id="edge16" class="edge">
<title>Node13_1&#45;&gt;Node8_1</title>
<path fill="none" stroke="black" d="M363.27,-149.27C363.42,-162.58 363.61,-178.19 363.74,-189.82"/>
<polygon fill="black" stroke="black" points="366.77,-149.16 363.15,-139.2 359.77,-149.24 366.77,-149.16"/>
<text text-anchor="middle" x="401.95" y="-160.8" font-family="Times,serif" font-size="14.00">विधेय_विशेषणम्</text>
</g>
</g>
</svg>
