<?xml version="1.0" encoding="UTF-8" standalone="no"?>
<!DOCTYPE svg PUBLIC "-//W3C//DTD SVG 1.1//EN"
 "http://www.w3.org/Graphics/SVG/1.1/DTD/svg11.dtd">
<!-- Generated by graphviz version 2.43.0 (0)
 -->
<!-- Title: G Pages: 1 -->
<svg width="512pt" height="479pt"
 viewBox="0.00 0.00 511.54 479.00" xmlns="http://www.w3.org/2000/svg" xmlns:xlink="http://www.w3.org/1999/xlink">
<g id="graph0" class="graph" transform="scale(1 1) rotate(0) translate(4 475)">
<title>G</title>
<polygon fill="#fffacd" stroke="transparent" points="-4,4 -4,-475 507.54,-475 507.54,4 -4,4"/>
<g id="clust1" class="cluster">
<title>cluster_1</title>
<polygon fill="#fffacd" stroke="black" points="363.54,-79 363.54,-218 495.54,-218 495.54,-79 363.54,-79"/>
</g>
<g id="clust2" class="cluster">
<title>cluster_2</title>
<polygon fill="#fffacd" stroke="black" points="122.54,-253 122.54,-392 240.54,-392 240.54,-253 122.54,-253"/>
</g>
<!-- Node4_2 -->
<g id="node1" class="node">
<title>Node4_2</title>
<ellipse fill="#c6e2eb" stroke="#c6e2eb" cx="429.54" cy="-105" rx="53.89" ry="18"/>
<text text-anchor="middle" x="429.54" y="-101.3" font-family="Times,serif" font-size="14.00">आत्मसु(4.2)</text>
</g>
<!-- Node3_1 -->
<g id="node2" class="node">
<title>Node3_1</title>
<ellipse fill="#c6e2eb" stroke="#c6e2eb" cx="429.54" cy="-192" rx="57.69" ry="18"/>
<text text-anchor="middle" x="429.54" y="-188.3" font-family="Times,serif" font-size="14.00">पाण्डवेषु(3.1)</text>
</g>
<!-- Node4_2&#45;&gt;Node3_1 -->
<g id="edge5" class="edge">
<title>Node4_2&#45;&gt;Node3_1</title>
<path fill="none" stroke="black" d="M429.54,-133.27C429.54,-146.58 429.54,-162.19 429.54,-173.82"/>
<polygon fill="black" stroke="black" points="433.05,-133.2 429.54,-123.2 426.05,-133.2 433.05,-133.2"/>
<text text-anchor="middle" x="452.04" y="-144.8" font-family="Times,serif" font-size="14.00">विशेषणम्</text>
</g>
<!-- Node2_1 -->
<g id="node6" class="node">
<title>Node2_1</title>
<ellipse fill="#c6e2eb" stroke="#c6e2eb" cx="312.54" cy="-279" rx="64.19" ry="18"/>
<text text-anchor="middle" x="312.54" y="-275.3" font-family="Times,serif" font-size="14.00">समुपविष्टेषु(2.1)</text>
</g>
<!-- Node3_1&#45;&gt;Node2_1 -->
<g id="edge3" class="edge">
<title>Node3_1&#45;&gt;Node2_1</title>
<path fill="none" stroke="black" d="M410.75,-217.58C403.24,-226.33 394.12,-235.79 384.54,-243 373.55,-251.27 360.29,-258.38 348.17,-263.99"/>
<polygon fill="black" stroke="black" points="413.48,-219.77 417.14,-209.83 408.08,-215.32 413.48,-219.77"/>
<text text-anchor="middle" x="411.54" y="-231.8" font-family="Times,serif" font-size="14.00">कर्ता</text>
</g>
<!-- Node6_2 -->
<g id="node3" class="node">
<title>Node6_2</title>
<ellipse fill="#00bfff" stroke="#00bfff" cx="181.54" cy="-279" rx="44.69" ry="18"/>
<text text-anchor="middle" x="181.54" y="-275.3" font-family="Times,serif" font-size="14.00">पुत्रः(6.2)</text>
</g>
<!-- Node5_1 -->
<g id="node4" class="node">
<title>Node5_1</title>
<ellipse fill="#00bfff" stroke="#00bfff" cx="181.54" cy="-366" rx="50.89" ry="18"/>
<text text-anchor="middle" x="181.54" y="-362.3" font-family="Times,serif" font-size="14.00">व्यासः(5.1)</text>
</g>
<!-- Node6_2&#45;&gt;Node5_1 -->
<g id="edge8" class="edge">
<title>Node6_2&#45;&gt;Node5_1</title>
<path fill="none" stroke="black" d="M181.54,-307.27C181.54,-320.58 181.54,-336.19 181.54,-347.82"/>
<polygon fill="black" stroke="black" points="185.05,-307.2 181.54,-297.2 178.05,-307.2 185.05,-307.2"/>
<text text-anchor="middle" x="204.04" y="-318.8" font-family="Times,serif" font-size="14.00">विशेषणम्</text>
</g>
<!-- Node7_1 -->
<g id="node8" class="node">
<title>Node7_1</title>
<ellipse fill="#ff1975" stroke="#ff1975" cx="118.54" cy="-453" rx="51.99" ry="18"/>
<text text-anchor="middle" x="118.54" y="-449.3" font-family="Times,serif" font-size="14.00">प्रोवाच(7.1)</text>
</g>
<!-- Node5_1&#45;&gt;Node7_1 -->
<g id="edge6" class="edge">
<title>Node5_1&#45;&gt;Node7_1</title>
<path fill="none" stroke="black" d="M163.01,-392.01C152.68,-405.94 140.11,-422.91 130.97,-435.24"/>
<polygon fill="black" stroke="black" points="165.96,-393.91 169.1,-383.79 160.33,-389.74 165.96,-393.91"/>
<text text-anchor="middle" x="165.54" y="-405.8" font-family="Times,serif" font-size="14.00">कर्ता</text>
</g>
<!-- Node1_1 -->
<g id="node5" class="node">
<title>Node1_1</title>
<ellipse fill="#ff99ff" stroke="#ff99ff" cx="308.54" cy="-192" rx="44.69" ry="18"/>
<text text-anchor="middle" x="308.54" y="-188.3" font-family="Times,serif" font-size="14.00">तथा(1.1)</text>
</g>
<!-- Node1_1&#45;&gt;Node2_1 -->
<g id="edge1" class="edge">
<title>Node1_1&#45;&gt;Node2_1</title>
<path fill="none" stroke="black" d="M309.83,-220.27C310.45,-233.58 311.19,-249.19 311.74,-260.82"/>
<polygon fill="black" stroke="black" points="313.32,-220.03 309.35,-210.2 306.33,-220.35 313.32,-220.03"/>
<text text-anchor="middle" x="345.54" y="-231.8" font-family="Times,serif" font-size="14.00">क्रियाविशेषणम्</text>
</g>
<!-- Node2_1&#45;&gt;Node5_1 -->
<g id="edge2" class="edge">
<title>Node2_1&#45;&gt;Node5_1</title>
<path fill="none" stroke="black" d="M279.68,-301.32C256.38,-316.44 225.68,-336.36 204.87,-349.87"/>
<polygon fill="black" stroke="black" points="281.73,-304.17 288.21,-295.79 277.92,-298.3 281.73,-304.17"/>
<text text-anchor="middle" x="318.54" y="-318.8" font-family="Times,serif" font-size="14.00">भावलक्षणसप्तमी_पूर्वकालः</text>
</g>
<!-- Node4_1 -->
<g id="node7" class="node">
<title>Node4_1</title>
<ellipse fill="#ffff00" stroke="#ffff00" cx="429.54" cy="-18" rx="49.29" ry="18"/>
<text text-anchor="middle" x="429.54" y="-14.3" font-family="Times,serif" font-size="14.00">महत्&#45;(4.1)</text>
</g>
<!-- Node4_1&#45;&gt;Node4_2 -->
<g id="edge4" class="edge">
<title>Node4_1&#45;&gt;Node4_2</title>
<path fill="none" stroke="black" d="M429.54,-46.27C429.54,-59.58 429.54,-75.19 429.54,-86.82"/>
<polygon fill="black" stroke="black" points="433.05,-46.2 429.54,-36.2 426.05,-46.2 433.05,-46.2"/>
<text text-anchor="middle" x="446.54" y="-57.8" font-family="Times,serif" font-size="14.00">समासः</text>
</g>
<!-- Node6_1 -->
<g id="node9" class="node">
<title>Node6_1</title>
<ellipse fill="#ffff00" stroke="#ffff00" cx="181.54" cy="-192" rx="61.19" ry="18"/>
<text text-anchor="middle" x="181.54" y="-188.3" font-family="Times,serif" font-size="14.00">सत्यवती&#45;(6.1)</text>
</g>
<!-- Node6_1&#45;&gt;Node6_2 -->
<g id="edge7" class="edge">
<title>Node6_1&#45;&gt;Node6_2</title>
<path fill="none" stroke="black" d="M181.54,-220.27C181.54,-233.58 181.54,-249.19 181.54,-260.82"/>
<polygon fill="black" stroke="black" points="185.05,-220.2 181.54,-210.2 178.05,-220.2 185.05,-220.2"/>
<text text-anchor="middle" x="198.54" y="-231.8" font-family="Times,serif" font-size="14.00">समासः</text>
</g>
<!-- Node8_1 -->
<g id="node10" class="node">
<title>Node8_1</title>
<ellipse fill="#ff99ff" stroke="#ff99ff" cx="56.54" cy="-366" rx="56.59" ry="18"/>
<text text-anchor="middle" x="56.54" y="-362.3" font-family="Times,serif" font-size="14.00">आमन्त्र्य(8.1)</text>
</g>
<!-- Node8_1&#45;&gt;Node7_1 -->
<g id="edge9" class="edge">
<title>Node8_1&#45;&gt;Node7_1</title>
<path fill="none" stroke="black" d="M74.79,-392.01C84.95,-405.94 97.33,-422.91 106.32,-435.24"/>
<polygon fill="black" stroke="black" points="77.51,-389.81 68.79,-383.79 71.86,-393.93 77.51,-389.81"/>
<text text-anchor="middle" x="112.04" y="-405.8" font-family="Times,serif" font-size="14.00">पूर्वकालः</text>
</g>
<!-- Node9_1 -->
<g id="node11" class="node">
<title>Node9_1</title>
<ellipse fill="#93db70" stroke="#93db70" cx="56.54" cy="-279" rx="56.59" ry="18"/>
<text text-anchor="middle" x="56.54" y="-275.3" font-family="Times,serif" font-size="14.00">पार्थिवम्(9.1)</text>
</g>
<!-- Node9_1&#45;&gt;Node8_1 -->
<g id="edge10" class="edge">
<title>Node9_1&#45;&gt;Node8_1</title>
<path fill="none" stroke="black" d="M56.54,-307.27C56.54,-320.58 56.54,-336.19 56.54,-347.82"/>
<polygon fill="black" stroke="black" points="60.05,-307.2 56.54,-297.2 53.05,-307.2 60.05,-307.2"/>
<text text-anchor="middle" x="65.54" y="-318.8" font-family="Times,serif" font-size="14.00">कर्म</text>
</g>
</g>
</svg>
