<?xml version="1.0" encoding="UTF-8" standalone="no"?>
<!DOCTYPE svg PUBLIC "-//W3C//DTD SVG 1.1//EN"
 "http://www.w3.org/Graphics/SVG/1.1/DTD/svg11.dtd">
<!-- Generated by graphviz version 2.43.0 (0)
 -->
<!-- Title: G Pages: 1 -->
<svg width="946pt" height="218pt"
 viewBox="0.00 0.00 946.09 218.00" xmlns="http://www.w3.org/2000/svg" xmlns:xlink="http://www.w3.org/1999/xlink">
<g id="graph0" class="graph" transform="scale(1 1) rotate(0) translate(4 214)">
<title>G</title>
<polygon fill="#fffacd" stroke="transparent" points="-4,4 -4,-214 942.09,-214 942.09,4 -4,4"/>
<!-- Node1_1 -->
<g id="node1" class="node">
<title>Node1_1</title>
<ellipse fill="#6fffc3" stroke="#6fffc3" cx="55.9" cy="-105" rx="55.79" ry="18"/>
<text text-anchor="middle" x="55.9" y="-101.3" font-family="Times,serif" font-size="14.00">धृतराष्ट्र(1.1)</text>
</g>
<!-- Node5_1 -->
<g id="node2" class="node">
<title>Node5_1</title>
<ellipse fill="#ff1975" stroke="#ff1975" cx="248.9" cy="-192" rx="46.59" ry="18"/>
<text text-anchor="middle" x="248.9" y="-188.3" font-family="Times,serif" font-size="14.00">वर्धते(5.1)</text>
</g>
<!-- Node1_1&#45;&gt;Node5_1 -->
<g id="edge1" class="edge">
<title>Node1_1&#45;&gt;Node5_1</title>
<path fill="none" stroke="black" d="M94.88,-124.8C115.07,-134.38 140.19,-146.08 162.9,-156 180.77,-163.81 200.96,-172.05 217.28,-178.58"/>
<polygon fill="black" stroke="black" points="96.22,-121.56 85.69,-120.42 93.21,-127.88 96.22,-121.56"/>
<text text-anchor="middle" x="183.9" y="-144.8" font-family="Times,serif" font-size="14.00">सम्बोध्यः</text>
</g>
<!-- Node2_1 -->
<g id="node3" class="node">
<title>Node2_1</title>
<ellipse fill="#ffff00" stroke="#ffff00" cx="175.9" cy="-18" rx="49.29" ry="18"/>
<text text-anchor="middle" x="175.9" y="-14.3" font-family="Times,serif" font-size="14.00">महत्&#45;(2.1)</text>
</g>
<!-- Node2_2 -->
<g id="node4" class="node">
<title>Node2_2</title>
<ellipse fill="#6fffc3" stroke="#6fffc3" cx="175.9" cy="-105" rx="46.29" ry="18"/>
<text text-anchor="middle" x="175.9" y="-101.3" font-family="Times,serif" font-size="14.00">बाहो(2.2)</text>
</g>
<!-- Node2_1&#45;&gt;Node2_2 -->
<g id="edge2" class="edge">
<title>Node2_1&#45;&gt;Node2_2</title>
<path fill="none" stroke="black" d="M175.9,-46.27C175.9,-59.58 175.9,-75.19 175.9,-86.82"/>
<polygon fill="black" stroke="black" points="179.4,-46.2 175.9,-36.2 172.4,-46.2 179.4,-46.2"/>
<text text-anchor="middle" x="192.9" y="-57.8" font-family="Times,serif" font-size="14.00">समासः</text>
</g>
<!-- Node2_2&#45;&gt;Node5_1 -->
<g id="edge3" class="edge">
<title>Node2_2&#45;&gt;Node5_1</title>
<path fill="none" stroke="black" d="M196.77,-130.31C208.98,-144.53 224.07,-162.09 234.86,-174.66"/>
<polygon fill="black" stroke="black" points="199.14,-127.69 189.97,-122.39 193.83,-132.26 199.14,-127.69"/>
<text text-anchor="middle" x="237.9" y="-144.8" font-family="Times,serif" font-size="14.00">सम्बोध्यः</text>
</g>
<!-- Node3_1 -->
<g id="node5" class="node">
<title>Node3_1</title>
<ellipse fill="#ff99ff" stroke="#ff99ff" cx="293.9" cy="-105" rx="53.89" ry="18"/>
<text text-anchor="middle" x="293.9" y="-101.3" font-family="Times,serif" font-size="14.00">कच्चित्(3.1)</text>
</g>
<!-- Node3_1&#45;&gt;Node5_1 -->
<g id="edge4" class="edge">
<title>Node3_1&#45;&gt;Node5_1</title>
<path fill="none" stroke="black" d="M280.24,-131.8C272.94,-145.58 264.17,-162.14 257.77,-174.24"/>
<polygon fill="black" stroke="black" points="283.42,-133.27 285,-122.79 277.23,-129.99 283.42,-133.27"/>
<text text-anchor="middle" x="293.4" y="-144.8" font-family="Times,serif" font-size="14.00">सम्बन्धः</text>
</g>
<!-- Node4_1 -->
<g id="node6" class="node">
<title>Node4_1</title>
<ellipse fill="#87ceeb" stroke="#87ceeb" cx="409.9" cy="-18" rx="37.09" ry="18"/>
<text text-anchor="middle" x="409.9" y="-14.3" font-family="Times,serif" font-size="14.00">ते(4.1)</text>
</g>
<!-- Node6_1 -->
<g id="node7" class="node">
<title>Node6_1</title>
<ellipse fill="#00bfff" stroke="#00bfff" cx="409.9" cy="-105" rx="44.39" ry="18"/>
<text text-anchor="middle" x="409.9" y="-101.3" font-family="Times,serif" font-size="14.00">तपः(6.1)</text>
</g>
<!-- Node4_1&#45;&gt;Node6_1 -->
<g id="edge5" class="edge">
<title>Node4_1&#45;&gt;Node6_1</title>
<path fill="none" stroke="black" d="M409.9,-46.27C409.9,-59.58 409.9,-75.19 409.9,-86.82"/>
<polygon fill="black" stroke="black" points="413.4,-46.2 409.9,-36.2 406.4,-46.2 413.4,-46.2"/>
<text text-anchor="middle" x="437.4" y="-57.8" font-family="Times,serif" font-size="14.00">षष्ठीसम्बन्धः</text>
</g>
<!-- Node6_1&#45;&gt;Node5_1 -->
<g id="edge6" class="edge">
<title>Node6_1&#45;&gt;Node5_1</title>
<path fill="none" stroke="black" d="M375.14,-124.57C357.42,-134.01 335.53,-145.65 315.9,-156 302.66,-162.98 287.93,-170.68 275.65,-177.08"/>
<polygon fill="black" stroke="black" points="376.81,-127.64 383.99,-119.85 373.52,-121.46 376.81,-127.64"/>
<text text-anchor="middle" x="352.9" y="-144.8" font-family="Times,serif" font-size="14.00">कर्ता</text>
</g>
<!-- Node7_1 -->
<g id="node8" class="node">
<title>Node7_1</title>
<ellipse fill="#ff99ff" stroke="#ff99ff" cx="525.9" cy="-105" rx="53.89" ry="18"/>
<text text-anchor="middle" x="525.9" y="-101.3" font-family="Times,serif" font-size="14.00">कच्चित्(7.1)</text>
</g>
<!-- Node10_1 -->
<g id="node9" class="node">
<title>Node10_1</title>
<ellipse fill="#ff1975" stroke="#ff1975" cx="697.9" cy="-192" rx="61.99" ry="18"/>
<text text-anchor="middle" x="697.9" y="-188.3" font-family="Times,serif" font-size="14.00">प्रीणाति(10.1)</text>
</g>
<!-- Node7_1&#45;&gt;Node10_1 -->
<g id="edge7" class="edge">
<title>Node7_1&#45;&gt;Node10_1</title>
<path fill="none" stroke="black" d="M563.4,-124.88C582.15,-134.28 605.19,-145.79 625.9,-156 639.48,-162.7 654.55,-170.04 667.38,-176.26"/>
<polygon fill="black" stroke="black" points="564.81,-121.67 554.3,-120.31 561.67,-127.92 564.81,-121.67"/>
<text text-anchor="middle" x="644.4" y="-144.8" font-family="Times,serif" font-size="14.00">सम्बन्धः</text>
</g>
<!-- Node8_1 -->
<g id="node10" class="node">
<title>Node8_1</title>
<ellipse fill="#00bfff" stroke="#00bfff" cx="641.9" cy="-105" rx="44.39" ry="18"/>
<text text-anchor="middle" x="641.9" y="-101.3" font-family="Times,serif" font-size="14.00">मनः(8.1)</text>
</g>
<!-- Node8_1&#45;&gt;Node10_1 -->
<g id="edge8" class="edge">
<title>Node8_1&#45;&gt;Node10_1</title>
<path fill="none" stroke="black" d="M658.63,-131.4C667.76,-145.26 678.81,-162.03 686.85,-174.24"/>
<polygon fill="black" stroke="black" points="661.38,-129.22 652.96,-122.79 655.54,-133.07 661.38,-129.22"/>
<text text-anchor="middle" x="684.9" y="-144.8" font-family="Times,serif" font-size="14.00">कर्ता</text>
</g>
<!-- Node9_1 -->
<g id="node11" class="node">
<title>Node9_1</title>
<ellipse fill="#87ceeb" stroke="#87ceeb" cx="641.9" cy="-18" rx="37.09" ry="18"/>
<text text-anchor="middle" x="641.9" y="-14.3" font-family="Times,serif" font-size="14.00">ते(9.1)</text>
</g>
<!-- Node9_1&#45;&gt;Node8_1 -->
<g id="edge9" class="edge">
<title>Node9_1&#45;&gt;Node8_1</title>
<path fill="none" stroke="black" d="M641.9,-46.27C641.9,-59.58 641.9,-75.19 641.9,-86.82"/>
<polygon fill="black" stroke="black" points="645.4,-46.2 641.9,-36.2 638.4,-46.2 645.4,-46.2"/>
<text text-anchor="middle" x="669.4" y="-57.8" font-family="Times,serif" font-size="14.00">षष्ठीसम्बन्धः</text>
</g>
<!-- Node11_1 -->
<g id="node12" class="node">
<title>Node11_1</title>
<ellipse fill="#ffff00" stroke="#ffff00" cx="754.9" cy="-18" rx="50.09" ry="18"/>
<text text-anchor="middle" x="754.9" y="-14.3" font-family="Times,serif" font-size="14.00">वन&#45;(11.1)</text>
</g>
<!-- Node11_2 -->
<g id="node13" class="node">
<title>Node11_2</title>
<ellipse fill="#c6e2eb" stroke="#c6e2eb" cx="754.9" cy="-105" rx="50.89" ry="18"/>
<text text-anchor="middle" x="754.9" y="-101.3" font-family="Times,serif" font-size="14.00">वासे(11.2)</text>
</g>
<!-- Node11_1&#45;&gt;Node11_2 -->
<g id="edge10" class="edge">
<title>Node11_1&#45;&gt;Node11_2</title>
<path fill="none" stroke="black" d="M754.9,-46.27C754.9,-59.58 754.9,-75.19 754.9,-86.82"/>
<polygon fill="black" stroke="black" points="758.4,-46.2 754.9,-36.2 751.4,-46.2 758.4,-46.2"/>
<text text-anchor="middle" x="771.9" y="-57.8" font-family="Times,serif" font-size="14.00">समासः</text>
</g>
<!-- Node11_2&#45;&gt;Node10_1 -->
<g id="edge11" class="edge">
<title>Node11_2&#45;&gt;Node10_1</title>
<path fill="none" stroke="black" d="M737.86,-131.4C728.57,-145.26 717.32,-162.03 709.13,-174.24"/>
<polygon fill="black" stroke="black" points="740.97,-133.05 743.63,-122.79 735.16,-129.15 740.97,-133.05"/>
<text text-anchor="middle" x="761.9" y="-144.8" font-family="Times,serif" font-size="14.00">देशाधिकरणम्</text>
</g>
<!-- Node12_1 -->
<g id="node14" class="node">
<title>Node12_1</title>
<ellipse fill="#ffff00" stroke="#ffff00" cx="880.9" cy="-18" rx="49.29" ry="18"/>
<text text-anchor="middle" x="880.9" y="-14.3" font-family="Times,serif" font-size="14.00">नर&#45;(12.1)</text>
</g>
<!-- Node12_2 -->
<g id="node15" class="node">
<title>Node12_2</title>
<ellipse fill="#6fffc3" stroke="#6fffc3" cx="880.9" cy="-105" rx="57.39" ry="18"/>
<text text-anchor="middle" x="880.9" y="-101.3" font-family="Times,serif" font-size="14.00">अधिप(12.2)</text>
</g>
<!-- Node12_1&#45;&gt;Node12_2 -->
<g id="edge12" class="edge">
<title>Node12_1&#45;&gt;Node12_2</title>
<path fill="none" stroke="black" d="M880.9,-46.27C880.9,-59.58 880.9,-75.19 880.9,-86.82"/>
<polygon fill="black" stroke="black" points="884.4,-46.2 880.9,-36.2 877.4,-46.2 884.4,-46.2"/>
<text text-anchor="middle" x="897.9" y="-57.8" font-family="Times,serif" font-size="14.00">समासः</text>
</g>
<!-- Node12_2&#45;&gt;Node10_1 -->
<g id="edge13" class="edge">
<title>Node12_2&#45;&gt;Node10_1</title>
<path fill="none" stroke="black" d="M849.5,-127.01C834.32,-136.62 815.58,-147.68 797.9,-156 779.25,-164.76 757.78,-172.56 739.52,-178.55"/>
<polygon fill="black" stroke="black" points="851.47,-129.9 857.99,-121.55 847.69,-124.01 851.47,-129.9"/>
<text text-anchor="middle" x="847.9" y="-144.8" font-family="Times,serif" font-size="14.00">सम्बोध्यः</text>
</g>
</g>
</svg>
