<?xml version="1.0" encoding="UTF-8" standalone="no"?>
<!DOCTYPE svg PUBLIC "-//W3C//DTD SVG 1.1//EN"
 "http://www.w3.org/Graphics/SVG/1.1/DTD/svg11.dtd">
<!-- Generated by graphviz version 2.43.0 (0)
 -->
<!-- Title: G Pages: 1 -->
<svg width="797pt" height="305pt"
 viewBox="0.00 0.00 797.19 305.00" xmlns="http://www.w3.org/2000/svg" xmlns:xlink="http://www.w3.org/1999/xlink">
<g id="graph0" class="graph" transform="scale(1 1) rotate(0) translate(4 301)">
<title>G</title>
<polygon fill="#fffacd" stroke="transparent" points="-4,4 -4,-301 793.19,-301 793.19,4 -4,4"/>
<g id="clust1" class="cluster">
<title>cluster_1</title>
<polygon fill="#fffacd" stroke="black" points="347.95,-79 347.95,-218 455.95,-218 455.95,-79 347.95,-79"/>
</g>
<g id="clust2" class="cluster">
<title>cluster_2</title>
<polygon fill="#fffacd" stroke="black" points="582.95,-79 582.95,-218 694.95,-218 694.95,-79 582.95,-79"/>
</g>
<!-- Node2_2 -->
<g id="node1" class="node">
<title>Node2_2</title>
<ellipse fill="#00bfff" stroke="#00bfff" cx="401.95" cy="-105" rx="45.49" ry="18"/>
<text text-anchor="middle" x="401.95" y="-101.3" font-family="Times,serif" font-size="14.00">सुतः(2.2)</text>
</g>
<!-- Node3_1 -->
<g id="node2" class="node">
<title>Node3_1</title>
<ellipse fill="#00bfff" stroke="#00bfff" cx="401.95" cy="-192" rx="46.29" ry="18"/>
<text text-anchor="middle" x="401.95" y="-188.3" font-family="Times,serif" font-size="14.00">राजा(3.1)</text>
</g>
<!-- Node2_2&#45;&gt;Node3_1 -->
<g id="edge3" class="edge">
<title>Node2_2&#45;&gt;Node3_1</title>
<path fill="none" stroke="black" d="M401.95,-133.27C401.95,-146.58 401.95,-162.19 401.95,-173.82"/>
<polygon fill="black" stroke="black" points="405.45,-133.2 401.95,-123.2 398.45,-133.2 405.45,-133.2"/>
<text text-anchor="middle" x="424.45" y="-144.8" font-family="Times,serif" font-size="14.00">विशेषणम्</text>
</g>
<!-- Node6_1 -->
<g id="node6" class="node">
<title>Node6_1</title>
<ellipse fill="#00bfff" stroke="#00bfff" cx="230.95" cy="-279" rx="68.49" ry="18"/>
<text text-anchor="middle" x="230.95" y="-275.3" font-family="Times,serif" font-size="14.00">अभिनन्दितः(6.1)</text>
</g>
<!-- Node3_1&#45;&gt;Node6_1 -->
<g id="edge4" class="edge">
<title>Node3_1&#45;&gt;Node6_1</title>
<path fill="none" stroke="black" d="M365.31,-211.21C334.38,-226.58 290.61,-248.34 261.53,-262.8"/>
<polygon fill="black" stroke="black" points="367.07,-214.24 374.47,-206.66 363.96,-207.97 367.07,-214.24"/>
<text text-anchor="middle" x="335.95" y="-231.8" font-family="Times,serif" font-size="14.00">कर्म</text>
</g>
<!-- Node10_1 -->
<g id="node3" class="node">
<title>Node10_1</title>
<ellipse fill="#00bfff" stroke="#00bfff" cx="638.95" cy="-105" rx="48.19" ry="18"/>
<text text-anchor="middle" x="638.95" y="-101.3" font-family="Times,serif" font-size="14.00">एते(10.1)</text>
</g>
<!-- Node7_3 -->
<g id="node4" class="node">
<title>Node7_3</title>
<ellipse fill="#00bfff" stroke="#00bfff" cx="638.95" cy="-192" rx="46.59" ry="18"/>
<text text-anchor="middle" x="638.95" y="-188.3" font-family="Times,serif" font-size="14.00">यमाः(7.3)</text>
</g>
<!-- Node10_1&#45;&gt;Node7_3 -->
<g id="edge12" class="edge">
<title>Node10_1&#45;&gt;Node7_3</title>
<path fill="none" stroke="black" d="M638.95,-133.27C638.95,-146.58 638.95,-162.19 638.95,-173.82"/>
<polygon fill="black" stroke="black" points="642.45,-133.2 638.95,-123.2 635.45,-133.2 642.45,-133.2"/>
<text text-anchor="middle" x="661.45" y="-144.8" font-family="Times,serif" font-size="14.00">विशेषणम्</text>
</g>
<!-- Node12_1 -->
<g id="node12" class="node">
<title>Node12_1</title>
<ellipse fill="#00bfff" stroke="#00bfff" cx="563.95" cy="-279" rx="68.49" ry="18"/>
<text text-anchor="middle" x="563.95" y="-275.3" font-family="Times,serif" font-size="14.00">सान्त्विताः(12.1)</text>
</g>
<!-- Node7_3&#45;&gt;Node12_1 -->
<g id="edge9" class="edge">
<title>Node7_3&#45;&gt;Node12_1</title>
<path fill="none" stroke="black" d="M617.54,-217.26C605.09,-231.37 589.7,-248.81 578.62,-261.37"/>
<polygon fill="black" stroke="black" points="620.49,-219.2 624.48,-209.39 615.24,-214.57 620.49,-219.2"/>
<text text-anchor="middle" x="613.95" y="-231.8" font-family="Times,serif" font-size="14.00">कर्म</text>
</g>
<!-- Node1_1 -->
<g id="node5" class="node">
<title>Node1_1</title>
<ellipse fill="#ff99ff" stroke="#ff99ff" cx="53.95" cy="-192" rx="53.89" ry="18"/>
<text text-anchor="middle" x="53.95" y="-188.3" font-family="Times,serif" font-size="14.00">कच्चित्(1.1)</text>
</g>
<!-- Node1_1&#45;&gt;Node6_1 -->
<g id="edge1" class="edge">
<title>Node1_1&#45;&gt;Node6_1</title>
<path fill="none" stroke="black" d="M92.73,-211.66C112.29,-221.06 136.37,-232.64 157.95,-243 171.5,-249.51 186.48,-256.69 199.32,-262.85"/>
<polygon fill="black" stroke="black" points="94.06,-208.41 83.53,-207.23 91.02,-214.72 94.06,-208.41"/>
<text text-anchor="middle" x="176.45" y="-231.8" font-family="Times,serif" font-size="14.00">सम्बन्धः</text>
</g>
<!-- Node2_1 -->
<g id="node7" class="node">
<title>Node2_1</title>
<ellipse fill="#ffff00" stroke="#ffff00" cx="401.95" cy="-18" rx="45.49" ry="18"/>
<text text-anchor="middle" x="401.95" y="-14.3" font-family="Times,serif" font-size="14.00">धर्म&#45;(2.1)</text>
</g>
<!-- Node2_1&#45;&gt;Node2_2 -->
<g id="edge2" class="edge">
<title>Node2_1&#45;&gt;Node2_2</title>
<path fill="none" stroke="black" d="M401.95,-46.27C401.95,-59.58 401.95,-75.19 401.95,-86.82"/>
<polygon fill="black" stroke="black" points="405.45,-46.2 401.95,-36.2 398.45,-46.2 405.45,-46.2"/>
<text text-anchor="middle" x="418.95" y="-57.8" font-family="Times,serif" font-size="14.00">समासः</text>
</g>
<!-- Node4_1 -->
<g id="node8" class="node">
<title>Node4_1</title>
<ellipse fill="#40e0d0" stroke="#40e0d0" cx="172.95" cy="-192" rx="46.59" ry="18"/>
<text text-anchor="middle" x="172.95" y="-188.3" font-family="Times,serif" font-size="14.00">त्वया(4.1)</text>
</g>
<!-- Node4_1&#45;&gt;Node6_1 -->
<g id="edge5" class="edge">
<title>Node4_1&#45;&gt;Node6_1</title>
<path fill="none" stroke="black" d="M190.28,-218.4C199.73,-232.26 211.17,-249.03 219.51,-261.24"/>
<polygon fill="black" stroke="black" points="192.93,-216.08 184.4,-209.79 187.15,-220.03 192.93,-216.08"/>
<text text-anchor="middle" x="216.95" y="-231.8" font-family="Times,serif" font-size="14.00">कर्ता</text>
</g>
<!-- Node5_1 -->
<g id="node9" class="node">
<title>Node5_1</title>
<ellipse fill="#40e0d0" stroke="#40e0d0" cx="287.95" cy="-192" rx="50.09" ry="18"/>
<text text-anchor="middle" x="287.95" y="-188.3" font-family="Times,serif" font-size="14.00">प्रीत्या(5.1)</text>
</g>
<!-- Node5_1&#45;&gt;Node6_1 -->
<g id="edge6" class="edge">
<title>Node5_1&#45;&gt;Node6_1</title>
<path fill="none" stroke="black" d="M270.91,-218.4C261.62,-232.26 250.37,-249.03 242.18,-261.24"/>
<polygon fill="black" stroke="black" points="274.02,-220.05 276.68,-209.79 268.21,-216.15 274.02,-220.05"/>
<text text-anchor="middle" x="279.45" y="-231.8" font-family="Times,serif" font-size="14.00">करणम्</text>
</g>
<!-- Node7_1 -->
<g id="node10" class="node">
<title>Node7_1</title>
<ellipse fill="#ffff00" stroke="#ffff00" cx="520.95" cy="-18" rx="48.19" ry="18"/>
<text text-anchor="middle" x="520.95" y="-14.3" font-family="Times,serif" font-size="14.00">भीम&#45;(7.1)</text>
</g>
<!-- Node7_2 -->
<g id="node11" class="node">
<title>Node7_2</title>
<ellipse fill="#ffff00" stroke="#ffff00" cx="520.95" cy="-105" rx="51.99" ry="18"/>
<text text-anchor="middle" x="520.95" y="-101.3" font-family="Times,serif" font-size="14.00">अर्जुन&#45;(7.2)</text>
</g>
<!-- Node7_1&#45;&gt;Node7_2 -->
<g id="edge7" class="edge">
<title>Node7_1&#45;&gt;Node7_2</title>
<path fill="none" stroke="black" d="M520.95,-46.27C520.95,-59.58 520.95,-75.19 520.95,-86.82"/>
<polygon fill="black" stroke="black" points="524.45,-46.2 520.95,-36.2 517.45,-46.2 524.45,-46.2"/>
<text text-anchor="middle" x="537.95" y="-57.8" font-family="Times,serif" font-size="14.00">समासः</text>
</g>
<!-- Node7_2&#45;&gt;Node7_3 -->
<g id="edge8" class="edge">
<title>Node7_2&#45;&gt;Node7_3</title>
<path fill="none" stroke="black" d="M550.82,-127.52C571.74,-142.59 599.17,-162.35 617.84,-175.79"/>
<polygon fill="black" stroke="black" points="552.75,-124.6 542.59,-121.59 548.66,-130.28 552.75,-124.6"/>
<text text-anchor="middle" x="603.95" y="-144.8" font-family="Times,serif" font-size="14.00">समासः</text>
</g>
<!-- Node8_1 -->
<g id="node13" class="node">
<title>Node8_1</title>
<ellipse fill="#ff99ff" stroke="#ff99ff" cx="746.95" cy="-105" rx="42.49" ry="18"/>
<text text-anchor="middle" x="746.95" y="-101.3" font-family="Times,serif" font-size="14.00">चैव(8.1)</text>
</g>
<!-- Node8_1&#45;&gt;Node7_3 -->
<g id="edge10" class="edge">
<title>Node8_1&#45;&gt;Node7_3</title>
<path fill="none" stroke="black" d="M721.63,-128.25C711.34,-137.08 699.23,-147.21 687.95,-156 679.2,-162.81 669.3,-169.98 660.69,-176.05"/>
<polygon fill="black" stroke="black" points="724.17,-130.68 729.45,-121.49 719.59,-125.38 724.17,-130.68"/>
<text text-anchor="middle" x="724.45" y="-144.8" font-family="Times,serif" font-size="14.00">सम्बन्धः</text>
</g>
<!-- Node9_1 -->
<g id="node14" class="node">
<title>Node9_1</title>
<ellipse fill="#ff99ff" stroke="#ff99ff" cx="519.95" cy="-192" rx="53.89" ry="18"/>
<text text-anchor="middle" x="519.95" y="-188.3" font-family="Times,serif" font-size="14.00">कच्चित्(9.1)</text>
</g>
<!-- Node9_1&#45;&gt;Node12_1 -->
<g id="edge11" class="edge">
<title>Node9_1&#45;&gt;Node12_1</title>
<path fill="none" stroke="black" d="M533.27,-218.74C540.35,-232.42 548.86,-248.86 555.12,-260.95"/>
<polygon fill="black" stroke="black" points="536.34,-217.06 528.64,-209.79 530.13,-220.28 536.34,-217.06"/>
<text text-anchor="middle" x="562.45" y="-231.8" font-family="Times,serif" font-size="14.00">सम्बन्धः</text>
</g>
<!-- Node11_1 -->
<g id="node15" class="node">
<title>Node11_1</title>
<ellipse fill="#ff99ff" stroke="#ff99ff" cx="638.95" cy="-18" rx="51.99" ry="18"/>
<text text-anchor="middle" x="638.95" y="-14.3" font-family="Times,serif" font-size="14.00">अपि(11.1)</text>
</g>
<!-- Node11_1&#45;&gt;Node10_1 -->
<g id="edge13" class="edge">
<title>Node11_1&#45;&gt;Node10_1</title>
<path fill="none" stroke="black" d="M638.95,-46.27C638.95,-59.58 638.95,-75.19 638.95,-86.82"/>
<polygon fill="black" stroke="black" points="642.45,-46.2 638.95,-36.2 635.45,-46.2 642.45,-46.2"/>
<text text-anchor="middle" x="657.45" y="-57.8" font-family="Times,serif" font-size="14.00">सम्बन्धः</text>
</g>
</g>
</svg>
