<?xml version="1.0" encoding="UTF-8" standalone="no"?>
<!DOCTYPE svg PUBLIC "-//W3C//DTD SVG 1.1//EN"
 "http://www.w3.org/Graphics/SVG/1.1/DTD/svg11.dtd">
<!-- Generated by graphviz version 2.43.0 (0)
 -->
<!-- Title: G Pages: 1 -->
<svg width="823pt" height="392pt"
 viewBox="0.00 0.00 823.39 392.00" xmlns="http://www.w3.org/2000/svg" xmlns:xlink="http://www.w3.org/1999/xlink">
<g id="graph0" class="graph" transform="scale(1 1) rotate(0) translate(4 388)">
<title>G</title>
<polygon fill="#fffacd" stroke="transparent" points="-4,4 -4,-388 819.39,-388 819.39,4 -4,4"/>
<g id="clust1" class="cluster">
<title>cluster_1</title>
<polygon fill="#fffacd" stroke="black" points="207.95,-166 207.95,-305 771.95,-305 771.95,-166 207.95,-166"/>
</g>
<!-- Node1_2 -->
<g id="node1" class="node">
<title>Node1_2</title>
<ellipse fill="#00bfff" stroke="#00bfff" cx="366.95" cy="-192" rx="44.69" ry="18"/>
<text text-anchor="middle" x="366.95" y="-188.3" font-family="Times,serif" font-size="14.00">प्रज्ञा(1.2)</text>
</g>
<!-- Node3_1 -->
<g id="node2" class="node">
<title>Node3_1</title>
<ellipse fill="#00bfff" stroke="#00bfff" cx="423.95" cy="-279" rx="43.59" ry="18"/>
<text text-anchor="middle" x="423.95" y="-275.3" font-family="Times,serif" font-size="14.00">देवी(3.1)</text>
</g>
<!-- Node1_2&#45;&gt;Node3_1 -->
<g id="edge2" class="edge">
<title>Node1_2&#45;&gt;Node3_1</title>
<path fill="none" stroke="black" d="M384.02,-218.46C393.38,-232.42 404.71,-249.31 412.9,-261.53"/>
<polygon fill="black" stroke="black" points="386.68,-216.15 378.21,-209.79 380.87,-220.05 386.68,-216.15"/>
<text text-anchor="middle" x="420.45" y="-231.8" font-family="Times,serif" font-size="14.00">विशेषणम्</text>
</g>
<!-- Node9_1 -->
<g id="node8" class="node">
<title>Node9_1</title>
<ellipse fill="#ff1975" stroke="#ff1975" cx="162.95" cy="-366" rx="53.09" ry="18"/>
<text text-anchor="middle" x="162.95" y="-362.3" font-family="Times,serif" font-size="14.00">शोचति(9.1)</text>
</g>
<!-- Node3_1&#45;&gt;Node9_1 -->
<g id="edge4" class="edge">
<title>Node3_1&#45;&gt;Node9_1</title>
<path fill="none" stroke="black" d="M381.26,-293.9C330.82,-310.33 247.74,-337.38 199.93,-352.95"/>
<polygon fill="black" stroke="black" points="382.46,-297.19 390.89,-290.77 380.3,-290.53 382.46,-297.19"/>
<text text-anchor="middle" x="319.95" y="-318.8" font-family="Times,serif" font-size="14.00">कर्ता</text>
</g>
<!-- Node2_1 -->
<g id="node3" class="node">
<title>Node2_1</title>
<ellipse fill="#00bfff" stroke="#00bfff" cx="608.95" cy="-192" rx="56.59" ry="18"/>
<text text-anchor="middle" x="608.95" y="-188.3" font-family="Times,serif" font-size="14.00">बुद्धिमती(2.1)</text>
</g>
<!-- Node2_1&#45;&gt;Node3_1 -->
<g id="edge3" class="edge">
<title>Node2_1&#45;&gt;Node3_1</title>
<path fill="none" stroke="black" d="M570.33,-212.02C550.82,-221.52 526.72,-233.07 504.95,-243 487.94,-250.76 468.75,-259.07 453.31,-265.65"/>
<polygon fill="black" stroke="black" points="572.06,-215.07 579.51,-207.54 568.99,-208.78 572.06,-215.07"/>
<text text-anchor="middle" x="558.45" y="-231.8" font-family="Times,serif" font-size="14.00">विशेषणम्</text>
</g>
<!-- Node4_3 -->
<g id="node4" class="node">
<title>Node4_3</title>
<ellipse fill="#00bfff" stroke="#00bfff" cx="481.95" cy="-192" rx="51.99" ry="18"/>
<text text-anchor="middle" x="481.95" y="-188.3" font-family="Times,serif" font-size="14.00">दर्शिनी(4.3)</text>
</g>
<!-- Node4_3&#45;&gt;Node3_1 -->
<g id="edge7" class="edge">
<title>Node4_3&#45;&gt;Node3_1</title>
<path fill="none" stroke="black" d="M464.84,-218.06C455.27,-232.09 443.6,-249.19 435.18,-261.53"/>
<polygon fill="black" stroke="black" points="467.74,-220.03 470.49,-209.79 461.96,-216.08 467.74,-220.03"/>
<text text-anchor="middle" x="478.45" y="-231.8" font-family="Times,serif" font-size="14.00">विशेषणम्</text>
</g>
<!-- Node5_4 -->
<g id="node5" class="node">
<title>Node5_4</title>
<ellipse fill="#00bfff" stroke="#00bfff" cx="723.95" cy="-192" rx="40.09" ry="18"/>
<text text-anchor="middle" x="723.95" y="-188.3" font-family="Times,serif" font-size="14.00">ज्ञा(5.4)</text>
</g>
<!-- Node5_4&#45;&gt;Node3_1 -->
<g id="edge11" class="edge">
<title>Node5_4&#45;&gt;Node3_1</title>
<path fill="none" stroke="black" d="M685.34,-208.43C657.7,-219.1 619.41,-233.1 584.95,-243 543.84,-254.8 495.84,-264.76 463.01,-271"/>
<polygon fill="black" stroke="black" points="686.97,-211.55 695.02,-204.66 684.43,-205.03 686.97,-211.55"/>
<text text-anchor="middle" x="653.45" y="-231.8" font-family="Times,serif" font-size="14.00">विशेषणम्</text>
</g>
<!-- Node7_1 -->
<g id="node6" class="node">
<title>Node7_1</title>
<ellipse fill="#00bfff" stroke="#00bfff" cx="259.95" cy="-192" rx="44.39" ry="18"/>
<text text-anchor="middle" x="259.95" y="-188.3" font-family="Times,serif" font-size="14.00">एषा(7.1)</text>
</g>
<!-- Node7_1&#45;&gt;Node3_1 -->
<g id="edge13" class="edge">
<title>Node7_1&#45;&gt;Node3_1</title>
<path fill="none" stroke="black" d="M290.96,-213.04C306.32,-222.61 325.31,-233.93 342.95,-243 359.29,-251.41 378.11,-259.62 393.49,-265.98"/>
<polygon fill="black" stroke="black" points="292.7,-210 282.37,-207.64 288.97,-215.93 292.7,-210"/>
<text text-anchor="middle" x="365.45" y="-231.8" font-family="Times,serif" font-size="14.00">विशेषणम्</text>
</g>
<!-- Node1_1 -->
<g id="node7" class="node">
<title>Node1_1</title>
<ellipse fill="#ffff00" stroke="#ffff00" cx="366.95" cy="-105" rx="49.29" ry="18"/>
<text text-anchor="middle" x="366.95" y="-101.3" font-family="Times,serif" font-size="14.00">महत्&#45;(1.1)</text>
</g>
<!-- Node1_1&#45;&gt;Node1_2 -->
<g id="edge1" class="edge">
<title>Node1_1&#45;&gt;Node1_2</title>
<path fill="none" stroke="black" d="M366.95,-133.27C366.95,-146.58 366.95,-162.19 366.95,-173.82"/>
<polygon fill="black" stroke="black" points="370.45,-133.2 366.95,-123.2 363.45,-133.2 370.45,-133.2"/>
<text text-anchor="middle" x="383.95" y="-144.8" font-family="Times,serif" font-size="14.00">समासः</text>
</g>
<!-- Node4_1 -->
<g id="node9" class="node">
<title>Node4_1</title>
<ellipse fill="#ffff00" stroke="#ffff00" cx="481.95" cy="-18" rx="45.49" ry="18"/>
<text text-anchor="middle" x="481.95" y="-14.3" font-family="Times,serif" font-size="14.00">धर्म&#45;(4.1)</text>
</g>
<!-- Node4_2 -->
<g id="node10" class="node">
<title>Node4_2</title>
<ellipse fill="#ffff00" stroke="#ffff00" cx="481.95" cy="-105" rx="46.59" ry="18"/>
<text text-anchor="middle" x="481.95" y="-101.3" font-family="Times,serif" font-size="14.00">अर्थ&#45;(4.2)</text>
</g>
<!-- Node4_1&#45;&gt;Node4_2 -->
<g id="edge5" class="edge">
<title>Node4_1&#45;&gt;Node4_2</title>
<path fill="none" stroke="black" d="M481.95,-46.27C481.95,-59.58 481.95,-75.19 481.95,-86.82"/>
<polygon fill="black" stroke="black" points="485.45,-46.2 481.95,-36.2 478.45,-46.2 485.45,-46.2"/>
<text text-anchor="middle" x="498.95" y="-57.8" font-family="Times,serif" font-size="14.00">समासः</text>
</g>
<!-- Node4_2&#45;&gt;Node4_3 -->
<g id="edge6" class="edge">
<title>Node4_2&#45;&gt;Node4_3</title>
<path fill="none" stroke="black" d="M481.95,-133.27C481.95,-146.58 481.95,-162.19 481.95,-173.82"/>
<polygon fill="black" stroke="black" points="485.45,-133.2 481.95,-123.2 478.45,-133.2 485.45,-133.2"/>
<text text-anchor="middle" x="498.95" y="-144.8" font-family="Times,serif" font-size="14.00">समासः</text>
</g>
<!-- Node5_1 -->
<g id="node11" class="node">
<title>Node5_1</title>
<ellipse fill="#ffff00" stroke="#ffff00" cx="648.95" cy="-18" rx="53.09" ry="18"/>
<text text-anchor="middle" x="648.95" y="-14.3" font-family="Times,serif" font-size="14.00">आगम&#45;(5.1)</text>
</g>
<!-- Node5_2 -->
<g id="node12" class="node">
<title>Node5_2</title>
<ellipse fill="#ffff00" stroke="#ffff00" cx="648.95" cy="-105" rx="53.89" ry="18"/>
<text text-anchor="middle" x="648.95" y="-101.3" font-family="Times,serif" font-size="14.00">अपाय&#45;(5.2)</text>
</g>
<!-- Node5_1&#45;&gt;Node5_2 -->
<g id="edge8" class="edge">
<title>Node5_1&#45;&gt;Node5_2</title>
<path fill="none" stroke="black" d="M648.95,-46.27C648.95,-59.58 648.95,-75.19 648.95,-86.82"/>
<polygon fill="black" stroke="black" points="652.45,-46.2 648.95,-36.2 645.45,-46.2 652.45,-46.2"/>
<text text-anchor="middle" x="665.95" y="-57.8" font-family="Times,serif" font-size="14.00">समासः</text>
</g>
<!-- Node5_2&#45;&gt;Node5_4 -->
<g id="edge9" class="edge">
<title>Node5_2&#45;&gt;Node5_4</title>
<path fill="none" stroke="black" d="M670.09,-129.96C682.78,-144.35 698.59,-162.26 709.78,-174.95"/>
<polygon fill="black" stroke="black" points="672.65,-127.57 663.41,-122.39 667.4,-132.2 672.65,-127.57"/>
<text text-anchor="middle" x="706.95" y="-144.8" font-family="Times,serif" font-size="14.00">समासः</text>
</g>
<!-- Node5_3 -->
<g id="node13" class="node">
<title>Node5_3</title>
<ellipse fill="#ffff00" stroke="#ffff00" cx="767.95" cy="-105" rx="47.39" ry="18"/>
<text text-anchor="middle" x="767.95" y="-101.3" font-family="Times,serif" font-size="14.00">तत्व&#45;(5.3)</text>
</g>
<!-- Node5_3&#45;&gt;Node5_4 -->
<g id="edge10" class="edge">
<title>Node5_3&#45;&gt;Node5_4</title>
<path fill="none" stroke="black" d="M754.59,-131.8C747.46,-145.58 738.88,-162.14 732.62,-174.24"/>
<polygon fill="black" stroke="black" points="757.76,-133.28 759.25,-122.79 751.55,-130.06 757.76,-133.28"/>
<text text-anchor="middle" x="764.95" y="-144.8" font-family="Times,serif" font-size="14.00">समासः</text>
</g>
<!-- Node6_1 -->
<g id="node14" class="node">
<title>Node6_1</title>
<ellipse fill="#ff99ff" stroke="#ff99ff" cx="53.95" cy="-279" rx="53.89" ry="18"/>
<text text-anchor="middle" x="53.95" y="-275.3" font-family="Times,serif" font-size="14.00">कच्चित्(6.1)</text>
</g>
<!-- Node6_1&#45;&gt;Node9_1 -->
<g id="edge12" class="edge">
<title>Node6_1&#45;&gt;Node9_1</title>
<path fill="none" stroke="black" d="M82.21,-302.05C101.21,-316.86 125.78,-336.02 142.81,-349.3"/>
<polygon fill="black" stroke="black" points="84.23,-299.18 74.19,-295.79 79.93,-304.7 84.23,-299.18"/>
<text text-anchor="middle" x="134.45" y="-318.8" font-family="Times,serif" font-size="14.00">सम्बन्धः</text>
</g>
<!-- Node8_1 -->
<g id="node15" class="node">
<title>Node8_1</title>
<ellipse fill="#ff99ff" stroke="#ff99ff" cx="162.95" cy="-279" rx="37.09" ry="18"/>
<text text-anchor="middle" x="162.95" y="-275.3" font-family="Times,serif" font-size="14.00">न(8.1)</text>
</g>
<!-- Node8_1&#45;&gt;Node9_1 -->
<g id="edge14" class="edge">
<title>Node8_1&#45;&gt;Node9_1</title>
<path fill="none" stroke="black" d="M162.95,-307.27C162.95,-320.58 162.95,-336.19 162.95,-347.82"/>
<polygon fill="black" stroke="black" points="166.45,-307.2 162.95,-297.2 159.45,-307.2 166.45,-307.2"/>
<text text-anchor="middle" x="182.45" y="-318.8" font-family="Times,serif" font-size="14.00">प्रतिषेधः</text>
</g>
</g>
</svg>
