<?xml version="1.0" encoding="UTF-8" standalone="no"?>
<!DOCTYPE svg PUBLIC "-//W3C//DTD SVG 1.1//EN"
 "http://www.w3.org/Graphics/SVG/1.1/DTD/svg11.dtd">
<!-- Generated by graphviz version 2.43.0 (0)
 -->
<!-- Title: G Pages: 1 -->
<svg width="919pt" height="305pt"
 viewBox="0.00 0.00 918.95 305.00" xmlns="http://www.w3.org/2000/svg" xmlns:xlink="http://www.w3.org/1999/xlink">
<g id="graph0" class="graph" transform="scale(1 1) rotate(0) translate(4 301)">
<title>G</title>
<polygon fill="#fffacd" stroke="transparent" points="-4,4 -4,-301 914.95,-301 914.95,4 -4,4"/>
<g id="clust1" class="cluster">
<title>cluster_1</title>
<polygon fill="#fffacd" stroke="black" points="306.95,-79 306.95,-218 436.95,-218 436.95,-79 306.95,-79"/>
</g>
<!-- Node12_2 -->
<g id="node1" class="node">
<title>Node12_2</title>
<ellipse fill="#00bfff" stroke="#00bfff" cx="372.95" cy="-105" rx="53.09" ry="18"/>
<text text-anchor="middle" x="372.95" y="-101.3" font-family="Times,serif" font-size="14.00">ज्ञानः(12.2)</text>
</g>
<!-- Node15_1 -->
<g id="node2" class="node">
<title>Node15_1</title>
<ellipse fill="#00bfff" stroke="#00bfff" cx="371.95" cy="-192" rx="57.39" ry="18"/>
<text text-anchor="middle" x="371.95" y="-188.3" font-family="Times,serif" font-size="14.00">(त्वम्)(15.1)</text>
</g>
<!-- Node12_2&#45;&gt;Node15_1 -->
<g id="edge13" class="edge">
<title>Node12_2&#45;&gt;Node15_1</title>
<path fill="none" stroke="black" d="M372.62,-133.27C372.47,-146.58 372.28,-162.19 372.15,-173.82"/>
<polygon fill="black" stroke="black" points="376.12,-133.24 372.74,-123.2 369.13,-133.16 376.12,-133.24"/>
<text text-anchor="middle" x="394.45" y="-144.8" font-family="Times,serif" font-size="14.00">विशेषणम्</text>
</g>
<!-- Node11_1 -->
<g id="node14" class="node">
<title>Node11_1</title>
<ellipse fill="#ff1975" stroke="#ff1975" cx="182.95" cy="-279" rx="52.79" ry="18"/>
<text text-anchor="middle" x="182.95" y="-275.3" font-family="Times,serif" font-size="14.00">असि(11.1)</text>
</g>
<!-- Node15_1&#45;&gt;Node11_1 -->
<g id="edge16" class="edge">
<title>Node15_1&#45;&gt;Node11_1</title>
<path fill="none" stroke="black" d="M330.76,-211.52C295.41,-227.42 245.27,-249.97 213.43,-264.29"/>
<polygon fill="black" stroke="black" points="332.63,-214.52 340.31,-207.23 329.76,-208.14 332.63,-214.52"/>
<text text-anchor="middle" x="299.95" y="-231.8" font-family="Times,serif" font-size="14.00">कर्ता</text>
</g>
<!-- Node1_1 -->
<g id="node3" class="node">
<title>Node1_1</title>
<ellipse fill="#ff99ff" stroke="#ff99ff" cx="498.95" cy="-105" rx="53.89" ry="18"/>
<text text-anchor="middle" x="498.95" y="-101.3" font-family="Times,serif" font-size="14.00">कच्चित्(1.1)</text>
</g>
<!-- Node2_1 -->
<g id="node4" class="node">
<title>Node2_1</title>
<ellipse fill="#ff1975" stroke="#ff1975" cx="535.95" cy="-192" rx="51.99" ry="18"/>
<text text-anchor="middle" x="535.95" y="-188.3" font-family="Times,serif" font-size="14.00">नन्दसि(2.1)</text>
</g>
<!-- Node1_1&#45;&gt;Node2_1 -->
<g id="edge1" class="edge">
<title>Node1_1&#45;&gt;Node2_1</title>
<path fill="none" stroke="black" d="M510.5,-132.54C516.41,-146.12 523.43,-162.24 528.6,-174.11"/>
<polygon fill="black" stroke="black" points="513.63,-130.97 506.43,-123.2 507.21,-133.77 513.63,-130.97"/>
<text text-anchor="middle" x="537.45" y="-144.8" font-family="Times,serif" font-size="14.00">सम्बन्धः</text>
</g>
<!-- Node3_1 -->
<g id="node5" class="node">
<title>Node3_1</title>
<ellipse fill="#ff99ff" stroke="#ff99ff" cx="618.95" cy="-105" rx="48.19" ry="18"/>
<text text-anchor="middle" x="618.95" y="-101.3" font-family="Times,serif" font-size="14.00">दृष्ट्वा(3.1)</text>
</g>
<!-- Node3_1&#45;&gt;Node2_1 -->
<g id="edge2" class="edge">
<title>Node3_1&#45;&gt;Node2_1</title>
<path fill="none" stroke="black" d="M595.6,-129.91C581.65,-144.2 564.29,-161.98 551.9,-174.66"/>
<polygon fill="black" stroke="black" points="598.46,-131.99 602.94,-122.39 593.45,-127.1 598.46,-131.99"/>
<text text-anchor="middle" x="602.45" y="-144.8" font-family="Times,serif" font-size="14.00">पूर्वकालः</text>
</g>
<!-- Node4_1 -->
<g id="node6" class="node">
<title>Node4_1</title>
<ellipse fill="#93db70" stroke="#93db70" cx="618.95" cy="-18" rx="49.29" ry="18"/>
<text text-anchor="middle" x="618.95" y="-14.3" font-family="Times,serif" font-size="14.00">एतान्(4.1)</text>
</g>
<!-- Node4_1&#45;&gt;Node3_1 -->
<g id="edge3" class="edge">
<title>Node4_1&#45;&gt;Node3_1</title>
<path fill="none" stroke="black" d="M618.95,-46.27C618.95,-59.58 618.95,-75.19 618.95,-86.82"/>
<polygon fill="black" stroke="black" points="622.45,-46.2 618.95,-36.2 615.45,-46.2 622.45,-46.2"/>
<text text-anchor="middle" x="627.95" y="-57.8" font-family="Times,serif" font-size="14.00">कर्म</text>
</g>
<!-- Node5_1 -->
<g id="node7" class="node">
<title>Node5_1</title>
<ellipse fill="#ff99ff" stroke="#ff99ff" cx="689.95" cy="-192" rx="53.89" ry="18"/>
<text text-anchor="middle" x="689.95" y="-188.3" font-family="Times,serif" font-size="14.00">कच्चित्(5.1)</text>
</g>
<!-- Node14_1 -->
<g id="node8" class="node">
<title>Node14_1</title>
<ellipse fill="#ff1975" stroke="#ff1975" cx="733.95" cy="-279" rx="62.29" ry="18"/>
<text text-anchor="middle" x="733.95" y="-275.3" font-family="Times,serif" font-size="14.00">(अस्ति)(14.1)</text>
</g>
<!-- Node5_1&#45;&gt;Node14_1 -->
<g id="edge4" class="edge">
<title>Node5_1&#45;&gt;Node14_1</title>
<path fill="none" stroke="black" d="M703.27,-218.74C710.35,-232.42 718.86,-248.86 725.12,-260.95"/>
<polygon fill="black" stroke="black" points="706.34,-217.06 698.64,-209.79 700.13,-220.28 706.34,-217.06"/>
<text text-anchor="middle" x="732.45" y="-231.8" font-family="Times,serif" font-size="14.00">सम्बन्धः</text>
</g>
<!-- Node6_1 -->
<g id="node9" class="node">
<title>Node6_1</title>
<ellipse fill="#87ceeb" stroke="#87ceeb" cx="751.95" cy="-105" rx="37.09" ry="18"/>
<text text-anchor="middle" x="751.95" y="-101.3" font-family="Times,serif" font-size="14.00">ते(6.1)</text>
</g>
<!-- Node8_1 -->
<g id="node10" class="node">
<title>Node8_1</title>
<ellipse fill="#00bfff" stroke="#00bfff" cx="805.95" cy="-192" rx="44.39" ry="18"/>
<text text-anchor="middle" x="805.95" y="-188.3" font-family="Times,serif" font-size="14.00">मनः(8.1)</text>
</g>
<!-- Node6_1&#45;&gt;Node8_1 -->
<g id="edge5" class="edge">
<title>Node6_1&#45;&gt;Node8_1</title>
<path fill="none" stroke="black" d="M757.8,-132.98C760.22,-140.78 763.51,-149.06 767.95,-156 772.67,-163.41 779.35,-170.27 785.79,-175.93"/>
<polygon fill="black" stroke="black" points="761.13,-131.88 755.12,-123.16 754.38,-133.72 761.13,-131.88"/>
<text text-anchor="middle" x="795.45" y="-144.8" font-family="Times,serif" font-size="14.00">षष्ठीसम्बन्धः</text>
</g>
<!-- Node8_1&#45;&gt;Node14_1 -->
<g id="edge8" class="edge">
<title>Node8_1&#45;&gt;Node14_1</title>
<path fill="none" stroke="black" d="M785.4,-217.26C773.44,-231.37 758.67,-248.81 748.03,-261.37"/>
<polygon fill="black" stroke="black" points="788.27,-219.28 792.06,-209.39 782.93,-214.76 788.27,-219.28"/>
<text text-anchor="middle" x="784.95" y="-231.8" font-family="Times,serif" font-size="14.00">कर्ता</text>
</g>
<!-- Node7_1 -->
<g id="node11" class="node">
<title>Node7_1</title>
<ellipse fill="#ffff00" stroke="#ffff00" cx="854.95" cy="-18" rx="46.29" ry="18"/>
<text text-anchor="middle" x="854.95" y="-14.3" font-family="Times,serif" font-size="14.00">निर्&#45;(7.1)</text>
</g>
<!-- Node7_2 -->
<g id="node12" class="node">
<title>Node7_2</title>
<ellipse fill="#93db70" stroke="#93db70" cx="854.95" cy="-105" rx="48.19" ry="18"/>
<text text-anchor="middle" x="854.95" y="-101.3" font-family="Times,serif" font-size="14.00">मलम्(7.2)</text>
</g>
<!-- Node7_1&#45;&gt;Node7_2 -->
<g id="edge6" class="edge">
<title>Node7_1&#45;&gt;Node7_2</title>
<path fill="none" stroke="black" d="M854.95,-46.27C854.95,-59.58 854.95,-75.19 854.95,-86.82"/>
<polygon fill="black" stroke="black" points="858.45,-46.2 854.95,-36.2 851.45,-46.2 858.45,-46.2"/>
<text text-anchor="middle" x="871.95" y="-57.8" font-family="Times,serif" font-size="14.00">समासः</text>
</g>
<!-- Node7_2&#45;&gt;Node8_1 -->
<g id="edge7" class="edge">
<title>Node7_2&#45;&gt;Node8_1</title>
<path fill="none" stroke="black" d="M840.07,-131.8C832.13,-145.58 822.58,-162.14 815.61,-174.24"/>
<polygon fill="black" stroke="black" points="843.3,-133.2 845.26,-122.79 837.24,-129.71 843.3,-133.2"/>
<text text-anchor="middle" x="871.95" y="-144.8" font-family="Times,serif" font-size="14.00">विधेय_विशेषणम्</text>
</g>
<!-- Node9_1 -->
<g id="node13" class="node">
<title>Node9_1</title>
<ellipse fill="#ff99ff" stroke="#ff99ff" cx="53.95" cy="-192" rx="53.89" ry="18"/>
<text text-anchor="middle" x="53.95" y="-188.3" font-family="Times,serif" font-size="14.00">कच्चित्(9.1)</text>
</g>
<!-- Node9_1&#45;&gt;Node11_1 -->
<g id="edge9" class="edge">
<title>Node9_1&#45;&gt;Node11_1</title>
<path fill="none" stroke="black" d="M85.69,-213.92C108.63,-229.03 139.08,-249.1 159.76,-262.72"/>
<polygon fill="black" stroke="black" points="87.58,-210.97 77.31,-208.39 83.73,-216.82 87.58,-210.97"/>
<text text-anchor="middle" x="145.45" y="-231.8" font-family="Times,serif" font-size="14.00">सम्बन्धः</text>
</g>
<!-- Node10_1 -->
<g id="node15" class="node">
<title>Node10_1</title>
<ellipse fill="#ffff00" stroke="#ffff00" cx="243.95" cy="-18" rx="59.29" ry="18"/>
<text text-anchor="middle" x="243.95" y="-14.3" font-family="Times,serif" font-size="14.00">विशुद्ध&#45;(10.1)</text>
</g>
<!-- Node10_2 -->
<g id="node16" class="node">
<title>Node10_2</title>
<ellipse fill="#00bfff" stroke="#00bfff" cx="245.95" cy="-105" rx="53.09" ry="18"/>
<text text-anchor="middle" x="245.95" y="-101.3" font-family="Times,serif" font-size="14.00">भावः(10.2)</text>
</g>
<!-- Node10_1&#45;&gt;Node10_2 -->
<g id="edge10" class="edge">
<title>Node10_1&#45;&gt;Node10_2</title>
<path fill="none" stroke="black" d="M244.59,-46.27C244.9,-59.58 245.27,-75.19 245.54,-86.82"/>
<polygon fill="black" stroke="black" points="248.08,-46.12 244.35,-36.2 241.09,-46.28 248.08,-46.12"/>
<text text-anchor="middle" x="262.95" y="-57.8" font-family="Times,serif" font-size="14.00">समासः</text>
</g>
<!-- Node10_2&#45;&gt;Node15_1 -->
<g id="edge11" class="edge">
<title>Node10_2&#45;&gt;Node15_1</title>
<path fill="none" stroke="black" d="M263.73,-130.46C271.09,-139.35 280.19,-148.94 289.95,-156 302.99,-165.44 318.97,-172.98 333.34,-178.61"/>
<polygon fill="black" stroke="black" points="266.44,-128.25 257.49,-122.58 260.95,-132.59 266.44,-128.25"/>
<text text-anchor="middle" x="328.95" y="-144.8" font-family="Times,serif" font-size="14.00">विधेय_विशेषणम्</text>
</g>
<!-- Node12_1 -->
<g id="node17" class="node">
<title>Node12_1</title>
<ellipse fill="#ffff00" stroke="#ffff00" cx="374.95" cy="-18" rx="53.89" ry="18"/>
<text text-anchor="middle" x="374.95" y="-14.3" font-family="Times,serif" font-size="14.00">जात&#45;(12.1)</text>
</g>
<!-- Node12_1&#45;&gt;Node12_2 -->
<g id="edge12" class="edge">
<title>Node12_1&#45;&gt;Node12_2</title>
<path fill="none" stroke="black" d="M374.3,-46.27C373.99,-59.58 373.62,-75.19 373.35,-86.82"/>
<polygon fill="black" stroke="black" points="377.8,-46.28 374.54,-36.2 370.81,-46.12 377.8,-46.28"/>
<text text-anchor="middle" x="390.95" y="-57.8" font-family="Times,serif" font-size="14.00">समासः</text>
</g>
<!-- Node13_1 -->
<g id="node18" class="node">
<title>Node13_1</title>
<ellipse fill="#ffff00" stroke="#ffff00" cx="124.95" cy="-105" rx="49.29" ry="18"/>
<text text-anchor="middle" x="124.95" y="-101.3" font-family="Times,serif" font-size="14.00">नर&#45;(13.1)</text>
</g>
<!-- Node13_2 -->
<g id="node19" class="node">
<title>Node13_2</title>
<ellipse fill="#6fffc3" stroke="#6fffc3" cx="182.95" cy="-192" rx="57.39" ry="18"/>
<text text-anchor="middle" x="182.95" y="-188.3" font-family="Times,serif" font-size="14.00">अधिप(13.2)</text>
</g>
<!-- Node13_1&#45;&gt;Node13_2 -->
<g id="edge14" class="edge">
<title>Node13_1&#45;&gt;Node13_2</title>
<path fill="none" stroke="black" d="M142.28,-131.4C151.73,-145.26 163.17,-162.03 171.51,-174.24"/>
<polygon fill="black" stroke="black" points="144.93,-129.08 136.4,-122.79 139.15,-133.03 144.93,-129.08"/>
<text text-anchor="middle" x="174.95" y="-144.8" font-family="Times,serif" font-size="14.00">समासः</text>
</g>
<!-- Node13_2&#45;&gt;Node11_1 -->
<g id="edge15" class="edge">
<title>Node13_2&#45;&gt;Node11_1</title>
<path fill="none" stroke="black" d="M182.95,-220.27C182.95,-233.58 182.95,-249.19 182.95,-260.82"/>
<polygon fill="black" stroke="black" points="186.45,-220.2 182.95,-210.2 179.45,-220.2 186.45,-220.2"/>
<text text-anchor="middle" x="203.95" y="-231.8" font-family="Times,serif" font-size="14.00">सम्बोध्यः</text>
</g>
</g>
</svg>
