<?xml version="1.0" encoding="UTF-8" standalone="no"?>
<!DOCTYPE svg PUBLIC "-//W3C//DTD SVG 1.1//EN"
 "http://www.w3.org/Graphics/SVG/1.1/DTD/svg11.dtd">
<!-- Generated by graphviz version 2.43.0 (0)
 -->
<!-- Title: G Pages: 1 -->
<svg width="766pt" height="479pt"
 viewBox="0.00 0.00 766.05 479.00" xmlns="http://www.w3.org/2000/svg" xmlns:xlink="http://www.w3.org/1999/xlink">
<g id="graph0" class="graph" transform="scale(1 1) rotate(0) translate(4 475)">
<title>G</title>
<polygon fill="#fffacd" stroke="transparent" points="-4,4 -4,-475 762.05,-475 762.05,4 -4,4"/>
<g id="clust1" class="cluster">
<title>cluster_1</title>
<polygon fill="#fffacd" stroke="black" points="498.05,-79 498.05,-218 750.05,-218 750.05,-79 498.05,-79"/>
</g>
<g id="clust2" class="cluster">
<title>cluster_2</title>
<polygon fill="#fffacd" stroke="black" points="156.05,-166 156.05,-305 392.05,-305 392.05,-166 156.05,-166"/>
</g>
<!-- Node1_2 -->
<g id="node1" class="node">
<title>Node1_2</title>
<ellipse fill="#93db70" stroke="#93db70" cx="695.05" cy="-105" rx="47.39" ry="18"/>
<text text-anchor="middle" x="695.05" y="-101.3" font-family="Times,serif" font-size="14.00">बलम्(1.2)</text>
</g>
<!-- Node3_1 -->
<g id="node2" class="node">
<title>Node3_1</title>
<ellipse fill="#93db70" stroke="#93db70" cx="565.05" cy="-192" rx="53.09" ry="18"/>
<text text-anchor="middle" x="565.05" y="-188.3" font-family="Times,serif" font-size="14.00">भीष्मम्(3.1)</text>
</g>
<!-- Node1_2&#45;&gt;Node3_1 -->
<g id="edge2" class="edge">
<title>Node1_2&#45;&gt;Node3_1</title>
<path fill="none" stroke="black" d="M663.67,-126.51C640.57,-141.62 609.65,-161.83 588.64,-175.58"/>
<polygon fill="black" stroke="black" points="665.65,-129.4 672.1,-121 661.82,-123.54 665.65,-129.4"/>
<text text-anchor="middle" x="659.55" y="-144.8" font-family="Times,serif" font-size="14.00">विशेषणम्</text>
</g>
<!-- Node7_1 -->
<g id="node4" class="node">
<title>Node7_1</title>
<ellipse fill="#93db70" stroke="#93db70" cx="333.05" cy="-279" rx="50.09" ry="18"/>
<text text-anchor="middle" x="333.05" y="-275.3" font-family="Times,serif" font-size="14.00">द्रोणम्(7.1)</text>
</g>
<!-- Node3_1&#45;&gt;Node7_1 -->
<g id="edge4" class="edge">
<title>Node3_1&#45;&gt;Node7_1</title>
<path fill="none" stroke="black" d="M523.54,-210.18C499.08,-220.13 467.46,-232.68 439.05,-243 416.09,-251.34 390.06,-259.94 369.53,-266.54"/>
<polygon fill="black" stroke="black" points="524.94,-213.39 532.88,-206.37 522.29,-206.91 524.94,-213.39"/>
<text text-anchor="middle" x="511.05" y="-231.8" font-family="Times,serif" font-size="14.00">सुप्_समुच्चितः</text>
</g>
<!-- Node2_1 -->
<g id="node3" class="node">
<title>Node2_1</title>
<ellipse fill="#93db70" stroke="#93db70" cx="568.05" cy="-105" rx="61.99" ry="18"/>
<text text-anchor="middle" x="568.05" y="-101.3" font-family="Times,serif" font-size="14.00">शान्तनवम्(2.1)</text>
</g>
<!-- Node2_1&#45;&gt;Node3_1 -->
<g id="edge3" class="edge">
<title>Node2_1&#45;&gt;Node3_1</title>
<path fill="none" stroke="black" d="M567.08,-133.27C566.61,-146.58 566.06,-162.19 565.65,-173.82"/>
<polygon fill="black" stroke="black" points="570.58,-133.32 567.44,-123.2 563.59,-133.07 570.58,-133.32"/>
<text text-anchor="middle" x="588.55" y="-144.8" font-family="Times,serif" font-size="14.00">विशेषणम्</text>
</g>
<!-- Node9_1 -->
<g id="node10" class="node">
<title>Node9_1</title>
<ellipse fill="#ff99ff" stroke="#ff99ff" cx="333.05" cy="-366" rx="61.99" ry="18"/>
<text text-anchor="middle" x="333.05" y="-362.3" font-family="Times,serif" font-size="14.00">घातयित्वा(9.1)</text>
</g>
<!-- Node7_1&#45;&gt;Node9_1 -->
<g id="edge9" class="edge">
<title>Node7_1&#45;&gt;Node9_1</title>
<path fill="none" stroke="black" d="M333.05,-307.27C333.05,-320.58 333.05,-336.19 333.05,-347.82"/>
<polygon fill="black" stroke="black" points="336.55,-307.2 333.05,-297.2 329.55,-307.2 336.55,-307.2"/>
<text text-anchor="middle" x="342.05" y="-318.8" font-family="Times,serif" font-size="14.00">कर्म</text>
</g>
<!-- Node5_2 -->
<g id="node5" class="node">
<title>Node5_2</title>
<ellipse fill="#93db70" stroke="#93db70" cx="330.05" cy="-192" rx="53.89" ry="18"/>
<text text-anchor="middle" x="330.05" y="-188.3" font-family="Times,serif" font-size="14.00">सत्तमम्(5.2)</text>
</g>
<!-- Node5_2&#45;&gt;Node7_1 -->
<g id="edge7" class="edge">
<title>Node5_2&#45;&gt;Node7_1</title>
<path fill="none" stroke="black" d="M331.01,-220.27C331.48,-233.58 332.03,-249.19 332.44,-260.82"/>
<polygon fill="black" stroke="black" points="334.5,-220.07 330.65,-210.2 327.51,-220.32 334.5,-220.07"/>
<text text-anchor="middle" x="353.55" y="-231.8" font-family="Times,serif" font-size="14.00">विशेषणम्</text>
</g>
<!-- Node6_1 -->
<g id="node6" class="node">
<title>Node6_1</title>
<ellipse fill="#93db70" stroke="#93db70" cx="211.05" cy="-192" rx="46.59" ry="18"/>
<text text-anchor="middle" x="211.05" y="-188.3" font-family="Times,serif" font-size="14.00">वृद्धम्(6.1)</text>
</g>
<!-- Node6_1&#45;&gt;Node7_1 -->
<g id="edge8" class="edge">
<title>Node6_1&#45;&gt;Node7_1</title>
<path fill="none" stroke="black" d="M240.81,-214.08C253.49,-223.03 268.47,-233.56 282.05,-243 291.39,-249.5 301.74,-256.62 310.66,-262.73"/>
<polygon fill="black" stroke="black" points="242.62,-211.08 232.44,-208.16 238.58,-216.79 242.62,-211.08"/>
<text text-anchor="middle" x="304.55" y="-231.8" font-family="Times,serif" font-size="14.00">विशेषणम्</text>
</g>
<!-- Node1_1 -->
<g id="node7" class="node">
<title>Node1_1</title>
<ellipse fill="#ffff00" stroke="#ffff00" cx="695.05" cy="-18" rx="46.59" ry="18"/>
<text text-anchor="middle" x="695.05" y="-14.3" font-family="Times,serif" font-size="14.00">महा&#45;(1.1)</text>
</g>
<!-- Node1_1&#45;&gt;Node1_2 -->
<g id="edge1" class="edge">
<title>Node1_1&#45;&gt;Node1_2</title>
<path fill="none" stroke="black" d="M695.05,-46.27C695.05,-59.58 695.05,-75.19 695.05,-86.82"/>
<polygon fill="black" stroke="black" points="698.55,-46.2 695.05,-36.2 691.55,-46.2 698.55,-46.2"/>
<text text-anchor="middle" x="712.05" y="-57.8" font-family="Times,serif" font-size="14.00">समासः</text>
</g>
<!-- Node4_1 -->
<g id="node8" class="node">
<title>Node4_1</title>
<ellipse fill="#ff99ff" stroke="#ff99ff" cx="445.05" cy="-105" rx="37.89" ry="18"/>
<text text-anchor="middle" x="445.05" y="-101.3" font-family="Times,serif" font-size="14.00">च(4.1)</text>
</g>
<!-- Node4_1&#45;&gt;Node3_1 -->
<g id="edge5" class="edge">
<title>Node4_1&#45;&gt;Node3_1</title>
<path fill="none" stroke="black" d="M449.09,-132.94C451.57,-141.32 455.58,-149.93 462.05,-156 474.47,-167.66 482.84,-160.75 499.05,-166 509.89,-169.51 521.56,-173.77 532.03,-177.77"/>
<polygon fill="black" stroke="black" points="452.46,-131.97 446.76,-123.04 445.64,-133.57 452.46,-131.97"/>
<text text-anchor="middle" x="512.05" y="-144.8" font-family="Times,serif" font-size="14.00">सुप्_समुच्चय_द्योतकः</text>
</g>
<!-- Node5_1 -->
<g id="node9" class="node">
<title>Node5_1</title>
<ellipse fill="#ffff00" stroke="#ffff00" cx="330.05" cy="-105" rx="48.19" ry="18"/>
<text text-anchor="middle" x="330.05" y="-101.3" font-family="Times,serif" font-size="14.00">द्विज&#45;(5.1)</text>
</g>
<!-- Node5_1&#45;&gt;Node5_2 -->
<g id="edge6" class="edge">
<title>Node5_1&#45;&gt;Node5_2</title>
<path fill="none" stroke="black" d="M330.05,-133.27C330.05,-146.58 330.05,-162.19 330.05,-173.82"/>
<polygon fill="black" stroke="black" points="333.55,-133.2 330.05,-123.2 326.55,-133.2 333.55,-133.2"/>
<text text-anchor="middle" x="347.05" y="-144.8" font-family="Times,serif" font-size="14.00">समासः</text>
</g>
<!-- Node13_1 -->
<g id="node12" class="node">
<title>Node13_1</title>
<ellipse fill="#ff1975" stroke="#ff1975" cx="186.05" cy="-453" rx="51.99" ry="18"/>
<text text-anchor="middle" x="186.05" y="-449.3" font-family="Times,serif" font-size="14.00">दूयते(13.1)</text>
</g>
<!-- Node9_1&#45;&gt;Node13_1 -->
<g id="edge11" class="edge">
<title>Node9_1&#45;&gt;Node13_1</title>
<path fill="none" stroke="black" d="M303.09,-389.11C290.15,-398.23 274.66,-408.61 260.05,-417 246.49,-424.78 230.92,-432.34 217.57,-438.43"/>
<polygon fill="black" stroke="black" points="305.49,-391.69 311.59,-383.03 301.42,-386 305.49,-391.69"/>
<text text-anchor="middle" x="302.55" y="-405.8" font-family="Times,serif" font-size="14.00">पूर्वकालः</text>
</g>
<!-- Node8_1 -->
<g id="node11" class="node">
<title>Node8_1</title>
<ellipse fill="#ff99ff" stroke="#ff99ff" cx="446.05" cy="-192" rx="44.39" ry="18"/>
<text text-anchor="middle" x="446.05" y="-188.3" font-family="Times,serif" font-size="14.00">(च)(8.1)</text>
</g>
<!-- Node8_1&#45;&gt;Node7_1 -->
<g id="edge10" class="edge">
<title>Node8_1&#45;&gt;Node7_1</title>
<path fill="none" stroke="black" d="M418.03,-214.31C406.31,-223.2 392.53,-233.62 380.05,-243 371.59,-249.35 362.24,-256.32 354.13,-262.36"/>
<polygon fill="black" stroke="black" points="420.3,-216.97 426.15,-208.14 416.07,-211.4 420.3,-216.97"/>
<text text-anchor="middle" x="416.55" y="-231.8" font-family="Times,serif" font-size="14.00">सम्बन्धः</text>
</g>
<!-- Node10_1 -->
<g id="node13" class="node">
<title>Node10_1</title>
<ellipse fill="#87ceeb" stroke="#87ceeb" cx="50.05" cy="-279" rx="42.79" ry="18"/>
<text text-anchor="middle" x="50.05" y="-275.3" font-family="Times,serif" font-size="14.00">मे(10.1)</text>
</g>
<!-- Node11_1 -->
<g id="node14" class="node">
<title>Node11_1</title>
<ellipse fill="#00bfff" stroke="#00bfff" cx="50.05" cy="-366" rx="50.09" ry="18"/>
<text text-anchor="middle" x="50.05" y="-362.3" font-family="Times,serif" font-size="14.00">मनः(11.1)</text>
</g>
<!-- Node10_1&#45;&gt;Node11_1 -->
<g id="edge12" class="edge">
<title>Node10_1&#45;&gt;Node11_1</title>
<path fill="none" stroke="black" d="M50.05,-307.27C50.05,-320.58 50.05,-336.19 50.05,-347.82"/>
<polygon fill="black" stroke="black" points="53.55,-307.2 50.05,-297.2 46.55,-307.2 53.55,-307.2"/>
<text text-anchor="middle" x="77.55" y="-318.8" font-family="Times,serif" font-size="14.00">षष्ठीसम्बन्धः</text>
</g>
<!-- Node11_1&#45;&gt;Node13_1 -->
<g id="edge13" class="edge">
<title>Node11_1&#45;&gt;Node13_1</title>
<path fill="none" stroke="black" d="M82.61,-387.35C106.97,-402.58 139.75,-423.07 161.83,-436.86"/>
<polygon fill="black" stroke="black" points="84.38,-384.33 74.05,-382 80.67,-390.27 84.38,-384.33"/>
<text text-anchor="middle" x="136.05" y="-405.8" font-family="Times,serif" font-size="14.00">कर्म</text>
</g>
<!-- Node12_1 -->
<g id="node15" class="node">
<title>Node12_1</title>
<ellipse fill="#ff99ff" stroke="#ff99ff" cx="186.05" cy="-366" rx="67.69" ry="18"/>
<text text-anchor="middle" x="186.05" y="-362.3" font-family="Times,serif" font-size="14.00">अभीक्ष्णम्(12.1)</text>
</g>
<!-- Node12_1&#45;&gt;Node13_1 -->
<g id="edge14" class="edge">
<title>Node12_1&#45;&gt;Node13_1</title>
<path fill="none" stroke="black" d="M186.05,-394.27C186.05,-407.58 186.05,-423.19 186.05,-434.82"/>
<polygon fill="black" stroke="black" points="189.55,-394.2 186.05,-384.2 182.55,-394.2 189.55,-394.2"/>
<text text-anchor="middle" x="221.05" y="-405.8" font-family="Times,serif" font-size="14.00">क्रियाविशेषणम्</text>
</g>
</g>
</svg>
