<?xml version="1.0" encoding="UTF-8" standalone="no"?>
<!DOCTYPE svg PUBLIC "-//W3C//DTD SVG 1.1//EN"
 "http://www.w3.org/Graphics/SVG/1.1/DTD/svg11.dtd">
<!-- Generated by graphviz version 2.43.0 (0)
 -->
<!-- Title: G Pages: 1 -->
<svg width="721pt" height="408pt"
 viewBox="0.00 0.00 721.09 408.00" xmlns="http://www.w3.org/2000/svg" xmlns:xlink="http://www.w3.org/1999/xlink">
<g id="graph0" class="graph" transform="scale(1 1) rotate(0) translate(4 404)">
<title>G</title>
<polygon fill="#fffacd" stroke="transparent" points="-4,4 -4,-404 717.09,-404 717.09,4 -4,4"/>
<g id="clust1" class="cluster">
<title>cluster_1</title>
<polygon fill="#fffacd" stroke="black" points="42.05,-253 42.05,-392 164.05,-392 164.05,-253 42.05,-253"/>
</g>
<g id="clust2" class="cluster">
<title>cluster_2</title>
<polygon fill="#fffacd" stroke="black" points="43.05,-79 43.05,-218 405.05,-218 405.05,-79 43.05,-79"/>
</g>
<!-- Node2_1 -->
<g id="node1" class="node">
<title>Node2_1</title>
<ellipse fill="#00bfff" stroke="#00bfff" cx="676.05" cy="-279" rx="37.09" ry="18"/>
<text text-anchor="middle" x="676.05" y="-275.3" font-family="Times,serif" font-size="14.00">ते(2.1)</text>
</g>
<!-- Node12_1 -->
<g id="node2" class="node">
<title>Node12_1</title>
<ellipse fill="#00bfff" stroke="#00bfff" cx="103.05" cy="-366" rx="52.79" ry="18"/>
<text text-anchor="middle" x="103.05" y="-362.3" font-family="Times,serif" font-size="14.00">गताः(12.1)</text>
</g>
<!-- Node2_1&#45;&gt;Node12_1 -->
<g id="edge2" class="edge">
<title>Node2_1&#45;&gt;Node12_1</title>
<path fill="none" stroke="black" d="M630.99,-286.68C524.67,-302.46 258.99,-341.87 150.41,-357.97"/>
<polygon fill="black" stroke="black" points="631.69,-290.12 641.06,-285.19 630.66,-283.19 631.69,-290.12"/>
<text text-anchor="middle" x="446.55" y="-318.8" font-family="Times,serif" font-size="14.00">विशेषणम्</text>
</g>
<!-- Node3_1 -->
<g id="node3" class="node">
<title>Node3_1</title>
<ellipse fill="#00bfff" stroke="#00bfff" cx="103.05" cy="-279" rx="46.29" ry="18"/>
<text text-anchor="middle" x="103.05" y="-275.3" font-family="Times,serif" font-size="14.00">शूराः(3.1)</text>
</g>
<!-- Node3_1&#45;&gt;Node12_1 -->
<g id="edge3" class="edge">
<title>Node3_1&#45;&gt;Node12_1</title>
<path fill="none" stroke="black" d="M103.05,-307.27C103.05,-320.58 103.05,-336.19 103.05,-347.82"/>
<polygon fill="black" stroke="black" points="106.55,-307.2 103.05,-297.2 99.55,-307.2 106.55,-307.2"/>
<text text-anchor="middle" x="125.55" y="-318.8" font-family="Times,serif" font-size="14.00">विशेषणम्</text>
</g>
<!-- Node5_1 -->
<g id="node4" class="node">
<title>Node5_1</title>
<ellipse fill="#93db70" stroke="#93db70" cx="347.05" cy="-105" rx="50.09" ry="18"/>
<text text-anchor="middle" x="347.05" y="-101.3" font-family="Times,serif" font-size="14.00">दारान्(5.1)</text>
</g>
<!-- Node4_1 -->
<g id="node5" class="node">
<title>Node4_1</title>
<ellipse fill="#93db70" stroke="#93db70" cx="229.05" cy="-192" rx="50.09" ry="18"/>
<text text-anchor="middle" x="229.05" y="-188.3" font-family="Times,serif" font-size="14.00">पुत्रान्(4.1)</text>
</g>
<!-- Node5_1&#45;&gt;Node4_1 -->
<g id="edge5" class="edge">
<title>Node5_1&#45;&gt;Node4_1</title>
<path fill="none" stroke="black" d="M317.5,-127.28C296.73,-142.24 269.41,-161.93 250.65,-175.43"/>
<polygon fill="black" stroke="black" points="319.61,-130.08 325.68,-121.39 315.52,-124.4 319.61,-130.08"/>
<text text-anchor="middle" x="318.55" y="-144.8" font-family="Times,serif" font-size="14.00">समुच्चितः</text>
</g>
<!-- Node10_1 -->
<g id="node9" class="node">
<title>Node10_1</title>
<ellipse fill="#ff99ff" stroke="#ff99ff" cx="238.05" cy="-279" rx="65.79" ry="18"/>
<text text-anchor="middle" x="238.05" y="-275.3" font-family="Times,serif" font-size="14.00">परित्यज्य(10.1)</text>
</g>
<!-- Node4_1&#45;&gt;Node10_1 -->
<g id="edge4" class="edge">
<title>Node4_1&#45;&gt;Node10_1</title>
<path fill="none" stroke="black" d="M231.93,-220.27C233.34,-233.58 235,-249.19 236.23,-260.82"/>
<polygon fill="black" stroke="black" points="235.4,-219.78 230.87,-210.2 228.44,-220.51 235.4,-219.78"/>
<text text-anchor="middle" x="244.05" y="-231.8" font-family="Times,serif" font-size="14.00">कर्म</text>
</g>
<!-- Node6_1 -->
<g id="node6" class="node">
<title>Node6_1</title>
<ellipse fill="#93db70" stroke="#93db70" cx="226.05" cy="-105" rx="53.09" ry="18"/>
<text text-anchor="middle" x="226.05" y="-101.3" font-family="Times,serif" font-size="14.00">प्राणान्(6.1)</text>
</g>
<!-- Node6_1&#45;&gt;Node4_1 -->
<g id="edge6" class="edge">
<title>Node6_1&#45;&gt;Node4_1</title>
<path fill="none" stroke="black" d="M227.01,-133.27C227.48,-146.58 228.03,-162.19 228.44,-173.82"/>
<polygon fill="black" stroke="black" points="230.5,-133.07 226.65,-123.2 223.51,-133.32 230.5,-133.07"/>
<text text-anchor="middle" x="250.55" y="-144.8" font-family="Times,serif" font-size="14.00">समुच्चितः</text>
</g>
<!-- Node8_1 -->
<g id="node7" class="node">
<title>Node8_1</title>
<ellipse fill="#93db70" stroke="#93db70" cx="103.05" cy="-105" rx="51.99" ry="18"/>
<text text-anchor="middle" x="103.05" y="-101.3" font-family="Times,serif" font-size="14.00">प्रियान्(8.1)</text>
</g>
<!-- Node8_1&#45;&gt;Node4_1 -->
<g id="edge8" class="edge">
<title>Node8_1&#45;&gt;Node4_1</title>
<path fill="none" stroke="black" d="M134.35,-127.12C156.72,-142.21 186.29,-162.16 206.4,-175.72"/>
<polygon fill="black" stroke="black" points="136.11,-124.08 125.86,-121.39 132.2,-129.89 136.11,-124.08"/>
<text text-anchor="middle" x="196.55" y="-144.8" font-family="Times,serif" font-size="14.00">समुच्चितः</text>
</g>
<!-- Node1_1 -->
<g id="node8" class="node">
<title>Node1_1</title>
<ellipse fill="#00bfff" stroke="#00bfff" cx="508.05" cy="-279" rx="37.09" ry="18"/>
<text text-anchor="middle" x="508.05" y="-275.3" font-family="Times,serif" font-size="14.00">ये(1.1)</text>
</g>
<!-- Node1_1&#45;&gt;Node2_1 -->
<g id="edge1" class="edge">
<title>Node1_1&#45;&gt;Node2_1</title>
<path fill="none" stroke="red" stroke-dasharray="5,2" d="M555.5,-279C578.4,-279 605.81,-279 628.7,-279"/>
<polygon fill="red" stroke="red" points="555.33,-275.5 545.33,-279 555.33,-282.5 555.33,-275.5"/>
<polygon fill="red" stroke="red" points="628.87,-282.5 638.87,-279 628.87,-275.5 628.87,-282.5"/>
<text text-anchor="middle" x="592.05" y="-264.8" font-family="Times,serif" font-size="14.00">नित्य_सम्बन्धः1</text>
</g>
<!-- Node10_1&#45;&gt;Node12_1 -->
<g id="edge10" class="edge">
<title>Node10_1&#45;&gt;Node12_1</title>
<path fill="none" stroke="black" d="M204.49,-301.12C180.45,-316.27 148.62,-336.3 127.08,-349.87"/>
<polygon fill="black" stroke="black" points="206.37,-304.08 212.97,-295.79 202.64,-298.16 206.37,-304.08"/>
<text text-anchor="middle" x="199.55" y="-318.8" font-family="Times,serif" font-size="14.00">पूर्वकालः</text>
</g>
<!-- Node7_1 -->
<g id="node10" class="node">
<title>Node7_1</title>
<ellipse fill="#87ceeb" stroke="#87ceeb" cx="50.05" cy="-18" rx="50.09" ry="18"/>
<text text-anchor="middle" x="50.05" y="-14.3" font-family="Times,serif" font-size="14.00">मनसः(7.1)</text>
</g>
<!-- Node7_1&#45;&gt;Node8_1 -->
<g id="edge7" class="edge">
<title>Node7_1&#45;&gt;Node8_1</title>
<path fill="none" stroke="black" d="M64.43,-44.66C68.98,-52.54 74.12,-61.19 79.05,-69 82.9,-75.1 87.32,-81.66 91.31,-87.44"/>
<polygon fill="black" stroke="black" points="67.4,-42.8 59.4,-35.85 61.32,-46.27 67.4,-42.8"/>
<text text-anchor="middle" x="106.55" y="-57.8" font-family="Times,serif" font-size="14.00">षष्ठीसम्बन्धः</text>
</g>
<!-- Node9_1 -->
<g id="node11" class="node">
<title>Node9_1</title>
<ellipse fill="#ff99ff" stroke="#ff99ff" cx="156.05" cy="-18" rx="37.89" ry="18"/>
<text text-anchor="middle" x="156.05" y="-14.3" font-family="Times,serif" font-size="14.00">च(9.1)</text>
</g>
<!-- Node9_1&#45;&gt;Node8_1 -->
<g id="edge9" class="edge">
<title>Node9_1&#45;&gt;Node8_1</title>
<path fill="none" stroke="black" d="M146.26,-45.38C142.86,-53.24 138.72,-61.7 134.05,-69 129.84,-75.56 124.43,-82.12 119.31,-87.76"/>
<polygon fill="black" stroke="black" points="149.6,-46.45 150.14,-35.87 143.12,-43.8 149.6,-46.45"/>
<text text-anchor="middle" x="180.05" y="-57.8" font-family="Times,serif" font-size="14.00">समुच्चय_द्योतकः</text>
</g>
<!-- Node11_1 -->
<g id="node12" class="node">
<title>Node11_1</title>
<ellipse fill="#ffff00" stroke="#ffff00" cx="466.05" cy="-105" rx="50.89" ry="18"/>
<text text-anchor="middle" x="466.05" y="-101.3" font-family="Times,serif" font-size="14.00">प्रेत&#45;(11.1)</text>
</g>
<!-- Node11_2 -->
<g id="node13" class="node">
<title>Node11_2</title>
<ellipse fill="#ffff00" stroke="#ffff00" cx="466.05" cy="-192" rx="52.79" ry="18"/>
<text text-anchor="middle" x="466.05" y="-188.3" font-family="Times,serif" font-size="14.00">राज&#45;(11.2)</text>
</g>
<!-- Node11_1&#45;&gt;Node11_2 -->
<g id="edge11" class="edge">
<title>Node11_1&#45;&gt;Node11_2</title>
<path fill="none" stroke="black" d="M466.05,-133.27C466.05,-146.58 466.05,-162.19 466.05,-173.82"/>
<polygon fill="black" stroke="black" points="469.55,-133.2 466.05,-123.2 462.55,-133.2 469.55,-133.2"/>
<text text-anchor="middle" x="483.05" y="-144.8" font-family="Times,serif" font-size="14.00">समासः</text>
</g>
<!-- Node11_3 -->
<g id="node14" class="node">
<title>Node11_3</title>
<ellipse fill="#93db70" stroke="#93db70" cx="387.05" cy="-279" rx="65.79" ry="18"/>
<text text-anchor="middle" x="387.05" y="-275.3" font-family="Times,serif" font-size="14.00">निवेशनम्(11.3)</text>
</g>
<!-- Node11_2&#45;&gt;Node11_3 -->
<g id="edge12" class="edge">
<title>Node11_2&#45;&gt;Node11_3</title>
<path fill="none" stroke="black" d="M443.87,-216.86C430.68,-231.05 414.29,-248.69 402.5,-261.37"/>
<polygon fill="black" stroke="black" points="446.57,-219.1 450.81,-209.39 441.44,-214.33 446.57,-219.1"/>
<text text-anchor="middle" x="448.05" y="-231.8" font-family="Times,serif" font-size="14.00">समासः</text>
</g>
<!-- Node11_3&#45;&gt;Node12_1 -->
<g id="edge13" class="edge">
<title>Node11_3&#45;&gt;Node12_1</title>
<path fill="none" stroke="black" d="M335.62,-296.01C303.57,-305.92 261.45,-318.85 224.05,-330 196.7,-338.15 165.79,-347.09 142.05,-353.89"/>
<polygon fill="black" stroke="black" points="336.71,-299.33 345.23,-293.03 334.64,-292.65 336.71,-299.33"/>
<text text-anchor="middle" x="292.55" y="-318.8" font-family="Times,serif" font-size="14.00">गतिकर्म</text>
</g>
</g>
</svg>
