<?xml version="1.0" encoding="UTF-8" standalone="no"?>
<!DOCTYPE svg PUBLIC "-//W3C//DTD SVG 1.1//EN"
 "http://www.w3.org/Graphics/SVG/1.1/DTD/svg11.dtd">
<!-- Generated by graphviz version 2.43.0 (0)
 -->
<!-- Title: G Pages: 1 -->
<svg width="842pt" height="321pt"
 viewBox="0.00 0.00 842.15 321.00" xmlns="http://www.w3.org/2000/svg" xmlns:xlink="http://www.w3.org/1999/xlink">
<g id="graph0" class="graph" transform="scale(1 1) rotate(0) translate(4 317)">
<title>G</title>
<polygon fill="#fffacd" stroke="transparent" points="-4,4 -4,-317 838.15,-317 838.15,4 -4,4"/>
<g id="clust1" class="cluster">
<title>cluster_1</title>
<polygon fill="#fffacd" stroke="black" points="264,-8 264,-147 386,-147 386,-8 264,-8"/>
</g>
<g id="clust2" class="cluster">
<title>cluster_2</title>
<polygon fill="#fffacd" stroke="black" points="8,-95 8,-234 124,-234 124,-95 8,-95"/>
</g>
<!-- Node7_1 -->
<g id="node1" class="node">
<title>Node7_1</title>
<ellipse fill="#40e0d0" stroke="#40e0d0" cx="325" cy="-34" rx="53.09" ry="18"/>
<text text-anchor="middle" x="325" y="-30.3" font-family="Times,serif" font-size="14.00">भवद्भिः(7.1)</text>
</g>
<!-- Node8_2 -->
<g id="node2" class="node">
<title>Node8_2</title>
<ellipse fill="#40e0d0" stroke="#40e0d0" cx="326" cy="-121" rx="50.09" ry="18"/>
<text text-anchor="middle" x="326" y="-117.3" font-family="Times,serif" font-size="14.00">कल्पैः(8.2)</text>
</g>
<!-- Node7_1&#45;&gt;Node8_2 -->
<g id="edge6" class="edge">
<title>Node7_1&#45;&gt;Node8_2</title>
<path fill="none" stroke="black" d="M325.32,-62.27C325.48,-75.58 325.66,-91.19 325.8,-102.82"/>
<polygon fill="black" stroke="black" points="328.82,-62.16 325.2,-52.2 321.82,-62.24 328.82,-62.16"/>
<text text-anchor="middle" x="348.5" y="-73.8" font-family="Times,serif" font-size="14.00">विशेषणम्</text>
</g>
<!-- Node9_1 -->
<g id="node11" class="node">
<title>Node9_1</title>
<ellipse fill="#00bfff" stroke="#00bfff" cx="326" cy="-208" rx="50.09" ry="18"/>
<text text-anchor="middle" x="326" y="-204.3" font-family="Times,serif" font-size="14.00">समेतः(9.1)</text>
</g>
<!-- Node8_2&#45;&gt;Node9_1 -->
<g id="edge8" class="edge">
<title>Node8_2&#45;&gt;Node9_1</title>
<path fill="none" stroke="black" d="M326,-149.27C326,-162.58 326,-178.19 326,-189.82"/>
<polygon fill="black" stroke="black" points="329.5,-149.2 326,-139.2 322.5,-149.2 329.5,-149.2"/>
<text text-anchor="middle" x="342" y="-160.8" font-family="Times,serif" font-size="14.00">सहार्थः</text>
</g>
<!-- Node11_1 -->
<g id="node3" class="node">
<title>Node11_1</title>
<ellipse fill="#93db70" stroke="#93db70" cx="66" cy="-121" rx="50.09" ry="18"/>
<text text-anchor="middle" x="66" y="-117.3" font-family="Times,serif" font-size="14.00">इष्टां(11.1)</text>
</g>
<!-- Node12_1 -->
<g id="node4" class="node">
<title>Node12_1</title>
<ellipse fill="#93db70" stroke="#93db70" cx="66" cy="-208" rx="50.09" ry="18"/>
<text text-anchor="middle" x="66" y="-204.3" font-family="Times,serif" font-size="14.00">गतिं(12.1)</text>
</g>
<!-- Node11_1&#45;&gt;Node12_1 -->
<g id="edge11" class="edge">
<title>Node11_1&#45;&gt;Node12_1</title>
<path fill="none" stroke="black" d="M66,-149.27C66,-162.58 66,-178.19 66,-189.82"/>
<polygon fill="black" stroke="black" points="69.5,-149.2 66,-139.2 62.5,-149.2 69.5,-149.2"/>
<text text-anchor="middle" x="88.5" y="-160.8" font-family="Times,serif" font-size="14.00">विशेषणम्</text>
</g>
<!-- Node14_1 -->
<g id="node13" class="node">
<title>Node14_1</title>
<ellipse fill="#ff1975" stroke="#ff1975" cx="401" cy="-295" rx="68.49" ry="18"/>
<text text-anchor="middle" x="401" y="-291.3" font-family="Times,serif" font-size="14.00">(प्रददाति)(14.1)</text>
</g>
<!-- Node12_1&#45;&gt;Node14_1 -->
<g id="edge12" class="edge">
<title>Node12_1&#45;&gt;Node14_1</title>
<path fill="none" stroke="black" d="M115.61,-221.59C179.69,-237.85 290.46,-265.95 353.5,-281.95"/>
<polygon fill="black" stroke="black" points="116.3,-218.15 105.74,-219.08 114.58,-224.94 116.3,-218.15"/>
<text text-anchor="middle" x="263" y="-247.8" font-family="Times,serif" font-size="14.00">कर्म</text>
</g>
<!-- Node1_1 -->
<g id="node5" class="node">
<title>Node1_1</title>
<ellipse fill="#ff99ff" stroke="#ff99ff" cx="788" cy="-208" rx="43.59" ry="18"/>
<text text-anchor="middle" x="788" y="-204.3" font-family="Times,serif" font-size="14.00">अद्य(1.1)</text>
</g>
<!-- Node5_1 -->
<g id="node6" class="node">
<title>Node5_1</title>
<ellipse fill="#ff1975" stroke="#ff1975" cx="716" cy="-295" rx="66.09" ry="18"/>
<text text-anchor="middle" x="716" y="-291.3" font-family="Times,serif" font-size="14.00">अवगच्छामि(5.1)</text>
</g>
<!-- Node1_1&#45;&gt;Node5_1 -->
<g id="edge1" class="edge">
<title>Node1_1&#45;&gt;Node5_1</title>
<path fill="none" stroke="black" d="M767.45,-233.26C755.49,-247.37 740.73,-264.81 730.09,-277.37"/>
<polygon fill="black" stroke="black" points="770.32,-235.28 774.12,-225.39 764.98,-230.76 770.32,-235.28"/>
<text text-anchor="middle" x="791.5" y="-247.8" font-family="Times,serif" font-size="14.00">कालाधिकरणम्</text>
</g>
<!-- Node2_1 -->
<g id="node7" class="node">
<title>Node2_1</title>
<ellipse fill="#ff99ff" stroke="#ff99ff" cx="788" cy="-121" rx="37.89" ry="18"/>
<text text-anchor="middle" x="788" y="-117.3" font-family="Times,serif" font-size="14.00">च(2.1)</text>
</g>
<!-- Node2_1&#45;&gt;Node1_1 -->
<g id="edge2" class="edge">
<title>Node2_1&#45;&gt;Node1_1</title>
<path fill="none" stroke="black" d="M788,-149.27C788,-162.58 788,-178.19 788,-189.82"/>
<polygon fill="black" stroke="black" points="791.5,-149.2 788,-139.2 784.5,-149.2 791.5,-149.2"/>
<text text-anchor="middle" x="806.5" y="-160.8" font-family="Times,serif" font-size="14.00">सम्बन्धः</text>
</g>
<!-- Node3_1 -->
<g id="node8" class="node">
<title>Node3_1</title>
<ellipse fill="#ff99ff" stroke="#ff99ff" cx="788" cy="-34" rx="46.29" ry="18"/>
<text text-anchor="middle" x="788" y="-30.3" font-family="Times,serif" font-size="14.00">अपि(3.1)</text>
</g>
<!-- Node3_1&#45;&gt;Node2_1 -->
<g id="edge3" class="edge">
<title>Node3_1&#45;&gt;Node2_1</title>
<path fill="none" stroke="black" d="M788,-62.27C788,-75.58 788,-91.19 788,-102.82"/>
<polygon fill="black" stroke="black" points="791.5,-62.2 788,-52.2 784.5,-62.2 791.5,-62.2"/>
<text text-anchor="middle" x="806.5" y="-73.8" font-family="Times,serif" font-size="14.00">सम्बन्धः</text>
</g>
<!-- Node4_1 -->
<g id="node9" class="node">
<title>Node4_1</title>
<ellipse fill="#00bfff" stroke="#00bfff" cx="678" cy="-208" rx="48.19" ry="18"/>
<text text-anchor="middle" x="678" y="-204.3" font-family="Times,serif" font-size="14.00">अहम्(4.1)</text>
</g>
<!-- Node4_1&#45;&gt;Node5_1 -->
<g id="edge4" class="edge">
<title>Node4_1&#45;&gt;Node5_1</title>
<path fill="none" stroke="black" d="M689.68,-235.13C695.76,-248.73 703.02,-264.98 708.38,-276.95"/>
<polygon fill="black" stroke="black" points="692.78,-233.49 685.51,-225.79 686.39,-236.35 692.78,-233.49"/>
<text text-anchor="middle" x="710" y="-247.8" font-family="Times,serif" font-size="14.00">कर्ता</text>
</g>
<!-- Node6_1 -->
<g id="node10" class="node">
<title>Node6_1</title>
<ellipse fill="#ff99ff" stroke="#ff99ff" cx="436" cy="-121" rx="42.49" ry="18"/>
<text text-anchor="middle" x="436" y="-117.3" font-family="Times,serif" font-size="14.00">यत्(6.1)</text>
</g>
<!-- Node6_1&#45;&gt;Node9_1 -->
<g id="edge5" class="edge">
<title>Node6_1&#45;&gt;Node9_1</title>
<path fill="none" stroke="black" d="M408.47,-143.28C389.17,-158.18 363.81,-177.78 346.34,-191.29"/>
<polygon fill="black" stroke="black" points="410.81,-145.88 416.59,-137 406.53,-140.35 410.81,-145.88"/>
<text text-anchor="middle" x="406.5" y="-160.8" font-family="Times,serif" font-size="14.00">सम्बन्धः</text>
</g>
<!-- Node9_1&#45;&gt;Node14_1 -->
<g id="edge9" class="edge">
<title>Node9_1&#45;&gt;Node14_1</title>
<path fill="none" stroke="black" d="M347.4,-233.26C359.86,-247.37 375.24,-264.81 386.33,-277.37"/>
<polygon fill="black" stroke="black" points="349.7,-230.57 340.46,-225.39 344.45,-235.2 349.7,-230.57"/>
<text text-anchor="middle" x="379" y="-247.8" font-family="Times,serif" font-size="14.00">कर्ता</text>
</g>
<!-- Node8_1 -->
<g id="node12" class="node">
<title>Node8_1</title>
<ellipse fill="#ffff00" stroke="#ffff00" cx="442" cy="-34" rx="46.29" ry="18"/>
<text text-anchor="middle" x="442" y="-30.3" font-family="Times,serif" font-size="14.00">ब्रह्म&#45;(8.1)</text>
</g>
<!-- Node8_1&#45;&gt;Node8_2 -->
<g id="edge7" class="edge">
<title>Node8_1&#45;&gt;Node8_2</title>
<path fill="none" stroke="black" d="M413.61,-56.39C401.73,-65.29 387.73,-75.7 375,-85 366.22,-91.41 356.49,-98.39 348.02,-104.42"/>
<polygon fill="black" stroke="black" points="415.95,-59.01 421.85,-50.21 411.75,-53.41 415.95,-59.01"/>
<text text-anchor="middle" x="413" y="-73.8" font-family="Times,serif" font-size="14.00">समासः</text>
</g>
<!-- Node10_1 -->
<g id="node14" class="node">
<title>Node10_1</title>
<ellipse fill="#87ceeb" stroke="#87ceeb" cx="195" cy="-121" rx="61.19" ry="18"/>
<text text-anchor="middle" x="195" y="-117.3" font-family="Times,serif" font-size="14.00">आत्मनः(10.1)</text>
</g>
<!-- Node10_1&#45;&gt;Node12_1 -->
<g id="edge10" class="edge">
<title>Node10_1&#45;&gt;Node12_1</title>
<path fill="none" stroke="black" d="M162.64,-143.32C139.69,-158.44 109.46,-178.36 88.97,-191.87"/>
<polygon fill="black" stroke="black" points="164.61,-146.21 171.04,-137.79 160.76,-140.37 164.61,-146.21"/>
<text text-anchor="middle" x="166.5" y="-160.8" font-family="Times,serif" font-size="14.00">षष्ठीसम्बन्धः</text>
</g>
<!-- Node13_1 -->
<g id="node15" class="node">
<title>Node13_1</title>
<ellipse fill="#ff99ff" stroke="#ff99ff" cx="441" cy="-208" rx="46.59" ry="18"/>
<text text-anchor="middle" x="441" y="-204.3" font-family="Times,serif" font-size="14.00">इह(13.1)</text>
</g>
<!-- Node13_1&#45;&gt;Node14_1 -->
<g id="edge13" class="edge">
<title>Node13_1&#45;&gt;Node14_1</title>
<path fill="none" stroke="black" d="M428.7,-235.13C422.3,-248.73 414.66,-264.98 409.02,-276.95"/>
<polygon fill="black" stroke="black" points="432.01,-236.33 433.1,-225.79 425.67,-233.35 432.01,-236.33"/>
<text text-anchor="middle" x="455" y="-247.8" font-family="Times,serif" font-size="14.00">देशाधिकरणम्</text>
</g>
<!-- Node15_1 -->
<g id="node16" class="node">
<title>Node15_1</title>
<ellipse fill="#ffff00" stroke="#ffff00" cx="559" cy="-121" rx="53.09" ry="18"/>
<text text-anchor="middle" x="559" y="-117.3" font-family="Times,serif" font-size="14.00">तपो&#45;(15.1)</text>
</g>
<!-- Node15_2 -->
<g id="node17" class="node">
<title>Node15_2</title>
<ellipse fill="#6fffc3" stroke="#6fffc3" cx="559" cy="-208" rx="53.09" ry="18"/>
<text text-anchor="middle" x="559" y="-204.3" font-family="Times,serif" font-size="14.00">धनाः(15.2)</text>
</g>
<!-- Node15_1&#45;&gt;Node15_2 -->
<g id="edge14" class="edge">
<title>Node15_1&#45;&gt;Node15_2</title>
<path fill="none" stroke="black" d="M559,-149.27C559,-162.58 559,-178.19 559,-189.82"/>
<polygon fill="black" stroke="black" points="562.5,-149.2 559,-139.2 555.5,-149.2 562.5,-149.2"/>
<text text-anchor="middle" x="576" y="-160.8" font-family="Times,serif" font-size="14.00">समासः</text>
</g>
<!-- Node15_2&#45;&gt;Node14_1 -->
<g id="edge15" class="edge">
<title>Node15_2&#45;&gt;Node14_1</title>
<path fill="none" stroke="black" d="M532.35,-231.13C520.23,-240.51 505.4,-251.09 491,-259 475.72,-267.4 458,-274.75 442.35,-280.52"/>
<polygon fill="black" stroke="black" points="534.6,-233.82 540.27,-224.87 530.26,-228.32 534.6,-233.82"/>
<text text-anchor="middle" x="535" y="-247.8" font-family="Times,serif" font-size="14.00">सम्बोध्यः</text>
</g>
</g>
</svg>
