<?xml version="1.0" encoding="UTF-8" standalone="no"?>
<!DOCTYPE svg PUBLIC "-//W3C//DTD SVG 1.1//EN"
 "http://www.w3.org/Graphics/SVG/1.1/DTD/svg11.dtd">
<!-- Generated by graphviz version 2.43.0 (0)
 -->
<!-- Title: G Pages: 1 -->
<svg width="887pt" height="305pt"
 viewBox="0.00 0.00 886.99 305.00" xmlns="http://www.w3.org/2000/svg" xmlns:xlink="http://www.w3.org/1999/xlink">
<g id="graph0" class="graph" transform="scale(1 1) rotate(0) translate(4 301)">
<title>G</title>
<polygon fill="#fffacd" stroke="transparent" points="-4,4 -4,-301 882.99,-301 882.99,4 -4,4"/>
<g id="clust1" class="cluster">
<title>cluster_1</title>
<polygon fill="#fffacd" stroke="black" points="255.99,-79 255.99,-218 865.99,-218 865.99,-79 255.99,-79"/>
</g>
<!-- Node1_1 -->
<g id="node1" class="node">
<title>Node1_1</title>
<ellipse fill="#00bfff" stroke="#00bfff" cx="439.99" cy="-105" rx="55.79" ry="18"/>
<text text-anchor="middle" x="439.99" y="-101.3" font-family="Times,serif" font-size="14.00">गान्धारी(1.1)</text>
</g>
<!-- Node10_1 -->
<g id="node2" class="node">
<title>Node10_1</title>
<ellipse fill="#00bfff" stroke="#00bfff" cx="439.99" cy="-192" rx="57.39" ry="18"/>
<text text-anchor="middle" x="439.99" y="-188.3" font-family="Times,serif" font-size="14.00">स्त्रियः(10.1)</text>
</g>
<!-- Node1_1&#45;&gt;Node10_1 -->
<g id="edge1" class="edge">
<title>Node1_1&#45;&gt;Node10_1</title>
<path fill="none" stroke="black" d="M439.99,-133.27C439.99,-146.58 439.99,-162.19 439.99,-173.82"/>
<polygon fill="black" stroke="black" points="443.49,-133.2 439.99,-123.2 436.49,-133.2 443.49,-133.2"/>
<text text-anchor="middle" x="462.49" y="-144.8" font-family="Times,serif" font-size="14.00">समुच्चितः</text>
</g>
<!-- Node15_1 -->
<g id="node11" class="node">
<title>Node15_1</title>
<ellipse fill="#ff1975" stroke="#ff1975" cx="197.99" cy="-279" rx="69.59" ry="18"/>
<text text-anchor="middle" x="197.99" y="-275.3" font-family="Times,serif" font-size="14.00">उपविविशुः(15.1)</text>
</g>
<!-- Node10_1&#45;&gt;Node15_1 -->
<g id="edge10" class="edge">
<title>Node10_1&#45;&gt;Node15_1</title>
<path fill="none" stroke="black" d="M393.67,-209.27C348.41,-225.17 280.28,-249.1 237.51,-264.12"/>
<polygon fill="black" stroke="black" points="394.96,-212.53 403.24,-205.91 392.64,-205.92 394.96,-212.53"/>
<text text-anchor="middle" x="343.99" y="-231.8" font-family="Times,serif" font-size="14.00">कर्ता</text>
</g>
<!-- Node3_1 -->
<g id="node3" class="node">
<title>Node3_1</title>
<ellipse fill="#00bfff" stroke="#00bfff" cx="561.99" cy="-105" rx="48.19" ry="18"/>
<text text-anchor="middle" x="561.99" y="-101.3" font-family="Times,serif" font-size="14.00">कुन्ती(3.1)</text>
</g>
<!-- Node3_1&#45;&gt;Node10_1 -->
<g id="edge3" class="edge">
<title>Node3_1&#45;&gt;Node10_1</title>
<path fill="none" stroke="black" d="M531.74,-127.08C510.27,-142.04 481.91,-161.79 462.44,-175.36"/>
<polygon fill="black" stroke="black" points="533.98,-129.78 540.18,-121.2 529.98,-124.04 533.98,-129.78"/>
<text text-anchor="middle" x="530.49" y="-144.8" font-family="Times,serif" font-size="14.00">समुच्चितः</text>
</g>
<!-- Node5_1 -->
<g id="node4" class="node">
<title>Node5_1</title>
<ellipse fill="#00bfff" stroke="#00bfff" cx="678.99" cy="-105" rx="50.89" ry="18"/>
<text text-anchor="middle" x="678.99" y="-101.3" font-family="Times,serif" font-size="14.00">द्रौपदी(5.1)</text>
</g>
<!-- Node5_1&#45;&gt;Node10_1 -->
<g id="edge5" class="edge">
<title>Node5_1&#45;&gt;Node10_1</title>
<path fill="none" stroke="black" d="M639.13,-123.5C615.48,-133.59 584.78,-146.18 556.99,-156 532.31,-164.73 504.21,-173.18 481.74,-179.59"/>
<polygon fill="black" stroke="black" points="640.67,-126.64 648.48,-119.48 637.91,-120.21 640.67,-126.64"/>
<text text-anchor="middle" x="616.49" y="-144.8" font-family="Times,serif" font-size="14.00">समुच्चितः</text>
</g>
<!-- Node7_1 -->
<g id="node5" class="node">
<title>Node7_1</title>
<ellipse fill="#00bfff" stroke="#00bfff" cx="802.99" cy="-105" rx="55.49" ry="18"/>
<text text-anchor="middle" x="802.99" y="-101.3" font-family="Times,serif" font-size="14.00">सात्वती(7.1)</text>
</g>
<!-- Node7_1&#45;&gt;Node10_1 -->
<g id="edge7" class="edge">
<title>Node7_1&#45;&gt;Node10_1</title>
<path fill="none" stroke="black" d="M756.96,-122.16C725.23,-132.86 681.92,-146.6 642.99,-156 592.06,-168.29 532.94,-177.98 491.69,-184.01"/>
<polygon fill="black" stroke="black" points="758.5,-125.34 766.84,-118.8 756.24,-118.71 758.5,-125.34"/>
<text text-anchor="middle" x="718.49" y="-144.8" font-family="Times,serif" font-size="14.00">समुच्चितः</text>
</g>
<!-- Node9_1 -->
<g id="node6" class="node">
<title>Node9_1</title>
<ellipse fill="#00bfff" stroke="#00bfff" cx="314.99" cy="-105" rx="50.89" ry="18"/>
<text text-anchor="middle" x="314.99" y="-101.3" font-family="Times,serif" font-size="14.00">अन्याः(9.1)</text>
</g>
<!-- Node9_1&#45;&gt;Node10_1 -->
<g id="edge9" class="edge">
<title>Node9_1&#45;&gt;Node10_1</title>
<path fill="none" stroke="black" d="M345.7,-126.88C367.73,-141.86 396.95,-161.73 416.99,-175.36"/>
<polygon fill="black" stroke="black" points="347.58,-123.93 337.34,-121.2 343.64,-129.71 347.58,-123.93"/>
<text text-anchor="middle" x="406.49" y="-144.8" font-family="Times,serif" font-size="14.00">विशेषणम्</text>
</g>
<!-- Node2_1 -->
<g id="node7" class="node">
<title>Node2_1</title>
<ellipse fill="#ff99ff" stroke="#ff99ff" cx="439.99" cy="-18" rx="42.49" ry="18"/>
<text text-anchor="middle" x="439.99" y="-14.3" font-family="Times,serif" font-size="14.00">चैव(2.1)</text>
</g>
<!-- Node2_1&#45;&gt;Node1_1 -->
<g id="edge2" class="edge">
<title>Node2_1&#45;&gt;Node1_1</title>
<path fill="none" stroke="black" d="M439.99,-46.27C439.99,-59.58 439.99,-75.19 439.99,-86.82"/>
<polygon fill="black" stroke="black" points="443.49,-46.2 439.99,-36.2 436.49,-46.2 443.49,-46.2"/>
<text text-anchor="middle" x="477.99" y="-57.8" font-family="Times,serif" font-size="14.00">समुच्चय_द्योतकः</text>
</g>
<!-- Node4_1 -->
<g id="node8" class="node">
<title>Node4_1</title>
<ellipse fill="#ff99ff" stroke="#ff99ff" cx="561.99" cy="-18" rx="37.89" ry="18"/>
<text text-anchor="middle" x="561.99" y="-14.3" font-family="Times,serif" font-size="14.00">च(4.1)</text>
</g>
<!-- Node4_1&#45;&gt;Node3_1 -->
<g id="edge4" class="edge">
<title>Node4_1&#45;&gt;Node3_1</title>
<path fill="none" stroke="black" d="M561.99,-46.27C561.99,-59.58 561.99,-75.19 561.99,-86.82"/>
<polygon fill="black" stroke="black" points="565.49,-46.2 561.99,-36.2 558.49,-46.2 565.49,-46.2"/>
<text text-anchor="middle" x="599.99" y="-57.8" font-family="Times,serif" font-size="14.00">समुच्चय_द्योतकः</text>
</g>
<!-- Node6_1 -->
<g id="node9" class="node">
<title>Node6_1</title>
<ellipse fill="#ff99ff" stroke="#ff99ff" cx="678.99" cy="-18" rx="44.69" ry="18"/>
<text text-anchor="middle" x="678.99" y="-14.3" font-family="Times,serif" font-size="14.00">तथा(6.1)</text>
</g>
<!-- Node6_1&#45;&gt;Node5_1 -->
<g id="edge6" class="edge">
<title>Node6_1&#45;&gt;Node5_1</title>
<path fill="none" stroke="black" d="M678.99,-46.27C678.99,-59.58 678.99,-75.19 678.99,-86.82"/>
<polygon fill="black" stroke="black" points="682.49,-46.2 678.99,-36.2 675.49,-46.2 682.49,-46.2"/>
<text text-anchor="middle" x="716.99" y="-57.8" font-family="Times,serif" font-size="14.00">समुच्चय_द्योतकः</text>
</g>
<!-- Node8_1 -->
<g id="node10" class="node">
<title>Node8_1</title>
<ellipse fill="#ff99ff" stroke="#ff99ff" cx="802.99" cy="-18" rx="44.69" ry="18"/>
<text text-anchor="middle" x="802.99" y="-14.3" font-family="Times,serif" font-size="14.00">तथा(8.1)</text>
</g>
<!-- Node8_1&#45;&gt;Node7_1 -->
<g id="edge8" class="edge">
<title>Node8_1&#45;&gt;Node7_1</title>
<path fill="none" stroke="black" d="M802.99,-46.27C802.99,-59.58 802.99,-75.19 802.99,-86.82"/>
<polygon fill="black" stroke="black" points="806.49,-46.2 802.99,-36.2 799.49,-46.2 806.49,-46.2"/>
<text text-anchor="middle" x="840.99" y="-57.8" font-family="Times,serif" font-size="14.00">समुच्चय_द्योतकः</text>
</g>
<!-- Node11_1 -->
<g id="node12" class="node">
<title>Node11_1</title>
<ellipse fill="#ff99ff" stroke="#ff99ff" cx="202.99" cy="-105" rx="43.59" ry="18"/>
<text text-anchor="middle" x="202.99" y="-101.3" font-family="Times,serif" font-size="14.00">च(11.1)</text>
</g>
<!-- Node11_1&#45;&gt;Node10_1 -->
<g id="edge11" class="edge">
<title>Node11_1&#45;&gt;Node10_1</title>
<path fill="none" stroke="black" d="M241.71,-122.2C266.49,-132.37 299.43,-145.49 328.99,-156 352.32,-164.29 378.74,-172.66 399.95,-179.14"/>
<polygon fill="black" stroke="black" points="242.88,-118.9 232.3,-118.33 240.21,-125.37 242.88,-118.9"/>
<text text-anchor="middle" x="347.49" y="-144.8" font-family="Times,serif" font-size="14.00">सम्बन्धः</text>
</g>
<!-- Node12_1 -->
<g id="node13" class="node">
<title>Node12_1</title>
<ellipse fill="#40e0d0" stroke="#40e0d0" cx="64.99" cy="-192" rx="64.99" ry="18"/>
<text text-anchor="middle" x="64.99" y="-188.3" font-family="Times,serif" font-size="14.00">अन्याभिः(12.1)</text>
</g>
<!-- Node12_1&#45;&gt;Node15_1 -->
<g id="edge12" class="edge">
<title>Node12_1&#45;&gt;Node15_1</title>
<path fill="none" stroke="black" d="M98.19,-214.22C121.37,-229.03 151.83,-248.49 172.97,-262.01"/>
<polygon fill="black" stroke="black" points="100.01,-211.22 89.7,-208.79 96.24,-217.12 100.01,-211.22"/>
<text text-anchor="middle" x="155.99" y="-231.8" font-family="Times,serif" font-size="14.00">सहार्थः</text>
</g>
<!-- Node13_1 -->
<g id="node14" class="node">
<title>Node13_1</title>
<ellipse fill="#ff99ff" stroke="#ff99ff" cx="64.99" cy="-105" rx="48.19" ry="18"/>
<text text-anchor="middle" x="64.99" y="-101.3" font-family="Times,serif" font-size="14.00">सह(13.1)</text>
</g>
<!-- Node13_1&#45;&gt;Node12_1 -->
<g id="edge13" class="edge">
<title>Node13_1&#45;&gt;Node12_1</title>
<path fill="none" stroke="black" d="M64.99,-133.27C64.99,-146.58 64.99,-162.19 64.99,-173.82"/>
<polygon fill="black" stroke="black" points="68.49,-133.2 64.99,-123.2 61.49,-133.2 68.49,-133.2"/>
<text text-anchor="middle" x="98.49" y="-144.8" font-family="Times,serif" font-size="14.00">सहार्थ_द्योतकः</text>
</g>
<!-- Node14_1 -->
<g id="node15" class="node">
<title>Node14_1</title>
<ellipse fill="#ff99ff" stroke="#ff99ff" cx="197.99" cy="-192" rx="50.09" ry="18"/>
<text text-anchor="middle" x="197.99" y="-188.3" font-family="Times,serif" font-size="14.00">ततः(14.1)</text>
</g>
<!-- Node14_1&#45;&gt;Node15_1 -->
<g id="edge14" class="edge">
<title>Node14_1&#45;&gt;Node15_1</title>
<path fill="none" stroke="black" d="M197.99,-220.27C197.99,-233.58 197.99,-249.19 197.99,-260.82"/>
<polygon fill="black" stroke="black" points="201.49,-220.2 197.99,-210.2 194.49,-220.2 201.49,-220.2"/>
<text text-anchor="middle" x="216.49" y="-231.8" font-family="Times,serif" font-size="14.00">सम्बन्धः</text>
</g>
</g>
</svg>
