<?xml version="1.0" encoding="UTF-8" standalone="no"?>
<!DOCTYPE svg PUBLIC "-//W3C//DTD SVG 1.1//EN"
 "http://www.w3.org/Graphics/SVG/1.1/DTD/svg11.dtd">
<!-- Generated by graphviz version 2.43.0 (0)
 -->
<!-- Title: G Pages: 1 -->
<svg width="1002pt" height="321pt"
 viewBox="0.00 0.00 1002.05 321.00" xmlns="http://www.w3.org/2000/svg" xmlns:xlink="http://www.w3.org/1999/xlink">
<g id="graph0" class="graph" transform="scale(1 1) rotate(0) translate(4 317)">
<title>G</title>
<polygon fill="#fffacd" stroke="transparent" points="-4,4 -4,-317 998.05,-317 998.05,4 -4,4"/>
<g id="clust1" class="cluster">
<title>cluster_1</title>
<polygon fill="#fffacd" stroke="black" points="82.05,-95 82.05,-234 202.05,-234 202.05,-95 82.05,-95"/>
</g>
<g id="clust2" class="cluster">
<title>cluster_2</title>
<polygon fill="#fffacd" stroke="black" points="210.05,-8 210.05,-147 350.05,-147 350.05,-8 210.05,-8"/>
</g>
<!-- Node1_2 -->
<g id="node1" class="node">
<title>Node1_2</title>
<ellipse fill="#00bfff" stroke="#00bfff" cx="142.05" cy="-121" rx="44.69" ry="18"/>
<text text-anchor="middle" x="142.05" y="-117.3" font-family="Times,serif" font-size="14.00">फलं(1.2)</text>
</g>
<!-- Node2_1 -->
<g id="node2" class="node">
<title>Node2_1</title>
<ellipse fill="#00bfff" stroke="#00bfff" cx="142.05" cy="-208" rx="51.99" ry="18"/>
<text text-anchor="middle" x="142.05" y="-204.3" font-family="Times,serif" font-size="14.00">जीवितं(2.1)</text>
</g>
<!-- Node1_2&#45;&gt;Node2_1 -->
<g id="edge2" class="edge">
<title>Node1_2&#45;&gt;Node2_1</title>
<path fill="none" stroke="black" d="M142.05,-149.27C142.05,-162.58 142.05,-178.19 142.05,-189.82"/>
<polygon fill="black" stroke="black" points="145.55,-149.2 142.05,-139.2 138.55,-149.2 145.55,-149.2"/>
<text text-anchor="middle" x="164.55" y="-160.8" font-family="Times,serif" font-size="14.00">विशेषणम्</text>
</g>
<!-- Node10_1 -->
<g id="node3" class="node">
<title>Node10_1</title>
<ellipse fill="#40e0d0" stroke="#40e0d0" cx="280.05" cy="-34" rx="62.29" ry="18"/>
<text text-anchor="middle" x="280.05" y="-30.3" font-family="Times,serif" font-size="14.00">साधुभिः(10.1)</text>
</g>
<!-- Node9_1 -->
<g id="node4" class="node">
<title>Node9_1</title>
<ellipse fill="#40e0d0" stroke="#40e0d0" cx="287.05" cy="-121" rx="53.09" ry="18"/>
<text text-anchor="middle" x="287.05" y="-117.3" font-family="Times,serif" font-size="14.00">भवद्भिः(9.1)</text>
</g>
<!-- Node10_1&#45;&gt;Node9_1 -->
<g id="edge9" class="edge">
<title>Node10_1&#45;&gt;Node9_1</title>
<path fill="none" stroke="black" d="M282.29,-62.27C283.39,-75.58 284.67,-91.19 285.63,-102.82"/>
<polygon fill="black" stroke="black" points="285.77,-61.88 281.46,-52.2 278.8,-62.45 285.77,-61.88"/>
<text text-anchor="middle" x="305.55" y="-73.8" font-family="Times,serif" font-size="14.00">विशेषणम्</text>
</g>
<!-- Node12_2 -->
<g id="node13" class="node">
<title>Node12_2</title>
<ellipse fill="#00bfff" stroke="#00bfff" cx="401.05" cy="-208" rx="58.49" ry="18"/>
<text text-anchor="middle" x="401.05" y="-204.3" font-family="Times,serif" font-size="14.00">आगमः(12.2)</text>
</g>
<!-- Node9_1&#45;&gt;Node12_2 -->
<g id="edge8" class="edge">
<title>Node9_1&#45;&gt;Node12_2</title>
<path fill="none" stroke="black" d="M316.02,-143.6C335.78,-158.34 361.53,-177.54 379.5,-190.93"/>
<polygon fill="black" stroke="black" points="318.07,-140.76 307.96,-137.59 313.88,-146.37 318.07,-140.76"/>
<text text-anchor="middle" x="366.05" y="-160.8" font-family="Times,serif" font-size="14.00">सहार्थः</text>
</g>
<!-- Node1_1 -->
<g id="node5" class="node">
<title>Node1_1</title>
<ellipse fill="#ffff00" stroke="#ffff00" cx="142.05" cy="-34" rx="40.89" ry="18"/>
<text text-anchor="middle" x="142.05" y="-30.3" font-family="Times,serif" font-size="14.00">स&#45;(1.1)</text>
</g>
<!-- Node1_1&#45;&gt;Node1_2 -->
<g id="edge1" class="edge">
<title>Node1_1&#45;&gt;Node1_2</title>
<path fill="none" stroke="black" d="M142.05,-62.27C142.05,-75.58 142.05,-91.19 142.05,-102.82"/>
<polygon fill="black" stroke="black" points="145.55,-62.2 142.05,-52.2 138.55,-62.2 145.55,-62.2"/>
<text text-anchor="middle" x="159.05" y="-73.8" font-family="Times,serif" font-size="14.00">समासः</text>
</g>
<!-- Node3_1 -->
<g id="node6" class="node">
<title>Node3_1</title>
<ellipse fill="#87ceeb" stroke="#87ceeb" cx="37.05" cy="-121" rx="37.09" ry="18"/>
<text text-anchor="middle" x="37.05" y="-117.3" font-family="Times,serif" font-size="14.00">मे(3.1)</text>
</g>
<!-- Node3_1&#45;&gt;Node2_1 -->
<g id="edge3" class="edge">
<title>Node3_1&#45;&gt;Node2_1</title>
<path fill="none" stroke="black" d="M56.33,-145.75C64.12,-154.55 73.51,-164.27 83.05,-172 92.58,-179.73 103.99,-186.9 114.23,-192.72"/>
<polygon fill="black" stroke="black" points="58.85,-143.31 49.68,-138 53.54,-147.87 58.85,-143.31"/>
<text text-anchor="middle" x="110.55" y="-160.8" font-family="Times,serif" font-size="14.00">षष्ठीसम्बन्धः</text>
</g>
<!-- Node4_1 -->
<g id="node7" class="node">
<title>Node4_1</title>
<ellipse fill="#00bfff" stroke="#00bfff" cx="668.05" cy="-34" rx="47.39" ry="18"/>
<text text-anchor="middle" x="668.05" y="-30.3" font-family="Times,serif" font-size="14.00">धन्यः(4.1)</text>
</g>
<!-- Node5_1 -->
<g id="node8" class="node">
<title>Node5_1</title>
<ellipse fill="#ff1975" stroke="#ff1975" cx="668.05" cy="-121" rx="50.09" ry="18"/>
<text text-anchor="middle" x="668.05" y="-117.3" font-family="Times,serif" font-size="14.00">अस्मि(5.1)</text>
</g>
<!-- Node4_1&#45;&gt;Node5_1 -->
<g id="edge4" class="edge">
<title>Node4_1&#45;&gt;Node5_1</title>
<path fill="none" stroke="black" d="M668.05,-62.27C668.05,-75.58 668.05,-91.19 668.05,-102.82"/>
<polygon fill="black" stroke="black" points="671.55,-62.2 668.05,-52.2 664.55,-62.2 671.55,-62.2"/>
<text text-anchor="middle" x="735.05" y="-73.8" font-family="Times,serif" font-size="14.00">कर्तृरहितकर्तृसमानाधिकरणम्</text>
</g>
<!-- Node6_1 -->
<g id="node9" class="node">
<title>Node6_1</title>
<ellipse fill="#ffff00" stroke="#ffff00" cx="860.05" cy="-34" rx="46.29" ry="18"/>
<text text-anchor="middle" x="860.05" y="-30.3" font-family="Times,serif" font-size="14.00">अनु&#45;(6.1)</text>
</g>
<!-- Node6_2 -->
<g id="node10" class="node">
<title>Node6_2</title>
<ellipse fill="#00bfff" stroke="#00bfff" cx="860.05" cy="-121" rx="51.19" ry="18"/>
<text text-anchor="middle" x="860.05" y="-117.3" font-family="Times,serif" font-size="14.00">गृहीतः(6.2)</text>
</g>
<!-- Node6_1&#45;&gt;Node6_2 -->
<g id="edge5" class="edge">
<title>Node6_1&#45;&gt;Node6_2</title>
<path fill="none" stroke="black" d="M860.05,-62.27C860.05,-75.58 860.05,-91.19 860.05,-102.82"/>
<polygon fill="black" stroke="black" points="863.55,-62.2 860.05,-52.2 856.55,-62.2 863.55,-62.2"/>
<text text-anchor="middle" x="877.05" y="-73.8" font-family="Times,serif" font-size="14.00">समासः</text>
</g>
<!-- Node7_1 -->
<g id="node11" class="node">
<title>Node7_1</title>
<ellipse fill="#ff1975" stroke="#ff1975" cx="860.05" cy="-208" rx="50.09" ry="18"/>
<text text-anchor="middle" x="860.05" y="-204.3" font-family="Times,serif" font-size="14.00">अस्मि(7.1)</text>
</g>
<!-- Node6_2&#45;&gt;Node7_1 -->
<g id="edge6" class="edge">
<title>Node6_2&#45;&gt;Node7_1</title>
<path fill="none" stroke="black" d="M860.05,-149.27C860.05,-162.58 860.05,-178.19 860.05,-189.82"/>
<polygon fill="black" stroke="black" points="863.55,-149.2 860.05,-139.2 856.55,-149.2 863.55,-149.2"/>
<text text-anchor="middle" x="927.05" y="-160.8" font-family="Times,serif" font-size="14.00">कर्तृरहितकर्तृसमानाधिकरणम्</text>
</g>
<!-- Node8_1 -->
<g id="node12" class="node">
<title>Node8_1</title>
<ellipse fill="#ff99ff" stroke="#ff99ff" cx="401.05" cy="-121" rx="42.49" ry="18"/>
<text text-anchor="middle" x="401.05" y="-117.3" font-family="Times,serif" font-size="14.00">यत्(8.1)</text>
</g>
<!-- Node8_1&#45;&gt;Node12_2 -->
<g id="edge7" class="edge">
<title>Node8_1&#45;&gt;Node12_2</title>
<path fill="none" stroke="black" d="M401.05,-149.27C401.05,-162.58 401.05,-178.19 401.05,-189.82"/>
<polygon fill="black" stroke="black" points="404.55,-149.2 401.05,-139.2 397.55,-149.2 404.55,-149.2"/>
<text text-anchor="middle" x="419.55" y="-160.8" font-family="Times,serif" font-size="14.00">सम्बन्धः</text>
</g>
<!-- Node15_1 -->
<g id="node16" class="node">
<title>Node15_1</title>
<ellipse fill="#00bfff" stroke="#00bfff" cx="584.05" cy="-295" rx="61.99" ry="18"/>
<text text-anchor="middle" x="584.05" y="-291.3" font-family="Times,serif" font-size="14.00">सम्पन्नः(15.1)</text>
</g>
<!-- Node12_2&#45;&gt;Node15_1 -->
<g id="edge12" class="edge">
<title>Node12_2&#45;&gt;Node15_1</title>
<path fill="none" stroke="black" d="M441.58,-227.83C475.04,-243.37 521.85,-265.11 552.54,-279.37"/>
<polygon fill="black" stroke="black" points="442.63,-224.46 432.09,-223.42 439.69,-230.81 442.63,-224.46"/>
<text text-anchor="middle" x="514.05" y="-247.8" font-family="Times,serif" font-size="14.00">कर्ता</text>
</g>
<!-- Node11_1 -->
<g id="node14" class="node">
<title>Node11_1</title>
<ellipse fill="#ff99ff" stroke="#ff99ff" cx="408.05" cy="-34" rx="48.19" ry="18"/>
<text text-anchor="middle" x="408.05" y="-30.3" font-family="Times,serif" font-size="14.00">सह(11.1)</text>
</g>
<!-- Node11_1&#45;&gt;Node9_1 -->
<g id="edge10" class="edge">
<title>Node11_1&#45;&gt;Node9_1</title>
<path fill="none" stroke="black" d="M378.04,-56.08C356.75,-71.04 328.62,-90.79 309.31,-104.36"/>
<polygon fill="black" stroke="black" points="380.24,-58.81 386.41,-50.2 376.22,-53.08 380.24,-58.81"/>
<text text-anchor="middle" x="387.55" y="-73.8" font-family="Times,serif" font-size="14.00">सहार्थ_द्योतकः</text>
</g>
<!-- Node12_1 -->
<g id="node15" class="node">
<title>Node12_1</title>
<ellipse fill="#ffff00" stroke="#ffff00" cx="513.05" cy="-121" rx="51.99" ry="18"/>
<text text-anchor="middle" x="513.05" y="-117.3" font-family="Times,serif" font-size="14.00">सम्&#45;(12.1)</text>
</g>
<!-- Node12_1&#45;&gt;Node12_2 -->
<g id="edge11" class="edge">
<title>Node12_1&#45;&gt;Node12_2</title>
<path fill="none" stroke="black" d="M484.32,-143.8C464.94,-158.51 439.79,-177.6 422.22,-190.93"/>
<polygon fill="black" stroke="black" points="486.65,-146.42 492.5,-137.59 482.42,-140.85 486.65,-146.42"/>
<text text-anchor="middle" x="480.05" y="-160.8" font-family="Times,serif" font-size="14.00">समासः</text>
</g>
<!-- Node13_1 -->
<g id="node17" class="node">
<title>Node13_1</title>
<ellipse fill="#ff99ff" stroke="#ff99ff" cx="527.05" cy="-208" rx="49.29" ry="18"/>
<text text-anchor="middle" x="527.05" y="-204.3" font-family="Times,serif" font-size="14.00">अद्य(13.1)</text>
</g>
<!-- Node13_1&#45;&gt;Node15_1 -->
<g id="edge13" class="edge">
<title>Node13_1&#45;&gt;Node15_1</title>
<path fill="none" stroke="black" d="M535.91,-235.61C539.13,-243.48 543.2,-251.89 548.05,-259 552.66,-265.77 558.74,-272.29 564.59,-277.82"/>
<polygon fill="black" stroke="black" points="539.11,-234.17 532.29,-226.07 532.57,-236.66 539.11,-234.17"/>
<text text-anchor="middle" x="583.55" y="-247.8" font-family="Times,serif" font-size="14.00">कालाधिकरणम्</text>
</g>
<!-- Node14_1 -->
<g id="node18" class="node">
<title>Node14_1</title>
<ellipse fill="#ff99ff" stroke="#ff99ff" cx="641.05" cy="-208" rx="46.59" ry="18"/>
<text text-anchor="middle" x="641.05" y="-204.3" font-family="Times,serif" font-size="14.00">इह(14.1)</text>
</g>
<!-- Node14_1&#45;&gt;Node15_1 -->
<g id="edge14" class="edge">
<title>Node14_1&#45;&gt;Node15_1</title>
<path fill="none" stroke="black" d="M631.53,-235.56C628.15,-243.43 623.94,-251.85 619.05,-259 614.49,-265.67 608.56,-272.16 602.88,-277.7"/>
<polygon fill="black" stroke="black" points="634.88,-236.6 635.36,-226.02 628.38,-233.99 634.88,-236.6"/>
<text text-anchor="middle" x="659.05" y="-247.8" font-family="Times,serif" font-size="14.00">देशाधिकरणम्</text>
</g>
<!-- Node16_1 -->
<g id="node19" class="node">
<title>Node16_1</title>
<ellipse fill="#87ceeb" stroke="#87ceeb" cx="749.05" cy="-208" rx="42.79" ry="18"/>
<text text-anchor="middle" x="749.05" y="-204.3" font-family="Times,serif" font-size="14.00">मे(16.1)</text>
</g>
<!-- Node16_1&#45;&gt;Node15_1 -->
<g id="edge15" class="edge">
<title>Node16_1&#45;&gt;Node15_1</title>
<path fill="none" stroke="black" d="M727.96,-232.63C718.64,-241.92 707.08,-252.01 695.05,-259 675.83,-270.16 652.63,-278.2 632.42,-283.73"/>
<polygon fill="black" stroke="black" points="730.49,-235.06 734.92,-225.43 725.46,-230.19 730.49,-235.06"/>
<text text-anchor="middle" x="732.55" y="-247.8" font-family="Times,serif" font-size="14.00">सम्बन्धः</text>
</g>
</g>
</svg>
