<?xml version="1.0" encoding="UTF-8" standalone="no"?>
<!DOCTYPE svg PUBLIC "-//W3C//DTD SVG 1.1//EN"
 "http://www.w3.org/Graphics/SVG/1.1/DTD/svg11.dtd">
<!-- Generated by graphviz version 2.43.0 (0)
 -->
<!-- Title: G Pages: 1 -->
<svg width="822pt" height="321pt"
 viewBox="0.00 0.00 822.40 321.00" xmlns="http://www.w3.org/2000/svg" xmlns:xlink="http://www.w3.org/1999/xlink">
<g id="graph0" class="graph" transform="scale(1 1) rotate(0) translate(4 317)">
<title>G</title>
<polygon fill="#fffacd" stroke="transparent" points="-4,4 -4,-317 818.4,-317 818.4,4 -4,4"/>
<g id="clust1" class="cluster">
<title>cluster_1</title>
<polygon fill="#fffacd" stroke="black" points="136,-8 136,-147 260,-147 260,-8 136,-8"/>
</g>
<g id="clust2" class="cluster">
<title>cluster_2</title>
<polygon fill="#fffacd" stroke="black" points="8,-95 8,-234 128,-234 128,-95 8,-95"/>
</g>
<g id="clust3" class="cluster">
<title>cluster_3</title>
<polygon fill="#fffacd" stroke="black" points="588,-95 588,-234 708,-234 708,-95 588,-95"/>
</g>
<!-- Node1_1 -->
<g id="node1" class="node">
<title>Node1_1</title>
<ellipse fill="#00bfff" stroke="#00bfff" cx="198" cy="-34" rx="41.69" ry="18"/>
<text text-anchor="middle" x="198" y="-30.3" font-family="Times,serif" font-size="14.00">इमे(1.1)</text>
</g>
<!-- Node3_2 -->
<g id="node2" class="node">
<title>Node3_2</title>
<ellipse fill="#00bfff" stroke="#00bfff" cx="198" cy="-121" rx="53.89" ry="18"/>
<text text-anchor="middle" x="198" y="-117.3" font-family="Times,serif" font-size="14.00">गन्धर्वाः(3.2)</text>
</g>
<!-- Node1_1&#45;&gt;Node3_2 -->
<g id="edge1" class="edge">
<title>Node1_1&#45;&gt;Node3_2</title>
<path fill="none" stroke="black" d="M198,-62.27C198,-75.58 198,-91.19 198,-102.82"/>
<polygon fill="black" stroke="black" points="201.5,-62.2 198,-52.2 194.5,-62.2 201.5,-62.2"/>
<text text-anchor="middle" x="220.5" y="-73.8" font-family="Times,serif" font-size="14.00">विशेषणम्</text>
</g>
<!-- Node6_2 -->
<g id="node3" class="node">
<title>Node6_2</title>
<ellipse fill="#00bfff" stroke="#00bfff" cx="68" cy="-208" rx="51.99" ry="18"/>
<text text-anchor="middle" x="68" y="-204.3" font-family="Times,serif" font-size="14.00">ऋषयः(6.2)</text>
</g>
<!-- Node3_2&#45;&gt;Node6_2 -->
<g id="edge4" class="edge">
<title>Node3_2&#45;&gt;Node6_2</title>
<path fill="none" stroke="black" d="M166.01,-142.92C142.89,-158.03 112.2,-178.1 91.37,-191.72"/>
<polygon fill="black" stroke="black" points="168,-145.79 174.46,-137.39 164.17,-139.94 168,-145.79"/>
<text text-anchor="middle" x="163.5" y="-160.8" font-family="Times,serif" font-size="14.00">समुच्चितः</text>
</g>
<!-- Node12_1 -->
<g id="node11" class="node">
<title>Node12_1</title>
<ellipse fill="#ff1975" stroke="#ff1975" cx="647" cy="-295" rx="58.49" ry="18"/>
<text text-anchor="middle" x="647" y="-291.3" font-family="Times,serif" font-size="14.00">पश्यन्तु(12.1)</text>
</g>
<!-- Node6_2&#45;&gt;Node12_1 -->
<g id="edge8" class="edge">
<title>Node6_2&#45;&gt;Node12_1</title>
<path fill="none" stroke="black" d="M125.03,-217.37C237.61,-233.9 486.86,-270.49 595.12,-286.38"/>
<polygon fill="black" stroke="black" points="125.29,-213.87 114.89,-215.88 124.28,-220.8 125.29,-213.87"/>
<text text-anchor="middle" x="403" y="-247.8" font-family="Times,serif" font-size="14.00">कर्ता</text>
</g>
<!-- Node4_1 -->
<g id="node4" class="node">
<title>Node4_1</title>
<ellipse fill="#00bfff" stroke="#00bfff" cx="68" cy="-121" rx="42.49" ry="18"/>
<text text-anchor="middle" x="68" y="-117.3" font-family="Times,serif" font-size="14.00">सर्वे(4.1)</text>
</g>
<!-- Node4_1&#45;&gt;Node6_2 -->
<g id="edge5" class="edge">
<title>Node4_1&#45;&gt;Node6_2</title>
<path fill="none" stroke="black" d="M68,-149.27C68,-162.58 68,-178.19 68,-189.82"/>
<polygon fill="black" stroke="black" points="71.5,-149.2 68,-139.2 64.5,-149.2 71.5,-149.2"/>
<text text-anchor="middle" x="90.5" y="-160.8" font-family="Times,serif" font-size="14.00">विशेषणम्</text>
</g>
<!-- Node9_2 -->
<g id="node5" class="node">
<title>Node9_2</title>
<ellipse fill="#93db70" stroke="#93db70" cx="648" cy="-121" rx="51.99" ry="18"/>
<text text-anchor="middle" x="648" y="-117.3" font-family="Times,serif" font-size="14.00">सम्भृतं(9.2)</text>
</g>
<!-- Node10_1 -->
<g id="node6" class="node">
<title>Node10_1</title>
<ellipse fill="#93db70" stroke="#93db70" cx="647" cy="-208" rx="50.09" ry="18"/>
<text text-anchor="middle" x="647" y="-204.3" font-family="Times,serif" font-size="14.00">वीर्यं(10.1)</text>
</g>
<!-- Node9_2&#45;&gt;Node10_1 -->
<g id="edge12" class="edge">
<title>Node9_2&#45;&gt;Node10_1</title>
<path fill="none" stroke="black" d="M647.68,-149.27C647.52,-162.58 647.34,-178.19 647.2,-189.82"/>
<polygon fill="black" stroke="black" points="651.18,-149.24 647.8,-139.2 644.18,-149.16 651.18,-149.24"/>
<text text-anchor="middle" x="669.5" y="-160.8" font-family="Times,serif" font-size="14.00">विशेषणम्</text>
</g>
<!-- Node10_1&#45;&gt;Node12_1 -->
<g id="edge13" class="edge">
<title>Node10_1&#45;&gt;Node12_1</title>
<path fill="none" stroke="black" d="M647,-236.27C647,-249.58 647,-265.19 647,-276.82"/>
<polygon fill="black" stroke="black" points="650.5,-236.2 647,-226.2 643.5,-236.2 650.5,-236.2"/>
<text text-anchor="middle" x="656" y="-247.8" font-family="Times,serif" font-size="14.00">कर्म</text>
</g>
<!-- Node2_1 -->
<g id="node7" class="node">
<title>Node2_1</title>
<ellipse fill="#ff99ff" stroke="#ff99ff" cx="306" cy="-34" rx="37.89" ry="18"/>
<text text-anchor="middle" x="306" y="-30.3" font-family="Times,serif" font-size="14.00">च(2.1)</text>
</g>
<!-- Node2_1&#45;&gt;Node3_2 -->
<g id="edge2" class="edge">
<title>Node2_1&#45;&gt;Node3_2</title>
<path fill="none" stroke="black" d="M280.92,-57.05C270.57,-65.93 258.37,-76.15 247,-85 238.59,-91.55 229.1,-98.44 220.73,-104.35"/>
<polygon fill="black" stroke="black" points="283.49,-59.45 288.76,-50.26 278.91,-54.16 283.49,-59.45"/>
<text text-anchor="middle" x="304" y="-73.8" font-family="Times,serif" font-size="14.00">समुच्चय_द्योतकः</text>
</g>
<!-- Node3_1 -->
<g id="node8" class="node">
<title>Node3_1</title>
<ellipse fill="#ffff00" stroke="#ffff00" cx="406" cy="-34" rx="44.39" ry="18"/>
<text text-anchor="middle" x="406" y="-30.3" font-family="Times,serif" font-size="14.00">देव&#45;(3.1)</text>
</g>
<!-- Node3_1&#45;&gt;Node3_2 -->
<g id="edge3" class="edge">
<title>Node3_1&#45;&gt;Node3_2</title>
<path fill="none" stroke="black" d="M383.97,-58.67C373.45,-68.47 360.1,-78.94 346,-85 311.05,-100.02 297.88,-85.68 261,-95 250.16,-97.74 238.69,-101.89 228.55,-106.02"/>
<polygon fill="black" stroke="black" points="386.72,-60.88 391.43,-51.39 381.83,-55.87 386.72,-60.88"/>
<text text-anchor="middle" x="386" y="-73.8" font-family="Times,serif" font-size="14.00">समासः</text>
</g>
<!-- Node5_1 -->
<g id="node9" class="node">
<title>Node5_1</title>
<ellipse fill="#ff99ff" stroke="#ff99ff" cx="312" cy="-121" rx="42.49" ry="18"/>
<text text-anchor="middle" x="312" y="-117.3" font-family="Times,serif" font-size="14.00">चैव(5.1)</text>
</g>
<!-- Node5_1&#45;&gt;Node6_2 -->
<g id="edge6" class="edge">
<title>Node5_1&#45;&gt;Node6_2</title>
<path fill="none" stroke="black" d="M278.45,-140.31C273.65,-142.68 268.74,-144.98 264,-147 212.28,-169.05 149.74,-186.74 109.44,-197.05"/>
<polygon fill="black" stroke="black" points="280.12,-143.38 287.44,-135.72 276.94,-137.14 280.12,-143.38"/>
<text text-anchor="middle" x="257.5" y="-160.8" font-family="Times,serif" font-size="14.00">सम्बन्धः</text>
</g>
<!-- Node6_1 -->
<g id="node10" class="node">
<title>Node6_1</title>
<ellipse fill="#ffff00" stroke="#ffff00" cx="416" cy="-121" rx="44.39" ry="18"/>
<text text-anchor="middle" x="416" y="-117.3" font-family="Times,serif" font-size="14.00">मह&#45;(6.1)</text>
</g>
<!-- Node6_1&#45;&gt;Node6_2 -->
<g id="edge7" class="edge">
<title>Node6_1&#45;&gt;Node6_2</title>
<path fill="none" stroke="black" d="M380.08,-139.81C374.43,-142.37 368.6,-144.85 363,-147 279.94,-178.9 176.88,-194.91 117.16,-202.05"/>
<polygon fill="black" stroke="black" points="381.78,-142.89 389.37,-135.5 378.83,-136.54 381.78,-142.89"/>
<text text-anchor="middle" x="349" y="-160.8" font-family="Times,serif" font-size="14.00">समासः</text>
</g>
<!-- Node7_1 -->
<g id="node12" class="node">
<title>Node7_1</title>
<ellipse fill="#87ceeb" stroke="#87ceeb" cx="528" cy="-34" rx="37.09" ry="18"/>
<text text-anchor="middle" x="528" y="-30.3" font-family="Times,serif" font-size="14.00">मे(7.1)</text>
</g>
<!-- Node8_1 -->
<g id="node13" class="node">
<title>Node8_1</title>
<ellipse fill="#87ceeb" stroke="#87ceeb" cx="528" cy="-121" rx="50.09" ry="18"/>
<text text-anchor="middle" x="528" y="-117.3" font-family="Times,serif" font-size="14.00">तपसः(8.1)</text>
</g>
<!-- Node7_1&#45;&gt;Node8_1 -->
<g id="edge9" class="edge">
<title>Node7_1&#45;&gt;Node8_1</title>
<path fill="none" stroke="black" d="M528,-62.27C528,-75.58 528,-91.19 528,-102.82"/>
<polygon fill="black" stroke="black" points="531.5,-62.2 528,-52.2 524.5,-62.2 531.5,-62.2"/>
<text text-anchor="middle" x="555.5" y="-73.8" font-family="Times,serif" font-size="14.00">षष्ठीसम्बन्धः</text>
</g>
<!-- Node8_1&#45;&gt;Node10_1 -->
<g id="edge10" class="edge">
<title>Node8_1&#45;&gt;Node10_1</title>
<path fill="none" stroke="black" d="M553.1,-144.44C563.59,-153.41 576.09,-163.58 588,-172 598.31,-179.28 610.2,-186.54 620.59,-192.54"/>
<polygon fill="black" stroke="black" points="555.37,-141.78 545.52,-137.87 550.79,-147.07 555.37,-141.78"/>
<text text-anchor="middle" x="615.5" y="-160.8" font-family="Times,serif" font-size="14.00">षष्ठीसम्बन्धः</text>
</g>
<!-- Node9_1 -->
<g id="node14" class="node">
<title>Node9_1</title>
<ellipse fill="#ffff00" stroke="#ffff00" cx="648" cy="-34" rx="46.29" ry="18"/>
<text text-anchor="middle" x="648" y="-30.3" font-family="Times,serif" font-size="14.00">चिर&#45;(9.1)</text>
</g>
<!-- Node9_1&#45;&gt;Node9_2 -->
<g id="edge11" class="edge">
<title>Node9_1&#45;&gt;Node9_2</title>
<path fill="none" stroke="black" d="M648,-62.27C648,-75.58 648,-91.19 648,-102.82"/>
<polygon fill="black" stroke="black" points="651.5,-62.2 648,-52.2 644.5,-62.2 651.5,-62.2"/>
<text text-anchor="middle" x="665" y="-73.8" font-family="Times,serif" font-size="14.00">समासः</text>
</g>
<!-- Node11_1 -->
<g id="node15" class="node">
<title>Node11_1</title>
<ellipse fill="#ff99ff" stroke="#ff99ff" cx="765" cy="-208" rx="49.29" ry="18"/>
<text text-anchor="middle" x="765" y="-204.3" font-family="Times,serif" font-size="14.00">अद्य(11.1)</text>
</g>
<!-- Node11_1&#45;&gt;Node12_1 -->
<g id="edge14" class="edge">
<title>Node11_1&#45;&gt;Node12_1</title>
<path fill="none" stroke="black" d="M735.51,-230.24C714.88,-245.1 687.77,-264.63 669.01,-278.15"/>
<polygon fill="black" stroke="black" points="737.56,-233.08 743.63,-224.39 733.47,-227.4 737.56,-233.08"/>
<text text-anchor="middle" x="748.5" y="-247.8" font-family="Times,serif" font-size="14.00">कालाधिकरणम्</text>
</g>
</g>
</svg>
