<?xml version="1.0" encoding="UTF-8" standalone="no"?>
<!DOCTYPE svg PUBLIC "-//W3C//DTD SVG 1.1//EN"
 "http://www.w3.org/Graphics/SVG/1.1/DTD/svg11.dtd">
<!-- Generated by graphviz version 2.43.0 (0)
 -->
<!-- Title: G Pages: 1 -->
<svg width="706pt" height="321pt"
 viewBox="0.00 0.00 706.10 321.00" xmlns="http://www.w3.org/2000/svg" xmlns:xlink="http://www.w3.org/1999/xlink">
<g id="graph0" class="graph" transform="scale(1 1) rotate(0) translate(4 317)">
<title>G</title>
<polygon fill="#fffacd" stroke="transparent" points="-4,4 -4,-317 702.1,-317 702.1,4 -4,4"/>
<g id="clust1" class="cluster">
<title>cluster_1</title>
<polygon fill="#fffacd" stroke="black" points="8,-8 8,-147 128,-147 128,-8 8,-8"/>
</g>
<!-- Node9_1 -->
<g id="node1" class="node">
<title>Node9_1</title>
<ellipse fill="#93db70" stroke="#93db70" cx="68" cy="-34" rx="38.19" ry="18"/>
<text text-anchor="middle" x="68" y="-30.3" font-family="Times,serif" font-size="14.00">कं(9.1)</text>
</g>
<!-- Node10_1 -->
<g id="node2" class="node">
<title>Node10_1</title>
<ellipse fill="#93db70" stroke="#93db70" cx="68" cy="-121" rx="51.99" ry="18"/>
<text text-anchor="middle" x="68" y="-117.3" font-family="Times,serif" font-size="14.00">कामं(10.1)</text>
</g>
<!-- Node9_1&#45;&gt;Node10_1 -->
<g id="edge7" class="edge">
<title>Node9_1&#45;&gt;Node10_1</title>
<path fill="none" stroke="black" d="M68,-62.27C68,-75.58 68,-91.19 68,-102.82"/>
<polygon fill="black" stroke="black" points="71.5,-62.2 68,-52.2 64.5,-62.2 71.5,-62.2"/>
<text text-anchor="middle" x="90.5" y="-73.8" font-family="Times,serif" font-size="14.00">विशेषणम्</text>
</g>
<!-- Node11_1 -->
<g id="node11" class="node">
<title>Node11_1</title>
<ellipse fill="#ff1975" stroke="#ff1975" cx="138" cy="-208" rx="65.79" ry="18"/>
<text text-anchor="middle" x="138" y="-204.3" font-family="Times,serif" font-size="14.00">प्रदिशामि(11.1)</text>
</g>
<!-- Node10_1&#45;&gt;Node11_1 -->
<g id="edge8" class="edge">
<title>Node10_1&#45;&gt;Node11_1</title>
<path fill="none" stroke="black" d="M87.98,-146.26C99.6,-160.37 113.96,-177.81 124.31,-190.37"/>
<polygon fill="black" stroke="black" points="90.56,-143.88 81.5,-138.39 85.15,-148.33 90.56,-143.88"/>
<text text-anchor="middle" x="117" y="-160.8" font-family="Times,serif" font-size="14.00">कर्म</text>
</g>
<!-- Node1_1 -->
<g id="node3" class="node">
<title>Node1_1</title>
<ellipse fill="#ff1975" stroke="#ff1975" cx="302" cy="-295" rx="45.49" ry="18"/>
<text text-anchor="middle" x="302" y="-291.3" font-family="Times,serif" font-size="14.00">पश्य(1.1)</text>
</g>
<!-- Node2_1 -->
<g id="node4" class="node">
<title>Node2_1</title>
<ellipse fill="#87ceeb" stroke="#87ceeb" cx="302" cy="-34" rx="37.09" ry="18"/>
<text text-anchor="middle" x="302" y="-30.3" font-family="Times,serif" font-size="14.00">मे(2.1)</text>
</g>
<!-- Node3_1 -->
<g id="node5" class="node">
<title>Node3_1</title>
<ellipse fill="#87ceeb" stroke="#87ceeb" cx="302" cy="-121" rx="50.09" ry="18"/>
<text text-anchor="middle" x="302" y="-117.3" font-family="Times,serif" font-size="14.00">तपसः(3.1)</text>
</g>
<!-- Node2_1&#45;&gt;Node3_1 -->
<g id="edge1" class="edge">
<title>Node2_1&#45;&gt;Node3_1</title>
<path fill="none" stroke="black" d="M302,-62.27C302,-75.58 302,-91.19 302,-102.82"/>
<polygon fill="black" stroke="black" points="305.5,-62.2 302,-52.2 298.5,-62.2 305.5,-62.2"/>
<text text-anchor="middle" x="329.5" y="-73.8" font-family="Times,serif" font-size="14.00">षष्ठीसम्बन्धः</text>
</g>
<!-- Node4_1 -->
<g id="node6" class="node">
<title>Node4_1</title>
<ellipse fill="#93db70" stroke="#93db70" cx="302" cy="-208" rx="47.39" ry="18"/>
<text text-anchor="middle" x="302" y="-204.3" font-family="Times,serif" font-size="14.00">बलम्(4.1)</text>
</g>
<!-- Node3_1&#45;&gt;Node4_1 -->
<g id="edge2" class="edge">
<title>Node3_1&#45;&gt;Node4_1</title>
<path fill="none" stroke="black" d="M302,-149.27C302,-162.58 302,-178.19 302,-189.82"/>
<polygon fill="black" stroke="black" points="305.5,-149.2 302,-139.2 298.5,-149.2 305.5,-149.2"/>
<text text-anchor="middle" x="329.5" y="-160.8" font-family="Times,serif" font-size="14.00">षष्ठीसम्बन्धः</text>
</g>
<!-- Node4_1&#45;&gt;Node1_1 -->
<g id="edge3" class="edge">
<title>Node4_1&#45;&gt;Node1_1</title>
<path fill="none" stroke="black" d="M302,-236.27C302,-249.58 302,-265.19 302,-276.82"/>
<polygon fill="black" stroke="black" points="305.5,-236.2 302,-226.2 298.5,-236.2 305.5,-236.2"/>
<text text-anchor="middle" x="311" y="-247.8" font-family="Times,serif" font-size="14.00">कर्म</text>
</g>
<!-- Node5_1 -->
<g id="node7" class="node">
<title>Node5_1</title>
<ellipse fill="#93db70" stroke="#93db70" cx="417" cy="-34" rx="44.69" ry="18"/>
<text text-anchor="middle" x="417" y="-30.3" font-family="Times,serif" font-size="14.00">वरम्(5.1)</text>
</g>
<!-- Node6_1 -->
<g id="node8" class="node">
<title>Node6_1</title>
<ellipse fill="#ff99ff" stroke="#ff99ff" cx="417" cy="-121" rx="44.39" ry="18"/>
<text text-anchor="middle" x="417" y="-117.3" font-family="Times,serif" font-size="14.00">दातुं(6.1)</text>
</g>
<!-- Node5_1&#45;&gt;Node6_1 -->
<g id="edge4" class="edge">
<title>Node5_1&#45;&gt;Node6_1</title>
<path fill="none" stroke="black" d="M417,-62.27C417,-75.58 417,-91.19 417,-102.82"/>
<polygon fill="black" stroke="black" points="420.5,-62.2 417,-52.2 413.5,-62.2 420.5,-62.2"/>
<text text-anchor="middle" x="426" y="-73.8" font-family="Times,serif" font-size="14.00">कर्म</text>
</g>
<!-- Node7_1 -->
<g id="node9" class="node">
<title>Node7_1</title>
<ellipse fill="#00bfff" stroke="#00bfff" cx="417" cy="-208" rx="50.09" ry="18"/>
<text text-anchor="middle" x="417" y="-204.3" font-family="Times,serif" font-size="14.00">प्रवणः(7.1)</text>
</g>
<!-- Node6_1&#45;&gt;Node7_1 -->
<g id="edge5" class="edge">
<title>Node6_1&#45;&gt;Node7_1</title>
<path fill="none" stroke="black" d="M417,-149.27C417,-162.58 417,-178.19 417,-189.82"/>
<polygon fill="black" stroke="black" points="420.5,-149.2 417,-139.2 413.5,-149.2 420.5,-149.2"/>
<text text-anchor="middle" x="438.5" y="-160.8" font-family="Times,serif" font-size="14.00">प्रयोजनम्</text>
</g>
<!-- Node8_1 -->
<g id="node10" class="node">
<title>Node8_1</title>
<ellipse fill="#ff1975" stroke="#ff1975" cx="417" cy="-295" rx="50.09" ry="18"/>
<text text-anchor="middle" x="417" y="-291.3" font-family="Times,serif" font-size="14.00">अस्मि(8.1)</text>
</g>
<!-- Node7_1&#45;&gt;Node8_1 -->
<g id="edge6" class="edge">
<title>Node7_1&#45;&gt;Node8_1</title>
<path fill="none" stroke="black" d="M417,-236.27C417,-249.58 417,-265.19 417,-276.82"/>
<polygon fill="black" stroke="black" points="420.5,-236.2 417,-226.2 413.5,-236.2 420.5,-236.2"/>
<text text-anchor="middle" x="484" y="-247.8" font-family="Times,serif" font-size="14.00">कर्तृरहितकर्तृसमानाधिकरणम्</text>
</g>
<!-- Node12_1 -->
<g id="node12" class="node">
<title>Node12_1</title>
<ellipse fill="#b0e2ff" stroke="#b0e2ff" cx="181" cy="-121" rx="42.79" ry="18"/>
<text text-anchor="middle" x="181" y="-117.3" font-family="Times,serif" font-size="14.00">ते(12.1)</text>
</g>
<!-- Node12_1&#45;&gt;Node11_1 -->
<g id="edge9" class="edge">
<title>Node12_1&#45;&gt;Node11_1</title>
<path fill="none" stroke="black" d="M167.98,-147.74C161.06,-161.42 152.74,-177.86 146.62,-189.95"/>
<polygon fill="black" stroke="black" points="171.11,-149.3 172.5,-138.79 164.87,-146.14 171.11,-149.3"/>
<text text-anchor="middle" x="186.5" y="-160.8" font-family="Times,serif" font-size="14.00">सम्प्रदानम्</text>
</g>
<!-- Node13_1 -->
<g id="node13" class="node">
<title>Node13_1</title>
<ellipse fill="#ffff00" stroke="#ffff00" cx="532" cy="-34" rx="52.79" ry="18"/>
<text text-anchor="middle" x="532" y="-30.3" font-family="Times,serif" font-size="14.00">महा&#45;(13.1)</text>
</g>
<!-- Node13_2 -->
<g id="node14" class="node">
<title>Node13_2</title>
<ellipse fill="#6fffc3" stroke="#6fffc3" cx="532" cy="-121" rx="51.99" ry="18"/>
<text text-anchor="middle" x="532" y="-117.3" font-family="Times,serif" font-size="14.00">बाहो(13.2)</text>
</g>
<!-- Node13_1&#45;&gt;Node13_2 -->
<g id="edge10" class="edge">
<title>Node13_1&#45;&gt;Node13_2</title>
<path fill="none" stroke="black" d="M532,-62.27C532,-75.58 532,-91.19 532,-102.82"/>
<polygon fill="black" stroke="black" points="535.5,-62.2 532,-52.2 528.5,-62.2 535.5,-62.2"/>
<text text-anchor="middle" x="549" y="-73.8" font-family="Times,serif" font-size="14.00">समासः</text>
</g>
<!-- Node15_1 -->
<g id="node15" class="node">
<title>Node15_1</title>
<ellipse fill="#ff1975" stroke="#ff1975" cx="604" cy="-208" rx="57.69" ry="18"/>
<text text-anchor="middle" x="604" y="-204.3" font-family="Times,serif" font-size="14.00">उच्यतां(15.1)</text>
</g>
<!-- Node13_2&#45;&gt;Node15_1 -->
<g id="edge11" class="edge">
<title>Node13_2&#45;&gt;Node15_1</title>
<path fill="none" stroke="black" d="M552.55,-146.26C564.51,-160.37 579.27,-177.81 589.91,-190.37"/>
<polygon fill="black" stroke="black" points="555.02,-143.76 545.88,-138.39 549.68,-148.28 555.02,-143.76"/>
<text text-anchor="middle" x="593" y="-160.8" font-family="Times,serif" font-size="14.00">सम्बोध्यः</text>
</g>
<!-- Node14_1 -->
<g id="node16" class="node">
<title>Node14_1</title>
<ellipse fill="#93db70" stroke="#93db70" cx="650" cy="-121" rx="48.19" ry="18"/>
<text text-anchor="middle" x="650" y="-117.3" font-family="Times,serif" font-size="14.00">तत्(14.1)</text>
</g>
<!-- Node14_1&#45;&gt;Node15_1 -->
<g id="edge12" class="edge">
<title>Node14_1&#45;&gt;Node15_1</title>
<path fill="none" stroke="black" d="M636.07,-147.74C628.67,-161.42 619.77,-177.86 613.23,-189.95"/>
<polygon fill="black" stroke="black" points="639.23,-149.25 640.91,-138.79 633.07,-145.92 639.23,-149.25"/>
<text text-anchor="middle" x="638" y="-160.8" font-family="Times,serif" font-size="14.00">कर्म</text>
</g>
</g>
</svg>
