<?xml version="1.0" encoding="UTF-8" standalone="no"?>
<!DOCTYPE svg PUBLIC "-//W3C//DTD SVG 1.1//EN"
 "http://www.w3.org/Graphics/SVG/1.1/DTD/svg11.dtd">
<!-- Generated by graphviz version 2.43.0 (0)
 -->
<!-- Title: G Pages: 1 -->
<svg width="606pt" height="740pt"
 viewBox="0.00 0.00 606.10 740.00" xmlns="http://www.w3.org/2000/svg" xmlns:xlink="http://www.w3.org/1999/xlink">
<g id="graph0" class="graph" transform="scale(1 1) rotate(0) translate(4 736)">
<title>G</title>
<polygon fill="#fffacd" stroke="transparent" points="-4,4 -4,-736 602.1,-736 602.1,4 -4,4"/>
<g id="clust1" class="cluster">
<title>cluster_1</title>
<polygon fill="#fffacd" stroke="black" points="362.1,-166 362.1,-305 590.1,-305 590.1,-166 362.1,-166"/>
</g>
<g id="clust2" class="cluster">
<title>cluster_2</title>
<polygon fill="#fffacd" stroke="black" points="175.1,-427 175.1,-566 417.1,-566 417.1,-427 175.1,-427"/>
</g>
<!-- Node2_3 -->
<g id="node1" class="node">
<title>Node2_3</title>
<ellipse fill="#87ceeb" stroke="#87ceeb" cx="538.1" cy="-192" rx="44.39" ry="18"/>
<text text-anchor="middle" x="538.1" y="-188.3" font-family="Times,serif" font-size="14.00">बुद्धेः(2.3)</text>
</g>
<!-- Node4_1 -->
<g id="node2" class="node">
<title>Node4_1</title>
<ellipse fill="#87ceeb" stroke="#87ceeb" cx="423.1" cy="-279" rx="46.29" ry="18"/>
<text text-anchor="middle" x="423.1" y="-275.3" font-family="Times,serif" font-size="14.00">तस्य(4.1)</text>
</g>
<!-- Node2_3&#45;&gt;Node4_1 -->
<g id="edge4" class="edge">
<title>Node2_3&#45;&gt;Node4_1</title>
<path fill="none" stroke="black" d="M510.17,-214.43C498.46,-223.34 484.67,-233.75 472.1,-243 463.17,-249.57 453.23,-256.7 444.66,-262.8"/>
<polygon fill="black" stroke="black" points="512.45,-217.09 518.28,-208.24 508.2,-211.53 512.45,-217.09"/>
<text text-anchor="middle" x="514.6" y="-231.8" font-family="Times,serif" font-size="14.00">विशेषणम्</text>
</g>
<!-- Node5_2 -->
<g id="node11" class="node">
<title>Node5_2</title>
<ellipse fill="#40e0d0" stroke="#40e0d0" cx="351.1" cy="-366" rx="44.39" ry="18"/>
<text text-anchor="middle" x="351.1" y="-362.3" font-family="Times,serif" font-size="14.00">नयैः(5.2)</text>
</g>
<!-- Node4_1&#45;&gt;Node5_2 -->
<g id="edge6" class="edge">
<title>Node4_1&#45;&gt;Node5_2</title>
<path fill="none" stroke="black" d="M402.5,-304.31C390.46,-318.53 375.58,-336.09 364.94,-348.66"/>
<polygon fill="black" stroke="black" points="405.42,-306.28 409.21,-296.39 400.08,-301.76 405.42,-306.28"/>
<text text-anchor="middle" x="418.6" y="-318.8" font-family="Times,serif" font-size="14.00">षष्ठीसम्बन्धः</text>
</g>
<!-- Node3_1 -->
<g id="node3" class="node">
<title>Node3_1</title>
<ellipse fill="#87ceeb" stroke="#87ceeb" cx="423.1" cy="-192" rx="52.79" ry="18"/>
<text text-anchor="middle" x="423.1" y="-188.3" font-family="Times,serif" font-size="14.00">मन्दस्य(3.1)</text>
</g>
<!-- Node3_1&#45;&gt;Node4_1 -->
<g id="edge5" class="edge">
<title>Node3_1&#45;&gt;Node4_1</title>
<path fill="none" stroke="black" d="M423.1,-220.27C423.1,-233.58 423.1,-249.19 423.1,-260.82"/>
<polygon fill="black" stroke="black" points="426.6,-220.2 423.1,-210.2 419.6,-220.2 426.6,-220.2"/>
<text text-anchor="middle" x="445.6" y="-231.8" font-family="Times,serif" font-size="14.00">विशेषणम्</text>
</g>
<!-- Node6_2 -->
<g id="node4" class="node">
<title>Node6_2</title>
<ellipse fill="#87ceeb" stroke="#87ceeb" cx="357.1" cy="-453" rx="51.99" ry="18"/>
<text text-anchor="middle" x="357.1" y="-449.3" font-family="Times,serif" font-size="14.00">गृद्धिनः(6.2)</text>
</g>
<!-- Node9_1 -->
<g id="node5" class="node">
<title>Node9_1</title>
<ellipse fill="#87ceeb" stroke="#87ceeb" cx="282.1" cy="-540" rx="37.09" ry="18"/>
<text text-anchor="middle" x="282.1" y="-536.3" font-family="Times,serif" font-size="14.00">मे(9.1)</text>
</g>
<!-- Node6_2&#45;&gt;Node9_1 -->
<g id="edge10" class="edge">
<title>Node6_2&#45;&gt;Node9_1</title>
<path fill="none" stroke="black" d="M335.91,-478.01C323.12,-492.5 307.2,-510.55 296,-523.24"/>
<polygon fill="black" stroke="black" points="338.64,-480.2 342.63,-470.39 333.39,-475.57 338.64,-480.2"/>
<text text-anchor="middle" x="346.6" y="-492.8" font-family="Times,serif" font-size="14.00">विशेषणम्</text>
</g>
<!-- Node10_1 -->
<g id="node15" class="node">
<title>Node10_1</title>
<ellipse fill="#00bfff" stroke="#00bfff" cx="282.1" cy="-627" rx="50.09" ry="18"/>
<text text-anchor="middle" x="282.1" y="-623.3" font-family="Times,serif" font-size="14.00">मनः(10.1)</text>
</g>
<!-- Node9_1&#45;&gt;Node10_1 -->
<g id="edge13" class="edge">
<title>Node9_1&#45;&gt;Node10_1</title>
<path fill="none" stroke="black" d="M282.1,-568.27C282.1,-581.58 282.1,-597.19 282.1,-608.82"/>
<polygon fill="black" stroke="black" points="285.6,-568.2 282.1,-558.2 278.6,-568.2 285.6,-568.2"/>
<text text-anchor="middle" x="309.6" y="-579.8" font-family="Times,serif" font-size="14.00">षष्ठीसम्बन्धः</text>
</g>
<!-- Node8_1 -->
<g id="node6" class="node">
<title>Node8_1</title>
<ellipse fill="#87ceeb" stroke="#87ceeb" cx="235.1" cy="-453" rx="51.99" ry="18"/>
<text text-anchor="middle" x="235.1" y="-449.3" font-family="Times,serif" font-size="14.00">स्मरतः(8.1)</text>
</g>
<!-- Node8_1&#45;&gt;Node9_1 -->
<g id="edge12" class="edge">
<title>Node8_1&#45;&gt;Node9_1</title>
<path fill="none" stroke="black" d="M249.4,-479.86C257.07,-493.74 266.3,-510.43 272.99,-522.53"/>
<polygon fill="black" stroke="black" points="252.28,-477.85 244.38,-470.79 246.16,-481.24 252.28,-477.85"/>
<text text-anchor="middle" x="284.6" y="-492.8" font-family="Times,serif" font-size="14.00">विशेषणम्</text>
</g>
<!-- Node1_1 -->
<g id="node7" class="node">
<title>Node1_1</title>
<ellipse fill="#ff99ff" stroke="#ff99ff" cx="48.1" cy="-627" rx="48.19" ry="18"/>
<text text-anchor="middle" x="48.1" y="-623.3" font-family="Times,serif" font-size="14.00">किन्तु(1.1)</text>
</g>
<!-- Node12_1 -->
<g id="node8" class="node">
<title>Node12_1</title>
<ellipse fill="#ff1975" stroke="#ff1975" cx="164.1" cy="-714" rx="51.99" ry="18"/>
<text text-anchor="middle" x="164.1" y="-710.3" font-family="Times,serif" font-size="14.00">दूयते(12.1)</text>
</g>
<!-- Node1_1&#45;&gt;Node12_1 -->
<g id="edge1" class="edge">
<title>Node1_1&#45;&gt;Node12_1</title>
<path fill="none" stroke="black" d="M77.41,-649.48C97.8,-664.42 124.5,-683.99 142.85,-697.43"/>
<polygon fill="black" stroke="black" points="79.24,-646.48 69.1,-643.39 75.1,-652.13 79.24,-646.48"/>
<text text-anchor="middle" x="131.6" y="-666.8" font-family="Times,serif" font-size="14.00">सम्बन्धः</text>
</g>
<!-- Node2_1 -->
<g id="node9" class="node">
<title>Node2_1</title>
<ellipse fill="#ffff00" stroke="#ffff00" cx="538.1" cy="-18" rx="40.89" ry="18"/>
<text text-anchor="middle" x="538.1" y="-14.3" font-family="Times,serif" font-size="14.00">सु&#45;(2.1)</text>
</g>
<!-- Node2_2 -->
<g id="node10" class="node">
<title>Node2_2</title>
<ellipse fill="#ffff00" stroke="#ffff00" cx="538.1" cy="-105" rx="42.79" ry="18"/>
<text text-anchor="middle" x="538.1" y="-101.3" font-family="Times,serif" font-size="14.00">दुर्&#45;(2.2)</text>
</g>
<!-- Node2_1&#45;&gt;Node2_2 -->
<g id="edge2" class="edge">
<title>Node2_1&#45;&gt;Node2_2</title>
<path fill="none" stroke="black" d="M538.1,-46.27C538.1,-59.58 538.1,-75.19 538.1,-86.82"/>
<polygon fill="black" stroke="black" points="541.6,-46.2 538.1,-36.2 534.6,-46.2 541.6,-46.2"/>
<text text-anchor="middle" x="555.1" y="-57.8" font-family="Times,serif" font-size="14.00">समासः</text>
</g>
<!-- Node2_2&#45;&gt;Node2_3 -->
<g id="edge3" class="edge">
<title>Node2_2&#45;&gt;Node2_3</title>
<path fill="none" stroke="black" d="M538.1,-133.27C538.1,-146.58 538.1,-162.19 538.1,-173.82"/>
<polygon fill="black" stroke="black" points="541.6,-133.2 538.1,-123.2 534.6,-133.2 541.6,-133.2"/>
<text text-anchor="middle" x="555.1" y="-144.8" font-family="Times,serif" font-size="14.00">समासः</text>
</g>
<!-- Node5_2&#45;&gt;Node6_2 -->
<g id="edge8" class="edge">
<title>Node5_2&#45;&gt;Node6_2</title>
<path fill="none" stroke="black" d="M353.02,-394.27C353.96,-407.58 355.06,-423.19 355.88,-434.82"/>
<polygon fill="black" stroke="black" points="356.51,-393.93 352.31,-384.2 349.52,-394.42 356.51,-393.93"/>
<text text-anchor="middle" x="363.6" y="-405.8" font-family="Times,serif" font-size="14.00">हेतुः</text>
</g>
<!-- Node5_1 -->
<g id="node12" class="node">
<title>Node5_1</title>
<ellipse fill="#ffff00" stroke="#ffff00" cx="308.1" cy="-279" rx="46.29" ry="18"/>
<text text-anchor="middle" x="308.1" y="-275.3" font-family="Times,serif" font-size="14.00">अप&#45;(5.1)</text>
</g>
<!-- Node5_1&#45;&gt;Node5_2 -->
<g id="edge7" class="edge">
<title>Node5_1&#45;&gt;Node5_2</title>
<path fill="none" stroke="black" d="M321.15,-305.8C328.12,-319.58 336.5,-336.14 342.62,-348.24"/>
<polygon fill="black" stroke="black" points="324.23,-304.14 316.59,-296.79 317.98,-307.3 324.23,-304.14"/>
<text text-anchor="middle" x="350.1" y="-318.8" font-family="Times,serif" font-size="14.00">समासः</text>
</g>
<!-- Node6_1 -->
<g id="node13" class="node">
<title>Node6_1</title>
<ellipse fill="#ffff00" stroke="#ffff00" cx="459.1" cy="-366" rx="45.49" ry="18"/>
<text text-anchor="middle" x="459.1" y="-362.3" font-family="Times,serif" font-size="14.00">पुत्र&#45;(6.1)</text>
</g>
<!-- Node6_1&#45;&gt;Node6_2 -->
<g id="edge9" class="edge">
<title>Node6_1&#45;&gt;Node6_2</title>
<path fill="none" stroke="black" d="M432.65,-389.04C414.9,-403.83 391.96,-422.95 376.03,-436.22"/>
<polygon fill="black" stroke="black" points="434.95,-391.68 440.39,-382.59 430.46,-386.3 434.95,-391.68"/>
<text text-anchor="middle" x="431.1" y="-405.8" font-family="Times,serif" font-size="14.00">समासः</text>
</g>
<!-- Node7_1 -->
<g id="node14" class="node">
<title>Node7_1</title>
<ellipse fill="#00bfff" stroke="#00bfff" cx="235.1" cy="-366" rx="48.19" ry="18"/>
<text text-anchor="middle" x="235.1" y="-362.3" font-family="Times,serif" font-size="14.00">नित्यं(7.1)</text>
</g>
<!-- Node7_1&#45;&gt;Node8_1 -->
<g id="edge11" class="edge">
<title>Node7_1&#45;&gt;Node8_1</title>
<path fill="none" stroke="black" d="M235.1,-394.27C235.1,-407.58 235.1,-423.19 235.1,-434.82"/>
<polygon fill="black" stroke="black" points="238.6,-394.2 235.1,-384.2 231.6,-394.2 238.6,-394.2"/>
<text text-anchor="middle" x="244.1" y="-405.8" font-family="Times,serif" font-size="14.00">कर्म</text>
</g>
<!-- Node10_1&#45;&gt;Node12_1 -->
<g id="edge14" class="edge">
<title>Node10_1&#45;&gt;Node12_1</title>
<path fill="none" stroke="black" d="M263.62,-652.93C256.34,-661.61 247.48,-670.94 238.1,-678 226.06,-687.06 211.31,-694.62 198.15,-700.37"/>
<polygon fill="black" stroke="black" points="266.54,-654.88 270.07,-644.89 261.08,-650.49 266.54,-654.88"/>
<text text-anchor="middle" x="266.1" y="-666.8" font-family="Times,serif" font-size="14.00">कर्ता</text>
</g>
<!-- Node11_1 -->
<g id="node16" class="node">
<title>Node11_1</title>
<ellipse fill="#ff99ff" stroke="#ff99ff" cx="164.1" cy="-627" rx="50.09" ry="18"/>
<text text-anchor="middle" x="164.1" y="-623.3" font-family="Times,serif" font-size="14.00">भृशं(11.1)</text>
</g>
<!-- Node11_1&#45;&gt;Node12_1 -->
<g id="edge15" class="edge">
<title>Node11_1&#45;&gt;Node12_1</title>
<path fill="none" stroke="black" d="M164.1,-655.27C164.1,-668.58 164.1,-684.19 164.1,-695.82"/>
<polygon fill="black" stroke="black" points="167.6,-655.2 164.1,-645.2 160.6,-655.2 167.6,-655.2"/>
<text text-anchor="middle" x="199.1" y="-666.8" font-family="Times,serif" font-size="14.00">क्रियाविशेषणम्</text>
</g>
</g>
</svg>
