<?xml version="1.0" encoding="UTF-8" standalone="no"?>
<!DOCTYPE svg PUBLIC "-//W3C//DTD SVG 1.1//EN"
 "http://www.w3.org/Graphics/SVG/1.1/DTD/svg11.dtd">
<!-- Generated by graphviz version 2.43.0 (0)
 -->
<!-- Title: G Pages: 1 -->
<svg width="915pt" height="305pt"
 viewBox="0.00 0.00 915.10 305.00" xmlns="http://www.w3.org/2000/svg" xmlns:xlink="http://www.w3.org/1999/xlink">
<g id="graph0" class="graph" transform="scale(1 1) rotate(0) translate(4 301)">
<title>G</title>
<polygon fill="#fffacd" stroke="transparent" points="-4,4 -4,-301 911.1,-301 911.1,4 -4,4"/>
<g id="clust1" class="cluster">
<title>cluster_1</title>
<polygon fill="#fffacd" stroke="black" points="8,-79 8,-218 252,-218 252,-79 8,-79"/>
</g>
<!-- Node7_2 -->
<g id="node1" class="node">
<title>Node7_2</title>
<ellipse fill="#00bfff" stroke="#00bfff" cx="190" cy="-105" rx="53.89" ry="18"/>
<text text-anchor="middle" x="190" y="-101.3" font-family="Times,serif" font-size="14.00">तेजस्वी(7.2)</text>
</g>
<!-- Node9_1 -->
<g id="node2" class="node">
<title>Node9_1</title>
<ellipse fill="#00bfff" stroke="#00bfff" cx="190" cy="-192" rx="50.89" ry="18"/>
<text text-anchor="middle" x="190" y="-188.3" font-family="Times,serif" font-size="14.00">व्यासः(9.1)</text>
</g>
<!-- Node7_2&#45;&gt;Node9_1 -->
<g id="edge9" class="edge">
<title>Node7_2&#45;&gt;Node9_1</title>
<path fill="none" stroke="black" d="M190,-133.27C190,-146.58 190,-162.19 190,-173.82"/>
<polygon fill="black" stroke="black" points="193.5,-133.2 190,-123.2 186.5,-133.2 193.5,-133.2"/>
<text text-anchor="middle" x="212.5" y="-144.8" font-family="Times,serif" font-size="14.00">विशेषणम्</text>
</g>
<!-- Node10_1 -->
<g id="node10" class="node">
<title>Node10_1</title>
<ellipse fill="#ff1975" stroke="#ff1975" cx="411" cy="-279" rx="54.69" ry="18"/>
<text text-anchor="middle" x="411" y="-275.3" font-family="Times,serif" font-size="14.00">उवाच(10.1)</text>
</g>
<!-- Node9_1&#45;&gt;Node10_1 -->
<g id="edge11" class="edge">
<title>Node9_1&#45;&gt;Node10_1</title>
<path fill="none" stroke="black" d="M232.5,-209.35C274.56,-225.52 338.12,-249.97 376.96,-264.91"/>
<polygon fill="black" stroke="black" points="233.68,-206.05 223.09,-205.73 231.16,-212.58 233.68,-206.05"/>
<text text-anchor="middle" x="325" y="-231.8" font-family="Times,serif" font-size="14.00">कर्ता</text>
</g>
<!-- Node8_1 -->
<g id="node3" class="node">
<title>Node8_1</title>
<ellipse fill="#00bfff" stroke="#00bfff" cx="67" cy="-105" rx="51.19" ry="18"/>
<text text-anchor="middle" x="67" y="-101.3" font-family="Times,serif" font-size="14.00">महर्षिः(8.1)</text>
</g>
<!-- Node8_1&#45;&gt;Node9_1 -->
<g id="edge10" class="edge">
<title>Node8_1&#45;&gt;Node9_1</title>
<path fill="none" stroke="black" d="M97.56,-127.12C119.39,-142.21 148.26,-162.16 167.89,-175.72"/>
<polygon fill="black" stroke="black" points="99.49,-124.2 89.27,-121.39 95.51,-129.96 99.49,-124.2"/>
<text text-anchor="middle" x="158.5" y="-144.8" font-family="Times,serif" font-size="14.00">विशेषणम्</text>
</g>
<!-- Node1_1 -->
<g id="node4" class="node">
<title>Node1_1</title>
<ellipse fill="#00bfff" stroke="#00bfff" cx="516" cy="-105" rx="42.49" ry="18"/>
<text text-anchor="middle" x="516" y="-101.3" font-family="Times,serif" font-size="14.00">यत्(1.1)</text>
</g>
<!-- Node5_1 -->
<g id="node5" class="node">
<title>Node5_1</title>
<ellipse fill="#ff1975" stroke="#ff1975" cx="411" cy="-192" rx="61.99" ry="18"/>
<text text-anchor="middle" x="411" y="-188.3" font-family="Times,serif" font-size="14.00">करिष्यामि(5.1)</text>
</g>
<!-- Node1_1&#45;&gt;Node5_1 -->
<g id="edge1" class="edge">
<title>Node1_1&#45;&gt;Node5_1</title>
<path fill="none" stroke="black" d="M508.6,-132.61C505.23,-140.93 500.51,-149.59 494,-156 483.3,-166.53 468.96,-174.09 455.2,-179.42"/>
<polygon fill="black" stroke="black" points="511.9,-133.76 511.94,-123.17 505.3,-131.43 511.9,-133.76"/>
<text text-anchor="middle" x="522.5" y="-144.8" font-family="Times,serif" font-size="14.00">सम्बन्धः</text>
</g>
<!-- Node12_1 -->
<g id="node6" class="node">
<title>Node12_1</title>
<ellipse fill="#93db70" stroke="#93db70" cx="859" cy="-105" rx="48.19" ry="18"/>
<text text-anchor="middle" x="859" y="-101.3" font-family="Times,serif" font-size="14.00">तत्(12.1)</text>
</g>
<!-- Node1_1&#45;&gt;Node12_1 -->
<g id="edge2" class="edge">
<title>Node1_1&#45;&gt;Node12_1</title>
<path fill="none" stroke="red" stroke-dasharray="5,2" d="M550.73,-85.8C556.08,-83.28 561.62,-80.91 567,-79 600.84,-66.97 610.29,-65.8 646,-62 715.35,-54.62 735.77,-57.15 802,-79 808.17,-81.04 814.56,-83.54 820.74,-86.17"/>
<polygon fill="red" stroke="red" points="548.78,-82.86 541.37,-90.43 551.88,-89.13 548.78,-82.86"/>
<polygon fill="red" stroke="red" points="819.64,-89.52 830.2,-90.38 822.49,-83.12 819.64,-89.52"/>
<text text-anchor="middle" x="684" y="-57.8" font-family="Times,serif" font-size="14.00">नित्य_सम्बन्धः1</text>
</g>
<!-- Node5_1&#45;&gt;Node10_1 -->
<g id="edge6" class="edge">
<title>Node5_1&#45;&gt;Node10_1</title>
<path fill="none" stroke="black" d="M411,-220.27C411,-233.58 411,-249.19 411,-260.82"/>
<polygon fill="black" stroke="black" points="414.5,-220.2 411,-210.2 407.5,-220.2 414.5,-220.2"/>
<text text-anchor="middle" x="432.5" y="-231.8" font-family="Times,serif" font-size="14.00">वाक्यकर्म</text>
</g>
<!-- Node13_1 -->
<g id="node14" class="node">
<title>Node13_1</title>
<ellipse fill="#ff1975" stroke="#ff1975" cx="792" cy="-192" rx="55.49" ry="18"/>
<text text-anchor="middle" x="792" y="-188.3" font-family="Times,serif" font-size="14.00">वदस्व(13.1)</text>
</g>
<!-- Node12_1&#45;&gt;Node13_1 -->
<g id="edge13" class="edge">
<title>Node12_1&#45;&gt;Node13_1</title>
<path fill="none" stroke="black" d="M839.88,-130.26C828.75,-144.37 815.01,-161.81 805.11,-174.37"/>
<polygon fill="black" stroke="black" points="842.64,-132.41 846.08,-122.39 837.14,-128.08 842.64,-132.41"/>
<text text-anchor="middle" x="838" y="-144.8" font-family="Times,serif" font-size="14.00">कर्म</text>
</g>
<!-- Node2_1 -->
<g id="node7" class="node">
<title>Node2_1</title>
<ellipse fill="#93db70" stroke="#93db70" cx="633" cy="-105" rx="56.59" ry="18"/>
<text text-anchor="middle" x="633" y="-101.3" font-family="Times,serif" font-size="14.00">आश्चर्यम्(2.1)</text>
</g>
<!-- Node2_1&#45;&gt;Node5_1 -->
<g id="edge3" class="edge">
<title>Node2_1&#45;&gt;Node5_1</title>
<path fill="none" stroke="black" d="M601,-126.87C584.74,-136.77 564.37,-148.13 545,-156 536.65,-159.4 492.08,-170.83 456.6,-179.71"/>
<polygon fill="black" stroke="black" points="602.92,-129.8 609.58,-121.56 599.23,-123.85 602.92,-129.8"/>
<text text-anchor="middle" x="584" y="-144.8" font-family="Times,serif" font-size="14.00">कर्म</text>
</g>
<!-- Node3_1 -->
<g id="node8" class="node">
<title>Node3_1</title>
<ellipse fill="#ff99ff" stroke="#ff99ff" cx="306" cy="-105" rx="44.39" ry="18"/>
<text text-anchor="middle" x="306" y="-101.3" font-family="Times,serif" font-size="14.00">इति(3.1)</text>
</g>
<!-- Node3_1&#45;&gt;Node5_1 -->
<g id="edge4" class="edge">
<title>Node3_1&#45;&gt;Node5_1</title>
<path fill="none" stroke="black" d="M311.75,-132.9C314.61,-141.13 318.82,-149.67 325,-156 335.7,-166.95 350.3,-174.6 364.44,-179.88"/>
<polygon fill="black" stroke="black" points="315.08,-131.79 308.91,-123.18 308.36,-133.76 315.08,-131.79"/>
<text text-anchor="middle" x="366" y="-144.8" font-family="Times,serif" font-size="14.00">वाक्यकर्म_द्योतकः</text>
</g>
<!-- Node4_1 -->
<g id="node9" class="node">
<title>Node4_1</title>
<ellipse fill="#ff99ff" stroke="#ff99ff" cx="306" cy="-18" rx="36.29" ry="18"/>
<text text-anchor="middle" x="306" y="-14.3" font-family="Times,serif" font-size="14.00">वै(4.1)</text>
</g>
<!-- Node4_1&#45;&gt;Node3_1 -->
<g id="edge5" class="edge">
<title>Node4_1&#45;&gt;Node3_1</title>
<path fill="none" stroke="black" d="M306,-46.27C306,-59.58 306,-75.19 306,-86.82"/>
<polygon fill="black" stroke="black" points="309.5,-46.2 306,-36.2 302.5,-46.2 309.5,-46.2"/>
<text text-anchor="middle" x="324.5" y="-57.8" font-family="Times,serif" font-size="14.00">सम्बन्धः</text>
</g>
<!-- Node6_1 -->
<g id="node11" class="node">
<title>Node6_1</title>
<ellipse fill="#ff99ff" stroke="#ff99ff" cx="412" cy="-105" rx="44.39" ry="18"/>
<text text-anchor="middle" x="412" y="-101.3" font-family="Times,serif" font-size="14.00">इति(6.1)</text>
</g>
<!-- Node6_1&#45;&gt;Node5_1 -->
<g id="edge7" class="edge">
<title>Node6_1&#45;&gt;Node5_1</title>
<path fill="none" stroke="black" d="M411.68,-133.27C411.52,-146.58 411.34,-162.19 411.2,-173.82"/>
<polygon fill="black" stroke="black" points="415.18,-133.24 411.8,-123.2 408.18,-133.16 415.18,-133.24"/>
<text text-anchor="middle" x="452" y="-144.8" font-family="Times,serif" font-size="14.00">वाक्यकर्म_द्योतकः</text>
</g>
<!-- Node7_1 -->
<g id="node12" class="node">
<title>Node7_1</title>
<ellipse fill="#ffff00" stroke="#ffff00" cx="190" cy="-18" rx="48.19" ry="18"/>
<text text-anchor="middle" x="190" y="-14.3" font-family="Times,serif" font-size="14.00">परम&#45;(7.1)</text>
</g>
<!-- Node7_1&#45;&gt;Node7_2 -->
<g id="edge8" class="edge">
<title>Node7_1&#45;&gt;Node7_2</title>
<path fill="none" stroke="black" d="M190,-46.27C190,-59.58 190,-75.19 190,-86.82"/>
<polygon fill="black" stroke="black" points="193.5,-46.2 190,-36.2 186.5,-46.2 193.5,-46.2"/>
<text text-anchor="middle" x="207" y="-57.8" font-family="Times,serif" font-size="14.00">समासः</text>
</g>
<!-- Node11_1 -->
<g id="node13" class="node">
<title>Node11_1</title>
<ellipse fill="#ff99ff" stroke="#ff99ff" cx="533" cy="-192" rx="42.49" ry="18"/>
<text text-anchor="middle" x="533" y="-188.3" font-family="Times,serif" font-size="14.00">ह(11.1)</text>
</g>
<!-- Node11_1&#45;&gt;Node10_1 -->
<g id="edge12" class="edge">
<title>Node11_1&#45;&gt;Node10_1</title>
<path fill="none" stroke="black" d="M503.27,-213.71C481.66,-228.77 452.88,-248.82 433.24,-262.5"/>
<polygon fill="black" stroke="black" points="505.55,-216.39 511.75,-207.81 501.54,-210.65 505.55,-216.39"/>
<text text-anchor="middle" x="497.5" y="-231.8" font-family="Times,serif" font-size="14.00">सम्बन्धः</text>
</g>
<!-- Node14_1 -->
<g id="node15" class="node">
<title>Node14_1</title>
<ellipse fill="#87ceeb" stroke="#87ceeb" cx="750" cy="-105" rx="42.79" ry="18"/>
<text text-anchor="middle" x="750" y="-101.3" font-family="Times,serif" font-size="14.00">मे(14.1)</text>
</g>
<!-- Node14_1&#45;&gt;Node13_1 -->
<g id="edge14" class="edge">
<title>Node14_1&#45;&gt;Node13_1</title>
<path fill="none" stroke="black" d="M762.91,-132.13C769.63,-145.73 777.66,-161.98 783.58,-173.95"/>
<polygon fill="black" stroke="black" points="765.87,-130.21 758.3,-122.79 759.59,-133.31 765.87,-130.21"/>
<text text-anchor="middle" x="791.5" y="-144.8" font-family="Times,serif" font-size="14.00">सम्बन्धः</text>
</g>
</g>
</svg>
