<?xml version="1.0" encoding="UTF-8" standalone="no"?>
<!DOCTYPE svg PUBLIC "-//W3C//DTD SVG 1.1//EN"
 "http://www.w3.org/Graphics/SVG/1.1/DTD/svg11.dtd">
<!-- Generated by graphviz version 2.43.0 (0)
 -->
<!-- Title: G Pages: 1 -->
<svg width="466pt" height="305pt"
 viewBox="0.00 0.00 465.90 305.00" xmlns="http://www.w3.org/2000/svg" xmlns:xlink="http://www.w3.org/1999/xlink">
<g id="graph0" class="graph" transform="scale(1 1) rotate(0) translate(4 301)">
<title>G</title>
<polygon fill="#fffacd" stroke="transparent" points="-4,4 -4,-301 461.9,-301 461.9,4 -4,4"/>
<g id="clust1" class="cluster">
<title>cluster_1</title>
<polygon fill="#fffacd" stroke="black" points="297.9,-79 297.9,-218 449.9,-218 449.9,-79 297.9,-79"/>
</g>
<!-- Node2_1 -->
<g id="node1" class="node">
<title>Node2_1</title>
<ellipse fill="#87ceeb" stroke="#87ceeb" cx="373.9" cy="-105" rx="68.49" ry="18"/>
<text text-anchor="middle" x="373.9" y="-101.3" font-family="Times,serif" font-size="14.00">चिन्तयानस्य(2.1)</text>
</g>
<!-- Node3_1 -->
<g id="node2" class="node">
<title>Node3_1</title>
<ellipse fill="#87ceeb" stroke="#87ceeb" cx="358.9" cy="-192" rx="37.09" ry="18"/>
<text text-anchor="middle" x="358.9" y="-188.3" font-family="Times,serif" font-size="14.00">मे(3.1)</text>
</g>
<!-- Node2_1&#45;&gt;Node3_1 -->
<g id="edge2" class="edge">
<title>Node2_1&#45;&gt;Node3_1</title>
<path fill="none" stroke="black" d="M369.08,-133.27C366.73,-146.58 363.98,-162.19 361.93,-173.82"/>
<polygon fill="black" stroke="black" points="372.57,-133.66 370.86,-123.2 365.68,-132.44 372.57,-133.66"/>
<text text-anchor="middle" x="389.4" y="-144.8" font-family="Times,serif" font-size="14.00">विशेषणम्</text>
</g>
<!-- Node6_1 -->
<g id="node4" class="node">
<title>Node6_1</title>
<ellipse fill="#ff1975" stroke="#ff1975" cx="191.9" cy="-279" rx="48.99" ry="18"/>
<text text-anchor="middle" x="191.9" y="-275.3" font-family="Times,serif" font-size="14.00">विद्यते(6.1)</text>
</g>
<!-- Node3_1&#45;&gt;Node6_1 -->
<g id="edge3" class="edge">
<title>Node3_1&#45;&gt;Node6_1</title>
<path fill="none" stroke="black" d="M326.45,-211.26C308.94,-220.96 286.89,-232.91 266.9,-243 252.14,-250.44 235.51,-258.26 221.66,-264.62"/>
<polygon fill="black" stroke="black" points="328.62,-214.06 335.66,-206.14 325.22,-207.94 328.62,-214.06"/>
<text text-anchor="middle" x="313.4" y="-231.8" font-family="Times,serif" font-size="14.00">सम्बन्धः</text>
</g>
<!-- Node1_1 -->
<g id="node3" class="node">
<title>Node1_1</title>
<ellipse fill="#ff99ff" stroke="#ff99ff" cx="373.9" cy="-18" rx="44.39" ry="18"/>
<text text-anchor="middle" x="373.9" y="-14.3" font-family="Times,serif" font-size="14.00">इति(1.1)</text>
</g>
<!-- Node1_1&#45;&gt;Node2_1 -->
<g id="edge1" class="edge">
<title>Node1_1&#45;&gt;Node2_1</title>
<path fill="none" stroke="black" d="M373.9,-46.27C373.9,-59.58 373.9,-75.19 373.9,-86.82"/>
<polygon fill="black" stroke="black" points="377.4,-46.2 373.9,-36.2 370.4,-46.2 377.4,-46.2"/>
<text text-anchor="middle" x="414.9" y="-57.8" font-family="Times,serif" font-size="14.00">वाक्यकर्म_द्योतकः</text>
</g>
<!-- Node4_1 -->
<g id="node5" class="node">
<title>Node4_1</title>
<ellipse fill="#00bfff" stroke="#00bfff" cx="42.9" cy="-192" rx="42.79" ry="18"/>
<text text-anchor="middle" x="42.9" y="-188.3" font-family="Times,serif" font-size="14.00">शर्म(4.1)</text>
</g>
<!-- Node4_1&#45;&gt;Node6_1 -->
<g id="edge4" class="edge">
<title>Node4_1&#45;&gt;Node6_1</title>
<path fill="none" stroke="black" d="M76,-211.88C103.38,-227.5 141.68,-249.35 166.64,-263.59"/>
<polygon fill="black" stroke="black" points="77.59,-208.76 67.17,-206.85 74.12,-214.84 77.59,-208.76"/>
<text text-anchor="middle" x="135.9" y="-231.8" font-family="Times,serif" font-size="14.00">कर्म</text>
</g>
<!-- Node5_1 -->
<g id="node6" class="node">
<title>Node5_1</title>
<ellipse fill="#ff99ff" stroke="#ff99ff" cx="140.9" cy="-192" rx="37.09" ry="18"/>
<text text-anchor="middle" x="140.9" y="-188.3" font-family="Times,serif" font-size="14.00">न(5.1)</text>
</g>
<!-- Node5_1&#45;&gt;Node6_1 -->
<g id="edge5" class="edge">
<title>Node5_1&#45;&gt;Node6_1</title>
<path fill="none" stroke="black" d="M155.93,-218.05C164.31,-232.02 174.52,-249.04 181.92,-261.37"/>
<polygon fill="black" stroke="black" points="158.88,-216.16 150.73,-209.39 152.87,-219.76 158.88,-216.16"/>
<text text-anchor="middle" x="189.4" y="-231.8" font-family="Times,serif" font-size="14.00">प्रतिषेधः</text>
</g>
<!-- Node7_1 -->
<g id="node7" class="node">
<title>Node7_1</title>
<ellipse fill="#6fffc3" stroke="#6fffc3" cx="242.9" cy="-192" rx="46.59" ry="18"/>
<text text-anchor="middle" x="242.9" y="-188.3" font-family="Times,serif" font-size="14.00">पितः(7.1)</text>
</g>
<!-- Node7_1&#45;&gt;Node6_1 -->
<g id="edge6" class="edge">
<title>Node7_1&#45;&gt;Node6_1</title>
<path fill="none" stroke="black" d="M227.66,-218.4C219.34,-232.26 209.28,-249.03 201.95,-261.24"/>
<polygon fill="black" stroke="black" points="230.68,-220.17 232.82,-209.79 224.67,-216.57 230.68,-220.17"/>
<text text-anchor="middle" x="241.9" y="-231.8" font-family="Times,serif" font-size="14.00">सम्बोध्यः</text>
</g>
</g>
</svg>
