<?xml version="1.0" encoding="UTF-8" standalone="no"?>
<!DOCTYPE svg PUBLIC "-//W3C//DTD SVG 1.1//EN"
 "http://www.w3.org/Graphics/SVG/1.1/DTD/svg11.dtd">
<!-- Generated by graphviz version 2.43.0 (0)
 -->
<!-- Title: G Pages: 1 -->
<svg width="707pt" height="392pt"
 viewBox="0.00 0.00 707.00 392.00" xmlns="http://www.w3.org/2000/svg" xmlns:xlink="http://www.w3.org/1999/xlink">
<g id="graph0" class="graph" transform="scale(1 1) rotate(0) translate(4 388)">
<title>G</title>
<polygon fill="#fffacd" stroke="transparent" points="-4,4 -4,-388 703,-388 703,4 -4,4"/>
<g id="clust1" class="cluster">
<title>cluster_1</title>
<polygon fill="#fffacd" stroke="black" points="232,-166 232,-305 691,-305 691,-166 232,-166"/>
</g>
<g id="clust2" class="cluster">
<title>cluster_2</title>
<polygon fill="#fffacd" stroke="black" points="8,-166 8,-305 118,-305 118,-166 8,-166"/>
</g>
<!-- Node2_1 -->
<g id="node1" class="node">
<title>Node2_1</title>
<ellipse fill="#40e0d0" stroke="#40e0d0" cx="409" cy="-192" rx="52.79" ry="18"/>
<text text-anchor="middle" x="409" y="-188.3" font-family="Times,serif" font-size="14.00">इच्छता(2.1)</text>
</g>
<!-- Node7_1 -->
<g id="node2" class="node">
<title>Node7_1</title>
<ellipse fill="#40e0d0" stroke="#40e0d0" cx="324" cy="-279" rx="48.99" ry="18"/>
<text text-anchor="middle" x="324" y="-275.3" font-family="Times,serif" font-size="14.00">पुत्रेण(7.1)</text>
</g>
<!-- Node2_1&#45;&gt;Node7_1 -->
<g id="edge3" class="edge">
<title>Node2_1&#45;&gt;Node7_1</title>
<path fill="none" stroke="black" d="M385.44,-216.56C370.98,-231.02 352.86,-249.14 340.05,-261.95"/>
<polygon fill="black" stroke="black" points="388.01,-218.93 392.61,-209.39 383.07,-213.99 388.01,-218.93"/>
<text text-anchor="middle" x="394.5" y="-231.8" font-family="Times,serif" font-size="14.00">विशेषणम्</text>
</g>
<!-- Node11_1 -->
<g id="node13" class="node">
<title>Node11_1</title>
<ellipse fill="#00bfff" stroke="#00bfff" cx="175" cy="-366" rx="50.09" ry="18"/>
<text text-anchor="middle" x="175" y="-362.3" font-family="Times,serif" font-size="14.00">नीतं(11.1)</text>
</g>
<!-- Node7_1&#45;&gt;Node11_1 -->
<g id="edge10" class="edge">
<title>Node7_1&#45;&gt;Node11_1</title>
<path fill="none" stroke="black" d="M289.97,-299.41C262.89,-314.86 225.58,-336.14 200.9,-350.22"/>
<polygon fill="black" stroke="black" points="291.77,-302.41 298.72,-294.42 288.3,-296.33 291.77,-302.41"/>
<text text-anchor="middle" x="270" y="-318.8" font-family="Times,serif" font-size="14.00">कर्ता</text>
</g>
<!-- Node3_1 -->
<g id="node3" class="node">
<title>Node3_1</title>
<ellipse fill="#40e0d0" stroke="#40e0d0" cx="526" cy="-192" rx="46.59" ry="18"/>
<text text-anchor="middle" x="526" y="-188.3" font-family="Times,serif" font-size="14.00">मूढेन(3.1)</text>
</g>
<!-- Node3_1&#45;&gt;Node7_1 -->
<g id="edge4" class="edge">
<title>Node3_1&#45;&gt;Node7_1</title>
<path fill="none" stroke="black" d="M489.62,-211.41C469.59,-221.26 444.16,-233.33 421,-243 400.68,-251.48 377.49,-259.89 358.88,-266.34"/>
<polygon fill="black" stroke="black" points="491.29,-214.48 498.7,-206.91 488.19,-208.21 491.29,-214.48"/>
<text text-anchor="middle" x="476.5" y="-231.8" font-family="Times,serif" font-size="14.00">विशेषणम्</text>
</g>
<!-- Node4_3 -->
<g id="node4" class="node">
<title>Node4_3</title>
<ellipse fill="#40e0d0" stroke="#40e0d0" cx="637" cy="-192" rx="46.29" ry="18"/>
<text text-anchor="middle" x="637" y="-188.3" font-family="Times,serif" font-size="14.00">द्विषा(4.3)</text>
</g>
<!-- Node4_3&#45;&gt;Node7_1 -->
<g id="edge7" class="edge">
<title>Node4_3&#45;&gt;Node7_1</title>
<path fill="none" stroke="black" d="M597.85,-209.55C571.43,-220.24 535.56,-233.81 503,-243 457.75,-255.77 404.76,-265.51 368.24,-271.43"/>
<polygon fill="black" stroke="black" points="599.2,-212.78 607.14,-205.76 596.55,-206.3 599.2,-212.78"/>
<text text-anchor="middle" x="569.5" y="-231.8" font-family="Times,serif" font-size="14.00">विशेषणम्</text>
</g>
<!-- Node5_1 -->
<g id="node5" class="node">
<title>Node5_1</title>
<ellipse fill="#40e0d0" stroke="#40e0d0" cx="289" cy="-192" rx="49.29" ry="18"/>
<text text-anchor="middle" x="289" y="-188.3" font-family="Times,serif" font-size="14.00">पापेन(5.1)</text>
</g>
<!-- Node5_1&#45;&gt;Node7_1 -->
<g id="edge8" class="edge">
<title>Node5_1&#45;&gt;Node7_1</title>
<path fill="none" stroke="black" d="M299.93,-219.54C305.52,-233.12 312.16,-249.24 317.05,-261.11"/>
<polygon fill="black" stroke="black" points="303.13,-218.12 296.08,-210.2 296.65,-220.78 303.13,-218.12"/>
<text text-anchor="middle" x="331.5" y="-231.8" font-family="Times,serif" font-size="14.00">विशेषणम्</text>
</g>
<!-- Node8_1 -->
<g id="node6" class="node">
<title>Node8_1</title>
<ellipse fill="#00bfff" stroke="#00bfff" cx="63" cy="-192" rx="46.59" ry="18"/>
<text text-anchor="middle" x="63" y="-188.3" font-family="Times,serif" font-size="14.00">दीप्तं(8.1)</text>
</g>
<!-- Node9_1 -->
<g id="node7" class="node">
<title>Node9_1</title>
<ellipse fill="#00bfff" stroke="#00bfff" cx="63" cy="-279" rx="44.39" ry="18"/>
<text text-anchor="middle" x="63" y="-275.3" font-family="Times,serif" font-size="14.00">कुलं(9.1)</text>
</g>
<!-- Node8_1&#45;&gt;Node9_1 -->
<g id="edge11" class="edge">
<title>Node8_1&#45;&gt;Node9_1</title>
<path fill="none" stroke="black" d="M63,-220.27C63,-233.58 63,-249.19 63,-260.82"/>
<polygon fill="black" stroke="black" points="66.5,-220.2 63,-210.2 59.5,-220.2 66.5,-220.2"/>
<text text-anchor="middle" x="85.5" y="-231.8" font-family="Times,serif" font-size="14.00">विशेषणम्</text>
</g>
<!-- Node9_1&#45;&gt;Node11_1 -->
<g id="edge12" class="edge">
<title>Node9_1&#45;&gt;Node11_1</title>
<path fill="none" stroke="black" d="M91.04,-301.28C110.72,-316.21 136.6,-335.85 154.39,-349.36"/>
<polygon fill="black" stroke="black" points="93.11,-298.45 83.02,-295.2 88.87,-304.03 93.11,-298.45"/>
<text text-anchor="middle" x="146" y="-318.8" font-family="Times,serif" font-size="14.00">मुख्यकर्म</text>
</g>
<!-- Node1_1 -->
<g id="node8" class="node">
<title>Node1_1</title>
<ellipse fill="#ffff00" stroke="#ffff00" cx="409" cy="-18" rx="54.69" ry="18"/>
<text text-anchor="middle" x="409" y="-14.3" font-family="Times,serif" font-size="14.00">पृथिवी&#45;(1.1)</text>
</g>
<!-- Node1_2 -->
<g id="node9" class="node">
<title>Node1_2</title>
<ellipse fill="#93db70" stroke="#93db70" cx="409" cy="-105" rx="51.99" ry="18"/>
<text text-anchor="middle" x="409" y="-101.3" font-family="Times,serif" font-size="14.00">राज्यम्(1.2)</text>
</g>
<!-- Node1_1&#45;&gt;Node1_2 -->
<g id="edge1" class="edge">
<title>Node1_1&#45;&gt;Node1_2</title>
<path fill="none" stroke="black" d="M409,-46.27C409,-59.58 409,-75.19 409,-86.82"/>
<polygon fill="black" stroke="black" points="412.5,-46.2 409,-36.2 405.5,-46.2 412.5,-46.2"/>
<text text-anchor="middle" x="426" y="-57.8" font-family="Times,serif" font-size="14.00">समासः</text>
</g>
<!-- Node1_2&#45;&gt;Node2_1 -->
<g id="edge2" class="edge">
<title>Node1_2&#45;&gt;Node2_1</title>
<path fill="none" stroke="black" d="M409,-133.27C409,-146.58 409,-162.19 409,-173.82"/>
<polygon fill="black" stroke="black" points="412.5,-133.2 409,-123.2 405.5,-133.2 412.5,-133.2"/>
<text text-anchor="middle" x="418" y="-144.8" font-family="Times,serif" font-size="14.00">कर्म</text>
</g>
<!-- Node4_1 -->
<g id="node10" class="node">
<title>Node4_1</title>
<ellipse fill="#ffff00" stroke="#ffff00" cx="637" cy="-18" rx="40.89" ry="18"/>
<text text-anchor="middle" x="637" y="-14.3" font-family="Times,serif" font-size="14.00">सु&#45;(4.1)</text>
</g>
<!-- Node4_2 -->
<g id="node11" class="node">
<title>Node4_2</title>
<ellipse fill="#ffff00" stroke="#ffff00" cx="637" cy="-105" rx="44.39" ry="18"/>
<text text-anchor="middle" x="637" y="-101.3" font-family="Times,serif" font-size="14.00">हृद&#45;(4.2)</text>
</g>
<!-- Node4_1&#45;&gt;Node4_2 -->
<g id="edge5" class="edge">
<title>Node4_1&#45;&gt;Node4_2</title>
<path fill="none" stroke="black" d="M637,-46.27C637,-59.58 637,-75.19 637,-86.82"/>
<polygon fill="black" stroke="black" points="640.5,-46.2 637,-36.2 633.5,-46.2 640.5,-46.2"/>
<text text-anchor="middle" x="654" y="-57.8" font-family="Times,serif" font-size="14.00">समासः</text>
</g>
<!-- Node4_2&#45;&gt;Node4_3 -->
<g id="edge6" class="edge">
<title>Node4_2&#45;&gt;Node4_3</title>
<path fill="none" stroke="black" d="M637,-133.27C637,-146.58 637,-162.19 637,-173.82"/>
<polygon fill="black" stroke="black" points="640.5,-133.2 637,-123.2 633.5,-133.2 640.5,-133.2"/>
<text text-anchor="middle" x="654" y="-144.8" font-family="Times,serif" font-size="14.00">समासः</text>
</g>
<!-- Node6_1 -->
<g id="node12" class="node">
<title>Node6_1</title>
<ellipse fill="#87ceeb" stroke="#87ceeb" cx="179" cy="-192" rx="42.49" ry="18"/>
<text text-anchor="middle" x="179" y="-188.3" font-family="Times,serif" font-size="14.00">मम(6.1)</text>
</g>
<!-- Node6_1&#45;&gt;Node7_1 -->
<g id="edge9" class="edge">
<title>Node6_1&#45;&gt;Node7_1</title>
<path fill="none" stroke="black" d="M205.15,-214.61C217.17,-223.98 231.87,-234.69 246,-243 260.46,-251.5 277.35,-259.32 291.71,-265.39"/>
<polygon fill="black" stroke="black" points="207.3,-211.85 197.29,-208.38 202.95,-217.34 207.3,-211.85"/>
<text text-anchor="middle" x="273.5" y="-231.8" font-family="Times,serif" font-size="14.00">षष्ठीसम्बन्धः</text>
</g>
<!-- Node10_1 -->
<g id="node14" class="node">
<title>Node10_1</title>
<ellipse fill="#93db70" stroke="#93db70" cx="175" cy="-279" rx="49.29" ry="18"/>
<text text-anchor="middle" x="175" y="-275.3" font-family="Times,serif" font-size="14.00">क्षयं(10.1)</text>
</g>
<!-- Node10_1&#45;&gt;Node11_1 -->
<g id="edge13" class="edge">
<title>Node10_1&#45;&gt;Node11_1</title>
<path fill="none" stroke="black" d="M175,-307.27C175,-320.58 175,-336.19 175,-347.82"/>
<polygon fill="black" stroke="black" points="178.5,-307.2 175,-297.2 171.5,-307.2 178.5,-307.2"/>
<text text-anchor="middle" x="193.5" y="-318.8" font-family="Times,serif" font-size="14.00">गतिकर्म</text>
</g>
</g>
</svg>
