<?xml version="1.0" encoding="UTF-8" standalone="no"?>
<!DOCTYPE svg PUBLIC "-//W3C//DTD SVG 1.1//EN"
 "http://www.w3.org/Graphics/SVG/1.1/DTD/svg11.dtd">
<!-- Generated by graphviz version 2.43.0 (0)
 -->
<!-- Title: G Pages: 1 -->
<svg width="596pt" height="479pt"
 viewBox="0.00 0.00 596.00 479.00" xmlns="http://www.w3.org/2000/svg" xmlns:xlink="http://www.w3.org/1999/xlink">
<g id="graph0" class="graph" transform="scale(1 1) rotate(0) translate(4 475)">
<title>G</title>
<polygon fill="#fffacd" stroke="transparent" points="-4,4 -4,-475 592,-475 592,4 -4,4"/>
<g id="clust1" class="cluster">
<title>cluster_1</title>
<polygon fill="#fffacd" stroke="black" points="8,-79 8,-218 128,-218 128,-79 8,-79"/>
</g>
<g id="clust2" class="cluster">
<title>cluster_2</title>
<polygon fill="#fffacd" stroke="black" points="238,-79 238,-218 370,-218 370,-79 238,-79"/>
</g>
<g id="clust3" class="cluster">
<title>cluster_3</title>
<polygon fill="#fffacd" stroke="black" points="374,-253 374,-392 580,-392 580,-253 374,-253"/>
</g>
<!-- Node1_1 -->
<g id="node1" class="node">
<title>Node1_1</title>
<ellipse fill="#40e0d0" stroke="#40e0d0" cx="68" cy="-105" rx="42.49" ry="18"/>
<text text-anchor="middle" x="68" y="-101.3" font-family="Times,serif" font-size="14.00">येन(1.1)</text>
</g>
<!-- Node2_2 -->
<g id="node2" class="node">
<title>Node2_2</title>
<ellipse fill="#40e0d0" stroke="#40e0d0" cx="68" cy="-192" rx="51.99" ry="18"/>
<text text-anchor="middle" x="68" y="-188.3" font-family="Times,serif" font-size="14.00">बुद्धिना(2.2)</text>
</g>
<!-- Node1_1&#45;&gt;Node2_2 -->
<g id="edge1" class="edge">
<title>Node1_1&#45;&gt;Node2_2</title>
<path fill="none" stroke="black" d="M68,-133.27C68,-146.58 68,-162.19 68,-173.82"/>
<polygon fill="black" stroke="black" points="71.5,-133.2 68,-123.2 64.5,-133.2 71.5,-133.2"/>
<text text-anchor="middle" x="90.5" y="-144.8" font-family="Times,serif" font-size="14.00">विशेषणम्</text>
</g>
<!-- Node5_1 -->
<g id="node9" class="node">
<title>Node5_1</title>
<ellipse fill="#00bfff" stroke="#00bfff" cx="161" cy="-279" rx="55.79" ry="18"/>
<text text-anchor="middle" x="161" y="-275.3" font-family="Times,serif" font-size="14.00">निकृताः(5.1)</text>
</g>
<!-- Node2_2&#45;&gt;Node5_1 -->
<g id="edge3" class="edge">
<title>Node2_2&#45;&gt;Node5_1</title>
<path fill="none" stroke="black" d="M86.07,-217.91C92.79,-226.35 100.78,-235.52 109,-243 116.97,-250.25 126.55,-257.13 135.31,-262.84"/>
<polygon fill="black" stroke="black" points="88.7,-215.59 79.82,-209.81 83.16,-219.87 88.7,-215.59"/>
<text text-anchor="middle" x="176" y="-231.8" font-family="Times,serif" font-size="14.00">कर्तृरहितकर्तृसमानाधिकरणम्</text>
</g>
<!-- Node3_2 -->
<g id="node3" class="node">
<title>Node3_2</title>
<ellipse fill="#00bfff" stroke="#00bfff" cx="304" cy="-105" rx="49.29" ry="18"/>
<text text-anchor="middle" x="304" y="-101.3" font-family="Times,serif" font-size="14.00">पापाः(3.2)</text>
</g>
<!-- Node4_1 -->
<g id="node4" class="node">
<title>Node4_1</title>
<ellipse fill="#00bfff" stroke="#00bfff" cx="304" cy="-192" rx="57.69" ry="18"/>
<text text-anchor="middle" x="304" y="-188.3" font-family="Times,serif" font-size="14.00">पाण्डवाः(4.1)</text>
</g>
<!-- Node3_2&#45;&gt;Node4_1 -->
<g id="edge5" class="edge">
<title>Node3_2&#45;&gt;Node4_1</title>
<path fill="none" stroke="black" d="M304,-133.27C304,-146.58 304,-162.19 304,-173.82"/>
<polygon fill="black" stroke="black" points="307.5,-133.2 304,-123.2 300.5,-133.2 307.5,-133.2"/>
<text text-anchor="middle" x="326.5" y="-144.8" font-family="Times,serif" font-size="14.00">विशेषणम्</text>
</g>
<!-- Node4_1&#45;&gt;Node5_1 -->
<g id="edge6" class="edge">
<title>Node4_1&#45;&gt;Node5_1</title>
<path fill="none" stroke="black" d="M279.2,-216.03C268.57,-225.17 255.69,-235.31 243,-243 228.71,-251.67 211.88,-259.25 197.2,-265.12"/>
<polygon fill="black" stroke="black" points="281.66,-218.53 286.85,-209.3 277.03,-213.27 281.66,-218.53"/>
<text text-anchor="middle" x="274" y="-231.8" font-family="Times,serif" font-size="14.00">कर्म</text>
</g>
<!-- Node6_1 -->
<g id="node5" class="node">
<title>Node6_1</title>
<ellipse fill="#00bfff" stroke="#00bfff" cx="526" cy="-279" rx="46.29" ry="18"/>
<text text-anchor="middle" x="526" y="-275.3" font-family="Times,serif" font-size="14.00">इयम्(6.1)</text>
</g>
<!-- Node8_1 -->
<g id="node6" class="node">
<title>Node8_1</title>
<ellipse fill="#00bfff" stroke="#00bfff" cx="434" cy="-366" rx="51.99" ry="18"/>
<text text-anchor="middle" x="434" y="-362.3" font-family="Times,serif" font-size="14.00">पृथिवी(8.1)</text>
</g>
<!-- Node6_1&#45;&gt;Node8_1 -->
<g id="edge7" class="edge">
<title>Node6_1&#45;&gt;Node8_1</title>
<path fill="none" stroke="black" d="M504.41,-303.78C496.36,-312.29 486.99,-321.81 478,-330 470.78,-336.57 462.49,-343.35 455.07,-349.17"/>
<polygon fill="black" stroke="black" points="507.13,-306 511.39,-296.3 502.01,-301.22 507.13,-306"/>
<text text-anchor="middle" x="516.5" y="-318.8" font-family="Times,serif" font-size="14.00">विशेषणम्</text>
</g>
<!-- Node11_1 -->
<g id="node14" class="node">
<title>Node11_1</title>
<ellipse fill="#00bfff" stroke="#00bfff" cx="353" cy="-453" rx="59.59" ry="18"/>
<text text-anchor="middle" x="353" y="-449.3" font-family="Times,serif" font-size="14.00">घातिता(11.1)</text>
</g>
<!-- Node8_1&#45;&gt;Node11_1 -->
<g id="edge12" class="edge">
<title>Node8_1&#45;&gt;Node11_1</title>
<path fill="none" stroke="black" d="M416.05,-392.16C409.75,-400.39 402.39,-409.37 395,-417 388.53,-423.68 380.86,-430.38 373.85,-436.1"/>
<polygon fill="black" stroke="black" points="419.01,-394.05 422.19,-383.94 413.4,-389.86 419.01,-394.05"/>
<text text-anchor="middle" x="417" y="-405.8" font-family="Times,serif" font-size="14.00">कर्म</text>
</g>
<!-- Node7_4 -->
<g id="node7" class="node">
<title>Node7_4</title>
<ellipse fill="#00bfff" stroke="#00bfff" cx="422" cy="-279" rx="39.79" ry="18"/>
<text text-anchor="middle" x="422" y="-275.3" font-family="Times,serif" font-size="14.00">पा(7.4)</text>
</g>
<!-- Node7_4&#45;&gt;Node8_1 -->
<g id="edge11" class="edge">
<title>Node7_4&#45;&gt;Node8_1</title>
<path fill="none" stroke="black" d="M425.85,-307.27C427.73,-320.58 429.93,-336.19 431.58,-347.82"/>
<polygon fill="black" stroke="black" points="429.29,-306.61 424.43,-297.2 422.36,-307.59 429.29,-306.61"/>
<text text-anchor="middle" x="451.5" y="-318.8" font-family="Times,serif" font-size="14.00">विशेषणम्</text>
</g>
<!-- Node2_1 -->
<g id="node8" class="node">
<title>Node2_1</title>
<ellipse fill="#ffff00" stroke="#ffff00" cx="183" cy="-105" rx="47.39" ry="18"/>
<text text-anchor="middle" x="183" y="-101.3" font-family="Times,serif" font-size="14.00">पाप&#45;(2.1)</text>
</g>
<!-- Node2_1&#45;&gt;Node2_2 -->
<g id="edge2" class="edge">
<title>Node2_1&#45;&gt;Node2_2</title>
<path fill="none" stroke="black" d="M154.81,-127.63C143.16,-136.5 129.49,-146.81 117,-156 108.24,-162.44 98.51,-169.43 90.05,-175.45"/>
<polygon fill="black" stroke="black" points="157.06,-130.31 162.89,-121.47 152.82,-124.75 157.06,-130.31"/>
<text text-anchor="middle" x="155" y="-144.8" font-family="Times,serif" font-size="14.00">समासः</text>
</g>
<!-- Node3_1 -->
<g id="node10" class="node">
<title>Node3_1</title>
<ellipse fill="#ffff00" stroke="#ffff00" cx="304" cy="-18" rx="41.69" ry="18"/>
<text text-anchor="middle" x="304" y="-14.3" font-family="Times,serif" font-size="14.00">अ&#45;(3.1)</text>
</g>
<!-- Node3_1&#45;&gt;Node3_2 -->
<g id="edge4" class="edge">
<title>Node3_1&#45;&gt;Node3_2</title>
<path fill="none" stroke="black" d="M304,-46.27C304,-59.58 304,-75.19 304,-86.82"/>
<polygon fill="black" stroke="black" points="307.5,-46.2 304,-36.2 300.5,-46.2 307.5,-46.2"/>
<text text-anchor="middle" x="321" y="-57.8" font-family="Times,serif" font-size="14.00">समासः</text>
</g>
<!-- Node7_1 -->
<g id="node11" class="node">
<title>Node7_1</title>
<ellipse fill="#ffff00" stroke="#ffff00" cx="422" cy="-18" rx="40.89" ry="18"/>
<text text-anchor="middle" x="422" y="-14.3" font-family="Times,serif" font-size="14.00">स&#45;(7.1)</text>
</g>
<!-- Node7_2 -->
<g id="node12" class="node">
<title>Node7_2</title>
<ellipse fill="#ffff00" stroke="#ffff00" cx="422" cy="-105" rx="43.59" ry="18"/>
<text text-anchor="middle" x="422" y="-101.3" font-family="Times,serif" font-size="14.00">नर&#45;(7.2)</text>
</g>
<!-- Node7_1&#45;&gt;Node7_2 -->
<g id="edge8" class="edge">
<title>Node7_1&#45;&gt;Node7_2</title>
<path fill="none" stroke="black" d="M422,-46.27C422,-59.58 422,-75.19 422,-86.82"/>
<polygon fill="black" stroke="black" points="425.5,-46.2 422,-36.2 418.5,-46.2 425.5,-46.2"/>
<text text-anchor="middle" x="439" y="-57.8" font-family="Times,serif" font-size="14.00">समासः</text>
</g>
<!-- Node7_3 -->
<g id="node13" class="node">
<title>Node7_3</title>
<ellipse fill="#ffff00" stroke="#ffff00" cx="422" cy="-192" rx="42.49" ry="18"/>
<text text-anchor="middle" x="422" y="-188.3" font-family="Times,serif" font-size="14.00">द्वि&#45;(7.3)</text>
</g>
<!-- Node7_2&#45;&gt;Node7_3 -->
<g id="edge9" class="edge">
<title>Node7_2&#45;&gt;Node7_3</title>
<path fill="none" stroke="black" d="M422,-133.27C422,-146.58 422,-162.19 422,-173.82"/>
<polygon fill="black" stroke="black" points="425.5,-133.2 422,-123.2 418.5,-133.2 425.5,-133.2"/>
<text text-anchor="middle" x="439" y="-144.8" font-family="Times,serif" font-size="14.00">समासः</text>
</g>
<!-- Node7_3&#45;&gt;Node7_4 -->
<g id="edge10" class="edge">
<title>Node7_3&#45;&gt;Node7_4</title>
<path fill="none" stroke="black" d="M422,-220.27C422,-233.58 422,-249.19 422,-260.82"/>
<polygon fill="black" stroke="black" points="425.5,-220.2 422,-210.2 418.5,-220.2 425.5,-220.2"/>
<text text-anchor="middle" x="439" y="-231.8" font-family="Times,serif" font-size="14.00">समासः</text>
</g>
<!-- Node9_1 -->
<g id="node15" class="node">
<title>Node9_1</title>
<ellipse fill="#ff99ff" stroke="#ff99ff" cx="327" cy="-279" rx="37.89" ry="18"/>
<text text-anchor="middle" x="327" y="-275.3" font-family="Times,serif" font-size="14.00">च(9.1)</text>
</g>
<!-- Node9_1&#45;&gt;Node8_1 -->
<g id="edge13" class="edge">
<title>Node9_1&#45;&gt;Node8_1</title>
<path fill="none" stroke="black" d="M352.33,-301.63C362.94,-310.55 375.46,-320.9 387,-330 395.31,-336.55 404.63,-343.55 412.76,-349.56"/>
<polygon fill="black" stroke="black" points="354.54,-298.92 344.64,-295.14 350.02,-304.26 354.54,-298.92"/>
<text text-anchor="middle" x="405.5" y="-318.8" font-family="Times,serif" font-size="14.00">सम्बन्धः</text>
</g>
<!-- Node10_1 -->
<g id="node16" class="node">
<title>Node10_1</title>
<ellipse fill="#ff99ff" stroke="#ff99ff" cx="307" cy="-366" rx="56.59" ry="18"/>
<text text-anchor="middle" x="307" y="-362.3" font-family="Times,serif" font-size="14.00">सहसा(10.1)</text>
</g>
<!-- Node10_1&#45;&gt;Node11_1 -->
<g id="edge14" class="edge">
<title>Node10_1&#45;&gt;Node11_1</title>
<path fill="none" stroke="black" d="M314.87,-393.92C317.59,-401.61 320.99,-409.83 325,-417 328.57,-423.38 333.3,-429.8 337.84,-435.36"/>
<polygon fill="black" stroke="black" points="318.14,-392.67 311.68,-384.27 311.49,-394.86 318.14,-392.67"/>
<text text-anchor="middle" x="360" y="-405.8" font-family="Times,serif" font-size="14.00">क्रियाविशेषणम्</text>
</g>
</g>
</svg>
