<?xml version="1.0" encoding="UTF-8" standalone="no"?>
<!DOCTYPE svg PUBLIC "-//W3C//DTD SVG 1.1//EN"
 "http://www.w3.org/Graphics/SVG/1.1/DTD/svg11.dtd">
<!-- Generated by graphviz version 2.43.0 (0)
 -->
<!-- Title: G Pages: 1 -->
<svg width="642pt" height="408pt"
 viewBox="0.00 0.00 642.25 408.00" xmlns="http://www.w3.org/2000/svg" xmlns:xlink="http://www.w3.org/1999/xlink">
<g id="graph0" class="graph" transform="scale(1 1) rotate(0) translate(4 404)">
<title>G</title>
<polygon fill="#fffacd" stroke="transparent" points="-4,4 -4,-404 638.25,-404 638.25,4 -4,4"/>
<g id="clust1" class="cluster">
<title>cluster_1</title>
<polygon fill="#fffacd" stroke="black" points="215.25,-8 215.25,-60 378.25,-60 378.25,-8 215.25,-8"/>
</g>
<g id="clust2" class="cluster">
<title>cluster_2</title>
<polygon fill="#fffacd" stroke="black" points="186.25,-182 186.25,-321 626.25,-321 626.25,-182 186.25,-182"/>
</g>
<!-- Node3_1 -->
<g id="node1" class="node">
<title>Node3_1</title>
<ellipse fill="#c6e2eb" stroke="#c6e2eb" cx="265.25" cy="-34" rx="42.49" ry="18"/>
<text text-anchor="middle" x="265.25" y="-30.3" font-family="Times,serif" font-size="14.00">तेषु(3.1)</text>
</g>
<!-- Node3_1&#45;&gt;Node3_1 -->
<g id="edge3" class="edge">
<title>Node3_1&#45;&gt;Node3_1</title>
<path fill="none" stroke="black" d="M313.56,-26.87C320.68,-27.99 325.49,-30.37 325.49,-34 325.49,-39.17 315.76,-41.79 303.49,-41.87"/>
<polygon fill="black" stroke="black" points="313.72,-23.37 303.49,-26.13 313.2,-30.35 313.72,-23.37"/>
<text text-anchor="middle" x="347.99" y="-30.3" font-family="Times,serif" font-size="14.00">विशेषणम्</text>
</g>
<!-- Node4_1 -->
<g id="node2" class="node">
<title>Node4_1</title>
<ellipse fill="#00bfff" stroke="#00bfff" cx="578.25" cy="-208" rx="40.09" ry="18"/>
<text text-anchor="middle" x="578.25" y="-204.3" font-family="Times,serif" font-size="14.00">सः(4.1)</text>
</g>
<!-- Node7_1 -->
<g id="node3" class="node">
<title>Node7_1</title>
<ellipse fill="#00bfff" stroke="#00bfff" cx="286.25" cy="-295" rx="46.29" ry="18"/>
<text text-anchor="middle" x="286.25" y="-291.3" font-family="Times,serif" font-size="14.00">राजा(7.1)</text>
</g>
<!-- Node4_1&#45;&gt;Node7_1 -->
<g id="edge4" class="edge">
<title>Node4_1&#45;&gt;Node7_1</title>
<path fill="none" stroke="black" d="M541.32,-225.58C516.51,-236.24 482.88,-249.77 452.25,-259 410.65,-271.54 361.88,-281.25 328.01,-287.22"/>
<polygon fill="black" stroke="black" points="542.93,-228.7 550.7,-221.51 540.14,-222.28 542.93,-228.7"/>
<text text-anchor="middle" x="516.75" y="-247.8" font-family="Times,serif" font-size="14.00">विशेषणम्</text>
</g>
<!-- Node11_1 -->
<g id="node9" class="node">
<title>Node11_1</title>
<ellipse fill="#ff1975" stroke="#ff1975" cx="153.25" cy="-382" rx="56.59" ry="18"/>
<text text-anchor="middle" x="153.25" y="-378.3" font-family="Times,serif" font-size="14.00">ससाद(11.1)</text>
</g>
<!-- Node7_1&#45;&gt;Node11_1 -->
<g id="edge9" class="edge">
<title>Node7_1&#45;&gt;Node11_1</title>
<path fill="none" stroke="black" d="M256.87,-316.83C243.68,-326 227.83,-336.77 213.25,-346 202.45,-352.84 190.3,-360.01 179.78,-366.07"/>
<polygon fill="black" stroke="black" points="258.93,-319.67 265.12,-311.07 254.92,-313.93 258.93,-319.67"/>
<text text-anchor="middle" x="246.25" y="-334.8" font-family="Times,serif" font-size="14.00">कर्ता</text>
</g>
<!-- Node5_2 -->
<g id="node4" class="node">
<title>Node5_2</title>
<ellipse fill="#00bfff" stroke="#00bfff" cx="241.25" cy="-208" rx="46.59" ry="18"/>
<text text-anchor="middle" x="241.25" y="-204.3" font-family="Times,serif" font-size="14.00">मतिः(5.2)</text>
</g>
<!-- Node5_2&#45;&gt;Node7_1 -->
<g id="edge6" class="edge">
<title>Node5_2&#45;&gt;Node7_1</title>
<path fill="none" stroke="black" d="M254.9,-234.8C262.2,-248.58 270.97,-265.14 277.37,-277.24"/>
<polygon fill="black" stroke="black" points="257.91,-232.99 250.14,-225.79 251.72,-236.27 257.91,-232.99"/>
<text text-anchor="middle" x="288.75" y="-247.8" font-family="Times,serif" font-size="14.00">विशेषणम्</text>
</g>
<!-- Node6_2 -->
<g id="node5" class="node">
<title>Node6_2</title>
<ellipse fill="#00bfff" stroke="#00bfff" cx="354.25" cy="-208" rx="48.19" ry="18"/>
<text text-anchor="middle" x="354.25" y="-204.3" font-family="Times,serif" font-size="14.00">उद्वहः(6.2)</text>
</g>
<!-- Node6_2&#45;&gt;Node7_1 -->
<g id="edge8" class="edge">
<title>Node6_2&#45;&gt;Node7_1</title>
<path fill="none" stroke="black" d="M335.15,-233.78C328.86,-241.86 321.8,-250.85 315.25,-259 310.3,-265.15 304.8,-271.84 299.92,-277.7"/>
<polygon fill="black" stroke="black" points="338,-235.81 341.37,-225.76 332.47,-231.52 338,-235.81"/>
<text text-anchor="middle" x="347.75" y="-247.8" font-family="Times,serif" font-size="14.00">विशेषणम्</text>
</g>
<!-- Node10_2 -->
<g id="node6" class="node">
<title>Node10_2</title>
<ellipse fill="#00bfff" stroke="#00bfff" cx="470.25" cy="-208" rx="50.09" ry="18"/>
<text text-anchor="middle" x="470.25" y="-204.3" font-family="Times,serif" font-size="14.00">वृतः(10.2)</text>
</g>
<!-- Node10_2&#45;&gt;Node7_1 -->
<g id="edge14" class="edge">
<title>Node10_2&#45;&gt;Node7_1</title>
<path fill="none" stroke="black" d="M435.14,-228.38C417.15,-238.03 394.76,-249.61 374.25,-259 356.16,-267.28 335.51,-275.55 318.76,-281.98"/>
<polygon fill="black" stroke="black" points="436.98,-231.36 444.12,-223.53 433.66,-225.2 436.98,-231.36"/>
<text text-anchor="middle" x="425.75" y="-247.8" font-family="Times,serif" font-size="14.00">विशेषणम्</text>
</g>
<!-- Node1_1 -->
<g id="node7" class="node">
<title>Node1_1</title>
<ellipse fill="#ff99ff" stroke="#ff99ff" cx="42.25" cy="-208" rx="42.49" ry="18"/>
<text text-anchor="middle" x="42.25" y="-204.3" font-family="Times,serif" font-size="14.00">तत्र(1.1)</text>
</g>
<!-- Node2_1 -->
<g id="node8" class="node">
<title>Node2_1</title>
<ellipse fill="#c6e2eb" stroke="#c6e2eb" cx="66.25" cy="-295" rx="57.69" ry="18"/>
<text text-anchor="middle" x="66.25" y="-291.3" font-family="Times,serif" font-size="14.00">उपविष्टेषु(2.1)</text>
</g>
<!-- Node1_1&#45;&gt;Node2_1 -->
<g id="edge1" class="edge">
<title>Node1_1&#45;&gt;Node2_1</title>
<path fill="none" stroke="black" d="M47.52,-236.26C49.16,-243.69 51.1,-251.7 53.25,-259 55,-264.97 57.27,-271.38 59.42,-277.07"/>
<polygon fill="black" stroke="black" points="50.91,-235.34 45.43,-226.27 44.06,-236.78 50.91,-235.34"/>
<text text-anchor="middle" x="85.25" y="-247.8" font-family="Times,serif" font-size="14.00">देशाधिकरणम्</text>
</g>
<!-- Node2_1&#45;&gt;Node11_1 -->
<g id="edge2" class="edge">
<title>Node2_1&#45;&gt;Node11_1</title>
<path fill="none" stroke="black" d="M72.56,-323.22C75.43,-331.23 79.5,-339.57 85.25,-346 93.74,-355.5 105.43,-362.8 116.72,-368.21"/>
<polygon fill="black" stroke="black" points="75.83,-321.93 69.55,-313.4 69.14,-323.98 75.83,-321.93"/>
<text text-anchor="middle" x="149.25" y="-334.8" font-family="Times,serif" font-size="14.00">भावलक्षणसप्तमी_पूर्वकालः</text>
</g>
<!-- Node5_1 -->
<g id="node10" class="node">
<title>Node5_1</title>
<ellipse fill="#ffff00" stroke="#ffff00" cx="241.25" cy="-121" rx="46.59" ry="18"/>
<text text-anchor="middle" x="241.25" y="-117.3" font-family="Times,serif" font-size="14.00">महा&#45;(5.1)</text>
</g>
<!-- Node5_1&#45;&gt;Node5_2 -->
<g id="edge5" class="edge">
<title>Node5_1&#45;&gt;Node5_2</title>
<path fill="none" stroke="black" d="M241.25,-149.27C241.25,-162.58 241.25,-178.19 241.25,-189.82"/>
<polygon fill="black" stroke="black" points="244.75,-149.2 241.25,-139.2 237.75,-149.2 244.75,-149.2"/>
<text text-anchor="middle" x="258.25" y="-160.8" font-family="Times,serif" font-size="14.00">समासः</text>
</g>
<!-- Node6_1 -->
<g id="node11" class="node">
<title>Node6_1</title>
<ellipse fill="#ffff00" stroke="#ffff00" cx="354.25" cy="-121" rx="46.29" ry="18"/>
<text text-anchor="middle" x="354.25" y="-117.3" font-family="Times,serif" font-size="14.00">कुरु&#45;(6.1)</text>
</g>
<!-- Node6_1&#45;&gt;Node6_2 -->
<g id="edge7" class="edge">
<title>Node6_1&#45;&gt;Node6_2</title>
<path fill="none" stroke="black" d="M354.25,-149.27C354.25,-162.58 354.25,-178.19 354.25,-189.82"/>
<polygon fill="black" stroke="black" points="357.75,-149.2 354.25,-139.2 350.75,-149.2 357.75,-149.2"/>
<text text-anchor="middle" x="371.25" y="-160.8" font-family="Times,serif" font-size="14.00">समासः</text>
</g>
<!-- Node8_1 -->
<g id="node12" class="node">
<title>Node8_1</title>
<ellipse fill="#ff99ff" stroke="#ff99ff" cx="139.25" cy="-208" rx="37.09" ry="18"/>
<text text-anchor="middle" x="139.25" y="-204.3" font-family="Times,serif" font-size="14.00">तु(8.1)</text>
</g>
<!-- Node8_1&#45;&gt;Node7_1 -->
<g id="edge10" class="edge">
<title>Node8_1&#45;&gt;Node7_1</title>
<path fill="none" stroke="black" d="M169.14,-228.45C184.04,-237.94 202.41,-249.36 219.25,-259 232.12,-266.37 246.68,-274.05 258.93,-280.34"/>
<polygon fill="black" stroke="black" points="170.67,-225.27 160.37,-222.82 166.9,-231.17 170.67,-225.27"/>
<text text-anchor="middle" x="237.75" y="-247.8" font-family="Times,serif" font-size="14.00">सम्बन्धः</text>
</g>
<!-- Node9_1 -->
<g id="node13" class="node">
<title>Node9_1</title>
<ellipse fill="#ffff00" stroke="#ffff00" cx="466.25" cy="-34" rx="51.19" ry="18"/>
<text text-anchor="middle" x="466.25" y="-30.3" font-family="Times,serif" font-size="14.00">पाण्डु&#45;(9.1)</text>
</g>
<!-- Node9_2 -->
<g id="node14" class="node">
<title>Node9_2</title>
<ellipse fill="#40e0d0" stroke="#40e0d0" cx="466.25" cy="-121" rx="44.69" ry="18"/>
<text text-anchor="middle" x="466.25" y="-117.3" font-family="Times,serif" font-size="14.00">पुत्रैः(9.2)</text>
</g>
<!-- Node9_1&#45;&gt;Node9_2 -->
<g id="edge11" class="edge">
<title>Node9_1&#45;&gt;Node9_2</title>
<path fill="none" stroke="black" d="M466.25,-62.27C466.25,-75.58 466.25,-91.19 466.25,-102.82"/>
<polygon fill="black" stroke="black" points="469.75,-62.2 466.25,-52.2 462.75,-62.2 469.75,-62.2"/>
<text text-anchor="middle" x="483.25" y="-73.8" font-family="Times,serif" font-size="14.00">समासः</text>
</g>
<!-- Node9_2&#45;&gt;Node10_2 -->
<g id="edge12" class="edge">
<title>Node9_2&#45;&gt;Node10_2</title>
<path fill="none" stroke="black" d="M467.53,-149.27C468.16,-162.58 468.89,-178.19 469.44,-189.82"/>
<polygon fill="black" stroke="black" points="471.02,-149.03 467.06,-139.2 464.03,-149.35 471.02,-149.03"/>
<text text-anchor="middle" x="484.75" y="-160.8" font-family="Times,serif" font-size="14.00">करणम्</text>
</g>
<!-- Node10_1 -->
<g id="node15" class="node">
<title>Node10_1</title>
<ellipse fill="#ffff00" stroke="#ffff00" cx="581.25" cy="-121" rx="51.99" ry="18"/>
<text text-anchor="middle" x="581.25" y="-117.3" font-family="Times,serif" font-size="14.00">परि&#45;(10.1)</text>
</g>
<!-- Node10_1&#45;&gt;Node10_2 -->
<g id="edge13" class="edge">
<title>Node10_1&#45;&gt;Node10_2</title>
<path fill="none" stroke="black" d="M552.93,-143.68C533.42,-158.62 507.96,-178.12 490.48,-191.51"/>
<polygon fill="black" stroke="black" points="555.08,-146.45 560.89,-137.59 550.82,-140.89 555.08,-146.45"/>
<text text-anchor="middle" x="549.25" y="-160.8" font-family="Times,serif" font-size="14.00">समासः</text>
</g>
</g>
</svg>
