<?xml version="1.0" encoding="UTF-8" standalone="no"?>
<!DOCTYPE svg PUBLIC "-//W3C//DTD SVG 1.1//EN"
 "http://www.w3.org/Graphics/SVG/1.1/DTD/svg11.dtd">
<!-- Generated by graphviz version 2.43.0 (0)
 -->
<!-- Title: G Pages: 1 -->
<svg width="828pt" height="392pt"
 viewBox="0.00 0.00 827.84 392.00" xmlns="http://www.w3.org/2000/svg" xmlns:xlink="http://www.w3.org/1999/xlink">
<g id="graph0" class="graph" transform="scale(1 1) rotate(0) translate(4 388)">
<title>G</title>
<polygon fill="#fffacd" stroke="transparent" points="-4,4 -4,-388 823.84,-388 823.84,4 -4,4"/>
<g id="clust1" class="cluster">
<title>cluster_1</title>
<polygon fill="#fffacd" stroke="black" points="8,-166 8,-305 458,-305 458,-166 8,-166"/>
</g>
<!-- Node3_1 -->
<g id="node1" class="node">
<title>Node3_1</title>
<ellipse fill="#00bfff" stroke="#00bfff" cx="66" cy="-192" rx="50.09" ry="18"/>
<text text-anchor="middle" x="66" y="-188.3" font-family="Times,serif" font-size="14.00">श्वशुरः(3.1)</text>
</g>
<!-- Node7_1 -->
<g id="node2" class="node">
<title>Node7_1</title>
<ellipse fill="#00bfff" stroke="#00bfff" cx="228" cy="-279" rx="55.49" ry="18"/>
<text text-anchor="middle" x="228" y="-275.3" font-family="Times,serif" font-size="14.00">बाह्लीकः(7.1)</text>
</g>
<!-- Node3_1&#45;&gt;Node7_1 -->
<g id="edge3" class="edge">
<title>Node3_1&#45;&gt;Node7_1</title>
<path fill="none" stroke="black" d="M97.71,-213.38C112.96,-222.85 131.66,-233.98 149,-243 163.77,-250.68 180.59,-258.28 194.89,-264.43"/>
<polygon fill="black" stroke="black" points="99.5,-210.37 89.16,-208.02 95.78,-216.3 99.5,-210.37"/>
<text text-anchor="middle" x="171.5" y="-231.8" font-family="Times,serif" font-size="14.00">विशेषणम्</text>
</g>
<!-- Node8_1 -->
<g id="node9" class="node">
<title>Node8_1</title>
<ellipse fill="#00bfff" stroke="#00bfff" cx="228" cy="-366" rx="44.39" ry="18"/>
<text text-anchor="middle" x="228" y="-362.3" font-family="Times,serif" font-size="14.00">हतः(8.1)</text>
</g>
<!-- Node7_1&#45;&gt;Node8_1 -->
<g id="edge8" class="edge">
<title>Node7_1&#45;&gt;Node8_1</title>
<path fill="none" stroke="black" d="M228,-307.27C228,-320.58 228,-336.19 228,-347.82"/>
<polygon fill="black" stroke="black" points="231.5,-307.2 228,-297.2 224.5,-307.2 231.5,-307.2"/>
<text text-anchor="middle" x="237" y="-318.8" font-family="Times,serif" font-size="14.00">कर्म</text>
</g>
<!-- Node4_1 -->
<g id="node3" class="node">
<title>Node4_1</title>
<ellipse fill="#00bfff" stroke="#00bfff" cx="284" cy="-192" rx="51.99" ry="18"/>
<text text-anchor="middle" x="284" y="-188.3" font-family="Times,serif" font-size="14.00">धीमान्(4.1)</text>
</g>
<!-- Node4_1&#45;&gt;Node7_1 -->
<g id="edge4" class="edge">
<title>Node4_1&#45;&gt;Node7_1</title>
<path fill="none" stroke="black" d="M267.26,-218.4C258.14,-232.26 247.09,-249.03 239.04,-261.24"/>
<polygon fill="black" stroke="black" points="270.36,-220.07 272.94,-209.79 264.51,-216.22 270.36,-220.07"/>
<text text-anchor="middle" x="282.5" y="-231.8" font-family="Times,serif" font-size="14.00">विशेषणम्</text>
</g>
<!-- Node5_1 -->
<g id="node4" class="node">
<title>Node5_1</title>
<ellipse fill="#00bfff" stroke="#00bfff" cx="174" cy="-192" rx="40.09" ry="18"/>
<text text-anchor="middle" x="174" y="-188.3" font-family="Times,serif" font-size="14.00">सः(5.1)</text>
</g>
<!-- Node5_1&#45;&gt;Node7_1 -->
<g id="edge5" class="edge">
<title>Node5_1&#45;&gt;Node7_1</title>
<path fill="none" stroke="black" d="M189.88,-217.99C198.69,-231.87 209.42,-248.76 217.25,-261.08"/>
<polygon fill="black" stroke="black" points="192.73,-215.95 184.41,-209.39 186.82,-219.71 192.73,-215.95"/>
<text text-anchor="middle" x="227.5" y="-231.8" font-family="Times,serif" font-size="14.00">विशेषणम्</text>
</g>
<!-- Node6_2 -->
<g id="node5" class="node">
<title>Node6_2</title>
<ellipse fill="#00bfff" stroke="#00bfff" cx="402" cy="-192" rx="48.19" ry="18"/>
<text text-anchor="middle" x="402" y="-188.3" font-family="Times,serif" font-size="14.00">उद्वहः(6.2)</text>
</g>
<!-- Node6_2&#45;&gt;Node7_1 -->
<g id="edge7" class="edge">
<title>Node6_2&#45;&gt;Node7_1</title>
<path fill="none" stroke="black" d="M367.46,-212.48C350.1,-222.03 328.63,-233.5 309,-243 293.42,-250.54 275.81,-258.24 261,-264.49"/>
<polygon fill="black" stroke="black" points="369.59,-215.3 376.65,-207.39 366.2,-209.17 369.59,-215.3"/>
<text text-anchor="middle" x="359.5" y="-231.8" font-family="Times,serif" font-size="14.00">विशेषणम्</text>
</g>
<!-- Node1_1 -->
<g id="node6" class="node">
<title>Node1_1</title>
<ellipse fill="#87ceeb" stroke="#87ceeb" cx="66" cy="-105" rx="50.89" ry="18"/>
<text text-anchor="middle" x="66" y="-101.3" font-family="Times,serif" font-size="14.00">यस्याः(1.1)</text>
</g>
<!-- Node1_1&#45;&gt;Node3_1 -->
<g id="edge1" class="edge">
<title>Node1_1&#45;&gt;Node3_1</title>
<path fill="none" stroke="black" d="M66,-133.27C66,-146.58 66,-162.19 66,-173.82"/>
<polygon fill="black" stroke="black" points="69.5,-133.2 66,-123.2 62.5,-133.2 69.5,-133.2"/>
<text text-anchor="middle" x="93.5" y="-144.8" font-family="Times,serif" font-size="14.00">षष्ठीसम्बन्धः</text>
</g>
<!-- Node2_1 -->
<g id="node7" class="node">
<title>Node2_1</title>
<ellipse fill="#ff99ff" stroke="#ff99ff" cx="66" cy="-18" rx="37.09" ry="18"/>
<text text-anchor="middle" x="66" y="-14.3" font-family="Times,serif" font-size="14.00">तु(2.1)</text>
</g>
<!-- Node2_1&#45;&gt;Node1_1 -->
<g id="edge2" class="edge">
<title>Node2_1&#45;&gt;Node1_1</title>
<path fill="none" stroke="black" d="M66,-46.27C66,-59.58 66,-75.19 66,-86.82"/>
<polygon fill="black" stroke="black" points="69.5,-46.2 66,-36.2 62.5,-46.2 69.5,-46.2"/>
<text text-anchor="middle" x="84.5" y="-57.8" font-family="Times,serif" font-size="14.00">सम्बन्धः</text>
</g>
<!-- Node6_1 -->
<g id="node8" class="node">
<title>Node6_1</title>
<ellipse fill="#ffff00" stroke="#ffff00" cx="402" cy="-105" rx="46.29" ry="18"/>
<text text-anchor="middle" x="402" y="-101.3" font-family="Times,serif" font-size="14.00">कुरु&#45;(6.1)</text>
</g>
<!-- Node6_1&#45;&gt;Node6_2 -->
<g id="edge6" class="edge">
<title>Node6_1&#45;&gt;Node6_2</title>
<path fill="none" stroke="black" d="M402,-133.27C402,-146.58 402,-162.19 402,-173.82"/>
<polygon fill="black" stroke="black" points="405.5,-133.2 402,-123.2 398.5,-133.2 405.5,-133.2"/>
<text text-anchor="middle" x="419" y="-144.8" font-family="Times,serif" font-size="14.00">समासः</text>
</g>
<!-- Node9_1 -->
<g id="node10" class="node">
<title>Node9_1</title>
<ellipse fill="#00bfff" stroke="#00bfff" cx="762" cy="-105" rx="57.69" ry="18"/>
<text text-anchor="middle" x="762" y="-101.3" font-family="Times,serif" font-size="14.00">सोमदत्तः(9.1)</text>
</g>
<!-- Node14_1 -->
<g id="node11" class="node">
<title>Node14_1</title>
<ellipse fill="#00bfff" stroke="#00bfff" cx="638" cy="-192" rx="57.39" ry="18"/>
<text text-anchor="middle" x="638" y="-188.3" font-family="Times,serif" font-size="14.00">निहतः(14.1)</text>
</g>
<!-- Node9_1&#45;&gt;Node14_1 -->
<g id="edge9" class="edge">
<title>Node9_1&#45;&gt;Node14_1</title>
<path fill="none" stroke="black" d="M738.51,-129.39C728.89,-138.31 717.36,-148.19 706,-156 694.62,-163.82 681.26,-171.06 669.41,-176.91"/>
<polygon fill="black" stroke="black" points="740.92,-131.92 745.77,-122.5 736.11,-126.84 740.92,-131.92"/>
<text text-anchor="middle" x="734" y="-144.8" font-family="Times,serif" font-size="14.00">कर्ता</text>
</g>
<!-- Node10_1 -->
<g id="node12" class="node">
<title>Node10_1</title>
<ellipse fill="#ff99ff" stroke="#ff99ff" cx="762" cy="-18" rx="43.59" ry="18"/>
<text text-anchor="middle" x="762" y="-14.3" font-family="Times,serif" font-size="14.00">च(10.1)</text>
</g>
<!-- Node10_1&#45;&gt;Node9_1 -->
<g id="edge10" class="edge">
<title>Node10_1&#45;&gt;Node9_1</title>
<path fill="none" stroke="black" d="M762,-46.27C762,-59.58 762,-75.19 762,-86.82"/>
<polygon fill="black" stroke="black" points="765.5,-46.2 762,-36.2 758.5,-46.2 765.5,-46.2"/>
<text text-anchor="middle" x="780.5" y="-57.8" font-family="Times,serif" font-size="14.00">सम्बन्धः</text>
</g>
<!-- Node11_1 -->
<g id="node13" class="node">
<title>Node11_1</title>
<ellipse fill="#40e0d0" stroke="#40e0d0" cx="519" cy="-105" rx="53.09" ry="18"/>
<text text-anchor="middle" x="519" y="-101.3" font-family="Times,serif" font-size="14.00">पित्रा(11.1)</text>
</g>
<!-- Node11_1&#45;&gt;Node14_1 -->
<g id="edge11" class="edge">
<title>Node11_1&#45;&gt;Node14_1</title>
<path fill="none" stroke="black" d="M549.02,-127.44C569.83,-142.31 597.08,-161.77 615.91,-175.22"/>
<polygon fill="black" stroke="black" points="551,-124.55 540.83,-121.59 546.93,-130.25 551,-124.55"/>
<text text-anchor="middle" x="601" y="-144.8" font-family="Times,serif" font-size="14.00">सहार्थः</text>
</g>
<!-- Node12_1 -->
<g id="node14" class="node">
<title>Node12_1</title>
<ellipse fill="#ff99ff" stroke="#ff99ff" cx="519" cy="-18" rx="48.19" ry="18"/>
<text text-anchor="middle" x="519" y="-14.3" font-family="Times,serif" font-size="14.00">सह(12.1)</text>
</g>
<!-- Node12_1&#45;&gt;Node11_1 -->
<g id="edge12" class="edge">
<title>Node12_1&#45;&gt;Node11_1</title>
<path fill="none" stroke="black" d="M519,-46.27C519,-59.58 519,-75.19 519,-86.82"/>
<polygon fill="black" stroke="black" points="522.5,-46.2 519,-36.2 515.5,-46.2 522.5,-46.2"/>
<text text-anchor="middle" x="552.5" y="-57.8" font-family="Times,serif" font-size="14.00">सहार्थ_द्योतकः</text>
</g>
<!-- Node13_1 -->
<g id="node15" class="node">
<title>Node13_1</title>
<ellipse fill="#ffff00" stroke="#ffff00" cx="638" cy="-18" rx="52.79" ry="18"/>
<text text-anchor="middle" x="638" y="-14.3" font-family="Times,serif" font-size="14.00">महा&#45;(13.1)</text>
</g>
<!-- Node13_2 -->
<g id="node16" class="node">
<title>Node13_2</title>
<ellipse fill="#c6e2eb" stroke="#c6e2eb" cx="638" cy="-105" rx="48.19" ry="18"/>
<text text-anchor="middle" x="638" y="-101.3" font-family="Times,serif" font-size="14.00">रणे(13.2)</text>
</g>
<!-- Node13_1&#45;&gt;Node13_2 -->
<g id="edge13" class="edge">
<title>Node13_1&#45;&gt;Node13_2</title>
<path fill="none" stroke="black" d="M638,-46.27C638,-59.58 638,-75.19 638,-86.82"/>
<polygon fill="black" stroke="black" points="641.5,-46.2 638,-36.2 634.5,-46.2 641.5,-46.2"/>
<text text-anchor="middle" x="655" y="-57.8" font-family="Times,serif" font-size="14.00">समासः</text>
</g>
<!-- Node13_2&#45;&gt;Node14_1 -->
<g id="edge14" class="edge">
<title>Node13_2&#45;&gt;Node14_1</title>
<path fill="none" stroke="black" d="M638,-133.27C638,-146.58 638,-162.19 638,-173.82"/>
<polygon fill="black" stroke="black" points="641.5,-133.2 638,-123.2 634.5,-133.2 641.5,-133.2"/>
<text text-anchor="middle" x="670" y="-144.8" font-family="Times,serif" font-size="14.00">देशाधिकरणम्</text>
</g>
</g>
</svg>
