<?xml version="1.0" encoding="UTF-8" standalone="no"?>
<!DOCTYPE svg PUBLIC "-//W3C//DTD SVG 1.1//EN"
 "http://www.w3.org/Graphics/SVG/1.1/DTD/svg11.dtd">
<!-- Generated by graphviz version 2.43.0 (0)
 -->
<!-- Title: G Pages: 1 -->
<svg width="945pt" height="392pt"
 viewBox="0.00 0.00 945.49 392.00" xmlns="http://www.w3.org/2000/svg" xmlns:xlink="http://www.w3.org/1999/xlink">
<g id="graph0" class="graph" transform="scale(1 1) rotate(0) translate(4 388)">
<title>G</title>
<polygon fill="#fffacd" stroke="transparent" points="-4,4 -4,-388 941.49,-388 941.49,4 -4,4"/>
<g id="clust1" class="cluster">
<title>cluster_1</title>
<polygon fill="#fffacd" stroke="black" points="223.65,-79 223.65,-305 721.65,-305 721.65,-79 223.65,-79"/>
</g>
<!-- Node1_3 -->
<g id="node1" class="node">
<title>Node1_3</title>
<ellipse fill="#00bfff" stroke="#00bfff" cx="537.65" cy="-192" rx="59.59" ry="18"/>
<text text-anchor="middle" x="537.65" y="-188.3" font-family="Times,serif" font-size="14.00">समाविष्टा(1.3)</text>
</g>
<!-- Node6_1 -->
<g id="node2" class="node">
<title>Node6_1</title>
<ellipse fill="#00bfff" stroke="#00bfff" cx="316.65" cy="-279" rx="55.79" ry="18"/>
<text text-anchor="middle" x="316.65" y="-275.3" font-family="Times,serif" font-size="14.00">गान्धारी(6.1)</text>
</g>
<!-- Node1_3&#45;&gt;Node6_1 -->
<g id="edge3" class="edge">
<title>Node1_3&#45;&gt;Node6_1</title>
<path fill="none" stroke="black" d="M493.85,-210.47C469.41,-220.17 438.39,-232.38 410.65,-243 391.29,-250.41 369.62,-258.5 351.97,-265.03"/>
<polygon fill="black" stroke="black" points="495.21,-213.7 503.22,-206.76 492.63,-207.19 495.21,-213.7"/>
<text text-anchor="middle" x="471.15" y="-231.8" font-family="Times,serif" font-size="14.00">विशेषणम्</text>
</g>
<!-- Node10_1 -->
<g id="node10" class="node">
<title>Node10_1</title>
<ellipse fill="#ff1975" stroke="#ff1975" cx="169.65" cy="-366" rx="60.39" ry="18"/>
<text text-anchor="middle" x="169.65" y="-362.3" font-family="Times,serif" font-size="14.00">अब्रवीत्(10.1)</text>
</g>
<!-- Node6_1&#45;&gt;Node10_1 -->
<g id="edge9" class="edge">
<title>Node6_1&#45;&gt;Node10_1</title>
<path fill="none" stroke="black" d="M281.86,-300.12C255.66,-315.26 220.3,-335.71 196.32,-349.58"/>
<polygon fill="black" stroke="black" points="283.8,-303.04 290.7,-295 280.29,-296.98 283.8,-303.04"/>
<text text-anchor="middle" x="262.65" y="-318.8" font-family="Times,serif" font-size="14.00">कर्ता</text>
</g>
<!-- Node2_1 -->
<g id="node3" class="node">
<title>Node2_1</title>
<ellipse fill="#00bfff" stroke="#00bfff" cx="398.65" cy="-192" rx="61.19" ry="18"/>
<text text-anchor="middle" x="398.65" y="-188.3" font-family="Times,serif" font-size="14.00">प्राञ्जलिः(2.1)</text>
</g>
<!-- Node2_1&#45;&gt;Node6_1 -->
<g id="edge4" class="edge">
<title>Node2_1&#45;&gt;Node6_1</title>
<path fill="none" stroke="black" d="M375.58,-216.91C361.79,-231.2 344.65,-248.98 332.41,-261.66"/>
<polygon fill="black" stroke="black" points="378.41,-219.02 382.83,-209.39 373.37,-214.16 378.41,-219.02"/>
<text text-anchor="middle" x="384.15" y="-231.8" font-family="Times,serif" font-size="14.00">विशेषणम्</text>
</g>
<!-- Node3_1 -->
<g id="node4" class="node">
<title>Node3_1</title>
<ellipse fill="#00bfff" stroke="#00bfff" cx="398.65" cy="-105" rx="54.69" ry="18"/>
<text text-anchor="middle" x="398.65" y="-101.3" font-family="Times,serif" font-size="14.00">उत्थिता(3.1)</text>
</g>
<!-- Node3_1&#45;&gt;Node2_1 -->
<g id="edge5" class="edge">
<title>Node3_1&#45;&gt;Node2_1</title>
<path fill="none" stroke="black" d="M398.65,-133.27C398.65,-146.58 398.65,-162.19 398.65,-173.82"/>
<polygon fill="black" stroke="black" points="402.15,-133.2 398.65,-123.2 395.15,-133.2 402.15,-133.2"/>
<text text-anchor="middle" x="421.15" y="-144.8" font-family="Times,serif" font-size="14.00">विशेषणम्</text>
</g>
<!-- Node4_2 -->
<g id="node5" class="node">
<title>Node4_2</title>
<ellipse fill="#00bfff" stroke="#00bfff" cx="664.65" cy="-192" rx="49.29" ry="18"/>
<text text-anchor="middle" x="664.65" y="-188.3" font-family="Times,serif" font-size="14.00">नयना(4.2)</text>
</g>
<!-- Node4_2&#45;&gt;Node6_1 -->
<g id="edge7" class="edge">
<title>Node4_2&#45;&gt;Node6_1</title>
<path fill="none" stroke="black" d="M619.5,-207.85C586.08,-218.52 539.33,-232.76 497.65,-243 453.2,-253.92 401.93,-263.56 365.33,-269.95"/>
<polygon fill="black" stroke="black" points="620.97,-211.06 629.42,-204.67 618.83,-204.39 620.97,-211.06"/>
<text text-anchor="middle" x="575.15" y="-231.8" font-family="Times,serif" font-size="14.00">विशेषणम्</text>
</g>
<!-- Node5_1 -->
<g id="node6" class="node">
<title>Node5_1</title>
<ellipse fill="#00bfff" stroke="#00bfff" cx="275.65" cy="-192" rx="43.59" ry="18"/>
<text text-anchor="middle" x="275.65" y="-188.3" font-family="Times,serif" font-size="14.00">देवी(5.1)</text>
</g>
<!-- Node5_1&#45;&gt;Node6_1 -->
<g id="edge8" class="edge">
<title>Node5_1&#45;&gt;Node6_1</title>
<path fill="none" stroke="black" d="M288.25,-219.13C294.81,-232.73 302.65,-248.98 308.42,-260.95"/>
<polygon fill="black" stroke="black" points="291.24,-217.28 283.75,-209.79 284.94,-220.32 291.24,-217.28"/>
<text text-anchor="middle" x="320.15" y="-231.8" font-family="Times,serif" font-size="14.00">विशेषणम्</text>
</g>
<!-- Node1_1 -->
<g id="node7" class="node">
<title>Node1_1</title>
<ellipse fill="#ffff00" stroke="#ffff00" cx="779.65" cy="-18" rx="45.49" ry="18"/>
<text text-anchor="middle" x="779.65" y="-14.3" font-family="Times,serif" font-size="14.00">पुत्र&#45;(1.1)</text>
</g>
<!-- Node1_2 -->
<g id="node8" class="node">
<title>Node1_2</title>
<ellipse fill="#ffff00" stroke="#ffff00" cx="779.65" cy="-105" rx="50.09" ry="18"/>
<text text-anchor="middle" x="779.65" y="-101.3" font-family="Times,serif" font-size="14.00">शोक&#45;(1.2)</text>
</g>
<!-- Node1_1&#45;&gt;Node1_2 -->
<g id="edge1" class="edge">
<title>Node1_1&#45;&gt;Node1_2</title>
<path fill="none" stroke="black" d="M779.65,-46.27C779.65,-59.58 779.65,-75.19 779.65,-86.82"/>
<polygon fill="black" stroke="black" points="783.15,-46.2 779.65,-36.2 776.15,-46.2 783.15,-46.2"/>
<text text-anchor="middle" x="796.65" y="-57.8" font-family="Times,serif" font-size="14.00">समासः</text>
</g>
<!-- Node1_2&#45;&gt;Node1_3 -->
<g id="edge2" class="edge">
<title>Node1_2&#45;&gt;Node1_3</title>
<path fill="none" stroke="black" d="M735.55,-121.49C689.61,-137.62 618.43,-162.62 575.12,-177.84"/>
<polygon fill="black" stroke="black" points="736.95,-124.7 745.23,-118.09 734.63,-118.1 736.95,-124.7"/>
<text text-anchor="middle" x="689.65" y="-144.8" font-family="Times,serif" font-size="14.00">समासः</text>
</g>
<!-- Node4_1 -->
<g id="node9" class="node">
<title>Node4_1</title>
<ellipse fill="#ffff00" stroke="#ffff00" cx="892.65" cy="-105" rx="44.69" ry="18"/>
<text text-anchor="middle" x="892.65" y="-101.3" font-family="Times,serif" font-size="14.00">बद्ध&#45;(4.1)</text>
</g>
<!-- Node4_1&#45;&gt;Node4_2 -->
<g id="edge6" class="edge">
<title>Node4_1&#45;&gt;Node4_2</title>
<path fill="none" stroke="black" d="M851.41,-121.37C807.42,-137.77 738.6,-163.43 697.93,-178.59"/>
<polygon fill="black" stroke="black" points="852.8,-124.59 860.94,-117.82 850.35,-118.03 852.8,-124.59"/>
<text text-anchor="middle" x="808.65" y="-144.8" font-family="Times,serif" font-size="14.00">समासः</text>
</g>
<!-- Node7_1 -->
<g id="node11" class="node">
<title>Node7_1</title>
<ellipse fill="#ff99ff" stroke="#ff99ff" cx="176.65" cy="-192" rx="37.09" ry="18"/>
<text text-anchor="middle" x="176.65" y="-188.3" font-family="Times,serif" font-size="14.00">तु(7.1)</text>
</g>
<!-- Node7_1&#45;&gt;Node6_1 -->
<g id="edge10" class="edge">
<title>Node7_1&#45;&gt;Node6_1</title>
<path fill="none" stroke="black" d="M205.31,-212.65C219.4,-222.1 236.73,-233.43 252.65,-243 264.26,-249.98 277.35,-257.24 288.64,-263.33"/>
<polygon fill="black" stroke="black" points="207.25,-209.74 197,-207.04 203.33,-215.54 207.25,-209.74"/>
<text text-anchor="middle" x="271.15" y="-231.8" font-family="Times,serif" font-size="14.00">सम्बन्धः</text>
</g>
<!-- Node8_1 -->
<g id="node12" class="node">
<title>Node8_1</title>
<ellipse fill="#93db70" stroke="#93db70" cx="52.65" cy="-279" rx="52.79" ry="18"/>
<text text-anchor="middle" x="52.65" y="-275.3" font-family="Times,serif" font-size="14.00">श्वशुरम्(8.1)</text>
</g>
<!-- Node8_1&#45;&gt;Node10_1 -->
<g id="edge11" class="edge">
<title>Node8_1&#45;&gt;Node10_1</title>
<path fill="none" stroke="black" d="M82.38,-301.6C102.67,-316.34 129.09,-335.54 147.53,-348.93"/>
<polygon fill="black" stroke="black" points="84.25,-298.64 74.1,-295.59 80.14,-304.3 84.25,-298.64"/>
<text text-anchor="middle" x="138.15" y="-318.8" font-family="Times,serif" font-size="14.00">गौणकर्म</text>
</g>
<!-- Node9_1 -->
<g id="node13" class="node">
<title>Node9_1</title>
<ellipse fill="#93db70" stroke="#93db70" cx="169.65" cy="-279" rx="46.29" ry="18"/>
<text text-anchor="middle" x="169.65" y="-275.3" font-family="Times,serif" font-size="14.00">इदम्(9.1)</text>
</g>
<!-- Node9_1&#45;&gt;Node10_1 -->
<g id="edge12" class="edge">
<title>Node9_1&#45;&gt;Node10_1</title>
<path fill="none" stroke="black" d="M169.65,-307.27C169.65,-320.58 169.65,-336.19 169.65,-347.82"/>
<polygon fill="black" stroke="black" points="173.15,-307.2 169.65,-297.2 166.15,-307.2 173.15,-307.2"/>
<text text-anchor="middle" x="189.65" y="-318.8" font-family="Times,serif" font-size="14.00">मुख्यकर्म</text>
</g>
</g>
</svg>
