<?xml version="1.0" encoding="UTF-8" standalone="no"?>
<!DOCTYPE svg PUBLIC "-//W3C//DTD SVG 1.1//EN"
 "http://www.w3.org/Graphics/SVG/1.1/DTD/svg11.dtd">
<!-- Generated by graphviz version 2.43.0 (0)
 -->
<!-- Title: G Pages: 1 -->
<svg width="861pt" height="392pt"
 viewBox="0.00 0.00 861.00 392.00" xmlns="http://www.w3.org/2000/svg" xmlns:xlink="http://www.w3.org/1999/xlink">
<g id="graph0" class="graph" transform="scale(1 1) rotate(0) translate(4 388)">
<title>G</title>
<polygon fill="#fffacd" stroke="transparent" points="-4,4 -4,-388 857,-388 857,4 -4,4"/>
<g id="clust1" class="cluster">
<title>cluster_1</title>
<polygon fill="#fffacd" stroke="black" points="8,-166 8,-305 357,-305 357,-166 8,-166"/>
</g>
<g id="clust2" class="cluster">
<title>cluster_2</title>
<polygon fill="#fffacd" stroke="black" points="517,-166 517,-305 845,-305 845,-166 517,-166"/>
</g>
<!-- Node1_1 -->
<g id="node1" class="node">
<title>Node1_1</title>
<ellipse fill="#93db70" stroke="#93db70" cx="305" cy="-192" rx="44.39" ry="18"/>
<text text-anchor="middle" x="305" y="-188.3" font-family="Times,serif" font-size="14.00">ताम्(1.1)</text>
</g>
<!-- Node5_1 -->
<g id="node2" class="node">
<title>Node5_1</title>
<ellipse fill="#93db70" stroke="#93db70" cx="296" cy="-279" rx="52.79" ry="18"/>
<text text-anchor="middle" x="296" y="-275.3" font-family="Times,serif" font-size="14.00">मातरम्(5.1)</text>
</g>
<!-- Node1_1&#45;&gt;Node5_1 -->
<g id="edge1" class="edge">
<title>Node1_1&#45;&gt;Node5_1</title>
<path fill="none" stroke="black" d="M302.11,-220.27C300.7,-233.58 299.05,-249.19 297.82,-260.82"/>
<polygon fill="black" stroke="black" points="305.61,-220.51 303.18,-210.2 298.65,-219.78 305.61,-220.51"/>
<text text-anchor="middle" x="323.5" y="-231.8" font-family="Times,serif" font-size="14.00">विशेषणम्</text>
</g>
<!-- Node10_1 -->
<g id="node10" class="node">
<title>Node10_1</title>
<ellipse fill="#ff1975" stroke="#ff1975" cx="458" cy="-366" rx="62.29" ry="18"/>
<text text-anchor="middle" x="458" y="-362.3" font-family="Times,serif" font-size="14.00">अपश्यत्(10.1)</text>
</g>
<!-- Node5_1&#45;&gt;Node10_1 -->
<g id="edge5" class="edge">
<title>Node5_1&#45;&gt;Node10_1</title>
<path fill="none" stroke="black" d="M332.56,-299.18C361.83,-314.54 402.32,-335.78 429.29,-349.94"/>
<polygon fill="black" stroke="black" points="333.96,-295.97 323.48,-294.42 330.71,-302.16 333.96,-295.97"/>
<text text-anchor="middle" x="395" y="-318.8" font-family="Times,serif" font-size="14.00">कर्म</text>
</g>
<!-- Node2_1 -->
<g id="node3" class="node">
<title>Node2_1</title>
<ellipse fill="#93db70" stroke="#93db70" cx="182" cy="-192" rx="60.39" ry="18"/>
<text text-anchor="middle" x="182" y="-188.3" font-family="Times,serif" font-size="14.00">दुःखिताम्(2.1)</text>
</g>
<!-- Node2_1&#45;&gt;Node5_1 -->
<g id="edge2" class="edge">
<title>Node2_1&#45;&gt;Node5_1</title>
<path fill="none" stroke="black" d="M211.57,-215.05C231.47,-229.89 257.23,-249.1 275.04,-262.37"/>
<polygon fill="black" stroke="black" points="213.55,-212.16 203.44,-208.99 209.37,-217.77 213.55,-212.16"/>
<text text-anchor="middle" x="267.5" y="-231.8" font-family="Times,serif" font-size="14.00">विशेषणम्</text>
</g>
<!-- Node3_1 -->
<g id="node4" class="node">
<title>Node3_1</title>
<ellipse fill="#93db70" stroke="#93db70" cx="60" cy="-192" rx="43.59" ry="18"/>
<text text-anchor="middle" x="60" y="-188.3" font-family="Times,serif" font-size="14.00">देवीं(3.1)</text>
</g>
<!-- Node3_1&#45;&gt;Node5_1 -->
<g id="edge3" class="edge">
<title>Node3_1&#45;&gt;Node5_1</title>
<path fill="none" stroke="black" d="M98.55,-209.48C122.87,-219.64 155.05,-232.66 184,-243 208.08,-251.6 235.46,-260.18 257.13,-266.69"/>
<polygon fill="black" stroke="black" points="99.88,-206.24 89.31,-205.59 97.17,-212.69 99.88,-206.24"/>
<text text-anchor="middle" x="206.5" y="-231.8" font-family="Times,serif" font-size="14.00">विशेषणम्</text>
</g>
<!-- Node6_3 -->
<g id="node5" class="node">
<title>Node6_3</title>
<ellipse fill="#00bfff" stroke="#00bfff" cx="691" cy="-192" rx="50.09" ry="18"/>
<text text-anchor="middle" x="691" y="-188.3" font-family="Times,serif" font-size="14.00">दर्शनः(6.3)</text>
</g>
<!-- Node9_1 -->
<g id="node6" class="node">
<title>Node9_1</title>
<ellipse fill="#00bfff" stroke="#00bfff" cx="621" cy="-279" rx="50.89" ry="18"/>
<text text-anchor="middle" x="621" y="-275.3" font-family="Times,serif" font-size="14.00">व्यासः(9.1)</text>
</g>
<!-- Node6_3&#45;&gt;Node9_1 -->
<g id="edge8" class="edge">
<title>Node6_3&#45;&gt;Node9_1</title>
<path fill="none" stroke="black" d="M671.02,-217.26C659.4,-231.37 645.04,-248.81 634.69,-261.37"/>
<polygon fill="black" stroke="black" points="673.85,-219.33 677.5,-209.39 668.44,-214.88 673.85,-219.33"/>
<text text-anchor="middle" x="682.5" y="-231.8" font-family="Times,serif" font-size="14.00">विशेषणम्</text>
</g>
<!-- Node9_1&#45;&gt;Node10_1 -->
<g id="edge12" class="edge">
<title>Node9_1&#45;&gt;Node10_1</title>
<path fill="none" stroke="black" d="M584.57,-299C555.04,-314.4 513.99,-335.8 486.74,-350.01"/>
<polygon fill="black" stroke="black" points="586.47,-301.95 593.72,-294.23 583.23,-295.75 586.47,-301.95"/>
<text text-anchor="middle" x="560" y="-318.8" font-family="Times,serif" font-size="14.00">कर्ता</text>
</g>
<!-- Node7_2 -->
<g id="node7" class="node">
<title>Node7_2</title>
<ellipse fill="#00bfff" stroke="#00bfff" cx="798" cy="-192" rx="38.99" ry="18"/>
<text text-anchor="middle" x="798" y="-188.3" font-family="Times,serif" font-size="14.00">दः(7.2)</text>
</g>
<!-- Node7_2&#45;&gt;Node9_1 -->
<g id="edge10" class="edge">
<title>Node7_2&#45;&gt;Node9_1</title>
<path fill="none" stroke="black" d="M766.55,-212.02C749.76,-221.83 728.57,-233.66 709,-243 691.64,-251.28 671.76,-259.31 655.3,-265.58"/>
<polygon fill="black" stroke="black" points="768.56,-214.9 775.39,-206.81 765,-208.87 768.56,-214.9"/>
<text text-anchor="middle" x="758.5" y="-231.8" font-family="Times,serif" font-size="14.00">विशेषणम्</text>
</g>
<!-- Node8_1 -->
<g id="node8" class="node">
<title>Node8_1</title>
<ellipse fill="#00bfff" stroke="#00bfff" cx="574" cy="-192" rx="49.29" ry="18"/>
<text text-anchor="middle" x="574" y="-188.3" font-family="Times,serif" font-size="14.00">ऋषिः(8.1)</text>
</g>
<!-- Node8_1&#45;&gt;Node9_1 -->
<g id="edge11" class="edge">
<title>Node8_1&#45;&gt;Node9_1</title>
<path fill="none" stroke="black" d="M588.27,-218.8C595.88,-232.58 605.04,-249.14 611.73,-261.24"/>
<polygon fill="black" stroke="black" points="591.19,-216.85 583.29,-209.79 585.06,-220.24 591.19,-216.85"/>
<text text-anchor="middle" x="622.5" y="-231.8" font-family="Times,serif" font-size="14.00">विशेषणम्</text>
</g>
<!-- Node4_1 -->
<g id="node9" class="node">
<title>Node4_1</title>
<ellipse fill="#87ceeb" stroke="#87ceeb" cx="437" cy="-192" rx="69.59" ry="18"/>
<text text-anchor="middle" x="437" y="-188.3" font-family="Times,serif" font-size="14.00">सव्यसाचिनः(4.1)</text>
</g>
<!-- Node4_1&#45;&gt;Node5_1 -->
<g id="edge4" class="edge">
<title>Node4_1&#45;&gt;Node5_1</title>
<path fill="none" stroke="black" d="M401.96,-214.12C376.84,-229.27 343.6,-249.3 321.1,-262.87"/>
<polygon fill="black" stroke="black" points="404.05,-216.95 410.81,-208.79 400.44,-210.95 404.05,-216.95"/>
<text text-anchor="middle" x="401.5" y="-231.8" font-family="Times,serif" font-size="14.00">षष्ठीसम्बन्धः</text>
</g>
<!-- Node6_1 -->
<g id="node11" class="node">
<title>Node6_1</title>
<ellipse fill="#ffff00" stroke="#ffff00" cx="688" cy="-18" rx="42.79" ry="18"/>
<text text-anchor="middle" x="688" y="-14.3" font-family="Times,serif" font-size="14.00">दूर&#45;(6.1)</text>
</g>
<!-- Node6_2 -->
<g id="node12" class="node">
<title>Node6_2</title>
<ellipse fill="#ffff00" stroke="#ffff00" cx="688" cy="-105" rx="51.99" ry="18"/>
<text text-anchor="middle" x="688" y="-101.3" font-family="Times,serif" font-size="14.00">श्रवण&#45;(6.2)</text>
</g>
<!-- Node6_1&#45;&gt;Node6_2 -->
<g id="edge6" class="edge">
<title>Node6_1&#45;&gt;Node6_2</title>
<path fill="none" stroke="black" d="M688,-46.27C688,-59.58 688,-75.19 688,-86.82"/>
<polygon fill="black" stroke="black" points="691.5,-46.2 688,-36.2 684.5,-46.2 691.5,-46.2"/>
<text text-anchor="middle" x="705" y="-57.8" font-family="Times,serif" font-size="14.00">समासः</text>
</g>
<!-- Node6_2&#45;&gt;Node6_3 -->
<g id="edge7" class="edge">
<title>Node6_2&#45;&gt;Node6_3</title>
<path fill="none" stroke="black" d="M688.96,-133.27C689.43,-146.58 689.98,-162.19 690.39,-173.82"/>
<polygon fill="black" stroke="black" points="692.46,-133.07 688.61,-123.2 685.46,-133.32 692.46,-133.07"/>
<text text-anchor="middle" x="706" y="-144.8" font-family="Times,serif" font-size="14.00">समासः</text>
</g>
<!-- Node7_1 -->
<g id="node13" class="node">
<title>Node7_1</title>
<ellipse fill="#ffff00" stroke="#ffff00" cx="801" cy="-105" rx="42.79" ry="18"/>
<text text-anchor="middle" x="801" y="-101.3" font-family="Times,serif" font-size="14.00">वर&#45;(7.1)</text>
</g>
<!-- Node7_1&#45;&gt;Node7_2 -->
<g id="edge9" class="edge">
<title>Node7_1&#45;&gt;Node7_2</title>
<path fill="none" stroke="black" d="M800.04,-133.27C799.57,-146.58 799.02,-162.19 798.61,-173.82"/>
<polygon fill="black" stroke="black" points="803.54,-133.32 800.39,-123.2 796.54,-133.07 803.54,-133.32"/>
<text text-anchor="middle" x="816" y="-144.8" font-family="Times,serif" font-size="14.00">समासः</text>
</g>
</g>
</svg>
