<?xml version="1.0" encoding="UTF-8" standalone="no"?>
<!DOCTYPE svg PUBLIC "-//W3C//DTD SVG 1.1//EN"
 "http://www.w3.org/Graphics/SVG/1.1/DTD/svg11.dtd">
<!-- Generated by graphviz version 2.43.0 (0)
 -->
<!-- Title: G Pages: 1 -->
<svg width="991pt" height="305pt"
 viewBox="0.00 0.00 990.90 305.00" xmlns="http://www.w3.org/2000/svg" xmlns:xlink="http://www.w3.org/1999/xlink">
<g id="graph0" class="graph" transform="scale(1 1) rotate(0) translate(4 301)">
<title>G</title>
<polygon fill="#fffacd" stroke="transparent" points="-4,4 -4,-301 986.9,-301 986.9,4 -4,4"/>
<g id="clust1" class="cluster">
<title>cluster_1</title>
<polygon fill="#fffacd" stroke="black" points="8,-79 8,-218 148,-218 148,-79 8,-79"/>
</g>
<!-- Node6_1 -->
<g id="node1" class="node">
<title>Node6_1</title>
<ellipse fill="#00bfff" stroke="#00bfff" cx="78" cy="-105" rx="50.89" ry="18"/>
<text text-anchor="middle" x="78" y="-101.3" font-family="Times,serif" font-size="14.00">कार्यम्(6.1)</text>
</g>
<!-- Node8_1 -->
<g id="node2" class="node">
<title>Node8_1</title>
<ellipse fill="#00bfff" stroke="#00bfff" cx="78" cy="-192" rx="61.99" ry="18"/>
<text text-anchor="middle" x="78" y="-188.3" font-family="Times,serif" font-size="14.00">विवक्षितम्(8.1)</text>
</g>
<!-- Node6_1&#45;&gt;Node8_1 -->
<g id="edge6" class="edge">
<title>Node6_1&#45;&gt;Node8_1</title>
<path fill="none" stroke="black" d="M78,-133.27C78,-146.58 78,-162.19 78,-173.82"/>
<polygon fill="black" stroke="black" points="81.5,-133.2 78,-123.2 74.5,-133.2 81.5,-133.2"/>
<text text-anchor="middle" x="100.5" y="-144.8" font-family="Times,serif" font-size="14.00">विशेषणम्</text>
</g>
<!-- Node1_1 -->
<g id="node3" class="node">
<title>Node1_1</title>
<ellipse fill="#ff99ff" stroke="#ff99ff" cx="202" cy="-192" rx="44.39" ry="18"/>
<text text-anchor="middle" x="202" y="-188.3" font-family="Times,serif" font-size="14.00">ततः(1.1)</text>
</g>
<!-- Node4_1 -->
<g id="node4" class="node">
<title>Node4_1</title>
<ellipse fill="#ff1975" stroke="#ff1975" cx="369" cy="-279" rx="48.99" ry="18"/>
<text text-anchor="middle" x="369" y="-275.3" font-family="Times,serif" font-size="14.00">उवाच(4.1)</text>
</g>
<!-- Node1_1&#45;&gt;Node4_1 -->
<g id="edge1" class="edge">
<title>Node1_1&#45;&gt;Node4_1</title>
<path fill="none" stroke="black" d="M225.56,-215.76C236.31,-225.2 249.61,-235.64 263,-243 283.63,-254.35 308.56,-262.81 329.05,-268.56"/>
<polygon fill="black" stroke="black" points="227.64,-212.92 217.88,-208.8 222.94,-218.11 227.64,-212.92"/>
<text text-anchor="middle" x="298.5" y="-231.8" font-family="Times,serif" font-size="14.00">कालाधिकरणम्</text>
</g>
<!-- Node2_1 -->
<g id="node5" class="node">
<title>Node2_1</title>
<ellipse fill="#00bfff" stroke="#00bfff" cx="315" cy="-192" rx="50.89" ry="18"/>
<text text-anchor="middle" x="315" y="-188.3" font-family="Times,serif" font-size="14.00">व्यासः(2.1)</text>
</g>
<!-- Node2_1&#45;&gt;Node4_1 -->
<g id="edge2" class="edge">
<title>Node2_1&#45;&gt;Node4_1</title>
<path fill="none" stroke="black" d="M331.14,-218.4C339.94,-232.26 350.59,-249.03 358.35,-261.24"/>
<polygon fill="black" stroke="black" points="333.99,-216.36 325.67,-209.79 328.08,-220.11 333.99,-216.36"/>
<text text-anchor="middle" x="356" y="-231.8" font-family="Times,serif" font-size="14.00">कर्ता</text>
</g>
<!-- Node3_1 -->
<g id="node6" class="node">
<title>Node3_1</title>
<ellipse fill="#93db70" stroke="#93db70" cx="423" cy="-192" rx="39.79" ry="18"/>
<text text-anchor="middle" x="423" y="-188.3" font-family="Times,serif" font-size="14.00">तां(3.1)</text>
</g>
<!-- Node3_1&#45;&gt;Node4_1 -->
<g id="edge3" class="edge">
<title>Node3_1&#45;&gt;Node4_1</title>
<path fill="none" stroke="black" d="M407.08,-218.05C398.21,-232.02 387.4,-249.04 379.56,-261.37"/>
<polygon fill="black" stroke="black" points="410.18,-219.71 412.59,-209.39 404.27,-215.95 410.18,-219.71"/>
<text text-anchor="middle" x="408" y="-231.8" font-family="Times,serif" font-size="14.00">कर्म</text>
</g>
<!-- Node5_1 -->
<g id="node7" class="node">
<title>Node5_1</title>
<ellipse fill="#ff99ff" stroke="#ff99ff" cx="198" cy="-105" rx="42.49" ry="18"/>
<text text-anchor="middle" x="198" y="-101.3" font-family="Times,serif" font-size="14.00">यत्(5.1)</text>
</g>
<!-- Node5_1&#45;&gt;Node8_1 -->
<g id="edge5" class="edge">
<title>Node5_1&#45;&gt;Node8_1</title>
<path fill="none" stroke="black" stroke-dasharray="1,5" d="M168.81,-126.68C147.7,-141.63 119.61,-161.53 100.29,-175.21"/>
<polygon fill="black" stroke="black" points="170.96,-129.44 177.1,-120.81 166.91,-123.73 170.96,-129.44"/>
<text text-anchor="middle" x="164.5" y="-144.8" font-family="Times,serif" font-size="14.00">सम्बन्धः</text>
</g>
<!-- Node14_1 -->
<g id="node8" class="node">
<title>Node14_1</title>
<ellipse fill="#93db70" stroke="#93db70" cx="805" cy="-105" rx="48.19" ry="18"/>
<text text-anchor="middle" x="805" y="-101.3" font-family="Times,serif" font-size="14.00">तत्(14.1)</text>
</g>
<!-- Node5_1&#45;&gt;Node14_1 -->
<g id="edge4" class="edge">
<title>Node5_1&#45;&gt;Node14_1</title>
<path fill="none" stroke="red" stroke-dasharray="5,2" d="M232.12,-85.99C237.65,-83.38 243.4,-80.94 249,-79 285.82,-66.25 296.22,-65.8 335,-62 427.53,-52.94 623.36,-72.69 672,-79 699.27,-82.54 729.37,-88.27 754.03,-93.45"/>
<polygon fill="red" stroke="red" points="230.48,-82.9 223.08,-90.48 233.59,-89.17 230.48,-82.9"/>
<polygon fill="red" stroke="red" points="753.38,-96.89 763.89,-95.55 754.84,-90.04 753.38,-96.89"/>
<text text-anchor="middle" x="373" y="-57.8" font-family="Times,serif" font-size="14.00">नित्य_सम्बन्धः1</text>
</g>
<!-- Node15_1 -->
<g id="node15" class="node">
<title>Node15_1</title>
<ellipse fill="#ff1975" stroke="#ff1975" cx="530" cy="-192" rx="49.29" ry="18"/>
<text text-anchor="middle" x="530" y="-188.3" font-family="Times,serif" font-size="14.00">ब्रूहि(15.1)</text>
</g>
<!-- Node14_1&#45;&gt;Node15_1 -->
<g id="edge13" class="edge">
<title>Node14_1&#45;&gt;Node15_1</title>
<path fill="none" stroke="black" d="M782.72,-129.08C771.94,-138.9 758.26,-149.56 744,-156 691,-179.95 624.02,-187.74 579.25,-190.15"/>
<polygon fill="black" stroke="black" points="785.18,-131.57 790.03,-122.15 780.36,-126.5 785.18,-131.57"/>
<text text-anchor="middle" x="776" y="-144.8" font-family="Times,serif" font-size="14.00">कर्म</text>
</g>
<!-- Node7_1 -->
<g id="node9" class="node">
<title>Node7_1</title>
<ellipse fill="#00bfff" stroke="#00bfff" cx="295" cy="-105" rx="37.09" ry="18"/>
<text text-anchor="middle" x="295" y="-101.3" font-family="Times,serif" font-size="14.00">ते(7.1)</text>
</g>
<!-- Node7_1&#45;&gt;Node8_1 -->
<g id="edge7" class="edge">
<title>Node7_1&#45;&gt;Node8_1</title>
<path fill="none" stroke="black" d="M260.91,-123.09C239.88,-133.31 212.2,-146.16 187,-156 165.25,-164.49 140.5,-172.56 120.09,-178.81"/>
<polygon fill="black" stroke="black" points="262.62,-126.15 270.07,-118.61 259.55,-119.86 262.62,-126.15"/>
<text text-anchor="middle" x="238.5" y="-144.8" font-family="Times,serif" font-size="14.00">सम्बन्धः</text>
</g>
<!-- Node9_1 -->
<g id="node10" class="node">
<title>Node9_1</title>
<ellipse fill="#00bfff" stroke="#00bfff" cx="621" cy="-105" rx="42.49" ry="18"/>
<text text-anchor="middle" x="621" y="-101.3" font-family="Times,serif" font-size="14.00">यत्(9.1)</text>
</g>
<!-- Node9_1&#45;&gt;Node14_1 -->
<g id="edge8" class="edge">
<title>Node9_1&#45;&gt;Node14_1</title>
<path fill="none" stroke="red" stroke-dasharray="5,2" d="M673.78,-105C696.54,-105 723.24,-105 746.59,-105"/>
<polygon fill="red" stroke="red" points="673.68,-101.5 663.68,-105 673.68,-108.5 673.68,-101.5"/>
<polygon fill="red" stroke="red" points="746.72,-108.5 756.72,-105 746.72,-101.5 746.72,-108.5"/>
<text text-anchor="middle" x="710.08" y="-90.8" font-family="Times,serif" font-size="14.00">नित्य_सम्बन्धः1</text>
</g>
<!-- Node12_1 -->
<g id="node11" class="node">
<title>Node12_1</title>
<ellipse fill="#ff1975" stroke="#ff1975" cx="769" cy="-192" rx="51.99" ry="18"/>
<text text-anchor="middle" x="769" y="-188.3" font-family="Times,serif" font-size="14.00">वर्तते(12.1)</text>
</g>
<!-- Node9_1&#45;&gt;Node12_1 -->
<g id="edge9" class="edge">
<title>Node9_1&#45;&gt;Node12_1</title>
<path fill="none" stroke="black" stroke-dasharray="1,5" d="M653.82,-124.85C680.84,-140.37 718.6,-162.05 743.41,-176.3"/>
<polygon fill="black" stroke="black" points="655.52,-121.79 645.11,-119.85 652.04,-127.86 655.52,-121.79"/>
<text text-anchor="middle" x="721.5" y="-144.8" font-family="Times,serif" font-size="14.00">सम्बन्धः</text>
</g>
<!-- Node10_1 -->
<g id="node12" class="node">
<title>Node10_1</title>
<ellipse fill="#87ceeb" stroke="#87ceeb" cx="927" cy="-18" rx="42.79" ry="18"/>
<text text-anchor="middle" x="927" y="-14.3" font-family="Times,serif" font-size="14.00">ते(10.1)</text>
</g>
<!-- Node11_1 -->
<g id="node13" class="node">
<title>Node11_1</title>
<ellipse fill="#c6e2eb" stroke="#c6e2eb" cx="927" cy="-105" rx="55.79" ry="18"/>
<text text-anchor="middle" x="927" y="-101.3" font-family="Times,serif" font-size="14.00">मनसि(11.1)</text>
</g>
<!-- Node10_1&#45;&gt;Node11_1 -->
<g id="edge10" class="edge">
<title>Node10_1&#45;&gt;Node11_1</title>
<path fill="none" stroke="black" d="M927,-46.27C927,-59.58 927,-75.19 927,-86.82"/>
<polygon fill="black" stroke="black" points="930.5,-46.2 927,-36.2 923.5,-46.2 930.5,-46.2"/>
<text text-anchor="middle" x="954.5" y="-57.8" font-family="Times,serif" font-size="14.00">षष्ठीसम्बन्धः</text>
</g>
<!-- Node11_1&#45;&gt;Node12_1 -->
<g id="edge11" class="edge">
<title>Node11_1&#45;&gt;Node12_1</title>
<path fill="none" stroke="black" d="M890.52,-125.63C861.65,-141.16 821.99,-162.49 795.94,-176.51"/>
<polygon fill="black" stroke="black" points="892.33,-128.63 899.48,-120.81 889.01,-122.46 892.33,-128.63"/>
<text text-anchor="middle" x="889" y="-144.8" font-family="Times,serif" font-size="14.00">देशाधिकरणम्</text>
</g>
<!-- Node13_1 -->
<g id="node14" class="node">
<title>Node13_1</title>
<ellipse fill="#00bfff" stroke="#00bfff" cx="396" cy="-105" rx="45.49" ry="18"/>
<text text-anchor="middle" x="396" y="-101.3" font-family="Times,serif" font-size="14.00">त्वं(13.1)</text>
</g>
<!-- Node13_1&#45;&gt;Node15_1 -->
<g id="edge12" class="edge">
<title>Node13_1&#45;&gt;Node15_1</title>
<path fill="none" stroke="black" d="M427.5,-125.98C451.65,-141.3 484.44,-162.1 506.37,-176.01"/>
<polygon fill="black" stroke="black" points="429.35,-123.01 419.04,-120.61 425.61,-128.92 429.35,-123.01"/>
<text text-anchor="middle" x="482" y="-144.8" font-family="Times,serif" font-size="14.00">कर्ता</text>
</g>
<!-- Node15_1&#45;&gt;Node4_1 -->
<g id="edge14" class="edge">
<title>Node15_1&#45;&gt;Node4_1</title>
<path fill="none" stroke="black" d="M493.84,-212.09C464.09,-227.8 422.6,-249.7 395.77,-263.87"/>
<polygon fill="black" stroke="black" points="495.84,-214.99 503.05,-207.23 492.57,-208.8 495.84,-214.99"/>
<text text-anchor="middle" x="480.5" y="-231.8" font-family="Times,serif" font-size="14.00">वाक्यकर्म</text>
</g>
<!-- Node16_1 -->
<g id="node16" class="node">
<title>Node16_1</title>
<ellipse fill="#ffff00" stroke="#ffff00" cx="510" cy="-18" rx="52.79" ry="18"/>
<text text-anchor="middle" x="510" y="-14.3" font-family="Times,serif" font-size="14.00">महा&#45;(16.1)</text>
</g>
<!-- Node16_2 -->
<g id="node17" class="node">
<title>Node16_2</title>
<ellipse fill="#6fffc3" stroke="#6fffc3" cx="510" cy="-105" rx="50.89" ry="18"/>
<text text-anchor="middle" x="510" y="-101.3" font-family="Times,serif" font-size="14.00">प्राज्ञे(16.2)</text>
</g>
<!-- Node16_1&#45;&gt;Node16_2 -->
<g id="edge15" class="edge">
<title>Node16_1&#45;&gt;Node16_2</title>
<path fill="none" stroke="black" d="M510,-46.27C510,-59.58 510,-75.19 510,-86.82"/>
<polygon fill="black" stroke="black" points="513.5,-46.2 510,-36.2 506.5,-46.2 513.5,-46.2"/>
<text text-anchor="middle" x="527" y="-57.8" font-family="Times,serif" font-size="14.00">समासः</text>
</g>
<!-- Node16_2&#45;&gt;Node15_1 -->
<g id="edge16" class="edge">
<title>Node16_2&#45;&gt;Node15_1</title>
<path fill="none" stroke="black" d="M516.42,-133.27C519.55,-146.58 523.22,-162.19 525.96,-173.82"/>
<polygon fill="black" stroke="black" points="519.74,-132.13 514.05,-123.2 512.93,-133.74 519.74,-132.13"/>
<text text-anchor="middle" x="542" y="-144.8" font-family="Times,serif" font-size="14.00">सम्बोध्यः</text>
</g>
</g>
</svg>
