<?xml version="1.0" encoding="UTF-8" standalone="no"?>
<!DOCTYPE svg PUBLIC "-//W3C//DTD SVG 1.1//EN"
 "http://www.w3.org/Graphics/SVG/1.1/DTD/svg11.dtd">
<!-- Generated by graphviz version 2.43.0 (0)
 -->
<!-- Title: G Pages: 1 -->
<svg width="744pt" height="392pt"
 viewBox="0.00 0.00 744.00 392.00" xmlns="http://www.w3.org/2000/svg" xmlns:xlink="http://www.w3.org/1999/xlink">
<g id="graph0" class="graph" transform="scale(1 1) rotate(0) translate(4 388)">
<title>G</title>
<polygon fill="#fffacd" stroke="transparent" points="-4,4 -4,-388 740,-388 740,4 -4,4"/>
<g id="clust1" class="cluster">
<title>cluster_1</title>
<polygon fill="#fffacd" stroke="black" points="495,-166 495,-305 728,-305 728,-166 495,-166"/>
</g>
<g id="clust2" class="cluster">
<title>cluster_2</title>
<polygon fill="#fffacd" stroke="black" points="8,-166 8,-305 124,-305 124,-166 8,-166"/>
</g>
<g id="clust3" class="cluster">
<title>cluster_3</title>
<polygon fill="#fffacd" stroke="black" points="132,-166 132,-305 272,-305 272,-166 132,-166"/>
</g>
<!-- Node1_3 -->
<g id="node1" class="node">
<title>Node1_3</title>
<ellipse fill="#00bfff" stroke="#00bfff" cx="563" cy="-192" rx="59.59" ry="18"/>
<text text-anchor="middle" x="563" y="-188.3" font-family="Times,serif" font-size="14.00">समाविष्टः(1.3)</text>
</g>
<!-- Node2_1 -->
<g id="node2" class="node">
<title>Node2_1</title>
<ellipse fill="#00bfff" stroke="#00bfff" cx="563" cy="-279" rx="44.39" ry="18"/>
<text text-anchor="middle" x="563" y="-275.3" font-family="Times,serif" font-size="14.00">एषः(2.1)</text>
</g>
<!-- Node1_3&#45;&gt;Node2_1 -->
<g id="edge3" class="edge">
<title>Node1_3&#45;&gt;Node2_1</title>
<path fill="none" stroke="black" d="M563,-220.27C563,-233.58 563,-249.19 563,-260.82"/>
<polygon fill="black" stroke="black" points="566.5,-220.2 563,-210.2 559.5,-220.2 566.5,-220.2"/>
<text text-anchor="middle" x="585.5" y="-231.8" font-family="Times,serif" font-size="14.00">विशेषणम्</text>
</g>
<!-- Node8_1 -->
<g id="node10" class="node">
<title>Node8_1</title>
<ellipse fill="#ff1975" stroke="#ff1975" cx="338" cy="-366" rx="42.79" ry="18"/>
<text text-anchor="middle" x="338" y="-362.3" font-family="Times,serif" font-size="14.00">शेते(8.1)</text>
</g>
<!-- Node2_1&#45;&gt;Node8_1 -->
<g id="edge4" class="edge">
<title>Node2_1&#45;&gt;Node8_1</title>
<path fill="none" stroke="black" d="M534.34,-300.77C519.36,-310.82 500.36,-322.33 482,-330 448.05,-344.18 407.1,-353.44 377.56,-358.85"/>
<polygon fill="black" stroke="black" points="536.39,-303.61 542.66,-295.07 532.44,-297.84 536.39,-303.61"/>
<text text-anchor="middle" x="521" y="-318.8" font-family="Times,serif" font-size="14.00">कर्ता</text>
</g>
<!-- Node3_2 -->
<g id="node3" class="node">
<title>Node3_2</title>
<ellipse fill="#00bfff" stroke="#00bfff" cx="680" cy="-192" rx="39.79" ry="18"/>
<text text-anchor="middle" x="680" y="-188.3" font-family="Times,serif" font-size="14.00">पः(3.2)</text>
</g>
<!-- Node3_2&#45;&gt;Node2_1 -->
<g id="edge6" class="edge">
<title>Node3_2&#45;&gt;Node2_1</title>
<path fill="none" stroke="black" d="M652.05,-213.69C639.79,-222.73 625.21,-233.43 612,-243 602.86,-249.63 592.71,-256.89 584.03,-263.08"/>
<polygon fill="black" stroke="black" points="654.15,-216.49 660.12,-207.73 649.99,-210.85 654.15,-216.49"/>
<text text-anchor="middle" x="652.5" y="-231.8" font-family="Times,serif" font-size="14.00">विशेषणम्</text>
</g>
<!-- Node5_1 -->
<g id="node4" class="node">
<title>Node5_1</title>
<ellipse fill="#93db70" stroke="#93db70" cx="66" cy="-192" rx="47.39" ry="18"/>
<text text-anchor="middle" x="66" y="-188.3" font-family="Times,serif" font-size="14.00">सर्वाः(5.1)</text>
</g>
<!-- Node6_1 -->
<g id="node5" class="node">
<title>Node6_1</title>
<ellipse fill="#93db70" stroke="#93db70" cx="66" cy="-279" rx="50.09" ry="18"/>
<text text-anchor="middle" x="66" y="-275.3" font-family="Times,serif" font-size="14.00">वसती(6.1)</text>
</g>
<!-- Node5_1&#45;&gt;Node6_1 -->
<g id="edge8" class="edge">
<title>Node5_1&#45;&gt;Node6_1</title>
<path fill="none" stroke="black" d="M66,-220.27C66,-233.58 66,-249.19 66,-260.82"/>
<polygon fill="black" stroke="black" points="69.5,-220.2 66,-210.2 62.5,-220.2 69.5,-220.2"/>
<text text-anchor="middle" x="88.5" y="-231.8" font-family="Times,serif" font-size="14.00">विशेषणम्</text>
</g>
<!-- Node6_1&#45;&gt;Node8_1 -->
<g id="edge9" class="edge">
<title>Node6_1&#45;&gt;Node8_1</title>
<path fill="none" stroke="black" d="M106.48,-297.03C113.6,-299.82 120.98,-302.59 128,-305 188.25,-325.69 259.86,-345.06 301.97,-355.94"/>
<polygon fill="black" stroke="black" points="107.57,-293.7 96.98,-293.24 104.97,-300.2 107.57,-293.7"/>
<text text-anchor="middle" x="212" y="-318.8" font-family="Times,serif" font-size="14.00">कर्म</text>
</g>
<!-- Node9_1 -->
<g id="node6" class="node">
<title>Node9_1</title>
<ellipse fill="#6fffc3" stroke="#6fffc3" cx="202" cy="-192" rx="53.89" ry="18"/>
<text text-anchor="middle" x="202" y="-188.3" font-family="Times,serif" font-size="14.00">महामुने(9.1)</text>
</g>
<!-- Node10_1 -->
<g id="node7" class="node">
<title>Node10_1</title>
<ellipse fill="#6fffc3" stroke="#6fffc3" cx="202" cy="-279" rx="61.99" ry="18"/>
<text text-anchor="middle" x="202" y="-275.3" font-family="Times,serif" font-size="14.00">धृतराष्ट्र(10.1)</text>
</g>
<!-- Node9_1&#45;&gt;Node10_1 -->
<g id="edge11" class="edge">
<title>Node9_1&#45;&gt;Node10_1</title>
<path fill="none" stroke="black" d="M202,-220.27C202,-233.58 202,-249.19 202,-260.82"/>
<polygon fill="black" stroke="black" points="205.5,-220.2 202,-210.2 198.5,-220.2 205.5,-220.2"/>
<text text-anchor="middle" x="224.5" y="-231.8" font-family="Times,serif" font-size="14.00">विशेषणम्</text>
</g>
<!-- Node10_1&#45;&gt;Node8_1 -->
<g id="edge12" class="edge">
<title>Node10_1&#45;&gt;Node8_1</title>
<path fill="none" stroke="black" d="M235.64,-301.03C260.35,-316.47 293.27,-337.04 315.03,-350.64"/>
<polygon fill="black" stroke="black" points="237.28,-297.92 226.94,-295.59 233.57,-303.86 237.28,-297.92"/>
<text text-anchor="middle" x="300" y="-318.8" font-family="Times,serif" font-size="14.00">सम्बोध्यः</text>
</g>
<!-- Node1_1 -->
<g id="node8" class="node">
<title>Node1_1</title>
<ellipse fill="#ffff00" stroke="#ffff00" cx="563" cy="-18" rx="45.49" ry="18"/>
<text text-anchor="middle" x="563" y="-14.3" font-family="Times,serif" font-size="14.00">पुत्र&#45;(1.1)</text>
</g>
<!-- Node1_2 -->
<g id="node9" class="node">
<title>Node1_2</title>
<ellipse fill="#ffff00" stroke="#ffff00" cx="563" cy="-105" rx="50.09" ry="18"/>
<text text-anchor="middle" x="563" y="-101.3" font-family="Times,serif" font-size="14.00">शोक&#45;(1.2)</text>
</g>
<!-- Node1_1&#45;&gt;Node1_2 -->
<g id="edge1" class="edge">
<title>Node1_1&#45;&gt;Node1_2</title>
<path fill="none" stroke="black" d="M563,-46.27C563,-59.58 563,-75.19 563,-86.82"/>
<polygon fill="black" stroke="black" points="566.5,-46.2 563,-36.2 559.5,-46.2 566.5,-46.2"/>
<text text-anchor="middle" x="580" y="-57.8" font-family="Times,serif" font-size="14.00">समासः</text>
</g>
<!-- Node1_2&#45;&gt;Node1_3 -->
<g id="edge2" class="edge">
<title>Node1_2&#45;&gt;Node1_3</title>
<path fill="none" stroke="black" d="M563,-133.27C563,-146.58 563,-162.19 563,-173.82"/>
<polygon fill="black" stroke="black" points="566.5,-133.2 563,-123.2 559.5,-133.2 566.5,-133.2"/>
<text text-anchor="middle" x="580" y="-144.8" font-family="Times,serif" font-size="14.00">समासः</text>
</g>
<!-- Node3_1 -->
<g id="node11" class="node">
<title>Node3_1</title>
<ellipse fill="#ffff00" stroke="#ffff00" cx="680" cy="-105" rx="48.19" ry="18"/>
<text text-anchor="middle" x="680" y="-101.3" font-family="Times,serif" font-size="14.00">भूमि&#45;(3.1)</text>
</g>
<!-- Node3_1&#45;&gt;Node3_2 -->
<g id="edge5" class="edge">
<title>Node3_1&#45;&gt;Node3_2</title>
<path fill="none" stroke="black" d="M680,-133.27C680,-146.58 680,-162.19 680,-173.82"/>
<polygon fill="black" stroke="black" points="683.5,-133.2 680,-123.2 676.5,-133.2 683.5,-133.2"/>
<text text-anchor="middle" x="697" y="-144.8" font-family="Times,serif" font-size="14.00">समासः</text>
</g>
<!-- Node4_1 -->
<g id="node12" class="node">
<title>Node4_1</title>
<ellipse fill="#00bfff" stroke="#00bfff" cx="338" cy="-279" rx="56.59" ry="18"/>
<text text-anchor="middle" x="338" y="-275.3" font-family="Times,serif" font-size="14.00">निश्वसन्(4.1)</text>
</g>
<!-- Node4_1&#45;&gt;Node8_1 -->
<g id="edge7" class="edge">
<title>Node4_1&#45;&gt;Node8_1</title>
<path fill="none" stroke="black" d="M338,-307.27C338,-320.58 338,-336.19 338,-347.82"/>
<polygon fill="black" stroke="black" points="341.5,-307.2 338,-297.2 334.5,-307.2 341.5,-307.2"/>
<text text-anchor="middle" x="382" y="-318.8" font-family="Times,serif" font-size="14.00">वर्तमानसमानकालः</text>
</g>
<!-- Node7_1 -->
<g id="node13" class="node">
<title>Node7_1</title>
<ellipse fill="#ff99ff" stroke="#ff99ff" cx="450" cy="-279" rx="37.09" ry="18"/>
<text text-anchor="middle" x="450" y="-275.3" font-family="Times,serif" font-size="14.00">न(7.1)</text>
</g>
<!-- Node7_1&#45;&gt;Node8_1 -->
<g id="edge10" class="edge">
<title>Node7_1&#45;&gt;Node8_1</title>
<path fill="none" stroke="black" d="M442.7,-306.72C439.35,-315.04 434.6,-323.68 428,-330 413.71,-343.68 393.47,-352.19 375.81,-357.38"/>
<polygon fill="black" stroke="black" points="446.01,-307.85 446.03,-297.26 439.41,-305.53 446.01,-307.85"/>
<text text-anchor="middle" x="458.5" y="-318.8" font-family="Times,serif" font-size="14.00">प्रतिषेधः</text>
</g>
</g>
</svg>
