<?xml version="1.0" encoding="UTF-8" standalone="no"?>
<!DOCTYPE svg PUBLIC "-//W3C//DTD SVG 1.1//EN"
 "http://www.w3.org/Graphics/SVG/1.1/DTD/svg11.dtd">
<!-- Generated by graphviz version 2.43.0 (0)
 -->
<!-- Title: G Pages: 1 -->
<svg width="922pt" height="408pt"
 viewBox="0.00 0.00 921.84 408.00" xmlns="http://www.w3.org/2000/svg" xmlns:xlink="http://www.w3.org/1999/xlink">
<g id="graph0" class="graph" transform="scale(1 1) rotate(0) translate(4 404)">
<title>G</title>
<polygon fill="#fffacd" stroke="transparent" points="-4,4 -4,-404 917.84,-404 917.84,4 -4,4"/>
<g id="clust1" class="cluster">
<title>cluster_1</title>
<polygon fill="#fffacd" stroke="black" points="125.84,-95 125.84,-234 505.84,-234 505.84,-95 125.84,-95"/>
</g>
<g id="clust2" class="cluster">
<title>cluster_2</title>
<polygon fill="#fffacd" stroke="black" points="718.84,-8 718.84,-147 905.84,-147 905.84,-8 718.84,-8"/>
</g>
<!-- Node1_1 -->
<g id="node1" class="node">
<title>Node1_1</title>
<ellipse fill="#87ceeb" stroke="#87ceeb" cx="443.84" cy="-121" rx="53.89" ry="18"/>
<text text-anchor="middle" x="443.84" y="-117.3" font-family="Times,serif" font-size="14.00">कुन्त्याः(1.1)</text>
</g>
<!-- Node9_2 -->
<g id="node2" class="node">
<title>Node9_2</title>
<ellipse fill="#87ceeb" stroke="#87ceeb" cx="377.84" cy="-208" rx="59.29" ry="18"/>
<text text-anchor="middle" x="377.84" y="-204.3" font-family="Times,serif" font-size="14.00">नारीणाम्(9.2)</text>
</g>
<!-- Node1_1&#45;&gt;Node9_2 -->
<g id="edge1" class="edge">
<title>Node1_1&#45;&gt;Node9_2</title>
<path fill="none" stroke="black" d="M424.43,-147.01C413.61,-160.94 400.43,-177.91 390.86,-190.24"/>
<polygon fill="black" stroke="black" points="427.44,-148.84 430.81,-138.79 421.91,-144.55 427.44,-148.84"/>
<text text-anchor="middle" x="436.34" y="-160.8" font-family="Times,serif" font-size="14.00">समुच्चितः</text>
</g>
<!-- Node11_1 -->
<g id="node12" class="node">
<title>Node11_1</title>
<ellipse fill="#00bfff" stroke="#00bfff" cx="377.84" cy="-295" rx="56.59" ry="18"/>
<text text-anchor="middle" x="377.84" y="-291.3" font-family="Times,serif" font-size="14.00">दुःखम्(11.1)</text>
</g>
<!-- Node9_2&#45;&gt;Node11_1 -->
<g id="edge11" class="edge">
<title>Node9_2&#45;&gt;Node11_1</title>
<path fill="none" stroke="black" d="M377.84,-236.27C377.84,-249.58 377.84,-265.19 377.84,-276.82"/>
<polygon fill="black" stroke="black" points="381.34,-236.2 377.84,-226.2 374.34,-236.2 381.34,-236.2"/>
<text text-anchor="middle" x="405.34" y="-247.8" font-family="Times,serif" font-size="14.00">षष्ठीसम्बन्धः</text>
</g>
<!-- Node2_2 -->
<g id="node3" class="node">
<title>Node2_2</title>
<ellipse fill="#87ceeb" stroke="#87ceeb" cx="183.84" cy="-121" rx="50.09" ry="18"/>
<text text-anchor="middle" x="183.84" y="-117.3" font-family="Times,serif" font-size="14.00">पुत्र्याः(2.2)</text>
</g>
<!-- Node2_2&#45;&gt;Node9_2 -->
<g id="edge3" class="edge">
<title>Node2_2&#45;&gt;Node9_2</title>
<path fill="none" stroke="black" d="M222.06,-140.23C242.64,-149.9 268.51,-161.86 291.84,-172 308.55,-179.26 327.26,-186.93 342.96,-193.24"/>
<polygon fill="black" stroke="black" points="223.55,-137.06 213.01,-135.96 220.56,-143.39 223.55,-137.06"/>
<text text-anchor="middle" x="314.34" y="-160.8" font-family="Times,serif" font-size="14.00">समुच्चितः</text>
</g>
<!-- Node3_1 -->
<g id="node4" class="node">
<title>Node3_1</title>
<ellipse fill="#87ceeb" stroke="#87ceeb" cx="311.84" cy="-121" rx="60.39" ry="18"/>
<text text-anchor="middle" x="311.84" y="-117.3" font-family="Times,serif" font-size="14.00">सुभद्रायाः(3.1)</text>
</g>
<!-- Node3_1&#45;&gt;Node9_2 -->
<g id="edge4" class="edge">
<title>Node3_1&#45;&gt;Node9_2</title>
<path fill="none" stroke="black" d="M331.26,-147.01C342.08,-160.94 355.26,-177.91 364.83,-190.24"/>
<polygon fill="black" stroke="black" points="333.78,-144.55 324.88,-138.79 328.25,-148.84 333.78,-144.55"/>
<text text-anchor="middle" x="370.34" y="-160.8" font-family="Times,serif" font-size="14.00">समुच्चितः</text>
</g>
<!-- Node7_1 -->
<g id="node5" class="node">
<title>Node7_1</title>
<ellipse fill="#87ceeb" stroke="#87ceeb" cx="780.84" cy="-34" rx="52.79" ry="18"/>
<text text-anchor="middle" x="780.84" y="-30.3" font-family="Times,serif" font-size="14.00">तासाम्(7.1)</text>
</g>
<!-- Node8_1 -->
<g id="node6" class="node">
<title>Node8_1</title>
<ellipse fill="#87ceeb" stroke="#87ceeb" cx="780.84" cy="-121" rx="53.89" ry="18"/>
<text text-anchor="middle" x="780.84" y="-117.3" font-family="Times,serif" font-size="14.00">वधूनाम्(8.1)</text>
</g>
<!-- Node7_1&#45;&gt;Node8_1 -->
<g id="edge8" class="edge">
<title>Node7_1&#45;&gt;Node8_1</title>
<path fill="none" stroke="black" d="M780.84,-62.27C780.84,-75.58 780.84,-91.19 780.84,-102.82"/>
<polygon fill="black" stroke="black" points="784.34,-62.2 780.84,-52.2 777.34,-62.2 784.34,-62.2"/>
<text text-anchor="middle" x="803.34" y="-73.8" font-family="Times,serif" font-size="14.00">विशेषणम्</text>
</g>
<!-- Node8_1&#45;&gt;Node8_1 -->
<g id="edge9" class="edge">
<title>Node8_1&#45;&gt;Node8_1</title>
<path fill="none" stroke="black" d="M839.81,-114.05C847.61,-115.23 852.79,-117.55 852.79,-121 852.79,-125.8 842.77,-128.4 829.6,-128.82"/>
<polygon fill="black" stroke="black" points="839.86,-110.54 829.6,-113.18 839.27,-117.52 839.86,-110.54"/>
<text text-anchor="middle" x="875.29" y="-117.3" font-family="Times,serif" font-size="14.00">विशेषणम्</text>
</g>
<!-- Node2_1 -->
<g id="node7" class="node">
<title>Node2_1</title>
<ellipse fill="#ffff00" stroke="#ffff00" cx="190.84" cy="-34" rx="48.99" ry="18"/>
<text text-anchor="middle" x="190.84" y="-30.3" font-family="Times,serif" font-size="14.00">द्रुपद&#45;(2.1)</text>
</g>
<!-- Node2_1&#45;&gt;Node2_2 -->
<g id="edge2" class="edge">
<title>Node2_1&#45;&gt;Node2_2</title>
<path fill="none" stroke="black" d="M188.6,-62.27C187.5,-75.58 186.22,-91.19 185.26,-102.82"/>
<polygon fill="black" stroke="black" points="192.1,-62.45 189.43,-52.2 185.12,-61.88 192.1,-62.45"/>
<text text-anchor="middle" x="203.84" y="-73.8" font-family="Times,serif" font-size="14.00">समासः</text>
</g>
<!-- Node4_1 -->
<g id="node8" class="node">
<title>Node4_1</title>
<ellipse fill="#ff99ff" stroke="#ff99ff" cx="311.84" cy="-34" rx="46.59" ry="18"/>
<text text-anchor="middle" x="311.84" y="-30.3" font-family="Times,serif" font-size="14.00">तथैव(4.1)</text>
</g>
<!-- Node4_1&#45;&gt;Node3_1 -->
<g id="edge5" class="edge">
<title>Node4_1&#45;&gt;Node3_1</title>
<path fill="none" stroke="black" d="M311.84,-62.27C311.84,-75.58 311.84,-91.19 311.84,-102.82"/>
<polygon fill="black" stroke="black" points="315.34,-62.2 311.84,-52.2 308.34,-62.2 315.34,-62.2"/>
<text text-anchor="middle" x="349.84" y="-73.8" font-family="Times,serif" font-size="14.00">समुच्चय_द्योतकः</text>
</g>
<!-- Node5_1 -->
<g id="node9" class="node">
<title>Node5_1</title>
<ellipse fill="#ff99ff" stroke="#ff99ff" cx="86.84" cy="-34" rx="37.89" ry="18"/>
<text text-anchor="middle" x="86.84" y="-30.3" font-family="Times,serif" font-size="14.00">च(5.1)</text>
</g>
<!-- Node5_1&#45;&gt;Node2_2 -->
<g id="edge6" class="edge">
<title>Node5_1&#45;&gt;Node2_2</title>
<path fill="none" stroke="black" d="M93.32,-61.76C96.35,-69.99 100.69,-78.56 106.84,-85 110.34,-88.66 132.45,-98.55 152.08,-106.88"/>
<polygon fill="black" stroke="black" points="96.61,-60.54 90.25,-52.07 89.94,-62.66 96.61,-60.54"/>
<text text-anchor="middle" x="144.84" y="-73.8" font-family="Times,serif" font-size="14.00">समुच्चय_द्योतकः</text>
</g>
<!-- Node6_1 -->
<g id="node10" class="node">
<title>Node6_1</title>
<ellipse fill="#87ceeb" stroke="#87ceeb" cx="57.84" cy="-121" rx="57.69" ry="18"/>
<text text-anchor="middle" x="57.84" y="-117.3" font-family="Times,serif" font-size="14.00">कौरवस्य(6.1)</text>
</g>
<!-- Node6_1&#45;&gt;Node9_2 -->
<g id="edge7" class="edge">
<title>Node6_1&#45;&gt;Node9_2</title>
<path fill="none" stroke="black" d="M100.91,-139.25C107.88,-141.91 115.04,-144.58 121.84,-147 156.15,-159.18 164.59,-162.92 199.84,-172 242.39,-182.96 291.42,-192.37 327.24,-198.66"/>
<polygon fill="black" stroke="black" points="102.17,-135.98 91.58,-135.63 99.64,-142.5 102.17,-135.98"/>
<text text-anchor="middle" x="227.34" y="-160.8" font-family="Times,serif" font-size="14.00">षष्ठीसम्बन्धः</text>
</g>
<!-- Node9_1 -->
<g id="node11" class="node">
<title>Node9_1</title>
<ellipse fill="#ffff00" stroke="#ffff00" cx="559.84" cy="-121" rx="44.39" ry="18"/>
<text text-anchor="middle" x="559.84" y="-117.3" font-family="Times,serif" font-size="14.00">वन&#45;(9.1)</text>
</g>
<!-- Node9_1&#45;&gt;Node9_2 -->
<g id="edge10" class="edge">
<title>Node9_1&#45;&gt;Node9_2</title>
<path fill="none" stroke="black" d="M525.33,-140.7C506.96,-150.42 483.88,-162.27 462.84,-172 446.62,-179.5 428.33,-187.14 412.87,-193.36"/>
<polygon fill="black" stroke="black" points="527.02,-143.77 534.2,-135.98 523.73,-137.59 527.02,-143.77"/>
<text text-anchor="middle" x="508.84" y="-160.8" font-family="Times,serif" font-size="14.00">समासः</text>
</g>
<!-- Node12_1 -->
<g id="node14" class="node">
<title>Node12_1</title>
<ellipse fill="#ff1975" stroke="#ff1975" cx="377.84" cy="-382" rx="77.19" ry="18"/>
<text text-anchor="middle" x="377.84" y="-378.3" font-family="Times,serif" font-size="14.00">(अपागच्छत्)(12.1)</text>
</g>
<!-- Node11_1&#45;&gt;Node12_1 -->
<g id="edge13" class="edge">
<title>Node11_1&#45;&gt;Node12_1</title>
<path fill="none" stroke="black" d="M377.84,-323.27C377.84,-336.58 377.84,-352.19 377.84,-363.82"/>
<polygon fill="black" stroke="black" points="381.34,-323.2 377.84,-313.2 374.34,-323.2 381.34,-323.2"/>
<text text-anchor="middle" x="388.84" y="-334.8" font-family="Times,serif" font-size="14.00">कर्ता</text>
</g>
<!-- Node10_1 -->
<g id="node13" class="node">
<title>Node10_1</title>
<ellipse fill="#ff99ff" stroke="#ff99ff" cx="665.84" cy="-121" rx="43.59" ry="18"/>
<text text-anchor="middle" x="665.84" y="-117.3" font-family="Times,serif" font-size="14.00">च(10.1)</text>
</g>
<!-- Node10_1&#45;&gt;Node9_2 -->
<g id="edge12" class="edge">
<title>Node10_1&#45;&gt;Node9_2</title>
<path fill="none" stroke="black" d="M630.11,-139.73C624.4,-142.31 618.5,-144.83 612.84,-147 550.54,-170.93 475.3,-188.23 427.03,-197.93"/>
<polygon fill="black" stroke="black" points="631.9,-142.76 639.49,-135.37 628.95,-136.41 631.9,-142.76"/>
<text text-anchor="middle" x="618.84" y="-160.8" font-family="Times,serif" font-size="14.00">समुच्चय_द्योतकः</text>
</g>
</g>
</svg>
