<?xml version="1.0" encoding="UTF-8" standalone="no"?>
<!DOCTYPE svg PUBLIC "-//W3C//DTD SVG 1.1//EN"
 "http://www.w3.org/Graphics/SVG/1.1/DTD/svg11.dtd">
<!-- Generated by graphviz version 2.43.0 (0)
 -->
<!-- Title: G Pages: 1 -->
<svg width="1119pt" height="392pt"
 viewBox="0.00 0.00 1119.35 392.00" xmlns="http://www.w3.org/2000/svg" xmlns:xlink="http://www.w3.org/1999/xlink">
<g id="graph0" class="graph" transform="scale(1 1) rotate(0) translate(4 388)">
<title>G</title>
<polygon fill="#fffacd" stroke="transparent" points="-4,4 -4,-388 1115.35,-388 1115.35,4 -4,4"/>
<g id="clust1" class="cluster">
<title>cluster_1</title>
<polygon fill="#fffacd" stroke="black" points="212,-166 212,-305 467,-305 467,-166 212,-166"/>
</g>
<g id="clust2" class="cluster">
<title>cluster_2</title>
<polygon fill="#fffacd" stroke="black" points="8,-79 8,-131 226,-131 226,-79 8,-79"/>
</g>
<g id="clust3" class="cluster">
<title>cluster_3</title>
<polygon fill="#fffacd" stroke="black" points="879,-166 879,-305 1001,-305 1001,-166 879,-166"/>
</g>
<!-- Node1_1 -->
<g id="node1" class="node">
<title>Node1_1</title>
<ellipse fill="#00bfff" stroke="#00bfff" cx="649" cy="-192" rx="37.09" ry="18"/>
<text text-anchor="middle" x="649" y="-188.3" font-family="Times,serif" font-size="14.00">ये(1.1)</text>
</g>
<!-- Node9_2 -->
<g id="node2" class="node">
<title>Node9_2</title>
<ellipse fill="#00bfff" stroke="#00bfff" cx="403" cy="-279" rx="55.49" ry="18"/>
<text text-anchor="middle" x="403" y="-275.3" font-family="Times,serif" font-size="14.00">प्रभृतयः(9.2)</text>
</g>
<!-- Node1_1&#45;&gt;Node9_2 -->
<g id="edge1" class="edge">
<title>Node1_1&#45;&gt;Node9_2</title>
<path fill="none" stroke="black" d="M611.55,-207.59C584.79,-217.87 547.85,-231.75 515,-243 491.01,-251.22 463.86,-259.72 442.3,-266.29"/>
<polygon fill="black" stroke="black" points="612.85,-210.84 620.93,-203.98 610.34,-204.31 612.85,-210.84"/>
<text text-anchor="middle" x="578.5" y="-231.8" font-family="Times,serif" font-size="14.00">विशेषणम्</text>
</g>
<!-- Node11_1 -->
<g id="node9" class="node">
<title>Node11_1</title>
<ellipse fill="#87ceeb" stroke="#87ceeb" cx="821" cy="-192" rx="50.09" ry="18"/>
<text text-anchor="middle" x="821" y="-188.3" font-family="Times,serif" font-size="14.00">तेषां(11.1)</text>
</g>
<!-- Node1_1&#45;&gt;Node11_1 -->
<g id="edge2" class="edge">
<title>Node1_1&#45;&gt;Node11_1</title>
<path fill="none" stroke="red" stroke-dasharray="5,2" d="M696.55,-192C716.36,-192 739.6,-192 760.6,-192"/>
<polygon fill="red" stroke="red" points="696.32,-188.5 686.32,-192 696.32,-195.5 696.32,-188.5"/>
<polygon fill="red" stroke="red" points="760.7,-195.5 770.7,-192 760.7,-188.5 760.7,-195.5"/>
<text text-anchor="middle" x="728.5" y="-177.8" font-family="Times,serif" font-size="14.00">नित्य_सम्बन्धः</text>
</g>
<!-- Node10_1 -->
<g id="node16" class="node">
<title>Node10_1</title>
<ellipse fill="#ff1975" stroke="#ff1975" cx="403" cy="-366" rx="60.39" ry="18"/>
<text text-anchor="middle" x="403" y="-362.3" font-family="Times,serif" font-size="14.00">(सन्ति)(10.1)</text>
</g>
<!-- Node9_2&#45;&gt;Node10_1 -->
<g id="edge13" class="edge">
<title>Node9_2&#45;&gt;Node10_1</title>
<path fill="none" stroke="black" d="M403,-307.27C403,-320.58 403,-336.19 403,-347.82"/>
<polygon fill="black" stroke="black" points="406.5,-307.2 403,-297.2 399.5,-307.2 406.5,-307.2"/>
<text text-anchor="middle" x="414" y="-318.8" font-family="Times,serif" font-size="14.00">कर्ता</text>
</g>
<!-- Node6_1 -->
<g id="node3" class="node">
<title>Node6_1</title>
<ellipse fill="#00bfff" stroke="#00bfff" cx="273" cy="-192" rx="52.79" ry="18"/>
<text text-anchor="middle" x="273" y="-188.3" font-family="Times,serif" font-size="14.00">श्वशुराः(6.1)</text>
</g>
<!-- Node6_1&#45;&gt;Node9_2 -->
<g id="edge8" class="edge">
<title>Node6_1&#45;&gt;Node9_2</title>
<path fill="none" stroke="black" d="M304.68,-213.72C327.79,-228.82 358.59,-248.97 379.52,-262.65"/>
<polygon fill="black" stroke="black" points="306.53,-210.74 296.24,-208.2 302.7,-216.6 306.53,-210.74"/>
<text text-anchor="middle" x="368.5" y="-231.8" font-family="Times,serif" font-size="14.00">समुच्चितः</text>
</g>
<!-- Node8_2 -->
<g id="node4" class="node">
<title>Node8_2</title>
<ellipse fill="#00bfff" stroke="#00bfff" cx="401" cy="-192" rx="57.69" ry="18"/>
<text text-anchor="middle" x="401" y="-188.3" font-family="Times,serif" font-size="14.00">आत्मानः(8.2)</text>
</g>
<!-- Node8_2&#45;&gt;Node9_2 -->
<g id="edge11" class="edge">
<title>Node8_2&#45;&gt;Node9_2</title>
<path fill="none" stroke="black" d="M401.64,-220.27C401.95,-233.58 402.32,-249.19 402.6,-260.82"/>
<polygon fill="black" stroke="black" points="405.14,-220.12 401.4,-210.2 398.14,-220.28 405.14,-220.12"/>
<text text-anchor="middle" x="425.5" y="-231.8" font-family="Times,serif" font-size="14.00">विशेषणम्</text>
</g>
<!-- Node3_1 -->
<g id="node5" class="node">
<title>Node3_1</title>
<ellipse fill="#00bfff" stroke="#00bfff" cx="172" cy="-105" rx="46.29" ry="18"/>
<text text-anchor="middle" x="172" y="-101.3" font-family="Times,serif" font-size="14.00">शूराः(3.1)</text>
</g>
<!-- Node3_1&#45;&gt;Node6_1 -->
<g id="edge4" class="edge">
<title>Node3_1&#45;&gt;Node6_1</title>
<path fill="none" stroke="black" d="M195.12,-129.63C203.9,-138.23 214.16,-147.83 224,-156 232.2,-162.81 241.65,-169.75 250.04,-175.64"/>
<polygon fill="black" stroke="black" points="197.39,-126.95 187.83,-122.39 192.46,-131.92 197.39,-126.95"/>
<text text-anchor="middle" x="246.5" y="-144.8" font-family="Times,serif" font-size="14.00">विशेषणम्</text>
</g>
<!-- Node4_2 -->
<g id="node6" class="node">
<title>Node4_2</title>
<ellipse fill="#00bfff" stroke="#00bfff" cx="62" cy="-105" rx="46.29" ry="18"/>
<text text-anchor="middle" x="62" y="-101.3" font-family="Times,serif" font-size="14.00">रथाः(4.2)</text>
</g>
<!-- Node4_2&#45;&gt;Node6_1 -->
<g id="edge6" class="edge">
<title>Node4_2&#45;&gt;Node6_1</title>
<path fill="none" stroke="black" d="M95.78,-125.3C114.11,-135.28 137.39,-147.19 159,-156 182.77,-165.69 210.26,-174.2 232.29,-180.41"/>
<polygon fill="black" stroke="black" points="97.39,-122.19 86.95,-120.43 94.01,-128.32 97.39,-122.19"/>
<text text-anchor="middle" x="181.5" y="-144.8" font-family="Times,serif" font-size="14.00">विशेषणम्</text>
</g>
<!-- Node13_1 -->
<g id="node7" class="node">
<title>Node13_1</title>
<ellipse fill="#00bfff" stroke="#00bfff" cx="940" cy="-192" rx="46.59" ry="18"/>
<text text-anchor="middle" x="940" y="-188.3" font-family="Times,serif" font-size="14.00">का(13.1)</text>
</g>
<!-- Node14_1 -->
<g id="node8" class="node">
<title>Node14_1</title>
<ellipse fill="#00bfff" stroke="#00bfff" cx="940" cy="-279" rx="52.79" ry="18"/>
<text text-anchor="middle" x="940" y="-275.3" font-family="Times,serif" font-size="14.00">गतिः(14.1)</text>
</g>
<!-- Node13_1&#45;&gt;Node14_1 -->
<g id="edge16" class="edge">
<title>Node13_1&#45;&gt;Node14_1</title>
<path fill="none" stroke="black" d="M940,-220.27C940,-233.58 940,-249.19 940,-260.82"/>
<polygon fill="black" stroke="black" points="943.5,-220.2 940,-210.2 936.5,-220.2 943.5,-220.2"/>
<text text-anchor="middle" x="962.5" y="-231.8" font-family="Times,serif" font-size="14.00">विशेषणम्</text>
</g>
<!-- Node11_1&#45;&gt;Node14_1 -->
<g id="edge14" class="edge">
<title>Node11_1&#45;&gt;Node14_1</title>
<path fill="none" stroke="black" d="M850.79,-214.28C871.74,-229.24 899.3,-248.93 918.21,-262.43"/>
<polygon fill="black" stroke="black" points="852.72,-211.36 842.55,-208.39 848.65,-217.05 852.72,-211.36"/>
<text text-anchor="middle" x="905.5" y="-231.8" font-family="Times,serif" font-size="14.00">सम्बन्धः</text>
</g>
<!-- Node2_1 -->
<g id="node10" class="node">
<title>Node2_1</title>
<ellipse fill="#ff99ff" stroke="#ff99ff" cx="649" cy="-105" rx="37.89" ry="18"/>
<text text-anchor="middle" x="649" y="-101.3" font-family="Times,serif" font-size="14.00">च(2.1)</text>
</g>
<!-- Node2_1&#45;&gt;Node1_1 -->
<g id="edge3" class="edge">
<title>Node2_1&#45;&gt;Node1_1</title>
<path fill="none" stroke="black" d="M649,-133.27C649,-146.58 649,-162.19 649,-173.82"/>
<polygon fill="black" stroke="black" points="652.5,-133.2 649,-123.2 645.5,-133.2 652.5,-133.2"/>
<text text-anchor="middle" x="667.5" y="-144.8" font-family="Times,serif" font-size="14.00">सम्बन्धः</text>
</g>
<!-- Node4_1 -->
<g id="node11" class="node">
<title>Node4_1</title>
<ellipse fill="#ffff00" stroke="#ffff00" cx="62" cy="-18" rx="46.59" ry="18"/>
<text text-anchor="middle" x="62" y="-14.3" font-family="Times,serif" font-size="14.00">महा&#45;(4.1)</text>
</g>
<!-- Node4_1&#45;&gt;Node4_2 -->
<g id="edge5" class="edge">
<title>Node4_1&#45;&gt;Node4_2</title>
<path fill="none" stroke="black" d="M62,-46.27C62,-59.58 62,-75.19 62,-86.82"/>
<polygon fill="black" stroke="black" points="65.5,-46.2 62,-36.2 58.5,-46.2 65.5,-46.2"/>
<text text-anchor="middle" x="79" y="-57.8" font-family="Times,serif" font-size="14.00">समासः</text>
</g>
<!-- Node5_1 -->
<g id="node12" class="node">
<title>Node5_1</title>
<ellipse fill="#87ceeb" stroke="#87ceeb" cx="273" cy="-105" rx="37.09" ry="18"/>
<text text-anchor="middle" x="273" y="-101.3" font-family="Times,serif" font-size="14.00">मे(5.1)</text>
</g>
<!-- Node5_1&#45;&gt;Node6_1 -->
<g id="edge7" class="edge">
<title>Node5_1&#45;&gt;Node6_1</title>
<path fill="none" stroke="black" d="M273,-133.27C273,-146.58 273,-162.19 273,-173.82"/>
<polygon fill="black" stroke="black" points="276.5,-133.2 273,-123.2 269.5,-133.2 276.5,-133.2"/>
<text text-anchor="middle" x="300.5" y="-144.8" font-family="Times,serif" font-size="14.00">षष्ठीसम्बन्धः</text>
</g>
<!-- Node7_1 -->
<g id="node13" class="node">
<title>Node7_1</title>
<ellipse fill="#ff99ff" stroke="#ff99ff" cx="366" cy="-105" rx="37.89" ry="18"/>
<text text-anchor="middle" x="366" y="-101.3" font-family="Times,serif" font-size="14.00">च(7.1)</text>
</g>
<!-- Node7_1&#45;&gt;Node6_1 -->
<g id="edge9" class="edge">
<title>Node7_1&#45;&gt;Node6_1</title>
<path fill="none" stroke="black" d="M351.94,-131.2C346.43,-139.71 339.61,-148.85 332,-156 323.32,-164.16 312.42,-171.28 302.36,-176.94"/>
<polygon fill="black" stroke="black" points="354.92,-133.03 357.18,-122.68 348.96,-129.37 354.92,-133.03"/>
<text text-anchor="middle" x="384" y="-144.8" font-family="Times,serif" font-size="14.00">समुच्चय_द्योतकः</text>
</g>
<!-- Node8_1 -->
<g id="node14" class="node">
<title>Node8_1</title>
<ellipse fill="#ffff00" stroke="#ffff00" cx="471" cy="-105" rx="49.29" ry="18"/>
<text text-anchor="middle" x="471" y="-101.3" font-family="Times,serif" font-size="14.00">महत्&#45;(8.1)</text>
</g>
<!-- Node8_1&#45;&gt;Node8_2 -->
<g id="edge10" class="edge">
<title>Node8_1&#45;&gt;Node8_2</title>
<path fill="none" stroke="black" d="M460.39,-132.66C456.53,-140.62 451.69,-149.06 446,-156 440.1,-163.19 432.47,-169.82 425.17,-175.33"/>
<polygon fill="black" stroke="black" points="463.68,-133.88 464.61,-123.32 457.3,-130.99 463.68,-133.88"/>
<text text-anchor="middle" x="473" y="-144.8" font-family="Times,serif" font-size="14.00">समासः</text>
</g>
<!-- Node9_1 -->
<g id="node15" class="node">
<title>Node9_1</title>
<ellipse fill="#ffff00" stroke="#ffff00" cx="535" cy="-192" rx="58.49" ry="18"/>
<text text-anchor="middle" x="535" y="-188.3" font-family="Times,serif" font-size="14.00">सोमदत्त&#45;(9.1)</text>
</g>
<!-- Node9_1&#45;&gt;Node9_2 -->
<g id="edge12" class="edge">
<title>Node9_1&#45;&gt;Node9_2</title>
<path fill="none" stroke="black" d="M502.26,-214.09C478.94,-229.1 448.13,-248.94 427.06,-262.51"/>
<polygon fill="black" stroke="black" points="504.28,-216.95 510.79,-208.59 500.49,-211.06 504.28,-216.95"/>
<text text-anchor="middle" x="494" y="-231.8" font-family="Times,serif" font-size="14.00">समासः</text>
</g>
<!-- Node12_1 -->
<g id="node17" class="node">
<title>Node12_1</title>
<ellipse fill="#ff99ff" stroke="#ff99ff" cx="821" cy="-105" rx="42.79" ry="18"/>
<text text-anchor="middle" x="821" y="-101.3" font-family="Times,serif" font-size="14.00">नु(12.1)</text>
</g>
<!-- Node12_1&#45;&gt;Node11_1 -->
<g id="edge15" class="edge">
<title>Node12_1&#45;&gt;Node11_1</title>
<path fill="none" stroke="black" d="M821,-133.27C821,-146.58 821,-162.19 821,-173.82"/>
<polygon fill="black" stroke="black" points="824.5,-133.2 821,-123.2 817.5,-133.2 824.5,-133.2"/>
<text text-anchor="middle" x="839.5" y="-144.8" font-family="Times,serif" font-size="14.00">सम्बन्धः</text>
</g>
<!-- Node15_1 -->
<g id="node18" class="node">
<title>Node15_1</title>
<ellipse fill="#6fffc3" stroke="#6fffc3" cx="1060" cy="-192" rx="51.19" ry="18"/>
<text text-anchor="middle" x="1060" y="-188.3" font-family="Times,serif" font-size="14.00">प्रभो(15.1)</text>
</g>
<!-- Node15_1&#45;&gt;Node14_1 -->
<g id="edge17" class="edge">
<title>Node15_1&#45;&gt;Node14_1</title>
<path fill="none" stroke="black" d="M1029.96,-214.28C1008.83,-229.24 981.05,-248.93 961.97,-262.43"/>
<polygon fill="black" stroke="black" points="1032.13,-217.03 1038.27,-208.39 1028.09,-211.32 1032.13,-217.03"/>
<text text-anchor="middle" x="1028" y="-231.8" font-family="Times,serif" font-size="14.00">सम्बोध्यः</text>
</g>
</g>
</svg>
