<?xml version="1.0" encoding="UTF-8" standalone="no"?>
<!DOCTYPE svg PUBLIC "-//W3C//DTD SVG 1.1//EN"
 "http://www.w3.org/Graphics/SVG/1.1/DTD/svg11.dtd">
<!-- Generated by graphviz version 2.43.0 (0)
 -->
<!-- Title: G Pages: 1 -->
<svg width="868pt" height="392pt"
 viewBox="0.00 0.00 868.00 392.00" xmlns="http://www.w3.org/2000/svg" xmlns:xlink="http://www.w3.org/1999/xlink">
<g id="graph0" class="graph" transform="scale(1 1) rotate(0) translate(4 388)">
<title>G</title>
<polygon fill="#fffacd" stroke="transparent" points="-4,4 -4,-388 864,-388 864,4 -4,4"/>
<g id="clust1" class="cluster">
<title>cluster_1</title>
<polygon fill="#fffacd" stroke="black" points="708,-166 708,-305 848,-305 848,-166 708,-166"/>
</g>
<g id="clust2" class="cluster">
<title>cluster_2</title>
<polygon fill="#fffacd" stroke="black" points="8,-166 8,-305 228,-305 228,-166 8,-166"/>
</g>
<g id="clust3" class="cluster">
<title>cluster_3</title>
<polygon fill="#fffacd" stroke="black" points="236,-166 236,-305 576,-305 576,-166 236,-166"/>
</g>
<!-- Node2_1 -->
<g id="node1" class="node">
<title>Node2_1</title>
<ellipse fill="#c6e2eb" stroke="#c6e2eb" cx="778" cy="-192" rx="61.99" ry="18"/>
<text text-anchor="middle" x="778" y="-188.3" font-family="Times,serif" font-size="14.00">उक्तवत्यां(2.1)</text>
</g>
<!-- Node3_1 -->
<g id="node2" class="node">
<title>Node3_1</title>
<ellipse fill="#c6e2eb" stroke="#c6e2eb" cx="771" cy="-279" rx="54.69" ry="18"/>
<text text-anchor="middle" x="771" y="-275.3" font-family="Times,serif" font-size="14.00">गन्धार्यां(3.1)</text>
</g>
<!-- Node2_1&#45;&gt;Node3_1 -->
<g id="edge2" class="edge">
<title>Node2_1&#45;&gt;Node3_1</title>
<path fill="none" stroke="black" d="M775.75,-220.27C774.66,-233.58 773.37,-249.19 772.41,-260.82"/>
<polygon fill="black" stroke="black" points="779.25,-220.45 776.58,-210.2 772.27,-219.88 779.25,-220.45"/>
<text text-anchor="middle" x="796.5" y="-231.8" font-family="Times,serif" font-size="14.00">विशेषणम्</text>
</g>
<!-- Node12_1 -->
<g id="node11" class="node">
<title>Node12_1</title>
<ellipse fill="#ff1975" stroke="#ff1975" cx="393" cy="-366" rx="61.99" ry="18"/>
<text text-anchor="middle" x="393" y="-362.3" font-family="Times,serif" font-size="14.00">अस्मरत्(12.1)</text>
</g>
<!-- Node3_1&#45;&gt;Node12_1 -->
<g id="edge3" class="edge">
<title>Node3_1&#45;&gt;Node12_1</title>
<path fill="none" stroke="black" d="M717.22,-292.09C643.19,-308.74 511.04,-338.46 440.48,-354.32"/>
<polygon fill="black" stroke="black" points="718.28,-295.44 727.27,-289.83 716.75,-288.61 718.28,-295.44"/>
<text text-anchor="middle" x="675" y="-318.8" font-family="Times,serif" font-size="14.00">भावलक्षणसप्तमी_समानकालः</text>
</g>
<!-- Node5_3 -->
<g id="node3" class="node">
<title>Node5_3</title>
<ellipse fill="#00bfff" stroke="#00bfff" cx="167" cy="-192" rx="52.79" ry="18"/>
<text text-anchor="middle" x="167" y="-188.3" font-family="Times,serif" font-size="14.00">आनना(5.3)</text>
</g>
<!-- Node7_1 -->
<g id="node4" class="node">
<title>Node7_1</title>
<ellipse fill="#00bfff" stroke="#00bfff" cx="167" cy="-279" rx="48.19" ry="18"/>
<text text-anchor="middle" x="167" y="-275.3" font-family="Times,serif" font-size="14.00">कुन्ती(7.1)</text>
</g>
<!-- Node5_3&#45;&gt;Node7_1 -->
<g id="edge7" class="edge">
<title>Node5_3&#45;&gt;Node7_1</title>
<path fill="none" stroke="black" d="M167,-220.27C167,-233.58 167,-249.19 167,-260.82"/>
<polygon fill="black" stroke="black" points="170.5,-220.2 167,-210.2 163.5,-220.2 170.5,-220.2"/>
<text text-anchor="middle" x="189.5" y="-231.8" font-family="Times,serif" font-size="14.00">विशेषणम्</text>
</g>
<!-- Node7_1&#45;&gt;Node12_1 -->
<g id="edge9" class="edge">
<title>Node7_1&#45;&gt;Node12_1</title>
<path fill="none" stroke="black" d="M208.9,-296.19C216.58,-299.14 224.53,-302.17 232,-305 274.54,-321.11 323.53,-339.32 356.19,-351.41"/>
<polygon fill="black" stroke="black" points="209.97,-292.85 199.38,-292.53 207.45,-299.38 209.97,-292.85"/>
<text text-anchor="middle" x="310" y="-318.8" font-family="Times,serif" font-size="14.00">कर्ता</text>
</g>
<!-- Node6_1 -->
<g id="node5" class="node">
<title>Node6_1</title>
<ellipse fill="#00bfff" stroke="#00bfff" cx="56" cy="-192" rx="40.09" ry="18"/>
<text text-anchor="middle" x="56" y="-188.3" font-family="Times,serif" font-size="14.00">सा(6.1)</text>
</g>
<!-- Node6_1&#45;&gt;Node7_1 -->
<g id="edge8" class="edge">
<title>Node6_1&#45;&gt;Node7_1</title>
<path fill="none" stroke="black" d="M82.17,-214.66C93.12,-223.59 106.06,-233.94 118,-243 126.66,-249.58 136.37,-256.58 144.85,-262.59"/>
<polygon fill="black" stroke="black" points="84.18,-211.79 74.22,-208.16 79.75,-217.2 84.18,-211.79"/>
<text text-anchor="middle" x="140.5" y="-231.8" font-family="Times,serif" font-size="14.00">विशेषणम्</text>
</g>
<!-- Node8_2 -->
<g id="node6" class="node">
<title>Node8_2</title>
<ellipse fill="#93db70" stroke="#93db70" cx="393" cy="-192" rx="45.49" ry="18"/>
<text text-anchor="middle" x="393" y="-188.3" font-family="Times,serif" font-size="14.00">जातं(8.2)</text>
</g>
<!-- Node11_1 -->
<g id="node7" class="node">
<title>Node11_1</title>
<ellipse fill="#93db70" stroke="#93db70" cx="393" cy="-279" rx="53.09" ry="18"/>
<text text-anchor="middle" x="393" y="-275.3" font-family="Times,serif" font-size="14.00">पुत्रम्(11.1)</text>
</g>
<!-- Node8_2&#45;&gt;Node11_1 -->
<g id="edge11" class="edge">
<title>Node8_2&#45;&gt;Node11_1</title>
<path fill="none" stroke="black" d="M393,-220.27C393,-233.58 393,-249.19 393,-260.82"/>
<polygon fill="black" stroke="black" points="396.5,-220.2 393,-210.2 389.5,-220.2 396.5,-220.2"/>
<text text-anchor="middle" x="415.5" y="-231.8" font-family="Times,serif" font-size="14.00">विशेषणम्</text>
</g>
<!-- Node11_1&#45;&gt;Node12_1 -->
<g id="edge15" class="edge">
<title>Node11_1&#45;&gt;Node12_1</title>
<path fill="none" stroke="black" d="M393,-307.27C393,-320.58 393,-336.19 393,-347.82"/>
<polygon fill="black" stroke="black" points="396.5,-307.2 393,-297.2 389.5,-307.2 396.5,-307.2"/>
<text text-anchor="middle" x="402" y="-318.8" font-family="Times,serif" font-size="14.00">कर्म</text>
</g>
<!-- Node9_2 -->
<g id="node8" class="node">
<title>Node9_2</title>
<ellipse fill="#93db70" stroke="#93db70" cx="512" cy="-192" rx="55.79" ry="18"/>
<text text-anchor="middle" x="512" y="-188.3" font-family="Times,serif" font-size="14.00">सम्भवम्(9.2)</text>
</g>
<!-- Node9_2&#45;&gt;Node11_1 -->
<g id="edge13" class="edge">
<title>Node9_2&#45;&gt;Node11_1</title>
<path fill="none" stroke="black" d="M481.92,-214.48C460.97,-229.45 433.52,-249.06 414.69,-262.51"/>
<polygon fill="black" stroke="black" points="484.07,-217.25 490.17,-208.59 480,-211.55 484.07,-217.25"/>
<text text-anchor="middle" x="481.5" y="-231.8" font-family="Times,serif" font-size="14.00">विशेषणम्</text>
</g>
<!-- Node10_1 -->
<g id="node9" class="node">
<title>Node10_1</title>
<ellipse fill="#93db70" stroke="#93db70" cx="287" cy="-192" rx="42.79" ry="18"/>
<text text-anchor="middle" x="287" y="-188.3" font-family="Times,serif" font-size="14.00">तं(10.1)</text>
</g>
<!-- Node10_1&#45;&gt;Node11_1 -->
<g id="edge14" class="edge">
<title>Node10_1&#45;&gt;Node11_1</title>
<path fill="none" stroke="black" d="M311.59,-215.52C321.47,-224.32 333.09,-234.36 344,-243 352.36,-249.62 361.83,-256.52 370.21,-262.43"/>
<polygon fill="black" stroke="black" points="313.86,-212.86 304.08,-208.78 309.18,-218.06 313.86,-212.86"/>
<text text-anchor="middle" x="366.5" y="-231.8" font-family="Times,serif" font-size="14.00">विशेषणम्</text>
</g>
<!-- Node1_1 -->
<g id="node10" class="node">
<title>Node1_1</title>
<ellipse fill="#ff99ff" stroke="#ff99ff" cx="778" cy="-105" rx="44.39" ry="18"/>
<text text-anchor="middle" x="778" y="-101.3" font-family="Times,serif" font-size="14.00">इति(1.1)</text>
</g>
<!-- Node1_1&#45;&gt;Node2_1 -->
<g id="edge1" class="edge">
<title>Node1_1&#45;&gt;Node2_1</title>
<path fill="none" stroke="black" d="M778,-133.27C778,-146.58 778,-162.19 778,-173.82"/>
<polygon fill="black" stroke="black" points="781.5,-133.2 778,-123.2 774.5,-133.2 781.5,-133.2"/>
<text text-anchor="middle" x="819" y="-144.8" font-family="Times,serif" font-size="14.00">वाक्यकर्म_द्योतकः</text>
</g>
<!-- Node4_1 -->
<g id="node12" class="node">
<title>Node4_1</title>
<ellipse fill="#c6e2eb" stroke="#c6e2eb" cx="642" cy="-192" rx="55.79" ry="18"/>
<text text-anchor="middle" x="642" y="-188.3" font-family="Times,serif" font-size="14.00">(सत्यां)(4.1)</text>
</g>
<!-- Node4_1&#45;&gt;Node3_1 -->
<g id="edge4" class="edge">
<title>Node4_1&#45;&gt;Node3_1</title>
<path fill="none" stroke="black" d="M673.99,-214.08C696.74,-229.07 726.79,-248.87 747.38,-262.43"/>
<polygon fill="black" stroke="black" points="675.64,-210.97 665.36,-208.39 671.79,-216.82 675.64,-210.97"/>
<text text-anchor="middle" x="732.5" y="-231.8" font-family="Times,serif" font-size="14.00">सम्बन्धः</text>
</g>
<!-- Node5_1 -->
<g id="node13" class="node">
<title>Node5_1</title>
<ellipse fill="#ffff00" stroke="#ffff00" cx="167" cy="-18" rx="44.39" ry="18"/>
<text text-anchor="middle" x="167" y="-14.3" font-family="Times,serif" font-size="14.00">व्रत&#45;(5.1)</text>
</g>
<!-- Node5_2 -->
<g id="node14" class="node">
<title>Node5_2</title>
<ellipse fill="#ffff00" stroke="#ffff00" cx="167" cy="-105" rx="47.39" ry="18"/>
<text text-anchor="middle" x="167" y="-101.3" font-family="Times,serif" font-size="14.00">कृश&#45;(5.2)</text>
</g>
<!-- Node5_1&#45;&gt;Node5_2 -->
<g id="edge5" class="edge">
<title>Node5_1&#45;&gt;Node5_2</title>
<path fill="none" stroke="black" d="M167,-46.27C167,-59.58 167,-75.19 167,-86.82"/>
<polygon fill="black" stroke="black" points="170.5,-46.2 167,-36.2 163.5,-46.2 170.5,-46.2"/>
<text text-anchor="middle" x="184" y="-57.8" font-family="Times,serif" font-size="14.00">समासः</text>
</g>
<!-- Node5_2&#45;&gt;Node5_3 -->
<g id="edge6" class="edge">
<title>Node5_2&#45;&gt;Node5_3</title>
<path fill="none" stroke="black" d="M167,-133.27C167,-146.58 167,-162.19 167,-173.82"/>
<polygon fill="black" stroke="black" points="170.5,-133.2 167,-123.2 163.5,-133.2 170.5,-133.2"/>
<text text-anchor="middle" x="184" y="-144.8" font-family="Times,serif" font-size="14.00">समासः</text>
</g>
<!-- Node8_1 -->
<g id="node15" class="node">
<title>Node8_1</title>
<ellipse fill="#ffff00" stroke="#ffff00" cx="393" cy="-105" rx="56.59" ry="18"/>
<text text-anchor="middle" x="393" y="-101.3" font-family="Times,serif" font-size="14.00">प्रच्छन्न&#45;(8.1)</text>
</g>
<!-- Node8_1&#45;&gt;Node8_2 -->
<g id="edge10" class="edge">
<title>Node8_1&#45;&gt;Node8_2</title>
<path fill="none" stroke="black" d="M393,-133.27C393,-146.58 393,-162.19 393,-173.82"/>
<polygon fill="black" stroke="black" points="396.5,-133.2 393,-123.2 389.5,-133.2 396.5,-133.2"/>
<text text-anchor="middle" x="410" y="-144.8" font-family="Times,serif" font-size="14.00">समासः</text>
</g>
<!-- Node9_1 -->
<g id="node16" class="node">
<title>Node9_1</title>
<ellipse fill="#ffff00" stroke="#ffff00" cx="512" cy="-105" rx="41.69" ry="18"/>
<text text-anchor="middle" x="512" y="-101.3" font-family="Times,serif" font-size="14.00">अ&#45;(9.1)</text>
</g>
<!-- Node9_1&#45;&gt;Node9_2 -->
<g id="edge12" class="edge">
<title>Node9_1&#45;&gt;Node9_2</title>
<path fill="none" stroke="black" d="M512,-133.27C512,-146.58 512,-162.19 512,-173.82"/>
<polygon fill="black" stroke="black" points="515.5,-133.2 512,-123.2 508.5,-133.2 515.5,-133.2"/>
<text text-anchor="middle" x="529" y="-144.8" font-family="Times,serif" font-size="14.00">समासः</text>
</g>
</g>
</svg>
