<?xml version="1.0" encoding="UTF-8" standalone="no"?>
<!DOCTYPE svg PUBLIC "-//W3C//DTD SVG 1.1//EN"
 "http://www.w3.org/Graphics/SVG/1.1/DTD/svg11.dtd">
<!-- Generated by graphviz version 2.43.0 (0)
 -->
<!-- Title: G Pages: 1 -->
<svg width="678pt" height="479pt"
 viewBox="0.00 0.00 678.34 479.00" xmlns="http://www.w3.org/2000/svg" xmlns:xlink="http://www.w3.org/1999/xlink">
<g id="graph0" class="graph" transform="scale(1 1) rotate(0) translate(4 475)">
<title>G</title>
<polygon fill="#fffacd" stroke="transparent" points="-4,4 -4,-475 674.34,-475 674.34,4 -4,4"/>
<g id="clust1" class="cluster">
<title>cluster_1</title>
<polygon fill="#fffacd" stroke="black" points="204,-253 204,-392 560,-392 560,-253 204,-253"/>
</g>
<!-- Node4_1 -->
<g id="node1" class="node">
<title>Node4_1</title>
<ellipse fill="#00bfff" stroke="#00bfff" cx="260" cy="-279" rx="48.19" ry="18"/>
<text text-anchor="middle" x="260" y="-275.3" font-family="Times,serif" font-size="14.00">भार्या(4.1)</text>
</g>
<!-- Node1_1 -->
<g id="node2" class="node">
<title>Node1_1</title>
<ellipse fill="#00bfff" stroke="#00bfff" cx="260" cy="-366" rx="41.69" ry="18"/>
<text text-anchor="middle" x="260" y="-362.3" font-family="Times,serif" font-size="14.00">इयं(1.1)</text>
</g>
<!-- Node4_1&#45;&gt;Node1_1 -->
<g id="edge5" class="edge">
<title>Node4_1&#45;&gt;Node1_1</title>
<path fill="none" stroke="black" d="M260,-307.27C260,-320.58 260,-336.19 260,-347.82"/>
<polygon fill="black" stroke="black" points="263.5,-307.2 260,-297.2 256.5,-307.2 263.5,-307.2"/>
<text text-anchor="middle" x="282.5" y="-318.8" font-family="Times,serif" font-size="14.00">विशेषणम्</text>
</g>
<!-- Node9_1 -->
<g id="node5" class="node">
<title>Node9_1</title>
<ellipse fill="#ff1975" stroke="#ff1975" cx="159" cy="-453" rx="42.79" ry="18"/>
<text text-anchor="middle" x="159" y="-449.3" font-family="Times,serif" font-size="14.00">शेते(9.1)</text>
</g>
<!-- Node1_1&#45;&gt;Node9_1 -->
<g id="edge1" class="edge">
<title>Node1_1&#45;&gt;Node9_1</title>
<path fill="none" stroke="black" d="M234.64,-389.13C224.54,-397.87 212.77,-407.97 202,-417 194.17,-423.55 185.46,-430.68 177.93,-436.78"/>
<polygon fill="black" stroke="black" points="237.08,-391.65 242.34,-382.45 232.49,-386.36 237.08,-391.65"/>
<text text-anchor="middle" x="230" y="-405.8" font-family="Times,serif" font-size="14.00">कर्ता</text>
</g>
<!-- Node5_2 -->
<g id="node3" class="node">
<title>Node5_2</title>
<ellipse fill="#00bfff" stroke="#00bfff" cx="382" cy="-279" rx="55.79" ry="18"/>
<text text-anchor="middle" x="382" y="-275.3" font-family="Times,serif" font-size="14.00">दुःखिता(5.2)</text>
</g>
<!-- Node5_2&#45;&gt;Node1_1 -->
<g id="edge7" class="edge">
<title>Node5_2&#45;&gt;Node1_1</title>
<path fill="none" stroke="black" d="M351.29,-301.4C329.33,-316.69 300.37,-336.87 281.01,-350.36"/>
<polygon fill="black" stroke="black" points="353.41,-304.18 359.62,-295.59 349.41,-298.44 353.41,-304.18"/>
<text text-anchor="middle" x="350.5" y="-318.8" font-family="Times,serif" font-size="14.00">विशेषणम्</text>
</g>
<!-- Node6_4 -->
<g id="node4" class="node">
<title>Node6_4</title>
<ellipse fill="#00bfff" stroke="#00bfff" cx="504" cy="-279" rx="48.19" ry="18"/>
<text text-anchor="middle" x="504" y="-275.3" font-family="Times,serif" font-size="14.00">आर्ता(6.4)</text>
</g>
<!-- Node6_4&#45;&gt;Node1_1 -->
<g id="edge11" class="edge">
<title>Node6_4&#45;&gt;Node1_1</title>
<path fill="none" stroke="black" d="M463.77,-296.84C438.95,-306.98 406.35,-319.85 377,-330 349.34,-339.56 317.5,-348.98 294.03,-355.64"/>
<polygon fill="black" stroke="black" points="465.29,-300 473.21,-292.96 462.63,-293.53 465.29,-300"/>
<text text-anchor="middle" x="437.5" y="-318.8" font-family="Times,serif" font-size="14.00">विशेषणम्</text>
</g>
<!-- Node2_1 -->
<g id="node6" class="node">
<title>Node2_1</title>
<ellipse fill="#ff99ff" stroke="#ff99ff" cx="156" cy="-279" rx="37.89" ry="18"/>
<text text-anchor="middle" x="156" y="-275.3" font-family="Times,serif" font-size="14.00">च(2.1)</text>
</g>
<!-- Node2_1&#45;&gt;Node1_1 -->
<g id="edge2" class="edge">
<title>Node2_1&#45;&gt;Node1_1</title>
<path fill="none" stroke="black" d="M181.88,-301.16C200.37,-316.27 224.8,-336.24 241.39,-349.79"/>
<polygon fill="black" stroke="black" points="184.07,-298.42 174.11,-294.81 179.64,-303.84 184.07,-298.42"/>
<text text-anchor="middle" x="232.5" y="-318.8" font-family="Times,serif" font-size="14.00">सम्बन्धः</text>
</g>
<!-- Node3_1 -->
<g id="node7" class="node">
<title>Node3_1</title>
<ellipse fill="#ffff00" stroke="#ffff00" cx="260" cy="-105" rx="46.59" ry="18"/>
<text text-anchor="middle" x="260" y="-101.3" font-family="Times,serif" font-size="14.00">भूरि&#45;(3.1)</text>
</g>
<!-- Node3_2 -->
<g id="node8" class="node">
<title>Node3_2</title>
<ellipse fill="#87ceeb" stroke="#87ceeb" cx="260" cy="-192" rx="50.89" ry="18"/>
<text text-anchor="middle" x="260" y="-188.3" font-family="Times,serif" font-size="14.00">श्रवसः(3.2)</text>
</g>
<!-- Node3_1&#45;&gt;Node3_2 -->
<g id="edge3" class="edge">
<title>Node3_1&#45;&gt;Node3_2</title>
<path fill="none" stroke="black" d="M260,-133.27C260,-146.58 260,-162.19 260,-173.82"/>
<polygon fill="black" stroke="black" points="263.5,-133.2 260,-123.2 256.5,-133.2 263.5,-133.2"/>
<text text-anchor="middle" x="277" y="-144.8" font-family="Times,serif" font-size="14.00">समासः</text>
</g>
<!-- Node3_2&#45;&gt;Node4_1 -->
<g id="edge4" class="edge">
<title>Node3_2&#45;&gt;Node4_1</title>
<path fill="none" stroke="black" d="M260,-220.27C260,-233.58 260,-249.19 260,-260.82"/>
<polygon fill="black" stroke="black" points="263.5,-220.2 260,-210.2 256.5,-220.2 263.5,-220.2"/>
<text text-anchor="middle" x="287.5" y="-231.8" font-family="Times,serif" font-size="14.00">षष्ठीसम्बन्धः</text>
</g>
<!-- Node5_1 -->
<g id="node9" class="node">
<title>Node5_1</title>
<ellipse fill="#ffff00" stroke="#ffff00" cx="382" cy="-192" rx="48.19" ry="18"/>
<text text-anchor="middle" x="382" y="-188.3" font-family="Times,serif" font-size="14.00">परम&#45;(5.1)</text>
</g>
<!-- Node5_1&#45;&gt;Node5_2 -->
<g id="edge6" class="edge">
<title>Node5_1&#45;&gt;Node5_2</title>
<path fill="none" stroke="black" d="M382,-220.27C382,-233.58 382,-249.19 382,-260.82"/>
<polygon fill="black" stroke="black" points="385.5,-220.2 382,-210.2 378.5,-220.2 385.5,-220.2"/>
<text text-anchor="middle" x="399" y="-231.8" font-family="Times,serif" font-size="14.00">समासः</text>
</g>
<!-- Node6_1 -->
<g id="node10" class="node">
<title>Node6_1</title>
<ellipse fill="#ffff00" stroke="#ffff00" cx="504" cy="-18" rx="46.29" ry="18"/>
<text text-anchor="middle" x="504" y="-14.3" font-family="Times,serif" font-size="14.00">भर्तृ&#45;(6.1)</text>
</g>
<!-- Node6_2 -->
<g id="node11" class="node">
<title>Node6_2</title>
<ellipse fill="#ffff00" stroke="#ffff00" cx="504" cy="-105" rx="53.89" ry="18"/>
<text text-anchor="middle" x="504" y="-101.3" font-family="Times,serif" font-size="14.00">व्यसन&#45;(6.2)</text>
</g>
<!-- Node6_1&#45;&gt;Node6_2 -->
<g id="edge8" class="edge">
<title>Node6_1&#45;&gt;Node6_2</title>
<path fill="none" stroke="black" d="M504,-46.27C504,-59.58 504,-75.19 504,-86.82"/>
<polygon fill="black" stroke="black" points="507.5,-46.2 504,-36.2 500.5,-46.2 507.5,-46.2"/>
<text text-anchor="middle" x="521" y="-57.8" font-family="Times,serif" font-size="14.00">समासः</text>
</g>
<!-- Node6_3 -->
<g id="node12" class="node">
<title>Node6_3</title>
<ellipse fill="#ffff00" stroke="#ffff00" cx="504" cy="-192" rx="50.09" ry="18"/>
<text text-anchor="middle" x="504" y="-188.3" font-family="Times,serif" font-size="14.00">शोक&#45;(6.3)</text>
</g>
<!-- Node6_2&#45;&gt;Node6_3 -->
<g id="edge9" class="edge">
<title>Node6_2&#45;&gt;Node6_3</title>
<path fill="none" stroke="black" d="M504,-133.27C504,-146.58 504,-162.19 504,-173.82"/>
<polygon fill="black" stroke="black" points="507.5,-133.2 504,-123.2 500.5,-133.2 507.5,-133.2"/>
<text text-anchor="middle" x="521" y="-144.8" font-family="Times,serif" font-size="14.00">समासः</text>
</g>
<!-- Node6_3&#45;&gt;Node6_4 -->
<g id="edge10" class="edge">
<title>Node6_3&#45;&gt;Node6_4</title>
<path fill="none" stroke="black" d="M504,-220.27C504,-233.58 504,-249.19 504,-260.82"/>
<polygon fill="black" stroke="black" points="507.5,-220.2 504,-210.2 500.5,-220.2 507.5,-220.2"/>
<text text-anchor="middle" x="521" y="-231.8" font-family="Times,serif" font-size="14.00">समासः</text>
</g>
<!-- Node7_1 -->
<g id="node13" class="node">
<title>Node7_1</title>
<ellipse fill="#93db70" stroke="#93db70" cx="52" cy="-366" rx="51.99" ry="18"/>
<text text-anchor="middle" x="52" y="-362.3" font-family="Times,serif" font-size="14.00">वसतीः(7.1)</text>
</g>
<!-- Node7_1&#45;&gt;Node9_1 -->
<g id="edge12" class="edge">
<title>Node7_1&#45;&gt;Node9_1</title>
<path fill="none" stroke="black" d="M79.85,-389.13C98.75,-404.14 123.25,-423.6 139.95,-436.87"/>
<polygon fill="black" stroke="black" points="81.88,-386.27 71.87,-382.79 77.52,-391.75 81.88,-386.27"/>
<text text-anchor="middle" x="121" y="-405.8" font-family="Times,serif" font-size="14.00">कर्म</text>
</g>
<!-- Node8_1 -->
<g id="node14" class="node">
<title>Node8_1</title>
<ellipse fill="#ff99ff" stroke="#ff99ff" cx="159" cy="-366" rx="37.09" ry="18"/>
<text text-anchor="middle" x="159" y="-362.3" font-family="Times,serif" font-size="14.00">न(8.1)</text>
</g>
<!-- Node8_1&#45;&gt;Node9_1 -->
<g id="edge13" class="edge">
<title>Node8_1&#45;&gt;Node9_1</title>
<path fill="none" stroke="black" d="M159,-394.27C159,-407.58 159,-423.19 159,-434.82"/>
<polygon fill="black" stroke="black" points="162.5,-394.2 159,-384.2 155.5,-394.2 162.5,-394.2"/>
<text text-anchor="middle" x="178.5" y="-405.8" font-family="Times,serif" font-size="14.00">प्रतिषेधः</text>
</g>
<!-- Node10_1 -->
<g id="node15" class="node">
<title>Node10_1</title>
<ellipse fill="#6fffc3" stroke="#6fffc3" cx="619" cy="-18" rx="51.19" ry="18"/>
<text text-anchor="middle" x="619" y="-14.3" font-family="Times,serif" font-size="14.00">प्रभो(10.1)</text>
</g>
</g>
</svg>
