<?xml version="1.0" encoding="UTF-8" standalone="no"?>
<!DOCTYPE svg PUBLIC "-//W3C//DTD SVG 1.1//EN"
 "http://www.w3.org/Graphics/SVG/1.1/DTD/svg11.dtd">
<!-- Generated by graphviz version 2.43.0 (0)
 -->
<!-- Title: G Pages: 1 -->
<svg width="402pt" height="218pt"
 viewBox="0.00 0.00 401.99 218.00" xmlns="http://www.w3.org/2000/svg" xmlns:xlink="http://www.w3.org/1999/xlink">
<g id="graph0" class="graph" transform="scale(1 1) rotate(0) translate(4 214)">
<title>G</title>
<polygon fill="#fffacd" stroke="transparent" points="-4,4 -4,-214 397.99,-214 397.99,4 -4,4"/>
<!-- Node1_1 -->
<g id="node1" class="node">
<title>Node1_1</title>
<ellipse fill="#40e0d0" stroke="#40e0d0" cx="48.1" cy="-18" rx="48.19" ry="18"/>
<text text-anchor="middle" x="48.1" y="-14.3" font-family="Times,serif" font-size="14.00">एकेन(1.1)</text>
</g>
<!-- Node3_1 -->
<g id="node2" class="node">
<title>Node3_1</title>
<ellipse fill="#ff1975" stroke="#ff1975" cx="78.1" cy="-105" rx="49.29" ry="18"/>
<text text-anchor="middle" x="78.1" y="-101.3" font-family="Times,serif" font-size="14.00">तताप(3.1)</text>
</g>
<!-- Node1_1&#45;&gt;Node3_1 -->
<g id="edge1" class="edge">
<title>Node1_1&#45;&gt;Node3_1</title>
<path fill="none" stroke="black" d="M57.6,-45.94C62.37,-59.43 67.99,-75.36 72.14,-87.11"/>
<polygon fill="black" stroke="black" points="60.8,-44.47 54.17,-36.2 54.19,-46.8 60.8,-44.47"/>
<text text-anchor="middle" x="81.6" y="-57.8" font-family="Times,serif" font-size="14.00">करणम्</text>
</g>
<!-- Node2_1 -->
<g id="node3" class="node">
<title>Node2_1</title>
<ellipse fill="#93db70" stroke="#93db70" cx="168.1" cy="-18" rx="53.89" ry="18"/>
<text text-anchor="middle" x="168.1" y="-14.3" font-family="Times,serif" font-size="14.00">लोकान्(2.1)</text>
</g>
<!-- Node2_1&#45;&gt;Node3_1 -->
<g id="edge2" class="edge">
<title>Node2_1&#45;&gt;Node3_1</title>
<path fill="none" stroke="black" d="M143.15,-42.56C127.84,-57.02 108.65,-75.14 95.09,-87.95"/>
<polygon fill="black" stroke="black" points="145.88,-44.8 150.74,-35.39 141.07,-39.71 145.88,-44.8"/>
<text text-anchor="middle" x="138.1" y="-57.8" font-family="Times,serif" font-size="14.00">कर्म</text>
</g>
<!-- Node4_1 -->
<g id="node4" class="node">
<title>Node4_1</title>
<ellipse fill="#40e0d0" stroke="#40e0d0" cx="338.1" cy="-105" rx="55.79" ry="18"/>
<text text-anchor="middle" x="338.1" y="-101.3" font-family="Times,serif" font-size="14.00">द्वितीयेन(4.1)</text>
</g>
<!-- Node7_1 -->
<g id="node5" class="node">
<title>Node7_1</title>
<ellipse fill="#ff1975" stroke="#ff1975" cx="240.1" cy="-192" rx="55.49" ry="18"/>
<text text-anchor="middle" x="240.1" y="-188.3" font-family="Times,serif" font-size="14.00">आगमत्(7.1)</text>
</g>
<!-- Node4_1&#45;&gt;Node7_1 -->
<g id="edge3" class="edge">
<title>Node4_1&#45;&gt;Node7_1</title>
<path fill="none" stroke="black" d="M311.38,-129.17C294.65,-143.68 273.5,-162.03 258.6,-174.95"/>
<polygon fill="black" stroke="black" points="313.94,-131.59 319.2,-122.39 309.35,-126.3 313.94,-131.59"/>
<text text-anchor="middle" x="311.6" y="-144.8" font-family="Times,serif" font-size="14.00">करणम्</text>
</g>
<!-- Node5_1 -->
<g id="node6" class="node">
<title>Node5_1</title>
<ellipse fill="#ff99ff" stroke="#ff99ff" cx="338.1" cy="-18" rx="37.89" ry="18"/>
<text text-anchor="middle" x="338.1" y="-14.3" font-family="Times,serif" font-size="14.00">च(5.1)</text>
</g>
<!-- Node5_1&#45;&gt;Node4_1 -->
<g id="edge4" class="edge">
<title>Node5_1&#45;&gt;Node4_1</title>
<path fill="none" stroke="black" d="M338.1,-46.27C338.1,-59.58 338.1,-75.19 338.1,-86.82"/>
<polygon fill="black" stroke="black" points="341.6,-46.2 338.1,-36.2 334.6,-46.2 341.6,-46.2"/>
<text text-anchor="middle" x="356.6" y="-57.8" font-family="Times,serif" font-size="14.00">सम्बन्धः</text>
</g>
<!-- Node6_1 -->
<g id="node7" class="node">
<title>Node6_1</title>
<ellipse fill="#93db70" stroke="#93db70" cx="220.1" cy="-105" rx="44.39" ry="18"/>
<text text-anchor="middle" x="220.1" y="-101.3" font-family="Times,serif" font-size="14.00">माम्(6.1)</text>
</g>
<!-- Node6_1&#45;&gt;Node7_1 -->
<g id="edge5" class="edge">
<title>Node6_1&#45;&gt;Node7_1</title>
<path fill="none" stroke="black" d="M226.51,-133.27C229.64,-146.58 233.32,-162.19 236.05,-173.82"/>
<polygon fill="black" stroke="black" points="229.84,-132.13 224.14,-123.2 223.03,-133.74 229.84,-132.13"/>
<text text-anchor="middle" x="241.1" y="-144.8" font-family="Times,serif" font-size="14.00">कर्म</text>
</g>
</g>
</svg>
