<?xml version="1.0" encoding="UTF-8" standalone="no"?>
<!DOCTYPE svg PUBLIC "-//W3C//DTD SVG 1.1//EN"
 "http://www.w3.org/Graphics/SVG/1.1/DTD/svg11.dtd">
<!-- Generated by graphviz version 2.43.0 (0)
 -->
<!-- Title: G Pages: 1 -->
<svg width="687pt" height="479pt"
 viewBox="0.00 0.00 686.89 479.00" xmlns="http://www.w3.org/2000/svg" xmlns:xlink="http://www.w3.org/1999/xlink">
<g id="graph0" class="graph" transform="scale(1 1) rotate(0) translate(4 475)">
<title>G</title>
<polygon fill="#fffacd" stroke="transparent" points="-4,4 -4,-475 682.89,-475 682.89,4 -4,4"/>
<g id="clust1" class="cluster">
<title>cluster_1</title>
<polygon fill="#fffacd" stroke="black" points="96.2,-166 96.2,-305 206.2,-305 206.2,-166 96.2,-166"/>
</g>
<g id="clust2" class="cluster">
<title>cluster_2</title>
<polygon fill="#fffacd" stroke="black" points="214.2,-166 214.2,-305 324.2,-305 324.2,-166 214.2,-166"/>
</g>
<!-- Node3_2 -->
<g id="node1" class="node">
<title>Node3_2</title>
<ellipse fill="#00bfff" stroke="#00bfff" cx="151.2" cy="-192" rx="46.59" ry="18"/>
<text text-anchor="middle" x="151.2" y="-188.3" font-family="Times,serif" font-size="14.00">अंशुः(3.2)</text>
</g>
<!-- Node2_1 -->
<g id="node2" class="node">
<title>Node2_1</title>
<ellipse fill="#00bfff" stroke="#00bfff" cx="153.2" cy="-279" rx="43.59" ry="18"/>
<text text-anchor="middle" x="153.2" y="-275.3" font-family="Times,serif" font-size="14.00">देवः(2.1)</text>
</g>
<!-- Node3_2&#45;&gt;Node2_1 -->
<g id="edge5" class="edge">
<title>Node3_2&#45;&gt;Node2_1</title>
<path fill="none" stroke="black" d="M151.84,-220.27C152.15,-233.58 152.52,-249.19 152.79,-260.82"/>
<polygon fill="black" stroke="black" points="155.34,-220.12 151.6,-210.2 148.34,-220.28 155.34,-220.12"/>
<text text-anchor="middle" x="174.7" y="-231.8" font-family="Times,serif" font-size="14.00">विशेषणम्</text>
</g>
<!-- Node14_1 -->
<g id="node6" class="node">
<title>Node14_1</title>
<ellipse fill="#ff1975" stroke="#ff1975" cx="63.2" cy="-366" rx="59.59" ry="18"/>
<text text-anchor="middle" x="63.2" y="-362.3" font-family="Times,serif" font-size="14.00">अभवत्(14.1)</text>
</g>
<!-- Node2_1&#45;&gt;Node14_1 -->
<g id="edge2" class="edge">
<title>Node2_1&#45;&gt;Node14_1</title>
<path fill="none" stroke="black" d="M128.73,-303.11C113.52,-317.47 94.34,-335.59 80.66,-348.5"/>
<polygon fill="black" stroke="black" points="131.4,-305.4 136.27,-295.99 126.59,-300.31 131.4,-305.4"/>
<text text-anchor="middle" x="124.2" y="-318.8" font-family="Times,serif" font-size="14.00">कर्ता</text>
</g>
<!-- Node12_1 -->
<g id="node7" class="node">
<title>Node12_1</title>
<ellipse fill="#ff99ff" stroke="#ff99ff" cx="355.2" cy="-366" rx="53.89" ry="18"/>
<text text-anchor="middle" x="355.2" y="-362.3" font-family="Times,serif" font-size="14.00">कृत्वा(12.1)</text>
</g>
<!-- Node2_1&#45;&gt;Node12_1 -->
<g id="edge3" class="edge">
<title>Node2_1&#45;&gt;Node12_1</title>
<path fill="none" stroke="black" stroke-dasharray="1,5" d="M191.04,-296.68C197.43,-299.47 204,-302.33 210.2,-305 236.35,-316.28 242.9,-319.08 269.2,-330 286.61,-337.23 306.07,-345.17 322.07,-351.65"/>
<polygon fill="black" stroke="black" points="192.43,-293.47 181.87,-292.66 189.63,-299.88 192.43,-293.47"/>
<text text-anchor="middle" x="280.2" y="-318.8" font-family="Times,serif" font-size="14.00">कर्ता</text>
</g>
<!-- Node6_1 -->
<g id="node3" class="node">
<title>Node6_1</title>
<ellipse fill="#c6e2eb" stroke="#c6e2eb" cx="269.2" cy="-192" rx="46.59" ry="18"/>
<text text-anchor="middle" x="269.2" y="-188.3" font-family="Times,serif" font-size="14.00">गगने(6.1)</text>
</g>
<!-- Node4_1 -->
<g id="node4" class="node">
<title>Node4_1</title>
<ellipse fill="#c6e2eb" stroke="#c6e2eb" cx="269.2" cy="-279" rx="45.49" ry="18"/>
<text text-anchor="middle" x="269.2" y="-275.3" font-family="Times,serif" font-size="14.00">भूमौ(4.1)</text>
</g>
<!-- Node6_1&#45;&gt;Node4_1 -->
<g id="edge8" class="edge">
<title>Node6_1&#45;&gt;Node4_1</title>
<path fill="none" stroke="black" d="M269.2,-220.27C269.2,-233.58 269.2,-249.19 269.2,-260.82"/>
<polygon fill="black" stroke="black" points="272.7,-220.2 269.2,-210.2 265.7,-220.2 272.7,-220.2"/>
<text text-anchor="middle" x="291.7" y="-231.8" font-family="Times,serif" font-size="14.00">समुच्चितः</text>
</g>
<!-- Node4_1&#45;&gt;Node12_1 -->
<g id="edge6" class="edge">
<title>Node4_1&#45;&gt;Node12_1</title>
<path fill="none" stroke="black" d="M286.42,-304.75C292.81,-313.18 300.4,-322.38 308.2,-330 315.32,-336.97 323.88,-343.73 331.73,-349.43"/>
<polygon fill="black" stroke="black" points="289.22,-302.65 280.47,-296.68 283.58,-306.8 289.22,-302.65"/>
<text text-anchor="middle" x="335.7" y="-318.8" font-family="Times,serif" font-size="14.00">अधिकरणम्</text>
</g>
<!-- Node1_1 -->
<g id="node5" class="node">
<title>Node1_1</title>
<ellipse fill="#ff99ff" stroke="#ff99ff" cx="44.2" cy="-279" rx="44.39" ry="18"/>
<text text-anchor="middle" x="44.2" y="-275.3" font-family="Times,serif" font-size="14.00">अथ(1.1)</text>
</g>
<!-- Node1_1&#45;&gt;Node14_1 -->
<g id="edge1" class="edge">
<title>Node1_1&#45;&gt;Node14_1</title>
<path fill="none" stroke="black" d="M50.29,-307.27C53.27,-320.58 56.76,-336.19 59.36,-347.82"/>
<polygon fill="black" stroke="black" points="53.64,-306.2 48.04,-297.2 46.81,-307.72 53.64,-306.2"/>
<text text-anchor="middle" x="73.7" y="-318.8" font-family="Times,serif" font-size="14.00">सम्बन्धः</text>
</g>
<!-- Node13_3 -->
<g id="node15" class="node">
<title>Node13_3</title>
<ellipse fill="#00bfff" stroke="#00bfff" cx="355.2" cy="-453" rx="50.09" ry="18"/>
<text text-anchor="middle" x="355.2" y="-449.3" font-family="Times,serif" font-size="14.00">गतः(13.3)</text>
</g>
<!-- Node12_1&#45;&gt;Node13_3 -->
<g id="edge14" class="edge">
<title>Node12_1&#45;&gt;Node13_3</title>
<path fill="none" stroke="black" d="M355.2,-394.27C355.2,-407.58 355.2,-423.19 355.2,-434.82"/>
<polygon fill="black" stroke="black" points="358.7,-394.2 355.2,-384.2 351.7,-394.2 358.7,-394.2"/>
<text text-anchor="middle" x="375.7" y="-405.8" font-family="Times,serif" font-size="14.00">पूर्वकालः</text>
</g>
<!-- Node3_1 -->
<g id="node8" class="node">
<title>Node3_1</title>
<ellipse fill="#ffff00" stroke="#ffff00" cx="151.2" cy="-105" rx="51.99" ry="18"/>
<text text-anchor="middle" x="151.2" y="-101.3" font-family="Times,serif" font-size="14.00">सहस्र&#45;(3.1)</text>
</g>
<!-- Node3_1&#45;&gt;Node3_2 -->
<g id="edge4" class="edge">
<title>Node3_1&#45;&gt;Node3_2</title>
<path fill="none" stroke="black" d="M151.2,-133.27C151.2,-146.58 151.2,-162.19 151.2,-173.82"/>
<polygon fill="black" stroke="black" points="154.7,-133.2 151.2,-123.2 147.7,-133.2 154.7,-133.2"/>
<text text-anchor="middle" x="168.2" y="-144.8" font-family="Times,serif" font-size="14.00">समासः</text>
</g>
<!-- Node5_1 -->
<g id="node9" class="node">
<title>Node5_1</title>
<ellipse fill="#ff99ff" stroke="#ff99ff" cx="371.2" cy="-192" rx="37.89" ry="18"/>
<text text-anchor="middle" x="371.2" y="-188.3" font-family="Times,serif" font-size="14.00">च(5.1)</text>
</g>
<!-- Node5_1&#45;&gt;Node4_1 -->
<g id="edge7" class="edge">
<title>Node5_1&#45;&gt;Node4_1</title>
<path fill="none" stroke="black" d="M348.26,-215.94C339.15,-224.69 328.42,-234.59 318.2,-243 309.8,-249.91 300.14,-256.98 291.62,-262.94"/>
<polygon fill="black" stroke="black" points="350.75,-218.39 355.48,-208.91 345.87,-213.38 350.75,-218.39"/>
<text text-anchor="middle" x="352.7" y="-231.8" font-family="Times,serif" font-size="14.00">सम्बन्धः</text>
</g>
<!-- Node7_1 -->
<g id="node10" class="node">
<title>Node7_1</title>
<ellipse fill="#ff99ff" stroke="#ff99ff" cx="269.2" cy="-105" rx="46.29" ry="18"/>
<text text-anchor="middle" x="269.2" y="-101.3" font-family="Times,serif" font-size="14.00">अपि(7.1)</text>
</g>
<!-- Node7_1&#45;&gt;Node6_1 -->
<g id="edge9" class="edge">
<title>Node7_1&#45;&gt;Node6_1</title>
<path fill="none" stroke="black" d="M269.2,-133.27C269.2,-146.58 269.2,-162.19 269.2,-173.82"/>
<polygon fill="black" stroke="black" points="272.7,-133.2 269.2,-123.2 265.7,-133.2 272.7,-133.2"/>
<text text-anchor="middle" x="307.2" y="-144.8" font-family="Times,serif" font-size="14.00">समुच्चय_द्योतकः</text>
</g>
<!-- Node8_1 -->
<g id="node11" class="node">
<title>Node8_1</title>
<ellipse fill="#ff99ff" stroke="#ff99ff" cx="269.2" cy="-18" rx="37.89" ry="18"/>
<text text-anchor="middle" x="269.2" y="-14.3" font-family="Times,serif" font-size="14.00">च(8.1)</text>
</g>
<!-- Node8_1&#45;&gt;Node7_1 -->
<g id="edge10" class="edge">
<title>Node8_1&#45;&gt;Node7_1</title>
<path fill="none" stroke="black" d="M269.2,-46.27C269.2,-59.58 269.2,-75.19 269.2,-86.82"/>
<polygon fill="black" stroke="black" points="272.7,-46.2 269.2,-36.2 265.7,-46.2 272.7,-46.2"/>
<text text-anchor="middle" x="287.7" y="-57.8" font-family="Times,serif" font-size="14.00">सम्बन्धः</text>
</g>
<!-- Node9_1 -->
<g id="node12" class="node">
<title>Node9_1</title>
<ellipse fill="#87ceeb" stroke="#87ceeb" cx="482.2" cy="-192" rx="55.49" ry="18"/>
<text text-anchor="middle" x="482.2" y="-188.3" font-family="Times,serif" font-size="14.00">आत्मनः(9.1)</text>
</g>
<!-- Node10_1 -->
<g id="node13" class="node">
<title>Node10_1</title>
<ellipse fill="#93db70" stroke="#93db70" cx="384.2" cy="-279" rx="51.99" ry="18"/>
<text text-anchor="middle" x="384.2" y="-275.3" font-family="Times,serif" font-size="14.00">देहम्(10.1)</text>
</g>
<!-- Node9_1&#45;&gt;Node10_1 -->
<g id="edge11" class="edge">
<title>Node9_1&#45;&gt;Node10_1</title>
<path fill="none" stroke="black" d="M455.9,-215.8C439.05,-230.43 417.58,-249.04 402.55,-262.08"/>
<polygon fill="black" stroke="black" points="458.5,-218.18 463.76,-208.99 453.92,-212.9 458.5,-218.18"/>
<text text-anchor="middle" x="465.7" y="-231.8" font-family="Times,serif" font-size="14.00">षष्ठीसम्बन्धः</text>
</g>
<!-- Node10_1&#45;&gt;Node12_1 -->
<g id="edge12" class="edge">
<title>Node10_1&#45;&gt;Node12_1</title>
<path fill="none" stroke="black" d="M375.03,-306.87C370.46,-320.27 365.06,-336.08 361.06,-347.82"/>
<polygon fill="black" stroke="black" points="378.41,-307.8 378.33,-297.2 371.79,-305.54 378.41,-307.8"/>
<text text-anchor="middle" x="380.2" y="-318.8" font-family="Times,serif" font-size="14.00">कर्म</text>
</g>
<!-- Node11_1 -->
<g id="node14" class="node">
<title>Node11_1</title>
<ellipse fill="#ff99ff" stroke="#ff99ff" cx="507.2" cy="-279" rx="52.79" ry="18"/>
<text text-anchor="middle" x="507.2" y="-275.3" font-family="Times,serif" font-size="14.00">द्विधा(11.1)</text>
</g>
<!-- Node11_1&#45;&gt;Node12_1 -->
<g id="edge13" class="edge">
<title>Node11_1&#45;&gt;Node12_1</title>
<path fill="none" stroke="black" d="M471.79,-299.8C444.23,-315.21 406.6,-336.26 381.62,-350.22"/>
<polygon fill="black" stroke="black" points="473.7,-302.74 480.72,-294.81 470.28,-296.63 473.7,-302.74"/>
<text text-anchor="middle" x="475.2" y="-318.8" font-family="Times,serif" font-size="14.00">क्रियाविशेषणम्</text>
</g>
<!-- Node13_3&#45;&gt;Node2_1 -->
<g id="edge17" class="edge">
<title>Node13_3&#45;&gt;Node2_1</title>
<path fill="none" stroke="black" d="M308.4,-437.4C278.77,-426.36 241.12,-408.83 214.2,-384 187.27,-359.17 168.65,-319.69 159.56,-297.19"/>
<polygon fill="black" stroke="black" points="307.51,-440.8 318.11,-440.89 309.88,-434.21 307.51,-440.8"/>
<text text-anchor="middle" x="253.2" y="-362.3" font-family="Times,serif" font-size="14.00">विधेय_विशेषणम्</text>
</g>
<!-- Node13_1 -->
<g id="node16" class="node">
<title>Node13_1</title>
<ellipse fill="#ffff00" stroke="#ffff00" cx="628.2" cy="-279" rx="50.89" ry="18"/>
<text text-anchor="middle" x="628.2" y="-275.3" font-family="Times,serif" font-size="14.00">मत्&#45;(13.1)</text>
</g>
<!-- Node13_2 -->
<g id="node17" class="node">
<title>Node13_2</title>
<ellipse fill="#ffff00" stroke="#ffff00" cx="563.2" cy="-366" rx="59.29" ry="18"/>
<text text-anchor="middle" x="563.2" y="-362.3" font-family="Times,serif" font-size="14.00">समीप&#45;(13.2)</text>
</g>
<!-- Node13_1&#45;&gt;Node13_2 -->
<g id="edge15" class="edge">
<title>Node13_1&#45;&gt;Node13_2</title>
<path fill="none" stroke="black" d="M609.07,-305.01C598.42,-318.94 585.44,-335.91 576.01,-348.24"/>
<polygon fill="black" stroke="black" points="612.06,-306.86 615.35,-296.79 606.5,-302.61 612.06,-306.86"/>
<text text-anchor="middle" x="616.2" y="-318.8" font-family="Times,serif" font-size="14.00">समासः</text>
</g>
<!-- Node13_2&#45;&gt;Node13_3 -->
<g id="edge16" class="edge">
<title>Node13_2&#45;&gt;Node13_3</title>
<path fill="none" stroke="black" d="M519.9,-384.69C480.28,-400.89 422.55,-424.47 387.01,-439"/>
<polygon fill="black" stroke="black" points="521.38,-387.87 529.31,-380.85 518.73,-381.39 521.38,-387.87"/>
<text text-anchor="middle" x="488.2" y="-405.8" font-family="Times,serif" font-size="14.00">समासः</text>
</g>
</g>
</svg>
