<?xml version="1.0" encoding="UTF-8" standalone="no"?>
<!DOCTYPE svg PUBLIC "-//W3C//DTD SVG 1.1//EN"
 "http://www.w3.org/Graphics/SVG/1.1/DTD/svg11.dtd">
<!-- Generated by graphviz version 2.43.0 (0)
 -->
<!-- Title: G Pages: 1 -->
<svg width="1237pt" height="321pt"
 viewBox="0.00 0.00 1237.00 321.00" xmlns="http://www.w3.org/2000/svg" xmlns:xlink="http://www.w3.org/1999/xlink">
<g id="graph0" class="graph" transform="scale(1 1) rotate(0) translate(4 317)">
<title>G</title>
<polygon fill="#fffacd" stroke="transparent" points="-4,4 -4,-317 1233,-317 1233,4 -4,4"/>
<g id="clust1" class="cluster">
<title>cluster_1</title>
<polygon fill="#fffacd" stroke="black" points="124,-182 124,-234 222,-234 222,-182 124,-182"/>
</g>
<g id="clust2" class="cluster">
<title>cluster_2</title>
<polygon fill="#fffacd" stroke="black" points="8,-8 8,-147 118,-147 118,-8 8,-8"/>
</g>
<g id="clust3" class="cluster">
<title>cluster_3</title>
<polygon fill="#fffacd" stroke="black" points="1101,-95 1101,-234 1221,-234 1221,-95 1101,-95"/>
</g>
<!-- Node1_1 -->
<g id="node1" class="node">
<title>Node1_1</title>
<ellipse fill="#00bfff" stroke="#00bfff" cx="279" cy="-121" rx="42.49" ry="18"/>
<text text-anchor="middle" x="279" y="-117.3" font-family="Times,serif" font-size="14.00">यत्(1.1)</text>
</g>
<!-- Node5_2 -->
<g id="node2" class="node">
<title>Node5_2</title>
<ellipse fill="#00bfff" stroke="#00bfff" cx="173" cy="-208" rx="40.89" ry="18"/>
<text text-anchor="middle" x="173" y="-204.3" font-family="Times,serif" font-size="14.00">स्थं(5.2)</text>
</g>
<!-- Node1_1&#45;&gt;Node5_2 -->
<g id="edge1" class="edge">
<title>Node1_1&#45;&gt;Node5_2</title>
<path fill="none" stroke="black" d="M252.11,-143.56C233.26,-158.68 208.54,-178.5 191.79,-191.94"/>
<polygon fill="black" stroke="black" points="254.44,-146.18 260.05,-137.2 250.06,-140.72 254.44,-146.18"/>
<text text-anchor="middle" x="255.5" y="-160.8" font-family="Times,serif" font-size="14.00">विशेषणम्</text>
</g>
<!-- Node6_1 -->
<g id="node7" class="node">
<title>Node6_1</title>
<ellipse fill="#00bfff" stroke="#00bfff" cx="457" cy="-121" rx="42.49" ry="18"/>
<text text-anchor="middle" x="457" y="-117.3" font-family="Times,serif" font-size="14.00">तत्(6.1)</text>
</g>
<!-- Node1_1&#45;&gt;Node6_1 -->
<g id="edge2" class="edge">
<title>Node1_1&#45;&gt;Node6_1</title>
<path fill="none" stroke="red" stroke-dasharray="5,2" d="M331.87,-121C354.81,-121 381.6,-121 404.49,-121"/>
<polygon fill="red" stroke="red" points="331.64,-117.5 321.64,-121 331.64,-124.5 331.64,-117.5"/>
<polygon fill="red" stroke="red" points="404.71,-124.5 414.71,-121 404.71,-117.5 404.71,-124.5"/>
<text text-anchor="middle" x="368" y="-106.8" font-family="Times,serif" font-size="14.00">नित्य_सम्बन्धः1</text>
</g>
<!-- Node3_1 -->
<g id="node3" class="node">
<title>Node3_1</title>
<ellipse fill="#87ceeb" stroke="#87ceeb" cx="63" cy="-34" rx="47.39" ry="18"/>
<text text-anchor="middle" x="63" y="-30.3" font-family="Times,serif" font-size="14.00">अस्य(3.1)</text>
</g>
<!-- Node4_1 -->
<g id="node4" class="node">
<title>Node4_1</title>
<ellipse fill="#87ceeb" stroke="#87ceeb" cx="63" cy="-121" rx="46.29" ry="18"/>
<text text-anchor="middle" x="63" y="-117.3" font-family="Times,serif" font-size="14.00">राज्ञः(4.1)</text>
</g>
<!-- Node3_1&#45;&gt;Node4_1 -->
<g id="edge4" class="edge">
<title>Node3_1&#45;&gt;Node4_1</title>
<path fill="none" stroke="black" d="M63,-62.27C63,-75.58 63,-91.19 63,-102.82"/>
<polygon fill="black" stroke="black" points="66.5,-62.2 63,-52.2 59.5,-62.2 66.5,-62.2"/>
<text text-anchor="middle" x="85.5" y="-73.8" font-family="Times,serif" font-size="14.00">विशेषणम्</text>
</g>
<!-- Node4_1&#45;&gt;Node5_2 -->
<g id="edge5" class="edge">
<title>Node4_1&#45;&gt;Node5_2</title>
<path fill="none" stroke="black" d="M84.87,-145.73C93.51,-154.48 103.81,-164.17 114,-172 124.48,-180.06 136.96,-187.71 147.74,-193.79"/>
<polygon fill="black" stroke="black" points="87.2,-143.1 77.73,-138.34 82.16,-147.97 87.2,-143.1"/>
<text text-anchor="middle" x="141.5" y="-160.8" font-family="Times,serif" font-size="14.00">षष्ठीसम्बन्धः</text>
</g>
<!-- Node10_1 -->
<g id="node5" class="node">
<title>Node10_1</title>
<ellipse fill="#93db70" stroke="#93db70" cx="1161" cy="-121" rx="42.79" ry="18"/>
<text text-anchor="middle" x="1161" y="-117.3" font-family="Times,serif" font-size="14.00">तं(10.1)</text>
</g>
<!-- Node12_1 -->
<g id="node6" class="node">
<title>Node12_1</title>
<ellipse fill="#93db70" stroke="#93db70" cx="1161" cy="-208" rx="51.99" ry="18"/>
<text text-anchor="middle" x="1161" y="-204.3" font-family="Times,serif" font-size="14.00">कामं(12.1)</text>
</g>
<!-- Node10_1&#45;&gt;Node12_1 -->
<g id="edge10" class="edge">
<title>Node10_1&#45;&gt;Node12_1</title>
<path fill="none" stroke="black" d="M1161,-149.27C1161,-162.58 1161,-178.19 1161,-189.82"/>
<polygon fill="black" stroke="black" points="1164.5,-149.2 1161,-139.2 1157.5,-149.2 1164.5,-149.2"/>
<text text-anchor="middle" x="1183.5" y="-160.8" font-family="Times,serif" font-size="14.00">विशेषणम्</text>
</g>
<!-- Node16_1 -->
<g id="node14" class="node">
<title>Node16_1</title>
<ellipse fill="#ff1975" stroke="#ff1975" cx="955" cy="-295" rx="57.39" ry="18"/>
<text text-anchor="middle" x="955" y="-291.3" font-family="Times,serif" font-size="14.00">लभतां(16.1)</text>
</g>
<!-- Node12_1&#45;&gt;Node16_1 -->
<g id="edge12" class="edge">
<title>Node12_1&#45;&gt;Node16_1</title>
<path fill="none" stroke="black" d="M1121.03,-226.88C1099,-236.61 1071.1,-248.72 1046,-259 1027.83,-266.44 1007.44,-274.32 990.58,-280.72"/>
<polygon fill="black" stroke="black" points="1122.68,-229.98 1130.4,-222.73 1119.84,-223.58 1122.68,-229.98"/>
<text text-anchor="middle" x="1089" y="-247.8" font-family="Times,serif" font-size="14.00">कर्म</text>
</g>
<!-- Node8_1 -->
<g id="node10" class="node">
<title>Node8_1</title>
<ellipse fill="#00bfff" stroke="#00bfff" cx="567" cy="-208" rx="50.89" ry="18"/>
<text text-anchor="middle" x="567" y="-204.3" font-family="Times,serif" font-size="14.00">विदितं(8.1)</text>
</g>
<!-- Node6_1&#45;&gt;Node8_1 -->
<g id="edge7" class="edge">
<title>Node6_1&#45;&gt;Node8_1</title>
<path fill="none" stroke="black" d="M484.53,-143.28C503.83,-158.18 529.19,-177.78 546.66,-191.29"/>
<polygon fill="black" stroke="black" points="486.47,-140.35 476.41,-137 482.19,-145.88 486.47,-140.35"/>
<text text-anchor="middle" x="527" y="-160.8" font-family="Times,serif" font-size="14.00">कर्म</text>
</g>
<!-- Node2_1 -->
<g id="node8" class="node">
<title>Node2_1</title>
<ellipse fill="#ff99ff" stroke="#ff99ff" cx="279" cy="-34" rx="37.89" ry="18"/>
<text text-anchor="middle" x="279" y="-30.3" font-family="Times,serif" font-size="14.00">च(2.1)</text>
</g>
<!-- Node2_1&#45;&gt;Node1_1 -->
<g id="edge3" class="edge">
<title>Node2_1&#45;&gt;Node1_1</title>
<path fill="none" stroke="black" d="M279,-62.27C279,-75.58 279,-91.19 279,-102.82"/>
<polygon fill="black" stroke="black" points="282.5,-62.2 279,-52.2 275.5,-62.2 282.5,-62.2"/>
<text text-anchor="middle" x="297.5" y="-73.8" font-family="Times,serif" font-size="14.00">सम्बन्धः</text>
</g>
<!-- Node5_1 -->
<g id="node9" class="node">
<title>Node5_1</title>
<ellipse fill="#ffff00" stroke="#ffff00" cx="173" cy="-121" rx="46.29" ry="18"/>
<text text-anchor="middle" x="173" y="-117.3" font-family="Times,serif" font-size="14.00">हृदि&#45;(5.1)</text>
</g>
<!-- Node5_1&#45;&gt;Node5_2 -->
<g id="edge6" class="edge">
<title>Node5_1&#45;&gt;Node5_2</title>
<path fill="none" stroke="black" d="M173,-149.27C173,-162.58 173,-178.19 173,-189.82"/>
<polygon fill="black" stroke="black" points="176.5,-149.2 173,-139.2 169.5,-149.2 176.5,-149.2"/>
<text text-anchor="middle" x="190" y="-160.8" font-family="Times,serif" font-size="14.00">समासः</text>
</g>
<!-- Node7_1 -->
<g id="node11" class="node">
<title>Node7_1</title>
<ellipse fill="#87ceeb" stroke="#87ceeb" cx="567" cy="-121" rx="50.09" ry="18"/>
<text text-anchor="middle" x="567" y="-117.3" font-family="Times,serif" font-size="14.00">भवतः(7.1)</text>
</g>
<!-- Node7_1&#45;&gt;Node8_1 -->
<g id="edge8" class="edge">
<title>Node7_1&#45;&gt;Node8_1</title>
<path fill="none" stroke="black" d="M567,-149.27C567,-162.58 567,-178.19 567,-189.82"/>
<polygon fill="black" stroke="black" points="570.5,-149.2 567,-139.2 563.5,-149.2 570.5,-149.2"/>
<text text-anchor="middle" x="585.5" y="-160.8" font-family="Times,serif" font-size="14.00">सम्बन्धः</text>
</g>
<!-- Node9_1 -->
<g id="node12" class="node">
<title>Node9_1</title>
<ellipse fill="#6fffc3" stroke="#6fffc3" cx="683" cy="-121" rx="48.19" ry="18"/>
<text text-anchor="middle" x="683" y="-117.3" font-family="Times,serif" font-size="14.00">अनघ(9.1)</text>
</g>
<!-- Node9_1&#45;&gt;Node8_1 -->
<g id="edge9" class="edge">
<title>Node9_1&#45;&gt;Node8_1</title>
<path fill="none" stroke="black" d="M653.69,-143.48C633.3,-158.42 606.6,-177.99 588.24,-191.43"/>
<polygon fill="black" stroke="black" points="656,-146.13 661.99,-137.39 651.86,-140.48 656,-146.13"/>
<text text-anchor="middle" x="652" y="-160.8" font-family="Times,serif" font-size="14.00">सम्बोध्यः</text>
</g>
<!-- Node11_1 -->
<g id="node13" class="node">
<title>Node11_1</title>
<ellipse fill="#ff99ff" stroke="#ff99ff" cx="1161" cy="-34" rx="43.59" ry="18"/>
<text text-anchor="middle" x="1161" y="-30.3" font-family="Times,serif" font-size="14.00">च(11.1)</text>
</g>
<!-- Node11_1&#45;&gt;Node10_1 -->
<g id="edge11" class="edge">
<title>Node11_1&#45;&gt;Node10_1</title>
<path fill="none" stroke="black" d="M1161,-62.27C1161,-75.58 1161,-91.19 1161,-102.82"/>
<polygon fill="black" stroke="black" points="1164.5,-62.2 1161,-52.2 1157.5,-62.2 1164.5,-62.2"/>
<text text-anchor="middle" x="1179.5" y="-73.8" font-family="Times,serif" font-size="14.00">सम्बन्धः</text>
</g>
<!-- Node13_1 -->
<g id="node15" class="node">
<title>Node13_1</title>
<ellipse fill="#ff99ff" stroke="#ff99ff" cx="797" cy="-208" rx="49.29" ry="18"/>
<text text-anchor="middle" x="797" y="-204.3" font-family="Times,serif" font-size="14.00">अद्य(13.1)</text>
</g>
<!-- Node13_1&#45;&gt;Node16_1 -->
<g id="edge13" class="edge">
<title>Node13_1&#45;&gt;Node16_1</title>
<path fill="none" stroke="black" d="M820.66,-232.03C831.16,-241.34 844.05,-251.61 857,-259 874.41,-268.94 895.15,-276.85 913.06,-282.61"/>
<polygon fill="black" stroke="black" points="822.88,-229.32 813.13,-225.16 818.16,-234.49 822.88,-229.32"/>
<text text-anchor="middle" x="892.5" y="-247.8" font-family="Times,serif" font-size="14.00">कालाधिकरणम्</text>
</g>
<!-- Node14_1 -->
<g id="node16" class="node">
<title>Node14_1</title>
<ellipse fill="#ff99ff" stroke="#ff99ff" cx="797" cy="-121" rx="47.39" ry="18"/>
<text text-anchor="middle" x="797" y="-117.3" font-family="Times,serif" font-size="14.00">एव(14.1)</text>
</g>
<!-- Node14_1&#45;&gt;Node13_1 -->
<g id="edge14" class="edge">
<title>Node14_1&#45;&gt;Node13_1</title>
<path fill="none" stroke="black" d="M797,-149.27C797,-162.58 797,-178.19 797,-189.82"/>
<polygon fill="black" stroke="black" points="800.5,-149.2 797,-139.2 793.5,-149.2 800.5,-149.2"/>
<text text-anchor="middle" x="815.5" y="-160.8" font-family="Times,serif" font-size="14.00">सम्बन्धः</text>
</g>
<!-- Node15_1 -->
<g id="node17" class="node">
<title>Node15_1</title>
<ellipse fill="#00bfff" stroke="#00bfff" cx="914" cy="-208" rx="49.29" ry="18"/>
<text text-anchor="middle" x="914" y="-204.3" font-family="Times,serif" font-size="14.00">अयं(15.1)</text>
</g>
<!-- Node15_1&#45;&gt;Node16_1 -->
<g id="edge15" class="edge">
<title>Node15_1&#45;&gt;Node16_1</title>
<path fill="none" stroke="black" d="M926.6,-235.13C933.17,-248.73 941,-264.98 946.78,-276.95"/>
<polygon fill="black" stroke="black" points="929.6,-233.28 922.1,-225.79 923.29,-236.32 929.6,-233.28"/>
<text text-anchor="middle" x="947" y="-247.8" font-family="Times,serif" font-size="14.00">कर्ता</text>
</g>
<!-- Node17_1 -->
<g id="node18" class="node">
<title>Node17_1</title>
<ellipse fill="#ffff00" stroke="#ffff00" cx="1036" cy="-121" rx="53.09" ry="18"/>
<text text-anchor="middle" x="1036" y="-117.3" font-family="Times,serif" font-size="14.00">मुनि&#45;(17.1)</text>
</g>
<!-- Node17_2 -->
<g id="node19" class="node">
<title>Node17_2</title>
<ellipse fill="#6fffc3" stroke="#6fffc3" cx="1036" cy="-208" rx="54.69" ry="18"/>
<text text-anchor="middle" x="1036" y="-204.3" font-family="Times,serif" font-size="14.00">सत्तम(17.2)</text>
</g>
<!-- Node17_1&#45;&gt;Node17_2 -->
<g id="edge16" class="edge">
<title>Node17_1&#45;&gt;Node17_2</title>
<path fill="none" stroke="black" d="M1036,-149.27C1036,-162.58 1036,-178.19 1036,-189.82"/>
<polygon fill="black" stroke="black" points="1039.5,-149.2 1036,-139.2 1032.5,-149.2 1039.5,-149.2"/>
<text text-anchor="middle" x="1053" y="-160.8" font-family="Times,serif" font-size="14.00">समासः</text>
</g>
<!-- Node17_2&#45;&gt;Node16_1 -->
<g id="edge17" class="edge">
<title>Node17_2&#45;&gt;Node16_1</title>
<path fill="none" stroke="black" d="M1013.21,-232.91C999.6,-247.2 982.66,-264.98 970.57,-277.66"/>
<polygon fill="black" stroke="black" points="1016.02,-235.04 1020.38,-225.39 1010.95,-230.21 1016.02,-235.04"/>
<text text-anchor="middle" x="1021" y="-247.8" font-family="Times,serif" font-size="14.00">सम्बोध्यः</text>
</g>
</g>
</svg>
