<?xml version="1.0" encoding="UTF-8" standalone="no"?>
<!DOCTYPE svg PUBLIC "-//W3C//DTD SVG 1.1//EN"
 "http://www.w3.org/Graphics/SVG/1.1/DTD/svg11.dtd">
<!-- Generated by graphviz version 2.43.0 (0)
 -->
<!-- Title: G Pages: 1 -->
<svg width="360pt" height="305pt"
 viewBox="0.00 0.00 360.05 305.00" xmlns="http://www.w3.org/2000/svg" xmlns:xlink="http://www.w3.org/1999/xlink">
<g id="graph0" class="graph" transform="scale(1 1) rotate(0) translate(4 301)">
<title>G</title>
<polygon fill="#fffacd" stroke="transparent" points="-4,4 -4,-301 356.05,-301 356.05,4 -4,4"/>
<g id="clust1" class="cluster">
<title>cluster_1</title>
<polygon fill="#fffacd" stroke="black" points="210.05,-79 210.05,-218 344.05,-218 344.05,-79 210.05,-79"/>
</g>
<!-- Node2_1 -->
<g id="node1" class="node">
<title>Node2_1</title>
<ellipse fill="#00bfff" stroke="#00bfff" cx="277.05" cy="-105" rx="59.29" ry="18"/>
<text text-anchor="middle" x="277.05" y="-101.3" font-family="Times,serif" font-size="14.00">अबुध्यती(2.1)</text>
</g>
<!-- Node6_1 -->
<g id="node2" class="node">
<title>Node6_1</title>
<ellipse fill="#00bfff" stroke="#00bfff" cx="272.05" cy="-192" rx="48.19" ry="18"/>
<text text-anchor="middle" x="272.05" y="-188.3" font-family="Times,serif" font-size="14.00">अहम्(6.1)</text>
</g>
<!-- Node2_1&#45;&gt;Node6_1 -->
<g id="edge2" class="edge">
<title>Node2_1&#45;&gt;Node6_1</title>
<path fill="none" stroke="black" d="M275.44,-133.27C274.66,-146.58 273.74,-162.19 273.06,-173.82"/>
<polygon fill="black" stroke="black" points="278.94,-133.39 276.03,-123.2 271.95,-132.98 278.94,-133.39"/>
<text text-anchor="middle" x="296.55" y="-144.8" font-family="Times,serif" font-size="14.00">विशेषणम्</text>
</g>
<!-- Node5_1 -->
<g id="node6" class="node">
<title>Node5_1</title>
<ellipse fill="#00bfff" stroke="#00bfff" cx="160.05" cy="-279" rx="50.89" ry="18"/>
<text text-anchor="middle" x="160.05" y="-275.3" font-family="Times,serif" font-size="14.00">स्थिता(5.1)</text>
</g>
<!-- Node6_1&#45;&gt;Node5_1 -->
<g id="edge6" class="edge">
<title>Node6_1&#45;&gt;Node5_1</title>
<path fill="none" stroke="black" d="M253.43,-217.76C246.14,-226.42 237.31,-235.78 228.05,-243 217.05,-251.57 203.64,-259 191.64,-264.78"/>
<polygon fill="black" stroke="black" points="256.34,-219.73 259.92,-209.75 250.9,-215.32 256.34,-219.73"/>
<text text-anchor="middle" x="255.05" y="-231.8" font-family="Times,serif" font-size="14.00">कर्ता</text>
</g>
<!-- Node1_1 -->
<g id="node3" class="node">
<title>Node1_1</title>
<ellipse fill="#93db70" stroke="#93db70" cx="277.05" cy="-18" rx="44.39" ry="18"/>
<text text-anchor="middle" x="277.05" y="-14.3" font-family="Times,serif" font-size="14.00">दोषं(1.1)</text>
</g>
<!-- Node1_1&#45;&gt;Node2_1 -->
<g id="edge1" class="edge">
<title>Node1_1&#45;&gt;Node2_1</title>
<path fill="none" stroke="black" d="M277.05,-46.27C277.05,-59.58 277.05,-75.19 277.05,-86.82"/>
<polygon fill="black" stroke="black" points="280.55,-46.2 277.05,-36.2 273.55,-46.2 280.55,-46.2"/>
<text text-anchor="middle" x="286.05" y="-57.8" font-family="Times,serif" font-size="14.00">कर्म</text>
</g>
<!-- Node3_1 -->
<g id="node4" class="node">
<title>Node3_1</title>
<ellipse fill="#ffff00" stroke="#ffff00" cx="50.05" cy="-105" rx="48.19" ry="18"/>
<text text-anchor="middle" x="50.05" y="-101.3" font-family="Times,serif" font-size="14.00">बाल&#45;(3.1)</text>
</g>
<!-- Node3_2 -->
<g id="node5" class="node">
<title>Node3_2</title>
<ellipse fill="#40e0d0" stroke="#40e0d0" cx="50.05" cy="-192" rx="50.09" ry="18"/>
<text text-anchor="middle" x="50.05" y="-188.3" font-family="Times,serif" font-size="14.00">भावेन(3.2)</text>
</g>
<!-- Node3_1&#45;&gt;Node3_2 -->
<g id="edge3" class="edge">
<title>Node3_1&#45;&gt;Node3_2</title>
<path fill="none" stroke="black" d="M50.05,-133.27C50.05,-146.58 50.05,-162.19 50.05,-173.82"/>
<polygon fill="black" stroke="black" points="53.55,-133.2 50.05,-123.2 46.55,-133.2 53.55,-133.2"/>
<text text-anchor="middle" x="67.05" y="-144.8" font-family="Times,serif" font-size="14.00">समासः</text>
</g>
<!-- Node3_2&#45;&gt;Node5_1 -->
<g id="edge4" class="edge">
<title>Node3_2&#45;&gt;Node5_1</title>
<path fill="none" stroke="black" d="M64.8,-218.59C70.61,-227.13 77.87,-236.19 86.05,-243 97.51,-252.55 112.02,-260.15 125.15,-265.8"/>
<polygon fill="black" stroke="black" points="67.63,-216.52 59.28,-209.99 61.74,-220.3 67.63,-216.52"/>
<text text-anchor="middle" x="121.05" y="-231.8" font-family="Times,serif" font-size="14.00">क्रियाविशेषणम्</text>
</g>
<!-- Node4_1 -->
<g id="node7" class="node">
<title>Node4_1</title>
<ellipse fill="#ff99ff" stroke="#ff99ff" cx="160.05" cy="-192" rx="42.49" ry="18"/>
<text text-anchor="middle" x="160.05" y="-188.3" font-family="Times,serif" font-size="14.00">तत्र(4.1)</text>
</g>
<!-- Node4_1&#45;&gt;Node5_1 -->
<g id="edge5" class="edge">
<title>Node4_1&#45;&gt;Node5_1</title>
<path fill="none" stroke="black" d="M160.05,-220.27C160.05,-233.58 160.05,-249.19 160.05,-260.82"/>
<polygon fill="black" stroke="black" points="163.55,-220.2 160.05,-210.2 156.55,-220.2 163.55,-220.2"/>
<text text-anchor="middle" x="192.05" y="-231.8" font-family="Times,serif" font-size="14.00">देशाधिकरणम्</text>
</g>
</g>
</svg>
