<?xml version="1.0" encoding="UTF-8" standalone="no"?>
<!DOCTYPE svg PUBLIC "-//W3C//DTD SVG 1.1//EN"
 "http://www.w3.org/Graphics/SVG/1.1/DTD/svg11.dtd">
<!-- Generated by graphviz version 2.43.0 (0)
 -->
<!-- Title: G Pages: 1 -->
<svg width="618pt" height="408pt"
 viewBox="0.00 0.00 617.90 408.00" xmlns="http://www.w3.org/2000/svg" xmlns:xlink="http://www.w3.org/1999/xlink">
<g id="graph0" class="graph" transform="scale(1 1) rotate(0) translate(4 404)">
<title>G</title>
<polygon fill="#fffacd" stroke="transparent" points="-4,4 -4,-404 613.9,-404 613.9,4 -4,4"/>
<g id="clust1" class="cluster">
<title>cluster_1</title>
<polygon fill="#fffacd" stroke="black" points="8,-8 8,-147 122,-147 122,-8 8,-8"/>
</g>
<g id="clust2" class="cluster">
<title>cluster_2</title>
<polygon fill="#fffacd" stroke="black" points="382,-8 382,-147 514,-147 514,-8 382,-8"/>
</g>
<!-- Node1_1 -->
<g id="node1" class="node">
<title>Node1_1</title>
<ellipse fill="#40e0d0" stroke="#40e0d0" cx="65" cy="-34" rx="46.29" ry="18"/>
<text text-anchor="middle" x="65" y="-30.3" font-family="Times,serif" font-size="14.00">दैवेन(1.1)</text>
</g>
<!-- Node2_1 -->
<g id="node2" class="node">
<title>Node2_1</title>
<ellipse fill="#40e0d0" stroke="#40e0d0" cx="65" cy="-121" rx="48.99" ry="18"/>
<text text-anchor="middle" x="65" y="-117.3" font-family="Times,serif" font-size="14.00">धर्मेण(2.1)</text>
</g>
<!-- Node1_1&#45;&gt;Node2_1 -->
<g id="edge1" class="edge">
<title>Node1_1&#45;&gt;Node2_1</title>
<path fill="none" stroke="black" d="M65,-62.27C65,-75.58 65,-91.19 65,-102.82"/>
<polygon fill="black" stroke="black" points="68.5,-62.2 65,-52.2 61.5,-62.2 68.5,-62.2"/>
<text text-anchor="middle" x="87.5" y="-73.8" font-family="Times,serif" font-size="14.00">विशेषणम्</text>
</g>
<!-- Node3_2 -->
<g id="node5" class="node">
<title>Node3_2</title>
<ellipse fill="#00bfff" stroke="#00bfff" cx="154" cy="-208" rx="44.69" ry="18"/>
<text text-anchor="middle" x="154" y="-204.3" font-family="Times,serif" font-size="14.00">धर्मः(3.2)</text>
</g>
<!-- Node2_1&#45;&gt;Node3_2 -->
<g id="edge2" class="edge">
<title>Node2_1&#45;&gt;Node3_2</title>
<path fill="none" stroke="black" d="M89.3,-145.2C104.54,-159.76 123.81,-178.16 137.33,-191.08"/>
<polygon fill="black" stroke="black" points="91.39,-142.36 81.74,-137.99 86.55,-147.43 91.39,-142.36"/>
<text text-anchor="middle" x="131" y="-160.8" font-family="Times,serif" font-size="14.00">सहार्थः</text>
</g>
<!-- Node12_1 -->
<g id="node3" class="node">
<title>Node12_1</title>
<ellipse fill="#00bfff" stroke="#00bfff" cx="448" cy="-34" rx="58.49" ry="18"/>
<text text-anchor="middle" x="448" y="-30.3" font-family="Times,serif" font-size="14.00">मानसः(12.1)</text>
</g>
<!-- Node13_1 -->
<g id="node4" class="node">
<title>Node13_1</title>
<ellipse fill="#00bfff" stroke="#00bfff" cx="453" cy="-121" rx="51.99" ry="18"/>
<text text-anchor="middle" x="453" y="-117.3" font-family="Times,serif" font-size="14.00">ज्वरः(13.1)</text>
</g>
<!-- Node12_1&#45;&gt;Node13_1 -->
<g id="edge11" class="edge">
<title>Node12_1&#45;&gt;Node13_1</title>
<path fill="none" stroke="black" d="M449.6,-62.27C450.39,-75.58 451.31,-91.19 451.99,-102.82"/>
<polygon fill="black" stroke="black" points="453.09,-61.98 449.01,-52.2 446.11,-62.39 453.09,-61.98"/>
<text text-anchor="middle" x="473.5" y="-73.8" font-family="Times,serif" font-size="14.00">विशेषणम्</text>
</g>
<!-- Node10_1 -->
<g id="node13" class="node">
<title>Node10_1</title>
<ellipse fill="#ff1975" stroke="#ff1975" cx="453" cy="-208" rx="48.19" ry="18"/>
<text text-anchor="middle" x="453" y="-204.3" font-family="Times,serif" font-size="14.00">एतु(10.1)</text>
</g>
<!-- Node13_1&#45;&gt;Node10_1 -->
<g id="edge12" class="edge">
<title>Node13_1&#45;&gt;Node10_1</title>
<path fill="none" stroke="black" d="M453,-149.27C453,-162.58 453,-178.19 453,-189.82"/>
<polygon fill="black" stroke="black" points="456.5,-149.2 453,-139.2 449.5,-149.2 456.5,-149.2"/>
<text text-anchor="middle" x="464" y="-160.8" font-family="Times,serif" font-size="14.00">कर्ता</text>
</g>
<!-- Node6_1 -->
<g id="node7" class="node">
<title>Node6_1</title>
<ellipse fill="#ff1975" stroke="#ff1975" cx="254" cy="-295" rx="50.89" ry="18"/>
<text text-anchor="middle" x="254" y="-291.3" font-family="Times,serif" font-size="14.00">युज्यते(6.1)</text>
</g>
<!-- Node3_2&#45;&gt;Node6_1 -->
<g id="edge4" class="edge">
<title>Node3_2&#45;&gt;Node6_1</title>
<path fill="none" stroke="black" d="M180.4,-231.44C197.73,-246.17 219.96,-265.07 235.44,-278.22"/>
<polygon fill="black" stroke="black" points="182.23,-228.4 172.34,-224.59 177.69,-233.73 182.23,-228.4"/>
<text text-anchor="middle" x="221" y="-247.8" font-family="Times,serif" font-size="14.00">कर्ता</text>
</g>
<!-- Node3_1 -->
<g id="node6" class="node">
<title>Node3_1</title>
<ellipse fill="#ffff00" stroke="#ffff00" cx="184" cy="-121" rx="52.79" ry="18"/>
<text text-anchor="middle" x="184" y="-117.3" font-family="Times,serif" font-size="14.00">मनुष्य&#45;(3.1)</text>
</g>
<!-- Node3_1&#45;&gt;Node3_2 -->
<g id="edge3" class="edge">
<title>Node3_1&#45;&gt;Node3_2</title>
<path fill="none" stroke="black" d="M174.49,-148.94C169.73,-162.43 164.11,-178.36 159.96,-190.11"/>
<polygon fill="black" stroke="black" points="177.9,-149.8 177.93,-139.2 171.3,-147.47 177.9,-149.8"/>
<text text-anchor="middle" x="188" y="-160.8" font-family="Times,serif" font-size="14.00">समासः</text>
</g>
<!-- Node8_1 -->
<g id="node10" class="node">
<title>Node8_1</title>
<ellipse fill="#ff1975" stroke="#ff1975" cx="367" cy="-382" rx="61.99" ry="18"/>
<text text-anchor="middle" x="367" y="-378.3" font-family="Times,serif" font-size="14.00">विजानीहि(8.1)</text>
</g>
<!-- Node6_1&#45;&gt;Node8_1 -->
<g id="edge7" class="edge">
<title>Node6_1&#45;&gt;Node8_1</title>
<path fill="none" stroke="black" d="M282.54,-317.7C294.15,-326.51 307.7,-336.76 320,-346 328.3,-352.23 337.44,-359.05 345.45,-365.01"/>
<polygon fill="black" stroke="black" points="284.56,-314.84 274.48,-311.58 280.33,-320.42 284.56,-314.84"/>
<text text-anchor="middle" x="341.5" y="-334.8" font-family="Times,serif" font-size="14.00">वाक्यकर्म</text>
</g>
<!-- Node4_1 -->
<g id="node8" class="node">
<title>Node4_1</title>
<ellipse fill="#ff99ff" stroke="#ff99ff" cx="254" cy="-208" rx="37.09" ry="18"/>
<text text-anchor="middle" x="254" y="-204.3" font-family="Times,serif" font-size="14.00">न(4.1)</text>
</g>
<!-- Node4_1&#45;&gt;Node6_1 -->
<g id="edge5" class="edge">
<title>Node4_1&#45;&gt;Node6_1</title>
<path fill="none" stroke="black" d="M254,-236.27C254,-249.58 254,-265.19 254,-276.82"/>
<polygon fill="black" stroke="black" points="257.5,-236.2 254,-226.2 250.5,-236.2 257.5,-236.2"/>
<text text-anchor="middle" x="273.5" y="-247.8" font-family="Times,serif" font-size="14.00">प्रतिषेधः</text>
</g>
<!-- Node5_1 -->
<g id="node9" class="node">
<title>Node5_1</title>
<ellipse fill="#ff99ff" stroke="#ff99ff" cx="348" cy="-208" rx="38.99" ry="18"/>
<text text-anchor="middle" x="348" y="-204.3" font-family="Times,serif" font-size="14.00">हि(5.1)</text>
</g>
<!-- Node5_1&#45;&gt;Node6_1 -->
<g id="edge6" class="edge">
<title>Node5_1&#45;&gt;Node6_1</title>
<path fill="none" stroke="black" d="M325.49,-231.95C316.76,-240.61 306.58,-250.44 297,-259 289.68,-265.54 281.37,-272.43 274.01,-278.34"/>
<polygon fill="black" stroke="black" points="328.14,-234.25 332.73,-224.7 323.19,-229.3 328.14,-234.25"/>
<text text-anchor="middle" x="331.5" y="-247.8" font-family="Times,serif" font-size="14.00">सम्बन्धः</text>
</g>
<!-- Node7_1 -->
<g id="node11" class="node">
<title>Node7_1</title>
<ellipse fill="#ff99ff" stroke="#ff99ff" cx="367" cy="-295" rx="44.39" ry="18"/>
<text text-anchor="middle" x="367" y="-291.3" font-family="Times,serif" font-size="14.00">इति(7.1)</text>
</g>
<!-- Node7_1&#45;&gt;Node8_1 -->
<g id="edge8" class="edge">
<title>Node7_1&#45;&gt;Node8_1</title>
<path fill="none" stroke="black" d="M367,-323.27C367,-336.58 367,-352.19 367,-363.82"/>
<polygon fill="black" stroke="black" points="370.5,-323.2 367,-313.2 363.5,-323.2 370.5,-323.2"/>
<text text-anchor="middle" x="408" y="-334.8" font-family="Times,serif" font-size="14.00">वाक्यकर्म_द्योतकः</text>
</g>
<!-- Node9_1 -->
<g id="node12" class="node">
<title>Node9_1</title>
<ellipse fill="#6fffc3" stroke="#6fffc3" cx="477" cy="-295" rx="48.19" ry="18"/>
<text text-anchor="middle" x="477" y="-291.3" font-family="Times,serif" font-size="14.00">कुन्ति(9.1)</text>
</g>
<!-- Node9_1&#45;&gt;Node8_1 -->
<g id="edge9" class="edge">
<title>Node9_1&#45;&gt;Node8_1</title>
<path fill="none" stroke="black" d="M468.52,-322.68C464.82,-331 459.75,-339.65 453,-346 441.61,-356.71 426.51,-364.33 412.14,-369.67"/>
<polygon fill="black" stroke="black" points="471.84,-323.81 472.25,-313.22 465.32,-321.24 471.84,-323.81"/>
<text text-anchor="middle" x="485" y="-334.8" font-family="Times,serif" font-size="14.00">सम्बोध्यः</text>
</g>
<!-- Node11_1 -->
<g id="node14" class="node">
<title>Node11_1</title>
<ellipse fill="#87ceeb" stroke="#87ceeb" cx="567" cy="-34" rx="42.79" ry="18"/>
<text text-anchor="middle" x="567" y="-30.3" font-family="Times,serif" font-size="14.00">ते(11.1)</text>
</g>
<!-- Node11_1&#45;&gt;Node13_1 -->
<g id="edge10" class="edge">
<title>Node11_1&#45;&gt;Node13_1</title>
<path fill="none" stroke="black" d="M538.52,-56.26C526.62,-65.15 512.64,-75.58 500,-85 491.52,-91.32 482.17,-98.29 474.06,-104.32"/>
<polygon fill="black" stroke="black" points="540.85,-58.89 546.77,-50.1 536.67,-53.28 540.85,-58.89"/>
<text text-anchor="middle" x="545.5" y="-73.8" font-family="Times,serif" font-size="14.00">षष्ठीसम्बन्धः</text>
</g>
</g>
</svg>
