<?xml version="1.0" encoding="UTF-8" standalone="no"?>
<!DOCTYPE svg PUBLIC "-//W3C//DTD SVG 1.1//EN"
 "http://www.w3.org/Graphics/SVG/1.1/DTD/svg11.dtd">
<!-- Generated by graphviz version 2.43.0 (0)
 -->
<!-- Title: G Pages: 1 -->
<svg width="975pt" height="408pt"
 viewBox="0.00 0.00 974.74 408.00" xmlns="http://www.w3.org/2000/svg" xmlns:xlink="http://www.w3.org/1999/xlink">
<g id="graph0" class="graph" transform="scale(1 1) rotate(0) translate(4 404)">
<title>G</title>
<polygon fill="#fffacd" stroke="transparent" points="-4,4 -4,-404 970.74,-404 970.74,4 -4,4"/>
<g id="clust1" class="cluster">
<title>cluster_1</title>
<polygon fill="#fffacd" stroke="black" points="359.84,-269 359.84,-321 471.84,-321 471.84,-269 359.84,-269"/>
</g>
<g id="clust2" class="cluster">
<title>cluster_2</title>
<polygon fill="#fffacd" stroke="black" points="667.84,-182 667.84,-321 880.84,-321 880.84,-182 667.84,-182"/>
</g>
<g id="clust3" class="cluster">
<title>cluster_3</title>
<polygon fill="#fffacd" stroke="black" points="611.84,-8 611.84,-147 733.84,-147 733.84,-8 611.84,-8"/>
</g>
<!-- Node1_1 -->
<g id="node1" class="node">
<title>Node1_1</title>
<ellipse fill="#00bfff" stroke="#00bfff" cx="415.84" cy="-208" rx="39.79" ry="18"/>
<text text-anchor="middle" x="415.84" y="-204.3" font-family="Times,serif" font-size="14.00">यः(1.1)</text>
</g>
<!-- Node9_1 -->
<g id="node2" class="node">
<title>Node9_1</title>
<ellipse fill="#00bfff" stroke="#00bfff" cx="415.84" cy="-295" rx="48.19" ry="18"/>
<text text-anchor="middle" x="415.84" y="-291.3" font-family="Times,serif" font-size="14.00">सोमः(9.1)</text>
</g>
<!-- Node1_1&#45;&gt;Node9_1 -->
<g id="edge1" class="edge">
<title>Node1_1&#45;&gt;Node9_1</title>
<path fill="none" stroke="black" d="M415.84,-236.27C415.84,-249.58 415.84,-265.19 415.84,-276.82"/>
<polygon fill="black" stroke="black" points="419.34,-236.2 415.84,-226.2 412.34,-236.2 419.34,-236.2"/>
<text text-anchor="middle" x="438.34" y="-247.8" font-family="Times,serif" font-size="14.00">विशेषणम्</text>
</g>
<!-- Node7_1 -->
<g id="node6" class="node">
<title>Node7_1</title>
<ellipse fill="#00bfff" stroke="#00bfff" cx="588.84" cy="-208" rx="40.09" ry="18"/>
<text text-anchor="middle" x="588.84" y="-204.3" font-family="Times,serif" font-size="14.00">सः(7.1)</text>
</g>
<!-- Node1_1&#45;&gt;Node7_1 -->
<g id="edge2" class="edge">
<title>Node1_1&#45;&gt;Node7_1</title>
<path fill="none" stroke="red" stroke-dasharray="5,2" d="M465.67,-208C488.45,-208 515.38,-208 538.25,-208"/>
<polygon fill="red" stroke="red" points="465.53,-204.5 455.53,-208 465.53,-211.5 465.53,-204.5"/>
<polygon fill="red" stroke="red" points="538.44,-211.5 548.44,-208 538.44,-204.5 538.44,-211.5"/>
<text text-anchor="middle" x="502.02" y="-193.8" font-family="Times,serif" font-size="14.00">नित्य_सम्बन्धः1</text>
</g>
<!-- Node13_1 -->
<g id="node13" class="node">
<title>Node13_1</title>
<ellipse fill="#ff1975" stroke="#ff1975" cx="243.84" cy="-382" rx="59.59" ry="18"/>
<text text-anchor="middle" x="243.84" y="-378.3" font-family="Times,serif" font-size="14.00">अभवत्(13.1)</text>
</g>
<!-- Node9_1&#45;&gt;Node13_1 -->
<g id="edge13" class="edge">
<title>Node9_1&#45;&gt;Node13_1</title>
<path fill="none" stroke="black" d="M395.97,-320.09C387.26,-329.33 376.39,-339.26 364.84,-346 343.32,-358.57 316.97,-366.89 294.36,-372.24"/>
<polygon fill="black" stroke="black" points="398.64,-322.35 402.75,-312.58 393.45,-317.66 398.64,-322.35"/>
<text text-anchor="middle" x="394.84" y="-334.8" font-family="Times,serif" font-size="14.00">कर्ता</text>
</g>
<!-- Node3_3 -->
<g id="node3" class="node">
<title>Node3_3</title>
<ellipse fill="#00bfff" stroke="#00bfff" cx="827.84" cy="-208" rx="45.49" ry="18"/>
<text text-anchor="middle" x="827.84" y="-204.3" font-family="Times,serif" font-size="14.00">अदः(3.3)</text>
</g>
<!-- Node8_1 -->
<g id="node4" class="node">
<title>Node8_1</title>
<ellipse fill="#00bfff" stroke="#00bfff" cx="736.84" cy="-295" rx="53.09" ry="18"/>
<text text-anchor="middle" x="736.84" y="-291.3" font-family="Times,serif" font-size="14.00">सौभद्रः(8.1)</text>
</g>
<!-- Node3_3&#45;&gt;Node8_1 -->
<g id="edge6" class="edge">
<title>Node3_3&#45;&gt;Node8_1</title>
<path fill="none" stroke="black" d="M805.34,-232.26C796.86,-240.82 787.05,-250.49 777.84,-259 770.97,-265.35 763.21,-272.08 756.31,-277.93"/>
<polygon fill="black" stroke="black" points="807.88,-234.67 812.39,-225.09 802.89,-229.76 807.88,-234.67"/>
<text text-anchor="middle" x="815.34" y="-247.8" font-family="Times,serif" font-size="14.00">विशेषणम्</text>
</g>
<!-- Node8_1&#45;&gt;Node7_1 -->
<g id="edge12" class="edge">
<title>Node8_1&#45;&gt;Node7_1</title>
<path fill="none" stroke="black" d="M675.43,-289.23C633.15,-284.52 582.29,-275.53 568.84,-259 560.82,-249.13 566.97,-235.64 574.49,-225.16"/>
<polygon fill="black" stroke="black" points="675.09,-292.71 685.41,-290.28 675.83,-285.75 675.09,-292.71"/>
<text text-anchor="middle" x="607.84" y="-247.8" font-family="Times,serif" font-size="14.00">विधेय_विशेषणम्</text>
</g>
<!-- Node6_1 -->
<g id="node5" class="node">
<title>Node6_1</title>
<ellipse fill="#00bfff" stroke="#00bfff" cx="719.84" cy="-208" rx="44.39" ry="18"/>
<text text-anchor="middle" x="719.84" y="-204.3" font-family="Times,serif" font-size="14.00">हतः(6.1)</text>
</g>
<!-- Node6_1&#45;&gt;Node8_1 -->
<g id="edge10" class="edge">
<title>Node6_1&#45;&gt;Node8_1</title>
<path fill="none" stroke="black" d="M725.3,-236.27C727.96,-249.58 731.08,-265.19 733.41,-276.82"/>
<polygon fill="black" stroke="black" points="728.68,-235.32 723.29,-226.2 721.81,-236.69 728.68,-235.32"/>
<text text-anchor="middle" x="751.34" y="-247.8" font-family="Times,serif" font-size="14.00">विशेषणम्</text>
</g>
<!-- Node7_1&#45;&gt;Node8_1 -->
<g id="edge11" class="edge">
<title>Node7_1&#45;&gt;Node8_1</title>
<path fill="none" stroke="black" d="M622.03,-227.63C631.36,-232.9 641.51,-238.65 650.84,-244 671.23,-255.68 694.22,-269.06 711.31,-279.04"/>
<polygon fill="black" stroke="black" points="623.46,-224.42 613.03,-222.56 620.02,-230.52 623.46,-224.42"/>
<text text-anchor="middle" x="696.34" y="-247.8" font-family="Times,serif" font-size="14.00">विशेषणम्</text>
</g>
<!-- Node4_1 -->
<g id="node7" class="node">
<title>Node4_1</title>
<ellipse fill="#40e0d0" stroke="#40e0d0" cx="672.84" cy="-34" rx="52.79" ry="18"/>
<text text-anchor="middle" x="672.84" y="-30.3" font-family="Times,serif" font-size="14.00">षड्भिः(4.1)</text>
</g>
<!-- Node5_2 -->
<g id="node8" class="node">
<title>Node5_2</title>
<ellipse fill="#40e0d0" stroke="#40e0d0" cx="681.84" cy="-121" rx="43.59" ry="18"/>
<text text-anchor="middle" x="681.84" y="-117.3" font-family="Times,serif" font-size="14.00">रथैः(5.2)</text>
</g>
<!-- Node4_1&#45;&gt;Node5_2 -->
<g id="edge7" class="edge">
<title>Node4_1&#45;&gt;Node5_2</title>
<path fill="none" stroke="black" d="M675.73,-62.27C677.14,-75.58 678.79,-91.19 680.03,-102.82"/>
<polygon fill="black" stroke="black" points="679.2,-61.78 674.67,-52.2 672.24,-62.51 679.2,-61.78"/>
<text text-anchor="middle" x="700.34" y="-73.8" font-family="Times,serif" font-size="14.00">विशेषणम्</text>
</g>
<!-- Node5_2&#45;&gt;Node6_1 -->
<g id="edge9" class="edge">
<title>Node5_2&#45;&gt;Node6_1</title>
<path fill="none" stroke="black" d="M693.56,-148.2C699.68,-161.9 707,-178.26 712.35,-190.24"/>
<polygon fill="black" stroke="black" points="696.63,-146.49 689.35,-138.79 690.24,-149.35 696.63,-146.49"/>
<text text-anchor="middle" x="719.34" y="-160.8" font-family="Times,serif" font-size="14.00">करणम्</text>
</g>
<!-- Node2_1 -->
<g id="node9" class="node">
<title>Node2_1</title>
<ellipse fill="#ff99ff" stroke="#ff99ff" cx="415.84" cy="-121" rx="37.89" ry="18"/>
<text text-anchor="middle" x="415.84" y="-117.3" font-family="Times,serif" font-size="14.00">च(2.1)</text>
</g>
<!-- Node2_1&#45;&gt;Node1_1 -->
<g id="edge3" class="edge">
<title>Node2_1&#45;&gt;Node1_1</title>
<path fill="none" stroke="black" d="M415.84,-149.27C415.84,-162.58 415.84,-178.19 415.84,-189.82"/>
<polygon fill="black" stroke="black" points="419.34,-149.2 415.84,-139.2 412.34,-149.2 419.34,-149.2"/>
<text text-anchor="middle" x="434.34" y="-160.8" font-family="Times,serif" font-size="14.00">सम्बन्धः</text>
</g>
<!-- Node3_1 -->
<g id="node10" class="node">
<title>Node3_1</title>
<ellipse fill="#ffff00" stroke="#ffff00" cx="910.84" cy="-34" rx="55.79" ry="18"/>
<text text-anchor="middle" x="910.84" y="-30.3" font-family="Times,serif" font-size="14.00">पाण्डव&#45;(3.1)</text>
</g>
<!-- Node3_2 -->
<g id="node11" class="node">
<title>Node3_2</title>
<ellipse fill="#ffff00" stroke="#ffff00" cx="902.84" cy="-121" rx="46.59" ry="18"/>
<text text-anchor="middle" x="902.84" y="-117.3" font-family="Times,serif" font-size="14.00">दाय&#45;(3.2)</text>
</g>
<!-- Node3_1&#45;&gt;Node3_2 -->
<g id="edge4" class="edge">
<title>Node3_1&#45;&gt;Node3_2</title>
<path fill="none" stroke="black" d="M908.28,-62.27C907.03,-75.58 905.56,-91.19 904.46,-102.82"/>
<polygon fill="black" stroke="black" points="911.77,-62.49 909.23,-52.2 904.8,-61.83 911.77,-62.49"/>
<text text-anchor="middle" x="923.84" y="-73.8" font-family="Times,serif" font-size="14.00">समासः</text>
</g>
<!-- Node3_2&#45;&gt;Node3_3 -->
<g id="edge5" class="edge">
<title>Node3_2&#45;&gt;Node3_3</title>
<path fill="none" stroke="black" d="M881.75,-145.91C869.14,-160.2 853.46,-177.98 842.26,-190.66"/>
<polygon fill="black" stroke="black" points="884.39,-148.2 888.38,-138.39 879.14,-143.57 884.39,-148.2"/>
<text text-anchor="middle" x="885.84" y="-160.8" font-family="Times,serif" font-size="14.00">समासः</text>
</g>
<!-- Node5_1 -->
<g id="node12" class="node">
<title>Node5_1</title>
<ellipse fill="#ffff00" stroke="#ffff00" cx="789.84" cy="-34" rx="46.59" ry="18"/>
<text text-anchor="middle" x="789.84" y="-30.3" font-family="Times,serif" font-size="14.00">महा&#45;(5.1)</text>
</g>
<!-- Node5_1&#45;&gt;Node5_2 -->
<g id="edge8" class="edge">
<title>Node5_1&#45;&gt;Node5_2</title>
<path fill="none" stroke="black" d="M762.29,-56.97C751.28,-65.71 738.48,-75.86 726.84,-85 718.6,-91.48 709.46,-98.6 701.59,-104.71"/>
<polygon fill="black" stroke="black" points="764.66,-59.55 770.3,-50.59 760.3,-54.08 764.66,-59.55"/>
<text text-anchor="middle" x="760.84" y="-73.8" font-family="Times,serif" font-size="14.00">समासः</text>
</g>
<!-- Node10_1 -->
<g id="node14" class="node">
<title>Node10_1</title>
<ellipse fill="#b4ffb4" stroke="#b4ffb4" cx="57.84" cy="-295" rx="57.69" ry="18"/>
<text text-anchor="middle" x="57.84" y="-291.3" font-family="Times,serif" font-size="14.00">योगात्(10.1)</text>
</g>
<!-- Node10_1&#45;&gt;Node13_1 -->
<g id="edge14" class="edge">
<title>Node10_1&#45;&gt;Node13_1</title>
<path fill="none" stroke="black" d="M98.23,-314.46C132.46,-330.1 180.86,-352.22 212.3,-366.58"/>
<polygon fill="black" stroke="black" points="99.53,-311.2 88.98,-310.23 96.62,-317.57 99.53,-311.2"/>
<text text-anchor="middle" x="172.34" y="-334.8" font-family="Times,serif" font-size="14.00">हेतुः</text>
</g>
<!-- Node11_1 -->
<g id="node15" class="node">
<title>Node11_1</title>
<ellipse fill="#ff99ff" stroke="#ff99ff" cx="57.84" cy="-208" rx="47.39" ry="18"/>
<text text-anchor="middle" x="57.84" y="-204.3" font-family="Times,serif" font-size="14.00">एव(11.1)</text>
</g>
<!-- Node11_1&#45;&gt;Node10_1 -->
<g id="edge15" class="edge">
<title>Node11_1&#45;&gt;Node10_1</title>
<path fill="none" stroke="black" d="M57.84,-236.27C57.84,-249.58 57.84,-265.19 57.84,-276.82"/>
<polygon fill="black" stroke="black" points="61.34,-236.2 57.84,-226.2 54.34,-236.2 61.34,-236.2"/>
<text text-anchor="middle" x="76.34" y="-247.8" font-family="Times,serif" font-size="14.00">सम्बन्धः</text>
</g>
<!-- Node12_1 -->
<g id="node16" class="node">
<title>Node12_1</title>
<ellipse fill="#ff99ff" stroke="#ff99ff" cx="185.84" cy="-295" rx="52.79" ry="18"/>
<text text-anchor="middle" x="185.84" y="-291.3" font-family="Times,serif" font-size="14.00">द्विधा(12.1)</text>
</g>
<!-- Node12_1&#45;&gt;Node13_1 -->
<g id="edge16" class="edge">
<title>Node12_1&#45;&gt;Node13_1</title>
<path fill="none" stroke="black" d="M197.13,-322.15C201.02,-330.09 205.71,-338.65 210.84,-346 215.34,-352.44 220.98,-358.86 226.33,-364.42"/>
<polygon fill="black" stroke="black" points="200.21,-320.47 192.8,-312.9 193.87,-323.44 200.21,-320.47"/>
<text text-anchor="middle" x="245.84" y="-334.8" font-family="Times,serif" font-size="14.00">क्रियाविशेषणम्</text>
</g>
<!-- Node14_1 -->
<g id="node17" class="node">
<title>Node14_1</title>
<ellipse fill="#ff99ff" stroke="#ff99ff" cx="302.84" cy="-295" rx="46.59" ry="18"/>
<text text-anchor="middle" x="302.84" y="-291.3" font-family="Times,serif" font-size="14.00">इह(14.1)</text>
</g>
<!-- Node14_1&#45;&gt;Node13_1 -->
<g id="edge17" class="edge">
<title>Node14_1&#45;&gt;Node13_1</title>
<path fill="none" stroke="black" d="M293.45,-322.64C290.07,-330.51 285.84,-338.91 280.84,-346 276.06,-352.79 269.8,-359.32 263.79,-364.85"/>
<polygon fill="black" stroke="black" points="296.8,-323.67 297.26,-313.09 290.3,-321.08 296.8,-323.67"/>
<text text-anchor="middle" x="325.34" y="-334.8" font-family="Times,serif" font-size="14.00">कालाधिकरणम्</text>
</g>
</g>
</svg>
