<?xml version="1.0" encoding="UTF-8" standalone="no"?>
<!DOCTYPE svg PUBLIC "-//W3C//DTD SVG 1.1//EN"
 "http://www.w3.org/Graphics/SVG/1.1/DTD/svg11.dtd">
<!-- Generated by graphviz version 2.43.0 (0)
 -->
<!-- Title: G Pages: 1 -->
<svg width="780pt" height="321pt"
 viewBox="0.00 0.00 780.19 321.00" xmlns="http://www.w3.org/2000/svg" xmlns:xlink="http://www.w3.org/1999/xlink">
<g id="graph0" class="graph" transform="scale(1 1) rotate(0) translate(4 317)">
<title>G</title>
<polygon fill="#fffacd" stroke="transparent" points="-4,4 -4,-317 776.19,-317 776.19,4 -4,4"/>
<g id="clust1" class="cluster">
<title>cluster_1</title>
<polygon fill="#fffacd" stroke="black" points="8,-8 8,-147 212,-147 212,-8 8,-8"/>
</g>
<!-- Node1_1 -->
<g id="node1" class="node">
<title>Node1_1</title>
<ellipse fill="#00bfff" stroke="#00bfff" cx="164" cy="-34" rx="40.09" ry="18"/>
<text text-anchor="middle" x="164" y="-30.3" font-family="Times,serif" font-size="14.00">सः(1.1)</text>
</g>
<!-- Node3_2 -->
<g id="node2" class="node">
<title>Node3_2</title>
<ellipse fill="#00bfff" stroke="#00bfff" cx="152" cy="-121" rx="51.99" ry="18"/>
<text text-anchor="middle" x="152" y="-117.3" font-family="Times,serif" font-size="14.00">अर्णवः(3.2)</text>
</g>
<!-- Node1_1&#45;&gt;Node3_2 -->
<g id="edge1" class="edge">
<title>Node1_1&#45;&gt;Node3_2</title>
<path fill="none" stroke="black" d="M160.15,-62.27C158.27,-75.58 156.07,-91.19 154.42,-102.82"/>
<polygon fill="black" stroke="black" points="163.64,-62.59 161.57,-52.2 156.71,-61.61 163.64,-62.59"/>
<text text-anchor="middle" x="181.5" y="-73.8" font-family="Times,serif" font-size="14.00">विशेषणम्</text>
</g>
<!-- Node10_1 -->
<g id="node5" class="node">
<title>Node10_1</title>
<ellipse fill="#ff1975" stroke="#ff1975" cx="475" cy="-295" rx="61.99" ry="18"/>
<text text-anchor="middle" x="475" y="-291.3" font-family="Times,serif" font-size="14.00">अकरोत्(10.1)</text>
</g>
<!-- Node3_2&#45;&gt;Node10_1 -->
<g id="edge4" class="edge">
<title>Node3_2&#45;&gt;Node10_1</title>
<path fill="none" stroke="black" d="M155.65,-149.27C160.26,-172.95 170.52,-206.45 193,-226 226.48,-255.13 347.53,-276.38 419.7,-286.79"/>
<polygon fill="black" stroke="black" points="159.05,-148.42 153.9,-139.16 152.15,-149.61 159.05,-148.42"/>
<text text-anchor="middle" x="204" y="-204.3" font-family="Times,serif" font-size="14.00">कर्ता</text>
</g>
<!-- Node6_1 -->
<g id="node6" class="node">
<title>Node6_1</title>
<ellipse fill="#ff99ff" stroke="#ff99ff" cx="282" cy="-208" rx="58.49" ry="18"/>
<text text-anchor="middle" x="282" y="-204.3" font-family="Times,serif" font-size="14.00">समासाद्य(6.1)</text>
</g>
<!-- Node3_2&#45;&gt;Node6_1 -->
<g id="edge5" class="edge">
<title>Node3_2&#45;&gt;Node6_1</title>
<path fill="none" stroke="black" stroke-dasharray="1,5" d="M183.63,-142.68C206.58,-157.69 237.15,-177.67 258.08,-191.36"/>
<polygon fill="black" stroke="black" points="185.53,-139.74 175.24,-137.2 181.7,-145.6 185.53,-139.74"/>
<text text-anchor="middle" x="235" y="-160.8" font-family="Times,serif" font-size="14.00">कर्ता</text>
</g>
<!-- Node2_1 -->
<g id="node3" class="node">
<title>Node2_1</title>
<ellipse fill="#00bfff" stroke="#00bfff" cx="61" cy="-34" rx="44.69" ry="18"/>
<text text-anchor="middle" x="61" y="-30.3" font-family="Times,serif" font-size="14.00">सर्वः(2.1)</text>
</g>
<!-- Node2_1&#45;&gt;Node3_2 -->
<g id="edge2" class="edge">
<title>Node2_1&#45;&gt;Node3_2</title>
<path fill="none" stroke="black" d="M82.64,-58.72C90.69,-67.23 100.06,-76.76 109,-85 116.08,-91.52 124.19,-98.29 131.44,-104.12"/>
<polygon fill="black" stroke="black" points="85.04,-56.17 75.65,-51.25 79.93,-60.95 85.04,-56.17"/>
<text text-anchor="middle" x="131.5" y="-73.8" font-family="Times,serif" font-size="14.00">विशेषणम्</text>
</g>
<!-- Node3_1 -->
<g id="node4" class="node">
<title>Node3_1</title>
<ellipse fill="#ffff00" stroke="#ffff00" cx="268" cy="-34" rx="46.29" ry="18"/>
<text text-anchor="middle" x="268" y="-30.3" font-family="Times,serif" font-size="14.00">जन&#45;(3.1)</text>
</g>
<!-- Node3_1&#45;&gt;Node3_2 -->
<g id="edge3" class="edge">
<title>Node3_1&#45;&gt;Node3_2</title>
<path fill="none" stroke="black" d="M242.8,-57.31C232.3,-66.25 219.82,-76.45 208,-85 198.25,-92.06 187.08,-99.22 177.29,-105.2"/>
<polygon fill="black" stroke="black" points="245.11,-59.94 250.4,-50.76 240.54,-54.63 245.11,-59.94"/>
<text text-anchor="middle" x="243" y="-73.8" font-family="Times,serif" font-size="14.00">समासः</text>
</g>
<!-- Node6_1&#45;&gt;Node10_1 -->
<g id="edge8" class="edge">
<title>Node6_1&#45;&gt;Node10_1</title>
<path fill="none" stroke="black" d="M323.9,-227.46C359.42,-243.1 409.65,-265.22 442.27,-279.58"/>
<polygon fill="black" stroke="black" points="324.87,-224.05 314.3,-223.23 322.04,-230.46 324.87,-224.05"/>
<text text-anchor="middle" x="410.5" y="-247.8" font-family="Times,serif" font-size="14.00">पूर्वकालः</text>
</g>
<!-- Node4_1 -->
<g id="node7" class="node">
<title>Node4_1</title>
<ellipse fill="#40e0d0" stroke="#40e0d0" cx="272" cy="-121" rx="50.09" ry="18"/>
<text text-anchor="middle" x="272" y="-117.3" font-family="Times,serif" font-size="14.00">क्रमेण(4.1)</text>
</g>
<!-- Node4_1&#45;&gt;Node6_1 -->
<g id="edge6" class="edge">
<title>Node4_1&#45;&gt;Node6_1</title>
<path fill="none" stroke="black" d="M275.21,-149.27C276.77,-162.58 278.61,-178.19 279.98,-189.82"/>
<polygon fill="black" stroke="black" points="278.67,-148.72 274.02,-139.2 271.72,-149.54 278.67,-148.72"/>
<text text-anchor="middle" x="312" y="-160.8" font-family="Times,serif" font-size="14.00">क्रियाविशेषणम्</text>
</g>
<!-- Node5_1 -->
<g id="node8" class="node">
<title>Node5_1</title>
<ellipse fill="#93db70" stroke="#93db70" cx="395" cy="-121" rx="54.69" ry="18"/>
<text text-anchor="middle" x="395" y="-117.3" font-family="Times,serif" font-size="14.00">गङ्गाम्(5.1)</text>
</g>
<!-- Node5_1&#45;&gt;Node6_1 -->
<g id="edge7" class="edge">
<title>Node5_1&#45;&gt;Node6_1</title>
<path fill="none" stroke="black" d="M376.41,-146.79C369.12,-155.45 360.28,-164.81 351,-172 340.28,-180.31 327.27,-187.51 315.46,-193.18"/>
<polygon fill="black" stroke="black" points="379.32,-148.75 382.89,-138.78 373.88,-144.35 379.32,-148.75"/>
<text text-anchor="middle" x="376" y="-160.8" font-family="Times,serif" font-size="14.00">कर्म</text>
</g>
<!-- Node7_1 -->
<g id="node9" class="node">
<title>Node7_1</title>
<ellipse fill="#ffff00" stroke="#ffff00" cx="516" cy="-121" rx="48.19" ry="18"/>
<text text-anchor="middle" x="516" y="-117.3" font-family="Times,serif" font-size="14.00">यथा&#45;(7.1)</text>
</g>
<!-- Node7_2 -->
<g id="node10" class="node">
<title>Node7_2</title>
<ellipse fill="#00bfff" stroke="#00bfff" cx="475" cy="-208" rx="46.59" ry="18"/>
<text text-anchor="middle" x="475" y="-204.3" font-family="Times,serif" font-size="14.00">प्रीति(7.2)</text>
</g>
<!-- Node7_1&#45;&gt;Node7_2 -->
<g id="edge9" class="edge">
<title>Node7_1&#45;&gt;Node7_2</title>
<path fill="none" stroke="black" d="M503.36,-148.2C496.76,-161.9 488.86,-178.26 483.08,-190.24"/>
<polygon fill="black" stroke="black" points="506.71,-149.32 507.9,-138.79 500.4,-146.28 506.71,-149.32"/>
<text text-anchor="middle" x="514" y="-160.8" font-family="Times,serif" font-size="14.00">समासः</text>
</g>
<!-- Node7_2&#45;&gt;Node10_1 -->
<g id="edge10" class="edge">
<title>Node7_2&#45;&gt;Node10_1</title>
<path fill="none" stroke="black" d="M475,-236.27C475,-249.58 475,-265.19 475,-276.82"/>
<polygon fill="black" stroke="black" points="478.5,-236.2 475,-226.2 471.5,-236.2 478.5,-236.2"/>
<text text-anchor="middle" x="510" y="-247.8" font-family="Times,serif" font-size="14.00">क्रियाविशेषणम्</text>
</g>
<!-- Node8_1 -->
<g id="node11" class="node">
<title>Node8_1</title>
<ellipse fill="#ffff00" stroke="#ffff00" cx="630" cy="-121" rx="48.19" ry="18"/>
<text text-anchor="middle" x="630" y="-117.3" font-family="Times,serif" font-size="14.00">यथा&#45;(8.1)</text>
</g>
<!-- Node8_2 -->
<g id="node12" class="node">
<title>Node8_2</title>
<ellipse fill="#00bfff" stroke="#00bfff" cx="590" cy="-208" rx="50.09" ry="18"/>
<text text-anchor="middle" x="590" y="-204.3" font-family="Times,serif" font-size="14.00">सुखम्(8.2)</text>
</g>
<!-- Node8_1&#45;&gt;Node8_2 -->
<g id="edge11" class="edge">
<title>Node8_1&#45;&gt;Node8_2</title>
<path fill="none" stroke="black" d="M617.7,-148.13C611.3,-161.73 603.66,-177.98 598.02,-189.95"/>
<polygon fill="black" stroke="black" points="621.01,-149.33 622.1,-138.79 614.67,-146.35 621.01,-149.33"/>
<text text-anchor="middle" x="629" y="-160.8" font-family="Times,serif" font-size="14.00">समासः</text>
</g>
<!-- Node8_2&#45;&gt;Node10_1 -->
<g id="edge12" class="edge">
<title>Node8_2&#45;&gt;Node10_1</title>
<path fill="none" stroke="black" d="M573.05,-233.98C566.29,-242.67 557.99,-251.98 549,-259 537.91,-267.66 524.33,-274.85 511.85,-280.42"/>
<polygon fill="black" stroke="black" points="575.87,-236.05 579.02,-225.94 570.25,-231.88 575.87,-236.05"/>
<text text-anchor="middle" x="599" y="-247.8" font-family="Times,serif" font-size="14.00">क्रियाविशेषणम्</text>
</g>
<!-- Node9_1 -->
<g id="node13" class="node">
<title>Node9_1</title>
<ellipse fill="#93db70" stroke="#93db70" cx="715" cy="-208" rx="57.39" ry="18"/>
<text text-anchor="middle" x="715" y="-204.3" font-family="Times,serif" font-size="14.00">निवासम्(9.1)</text>
</g>
<!-- Node9_1&#45;&gt;Node10_1 -->
<g id="edge13" class="edge">
<title>Node9_1&#45;&gt;Node10_1</title>
<path fill="none" stroke="black" d="M686.7,-230.95C672.72,-240.83 655.19,-251.86 638,-259 603.79,-273.21 563.04,-281.96 530.84,-287.16"/>
<polygon fill="black" stroke="black" points="688.87,-233.69 694.91,-224.99 684.76,-228.03 688.87,-233.69"/>
<text text-anchor="middle" x="673" y="-247.8" font-family="Times,serif" font-size="14.00">कर्म</text>
</g>
</g>
</svg>
