<?xml version="1.0" encoding="UTF-8" standalone="no"?>
<!DOCTYPE svg PUBLIC "-//W3C//DTD SVG 1.1//EN"
 "http://www.w3.org/Graphics/SVG/1.1/DTD/svg11.dtd">
<!-- Generated by graphviz version 2.43.0 (0)
 -->
<!-- Title: G Pages: 1 -->
<svg width="841pt" height="479pt"
 viewBox="0.00 0.00 840.75 479.00" xmlns="http://www.w3.org/2000/svg" xmlns:xlink="http://www.w3.org/1999/xlink">
<g id="graph0" class="graph" transform="scale(1 1) rotate(0) translate(4 475)">
<title>G</title>
<polygon fill="#fffacd" stroke="transparent" points="-4,4 -4,-475 836.75,-475 836.75,4 -4,4"/>
<g id="clust1" class="cluster">
<title>cluster_1</title>
<polygon fill="#fffacd" stroke="black" points="606,-166 606,-305 732,-305 732,-166 606,-166"/>
</g>
<g id="clust2" class="cluster">
<title>cluster_2</title>
<polygon fill="#fffacd" stroke="black" points="8,-253 8,-392 136,-392 136,-253 8,-253"/>
</g>
<!-- Node4_2 -->
<g id="node1" class="node">
<title>Node4_2</title>
<ellipse fill="#00bfff" stroke="#00bfff" cx="669" cy="-192" rx="54.69" ry="18"/>
<text text-anchor="middle" x="669" y="-188.3" font-family="Times,serif" font-size="14.00">उत्थिता(4.2)</text>
</g>
<!-- Node5_1 -->
<g id="node2" class="node">
<title>Node5_1</title>
<ellipse fill="#00bfff" stroke="#00bfff" cx="669" cy="-279" rx="44.39" ry="18"/>
<text text-anchor="middle" x="669" y="-275.3" font-family="Times,serif" font-size="14.00">वधूः(5.1)</text>
</g>
<!-- Node4_2&#45;&gt;Node5_1 -->
<g id="edge5" class="edge">
<title>Node4_2&#45;&gt;Node5_1</title>
<path fill="none" stroke="black" d="M669,-220.27C669,-233.58 669,-249.19 669,-260.82"/>
<polygon fill="black" stroke="black" points="672.5,-220.2 669,-210.2 665.5,-220.2 672.5,-220.2"/>
<text text-anchor="middle" x="691.5" y="-231.8" font-family="Times,serif" font-size="14.00">विशेषणम्</text>
</g>
<!-- Node9_1 -->
<g id="node9" class="node">
<title>Node9_1</title>
<ellipse fill="#93db70" stroke="#93db70" cx="669" cy="-366" rx="50.09" ry="18"/>
<text text-anchor="middle" x="669" y="-362.3" font-family="Times,serif" font-size="14.00">पुत्रान्(9.1)</text>
</g>
<!-- Node5_1&#45;&gt;Node9_1 -->
<g id="edge6" class="edge">
<title>Node5_1&#45;&gt;Node9_1</title>
<path fill="none" stroke="black" d="M669,-307.27C669,-320.58 669,-336.19 669,-347.82"/>
<polygon fill="black" stroke="black" points="672.5,-307.2 669,-297.2 665.5,-307.2 672.5,-307.2"/>
<text text-anchor="middle" x="689.5" y="-318.8" font-family="Times,serif" font-size="14.00">उपमानम्</text>
</g>
<!-- Node7_1 -->
<g id="node3" class="node">
<title>Node7_1</title>
<ellipse fill="#6fffc3" stroke="#6fffc3" cx="72" cy="-279" rx="42.49" ry="18"/>
<text text-anchor="middle" x="72" y="-275.3" font-family="Times,serif" font-size="14.00">भद्रे(7.1)</text>
</g>
<!-- Node8_1 -->
<g id="node4" class="node">
<title>Node8_1</title>
<ellipse fill="#6fffc3" stroke="#6fffc3" cx="72" cy="-366" rx="55.79" ry="18"/>
<text text-anchor="middle" x="72" y="-362.3" font-family="Times,serif" font-size="14.00">गान्धारि(8.1)</text>
</g>
<!-- Node7_1&#45;&gt;Node8_1 -->
<g id="edge8" class="edge">
<title>Node7_1&#45;&gt;Node8_1</title>
<path fill="none" stroke="black" d="M72,-307.27C72,-320.58 72,-336.19 72,-347.82"/>
<polygon fill="black" stroke="black" points="75.5,-307.2 72,-297.2 68.5,-307.2 75.5,-307.2"/>
<text text-anchor="middle" x="94.5" y="-318.8" font-family="Times,serif" font-size="14.00">विशेषणम्</text>
</g>
<!-- Node14_1 -->
<g id="node11" class="node">
<title>Node14_1</title>
<ellipse fill="#ff1975" stroke="#ff1975" cx="345" cy="-453" rx="59.59" ry="18"/>
<text text-anchor="middle" x="345" y="-449.3" font-family="Times,serif" font-size="14.00">द्रक्ष्यसि(14.1)</text>
</g>
<!-- Node8_1&#45;&gt;Node14_1 -->
<g id="edge9" class="edge">
<title>Node8_1&#45;&gt;Node14_1</title>
<path fill="none" stroke="black" d="M108.25,-386.69C128.33,-396.93 154.02,-408.96 178,-417 215.49,-429.58 259.3,-438.56 292.63,-444.27"/>
<polygon fill="black" stroke="black" points="109.65,-383.48 99.16,-381.99 106.43,-389.69 109.65,-383.48"/>
<text text-anchor="middle" x="199" y="-405.8" font-family="Times,serif" font-size="14.00">सम्बोध्यः</text>
</g>
<!-- Node1_1 -->
<g id="node5" class="node">
<title>Node1_1</title>
<ellipse fill="#40e0d0" stroke="#40e0d0" cx="548" cy="-105" rx="55.49" ry="18"/>
<text text-anchor="middle" x="548" y="-101.3" font-family="Times,serif" font-size="14.00">पतिभिः(1.1)</text>
</g>
<!-- Node1_1&#45;&gt;Node4_2 -->
<g id="edge1" class="edge">
<title>Node1_1&#45;&gt;Node4_2</title>
<path fill="none" stroke="black" d="M578.58,-127.48C599.88,-142.45 627.8,-162.06 646.95,-175.51"/>
<polygon fill="black" stroke="black" points="580.39,-124.47 570.19,-121.59 576.36,-130.2 580.39,-124.47"/>
<text text-anchor="middle" x="632" y="-144.8" font-family="Times,serif" font-size="14.00">सहार्थः</text>
</g>
<!-- Node2_1 -->
<g id="node6" class="node">
<title>Node2_1</title>
<ellipse fill="#ff99ff" stroke="#ff99ff" cx="548" cy="-18" rx="46.29" ry="18"/>
<text text-anchor="middle" x="548" y="-14.3" font-family="Times,serif" font-size="14.00">सार्धं(2.1)</text>
</g>
<!-- Node2_1&#45;&gt;Node1_1 -->
<g id="edge2" class="edge">
<title>Node2_1&#45;&gt;Node1_1</title>
<path fill="none" stroke="black" d="M548,-46.27C548,-59.58 548,-75.19 548,-86.82"/>
<polygon fill="black" stroke="black" points="551.5,-46.2 548,-36.2 544.5,-46.2 551.5,-46.2"/>
<text text-anchor="middle" x="581.5" y="-57.8" font-family="Times,serif" font-size="14.00">सहार्थ_द्योतकः</text>
</g>
<!-- Node3_1 -->
<g id="node7" class="node">
<title>Node3_1</title>
<ellipse fill="#c6e2eb" stroke="#c6e2eb" cx="669" cy="-105" rx="48.19" ry="18"/>
<text text-anchor="middle" x="669" y="-101.3" font-family="Times,serif" font-size="14.00">निशि(3.1)</text>
</g>
<!-- Node3_1&#45;&gt;Node4_2 -->
<g id="edge3" class="edge">
<title>Node3_1&#45;&gt;Node4_2</title>
<path fill="none" stroke="black" d="M669,-133.27C669,-146.58 669,-162.19 669,-173.82"/>
<polygon fill="black" stroke="black" points="672.5,-133.2 669,-123.2 665.5,-133.2 672.5,-133.2"/>
<text text-anchor="middle" x="704.5" y="-144.8" font-family="Times,serif" font-size="14.00">कालाधिकरणम्</text>
</g>
<!-- Node4_1 -->
<g id="node8" class="node">
<title>Node4_1</title>
<ellipse fill="#ffff00" stroke="#ffff00" cx="784" cy="-105" rx="48.99" ry="18"/>
<text text-anchor="middle" x="784" y="-101.3" font-family="Times,serif" font-size="14.00">सुप्त&#45;(4.1)</text>
</g>
<!-- Node4_1&#45;&gt;Node4_2 -->
<g id="edge4" class="edge">
<title>Node4_1&#45;&gt;Node4_2</title>
<path fill="none" stroke="black" d="M767.37,-131.29C760.83,-139.9 752.78,-149.09 744,-156 732.37,-165.15 717.95,-172.6 704.88,-178.24"/>
<polygon fill="black" stroke="black" points="770.37,-133.13 773.38,-122.97 764.69,-129.03 770.37,-133.13"/>
<text text-anchor="middle" x="777" y="-144.8" font-family="Times,serif" font-size="14.00">समासः</text>
</g>
<!-- Node9_1&#45;&gt;Node14_1 -->
<g id="edge10" class="edge">
<title>Node9_1&#45;&gt;Node14_1</title>
<path fill="none" stroke="black" d="M629.48,-384.55C622.72,-387.24 615.71,-389.83 609,-392 536.31,-415.46 449.53,-433.31 395.84,-443.22"/>
<polygon fill="black" stroke="black" points="631.23,-387.61 639.15,-380.58 628.57,-381.14 631.23,-387.61"/>
<text text-anchor="middle" x="583" y="-405.8" font-family="Times,serif" font-size="14.00">कर्म</text>
</g>
<!-- Node6_1 -->
<g id="node10" class="node">
<title>Node6_1</title>
<ellipse fill="#ff99ff" stroke="#ff99ff" cx="187" cy="-366" rx="40.89" ry="18"/>
<text text-anchor="middle" x="187" y="-362.3" font-family="Times,serif" font-size="14.00">इव(6.1)</text>
</g>
<!-- Node6_1&#45;&gt;Node14_1 -->
<g id="edge7" class="edge">
<title>Node6_1&#45;&gt;Node14_1</title>
<path fill="none" stroke="black" d="M209.56,-390.42C219.45,-399.67 231.61,-409.79 244,-417 261.57,-427.22 282.58,-435.1 300.89,-440.77"/>
<polygon fill="black" stroke="black" points="211.78,-387.69 202.16,-383.25 206.91,-392.72 211.78,-387.69"/>
<text text-anchor="middle" x="280.5" y="-405.8" font-family="Times,serif" font-size="14.00">उपमान_द्योतकः</text>
</g>
<!-- Node10_1 -->
<g id="node12" class="node">
<title>Node10_1</title>
<ellipse fill="#93db70" stroke="#93db70" cx="302" cy="-366" rx="55.79" ry="18"/>
<text text-anchor="middle" x="302" y="-362.3" font-family="Times,serif" font-size="14.00">भ्रातन्(10.1)</text>
</g>
<!-- Node10_1&#45;&gt;Node14_1 -->
<g id="edge11" class="edge">
<title>Node10_1&#45;&gt;Node14_1</title>
<path fill="none" stroke="black" d="M315.02,-392.74C321.94,-406.42 330.26,-422.86 336.38,-434.95"/>
<polygon fill="black" stroke="black" points="318.13,-391.14 310.5,-383.79 311.89,-394.3 318.13,-391.14"/>
<text text-anchor="middle" x="336" y="-405.8" font-family="Times,serif" font-size="14.00">कर्म</text>
</g>
<!-- Node11_1 -->
<g id="node13" class="node">
<title>Node11_1</title>
<ellipse fill="#ff99ff" stroke="#ff99ff" cx="378" cy="-279" rx="50.89" ry="18"/>
<text text-anchor="middle" x="378" y="-275.3" font-family="Times,serif" font-size="14.00">तथा(11.1)</text>
</g>
<!-- Node13_1 -->
<g id="node14" class="node">
<title>Node13_1</title>
<ellipse fill="#93db70" stroke="#93db70" cx="434" cy="-366" rx="57.69" ry="18"/>
<text text-anchor="middle" x="434" y="-362.3" font-family="Times,serif" font-size="14.00">सखीन्(13.1)</text>
</g>
<!-- Node11_1&#45;&gt;Node13_1 -->
<g id="edge12" class="edge">
<title>Node11_1&#45;&gt;Node13_1</title>
<path fill="none" stroke="black" d="M394.74,-305.4C403.86,-319.26 414.91,-336.03 422.96,-348.24"/>
<polygon fill="black" stroke="black" points="397.49,-303.22 389.06,-296.79 391.64,-307.07 397.49,-303.22"/>
<text text-anchor="middle" x="428.5" y="-318.8" font-family="Times,serif" font-size="14.00">सम्बन्धः</text>
</g>
<!-- Node13_1&#45;&gt;Node14_1 -->
<g id="edge14" class="edge">
<title>Node13_1&#45;&gt;Node14_1</title>
<path fill="none" stroke="black" d="M409.38,-390.52C394.35,-404.87 375.51,-422.86 362.11,-435.66"/>
<polygon fill="black" stroke="black" points="412.03,-392.83 416.84,-383.39 407.19,-387.76 412.03,-392.83"/>
<text text-anchor="middle" x="404" y="-405.8" font-family="Times,serif" font-size="14.00">कर्म</text>
</g>
<!-- Node12_1 -->
<g id="node15" class="node">
<title>Node12_1</title>
<ellipse fill="#ff99ff" stroke="#ff99ff" cx="490" cy="-279" rx="43.59" ry="18"/>
<text text-anchor="middle" x="490" y="-275.3" font-family="Times,serif" font-size="14.00">च(12.1)</text>
</g>
<!-- Node12_1&#45;&gt;Node13_1 -->
<g id="edge13" class="edge">
<title>Node12_1&#45;&gt;Node13_1</title>
<path fill="none" stroke="black" d="M473.26,-305.4C464.14,-319.26 453.09,-336.03 445.04,-348.24"/>
<polygon fill="black" stroke="black" points="476.36,-307.07 478.94,-296.79 470.51,-303.22 476.36,-307.07"/>
<text text-anchor="middle" x="484.5" y="-318.8" font-family="Times,serif" font-size="14.00">सम्बन्धः</text>
</g>
<!-- Node15_1 -->
<g id="node16" class="node">
<title>Node15_1</title>
<ellipse fill="#00bfff" stroke="#00bfff" cx="555" cy="-366" rx="45.49" ry="18"/>
<text text-anchor="middle" x="555" y="-362.3" font-family="Times,serif" font-size="14.00">त्वं(15.1)</text>
</g>
<!-- Node15_1&#45;&gt;Node14_1 -->
<g id="edge15" class="edge">
<title>Node15_1&#45;&gt;Node14_1</title>
<path fill="none" stroke="black" d="M517.86,-384.59C512.24,-387.13 506.49,-389.68 501,-392 460.52,-409.13 413.31,-427 381.52,-438.73"/>
<polygon fill="black" stroke="black" points="519.5,-387.68 527.13,-380.33 516.58,-381.32 519.5,-387.68"/>
<text text-anchor="middle" x="487" y="-405.8" font-family="Times,serif" font-size="14.00">कर्ता</text>
</g>
</g>
</svg>
