<?xml version="1.0" encoding="UTF-8" standalone="no"?>
<!DOCTYPE svg PUBLIC "-//W3C//DTD SVG 1.1//EN"
 "http://www.w3.org/Graphics/SVG/1.1/DTD/svg11.dtd">
<!-- Generated by graphviz version 2.43.0 (0)
 -->
<!-- Title: G Pages: 1 -->
<svg width="274pt" height="392pt"
 viewBox="0.00 0.00 273.65 392.00" xmlns="http://www.w3.org/2000/svg" xmlns:xlink="http://www.w3.org/1999/xlink">
<g id="graph0" class="graph" transform="scale(1 1) rotate(0) translate(4 388)">
<title>G</title>
<polygon fill="#fffacd" stroke="transparent" points="-4,4 -4,-388 269.65,-388 269.65,4 -4,4"/>
<g id="clust1" class="cluster">
<title>cluster_1</title>
<polygon fill="#fffacd" stroke="black" points="113.65,-79 113.65,-218 229.65,-218 229.65,-79 113.65,-79"/>
</g>
<!-- Node1_1 -->
<g id="node1" class="node">
<title>Node1_1</title>
<ellipse fill="#00bfff" stroke="#00bfff" cx="171.65" cy="-105" rx="39.79" ry="18"/>
<text text-anchor="middle" x="171.65" y="-101.3" font-family="Times,serif" font-size="14.00">यः(1.1)</text>
</g>
<!-- Node4_1 -->
<g id="node2" class="node">
<title>Node4_1</title>
<ellipse fill="#00bfff" stroke="#00bfff" cx="171.65" cy="-192" rx="50.09" ry="18"/>
<text text-anchor="middle" x="171.65" y="-188.3" font-family="Times,serif" font-size="14.00">उद्भूतः(4.1)</text>
</g>
<!-- Node1_1&#45;&gt;Node4_1 -->
<g id="edge1" class="edge">
<title>Node1_1&#45;&gt;Node4_1</title>
<path fill="none" stroke="black" d="M171.65,-133.27C171.65,-146.58 171.65,-162.19 171.65,-173.82"/>
<polygon fill="black" stroke="black" points="175.15,-133.2 171.65,-123.2 168.15,-133.2 175.15,-133.2"/>
<text text-anchor="middle" x="194.15" y="-144.8" font-family="Times,serif" font-size="14.00">विशेषणम्</text>
</g>
<!-- Node6_1 -->
<g id="node5" class="node">
<title>Node6_1</title>
<ellipse fill="#93db70" stroke="#93db70" cx="171.65" cy="-279" rx="51.99" ry="18"/>
<text text-anchor="middle" x="171.65" y="-275.3" font-family="Times,serif" font-size="14.00">(कर्णं)(6.1)</text>
</g>
<!-- Node4_1&#45;&gt;Node6_1 -->
<g id="edge4" class="edge">
<title>Node4_1&#45;&gt;Node6_1</title>
<path fill="none" stroke="black" d="M171.65,-220.27C171.65,-233.58 171.65,-249.19 171.65,-260.82"/>
<polygon fill="black" stroke="black" points="175.15,-220.2 171.65,-210.2 168.15,-220.2 175.15,-220.2"/>
<text text-anchor="middle" x="218.65" y="-231.8" font-family="Times,serif" font-size="14.00">कर्मसमानाधिकरणम्</text>
</g>
<!-- Node2_1 -->
<g id="node3" class="node">
<title>Node2_1</title>
<ellipse fill="#ff99ff" stroke="#ff99ff" cx="171.65" cy="-18" rx="37.89" ry="18"/>
<text text-anchor="middle" x="171.65" y="-14.3" font-family="Times,serif" font-size="14.00">च(2.1)</text>
</g>
<!-- Node2_1&#45;&gt;Node1_1 -->
<g id="edge2" class="edge">
<title>Node2_1&#45;&gt;Node1_1</title>
<path fill="none" stroke="black" d="M171.65,-46.27C171.65,-59.58 171.65,-75.19 171.65,-86.82"/>
<polygon fill="black" stroke="black" points="175.15,-46.2 171.65,-36.2 168.15,-46.2 175.15,-46.2"/>
<text text-anchor="middle" x="190.15" y="-57.8" font-family="Times,serif" font-size="14.00">सम्बन्धः</text>
</g>
<!-- Node3_1 -->
<g id="node4" class="node">
<title>Node3_1</title>
<ellipse fill="#ff99ff" stroke="#ff99ff" cx="52.65" cy="-105" rx="52.79" ry="18"/>
<text text-anchor="middle" x="52.65" y="-101.3" font-family="Times,serif" font-size="14.00">वैरार्थम्(3.1)</text>
</g>
<!-- Node3_1&#45;&gt;Node4_1 -->
<g id="edge3" class="edge">
<title>Node3_1&#45;&gt;Node4_1</title>
<path fill="none" stroke="black" d="M82.72,-127.48C103.67,-142.45 131.13,-162.06 149.96,-175.51"/>
<polygon fill="black" stroke="black" points="84.64,-124.55 74.47,-121.59 80.57,-130.25 84.64,-124.55"/>
<text text-anchor="middle" x="141.15" y="-144.8" font-family="Times,serif" font-size="14.00">प्रयोजनम्</text>
</g>
<!-- Node7_1 -->
<g id="node7" class="node">
<title>Node7_1</title>
<ellipse fill="#ff1975" stroke="#ff1975" cx="102.65" cy="-366" rx="53.89" ry="18"/>
<text text-anchor="middle" x="102.65" y="-362.3" font-family="Times,serif" font-size="14.00">(विद्धि)(7.1)</text>
</g>
<!-- Node6_1&#45;&gt;Node7_1 -->
<g id="edge6" class="edge">
<title>Node6_1&#45;&gt;Node7_1</title>
<path fill="none" stroke="black" d="M156.46,-305.3C151.18,-313.45 144.98,-322.35 138.65,-330 133.2,-336.58 126.65,-343.25 120.63,-348.98"/>
<polygon fill="black" stroke="black" points="159.42,-307.17 161.8,-296.84 153.5,-303.43 159.42,-307.17"/>
<text text-anchor="middle" x="157.65" y="-318.8" font-family="Times,serif" font-size="14.00">कर्म</text>
</g>
<!-- Node5_1 -->
<g id="node6" class="node">
<title>Node5_1</title>
<ellipse fill="#ff99ff" stroke="#ff99ff" cx="56.65" cy="-279" rx="44.69" ry="18"/>
<text text-anchor="middle" x="56.65" y="-275.3" font-family="Times,serif" font-size="14.00">तथा(5.1)</text>
</g>
<!-- Node5_1&#45;&gt;Node7_1 -->
<g id="edge5" class="edge">
<title>Node5_1&#45;&gt;Node7_1</title>
<path fill="none" stroke="black" d="M60.39,-307.09C62.17,-314.81 64.8,-323.01 68.65,-330 72.49,-336.98 78.09,-343.55 83.64,-349.07"/>
<polygon fill="black" stroke="black" points="63.78,-306.18 58.44,-297.03 56.9,-307.51 63.78,-306.18"/>
<text text-anchor="middle" x="103.65" y="-318.8" font-family="Times,serif" font-size="14.00">क्रियाविशेषणम्</text>
</g>
</g>
</svg>
