<?xml version="1.0" encoding="UTF-8" standalone="no"?>
<!DOCTYPE svg PUBLIC "-//W3C//DTD SVG 1.1//EN"
 "http://www.w3.org/Graphics/SVG/1.1/DTD/svg11.dtd">
<!-- Generated by graphviz version 2.43.0 (0)
 -->
<!-- Title: G Pages: 1 -->
<svg width="607pt" height="392pt"
 viewBox="0.00 0.00 607.09 392.00" xmlns="http://www.w3.org/2000/svg" xmlns:xlink="http://www.w3.org/1999/xlink">
<g id="graph0" class="graph" transform="scale(1 1) rotate(0) translate(4 388)">
<title>G</title>
<polygon fill="#fffacd" stroke="transparent" points="-4,4 -4,-388 603.09,-388 603.09,4 -4,4"/>
<g id="clust1" class="cluster">
<title>cluster_1</title>
<polygon fill="#fffacd" stroke="black" points="264,-166 264,-305 394,-305 394,-166 264,-166"/>
</g>
<g id="clust2" class="cluster">
<title>cluster_2</title>
<polygon fill="#fffacd" stroke="black" points="8,-166 8,-305 124,-305 124,-166 8,-166"/>
</g>
<!-- Node4_1 -->
<g id="node1" class="node">
<title>Node4_1</title>
<ellipse fill="#93db70" stroke="#93db70" cx="329" cy="-192" rx="56.59" ry="18"/>
<text text-anchor="middle" x="329" y="-188.3" font-family="Times,serif" font-size="14.00">सम्भूतम्(4.1)</text>
</g>
<!-- Node5_1 -->
<g id="node2" class="node">
<title>Node5_1</title>
<ellipse fill="#93db70" stroke="#93db70" cx="328" cy="-279" rx="53.89" ry="18"/>
<text text-anchor="middle" x="328" y="-275.3" font-family="Times,serif" font-size="14.00">दृष्टद्युम्नं(5.1)</text>
</g>
<!-- Node4_1&#45;&gt;Node5_1 -->
<g id="edge4" class="edge">
<title>Node4_1&#45;&gt;Node5_1</title>
<path fill="none" stroke="black" d="M328.68,-220.27C328.52,-233.58 328.34,-249.19 328.2,-260.82"/>
<polygon fill="black" stroke="black" points="332.18,-220.24 328.8,-210.2 325.18,-220.16 332.18,-220.24"/>
<text text-anchor="middle" x="351.5" y="-231.8" font-family="Times,serif" font-size="14.00">विशेषणम्</text>
</g>
<!-- Node9_1 -->
<g id="node8" class="node">
<title>Node9_1</title>
<ellipse fill="#ff1975" stroke="#ff1975" cx="195" cy="-366" rx="46.59" ry="18"/>
<text text-anchor="middle" x="195" y="-362.3" font-family="Times,serif" font-size="14.00">विद्धि(9.1)</text>
</g>
<!-- Node5_1&#45;&gt;Node9_1 -->
<g id="edge5" class="edge">
<title>Node5_1&#45;&gt;Node9_1</title>
<path fill="none" stroke="black" d="M295.79,-300.59C271.8,-315.92 239.61,-336.49 218.13,-350.22"/>
<polygon fill="black" stroke="black" points="297.68,-303.53 304.22,-295.2 293.91,-297.63 297.68,-303.53"/>
<text text-anchor="middle" x="290" y="-318.8" font-family="Times,serif" font-size="14.00">मुख्यकर्म</text>
</g>
<!-- Node7_1 -->
<g id="node3" class="node">
<title>Node7_1</title>
<ellipse fill="#93db70" stroke="#93db70" cx="66" cy="-192" rx="44.39" ry="18"/>
<text text-anchor="middle" x="66" y="-188.3" font-family="Times,serif" font-size="14.00">शुभं(7.1)</text>
</g>
<!-- Node8_1 -->
<g id="node4" class="node">
<title>Node8_1</title>
<ellipse fill="#93db70" stroke="#93db70" cx="66" cy="-279" rx="50.09" ry="18"/>
<text text-anchor="middle" x="66" y="-275.3" font-family="Times,serif" font-size="14.00">भागम्(8.1)</text>
</g>
<!-- Node7_1&#45;&gt;Node8_1 -->
<g id="edge7" class="edge">
<title>Node7_1&#45;&gt;Node8_1</title>
<path fill="none" stroke="black" d="M66,-220.27C66,-233.58 66,-249.19 66,-260.82"/>
<polygon fill="black" stroke="black" points="69.5,-220.2 66,-210.2 62.5,-220.2 69.5,-220.2"/>
<text text-anchor="middle" x="88.5" y="-231.8" font-family="Times,serif" font-size="14.00">विशेषणम्</text>
</g>
<!-- Node8_1&#45;&gt;Node9_1 -->
<g id="edge8" class="edge">
<title>Node8_1&#45;&gt;Node9_1</title>
<path fill="none" stroke="black" d="M97.49,-300.75C120.58,-315.96 151.38,-336.26 172.14,-349.94"/>
<polygon fill="black" stroke="black" points="99.34,-297.78 89.06,-295.2 95.49,-303.62 99.34,-297.78"/>
<text text-anchor="middle" x="158.5" y="-318.8" font-family="Times,serif" font-size="14.00">गौणकर्म</text>
</g>
<!-- Node1_1 -->
<g id="node5" class="node">
<title>Node1_1</title>
<ellipse fill="#40e0d0" stroke="#40e0d0" cx="248" cy="-105" rx="51.19" ry="18"/>
<text text-anchor="middle" x="248" y="-101.3" font-family="Times,serif" font-size="14.00">द्रौपद्या(1.1)</text>
</g>
<!-- Node1_1&#45;&gt;Node4_1 -->
<g id="edge1" class="edge">
<title>Node1_1&#45;&gt;Node4_1</title>
<path fill="none" stroke="black" d="M270.79,-129.91C284.4,-144.2 301.34,-161.98 313.43,-174.66"/>
<polygon fill="black" stroke="black" points="273.05,-127.21 263.62,-122.39 267.98,-132.04 273.05,-127.21"/>
<text text-anchor="middle" x="310" y="-144.8" font-family="Times,serif" font-size="14.00">सहार्थः</text>
</g>
<!-- Node2_1 -->
<g id="node6" class="node">
<title>Node2_1</title>
<ellipse fill="#ff99ff" stroke="#ff99ff" cx="248" cy="-18" rx="42.49" ry="18"/>
<text text-anchor="middle" x="248" y="-14.3" font-family="Times,serif" font-size="14.00">सह(2.1)</text>
</g>
<!-- Node2_1&#45;&gt;Node1_1 -->
<g id="edge2" class="edge">
<title>Node2_1&#45;&gt;Node1_1</title>
<path fill="none" stroke="black" d="M248,-46.27C248,-59.58 248,-75.19 248,-86.82"/>
<polygon fill="black" stroke="black" points="251.5,-46.2 248,-36.2 244.5,-46.2 251.5,-46.2"/>
<text text-anchor="middle" x="281.5" y="-57.8" font-family="Times,serif" font-size="14.00">सहार्थ_द्योतकः</text>
</g>
<!-- Node3_1 -->
<g id="node7" class="node">
<title>Node3_1</title>
<ellipse fill="#b4ffb4" stroke="#b4ffb4" cx="375" cy="-105" rx="57.69" ry="18"/>
<text text-anchor="middle" x="375" y="-101.3" font-family="Times,serif" font-size="14.00">पावकात्(3.1)</text>
</g>
<!-- Node3_1&#45;&gt;Node4_1 -->
<g id="edge3" class="edge">
<title>Node3_1&#45;&gt;Node4_1</title>
<path fill="none" stroke="black" d="M361.07,-131.74C353.67,-145.42 344.77,-161.86 338.23,-173.95"/>
<polygon fill="black" stroke="black" points="364.23,-133.25 365.91,-122.79 358.07,-129.92 364.23,-133.25"/>
<text text-anchor="middle" x="378.5" y="-144.8" font-family="Times,serif" font-size="14.00">अपादानम्</text>
</g>
<!-- Node6_1 -->
<g id="node9" class="node">
<title>Node6_1</title>
<ellipse fill="#87ceeb" stroke="#87ceeb" cx="180" cy="-192" rx="48.19" ry="18"/>
<text text-anchor="middle" x="180" y="-188.3" font-family="Times,serif" font-size="14.00">अग्नेः(6.1)</text>
</g>
<!-- Node6_1&#45;&gt;Node8_1 -->
<g id="edge6" class="edge">
<title>Node6_1&#45;&gt;Node8_1</title>
<path fill="none" stroke="black" d="M152.27,-214.67C140.81,-223.55 127.33,-233.86 115,-243 106.27,-249.48 96.54,-256.47 88.07,-262.48"/>
<polygon fill="black" stroke="black" points="154.47,-217.4 160.23,-208.5 150.18,-211.87 154.47,-217.4"/>
<text text-anchor="middle" x="162.5" y="-231.8" font-family="Times,serif" font-size="14.00">षष्ठीसम्बन्धः</text>
</g>
<!-- Node10_1 -->
<g id="node10" class="node">
<title>Node10_1</title>
<ellipse fill="#93db70" stroke="#93db70" cx="525" cy="-105" rx="74.19" ry="18"/>
<text text-anchor="middle" x="525" y="-101.3" font-family="Times,serif" font-size="14.00">शिखण्डिनम्(10.1)</text>
</g>
<!-- Node13_1 -->
<g id="node11" class="node">
<title>Node13_1</title>
<ellipse fill="#ff1975" stroke="#ff1975" cx="525" cy="-192" rx="52.79" ry="18"/>
<text text-anchor="middle" x="525" y="-188.3" font-family="Times,serif" font-size="14.00">विद्धि(13.1)</text>
</g>
<!-- Node10_1&#45;&gt;Node13_1 -->
<g id="edge9" class="edge">
<title>Node10_1&#45;&gt;Node13_1</title>
<path fill="none" stroke="black" d="M525,-133.27C525,-146.58 525,-162.19 525,-173.82"/>
<polygon fill="black" stroke="black" points="528.5,-133.2 525,-123.2 521.5,-133.2 528.5,-133.2"/>
<text text-anchor="middle" x="545" y="-144.8" font-family="Times,serif" font-size="14.00">मुख्यकर्म</text>
</g>
<!-- Node11_1 -->
<g id="node12" class="node">
<title>Node11_1</title>
<ellipse fill="#ff99ff" stroke="#ff99ff" cx="525" cy="-18" rx="42.79" ry="18"/>
<text text-anchor="middle" x="525" y="-14.3" font-family="Times,serif" font-size="14.00">तु(11.1)</text>
</g>
<!-- Node11_1&#45;&gt;Node10_1 -->
<g id="edge10" class="edge">
<title>Node11_1&#45;&gt;Node10_1</title>
<path fill="none" stroke="black" d="M525,-46.27C525,-59.58 525,-75.19 525,-86.82"/>
<polygon fill="black" stroke="black" points="528.5,-46.2 525,-36.2 521.5,-46.2 528.5,-46.2"/>
<text text-anchor="middle" x="543.5" y="-57.8" font-family="Times,serif" font-size="14.00">सम्बन्धः</text>
</g>
<!-- Node12_1 -->
<g id="node13" class="node">
<title>Node12_1</title>
<ellipse fill="#93db70" stroke="#93db70" cx="195" cy="-279" rx="61.19" ry="18"/>
<text text-anchor="middle" x="195" y="-275.3" font-family="Times,serif" font-size="14.00">राक्षसम्(12.1)</text>
</g>
<!-- Node12_1&#45;&gt;Node9_1 -->
<g id="edge11" class="edge">
<title>Node12_1&#45;&gt;Node9_1</title>
<path fill="none" stroke="black" d="M195,-307.27C195,-320.58 195,-336.19 195,-347.82"/>
<polygon fill="black" stroke="black" points="198.5,-307.2 195,-297.2 191.5,-307.2 198.5,-307.2"/>
<text text-anchor="middle" x="214.5" y="-318.8" font-family="Times,serif" font-size="14.00">गौणकर्म</text>
</g>
</g>
</svg>
