<?xml version="1.0" encoding="UTF-8" standalone="no"?>
<!DOCTYPE svg PUBLIC "-//W3C//DTD SVG 1.1//EN"
 "http://www.w3.org/Graphics/SVG/1.1/DTD/svg11.dtd">
<!-- Generated by graphviz version 2.43.0 (0)
 -->
<!-- Title: G Pages: 1 -->
<svg width="576pt" height="479pt"
 viewBox="0.00 0.00 575.75 479.00" xmlns="http://www.w3.org/2000/svg" xmlns:xlink="http://www.w3.org/1999/xlink">
<g id="graph0" class="graph" transform="scale(1 1) rotate(0) translate(4 475)">
<title>G</title>
<polygon fill="#fffacd" stroke="transparent" points="-4,4 -4,-475 571.75,-475 571.75,4 -4,4"/>
<g id="clust1" class="cluster">
<title>cluster_1</title>
<polygon fill="#fffacd" stroke="black" points="8,-166 8,-305 114,-305 114,-166 8,-166"/>
</g>
<!-- Node5_1 -->
<g id="node1" class="node">
<title>Node5_1</title>
<ellipse fill="#00bfff" stroke="#00bfff" cx="61" cy="-192" rx="44.69" ry="18"/>
<text text-anchor="middle" x="61" y="-188.3" font-family="Times,serif" font-size="14.00">सर्वः(5.1)</text>
</g>
<!-- Node6_1 -->
<g id="node2" class="node">
<title>Node6_1</title>
<ellipse fill="#00bfff" stroke="#00bfff" cx="61" cy="-279" rx="45.49" ry="18"/>
<text text-anchor="middle" x="61" y="-275.3" font-family="Times,serif" font-size="14.00">जनः(6.1)</text>
</g>
<!-- Node5_1&#45;&gt;Node6_1 -->
<g id="edge5" class="edge">
<title>Node5_1&#45;&gt;Node6_1</title>
<path fill="none" stroke="black" d="M61,-220.27C61,-233.58 61,-249.19 61,-260.82"/>
<polygon fill="black" stroke="black" points="64.5,-220.2 61,-210.2 57.5,-220.2 64.5,-220.2"/>
<text text-anchor="middle" x="83.5" y="-231.8" font-family="Times,serif" font-size="14.00">विशेषणम्</text>
</g>
<!-- Node4_1 -->
<g id="node6" class="node">
<title>Node4_1</title>
<ellipse fill="#ff99ff" stroke="#ff99ff" cx="168" cy="-366" rx="48.19" ry="18"/>
<text text-anchor="middle" x="168" y="-362.3" font-family="Times,serif" font-size="14.00">श्रुत्वा(4.1)</text>
</g>
<!-- Node6_1&#45;&gt;Node4_1 -->
<g id="edge7" class="edge">
<title>Node6_1&#45;&gt;Node4_1</title>
<path fill="none" stroke="black" stroke-dasharray="1,5" d="M88.55,-301.88C107.32,-316.8 131.72,-336.18 148.5,-349.51"/>
<polygon fill="black" stroke="black" points="90.63,-299.07 80.63,-295.59 86.28,-304.55 90.63,-299.07"/>
<text text-anchor="middle" x="132" y="-318.8" font-family="Times,serif" font-size="14.00">कर्ता</text>
</g>
<!-- Node11_1 -->
<g id="node7" class="node">
<title>Node11_1</title>
<ellipse fill="#ff1975" stroke="#ff1975" cx="246" cy="-453" rx="50.09" ry="18"/>
<text text-anchor="middle" x="246" y="-449.3" font-family="Times,serif" font-size="14.00">ययौ(11.1)</text>
</g>
<!-- Node6_1&#45;&gt;Node11_1 -->
<g id="edge6" class="edge">
<title>Node6_1&#45;&gt;Node11_1</title>
<path fill="none" stroke="black" d="M61.95,-307.32C64.11,-330.26 70.53,-362.62 89,-384 118.13,-417.72 167.02,-435.27 202.52,-444.02"/>
<polygon fill="black" stroke="black" points="65.43,-306.93 61.21,-297.21 58.45,-307.44 65.43,-306.93"/>
<text text-anchor="middle" x="100" y="-362.3" font-family="Times,serif" font-size="14.00">कर्ता</text>
</g>
<!-- Node1_1 -->
<g id="node3" class="node">
<title>Node1_1</title>
<ellipse fill="#ff99ff" stroke="#ff99ff" cx="278" cy="-192" rx="44.39" ry="18"/>
<text text-anchor="middle" x="278" y="-188.3" font-family="Times,serif" font-size="14.00">इति(1.1)</text>
</g>
<!-- Node3_1 -->
<g id="node4" class="node">
<title>Node3_1</title>
<ellipse fill="#93db70" stroke="#93db70" cx="274" cy="-279" rx="51.99" ry="18"/>
<text text-anchor="middle" x="274" y="-275.3" font-family="Times,serif" font-size="14.00">वचनम्(3.1)</text>
</g>
<!-- Node1_1&#45;&gt;Node3_1 -->
<g id="edge1" class="edge">
<title>Node1_1&#45;&gt;Node3_1</title>
<path fill="none" stroke="black" d="M276.72,-220.27C276.09,-233.58 275.36,-249.19 274.81,-260.82"/>
<polygon fill="black" stroke="black" points="280.22,-220.35 277.19,-210.2 273.22,-220.03 280.22,-220.35"/>
<text text-anchor="middle" x="317" y="-231.8" font-family="Times,serif" font-size="14.00">वाक्यकर्म_द्योतकः</text>
</g>
<!-- Node3_1&#45;&gt;Node4_1 -->
<g id="edge3" class="edge">
<title>Node3_1&#45;&gt;Node4_1</title>
<path fill="none" stroke="black" d="M246.01,-302.45C227.57,-317.23 203.9,-336.21 187.49,-349.37"/>
<polygon fill="black" stroke="black" points="248.45,-304.97 254.06,-295.99 244.07,-299.51 248.45,-304.97"/>
<text text-anchor="middle" x="236" y="-318.8" font-family="Times,serif" font-size="14.00">कर्म</text>
</g>
<!-- Node2_1 -->
<g id="node5" class="node">
<title>Node2_1</title>
<ellipse fill="#87ceeb" stroke="#87ceeb" cx="397" cy="-192" rx="57.39" ry="18"/>
<text text-anchor="middle" x="397" y="-188.3" font-family="Times,serif" font-size="14.00">व्यासस्य(2.1)</text>
</g>
<!-- Node2_1&#45;&gt;Node3_1 -->
<g id="edge2" class="edge">
<title>Node2_1&#45;&gt;Node3_1</title>
<path fill="none" stroke="black" d="M383.01,-218.89C377.39,-227.46 370.26,-236.46 362,-243 348.07,-254.02 330.24,-261.97 314.27,-267.48"/>
<polygon fill="black" stroke="black" points="386.07,-220.6 388.32,-210.24 380.11,-216.94 386.07,-220.6"/>
<text text-anchor="middle" x="402.5" y="-231.8" font-family="Times,serif" font-size="14.00">षष्ठीसम्बन्धः</text>
</g>
<!-- Node4_1&#45;&gt;Node11_1 -->
<g id="edge4" class="edge">
<title>Node4_1&#45;&gt;Node11_1</title>
<path fill="none" stroke="black" d="M189.94,-390.91C203.05,-405.2 219.37,-422.98 231.01,-435.66"/>
<polygon fill="black" stroke="black" points="192.38,-388.39 183.04,-383.39 187.22,-393.12 192.38,-388.39"/>
<text text-anchor="middle" x="231.5" y="-405.8" font-family="Times,serif" font-size="14.00">पूर्वकालः</text>
</g>
<!-- Node7_1 -->
<g id="node8" class="node">
<title>Node7_1</title>
<ellipse fill="#ffff00" stroke="#ffff00" cx="170" cy="-18" rx="50.09" ry="18"/>
<text text-anchor="middle" x="170" y="-14.3" font-family="Times,serif" font-size="14.00">गङ्ग&#45;(7.1)</text>
</g>
<!-- Node7_2 -->
<g id="node9" class="node">
<title>Node7_2</title>
<ellipse fill="#ffff00" stroke="#ffff00" cx="170" cy="-105" rx="50.09" ry="18"/>
<text text-anchor="middle" x="170" y="-101.3" font-family="Times,serif" font-size="14.00">अभि&#45;(7.2)</text>
</g>
<!-- Node7_1&#45;&gt;Node7_2 -->
<g id="edge8" class="edge">
<title>Node7_1&#45;&gt;Node7_2</title>
<path fill="none" stroke="black" d="M170,-46.27C170,-59.58 170,-75.19 170,-86.82"/>
<polygon fill="black" stroke="black" points="173.5,-46.2 170,-36.2 166.5,-46.2 173.5,-46.2"/>
<text text-anchor="middle" x="187" y="-57.8" font-family="Times,serif" font-size="14.00">समासः</text>
</g>
<!-- Node7_3 -->
<g id="node10" class="node">
<title>Node7_3</title>
<ellipse fill="#00bfff" stroke="#00bfff" cx="170" cy="-192" rx="46.29" ry="18"/>
<text text-anchor="middle" x="170" y="-188.3" font-family="Times,serif" font-size="14.00">मुखः(7.3)</text>
</g>
<!-- Node7_2&#45;&gt;Node7_3 -->
<g id="edge9" class="edge">
<title>Node7_2&#45;&gt;Node7_3</title>
<path fill="none" stroke="black" d="M170,-133.27C170,-146.58 170,-162.19 170,-173.82"/>
<polygon fill="black" stroke="black" points="173.5,-133.2 170,-123.2 166.5,-133.2 173.5,-133.2"/>
<text text-anchor="middle" x="187" y="-144.8" font-family="Times,serif" font-size="14.00">समासः</text>
</g>
<!-- Node7_3&#45;&gt;Node6_1 -->
<g id="edge10" class="edge">
<title>Node7_3&#45;&gt;Node6_1</title>
<path fill="none" stroke="black" d="M143.98,-215.4C133.56,-224.18 121.35,-234.24 110,-243 101.23,-249.77 91.32,-256.94 82.72,-263.01"/>
<polygon fill="black" stroke="black" points="146.54,-217.82 151.91,-208.68 142.02,-212.48 146.54,-217.82"/>
<text text-anchor="middle" x="168" y="-231.8" font-family="Times,serif" font-size="14.00">विधेय_विशेषणम्</text>
</g>
<!-- Node8_1 -->
<g id="node11" class="node">
<title>Node8_1</title>
<ellipse fill="#ff99ff" stroke="#ff99ff" cx="278" cy="-366" rx="44.39" ry="18"/>
<text text-anchor="middle" x="278" y="-362.3" font-family="Times,serif" font-size="14.00">तदा(8.1)</text>
</g>
<!-- Node8_1&#45;&gt;Node11_1 -->
<g id="edge11" class="edge">
<title>Node8_1&#45;&gt;Node11_1</title>
<path fill="none" stroke="black" d="M267.86,-393.94C262.78,-407.43 256.78,-423.36 252.36,-435.11"/>
<polygon fill="black" stroke="black" points="271.28,-394.79 271.52,-384.2 264.73,-392.33 271.28,-394.79"/>
<text text-anchor="middle" x="298.5" y="-405.8" font-family="Times,serif" font-size="14.00">कालाधिकरणम्</text>
</g>
<!-- Node9_1 -->
<g id="node12" class="node">
<title>Node9_1</title>
<ellipse fill="#40e0d0" stroke="#40e0d0" cx="519" cy="-279" rx="48.99" ry="18"/>
<text text-anchor="middle" x="519" y="-275.3" font-family="Times,serif" font-size="14.00">महता(9.1)</text>
</g>
<!-- Node10_2 -->
<g id="node13" class="node">
<title>Node10_2</title>
<ellipse fill="#40e0d0" stroke="#40e0d0" cx="398" cy="-366" rx="54.69" ry="18"/>
<text text-anchor="middle" x="398" y="-362.3" font-family="Times,serif" font-size="14.00">नादेन(10.2)</text>
</g>
<!-- Node9_1&#45;&gt;Node10_2 -->
<g id="edge12" class="edge">
<title>Node9_1&#45;&gt;Node10_2</title>
<path fill="none" stroke="black" d="M488.99,-301.08C467.7,-316.04 439.58,-335.79 420.26,-349.36"/>
<polygon fill="black" stroke="black" points="491.2,-303.81 497.37,-295.2 487.17,-298.08 491.2,-303.81"/>
<text text-anchor="middle" x="489.5" y="-318.8" font-family="Times,serif" font-size="14.00">तीव्रतादर्शी</text>
</g>
<!-- Node10_2&#45;&gt;Node11_1 -->
<g id="edge14" class="edge">
<title>Node10_2&#45;&gt;Node11_1</title>
<path fill="none" stroke="black" d="M373.81,-390.3C363.38,-399.48 350.69,-409.58 338,-417 321.04,-426.92 300.75,-434.99 283.54,-440.87"/>
<polygon fill="black" stroke="black" points="376.24,-392.83 381.3,-383.52 371.54,-387.64 376.24,-392.83"/>
<text text-anchor="middle" x="394" y="-405.8" font-family="Times,serif" font-size="14.00">क्रियाविशेषणम्</text>
</g>
<!-- Node10_1 -->
<g id="node14" class="node">
<title>Node10_1</title>
<ellipse fill="#ffff00" stroke="#ffff00" cx="398" cy="-279" rx="53.89" ry="18"/>
<text text-anchor="middle" x="398" y="-275.3" font-family="Times,serif" font-size="14.00">सिंह&#45;(10.1)</text>
</g>
<!-- Node10_1&#45;&gt;Node10_2 -->
<g id="edge13" class="edge">
<title>Node10_1&#45;&gt;Node10_2</title>
<path fill="none" stroke="black" d="M398,-307.27C398,-320.58 398,-336.19 398,-347.82"/>
<polygon fill="black" stroke="black" points="401.5,-307.2 398,-297.2 394.5,-307.2 401.5,-307.2"/>
<text text-anchor="middle" x="415" y="-318.8" font-family="Times,serif" font-size="14.00">समासः</text>
</g>
</g>
</svg>
