<?xml version="1.0" encoding="UTF-8" standalone="no"?>
<!DOCTYPE svg PUBLIC "-//W3C//DTD SVG 1.1//EN"
 "http://www.w3.org/Graphics/SVG/1.1/DTD/svg11.dtd">
<!-- Generated by graphviz version 2.43.0 (0)
 -->
<!-- Title: G Pages: 1 -->
<svg width="959pt" height="234pt"
 viewBox="0.00 0.00 958.54 234.00" xmlns="http://www.w3.org/2000/svg" xmlns:xlink="http://www.w3.org/1999/xlink">
<g id="graph0" class="graph" transform="scale(1 1) rotate(0) translate(4 230)">
<title>G</title>
<polygon fill="#fffacd" stroke="transparent" points="-4,4 -4,-230 954.54,-230 954.54,4 -4,4"/>
<g id="clust1" class="cluster">
<title>cluster_1</title>
<polygon fill="#fffacd" stroke="black" points="8,-8 8,-147 134,-147 134,-8 8,-8"/>
</g>
<g id="clust2" class="cluster">
<title>cluster_2</title>
<polygon fill="#fffacd" stroke="black" points="406,-8 406,-147 534,-147 534,-8 406,-8"/>
</g>
<!-- Node8_1 -->
<g id="node1" class="node">
<title>Node8_1</title>
<ellipse fill="#c6e2eb" stroke="#c6e2eb" cx="71" cy="-34" rx="54.69" ry="18"/>
<text text-anchor="middle" x="71" y="-30.3" font-family="Times,serif" font-size="14.00">अस्मिन्(8.1)</text>
</g>
<!-- Node9_2 -->
<g id="node2" class="node">
<title>Node9_2</title>
<ellipse fill="#c6e2eb" stroke="#c6e2eb" cx="76" cy="-121" rx="50.09" ry="18"/>
<text text-anchor="middle" x="76" y="-117.3" font-family="Times,serif" font-size="14.00">अजिरे(9.2)</text>
</g>
<!-- Node8_1&#45;&gt;Node9_2 -->
<g id="edge6" class="edge">
<title>Node8_1&#45;&gt;Node9_2</title>
<path fill="none" stroke="black" d="M72.6,-62.27C73.39,-75.58 74.31,-91.19 74.99,-102.82"/>
<polygon fill="black" stroke="black" points="76.09,-61.98 72.01,-52.2 69.11,-62.39 76.09,-61.98"/>
<text text-anchor="middle" x="96.5" y="-73.8" font-family="Times,serif" font-size="14.00">विशेषणम्</text>
</g>
<!-- Node10_1 -->
<g id="node11" class="node">
<title>Node10_1</title>
<ellipse fill="#00bfff" stroke="#00bfff" cx="260" cy="-208" rx="51.99" ry="18"/>
<text text-anchor="middle" x="260" y="-204.3" font-family="Times,serif" font-size="14.00">हताः(10.1)</text>
</g>
<!-- Node9_2&#45;&gt;Node10_1 -->
<g id="edge8" class="edge">
<title>Node9_2&#45;&gt;Node10_1</title>
<path fill="none" stroke="black" d="M114.85,-139.94C149.27,-155.85 198.82,-178.74 230.21,-193.24"/>
<polygon fill="black" stroke="black" points="116.11,-136.67 105.56,-135.66 113.17,-143.03 116.11,-136.67"/>
<text text-anchor="middle" x="207.5" y="-160.8" font-family="Times,serif" font-size="14.00">अधिकरणम्</text>
</g>
<!-- Node11_1 -->
<g id="node3" class="node">
<title>Node11_1</title>
<ellipse fill="#93db70" stroke="#93db70" cx="470" cy="-34" rx="50.09" ry="18"/>
<text text-anchor="middle" x="470" y="-30.3" font-family="Times,serif" font-size="14.00">तान्(11.1)</text>
</g>
<!-- Node12_1 -->
<g id="node4" class="node">
<title>Node12_1</title>
<ellipse fill="#93db70" stroke="#93db70" cx="470" cy="-121" rx="55.79" ry="18"/>
<text text-anchor="middle" x="470" y="-117.3" font-family="Times,serif" font-size="14.00">सर्वान्(12.1)</text>
</g>
<!-- Node11_1&#45;&gt;Node12_1 -->
<g id="edge9" class="edge">
<title>Node11_1&#45;&gt;Node12_1</title>
<path fill="none" stroke="black" d="M470,-62.27C470,-75.58 470,-91.19 470,-102.82"/>
<polygon fill="black" stroke="black" points="473.5,-62.2 470,-52.2 466.5,-62.2 473.5,-62.2"/>
<text text-anchor="middle" x="492.5" y="-73.8" font-family="Times,serif" font-size="14.00">विशेषणम्</text>
</g>
<!-- Node14_1 -->
<g id="node14" class="node">
<title>Node14_1</title>
<ellipse fill="#ff1975" stroke="#ff1975" cx="551" cy="-208" rx="57.39" ry="18"/>
<text text-anchor="middle" x="551" y="-204.3" font-family="Times,serif" font-size="14.00">द्रक्ष्यथ(14.1)</text>
</g>
<!-- Node12_1&#45;&gt;Node14_1 -->
<g id="edge10" class="edge">
<title>Node12_1&#45;&gt;Node14_1</title>
<path fill="none" stroke="black" d="M492.79,-145.91C506.4,-160.2 523.34,-177.98 535.43,-190.66"/>
<polygon fill="black" stroke="black" points="495.05,-143.21 485.62,-138.39 489.98,-148.04 495.05,-143.21"/>
<text text-anchor="middle" x="525" y="-160.8" font-family="Times,serif" font-size="14.00">कर्म</text>
</g>
<!-- Node1_1 -->
<g id="node5" class="node">
<title>Node1_1</title>
<ellipse fill="#93db70" stroke="#93db70" cx="655" cy="-34" rx="42.49" ry="18"/>
<text text-anchor="middle" x="655" y="-30.3" font-family="Times,serif" font-size="14.00">सर्वे(1.1)</text>
</g>
<!-- Node3_1 -->
<g id="node6" class="node">
<title>Node3_1</title>
<ellipse fill="#ff1975" stroke="#ff1975" cx="711" cy="-121" rx="53.09" ry="18"/>
<text text-anchor="middle" x="711" y="-117.3" font-family="Times,serif" font-size="14.00">गच्छन्तु(3.1)</text>
</g>
<!-- Node1_1&#45;&gt;Node3_1 -->
<g id="edge1" class="edge">
<title>Node1_1&#45;&gt;Node3_1</title>
<path fill="none" stroke="black" d="M671.74,-60.4C680.86,-74.26 691.91,-91.03 699.96,-103.24"/>
<polygon fill="black" stroke="black" points="674.49,-58.22 666.06,-51.79 668.64,-62.07 674.49,-58.22"/>
<text text-anchor="middle" x="695" y="-73.8" font-family="Times,serif" font-size="14.00">कर्म</text>
</g>
<!-- Node2_1 -->
<g id="node7" class="node">
<title>Node2_1</title>
<ellipse fill="#00bfff" stroke="#00bfff" cx="767" cy="-34" rx="51.99" ry="18"/>
<text text-anchor="middle" x="767" y="-30.3" font-family="Times,serif" font-size="14.00">भवन्तः(2.1)</text>
</g>
<!-- Node2_1&#45;&gt;Node3_1 -->
<g id="edge2" class="edge">
<title>Node2_1&#45;&gt;Node3_1</title>
<path fill="none" stroke="black" d="M750.26,-60.4C741.14,-74.26 730.09,-91.03 722.04,-103.24"/>
<polygon fill="black" stroke="black" points="753.36,-62.07 755.94,-51.79 747.51,-58.22 753.36,-62.07"/>
<text text-anchor="middle" x="753" y="-73.8" font-family="Times,serif" font-size="14.00">कर्ता</text>
</g>
<!-- Node4_1 -->
<g id="node8" class="node">
<title>Node4_1</title>
<ellipse fill="lightgrey" stroke="black" cx="894" cy="-34" rx="56.59" ry="18"/>
<text text-anchor="middle" x="894" y="-30.3" font-family="Times,serif" font-size="14.00">भगीरथीं(4.1)</text>
</g>
<!-- Node5_1 -->
<g id="node9" class="node">
<title>Node5_1</title>
<ellipse fill="#93db70" stroke="#93db70" cx="295" cy="-34" rx="44.39" ry="18"/>
<text text-anchor="middle" x="295" y="-30.3" font-family="Times,serif" font-size="14.00">नदीं(5.1)</text>
</g>
<!-- Node6_1 -->
<g id="node10" class="node">
<title>Node6_1</title>
<ellipse fill="#ff99ff" stroke="#ff99ff" cx="260" cy="-121" rx="44.39" ry="18"/>
<text text-anchor="middle" x="260" y="-117.3" font-family="Times,serif" font-size="14.00">प्रति(6.1)</text>
</g>
<!-- Node5_1&#45;&gt;Node6_1 -->
<g id="edge3" class="edge">
<title>Node5_1&#45;&gt;Node6_1</title>
<path fill="none" stroke="black" d="M284.24,-61.13C278.64,-74.73 271.95,-90.98 267.02,-102.95"/>
<polygon fill="black" stroke="black" points="287.51,-62.37 288.09,-51.79 281.04,-59.71 287.51,-62.37"/>
<text text-anchor="middle" x="310.5" y="-73.8" font-family="Times,serif" font-size="14.00">सन्दर्भ_बिन्दुः</text>
</g>
<!-- Node6_1&#45;&gt;Node10_1 -->
<g id="edge4" class="edge">
<title>Node6_1&#45;&gt;Node10_1</title>
<path fill="none" stroke="black" d="M260,-149.27C260,-162.58 260,-178.19 260,-189.82"/>
<polygon fill="black" stroke="black" points="263.5,-149.2 260,-139.2 256.5,-149.2 263.5,-149.2"/>
<text text-anchor="middle" x="287.5" y="-160.8" font-family="Times,serif" font-size="14.00">आभिमुख्यम्</text>
</g>
<!-- Node7_1 -->
<g id="node12" class="node">
<title>Node7_1</title>
<ellipse fill="#93db70" stroke="#93db70" cx="359" cy="-121" rx="37.09" ry="18"/>
<text text-anchor="middle" x="359" y="-117.3" font-family="Times,serif" font-size="14.00">ये(7.1)</text>
</g>
<!-- Node7_1&#45;&gt;Node10_1 -->
<g id="edge5" class="edge">
<title>Node7_1&#45;&gt;Node10_1</title>
<path fill="none" stroke="black" d="M341.99,-146.82C335.41,-155.39 327.43,-164.67 319,-172 309.83,-179.97 298.6,-187.15 288.41,-192.9"/>
<polygon fill="black" stroke="black" points="344.94,-148.71 348.06,-138.58 339.31,-144.55 344.94,-148.71"/>
<text text-anchor="middle" x="342" y="-160.8" font-family="Times,serif" font-size="14.00">कर्म</text>
</g>
<!-- Node9_1 -->
<g id="node13" class="node">
<title>Node9_1</title>
<ellipse fill="#ffff00" stroke="#ffff00" cx="188" cy="-34" rx="44.69" ry="18"/>
<text text-anchor="middle" x="188" y="-30.3" font-family="Times,serif" font-size="14.00">रण&#45;(9.1)</text>
</g>
<!-- Node9_1&#45;&gt;Node9_2 -->
<g id="edge7" class="edge">
<title>Node9_1&#45;&gt;Node9_2</title>
<path fill="none" stroke="black" d="M160.18,-56.55C148.7,-65.4 135.24,-75.74 123,-85 114.56,-91.39 105.22,-98.36 97.11,-104.39"/>
<polygon fill="black" stroke="black" points="162.37,-59.28 168.15,-50.4 158.09,-53.74 162.37,-59.28"/>
<text text-anchor="middle" x="158" y="-73.8" font-family="Times,serif" font-size="14.00">समासः</text>
</g>
<!-- Node13_1 -->
<g id="node15" class="node">
<title>Node13_1</title>
<ellipse fill="#ff99ff" stroke="#ff99ff" cx="592" cy="-121" rx="48.19" ry="18"/>
<text text-anchor="middle" x="592" y="-117.3" font-family="Times,serif" font-size="14.00">तत्र(13.1)</text>
</g>
<!-- Node13_1&#45;&gt;Node14_1 -->
<g id="edge11" class="edge">
<title>Node13_1&#45;&gt;Node14_1</title>
<path fill="none" stroke="black" d="M579.4,-148.13C572.83,-161.73 565,-177.98 559.22,-189.95"/>
<polygon fill="black" stroke="black" points="582.71,-149.32 583.9,-138.79 576.4,-146.28 582.71,-149.32"/>
<text text-anchor="middle" x="606" y="-160.8" font-family="Times,serif" font-size="14.00">देशाधिकरणम्</text>
</g>
</g>
</svg>
