<?xml version="1.0" encoding="UTF-8" standalone="no"?>
<!DOCTYPE svg PUBLIC "-//W3C//DTD SVG 1.1//EN"
 "http://www.w3.org/Graphics/SVG/1.1/DTD/svg11.dtd">
<!-- Generated by graphviz version 2.43.0 (0)
 -->
<!-- Title: G Pages: 1 -->
<svg width="639pt" height="392pt"
 viewBox="0.00 0.00 639.50 392.00" xmlns="http://www.w3.org/2000/svg" xmlns:xlink="http://www.w3.org/1999/xlink">
<g id="graph0" class="graph" transform="scale(1 1) rotate(0) translate(4 388)">
<title>G</title>
<polygon fill="#fffacd" stroke="transparent" points="-4,4 -4,-388 635.5,-388 635.5,4 -4,4"/>
<g id="clust1" class="cluster">
<title>cluster_1</title>
<polygon fill="#fffacd" stroke="black" points="240,-166 240,-305 610,-305 610,-166 240,-166"/>
</g>
<g id="clust2" class="cluster">
<title>cluster_2</title>
<polygon fill="#fffacd" stroke="black" points="8,-166 8,-305 108,-305 108,-166 8,-166"/>
</g>
<!-- Node1_1 -->
<g id="node1" class="node">
<title>Node1_1</title>
<ellipse fill="#00bfff" stroke="#00bfff" cx="550" cy="-192" rx="51.99" ry="18"/>
<text text-anchor="middle" x="550" y="-188.3" font-family="Times,serif" font-size="14.00">धीमान्(1.1)</text>
</g>
<!-- Node11_1 -->
<g id="node2" class="node">
<title>Node11_1</title>
<ellipse fill="#00bfff" stroke="#00bfff" cx="304" cy="-279" rx="51.99" ry="18"/>
<text text-anchor="middle" x="304" y="-275.3" font-family="Times,serif" font-size="14.00">राजा(11.1)</text>
</g>
<!-- Node1_1&#45;&gt;Node11_1 -->
<g id="edge1" class="edge">
<title>Node1_1&#45;&gt;Node11_1</title>
<path fill="none" stroke="black" d="M509.03,-210.2C484.32,-220.31 452.09,-233.02 423,-243 396.83,-251.98 366.95,-260.76 343.67,-267.29"/>
<polygon fill="black" stroke="black" points="510.54,-213.37 518.45,-206.33 507.87,-206.89 510.54,-213.37"/>
<text text-anchor="middle" x="484.5" y="-231.8" font-family="Times,serif" font-size="14.00">विशेषणम्</text>
</g>
<!-- Node10_1 -->
<g id="node13" class="node">
<title>Node10_1</title>
<ellipse fill="#ff1975" stroke="#ff1975" cx="175" cy="-366" rx="61.99" ry="18"/>
<text text-anchor="middle" x="175" y="-362.3" font-family="Times,serif" font-size="14.00">अकरोत्(10.1)</text>
</g>
<!-- Node11_1&#45;&gt;Node10_1 -->
<g id="edge13" class="edge">
<title>Node11_1&#45;&gt;Node10_1</title>
<path fill="none" stroke="black" d="M272.31,-300.88C249.57,-315.86 219.42,-335.73 198.74,-349.36"/>
<polygon fill="black" stroke="black" points="274.51,-303.62 280.94,-295.2 270.66,-297.78 274.51,-303.62"/>
<text text-anchor="middle" x="259" y="-318.8" font-family="Times,serif" font-size="14.00">कर्ता</text>
</g>
<!-- Node2_3 -->
<g id="node3" class="node">
<title>Node2_3</title>
<ellipse fill="#00bfff" stroke="#00bfff" cx="304" cy="-192" rx="55.79" ry="18"/>
<text text-anchor="middle" x="304" y="-188.3" font-family="Times,serif" font-size="14.00">पुरस्सरः(2.3)</text>
</g>
<!-- Node2_3&#45;&gt;Node11_1 -->
<g id="edge4" class="edge">
<title>Node2_3&#45;&gt;Node11_1</title>
<path fill="none" stroke="black" d="M304,-220.27C304,-233.58 304,-249.19 304,-260.82"/>
<polygon fill="black" stroke="black" points="307.5,-220.2 304,-210.2 300.5,-220.2 307.5,-220.2"/>
<text text-anchor="middle" x="326.5" y="-231.8" font-family="Times,serif" font-size="14.00">विशेषणम्</text>
</g>
<!-- Node5_2 -->
<g id="node4" class="node">
<title>Node5_2</title>
<ellipse fill="#00bfff" stroke="#00bfff" cx="429" cy="-192" rx="50.89" ry="18"/>
<text text-anchor="middle" x="429" y="-188.3" font-family="Times,serif" font-size="14.00">अनुगः(5.2)</text>
</g>
<!-- Node5_2&#45;&gt;Node11_1 -->
<g id="edge8" class="edge">
<title>Node5_2&#45;&gt;Node11_1</title>
<path fill="none" stroke="black" d="M398.24,-213.92C376.06,-229 346.61,-249.03 326.58,-262.65"/>
<polygon fill="black" stroke="black" points="400.35,-216.71 406.65,-208.2 396.42,-210.93 400.35,-216.71"/>
<text text-anchor="middle" x="396.5" y="-231.8" font-family="Times,serif" font-size="14.00">विशेषणम्</text>
</g>
<!-- Node7_1 -->
<g id="node5" class="node">
<title>Node7_1</title>
<ellipse fill="#c6e2eb" stroke="#c6e2eb" cx="58" cy="-192" rx="41.69" ry="18"/>
<text text-anchor="middle" x="58" y="-188.3" font-family="Times,serif" font-size="14.00">इष्टे(7.1)</text>
</g>
<!-- Node8_1 -->
<g id="node6" class="node">
<title>Node8_1</title>
<ellipse fill="#c6e2eb" stroke="#c6e2eb" cx="58" cy="-279" rx="42.49" ry="18"/>
<text text-anchor="middle" x="58" y="-275.3" font-family="Times,serif" font-size="14.00">देशे(8.1)</text>
</g>
<!-- Node7_1&#45;&gt;Node8_1 -->
<g id="edge10" class="edge">
<title>Node7_1&#45;&gt;Node8_1</title>
<path fill="none" stroke="black" d="M58,-220.27C58,-233.58 58,-249.19 58,-260.82"/>
<polygon fill="black" stroke="black" points="61.5,-220.2 58,-210.2 54.5,-220.2 61.5,-220.2"/>
<text text-anchor="middle" x="80.5" y="-231.8" font-family="Times,serif" font-size="14.00">विशेषणम्</text>
</g>
<!-- Node8_1&#45;&gt;Node10_1 -->
<g id="edge11" class="edge">
<title>Node8_1&#45;&gt;Node10_1</title>
<path fill="none" stroke="black" d="M82.25,-302.58C92.35,-311.54 104.42,-321.67 116,-330 125.77,-337.02 137.01,-343.95 147.04,-349.77"/>
<polygon fill="black" stroke="black" points="84.38,-299.79 74.61,-295.7 79.7,-304.99 84.38,-299.79"/>
<text text-anchor="middle" x="143.5" y="-318.8" font-family="Times,serif" font-size="14.00">अधिकरणम्</text>
</g>
<!-- Node2_1 -->
<g id="node7" class="node">
<title>Node2_1</title>
<ellipse fill="#ffff00" stroke="#ffff00" cx="230" cy="-18" rx="46.59" ry="18"/>
<text text-anchor="middle" x="230" y="-14.3" font-family="Times,serif" font-size="14.00">स्त्री&#45;(2.1)</text>
</g>
<!-- Node2_2 -->
<g id="node8" class="node">
<title>Node2_2</title>
<ellipse fill="#ffff00" stroke="#ffff00" cx="230" cy="-105" rx="44.69" ry="18"/>
<text text-anchor="middle" x="230" y="-101.3" font-family="Times,serif" font-size="14.00">वृद्ध&#45;(2.2)</text>
</g>
<!-- Node2_1&#45;&gt;Node2_2 -->
<g id="edge2" class="edge">
<title>Node2_1&#45;&gt;Node2_2</title>
<path fill="none" stroke="black" d="M230,-46.27C230,-59.58 230,-75.19 230,-86.82"/>
<polygon fill="black" stroke="black" points="233.5,-46.2 230,-36.2 226.5,-46.2 233.5,-46.2"/>
<text text-anchor="middle" x="247" y="-57.8" font-family="Times,serif" font-size="14.00">समासः</text>
</g>
<!-- Node2_2&#45;&gt;Node2_3 -->
<g id="edge3" class="edge">
<title>Node2_2&#45;&gt;Node2_3</title>
<path fill="none" stroke="black" d="M251.12,-130.26C263.41,-144.37 278.59,-161.81 289.52,-174.37"/>
<polygon fill="black" stroke="black" points="253.47,-127.63 244.27,-122.39 248.19,-132.23 253.47,-127.63"/>
<text text-anchor="middle" x="289" y="-144.8" font-family="Times,serif" font-size="14.00">समासः</text>
</g>
<!-- Node3_1 -->
<g id="node9" class="node">
<title>Node3_1</title>
<ellipse fill="#40e0d0" stroke="#40e0d0" cx="348" cy="-105" rx="55.49" ry="18"/>
<text text-anchor="middle" x="348" y="-101.3" font-family="Times,serif" font-size="14.00">पाण्डवैः(3.1)</text>
</g>
<!-- Node3_1&#45;&gt;Node5_2 -->
<g id="edge5" class="edge">
<title>Node3_1&#45;&gt;Node5_2</title>
<path fill="none" stroke="black" d="M370.79,-129.91C384.4,-144.2 401.34,-161.98 413.43,-174.66"/>
<polygon fill="black" stroke="black" points="373.05,-127.21 363.62,-122.39 367.98,-132.04 373.05,-127.21"/>
<text text-anchor="middle" x="410" y="-144.8" font-family="Times,serif" font-size="14.00">सहार्थः</text>
</g>
<!-- Node4_1 -->
<g id="node10" class="node">
<title>Node4_1</title>
<ellipse fill="#ff99ff" stroke="#ff99ff" cx="472" cy="-105" rx="50.89" ry="18"/>
<text text-anchor="middle" x="472" y="-101.3" font-family="Times,serif" font-size="14.00">सार्धम्(4.1)</text>
</g>
<!-- Node4_1&#45;&gt;Node5_2 -->
<g id="edge6" class="edge">
<title>Node4_1&#45;&gt;Node5_2</title>
<path fill="none" stroke="black" d="M458.95,-131.8C451.98,-145.58 443.6,-162.14 437.48,-174.24"/>
<polygon fill="black" stroke="black" points="462.11,-133.3 463.5,-122.79 455.87,-130.14 462.11,-133.3"/>
<text text-anchor="middle" x="487.5" y="-144.8" font-family="Times,serif" font-size="14.00">सहार्थ_द्योतकः</text>
</g>
<!-- Node5_1 -->
<g id="node11" class="node">
<title>Node5_1</title>
<ellipse fill="#ff99ff" stroke="#ff99ff" cx="586" cy="-105" rx="45.49" ry="18"/>
<text text-anchor="middle" x="586" y="-101.3" font-family="Times,serif" font-size="14.00">सह&#45;(5.1)</text>
</g>
<!-- Node5_1&#45;&gt;Node5_2 -->
<g id="edge7" class="edge">
<title>Node5_1&#45;&gt;Node5_2</title>
<path fill="none" stroke="black" d="M562.61,-129.07C551.88,-138.56 538.56,-148.96 525,-156 510.26,-163.65 504.69,-160.57 489,-166 479.19,-169.39 468.68,-173.58 459.24,-177.54"/>
<polygon fill="black" stroke="black" points="565.25,-131.39 570.26,-122.05 560.52,-126.23 565.25,-131.39"/>
<text text-anchor="middle" x="563" y="-144.8" font-family="Times,serif" font-size="14.00">समासः</text>
</g>
<!-- Node6_1 -->
<g id="node12" class="node">
<title>Node6_1</title>
<ellipse fill="#ff99ff" stroke="#ff99ff" cx="192" cy="-192" rx="37.89" ry="18"/>
<text text-anchor="middle" x="192" y="-188.3" font-family="Times,serif" font-size="14.00">च(6.1)</text>
</g>
<!-- Node6_1&#45;&gt;Node11_1 -->
<g id="edge9" class="edge">
<title>Node6_1&#45;&gt;Node11_1</title>
<path fill="none" stroke="black" d="M219.29,-213.71C239.1,-228.74 265.46,-248.75 283.48,-262.43"/>
<polygon fill="black" stroke="black" points="221.34,-210.87 211.25,-207.61 217.1,-216.45 221.34,-210.87"/>
<text text-anchor="middle" x="273.5" y="-231.8" font-family="Times,serif" font-size="14.00">सम्बन्धः</text>
</g>
<!-- Node9_1 -->
<g id="node14" class="node">
<title>Node9_1</title>
<ellipse fill="#93db70" stroke="#93db70" cx="175" cy="-279" rx="57.39" ry="18"/>
<text text-anchor="middle" x="175" y="-275.3" font-family="Times,serif" font-size="14.00">निवासम्(9.1)</text>
</g>
<!-- Node9_1&#45;&gt;Node10_1 -->
<g id="edge12" class="edge">
<title>Node9_1&#45;&gt;Node10_1</title>
<path fill="none" stroke="black" d="M175,-307.27C175,-320.58 175,-336.19 175,-347.82"/>
<polygon fill="black" stroke="black" points="178.5,-307.2 175,-297.2 171.5,-307.2 178.5,-307.2"/>
<text text-anchor="middle" x="184" y="-318.8" font-family="Times,serif" font-size="14.00">कर्म</text>
</g>
</g>
</svg>
