<?xml version="1.0" encoding="UTF-8" standalone="no"?>
<!DOCTYPE svg PUBLIC "-//W3C//DTD SVG 1.1//EN"
 "http://www.w3.org/Graphics/SVG/1.1/DTD/svg11.dtd">
<!-- Generated by graphviz version 2.43.0 (0)
 -->
<!-- Title: G Pages: 1 -->
<svg width="385pt" height="408pt"
 viewBox="0.00 0.00 385.00 408.00" xmlns="http://www.w3.org/2000/svg" xmlns:xlink="http://www.w3.org/1999/xlink">
<g id="graph0" class="graph" transform="scale(1 1) rotate(0) translate(4 404)">
<title>G</title>
<polygon fill="#fffacd" stroke="transparent" points="-4,4 -4,-404 381,-404 381,4 -4,4"/>
<g id="clust1" class="cluster">
<title>cluster_1</title>
<polygon fill="#fffacd" stroke="black" points="218,-182 218,-321 328,-321 328,-182 218,-182"/>
</g>
<g id="clust2" class="cluster">
<title>cluster_2</title>
<polygon fill="#fffacd" stroke="black" points="128,-8 128,-147 262,-147 262,-8 128,-8"/>
</g>
<g id="clust3" class="cluster">
<title>cluster_3</title>
<polygon fill="#fffacd" stroke="black" points="8,-95 8,-234 120,-234 120,-95 8,-95"/>
</g>
<!-- Node4 -->
<g id="node1" class="node">
<title>Node4</title>
<ellipse fill="#00bfff" stroke="#00bfff" cx="273" cy="-208" rx="46.59" ry="18"/>
<text text-anchor="middle" x="273" y="-204.3" font-family="Times,serif" font-size="14.00">‡§ó‡§æ‡§®‡•ç‡§ß‡§æ‡§∞‡•Ä(4)</text>
</g>
<!-- Node2 -->
<g id="node2" class="node">
<title>Node2</title>
<ellipse fill="#00bfff" stroke="#00bfff" cx="267" cy="-295" rx="40.09" ry="18"/>
<text text-anchor="middle" x="267" y="-291.3" font-family="Times,serif" font-size="14.00">‡§µ‡§ø‡§¶‡•Å‡§∞‡§É(2)</text>
</g>
<!-- Node4&#45;&gt;Node2 -->
<g id="edge4" class="edge">
<title>Node4&#45;&gt;Node2</title>
<path fill="none" stroke="black" d="M271.08,-236.27C270.14,-249.58 269.03,-265.19 268.21,-276.82"/>
<polygon fill="black" stroke="black" points="274.57,-236.42 271.79,-226.2 267.59,-235.93 274.57,-236.42"/>
<text text-anchor="middle" x="293.5" y="-247.8" font-family="Times,serif" font-size="14.00">‡§∏‡§Æ‡•Å‡§ö‡•ç‡§ö‡§ø‡§§‡§É</text>
</g>
<!-- Node11 -->
<g id="node8" class="node">
<title>Node11</title>
<ellipse fill="#ff1975" stroke="#ff1975" cx="165" cy="-382" rx="57.69" ry="18"/>
<text text-anchor="middle" x="165" y="-378.3" font-family="Times,serif" font-size="14.00">(‡§Ü‡§∏‡•Ä‡§§‡•ç)(11)</text>
</g>
<!-- Node2&#45;&gt;Node11 -->
<g id="edge2" class="edge">
<title>Node2&#45;&gt;Node11</title>
<path fill="none" stroke="black" d="M242.47,-318.66C232.81,-327.38 221.53,-337.32 211,-346 203.26,-352.38 194.55,-359.12 186.8,-364.96"/>
<polygon fill="black" stroke="black" points="245.1,-320.99 250.15,-311.67 240.39,-315.81 245.1,-320.99"/>
<text text-anchor="middle" x="240" y="-334.8" font-family="Times,serif" font-size="14.00">‡§ï‡§∞‡•ç‡§§‡§æ</text>
</g>
<!-- Node5 -->
<g id="node3" class="node">
<title>Node5</title>
<ellipse fill="#b4ffb4" stroke="#b4ffb4" cx="195" cy="-34" rx="59.29" ry="18"/>
<text text-anchor="middle" x="195" y="-30.3" font-family="Times,serif" font-size="14.00">‡§Ö‡§ú‡§æ‡§§‡§∂‡§§‡•ç‡§∞‡•ã‡§É(5)</text>
</g>
<!-- Node6 -->
<g id="node4" class="node">
<title>Node6</title>
<ellipse fill="#87ceeb" stroke="#87ceeb" cx="189" cy="-121" rx="47.39" ry="18"/>
<text text-anchor="middle" x="189" y="-117.3" font-family="Times,serif" font-size="14.00">‡§®‡§∞‡•á‡§®‡•ç‡§¶‡•ç‡§∞‡§∏‡•ç‡§Ø(6)</text>
</g>
<!-- Node5&#45;&gt;Node6 -->
<g id="edge5" class="edge">
<title>Node5&#45;&gt;Node6</title>
<path fill="none" stroke="black" d="M193.08,-62.27C192.14,-75.58 191.03,-91.19 190.21,-102.82"/>
<polygon fill="black" stroke="black" points="196.57,-62.42 193.79,-52.2 189.59,-61.93 196.57,-62.42"/>
<text text-anchor="middle" x="215.5" y="-73.8" font-family="Times,serif" font-size="14.00">‡§µ‡§ø‡§∂‡•á‡§∑‡§£‡§Æ‡•ç</text>
</g>
<!-- Node10 -->
<g id="node6" class="node">
<title>Node10</title>
<ellipse fill="#40e0d0" stroke="#40e0d0" cx="64" cy="-208" rx="48.19" ry="18"/>
<text text-anchor="middle" x="64" y="-204.3" font-family="Times,serif" font-size="14.00">‡§∂‡•å‡§ö‡•á‡§®(10)</text>
</g>
<!-- Node6&#45;&gt;Node10 -->
<g id="edge6" class="edge">
<title>Node6&#45;&gt;Node10</title>
<path fill="none" stroke="black" d="M158.48,-142.75C136.15,-157.94 106.37,-178.19 86.26,-191.86"/>
<polygon fill="black" stroke="black" points="160.64,-145.52 166.94,-137 156.7,-139.73 160.64,-145.52"/>
<text text-anchor="middle" x="161.5" y="-160.8" font-family="Times,serif" font-size="14.00">‡§∑‡§∑‡•ç‡§†‡•Ä‡§∏‡§Æ‡•ç‡§¨‡§®‡•ç‡§ß‡§É</text>
</g>
<!-- Node8 -->
<g id="node5" class="node">
<title>Node8</title>
<ellipse fill="#40e0d0" stroke="#40e0d0" cx="64" cy="-121" rx="39.79" ry="18"/>
<text text-anchor="middle" x="64" y="-117.3" font-family="Times,serif" font-size="14.00">‡§ß‡•É‡§§‡•ç‡§Ø‡§æ(8)</text>
</g>
<!-- Node8&#45;&gt;Node10 -->
<g id="edge8" class="edge">
<title>Node8&#45;&gt;Node10</title>
<path fill="none" stroke="black" d="M64,-149.27C64,-162.58 64,-178.19 64,-189.82"/>
<polygon fill="black" stroke="black" points="67.5,-149.2 64,-139.2 60.5,-149.2 67.5,-149.2"/>
<text text-anchor="middle" x="86.5" y="-160.8" font-family="Times,serif" font-size="14.00">‡§∏‡§Æ‡•Å‡§ö‡•ç‡§ö‡§ø‡§§‡§É</text>
</g>
<!-- Node9 -->
<g id="node12" class="node">
<title>Node9</title>
<ellipse fill="#00bfff" stroke="#00bfff" cx="64" cy="-295" rx="36" ry="18"/>
<text text-anchor="middle" x="64" y="-291.3" font-family="Times,serif" font-size="14.00">‡§§‡•Å‡§∑‡•ç‡§ü‡§É(9)</text>
</g>
<!-- Node10&#45;&gt;Node9 -->
<g id="edge10" class="edge">
<title>Node10&#45;&gt;Node9</title>
<path fill="none" stroke="black" d="M64,-236.27C64,-249.58 64,-265.19 64,-276.82"/>
<polygon fill="black" stroke="black" points="67.5,-236.2 64,-226.2 60.5,-236.2 67.5,-236.2"/>
<text text-anchor="middle" x="80.5" y="-247.8" font-family="Times,serif" font-size="14.00">‡§ï‡§∞‡§£‡§Æ‡•ç</text>
</g>
<!-- Node1 -->
<g id="node7" class="node">
<title>Node1</title>
<ellipse fill="#6fffc3" stroke="#6fffc3" cx="165" cy="-295" rx="44.39" ry="18"/>
<text text-anchor="middle" x="165" y="-291.3" font-family="Times,serif" font-size="14.00">‡§∂‡§§‡•ç‡§∞‡•Å‡§π‡§®‡•ç(1)</text>
</g>
<!-- Node1&#45;&gt;Node11 -->
<g id="edge1" class="edge">
<title>Node1&#45;&gt;Node11</title>
<path fill="none" stroke="black" d="M165,-323.27C165,-336.58 165,-352.19 165,-363.82"/>
<polygon fill="black" stroke="black" points="168.5,-323.2 165,-313.2 161.5,-323.2 168.5,-323.2"/>
<text text-anchor="middle" x="186" y="-334.8" font-family="Times,serif" font-size="14.00">‡§∏‡§Æ‡•ç‡§¨‡•ã‡§ß‡•ç‡§Ø‡§É</text>
</g>
<!-- Node3 -->
<g id="node9" class="node">
<title>Node3</title>
<ellipse fill="#ff99ff" stroke="#ff99ff" cx="172" cy="-208" rx="36.29" ry="18"/>
<text text-anchor="middle" x="172" y="-204.3" font-family="Times,serif" font-size="14.00">‡§§‡§•‡§æ(3)</text>
</g>
<!-- Node3&#45;&gt;Node2 -->
<g id="edge3" class="edge">
<title>Node3&#45;&gt;Node2</title>
<path fill="none" stroke="black" d="M196.73,-231.13C213.42,-246.06 235.02,-265.39 249.84,-278.65"/>
<polygon fill="black" stroke="black" points="198.77,-228.26 188.98,-224.2 194.1,-233.47 198.77,-228.26"/>
<text text-anchor="middle" x="244.5" y="-247.8" font-family="Times,serif" font-size="14.00">‡§∏‡§Æ‡•ç‡§¨‡§®‡•ç‡§ß‡§É</text>
</g>
<!-- Node7 -->
<g id="node10" class="node">
<title>Node7</title>
<ellipse fill="#ff99ff" stroke="#ff99ff" cx="301" cy="-34" rx="28.7" ry="18"/>
<text text-anchor="middle" x="301" y="-30.3" font-family="Times,serif" font-size="14.00">‡§ö(7)</text>
</g>
<!-- Node10‡§ -->
<g id="node11" class="node">
<title>Node10‡§</title>
<ellipse fill="lightgrey" stroke="black" cx="301" cy="-121" rx="27" ry="18"/>
</g>
<!-- Node7&#45;&gt;Node10‡§ -->
<g id="edge7" class="edge">
<title>Node7&#45;&gt;Node10‡§</title>
<path fill="none" stroke="black" d="M301,-62.27C301,-75.58 301,-91.19 301,-102.82"/>
<polygon fill="black" stroke="black" points="304.5,-62.2 301,-52.2 297.5,-62.2 304.5,-62.2"/>
<text text-anchor="middle" x="339" y="-73.8" font-family="Times,serif" font-size="14.00">‡§∏‡§Æ‡•Å‡§ö‡•ç‡§ö‡§Ø_‡§¶‡•ç‡§Ø‡•ã‡§§‡§ï‡§É</text>
</g>
<!-- Node9&#45;&gt;Node11 -->
<g id="edge9" class="edge">
<title>Node9&#45;&gt;Node11</title>
<path fill="none" stroke="black" d="M69.82,-322.84C72.67,-331.06 76.87,-339.62 83,-346 93.51,-356.94 107.99,-364.63 121.86,-369.96"/>
<polygon fill="black" stroke="black" points="73.14,-321.73 66.96,-313.13 66.43,-323.71 73.14,-321.73"/>
<text text-anchor="middle" x="122" y="-334.8" font-family="Times,serif" font-size="14.00">‡§µ‡§ø‡§ß‡•á‡§Ø_‡§µ‡§ø‡§∂‡•á‡§∑‡§£‡§Æ‡•ç</text>
</g>
</g>
</svg>
