<?xml version="1.0" encoding="UTF-8" standalone="no"?>
<!DOCTYPE svg PUBLIC "-//W3C//DTD SVG 1.1//EN"
 "http://www.w3.org/Graphics/SVG/1.1/DTD/svg11.dtd">
<!-- Generated by graphviz version 2.43.0 (0)
 -->
<!-- Title: G Pages: 1 -->
<svg width="793pt" height="321pt"
 viewBox="0.00 0.00 793.00 321.00" xmlns="http://www.w3.org/2000/svg" xmlns:xlink="http://www.w3.org/1999/xlink">
<g id="graph0" class="graph" transform="scale(1 1) rotate(0) translate(4 317)">
<title>G</title>
<polygon fill="#fffacd" stroke="transparent" points="-4,4 -4,-317 789,-317 789,4 -4,4"/>
<g id="clust1" class="cluster">
<title>cluster_1</title>
<polygon fill="#fffacd" stroke="black" points="178,-95 178,-234 758,-234 758,-95 178,-95"/>
</g>
<g id="clust2" class="cluster">
<title>cluster_2</title>
<polygon fill="#fffacd" stroke="black" points="8,-8 8,-60 212,-60 212,-8 8,-8"/>
</g>
<g id="clust3" class="cluster">
<title>cluster_3</title>
<polygon fill="#fffacd" stroke="black" points="40,-95 40,-234 170,-234 170,-95 40,-95"/>
</g>
<!-- Node1_1 -->
<g id="node1" class="node">
<title>Node1_1</title>
<ellipse fill="#00bfff" stroke="#00bfff" cx="708" cy="-121" rx="42.49" ry="18"/>
<text text-anchor="middle" x="708" y="-117.3" font-family="Times,serif" font-size="14.00">एते(1.1)</text>
</g>
<!-- Node12_1 -->
<g id="node2" class="node">
<title>Node12_1</title>
<ellipse fill="#00bfff" stroke="#00bfff" cx="418" cy="-208" rx="42.79" ry="18"/>
<text text-anchor="middle" x="418" y="-204.3" font-family="Times,serif" font-size="14.00">ते(12.1)</text>
</g>
<!-- Node1_1&#45;&gt;Node12_1 -->
<g id="edge1" class="edge">
<title>Node1_1&#45;&gt;Node12_1</title>
<path fill="none" stroke="black" d="M670.47,-138.33C645.02,-148.96 610.41,-162.56 579,-172 537.91,-184.35 489.7,-194.24 456.82,-200.32"/>
<polygon fill="black" stroke="black" points="671.9,-141.53 679.75,-134.42 669.18,-135.08 671.9,-141.53"/>
<text text-anchor="middle" x="644.5" y="-160.8" font-family="Times,serif" font-size="14.00">समुच्चितः</text>
</g>
<!-- Node13_1 -->
<g id="node16" class="node">
<title>Node13_1</title>
<ellipse fill="#ff1975" stroke="#ff1975" cx="254" cy="-295" rx="65.79" ry="18"/>
<text text-anchor="middle" x="254" y="-291.3" font-family="Times,serif" font-size="14.00">समुत्तस्थुः(13.1)</text>
</g>
<!-- Node12_1&#45;&gt;Node13_1 -->
<g id="edge13" class="edge">
<title>Node12_1&#45;&gt;Node13_1</title>
<path fill="none" stroke="black" d="M382.83,-227.23C353.12,-242.63 311.06,-264.42 283.18,-278.87"/>
<polygon fill="black" stroke="black" points="384.75,-230.18 392.01,-222.47 381.52,-223.96 384.75,-230.18"/>
<text text-anchor="middle" x="357" y="-247.8" font-family="Times,serif" font-size="14.00">कर्ता</text>
</g>
<!-- Node3_1 -->
<g id="node3" class="node">
<title>Node3_1</title>
<ellipse fill="#00bfff" stroke="#00bfff" cx="480" cy="-121" rx="46.29" ry="18"/>
<text text-anchor="middle" x="480" y="-117.3" font-family="Times,serif" font-size="14.00">अन्ये(3.1)</text>
</g>
<!-- Node3_1&#45;&gt;Node12_1 -->
<g id="edge3" class="edge">
<title>Node3_1&#45;&gt;Node12_1</title>
<path fill="none" stroke="black" d="M461.98,-146.71C451.66,-160.86 439,-178.21 429.92,-190.66"/>
<polygon fill="black" stroke="black" points="464.98,-148.53 468.05,-138.39 459.33,-144.41 464.98,-148.53"/>
<text text-anchor="middle" x="474.5" y="-160.8" font-family="Times,serif" font-size="14.00">समुच्चितः</text>
</g>
<!-- Node9_1 -->
<g id="node4" class="node">
<title>Node9_1</title>
<ellipse fill="#00bfff" stroke="#00bfff" cx="358" cy="-121" rx="57.69" ry="18"/>
<text text-anchor="middle" x="358" y="-117.3" font-family="Times,serif" font-size="14.00">कीर्तिताः(9.1)</text>
</g>
<!-- Node9_1&#45;&gt;Node12_1 -->
<g id="edge9" class="edge">
<title>Node9_1&#45;&gt;Node12_1</title>
<path fill="none" stroke="black" d="M375.69,-147.06C385.6,-161.09 397.67,-178.19 406.37,-190.53"/>
<polygon fill="black" stroke="black" points="378.48,-144.94 369.85,-138.79 372.76,-148.98 378.48,-144.94"/>
<text text-anchor="middle" x="414.5" y="-160.8" font-family="Times,serif" font-size="14.00">विशेषणम्</text>
</g>
<!-- Node10_1 -->
<g id="node5" class="node">
<title>Node10_1</title>
<ellipse fill="#00bfff" stroke="#00bfff" cx="234" cy="-121" rx="48.19" ry="18"/>
<text text-anchor="middle" x="234" y="-117.3" font-family="Times,serif" font-size="14.00">सर्वे(10.1)</text>
</g>
<!-- Node10_1&#45;&gt;Node12_1 -->
<g id="edge10" class="edge">
<title>Node10_1&#45;&gt;Node12_1</title>
<path fill="none" stroke="black" d="M270.59,-140.51C289.92,-150.15 314.12,-161.98 336,-172 353.17,-179.87 372.6,-188.18 388.23,-194.74"/>
<polygon fill="black" stroke="black" points="272.03,-137.32 261.52,-135.98 268.9,-143.58 272.03,-137.32"/>
<text text-anchor="middle" x="358.5" y="-160.8" font-family="Times,serif" font-size="14.00">विशेषणम्</text>
</g>
<!-- Node11_2 -->
<g id="node6" class="node">
<title>Node11_2</title>
<ellipse fill="#00bfff" stroke="#00bfff" cx="596" cy="-121" rx="51.99" ry="18"/>
<text text-anchor="middle" x="596" y="-117.3" font-family="Times,serif" font-size="14.00">देहाः(11.2)</text>
</g>
<!-- Node11_2&#45;&gt;Node12_1 -->
<g id="edge12" class="edge">
<title>Node11_2&#45;&gt;Node12_1</title>
<path fill="none" stroke="black" d="M560.82,-141.43C543.07,-151 521.09,-162.5 501,-172 483.75,-180.16 464.09,-188.49 448.24,-194.98"/>
<polygon fill="black" stroke="black" points="562.57,-144.47 569.69,-136.62 559.23,-138.31 562.57,-144.47"/>
<text text-anchor="middle" x="552.5" y="-160.8" font-family="Times,serif" font-size="14.00">विशेषणम्</text>
</g>
<!-- Node5_1 -->
<g id="node7" class="node">
<title>Node5_1</title>
<ellipse fill="#00bfff" stroke="#00bfff" cx="156" cy="-34" rx="48.19" ry="18"/>
<text text-anchor="middle" x="156" y="-30.3" font-family="Times,serif" font-size="14.00">बहवः(5.1)</text>
</g>
<!-- Node5_1&#45;&gt;Node9_1 -->
<g id="edge5" class="edge">
<title>Node5_1&#45;&gt;Node9_1</title>
<path fill="none" stroke="black" d="M193.61,-53.04C214.48,-62.85 241,-75 265,-85 270.65,-87.36 298.65,-97.87 322.46,-106.76"/>
<polygon fill="black" stroke="black" points="194.98,-49.82 184.44,-48.71 191.99,-56.15 194.98,-49.82"/>
<text text-anchor="middle" x="287.5" y="-73.8" font-family="Times,serif" font-size="14.00">विशेषणम्</text>
</g>
<!-- Node7_1 -->
<g id="node8" class="node">
<title>Node7_1</title>
<ellipse fill="#00bfff" stroke="#00bfff" cx="53" cy="-34" rx="37.09" ry="18"/>
<text text-anchor="middle" x="53" y="-30.3" font-family="Times,serif" font-size="14.00">ये(7.1)</text>
</g>
<!-- Node7_1&#45;&gt;Node9_1 -->
<g id="edge7" class="edge">
<title>Node7_1&#45;&gt;Node9_1</title>
<path fill="none" stroke="black" d="M84.43,-53.2C89.23,-55.65 94.19,-58 99,-60 134.97,-74.94 144.76,-77.61 183,-85 230.33,-94.14 244.01,-84.26 291,-95 302.62,-97.66 314.95,-101.84 325.82,-106.02"/>
<polygon fill="black" stroke="black" points="85.94,-50.04 75.47,-48.43 82.65,-56.22 85.94,-50.04"/>
<text text-anchor="middle" x="205.5" y="-73.8" font-family="Times,serif" font-size="14.00">विशेषणम्</text>
</g>
<!-- Node15_1 -->
<g id="node9" class="node">
<title>Node15_1</title>
<ellipse fill="#ff99ff" stroke="#ff99ff" cx="105" cy="-121" rx="50.09" ry="18"/>
<text text-anchor="middle" x="105" y="-117.3" font-family="Times,serif" font-size="14.00">ततः(15.1)</text>
</g>
<!-- Node14_1 -->
<g id="node10" class="node">
<title>Node14_1</title>
<ellipse fill="#b4ffb4" stroke="#b4ffb4" cx="105" cy="-208" rx="57.39" ry="18"/>
<text text-anchor="middle" x="105" y="-204.3" font-family="Times,serif" font-size="14.00">जलात्(14.1)</text>
</g>
<!-- Node15_1&#45;&gt;Node14_1 -->
<g id="edge15" class="edge">
<title>Node15_1&#45;&gt;Node14_1</title>
<path fill="none" stroke="black" d="M105,-149.27C105,-162.58 105,-178.19 105,-189.82"/>
<polygon fill="black" stroke="black" points="108.5,-149.2 105,-139.2 101.5,-149.2 108.5,-149.2"/>
<text text-anchor="middle" x="127.5" y="-160.8" font-family="Times,serif" font-size="14.00">विशेषणम्</text>
</g>
<!-- Node14_1&#45;&gt;Node13_1 -->
<g id="edge14" class="edge">
<title>Node14_1&#45;&gt;Node13_1</title>
<path fill="none" stroke="black" d="M140.26,-229.12C166.81,-244.26 202.66,-264.71 226.96,-278.58"/>
<polygon fill="black" stroke="black" points="141.72,-225.92 131.3,-224 138.25,-232 141.72,-225.92"/>
<text text-anchor="middle" x="212.5" y="-247.8" font-family="Times,serif" font-size="14.00">अपादानम्</text>
</g>
<!-- Node2_1 -->
<g id="node11" class="node">
<title>Node2_1</title>
<ellipse fill="#ff99ff" stroke="#ff99ff" cx="710" cy="-34" rx="37.89" ry="18"/>
<text text-anchor="middle" x="710" y="-30.3" font-family="Times,serif" font-size="14.00">च(2.1)</text>
</g>
<!-- Node2_1&#45;&gt;Node1_1 -->
<g id="edge2" class="edge">
<title>Node2_1&#45;&gt;Node1_1</title>
<path fill="none" stroke="black" d="M709.36,-62.27C709.05,-75.58 708.68,-91.19 708.4,-102.82"/>
<polygon fill="black" stroke="black" points="712.86,-62.28 709.6,-52.2 705.86,-62.12 712.86,-62.28"/>
<text text-anchor="middle" x="747" y="-73.8" font-family="Times,serif" font-size="14.00">समुच्चय_द्योतकः</text>
</g>
<!-- Node4_1 -->
<g id="node12" class="node">
<title>Node4_1</title>
<ellipse fill="#ff99ff" stroke="#ff99ff" cx="482" cy="-34" rx="37.89" ry="18"/>
<text text-anchor="middle" x="482" y="-30.3" font-family="Times,serif" font-size="14.00">च(4.1)</text>
</g>
<!-- Node4_1&#45;&gt;Node3_1 -->
<g id="edge4" class="edge">
<title>Node4_1&#45;&gt;Node3_1</title>
<path fill="none" stroke="black" d="M481.36,-62.27C481.05,-75.58 480.68,-91.19 480.4,-102.82"/>
<polygon fill="black" stroke="black" points="484.86,-62.28 481.6,-52.2 477.86,-62.12 484.86,-62.28"/>
<text text-anchor="middle" x="519" y="-73.8" font-family="Times,serif" font-size="14.00">समुच्चय_द्योतकः</text>
</g>
<!-- Node6_1 -->
<g id="node13" class="node">
<title>Node6_1</title>
<ellipse fill="#b4ffb4" stroke="#b4ffb4" cx="278" cy="-34" rx="55.79" ry="18"/>
<text text-anchor="middle" x="278" y="-30.3" font-family="Times,serif" font-size="14.00">बहुत्वात्(6.1)</text>
</g>
<!-- Node6_1&#45;&gt;Node9_1 -->
<g id="edge6" class="edge">
<title>Node6_1&#45;&gt;Node9_1</title>
<path fill="none" stroke="black" d="M300.46,-58.86C313.81,-73.05 330.41,-90.69 342.35,-103.37"/>
<polygon fill="black" stroke="black" points="302.83,-56.27 293.42,-51.39 297.73,-61.07 302.83,-56.27"/>
<text text-anchor="middle" x="332.5" y="-73.8" font-family="Times,serif" font-size="14.00">हेतुः</text>
</g>
<!-- Node8_1 -->
<g id="node14" class="node">
<title>Node8_1</title>
<ellipse fill="#ff99ff" stroke="#ff99ff" cx="389" cy="-34" rx="37.09" ry="18"/>
<text text-anchor="middle" x="389" y="-30.3" font-family="Times,serif" font-size="14.00">न(8.1)</text>
</g>
<!-- Node8_1&#45;&gt;Node9_1 -->
<g id="edge8" class="edge">
<title>Node8_1&#45;&gt;Node9_1</title>
<path fill="none" stroke="black" d="M379.32,-61.53C374.39,-75.05 368.54,-91.09 364.22,-102.95"/>
<polygon fill="black" stroke="black" points="382.74,-62.39 382.88,-51.79 376.16,-59.99 382.74,-62.39"/>
<text text-anchor="middle" x="395.5" y="-73.8" font-family="Times,serif" font-size="14.00">प्रतिषेधः</text>
</g>
<!-- Node11_1 -->
<g id="node15" class="node">
<title>Node11_1</title>
<ellipse fill="#ffff00" stroke="#ffff00" cx="596" cy="-34" rx="58.49" ry="18"/>
<text text-anchor="middle" x="596" y="-30.3" font-family="Times,serif" font-size="14.00">भासुर&#45;(11.1)</text>
</g>
<!-- Node11_1&#45;&gt;Node11_2 -->
<g id="edge11" class="edge">
<title>Node11_1&#45;&gt;Node11_2</title>
<path fill="none" stroke="black" d="M596,-62.27C596,-75.58 596,-91.19 596,-102.82"/>
<polygon fill="black" stroke="black" points="599.5,-62.2 596,-52.2 592.5,-62.2 599.5,-62.2"/>
<text text-anchor="middle" x="613" y="-73.8" font-family="Times,serif" font-size="14.00">समासः</text>
</g>
</g>
</svg>
