<?xml version="1.0" encoding="UTF-8" standalone="no"?>
<!DOCTYPE svg PUBLIC "-//W3C//DTD SVG 1.1//EN"
 "http://www.w3.org/Graphics/SVG/1.1/DTD/svg11.dtd">
<!-- Generated by graphviz version 2.43.0 (0)
 -->
<!-- Title: G Pages: 1 -->
<svg width="648pt" height="392pt"
 viewBox="0.00 0.00 648.00 392.00" xmlns="http://www.w3.org/2000/svg" xmlns:xlink="http://www.w3.org/1999/xlink">
<g id="graph0" class="graph" transform="scale(1 1) rotate(0) translate(4 388)">
<title>G</title>
<polygon fill="#fffacd" stroke="transparent" points="-4,4 -4,-388 644,-388 644,4 -4,4"/>
<g id="clust1" class="cluster">
<title>cluster_1</title>
<polygon fill="#fffacd" stroke="black" points="396,-79 396,-218 632,-218 632,-79 396,-79"/>
</g>
<g id="clust2" class="cluster">
<title>cluster_2</title>
<polygon fill="#fffacd" stroke="black" points="140,-79 140,-218 254,-218 254,-79 140,-79"/>
</g>
<g id="clust3" class="cluster">
<title>cluster_3</title>
<polygon fill="#fffacd" stroke="black" points="8,-166 8,-305 132,-305 132,-166 8,-166"/>
</g>
<!-- Node3_2 -->
<g id="node1" class="node">
<title>Node3_2</title>
<ellipse fill="#00bfff" stroke="#00bfff" cx="452" cy="-105" rx="48.19" ry="18"/>
<text text-anchor="middle" x="452" y="-101.3" font-family="Times,serif" font-size="14.00">तेजाः(3.2)</text>
</g>
<!-- Node2_1 -->
<g id="node2" class="node">
<title>Node2_1</title>
<ellipse fill="#00bfff" stroke="#00bfff" cx="455" cy="-192" rx="50.89" ry="18"/>
<text text-anchor="middle" x="455" y="-188.3" font-family="Times,serif" font-size="14.00">व्यासः(2.1)</text>
</g>
<!-- Node3_2&#45;&gt;Node2_1 -->
<g id="edge5" class="edge">
<title>Node3_2&#45;&gt;Node2_1</title>
<path fill="none" stroke="black" d="M452.96,-133.27C453.43,-146.58 453.98,-162.19 454.39,-173.82"/>
<polygon fill="black" stroke="black" points="456.46,-133.07 452.61,-123.2 449.46,-133.32 456.46,-133.07"/>
<text text-anchor="middle" x="476.5" y="-144.8" font-family="Times,serif" font-size="14.00">विशेषणम्</text>
</g>
<!-- Node10_1 -->
<g id="node9" class="node">
<title>Node10_1</title>
<ellipse fill="#ff1975" stroke="#ff1975" cx="240" cy="-366" rx="63.89" ry="18"/>
<text text-anchor="middle" x="240" y="-362.3" font-family="Times,serif" font-size="14.00">आजुहाव(10.1)</text>
</g>
<!-- Node2_1&#45;&gt;Node10_1 -->
<g id="edge2" class="edge">
<title>Node2_1&#45;&gt;Node10_1</title>
<path fill="none" stroke="black" d="M442.77,-219.06C430.03,-243.86 408.03,-280.87 380,-305 352.74,-328.46 314.94,-343.93 285.48,-353.27"/>
<polygon fill="black" stroke="black" points="446.01,-220.4 447.34,-209.89 439.75,-217.27 446.01,-220.4"/>
<text text-anchor="middle" x="429" y="-275.3" font-family="Times,serif" font-size="14.00">कर्ता</text>
</g>
<!-- Node6_1 -->
<g id="node10" class="node">
<title>Node6_1</title>
<ellipse fill="#ff99ff" stroke="#ff99ff" cx="314" cy="-279" rx="56.59" ry="18"/>
<text text-anchor="middle" x="314" y="-275.3" font-family="Times,serif" font-size="14.00">अवगाह्य(6.1)</text>
</g>
<!-- Node2_1&#45;&gt;Node6_1 -->
<g id="edge3" class="edge">
<title>Node2_1&#45;&gt;Node6_1</title>
<path fill="none" stroke="black" stroke-dasharray="1,5" d="M421.58,-213.15C396.33,-228.37 362.21,-248.93 339.23,-262.79"/>
<polygon fill="black" stroke="black" points="423.68,-215.97 430.44,-207.81 420.07,-209.97 423.68,-215.97"/>
<text text-anchor="middle" x="404" y="-231.8" font-family="Times,serif" font-size="14.00">कर्ता</text>
</g>
<!-- Node11_2 -->
<g id="node3" class="node">
<title>Node11_2</title>
<ellipse fill="#00bfff" stroke="#00bfff" cx="571" cy="-105" rx="52.79" ry="18"/>
<text text-anchor="middle" x="571" y="-101.3" font-family="Times,serif" font-size="14.00">मुनिः(11.2)</text>
</g>
<!-- Node11_2&#45;&gt;Node2_1 -->
<g id="edge14" class="edge">
<title>Node11_2&#45;&gt;Node2_1</title>
<path fill="none" stroke="black" d="M541.57,-127.68C529.61,-136.48 515.65,-146.73 503,-156 494.35,-162.34 484.8,-169.3 476.52,-175.34"/>
<polygon fill="black" stroke="black" points="543.9,-130.31 549.88,-121.56 539.75,-124.67 543.9,-130.31"/>
<text text-anchor="middle" x="543.5" y="-144.8" font-family="Times,serif" font-size="14.00">विशेषणम्</text>
</g>
<!-- Node4_1 -->
<g id="node4" class="node">
<title>Node4_1</title>
<ellipse fill="#93db70" stroke="#93db70" cx="197" cy="-105" rx="46.29" ry="18"/>
<text text-anchor="middle" x="197" y="-101.3" font-family="Times,serif" font-size="14.00">पुण्यं(4.1)</text>
</g>
<!-- Node5_2 -->
<g id="node5" class="node">
<title>Node5_2</title>
<ellipse fill="#93db70" stroke="#93db70" cx="197" cy="-192" rx="48.99" ry="18"/>
<text text-anchor="middle" x="197" y="-188.3" font-family="Times,serif" font-size="14.00">जलम्(5.2)</text>
</g>
<!-- Node4_1&#45;&gt;Node5_2 -->
<g id="edge6" class="edge">
<title>Node4_1&#45;&gt;Node5_2</title>
<path fill="none" stroke="black" d="M197,-133.27C197,-146.58 197,-162.19 197,-173.82"/>
<polygon fill="black" stroke="black" points="200.5,-133.2 197,-123.2 193.5,-133.2 200.5,-133.2"/>
<text text-anchor="middle" x="219.5" y="-144.8" font-family="Times,serif" font-size="14.00">विशेषणम्</text>
</g>
<!-- Node5_2&#45;&gt;Node6_1 -->
<g id="edge8" class="edge">
<title>Node5_2&#45;&gt;Node6_1</title>
<path fill="none" stroke="black" d="M226.51,-214.44C246.93,-229.28 273.66,-248.69 292.18,-262.15"/>
<polygon fill="black" stroke="black" points="228.34,-211.44 218.19,-208.39 224.22,-217.1 228.34,-211.44"/>
<text text-anchor="middle" x="272" y="-231.8" font-family="Times,serif" font-size="14.00">कर्म</text>
</g>
<!-- Node8_1 -->
<g id="node6" class="node">
<title>Node8_1</title>
<ellipse fill="#93db70" stroke="#93db70" cx="70" cy="-192" rx="50.09" ry="18"/>
<text text-anchor="middle" x="70" y="-188.3" font-family="Times,serif" font-size="14.00">सर्वान्(8.1)</text>
</g>
<!-- Node9_1 -->
<g id="node7" class="node">
<title>Node9_1</title>
<ellipse fill="#93db70" stroke="#93db70" cx="70" cy="-279" rx="53.89" ry="18"/>
<text text-anchor="middle" x="70" y="-275.3" font-family="Times,serif" font-size="14.00">लोकान्(9.1)</text>
</g>
<!-- Node8_1&#45;&gt;Node9_1 -->
<g id="edge11" class="edge">
<title>Node8_1&#45;&gt;Node9_1</title>
<path fill="none" stroke="black" d="M70,-220.27C70,-233.58 70,-249.19 70,-260.82"/>
<polygon fill="black" stroke="black" points="73.5,-220.2 70,-210.2 66.5,-220.2 73.5,-220.2"/>
<text text-anchor="middle" x="92.5" y="-231.8" font-family="Times,serif" font-size="14.00">विशेषणम्</text>
</g>
<!-- Node9_1&#45;&gt;Node10_1 -->
<g id="edge12" class="edge">
<title>Node9_1&#45;&gt;Node10_1</title>
<path fill="none" stroke="black" d="M108,-299C138.85,-314.42 181.74,-335.87 210.16,-350.08"/>
<polygon fill="black" stroke="black" points="109.35,-295.76 98.84,-294.42 106.22,-302.02 109.35,-295.76"/>
<text text-anchor="middle" x="175" y="-318.8" font-family="Times,serif" font-size="14.00">कर्म</text>
</g>
<!-- Node1_1 -->
<g id="node8" class="node">
<title>Node1_1</title>
<ellipse fill="#ff99ff" stroke="#ff99ff" cx="195" cy="-279" rx="44.39" ry="18"/>
<text text-anchor="middle" x="195" y="-275.3" font-family="Times,serif" font-size="14.00">ततः(1.1)</text>
</g>
<!-- Node1_1&#45;&gt;Node10_1 -->
<g id="edge1" class="edge">
<title>Node1_1&#45;&gt;Node10_1</title>
<path fill="none" stroke="black" d="M208.63,-305.74C215.87,-319.42 224.57,-335.86 230.97,-347.95"/>
<polygon fill="black" stroke="black" points="211.66,-303.99 203.89,-296.79 205.48,-307.27 211.66,-303.99"/>
<text text-anchor="middle" x="239.5" y="-318.8" font-family="Times,serif" font-size="14.00">सम्बन्धः</text>
</g>
<!-- Node6_1&#45;&gt;Node10_1 -->
<g id="edge9" class="edge">
<title>Node6_1&#45;&gt;Node10_1</title>
<path fill="none" stroke="black" d="M292.57,-304.61C280.38,-318.62 265.43,-335.79 254.59,-348.24"/>
<polygon fill="black" stroke="black" points="295.45,-306.63 299.38,-296.79 290.17,-302.04 295.45,-306.63"/>
<text text-anchor="middle" x="302.5" y="-318.8" font-family="Times,serif" font-size="14.00">पूर्वकालः</text>
</g>
<!-- Node3_1 -->
<g id="node11" class="node">
<title>Node3_1</title>
<ellipse fill="#ffff00" stroke="#ffff00" cx="452" cy="-18" rx="46.59" ry="18"/>
<text text-anchor="middle" x="452" y="-14.3" font-family="Times,serif" font-size="14.00">महा&#45;(3.1)</text>
</g>
<!-- Node3_1&#45;&gt;Node3_2 -->
<g id="edge4" class="edge">
<title>Node3_1&#45;&gt;Node3_2</title>
<path fill="none" stroke="black" d="M452,-46.27C452,-59.58 452,-75.19 452,-86.82"/>
<polygon fill="black" stroke="black" points="455.5,-46.2 452,-36.2 448.5,-46.2 455.5,-46.2"/>
<text text-anchor="middle" x="469" y="-57.8" font-family="Times,serif" font-size="14.00">समासः</text>
</g>
<!-- Node5_1 -->
<g id="node12" class="node">
<title>Node5_1</title>
<ellipse fill="#ffff00" stroke="#ffff00" cx="324" cy="-105" rx="61.99" ry="18"/>
<text text-anchor="middle" x="324" y="-101.3" font-family="Times,serif" font-size="14.00">भागीरथी&#45;(5.1)</text>
</g>
<!-- Node5_1&#45;&gt;Node5_2 -->
<g id="edge7" class="edge">
<title>Node5_1&#45;&gt;Node5_2</title>
<path fill="none" stroke="black" d="M291.84,-127.52C269.29,-142.62 239.7,-162.42 219.61,-175.87"/>
<polygon fill="black" stroke="black" points="294.05,-130.26 300.41,-121.79 290.15,-124.44 294.05,-130.26"/>
<text text-anchor="middle" x="286" y="-144.8" font-family="Times,serif" font-size="14.00">समासः</text>
</g>
<!-- Node7_1 -->
<g id="node13" class="node">
<title>Node7_1</title>
<ellipse fill="#ff99ff" stroke="#ff99ff" cx="314" cy="-192" rx="44.39" ry="18"/>
<text text-anchor="middle" x="314" y="-188.3" font-family="Times,serif" font-size="14.00">अथ(7.1)</text>
</g>
<!-- Node7_1&#45;&gt;Node6_1 -->
<g id="edge10" class="edge">
<title>Node7_1&#45;&gt;Node6_1</title>
<path fill="none" stroke="black" d="M314,-220.27C314,-233.58 314,-249.19 314,-260.82"/>
<polygon fill="black" stroke="black" points="317.5,-220.2 314,-210.2 310.5,-220.2 317.5,-220.2"/>
<text text-anchor="middle" x="332.5" y="-231.8" font-family="Times,serif" font-size="14.00">सम्बन्धः</text>
</g>
<!-- Node11_1 -->
<g id="node14" class="node">
<title>Node11_1</title>
<ellipse fill="#ffff00" stroke="#ffff00" cx="571" cy="-18" rx="52.79" ry="18"/>
<text text-anchor="middle" x="571" y="-14.3" font-family="Times,serif" font-size="14.00">महा&#45;(11.1)</text>
</g>
<!-- Node11_1&#45;&gt;Node11_2 -->
<g id="edge13" class="edge">
<title>Node11_1&#45;&gt;Node11_2</title>
<path fill="none" stroke="black" d="M571,-46.27C571,-59.58 571,-75.19 571,-86.82"/>
<polygon fill="black" stroke="black" points="574.5,-46.2 571,-36.2 567.5,-46.2 574.5,-46.2"/>
<text text-anchor="middle" x="588" y="-57.8" font-family="Times,serif" font-size="14.00">समासः</text>
</g>
</g>
</svg>
