<?xml version="1.0" encoding="UTF-8" standalone="no"?>
<!DOCTYPE svg PUBLIC "-//W3C//DTD SVG 1.1//EN"
 "http://www.w3.org/Graphics/SVG/1.1/DTD/svg11.dtd">
<!-- Generated by graphviz version 2.43.0 (0)
 -->
<!-- Title: G Pages: 1 -->
<svg width="1211pt" height="392pt"
 viewBox="0.00 0.00 1211.15 392.00" xmlns="http://www.w3.org/2000/svg" xmlns:xlink="http://www.w3.org/1999/xlink">
<g id="graph0" class="graph" transform="scale(1 1) rotate(0) translate(4 388)">
<title>G</title>
<polygon fill="#fffacd" stroke="transparent" points="-4,4 -4,-388 1207.15,-388 1207.15,4 -4,4"/>
<g id="clust1" class="cluster">
<title>cluster_1</title>
<polygon fill="#fffacd" stroke="black" points="188,-166 188,-305 1040,-305 1040,-166 188,-166"/>
</g>
<g id="clust2" class="cluster">
<title>cluster_2</title>
<polygon fill="#fffacd" stroke="black" points="8,-79 8,-131 118,-131 118,-79 8,-79"/>
</g>
<!-- Node1_2 -->
<g id="node1" class="node">
<title>Node1_2</title>
<ellipse fill="#00bfff" stroke="#00bfff" cx="873" cy="-192" rx="50.89" ry="18"/>
<text text-anchor="middle" x="873" y="-188.3" font-family="Times,serif" font-size="14.00">सन्धिः(1.2)</text>
</g>
<!-- Node15_2 -->
<g id="node2" class="node">
<title>Node15_2</title>
<ellipse fill="#00bfff" stroke="#00bfff" cx="614" cy="-279" rx="51.19" ry="18"/>
<text text-anchor="middle" x="614" y="-275.3" font-family="Times,serif" font-size="14.00">सेनः(15.2)</text>
</g>
<!-- Node1_2&#45;&gt;Node15_2 -->
<g id="edge2" class="edge">
<title>Node1_2&#45;&gt;Node15_2</title>
<path fill="none" stroke="black" d="M830.51,-209.39C803.59,-219.55 767.95,-232.6 736,-243 708.66,-251.9 677.49,-260.82 653.5,-267.43"/>
<polygon fill="black" stroke="black" points="831.9,-212.6 840.01,-205.78 829.42,-206.06 831.9,-212.6"/>
<text text-anchor="middle" x="799.5" y="-231.8" font-family="Times,serif" font-size="14.00">समुच्चितः</text>
</g>
<!-- Node17_1 -->
<g id="node22" class="node">
<title>Node17_1</title>
<ellipse fill="#ff1975" stroke="#ff1975" cx="614" cy="-366" rx="72.59" ry="18"/>
<text text-anchor="middle" x="614" y="-362.3" font-family="Times,serif" font-size="14.00">(समुत्तस्थुः)(17.1)</text>
</g>
<!-- Node15_2&#45;&gt;Node17_1 -->
<g id="edge21" class="edge">
<title>Node15_2&#45;&gt;Node17_1</title>
<path fill="none" stroke="black" d="M614,-307.27C614,-320.58 614,-336.19 614,-347.82"/>
<polygon fill="black" stroke="black" points="617.5,-307.2 614,-297.2 610.5,-307.2 617.5,-307.2"/>
<text text-anchor="middle" x="625" y="-318.8" font-family="Times,serif" font-size="14.00">कर्ता</text>
</g>
<!-- Node3_2 -->
<g id="node3" class="node">
<title>Node3_2</title>
<ellipse fill="#00bfff" stroke="#00bfff" cx="987" cy="-192" rx="44.69" ry="18"/>
<text text-anchor="middle" x="987" y="-188.3" font-family="Times,serif" font-size="14.00">दत्तः(3.2)</text>
</g>
<!-- Node3_2&#45;&gt;Node15_2 -->
<g id="edge5" class="edge">
<title>Node3_2&#45;&gt;Node15_2</title>
<path fill="none" stroke="black" d="M943.11,-206.84C939.69,-207.91 936.29,-208.97 933,-210 885.49,-224.81 874.44,-231.59 826,-243 770.08,-256.17 704.72,-266.16 661.52,-272.03"/>
<polygon fill="black" stroke="black" points="944.24,-210.16 952.73,-203.82 942.14,-203.48 944.24,-210.16"/>
<text text-anchor="middle" x="900.5" y="-231.8" font-family="Times,serif" font-size="14.00">समुच्चितः</text>
</g>
<!-- Node5_2 -->
<g id="node4" class="node">
<title>Node5_2</title>
<ellipse fill="#00bfff" stroke="#00bfff" cx="366" cy="-192" rx="48.19" ry="18"/>
<text text-anchor="middle" x="366" y="-188.3" font-family="Times,serif" font-size="14.00">सन्धः(5.2)</text>
</g>
<!-- Node5_2&#45;&gt;Node15_2 -->
<g id="edge8" class="edge">
<title>Node5_2&#45;&gt;Node15_2</title>
<path fill="none" stroke="black" d="M405.95,-209.84C430.78,-220.03 463.5,-232.95 493,-243 519.81,-252.13 550.46,-260.98 574.2,-267.5"/>
<polygon fill="black" stroke="black" points="407.08,-206.52 396.5,-205.94 404.41,-212.99 407.08,-206.52"/>
<text text-anchor="middle" x="515.5" y="-231.8" font-family="Times,serif" font-size="14.00">समुच्चितः</text>
</g>
<!-- Node7_1 -->
<g id="node5" class="node">
<title>Node7_1</title>
<ellipse fill="#00bfff" stroke="#00bfff" cx="486" cy="-192" rx="53.89" ry="18"/>
<text text-anchor="middle" x="486" y="-188.3" font-family="Times,serif" font-size="14.00">पार्थिवः(7.1)</text>
</g>
<!-- Node7_1&#45;&gt;Node15_2 -->
<g id="edge10" class="edge">
<title>Node7_1&#45;&gt;Node15_2</title>
<path fill="none" stroke="black" d="M517.8,-214.12C540.52,-229.21 570.57,-249.16 590.99,-262.72"/>
<polygon fill="black" stroke="black" points="519.45,-211.01 509.18,-208.39 515.57,-216.84 519.45,-211.01"/>
<text text-anchor="middle" x="579.5" y="-231.8" font-family="Times,serif" font-size="14.00">समुच्चितः</text>
</g>
<!-- Node10_1 -->
<g id="node6" class="node">
<title>Node10_1</title>
<ellipse fill="#00bfff" stroke="#00bfff" cx="248" cy="-192" rx="51.99" ry="18"/>
<text text-anchor="middle" x="248" y="-188.3" font-family="Times,serif" font-size="14.00">शलः(10.1)</text>
</g>
<!-- Node10_1&#45;&gt;Node15_2 -->
<g id="edge14" class="edge">
<title>Node10_1&#45;&gt;Node15_2</title>
<path fill="none" stroke="black" d="M292.21,-208.94C323.41,-219.73 366.36,-233.66 405,-243 459.71,-256.22 523.68,-266.14 566.3,-271.98"/>
<polygon fill="black" stroke="black" points="293.11,-205.55 282.52,-205.56 290.81,-212.16 293.11,-205.55"/>
<text text-anchor="middle" x="427.5" y="-231.8" font-family="Times,serif" font-size="14.00">समुच्चितः</text>
</g>
<!-- Node12_1 -->
<g id="node7" class="node">
<title>Node12_1</title>
<ellipse fill="#00bfff" stroke="#00bfff" cx="614" cy="-192" rx="55.79" ry="18"/>
<text text-anchor="middle" x="614" y="-188.3" font-family="Times,serif" font-size="14.00">शल्यः(12.1)</text>
</g>
<!-- Node12_1&#45;&gt;Node15_2 -->
<g id="edge16" class="edge">
<title>Node12_1&#45;&gt;Node15_2</title>
<path fill="none" stroke="black" d="M614,-220.27C614,-233.58 614,-249.19 614,-260.82"/>
<polygon fill="black" stroke="black" points="617.5,-220.2 614,-210.2 610.5,-220.2 617.5,-220.2"/>
<text text-anchor="middle" x="636.5" y="-231.8" font-family="Times,serif" font-size="14.00">समुच्चितः</text>
</g>
<!-- Node14_2 -->
<g id="node8" class="node">
<title>Node14_2</title>
<ellipse fill="#00bfff" stroke="#00bfff" cx="746" cy="-192" rx="57.69" ry="18"/>
<text text-anchor="middle" x="746" y="-188.3" font-family="Times,serif" font-size="14.00">अनुजः(14.2)</text>
</g>
<!-- Node14_2&#45;&gt;Node15_2 -->
<g id="edge19" class="edge">
<title>Node14_2&#45;&gt;Node15_2</title>
<path fill="none" stroke="black" d="M713.52,-213.92C690.05,-229.03 658.88,-249.1 637.73,-262.72"/>
<polygon fill="black" stroke="black" points="715.58,-216.75 722.1,-208.39 711.79,-210.86 715.58,-216.75"/>
<text text-anchor="middle" x="709.5" y="-231.8" font-family="Times,serif" font-size="14.00">विशेषणम्</text>
</g>
<!-- Node9_2 -->
<g id="node9" class="node">
<title>Node9_2</title>
<ellipse fill="#00bfff" stroke="#00bfff" cx="63" cy="-105" rx="47.39" ry="18"/>
<text text-anchor="middle" x="63" y="-101.3" font-family="Times,serif" font-size="14.00">श्रवाः(9.2)</text>
</g>
<!-- Node9_2&#45;&gt;Node10_1 -->
<g id="edge13" class="edge">
<title>Node9_2&#45;&gt;Node10_1</title>
<path fill="none" stroke="black" d="M89.01,-128.03C102.05,-138 118.55,-149.07 135,-156 156.69,-165.13 164.44,-159.28 187,-166 197.2,-169.04 208.04,-173.17 217.71,-177.2"/>
<polygon fill="black" stroke="black" points="91,-125.13 80.98,-121.69 86.66,-130.63 91,-125.13"/>
<text text-anchor="middle" x="157.5" y="-144.8" font-family="Times,serif" font-size="14.00">विशेषणम्</text>
</g>
<!-- Node1_1 -->
<g id="node10" class="node">
<title>Node1_1</title>
<ellipse fill="#ffff00" stroke="#ffff00" cx="940" cy="-105" rx="46.59" ry="18"/>
<text text-anchor="middle" x="940" y="-101.3" font-family="Times,serif" font-size="14.00">जरा&#45;(1.1)</text>
</g>
<!-- Node1_1&#45;&gt;Node1_2 -->
<g id="edge1" class="edge">
<title>Node1_1&#45;&gt;Node1_2</title>
<path fill="none" stroke="black" d="M931.13,-132.69C927.75,-140.65 923.39,-149.09 918,-156 912.16,-163.49 904.37,-170.29 896.92,-175.86"/>
<polygon fill="black" stroke="black" points="934.4,-133.94 934.77,-123.35 927.88,-131.4 934.4,-133.94"/>
<text text-anchor="middle" x="943" y="-144.8" font-family="Times,serif" font-size="14.00">समासः</text>
</g>
<!-- Node2_1 -->
<g id="node11" class="node">
<title>Node2_1</title>
<ellipse fill="#ff99ff" stroke="#ff99ff" cx="831" cy="-105" rx="44.39" ry="18"/>
<text text-anchor="middle" x="831" y="-101.3" font-family="Times,serif" font-size="14.00">(च)(2.1)</text>
</g>
<!-- Node2_1&#45;&gt;Node1_2 -->
<g id="edge3" class="edge">
<title>Node2_1&#45;&gt;Node1_2</title>
<path fill="none" stroke="black" d="M834.41,-133.33C836.04,-140.94 838.45,-149.03 842,-156 845.46,-162.8 850.56,-169.33 855.63,-174.86"/>
<polygon fill="black" stroke="black" points="837.84,-132.62 832.63,-123.4 830.95,-133.86 837.84,-132.62"/>
<text text-anchor="middle" x="880" y="-144.8" font-family="Times,serif" font-size="14.00">समुच्चय_द्योतकः</text>
</g>
<!-- Node3_1 -->
<g id="node12" class="node">
<title>Node3_1</title>
<ellipse fill="#ffff00" stroke="#ffff00" cx="1157" cy="-105" rx="46.29" ry="18"/>
<text text-anchor="middle" x="1157" y="-101.3" font-family="Times,serif" font-size="14.00">भग&#45;(3.1)</text>
</g>
<!-- Node3_1&#45;&gt;Node3_2 -->
<g id="edge4" class="edge">
<title>Node3_1&#45;&gt;Node3_2</title>
<path fill="none" stroke="black" d="M1135.87,-130.07C1126.19,-139.61 1113.98,-149.78 1101,-156 1076.62,-167.69 1066.83,-158.03 1041,-166 1031.62,-168.89 1021.77,-173.08 1013.08,-177.21"/>
<polygon fill="black" stroke="black" points="1138.62,-132.26 1143.06,-122.64 1133.59,-127.39 1138.62,-132.26"/>
<text text-anchor="middle" x="1140" y="-144.8" font-family="Times,serif" font-size="14.00">समासः</text>
</g>
<!-- Node4_1 -->
<g id="node13" class="node">
<title>Node4_1</title>
<ellipse fill="#ff99ff" stroke="#ff99ff" cx="1049" cy="-105" rx="44.39" ry="18"/>
<text text-anchor="middle" x="1049" y="-101.3" font-family="Times,serif" font-size="14.00">(च)(4.1)</text>
</g>
<!-- Node4_1&#45;&gt;Node3_2 -->
<g id="edge6" class="edge">
<title>Node4_1&#45;&gt;Node3_2</title>
<path fill="none" stroke="black" d="M1031.02,-130.65C1020.77,-144.7 1008.21,-161.92 999.13,-174.37"/>
<polygon fill="black" stroke="black" points="1033.98,-132.53 1037.05,-122.39 1028.33,-128.41 1033.98,-132.53"/>
<text text-anchor="middle" x="1059" y="-144.8" font-family="Times,serif" font-size="14.00">समुच्चय_द्योतकः</text>
</g>
<!-- Node5_1 -->
<g id="node14" class="node">
<title>Node5_1</title>
<ellipse fill="#ffff00" stroke="#ffff00" cx="399" cy="-105" rx="46.59" ry="18"/>
<text text-anchor="middle" x="399" y="-101.3" font-family="Times,serif" font-size="14.00">जल&#45;(5.1)</text>
</g>
<!-- Node5_1&#45;&gt;Node5_2 -->
<g id="edge7" class="edge">
<title>Node5_1&#45;&gt;Node5_2</title>
<path fill="none" stroke="black" d="M388.7,-132.54C383.42,-146.12 377.16,-162.24 372.56,-174.11"/>
<polygon fill="black" stroke="black" points="391.97,-133.79 392.32,-123.2 385.44,-131.26 391.97,-133.79"/>
<text text-anchor="middle" x="401" y="-144.8" font-family="Times,serif" font-size="14.00">समासः</text>
</g>
<!-- Node6_1 -->
<g id="node15" class="node">
<title>Node6_1</title>
<ellipse fill="#ff99ff" stroke="#ff99ff" cx="290" cy="-105" rx="44.39" ry="18"/>
<text text-anchor="middle" x="290" y="-101.3" font-family="Times,serif" font-size="14.00">(च)(6.1)</text>
</g>
<!-- Node6_1&#45;&gt;Node5_2 -->
<g id="edge9" class="edge">
<title>Node6_1&#45;&gt;Node5_2</title>
<path fill="none" stroke="black" d="M291.07,-133.28C292.49,-141.21 295.15,-149.48 300,-156 307.75,-166.4 319.51,-174.02 330.98,-179.44"/>
<polygon fill="black" stroke="black" points="294.53,-132.74 289.85,-123.23 287.58,-133.58 294.53,-132.74"/>
<text text-anchor="middle" x="338" y="-144.8" font-family="Times,serif" font-size="14.00">समुच्चय_द्योतकः</text>
</g>
<!-- Node8_1 -->
<g id="node16" class="node">
<title>Node8_1</title>
<ellipse fill="#ff99ff" stroke="#ff99ff" cx="508" cy="-105" rx="44.39" ry="18"/>
<text text-anchor="middle" x="508" y="-101.3" font-family="Times,serif" font-size="14.00">(च)(8.1)</text>
</g>
<!-- Node8_1&#45;&gt;Node7_1 -->
<g id="edge11" class="edge">
<title>Node8_1&#45;&gt;Node7_1</title>
<path fill="none" stroke="black" d="M500.94,-133.27C497.5,-146.58 493.46,-162.19 490.45,-173.82"/>
<polygon fill="black" stroke="black" points="504.43,-133.76 503.55,-123.2 497.65,-132.01 504.43,-133.76"/>
<text text-anchor="middle" x="536" y="-144.8" font-family="Times,serif" font-size="14.00">समुच्चय_द्योतकः</text>
</g>
<!-- Node9_1 -->
<g id="node17" class="node">
<title>Node9_1</title>
<ellipse fill="#ffff00" stroke="#ffff00" cx="63" cy="-18" rx="46.59" ry="18"/>
<text text-anchor="middle" x="63" y="-14.3" font-family="Times,serif" font-size="14.00">भूरि&#45;(9.1)</text>
</g>
<!-- Node9_1&#45;&gt;Node9_2 -->
<g id="edge12" class="edge">
<title>Node9_1&#45;&gt;Node9_2</title>
<path fill="none" stroke="black" d="M63,-46.27C63,-59.58 63,-75.19 63,-86.82"/>
<polygon fill="black" stroke="black" points="66.5,-46.2 63,-36.2 59.5,-46.2 66.5,-46.2"/>
<text text-anchor="middle" x="80" y="-57.8" font-family="Times,serif" font-size="14.00">समासः</text>
</g>
<!-- Node11_1 -->
<g id="node18" class="node">
<title>Node11_1</title>
<ellipse fill="#ff99ff" stroke="#ff99ff" cx="178" cy="-105" rx="50.09" ry="18"/>
<text text-anchor="middle" x="178" y="-101.3" font-family="Times,serif" font-size="14.00">(च)(11.1)</text>
</g>
<!-- Node11_1&#45;&gt;Node10_1 -->
<g id="edge15" class="edge">
<title>Node11_1&#45;&gt;Node10_1</title>
<path fill="none" stroke="black" d="M181.77,-133.15C183.84,-141.08 187.04,-149.38 192,-156 198.6,-164.81 208.12,-171.94 217.45,-177.4"/>
<polygon fill="black" stroke="black" points="185.14,-132.18 179.65,-123.12 178.3,-133.63 185.14,-132.18"/>
<text text-anchor="middle" x="230" y="-144.8" font-family="Times,serif" font-size="14.00">समुच्चय_द्योतकः</text>
</g>
<!-- Node13_1 -->
<g id="node19" class="node">
<title>Node13_1</title>
<ellipse fill="#ff99ff" stroke="#ff99ff" cx="614" cy="-105" rx="43.59" ry="18"/>
<text text-anchor="middle" x="614" y="-101.3" font-family="Times,serif" font-size="14.00">च(13.1)</text>
</g>
<!-- Node13_1&#45;&gt;Node12_1 -->
<g id="edge17" class="edge">
<title>Node13_1&#45;&gt;Node12_1</title>
<path fill="none" stroke="black" d="M614,-133.27C614,-146.58 614,-162.19 614,-173.82"/>
<polygon fill="black" stroke="black" points="617.5,-133.2 614,-123.2 610.5,-133.2 617.5,-133.2"/>
<text text-anchor="middle" x="652" y="-144.8" font-family="Times,serif" font-size="14.00">समुच्चय_द्योतकः</text>
</g>
<!-- Node14_1 -->
<g id="node20" class="node">
<title>Node14_1</title>
<ellipse fill="#ffff00" stroke="#ffff00" cx="722" cy="-105" rx="46.59" ry="18"/>
<text text-anchor="middle" x="722" y="-101.3" font-family="Times,serif" font-size="14.00">स&#45;(14.1)</text>
</g>
<!-- Node14_1&#45;&gt;Node14_2 -->
<g id="edge18" class="edge">
<title>Node14_1&#45;&gt;Node14_2</title>
<path fill="none" stroke="black" d="M729.59,-132.87C733.37,-146.27 737.83,-162.08 741.15,-173.82"/>
<polygon fill="black" stroke="black" points="732.94,-131.87 726.86,-123.2 726.21,-133.78 732.94,-131.87"/>
<text text-anchor="middle" x="752" y="-144.8" font-family="Times,serif" font-size="14.00">समासः</text>
</g>
<!-- Node15_1 -->
<g id="node21" class="node">
<title>Node15_1</title>
<ellipse fill="#ffff00" stroke="#ffff00" cx="127" cy="-192" rx="51.19" ry="18"/>
<text text-anchor="middle" x="127" y="-188.3" font-family="Times,serif" font-size="14.00">वृस&#45;(15.1)</text>
</g>
<!-- Node15_1&#45;&gt;Node15_2 -->
<g id="edge20" class="edge">
<title>Node15_1&#45;&gt;Node15_2</title>
<path fill="none" stroke="black" d="M174.23,-207.25C177.53,-208.2 180.81,-209.12 184,-210 241.46,-225.86 255.38,-232.19 314,-243 401.41,-259.12 504.58,-269.24 564.33,-274.23"/>
<polygon fill="black" stroke="black" points="174.92,-203.81 164.34,-204.38 172.97,-210.53 174.92,-203.81"/>
<text text-anchor="middle" x="331" y="-231.8" font-family="Times,serif" font-size="14.00">समासः</text>
</g>
<!-- Node16_1 -->
<g id="node23" class="node">
<title>Node16_1</title>
<ellipse fill="#ff99ff" stroke="#ff99ff" cx="1100" cy="-192" rx="50.09" ry="18"/>
<text text-anchor="middle" x="1100" y="-188.3" font-family="Times,serif" font-size="14.00">(च)(16.1)</text>
</g>
<!-- Node16_1&#45;&gt;Node15_2 -->
<g id="edge22" class="edge">
<title>Node16_1&#45;&gt;Node15_2</title>
<path fill="none" stroke="black" d="M1053.57,-207.17C1050.34,-208.14 1047.12,-209.09 1044,-210 992.15,-225.18 980.02,-232.63 927,-243 835.24,-260.95 726.41,-270.53 664.26,-274.92"/>
<polygon fill="black" stroke="black" points="1054.71,-210.49 1063.28,-204.26 1052.7,-203.78 1054.71,-210.49"/>
<text text-anchor="middle" x="1023" y="-231.8" font-family="Times,serif" font-size="14.00">समुच्चय_द्योतकः</text>
</g>
</g>
</svg>
