<?xml version="1.0" encoding="UTF-8" standalone="no"?>
<!DOCTYPE svg PUBLIC "-//W3C//DTD SVG 1.1//EN"
 "http://www.w3.org/Graphics/SVG/1.1/DTD/svg11.dtd">
<!-- Generated by graphviz version 2.43.0 (0)
 -->
<!-- Title: G Pages: 1 -->
<svg width="622pt" height="321pt"
 viewBox="0.00 0.00 622.09 321.00" xmlns="http://www.w3.org/2000/svg" xmlns:xlink="http://www.w3.org/1999/xlink">
<g id="graph0" class="graph" transform="scale(1 1) rotate(0) translate(4 317)">
<title>G</title>
<polygon fill="#fffacd" stroke="transparent" points="-4,4 -4,-317 618.09,-317 618.09,4 -4,4"/>
<g id="clust1" class="cluster">
<title>cluster_1</title>
<polygon fill="#fffacd" stroke="black" points="250.84,-8 250.84,-147 366.84,-147 366.84,-8 250.84,-8"/>
</g>
<g id="clust2" class="cluster">
<title>cluster_2</title>
<polygon fill="#fffacd" stroke="black" points="374.84,-8 374.84,-147 494.84,-147 494.84,-8 374.84,-8"/>
</g>
<g id="clust3" class="cluster">
<title>cluster_3</title>
<polygon fill="#fffacd" stroke="black" points="134.84,-8 134.84,-147 242.84,-147 242.84,-8 134.84,-8"/>
</g>
<!-- Node3_1 -->
<g id="node1" class="node">
<title>Node3_1</title>
<ellipse fill="#93db70" stroke="#93db70" cx="308.84" cy="-34" rx="44.39" ry="18"/>
<text text-anchor="middle" x="308.84" y="-30.3" font-family="Times,serif" font-size="14.00">तान्(3.1)</text>
</g>
<!-- Node4_1 -->
<g id="node2" class="node">
<title>Node4_1</title>
<ellipse fill="#93db70" stroke="#93db70" cx="308.84" cy="-121" rx="50.09" ry="18"/>
<text text-anchor="middle" x="308.84" y="-117.3" font-family="Times,serif" font-size="14.00">सर्वान्(4.1)</text>
</g>
<!-- Node3_1&#45;&gt;Node4_1 -->
<g id="edge3" class="edge">
<title>Node3_1&#45;&gt;Node4_1</title>
<path fill="none" stroke="black" d="M308.84,-62.27C308.84,-75.58 308.84,-91.19 308.84,-102.82"/>
<polygon fill="black" stroke="black" points="312.34,-62.2 308.84,-52.2 305.34,-62.2 312.34,-62.2"/>
<text text-anchor="middle" x="331.34" y="-73.8" font-family="Times,serif" font-size="14.00">विशेषणम्</text>
</g>
<!-- Node7_1 -->
<g id="node10" class="node">
<title>Node7_1</title>
<ellipse fill="#00bfff" stroke="#00bfff" cx="327.84" cy="-208" rx="50.09" ry="18"/>
<text text-anchor="middle" x="327.84" y="-204.3" font-family="Times,serif" font-size="14.00">पश्यन्(7.1)</text>
</g>
<!-- Node4_1&#45;&gt;Node7_1 -->
<g id="edge4" class="edge">
<title>Node4_1&#45;&gt;Node7_1</title>
<path fill="none" stroke="black" d="M314.94,-149.27C317.92,-162.58 321.41,-178.19 324.01,-189.82"/>
<polygon fill="black" stroke="black" points="318.29,-148.2 312.69,-139.2 311.46,-149.72 318.29,-148.2"/>
<text text-anchor="middle" x="327.84" y="-160.8" font-family="Times,serif" font-size="14.00">कर्म</text>
</g>
<!-- Node5_1 -->
<g id="node3" class="node">
<title>Node5_1</title>
<ellipse fill="#40e0d0" stroke="#40e0d0" cx="434.84" cy="-34" rx="51.99" ry="18"/>
<text text-anchor="middle" x="434.84" y="-30.3" font-family="Times,serif" font-size="14.00">दिव्येन(5.1)</text>
</g>
<!-- Node6_1 -->
<g id="node4" class="node">
<title>Node6_1</title>
<ellipse fill="#40e0d0" stroke="#40e0d0" cx="433.84" cy="-121" rx="51.19" ry="18"/>
<text text-anchor="middle" x="433.84" y="-117.3" font-family="Times,serif" font-size="14.00">चक्षुषा(6.1)</text>
</g>
<!-- Node5_1&#45;&gt;Node6_1 -->
<g id="edge5" class="edge">
<title>Node5_1&#45;&gt;Node6_1</title>
<path fill="none" stroke="black" d="M434.52,-62.27C434.37,-75.58 434.18,-91.19 434.05,-102.82"/>
<polygon fill="black" stroke="black" points="438.02,-62.24 434.64,-52.2 431.03,-62.16 438.02,-62.24"/>
<text text-anchor="middle" x="456.34" y="-73.8" font-family="Times,serif" font-size="14.00">विशेषणम्</text>
</g>
<!-- Node6_1&#45;&gt;Node7_1 -->
<g id="edge6" class="edge">
<title>Node6_1&#45;&gt;Node7_1</title>
<path fill="none" stroke="black" d="M405.85,-144.45C387.41,-159.23 363.74,-178.21 347.34,-191.37"/>
<polygon fill="black" stroke="black" points="408.3,-146.97 413.91,-137.99 403.92,-141.51 408.3,-146.97"/>
<text text-anchor="middle" x="403.34" y="-160.8" font-family="Times,serif" font-size="14.00">करणम्</text>
</g>
<!-- Node8_1 -->
<g id="node5" class="node">
<title>Node8_1</title>
<ellipse fill="#87ceeb" stroke="#87ceeb" cx="188.84" cy="-34" rx="46.29" ry="18"/>
<text text-anchor="middle" x="188.84" y="-30.3" font-family="Times,serif" font-size="14.00">तस्य(8.1)</text>
</g>
<!-- Node9_1 -->
<g id="node6" class="node">
<title>Node9_1</title>
<ellipse fill="#87ceeb" stroke="#87ceeb" cx="189.84" cy="-121" rx="44.39" ry="18"/>
<text text-anchor="middle" x="189.84" y="-117.3" font-family="Times,serif" font-size="14.00">मुनेः(9.1)</text>
</g>
<!-- Node8_1&#45;&gt;Node9_1 -->
<g id="edge8" class="edge">
<title>Node8_1&#45;&gt;Node9_1</title>
<path fill="none" stroke="black" d="M189.17,-62.27C189.32,-75.58 189.51,-91.19 189.64,-102.82"/>
<polygon fill="black" stroke="black" points="192.66,-62.16 189.05,-52.2 185.67,-62.24 192.66,-62.16"/>
<text text-anchor="middle" x="211.34" y="-73.8" font-family="Times,serif" font-size="14.00">विशेषणम्</text>
</g>
<!-- Node10_1 -->
<g id="node11" class="node">
<title>Node10_1</title>
<ellipse fill="#b4ffb4" stroke="#b4ffb4" cx="196.84" cy="-208" rx="63.09" ry="18"/>
<text text-anchor="middle" x="196.84" y="-204.3" font-family="Times,serif" font-size="14.00">प्रसादात्(10.1)</text>
</g>
<!-- Node9_1&#45;&gt;Node10_1 -->
<g id="edge9" class="edge">
<title>Node9_1&#45;&gt;Node10_1</title>
<path fill="none" stroke="black" d="M192.09,-149.27C193.19,-162.58 194.47,-178.19 195.43,-189.82"/>
<polygon fill="black" stroke="black" points="195.57,-148.88 191.26,-139.2 188.59,-149.45 195.57,-148.88"/>
<text text-anchor="middle" x="211.34" y="-160.8" font-family="Times,serif" font-size="14.00">सम्बन्धः</text>
</g>
<!-- Node1_1 -->
<g id="node7" class="node">
<title>Node1_1</title>
<ellipse fill="#00bfff" stroke="#00bfff" cx="57.84" cy="-208" rx="57.69" ry="18"/>
<text text-anchor="middle" x="57.84" y="-204.3" font-family="Times,serif" font-size="14.00">धृतराष्ट्रः(1.1)</text>
</g>
<!-- Node11_1 -->
<g id="node8" class="node">
<title>Node11_1</title>
<ellipse fill="#ff1975" stroke="#ff1975" cx="326.84" cy="-295" rx="51.99" ry="18"/>
<text text-anchor="middle" x="326.84" y="-291.3" font-family="Times,serif" font-size="14.00">ममुदे(11.1)</text>
</g>
<!-- Node1_1&#45;&gt;Node11_1 -->
<g id="edge1" class="edge">
<title>Node1_1&#45;&gt;Node11_1</title>
<path fill="none" stroke="black" d="M106.76,-224.46C159.5,-241.12 242.27,-267.27 289.85,-282.31"/>
<polygon fill="black" stroke="black" points="107.55,-221.04 96.96,-221.36 105.44,-227.71 107.55,-221.04"/>
<text text-anchor="middle" x="218.84" y="-247.8" font-family="Times,serif" font-size="14.00">कर्ता</text>
</g>
<!-- Node2_1 -->
<g id="node9" class="node">
<title>Node2_1</title>
<ellipse fill="#ff99ff" stroke="#ff99ff" cx="57.84" cy="-121" rx="37.09" ry="18"/>
<text text-anchor="middle" x="57.84" y="-117.3" font-family="Times,serif" font-size="14.00">तु(2.1)</text>
</g>
<!-- Node2_1&#45;&gt;Node1_1 -->
<g id="edge2" class="edge">
<title>Node2_1&#45;&gt;Node1_1</title>
<path fill="none" stroke="black" d="M57.84,-149.27C57.84,-162.58 57.84,-178.19 57.84,-189.82"/>
<polygon fill="black" stroke="black" points="61.34,-149.2 57.84,-139.2 54.34,-149.2 61.34,-149.2"/>
<text text-anchor="middle" x="76.34" y="-160.8" font-family="Times,serif" font-size="14.00">सम्बन्धः</text>
</g>
<!-- Node7_1&#45;&gt;Node11_1 -->
<g id="edge7" class="edge">
<title>Node7_1&#45;&gt;Node11_1</title>
<path fill="none" stroke="black" d="M327.52,-236.27C327.37,-249.58 327.18,-265.19 327.05,-276.82"/>
<polygon fill="black" stroke="black" points="331.02,-236.24 327.64,-226.2 324.03,-236.16 331.02,-236.24"/>
<text text-anchor="middle" x="370.84" y="-247.8" font-family="Times,serif" font-size="14.00">वर्तमानसमानकालः</text>
</g>
<!-- Node10_1&#45;&gt;Node11_1 -->
<g id="edge10" class="edge">
<title>Node10_1&#45;&gt;Node11_1</title>
<path fill="none" stroke="black" d="M229.46,-230.32C252.58,-245.44 283.05,-265.36 303.7,-278.87"/>
<polygon fill="black" stroke="black" points="231.28,-227.33 220.99,-224.79 227.45,-233.19 231.28,-227.33"/>
<text text-anchor="middle" x="278.34" y="-247.8" font-family="Times,serif" font-size="14.00">हेतुः</text>
</g>
<!-- Node12_1 -->
<g id="node12" class="node">
<title>Node12_1</title>
<ellipse fill="#ff99ff" stroke="#ff99ff" cx="437.84" cy="-208" rx="42.49" ry="18"/>
<text text-anchor="middle" x="437.84" y="-204.3" font-family="Times,serif" font-size="14.00">वै(12.1)</text>
</g>
<!-- Node12_1&#45;&gt;Node11_1 -->
<g id="edge11" class="edge">
<title>Node12_1&#45;&gt;Node11_1</title>
<path fill="none" stroke="black" d="M430.53,-235.71C427.18,-244.03 422.43,-252.67 415.84,-259 403.15,-271.19 385.71,-279.29 369.63,-284.59"/>
<polygon fill="black" stroke="black" points="433.84,-236.84 433.86,-226.24 427.24,-234.52 433.84,-236.84"/>
<text text-anchor="middle" x="444.34" y="-247.8" font-family="Times,serif" font-size="14.00">सम्बन्धः</text>
</g>
<!-- Node13_1 -->
<g id="node13" class="node">
<title>Node13_1</title>
<ellipse fill="#ffff00" stroke="#ffff00" cx="558.84" cy="-121" rx="55.49" ry="18"/>
<text text-anchor="middle" x="558.84" y="-117.3" font-family="Times,serif" font-size="14.00">भरत&#45;(13.1)</text>
</g>
<!-- Node13_2 -->
<g id="node14" class="node">
<title>Node13_2</title>
<ellipse fill="#6fffc3" stroke="#6fffc3" cx="556.84" cy="-208" rx="48.99" ry="18"/>
<text text-anchor="middle" x="556.84" y="-204.3" font-family="Times,serif" font-size="14.00">श्रेष्ठ(13.2)</text>
</g>
<!-- Node13_1&#45;&gt;Node13_2 -->
<g id="edge12" class="edge">
<title>Node13_1&#45;&gt;Node13_2</title>
<path fill="none" stroke="black" d="M558.2,-149.27C557.89,-162.58 557.52,-178.19 557.25,-189.82"/>
<polygon fill="black" stroke="black" points="561.7,-149.28 558.44,-139.2 554.71,-149.12 561.7,-149.28"/>
<text text-anchor="middle" x="574.84" y="-160.8" font-family="Times,serif" font-size="14.00">समासः</text>
</g>
<!-- Node13_2&#45;&gt;Node11_1 -->
<g id="edge13" class="edge">
<title>Node13_2&#45;&gt;Node11_1</title>
<path fill="none" stroke="black" d="M525.15,-229.3C508.34,-239.36 487.04,-251.02 466.84,-259 436.08,-271.14 399.82,-280.07 371.91,-285.87"/>
<polygon fill="black" stroke="black" points="527.27,-232.1 533.99,-223.91 523.63,-226.13 527.27,-232.1"/>
<text text-anchor="middle" x="517.84" y="-247.8" font-family="Times,serif" font-size="14.00">सम्बोध्यः</text>
</g>
</g>
</svg>
