<?xml version="1.0" encoding="UTF-8" standalone="no"?>
<!DOCTYPE svg PUBLIC "-//W3C//DTD SVG 1.1//EN"
 "http://www.w3.org/Graphics/SVG/1.1/DTD/svg11.dtd">
<!-- Generated by graphviz version 2.43.0 (0)
 -->
<!-- Title: G Pages: 1 -->
<svg width="704pt" height="566pt"
 viewBox="0.00 0.00 703.69 566.00" xmlns="http://www.w3.org/2000/svg" xmlns:xlink="http://www.w3.org/1999/xlink">
<g id="graph0" class="graph" transform="scale(1 1) rotate(0) translate(4 562)">
<title>G</title>
<polygon fill="#fffacd" stroke="transparent" points="-4,4 -4,-562 699.69,-562 699.69,4 -4,4"/>
<g id="clust1" class="cluster">
<title>cluster_1</title>
<polygon fill="#fffacd" stroke="black" points="112,-253 112,-479 610,-479 610,-253 112,-253"/>
</g>
<!-- Node1_1 -->
<g id="node1" class="node">
<title>Node1_1</title>
<ellipse fill="#00bfff" stroke="#00bfff" cx="463" cy="-366" rx="42.49" ry="18"/>
<text text-anchor="middle" x="463" y="-362.3" font-family="Times,serif" font-size="14.00">सर्वे(1.1)</text>
</g>
<!-- Node2_3 -->
<g id="node2" class="node">
<title>Node2_3</title>
<ellipse fill="#00bfff" stroke="#00bfff" cx="361" cy="-453" rx="46.29" ry="18"/>
<text text-anchor="middle" x="361" y="-449.3" font-family="Times,serif" font-size="14.00">धराः(2.3)</text>
</g>
<!-- Node1_1&#45;&gt;Node2_3 -->
<g id="edge1" class="edge">
<title>Node1_1&#45;&gt;Node2_3</title>
<path fill="none" stroke="black" d="M440.06,-389.94C430.95,-398.69 420.22,-408.59 410,-417 401.6,-423.91 391.94,-430.98 383.42,-436.94"/>
<polygon fill="black" stroke="black" points="442.55,-392.39 447.28,-382.91 437.67,-387.38 442.55,-392.39"/>
<text text-anchor="middle" x="448.5" y="-405.8" font-family="Times,serif" font-size="14.00">विशेषणम्</text>
</g>
<!-- Node9_1 -->
<g id="node10" class="node">
<title>Node9_1</title>
<ellipse fill="#ff1975" stroke="#ff1975" cx="361" cy="-540" rx="54.69" ry="18"/>
<text text-anchor="middle" x="361" y="-536.3" font-family="Times,serif" font-size="14.00">(सन्ति)(9.1)</text>
</g>
<!-- Node2_3&#45;&gt;Node9_1 -->
<g id="edge4" class="edge">
<title>Node2_3&#45;&gt;Node9_1</title>
<path fill="none" stroke="black" d="M361,-481.27C361,-494.58 361,-510.19 361,-521.82"/>
<polygon fill="black" stroke="black" points="364.5,-481.2 361,-471.2 357.5,-481.2 364.5,-481.2"/>
<text text-anchor="middle" x="372" y="-492.8" font-family="Times,serif" font-size="14.00">कर्ता</text>
</g>
<!-- Node3_1 -->
<g id="node3" class="node">
<title>Node3_1</title>
<ellipse fill="#00bfff" stroke="#00bfff" cx="361" cy="-366" rx="42.49" ry="18"/>
<text text-anchor="middle" x="361" y="-362.3" font-family="Times,serif" font-size="14.00">सर्वे(3.1)</text>
</g>
<!-- Node3_1&#45;&gt;Node2_3 -->
<g id="edge5" class="edge">
<title>Node3_1&#45;&gt;Node2_3</title>
<path fill="none" stroke="black" d="M361,-394.27C361,-407.58 361,-423.19 361,-434.82"/>
<polygon fill="black" stroke="black" points="364.5,-394.2 361,-384.2 357.5,-394.2 364.5,-394.2"/>
<text text-anchor="middle" x="383.5" y="-405.8" font-family="Times,serif" font-size="14.00">समुच्चितः</text>
</g>
<!-- Node4_2 -->
<g id="node4" class="node">
<title>Node4_2</title>
<ellipse fill="#00bfff" stroke="#00bfff" cx="178" cy="-279" rx="57.69" ry="18"/>
<text text-anchor="middle" x="178" y="-275.3" font-family="Times,serif" font-size="14.00">कुण्डलाः(4.2)</text>
</g>
<!-- Node4_2&#45;&gt;Node3_1 -->
<g id="edge7" class="edge">
<title>Node4_2&#45;&gt;Node3_1</title>
<path fill="none" stroke="black" d="M214.86,-299.42C233.36,-308.96 256.2,-320.43 277,-330 294.79,-338.19 315.06,-346.66 331.22,-353.21"/>
<polygon fill="black" stroke="black" points="216.38,-296.27 205.89,-294.77 213.16,-302.48 216.38,-296.27"/>
<text text-anchor="middle" x="299.5" y="-318.8" font-family="Times,serif" font-size="14.00">विशेषणम्</text>
</g>
<!-- Node5_2 -->
<g id="node5" class="node">
<title>Node5_2</title>
<ellipse fill="#00bfff" stroke="#00bfff" cx="299" cy="-279" rx="44.69" ry="18"/>
<text text-anchor="middle" x="299" y="-275.3" font-family="Times,serif" font-size="14.00">वैराः(5.2)</text>
</g>
<!-- Node5_2&#45;&gt;Node3_1 -->
<g id="edge9" class="edge">
<title>Node5_2&#45;&gt;Node3_1</title>
<path fill="none" stroke="black" d="M317.02,-304.71C327.34,-318.86 340,-336.21 349.08,-348.66"/>
<polygon fill="black" stroke="black" points="319.67,-302.41 310.95,-296.39 314.01,-306.53 319.67,-302.41"/>
<text text-anchor="middle" x="355.5" y="-318.8" font-family="Times,serif" font-size="14.00">विशेषणम्</text>
</g>
<!-- Node6_2 -->
<g id="node6" class="node">
<title>Node6_2</title>
<ellipse fill="#00bfff" stroke="#00bfff" cx="422" cy="-279" rx="59.59" ry="18"/>
<text text-anchor="middle" x="422" y="-275.3" font-family="Times,serif" font-size="14.00">अहंकाराः(6.2)</text>
</g>
<!-- Node6_2&#45;&gt;Node3_1 -->
<g id="edge11" class="edge">
<title>Node6_2&#45;&gt;Node3_1</title>
<path fill="none" stroke="black" d="M404.01,-305.06C393.94,-319.09 381.67,-336.19 372.81,-348.53"/>
<polygon fill="black" stroke="black" points="406.96,-306.96 409.94,-296.79 401.27,-302.88 406.96,-306.96"/>
<text text-anchor="middle" x="417.5" y="-318.8" font-family="Times,serif" font-size="14.00">विशेषणम्</text>
</g>
<!-- Node7_4 -->
<g id="node7" class="node">
<title>Node7_4</title>
<ellipse fill="#00bfff" stroke="#00bfff" cx="551" cy="-279" rx="51.19" ry="18"/>
<text text-anchor="middle" x="551" y="-275.3" font-family="Times,serif" font-size="14.00">मन्यवः(7.4)</text>
</g>
<!-- Node7_4&#45;&gt;Node3_1 -->
<g id="edge15" class="edge">
<title>Node7_4&#45;&gt;Node3_1</title>
<path fill="none" stroke="black" d="M512.82,-298.27C492.47,-307.9 466.97,-319.79 444,-330 426.27,-337.87 406.25,-346.33 390.31,-352.96"/>
<polygon fill="black" stroke="black" points="514.53,-301.33 522.07,-293.88 511.53,-295.01 514.53,-301.33"/>
<text text-anchor="middle" x="498.5" y="-318.8" font-family="Times,serif" font-size="14.00">विशेषणम्</text>
</g>
<!-- Node2_1 -->
<g id="node8" class="node">
<title>Node2_1</title>
<ellipse fill="#ffff00" stroke="#ffff00" cx="52" cy="-279" rx="50.09" ry="18"/>
<text text-anchor="middle" x="52" y="-275.3" font-family="Times,serif" font-size="14.00">दिव्य&#45;(2.1)</text>
</g>
<!-- Node2_2 -->
<g id="node9" class="node">
<title>Node2_2</title>
<ellipse fill="#ffff00" stroke="#ffff00" cx="52" cy="-366" rx="51.99" ry="18"/>
<text text-anchor="middle" x="52" y="-362.3" font-family="Times,serif" font-size="14.00">अम्बर&#45;(2.2)</text>
</g>
<!-- Node2_1&#45;&gt;Node2_2 -->
<g id="edge2" class="edge">
<title>Node2_1&#45;&gt;Node2_2</title>
<path fill="none" stroke="black" d="M52,-307.27C52,-320.58 52,-336.19 52,-347.82"/>
<polygon fill="black" stroke="black" points="55.5,-307.2 52,-297.2 48.5,-307.2 55.5,-307.2"/>
<text text-anchor="middle" x="69" y="-318.8" font-family="Times,serif" font-size="14.00">समासः</text>
</g>
<!-- Node2_2&#45;&gt;Node2_3 -->
<g id="edge3" class="edge">
<title>Node2_2&#45;&gt;Node2_3</title>
<path fill="none" stroke="black" d="M99.44,-381.52C102.33,-382.37 105.2,-383.2 108,-384 184.3,-405.83 274.13,-429.49 323.6,-442.35"/>
<polygon fill="black" stroke="black" points="100.18,-378.09 89.6,-378.6 98.19,-384.8 100.18,-378.09"/>
<text text-anchor="middle" x="242" y="-405.8" font-family="Times,serif" font-size="14.00">समासः</text>
</g>
<!-- Node4_1 -->
<g id="node11" class="node">
<title>Node4_1</title>
<ellipse fill="#ffff00" stroke="#ffff00" cx="176" cy="-192" rx="60.39" ry="18"/>
<text text-anchor="middle" x="176" y="-188.3" font-family="Times,serif" font-size="14.00">भ्राजिष्णु&#45;(4.1)</text>
</g>
<!-- Node4_1&#45;&gt;Node4_2 -->
<g id="edge6" class="edge">
<title>Node4_1&#45;&gt;Node4_2</title>
<path fill="none" stroke="black" d="M176.64,-220.27C176.95,-233.58 177.32,-249.19 177.59,-260.82"/>
<polygon fill="black" stroke="black" points="180.13,-220.12 176.4,-210.2 173.14,-220.28 180.13,-220.12"/>
<text text-anchor="middle" x="194" y="-231.8" font-family="Times,serif" font-size="14.00">समासः</text>
</g>
<!-- Node5_1 -->
<g id="node12" class="node">
<title>Node5_1</title>
<ellipse fill="#ffff00" stroke="#ffff00" cx="301" cy="-192" rx="46.29" ry="18"/>
<text text-anchor="middle" x="301" y="-188.3" font-family="Times,serif" font-size="14.00">निर्&#45;(5.1)</text>
</g>
<!-- Node5_1&#45;&gt;Node5_2 -->
<g id="edge8" class="edge">
<title>Node5_1&#45;&gt;Node5_2</title>
<path fill="none" stroke="black" d="M300.35,-220.27C300.04,-233.58 299.67,-249.19 299.4,-260.82"/>
<polygon fill="black" stroke="black" points="303.85,-220.28 300.59,-210.2 296.86,-220.12 303.85,-220.28"/>
<text text-anchor="middle" x="317" y="-231.8" font-family="Times,serif" font-size="14.00">समासः</text>
</g>
<!-- Node6_1 -->
<g id="node13" class="node">
<title>Node6_1</title>
<ellipse fill="#ffff00" stroke="#ffff00" cx="422" cy="-192" rx="46.29" ry="18"/>
<text text-anchor="middle" x="422" y="-188.3" font-family="Times,serif" font-size="14.00">निर्&#45;(6.1)</text>
</g>
<!-- Node6_1&#45;&gt;Node6_2 -->
<g id="edge10" class="edge">
<title>Node6_1&#45;&gt;Node6_2</title>
<path fill="none" stroke="black" d="M422,-220.27C422,-233.58 422,-249.19 422,-260.82"/>
<polygon fill="black" stroke="black" points="425.5,-220.2 422,-210.2 418.5,-220.2 425.5,-220.2"/>
<text text-anchor="middle" x="439" y="-231.8" font-family="Times,serif" font-size="14.00">समासः</text>
</g>
<!-- Node7_1 -->
<g id="node14" class="node">
<title>Node7_1</title>
<ellipse fill="#ffff00" stroke="#ffff00" cx="551" cy="-18" rx="42.49" ry="18"/>
<text text-anchor="middle" x="551" y="-14.3" font-family="Times,serif" font-size="14.00">वि&#45;(7.1)</text>
</g>
<!-- Node7_2 -->
<g id="node15" class="node">
<title>Node7_2</title>
<ellipse fill="#ffff00" stroke="#ffff00" cx="551" cy="-105" rx="44.69" ry="18"/>
<text text-anchor="middle" x="551" y="-101.3" font-family="Times,serif" font-size="14.00">गत&#45;(7.2)</text>
</g>
<!-- Node7_1&#45;&gt;Node7_2 -->
<g id="edge12" class="edge">
<title>Node7_1&#45;&gt;Node7_2</title>
<path fill="none" stroke="black" d="M551,-46.27C551,-59.58 551,-75.19 551,-86.82"/>
<polygon fill="black" stroke="black" points="554.5,-46.2 551,-36.2 547.5,-46.2 554.5,-46.2"/>
<text text-anchor="middle" x="568" y="-57.8" font-family="Times,serif" font-size="14.00">समासः</text>
</g>
<!-- Node7_3 -->
<g id="node16" class="node">
<title>Node7_3</title>
<ellipse fill="#ffff00" stroke="#ffff00" cx="551" cy="-192" rx="49.29" ry="18"/>
<text text-anchor="middle" x="551" y="-188.3" font-family="Times,serif" font-size="14.00">क्रोध&#45;(7.3)</text>
</g>
<!-- Node7_2&#45;&gt;Node7_3 -->
<g id="edge13" class="edge">
<title>Node7_2&#45;&gt;Node7_3</title>
<path fill="none" stroke="black" d="M551,-133.27C551,-146.58 551,-162.19 551,-173.82"/>
<polygon fill="black" stroke="black" points="554.5,-133.2 551,-123.2 547.5,-133.2 554.5,-133.2"/>
<text text-anchor="middle" x="568" y="-144.8" font-family="Times,serif" font-size="14.00">समासः</text>
</g>
<!-- Node7_3&#45;&gt;Node7_4 -->
<g id="edge14" class="edge">
<title>Node7_3&#45;&gt;Node7_4</title>
<path fill="none" stroke="black" d="M551,-220.27C551,-233.58 551,-249.19 551,-260.82"/>
<polygon fill="black" stroke="black" points="554.5,-220.2 551,-210.2 547.5,-220.2 554.5,-220.2"/>
<text text-anchor="middle" x="568" y="-231.8" font-family="Times,serif" font-size="14.00">समासः</text>
</g>
<!-- Node8_1 -->
<g id="node17" class="node">
<title>Node8_1</title>
<ellipse fill="#ff99ff" stroke="#ff99ff" cx="658" cy="-279" rx="37.89" ry="18"/>
<text text-anchor="middle" x="658" y="-275.3" font-family="Times,serif" font-size="14.00">च(8.1)</text>
</g>
<!-- Node8_1&#45;&gt;Node3_1 -->
<g id="edge16" class="edge">
<title>Node8_1&#45;&gt;Node3_1</title>
<path fill="none" stroke="black" d="M619.79,-294.8C617.83,-295.54 615.89,-296.28 614,-297 574.54,-311.94 565.8,-319.3 525,-330 475.8,-342.9 461.39,-335.92 412,-348 405.47,-349.6 398.58,-351.64 392.05,-353.75"/>
<polygon fill="black" stroke="black" points="621.53,-297.88 629.61,-291.03 619.02,-291.34 621.53,-297.88"/>
<text text-anchor="middle" x="608" y="-318.8" font-family="Times,serif" font-size="14.00">समुच्चय_द्योतकः</text>
</g>
</g>
</svg>
