<?xml version="1.0" encoding="UTF-8" standalone="no"?>
<!DOCTYPE svg PUBLIC "-//W3C//DTD SVG 1.1//EN"
 "http://www.w3.org/Graphics/SVG/1.1/DTD/svg11.dtd">
<!-- Generated by graphviz version 2.43.0 (0)
 -->
<!-- Title: G Pages: 1 -->
<svg width="672pt" height="392pt"
 viewBox="0.00 0.00 672.00 392.00" xmlns="http://www.w3.org/2000/svg" xmlns:xlink="http://www.w3.org/1999/xlink">
<g id="graph0" class="graph" transform="scale(1 1) rotate(0) translate(4 388)">
<title>G</title>
<polygon fill="#fffacd" stroke="transparent" points="-4,4 -4,-388 668,-388 668,4 -4,4"/>
<g id="clust1" class="cluster">
<title>cluster_1</title>
<polygon fill="#fffacd" stroke="black" points="136,-166 136,-305 493,-305 493,-166 136,-166"/>
</g>
<g id="clust2" class="cluster">
<title>cluster_2</title>
<polygon fill="#fffacd" stroke="black" points="8,-79 8,-218 124,-218 124,-79 8,-79"/>
</g>
<!-- Node1_1 -->
<g id="node1" class="node">
<title>Node1_1</title>
<ellipse fill="#00bfff" stroke="#00bfff" cx="443" cy="-192" rx="42.49" ry="18"/>
<text text-anchor="middle" x="443" y="-188.3" font-family="Times,serif" font-size="14.00">तत्(1.1)</text>
</g>
<!-- Node3_4 -->
<g id="node2" class="node">
<title>Node3_4</title>
<ellipse fill="#00bfff" stroke="#00bfff" cx="381" cy="-279" rx="57.69" ry="18"/>
<text text-anchor="middle" x="381" y="-275.3" font-family="Times,serif" font-size="14.00">आकुलम्(3.4)</text>
</g>
<!-- Node1_1&#45;&gt;Node3_4 -->
<g id="edge1" class="edge">
<title>Node1_1&#45;&gt;Node3_4</title>
<path fill="none" stroke="black" d="M425.02,-217.65C414.77,-231.7 402.21,-248.92 393.13,-261.37"/>
<polygon fill="black" stroke="black" points="427.98,-219.53 431.05,-209.39 422.33,-215.41 427.98,-219.53"/>
<text text-anchor="middle" x="437.5" y="-231.8" font-family="Times,serif" font-size="14.00">विशेषणम्</text>
</g>
<!-- Node10_1 -->
<g id="node12" class="node">
<title>Node10_1</title>
<ellipse fill="#ff1975" stroke="#ff1975" cx="471" cy="-366" rx="52.79" ry="18"/>
<text text-anchor="middle" x="471" y="-362.3" font-family="Times,serif" font-size="14.00">ददृशे(10.1)</text>
</g>
<!-- Node3_4&#45;&gt;Node10_1 -->
<g id="edge8" class="edge">
<title>Node3_4&#45;&gt;Node10_1</title>
<path fill="none" stroke="black" d="M405.95,-303.56C421.25,-318.02 440.45,-336.14 454.01,-348.95"/>
<polygon fill="black" stroke="black" points="408.03,-300.71 398.35,-296.39 403.22,-305.8 408.03,-300.71"/>
<text text-anchor="middle" x="442" y="-318.8" font-family="Times,serif" font-size="14.00">कर्ता</text>
</g>
<!-- Node2_3 -->
<g id="node3" class="node">
<title>Node2_3</title>
<ellipse fill="#00bfff" stroke="#00bfff" cx="195" cy="-192" rx="50.89" ry="18"/>
<text text-anchor="middle" x="195" y="-188.3" font-family="Times,serif" font-size="14.00">उदग्रम्(2.3)</text>
</g>
<!-- Node2_3&#45;&gt;Node3_4 -->
<g id="edge4" class="edge">
<title>Node2_3&#45;&gt;Node3_4</title>
<path fill="none" stroke="black" d="M232.76,-211.65C252.41,-221.24 276.89,-232.97 299,-243 314.93,-250.22 332.77,-257.89 347.74,-264.2"/>
<polygon fill="black" stroke="black" points="234.05,-208.39 223.53,-207.14 230.98,-214.68 234.05,-208.39"/>
<text text-anchor="middle" x="321.5" y="-231.8" font-family="Times,serif" font-size="14.00">विशेषणम्</text>
</g>
<!-- Node6_1 -->
<g id="node4" class="node">
<title>Node6_1</title>
<ellipse fill="#00bfff" stroke="#00bfff" cx="323" cy="-192" rx="59.59" ry="18"/>
<text text-anchor="middle" x="323" y="-188.3" font-family="Times,serif" font-size="14.00">आयान्तम्(6.1)</text>
</g>
<!-- Node6_1&#45;&gt;Node3_4 -->
<g id="edge12" class="edge">
<title>Node6_1&#45;&gt;Node3_4</title>
<path fill="none" stroke="black" d="M340.33,-218.4C349.79,-232.26 361.23,-249.03 369.56,-261.24"/>
<polygon fill="black" stroke="black" points="342.99,-216.08 334.46,-209.79 337.2,-220.03 342.99,-216.08"/>
<text text-anchor="middle" x="377.5" y="-231.8" font-family="Times,serif" font-size="14.00">विशेषणम्</text>
</g>
<!-- Node7_2 -->
<g id="node5" class="node">
<title>Node7_2</title>
<ellipse fill="#00bfff" stroke="#00bfff" cx="66" cy="-105" rx="46.59" ry="18"/>
<text text-anchor="middle" x="66" y="-101.3" font-family="Times,serif" font-size="14.00">गतम्(7.2)</text>
</g>
<!-- Node8_1 -->
<g id="node6" class="node">
<title>Node8_1</title>
<ellipse fill="#00bfff" stroke="#00bfff" cx="66" cy="-192" rx="50.09" ry="18"/>
<text text-anchor="middle" x="66" y="-188.3" font-family="Times,serif" font-size="14.00">चित्रम्(8.1)</text>
</g>
<!-- Node7_2&#45;&gt;Node8_1 -->
<g id="edge14" class="edge">
<title>Node7_2&#45;&gt;Node8_1</title>
<path fill="none" stroke="black" d="M66,-133.27C66,-146.58 66,-162.19 66,-173.82"/>
<polygon fill="black" stroke="black" points="69.5,-133.2 66,-123.2 62.5,-133.2 69.5,-133.2"/>
<text text-anchor="middle" x="88.5" y="-144.8" font-family="Times,serif" font-size="14.00">विशेषणम्</text>
</g>
<!-- Node8_1&#45;&gt;Node3_4 -->
<g id="edge15" class="edge">
<title>Node8_1&#45;&gt;Node3_4</title>
<path fill="none" stroke="black" d="M107.86,-209.51C115.83,-212.47 124.14,-215.42 132,-218 200.67,-240.49 282.49,-258.6 333.1,-268.84"/>
<polygon fill="black" stroke="black" points="108.95,-206.18 98.35,-205.93 106.48,-212.73 108.95,-206.18"/>
<text text-anchor="middle" x="234.5" y="-231.8" font-family="Times,serif" font-size="14.00">उपमानम्</text>
</g>
<!-- Node2_1 -->
<g id="node7" class="node">
<title>Node2_1</title>
<ellipse fill="#ffff00" stroke="#ffff00" cx="284" cy="-18" rx="52.79" ry="18"/>
<text text-anchor="middle" x="284" y="-14.3" font-family="Times,serif" font-size="14.00">उत्सव&#45;(2.1)</text>
</g>
<!-- Node2_2 -->
<g id="node8" class="node">
<title>Node2_2</title>
<ellipse fill="#ffff00" stroke="#ffff00" cx="284" cy="-105" rx="44.39" ry="18"/>
<text text-anchor="middle" x="284" y="-101.3" font-family="Times,serif" font-size="14.00">मद&#45;(2.2)</text>
</g>
<!-- Node2_1&#45;&gt;Node2_2 -->
<g id="edge2" class="edge">
<title>Node2_1&#45;&gt;Node2_2</title>
<path fill="none" stroke="black" d="M284,-46.27C284,-59.58 284,-75.19 284,-86.82"/>
<polygon fill="black" stroke="black" points="287.5,-46.2 284,-36.2 280.5,-46.2 287.5,-46.2"/>
<text text-anchor="middle" x="301" y="-57.8" font-family="Times,serif" font-size="14.00">समासः</text>
</g>
<!-- Node2_2&#45;&gt;Node2_3 -->
<g id="edge3" class="edge">
<title>Node2_2&#45;&gt;Node2_3</title>
<path fill="none" stroke="black" d="M260.81,-129.03C252.15,-137.56 242.18,-147.28 233,-156 226.37,-162.3 218.99,-169.14 212.51,-175.08"/>
<polygon fill="black" stroke="black" points="263.39,-131.41 268.05,-121.89 258.47,-126.43 263.39,-131.41"/>
<text text-anchor="middle" x="266" y="-144.8" font-family="Times,serif" font-size="14.00">समासः</text>
</g>
<!-- Node3_1 -->
<g id="node9" class="node">
<title>Node3_1</title>
<ellipse fill="#ffff00" stroke="#ffff00" cx="508" cy="-18" rx="44.39" ry="18"/>
<text text-anchor="middle" x="508" y="-14.3" font-family="Times,serif" font-size="14.00">हृष्ट&#45;(3.1)</text>
</g>
<!-- Node3_2 -->
<g id="node10" class="node">
<title>Node3_2</title>
<ellipse fill="#ffff00" stroke="#ffff00" cx="508" cy="-105" rx="48.19" ry="18"/>
<text text-anchor="middle" x="508" y="-101.3" font-family="Times,serif" font-size="14.00">नारी&#45;(3.2)</text>
</g>
<!-- Node3_1&#45;&gt;Node3_2 -->
<g id="edge5" class="edge">
<title>Node3_1&#45;&gt;Node3_2</title>
<path fill="none" stroke="black" d="M508,-46.27C508,-59.58 508,-75.19 508,-86.82"/>
<polygon fill="black" stroke="black" points="511.5,-46.2 508,-36.2 504.5,-46.2 511.5,-46.2"/>
<text text-anchor="middle" x="525" y="-57.8" font-family="Times,serif" font-size="14.00">समासः</text>
</g>
<!-- Node3_3 -->
<g id="node11" class="node">
<title>Node3_3</title>
<ellipse fill="#ffff00" stroke="#ffff00" cx="547" cy="-192" rx="43.59" ry="18"/>
<text text-anchor="middle" x="547" y="-188.3" font-family="Times,serif" font-size="14.00">नर&#45;(3.3)</text>
</g>
<!-- Node3_2&#45;&gt;Node3_3 -->
<g id="edge6" class="edge">
<title>Node3_2&#45;&gt;Node3_3</title>
<path fill="none" stroke="black" d="M520.02,-132.2C526.31,-145.9 533.81,-162.26 539.31,-174.24"/>
<polygon fill="black" stroke="black" points="523.06,-130.42 515.71,-122.79 516.69,-133.34 523.06,-130.42"/>
<text text-anchor="middle" x="546" y="-144.8" font-family="Times,serif" font-size="14.00">समासः</text>
</g>
<!-- Node3_3&#45;&gt;Node3_4 -->
<g id="edge7" class="edge">
<title>Node3_3&#45;&gt;Node3_4</title>
<path fill="none" stroke="black" d="M516.02,-213.11C500.67,-222.7 481.67,-234.01 464,-243 448.53,-250.87 430.87,-258.5 415.83,-264.61"/>
<polygon fill="black" stroke="black" points="518.01,-215.99 524.6,-207.69 514.27,-210.07 518.01,-215.99"/>
<text text-anchor="middle" x="506" y="-231.8" font-family="Times,serif" font-size="14.00">समासः</text>
</g>
<!-- Node4_1 -->
<g id="node13" class="node">
<title>Node4_1</title>
<ellipse fill="#ff99ff" stroke="#ff99ff" cx="177" cy="-105" rx="44.69" ry="18"/>
<text text-anchor="middle" x="177" y="-101.3" font-family="Times,serif" font-size="14.00">यथा(4.1)</text>
</g>
<!-- Node4_1&#45;&gt;Node8_1 -->
<g id="edge9" class="edge">
<title>Node4_1&#45;&gt;Node8_1</title>
<path fill="none" stroke="black" d="M150.35,-128.06C139.5,-136.89 126.76,-147.07 115,-156 106.34,-162.58 96.63,-169.58 88.15,-175.59"/>
<polygon fill="black" stroke="black" points="152.71,-130.65 158.23,-121.61 148.28,-125.23 152.71,-130.65"/>
<text text-anchor="middle" x="171.5" y="-144.8" font-family="Times,serif" font-size="14.00">उपमान_द्योतकः</text>
</g>
<!-- Node9_1 -->
<g id="node14" class="node">
<title>Node9_1</title>
<ellipse fill="#ff99ff" stroke="#ff99ff" cx="619" cy="-105" rx="44.69" ry="18"/>
<text text-anchor="middle" x="619" y="-101.3" font-family="Times,serif" font-size="14.00">तथा(9.1)</text>
</g>
<!-- Node4_1&#45;&gt;Node9_1 -->
<g id="edge10" class="edge">
<title>Node4_1&#45;&gt;Node9_1</title>
<path fill="none" stroke="red" stroke-dasharray="5,2" d="M212.46,-85.92C218.51,-83.25 224.84,-80.8 231,-79 319.37,-53.11 345.61,-55.9 437.5,-62 494.54,-65.79 510.23,-62.62 565,-79 571.15,-80.84 577.47,-83.3 583.52,-85.98"/>
<polygon fill="red" stroke="red" points="210.8,-82.83 203.23,-90.25 213.77,-89.17 210.8,-82.83"/>
<polygon fill="red" stroke="red" points="582.21,-89.23 592.75,-90.31 585.19,-82.89 582.21,-89.23"/>
<text text-anchor="middle" x="404" y="-57.8" font-family="Times,serif" font-size="14.00">नित्य_सम्बन्धः</text>
</g>
<!-- Node9_1&#45;&gt;Node10_1 -->
<g id="edge16" class="edge">
<title>Node9_1&#45;&gt;Node10_1</title>
<path fill="none" stroke="black" d="M618.49,-133.46C617.11,-156.94 612.8,-191.1 600,-218 573.45,-273.8 519.45,-324.56 490.45,-349.24"/>
<polygon fill="black" stroke="black" points="622,-133.33 618.95,-123.18 615.01,-133.02 622,-133.33"/>
<text text-anchor="middle" x="629" y="-231.8" font-family="Times,serif" font-size="14.00">क्रियाविशेषणम्</text>
</g>
<!-- Node5_1 -->
<g id="node15" class="node">
<title>Node5_1</title>
<ellipse fill="#93db70" stroke="#93db70" cx="394" cy="-105" rx="47.39" ry="18"/>
<text text-anchor="middle" x="394" y="-101.3" font-family="Times,serif" font-size="14.00">बलम्(5.1)</text>
</g>
<!-- Node5_1&#45;&gt;Node6_1 -->
<g id="edge11" class="edge">
<title>Node5_1&#45;&gt;Node6_1</title>
<path fill="none" stroke="black" d="M373.74,-130.26C361.95,-144.37 347.38,-161.81 336.89,-174.37"/>
<polygon fill="black" stroke="black" points="376.59,-132.31 380.31,-122.39 371.21,-127.82 376.59,-132.31"/>
<text text-anchor="middle" x="371" y="-144.8" font-family="Times,serif" font-size="14.00">कर्म</text>
</g>
<!-- Node7_1 -->
<g id="node16" class="node">
<title>Node7_1</title>
<ellipse fill="#ffff00" stroke="#ffff00" cx="66" cy="-18" rx="44.39" ry="18"/>
<text text-anchor="middle" x="66" y="-14.3" font-family="Times,serif" font-size="14.00">पट&#45;(7.1)</text>
</g>
<!-- Node7_1&#45;&gt;Node7_2 -->
<g id="edge13" class="edge">
<title>Node7_1&#45;&gt;Node7_2</title>
<path fill="none" stroke="black" d="M66,-46.27C66,-59.58 66,-75.19 66,-86.82"/>
<polygon fill="black" stroke="black" points="69.5,-46.2 66,-36.2 62.5,-46.2 69.5,-46.2"/>
<text text-anchor="middle" x="83" y="-57.8" font-family="Times,serif" font-size="14.00">समासः</text>
</g>
</g>
</svg>
