<?xml version="1.0" encoding="UTF-8" standalone="no"?>
<!DOCTYPE svg PUBLIC "-//W3C//DTD SVG 1.1//EN"
 "http://www.w3.org/Graphics/SVG/1.1/DTD/svg11.dtd">
<!-- Generated by graphviz version 2.43.0 (0)
 -->
<!-- Title: G Pages: 1 -->
<svg width="861pt" height="305pt"
 viewBox="0.00 0.00 860.95 305.00" xmlns="http://www.w3.org/2000/svg" xmlns:xlink="http://www.w3.org/1999/xlink">
<g id="graph0" class="graph" transform="scale(1 1) rotate(0) translate(4 301)">
<title>G</title>
<polygon fill="#fffacd" stroke="transparent" points="-4,4 -4,-301 856.95,-301 856.95,4 -4,4"/>
<g id="clust1" class="cluster">
<title>cluster_1</title>
<polygon fill="#fffacd" stroke="black" points="241.95,-79 241.95,-218 479.95,-218 479.95,-79 241.95,-79"/>
</g>
<!-- Node7_2 -->
<g id="node1" class="node">
<title>Node7_2</title>
<ellipse fill="#00bfff" stroke="#00bfff" cx="414.95" cy="-105" rx="57.39" ry="18"/>
<text text-anchor="middle" x="414.95" y="-101.3" font-family="Times,serif" font-size="14.00">जानपदः(7.2)</text>
</g>
<!-- Node8_1 -->
<g id="node2" class="node">
<title>Node8_1</title>
<ellipse fill="#00bfff" stroke="#00bfff" cx="294.95" cy="-192" rx="45.49" ry="18"/>
<text text-anchor="middle" x="294.95" y="-188.3" font-family="Times,serif" font-size="14.00">जनः(8.1)</text>
</g>
<!-- Node7_2&#45;&gt;Node8_1 -->
<g id="edge7" class="edge">
<title>Node7_2&#45;&gt;Node8_1</title>
<path fill="none" stroke="black" d="M384.27,-127.73C363,-142.79 335.21,-162.48 316.31,-175.87"/>
<polygon fill="black" stroke="black" points="386.52,-130.42 392.66,-121.79 382.47,-124.71 386.52,-130.42"/>
<text text-anchor="middle" x="384.45" y="-144.8" font-family="Times,serif" font-size="14.00">विशेषणम्</text>
</g>
<!-- Node12_1 -->
<g id="node11" class="node">
<title>Node12_1</title>
<ellipse fill="#ff1975" stroke="#ff1975" cx="204.95" cy="-279" rx="67.69" ry="18"/>
<text text-anchor="middle" x="204.95" y="-275.3" font-family="Times,serif" font-size="14.00">उपाविशत्(12.1)</text>
</g>
<!-- Node8_1&#45;&gt;Node12_1 -->
<g id="edge8" class="edge">
<title>Node8_1&#45;&gt;Node12_1</title>
<path fill="none" stroke="black" d="M270.48,-216.11C255.27,-230.47 236.09,-248.59 222.41,-261.5"/>
<polygon fill="black" stroke="black" points="273.15,-218.4 278.02,-208.99 268.34,-213.31 273.15,-218.4"/>
<text text-anchor="middle" x="265.95" y="-231.8" font-family="Times,serif" font-size="14.00">कर्ता</text>
</g>
<!-- Node9_1 -->
<g id="node3" class="node">
<title>Node9_1</title>
<ellipse fill="#00bfff" stroke="#00bfff" cx="294.95" cy="-105" rx="44.69" ry="18"/>
<text text-anchor="middle" x="294.95" y="-101.3" font-family="Times,serif" font-size="14.00">सर्वः(9.1)</text>
</g>
<!-- Node9_1&#45;&gt;Node8_1 -->
<g id="edge9" class="edge">
<title>Node9_1&#45;&gt;Node8_1</title>
<path fill="none" stroke="black" d="M294.95,-133.27C294.95,-146.58 294.95,-162.19 294.95,-173.82"/>
<polygon fill="black" stroke="black" points="298.45,-133.2 294.95,-123.2 291.45,-133.2 298.45,-133.2"/>
<text text-anchor="middle" x="317.45" y="-144.8" font-family="Times,serif" font-size="14.00">विशेषणम्</text>
</g>
<!-- Node1_1 -->
<g id="node4" class="node">
<title>Node1_1</title>
<ellipse fill="#40e0d0" stroke="#40e0d0" cx="785.95" cy="-105" rx="57.39" ry="18"/>
<text text-anchor="middle" x="785.95" y="-101.3" font-family="Times,serif" font-size="14.00">गान्धार्या(1.1)</text>
</g>
<!-- Node6_1 -->
<g id="node5" class="node">
<title>Node6_1</title>
<ellipse fill="#ff1975" stroke="#ff1975" cx="655.95" cy="-192" rx="67.69" ry="18"/>
<text text-anchor="middle" x="655.95" y="-188.3" font-family="Times,serif" font-size="14.00">समुपाविशन्(6.1)</text>
</g>
<!-- Node1_1&#45;&gt;Node6_1 -->
<g id="edge1" class="edge">
<title>Node1_1&#45;&gt;Node6_1</title>
<path fill="none" stroke="black" d="M762.59,-129.59C752.98,-138.53 741.43,-148.39 729.95,-156 718.1,-163.85 704.22,-170.91 691.7,-176.6"/>
<polygon fill="black" stroke="black" points="765.02,-132.11 769.83,-122.67 760.18,-127.04 765.02,-132.11"/>
<text text-anchor="middle" x="764.95" y="-144.8" font-family="Times,serif" font-size="14.00">सहार्थः</text>
</g>
<!-- Node2_1 -->
<g id="node6" class="node">
<title>Node2_1</title>
<ellipse fill="#ff99ff" stroke="#ff99ff" cx="785.95" cy="-18" rx="42.49" ry="18"/>
<text text-anchor="middle" x="785.95" y="-14.3" font-family="Times,serif" font-size="14.00">सह(2.1)</text>
</g>
<!-- Node2_1&#45;&gt;Node1_1 -->
<g id="edge2" class="edge">
<title>Node2_1&#45;&gt;Node1_1</title>
<path fill="none" stroke="black" d="M785.95,-46.27C785.95,-59.58 785.95,-75.19 785.95,-86.82"/>
<polygon fill="black" stroke="black" points="789.45,-46.2 785.95,-36.2 782.45,-46.2 789.45,-46.2"/>
<text text-anchor="middle" x="819.45" y="-57.8" font-family="Times,serif" font-size="14.00">सहार्थ_द्योतकः</text>
</g>
<!-- Node3_1 -->
<g id="node7" class="node">
<title>Node3_1</title>
<ellipse fill="#00bfff" stroke="#00bfff" cx="536.95" cy="-105" rx="46.59" ry="18"/>
<text text-anchor="middle" x="536.95" y="-101.3" font-family="Times,serif" font-size="14.00">नार्यः(3.1)</text>
</g>
<!-- Node3_1&#45;&gt;Node6_1 -->
<g id="edge3" class="edge">
<title>Node3_1&#45;&gt;Node6_1</title>
<path fill="none" stroke="black" d="M566.62,-127.2C587.25,-141.93 614.32,-161.27 633.23,-174.78"/>
<polygon fill="black" stroke="black" points="568.39,-124.16 558.22,-121.2 564.32,-129.86 568.39,-124.16"/>
<text text-anchor="middle" x="613.95" y="-144.8" font-family="Times,serif" font-size="14.00">कर्ता</text>
</g>
<!-- Node4_1 -->
<g id="node8" class="node">
<title>Node4_1</title>
<ellipse fill="#ff99ff" stroke="#ff99ff" cx="536.95" cy="-18" rx="37.09" ry="18"/>
<text text-anchor="middle" x="536.95" y="-14.3" font-family="Times,serif" font-size="14.00">तु(4.1)</text>
</g>
<!-- Node4_1&#45;&gt;Node3_1 -->
<g id="edge4" class="edge">
<title>Node4_1&#45;&gt;Node3_1</title>
<path fill="none" stroke="black" d="M536.95,-46.27C536.95,-59.58 536.95,-75.19 536.95,-86.82"/>
<polygon fill="black" stroke="black" points="540.45,-46.2 536.95,-36.2 533.45,-46.2 540.45,-46.2"/>
<text text-anchor="middle" x="555.45" y="-57.8" font-family="Times,serif" font-size="14.00">सम्बन्धः</text>
</g>
<!-- Node5_1 -->
<g id="node9" class="node">
<title>Node5_1</title>
<ellipse fill="#00bfff" stroke="#00bfff" cx="655.95" cy="-105" rx="54.69" ry="18"/>
<text text-anchor="middle" x="655.95" y="-101.3" font-family="Times,serif" font-size="14.00">सहिताः(5.1)</text>
</g>
<!-- Node5_1&#45;&gt;Node6_1 -->
<g id="edge5" class="edge">
<title>Node5_1&#45;&gt;Node6_1</title>
<path fill="none" stroke="black" d="M655.95,-133.27C655.95,-146.58 655.95,-162.19 655.95,-173.82"/>
<polygon fill="black" stroke="black" points="659.45,-133.2 655.95,-123.2 652.45,-133.2 659.45,-133.2"/>
<text text-anchor="middle" x="690.95" y="-144.8" font-family="Times,serif" font-size="14.00">क्रियाविशेषणम्</text>
</g>
<!-- Node7_1 -->
<g id="node10" class="node">
<title>Node7_1</title>
<ellipse fill="#ffff00" stroke="#ffff00" cx="414.95" cy="-18" rx="46.29" ry="18"/>
<text text-anchor="middle" x="414.95" y="-14.3" font-family="Times,serif" font-size="14.00">पौर&#45;(7.1)</text>
</g>
<!-- Node7_1&#45;&gt;Node7_2 -->
<g id="edge6" class="edge">
<title>Node7_1&#45;&gt;Node7_2</title>
<path fill="none" stroke="black" d="M414.95,-46.27C414.95,-59.58 414.95,-75.19 414.95,-86.82"/>
<polygon fill="black" stroke="black" points="418.45,-46.2 414.95,-36.2 411.45,-46.2 418.45,-46.2"/>
<text text-anchor="middle" x="431.95" y="-57.8" font-family="Times,serif" font-size="14.00">समासः</text>
</g>
<!-- Node10_1 -->
<g id="node12" class="node">
<title>Node10_1</title>
<ellipse fill="#ff99ff" stroke="#ff99ff" cx="178.95" cy="-105" rx="53.09" ry="18"/>
<text text-anchor="middle" x="178.95" y="-101.3" font-family="Times,serif" font-size="14.00">चापि(10.1)</text>
</g>
<!-- Node10_1&#45;&gt;Node8_1 -->
<g id="edge10" class="edge">
<title>Node10_1&#45;&gt;Node8_1</title>
<path fill="none" stroke="black" d="M208.32,-127.52C228.88,-142.59 255.85,-162.35 274.19,-175.79"/>
<polygon fill="black" stroke="black" points="210.36,-124.68 200.22,-121.59 206.22,-130.32 210.36,-124.68"/>
<text text-anchor="middle" x="261.45" y="-144.8" font-family="Times,serif" font-size="14.00">सम्बन्धः</text>
</g>
<!-- Node11_1 -->
<g id="node13" class="node">
<title>Node11_1</title>
<ellipse fill="#ffff00" stroke="#ffff00" cx="53.95" cy="-105" rx="53.89" ry="18"/>
<text text-anchor="middle" x="53.95" y="-101.3" font-family="Times,serif" font-size="14.00">यथा&#45;(11.1)</text>
</g>
<!-- Node11_2 -->
<g id="node14" class="node">
<title>Node11_2</title>
<ellipse fill="#00bfff" stroke="#00bfff" cx="116.95" cy="-192" rx="50.09" ry="18"/>
<text text-anchor="middle" x="116.95" y="-188.3" font-family="Times,serif" font-size="14.00">वयः(11.2)</text>
</g>
<!-- Node11_1&#45;&gt;Node11_2 -->
<g id="edge11" class="edge">
<title>Node11_1&#45;&gt;Node11_2</title>
<path fill="none" stroke="black" d="M72.52,-131.06C82.92,-145.09 95.59,-162.19 104.74,-174.53"/>
<polygon fill="black" stroke="black" points="75.16,-128.74 66.39,-122.79 69.53,-132.91 75.16,-128.74"/>
<text text-anchor="middle" x="106.95" y="-144.8" font-family="Times,serif" font-size="14.00">समासः</text>
</g>
<!-- Node11_2&#45;&gt;Node12_1 -->
<g id="edge12" class="edge">
<title>Node11_2&#45;&gt;Node12_1</title>
<path fill="none" stroke="black" d="M140.87,-216.11C155.74,-230.47 174.5,-248.59 187.87,-261.5"/>
<polygon fill="black" stroke="black" points="143.12,-213.42 133.5,-208.99 138.26,-218.45 143.12,-213.42"/>
<text text-anchor="middle" x="201.95" y="-231.8" font-family="Times,serif" font-size="14.00">क्रियाविशेषणम्</text>
</g>
</g>
</svg>
