<?xml version="1.0" encoding="UTF-8" standalone="no"?>
<!DOCTYPE svg PUBLIC "-//W3C//DTD SVG 1.1//EN"
 "http://www.w3.org/Graphics/SVG/1.1/DTD/svg11.dtd">
<!-- Generated by graphviz version 2.43.0 (0)
 -->
<!-- Title: G Pages: 1 -->
<svg width="865pt" height="305pt"
 viewBox="0.00 0.00 865.00 305.00" xmlns="http://www.w3.org/2000/svg" xmlns:xlink="http://www.w3.org/1999/xlink">
<g id="graph0" class="graph" transform="scale(1 1) rotate(0) translate(4 301)">
<title>G</title>
<polygon fill="#fffacd" stroke="transparent" points="-4,4 -4,-301 861,-301 861,4 -4,4"/>
<g id="clust1" class="cluster">
<title>cluster_1</title>
<polygon fill="#fffacd" stroke="black" points="631,-79 631,-218 849,-218 849,-79 631,-79"/>
</g>
<g id="clust2" class="cluster">
<title>cluster_2</title>
<polygon fill="#fffacd" stroke="black" points="8,-79 8,-218 118,-218 118,-79 8,-79"/>
</g>
<!-- Node1_1 -->
<g id="node1" class="node">
<title>Node1_1</title>
<ellipse fill="#00bfff" stroke="#00bfff" cx="794" cy="-105" rx="46.59" ry="18"/>
<text text-anchor="middle" x="794" y="-101.3" font-family="Times,serif" font-size="14.00">प्रीतः(1.1)</text>
</g>
<!-- Node2_1 -->
<g id="node2" class="node">
<title>Node2_1</title>
<ellipse fill="#00bfff" stroke="#00bfff" cx="687" cy="-192" rx="46.59" ry="18"/>
<text text-anchor="middle" x="687" y="-188.3" font-family="Times,serif" font-size="14.00">मुनिः(2.1)</text>
</g>
<!-- Node1_1&#45;&gt;Node2_1 -->
<g id="edge1" class="edge">
<title>Node1_1&#45;&gt;Node2_1</title>
<path fill="none" stroke="black" d="M767.66,-128.48C757.27,-137.2 745.18,-147.19 734,-156 725.69,-162.55 716.37,-169.55 708.24,-175.56"/>
<polygon fill="black" stroke="black" points="770.18,-130.93 775.57,-121.81 765.67,-125.58 770.18,-130.93"/>
<text text-anchor="middle" x="774.5" y="-144.8" font-family="Times,serif" font-size="14.00">विशेषणम्</text>
</g>
<!-- Node10_1 -->
<g id="node6" class="node">
<title>Node10_1</title>
<ellipse fill="#ff1975" stroke="#ff1975" cx="363" cy="-279" rx="57.39" ry="18"/>
<text text-anchor="middle" x="363" y="-275.3" font-family="Times,serif" font-size="14.00">प्रादात्(10.1)</text>
</g>
<!-- Node2_1&#45;&gt;Node10_1 -->
<g id="edge2" class="edge">
<title>Node2_1&#45;&gt;Node10_1</title>
<path fill="none" stroke="black" d="M649.96,-210.77C643.72,-213.41 637.23,-215.93 631,-218 556.55,-242.68 467.12,-260.41 412.7,-269.94"/>
<polygon fill="black" stroke="black" points="651.77,-213.8 659.52,-206.58 648.96,-207.39 651.77,-213.8"/>
<text text-anchor="middle" x="606" y="-231.8" font-family="Times,serif" font-size="14.00">कर्ता</text>
</g>
<!-- Node3_2 -->
<g id="node3" class="node">
<title>Node3_2</title>
<ellipse fill="#00bfff" stroke="#00bfff" cx="684" cy="-105" rx="44.69" ry="18"/>
<text text-anchor="middle" x="684" y="-101.3" font-family="Times,serif" font-size="14.00">पुत्रः(3.2)</text>
</g>
<!-- Node3_2&#45;&gt;Node2_1 -->
<g id="edge4" class="edge">
<title>Node3_2&#45;&gt;Node2_1</title>
<path fill="none" stroke="black" d="M684.96,-133.27C685.43,-146.58 685.98,-162.19 686.39,-173.82"/>
<polygon fill="black" stroke="black" points="688.46,-133.07 684.61,-123.2 681.46,-133.32 688.46,-133.07"/>
<text text-anchor="middle" x="707.5" y="-144.8" font-family="Times,serif" font-size="14.00">विशेषणम्</text>
</g>
<!-- Node7_1 -->
<g id="node4" class="node">
<title>Node7_1</title>
<ellipse fill="#93db70" stroke="#93db70" cx="63" cy="-105" rx="46.59" ry="18"/>
<text text-anchor="middle" x="63" y="-101.3" font-family="Times,serif" font-size="14.00">दिव्यं(7.1)</text>
</g>
<!-- Node8_1 -->
<g id="node5" class="node">
<title>Node8_1</title>
<ellipse fill="#93db70" stroke="#93db70" cx="63" cy="-192" rx="46.29" ry="18"/>
<text text-anchor="middle" x="63" y="-188.3" font-family="Times,serif" font-size="14.00">चक्षुः(8.1)</text>
</g>
<!-- Node7_1&#45;&gt;Node8_1 -->
<g id="edge8" class="edge">
<title>Node7_1&#45;&gt;Node8_1</title>
<path fill="none" stroke="black" d="M63,-133.27C63,-146.58 63,-162.19 63,-173.82"/>
<polygon fill="black" stroke="black" points="66.5,-133.2 63,-123.2 59.5,-133.2 66.5,-133.2"/>
<text text-anchor="middle" x="85.5" y="-144.8" font-family="Times,serif" font-size="14.00">विशेषणम्</text>
</g>
<!-- Node8_1&#45;&gt;Node10_1 -->
<g id="edge9" class="edge">
<title>Node8_1&#45;&gt;Node10_1</title>
<path fill="none" stroke="black" d="M100.54,-210.76C106.34,-213.3 112.3,-215.8 118,-218 183.57,-243.31 263.22,-260.47 313.53,-269.75"/>
<polygon fill="black" stroke="black" points="101.55,-207.38 90.99,-206.49 98.69,-213.77 101.55,-207.38"/>
<text text-anchor="middle" x="200" y="-231.8" font-family="Times,serif" font-size="14.00">कर्म</text>
</g>
<!-- Node3_1 -->
<g id="node7" class="node">
<title>Node3_1</title>
<ellipse fill="#ffff00" stroke="#ffff00" cx="684" cy="-18" rx="61.19" ry="18"/>
<text text-anchor="middle" x="684" y="-14.3" font-family="Times,serif" font-size="14.00">सत्यवती&#45;(3.1)</text>
</g>
<!-- Node3_1&#45;&gt;Node3_2 -->
<g id="edge3" class="edge">
<title>Node3_1&#45;&gt;Node3_2</title>
<path fill="none" stroke="black" d="M684,-46.27C684,-59.58 684,-75.19 684,-86.82"/>
<polygon fill="black" stroke="black" points="687.5,-46.2 684,-36.2 680.5,-46.2 687.5,-46.2"/>
<text text-anchor="middle" x="701" y="-57.8" font-family="Times,serif" font-size="14.00">समासः</text>
</g>
<!-- Node4_1 -->
<g id="node8" class="node">
<title>Node4_1</title>
<ellipse fill="#ff99ff" stroke="#ff99ff" cx="171" cy="-192" rx="44.39" ry="18"/>
<text text-anchor="middle" x="171" y="-188.3" font-family="Times,serif" font-size="14.00">तदा(4.1)</text>
</g>
<!-- Node4_1&#45;&gt;Node10_1 -->
<g id="edge5" class="edge">
<title>Node4_1&#45;&gt;Node10_1</title>
<path fill="none" stroke="black" d="M198.01,-214.53C211.27,-224.28 227.84,-235.33 244,-243 267.15,-253.99 294.49,-262.33 317.12,-268.1"/>
<polygon fill="black" stroke="black" points="199.91,-211.57 189.81,-208.35 195.69,-217.16 199.91,-211.57"/>
<text text-anchor="middle" x="279.5" y="-231.8" font-family="Times,serif" font-size="14.00">कालाधिकरणम्</text>
</g>
<!-- Node5_1 -->
<g id="node9" class="node">
<title>Node5_1</title>
<ellipse fill="#87ceeb" stroke="#87ceeb" cx="298" cy="-192" rx="64.19" ry="18"/>
<text text-anchor="middle" x="298" y="-188.3" font-family="Times,serif" font-size="14.00">धृतराष्ट्रस्य(5.1)</text>
</g>
<!-- Node5_1&#45;&gt;Node10_1 -->
<g id="edge6" class="edge">
<title>Node5_1&#45;&gt;Node10_1</title>
<path fill="none" stroke="black" d="M313.23,-218.81C318.27,-226.78 324.1,-235.44 330,-243 334.93,-249.32 340.81,-255.82 346.22,-261.48"/>
<polygon fill="black" stroke="black" points="316.14,-216.87 307.91,-210.2 310.19,-220.55 316.14,-216.87"/>
<text text-anchor="middle" x="353.5" y="-231.8" font-family="Times,serif" font-size="14.00">सम्प्रदानम्</text>
</g>
<!-- Node6_1 -->
<g id="node10" class="node">
<title>Node6_1</title>
<ellipse fill="#ff99ff" stroke="#ff99ff" cx="298" cy="-105" rx="37.89" ry="18"/>
<text text-anchor="middle" x="298" y="-101.3" font-family="Times,serif" font-size="14.00">च(6.1)</text>
</g>
<!-- Node6_1&#45;&gt;Node5_1 -->
<g id="edge7" class="edge">
<title>Node6_1&#45;&gt;Node5_1</title>
<path fill="none" stroke="black" d="M298,-133.27C298,-146.58 298,-162.19 298,-173.82"/>
<polygon fill="black" stroke="black" points="301.5,-133.2 298,-123.2 294.5,-133.2 301.5,-133.2"/>
<text text-anchor="middle" x="316.5" y="-144.8" font-family="Times,serif" font-size="14.00">सम्बन्धः</text>
</g>
<!-- Node9_1 -->
<g id="node11" class="node">
<title>Node9_1</title>
<ellipse fill="#ffff00" stroke="#ffff00" cx="430" cy="-105" rx="47.39" ry="18"/>
<text text-anchor="middle" x="430" y="-101.3" font-family="Times,serif" font-size="14.00">तपो&#45;(9.1)</text>
</g>
<!-- Node9_2 -->
<g id="node12" class="node">
<title>Node9_2</title>
<ellipse fill="#b4ffb4" stroke="#b4ffb4" cx="430" cy="-192" rx="50.09" ry="18"/>
<text text-anchor="middle" x="430" y="-188.3" font-family="Times,serif" font-size="14.00">बलात्(9.2)</text>
</g>
<!-- Node9_1&#45;&gt;Node9_2 -->
<g id="edge10" class="edge">
<title>Node9_1&#45;&gt;Node9_2</title>
<path fill="none" stroke="black" d="M430,-133.27C430,-146.58 430,-162.19 430,-173.82"/>
<polygon fill="black" stroke="black" points="433.5,-133.2 430,-123.2 426.5,-133.2 433.5,-133.2"/>
<text text-anchor="middle" x="447" y="-144.8" font-family="Times,serif" font-size="14.00">समासः</text>
</g>
<!-- Node9_2&#45;&gt;Node10_1 -->
<g id="edge11" class="edge">
<title>Node9_2&#45;&gt;Node10_1</title>
<path fill="none" stroke="black" d="M410.29,-218.01C399.31,-231.94 385.93,-248.91 376.21,-261.24"/>
<polygon fill="black" stroke="black" points="413.32,-219.81 416.76,-209.79 407.82,-215.48 413.32,-219.81"/>
<text text-anchor="middle" x="409.5" y="-231.8" font-family="Times,serif" font-size="14.00">हेतुः</text>
</g>
<!-- Node11_1 -->
<g id="node13" class="node">
<title>Node11_1</title>
<ellipse fill="#6fffc3" stroke="#6fffc3" cx="560" cy="-192" rx="61.99" ry="18"/>
<text text-anchor="middle" x="560" y="-188.3" font-family="Times,serif" font-size="14.00">नराधिप(11.1)</text>
</g>
<!-- Node11_1&#45;&gt;Node10_1 -->
<g id="edge12" class="edge">
<title>Node11_1&#45;&gt;Node10_1</title>
<path fill="none" stroke="black" d="M517.6,-211.29C480.97,-227.1 428.8,-249.61 395.43,-264.01"/>
<polygon fill="black" stroke="black" points="519.23,-214.4 527.03,-207.23 516.46,-207.98 519.23,-214.4"/>
<text text-anchor="middle" x="494" y="-231.8" font-family="Times,serif" font-size="14.00">सम्बोध्यः</text>
</g>
</g>
</svg>
