<?xml version="1.0" encoding="UTF-8" standalone="no"?>
<!DOCTYPE svg PUBLIC "-//W3C//DTD SVG 1.1//EN"
 "http://www.w3.org/Graphics/SVG/1.1/DTD/svg11.dtd">
<!-- Generated by graphviz version 2.43.0 (0)
 -->
<!-- Title: G Pages: 1 -->
<svg width="824pt" height="479pt"
 viewBox="0.00 0.00 823.65 479.00" xmlns="http://www.w3.org/2000/svg" xmlns:xlink="http://www.w3.org/1999/xlink">
<g id="graph0" class="graph" transform="scale(1 1) rotate(0) translate(4 475)">
<title>G</title>
<polygon fill="#fffacd" stroke="transparent" points="-4,4 -4,-475 819.65,-475 819.65,4 -4,4"/>
<g id="clust1" class="cluster">
<title>cluster_1</title>
<polygon fill="#fffacd" stroke="black" points="585.65,-79 585.65,-218 807.65,-218 807.65,-79 585.65,-79"/>
</g>
<g id="clust2" class="cluster">
<title>cluster_2</title>
<polygon fill="#fffacd" stroke="black" points="485.65,-253 485.65,-305 593.65,-305 593.65,-253 485.65,-253"/>
</g>
<g id="clust3" class="cluster">
<title>cluster_3</title>
<polygon fill="#fffacd" stroke="black" points="347.65,-340 347.65,-392 471.65,-392 471.65,-340 347.65,-340"/>
</g>
<!-- Node2_2 -->
<g id="node1" class="node">
<title>Node2_2</title>
<ellipse fill="#00bfff" stroke="#00bfff" cx="747.65" cy="-105" rx="51.99" ry="18"/>
<text text-anchor="middle" x="747.65" y="-101.3" font-family="Times,serif" font-size="14.00">व्याघ्राः(2.2)</text>
</g>
<!-- Node3_1 -->
<g id="node2" class="node">
<title>Node3_1</title>
<ellipse fill="#00bfff" stroke="#00bfff" cx="643.65" cy="-192" rx="48.99" ry="18"/>
<text text-anchor="middle" x="643.65" y="-188.3" font-family="Times,serif" font-size="14.00">कुरवः(3.1)</text>
</g>
<!-- Node2_2&#45;&gt;Node3_1 -->
<g id="edge3" class="edge">
<title>Node2_2&#45;&gt;Node3_1</title>
<path fill="none" stroke="black" d="M721.46,-128.6C711.29,-137.27 699.5,-147.18 688.65,-156 680.65,-162.49 671.73,-169.48 663.95,-175.5"/>
<polygon fill="black" stroke="black" points="723.89,-131.13 729.21,-121.96 719.34,-125.81 723.89,-131.13"/>
<text text-anchor="middle" x="729.15" y="-144.8" font-family="Times,serif" font-size="14.00">विशेषणम्</text>
</g>
<!-- Node4_1 -->
<g id="node4" class="node">
<title>Node4_1</title>
<ellipse fill="#00bfff" stroke="#00bfff" cx="539.65" cy="-279" rx="46.29" ry="18"/>
<text text-anchor="middle" x="539.65" y="-275.3" font-family="Times,serif" font-size="14.00">अन्ये(4.1)</text>
</g>
<!-- Node3_1&#45;&gt;Node4_1 -->
<g id="edge4" class="edge">
<title>Node3_1&#45;&gt;Node4_1</title>
<path fill="none" stroke="black" d="M634.49,-219.56C630.62,-227.87 625.41,-236.55 618.65,-243 606.82,-254.29 590.74,-262.31 576.18,-267.8"/>
<polygon fill="black" stroke="black" points="637.81,-220.7 638.43,-210.13 631.35,-218 637.81,-220.7"/>
<text text-anchor="middle" x="652.15" y="-231.8" font-family="Times,serif" font-size="14.00">समुच्चितः</text>
</g>
<!-- Node7_1 -->
<g id="node3" class="node">
<title>Node7_1</title>
<ellipse fill="#00bfff" stroke="#00bfff" cx="635.65" cy="-105" rx="42.49" ry="18"/>
<text text-anchor="middle" x="635.65" y="-101.3" font-family="Times,serif" font-size="14.00">सर्वे(7.1)</text>
</g>
<!-- Node7_1&#45;&gt;Node3_1 -->
<g id="edge8" class="edge">
<title>Node7_1&#45;&gt;Node3_1</title>
<path fill="none" stroke="black" d="M638.21,-133.27C639.46,-146.58 640.93,-162.19 642.03,-173.82"/>
<polygon fill="black" stroke="black" points="641.69,-132.83 637.26,-123.2 634.72,-133.49 641.69,-132.83"/>
<text text-anchor="middle" x="662.15" y="-144.8" font-family="Times,serif" font-size="14.00">विशेषणम्</text>
</g>
<!-- Node6_1 -->
<g id="node5" class="node">
<title>Node6_1</title>
<ellipse fill="#00bfff" stroke="#00bfff" cx="409.65" cy="-366" rx="53.89" ry="18"/>
<text text-anchor="middle" x="409.65" y="-362.3" font-family="Times,serif" font-size="14.00">मानवाः(6.1)</text>
</g>
<!-- Node4_1&#45;&gt;Node6_1 -->
<g id="edge5" class="edge">
<title>Node4_1&#45;&gt;Node6_1</title>
<path fill="none" stroke="black" d="M508.58,-300.31C485.49,-315.41 454.46,-335.7 433.35,-349.5"/>
<polygon fill="black" stroke="black" points="510.55,-303.21 517,-294.81 506.72,-297.35 510.55,-303.21"/>
<text text-anchor="middle" x="504.15" y="-318.8" font-family="Times,serif" font-size="14.00">विशेषणम्</text>
</g>
<!-- Node14_1 -->
<g id="node7" class="node">
<title>Node14_1</title>
<ellipse fill="#ff1975" stroke="#ff1975" cx="337.65" cy="-453" rx="66.09" ry="18"/>
<text text-anchor="middle" x="337.65" y="-449.3" font-family="Times,serif" font-size="14.00">(अभवन्)(14.1)</text>
</g>
<!-- Node6_1&#45;&gt;Node14_1 -->
<g id="edge7" class="edge">
<title>Node6_1&#45;&gt;Node14_1</title>
<path fill="none" stroke="black" d="M393.41,-392.29C387.8,-400.44 381.25,-409.34 374.65,-417 369.1,-423.43 362.51,-429.96 356.44,-435.61"/>
<polygon fill="black" stroke="black" points="396.42,-394.09 399.1,-383.84 390.61,-390.18 396.42,-394.09"/>
<text text-anchor="middle" x="396.65" y="-405.8" font-family="Times,serif" font-size="14.00">कर्ता</text>
</g>
<!-- Node1_1 -->
<g id="node6" class="node">
<title>Node1_1</title>
<ellipse fill="#ff99ff" stroke="#ff99ff" cx="291.65" cy="-366" rx="46.29" ry="18"/>
<text text-anchor="middle" x="291.65" y="-362.3" font-family="Times,serif" font-size="14.00">एवम्(1.1)</text>
</g>
<!-- Node1_1&#45;&gt;Node14_1 -->
<g id="edge1" class="edge">
<title>Node1_1&#45;&gt;Node14_1</title>
<path fill="none" stroke="black" d="M296,-393.79C297.95,-401.59 300.72,-409.91 304.65,-417 308.36,-423.72 313.67,-430.13 318.95,-435.59"/>
<polygon fill="black" stroke="black" points="299.42,-393.04 293.89,-384 292.58,-394.51 299.42,-393.04"/>
<text text-anchor="middle" x="339.65" y="-405.8" font-family="Times,serif" font-size="14.00">क्रियाविशेषणम्</text>
</g>
<!-- Node2_1 -->
<g id="node8" class="node">
<title>Node2_1</title>
<ellipse fill="#ffff00" stroke="#ffff00" cx="747.65" cy="-18" rx="50.09" ry="18"/>
<text text-anchor="middle" x="747.65" y="-14.3" font-family="Times,serif" font-size="14.00">पुरुष&#45;(2.1)</text>
</g>
<!-- Node2_1&#45;&gt;Node2_2 -->
<g id="edge2" class="edge">
<title>Node2_1&#45;&gt;Node2_2</title>
<path fill="none" stroke="black" d="M747.65,-46.27C747.65,-59.58 747.65,-75.19 747.65,-86.82"/>
<polygon fill="black" stroke="black" points="751.15,-46.2 747.65,-36.2 744.15,-46.2 751.15,-46.2"/>
<text text-anchor="middle" x="764.65" y="-57.8" font-family="Times,serif" font-size="14.00">समासः</text>
</g>
<!-- Node5_1 -->
<g id="node9" class="node">
<title>Node5_1</title>
<ellipse fill="#ff99ff" stroke="#ff99ff" cx="539.65" cy="-192" rx="37.89" ry="18"/>
<text text-anchor="middle" x="539.65" y="-188.3" font-family="Times,serif" font-size="14.00">च(5.1)</text>
</g>
<!-- Node5_1&#45;&gt;Node4_1 -->
<g id="edge6" class="edge">
<title>Node5_1&#45;&gt;Node4_1</title>
<path fill="none" stroke="black" d="M539.65,-220.27C539.65,-233.58 539.65,-249.19 539.65,-260.82"/>
<polygon fill="black" stroke="black" points="543.15,-220.2 539.65,-210.2 536.15,-220.2 543.15,-220.2"/>
<text text-anchor="middle" x="577.65" y="-231.8" font-family="Times,serif" font-size="14.00">समुच्चय_द्योतकः</text>
</g>
<!-- Node8_1 -->
<g id="node10" class="node">
<title>Node8_1</title>
<ellipse fill="#40e0d0" stroke="#40e0d0" cx="52.65" cy="-192" rx="52.79" ry="18"/>
<text text-anchor="middle" x="52.65" y="-188.3" font-family="Times,serif" font-size="14.00">गुरुभिः(8.1)</text>
</g>
<!-- Node13_2 -->
<g id="node11" class="node">
<title>Node13_2</title>
<ellipse fill="#00bfff" stroke="#00bfff" cx="310.65" cy="-279" rx="61.19" ry="18"/>
<text text-anchor="middle" x="310.65" y="-275.3" font-family="Times,serif" font-size="14.00">आगताः(13.2)</text>
</g>
<!-- Node8_1&#45;&gt;Node13_2 -->
<g id="edge9" class="edge">
<title>Node8_1&#45;&gt;Node13_2</title>
<path fill="none" stroke="black" d="M93.63,-210.41C100.28,-213.06 107.13,-215.68 113.65,-218 166.02,-236.66 227.45,-254.79 267.61,-266.15"/>
<polygon fill="black" stroke="black" points="94.67,-207.05 84.09,-206.54 92.04,-213.54 94.67,-207.05"/>
<text text-anchor="middle" x="205.65" y="-231.8" font-family="Times,serif" font-size="14.00">सहार्थः</text>
</g>
<!-- Node13_2&#45;&gt;Node6_1 -->
<g id="edge15" class="edge">
<title>Node13_2&#45;&gt;Node6_1</title>
<path fill="none" stroke="black" d="M337.63,-303.17C354.54,-317.68 375.9,-336.03 390.95,-348.95"/>
<polygon fill="black" stroke="black" points="339.6,-300.25 329.73,-296.39 335.04,-305.56 339.6,-300.25"/>
<text text-anchor="middle" x="404.65" y="-318.8" font-family="Times,serif" font-size="14.00">विधेय_विशेषणम्</text>
</g>
<!-- Node9_1 -->
<g id="node12" class="node">
<title>Node9_1</title>
<ellipse fill="#ff99ff" stroke="#ff99ff" cx="52.65" cy="-105" rx="44.69" ry="18"/>
<text text-anchor="middle" x="52.65" y="-101.3" font-family="Times,serif" font-size="14.00">तथा(9.1)</text>
</g>
<!-- Node9_1&#45;&gt;Node8_1 -->
<g id="edge10" class="edge">
<title>Node9_1&#45;&gt;Node8_1</title>
<path fill="none" stroke="black" d="M52.65,-133.27C52.65,-146.58 52.65,-162.19 52.65,-173.82"/>
<polygon fill="black" stroke="black" points="56.15,-133.2 52.65,-123.2 49.15,-133.2 56.15,-133.2"/>
<text text-anchor="middle" x="90.65" y="-144.8" font-family="Times,serif" font-size="14.00">समुच्चय_द्योतकः</text>
</g>
<!-- Node10_1 -->
<g id="node13" class="node">
<title>Node10_1</title>
<ellipse fill="#40e0d0" stroke="#40e0d0" cx="182.65" cy="-192" rx="59.59" ry="18"/>
<text text-anchor="middle" x="182.65" y="-188.3" font-family="Times,serif" font-size="14.00">बान्धवैः(10.1)</text>
</g>
<!-- Node10_1&#45;&gt;Node13_2 -->
<g id="edge11" class="edge">
<title>Node10_1&#45;&gt;Node13_2</title>
<path fill="none" stroke="black" d="M214.64,-214.25C237.06,-229.13 266.54,-248.71 286.88,-262.22"/>
<polygon fill="black" stroke="black" points="216.39,-211.21 206.12,-208.59 212.52,-217.04 216.39,-211.21"/>
<text text-anchor="middle" x="270.65" y="-231.8" font-family="Times,serif" font-size="14.00">सहार्थः</text>
</g>
<!-- Node11_1 -->
<g id="node14" class="node">
<title>Node11_1</title>
<ellipse fill="#40e0d0" stroke="#40e0d0" cx="310.65" cy="-192" rx="50.89" ry="18"/>
<text text-anchor="middle" x="310.65" y="-188.3" font-family="Times,serif" font-size="14.00">पुत्रैः(11.1)</text>
</g>
<!-- Node11_1&#45;&gt;Node13_2 -->
<g id="edge12" class="edge">
<title>Node11_1&#45;&gt;Node13_2</title>
<path fill="none" stroke="black" d="M310.65,-220.27C310.65,-233.58 310.65,-249.19 310.65,-260.82"/>
<polygon fill="black" stroke="black" points="314.15,-220.2 310.65,-210.2 307.15,-220.2 314.15,-220.2"/>
<text text-anchor="middle" x="326.65" y="-231.8" font-family="Times,serif" font-size="14.00">सहार्थः</text>
</g>
<!-- Node12_1 -->
<g id="node15" class="node">
<title>Node12_1</title>
<ellipse fill="#ff99ff" stroke="#ff99ff" cx="310.65" cy="-105" rx="43.59" ry="18"/>
<text text-anchor="middle" x="310.65" y="-101.3" font-family="Times,serif" font-size="14.00">च(12.1)</text>
</g>
<!-- Node12_1&#45;&gt;Node11_1 -->
<g id="edge13" class="edge">
<title>Node12_1&#45;&gt;Node11_1</title>
<path fill="none" stroke="black" d="M310.65,-133.27C310.65,-146.58 310.65,-162.19 310.65,-173.82"/>
<polygon fill="black" stroke="black" points="314.15,-133.2 310.65,-123.2 307.15,-133.2 314.15,-133.2"/>
<text text-anchor="middle" x="329.15" y="-144.8" font-family="Times,serif" font-size="14.00">सम्बन्धः</text>
</g>
<!-- Node13_1 -->
<g id="node16" class="node">
<title>Node13_1</title>
<ellipse fill="#ffff00" stroke="#ffff00" cx="431.65" cy="-192" rx="51.99" ry="18"/>
<text text-anchor="middle" x="431.65" y="-188.3" font-family="Times,serif" font-size="14.00">सम्&#45;(13.1)</text>
</g>
<!-- Node13_1&#45;&gt;Node13_2 -->
<g id="edge14" class="edge">
<title>Node13_1&#45;&gt;Node13_2</title>
<path fill="none" stroke="black" d="M401.41,-214.24C380.25,-229.1 352.45,-248.63 333.21,-262.15"/>
<polygon fill="black" stroke="black" points="403.56,-217.01 409.73,-208.39 399.54,-211.28 403.56,-217.01"/>
<text text-anchor="middle" x="394.65" y="-231.8" font-family="Times,serif" font-size="14.00">समासः</text>
</g>
</g>
</svg>
