<?xml version="1.0" encoding="UTF-8" standalone="no"?>
<!DOCTYPE svg PUBLIC "-//W3C//DTD SVG 1.1//EN"
 "http://www.w3.org/Graphics/SVG/1.1/DTD/svg11.dtd">
<!-- Generated by graphviz version 2.43.0 (0)
 -->
<!-- Title: G Pages: 1 -->
<svg width="1180pt" height="408pt"
 viewBox="0.00 0.00 1180.25 408.00" xmlns="http://www.w3.org/2000/svg" xmlns:xlink="http://www.w3.org/1999/xlink">
<g id="graph0" class="graph" transform="scale(1 1) rotate(0) translate(4 404)">
<title>G</title>
<polygon fill="#fffacd" stroke="transparent" points="-4,4 -4,-404 1176.25,-404 1176.25,4 -4,4"/>
<g id="clust1" class="cluster">
<title>cluster_1</title>
<polygon fill="#fffacd" stroke="black" points="8,-8 8,-147 144,-147 144,-8 8,-8"/>
</g>
<g id="clust2" class="cluster">
<title>cluster_2</title>
<polygon fill="#fffacd" stroke="black" points="152,-95 152,-234 288,-234 288,-95 152,-95"/>
</g>
<g id="clust3" class="cluster">
<title>cluster_3</title>
<polygon fill="#fffacd" stroke="black" points="467,-269 467,-321 569,-321 569,-269 467,-269"/>
</g>
<!-- Node3_1 -->
<g id="node1" class="node">
<title>Node3_1</title>
<ellipse fill="#87ceeb" stroke="#87ceeb" cx="76" cy="-34" rx="49.29" ry="18"/>
<text text-anchor="middle" x="76" y="-30.3" font-family="Times,serif" font-size="14.00">तेषाम्(3.1)</text>
</g>
<!-- Node4_2 -->
<g id="node2" class="node">
<title>Node4_2</title>
<ellipse fill="#87ceeb" stroke="#87ceeb" cx="76" cy="-121" rx="59.59" ry="18"/>
<text text-anchor="middle" x="76" y="-117.3" font-family="Times,serif" font-size="14.00">कौरवाणां(4.2)</text>
</g>
<!-- Node3_1&#45;&gt;Node4_2 -->
<g id="edge4" class="edge">
<title>Node3_1&#45;&gt;Node4_2</title>
<path fill="none" stroke="black" d="M76,-62.27C76,-75.58 76,-91.19 76,-102.82"/>
<polygon fill="black" stroke="black" points="79.5,-62.2 76,-52.2 72.5,-62.2 79.5,-62.2"/>
<text text-anchor="middle" x="98.5" y="-73.8" font-family="Times,serif" font-size="14.00">विशेषणम्</text>
</g>
<!-- Node7_1 -->
<g id="node4" class="node">
<title>Node7_1</title>
<ellipse fill="#93db70" stroke="#93db70" cx="220" cy="-208" rx="59.59" ry="18"/>
<text text-anchor="middle" x="220" y="-204.3" font-family="Times,serif" font-size="14.00">समागमम्(7.1)</text>
</g>
<!-- Node4_2&#45;&gt;Node7_1 -->
<g id="edge6" class="edge">
<title>Node4_2&#45;&gt;Node7_1</title>
<path fill="none" stroke="black" d="M110.76,-142.52C136.44,-157.68 170.83,-177.98 194.12,-191.72"/>
<polygon fill="black" stroke="black" points="112.47,-139.46 102.08,-137.39 108.91,-145.49 112.47,-139.46"/>
<text text-anchor="middle" x="184.5" y="-160.8" font-family="Times,serif" font-size="14.00">षष्ठीसम्बन्धः</text>
</g>
<!-- Node6_1 -->
<g id="node3" class="node">
<title>Node6_1</title>
<ellipse fill="#93db70" stroke="#93db70" cx="220" cy="-121" rx="46.29" ry="18"/>
<text text-anchor="middle" x="220" y="-117.3" font-family="Times,serif" font-size="14.00">इमम्(6.1)</text>
</g>
<!-- Node6_1&#45;&gt;Node7_1 -->
<g id="edge8" class="edge">
<title>Node6_1&#45;&gt;Node7_1</title>
<path fill="none" stroke="black" d="M220,-149.27C220,-162.58 220,-178.19 220,-189.82"/>
<polygon fill="black" stroke="black" points="223.5,-149.2 220,-139.2 216.5,-149.2 223.5,-149.2"/>
<text text-anchor="middle" x="242.5" y="-160.8" font-family="Times,serif" font-size="14.00">विशेषणम्</text>
</g>
<!-- Node8_1 -->
<g id="node8" class="node">
<title>Node8_1</title>
<ellipse fill="#ff1975" stroke="#ff1975" cx="278" cy="-295" rx="56.59" ry="18"/>
<text text-anchor="middle" x="278" y="-291.3" font-family="Times,serif" font-size="14.00">शृणुयात्(8.1)</text>
</g>
<!-- Node7_1&#45;&gt;Node8_1 -->
<g id="edge9" class="edge">
<title>Node7_1&#45;&gt;Node8_1</title>
<path fill="none" stroke="black" d="M237.33,-234.4C246.79,-248.26 258.23,-265.03 266.56,-277.24"/>
<polygon fill="black" stroke="black" points="239.99,-232.08 231.46,-225.79 234.2,-236.03 239.99,-232.08"/>
<text text-anchor="middle" x="261" y="-247.8" font-family="Times,serif" font-size="14.00">कर्म</text>
</g>
<!-- Node9_1 -->
<g id="node5" class="node">
<title>Node9_1</title>
<ellipse fill="#00bfff" stroke="#00bfff" cx="518" cy="-208" rx="47.39" ry="18"/>
<text text-anchor="middle" x="518" y="-204.3" font-family="Times,serif" font-size="14.00">(सः)(9.1)</text>
</g>
<!-- Node2_1 -->
<g id="node6" class="node">
<title>Node2_1</title>
<ellipse fill="#00bfff" stroke="#00bfff" cx="518" cy="-295" rx="42.79" ry="18"/>
<text text-anchor="middle" x="518" y="-291.3" font-family="Times,serif" font-size="14.00">नरः(2.1)</text>
</g>
<!-- Node9_1&#45;&gt;Node2_1 -->
<g id="edge10" class="edge">
<title>Node9_1&#45;&gt;Node2_1</title>
<path fill="none" stroke="black" d="M518,-236.27C518,-249.58 518,-265.19 518,-276.82"/>
<polygon fill="black" stroke="black" points="521.5,-236.2 518,-226.2 514.5,-236.2 521.5,-236.2"/>
<text text-anchor="middle" x="540.5" y="-247.8" font-family="Times,serif" font-size="14.00">विशेषणम्</text>
</g>
<!-- Node16_1 -->
<g id="node9" class="node">
<title>Node16_1</title>
<ellipse fill="#ff1975" stroke="#ff1975" cx="838" cy="-382" rx="54.69" ry="18"/>
<text text-anchor="middle" x="838" y="-378.3" font-family="Times,serif" font-size="14.00">लभते(16.1)</text>
</g>
<!-- Node2_1&#45;&gt;Node16_1 -->
<g id="edge3" class="edge">
<title>Node2_1&#45;&gt;Node16_1</title>
<path fill="none" stroke="black" d="M553,-313.85C558.62,-316.41 564.42,-318.89 570,-321 643.6,-348.79 733.66,-365.68 788.38,-374.18"/>
<polygon fill="black" stroke="black" points="554.34,-310.6 543.8,-309.5 551.34,-316.93 554.34,-310.6"/>
<text text-anchor="middle" x="660" y="-334.8" font-family="Times,serif" font-size="14.00">कर्ता</text>
</g>
<!-- Node1_1 -->
<g id="node7" class="node">
<title>Node1_1</title>
<ellipse fill="#00bfff" stroke="#00bfff" cx="337" cy="-208" rx="39.79" ry="18"/>
<text text-anchor="middle" x="337" y="-204.3" font-family="Times,serif" font-size="14.00">यः(1.1)</text>
</g>
<!-- Node1_1&#45;&gt;Node9_1 -->
<g id="edge2" class="edge">
<title>Node1_1&#45;&gt;Node9_1</title>
<path fill="none" stroke="red" stroke-dasharray="5,2" d="M386.77,-208C409.48,-208 436.5,-208 460.11,-208"/>
<polygon fill="red" stroke="red" points="386.72,-204.5 376.72,-208 386.72,-211.5 386.72,-204.5"/>
<polygon fill="red" stroke="red" points="460.34,-211.5 470.34,-208 460.34,-204.5 460.34,-211.5"/>
<text text-anchor="middle" x="423.6" y="-193.8" font-family="Times,serif" font-size="14.00">नित्य_सम्बन्धः1</text>
</g>
<!-- Node1_1&#45;&gt;Node8_1 -->
<g id="edge1" class="edge">
<title>Node1_1&#45;&gt;Node8_1</title>
<path fill="none" stroke="black" d="M319.89,-233.65C310.14,-247.7 298.18,-264.92 289.54,-277.37"/>
<polygon fill="black" stroke="black" points="322.8,-235.6 325.62,-225.39 317.05,-231.61 322.8,-235.6"/>
<text text-anchor="middle" x="322" y="-247.8" font-family="Times,serif" font-size="14.00">कर्ता</text>
</g>
<!-- Node4_1 -->
<g id="node10" class="node">
<title>Node4_1</title>
<ellipse fill="#ffff00" stroke="#ffff00" cx="208" cy="-34" rx="55.79" ry="18"/>
<text text-anchor="middle" x="208" y="-30.3" font-family="Times,serif" font-size="14.00">पाण्डव&#45;(4.1)</text>
</g>
<!-- Node4_1&#45;&gt;Node4_2 -->
<g id="edge5" class="edge">
<title>Node4_1&#45;&gt;Node4_2</title>
<path fill="none" stroke="black" d="M175.57,-55.88C152.26,-70.89 121.34,-90.81 100.17,-104.43"/>
<polygon fill="black" stroke="black" points="177.58,-58.75 184.1,-50.39 173.79,-52.86 177.58,-58.75"/>
<text text-anchor="middle" x="167" y="-73.8" font-family="Times,serif" font-size="14.00">समासः</text>
</g>
<!-- Node5_1 -->
<g id="node11" class="node">
<title>Node5_1</title>
<ellipse fill="#40e0d0" stroke="#40e0d0" cx="343" cy="-121" rx="46.59" ry="18"/>
<text text-anchor="middle" x="343" y="-117.3" font-family="Times,serif" font-size="14.00">प्रियैः(5.1)</text>
</g>
<!-- Node5_1&#45;&gt;Node7_1 -->
<g id="edge7" class="edge">
<title>Node5_1&#45;&gt;Node7_1</title>
<path fill="none" stroke="black" d="M312.79,-142.88C291.15,-157.83 262.46,-177.66 242.74,-191.29"/>
<polygon fill="black" stroke="black" points="315.06,-145.57 321.29,-137 311.08,-139.81 315.06,-145.57"/>
<text text-anchor="middle" x="304" y="-160.8" font-family="Times,serif" font-size="14.00">सहार्थः</text>
</g>
<!-- Node10_1 -->
<g id="node12" class="node">
<title>Node10_1</title>
<ellipse fill="#ff99ff" stroke="#ff99ff" cx="626" cy="-295" rx="46.59" ry="18"/>
<text text-anchor="middle" x="626" y="-291.3" font-family="Times,serif" font-size="14.00">इह(10.1)</text>
</g>
<!-- Node10_1&#45;&gt;Node16_1 -->
<g id="edge11" class="edge">
<title>Node10_1&#45;&gt;Node16_1</title>
<path fill="none" stroke="black" d="M658.16,-316.22C674.94,-326.16 696.08,-337.74 716,-346 741.24,-356.47 770.65,-365.01 794.27,-371.03"/>
<polygon fill="black" stroke="black" points="659.7,-313.06 649.33,-310.9 656.09,-319.06 659.7,-313.06"/>
<text text-anchor="middle" x="748" y="-334.8" font-family="Times,serif" font-size="14.00">देशाधिकरणम्</text>
</g>
<!-- Node11_1 -->
<g id="node13" class="node">
<title>Node11_1</title>
<ellipse fill="#ff99ff" stroke="#ff99ff" cx="627" cy="-208" rx="43.59" ry="18"/>
<text text-anchor="middle" x="627" y="-204.3" font-family="Times,serif" font-size="14.00">च(11.1)</text>
</g>
<!-- Node11_1&#45;&gt;Node10_1 -->
<g id="edge12" class="edge">
<title>Node11_1&#45;&gt;Node10_1</title>
<path fill="none" stroke="black" d="M626.68,-236.27C626.52,-249.58 626.34,-265.19 626.2,-276.82"/>
<polygon fill="black" stroke="black" points="630.18,-236.24 626.8,-226.2 623.18,-236.16 630.18,-236.24"/>
<text text-anchor="middle" x="644.5" y="-247.8" font-family="Times,serif" font-size="14.00">सम्बन्धः</text>
</g>
<!-- Node12_1 -->
<g id="node14" class="node">
<title>Node12_1</title>
<ellipse fill="#ff99ff" stroke="#ff99ff" cx="742" cy="-295" rx="51.19" ry="18"/>
<text text-anchor="middle" x="742" y="-291.3" font-family="Times,serif" font-size="14.00">प्रेत्य(12.1)</text>
</g>
<!-- Node12_1&#45;&gt;Node16_1 -->
<g id="edge13" class="edge">
<title>Node12_1&#45;&gt;Node16_1</title>
<path fill="none" stroke="black" d="M767.7,-318.76C784.11,-333.28 804.97,-351.76 819.7,-364.79"/>
<polygon fill="black" stroke="black" points="769.86,-316 760.06,-311.99 765.22,-321.24 769.86,-316"/>
<text text-anchor="middle" x="815.5" y="-334.8" font-family="Times,serif" font-size="14.00">पूर्वकालः</text>
</g>
<!-- Node13_1 -->
<g id="node15" class="node">
<title>Node13_1</title>
<ellipse fill="#ff99ff" stroke="#ff99ff" cx="742" cy="-208" rx="48.19" ry="18"/>
<text text-anchor="middle" x="742" y="-204.3" font-family="Times,serif" font-size="14.00">चैव(13.1)</text>
</g>
<!-- Node13_1&#45;&gt;Node12_1 -->
<g id="edge14" class="edge">
<title>Node13_1&#45;&gt;Node12_1</title>
<path fill="none" stroke="black" d="M742,-236.27C742,-249.58 742,-265.19 742,-276.82"/>
<polygon fill="black" stroke="black" points="745.5,-236.2 742,-226.2 738.5,-236.2 745.5,-236.2"/>
<text text-anchor="middle" x="760.5" y="-247.8" font-family="Times,serif" font-size="14.00">सम्बन्धः</text>
</g>
<!-- Node14_1 -->
<g id="node16" class="node">
<title>Node14_1</title>
<ellipse fill="#00bfff" stroke="#00bfff" cx="870" cy="-295" rx="58.49" ry="18"/>
<text text-anchor="middle" x="870" y="-291.3" font-family="Times,serif" font-size="14.00">नित्यम्(14.1)</text>
</g>
<!-- Node14_1&#45;&gt;Node16_1 -->
<g id="edge15" class="edge">
<title>Node14_1&#45;&gt;Node16_1</title>
<path fill="none" stroke="black" d="M859.86,-322.94C854.78,-336.43 848.78,-352.36 844.36,-364.11"/>
<polygon fill="black" stroke="black" points="863.28,-323.79 863.52,-313.2 856.73,-321.33 863.28,-323.79"/>
<text text-anchor="middle" x="890" y="-334.8" font-family="Times,serif" font-size="14.00">क्रियाविशेषणम्</text>
</g>
<!-- Node15_1 -->
<g id="node17" class="node">
<title>Node15_1</title>
<ellipse fill="#93db70" stroke="#93db70" cx="1008" cy="-295" rx="61.99" ry="18"/>
<text text-anchor="middle" x="1008" y="-291.3" font-family="Times,serif" font-size="14.00">प्रियाणि(15.1)</text>
</g>
<!-- Node15_1&#45;&gt;Node16_1 -->
<g id="edge16" class="edge">
<title>Node15_1&#45;&gt;Node16_1</title>
<path fill="none" stroke="black" d="M977.1,-317.55C962.84,-326.97 945.45,-337.73 929,-346 911.76,-354.67 891.83,-362.55 875.02,-368.64"/>
<polygon fill="black" stroke="black" points="979.18,-320.37 985.54,-311.89 975.28,-314.56 979.18,-320.37"/>
<text text-anchor="middle" x="962" y="-334.8" font-family="Times,serif" font-size="14.00">कर्म</text>
</g>
<!-- Node17_1 -->
<g id="node18" class="node">
<title>Node17_1</title>
<ellipse fill="#ff99ff" stroke="#ff99ff" cx="1130" cy="-295" rx="42.49" ry="18"/>
<text text-anchor="middle" x="1130" y="-291.3" font-family="Times,serif" font-size="14.00">ह(17.1)</text>
</g>
<!-- Node17_1&#45;&gt;Node16_1 -->
<g id="edge17" class="edge">
<title>Node17_1&#45;&gt;Node16_1</title>
<path fill="none" stroke="black" d="M1095.93,-313.93C1090.35,-316.5 1084.58,-318.96 1079,-321 1013.18,-345.02 933.81,-362.72 884.62,-372.45"/>
<polygon fill="black" stroke="black" points="1097.54,-317.03 1105.04,-309.55 1094.51,-310.73 1097.54,-317.03"/>
<text text-anchor="middle" x="1065.5" y="-334.8" font-family="Times,serif" font-size="14.00">सम्बन्धः</text>
</g>
</g>
</svg>
