<?xml version="1.0" encoding="UTF-8" standalone="no"?>
<!DOCTYPE svg PUBLIC "-//W3C//DTD SVG 1.1//EN"
 "http://www.w3.org/Graphics/SVG/1.1/DTD/svg11.dtd">
<!-- Generated by graphviz version 2.43.0 (0)
 -->
<!-- Title: G Pages: 1 -->
<svg width="822pt" height="392pt"
 viewBox="0.00 0.00 821.79 392.00" xmlns="http://www.w3.org/2000/svg" xmlns:xlink="http://www.w3.org/1999/xlink">
<g id="graph0" class="graph" transform="scale(1 1) rotate(0) translate(4 388)">
<title>G</title>
<polygon fill="#fffacd" stroke="transparent" points="-4,4 -4,-388 817.79,-388 817.79,4 -4,4"/>
<g id="clust1" class="cluster">
<title>cluster_1</title>
<polygon fill="#fffacd" stroke="black" points="266,-166 266,-305 756,-305 756,-166 266,-166"/>
</g>
<g id="clust2" class="cluster">
<title>cluster_2</title>
<polygon fill="#fffacd" stroke="black" points="117,-79 117,-131 253,-131 253,-79 117,-79"/>
</g>
<g id="clust3" class="cluster">
<title>cluster_3</title>
<polygon fill="#fffacd" stroke="black" points="8,-166 8,-305 138,-305 138,-166 8,-166"/>
</g>
<!-- Node1_3 -->
<g id="node1" class="node">
<title>Node1_3</title>
<ellipse fill="#00bfff" stroke="#00bfff" cx="574" cy="-192" rx="51.99" ry="18"/>
<text text-anchor="middle" x="574" y="-188.3" font-family="Times,serif" font-size="14.00">युक्ताः(1.3)</text>
</g>
<!-- Node5_1 -->
<g id="node2" class="node">
<title>Node5_1</title>
<ellipse fill="#00bfff" stroke="#00bfff" cx="452" cy="-279" rx="51.99" ry="18"/>
<text text-anchor="middle" x="452" y="-275.3" font-family="Times,serif" font-size="14.00">पुरुषाः(5.1)</text>
</g>
<!-- Node1_3&#45;&gt;Node5_1 -->
<g id="edge3" class="edge">
<title>Node1_3&#45;&gt;Node5_1</title>
<path fill="none" stroke="black" d="M543.46,-214.28C521.98,-229.24 493.73,-248.93 474.34,-262.43"/>
<polygon fill="black" stroke="black" points="545.7,-216.98 551.91,-208.39 541.7,-211.24 545.7,-216.98"/>
<text text-anchor="middle" x="542.5" y="-231.8" font-family="Times,serif" font-size="14.00">विशेषणम्</text>
</g>
<!-- Node11_1 -->
<g id="node15" class="node">
<title>Node11_1</title>
<ellipse fill="#ff1975" stroke="#ff1975" cx="203" cy="-366" rx="79.09" ry="18"/>
<text text-anchor="middle" x="203" y="-362.3" font-family="Times,serif" font-size="14.00">(अवाप्स्यन्ति)(11.1)</text>
</g>
<!-- Node5_1&#45;&gt;Node11_1 -->
<g id="edge10" class="edge">
<title>Node5_1&#45;&gt;Node11_1</title>
<path fill="none" stroke="black" d="M406.62,-295.49C360.65,-311.18 290.1,-335.27 245.27,-350.57"/>
<polygon fill="black" stroke="black" points="407.99,-298.72 416.32,-292.18 405.73,-292.1 407.99,-298.72"/>
<text text-anchor="middle" x="353" y="-318.8" font-family="Times,serif" font-size="14.00">कर्ता</text>
</g>
<!-- Node2_3 -->
<g id="node3" class="node">
<title>Node2_3</title>
<ellipse fill="#00bfff" stroke="#00bfff" cx="696" cy="-192" rx="51.99" ry="18"/>
<text text-anchor="middle" x="696" y="-188.3" font-family="Times,serif" font-size="14.00">युक्ताः(2.3)</text>
</g>
<!-- Node2_3&#45;&gt;Node5_1 -->
<g id="edge6" class="edge">
<title>Node2_3&#45;&gt;Node5_1</title>
<path fill="none" stroke="black" d="M654.76,-210.25C630.08,-220.33 597.96,-232.99 569,-243 543.35,-251.87 514.1,-260.62 491.26,-267.15"/>
<polygon fill="black" stroke="black" points="656.26,-213.43 664.18,-206.39 653.6,-206.95 656.26,-213.43"/>
<text text-anchor="middle" x="629.5" y="-231.8" font-family="Times,serif" font-size="14.00">विशेषणम्</text>
</g>
<!-- Node3_2 -->
<g id="node4" class="node">
<title>Node3_2</title>
<ellipse fill="#00bfff" stroke="#00bfff" cx="452" cy="-192" rx="51.99" ry="18"/>
<text text-anchor="middle" x="452" y="-188.3" font-family="Times,serif" font-size="14.00">युक्ताः(3.2)</text>
</g>
<!-- Node3_2&#45;&gt;Node5_1 -->
<g id="edge8" class="edge">
<title>Node3_2&#45;&gt;Node5_1</title>
<path fill="none" stroke="black" d="M452,-220.27C452,-233.58 452,-249.19 452,-260.82"/>
<polygon fill="black" stroke="black" points="455.5,-220.2 452,-210.2 448.5,-220.2 455.5,-220.2"/>
<text text-anchor="middle" x="474.5" y="-231.8" font-family="Times,serif" font-size="14.00">विशेषणम्</text>
</g>
<!-- Node7_1 -->
<g id="node5" class="node">
<title>Node7_1</title>
<ellipse fill="#00bfff" stroke="#00bfff" cx="328" cy="-192" rx="53.89" ry="18"/>
<text text-anchor="middle" x="328" y="-188.3" font-family="Times,serif" font-size="14.00">मानवाः(7.1)</text>
</g>
<!-- Node7_1&#45;&gt;Node5_1 -->
<g id="edge12" class="edge">
<title>Node7_1&#45;&gt;Node5_1</title>
<path fill="none" stroke="black" d="M349.75,-216.89C358.59,-225.77 369.25,-235.5 380,-243 392.2,-251.51 406.78,-259.02 419.62,-264.88"/>
<polygon fill="black" stroke="black" points="352.26,-214.45 342.8,-209.7 347.23,-219.32 352.26,-214.45"/>
<text text-anchor="middle" x="414" y="-231.8" font-family="Times,serif" font-size="14.00">सुप्_समुच्चितः</text>
</g>
<!-- Node6_1 -->
<g id="node6" class="node">
<title>Node6_1</title>
<ellipse fill="#00bfff" stroke="#00bfff" cx="185" cy="-105" rx="59.59" ry="18"/>
<text text-anchor="middle" x="185" y="-101.3" font-family="Times,serif" font-size="14.00">धृतिमन्तः(6.1)</text>
</g>
<!-- Node6_1&#45;&gt;Node7_1 -->
<g id="edge11" class="edge">
<title>Node6_1&#45;&gt;Node7_1</title>
<path fill="none" stroke="black" d="M210.75,-128.92C221.75,-138.04 235.03,-148.2 248,-156 262.16,-164.52 278.76,-172.13 293.17,-178.06"/>
<polygon fill="black" stroke="black" points="212.72,-126 202.82,-122.21 208.19,-131.34 212.72,-126"/>
<text text-anchor="middle" x="270.5" y="-144.8" font-family="Times,serif" font-size="14.00">विशेषणम्</text>
</g>
<!-- Node9_1 -->
<g id="node7" class="node">
<title>Node9_1</title>
<ellipse fill="#93db70" stroke="#93db70" cx="73" cy="-192" rx="50.09" ry="18"/>
<text text-anchor="middle" x="73" y="-188.3" font-family="Times,serif" font-size="14.00">(परां)(9.1)</text>
</g>
<!-- Node10_1 -->
<g id="node8" class="node">
<title>Node10_1</title>
<ellipse fill="#93db70" stroke="#93db70" cx="73" cy="-279" rx="57.39" ry="18"/>
<text text-anchor="middle" x="73" y="-275.3" font-family="Times,serif" font-size="14.00">(गतिं)(10.1)</text>
</g>
<!-- Node9_1&#45;&gt;Node10_1 -->
<g id="edge14" class="edge">
<title>Node9_1&#45;&gt;Node10_1</title>
<path fill="none" stroke="black" d="M73,-220.27C73,-233.58 73,-249.19 73,-260.82"/>
<polygon fill="black" stroke="black" points="76.5,-220.2 73,-210.2 69.5,-220.2 76.5,-220.2"/>
<text text-anchor="middle" x="95.5" y="-231.8" font-family="Times,serif" font-size="14.00">विशेषणम्</text>
</g>
<!-- Node10_1&#45;&gt;Node11_1 -->
<g id="edge15" class="edge">
<title>Node10_1&#45;&gt;Node11_1</title>
<path fill="none" stroke="black" d="M105.38,-301.17C127.84,-315.86 157.32,-335.13 177.98,-348.64"/>
<polygon fill="black" stroke="black" points="107.13,-298.13 96.84,-295.59 103.3,-303.99 107.13,-298.13"/>
<text text-anchor="middle" x="154" y="-318.8" font-family="Times,serif" font-size="14.00">कर्म</text>
</g>
<!-- Node1_1 -->
<g id="node9" class="node">
<title>Node1_1</title>
<ellipse fill="#ffff00" stroke="#ffff00" cx="629" cy="-18" rx="43.59" ry="18"/>
<text text-anchor="middle" x="629" y="-14.3" font-family="Times,serif" font-size="14.00">स्व&#45;(1.1)</text>
</g>
<!-- Node1_2 -->
<g id="node10" class="node">
<title>Node1_2</title>
<ellipse fill="#ffff00" stroke="#ffff00" cx="629" cy="-105" rx="59.59" ry="18"/>
<text text-anchor="middle" x="629" y="-101.3" font-family="Times,serif" font-size="14.00">आध्याय&#45;(1.2)</text>
</g>
<!-- Node1_1&#45;&gt;Node1_2 -->
<g id="edge1" class="edge">
<title>Node1_1&#45;&gt;Node1_2</title>
<path fill="none" stroke="black" d="M629,-46.27C629,-59.58 629,-75.19 629,-86.82"/>
<polygon fill="black" stroke="black" points="632.5,-46.2 629,-36.2 625.5,-46.2 632.5,-46.2"/>
<text text-anchor="middle" x="646" y="-57.8" font-family="Times,serif" font-size="14.00">समासः</text>
</g>
<!-- Node1_2&#45;&gt;Node1_3 -->
<g id="edge2" class="edge">
<title>Node1_2&#45;&gt;Node1_3</title>
<path fill="none" stroke="black" d="M612.56,-131.4C603.6,-145.26 592.75,-162.03 584.84,-174.24"/>
<polygon fill="black" stroke="black" points="615.64,-133.09 618.13,-122.79 609.76,-129.29 615.64,-133.09"/>
<text text-anchor="middle" x="621" y="-144.8" font-family="Times,serif" font-size="14.00">समासः</text>
</g>
<!-- Node2_1 -->
<g id="node11" class="node">
<title>Node2_1</title>
<ellipse fill="#ffff00" stroke="#ffff00" cx="754" cy="-18" rx="59.59" ry="18"/>
<text text-anchor="middle" x="754" y="-14.3" font-family="Times,serif" font-size="14.00">अध्यात्म&#45;(2.1)</text>
</g>
<!-- Node2_2 -->
<g id="node12" class="node">
<title>Node2_2</title>
<ellipse fill="#ffff00" stroke="#ffff00" cx="754" cy="-105" rx="47.39" ry="18"/>
<text text-anchor="middle" x="754" y="-101.3" font-family="Times,serif" font-size="14.00">योग&#45;(2.2)</text>
</g>
<!-- Node2_1&#45;&gt;Node2_2 -->
<g id="edge4" class="edge">
<title>Node2_1&#45;&gt;Node2_2</title>
<path fill="none" stroke="black" d="M754,-46.27C754,-59.58 754,-75.19 754,-86.82"/>
<polygon fill="black" stroke="black" points="757.5,-46.2 754,-36.2 750.5,-46.2 757.5,-46.2"/>
<text text-anchor="middle" x="771" y="-57.8" font-family="Times,serif" font-size="14.00">समासः</text>
</g>
<!-- Node2_2&#45;&gt;Node2_3 -->
<g id="edge5" class="edge">
<title>Node2_2&#45;&gt;Node2_3</title>
<path fill="none" stroke="black" d="M736.67,-131.4C727.21,-145.26 715.77,-162.03 707.44,-174.24"/>
<polygon fill="black" stroke="black" points="739.8,-133.03 742.54,-122.79 734.01,-129.08 739.8,-133.03"/>
<text text-anchor="middle" x="745" y="-144.8" font-family="Times,serif" font-size="14.00">समासः</text>
</g>
<!-- Node3_1 -->
<g id="node13" class="node">
<title>Node3_1</title>
<ellipse fill="#ffff00" stroke="#ffff00" cx="407" cy="-105" rx="51.19" ry="18"/>
<text text-anchor="middle" x="407" y="-101.3" font-family="Times,serif" font-size="14.00">क्रिया&#45;(3.1)</text>
</g>
<!-- Node3_1&#45;&gt;Node3_2 -->
<g id="edge7" class="edge">
<title>Node3_1&#45;&gt;Node3_2</title>
<path fill="none" stroke="black" d="M420.66,-131.8C427.95,-145.58 436.72,-162.14 443.13,-174.24"/>
<polygon fill="black" stroke="black" points="423.66,-129.99 415.89,-122.79 417.48,-133.27 423.66,-129.99"/>
<text text-anchor="middle" x="449" y="-144.8" font-family="Times,serif" font-size="14.00">समासः</text>
</g>
<!-- Node4_1 -->
<g id="node14" class="node">
<title>Node4_1</title>
<ellipse fill="#ff99ff" stroke="#ff99ff" cx="514" cy="-105" rx="37.89" ry="18"/>
<text text-anchor="middle" x="514" y="-101.3" font-family="Times,serif" font-size="14.00">च(4.1)</text>
</g>
<!-- Node4_1&#45;&gt;Node3_2 -->
<g id="edge9" class="edge">
<title>Node4_1&#45;&gt;Node3_2</title>
<path fill="none" stroke="black" d="M496.02,-130.65C485.77,-144.7 473.21,-161.92 464.13,-174.37"/>
<polygon fill="black" stroke="black" points="498.98,-132.53 502.05,-122.39 493.33,-128.41 498.98,-132.53"/>
<text text-anchor="middle" x="504.5" y="-144.8" font-family="Times,serif" font-size="14.00">सम्बन्धः</text>
</g>
<!-- Node8_1 -->
<g id="node16" class="node">
<title>Node8_1</title>
<ellipse fill="#ff99ff" stroke="#ff99ff" cx="300" cy="-105" rx="37.89" ry="18"/>
<text text-anchor="middle" x="300" y="-101.3" font-family="Times,serif" font-size="14.00">च(8.1)</text>
</g>
<!-- Node8_1&#45;&gt;Node7_1 -->
<g id="edge13" class="edge">
<title>Node8_1&#45;&gt;Node7_1</title>
<path fill="none" stroke="black" d="M297.45,-133.29C297.57,-140.82 298.49,-148.88 301,-156 303.34,-162.66 307.49,-169.05 311.84,-174.51"/>
<polygon fill="black" stroke="black" points="300.95,-133.23 297.73,-123.14 293.96,-133.04 300.95,-133.23"/>
<text text-anchor="middle" x="351" y="-144.8" font-family="Times,serif" font-size="14.00">सुप्_समुच्चय_द्योतकः</text>
</g>
<!-- Node12_1 -->
<g id="node17" class="node">
<title>Node12_1</title>
<ellipse fill="#6fffc3" stroke="#6fffc3" cx="203" cy="-279" rx="54.69" ry="18"/>
<text text-anchor="middle" x="203" y="-275.3" font-family="Times,serif" font-size="14.00">भारत(12.1)</text>
</g>
<!-- Node12_1&#45;&gt;Node11_1 -->
<g id="edge16" class="edge">
<title>Node12_1&#45;&gt;Node11_1</title>
<path fill="none" stroke="black" d="M203,-307.27C203,-320.58 203,-336.19 203,-347.82"/>
<polygon fill="black" stroke="black" points="206.5,-307.2 203,-297.2 199.5,-307.2 206.5,-307.2"/>
<text text-anchor="middle" x="224" y="-318.8" font-family="Times,serif" font-size="14.00">सम्बोध्यः</text>
</g>
</g>
</svg>
