<?xml version="1.0" encoding="UTF-8" standalone="no"?>
<!DOCTYPE svg PUBLIC "-//W3C//DTD SVG 1.1//EN"
 "http://www.w3.org/Graphics/SVG/1.1/DTD/svg11.dtd">
<!-- Generated by graphviz version 2.43.0 (0)
 -->
<!-- Title: G Pages: 1 -->
<svg width="517pt" height="392pt"
 viewBox="0.00 0.00 516.79 392.00" xmlns="http://www.w3.org/2000/svg" xmlns:xlink="http://www.w3.org/1999/xlink">
<g id="graph0" class="graph" transform="scale(1 1) rotate(0) translate(4 388)">
<title>G</title>
<polygon fill="#fffacd" stroke="transparent" points="-4,4 -4,-388 512.79,-388 512.79,4 -4,4"/>
<g id="clust1" class="cluster">
<title>cluster_1</title>
<polygon fill="#fffacd" stroke="black" points="70.25,-79 70.25,-218 180.25,-218 180.25,-79 70.25,-79"/>
</g>
<g id="clust2" class="cluster">
<title>cluster_2</title>
<polygon fill="#fffacd" stroke="black" points="318.25,-79 318.25,-218 458.25,-218 458.25,-79 318.25,-79"/>
</g>
<!-- Node8_1 -->
<g id="node1" class="node">
<title>Node8_1</title>
<ellipse fill="#00bfff" stroke="#00bfff" cx="125.25" cy="-105" rx="42.49" ry="18"/>
<text text-anchor="middle" x="125.25" y="-101.3" font-family="Times,serif" font-size="14.00">ताः(8.1)</text>
</g>
<!-- Node2_1 -->
<g id="node2" class="node">
<title>Node2_1</title>
<ellipse fill="#00bfff" stroke="#00bfff" cx="125.25" cy="-192" rx="46.59" ry="18"/>
<text text-anchor="middle" x="125.25" y="-188.3" font-family="Times,serif" font-size="14.00">नार्यः(2.1)</text>
</g>
<!-- Node8_1&#45;&gt;Node2_1 -->
<g id="edge9" class="edge">
<title>Node8_1&#45;&gt;Node2_1</title>
<path fill="none" stroke="black" d="M125.25,-133.27C125.25,-146.58 125.25,-162.19 125.25,-173.82"/>
<polygon fill="black" stroke="black" points="128.75,-133.2 125.25,-123.2 121.75,-133.2 128.75,-133.2"/>
<text text-anchor="middle" x="147.75" y="-144.8" font-family="Times,serif" font-size="14.00">विशेषणम्</text>
</g>
<!-- Node13_1 -->
<g id="node6" class="node">
<title>Node13_1</title>
<ellipse fill="#ff1975" stroke="#ff1975" cx="300.25" cy="-366" rx="63.89" ry="18"/>
<text text-anchor="middle" x="300.25" y="-362.3" font-family="Times,serif" font-size="14.00">अत्यजन्(13.1)</text>
</g>
<!-- Node2_1&#45;&gt;Node13_1 -->
<g id="edge2" class="edge">
<title>Node2_1&#45;&gt;Node13_1</title>
<path fill="none" stroke="black" d="M120.37,-219.98C117.81,-242.7 118.02,-274.94 134.25,-297 159.99,-332 206.97,-349.05 244.39,-357.31"/>
<polygon fill="black" stroke="black" points="123.85,-220.36 121.73,-209.97 116.91,-219.41 123.85,-220.36"/>
<text text-anchor="middle" x="145.25" y="-275.3" font-family="Times,serif" font-size="14.00">कर्ता</text>
</g>
<!-- Node11_1 -->
<g id="node7" class="node">
<title>Node11_1</title>
<ellipse fill="#ff99ff" stroke="#ff99ff" cx="218.25" cy="-279" rx="53.09" ry="18"/>
<text text-anchor="middle" x="218.25" y="-275.3" font-family="Times,serif" font-size="14.00">प्राप्य(11.1)</text>
</g>
<!-- Node2_1&#45;&gt;Node11_1 -->
<g id="edge3" class="edge">
<title>Node2_1&#45;&gt;Node11_1</title>
<path fill="none" stroke="black" stroke-dasharray="1,5" d="M150.15,-215.76C166.03,-230.28 186.25,-248.76 200.51,-261.79"/>
<polygon fill="black" stroke="black" points="152.48,-213.15 142.74,-208.99 147.76,-218.32 152.48,-213.15"/>
<text text-anchor="middle" x="189.25" y="-231.8" font-family="Times,serif" font-size="14.00">कर्ता</text>
</g>
<!-- Node9_1 -->
<g id="node3" class="node">
<title>Node9_1</title>
<ellipse fill="#93db70" stroke="#93db70" cx="388.25" cy="-105" rx="61.99" ry="18"/>
<text text-anchor="middle" x="388.25" y="-101.3" font-family="Times,serif" font-size="14.00">परमिकाम्(9.1)</text>
</g>
<!-- Node10_1 -->
<g id="node4" class="node">
<title>Node10_1</title>
<ellipse fill="#93db70" stroke="#93db70" cx="383.25" cy="-192" rx="51.99" ry="18"/>
<text text-anchor="middle" x="383.25" y="-188.3" font-family="Times,serif" font-size="14.00">मुदम्(10.1)</text>
</g>
<!-- Node9_1&#45;&gt;Node10_1 -->
<g id="edge10" class="edge">
<title>Node9_1&#45;&gt;Node10_1</title>
<path fill="none" stroke="black" d="M386.64,-133.27C385.86,-146.58 384.94,-162.19 384.26,-173.82"/>
<polygon fill="black" stroke="black" points="390.14,-133.39 387.23,-123.2 383.15,-132.98 390.14,-133.39"/>
<text text-anchor="middle" x="408.75" y="-144.8" font-family="Times,serif" font-size="14.00">विशेषणम्</text>
</g>
<!-- Node10_1&#45;&gt;Node11_1 -->
<g id="edge11" class="edge">
<title>Node10_1&#45;&gt;Node11_1</title>
<path fill="none" stroke="black" d="M346.25,-212.06C315.91,-227.69 273.63,-249.47 246.1,-263.65"/>
<polygon fill="black" stroke="black" points="347.97,-215.11 355.26,-207.42 344.76,-208.89 347.97,-215.11"/>
<text text-anchor="middle" x="320.25" y="-231.8" font-family="Times,serif" font-size="14.00">कर्म</text>
</g>
<!-- Node1_1 -->
<g id="node5" class="node">
<title>Node1_1</title>
<ellipse fill="#ff99ff" stroke="#ff99ff" cx="333.25" cy="-279" rx="44.39" ry="18"/>
<text text-anchor="middle" x="333.25" y="-275.3" font-family="Times,serif" font-size="14.00">अथ(1.1)</text>
</g>
<!-- Node1_1&#45;&gt;Node13_1 -->
<g id="edge1" class="edge">
<title>Node1_1&#45;&gt;Node13_1</title>
<path fill="none" stroke="black" d="M322.81,-306.87C317.61,-320.27 311.47,-336.08 306.91,-347.82"/>
<polygon fill="black" stroke="black" points="326.21,-307.79 326.57,-297.2 319.69,-305.26 326.21,-307.79"/>
<text text-anchor="middle" x="337.75" y="-318.8" font-family="Times,serif" font-size="14.00">सम्बन्धः</text>
</g>
<!-- Node11_1&#45;&gt;Node13_1 -->
<g id="edge12" class="edge">
<title>Node11_1&#45;&gt;Node13_1</title>
<path fill="none" stroke="black" d="M241.26,-303.86C254.95,-318.05 271.97,-335.69 284.2,-348.37"/>
<polygon fill="black" stroke="black" points="243.52,-301.16 234.06,-296.39 238.48,-306.02 243.52,-301.16"/>
<text text-anchor="middle" x="284.75" y="-318.8" font-family="Times,serif" font-size="14.00">पूर्वकालः</text>
</g>
<!-- Node3_1 -->
<g id="node8" class="node">
<title>Node3_1</title>
<ellipse fill="#40e0d0" stroke="#40e0d0" cx="55.25" cy="-18" rx="55.49" ry="18"/>
<text text-anchor="middle" x="55.25" y="-14.3" font-family="Times,serif" font-size="14.00">पितृभिः(3.1)</text>
</g>
<!-- Node7_1 -->
<g id="node9" class="node">
<title>Node7_1</title>
<ellipse fill="#00bfff" stroke="#00bfff" cx="248.25" cy="-105" rx="59.59" ry="18"/>
<text text-anchor="middle" x="248.25" y="-101.3" font-family="Times,serif" font-size="14.00">समागताः(7.1)</text>
</g>
<!-- Node3_1&#45;&gt;Node7_1 -->
<g id="edge4" class="edge">
<title>Node3_1&#45;&gt;Node7_1</title>
<path fill="none" stroke="black" d="M95.86,-36.89C131.56,-52.61 182.85,-75.2 215.85,-89.73"/>
<polygon fill="black" stroke="black" points="97.25,-33.67 86.68,-32.85 94.42,-40.08 97.25,-33.67"/>
<text text-anchor="middle" x="180.25" y="-57.8" font-family="Times,serif" font-size="14.00">सहार्थः</text>
</g>
<!-- Node7_1&#45;&gt;Node2_1 -->
<g id="edge8" class="edge">
<title>Node7_1&#45;&gt;Node2_1</title>
<path fill="none" stroke="black" d="M217.1,-127.52C195.26,-142.62 166.6,-162.42 147.14,-175.87"/>
<polygon fill="black" stroke="black" points="219.16,-130.35 225.4,-121.79 215.18,-124.59 219.16,-130.35"/>
<text text-anchor="middle" x="233.25" y="-144.8" font-family="Times,serif" font-size="14.00">विधेय_विशेषणम्</text>
</g>
<!-- Node4_1 -->
<g id="node10" class="node">
<title>Node4_1</title>
<ellipse fill="#40e0d0" stroke="#40e0d0" cx="184.25" cy="-18" rx="55.79" ry="18"/>
<text text-anchor="middle" x="184.25" y="-14.3" font-family="Times,serif" font-size="14.00">भ्रातृभिः(4.1)</text>
</g>
<!-- Node4_1&#45;&gt;Node7_1 -->
<g id="edge5" class="edge">
<title>Node4_1&#45;&gt;Node7_1</title>
<path fill="none" stroke="black" d="M203.07,-44.01C213.56,-57.94 226.34,-74.91 235.63,-87.24"/>
<polygon fill="black" stroke="black" points="205.7,-41.68 196.89,-35.79 200.11,-45.89 205.7,-41.68"/>
<text text-anchor="middle" x="236.25" y="-57.8" font-family="Times,serif" font-size="14.00">सहार्थः</text>
</g>
<!-- Node5_1 -->
<g id="node11" class="node">
<title>Node5_1</title>
<ellipse fill="#40e0d0" stroke="#40e0d0" cx="313.25" cy="-18" rx="55.49" ry="18"/>
<text text-anchor="middle" x="313.25" y="-14.3" font-family="Times,serif" font-size="14.00">पतिभिः(5.1)</text>
</g>
<!-- Node5_1&#45;&gt;Node7_1 -->
<g id="edge6" class="edge">
<title>Node5_1&#45;&gt;Node7_1</title>
<path fill="none" stroke="black" d="M294.12,-44.01C283.47,-57.94 270.49,-74.91 261.06,-87.24"/>
<polygon fill="black" stroke="black" points="297.11,-45.86 300.4,-35.79 291.55,-41.61 297.11,-45.86"/>
<text text-anchor="middle" x="301.25" y="-57.8" font-family="Times,serif" font-size="14.00">सहार्थः</text>
</g>
<!-- Node6_1 -->
<g id="node12" class="node">
<title>Node6_1</title>
<ellipse fill="#40e0d0" stroke="#40e0d0" cx="432.25" cy="-18" rx="45.49" ry="18"/>
<text text-anchor="middle" x="432.25" y="-14.3" font-family="Times,serif" font-size="14.00">सुतैः(6.1)</text>
</g>
<!-- Node6_1&#45;&gt;Node7_1 -->
<g id="edge7" class="edge">
<title>Node6_1&#45;&gt;Node7_1</title>
<path fill="none" stroke="black" d="M394.75,-36.32C360.76,-52.02 311.25,-74.89 279.39,-89.61"/>
<polygon fill="black" stroke="black" points="396.29,-39.47 403.9,-32.09 393.35,-33.11 396.29,-39.47"/>
<text text-anchor="middle" x="368.25" y="-57.8" font-family="Times,serif" font-size="14.00">सहार्थः</text>
</g>
<!-- Node12_1 -->
<g id="node13" class="node">
<title>Node12_1</title>
<ellipse fill="#93db70" stroke="#93db70" cx="452.25" cy="-279" rx="56.59" ry="18"/>
<text text-anchor="middle" x="452.25" y="-275.3" font-family="Times,serif" font-size="14.00">दुःखम्(12.1)</text>
</g>
<!-- Node12_1&#45;&gt;Node13_1 -->
<g id="edge13" class="edge">
<title>Node12_1&#45;&gt;Node13_1</title>
<path fill="none" stroke="black" d="M416.6,-299.93C389.39,-315.15 352.46,-335.8 327.57,-349.72"/>
<polygon fill="black" stroke="black" points="418.4,-302.94 425.42,-295 414.98,-296.83 418.4,-302.94"/>
<text text-anchor="middle" x="395.25" y="-318.8" font-family="Times,serif" font-size="14.00">कर्म</text>
</g>
</g>
</svg>
