<?xml version="1.0" encoding="UTF-8" standalone="no"?>
<!DOCTYPE svg PUBLIC "-//W3C//DTD SVG 1.1//EN"
 "http://www.w3.org/Graphics/SVG/1.1/DTD/svg11.dtd">
<!-- Generated by graphviz version 2.43.0 (0)
 -->
<!-- Title: G Pages: 1 -->
<svg width="779pt" height="392pt"
 viewBox="0.00 0.00 779.00 392.00" xmlns="http://www.w3.org/2000/svg" xmlns:xlink="http://www.w3.org/1999/xlink">
<g id="graph0" class="graph" transform="scale(1 1) rotate(0) translate(4 388)">
<title>G</title>
<polygon fill="#fffacd" stroke="transparent" points="-4,4 -4,-388 775,-388 775,4 -4,4"/>
<g id="clust1" class="cluster">
<title>cluster_1</title>
<polygon fill="#fffacd" stroke="black" points="150,-166 150,-305 763,-305 763,-166 150,-166"/>
</g>
<g id="clust2" class="cluster">
<title>cluster_2</title>
<polygon fill="#fffacd" stroke="black" points="8,-166 8,-305 142,-305 142,-166 8,-166"/>
</g>
<!-- Node1_3 -->
<g id="node1" class="node">
<title>Node1_3</title>
<ellipse fill="#00bfff" stroke="#00bfff" cx="329" cy="-192" rx="58.49" ry="18"/>
<text text-anchor="middle" x="329" y="-188.3" font-family="Times,serif" font-size="14.00">सम्पन्नाः(1.3)</text>
</g>
<!-- Node6_1 -->
<g id="node2" class="node">
<title>Node6_1</title>
<ellipse fill="#00bfff" stroke="#00bfff" cx="393" cy="-279" rx="42.49" ry="18"/>
<text text-anchor="middle" x="393" y="-275.3" font-family="Times,serif" font-size="14.00">ताः(6.1)</text>
</g>
<!-- Node1_3&#45;&gt;Node6_1 -->
<g id="edge3" class="edge">
<title>Node1_3&#45;&gt;Node6_1</title>
<path fill="none" stroke="black" d="M347.87,-218.06C358.44,-232.09 371.31,-249.19 380.6,-261.53"/>
<polygon fill="black" stroke="black" points="350.46,-215.68 341.64,-209.79 344.86,-219.89 350.46,-215.68"/>
<text text-anchor="middle" x="386.5" y="-231.8" font-family="Times,serif" font-size="14.00">विशेषणम्</text>
</g>
<!-- Node11_1 -->
<g id="node15" class="node">
<title>Node11_1</title>
<ellipse fill="#ff1975" stroke="#ff1975" cx="228" cy="-366" rx="57.69" ry="18"/>
<text text-anchor="middle" x="228" y="-362.3" font-family="Times,serif" font-size="14.00">प्रपेदिरे(11.1)</text>
</g>
<!-- Node6_1&#45;&gt;Node11_1 -->
<g id="edge11" class="edge">
<title>Node6_1&#45;&gt;Node11_1</title>
<path fill="none" stroke="black" d="M358.3,-297.88C328.12,-313.42 284.9,-335.69 256.65,-350.24"/>
<polygon fill="black" stroke="black" points="359.93,-300.97 367.22,-293.28 356.73,-294.75 359.93,-300.97"/>
<text text-anchor="middle" x="331" y="-318.8" font-family="Times,serif" font-size="14.00">कर्ता</text>
</g>
<!-- Node2_2 -->
<g id="node3" class="node">
<title>Node2_2</title>
<ellipse fill="#00bfff" stroke="#00bfff" cx="457" cy="-192" rx="51.99" ry="18"/>
<text text-anchor="middle" x="457" y="-188.3" font-family="Times,serif" font-size="14.00">मस्काः(2.2)</text>
</g>
<!-- Node2_2&#45;&gt;Node6_1 -->
<g id="edge5" class="edge">
<title>Node2_2&#45;&gt;Node6_1</title>
<path fill="none" stroke="black" d="M438.13,-218.06C427.56,-232.09 414.69,-249.19 405.4,-261.53"/>
<polygon fill="black" stroke="black" points="441.14,-219.89 444.36,-209.79 435.54,-215.68 441.14,-219.89"/>
<text text-anchor="middle" x="450.5" y="-231.8" font-family="Times,serif" font-size="14.00">विशेषणम्</text>
</g>
<!-- Node3_2 -->
<g id="node4" class="node">
<title>Node3_2</title>
<ellipse fill="#00bfff" stroke="#00bfff" cx="580" cy="-192" rx="52.79" ry="18"/>
<text text-anchor="middle" x="580" y="-188.3" font-family="Times,serif" font-size="14.00">क्लमाः(3.2)</text>
</g>
<!-- Node3_2&#45;&gt;Node6_1 -->
<g id="edge7" class="edge">
<title>Node3_2&#45;&gt;Node6_1</title>
<path fill="none" stroke="black" d="M542.66,-211.76C523.21,-221.38 498.96,-233.1 477,-243 459.14,-251.05 438.87,-259.51 422.72,-266.1"/>
<polygon fill="black" stroke="black" points="544.39,-214.81 551.79,-207.23 541.27,-208.54 544.39,-214.81"/>
<text text-anchor="middle" x="530.5" y="-231.8" font-family="Times,serif" font-size="14.00">विशेषणम्</text>
</g>
<!-- Node5_1 -->
<g id="node5" class="node">
<title>Node5_1</title>
<ellipse fill="#00bfff" stroke="#00bfff" cx="703" cy="-192" rx="51.99" ry="18"/>
<text text-anchor="middle" x="703" y="-188.3" font-family="Times,serif" font-size="14.00">युक्ताः(5.1)</text>
</g>
<!-- Node5_1&#45;&gt;Node6_1 -->
<g id="edge10" class="edge">
<title>Node5_1&#45;&gt;Node6_1</title>
<path fill="none" stroke="black" d="M659.68,-209.36C630.85,-219.87 591.99,-233.31 557,-243 514.35,-254.81 464.53,-264.93 431.09,-271.21"/>
<polygon fill="black" stroke="black" points="661.25,-212.51 669.43,-205.78 658.84,-205.94 661.25,-212.51"/>
<text text-anchor="middle" x="627.5" y="-231.8" font-family="Times,serif" font-size="14.00">विशेषणम्</text>
</g>
<!-- Node7_1 -->
<g id="node6" class="node">
<title>Node7_1</title>
<ellipse fill="#00bfff" stroke="#00bfff" cx="205" cy="-192" rx="47.39" ry="18"/>
<text text-anchor="middle" x="205" y="-188.3" font-family="Times,serif" font-size="14.00">सर्वाः(7.1)</text>
</g>
<!-- Node7_1&#45;&gt;Node6_1 -->
<g id="edge12" class="edge">
<title>Node7_1&#45;&gt;Node6_1</title>
<path fill="none" stroke="black" d="M241.5,-211.39C261.08,-221.09 285.71,-233.01 308,-243 326.06,-251.09 346.57,-259.56 362.91,-266.13"/>
<polygon fill="black" stroke="black" points="242.84,-208.15 232.33,-206.83 239.72,-214.42 242.84,-208.15"/>
<text text-anchor="middle" x="330.5" y="-231.8" font-family="Times,serif" font-size="14.00">विशेषणम्</text>
</g>
<!-- Node9_1 -->
<g id="node7" class="node">
<title>Node9_1</title>
<ellipse fill="#93db70" stroke="#93db70" cx="75" cy="-192" rx="45.49" ry="18"/>
<text text-anchor="middle" x="75" y="-188.3" font-family="Times,serif" font-size="14.00">स्वम्(9.1)</text>
</g>
<!-- Node10_1 -->
<g id="node8" class="node">
<title>Node10_1</title>
<ellipse fill="#93db70" stroke="#93db70" cx="75" cy="-279" rx="59.29" ry="18"/>
<text text-anchor="middle" x="75" y="-275.3" font-family="Times,serif" font-size="14.00">स्थानम्(10.1)</text>
</g>
<!-- Node9_1&#45;&gt;Node10_1 -->
<g id="edge14" class="edge">
<title>Node9_1&#45;&gt;Node10_1</title>
<path fill="none" stroke="black" d="M75,-220.27C75,-233.58 75,-249.19 75,-260.82"/>
<polygon fill="black" stroke="black" points="78.5,-220.2 75,-210.2 71.5,-220.2 78.5,-220.2"/>
<text text-anchor="middle" x="97.5" y="-231.8" font-family="Times,serif" font-size="14.00">विशेषणम्</text>
</g>
<!-- Node10_1&#45;&gt;Node11_1 -->
<g id="edge15" class="edge">
<title>Node10_1&#45;&gt;Node11_1</title>
<path fill="none" stroke="black" d="M111.27,-300.15C138.76,-315.42 175.94,-336.08 200.88,-349.94"/>
<polygon fill="black" stroke="black" points="112.79,-296.99 102.35,-295.2 109.4,-303.11 112.79,-296.99"/>
<text text-anchor="middle" x="170" y="-318.8" font-family="Times,serif" font-size="14.00">कर्म</text>
</g>
<!-- Node1_1 -->
<g id="node9" class="node">
<title>Node1_1</title>
<ellipse fill="#ffff00" stroke="#ffff00" cx="329" cy="-18" rx="49.29" ry="18"/>
<text text-anchor="middle" x="329" y="-14.3" font-family="Times,serif" font-size="14.00">शील&#45;(1.1)</text>
</g>
<!-- Node1_2 -->
<g id="node10" class="node">
<title>Node1_2</title>
<ellipse fill="#ffff00" stroke="#ffff00" cx="329" cy="-105" rx="49.29" ry="18"/>
<text text-anchor="middle" x="329" y="-101.3" font-family="Times,serif" font-size="14.00">सत्त्व&#45;(1.2)</text>
</g>
<!-- Node1_1&#45;&gt;Node1_2 -->
<g id="edge1" class="edge">
<title>Node1_1&#45;&gt;Node1_2</title>
<path fill="none" stroke="black" d="M329,-46.27C329,-59.58 329,-75.19 329,-86.82"/>
<polygon fill="black" stroke="black" points="332.5,-46.2 329,-36.2 325.5,-46.2 332.5,-46.2"/>
<text text-anchor="middle" x="346" y="-57.8" font-family="Times,serif" font-size="14.00">समासः</text>
</g>
<!-- Node1_2&#45;&gt;Node1_3 -->
<g id="edge2" class="edge">
<title>Node1_2&#45;&gt;Node1_3</title>
<path fill="none" stroke="black" d="M329,-133.27C329,-146.58 329,-162.19 329,-173.82"/>
<polygon fill="black" stroke="black" points="332.5,-133.2 329,-123.2 325.5,-133.2 332.5,-133.2"/>
<text text-anchor="middle" x="346" y="-144.8" font-family="Times,serif" font-size="14.00">समासः</text>
</g>
<!-- Node2_1 -->
<g id="node11" class="node">
<title>Node2_1</title>
<ellipse fill="#ffff00" stroke="#ffff00" cx="457" cy="-105" rx="46.59" ry="18"/>
<text text-anchor="middle" x="457" y="-101.3" font-family="Times,serif" font-size="14.00">वित&#45;(2.1)</text>
</g>
<!-- Node2_1&#45;&gt;Node2_2 -->
<g id="edge4" class="edge">
<title>Node2_1&#45;&gt;Node2_2</title>
<path fill="none" stroke="black" d="M457,-133.27C457,-146.58 457,-162.19 457,-173.82"/>
<polygon fill="black" stroke="black" points="460.5,-133.2 457,-123.2 453.5,-133.2 460.5,-133.2"/>
<text text-anchor="middle" x="474" y="-144.8" font-family="Times,serif" font-size="14.00">समासः</text>
</g>
<!-- Node3_1 -->
<g id="node12" class="node">
<title>Node3_1</title>
<ellipse fill="#ffff00" stroke="#ffff00" cx="580" cy="-105" rx="44.69" ry="18"/>
<text text-anchor="middle" x="580" y="-101.3" font-family="Times,serif" font-size="14.00">गत&#45;(3.1)</text>
</g>
<!-- Node3_1&#45;&gt;Node3_2 -->
<g id="edge6" class="edge">
<title>Node3_1&#45;&gt;Node3_2</title>
<path fill="none" stroke="black" d="M580,-133.27C580,-146.58 580,-162.19 580,-173.82"/>
<polygon fill="black" stroke="black" points="583.5,-133.2 580,-123.2 576.5,-133.2 583.5,-133.2"/>
<text text-anchor="middle" x="597" y="-144.8" font-family="Times,serif" font-size="14.00">समासः</text>
</g>
<!-- Node4_1 -->
<g id="node13" class="node">
<title>Node4_1</title>
<ellipse fill="#ffff00" stroke="#ffff00" cx="703" cy="-18" rx="45.49" ry="18"/>
<text text-anchor="middle" x="703" y="-14.3" font-family="Times,serif" font-size="14.00">सर्व&#45;(4.1)</text>
</g>
<!-- Node4_2 -->
<g id="node14" class="node">
<title>Node4_2</title>
<ellipse fill="#40e0d0" stroke="#40e0d0" cx="703" cy="-105" rx="46.29" ry="18"/>
<text text-anchor="middle" x="703" y="-101.3" font-family="Times,serif" font-size="14.00">गुणैः(4.2)</text>
</g>
<!-- Node4_1&#45;&gt;Node4_2 -->
<g id="edge8" class="edge">
<title>Node4_1&#45;&gt;Node4_2</title>
<path fill="none" stroke="black" d="M703,-46.27C703,-59.58 703,-75.19 703,-86.82"/>
<polygon fill="black" stroke="black" points="706.5,-46.2 703,-36.2 699.5,-46.2 706.5,-46.2"/>
<text text-anchor="middle" x="720" y="-57.8" font-family="Times,serif" font-size="14.00">समासः</text>
</g>
<!-- Node4_2&#45;&gt;Node5_1 -->
<g id="edge9" class="edge">
<title>Node4_2&#45;&gt;Node5_1</title>
<path fill="none" stroke="black" d="M703,-133.27C703,-146.58 703,-162.19 703,-173.82"/>
<polygon fill="black" stroke="black" points="706.5,-133.2 703,-123.2 699.5,-133.2 706.5,-133.2"/>
<text text-anchor="middle" x="714" y="-144.8" font-family="Times,serif" font-size="14.00">कर्ता</text>
</g>
<!-- Node8_1 -->
<g id="node16" class="node">
<title>Node8_1</title>
<ellipse fill="#93db70" stroke="#93db70" cx="75" cy="-105" rx="45.49" ry="18"/>
<text text-anchor="middle" x="75" y="-101.3" font-family="Times,serif" font-size="14.00">स्वम्(8.1)</text>
</g>
<!-- Node8_1&#45;&gt;Node9_1 -->
<g id="edge13" class="edge">
<title>Node8_1&#45;&gt;Node9_1</title>
<path fill="none" stroke="black" d="M75,-133.27C75,-146.58 75,-162.19 75,-173.82"/>
<polygon fill="black" stroke="black" points="78.5,-133.2 75,-123.2 71.5,-133.2 78.5,-133.2"/>
<text text-anchor="middle" x="89" y="-144.8" font-family="Times,serif" font-size="14.00">वीप्सा</text>
</g>
</g>
</svg>
