<?xml version="1.0" encoding="UTF-8" standalone="no"?>
<!DOCTYPE svg PUBLIC "-//W3C//DTD SVG 1.1//EN"
 "http://www.w3.org/Graphics/SVG/1.1/DTD/svg11.dtd">
<!-- Generated by graphviz version 2.43.0 (0)
 -->
<!-- Title: G Pages: 1 -->
<svg width="567pt" height="321pt"
 viewBox="0.00 0.00 566.60 321.00" xmlns="http://www.w3.org/2000/svg" xmlns:xlink="http://www.w3.org/1999/xlink">
<g id="graph0" class="graph" transform="scale(1 1) rotate(0) translate(4 317)">
<title>G</title>
<polygon fill="#fffacd" stroke="transparent" points="-4,4 -4,-317 562.6,-317 562.6,4 -4,4"/>
<g id="clust1" class="cluster">
<title>cluster_1</title>
<polygon fill="#fffacd" stroke="black" points="8,-8 8,-147 144,-147 144,-8 8,-8"/>
</g>
<!-- Node1_1 -->
<g id="node1" class="node">
<title>Node1_1</title>
<ellipse fill="#00bfff" stroke="#00bfff" cx="76" cy="-34" rx="59.59" ry="18"/>
<text text-anchor="middle" x="76" y="-30.3" font-family="Times,serif" font-size="14.00">श्रद्दधानाः(1.1)</text>
</g>
<!-- Node2_2 -->
<g id="node2" class="node">
<title>Node2_2</title>
<ellipse fill="#00bfff" stroke="#00bfff" cx="78" cy="-121" rx="58.49" ry="18"/>
<text text-anchor="middle" x="78" y="-117.3" font-family="Times,serif" font-size="14.00">अङ्गनाः(2.2)</text>
</g>
<!-- Node1_1&#45;&gt;Node2_2 -->
<g id="edge1" class="edge">
<title>Node1_1&#45;&gt;Node2_2</title>
<path fill="none" stroke="black" d="M76.64,-62.27C76.95,-75.58 77.32,-91.19 77.6,-102.82"/>
<polygon fill="black" stroke="black" points="80.14,-62.12 76.4,-52.2 73.14,-62.28 80.14,-62.12"/>
<text text-anchor="middle" x="100.5" y="-73.8" font-family="Times,serif" font-size="14.00">विशेषणम्</text>
</g>
<!-- Node10_1 -->
<g id="node4" class="node">
<title>Node10_1</title>
<ellipse fill="#ff1975" stroke="#ff1975" cx="266" cy="-295" rx="59.59" ry="18"/>
<text text-anchor="middle" x="266" y="-291.3" font-family="Times,serif" font-size="14.00">विविशुः(10.1)</text>
</g>
<!-- Node2_2&#45;&gt;Node10_1 -->
<g id="edge3" class="edge">
<title>Node2_2&#45;&gt;Node10_1</title>
<path fill="none" stroke="black" d="M103.3,-145.16C117.45,-158.21 135.33,-174.88 151,-190 167.28,-205.71 170.41,-210.61 187,-226 206.76,-244.34 230.28,-264.37 246.49,-277.9"/>
<polygon fill="black" stroke="black" points="105.59,-142.51 95.87,-138.31 100.85,-147.66 105.59,-142.51"/>
<text text-anchor="middle" x="198" y="-204.3" font-family="Times,serif" font-size="14.00">कर्ता</text>
</g>
<!-- Node8_1 -->
<g id="node5" class="node">
<title>Node8_1</title>
<ellipse fill="#ff99ff" stroke="#ff99ff" cx="78" cy="-208" rx="63.89" ry="18"/>
<text text-anchor="middle" x="78" y="-204.3" font-family="Times,serif" font-size="14.00">समनुज्ञाप्य(8.1)</text>
</g>
<!-- Node2_2&#45;&gt;Node8_1 -->
<g id="edge4" class="edge">
<title>Node2_2&#45;&gt;Node8_1</title>
<path fill="none" stroke="black" stroke-dasharray="1,5" d="M78,-149.27C78,-162.58 78,-178.19 78,-189.82"/>
<polygon fill="black" stroke="black" points="81.5,-149.2 78,-139.2 74.5,-149.2 81.5,-149.2"/>
<text text-anchor="middle" x="89" y="-160.8" font-family="Times,serif" font-size="14.00">कर्ता</text>
</g>
<!-- Node2_1 -->
<g id="node3" class="node">
<title>Node2_1</title>
<ellipse fill="#ffff00" stroke="#ffff00" cx="197" cy="-34" rx="42.79" ry="18"/>
<text text-anchor="middle" x="197" y="-30.3" font-family="Times,serif" font-size="14.00">वर&#45;(2.1)</text>
</g>
<!-- Node2_1&#45;&gt;Node2_2 -->
<g id="edge2" class="edge">
<title>Node2_1&#45;&gt;Node2_2</title>
<path fill="none" stroke="black" d="M168.05,-55.68C147.12,-70.63 119.26,-90.53 100.1,-104.21"/>
<polygon fill="black" stroke="black" points="170.17,-58.47 176.27,-49.81 166.1,-52.77 170.17,-58.47"/>
<text text-anchor="middle" x="161" y="-73.8" font-family="Times,serif" font-size="14.00">समासः</text>
</g>
<!-- Node8_1&#45;&gt;Node10_1 -->
<g id="edge10" class="edge">
<title>Node8_1&#45;&gt;Node10_1</title>
<path fill="none" stroke="black" d="M95.37,-233.93C102.9,-243.04 112.41,-252.67 123,-259 149.43,-274.81 182.66,-283.49 210.44,-288.25"/>
<polygon fill="black" stroke="black" points="97.96,-231.55 89.05,-225.8 92.43,-235.84 97.96,-231.55"/>
<text text-anchor="middle" x="143.5" y="-247.8" font-family="Times,serif" font-size="14.00">पूर्वकालः</text>
</g>
<!-- Node3_1 -->
<g id="node6" class="node">
<title>Node3_1</title>
<ellipse fill="#ff99ff" stroke="#ff99ff" cx="372" cy="-121" rx="44.39" ry="18"/>
<text text-anchor="middle" x="372" y="-117.3" font-family="Times,serif" font-size="14.00">ततः(3.1)</text>
</g>
<!-- Node6_1 -->
<g id="node7" class="node">
<title>Node6_1</title>
<ellipse fill="#ff99ff" stroke="#ff99ff" cx="266" cy="-208" rx="48.19" ry="18"/>
<text text-anchor="middle" x="266" y="-204.3" font-family="Times,serif" font-size="14.00">श्रुत्वा(6.1)</text>
</g>
<!-- Node3_1&#45;&gt;Node6_1 -->
<g id="edge5" class="edge">
<title>Node3_1&#45;&gt;Node6_1</title>
<path fill="none" stroke="black" d="M344.71,-143.88C326.11,-158.8 301.94,-178.18 285.32,-191.51"/>
<polygon fill="black" stroke="black" points="346.95,-146.58 352.56,-137.59 342.57,-141.12 346.95,-146.58"/>
<text text-anchor="middle" x="360.5" y="-160.8" font-family="Times,serif" font-size="14.00">कालाधिकरणम्</text>
</g>
<!-- Node6_1&#45;&gt;Node10_1 -->
<g id="edge8" class="edge">
<title>Node6_1&#45;&gt;Node10_1</title>
<path fill="none" stroke="black" d="M266,-236.27C266,-249.58 266,-265.19 266,-276.82"/>
<polygon fill="black" stroke="black" points="269.5,-236.2 266,-226.2 262.5,-236.2 269.5,-236.2"/>
<text text-anchor="middle" x="286.5" y="-247.8" font-family="Times,serif" font-size="14.00">पूर्वकालः</text>
</g>
<!-- Node4_1 -->
<g id="node8" class="node">
<title>Node4_1</title>
<ellipse fill="#87ceeb" stroke="#87ceeb" cx="304" cy="-34" rx="46.29" ry="18"/>
<text text-anchor="middle" x="304" y="-30.3" font-family="Times,serif" font-size="14.00">तस्य(4.1)</text>
</g>
<!-- Node5_1 -->
<g id="node9" class="node">
<title>Node5_1</title>
<ellipse fill="#93db70" stroke="#93db70" cx="266" cy="-121" rx="44.39" ry="18"/>
<text text-anchor="middle" x="266" y="-117.3" font-family="Times,serif" font-size="14.00">वचः(5.1)</text>
</g>
<!-- Node4_1&#45;&gt;Node5_1 -->
<g id="edge6" class="edge">
<title>Node4_1&#45;&gt;Node5_1</title>
<path fill="none" stroke="black" d="M292.29,-61.2C286.16,-74.9 278.85,-91.26 273.49,-103.24"/>
<polygon fill="black" stroke="black" points="295.61,-62.35 296.49,-51.79 289.22,-59.49 295.61,-62.35"/>
<text text-anchor="middle" x="314.5" y="-73.8" font-family="Times,serif" font-size="14.00">षष्ठीसम्बन्धः</text>
</g>
<!-- Node5_1&#45;&gt;Node6_1 -->
<g id="edge7" class="edge">
<title>Node5_1&#45;&gt;Node6_1</title>
<path fill="none" stroke="black" d="M266,-149.27C266,-162.58 266,-178.19 266,-189.82"/>
<polygon fill="black" stroke="black" points="269.5,-149.2 266,-139.2 262.5,-149.2 269.5,-149.2"/>
<text text-anchor="middle" x="275" y="-160.8" font-family="Times,serif" font-size="14.00">कर्म</text>
</g>
<!-- Node7_1 -->
<g id="node10" class="node">
<title>Node7_1</title>
<ellipse fill="#93db70" stroke="#93db70" cx="385" cy="-208" rx="52.79" ry="18"/>
<text text-anchor="middle" x="385" y="-204.3" font-family="Times,serif" font-size="14.00">श्वशुरम्(7.1)</text>
</g>
<!-- Node7_1&#45;&gt;Node10_1 -->
<g id="edge9" class="edge">
<title>Node7_1&#45;&gt;Node10_1</title>
<path fill="none" stroke="black" d="M354.98,-230.44C334.17,-245.31 306.92,-264.77 288.09,-278.22"/>
<polygon fill="black" stroke="black" points="357.07,-233.25 363.17,-224.59 353,-227.55 357.07,-233.25"/>
<text text-anchor="middle" x="341" y="-247.8" font-family="Times,serif" font-size="14.00">कर्म</text>
</g>
<!-- Node9_1 -->
<g id="node11" class="node">
<title>Node9_1</title>
<ellipse fill="#ffff00" stroke="#ffff00" cx="504" cy="-121" rx="54.69" ry="18"/>
<text text-anchor="middle" x="504" y="-117.3" font-family="Times,serif" font-size="14.00">जाह्नवी&#45;(9.1)</text>
</g>
<!-- Node9_2 -->
<g id="node12" class="node">
<title>Node9_2</title>
<ellipse fill="#93db70" stroke="#93db70" cx="504" cy="-208" rx="48.99" ry="18"/>
<text text-anchor="middle" x="504" y="-204.3" font-family="Times,serif" font-size="14.00">जलम्(9.2)</text>
</g>
<!-- Node9_1&#45;&gt;Node9_2 -->
<g id="edge11" class="edge">
<title>Node9_1&#45;&gt;Node9_2</title>
<path fill="none" stroke="black" d="M504,-149.27C504,-162.58 504,-178.19 504,-189.82"/>
<polygon fill="black" stroke="black" points="507.5,-149.2 504,-139.2 500.5,-149.2 507.5,-149.2"/>
<text text-anchor="middle" x="521" y="-160.8" font-family="Times,serif" font-size="14.00">समासः</text>
</g>
<!-- Node9_2&#45;&gt;Node10_1 -->
<g id="edge12" class="edge">
<title>Node9_2&#45;&gt;Node10_1</title>
<path fill="none" stroke="black" d="M460.66,-224.48C415.63,-240.56 345.89,-265.47 303.26,-280.69"/>
<polygon fill="black" stroke="black" points="461.91,-227.75 470.15,-221.09 459.56,-221.16 461.91,-227.75"/>
<text text-anchor="middle" x="408" y="-247.8" font-family="Times,serif" font-size="14.00">कर्म</text>
</g>
</g>
</svg>
