<?xml version="1.0" encoding="UTF-8" standalone="no"?>
<!DOCTYPE svg PUBLIC "-//W3C//DTD SVG 1.1//EN"
 "http://www.w3.org/Graphics/SVG/1.1/DTD/svg11.dtd">
<!-- Generated by graphviz version 2.43.0 (0)
 -->
<!-- Title: G Pages: 1 -->
<svg width="738pt" height="653pt"
 viewBox="0.00 0.00 737.74 653.00" xmlns="http://www.w3.org/2000/svg" xmlns:xlink="http://www.w3.org/1999/xlink">
<g id="graph0" class="graph" transform="scale(1 1) rotate(0) translate(4 649)">
<title>G</title>
<polygon fill="#fffacd" stroke="transparent" points="-4,4 -4,-649 733.74,-649 733.74,4 -4,4"/>
<!-- Node1_1 -->
<g id="node1" class="node">
<title>Node1_1</title>
<ellipse fill="#ffff00" stroke="#ffff00" cx="57.84" cy="-18" rx="46.29" ry="18"/>
<text text-anchor="middle" x="57.84" y="-14.3" font-family="Times,serif" font-size="14.00">भूत&#45;(1.1)</text>
</g>
<!-- Node1_2 -->
<g id="node2" class="node">
<title>Node1_2</title>
<ellipse fill="#ffff00" stroke="#ffff00" cx="57.84" cy="-105" rx="49.29" ry="18"/>
<text text-anchor="middle" x="57.84" y="-101.3" font-family="Times,serif" font-size="14.00">अधि&#45;(1.2)</text>
</g>
<!-- Node1_1&#45;&gt;Node1_2 -->
<g id="edge1" class="edge">
<title>Node1_1&#45;&gt;Node1_2</title>
<path fill="none" stroke="black" d="M57.84,-46.27C57.84,-59.58 57.84,-75.19 57.84,-86.82"/>
<polygon fill="black" stroke="black" points="61.34,-46.2 57.84,-36.2 54.34,-46.2 61.34,-46.2"/>
<text text-anchor="middle" x="74.84" y="-57.8" font-family="Times,serif" font-size="14.00">समासः</text>
</g>
<!-- Node1_3 -->
<g id="node3" class="node">
<title>Node1_3</title>
<ellipse fill="#ffff00" stroke="#ffff00" cx="57.84" cy="-192" rx="47.39" ry="18"/>
<text text-anchor="middle" x="57.84" y="-188.3" font-family="Times,serif" font-size="14.00">पति&#45;(1.3)</text>
</g>
<!-- Node1_2&#45;&gt;Node1_3 -->
<g id="edge2" class="edge">
<title>Node1_2&#45;&gt;Node1_3</title>
<path fill="none" stroke="black" d="M57.84,-133.27C57.84,-146.58 57.84,-162.19 57.84,-173.82"/>
<polygon fill="black" stroke="black" points="61.34,-133.2 57.84,-123.2 54.34,-133.2 61.34,-133.2"/>
<text text-anchor="middle" x="74.84" y="-144.8" font-family="Times,serif" font-size="14.00">समासः</text>
</g>
<!-- Node1_4 -->
<g id="node4" class="node">
<title>Node1_4</title>
<ellipse fill="#ffff00" stroke="#ffff00" cx="57.84" cy="-279" rx="40.89" ry="18"/>
<text text-anchor="middle" x="57.84" y="-275.3" font-family="Times,serif" font-size="14.00">सं&#45;(1.4)</text>
</g>
<!-- Node1_3&#45;&gt;Node1_4 -->
<g id="edge3" class="edge">
<title>Node1_3&#45;&gt;Node1_4</title>
<path fill="none" stroke="black" d="M57.84,-220.27C57.84,-233.58 57.84,-249.19 57.84,-260.82"/>
<polygon fill="black" stroke="black" points="61.34,-220.2 57.84,-210.2 54.34,-220.2 61.34,-220.2"/>
<text text-anchor="middle" x="74.84" y="-231.8" font-family="Times,serif" font-size="14.00">समासः</text>
</g>
<!-- Node1_5 -->
<g id="node5" class="node">
<title>Node1_5</title>
<ellipse fill="#b4ffb4" stroke="#b4ffb4" cx="57.84" cy="-366" rx="50.09" ry="18"/>
<text text-anchor="middle" x="57.84" y="-362.3" font-family="Times,serif" font-size="14.00">श्रयात्(1.5)</text>
</g>
<!-- Node1_4&#45;&gt;Node1_5 -->
<g id="edge4" class="edge">
<title>Node1_4&#45;&gt;Node1_5</title>
<path fill="none" stroke="black" d="M57.84,-307.27C57.84,-320.58 57.84,-336.19 57.84,-347.82"/>
<polygon fill="black" stroke="black" points="61.34,-307.2 57.84,-297.2 54.34,-307.2 61.34,-307.2"/>
<text text-anchor="middle" x="74.84" y="-318.8" font-family="Times,serif" font-size="14.00">समासः</text>
</g>
<!-- Node3_1 -->
<g id="node6" class="node">
<title>Node3_1</title>
<ellipse fill="#00bfff" stroke="#00bfff" cx="57.84" cy="-453" rx="57.69" ry="18"/>
<text text-anchor="middle" x="57.84" y="-449.3" font-family="Times,serif" font-size="14.00">नित्यानि(3.1)</text>
</g>
<!-- Node1_5&#45;&gt;Node3_1 -->
<g id="edge5" class="edge">
<title>Node1_5&#45;&gt;Node3_1</title>
<path fill="none" stroke="black" d="M57.84,-394.27C57.84,-407.58 57.84,-423.19 57.84,-434.82"/>
<polygon fill="black" stroke="black" points="61.34,-394.2 57.84,-384.2 54.34,-394.2 61.34,-394.2"/>
<text text-anchor="middle" x="67.34" y="-405.8" font-family="Times,serif" font-size="14.00">हेतुः</text>
</g>
<!-- Node2_2 -->
<g id="node8" class="node">
<title>Node2_2</title>
<ellipse fill="#00bfff" stroke="#00bfff" cx="118.84" cy="-540" rx="52.79" ry="18"/>
<text text-anchor="middle" x="118.84" y="-536.3" font-family="Times,serif" font-size="14.00">भूतानि(2.2)</text>
</g>
<!-- Node3_1&#45;&gt;Node2_2 -->
<g id="edge8" class="edge">
<title>Node3_1&#45;&gt;Node2_2</title>
<path fill="none" stroke="black" d="M67.65,-480.41C71.21,-488.36 75.65,-496.86 80.84,-504 85.91,-510.96 92.52,-517.63 98.8,-523.23"/>
<polygon fill="black" stroke="black" points="70.85,-478.99 63.77,-471.11 64.4,-481.69 70.85,-478.99"/>
<text text-anchor="middle" x="119.84" y="-492.8" font-family="Times,serif" font-size="14.00">विधेय_विशेषणम्</text>
</g>
<!-- Node2_1 -->
<g id="node7" class="node">
<title>Node2_1</title>
<ellipse fill="#ffff00" stroke="#ffff00" cx="180.84" cy="-453" rx="46.59" ry="18"/>
<text text-anchor="middle" x="180.84" y="-449.3" font-family="Times,serif" font-size="14.00">महा&#45;(2.1)</text>
</g>
<!-- Node2_1&#45;&gt;Node2_2 -->
<g id="edge6" class="edge">
<title>Node2_1&#45;&gt;Node2_2</title>
<path fill="none" stroke="black" d="M171.73,-480.5C168.34,-488.45 164.03,-496.93 158.84,-504 153.6,-511.14 146.67,-517.85 140.05,-523.44"/>
<polygon fill="black" stroke="black" points="174.99,-481.78 175.4,-471.19 168.48,-479.21 174.99,-481.78"/>
<text text-anchor="middle" x="184.84" y="-492.8" font-family="Times,serif" font-size="14.00">समासः</text>
</g>
<!-- Node4_1 -->
<g id="node9" class="node">
<title>Node4_1</title>
<ellipse fill="#ff1975" stroke="#ff1975" cx="118.84" cy="-627" rx="48.19" ry="18"/>
<text text-anchor="middle" x="118.84" y="-623.3" font-family="Times,serif" font-size="14.00">सन्ति(4.1)</text>
</g>
<!-- Node2_2&#45;&gt;Node4_1 -->
<g id="edge7" class="edge">
<title>Node2_2&#45;&gt;Node4_1</title>
<path fill="none" stroke="black" d="M118.84,-568.27C118.84,-581.58 118.84,-597.19 118.84,-608.82"/>
<polygon fill="black" stroke="black" points="122.34,-568.2 118.84,-558.2 115.34,-568.2 122.34,-568.2"/>
<text text-anchor="middle" x="129.84" y="-579.8" font-family="Times,serif" font-size="14.00">कर्ता</text>
</g>
<!-- Node5_1 -->
<g id="node10" class="node">
<title>Node5_1</title>
<ellipse fill="#ffff00" stroke="#ffff00" cx="176.84" cy="-18" rx="50.09" ry="18"/>
<text text-anchor="middle" x="176.84" y="-14.3" font-family="Times,serif" font-size="14.00">मरण&#45;(5.1)</text>
</g>
<!-- Node5_2 -->
<g id="node11" class="node">
<title>Node5_2</title>
<ellipse fill="#ffff00" stroke="#ffff00" cx="176.84" cy="-105" rx="46.29" ry="18"/>
<text text-anchor="middle" x="176.84" y="-101.3" font-family="Times,serif" font-size="14.00">अन&#45;(5.2)</text>
</g>
<!-- Node5_1&#45;&gt;Node5_2 -->
<g id="edge9" class="edge">
<title>Node5_1&#45;&gt;Node5_2</title>
<path fill="none" stroke="black" d="M176.84,-46.27C176.84,-59.58 176.84,-75.19 176.84,-86.82"/>
<polygon fill="black" stroke="black" points="180.34,-46.2 176.84,-36.2 173.34,-46.2 180.34,-46.2"/>
<text text-anchor="middle" x="193.84" y="-57.8" font-family="Times,serif" font-size="14.00">समासः</text>
</g>
<!-- Node5_3 -->
<g id="node12" class="node">
<title>Node5_3</title>
<ellipse fill="#00bfff" stroke="#00bfff" cx="176.84" cy="-192" rx="53.89" ry="18"/>
<text text-anchor="middle" x="176.84" y="-188.3" font-family="Times,serif" font-size="14.00">अन्तरम्(5.3)</text>
</g>
<!-- Node5_2&#45;&gt;Node5_3 -->
<g id="edge10" class="edge">
<title>Node5_2&#45;&gt;Node5_3</title>
<path fill="none" stroke="black" d="M176.84,-133.27C176.84,-146.58 176.84,-162.19 176.84,-173.82"/>
<polygon fill="black" stroke="black" points="180.34,-133.2 176.84,-123.2 173.34,-133.2 180.34,-133.2"/>
<text text-anchor="middle" x="193.84" y="-144.8" font-family="Times,serif" font-size="14.00">समासः</text>
</g>
<!-- Node8_2 -->
<g id="node13" class="node">
<title>Node8_2</title>
<ellipse fill="#ff1975" stroke="#ff1975" cx="295.84" cy="-279" rx="57.69" ry="18"/>
<text text-anchor="middle" x="295.84" y="-275.3" font-family="Times,serif" font-size="14.00">युज्यताम्(8.2)</text>
</g>
<!-- Node5_3&#45;&gt;Node8_2 -->
<g id="edge11" class="edge">
<title>Node5_3&#45;&gt;Node8_2</title>
<path fill="none" stroke="black" d="M199.73,-216.6C208.95,-225.45 219.96,-235.22 230.84,-243 241.59,-250.68 254.21,-257.84 265.45,-263.66"/>
<polygon fill="black" stroke="black" points="202.05,-213.97 192.46,-209.46 197.14,-218.96 202.05,-213.97"/>
<text text-anchor="middle" x="261.34" y="-231.8" font-family="Times,serif" font-size="14.00">अनन्तरकालः</text>
</g>
<!-- Node6_1 -->
<g id="node14" class="node">
<title>Node6_1</title>
<ellipse fill="#87ceeb" stroke="#87ceeb" cx="289.84" cy="-105" rx="44.39" ry="18"/>
<text text-anchor="middle" x="289.84" y="-101.3" font-family="Times,serif" font-size="14.00">तेषां(6.1)</text>
</g>
<!-- Node7_3 -->
<g id="node15" class="node">
<title>Node7_3</title>
<ellipse fill="#00bfff" stroke="#00bfff" cx="295.84" cy="-192" rx="47.39" ry="18"/>
<text text-anchor="middle" x="295.84" y="-188.3" font-family="Times,serif" font-size="14.00">वासः(7.3)</text>
</g>
<!-- Node6_1&#45;&gt;Node7_3 -->
<g id="edge12" class="edge">
<title>Node6_1&#45;&gt;Node7_3</title>
<path fill="none" stroke="black" d="M291.77,-133.27C292.71,-146.58 293.81,-162.19 294.63,-173.82"/>
<polygon fill="black" stroke="black" points="295.25,-132.93 291.06,-123.2 288.27,-133.42 295.25,-132.93"/>
<text text-anchor="middle" x="321.34" y="-144.8" font-family="Times,serif" font-size="14.00">षष्ठीसम्बन्धः</text>
</g>
<!-- Node7_3&#45;&gt;Node8_2 -->
<g id="edge15" class="edge">
<title>Node7_3&#45;&gt;Node8_2</title>
<path fill="none" stroke="black" d="M295.84,-220.27C295.84,-233.58 295.84,-249.19 295.84,-260.82"/>
<polygon fill="black" stroke="black" points="299.34,-220.2 295.84,-210.2 292.34,-220.2 299.34,-220.2"/>
<text text-anchor="middle" x="304.84" y="-231.8" font-family="Times,serif" font-size="14.00">कर्म</text>
</g>
<!-- Node7_1 -->
<g id="node16" class="node">
<title>Node7_1</title>
<ellipse fill="#ffff00" stroke="#ffff00" cx="392.84" cy="-18" rx="50.89" ry="18"/>
<text text-anchor="middle" x="392.84" y="-14.3" font-family="Times,serif" font-size="14.00">नित्य&#45;(7.1)</text>
</g>
<!-- Node7_2 -->
<g id="node17" class="node">
<title>Node7_2</title>
<ellipse fill="#ffff00" stroke="#ffff00" cx="392.84" cy="-105" rx="40.89" ry="18"/>
<text text-anchor="middle" x="392.84" y="-101.3" font-family="Times,serif" font-size="14.00">सं&#45;(7.2)</text>
</g>
<!-- Node7_1&#45;&gt;Node7_2 -->
<g id="edge13" class="edge">
<title>Node7_1&#45;&gt;Node7_2</title>
<path fill="none" stroke="black" d="M392.84,-46.27C392.84,-59.58 392.84,-75.19 392.84,-86.82"/>
<polygon fill="black" stroke="black" points="396.34,-46.2 392.84,-36.2 389.34,-46.2 396.34,-46.2"/>
<text text-anchor="middle" x="409.84" y="-57.8" font-family="Times,serif" font-size="14.00">समासः</text>
</g>
<!-- Node7_2&#45;&gt;Node7_3 -->
<g id="edge14" class="edge">
<title>Node7_2&#45;&gt;Node7_3</title>
<path fill="none" stroke="black" d="M375.77,-130.75C369.18,-139.31 361.22,-148.61 352.84,-156 343.79,-163.99 332.69,-171.27 322.69,-177.09"/>
<polygon fill="black" stroke="black" points="378.72,-132.64 381.86,-122.53 373.09,-128.48 378.72,-132.64"/>
<text text-anchor="middle" x="383.84" y="-144.8" font-family="Times,serif" font-size="14.00">समासः</text>
</g>
<!-- Node8_1 -->
<g id="node18" class="node">
<title>Node8_1</title>
<ellipse fill="#ffff00" stroke="#ffff00" cx="403.84" cy="-192" rx="42.49" ry="18"/>
<text text-anchor="middle" x="403.84" y="-188.3" font-family="Times,serif" font-size="14.00">वि&#45;(8.1)</text>
</g>
<!-- Node8_1&#45;&gt;Node8_2 -->
<g id="edge16" class="edge">
<title>Node8_1&#45;&gt;Node8_2</title>
<path fill="none" stroke="black" d="M376.61,-214.44C357.79,-229.25 333.17,-248.62 316.09,-262.07"/>
<polygon fill="black" stroke="black" points="378.84,-217.13 384.54,-208.2 374.51,-211.63 378.84,-217.13"/>
<text text-anchor="middle" x="373.84" y="-231.8" font-family="Times,serif" font-size="14.00">समासः</text>
</g>
<!-- Node9_1 -->
<g id="node19" class="node">
<title>Node9_1</title>
<ellipse fill="#87ceeb" stroke="#87ceeb" cx="512.84" cy="-18" rx="51.19" ry="18"/>
<text text-anchor="middle" x="512.84" y="-14.3" font-family="Times,serif" font-size="14.00">(तेषां)(9.1)</text>
</g>
<!-- Node10_2 -->
<g id="node20" class="node">
<title>Node10_2</title>
<ellipse fill="#00bfff" stroke="#00bfff" cx="571.84" cy="-105" rx="53.89" ry="18"/>
<text text-anchor="middle" x="571.84" y="-101.3" font-family="Times,serif" font-size="14.00">नाशः(10.2)</text>
</g>
<!-- Node9_1&#45;&gt;Node10_2 -->
<g id="edge17" class="edge">
<title>Node9_1&#45;&gt;Node10_2</title>
<path fill="none" stroke="black" d="M524.58,-44.86C528.66,-52.87 533.55,-61.55 538.84,-69 543.49,-75.54 549.29,-82.09 554.73,-87.73"/>
<polygon fill="black" stroke="black" points="527.72,-43.33 520.19,-35.88 521.43,-46.4 527.72,-43.33"/>
<text text-anchor="middle" x="566.34" y="-57.8" font-family="Times,serif" font-size="14.00">षष्ठीसम्बन्धः</text>
</g>
<!-- Node12_1 -->
<g id="node22" class="node">
<title>Node12_1</title>
<ellipse fill="#ff1975" stroke="#ff1975" cx="646.84" cy="-192" rx="62.29" ry="18"/>
<text text-anchor="middle" x="646.84" y="-188.3" font-family="Times,serif" font-size="14.00">(अस्ति)(12.1)</text>
</g>
<!-- Node10_2&#45;&gt;Node12_1 -->
<g id="edge19" class="edge">
<title>Node10_2&#45;&gt;Node12_1</title>
<path fill="none" stroke="black" d="M593.25,-130.26C605.7,-144.37 621.09,-161.81 632.17,-174.37"/>
<polygon fill="black" stroke="black" points="595.55,-127.57 586.31,-122.39 590.3,-132.2 595.55,-127.57"/>
<text text-anchor="middle" x="624.84" y="-144.8" font-family="Times,serif" font-size="14.00">कर्ता</text>
</g>
<!-- Node10_1 -->
<g id="node21" class="node">
<title>Node10_1</title>
<ellipse fill="#ffff00" stroke="#ffff00" cx="629.84" cy="-18" rx="48.19" ry="18"/>
<text text-anchor="middle" x="629.84" y="-14.3" font-family="Times,serif" font-size="14.00">वि&#45;(10.1)</text>
</g>
<!-- Node10_1&#45;&gt;Node10_2 -->
<g id="edge18" class="edge">
<title>Node10_1&#45;&gt;Node10_2</title>
<path fill="none" stroke="black" d="M612.51,-44.4C603.06,-58.26 591.62,-75.03 583.28,-87.24"/>
<polygon fill="black" stroke="black" points="615.64,-46.03 618.39,-35.79 609.86,-42.08 615.64,-46.03"/>
<text text-anchor="middle" x="621.84" y="-57.8" font-family="Times,serif" font-size="14.00">समासः</text>
</g>
<!-- Node11_1 -->
<g id="node23" class="node">
<title>Node11_1</title>
<ellipse fill="#ff99ff" stroke="#ff99ff" cx="686.84" cy="-105" rx="42.79" ry="18"/>
<text text-anchor="middle" x="686.84" y="-101.3" font-family="Times,serif" font-size="14.00">न(11.1)</text>
</g>
<!-- Node11_1&#45;&gt;Node12_1 -->
<g id="edge20" class="edge">
<title>Node11_1&#45;&gt;Node12_1</title>
<path fill="none" stroke="black" d="M674.55,-132.13C668.15,-145.73 660.5,-161.98 654.87,-173.95"/>
<polygon fill="black" stroke="black" points="677.85,-133.33 678.94,-122.79 671.52,-130.35 677.85,-133.33"/>
<text text-anchor="middle" x="688.34" y="-144.8" font-family="Times,serif" font-size="14.00">प्रतिषेधः</text>
</g>
</g>
</svg>
