<?xml version="1.0" encoding="UTF-8" standalone="no"?>
<!DOCTYPE svg PUBLIC "-//W3C//DTD SVG 1.1//EN"
 "http://www.w3.org/Graphics/SVG/1.1/DTD/svg11.dtd">
<!-- Generated by graphviz version 2.43.0 (0)
 -->
<!-- Title: G Pages: 1 -->
<svg width="681pt" height="495pt"
 viewBox="0.00 0.00 680.74 495.00" xmlns="http://www.w3.org/2000/svg" xmlns:xlink="http://www.w3.org/1999/xlink">
<g id="graph0" class="graph" transform="scale(1 1) rotate(0) translate(4 491)">
<title>G</title>
<polygon fill="#fffacd" stroke="transparent" points="-4,4 -4,-491 676.74,-491 676.74,4 -4,4"/>
<g id="clust1" class="cluster">
<title>cluster_1</title>
<polygon fill="#fffacd" stroke="black" points="121.54,-269 121.54,-408 223.54,-408 223.54,-269 121.54,-269"/>
</g>
<g id="clust2" class="cluster">
<title>cluster_2</title>
<polygon fill="#fffacd" stroke="black" points="320.54,-8 320.54,-147 446.54,-147 446.54,-8 320.54,-8"/>
</g>
<!-- Node1_4 -->
<g id="node1" class="node">
<title>Node1_4</title>
<ellipse fill="#00bfff" stroke="#00bfff" cx="171.54" cy="-295" rx="40.09" ry="18"/>
<text text-anchor="middle" x="171.54" y="-291.3" font-family="Times,serif" font-size="14.00">ज्ञः(1.4)</text>
</g>
<!-- Node3_1 -->
<g id="node2" class="node">
<title>Node3_1</title>
<ellipse fill="#00bfff" stroke="#00bfff" cx="172.54" cy="-382" rx="42.79" ry="18"/>
<text text-anchor="middle" x="172.54" y="-378.3" font-family="Times,serif" font-size="14.00">नरः(3.1)</text>
</g>
<!-- Node1_4&#45;&gt;Node3_1 -->
<g id="edge4" class="edge">
<title>Node1_4&#45;&gt;Node3_1</title>
<path fill="none" stroke="black" d="M171.87,-323.27C172.02,-336.58 172.21,-352.19 172.34,-363.82"/>
<polygon fill="black" stroke="black" points="175.36,-323.16 171.75,-313.2 168.37,-323.24 175.36,-323.16"/>
<text text-anchor="middle" x="195.04" y="-334.8" font-family="Times,serif" font-size="14.00">विशेषणम्</text>
</g>
<!-- Node7_1 -->
<g id="node9" class="node">
<title>Node7_1</title>
<ellipse fill="#ff1975" stroke="#ff1975" cx="105.54" cy="-469" rx="56.59" ry="18"/>
<text text-anchor="middle" x="105.54" y="-465.3" font-family="Times,serif" font-size="14.00">(भवति)(7.1)</text>
</g>
<!-- Node3_1&#45;&gt;Node7_1 -->
<g id="edge6" class="edge">
<title>Node3_1&#45;&gt;Node7_1</title>
<path fill="none" stroke="black" d="M153.43,-407.26C142.3,-421.37 128.56,-438.81 118.65,-451.37"/>
<polygon fill="black" stroke="black" points="156.18,-409.41 159.63,-399.39 150.69,-405.08 156.18,-409.41"/>
<text text-anchor="middle" x="154.54" y="-421.8" font-family="Times,serif" font-size="14.00">कर्ता</text>
</g>
<!-- Node9_1 -->
<g id="node3" class="node">
<title>Node9_1</title>
<ellipse fill="#93db70" stroke="#93db70" cx="383.54" cy="-34" rx="42.79" ry="18"/>
<text text-anchor="middle" x="383.54" y="-30.3" font-family="Times,serif" font-size="14.00">परां(9.1)</text>
</g>
<!-- Node10_1 -->
<g id="node4" class="node">
<title>Node10_1</title>
<ellipse fill="#93db70" stroke="#93db70" cx="383.54" cy="-121" rx="55.49" ry="18"/>
<text text-anchor="middle" x="383.54" y="-117.3" font-family="Times,serif" font-size="14.00">बुद्धिम्(10.1)</text>
</g>
<!-- Node9_1&#45;&gt;Node10_1 -->
<g id="edge14" class="edge">
<title>Node9_1&#45;&gt;Node10_1</title>
<path fill="none" stroke="black" d="M383.54,-62.27C383.54,-75.58 383.54,-91.19 383.54,-102.82"/>
<polygon fill="black" stroke="black" points="387.05,-62.2 383.54,-52.2 380.05,-62.2 387.05,-62.2"/>
<text text-anchor="middle" x="406.04" y="-73.8" font-family="Times,serif" font-size="14.00">विशेषणम्</text>
</g>
<!-- Node11_1 -->
<g id="node18" class="node">
<title>Node11_1</title>
<ellipse fill="#ff99ff" stroke="#ff99ff" cx="383.54" cy="-208" rx="58.49" ry="18"/>
<text text-anchor="middle" x="383.54" y="-204.3" font-family="Times,serif" font-size="14.00">स्पृष्ट्वा(11.1)</text>
</g>
<!-- Node10_1&#45;&gt;Node11_1 -->
<g id="edge15" class="edge">
<title>Node10_1&#45;&gt;Node11_1</title>
<path fill="none" stroke="black" d="M383.54,-149.27C383.54,-162.58 383.54,-178.19 383.54,-189.82"/>
<polygon fill="black" stroke="black" points="387.05,-149.2 383.54,-139.2 380.05,-149.2 387.05,-149.2"/>
<text text-anchor="middle" x="392.54" y="-160.8" font-family="Times,serif" font-size="14.00">कर्म</text>
</g>
<!-- Node1_1 -->
<g id="node5" class="node">
<title>Node1_1</title>
<ellipse fill="#ffff00" stroke="#ffff00" cx="170.54" cy="-34" rx="43.59" ry="18"/>
<text text-anchor="middle" x="170.54" y="-30.3" font-family="Times,serif" font-size="14.00">पर&#45;(1.1)</text>
</g>
<!-- Node1_2 -->
<g id="node6" class="node">
<title>Node1_2</title>
<ellipse fill="#ffff00" stroke="#ffff00" cx="170.54" cy="-121" rx="41.69" ry="18"/>
<text text-anchor="middle" x="170.54" y="-117.3" font-family="Times,serif" font-size="14.00">अ&#45;(1.2)</text>
</g>
<!-- Node1_1&#45;&gt;Node1_2 -->
<g id="edge1" class="edge">
<title>Node1_1&#45;&gt;Node1_2</title>
<path fill="none" stroke="black" d="M170.54,-62.27C170.54,-75.58 170.54,-91.19 170.54,-102.82"/>
<polygon fill="black" stroke="black" points="174.05,-62.2 170.54,-52.2 167.05,-62.2 174.05,-62.2"/>
<text text-anchor="middle" x="187.54" y="-73.8" font-family="Times,serif" font-size="14.00">समासः</text>
</g>
<!-- Node1_3 -->
<g id="node7" class="node">
<title>Node1_3</title>
<ellipse fill="#ffff00" stroke="#ffff00" cx="170.54" cy="-208" rx="43.59" ry="18"/>
<text text-anchor="middle" x="170.54" y="-204.3" font-family="Times,serif" font-size="14.00">पर&#45;(1.3)</text>
</g>
<!-- Node1_2&#45;&gt;Node1_3 -->
<g id="edge2" class="edge">
<title>Node1_2&#45;&gt;Node1_3</title>
<path fill="none" stroke="black" d="M170.54,-149.27C170.54,-162.58 170.54,-178.19 170.54,-189.82"/>
<polygon fill="black" stroke="black" points="174.05,-149.2 170.54,-139.2 167.05,-149.2 174.05,-149.2"/>
<text text-anchor="middle" x="187.54" y="-160.8" font-family="Times,serif" font-size="14.00">समासः</text>
</g>
<!-- Node1_3&#45;&gt;Node1_4 -->
<g id="edge3" class="edge">
<title>Node1_3&#45;&gt;Node1_4</title>
<path fill="none" stroke="black" d="M170.87,-236.27C171.02,-249.58 171.21,-265.19 171.34,-276.82"/>
<polygon fill="black" stroke="black" points="174.36,-236.16 170.75,-226.2 167.37,-236.24 174.36,-236.16"/>
<text text-anchor="middle" x="188.54" y="-247.8" font-family="Times,serif" font-size="14.00">समासः</text>
</g>
<!-- Node2_1 -->
<g id="node8" class="node">
<title>Node2_1</title>
<ellipse fill="#ff99ff" stroke="#ff99ff" cx="269.54" cy="-208" rx="37.09" ry="18"/>
<text text-anchor="middle" x="269.54" y="-204.3" font-family="Times,serif" font-size="14.00">तु(2.1)</text>
</g>
<!-- Node2_1&#45;&gt;Node1_4 -->
<g id="edge5" class="edge">
<title>Node2_1&#45;&gt;Node1_4</title>
<path fill="none" stroke="black" d="M244.03,-231.13C226.82,-246.06 204.53,-265.39 189.24,-278.65"/>
<polygon fill="black" stroke="black" points="246.76,-233.39 252.02,-224.2 242.18,-228.1 246.76,-233.39"/>
<text text-anchor="middle" x="244.04" y="-247.8" font-family="Times,serif" font-size="14.00">सम्बन्धः</text>
</g>
<!-- Node4_1 -->
<g id="node10" class="node">
<title>Node4_1</title>
<ellipse fill="#ff99ff" stroke="#ff99ff" cx="74.54" cy="-382" rx="37.09" ry="18"/>
<text text-anchor="middle" x="74.54" y="-378.3" font-family="Times,serif" font-size="14.00">न(4.1)</text>
</g>
<!-- Node4_1&#45;&gt;Node7_1 -->
<g id="edge7" class="edge">
<title>Node4_1&#45;&gt;Node7_1</title>
<path fill="none" stroke="black" d="M84.22,-409.53C89.15,-423.05 95,-439.09 99.33,-450.95"/>
<polygon fill="black" stroke="black" points="87.38,-407.99 80.67,-399.79 80.81,-410.39 87.38,-407.99"/>
<text text-anchor="middle" x="112.04" y="-421.8" font-family="Times,serif" font-size="14.00">प्रतिषेधः</text>
</g>
<!-- Node5_1 -->
<g id="node11" class="node">
<title>Node5_1</title>
<ellipse fill="#ffff00" stroke="#ffff00" cx="56.54" cy="-121" rx="50.09" ry="18"/>
<text text-anchor="middle" x="56.54" y="-117.3" font-family="Times,serif" font-size="14.00">अभि&#45;(5.1)</text>
</g>
<!-- Node5_2 -->
<g id="node12" class="node">
<title>Node5_2</title>
<ellipse fill="#b4ffb4" stroke="#b4ffb4" cx="56.54" cy="-208" rx="51.99" ry="18"/>
<text text-anchor="middle" x="56.54" y="-204.3" font-family="Times,serif" font-size="14.00">मानात्(5.2)</text>
</g>
<!-- Node5_1&#45;&gt;Node5_2 -->
<g id="edge8" class="edge">
<title>Node5_1&#45;&gt;Node5_2</title>
<path fill="none" stroke="black" d="M56.54,-149.27C56.54,-162.58 56.54,-178.19 56.54,-189.82"/>
<polygon fill="black" stroke="black" points="60.05,-149.2 56.54,-139.2 53.05,-149.2 60.05,-149.2"/>
<text text-anchor="middle" x="73.54" y="-160.8" font-family="Times,serif" font-size="14.00">समासः</text>
</g>
<!-- Node6_1 -->
<g id="node13" class="node">
<title>Node6_1</title>
<ellipse fill="#00bfff" stroke="#00bfff" cx="56.54" cy="-295" rx="56.59" ry="18"/>
<text text-anchor="middle" x="56.54" y="-291.3" font-family="Times,serif" font-size="14.00">उदीरितः(6.1)</text>
</g>
<!-- Node5_2&#45;&gt;Node6_1 -->
<g id="edge9" class="edge">
<title>Node5_2&#45;&gt;Node6_1</title>
<path fill="none" stroke="black" d="M56.54,-236.27C56.54,-249.58 56.54,-265.19 56.54,-276.82"/>
<polygon fill="black" stroke="black" points="60.05,-236.2 56.54,-226.2 53.05,-236.2 60.05,-236.2"/>
<text text-anchor="middle" x="66.04" y="-247.8" font-family="Times,serif" font-size="14.00">हेतुः</text>
</g>
<!-- Node6_1&#45;&gt;Node3_1 -->
<g id="edge10" class="edge">
<title>Node6_1&#45;&gt;Node3_1</title>
<path fill="none" stroke="black" d="M70.09,-321.78C75.55,-330.34 82.48,-339.37 90.54,-346 98.73,-352.74 121.64,-362.29 141.17,-369.71"/>
<polygon fill="black" stroke="black" points="73.08,-319.95 64.95,-313.15 67.06,-323.54 73.08,-319.95"/>
<text text-anchor="middle" x="129.54" y="-334.8" font-family="Times,serif" font-size="14.00">विधेय_विशेषणम्</text>
</g>
<!-- Node8_1 -->
<g id="node14" class="node">
<title>Node8_1</title>
<ellipse fill="#ffff00" stroke="#ffff00" cx="500.54" cy="-34" rx="41.69" ry="18"/>
<text text-anchor="middle" x="500.54" y="-30.3" font-family="Times,serif" font-size="14.00">अ&#45;(8.1)</text>
</g>
<!-- Node8_2 -->
<g id="node15" class="node">
<title>Node8_2</title>
<ellipse fill="#ffff00" stroke="#ffff00" cx="500.54" cy="-121" rx="43.59" ry="18"/>
<text text-anchor="middle" x="500.54" y="-117.3" font-family="Times,serif" font-size="14.00">पर&#45;(8.2)</text>
</g>
<!-- Node8_1&#45;&gt;Node8_2 -->
<g id="edge11" class="edge">
<title>Node8_1&#45;&gt;Node8_2</title>
<path fill="none" stroke="black" d="M500.54,-62.27C500.54,-75.58 500.54,-91.19 500.54,-102.82"/>
<polygon fill="black" stroke="black" points="504.05,-62.2 500.54,-52.2 497.05,-62.2 504.05,-62.2"/>
<text text-anchor="middle" x="517.54" y="-73.8" font-family="Times,serif" font-size="14.00">समासः</text>
</g>
<!-- Node8_3 -->
<g id="node16" class="node">
<title>Node8_3</title>
<ellipse fill="#00bfff" stroke="#00bfff" cx="500.54" cy="-208" rx="40.09" ry="18"/>
<text text-anchor="middle" x="500.54" y="-204.3" font-family="Times,serif" font-size="14.00">ज्ञः(8.3)</text>
</g>
<!-- Node8_2&#45;&gt;Node8_3 -->
<g id="edge12" class="edge">
<title>Node8_2&#45;&gt;Node8_3</title>
<path fill="none" stroke="black" d="M500.54,-149.27C500.54,-162.58 500.54,-178.19 500.54,-189.82"/>
<polygon fill="black" stroke="black" points="504.05,-149.2 500.54,-139.2 497.05,-149.2 504.05,-149.2"/>
<text text-anchor="middle" x="517.54" y="-160.8" font-family="Times,serif" font-size="14.00">समासः</text>
</g>
<!-- Node13_1 -->
<g id="node17" class="node">
<title>Node13_1</title>
<ellipse fill="#ff1975" stroke="#ff1975" cx="500.54" cy="-295" rx="63.09" ry="18"/>
<text text-anchor="middle" x="500.54" y="-291.3" font-family="Times,serif" font-size="14.00">विमुच्यते(13.1)</text>
</g>
<!-- Node8_3&#45;&gt;Node13_1 -->
<g id="edge13" class="edge">
<title>Node8_3&#45;&gt;Node13_1</title>
<path fill="none" stroke="black" d="M500.54,-236.27C500.54,-249.58 500.54,-265.19 500.54,-276.82"/>
<polygon fill="black" stroke="black" points="504.05,-236.2 500.54,-226.2 497.05,-236.2 504.05,-236.2"/>
<text text-anchor="middle" x="511.54" y="-247.8" font-family="Times,serif" font-size="14.00">कर्ता</text>
</g>
<!-- Node11_1&#45;&gt;Node13_1 -->
<g id="edge16" class="edge">
<title>Node11_1&#45;&gt;Node13_1</title>
<path fill="none" stroke="black" d="M413.56,-230.81C433.85,-245.54 460.18,-264.67 478.53,-278.01"/>
<polygon fill="black" stroke="black" points="415.43,-227.83 405.28,-224.79 411.31,-233.5 415.43,-227.83"/>
<text text-anchor="middle" x="469.04" y="-247.8" font-family="Times,serif" font-size="14.00">पूर्वकालः</text>
</g>
<!-- Node12_1 -->
<g id="node19" class="node">
<title>Node12_1</title>
<ellipse fill="#b4ffb4" stroke="#b4ffb4" cx="615.54" cy="-208" rx="57.39" ry="18"/>
<text text-anchor="middle" x="615.54" y="-204.3" font-family="Times,serif" font-size="14.00">मोहात्(12.1)</text>
</g>
<!-- Node12_1&#45;&gt;Node13_1 -->
<g id="edge17" class="edge">
<title>Node12_1&#45;&gt;Node13_1</title>
<path fill="none" stroke="black" d="M586.04,-230.81C566.1,-245.54 540.22,-264.67 522.18,-278.01"/>
<polygon fill="black" stroke="black" points="588.22,-233.55 594.18,-224.79 584.06,-227.92 588.22,-233.55"/>
<text text-anchor="middle" x="588.04" y="-247.8" font-family="Times,serif" font-size="14.00">अपादानम्</text>
</g>
</g>
</svg>
