<?xml version="1.0" encoding="UTF-8" standalone="no"?>
<!DOCTYPE svg PUBLIC "-//W3C//DTD SVG 1.1//EN"
 "http://www.w3.org/Graphics/SVG/1.1/DTD/svg11.dtd">
<!-- Generated by graphviz version 2.43.0 (0)
 -->
<!-- Title: G Pages: 1 -->
<svg width="632pt" height="392pt"
 viewBox="0.00 0.00 631.79 392.00" xmlns="http://www.w3.org/2000/svg" xmlns:xlink="http://www.w3.org/1999/xlink">
<g id="graph0" class="graph" transform="scale(1 1) rotate(0) translate(4 388)">
<title>G</title>
<polygon fill="#fffacd" stroke="transparent" points="-4,4 -4,-388 627.79,-388 627.79,4 -4,4"/>
<!-- Node1_1 -->
<g id="node1" class="node">
<title>Node1_1</title>
<ellipse fill="#ffff00" stroke="#ffff00" cx="56.54" cy="-18" rx="41.69" ry="18"/>
<text text-anchor="middle" x="56.54" y="-14.3" font-family="Times,serif" font-size="14.00">अ&#45;(1.1)</text>
</g>
<!-- Node1_2 -->
<g id="node2" class="node">
<title>Node1_2</title>
<ellipse fill="#b0e2ff" stroke="#b0e2ff" cx="56.54" cy="-105" rx="52.79" ry="18"/>
<text text-anchor="middle" x="56.54" y="-101.3" font-family="Times,serif" font-size="14.00">नाशाय(1.2)</text>
</g>
<!-- Node1_1&#45;&gt;Node1_2 -->
<g id="edge1" class="edge">
<title>Node1_1&#45;&gt;Node1_2</title>
<path fill="none" stroke="black" d="M56.54,-46.27C56.54,-59.58 56.54,-75.19 56.54,-86.82"/>
<polygon fill="black" stroke="black" points="60.05,-46.2 56.54,-36.2 53.05,-46.2 60.05,-46.2"/>
<text text-anchor="middle" x="73.54" y="-57.8" font-family="Times,serif" font-size="14.00">समासः</text>
</g>
<!-- Node3_1 -->
<g id="node3" class="node">
<title>Node3_1</title>
<ellipse fill="#00bfff" stroke="#00bfff" cx="56.54" cy="-192" rx="48.19" ry="18"/>
<text text-anchor="middle" x="56.54" y="-188.3" font-family="Times,serif" font-size="14.00">कृतम्(3.1)</text>
</g>
<!-- Node1_2&#45;&gt;Node3_1 -->
<g id="edge2" class="edge">
<title>Node1_2&#45;&gt;Node3_1</title>
<path fill="none" stroke="black" d="M56.54,-133.27C56.54,-146.58 56.54,-162.19 56.54,-173.82"/>
<polygon fill="black" stroke="black" points="60.05,-133.2 56.54,-123.2 53.05,-133.2 60.05,-133.2"/>
<text text-anchor="middle" x="82.54" y="-144.8" font-family="Times,serif" font-size="14.00">प्रयोजनम्1</text>
</g>
<!-- Node2_1 -->
<g id="node4" class="node">
<title>Node2_1</title>
<ellipse fill="#00bfff" stroke="#00bfff" cx="56.54" cy="-279" rx="43.59" ry="18"/>
<text text-anchor="middle" x="56.54" y="-275.3" font-family="Times,serif" font-size="14.00">कर्म(2.1)</text>
</g>
<!-- Node3_1&#45;&gt;Node2_1 -->
<g id="edge4" class="edge">
<title>Node3_1&#45;&gt;Node2_1</title>
<path fill="none" stroke="black" d="M56.54,-220.27C56.54,-233.58 56.54,-249.19 56.54,-260.82"/>
<polygon fill="black" stroke="black" points="60.05,-220.2 56.54,-210.2 53.05,-220.2 60.05,-220.2"/>
<text text-anchor="middle" x="95.54" y="-231.8" font-family="Times,serif" font-size="14.00">विधेय_विशेषणम्</text>
</g>
<!-- Node4_1 -->
<g id="node5" class="node">
<title>Node4_1</title>
<ellipse fill="#ff1975" stroke="#ff1975" cx="56.54" cy="-366" rx="56.59" ry="18"/>
<text text-anchor="middle" x="56.54" y="-362.3" font-family="Times,serif" font-size="14.00">(अस्ति)(4.1)</text>
</g>
<!-- Node2_1&#45;&gt;Node4_1 -->
<g id="edge3" class="edge">
<title>Node2_1&#45;&gt;Node4_1</title>
<path fill="none" stroke="black" d="M56.54,-307.27C56.54,-320.58 56.54,-336.19 56.54,-347.82"/>
<polygon fill="black" stroke="black" points="60.05,-307.2 56.54,-297.2 53.05,-307.2 60.05,-307.2"/>
<text text-anchor="middle" x="67.54" y="-318.8" font-family="Times,serif" font-size="14.00">कर्ता</text>
</g>
<!-- Node5_1 -->
<g id="node6" class="node">
<title>Node5_1</title>
<ellipse fill="#87ceeb" stroke="#87ceeb" cx="171.54" cy="-18" rx="46.29" ry="18"/>
<text text-anchor="middle" x="171.54" y="-14.3" font-family="Times,serif" font-size="14.00">तस्य(5.1)</text>
</g>
<!-- Node6_1 -->
<g id="node7" class="node">
<title>Node6_1</title>
<ellipse fill="#00bfff" stroke="#00bfff" cx="179.54" cy="-105" rx="44.69" ry="18"/>
<text text-anchor="middle" x="179.54" y="-101.3" font-family="Times,serif" font-size="14.00">चेष्टः(6.1)</text>
</g>
<!-- Node5_1&#45;&gt;Node6_1 -->
<g id="edge5" class="edge">
<title>Node5_1&#45;&gt;Node6_1</title>
<path fill="none" stroke="black" d="M174.11,-46.27C175.36,-59.58 176.83,-75.19 177.93,-86.82"/>
<polygon fill="black" stroke="black" points="177.59,-45.83 173.16,-36.2 170.62,-46.49 177.59,-45.83"/>
<text text-anchor="middle" x="204.04" y="-57.8" font-family="Times,serif" font-size="14.00">षष्ठीसम्बन्धः</text>
</g>
<!-- Node8_1 -->
<g id="node8" class="node">
<title>Node8_1</title>
<ellipse fill="#ff1975" stroke="#ff1975" cx="179.54" cy="-192" rx="56.59" ry="18"/>
<text text-anchor="middle" x="179.54" y="-188.3" font-family="Times,serif" font-size="14.00">(अस्ति)(8.1)</text>
</g>
<!-- Node6_1&#45;&gt;Node8_1 -->
<g id="edge6" class="edge">
<title>Node6_1&#45;&gt;Node8_1</title>
<path fill="none" stroke="black" d="M179.54,-133.27C179.54,-146.58 179.54,-162.19 179.54,-173.82"/>
<polygon fill="black" stroke="black" points="183.05,-133.2 179.54,-123.2 176.05,-133.2 183.05,-133.2"/>
<text text-anchor="middle" x="190.54" y="-144.8" font-family="Times,serif" font-size="14.00">कर्ता</text>
</g>
<!-- Node7_1 -->
<g id="node9" class="node">
<title>Node7_1</title>
<ellipse fill="#00bfff" stroke="#00bfff" cx="295.54" cy="-18" rx="59.59" ry="18"/>
<text text-anchor="middle" x="295.54" y="-14.3" font-family="Times,serif" font-size="14.00">फलागमः(7.1)</text>
</g>
<!-- Node7_1&#45;&gt;Node6_1 -->
<g id="edge7" class="edge">
<title>Node7_1&#45;&gt;Node6_1</title>
<path fill="none" stroke="black" d="M269.57,-41.96C259.23,-50.75 247.07,-60.65 235.54,-69 225.52,-76.26 213.98,-83.63 204,-89.71"/>
<polygon fill="black" stroke="black" points="272.12,-44.39 277.42,-35.21 267.55,-39.08 272.12,-44.39"/>
<text text-anchor="middle" x="293.54" y="-57.8" font-family="Times,serif" font-size="14.00">विधेय_विशेषणम्</text>
</g>
<!-- Node9_1 -->
<g id="node10" class="node">
<title>Node9_1</title>
<ellipse fill="#00bfff" stroke="#00bfff" cx="429.54" cy="-192" rx="50.09" ry="18"/>
<text text-anchor="middle" x="429.54" y="-188.3" font-family="Times,serif" font-size="14.00">आत्मा(9.1)</text>
</g>
<!-- Node14_1 -->
<g id="node11" class="node">
<title>Node14_1</title>
<ellipse fill="#ff1975" stroke="#ff1975" cx="347.54" cy="-279" rx="63.09" ry="18"/>
<text text-anchor="middle" x="347.54" y="-275.3" font-family="Times,serif" font-size="14.00">उपाश्नुते(14.1)</text>
</g>
<!-- Node9_1&#45;&gt;Node14_1 -->
<g id="edge8" class="edge">
<title>Node9_1&#45;&gt;Node14_1</title>
<path fill="none" stroke="black" d="M406.53,-216.86C392.84,-231.05 375.82,-248.69 363.59,-261.37"/>
<polygon fill="black" stroke="black" points="409.31,-219.02 413.73,-209.39 404.27,-214.16 409.31,-219.02"/>
<text text-anchor="middle" x="404.54" y="-231.8" font-family="Times,serif" font-size="14.00">कर्ता</text>
</g>
<!-- Node10_1 -->
<g id="node12" class="node">
<title>Node10_1</title>
<ellipse fill="#ff99ff" stroke="#ff99ff" cx="425.54" cy="-105" rx="43.59" ry="18"/>
<text text-anchor="middle" x="425.54" y="-101.3" font-family="Times,serif" font-size="14.00">च(10.1)</text>
</g>
<!-- Node10_1&#45;&gt;Node9_1 -->
<g id="edge9" class="edge">
<title>Node10_1&#45;&gt;Node9_1</title>
<path fill="none" stroke="black" d="M426.83,-133.27C427.45,-146.58 428.19,-162.19 428.74,-173.82"/>
<polygon fill="black" stroke="black" points="430.32,-133.03 426.35,-123.2 423.33,-133.35 430.32,-133.03"/>
<text text-anchor="middle" x="447.04" y="-144.8" font-family="Times,serif" font-size="14.00">सम्बन्धः</text>
</g>
<!-- Node11_1 -->
<g id="node13" class="node">
<title>Node11_1</title>
<ellipse fill="#40e0d0" stroke="#40e0d0" cx="555.54" cy="-18" rx="53.89" ry="18"/>
<text text-anchor="middle" x="555.54" y="-14.3" font-family="Times,serif" font-size="14.00">एभिः(11.1)</text>
</g>
<!-- Node12_1 -->
<g id="node14" class="node">
<title>Node12_1</title>
<ellipse fill="#00bfff" stroke="#00bfff" cx="555.54" cy="-105" rx="68.49" ry="18"/>
<text text-anchor="middle" x="555.54" y="-101.3" font-family="Times,serif" font-size="14.00">समायुक्तः(12.1)</text>
</g>
<!-- Node11_1&#45;&gt;Node12_1 -->
<g id="edge10" class="edge">
<title>Node11_1&#45;&gt;Node12_1</title>
<path fill="none" stroke="black" d="M555.54,-46.27C555.54,-59.58 555.54,-75.19 555.54,-86.82"/>
<polygon fill="black" stroke="black" points="559.05,-46.2 555.54,-36.2 552.05,-46.2 559.05,-46.2"/>
<text text-anchor="middle" x="571.54" y="-57.8" font-family="Times,serif" font-size="14.00">सहार्थः</text>
</g>
<!-- Node12_1&#45;&gt;Node9_1 -->
<g id="edge11" class="edge">
<title>Node12_1&#45;&gt;Node9_1</title>
<path fill="none" stroke="black" d="M523.39,-127.69C501.17,-142.68 472.14,-162.27 452.29,-175.66"/>
<polygon fill="black" stroke="black" points="525.51,-130.48 531.85,-121.99 521.6,-124.68 525.51,-130.48"/>
<text text-anchor="middle" x="539.54" y="-144.8" font-family="Times,serif" font-size="14.00">विधेय_विशेषणम्</text>
</g>
<!-- Node13_1 -->
<g id="node15" class="node">
<title>Node13_1</title>
<ellipse fill="#ffff00" stroke="#ffff00" cx="307.54" cy="-105" rx="53.89" ry="18"/>
<text text-anchor="middle" x="307.54" y="-101.3" font-family="Times,serif" font-size="14.00">सुख&#45;(13.1)</text>
</g>
<!-- Node13_2 -->
<g id="node16" class="node">
<title>Node13_2</title>
<ellipse fill="#93db70" stroke="#93db70" cx="307.54" cy="-192" rx="53.89" ry="18"/>
<text text-anchor="middle" x="307.54" y="-188.3" font-family="Times,serif" font-size="14.00">दुखम्(13.2)</text>
</g>
<!-- Node13_1&#45;&gt;Node13_2 -->
<g id="edge12" class="edge">
<title>Node13_1&#45;&gt;Node13_2</title>
<path fill="none" stroke="black" d="M307.54,-133.27C307.54,-146.58 307.54,-162.19 307.54,-173.82"/>
<polygon fill="black" stroke="black" points="311.05,-133.2 307.54,-123.2 304.05,-133.2 311.05,-133.2"/>
<text text-anchor="middle" x="324.54" y="-144.8" font-family="Times,serif" font-size="14.00">समासः</text>
</g>
<!-- Node13_2&#45;&gt;Node14_1 -->
<g id="edge13" class="edge">
<title>Node13_2&#45;&gt;Node14_1</title>
<path fill="none" stroke="black" d="M320.04,-219.54C326.43,-233.12 334.01,-249.24 339.6,-261.11"/>
<polygon fill="black" stroke="black" points="323.06,-217.76 315.64,-210.2 316.73,-220.74 323.06,-217.76"/>
<text text-anchor="middle" x="339.54" y="-231.8" font-family="Times,serif" font-size="14.00">कर्म</text>
</g>
</g>
</svg>
