<?xml version="1.0" encoding="UTF-8" standalone="no"?>
<!DOCTYPE svg PUBLIC "-//W3C//DTD SVG 1.1//EN"
 "http://www.w3.org/Graphics/SVG/1.1/DTD/svg11.dtd">
<!-- Generated by graphviz version 2.43.0 (0)
 -->
<!-- Title: G Pages: 1 -->
<svg width="1000pt" height="305pt"
 viewBox="0.00 0.00 1000.04 305.00" xmlns="http://www.w3.org/2000/svg" xmlns:xlink="http://www.w3.org/1999/xlink">
<g id="graph0" class="graph" transform="scale(1 1) rotate(0) translate(4 301)">
<title>G</title>
<polygon fill="#fffacd" stroke="transparent" points="-4,4 -4,-301 996.04,-301 996.04,4 -4,4"/>
<!-- Node1_1 -->
<g id="node1" class="node">
<title>Node1_1</title>
<ellipse fill="#40e0d0" stroke="#40e0d0" cx="263.45" cy="-105" rx="44.39" ry="18"/>
<text text-anchor="middle" x="263.45" y="-101.3" font-family="Times,serif" font-size="14.00">मुदा(1.1)</text>
</g>
<!-- Node2_1 -->
<g id="node2" class="node">
<title>Node2_1</title>
<ellipse fill="#00bfff" stroke="#00bfff" cx="323.45" cy="-192" rx="49.29" ry="18"/>
<text text-anchor="middle" x="323.45" y="-188.3" font-family="Times,serif" font-size="14.00">युक्तः(2.1)</text>
</g>
<!-- Node1_1&#45;&gt;Node2_1 -->
<g id="edge1" class="edge">
<title>Node1_1&#45;&gt;Node2_1</title>
<path fill="none" stroke="black" d="M280.85,-130.65C290.76,-144.7 302.92,-161.92 311.71,-174.37"/>
<polygon fill="black" stroke="black" points="283.64,-128.54 275.01,-122.39 277.92,-132.58 283.64,-128.54"/>
<text text-anchor="middle" x="313.45" y="-144.8" font-family="Times,serif" font-size="14.00">सहार्थः</text>
</g>
<!-- Node6_1 -->
<g id="node3" class="node">
<title>Node6_1</title>
<ellipse fill="#ff1975" stroke="#ff1975" cx="323.45" cy="-279" rx="54.69" ry="18"/>
<text text-anchor="middle" x="323.45" y="-275.3" font-family="Times,serif" font-size="14.00">अब्रवीत्(6.1)</text>
</g>
<!-- Node2_1&#45;&gt;Node6_1 -->
<g id="edge2" class="edge">
<title>Node2_1&#45;&gt;Node6_1</title>
<path fill="none" stroke="black" d="M323.45,-220.27C323.45,-233.58 323.45,-249.19 323.45,-260.82"/>
<polygon fill="black" stroke="black" points="326.95,-220.2 323.45,-210.2 319.95,-220.2 326.95,-220.2"/>
<text text-anchor="middle" x="334.45" y="-231.8" font-family="Times,serif" font-size="14.00">कर्ता</text>
</g>
<!-- Node3_1 -->
<g id="node4" class="node">
<title>Node3_1</title>
<ellipse fill="#ff99ff" stroke="#ff99ff" cx="363.45" cy="-105" rx="37.89" ry="18"/>
<text text-anchor="middle" x="363.45" y="-101.3" font-family="Times,serif" font-size="14.00">च(3.1)</text>
</g>
<!-- Node3_1&#45;&gt;Node2_1 -->
<g id="edge3" class="edge">
<title>Node3_1&#45;&gt;Node2_1</title>
<path fill="none" stroke="black" d="M351.15,-132.13C344.75,-145.73 337.1,-161.98 331.47,-173.95"/>
<polygon fill="black" stroke="black" points="354.45,-133.33 355.54,-122.79 348.12,-130.35 354.45,-133.33"/>
<text text-anchor="middle" x="363.95" y="-144.8" font-family="Times,serif" font-size="14.00">सम्बन्धः</text>
</g>
<!-- Node4_1 -->
<g id="node5" class="node">
<title>Node4_1</title>
<ellipse fill="#ffff00" stroke="#ffff00" cx="47.45" cy="-105" rx="47.39" ry="18"/>
<text text-anchor="middle" x="47.45" y="-101.3" font-family="Times,serif" font-size="14.00">पुनः&#45;(4.1)</text>
</g>
<!-- Node4_2 -->
<g id="node6" class="node">
<title>Node4_2</title>
<ellipse fill="#93db70" stroke="#93db70" cx="157.45" cy="-192" rx="59.59" ry="18"/>
<text text-anchor="middle" x="157.45" y="-188.3" font-family="Times,serif" font-size="14.00">आगमनम्(4.2)</text>
</g>
<!-- Node4_1&#45;&gt;Node4_2 -->
<g id="edge4" class="edge">
<title>Node4_1&#45;&gt;Node4_2</title>
<path fill="none" stroke="black" d="M75.4,-127.6C94.43,-142.31 119.22,-161.46 136.55,-174.85"/>
<polygon fill="black" stroke="black" points="77.42,-124.74 67.37,-121.39 73.14,-130.28 77.42,-124.74"/>
<text text-anchor="middle" x="126.45" y="-144.8" font-family="Times,serif" font-size="14.00">समासः</text>
</g>
<!-- Node4_2&#45;&gt;Node6_1 -->
<g id="edge5" class="edge">
<title>Node4_2&#45;&gt;Node6_1</title>
<path fill="none" stroke="black" d="M195.38,-212.43C225.75,-227.97 267.65,-249.43 295.14,-263.51"/>
<polygon fill="black" stroke="black" points="196.86,-209.25 186.36,-207.81 193.67,-215.48 196.86,-209.25"/>
<text text-anchor="middle" x="259.45" y="-231.8" font-family="Times,serif" font-size="14.00">कर्म</text>
</g>
<!-- Node5_1 -->
<g id="node7" class="node">
<title>Node5_1</title>
<ellipse fill="#ff99ff" stroke="#ff99ff" cx="157.45" cy="-105" rx="44.39" ry="18"/>
<text text-anchor="middle" x="157.45" y="-101.3" font-family="Times,serif" font-size="14.00">प्रति(5.1)</text>
</g>
<!-- Node5_1&#45;&gt;Node4_2 -->
<g id="edge6" class="edge">
<title>Node5_1&#45;&gt;Node4_2</title>
<path fill="none" stroke="black" d="M157.45,-133.27C157.45,-146.58 157.45,-162.19 157.45,-173.82"/>
<polygon fill="black" stroke="black" points="160.95,-133.2 157.45,-123.2 153.95,-133.2 160.95,-133.2"/>
<text text-anchor="middle" x="184.95" y="-144.8" font-family="Times,serif" font-size="14.00">आभिमुख्यम्</text>
</g>
<!-- Node7_1 -->
<g id="node8" class="node">
<title>Node7_1</title>
<ellipse fill="#ffff00" stroke="#ffff00" cx="593.45" cy="-18" rx="53.09" ry="18"/>
<text text-anchor="middle" x="593.45" y="-14.3" font-family="Times,serif" font-size="14.00">त्यक्त&#45;(7.1)</text>
</g>
<!-- Node7_2 -->
<g id="node9" class="node">
<title>Node7_2</title>
<ellipse fill="#87ceeb" stroke="#87ceeb" cx="593.45" cy="-105" rx="55.79" ry="18"/>
<text text-anchor="middle" x="593.45" y="-101.3" font-family="Times,serif" font-size="14.00">देहानाम्(7.2)</text>
</g>
<!-- Node7_1&#45;&gt;Node7_2 -->
<g id="edge7" class="edge">
<title>Node7_1&#45;&gt;Node7_2</title>
<path fill="none" stroke="black" d="M593.45,-46.27C593.45,-59.58 593.45,-75.19 593.45,-86.82"/>
<polygon fill="black" stroke="black" points="596.95,-46.2 593.45,-36.2 589.95,-46.2 596.95,-46.2"/>
<text text-anchor="middle" x="610.45" y="-57.8" font-family="Times,serif" font-size="14.00">समासः</text>
</g>
<!-- Node9_3 -->
<g id="node10" class="node">
<title>Node9_3</title>
<ellipse fill="#00bfff" stroke="#00bfff" cx="672.45" cy="-192" rx="51.99" ry="18"/>
<text text-anchor="middle" x="672.45" y="-188.3" font-family="Times,serif" font-size="14.00">दर्शनम्(9.3)</text>
</g>
<!-- Node7_2&#45;&gt;Node9_3 -->
<g id="edge8" class="edge">
<title>Node7_2&#45;&gt;Node9_3</title>
<path fill="none" stroke="black" d="M610.31,-131.22C616.28,-139.46 623.29,-148.42 630.45,-156 636.83,-162.76 644.48,-169.48 651.49,-175.19"/>
<polygon fill="black" stroke="black" points="613.13,-129.15 604.51,-122.99 607.41,-133.18 613.13,-129.15"/>
<text text-anchor="middle" x="657.95" y="-144.8" font-family="Times,serif" font-size="14.00">षष्ठीसम्बन्धः</text>
</g>
<!-- Node9_3&#45;&gt;Node6_1 -->
<g id="edge12" class="edge">
<title>Node9_3&#45;&gt;Node6_1</title>
<path fill="none" stroke="black" d="M621.24,-205.47C552.1,-222.31 430.19,-252 365.89,-267.66"/>
<polygon fill="black" stroke="black" points="622.15,-208.85 631.04,-203.08 620.5,-202.05 622.15,-208.85"/>
<text text-anchor="middle" x="539.95" y="-231.8" font-family="Times,serif" font-size="14.00">वाक्यकर्म</text>
</g>
<!-- Node8_1 -->
<g id="node11" class="node">
<title>Node8_1</title>
<ellipse fill="#ff99ff" stroke="#ff99ff" cx="711.45" cy="-105" rx="44.39" ry="18"/>
<text text-anchor="middle" x="711.45" y="-101.3" font-family="Times,serif" font-size="14.00">पुनः(8.1)</text>
</g>
<!-- Node8_1&#45;&gt;Node9_3 -->
<g id="edge9" class="edge">
<title>Node8_1&#45;&gt;Node9_3</title>
<path fill="none" stroke="black" d="M699.46,-132.13C693.21,-145.73 685.76,-161.98 680.27,-173.95"/>
<polygon fill="black" stroke="black" points="702.75,-133.34 703.74,-122.79 696.39,-130.42 702.75,-133.34"/>
<text text-anchor="middle" x="728.45" y="-144.8" font-family="Times,serif" font-size="14.00">क्रियाविशेषणम्</text>
</g>
<!-- Node9_1 -->
<g id="node12" class="node">
<title>Node9_1</title>
<ellipse fill="#ffff00" stroke="#ffff00" cx="819.45" cy="-18" rx="44.69" ry="18"/>
<text text-anchor="middle" x="819.45" y="-14.3" font-family="Times,serif" font-size="14.00">तत्&#45;(9.1)</text>
</g>
<!-- Node9_2 -->
<g id="node13" class="node">
<title>Node9_2</title>
<ellipse fill="#ffff00" stroke="#ffff00" cx="819.45" cy="-105" rx="45.49" ry="18"/>
<text text-anchor="middle" x="819.45" y="-101.3" font-family="Times,serif" font-size="14.00">रूप&#45;(9.2)</text>
</g>
<!-- Node9_1&#45;&gt;Node9_2 -->
<g id="edge10" class="edge">
<title>Node9_1&#45;&gt;Node9_2</title>
<path fill="none" stroke="black" d="M819.45,-46.27C819.45,-59.58 819.45,-75.19 819.45,-86.82"/>
<polygon fill="black" stroke="black" points="822.95,-46.2 819.45,-36.2 815.95,-46.2 822.95,-46.2"/>
<text text-anchor="middle" x="836.45" y="-57.8" font-family="Times,serif" font-size="14.00">समासः</text>
</g>
<!-- Node9_2&#45;&gt;Node9_3 -->
<g id="edge11" class="edge">
<title>Node9_2&#45;&gt;Node9_3</title>
<path fill="none" stroke="black" d="M798.85,-129.66C789.92,-138.84 778.89,-148.83 767.45,-156 750.61,-166.54 730.13,-174.59 712.5,-180.3"/>
<polygon fill="black" stroke="black" points="801.53,-131.92 805.82,-122.23 796.43,-127.13 801.53,-131.92"/>
<text text-anchor="middle" x="802.45" y="-144.8" font-family="Times,serif" font-size="14.00">समासः</text>
</g>
<!-- Node10_1 -->
<g id="node14" class="node">
<title>Node10_1</title>
<ellipse fill="#ff99ff" stroke="#ff99ff" cx="937.45" cy="-105" rx="54.69" ry="18"/>
<text text-anchor="middle" x="937.45" y="-101.3" font-family="Times,serif" font-size="14.00">कथम्(10.1)</text>
</g>
<!-- Node10_1&#45;&gt;Node9_3 -->
<g id="edge13" class="edge">
<title>Node10_1&#45;&gt;Node9_3</title>
<path fill="none" stroke="black" d="M899.26,-124.87C877.45,-135.11 849.35,-147.4 823.45,-156 788.46,-167.62 747.67,-176.82 717.31,-182.87"/>
<polygon fill="black" stroke="black" points="900.98,-127.93 908.51,-120.48 897.97,-121.61 900.98,-127.93"/>
<text text-anchor="middle" x="879.95" y="-144.8" font-family="Times,serif" font-size="14.00">सम्बन्धः</text>
</g>
<!-- Node11_1 -->
<g id="node15" class="node">
<title>Node11_1</title>
<ellipse fill="#ff99ff" stroke="#ff99ff" cx="937.45" cy="-18" rx="42.79" ry="18"/>
<text text-anchor="middle" x="937.45" y="-14.3" font-family="Times,serif" font-size="14.00">नु(11.1)</text>
</g>
<!-- Node11_1&#45;&gt;Node10_1 -->
<g id="edge14" class="edge">
<title>Node11_1&#45;&gt;Node10_1</title>
<path fill="none" stroke="black" d="M937.45,-46.27C937.45,-59.58 937.45,-75.19 937.45,-86.82"/>
<polygon fill="black" stroke="black" points="940.95,-46.2 937.45,-36.2 933.95,-46.2 940.95,-46.2"/>
<text text-anchor="middle" x="955.95" y="-57.8" font-family="Times,serif" font-size="14.00">सम्बन्धः</text>
</g>
<!-- Node12_1 -->
<g id="node16" class="node">
<title>Node12_1</title>
<ellipse fill="#ff99ff" stroke="#ff99ff" cx="469.45" cy="-105" rx="50.09" ry="18"/>
<text text-anchor="middle" x="469.45" y="-101.3" font-family="Times,serif" font-size="14.00">इति(12.1)</text>
</g>
<!-- Node12_1&#45;&gt;Node9_3 -->
<g id="edge15" class="edge">
<title>Node12_1&#45;&gt;Node9_3</title>
<path fill="none" stroke="black" d="M492.87,-128.96C503.81,-138.56 517.49,-149.07 531.45,-156 560.81,-170.59 596.71,-179.38 624.94,-184.51"/>
<polygon fill="black" stroke="black" points="495.18,-126.32 485.42,-122.19 490.47,-131.5 495.18,-126.32"/>
<text text-anchor="middle" x="572.45" y="-144.8" font-family="Times,serif" font-size="14.00">वाक्यकर्म_द्योतकः</text>
</g>
</g>
</svg>
