<?xml version="1.0" encoding="UTF-8" standalone="no"?>
<!DOCTYPE svg PUBLIC "-//W3C//DTD SVG 1.1//EN"
 "http://www.w3.org/Graphics/SVG/1.1/DTD/svg11.dtd">
<!-- Generated by graphviz version 2.43.0 (0)
 -->
<!-- Title: G Pages: 1 -->
<svg width="732pt" height="392pt"
 viewBox="0.00 0.00 731.54 392.00" xmlns="http://www.w3.org/2000/svg" xmlns:xlink="http://www.w3.org/1999/xlink">
<g id="graph0" class="graph" transform="scale(1 1) rotate(0) translate(4 388)">
<title>G</title>
<polygon fill="#fffacd" stroke="transparent" points="-4,4 -4,-388 727.54,-388 727.54,4 -4,4"/>
<g id="clust1" class="cluster">
<title>cluster_1</title>
<polygon fill="#fffacd" stroke="black" points="137.69,-166 137.69,-305 263.69,-305 263.69,-166 137.69,-166"/>
</g>
<!-- Node9_3 -->
<g id="node1" class="node">
<title>Node9_3</title>
<ellipse fill="#00bfff" stroke="#00bfff" cx="200.69" cy="-192" rx="46.29" ry="18"/>
<text text-anchor="middle" x="200.69" y="-188.3" font-family="Times,serif" font-size="14.00">कर्मा(9.3)</text>
</g>
<!-- Node10_1 -->
<g id="node2" class="node">
<title>Node10_1</title>
<ellipse fill="#00bfff" stroke="#00bfff" cx="200.69" cy="-279" rx="55.49" ry="18"/>
<text text-anchor="middle" x="200.69" y="-275.3" font-family="Times,serif" font-size="14.00">पुरुषः(10.1)</text>
</g>
<!-- Node9_3&#45;&gt;Node10_1 -->
<g id="edge10" class="edge">
<title>Node9_3&#45;&gt;Node10_1</title>
<path fill="none" stroke="black" d="M200.69,-220.27C200.69,-233.58 200.69,-249.19 200.69,-260.82"/>
<polygon fill="black" stroke="black" points="204.19,-220.2 200.69,-210.2 197.19,-220.2 204.19,-220.2"/>
<text text-anchor="middle" x="223.19" y="-231.8" font-family="Times,serif" font-size="14.00">विशेषणम्</text>
</g>
<!-- Node12_1 -->
<g id="node13" class="node">
<title>Node12_1</title>
<ellipse fill="#ff1975" stroke="#ff1975" cx="131.69" cy="-366" rx="66.09" ry="18"/>
<text text-anchor="middle" x="131.69" y="-362.3" font-family="Times,serif" font-size="14.00">नियच्छति(12.1)</text>
</g>
<!-- Node10_1&#45;&gt;Node12_1 -->
<g id="edge11" class="edge">
<title>Node10_1&#45;&gt;Node12_1</title>
<path fill="none" stroke="black" d="M180.71,-304.61C169.35,-318.62 155.4,-335.79 145.3,-348.24"/>
<polygon fill="black" stroke="black" points="183.48,-306.76 187.06,-296.79 178.04,-302.35 183.48,-306.76"/>
<text text-anchor="middle" x="180.69" y="-318.8" font-family="Times,serif" font-size="14.00">कर्ता</text>
</g>
<!-- Node1_1 -->
<g id="node3" class="node">
<title>Node1_1</title>
<ellipse fill="#ff99ff" stroke="#ff99ff" cx="358.69" cy="-192" rx="48.99" ry="18"/>
<text text-anchor="middle" x="358.69" y="-188.3" font-family="Times,serif" font-size="14.00">यावत्(1.1)</text>
</g>
<!-- Node5_1 -->
<g id="node4" class="node">
<title>Node5_1</title>
<ellipse fill="#ff99ff" stroke="#ff99ff" cx="540.69" cy="-192" rx="48.99" ry="18"/>
<text text-anchor="middle" x="540.69" y="-188.3" font-family="Times,serif" font-size="14.00">तावत्(5.1)</text>
</g>
<!-- Node1_1&#45;&gt;Node5_1 -->
<g id="edge1" class="edge">
<title>Node1_1&#45;&gt;Node5_1</title>
<path fill="none" stroke="red" stroke-dasharray="5,2" d="M417.52,-192C438.04,-192 461.07,-192 481.61,-192"/>
<polygon fill="red" stroke="red" points="417.47,-188.5 407.47,-192 417.47,-195.5 417.47,-188.5"/>
<polygon fill="red" stroke="red" points="481.79,-195.5 491.79,-192 481.79,-188.5 481.79,-195.5"/>
<text text-anchor="middle" x="449.69" y="-177.8" font-family="Times,serif" font-size="14.00">नित्य_सम्बन्धः</text>
</g>
<!-- Node8_1 -->
<g id="node8" class="node">
<title>Node8_1</title>
<ellipse fill="#ff1975" stroke="#ff1975" cx="586.69" cy="-279" rx="50.09" ry="18"/>
<text text-anchor="middle" x="586.69" y="-275.3" font-family="Times,serif" font-size="14.00">भवति(8.1)</text>
</g>
<!-- Node5_1&#45;&gt;Node8_1 -->
<g id="edge5" class="edge">
<title>Node5_1&#45;&gt;Node8_1</title>
<path fill="none" stroke="black" d="M554.66,-218.8C562.11,-232.58 571.08,-249.14 577.63,-261.24"/>
<polygon fill="black" stroke="black" points="557.62,-216.92 549.78,-209.79 551.46,-220.25 557.62,-216.92"/>
<text text-anchor="middle" x="585.69" y="-231.8" font-family="Times,serif" font-size="14.00">अनुयोगी</text>
</g>
<!-- Node2_1 -->
<g id="node5" class="node">
<title>Node2_1</title>
<ellipse fill="#ff99ff" stroke="#ff99ff" cx="296.69" cy="-18" rx="37.09" ry="18"/>
<text text-anchor="middle" x="296.69" y="-14.3" font-family="Times,serif" font-size="14.00">न(2.1)</text>
</g>
<!-- Node3_1 -->
<g id="node6" class="node">
<title>Node3_1</title>
<ellipse fill="#ff1975" stroke="#ff1975" cx="358.69" cy="-105" rx="50.89" ry="18"/>
<text text-anchor="middle" x="358.69" y="-101.3" font-family="Times,serif" font-size="14.00">क्षीयते(3.1)</text>
</g>
<!-- Node2_1&#45;&gt;Node3_1 -->
<g id="edge2" class="edge">
<title>Node2_1&#45;&gt;Node3_1</title>
<path fill="none" stroke="black" d="M313.65,-43.71C319.31,-51.82 325.7,-60.85 331.69,-69 336.15,-75.06 341.15,-81.61 345.63,-87.39"/>
<polygon fill="black" stroke="black" points="316.43,-41.57 307.85,-35.35 310.68,-45.56 316.43,-41.57"/>
<text text-anchor="middle" x="351.19" y="-57.8" font-family="Times,serif" font-size="14.00">प्रतिषेधः</text>
</g>
<!-- Node3_1&#45;&gt;Node1_1 -->
<g id="edge3" class="edge">
<title>Node3_1&#45;&gt;Node1_1</title>
<path fill="none" stroke="black" d="M358.69,-133.27C358.69,-146.58 358.69,-162.19 358.69,-173.82"/>
<polygon fill="black" stroke="black" points="362.19,-133.2 358.69,-123.2 355.19,-133.2 362.19,-133.2"/>
<text text-anchor="middle" x="379.69" y="-144.8" font-family="Times,serif" font-size="14.00">प्रतियोगी</text>
</g>
<!-- Node4_1 -->
<g id="node7" class="node">
<title>Node4_1</title>
<ellipse fill="#00bfff" stroke="#00bfff" cx="395.69" cy="-18" rx="43.59" ry="18"/>
<text text-anchor="middle" x="395.69" y="-14.3" font-family="Times,serif" font-size="14.00">कर्म(4.1)</text>
</g>
<!-- Node4_1&#45;&gt;Node3_1 -->
<g id="edge4" class="edge">
<title>Node4_1&#45;&gt;Node3_1</title>
<path fill="none" stroke="black" d="M384.32,-45.13C378.4,-58.73 371.33,-74.98 366.12,-86.95"/>
<polygon fill="black" stroke="black" points="387.6,-46.36 388.38,-35.79 381.18,-43.57 387.6,-46.36"/>
<text text-anchor="middle" x="387.69" y="-57.8" font-family="Times,serif" font-size="14.00">कर्म</text>
</g>
<!-- Node6_1 -->
<g id="node9" class="node">
<title>Node6_1</title>
<ellipse fill="#87ceeb" stroke="#87ceeb" cx="665.69" cy="-105" rx="47.39" ry="18"/>
<text text-anchor="middle" x="665.69" y="-101.3" font-family="Times,serif" font-size="14.00">अस्य(6.1)</text>
</g>
<!-- Node7_1 -->
<g id="node10" class="node">
<title>Node7_1</title>
<ellipse fill="#00bfff" stroke="#00bfff" cx="665.69" cy="-192" rx="57.69" ry="18"/>
<text text-anchor="middle" x="665.69" y="-188.3" font-family="Times,serif" font-size="14.00">स्वरूपता(7.1)</text>
</g>
<!-- Node6_1&#45;&gt;Node7_1 -->
<g id="edge6" class="edge">
<title>Node6_1&#45;&gt;Node7_1</title>
<path fill="none" stroke="black" d="M665.69,-133.27C665.69,-146.58 665.69,-162.19 665.69,-173.82"/>
<polygon fill="black" stroke="black" points="669.19,-133.2 665.69,-123.2 662.19,-133.2 669.19,-133.2"/>
<text text-anchor="middle" x="693.19" y="-144.8" font-family="Times,serif" font-size="14.00">षष्ठीसम्बन्धः</text>
</g>
<!-- Node7_1&#45;&gt;Node8_1 -->
<g id="edge7" class="edge">
<title>Node7_1&#45;&gt;Node8_1</title>
<path fill="none" stroke="black" d="M643.47,-216.91C630.19,-231.2 613.67,-248.98 601.88,-261.66"/>
<polygon fill="black" stroke="black" points="646.22,-219.1 650.46,-209.39 641.09,-214.33 646.22,-219.1"/>
<text text-anchor="middle" x="641.69" y="-231.8" font-family="Times,serif" font-size="14.00">कर्ता</text>
</g>
<!-- Node9_1 -->
<g id="node11" class="node">
<title>Node9_1</title>
<ellipse fill="#ffff00" stroke="#ffff00" cx="200.69" cy="-18" rx="40.89" ry="18"/>
<text text-anchor="middle" x="200.69" y="-14.3" font-family="Times,serif" font-size="14.00">सं&#45;(9.1)</text>
</g>
<!-- Node9_2 -->
<g id="node12" class="node">
<title>Node9_2</title>
<ellipse fill="#ffff00" stroke="#ffff00" cx="200.69" cy="-105" rx="50.09" ry="18"/>
<text text-anchor="middle" x="200.69" y="-101.3" font-family="Times,serif" font-size="14.00">क्षीण&#45;(9.2)</text>
</g>
<!-- Node9_1&#45;&gt;Node9_2 -->
<g id="edge8" class="edge">
<title>Node9_1&#45;&gt;Node9_2</title>
<path fill="none" stroke="black" d="M200.69,-46.27C200.69,-59.58 200.69,-75.19 200.69,-86.82"/>
<polygon fill="black" stroke="black" points="204.19,-46.2 200.69,-36.2 197.19,-46.2 204.19,-46.2"/>
<text text-anchor="middle" x="217.69" y="-57.8" font-family="Times,serif" font-size="14.00">समासः</text>
</g>
<!-- Node9_2&#45;&gt;Node9_3 -->
<g id="edge9" class="edge">
<title>Node9_2&#45;&gt;Node9_3</title>
<path fill="none" stroke="black" d="M200.69,-133.27C200.69,-146.58 200.69,-162.19 200.69,-173.82"/>
<polygon fill="black" stroke="black" points="204.19,-133.2 200.69,-123.2 197.19,-133.2 204.19,-133.2"/>
<text text-anchor="middle" x="217.69" y="-144.8" font-family="Times,serif" font-size="14.00">समासः</text>
</g>
<!-- Node11_1 -->
<g id="node14" class="node">
<title>Node11_1</title>
<ellipse fill="#ffff00" stroke="#ffff00" cx="63.69" cy="-192" rx="51.19" ry="18"/>
<text text-anchor="middle" x="63.69" y="-188.3" font-family="Times,serif" font-size="14.00">रूप&#45;(11.1)</text>
</g>
<!-- Node11_2 -->
<g id="node15" class="node">
<title>Node11_2</title>
<ellipse fill="#00bfff" stroke="#00bfff" cx="63.69" cy="-279" rx="63.89" ry="18"/>
<text text-anchor="middle" x="63.69" y="-275.3" font-family="Times,serif" font-size="14.00">अन्यत्वम्(11.2)</text>
</g>
<!-- Node11_1&#45;&gt;Node11_2 -->
<g id="edge12" class="edge">
<title>Node11_1&#45;&gt;Node11_2</title>
<path fill="none" stroke="black" d="M63.69,-220.27C63.69,-233.58 63.69,-249.19 63.69,-260.82"/>
<polygon fill="black" stroke="black" points="67.19,-220.2 63.69,-210.2 60.19,-220.2 67.19,-220.2"/>
<text text-anchor="middle" x="80.69" y="-231.8" font-family="Times,serif" font-size="14.00">समासः</text>
</g>
<!-- Node11_2&#45;&gt;Node12_1 -->
<g id="edge13" class="edge">
<title>Node11_2&#45;&gt;Node12_1</title>
<path fill="none" stroke="black" d="M83.39,-304.61C94.59,-318.62 108.33,-335.79 118.29,-348.24"/>
<polygon fill="black" stroke="black" points="86.11,-302.42 77.13,-296.79 80.64,-306.79 86.11,-302.42"/>
<text text-anchor="middle" x="111.69" y="-318.8" font-family="Times,serif" font-size="14.00">कर्म</text>
</g>
</g>
</svg>
