<?xml version="1.0" encoding="UTF-8" standalone="no"?>
<!DOCTYPE svg PUBLIC "-//W3C//DTD SVG 1.1//EN"
 "http://www.w3.org/Graphics/SVG/1.1/DTD/svg11.dtd">
<!-- Generated by graphviz version 2.43.0 (0)
 -->
<!-- Title: G Pages: 1 -->
<svg width="813pt" height="392pt"
 viewBox="0.00 0.00 813.15 392.00" xmlns="http://www.w3.org/2000/svg" xmlns:xlink="http://www.w3.org/1999/xlink">
<g id="graph0" class="graph" transform="scale(1 1) rotate(0) translate(4 388)">
<title>G</title>
<polygon fill="#fffacd" stroke="transparent" points="-4,4 -4,-388 809.15,-388 809.15,4 -4,4"/>
<g id="clust1" class="cluster">
<title>cluster_1</title>
<polygon fill="#fffacd" stroke="black" points="8,-166 8,-305 114,-305 114,-166 8,-166"/>
</g>
<g id="clust2" class="cluster">
<title>cluster_2</title>
<polygon fill="#fffacd" stroke="black" points="231,-166 231,-305 475,-305 475,-166 231,-166"/>
</g>
<!-- Node2_1 -->
<g id="node1" class="node">
<title>Node2_1</title>
<ellipse fill="#00bfff" stroke="#00bfff" cx="61" cy="-192" rx="40.09" ry="18"/>
<text text-anchor="middle" x="61" y="-188.3" font-family="Times,serif" font-size="14.00">सः(2.1)</text>
</g>
<!-- Node3_2 -->
<g id="node2" class="node">
<title>Node3_2</title>
<ellipse fill="#00bfff" stroke="#00bfff" cx="61" cy="-279" rx="45.49" ry="18"/>
<text text-anchor="middle" x="61" y="-275.3" font-family="Times,serif" font-size="14.00">श्रेष्ठः(3.2)</text>
</g>
<!-- Node2_1&#45;&gt;Node3_2 -->
<g id="edge2" class="edge">
<title>Node2_1&#45;&gt;Node3_2</title>
<path fill="none" stroke="black" d="M61,-220.27C61,-233.58 61,-249.19 61,-260.82"/>
<polygon fill="black" stroke="black" points="64.5,-220.2 61,-210.2 57.5,-220.2 64.5,-220.2"/>
<text text-anchor="middle" x="83.5" y="-231.8" font-family="Times,serif" font-size="14.00">विशेषणम्</text>
</g>
<!-- Node10_1 -->
<g id="node7" class="node">
<title>Node10_1</title>
<ellipse fill="#ff1975" stroke="#ff1975" cx="527" cy="-366" rx="60.39" ry="18"/>
<text text-anchor="middle" x="527" y="-362.3" font-family="Times,serif" font-size="14.00">अब्रवीत्(10.1)</text>
</g>
<!-- Node3_2&#45;&gt;Node10_1 -->
<g id="edge4" class="edge">
<title>Node3_2&#45;&gt;Node10_1</title>
<path fill="none" stroke="black" d="M111.47,-289.21C201.17,-305.57 387.34,-339.53 476.83,-355.85"/>
<polygon fill="black" stroke="black" points="112.01,-285.75 101.54,-287.39 110.75,-292.63 112.01,-285.75"/>
<text text-anchor="middle" x="332" y="-318.8" font-family="Times,serif" font-size="14.00">कर्ता</text>
</g>
<!-- Node6_3 -->
<g id="node3" class="node">
<title>Node6_3</title>
<ellipse fill="#93db70" stroke="#93db70" cx="296" cy="-192" rx="57.39" ry="18"/>
<text text-anchor="middle" x="296" y="-188.3" font-family="Times,serif" font-size="14.00">उत्पन्नम्(6.3)</text>
</g>
<!-- Node8_1 -->
<g id="node4" class="node">
<title>Node8_1</title>
<ellipse fill="#93db70" stroke="#93db70" cx="402" cy="-279" rx="63.09" ry="18"/>
<text text-anchor="middle" x="402" y="-275.3" font-family="Times,serif" font-size="14.00">आस्तीकम्(8.1)</text>
</g>
<!-- Node6_3&#45;&gt;Node8_1 -->
<g id="edge9" class="edge">
<title>Node6_3&#45;&gt;Node8_1</title>
<path fill="none" stroke="black" d="M323.89,-215.36C342.07,-229.94 365.38,-248.64 381.79,-261.79"/>
<polygon fill="black" stroke="black" points="325.93,-212.51 315.94,-208.99 321.55,-217.97 325.93,-212.51"/>
<text text-anchor="middle" x="377.5" y="-231.8" font-family="Times,serif" font-size="14.00">विशेषणम्</text>
</g>
<!-- Node8_1&#45;&gt;Node10_1 -->
<g id="edge12" class="edge">
<title>Node8_1&#45;&gt;Node10_1</title>
<path fill="none" stroke="black" d="M433.54,-301.45C455.44,-316.34 484.12,-335.84 503.91,-349.3"/>
<polygon fill="black" stroke="black" points="435.46,-298.52 425.22,-295.79 431.52,-304.31 435.46,-298.52"/>
<text text-anchor="middle" x="491" y="-318.8" font-family="Times,serif" font-size="14.00">मुख्यकर्म</text>
</g>
<!-- Node7_2 -->
<g id="node5" class="node">
<title>Node7_2</title>
<ellipse fill="#93db70" stroke="#93db70" cx="419" cy="-192" rx="48.19" ry="18"/>
<text text-anchor="middle" x="419" y="-188.3" font-family="Times,serif" font-size="14.00">सुतम्(7.2)</text>
</g>
<!-- Node7_2&#45;&gt;Node8_1 -->
<g id="edge11" class="edge">
<title>Node7_2&#45;&gt;Node8_1</title>
<path fill="none" stroke="black" d="M413.55,-220.27C410.88,-233.58 407.76,-249.19 405.44,-260.82"/>
<polygon fill="black" stroke="black" points="417.03,-220.69 415.56,-210.2 410.17,-219.32 417.03,-220.69"/>
<text text-anchor="middle" x="433.5" y="-231.8" font-family="Times,serif" font-size="14.00">विशेषणम्</text>
</g>
<!-- Node1_1 -->
<g id="node6" class="node">
<title>Node1_1</title>
<ellipse fill="#ff99ff" stroke="#ff99ff" cx="527" cy="-279" rx="44.39" ry="18"/>
<text text-anchor="middle" x="527" y="-275.3" font-family="Times,serif" font-size="14.00">तदा(1.1)</text>
</g>
<!-- Node1_1&#45;&gt;Node10_1 -->
<g id="edge1" class="edge">
<title>Node1_1&#45;&gt;Node10_1</title>
<path fill="none" stroke="black" d="M527,-307.27C527,-320.58 527,-336.19 527,-347.82"/>
<polygon fill="black" stroke="black" points="530.5,-307.2 527,-297.2 523.5,-307.2 530.5,-307.2"/>
<text text-anchor="middle" x="562.5" y="-318.8" font-family="Times,serif" font-size="14.00">कालाधिकरणम्</text>
</g>
<!-- Node3_1 -->
<g id="node8" class="node">
<title>Node3_1</title>
<ellipse fill="#ffff00" stroke="#ffff00" cx="171" cy="-192" rx="49.29" ry="18"/>
<text text-anchor="middle" x="171" y="-188.3" font-family="Times,serif" font-size="14.00">भरत&#45;(3.1)</text>
</g>
<!-- Node3_1&#45;&gt;Node3_2 -->
<g id="edge3" class="edge">
<title>Node3_1&#45;&gt;Node3_2</title>
<path fill="none" stroke="black" d="M144.58,-215.3C133.96,-224.09 121.52,-234.18 110,-243 101.2,-249.74 91.29,-256.9 82.69,-262.97"/>
<polygon fill="black" stroke="black" points="146.86,-217.96 152.3,-208.87 142.38,-212.58 146.86,-217.96"/>
<text text-anchor="middle" x="145" y="-231.8" font-family="Times,serif" font-size="14.00">समासः</text>
</g>
<!-- Node4_1 -->
<g id="node9" class="node">
<title>Node4_1</title>
<ellipse fill="#ff99ff" stroke="#ff99ff" cx="642" cy="-279" rx="53.09" ry="18"/>
<text text-anchor="middle" x="642" y="-275.3" font-family="Times,serif" font-size="14.00">स्नात्वा(4.1)</text>
</g>
<!-- Node4_1&#45;&gt;Node10_1 -->
<g id="edge5" class="edge">
<title>Node4_1&#45;&gt;Node10_1</title>
<path fill="none" stroke="black" d="M625.37,-305.29C618.83,-313.9 610.78,-323.09 602,-330 590.7,-338.88 576.79,-346.17 564.03,-351.74"/>
<polygon fill="black" stroke="black" points="628.37,-307.13 631.38,-296.97 622.69,-303.03 628.37,-307.13"/>
<text text-anchor="middle" x="637.5" y="-318.8" font-family="Times,serif" font-size="14.00">पूर्वकालः</text>
</g>
<!-- Node5_1 -->
<g id="node10" class="node">
<title>Node5_1</title>
<ellipse fill="#ff99ff" stroke="#ff99ff" cx="642" cy="-192" rx="37.89" ry="18"/>
<text text-anchor="middle" x="642" y="-188.3" font-family="Times,serif" font-size="14.00">च(5.1)</text>
</g>
<!-- Node5_1&#45;&gt;Node4_1 -->
<g id="edge6" class="edge">
<title>Node5_1&#45;&gt;Node4_1</title>
<path fill="none" stroke="black" d="M642,-220.27C642,-233.58 642,-249.19 642,-260.82"/>
<polygon fill="black" stroke="black" points="645.5,-220.2 642,-210.2 638.5,-220.2 645.5,-220.2"/>
<text text-anchor="middle" x="660.5" y="-231.8" font-family="Times,serif" font-size="14.00">सम्बन्धः</text>
</g>
<!-- Node6_1 -->
<g id="node11" class="node">
<title>Node6_1</title>
<ellipse fill="#ffff00" stroke="#ffff00" cx="294" cy="-18" rx="57.69" ry="18"/>
<text text-anchor="middle" x="294" y="-14.3" font-family="Times,serif" font-size="14.00">यायावर&#45;(6.1)</text>
</g>
<!-- Node6_2 -->
<g id="node12" class="node">
<title>Node6_2</title>
<ellipse fill="#ffff00" stroke="#ffff00" cx="294" cy="-105" rx="47.39" ry="18"/>
<text text-anchor="middle" x="294" y="-101.3" font-family="Times,serif" font-size="14.00">कुल&#45;(6.2)</text>
</g>
<!-- Node6_1&#45;&gt;Node6_2 -->
<g id="edge7" class="edge">
<title>Node6_1&#45;&gt;Node6_2</title>
<path fill="none" stroke="black" d="M294,-46.27C294,-59.58 294,-75.19 294,-86.82"/>
<polygon fill="black" stroke="black" points="297.5,-46.2 294,-36.2 290.5,-46.2 297.5,-46.2"/>
<text text-anchor="middle" x="311" y="-57.8" font-family="Times,serif" font-size="14.00">समासः</text>
</g>
<!-- Node6_2&#45;&gt;Node6_3 -->
<g id="edge8" class="edge">
<title>Node6_2&#45;&gt;Node6_3</title>
<path fill="none" stroke="black" d="M294.64,-133.27C294.95,-146.58 295.32,-162.19 295.6,-173.82"/>
<polygon fill="black" stroke="black" points="298.14,-133.12 294.4,-123.2 291.14,-133.28 298.14,-133.12"/>
<text text-anchor="middle" x="312" y="-144.8" font-family="Times,serif" font-size="14.00">समासः</text>
</g>
<!-- Node7_1 -->
<g id="node13" class="node">
<title>Node7_1</title>
<ellipse fill="#ffff00" stroke="#ffff00" cx="421" cy="-105" rx="61.19" ry="18"/>
<text text-anchor="middle" x="421" y="-101.3" font-family="Times,serif" font-size="14.00">जरत्कारु&#45;(7.1)</text>
</g>
<!-- Node7_1&#45;&gt;Node7_2 -->
<g id="edge10" class="edge">
<title>Node7_1&#45;&gt;Node7_2</title>
<path fill="none" stroke="black" d="M420.36,-133.27C420.05,-146.58 419.68,-162.19 419.4,-173.82"/>
<polygon fill="black" stroke="black" points="423.86,-133.28 420.6,-123.2 416.86,-133.12 423.86,-133.28"/>
<text text-anchor="middle" x="437" y="-144.8" font-family="Times,serif" font-size="14.00">समासः</text>
</g>
<!-- Node9_1 -->
<g id="node14" class="node">
<title>Node9_1</title>
<ellipse fill="#93db70" stroke="#93db70" cx="759" cy="-279" rx="46.29" ry="18"/>
<text text-anchor="middle" x="759" y="-275.3" font-family="Times,serif" font-size="14.00">इदम्(9.1)</text>
</g>
<!-- Node9_1&#45;&gt;Node10_1 -->
<g id="edge13" class="edge">
<title>Node9_1&#45;&gt;Node10_1</title>
<path fill="none" stroke="black" d="M725.75,-299.48C707.41,-309.62 683.95,-321.62 662,-330 634.07,-340.67 601.66,-349.19 575.61,-355.15"/>
<polygon fill="black" stroke="black" points="727.57,-302.47 734.58,-294.52 724.15,-296.36 727.57,-302.47"/>
<text text-anchor="middle" x="703" y="-318.8" font-family="Times,serif" font-size="14.00">कर्म</text>
</g>
</g>
</svg>
