<?xml version="1.0" encoding="UTF-8" standalone="no"?>
<!DOCTYPE svg PUBLIC "-//W3C//DTD SVG 1.1//EN"
 "http://www.w3.org/Graphics/SVG/1.1/DTD/svg11.dtd">
<!-- Generated by graphviz version 2.43.0 (0)
 -->
<!-- Title: G Pages: 1 -->
<svg width="733pt" height="305pt"
 viewBox="0.00 0.00 732.69 305.00" xmlns="http://www.w3.org/2000/svg" xmlns:xlink="http://www.w3.org/1999/xlink">
<g id="graph0" class="graph" transform="scale(1 1) rotate(0) translate(4 301)">
<title>G</title>
<polygon fill="#fffacd" stroke="transparent" points="-4,4 -4,-301 728.69,-301 728.69,4 -4,4"/>
<g id="clust1" class="cluster">
<title>cluster_1</title>
<polygon fill="#fffacd" stroke="black" points="8,-79 8,-218 214,-218 214,-79 8,-79"/>
</g>
<g id="clust2" class="cluster">
<title>cluster_2</title>
<polygon fill="#fffacd" stroke="black" points="222,-79 222,-218 342,-218 342,-79 222,-79"/>
</g>
<!-- Node1_1 -->
<g id="node1" class="node">
<title>Node1_1</title>
<ellipse fill="#00bfff" stroke="#00bfff" cx="166" cy="-105" rx="40.09" ry="18"/>
<text text-anchor="middle" x="166" y="-101.3" font-family="Times,serif" font-size="14.00">सः(1.1)</text>
</g>
<!-- Node3_1 -->
<g id="node2" class="node">
<title>Node3_1</title>
<ellipse fill="#00bfff" stroke="#00bfff" cx="145" cy="-192" rx="61.19" ry="18"/>
<text text-anchor="middle" x="145" y="-188.3" font-family="Times,serif" font-size="14.00">जनमेजयः(3.1)</text>
</g>
<!-- Node1_1&#45;&gt;Node3_1 -->
<g id="edge1" class="edge">
<title>Node1_1&#45;&gt;Node3_1</title>
<path fill="none" stroke="black" d="M159.26,-133.27C155.97,-146.58 152.12,-162.19 149.24,-173.82"/>
<polygon fill="black" stroke="black" points="162.75,-133.75 161.75,-123.2 155.95,-132.07 162.75,-133.75"/>
<text text-anchor="middle" x="179.5" y="-144.8" font-family="Times,serif" font-size="14.00">विशेषणम्</text>
</g>
<!-- Node11_1 -->
<g id="node6" class="node">
<title>Node11_1</title>
<ellipse fill="#ff1975" stroke="#ff1975" cx="400" cy="-279" rx="69.59" ry="18"/>
<text text-anchor="middle" x="400" y="-275.3" font-family="Times,serif" font-size="14.00">पूजयामास(11.1)</text>
</g>
<!-- Node3_1&#45;&gt;Node11_1 -->
<g id="edge3" class="edge">
<title>Node3_1&#45;&gt;Node11_1</title>
<path fill="none" stroke="black" d="M192.89,-209.49C201.26,-212.34 209.88,-215.27 218,-218 266.09,-234.16 321.47,-252.36 358.39,-264.43"/>
<polygon fill="black" stroke="black" points="193.83,-206.11 183.24,-206.19 191.57,-212.74 193.83,-206.11"/>
<text text-anchor="middle" x="304" y="-231.8" font-family="Times,serif" font-size="14.00">कर्ता</text>
</g>
<!-- Node2_1 -->
<g id="node3" class="node">
<title>Node2_1</title>
<ellipse fill="#00bfff" stroke="#00bfff" cx="62" cy="-105" rx="46.29" ry="18"/>
<text text-anchor="middle" x="62" y="-101.3" font-family="Times,serif" font-size="14.00">राजा(2.1)</text>
</g>
<!-- Node2_1&#45;&gt;Node3_1 -->
<g id="edge2" class="edge">
<title>Node2_1&#45;&gt;Node3_1</title>
<path fill="none" stroke="black" d="M82.37,-130.3C89.62,-138.64 97.98,-147.91 106,-156 112.27,-162.33 119.46,-168.95 125.94,-174.7"/>
<polygon fill="black" stroke="black" points="84.97,-127.95 75.8,-122.65 79.66,-132.52 84.97,-127.95"/>
<text text-anchor="middle" x="128.5" y="-144.8" font-family="Times,serif" font-size="14.00">विशेषणम्</text>
</g>
<!-- Node7_1 -->
<g id="node4" class="node">
<title>Node7_1</title>
<ellipse fill="#93db70" stroke="#93db70" cx="282" cy="-105" rx="42.49" ry="18"/>
<text text-anchor="middle" x="282" y="-101.3" font-family="Times,serif" font-size="14.00">तम्(7.1)</text>
</g>
<!-- Node8_1 -->
<g id="node5" class="node">
<title>Node8_1</title>
<ellipse fill="#93db70" stroke="#93db70" cx="282" cy="-192" rx="51.99" ry="18"/>
<text text-anchor="middle" x="282" y="-188.3" font-family="Times,serif" font-size="14.00">ऋषिम्(8.1)</text>
</g>
<!-- Node7_1&#45;&gt;Node8_1 -->
<g id="edge8" class="edge">
<title>Node7_1&#45;&gt;Node8_1</title>
<path fill="none" stroke="black" d="M282,-133.27C282,-146.58 282,-162.19 282,-173.82"/>
<polygon fill="black" stroke="black" points="285.5,-133.2 282,-123.2 278.5,-133.2 285.5,-133.2"/>
<text text-anchor="middle" x="304.5" y="-144.8" font-family="Times,serif" font-size="14.00">विशेषणम्</text>
</g>
<!-- Node8_1&#45;&gt;Node11_1 -->
<g id="edge9" class="edge">
<title>Node8_1&#45;&gt;Node11_1</title>
<path fill="none" stroke="black" d="M311.99,-214.6C332.45,-229.34 359.1,-248.54 377.69,-261.93"/>
<polygon fill="black" stroke="black" points="313.8,-211.6 303.64,-208.59 309.71,-217.28 313.8,-211.6"/>
<text text-anchor="middle" x="357" y="-231.8" font-family="Times,serif" font-size="14.00">कर्म</text>
</g>
<!-- Node4_1 -->
<g id="node7" class="node">
<title>Node4_1</title>
<ellipse fill="#ffff00" stroke="#ffff00" cx="400" cy="-18" rx="48.19" ry="18"/>
<text text-anchor="middle" x="400" y="-14.3" font-family="Times,serif" font-size="14.00">द्विज&#45;(4.1)</text>
</g>
<!-- Node4_2 -->
<g id="node8" class="node">
<title>Node4_2</title>
<ellipse fill="#b4ffb4" stroke="#b4ffb4" cx="400" cy="-105" rx="50.09" ry="18"/>
<text text-anchor="middle" x="400" y="-101.3" font-family="Times,serif" font-size="14.00">श्रेष्ठात्(4.2)</text>
</g>
<!-- Node4_1&#45;&gt;Node4_2 -->
<g id="edge4" class="edge">
<title>Node4_1&#45;&gt;Node4_2</title>
<path fill="none" stroke="black" d="M400,-46.27C400,-59.58 400,-75.19 400,-86.82"/>
<polygon fill="black" stroke="black" points="403.5,-46.2 400,-36.2 396.5,-46.2 403.5,-46.2"/>
<text text-anchor="middle" x="417" y="-57.8" font-family="Times,serif" font-size="14.00">समासः</text>
</g>
<!-- Node6_1 -->
<g id="node9" class="node">
<title>Node6_1</title>
<ellipse fill="#ff99ff" stroke="#ff99ff" cx="400" cy="-192" rx="48.19" ry="18"/>
<text text-anchor="middle" x="400" y="-188.3" font-family="Times,serif" font-size="14.00">श्रुत्वा(6.1)</text>
</g>
<!-- Node4_2&#45;&gt;Node6_1 -->
<g id="edge5" class="edge">
<title>Node4_2&#45;&gt;Node6_1</title>
<path fill="none" stroke="black" d="M400,-133.27C400,-146.58 400,-162.19 400,-173.82"/>
<polygon fill="black" stroke="black" points="403.5,-133.2 400,-123.2 396.5,-133.2 403.5,-133.2"/>
<text text-anchor="middle" x="423.5" y="-144.8" font-family="Times,serif" font-size="14.00">अपादानम्</text>
</g>
<!-- Node6_1&#45;&gt;Node11_1 -->
<g id="edge7" class="edge">
<title>Node6_1&#45;&gt;Node11_1</title>
<path fill="none" stroke="black" d="M400,-220.27C400,-233.58 400,-249.19 400,-260.82"/>
<polygon fill="black" stroke="black" points="403.5,-220.2 400,-210.2 396.5,-220.2 403.5,-220.2"/>
<text text-anchor="middle" x="420.5" y="-231.8" font-family="Times,serif" font-size="14.00">पूर्वकालः</text>
</g>
<!-- Node5_1 -->
<g id="node10" class="node">
<title>Node5_1</title>
<ellipse fill="#93db70" stroke="#93db70" cx="515" cy="-105" rx="46.59" ry="18"/>
<text text-anchor="middle" x="515" y="-101.3" font-family="Times,serif" font-size="14.00">एतत्(5.1)</text>
</g>
<!-- Node5_1&#45;&gt;Node6_1 -->
<g id="edge6" class="edge">
<title>Node5_1&#45;&gt;Node6_1</title>
<path fill="none" stroke="black" d="M487.49,-128.09C476.29,-136.93 463.15,-147.1 451,-156 441.82,-162.73 431.5,-169.88 422.55,-175.96"/>
<polygon fill="black" stroke="black" points="489.97,-130.59 495.63,-121.64 485.62,-125.11 489.97,-130.59"/>
<text text-anchor="middle" x="479" y="-144.8" font-family="Times,serif" font-size="14.00">कर्म</text>
</g>
<!-- Node9_1 -->
<g id="node11" class="node">
<title>Node9_1</title>
<ellipse fill="#ff99ff" stroke="#ff99ff" cx="523" cy="-192" rx="56.59" ry="18"/>
<text text-anchor="middle" x="523" y="-188.3" font-family="Times,serif" font-size="14.00">पुनःपुनः(9.1)</text>
</g>
<!-- Node9_1&#45;&gt;Node11_1 -->
<g id="edge10" class="edge">
<title>Node9_1&#45;&gt;Node11_1</title>
<path fill="none" stroke="black" d="M492.02,-214.41C470.66,-229.17 442.72,-248.48 423.25,-261.93"/>
<polygon fill="black" stroke="black" points="494.2,-217.15 500.44,-208.59 490.22,-211.4 494.2,-217.15"/>
<text text-anchor="middle" x="503" y="-231.8" font-family="Times,serif" font-size="14.00">क्रियाविशेषणम्</text>
</g>
<!-- Node10_1 -->
<g id="node12" class="node">
<title>Node10_1</title>
<ellipse fill="#ff99ff" stroke="#ff99ff" cx="661" cy="-192" rx="63.89" ry="18"/>
<text text-anchor="middle" x="661" y="-188.3" font-family="Times,serif" font-size="14.00">अनुमान्य(10.1)</text>
</g>
<!-- Node10_1&#45;&gt;Node11_1 -->
<g id="edge11" class="edge">
<title>Node10_1&#45;&gt;Node11_1</title>
<path fill="none" stroke="black" d="M620.37,-211.93C597.65,-222.04 568.62,-234.19 542,-243 512.83,-252.66 479.52,-261 452.49,-267.12"/>
<polygon fill="black" stroke="black" points="622.01,-215.03 629.69,-207.74 619.14,-208.65 622.01,-215.03"/>
<text text-anchor="middle" x="601.5" y="-231.8" font-family="Times,serif" font-size="14.00">पूर्वकालः</text>
</g>
</g>
</svg>
