<?xml version="1.0" encoding="UTF-8" standalone="no"?>
<!DOCTYPE svg PUBLIC "-//W3C//DTD SVG 1.1//EN"
 "http://www.w3.org/Graphics/SVG/1.1/DTD/svg11.dtd">
<!-- Generated by graphviz version 2.43.0 (0)
 -->
<!-- Title: G Pages: 1 -->
<svg width="848pt" height="234pt"
 viewBox="0.00 0.00 847.55 234.00" xmlns="http://www.w3.org/2000/svg" xmlns:xlink="http://www.w3.org/1999/xlink">
<g id="graph0" class="graph" transform="scale(1 1) rotate(0) translate(4 230)">
<title>G</title>
<polygon fill="#fffacd" stroke="transparent" points="-4,4 -4,-230 843.55,-230 843.55,4 -4,4"/>
<g id="clust1" class="cluster">
<title>cluster_1</title>
<polygon fill="#fffacd" stroke="black" points="8,-8 8,-147 148,-147 148,-8 8,-8"/>
</g>
<!-- Node3_1 -->
<g id="node1" class="node">
<title>Node3_1</title>
<ellipse fill="#93db70" stroke="#93db70" cx="78" cy="-34" rx="57.39" ry="18"/>
<text text-anchor="middle" x="78" y="-30.3" font-family="Times,serif" font-size="14.00">विचित्रम्(3.1)</text>
</g>
<!-- Node4_1 -->
<g id="node2" class="node">
<title>Node4_1</title>
<ellipse fill="#93db70" stroke="#93db70" cx="78" cy="-121" rx="61.99" ry="18"/>
<text text-anchor="middle" x="78" y="-117.3" font-family="Times,serif" font-size="14.00">आख्यानम्(4.1)</text>
</g>
<!-- Node3_1&#45;&gt;Node4_1 -->
<g id="edge4" class="edge">
<title>Node3_1&#45;&gt;Node4_1</title>
<path fill="none" stroke="black" d="M78,-62.27C78,-75.58 78,-91.19 78,-102.82"/>
<polygon fill="black" stroke="black" points="81.5,-62.2 78,-52.2 74.5,-62.2 81.5,-62.2"/>
<text text-anchor="middle" x="100.5" y="-73.8" font-family="Times,serif" font-size="14.00">विशेषणम्</text>
</g>
<!-- Node5_1 -->
<g id="node5" class="node">
<title>Node5_1</title>
<ellipse fill="#93db70" stroke="#93db70" cx="209" cy="-208" rx="48.19" ry="18"/>
<text text-anchor="middle" x="209" y="-204.3" font-family="Times,serif" font-size="14.00">श्रुतम्(5.1)</text>
</g>
<!-- Node4_1&#45;&gt;Node5_1 -->
<g id="edge5" class="edge">
<title>Node4_1&#45;&gt;Node5_1</title>
<path fill="none" stroke="black" d="M110.61,-143.16C134.06,-158.37 165.11,-178.52 186,-192.08"/>
<polygon fill="black" stroke="black" points="112.32,-140.1 102.03,-137.59 108.51,-145.97 112.32,-140.1"/>
<text text-anchor="middle" x="161" y="-160.8" font-family="Times,serif" font-size="14.00">कर्म</text>
</g>
<!-- Node1_1 -->
<g id="node3" class="node">
<title>Node1_1</title>
<ellipse fill="#ffff00" stroke="#ffff00" cx="212" cy="-34" rx="55.79" ry="18"/>
<text text-anchor="middle" x="212" y="-30.3" font-family="Times,serif" font-size="14.00">पाण्डव&#45;(1.1)</text>
</g>
<!-- Node1_2 -->
<g id="node4" class="node">
<title>Node1_2</title>
<ellipse fill="#6fffc3" stroke="#6fffc3" cx="209" cy="-121" rx="48.99" ry="18"/>
<text text-anchor="middle" x="209" y="-117.3" font-family="Times,serif" font-size="14.00">नन्दन(1.2)</text>
</g>
<!-- Node1_1&#45;&gt;Node1_2 -->
<g id="edge1" class="edge">
<title>Node1_1&#45;&gt;Node1_2</title>
<path fill="none" stroke="black" d="M211.04,-62.27C210.57,-75.58 210.02,-91.19 209.61,-102.82"/>
<polygon fill="black" stroke="black" points="214.54,-62.32 211.39,-52.2 207.54,-62.07 214.54,-62.32"/>
<text text-anchor="middle" x="228" y="-73.8" font-family="Times,serif" font-size="14.00">समासः</text>
</g>
<!-- Node1_2&#45;&gt;Node5_1 -->
<g id="edge2" class="edge">
<title>Node1_2&#45;&gt;Node5_1</title>
<path fill="none" stroke="black" d="M209,-149.27C209,-162.58 209,-178.19 209,-189.82"/>
<polygon fill="black" stroke="black" points="212.5,-149.2 209,-139.2 205.5,-149.2 212.5,-149.2"/>
<text text-anchor="middle" x="230" y="-160.8" font-family="Times,serif" font-size="14.00">सम्बोध्यः</text>
</g>
<!-- Node2_1 -->
<g id="node6" class="node">
<title>Node2_1</title>
<ellipse fill="#40e0d0" stroke="#40e0d0" cx="323" cy="-121" rx="46.59" ry="18"/>
<text text-anchor="middle" x="323" y="-117.3" font-family="Times,serif" font-size="14.00">त्वया(2.1)</text>
</g>
<!-- Node2_1&#45;&gt;Node5_1 -->
<g id="edge3" class="edge">
<title>Node2_1&#45;&gt;Node5_1</title>
<path fill="none" stroke="black" d="M294.19,-143.48C274.16,-158.42 247.91,-177.99 229.88,-191.43"/>
<polygon fill="black" stroke="black" points="296.43,-146.18 302.36,-137.39 292.25,-140.56 296.43,-146.18"/>
<text text-anchor="middle" x="284" y="-160.8" font-family="Times,serif" font-size="14.00">कर्ता</text>
</g>
<!-- Node6_1 -->
<g id="node7" class="node">
<title>Node6_1</title>
<ellipse fill="#00bfff" stroke="#00bfff" cx="574" cy="-121" rx="48.19" ry="18"/>
<text text-anchor="middle" x="574" y="-117.3" font-family="Times,serif" font-size="14.00">सर्पाः(6.1)</text>
</g>
<!-- Node9_1 -->
<g id="node8" class="node">
<title>Node9_1</title>
<ellipse fill="#00bfff" stroke="#00bfff" cx="503" cy="-208" rx="49.29" ry="18"/>
<text text-anchor="middle" x="503" y="-204.3" font-family="Times,serif" font-size="14.00">नीताः(9.1)</text>
</g>
<!-- Node6_1&#45;&gt;Node9_1 -->
<g id="edge6" class="edge">
<title>Node6_1&#45;&gt;Node9_1</title>
<path fill="none" stroke="black" d="M556.05,-146.7C549.87,-154.9 542.8,-163.97 536,-172 530.71,-178.24 524.63,-184.84 519.15,-190.6"/>
<polygon fill="black" stroke="black" points="558.94,-148.67 562.1,-138.56 553.33,-144.49 558.94,-148.67"/>
<text text-anchor="middle" x="556" y="-160.8" font-family="Times,serif" font-size="14.00">कर्म</text>
</g>
<!-- Node7_1 -->
<g id="node9" class="node">
<title>Node7_1</title>
<ellipse fill="#ff99ff" stroke="#ff99ff" cx="574" cy="-34" rx="37.89" ry="18"/>
<text text-anchor="middle" x="574" y="-30.3" font-family="Times,serif" font-size="14.00">च(7.1)</text>
</g>
<!-- Node7_1&#45;&gt;Node6_1 -->
<g id="edge7" class="edge">
<title>Node7_1&#45;&gt;Node6_1</title>
<path fill="none" stroke="black" d="M574,-62.27C574,-75.58 574,-91.19 574,-102.82"/>
<polygon fill="black" stroke="black" points="577.5,-62.2 574,-52.2 570.5,-62.2 577.5,-62.2"/>
<text text-anchor="middle" x="592.5" y="-73.8" font-family="Times,serif" font-size="14.00">सम्बन्धः</text>
</g>
<!-- Node8_1 -->
<g id="node10" class="node">
<title>Node8_1</title>
<ellipse fill="#ff99ff" stroke="#ff99ff" cx="448" cy="-121" rx="59.59" ry="18"/>
<text text-anchor="middle" x="448" y="-117.3" font-family="Times,serif" font-size="14.00">भस्मसात्(8.1)</text>
</g>
<!-- Node8_1&#45;&gt;Node9_1 -->
<g id="edge8" class="edge">
<title>Node8_1&#45;&gt;Node9_1</title>
<path fill="none" stroke="black" d="M455.03,-148.68C457.77,-156.55 461.38,-164.94 466,-172 470.65,-179.1 477.01,-185.8 483.15,-191.4"/>
<polygon fill="black" stroke="black" points="458.36,-147.61 452.02,-139.12 451.68,-149.71 458.36,-147.61"/>
<text text-anchor="middle" x="501" y="-160.8" font-family="Times,serif" font-size="14.00">क्रियाविशेषणम्</text>
</g>
<!-- Node10_1 -->
<g id="node11" class="node">
<title>Node10_1</title>
<ellipse fill="#87ceeb" stroke="#87ceeb" cx="682" cy="-34" rx="52.79" ry="18"/>
<text text-anchor="middle" x="682" y="-30.3" font-family="Times,serif" font-size="14.00">पितुः(10.1)</text>
</g>
<!-- Node11_1 -->
<g id="node12" class="node">
<title>Node11_1</title>
<ellipse fill="#93db70" stroke="#93db70" cx="748" cy="-121" rx="59.29" ry="18"/>
<text text-anchor="middle" x="748" y="-117.3" font-family="Times,serif" font-size="14.00">पदवीम्(11.1)</text>
</g>
<!-- Node10_1&#45;&gt;Node11_1 -->
<g id="edge9" class="edge">
<title>Node10_1&#45;&gt;Node11_1</title>
<path fill="none" stroke="black" d="M694.56,-61.05C698.95,-69.07 704.24,-77.7 710,-85 715.34,-91.76 722.01,-98.37 728.28,-103.99"/>
<polygon fill="black" stroke="black" points="697.58,-59.28 689.85,-52.04 691.38,-62.52 697.58,-59.28"/>
<text text-anchor="middle" x="737.5" y="-73.8" font-family="Times,serif" font-size="14.00">षष्ठीसम्बन्धः</text>
</g>
<!-- Node13_1 -->
<g id="node13" class="node">
<title>Node13_1</title>
<ellipse fill="#00bfff" stroke="#00bfff" cx="748" cy="-208" rx="52.79" ry="18"/>
<text text-anchor="middle" x="748" y="-204.3" font-family="Times,serif" font-size="14.00">गताः(13.1)</text>
</g>
<!-- Node11_1&#45;&gt;Node13_1 -->
<g id="edge10" class="edge">
<title>Node11_1&#45;&gt;Node13_1</title>
<path fill="none" stroke="black" d="M748,-149.27C748,-162.58 748,-178.19 748,-189.82"/>
<polygon fill="black" stroke="black" points="751.5,-149.2 748,-139.2 744.5,-149.2 751.5,-149.2"/>
<text text-anchor="middle" x="766.5" y="-160.8" font-family="Times,serif" font-size="14.00">गतिकर्म</text>
</g>
<!-- Node12_1 -->
<g id="node14" class="node">
<title>Node12_1</title>
<ellipse fill="#ff99ff" stroke="#ff99ff" cx="796" cy="-34" rx="43.59" ry="18"/>
<text text-anchor="middle" x="796" y="-30.3" font-family="Times,serif" font-size="14.00">च(12.1)</text>
</g>
<!-- Node12_1&#45;&gt;Node11_1 -->
<g id="edge11" class="edge">
<title>Node12_1&#45;&gt;Node11_1</title>
<path fill="none" stroke="black" d="M781.47,-60.74C773.74,-74.42 764.46,-90.86 757.63,-102.95"/>
<polygon fill="black" stroke="black" points="784.65,-62.22 786.52,-51.79 778.55,-58.78 784.65,-62.22"/>
<text text-anchor="middle" x="792.5" y="-73.8" font-family="Times,serif" font-size="14.00">सम्बन्धः</text>
</g>
</g>
</svg>
