<?xml version="1.0" encoding="UTF-8" standalone="no"?>
<!DOCTYPE svg PUBLIC "-//W3C//DTD SVG 1.1//EN"
 "http://www.w3.org/Graphics/SVG/1.1/DTD/svg11.dtd">
<!-- Generated by graphviz version 2.43.0 (0)
 -->
<!-- Title: G Pages: 1 -->
<svg width="753pt" height="305pt"
 viewBox="0.00 0.00 752.70 305.00" xmlns="http://www.w3.org/2000/svg" xmlns:xlink="http://www.w3.org/1999/xlink">
<g id="graph0" class="graph" transform="scale(1 1) rotate(0) translate(4 301)">
<title>G</title>
<polygon fill="#fffacd" stroke="transparent" points="-4,4 -4,-301 748.7,-301 748.7,4 -4,4"/>
<g id="clust1" class="cluster">
<title>cluster_1</title>
<polygon fill="#fffacd" stroke="black" points="531.7,-79 531.7,-218 736.7,-218 736.7,-79 531.7,-79"/>
</g>
<g id="clust2" class="cluster">
<title>cluster_2</title>
<polygon fill="#fffacd" stroke="black" points="156.7,-79 156.7,-218 418.7,-218 418.7,-79 156.7,-79"/>
</g>
<!-- Node1_1 -->
<g id="node1" class="node">
<title>Node1_1</title>
<ellipse fill="#00bfff" stroke="#00bfff" cx="688.7" cy="-105" rx="40.09" ry="18"/>
<text text-anchor="middle" x="688.7" y="-101.3" font-family="Times,serif" font-size="14.00">सः(1.1)</text>
</g>
<!-- Node3_1 -->
<g id="node2" class="node">
<title>Node3_1</title>
<ellipse fill="#00bfff" stroke="#00bfff" cx="585.7" cy="-192" rx="46.29" ry="18"/>
<text text-anchor="middle" x="585.7" y="-188.3" font-family="Times,serif" font-size="14.00">राजा(3.1)</text>
</g>
<!-- Node1_1&#45;&gt;Node3_1 -->
<g id="edge1" class="edge">
<title>Node1_1&#45;&gt;Node3_1</title>
<path fill="none" stroke="black" d="M665.27,-128.9C655.99,-137.65 645.07,-147.55 634.7,-156 626.27,-162.87 616.6,-169.93 608.09,-175.9"/>
<polygon fill="black" stroke="black" points="667.82,-131.31 672.64,-121.88 662.98,-126.24 667.82,-131.31"/>
<text text-anchor="middle" x="673.2" y="-144.8" font-family="Times,serif" font-size="14.00">विशेषणम्</text>
</g>
<!-- Node10_1 -->
<g id="node8" class="node">
<title>Node10_1</title>
<ellipse fill="#00bfff" stroke="#00bfff" cx="494.7" cy="-279" rx="70.69" ry="18"/>
<text text-anchor="middle" x="494.7" y="-275.3" font-family="Times,serif" font-size="14.00">अवाप्तवान्(10.1)</text>
</g>
<!-- Node3_1&#45;&gt;Node10_1 -->
<g id="edge4" class="edge">
<title>Node3_1&#45;&gt;Node10_1</title>
<path fill="none" stroke="black" d="M560.96,-216.11C545.58,-230.47 526.18,-248.59 512.36,-261.5"/>
<polygon fill="black" stroke="black" points="563.66,-218.37 568.58,-208.99 558.88,-213.26 563.66,-218.37"/>
<text text-anchor="middle" x="556.7" y="-231.8" font-family="Times,serif" font-size="14.00">कर्ता</text>
</g>
<!-- Node2_2 -->
<g id="node3" class="node">
<title>Node2_2</title>
<ellipse fill="#00bfff" stroke="#00bfff" cx="584.7" cy="-105" rx="45.49" ry="18"/>
<text text-anchor="middle" x="584.7" y="-101.3" font-family="Times,serif" font-size="14.00">श्रेष्ठः(2.2)</text>
</g>
<!-- Node2_2&#45;&gt;Node3_1 -->
<g id="edge3" class="edge">
<title>Node2_2&#45;&gt;Node3_1</title>
<path fill="none" stroke="black" d="M585.02,-133.27C585.17,-146.58 585.36,-162.19 585.49,-173.82"/>
<polygon fill="black" stroke="black" points="588.52,-133.16 584.9,-123.2 581.52,-133.24 588.52,-133.16"/>
<text text-anchor="middle" x="608.2" y="-144.8" font-family="Times,serif" font-size="14.00">विशेषणम्</text>
</g>
<!-- Node7_2 -->
<g id="node4" class="node">
<title>Node7_2</title>
<ellipse fill="#93db70" stroke="#93db70" cx="227.7" cy="-105" rx="63.09" ry="18"/>
<text text-anchor="middle" x="227.7" y="-101.3" font-family="Times,serif" font-size="14.00">उपनिषदम्(7.2)</text>
</g>
<!-- Node4_2 -->
<g id="node5" class="node">
<title>Node4_2</title>
<ellipse fill="#93db70" stroke="#93db70" cx="359.7" cy="-192" rx="50.09" ry="18"/>
<text text-anchor="middle" x="359.7" y="-188.3" font-family="Times,serif" font-size="14.00">धर्मान्(4.2)</text>
</g>
<!-- Node7_2&#45;&gt;Node4_2 -->
<g id="edge10" class="edge">
<title>Node7_2&#45;&gt;Node4_2</title>
<path fill="none" stroke="black" d="M260.81,-127.32C284.29,-142.44 315.22,-162.36 336.2,-175.87"/>
<polygon fill="black" stroke="black" points="262.52,-124.26 252.22,-121.79 258.73,-130.15 262.52,-124.26"/>
<text text-anchor="middle" x="324.2" y="-144.8" font-family="Times,serif" font-size="14.00">समुच्चितः</text>
</g>
<!-- Node4_2&#45;&gt;Node10_1 -->
<g id="edge6" class="edge">
<title>Node4_2&#45;&gt;Node10_1</title>
<path fill="none" stroke="black" d="M392.16,-213.44C415.83,-228.34 447.44,-248.25 469.28,-261.99"/>
<polygon fill="black" stroke="black" points="393.85,-210.37 383.52,-208 390.12,-216.29 393.85,-210.37"/>
<text text-anchor="middle" x="444.7" y="-231.8" font-family="Times,serif" font-size="14.00">कर्म</text>
</g>
<!-- Node8_2 -->
<g id="node6" class="node">
<title>Node8_2</title>
<ellipse fill="#93db70" stroke="#93db70" cx="359.7" cy="-105" rx="50.89" ry="18"/>
<text text-anchor="middle" x="359.7" y="-101.3" font-family="Times,serif" font-size="14.00">निश्चयं(8.2)</text>
</g>
<!-- Node8_2&#45;&gt;Node4_2 -->
<g id="edge12" class="edge">
<title>Node8_2&#45;&gt;Node4_2</title>
<path fill="none" stroke="black" d="M359.7,-133.27C359.7,-146.58 359.7,-162.19 359.7,-173.82"/>
<polygon fill="black" stroke="black" points="363.2,-133.2 359.7,-123.2 356.2,-133.2 363.2,-133.2"/>
<text text-anchor="middle" x="382.2" y="-144.8" font-family="Times,serif" font-size="14.00">समुच्चितः</text>
</g>
<!-- Node2_1 -->
<g id="node7" class="node">
<title>Node2_1</title>
<ellipse fill="#ffff00" stroke="#ffff00" cx="584.7" cy="-18" rx="43.59" ry="18"/>
<text text-anchor="middle" x="584.7" y="-14.3" font-family="Times,serif" font-size="14.00">नर&#45;(2.1)</text>
</g>
<!-- Node2_1&#45;&gt;Node2_2 -->
<g id="edge2" class="edge">
<title>Node2_1&#45;&gt;Node2_2</title>
<path fill="none" stroke="black" d="M584.7,-46.27C584.7,-59.58 584.7,-75.19 584.7,-86.82"/>
<polygon fill="black" stroke="black" points="588.2,-46.2 584.7,-36.2 581.2,-46.2 588.2,-46.2"/>
<text text-anchor="middle" x="601.7" y="-57.8" font-family="Times,serif" font-size="14.00">समासः</text>
</g>
<!-- Node4_1 -->
<g id="node9" class="node">
<title>Node4_1</title>
<ellipse fill="#ffff00" stroke="#ffff00" cx="474.7" cy="-105" rx="46.59" ry="18"/>
<text text-anchor="middle" x="474.7" y="-101.3" font-family="Times,serif" font-size="14.00">राज&#45;(4.1)</text>
</g>
<!-- Node4_1&#45;&gt;Node4_2 -->
<g id="edge5" class="edge">
<title>Node4_1&#45;&gt;Node4_2</title>
<path fill="none" stroke="black" d="M446.51,-127.63C434.86,-136.5 421.18,-146.81 408.7,-156 399.94,-162.44 390.21,-169.43 381.74,-175.45"/>
<polygon fill="black" stroke="black" points="448.76,-130.31 454.59,-121.47 444.51,-124.75 448.76,-130.31"/>
<text text-anchor="middle" x="446.7" y="-144.8" font-family="Times,serif" font-size="14.00">समासः</text>
</g>
<!-- Node5_1 -->
<g id="node10" class="node">
<title>Node5_1</title>
<ellipse fill="#ff99ff" stroke="#ff99ff" cx="37.7" cy="-18" rx="37.89" ry="18"/>
<text text-anchor="middle" x="37.7" y="-14.3" font-family="Times,serif" font-size="14.00">च(5.1)</text>
</g>
<!-- Node5_1&#45;&gt;Node7_2 -->
<g id="edge7" class="edge">
<title>Node5_1&#45;&gt;Node7_2</title>
<path fill="none" stroke="black" d="M60.3,-41.42C71.14,-51.1 84.79,-61.83 98.7,-69 122.42,-81.22 150.86,-89.53 174.99,-94.97"/>
<polygon fill="black" stroke="black" points="62.65,-38.83 52.93,-34.62 57.9,-43.97 62.65,-38.83"/>
<text text-anchor="middle" x="136.7" y="-57.8" font-family="Times,serif" font-size="14.00">समुच्चय_द्योतकः</text>
</g>
<!-- Node6_1 -->
<g id="node11" class="node">
<title>Node6_1</title>
<ellipse fill="#ff99ff" stroke="#ff99ff" cx="138.7" cy="-18" rx="44.69" ry="18"/>
<text text-anchor="middle" x="138.7" y="-14.3" font-family="Times,serif" font-size="14.00">तथा(6.1)</text>
</g>
<!-- Node6_1&#45;&gt;Node7_2 -->
<g id="edge8" class="edge">
<title>Node6_1&#45;&gt;Node7_2</title>
<path fill="none" stroke="black" d="M162.89,-42.11C177.93,-56.47 196.9,-74.59 210.42,-87.5"/>
<polygon fill="black" stroke="black" points="165.09,-39.36 155.44,-34.99 160.25,-44.43 165.09,-39.36"/>
<text text-anchor="middle" x="207.2" y="-57.8" font-family="Times,serif" font-size="14.00">सम्बन्धः</text>
</g>
<!-- Node7_1 -->
<g id="node12" class="node">
<title>Node7_1</title>
<ellipse fill="#ffff00" stroke="#ffff00" cx="247.7" cy="-18" rx="46.29" ry="18"/>
<text text-anchor="middle" x="247.7" y="-14.3" font-family="Times,serif" font-size="14.00">ब्रह्म&#45;(7.1)</text>
</g>
<!-- Node7_1&#45;&gt;Node7_2 -->
<g id="edge9" class="edge">
<title>Node7_1&#45;&gt;Node7_2</title>
<path fill="none" stroke="black" d="M241.28,-46.27C238.15,-59.58 234.47,-75.19 231.74,-86.82"/>
<polygon fill="black" stroke="black" points="244.77,-46.74 243.65,-36.2 237.95,-45.13 244.77,-46.74"/>
<text text-anchor="middle" x="256.7" y="-57.8" font-family="Times,serif" font-size="14.00">समासः</text>
</g>
<!-- Node8_1 -->
<g id="node13" class="node">
<title>Node8_1</title>
<ellipse fill="#ffff00" stroke="#ffff00" cx="359.7" cy="-18" rx="47.39" ry="18"/>
<text text-anchor="middle" x="359.7" y="-14.3" font-family="Times,serif" font-size="14.00">बुद्धि&#45;(8.1)</text>
</g>
<!-- Node8_1&#45;&gt;Node8_2 -->
<g id="edge11" class="edge">
<title>Node8_1&#45;&gt;Node8_2</title>
<path fill="none" stroke="black" d="M359.7,-46.27C359.7,-59.58 359.7,-75.19 359.7,-86.82"/>
<polygon fill="black" stroke="black" points="363.2,-46.2 359.7,-36.2 356.2,-46.2 363.2,-46.2"/>
<text text-anchor="middle" x="376.7" y="-57.8" font-family="Times,serif" font-size="14.00">समासः</text>
</g>
<!-- Node9_1 -->
<g id="node14" class="node">
<title>Node9_1</title>
<ellipse fill="#ff99ff" stroke="#ff99ff" cx="467.7" cy="-18" rx="42.49" ry="18"/>
<text text-anchor="middle" x="467.7" y="-14.3" font-family="Times,serif" font-size="14.00">चैव(9.1)</text>
</g>
<!-- Node9_1&#45;&gt;Node8_2 -->
<g id="edge13" class="edge">
<title>Node9_1&#45;&gt;Node8_2</title>
<path fill="none" stroke="black" d="M440.41,-40.48C421.46,-55.39 396.65,-74.91 379.57,-88.36"/>
<polygon fill="black" stroke="black" points="442.69,-43.13 448.39,-34.2 438.37,-37.63 442.69,-43.13"/>
<text text-anchor="middle" x="458.7" y="-57.8" font-family="Times,serif" font-size="14.00">समुच्चय_द्योतकः</text>
</g>
</g>
</svg>
