<?xml version="1.0" encoding="UTF-8" standalone="no"?>
<!DOCTYPE svg PUBLIC "-//W3C//DTD SVG 1.1//EN"
 "http://www.w3.org/Graphics/SVG/1.1/DTD/svg11.dtd">
<!-- Generated by graphviz version 2.43.0 (0)
 -->
<!-- Title: G Pages: 1 -->
<svg width="922pt" height="305pt"
 viewBox="0.00 0.00 922.35 305.00" xmlns="http://www.w3.org/2000/svg" xmlns:xlink="http://www.w3.org/1999/xlink">
<g id="graph0" class="graph" transform="scale(1 1) rotate(0) translate(4 301)">
<title>G</title>
<polygon fill="#fffacd" stroke="transparent" points="-4,4 -4,-301 918.35,-301 918.35,4 -4,4"/>
<g id="clust1" class="cluster">
<title>cluster_1</title>
<polygon fill="#fffacd" stroke="black" points="8,-79 8,-218 362,-218 362,-79 8,-79"/>
</g>
<!-- Node2_1 -->
<g id="node1" class="node">
<title>Node2_1</title>
<ellipse fill="#93db70" stroke="#93db70" cx="297" cy="-105" rx="56.59" ry="18"/>
<text text-anchor="middle" x="297" y="-101.3" font-family="Times,serif" font-size="14.00">अच्युतम्(2.1)</text>
</g>
<!-- Node5_1 -->
<g id="node2" class="node">
<title>Node5_1</title>
<ellipse fill="#93db70" stroke="#93db70" cx="238" cy="-192" rx="67.69" ry="18"/>
<text text-anchor="middle" x="238" y="-188.3" font-family="Times,serif" font-size="14.00">वैशम्पायनम्(5.1)</text>
</g>
<!-- Node2_1&#45;&gt;Node5_1 -->
<g id="edge2" class="edge">
<title>Node2_1&#45;&gt;Node5_1</title>
<path fill="none" stroke="black" d="M279.37,-131.4C269.75,-145.26 258.11,-162.03 249.63,-174.24"/>
<polygon fill="black" stroke="black" points="282.52,-133 285.34,-122.79 276.77,-129.01 282.52,-133"/>
<text text-anchor="middle" x="294.5" y="-144.8" font-family="Times,serif" font-size="14.00">विशेषणम्</text>
</g>
<!-- Node11_1 -->
<g id="node6" class="node">
<title>Node11_1</title>
<ellipse fill="#ff1975" stroke="#ff1975" cx="516" cy="-279" rx="53.89" ry="18"/>
<text text-anchor="middle" x="516" y="-275.3" font-family="Times,serif" font-size="14.00">पप्रछ(11.1)</text>
</g>
<!-- Node5_1&#45;&gt;Node11_1 -->
<g id="edge5" class="edge">
<title>Node5_1&#45;&gt;Node11_1</title>
<path fill="none" stroke="black" d="M290.34,-209C344.81,-225.66 428.83,-251.35 477.51,-266.23"/>
<polygon fill="black" stroke="black" points="291.11,-205.58 280.52,-206 289.06,-212.27 291.11,-205.58"/>
<text text-anchor="middle" x="414" y="-231.8" font-family="Times,serif" font-size="14.00">मुख्यकर्म</text>
</g>
<!-- Node3_1 -->
<g id="node3" class="node">
<title>Node3_1</title>
<ellipse fill="#93db70" stroke="#93db70" cx="180" cy="-105" rx="42.49" ry="18"/>
<text text-anchor="middle" x="180" y="-101.3" font-family="Times,serif" font-size="14.00">तम्(3.1)</text>
</g>
<!-- Node3_1&#45;&gt;Node5_1 -->
<g id="edge3" class="edge">
<title>Node3_1&#45;&gt;Node5_1</title>
<path fill="none" stroke="black" d="M197.05,-130.99C206.52,-144.87 218.05,-161.76 226.45,-174.08"/>
<polygon fill="black" stroke="black" points="199.71,-128.68 191.18,-122.39 193.93,-132.62 199.71,-128.68"/>
<text text-anchor="middle" x="235.5" y="-144.8" font-family="Times,serif" font-size="14.00">विशेषणम्</text>
</g>
<!-- Node4_1 -->
<g id="node4" class="node">
<title>Node4_1</title>
<ellipse fill="#93db70" stroke="#93db70" cx="68" cy="-105" rx="51.99" ry="18"/>
<text text-anchor="middle" x="68" y="-101.3" font-family="Times,serif" font-size="14.00">ऋषिम्(4.1)</text>
</g>
<!-- Node4_1&#45;&gt;Node5_1 -->
<g id="edge4" class="edge">
<title>Node4_1&#45;&gt;Node5_1</title>
<path fill="none" stroke="black" d="M101.67,-126.01C118.13,-135.51 138.37,-146.77 157,-156 171.69,-163.27 188.25,-170.58 202.55,-176.63"/>
<polygon fill="black" stroke="black" points="103.35,-122.93 92.94,-120.93 99.83,-128.99 103.35,-122.93"/>
<text text-anchor="middle" x="179.5" y="-144.8" font-family="Times,serif" font-size="14.00">विशेषणम्</text>
</g>
<!-- Node1_1 -->
<g id="node5" class="node">
<title>Node1_1</title>
<ellipse fill="#6fffc3" stroke="#6fffc3" cx="468" cy="-192" rx="48.99" ry="18"/>
<text text-anchor="middle" x="468" y="-188.3" font-family="Times,serif" font-size="14.00">सत्तम(1.1)</text>
</g>
<!-- Node1_1&#45;&gt;Node11_1 -->
<g id="edge1" class="edge">
<title>Node1_1&#45;&gt;Node11_1</title>
<path fill="none" stroke="black" d="M482.57,-218.8C490.35,-232.58 499.7,-249.14 506.54,-261.24"/>
<polygon fill="black" stroke="black" points="485.45,-216.78 477.48,-209.79 479.35,-220.22 485.45,-216.78"/>
<text text-anchor="middle" x="516" y="-231.8" font-family="Times,serif" font-size="14.00">सम्बोध्यः</text>
</g>
<!-- Node6_1 -->
<g id="node7" class="node">
<title>Node6_1</title>
<ellipse fill="#ffff00" stroke="#ffff00" cx="425" cy="-18" rx="44.39" ry="18"/>
<text text-anchor="middle" x="425" y="-14.3" font-family="Times,serif" font-size="14.00">वन&#45;(6.1)</text>
</g>
<!-- Node6_2 -->
<g id="node8" class="node">
<title>Node6_2</title>
<ellipse fill="#87ceeb" stroke="#87ceeb" cx="425" cy="-105" rx="53.89" ry="18"/>
<text text-anchor="middle" x="425" y="-101.3" font-family="Times,serif" font-size="14.00">वासस्य(6.2)</text>
</g>
<!-- Node6_1&#45;&gt;Node6_2 -->
<g id="edge6" class="edge">
<title>Node6_1&#45;&gt;Node6_2</title>
<path fill="none" stroke="black" d="M425,-46.27C425,-59.58 425,-75.19 425,-86.82"/>
<polygon fill="black" stroke="black" points="428.5,-46.2 425,-36.2 421.5,-46.2 428.5,-46.2"/>
<text text-anchor="middle" x="442" y="-57.8" font-family="Times,serif" font-size="14.00">समासः</text>
</g>
<!-- Node7_2 -->
<g id="node9" class="node">
<title>Node7_2</title>
<ellipse fill="#93db70" stroke="#93db70" cx="596" cy="-192" rx="61.19" ry="18"/>
<text text-anchor="middle" x="596" y="-188.3" font-family="Times,serif" font-size="14.00">अवशेषाम्(7.2)</text>
</g>
<!-- Node6_2&#45;&gt;Node7_2 -->
<g id="edge7" class="edge">
<title>Node6_2&#45;&gt;Node7_2</title>
<path fill="none" stroke="black" d="M456.89,-126.88C472.04,-136.37 490.61,-147.38 508,-156 524.2,-164.04 542.73,-171.63 558.59,-177.67"/>
<polygon fill="black" stroke="black" points="458.71,-123.9 448.39,-121.5 454.96,-129.81 458.71,-123.9"/>
<text text-anchor="middle" x="535.5" y="-144.8" font-family="Times,serif" font-size="14.00">षष्ठीसम्बन्धः</text>
</g>
<!-- Node7_2&#45;&gt;Node11_1 -->
<g id="edge9" class="edge">
<title>Node7_2&#45;&gt;Node11_1</title>
<path fill="none" stroke="black" d="M573.16,-217.27C559.81,-231.45 543.33,-248.96 531.5,-261.53"/>
<polygon fill="black" stroke="black" points="575.89,-219.47 580.19,-209.79 570.79,-214.68 575.89,-219.47"/>
<text text-anchor="middle" x="570" y="-231.8" font-family="Times,serif" font-size="14.00">कर्म</text>
</g>
<!-- Node7_1 -->
<g id="node10" class="node">
<title>Node7_1</title>
<ellipse fill="#ffff00" stroke="#ffff00" cx="544" cy="-105" rx="46.59" ry="18"/>
<text text-anchor="middle" x="544" y="-101.3" font-family="Times,serif" font-size="14.00">कथ&#45;(7.1)</text>
</g>
<!-- Node7_1&#45;&gt;Node7_2 -->
<g id="edge8" class="edge">
<title>Node7_1&#45;&gt;Node7_2</title>
<path fill="none" stroke="black" d="M559.54,-131.4C568.02,-145.26 578.27,-162.03 585.75,-174.24"/>
<polygon fill="black" stroke="black" points="562.48,-129.5 554.27,-122.79 556.51,-133.15 562.48,-129.5"/>
<text text-anchor="middle" x="591" y="-144.8" font-family="Times,serif" font-size="14.00">समासः</text>
</g>
<!-- Node8_1 -->
<g id="node11" class="node">
<title>Node8_1</title>
<ellipse fill="#ff99ff" stroke="#ff99ff" cx="646" cy="-105" rx="37.89" ry="18"/>
<text text-anchor="middle" x="646" y="-101.3" font-family="Times,serif" font-size="14.00">च(8.1)</text>
</g>
<!-- Node8_1&#45;&gt;Node7_2 -->
<g id="edge10" class="edge">
<title>Node8_1&#45;&gt;Node7_2</title>
<path fill="none" stroke="black" d="M630.86,-131.74C622.81,-145.42 613.14,-161.86 606.03,-173.95"/>
<polygon fill="black" stroke="black" points="634.07,-133.19 636.12,-122.79 628.03,-129.64 634.07,-133.19"/>
<text text-anchor="middle" x="642.5" y="-144.8" font-family="Times,serif" font-size="14.00">सम्बन्धः</text>
</g>
<!-- Node9_1 -->
<g id="node12" class="node">
<title>Node9_1</title>
<ellipse fill="#ff99ff" stroke="#ff99ff" cx="748" cy="-105" rx="46.29" ry="18"/>
<text text-anchor="middle" x="748" y="-101.3" font-family="Times,serif" font-size="14.00">अपि(9.1)</text>
</g>
<!-- Node9_1&#45;&gt;Node7_2 -->
<g id="edge11" class="edge">
<title>Node9_1&#45;&gt;Node7_2</title>
<path fill="none" stroke="black" d="M716.07,-125.98C700.78,-135.36 682.1,-146.53 665,-156 652.43,-162.96 638.31,-170.22 626.14,-176.31"/>
<polygon fill="black" stroke="black" points="717.98,-128.91 724.65,-120.69 714.31,-122.95 717.98,-128.91"/>
<text text-anchor="middle" x="708.5" y="-144.8" font-family="Times,serif" font-size="14.00">सम्बन्धः</text>
</g>
<!-- Node10_1 -->
<g id="node13" class="node">
<title>Node10_1</title>
<ellipse fill="#ffff00" stroke="#ffff00" cx="863" cy="-105" rx="51.19" ry="18"/>
<text text-anchor="middle" x="863" y="-101.3" font-family="Times,serif" font-size="14.00">धर्म&#45;(10.1)</text>
</g>
<!-- Node10_2 -->
<g id="node14" class="node">
<title>Node10_2</title>
<ellipse fill="#00bfff" stroke="#00bfff" cx="799" cy="-192" rx="46.29" ry="18"/>
<text text-anchor="middle" x="799" y="-188.3" font-family="Times,serif" font-size="14.00">ज्ञः(10.2)</text>
</g>
<!-- Node10_1&#45;&gt;Node10_2 -->
<g id="edge12" class="edge">
<title>Node10_1&#45;&gt;Node10_2</title>
<path fill="none" stroke="black" d="M844.13,-131.06C833.56,-145.09 820.69,-162.19 811.4,-174.53"/>
<polygon fill="black" stroke="black" points="847.14,-132.89 850.36,-122.79 841.54,-128.68 847.14,-132.89"/>
<text text-anchor="middle" x="851" y="-144.8" font-family="Times,serif" font-size="14.00">समासः</text>
</g>
<!-- Node10_2&#45;&gt;Node11_1 -->
<g id="edge13" class="edge">
<title>Node10_2&#45;&gt;Node11_1</title>
<path fill="none" stroke="black" d="M753.61,-206.63C698.56,-223.17 606.71,-250.76 554.81,-266.34"/>
<polygon fill="black" stroke="black" points="754.87,-209.91 763.44,-203.68 752.86,-203.2 754.87,-209.91"/>
<text text-anchor="middle" x="685" y="-231.8" font-family="Times,serif" font-size="14.00">कर्ता</text>
</g>
</g>
</svg>
