<?xml version="1.0" encoding="UTF-8" standalone="no"?>
<!DOCTYPE svg PUBLIC "-//W3C//DTD SVG 1.1//EN"
 "http://www.w3.org/Graphics/SVG/1.1/DTD/svg11.dtd">
<!-- Generated by graphviz version 2.43.0 (0)
 -->
<!-- Title: G Pages: 1 -->
<svg width="871pt" height="408pt"
 viewBox="0.00 0.00 871.00 408.00" xmlns="http://www.w3.org/2000/svg" xmlns:xlink="http://www.w3.org/1999/xlink">
<g id="graph0" class="graph" transform="scale(1 1) rotate(0) translate(4 404)">
<title>G</title>
<polygon fill="#fffacd" stroke="transparent" points="-4,4 -4,-404 867,-404 867,4 -4,4"/>
<g id="clust1" class="cluster">
<title>cluster_1</title>
<polygon fill="#fffacd" stroke="black" points="374,-166 374,-305 855,-305 855,-166 374,-166"/>
</g>
<g id="clust2" class="cluster">
<title>cluster_2</title>
<polygon fill="#fffacd" stroke="black" points="8,-253 8,-392 130,-392 130,-253 8,-253"/>
</g>
<!-- Node3_1 -->
<g id="node1" class="node">
<title>Node3_1</title>
<ellipse fill="#93db70" stroke="#93db70" cx="437" cy="-192" rx="55.49" ry="18"/>
<text text-anchor="middle" x="437" y="-188.3" font-family="Times,serif" font-size="14.00">आगतम्(3.1)</text>
</g>
<!-- Node7_1 -->
<g id="node2" class="node">
<title>Node7_1</title>
<ellipse fill="#93db70" stroke="#93db70" cx="562" cy="-279" rx="52.79" ry="18"/>
<text text-anchor="middle" x="562" y="-275.3" font-family="Times,serif" font-size="14.00">पितरम्(7.1)</text>
</g>
<!-- Node3_1&#45;&gt;Node7_1 -->
<g id="edge3" class="edge">
<title>Node3_1&#45;&gt;Node7_1</title>
<path fill="none" stroke="black" d="M468.3,-214.28C490.34,-229.27 519.35,-249 539.22,-262.51"/>
<polygon fill="black" stroke="black" points="470.16,-211.32 459.93,-208.59 466.23,-217.11 470.16,-211.32"/>
<text text-anchor="middle" x="529.5" y="-231.8" font-family="Times,serif" font-size="14.00">विशेषणम्</text>
</g>
<!-- Node10_1 -->
<g id="node7" class="node">
<title>Node10_1</title>
<ellipse fill="#ff1975" stroke="#ff1975" cx="69" cy="-366" rx="52.79" ry="18"/>
<text text-anchor="middle" x="69" y="-362.3" font-family="Times,serif" font-size="14.00">ददर्श(10.1)</text>
</g>
<!-- Node7_1&#45;&gt;Node10_1 -->
<g id="edge11" class="edge">
<title>Node7_1&#45;&gt;Node10_1</title>
<path fill="none" stroke="black" d="M506.02,-289.65C407.69,-306.61 205.78,-341.42 115,-357.07"/>
<polygon fill="black" stroke="black" points="506.8,-293.07 516.06,-287.92 505.61,-286.17 506.8,-293.07"/>
<text text-anchor="middle" x="355" y="-318.8" font-family="Times,serif" font-size="14.00">कर्म</text>
</g>
<!-- Node4_3 -->
<g id="node3" class="node">
<title>Node4_3</title>
<ellipse fill="#93db70" stroke="#93db70" cx="562" cy="-192" rx="51.99" ry="18"/>
<text text-anchor="middle" x="562" y="-188.3" font-family="Times,serif" font-size="14.00">वयसम्(4.3)</text>
</g>
<!-- Node4_3&#45;&gt;Node7_1 -->
<g id="edge6" class="edge">
<title>Node4_3&#45;&gt;Node7_1</title>
<path fill="none" stroke="black" d="M562,-220.27C562,-233.58 562,-249.19 562,-260.82"/>
<polygon fill="black" stroke="black" points="565.5,-220.2 562,-210.2 558.5,-220.2 565.5,-220.2"/>
<text text-anchor="middle" x="584.5" y="-231.8" font-family="Times,serif" font-size="14.00">विशेषणम्</text>
</g>
<!-- Node5_2 -->
<g id="node4" class="node">
<title>Node5_2</title>
<ellipse fill="#93db70" stroke="#93db70" cx="681" cy="-192" rx="49.29" ry="18"/>
<text text-anchor="middle" x="681" y="-188.3" font-family="Times,serif" font-size="14.00">पतिम्(5.2)</text>
</g>
<!-- Node5_2&#45;&gt;Node7_1 -->
<g id="edge8" class="edge">
<title>Node5_2&#45;&gt;Node7_1</title>
<path fill="none" stroke="black" d="M651.21,-214.28C630.26,-229.24 602.7,-248.93 583.79,-262.43"/>
<polygon fill="black" stroke="black" points="653.35,-217.05 659.45,-208.39 649.28,-211.36 653.35,-217.05"/>
<text text-anchor="middle" x="650.5" y="-231.8" font-family="Times,serif" font-size="14.00">विशेषणम्</text>
</g>
<!-- Node6_2 -->
<g id="node5" class="node">
<title>Node6_2</title>
<ellipse fill="#93db70" stroke="#93db70" cx="798" cy="-192" rx="49.29" ry="18"/>
<text text-anchor="middle" x="798" y="-188.3" font-family="Times,serif" font-size="14.00">मन्तम्(6.2)</text>
</g>
<!-- Node6_2&#45;&gt;Node7_1 -->
<g id="edge10" class="edge">
<title>Node6_2&#45;&gt;Node7_1</title>
<path fill="none" stroke="black" d="M758.7,-210.37C735.21,-220.46 704.65,-233.11 677,-243 652.14,-251.89 623.77,-260.55 601.43,-267.02"/>
<polygon fill="black" stroke="black" points="760.19,-213.53 767.98,-206.35 757.41,-207.11 760.19,-213.53"/>
<text text-anchor="middle" x="735.5" y="-231.8" font-family="Times,serif" font-size="14.00">विशेषणम्</text>
</g>
<!-- Node8_1 -->
<g id="node6" class="node">
<title>Node8_1</title>
<ellipse fill="#00bfff" stroke="#00bfff" cx="69" cy="-279" rx="46.29" ry="18"/>
<text text-anchor="middle" x="69" y="-275.3" font-family="Times,serif" font-size="14.00">राजा(8.1)</text>
</g>
<!-- Node8_1&#45;&gt;Node10_1 -->
<g id="edge12" class="edge">
<title>Node8_1&#45;&gt;Node10_1</title>
<path fill="none" stroke="black" d="M69,-307.27C69,-320.58 69,-336.19 69,-347.82"/>
<polygon fill="black" stroke="black" points="72.5,-307.2 69,-297.2 65.5,-307.2 72.5,-307.2"/>
<text text-anchor="middle" x="91.5" y="-318.8" font-family="Times,serif" font-size="14.00">विशेषणम्</text>
</g>
<!-- Node1_1 -->
<g id="node8" class="node">
<title>Node1_1</title>
<ellipse fill="#ff99ff" stroke="#ff99ff" cx="182" cy="-279" rx="44.39" ry="18"/>
<text text-anchor="middle" x="182" y="-275.3" font-family="Times,serif" font-size="14.00">ततः(1.1)</text>
</g>
<!-- Node1_1&#45;&gt;Node10_1 -->
<g id="edge1" class="edge">
<title>Node1_1&#45;&gt;Node10_1</title>
<path fill="none" stroke="black" d="M154.99,-301.52C143.65,-310.44 130.27,-320.83 118,-330 109.29,-336.51 99.57,-343.5 91.1,-349.52"/>
<polygon fill="black" stroke="black" points="157.16,-304.26 162.84,-295.31 152.83,-298.77 157.16,-304.26"/>
<text text-anchor="middle" x="173.5" y="-318.8" font-family="Times,serif" font-size="14.00">कालाधिकरणम्</text>
</g>
<!-- Node2_1 -->
<g id="node9" class="node">
<title>Node2_1</title>
<ellipse fill="#b4ffb4" stroke="#b4ffb4" cx="437" cy="-105" rx="46.29" ry="18"/>
<text text-anchor="middle" x="437" y="-101.3" font-family="Times,serif" font-size="14.00">दिवः(2.1)</text>
</g>
<!-- Node2_1&#45;&gt;Node3_1 -->
<g id="edge2" class="edge">
<title>Node2_1&#45;&gt;Node3_1</title>
<path fill="none" stroke="black" d="M437,-133.27C437,-146.58 437,-162.19 437,-173.82"/>
<polygon fill="black" stroke="black" points="440.5,-133.2 437,-123.2 433.5,-133.2 440.5,-133.2"/>
<text text-anchor="middle" x="460.5" y="-144.8" font-family="Times,serif" font-size="14.00">अपादानम्</text>
</g>
<!-- Node4_1 -->
<g id="node10" class="node">
<title>Node4_1</title>
<ellipse fill="#ffff00" stroke="#ffff00" cx="562" cy="-18" rx="44.69" ry="18"/>
<text text-anchor="middle" x="562" y="-14.3" font-family="Times,serif" font-size="14.00">तत्&#45;(4.1)</text>
</g>
<!-- Node4_2 -->
<g id="node11" class="node">
<title>Node4_2</title>
<ellipse fill="#ffff00" stroke="#ffff00" cx="562" cy="-105" rx="45.49" ry="18"/>
<text text-anchor="middle" x="562" y="-101.3" font-family="Times,serif" font-size="14.00">रूप&#45;(4.2)</text>
</g>
<!-- Node4_1&#45;&gt;Node4_2 -->
<g id="edge4" class="edge">
<title>Node4_1&#45;&gt;Node4_2</title>
<path fill="none" stroke="black" d="M562,-46.27C562,-59.58 562,-75.19 562,-86.82"/>
<polygon fill="black" stroke="black" points="565.5,-46.2 562,-36.2 558.5,-46.2 565.5,-46.2"/>
<text text-anchor="middle" x="579" y="-57.8" font-family="Times,serif" font-size="14.00">समासः</text>
</g>
<!-- Node4_2&#45;&gt;Node4_3 -->
<g id="edge5" class="edge">
<title>Node4_2&#45;&gt;Node4_3</title>
<path fill="none" stroke="black" d="M562,-133.27C562,-146.58 562,-162.19 562,-173.82"/>
<polygon fill="black" stroke="black" points="565.5,-133.2 562,-123.2 558.5,-133.2 565.5,-133.2"/>
<text text-anchor="middle" x="579" y="-144.8" font-family="Times,serif" font-size="14.00">समासः</text>
</g>
<!-- Node5_1 -->
<g id="node12" class="node">
<title>Node5_1</title>
<ellipse fill="#ffff00" stroke="#ffff00" cx="681" cy="-105" rx="40.09" ry="18"/>
<text text-anchor="middle" x="681" y="-101.3" font-family="Times,serif" font-size="14.00">नृ&#45;(5.1)</text>
</g>
<!-- Node5_1&#45;&gt;Node5_2 -->
<g id="edge7" class="edge">
<title>Node5_1&#45;&gt;Node5_2</title>
<path fill="none" stroke="black" d="M681,-133.27C681,-146.58 681,-162.19 681,-173.82"/>
<polygon fill="black" stroke="black" points="684.5,-133.2 681,-123.2 677.5,-133.2 684.5,-133.2"/>
<text text-anchor="middle" x="698" y="-144.8" font-family="Times,serif" font-size="14.00">समासः</text>
</g>
<!-- Node6_1 -->
<g id="node13" class="node">
<title>Node6_1</title>
<ellipse fill="#ffff00" stroke="#ffff00" cx="798" cy="-105" rx="43.59" ry="18"/>
<text text-anchor="middle" x="798" y="-101.3" font-family="Times,serif" font-size="14.00">श्री&#45;(6.1)</text>
</g>
<!-- Node6_1&#45;&gt;Node6_2 -->
<g id="edge9" class="edge">
<title>Node6_1&#45;&gt;Node6_2</title>
<path fill="none" stroke="black" d="M798,-133.27C798,-146.58 798,-162.19 798,-173.82"/>
<polygon fill="black" stroke="black" points="801.5,-133.2 798,-123.2 794.5,-133.2 801.5,-133.2"/>
<text text-anchor="middle" x="815" y="-144.8" font-family="Times,serif" font-size="14.00">समासः</text>
</g>
<!-- Node9_1 -->
<g id="node14" class="node">
<title>Node9_1</title>
<ellipse fill="#00bfff" stroke="#00bfff" cx="305" cy="-279" rx="61.19" ry="18"/>
<text text-anchor="middle" x="305" y="-275.3" font-family="Times,serif" font-size="14.00">जनमेजयः(9.1)</text>
</g>
<!-- Node9_1&#45;&gt;Node10_1 -->
<g id="edge13" class="edge">
<title>Node9_1&#45;&gt;Node10_1</title>
<path fill="none" stroke="black" d="M271.48,-300.95C254.47,-310.87 233.18,-322.22 213,-330 181.19,-342.27 143.74,-351.21 115,-356.99"/>
<polygon fill="black" stroke="black" points="273.65,-303.74 280.46,-295.62 270.08,-297.72 273.65,-303.74"/>
<text text-anchor="middle" x="256" y="-318.8" font-family="Times,serif" font-size="14.00">कर्ता</text>
</g>
</g>
</svg>
