<?xml version="1.0" encoding="UTF-8" standalone="no"?>
<!DOCTYPE svg PUBLIC "-//W3C//DTD SVG 1.1//EN"
 "http://www.w3.org/Graphics/SVG/1.1/DTD/svg11.dtd">
<!-- Generated by graphviz version 2.43.0 (0)
 -->
<!-- Title: G Pages: 1 -->
<svg width="946pt" height="305pt"
 viewBox="0.00 0.00 946.04 305.00" xmlns="http://www.w3.org/2000/svg" xmlns:xlink="http://www.w3.org/1999/xlink">
<g id="graph0" class="graph" transform="scale(1 1) rotate(0) translate(4 301)">
<title>G</title>
<polygon fill="#fffacd" stroke="transparent" points="-4,4 -4,-301 942.04,-301 942.04,4 -4,4"/>
<g id="clust1" class="cluster">
<title>cluster_1</title>
<polygon fill="#fffacd" stroke="black" points="98.2,-79 98.2,-218 336.2,-218 336.2,-79 98.2,-79"/>
</g>
<g id="clust2" class="cluster">
<title>cluster_2</title>
<polygon fill="#fffacd" stroke="black" points="542.2,-79 542.2,-218 814.2,-218 814.2,-79 542.2,-79"/>
</g>
<!-- Node2_1 -->
<g id="node1" class="node">
<title>Node2_1</title>
<ellipse fill="#00bfff" stroke="#00bfff" cx="280.2" cy="-105" rx="48.19" ry="18"/>
<text text-anchor="middle" x="280.2" y="-101.3" font-family="Times,serif" font-size="14.00">अयम्(2.1)</text>
</g>
<!-- Node3_1 -->
<g id="node2" class="node">
<title>Node3_1</title>
<ellipse fill="#00bfff" stroke="#00bfff" cx="160.2" cy="-192" rx="44.69" ry="18"/>
<text text-anchor="middle" x="160.2" y="-188.3" font-family="Times,serif" font-size="14.00">यज्ञः(3.1)</text>
</g>
<!-- Node2_1&#45;&gt;Node3_1 -->
<g id="edge2" class="edge">
<title>Node2_1&#45;&gt;Node3_1</title>
<path fill="none" stroke="black" d="M250.33,-127.16C228.92,-142.32 200.6,-162.38 181.46,-175.94"/>
<polygon fill="black" stroke="black" points="252.61,-129.83 258.74,-121.2 248.56,-124.12 252.61,-129.83"/>
<text text-anchor="middle" x="249.7" y="-144.8" font-family="Times,serif" font-size="14.00">विशेषणम्</text>
</g>
<!-- Node7_1 -->
<g id="node9" class="node">
<title>Node7_1</title>
<ellipse fill="#00bfff" stroke="#00bfff" cx="160.2" cy="-279" rx="46.59" ry="18"/>
<text text-anchor="middle" x="160.2" y="-275.3" font-family="Times,serif" font-size="14.00">मतिः(7.1)</text>
</g>
<!-- Node3_1&#45;&gt;Node7_1 -->
<g id="edge3" class="edge">
<title>Node3_1&#45;&gt;Node7_1</title>
<path fill="none" stroke="black" d="M160.2,-220.27C160.2,-233.58 160.2,-249.19 160.2,-260.82"/>
<polygon fill="black" stroke="black" points="163.7,-220.2 160.2,-210.2 156.7,-220.2 163.7,-220.2"/>
<text text-anchor="middle" x="181.7" y="-231.8" font-family="Times,serif" font-size="14.00">वाक्यकर्म</text>
</g>
<!-- Node4_2 -->
<g id="node3" class="node">
<title>Node4_2</title>
<ellipse fill="#00bfff" stroke="#00bfff" cx="160.2" cy="-105" rx="53.89" ry="18"/>
<text text-anchor="middle" x="160.2" y="-101.3" font-family="Times,serif" font-size="14.00">आश्चर्यः(4.2)</text>
</g>
<!-- Node4_2&#45;&gt;Node3_1 -->
<g id="edge5" class="edge">
<title>Node4_2&#45;&gt;Node3_1</title>
<path fill="none" stroke="black" d="M160.2,-133.27C160.2,-146.58 160.2,-162.19 160.2,-173.82"/>
<polygon fill="black" stroke="black" points="163.7,-133.2 160.2,-123.2 156.7,-133.2 163.7,-133.2"/>
<text text-anchor="middle" x="182.7" y="-144.8" font-family="Times,serif" font-size="14.00">विशेषणम्</text>
</g>
<!-- Node11_2 -->
<g id="node4" class="node">
<title>Node11_2</title>
<ellipse fill="#00bfff" stroke="#00bfff" cx="741.2" cy="-105" rx="64.99" ry="18"/>
<text text-anchor="middle" x="741.2" y="-101.3" font-family="Times,serif" font-size="14.00">प्रणाशनः(11.2)</text>
</g>
<!-- Node13_1 -->
<g id="node5" class="node">
<title>Node13_1</title>
<ellipse fill="#00bfff" stroke="#00bfff" cx="639.2" cy="-192" rx="52.79" ry="18"/>
<text text-anchor="middle" x="639.2" y="-188.3" font-family="Times,serif" font-size="14.00">पिता(13.1)</text>
</g>
<!-- Node11_2&#45;&gt;Node13_1 -->
<g id="edge13" class="edge">
<title>Node11_2&#45;&gt;Node13_1</title>
<path fill="none" stroke="black" d="M713.39,-129.17C695.97,-143.68 673.97,-162.03 658.46,-174.95"/>
<polygon fill="black" stroke="black" points="716.09,-131.48 721.53,-122.39 711.61,-126.1 716.09,-131.48"/>
<text text-anchor="middle" x="718.7" y="-144.8" font-family="Times,serif" font-size="14.00">विशेषणम्</text>
</g>
<!-- Node14_1 -->
<g id="node8" class="node">
<title>Node14_1</title>
<ellipse fill="#00bfff" stroke="#00bfff" cx="551.2" cy="-279" rx="55.79" ry="18"/>
<text text-anchor="middle" x="551.2" y="-275.3" font-family="Times,serif" font-size="14.00">प्राप्तः(14.1)</text>
</g>
<!-- Node13_1&#45;&gt;Node14_1 -->
<g id="edge15" class="edge">
<title>Node13_1&#45;&gt;Node14_1</title>
<path fill="none" stroke="black" d="M616.45,-216.83C608.29,-225.22 598.94,-234.64 590.2,-243 583.62,-249.29 576.23,-256.01 569.67,-261.86"/>
<polygon fill="black" stroke="black" points="619.13,-219.1 623.57,-209.47 614.1,-214.23 619.13,-219.1"/>
<text text-anchor="middle" x="616.2" y="-231.8" font-family="Times,serif" font-size="14.00">कर्ता</text>
</g>
<!-- Node12_1 -->
<g id="node6" class="node">
<title>Node12_1</title>
<ellipse fill="#00bfff" stroke="#00bfff" cx="604.2" cy="-105" rx="53.89" ry="18"/>
<text text-anchor="middle" x="604.2" y="-101.3" font-family="Times,serif" font-size="14.00">अयम्(12.1)</text>
</g>
<!-- Node12_1&#45;&gt;Node13_1 -->
<g id="edge14" class="edge">
<title>Node12_1&#45;&gt;Node13_1</title>
<path fill="none" stroke="black" d="M615.13,-132.54C620.72,-146.12 627.36,-162.24 632.24,-174.11"/>
<polygon fill="black" stroke="black" points="618.32,-131.12 611.28,-123.2 611.85,-133.78 618.32,-131.12"/>
<text text-anchor="middle" x="645.7" y="-144.8" font-family="Times,serif" font-size="14.00">विशेषणम्</text>
</g>
<!-- Node1_1 -->
<g id="node7" class="node">
<title>Node1_1</title>
<ellipse fill="#6fffc3" stroke="#6fffc3" cx="880.2" cy="-192" rx="57.69" ry="18"/>
<text text-anchor="middle" x="880.2" y="-188.3" font-family="Times,serif" font-size="14.00">आस्तीक(1.1)</text>
</g>
<!-- Node1_1&#45;&gt;Node14_1 -->
<g id="edge1" class="edge">
<title>Node1_1&#45;&gt;Node14_1</title>
<path fill="none" stroke="black" d="M838.44,-210.91C831.73,-213.47 824.82,-215.93 818.2,-218 742.9,-241.47 652.99,-259.73 599.08,-269.67"/>
<polygon fill="black" stroke="black" points="840.04,-214.04 848.06,-207.11 837.47,-207.53 840.04,-214.04"/>
<text text-anchor="middle" x="803.2" y="-231.8" font-family="Times,serif" font-size="14.00">सम्बोध्यः</text>
</g>
<!-- Node4_1 -->
<g id="node10" class="node">
<title>Node4_1</title>
<ellipse fill="#ffff00" stroke="#ffff00" cx="160.2" cy="-18" rx="53.89" ry="18"/>
<text text-anchor="middle" x="160.2" y="-14.3" font-family="Times,serif" font-size="14.00">विविध&#45;(4.1)</text>
</g>
<!-- Node4_1&#45;&gt;Node4_2 -->
<g id="edge4" class="edge">
<title>Node4_1&#45;&gt;Node4_2</title>
<path fill="none" stroke="black" d="M160.2,-46.27C160.2,-59.58 160.2,-75.19 160.2,-86.82"/>
<polygon fill="black" stroke="black" points="163.7,-46.2 160.2,-36.2 156.7,-46.2 163.7,-46.2"/>
<text text-anchor="middle" x="177.2" y="-57.8" font-family="Times,serif" font-size="14.00">समासः</text>
</g>
<!-- Node5_1 -->
<g id="node11" class="node">
<title>Node5_1</title>
<ellipse fill="#ff99ff" stroke="#ff99ff" cx="44.2" cy="-105" rx="44.39" ry="18"/>
<text text-anchor="middle" x="44.2" y="-101.3" font-family="Times,serif" font-size="14.00">इति(5.1)</text>
</g>
<!-- Node5_1&#45;&gt;Node3_1 -->
<g id="edge6" class="edge">
<title>Node5_1&#45;&gt;Node3_1</title>
<path fill="none" stroke="black" d="M55.71,-132.15C60.45,-140.63 66.63,-149.52 74.2,-156 88.15,-167.96 106.73,-176.21 123.05,-181.68"/>
<polygon fill="black" stroke="black" points="58.81,-130.53 51.12,-123.23 52.58,-133.72 58.81,-130.53"/>
<text text-anchor="middle" x="115.2" y="-144.8" font-family="Times,serif" font-size="14.00">वाक्यकर्म_द्योतकः</text>
</g>
<!-- Node6_1 -->
<g id="node12" class="node">
<title>Node6_1</title>
<ellipse fill="#87ceeb" stroke="#87ceeb" cx="53.2" cy="-192" rx="37.09" ry="18"/>
<text text-anchor="middle" x="53.2" y="-188.3" font-family="Times,serif" font-size="14.00">मे(6.1)</text>
</g>
<!-- Node6_1&#45;&gt;Node7_1 -->
<g id="edge7" class="edge">
<title>Node6_1&#45;&gt;Node7_1</title>
<path fill="none" stroke="black" d="M73.22,-216.42C81.41,-225.29 91.28,-235.13 101.2,-243 111.09,-250.85 122.9,-258.19 133.35,-264.11"/>
<polygon fill="black" stroke="black" points="75.79,-214.05 66.5,-208.96 70.59,-218.73 75.79,-214.05"/>
<text text-anchor="middle" x="128.7" y="-231.8" font-family="Times,serif" font-size="14.00">षष्ठीसम्बन्धः</text>
</g>
<!-- Node8_1 -->
<g id="node13" class="node">
<title>Node8_1</title>
<ellipse fill="#ff99ff" stroke="#ff99ff" cx="386.2" cy="-192" rx="42.49" ry="18"/>
<text text-anchor="middle" x="386.2" y="-188.3" font-family="Times,serif" font-size="14.00">यत्(8.1)</text>
</g>
<!-- Node8_1&#45;&gt;Node14_1 -->
<g id="edge8" class="edge">
<title>Node8_1&#45;&gt;Node14_1</title>
<path fill="none" stroke="black" d="M416.45,-212.93C431.67,-222.57 450.58,-233.98 468.2,-243 483.79,-250.98 501.62,-258.68 516.75,-264.81"/>
<polygon fill="black" stroke="black" points="418.27,-209.94 407.96,-207.49 414.49,-215.83 418.27,-209.94"/>
<text text-anchor="middle" x="486.7" y="-231.8" font-family="Times,serif" font-size="14.00">सम्बन्धः</text>
</g>
<!-- Node8_1&#45;&gt;Node7_1 -->
<g id="edge9" class="edge">
<title>Node8_1&#45;&gt;Node7_1</title>
<path fill="none" stroke="black" stroke-dasharray="1,5" d="M353.09,-211.88C348.81,-214.06 344.44,-216.16 340.2,-218 292.01,-238.93 233.99,-257.07 197.1,-267.77"/>
<polygon fill="black" stroke="black" points="355.03,-214.81 362.24,-207.05 351.77,-208.62 355.03,-214.81"/>
<text text-anchor="middle" x="329.7" y="-231.8" font-family="Times,serif" font-size="14.00">सम्बन्धः</text>
</g>
<!-- Node9_1 -->
<g id="node14" class="node">
<title>Node9_1</title>
<ellipse fill="#ff99ff" stroke="#ff99ff" cx="490.2" cy="-192" rx="43.59" ry="18"/>
<text text-anchor="middle" x="490.2" y="-188.3" font-family="Times,serif" font-size="14.00">अद्य(9.1)</text>
</g>
<!-- Node9_1&#45;&gt;Node14_1 -->
<g id="edge10" class="edge">
<title>Node9_1&#45;&gt;Node14_1</title>
<path fill="none" stroke="black" d="M503.72,-218.74C508.29,-226.74 513.65,-235.44 519.2,-243 523.87,-249.37 529.54,-255.89 534.8,-261.54"/>
<polygon fill="black" stroke="black" points="506.66,-216.82 498.75,-209.77 500.53,-220.21 506.66,-216.82"/>
<text text-anchor="middle" x="554.7" y="-231.8" font-family="Times,serif" font-size="14.00">कालाधिकरणम्</text>
</g>
<!-- Node10_1 -->
<g id="node15" class="node">
<title>Node10_1</title>
<ellipse fill="#87ceeb" stroke="#87ceeb" cx="872.2" cy="-105" rx="48.19" ry="18"/>
<text text-anchor="middle" x="872.2" y="-101.3" font-family="Times,serif" font-size="14.00">मम(10.1)</text>
</g>
<!-- Node10_1&#45;&gt;Node13_1 -->
<g id="edge11" class="edge">
<title>Node10_1&#45;&gt;Node13_1</title>
<path fill="none" stroke="black" d="M831.61,-122.65C806.79,-132.67 774.31,-145.47 745.2,-156 722.6,-164.17 697.02,-172.64 676.65,-179.2"/>
<polygon fill="black" stroke="black" points="833.11,-125.82 841.07,-118.82 830.48,-119.33 833.11,-125.82"/>
<text text-anchor="middle" x="810.7" y="-144.8" font-family="Times,serif" font-size="14.00">षष्ठीसम्बन्धः</text>
</g>
<!-- Node11_1 -->
<g id="node16" class="node">
<title>Node11_1</title>
<ellipse fill="#ffff00" stroke="#ffff00" cx="741.2" cy="-18" rx="53.09" ry="18"/>
<text text-anchor="middle" x="741.2" y="-14.3" font-family="Times,serif" font-size="14.00">शेक&#45;(11.1)</text>
</g>
<!-- Node11_1&#45;&gt;Node11_2 -->
<g id="edge12" class="edge">
<title>Node11_1&#45;&gt;Node11_2</title>
<path fill="none" stroke="black" d="M741.2,-46.27C741.2,-59.58 741.2,-75.19 741.2,-86.82"/>
<polygon fill="black" stroke="black" points="744.7,-46.2 741.2,-36.2 737.7,-46.2 744.7,-46.2"/>
<text text-anchor="middle" x="758.2" y="-57.8" font-family="Times,serif" font-size="14.00">समासः</text>
</g>
</g>
</svg>
