<?xml version="1.0" encoding="UTF-8" standalone="no"?>
<!DOCTYPE svg PUBLIC "-//W3C//DTD SVG 1.1//EN"
 "http://www.w3.org/Graphics/SVG/1.1/DTD/svg11.dtd">
<!-- Generated by graphviz version 2.43.0 (0)
 -->
<!-- Title: G Pages: 1 -->
<svg width="520pt" height="392pt"
 viewBox="0.00 0.00 520.05 392.00" xmlns="http://www.w3.org/2000/svg" xmlns:xlink="http://www.w3.org/1999/xlink">
<g id="graph0" class="graph" transform="scale(1 1) rotate(0) translate(4 388)">
<title>G</title>
<polygon fill="#fffacd" stroke="transparent" points="-4,4 -4,-388 516.05,-388 516.05,4 -4,4"/>
<g id="clust1" class="cluster">
<title>cluster_1</title>
<polygon fill="#fffacd" stroke="black" points="136,-79 136,-218 276,-218 276,-79 136,-79"/>
</g>
<g id="clust2" class="cluster">
<title>cluster_2</title>
<polygon fill="#fffacd" stroke="black" points="8,-166 8,-305 128,-305 128,-166 8,-166"/>
</g>
<!-- Node1_2 -->
<g id="node1" class="node">
<title>Node1_2</title>
<ellipse fill="#93db70" stroke="#93db70" cx="206" cy="-105" rx="61.99" ry="18"/>
<text text-anchor="middle" x="206" y="-101.3" font-family="Times,serif" font-size="14.00">विनाशनम्(1.2)</text>
</g>
<!-- Node2_1 -->
<g id="node2" class="node">
<title>Node2_1</title>
<ellipse fill="#93db70" stroke="#93db70" cx="204" cy="-192" rx="58.49" ry="18"/>
<text text-anchor="middle" x="204" y="-188.3" font-family="Times,serif" font-size="14.00">(वचनम्)(2.1)</text>
</g>
<!-- Node1_2&#45;&gt;Node2_1 -->
<g id="edge2" class="edge">
<title>Node1_2&#45;&gt;Node2_1</title>
<path fill="none" stroke="black" d="M205.36,-133.27C205.05,-146.58 204.68,-162.19 204.4,-173.82"/>
<polygon fill="black" stroke="black" points="208.86,-133.28 205.6,-123.2 201.86,-133.12 208.86,-133.28"/>
<text text-anchor="middle" x="228.5" y="-144.8" font-family="Times,serif" font-size="14.00">विशेषणम्</text>
</g>
<!-- Node3_1 -->
<g id="node6" class="node">
<title>Node3_1</title>
<ellipse fill="#ff99ff" stroke="#ff99ff" cx="190" cy="-279" rx="48.19" ry="18"/>
<text text-anchor="middle" x="190" y="-275.3" font-family="Times,serif" font-size="14.00">श्रुत्वा(3.1)</text>
</g>
<!-- Node2_1&#45;&gt;Node3_1 -->
<g id="edge3" class="edge">
<title>Node2_1&#45;&gt;Node3_1</title>
<path fill="none" stroke="black" d="M199.51,-220.27C197.32,-233.58 194.74,-249.19 192.83,-260.82"/>
<polygon fill="black" stroke="black" points="203,-220.64 201.17,-210.2 196.09,-219.5 203,-220.64"/>
<text text-anchor="middle" x="207" y="-231.8" font-family="Times,serif" font-size="14.00">कर्म</text>
</g>
<!-- Node4_2 -->
<g id="node3" class="node">
<title>Node4_2</title>
<ellipse fill="#00bfff" stroke="#00bfff" cx="68" cy="-192" rx="51.99" ry="18"/>
<text text-anchor="middle" x="68" y="-188.3" font-family="Times,serif" font-size="14.00">विपुलः(4.2)</text>
</g>
<!-- Node5_1 -->
<g id="node4" class="node">
<title>Node5_1</title>
<ellipse fill="#00bfff" stroke="#00bfff" cx="73" cy="-279" rx="44.69" ry="18"/>
<text text-anchor="middle" x="73" y="-275.3" font-family="Times,serif" font-size="14.00">धर्मः(5.1)</text>
</g>
<!-- Node4_2&#45;&gt;Node5_1 -->
<g id="edge6" class="edge">
<title>Node4_2&#45;&gt;Node5_1</title>
<path fill="none" stroke="black" d="M69.6,-220.27C70.39,-233.58 71.31,-249.19 71.99,-260.82"/>
<polygon fill="black" stroke="black" points="73.09,-219.98 69.01,-210.2 66.11,-220.39 73.09,-219.98"/>
<text text-anchor="middle" x="93.5" y="-231.8" font-family="Times,serif" font-size="14.00">विशेषणम्</text>
</g>
<!-- Node6_1 -->
<g id="node7" class="node">
<title>Node6_1</title>
<ellipse fill="#00bfff" stroke="#00bfff" cx="145" cy="-366" rx="50.09" ry="18"/>
<text text-anchor="middle" x="145" y="-362.3" font-family="Times,serif" font-size="14.00">प्राप्तः(6.1)</text>
</g>
<!-- Node5_1&#45;&gt;Node6_1 -->
<g id="edge7" class="edge">
<title>Node5_1&#45;&gt;Node6_1</title>
<path fill="none" stroke="black" d="M93.59,-304.31C105.64,-318.53 120.51,-336.09 131.16,-348.66"/>
<polygon fill="black" stroke="black" points="96.02,-301.76 86.88,-296.39 90.68,-306.28 96.02,-301.76"/>
<text text-anchor="middle" x="123" y="-318.8" font-family="Times,serif" font-size="14.00">कर्म</text>
</g>
<!-- Node1_1 -->
<g id="node5" class="node">
<title>Node1_1</title>
<ellipse fill="#ffff00" stroke="#ffff00" cx="206" cy="-18" rx="47.39" ry="18"/>
<text text-anchor="middle" x="206" y="-14.3" font-family="Times,serif" font-size="14.00">पाप&#45;(1.1)</text>
</g>
<!-- Node1_1&#45;&gt;Node1_2 -->
<g id="edge1" class="edge">
<title>Node1_1&#45;&gt;Node1_2</title>
<path fill="none" stroke="black" d="M206,-46.27C206,-59.58 206,-75.19 206,-86.82"/>
<polygon fill="black" stroke="black" points="209.5,-46.2 206,-36.2 202.5,-46.2 209.5,-46.2"/>
<text text-anchor="middle" x="223" y="-57.8" font-family="Times,serif" font-size="14.00">समासः</text>
</g>
<!-- Node3_1&#45;&gt;Node6_1 -->
<g id="edge4" class="edge">
<title>Node3_1&#45;&gt;Node6_1</title>
<path fill="none" stroke="black" d="M176.34,-305.8C169.05,-319.58 160.28,-336.14 153.87,-348.24"/>
<polygon fill="black" stroke="black" points="179.52,-307.27 181.11,-296.79 173.34,-303.99 179.52,-307.27"/>
<text text-anchor="middle" x="191.5" y="-318.8" font-family="Times,serif" font-size="14.00">पूर्वकालः</text>
</g>
<!-- Node4_1 -->
<g id="node8" class="node">
<title>Node4_1</title>
<ellipse fill="#ffff00" stroke="#ffff00" cx="68" cy="-105" rx="40.89" ry="18"/>
<text text-anchor="middle" x="68" y="-101.3" font-family="Times,serif" font-size="14.00">सु&#45;(4.1)</text>
</g>
<!-- Node4_1&#45;&gt;Node4_2 -->
<g id="edge5" class="edge">
<title>Node4_1&#45;&gt;Node4_2</title>
<path fill="none" stroke="black" d="M68,-133.27C68,-146.58 68,-162.19 68,-173.82"/>
<polygon fill="black" stroke="black" points="71.5,-133.2 68,-123.2 64.5,-133.2 71.5,-133.2"/>
<text text-anchor="middle" x="85" y="-144.8" font-family="Times,serif" font-size="14.00">समासः</text>
</g>
<!-- Node7_1 -->
<g id="node9" class="node">
<title>Node7_1</title>
<ellipse fill="#ffff00" stroke="#ffff00" cx="339" cy="-18" rx="50.09" ry="18"/>
<text text-anchor="middle" x="339" y="-14.3" font-family="Times,serif" font-size="14.00">उदार&#45;(7.1)</text>
</g>
<!-- Node7_2 -->
<g id="node10" class="node">
<title>Node7_2</title>
<ellipse fill="#ffff00" stroke="#ffff00" cx="339" cy="-105" rx="46.29" ry="18"/>
<text text-anchor="middle" x="339" y="-101.3" font-family="Times,serif" font-size="14.00">जन&#45;(7.2)</text>
</g>
<!-- Node7_1&#45;&gt;Node7_2 -->
<g id="edge8" class="edge">
<title>Node7_1&#45;&gt;Node7_2</title>
<path fill="none" stroke="black" d="M339,-46.27C339,-59.58 339,-75.19 339,-86.82"/>
<polygon fill="black" stroke="black" points="342.5,-46.2 339,-36.2 335.5,-46.2 342.5,-46.2"/>
<text text-anchor="middle" x="356" y="-57.8" font-family="Times,serif" font-size="14.00">समासः</text>
</g>
<!-- Node7_3 -->
<g id="node11" class="node">
<title>Node7_3</title>
<ellipse fill="#b4ffb4" stroke="#b4ffb4" cx="339" cy="-192" rx="54.69" ry="18"/>
<text text-anchor="middle" x="339" y="-188.3" font-family="Times,serif" font-size="14.00">दर्शनात्(7.3)</text>
</g>
<!-- Node7_2&#45;&gt;Node7_3 -->
<g id="edge9" class="edge">
<title>Node7_2&#45;&gt;Node7_3</title>
<path fill="none" stroke="black" d="M339,-133.27C339,-146.58 339,-162.19 339,-173.82"/>
<polygon fill="black" stroke="black" points="342.5,-133.2 339,-123.2 335.5,-133.2 342.5,-133.2"/>
<text text-anchor="middle" x="356" y="-144.8" font-family="Times,serif" font-size="14.00">समासः</text>
</g>
<!-- Node9_1 -->
<g id="node12" class="node">
<title>Node9_1</title>
<ellipse fill="#00bfff" stroke="#00bfff" cx="400" cy="-279" rx="55.79" ry="18"/>
<text text-anchor="middle" x="400" y="-275.3" font-family="Times,serif" font-size="14.00">विमुक्तः(9.1)</text>
</g>
<!-- Node7_3&#45;&gt;Node9_1 -->
<g id="edge10" class="edge">
<title>Node7_3&#45;&gt;Node9_1</title>
<path fill="none" stroke="black" d="M356.95,-218.01C366.94,-231.94 379.12,-248.91 387.97,-261.24"/>
<polygon fill="black" stroke="black" points="359.73,-215.88 351.05,-209.79 354.04,-219.96 359.73,-215.88"/>
<text text-anchor="middle" x="382.5" y="-231.8" font-family="Times,serif" font-size="14.00">हेतुः</text>
</g>
<!-- Node8_1 -->
<g id="node13" class="node">
<title>Node8_1</title>
<ellipse fill="#ffff00" stroke="#ffff00" cx="462" cy="-105" rx="48.99" ry="18"/>
<text text-anchor="middle" x="462" y="-101.3" font-family="Times,serif" font-size="14.00">हृदय&#45;(8.1)</text>
</g>
<!-- Node8_2 -->
<g id="node14" class="node">
<title>Node8_2</title>
<ellipse fill="#00bfff" stroke="#00bfff" cx="462" cy="-192" rx="50.09" ry="18"/>
<text text-anchor="middle" x="462" y="-188.3" font-family="Times,serif" font-size="14.00">ग्रन्थिः(8.2)</text>
</g>
<!-- Node8_1&#45;&gt;Node8_2 -->
<g id="edge11" class="edge">
<title>Node8_1&#45;&gt;Node8_2</title>
<path fill="none" stroke="black" d="M462,-133.27C462,-146.58 462,-162.19 462,-173.82"/>
<polygon fill="black" stroke="black" points="465.5,-133.2 462,-123.2 458.5,-133.2 465.5,-133.2"/>
<text text-anchor="middle" x="479" y="-144.8" font-family="Times,serif" font-size="14.00">समासः</text>
</g>
<!-- Node8_2&#45;&gt;Node9_1 -->
<g id="edge12" class="edge">
<title>Node8_2&#45;&gt;Node9_1</title>
<path fill="none" stroke="black" d="M443.76,-218.01C433.6,-231.94 421.22,-248.91 412.22,-261.24"/>
<polygon fill="black" stroke="black" points="446.69,-219.93 449.75,-209.79 441.03,-215.81 446.69,-219.93"/>
<text text-anchor="middle" x="443" y="-231.8" font-family="Times,serif" font-size="14.00">कर्म</text>
</g>
</g>
</svg>
