<?xml version="1.0" encoding="UTF-8" standalone="no"?>
<!DOCTYPE svg PUBLIC "-//W3C//DTD SVG 1.1//EN"
 "http://www.w3.org/Graphics/SVG/1.1/DTD/svg11.dtd">
<!-- Generated by graphviz version 2.43.0 (0)
 -->
<!-- Title: G Pages: 1 -->
<svg width="749pt" height="321pt"
 viewBox="0.00 0.00 748.79 321.00" xmlns="http://www.w3.org/2000/svg" xmlns:xlink="http://www.w3.org/1999/xlink">
<g id="graph0" class="graph" transform="scale(1 1) rotate(0) translate(4 317)">
<title>G</title>
<polygon fill="#fffacd" stroke="transparent" points="-4,4 -4,-317 744.79,-317 744.79,4 -4,4"/>
<g id="clust1" class="cluster">
<title>cluster_1</title>
<polygon fill="#fffacd" stroke="black" points="117.95,-95 117.95,-234 233.95,-234 233.95,-95 117.95,-95"/>
</g>
<g id="clust2" class="cluster">
<title>cluster_2</title>
<polygon fill="#fffacd" stroke="black" points="242.95,-8 242.95,-147 492.95,-147 492.95,-8 242.95,-8"/>
</g>
<!-- Node4_1 -->
<g id="node1" class="node">
<title>Node4_1</title>
<ellipse fill="#93db70" stroke="#93db70" cx="175.95" cy="-121" rx="48.19" ry="18"/>
<text text-anchor="middle" x="175.95" y="-117.3" font-family="Times,serif" font-size="14.00">श्रेष्ठम्(4.1)</text>
</g>
<!-- Node5_1 -->
<g id="node2" class="node">
<title>Node5_1</title>
<ellipse fill="#93db70" stroke="#93db70" cx="175.95" cy="-208" rx="50.09" ry="18"/>
<text text-anchor="middle" x="175.95" y="-204.3" font-family="Times,serif" font-size="14.00">भीमम्(5.1)</text>
</g>
<!-- Node4_1&#45;&gt;Node5_1 -->
<g id="edge4" class="edge">
<title>Node4_1&#45;&gt;Node5_1</title>
<path fill="none" stroke="black" d="M175.95,-149.27C175.95,-162.58 175.95,-178.19 175.95,-189.82"/>
<polygon fill="black" stroke="black" points="179.45,-149.2 175.95,-139.2 172.45,-149.2 179.45,-149.2"/>
<text text-anchor="middle" x="198.45" y="-160.8" font-family="Times,serif" font-size="14.00">विशेषणम्</text>
</g>
<!-- Node6_1 -->
<g id="node7" class="node">
<title>Node6_1</title>
<ellipse fill="#ff1975" stroke="#ff1975" cx="113.95" cy="-295" rx="70.69" ry="18"/>
<text text-anchor="middle" x="113.95" y="-291.3" font-family="Times,serif" font-size="14.00">सान्त्वयामास(6.1)</text>
</g>
<!-- Node5_1&#45;&gt;Node6_1 -->
<g id="edge5" class="edge">
<title>Node5_1&#45;&gt;Node6_1</title>
<path fill="none" stroke="black" d="M157.7,-234.01C147.54,-247.94 135.16,-264.91 126.17,-277.24"/>
<polygon fill="black" stroke="black" points="160.63,-235.93 163.7,-225.79 154.98,-231.81 160.63,-235.93"/>
<text text-anchor="middle" x="156.95" y="-247.8" font-family="Times,serif" font-size="14.00">कर्म्</text>
</g>
<!-- Node7_1 -->
<g id="node3" class="node">
<title>Node7_1</title>
<ellipse fill="#00bfff" stroke="#00bfff" cx="432.95" cy="-34" rx="51.99" ry="18"/>
<text text-anchor="middle" x="432.95" y="-30.3" font-family="Times,serif" font-size="14.00">मेधावी(7.1)</text>
</g>
<!-- Node9_1 -->
<g id="node4" class="node">
<title>Node9_1</title>
<ellipse fill="#00bfff" stroke="#00bfff" cx="437.95" cy="-121" rx="40.09" ry="18"/>
<text text-anchor="middle" x="437.95" y="-117.3" font-family="Times,serif" font-size="14.00">सः(9.1)</text>
</g>
<!-- Node7_1&#45;&gt;Node9_1 -->
<g id="edge6" class="edge">
<title>Node7_1&#45;&gt;Node9_1</title>
<path fill="none" stroke="black" d="M434.55,-62.27C435.33,-75.58 436.25,-91.19 436.93,-102.82"/>
<polygon fill="black" stroke="black" points="438.04,-61.98 433.96,-52.2 431.05,-62.39 438.04,-61.98"/>
<text text-anchor="middle" x="457.45" y="-73.8" font-family="Times,serif" font-size="14.00">विशेषणम्</text>
</g>
<!-- Node13_1 -->
<g id="node10" class="node">
<title>Node13_1</title>
<ellipse fill="#ff1975" stroke="#ff1975" cx="553.95" cy="-208" rx="65.79" ry="18"/>
<text text-anchor="middle" x="553.95" y="-204.3" font-family="Times,serif" font-size="14.00">प्रत्यपद्यत(13.1)</text>
</g>
<!-- Node9_1&#45;&gt;Node13_1 -->
<g id="edge8" class="edge">
<title>Node9_1&#45;&gt;Node13_1</title>
<path fill="none" stroke="black" d="M466.38,-142.83C486.61,-157.66 513.4,-177.29 532,-190.92"/>
<polygon fill="black" stroke="black" points="468.29,-139.89 458.15,-136.81 464.15,-145.54 468.29,-139.89"/>
<text text-anchor="middle" x="512.95" y="-160.8" font-family="Times,serif" font-size="14.00">कर्ता</text>
</g>
<!-- Node8_1 -->
<g id="node5" class="node">
<title>Node8_1</title>
<ellipse fill="#00bfff" stroke="#00bfff" cx="306.95" cy="-34" rx="55.79" ry="18"/>
<text text-anchor="middle" x="306.95" y="-30.3" font-family="Times,serif" font-size="14.00">वीर्यवान्(8.1)</text>
</g>
<!-- Node8_1&#45;&gt;Node9_1 -->
<g id="edge7" class="edge">
<title>Node8_1&#45;&gt;Node9_1</title>
<path fill="none" stroke="black" d="M339.09,-55.86C363.04,-71.4 395.11,-92.21 416.14,-105.85"/>
<polygon fill="black" stroke="black" points="340.96,-52.9 330.67,-50.39 337.15,-58.77 340.96,-52.9"/>
<text text-anchor="middle" x="402.45" y="-73.8" font-family="Times,serif" font-size="14.00">विशेषणम्</text>
</g>
<!-- Node1_1 -->
<g id="node6" class="node">
<title>Node1_1</title>
<ellipse fill="#00bfff" stroke="#00bfff" cx="53.95" cy="-208" rx="53.89" ry="18"/>
<text text-anchor="middle" x="53.95" y="-204.3" font-family="Times,serif" font-size="14.00">पार्थिवः(1.1)</text>
</g>
<!-- Node1_1&#45;&gt;Node6_1 -->
<g id="edge1" class="edge">
<title>Node1_1&#45;&gt;Node6_1</title>
<path fill="none" stroke="black" d="M71.6,-234.01C81.43,-247.94 93.41,-264.91 102.12,-277.24"/>
<polygon fill="black" stroke="black" points="74.43,-231.94 65.8,-225.79 68.71,-235.98 74.43,-231.94"/>
<text text-anchor="middle" x="98.95" y="-247.8" font-family="Times,serif" font-size="14.00">कर्ता</text>
</g>
<!-- Node2_1 -->
<g id="node8" class="node">
<title>Node2_1</title>
<ellipse fill="#ff99ff" stroke="#ff99ff" cx="53.95" cy="-121" rx="37.89" ry="18"/>
<text text-anchor="middle" x="53.95" y="-117.3" font-family="Times,serif" font-size="14.00">च(2.1)</text>
</g>
<!-- Node2_1&#45;&gt;Node1_1 -->
<g id="edge2" class="edge">
<title>Node2_1&#45;&gt;Node1_1</title>
<path fill="none" stroke="black" d="M53.95,-149.27C53.95,-162.58 53.95,-178.19 53.95,-189.82"/>
<polygon fill="black" stroke="black" points="57.45,-149.2 53.95,-139.2 50.45,-149.2 57.45,-149.2"/>
<text text-anchor="middle" x="72.45" y="-160.8" font-family="Times,serif" font-size="14.00">सम्बन्धः</text>
</g>
<!-- Node3_1 -->
<g id="node9" class="node">
<title>Node3_1</title>
<ellipse fill="#87ceeb" stroke="#87ceeb" cx="175.95" cy="-34" rx="57.39" ry="18"/>
<text text-anchor="middle" x="175.95" y="-30.3" font-family="Times,serif" font-size="14.00">बलिनाम्(3.1)</text>
</g>
<!-- Node3_1&#45;&gt;Node4_1 -->
<g id="edge3" class="edge">
<title>Node3_1&#45;&gt;Node4_1</title>
<path fill="none" stroke="black" d="M175.95,-62.27C175.95,-75.58 175.95,-91.19 175.95,-102.82"/>
<polygon fill="black" stroke="black" points="179.45,-62.2 175.95,-52.2 172.45,-62.2 179.45,-62.2"/>
<text text-anchor="middle" x="203.45" y="-73.8" font-family="Times,serif" font-size="14.00">षष्ठीसम्बन्धः</text>
</g>
<!-- Node10_1 -->
<g id="node11" class="node">
<title>Node10_1</title>
<ellipse fill="#ff99ff" stroke="#ff99ff" cx="546.95" cy="-34" rx="43.59" ry="18"/>
<text text-anchor="middle" x="546.95" y="-30.3" font-family="Times,serif" font-size="14.00">च(10.1)</text>
</g>
<!-- Node10_1&#45;&gt;Node9_1 -->
<g id="edge9" class="edge">
<title>Node10_1&#45;&gt;Node9_1</title>
<path fill="none" stroke="black" d="M519.68,-56.83C508.63,-65.63 495.72,-75.85 483.95,-85 475.39,-91.65 465.86,-98.92 457.71,-105.1"/>
<polygon fill="black" stroke="black" points="522.09,-59.39 527.72,-50.42 517.72,-53.92 522.09,-59.39"/>
<text text-anchor="middle" x="519.45" y="-73.8" font-family="Times,serif" font-size="14.00">सम्बन्धः</text>
</g>
<!-- Node11_1 -->
<g id="node12" class="node">
<title>Node11_1</title>
<ellipse fill="#87ceeb" stroke="#87ceeb" cx="553.95" cy="-121" rx="53.09" ry="18"/>
<text text-anchor="middle" x="553.95" y="-117.3" font-family="Times,serif" font-size="14.00">अस्य(11.1)</text>
</g>
<!-- Node11_1&#45;&gt;Node13_1 -->
<g id="edge10" class="edge">
<title>Node11_1&#45;&gt;Node13_1</title>
<path fill="none" stroke="black" d="M553.95,-149.27C553.95,-162.58 553.95,-178.19 553.95,-189.82"/>
<polygon fill="black" stroke="black" points="557.45,-149.2 553.95,-139.2 550.45,-149.2 557.45,-149.2"/>
<text text-anchor="middle" x="572.45" y="-160.8" font-family="Times,serif" font-size="14.00">सम्बन्धः</text>
</g>
<!-- Node12_1 -->
<g id="node13" class="node">
<title>Node12_1</title>
<ellipse fill="#ff99ff" stroke="#ff99ff" cx="682.95" cy="-121" rx="57.69" ry="18"/>
<text text-anchor="middle" x="682.95" y="-117.3" font-family="Times,serif" font-size="14.00">सम्यक्(12.1)</text>
</g>
<!-- Node12_1&#45;&gt;Node13_1 -->
<g id="edge11" class="edge">
<title>Node12_1&#45;&gt;Node13_1</title>
<path fill="none" stroke="black" d="M650.7,-143.25C628.11,-158.13 598.4,-177.71 577.89,-191.22"/>
<polygon fill="black" stroke="black" points="652.86,-146.02 659.28,-137.59 649.01,-140.17 652.86,-146.02"/>
<text text-anchor="middle" x="660.95" y="-160.8" font-family="Times,serif" font-size="14.00">क्रियाविशेषणम्</text>
</g>
</g>
</svg>
