<?xml version="1.0" encoding="UTF-8" standalone="no"?>
<!DOCTYPE svg PUBLIC "-//W3C//DTD SVG 1.1//EN"
 "http://www.w3.org/Graphics/SVG/1.1/DTD/svg11.dtd">
<!-- Generated by graphviz version 2.43.0 (0)
 -->
<!-- Title: G Pages: 1 -->
<svg width="1150pt" height="321pt"
 viewBox="0.00 0.00 1149.74 321.00" xmlns="http://www.w3.org/2000/svg" xmlns:xlink="http://www.w3.org/1999/xlink">
<g id="graph0" class="graph" transform="scale(1 1) rotate(0) translate(4 317)">
<title>G</title>
<polygon fill="#fffacd" stroke="transparent" points="-4,4 -4,-317 1145.74,-317 1145.74,4 -4,4"/>
<g id="clust1" class="cluster">
<title>cluster_1</title>
<polygon fill="#fffacd" stroke="black" points="258.79,-8 258.79,-147 372.79,-147 372.79,-8 258.79,-8"/>
</g>
<g id="clust2" class="cluster">
<title>cluster_2</title>
<polygon fill="#fffacd" stroke="black" points="132.79,-95 132.79,-234 250.79,-234 250.79,-95 132.79,-95"/>
</g>
<!-- Node3_1 -->
<g id="node1" class="node">
<title>Node3_1</title>
<ellipse fill="#00bfff" stroke="#00bfff" cx="315.79" cy="-34" rx="46.29" ry="18"/>
<text text-anchor="middle" x="315.79" y="-30.3" font-family="Times,serif" font-size="14.00">इदम्(3.1)</text>
</g>
<!-- Node4_1 -->
<g id="node2" class="node">
<title>Node4_1</title>
<ellipse fill="#00bfff" stroke="#00bfff" cx="315.79" cy="-121" rx="49.29" ry="18"/>
<text text-anchor="middle" x="315.79" y="-117.3" font-family="Times,serif" font-size="14.00">कुलम्(4.1)</text>
</g>
<!-- Node3_1&#45;&gt;Node4_1 -->
<g id="edge4" class="edge">
<title>Node3_1&#45;&gt;Node4_1</title>
<path fill="none" stroke="black" d="M315.79,-62.27C315.79,-75.58 315.79,-91.19 315.79,-102.82"/>
<polygon fill="black" stroke="black" points="319.29,-62.2 315.79,-52.2 312.29,-62.2 319.29,-62.2"/>
<text text-anchor="middle" x="338.29" y="-73.8" font-family="Times,serif" font-size="14.00">विशेषणम्</text>
</g>
<!-- Node8_1 -->
<g id="node3" class="node">
<title>Node8_1</title>
<ellipse fill="#00bfff" stroke="#00bfff" cx="191.79" cy="-208" rx="50.89" ry="18"/>
<text text-anchor="middle" x="191.79" y="-204.3" font-family="Times,serif" font-size="14.00">कीर्तिः(8.1)</text>
</g>
<!-- Node4_1&#45;&gt;Node8_1 -->
<g id="edge5" class="edge">
<title>Node4_1&#45;&gt;Node8_1</title>
<path fill="none" stroke="black" d="M285.28,-142.92C263.28,-158 234.06,-178.03 214.19,-191.65"/>
<polygon fill="black" stroke="black" points="287.36,-145.74 293.63,-137.2 283.4,-139.96 287.36,-145.74"/>
<text text-anchor="middle" x="283.29" y="-160.8" font-family="Times,serif" font-size="14.00">समुच्चितः</text>
</g>
<!-- Node11_1 -->
<g id="node7" class="node">
<title>Node11_1</title>
<ellipse fill="#00bfff" stroke="#00bfff" cx="427.79" cy="-295" rx="67.69" ry="18"/>
<text text-anchor="middle" x="427.79" y="-291.3" font-family="Times,serif" font-size="14.00">प्रतिष्ठितम्(11.1)</text>
</g>
<!-- Node8_1&#45;&gt;Node11_1 -->
<g id="edge9" class="edge">
<title>Node8_1&#45;&gt;Node11_1</title>
<path fill="none" stroke="black" d="M235.69,-224.81C279.76,-240.68 347,-264.9 389.12,-280.07"/>
<polygon fill="black" stroke="black" points="236.71,-221.46 226.11,-221.36 234.33,-228.04 236.71,-221.46"/>
<text text-anchor="middle" x="334.79" y="-247.8" font-family="Times,serif" font-size="14.00">कर्ता</text>
</g>
<!-- Node6_1 -->
<g id="node4" class="node">
<title>Node6_1</title>
<ellipse fill="#00bfff" stroke="#00bfff" cx="191.79" cy="-121" rx="50.89" ry="18"/>
<text text-anchor="middle" x="191.79" y="-117.3" font-family="Times,serif" font-size="14.00">पिण्डः(6.1)</text>
</g>
<!-- Node6_1&#45;&gt;Node8_1 -->
<g id="edge7" class="edge">
<title>Node6_1&#45;&gt;Node8_1</title>
<path fill="none" stroke="black" d="M191.79,-149.27C191.79,-162.58 191.79,-178.19 191.79,-189.82"/>
<polygon fill="black" stroke="black" points="195.29,-149.2 191.79,-139.2 188.29,-149.2 195.29,-149.2"/>
<text text-anchor="middle" x="214.29" y="-160.8" font-family="Times,serif" font-size="14.00">समुच्चितः</text>
</g>
<!-- Node1_1 -->
<g id="node5" class="node">
<title>Node1_1</title>
<ellipse fill="#ffff00" stroke="#ffff00" cx="522.79" cy="-121" rx="46.59" ry="18"/>
<text text-anchor="middle" x="522.79" y="-117.3" font-family="Times,serif" font-size="14.00">महा&#45;(1.1)</text>
</g>
<!-- Node1_2 -->
<g id="node6" class="node">
<title>Node1_2</title>
<ellipse fill="#6fffc3" stroke="#6fffc3" cx="349.79" cy="-208" rx="46.29" ry="18"/>
<text text-anchor="middle" x="349.79" y="-204.3" font-family="Times,serif" font-size="14.00">बाहो(1.2)</text>
</g>
<!-- Node1_1&#45;&gt;Node1_2 -->
<g id="edge1" class="edge">
<title>Node1_1&#45;&gt;Node1_2</title>
<path fill="none" stroke="black" d="M516.29,-149.09C512.98,-157.59 508.06,-166.24 500.79,-172 466.79,-198.98 446.93,-179.57 404.79,-190 398,-191.68 390.81,-193.71 383.95,-195.78"/>
<polygon fill="black" stroke="black" points="519.69,-149.97 519.48,-139.37 513.04,-147.78 519.69,-149.97"/>
<text text-anchor="middle" x="528.79" y="-160.8" font-family="Times,serif" font-size="14.00">समासः</text>
</g>
<!-- Node1_2&#45;&gt;Node11_1 -->
<g id="edge2" class="edge">
<title>Node1_2&#45;&gt;Node11_1</title>
<path fill="none" stroke="black" d="M371.69,-232.86C384.71,-247.05 400.9,-264.69 412.54,-277.37"/>
<polygon fill="black" stroke="black" points="374.17,-230.39 364.83,-225.39 369.02,-235.12 374.17,-230.39"/>
<text text-anchor="middle" x="413.79" y="-247.8" font-family="Times,serif" font-size="14.00">सम्बोध्यः</text>
</g>
<!-- Node2_1 -->
<g id="node8" class="node">
<title>Node2_1</title>
<ellipse fill="#c6e2eb" stroke="#c6e2eb" cx="460.79" cy="-208" rx="46.59" ry="18"/>
<text text-anchor="middle" x="460.79" y="-204.3" font-family="Times,serif" font-size="14.00">त्वयि(2.1)</text>
</g>
<!-- Node2_1&#45;&gt;Node11_1 -->
<g id="edge3" class="edge">
<title>Node2_1&#45;&gt;Node11_1</title>
<path fill="none" stroke="black" d="M450.36,-235.87C445.16,-249.27 439.02,-265.08 434.46,-276.82"/>
<polygon fill="black" stroke="black" points="453.76,-236.79 454.12,-226.2 447.23,-234.26 453.76,-236.79"/>
<text text-anchor="middle" x="477.79" y="-247.8" font-family="Times,serif" font-size="14.00">देशाधिकरणम्</text>
</g>
<!-- Node5_1 -->
<g id="node9" class="node">
<title>Node5_1</title>
<ellipse fill="#87ceeb" stroke="#87ceeb" cx="59.79" cy="-34" rx="59.59" ry="18"/>
<text text-anchor="middle" x="59.79" y="-30.3" font-family="Times,serif" font-size="14.00">(पितॄणां)(5.1)</text>
</g>
<!-- Node5_1&#45;&gt;Node6_1 -->
<g id="edge6" class="edge">
<title>Node5_1&#45;&gt;Node6_1</title>
<path fill="none" stroke="black" d="M83.61,-58.59C93.39,-67.54 105.14,-77.39 116.79,-85 129.91,-93.56 145.45,-101.18 158.98,-107.1"/>
<polygon fill="black" stroke="black" points="85.92,-55.96 76.23,-51.67 81.13,-61.07 85.92,-55.96"/>
<text text-anchor="middle" x="144.29" y="-73.8" font-family="Times,serif" font-size="14.00">षष्ठीसम्बन्धः</text>
</g>
<!-- Node7_1 -->
<g id="node10" class="node">
<title>Node7_1</title>
<ellipse fill="#ff99ff" stroke="#ff99ff" cx="174.79" cy="-34" rx="37.89" ry="18"/>
<text text-anchor="middle" x="174.79" y="-30.3" font-family="Times,serif" font-size="14.00">च(7.1)</text>
</g>
<!-- Node7_1&#45;&gt;Node6_1 -->
<g id="edge8" class="edge">
<title>Node7_1&#45;&gt;Node6_1</title>
<path fill="none" stroke="black" d="M175.61,-62.28C176.2,-69.71 177.18,-77.72 178.79,-85 180.11,-90.95 182.21,-97.25 184.35,-102.84"/>
<polygon fill="black" stroke="black" points="179.1,-62.07 175.01,-52.3 172.12,-62.49 179.1,-62.07"/>
<text text-anchor="middle" x="216.79" y="-73.8" font-family="Times,serif" font-size="14.00">समुच्चय_द्योतकः</text>
</g>
<!-- Node9_1 -->
<g id="node11" class="node">
<title>Node9_1</title>
<ellipse fill="#ff99ff" stroke="#ff99ff" cx="420.79" cy="-121" rx="37.89" ry="18"/>
<text text-anchor="middle" x="420.79" y="-117.3" font-family="Times,serif" font-size="14.00">च(9.1)</text>
</g>
<!-- Node9_1&#45;&gt;Node8_1 -->
<g id="edge10" class="edge">
<title>Node9_1&#45;&gt;Node8_1</title>
<path fill="none" stroke="black" d="M389.4,-140.64C385.21,-142.88 380.94,-145.07 376.79,-147 328.92,-169.36 270.44,-186.8 232.21,-196.99"/>
<polygon fill="black" stroke="black" points="391.28,-143.6 398.32,-135.68 387.88,-137.48 391.28,-143.6"/>
<text text-anchor="middle" x="389.79" y="-160.8" font-family="Times,serif" font-size="14.00">समुच्चय_द्योतकः</text>
</g>
<!-- Node10_1 -->
<g id="node12" class="node">
<title>Node10_1</title>
<ellipse fill="#ff99ff" stroke="#ff99ff" cx="574.79" cy="-208" rx="49.29" ry="18"/>
<text text-anchor="middle" x="574.79" y="-204.3" font-family="Times,serif" font-size="14.00">अद्य(10.1)</text>
</g>
<!-- Node10_1&#45;&gt;Node11_1 -->
<g id="edge11" class="edge">
<title>Node10_1&#45;&gt;Node11_1</title>
<path fill="none" stroke="black" d="M550.29,-231.93C539.63,-241.14 526.64,-251.36 513.79,-259 499.66,-267.4 483.14,-274.67 468.37,-280.37"/>
<polygon fill="black" stroke="black" points="552.79,-234.4 557.96,-225.15 548.15,-229.16 552.79,-234.4"/>
<text text-anchor="middle" x="570.29" y="-247.8" font-family="Times,serif" font-size="14.00">कालाधिकरणम्</text>
</g>
<!-- Node12_1 -->
<g id="node13" class="node">
<title>Node12_1</title>
<ellipse fill="#ff99ff" stroke="#ff99ff" cx="862.79" cy="-121" rx="49.29" ry="18"/>
<text text-anchor="middle" x="862.79" y="-117.3" font-family="Times,serif" font-size="14.00">अद्य(12.1)</text>
</g>
<!-- Node16_1 -->
<g id="node14" class="node">
<title>Node16_1</title>
<ellipse fill="#ff1975" stroke="#ff1975" cx="747.79" cy="-208" rx="63.09" ry="18"/>
<text text-anchor="middle" x="747.79" y="-204.3" font-family="Times,serif" font-size="14.00">गम्यताम्(16.1)</text>
</g>
<!-- Node12_1&#45;&gt;Node16_1 -->
<g id="edge12" class="edge">
<title>Node12_1&#45;&gt;Node16_1</title>
<path fill="none" stroke="black" d="M833.84,-143.4C813.91,-158.13 787.84,-177.4 769.64,-190.85"/>
<polygon fill="black" stroke="black" points="836.01,-146.15 841.97,-137.39 831.85,-140.52 836.01,-146.15"/>
<text text-anchor="middle" x="847.29" y="-160.8" font-family="Times,serif" font-size="14.00">कालाधिकरणम्</text>
</g>
<!-- Node13_1 -->
<g id="node15" class="node">
<title>Node13_1</title>
<ellipse fill="#ff99ff" stroke="#ff99ff" cx="862.79" cy="-34" rx="44.69" ry="18"/>
<text text-anchor="middle" x="862.79" y="-30.3" font-family="Times,serif" font-size="14.00">वा(13.1)</text>
</g>
<!-- Node13_1&#45;&gt;Node12_1 -->
<g id="edge13" class="edge">
<title>Node13_1&#45;&gt;Node12_1</title>
<path fill="none" stroke="black" d="M862.79,-62.27C862.79,-75.58 862.79,-91.19 862.79,-102.82"/>
<polygon fill="black" stroke="black" points="866.29,-62.2 862.79,-52.2 859.29,-62.2 866.29,-62.2"/>
<text text-anchor="middle" x="881.29" y="-73.8" font-family="Times,serif" font-size="14.00">सम्बन्धः</text>
</g>
<!-- Node14_1 -->
<g id="node16" class="node">
<title>Node14_1</title>
<ellipse fill="#ff99ff" stroke="#ff99ff" cx="634.79" cy="-121" rx="46.59" ry="18"/>
<text text-anchor="middle" x="634.79" y="-117.3" font-family="Times,serif" font-size="14.00">श्वः(14.1)</text>
</g>
<!-- Node14_1&#45;&gt;Node16_1 -->
<g id="edge14" class="edge">
<title>Node14_1&#45;&gt;Node16_1</title>
<path fill="none" stroke="black" d="M650.38,-147.32C656.58,-155.94 664.27,-165.12 672.79,-172 683.75,-180.84 697.31,-188.04 709.88,-193.56"/>
<polygon fill="black" stroke="black" points="653.23,-145.29 644.71,-138.99 647.45,-149.23 653.23,-145.29"/>
<text text-anchor="middle" x="708.29" y="-160.8" font-family="Times,serif" font-size="14.00">कालाधिकरणम्</text>
</g>
<!-- Node15_1 -->
<g id="node17" class="node">
<title>Node15_1</title>
<ellipse fill="#ff99ff" stroke="#ff99ff" cx="634.79" cy="-34" rx="44.69" ry="18"/>
<text text-anchor="middle" x="634.79" y="-30.3" font-family="Times,serif" font-size="14.00">वा(15.1)</text>
</g>
<!-- Node15_1&#45;&gt;Node14_1 -->
<g id="edge15" class="edge">
<title>Node15_1&#45;&gt;Node14_1</title>
<path fill="none" stroke="black" d="M634.79,-62.27C634.79,-75.58 634.79,-91.19 634.79,-102.82"/>
<polygon fill="black" stroke="black" points="638.29,-62.2 634.79,-52.2 631.29,-62.2 638.29,-62.2"/>
<text text-anchor="middle" x="653.29" y="-73.8" font-family="Times,serif" font-size="14.00">सम्बन्धः</text>
</g>
<!-- Node17_1 -->
<g id="node18" class="node">
<title>Node17_1</title>
<ellipse fill="#6fffc3" stroke="#6fffc3" cx="747.79" cy="-121" rx="48.19" ry="18"/>
<text text-anchor="middle" x="747.79" y="-117.3" font-family="Times,serif" font-size="14.00">पुत्र(17.1)</text>
</g>
<!-- Node17_1&#45;&gt;Node16_1 -->
<g id="edge16" class="edge">
<title>Node17_1&#45;&gt;Node16_1</title>
<path fill="none" stroke="black" d="M747.79,-149.27C747.79,-162.58 747.79,-178.19 747.79,-189.82"/>
<polygon fill="black" stroke="black" points="751.29,-149.2 747.79,-139.2 744.29,-149.2 751.29,-149.2"/>
<text text-anchor="middle" x="768.79" y="-160.8" font-family="Times,serif" font-size="14.00">सम्बोध्यः</text>
</g>
<!-- Node18_1 -->
<g id="node19" class="node">
<title>Node18_1</title>
<ellipse fill="#ff99ff" stroke="#ff99ff" cx="970.79" cy="-34" rx="45.49" ry="18"/>
<text text-anchor="middle" x="970.79" y="-30.3" font-family="Times,serif" font-size="14.00">मा(18.1)</text>
</g>
<!-- Node20_1 -->
<g id="node20" class="node">
<title>Node20_1</title>
<ellipse fill="#ff1975" stroke="#ff1975" cx="1036.79" cy="-121" rx="55.79" ry="18"/>
<text text-anchor="middle" x="1036.79" y="-117.3" font-family="Times,serif" font-size="14.00">(कुरु)(20.1)</text>
</g>
<!-- Node18_1&#45;&gt;Node20_1 -->
<g id="edge17" class="edge">
<title>Node18_1&#45;&gt;Node20_1</title>
<path fill="none" stroke="black" d="M989.94,-59.65C1000.84,-73.7 1014.22,-90.92 1023.88,-103.37"/>
<polygon fill="black" stroke="black" points="992.42,-57.14 983.52,-51.39 986.89,-61.43 992.42,-57.14"/>
<text text-anchor="middle" x="1026.29" y="-73.8" font-family="Times,serif" font-size="14.00">प्रतिषेधः</text>
</g>
<!-- Node19_1 -->
<g id="node21" class="node">
<title>Node19_1</title>
<ellipse fill="#ff99ff" stroke="#ff99ff" cx="1087.79" cy="-34" rx="53.89" ry="18"/>
<text text-anchor="middle" x="1087.79" y="-30.3" font-family="Times,serif" font-size="14.00">चिरम्(19.1)</text>
</g>
<!-- Node19_1&#45;&gt;Node20_1 -->
<g id="edge18" class="edge">
<title>Node19_1&#45;&gt;Node20_1</title>
<path fill="none" stroke="black" d="M1072.55,-60.4C1064.24,-74.26 1054.18,-91.03 1046.85,-103.24"/>
<polygon fill="black" stroke="black" points="1075.57,-62.17 1077.72,-51.79 1069.57,-58.57 1075.57,-62.17"/>
<text text-anchor="middle" x="1099.79" y="-73.8" font-family="Times,serif" font-size="14.00">क्रियाविशेषणम्</text>
</g>
</g>
</svg>
