<?xml version="1.0" encoding="UTF-8" standalone="no"?>
<!DOCTYPE svg PUBLIC "-//W3C//DTD SVG 1.1//EN"
 "http://www.w3.org/Graphics/SVG/1.1/DTD/svg11.dtd">
<!-- Generated by graphviz version 2.43.0 (0)
 -->
<!-- Title: G Pages: 1 -->
<svg width="879pt" height="305pt"
 viewBox="0.00 0.00 879.29 305.00" xmlns="http://www.w3.org/2000/svg" xmlns:xlink="http://www.w3.org/1999/xlink">
<g id="graph0" class="graph" transform="scale(1 1) rotate(0) translate(4 301)">
<title>G</title>
<polygon fill="#fffacd" stroke="transparent" points="-4,4 -4,-301 875.29,-301 875.29,4 -4,4"/>
<g id="clust1" class="cluster">
<title>cluster_1</title>
<polygon fill="#fffacd" stroke="black" points="131.74,-79 131.74,-218 271.74,-218 271.74,-79 131.74,-79"/>
</g>
<g id="clust2" class="cluster">
<title>cluster_2</title>
<polygon fill="#fffacd" stroke="black" points="423.74,-79 423.74,-218 773.74,-218 773.74,-79 423.74,-79"/>
</g>
<!-- Node3_1 -->
<g id="node1" class="node">
<title>Node3_1</title>
<ellipse fill="#00bfff" stroke="#00bfff" cx="201.74" cy="-105" rx="61.99" ry="18"/>
<text text-anchor="middle" x="201.74" y="-101.3" font-family="Times,serif" font-size="14.00">निरीक्षन्तः(3.1)</text>
</g>
<!-- Node1_1 -->
<g id="node2" class="node">
<title>Node1_1</title>
<ellipse fill="#00bfff" stroke="#00bfff" cx="189.74" cy="-192" rx="37.09" ry="18"/>
<text text-anchor="middle" x="189.74" y="-188.3" font-family="Times,serif" font-size="14.00">ते(1.1)</text>
</g>
<!-- Node3_1&#45;&gt;Node1_1 -->
<g id="edge3" class="edge">
<title>Node3_1&#45;&gt;Node1_1</title>
<path fill="none" stroke="black" d="M197.9,-133.27C196.02,-146.58 193.81,-162.19 192.17,-173.82"/>
<polygon fill="black" stroke="black" points="201.38,-133.59 199.32,-123.2 194.45,-132.61 201.38,-133.59"/>
<text text-anchor="middle" x="218.24" y="-144.8" font-family="Times,serif" font-size="14.00">विशेषणम्</text>
</g>
<!-- Node5_1 -->
<g id="node7" class="node">
<title>Node5_1</title>
<ellipse fill="#ff1975" stroke="#ff1975" cx="112.74" cy="-279" rx="52.79" ry="18"/>
<text text-anchor="middle" x="112.74" y="-275.3" font-family="Times,serif" font-size="14.00">प्रजग्मुः(5.1)</text>
</g>
<!-- Node1_1&#45;&gt;Node5_1 -->
<g id="edge1" class="edge">
<title>Node1_1&#45;&gt;Node5_1</title>
<path fill="none" stroke="black" d="M168.45,-216.5C155.5,-230.8 139.28,-248.71 127.69,-261.5"/>
<polygon fill="black" stroke="black" points="171.14,-218.75 175.26,-208.99 165.95,-214.05 171.14,-218.75"/>
<text text-anchor="middle" x="166.74" y="-231.8" font-family="Times,serif" font-size="14.00">कर्ता</text>
</g>
<!-- Node7_1 -->
<g id="node3" class="node">
<title>Node7_1</title>
<ellipse fill="#00bfff" stroke="#00bfff" cx="714.74" cy="-105" rx="51.19" ry="18"/>
<text text-anchor="middle" x="714.74" y="-101.3" font-family="Times,serif" font-size="14.00">साध्वी(7.1)</text>
</g>
<!-- Node10_2 -->
<g id="node4" class="node">
<title>Node10_2</title>
<ellipse fill="#00bfff" stroke="#00bfff" cx="543.74" cy="-192" rx="59.59" ry="18"/>
<text text-anchor="middle" x="543.74" y="-188.3" font-family="Times,serif" font-size="14.00">योषितः(10.2)</text>
</g>
<!-- Node7_1&#45;&gt;Node10_2 -->
<g id="edge6" class="edge">
<title>Node7_1&#45;&gt;Node10_2</title>
<path fill="none" stroke="black" d="M678.98,-125.69C661.55,-135.12 640.19,-146.42 620.74,-156 606.25,-163.14 590,-170.6 576.17,-176.8"/>
<polygon fill="black" stroke="black" points="681.12,-128.52 688.23,-120.67 677.77,-122.37 681.12,-128.52"/>
<text text-anchor="middle" x="671.24" y="-144.8" font-family="Times,serif" font-size="14.00">समुच्चितः</text>
</g>
<!-- Node13_1 -->
<g id="node12" class="node">
<title>Node13_1</title>
<ellipse fill="#ff1975" stroke="#ff1975" cx="367.74" cy="-279" rx="51.99" ry="18"/>
<text text-anchor="middle" x="367.74" y="-275.3" font-family="Times,serif" font-size="14.00">चक्रुः(13.1)</text>
</g>
<!-- Node10_2&#45;&gt;Node13_1 -->
<g id="edge10" class="edge">
<title>Node10_2&#45;&gt;Node13_1</title>
<path fill="none" stroke="black" d="M504.23,-212.08C471.61,-227.84 426.06,-249.84 396.73,-264"/>
<polygon fill="black" stroke="black" points="506.01,-215.11 513.49,-207.61 502.96,-208.81 506.01,-215.11"/>
<text text-anchor="middle" x="476.74" y="-231.8" font-family="Times,serif" font-size="14.00">कर्ता</text>
</g>
<!-- Node8_1 -->
<g id="node5" class="node">
<title>Node8_1</title>
<ellipse fill="#00bfff" stroke="#00bfff" cx="594.74" cy="-105" rx="50.89" ry="18"/>
<text text-anchor="middle" x="594.74" y="-101.3" font-family="Times,serif" font-size="14.00">द्रौपदी(8.1)</text>
</g>
<!-- Node8_1&#45;&gt;Node10_2 -->
<g id="edge7" class="edge">
<title>Node8_1&#45;&gt;Node10_2</title>
<path fill="none" stroke="black" d="M579.5,-131.4C571.19,-145.26 561.13,-162.03 553.8,-174.24"/>
<polygon fill="black" stroke="black" points="582.52,-133.17 584.67,-122.79 576.52,-129.57 582.52,-133.17"/>
<text text-anchor="middle" x="594.24" y="-144.8" font-family="Times,serif" font-size="14.00">समुच्चितः</text>
</g>
<!-- Node9_1 -->
<g id="node6" class="node">
<title>Node9_1</title>
<ellipse fill="#00bfff" stroke="#00bfff" cx="478.74" cy="-105" rx="47.39" ry="18"/>
<text text-anchor="middle" x="478.74" y="-101.3" font-family="Times,serif" font-size="14.00">सर्वाः(9.1)</text>
</g>
<!-- Node9_1&#45;&gt;Node10_2 -->
<g id="edge8" class="edge">
<title>Node9_1&#45;&gt;Node10_2</title>
<path fill="none" stroke="black" d="M497.46,-130.7C503.59,-138.77 510.45,-147.78 516.74,-156 521.32,-161.97 526.35,-168.5 530.81,-174.28"/>
<polygon fill="black" stroke="black" points="500.21,-128.54 491.38,-122.69 494.64,-132.77 500.21,-128.54"/>
<text text-anchor="middle" x="539.24" y="-144.8" font-family="Times,serif" font-size="14.00">विशेषणम्</text>
</g>
<!-- Node2_1 -->
<g id="node8" class="node">
<title>Node2_1</title>
<ellipse fill="#ff99ff" stroke="#ff99ff" cx="201.74" cy="-18" rx="56.59" ry="18"/>
<text text-anchor="middle" x="201.74" y="-14.3" font-family="Times,serif" font-size="14.00">पुनःपुनः(2.1)</text>
</g>
<!-- Node2_1&#45;&gt;Node3_1 -->
<g id="edge2" class="edge">
<title>Node2_1&#45;&gt;Node3_1</title>
<path fill="none" stroke="black" d="M201.74,-46.27C201.74,-59.58 201.74,-75.19 201.74,-86.82"/>
<polygon fill="black" stroke="black" points="205.24,-46.2 201.74,-36.2 198.24,-46.2 205.24,-46.2"/>
<text text-anchor="middle" x="236.74" y="-57.8" font-family="Times,serif" font-size="14.00">क्रियाविशेषणम्</text>
</g>
<!-- Node4_1 -->
<g id="node9" class="node">
<title>Node4_1</title>
<ellipse fill="#93db70" stroke="#93db70" cx="61.74" cy="-192" rx="61.99" ry="18"/>
<text text-anchor="middle" x="61.74" y="-188.3" font-family="Times,serif" font-size="14.00">प्रदक्षिणम्(4.1)</text>
</g>
<!-- Node4_1&#45;&gt;Node5_1 -->
<g id="edge4" class="edge">
<title>Node4_1&#45;&gt;Node5_1</title>
<path fill="none" stroke="black" d="M76.99,-218.4C85.3,-232.26 95.36,-249.03 102.69,-261.24"/>
<polygon fill="black" stroke="black" points="79.97,-216.57 71.82,-209.79 73.96,-220.17 79.97,-216.57"/>
<text text-anchor="middle" x="99.74" y="-231.8" font-family="Times,serif" font-size="14.00">कर्म</text>
</g>
<!-- Node6_1 -->
<g id="node10" class="node">
<title>Node6_1</title>
<ellipse fill="#ff99ff" stroke="#ff99ff" cx="594.74" cy="-18" rx="46.59" ry="18"/>
<text text-anchor="middle" x="594.74" y="-14.3" font-family="Times,serif" font-size="14.00">तथैव(6.1)</text>
</g>
<!-- Node6_1&#45;&gt;Node8_1 -->
<g id="edge5" class="edge">
<title>Node6_1&#45;&gt;Node8_1</title>
<path fill="none" stroke="black" d="M594.74,-46.27C594.74,-59.58 594.74,-75.19 594.74,-86.82"/>
<polygon fill="black" stroke="black" points="598.24,-46.2 594.74,-36.2 591.24,-46.2 598.24,-46.2"/>
<text text-anchor="middle" x="613.24" y="-57.8" font-family="Times,serif" font-size="14.00">सम्बन्धः</text>
</g>
<!-- Node10_1 -->
<g id="node11" class="node">
<title>Node10_1</title>
<ellipse fill="#ffff00" stroke="#ffff00" cx="355.74" cy="-105" rx="57.69" ry="18"/>
<text text-anchor="middle" x="355.74" y="-101.3" font-family="Times,serif" font-size="14.00">कौरव&#45;(10.1)</text>
</g>
<!-- Node10_1&#45;&gt;Node10_2 -->
<g id="edge9" class="edge">
<title>Node10_1&#45;&gt;Node10_2</title>
<path fill="none" stroke="black" d="M396.56,-124.46C431.16,-140.1 480.08,-162.22 511.86,-176.58"/>
<polygon fill="black" stroke="black" points="397.77,-121.16 387.21,-120.23 394.88,-127.54 397.77,-121.16"/>
<text text-anchor="middle" x="477.74" y="-144.8" font-family="Times,serif" font-size="14.00">समासः</text>
</g>
<!-- Node11_1 -->
<g id="node13" class="node">
<title>Node11_1</title>
<ellipse fill="#ff99ff" stroke="#ff99ff" cx="827.74" cy="-105" rx="43.59" ry="18"/>
<text text-anchor="middle" x="827.74" y="-101.3" font-family="Times,serif" font-size="14.00">च(11.1)</text>
</g>
<!-- Node11_1&#45;&gt;Node10_2 -->
<g id="edge11" class="edge">
<title>Node11_1&#45;&gt;Node10_2</title>
<path fill="none" stroke="black" d="M789.38,-122.43C763.76,-132.98 729.13,-146.45 697.74,-156 663.25,-166.49 623.56,-175.44 593.11,-181.66"/>
<polygon fill="black" stroke="black" points="790.84,-125.61 798.73,-118.54 788.16,-119.15 790.84,-125.61"/>
<text text-anchor="middle" x="778.74" y="-144.8" font-family="Times,serif" font-size="14.00">समुच्चय_द्योतकः</text>
</g>
<!-- Node12_1 -->
<g id="node14" class="node">
<title>Node12_1</title>
<ellipse fill="#93db70" stroke="#93db70" cx="347.74" cy="-192" rx="67.69" ry="18"/>
<text text-anchor="middle" x="347.74" y="-188.3" font-family="Times,serif" font-size="14.00">प्रदक्षिणम्(12.1)</text>
</g>
<!-- Node12_1&#45;&gt;Node13_1 -->
<g id="edge12" class="edge">
<title>Node12_1&#45;&gt;Node13_1</title>
<path fill="none" stroke="black" d="M354.16,-220.27C357.29,-233.58 360.97,-249.19 363.7,-260.82"/>
<polygon fill="black" stroke="black" points="357.49,-219.13 351.79,-210.2 350.68,-220.74 357.49,-219.13"/>
<text text-anchor="middle" x="367.74" y="-231.8" font-family="Times,serif" font-size="14.00">कर्म</text>
</g>
</g>
</svg>
