<?xml version="1.0" encoding="UTF-8" standalone="no"?>
<!DOCTYPE svg PUBLIC "-//W3C//DTD SVG 1.1//EN"
 "http://www.w3.org/Graphics/SVG/1.1/DTD/svg11.dtd">
<!-- Generated by graphviz version 2.43.0 (0)
 -->
<!-- Title: G Pages: 1 -->
<svg width="1834pt" height="305pt"
 viewBox="0.00 0.00 1833.89 305.00" xmlns="http://www.w3.org/2000/svg" xmlns:xlink="http://www.w3.org/1999/xlink">
<g id="graph0" class="graph" transform="scale(1 1) rotate(0) translate(4 301)">
<title>G</title>
<polygon fill="#fffacd" stroke="transparent" points="-4,4 -4,-301 1829.89,-301 1829.89,4 -4,4"/>
<g id="clust1" class="cluster">
<title>cluster_1</title>
<polygon fill="#fffacd" stroke="black" points="217.2,-79 217.2,-218 433.2,-218 433.2,-79 217.2,-79"/>
</g>
<!-- Node2_1 -->
<g id="node1" class="node">
<title>Node2_1</title>
<ellipse fill="#00bfff" stroke="#00bfff" cx="379.2" cy="-105" rx="46.29" ry="18"/>
<text text-anchor="middle" x="379.2" y="-101.3" font-family="Times,serif" font-size="14.00">इयम्(2.1)</text>
</g>
<!-- Node5_1 -->
<g id="node2" class="node">
<title>Node5_1</title>
<ellipse fill="#00bfff" stroke="#00bfff" cx="270.2" cy="-192" rx="44.39" ry="18"/>
<text text-anchor="middle" x="270.2" y="-188.3" font-family="Times,serif" font-size="14.00">मही(5.1)</text>
</g>
<!-- Node2_1&#45;&gt;Node5_1 -->
<g id="edge2" class="edge">
<title>Node2_1&#45;&gt;Node5_1</title>
<path fill="none" stroke="black" d="M353.18,-128.4C342.75,-137.18 330.54,-147.24 319.2,-156 310.42,-162.77 300.52,-169.94 291.92,-176.01"/>
<polygon fill="black" stroke="black" points="355.74,-130.82 361.1,-121.68 351.21,-125.48 355.74,-130.82"/>
<text text-anchor="middle" x="359.7" y="-144.8" font-family="Times,serif" font-size="14.00">विशेषणम्</text>
</g>
<!-- Node8_1 -->
<g id="node5" class="node">
<title>Node8_1</title>
<ellipse fill="#ff1975" stroke="#ff1975" cx="157.2" cy="-279" rx="56.59" ry="18"/>
<text text-anchor="middle" x="157.2" y="-275.3" font-family="Times,serif" font-size="14.00">(अस्ति)(8.1)</text>
</g>
<!-- Node5_1&#45;&gt;Node8_1 -->
<g id="edge5" class="edge">
<title>Node5_1&#45;&gt;Node8_1</title>
<path fill="none" stroke="black" d="M254.61,-218.32C248.41,-226.94 240.72,-236.12 232.2,-243 220.9,-252.11 206.84,-259.48 193.96,-265.07"/>
<polygon fill="black" stroke="black" points="257.54,-220.23 260.28,-209.99 251.76,-216.29 257.54,-220.23"/>
<text text-anchor="middle" x="257.2" y="-231.8" font-family="Times,serif" font-size="14.00">कर्ता</text>
</g>
<!-- Node4_1 -->
<g id="node3" class="node">
<title>Node4_1</title>
<ellipse fill="#00bfff" stroke="#00bfff" cx="270.2" cy="-105" rx="44.69" ry="18"/>
<text text-anchor="middle" x="270.2" y="-101.3" font-family="Times,serif" font-size="14.00">सर्वा(4.1)</text>
</g>
<!-- Node4_1&#45;&gt;Node5_1 -->
<g id="edge4" class="edge">
<title>Node4_1&#45;&gt;Node5_1</title>
<path fill="none" stroke="black" d="M270.2,-133.27C270.2,-146.58 270.2,-162.19 270.2,-173.82"/>
<polygon fill="black" stroke="black" points="273.7,-133.2 270.2,-123.2 266.7,-133.2 273.7,-133.2"/>
<text text-anchor="middle" x="292.7" y="-144.8" font-family="Times,serif" font-size="14.00">विशेषणम्</text>
</g>
<!-- Node1_1 -->
<g id="node4" class="node">
<title>Node1_1</title>
<ellipse fill="#6fffc3" stroke="#6fffc3" cx="44.2" cy="-192" rx="44.39" ry="18"/>
<text text-anchor="middle" x="44.2" y="-188.3" font-family="Times,serif" font-size="14.00">शुभे(1.1)</text>
</g>
<!-- Node1_1&#45;&gt;Node8_1 -->
<g id="edge1" class="edge">
<title>Node1_1&#45;&gt;Node8_1</title>
<path fill="none" stroke="black" d="M72.43,-214.24C92.15,-229.07 118.06,-248.56 136.02,-262.07"/>
<polygon fill="black" stroke="black" points="74.49,-211.41 64.4,-208.2 70.29,-217 74.49,-211.41"/>
<text text-anchor="middle" x="129.2" y="-231.8" font-family="Times,serif" font-size="14.00">सम्बोध्यः</text>
</g>
<!-- Node3_1 -->
<g id="node6" class="node">
<title>Node3_1</title>
<ellipse fill="#ff99ff" stroke="#ff99ff" cx="379.2" cy="-18" rx="37.89" ry="18"/>
<text text-anchor="middle" x="379.2" y="-14.3" font-family="Times,serif" font-size="14.00">च(3.1)</text>
</g>
<!-- Node3_1&#45;&gt;Node2_1 -->
<g id="edge3" class="edge">
<title>Node3_1&#45;&gt;Node2_1</title>
<path fill="none" stroke="black" d="M379.2,-46.27C379.2,-59.58 379.2,-75.19 379.2,-86.82"/>
<polygon fill="black" stroke="black" points="382.7,-46.2 379.2,-36.2 375.7,-46.2 382.7,-46.2"/>
<text text-anchor="middle" x="397.7" y="-57.8" font-family="Times,serif" font-size="14.00">सम्बन्धः</text>
</g>
<!-- Node6_1 -->
<g id="node7" class="node">
<title>Node6_1</title>
<ellipse fill="#ff99ff" stroke="#ff99ff" cx="157.2" cy="-192" rx="50.89" ry="18"/>
<text text-anchor="middle" x="157.2" y="-188.3" font-family="Times,serif" font-size="14.00">इदानीं(6.1)</text>
</g>
<!-- Node6_1&#45;&gt;Node8_1 -->
<g id="edge6" class="edge">
<title>Node6_1&#45;&gt;Node8_1</title>
<path fill="none" stroke="black" d="M157.2,-220.27C157.2,-233.58 157.2,-249.19 157.2,-260.82"/>
<polygon fill="black" stroke="black" points="160.7,-220.2 157.2,-210.2 153.7,-220.2 160.7,-220.2"/>
<text text-anchor="middle" x="192.7" y="-231.8" font-family="Times,serif" font-size="14.00">कालाधिकरणम्</text>
</g>
<!-- Node7_1 -->
<g id="node8" class="node">
<title>Node7_1</title>
<ellipse fill="#00bfff" stroke="#00bfff" cx="159.2" cy="-105" rx="48.19" ry="18"/>
<text text-anchor="middle" x="159.2" y="-101.3" font-family="Times,serif" font-size="14.00">शून्या(7.1)</text>
</g>
<!-- Node7_1&#45;&gt;Node5_1 -->
<g id="edge7" class="edge">
<title>Node7_1&#45;&gt;Node5_1</title>
<path fill="none" stroke="black" d="M170.37,-132.35C174.93,-140.74 180.88,-149.53 188.2,-156 196.02,-162.92 218.4,-172.28 237.8,-179.57"/>
<polygon fill="black" stroke="black" points="173.4,-130.57 165.82,-123.17 167.13,-133.69 173.4,-130.57"/>
<text text-anchor="middle" x="227.2" y="-144.8" font-family="Times,serif" font-size="14.00">विधेय_विशेषणम्</text>
</g>
<!-- Node9_1 -->
<g id="node9" class="node">
<title>Node9_1</title>
<ellipse fill="#87ceeb" stroke="#87ceeb" cx="480.2" cy="-105" rx="37.09" ry="18"/>
<text text-anchor="middle" x="480.2" y="-101.3" font-family="Times,serif" font-size="14.00">मे(9.1)</text>
</g>
<!-- Node12_1 -->
<g id="node10" class="node">
<title>Node12_1</title>
<ellipse fill="#ff1975" stroke="#ff1975" cx="578.2" cy="-192" rx="62.29" ry="18"/>
<text text-anchor="middle" x="578.2" y="-188.3" font-family="Times,serif" font-size="14.00">(अस्ति)(12.1)</text>
</g>
<!-- Node9_1&#45;&gt;Node12_1 -->
<g id="edge8" class="edge">
<title>Node9_1&#45;&gt;Node12_1</title>
<path fill="none" stroke="black" d="M504.96,-127.85C514.94,-136.63 526.59,-146.82 537.2,-156 544.27,-162.12 552.08,-168.8 558.96,-174.67"/>
<polygon fill="black" stroke="black" points="507.17,-125.14 497.35,-121.16 502.55,-130.39 507.17,-125.14"/>
<text text-anchor="middle" x="555.7" y="-144.8" font-family="Times,serif" font-size="14.00">सम्बन्धः</text>
</g>
<!-- Node10_1 -->
<g id="node11" class="node">
<title>Node10_1</title>
<ellipse fill="#ff99ff" stroke="#ff99ff" cx="578.2" cy="-105" rx="42.79" ry="18"/>
<text text-anchor="middle" x="578.2" y="-101.3" font-family="Times,serif" font-size="14.00">न(10.1)</text>
</g>
<!-- Node10_1&#45;&gt;Node12_1 -->
<g id="edge9" class="edge">
<title>Node10_1&#45;&gt;Node12_1</title>
<path fill="none" stroke="black" d="M578.2,-133.27C578.2,-146.58 578.2,-162.19 578.2,-173.82"/>
<polygon fill="black" stroke="black" points="581.7,-133.2 578.2,-123.2 574.7,-133.2 581.7,-133.2"/>
<text text-anchor="middle" x="597.7" y="-144.8" font-family="Times,serif" font-size="14.00">प्रतिषेधः</text>
</g>
<!-- Node11_1 -->
<g id="node12" class="node">
<title>Node11_1</title>
<ellipse fill="#ffff00" stroke="#ffff00" cx="689.2" cy="-18" rx="55.79" ry="18"/>
<text text-anchor="middle" x="689.2" y="-14.3" font-family="Times,serif" font-size="14.00">प्रीति&#45;(11.1)</text>
</g>
<!-- Node11_2 -->
<g id="node13" class="node">
<title>Node11_2</title>
<ellipse fill="#00bfff" stroke="#00bfff" cx="689.2" cy="-105" rx="50.09" ry="18"/>
<text text-anchor="middle" x="689.2" y="-101.3" font-family="Times,serif" font-size="14.00">करी(11.2)</text>
</g>
<!-- Node11_1&#45;&gt;Node11_2 -->
<g id="edge10" class="edge">
<title>Node11_1&#45;&gt;Node11_2</title>
<path fill="none" stroke="black" d="M689.2,-46.27C689.2,-59.58 689.2,-75.19 689.2,-86.82"/>
<polygon fill="black" stroke="black" points="692.7,-46.2 689.2,-36.2 685.7,-46.2 692.7,-46.2"/>
<text text-anchor="middle" x="706.2" y="-57.8" font-family="Times,serif" font-size="14.00">समासः</text>
</g>
<!-- Node11_2&#45;&gt;Node12_1 -->
<g id="edge11" class="edge">
<title>Node11_2&#45;&gt;Node12_1</title>
<path fill="none" stroke="black" d="M660.73,-127.8C641.52,-142.51 616.59,-161.6 599.18,-174.93"/>
<polygon fill="black" stroke="black" points="663.03,-130.45 668.84,-121.59 658.77,-124.89 663.03,-130.45"/>
<text text-anchor="middle" x="651.2" y="-144.8" font-family="Times,serif" font-size="14.00">कर्ता</text>
</g>
<!-- Node13_1 -->
<g id="node14" class="node">
<title>Node13_1</title>
<ellipse fill="#87ceeb" stroke="#87ceeb" cx="808.2" cy="-18" rx="45.49" ry="18"/>
<text text-anchor="middle" x="808.2" y="-14.3" font-family="Times,serif" font-size="14.00">नः(13.1)</text>
</g>
<!-- Node14_1 -->
<g id="node15" class="node">
<title>Node14_1</title>
<ellipse fill="#00bfff" stroke="#00bfff" cx="909.2" cy="-105" rx="61.99" ry="18"/>
<text text-anchor="middle" x="909.2" y="-101.3" font-family="Times,serif" font-size="14.00">बान्धवाः(14.1)</text>
</g>
<!-- Node13_1&#45;&gt;Node14_1 -->
<g id="edge12" class="edge">
<title>Node13_1&#45;&gt;Node14_1</title>
<path fill="none" stroke="black" d="M832.67,-42.09C842.05,-50.72 852.97,-60.49 863.2,-69 870.91,-75.42 879.62,-82.16 887.36,-88"/>
<polygon fill="black" stroke="black" points="834.91,-39.39 825.19,-35.16 830.15,-44.52 834.91,-39.39"/>
<text text-anchor="middle" x="890.7" y="-57.8" font-family="Times,serif" font-size="14.00">षष्ठीसम्बन्धः</text>
</g>
<!-- Node16_1 -->
<g id="node16" class="node">
<title>Node16_1</title>
<ellipse fill="#ff1975" stroke="#ff1975" cx="909.2" cy="-192" rx="60.39" ry="18"/>
<text text-anchor="middle" x="909.2" y="-188.3" font-family="Times,serif" font-size="14.00">(सन्ति)(16.1)</text>
</g>
<!-- Node14_1&#45;&gt;Node16_1 -->
<g id="edge13" class="edge">
<title>Node14_1&#45;&gt;Node16_1</title>
<path fill="none" stroke="black" d="M909.2,-133.27C909.2,-146.58 909.2,-162.19 909.2,-173.82"/>
<polygon fill="black" stroke="black" points="912.7,-133.2 909.2,-123.2 905.7,-133.2 912.7,-133.2"/>
<text text-anchor="middle" x="920.2" y="-144.8" font-family="Times,serif" font-size="14.00">कर्ता</text>
</g>
<!-- Node15_1 -->
<g id="node17" class="node">
<title>Node15_1</title>
<ellipse fill="#00bfff" stroke="#00bfff" cx="940.2" cy="-18" rx="68.79" ry="18"/>
<text text-anchor="middle" x="940.2" y="-14.3" font-family="Times,serif" font-size="14.00">परिक्षीणाः(15.1)</text>
</g>
<!-- Node15_1&#45;&gt;Node14_1 -->
<g id="edge14" class="edge">
<title>Node15_1&#45;&gt;Node14_1</title>
<path fill="none" stroke="black" d="M930.4,-45.87C925.51,-59.27 919.74,-75.08 915.46,-86.82"/>
<polygon fill="black" stroke="black" points="933.78,-46.79 933.92,-36.2 927.21,-44.4 933.78,-46.79"/>
<text text-anchor="middle" x="965.2" y="-57.8" font-family="Times,serif" font-size="14.00">विधेय_विशेषणम्</text>
</g>
<!-- Node17_1 -->
<g id="node18" class="node">
<title>Node17_1</title>
<ellipse fill="#87ceeb" stroke="#87ceeb" cx="1102.2" cy="-18" rx="45.49" ry="18"/>
<text text-anchor="middle" x="1102.2" y="-14.3" font-family="Times,serif" font-size="14.00">नः(17.1)</text>
</g>
<!-- Node18_1 -->
<g id="node19" class="node">
<title>Node18_1</title>
<ellipse fill="#00bfff" stroke="#00bfff" cx="1102.2" cy="-105" rx="53.09" ry="18"/>
<text text-anchor="middle" x="1102.2" y="-101.3" font-family="Times,serif" font-size="14.00">बलम्(18.1)</text>
</g>
<!-- Node17_1&#45;&gt;Node18_1 -->
<g id="edge15" class="edge">
<title>Node17_1&#45;&gt;Node18_1</title>
<path fill="none" stroke="black" d="M1102.2,-46.27C1102.2,-59.58 1102.2,-75.19 1102.2,-86.82"/>
<polygon fill="black" stroke="black" points="1105.7,-46.2 1102.2,-36.2 1098.7,-46.2 1105.7,-46.2"/>
<text text-anchor="middle" x="1129.7" y="-57.8" font-family="Times,serif" font-size="14.00">षष्ठीसम्बन्धः</text>
</g>
<!-- Node21_1 -->
<g id="node20" class="node">
<title>Node21_1</title>
<ellipse fill="#ff1975" stroke="#ff1975" cx="1222.2" cy="-192" rx="66.09" ry="18"/>
<text text-anchor="middle" x="1222.2" y="-188.3" font-family="Times,serif" font-size="14.00">(आसीत्)(21.1)</text>
</g>
<!-- Node18_1&#45;&gt;Node21_1 -->
<g id="edge16" class="edge">
<title>Node18_1&#45;&gt;Node21_1</title>
<path fill="none" stroke="black" d="M1132.42,-127.41C1153.26,-142.17 1180.52,-161.48 1199.51,-174.93"/>
<polygon fill="black" stroke="black" points="1134.39,-124.51 1124.21,-121.59 1130.34,-130.23 1134.39,-124.51"/>
<text text-anchor="middle" x="1180.2" y="-144.8" font-family="Times,serif" font-size="14.00">कर्ता</text>
</g>
<!-- Node19_1 -->
<g id="node21" class="node">
<title>Node19_1</title>
<ellipse fill="#ff99ff" stroke="#ff99ff" cx="1222.2" cy="-105" rx="48.99" ry="18"/>
<text text-anchor="middle" x="1222.2" y="-101.3" font-family="Times,serif" font-size="14.00">पुरा(19.1)</text>
</g>
<!-- Node19_1&#45;&gt;Node21_1 -->
<g id="edge17" class="edge">
<title>Node19_1&#45;&gt;Node21_1</title>
<path fill="none" stroke="black" d="M1222.2,-133.27C1222.2,-146.58 1222.2,-162.19 1222.2,-173.82"/>
<polygon fill="black" stroke="black" points="1225.7,-133.2 1222.2,-123.2 1218.7,-133.2 1225.7,-133.2"/>
<text text-anchor="middle" x="1257.7" y="-144.8" font-family="Times,serif" font-size="14.00">कालाधिकरणम्</text>
</g>
<!-- Node20_1 -->
<g id="node22" class="node">
<title>Node20_1</title>
<ellipse fill="#ff99ff" stroke="#ff99ff" cx="1339.2" cy="-105" rx="50.89" ry="18"/>
<text text-anchor="middle" x="1339.2" y="-101.3" font-family="Times,serif" font-size="14.00">यथा(20.1)</text>
</g>
<!-- Node20_1&#45;&gt;Node21_1 -->
<g id="edge18" class="edge">
<title>Node20_1&#45;&gt;Node21_1</title>
<path fill="none" stroke="black" d="M1321.75,-130.99C1314.83,-139.68 1306.33,-148.99 1297.2,-156 1286.14,-164.48 1272.69,-171.56 1260.25,-177.08"/>
<polygon fill="black" stroke="black" points="1324.61,-133.02 1327.88,-122.94 1319.04,-128.78 1324.61,-133.02"/>
<text text-anchor="middle" x="1348.7" y="-144.8" font-family="Times,serif" font-size="14.00">उपमान_द्योतकः</text>
</g>
<!-- Node22_1 -->
<g id="node23" class="node">
<title>Node22_1</title>
<ellipse fill="#ff99ff" stroke="#ff99ff" cx="1525.2" cy="-105" rx="50.89" ry="18"/>
<text text-anchor="middle" x="1525.2" y="-101.3" font-family="Times,serif" font-size="14.00">तथा(22.1)</text>
</g>
<!-- Node20_1&#45;&gt;Node22_1 -->
<g id="edge19" class="edge">
<title>Node20_1&#45;&gt;Node22_1</title>
<path fill="none" stroke="red" stroke-dasharray="5,2" d="M1400.11,-105C1420.68,-105 1443.65,-105 1464.23,-105"/>
<polygon fill="red" stroke="red" points="1400.02,-101.5 1390.02,-105 1400.02,-108.5 1400.02,-101.5"/>
<polygon fill="red" stroke="red" points="1464.43,-108.5 1474.43,-105 1464.43,-101.5 1464.43,-108.5"/>
<text text-anchor="middle" x="1432.2" y="-90.8" font-family="Times,serif" font-size="14.00">नित्य_सम्बन्धः</text>
</g>
<!-- Node24_1 -->
<g id="node24" class="node">
<title>Node24_1</title>
<ellipse fill="#ff1975" stroke="#ff1975" cx="1637.2" cy="-192" rx="62.29" ry="18"/>
<text text-anchor="middle" x="1637.2" y="-188.3" font-family="Times,serif" font-size="14.00">(अस्ति)(24.1)</text>
</g>
<!-- Node22_1&#45;&gt;Node24_1 -->
<g id="edge20" class="edge">
<title>Node22_1&#45;&gt;Node24_1</title>
<path fill="none" stroke="black" d="M1540.8,-131.29C1547,-139.91 1554.69,-149.1 1563.2,-156 1574.01,-164.77 1587.39,-171.96 1599.79,-177.48"/>
<polygon fill="black" stroke="black" points="1543.66,-129.26 1535.13,-122.97 1537.87,-133.21 1543.66,-129.26"/>
<text text-anchor="middle" x="1598.2" y="-144.8" font-family="Times,serif" font-size="14.00">क्रियाविशेषणम्</text>
</g>
<!-- Node23_1 -->
<g id="node25" class="node">
<title>Node23_1</title>
<ellipse fill="#ff99ff" stroke="#ff99ff" cx="1637.2" cy="-105" rx="42.79" ry="18"/>
<text text-anchor="middle" x="1637.2" y="-101.3" font-family="Times,serif" font-size="14.00">न(23.1)</text>
</g>
<!-- Node23_1&#45;&gt;Node24_1 -->
<g id="edge21" class="edge">
<title>Node23_1&#45;&gt;Node24_1</title>
<path fill="none" stroke="black" d="M1637.2,-133.27C1637.2,-146.58 1637.2,-162.19 1637.2,-173.82"/>
<polygon fill="black" stroke="black" points="1640.7,-133.2 1637.2,-123.2 1633.7,-133.2 1640.7,-133.2"/>
<text text-anchor="middle" x="1656.7" y="-144.8" font-family="Times,serif" font-size="14.00">प्रतिषेधः</text>
</g>
<!-- Node25_1 -->
<g id="node26" class="node">
<title>Node25_1</title>
<ellipse fill="#ff99ff" stroke="#ff99ff" cx="1762.2" cy="-105" rx="63.89" ry="18"/>
<text text-anchor="middle" x="1762.2" y="-101.3" font-family="Times,serif" font-size="14.00">(अधुना)(25.1)</text>
</g>
<!-- Node25_1&#45;&gt;Node24_1 -->
<g id="edge22" class="edge">
<title>Node25_1&#45;&gt;Node24_1</title>
<path fill="none" stroke="black" d="M1730.71,-127.41C1708.96,-142.2 1680.5,-161.55 1660.71,-175.01"/>
<polygon fill="black" stroke="black" points="1732.68,-130.31 1738.98,-121.79 1728.74,-124.52 1732.68,-130.31"/>
<text text-anchor="middle" x="1741.7" y="-144.8" font-family="Times,serif" font-size="14.00">कालाधिकरणम्</text>
</g>
</g>
</svg>
