<?xml version="1.0" encoding="UTF-8" standalone="no"?>
<!DOCTYPE svg PUBLIC "-//W3C//DTD SVG 1.1//EN"
 "http://www.w3.org/Graphics/SVG/1.1/DTD/svg11.dtd">
<!-- Generated by graphviz version 2.43.0 (0)
 -->
<!-- Title: G Pages: 1 -->
<svg width="821pt" height="392pt"
 viewBox="0.00 0.00 821.10 392.00" xmlns="http://www.w3.org/2000/svg" xmlns:xlink="http://www.w3.org/1999/xlink">
<g id="graph0" class="graph" transform="scale(1 1) rotate(0) translate(4 388)">
<title>G</title>
<polygon fill="#fffacd" stroke="transparent" points="-4,4 -4,-388 817.1,-388 817.1,4 -4,4"/>
<g id="clust1" class="cluster">
<title>cluster_1</title>
<polygon fill="#fffacd" stroke="black" points="210.1,-79 210.1,-218 324.1,-218 324.1,-79 210.1,-79"/>
</g>
<!-- Node3_2 -->
<g id="node1" class="node">
<title>Node3_2</title>
<ellipse fill="#93db70" stroke="#93db70" cx="267.1" cy="-105" rx="48.99" ry="18"/>
<text text-anchor="middle" x="267.1" y="-101.3" font-family="Times,serif" font-size="14.00">भुजम्(3.2)</text>
</g>
<!-- Node4_1 -->
<g id="node2" class="node">
<title>Node4_1</title>
<ellipse fill="#93db70" stroke="#93db70" cx="264.1" cy="-192" rx="42.49" ry="18"/>
<text text-anchor="middle" x="264.1" y="-188.3" font-family="Times,serif" font-size="14.00">तम्(4.1)</text>
</g>
<!-- Node3_2&#45;&gt;Node4_1 -->
<g id="edge5" class="edge">
<title>Node3_2&#45;&gt;Node4_1</title>
<path fill="none" stroke="black" d="M266.13,-133.27C265.66,-146.58 265.11,-162.19 264.7,-173.82"/>
<polygon fill="black" stroke="black" points="269.63,-133.32 266.49,-123.2 262.64,-133.07 269.63,-133.32"/>
<text text-anchor="middle" x="287.6" y="-144.8" font-family="Times,serif" font-size="14.00">विशेषणम्</text>
</g>
<!-- Node5_1 -->
<g id="node4" class="node">
<title>Node5_1</title>
<ellipse fill="#ff99ff" stroke="#ff99ff" cx="155.1" cy="-279" rx="59.29" ry="18"/>
<text text-anchor="middle" x="155.1" y="-275.3" font-family="Times,serif" font-size="14.00">परिष्वज्य(5.1)</text>
</g>
<!-- Node4_1&#45;&gt;Node5_1 -->
<g id="edge6" class="edge">
<title>Node4_1&#45;&gt;Node5_1</title>
<path fill="none" stroke="black" d="M251.36,-218.96C246.26,-227.43 239.76,-236.36 232.1,-243 221.11,-252.52 207.11,-259.91 194.06,-265.4"/>
<polygon fill="black" stroke="black" points="254.5,-220.52 256.33,-210.08 248.39,-217.1 254.5,-220.52"/>
<text text-anchor="middle" x="253.1" y="-231.8" font-family="Times,serif" font-size="14.00">कर्म</text>
</g>
<!-- Node1_1 -->
<g id="node3" class="node">
<title>Node1_1</title>
<ellipse fill="#ff99ff" stroke="#ff99ff" cx="158.1" cy="-192" rx="44.39" ry="18"/>
<text text-anchor="middle" x="158.1" y="-188.3" font-family="Times,serif" font-size="14.00">ततः(1.1)</text>
</g>
<!-- Node1_1&#45;&gt;Node5_1 -->
<g id="edge1" class="edge">
<title>Node1_1&#45;&gt;Node5_1</title>
<path fill="none" stroke="black" d="M157.13,-220.27C156.66,-233.58 156.11,-249.19 155.7,-260.82"/>
<polygon fill="black" stroke="black" points="160.63,-220.32 157.49,-210.2 153.64,-220.07 160.63,-220.32"/>
<text text-anchor="middle" x="192.6" y="-231.8" font-family="Times,serif" font-size="14.00">कालाधिकरणम्</text>
</g>
<!-- Node6_1 -->
<g id="node6" class="node">
<title>Node6_1</title>
<ellipse fill="#ff1975" stroke="#ff1975" cx="67.1" cy="-366" rx="48.99" ry="18"/>
<text text-anchor="middle" x="67.1" y="-362.3" font-family="Times,serif" font-size="14.00">उवाच(6.1)</text>
</g>
<!-- Node5_1&#45;&gt;Node6_1 -->
<g id="edge7" class="edge">
<title>Node5_1&#45;&gt;Node6_1</title>
<path fill="none" stroke="black" d="M130.7,-303.56C115.74,-318.02 96.97,-336.14 83.71,-348.95"/>
<polygon fill="black" stroke="black" points="133.37,-305.85 138.13,-296.39 128.5,-300.82 133.37,-305.85"/>
<text text-anchor="middle" x="137.6" y="-318.8" font-family="Times,serif" font-size="14.00">पूर्वकालः</text>
</g>
<!-- Node2_1 -->
<g id="node5" class="node">
<title>Node2_1</title>
<ellipse fill="#00bfff" stroke="#00bfff" cx="48.1" cy="-192" rx="48.19" ry="18"/>
<text text-anchor="middle" x="48.1" y="-188.3" font-family="Times,serif" font-size="14.00">कुन्ती(2.1)</text>
</g>
<!-- Node2_1&#45;&gt;Node5_1 -->
<g id="edge2" class="edge">
<title>Node2_1&#45;&gt;Node5_1</title>
<path fill="none" stroke="black" d="M75.79,-215C94.27,-229.68 118.16,-248.66 134.87,-261.93"/>
<polygon fill="black" stroke="black" points="77.73,-212.07 67.72,-208.59 73.37,-217.55 77.73,-212.07"/>
<text text-anchor="middle" x="119.1" y="-231.8" font-family="Times,serif" font-size="14.00">कर्ता</text>
</g>
<!-- Node2_1&#45;&gt;Node6_1 -->
<g id="edge3" class="edge">
<title>Node2_1&#45;&gt;Node6_1</title>
<path fill="none" stroke="black" stroke-dasharray="1,5" d="M51.12,-220.36C55.08,-256.24 61.92,-318.12 65.21,-347.95"/>
<polygon fill="black" stroke="black" points="54.56,-219.68 49.99,-210.12 47.61,-220.44 54.56,-219.68"/>
<text text-anchor="middle" x="71.1" y="-275.3" font-family="Times,serif" font-size="14.00">कर्ता</text>
</g>
<!-- Node3_1 -->
<g id="node7" class="node">
<title>Node3_1</title>
<ellipse fill="#ffff00" stroke="#ffff00" cx="267.1" cy="-18" rx="46.59" ry="18"/>
<text text-anchor="middle" x="267.1" y="-14.3" font-family="Times,serif" font-size="14.00">महा&#45;(3.1)</text>
</g>
<!-- Node3_1&#45;&gt;Node3_2 -->
<g id="edge4" class="edge">
<title>Node3_1&#45;&gt;Node3_2</title>
<path fill="none" stroke="black" d="M267.1,-46.27C267.1,-59.58 267.1,-75.19 267.1,-86.82"/>
<polygon fill="black" stroke="black" points="270.6,-46.2 267.1,-36.2 263.6,-46.2 270.6,-46.2"/>
<text text-anchor="middle" x="284.1" y="-57.8" font-family="Times,serif" font-size="14.00">समासः</text>
</g>
<!-- Node7_1 -->
<g id="node8" class="node">
<title>Node7_1</title>
<ellipse fill="#6fffc3" stroke="#6fffc3" cx="391.1" cy="-18" rx="42.49" ry="18"/>
<text text-anchor="middle" x="391.1" y="-14.3" font-family="Times,serif" font-size="14.00">पुत्र(7.1)</text>
</g>
<!-- Node8_1 -->
<g id="node9" class="node">
<title>Node8_1</title>
<ellipse fill="#ff1975" stroke="#ff1975" cx="391.1" cy="-105" rx="57.39" ry="18"/>
<text text-anchor="middle" x="391.1" y="-101.3" font-family="Times,serif" font-size="14.00">गम्यताम्(8.1)</text>
</g>
<!-- Node7_1&#45;&gt;Node8_1 -->
<g id="edge8" class="edge">
<title>Node7_1&#45;&gt;Node8_1</title>
<path fill="none" stroke="black" d="M391.1,-46.27C391.1,-59.58 391.1,-75.19 391.1,-86.82"/>
<polygon fill="black" stroke="black" points="394.6,-46.2 391.1,-36.2 387.6,-46.2 394.6,-46.2"/>
<text text-anchor="middle" x="415.1" y="-57.8" font-family="Times,serif" font-size="14.00">सम्बोधनम्</text>
</g>
<!-- Node9_1 -->
<g id="node10" class="node">
<title>Node9_1</title>
<ellipse fill="#ff99ff" stroke="#ff99ff" cx="505.1" cy="-18" rx="39.79" ry="18"/>
<text text-anchor="middle" x="505.1" y="-14.3" font-family="Times,serif" font-size="14.00">मा(9.1)</text>
</g>
<!-- Node11_1 -->
<g id="node11" class="node">
<title>Node11_1</title>
<ellipse fill="#ff1975" stroke="#ff1975" cx="519.1" cy="-105" rx="52.79" ry="18"/>
<text text-anchor="middle" x="519.1" y="-101.3" font-family="Times,serif" font-size="14.00">वोचः(11.1)</text>
</g>
<!-- Node9_1&#45;&gt;Node11_1 -->
<g id="edge9" class="edge">
<title>Node9_1&#45;&gt;Node11_1</title>
<path fill="none" stroke="black" d="M509.59,-46.27C511.78,-59.58 514.35,-75.19 516.27,-86.82"/>
<polygon fill="black" stroke="black" points="513.01,-45.5 507.93,-36.2 506.1,-46.64 513.01,-45.5"/>
<text text-anchor="middle" x="527.6" y="-57.8" font-family="Times,serif" font-size="14.00">निषेधः</text>
</g>
<!-- Node10_1 -->
<g id="node12" class="node">
<title>Node10_1</title>
<ellipse fill="#ff99ff" stroke="#ff99ff" cx="610.1" cy="-18" rx="47.39" ry="18"/>
<text text-anchor="middle" x="610.1" y="-14.3" font-family="Times,serif" font-size="14.00">एवं(10.1)</text>
</g>
<!-- Node10_1&#45;&gt;Node11_1 -->
<g id="edge10" class="edge">
<title>Node10_1&#45;&gt;Node11_1</title>
<path fill="none" stroke="black" d="M585.31,-42.16C569.82,-56.62 550.28,-74.88 536.44,-87.79"/>
<polygon fill="black" stroke="black" points="588.06,-44.37 592.98,-34.99 583.28,-39.26 588.06,-44.37"/>
<text text-anchor="middle" x="604.1" y="-57.8" font-family="Times,serif" font-size="14.00">क्रियाविशेषणम्</text>
</g>
<!-- Node12_1 -->
<g id="node13" class="node">
<title>Node12_1</title>
<ellipse fill="#00bfff" stroke="#00bfff" cx="640.1" cy="-105" rx="50.09" ry="18"/>
<text text-anchor="middle" x="640.1" y="-101.3" font-family="Times,serif" font-size="14.00">त्वम्(12.1)</text>
</g>
<!-- Node15_1 -->
<g id="node14" class="node">
<title>Node15_1</title>
<ellipse fill="#ff1975" stroke="#ff1975" cx="662.1" cy="-192" rx="49.29" ry="18"/>
<text text-anchor="middle" x="662.1" y="-188.3" font-family="Times,serif" font-size="14.00">कुरु(15.1)</text>
</g>
<!-- Node12_1&#45;&gt;Node15_1 -->
<g id="edge11" class="edge">
<title>Node12_1&#45;&gt;Node15_1</title>
<path fill="none" stroke="black" d="M647.15,-133.27C650.6,-146.58 654.64,-162.19 657.65,-173.82"/>
<polygon fill="black" stroke="black" points="650.44,-132.01 644.55,-123.2 643.67,-133.76 650.44,-132.01"/>
<text text-anchor="middle" x="663.1" y="-144.8" font-family="Times,serif" font-size="14.00">कर्ता</text>
</g>
<!-- Node13_1 -->
<g id="node15" class="node">
<title>Node13_1</title>
<ellipse fill="#87ceeb" stroke="#87ceeb" cx="758.1" cy="-18" rx="48.19" ry="18"/>
<text text-anchor="middle" x="758.1" y="-14.3" font-family="Times,serif" font-size="14.00">मम(13.1)</text>
</g>
<!-- Node14_1 -->
<g id="node16" class="node">
<title>Node14_1</title>
<ellipse fill="#93db70" stroke="#93db70" cx="758.1" cy="-105" rx="50.09" ry="18"/>
<text text-anchor="middle" x="758.1" y="-101.3" font-family="Times,serif" font-size="14.00">वचः(14.1)</text>
</g>
<!-- Node13_1&#45;&gt;Node14_1 -->
<g id="edge12" class="edge">
<title>Node13_1&#45;&gt;Node14_1</title>
<path fill="none" stroke="black" d="M758.1,-46.27C758.1,-59.58 758.1,-75.19 758.1,-86.82"/>
<polygon fill="black" stroke="black" points="761.6,-46.2 758.1,-36.2 754.6,-46.2 761.6,-46.2"/>
<text text-anchor="middle" x="785.6" y="-57.8" font-family="Times,serif" font-size="14.00">षष्ठीसम्बन्धः</text>
</g>
<!-- Node14_1&#45;&gt;Node15_1 -->
<g id="edge13" class="edge">
<title>Node14_1&#45;&gt;Node15_1</title>
<path fill="none" stroke="black" d="M732.34,-128.8C715.83,-143.43 694.8,-162.04 680.07,-175.08"/>
<polygon fill="black" stroke="black" points="734.87,-131.24 740.04,-121.99 730.23,-126 734.87,-131.24"/>
<text text-anchor="middle" x="724.1" y="-144.8" font-family="Times,serif" font-size="14.00">कर्म</text>
</g>
</g>
</svg>
