<?xml version="1.0" encoding="UTF-8" standalone="no"?>
<!DOCTYPE svg PUBLIC "-//W3C//DTD SVG 1.1//EN"
 "http://www.w3.org/Graphics/SVG/1.1/DTD/svg11.dtd">
<!-- Generated by graphviz version 2.43.0 (0)
 -->
<!-- Title: G Pages: 1 -->
<svg width="894pt" height="392pt"
 viewBox="0.00 0.00 893.80 392.00" xmlns="http://www.w3.org/2000/svg" xmlns:xlink="http://www.w3.org/1999/xlink">
<g id="graph0" class="graph" transform="scale(1 1) rotate(0) translate(4 388)">
<title>G</title>
<polygon fill="#fffacd" stroke="transparent" points="-4,4 -4,-388 889.8,-388 889.8,4 -4,4"/>
<g id="clust1" class="cluster">
<title>cluster_1</title>
<polygon fill="#fffacd" stroke="black" points="8,-166 8,-305 236,-305 236,-166 8,-166"/>
</g>
<g id="clust2" class="cluster">
<title>cluster_2</title>
<polygon fill="#fffacd" stroke="black" points="244,-166 244,-305 479,-305 479,-166 244,-166"/>
</g>
<!-- Node1_3 -->
<g id="node1" class="node">
<title>Node1_3</title>
<ellipse fill="#00bfff" stroke="#00bfff" cx="168" cy="-192" rx="60.39" ry="18"/>
<text text-anchor="middle" x="168" y="-188.3" font-family="Times,serif" font-size="14.00">विहारिणः(1.3)</text>
</g>
<!-- Node3_1 -->
<g id="node2" class="node">
<title>Node3_1</title>
<ellipse fill="#00bfff" stroke="#00bfff" cx="168" cy="-279" rx="47.39" ry="18"/>
<text text-anchor="middle" x="168" y="-275.3" font-family="Times,serif" font-size="14.00">पुत्राः(3.1)</text>
</g>
<!-- Node1_3&#45;&gt;Node3_1 -->
<g id="edge3" class="edge">
<title>Node1_3&#45;&gt;Node3_1</title>
<path fill="none" stroke="black" d="M168,-220.27C168,-233.58 168,-249.19 168,-260.82"/>
<polygon fill="black" stroke="black" points="171.5,-220.2 168,-210.2 164.5,-220.2 171.5,-220.2"/>
<text text-anchor="middle" x="190.5" y="-231.8" font-family="Times,serif" font-size="14.00">विशेषणम्</text>
</g>
<!-- Node8_1 -->
<g id="node9" class="node">
<title>Node8_1</title>
<ellipse fill="#00bfff" stroke="#00bfff" cx="396" cy="-366" rx="46.59" ry="18"/>
<text text-anchor="middle" x="396" y="-362.3" font-family="Times,serif" font-size="14.00">गताः(8.1)</text>
</g>
<!-- Node3_1&#45;&gt;Node8_1 -->
<g id="edge5" class="edge">
<title>Node3_1&#45;&gt;Node8_1</title>
<path fill="none" stroke="black" d="M210.27,-295.76C254.55,-312.26 323.13,-337.83 363.39,-352.84"/>
<polygon fill="black" stroke="black" points="211.26,-292.39 200.67,-292.18 208.81,-298.95 211.26,-292.39"/>
<text text-anchor="middle" x="306" y="-318.8" font-family="Times,serif" font-size="14.00">कर्ता</text>
</g>
<!-- Node2_1 -->
<g id="node3" class="node">
<title>Node2_1</title>
<ellipse fill="#87ceeb" stroke="#87ceeb" cx="53" cy="-192" rx="37.09" ry="18"/>
<text text-anchor="middle" x="53" y="-188.3" font-family="Times,serif" font-size="14.00">ते(2.1)</text>
</g>
<!-- Node2_1&#45;&gt;Node3_1 -->
<g id="edge4" class="edge">
<title>Node2_1&#45;&gt;Node3_1</title>
<path fill="none" stroke="black" d="M80.15,-213.84C92.02,-222.88 106.14,-233.54 119,-243 127.93,-249.57 137.86,-256.7 146.44,-262.8"/>
<polygon fill="black" stroke="black" points="82.03,-210.87 71.96,-207.58 77.78,-216.43 82.03,-210.87"/>
<text text-anchor="middle" x="141.5" y="-231.8" font-family="Times,serif" font-size="14.00">विशेषणम्</text>
</g>
<!-- Node5_2 -->
<g id="node4" class="node">
<title>Node5_2</title>
<ellipse fill="#93db70" stroke="#93db70" cx="422" cy="-192" rx="49.29" ry="18"/>
<text text-anchor="middle" x="422" y="-188.3" font-family="Times,serif" font-size="14.00">पूताम्(5.2)</text>
</g>
<!-- Node7_1 -->
<g id="node5" class="node">
<title>Node7_1</title>
<ellipse fill="#93db70" stroke="#93db70" cx="396" cy="-279" rx="49.29" ry="18"/>
<text text-anchor="middle" x="396" y="-275.3" font-family="Times,serif" font-size="14.00">गतिम्(7.1)</text>
</g>
<!-- Node5_2&#45;&gt;Node7_1 -->
<g id="edge9" class="edge">
<title>Node5_2&#45;&gt;Node7_1</title>
<path fill="none" stroke="black" d="M413.78,-219.87C409.68,-233.27 404.85,-249.08 401.25,-260.82"/>
<polygon fill="black" stroke="black" points="417.16,-220.79 416.74,-210.2 410.47,-218.74 417.16,-220.79"/>
<text text-anchor="middle" x="432.5" y="-231.8" font-family="Times,serif" font-size="14.00">विशेषणम्</text>
</g>
<!-- Node7_1&#45;&gt;Node8_1 -->
<g id="edge11" class="edge">
<title>Node7_1&#45;&gt;Node8_1</title>
<path fill="none" stroke="black" d="M396,-307.27C396,-320.58 396,-336.19 396,-347.82"/>
<polygon fill="black" stroke="black" points="399.5,-307.2 396,-297.2 392.5,-307.2 399.5,-307.2"/>
<text text-anchor="middle" x="405" y="-318.8" font-family="Times,serif" font-size="14.00">कर्म</text>
</g>
<!-- Node6_1 -->
<g id="node6" class="node">
<title>Node6_1</title>
<ellipse fill="#93db70" stroke="#93db70" cx="303" cy="-192" rx="51.19" ry="18"/>
<text text-anchor="middle" x="303" y="-188.3" font-family="Times,serif" font-size="14.00">शुभाम्(6.1)</text>
</g>
<!-- Node6_1&#45;&gt;Node7_1 -->
<g id="edge10" class="edge">
<title>Node6_1&#45;&gt;Node7_1</title>
<path fill="none" stroke="black" d="M327.95,-215.8C343.95,-230.43 364.32,-249.04 378.59,-262.08"/>
<polygon fill="black" stroke="black" points="330.24,-213.15 320.49,-208.99 325.51,-218.32 330.24,-213.15"/>
<text text-anchor="middle" x="377.5" y="-231.8" font-family="Times,serif" font-size="14.00">विशेषणम्</text>
</g>
<!-- Node1_1 -->
<g id="node7" class="node">
<title>Node1_1</title>
<ellipse fill="#ffff00" stroke="#ffff00" cx="168" cy="-18" rx="48.19" ry="18"/>
<text text-anchor="middle" x="168" y="-14.3" font-family="Times,serif" font-size="14.00">यथा&#45;(1.1)</text>
</g>
<!-- Node1_2 -->
<g id="node8" class="node">
<title>Node1_2</title>
<ellipse fill="#ffff00" stroke="#ffff00" cx="168" cy="-105" rx="48.99" ry="18"/>
<text text-anchor="middle" x="168" y="-101.3" font-family="Times,serif" font-size="14.00">काम&#45;(1.2)</text>
</g>
<!-- Node1_1&#45;&gt;Node1_2 -->
<g id="edge1" class="edge">
<title>Node1_1&#45;&gt;Node1_2</title>
<path fill="none" stroke="black" d="M168,-46.27C168,-59.58 168,-75.19 168,-86.82"/>
<polygon fill="black" stroke="black" points="171.5,-46.2 168,-36.2 164.5,-46.2 171.5,-46.2"/>
<text text-anchor="middle" x="185" y="-57.8" font-family="Times,serif" font-size="14.00">समासः</text>
</g>
<!-- Node1_2&#45;&gt;Node1_3 -->
<g id="edge2" class="edge">
<title>Node1_2&#45;&gt;Node1_3</title>
<path fill="none" stroke="black" d="M168,-133.27C168,-146.58 168,-162.19 168,-173.82"/>
<polygon fill="black" stroke="black" points="171.5,-133.2 168,-123.2 164.5,-133.2 171.5,-133.2"/>
<text text-anchor="middle" x="185" y="-144.8" font-family="Times,serif" font-size="14.00">समासः</text>
</g>
<!-- Node4_1 -->
<g id="node10" class="node">
<title>Node4_1</title>
<ellipse fill="#ffff00" stroke="#ffff00" cx="495" cy="-18" rx="46.59" ry="18"/>
<text text-anchor="middle" x="495" y="-14.3" font-family="Times,serif" font-size="14.00">क्षत्र&#45;(4.1)</text>
</g>
<!-- Node4_2 -->
<g id="node11" class="node">
<title>Node4_2</title>
<ellipse fill="#40e0d0" stroke="#40e0d0" cx="495" cy="-105" rx="48.99" ry="18"/>
<text text-anchor="middle" x="495" y="-101.3" font-family="Times,serif" font-size="14.00">धर्मेण(4.2)</text>
</g>
<!-- Node4_1&#45;&gt;Node4_2 -->
<g id="edge6" class="edge">
<title>Node4_1&#45;&gt;Node4_2</title>
<path fill="none" stroke="black" d="M495,-46.27C495,-59.58 495,-75.19 495,-86.82"/>
<polygon fill="black" stroke="black" points="498.5,-46.2 495,-36.2 491.5,-46.2 498.5,-46.2"/>
<text text-anchor="middle" x="512" y="-57.8" font-family="Times,serif" font-size="14.00">समासः</text>
</g>
<!-- Node4_2&#45;&gt;Node5_2 -->
<g id="edge7" class="edge">
<title>Node4_2&#45;&gt;Node5_2</title>
<path fill="none" stroke="black" d="M474.12,-130.31C461.91,-144.53 446.83,-162.09 436.03,-174.66"/>
<polygon fill="black" stroke="black" points="477.06,-132.26 480.92,-122.39 471.75,-127.69 477.06,-132.26"/>
<text text-anchor="middle" x="478.5" y="-144.8" font-family="Times,serif" font-size="14.00">करणम्</text>
</g>
<!-- Node5_1 -->
<g id="node12" class="node">
<title>Node5_1</title>
<ellipse fill="#ffff00" stroke="#ffff00" cx="378" cy="-105" rx="50.09" ry="18"/>
<text text-anchor="middle" x="378" y="-101.3" font-family="Times,serif" font-size="14.00">शस्त्र&#45;(5.1)</text>
</g>
<!-- Node5_1&#45;&gt;Node5_2 -->
<g id="edge8" class="edge">
<title>Node5_1&#45;&gt;Node5_2</title>
<path fill="none" stroke="black" d="M391.35,-131.8C398.49,-145.58 407.06,-162.14 413.33,-174.24"/>
<polygon fill="black" stroke="black" points="394.4,-130.06 386.69,-122.79 388.18,-133.28 394.4,-130.06"/>
<text text-anchor="middle" x="419" y="-144.8" font-family="Times,serif" font-size="14.00">समासः</text>
</g>
<!-- Node9_1 -->
<g id="node13" class="node">
<title>Node9_1</title>
<ellipse fill="#40e0d0" stroke="#40e0d0" cx="839" cy="-279" rx="46.59" ry="18"/>
<text text-anchor="middle" x="839" y="-275.3" font-family="Times,serif" font-size="14.00">त्वया(9.1)</text>
</g>
<!-- Node11_1 -->
<g id="node14" class="node">
<title>Node11_1</title>
<ellipse fill="#00bfff" stroke="#00bfff" cx="711" cy="-366" rx="51.99" ry="18"/>
<text text-anchor="middle" x="711" y="-362.3" font-family="Times,serif" font-size="14.00">दृष्टाः(11.1)</text>
</g>
<!-- Node9_1&#45;&gt;Node11_1 -->
<g id="edge12" class="edge">
<title>Node9_1&#45;&gt;Node11_1</title>
<path fill="none" stroke="black" d="M807.81,-300.71C785.1,-315.8 754.83,-335.89 734.23,-349.58"/>
<polygon fill="black" stroke="black" points="810.02,-303.45 816.41,-295 806.14,-297.62 810.02,-303.45"/>
<text text-anchor="middle" x="793" y="-318.8" font-family="Times,serif" font-size="14.00">कर्ता</text>
</g>
<!-- Node10_1 -->
<g id="node15" class="node">
<title>Node10_1</title>
<ellipse fill="#ff99ff" stroke="#ff99ff" cx="538" cy="-279" rx="50.89" ry="18"/>
<text text-anchor="middle" x="538" y="-275.3" font-family="Times,serif" font-size="14.00">यथा(10.1)</text>
</g>
<!-- Node10_1&#45;&gt;Node11_1 -->
<g id="edge14" class="edge">
<title>Node10_1&#45;&gt;Node11_1</title>
<path fill="none" stroke="black" stroke-dasharray="1,5" d="M556.69,-304.44C564.81,-313.62 574.98,-323.4 586,-330 609.78,-344.24 639.57,-352.87 664.1,-358"/>
<polygon fill="black" stroke="black" points="559.23,-302.03 550.11,-296.64 553.88,-306.54 559.23,-302.03"/>
<text text-anchor="middle" x="621" y="-318.8" font-family="Times,serif" font-size="14.00">क्रियाविशेषणम्</text>
</g>
<!-- Node12_1 -->
<g id="node16" class="node">
<title>Node12_1</title>
<ellipse fill="#ff99ff" stroke="#ff99ff" cx="724" cy="-279" rx="50.89" ry="18"/>
<text text-anchor="middle" x="724" y="-275.3" font-family="Times,serif" font-size="14.00">तथा(12.1)</text>
</g>
<!-- Node10_1&#45;&gt;Node12_1 -->
<g id="edge13" class="edge">
<title>Node10_1&#45;&gt;Node12_1</title>
<path fill="none" stroke="red" stroke-dasharray="5,2" d="M598.91,-279C619.49,-279 642.45,-279 663.03,-279"/>
<polygon fill="red" stroke="red" points="598.83,-275.5 588.83,-279 598.83,-282.5 598.83,-275.5"/>
<polygon fill="red" stroke="red" points="663.24,-282.5 673.24,-279 663.24,-275.5 663.24,-282.5"/>
<text text-anchor="middle" x="631" y="-264.8" font-family="Times,serif" font-size="14.00">नित्य_सम्बन्धः</text>
</g>
<!-- Node12_1&#45;&gt;Node8_1 -->
<g id="edge15" class="edge">
<title>Node12_1&#45;&gt;Node8_1</title>
<path fill="none" stroke="black" d="M699.43,-302.74C687.25,-312.74 671.79,-323.62 656,-330 585.48,-358.49 496.32,-364.7 442.85,-365.58"/>
<polygon fill="black" stroke="black" points="701.96,-305.19 707.31,-296.04 697.42,-299.86 701.96,-305.19"/>
<text text-anchor="middle" x="717" y="-318.8" font-family="Times,serif" font-size="14.00">क्रियाविशेषणम्</text>
</g>
</g>
</svg>
