<?xml version="1.0" encoding="UTF-8" standalone="no"?>
<!DOCTYPE svg PUBLIC "-//W3C//DTD SVG 1.1//EN"
 "http://www.w3.org/Graphics/SVG/1.1/DTD/svg11.dtd">
<!-- Generated by graphviz version 2.43.0 (0)
 -->
<!-- Title: G Pages: 1 -->
<svg width="522pt" height="479pt"
 viewBox="0.00 0.00 522.00 479.00" xmlns="http://www.w3.org/2000/svg" xmlns:xlink="http://www.w3.org/1999/xlink">
<g id="graph0" class="graph" transform="scale(1 1) rotate(0) translate(4 475)">
<title>G</title>
<polygon fill="#fffacd" stroke="transparent" points="-4,4 -4,-475 518,-475 518,4 -4,4"/>
<g id="clust1" class="cluster">
<title>cluster_1</title>
<polygon fill="#fffacd" stroke="black" points="144,-166 144,-305 506,-305 506,-166 144,-166"/>
</g>
<g id="clust2" class="cluster">
<title>cluster_2</title>
<polygon fill="#fffacd" stroke="black" points="8,-253 8,-392 136,-392 136,-253 8,-253"/>
</g>
<!-- Node1_3 -->
<g id="node1" class="node">
<title>Node1_3</title>
<ellipse fill="#87ceeb" stroke="#87ceeb" cx="204" cy="-192" rx="51.99" ry="18"/>
<text text-anchor="middle" x="204" y="-188.3" font-family="Times,serif" font-size="14.00">वृद्धानां(1.3)</text>
</g>
<!-- Node5_1 -->
<g id="node2" class="node">
<title>Node5_1</title>
<ellipse fill="#87ceeb" stroke="#87ceeb" cx="204" cy="-279" rx="48.19" ry="18"/>
<text text-anchor="middle" x="204" y="-275.3" font-family="Times,serif" font-size="14.00">वदतां(5.1)</text>
</g>
<!-- Node1_3&#45;&gt;Node5_1 -->
<g id="edge3" class="edge">
<title>Node1_3&#45;&gt;Node5_1</title>
<path fill="none" stroke="black" d="M204,-220.27C204,-233.58 204,-249.19 204,-260.82"/>
<polygon fill="black" stroke="black" points="207.5,-220.2 204,-210.2 200.5,-220.2 207.5,-220.2"/>
<text text-anchor="middle" x="226.5" y="-231.8" font-family="Times,serif" font-size="14.00">विशेषणम्</text>
</g>
<!-- Node7_1 -->
<g id="node6" class="node">
<title>Node7_1</title>
<ellipse fill="#93db70" stroke="#93db70" cx="77" cy="-366" rx="48.99" ry="18"/>
<text text-anchor="middle" x="77" y="-362.3" font-family="Times,serif" font-size="14.00">कथाः(7.1)</text>
</g>
<!-- Node5_1&#45;&gt;Node7_1 -->
<g id="edge10" class="edge">
<title>Node5_1&#45;&gt;Node7_1</title>
<path fill="none" stroke="black" d="M172.99,-300.75C150.31,-315.94 120.05,-336.19 99.62,-349.86"/>
<polygon fill="black" stroke="black" points="175.22,-303.47 181.59,-295 171.33,-297.65 175.22,-303.47"/>
<text text-anchor="middle" x="176.5" y="-318.8" font-family="Times,serif" font-size="14.00">षष्ठीसम्बन्धः</text>
</g>
<!-- Node2_3 -->
<g id="node3" class="node">
<title>Node2_3</title>
<ellipse fill="#87ceeb" stroke="#87ceeb" cx="330" cy="-192" rx="55.79" ry="18"/>
<text text-anchor="middle" x="330" y="-188.3" font-family="Times,serif" font-size="14.00">वेदिनाम्(2.3)</text>
</g>
<!-- Node2_3&#45;&gt;Node5_1 -->
<g id="edge6" class="edge">
<title>Node2_3&#45;&gt;Node5_1</title>
<path fill="none" stroke="black" d="M298.39,-214.32C276.02,-229.41 246.56,-249.29 226.54,-262.79"/>
<polygon fill="black" stroke="black" points="300.56,-217.08 306.89,-208.59 296.64,-211.28 300.56,-217.08"/>
<text text-anchor="middle" x="297.5" y="-231.8" font-family="Times,serif" font-size="14.00">विशेषणम्</text>
</g>
<!-- Node3_2 -->
<g id="node4" class="node">
<title>Node3_2</title>
<ellipse fill="#87ceeb" stroke="#87ceeb" cx="451" cy="-192" rx="47.39" ry="18"/>
<text text-anchor="middle" x="451" y="-188.3" font-family="Times,serif" font-size="14.00">ज्ञानां(3.2)</text>
</g>
<!-- Node3_2&#45;&gt;Node5_1 -->
<g id="edge8" class="edge">
<title>Node3_2&#45;&gt;Node5_1</title>
<path fill="none" stroke="black" d="M411.05,-209.81C386.21,-219.99 353.49,-232.92 324,-243 296.89,-252.27 265.84,-261.28 242.11,-267.84"/>
<polygon fill="black" stroke="black" points="412.59,-212.96 420.5,-205.92 409.92,-206.49 412.59,-212.96"/>
<text text-anchor="middle" x="384.5" y="-231.8" font-family="Times,serif" font-size="14.00">विशेषणम्</text>
</g>
<!-- Node6_1 -->
<g id="node5" class="node">
<title>Node6_1</title>
<ellipse fill="#93db70" stroke="#93db70" cx="72" cy="-279" rx="55.79" ry="18"/>
<text text-anchor="middle" x="72" y="-275.3" font-family="Times,serif" font-size="14.00">विविधाः(6.1)</text>
</g>
<!-- Node6_1&#45;&gt;Node7_1 -->
<g id="edge11" class="edge">
<title>Node6_1&#45;&gt;Node7_1</title>
<path fill="none" stroke="black" d="M73.6,-307.27C74.39,-320.58 75.31,-336.19 75.99,-347.82"/>
<polygon fill="black" stroke="black" points="77.09,-306.98 73.01,-297.2 70.11,-307.39 77.09,-306.98"/>
<text text-anchor="middle" x="97.5" y="-318.8" font-family="Times,serif" font-size="14.00">विशेषणम्</text>
</g>
<!-- Node8_1 -->
<g id="node13" class="node">
<title>Node8_1</title>
<ellipse fill="#ff1975" stroke="#ff1975" cx="77" cy="-453" rx="44.39" ry="18"/>
<text text-anchor="middle" x="77" y="-449.3" font-family="Times,serif" font-size="14.00">शृणु(8.1)</text>
</g>
<!-- Node7_1&#45;&gt;Node8_1 -->
<g id="edge12" class="edge">
<title>Node7_1&#45;&gt;Node8_1</title>
<path fill="none" stroke="black" d="M77,-394.27C77,-407.58 77,-423.19 77,-434.82"/>
<polygon fill="black" stroke="black" points="80.5,-394.2 77,-384.2 73.5,-394.2 80.5,-394.2"/>
<text text-anchor="middle" x="86" y="-405.8" font-family="Times,serif" font-size="14.00">कर्म</text>
</g>
<!-- Node1_1 -->
<g id="node7" class="node">
<title>Node1_1</title>
<ellipse fill="#ffff00" stroke="#ffff00" cx="196" cy="-18" rx="48.19" ry="18"/>
<text text-anchor="middle" x="196" y="-14.3" font-family="Times,serif" font-size="14.00">ऋद्ध&#45;(1.1)</text>
</g>
<!-- Node1_2 -->
<g id="node8" class="node">
<title>Node1_2</title>
<ellipse fill="#ffff00" stroke="#ffff00" cx="196" cy="-105" rx="60.39" ry="18"/>
<text text-anchor="middle" x="196" y="-101.3" font-family="Times,serif" font-size="14.00">अभिजन&#45;(1.2)</text>
</g>
<!-- Node1_1&#45;&gt;Node1_2 -->
<g id="edge1" class="edge">
<title>Node1_1&#45;&gt;Node1_2</title>
<path fill="none" stroke="black" d="M196,-46.27C196,-59.58 196,-75.19 196,-86.82"/>
<polygon fill="black" stroke="black" points="199.5,-46.2 196,-36.2 192.5,-46.2 199.5,-46.2"/>
<text text-anchor="middle" x="213" y="-57.8" font-family="Times,serif" font-size="14.00">समासः</text>
</g>
<!-- Node1_2&#45;&gt;Node1_3 -->
<g id="edge2" class="edge">
<title>Node1_2&#45;&gt;Node1_3</title>
<path fill="none" stroke="black" d="M198.57,-133.27C199.82,-146.58 201.29,-162.19 202.38,-173.82"/>
<polygon fill="black" stroke="black" points="202.04,-132.83 197.62,-123.2 195.07,-133.49 202.04,-132.83"/>
<text text-anchor="middle" x="218" y="-144.8" font-family="Times,serif" font-size="14.00">समासः</text>
</g>
<!-- Node2_1 -->
<g id="node9" class="node">
<title>Node2_1</title>
<ellipse fill="#ffff00" stroke="#ffff00" cx="331" cy="-18" rx="44.39" ry="18"/>
<text text-anchor="middle" x="331" y="-14.3" font-family="Times,serif" font-size="14.00">वेद&#45;(2.1)</text>
</g>
<!-- Node2_2 -->
<g id="node10" class="node">
<title>Node2_2</title>
<ellipse fill="#ffff00" stroke="#ffff00" cx="331" cy="-105" rx="56.59" ry="18"/>
<text text-anchor="middle" x="331" y="-101.3" font-family="Times,serif" font-size="14.00">वेदाङ्ग&#45;(2.2)</text>
</g>
<!-- Node2_1&#45;&gt;Node2_2 -->
<g id="edge4" class="edge">
<title>Node2_1&#45;&gt;Node2_2</title>
<path fill="none" stroke="black" d="M331,-46.27C331,-59.58 331,-75.19 331,-86.82"/>
<polygon fill="black" stroke="black" points="334.5,-46.2 331,-36.2 327.5,-46.2 334.5,-46.2"/>
<text text-anchor="middle" x="348" y="-57.8" font-family="Times,serif" font-size="14.00">समासः</text>
</g>
<!-- Node2_2&#45;&gt;Node2_3 -->
<g id="edge5" class="edge">
<title>Node2_2&#45;&gt;Node2_3</title>
<path fill="none" stroke="black" d="M330.68,-133.27C330.52,-146.58 330.34,-162.19 330.2,-173.82"/>
<polygon fill="black" stroke="black" points="334.18,-133.24 330.8,-123.2 327.18,-133.16 334.18,-133.24"/>
<text text-anchor="middle" x="347" y="-144.8" font-family="Times,serif" font-size="14.00">समासः</text>
</g>
<!-- Node3_1 -->
<g id="node11" class="node">
<title>Node3_1</title>
<ellipse fill="#ffff00" stroke="#ffff00" cx="451" cy="-105" rx="45.49" ry="18"/>
<text text-anchor="middle" x="451" y="-101.3" font-family="Times,serif" font-size="14.00">धर्म&#45;(3.1)</text>
</g>
<!-- Node3_1&#45;&gt;Node3_2 -->
<g id="edge7" class="edge">
<title>Node3_1&#45;&gt;Node3_2</title>
<path fill="none" stroke="black" d="M451,-133.27C451,-146.58 451,-162.19 451,-173.82"/>
<polygon fill="black" stroke="black" points="454.5,-133.2 451,-123.2 447.5,-133.2 454.5,-133.2"/>
<text text-anchor="middle" x="468" y="-144.8" font-family="Times,serif" font-size="14.00">समासः</text>
</g>
<!-- Node4_1 -->
<g id="node12" class="node">
<title>Node4_1</title>
<ellipse fill="#87ceeb" stroke="#87ceeb" cx="75" cy="-192" rx="59.29" ry="18"/>
<text text-anchor="middle" x="75" y="-188.3" font-family="Times,serif" font-size="14.00">पुराणानां(4.1)</text>
</g>
<!-- Node4_1&#45;&gt;Node5_1 -->
<g id="edge9" class="edge">
<title>Node4_1&#45;&gt;Node5_1</title>
<path fill="none" stroke="black" d="M104.57,-214.96C116.9,-223.9 131.48,-234.18 145,-243 155.87,-250.09 168.18,-257.49 178.74,-263.65"/>
<polygon fill="black" stroke="black" points="106.57,-212.09 96.43,-209.02 102.44,-217.74 106.57,-212.09"/>
<text text-anchor="middle" x="172.5" y="-231.8" font-family="Times,serif" font-size="14.00">षष्ठीसम्बन्धः</text>
</g>
</g>
</svg>
