<?xml version="1.0" encoding="UTF-8" standalone="no"?>
<!DOCTYPE svg PUBLIC "-//W3C//DTD SVG 1.1//EN"
 "http://www.w3.org/Graphics/SVG/1.1/DTD/svg11.dtd">
<!-- Generated by graphviz version 2.43.0 (0)
 -->
<!-- Title: G Pages: 1 -->
<svg width="791pt" height="392pt"
 viewBox="0.00 0.00 791.24 392.00" xmlns="http://www.w3.org/2000/svg" xmlns:xlink="http://www.w3.org/1999/xlink">
<g id="graph0" class="graph" transform="scale(1 1) rotate(0) translate(4 388)">
<title>G</title>
<polygon fill="#fffacd" stroke="transparent" points="-4,4 -4,-388 787.24,-388 787.24,4 -4,4"/>
<g id="clust1" class="cluster">
<title>cluster_1</title>
<polygon fill="#fffacd" stroke="black" points="246.2,-166 246.2,-305 537.2,-305 537.2,-166 246.2,-166"/>
</g>
<!-- Node9_1 -->
<g id="node1" class="node">
<title>Node9_1</title>
<ellipse fill="#00bfff" stroke="#00bfff" cx="311.2" cy="-192" rx="57.39" ry="18"/>
<text text-anchor="middle" x="311.2" y="-188.3" font-family="Times,serif" font-size="14.00">सन्दिष्टाः(9.1)</text>
</g>
<!-- Node11_1 -->
<g id="node2" class="node">
<title>Node11_1</title>
<ellipse fill="#00bfff" stroke="#00bfff" cx="331.2" cy="-279" rx="76.89" ry="18"/>
<text text-anchor="middle" x="331.2" y="-275.3" font-family="Times,serif" font-size="14.00">अभिनन्दिताः(11.1)</text>
</g>
<!-- Node9_1&#45;&gt;Node11_1 -->
<g id="edge9" class="edge">
<title>Node9_1&#45;&gt;Node11_1</title>
<path fill="none" stroke="black" d="M317.61,-220.27C320.74,-233.58 324.42,-249.19 327.15,-260.82"/>
<polygon fill="black" stroke="black" points="320.94,-219.13 315.24,-210.2 314.13,-220.74 320.94,-219.13"/>
<text text-anchor="middle" x="344.7" y="-231.8" font-family="Times,serif" font-size="14.00">समुच्चितः</text>
</g>
<!-- Node16_1 -->
<g id="node10" class="node">
<title>Node16_1</title>
<ellipse fill="#ff1975" stroke="#ff1975" cx="171.2" cy="-366" rx="55.49" ry="18"/>
<text text-anchor="middle" x="171.2" y="-362.3" font-family="Times,serif" font-size="14.00">प्रययुः(16.1)</text>
</g>
<!-- Node11_1&#45;&gt;Node16_1 -->
<g id="edge11" class="edge">
<title>Node11_1&#45;&gt;Node16_1</title>
<path fill="none" stroke="black" d="M292.47,-300.58C263.55,-315.94 224.73,-336.56 198.88,-350.29"/>
<polygon fill="black" stroke="black" points="294.29,-303.57 301.48,-295.79 291,-297.39 294.29,-303.57"/>
<text text-anchor="middle" x="271.2" y="-318.8" font-family="Times,serif" font-size="14.00">कर्ता</text>
</g>
<!-- Node10_1 -->
<g id="node3" class="node">
<title>Node10_1</title>
<ellipse fill="#00bfff" stroke="#00bfff" cx="458.2" cy="-192" rx="71.49" ry="18"/>
<text text-anchor="middle" x="458.2" y="-188.3" font-family="Times,serif" font-size="14.00">समनुज्ञाताः(10.1)</text>
</g>
<!-- Node10_1&#45;&gt;Node11_1 -->
<g id="edge10" class="edge">
<title>Node10_1&#45;&gt;Node11_1</title>
<path fill="none" stroke="black" d="M425.95,-214.58C404.01,-229.27 375.42,-248.4 355.41,-261.79"/>
<polygon fill="black" stroke="black" points="427.94,-217.46 434.31,-208.99 424.05,-211.64 427.94,-217.46"/>
<text text-anchor="middle" x="424.7" y="-231.8" font-family="Times,serif" font-size="14.00">समुच्चितः</text>
</g>
<!-- Node1_1 -->
<g id="node4" class="node">
<title>Node1_1</title>
<ellipse fill="#ff99ff" stroke="#ff99ff" cx="497.2" cy="-18" rx="53.89" ry="18"/>
<text text-anchor="middle" x="497.2" y="-14.3" font-family="Times,serif" font-size="14.00">न्यायतः(1.1)</text>
</g>
<!-- Node4_1 -->
<g id="node5" class="node">
<title>Node4_1</title>
<ellipse fill="#ff99ff" stroke="#ff99ff" cx="617.2" cy="-105" rx="50.89" ry="18"/>
<text text-anchor="middle" x="617.2" y="-101.3" font-family="Times,serif" font-size="14.00">प्रयुज्य(4.1)</text>
</g>
<!-- Node1_1&#45;&gt;Node4_1 -->
<g id="edge1" class="edge">
<title>Node1_1&#45;&gt;Node4_1</title>
<path fill="none" stroke="black" d="M516.45,-43.62C524.13,-52.37 533.45,-61.83 543.2,-69 555.44,-78.01 570.38,-85.61 583.62,-91.39"/>
<polygon fill="black" stroke="black" points="519.03,-41.25 509.91,-35.86 513.68,-45.76 519.03,-41.25"/>
<text text-anchor="middle" x="578.2" y="-57.8" font-family="Times,serif" font-size="14.00">क्रियाविशेषणम्</text>
</g>
<!-- Node5_1 -->
<g id="node8" class="node">
<title>Node5_1</title>
<ellipse fill="#ff1975" stroke="#ff1975" cx="617.2" cy="-192" rx="49.29" ry="18"/>
<text text-anchor="middle" x="617.2" y="-188.3" font-family="Times,serif" font-size="14.00">प्रययुः(5.1)</text>
</g>
<!-- Node4_1&#45;&gt;Node5_1 -->
<g id="edge4" class="edge">
<title>Node4_1&#45;&gt;Node5_1</title>
<path fill="none" stroke="black" d="M617.2,-133.27C617.2,-146.58 617.2,-162.19 617.2,-173.82"/>
<polygon fill="black" stroke="black" points="620.7,-133.2 617.2,-123.2 613.7,-133.2 620.7,-133.2"/>
<text text-anchor="middle" x="637.7" y="-144.8" font-family="Times,serif" font-size="14.00">पूर्वकालः</text>
</g>
<!-- Node2_1 -->
<g id="node6" class="node">
<title>Node2_1</title>
<ellipse fill="#c6e2eb" stroke="#c6e2eb" cx="617.2" cy="-18" rx="48.19" ry="18"/>
<text text-anchor="middle" x="617.2" y="-14.3" font-family="Times,serif" font-size="14.00">श्वशुरे(2.1)</text>
</g>
<!-- Node2_1&#45;&gt;Node4_1 -->
<g id="edge2" class="edge">
<title>Node2_1&#45;&gt;Node4_1</title>
<path fill="none" stroke="black" d="M617.2,-46.27C617.2,-59.58 617.2,-75.19 617.2,-86.82"/>
<polygon fill="black" stroke="black" points="620.7,-46.2 617.2,-36.2 613.7,-46.2 620.7,-46.2"/>
<text text-anchor="middle" x="644.7" y="-57.8" font-family="Times,serif" font-size="14.00">अधिकरणम्</text>
</g>
<!-- Node3_1 -->
<g id="node7" class="node">
<title>Node3_1</title>
<ellipse fill="#93db70" stroke="#93db70" cx="733.2" cy="-18" rx="50.09" ry="18"/>
<text text-anchor="middle" x="733.2" y="-14.3" font-family="Times,serif" font-size="14.00">वृत्तिम्(3.1)</text>
</g>
<!-- Node3_1&#45;&gt;Node4_1 -->
<g id="edge3" class="edge">
<title>Node3_1&#45;&gt;Node4_1</title>
<path fill="none" stroke="black" d="M708.98,-42.01C699.14,-50.87 687.46,-60.83 676.2,-69 666.07,-76.34 654.33,-83.55 644,-89.5"/>
<polygon fill="black" stroke="black" points="711.42,-44.52 716.43,-35.18 706.69,-39.36 711.42,-44.52"/>
<text text-anchor="middle" x="703.2" y="-57.8" font-family="Times,serif" font-size="14.00">कर्म</text>
</g>
<!-- Node6_1 -->
<g id="node9" class="node">
<title>Node6_1</title>
<ellipse fill="#ff99ff" stroke="#ff99ff" cx="44.2" cy="-279" rx="44.39" ry="18"/>
<text text-anchor="middle" x="44.2" y="-275.3" font-family="Times,serif" font-size="14.00">ततः(6.1)</text>
</g>
<!-- Node6_1&#45;&gt;Node16_1 -->
<g id="edge5" class="edge">
<title>Node6_1&#45;&gt;Node16_1</title>
<path fill="none" stroke="black" d="M65.49,-303.58C74.4,-312.58 85.22,-322.47 96.2,-330 108.64,-338.53 123.49,-345.96 136.68,-351.74"/>
<polygon fill="black" stroke="black" points="67.96,-301.09 58.5,-296.31 62.91,-305.94 67.96,-301.09"/>
<text text-anchor="middle" x="131.7" y="-318.8" font-family="Times,serif" font-size="14.00">कालाधिकरणम्</text>
</g>
<!-- Node7_1 -->
<g id="node11" class="node">
<title>Node7_1</title>
<ellipse fill="#40e0d0" stroke="#40e0d0" cx="244.2" cy="-105" rx="60.39" ry="18"/>
<text text-anchor="middle" x="244.2" y="-101.3" font-family="Times,serif" font-size="14.00">श्वश्रूभ्याम्(7.1)</text>
</g>
<!-- Node7_1&#45;&gt;Node9_1 -->
<g id="edge6" class="edge">
<title>Node7_1&#45;&gt;Node9_1</title>
<path fill="none" stroke="black" d="M263.91,-131.01C274.89,-144.94 288.27,-161.91 297.99,-174.24"/>
<polygon fill="black" stroke="black" points="266.37,-128.48 257.43,-122.79 260.87,-132.81 266.37,-128.48"/>
<text text-anchor="middle" x="293.7" y="-144.8" font-family="Times,serif" font-size="14.00">करण</text>
</g>
<!-- Node8_1 -->
<g id="node12" class="node">
<title>Node8_1</title>
<ellipse fill="#ffff00" stroke="#ffff00" cx="378.2" cy="-18" rx="46.59" ry="18"/>
<text text-anchor="middle" x="378.2" y="-14.3" font-family="Times,serif" font-size="14.00">इति&#45;(8.1)</text>
</g>
<!-- Node8_2 -->
<g id="node13" class="node">
<title>Node8_2</title>
<ellipse fill="#93db70" stroke="#93db70" cx="378.2" cy="-105" rx="55.79" ry="18"/>
<text text-anchor="middle" x="378.2" y="-101.3" font-family="Times,serif" font-size="14.00">कर्तव्यम्(8.2)</text>
</g>
<!-- Node8_1&#45;&gt;Node8_2 -->
<g id="edge7" class="edge">
<title>Node8_1&#45;&gt;Node8_2</title>
<path fill="none" stroke="black" d="M378.2,-46.27C378.2,-59.58 378.2,-75.19 378.2,-86.82"/>
<polygon fill="black" stroke="black" points="381.7,-46.2 378.2,-36.2 374.7,-46.2 381.7,-46.2"/>
<text text-anchor="middle" x="395.2" y="-57.8" font-family="Times,serif" font-size="14.00">समासः</text>
</g>
<!-- Node8_2&#45;&gt;Node9_1 -->
<g id="edge8" class="edge">
<title>Node8_2&#45;&gt;Node9_1</title>
<path fill="none" stroke="black" d="M358.48,-131.01C347.5,-144.94 334.13,-161.91 324.41,-174.24"/>
<polygon fill="black" stroke="black" points="361.52,-132.81 364.96,-122.79 356.02,-128.48 361.52,-132.81"/>
<text text-anchor="middle" x="357.2" y="-144.8" font-family="Times,serif" font-size="14.00">कर्म</text>
</g>
<!-- Node12_1 -->
<g id="node14" class="node">
<title>Node12_1</title>
<ellipse fill="#ff99ff" stroke="#ff99ff" cx="495.2" cy="-105" rx="43.59" ry="18"/>
<text text-anchor="middle" x="495.2" y="-101.3" font-family="Times,serif" font-size="14.00">च(12.1)</text>
</g>
<!-- Node12_1&#45;&gt;Node10_1 -->
<g id="edge12" class="edge">
<title>Node12_1&#45;&gt;Node10_1</title>
<path fill="none" stroke="black" d="M483.82,-132.13C477.9,-145.73 470.83,-161.98 465.62,-173.95"/>
<polygon fill="black" stroke="black" points="487.1,-133.36 487.89,-122.79 480.69,-130.57 487.1,-133.36"/>
<text text-anchor="middle" x="513.2" y="-144.8" font-family="Times,serif" font-size="14.00">समुच्चयद्योतकः</text>
</g>
<!-- Node13_1 -->
<g id="node15" class="node">
<title>Node13_1</title>
<ellipse fill="#ff99ff" stroke="#ff99ff" cx="171.2" cy="-279" rx="64.99" ry="18"/>
<text text-anchor="middle" x="171.2" y="-275.3" font-family="Times,serif" font-size="14.00">परिष्वज्य(13.1)</text>
</g>
<!-- Node13_1&#45;&gt;Node16_1 -->
<g id="edge13" class="edge">
<title>Node13_1&#45;&gt;Node16_1</title>
<path fill="none" stroke="black" d="M171.2,-307.27C171.2,-320.58 171.2,-336.19 171.2,-347.82"/>
<polygon fill="black" stroke="black" points="174.7,-307.2 171.2,-297.2 167.7,-307.2 174.7,-307.2"/>
<text text-anchor="middle" x="191.7" y="-318.8" font-family="Times,serif" font-size="14.00">पूर्वकालः</text>
</g>
<!-- Node14_1 -->
<g id="node16" class="node">
<title>Node14_1</title>
<ellipse fill="#40e0d0" stroke="#40e0d0" cx="156.2" cy="-192" rx="59.59" ry="18"/>
<text text-anchor="middle" x="156.2" y="-188.3" font-family="Times,serif" font-size="14.00">भर्तृभिः(14.1)</text>
</g>
<!-- Node14_1&#45;&gt;Node11_1 -->
<g id="edge14" class="edge">
<title>Node14_1&#45;&gt;Node11_1</title>
<path fill="none" stroke="black" d="M195.6,-212.14C226.96,-227.37 270.27,-248.41 299.44,-262.57"/>
<polygon fill="black" stroke="black" points="196.8,-208.83 186.28,-207.61 193.75,-215.13 196.8,-208.83"/>
<text text-anchor="middle" x="269.2" y="-231.8" font-family="Times,serif" font-size="14.00">सहार्थः</text>
</g>
<!-- Node15_1 -->
<g id="node17" class="node">
<title>Node15_1</title>
<ellipse fill="#ff99ff" stroke="#ff99ff" cx="117.2" cy="-105" rx="48.19" ry="18"/>
<text text-anchor="middle" x="117.2" y="-101.3" font-family="Times,serif" font-size="14.00">सह(15.1)</text>
</g>
<!-- Node15_1&#45;&gt;Node14_1 -->
<g id="edge15" class="edge">
<title>Node15_1&#45;&gt;Node14_1</title>
<path fill="none" stroke="black" d="M129.19,-132.13C135.43,-145.73 142.88,-161.98 148.37,-173.95"/>
<polygon fill="black" stroke="black" points="132.25,-130.42 124.9,-122.79 125.89,-133.34 132.25,-130.42"/>
<text text-anchor="middle" x="169.7" y="-144.8" font-family="Times,serif" font-size="14.00">सहार्थद्योतकः</text>
</g>
</g>
</svg>
