<?xml version="1.0" encoding="UTF-8" standalone="no"?>
<!DOCTYPE svg PUBLIC "-//W3C//DTD SVG 1.1//EN"
 "http://www.w3.org/Graphics/SVG/1.1/DTD/svg11.dtd">
<!-- Generated by graphviz version 2.43.0 (0)
 -->
<!-- Title: G Pages: 1 -->
<svg width="1141pt" height="218pt"
 viewBox="0.00 0.00 1140.54 218.00" xmlns="http://www.w3.org/2000/svg" xmlns:xlink="http://www.w3.org/1999/xlink">
<g id="graph0" class="graph" transform="scale(1 1) rotate(0) translate(4 214)">
<title>G</title>
<polygon fill="#fffacd" stroke="transparent" points="-4,4 -4,-214 1136.54,-214 1136.54,4 -4,4"/>
<!-- Node1_1 -->
<g id="node1" class="node">
<title>Node1_1</title>
<ellipse fill="#6fffc3" stroke="#6fffc3" cx="65.64" cy="-105" rx="65.79" ry="18"/>
<text text-anchor="middle" x="65.64" y="-101.3" font-family="Times,serif" font-size="14.00">अजातशत्रो(1.1)</text>
</g>
<!-- Node15_1 -->
<g id="node2" class="node">
<title>Node15_1</title>
<ellipse fill="#ff1975" stroke="#ff1975" cx="114.64" cy="-192" rx="55.79" ry="18"/>
<text text-anchor="middle" x="114.64" y="-188.3" font-family="Times,serif" font-size="14.00">भूयात्(15.1)</text>
</g>
<!-- Node1_1&#45;&gt;Node15_1 -->
<g id="edge1" class="edge">
<title>Node1_1&#45;&gt;Node15_1</title>
<path fill="none" stroke="black" d="M80.72,-132.15C88.59,-145.81 98,-162.13 104.91,-174.11"/>
<polygon fill="black" stroke="black" points="83.59,-130.12 75.56,-123.2 77.52,-133.61 83.59,-130.12"/>
<text text-anchor="middle" x="114.64" y="-144.8" font-family="Times,serif" font-size="14.00">सम्बोध्यः</text>
</g>
<!-- Node2_1 -->
<g id="node3" class="node">
<title>Node2_1</title>
<ellipse fill="#87ceeb" stroke="#87ceeb" cx="196.64" cy="-18" rx="37.09" ry="18"/>
<text text-anchor="middle" x="196.64" y="-14.3" font-family="Times,serif" font-size="14.00">ते(2.1)</text>
</g>
<!-- Node3_1 -->
<g id="node4" class="node">
<title>Node3_1</title>
<ellipse fill="#00bfff" stroke="#00bfff" cx="196.64" cy="-105" rx="47.39" ry="18"/>
<text text-anchor="middle" x="196.64" y="-101.3" font-family="Times,serif" font-size="14.00">भद्रम्(3.1)</text>
</g>
<!-- Node2_1&#45;&gt;Node3_1 -->
<g id="edge2" class="edge">
<title>Node2_1&#45;&gt;Node3_1</title>
<path fill="none" stroke="black" d="M196.64,-46.27C196.64,-59.58 196.64,-75.19 196.64,-86.82"/>
<polygon fill="black" stroke="black" points="200.14,-46.2 196.64,-36.2 193.14,-46.2 200.14,-46.2"/>
<text text-anchor="middle" x="215.14" y="-57.8" font-family="Times,serif" font-size="14.00">सम्बन्धः</text>
</g>
<!-- Node3_1&#45;&gt;Node15_1 -->
<g id="edge3" class="edge">
<title>Node3_1&#45;&gt;Node15_1</title>
<path fill="none" stroke="black" d="M173.58,-129.91C159.79,-144.2 142.64,-161.98 130.41,-174.66"/>
<polygon fill="black" stroke="black" points="176.41,-132.02 180.83,-122.39 171.37,-127.16 176.41,-132.02"/>
<text text-anchor="middle" x="171.64" y="-144.8" font-family="Times,serif" font-size="14.00">कर्ता</text>
</g>
<!-- Node4_1 -->
<g id="node5" class="node">
<title>Node4_1</title>
<ellipse fill="#40e0d0" stroke="#40e0d0" cx="429.64" cy="-105" rx="55.79" ry="18"/>
<text text-anchor="middle" x="429.64" y="-101.3" font-family="Times,serif" font-size="14.00">भ्रातृभिः(4.1)</text>
</g>
<!-- Node8_1 -->
<g id="node6" class="node">
<title>Node8_1</title>
<ellipse fill="#ff1975" stroke="#ff1975" cx="369.64" cy="-192" rx="44.39" ry="18"/>
<text text-anchor="middle" x="369.64" y="-188.3" font-family="Times,serif" font-size="14.00">शृणु(8.1)</text>
</g>
<!-- Node4_1&#45;&gt;Node8_1 -->
<g id="edge4" class="edge">
<title>Node4_1&#45;&gt;Node8_1</title>
<path fill="none" stroke="black" d="M411.95,-131.06C402.05,-145.09 389.98,-162.19 381.27,-174.53"/>
<polygon fill="black" stroke="black" points="414.88,-132.98 417.79,-122.79 409.16,-128.94 414.88,-132.98"/>
<text text-anchor="middle" x="419.64" y="-144.8" font-family="Times,serif" font-size="14.00">सहार्थः</text>
</g>
<!-- Node5_1 -->
<g id="node7" class="node">
<title>Node5_1</title>
<ellipse fill="#ff99ff" stroke="#ff99ff" cx="429.64" cy="-18" rx="42.49" ry="18"/>
<text text-anchor="middle" x="429.64" y="-14.3" font-family="Times,serif" font-size="14.00">सह(5.1)</text>
</g>
<!-- Node5_1&#45;&gt;Node4_1 -->
<g id="edge5" class="edge">
<title>Node5_1&#45;&gt;Node4_1</title>
<path fill="none" stroke="black" d="M429.64,-46.27C429.64,-59.58 429.64,-75.19 429.64,-86.82"/>
<polygon fill="black" stroke="black" points="433.14,-46.2 429.64,-36.2 426.14,-46.2 433.14,-46.2"/>
<text text-anchor="middle" x="463.14" y="-57.8" font-family="Times,serif" font-size="14.00">सहार्थ_द्योतकः</text>
</g>
<!-- Node6_1 -->
<g id="node8" class="node">
<title>Node6_1</title>
<ellipse fill="#87ceeb" stroke="#87ceeb" cx="308.64" cy="-18" rx="37.09" ry="18"/>
<text text-anchor="middle" x="308.64" y="-14.3" font-family="Times,serif" font-size="14.00">मे(6.1)</text>
</g>
<!-- Node7_1 -->
<g id="node9" class="node">
<title>Node7_1</title>
<ellipse fill="#93db70" stroke="#93db70" cx="308.64" cy="-105" rx="46.59" ry="18"/>
<text text-anchor="middle" x="308.64" y="-101.3" font-family="Times,serif" font-size="14.00">वचनं(7.1)</text>
</g>
<!-- Node6_1&#45;&gt;Node7_1 -->
<g id="edge6" class="edge">
<title>Node6_1&#45;&gt;Node7_1</title>
<path fill="none" stroke="black" d="M308.64,-46.27C308.64,-59.58 308.64,-75.19 308.64,-86.82"/>
<polygon fill="black" stroke="black" points="312.14,-46.2 308.64,-36.2 305.14,-46.2 312.14,-46.2"/>
<text text-anchor="middle" x="336.14" y="-57.8" font-family="Times,serif" font-size="14.00">षष्ठीसम्बन्धः</text>
</g>
<!-- Node7_1&#45;&gt;Node8_1 -->
<g id="edge7" class="edge">
<title>Node7_1&#45;&gt;Node8_1</title>
<path fill="none" stroke="black" d="M326.63,-131.06C336.7,-145.09 348.97,-162.19 357.83,-174.53"/>
<polygon fill="black" stroke="black" points="329.37,-128.88 320.7,-122.79 323.68,-132.96 329.37,-128.88"/>
<text text-anchor="middle" x="352.64" y="-144.8" font-family="Times,serif" font-size="14.00">कर्म</text>
</g>
<!-- Node9_1 -->
<g id="node10" class="node">
<title>Node9_1</title>
<ellipse fill="#6fffc3" stroke="#6fffc3" cx="560.64" cy="-105" rx="57.39" ry="18"/>
<text text-anchor="middle" x="560.64" y="-101.3" font-family="Times,serif" font-size="14.00">महीपाल(9.1)</text>
</g>
<!-- Node14_1 -->
<g id="node11" class="node">
<title>Node14_1</title>
<ellipse fill="#ff1975" stroke="#ff1975" cx="834.64" cy="-192" rx="59.59" ry="18"/>
<text text-anchor="middle" x="834.64" y="-188.3" font-family="Times,serif" font-size="14.00">प्रबाधते(14.1)</text>
</g>
<!-- Node9_1&#45;&gt;Node14_1 -->
<g id="edge8" class="edge">
<title>Node9_1&#45;&gt;Node14_1</title>
<path fill="none" stroke="black" d="M607.76,-122.02C637.7,-132.07 677.34,-145.13 712.64,-156 738.97,-164.1 768.67,-172.64 792.18,-179.25"/>
<polygon fill="black" stroke="black" points="608.59,-118.6 598,-118.73 606.36,-125.24 608.59,-118.6"/>
<text text-anchor="middle" x="733.64" y="-144.8" font-family="Times,serif" font-size="14.00">सम्बोध्यः</text>
</g>
<!-- Node10_1 -->
<g id="node12" class="node">
<title>Node10_1</title>
<ellipse fill="#ffff00" stroke="#ffff00" cx="698.64" cy="-18" rx="53.09" ry="18"/>
<text text-anchor="middle" x="698.64" y="-14.3" font-family="Times,serif" font-size="14.00">त्वत्&#45;(10.1)</text>
</g>
<!-- Node10_2 -->
<g id="node13" class="node">
<title>Node10_2</title>
<ellipse fill="#b4ffb4" stroke="#b4ffb4" cx="698.64" cy="-105" rx="63.09" ry="18"/>
<text text-anchor="middle" x="698.64" y="-101.3" font-family="Times,serif" font-size="14.00">प्रसादात्(10.2)</text>
</g>
<!-- Node10_1&#45;&gt;Node10_2 -->
<g id="edge9" class="edge">
<title>Node10_1&#45;&gt;Node10_2</title>
<path fill="none" stroke="black" d="M698.64,-46.27C698.64,-59.58 698.64,-75.19 698.64,-86.82"/>
<polygon fill="black" stroke="black" points="702.14,-46.2 698.64,-36.2 695.14,-46.2 702.14,-46.2"/>
<text text-anchor="middle" x="715.64" y="-57.8" font-family="Times,serif" font-size="14.00">समासः</text>
</g>
<!-- Node10_2&#45;&gt;Node14_1 -->
<g id="edge10" class="edge">
<title>Node10_2&#45;&gt;Node14_1</title>
<path fill="none" stroke="black" d="M732.38,-127.09C756.4,-142.1 788.15,-161.94 809.86,-175.51"/>
<polygon fill="black" stroke="black" points="733.92,-123.92 723.59,-121.59 730.21,-129.86 733.92,-123.92"/>
<text text-anchor="middle" x="785.14" y="-144.8" font-family="Times,serif" font-size="14.00">हेतुः</text>
</g>
<!-- Node11_1 -->
<g id="node14" class="node">
<title>Node11_1</title>
<ellipse fill="#00bfff" stroke="#00bfff" cx="834.64" cy="-105" rx="55.49" ry="18"/>
<text text-anchor="middle" x="834.64" y="-101.3" font-family="Times,serif" font-size="14.00">शोकः(11.1)</text>
</g>
<!-- Node11_1&#45;&gt;Node14_1 -->
<g id="edge11" class="edge">
<title>Node11_1&#45;&gt;Node14_1</title>
<path fill="none" stroke="black" d="M834.64,-133.27C834.64,-146.58 834.64,-162.19 834.64,-173.82"/>
<polygon fill="black" stroke="black" points="838.14,-133.2 834.64,-123.2 831.14,-133.2 838.14,-133.2"/>
<text text-anchor="middle" x="845.64" y="-144.8" font-family="Times,serif" font-size="14.00">कर्ता</text>
</g>
<!-- Node12_1 -->
<g id="node15" class="node">
<title>Node12_1</title>
<ellipse fill="#93db70" stroke="#93db70" cx="968.64" cy="-105" rx="60.39" ry="18"/>
<text text-anchor="middle" x="968.64" y="-101.3" font-family="Times,serif" font-size="14.00">अस्मान्(12.1)</text>
</g>
<!-- Node12_1&#45;&gt;Node14_1 -->
<g id="edge12" class="edge">
<title>Node12_1&#45;&gt;Node14_1</title>
<path fill="none" stroke="black" d="M935.4,-127.09C911.74,-142.1 880.46,-161.94 859.07,-175.51"/>
<polygon fill="black" stroke="black" points="937.5,-129.9 944.07,-121.59 933.75,-123.99 937.5,-129.9"/>
<text text-anchor="middle" x="919.64" y="-144.8" font-family="Times,serif" font-size="14.00">कर्म</text>
</g>
<!-- Node13_1 -->
<g id="node16" class="node">
<title>Node13_1</title>
<ellipse fill="#ff99ff" stroke="#ff99ff" cx="1089.64" cy="-105" rx="42.79" ry="18"/>
<text text-anchor="middle" x="1089.64" y="-101.3" font-family="Times,serif" font-size="14.00">न(13.1)</text>
</g>
<!-- Node13_1&#45;&gt;Node14_1 -->
<g id="edge13" class="edge">
<title>Node13_1&#45;&gt;Node14_1</title>
<path fill="none" stroke="black" d="M1047.53,-120.04C999.07,-136.19 920.17,-162.49 873.25,-178.13"/>
<polygon fill="black" stroke="black" points="1048.71,-123.33 1057.09,-116.85 1046.5,-116.69 1048.71,-123.33"/>
<text text-anchor="middle" x="996.14" y="-144.8" font-family="Times,serif" font-size="14.00">प्रतिषेधः</text>
</g>
</g>
</svg>
