<?xml version="1.0" encoding="UTF-8" standalone="no"?>
<!DOCTYPE svg PUBLIC "-//W3C//DTD SVG 1.1//EN"
 "http://www.w3.org/Graphics/SVG/1.1/DTD/svg11.dtd">
<!-- Generated by graphviz version 2.43.0 (0)
 -->
<!-- Title: G Pages: 1 -->
<svg width="613pt" height="408pt"
 viewBox="0.00 0.00 612.85 408.00" xmlns="http://www.w3.org/2000/svg" xmlns:xlink="http://www.w3.org/1999/xlink">
<g id="graph0" class="graph" transform="scale(1 1) rotate(0) translate(4 404)">
<title>G</title>
<polygon fill="#fffacd" stroke="transparent" points="-4,4 -4,-404 608.85,-404 608.85,4 -4,4"/>
<g id="clust1" class="cluster">
<title>cluster_1</title>
<polygon fill="#fffacd" stroke="black" points="148,-95 148,-234 284,-234 284,-95 148,-95"/>
</g>
<g id="clust2" class="cluster">
<title>cluster_2</title>
<polygon fill="#fffacd" stroke="black" points="8,-182 8,-321 140,-321 140,-182 8,-182"/>
</g>
<g id="clust3" class="cluster">
<title>cluster_3</title>
<polygon fill="#fffacd" stroke="black" points="359,-8 359,-147 505,-147 505,-8 359,-8"/>
</g>
<g id="clust4" class="cluster">
<title>cluster_4</title>
<polygon fill="#fffacd" stroke="black" points="386,-182 386,-234 506,-234 506,-182 386,-182"/>
</g>
<!-- Node1_1 -->
<g id="node1" class="node">
<title>Node1_1</title>
<ellipse fill="#00bfff" stroke="#00bfff" cx="216" cy="-121" rx="60.39" ry="18"/>
<text text-anchor="middle" x="216" y="-117.3" font-family="Times,serif" font-size="14.00">जनाधिपः(1.1)</text>
</g>
<!-- Node2_1 -->
<g id="node2" class="node">
<title>Node2_1</title>
<ellipse fill="#00bfff" stroke="#00bfff" cx="215" cy="-208" rx="57.69" ry="18"/>
<text text-anchor="middle" x="215" y="-204.3" font-family="Times,serif" font-size="14.00">धृतराष्ट्रः(2.1)</text>
</g>
<!-- Node1_1&#45;&gt;Node2_1 -->
<g id="edge1" class="edge">
<title>Node1_1&#45;&gt;Node2_1</title>
<path fill="none" stroke="black" d="M215.68,-149.27C215.52,-162.58 215.34,-178.19 215.2,-189.82"/>
<polygon fill="black" stroke="black" points="219.18,-149.24 215.8,-139.2 212.18,-149.16 219.18,-149.24"/>
<text text-anchor="middle" x="237.5" y="-160.8" font-family="Times,serif" font-size="14.00">विशेषणम्</text>
</g>
<!-- Node4_1 -->
<g id="node3" class="node">
<title>Node4_1</title>
<ellipse fill="#00bfff" stroke="#00bfff" cx="74" cy="-295" rx="57.69" ry="18"/>
<text text-anchor="middle" x="74" y="-291.3" font-family="Times,serif" font-size="14.00">युधिष्ठिरः(4.1)</text>
</g>
<!-- Node2_1&#45;&gt;Node4_1 -->
<g id="edge2" class="edge">
<title>Node2_1&#45;&gt;Node4_1</title>
<path fill="none" stroke="black" d="M180.63,-229.72C155.53,-244.85 122.04,-265.04 99.34,-278.72"/>
<polygon fill="black" stroke="black" points="182.71,-232.55 189.47,-224.39 179.09,-226.56 182.71,-232.55"/>
<text text-anchor="middle" x="175.5" y="-247.8" font-family="Times,serif" font-size="14.00">समुच्चितः</text>
</g>
<!-- Node12_1 -->
<g id="node8" class="node">
<title>Node12_1</title>
<ellipse fill="#ff1975" stroke="#ff1975" cx="321" cy="-382" rx="61.99" ry="18"/>
<text text-anchor="middle" x="321" y="-378.3" font-family="Times,serif" font-size="14.00">अकरोत्(12.1)</text>
</g>
<!-- Node4_1&#45;&gt;Node12_1 -->
<g id="edge4" class="edge">
<title>Node4_1&#45;&gt;Node12_1</title>
<path fill="none" stroke="black" d="M120.86,-312.13C167.75,-328.26 239,-352.78 282.64,-367.8"/>
<polygon fill="black" stroke="black" points="121.84,-308.76 111.25,-308.82 119.56,-315.38 121.84,-308.76"/>
<text text-anchor="middle" x="223" y="-334.8" font-family="Times,serif" font-size="14.00">कर्ता</text>
</g>
<!-- Node3_1 -->
<g id="node4" class="node">
<title>Node3_1</title>
<ellipse fill="#00bfff" stroke="#00bfff" cx="74" cy="-208" rx="46.29" ry="18"/>
<text text-anchor="middle" x="74" y="-204.3" font-family="Times,serif" font-size="14.00">राजा(3.1)</text>
</g>
<!-- Node3_1&#45;&gt;Node4_1 -->
<g id="edge3" class="edge">
<title>Node3_1&#45;&gt;Node4_1</title>
<path fill="none" stroke="black" d="M74,-236.27C74,-249.58 74,-265.19 74,-276.82"/>
<polygon fill="black" stroke="black" points="77.5,-236.2 74,-226.2 70.5,-236.2 77.5,-236.2"/>
<text text-anchor="middle" x="96.5" y="-247.8" font-family="Times,serif" font-size="14.00">विशेषणम्</text>
</g>
<!-- Node8_1 -->
<g id="node5" class="node">
<title>Node8_1</title>
<ellipse fill="#93db70" stroke="#93db70" cx="432" cy="-34" rx="64.99" ry="18"/>
<text text-anchor="middle" x="432" y="-30.3" font-family="Times,serif" font-size="14.00">सानुबन्धान्(8.1)</text>
</g>
<!-- Node9_1 -->
<g id="node6" class="node">
<title>Node9_1</title>
<ellipse fill="#93db70" stroke="#93db70" cx="446" cy="-121" rx="50.09" ry="18"/>
<text text-anchor="middle" x="446" y="-117.3" font-family="Times,serif" font-size="14.00">पुत्रान्(9.1)</text>
</g>
<!-- Node8_1&#45;&gt;Node9_1 -->
<g id="edge8" class="edge">
<title>Node8_1&#45;&gt;Node9_1</title>
<path fill="none" stroke="black" d="M436.49,-62.27C438.68,-75.58 441.26,-91.19 443.17,-102.82"/>
<polygon fill="black" stroke="black" points="439.91,-61.5 434.83,-52.2 433,-62.64 439.91,-61.5"/>
<text text-anchor="middle" x="461.5" y="-73.8" font-family="Times,serif" font-size="14.00">विशेषणम्</text>
</g>
<!-- Node6_1 -->
<g id="node7" class="node">
<title>Node6_1</title>
<ellipse fill="#93db70" stroke="#93db70" cx="446" cy="-208" rx="51.99" ry="18"/>
<text text-anchor="middle" x="446" y="-204.3" font-family="Times,serif" font-size="14.00">पौत्रान्(6.1)</text>
</g>
<!-- Node9_1&#45;&gt;Node6_1 -->
<g id="edge9" class="edge">
<title>Node9_1&#45;&gt;Node6_1</title>
<path fill="none" stroke="black" d="M446,-149.27C446,-162.58 446,-178.19 446,-189.82"/>
<polygon fill="black" stroke="black" points="449.5,-149.2 446,-139.2 442.5,-149.2 449.5,-149.2"/>
<text text-anchor="middle" x="468.5" y="-160.8" font-family="Times,serif" font-size="14.00">समुच्चितः</text>
</g>
<!-- Node10_1 -->
<g id="node10" class="node">
<title>Node10_1</title>
<ellipse fill="#ff99ff" stroke="#ff99ff" cx="321" cy="-295" rx="53.89" ry="18"/>
<text text-anchor="middle" x="321" y="-291.3" font-family="Times,serif" font-size="14.00">दृष्ट्वा(10.1)</text>
</g>
<!-- Node6_1&#45;&gt;Node10_1 -->
<g id="edge6" class="edge">
<title>Node6_1&#45;&gt;Node10_1</title>
<path fill="none" stroke="black" d="M433.74,-234.88C428.63,-243.49 422,-252.52 414,-259 399.66,-270.62 381.05,-278.64 364.26,-284.04"/>
<polygon fill="black" stroke="black" points="436.95,-236.3 438.68,-225.84 430.81,-232.94 436.95,-236.3"/>
<text text-anchor="middle" x="436" y="-247.8" font-family="Times,serif" font-size="14.00">कर्म</text>
</g>
<!-- Node5_1 -->
<g id="node9" class="node">
<title>Node5_1</title>
<ellipse fill="#ff99ff" stroke="#ff99ff" cx="334" cy="-208" rx="42.49" ry="18"/>
<text text-anchor="middle" x="334" y="-204.3" font-family="Times,serif" font-size="14.00">चैव(5.1)</text>
</g>
<!-- Node5_1&#45;&gt;Node4_1 -->
<g id="edge5" class="edge">
<title>Node5_1&#45;&gt;Node4_1</title>
<path fill="none" stroke="black" d="M300.96,-228.04C296.67,-230.19 292.28,-232.24 288,-234 232.16,-256.98 164.61,-274.29 120.55,-284.27"/>
<polygon fill="black" stroke="black" points="302.9,-230.98 310.13,-223.24 299.64,-224.78 302.9,-230.98"/>
<text text-anchor="middle" x="297" y="-247.8" font-family="Times,serif" font-size="14.00">समुच्चय_द्योतकः</text>
</g>
<!-- Node10_1&#45;&gt;Node12_1 -->
<g id="edge10" class="edge">
<title>Node10_1&#45;&gt;Node12_1</title>
<path fill="none" stroke="black" d="M321,-323.27C321,-336.58 321,-352.19 321,-363.82"/>
<polygon fill="black" stroke="black" points="324.5,-323.2 321,-313.2 317.5,-323.2 324.5,-323.2"/>
<text text-anchor="middle" x="341.5" y="-334.8" font-family="Times,serif" font-size="14.00">पूर्वकालः</text>
</g>
<!-- Node7_1 -->
<g id="node11" class="node">
<title>Node7_1</title>
<ellipse fill="#ff99ff" stroke="#ff99ff" cx="560" cy="-34" rx="44.69" ry="18"/>
<text text-anchor="middle" x="560" y="-30.3" font-family="Times,serif" font-size="14.00">तथा(7.1)</text>
</g>
<!-- Node7_1&#45;&gt;Node9_1 -->
<g id="edge7" class="edge">
<title>Node7_1&#45;&gt;Node9_1</title>
<path fill="none" stroke="black" d="M531.46,-56.28C511.43,-71.21 485.09,-90.85 466.98,-104.36"/>
<polygon fill="black" stroke="black" points="533.69,-58.98 539.62,-50.2 529.51,-53.37 533.69,-58.98"/>
<text text-anchor="middle" x="547" y="-73.8" font-family="Times,serif" font-size="14.00">समुच्चय_द्योतकः</text>
</g>
<!-- Node11_1 -->
<g id="node12" class="node">
<title>Node11_1</title>
<ellipse fill="#93db70" stroke="#93db70" cx="445" cy="-295" rx="51.99" ry="18"/>
<text text-anchor="middle" x="445" y="-291.3" font-family="Times,serif" font-size="14.00">किम्(11.1)</text>
</g>
<!-- Node11_1&#45;&gt;Node12_1 -->
<g id="edge11" class="edge">
<title>Node11_1&#45;&gt;Node12_1</title>
<path fill="none" stroke="black" d="M414.01,-317.24C392.33,-332.1 363.84,-351.63 344.13,-365.15"/>
<polygon fill="black" stroke="black" points="416.28,-319.93 422.54,-311.39 412.32,-314.16 416.28,-319.93"/>
<text text-anchor="middle" x="399" y="-334.8" font-family="Times,serif" font-size="14.00">कर्म</text>
</g>
</g>
</svg>
