<?xml version="1.0" encoding="UTF-8" standalone="no"?>
<!DOCTYPE svg PUBLIC "-//W3C//DTD SVG 1.1//EN"
 "http://www.w3.org/Graphics/SVG/1.1/DTD/svg11.dtd">
<!-- Generated by graphviz version 2.43.0 (0)
 -->
<!-- Title: G Pages: 1 -->
<svg width="582pt" height="321pt"
 viewBox="0.00 0.00 581.74 321.00" xmlns="http://www.w3.org/2000/svg" xmlns:xlink="http://www.w3.org/1999/xlink">
<g id="graph0" class="graph" transform="scale(1 1) rotate(0) translate(4 317)">
<title>G</title>
<polygon fill="#fffacd" stroke="transparent" points="-4,4 -4,-317 577.74,-317 577.74,4 -4,4"/>
<g id="clust1" class="cluster">
<title>cluster_1</title>
<polygon fill="#fffacd" stroke="black" points="10.64,-8 10.64,-147 118.64,-147 118.64,-8 10.64,-8"/>
</g>
<!-- Node6_1 -->
<g id="node1" class="node">
<title>Node6_1</title>
<ellipse fill="#93db70" stroke="#93db70" cx="64.64" cy="-34" rx="46.29" ry="18"/>
<text text-anchor="middle" x="64.64" y="-30.3" font-family="Times,serif" font-size="14.00">उग्रम्(6.1)</text>
</g>
<!-- Node7_1 -->
<g id="node2" class="node">
<title>Node7_1</title>
<ellipse fill="#93db70" stroke="#93db70" cx="65.64" cy="-121" rx="44.39" ry="18"/>
<text text-anchor="middle" x="65.64" y="-117.3" font-family="Times,serif" font-size="14.00">तपः(7.1)</text>
</g>
<!-- Node6_1&#45;&gt;Node7_1 -->
<g id="edge5" class="edge">
<title>Node6_1&#45;&gt;Node7_1</title>
<path fill="none" stroke="black" d="M64.96,-62.27C65.12,-75.58 65.31,-91.19 65.44,-102.82"/>
<polygon fill="black" stroke="black" points="68.46,-62.16 64.85,-52.2 61.46,-62.24 68.46,-62.16"/>
<text text-anchor="middle" x="88.14" y="-73.8" font-family="Times,serif" font-size="14.00">विशेषणम्</text>
</g>
<!-- Node8_1 -->
<g id="node9" class="node">
<title>Node8_1</title>
<ellipse fill="#ff1975" stroke="#ff1975" cx="65.64" cy="-208" rx="65.79" ry="18"/>
<text text-anchor="middle" x="65.64" y="-204.3" font-family="Times,serif" font-size="14.00">समास्थास्ये(8.1)</text>
</g>
<!-- Node7_1&#45;&gt;Node8_1 -->
<g id="edge6" class="edge">
<title>Node7_1&#45;&gt;Node8_1</title>
<path fill="none" stroke="black" d="M65.64,-149.27C65.64,-162.58 65.64,-178.19 65.64,-189.82"/>
<polygon fill="black" stroke="black" points="69.14,-149.2 65.64,-139.2 62.14,-149.2 69.14,-149.2"/>
<text text-anchor="middle" x="74.64" y="-160.8" font-family="Times,serif" font-size="14.00">कर्म</text>
</g>
<!-- Node1_1 -->
<g id="node3" class="node">
<title>Node1_1</title>
<ellipse fill="#6fffc3" stroke="#6fffc3" cx="175.64" cy="-121" rx="48.19" ry="18"/>
<text text-anchor="middle" x="175.64" y="-117.3" font-family="Times,serif" font-size="14.00">अनघ(1.1)</text>
</g>
<!-- Node12_1 -->
<g id="node4" class="node">
<title>Node12_1</title>
<ellipse fill="#ff1975" stroke="#ff1975" cx="259.64" cy="-208" rx="57.39" ry="18"/>
<text text-anchor="middle" x="259.64" y="-204.3" font-family="Times,serif" font-size="14.00">अर्हसि(12.1)</text>
</g>
<!-- Node1_1&#45;&gt;Node12_1 -->
<g id="edge1" class="edge">
<title>Node1_1&#45;&gt;Node12_1</title>
<path fill="none" stroke="black" d="M187.08,-148.1C191.48,-156.34 197.06,-165.09 203.64,-172 211.24,-179.97 221.01,-186.88 230.26,-192.41"/>
<polygon fill="black" stroke="black" points="190.2,-146.53 182.61,-139.14 183.94,-149.65 190.2,-146.53"/>
<text text-anchor="middle" x="224.64" y="-160.8" font-family="Times,serif" font-size="14.00">सम्बोध्यः</text>
</g>
<!-- Node2_1 -->
<g id="node5" class="node">
<title>Node2_1</title>
<ellipse fill="#87ceeb" stroke="#87ceeb" cx="512.64" cy="-34" rx="42.49" ry="18"/>
<text text-anchor="middle" x="512.64" y="-30.3" font-family="Times,serif" font-size="14.00">मम(2.1)</text>
</g>
<!-- Node3_1 -->
<g id="node6" class="node">
<title>Node3_1</title>
<ellipse fill="#87ceeb" stroke="#87ceeb" cx="512.64" cy="-121" rx="61.19" ry="18"/>
<text text-anchor="middle" x="512.64" y="-117.3" font-family="Times,serif" font-size="14.00">जीवितस्य(3.1)</text>
</g>
<!-- Node2_1&#45;&gt;Node3_1 -->
<g id="edge2" class="edge">
<title>Node2_1&#45;&gt;Node3_1</title>
<path fill="none" stroke="black" d="M512.64,-62.27C512.64,-75.58 512.64,-91.19 512.64,-102.82"/>
<polygon fill="black" stroke="black" points="516.14,-62.2 512.64,-52.2 509.14,-62.2 516.14,-62.2"/>
<text text-anchor="middle" x="540.14" y="-73.8" font-family="Times,serif" font-size="14.00">षष्ठीसम्बन्धः</text>
</g>
<!-- Node4_1 -->
<g id="node7" class="node">
<title>Node4_1</title>
<ellipse fill="#00bfff" stroke="#00bfff" cx="512.64" cy="-208" rx="59.59" ry="18"/>
<text text-anchor="middle" x="512.64" y="-204.3" font-family="Times,serif" font-size="14.00">प्रयोजनम्(4.1)</text>
</g>
<!-- Node3_1&#45;&gt;Node4_1 -->
<g id="edge3" class="edge">
<title>Node3_1&#45;&gt;Node4_1</title>
<path fill="none" stroke="black" d="M512.64,-149.27C512.64,-162.58 512.64,-178.19 512.64,-189.82"/>
<polygon fill="black" stroke="black" points="516.14,-149.2 512.64,-139.2 509.14,-149.2 516.14,-149.2"/>
<text text-anchor="middle" x="540.14" y="-160.8" font-family="Times,serif" font-size="14.00">षष्ठीसम्बन्धः</text>
</g>
<!-- Node5_1 -->
<g id="node8" class="node">
<title>Node5_1</title>
<ellipse fill="#00bfff" stroke="#00bfff" cx="512.64" cy="-295" rx="54.69" ry="18"/>
<text text-anchor="middle" x="512.64" y="-291.3" font-family="Times,serif" font-size="14.00">निर्वृत्तम्(5.1)</text>
</g>
<!-- Node4_1&#45;&gt;Node5_1 -->
<g id="edge4" class="edge">
<title>Node4_1&#45;&gt;Node5_1</title>
<path fill="none" stroke="black" d="M512.64,-236.27C512.64,-249.58 512.64,-265.19 512.64,-276.82"/>
<polygon fill="black" stroke="black" points="516.14,-236.2 512.64,-226.2 509.14,-236.2 516.14,-236.2"/>
<text text-anchor="middle" x="521.64" y="-247.8" font-family="Times,serif" font-size="14.00">कर्म</text>
</g>
<!-- Node9_1 -->
<g id="node10" class="node">
<title>Node9_1</title>
<ellipse fill="#ff99ff" stroke="#ff99ff" cx="166.64" cy="-34" rx="37.89" ry="18"/>
<text text-anchor="middle" x="166.64" y="-30.3" font-family="Times,serif" font-size="14.00">च(9.1)</text>
</g>
<!-- Node9_1&#45;&gt;Node7_1 -->
<g id="edge7" class="edge">
<title>Node9_1&#45;&gt;Node7_1</title>
<path fill="none" stroke="black" d="M143.92,-58.24C135.05,-66.93 124.63,-76.71 114.64,-85 106.12,-92.08 96.25,-99.3 87.62,-105.32"/>
<polygon fill="black" stroke="black" points="146.64,-60.47 151.27,-50.94 141.71,-55.51 146.64,-60.47"/>
<text text-anchor="middle" x="150.14" y="-73.8" font-family="Times,serif" font-size="14.00">सम्बन्धः</text>
</g>
<!-- Node10_1 -->
<g id="node11" class="node">
<title>Node10_1</title>
<ellipse fill="#00bfff" stroke="#00bfff" cx="296.64" cy="-34" rx="50.09" ry="18"/>
<text text-anchor="middle" x="296.64" y="-30.3" font-family="Times,serif" font-size="14.00">त्वम्(10.1)</text>
</g>
<!-- Node10_1&#45;&gt;Node12_1 -->
<g id="edge8" class="edge">
<title>Node10_1&#45;&gt;Node12_1</title>
<path fill="none" stroke="black" d="M283.7,-61.11C278.14,-73.51 272.12,-88.71 268.64,-103 261.37,-132.94 259.79,-168.98 259.54,-189.81"/>
<polygon fill="black" stroke="black" points="286.97,-62.39 288.02,-51.84 280.63,-59.43 286.97,-62.39"/>
<text text-anchor="middle" x="279.64" y="-117.3" font-family="Times,serif" font-size="14.00">कर्ता</text>
</g>
<!-- Node11_1 -->
<g id="node12" class="node">
<title>Node11_1</title>
<ellipse fill="#ff99ff" stroke="#ff99ff" cx="366.64" cy="-121" rx="66.89" ry="18"/>
<text text-anchor="middle" x="366.64" y="-117.3" font-family="Times,serif" font-size="14.00">अनुज्ञातुम्(11.1)</text>
</g>
<!-- Node10_1&#45;&gt;Node11_1 -->
<g id="edge9" class="edge">
<title>Node10_1&#45;&gt;Node11_1</title>
<path fill="none" stroke="black" stroke-dasharray="1,5" d="M316.62,-59.26C328.25,-73.37 342.6,-90.81 352.95,-103.37"/>
<polygon fill="black" stroke="black" points="319.2,-56.88 310.14,-51.39 313.8,-61.33 319.2,-56.88"/>
<text text-anchor="middle" x="347.64" y="-73.8" font-family="Times,serif" font-size="14.00">कर्ता</text>
</g>
<!-- Node11_1&#45;&gt;Node12_1 -->
<g id="edge10" class="edge">
<title>Node11_1&#45;&gt;Node12_1</title>
<path fill="none" stroke="black" d="M338.24,-144.57C319.88,-159.15 296.44,-177.77 279.95,-190.87"/>
<polygon fill="black" stroke="black" points="340.61,-147.15 346.27,-138.19 336.26,-141.67 340.61,-147.15"/>
<text text-anchor="middle" x="338.14" y="-160.8" font-family="Times,serif" font-size="14.00">तुमुन्कर्म</text>
</g>
</g>
</svg>
