<?xml version="1.0" encoding="UTF-8" standalone="no"?>
<!DOCTYPE svg PUBLIC "-//W3C//DTD SVG 1.1//EN"
 "http://www.w3.org/Graphics/SVG/1.1/DTD/svg11.dtd">
<!-- Generated by graphviz version 2.43.0 (0)
 -->
<!-- Title: G Pages: 1 -->
<svg width="353pt" height="305pt"
 viewBox="0.00 0.00 353.14 305.00" xmlns="http://www.w3.org/2000/svg" xmlns:xlink="http://www.w3.org/1999/xlink">
<g id="graph0" class="graph" transform="scale(1 1) rotate(0) translate(4 301)">
<title>G</title>
<polygon fill="#fffacd" stroke="transparent" points="-4,4 -4,-301 349.14,-301 349.14,4 -4,4"/>
<!-- Node1_1 -->
<g id="node1" class="node">
<title>Node1_1</title>
<ellipse fill="#00bfff" stroke="#00bfff" cx="42.25" cy="-192" rx="42.49" ry="18"/>
<text text-anchor="middle" x="42.25" y="-188.3" font-family="Times,serif" font-size="14.00">सर्वे(1.1)</text>
</g>
<!-- Node6_1 -->
<g id="node2" class="node">
<title>Node6_1</title>
<ellipse fill="#ff1975" stroke="#ff1975" cx="159.25" cy="-279" rx="46.29" ry="18"/>
<text text-anchor="middle" x="159.25" y="-275.3" font-family="Times,serif" font-size="14.00">चक्रुः(6.1)</text>
</g>
<!-- Node1_1&#45;&gt;Node6_1 -->
<g id="edge1" class="edge">
<title>Node1_1&#45;&gt;Node6_1</title>
<path fill="none" stroke="black" d="M70.81,-213.75C91.67,-228.91 119.49,-249.12 138.31,-262.79"/>
<polygon fill="black" stroke="black" points="72.77,-210.85 62.63,-207.81 68.66,-216.52 72.77,-210.85"/>
<text text-anchor="middle" x="119.25" y="-231.8" font-family="Times,serif" font-size="14.00">कर्ता</text>
</g>
<!-- Node2_1 -->
<g id="node3" class="node">
<title>Node2_1</title>
<ellipse fill="#93db70" stroke="#93db70" cx="159.25" cy="-105" rx="50.09" ry="18"/>
<text text-anchor="middle" x="159.25" y="-101.3" font-family="Times,serif" font-size="14.00">वत्साः(2.1)</text>
</g>
<!-- Node5_1 -->
<g id="node4" class="node">
<title>Node5_1</title>
<ellipse fill="#93db70" stroke="#93db70" cx="159.25" cy="-192" rx="56.59" ry="18"/>
<text text-anchor="middle" x="159.25" y="-188.3" font-family="Times,serif" font-size="14.00">प्रदक्षिणं(5.1)</text>
</g>
<!-- Node2_1&#45;&gt;Node5_1 -->
<g id="edge2" class="edge">
<title>Node2_1&#45;&gt;Node5_1</title>
<path fill="none" stroke="black" d="M159.25,-133.27C159.25,-146.58 159.25,-162.19 159.25,-173.82"/>
<polygon fill="black" stroke="black" points="162.75,-133.2 159.25,-123.2 155.75,-133.2 162.75,-133.2"/>
<text text-anchor="middle" x="179.75" y="-144.8" font-family="Times,serif" font-size="14.00">उपमानम्</text>
</g>
<!-- Node5_1&#45;&gt;Node6_1 -->
<g id="edge5" class="edge">
<title>Node5_1&#45;&gt;Node6_1</title>
<path fill="none" stroke="black" d="M159.25,-220.27C159.25,-233.58 159.25,-249.19 159.25,-260.82"/>
<polygon fill="black" stroke="black" points="162.75,-220.2 159.25,-210.2 155.75,-220.2 162.75,-220.2"/>
<text text-anchor="middle" x="168.25" y="-231.8" font-family="Times,serif" font-size="14.00">कर्म</text>
</g>
<!-- Node3_1 -->
<g id="node5" class="node">
<title>Node3_1</title>
<ellipse fill="#ff99ff" stroke="#ff99ff" cx="159.25" cy="-18" rx="40.89" ry="18"/>
<text text-anchor="middle" x="159.25" y="-14.3" font-family="Times,serif" font-size="14.00">इव(3.1)</text>
</g>
<!-- Node3_1&#45;&gt;Node2_1 -->
<g id="edge3" class="edge">
<title>Node3_1&#45;&gt;Node2_1</title>
<path fill="none" stroke="black" d="M159.25,-46.27C159.25,-59.58 159.25,-75.19 159.25,-86.82"/>
<polygon fill="black" stroke="black" points="162.75,-46.2 159.25,-36.2 155.75,-46.2 162.75,-46.2"/>
<text text-anchor="middle" x="195.75" y="-57.8" font-family="Times,serif" font-size="14.00">उपमान_द्योतकः</text>
</g>
<!-- Node4_1 -->
<g id="node6" class="node">
<title>Node4_1</title>
<ellipse fill="#c6e2eb" stroke="#c6e2eb" cx="289.25" cy="-192" rx="55.79" ry="18"/>
<text text-anchor="middle" x="289.25" y="-188.3" font-family="Times,serif" font-size="14.00">निवारणे(4.1)</text>
</g>
<!-- Node4_1&#45;&gt;Node6_1 -->
<g id="edge4" class="edge">
<title>Node4_1&#45;&gt;Node6_1</title>
<path fill="none" stroke="black" d="M257.2,-213.95C233.93,-229.17 203,-249.39 182.18,-263.01"/>
<polygon fill="black" stroke="black" points="259.25,-216.79 265.7,-208.39 255.42,-210.94 259.25,-216.79"/>
<text text-anchor="middle" x="258.75" y="-231.8" font-family="Times,serif" font-size="14.00">अधिकरणम्</text>
</g>
</g>
</svg>
