<?xml version="1.0" encoding="UTF-8" standalone="no"?>
<!DOCTYPE svg PUBLIC "-//W3C//DTD SVG 1.1//EN"
 "http://www.w3.org/Graphics/SVG/1.1/DTD/svg11.dtd">
<!-- Generated by graphviz version 2.43.0 (0)
 -->
<!-- Title: G Pages: 1 -->
<svg width="1232pt" height="234pt"
 viewBox="0.00 0.00 1231.95 234.00" xmlns="http://www.w3.org/2000/svg" xmlns:xlink="http://www.w3.org/1999/xlink">
<g id="graph0" class="graph" transform="scale(1 1) rotate(0) translate(4 230)">
<title>G</title>
<polygon fill="#fffacd" stroke="transparent" points="-4,4 -4,-230 1227.95,-230 1227.95,4 -4,4"/>
<g id="clust1" class="cluster">
<title>cluster_1</title>
<polygon fill="#fffacd" stroke="black" points="8,-8 8,-147 128,-147 128,-8 8,-8"/>
</g>
<!-- Node3_1 -->
<g id="node1" class="node">
<title>Node3_1</title>
<ellipse fill="#00bfff" stroke="#00bfff" cx="68" cy="-34" rx="51.99" ry="18"/>
<text text-anchor="middle" x="68" y="-30.3" font-family="Times,serif" font-size="14.00">विपुला(3.1)</text>
</g>
<!-- Node4_1 -->
<g id="node2" class="node">
<title>Node4_1</title>
<ellipse fill="#00bfff" stroke="#00bfff" cx="69" cy="-121" rx="49.29" ry="18"/>
<text text-anchor="middle" x="69" y="-117.3" font-family="Times,serif" font-size="14.00">प्रीतिः(4.1)</text>
</g>
<!-- Node3_1&#45;&gt;Node4_1 -->
<g id="edge3" class="edge">
<title>Node3_1&#45;&gt;Node4_1</title>
<path fill="none" stroke="black" d="M68.32,-62.27C68.48,-75.58 68.66,-91.19 68.8,-102.82"/>
<polygon fill="black" stroke="black" points="71.82,-62.16 68.2,-52.2 64.82,-62.24 71.82,-62.16"/>
<text text-anchor="middle" x="91.5" y="-73.8" font-family="Times,serif" font-size="14.00">विशेषणम्</text>
</g>
<!-- Node5_1 -->
<g id="node4" class="node">
<title>Node5_1</title>
<ellipse fill="#ff1975" stroke="#ff1975" cx="173" cy="-208" rx="56.59" ry="18"/>
<text text-anchor="middle" x="173" y="-204.3" font-family="Times,serif" font-size="14.00">(अस्ति)(5.1)</text>
</g>
<!-- Node4_1&#45;&gt;Node5_1 -->
<g id="edge4" class="edge">
<title>Node4_1&#45;&gt;Node5_1</title>
<path fill="none" stroke="black" d="M96.41,-144.41C114.38,-159.09 137.43,-177.93 153.53,-191.08"/>
<polygon fill="black" stroke="black" points="98.52,-141.61 88.56,-137.99 94.09,-147.03 98.52,-141.61"/>
<text text-anchor="middle" x="139" y="-160.8" font-family="Times,serif" font-size="14.00">कर्ता</text>
</g>
<!-- Node1_1 -->
<g id="node3" class="node">
<title>Node1_1</title>
<ellipse fill="#87ceeb" stroke="#87ceeb" cx="173" cy="-121" rx="37.09" ry="18"/>
<text text-anchor="middle" x="173" y="-117.3" font-family="Times,serif" font-size="14.00">मे(1.1)</text>
</g>
<!-- Node1_1&#45;&gt;Node5_1 -->
<g id="edge1" class="edge">
<title>Node1_1&#45;&gt;Node5_1</title>
<path fill="none" stroke="black" d="M173,-149.27C173,-162.58 173,-178.19 173,-189.82"/>
<polygon fill="black" stroke="black" points="176.5,-149.2 173,-139.2 169.5,-149.2 176.5,-149.2"/>
<text text-anchor="middle" x="191.5" y="-160.8" font-family="Times,serif" font-size="14.00">सम्बन्धः</text>
</g>
<!-- Node2_1 -->
<g id="node5" class="node">
<title>Node2_1</title>
<ellipse fill="#c6e2eb" stroke="#c6e2eb" cx="275" cy="-121" rx="46.59" ry="18"/>
<text text-anchor="middle" x="275" y="-117.3" font-family="Times,serif" font-size="14.00">त्वयि(2.1)</text>
</g>
<!-- Node2_1&#45;&gt;Node5_1 -->
<g id="edge2" class="edge">
<title>Node2_1&#45;&gt;Node5_1</title>
<path fill="none" stroke="black" d="M248.6,-144C230.98,-158.68 208.21,-177.66 192.28,-190.93"/>
<polygon fill="black" stroke="black" points="250.85,-146.68 256.29,-137.59 246.37,-141.3 250.85,-146.68"/>
<text text-anchor="middle" x="258.5" y="-160.8" font-family="Times,serif" font-size="14.00">अधिकरणम्</text>
</g>
<!-- Node6_1 -->
<g id="node6" class="node">
<title>Node6_1</title>
<ellipse fill="#ffff00" stroke="#ffff00" cx="386" cy="-34" rx="46.59" ry="18"/>
<text text-anchor="middle" x="386" y="-30.3" font-family="Times,serif" font-size="14.00">महा&#45;(6.1)</text>
</g>
<!-- Node6_2 -->
<g id="node7" class="node">
<title>Node6_2</title>
<ellipse fill="#00bfff" stroke="#00bfff" cx="386" cy="-121" rx="46.29" ry="18"/>
<text text-anchor="middle" x="386" y="-117.3" font-family="Times,serif" font-size="14.00">बाहो(6.2)</text>
</g>
<!-- Node6_1&#45;&gt;Node6_2 -->
<g id="edge5" class="edge">
<title>Node6_1&#45;&gt;Node6_2</title>
<path fill="none" stroke="black" d="M386,-62.27C386,-75.58 386,-91.19 386,-102.82"/>
<polygon fill="black" stroke="black" points="389.5,-62.2 386,-52.2 382.5,-62.2 389.5,-62.2"/>
<text text-anchor="middle" x="403" y="-73.8" font-family="Times,serif" font-size="14.00">समासः</text>
</g>
<!-- Node12_1 -->
<g id="node8" class="node">
<title>Node12_1</title>
<ellipse fill="#ff1975" stroke="#ff1975" cx="493" cy="-208" rx="62.29" ry="18"/>
<text text-anchor="middle" x="493" y="-204.3" font-family="Times,serif" font-size="14.00">(अस्ति)(12.1)</text>
</g>
<!-- Node6_2&#45;&gt;Node12_1 -->
<g id="edge6" class="edge">
<title>Node6_2&#45;&gt;Node12_1</title>
<path fill="none" stroke="black" d="M413.69,-144C432.18,-158.68 456.06,-177.66 472.77,-190.93"/>
<polygon fill="black" stroke="black" points="415.63,-141.07 405.63,-137.59 411.28,-146.55 415.63,-141.07"/>
<text text-anchor="middle" x="464" y="-160.8" font-family="Times,serif" font-size="14.00">सम्बेध्यः</text>
</g>
<!-- Node7_1 -->
<g id="node9" class="node">
<title>Node7_1</title>
<ellipse fill="#ff99ff" stroke="#ff99ff" cx="726" cy="-121" rx="48.19" ry="18"/>
<text text-anchor="middle" x="726" y="-117.3" font-family="Times,serif" font-size="14.00">त्वत्तः(7.1)</text>
</g>
<!-- Node10_1 -->
<g id="node10" class="node">
<title>Node10_1</title>
<ellipse fill="#00bfff" stroke="#00bfff" cx="829" cy="-208" rx="57.69" ry="18"/>
<text text-anchor="middle" x="829" y="-204.3" font-family="Times,serif" font-size="14.00">प्राप्तम्(10.1)</text>
</g>
<!-- Node7_1&#45;&gt;Node10_1 -->
<g id="edge7" class="edge">
<title>Node7_1&#45;&gt;Node10_1</title>
<path fill="none" stroke="black" d="M749.04,-145.73C757.81,-154.34 768.09,-163.92 778,-172 786.41,-178.85 796.12,-185.74 804.8,-191.58"/>
<polygon fill="black" stroke="black" points="751.31,-143.06 741.76,-138.48 746.37,-148.02 751.31,-143.06"/>
<text text-anchor="middle" x="801.5" y="-160.8" font-family="Times,serif" font-size="14.00">अपादानम्</text>
</g>
<!-- Node8_1 -->
<g id="node11" class="node">
<title>Node8_1</title>
<ellipse fill="#b0e2ff" stroke="#b0e2ff" cx="829" cy="-121" rx="37.09" ry="18"/>
<text text-anchor="middle" x="829" y="-117.3" font-family="Times,serif" font-size="14.00">मे(8.1)</text>
</g>
<!-- Node8_1&#45;&gt;Node10_1 -->
<g id="edge8" class="edge">
<title>Node8_1&#45;&gt;Node10_1</title>
<path fill="none" stroke="black" d="M829,-149.27C829,-162.58 829,-178.19 829,-189.82"/>
<polygon fill="black" stroke="black" points="832.5,-149.2 829,-139.2 825.5,-149.2 832.5,-149.2"/>
<text text-anchor="middle" x="850.5" y="-160.8" font-family="Times,serif" font-size="14.00">सप्रदानम्</text>
</g>
<!-- Node9_1 -->
<g id="node12" class="node">
<title>Node9_1</title>
<ellipse fill="#ffff00" stroke="#ffff00" cx="934" cy="-34" rx="45.49" ry="18"/>
<text text-anchor="middle" x="934" y="-30.3" font-family="Times,serif" font-size="14.00">पुत्र&#45;(9.1)</text>
</g>
<!-- Node9_2 -->
<g id="node13" class="node">
<title>Node9_2</title>
<ellipse fill="#00bfff" stroke="#00bfff" cx="934" cy="-121" rx="50.09" ry="18"/>
<text text-anchor="middle" x="934" y="-117.3" font-family="Times,serif" font-size="14.00">फलम्(9.2)</text>
</g>
<!-- Node9_1&#45;&gt;Node9_2 -->
<g id="edge9" class="edge">
<title>Node9_1&#45;&gt;Node9_2</title>
<path fill="none" stroke="black" d="M934,-62.27C934,-75.58 934,-91.19 934,-102.82"/>
<polygon fill="black" stroke="black" points="937.5,-62.2 934,-52.2 930.5,-62.2 937.5,-62.2"/>
<text text-anchor="middle" x="951" y="-73.8" font-family="Times,serif" font-size="14.00">समासः</text>
</g>
<!-- Node9_2&#45;&gt;Node10_1 -->
<g id="edge10" class="edge">
<title>Node9_2&#45;&gt;Node10_1</title>
<path fill="none" stroke="black" d="M908.62,-144.57C898.59,-153.3 886.89,-163.27 876,-172 867.9,-178.49 858.8,-185.37 850.77,-191.29"/>
<polygon fill="black" stroke="black" points="911.04,-147.1 916.25,-137.88 906.43,-141.84 911.04,-147.1"/>
<text text-anchor="middle" x="902" y="-160.8" font-family="Times,serif" font-size="14.00">कर्म</text>
</g>
<!-- Node11_1 -->
<g id="node14" class="node">
<title>Node11_1</title>
<ellipse fill="#ff99ff" stroke="#ff99ff" cx="493" cy="-121" rx="42.79" ry="18"/>
<text text-anchor="middle" x="493" y="-117.3" font-family="Times,serif" font-size="14.00">न(11.1)</text>
</g>
<!-- Node11_1&#45;&gt;Node12_1 -->
<g id="edge11" class="edge">
<title>Node11_1&#45;&gt;Node12_1</title>
<path fill="none" stroke="black" d="M493,-149.27C493,-162.58 493,-178.19 493,-189.82"/>
<polygon fill="black" stroke="black" points="496.5,-149.2 493,-139.2 489.5,-149.2 496.5,-149.2"/>
<text text-anchor="middle" x="512.5" y="-160.8" font-family="Times,serif" font-size="14.00">प्रतिषेधः</text>
</g>
<!-- Node13_1 -->
<g id="node15" class="node">
<title>Node13_1</title>
<ellipse fill="#00bfff" stroke="#00bfff" cx="607" cy="-121" rx="52.79" ry="18"/>
<text text-anchor="middle" x="607" y="-117.3" font-family="Times,serif" font-size="14.00">मन्युः(13.1)</text>
</g>
<!-- Node13_1&#45;&gt;Node12_1 -->
<g id="edge12" class="edge">
<title>Node13_1&#45;&gt;Node12_1</title>
<path fill="none" stroke="black" d="M578.03,-143.6C558.26,-158.34 532.51,-177.54 514.55,-190.93"/>
<polygon fill="black" stroke="black" points="580.17,-146.37 586.09,-137.59 575.98,-140.76 580.17,-146.37"/>
<text text-anchor="middle" x="567" y="-160.8" font-family="Times,serif" font-size="14.00">कर्ता</text>
</g>
<!-- Node14_1 -->
<g id="node16" class="node">
<title>Node14_1</title>
<ellipse fill="#87ceeb" stroke="#87ceeb" cx="607" cy="-34" rx="54.69" ry="18"/>
<text text-anchor="middle" x="607" y="-30.3" font-family="Times,serif" font-size="14.00">(मम)(14.1)</text>
</g>
<!-- Node14_1&#45;&gt;Node13_1 -->
<g id="edge13" class="edge">
<title>Node14_1&#45;&gt;Node13_1</title>
<path fill="none" stroke="black" d="M607,-62.27C607,-75.58 607,-91.19 607,-102.82"/>
<polygon fill="black" stroke="black" points="610.5,-62.2 607,-52.2 603.5,-62.2 610.5,-62.2"/>
<text text-anchor="middle" x="625.5" y="-73.8" font-family="Times,serif" font-size="14.00">सम्बन्धः</text>
</g>
<!-- Node15_1 -->
<g id="node17" class="node">
<title>Node15_1</title>
<ellipse fill="#6fffc3" stroke="#6fffc3" cx="1050" cy="-121" rx="48.19" ry="18"/>
<text text-anchor="middle" x="1050" y="-117.3" font-family="Times,serif" font-size="14.00">पुत्र(15.1)</text>
</g>
<!-- Node18_1 -->
<g id="node18" class="node">
<title>Node18_1</title>
<ellipse fill="#ff1975" stroke="#ff1975" cx="1096" cy="-208" rx="63.09" ry="18"/>
<text text-anchor="middle" x="1096" y="-204.3" font-family="Times,serif" font-size="14.00">गम्यताम्(18.1)</text>
</g>
<!-- Node15_1&#45;&gt;Node18_1 -->
<g id="edge14" class="edge">
<title>Node15_1&#45;&gt;Node18_1</title>
<path fill="none" stroke="black" d="M1063.93,-147.74C1071.33,-161.42 1080.23,-177.86 1086.77,-189.95"/>
<polygon fill="black" stroke="black" points="1066.93,-145.92 1059.09,-138.79 1060.77,-149.25 1066.93,-145.92"/>
<text text-anchor="middle" x="1096" y="-160.8" font-family="Times,serif" font-size="14.00">सम्बोध्यः</text>
</g>
<!-- Node16_1 -->
<g id="node19" class="node">
<title>Node16_1</title>
<ellipse fill="#ff99ff" stroke="#ff99ff" cx="1170" cy="-34" rx="45.49" ry="18"/>
<text text-anchor="middle" x="1170" y="-30.3" font-family="Times,serif" font-size="14.00">मा(16.1)</text>
</g>
<!-- Node17_1 -->
<g id="node20" class="node">
<title>Node17_1</title>
<ellipse fill="#ff99ff" stroke="#ff99ff" cx="1170" cy="-121" rx="53.89" ry="18"/>
<text text-anchor="middle" x="1170" y="-117.3" font-family="Times,serif" font-size="14.00">चिरम्(17.1)</text>
</g>
<!-- Node16_1&#45;&gt;Node17_1 -->
<g id="edge15" class="edge">
<title>Node16_1&#45;&gt;Node17_1</title>
<path fill="none" stroke="black" d="M1170,-62.27C1170,-75.58 1170,-91.19 1170,-102.82"/>
<polygon fill="black" stroke="black" points="1173.5,-62.2 1170,-52.2 1166.5,-62.2 1173.5,-62.2"/>
<text text-anchor="middle" x="1189.5" y="-73.8" font-family="Times,serif" font-size="14.00">प्रतिषेधः</text>
</g>
<!-- Node17_1&#45;&gt;Node18_1 -->
<g id="edge16" class="edge">
<title>Node17_1&#45;&gt;Node18_1</title>
<path fill="none" stroke="black" d="M1148.88,-146.26C1136.59,-160.37 1121.41,-177.81 1110.48,-190.37"/>
<polygon fill="black" stroke="black" points="1151.81,-148.23 1155.73,-138.39 1146.53,-143.63 1151.81,-148.23"/>
<text text-anchor="middle" x="1172" y="-160.8" font-family="Times,serif" font-size="14.00">क्रियाविशेषणम्</text>
</g>
</g>
</svg>
