<?xml version="1.0" encoding="UTF-8" standalone="no"?>
<!DOCTYPE svg PUBLIC "-//W3C//DTD SVG 1.1//EN"
 "http://www.w3.org/Graphics/SVG/1.1/DTD/svg11.dtd">
<!-- Generated by graphviz version 2.43.0 (0)
 -->
<!-- Title: G Pages: 1 -->
<svg width="509pt" height="479pt"
 viewBox="0.00 0.00 509.10 479.00" xmlns="http://www.w3.org/2000/svg" xmlns:xlink="http://www.w3.org/1999/xlink">
<g id="graph0" class="graph" transform="scale(1 1) rotate(0) translate(4 475)">
<title>G</title>
<polygon fill="#fffacd" stroke="transparent" points="-4,4 -4,-475 505.1,-475 505.1,4 -4,4"/>
<g id="clust1" class="cluster">
<title>cluster_1</title>
<polygon fill="#fffacd" stroke="black" points="201.1,-79 201.1,-218 459.1,-218 459.1,-79 201.1,-79"/>
</g>
<g id="clust2" class="cluster">
<title>cluster_2</title>
<polygon fill="#fffacd" stroke="black" points="256.1,-253 256.1,-392 384.1,-392 384.1,-253 256.1,-253"/>
</g>
<!-- Node3_1 -->
<g id="node1" class="node">
<title>Node3_1</title>
<ellipse fill="#40e0d0" stroke="#40e0d0" cx="271.1" cy="-105" rx="61.99" ry="18"/>
<text text-anchor="middle" x="271.1" y="-101.3" font-family="Times,serif" font-size="14.00">परिवर्तिना(3.1)</text>
</g>
<!-- Node4_1 -->
<g id="node2" class="node">
<title>Node4_1</title>
<ellipse fill="#40e0d0" stroke="#40e0d0" cx="320.1" cy="-192" rx="46.59" ry="18"/>
<text text-anchor="middle" x="320.1" y="-188.3" font-family="Times,serif" font-size="14.00">त्वया(4.1)</text>
</g>
<!-- Node3_1&#45;&gt;Node4_1 -->
<g id="edge3" class="edge">
<title>Node3_1&#45;&gt;Node4_1</title>
<path fill="none" stroke="black" d="M285.97,-131.8C293.91,-145.58 303.46,-162.14 310.44,-174.24"/>
<polygon fill="black" stroke="black" points="288.8,-129.71 280.78,-122.79 282.74,-133.2 288.8,-129.71"/>
<text text-anchor="middle" x="320.6" y="-144.8" font-family="Times,serif" font-size="14.00">विशेषणम्</text>
</g>
<!-- Node7_1 -->
<g id="node4" class="node">
<title>Node7_1</title>
<ellipse fill="#00bfff" stroke="#00bfff" cx="320.1" cy="-279" rx="55.79" ry="18"/>
<text text-anchor="middle" x="320.1" y="-275.3" font-family="Times,serif" font-size="14.00">अनुगतः(7.1)</text>
</g>
<!-- Node4_1&#45;&gt;Node7_1 -->
<g id="edge4" class="edge">
<title>Node4_1&#45;&gt;Node7_1</title>
<path fill="none" stroke="black" d="M320.1,-220.27C320.1,-233.58 320.1,-249.19 320.1,-260.82"/>
<polygon fill="black" stroke="black" points="323.6,-220.2 320.1,-210.2 316.6,-220.2 323.6,-220.2"/>
<text text-anchor="middle" x="331.1" y="-231.8" font-family="Times,serif" font-size="14.00">कर्ता</text>
</g>
<!-- Node5_1 -->
<g id="node3" class="node">
<title>Node5_1</title>
<ellipse fill="#40e0d0" stroke="#40e0d0" cx="401.1" cy="-105" rx="50.09" ry="18"/>
<text text-anchor="middle" x="401.1" y="-101.3" font-family="Times,serif" font-size="14.00">नाथेन(5.1)</text>
</g>
<!-- Node5_1&#45;&gt;Node4_1 -->
<g id="edge5" class="edge">
<title>Node5_1&#45;&gt;Node4_1</title>
<path fill="none" stroke="black" d="M378.26,-129.96C364.55,-144.35 347.48,-162.26 335.39,-174.95"/>
<polygon fill="black" stroke="black" points="381.11,-132.04 385.48,-122.39 376.05,-127.21 381.11,-132.04"/>
<text text-anchor="middle" x="387.6" y="-144.8" font-family="Times,serif" font-size="14.00">समुच्चितः</text>
</g>
<!-- Node8_1 -->
<g id="node5" class="node">
<title>Node8_1</title>
<ellipse fill="#00bfff" stroke="#00bfff" cx="316.1" cy="-366" rx="48.19" ry="18"/>
<text text-anchor="middle" x="316.1" y="-362.3" font-family="Times,serif" font-size="14.00">अहम्(8.1)</text>
</g>
<!-- Node7_1&#45;&gt;Node8_1 -->
<g id="edge7" class="edge">
<title>Node7_1&#45;&gt;Node8_1</title>
<path fill="none" stroke="black" d="M318.81,-307.27C318.19,-320.58 317.45,-336.19 316.9,-347.82"/>
<polygon fill="black" stroke="black" points="322.31,-307.35 319.29,-297.2 315.32,-307.03 322.31,-307.35"/>
<text text-anchor="middle" x="340.6" y="-318.8" font-family="Times,serif" font-size="14.00">विशेषणम्</text>
</g>
<!-- Node12_1 -->
<g id="node7" class="node">
<title>Node12_1</title>
<ellipse fill="#ff1975" stroke="#ff1975" cx="175.1" cy="-453" rx="46.29" ry="18"/>
<text text-anchor="middle" x="175.1" y="-449.3" font-family="Times,serif" font-size="14.00">रमे(12.1)</text>
</g>
<!-- Node8_1&#45;&gt;Node12_1 -->
<g id="edge8" class="edge">
<title>Node8_1&#45;&gt;Node12_1</title>
<path fill="none" stroke="black" d="M283.17,-386.85C257.39,-402.39 222.15,-423.63 199.02,-437.58"/>
<polygon fill="black" stroke="black" points="285.1,-389.77 291.86,-381.61 281.49,-383.78 285.1,-389.77"/>
<text text-anchor="middle" x="264.1" y="-405.8" font-family="Times,serif" font-size="14.00">कर्ता</text>
</g>
<!-- Node1_1 -->
<g id="node6" class="node">
<title>Node1_1</title>
<ellipse fill="#6fffc3" stroke="#6fffc3" cx="48.1" cy="-366" rx="48.19" ry="18"/>
<text text-anchor="middle" x="48.1" y="-362.3" font-family="Times,serif" font-size="14.00">विद्वन्(1.1)</text>
</g>
<!-- Node1_1&#45;&gt;Node12_1 -->
<g id="edge1" class="edge">
<title>Node1_1&#45;&gt;Node12_1</title>
<path fill="none" stroke="black" d="M78.85,-387.59C101.73,-402.89 132.4,-423.42 152.91,-437.15"/>
<polygon fill="black" stroke="black" points="80.77,-384.65 70.51,-382 76.87,-390.47 80.77,-384.65"/>
<text text-anchor="middle" x="139.1" y="-405.8" font-family="Times,serif" font-size="14.00">सम्बेध्यः</text>
</g>
<!-- Node2_1 -->
<g id="node8" class="node">
<title>Node2_1</title>
<ellipse fill="#c6e2eb" stroke="#c6e2eb" cx="271.1" cy="-18" rx="49.29" ry="18"/>
<text text-anchor="middle" x="271.1" y="-14.3" font-family="Times,serif" font-size="14.00">प्रियेषु(2.1)</text>
</g>
<!-- Node2_1&#45;&gt;Node3_1 -->
<g id="edge2" class="edge">
<title>Node2_1&#45;&gt;Node3_1</title>
<path fill="none" stroke="black" d="M271.1,-46.27C271.1,-59.58 271.1,-75.19 271.1,-86.82"/>
<polygon fill="black" stroke="black" points="274.6,-46.2 271.1,-36.2 267.6,-46.2 274.6,-46.2"/>
<text text-anchor="middle" x="298.6" y="-57.8" font-family="Times,serif" font-size="14.00">अधिकरणम्</text>
</g>
<!-- Node6_1 -->
<g id="node9" class="node">
<title>Node6_1</title>
<ellipse fill="#ff99ff" stroke="#ff99ff" cx="401.1" cy="-18" rx="37.89" ry="18"/>
<text text-anchor="middle" x="401.1" y="-14.3" font-family="Times,serif" font-size="14.00">च(6.1)</text>
</g>
<!-- Node6_1&#45;&gt;Node5_1 -->
<g id="edge6" class="edge">
<title>Node6_1&#45;&gt;Node5_1</title>
<path fill="none" stroke="black" d="M401.1,-46.27C401.1,-59.58 401.1,-75.19 401.1,-86.82"/>
<polygon fill="black" stroke="black" points="404.6,-46.2 401.1,-36.2 397.6,-46.2 404.6,-46.2"/>
<text text-anchor="middle" x="451.1" y="-57.8" font-family="Times,serif" font-size="14.00">सुप्_समुच्चय_द्योतकः</text>
</g>
<!-- Node9_1 -->
<g id="node10" class="node">
<title>Node9_1</title>
<ellipse fill="#c6e2eb" stroke="#c6e2eb" cx="175.1" cy="-366" rx="60.39" ry="18"/>
<text text-anchor="middle" x="175.1" y="-362.3" font-family="Times,serif" font-size="14.00">गजसाह्वये(9.1)</text>
</g>
<!-- Node9_1&#45;&gt;Node12_1 -->
<g id="edge9" class="edge">
<title>Node9_1&#45;&gt;Node12_1</title>
<path fill="none" stroke="black" d="M175.1,-394.27C175.1,-407.58 175.1,-423.19 175.1,-434.82"/>
<polygon fill="black" stroke="black" points="178.6,-394.2 175.1,-384.2 171.6,-394.2 178.6,-394.2"/>
<text text-anchor="middle" x="195.6" y="-405.8" font-family="Times,serif" font-size="14.00">उपमानम्</text>
</g>
<!-- Node10_1 -->
<g id="node11" class="node">
<title>Node10_1</title>
<ellipse fill="#ff99ff" stroke="#ff99ff" cx="61.1" cy="-279" rx="48.99" ry="18"/>
<text text-anchor="middle" x="61.1" y="-275.3" font-family="Times,serif" font-size="14.00">पुरा(10.1)</text>
</g>
<!-- Node10_1&#45;&gt;Node9_1 -->
<g id="edge10" class="edge">
<title>Node10_1&#45;&gt;Node9_1</title>
<path fill="none" stroke="black" d="M89.85,-301.44C109.75,-316.28 135.79,-335.69 153.83,-349.15"/>
<polygon fill="black" stroke="black" points="91.85,-298.56 81.74,-295.39 87.67,-304.18 91.85,-298.56"/>
<text text-anchor="middle" x="143.6" y="-318.8" font-family="Times,serif" font-size="14.00">सम्बन्धः</text>
</g>
<!-- Node11_1 -->
<g id="node12" class="node">
<title>Node11_1</title>
<ellipse fill="#ff99ff" stroke="#ff99ff" cx="175.1" cy="-279" rx="46.59" ry="18"/>
<text text-anchor="middle" x="175.1" y="-275.3" font-family="Times,serif" font-size="14.00">इव(11.1)</text>
</g>
<!-- Node11_1&#45;&gt;Node9_1 -->
<g id="edge11" class="edge">
<title>Node11_1&#45;&gt;Node9_1</title>
<path fill="none" stroke="black" d="M175.1,-307.27C175.1,-320.58 175.1,-336.19 175.1,-347.82"/>
<polygon fill="black" stroke="black" points="178.6,-307.2 175.1,-297.2 171.6,-307.2 178.6,-307.2"/>
<text text-anchor="middle" x="211.6" y="-318.8" font-family="Times,serif" font-size="14.00">उपमान_द्योतकः</text>
</g>
</g>
</svg>
