<?xml version="1.0" encoding="UTF-8" standalone="no"?>
<!DOCTYPE svg PUBLIC "-//W3C//DTD SVG 1.1//EN"
 "http://www.w3.org/Graphics/SVG/1.1/DTD/svg11.dtd">
<!-- Generated by graphviz version 2.43.0 (0)
 -->
<!-- Title: G Pages: 1 -->
<svg width="588pt" height="582pt"
 viewBox="0.00 0.00 587.60 582.00" xmlns="http://www.w3.org/2000/svg" xmlns:xlink="http://www.w3.org/1999/xlink">
<g id="graph0" class="graph" transform="scale(1 1) rotate(0) translate(4 578)">
<title>G</title>
<polygon fill="#fffacd" stroke="transparent" points="-4,4 -4,-578 583.6,-578 583.6,4 -4,4"/>
<g id="clust1" class="cluster">
<title>cluster_1</title>
<polygon fill="#fffacd" stroke="black" points="449.6,-8 449.6,-234 571.6,-234 571.6,-8 449.6,-8"/>
</g>
<g id="clust2" class="cluster">
<title>cluster_2</title>
<polygon fill="#fffacd" stroke="black" points="365.6,-356 365.6,-495 479.6,-495 479.6,-356 365.6,-356"/>
</g>
<!-- Node3_1 -->
<g id="node1" class="node">
<title>Node3_1</title>
<ellipse fill="#87ceeb" stroke="#87ceeb" cx="509.6" cy="-121" rx="50.09" ry="18"/>
<text text-anchor="middle" x="509.6" y="-117.3" font-family="Times,serif" font-size="14.00">मात्रोः(3.1)</text>
</g>
<!-- Node1_1 -->
<g id="node2" class="node">
<title>Node1_1</title>
<ellipse fill="#87ceeb" stroke="#87ceeb" cx="504.6" cy="-208" rx="46.29" ry="18"/>
<text text-anchor="middle" x="504.6" y="-204.3" font-family="Times,serif" font-size="14.00">राज्ञः(1.1)</text>
</g>
<!-- Node3_1&#45;&gt;Node1_1 -->
<g id="edge3" class="edge">
<title>Node3_1&#45;&gt;Node1_1</title>
<path fill="none" stroke="black" d="M507.99,-149.27C507.21,-162.58 506.29,-178.19 505.61,-189.82"/>
<polygon fill="black" stroke="black" points="511.49,-149.39 508.58,-139.2 504.5,-148.98 511.49,-149.39"/>
<text text-anchor="middle" x="529.1" y="-160.8" font-family="Times,serif" font-size="14.00">समुच्चितः</text>
</g>
<!-- Node5_2 -->
<g id="node6" class="node">
<title>Node5_2</title>
<ellipse fill="#c6e2eb" stroke="#c6e2eb" cx="422.6" cy="-295" rx="55.49" ry="18"/>
<text text-anchor="middle" x="422.6" y="-291.3" font-family="Times,serif" font-size="14.00">शुश्रूषणे(5.2)</text>
</g>
<!-- Node1_1&#45;&gt;Node5_2 -->
<g id="edge1" class="edge">
<title>Node1_1&#45;&gt;Node5_2</title>
<path fill="none" stroke="black" d="M481.92,-232.5C468.13,-246.8 450.86,-264.71 438.51,-277.5"/>
<polygon fill="black" stroke="black" points="484.75,-234.61 489.17,-224.99 479.71,-229.75 484.75,-234.61"/>
<text text-anchor="middle" x="495.1" y="-247.8" font-family="Times,serif" font-size="14.00">षष्ठीसम्बन्धः</text>
</g>
<!-- Node4_1 -->
<g id="node3" class="node">
<title>Node4_1</title>
<ellipse fill="#87ceeb" stroke="#87ceeb" cx="510.6" cy="-34" rx="53.09" ry="18"/>
<text text-anchor="middle" x="510.6" y="-30.3" font-family="Times,serif" font-size="14.00">अनयोः(4.1)</text>
</g>
<!-- Node4_1&#45;&gt;Node3_1 -->
<g id="edge4" class="edge">
<title>Node4_1&#45;&gt;Node3_1</title>
<path fill="none" stroke="black" d="M510.28,-62.27C510.12,-75.58 509.94,-91.19 509.8,-102.82"/>
<polygon fill="black" stroke="black" points="513.78,-62.24 510.39,-52.2 506.78,-62.16 513.78,-62.24"/>
<text text-anchor="middle" x="532.1" y="-73.8" font-family="Times,serif" font-size="14.00">विशेषणम्</text>
</g>
<!-- Node6_1 -->
<g id="node4" class="node">
<title>Node6_1</title>
<ellipse fill="#00bfff" stroke="#00bfff" cx="422.6" cy="-382" rx="49.29" ry="18"/>
<text text-anchor="middle" x="422.6" y="-378.3" font-family="Times,serif" font-size="14.00">युक्तः(6.1)</text>
</g>
<!-- Node7_1 -->
<g id="node5" class="node">
<title>Node7_1</title>
<ellipse fill="#00bfff" stroke="#00bfff" cx="422.6" cy="-469" rx="48.19" ry="18"/>
<text text-anchor="middle" x="422.6" y="-465.3" font-family="Times,serif" font-size="14.00">अहम्(7.1)</text>
</g>
<!-- Node6_1&#45;&gt;Node7_1 -->
<g id="edge7" class="edge">
<title>Node6_1&#45;&gt;Node7_1</title>
<path fill="none" stroke="black" d="M422.6,-410.27C422.6,-423.58 422.6,-439.19 422.6,-450.82"/>
<polygon fill="black" stroke="black" points="426.1,-410.2 422.6,-400.2 419.1,-410.2 426.1,-410.2"/>
<text text-anchor="middle" x="445.1" y="-421.8" font-family="Times,serif" font-size="14.00">विशेषणम्</text>
</g>
<!-- Node12_1 -->
<g id="node9" class="node">
<title>Node12_1</title>
<ellipse fill="#ff1975" stroke="#ff1975" cx="224.6" cy="-556" rx="76.09" ry="18"/>
<text text-anchor="middle" x="224.6" y="-552.3" font-family="Times,serif" font-size="14.00">शोषयिष्यामि(12.1)</text>
</g>
<!-- Node7_1&#45;&gt;Node12_1 -->
<g id="edge8" class="edge">
<title>Node7_1&#45;&gt;Node12_1</title>
<path fill="none" stroke="black" d="M383.5,-487.22C377.51,-489.83 371.39,-492.5 365.6,-495 329.7,-510.51 288.53,-527.99 259.99,-540.07"/>
<polygon fill="black" stroke="black" points="384.99,-490.38 392.74,-483.17 382.18,-483.97 384.99,-490.38"/>
<text text-anchor="middle" x="369.1" y="-508.8" font-family="Times,serif" font-size="14.00">प्रयोजककर्ता</text>
</g>
<!-- Node5_2&#45;&gt;Node6_1 -->
<g id="edge6" class="edge">
<title>Node5_2&#45;&gt;Node6_1</title>
<path fill="none" stroke="black" d="M422.6,-323.27C422.6,-336.58 422.6,-352.19 422.6,-363.82"/>
<polygon fill="black" stroke="black" points="426.1,-323.2 422.6,-313.2 419.1,-323.2 426.1,-323.2"/>
<text text-anchor="middle" x="459.6" y="-334.8" font-family="Times,serif" font-size="14.00">विषयाधिकरणम्</text>
</g>
<!-- Node2_1 -->
<g id="node7" class="node">
<title>Node2_1</title>
<ellipse fill="#ff99ff" stroke="#ff99ff" cx="396.6" cy="-121" rx="44.69" ry="18"/>
<text text-anchor="middle" x="396.6" y="-117.3" font-family="Times,serif" font-size="14.00">तथा(2.1)</text>
</g>
<!-- Node2_1&#45;&gt;Node1_1 -->
<g id="edge2" class="edge">
<title>Node2_1&#45;&gt;Node1_1</title>
<path fill="none" stroke="black" d="M408.24,-148C412.99,-156.47 419.15,-165.39 426.6,-172 438.69,-182.74 454.63,-190.68 468.94,-196.26"/>
<polygon fill="black" stroke="black" points="411.34,-146.38 403.63,-139.11 405.12,-149.6 411.34,-146.38"/>
<text text-anchor="middle" x="464.6" y="-160.8" font-family="Times,serif" font-size="14.00">समुच्चय_द्योतकः</text>
</g>
<!-- Node5_1 -->
<g id="node8" class="node">
<title>Node5_1</title>
<ellipse fill="#ffff00" stroke="#ffff00" cx="393.6" cy="-208" rx="46.59" ry="18"/>
<text text-anchor="middle" x="393.6" y="-204.3" font-family="Times,serif" font-size="14.00">पाद&#45;(5.1)</text>
</g>
<!-- Node5_1&#45;&gt;Node5_2 -->
<g id="edge5" class="edge">
<title>Node5_1&#45;&gt;Node5_2</title>
<path fill="none" stroke="black" d="M402.76,-235.87C407.34,-249.27 412.73,-265.08 416.74,-276.82"/>
<polygon fill="black" stroke="black" points="406.01,-234.54 399.46,-226.2 399.38,-236.8 406.01,-234.54"/>
<text text-anchor="middle" x="427.6" y="-247.8" font-family="Times,serif" font-size="14.00">समासः</text>
</g>
<!-- Node8_1 -->
<g id="node10" class="node">
<title>Node8_1</title>
<ellipse fill="#ff99ff" stroke="#ff99ff" cx="41.6" cy="-469" rx="40.89" ry="18"/>
<text text-anchor="middle" x="41.6" y="-465.3" font-family="Times,serif" font-size="14.00">इह(8.1)</text>
</g>
<!-- Node8_1&#45;&gt;Node12_1 -->
<g id="edge9" class="edge">
<title>Node8_1&#45;&gt;Node12_1</title>
<path fill="none" stroke="black" d="M69.66,-490.73C83.83,-500.52 101.58,-511.83 118.6,-520 136.94,-528.8 158.07,-536.27 176.61,-542.02"/>
<polygon fill="black" stroke="black" points="71.54,-487.76 61.35,-484.86 67.5,-493.48 71.54,-487.76"/>
<text text-anchor="middle" x="150.6" y="-508.8" font-family="Times,serif" font-size="14.00">देशाधिकरणम्</text>
</g>
<!-- Node9_1 -->
<g id="node11" class="node">
<title>Node9_1</title>
<ellipse fill="#ff99ff" stroke="#ff99ff" cx="41.6" cy="-382" rx="41.69" ry="18"/>
<text text-anchor="middle" x="41.6" y="-378.3" font-family="Times,serif" font-size="14.00">एव(9.1)</text>
</g>
<!-- Node9_1&#45;&gt;Node8_1 -->
<g id="edge10" class="edge">
<title>Node9_1&#45;&gt;Node8_1</title>
<path fill="none" stroke="black" d="M41.6,-410.27C41.6,-423.58 41.6,-439.19 41.6,-450.82"/>
<polygon fill="black" stroke="black" points="45.1,-410.2 41.6,-400.2 38.1,-410.2 45.1,-410.2"/>
<text text-anchor="middle" x="60.1" y="-421.8" font-family="Times,serif" font-size="14.00">सम्बन्धः</text>
</g>
<!-- Node10_1 -->
<g id="node12" class="node">
<title>Node10_1</title>
<ellipse fill="#40e0d0" stroke="#40e0d0" cx="156.6" cy="-469" rx="55.79" ry="18"/>
<text text-anchor="middle" x="156.6" y="-465.3" font-family="Times,serif" font-size="14.00">तपसा(10.1)</text>
</g>
<!-- Node10_1&#45;&gt;Node12_1 -->
<g id="edge11" class="edge">
<title>Node10_1&#45;&gt;Node12_1</title>
<path fill="none" stroke="black" d="M176.29,-494.61C187.49,-508.62 201.23,-525.79 211.19,-538.24"/>
<polygon fill="black" stroke="black" points="179.01,-492.42 170.03,-486.79 173.54,-496.79 179.01,-492.42"/>
<text text-anchor="middle" x="212.1" y="-508.8" font-family="Times,serif" font-size="14.00">करणम्</text>
</g>
<!-- Node11_1 -->
<g id="node13" class="node">
<title>Node11_1</title>
<ellipse fill="#93db70" stroke="#93db70" cx="293.6" cy="-469" rx="63.09" ry="18"/>
<text text-anchor="middle" x="293.6" y="-465.3" font-family="Times,serif" font-size="14.00">कलेवरम्(11.1)</text>
</g>
<!-- Node11_1&#45;&gt;Node12_1 -->
<g id="edge12" class="edge">
<title>Node11_1&#45;&gt;Node12_1</title>
<path fill="none" stroke="black" d="M273.62,-494.61C262.25,-508.62 248.31,-525.79 238.2,-538.24"/>
<polygon fill="black" stroke="black" points="276.38,-496.76 279.96,-486.79 270.94,-492.35 276.38,-496.76"/>
<text text-anchor="middle" x="272.6" y="-508.8" font-family="Times,serif" font-size="14.00">कर्म</text>
</g>
</g>
</svg>
