<?xml version="1.0" encoding="UTF-8" standalone="no"?>
<!DOCTYPE svg PUBLIC "-//W3C//DTD SVG 1.1//EN"
 "http://www.w3.org/Graphics/SVG/1.1/DTD/svg11.dtd">
<!-- Generated by graphviz version 2.43.0 (0)
 -->
<!-- Title: G Pages: 1 -->
<svg width="691pt" height="392pt"
 viewBox="0.00 0.00 691.05 392.00" xmlns="http://www.w3.org/2000/svg" xmlns:xlink="http://www.w3.org/1999/xlink">
<g id="graph0" class="graph" transform="scale(1 1) rotate(0) translate(4 388)">
<title>G</title>
<polygon fill="#fffacd" stroke="transparent" points="-4,4 -4,-388 687.05,-388 687.05,4 -4,4"/>
<g id="clust1" class="cluster">
<title>cluster_1</title>
<polygon fill="#fffacd" stroke="black" points="263,-166 263,-305 599,-305 599,-166 263,-166"/>
</g>
<g id="clust2" class="cluster">
<title>cluster_2</title>
<polygon fill="#fffacd" stroke="black" points="8,-79 8,-218 136,-218 136,-79 8,-79"/>
</g>
<!-- Node1_1 -->
<g id="node1" class="node">
<title>Node1_1</title>
<ellipse fill="#00bfff" stroke="#00bfff" cx="539" cy="-192" rx="51.99" ry="18"/>
<text text-anchor="middle" x="539" y="-188.3" font-family="Times,serif" font-size="14.00">धीमान्(1.1)</text>
</g>
<!-- Node2_1 -->
<g id="node2" class="node">
<title>Node2_1</title>
<ellipse fill="#00bfff" stroke="#00bfff" cx="377" cy="-279" rx="57.69" ry="18"/>
<text text-anchor="middle" x="377" y="-275.3" font-family="Times,serif" font-size="14.00">युधिष्ठिरः(2.1)</text>
</g>
<!-- Node1_1&#45;&gt;Node2_1 -->
<g id="edge1" class="edge">
<title>Node1_1&#45;&gt;Node2_1</title>
<path fill="none" stroke="black" d="M505.22,-213.3C489.26,-222.67 469.83,-233.74 452,-243 438.1,-250.22 422.44,-257.64 409.04,-263.77"/>
<polygon fill="black" stroke="black" points="507.35,-216.11 514.19,-208.01 503.79,-210.08 507.35,-216.11"/>
<text text-anchor="middle" x="500.5" y="-231.8" font-family="Times,serif" font-size="14.00">विशेषणम्</text>
</g>
<!-- Node11_1 -->
<g id="node7" class="node">
<title>Node11_1</title>
<ellipse fill="#ff1975" stroke="#ff1975" cx="199" cy="-366" rx="67.69" ry="18"/>
<text text-anchor="middle" x="199" y="-362.3" font-family="Times,serif" font-size="14.00">अनुरुध्यते(11.1)</text>
</g>
<!-- Node2_1&#45;&gt;Node11_1 -->
<g id="edge2" class="edge">
<title>Node2_1&#45;&gt;Node11_1</title>
<path fill="none" stroke="black" d="M337.81,-298.91C318.34,-308.29 294.45,-319.77 273,-330 259.15,-336.61 243.81,-343.87 230.71,-350.06"/>
<polygon fill="black" stroke="black" points="339.5,-301.99 346.99,-294.49 336.46,-295.68 339.5,-301.99"/>
<text text-anchor="middle" x="312" y="-318.8" font-family="Times,serif" font-size="14.00">कर्ता</text>
</g>
<!-- Node4_3 -->
<g id="node3" class="node">
<title>Node4_3</title>
<ellipse fill="#00bfff" stroke="#00bfff" cx="316" cy="-192" rx="45.49" ry="18"/>
<text text-anchor="middle" x="316" y="-188.3" font-family="Times,serif" font-size="14.00">जनः(4.3)</text>
</g>
<!-- Node4_3&#45;&gt;Node2_1 -->
<g id="edge6" class="edge">
<title>Node4_3&#45;&gt;Node2_1</title>
<path fill="none" stroke="black" d="M331.53,-218.58C336.58,-226.54 342.35,-235.26 348,-243 352.47,-249.12 357.66,-255.57 362.41,-261.24"/>
<polygon fill="black" stroke="black" points="334.43,-216.63 326.17,-210.01 328.5,-220.34 334.43,-216.63"/>
<text text-anchor="middle" x="370.5" y="-231.8" font-family="Times,serif" font-size="14.00">विशेषणम्</text>
</g>
<!-- Node5_2 -->
<g id="node4" class="node">
<title>Node5_2</title>
<ellipse fill="#00bfff" stroke="#00bfff" cx="424" cy="-192" rx="44.69" ry="18"/>
<text text-anchor="middle" x="424" y="-188.3" font-family="Times,serif" font-size="14.00">दारः(5.2)</text>
</g>
<!-- Node5_2&#45;&gt;Node2_1 -->
<g id="edge8" class="edge">
<title>Node5_2&#45;&gt;Node2_1</title>
<path fill="none" stroke="black" d="M409.77,-218.74C402.2,-232.42 393.11,-248.86 386.43,-260.95"/>
<polygon fill="black" stroke="black" points="412.94,-220.24 414.71,-209.79 406.81,-216.85 412.94,-220.24"/>
<text text-anchor="middle" x="425.5" y="-231.8" font-family="Times,serif" font-size="14.00">विशेषणम्</text>
</g>
<!-- Node6_1 -->
<g id="node5" class="node">
<title>Node6_1</title>
<ellipse fill="#40e0d0" stroke="#40e0d0" cx="72" cy="-105" rx="44.69" ry="18"/>
<text text-anchor="middle" x="72" y="-101.3" font-family="Times,serif" font-size="14.00">सर्वैः(6.1)</text>
</g>
<!-- Node7_1 -->
<g id="node6" class="node">
<title>Node7_1</title>
<ellipse fill="#40e0d0" stroke="#40e0d0" cx="72" cy="-192" rx="55.79" ry="18"/>
<text text-anchor="middle" x="72" y="-188.3" font-family="Times,serif" font-size="14.00">भ्रातृभिः(7.1)</text>
</g>
<!-- Node6_1&#45;&gt;Node7_1 -->
<g id="edge9" class="edge">
<title>Node6_1&#45;&gt;Node7_1</title>
<path fill="none" stroke="black" d="M72,-133.27C72,-146.58 72,-162.19 72,-173.82"/>
<polygon fill="black" stroke="black" points="75.5,-133.2 72,-123.2 68.5,-133.2 75.5,-133.2"/>
<text text-anchor="middle" x="94.5" y="-144.8" font-family="Times,serif" font-size="14.00">विशेषणम्</text>
</g>
<!-- Node7_1&#45;&gt;Node2_1 -->
<g id="edge10" class="edge">
<title>Node7_1&#45;&gt;Node2_1</title>
<path fill="none" stroke="black" d="M122.77,-207.15C182.38,-223.76 280.14,-251.01 335.45,-266.42"/>
<polygon fill="black" stroke="black" points="123.39,-203.69 112.82,-204.38 121.51,-210.43 123.39,-203.69"/>
<text text-anchor="middle" x="258" y="-231.8" font-family="Times,serif" font-size="14.00">सहार्थः</text>
</g>
<!-- Node3_1 -->
<g id="node8" class="node">
<title>Node3_1</title>
<ellipse fill="#ff99ff" stroke="#ff99ff" cx="646" cy="-192" rx="37.09" ry="18"/>
<text text-anchor="middle" x="646" y="-188.3" font-family="Times,serif" font-size="14.00">तु(3.1)</text>
</g>
<!-- Node3_1&#45;&gt;Node2_1 -->
<g id="edge3" class="edge">
<title>Node3_1&#45;&gt;Node2_1</title>
<path fill="none" stroke="black" d="M615.41,-211.82C611.31,-214.03 607.1,-216.16 603,-218 545.05,-244.03 473.49,-260.66 426.62,-269.65"/>
<polygon fill="black" stroke="black" points="617.16,-214.85 624.15,-206.89 613.72,-208.75 617.16,-214.85"/>
<text text-anchor="middle" x="591.5" y="-231.8" font-family="Times,serif" font-size="14.00">सम्बन्धः</text>
</g>
<!-- Node4_1 -->
<g id="node9" class="node">
<title>Node4_1</title>
<ellipse fill="#ffff00" stroke="#ffff00" cx="316" cy="-18" rx="40.89" ry="18"/>
<text text-anchor="middle" x="316" y="-14.3" font-family="Times,serif" font-size="14.00">स&#45;(4.1)</text>
</g>
<!-- Node4_2 -->
<g id="node10" class="node">
<title>Node4_2</title>
<ellipse fill="#ffff00" stroke="#ffff00" cx="316" cy="-105" rx="50.09" ry="18"/>
<text text-anchor="middle" x="316" y="-101.3" font-family="Times,serif" font-size="14.00">सुहृत्&#45;(4.2)</text>
</g>
<!-- Node4_1&#45;&gt;Node4_2 -->
<g id="edge4" class="edge">
<title>Node4_1&#45;&gt;Node4_2</title>
<path fill="none" stroke="black" d="M316,-46.27C316,-59.58 316,-75.19 316,-86.82"/>
<polygon fill="black" stroke="black" points="319.5,-46.2 316,-36.2 312.5,-46.2 319.5,-46.2"/>
<text text-anchor="middle" x="333" y="-57.8" font-family="Times,serif" font-size="14.00">समासः</text>
</g>
<!-- Node4_2&#45;&gt;Node4_3 -->
<g id="edge5" class="edge">
<title>Node4_2&#45;&gt;Node4_3</title>
<path fill="none" stroke="black" d="M316,-133.27C316,-146.58 316,-162.19 316,-173.82"/>
<polygon fill="black" stroke="black" points="319.5,-133.2 316,-123.2 312.5,-133.2 319.5,-133.2"/>
<text text-anchor="middle" x="333" y="-144.8" font-family="Times,serif" font-size="14.00">समासः</text>
</g>
<!-- Node5_1 -->
<g id="node11" class="node">
<title>Node5_1</title>
<ellipse fill="#ffff00" stroke="#ffff00" cx="425" cy="-105" rx="40.89" ry="18"/>
<text text-anchor="middle" x="425" y="-101.3" font-family="Times,serif" font-size="14.00">स&#45;(5.1)</text>
</g>
<!-- Node5_1&#45;&gt;Node5_2 -->
<g id="edge7" class="edge">
<title>Node5_1&#45;&gt;Node5_2</title>
<path fill="none" stroke="black" d="M424.68,-133.27C424.52,-146.58 424.34,-162.19 424.2,-173.82"/>
<polygon fill="black" stroke="black" points="428.18,-133.24 424.8,-123.2 421.18,-133.16 428.18,-133.24"/>
<text text-anchor="middle" x="441" y="-144.8" font-family="Times,serif" font-size="14.00">समासः</text>
</g>
<!-- Node8_1 -->
<g id="node12" class="node">
<title>Node8_1</title>
<ellipse fill="#00bfff" stroke="#00bfff" cx="196" cy="-105" rx="51.99" ry="18"/>
<text text-anchor="middle" x="196" y="-101.3" font-family="Times,serif" font-size="14.00">सहितः(8.1)</text>
</g>
<!-- Node8_1&#45;&gt;Node7_1 -->
<g id="edge11" class="edge">
<title>Node8_1&#45;&gt;Node7_1</title>
<path fill="none" stroke="black" d="M165.25,-127.08C143.38,-142.07 114.5,-161.87 94.71,-175.43"/>
<polygon fill="black" stroke="black" points="167.28,-129.93 173.54,-121.39 163.32,-124.16 167.28,-129.93"/>
<text text-anchor="middle" x="174.5" y="-144.8" font-family="Times,serif" font-size="14.00">सहार्थ_द्योतकः</text>
</g>
<!-- Node9_1 -->
<g id="node13" class="node">
<title>Node9_1</title>
<ellipse fill="#93db70" stroke="#93db70" cx="71" cy="-279" rx="54.69" ry="18"/>
<text text-anchor="middle" x="71" y="-275.3" font-family="Times,serif" font-size="14.00">भवन्तम्(9.1)</text>
</g>
<!-- Node9_1&#45;&gt;Node11_1 -->
<g id="edge12" class="edge">
<title>Node9_1&#45;&gt;Node11_1</title>
<path fill="none" stroke="black" d="M102.69,-301.04C125.1,-315.93 154.69,-335.57 175.12,-349.15"/>
<polygon fill="black" stroke="black" points="104.45,-298.01 94.18,-295.39 100.57,-303.84 104.45,-298.01"/>
<text text-anchor="middle" x="151" y="-318.8" font-family="Times,serif" font-size="14.00">कर्म</text>
</g>
<!-- Node10_1 -->
<g id="node14" class="node">
<title>Node10_1</title>
<ellipse fill="#ff99ff" stroke="#ff99ff" cx="199" cy="-279" rx="55.79" ry="18"/>
<text text-anchor="middle" x="199" y="-275.3" font-family="Times,serif" font-size="14.00">स्वयम्(10.1)</text>
</g>
<!-- Node10_1&#45;&gt;Node11_1 -->
<g id="edge13" class="edge">
<title>Node10_1&#45;&gt;Node11_1</title>
<path fill="none" stroke="black" d="M199,-307.27C199,-320.58 199,-336.19 199,-347.82"/>
<polygon fill="black" stroke="black" points="202.5,-307.2 199,-297.2 195.5,-307.2 202.5,-307.2"/>
<text text-anchor="middle" x="234" y="-318.8" font-family="Times,serif" font-size="14.00">क्रियाविशेषणम्</text>
</g>
</g>
</svg>
