<?xml version="1.0" encoding="UTF-8" standalone="no"?>
<!DOCTYPE svg PUBLIC "-//W3C//DTD SVG 1.1//EN"
 "http://www.w3.org/Graphics/SVG/1.1/DTD/svg11.dtd">
<!-- Generated by graphviz version 2.43.0 (0)
 -->
<!-- Title: G Pages: 1 -->
<svg width="670pt" height="305pt"
 viewBox="0.00 0.00 670.34 305.00" xmlns="http://www.w3.org/2000/svg" xmlns:xlink="http://www.w3.org/1999/xlink">
<g id="graph0" class="graph" transform="scale(1 1) rotate(0) translate(4 301)">
<title>G</title>
<polygon fill="#fffacd" stroke="transparent" points="-4,4 -4,-301 666.34,-301 666.34,4 -4,4"/>
<!-- Node1_1 -->
<g id="node1" class="node">
<title>Node1_1</title>
<ellipse fill="#6fffc3" stroke="#6fffc3" cx="53.95" cy="-105" rx="53.89" ry="18"/>
<text text-anchor="middle" x="53.95" y="-101.3" font-family="Times,serif" font-size="14.00">पुत्रकाः(1.1)</text>
</g>
<!-- Node5_1 -->
<g id="node2" class="node">
<title>Node5_1</title>
<ellipse fill="#ff1975" stroke="#ff1975" cx="103.95" cy="-192" rx="45.49" ry="18"/>
<text text-anchor="middle" x="103.95" y="-188.3" font-family="Times,serif" font-size="14.00">सन्तु(5.1)</text>
</g>
<!-- Node1_1&#45;&gt;Node5_1 -->
<g id="edge1" class="edge">
<title>Node1_1&#45;&gt;Node5_1</title>
<path fill="none" stroke="black" d="M68.84,-131.85C73.35,-139.63 78.33,-148.17 82.95,-156 86.47,-161.98 90.38,-168.51 93.85,-174.3"/>
<polygon fill="black" stroke="black" points="71.85,-130.06 63.81,-123.16 65.79,-133.57 71.85,-130.06"/>
<text text-anchor="middle" x="106.95" y="-144.8" font-family="Times,serif" font-size="14.00">सम्बोधनम्</text>
</g>
<!-- Node2_1 -->
<g id="node3" class="node">
<title>Node2_1</title>
<ellipse fill="#87ceeb" stroke="#87ceeb" cx="130.95" cy="-18" rx="38.99" ry="18"/>
<text text-anchor="middle" x="130.95" y="-14.3" font-family="Times,serif" font-size="14.00">वः(2.1)</text>
</g>
<!-- Node3_1 -->
<g id="node4" class="node">
<title>Node3_1</title>
<ellipse fill="#00bfff" stroke="#00bfff" cx="180.95" cy="-105" rx="55.49" ry="18"/>
<text text-anchor="middle" x="180.95" y="-101.3" font-family="Times,serif" font-size="14.00">आगमाः(3.1)</text>
</g>
<!-- Node2_1&#45;&gt;Node3_1 -->
<g id="edge2" class="edge">
<title>Node2_1&#45;&gt;Node3_1</title>
<path fill="none" stroke="black" d="M146.12,-44.8C154.23,-58.58 163.97,-75.14 171.09,-87.24"/>
<polygon fill="black" stroke="black" points="148.91,-42.64 140.82,-35.79 142.88,-46.19 148.91,-42.64"/>
<text text-anchor="middle" x="186.45" y="-57.8" font-family="Times,serif" font-size="14.00">षष्ठीसम्बन्धः</text>
</g>
<!-- Node3_1&#45;&gt;Node5_1 -->
<g id="edge3" class="edge">
<title>Node3_1&#45;&gt;Node5_1</title>
<path fill="none" stroke="black" d="M159.28,-129.91C146.34,-144.2 130.24,-161.98 118.75,-174.66"/>
<polygon fill="black" stroke="black" points="161.98,-132.15 166.1,-122.39 156.79,-127.45 161.98,-132.15"/>
<text text-anchor="middle" x="158.95" y="-144.8" font-family="Times,serif" font-size="14.00">कर्ता</text>
</g>
<!-- Node4_1 -->
<g id="node5" class="node">
<title>Node4_1</title>
<ellipse fill="#00bfff" stroke="#00bfff" cx="237.95" cy="-18" rx="50.09" ry="18"/>
<text text-anchor="middle" x="237.95" y="-14.3" font-family="Times,serif" font-size="14.00">शिवाः(4.1)</text>
</g>
<!-- Node4_1&#45;&gt;Node3_1 -->
<g id="edge4" class="edge">
<title>Node4_1&#45;&gt;Node3_1</title>
<path fill="none" stroke="black" d="M228.43,-45.56C225.04,-53.43 220.84,-61.85 215.95,-69 211.38,-75.67 205.45,-82.16 199.77,-87.7"/>
<polygon fill="black" stroke="black" points="231.78,-46.6 232.26,-36.02 225.28,-43.99 231.78,-46.6"/>
<text text-anchor="middle" x="260.45" y="-57.8" font-family="Times,serif" font-size="14.00">विधेयविशेषणम्</text>
</g>
<!-- Node6_1 -->
<g id="node6" class="node">
<title>Node6_1</title>
<ellipse fill="#ff99ff" stroke="#ff99ff" cx="357.95" cy="-18" rx="46.29" ry="18"/>
<text text-anchor="middle" x="357.95" y="-14.3" font-family="Times,serif" font-size="14.00">एवम्(6.1)</text>
</g>
<!-- Node7_1 -->
<g id="node7" class="node">
<title>Node7_1</title>
<ellipse fill="#00bfff" stroke="#00bfff" cx="357.95" cy="-105" rx="53.89" ry="18"/>
<text text-anchor="middle" x="357.95" y="-101.3" font-family="Times,serif" font-size="14.00">स्वस्थाः(7.1)</text>
</g>
<!-- Node6_1&#45;&gt;Node7_1 -->
<g id="edge5" class="edge">
<title>Node6_1&#45;&gt;Node7_1</title>
<path fill="none" stroke="black" d="M357.95,-46.27C357.95,-59.58 357.95,-75.19 357.95,-86.82"/>
<polygon fill="black" stroke="black" points="361.45,-46.2 357.95,-36.2 354.45,-46.2 361.45,-46.2"/>
<text text-anchor="middle" x="376.45" y="-57.8" font-family="Times,serif" font-size="14.00">सम्बन्धः</text>
</g>
<!-- Node8_1 -->
<g id="node8" class="node">
<title>Node8_1</title>
<ellipse fill="#ff1975" stroke="#ff1975" cx="357.95" cy="-192" rx="47.39" ry="18"/>
<text text-anchor="middle" x="357.95" y="-188.3" font-family="Times,serif" font-size="14.00">भवत(8.1)</text>
</g>
<!-- Node7_1&#45;&gt;Node8_1 -->
<g id="edge6" class="edge">
<title>Node7_1&#45;&gt;Node8_1</title>
<path fill="none" stroke="black" d="M357.95,-133.27C357.95,-146.58 357.95,-162.19 357.95,-173.82"/>
<polygon fill="black" stroke="black" points="361.45,-133.2 357.95,-123.2 354.45,-133.2 361.45,-133.2"/>
<text text-anchor="middle" x="368.95" y="-144.8" font-family="Times,serif" font-size="14.00">कर्ता</text>
</g>
<!-- Node9_1 -->
<g id="node9" class="node">
<title>Node9_1</title>
<ellipse fill="#87ceeb" stroke="#87ceeb" cx="484.95" cy="-18" rx="61.19" ry="18"/>
<text text-anchor="middle" x="484.95" y="-14.3" font-family="Times,serif" font-size="14.00">अस्माकम्(9.1)</text>
</g>
<!-- Node10_1 -->
<g id="node10" class="node">
<title>Node10_1</title>
<ellipse fill="#87ceeb" stroke="#87ceeb" cx="485.95" cy="-105" rx="55.79" ry="18"/>
<text text-anchor="middle" x="485.95" y="-101.3" font-family="Times,serif" font-size="14.00">तपसः(10.1)</text>
</g>
<!-- Node9_1&#45;&gt;Node10_1 -->
<g id="edge7" class="edge">
<title>Node9_1&#45;&gt;Node10_1</title>
<path fill="none" stroke="black" d="M485.27,-46.27C485.42,-59.58 485.61,-75.19 485.74,-86.82"/>
<polygon fill="black" stroke="black" points="488.77,-46.16 485.15,-36.2 481.77,-46.24 488.77,-46.16"/>
<text text-anchor="middle" x="513.45" y="-57.8" font-family="Times,serif" font-size="14.00">षष्ठीसम्बन्धः</text>
</g>
<!-- Node12_1 -->
<g id="node11" class="node">
<title>Node12_1</title>
<ellipse fill="#00bfff" stroke="#00bfff" cx="485.95" cy="-192" rx="61.19" ry="18"/>
<text text-anchor="middle" x="485.95" y="-188.3" font-family="Times,serif" font-size="14.00">उपरोधः(12.1)</text>
</g>
<!-- Node10_1&#45;&gt;Node12_1 -->
<g id="edge8" class="edge">
<title>Node10_1&#45;&gt;Node12_1</title>
<path fill="none" stroke="black" d="M485.95,-133.27C485.95,-146.58 485.95,-162.19 485.95,-173.82"/>
<polygon fill="black" stroke="black" points="489.45,-133.2 485.95,-123.2 482.45,-133.2 489.45,-133.2"/>
<text text-anchor="middle" x="507.45" y="-144.8" font-family="Times,serif" font-size="14.00">प्रयोजनम्</text>
</g>
<!-- Node13_1 -->
<g id="node13" class="node">
<title>Node13_1</title>
<ellipse fill="#ff1975" stroke="#ff1975" cx="485.95" cy="-279" rx="53.09" ry="18"/>
<text text-anchor="middle" x="485.95" y="-275.3" font-family="Times,serif" font-size="14.00">भवेत्(13.1)</text>
</g>
<!-- Node12_1&#45;&gt;Node13_1 -->
<g id="edge10" class="edge">
<title>Node12_1&#45;&gt;Node13_1</title>
<path fill="none" stroke="black" d="M485.95,-220.27C485.95,-233.58 485.95,-249.19 485.95,-260.82"/>
<polygon fill="black" stroke="black" points="489.45,-220.2 485.95,-210.2 482.45,-220.2 489.45,-220.2"/>
<text text-anchor="middle" x="496.95" y="-231.8" font-family="Times,serif" font-size="14.00">कर्ता</text>
</g>
<!-- Node11_1 -->
<g id="node12" class="node">
<title>Node11_1</title>
<ellipse fill="#ff99ff" stroke="#ff99ff" cx="612.95" cy="-18" rx="49.29" ry="18"/>
<text text-anchor="middle" x="612.95" y="-14.3" font-family="Times,serif" font-size="14.00">कृते(11.1)</text>
</g>
<!-- Node11_1&#45;&gt;Node10_1 -->
<g id="edge9" class="edge">
<title>Node11_1&#45;&gt;Node10_1</title>
<path fill="none" stroke="black" d="M584.48,-40.9C572.47,-49.88 558.22,-60.21 544.95,-69 534.52,-75.9 522.72,-83.03 512.43,-89.04"/>
<polygon fill="black" stroke="black" points="586.91,-43.45 592.79,-34.63 582.7,-37.86 586.91,-43.45"/>
<text text-anchor="middle" x="605.95" y="-57.8" font-family="Times,serif" font-size="14.00">प्रयोजनम्_द्योतकः</text>
</g>
</g>
</svg>
