<?xml version="1.0" encoding="UTF-8" standalone="no"?>
<!DOCTYPE svg PUBLIC "-//W3C//DTD SVG 1.1//EN"
 "http://www.w3.org/Graphics/SVG/1.1/DTD/svg11.dtd">
<!-- Generated by graphviz version 2.43.0 (0)
 -->
<!-- Title: G Pages: 1 -->
<svg width="691pt" height="408pt"
 viewBox="0.00 0.00 691.00 408.00" xmlns="http://www.w3.org/2000/svg" xmlns:xlink="http://www.w3.org/1999/xlink">
<g id="graph0" class="graph" transform="scale(1 1) rotate(0) translate(4 404)">
<title>G</title>
<polygon fill="#fffacd" stroke="transparent" points="-4,4 -4,-404 687,-404 687,4 -4,4"/>
<g id="clust1" class="cluster">
<title>cluster_1</title>
<polygon fill="#fffacd" stroke="black" points="8,-8 8,-147 146,-147 146,-8 8,-8"/>
</g>
<g id="clust2" class="cluster">
<title>cluster_2</title>
<polygon fill="#fffacd" stroke="black" points="93,-182 93,-234 201,-234 201,-182 93,-182"/>
</g>
<g id="clust3" class="cluster">
<title>cluster_3</title>
<polygon fill="#fffacd" stroke="black" points="433,-182 433,-321 675,-321 675,-182 433,-182"/>
</g>
<!-- Node4_1 -->
<g id="node1" class="node">
<title>Node4_1</title>
<ellipse fill="#00bfff" stroke="#00bfff" cx="77" cy="-34" rx="61.19" ry="18"/>
<text text-anchor="middle" x="77" y="-30.3" font-family="Times,serif" font-size="14.00">यशस्विनी(4.1)</text>
</g>
<!-- Node5_1 -->
<g id="node2" class="node">
<title>Node5_1</title>
<ellipse fill="#00bfff" stroke="#00bfff" cx="79" cy="-121" rx="55.79" ry="18"/>
<text text-anchor="middle" x="79" y="-117.3" font-family="Times,serif" font-size="14.00">गान्धारी(5.1)</text>
</g>
<!-- Node4_1&#45;&gt;Node5_1 -->
<g id="edge4" class="edge">
<title>Node4_1&#45;&gt;Node5_1</title>
<path fill="none" stroke="black" d="M77.64,-62.27C77.95,-75.58 78.32,-91.19 78.6,-102.82"/>
<polygon fill="black" stroke="black" points="81.14,-62.12 77.4,-52.2 74.14,-62.28 81.14,-62.12"/>
<text text-anchor="middle" x="101.5" y="-73.8" font-family="Times,serif" font-size="14.00">विशेषणम्</text>
</g>
<!-- Node2_1 -->
<g id="node3" class="node">
<title>Node2_1</title>
<ellipse fill="#00bfff" stroke="#00bfff" cx="147" cy="-208" rx="46.29" ry="18"/>
<text text-anchor="middle" x="147" y="-204.3" font-family="Times,serif" font-size="14.00">राजा(2.1)</text>
</g>
<!-- Node5_1&#45;&gt;Node2_1 -->
<g id="edge5" class="edge">
<title>Node5_1&#45;&gt;Node2_1</title>
<path fill="none" stroke="black" d="M98.1,-146.78C104.39,-154.86 111.45,-163.85 118,-172 122.94,-178.15 128.45,-184.84 133.33,-190.7"/>
<polygon fill="black" stroke="black" points="100.77,-144.52 91.88,-138.76 95.24,-148.81 100.77,-144.52"/>
<text text-anchor="middle" x="140.5" y="-160.8" font-family="Times,serif" font-size="14.00">समुच्चितः</text>
</g>
<!-- Node6_1 -->
<g id="node8" class="node">
<title>Node6_1</title>
<ellipse fill="#ff1975" stroke="#ff1975" cx="207" cy="-295" rx="63.09" ry="18"/>
<text text-anchor="middle" x="207" y="-291.3" font-family="Times,serif" font-size="14.00">विसर्जयति(6.1)</text>
</g>
<!-- Node2_1&#45;&gt;Node6_1 -->
<g id="edge2" class="edge">
<title>Node2_1&#45;&gt;Node6_1</title>
<path fill="none" stroke="black" d="M164.65,-234.01C174.49,-247.94 186.47,-264.91 195.17,-277.24"/>
<polygon fill="black" stroke="black" points="167.48,-231.94 158.85,-225.79 161.76,-235.98 167.48,-231.94"/>
<text text-anchor="middle" x="192" y="-247.8" font-family="Times,serif" font-size="14.00">कर्ता</text>
</g>
<!-- Node7_2 -->
<g id="node4" class="node">
<title>Node7_2</title>
<ellipse fill="#00bfff" stroke="#00bfff" cx="619" cy="-208" rx="48.19" ry="18"/>
<text text-anchor="middle" x="619" y="-204.3" font-family="Times,serif" font-size="14.00">चित्तः(7.2)</text>
</g>
<!-- Node9_1 -->
<g id="node5" class="node">
<title>Node9_1</title>
<ellipse fill="#00bfff" stroke="#00bfff" cx="494" cy="-295" rx="48.19" ry="18"/>
<text text-anchor="middle" x="494" y="-291.3" font-family="Times,serif" font-size="14.00">अहम्(9.1)</text>
</g>
<!-- Node7_2&#45;&gt;Node9_1 -->
<g id="edge7" class="edge">
<title>Node7_2&#45;&gt;Node9_1</title>
<path fill="none" stroke="black" d="M588.48,-229.75C566.15,-244.94 536.37,-265.19 516.26,-278.86"/>
<polygon fill="black" stroke="black" points="590.64,-232.52 596.94,-224 586.7,-226.73 590.64,-232.52"/>
<text text-anchor="middle" x="585.5" y="-247.8" font-family="Times,serif" font-size="14.00">विशेषणम्</text>
</g>
<!-- Node13_1 -->
<g id="node11" class="node">
<title>Node13_1</title>
<ellipse fill="#ff1975" stroke="#ff1975" cx="409" cy="-382" rx="63.89" ry="18"/>
<text text-anchor="middle" x="409" y="-378.3" font-family="Times,serif" font-size="14.00">यास्यामि(13.1)</text>
</g>
<!-- Node9_1&#45;&gt;Node13_1 -->
<g id="edge9" class="edge">
<title>Node9_1&#45;&gt;Node13_1</title>
<path fill="none" stroke="black" d="M472.23,-319.85C464.41,-328.24 455.43,-337.66 447,-346 440.75,-352.18 433.72,-358.76 427.42,-364.53"/>
<polygon fill="black" stroke="black" points="474.82,-322.21 479.05,-312.5 469.69,-317.45 474.82,-322.21"/>
<text text-anchor="middle" x="472" y="-334.8" font-family="Times,serif" font-size="14.00">कर्ता</text>
</g>
<!-- Node8_1 -->
<g id="node6" class="node">
<title>Node8_1</title>
<ellipse fill="#00bfff" stroke="#00bfff" cx="497" cy="-208" rx="55.79" ry="18"/>
<text text-anchor="middle" x="497" y="-204.3" font-family="Times,serif" font-size="14.00">दुःखितः(8.1)</text>
</g>
<!-- Node8_1&#45;&gt;Node9_1 -->
<g id="edge8" class="edge">
<title>Node8_1&#45;&gt;Node9_1</title>
<path fill="none" stroke="black" d="M496.04,-236.27C495.57,-249.58 495.02,-265.19 494.61,-276.82"/>
<polygon fill="black" stroke="black" points="499.54,-236.32 496.39,-226.2 492.54,-236.07 499.54,-236.32"/>
<text text-anchor="middle" x="517.5" y="-247.8" font-family="Times,serif" font-size="14.00">विशेषणम्</text>
</g>
<!-- Node1_1 -->
<g id="node7" class="node">
<title>Node1_1</title>
<ellipse fill="#93db70" stroke="#93db70" cx="255" cy="-208" rx="44.39" ry="18"/>
<text text-anchor="middle" x="255" y="-204.3" font-family="Times,serif" font-size="14.00">माम्(1.1)</text>
</g>
<!-- Node1_1&#45;&gt;Node6_1 -->
<g id="edge1" class="edge">
<title>Node1_1&#45;&gt;Node6_1</title>
<path fill="none" stroke="black" d="M240.47,-234.74C232.74,-248.42 223.46,-264.86 216.63,-276.95"/>
<polygon fill="black" stroke="black" points="243.65,-236.22 245.52,-225.79 237.55,-232.78 243.65,-236.22"/>
<text text-anchor="middle" x="243" y="-247.8" font-family="Times,serif" font-size="14.00">कर्म</text>
</g>
<!-- Node3_1 -->
<g id="node9" class="node">
<title>Node3_1</title>
<ellipse fill="#ff99ff" stroke="#ff99ff" cx="192" cy="-121" rx="37.89" ry="18"/>
<text text-anchor="middle" x="192" y="-117.3" font-family="Times,serif" font-size="14.00">च(3.1)</text>
</g>
<!-- Node3_1&#45;&gt;Node2_1 -->
<g id="edge3" class="edge">
<title>Node3_1&#45;&gt;Node2_1</title>
<path fill="none" stroke="black" d="M178.34,-147.8C171.05,-161.58 162.28,-178.14 155.87,-190.24"/>
<polygon fill="black" stroke="black" points="181.52,-149.27 183.11,-138.79 175.34,-145.99 181.52,-149.27"/>
<text text-anchor="middle" x="208" y="-160.8" font-family="Times,serif" font-size="14.00">समुच्चयद्योतकः</text>
</g>
<!-- Node7_1 -->
<g id="node10" class="node">
<title>Node7_1</title>
<ellipse fill="#ffff00" stroke="#ffff00" cx="619" cy="-121" rx="44.69" ry="18"/>
<text text-anchor="middle" x="619" y="-117.3" font-family="Times,serif" font-size="14.00">बद्ध&#45;(7.1)</text>
</g>
<!-- Node7_1&#45;&gt;Node7_2 -->
<g id="edge6" class="edge">
<title>Node7_1&#45;&gt;Node7_2</title>
<path fill="none" stroke="black" d="M619,-149.27C619,-162.58 619,-178.19 619,-189.82"/>
<polygon fill="black" stroke="black" points="622.5,-149.2 619,-139.2 615.5,-149.2 622.5,-149.2"/>
<text text-anchor="middle" x="636" y="-160.8" font-family="Times,serif" font-size="14.00">समासः</text>
</g>
<!-- Node10_1 -->
<g id="node12" class="node">
<title>Node10_1</title>
<ellipse fill="#c6e2eb" stroke="#c6e2eb" cx="619" cy="-34" rx="63.89" ry="18"/>
<text text-anchor="middle" x="619" y="-30.3" font-family="Times,serif" font-size="14.00">भवत्याम्(10.1)</text>
</g>
<!-- Node10_1&#45;&gt;Node7_1 -->
<g id="edge10" class="edge">
<title>Node10_1&#45;&gt;Node7_1</title>
<path fill="none" stroke="black" d="M619,-62.27C619,-75.58 619,-91.19 619,-102.82"/>
<polygon fill="black" stroke="black" points="622.5,-62.2 619,-52.2 615.5,-62.2 622.5,-62.2"/>
<text text-anchor="middle" x="646.5" y="-73.8" font-family="Times,serif" font-size="14.00">अधिकरणम्</text>
</g>
<!-- Node11_1 -->
<g id="node13" class="node">
<title>Node11_1</title>
<ellipse fill="#ff99ff" stroke="#ff99ff" cx="380" cy="-208" rx="42.79" ry="18"/>
<text text-anchor="middle" x="380" y="-204.3" font-family="Times,serif" font-size="14.00">तु(11.1)</text>
</g>
<!-- Node11_1&#45;&gt;Node9_1 -->
<g id="edge11" class="edge">
<title>Node11_1&#45;&gt;Node9_1</title>
<path fill="none" stroke="black" d="M408.32,-230.12C428.48,-245.15 455.13,-265.01 473.31,-278.58"/>
<polygon fill="black" stroke="black" points="410.23,-227.17 400.12,-224 406.04,-232.78 410.23,-227.17"/>
<text text-anchor="middle" x="461.5" y="-247.8" font-family="Times,serif" font-size="14.00">सम्बन्धः</text>
</g>
<!-- Node12_1 -->
<g id="node14" class="node">
<title>Node12_1</title>
<ellipse fill="#ff99ff" stroke="#ff99ff" cx="370" cy="-295" rx="54.69" ry="18"/>
<text text-anchor="middle" x="370" y="-291.3" font-family="Times,serif" font-size="14.00">कथम्(12.1)</text>
</g>
<!-- Node12_1&#45;&gt;Node13_1 -->
<g id="edge12" class="edge">
<title>Node12_1&#45;&gt;Node13_1</title>
<path fill="none" stroke="black" d="M381.39,-322.4C384.75,-330.04 388.47,-338.37 392,-346 394.72,-351.89 397.79,-358.28 400.57,-363.97"/>
<polygon fill="black" stroke="black" points="384.58,-320.96 377.38,-313.2 378.17,-323.76 384.58,-320.96"/>
<text text-anchor="middle" x="419.5" y="-334.8" font-family="Times,serif" font-size="14.00">आश्चर्यप्रश्नः</text>
</g>
</g>
</svg>
