<?xml version="1.0" encoding="UTF-8" standalone="no"?>
<!DOCTYPE svg PUBLIC "-//W3C//DTD SVG 1.1//EN"
 "http://www.w3.org/Graphics/SVG/1.1/DTD/svg11.dtd">
<!-- Generated by graphviz version 2.43.0 (0)
 -->
<!-- Title: G Pages: 1 -->
<svg width="941pt" height="234pt"
 viewBox="0.00 0.00 941.29 234.00" xmlns="http://www.w3.org/2000/svg" xmlns:xlink="http://www.w3.org/1999/xlink">
<g id="graph0" class="graph" transform="scale(1 1) rotate(0) translate(4 230)">
<title>G</title>
<polygon fill="#fffacd" stroke="transparent" points="-4,4 -4,-230 937.29,-230 937.29,4 -4,4"/>
<g id="clust1" class="cluster">
<title>cluster_1</title>
<polygon fill="#fffacd" stroke="black" points="121.9,-79 121.9,-218 261.9,-218 261.9,-79 121.9,-79"/>
</g>
<!-- Node9_1 -->
<g id="node1" class="node">
<title>Node9_1</title>
<ellipse fill="#ff99ff" stroke="#ff99ff" cx="191.9" cy="-105" rx="62.29" ry="18"/>
<text text-anchor="middle" x="191.9" y="-101.3" font-family="Times,serif" font-size="14.00">सन्देष्टव्यम्(9.1)</text>
</g>
<!-- Node8_1 -->
<g id="node2" class="node">
<title>Node8_1</title>
<ellipse fill="#93db70" stroke="#93db70" cx="179.9" cy="-192" rx="48.19" ry="18"/>
<text text-anchor="middle" x="179.9" y="-188.3" font-family="Times,serif" font-size="14.00">कृतम्(8.1)</text>
</g>
<!-- Node9_1&#45;&gt;Node8_1 -->
<g id="edge9" class="edge">
<title>Node9_1&#45;&gt;Node8_1</title>
<path fill="none" stroke="black" d="M188.05,-133.27C186.17,-146.58 183.96,-162.19 182.32,-173.82"/>
<polygon fill="black" stroke="black" points="191.53,-133.59 189.47,-123.2 184.6,-132.61 191.53,-133.59"/>
<text text-anchor="middle" x="208.4" y="-144.8" font-family="Times,serif" font-size="14.00">विशेषणम्</text>
</g>
<!-- Node12_1 -->
<g id="node11" class="node">
<title>Node12_1</title>
<ellipse fill="#ff1975" stroke="#ff1975" cx="330.9" cy="-192" rx="61.19" ry="18"/>
<text text-anchor="middle" x="330.9" y="-188.3" font-family="Times,serif" font-size="14.00">पश्यामि(12.1)</text>
</g>
<!-- Node9_1&#45;&gt;Node12_1 -->
<g id="edge10" class="edge">
<title>Node9_1&#45;&gt;Node12_1</title>
<path fill="none" stroke="black" stroke-dasharray="1,5" d="M226.05,-126.89C250.64,-141.92 283.27,-161.88 305.56,-175.51"/>
<polygon fill="black" stroke="black" points="227.75,-123.82 217.39,-121.59 224.1,-129.79 227.75,-123.82"/>
<text text-anchor="middle" x="290.4" y="-144.8" font-family="Times,serif" font-size="14.00">वाक्यकर्म</text>
</g>
<!-- Node1_1 -->
<g id="node3" class="node">
<title>Node1_1</title>
<ellipse fill="#6fffc3" stroke="#6fffc3" cx="550.9" cy="-105" rx="57.39" ry="18"/>
<text text-anchor="middle" x="550.9" y="-101.3" font-family="Times,serif" font-size="14.00">भरतर्षभ(1.1)</text>
</g>
<!-- Node5_1 -->
<g id="node4" class="node">
<title>Node5_1</title>
<ellipse fill="#00bfff" stroke="#00bfff" cx="703.9" cy="-192" rx="45.49" ry="18"/>
<text text-anchor="middle" x="703.9" y="-188.3" font-family="Times,serif" font-size="14.00">श्रुता(5.1)</text>
</g>
<!-- Node1_1&#45;&gt;Node5_1 -->
<g id="edge1" class="edge">
<title>Node1_1&#45;&gt;Node5_1</title>
<path fill="none" stroke="black" d="M583.76,-126.97C598.59,-136.19 616.44,-146.95 632.9,-156 646.74,-163.62 662.48,-171.45 675.61,-177.77"/>
<polygon fill="black" stroke="black" points="585.29,-123.8 574.96,-121.46 581.58,-129.73 585.29,-123.8"/>
<text text-anchor="middle" x="653.9" y="-144.8" font-family="Times,serif" font-size="14.00">सम्बोध्यः</text>
</g>
<!-- Node2_1 -->
<g id="node5" class="node">
<title>Node2_1</title>
<ellipse fill="#87ceeb" stroke="#87ceeb" cx="662.9" cy="-105" rx="37.09" ry="18"/>
<text text-anchor="middle" x="662.9" y="-101.3" font-family="Times,serif" font-size="14.00">ते(2.1)</text>
</g>
<!-- Node2_1&#45;&gt;Node5_1 -->
<g id="edge2" class="edge">
<title>Node2_1&#45;&gt;Node5_1</title>
<path fill="none" stroke="black" d="M674.62,-132.05C678.17,-139.79 682.13,-148.27 685.9,-156 688.77,-161.9 692.02,-168.29 694.96,-173.99"/>
<polygon fill="black" stroke="black" points="677.71,-130.4 670.38,-122.75 671.34,-133.3 677.71,-130.4"/>
<text text-anchor="middle" x="704.4" y="-144.8" font-family="Times,serif" font-size="14.00">सम्बन्धः</text>
</g>
<!-- Node3_1 -->
<g id="node6" class="node">
<title>Node3_1</title>
<ellipse fill="#ffff00" stroke="#ffff00" cx="766.9" cy="-18" rx="40.89" ry="18"/>
<text text-anchor="middle" x="766.9" y="-14.3" font-family="Times,serif" font-size="14.00">सु&#45;(3.1)</text>
</g>
<!-- Node3_2 -->
<g id="node7" class="node">
<title>Node3_2</title>
<ellipse fill="#ff99ff" stroke="#ff99ff" cx="766.9" cy="-105" rx="49.29" ry="18"/>
<text text-anchor="middle" x="766.9" y="-101.3" font-family="Times,serif" font-size="14.00">बहुशः(3.2)</text>
</g>
<!-- Node3_1&#45;&gt;Node3_2 -->
<g id="edge3" class="edge">
<title>Node3_1&#45;&gt;Node3_2</title>
<path fill="none" stroke="black" d="M766.9,-46.27C766.9,-59.58 766.9,-75.19 766.9,-86.82"/>
<polygon fill="black" stroke="black" points="770.4,-46.2 766.9,-36.2 763.4,-46.2 770.4,-46.2"/>
<text text-anchor="middle" x="783.9" y="-57.8" font-family="Times,serif" font-size="14.00">समासः</text>
</g>
<!-- Node3_2&#45;&gt;Node5_1 -->
<g id="edge4" class="edge">
<title>Node3_2&#45;&gt;Node5_1</title>
<path fill="none" stroke="black" d="M748.32,-131.06C737.92,-145.09 725.25,-162.19 716.1,-174.53"/>
<polygon fill="black" stroke="black" points="751.31,-132.91 754.45,-122.79 745.68,-128.74 751.31,-132.91"/>
<text text-anchor="middle" x="773.9" y="-144.8" font-family="Times,serif" font-size="14.00">क्रियाविशेषणम्</text>
</g>
<!-- Node4_1 -->
<g id="node8" class="node">
<title>Node4_1</title>
<ellipse fill="#ffff00" stroke="#ffff00" cx="883.9" cy="-18" rx="46.59" ry="18"/>
<text text-anchor="middle" x="883.9" y="-14.3" font-family="Times,serif" font-size="14.00">राज&#45;(4.1)</text>
</g>
<!-- Node4_2 -->
<g id="node9" class="node">
<title>Node4_2</title>
<ellipse fill="#00bfff" stroke="#00bfff" cx="883.9" cy="-105" rx="49.29" ry="18"/>
<text text-anchor="middle" x="883.9" y="-101.3" font-family="Times,serif" font-size="14.00">नीतिः(4.2)</text>
</g>
<!-- Node4_1&#45;&gt;Node4_2 -->
<g id="edge5" class="edge">
<title>Node4_1&#45;&gt;Node4_2</title>
<path fill="none" stroke="black" d="M883.9,-46.27C883.9,-59.58 883.9,-75.19 883.9,-86.82"/>
<polygon fill="black" stroke="black" points="887.4,-46.2 883.9,-36.2 880.4,-46.2 887.4,-46.2"/>
<text text-anchor="middle" x="900.9" y="-57.8" font-family="Times,serif" font-size="14.00">समासः</text>
</g>
<!-- Node4_2&#45;&gt;Node5_1 -->
<g id="edge6" class="edge">
<title>Node4_2&#45;&gt;Node5_1</title>
<path fill="none" stroke="black" d="M857.08,-127.8C844.27,-137.42 828.39,-148.28 812.9,-156 790.3,-167.25 763.3,-175.96 741.82,-181.87"/>
<polygon fill="black" stroke="black" points="859.22,-130.57 865.01,-121.7 854.95,-125.02 859.22,-130.57"/>
<text text-anchor="middle" x="845.9" y="-144.8" font-family="Times,serif" font-size="14.00">कर्म</text>
</g>
<!-- Node6_1 -->
<g id="node10" class="node">
<title>Node6_1</title>
<ellipse fill="#6fffc3" stroke="#6fffc3" cx="324.9" cy="-105" rx="47.39" ry="18"/>
<text text-anchor="middle" x="324.9" y="-101.3" font-family="Times,serif" font-size="14.00">विभो(6.1)</text>
</g>
<!-- Node6_1&#45;&gt;Node12_1 -->
<g id="edge7" class="edge">
<title>Node6_1&#45;&gt;Node12_1</title>
<path fill="none" stroke="black" d="M326.82,-133.27C327.76,-146.58 328.86,-162.19 329.68,-173.82"/>
<polygon fill="black" stroke="black" points="330.3,-132.93 326.11,-123.2 323.32,-133.42 330.3,-132.93"/>
<text text-anchor="middle" x="348.9" y="-144.8" font-family="Times,serif" font-size="14.00">सम्बोध्यः</text>
</g>
<!-- Node7_1 -->
<g id="node12" class="node">
<title>Node7_1</title>
<ellipse fill="#40e0d0" stroke="#40e0d0" cx="55.9" cy="-105" rx="55.79" ry="18"/>
<text text-anchor="middle" x="55.9" y="-101.3" font-family="Times,serif" font-size="14.00">एतावता(7.1)</text>
</g>
<!-- Node7_1&#45;&gt;Node8_1 -->
<g id="edge8" class="edge">
<title>Node7_1&#45;&gt;Node8_1</title>
<path fill="none" stroke="black" d="M79.17,-129.72C88.55,-138.57 99.77,-148.33 110.9,-156 122.95,-164.31 137.25,-171.89 149.69,-177.85"/>
<polygon fill="black" stroke="black" points="81.38,-126.99 71.76,-122.56 76.52,-132.02 81.38,-126.99"/>
<text text-anchor="middle" x="145.9" y="-144.8" font-family="Times,serif" font-size="14.00">क्रियाविशेषणम्</text>
</g>
<!-- Node10_1 -->
<g id="node13" class="node">
<title>Node10_1</title>
<ellipse fill="#ff99ff" stroke="#ff99ff" cx="191.9" cy="-18" rx="56.59" ry="18"/>
<text text-anchor="middle" x="191.9" y="-14.3" font-family="Times,serif" font-size="14.00">(इति)(10.1)</text>
</g>
<!-- Node10_1&#45;&gt;Node9_1 -->
<g id="edge11" class="edge">
<title>Node10_1&#45;&gt;Node9_1</title>
<path fill="none" stroke="black" d="M191.9,-46.27C191.9,-59.58 191.9,-75.19 191.9,-86.82"/>
<polygon fill="black" stroke="black" points="195.4,-46.2 191.9,-36.2 188.4,-46.2 195.4,-46.2"/>
<text text-anchor="middle" x="232.9" y="-57.8" font-family="Times,serif" font-size="14.00">वाक्यकर्म_द्योतकः</text>
</g>
<!-- Node11_1 -->
<g id="node14" class="node">
<title>Node11_1</title>
<ellipse fill="#ff99ff" stroke="#ff99ff" cx="432.9" cy="-105" rx="42.79" ry="18"/>
<text text-anchor="middle" x="432.9" y="-101.3" font-family="Times,serif" font-size="14.00">न(11.1)</text>
</g>
<!-- Node11_1&#45;&gt;Node12_1 -->
<g id="edge12" class="edge">
<title>Node11_1&#45;&gt;Node12_1</title>
<path fill="none" stroke="black" d="M407.06,-128.08C396.78,-136.82 384.82,-146.93 373.9,-156 366.49,-162.15 358.31,-168.84 351.09,-174.7"/>
<polygon fill="black" stroke="black" points="409.55,-130.56 414.9,-121.41 405.01,-125.23 409.55,-130.56"/>
<text text-anchor="middle" x="409.4" y="-144.8" font-family="Times,serif" font-size="14.00">प्रतिषेधः</text>
</g>
</g>
</svg>
