<?xml version="1.0" encoding="UTF-8" standalone="no"?>
<!DOCTYPE svg PUBLIC "-//W3C//DTD SVG 1.1//EN"
 "http://www.w3.org/Graphics/SVG/1.1/DTD/svg11.dtd">
<!-- Generated by graphviz version 2.43.0 (0)
 -->
<!-- Title: G Pages: 1 -->
<svg width="720pt" height="392pt"
 viewBox="0.00 0.00 719.84 392.00" xmlns="http://www.w3.org/2000/svg" xmlns:xlink="http://www.w3.org/1999/xlink">
<g id="graph0" class="graph" transform="scale(1 1) rotate(0) translate(4 388)">
<title>G</title>
<polygon fill="#fffacd" stroke="transparent" points="-4,4 -4,-388 715.84,-388 715.84,4 -4,4"/>
<g id="clust1" class="cluster">
<title>cluster_1</title>
<polygon fill="#fffacd" stroke="black" points="227,-79 227,-218 431,-218 431,-79 227,-79"/>
</g>
<g id="clust2" class="cluster">
<title>cluster_2</title>
<polygon fill="#fffacd" stroke="black" points="8,-79 8,-218 112,-218 112,-79 8,-79"/>
</g>
<!-- Node1_2 -->
<g id="node1" class="node">
<title>Node1_2</title>
<ellipse fill="#00bfff" stroke="#00bfff" cx="378" cy="-105" rx="44.69" ry="18"/>
<text text-anchor="middle" x="378" y="-101.3" font-family="Times,serif" font-size="14.00">पुत्रः(1.2)</text>
</g>
<!-- Node3_1 -->
<g id="node2" class="node">
<title>Node3_1</title>
<ellipse fill="#00bfff" stroke="#00bfff" cx="281" cy="-192" rx="46.29" ry="18"/>
<text text-anchor="middle" x="281" y="-188.3" font-family="Times,serif" font-size="14.00">राजा(3.1)</text>
</g>
<!-- Node1_2&#45;&gt;Node3_1 -->
<g id="edge2" class="edge">
<title>Node1_2&#45;&gt;Node3_1</title>
<path fill="none" stroke="black" d="M355.8,-129.6C347.35,-138.19 337.48,-147.8 328,-156 320,-162.92 310.74,-169.99 302.57,-175.95"/>
<polygon fill="black" stroke="black" points="358.36,-131.99 362.8,-122.37 353.33,-127.12 358.36,-131.99"/>
<text text-anchor="middle" x="365.5" y="-144.8" font-family="Times,serif" font-size="14.00">विशेषणम्</text>
</g>
<!-- Node7_1 -->
<g id="node7" class="node">
<title>Node7_1</title>
<ellipse fill="#ff1975" stroke="#ff1975" cx="212" cy="-279" rx="44.39" ry="18"/>
<text text-anchor="middle" x="212" y="-275.3" font-family="Times,serif" font-size="14.00">चक्रे(7.1)</text>
</g>
<!-- Node3_1&#45;&gt;Node7_1 -->
<g id="edge4" class="edge">
<title>Node3_1&#45;&gt;Node7_1</title>
<path fill="none" stroke="black" d="M261.27,-217.31C249.72,-231.53 235.47,-249.09 225.26,-261.66"/>
<polygon fill="black" stroke="black" points="264.11,-219.36 267.7,-209.39 258.68,-214.95 264.11,-219.36"/>
<text text-anchor="middle" x="262" y="-231.8" font-family="Times,serif" font-size="14.00">कर्ता</text>
</g>
<!-- Node2_1 -->
<g id="node3" class="node">
<title>Node2_1</title>
<ellipse fill="#00bfff" stroke="#00bfff" cx="275" cy="-105" rx="40.09" ry="18"/>
<text text-anchor="middle" x="275" y="-101.3" font-family="Times,serif" font-size="14.00">सः(2.1)</text>
</g>
<!-- Node2_1&#45;&gt;Node3_1 -->
<g id="edge3" class="edge">
<title>Node2_1&#45;&gt;Node3_1</title>
<path fill="none" stroke="black" d="M276.92,-133.27C277.86,-146.58 278.97,-162.19 279.79,-173.82"/>
<polygon fill="black" stroke="black" points="280.41,-132.93 276.21,-123.2 273.43,-133.42 280.41,-132.93"/>
<text text-anchor="middle" x="301.5" y="-144.8" font-family="Times,serif" font-size="14.00">विशेषणम्</text>
</g>
<!-- Node5_1 -->
<g id="node4" class="node">
<title>Node5_1</title>
<ellipse fill="#93db70" stroke="#93db70" cx="59" cy="-105" rx="42.49" ry="18"/>
<text text-anchor="middle" x="59" y="-101.3" font-family="Times,serif" font-size="14.00">तत्(5.1)</text>
</g>
<!-- Node6_1 -->
<g id="node5" class="node">
<title>Node6_1</title>
<ellipse fill="#93db70" stroke="#93db70" cx="60" cy="-192" rx="44.39" ry="18"/>
<text text-anchor="middle" x="60" y="-188.3" font-family="Times,serif" font-size="14.00">वचः(6.1)</text>
</g>
<!-- Node5_1&#45;&gt;Node6_1 -->
<g id="edge6" class="edge">
<title>Node5_1&#45;&gt;Node6_1</title>
<path fill="none" stroke="black" d="M59.32,-133.27C59.48,-146.58 59.66,-162.19 59.8,-173.82"/>
<polygon fill="black" stroke="black" points="62.82,-133.16 59.2,-123.2 55.82,-133.24 62.82,-133.16"/>
<text text-anchor="middle" x="82.5" y="-144.8" font-family="Times,serif" font-size="14.00">विशेषणम्</text>
</g>
<!-- Node6_1&#45;&gt;Node7_1 -->
<g id="edge7" class="edge">
<title>Node6_1&#45;&gt;Node7_1</title>
<path fill="none" stroke="black" d="M93.84,-211.92C122.09,-227.72 161.71,-249.88 187.12,-264.08"/>
<polygon fill="black" stroke="black" points="95.54,-208.86 85.1,-207.04 92.12,-214.97 95.54,-208.86"/>
<text text-anchor="middle" x="155" y="-231.8" font-family="Times,serif" font-size="14.00">कर्म</text>
</g>
<!-- Node1_1 -->
<g id="node6" class="node">
<title>Node1_1</title>
<ellipse fill="#ffff00" stroke="#ffff00" cx="378" cy="-18" rx="50.09" ry="18"/>
<text text-anchor="middle" x="378" y="-14.3" font-family="Times,serif" font-size="14.00">ऋषि&#45;(1.1)</text>
</g>
<!-- Node1_1&#45;&gt;Node1_2 -->
<g id="edge1" class="edge">
<title>Node1_1&#45;&gt;Node1_2</title>
<path fill="none" stroke="black" d="M378,-46.27C378,-59.58 378,-75.19 378,-86.82"/>
<polygon fill="black" stroke="black" points="381.5,-46.2 378,-36.2 374.5,-46.2 381.5,-46.2"/>
<text text-anchor="middle" x="395" y="-57.8" font-family="Times,serif" font-size="14.00">समासः</text>
</g>
<!-- Node4_1 -->
<g id="node8" class="node">
<title>Node4_1</title>
<ellipse fill="#87ceeb" stroke="#87ceeb" cx="167" cy="-105" rx="47.39" ry="18"/>
<text text-anchor="middle" x="167" y="-101.3" font-family="Times,serif" font-size="14.00">अस्य(4.1)</text>
</g>
<!-- Node4_1&#45;&gt;Node6_1 -->
<g id="edge5" class="edge">
<title>Node4_1&#45;&gt;Node6_1</title>
<path fill="none" stroke="black" d="M141.94,-128.48C131.87,-137.28 120.05,-147.32 109,-156 100.29,-162.85 90.39,-170.02 81.78,-176.08"/>
<polygon fill="black" stroke="black" points="144.39,-130.98 149.58,-121.75 139.77,-125.73 144.39,-130.98"/>
<text text-anchor="middle" x="154.5" y="-144.8" font-family="Times,serif" font-size="14.00">षष्ठीसम्बन्धः</text>
</g>
<!-- Node8_1 -->
<g id="node9" class="node">
<title>Node8_1</title>
<ellipse fill="#ff99ff" stroke="#ff99ff" cx="381" cy="-279" rx="44.39" ry="18"/>
<text text-anchor="middle" x="381" y="-275.3" font-family="Times,serif" font-size="14.00">तदा(8.1)</text>
</g>
<!-- Node12_1 -->
<g id="node10" class="node">
<title>Node12_1</title>
<ellipse fill="#ff1975" stroke="#ff1975" cx="511" cy="-366" rx="59.59" ry="18"/>
<text text-anchor="middle" x="511" y="-362.3" font-family="Times,serif" font-size="14.00">आसीत्(12.1)</text>
</g>
<!-- Node8_1&#45;&gt;Node12_1 -->
<g id="edge8" class="edge">
<title>Node8_1&#45;&gt;Node12_1</title>
<path fill="none" stroke="black" d="M403.72,-303.51C413.17,-312.5 424.59,-322.4 436,-330 448.32,-338.2 462.87,-345.47 475.86,-351.23"/>
<polygon fill="black" stroke="black" points="405.89,-300.74 396.29,-296.25 401,-305.74 405.89,-300.74"/>
<text text-anchor="middle" x="471.5" y="-318.8" font-family="Times,serif" font-size="14.00">कालाधिकरणम्</text>
</g>
<!-- Node9_1 -->
<g id="node11" class="node">
<title>Node9_1</title>
<ellipse fill="#ffff00" stroke="#ffff00" cx="506" cy="-105" rx="53.89" ry="18"/>
<text text-anchor="middle" x="506" y="-101.3" font-family="Times,serif" font-size="14.00">इन्द्रिय&#45;(9.1)</text>
</g>
<!-- Node9_2 -->
<g id="node12" class="node">
<title>Node9_2</title>
<ellipse fill="#93db70" stroke="#93db70" cx="511" cy="-192" rx="49.29" ry="18"/>
<text text-anchor="middle" x="511" y="-188.3" font-family="Times,serif" font-size="14.00">ग्रामम्(9.2)</text>
</g>
<!-- Node9_1&#45;&gt;Node9_2 -->
<g id="edge9" class="edge">
<title>Node9_1&#45;&gt;Node9_2</title>
<path fill="none" stroke="black" d="M507.6,-133.27C508.39,-146.58 509.31,-162.19 509.99,-173.82"/>
<polygon fill="black" stroke="black" points="511.09,-132.98 507.01,-123.2 504.11,-133.39 511.09,-132.98"/>
<text text-anchor="middle" x="525" y="-144.8" font-family="Times,serif" font-size="14.00">समासः</text>
</g>
<!-- Node10_1 -->
<g id="node13" class="node">
<title>Node10_1</title>
<ellipse fill="lightgrey" stroke="black" cx="511" cy="-279" rx="67.69" ry="18"/>
<text text-anchor="middle" x="511" y="-275.3" font-family="Times,serif" font-size="14.00">सन्निरुध्य(10.1)</text>
</g>
<!-- Node9_2&#45;&gt;Node10_1 -->
<g id="edge10" class="edge">
<title>Node9_2&#45;&gt;Node10_1</title>
<path fill="none" stroke="black" d="M511,-220.27C511,-233.58 511,-249.19 511,-260.82"/>
<polygon fill="black" stroke="black" points="514.5,-220.2 511,-210.2 507.5,-220.2 514.5,-220.2"/>
<text text-anchor="middle" x="520" y="-231.8" font-family="Times,serif" font-size="14.00">कर्म</text>
</g>
<!-- Node10_1&#45;&gt;Node12_1 -->
<g id="edge11" class="edge">
<title>Node10_1&#45;&gt;Node12_1</title>
<path fill="none" stroke="black" d="M511,-307.27C511,-320.58 511,-336.19 511,-347.82"/>
<polygon fill="black" stroke="black" points="514.5,-307.2 511,-297.2 507.5,-307.2 514.5,-307.2"/>
<text text-anchor="middle" x="531.5" y="-318.8" font-family="Times,serif" font-size="14.00">पूर्वकालः</text>
</g>
<!-- Node11_1 -->
<g id="node14" class="node">
<title>Node11_1</title>
<ellipse fill="#ffff00" stroke="#ffff00" cx="633" cy="-18" rx="57.39" ry="18"/>
<text text-anchor="middle" x="633" y="-14.3" font-family="Times,serif" font-size="14.00">काष्ठा&#45;(11.1)</text>
</g>
<!-- Node11_2 -->
<g id="node15" class="node">
<title>Node11_2</title>
<ellipse fill="#00bfff" stroke="#00bfff" cx="633" cy="-105" rx="54.69" ry="18"/>
<text text-anchor="middle" x="633" y="-101.3" font-family="Times,serif" font-size="14.00">उपमः(11.2)</text>
</g>
<!-- Node11_1&#45;&gt;Node11_2 -->
<g id="edge12" class="edge">
<title>Node11_1&#45;&gt;Node11_2</title>
<path fill="none" stroke="black" d="M633,-46.27C633,-59.58 633,-75.19 633,-86.82"/>
<polygon fill="black" stroke="black" points="636.5,-46.2 633,-36.2 629.5,-46.2 636.5,-46.2"/>
<text text-anchor="middle" x="650" y="-57.8" font-family="Times,serif" font-size="14.00">समासः</text>
</g>
<!-- Node11_2&#45;&gt;Node9_2 -->
<g id="edge13" class="edge">
<title>Node11_2&#45;&gt;Node9_2</title>
<path fill="none" stroke="black" d="M602.4,-127.32C580.74,-142.41 552.21,-162.29 532.82,-175.79"/>
<polygon fill="black" stroke="black" points="604.42,-130.18 610.62,-121.59 600.42,-124.44 604.42,-130.18"/>
<text text-anchor="middle" x="618" y="-144.8" font-family="Times,serif" font-size="14.00">विधेय_विशेषणम्</text>
</g>
<!-- Node13_1 -->
<g id="node16" class="node">
<title>Node13_1</title>
<ellipse fill="#00bfff" stroke="#00bfff" cx="654" cy="-279" rx="57.69" ry="18"/>
<text text-anchor="middle" x="654" y="-275.3" font-family="Times,serif" font-size="14.00">मनीषी(13.1)</text>
</g>
<!-- Node13_1&#45;&gt;Node12_1 -->
<g id="edge14" class="edge">
<title>Node13_1&#45;&gt;Node12_1</title>
<path fill="none" stroke="black" d="M619.82,-300.32C594.33,-315.47 560.05,-335.84 536.83,-349.65"/>
<polygon fill="black" stroke="black" points="621.63,-303.31 628.43,-295.2 618.05,-297.3 621.63,-303.31"/>
<text text-anchor="middle" x="602" y="-318.8" font-family="Times,serif" font-size="14.00">कर्ता</text>
</g>
</g>
</svg>
