<?xml version="1.0" encoding="UTF-8" standalone="no"?>
<!DOCTYPE svg PUBLIC "-//W3C//DTD SVG 1.1//EN"
 "http://www.w3.org/Graphics/SVG/1.1/DTD/svg11.dtd">
<!-- Generated by graphviz version 2.43.0 (0)
 -->
<!-- Title: G Pages: 1 -->
<svg width="901pt" height="305pt"
 viewBox="0.00 0.00 901.25 305.00" xmlns="http://www.w3.org/2000/svg" xmlns:xlink="http://www.w3.org/1999/xlink">
<g id="graph0" class="graph" transform="scale(1 1) rotate(0) translate(4 301)">
<title>G</title>
<polygon fill="#fffacd" stroke="transparent" points="-4,4 -4,-301 897.25,-301 897.25,4 -4,4"/>
<g id="clust1" class="cluster">
<title>cluster_1</title>
<polygon fill="#fffacd" stroke="black" points="142,-79 142,-218 274,-218 274,-79 142,-79"/>
</g>
<g id="clust2" class="cluster">
<title>cluster_2</title>
<polygon fill="#fffacd" stroke="black" points="8,-79 8,-218 134,-218 134,-79 8,-79"/>
</g>
<!-- Node12_1 -->
<g id="node1" class="node">
<title>Node12_1</title>
<ellipse fill="#00bfff" stroke="#00bfff" cx="208" cy="-105" rx="57.69" ry="18"/>
<text text-anchor="middle" x="208" y="-101.3" font-family="Times,serif" font-size="14.00">युक्ताः(12.1)</text>
</g>
<!-- Node9_1 -->
<g id="node2" class="node">
<title>Node9_1</title>
<ellipse fill="#00bfff" stroke="#00bfff" cx="202" cy="-192" rx="46.29" ry="18"/>
<text text-anchor="middle" x="202" y="-188.3" font-family="Times,serif" font-size="14.00">वयम्(9.1)</text>
</g>
<!-- Node12_1&#45;&gt;Node9_1 -->
<g id="edge11" class="edge">
<title>Node12_1&#45;&gt;Node9_1</title>
<path fill="none" stroke="black" d="M206.08,-133.27C205.14,-146.58 204.03,-162.19 203.21,-173.82"/>
<polygon fill="black" stroke="black" points="209.57,-133.42 206.79,-123.2 202.59,-132.93 209.57,-133.42"/>
<text text-anchor="middle" x="228.5" y="-144.8" font-family="Times,serif" font-size="14.00">विशेषणम्</text>
</g>
<!-- Node15_1 -->
<g id="node13" class="node">
<title>Node15_1</title>
<ellipse fill="#ff1975" stroke="#ff1975" cx="147" cy="-279" rx="67.69" ry="18"/>
<text text-anchor="middle" x="147" y="-275.3" font-family="Times,serif" font-size="14.00">गमिष्यामः(15.1)</text>
</g>
<!-- Node9_1&#45;&gt;Node15_1 -->
<g id="edge8" class="edge">
<title>Node9_1&#45;&gt;Node15_1</title>
<path fill="none" stroke="black" d="M185.6,-218.34C176.7,-232.1 165.93,-248.74 158.03,-260.95"/>
<polygon fill="black" stroke="black" points="188.64,-220.09 191.13,-209.79 182.76,-216.29 188.64,-220.09"/>
<text text-anchor="middle" x="189" y="-231.8" font-family="Times,serif" font-size="14.00">कर्ता</text>
</g>
<!-- Node13_1 -->
<g id="node3" class="node">
<title>Node13_1</title>
<ellipse fill="#93db70" stroke="#93db70" cx="71" cy="-105" rx="48.99" ry="18"/>
<text text-anchor="middle" x="71" y="-101.3" font-family="Times,serif" font-size="14.00">परां(13.1)</text>
</g>
<!-- Node14_1 -->
<g id="node4" class="node">
<title>Node14_1</title>
<ellipse fill="#93db70" stroke="#93db70" cx="71" cy="-192" rx="55.49" ry="18"/>
<text text-anchor="middle" x="71" y="-188.3" font-family="Times,serif" font-size="14.00">गतिम्(14.1)</text>
</g>
<!-- Node13_1&#45;&gt;Node14_1 -->
<g id="edge12" class="edge">
<title>Node13_1&#45;&gt;Node14_1</title>
<path fill="none" stroke="black" d="M71,-133.27C71,-146.58 71,-162.19 71,-173.82"/>
<polygon fill="black" stroke="black" points="74.5,-133.2 71,-123.2 67.5,-133.2 74.5,-133.2"/>
<text text-anchor="middle" x="93.5" y="-144.8" font-family="Times,serif" font-size="14.00">विशेषणम्</text>
</g>
<!-- Node14_1&#45;&gt;Node15_1 -->
<g id="edge13" class="edge">
<title>Node14_1&#45;&gt;Node15_1</title>
<path fill="none" stroke="black" d="M92.33,-216.86C105.02,-231.05 120.79,-248.69 132.13,-261.37"/>
<polygon fill="black" stroke="black" points="94.93,-214.51 85.65,-209.39 89.71,-219.18 94.93,-214.51"/>
<text text-anchor="middle" x="123" y="-231.8" font-family="Times,serif" font-size="14.00">कर्म</text>
</g>
<!-- Node1_1 -->
<g id="node5" class="node">
<title>Node1_1</title>
<ellipse fill="#ff1975" stroke="#ff1975" cx="419" cy="-105" rx="46.29" ry="18"/>
<text text-anchor="middle" x="419" y="-101.3" font-family="Times,serif" font-size="14.00">गच्छ(1.1)</text>
</g>
<!-- Node2_1 -->
<g id="node6" class="node">
<title>Node2_1</title>
<ellipse fill="#6fffc3" stroke="#6fffc3" cx="407" cy="-18" rx="53.89" ry="18"/>
<text text-anchor="middle" x="407" y="-14.3" font-family="Times,serif" font-size="14.00">सञ्जय(2.1)</text>
</g>
<!-- Node2_1&#45;&gt;Node1_1 -->
<g id="edge1" class="edge">
<title>Node2_1&#45;&gt;Node1_1</title>
<path fill="none" stroke="black" d="M408.47,-46.42C409.07,-53.78 409.88,-61.71 411,-69 411.91,-74.91 413.26,-81.32 414.59,-87.01"/>
<polygon fill="black" stroke="black" points="411.95,-45.93 407.76,-36.2 404.97,-46.42 411.95,-45.93"/>
<text text-anchor="middle" x="432" y="-57.8" font-family="Times,serif" font-size="14.00">सम्बोध्यः</text>
</g>
<!-- Node3_1 -->
<g id="node7" class="node">
<title>Node3_1</title>
<ellipse fill="#ff99ff" stroke="#ff99ff" cx="537" cy="-105" rx="42.49" ry="18"/>
<text text-anchor="middle" x="537" y="-101.3" font-family="Times,serif" font-size="14.00">यत्र(3.1)</text>
</g>
<!-- Node7_1 -->
<g id="node8" class="node">
<title>Node7_1</title>
<ellipse fill="#ff1975" stroke="#ff1975" cx="701" cy="-192" rx="48.19" ry="18"/>
<text text-anchor="middle" x="701" y="-188.3" font-family="Times,serif" font-size="14.00">दहति(7.1)</text>
</g>
<!-- Node3_1&#45;&gt;Node7_1 -->
<g id="edge2" class="edge">
<title>Node3_1&#45;&gt;Node7_1</title>
<path fill="none" stroke="black" d="M562.51,-128.23C574.27,-137.69 588.75,-148.3 603,-156 622.07,-166.31 644.8,-174.65 663.56,-180.59"/>
<polygon fill="black" stroke="black" points="564.41,-125.26 554.47,-121.6 559.96,-130.66 564.41,-125.26"/>
<text text-anchor="middle" x="635" y="-144.8" font-family="Times,serif" font-size="14.00">देशाधिकरणम्</text>
</g>
<!-- Node4_1 -->
<g id="node9" class="node">
<title>Node4_1</title>
<ellipse fill="#00bfff" stroke="#00bfff" cx="648" cy="-105" rx="50.89" ry="18"/>
<text text-anchor="middle" x="648" y="-101.3" font-family="Times,serif" font-size="14.00">अग्निः(4.1)</text>
</g>
<!-- Node4_1&#45;&gt;Node7_1 -->
<g id="edge3" class="edge">
<title>Node4_1&#45;&gt;Node7_1</title>
<path fill="none" stroke="black" d="M663.84,-131.4C672.48,-145.26 682.93,-162.03 690.55,-174.24"/>
<polygon fill="black" stroke="black" points="666.73,-129.43 658.47,-122.79 660.79,-133.13 666.73,-129.43"/>
<text text-anchor="middle" x="688" y="-144.8" font-family="Times,serif" font-size="14.00">कर्ता</text>
</g>
<!-- Node5_1 -->
<g id="node10" class="node">
<title>Node5_1</title>
<ellipse fill="#ff99ff" stroke="#ff99ff" cx="754" cy="-105" rx="37.09" ry="18"/>
<text text-anchor="middle" x="754" y="-101.3" font-family="Times,serif" font-size="14.00">न(5.1)</text>
</g>
<!-- Node5_1&#45;&gt;Node7_1 -->
<g id="edge4" class="edge">
<title>Node5_1&#45;&gt;Node7_1</title>
<path fill="none" stroke="black" d="M738.38,-131.05C729.67,-145.02 719.06,-162.04 711.37,-174.37"/>
<polygon fill="black" stroke="black" points="741.46,-132.73 743.78,-122.39 735.52,-129.02 741.46,-132.73"/>
<text text-anchor="middle" x="749.5" y="-144.8" font-family="Times,serif" font-size="14.00">प्रतिषेधः</text>
</g>
<!-- Node6_1 -->
<g id="node11" class="node">
<title>Node6_1</title>
<ellipse fill="#93db70" stroke="#93db70" cx="851" cy="-105" rx="42.49" ry="18"/>
<text text-anchor="middle" x="851" y="-101.3" font-family="Times,serif" font-size="14.00">त्वां(6.1)</text>
</g>
<!-- Node6_1&#45;&gt;Node7_1 -->
<g id="edge5" class="edge">
<title>Node6_1&#45;&gt;Node7_1</title>
<path fill="none" stroke="black" d="M821.11,-126.33C806.79,-135.76 789.26,-146.88 773,-156 759.3,-163.68 743.67,-171.4 730.48,-177.63"/>
<polygon fill="black" stroke="black" points="823.18,-129.16 829.57,-120.71 819.3,-123.33 823.18,-129.16"/>
<text text-anchor="middle" x="806" y="-144.8" font-family="Times,serif" font-size="14.00">कर्म</text>
</g>
<!-- Node8_1 -->
<g id="node12" class="node">
<title>Node8_1</title>
<ellipse fill="#ff99ff" stroke="#ff99ff" cx="537" cy="-18" rx="57.69" ry="18"/>
<text text-anchor="middle" x="537" y="-14.3" font-family="Times,serif" font-size="14.00">कर्हिचित्(8.1)</text>
</g>
<!-- Node8_1&#45;&gt;Node1_1 -->
<g id="edge6" class="edge">
<title>Node8_1&#45;&gt;Node1_1</title>
<path fill="none" stroke="black" d="M506.84,-40.73C485.92,-55.79 458.59,-75.48 440.01,-88.87"/>
<polygon fill="black" stroke="black" points="509.01,-43.47 515.08,-34.79 504.92,-37.79 509.01,-43.47"/>
<text text-anchor="middle" x="504.5" y="-57.8" font-family="Times,serif" font-size="14.00">सम्बन्धः</text>
</g>
<!-- Node8_1&#45;&gt;Node3_1 -->
<g id="edge7" class="edge">
<title>Node8_1&#45;&gt;Node3_1</title>
<path fill="none" stroke="black" stroke-dasharray="1,5" d="M537,-46.27C537,-59.58 537,-75.19 537,-86.82"/>
<polygon fill="black" stroke="black" points="540.5,-46.2 537,-36.2 533.5,-46.2 540.5,-46.2"/>
<text text-anchor="middle" x="555.5" y="-57.8" font-family="Times,serif" font-size="14.00">सम्बन्धः</text>
</g>
<!-- Node10_1 -->
<g id="node14" class="node">
<title>Node10_1</title>
<ellipse fill="#ff99ff" stroke="#ff99ff" cx="143" cy="-18" rx="50.09" ry="18"/>
<text text-anchor="middle" x="143" y="-14.3" font-family="Times,serif" font-size="14.00">अत्र(10.1)</text>
</g>
<!-- Node10_1&#45;&gt;Node12_1 -->
<g id="edge9" class="edge">
<title>Node10_1&#45;&gt;Node12_1</title>
<path fill="none" stroke="black" d="M162.12,-44.01C172.78,-57.94 185.75,-74.91 195.18,-87.24"/>
<polygon fill="black" stroke="black" points="164.7,-41.61 155.84,-35.79 159.14,-45.86 164.7,-41.61"/>
<text text-anchor="middle" x="212" y="-57.8" font-family="Times,serif" font-size="14.00">देशाधिकरणम्</text>
</g>
<!-- Node11_1 -->
<g id="node15" class="node">
<title>Node11_1</title>
<ellipse fill="#40e0d0" stroke="#40e0d0" cx="273" cy="-18" rx="61.99" ry="18"/>
<text text-anchor="middle" x="273" y="-14.3" font-family="Times,serif" font-size="14.00">अग्निना(11.1)</text>
</g>
<!-- Node11_1&#45;&gt;Node12_1 -->
<g id="edge10" class="edge">
<title>Node11_1&#45;&gt;Node12_1</title>
<path fill="none" stroke="black" d="M262.14,-45.46C258.27,-53.41 253.48,-61.9 248,-69 242.7,-75.86 235.9,-82.41 229.41,-87.94"/>
<polygon fill="black" stroke="black" points="265.42,-46.71 266.4,-36.16 259.05,-43.79 265.42,-46.71"/>
<text text-anchor="middle" x="274.5" y="-57.8" font-family="Times,serif" font-size="14.00">करणम्</text>
</g>
</g>
</svg>
