<?xml version="1.0" encoding="UTF-8" standalone="no"?>
<!DOCTYPE svg PUBLIC "-//W3C//DTD SVG 1.1//EN"
 "http://www.w3.org/Graphics/SVG/1.1/DTD/svg11.dtd">
<!-- Generated by graphviz version 2.43.0 (0)
 -->
<!-- Title: G Pages: 1 -->
<svg width="1100pt" height="250pt"
 viewBox="0.00 0.00 1099.84 250.00" xmlns="http://www.w3.org/2000/svg" xmlns:xlink="http://www.w3.org/1999/xlink">
<g id="graph0" class="graph" transform="scale(1 1) rotate(0) translate(4 246)">
<title>G</title>
<polygon fill="#fffacd" stroke="transparent" points="-4,4 -4,-246 1095.84,-246 1095.84,4 -4,4"/>
<g id="clust1" class="cluster">
<title>cluster_1</title>
<polygon fill="#fffacd" stroke="black" points="8,-8 8,-147 230,-147 230,-8 8,-8"/>
</g>
<g id="clust2" class="cluster">
<title>cluster_2</title>
<polygon fill="#fffacd" stroke="black" points="562,-95 562,-234 682,-234 682,-95 562,-95"/>
</g>
<!-- Node8_1 -->
<g id="node1" class="node">
<title>Node8_1</title>
<ellipse fill="#00bfff" stroke="#00bfff" cx="182" cy="-34" rx="40.09" ry="18"/>
<text text-anchor="middle" x="182" y="-30.3" font-family="Times,serif" font-size="14.00">सः(8.1)</text>
</g>
<!-- Node6_1 -->
<g id="node2" class="node">
<title>Node6_1</title>
<ellipse fill="#00bfff" stroke="#00bfff" cx="175" cy="-121" rx="46.59" ry="18"/>
<text text-anchor="middle" x="175" y="-117.3" font-family="Times,serif" font-size="14.00">पिता(6.1)</text>
</g>
<!-- Node8_1&#45;&gt;Node6_1 -->
<g id="edge6" class="edge">
<title>Node8_1&#45;&gt;Node6_1</title>
<path fill="none" stroke="black" d="M179.75,-62.27C178.66,-75.58 177.37,-91.19 176.41,-102.82"/>
<polygon fill="black" stroke="black" points="183.25,-62.45 180.58,-52.2 176.27,-61.88 183.25,-62.45"/>
<text text-anchor="middle" x="201.5" y="-73.8" font-family="Times,serif" font-size="14.00">विशेषणम्</text>
</g>
<!-- Node3_1 -->
<g id="node7" class="node">
<title>Node3_1</title>
<ellipse fill="#ff1975" stroke="#ff1975" cx="334" cy="-208" rx="46.29" ry="18"/>
<text text-anchor="middle" x="334" y="-204.3" font-family="Times,serif" font-size="14.00">वर्तते(3.1)</text>
</g>
<!-- Node6_1&#45;&gt;Node3_1 -->
<g id="edge4" class="edge">
<title>Node6_1&#45;&gt;Node3_1</title>
<path fill="none" stroke="black" d="M207.72,-141.85C223.63,-151.28 243.14,-162.54 261,-172 275.41,-179.63 291.75,-187.53 305.31,-193.89"/>
<polygon fill="black" stroke="black" points="209.19,-138.65 198.81,-136.53 205.6,-144.66 209.19,-138.65"/>
<text text-anchor="middle" x="272" y="-160.8" font-family="Times,serif" font-size="14.00">कर्ता</text>
</g>
<!-- Node9_1 -->
<g id="node3" class="node">
<title>Node9_1</title>
<ellipse fill="#00bfff" stroke="#00bfff" cx="70" cy="-34" rx="53.89" ry="18"/>
<text text-anchor="middle" x="70" y="-30.3" font-family="Times,serif" font-size="14.00">पार्थिवः(9.1)</text>
</g>
<!-- Node9_1&#45;&gt;Node6_1 -->
<g id="edge7" class="edge">
<title>Node9_1&#45;&gt;Node6_1</title>
<path fill="none" stroke="black" d="M96.68,-57.56C107.02,-66.22 119,-76.14 130,-85 138.02,-91.46 146.95,-98.44 154.73,-104.46"/>
<polygon fill="black" stroke="black" points="98.69,-54.68 88.78,-50.93 94.19,-60.04 98.69,-54.68"/>
<text text-anchor="middle" x="152.5" y="-73.8" font-family="Times,serif" font-size="14.00">विशेषणम्</text>
</g>
<!-- Node14_1 -->
<g id="node4" class="node">
<title>Node14_1</title>
<ellipse fill="#00bfff" stroke="#00bfff" cx="622" cy="-121" rx="50.09" ry="18"/>
<text text-anchor="middle" x="622" y="-117.3" font-family="Times,serif" font-size="14.00">दृष्टः(14.1)</text>
</g>
<!-- Node16_1 -->
<g id="node5" class="node">
<title>Node16_1</title>
<ellipse fill="#00bfff" stroke="#00bfff" cx="622" cy="-208" rx="50.09" ry="18"/>
<text text-anchor="middle" x="622" y="-204.3" font-family="Times,serif" font-size="14.00">नृपः(16.1)</text>
</g>
<!-- Node14_1&#45;&gt;Node16_1 -->
<g id="edge11" class="edge">
<title>Node14_1&#45;&gt;Node16_1</title>
<path fill="none" stroke="black" d="M595.55,-145.62C592.89,-149.16 590.6,-152.98 589,-157 584.09,-169.37 592.34,-181.87 601.82,-191.28"/>
<polygon fill="black" stroke="black" points="598.33,-147.75 602.21,-137.9 593.03,-143.18 598.33,-147.75"/>
<text text-anchor="middle" x="611.5" y="-160.8" font-family="Times,serif" font-size="14.00">विशेषणम्</text>
</g>
<!-- Node16_1&#45;&gt;Node14_1 -->
<g id="edge13" class="edge">
<title>Node16_1&#45;&gt;Node14_1</title>
<path fill="none" stroke="black" d="M632.48,-180.32C634.31,-172.82 635.27,-164.63 634,-157 633.01,-151.04 631.13,-144.74 629.14,-139.15"/>
<polygon fill="black" stroke="black" points="629.09,-179.41 629.57,-190 635.8,-181.43 629.09,-179.41"/>
<text text-anchor="middle" x="643" y="-160.8" font-family="Times,serif" font-size="14.00">कर्म</text>
</g>
<!-- Node1_1 -->
<g id="node6" class="node">
<title>Node1_1</title>
<ellipse fill="#ff99ff" stroke="#ff99ff" cx="284" cy="-121" rx="44.39" ry="18"/>
<text text-anchor="middle" x="284" y="-117.3" font-family="Times,serif" font-size="14.00">कथं(1.1)</text>
</g>
<!-- Node1_1&#45;&gt;Node3_1 -->
<g id="edge1" class="edge">
<title>Node1_1&#45;&gt;Node3_1</title>
<path fill="none" stroke="black" d="M284.82,-149.29C285.97,-157.02 288.11,-165.17 292,-172 296.51,-179.92 303.54,-186.82 310.57,-192.35"/>
<polygon fill="black" stroke="black" points="288.28,-148.79 283.8,-139.2 281.32,-149.5 288.28,-148.79"/>
<text text-anchor="middle" x="327" y="-160.8" font-family="Times,serif" font-size="14.00">क्रियाविशेषणम्</text>
</g>
<!-- Node2_1 -->
<g id="node8" class="node">
<title>Node2_1</title>
<ellipse fill="#ff99ff" stroke="#ff99ff" cx="384" cy="-121" rx="37.89" ry="18"/>
<text text-anchor="middle" x="384" y="-117.3" font-family="Times,serif" font-size="14.00">च(2.1)</text>
</g>
<!-- Node2_1&#45;&gt;Node3_1 -->
<g id="edge2" class="edge">
<title>Node2_1&#45;&gt;Node3_1</title>
<path fill="none" stroke="black" d="M373.82,-148.6C370.45,-156.35 366.42,-164.7 362,-172 358.13,-178.39 353.22,-184.91 348.61,-190.56"/>
<polygon fill="black" stroke="black" points="377.12,-149.79 377.72,-139.21 370.65,-147.11 377.12,-149.79"/>
<text text-anchor="middle" x="388.5" y="-160.8" font-family="Times,serif" font-size="14.00">सम्बन्धः</text>
</g>
<!-- Node4_1 -->
<g id="node9" class="node">
<title>Node4_1</title>
<ellipse fill="#ff99ff" stroke="#ff99ff" cx="790" cy="-34" rx="37.89" ry="18"/>
<text text-anchor="middle" x="790" y="-30.3" font-family="Times,serif" font-size="14.00">च(4.1)</text>
</g>
<!-- Node5_1 -->
<g id="node10" class="node">
<title>Node5_1</title>
<ellipse fill="#ff99ff" stroke="#ff99ff" cx="483" cy="-121" rx="43.59" ry="18"/>
<text text-anchor="middle" x="483" y="-117.3" font-family="Times,serif" font-size="14.00">अद्य(5.1)</text>
</g>
<!-- Node5_1&#45;&gt;Node3_1 -->
<g id="edge3" class="edge">
<title>Node5_1&#45;&gt;Node3_1</title>
<path fill="none" stroke="black" d="M455.05,-143.17C442.02,-152.57 426.09,-163.43 411,-172 396.32,-180.34 379.29,-188.25 364.98,-194.44"/>
<polygon fill="black" stroke="black" points="457.15,-145.97 463.15,-137.24 453.02,-140.32 457.15,-145.97"/>
<text text-anchor="middle" x="469.5" y="-160.8" font-family="Times,serif" font-size="14.00">कालाधिकरणम्</text>
</g>
<!-- Node7_1 -->
<g id="node11" class="node">
<title>Node7_1</title>
<ellipse fill="#87ceeb" stroke="#87ceeb" cx="283" cy="-34" rx="42.49" ry="18"/>
<text text-anchor="middle" x="283" y="-30.3" font-family="Times,serif" font-size="14.00">मम(7.1)</text>
</g>
<!-- Node7_1&#45;&gt;Node6_1 -->
<g id="edge5" class="edge">
<title>Node7_1&#45;&gt;Node6_1</title>
<path fill="none" stroke="black" d="M259.25,-58.07C249.81,-66.84 238.67,-76.71 228,-85 218.77,-92.17 208.1,-99.41 198.76,-105.42"/>
<polygon fill="black" stroke="black" points="261.86,-60.42 266.73,-51.01 257.06,-55.32 261.86,-60.42"/>
<text text-anchor="middle" x="273.5" y="-73.8" font-family="Times,serif" font-size="14.00">षष्ठीसम्बन्धः</text>
</g>
<!-- Node10_1 -->
<g id="node12" class="node">
<title>Node10_1</title>
<ellipse fill="#ff99ff" stroke="#ff99ff" cx="902" cy="-34" rx="55.79" ry="18"/>
<text text-anchor="middle" x="902" y="-30.3" font-family="Times,serif" font-size="14.00">श्रोतुम्(10.1)</text>
</g>
<!-- Node11_1 -->
<g id="node13" class="node">
<title>Node11_1</title>
<ellipse fill="#ff1975" stroke="#ff1975" cx="968" cy="-121" rx="61.19" ry="18"/>
<text text-anchor="middle" x="968" y="-117.3" font-family="Times,serif" font-size="14.00">इच्छामि(11.1)</text>
</g>
<!-- Node10_1&#45;&gt;Node11_1 -->
<g id="edge8" class="edge">
<title>Node10_1&#45;&gt;Node11_1</title>
<path fill="none" stroke="black" d="M921.42,-60.01C932.24,-73.94 945.41,-90.91 954.99,-103.24"/>
<polygon fill="black" stroke="black" points="923.94,-57.55 915.04,-51.79 918.41,-61.84 923.94,-57.55"/>
<text text-anchor="middle" x="952.5" y="-73.8" font-family="Times,serif" font-size="14.00">इष्कर्म</text>
</g>
<!-- Node12_1 -->
<g id="node14" class="node">
<title>Node12_1</title>
<ellipse fill="#6fffc3" stroke="#6fffc3" cx="1034" cy="-34" rx="57.69" ry="18"/>
<text text-anchor="middle" x="1034" y="-30.3" font-family="Times,serif" font-size="14.00">भगवन्(12.1)</text>
</g>
<!-- Node12_1&#45;&gt;Node11_1 -->
<g id="edge9" class="edge">
<title>Node12_1&#45;&gt;Node11_1</title>
<path fill="none" stroke="black" d="M1014.58,-60.01C1003.76,-73.94 990.59,-90.91 981.01,-103.24"/>
<polygon fill="black" stroke="black" points="1017.59,-61.84 1020.96,-51.79 1012.06,-57.55 1017.59,-61.84"/>
<text text-anchor="middle" x="1028" y="-73.8" font-family="Times,serif" font-size="14.00">सम्बोधनम्</text>
</g>
<!-- Node13_1 -->
<g id="node15" class="node">
<title>Node13_1</title>
<ellipse fill="#ff99ff" stroke="#ff99ff" cx="561" cy="-34" rx="50.09" ry="18"/>
<text text-anchor="middle" x="561" y="-30.3" font-family="Times,serif" font-size="14.00">यदि(13.1)</text>
</g>
<!-- Node13_1&#45;&gt;Node14_1 -->
<g id="edge10" class="edge">
<title>Node13_1&#45;&gt;Node14_1</title>
<path fill="none" stroke="black" d="M564.56,-62.29C566.48,-70.09 569.44,-78.3 574,-85 579.57,-93.19 587.71,-100.15 595.72,-105.67"/>
<polygon fill="black" stroke="black" points="567.97,-61.53 562.58,-52.41 561.11,-62.9 567.97,-61.53"/>
<text text-anchor="middle" x="609" y="-73.8" font-family="Times,serif" font-size="14.00">क्रियाविशेषणम्</text>
</g>
<!-- Node15_1 -->
<g id="node16" class="node">
<title>Node15_1</title>
<ellipse fill="#40e0d0" stroke="#40e0d0" cx="682" cy="-34" rx="52.79" ry="18"/>
<text text-anchor="middle" x="682" y="-30.3" font-family="Times,serif" font-size="14.00">त्वया(15.1)</text>
</g>
<!-- Node15_1&#45;&gt;Node14_1 -->
<g id="edge12" class="edge">
<title>Node15_1&#45;&gt;Node14_1</title>
<path fill="none" stroke="black" d="M664.35,-60.01C654.51,-73.94 642.53,-90.91 633.83,-103.24"/>
<polygon fill="black" stroke="black" points="667.24,-61.98 670.15,-51.79 661.52,-57.94 667.24,-61.98"/>
<text text-anchor="middle" x="666" y="-73.8" font-family="Times,serif" font-size="14.00">कर्ता</text>
</g>
</g>
</svg>
