<?xml version="1.0" encoding="UTF-8" standalone="no"?>
<!DOCTYPE svg PUBLIC "-//W3C//DTD SVG 1.1//EN"
 "http://www.w3.org/Graphics/SVG/1.1/DTD/svg11.dtd">
<!-- Generated by graphviz version 2.43.0 (0)
 -->
<!-- Title: G Pages: 1 -->
<svg width="711pt" height="305pt"
 viewBox="0.00 0.00 711.00 305.00" xmlns="http://www.w3.org/2000/svg" xmlns:xlink="http://www.w3.org/1999/xlink">
<g id="graph0" class="graph" transform="scale(1 1) rotate(0) translate(4 301)">
<title>G</title>
<polygon fill="#fffacd" stroke="transparent" points="-4,4 -4,-301 707,-301 707,4 -4,4"/>
<g id="clust1" class="cluster">
<title>cluster_1</title>
<polygon fill="#fffacd" stroke="black" points="469,-79 469,-218 695,-218 695,-79 469,-79"/>
</g>
<g id="clust2" class="cluster">
<title>cluster_2</title>
<polygon fill="#fffacd" stroke="black" points="8,-79 8,-218 340,-218 340,-79 8,-79"/>
</g>
<!-- Node1_1 -->
<g id="node1" class="node">
<title>Node1_1</title>
<ellipse fill="#93db70" stroke="#93db70" cx="645" cy="-105" rx="42.49" ry="18"/>
<text text-anchor="middle" x="645" y="-101.3" font-family="Times,serif" font-size="14.00">तम्(1.1)</text>
</g>
<!-- Node6_1 -->
<g id="node2" class="node">
<title>Node6_1</title>
<ellipse fill="#93db70" stroke="#93db70" cx="532" cy="-192" rx="53.89" ry="18"/>
<text text-anchor="middle" x="532" y="-188.3" font-family="Times,serif" font-size="14.00">आसीनं(6.1)</text>
</g>
<!-- Node1_1&#45;&gt;Node6_1 -->
<g id="edge1" class="edge">
<title>Node1_1&#45;&gt;Node6_1</title>
<path fill="none" stroke="black" d="M617.49,-127.41C605.96,-136.32 592.38,-146.73 580,-156 571.42,-162.43 561.88,-169.41 553.59,-175.44"/>
<polygon fill="black" stroke="black" points="619.71,-130.12 625.47,-121.23 615.42,-124.58 619.71,-130.12"/>
<text text-anchor="middle" x="621.5" y="-144.8" font-family="Times,serif" font-size="14.00">विशेषणम्</text>
</g>
<!-- Node8_1 -->
<g id="node9" class="node">
<title>Node8_1</title>
<ellipse fill="#ff1975" stroke="#ff1975" cx="404" cy="-279" rx="51.99" ry="18"/>
<text text-anchor="middle" x="404" y="-275.3" font-family="Times,serif" font-size="14.00">प्रोवाच(8.1)</text>
</g>
<!-- Node6_1&#45;&gt;Node8_1 -->
<g id="edge8" class="edge">
<title>Node6_1&#45;&gt;Node8_1</title>
<path fill="none" stroke="black" d="M500.2,-214.12C477.48,-229.21 447.43,-249.16 427.01,-262.72"/>
<polygon fill="black" stroke="black" points="502.43,-216.84 508.82,-208.39 498.55,-211.01 502.43,-216.84"/>
<text text-anchor="middle" x="484" y="-231.8" font-family="Times,serif" font-size="14.00">कर्म</text>
</g>
<!-- Node7_2 -->
<g id="node3" class="node">
<title>Node7_2</title>
<ellipse fill="#93db70" stroke="#93db70" cx="531" cy="-105" rx="53.89" ry="18"/>
<text text-anchor="middle" x="531" y="-101.3" font-family="Times,serif" font-size="14.00">विश्वस्तं(7.2)</text>
</g>
<!-- Node7_2&#45;&gt;Node6_1 -->
<g id="edge10" class="edge">
<title>Node7_2&#45;&gt;Node6_1</title>
<path fill="none" stroke="black" d="M531.32,-133.27C531.48,-146.58 531.66,-162.19 531.8,-173.82"/>
<polygon fill="black" stroke="black" points="534.82,-133.16 531.2,-123.2 527.82,-133.24 534.82,-133.16"/>
<text text-anchor="middle" x="553.5" y="-144.8" font-family="Times,serif" font-size="14.00">विशेषणम्</text>
</g>
<!-- Node3_2 -->
<g id="node4" class="node">
<title>Node3_2</title>
<ellipse fill="#00bfff" stroke="#00bfff" cx="62" cy="-105" rx="46.29" ry="18"/>
<text text-anchor="middle" x="62" y="-101.3" font-family="Times,serif" font-size="14.00">बाहुः(3.2)</text>
</g>
<!-- Node5_1 -->
<g id="node5" class="node">
<title>Node5_1</title>
<ellipse fill="#00bfff" stroke="#00bfff" cx="228" cy="-192" rx="57.69" ry="18"/>
<text text-anchor="middle" x="228" y="-188.3" font-family="Times,serif" font-size="14.00">युधिष्ठिरः(5.1)</text>
</g>
<!-- Node3_2&#45;&gt;Node5_1 -->
<g id="edge4" class="edge">
<title>Node3_2&#45;&gt;Node5_1</title>
<path fill="none" stroke="black" d="M94.24,-125.92C110.18,-135.46 129.85,-146.79 148,-156 162.87,-163.55 179.73,-171.07 194.13,-177.2"/>
<polygon fill="black" stroke="black" points="95.69,-122.71 85.32,-120.53 92.08,-128.7 95.69,-122.71"/>
<text text-anchor="middle" x="170.5" y="-144.8" font-family="Times,serif" font-size="14.00">विशेषणम्</text>
</g>
<!-- Node5_1&#45;&gt;Node8_1 -->
<g id="edge7" class="edge">
<title>Node5_1&#45;&gt;Node8_1</title>
<path fill="none" stroke="black" d="M267.1,-211.88C299.7,-227.63 345.42,-249.71 374.88,-263.93"/>
<polygon fill="black" stroke="black" points="268.38,-208.62 257.86,-207.42 265.34,-214.92 268.38,-208.62"/>
<text text-anchor="middle" x="337" y="-231.8" font-family="Times,serif" font-size="14.00">कर्ता</text>
</g>
<!-- Node4_2 -->
<g id="node6" class="node">
<title>Node4_2</title>
<ellipse fill="#00bfff" stroke="#00bfff" cx="172" cy="-105" rx="46.29" ry="18"/>
<text text-anchor="middle" x="172" y="-101.3" font-family="Times,serif" font-size="14.00">राजा(4.2)</text>
</g>
<!-- Node4_2&#45;&gt;Node5_1 -->
<g id="edge6" class="edge">
<title>Node4_2&#45;&gt;Node5_1</title>
<path fill="none" stroke="black" d="M188.74,-131.4C197.86,-145.26 208.91,-162.03 216.96,-174.24"/>
<polygon fill="black" stroke="black" points="191.49,-129.22 183.06,-122.79 185.64,-133.07 191.49,-129.22"/>
<text text-anchor="middle" x="226.5" y="-144.8" font-family="Times,serif" font-size="14.00">विशेषणम्</text>
</g>
<!-- Node10_1 -->
<g id="node7" class="node">
<title>Node10_1</title>
<ellipse fill="#00bfff" stroke="#00bfff" cx="284" cy="-105" rx="48.19" ry="18"/>
<text text-anchor="middle" x="284" y="-101.3" font-family="Times,serif" font-size="14.00">वरः(10.1)</text>
</g>
<!-- Node10_1&#45;&gt;Node5_1 -->
<g id="edge12" class="edge">
<title>Node10_1&#45;&gt;Node5_1</title>
<path fill="none" stroke="black" d="M267.26,-131.4C258.14,-145.26 247.09,-162.03 239.04,-174.24"/>
<polygon fill="black" stroke="black" points="270.36,-133.07 272.94,-122.79 264.51,-129.22 270.36,-133.07"/>
<text text-anchor="middle" x="281.5" y="-144.8" font-family="Times,serif" font-size="14.00">विशेषणम्</text>
</g>
<!-- Node2_1 -->
<g id="node8" class="node">
<title>Node2_1</title>
<ellipse fill="#ff99ff" stroke="#ff99ff" cx="404" cy="-192" rx="55.79" ry="18"/>
<text text-anchor="middle" x="404" y="-188.3" font-family="Times,serif" font-size="14.00">अभ्यर्च्य(2.1)</text>
</g>
<!-- Node2_1&#45;&gt;Node8_1 -->
<g id="edge2" class="edge">
<title>Node2_1&#45;&gt;Node8_1</title>
<path fill="none" stroke="black" d="M404,-220.27C404,-233.58 404,-249.19 404,-260.82"/>
<polygon fill="black" stroke="black" points="407.5,-220.2 404,-210.2 400.5,-220.2 407.5,-220.2"/>
<text text-anchor="middle" x="424.5" y="-231.8" font-family="Times,serif" font-size="14.00">पूर्वकालः</text>
</g>
<!-- Node3_1 -->
<g id="node10" class="node">
<title>Node3_1</title>
<ellipse fill="#ffff00" stroke="#ffff00" cx="61" cy="-18" rx="46.59" ry="18"/>
<text text-anchor="middle" x="61" y="-14.3" font-family="Times,serif" font-size="14.00">महा&#45;(3.1)</text>
</g>
<!-- Node3_1&#45;&gt;Node3_2 -->
<g id="edge3" class="edge">
<title>Node3_1&#45;&gt;Node3_2</title>
<path fill="none" stroke="black" d="M61.32,-46.27C61.48,-59.58 61.66,-75.19 61.8,-86.82"/>
<polygon fill="black" stroke="black" points="64.82,-46.16 61.2,-36.2 57.82,-46.24 64.82,-46.16"/>
<text text-anchor="middle" x="79" y="-57.8" font-family="Times,serif" font-size="14.00">समासः</text>
</g>
<!-- Node4_1 -->
<g id="node11" class="node">
<title>Node4_1</title>
<ellipse fill="#ffff00" stroke="#ffff00" cx="172" cy="-18" rx="46.29" ry="18"/>
<text text-anchor="middle" x="172" y="-14.3" font-family="Times,serif" font-size="14.00">कुरु&#45;(4.1)</text>
</g>
<!-- Node4_1&#45;&gt;Node4_2 -->
<g id="edge5" class="edge">
<title>Node4_1&#45;&gt;Node4_2</title>
<path fill="none" stroke="black" d="M172,-46.27C172,-59.58 172,-75.19 172,-86.82"/>
<polygon fill="black" stroke="black" points="175.5,-46.2 172,-36.2 168.5,-46.2 175.5,-46.2"/>
<text text-anchor="middle" x="189" y="-57.8" font-family="Times,serif" font-size="14.00">समासः</text>
</g>
<!-- Node7_1 -->
<g id="node12" class="node">
<title>Node7_1</title>
<ellipse fill="#ffff00" stroke="#ffff00" cx="531" cy="-18" rx="46.29" ry="18"/>
<text text-anchor="middle" x="531" y="-14.3" font-family="Times,serif" font-size="14.00">परि&#45;(7.1)</text>
</g>
<!-- Node7_1&#45;&gt;Node7_2 -->
<g id="edge9" class="edge">
<title>Node7_1&#45;&gt;Node7_2</title>
<path fill="none" stroke="black" d="M531,-46.27C531,-59.58 531,-75.19 531,-86.82"/>
<polygon fill="black" stroke="black" points="534.5,-46.2 531,-36.2 527.5,-46.2 534.5,-46.2"/>
<text text-anchor="middle" x="548" y="-57.8" font-family="Times,serif" font-size="14.00">समासः</text>
</g>
<!-- Node9_1 -->
<g id="node13" class="node">
<title>Node9_1</title>
<ellipse fill="#87ceeb" stroke="#87ceeb" cx="284" cy="-18" rx="48.19" ry="18"/>
<text text-anchor="middle" x="284" y="-14.3" font-family="Times,serif" font-size="14.00">वदतां(9.1)</text>
</g>
<!-- Node9_1&#45;&gt;Node10_1 -->
<g id="edge11" class="edge">
<title>Node9_1&#45;&gt;Node10_1</title>
<path fill="none" stroke="black" d="M284,-46.27C284,-59.58 284,-75.19 284,-86.82"/>
<polygon fill="black" stroke="black" points="287.5,-46.2 284,-36.2 280.5,-46.2 287.5,-46.2"/>
<text text-anchor="middle" x="307" y="-57.8" font-family="Times,serif" font-size="14.00">निर्धारणम्</text>
</g>
</g>
</svg>
