<?xml version="1.0" encoding="UTF-8" standalone="no"?>
<!DOCTYPE svg PUBLIC "-//W3C//DTD SVG 1.1//EN"
 "http://www.w3.org/Graphics/SVG/1.1/DTD/svg11.dtd">
<!-- Generated by graphviz version 2.43.0 (0)
 -->
<!-- Title: G Pages: 1 -->
<svg width="957pt" height="234pt"
 viewBox="0.00 0.00 956.65 234.00" xmlns="http://www.w3.org/2000/svg" xmlns:xlink="http://www.w3.org/1999/xlink">
<g id="graph0" class="graph" transform="scale(1 1) rotate(0) translate(4 230)">
<title>G</title>
<polygon fill="#fffacd" stroke="transparent" points="-4,4 -4,-230 952.65,-230 952.65,4 -4,4"/>
<g id="clust1" class="cluster">
<title>cluster_1</title>
<polygon fill="#fffacd" stroke="black" points="8,-8 8,-147 140,-147 140,-8 8,-8"/>
</g>
<!-- Node11_1 -->
<g id="node1" class="node">
<title>Node11_1</title>
<ellipse fill="#00bfff" stroke="#00bfff" cx="74" cy="-34" rx="57.69" ry="18"/>
<text text-anchor="middle" x="74" y="-30.3" font-family="Times,serif" font-size="14.00">मेधावी(11.1)</text>
</g>
<!-- Node2_1 -->
<g id="node2" class="node">
<title>Node2_1</title>
<ellipse fill="#00bfff" stroke="#00bfff" cx="75" cy="-121" rx="55.79" ry="18"/>
<text text-anchor="middle" x="75" y="-117.3" font-family="Times,serif" font-size="14.00">सञ्जयः(2.1)</text>
</g>
<!-- Node11_1&#45;&gt;Node2_1 -->
<g id="edge9" class="edge">
<title>Node11_1&#45;&gt;Node2_1</title>
<path fill="none" stroke="black" d="M74.32,-62.27C74.48,-75.58 74.66,-91.19 74.8,-102.82"/>
<polygon fill="black" stroke="black" points="77.82,-62.16 74.2,-52.2 70.82,-62.24 77.82,-62.16"/>
<text text-anchor="middle" x="97.5" y="-73.8" font-family="Times,serif" font-size="14.00">विशेषणम्</text>
</g>
<!-- Node8_1 -->
<g id="node5" class="node">
<title>Node8_1</title>
<ellipse fill="#ff1975" stroke="#ff1975" cx="247" cy="-208" rx="55.79" ry="18"/>
<text text-anchor="middle" x="247" y="-204.3" font-family="Times,serif" font-size="14.00">अकरोत्(8.1)</text>
</g>
<!-- Node2_1&#45;&gt;Node8_1 -->
<g id="edge2" class="edge">
<title>Node2_1&#45;&gt;Node8_1</title>
<path fill="none" stroke="black" d="M113.53,-141.04C145.05,-156.62 188.97,-178.32 217.68,-192.51"/>
<polygon fill="black" stroke="black" points="114.69,-137.71 104.18,-136.42 111.59,-143.99 114.69,-137.71"/>
<text text-anchor="middle" x="183" y="-160.8" font-family="Times,serif" font-size="14.00">कर्ता</text>
</g>
<!-- Node1_1 -->
<g id="node3" class="node">
<title>Node1_1</title>
<ellipse fill="#6fffc3" stroke="#6fffc3" cx="512" cy="-34" rx="45.49" ry="18"/>
<text text-anchor="middle" x="512" y="-30.3" font-family="Times,serif" font-size="14.00">प्रभो(1.1)</text>
</g>
<!-- Node12_1 -->
<g id="node4" class="node">
<title>Node12_1</title>
<ellipse fill="#ff1975" stroke="#ff1975" cx="641" cy="-121" rx="57.39" ry="18"/>
<text text-anchor="middle" x="641" y="-117.3" font-family="Times,serif" font-size="14.00">युङ्क्ष्व(12.1)</text>
</g>
<!-- Node1_1&#45;&gt;Node12_1 -->
<g id="edge1" class="edge">
<title>Node1_1&#45;&gt;Node12_1</title>
<path fill="none" stroke="black" d="M542.83,-55.31C565.74,-70.41 596.53,-90.7 617.48,-104.5"/>
<polygon fill="black" stroke="black" points="544.75,-52.39 534.47,-49.81 540.89,-58.23 544.75,-52.39"/>
<text text-anchor="middle" x="606" y="-73.8" font-family="Times,serif" font-size="14.00">सम्बोध्यः</text>
</g>
<!-- Node3_1 -->
<g id="node6" class="node">
<title>Node3_1</title>
<ellipse fill="#93db70" stroke="#93db70" cx="192" cy="-34" rx="42.49" ry="18"/>
<text text-anchor="middle" x="192" y="-30.3" font-family="Times,serif" font-size="14.00">तम्(3.1)</text>
</g>
<!-- Node5_1 -->
<g id="node7" class="node">
<title>Node5_1</title>
<ellipse fill="#ff99ff" stroke="#ff99ff" cx="247" cy="-121" rx="48.19" ry="18"/>
<text text-anchor="middle" x="247" y="-117.3" font-family="Times,serif" font-size="14.00">दृष्ट्वा(5.1)</text>
</g>
<!-- Node3_1&#45;&gt;Node5_1 -->
<g id="edge3" class="edge">
<title>Node3_1&#45;&gt;Node5_1</title>
<path fill="none" stroke="black" d="M208.44,-60.4C217.4,-74.26 228.25,-91.03 236.16,-103.24"/>
<polygon fill="black" stroke="black" points="211.24,-58.29 202.87,-51.79 205.36,-62.09 211.24,-58.29"/>
<text text-anchor="middle" x="232" y="-73.8" font-family="Times,serif" font-size="14.00">कर्म</text>
</g>
<!-- Node5_1&#45;&gt;Node8_1 -->
<g id="edge5" class="edge">
<title>Node5_1&#45;&gt;Node8_1</title>
<path fill="none" stroke="black" d="M247,-149.27C247,-162.58 247,-178.19 247,-189.82"/>
<polygon fill="black" stroke="black" points="250.5,-149.2 247,-139.2 243.5,-149.2 250.5,-149.2"/>
<text text-anchor="middle" x="267.5" y="-160.8" font-family="Times,serif" font-size="14.00">पूर्वकालः</text>
</g>
<!-- Node4_1 -->
<g id="node8" class="node">
<title>Node4_1</title>
<ellipse fill="#ff99ff" stroke="#ff99ff" cx="297" cy="-34" rx="44.69" ry="18"/>
<text text-anchor="middle" x="297" y="-30.3" font-family="Times,serif" font-size="14.00">तथा(4.1)</text>
</g>
<!-- Node4_1&#45;&gt;Node5_1 -->
<g id="edge4" class="edge">
<title>Node4_1&#45;&gt;Node5_1</title>
<path fill="none" stroke="black" d="M281.82,-60.8C273.72,-74.58 263.97,-91.14 256.86,-103.24"/>
<polygon fill="black" stroke="black" points="285.07,-62.19 287.12,-51.79 279.03,-58.64 285.07,-62.19"/>
<text text-anchor="middle" x="310" y="-73.8" font-family="Times,serif" font-size="14.00">क्रियाविशेषणम्</text>
</g>
<!-- Node6_1 -->
<g id="node9" class="node">
<title>Node6_1</title>
<ellipse fill="#ff99ff" stroke="#ff99ff" cx="404" cy="-34" rx="44.39" ry="18"/>
<text text-anchor="middle" x="404" y="-30.3" font-family="Times,serif" font-size="14.00">अथ(6.1)</text>
</g>
<!-- Node6_1&#45;&gt;Node5_1 -->
<g id="edge6" class="edge">
<title>Node6_1&#45;&gt;Node5_1</title>
<path fill="none" stroke="black" d="M382.37,-58.47C372.85,-67.73 361.09,-77.85 349,-85 337.64,-91.72 307.85,-101.66 283.38,-109.23"/>
<polygon fill="black" stroke="black" points="384.93,-60.86 389.49,-51.3 379.96,-55.93 384.93,-60.86"/>
<text text-anchor="middle" x="387.5" y="-73.8" font-family="Times,serif" font-size="14.00">सम्बन्धः</text>
</g>
<!-- Node7_1 -->
<g id="node10" class="node">
<title>Node7_1</title>
<ellipse fill="#93db70" stroke="#93db70" cx="375" cy="-121" rx="61.99" ry="18"/>
<text text-anchor="middle" x="375" y="-117.3" font-family="Times,serif" font-size="14.00">प्रदक्षिणम्(7.1)</text>
</g>
<!-- Node7_1&#45;&gt;Node8_1 -->
<g id="edge7" class="edge">
<title>Node7_1&#45;&gt;Node8_1</title>
<path fill="none" stroke="black" d="M342.64,-143.49C320.07,-158.48 290.47,-178.13 270.22,-191.58"/>
<polygon fill="black" stroke="black" points="344.83,-146.24 351.22,-137.79 340.96,-140.4 344.83,-146.24"/>
<text text-anchor="middle" x="328" y="-160.8" font-family="Times,serif" font-size="14.00">कर्म</text>
</g>
<!-- Node9_1 -->
<g id="node11" class="node">
<title>Node9_1</title>
<ellipse fill="#ff1975" stroke="#ff1975" cx="862" cy="-121" rx="48.99" ry="18"/>
<text text-anchor="middle" x="862" y="-117.3" font-family="Times,serif" font-size="14.00">उवाच(9.1)</text>
</g>
<!-- Node10_1 -->
<g id="node12" class="node">
<title>Node10_1</title>
<ellipse fill="#93db70" stroke="#93db70" cx="896" cy="-34" rx="52.79" ry="18"/>
<text text-anchor="middle" x="896" y="-30.3" font-family="Times,serif" font-size="14.00">एनम्(10.1)</text>
</g>
<!-- Node10_1&#45;&gt;Node9_1 -->
<g id="edge8" class="edge">
<title>Node10_1&#45;&gt;Node9_1</title>
<path fill="none" stroke="black" d="M885.38,-61.54C879.95,-75.12 873.5,-91.24 868.75,-103.11"/>
<polygon fill="black" stroke="black" points="888.66,-62.79 889.12,-52.2 882.16,-60.19 888.66,-62.79"/>
<text text-anchor="middle" x="890" y="-73.8" font-family="Times,serif" font-size="14.00">कर्म</text>
</g>
<!-- Node13_1 -->
<g id="node13" class="node">
<title>Node13_1</title>
<ellipse fill="#93db70" stroke="#93db70" cx="641" cy="-34" rx="65.79" ry="18"/>
<text text-anchor="middle" x="641" y="-30.3" font-family="Times,serif" font-size="14.00">आत्मानम्(13.1)</text>
</g>
<!-- Node13_1&#45;&gt;Node12_1 -->
<g id="edge10" class="edge">
<title>Node13_1&#45;&gt;Node12_1</title>
<path fill="none" stroke="black" d="M641,-62.27C641,-75.58 641,-91.19 641,-102.82"/>
<polygon fill="black" stroke="black" points="644.5,-62.2 641,-52.2 637.5,-62.2 644.5,-62.2"/>
<text text-anchor="middle" x="650" y="-73.8" font-family="Times,serif" font-size="14.00">कर्म</text>
</g>
<!-- Node14_1 -->
<g id="node14" class="node">
<title>Node14_1</title>
<ellipse fill="#ff99ff" stroke="#ff99ff" cx="775" cy="-34" rx="50.09" ry="18"/>
<text text-anchor="middle" x="775" y="-30.3" font-family="Times,serif" font-size="14.00">इति(14.1)</text>
</g>
<!-- Node14_1&#45;&gt;Node12_1 -->
<g id="edge11" class="edge">
<title>Node14_1&#45;&gt;Node12_1</title>
<path fill="none" stroke="black" d="M742.66,-55.51C718.85,-70.62 686.98,-90.83 665.32,-104.58"/>
<polygon fill="black" stroke="black" points="744.78,-58.31 751.35,-50 741.03,-52.4 744.78,-58.31"/>
<text text-anchor="middle" x="734.5" y="-73.8" font-family="Times,serif" font-size="14.00">सम्बन्धः</text>
</g>
<!-- Node14_1&#45;&gt;Node9_1 -->
<g id="edge12" class="edge">
<title>Node14_1&#45;&gt;Node9_1</title>
<path fill="none" stroke="black" stroke-dasharray="1,5" d="M799.12,-58.56C813.91,-73.02 832.46,-91.14 845.57,-103.95"/>
<polygon fill="black" stroke="black" points="801.37,-55.87 791.77,-51.39 796.48,-60.88 801.37,-55.87"/>
<text text-anchor="middle" x="844.5" y="-73.8" font-family="Times,serif" font-size="14.00">वाक्यकर्म</text>
</g>
</g>
</svg>
