<?xml version="1.0" encoding="UTF-8" standalone="no"?>
<!DOCTYPE svg PUBLIC "-//W3C//DTD SVG 1.1//EN"
 "http://www.w3.org/Graphics/SVG/1.1/DTD/svg11.dtd">
<!-- Generated by graphviz version 2.43.0 (0)
 -->
<!-- Title: G Pages: 1 -->
<svg width="886pt" height="408pt"
 viewBox="0.00 0.00 886.14 408.00" xmlns="http://www.w3.org/2000/svg" xmlns:xlink="http://www.w3.org/1999/xlink">
<g id="graph0" class="graph" transform="scale(1 1) rotate(0) translate(4 404)">
<title>G</title>
<polygon fill="#fffacd" stroke="transparent" points="-4,4 -4,-404 882.14,-404 882.14,4 -4,4"/>
<g id="clust1" class="cluster">
<title>cluster_1</title>
<polygon fill="#fffacd" stroke="black" points="335.35,-95 335.35,-321 673.35,-321 673.35,-95 335.35,-95"/>
</g>
<g id="clust2" class="cluster">
<title>cluster_2</title>
<polygon fill="#fffacd" stroke="black" points="356.35,-8 356.35,-60 446.35,-60 446.35,-8 356.35,-8"/>
</g>
<!-- Node2_1 -->
<g id="node1" class="node">
<title>Node2_1</title>
<ellipse fill="#00bfff" stroke="#00bfff" cx="625.35" cy="-208" rx="40.09" ry="18"/>
<text text-anchor="middle" x="625.35" y="-204.3" font-family="Times,serif" font-size="14.00">सः(2.1)</text>
</g>
<!-- Node4_2 -->
<g id="node2" class="node">
<title>Node4_2</title>
<ellipse fill="#00bfff" stroke="#00bfff" cx="399.35" cy="-295" rx="46.29" ry="18"/>
<text text-anchor="middle" x="399.35" y="-291.3" font-family="Times,serif" font-size="14.00">राजः(4.2)</text>
</g>
<!-- Node2_1&#45;&gt;Node4_2 -->
<g id="edge3" class="edge">
<title>Node2_1&#45;&gt;Node4_2</title>
<path fill="none" stroke="black" d="M595.08,-228.88C578.56,-239.04 557.43,-250.92 537.35,-259 505.82,-271.69 468.35,-280.84 440.41,-286.6"/>
<polygon fill="black" stroke="black" points="597.13,-231.73 603.75,-223.46 593.42,-225.8 597.13,-231.73"/>
<text text-anchor="middle" x="589.85" y="-247.8" font-family="Times,serif" font-size="14.00">विशेषणम्</text>
</g>
<!-- Node12_1 -->
<g id="node10" class="node">
<title>Node12_1</title>
<ellipse fill="#00bfff" stroke="#00bfff" cx="174.35" cy="-382" rx="55.79" ry="18"/>
<text text-anchor="middle" x="174.35" y="-378.3" font-family="Times,serif" font-size="14.00">प्राप्तः(12.1)</text>
</g>
<!-- Node4_2&#45;&gt;Node12_1 -->
<g id="edge7" class="edge">
<title>Node4_2&#45;&gt;Node12_1</title>
<path fill="none" stroke="black" d="M357.56,-311.79C314.8,-327.94 249.12,-352.75 209.11,-367.87"/>
<polygon fill="black" stroke="black" points="358.99,-314.99 367.11,-308.18 356.52,-308.44 358.99,-314.99"/>
<text text-anchor="middle" x="311.35" y="-334.8" font-family="Times,serif" font-size="14.00">कर्ता</text>
</g>
<!-- Node3_2 -->
<g id="node3" class="node">
<title>Node3_2</title>
<ellipse fill="#00bfff" stroke="#00bfff" cx="520.35" cy="-208" rx="46.59" ry="18"/>
<text text-anchor="middle" x="520.35" y="-204.3" font-family="Times,serif" font-size="14.00">मनाः(3.2)</text>
</g>
<!-- Node3_2&#45;&gt;Node4_2 -->
<g id="edge5" class="edge">
<title>Node3_2&#45;&gt;Node4_2</title>
<path fill="none" stroke="black" d="M500.17,-232.84C491.84,-241.76 481.72,-251.53 471.35,-259 458.94,-267.93 443.9,-275.65 430.78,-281.55"/>
<polygon fill="black" stroke="black" points="502.87,-235.06 506.98,-225.29 497.68,-230.37 502.87,-235.06"/>
<text text-anchor="middle" x="510.85" y="-247.8" font-family="Times,serif" font-size="14.00">विशेषणम्</text>
</g>
<!-- Node5_1 -->
<g id="node4" class="node">
<title>Node5_1</title>
<ellipse fill="#00bfff" stroke="#00bfff" cx="399.35" cy="-208" rx="55.79" ry="18"/>
<text text-anchor="middle" x="399.35" y="-204.3" font-family="Times,serif" font-size="14.00">गान्धारी(5.1)</text>
</g>
<!-- Node5_1&#45;&gt;Node4_2 -->
<g id="edge8" class="edge">
<title>Node5_1&#45;&gt;Node4_2</title>
<path fill="none" stroke="black" d="M399.35,-236.27C399.35,-249.58 399.35,-265.19 399.35,-276.82"/>
<polygon fill="black" stroke="black" points="402.85,-236.2 399.35,-226.2 395.85,-236.2 402.85,-236.2"/>
<text text-anchor="middle" x="433.35" y="-247.8" font-family="Times,serif" font-size="14.00">सुप्_समुच्चितः</text>
</g>
<!-- Node7_1 -->
<g id="node5" class="node">
<title>Node7_1</title>
<ellipse fill="#00bfff" stroke="#00bfff" cx="522.35" cy="-121" rx="44.69" ry="18"/>
<text text-anchor="middle" x="522.35" y="-117.3" font-family="Times,serif" font-size="14.00">पृथा(7.1)</text>
</g>
<!-- Node7_1&#45;&gt;Node5_1 -->
<g id="edge10" class="edge">
<title>Node7_1&#45;&gt;Node5_1</title>
<path fill="none" stroke="black" d="M492.14,-142.88C470.49,-157.83 441.8,-177.66 422.08,-191.29"/>
<polygon fill="black" stroke="black" points="494.4,-145.57 500.64,-137 490.42,-139.81 494.4,-145.57"/>
<text text-anchor="middle" x="501.35" y="-160.8" font-family="Times,serif" font-size="14.00">सुप्_समुच्चितः</text>
</g>
<!-- Node10_1 -->
<g id="node6" class="node">
<title>Node10_1</title>
<ellipse fill="#00bfff" stroke="#00bfff" cx="401.35" cy="-121" rx="58.49" ry="18"/>
<text text-anchor="middle" x="401.35" y="-117.3" font-family="Times,serif" font-size="14.00">जनन्यौ(10.1)</text>
</g>
<!-- Node10_1&#45;&gt;Node5_1 -->
<g id="edge13" class="edge">
<title>Node10_1&#45;&gt;Node5_1</title>
<path fill="none" stroke="black" d="M400.7,-149.27C400.39,-162.58 400.02,-178.19 399.75,-189.82"/>
<polygon fill="black" stroke="black" points="404.2,-149.28 400.94,-139.2 397.21,-149.12 404.2,-149.28"/>
<text text-anchor="middle" x="422.85" y="-160.8" font-family="Times,serif" font-size="14.00">विशेषणम्</text>
</g>
<!-- Node9_1 -->
<g id="node7" class="node">
<title>Node9_1</title>
<ellipse fill="#00bfff" stroke="#00bfff" cx="401.35" cy="-34" rx="37.09" ry="18"/>
<text text-anchor="middle" x="401.35" y="-30.3" font-family="Times,serif" font-size="14.00">ते(9.1)</text>
</g>
<!-- Node9_1&#45;&gt;Node10_1 -->
<g id="edge12" class="edge">
<title>Node9_1&#45;&gt;Node10_1</title>
<path fill="none" stroke="black" d="M401.35,-62.27C401.35,-75.58 401.35,-91.19 401.35,-102.82"/>
<polygon fill="black" stroke="black" points="404.85,-62.2 401.35,-52.2 397.85,-62.2 404.85,-62.2"/>
<text text-anchor="middle" x="423.85" y="-73.8" font-family="Times,serif" font-size="14.00">विशेषणम्</text>
</g>
<!-- Node1_1 -->
<g id="node8" class="node">
<title>Node1_1</title>
<ellipse fill="#ffff00" stroke="#ffff00" cx="51.35" cy="-208" rx="43.59" ry="18"/>
<text text-anchor="middle" x="51.35" y="-204.3" font-family="Times,serif" font-size="14.00">नर&#45;(1.1)</text>
</g>
<!-- Node1_2 -->
<g id="node9" class="node">
<title>Node1_2</title>
<ellipse fill="#6fffc3" stroke="#6fffc3" cx="51.35" cy="-295" rx="51.19" ry="18"/>
<text text-anchor="middle" x="51.35" y="-291.3" font-family="Times,serif" font-size="14.00">अधिप(1.2)</text>
</g>
<!-- Node1_1&#45;&gt;Node1_2 -->
<g id="edge1" class="edge">
<title>Node1_1&#45;&gt;Node1_2</title>
<path fill="none" stroke="black" d="M51.35,-236.27C51.35,-249.58 51.35,-265.19 51.35,-276.82"/>
<polygon fill="black" stroke="black" points="54.85,-236.2 51.35,-226.2 47.85,-236.2 54.85,-236.2"/>
<text text-anchor="middle" x="68.35" y="-247.8" font-family="Times,serif" font-size="14.00">समासः</text>
</g>
<!-- Node1_2&#45;&gt;Node12_1 -->
<g id="edge2" class="edge">
<title>Node1_2&#45;&gt;Node12_1</title>
<path fill="none" stroke="black" d="M81.85,-317.08C103.54,-332.07 132.19,-351.87 151.82,-365.43"/>
<polygon fill="black" stroke="black" points="83.84,-314.2 73.62,-311.39 79.86,-319.96 83.84,-314.2"/>
<text text-anchor="middle" x="141.35" y="-334.8" font-family="Times,serif" font-size="14.00">सम्बोध्यः</text>
</g>
<!-- Node3_1 -->
<g id="node11" class="node">
<title>Node3_1</title>
<ellipse fill="#ffff00" stroke="#ffff00" cx="831.35" cy="-121" rx="46.59" ry="18"/>
<text text-anchor="middle" x="831.35" y="-117.3" font-family="Times,serif" font-size="14.00">महा&#45;(3.1)</text>
</g>
<!-- Node3_1&#45;&gt;Node3_2 -->
<g id="edge4" class="edge">
<title>Node3_1&#45;&gt;Node3_2</title>
<path fill="none" stroke="black" d="M825.44,-148.89C822.16,-157.64 817.1,-166.5 809.35,-172 766.98,-202.03 627.38,-180.4 576.35,-190 569.06,-191.37 561.37,-193.34 554.11,-195.46"/>
<polygon fill="black" stroke="black" points="828.81,-149.84 828.44,-139.25 822.13,-147.76 828.81,-149.84"/>
<text text-anchor="middle" x="838.35" y="-160.8" font-family="Times,serif" font-size="14.00">समासः</text>
</g>
<!-- Node4_1 -->
<g id="node12" class="node">
<title>Node4_1</title>
<ellipse fill="#ffff00" stroke="#ffff00" cx="279.35" cy="-208" rx="46.29" ry="18"/>
<text text-anchor="middle" x="279.35" y="-204.3" font-family="Times,serif" font-size="14.00">कुरु&#45;(4.1)</text>
</g>
<!-- Node4_1&#45;&gt;Node4_2 -->
<g id="edge6" class="edge">
<title>Node4_1&#45;&gt;Node4_2</title>
<path fill="none" stroke="black" d="M308.93,-229.95C330.33,-245.11 358.75,-265.25 377.98,-278.86"/>
<polygon fill="black" stroke="black" points="310.71,-226.92 300.52,-224 306.66,-232.64 310.71,-226.92"/>
<text text-anchor="middle" x="363.35" y="-247.8" font-family="Times,serif" font-size="14.00">समासः</text>
</g>
<!-- Node6_1 -->
<g id="node13" class="node">
<title>Node6_1</title>
<ellipse fill="#ff99ff" stroke="#ff99ff" cx="719.35" cy="-121" rx="37.89" ry="18"/>
<text text-anchor="middle" x="719.35" y="-117.3" font-family="Times,serif" font-size="14.00">च(6.1)</text>
</g>
<!-- Node6_1&#45;&gt;Node5_1 -->
<g id="edge9" class="edge">
<title>Node6_1&#45;&gt;Node5_1</title>
<path fill="none" stroke="black" d="M682.35,-137.32C680.67,-137.91 678.99,-138.47 677.35,-139 584.64,-168.68 558.77,-166.35 464.35,-190 456.88,-191.87 448.94,-193.91 441.27,-195.9"/>
<polygon fill="black" stroke="black" points="683.84,-140.51 692,-133.75 681.41,-133.94 683.84,-140.51"/>
<text text-anchor="middle" x="661.35" y="-160.8" font-family="Times,serif" font-size="14.00">सुप्_समुच्चय_द्योतकः</text>
</g>
<!-- Node8_1 -->
<g id="node14" class="node">
<title>Node8_1</title>
<ellipse fill="#ff99ff" stroke="#ff99ff" cx="522.35" cy="-34" rx="42.49" ry="18"/>
<text text-anchor="middle" x="522.35" y="-30.3" font-family="Times,serif" font-size="14.00">चैव(8.1)</text>
</g>
<!-- Node8_1&#45;&gt;Node7_1 -->
<g id="edge11" class="edge">
<title>Node8_1&#45;&gt;Node7_1</title>
<path fill="none" stroke="black" d="M522.35,-62.27C522.35,-75.58 522.35,-91.19 522.35,-102.82"/>
<polygon fill="black" stroke="black" points="525.85,-62.2 522.35,-52.2 518.85,-62.2 525.85,-62.2"/>
<text text-anchor="middle" x="572.35" y="-73.8" font-family="Times,serif" font-size="14.00">सुप्_समुच्चय_द्योतकः</text>
</g>
<!-- Node11_1 -->
<g id="node15" class="node">
<title>Node11_1</title>
<ellipse fill="#ffff00" stroke="#ffff00" cx="167.35" cy="-208" rx="48.19" ry="18"/>
<text text-anchor="middle" x="167.35" y="-204.3" font-family="Times,serif" font-size="14.00">नि&#45;(11.1)</text>
</g>
<!-- Node11_2 -->
<g id="node16" class="node">
<title>Node11_2</title>
<ellipse fill="#93db70" stroke="#93db70" cx="174.35" cy="-295" rx="53.09" ry="18"/>
<text text-anchor="middle" x="174.35" y="-291.3" font-family="Times,serif" font-size="14.00">धनम्(11.2)</text>
</g>
<!-- Node11_1&#45;&gt;Node11_2 -->
<g id="edge14" class="edge">
<title>Node11_1&#45;&gt;Node11_2</title>
<path fill="none" stroke="black" d="M169.59,-236.27C170.69,-249.58 171.97,-265.19 172.93,-276.82"/>
<polygon fill="black" stroke="black" points="173.07,-235.88 168.76,-226.2 166.09,-236.45 173.07,-235.88"/>
<text text-anchor="middle" x="188.35" y="-247.8" font-family="Times,serif" font-size="14.00">समासः</text>
</g>
<!-- Node11_2&#45;&gt;Node12_1 -->
<g id="edge15" class="edge">
<title>Node11_2&#45;&gt;Node12_1</title>
<path fill="none" stroke="black" d="M174.35,-323.27C174.35,-336.58 174.35,-352.19 174.35,-363.82"/>
<polygon fill="black" stroke="black" points="177.85,-323.2 174.35,-313.2 170.85,-323.2 177.85,-323.2"/>
<text text-anchor="middle" x="192.85" y="-334.8" font-family="Times,serif" font-size="14.00">गतिकर्म</text>
</g>
</g>
</svg>
