<?xml version="1.0" encoding="UTF-8" standalone="no"?>
<!DOCTYPE svg PUBLIC "-//W3C//DTD SVG 1.1//EN"
 "http://www.w3.org/Graphics/SVG/1.1/DTD/svg11.dtd">
<!-- Generated by graphviz version 2.43.0 (0)
 -->
<!-- Title: G Pages: 1 -->
<svg width="790pt" height="392pt"
 viewBox="0.00 0.00 790.24 392.00" xmlns="http://www.w3.org/2000/svg" xmlns:xlink="http://www.w3.org/1999/xlink">
<g id="graph0" class="graph" transform="scale(1 1) rotate(0) translate(4 388)">
<title>G</title>
<polygon fill="#fffacd" stroke="transparent" points="-4,4 -4,-388 786.24,-388 786.24,4 -4,4"/>
<!-- Node1_1 -->
<g id="node1" class="node">
<title>Node1_1</title>
<ellipse fill="#ff99ff" stroke="#ff99ff" cx="366.2" cy="-192" rx="44.39" ry="18"/>
<text text-anchor="middle" x="366.2" y="-188.3" font-family="Times,serif" font-size="14.00">इति(1.1)</text>
</g>
<!-- Node4_1 -->
<g id="node2" class="node">
<title>Node4_1</title>
<ellipse fill="#ff99ff" stroke="#ff99ff" cx="358.2" cy="-279" rx="51.19" ry="18"/>
<text text-anchor="middle" x="358.2" y="-275.3" font-family="Times,serif" font-size="14.00">उक्त्वा(4.1)</text>
</g>
<!-- Node1_1&#45;&gt;Node4_1 -->
<g id="edge1" class="edge">
<title>Node1_1&#45;&gt;Node4_1</title>
<path fill="none" stroke="black" d="M363.63,-220.27C362.38,-233.58 360.91,-249.19 359.81,-260.82"/>
<polygon fill="black" stroke="black" points="367.12,-220.49 364.58,-210.2 360.16,-219.83 367.12,-220.49"/>
<text text-anchor="middle" x="383.7" y="-231.8" font-family="Times,serif" font-size="14.00">वाक्यकर्म</text>
</g>
<!-- Node13_1 -->
<g id="node4" class="node">
<title>Node13_1</title>
<ellipse fill="#ff1975" stroke="#ff1975" cx="452.2" cy="-366" rx="67.69" ry="18"/>
<text text-anchor="middle" x="452.2" y="-362.3" font-family="Times,serif" font-size="14.00">उपाविशत्(13.1)</text>
</g>
<!-- Node4_1&#45;&gt;Node13_1 -->
<g id="edge6" class="edge">
<title>Node4_1&#45;&gt;Node13_1</title>
<path fill="none" stroke="black" d="M383.31,-302.71C399.26,-317.13 419.54,-335.47 433.95,-348.5"/>
<polygon fill="black" stroke="black" points="385.64,-300.1 375.88,-295.99 380.95,-305.29 385.64,-300.1"/>
<text text-anchor="middle" x="430.7" y="-318.8" font-family="Times,serif" font-size="14.00">पूर्वकालः</text>
</g>
<!-- Node2_1 -->
<g id="node3" class="node">
<title>Node2_1</title>
<ellipse fill="#00bfff" stroke="#00bfff" cx="258.2" cy="-192" rx="46.29" ry="18"/>
<text text-anchor="middle" x="258.2" y="-188.3" font-family="Times,serif" font-size="14.00">राजा(2.1)</text>
</g>
<!-- Node2_1&#45;&gt;Node4_1 -->
<g id="edge4" class="edge">
<title>Node2_1&#45;&gt;Node4_1</title>
<path fill="none" stroke="black" stroke-dasharray="1,5" d="M284.54,-215.4C301.75,-230.02 323.82,-248.78 339.29,-261.93"/>
<polygon fill="black" stroke="black" points="286.42,-212.4 276.54,-208.59 281.89,-217.73 286.42,-212.4"/>
<text text-anchor="middle" x="325.2" y="-231.8" font-family="Times,serif" font-size="14.00">कर्ता</text>
</g>
<!-- Node2_1&#45;&gt;Node13_1 -->
<g id="edge2" class="edge">
<title>Node2_1&#45;&gt;Node13_1</title>
<path fill="none" stroke="black" d="M255.94,-220.3C255.54,-243.23 258.64,-275.59 276.2,-297 304.86,-331.96 353.76,-348.99 392.76,-357.26"/>
<polygon fill="black" stroke="black" points="259.44,-220.33 256.36,-210.2 252.45,-220.05 259.44,-220.33"/>
<text text-anchor="middle" x="287.2" y="-275.3" font-family="Times,serif" font-size="14.00">कर्ता</text>
</g>
<!-- Node7_1 -->
<g id="node5" class="node">
<title>Node7_1</title>
<ellipse fill="#ff99ff" stroke="#ff99ff" cx="158.2" cy="-279" rx="57.69" ry="18"/>
<text text-anchor="middle" x="158.2" y="-275.3" font-family="Times,serif" font-size="14.00">समाधाय(7.1)</text>
</g>
<!-- Node2_1&#45;&gt;Node7_1 -->
<g id="edge3" class="edge">
<title>Node2_1&#45;&gt;Node7_1</title>
<path fill="none" stroke="black" stroke-dasharray="1,5" d="M231.85,-215.4C214.64,-230.02 192.58,-248.78 177.1,-261.93"/>
<polygon fill="black" stroke="black" points="234.5,-217.73 239.85,-208.59 229.97,-212.4 234.5,-217.73"/>
<text text-anchor="middle" x="225.2" y="-231.8" font-family="Times,serif" font-size="14.00">कर्ता</text>
</g>
<!-- Node7_1&#45;&gt;Node13_1 -->
<g id="edge9" class="edge">
<title>Node7_1&#45;&gt;Node13_1</title>
<path fill="none" stroke="black" d="M176.8,-304.51C185.31,-313.99 196.19,-323.99 208.2,-330 238.81,-345.32 326.47,-355.16 387.91,-360.39"/>
<polygon fill="black" stroke="black" points="179.36,-302.12 170.22,-296.76 174.02,-306.65 179.36,-302.12"/>
<text text-anchor="middle" x="228.7" y="-318.8" font-family="Times,serif" font-size="14.00">पूर्वकालः</text>
</g>
<!-- Node3_1 -->
<g id="node6" class="node">
<title>Node3_1</title>
<ellipse fill="#93db70" stroke="#93db70" cx="487.2" cy="-192" rx="58.49" ry="18"/>
<text text-anchor="middle" x="487.2" y="-188.3" font-family="Times,serif" font-size="14.00">सञ्जयम्(3.1)</text>
</g>
<!-- Node3_1&#45;&gt;Node4_1 -->
<g id="edge5" class="edge">
<title>Node3_1&#45;&gt;Node4_1</title>
<path fill="none" stroke="black" d="M455.14,-214.12C432.2,-229.24 401.86,-249.23 381.27,-262.79"/>
<polygon fill="black" stroke="black" points="457.11,-217.02 463.54,-208.59 453.26,-211.17 457.11,-217.02"/>
<text text-anchor="middle" x="439.2" y="-231.8" font-family="Times,serif" font-size="14.00">कर्म</text>
</g>
<!-- Node5_1 -->
<g id="node7" class="node">
<title>Node5_1</title>
<ellipse fill="#ff99ff" stroke="#ff99ff" cx="44.2" cy="-192" rx="44.39" ry="18"/>
<text text-anchor="middle" x="44.2" y="-188.3" font-family="Times,serif" font-size="14.00">तदा(5.1)</text>
</g>
<!-- Node5_1&#45;&gt;Node7_1 -->
<g id="edge7" class="edge">
<title>Node5_1&#45;&gt;Node7_1</title>
<path fill="none" stroke="black" d="M58.32,-218.71C63.96,-227.26 71.06,-236.3 79.2,-243 90.9,-252.63 105.66,-260.11 119.25,-265.63"/>
<polygon fill="black" stroke="black" points="61.23,-216.76 53,-210.1 55.28,-220.44 61.23,-216.76"/>
<text text-anchor="middle" x="114.7" y="-231.8" font-family="Times,serif" font-size="14.00">कालाधिकरणम्</text>
</g>
<!-- Node6_1 -->
<g id="node8" class="node">
<title>Node6_1</title>
<ellipse fill="#93db70" stroke="#93db70" cx="150.2" cy="-192" rx="44.39" ry="18"/>
<text text-anchor="middle" x="150.2" y="-188.3" font-family="Times,serif" font-size="14.00">मनः(6.1)</text>
</g>
<!-- Node6_1&#45;&gt;Node7_1 -->
<g id="edge8" class="edge">
<title>Node6_1&#45;&gt;Node7_1</title>
<path fill="none" stroke="black" d="M152.76,-220.27C154.02,-233.58 155.48,-249.19 156.58,-260.82"/>
<polygon fill="black" stroke="black" points="156.24,-219.83 151.81,-210.2 149.27,-220.49 156.24,-219.83"/>
<text text-anchor="middle" x="164.2" y="-231.8" font-family="Times,serif" font-size="14.00">कर्म</text>
</g>
<!-- Node8_1 -->
<g id="node9" class="node">
<title>Node8_1</title>
<ellipse fill="#40e0d0" stroke="#40e0d0" cx="485.2" cy="-279" rx="57.39" ry="18"/>
<text text-anchor="middle" x="485.2" y="-275.3" font-family="Times,serif" font-size="14.00">गान्धार्या(8.1)</text>
</g>
<!-- Node8_1&#45;&gt;Node13_1 -->
<g id="edge10" class="edge">
<title>Node8_1&#45;&gt;Node13_1</title>
<path fill="none" stroke="black" d="M474.76,-306.87C469.56,-320.27 463.42,-336.08 458.86,-347.82"/>
<polygon fill="black" stroke="black" points="478.16,-307.79 478.52,-297.2 471.64,-305.26 478.16,-307.79"/>
<text text-anchor="middle" x="486.2" y="-318.8" font-family="Times,serif" font-size="14.00">सहार्थः</text>
</g>
<!-- Node9_1 -->
<g id="node10" class="node">
<title>Node9_1</title>
<ellipse fill="#40e0d0" stroke="#40e0d0" cx="612.2" cy="-279" rx="51.99" ry="18"/>
<text text-anchor="middle" x="612.2" y="-275.3" font-family="Times,serif" font-size="14.00">कुन्त्या(9.1)</text>
</g>
<!-- Node9_1&#45;&gt;Node13_1 -->
<g id="edge11" class="edge">
<title>Node9_1&#45;&gt;Node13_1</title>
<path fill="none" stroke="black" d="M576.15,-299.15C547.43,-314.41 507.75,-335.49 481.1,-349.65"/>
<polygon fill="black" stroke="black" points="577.87,-302.2 585.05,-294.42 574.58,-296.02 577.87,-302.2"/>
<text text-anchor="middle" x="557.2" y="-318.8" font-family="Times,serif" font-size="14.00">सहार्थः</text>
</g>
<!-- Node10_1 -->
<g id="node11" class="node">
<title>Node10_1</title>
<ellipse fill="#ff99ff" stroke="#ff99ff" cx="722.2" cy="-192" rx="43.59" ry="18"/>
<text text-anchor="middle" x="722.2" y="-188.3" font-family="Times,serif" font-size="14.00">च(10.1)</text>
</g>
<!-- Node10_1&#45;&gt;Node9_1 -->
<g id="edge12" class="edge">
<title>Node10_1&#45;&gt;Node9_1</title>
<path fill="none" stroke="black" d="M706.01,-218.2C699.63,-226.81 691.78,-236.02 683.2,-243 672.11,-252.02 658.32,-259.49 645.84,-265.18"/>
<polygon fill="black" stroke="black" points="708.96,-220.09 711.86,-209.9 703.24,-216.05 708.96,-220.09"/>
<text text-anchor="middle" x="715.7" y="-231.8" font-family="Times,serif" font-size="14.00">सम्बन्धः</text>
</g>
<!-- Node11_1 -->
<g id="node12" class="node">
<title>Node11_1</title>
<ellipse fill="#ff99ff" stroke="#ff99ff" cx="612.2" cy="-192" rx="48.19" ry="18"/>
<text text-anchor="middle" x="612.2" y="-188.3" font-family="Times,serif" font-size="14.00">सह(11.1)</text>
</g>
<!-- Node11_1&#45;&gt;Node9_1 -->
<g id="edge13" class="edge">
<title>Node11_1&#45;&gt;Node9_1</title>
<path fill="none" stroke="black" d="M612.2,-220.27C612.2,-233.58 612.2,-249.19 612.2,-260.82"/>
<polygon fill="black" stroke="black" points="615.7,-220.2 612.2,-210.2 608.7,-220.2 615.7,-220.2"/>
<text text-anchor="middle" x="645.7" y="-231.8" font-family="Times,serif" font-size="14.00">सहार्थ_द्योतकः</text>
</g>
<!-- Node12_1 -->
<g id="node13" class="node">
<title>Node12_1</title>
<ellipse fill="#ffff00" stroke="#ffff00" cx="258.2" cy="-18" rx="53.89" ry="18"/>
<text text-anchor="middle" x="258.2" y="-14.3" font-family="Times,serif" font-size="14.00">प्राङ्&#45;(12.1)</text>
</g>
<!-- Node12_2 -->
<g id="node14" class="node">
<title>Node12_2</title>
<ellipse fill="#00bfff" stroke="#00bfff" cx="258.2" cy="-105" rx="51.99" ry="18"/>
<text text-anchor="middle" x="258.2" y="-101.3" font-family="Times,serif" font-size="14.00">मुखः(12.2)</text>
</g>
<!-- Node12_1&#45;&gt;Node12_2 -->
<g id="edge14" class="edge">
<title>Node12_1&#45;&gt;Node12_2</title>
<path fill="none" stroke="black" d="M258.2,-46.27C258.2,-59.58 258.2,-75.19 258.2,-86.82"/>
<polygon fill="black" stroke="black" points="261.7,-46.2 258.2,-36.2 254.7,-46.2 261.7,-46.2"/>
<text text-anchor="middle" x="275.2" y="-57.8" font-family="Times,serif" font-size="14.00">समासः</text>
</g>
<!-- Node12_2&#45;&gt;Node2_1 -->
<g id="edge15" class="edge">
<title>Node12_2&#45;&gt;Node2_1</title>
<path fill="none" stroke="black" d="M258.2,-133.27C258.2,-146.58 258.2,-162.19 258.2,-173.82"/>
<polygon fill="black" stroke="black" points="261.7,-133.2 258.2,-123.2 254.7,-133.2 261.7,-133.2"/>
<text text-anchor="middle" x="297.2" y="-144.8" font-family="Times,serif" font-size="14.00">विधेय_विशेषणम्</text>
</g>
<!-- Node14_1 -->
<g id="node15" class="node">
<title>Node14_1</title>
<ellipse fill="#ff99ff" stroke="#ff99ff" cx="732.2" cy="-279" rx="50.09" ry="18"/>
<text text-anchor="middle" x="732.2" y="-275.3" font-family="Times,serif" font-size="14.00">तदा(14.1)</text>
</g>
<!-- Node14_1&#45;&gt;Node13_1 -->
<g id="edge16" class="edge">
<title>Node14_1&#45;&gt;Node13_1</title>
<path fill="none" stroke="black" d="M687.31,-294.99C656.44,-305.18 614.45,-318.78 577.2,-330 551.09,-337.86 521.73,-346.11 498.03,-352.63"/>
<polygon fill="black" stroke="black" points="688.53,-298.28 696.92,-291.81 686.33,-291.63 688.53,-298.28"/>
<text text-anchor="middle" x="659.7" y="-318.8" font-family="Times,serif" font-size="14.00">कालाधिकरणम्</text>
</g>
</g>
</svg>
