<?xml version="1.0" encoding="UTF-8" standalone="no"?>
<!DOCTYPE svg PUBLIC "-//W3C//DTD SVG 1.1//EN"
 "http://www.w3.org/Graphics/SVG/1.1/DTD/svg11.dtd">
<!-- Generated by graphviz version 2.43.0 (0)
 -->
<!-- Title: G Pages: 1 -->
<svg width="620pt" height="321pt"
 viewBox="0.00 0.00 620.25 321.00" xmlns="http://www.w3.org/2000/svg" xmlns:xlink="http://www.w3.org/1999/xlink">
<g id="graph0" class="graph" transform="scale(1 1) rotate(0) translate(4 317)">
<title>G</title>
<polygon fill="#fffacd" stroke="transparent" points="-4,4 -4,-317 616.25,-317 616.25,4 -4,4"/>
<g id="clust1" class="cluster">
<title>cluster_1</title>
<polygon fill="#fffacd" stroke="black" points="8,-95 8,-234 136,-234 136,-95 8,-95"/>
</g>
<g id="clust2" class="cluster">
<title>cluster_2</title>
<polygon fill="#fffacd" stroke="black" points="258,-8 258,-147 378,-147 378,-8 258,-8"/>
</g>
<!-- Node2_1 -->
<g id="node1" class="node">
<title>Node2_1</title>
<ellipse fill="#00bfff" stroke="#00bfff" cx="72" cy="-121" rx="55.79" ry="18"/>
<text text-anchor="middle" x="72" y="-117.3" font-family="Times,serif" font-size="14.00">समुद्भूतः(2.1)</text>
</g>
<!-- Node3_1 -->
<g id="node2" class="node">
<title>Node3_1</title>
<ellipse fill="#00bfff" stroke="#00bfff" cx="81" cy="-208" rx="46.29" ry="18"/>
<text text-anchor="middle" x="81" y="-204.3" font-family="Times,serif" font-size="14.00">वायुः(3.1)</text>
</g>
<!-- Node2_1&#45;&gt;Node3_1 -->
<g id="edge2" class="edge">
<title>Node2_1&#45;&gt;Node3_1</title>
<path fill="none" stroke="black" d="M74.89,-149.27C76.3,-162.58 77.95,-178.19 79.18,-189.82"/>
<polygon fill="black" stroke="black" points="78.35,-148.78 73.82,-139.2 71.39,-149.51 78.35,-148.78"/>
<text text-anchor="middle" x="100.5" y="-160.8" font-family="Times,serif" font-size="14.00">विशेषणम्</text>
</g>
<!-- Node6_1 -->
<g id="node6" class="node">
<title>Node6_1</title>
<ellipse fill="#ff1975" stroke="#ff1975" cx="167" cy="-295" rx="53.89" ry="18"/>
<text text-anchor="middle" x="167" y="-291.3" font-family="Times,serif" font-size="14.00">अभवत्(6.1)</text>
</g>
<!-- Node3_1&#45;&gt;Node6_1 -->
<g id="edge3" class="edge">
<title>Node3_1&#45;&gt;Node6_1</title>
<path fill="none" stroke="black" d="M104.43,-232.16C119.06,-246.62 137.53,-264.88 150.6,-277.79"/>
<polygon fill="black" stroke="black" points="106.75,-229.53 97.18,-224.99 101.83,-234.51 106.75,-229.53"/>
<text text-anchor="middle" x="141" y="-247.8" font-family="Times,serif" font-size="14.00">कर्ता</text>
</g>
<!-- Node10_1 -->
<g id="node3" class="node">
<title>Node10_1</title>
<ellipse fill="#93db70" stroke="#93db70" cx="318" cy="-34" rx="48.19" ry="18"/>
<text text-anchor="middle" x="318" y="-30.3" font-family="Times,serif" font-size="14.00">सर्वं(10.1)</text>
</g>
<!-- Node11_1 -->
<g id="node4" class="node">
<title>Node11_1</title>
<ellipse fill="#93db70" stroke="#93db70" cx="318" cy="-121" rx="51.99" ry="18"/>
<text text-anchor="middle" x="318" y="-117.3" font-family="Times,serif" font-size="14.00">वनम्(11.1)</text>
</g>
<!-- Node10_1&#45;&gt;Node11_1 -->
<g id="edge11" class="edge">
<title>Node10_1&#45;&gt;Node11_1</title>
<path fill="none" stroke="black" d="M318,-62.27C318,-75.58 318,-91.19 318,-102.82"/>
<polygon fill="black" stroke="black" points="321.5,-62.2 318,-52.2 314.5,-62.2 321.5,-62.2"/>
<text text-anchor="middle" x="340.5" y="-73.8" font-family="Times,serif" font-size="14.00">विशेषणम्</text>
</g>
<!-- Node9_1 -->
<g id="node12" class="node">
<title>Node9_1</title>
<ellipse fill="#ff99ff" stroke="#ff99ff" cx="466" cy="-208" rx="53.89" ry="18"/>
<text text-anchor="middle" x="466" y="-204.3" font-family="Times,serif" font-size="14.00">परिगृह्य(9.1)</text>
</g>
<!-- Node11_1&#45;&gt;Node9_1 -->
<g id="edge12" class="edge">
<title>Node11_1&#45;&gt;Node9_1</title>
<path fill="none" stroke="black" d="M352.79,-141.98C379.51,-157.32 415.8,-178.17 440.02,-192.08"/>
<polygon fill="black" stroke="black" points="354.19,-138.75 343.78,-136.81 350.71,-144.82 354.19,-138.75"/>
<text text-anchor="middle" x="409" y="-160.8" font-family="Times,serif" font-size="14.00">कर्म</text>
</g>
<!-- Node1_1 -->
<g id="node5" class="node">
<title>Node1_1</title>
<ellipse fill="#ff99ff" stroke="#ff99ff" cx="189" cy="-208" rx="44.39" ry="18"/>
<text text-anchor="middle" x="189" y="-204.3" font-family="Times,serif" font-size="14.00">अथ(1.1)</text>
</g>
<!-- Node1_1&#45;&gt;Node6_1 -->
<g id="edge1" class="edge">
<title>Node1_1&#45;&gt;Node6_1</title>
<path fill="none" stroke="black" d="M181.94,-236.27C178.5,-249.58 174.46,-265.19 171.45,-276.82"/>
<polygon fill="black" stroke="black" points="185.43,-236.76 184.55,-226.2 178.65,-235.01 185.43,-236.76"/>
<text text-anchor="middle" x="198.5" y="-247.8" font-family="Times,serif" font-size="14.00">सम्बन्धः</text>
</g>
<!-- Node4_1 -->
<g id="node7" class="node">
<title>Node4_1</title>
<ellipse fill="#00bfff" stroke="#00bfff" cx="90" cy="-34" rx="48.99" ry="18"/>
<text text-anchor="middle" x="90" y="-30.3" font-family="Times,serif" font-size="14.00">महान्(4.1)</text>
</g>
<!-- Node5_2 -->
<g id="node8" class="node">
<title>Node5_2</title>
<ellipse fill="#00bfff" stroke="#00bfff" cx="197" cy="-121" rx="50.89" ry="18"/>
<text text-anchor="middle" x="197" y="-117.3" font-family="Times,serif" font-size="14.00">अग्निः(5.2)</text>
</g>
<!-- Node4_1&#45;&gt;Node5_2 -->
<g id="edge4" class="edge">
<title>Node4_1&#45;&gt;Node5_2</title>
<path fill="none" stroke="black" d="M114.75,-58.32C124.28,-66.98 135.42,-76.7 146,-85 154.79,-91.89 164.85,-98.96 173.71,-104.93"/>
<polygon fill="black" stroke="black" points="116.89,-55.54 107.16,-51.35 112.16,-60.7 116.89,-55.54"/>
<text text-anchor="middle" x="170.5" y="-73.8" font-family="Times,serif" font-size="14.00">तीव्रतादर्शी</text>
</g>
<!-- Node5_2&#45;&gt;Node3_1 -->
<g id="edge6" class="edge">
<title>Node5_2&#45;&gt;Node3_1</title>
<path fill="none" stroke="black" d="M167.91,-143.32C147.35,-158.38 120.28,-178.22 101.85,-191.72"/>
<polygon fill="black" stroke="black" points="170,-146.13 175.99,-137.39 165.86,-140.48 170,-146.13"/>
<text text-anchor="middle" x="185" y="-160.8" font-family="Times,serif" font-size="14.00">विधेय_विशेषणम्</text>
</g>
<!-- Node5_1 -->
<g id="node9" class="node">
<title>Node5_1</title>
<ellipse fill="#ffff00" stroke="#ffff00" cx="201" cy="-34" rx="44.39" ry="18"/>
<text text-anchor="middle" x="201" y="-30.3" font-family="Times,serif" font-size="14.00">दव&#45;(5.1)</text>
</g>
<!-- Node5_1&#45;&gt;Node5_2 -->
<g id="edge5" class="edge">
<title>Node5_1&#45;&gt;Node5_2</title>
<path fill="none" stroke="black" d="M199.72,-62.27C199.09,-75.58 198.36,-91.19 197.81,-102.82"/>
<polygon fill="black" stroke="black" points="203.22,-62.35 200.19,-52.2 196.22,-62.03 203.22,-62.35"/>
<text text-anchor="middle" x="217" y="-73.8" font-family="Times,serif" font-size="14.00">समासः</text>
</g>
<!-- Node7_1 -->
<g id="node10" class="node">
<title>Node7_1</title>
<ellipse fill="#00bfff" stroke="#00bfff" cx="570" cy="-121" rx="42.49" ry="18"/>
<text text-anchor="middle" x="570" y="-117.3" font-family="Times,serif" font-size="14.00">तत्(7.1)</text>
</g>
<!-- Node12_1 -->
<g id="node11" class="node">
<title>Node12_1</title>
<ellipse fill="#ff1975" stroke="#ff1975" cx="548" cy="-295" rx="53.89" ry="18"/>
<text text-anchor="middle" x="548" y="-291.3" font-family="Times,serif" font-size="14.00">ददाह(12.1)</text>
</g>
<!-- Node7_1&#45;&gt;Node12_1 -->
<g id="edge7" class="edge">
<title>Node7_1&#45;&gt;Node12_1</title>
<path fill="none" stroke="black" d="M568.19,-149.53C566.12,-177.29 562.21,-221.3 556,-259 555.03,-264.9 553.66,-271.3 552.33,-276.99"/>
<polygon fill="black" stroke="black" points="571.69,-149.62 568.91,-139.39 564.71,-149.12 571.69,-149.62"/>
<text text-anchor="middle" x="575" y="-204.3" font-family="Times,serif" font-size="14.00">कर्ता</text>
</g>
<!-- Node7_1&#45;&gt;Node9_1 -->
<g id="edge8" class="edge">
<title>Node7_1&#45;&gt;Node9_1</title>
<path fill="none" stroke="black" stroke-dasharray="1,5" d="M547.14,-145.04C538.05,-153.81 527.31,-163.68 517,-172 508.48,-178.88 498.65,-185.83 489.91,-191.71"/>
<polygon fill="black" stroke="black" points="549.65,-147.49 554.35,-137.99 544.75,-142.48 549.65,-147.49"/>
<text text-anchor="middle" x="544" y="-160.8" font-family="Times,serif" font-size="14.00">कर्ता</text>
</g>
<!-- Node9_1&#45;&gt;Node12_1 -->
<g id="edge10" class="edge">
<title>Node9_1&#45;&gt;Node12_1</title>
<path fill="none" stroke="black" d="M489.07,-232.91C502.85,-247.2 520,-264.98 532.24,-277.66"/>
<polygon fill="black" stroke="black" points="491.27,-230.16 481.81,-225.39 486.23,-235.02 491.27,-230.16"/>
<text text-anchor="middle" x="531.5" y="-247.8" font-family="Times,serif" font-size="14.00">पूर्वकालः</text>
</g>
<!-- Node8_1 -->
<g id="node13" class="node">
<title>Node8_1</title>
<ellipse fill="#ff99ff" stroke="#ff99ff" cx="446" cy="-121" rx="57.69" ry="18"/>
<text text-anchor="middle" x="446" y="-117.3" font-family="Times,serif" font-size="14.00">समन्ततः(8.1)</text>
</g>
<!-- Node8_1&#45;&gt;Node9_1 -->
<g id="edge9" class="edge">
<title>Node8_1&#45;&gt;Node9_1</title>
<path fill="none" stroke="black" d="M444.21,-149.41C444.36,-156.84 445.1,-164.81 447,-172 448.66,-178.28 451.67,-184.67 454.8,-190.24"/>
<polygon fill="black" stroke="black" points="447.71,-149.45 444.35,-139.4 440.71,-149.36 447.71,-149.45"/>
<text text-anchor="middle" x="482" y="-160.8" font-family="Times,serif" font-size="14.00">क्रियाविशेषणम्</text>
</g>
</g>
</svg>
