<?xml version="1.0" encoding="UTF-8" standalone="no"?>
<!DOCTYPE svg PUBLIC "-//W3C//DTD SVG 1.1//EN"
 "http://www.w3.org/Graphics/SVG/1.1/DTD/svg11.dtd">
<!-- Generated by graphviz version 2.43.0 (0)
 -->
<!-- Title: G Pages: 1 -->
<svg width="882pt" height="479pt"
 viewBox="0.00 0.00 881.65 479.00" xmlns="http://www.w3.org/2000/svg" xmlns:xlink="http://www.w3.org/1999/xlink">
<g id="graph0" class="graph" transform="scale(1 1) rotate(0) translate(4 475)">
<title>G</title>
<polygon fill="#fffacd" stroke="transparent" points="-4,4 -4,-475 877.65,-475 877.65,4 -4,4"/>
<g id="clust1" class="cluster">
<title>cluster_1</title>
<polygon fill="#fffacd" stroke="black" points="349.65,-79 349.65,-218 485.65,-218 485.65,-79 349.65,-79"/>
</g>
<g id="clust2" class="cluster">
<title>cluster_2</title>
<polygon fill="#fffacd" stroke="black" points="292.65,-253 292.65,-305 398.65,-305 398.65,-253 292.65,-253"/>
</g>
<g id="clust3" class="cluster">
<title>cluster_3</title>
<polygon fill="#fffacd" stroke="black" points="406.65,-253 406.65,-392 634.65,-392 634.65,-253 406.65,-253"/>
</g>
<!-- Node2_1 -->
<g id="node1" class="node">
<title>Node2_1</title>
<ellipse fill="#00bfff" stroke="#00bfff" cx="417.65" cy="-105" rx="40.09" ry="18"/>
<text text-anchor="middle" x="417.65" y="-101.3" font-family="Times,serif" font-size="14.00">सः(2.1)</text>
</g>
<!-- Node5_1 -->
<g id="node2" class="node">
<title>Node5_1</title>
<ellipse fill="#00bfff" stroke="#00bfff" cx="417.65" cy="-192" rx="60.39" ry="18"/>
<text text-anchor="middle" x="417.65" y="-188.3" font-family="Times,serif" font-size="14.00">पूज्यमानः(5.1)</text>
</g>
<!-- Node2_1&#45;&gt;Node5_1 -->
<g id="edge2" class="edge">
<title>Node2_1&#45;&gt;Node5_1</title>
<path fill="none" stroke="black" d="M417.65,-133.27C417.65,-146.58 417.65,-162.19 417.65,-173.82"/>
<polygon fill="black" stroke="black" points="421.15,-133.2 417.65,-123.2 414.15,-133.2 421.15,-133.2"/>
<text text-anchor="middle" x="440.15" y="-144.8" font-family="Times,serif" font-size="14.00">विशेषणम्</text>
</g>
<!-- Node7_4 -->
<g id="node3" class="node">
<title>Node7_4</title>
<ellipse fill="#00bfff" stroke="#00bfff" cx="345.65" cy="-279" rx="45.49" ry="18"/>
<text text-anchor="middle" x="345.65" y="-275.3" font-family="Times,serif" font-size="14.00">शेषः(7.4)</text>
</g>
<!-- Node5_1&#45;&gt;Node7_4 -->
<g id="edge5" class="edge">
<title>Node5_1&#45;&gt;Node7_4</title>
<path fill="none" stroke="black" d="M396.71,-217.72C384.67,-231.92 369.91,-249.36 359.35,-261.82"/>
<polygon fill="black" stroke="black" points="399.63,-219.69 403.42,-209.79 394.29,-215.16 399.63,-219.69"/>
<text text-anchor="middle" x="408.15" y="-231.8" font-family="Times,serif" font-size="14.00">विशेषणम्</text>
</g>
<!-- Node8_1 -->
<g id="node5" class="node">
<title>Node8_1</title>
<ellipse fill="#00bfff" stroke="#00bfff" cx="499.65" cy="-366" rx="40.09" ry="18"/>
<text text-anchor="middle" x="499.65" y="-362.3" font-family="Times,serif" font-size="14.00">सः(8.1)</text>
</g>
<!-- Node7_4&#45;&gt;Node8_1 -->
<g id="edge11" class="edge">
<title>Node7_4&#45;&gt;Node8_1</title>
<path fill="none" stroke="black" d="M378.05,-299.7C393.8,-309.11 413.07,-320.38 430.65,-330 444.67,-337.67 460.56,-345.77 473.56,-352.25"/>
<polygon fill="black" stroke="black" points="379.61,-296.56 369.23,-294.41 376.01,-302.56 379.61,-296.56"/>
<text text-anchor="middle" x="453.15" y="-318.8" font-family="Times,serif" font-size="14.00">विशेषणम्</text>
</g>
<!-- Node6_2 -->
<g id="node4" class="node">
<title>Node6_2</title>
<ellipse fill="#00bfff" stroke="#00bfff" cx="579.65" cy="-279" rx="46.59" ry="18"/>
<text text-anchor="middle" x="579.65" y="-275.3" font-family="Times,serif" font-size="14.00">तपाः(6.2)</text>
</g>
<!-- Node6_2&#45;&gt;Node8_1 -->
<g id="edge7" class="edge">
<title>Node6_2&#45;&gt;Node8_1</title>
<path fill="none" stroke="black" d="M557.54,-303.53C549.69,-311.89 540.77,-321.37 532.65,-330 526.81,-336.2 520.38,-343.02 514.76,-348.97"/>
<polygon fill="black" stroke="black" points="560.11,-305.9 564.41,-296.22 555.01,-301.11 560.11,-305.9"/>
<text text-anchor="middle" x="567.15" y="-318.8" font-family="Times,serif" font-size="14.00">विशेषणम्</text>
</g>
<!-- Node10_1 -->
<g id="node8" class="node">
<title>Node10_1</title>
<ellipse fill="#ff1975" stroke="#ff1975" cx="684.65" cy="-453" rx="59.59" ry="18"/>
<text text-anchor="middle" x="684.65" y="-449.3" font-family="Times,serif" font-size="14.00">अभवन्(10.1)</text>
</g>
<!-- Node8_1&#45;&gt;Node10_1 -->
<g id="edge12" class="edge">
<title>Node8_1&#45;&gt;Node10_1</title>
<path fill="none" stroke="black" d="M536.11,-383.76C570.27,-399.45 620.78,-422.66 653.21,-437.56"/>
<polygon fill="black" stroke="black" points="537.49,-380.54 526.94,-379.54 534.57,-386.9 537.49,-380.54"/>
<text text-anchor="middle" x="613.65" y="-405.8" font-family="Times,serif" font-size="14.00">कर्ता</text>
</g>
<!-- Node11_1 -->
<g id="node6" class="node">
<title>Node11_1</title>
<ellipse fill="#00bfff" stroke="#00bfff" cx="464.65" cy="-279" rx="50.09" ry="18"/>
<text text-anchor="middle" x="464.65" y="-275.3" font-family="Times,serif" font-size="14.00">नृपः(11.1)</text>
</g>
<!-- Node11_1&#45;&gt;Node8_1 -->
<g id="edge15" class="edge">
<title>Node11_1&#45;&gt;Node8_1</title>
<path fill="none" stroke="black" d="M475.57,-306.54C481.17,-320.12 487.8,-336.24 492.69,-348.11"/>
<polygon fill="black" stroke="black" points="478.77,-305.12 471.73,-297.2 472.3,-307.78 478.77,-305.12"/>
<text text-anchor="middle" x="506.15" y="-318.8" font-family="Times,serif" font-size="14.00">विशेषणम्</text>
</g>
<!-- Node1_1 -->
<g id="node7" class="node">
<title>Node1_1</title>
<ellipse fill="#c6e2eb" stroke="#c6e2eb" cx="684.65" cy="-366" rx="41.69" ry="18"/>
<text text-anchor="middle" x="684.65" y="-362.3" font-family="Times,serif" font-size="14.00">वने(1.1)</text>
</g>
<!-- Node1_1&#45;&gt;Node10_1 -->
<g id="edge1" class="edge">
<title>Node1_1&#45;&gt;Node10_1</title>
<path fill="none" stroke="black" d="M684.65,-394.27C684.65,-407.58 684.65,-423.19 684.65,-434.82"/>
<polygon fill="black" stroke="black" points="688.15,-394.2 684.65,-384.2 681.15,-394.2 688.15,-394.2"/>
<text text-anchor="middle" x="716.65" y="-405.8" font-family="Times,serif" font-size="14.00">देशाधिकरणम्</text>
</g>
<!-- Node3_1 -->
<g id="node9" class="node">
<title>Node3_1</title>
<ellipse fill="#40e0d0" stroke="#40e0d0" cx="178.65" cy="-105" rx="55.49" ry="18"/>
<text text-anchor="middle" x="178.65" y="-101.3" font-family="Times,serif" font-size="14.00">मुनिभिः(3.1)</text>
</g>
<!-- Node3_1&#45;&gt;Node5_1 -->
<g id="edge3" class="edge">
<title>Node3_1&#45;&gt;Node5_1</title>
<path fill="none" stroke="black" d="M222.55,-122.83C248.64,-132.72 282.44,-145.33 312.65,-156 334.21,-163.61 358.41,-171.71 378.14,-178.2"/>
<polygon fill="black" stroke="black" points="223.54,-119.46 212.95,-119.18 221.05,-126 223.54,-119.46"/>
<text text-anchor="middle" x="329.15" y="-144.8" font-family="Times,serif" font-size="14.00">करणम्</text>
</g>
<!-- Node4_1 -->
<g id="node10" class="node">
<title>Node4_1</title>
<ellipse fill="#40e0d0" stroke="#40e0d0" cx="296.65" cy="-105" rx="44.69" ry="18"/>
<text text-anchor="middle" x="296.65" y="-101.3" font-family="Times,serif" font-size="14.00">सर्वैः(4.1)</text>
</g>
<!-- Node4_1&#45;&gt;Node5_1 -->
<g id="edge4" class="edge">
<title>Node4_1&#45;&gt;Node5_1</title>
<path fill="none" stroke="black" d="M326.31,-126.84C347.45,-141.69 375.46,-161.37 394.86,-174.99"/>
<polygon fill="black" stroke="black" points="328.19,-123.88 318,-121 324.17,-129.61 328.19,-123.88"/>
<text text-anchor="middle" x="380.15" y="-144.8" font-family="Times,serif" font-size="14.00">करणम्</text>
</g>
<!-- Node6_1 -->
<g id="node11" class="node">
<title>Node6_1</title>
<ellipse fill="#ffff00" stroke="#ffff00" cx="579.65" cy="-192" rx="46.59" ry="18"/>
<text text-anchor="middle" x="579.65" y="-188.3" font-family="Times,serif" font-size="14.00">महा&#45;(6.1)</text>
</g>
<!-- Node6_1&#45;&gt;Node6_2 -->
<g id="edge6" class="edge">
<title>Node6_1&#45;&gt;Node6_2</title>
<path fill="none" stroke="black" d="M579.65,-220.27C579.65,-233.58 579.65,-249.19 579.65,-260.82"/>
<polygon fill="black" stroke="black" points="583.15,-220.2 579.65,-210.2 576.15,-220.2 583.15,-220.2"/>
<text text-anchor="middle" x="596.65" y="-231.8" font-family="Times,serif" font-size="14.00">समासः</text>
</g>
<!-- Node7_1 -->
<g id="node12" class="node">
<title>Node7_1</title>
<ellipse fill="#ffff00" stroke="#ffff00" cx="52.65" cy="-18" rx="47.39" ry="18"/>
<text text-anchor="middle" x="52.65" y="-14.3" font-family="Times,serif" font-size="14.00">त्वग्&#45;(7.1)</text>
</g>
<!-- Node7_2 -->
<g id="node13" class="node">
<title>Node7_2</title>
<ellipse fill="#ffff00" stroke="#ffff00" cx="52.65" cy="-105" rx="52.79" ry="18"/>
<text text-anchor="middle" x="52.65" y="-101.3" font-family="Times,serif" font-size="14.00">अस्थि&#45;(7.2)</text>
</g>
<!-- Node7_1&#45;&gt;Node7_2 -->
<g id="edge8" class="edge">
<title>Node7_1&#45;&gt;Node7_2</title>
<path fill="none" stroke="black" d="M52.65,-46.27C52.65,-59.58 52.65,-75.19 52.65,-86.82"/>
<polygon fill="black" stroke="black" points="56.15,-46.2 52.65,-36.2 49.15,-46.2 56.15,-46.2"/>
<text text-anchor="middle" x="69.65" y="-57.8" font-family="Times,serif" font-size="14.00">समासः</text>
</g>
<!-- Node7_3 -->
<g id="node14" class="node">
<title>Node7_3</title>
<ellipse fill="#ffff00" stroke="#ffff00" cx="206.65" cy="-192" rx="48.19" ry="18"/>
<text text-anchor="middle" x="206.65" y="-188.3" font-family="Times,serif" font-size="14.00">मात्र&#45;(7.3)</text>
</g>
<!-- Node7_2&#45;&gt;Node7_3 -->
<g id="edge9" class="edge">
<title>Node7_2&#45;&gt;Node7_3</title>
<path fill="none" stroke="black" d="M80.53,-128.12C92.99,-137.41 108.12,-147.92 122.65,-156 138.66,-164.91 157.41,-172.93 173.13,-179.04"/>
<polygon fill="black" stroke="black" points="82.45,-125.18 72.37,-121.92 78.22,-130.76 82.45,-125.18"/>
<text text-anchor="middle" x="139.65" y="-144.8" font-family="Times,serif" font-size="14.00">समासः</text>
</g>
<!-- Node7_3&#45;&gt;Node7_4 -->
<g id="edge10" class="edge">
<title>Node7_3&#45;&gt;Node7_4</title>
<path fill="none" stroke="black" d="M239.71,-213.22C264.93,-228.64 299.08,-249.53 321.71,-263.36"/>
<polygon fill="black" stroke="black" points="241.21,-210.04 230.86,-207.81 237.56,-216.01 241.21,-210.04"/>
<text text-anchor="middle" x="300.65" y="-231.8" font-family="Times,serif" font-size="14.00">समासः</text>
</g>
<!-- Node9_1 -->
<g id="node15" class="node">
<title>Node9_1</title>
<ellipse fill="#ffff00" stroke="#ffff00" cx="796.65" cy="-279" rx="44.39" ry="18"/>
<text text-anchor="middle" x="796.65" y="-275.3" font-family="Times,serif" font-size="14.00">षट्&#45;(9.1)</text>
</g>
<!-- Node9_2 -->
<g id="node16" class="node">
<title>Node9_2</title>
<ellipse fill="#93db70" stroke="#93db70" cx="796.65" cy="-366" rx="52.79" ry="18"/>
<text text-anchor="middle" x="796.65" y="-362.3" font-family="Times,serif" font-size="14.00">मासान्(9.2)</text>
</g>
<!-- Node9_1&#45;&gt;Node9_2 -->
<g id="edge13" class="edge">
<title>Node9_1&#45;&gt;Node9_2</title>
<path fill="none" stroke="black" d="M796.65,-307.27C796.65,-320.58 796.65,-336.19 796.65,-347.82"/>
<polygon fill="black" stroke="black" points="800.15,-307.2 796.65,-297.2 793.15,-307.2 800.15,-307.2"/>
<text text-anchor="middle" x="813.65" y="-318.8" font-family="Times,serif" font-size="14.00">समासः</text>
</g>
<!-- Node9_2&#45;&gt;Node10_1 -->
<g id="edge14" class="edge">
<title>Node9_2&#45;&gt;Node10_1</title>
<path fill="none" stroke="black" d="M778.03,-391.76C770.74,-400.42 761.91,-409.78 752.65,-417 742.17,-425.16 729.51,-432.29 717.96,-437.94"/>
<polygon fill="black" stroke="black" points="780.94,-393.73 784.52,-383.75 775.5,-389.32 780.94,-393.73"/>
<text text-anchor="middle" x="821.15" y="-405.8" font-family="Times,serif" font-size="14.00">अत्यन्तसंयोग_सम्बन्धः</text>
</g>
</g>
</svg>
