<?xml version="1.0" encoding="UTF-8" standalone="no"?>
<!DOCTYPE svg PUBLIC "-//W3C//DTD SVG 1.1//EN"
 "http://www.w3.org/Graphics/SVG/1.1/DTD/svg11.dtd">
<!-- Generated by graphviz version 2.43.0 (0)
 -->
<!-- Title: G Pages: 1 -->
<svg width="499pt" height="408pt"
 viewBox="0.00 0.00 499.00 408.00" xmlns="http://www.w3.org/2000/svg" xmlns:xlink="http://www.w3.org/1999/xlink">
<g id="graph0" class="graph" transform="scale(1 1) rotate(0) translate(4 404)">
<title>G</title>
<polygon fill="#fffacd" stroke="transparent" points="-4,4 -4,-404 495,-404 495,4 -4,4"/>
<g id="clust1" class="cluster">
<title>cluster_1</title>
<polygon fill="#fffacd" stroke="black" points="345,-182 345,-321 483,-321 483,-182 345,-182"/>
</g>
<g id="clust2" class="cluster">
<title>cluster_2</title>
<polygon fill="#fffacd" stroke="black" points="8,-8 8,-147 240,-147 240,-8 8,-8"/>
</g>
<g id="clust3" class="cluster">
<title>cluster_3</title>
<polygon fill="#fffacd" stroke="black" points="220,-182 220,-234 328,-234 328,-182 220,-182"/>
</g>
<!-- Node3_1 -->
<g id="node1" class="node">
<title>Node3_1</title>
<ellipse fill="#40e0d0" stroke="#40e0d0" cx="414" cy="-208" rx="61.19" ry="18"/>
<text text-anchor="middle" x="414" y="-204.3" font-family="Times,serif" font-size="14.00">अनुव्रजता(3.1)</text>
</g>
<!-- Node4_1 -->
<g id="node2" class="node">
<title>Node4_1</title>
<ellipse fill="#40e0d0" stroke="#40e0d0" cx="406" cy="-295" rx="44.39" ry="18"/>
<text text-anchor="middle" x="406" y="-291.3" font-family="Times,serif" font-size="14.00">मया(4.1)</text>
</g>
<!-- Node3_1&#45;&gt;Node4_1 -->
<g id="edge4" class="edge">
<title>Node3_1&#45;&gt;Node4_1</title>
<path fill="none" stroke="black" d="M411.43,-236.27C410.18,-249.58 408.71,-265.19 407.62,-276.82"/>
<polygon fill="black" stroke="black" points="414.93,-236.49 412.38,-226.2 407.96,-235.83 414.93,-236.49"/>
<text text-anchor="middle" x="432.5" y="-247.8" font-family="Times,serif" font-size="14.00">विशेषणम्</text>
</g>
<!-- Node11_1 -->
<g id="node9" class="node">
<title>Node11_1</title>
<ellipse fill="#00bfff" stroke="#00bfff" cx="274" cy="-382" rx="57.39" ry="18"/>
<text text-anchor="middle" x="274" y="-378.3" font-family="Times,serif" font-size="14.00">दृष्टानि(11.1)</text>
</g>
<!-- Node4_1&#45;&gt;Node11_1 -->
<g id="edge5" class="edge">
<title>Node4_1&#45;&gt;Node11_1</title>
<path fill="none" stroke="black" d="M374.77,-316.11C351.33,-331.2 319.71,-351.57 298.18,-365.43"/>
<polygon fill="black" stroke="black" points="376.8,-318.97 383.31,-310.61 373.01,-313.08 376.8,-318.97"/>
<text text-anchor="middle" x="358" y="-334.8" font-family="Times,serif" font-size="14.00">कर्ता</text>
</g>
<!-- Node5_1 -->
<g id="node3" class="node">
<title>Node5_1</title>
<ellipse fill="#87ceeb" stroke="#87ceeb" cx="185" cy="-34" rx="46.59" ry="18"/>
<text text-anchor="middle" x="185" y="-30.3" font-family="Times,serif" font-size="14.00">तयोः(5.1)</text>
</g>
<!-- Node7_1 -->
<g id="node4" class="node">
<title>Node7_1</title>
<ellipse fill="#87ceeb" stroke="#87ceeb" cx="182" cy="-121" rx="49.29" ry="18"/>
<text text-anchor="middle" x="182" y="-117.3" font-family="Times,serif" font-size="14.00">देव्योः(7.1)</text>
</g>
<!-- Node5_1&#45;&gt;Node7_1 -->
<g id="edge6" class="edge">
<title>Node5_1&#45;&gt;Node7_1</title>
<path fill="none" stroke="black" d="M184.04,-62.27C183.57,-75.58 183.02,-91.19 182.61,-102.82"/>
<polygon fill="black" stroke="black" points="187.54,-62.32 184.39,-52.2 180.54,-62.07 187.54,-62.32"/>
<text text-anchor="middle" x="205.5" y="-73.8" font-family="Times,serif" font-size="14.00">विशेषणम्</text>
</g>
<!-- Node8_1 -->
<g id="node6" class="node">
<title>Node8_1</title>
<ellipse fill="#87ceeb" stroke="#87ceeb" cx="274" cy="-208" rx="46.29" ry="18"/>
<text text-anchor="middle" x="274" y="-204.3" font-family="Times,serif" font-size="14.00">राज्ञः(8.1)</text>
</g>
<!-- Node7_1&#45;&gt;Node8_1 -->
<g id="edge8" class="edge">
<title>Node7_1&#45;&gt;Node8_1</title>
<path fill="none" stroke="black" d="M203.59,-145.78C211.64,-154.29 221.01,-163.81 230,-172 237.36,-178.71 245.84,-185.62 253.38,-191.52"/>
<polygon fill="black" stroke="black" points="205.99,-143.22 196.61,-138.3 200.87,-148 205.99,-143.22"/>
<text text-anchor="middle" x="252.5" y="-160.8" font-family="Times,serif" font-size="14.00">समुच्चितः</text>
</g>
<!-- Node6_1 -->
<g id="node5" class="node">
<title>Node6_1</title>
<ellipse fill="#87ceeb" stroke="#87ceeb" cx="68" cy="-34" rx="51.99" ry="18"/>
<text text-anchor="middle" x="68" y="-30.3" font-family="Times,serif" font-size="14.00">उभयोः(6.1)</text>
</g>
<!-- Node6_1&#45;&gt;Node7_1 -->
<g id="edge7" class="edge">
<title>Node6_1&#45;&gt;Node7_1</title>
<path fill="none" stroke="black" d="M96.49,-56.77C108.09,-65.58 121.65,-75.82 134,-85 142.61,-91.4 152.14,-98.37 160.43,-104.4"/>
<polygon fill="black" stroke="black" points="98.52,-53.91 88.44,-50.64 94.28,-59.48 98.52,-53.91"/>
<text text-anchor="middle" x="156.5" y="-73.8" font-family="Times,serif" font-size="14.00">विशेषणम्</text>
</g>
<!-- Node10_1 -->
<g id="node11" class="node">
<title>Node10_1</title>
<ellipse fill="#93db70" stroke="#93db70" cx="274" cy="-295" rx="63.09" ry="18"/>
<text text-anchor="middle" x="274" y="-291.3" font-family="Times,serif" font-size="14.00">कलेवरम्(10.1)</text>
</g>
<!-- Node8_1&#45;&gt;Node10_1 -->
<g id="edge9" class="edge">
<title>Node8_1&#45;&gt;Node10_1</title>
<path fill="none" stroke="black" d="M274,-236.27C274,-249.58 274,-265.19 274,-276.82"/>
<polygon fill="black" stroke="black" points="277.5,-236.2 274,-226.2 270.5,-236.2 277.5,-236.2"/>
<text text-anchor="middle" x="301.5" y="-247.8" font-family="Times,serif" font-size="14.00">षष्ठीसम्बन्धः</text>
</g>
<!-- Node1_1 -->
<g id="node7" class="node">
<title>Node1_1</title>
<ellipse fill="#ffff00" stroke="#ffff00" cx="143" cy="-208" rx="49.29" ry="18"/>
<text text-anchor="middle" x="143" y="-204.3" font-family="Times,serif" font-size="14.00">भरत&#45;(1.1)</text>
</g>
<!-- Node1_2 -->
<g id="node8" class="node">
<title>Node1_2</title>
<ellipse fill="#6fffc3" stroke="#6fffc3" cx="143" cy="-295" rx="50.09" ry="18"/>
<text text-anchor="middle" x="143" y="-291.3" font-family="Times,serif" font-size="14.00">ऋषभ(1.2)</text>
</g>
<!-- Node1_1&#45;&gt;Node1_2 -->
<g id="edge1" class="edge">
<title>Node1_1&#45;&gt;Node1_2</title>
<path fill="none" stroke="black" d="M143,-236.27C143,-249.58 143,-265.19 143,-276.82"/>
<polygon fill="black" stroke="black" points="146.5,-236.2 143,-226.2 139.5,-236.2 146.5,-236.2"/>
<text text-anchor="middle" x="160" y="-247.8" font-family="Times,serif" font-size="14.00">समासः</text>
</g>
<!-- Node1_2&#45;&gt;Node11_1 -->
<g id="edge2" class="edge">
<title>Node1_2&#45;&gt;Node11_1</title>
<path fill="none" stroke="black" d="M174.62,-316.51C197.89,-331.62 229.05,-351.83 250.23,-365.58"/>
<polygon fill="black" stroke="black" points="176.41,-313.51 166.12,-311 172.6,-319.38 176.41,-313.51"/>
<text text-anchor="middle" x="237" y="-334.8" font-family="Times,serif" font-size="14.00">सम्बोध्यः</text>
</g>
<!-- Node2_1 -->
<g id="node10" class="node">
<title>Node2_1</title>
<ellipse fill="#40e0d0" stroke="#40e0d0" cx="414" cy="-121" rx="57.69" ry="18"/>
<text text-anchor="middle" x="414" y="-117.3" font-family="Times,serif" font-size="14.00">यदृच्छया(2.1)</text>
</g>
<!-- Node2_1&#45;&gt;Node3_1 -->
<g id="edge3" class="edge">
<title>Node2_1&#45;&gt;Node3_1</title>
<path fill="none" stroke="black" d="M414,-149.27C414,-162.58 414,-178.19 414,-189.82"/>
<polygon fill="black" stroke="black" points="417.5,-149.2 414,-139.2 410.5,-149.2 417.5,-149.2"/>
<text text-anchor="middle" x="423.5" y="-160.8" font-family="Times,serif" font-size="14.00">हेतुः</text>
</g>
<!-- Node10_1&#45;&gt;Node11_1 -->
<g id="edge11" class="edge">
<title>Node10_1&#45;&gt;Node11_1</title>
<path fill="none" stroke="black" d="M274,-323.27C274,-336.58 274,-352.19 274,-363.82"/>
<polygon fill="black" stroke="black" points="277.5,-323.2 274,-313.2 270.5,-323.2 277.5,-323.2"/>
<text text-anchor="middle" x="283" y="-334.8" font-family="Times,serif" font-size="14.00">कर्म</text>
</g>
<!-- Node9_1 -->
<g id="node12" class="node">
<title>Node9_1</title>
<ellipse fill="#ff99ff" stroke="#ff99ff" cx="287" cy="-121" rx="37.89" ry="18"/>
<text text-anchor="middle" x="287" y="-117.3" font-family="Times,serif" font-size="14.00">च(9.1)</text>
</g>
<!-- Node9_1&#45;&gt;Node8_1 -->
<g id="edge10" class="edge">
<title>Node9_1&#45;&gt;Node8_1</title>
<path fill="none" stroke="black" d="M282.83,-149.27C280.79,-162.58 278.41,-178.19 276.63,-189.82"/>
<polygon fill="black" stroke="black" points="286.32,-149.62 284.37,-139.2 279.4,-148.56 286.32,-149.62"/>
<text text-anchor="middle" x="319" y="-160.8" font-family="Times,serif" font-size="14.00">समुच्चय_द्योतकः</text>
</g>
</g>
</svg>
