<?xml version="1.0" encoding="UTF-8" standalone="no"?>
<!DOCTYPE svg PUBLIC "-//W3C//DTD SVG 1.1//EN"
 "http://www.w3.org/Graphics/SVG/1.1/DTD/svg11.dtd">
<!-- Generated by graphviz version 2.43.0 (0)
 -->
<!-- Title: G Pages: 1 -->
<svg width="634pt" height="479pt"
 viewBox="0.00 0.00 634.00 479.00" xmlns="http://www.w3.org/2000/svg" xmlns:xlink="http://www.w3.org/1999/xlink">
<g id="graph0" class="graph" transform="scale(1 1) rotate(0) translate(4 475)">
<title>G</title>
<polygon fill="#fffacd" stroke="transparent" points="-4,4 -4,-475 630,-475 630,4 -4,4"/>
<g id="clust1" class="cluster">
<title>cluster_1</title>
<polygon fill="#fffacd" stroke="black" points="288,-253 288,-392 618,-392 618,-253 288,-253"/>
</g>
<g id="clust2" class="cluster">
<title>cluster_2</title>
<polygon fill="#fffacd" stroke="black" points="8,-253 8,-392 156,-392 156,-253 8,-253"/>
</g>
<!-- Node1_1 -->
<g id="node1" class="node">
<title>Node1_1</title>
<ellipse fill="#00bfff" stroke="#00bfff" cx="570" cy="-279" rx="40.09" ry="18"/>
<text text-anchor="middle" x="570" y="-275.3" font-family="Times,serif" font-size="14.00">सः(1.1)</text>
</g>
<!-- Node10_1 -->
<g id="node2" class="node">
<title>Node10_1</title>
<ellipse fill="#00bfff" stroke="#00bfff" cx="384" cy="-366" rx="61.99" ry="18"/>
<text text-anchor="middle" x="384" y="-362.3" font-family="Times,serif" font-size="14.00">सञ्जयः(10.1)</text>
</g>
<!-- Node1_1&#45;&gt;Node10_1 -->
<g id="edge1" class="edge">
<title>Node1_1&#45;&gt;Node10_1</title>
<path fill="none" stroke="black" d="M537.08,-298.29C518.75,-308.17 495.38,-320.31 474,-330 456.9,-337.75 437.53,-345.42 421.16,-351.59"/>
<polygon fill="black" stroke="black" points="538.79,-301.34 545.9,-293.49 535.44,-295.19 538.79,-301.34"/>
<text text-anchor="middle" x="525.5" y="-318.8" font-family="Times,serif" font-size="14.00">विशेषणम्</text>
</g>
<!-- Node13_1 -->
<g id="node9" class="node">
<title>Node13_1</title>
<ellipse fill="#ff1975" stroke="#ff1975" cx="223" cy="-453" rx="55.49" ry="18"/>
<text text-anchor="middle" x="223" y="-449.3" font-family="Times,serif" font-size="14.00">प्रययौ(13.1)</text>
</g>
<!-- Node10_1&#45;&gt;Node13_1 -->
<g id="edge10" class="edge">
<title>Node10_1&#45;&gt;Node13_1</title>
<path fill="none" stroke="black" d="M346.5,-386.8C317.26,-402.23 277.31,-423.33 250.86,-437.29"/>
<polygon fill="black" stroke="black" points="348.38,-389.76 355.59,-382 345.11,-383.57 348.38,-389.76"/>
<text text-anchor="middle" x="324" y="-405.8" font-family="Times,serif" font-size="14.00">कर्ता</text>
</g>
<!-- Node2_1 -->
<g id="node3" class="node">
<title>Node2_1</title>
<ellipse fill="#00bfff" stroke="#00bfff" cx="458" cy="-279" rx="53.89" ry="18"/>
<text text-anchor="middle" x="458" y="-275.3" font-family="Times,serif" font-size="14.00">तेजस्वी(2.1)</text>
</g>
<!-- Node2_1&#45;&gt;Node10_1 -->
<g id="edge2" class="edge">
<title>Node2_1&#45;&gt;Node10_1</title>
<path fill="none" stroke="black" d="M436.88,-304.26C424.59,-318.37 409.41,-335.81 398.48,-348.37"/>
<polygon fill="black" stroke="black" points="439.81,-306.23 443.73,-296.39 434.53,-301.63 439.81,-306.23"/>
<text text-anchor="middle" x="447.5" y="-318.8" font-family="Times,serif" font-size="14.00">विशेषणम्</text>
</g>
<!-- Node9_1 -->
<g id="node4" class="node">
<title>Node9_1</title>
<ellipse fill="#00bfff" stroke="#00bfff" cx="341" cy="-279" rx="45.49" ry="18"/>
<text text-anchor="middle" x="341" y="-275.3" font-family="Times,serif" font-size="14.00">सूतः(9.1)</text>
</g>
<!-- Node9_1&#45;&gt;Node10_1 -->
<g id="edge9" class="edge">
<title>Node9_1&#45;&gt;Node10_1</title>
<path fill="none" stroke="black" d="M354.02,-305.74C360.94,-319.42 369.26,-335.86 375.38,-347.95"/>
<polygon fill="black" stroke="black" points="357.13,-304.14 349.5,-296.79 350.89,-307.3 357.13,-304.14"/>
<text text-anchor="middle" x="387.5" y="-318.8" font-family="Times,serif" font-size="14.00">विशेषणम्</text>
</g>
<!-- Node11_2 -->
<g id="node5" class="node">
<title>Node11_2</title>
<ellipse fill="#93db70" stroke="#93db70" cx="82" cy="-279" rx="51.99" ry="18"/>
<text text-anchor="middle" x="82" y="-275.3" font-family="Times,serif" font-size="14.00">धरम्(11.2)</text>
</g>
<!-- Node12_1 -->
<g id="node6" class="node">
<title>Node12_1</title>
<ellipse fill="#93db70" stroke="#93db70" cx="82" cy="-366" rx="66.09" ry="18"/>
<text text-anchor="middle" x="82" y="-362.3" font-family="Times,serif" font-size="14.00">हिमवन्तम्(12.1)</text>
</g>
<!-- Node11_2&#45;&gt;Node12_1 -->
<g id="edge12" class="edge">
<title>Node11_2&#45;&gt;Node12_1</title>
<path fill="none" stroke="black" d="M82,-307.27C82,-320.58 82,-336.19 82,-347.82"/>
<polygon fill="black" stroke="black" points="85.5,-307.2 82,-297.2 78.5,-307.2 85.5,-307.2"/>
<text text-anchor="middle" x="104.5" y="-318.8" font-family="Times,serif" font-size="14.00">विशेषणम्</text>
</g>
<!-- Node12_1&#45;&gt;Node13_1 -->
<g id="edge13" class="edge">
<title>Node12_1&#45;&gt;Node13_1</title>
<path fill="none" stroke="black" d="M116.71,-387.92C141.82,-403.06 175.18,-423.17 197.78,-436.79"/>
<polygon fill="black" stroke="black" points="118.23,-384.76 107.86,-382.59 114.62,-390.75 118.23,-384.76"/>
<text text-anchor="middle" x="170" y="-405.8" font-family="Times,serif" font-size="14.00">कर्म</text>
</g>
<!-- Node3_1 -->
<g id="node7" class="node">
<title>Node3_1</title>
<ellipse fill="#93db70" stroke="#93db70" cx="223" cy="-279" rx="44.39" ry="18"/>
<text text-anchor="middle" x="223" y="-275.3" font-family="Times,serif" font-size="14.00">तान्(3.1)</text>
</g>
<!-- Node4_1 -->
<g id="node8" class="node">
<title>Node4_1</title>
<ellipse fill="#ff99ff" stroke="#ff99ff" cx="223" cy="-366" rx="56.59" ry="18"/>
<text text-anchor="middle" x="223" y="-362.3" font-family="Times,serif" font-size="14.00">आमन्त्र्य(4.1)</text>
</g>
<!-- Node3_1&#45;&gt;Node4_1 -->
<g id="edge3" class="edge">
<title>Node3_1&#45;&gt;Node4_1</title>
<path fill="none" stroke="black" d="M223,-307.27C223,-320.58 223,-336.19 223,-347.82"/>
<polygon fill="black" stroke="black" points="226.5,-307.2 223,-297.2 219.5,-307.2 226.5,-307.2"/>
<text text-anchor="middle" x="232" y="-318.8" font-family="Times,serif" font-size="14.00">कर्म</text>
</g>
<!-- Node4_1&#45;&gt;Node13_1 -->
<g id="edge4" class="edge">
<title>Node4_1&#45;&gt;Node13_1</title>
<path fill="none" stroke="black" d="M223,-394.27C223,-407.58 223,-423.19 223,-434.82"/>
<polygon fill="black" stroke="black" points="226.5,-394.2 223,-384.2 219.5,-394.2 226.5,-394.2"/>
<text text-anchor="middle" x="243.5" y="-405.8" font-family="Times,serif" font-size="14.00">पूर्वकालः</text>
</g>
<!-- Node5_1 -->
<g id="node10" class="node">
<title>Node5_1</title>
<ellipse fill="#93db70" stroke="#93db70" cx="265" cy="-105" rx="46.59" ry="18"/>
<text text-anchor="middle" x="265" y="-101.3" font-family="Times,serif" font-size="14.00">एतत्(5.1)</text>
</g>
<!-- Node8_1 -->
<g id="node11" class="node">
<title>Node8_1</title>
<ellipse fill="#ff99ff" stroke="#ff99ff" cx="341" cy="-192" rx="48.99" ry="18"/>
<text text-anchor="middle" x="341" y="-188.3" font-family="Times,serif" font-size="14.00">निवेद्य(8.1)</text>
</g>
<!-- Node5_1&#45;&gt;Node8_1 -->
<g id="edge5" class="edge">
<title>Node5_1&#45;&gt;Node8_1</title>
<path fill="none" stroke="black" d="M286.38,-129.91C299.15,-144.2 315.05,-161.98 326.39,-174.66"/>
<polygon fill="black" stroke="black" points="288.93,-127.51 279.65,-122.39 283.71,-132.18 288.93,-127.51"/>
<text text-anchor="middle" x="316" y="-144.8" font-family="Times,serif" font-size="14.00">कर्म</text>
</g>
<!-- Node8_1&#45;&gt;Node9_1 -->
<g id="edge8" class="edge">
<title>Node8_1&#45;&gt;Node9_1</title>
<path fill="none" stroke="black" d="M341,-220.27C341,-233.58 341,-249.19 341,-260.82"/>
<polygon fill="black" stroke="black" points="344.5,-220.2 341,-210.2 337.5,-220.2 344.5,-220.2"/>
<text text-anchor="middle" x="361.5" y="-231.8" font-family="Times,serif" font-size="14.00">पूर्वकालः</text>
</g>
<!-- Node6_1 -->
<g id="node12" class="node">
<title>Node6_1</title>
<ellipse fill="#ff99ff" stroke="#ff99ff" cx="265" cy="-18" rx="37.89" ry="18"/>
<text text-anchor="middle" x="265" y="-14.3" font-family="Times,serif" font-size="14.00">च(6.1)</text>
</g>
<!-- Node6_1&#45;&gt;Node5_1 -->
<g id="edge6" class="edge">
<title>Node6_1&#45;&gt;Node5_1</title>
<path fill="none" stroke="black" d="M265,-46.27C265,-59.58 265,-75.19 265,-86.82"/>
<polygon fill="black" stroke="black" points="268.5,-46.2 265,-36.2 261.5,-46.2 268.5,-46.2"/>
<text text-anchor="middle" x="283.5" y="-57.8" font-family="Times,serif" font-size="14.00">सम्बन्धः</text>
</g>
<!-- Node7_1 -->
<g id="node13" class="node">
<title>Node7_1</title>
<ellipse fill="#ff99ff" stroke="#ff99ff" cx="380" cy="-105" rx="50.89" ry="18"/>
<text text-anchor="middle" x="380" y="-101.3" font-family="Times,serif" font-size="14.00">सर्वशः(7.1)</text>
</g>
<!-- Node7_1&#45;&gt;Node8_1 -->
<g id="edge7" class="edge">
<title>Node7_1&#45;&gt;Node8_1</title>
<path fill="none" stroke="black" d="M368.01,-132.13C361.77,-145.73 354.32,-161.98 348.82,-173.95"/>
<polygon fill="black" stroke="black" points="371.31,-133.34 372.29,-122.79 364.94,-130.42 371.31,-133.34"/>
<text text-anchor="middle" x="397" y="-144.8" font-family="Times,serif" font-size="14.00">क्रियाविशेषणम्</text>
</g>
<!-- Node11_1 -->
<g id="node14" class="node">
<title>Node11_1</title>
<ellipse fill="#ffff00" stroke="#ffff00" cx="82" cy="-192" rx="52.79" ry="18"/>
<text text-anchor="middle" x="82" y="-188.3" font-family="Times,serif" font-size="14.00">मही&#45;(11.1)</text>
</g>
<!-- Node11_1&#45;&gt;Node11_2 -->
<g id="edge11" class="edge">
<title>Node11_1&#45;&gt;Node11_2</title>
<path fill="none" stroke="black" d="M82,-220.27C82,-233.58 82,-249.19 82,-260.82"/>
<polygon fill="black" stroke="black" points="85.5,-220.2 82,-210.2 78.5,-220.2 85.5,-220.2"/>
<text text-anchor="middle" x="99" y="-231.8" font-family="Times,serif" font-size="14.00">समासः</text>
</g>
</g>
</svg>
