<?xml version="1.0" encoding="UTF-8" standalone="no"?>
<!DOCTYPE svg PUBLIC "-//W3C//DTD SVG 1.1//EN"
 "http://www.w3.org/Graphics/SVG/1.1/DTD/svg11.dtd">
<!-- Generated by graphviz version 2.43.0 (0)
 -->
<!-- Title: G Pages: 1 -->
<svg width="781pt" height="408pt"
 viewBox="0.00 0.00 780.95 408.00" xmlns="http://www.w3.org/2000/svg" xmlns:xlink="http://www.w3.org/1999/xlink">
<g id="graph0" class="graph" transform="scale(1 1) rotate(0) translate(4 404)">
<title>G</title>
<polygon fill="#fffacd" stroke="transparent" points="-4,4 -4,-404 776.95,-404 776.95,4 -4,4"/>
<g id="clust1" class="cluster">
<title>cluster_1</title>
<polygon fill="#fffacd" stroke="black" points="8,-8 8,-147 118,-147 118,-8 8,-8"/>
</g>
<g id="clust2" class="cluster">
<title>cluster_2</title>
<polygon fill="#fffacd" stroke="black" points="221,-8 221,-147 337,-147 337,-8 221,-8"/>
</g>
<g id="clust3" class="cluster">
<title>cluster_3</title>
<polygon fill="#fffacd" stroke="black" points="427,-95 427,-234 567,-234 567,-95 427,-95"/>
</g>
<!-- Node1_1 -->
<g id="node1" class="node">
<title>Node1_1</title>
<ellipse fill="#00bfff" stroke="#00bfff" cx="63" cy="-34" rx="38.19" ry="18"/>
<text text-anchor="middle" x="63" y="-30.3" font-family="Times,serif" font-size="14.00">के(1.1)</text>
</g>
<!-- Node2_1 -->
<g id="node2" class="node">
<title>Node2_1</title>
<ellipse fill="#00bfff" stroke="#00bfff" cx="63" cy="-121" rx="47.39" ry="18"/>
<text text-anchor="middle" x="63" y="-117.3" font-family="Times,serif" font-size="14.00">देशाः(2.1)</text>
</g>
<!-- Node1_1&#45;&gt;Node2_1 -->
<g id="edge1" class="edge">
<title>Node1_1&#45;&gt;Node2_1</title>
<path fill="none" stroke="black" d="M63,-62.27C63,-75.58 63,-91.19 63,-102.82"/>
<polygon fill="black" stroke="black" points="66.5,-62.2 63,-52.2 59.5,-62.2 66.5,-62.2"/>
<text text-anchor="middle" x="85.5" y="-73.8" font-family="Times,serif" font-size="14.00">विशेषणम्</text>
</g>
<!-- Node3_1 -->
<g id="node7" class="node">
<title>Node3_1</title>
<ellipse fill="#00bfff" stroke="#00bfff" cx="146" cy="-208" rx="57.39" ry="18"/>
<text text-anchor="middle" x="146" y="-204.3" font-family="Times,serif" font-size="14.00">परिदृष्टाः(3.1)</text>
</g>
<!-- Node2_1&#45;&gt;Node3_1 -->
<g id="edge2" class="edge">
<title>Node2_1&#45;&gt;Node3_1</title>
<path fill="none" stroke="black" d="M86.35,-145.91C100.3,-160.2 117.66,-177.98 130.05,-190.66"/>
<polygon fill="black" stroke="black" points="88.49,-143.1 79,-138.39 83.49,-147.99 88.49,-143.1"/>
<text text-anchor="middle" x="119" y="-160.8" font-family="Times,serif" font-size="14.00">कर्म</text>
</g>
<!-- Node5_1 -->
<g id="node3" class="node">
<title>Node5_1</title>
<ellipse fill="#ff99ff" stroke="#ff99ff" cx="279" cy="-34" rx="50.09" ry="18"/>
<text text-anchor="middle" x="279" y="-30.3" font-family="Times,serif" font-size="14.00">किञ्च(5.1)</text>
</g>
<!-- Node6_1 -->
<g id="node4" class="node">
<title>Node6_1</title>
<ellipse fill="#93db70" stroke="#93db70" cx="280" cy="-121" rx="46.29" ry="18"/>
<text text-anchor="middle" x="280" y="-117.3" font-family="Times,serif" font-size="14.00">कार्यं(6.1)</text>
</g>
<!-- Node5_1&#45;&gt;Node6_1 -->
<g id="edge4" class="edge">
<title>Node5_1&#45;&gt;Node6_1</title>
<path fill="none" stroke="black" d="M279.32,-62.27C279.48,-75.58 279.66,-91.19 279.8,-102.82"/>
<polygon fill="black" stroke="black" points="282.82,-62.16 279.2,-52.2 275.82,-62.24 282.82,-62.16"/>
<text text-anchor="middle" x="302.5" y="-73.8" font-family="Times,serif" font-size="14.00">विशेषणम्</text>
</g>
<!-- Node7_1 -->
<g id="node9" class="node">
<title>Node7_1</title>
<ellipse fill="#ff1975" stroke="#ff1975" cx="305" cy="-208" rx="51.99" ry="18"/>
<text text-anchor="middle" x="305" y="-204.3" font-family="Times,serif" font-size="14.00">करोमि(7.1)</text>
</g>
<!-- Node6_1&#45;&gt;Node7_1 -->
<g id="edge5" class="edge">
<title>Node6_1&#45;&gt;Node7_1</title>
<path fill="none" stroke="black" d="M287.9,-148.87C291.84,-162.27 296.49,-178.08 299.95,-189.82"/>
<polygon fill="black" stroke="black" points="291.24,-147.81 285.06,-139.2 284.52,-149.78 291.24,-147.81"/>
<text text-anchor="middle" x="303" y="-160.8" font-family="Times,serif" font-size="14.00">कर्म</text>
</g>
<!-- Node15_1 -->
<g id="node5" class="node">
<title>Node15_1</title>
<ellipse fill="#00bfff" stroke="#00bfff" cx="497" cy="-121" rx="52.79" ry="18"/>
<text text-anchor="middle" x="497" y="-117.3" font-family="Times,serif" font-size="14.00">प्रियः(15.1)</text>
</g>
<!-- Node16_1 -->
<g id="node6" class="node">
<title>Node16_1</title>
<ellipse fill="#00bfff" stroke="#00bfff" cx="497" cy="-208" rx="61.99" ry="18"/>
<text text-anchor="middle" x="497" y="-204.3" font-family="Times,serif" font-size="14.00">अतिथिः(16.1)</text>
</g>
<!-- Node15_1&#45;&gt;Node16_1 -->
<g id="edge13" class="edge">
<title>Node15_1&#45;&gt;Node16_1</title>
<path fill="none" stroke="black" d="M497,-149.27C497,-162.58 497,-178.19 497,-189.82"/>
<polygon fill="black" stroke="black" points="500.5,-149.2 497,-139.2 493.5,-149.2 500.5,-149.2"/>
<text text-anchor="middle" x="519.5" y="-160.8" font-family="Times,serif" font-size="14.00">विशेषणम्</text>
</g>
<!-- Node12_1 -->
<g id="node15" class="node">
<title>Node12_1</title>
<ellipse fill="#00bfff" stroke="#00bfff" cx="497" cy="-295" rx="50.09" ry="18"/>
<text text-anchor="middle" x="497" y="-291.3" font-family="Times,serif" font-size="14.00">त्वम्(12.1)</text>
</g>
<!-- Node16_1&#45;&gt;Node12_1 -->
<g id="edge14" class="edge">
<title>Node16_1&#45;&gt;Node12_1</title>
<path fill="none" stroke="black" d="M497,-236.27C497,-249.58 497,-265.19 497,-276.82"/>
<polygon fill="black" stroke="black" points="500.5,-236.2 497,-226.2 493.5,-236.2 500.5,-236.2"/>
<text text-anchor="middle" x="544" y="-247.8" font-family="Times,serif" font-size="14.00">कर्तृसमानाधिकरणम्</text>
</g>
<!-- Node4_1 -->
<g id="node8" class="node">
<title>Node4_1</title>
<ellipse fill="#87ceeb" stroke="#87ceeb" cx="165" cy="-121" rx="37.09" ry="18"/>
<text text-anchor="middle" x="165" y="-117.3" font-family="Times,serif" font-size="14.00">ते(4.1)</text>
</g>
<!-- Node4_1&#45;&gt;Node3_1 -->
<g id="edge3" class="edge">
<title>Node4_1&#45;&gt;Node3_1</title>
<path fill="none" stroke="black" d="M158.91,-149.27C155.93,-162.58 152.44,-178.19 149.84,-189.82"/>
<polygon fill="black" stroke="black" points="162.39,-149.72 161.16,-139.2 155.56,-148.2 162.39,-149.72"/>
<text text-anchor="middle" x="175.5" y="-160.8" font-family="Times,serif" font-size="14.00">सम्बन्धः</text>
</g>
<!-- Node8_1 -->
<g id="node10" class="node">
<title>Node8_1</title>
<ellipse fill="#87ceeb" stroke="#87ceeb" cx="382" cy="-121" rx="37.09" ry="18"/>
<text text-anchor="middle" x="382" y="-117.3" font-family="Times,serif" font-size="14.00">ते(8.1)</text>
</g>
<!-- Node8_1&#45;&gt;Node7_1 -->
<g id="edge6" class="edge">
<title>Node8_1&#45;&gt;Node7_1</title>
<path fill="none" stroke="black" d="M360.71,-145.5C347.76,-159.8 331.54,-177.71 319.94,-190.5"/>
<polygon fill="black" stroke="black" points="363.4,-147.75 367.52,-137.99 358.21,-143.05 363.4,-147.75"/>
<text text-anchor="middle" x="365.5" y="-160.8" font-family="Times,serif" font-size="14.00">सम्बन्ध</text>
</g>
<!-- Node9_1 -->
<g id="node11" class="node">
<title>Node9_1</title>
<ellipse fill="#93db70" stroke="#93db70" cx="607" cy="-295" rx="42.49" ry="18"/>
<text text-anchor="middle" x="607" y="-291.3" font-family="Times,serif" font-size="14.00">तत्(9.1)</text>
</g>
<!-- Node10_1 -->
<g id="node12" class="node">
<title>Node10_1</title>
<ellipse fill="#ff1975" stroke="#ff1975" cx="607" cy="-382" rx="49.29" ry="18"/>
<text text-anchor="middle" x="607" y="-378.3" font-family="Times,serif" font-size="14.00">ब्रूहि(10.1)</text>
</g>
<!-- Node9_1&#45;&gt;Node10_1 -->
<g id="edge7" class="edge">
<title>Node9_1&#45;&gt;Node10_1</title>
<path fill="none" stroke="black" d="M607,-323.27C607,-336.58 607,-352.19 607,-363.82"/>
<polygon fill="black" stroke="black" points="610.5,-323.2 607,-313.2 603.5,-323.2 610.5,-323.2"/>
<text text-anchor="middle" x="616" y="-334.8" font-family="Times,serif" font-size="14.00">कर्म</text>
</g>
<!-- Node11_1 -->
<g id="node13" class="node">
<title>Node11_1</title>
<ellipse fill="#ffff00" stroke="#ffff00" cx="719" cy="-208" rx="53.89" ry="18"/>
<text text-anchor="middle" x="719" y="-204.3" font-family="Times,serif" font-size="14.00">द्विज&#45;(11.1)</text>
</g>
<!-- Node11_2 -->
<g id="node14" class="node">
<title>Node11_2</title>
<ellipse fill="#6fffc3" stroke="#6fffc3" cx="719" cy="-295" rx="51.99" ry="18"/>
<text text-anchor="middle" x="719" y="-291.3" font-family="Times,serif" font-size="14.00">मुख्य(11.2)</text>
</g>
<!-- Node11_1&#45;&gt;Node11_2 -->
<g id="edge8" class="edge">
<title>Node11_1&#45;&gt;Node11_2</title>
<path fill="none" stroke="black" d="M719,-236.27C719,-249.58 719,-265.19 719,-276.82"/>
<polygon fill="black" stroke="black" points="722.5,-236.2 719,-226.2 715.5,-236.2 722.5,-236.2"/>
<text text-anchor="middle" x="736" y="-247.8" font-family="Times,serif" font-size="14.00">समासः</text>
</g>
<!-- Node11_2&#45;&gt;Node10_1 -->
<g id="edge9" class="edge">
<title>Node11_2&#45;&gt;Node10_1</title>
<path fill="none" stroke="black" d="M690.43,-317.68C670.74,-332.62 645.06,-352.12 627.41,-365.51"/>
<polygon fill="black" stroke="black" points="692.61,-320.42 698.46,-311.59 688.38,-314.85 692.61,-320.42"/>
<text text-anchor="middle" x="693" y="-334.8" font-family="Times,serif" font-size="14.00">सम्बोधनम्</text>
</g>
<!-- Node12_1&#45;&gt;Node10_1 -->
<g id="edge10" class="edge">
<title>Node12_1&#45;&gt;Node10_1</title>
<path fill="none" stroke="black" d="M525.32,-317.88C544.62,-332.8 569.7,-352.18 586.95,-365.51"/>
<polygon fill="black" stroke="black" points="527.23,-314.94 517.18,-311.59 522.95,-320.47 527.23,-314.94"/>
<text text-anchor="middle" x="569" y="-334.8" font-family="Times,serif" font-size="14.00">कर्ता</text>
</g>
<!-- Node13_1 -->
<g id="node16" class="node">
<title>Node13_1</title>
<ellipse fill="#87ceeb" stroke="#87ceeb" cx="637" cy="-121" rx="61.99" ry="18"/>
<text text-anchor="middle" x="637" y="-117.3" font-family="Times,serif" font-size="14.00">अस्माकं(13.1)</text>
</g>
<!-- Node13_1&#45;&gt;Node16_1 -->
<g id="edge11" class="edge">
<title>Node13_1&#45;&gt;Node16_1</title>
<path fill="none" stroke="black" d="M602.6,-142.89C577.83,-157.92 544.96,-177.88 522.52,-191.51"/>
<polygon fill="black" stroke="black" points="604.59,-145.77 611.32,-137.59 600.96,-139.79 604.59,-145.77"/>
<text text-anchor="middle" x="602.5" y="-160.8" font-family="Times,serif" font-size="14.00">षष्ठीसम्बन्धः</text>
</g>
<!-- Node14_1 -->
<g id="node17" class="node">
<title>Node14_1</title>
<ellipse fill="#ff99ff" stroke="#ff99ff" cx="637" cy="-34" rx="43.59" ry="18"/>
<text text-anchor="middle" x="637" y="-30.3" font-family="Times,serif" font-size="14.00">च(14.1)</text>
</g>
<!-- Node14_1&#45;&gt;Node13_1 -->
<g id="edge12" class="edge">
<title>Node14_1&#45;&gt;Node13_1</title>
<path fill="none" stroke="black" d="M637,-62.27C637,-75.58 637,-91.19 637,-102.82"/>
<polygon fill="black" stroke="black" points="640.5,-62.2 637,-52.2 633.5,-62.2 640.5,-62.2"/>
<text text-anchor="middle" x="655.5" y="-73.8" font-family="Times,serif" font-size="14.00">सम्बन्धः</text>
</g>
</g>
</svg>
