<?xml version="1.0" encoding="UTF-8" standalone="no"?>
<!DOCTYPE svg PUBLIC "-//W3C//DTD SVG 1.1//EN"
 "http://www.w3.org/Graphics/SVG/1.1/DTD/svg11.dtd">
<!-- Generated by graphviz version 2.43.0 (0)
 -->
<!-- Title: G Pages: 1 -->
<svg width="602pt" height="479pt"
 viewBox="0.00 0.00 601.84 479.00" xmlns="http://www.w3.org/2000/svg" xmlns:xlink="http://www.w3.org/1999/xlink">
<g id="graph0" class="graph" transform="scale(1 1) rotate(0) translate(4 475)">
<title>G</title>
<polygon fill="#fffacd" stroke="transparent" points="-4,4 -4,-475 597.84,-475 597.84,4 -4,4"/>
<g id="clust1" class="cluster">
<title>cluster_1</title>
<polygon fill="#fffacd" stroke="black" points="457.84,-79 457.84,-218 585.84,-218 585.84,-79 457.84,-79"/>
</g>
<g id="clust2" class="cluster">
<title>cluster_2</title>
<polygon fill="#fffacd" stroke="black" points="133.84,-166 133.84,-305 351.84,-305 351.84,-166 133.84,-166"/>
</g>
<g id="clust3" class="cluster">
<title>cluster_3</title>
<polygon fill="#fffacd" stroke="black" points="28.84,-79 28.84,-131 144.84,-131 144.84,-79 28.84,-79"/>
</g>
<!-- Node1_2 -->
<g id="node1" class="node">
<title>Node1_2</title>
<ellipse fill="#00bfff" stroke="#00bfff" cx="521.84" cy="-105" rx="48.19" ry="18"/>
<text text-anchor="middle" x="521.84" y="-101.3" font-family="Times,serif" font-size="14.00">भागा(1.2)</text>
</g>
<!-- Node2_1 -->
<g id="node2" class="node">
<title>Node2_1</title>
<ellipse fill="#00bfff" stroke="#00bfff" cx="521.84" cy="-192" rx="55.79" ry="18"/>
<text text-anchor="middle" x="521.84" y="-188.3" font-family="Times,serif" font-size="14.00">गान्धारी(2.1)</text>
</g>
<!-- Node1_2&#45;&gt;Node2_1 -->
<g id="edge2" class="edge">
<title>Node1_2&#45;&gt;Node2_1</title>
<path fill="none" stroke="black" d="M521.84,-133.27C521.84,-146.58 521.84,-162.19 521.84,-173.82"/>
<polygon fill="black" stroke="black" points="525.34,-133.2 521.84,-123.2 518.34,-133.2 525.34,-133.2"/>
<text text-anchor="middle" x="544.34" y="-144.8" font-family="Times,serif" font-size="14.00">विशेषणम्</text>
</g>
<!-- Node10_1 -->
<g id="node3" class="node">
<title>Node10_1</title>
<ellipse fill="#00bfff" stroke="#00bfff" cx="291.84" cy="-279" rx="51.99" ry="18"/>
<text text-anchor="middle" x="291.84" y="-275.3" font-family="Times,serif" font-size="14.00">राजा(10.1)</text>
</g>
<!-- Node2_1&#45;&gt;Node10_1 -->
<g id="edge3" class="edge">
<title>Node2_1&#45;&gt;Node10_1</title>
<path fill="none" stroke="black" d="M492.26,-214.77C477.7,-224.61 459.5,-235.66 441.84,-243 408.63,-256.8 368.91,-265.76 338.69,-271.16"/>
<polygon fill="black" stroke="black" points="494.6,-217.41 500.83,-208.84 490.61,-211.65 494.6,-217.41"/>
<text text-anchor="middle" x="491.34" y="-231.8" font-family="Times,serif" font-size="14.00">समुच्चितः</text>
</g>
<!-- Node13_1 -->
<g id="node12" class="node">
<title>Node13_1</title>
<ellipse fill="#c6e2eb" stroke="#c6e2eb" cx="198.84" cy="-366" rx="65.79" ry="18"/>
<text text-anchor="middle" x="198.84" y="-362.3" font-family="Times,serif" font-size="14.00">समायुक्ते(13.1)</text>
</g>
<!-- Node10_1&#45;&gt;Node13_1 -->
<g id="edge11" class="edge">
<title>Node10_1&#45;&gt;Node13_1</title>
<path fill="none" stroke="black" d="M266.56,-303.11C250.85,-317.47 231.02,-335.59 216.89,-348.5"/>
<polygon fill="black" stroke="black" points="269.33,-305.32 274.35,-295.99 264.61,-300.15 269.33,-305.32"/>
<text text-anchor="middle" x="261.84" y="-318.8" font-family="Times,serif" font-size="14.00">कर्ता</text>
</g>
<!-- Node6_1 -->
<g id="node4" class="node">
<title>Node6_1</title>
<ellipse fill="#00bfff" stroke="#00bfff" cx="186.84" cy="-192" rx="44.69" ry="18"/>
<text text-anchor="middle" x="186.84" y="-188.3" font-family="Times,serif" font-size="14.00">पृथा(6.1)</text>
</g>
<!-- Node6_1&#45;&gt;Node10_1 -->
<g id="edge7" class="edge">
<title>Node6_1&#45;&gt;Node10_1</title>
<path fill="none" stroke="black" d="M212,-215.37C222.08,-224.15 233.88,-234.21 244.84,-243 252.94,-249.49 262.05,-256.37 270.07,-262.29"/>
<polygon fill="black" stroke="black" points="214.16,-212.61 204.34,-208.65 209.55,-217.88 214.16,-212.61"/>
<text text-anchor="middle" x="267.34" y="-231.8" font-family="Times,serif" font-size="14.00">समुच्चितः</text>
</g>
<!-- Node9_1 -->
<g id="node5" class="node">
<title>Node9_1</title>
<ellipse fill="#00bfff" stroke="#00bfff" cx="296.84" cy="-192" rx="46.59" ry="18"/>
<text text-anchor="middle" x="296.84" y="-188.3" font-family="Times,serif" font-size="14.00">पिता(9.1)</text>
</g>
<!-- Node9_1&#45;&gt;Node10_1 -->
<g id="edge10" class="edge">
<title>Node9_1&#45;&gt;Node10_1</title>
<path fill="none" stroke="black" d="M295.24,-220.27C294.46,-233.58 293.54,-249.19 292.86,-260.82"/>
<polygon fill="black" stroke="black" points="298.74,-220.39 295.83,-210.2 291.75,-219.98 298.74,-220.39"/>
<text text-anchor="middle" x="316.34" y="-231.8" font-family="Times,serif" font-size="14.00">विशेषणम्</text>
</g>
<!-- Node5_1 -->
<g id="node6" class="node">
<title>Node5_1</title>
<ellipse fill="#00bfff" stroke="#00bfff" cx="86.84" cy="-105" rx="50.09" ry="18"/>
<text text-anchor="middle" x="86.84" y="-101.3" font-family="Times,serif" font-size="14.00">जननी(5.1)</text>
</g>
<!-- Node5_1&#45;&gt;Node6_1 -->
<g id="edge6" class="edge">
<title>Node5_1&#45;&gt;Node6_1</title>
<path fill="none" stroke="black" d="M110.55,-129.48C119.52,-138.07 129.95,-147.7 139.84,-156 147.95,-162.8 157.23,-169.85 165.38,-175.83"/>
<polygon fill="black" stroke="black" points="112.72,-126.71 103.1,-122.27 107.85,-131.74 112.72,-126.71"/>
<text text-anchor="middle" x="162.34" y="-144.8" font-family="Times,serif" font-size="14.00">विशेषणम्</text>
</g>
<!-- Node1_1 -->
<g id="node7" class="node">
<title>Node1_1</title>
<ellipse fill="#ffff00" stroke="#ffff00" cx="521.84" cy="-18" rx="46.59" ry="18"/>
<text text-anchor="middle" x="521.84" y="-14.3" font-family="Times,serif" font-size="14.00">महा&#45;(1.1)</text>
</g>
<!-- Node1_1&#45;&gt;Node1_2 -->
<g id="edge1" class="edge">
<title>Node1_1&#45;&gt;Node1_2</title>
<path fill="none" stroke="black" d="M521.84,-46.27C521.84,-59.58 521.84,-75.19 521.84,-86.82"/>
<polygon fill="black" stroke="black" points="525.34,-46.2 521.84,-36.2 518.34,-46.2 525.34,-46.2"/>
<text text-anchor="middle" x="538.84" y="-57.8" font-family="Times,serif" font-size="14.00">समासः</text>
</g>
<!-- Node3_1 -->
<g id="node8" class="node">
<title>Node3_1</title>
<ellipse fill="#ff99ff" stroke="#ff99ff" cx="411.84" cy="-105" rx="37.89" ry="18"/>
<text text-anchor="middle" x="411.84" y="-101.3" font-family="Times,serif" font-size="14.00">च(3.1)</text>
</g>
<!-- Node3_1&#45;&gt;Node2_1 -->
<g id="edge4" class="edge">
<title>Node3_1&#45;&gt;Node2_1</title>
<path fill="none" stroke="black" d="M423.45,-132.04C428.2,-140.51 434.36,-149.42 441.84,-156 449.02,-162.31 468.51,-170.88 486.46,-177.97"/>
<polygon fill="black" stroke="black" points="426.55,-130.42 418.85,-123.14 420.33,-133.63 426.55,-130.42"/>
<text text-anchor="middle" x="479.84" y="-144.8" font-family="Times,serif" font-size="14.00">समुच्चय_द्योतकः</text>
</g>
<!-- Node4_1 -->
<g id="node9" class="node">
<title>Node4_1</title>
<ellipse fill="#87ceeb" stroke="#87ceeb" cx="86.84" cy="-18" rx="41.69" ry="18"/>
<text text-anchor="middle" x="86.84" y="-14.3" font-family="Times,serif" font-size="14.00">तव(4.1)</text>
</g>
<!-- Node4_1&#45;&gt;Node5_1 -->
<g id="edge5" class="edge">
<title>Node4_1&#45;&gt;Node5_1</title>
<path fill="none" stroke="black" d="M86.84,-46.27C86.84,-59.58 86.84,-75.19 86.84,-86.82"/>
<polygon fill="black" stroke="black" points="90.34,-46.2 86.84,-36.2 83.34,-46.2 90.34,-46.2"/>
<text text-anchor="middle" x="114.34" y="-57.8" font-family="Times,serif" font-size="14.00">षष्ठीसम्बन्धः</text>
</g>
<!-- Node7_1 -->
<g id="node10" class="node">
<title>Node7_1</title>
<ellipse fill="#ff99ff" stroke="#ff99ff" cx="192.84" cy="-105" rx="37.89" ry="18"/>
<text text-anchor="middle" x="192.84" y="-101.3" font-family="Times,serif" font-size="14.00">च(7.1)</text>
</g>
<!-- Node7_1&#45;&gt;Node6_1 -->
<g id="edge8" class="edge">
<title>Node7_1&#45;&gt;Node6_1</title>
<path fill="none" stroke="black" d="M190.92,-133.27C189.98,-146.58 188.88,-162.19 188.06,-173.82"/>
<polygon fill="black" stroke="black" points="194.42,-133.42 191.63,-123.2 187.44,-132.93 194.42,-133.42"/>
<text text-anchor="middle" x="227.84" y="-144.8" font-family="Times,serif" font-size="14.00">समुच्चय_द्योतकः</text>
</g>
<!-- Node8_1 -->
<g id="node11" class="node">
<title>Node8_1</title>
<ellipse fill="#87ceeb" stroke="#87ceeb" cx="296.84" cy="-105" rx="41.69" ry="18"/>
<text text-anchor="middle" x="296.84" y="-101.3" font-family="Times,serif" font-size="14.00">तव(8.1)</text>
</g>
<!-- Node8_1&#45;&gt;Node9_1 -->
<g id="edge9" class="edge">
<title>Node8_1&#45;&gt;Node9_1</title>
<path fill="none" stroke="black" d="M296.84,-133.27C296.84,-146.58 296.84,-162.19 296.84,-173.82"/>
<polygon fill="black" stroke="black" points="300.34,-133.2 296.84,-123.2 293.34,-133.2 300.34,-133.2"/>
<text text-anchor="middle" x="324.34" y="-144.8" font-family="Times,serif" font-size="14.00">षष्ठीसम्बन्धः</text>
</g>
<!-- Node15_1 -->
<g id="node16" class="node">
<title>Node15_1</title>
<ellipse fill="#ff1975" stroke="#ff1975" cx="79.84" cy="-453" rx="55.49" ry="18"/>
<text text-anchor="middle" x="79.84" y="-449.3" font-family="Times,serif" font-size="14.00">अभूत्(15.1)</text>
</g>
<!-- Node13_1&#45;&gt;Node15_1 -->
<g id="edge15" class="edge">
<title>Node13_1&#45;&gt;Node15_1</title>
<path fill="none" stroke="black" d="M168.25,-388.85C147.44,-403.72 120.39,-423.04 101.73,-436.37"/>
<polygon fill="black" stroke="black" points="170.36,-391.65 176.46,-382.99 166.29,-385.95 170.36,-391.65"/>
<text text-anchor="middle" x="186.34" y="-405.8" font-family="Times,serif" font-size="14.00">भावलक्षणसप्तमी</text>
</g>
<!-- Node11_1 -->
<g id="node13" class="node">
<title>Node11_1</title>
<ellipse fill="#ff99ff" stroke="#ff99ff" cx="404.84" cy="-192" rx="43.59" ry="18"/>
<text text-anchor="middle" x="404.84" y="-188.3" font-family="Times,serif" font-size="14.00">च(11.1)</text>
</g>
<!-- Node11_1&#45;&gt;Node10_1 -->
<g id="edge12" class="edge">
<title>Node11_1&#45;&gt;Node10_1</title>
<path fill="none" stroke="black" d="M378.52,-214.97C367.63,-223.87 354.78,-234.12 342.84,-243 333.89,-249.67 323.79,-256.7 314.96,-262.69"/>
<polygon fill="black" stroke="black" points="380.92,-217.53 386.42,-208.48 376.47,-212.13 380.92,-217.53"/>
<text text-anchor="middle" x="399.84" y="-231.8" font-family="Times,serif" font-size="14.00">समुच्चय_द्योतकः</text>
</g>
<!-- Node12_1 -->
<g id="node14" class="node">
<title>Node12_1</title>
<ellipse fill="#ffff00" stroke="#ffff00" cx="63.84" cy="-192" rx="50.09" ry="18"/>
<text text-anchor="middle" x="63.84" y="-188.3" font-family="Times,serif" font-size="14.00">दव&#45;(12.1)</text>
</g>
<!-- Node12_2 -->
<g id="node15" class="node">
<title>Node12_2</title>
<ellipse fill="#40e0d0" stroke="#40e0d0" cx="63.84" cy="-279" rx="61.99" ry="18"/>
<text text-anchor="middle" x="63.84" y="-275.3" font-family="Times,serif" font-size="14.00">अग्निना(12.2)</text>
</g>
<!-- Node12_1&#45;&gt;Node12_2 -->
<g id="edge13" class="edge">
<title>Node12_1&#45;&gt;Node12_2</title>
<path fill="none" stroke="black" d="M63.84,-220.27C63.84,-233.58 63.84,-249.19 63.84,-260.82"/>
<polygon fill="black" stroke="black" points="67.34,-220.2 63.84,-210.2 60.34,-220.2 67.34,-220.2"/>
<text text-anchor="middle" x="80.84" y="-231.8" font-family="Times,serif" font-size="14.00">समासः</text>
</g>
<!-- Node12_2&#45;&gt;Node13_1 -->
<g id="edge14" class="edge">
<title>Node12_2&#45;&gt;Node13_1</title>
<path fill="none" stroke="black" d="M97.28,-301.05C120.96,-315.96 152.23,-335.65 173.78,-349.22"/>
<polygon fill="black" stroke="black" points="98.93,-297.96 88.61,-295.59 95.2,-303.88 98.93,-297.96"/>
<text text-anchor="middle" x="154.84" y="-318.8" font-family="Times,serif" font-size="14.00">सहार्थः</text>
</g>
<!-- Node14_1 -->
<g id="node17" class="node">
<title>Node14_1</title>
<ellipse fill="#00bfff" stroke="#00bfff" cx="57.84" cy="-366" rx="57.69" ry="18"/>
<text text-anchor="middle" x="57.84" y="-362.3" font-family="Times,serif" font-size="14.00">भस्मम्(14.1)</text>
</g>
<!-- Node14_1&#45;&gt;Node15_1 -->
<g id="edge16" class="edge">
<title>Node14_1&#45;&gt;Node15_1</title>
<path fill="none" stroke="black" d="M64.9,-394.27C68.35,-407.58 72.39,-423.19 75.4,-434.82"/>
<polygon fill="black" stroke="black" points="68.19,-393.01 62.3,-384.2 61.41,-394.76 68.19,-393.01"/>
<text text-anchor="middle" x="80.84" y="-405.8" font-family="Times,serif" font-size="14.00">कर्ता</text>
</g>
</g>
</svg>
