<?xml version="1.0" encoding="UTF-8" standalone="no"?>
<!DOCTYPE svg PUBLIC "-//W3C//DTD SVG 1.1//EN"
 "http://www.w3.org/Graphics/SVG/1.1/DTD/svg11.dtd">
<!-- Generated by graphviz version 2.43.0 (0)
 -->
<!-- Title: G Pages: 1 -->
<svg width="592pt" height="305pt"
 viewBox="0.00 0.00 592.44 305.00" xmlns="http://www.w3.org/2000/svg" xmlns:xlink="http://www.w3.org/1999/xlink">
<g id="graph0" class="graph" transform="scale(1 1) rotate(0) translate(4 301)">
<title>G</title>
<polygon fill="#fffacd" stroke="transparent" points="-4,4 -4,-301 588.44,-301 588.44,4 -4,4"/>
<g id="clust1" class="cluster">
<title>cluster_1</title>
<polygon fill="#fffacd" stroke="black" points="95.15,-79 95.15,-218 227.15,-218 227.15,-79 95.15,-79"/>
</g>
<!-- Node5_1 -->
<g id="node1" class="node">
<title>Node5_1</title>
<ellipse fill="#93db70" stroke="#93db70" cx="160.15" cy="-105" rx="57.39" ry="18"/>
<text text-anchor="middle" x="160.15" y="-101.3" font-family="Times,serif" font-size="14.00">विश्रुताम्(5.1)</text>
</g>
<!-- Node3_2 -->
<g id="node2" class="node">
<title>Node3_2</title>
<ellipse fill="#93db70" stroke="#93db70" cx="161.15" cy="-192" rx="57.69" ry="18"/>
<text text-anchor="middle" x="161.15" y="-188.3" font-family="Times,serif" font-size="14.00">सन्धताम्(3.2)</text>
</g>
<!-- Node5_1&#45;&gt;Node3_2 -->
<g id="edge6" class="edge">
<title>Node5_1&#45;&gt;Node3_2</title>
<path fill="none" stroke="black" d="M160.47,-133.27C160.62,-146.58 160.81,-162.19 160.94,-173.82"/>
<polygon fill="black" stroke="black" points="163.97,-133.16 160.35,-123.2 156.97,-133.24 163.97,-133.16"/>
<text text-anchor="middle" x="183.65" y="-144.8" font-family="Times,serif" font-size="14.00">समुच्चितः</text>
</g>
<!-- Node7_1 -->
<g id="node6" class="node">
<title>Node7_1</title>
<ellipse fill="#ff99ff" stroke="#ff99ff" cx="46.15" cy="-279" rx="46.29" ry="18"/>
<text text-anchor="middle" x="46.15" y="-275.3" font-family="Times,serif" font-size="14.00">धिक्(7.1)</text>
</g>
<!-- Node3_2&#45;&gt;Node7_1 -->
<g id="edge4" class="edge">
<title>Node3_2&#45;&gt;Node7_1</title>
<path fill="none" stroke="black" d="M131.48,-214.93C111.13,-229.97 84.65,-249.54 66.62,-262.87"/>
<polygon fill="black" stroke="black" points="133.82,-217.55 139.78,-208.79 129.66,-211.92 133.82,-217.55"/>
<text text-anchor="middle" x="127.65" y="-231.8" font-family="Times,serif" font-size="14.00">उद्गार्यम्</text>
</g>
<!-- Node1_1 -->
<g id="node3" class="node">
<title>Node1_1</title>
<ellipse fill="#ff99ff" stroke="#ff99ff" cx="531.15" cy="-18" rx="46.29" ry="18"/>
<text text-anchor="middle" x="531.15" y="-14.3" font-family="Times,serif" font-size="14.00">धिक्(1.1)</text>
</g>
<!-- Node2_1 -->
<g id="node4" class="node">
<title>Node2_1</title>
<ellipse fill="#93db70" stroke="#93db70" cx="531.15" cy="-105" rx="53.09" ry="18"/>
<text text-anchor="middle" x="531.15" y="-101.3" font-family="Times,serif" font-size="14.00">अग्निम्(2.1)</text>
</g>
<!-- Node1_1&#45;&gt;Node2_1 -->
<g id="edge1" class="edge">
<title>Node1_1&#45;&gt;Node2_1</title>
<path fill="none" stroke="black" d="M501.46,-41.32C498.1,-45.17 495.16,-49.42 493.15,-54 487.54,-66.78 497.04,-79.28 507.94,-88.59"/>
<polygon fill="black" stroke="black" points="504.18,-43.56 508.82,-34.03 499.25,-38.59 504.18,-43.56"/>
<text text-anchor="middle" x="520.65" y="-57.8" font-family="Times,serif" font-size="14.00">उद्गारवाचकः</text>
</g>
<!-- Node2_1&#45;&gt;Node1_1 -->
<g id="edge2" class="edge">
<title>Node2_1&#45;&gt;Node1_1</title>
<path fill="none" stroke="black" d="M545.87,-77.72C548.52,-70.15 549.95,-61.83 548.15,-54 546.72,-47.81 544.05,-41.45 541.24,-35.87"/>
<polygon fill="black" stroke="black" points="542.57,-76.55 541.85,-87.12 549,-79.31 542.57,-76.55"/>
<text text-anchor="middle" x="564.65" y="-57.8" font-family="Times,serif" font-size="14.00">उद्गार्यम्</text>
</g>
<!-- Node3_1 -->
<g id="node5" class="node">
<title>Node3_1</title>
<ellipse fill="#ffff00" stroke="#ffff00" cx="285.15" cy="-105" rx="49.29" ry="18"/>
<text text-anchor="middle" x="285.15" y="-101.3" font-family="Times,serif" font-size="14.00">सत्य&#45;(3.1)</text>
</g>
<!-- Node3_1&#45;&gt;Node3_2 -->
<g id="edge3" class="edge">
<title>Node3_1&#45;&gt;Node3_2</title>
<path fill="none" stroke="black" d="M254.69,-126.88C232.83,-141.86 203.84,-161.73 183.96,-175.36"/>
<polygon fill="black" stroke="black" points="256.71,-129.74 262.98,-121.2 252.75,-123.96 256.71,-129.74"/>
<text text-anchor="middle" x="248.15" y="-144.8" font-family="Times,serif" font-size="14.00">समासः</text>
</g>
<!-- Node7_1&#45;&gt;Node5_1 -->
<g id="edge8" class="edge">
<title>Node7_1&#45;&gt;Node5_1</title>
<path fill="none" stroke="black" d="M36.41,-251.03C30.16,-228.83 25.5,-197.33 39.15,-174 56.12,-144.99 90.53,-127.4 118.32,-117.4"/>
<polygon fill="black" stroke="black" points="33.13,-252.29 39.43,-260.81 39.82,-250.23 33.13,-252.29"/>
<text text-anchor="middle" x="66.65" y="-188.3" font-family="Times,serif" font-size="14.00">उद्गारवाचकः</text>
</g>
<!-- Node4_1 -->
<g id="node7" class="node">
<title>Node4_1</title>
<ellipse fill="#87ceeb" stroke="#87ceeb" cx="406.15" cy="-105" rx="53.89" ry="18"/>
<text text-anchor="middle" x="406.15" y="-101.3" font-family="Times,serif" font-size="14.00">पार्थस्य(4.1)</text>
</g>
<!-- Node4_1&#45;&gt;Node3_2 -->
<g id="edge5" class="edge">
<title>Node4_1&#45;&gt;Node3_2</title>
<path fill="none" stroke="black" d="M362.16,-122.52C335.37,-132.46 300.38,-145.24 269.15,-156 246.41,-163.83 220.82,-172.15 200.25,-178.71"/>
<polygon fill="black" stroke="black" points="363.49,-125.76 371.64,-118.99 361.05,-119.2 363.49,-125.76"/>
<text text-anchor="middle" x="337.65" y="-144.8" font-family="Times,serif" font-size="14.00">षष्ठीसम्बन्धः</text>
</g>
<!-- Node6_1 -->
<g id="node8" class="node">
<title>Node6_1</title>
<ellipse fill="#ff99ff" stroke="#ff99ff" cx="160.15" cy="-18" rx="37.89" ry="18"/>
<text text-anchor="middle" x="160.15" y="-14.3" font-family="Times,serif" font-size="14.00">च(6.1)</text>
</g>
<!-- Node6_1&#45;&gt;Node5_1 -->
<g id="edge7" class="edge">
<title>Node6_1&#45;&gt;Node5_1</title>
<path fill="none" stroke="black" d="M160.15,-46.27C160.15,-59.58 160.15,-75.19 160.15,-86.82"/>
<polygon fill="black" stroke="black" points="163.65,-46.2 160.15,-36.2 156.65,-46.2 163.65,-46.2"/>
<text text-anchor="middle" x="198.15" y="-57.8" font-family="Times,serif" font-size="14.00">समुच्चय_द्योतकः</text>
</g>
</g>
</svg>
