<?xml version="1.0" encoding="UTF-8" standalone="no"?>
<!DOCTYPE svg PUBLIC "-//W3C//DTD SVG 1.1//EN"
 "http://www.w3.org/Graphics/SVG/1.1/DTD/svg11.dtd">
<!-- Generated by graphviz version 2.43.0 (0)
 -->
<!-- Title: G Pages: 1 -->
<svg width="844pt" height="305pt"
 viewBox="0.00 0.00 844.00 305.00" xmlns="http://www.w3.org/2000/svg" xmlns:xlink="http://www.w3.org/1999/xlink">
<g id="graph0" class="graph" transform="scale(1 1) rotate(0) translate(4 301)">
<title>G</title>
<polygon fill="#fffacd" stroke="transparent" points="-4,4 -4,-301 840,-301 840,4 -4,4"/>
<g id="clust1" class="cluster">
<title>cluster_1</title>
<polygon fill="#fffacd" stroke="black" points="610,-79 610,-218 828,-218 828,-79 610,-79"/>
</g>
<g id="clust2" class="cluster">
<title>cluster_2</title>
<polygon fill="#fffacd" stroke="black" points="8,-79 8,-218 140,-218 140,-79 8,-79"/>
</g>
<!-- Node4_1 -->
<g id="node1" class="node">
<title>Node4_1</title>
<ellipse fill="#00bfff" stroke="#00bfff" cx="778" cy="-105" rx="42.49" ry="18"/>
<text text-anchor="middle" x="778" y="-101.3" font-family="Times,serif" font-size="14.00">सर्वे(4.1)</text>
</g>
<!-- Node3_1 -->
<g id="node2" class="node">
<title>Node3_1</title>
<ellipse fill="#00bfff" stroke="#00bfff" cx="676" cy="-192" rx="57.69" ry="18"/>
<text text-anchor="middle" x="676" y="-188.3" font-family="Times,serif" font-size="14.00">पाण्डवाः(3.1)</text>
</g>
<!-- Node4_1&#45;&gt;Node3_1 -->
<g id="edge4" class="edge">
<title>Node4_1&#45;&gt;Node3_1</title>
<path fill="none" stroke="black" d="M753.23,-128.29C743.32,-137.06 731.73,-147.13 721,-156 713.37,-162.3 704.83,-169.02 697.27,-174.87"/>
<polygon fill="black" stroke="black" points="755.62,-130.85 760.77,-121.59 750.97,-125.62 755.62,-130.85"/>
<text text-anchor="middle" x="760.5" y="-144.8" font-family="Times,serif" font-size="14.00">विशेषणम्</text>
</g>
<!-- Node8_1 -->
<g id="node9" class="node">
<title>Node8_1</title>
<ellipse fill="#ff1975" stroke="#ff1975" cx="488" cy="-279" rx="48.99" ry="18"/>
<text text-anchor="middle" x="488" y="-275.3" font-family="Times,serif" font-size="14.00">रुरुदुः(8.1)</text>
</g>
<!-- Node3_1&#45;&gt;Node8_1 -->
<g id="edge3" class="edge">
<title>Node3_1&#45;&gt;Node8_1</title>
<path fill="none" stroke="black" d="M634.97,-211.55C599.59,-227.55 549.33,-250.27 517.71,-264.57"/>
<polygon fill="black" stroke="black" points="636.86,-214.54 644.53,-207.23 633.98,-208.16 636.86,-214.54"/>
<text text-anchor="middle" x="604" y="-231.8" font-family="Times,serif" font-size="14.00">कर्ता</text>
</g>
<!-- Node5_2 -->
<g id="node3" class="node">
<title>Node5_2</title>
<ellipse fill="#00bfff" stroke="#00bfff" cx="668" cy="-105" rx="50.09" ry="18"/>
<text text-anchor="middle" x="668" y="-101.3" font-family="Times,serif" font-size="14.00">आर्ताः(5.2)</text>
</g>
<!-- Node5_2&#45;&gt;Node3_1 -->
<g id="edge6" class="edge">
<title>Node5_2&#45;&gt;Node3_1</title>
<path fill="none" stroke="black" d="M670.57,-133.27C671.82,-146.58 673.29,-162.19 674.38,-173.82"/>
<polygon fill="black" stroke="black" points="674.04,-132.83 669.62,-123.2 667.07,-133.49 674.04,-132.83"/>
<text text-anchor="middle" x="694.5" y="-144.8" font-family="Times,serif" font-size="14.00">विशेषणम्</text>
</g>
<!-- Node10_1 -->
<g id="node4" class="node">
<title>Node10_1</title>
<ellipse fill="#00bfff" stroke="#00bfff" cx="74" cy="-105" rx="51.99" ry="18"/>
<text text-anchor="middle" x="74" y="-101.3" font-family="Times,serif" font-size="14.00">पञ्च(10.1)</text>
</g>
<!-- Node11_1 -->
<g id="node5" class="node">
<title>Node11_1</title>
<ellipse fill="#00bfff" stroke="#00bfff" cx="74" cy="-192" rx="58.49" ry="18"/>
<text text-anchor="middle" x="74" y="-188.3" font-family="Times,serif" font-size="14.00">भूतानि(11.1)</text>
</g>
<!-- Node10_1&#45;&gt;Node11_1 -->
<g id="edge11" class="edge">
<title>Node10_1&#45;&gt;Node11_1</title>
<path fill="none" stroke="black" d="M74,-133.27C74,-146.58 74,-162.19 74,-173.82"/>
<polygon fill="black" stroke="black" points="77.5,-133.2 74,-123.2 70.5,-133.2 77.5,-133.2"/>
<text text-anchor="middle" x="96.5" y="-144.8" font-family="Times,serif" font-size="14.00">विशेषणम्</text>
</g>
<!-- Node11_1&#45;&gt;Node8_1 -->
<g id="edge12" class="edge">
<title>Node11_1&#45;&gt;Node8_1</title>
<path fill="none" stroke="black" d="M131.44,-204.79C215.97,-222.15 371.89,-254.16 446.33,-269.44"/>
<polygon fill="black" stroke="black" points="131.99,-201.33 121.49,-202.75 130.58,-208.19 131.99,-201.33"/>
<text text-anchor="middle" x="325.5" y="-231.8" font-family="Times,serif" font-size="14.00">उपमानम्</text>
</g>
<!-- Node1_1 -->
<g id="node6" class="node">
<title>Node1_1</title>
<ellipse fill="#93db70" stroke="#93db70" cx="413" cy="-18" rx="42.49" ry="18"/>
<text text-anchor="middle" x="413" y="-14.3" font-family="Times,serif" font-size="14.00">तत्(1.1)</text>
</g>
<!-- Node2_1 -->
<g id="node7" class="node">
<title>Node2_1</title>
<ellipse fill="#ff99ff" stroke="#ff99ff" cx="413" cy="-105" rx="48.19" ry="18"/>
<text text-anchor="middle" x="413" y="-101.3" font-family="Times,serif" font-size="14.00">श्रुत्वा(2.1)</text>
</g>
<!-- Node1_1&#45;&gt;Node2_1 -->
<g id="edge1" class="edge">
<title>Node1_1&#45;&gt;Node2_1</title>
<path fill="none" stroke="black" d="M413,-46.27C413,-59.58 413,-75.19 413,-86.82"/>
<polygon fill="black" stroke="black" points="416.5,-46.2 413,-36.2 409.5,-46.2 416.5,-46.2"/>
<text text-anchor="middle" x="422" y="-57.8" font-family="Times,serif" font-size="14.00">कर्म</text>
</g>
<!-- Node7_1 -->
<g id="node8" class="node">
<title>Node7_1</title>
<ellipse fill="#ff99ff" stroke="#ff99ff" cx="488" cy="-192" rx="66.09" ry="18"/>
<text text-anchor="middle" x="488" y="-188.3" font-family="Times,serif" font-size="14.00">समालिङ्ग्य(7.1)</text>
</g>
<!-- Node2_1&#45;&gt;Node7_1 -->
<g id="edge2" class="edge">
<title>Node2_1&#45;&gt;Node7_1</title>
<path fill="none" stroke="black" d="M434.4,-130.26C446.86,-144.37 462.24,-161.81 473.33,-174.37"/>
<polygon fill="black" stroke="black" points="436.7,-127.57 427.46,-122.39 431.45,-132.2 436.7,-127.57"/>
<text text-anchor="middle" x="474.5" y="-144.8" font-family="Times,serif" font-size="14.00">पूर्वकालः</text>
</g>
<!-- Node7_1&#45;&gt;Node8_1 -->
<g id="edge8" class="edge">
<title>Node7_1&#45;&gt;Node8_1</title>
<path fill="none" stroke="black" d="M488,-220.27C488,-233.58 488,-249.19 488,-260.82"/>
<polygon fill="black" stroke="black" points="491.5,-220.2 488,-210.2 484.5,-220.2 491.5,-220.2"/>
<text text-anchor="middle" x="508.5" y="-231.8" font-family="Times,serif" font-size="14.00">पूर्वकालः</text>
</g>
<!-- Node5_1 -->
<g id="node10" class="node">
<title>Node5_1</title>
<ellipse fill="#ffff00" stroke="#ffff00" cx="668" cy="-18" rx="48.99" ry="18"/>
<text text-anchor="middle" x="668" y="-14.3" font-family="Times,serif" font-size="14.00">दुःख&#45;(5.1)</text>
</g>
<!-- Node5_1&#45;&gt;Node5_2 -->
<g id="edge5" class="edge">
<title>Node5_1&#45;&gt;Node5_2</title>
<path fill="none" stroke="black" d="M668,-46.27C668,-59.58 668,-75.19 668,-86.82"/>
<polygon fill="black" stroke="black" points="671.5,-46.2 668,-36.2 664.5,-46.2 671.5,-46.2"/>
<text text-anchor="middle" x="685" y="-57.8" font-family="Times,serif" font-size="14.00">समासः</text>
</g>
<!-- Node6_1 -->
<g id="node11" class="node">
<title>Node6_1</title>
<ellipse fill="#00bfff" stroke="#00bfff" cx="537" cy="-105" rx="57.69" ry="18"/>
<text text-anchor="middle" x="537" y="-101.3" font-family="Times,serif" font-size="14.00">परस्परम्(6.1)</text>
</g>
<!-- Node6_1&#45;&gt;Node7_1 -->
<g id="edge7" class="edge">
<title>Node6_1&#45;&gt;Node7_1</title>
<path fill="none" stroke="black" d="M522.16,-131.74C514.28,-145.42 504.8,-161.86 497.83,-173.95"/>
<polygon fill="black" stroke="black" points="525.36,-133.2 527.32,-122.79 519.29,-129.71 525.36,-133.2"/>
<text text-anchor="middle" x="550" y="-144.8" font-family="Times,serif" font-size="14.00">क्रियाविशेषणम्</text>
</g>
<!-- Node9_1 -->
<g id="node12" class="node">
<title>Node9_1</title>
<ellipse fill="#ffff00" stroke="#ffff00" cx="192" cy="-18" rx="44.69" ry="18"/>
<text text-anchor="middle" x="192" y="-14.3" font-family="Times,serif" font-size="14.00">युग&#45;(9.1)</text>
</g>
<!-- Node9_2 -->
<g id="node13" class="node">
<title>Node9_2</title>
<ellipse fill="#c6e2eb" stroke="#c6e2eb" cx="192" cy="-105" rx="43.59" ry="18"/>
<text text-anchor="middle" x="192" y="-101.3" font-family="Times,serif" font-size="14.00">क्षये(9.2)</text>
</g>
<!-- Node9_1&#45;&gt;Node9_2 -->
<g id="edge9" class="edge">
<title>Node9_1&#45;&gt;Node9_2</title>
<path fill="none" stroke="black" d="M192,-46.27C192,-59.58 192,-75.19 192,-86.82"/>
<polygon fill="black" stroke="black" points="195.5,-46.2 192,-36.2 188.5,-46.2 195.5,-46.2"/>
<text text-anchor="middle" x="209" y="-57.8" font-family="Times,serif" font-size="14.00">समासः</text>
</g>
<!-- Node9_2&#45;&gt;Node11_1 -->
<g id="edge10" class="edge">
<title>Node9_2&#45;&gt;Node11_1</title>
<path fill="none" stroke="black" d="M163.33,-126.84C150.94,-135.83 136.27,-146.45 123,-156 114.34,-162.23 104.81,-169.05 96.47,-175"/>
<polygon fill="black" stroke="black" points="165.46,-129.62 171.5,-120.91 161.35,-123.96 165.46,-129.62"/>
<text text-anchor="middle" x="177.5" y="-144.8" font-family="Times,serif" font-size="14.00">कालाधिकरणम्</text>
</g>
<!-- Node12_1 -->
<g id="node14" class="node">
<title>Node12_1</title>
<ellipse fill="#ff99ff" stroke="#ff99ff" cx="300" cy="-105" rx="46.59" ry="18"/>
<text text-anchor="middle" x="300" y="-101.3" font-family="Times,serif" font-size="14.00">इव(12.1)</text>
</g>
<!-- Node12_1&#45;&gt;Node11_1 -->
<g id="edge13" class="edge">
<title>Node12_1&#45;&gt;Node11_1</title>
<path fill="none" stroke="black" d="M270.24,-126.94C254.92,-136.93 235.59,-148.33 217,-156 187.23,-168.28 152.12,-176.95 124.14,-182.59"/>
<polygon fill="black" stroke="black" points="272.38,-129.72 278.76,-121.27 268.5,-123.89 272.38,-129.72"/>
<text text-anchor="middle" x="282.5" y="-144.8" font-family="Times,serif" font-size="14.00">उपमान_द्योतकः</text>
</g>
</g>
</svg>
