<?xml version="1.0" encoding="UTF-8" standalone="no"?>
<!DOCTYPE svg PUBLIC "-//W3C//DTD SVG 1.1//EN"
 "http://www.w3.org/Graphics/SVG/1.1/DTD/svg11.dtd">
<!-- Generated by graphviz version 2.43.0 (0)
 -->
<!-- Title: G Pages: 1 -->
<svg width="592pt" height="392pt"
 viewBox="0.00 0.00 591.80 392.00" xmlns="http://www.w3.org/2000/svg" xmlns:xlink="http://www.w3.org/1999/xlink">
<g id="graph0" class="graph" transform="scale(1 1) rotate(0) translate(4 388)">
<title>G</title>
<polygon fill="#fffacd" stroke="transparent" points="-4,4 -4,-388 587.8,-388 587.8,4 -4,4"/>
<g id="clust1" class="cluster">
<title>cluster_1</title>
<polygon fill="#fffacd" stroke="black" points="459.8,-166 459.8,-305 575.8,-305 575.8,-166 459.8,-166"/>
</g>
<g id="clust2" class="cluster">
<title>cluster_2</title>
<polygon fill="#fffacd" stroke="black" points="103.8,-79 103.8,-218 225.8,-218 225.8,-79 103.8,-79"/>
</g>
<!-- Node2_1 -->
<g id="node1" class="node">
<title>Node2_1</title>
<ellipse fill="#00bfff" stroke="#00bfff" cx="517.8" cy="-192" rx="50.09" ry="18"/>
<text text-anchor="middle" x="517.8" y="-188.3" font-family="Times,serif" font-size="14.00">प्राप्तः(2.1)</text>
</g>
<!-- Node4_1 -->
<g id="node2" class="node">
<title>Node4_1</title>
<ellipse fill="#00bfff" stroke="#00bfff" cx="514.8" cy="-279" rx="46.59" ry="18"/>
<text text-anchor="middle" x="514.8" y="-275.3" font-family="Times,serif" font-size="14.00">पिता(4.1)</text>
</g>
<!-- Node2_1&#45;&gt;Node4_1 -->
<g id="edge2" class="edge">
<title>Node2_1&#45;&gt;Node4_1</title>
<path fill="none" stroke="black" d="M516.83,-220.27C516.36,-233.58 515.81,-249.19 515.4,-260.82"/>
<polygon fill="black" stroke="black" points="520.33,-220.32 517.19,-210.2 513.34,-220.07 520.33,-220.32"/>
<text text-anchor="middle" x="538.3" y="-231.8" font-family="Times,serif" font-size="14.00">विशेषणम्</text>
</g>
<!-- Node11_1 -->
<g id="node7" class="node">
<title>Node11_1</title>
<ellipse fill="#00bfff" stroke="#00bfff" cx="235.8" cy="-366" rx="68.49" ry="18"/>
<text text-anchor="middle" x="235.8" y="-362.3" font-family="Times,serif" font-size="14.00">समायुक्तः(11.1)</text>
</g>
<!-- Node4_1&#45;&gt;Node11_1 -->
<g id="edge4" class="edge">
<title>Node4_1&#45;&gt;Node11_1</title>
<path fill="none" stroke="black" d="M469.44,-293.82C416.81,-309.85 330.66,-336.1 278.98,-351.84"/>
<polygon fill="black" stroke="black" points="470.63,-297.11 479.18,-290.85 468.59,-290.42 470.63,-297.11"/>
<text text-anchor="middle" x="402.8" y="-318.8" font-family="Times,serif" font-size="14.00">कर्ता</text>
</g>
<!-- Node6_2 -->
<g id="node3" class="node">
<title>Node6_2</title>
<ellipse fill="#c6e2eb" stroke="#c6e2eb" cx="164.8" cy="-105" rx="46.59" ry="18"/>
<text text-anchor="middle" x="164.8" y="-101.3" font-family="Times,serif" font-size="14.00">पूतेषु(6.2)</text>
</g>
<!-- Node8_1 -->
<g id="node4" class="node">
<title>Node8_1</title>
<ellipse fill="#c6e2eb" stroke="#c6e2eb" cx="164.8" cy="-192" rx="53.09" ry="18"/>
<text text-anchor="middle" x="164.8" y="-188.3" font-family="Times,serif" font-size="14.00">अग्निषु(8.1)</text>
</g>
<!-- Node6_2&#45;&gt;Node8_1 -->
<g id="edge8" class="edge">
<title>Node6_2&#45;&gt;Node8_1</title>
<path fill="none" stroke="black" d="M164.8,-133.27C164.8,-146.58 164.8,-162.19 164.8,-173.82"/>
<polygon fill="black" stroke="black" points="168.3,-133.2 164.8,-123.2 161.3,-133.2 168.3,-133.2"/>
<text text-anchor="middle" x="187.3" y="-144.8" font-family="Times,serif" font-size="14.00">विशेषणम्</text>
</g>
<!-- Node9_1 -->
<g id="node12" class="node">
<title>Node9_1</title>
<ellipse fill="#c6e2eb" stroke="#c6e2eb" cx="161.8" cy="-279" rx="53.09" ry="18"/>
<text text-anchor="middle" x="161.8" y="-275.3" font-family="Times,serif" font-size="14.00">तिष्ठत्सु(9.1)</text>
</g>
<!-- Node8_1&#45;&gt;Node9_1 -->
<g id="edge10" class="edge">
<title>Node8_1&#45;&gt;Node9_1</title>
<path fill="none" stroke="black" d="M163.83,-220.27C163.36,-233.58 162.81,-249.19 162.4,-260.82"/>
<polygon fill="black" stroke="black" points="167.33,-220.32 164.19,-210.2 160.34,-220.07 167.33,-220.32"/>
<text text-anchor="middle" x="173.8" y="-231.8" font-family="Times,serif" font-size="14.00">कर्ता</text>
</g>
<!-- Node1_1 -->
<g id="node5" class="node">
<title>Node1_1</title>
<ellipse fill="#93db70" stroke="#93db70" cx="517.8" cy="-105" rx="46.59" ry="18"/>
<text text-anchor="middle" x="517.8" y="-101.3" font-family="Times,serif" font-size="14.00">निष्ठां(1.1)</text>
</g>
<!-- Node1_1&#45;&gt;Node2_1 -->
<g id="edge1" class="edge">
<title>Node1_1&#45;&gt;Node2_1</title>
<path fill="none" stroke="black" d="M517.8,-133.27C517.8,-146.58 517.8,-162.19 517.8,-173.82"/>
<polygon fill="black" stroke="black" points="521.3,-133.2 517.8,-123.2 514.3,-133.2 521.3,-133.2"/>
<text text-anchor="middle" x="536.3" y="-144.8" font-family="Times,serif" font-size="14.00">गतिकर्म</text>
</g>
<!-- Node3_1 -->
<g id="node6" class="node">
<title>Node3_1</title>
<ellipse fill="#87ceeb" stroke="#87ceeb" cx="407.8" cy="-192" rx="42.49" ry="18"/>
<text text-anchor="middle" x="407.8" y="-188.3" font-family="Times,serif" font-size="14.00">मम(3.1)</text>
</g>
<!-- Node3_1&#45;&gt;Node4_1 -->
<g id="edge3" class="edge">
<title>Node3_1&#45;&gt;Node4_1</title>
<path fill="none" stroke="black" d="M428.71,-216.75C437.01,-225.5 446.92,-235.19 456.8,-243 466.57,-250.73 478.2,-258.06 488.46,-264"/>
<polygon fill="black" stroke="black" points="431.23,-214.32 421.87,-209.36 426.09,-219.08 431.23,-214.32"/>
<text text-anchor="middle" x="484.3" y="-231.8" font-family="Times,serif" font-size="14.00">षष्ठीसम्बन्धः</text>
</g>
<!-- Node5_1 -->
<g id="node8" class="node">
<title>Node5_1</title>
<ellipse fill="#ffff00" stroke="#ffff00" cx="46.8" cy="-192" rx="46.59" ry="18"/>
<text text-anchor="middle" x="46.8" y="-188.3" font-family="Times,serif" font-size="14.00">महा&#45;(5.1)</text>
</g>
<!-- Node5_2 -->
<g id="node9" class="node">
<title>Node5_2</title>
<ellipse fill="#c6e2eb" stroke="#c6e2eb" cx="47.8" cy="-279" rx="41.69" ry="18"/>
<text text-anchor="middle" x="47.8" y="-275.3" font-family="Times,serif" font-size="14.00">वने(5.2)</text>
</g>
<!-- Node5_1&#45;&gt;Node5_2 -->
<g id="edge5" class="edge">
<title>Node5_1&#45;&gt;Node5_2</title>
<path fill="none" stroke="black" d="M47.12,-220.27C47.27,-233.58 47.46,-249.19 47.59,-260.82"/>
<polygon fill="black" stroke="black" points="50.62,-220.16 47,-210.2 43.62,-220.24 50.62,-220.16"/>
<text text-anchor="middle" x="64.8" y="-231.8" font-family="Times,serif" font-size="14.00">समासः</text>
</g>
<!-- Node5_2&#45;&gt;Node11_1 -->
<g id="edge6" class="edge">
<title>Node5_2&#45;&gt;Node11_1</title>
<path fill="none" stroke="black" d="M64.19,-304.95C71.35,-314.07 80.47,-323.69 90.8,-330 115.54,-345.13 146.39,-353.72 173.26,-358.6"/>
<polygon fill="black" stroke="black" points="66.94,-302.79 58.19,-296.82 61.31,-306.95 66.94,-302.79"/>
<text text-anchor="middle" x="118.3" y="-318.8" font-family="Times,serif" font-size="14.00">अधिकरणम्</text>
</g>
<!-- Node6_1 -->
<g id="node10" class="node">
<title>Node6_1</title>
<ellipse fill="#ffff00" stroke="#ffff00" cx="164.8" cy="-18" rx="48.19" ry="18"/>
<text text-anchor="middle" x="164.8" y="-14.3" font-family="Times,serif" font-size="14.00">मन्त्र&#45;(6.1)</text>
</g>
<!-- Node6_1&#45;&gt;Node6_2 -->
<g id="edge7" class="edge">
<title>Node6_1&#45;&gt;Node6_2</title>
<path fill="none" stroke="black" d="M164.8,-46.27C164.8,-59.58 164.8,-75.19 164.8,-86.82"/>
<polygon fill="black" stroke="black" points="168.3,-46.2 164.8,-36.2 161.3,-46.2 168.3,-46.2"/>
<text text-anchor="middle" x="181.8" y="-57.8" font-family="Times,serif" font-size="14.00">समासः</text>
</g>
<!-- Node7_1 -->
<g id="node11" class="node">
<title>Node7_1</title>
<ellipse fill="#87ceeb" stroke="#87ceeb" cx="279.8" cy="-105" rx="46.29" ry="18"/>
<text text-anchor="middle" x="279.8" y="-101.3" font-family="Times,serif" font-size="14.00">तस्य(7.1)</text>
</g>
<!-- Node7_1&#45;&gt;Node8_1 -->
<g id="edge9" class="edge">
<title>Node7_1&#45;&gt;Node8_1</title>
<path fill="none" stroke="black" d="M251.61,-127.63C239.96,-136.5 226.28,-146.81 213.8,-156 205.04,-162.44 195.31,-169.43 186.84,-175.45"/>
<polygon fill="black" stroke="black" points="253.86,-130.31 259.69,-121.47 249.61,-124.75 253.86,-130.31"/>
<text text-anchor="middle" x="261.3" y="-144.8" font-family="Times,serif" font-size="14.00">षष्ठीसम्बन्धः</text>
</g>
<!-- Node9_1&#45;&gt;Node11_1 -->
<g id="edge11" class="edge">
<title>Node9_1&#45;&gt;Node11_1</title>
<path fill="none" stroke="black" d="M151.44,-306.76C150.02,-314.76 150.33,-323.2 154.8,-330 162.03,-341.01 173.55,-348.57 185.65,-353.76"/>
<polygon fill="black" stroke="black" points="154.84,-307.58 153.99,-297.02 148.07,-305.81 154.84,-307.58"/>
<text text-anchor="middle" x="225.8" y="-318.8" font-family="Times,serif" font-size="14.00">भावलक्षणसप्तमी_समानकालः</text>
</g>
<!-- Node10_1 -->
<g id="node13" class="node">
<title>Node10_1</title>
<ellipse fill="#ffff00" stroke="#ffff00" cx="293.8" cy="-192" rx="53.09" ry="18"/>
<text text-anchor="middle" x="293.8" y="-188.3" font-family="Times,serif" font-size="14.00">वृथा&#45;(10.1)</text>
</g>
<!-- Node10_2 -->
<g id="node14" class="node">
<title>Node10_2</title>
<ellipse fill="#40e0d0" stroke="#40e0d0" cx="310.8" cy="-279" rx="61.99" ry="18"/>
<text text-anchor="middle" x="310.8" y="-275.3" font-family="Times,serif" font-size="14.00">अग्निना(10.2)</text>
</g>
<!-- Node10_1&#45;&gt;Node10_2 -->
<g id="edge12" class="edge">
<title>Node10_1&#45;&gt;Node10_2</title>
<path fill="none" stroke="black" d="M299.25,-220.27C301.91,-233.58 305.03,-249.19 307.36,-260.82"/>
<polygon fill="black" stroke="black" points="302.63,-219.32 297.24,-210.2 295.77,-220.69 302.63,-219.32"/>
<text text-anchor="middle" x="319.8" y="-231.8" font-family="Times,serif" font-size="14.00">समासः</text>
</g>
<!-- Node10_2&#45;&gt;Node11_1 -->
<g id="edge13" class="edge">
<title>Node10_2&#45;&gt;Node11_1</title>
<path fill="none" stroke="black" d="M307.18,-307.27C305.12,-315.2 301.88,-323.47 296.8,-330 290.2,-338.48 280.93,-345.26 271.6,-350.52"/>
<polygon fill="black" stroke="black" points="310.66,-307.72 309.27,-297.22 303.8,-306.3 310.66,-307.72"/>
<text text-anchor="middle" x="319.8" y="-318.8" font-family="Times,serif" font-size="14.00">सहार्थः</text>
</g>
</g>
</svg>
