<?xml version="1.0" encoding="UTF-8" standalone="no"?>
<!DOCTYPE svg PUBLIC "-//W3C//DTD SVG 1.1//EN"
 "http://www.w3.org/Graphics/SVG/1.1/DTD/svg11.dtd">
<!-- Generated by graphviz version 2.43.0 (0)
 -->
<!-- Title: G Pages: 1 -->
<svg width="696pt" height="392pt"
 viewBox="0.00 0.00 696.49 392.00" xmlns="http://www.w3.org/2000/svg" xmlns:xlink="http://www.w3.org/1999/xlink">
<g id="graph0" class="graph" transform="scale(1 1) rotate(0) translate(4 388)">
<title>G</title>
<polygon fill="#fffacd" stroke="transparent" points="-4,4 -4,-388 692.49,-388 692.49,4 -4,4"/>
<g id="clust1" class="cluster">
<title>cluster_1</title>
<polygon fill="#fffacd" stroke="black" points="444.55,-79 444.55,-218 570.55,-218 570.55,-79 444.55,-79"/>
</g>
<g id="clust2" class="cluster">
<title>cluster_2</title>
<polygon fill="#fffacd" stroke="black" points="222.55,-166 222.55,-305 436.55,-305 436.55,-166 222.55,-166"/>
</g>
<!-- Node4_1 -->
<g id="node1" class="node">
<title>Node4_1</title>
<ellipse fill="#00bfff" stroke="#00bfff" cx="507.55" cy="-105" rx="55.49" ry="18"/>
<text text-anchor="middle" x="507.55" y="-101.3" font-family="Times,serif" font-size="14.00">अधिकः(4.1)</text>
</g>
<!-- Node6_1 -->
<g id="node2" class="node">
<title>Node6_1</title>
<ellipse fill="#00bfff" stroke="#00bfff" cx="503.55" cy="-192" rx="46.59" ry="18"/>
<text text-anchor="middle" x="503.55" y="-188.3" font-family="Times,serif" font-size="14.00">प्रियः(6.1)</text>
</g>
<!-- Node4_1&#45;&gt;Node6_1 -->
<g id="edge4" class="edge">
<title>Node4_1&#45;&gt;Node6_1</title>
<path fill="none" stroke="black" d="M506.26,-133.27C505.64,-146.58 504.9,-162.19 504.35,-173.82"/>
<polygon fill="black" stroke="black" points="509.76,-133.35 506.74,-123.2 502.77,-133.03 509.76,-133.35"/>
<text text-anchor="middle" x="528.05" y="-144.8" font-family="Times,serif" font-size="14.00">विशेषणम्</text>
</g>
<!-- Node3_1 -->
<g id="node3" class="node">
<title>Node3_1</title>
<ellipse fill="#00bfff" stroke="#00bfff" cx="314.55" cy="-279" rx="53.89" ry="18"/>
<text text-anchor="middle" x="314.55" y="-275.3" font-family="Times,serif" font-size="14.00">सहदेवः(3.1)</text>
</g>
<!-- Node6_1&#45;&gt;Node3_1 -->
<g id="edge6" class="edge">
<title>Node6_1&#45;&gt;Node3_1</title>
<path fill="none" stroke="black" d="M468.75,-211.88C450.21,-221.64 426.89,-233.48 405.55,-243 387.46,-251.07 366.9,-259.07 349.9,-265.38"/>
<polygon fill="black" stroke="black" points="470.51,-214.9 477.7,-207.12 467.23,-208.72 470.51,-214.9"/>
<text text-anchor="middle" x="458.05" y="-231.8" font-family="Times,serif" font-size="14.00">विशेषणम्</text>
</g>
<!-- Node13_1 -->
<g id="node8" class="node">
<title>Node13_1</title>
<ellipse fill="#ff1975" stroke="#ff1975" cx="159.55" cy="-366" rx="72.29" ry="18"/>
<text text-anchor="middle" x="159.55" y="-362.3" font-family="Times,serif" font-size="14.00">मोक्षयामास(13.1)</text>
</g>
<!-- Node3_1&#45;&gt;Node13_1 -->
<g id="edge3" class="edge">
<title>Node3_1&#45;&gt;Node13_1</title>
<path fill="none" stroke="black" d="M278.62,-299.7C251.07,-314.81 213.58,-335.37 188.07,-349.36"/>
<polygon fill="black" stroke="black" points="280.46,-302.68 287.55,-294.81 277.1,-296.55 280.46,-302.68"/>
<text text-anchor="middle" x="256.55" y="-318.8" font-family="Times,serif" font-size="14.00">कर्ता</text>
</g>
<!-- Node7_1 -->
<g id="node4" class="node">
<title>Node7_1</title>
<ellipse fill="#00bfff" stroke="#00bfff" cx="383.55" cy="-192" rx="44.69" ry="18"/>
<text text-anchor="middle" x="383.55" y="-188.3" font-family="Times,serif" font-size="14.00">वीरः(7.1)</text>
</g>
<!-- Node7_1&#45;&gt;Node3_1 -->
<g id="edge7" class="edge">
<title>Node7_1&#45;&gt;Node3_1</title>
<path fill="none" stroke="black" d="M365.45,-217.58C359.26,-225.76 352.22,-234.87 345.55,-243 340.5,-249.15 334.77,-255.72 329.63,-261.49"/>
<polygon fill="black" stroke="black" points="368.34,-219.56 371.53,-209.45 362.73,-215.36 368.34,-219.56"/>
<text text-anchor="middle" x="379.05" y="-231.8" font-family="Times,serif" font-size="14.00">विशेषणम्</text>
</g>
<!-- Node8_2 -->
<g id="node5" class="node">
<title>Node8_2</title>
<ellipse fill="#00bfff" stroke="#00bfff" cx="275.55" cy="-192" rx="45.49" ry="18"/>
<text text-anchor="middle" x="275.55" y="-188.3" font-family="Times,serif" font-size="14.00">सुतः(8.2)</text>
</g>
<!-- Node8_2&#45;&gt;Node3_1 -->
<g id="edge9" class="edge">
<title>Node8_2&#45;&gt;Node3_1</title>
<path fill="none" stroke="black" d="M287.54,-219.13C293.78,-232.73 301.23,-248.98 306.72,-260.95"/>
<polygon fill="black" stroke="black" points="290.6,-217.42 283.25,-209.79 284.24,-220.34 290.6,-217.42"/>
<text text-anchor="middle" x="319.05" y="-231.8" font-family="Times,serif" font-size="14.00">विशेषणम्</text>
</g>
<!-- Node1_1 -->
<g id="node6" class="node">
<title>Node1_1</title>
<ellipse fill="#87ceeb" stroke="#87ceeb" cx="383.55" cy="-105" rx="50.89" ry="18"/>
<text text-anchor="middle" x="383.55" y="-101.3" font-family="Times,serif" font-size="14.00">तस्याः(1.1)</text>
</g>
<!-- Node1_1&#45;&gt;Node6_1 -->
<g id="edge1" class="edge">
<title>Node1_1&#45;&gt;Node6_1</title>
<path fill="none" stroke="black" d="M413.64,-127.32C434.91,-142.38 462.91,-162.22 481.98,-175.72"/>
<polygon fill="black" stroke="black" points="415.46,-124.32 405.28,-121.39 411.41,-130.03 415.46,-124.32"/>
<text text-anchor="middle" x="469.05" y="-144.8" font-family="Times,serif" font-size="14.00">सम्बन्धः</text>
</g>
<!-- Node2_1 -->
<g id="node7" class="node">
<title>Node2_1</title>
<ellipse fill="#b4ffb4" stroke="#b4ffb4" cx="634.55" cy="-105" rx="53.89" ry="18"/>
<text text-anchor="middle" x="634.55" y="-101.3" font-family="Times,serif" font-size="14.00">पुत्रेभ्यः(2.1)</text>
</g>
<!-- Node2_1&#45;&gt;Node6_1 -->
<g id="edge2" class="edge">
<title>Node2_1&#45;&gt;Node6_1</title>
<path fill="none" stroke="black" d="M602.25,-126.95C578.8,-142.17 547.64,-162.39 526.65,-176.01"/>
<polygon fill="black" stroke="black" points="604.34,-129.77 610.82,-121.39 600.53,-123.9 604.34,-129.77"/>
<text text-anchor="middle" x="599.55" y="-144.8" font-family="Times,serif" font-size="14.00">निर्धारणम्</text>
</g>
<!-- Node5_1 -->
<g id="node9" class="node">
<title>Node5_1</title>
<ellipse fill="#ff99ff" stroke="#ff99ff" cx="507.55" cy="-18" rx="41.69" ry="18"/>
<text text-anchor="middle" x="507.55" y="-14.3" font-family="Times,serif" font-size="14.00">एव(5.1)</text>
</g>
<!-- Node5_1&#45;&gt;Node4_1 -->
<g id="edge5" class="edge">
<title>Node5_1&#45;&gt;Node4_1</title>
<path fill="none" stroke="black" d="M507.55,-46.27C507.55,-59.58 507.55,-75.19 507.55,-86.82"/>
<polygon fill="black" stroke="black" points="511.05,-46.2 507.55,-36.2 504.05,-46.2 511.05,-46.2"/>
<text text-anchor="middle" x="526.05" y="-57.8" font-family="Times,serif" font-size="14.00">सम्बन्धः</text>
</g>
<!-- Node8_1 -->
<g id="node10" class="node">
<title>Node8_1</title>
<ellipse fill="#ffff00" stroke="#ffff00" cx="162.55" cy="-105" rx="58.49" ry="18"/>
<text text-anchor="middle" x="162.55" y="-101.3" font-family="Times,serif" font-size="14.00">माद्रवती&#45;(8.1)</text>
</g>
<!-- Node8_1&#45;&gt;Node8_2 -->
<g id="edge8" class="edge">
<title>Node8_1&#45;&gt;Node8_2</title>
<path fill="none" stroke="black" d="M191.91,-128.09C211.77,-143.03 237.5,-162.38 255.15,-175.66"/>
<polygon fill="black" stroke="black" points="193.9,-125.2 183.8,-121.99 189.69,-130.8 193.9,-125.2"/>
<text text-anchor="middle" x="242.55" y="-144.8" font-family="Times,serif" font-size="14.00">समासः</text>
</g>
<!-- Node9_1 -->
<g id="node11" class="node">
<title>Node9_1</title>
<ellipse fill="#ff99ff" stroke="#ff99ff" cx="276.55" cy="-105" rx="37.09" ry="18"/>
<text text-anchor="middle" x="276.55" y="-101.3" font-family="Times,serif" font-size="14.00">तु(9.1)</text>
</g>
<!-- Node9_1&#45;&gt;Node8_2 -->
<g id="edge10" class="edge">
<title>Node9_1&#45;&gt;Node8_2</title>
<path fill="none" stroke="black" d="M276.23,-133.27C276.07,-146.58 275.89,-162.19 275.75,-173.82"/>
<polygon fill="black" stroke="black" points="279.73,-133.24 276.34,-123.2 272.73,-133.16 279.73,-133.24"/>
<text text-anchor="middle" x="292.05" y="-144.8" font-family="Times,serif" font-size="14.00">सम्बन्ध</text>
</g>
<!-- Node10_1 -->
<g id="node12" class="node">
<title>Node10_1</title>
<ellipse fill="#ff99ff" stroke="#ff99ff" cx="43.55" cy="-279" rx="42.79" ry="18"/>
<text text-anchor="middle" x="43.55" y="-275.3" font-family="Times,serif" font-size="14.00">न(10.1)</text>
</g>
<!-- Node10_1&#45;&gt;Node13_1 -->
<g id="edge11" class="edge">
<title>Node10_1&#45;&gt;Node13_1</title>
<path fill="none" stroke="black" d="M72.2,-301C92.3,-315.73 118.79,-335.13 137.3,-348.7"/>
<polygon fill="black" stroke="black" points="74.15,-298.09 64.02,-295 70.02,-303.73 74.15,-298.09"/>
<text text-anchor="middle" x="128.05" y="-318.8" font-family="Times,serif" font-size="14.00">प्रतिषेधः</text>
</g>
<!-- Node11_1 -->
<g id="node13" class="node">
<title>Node11_1</title>
<ellipse fill="#ff99ff" stroke="#ff99ff" cx="43.55" cy="-192" rx="43.59" ry="18"/>
<text text-anchor="middle" x="43.55" y="-188.3" font-family="Times,serif" font-size="14.00">च(11.1)</text>
</g>
<!-- Node11_1&#45;&gt;Node10_1 -->
<g id="edge12" class="edge">
<title>Node11_1&#45;&gt;Node10_1</title>
<path fill="none" stroke="black" d="M43.55,-220.27C43.55,-233.58 43.55,-249.19 43.55,-260.82"/>
<polygon fill="black" stroke="black" points="47.05,-220.2 43.55,-210.2 40.05,-220.2 47.05,-220.2"/>
<text text-anchor="middle" x="62.05" y="-231.8" font-family="Times,serif" font-size="14.00">सम्बन्धः</text>
</g>
<!-- Node12_1 -->
<g id="node14" class="node">
<title>Node12_1</title>
<ellipse fill="#93db70" stroke="#93db70" cx="159.55" cy="-279" rx="55.49" ry="18"/>
<text text-anchor="middle" x="159.55" y="-275.3" font-family="Times,serif" font-size="14.00">एनाम्(12.1)</text>
</g>
<!-- Node12_1&#45;&gt;Node13_1 -->
<g id="edge13" class="edge">
<title>Node12_1&#45;&gt;Node13_1</title>
<path fill="none" stroke="black" d="M159.55,-307.27C159.55,-320.58 159.55,-336.19 159.55,-347.82"/>
<polygon fill="black" stroke="black" points="163.05,-307.2 159.55,-297.2 156.05,-307.2 163.05,-307.2"/>
<text text-anchor="middle" x="168.55" y="-318.8" font-family="Times,serif" font-size="14.00">कर्म</text>
</g>
</g>
</svg>
