<?xml version="1.0" encoding="UTF-8" standalone="no"?>
<!DOCTYPE svg PUBLIC "-//W3C//DTD SVG 1.1//EN"
 "http://www.w3.org/Graphics/SVG/1.1/DTD/svg11.dtd">
<!-- Generated by graphviz version 2.43.0 (0)
 -->
<!-- Title: G Pages: 1 -->
<svg width="788pt" height="392pt"
 viewBox="0.00 0.00 788.00 392.00" xmlns="http://www.w3.org/2000/svg" xmlns:xlink="http://www.w3.org/1999/xlink">
<g id="graph0" class="graph" transform="scale(1 1) rotate(0) translate(4 388)">
<title>G</title>
<polygon fill="#fffacd" stroke="transparent" points="-4,4 -4,-388 784,-388 784,4 -4,4"/>
<g id="clust1" class="cluster">
<title>cluster_1</title>
<polygon fill="#fffacd" stroke="black" points="226,-79 226,-218 354,-218 354,-79 226,-79"/>
</g>
<g id="clust2" class="cluster">
<title>cluster_2</title>
<polygon fill="#fffacd" stroke="black" points="8,-166 8,-305 120,-305 120,-166 8,-166"/>
</g>
<g id="clust3" class="cluster">
<title>cluster_3</title>
<polygon fill="#fffacd" stroke="black" points="568,-166 568,-305 772,-305 772,-166 568,-166"/>
</g>
<!-- Node2_2 -->
<g id="node1" class="node">
<title>Node2_2</title>
<ellipse fill="#87ceeb" stroke="#87ceeb" cx="290" cy="-105" rx="55.79" ry="18"/>
<text text-anchor="middle" x="290" y="-101.3" font-family="Times,serif" font-size="14.00">शालिनः(2.2)</text>
</g>
<!-- Node1_1 -->
<g id="node2" class="node">
<title>Node1_1</title>
<ellipse fill="#87ceeb" stroke="#87ceeb" cx="286" cy="-192" rx="46.29" ry="18"/>
<text text-anchor="middle" x="286" y="-188.3" font-family="Times,serif" font-size="14.00">यस्य(1.1)</text>
</g>
<!-- Node2_2&#45;&gt;Node1_1 -->
<g id="edge3" class="edge">
<title>Node2_2&#45;&gt;Node1_1</title>
<path fill="none" stroke="black" d="M288.72,-133.27C288.09,-146.58 287.36,-162.19 286.81,-173.82"/>
<polygon fill="black" stroke="black" points="292.22,-133.35 289.19,-123.2 285.22,-133.03 292.22,-133.35"/>
<text text-anchor="middle" x="311.5" y="-144.8" font-family="Times,serif" font-size="14.00">विशेषणम्</text>
</g>
<!-- Node4_2 -->
<g id="node4" class="node">
<title>Node4_2</title>
<ellipse fill="#00bfff" stroke="#00bfff" cx="64" cy="-279" rx="48.19" ry="18"/>
<text text-anchor="middle" x="64" y="-275.3" font-family="Times,serif" font-size="14.00">शतम्(4.2)</text>
</g>
<!-- Node1_1&#45;&gt;Node4_2 -->
<g id="edge1" class="edge">
<title>Node1_1&#45;&gt;Node4_2</title>
<path fill="none" stroke="black" d="M248.01,-210.38C225.53,-220.41 196.37,-232.99 170,-243 146.99,-251.74 120.72,-260.42 100.09,-266.95"/>
<polygon fill="black" stroke="black" points="249.52,-213.54 257.21,-206.25 246.65,-207.15 249.52,-213.54"/>
<text text-anchor="middle" x="233.5" y="-231.8" font-family="Times,serif" font-size="14.00">षष्ठीसम्बन्धः</text>
</g>
<!-- Node3_2 -->
<g id="node3" class="node">
<title>Node3_2</title>
<ellipse fill="#00bfff" stroke="#00bfff" cx="64" cy="-192" rx="42.49" ry="18"/>
<text text-anchor="middle" x="64" y="-188.3" font-family="Times,serif" font-size="14.00">मत्(3.2)</text>
</g>
<!-- Node3_2&#45;&gt;Node4_2 -->
<g id="edge5" class="edge">
<title>Node3_2&#45;&gt;Node4_2</title>
<path fill="none" stroke="black" d="M64,-220.27C64,-233.58 64,-249.19 64,-260.82"/>
<polygon fill="black" stroke="black" points="67.5,-220.2 64,-210.2 60.5,-220.2 67.5,-220.2"/>
<text text-anchor="middle" x="86.5" y="-231.8" font-family="Times,serif" font-size="14.00">विशेषणम्</text>
</g>
<!-- Node5_1 -->
<g id="node11" class="node">
<title>Node5_1</title>
<ellipse fill="#ff1975" stroke="#ff1975" cx="64" cy="-366" rx="53.89" ry="18"/>
<text text-anchor="middle" x="64" y="-362.3" font-family="Times,serif" font-size="14.00">अभवत्(5.1)</text>
</g>
<!-- Node4_2&#45;&gt;Node5_1 -->
<g id="edge7" class="edge">
<title>Node4_2&#45;&gt;Node5_1</title>
<path fill="none" stroke="black" d="M64,-307.27C64,-320.58 64,-336.19 64,-347.82"/>
<polygon fill="black" stroke="black" points="67.5,-307.2 64,-297.2 60.5,-307.2 67.5,-307.2"/>
<text text-anchor="middle" x="75" y="-318.8" font-family="Times,serif" font-size="14.00">कर्ता</text>
</g>
<!-- Node6_3 -->
<g id="node5" class="node">
<title>Node6_3</title>
<ellipse fill="#00bfff" stroke="#00bfff" cx="719" cy="-192" rx="44.69" ry="18"/>
<text text-anchor="middle" x="719" y="-188.3" font-family="Times,serif" font-size="14.00">बलः(6.3)</text>
</g>
<!-- Node8_1 -->
<g id="node6" class="node">
<title>Node8_1</title>
<ellipse fill="#00bfff" stroke="#00bfff" cx="622" cy="-279" rx="46.29" ry="18"/>
<text text-anchor="middle" x="622" y="-275.3" font-family="Times,serif" font-size="14.00">राजा(8.1)</text>
</g>
<!-- Node6_3&#45;&gt;Node8_1 -->
<g id="edge10" class="edge">
<title>Node6_3&#45;&gt;Node8_1</title>
<path fill="none" stroke="black" d="M696.25,-216.51C687.63,-225.09 677.58,-234.72 668,-243 660.11,-249.83 651.03,-256.88 643.04,-262.86"/>
<polygon fill="black" stroke="black" points="698.85,-218.86 703.41,-209.29 693.88,-213.92 698.85,-218.86"/>
<text text-anchor="middle" x="705.5" y="-231.8" font-family="Times,serif" font-size="14.00">विशेषणम्</text>
</g>
<!-- Node11_1 -->
<g id="node14" class="node">
<title>Node11_1</title>
<ellipse fill="#00bfff" stroke="#00bfff" cx="538" cy="-366" rx="52.79" ry="18"/>
<text text-anchor="middle" x="538" y="-362.3" font-family="Times,serif" font-size="14.00">दग्धः(11.1)</text>
</g>
<!-- Node8_1&#45;&gt;Node11_1 -->
<g id="edge12" class="edge">
<title>Node8_1&#45;&gt;Node11_1</title>
<path fill="none" stroke="black" d="M599.12,-303.16C584.83,-317.62 566.78,-335.88 554.01,-348.79"/>
<polygon fill="black" stroke="black" points="601.66,-305.56 606.2,-295.99 596.68,-300.64 601.66,-305.56"/>
<text text-anchor="middle" x="596" y="-318.8" font-family="Times,serif" font-size="14.00">कर्ता</text>
</g>
<!-- Node7_1 -->
<g id="node7" class="node">
<title>Node7_1</title>
<ellipse fill="#00bfff" stroke="#00bfff" cx="616" cy="-192" rx="40.09" ry="18"/>
<text text-anchor="middle" x="616" y="-188.3" font-family="Times,serif" font-size="14.00">सः(7.1)</text>
</g>
<!-- Node7_1&#45;&gt;Node8_1 -->
<g id="edge11" class="edge">
<title>Node7_1&#45;&gt;Node8_1</title>
<path fill="none" stroke="black" d="M617.92,-220.27C618.86,-233.58 619.97,-249.19 620.79,-260.82"/>
<polygon fill="black" stroke="black" points="621.41,-219.93 617.21,-210.2 614.43,-220.42 621.41,-219.93"/>
<text text-anchor="middle" x="641.5" y="-231.8" font-family="Times,serif" font-size="14.00">विशेषणम्</text>
</g>
<!-- Node2_1 -->
<g id="node8" class="node">
<title>Node2_1</title>
<ellipse fill="#ffff00" stroke="#ffff00" cx="290" cy="-18" rx="46.29" ry="18"/>
<text text-anchor="middle" x="290" y="-14.3" font-family="Times,serif" font-size="14.00">बाहु&#45;(2.1)</text>
</g>
<!-- Node2_1&#45;&gt;Node2_2 -->
<g id="edge2" class="edge">
<title>Node2_1&#45;&gt;Node2_2</title>
<path fill="none" stroke="black" d="M290,-46.27C290,-59.58 290,-75.19 290,-86.82"/>
<polygon fill="black" stroke="black" points="293.5,-46.2 290,-36.2 286.5,-46.2 293.5,-46.2"/>
<text text-anchor="middle" x="307" y="-57.8" font-family="Times,serif" font-size="14.00">समासः</text>
</g>
<!-- Node3_1 -->
<g id="node9" class="node">
<title>Node3_1</title>
<ellipse fill="#ffff00" stroke="#ffff00" cx="64" cy="-105" rx="43.59" ry="18"/>
<text text-anchor="middle" x="64" y="-101.3" font-family="Times,serif" font-size="14.00">श्री&#45;(3.1)</text>
</g>
<!-- Node3_1&#45;&gt;Node3_2 -->
<g id="edge4" class="edge">
<title>Node3_1&#45;&gt;Node3_2</title>
<path fill="none" stroke="black" d="M64,-133.27C64,-146.58 64,-162.19 64,-173.82"/>
<polygon fill="black" stroke="black" points="67.5,-133.2 64,-123.2 60.5,-133.2 67.5,-133.2"/>
<text text-anchor="middle" x="81" y="-144.8" font-family="Times,serif" font-size="14.00">समासः</text>
</g>
<!-- Node4_1 -->
<g id="node10" class="node">
<title>Node4_1</title>
<ellipse fill="#ffff00" stroke="#ffff00" cx="173" cy="-192" rx="45.49" ry="18"/>
<text text-anchor="middle" x="173" y="-188.3" font-family="Times,serif" font-size="14.00">पुत्र&#45;(4.1)</text>
</g>
<!-- Node4_1&#45;&gt;Node4_2 -->
<g id="edge6" class="edge">
<title>Node4_1&#45;&gt;Node4_2</title>
<path fill="none" stroke="black" d="M146.98,-215.4C136.56,-224.18 124.35,-234.24 113,-243 104.39,-249.64 94.69,-256.67 86.21,-262.66"/>
<polygon fill="black" stroke="black" points="149.54,-217.82 154.91,-208.68 145.02,-212.48 149.54,-217.82"/>
<text text-anchor="middle" x="149" y="-231.8" font-family="Times,serif" font-size="14.00">समासः</text>
</g>
<!-- Node6_1 -->
<g id="node12" class="node">
<title>Node6_1</title>
<ellipse fill="#ffff00" stroke="#ffff00" cx="719" cy="-18" rx="47.39" ry="18"/>
<text text-anchor="middle" x="719" y="-14.3" font-family="Times,serif" font-size="14.00">नाग&#45;(6.1)</text>
</g>
<!-- Node6_2 -->
<g id="node13" class="node">
<title>Node6_2</title>
<ellipse fill="#ffff00" stroke="#ffff00" cx="719" cy="-105" rx="51.19" ry="18"/>
<text text-anchor="middle" x="719" y="-101.3" font-family="Times,serif" font-size="14.00">अयुत&#45;(6.2)</text>
</g>
<!-- Node6_1&#45;&gt;Node6_2 -->
<g id="edge8" class="edge">
<title>Node6_1&#45;&gt;Node6_2</title>
<path fill="none" stroke="black" d="M719,-46.27C719,-59.58 719,-75.19 719,-86.82"/>
<polygon fill="black" stroke="black" points="722.5,-46.2 719,-36.2 715.5,-46.2 722.5,-46.2"/>
<text text-anchor="middle" x="736" y="-57.8" font-family="Times,serif" font-size="14.00">समासः</text>
</g>
<!-- Node6_2&#45;&gt;Node6_3 -->
<g id="edge9" class="edge">
<title>Node6_2&#45;&gt;Node6_3</title>
<path fill="none" stroke="black" d="M719,-133.27C719,-146.58 719,-162.19 719,-173.82"/>
<polygon fill="black" stroke="black" points="722.5,-133.2 719,-123.2 715.5,-133.2 722.5,-133.2"/>
<text text-anchor="middle" x="736" y="-144.8" font-family="Times,serif" font-size="14.00">समासः</text>
</g>
<!-- Node9_1 -->
<g id="node15" class="node">
<title>Node9_1</title>
<ellipse fill="#ff99ff" stroke="#ff99ff" cx="519" cy="-192" rx="38.99" ry="18"/>
<text text-anchor="middle" x="519" y="-188.3" font-family="Times,serif" font-size="14.00">हि(9.1)</text>
</g>
<!-- Node9_1&#45;&gt;Node8_1 -->
<g id="edge13" class="edge">
<title>Node9_1&#45;&gt;Node8_1</title>
<path fill="none" stroke="black" d="M544.02,-215.05C554.16,-223.86 566.04,-234.03 577,-243 584.96,-249.52 593.88,-256.52 601.67,-262.53"/>
<polygon fill="black" stroke="black" points="546.15,-212.27 536.32,-208.33 541.55,-217.54 546.15,-212.27"/>
<text text-anchor="middle" x="595.5" y="-231.8" font-family="Times,serif" font-size="14.00">सम्बन्धः</text>
</g>
<!-- Node10_1 -->
<g id="node16" class="node">
<title>Node10_1</title>
<ellipse fill="#ffff00" stroke="#ffff00" cx="412" cy="-192" rx="50.09" ry="18"/>
<text text-anchor="middle" x="412" y="-188.3" font-family="Times,serif" font-size="14.00">दव&#45;(10.1)</text>
</g>
<!-- Node10_2 -->
<g id="node17" class="node">
<title>Node10_2</title>
<ellipse fill="#40e0d0" stroke="#40e0d0" cx="433" cy="-279" rx="61.99" ry="18"/>
<text text-anchor="middle" x="433" y="-275.3" font-family="Times,serif" font-size="14.00">अग्निना(10.2)</text>
</g>
<!-- Node10_1&#45;&gt;Node10_2 -->
<g id="edge14" class="edge">
<title>Node10_1&#45;&gt;Node10_2</title>
<path fill="none" stroke="black" d="M418.74,-220.27C422.03,-233.58 425.88,-249.19 428.76,-260.82"/>
<polygon fill="black" stroke="black" points="422.05,-219.07 416.25,-210.2 415.25,-220.75 422.05,-219.07"/>
<text text-anchor="middle" x="440" y="-231.8" font-family="Times,serif" font-size="14.00">समासः</text>
</g>
<!-- Node10_2&#45;&gt;Node11_1 -->
<g id="edge15" class="edge">
<title>Node10_2&#45;&gt;Node11_1</title>
<path fill="none" stroke="black" d="M461.18,-302.82C479.32,-317.49 502.42,-336.19 518.53,-349.24"/>
<polygon fill="black" stroke="black" points="463.22,-299.96 453.25,-296.39 458.82,-305.4 463.22,-299.96"/>
<text text-anchor="middle" x="500.5" y="-318.8" font-family="Times,serif" font-size="14.00">हेतुः</text>
</g>
</g>
</svg>
