<?xml version="1.0" encoding="UTF-8" standalone="no"?>
<!DOCTYPE svg PUBLIC "-//W3C//DTD SVG 1.1//EN"
 "http://www.w3.org/Graphics/SVG/1.1/DTD/svg11.dtd">
<!-- Generated by graphviz version 2.43.0 (0)
 -->
<!-- Title: G Pages: 1 -->
<svg width="872pt" height="392pt"
 viewBox="0.00 0.00 872.09 392.00" xmlns="http://www.w3.org/2000/svg" xmlns:xlink="http://www.w3.org/1999/xlink">
<g id="graph0" class="graph" transform="scale(1 1) rotate(0) translate(4 388)">
<title>G</title>
<polygon fill="#fffacd" stroke="transparent" points="-4,4 -4,-388 868.09,-388 868.09,4 -4,4"/>
<g id="clust1" class="cluster">
<title>cluster_1</title>
<polygon fill="#fffacd" stroke="black" points="82.05,-166 82.05,-305 416.05,-305 416.05,-166 82.05,-166"/>
</g>
<g id="clust2" class="cluster">
<title>cluster_2</title>
<polygon fill="#fffacd" stroke="black" points="636.05,-79 636.05,-218 760.05,-218 760.05,-79 636.05,-79"/>
</g>
<!-- Node3_1 -->
<g id="node1" class="node">
<title>Node3_1</title>
<ellipse fill="#00bfff" stroke="#00bfff" cx="249.05" cy="-192" rx="46.59" ry="18"/>
<text text-anchor="middle" x="249.05" y="-188.3" font-family="Times,serif" font-size="14.00">दग्धः(3.1)</text>
</g>
<!-- Node5_1 -->
<g id="node2" class="node">
<title>Node5_1</title>
<ellipse fill="#00bfff" stroke="#00bfff" cx="180.05" cy="-279" rx="63.89" ry="18"/>
<text text-anchor="middle" x="180.05" y="-275.3" font-family="Times,serif" font-size="14.00">वैचित्रवीर्यः(5.1)</text>
</g>
<!-- Node3_1&#45;&gt;Node5_1 -->
<g id="edge4" class="edge">
<title>Node3_1&#45;&gt;Node5_1</title>
<path fill="none" stroke="black" d="M230.32,-217.47C223.97,-225.65 216.77,-234.78 210.05,-243 205.08,-249.07 199.52,-255.62 194.55,-261.4"/>
<polygon fill="black" stroke="black" points="233.24,-219.42 236.59,-209.36 227.7,-215.13 233.24,-219.42"/>
<text text-anchor="middle" x="243.55" y="-231.8" font-family="Times,serif" font-size="14.00">विशेषणम्</text>
</g>
<!-- Node8_1 -->
<g id="node12" class="node">
<title>Node8_1</title>
<ellipse fill="#ff1975" stroke="#ff1975" cx="68.05" cy="-366" rx="56.59" ry="18"/>
<text text-anchor="middle" x="68.05" y="-362.3" font-family="Times,serif" font-size="14.00">(अस्ति)(8.1)</text>
</g>
<!-- Node5_1&#45;&gt;Node8_1 -->
<g id="edge7" class="edge">
<title>Node5_1&#45;&gt;Node8_1</title>
<path fill="none" stroke="black" d="M150.78,-302.21C131.4,-316.92 106.43,-335.87 89.02,-349.08"/>
<polygon fill="black" stroke="black" points="153.13,-304.82 158.98,-295.99 148.9,-299.25 153.13,-304.82"/>
<text text-anchor="middle" x="141.05" y="-318.8" font-family="Times,serif" font-size="14.00">कर्ता</text>
</g>
<!-- Node4_2 -->
<g id="node3" class="node">
<title>Node4_2</title>
<ellipse fill="#00bfff" stroke="#00bfff" cx="361.05" cy="-192" rx="46.59" ry="18"/>
<text text-anchor="middle" x="361.05" y="-188.3" font-family="Times,serif" font-size="14.00">पतिः(4.2)</text>
</g>
<!-- Node4_2&#45;&gt;Node5_1 -->
<g id="edge6" class="edge">
<title>Node4_2&#45;&gt;Node5_1</title>
<path fill="none" stroke="black" d="M327.8,-212.64C310.8,-222.33 289.62,-233.87 270.05,-243 253.34,-250.8 234.37,-258.36 218.17,-264.44"/>
<polygon fill="black" stroke="black" points="329.86,-215.5 336.78,-207.47 326.37,-209.43 329.86,-215.5"/>
<text text-anchor="middle" x="320.55" y="-231.8" font-family="Times,serif" font-size="14.00">विशेषणम्</text>
</g>
<!-- Node7_1 -->
<g id="node4" class="node">
<title>Node7_1</title>
<ellipse fill="#00bfff" stroke="#00bfff" cx="137.05" cy="-192" rx="46.59" ry="18"/>
<text text-anchor="middle" x="137.05" y="-188.3" font-family="Times,serif" font-size="14.00">असौ(7.1)</text>
</g>
<!-- Node7_1&#45;&gt;Node5_1 -->
<g id="edge9" class="edge">
<title>Node7_1&#45;&gt;Node5_1</title>
<path fill="none" stroke="black" d="M150.07,-218.74C156.99,-232.42 165.31,-248.86 171.42,-260.95"/>
<polygon fill="black" stroke="black" points="153.18,-217.14 145.54,-209.79 146.93,-220.3 153.18,-217.14"/>
<text text-anchor="middle" x="183.55" y="-231.8" font-family="Times,serif" font-size="14.00">विशेषणम्</text>
</g>
<!-- Node12_1 -->
<g id="node5" class="node">
<title>Node12_1</title>
<ellipse fill="#00bfff" stroke="#00bfff" cx="698.05" cy="-105" rx="53.89" ry="18"/>
<text text-anchor="middle" x="698.05" y="-101.3" font-family="Times,serif" font-size="14.00">श्रुतम्(12.1)</text>
</g>
<!-- Node13_1 -->
<g id="node6" class="node">
<title>Node13_1</title>
<ellipse fill="#00bfff" stroke="#00bfff" cx="696.05" cy="-192" rx="48.19" ry="18"/>
<text text-anchor="middle" x="696.05" y="-188.3" font-family="Times,serif" font-size="14.00">तत्(13.1)</text>
</g>
<!-- Node12_1&#45;&gt;Node13_1 -->
<g id="edge13" class="edge">
<title>Node12_1&#45;&gt;Node13_1</title>
<path fill="none" stroke="black" d="M697.41,-133.27C697.09,-146.58 696.72,-162.19 696.45,-173.82"/>
<polygon fill="black" stroke="black" points="700.91,-133.28 697.64,-123.2 693.91,-133.12 700.91,-133.28"/>
<text text-anchor="middle" x="719.55" y="-144.8" font-family="Times,serif" font-size="14.00">विशेषणम्</text>
</g>
<!-- Node15_1 -->
<g id="node8" class="node">
<title>Node15_1</title>
<ellipse fill="#ff1975" stroke="#ff1975" cx="585.05" cy="-279" rx="61.99" ry="18"/>
<text text-anchor="middle" x="585.05" y="-275.3" font-family="Times,serif" font-size="14.00">वक्ष्यामि(15.1)</text>
</g>
<!-- Node13_1&#45;&gt;Node15_1 -->
<g id="edge14" class="edge">
<title>Node13_1&#45;&gt;Node15_1</title>
<path fill="none" stroke="black" d="M670.11,-215.51C659.7,-224.31 647.48,-234.35 636.05,-243 627.4,-249.55 617.64,-256.38 608.99,-262.25"/>
<polygon fill="black" stroke="black" points="672.68,-217.92 678.02,-208.77 668.14,-212.59 672.68,-217.92"/>
<text text-anchor="middle" x="663.05" y="-231.8" font-family="Times,serif" font-size="14.00">कर्म</text>
</g>
<!-- Node1_1 -->
<g id="node7" class="node">
<title>Node1_1</title>
<ellipse fill="#6fffc3" stroke="#6fffc3" cx="475.05" cy="-192" rx="48.99" ry="18"/>
<text text-anchor="middle" x="475.05" y="-188.3" font-family="Times,serif" font-size="14.00">भारत(1.1)</text>
</g>
<!-- Node1_1&#45;&gt;Node15_1 -->
<g id="edge1" class="edge">
<title>Node1_1&#45;&gt;Node15_1</title>
<path fill="none" stroke="black" d="M499.99,-215.64C510.03,-224.46 521.87,-234.47 533.05,-243 541.78,-249.67 551.72,-256.52 560.55,-262.38"/>
<polygon fill="black" stroke="black" points="502.17,-212.89 492.36,-208.88 497.52,-218.13 502.17,-212.89"/>
<text text-anchor="middle" x="557.05" y="-231.8" font-family="Times,serif" font-size="14.00">सम्बोधनम्</text>
</g>
<!-- Node2_1 -->
<g id="node9" class="node">
<title>Node2_1</title>
<ellipse fill="#ffff00" stroke="#ffff00" cx="248.05" cy="-18" rx="47.39" ry="18"/>
<text text-anchor="middle" x="248.05" y="-14.3" font-family="Times,serif" font-size="14.00">वृथा&#45;(2.1)</text>
</g>
<!-- Node2_2 -->
<g id="node10" class="node">
<title>Node2_2</title>
<ellipse fill="#40e0d0" stroke="#40e0d0" cx="248.05" cy="-105" rx="55.79" ry="18"/>
<text text-anchor="middle" x="248.05" y="-101.3" font-family="Times,serif" font-size="14.00">अग्निना(2.2)</text>
</g>
<!-- Node2_1&#45;&gt;Node2_2 -->
<g id="edge2" class="edge">
<title>Node2_1&#45;&gt;Node2_2</title>
<path fill="none" stroke="black" d="M248.05,-46.27C248.05,-59.58 248.05,-75.19 248.05,-86.82"/>
<polygon fill="black" stroke="black" points="251.55,-46.2 248.05,-36.2 244.55,-46.2 251.55,-46.2"/>
<text text-anchor="middle" x="265.05" y="-57.8" font-family="Times,serif" font-size="14.00">समासः</text>
</g>
<!-- Node2_2&#45;&gt;Node3_1 -->
<g id="edge3" class="edge">
<title>Node2_2&#45;&gt;Node3_1</title>
<path fill="none" stroke="black" d="M248.37,-133.27C248.52,-146.58 248.71,-162.19 248.84,-173.82"/>
<polygon fill="black" stroke="black" points="251.87,-133.16 248.25,-123.2 244.87,-133.24 251.87,-133.16"/>
<text text-anchor="middle" x="264.55" y="-144.8" font-family="Times,serif" font-size="14.00">करणम्</text>
</g>
<!-- Node4_1 -->
<g id="node11" class="node">
<title>Node4_1</title>
<ellipse fill="#ffff00" stroke="#ffff00" cx="362.05" cy="-105" rx="40.09" ry="18"/>
<text text-anchor="middle" x="362.05" y="-101.3" font-family="Times,serif" font-size="14.00">नृ&#45;(4.1)</text>
</g>
<!-- Node4_1&#45;&gt;Node4_2 -->
<g id="edge5" class="edge">
<title>Node4_1&#45;&gt;Node4_2</title>
<path fill="none" stroke="black" d="M361.73,-133.27C361.57,-146.58 361.39,-162.19 361.25,-173.82"/>
<polygon fill="black" stroke="black" points="365.23,-133.24 361.84,-123.2 358.23,-133.16 365.23,-133.24"/>
<text text-anchor="middle" x="378.05" y="-144.8" font-family="Times,serif" font-size="14.00">समासः</text>
</g>
<!-- Node6_1 -->
<g id="node13" class="node">
<title>Node6_1</title>
<ellipse fill="#ff99ff" stroke="#ff99ff" cx="37.05" cy="-279" rx="37.09" ry="18"/>
<text text-anchor="middle" x="37.05" y="-275.3" font-family="Times,serif" font-size="14.00">न(6.1)</text>
</g>
<!-- Node6_1&#45;&gt;Node8_1 -->
<g id="edge8" class="edge">
<title>Node6_1&#45;&gt;Node8_1</title>
<path fill="none" stroke="black" d="M46.72,-306.53C51.65,-320.05 57.5,-336.09 61.83,-347.95"/>
<polygon fill="black" stroke="black" points="49.89,-304.99 43.17,-296.79 43.31,-307.39 49.89,-304.99"/>
<text text-anchor="middle" x="74.55" y="-318.8" font-family="Times,serif" font-size="14.00">प्रतिषेधः</text>
</g>
<!-- Node9_1 -->
<g id="node14" class="node">
<title>Node9_1</title>
<ellipse fill="#ff99ff" stroke="#ff99ff" cx="587.05" cy="-18" rx="44.69" ry="18"/>
<text text-anchor="middle" x="587.05" y="-14.3" font-family="Times,serif" font-size="14.00">यथा(9.1)</text>
</g>
<!-- Node9_1&#45;&gt;Node12_1 -->
<g id="edge10" class="edge">
<title>Node9_1&#45;&gt;Node12_1</title>
<path fill="none" stroke="black" d="M601.23,-44.65C606.87,-53.19 613.96,-62.24 622.05,-69 633.53,-78.59 648.08,-86.13 661.36,-91.72"/>
<polygon fill="black" stroke="black" points="604.14,-42.69 595.89,-36.04 598.19,-46.38 604.14,-42.69"/>
<text text-anchor="middle" x="658.05" y="-57.8" font-family="Times,serif" font-size="14.00">उत्प्रेक्षा_द्योतकः</text>
</g>
<!-- Node10_1 -->
<g id="node15" class="node">
<title>Node10_1</title>
<ellipse fill="#ff99ff" stroke="#ff99ff" cx="698.05" cy="-18" rx="48.19" ry="18"/>
<text text-anchor="middle" x="698.05" y="-14.3" font-family="Times,serif" font-size="14.00">तत्र(10.1)</text>
</g>
<!-- Node10_1&#45;&gt;Node12_1 -->
<g id="edge11" class="edge">
<title>Node10_1&#45;&gt;Node12_1</title>
<path fill="none" stroke="black" d="M698.05,-46.27C698.05,-59.58 698.05,-75.19 698.05,-86.82"/>
<polygon fill="black" stroke="black" points="701.55,-46.2 698.05,-36.2 694.55,-46.2 701.55,-46.2"/>
<text text-anchor="middle" x="730.05" y="-57.8" font-family="Times,serif" font-size="14.00">देशाधिकरणम्</text>
</g>
<!-- Node11_1 -->
<g id="node16" class="node">
<title>Node11_1</title>
<ellipse fill="#40e0d0" stroke="#40e0d0" cx="814.05" cy="-18" rx="50.09" ry="18"/>
<text text-anchor="middle" x="814.05" y="-14.3" font-family="Times,serif" font-size="14.00">मया(11.1)</text>
</g>
<!-- Node11_1&#45;&gt;Node12_1 -->
<g id="edge12" class="edge">
<title>Node11_1&#45;&gt;Node12_1</title>
<path fill="none" stroke="black" d="M793.66,-43.4C785.62,-52.13 775.94,-61.62 766.05,-69 754.98,-77.25 741.68,-84.58 729.79,-90.36"/>
<polygon fill="black" stroke="black" points="796.5,-45.47 800.54,-35.68 791.27,-40.81 796.5,-45.47"/>
<text text-anchor="middle" x="794.05" y="-57.8" font-family="Times,serif" font-size="14.00">कर्ता</text>
</g>
<!-- Node14_1 -->
<g id="node17" class="node">
<title>Node14_1</title>
<ellipse fill="#b0e2ff" stroke="#b0e2ff" cx="585.05" cy="-192" rx="42.79" ry="18"/>
<text text-anchor="middle" x="585.05" y="-188.3" font-family="Times,serif" font-size="14.00">ते(14.1)</text>
</g>
<!-- Node14_1&#45;&gt;Node15_1 -->
<g id="edge15" class="edge">
<title>Node14_1&#45;&gt;Node15_1</title>
<path fill="none" stroke="black" d="M585.05,-220.27C585.05,-233.58 585.05,-249.19 585.05,-260.82"/>
<polygon fill="black" stroke="black" points="588.55,-220.2 585.05,-210.2 581.55,-220.2 588.55,-220.2"/>
<text text-anchor="middle" x="608.55" y="-231.8" font-family="Times,serif" font-size="14.00">सम्प्रदानम्</text>
</g>
</g>
</svg>
