<?xml version="1.0" encoding="UTF-8" standalone="no"?>
<!DOCTYPE svg PUBLIC "-//W3C//DTD SVG 1.1//EN"
 "http://www.w3.org/Graphics/SVG/1.1/DTD/svg11.dtd">
<!-- Generated by graphviz version 2.43.0 (0)
 -->
<!-- Title: G Pages: 1 -->
<svg width="537pt" height="479pt"
 viewBox="0.00 0.00 536.74 479.00" xmlns="http://www.w3.org/2000/svg" xmlns:xlink="http://www.w3.org/1999/xlink">
<g id="graph0" class="graph" transform="scale(1 1) rotate(0) translate(4 475)">
<title>G</title>
<polygon fill="#fffacd" stroke="transparent" points="-4,4 -4,-475 532.74,-475 532.74,4 -4,4"/>
<g id="clust1" class="cluster">
<title>cluster_1</title>
<polygon fill="#fffacd" stroke="black" points="148.74,-79 148.74,-218 520.74,-218 520.74,-79 148.74,-79"/>
</g>
<!-- Node2_1 -->
<g id="node1" class="node">
<title>Node2_1</title>
<ellipse fill="#40e0d0" stroke="#40e0d0" cx="335.74" cy="-105" rx="57.39" ry="18"/>
<text text-anchor="middle" x="335.74" y="-101.3" font-family="Times,serif" font-size="14.00">प्रविशता(2.1)</text>
</g>
<!-- Node4_1 -->
<g id="node2" class="node">
<title>Node4_1</title>
<ellipse fill="#40e0d0" stroke="#40e0d0" cx="335.74" cy="-192" rx="42.49" ry="18"/>
<text text-anchor="middle" x="335.74" y="-188.3" font-family="Times,serif" font-size="14.00">तेन(4.1)</text>
</g>
<!-- Node2_1&#45;&gt;Node4_1 -->
<g id="edge2" class="edge">
<title>Node2_1&#45;&gt;Node4_1</title>
<path fill="none" stroke="black" d="M335.74,-133.27C335.74,-146.58 335.74,-162.19 335.74,-173.82"/>
<polygon fill="black" stroke="black" points="339.24,-133.2 335.74,-123.2 332.24,-133.2 339.24,-133.2"/>
<text text-anchor="middle" x="358.24" y="-144.8" font-family="Times,serif" font-size="14.00">विशेषणम्</text>
</g>
<!-- Node9_1 -->
<g id="node7" class="node">
<title>Node9_1</title>
<ellipse fill="#00bfff" stroke="#00bfff" cx="249.74" cy="-366" rx="55.49" ry="18"/>
<text text-anchor="middle" x="249.74" y="-362.3" font-family="Times,serif" font-size="14.00">उत्सृष्टाः(9.1)</text>
</g>
<!-- Node4_1&#45;&gt;Node9_1 -->
<g id="edge5" class="edge">
<title>Node4_1&#45;&gt;Node9_1</title>
<path fill="none" stroke="black" d="M354.09,-217.89C373.66,-247.72 398.45,-297.71 371.74,-330 355.38,-349.78 328.65,-358.81 304.37,-362.77"/>
<polygon fill="black" stroke="black" points="356.78,-215.61 348.25,-209.32 350.99,-219.56 356.78,-215.61"/>
<text text-anchor="middle" x="393.74" y="-275.3" font-family="Times,serif" font-size="14.00">कर्ता</text>
</g>
<!-- Node7_1 -->
<g id="node8" class="node">
<title>Node7_1</title>
<ellipse fill="#ff99ff" stroke="#ff99ff" cx="61.74" cy="-279" rx="61.99" ry="18"/>
<text text-anchor="middle" x="61.74" y="-275.3" font-family="Times,serif" font-size="14.00">कारयित्वा(7.1)</text>
</g>
<!-- Node4_1&#45;&gt;Node7_1 -->
<g id="edge6" class="edge">
<title>Node4_1&#45;&gt;Node7_1</title>
<path fill="none" stroke="black" stroke-dasharray="1,5" d="M293.09,-206.23C241.04,-222.38 153.66,-249.49 102.49,-265.36"/>
<polygon fill="black" stroke="black" points="294.18,-209.56 302.69,-203.25 292.11,-202.87 294.18,-209.56"/>
<text text-anchor="middle" x="245.24" y="-231.8" font-family="Times,serif" font-size="14.00">प्रयोजककर्ता</text>
</g>
<!-- Node3_2 -->
<g id="node3" class="node">
<title>Node3_2</title>
<ellipse fill="#40e0d0" stroke="#40e0d0" cx="461.74" cy="-105" rx="50.89" ry="18"/>
<text text-anchor="middle" x="461.74" y="-101.3" font-family="Times,serif" font-size="14.00">भक्षेण(3.2)</text>
</g>
<!-- Node3_2&#45;&gt;Node4_1 -->
<g id="edge4" class="edge">
<title>Node3_2&#45;&gt;Node4_1</title>
<path fill="none" stroke="black" d="M430.88,-126.82C408.03,-142.24 377.48,-162.85 357.23,-176.5"/>
<polygon fill="black" stroke="black" points="432.89,-129.69 439.22,-121.2 428.97,-123.89 432.89,-129.69"/>
<text text-anchor="middle" x="428.24" y="-144.8" font-family="Times,serif" font-size="14.00">विशेषणम्</text>
</g>
<!-- Node5_1 -->
<g id="node4" class="node">
<title>Node5_1</title>
<ellipse fill="#40e0d0" stroke="#40e0d0" cx="208.74" cy="-105" rx="51.99" ry="18"/>
<text text-anchor="middle" x="208.74" y="-101.3" font-family="Times,serif" font-size="14.00">धीमता(5.1)</text>
</g>
<!-- Node5_1&#45;&gt;Node4_1 -->
<g id="edge7" class="edge">
<title>Node5_1&#45;&gt;Node4_1</title>
<path fill="none" stroke="black" d="M239.86,-126.82C262.89,-142.24 293.68,-162.85 314.08,-176.5"/>
<polygon fill="black" stroke="black" points="241.71,-123.85 231.45,-121.2 237.81,-129.67 241.71,-123.85"/>
<text text-anchor="middle" x="302.24" y="-144.8" font-family="Times,serif" font-size="14.00">विशेषणम्</text>
</g>
<!-- Node1_1 -->
<g id="node5" class="node">
<title>Node1_1</title>
<ellipse fill="#93db70" stroke="#93db70" cx="335.74" cy="-18" rx="46.29" ry="18"/>
<text text-anchor="middle" x="335.74" y="-14.3" font-family="Times,serif" font-size="14.00">वनम्(1.1)</text>
</g>
<!-- Node1_1&#45;&gt;Node2_1 -->
<g id="edge1" class="edge">
<title>Node1_1&#45;&gt;Node2_1</title>
<path fill="none" stroke="black" d="M335.74,-46.27C335.74,-59.58 335.74,-75.19 335.74,-86.82"/>
<polygon fill="black" stroke="black" points="339.24,-46.2 335.74,-36.2 332.24,-46.2 339.24,-46.2"/>
<text text-anchor="middle" x="344.74" y="-57.8" font-family="Times,serif" font-size="14.00">कर्म</text>
</g>
<!-- Node3_1 -->
<g id="node6" class="node">
<title>Node3_1</title>
<ellipse fill="#ffff00" stroke="#ffff00" cx="461.74" cy="-18" rx="46.59" ry="18"/>
<text text-anchor="middle" x="461.74" y="-14.3" font-family="Times,serif" font-size="14.00">वायु&#45;(3.1)</text>
</g>
<!-- Node3_1&#45;&gt;Node3_2 -->
<g id="edge3" class="edge">
<title>Node3_1&#45;&gt;Node3_2</title>
<path fill="none" stroke="black" d="M461.74,-46.27C461.74,-59.58 461.74,-75.19 461.74,-86.82"/>
<polygon fill="black" stroke="black" points="465.24,-46.2 461.74,-36.2 458.24,-46.2 465.24,-46.2"/>
<text text-anchor="middle" x="481.24" y="-57.8" font-family="Times,serif" font-size="14.00">बहुव्रीहिः</text>
</g>
<!-- Node12_1 -->
<g id="node11" class="node">
<title>Node12_1</title>
<ellipse fill="#00bfff" stroke="#00bfff" cx="152.74" cy="-453" rx="53.89" ry="18"/>
<text text-anchor="middle" x="152.74" y="-449.3" font-family="Times,serif" font-size="14.00">श्रुतम्(12.1)</text>
</g>
<!-- Node9_1&#45;&gt;Node12_1 -->
<g id="edge11" class="edge">
<title>Node9_1&#45;&gt;Node12_1</title>
<path fill="none" stroke="black" d="M223.31,-390.17C206.74,-404.68 185.81,-423.03 171.06,-435.95"/>
<polygon fill="black" stroke="black" points="225.83,-392.61 231.04,-383.39 221.21,-387.35 225.83,-392.61"/>
<text text-anchor="middle" x="229.24" y="-405.8" font-family="Times,serif" font-size="14.00">वाक्यकर्म</text>
</g>
<!-- Node7_1&#45;&gt;Node9_1 -->
<g id="edge9" class="edge">
<title>Node7_1&#45;&gt;Node9_1</title>
<path fill="none" stroke="black" d="M103.06,-298.68C137.91,-314.44 187.03,-336.65 218.64,-350.93"/>
<polygon fill="black" stroke="black" points="104.19,-295.35 93.64,-294.42 101.31,-301.73 104.19,-295.35"/>
<text text-anchor="middle" x="188.24" y="-318.8" font-family="Times,serif" font-size="14.00">पूर्वकालः</text>
</g>
<!-- Node6_1 -->
<g id="node9" class="node">
<title>Node6_1</title>
<ellipse fill="#93db70" stroke="#93db70" cx="61.74" cy="-192" rx="48.99" ry="18"/>
<text text-anchor="middle" x="61.74" y="-188.3" font-family="Times,serif" font-size="14.00">इष्टिम्(6.1)</text>
</g>
<!-- Node6_1&#45;&gt;Node7_1 -->
<g id="edge8" class="edge">
<title>Node6_1&#45;&gt;Node7_1</title>
<path fill="none" stroke="black" d="M61.74,-220.27C61.74,-233.58 61.74,-249.19 61.74,-260.82"/>
<polygon fill="black" stroke="black" points="65.24,-220.2 61.74,-210.2 58.24,-220.2 65.24,-220.2"/>
<text text-anchor="middle" x="70.74" y="-231.8" font-family="Times,serif" font-size="14.00">कर्म</text>
</g>
<!-- Node8_1 -->
<g id="node10" class="node">
<title>Node8_1</title>
<ellipse fill="#00bfff" stroke="#00bfff" cx="194.74" cy="-279" rx="53.09" ry="18"/>
<text text-anchor="middle" x="194.74" y="-275.3" font-family="Times,serif" font-size="14.00">अग्नयः(8.1)</text>
</g>
<!-- Node8_1&#45;&gt;Node9_1 -->
<g id="edge10" class="edge">
<title>Node8_1&#45;&gt;Node9_1</title>
<path fill="none" stroke="black" d="M211.18,-305.4C220.15,-319.26 231,-336.03 238.9,-348.24"/>
<polygon fill="black" stroke="black" points="213.98,-303.29 205.61,-296.79 208.1,-307.09 213.98,-303.29"/>
<text text-anchor="middle" x="233.74" y="-318.8" font-family="Times,serif" font-size="14.00">कर्म</text>
</g>
<!-- Node10_1 -->
<g id="node12" class="node">
<title>Node10_1</title>
<ellipse fill="#ff99ff" stroke="#ff99ff" cx="315.74" cy="-279" rx="50.09" ry="18"/>
<text text-anchor="middle" x="315.74" y="-275.3" font-family="Times,serif" font-size="14.00">इति(10.1)</text>
</g>
<!-- Node10_1&#45;&gt;Node9_1 -->
<g id="edge12" class="edge">
<title>Node10_1&#45;&gt;Node9_1</title>
<path fill="none" stroke="black" d="M296.33,-305.01C285.51,-318.94 272.33,-335.91 262.76,-348.24"/>
<polygon fill="black" stroke="black" points="299.34,-306.84 302.71,-296.79 293.81,-302.55 299.34,-306.84"/>
<text text-anchor="middle" x="326.74" y="-318.8" font-family="Times,serif" font-size="14.00">वाक्यकर्म_द्योतकः</text>
</g>
<!-- Node11_1 -->
<g id="node13" class="node">
<title>Node11_1</title>
<ellipse fill="#87ceeb" stroke="#87ceeb" cx="130.74" cy="-366" rx="45.49" ry="18"/>
<text text-anchor="middle" x="130.74" y="-362.3" font-family="Times,serif" font-size="14.00">नः(11.1)</text>
</g>
<!-- Node11_1&#45;&gt;Node12_1 -->
<g id="edge13" class="edge">
<title>Node11_1&#45;&gt;Node12_1</title>
<path fill="none" stroke="black" d="M137.8,-394.27C141.25,-407.58 145.29,-423.19 148.3,-434.82"/>
<polygon fill="black" stroke="black" points="141.09,-393.01 135.2,-384.2 134.31,-394.76 141.09,-393.01"/>
<text text-anchor="middle" x="154.74" y="-405.8" font-family="Times,serif" font-size="14.00">कर्ता</text>
</g>
</g>
</svg>
