<?xml version="1.0" encoding="UTF-8" standalone="no"?>
<!DOCTYPE svg PUBLIC "-//W3C//DTD SVG 1.1//EN"
 "http://www.w3.org/Graphics/SVG/1.1/DTD/svg11.dtd">
<!-- Generated by graphviz version 2.43.0 (0)
 -->
<!-- Title: G Pages: 1 -->
<svg width="755pt" height="408pt"
 viewBox="0.00 0.00 755.00 408.00" xmlns="http://www.w3.org/2000/svg" xmlns:xlink="http://www.w3.org/1999/xlink">
<g id="graph0" class="graph" transform="scale(1 1) rotate(0) translate(4 404)">
<title>G</title>
<polygon fill="#fffacd" stroke="transparent" points="-4,4 -4,-404 751,-404 751,4 -4,4"/>
<g id="clust1" class="cluster">
<title>cluster_1</title>
<polygon fill="#fffacd" stroke="black" points="282,-8 282,-147 426,-147 426,-8 282,-8"/>
</g>
<g id="clust2" class="cluster">
<title>cluster_2</title>
<polygon fill="#fffacd" stroke="black" points="8,-95 8,-234 144,-234 144,-95 8,-95"/>
</g>
<g id="clust3" class="cluster">
<title>cluster_3</title>
<polygon fill="#fffacd" stroke="black" points="530,-8 530,-147 638,-147 638,-8 530,-8"/>
</g>
<g id="clust4" class="cluster">
<title>cluster_4</title>
<polygon fill="#fffacd" stroke="black" points="413,-182 413,-234 545,-234 545,-182 413,-182"/>
</g>
<!-- Node1_1 -->
<g id="node1" class="node">
<title>Node1_1</title>
<ellipse fill="#87ceeb" stroke="#87ceeb" cx="354" cy="-34" rx="51.99" ry="18"/>
<text text-anchor="middle" x="354" y="-30.3" font-family="Times,serif" font-size="14.00">धीमतः(1.1)</text>
</g>
<!-- Node2_1 -->
<g id="node2" class="node">
<title>Node2_1</title>
<ellipse fill="#87ceeb" stroke="#87ceeb" cx="354" cy="-121" rx="64.19" ry="18"/>
<text text-anchor="middle" x="354" y="-117.3" font-family="Times,serif" font-size="14.00">धृतराष्ट्रस्य(2.1)</text>
</g>
<!-- Node1_1&#45;&gt;Node2_1 -->
<g id="edge1" class="edge">
<title>Node1_1&#45;&gt;Node2_1</title>
<path fill="none" stroke="black" d="M354,-62.27C354,-75.58 354,-91.19 354,-102.82"/>
<polygon fill="black" stroke="black" points="357.5,-62.2 354,-52.2 350.5,-62.2 357.5,-62.2"/>
<text text-anchor="middle" x="376.5" y="-73.8" font-family="Times,serif" font-size="14.00">विशेषणम्</text>
</g>
<!-- Node5_1 -->
<g id="node4" class="node">
<title>Node5_1</title>
<ellipse fill="#00bfff" stroke="#00bfff" cx="76" cy="-208" rx="59.59" ry="18"/>
<text text-anchor="middle" x="76" y="-204.3" font-family="Times,serif" font-size="14.00">(वर्षाणि)(5.1)</text>
</g>
<!-- Node2_1&#45;&gt;Node5_1 -->
<g id="edge2" class="edge">
<title>Node2_1&#45;&gt;Node5_1</title>
<path fill="none" stroke="black" d="M305.9,-138.82C297.62,-141.61 289.08,-144.44 281,-147 225.15,-164.73 160.15,-183.43 118.57,-195.15"/>
<polygon fill="black" stroke="black" points="307.13,-142.1 315.46,-135.56 304.87,-135.47 307.13,-142.1"/>
<text text-anchor="middle" x="274.5" y="-160.8" font-family="Times,serif" font-size="14.00">षष्ठीसम्बन्धः</text>
</g>
<!-- Node11_1 -->
<g id="node7" class="node">
<title>Node11_1</title>
<ellipse fill="#00bfff" stroke="#00bfff" cx="479" cy="-208" rx="58.49" ry="18"/>
<text text-anchor="middle" x="479" y="-204.3" font-family="Times,serif" font-size="14.00">वर्षाणि(11.1)</text>
</g>
<!-- Node2_1&#45;&gt;Node11_1 -->
<g id="edge3" class="edge">
<title>Node2_1&#45;&gt;Node11_1</title>
<path fill="none" stroke="black" stroke-dasharray="1,5" d="M385.54,-143.45C407.44,-158.34 436.12,-177.84 455.91,-191.3"/>
<polygon fill="black" stroke="black" points="387.46,-140.52 377.22,-137.79 383.52,-146.31 387.46,-140.52"/>
<text text-anchor="middle" x="450.5" y="-160.8" font-family="Times,serif" font-size="14.00">षष्ठीसम्बन्धः</text>
</g>
<!-- Node4_1 -->
<g id="node3" class="node">
<title>Node4_1</title>
<ellipse fill="#00bfff" stroke="#00bfff" cx="76" cy="-121" rx="48.99" ry="18"/>
<text text-anchor="middle" x="76" y="-117.3" font-family="Times,serif" font-size="14.00">त्रीणि(4.1)</text>
</g>
<!-- Node4_1&#45;&gt;Node5_1 -->
<g id="edge5" class="edge">
<title>Node4_1&#45;&gt;Node5_1</title>
<path fill="none" stroke="black" d="M76,-149.27C76,-162.58 76,-178.19 76,-189.82"/>
<polygon fill="black" stroke="black" points="79.5,-149.2 76,-139.2 72.5,-149.2 79.5,-149.2"/>
<text text-anchor="middle" x="98.5" y="-160.8" font-family="Times,serif" font-size="14.00">विशेषणम्</text>
</g>
<!-- Node13_1 -->
<g id="node9" class="node">
<title>Node13_1</title>
<ellipse fill="#00bfff" stroke="#00bfff" cx="412" cy="-295" rx="66.09" ry="18"/>
<text text-anchor="middle" x="412" y="-291.3" font-family="Times,serif" font-size="14.00">अतीतानि(13.1)</text>
</g>
<!-- Node5_1&#45;&gt;Node13_1 -->
<g id="edge6" class="edge">
<title>Node5_1&#45;&gt;Node13_1</title>
<path fill="none" stroke="black" d="M110.88,-229.43C130.09,-239.81 154.7,-251.74 178,-259 234.08,-276.48 300.52,-285.35 348.25,-289.78"/>
<polygon fill="black" stroke="black" points="112.37,-226.25 101.92,-224.48 108.98,-232.38 112.37,-226.25"/>
<text text-anchor="middle" x="189" y="-247.8" font-family="Times,serif" font-size="14.00">कर्ता</text>
</g>
<!-- Node8_1 -->
<g id="node5" class="node">
<title>Node8_1</title>
<ellipse fill="#00bfff" stroke="#00bfff" cx="584" cy="-34" rx="42.49" ry="18"/>
<text text-anchor="middle" x="584" y="-30.3" font-family="Times,serif" font-size="14.00">दश(8.1)</text>
</g>
<!-- Node9_1 -->
<g id="node6" class="node">
<title>Node9_1</title>
<ellipse fill="#00bfff" stroke="#00bfff" cx="584" cy="-121" rx="46.29" ry="18"/>
<text text-anchor="middle" x="584" y="-117.3" font-family="Times,serif" font-size="14.00">पञ्च(9.1)</text>
</g>
<!-- Node8_1&#45;&gt;Node9_1 -->
<g id="edge10" class="edge">
<title>Node8_1&#45;&gt;Node9_1</title>
<path fill="none" stroke="black" d="M584,-62.27C584,-75.58 584,-91.19 584,-102.82"/>
<polygon fill="black" stroke="black" points="587.5,-62.2 584,-52.2 580.5,-62.2 587.5,-62.2"/>
<text text-anchor="middle" x="606.5" y="-73.8" font-family="Times,serif" font-size="14.00">समुच्चितः</text>
</g>
<!-- Node9_1&#45;&gt;Node11_1 -->
<g id="edge11" class="edge">
<title>Node9_1&#45;&gt;Node11_1</title>
<path fill="none" stroke="black" d="M556.83,-144C538.69,-158.68 515.25,-177.66 498.85,-190.93"/>
<polygon fill="black" stroke="black" points="559.17,-146.6 564.74,-137.59 554.77,-141.16 559.17,-146.6"/>
<text text-anchor="middle" x="559.5" y="-160.8" font-family="Times,serif" font-size="14.00">विशेषणम्</text>
</g>
<!-- Node11_1&#45;&gt;Node13_1 -->
<g id="edge13" class="edge">
<title>Node11_1&#45;&gt;Node13_1</title>
<path fill="none" stroke="black" d="M462.18,-234.39C456.6,-242.42 450.23,-251.23 444,-259 439.06,-265.17 433.32,-271.63 428.08,-277.3"/>
<polygon fill="black" stroke="black" points="465.11,-236.29 467.86,-226.06 459.33,-232.35 465.11,-236.29"/>
<text text-anchor="middle" x="466" y="-247.8" font-family="Times,serif" font-size="14.00">कर्ता</text>
</g>
<!-- Node3_1 -->
<g id="node8" class="node">
<title>Node3_1</title>
<ellipse fill="#ff99ff" stroke="#ff99ff" cx="358" cy="-208" rx="44.39" ry="18"/>
<text text-anchor="middle" x="358" y="-204.3" font-family="Times,serif" font-size="14.00">तदा(3.1)</text>
</g>
<!-- Node3_1&#45;&gt;Node13_1 -->
<g id="edge4" class="edge">
<title>Node3_1&#45;&gt;Node13_1</title>
<path fill="none" stroke="black" d="M363.2,-236.02C365.45,-243.82 368.61,-252.08 373,-259 377.48,-266.07 383.78,-272.58 390.01,-278.01"/>
<polygon fill="black" stroke="black" points="366.56,-235.03 360.74,-226.18 359.77,-236.74 366.56,-235.03"/>
<text text-anchor="middle" x="408.5" y="-247.8" font-family="Times,serif" font-size="14.00">कालाधिकरणम्</text>
</g>
<!-- Node14_1 -->
<g id="node14" class="node">
<title>Node14_1</title>
<ellipse fill="#ff1975" stroke="#ff1975" cx="412" cy="-382" rx="66.09" ry="18"/>
<text text-anchor="middle" x="412" y="-378.3" font-family="Times,serif" font-size="14.00">(अभवन्)(14.1)</text>
</g>
<!-- Node13_1&#45;&gt;Node14_1 -->
<g id="edge16" class="edge">
<title>Node13_1&#45;&gt;Node14_1</title>
<path fill="none" stroke="black" d="M412,-323.27C412,-336.58 412,-352.19 412,-363.82"/>
<polygon fill="black" stroke="black" points="415.5,-323.2 412,-313.2 408.5,-323.2 415.5,-323.2"/>
<text text-anchor="middle" x="447.5" y="-334.8" font-family="Times,serif" font-size="14.00">विधेयविशेषणम्</text>
</g>
<!-- Node6_1 -->
<g id="node10" class="node">
<title>Node6_1</title>
<ellipse fill="#c6e2eb" stroke="#c6e2eb" cx="694" cy="-121" rx="45.49" ry="18"/>
<text text-anchor="middle" x="694" y="-117.3" font-family="Times,serif" font-size="14.00">नगरे(6.1)</text>
</g>
<!-- Node6_1&#45;&gt;Node11_1 -->
<g id="edge8" class="edge">
<title>Node6_1&#45;&gt;Node11_1</title>
<path fill="none" stroke="black" stroke-dasharray="1,5" d="M657.41,-139.75C652.25,-142.21 647,-144.68 642,-147 617.27,-158.46 611.74,-163.03 586,-172 569.1,-177.89 564.09,-176.68 547,-182 536.07,-185.4 524.32,-189.54 513.71,-193.47"/>
<polygon fill="black" stroke="black" points="659.03,-142.85 666.54,-135.38 656.01,-136.54 659.03,-142.85"/>
<text text-anchor="middle" x="638.5" y="-160.8" font-family="Times,serif" font-size="14.00">सम्बन्धः</text>
</g>
<!-- Node6_1&#45;&gt;Node13_1 -->
<g id="edge7" class="edge">
<title>Node6_1&#45;&gt;Node13_1</title>
<path fill="none" stroke="black" d="M691.25,-149.55C687.43,-174.39 678.37,-210.52 657,-234 632.43,-261.01 535.92,-278.29 471.61,-287.05"/>
<polygon fill="black" stroke="black" points="694.75,-149.73 692.62,-139.35 687.82,-148.79 694.75,-149.73"/>
<text text-anchor="middle" x="715" y="-204.3" font-family="Times,serif" font-size="14.00">देशाधिकरणम्</text>
</g>
<!-- Node7_1 -->
<g id="node11" class="node">
<title>Node7_1</title>
<ellipse fill="#ff99ff" stroke="#ff99ff" cx="602" cy="-208" rx="46.29" ry="18"/>
<text text-anchor="middle" x="602" y="-204.3" font-family="Times,serif" font-size="14.00">एवम्(7.1)</text>
</g>
<!-- Node7_1&#45;&gt;Node13_1 -->
<g id="edge9" class="edge">
<title>Node7_1&#45;&gt;Node13_1</title>
<path fill="none" stroke="black" d="M564.71,-226.75C559.44,-229.21 554.09,-231.68 549,-234 514.02,-249.91 473.69,-267.48 445.9,-279.47"/>
<polygon fill="black" stroke="black" points="566.45,-229.8 574.01,-222.38 563.47,-223.46 566.45,-229.8"/>
<text text-anchor="middle" x="561" y="-247.8" font-family="Times,serif" font-size="14.00">क्रियाविशेषणम्</text>
</g>
<!-- Node10_1 -->
<g id="node12" class="node">
<title>Node10_1</title>
<ellipse fill="#ff99ff" stroke="#ff99ff" cx="478" cy="-34" rx="43.59" ry="18"/>
<text text-anchor="middle" x="478" y="-30.3" font-family="Times,serif" font-size="14.00">च(10.1)</text>
</g>
<!-- Node10_1&#45;&gt;Node9_1 -->
<g id="edge12" class="edge">
<title>Node10_1&#45;&gt;Node9_1</title>
<path fill="none" stroke="black" d="M487.56,-61.31C491.62,-69.7 497.04,-78.49 504,-85 516.18,-96.39 532.66,-104.45 547.5,-109.95"/>
<polygon fill="black" stroke="black" points="490.77,-59.91 483.56,-52.14 484.35,-62.71 490.77,-59.91"/>
<text text-anchor="middle" x="542" y="-73.8" font-family="Times,serif" font-size="14.00">समुच्चय_द्योतकः</text>
</g>
<!-- Node12_1 -->
<g id="node13" class="node">
<title>Node12_1</title>
<ellipse fill="#c6e2eb" stroke="#c6e2eb" cx="212" cy="-121" rx="59.59" ry="18"/>
<text text-anchor="middle" x="212" y="-117.3" font-family="Times,serif" font-size="14.00">वनवासे(12.1)</text>
</g>
<!-- Node12_1&#45;&gt;Node5_1 -->
<g id="edge15" class="edge">
<title>Node12_1&#45;&gt;Node5_1</title>
<path fill="none" stroke="black" stroke-dasharray="1,5" d="M178.26,-143.09C154.24,-158.1 122.5,-177.94 100.79,-191.51"/>
<polygon fill="black" stroke="black" points="180.43,-145.86 187.06,-137.59 176.72,-139.92 180.43,-145.86"/>
<text text-anchor="middle" x="170.5" y="-160.8" font-family="Times,serif" font-size="14.00">सम्बन्धः</text>
</g>
<!-- Node12_1&#45;&gt;Node13_1 -->
<g id="edge14" class="edge">
<title>Node12_1&#45;&gt;Node13_1</title>
<path fill="none" stroke="black" d="M209.26,-149.27C208.29,-174.21 210.97,-210.67 231,-234 260.22,-268.04 309.21,-282.85 348.87,-289.26"/>
<polygon fill="black" stroke="black" points="212.77,-149.23 209.88,-139.03 205.78,-148.8 212.77,-149.23"/>
<text text-anchor="middle" x="268" y="-204.3" font-family="Times,serif" font-size="14.00">विषयाधिकरणम्</text>
</g>
</g>
</svg>
