<?xml version="1.0" encoding="UTF-8" standalone="no"?>
<!DOCTYPE svg PUBLIC "-//W3C//DTD SVG 1.1//EN"
 "http://www.w3.org/Graphics/SVG/1.1/DTD/svg11.dtd">
<!-- Generated by graphviz version 2.43.0 (0)
 -->
<!-- Title: G Pages: 1 -->
<svg width="807pt" height="234pt"
 viewBox="0.00 0.00 807.44 234.00" xmlns="http://www.w3.org/2000/svg" xmlns:xlink="http://www.w3.org/1999/xlink">
<g id="graph0" class="graph" transform="scale(1 1) rotate(0) translate(4 230)">
<title>G</title>
<polygon fill="#fffacd" stroke="transparent" points="-4,4 -4,-230 803.44,-230 803.44,4 -4,4"/>
<g id="clust1" class="cluster">
<title>cluster_1</title>
<polygon fill="#fffacd" stroke="black" points="234.19,-8 234.19,-147 426.19,-147 426.19,-8 234.19,-8"/>
</g>
<!-- Node2_1 -->
<g id="node1" class="node">
<title>Node2_1</title>
<ellipse fill="#00bfff" stroke="#00bfff" cx="381.19" cy="-34" rx="37.09" ry="18"/>
<text text-anchor="middle" x="381.19" y="-30.3" font-family="Times,serif" font-size="14.00">ते(2.1)</text>
</g>
<!-- Node4_2 -->
<g id="node2" class="node">
<title>Node4_2</title>
<ellipse fill="#00bfff" stroke="#00bfff" cx="342.19" cy="-121" rx="56.59" ry="18"/>
<text text-anchor="middle" x="342.19" y="-117.3" font-family="Times,serif" font-size="14.00">पुङ्गवाः(4.2)</text>
</g>
<!-- Node2_1&#45;&gt;Node4_2 -->
<g id="edge2" class="edge">
<title>Node2_1&#45;&gt;Node4_2</title>
<path fill="none" stroke="black" d="M369.2,-61.13C362.96,-74.73 355.51,-90.98 350.02,-102.95"/>
<polygon fill="black" stroke="black" points="372.5,-62.34 373.49,-51.79 366.14,-59.42 372.5,-62.34"/>
<text text-anchor="middle" x="385.69" y="-73.8" font-family="Times,serif" font-size="14.00">विशेषणम्</text>
</g>
<!-- Node12_1 -->
<g id="node5" class="node">
<title>Node12_1</title>
<ellipse fill="#ff1975" stroke="#ff1975" cx="436.19" cy="-208" rx="49.29" ry="18"/>
<text text-anchor="middle" x="436.19" y="-204.3" font-family="Times,serif" font-size="14.00">ददुः(12.1)</text>
</g>
<!-- Node4_2&#45;&gt;Node12_1 -->
<g id="edge5" class="edge">
<title>Node4_2&#45;&gt;Node12_1</title>
<path fill="none" stroke="black" d="M367.82,-145.17C383.87,-159.68 404.15,-178.03 418.45,-190.95"/>
<polygon fill="black" stroke="black" points="370.08,-142.5 360.32,-138.39 365.39,-147.69 370.08,-142.5"/>
<text text-anchor="middle" x="405.19" y="-160.8" font-family="Times,serif" font-size="14.00">कर्ता</text>
</g>
<!-- Node3_1 -->
<g id="node3" class="node">
<title>Node3_1</title>
<ellipse fill="#00bfff" stroke="#00bfff" cx="284.19" cy="-34" rx="42.49" ry="18"/>
<text text-anchor="middle" x="284.19" y="-30.3" font-family="Times,serif" font-size="14.00">सर्वे(3.1)</text>
</g>
<!-- Node3_1&#45;&gt;Node4_2 -->
<g id="edge3" class="edge">
<title>Node3_1&#45;&gt;Node4_2</title>
<path fill="none" stroke="black" d="M296.13,-61.08C300.19,-69.01 305.01,-77.59 310.19,-85 314.72,-91.48 320.36,-98.02 325.63,-103.67"/>
<polygon fill="black" stroke="black" points="299.14,-59.27 291.59,-51.84 292.86,-62.36 299.14,-59.27"/>
<text text-anchor="middle" x="332.69" y="-73.8" font-family="Times,serif" font-size="14.00">विशेषणम्</text>
</g>
<!-- Node1_1 -->
<g id="node4" class="node">
<title>Node1_1</title>
<ellipse fill="#ff99ff" stroke="#ff99ff" cx="182.19" cy="-121" rx="44.39" ry="18"/>
<text text-anchor="middle" x="182.19" y="-117.3" font-family="Times,serif" font-size="14.00">ततः(1.1)</text>
</g>
<!-- Node1_1&#45;&gt;Node12_1 -->
<g id="edge1" class="edge">
<title>Node1_1&#45;&gt;Node12_1</title>
<path fill="none" stroke="black" d="M216.4,-140.71C220.98,-142.95 225.66,-145.11 230.19,-147 285.55,-170.09 352.75,-187.87 395.01,-197.88"/>
<polygon fill="black" stroke="black" points="217.72,-137.45 207.22,-136.06 214.56,-143.7 217.72,-137.45"/>
<text text-anchor="middle" x="331.69" y="-160.8" font-family="Times,serif" font-size="14.00">कालाधिकरणम्</text>
</g>
<!-- Node4_1 -->
<g id="node6" class="node">
<title>Node4_1</title>
<ellipse fill="#ffff00" stroke="#ffff00" cx="178.19" cy="-34" rx="46.29" ry="18"/>
<text text-anchor="middle" x="178.19" y="-30.3" font-family="Times,serif" font-size="14.00">कुरु&#45;(4.1)</text>
</g>
<!-- Node4_1&#45;&gt;Node4_2 -->
<g id="edge4" class="edge">
<title>Node4_1&#45;&gt;Node4_2</title>
<path fill="none" stroke="black" d="M210.39,-55.11C226.08,-64.61 245.37,-75.85 263.19,-85 278.01,-92.61 294.83,-100.2 309.13,-106.35"/>
<polygon fill="black" stroke="black" points="211.96,-51.97 201.6,-49.75 208.31,-57.95 211.96,-51.97"/>
<text text-anchor="middle" x="280.19" y="-73.8" font-family="Times,serif" font-size="14.00">समासः</text>
</g>
<!-- Node5_1 -->
<g id="node7" class="node">
<title>Node5_1</title>
<ellipse fill="#93db70" stroke="#93db70" cx="57.19" cy="-34" rx="57.39" ry="18"/>
<text text-anchor="middle" x="57.19" y="-30.3" font-family="Times,serif" font-size="14.00">सलिलम्(5.1)</text>
</g>
<!-- Node6_1 -->
<g id="node8" class="node">
<title>Node6_1</title>
<ellipse fill="#ff99ff" stroke="#ff99ff" cx="60.19" cy="-121" rx="56.59" ry="18"/>
<text text-anchor="middle" x="60.19" y="-117.3" font-family="Times,serif" font-size="14.00">अवगाह्य(6.1)</text>
</g>
<!-- Node5_1&#45;&gt;Node6_1 -->
<g id="edge6" class="edge">
<title>Node5_1&#45;&gt;Node6_1</title>
<path fill="none" stroke="black" d="M58.16,-62.27C58.63,-75.58 59.18,-91.19 59.59,-102.82"/>
<polygon fill="black" stroke="black" points="61.65,-62.07 57.8,-52.2 54.66,-62.32 61.65,-62.07"/>
<text text-anchor="middle" x="68.19" y="-73.8" font-family="Times,serif" font-size="14.00">कर्म</text>
</g>
<!-- Node6_1&#45;&gt;Node12_1 -->
<g id="edge7" class="edge">
<title>Node6_1&#45;&gt;Node12_1</title>
<path fill="none" stroke="black" d="M105.09,-138.67C113.09,-141.53 121.37,-144.41 129.19,-147 165.76,-159.12 174.63,-163.45 212.19,-172 273.03,-185.84 344.4,-195.96 389.94,-201.66"/>
<polygon fill="black" stroke="black" points="106.12,-135.32 95.52,-135.22 103.74,-141.91 106.12,-135.32"/>
<text text-anchor="middle" x="232.69" y="-160.8" font-family="Times,serif" font-size="14.00">पूर्वकालः</text>
</g>
<!-- Node7_1 -->
<g id="node9" class="node">
<title>Node7_1</title>
<ellipse fill="#93db70" stroke="#93db70" cx="492.19" cy="-34" rx="55.79" ry="18"/>
<text text-anchor="middle" x="492.19" y="-30.3" font-family="Times,serif" font-size="14.00">युयुत्सुम्(7.1)</text>
</g>
<!-- Node9_1 -->
<g id="node10" class="node">
<title>Node9_1</title>
<ellipse fill="#ff99ff" stroke="#ff99ff" cx="487.19" cy="-121" rx="48.19" ry="18"/>
<text text-anchor="middle" x="487.19" y="-117.3" font-family="Times,serif" font-size="14.00">कृत्वा(9.1)</text>
</g>
<!-- Node7_1&#45;&gt;Node9_1 -->
<g id="edge8" class="edge">
<title>Node7_1&#45;&gt;Node9_1</title>
<path fill="none" stroke="black" d="M490.59,-62.27C489.81,-75.58 488.89,-91.19 488.21,-102.82"/>
<polygon fill="black" stroke="black" points="494.09,-62.39 491.18,-52.2 487.1,-61.98 494.09,-62.39"/>
<text text-anchor="middle" x="498.19" y="-73.8" font-family="Times,serif" font-size="14.00">कर्म</text>
</g>
<!-- Node9_1&#45;&gt;Node12_1 -->
<g id="edge10" class="edge">
<title>Node9_1&#45;&gt;Node12_1</title>
<path fill="none" stroke="black" d="M471.95,-147.4C463.64,-161.26 453.58,-178.03 446.25,-190.24"/>
<polygon fill="black" stroke="black" points="474.98,-149.17 477.12,-138.79 468.97,-145.57 474.98,-149.17"/>
<text text-anchor="middle" x="484.69" y="-160.8" font-family="Times,serif" font-size="14.00">पूर्वकालः</text>
</g>
<!-- Node8_1 -->
<g id="node11" class="node">
<title>Node8_1</title>
<ellipse fill="#ff99ff" stroke="#ff99ff" cx="617.19" cy="-34" rx="50.89" ry="18"/>
<text text-anchor="middle" x="617.19" y="-30.3" font-family="Times,serif" font-size="14.00">अग्रतः(8.1)</text>
</g>
<!-- Node8_1&#45;&gt;Node9_1 -->
<g id="edge9" class="edge">
<title>Node8_1&#45;&gt;Node9_1</title>
<path fill="none" stroke="black" d="M585.46,-55.75C562.19,-70.96 531.15,-91.26 510.24,-104.94"/>
<polygon fill="black" stroke="black" points="587.5,-58.6 593.95,-50.2 583.67,-52.74 587.5,-58.6"/>
<text text-anchor="middle" x="594.19" y="-73.8" font-family="Times,serif" font-size="14.00">क्रियाविशेषणम्</text>
</g>
<!-- Node10_1 -->
<g id="node12" class="node">
<title>Node10_1</title>
<ellipse fill="#ffff00" stroke="#ffff00" cx="738.19" cy="-34" rx="52.79" ry="18"/>
<text text-anchor="middle" x="738.19" y="-30.3" font-family="Times,serif" font-size="14.00">महा&#45;(10.1)</text>
</g>
<!-- Node10_2 -->
<g id="node13" class="node">
<title>Node10_2</title>
<ellipse fill="#b0e2ff" stroke="#b0e2ff" cx="612.19" cy="-121" rx="58.49" ry="18"/>
<text text-anchor="middle" x="612.19" y="-117.3" font-family="Times,serif" font-size="14.00">आत्मने(10.2)</text>
</g>
<!-- Node10_1&#45;&gt;Node10_2 -->
<g id="edge11" class="edge">
<title>Node10_1&#45;&gt;Node10_2</title>
<path fill="none" stroke="black" d="M718.88,-59.34C710.98,-68.22 701.31,-77.83 691.19,-85 678.59,-93.94 663.34,-101.35 649.61,-107.01"/>
<polygon fill="black" stroke="black" points="721.76,-61.35 725.61,-51.48 716.45,-56.8 721.76,-61.35"/>
<text text-anchor="middle" x="725.19" y="-73.8" font-family="Times,serif" font-size="14.00">समासः</text>
</g>
<!-- Node10_2&#45;&gt;Node12_1 -->
<g id="edge12" class="edge">
<title>Node10_2&#45;&gt;Node12_1</title>
<path fill="none" stroke="black" d="M572.96,-141.1C553.75,-150.44 530.27,-161.83 509.19,-172 494.64,-179.02 478.43,-186.8 464.99,-193.23"/>
<polygon fill="black" stroke="black" points="574.55,-144.22 582.02,-136.7 571.49,-137.92 574.55,-144.22"/>
<text text-anchor="middle" x="560.69" y="-160.8" font-family="Times,serif" font-size="14.00">सम्प्रदानम्</text>
</g>
<!-- Node11_1 -->
<g id="node14" class="node">
<title>Node11_1</title>
<ellipse fill="#93db70" stroke="#93db70" cx="744.19" cy="-121" rx="55.49" ry="18"/>
<text text-anchor="middle" x="744.19" y="-117.3" font-family="Times,serif" font-size="14.00">तोयम्(11.1)</text>
</g>
<!-- Node11_1&#45;&gt;Node12_1 -->
<g id="edge13" class="edge">
<title>Node11_1&#45;&gt;Node12_1</title>
<path fill="none" stroke="black" d="M701.25,-139.2C693.94,-141.94 686.38,-144.64 679.19,-147 610.05,-169.73 527.36,-188.4 478.45,-198.6"/>
<polygon fill="black" stroke="black" points="702.92,-142.31 711.02,-135.49 700.43,-135.77 702.92,-142.31"/>
<text text-anchor="middle" x="655.19" y="-160.8" font-family="Times,serif" font-size="14.00">कर्म</text>
</g>
</g>
</svg>
