<?xml version="1.0" encoding="UTF-8" standalone="no"?>
<!DOCTYPE svg PUBLIC "-//W3C//DTD SVG 1.1//EN"
 "http://www.w3.org/Graphics/SVG/1.1/DTD/svg11.dtd">
<!-- Generated by graphviz version 2.43.0 (0)
 -->
<!-- Title: G Pages: 1 -->
<svg width="687pt" height="495pt"
 viewBox="0.00 0.00 686.65 495.00" xmlns="http://www.w3.org/2000/svg" xmlns:xlink="http://www.w3.org/1999/xlink">
<g id="graph0" class="graph" transform="scale(1 1) rotate(0) translate(4 491)">
<title>G</title>
<polygon fill="#fffacd" stroke="transparent" points="-4,4 -4,-491 682.65,-491 682.65,4 -4,4"/>
<g id="clust1" class="cluster">
<title>cluster_1</title>
<polygon fill="#fffacd" stroke="black" points="14,-8 14,-147 142,-147 142,-8 14,-8"/>
</g>
<g id="clust2" class="cluster">
<title>cluster_2</title>
<polygon fill="#fffacd" stroke="black" points="8,-182 8,-321 148,-321 148,-182 8,-182"/>
</g>
<g id="clust3" class="cluster">
<title>cluster_3</title>
<polygon fill="#fffacd" stroke="black" points="39,-356 39,-408 147,-408 147,-356 39,-356"/>
</g>
<g id="clust4" class="cluster">
<title>cluster_4</title>
<polygon fill="#fffacd" stroke="black" points="156,-269 156,-408 288,-408 288,-269 156,-269"/>
</g>
<!-- Node3_1 -->
<g id="node1" class="node">
<title>Node3_1</title>
<ellipse fill="#40e0d0" stroke="#40e0d0" cx="78" cy="-34" rx="45.49" ry="18"/>
<text text-anchor="middle" x="78" y="-30.3" font-family="Times,serif" font-size="14.00">स्वेन(3.1)</text>
</g>
<!-- Node4_1 -->
<g id="node2" class="node">
<title>Node4_1</title>
<ellipse fill="#40e0d0" stroke="#40e0d0" cx="78" cy="-121" rx="55.79" ry="18"/>
<text text-anchor="middle" x="78" y="-117.3" font-family="Times,serif" font-size="14.00">अग्निना(4.1)</text>
</g>
<!-- Node3_1&#45;&gt;Node4_1 -->
<g id="edge4" class="edge">
<title>Node3_1&#45;&gt;Node4_1</title>
<path fill="none" stroke="black" d="M78,-62.27C78,-75.58 78,-91.19 78,-102.82"/>
<polygon fill="black" stroke="black" points="81.5,-62.2 78,-52.2 74.5,-62.2 81.5,-62.2"/>
<text text-anchor="middle" x="100.5" y="-73.8" font-family="Times,serif" font-size="14.00">विशेषणम्</text>
</g>
<!-- Node5_1 -->
<g id="node3" class="node">
<title>Node5_1</title>
<ellipse fill="#00bfff" stroke="#00bfff" cx="78" cy="-208" rx="62.29" ry="18"/>
<text text-anchor="middle" x="78" y="-204.3" font-family="Times,serif" font-size="14.00">समायुक्तः(5.1)</text>
</g>
<!-- Node4_1&#45;&gt;Node5_1 -->
<g id="edge5" class="edge">
<title>Node4_1&#45;&gt;Node5_1</title>
<path fill="none" stroke="black" d="M78,-149.27C78,-162.58 78,-178.19 78,-189.82"/>
<polygon fill="black" stroke="black" points="81.5,-149.2 78,-139.2 74.5,-149.2 81.5,-149.2"/>
<text text-anchor="middle" x="96.5" y="-160.8" font-family="Times,serif" font-size="14.00">सहकर्ता</text>
</g>
<!-- Node6_1 -->
<g id="node4" class="node">
<title>Node6_1</title>
<ellipse fill="#00bfff" stroke="#00bfff" cx="83" cy="-295" rx="46.29" ry="18"/>
<text text-anchor="middle" x="83" y="-291.3" font-family="Times,serif" font-size="14.00">राजा(6.1)</text>
</g>
<!-- Node5_1&#45;&gt;Node6_1 -->
<g id="edge6" class="edge">
<title>Node5_1&#45;&gt;Node6_1</title>
<path fill="none" stroke="black" d="M79.6,-236.27C80.39,-249.58 81.31,-265.19 81.99,-276.82"/>
<polygon fill="black" stroke="black" points="83.09,-235.98 79.01,-226.2 76.11,-236.39 83.09,-235.98"/>
<text text-anchor="middle" x="103.5" y="-247.8" font-family="Times,serif" font-size="14.00">विशेषणम्</text>
</g>
<!-- Node11_1 -->
<g id="node5" class="node">
<title>Node11_1</title>
<ellipse fill="#00bfff" stroke="#00bfff" cx="93" cy="-382" rx="46.29" ry="18"/>
<text text-anchor="middle" x="93" y="-378.3" font-family="Times,serif" font-size="14.00">सः(11.1)</text>
</g>
<!-- Node6_1&#45;&gt;Node11_1 -->
<g id="edge7" class="edge">
<title>Node6_1&#45;&gt;Node11_1</title>
<path fill="none" stroke="black" d="M86.21,-323.27C87.77,-336.58 89.61,-352.19 90.98,-363.82"/>
<polygon fill="black" stroke="black" points="89.67,-322.72 85.02,-313.2 82.72,-323.54 89.67,-322.72"/>
<text text-anchor="middle" x="111.5" y="-334.8" font-family="Times,serif" font-size="14.00">विशेषणम्</text>
</g>
<!-- Node14_1 -->
<g id="node15" class="node">
<title>Node14_1</title>
<ellipse fill="#00bfff" stroke="#00bfff" cx="157" cy="-469" rx="50.09" ry="18"/>
<text text-anchor="middle" x="157" y="-465.3" font-family="Times,serif" font-size="14.00">गतः(14.1)</text>
</g>
<!-- Node11_1&#45;&gt;Node14_1 -->
<g id="edge11" class="edge">
<title>Node11_1&#45;&gt;Node14_1</title>
<path fill="none" stroke="black" d="M111.56,-407.65C122.14,-421.7 135.11,-438.92 144.48,-451.37"/>
<polygon fill="black" stroke="black" points="114.15,-405.27 105.34,-399.39 108.56,-409.48 114.15,-405.27"/>
<text text-anchor="middle" x="140" y="-421.8" font-family="Times,serif" font-size="14.00">कर्ता</text>
</g>
<!-- Node12_1 -->
<g id="node6" class="node">
<title>Node12_1</title>
<ellipse fill="#93db70" stroke="#93db70" cx="222" cy="-295" rx="58.49" ry="18"/>
<text text-anchor="middle" x="222" y="-291.3" font-family="Times,serif" font-size="14.00">परमाम्(12.1)</text>
</g>
<!-- Node13_1 -->
<g id="node7" class="node">
<title>Node13_1</title>
<ellipse fill="#93db70" stroke="#93db70" cx="220" cy="-382" rx="55.49" ry="18"/>
<text text-anchor="middle" x="220" y="-378.3" font-family="Times,serif" font-size="14.00">गतिम्(13.1)</text>
</g>
<!-- Node12_1&#45;&gt;Node13_1 -->
<g id="edge12" class="edge">
<title>Node12_1&#45;&gt;Node13_1</title>
<path fill="none" stroke="black" d="M221.36,-323.27C221.05,-336.58 220.68,-352.19 220.4,-363.82"/>
<polygon fill="black" stroke="black" points="224.86,-323.28 221.6,-313.2 217.86,-323.12 224.86,-323.28"/>
<text text-anchor="middle" x="244.5" y="-334.8" font-family="Times,serif" font-size="14.00">विशेषणम्</text>
</g>
<!-- Node13_1&#45;&gt;Node14_1 -->
<g id="edge13" class="edge">
<title>Node13_1&#45;&gt;Node14_1</title>
<path fill="none" stroke="black" d="M201.42,-408.06C191.02,-422.09 178.35,-439.19 169.21,-451.53"/>
<polygon fill="black" stroke="black" points="204.41,-409.91 207.55,-399.79 198.79,-405.74 204.41,-409.91"/>
<text text-anchor="middle" x="202" y="-421.8" font-family="Times,serif" font-size="14.00">कर्म</text>
</g>
<!-- Node1_1 -->
<g id="node8" class="node">
<title>Node1_1</title>
<ellipse fill="#ffff00" stroke="#ffff00" cx="197" cy="-34" rx="46.59" ry="18"/>
<text text-anchor="middle" x="197" y="-30.3" font-family="Times,serif" font-size="14.00">मही&#45;(1.1)</text>
</g>
<!-- Node1_2 -->
<g id="node9" class="node">
<title>Node1_2</title>
<ellipse fill="#6fffc3" stroke="#6fffc3" cx="197" cy="-121" rx="42.49" ry="18"/>
<text text-anchor="middle" x="197" y="-117.3" font-family="Times,serif" font-size="14.00">पते(1.2)</text>
</g>
<!-- Node1_1&#45;&gt;Node1_2 -->
<g id="edge1" class="edge">
<title>Node1_1&#45;&gt;Node1_2</title>
<path fill="none" stroke="black" d="M197,-62.27C197,-75.58 197,-91.19 197,-102.82"/>
<polygon fill="black" stroke="black" points="200.5,-62.2 197,-52.2 193.5,-62.2 200.5,-62.2"/>
<text text-anchor="middle" x="214" y="-73.8" font-family="Times,serif" font-size="14.00">समासः</text>
</g>
<!-- Node10_1 -->
<g id="node10" class="node">
<title>Node10_1</title>
<ellipse fill="#ff1975" stroke="#ff1975" cx="421" cy="-208" rx="64.19" ry="18"/>
<text text-anchor="middle" x="421" y="-204.3" font-family="Times,serif" font-size="14.00">शोचिथाः(10.1)</text>
</g>
<!-- Node1_2&#45;&gt;Node10_1 -->
<g id="edge2" class="edge">
<title>Node1_2&#45;&gt;Node10_1</title>
<path fill="none" stroke="black" d="M227.62,-142.07C244.09,-152.16 265.07,-163.94 285,-172 312.12,-182.97 343.7,-191.34 369.6,-197.15"/>
<polygon fill="black" stroke="black" points="229.3,-138.99 218.96,-136.66 225.59,-144.93 229.3,-138.99"/>
<text text-anchor="middle" x="306" y="-160.8" font-family="Times,serif" font-size="14.00">सम्बोध्यः</text>
</g>
<!-- Node2_1 -->
<g id="node11" class="node">
<title>Node2_1</title>
<ellipse fill="#ff99ff" stroke="#ff99ff" cx="303" cy="-121" rx="46.29" ry="18"/>
<text text-anchor="middle" x="303" y="-117.3" font-family="Times,serif" font-size="14.00">एवम्(2.1)</text>
</g>
<!-- Node2_1&#45;&gt;Node10_1 -->
<g id="edge3" class="edge">
<title>Node2_1&#45;&gt;Node10_1</title>
<path fill="none" stroke="black" d="M320.93,-146.27C328.31,-155.13 337.38,-164.76 347,-172 358.24,-180.46 371.85,-187.62 384.32,-193.2"/>
<polygon fill="black" stroke="black" points="323.64,-144.05 314.66,-138.42 318.17,-148.42 323.64,-144.05"/>
<text text-anchor="middle" x="382" y="-160.8" font-family="Times,serif" font-size="14.00">क्रियाविशेषणम्</text>
</g>
<!-- Node7_1 -->
<g id="node12" class="node">
<title>Node7_1</title>
<ellipse fill="#93db70" stroke="#93db70" cx="421" cy="-121" rx="53.89" ry="18"/>
<text text-anchor="middle" x="421" y="-117.3" font-family="Times,serif" font-size="14.00">नृपतिम्(7.1)</text>
</g>
<!-- Node7_1&#45;&gt;Node10_1 -->
<g id="edge8" class="edge">
<title>Node7_1&#45;&gt;Node10_1</title>
<path fill="none" stroke="black" d="M421,-149.27C421,-162.58 421,-178.19 421,-189.82"/>
<polygon fill="black" stroke="black" points="424.5,-149.2 421,-139.2 417.5,-149.2 424.5,-149.2"/>
<text text-anchor="middle" x="439.5" y="-160.8" font-family="Times,serif" font-size="14.00">सम्बन्धः</text>
</g>
<!-- Node8_1 -->
<g id="node13" class="node">
<title>Node8_1</title>
<ellipse fill="#00bfff" stroke="#00bfff" cx="537" cy="-121" rx="44.39" ry="18"/>
<text text-anchor="middle" x="537" y="-117.3" font-family="Times,serif" font-size="14.00">त्वम्(8.1)</text>
</g>
<!-- Node8_1&#45;&gt;Node10_1 -->
<g id="edge9" class="edge">
<title>Node8_1&#45;&gt;Node10_1</title>
<path fill="none" stroke="black" d="M508.29,-143.04C488.05,-157.87 461.36,-177.43 442.84,-190.99"/>
<polygon fill="black" stroke="black" points="510.53,-145.73 516.53,-137 506.39,-140.09 510.53,-145.73"/>
<text text-anchor="middle" x="496" y="-160.8" font-family="Times,serif" font-size="14.00">कर्ता</text>
</g>
<!-- Node9_1 -->
<g id="node14" class="node">
<title>Node9_1</title>
<ellipse fill="#ff99ff" stroke="#ff99ff" cx="639" cy="-121" rx="39.79" ry="18"/>
<text text-anchor="middle" x="639" y="-117.3" font-family="Times,serif" font-size="14.00">मा(9.1)</text>
</g>
<!-- Node9_1&#45;&gt;Node10_1 -->
<g id="edge10" class="edge">
<title>Node9_1&#45;&gt;Node10_1</title>
<path fill="none" stroke="black" d="M605.57,-139.79C600.41,-142.32 595.1,-144.81 590,-147 547.25,-165.4 496.79,-182.77 462.21,-194.04"/>
<polygon fill="black" stroke="black" points="607.26,-142.85 614.62,-135.23 604.12,-136.6 607.26,-142.85"/>
<text text-anchor="middle" x="581.5" y="-160.8" font-family="Times,serif" font-size="14.00">प्रतिषेधः</text>
</g>
</g>
</svg>
