<?xml version="1.0" encoding="UTF-8" standalone="no"?>
<!DOCTYPE svg PUBLIC "-//W3C//DTD SVG 1.1//EN"
 "http://www.w3.org/Graphics/SVG/1.1/DTD/svg11.dtd">
<!-- Generated by graphviz version 2.43.0 (0)
 -->
<!-- Title: G Pages: 1 -->
<svg width="870pt" height="305pt"
 viewBox="0.00 0.00 869.90 305.00" xmlns="http://www.w3.org/2000/svg" xmlns:xlink="http://www.w3.org/1999/xlink">
<g id="graph0" class="graph" transform="scale(1 1) rotate(0) translate(4 301)">
<title>G</title>
<polygon fill="#fffacd" stroke="transparent" points="-4,4 -4,-301 865.9,-301 865.9,4 -4,4"/>
<g id="clust1" class="cluster">
<title>cluster_1</title>
<polygon fill="#fffacd" stroke="black" points="8,-79 8,-218 226,-218 226,-79 8,-79"/>
</g>
<g id="clust2" class="cluster">
<title>cluster_2</title>
<polygon fill="#fffacd" stroke="black" points="354,-79 354,-218 502,-218 502,-79 354,-79"/>
</g>
<!-- Node2_1 -->
<g id="node1" class="node">
<title>Node2_1</title>
<ellipse fill="#00bfff" stroke="#00bfff" cx="178" cy="-105" rx="40.09" ry="18"/>
<text text-anchor="middle" x="178" y="-101.3" font-family="Times,serif" font-size="14.00">सः(2.1)</text>
</g>
<!-- Node4_2 -->
<g id="node2" class="node">
<title>Node4_2</title>
<ellipse fill="#00bfff" stroke="#00bfff" cx="170" cy="-192" rx="48.19" ry="18"/>
<text text-anchor="middle" x="170" y="-188.3" font-family="Times,serif" font-size="14.00">पालः(4.2)</text>
</g>
<!-- Node2_1&#45;&gt;Node4_2 -->
<g id="edge2" class="edge">
<title>Node2_1&#45;&gt;Node4_2</title>
<path fill="none" stroke="black" d="M175.43,-133.27C174.18,-146.58 172.71,-162.19 171.62,-173.82"/>
<polygon fill="black" stroke="black" points="178.93,-133.49 176.38,-123.2 171.96,-132.83 178.93,-133.49"/>
<text text-anchor="middle" x="196.5" y="-144.8" font-family="Times,serif" font-size="14.00">विशेषणम्</text>
</g>
<!-- Node11_1 -->
<g id="node9" class="node">
<title>Node11_1</title>
<ellipse fill="#ff1975" stroke="#ff1975" cx="428" cy="-279" rx="59.59" ry="18"/>
<text text-anchor="middle" x="428" y="-275.3" font-family="Times,serif" font-size="14.00">प्रविवेश(11.1)</text>
</g>
<!-- Node4_2&#45;&gt;Node11_1 -->
<g id="edge5" class="edge">
<title>Node4_2&#45;&gt;Node11_1</title>
<path fill="none" stroke="black" d="M214.53,-207.67C263.77,-223.89 342.29,-249.76 389.13,-265.19"/>
<polygon fill="black" stroke="black" points="215.39,-204.27 204.8,-204.46 213.2,-210.92 215.39,-204.27"/>
<text text-anchor="middle" x="325" y="-231.8" font-family="Times,serif" font-size="14.00">कर्ता</text>
</g>
<!-- Node3_1 -->
<g id="node3" class="node">
<title>Node3_1</title>
<ellipse fill="#00bfff" stroke="#00bfff" cx="68" cy="-105" rx="51.99" ry="18"/>
<text text-anchor="middle" x="68" y="-101.3" font-family="Times,serif" font-size="14.00">धीमान्(3.1)</text>
</g>
<!-- Node3_1&#45;&gt;Node4_2 -->
<g id="edge3" class="edge">
<title>Node3_1&#45;&gt;Node4_2</title>
<path fill="none" stroke="black" d="M92.97,-129.05C102.53,-137.67 113.63,-147.45 124,-156 132.05,-162.64 141.15,-169.66 149.12,-175.66"/>
<polygon fill="black" stroke="black" points="95.1,-126.26 85.35,-122.12 90.39,-131.44 95.1,-126.26"/>
<text text-anchor="middle" x="146.5" y="-144.8" font-family="Times,serif" font-size="14.00">विशेषणम्</text>
</g>
<!-- Node10_1 -->
<g id="node4" class="node">
<title>Node10_1</title>
<ellipse fill="#93db70" stroke="#93db70" cx="428" cy="-105" rx="55.79" ry="18"/>
<text text-anchor="middle" x="428" y="-101.3" font-family="Times,serif" font-size="14.00">नगरम्(10.1)</text>
</g>
<!-- Node9_1 -->
<g id="node5" class="node">
<title>Node9_1</title>
<ellipse fill="#93db70" stroke="#93db70" cx="428" cy="-192" rx="65.79" ry="18"/>
<text text-anchor="middle" x="428" y="-188.3" font-family="Times,serif" font-size="14.00">वारणाह्वयम्(9.1)</text>
</g>
<!-- Node10_1&#45;&gt;Node9_1 -->
<g id="edge11" class="edge">
<title>Node10_1&#45;&gt;Node9_1</title>
<path fill="none" stroke="black" d="M428,-133.27C428,-146.58 428,-162.19 428,-173.82"/>
<polygon fill="black" stroke="black" points="431.5,-133.2 428,-123.2 424.5,-133.2 431.5,-133.2"/>
<text text-anchor="middle" x="450.5" y="-144.8" font-family="Times,serif" font-size="14.00">विशेषणम्</text>
</g>
<!-- Node9_1&#45;&gt;Node11_1 -->
<g id="edge10" class="edge">
<title>Node9_1&#45;&gt;Node11_1</title>
<path fill="none" stroke="black" d="M428,-220.27C428,-233.58 428,-249.19 428,-260.82"/>
<polygon fill="black" stroke="black" points="431.5,-220.2 428,-210.2 424.5,-220.2 431.5,-220.2"/>
<text text-anchor="middle" x="437" y="-231.8" font-family="Times,serif" font-size="14.00">कर्म</text>
</g>
<!-- Node1_1 -->
<g id="node6" class="node">
<title>Node1_1</title>
<ellipse fill="#ff99ff" stroke="#ff99ff" cx="554" cy="-105" rx="44.39" ry="18"/>
<text text-anchor="middle" x="554" y="-101.3" font-family="Times,serif" font-size="14.00">ततः(1.1)</text>
</g>
<!-- Node7_1 -->
<g id="node7" class="node">
<title>Node7_1</title>
<ellipse fill="#ff99ff" stroke="#ff99ff" cx="616" cy="-192" rx="47.39" ry="18"/>
<text text-anchor="middle" x="616" y="-188.3" font-family="Times,serif" font-size="14.00">दत्त्वा(7.1)</text>
</g>
<!-- Node1_1&#45;&gt;Node7_1 -->
<g id="edge1" class="edge">
<title>Node1_1&#45;&gt;Node7_1</title>
<path fill="none" stroke="black" d="M556.87,-133.33C558.63,-141.14 561.46,-149.33 566,-156 571.78,-164.5 580.36,-171.58 588.79,-177.1"/>
<polygon fill="black" stroke="black" points="560.31,-132.68 555.11,-123.44 553.41,-133.9 560.31,-132.68"/>
<text text-anchor="middle" x="601.5" y="-144.8" font-family="Times,serif" font-size="14.00">कालाधिकरणम्</text>
</g>
<!-- Node7_1&#45;&gt;Node11_1 -->
<g id="edge8" class="edge">
<title>Node7_1&#45;&gt;Node11_1</title>
<path fill="none" stroke="black" d="M577.26,-210.51C542.5,-226.23 492.09,-249.02 459.68,-263.68"/>
<polygon fill="black" stroke="black" points="578.95,-213.59 586.62,-206.28 576.07,-207.21 578.95,-213.59"/>
<text text-anchor="middle" x="553.5" y="-231.8" font-family="Times,serif" font-size="14.00">पूर्वकालः</text>
</g>
<!-- Node4_1 -->
<g id="node8" class="node">
<title>Node4_1</title>
<ellipse fill="#ffff00" stroke="#ffff00" cx="291" cy="-105" rx="54.69" ry="18"/>
<text text-anchor="middle" x="291" y="-101.3" font-family="Times,serif" font-size="14.00">पृथिवी&#45;(4.1)</text>
</g>
<!-- Node4_1&#45;&gt;Node4_2 -->
<g id="edge4" class="edge">
<title>Node4_1&#45;&gt;Node4_2</title>
<path fill="none" stroke="black" d="M261.79,-127.98C249.86,-136.82 235.86,-147.03 223,-156 213.32,-162.75 202.47,-169.97 193.13,-176.09"/>
<polygon fill="black" stroke="black" points="264.13,-130.6 270.06,-121.82 259.95,-124.98 264.13,-130.6"/>
<text text-anchor="middle" x="260" y="-144.8" font-family="Times,serif" font-size="14.00">समासः</text>
</g>
<!-- Node5_1 -->
<g id="node10" class="node">
<title>Node5_1</title>
<ellipse fill="#ff99ff" stroke="#ff99ff" cx="674" cy="-105" rx="57.69" ry="18"/>
<text text-anchor="middle" x="674" y="-101.3" font-family="Times,serif" font-size="14.00">अनेकशः(5.1)</text>
</g>
<!-- Node5_1&#45;&gt;Node7_1 -->
<g id="edge6" class="edge">
<title>Node5_1&#45;&gt;Node7_1</title>
<path fill="none" stroke="black" d="M656.67,-131.4C647.21,-145.26 635.77,-162.03 627.44,-174.24"/>
<polygon fill="black" stroke="black" points="659.8,-133.03 662.54,-122.79 654.01,-129.08 659.8,-133.03"/>
<text text-anchor="middle" x="683" y="-144.8" font-family="Times,serif" font-size="14.00">क्रियाविशेषणम्</text>
</g>
<!-- Node6_1 -->
<g id="node11" class="node">
<title>Node6_1</title>
<ellipse fill="#93db70" stroke="#93db70" cx="806" cy="-105" rx="55.79" ry="18"/>
<text text-anchor="middle" x="806" y="-101.3" font-family="Times,serif" font-size="14.00">श्राद्धानि(6.1)</text>
</g>
<!-- Node6_1&#45;&gt;Node7_1 -->
<g id="edge7" class="edge">
<title>Node6_1&#45;&gt;Node7_1</title>
<path fill="none" stroke="black" d="M774.26,-127.13C758.9,-136.76 739.94,-147.82 722,-156 699.96,-166.05 674.17,-174.63 653.55,-180.78"/>
<polygon fill="black" stroke="black" points="776.3,-129.98 782.85,-121.65 772.54,-124.07 776.3,-129.98"/>
<text text-anchor="middle" x="759" y="-144.8" font-family="Times,serif" font-size="14.00">कर्म</text>
</g>
<!-- Node8_1 -->
<g id="node12" class="node">
<title>Node8_1</title>
<ellipse fill="#ff99ff" stroke="#ff99ff" cx="674" cy="-18" rx="44.39" ry="18"/>
<text text-anchor="middle" x="674" y="-14.3" font-family="Times,serif" font-size="14.00">पुनः(8.1)</text>
</g>
<!-- Node8_1&#45;&gt;Node5_1 -->
<g id="edge9" class="edge">
<title>Node8_1&#45;&gt;Node5_1</title>
<path fill="none" stroke="black" d="M674,-46.27C674,-59.58 674,-75.19 674,-86.82"/>
<polygon fill="black" stroke="black" points="677.5,-46.2 674,-36.2 670.5,-46.2 677.5,-46.2"/>
<text text-anchor="middle" x="692.5" y="-57.8" font-family="Times,serif" font-size="14.00">सम्बन्धः</text>
</g>
</g>
</svg>
