<?xml version="1.0" encoding="UTF-8" standalone="no"?>
<!DOCTYPE svg PUBLIC "-//W3C//DTD SVG 1.1//EN"
 "http://www.w3.org/Graphics/SVG/1.1/DTD/svg11.dtd">
<!-- Generated by graphviz version 2.43.0 (0)
 -->
<!-- Title: G Pages: 1 -->
<svg width="892pt" height="653pt"
 viewBox="0.00 0.00 891.90 653.00" xmlns="http://www.w3.org/2000/svg" xmlns:xlink="http://www.w3.org/1999/xlink">
<g id="graph0" class="graph" transform="scale(1 1) rotate(0) translate(4 649)">
<title>G</title>
<polygon fill="#fffacd" stroke="transparent" points="-4,4 -4,-649 887.9,-649 887.9,4 -4,4"/>
<g id="clust1" class="cluster">
<title>cluster_1</title>
<polygon fill="#fffacd" stroke="black" points="8,-166 8,-305 120,-305 120,-166 8,-166"/>
</g>
<g id="clust2" class="cluster">
<title>cluster_2</title>
<polygon fill="#fffacd" stroke="black" points="604,-253 604,-392 774,-392 774,-253 604,-253"/>
</g>
<!-- Node6_1 -->
<g id="node1" class="node">
<title>Node6_1</title>
<ellipse fill="#ff99ff" stroke="#ff99ff" cx="61" cy="-192" rx="44.69" ry="18"/>
<text text-anchor="middle" x="61" y="-188.3" font-family="Times,serif" font-size="14.00">सदा(6.1)</text>
</g>
<!-- Node8_1 -->
<g id="node2" class="node">
<title>Node8_1</title>
<ellipse fill="#87ceeb" stroke="#87ceeb" cx="64" cy="-279" rx="48.19" ry="18"/>
<text text-anchor="middle" x="64" y="-275.3" font-family="Times,serif" font-size="14.00">ददतः(8.1)</text>
</g>
<!-- Node6_1&#45;&gt;Node8_1 -->
<g id="edge9" class="edge">
<title>Node6_1&#45;&gt;Node8_1</title>
<path fill="none" stroke="black" d="M61.96,-220.27C62.43,-233.58 62.98,-249.19 63.39,-260.82"/>
<polygon fill="black" stroke="black" points="65.46,-220.07 61.61,-210.2 58.46,-220.32 65.46,-220.07"/>
<text text-anchor="middle" x="96.5" y="-231.8" font-family="Times,serif" font-size="14.00">कालविशेषणम्</text>
</g>
<!-- Node10_1 -->
<g id="node3" class="node">
<title>Node10_1</title>
<ellipse fill="#87ceeb" stroke="#87ceeb" cx="689" cy="-366" rx="77.19" ry="18"/>
<text text-anchor="middle" x="689" y="-362.3" font-family="Times,serif" font-size="14.00">(धृतराष्ट्रस्य)(10.1)</text>
</g>
<!-- Node8_1&#45;&gt;Node10_1 -->
<g id="edge11" class="edge">
<title>Node8_1&#45;&gt;Node10_1</title>
<path fill="none" stroke="black" d="M118.43,-287.4C233.31,-303.03 500.14,-339.32 623.86,-356.14"/>
<polygon fill="black" stroke="black" points="118.83,-283.92 108.45,-286.04 117.88,-290.86 118.83,-283.92"/>
<text text-anchor="middle" x="436.5" y="-318.8" font-family="Times,serif" font-size="14.00">विशेषणम्</text>
</g>
<!-- Node11_1 -->
<g id="node15" class="node">
<title>Node11_1</title>
<ellipse fill="#00bfff" stroke="#00bfff" cx="689" cy="-453" rx="65.79" ry="18"/>
<text text-anchor="middle" x="689" y="-449.3" font-family="Times,serif" font-size="14.00">(वर्षाणि)(11.1)</text>
</g>
<!-- Node10_1&#45;&gt;Node11_1 -->
<g id="edge14" class="edge">
<title>Node10_1&#45;&gt;Node11_1</title>
<path fill="none" stroke="black" d="M689,-394.27C689,-407.58 689,-423.19 689,-434.82"/>
<polygon fill="black" stroke="black" points="692.5,-394.2 689,-384.2 685.5,-394.2 692.5,-394.2"/>
<text text-anchor="middle" x="716.5" y="-405.8" font-family="Times,serif" font-size="14.00">षष्ठीसम्बन्धः</text>
</g>
<!-- Node9_2 -->
<g id="node4" class="node">
<title>Node9_2</title>
<ellipse fill="#87ceeb" stroke="#87ceeb" cx="703" cy="-279" rx="57.69" ry="18"/>
<text text-anchor="middle" x="703" y="-275.3" font-family="Times,serif" font-size="14.00">(पुत्रस्य)(9.2)</text>
</g>
<!-- Node9_2&#45;&gt;Node10_1 -->
<g id="edge13" class="edge">
<title>Node9_2&#45;&gt;Node10_1</title>
<path fill="none" stroke="black" d="M698.51,-307.27C696.32,-320.58 693.74,-336.19 691.83,-347.82"/>
<polygon fill="black" stroke="black" points="702,-307.64 700.17,-297.2 695.09,-306.5 702,-307.64"/>
<text text-anchor="middle" x="719.5" y="-318.8" font-family="Times,serif" font-size="14.00">विशेषणम्</text>
</g>
<!-- Node1_1 -->
<g id="node5" class="node">
<title>Node1_1</title>
<ellipse fill="#c6e2eb" stroke="#c6e2eb" cx="828" cy="-192" rx="55.79" ry="18"/>
<text text-anchor="middle" x="828" y="-188.3" font-family="Times,serif" font-size="14.00">सङ्ग्रामे(1.1)</text>
</g>
<!-- Node1_1&#45;&gt;Node9_2 -->
<g id="edge1" class="edge">
<title>Node1_1&#45;&gt;Node9_2</title>
<path fill="none" stroke="black" d="M796.76,-214.25C774.86,-229.13 746.08,-248.71 726.2,-262.22"/>
<polygon fill="black" stroke="black" points="798.77,-217.11 805.07,-208.59 794.84,-211.32 798.77,-217.11"/>
<text text-anchor="middle" x="791.5" y="-231.8" font-family="Times,serif" font-size="14.00">सम्बन्धः</text>
</g>
<!-- Node2_1 -->
<g id="node6" class="node">
<title>Node2_1</title>
<ellipse fill="#ffff00" stroke="#ffff00" cx="189" cy="-18" rx="50.09" ry="18"/>
<text text-anchor="middle" x="189" y="-14.3" font-family="Times,serif" font-size="14.00">ज्ञाति&#45;(2.1)</text>
</g>
<!-- Node2_2 -->
<g id="node7" class="node">
<title>Node2_2</title>
<ellipse fill="#ffff00" stroke="#ffff00" cx="189" cy="-105" rx="58.49" ry="18"/>
<text text-anchor="middle" x="189" y="-101.3" font-family="Times,serif" font-size="14.00">सम्बन्धि&#45;(2.2)</text>
</g>
<!-- Node2_1&#45;&gt;Node2_2 -->
<g id="edge2" class="edge">
<title>Node2_1&#45;&gt;Node2_2</title>
<path fill="none" stroke="black" d="M189,-46.27C189,-59.58 189,-75.19 189,-86.82"/>
<polygon fill="black" stroke="black" points="192.5,-46.2 189,-36.2 185.5,-46.2 192.5,-46.2"/>
<text text-anchor="middle" x="206" y="-57.8" font-family="Times,serif" font-size="14.00">समासः</text>
</g>
<!-- Node2_3 -->
<g id="node8" class="node">
<title>Node2_3</title>
<ellipse fill="#87ceeb" stroke="#87ceeb" cx="189" cy="-192" rx="61.19" ry="18"/>
<text text-anchor="middle" x="189" y="-188.3" font-family="Times,serif" font-size="14.00">मित्राणाम्(2.3)</text>
</g>
<!-- Node2_2&#45;&gt;Node2_3 -->
<g id="edge3" class="edge">
<title>Node2_2&#45;&gt;Node2_3</title>
<path fill="none" stroke="black" d="M189,-133.27C189,-146.58 189,-162.19 189,-173.82"/>
<polygon fill="black" stroke="black" points="192.5,-133.2 189,-123.2 185.5,-133.2 192.5,-133.2"/>
<text text-anchor="middle" x="206" y="-144.8" font-family="Times,serif" font-size="14.00">समासः</text>
</g>
<!-- Node2_3&#45;&gt;Node8_1 -->
<g id="edge4" class="edge">
<title>Node2_3&#45;&gt;Node8_1</title>
<path fill="none" stroke="black" d="M165.75,-216.75C156.37,-225.61 145.14,-235.36 134,-243 121.78,-251.37 107.28,-258.96 94.65,-264.91"/>
<polygon fill="black" stroke="black" points="168.4,-219.05 173.15,-209.58 163.53,-214.03 168.4,-219.05"/>
<text text-anchor="middle" x="170.5" y="-231.8" font-family="Times,serif" font-size="14.00">सम्बन्धः</text>
</g>
<!-- Node3_1 -->
<g id="node9" class="node">
<title>Node3_1</title>
<ellipse fill="#87ceeb" stroke="#87ceeb" cx="327" cy="-192" rx="59.29" ry="18"/>
<text text-anchor="middle" x="327" y="-188.3" font-family="Times,serif" font-size="14.00">भ्रातॄणाम्(3.1)</text>
</g>
<!-- Node3_1&#45;&gt;Node8_1 -->
<g id="edge5" class="edge">
<title>Node3_1&#45;&gt;Node8_1</title>
<path fill="none" stroke="black" d="M283.31,-210.46C257.29,-220.57 223.5,-233.2 193,-243 163.07,-252.62 128.68,-261.86 102.94,-268.43"/>
<polygon fill="black" stroke="black" points="284.84,-213.63 292.88,-206.72 282.29,-207.11 284.84,-213.63"/>
<text text-anchor="middle" x="252.5" y="-231.8" font-family="Times,serif" font-size="14.00">सम्बन्धः</text>
</g>
<!-- Node4_1 -->
<g id="node10" class="node">
<title>Node4_1</title>
<ellipse fill="#ffff00" stroke="#ffff00" cx="517" cy="-105" rx="43.59" ry="18"/>
<text text-anchor="middle" x="517" y="-101.3" font-family="Times,serif" font-size="14.00">स्व&#45;(4.1)</text>
</g>
<!-- Node4_2 -->
<g id="node11" class="node">
<title>Node4_2</title>
<ellipse fill="#87ceeb" stroke="#87ceeb" cx="456" cy="-192" rx="51.99" ry="18"/>
<text text-anchor="middle" x="456" y="-188.3" font-family="Times,serif" font-size="14.00">जनस्य(4.2)</text>
</g>
<!-- Node4_1&#45;&gt;Node4_2 -->
<g id="edge6" class="edge">
<title>Node4_1&#45;&gt;Node4_2</title>
<path fill="none" stroke="black" d="M507.83,-132.46C504.44,-140.41 500.14,-148.9 495,-156 489.88,-163.07 483.11,-169.76 476.66,-175.36"/>
<polygon fill="black" stroke="black" points="511.09,-133.74 511.51,-123.16 504.58,-131.17 511.09,-133.74"/>
<text text-anchor="middle" x="521" y="-144.8" font-family="Times,serif" font-size="14.00">समासः</text>
</g>
<!-- Node4_2&#45;&gt;Node8_1 -->
<g id="edge7" class="edge">
<title>Node4_2&#45;&gt;Node8_1</title>
<path fill="none" stroke="black" d="M407.29,-206.59C403.13,-207.75 398.99,-208.89 395,-210 341.69,-224.76 329.02,-231.12 275,-243 218.06,-255.52 151.6,-265.84 108.71,-271.96"/>
<polygon fill="black" stroke="black" points="408.26,-209.95 416.96,-203.9 406.38,-203.21 408.26,-209.95"/>
<text text-anchor="middle" x="352.5" y="-231.8" font-family="Times,serif" font-size="14.00">सम्बन्धः</text>
</g>
<!-- Node5_1 -->
<g id="node12" class="node">
<title>Node5_1</title>
<ellipse fill="#ff99ff" stroke="#ff99ff" cx="394" cy="-105" rx="37.89" ry="18"/>
<text text-anchor="middle" x="394" y="-101.3" font-family="Times,serif" font-size="14.00">च(5.1)</text>
</g>
<!-- Node5_1&#45;&gt;Node4_2 -->
<g id="edge8" class="edge">
<title>Node5_1&#45;&gt;Node4_2</title>
<path fill="none" stroke="black" d="M386.83,-132.87C386.13,-140.78 386.91,-149.15 391,-156 397.24,-166.45 407.8,-173.97 418.62,-179.29"/>
<polygon fill="black" stroke="black" points="390.3,-133.32 388.43,-122.89 383.39,-132.21 390.3,-133.32"/>
<text text-anchor="middle" x="441" y="-144.8" font-family="Times,serif" font-size="14.00">सुप्_समुच्चय_द्योतकः</text>
</g>
<!-- Node7_1 -->
<g id="node13" class="node">
<title>Node7_1</title>
<ellipse fill="#93db70" stroke="#93db70" cx="580" cy="-192" rx="53.89" ry="18"/>
<text text-anchor="middle" x="580" y="-188.3" font-family="Times,serif" font-size="14.00">दानानि(7.1)</text>
</g>
<!-- Node7_1&#45;&gt;Node8_1 -->
<g id="edge10" class="edge">
<title>Node7_1&#45;&gt;Node8_1</title>
<path fill="none" stroke="black" d="M529.73,-206.74C525.43,-207.86 521.14,-208.96 517,-210 454.16,-225.78 438.86,-232.03 375,-243 281.83,-259.01 171.64,-269.43 110.61,-274.46"/>
<polygon fill="black" stroke="black" points="530.95,-210.03 539.72,-204.09 529.16,-203.26 530.95,-210.03"/>
<text text-anchor="middle" x="456" y="-231.8" font-family="Times,serif" font-size="14.00">कर्म</text>
</g>
<!-- Node9_1 -->
<g id="node14" class="node">
<title>Node9_1</title>
<ellipse fill="#ffff00" stroke="#ffff00" cx="703" cy="-192" rx="51.19" ry="18"/>
<text text-anchor="middle" x="703" y="-188.3" font-family="Times,serif" font-size="14.00">(हत&#45;)(9.1)</text>
</g>
<!-- Node9_1&#45;&gt;Node9_2 -->
<g id="edge12" class="edge">
<title>Node9_1&#45;&gt;Node9_2</title>
<path fill="none" stroke="black" d="M703,-220.27C703,-233.58 703,-249.19 703,-260.82"/>
<polygon fill="black" stroke="black" points="706.5,-220.2 703,-210.2 699.5,-220.2 706.5,-220.2"/>
<text text-anchor="middle" x="720" y="-231.8" font-family="Times,serif" font-size="14.00">समासः</text>
</g>
<!-- Node12_1 -->
<g id="node16" class="node">
<title>Node12_1</title>
<ellipse fill="#00bfff" stroke="#00bfff" cx="689" cy="-540" rx="73.39" ry="18"/>
<text text-anchor="middle" x="689" y="-536.3" font-family="Times,serif" font-size="14.00">(अतीतानि)(12.1)</text>
</g>
<!-- Node11_1&#45;&gt;Node12_1 -->
<g id="edge15" class="edge">
<title>Node11_1&#45;&gt;Node12_1</title>
<path fill="none" stroke="black" d="M689,-481.27C689,-494.58 689,-510.19 689,-521.82"/>
<polygon fill="black" stroke="black" points="692.5,-481.2 689,-471.2 685.5,-481.2 692.5,-481.2"/>
<text text-anchor="middle" x="700" y="-492.8" font-family="Times,serif" font-size="14.00">कर्ता</text>
</g>
<!-- Node13_1 -->
<g id="node17" class="node">
<title>Node13_1</title>
<ellipse fill="#ff1975" stroke="#ff1975" cx="689" cy="-627" rx="66.09" ry="18"/>
<text text-anchor="middle" x="689" y="-623.3" font-family="Times,serif" font-size="14.00">(अभवन्)(13.1)</text>
</g>
<!-- Node12_1&#45;&gt;Node13_1 -->
<g id="edge16" class="edge">
<title>Node12_1&#45;&gt;Node13_1</title>
<path fill="none" stroke="black" d="M689,-568.27C689,-581.58 689,-597.19 689,-608.82"/>
<polygon fill="black" stroke="black" points="692.5,-568.2 689,-558.2 685.5,-568.2 692.5,-568.2"/>
<text text-anchor="middle" x="724.5" y="-579.8" font-family="Times,serif" font-size="14.00">विधेयविशेषणम्</text>
</g>
</g>
</svg>
