<?xml version="1.0" encoding="UTF-8" standalone="no"?>
<!DOCTYPE svg PUBLIC "-//W3C//DTD SVG 1.1//EN"
 "http://www.w3.org/Graphics/SVG/1.1/DTD/svg11.dtd">
<!-- Generated by graphviz version 2.43.0 (0)
 -->
<!-- Title: G Pages: 1 -->
<svg width="742pt" height="408pt"
 viewBox="0.00 0.00 742.00 408.00" xmlns="http://www.w3.org/2000/svg" xmlns:xlink="http://www.w3.org/1999/xlink">
<g id="graph0" class="graph" transform="scale(1 1) rotate(0) translate(4 404)">
<title>G</title>
<polygon fill="#fffacd" stroke="transparent" points="-4,4 -4,-404 738,-404 738,4 -4,4"/>
<g id="clust1" class="cluster">
<title>cluster_1</title>
<polygon fill="#fffacd" stroke="black" points="8,-182 8,-321 116,-321 116,-182 8,-182"/>
</g>
<g id="clust2" class="cluster">
<title>cluster_2</title>
<polygon fill="#fffacd" stroke="black" points="114,-8 114,-147 236,-147 236,-8 114,-8"/>
</g>
<g id="clust3" class="cluster">
<title>cluster_3</title>
<polygon fill="#fffacd" stroke="black" points="606,-8 606,-147 726,-147 726,-8 606,-8"/>
</g>
<!-- Node2_1 -->
<g id="node1" class="node">
<title>Node2_1</title>
<ellipse fill="#00bfff" stroke="#00bfff" cx="62" cy="-208" rx="40.09" ry="18"/>
<text text-anchor="middle" x="62" y="-204.3" font-family="Times,serif" font-size="14.00">सः(2.1)</text>
</g>
<!-- Node3_1 -->
<g id="node2" class="node">
<title>Node3_1</title>
<ellipse fill="#00bfff" stroke="#00bfff" cx="62" cy="-295" rx="46.29" ry="18"/>
<text text-anchor="middle" x="62" y="-291.3" font-family="Times,serif" font-size="14.00">वह्निः(3.1)</text>
</g>
<!-- Node2_1&#45;&gt;Node3_1 -->
<g id="edge2" class="edge">
<title>Node2_1&#45;&gt;Node3_1</title>
<path fill="none" stroke="black" d="M62,-236.27C62,-249.58 62,-265.19 62,-276.82"/>
<polygon fill="black" stroke="black" points="65.5,-236.2 62,-226.2 58.5,-236.2 65.5,-236.2"/>
<text text-anchor="middle" x="84.5" y="-247.8" font-family="Times,serif" font-size="14.00">विशेषणम्</text>
</g>
<!-- Node7_1 -->
<g id="node8" class="node">
<title>Node7_1</title>
<ellipse fill="#ff1975" stroke="#ff1975" cx="170" cy="-382" rx="49.29" ry="18"/>
<text text-anchor="middle" x="170" y="-378.3" font-family="Times,serif" font-size="14.00">अभूत्(7.1)</text>
</g>
<!-- Node3_1&#45;&gt;Node7_1 -->
<g id="edge3" class="edge">
<title>Node3_1&#45;&gt;Node7_1</title>
<path fill="none" stroke="black" d="M89.55,-317.68C108.49,-332.59 133.21,-352.05 150.22,-365.43"/>
<polygon fill="black" stroke="black" points="91.58,-314.83 81.56,-311.39 87.25,-320.33 91.58,-314.83"/>
<text text-anchor="middle" x="134" y="-334.8" font-family="Times,serif" font-size="14.00">कर्ता</text>
</g>
<!-- Node4_1 -->
<g id="node3" class="node">
<title>Node4_1</title>
<ellipse fill="#c6e2eb" stroke="#c6e2eb" cx="175" cy="-34" rx="53.09" ry="18"/>
<text text-anchor="middle" x="175" y="-30.3" font-family="Times,serif" font-size="14.00">तस्मिन्(4.1)</text>
</g>
<!-- Node5_1 -->
<g id="node4" class="node">
<title>Node5_1</title>
<ellipse fill="#c6e2eb" stroke="#c6e2eb" cx="175" cy="-121" rx="41.69" ry="18"/>
<text text-anchor="middle" x="175" y="-117.3" font-family="Times,serif" font-size="14.00">वने(5.1)</text>
</g>
<!-- Node4_1&#45;&gt;Node5_1 -->
<g id="edge4" class="edge">
<title>Node4_1&#45;&gt;Node5_1</title>
<path fill="none" stroke="black" d="M175,-62.27C175,-75.58 175,-91.19 175,-102.82"/>
<polygon fill="black" stroke="black" points="178.5,-62.2 175,-52.2 171.5,-62.2 178.5,-62.2"/>
<text text-anchor="middle" x="197.5" y="-73.8" font-family="Times,serif" font-size="14.00">विशेषणम्</text>
</g>
<!-- Node6_1 -->
<g id="node9" class="node">
<title>Node6_1</title>
<ellipse fill="#00bfff" stroke="#00bfff" cx="175" cy="-208" rx="51.19" ry="18"/>
<text text-anchor="middle" x="175" y="-204.3" font-family="Times,serif" font-size="14.00">विवृद्धः(6.1)</text>
</g>
<!-- Node5_1&#45;&gt;Node6_1 -->
<g id="edge5" class="edge">
<title>Node5_1&#45;&gt;Node6_1</title>
<path fill="none" stroke="black" d="M175,-149.27C175,-162.58 175,-178.19 175,-189.82"/>
<polygon fill="black" stroke="black" points="178.5,-149.2 175,-139.2 171.5,-149.2 178.5,-149.2"/>
<text text-anchor="middle" x="207" y="-160.8" font-family="Times,serif" font-size="14.00">देशाधिकरणम्</text>
</g>
<!-- Node10_1 -->
<g id="node5" class="node">
<title>Node10_1</title>
<ellipse fill="#00bfff" stroke="#00bfff" cx="666" cy="-34" rx="48.19" ry="18"/>
<text text-anchor="middle" x="666" y="-30.3" font-family="Times,serif" font-size="14.00">तत्(10.1)</text>
</g>
<!-- Node11_1 -->
<g id="node6" class="node">
<title>Node11_1</title>
<ellipse fill="#00bfff" stroke="#00bfff" cx="666" cy="-121" rx="51.99" ry="18"/>
<text text-anchor="middle" x="666" y="-117.3" font-family="Times,serif" font-size="14.00">वनम्(11.1)</text>
</g>
<!-- Node10_1&#45;&gt;Node11_1 -->
<g id="edge9" class="edge">
<title>Node10_1&#45;&gt;Node11_1</title>
<path fill="none" stroke="black" d="M666,-62.27C666,-75.58 666,-91.19 666,-102.82"/>
<polygon fill="black" stroke="black" points="669.5,-62.2 666,-52.2 662.5,-62.2 669.5,-62.2"/>
<text text-anchor="middle" x="688.5" y="-73.8" font-family="Times,serif" font-size="14.00">विशेषणम्</text>
</g>
<!-- Node12_1 -->
<g id="node12" class="node">
<title>Node12_1</title>
<ellipse fill="#00bfff" stroke="#00bfff" cx="529" cy="-208" rx="65.79" ry="18"/>
<text text-anchor="middle" x="529" y="-204.3" font-family="Times,serif" font-size="14.00">आदीप्तम्(12.1)</text>
</g>
<!-- Node11_1&#45;&gt;Node12_1 -->
<g id="edge10" class="edge">
<title>Node11_1&#45;&gt;Node12_1</title>
<path fill="none" stroke="black" d="M649.18,-147.02C642.23,-155.87 633.56,-165.28 624,-172 609.62,-182.11 591.98,-189.66 575.82,-195.11"/>
<polygon fill="black" stroke="black" points="652.12,-148.93 655.28,-138.82 646.5,-144.75 652.12,-148.93"/>
<text text-anchor="middle" x="648" y="-160.8" font-family="Times,serif" font-size="14.00">कर्म</text>
</g>
<!-- Node1_1 -->
<g id="node7" class="node">
<title>Node1_1</title>
<ellipse fill="#ff99ff" stroke="#ff99ff" cx="170" cy="-295" rx="44.39" ry="18"/>
<text text-anchor="middle" x="170" y="-291.3" font-family="Times,serif" font-size="14.00">तदा(1.1)</text>
</g>
<!-- Node1_1&#45;&gt;Node7_1 -->
<g id="edge1" class="edge">
<title>Node1_1&#45;&gt;Node7_1</title>
<path fill="none" stroke="black" d="M170,-323.27C170,-336.58 170,-352.19 170,-363.82"/>
<polygon fill="black" stroke="black" points="173.5,-323.2 170,-313.2 166.5,-323.2 173.5,-323.2"/>
<text text-anchor="middle" x="205.5" y="-334.8" font-family="Times,serif" font-size="14.00">कालाधिकरणम्</text>
</g>
<!-- Node6_1&#45;&gt;Node3_1 -->
<g id="edge6" class="edge">
<title>Node6_1&#45;&gt;Node3_1</title>
<path fill="none" stroke="black" d="M147.16,-231.17C136,-239.95 122.97,-250.05 111,-259 102.12,-265.63 92.2,-272.77 83.61,-278.86"/>
<polygon fill="black" stroke="black" points="149.6,-233.71 155.28,-224.76 145.26,-228.21 149.6,-233.71"/>
<text text-anchor="middle" x="170" y="-247.8" font-family="Times,serif" font-size="14.00">विधेय_विशेषणम्</text>
</g>
<!-- Node8_1 -->
<g id="node10" class="node">
<title>Node8_1</title>
<ellipse fill="#ff99ff" stroke="#ff99ff" cx="279" cy="-295" rx="46.59" ry="18"/>
<text text-anchor="middle" x="279" y="-291.3" font-family="Times,serif" font-size="14.00">किल(8.1)</text>
</g>
<!-- Node8_1&#45;&gt;Node7_1 -->
<g id="edge7" class="edge">
<title>Node8_1&#45;&gt;Node7_1</title>
<path fill="none" stroke="black" d="M265.33,-321.63C259.85,-330.18 252.95,-339.23 245,-346 233.4,-355.87 218.55,-363.57 205.13,-369.2"/>
<polygon fill="black" stroke="black" points="268.34,-323.41 270.49,-313.03 262.34,-319.8 268.34,-323.41"/>
<text text-anchor="middle" x="277.5" y="-334.8" font-family="Times,serif" font-size="14.00">सम्बन्धः</text>
</g>
<!-- Node9_1 -->
<g id="node11" class="node">
<title>Node9_1</title>
<ellipse fill="#40e0d0" stroke="#40e0d0" cx="436" cy="-121" rx="42.49" ry="18"/>
<text text-anchor="middle" x="436" y="-117.3" font-family="Times,serif" font-size="14.00">तेन(9.1)</text>
</g>
<!-- Node9_1&#45;&gt;Node12_1 -->
<g id="edge8" class="edge">
<title>Node9_1&#45;&gt;Node12_1</title>
<path fill="none" stroke="black" d="M460.45,-144.35C476.35,-158.88 496.71,-177.49 511.1,-190.64"/>
<polygon fill="black" stroke="black" points="462.8,-141.75 453.06,-137.59 458.08,-146.92 462.8,-141.75"/>
<text text-anchor="middle" x="497.5" y="-160.8" font-family="Times,serif" font-size="14.00">हेतुः</text>
</g>
<!-- Node16_1 -->
<g id="node13" class="node">
<title>Node16_1</title>
<ellipse fill="#ff1975" stroke="#ff1975" cx="402" cy="-295" rx="57.69" ry="18"/>
<text text-anchor="middle" x="402" y="-291.3" font-family="Times,serif" font-size="14.00">अब्रुवन्(16.1)</text>
</g>
<!-- Node12_1&#45;&gt;Node16_1 -->
<g id="edge11" class="edge">
<title>Node12_1&#45;&gt;Node16_1</title>
<path fill="none" stroke="black" d="M496.65,-230.65C474.4,-245.55 445.36,-264.98 425.35,-278.37"/>
<polygon fill="black" stroke="black" points="498.75,-233.46 505.11,-224.99 494.86,-227.64 498.75,-233.46"/>
<text text-anchor="middle" x="494.5" y="-247.8" font-family="Times,serif" font-size="14.00">वाक्यकर्म</text>
</g>
<!-- Node13_1 -->
<g id="node14" class="node">
<title>Node13_1</title>
<ellipse fill="#ff99ff" stroke="#ff99ff" cx="546" cy="-121" rx="50.09" ry="18"/>
<text text-anchor="middle" x="546" y="-117.3" font-family="Times,serif" font-size="14.00">इति(13.1)</text>
</g>
<!-- Node13_1&#45;&gt;Node12_1 -->
<g id="edge12" class="edge">
<title>Node13_1&#45;&gt;Node12_1</title>
<path fill="none" stroke="black" d="M540.55,-149.27C537.88,-162.58 534.76,-178.19 532.44,-189.82"/>
<polygon fill="black" stroke="black" points="544.03,-149.69 542.56,-139.2 537.17,-148.32 544.03,-149.69"/>
<text text-anchor="middle" x="579" y="-160.8" font-family="Times,serif" font-size="14.00">वाक्यकर्म_द्योतकः</text>
</g>
<!-- Node14_1 -->
<g id="node15" class="node">
<title>Node14_1</title>
<ellipse fill="#b0e2ff" stroke="#b0e2ff" cx="333" cy="-121" rx="42.79" ry="18"/>
<text text-anchor="middle" x="333" y="-117.3" font-family="Times,serif" font-size="14.00">मे(14.1)</text>
</g>
<!-- Node15_1 -->
<g id="node16" class="node">
<title>Node15_1</title>
<ellipse fill="#00bfff" stroke="#00bfff" cx="350" cy="-208" rx="61.19" ry="18"/>
<text text-anchor="middle" x="350" y="-204.3" font-family="Times,serif" font-size="14.00">तापसाः(15.1)</text>
</g>
<!-- Node14_1&#45;&gt;Node15_1 -->
<g id="edge13" class="edge">
<title>Node14_1&#45;&gt;Node15_1</title>
<path fill="none" stroke="black" d="M338.45,-149.27C341.12,-162.58 344.24,-178.19 346.56,-189.82"/>
<polygon fill="black" stroke="black" points="341.83,-148.32 336.44,-139.2 334.97,-149.69 341.83,-148.32"/>
<text text-anchor="middle" x="366.5" y="-160.8" font-family="Times,serif" font-size="14.00">सम्प्रदानम्</text>
</g>
<!-- Node15_1&#45;&gt;Node16_1 -->
<g id="edge14" class="edge">
<title>Node15_1&#45;&gt;Node16_1</title>
<path fill="none" stroke="black" d="M365.54,-234.4C374.02,-248.26 384.27,-265.03 391.75,-277.24"/>
<polygon fill="black" stroke="black" points="368.48,-232.5 360.27,-225.79 362.51,-236.15 368.48,-232.5"/>
<text text-anchor="middle" x="391" y="-247.8" font-family="Times,serif" font-size="14.00">कर्ता</text>
</g>
</g>
</svg>
