<?xml version="1.0" encoding="UTF-8" standalone="no"?>
<!DOCTYPE svg PUBLIC "-//W3C//DTD SVG 1.1//EN"
 "http://www.w3.org/Graphics/SVG/1.1/DTD/svg11.dtd">
<!-- Generated by graphviz version 2.43.0 (0)
 -->
<!-- Title: G Pages: 1 -->
<svg width="805pt" height="234pt"
 viewBox="0.00 0.00 805.05 234.00" xmlns="http://www.w3.org/2000/svg" xmlns:xlink="http://www.w3.org/1999/xlink">
<g id="graph0" class="graph" transform="scale(1 1) rotate(0) translate(4 230)">
<title>G</title>
<polygon fill="#fffacd" stroke="transparent" points="-4,4 -4,-230 801.05,-230 801.05,4 -4,4"/>
<g id="clust1" class="cluster">
<title>cluster_1</title>
<polygon fill="#fffacd" stroke="black" points="8,-8 8,-147 122,-147 122,-8 8,-8"/>
</g>
<g id="clust2" class="cluster">
<title>cluster_2</title>
<polygon fill="#fffacd" stroke="black" points="130,-8 130,-147 258,-147 258,-8 130,-8"/>
</g>
<g id="clust3" class="cluster">
<title>cluster_3</title>
<polygon fill="#fffacd" stroke="black" points="472,-8 472,-147 574,-147 574,-8 472,-8"/>
</g>
<!-- Node1_1 -->
<g id="node1" class="node">
<title>Node1_1</title>
<ellipse fill="#00bfff" stroke="#00bfff" cx="65" cy="-34" rx="37.09" ry="18"/>
<text text-anchor="middle" x="65" y="-30.3" font-family="Times,serif" font-size="14.00">ते(1.1)</text>
</g>
<!-- Node2_1 -->
<g id="node2" class="node">
<title>Node2_1</title>
<ellipse fill="#00bfff" stroke="#00bfff" cx="65" cy="-121" rx="49.29" ry="18"/>
<text text-anchor="middle" x="65" y="-117.3" font-family="Times,serif" font-size="14.00">मुनयः(2.1)</text>
</g>
<!-- Node1_1&#45;&gt;Node2_1 -->
<g id="edge1" class="edge">
<title>Node1_1&#45;&gt;Node2_1</title>
<path fill="none" stroke="black" d="M65,-62.27C65,-75.58 65,-91.19 65,-102.82"/>
<polygon fill="black" stroke="black" points="68.5,-62.2 65,-52.2 61.5,-62.2 68.5,-62.2"/>
<text text-anchor="middle" x="87.5" y="-73.8" font-family="Times,serif" font-size="14.00">विशेषणम्</text>
</g>
<!-- Node5_1 -->
<g id="node7" class="node">
<title>Node5_1</title>
<ellipse fill="lightgrey" stroke="black" cx="265" cy="-208" rx="72.29" ry="18"/>
<text text-anchor="middle" x="265" y="-204.3" font-family="Times,serif" font-size="14.00">आवेदयामासुः(5.1)</text>
</g>
<!-- Node2_1&#45;&gt;Node5_1 -->
<g id="edge2" class="edge">
<title>Node2_1&#45;&gt;Node5_1</title>
<path fill="none" stroke="black" d="M105.19,-139.08C141.79,-154.64 195.28,-177.37 230.12,-192.17"/>
<polygon fill="black" stroke="black" points="106.38,-135.79 95.81,-135.09 103.65,-142.23 106.38,-135.79"/>
<text text-anchor="middle" x="188" y="-160.8" font-family="Times,serif" font-size="14.00">कर्ता</text>
</g>
<!-- Node6_1 -->
<g id="node3" class="node">
<title>Node6_1</title>
<ellipse fill="#6fffc3" stroke="#6fffc3" cx="194" cy="-34" rx="48.19" ry="18"/>
<text text-anchor="middle" x="194" y="-30.3" font-family="Times,serif" font-size="14.00">अनघ(6.1)</text>
</g>
<!-- Node7_1 -->
<g id="node4" class="node">
<title>Node7_1</title>
<ellipse fill="#6fffc3" stroke="#6fffc3" cx="194" cy="-121" rx="55.79" ry="18"/>
<text text-anchor="middle" x="194" y="-117.3" font-family="Times,serif" font-size="14.00">युधिष्ठिर(7.1)</text>
</g>
<!-- Node6_1&#45;&gt;Node7_1 -->
<g id="edge5" class="edge">
<title>Node6_1&#45;&gt;Node7_1</title>
<path fill="none" stroke="black" d="M194,-62.27C194,-75.58 194,-91.19 194,-102.82"/>
<polygon fill="black" stroke="black" points="197.5,-62.2 194,-52.2 190.5,-62.2 197.5,-62.2"/>
<text text-anchor="middle" x="216.5" y="-73.8" font-family="Times,serif" font-size="14.00">विशेषणम्</text>
</g>
<!-- Node7_1&#45;&gt;Node5_1 -->
<g id="edge6" class="edge">
<title>Node7_1&#45;&gt;Node5_1</title>
<path fill="none" stroke="black" d="M214.56,-146.61C226.26,-160.62 240.6,-177.79 251,-190.24"/>
<polygon fill="black" stroke="black" points="217.12,-144.22 208.03,-138.79 211.75,-148.71 217.12,-144.22"/>
<text text-anchor="middle" x="255" y="-160.8" font-family="Times,serif" font-size="14.00">सम्बोध्यः</text>
</g>
<!-- Node9_1 -->
<g id="node5" class="node">
<title>Node9_1</title>
<ellipse fill="#00bfff" stroke="#00bfff" cx="521" cy="-34" rx="37.09" ry="18"/>
<text text-anchor="middle" x="521" y="-30.3" font-family="Times,serif" font-size="14.00">ये(9.1)</text>
</g>
<!-- Node10_1 -->
<g id="node6" class="node">
<title>Node10_1</title>
<ellipse fill="#00bfff" stroke="#00bfff" cx="523" cy="-121" rx="42.79" ry="18"/>
<text text-anchor="middle" x="523" y="-117.3" font-family="Times,serif" font-size="14.00">ते(10.1)</text>
</g>
<!-- Node9_1&#45;&gt;Node10_1 -->
<g id="edge9" class="edge">
<title>Node9_1&#45;&gt;Node10_1</title>
<path fill="none" stroke="black" d="M521.64,-62.27C521.95,-75.58 522.32,-91.19 522.6,-102.82"/>
<polygon fill="black" stroke="black" points="525.14,-62.12 521.4,-52.2 518.14,-62.28 525.14,-62.12"/>
<text text-anchor="middle" x="544.5" y="-73.8" font-family="Times,serif" font-size="14.00">विशेषणम्</text>
</g>
<!-- Node12_1 -->
<g id="node12" class="node">
<title>Node12_1</title>
<ellipse fill="#00bfff" stroke="#00bfff" cx="636" cy="-208" rx="51.99" ry="18"/>
<text text-anchor="middle" x="636" y="-204.3" font-family="Times,serif" font-size="14.00">दृष्टाः(12.1)</text>
</g>
<!-- Node10_1&#45;&gt;Node12_1 -->
<g id="edge10" class="edge">
<title>Node10_1&#45;&gt;Node12_1</title>
<path fill="none" stroke="black" d="M551.02,-143.08C570.87,-158.01 597.08,-177.72 615.11,-191.29"/>
<polygon fill="black" stroke="black" points="553.04,-140.21 542.94,-137 548.83,-145.81 553.04,-140.21"/>
<text text-anchor="middle" x="595" y="-160.8" font-family="Times,serif" font-size="14.00">कर्म</text>
</g>
<!-- Node3_1 -->
<g id="node8" class="node">
<title>Node3_1</title>
<ellipse fill="#87ceeb" stroke="#87ceeb" cx="310" cy="-121" rx="42.49" ry="18"/>
<text text-anchor="middle" x="310" y="-117.3" font-family="Times,serif" font-size="14.00">मम(3.1)</text>
</g>
<!-- Node3_1&#45;&gt;Node5_1 -->
<g id="edge3" class="edge">
<title>Node3_1&#45;&gt;Node5_1</title>
<path fill="none" stroke="black" d="M296.37,-147.74C289.13,-161.42 280.43,-177.86 274.03,-189.95"/>
<polygon fill="black" stroke="black" points="299.52,-149.27 301.11,-138.79 293.34,-145.99 299.52,-149.27"/>
<text text-anchor="middle" x="309.5" y="-160.8" font-family="Times,serif" font-size="14.00">सम्बन्धः</text>
</g>
<!-- Node4_1 -->
<g id="node9" class="node">
<title>Node4_1</title>
<ellipse fill="#ff99ff" stroke="#ff99ff" cx="416" cy="-121" rx="46.29" ry="18"/>
<text text-anchor="middle" x="416" y="-117.3" font-family="Times,serif" font-size="14.00">एवम्(4.1)</text>
</g>
<!-- Node4_1&#45;&gt;Node5_1 -->
<g id="edge4" class="edge">
<title>Node4_1&#45;&gt;Node5_1</title>
<path fill="none" stroke="black" d="M383.61,-141.85C368.11,-151.2 349.22,-162.39 332,-172 320.2,-178.59 307.05,-185.54 295.54,-191.5"/>
<polygon fill="black" stroke="black" points="385.57,-144.76 392.31,-136.58 381.94,-138.77 385.57,-144.76"/>
<text text-anchor="middle" x="393" y="-160.8" font-family="Times,serif" font-size="14.00">क्रियाविशेषणम्</text>
</g>
<!-- Node8_1 -->
<g id="node10" class="node">
<title>Node8_1</title>
<ellipse fill="#ffff00" stroke="#ffff00" cx="644" cy="-34" rx="61.99" ry="18"/>
<text text-anchor="middle" x="644" y="-30.3" font-family="Times,serif" font-size="14.00">भागीरथी&#45;(8.1)</text>
</g>
<!-- Node8_2 -->
<g id="node11" class="node">
<title>Node8_2</title>
<ellipse fill="#c6e2eb" stroke="#c6e2eb" cx="636" cy="-121" rx="42.79" ry="18"/>
<text text-anchor="middle" x="636" y="-117.3" font-family="Times,serif" font-size="14.00">तीरे(8.2)</text>
</g>
<!-- Node8_1&#45;&gt;Node8_2 -->
<g id="edge7" class="edge">
<title>Node8_1&#45;&gt;Node8_2</title>
<path fill="none" stroke="black" d="M641.43,-62.27C640.18,-75.58 638.71,-91.19 637.62,-102.82"/>
<polygon fill="black" stroke="black" points="644.93,-62.49 642.38,-52.2 637.96,-61.83 644.93,-62.49"/>
<text text-anchor="middle" x="657" y="-73.8" font-family="Times,serif" font-size="14.00">समासः</text>
</g>
<!-- Node8_2&#45;&gt;Node12_1 -->
<g id="edge8" class="edge">
<title>Node8_2&#45;&gt;Node12_1</title>
<path fill="none" stroke="black" d="M636,-149.27C636,-162.58 636,-178.19 636,-189.82"/>
<polygon fill="black" stroke="black" points="639.5,-149.2 636,-139.2 632.5,-149.2 639.5,-149.2"/>
<text text-anchor="middle" x="668" y="-160.8" font-family="Times,serif" font-size="14.00">देशाधिकरणम्</text>
</g>
<!-- Node11_1 -->
<g id="node13" class="node">
<title>Node11_1</title>
<ellipse fill="#40e0d0" stroke="#40e0d0" cx="747" cy="-121" rx="50.09" ry="18"/>
<text text-anchor="middle" x="747" y="-117.3" font-family="Times,serif" font-size="14.00">मया(11.1)</text>
</g>
<!-- Node11_1&#45;&gt;Node12_1 -->
<g id="edge11" class="edge">
<title>Node11_1&#45;&gt;Node12_1</title>
<path fill="none" stroke="black" d="M728.9,-146.78C721.78,-155.44 713.13,-164.8 704,-172 693.16,-180.55 679.9,-187.93 667.98,-193.68"/>
<polygon fill="black" stroke="black" points="731.77,-148.79 735.22,-138.77 726.27,-144.45 731.77,-148.79"/>
<text text-anchor="middle" x="730" y="-160.8" font-family="Times,serif" font-size="14.00">कर्ता</text>
</g>
</g>
</svg>
