<?xml version="1.0" encoding="UTF-8" standalone="no"?>
<!DOCTYPE svg PUBLIC "-//W3C//DTD SVG 1.1//EN"
 "http://www.w3.org/Graphics/SVG/1.1/DTD/svg11.dtd">
<!-- Generated by graphviz version 2.43.0 (0)
 -->
<!-- Title: G Pages: 1 -->
<svg width="862pt" height="321pt"
 viewBox="0.00 0.00 862.00 321.00" xmlns="http://www.w3.org/2000/svg" xmlns:xlink="http://www.w3.org/1999/xlink">
<g id="graph0" class="graph" transform="scale(1 1) rotate(0) translate(4 317)">
<title>G</title>
<polygon fill="#fffacd" stroke="transparent" points="-4,4 -4,-317 858,-317 858,4 -4,4"/>
<g id="clust1" class="cluster">
<title>cluster_1</title>
<polygon fill="#fffacd" stroke="black" points="736,-95 736,-234 846,-234 846,-95 736,-95"/>
</g>
<g id="clust2" class="cluster">
<title>cluster_2</title>
<polygon fill="#fffacd" stroke="black" points="278,-8 278,-147 394,-147 394,-8 278,-8"/>
</g>
<g id="clust3" class="cluster">
<title>cluster_3</title>
<polygon fill="#fffacd" stroke="black" points="8,-95 8,-234 170,-234 170,-95 8,-95"/>
</g>
<!-- Node2_2 -->
<g id="node1" class="node">
<title>Node2_2</title>
<ellipse fill="#00bfff" stroke="#00bfff" cx="791" cy="-121" rx="46.59" ry="18"/>
<text text-anchor="middle" x="791" y="-117.3" font-family="Times,serif" font-size="14.00">पतिः(2.2)</text>
</g>
<!-- Node1_1 -->
<g id="node2" class="node">
<title>Node1_1</title>
<ellipse fill="#00bfff" stroke="#00bfff" cx="791" cy="-208" rx="46.29" ry="18"/>
<text text-anchor="middle" x="791" y="-204.3" font-family="Times,serif" font-size="14.00">राजा(1.1)</text>
</g>
<!-- Node2_2&#45;&gt;Node1_1 -->
<g id="edge3" class="edge">
<title>Node2_2&#45;&gt;Node1_1</title>
<path fill="none" stroke="black" d="M791,-149.27C791,-162.58 791,-178.19 791,-189.82"/>
<polygon fill="black" stroke="black" points="794.5,-149.2 791,-139.2 787.5,-149.2 794.5,-149.2"/>
<text text-anchor="middle" x="813.5" y="-160.8" font-family="Times,serif" font-size="14.00">विशेषणम्</text>
</g>
<!-- Node12_1 -->
<g id="node7" class="node">
<title>Node12_1</title>
<ellipse fill="#ff1975" stroke="#ff1975" cx="471" cy="-295" rx="49.29" ry="18"/>
<text text-anchor="middle" x="471" y="-291.3" font-family="Times,serif" font-size="14.00">ददौ(12.1)</text>
</g>
<!-- Node1_1&#45;&gt;Node12_1 -->
<g id="edge1" class="edge">
<title>Node1_1&#45;&gt;Node12_1</title>
<path fill="none" stroke="black" d="M754.44,-226.86C748.37,-229.47 742.07,-231.96 736,-234 660.22,-259.5 568.62,-277.54 515.36,-286.81"/>
<polygon fill="black" stroke="black" points="756.04,-229.98 763.75,-222.71 753.19,-223.59 756.04,-229.98"/>
<text text-anchor="middle" x="711" y="-247.8" font-family="Times,serif" font-size="14.00">कर्ता</text>
</g>
<!-- Node3_1 -->
<g id="node3" class="node">
<title>Node3_1</title>
<ellipse fill="#87ceeb" stroke="#87ceeb" cx="336" cy="-34" rx="46.59" ry="18"/>
<text text-anchor="middle" x="336" y="-30.3" font-family="Times,serif" font-size="14.00">तयोः(3.1)</text>
</g>
<!-- Node4_1 -->
<g id="node4" class="node">
<title>Node4_1</title>
<ellipse fill="#87ceeb" stroke="#87ceeb" cx="336" cy="-121" rx="50.09" ry="18"/>
<text text-anchor="middle" x="336" y="-117.3" font-family="Times,serif" font-size="14.00">मात्रोः(4.1)</text>
</g>
<!-- Node3_1&#45;&gt;Node4_1 -->
<g id="edge4" class="edge">
<title>Node3_1&#45;&gt;Node4_1</title>
<path fill="none" stroke="black" d="M336,-62.27C336,-75.58 336,-91.19 336,-102.82"/>
<polygon fill="black" stroke="black" points="339.5,-62.2 336,-52.2 332.5,-62.2 339.5,-62.2"/>
<text text-anchor="middle" x="358.5" y="-73.8" font-family="Times,serif" font-size="14.00">विशेषणम्</text>
</g>
<!-- Node5_1 -->
<g id="node9" class="node">
<title>Node5_1</title>
<ellipse fill="#ff99ff" stroke="#ff99ff" cx="280" cy="-208" rx="57.69" ry="18"/>
<text text-anchor="middle" x="280" y="-204.3" font-family="Times,serif" font-size="14.00">समुद्दिश्य(5.1)</text>
</g>
<!-- Node4_1&#45;&gt;Node5_1 -->
<g id="edge5" class="edge">
<title>Node4_1&#45;&gt;Node5_1</title>
<path fill="none" stroke="black" d="M320.04,-147.28C314.96,-155.23 309.29,-164.01 304,-172 300.01,-178.02 295.56,-184.56 291.58,-190.34"/>
<polygon fill="black" stroke="black" points="323.05,-149.07 325.46,-138.75 317.14,-145.31 323.05,-149.07"/>
<text text-anchor="middle" x="340.5" y="-160.8" font-family="Times,serif" font-size="14.00">षष्ठीसम्बन्धः</text>
</g>
<!-- Node11_1 -->
<g id="node5" class="node">
<title>Node11_1</title>
<ellipse fill="#93db70" stroke="#93db70" cx="89" cy="-121" rx="73.39" ry="18"/>
<text text-anchor="middle" x="89" y="-117.3" font-family="Times,serif" font-size="14.00">परिचारिकाः(11.1)</text>
</g>
<!-- Node9_1 -->
<g id="node6" class="node">
<title>Node9_1</title>
<ellipse fill="#93db70" stroke="#93db70" cx="112" cy="-208" rx="50.09" ry="18"/>
<text text-anchor="middle" x="112" y="-204.3" font-family="Times,serif" font-size="14.00">दासीः(9.1)</text>
</g>
<!-- Node11_1&#45;&gt;Node9_1 -->
<g id="edge12" class="edge">
<title>Node11_1&#45;&gt;Node9_1</title>
<path fill="none" stroke="black" d="M96.27,-148.87C99.9,-162.27 104.17,-178.08 107.35,-189.82"/>
<polygon fill="black" stroke="black" points="99.64,-147.94 93.65,-139.2 92.89,-149.77 99.64,-147.94"/>
<text text-anchor="middle" x="124.5" y="-160.8" font-family="Times,serif" font-size="14.00">विशेषणम्</text>
</g>
<!-- Node9_1&#45;&gt;Node12_1 -->
<g id="edge10" class="edge">
<title>Node9_1&#45;&gt;Node12_1</title>
<path fill="none" stroke="black" d="M161.68,-221.44C178.01,-225.5 196.27,-229.98 213,-234 289.69,-252.41 379.42,-273.08 430.29,-284.72"/>
<polygon fill="black" stroke="black" points="162.33,-218 151.78,-218.99 160.64,-224.79 162.33,-218"/>
<text text-anchor="middle" x="322" y="-247.8" font-family="Times,serif" font-size="14.00">कर्म</text>
</g>
<!-- Node2_1 -->
<g id="node8" class="node">
<title>Node2_1</title>
<ellipse fill="#ffff00" stroke="#ffff00" cx="791" cy="-34" rx="46.59" ry="18"/>
<text text-anchor="middle" x="791" y="-30.3" font-family="Times,serif" font-size="14.00">मही&#45;(2.1)</text>
</g>
<!-- Node2_1&#45;&gt;Node2_2 -->
<g id="edge2" class="edge">
<title>Node2_1&#45;&gt;Node2_2</title>
<path fill="none" stroke="black" d="M791,-62.27C791,-75.58 791,-91.19 791,-102.82"/>
<polygon fill="black" stroke="black" points="794.5,-62.2 791,-52.2 787.5,-62.2 794.5,-62.2"/>
<text text-anchor="middle" x="808" y="-73.8" font-family="Times,serif" font-size="14.00">समासः</text>
</g>
<!-- Node5_1&#45;&gt;Node12_1 -->
<g id="edge6" class="edge">
<title>Node5_1&#45;&gt;Node12_1</title>
<path fill="none" stroke="black" d="M320.39,-227.58C341.15,-237.07 366.88,-248.75 390,-259 406.53,-266.33 425.03,-274.33 440.17,-280.84"/>
<polygon fill="black" stroke="black" points="321.77,-224.36 311.22,-223.38 318.86,-230.73 321.77,-224.36"/>
<text text-anchor="middle" x="410.5" y="-247.8" font-family="Times,serif" font-size="14.00">पूर्वकालः</text>
</g>
<!-- Node6_1 -->
<g id="node10" class="node">
<title>Node6_1</title>
<ellipse fill="#93db70" stroke="#93db70" cx="405" cy="-208" rx="49.29" ry="18"/>
<text text-anchor="middle" x="405" y="-204.3" font-family="Times,serif" font-size="14.00">यानम्(6.1)</text>
</g>
<!-- Node6_1&#45;&gt;Node12_1 -->
<g id="edge7" class="edge">
<title>Node6_1&#45;&gt;Node12_1</title>
<path fill="none" stroke="black" d="M424.46,-234.06C435.36,-248.09 448.63,-265.19 458.21,-277.53"/>
<polygon fill="black" stroke="black" points="426.94,-231.55 418.04,-225.79 421.41,-235.84 426.94,-231.55"/>
<text text-anchor="middle" x="451" y="-247.8" font-family="Times,serif" font-size="14.00">कर्म</text>
</g>
<!-- Node7_1 -->
<g id="node11" class="node">
<title>Node7_1</title>
<ellipse fill="#93db70" stroke="#93db70" cx="538" cy="-208" rx="65.79" ry="18"/>
<text text-anchor="middle" x="538" y="-204.3" font-family="Times,serif" font-size="14.00">आच्छादनम्(7.1)</text>
</g>
<!-- Node7_1&#45;&gt;Node12_1 -->
<g id="edge8" class="edge">
<title>Node7_1&#45;&gt;Node12_1</title>
<path fill="none" stroke="black" d="M518.56,-233.67C507.44,-247.77 493.8,-265.08 483.98,-277.53"/>
<polygon fill="black" stroke="black" points="521.32,-235.81 524.76,-225.79 515.82,-231.48 521.32,-235.81"/>
<text text-anchor="middle" x="517" y="-247.8" font-family="Times,serif" font-size="14.00">कर्म</text>
</g>
<!-- Node8_1 -->
<g id="node12" class="node">
<title>Node8_1</title>
<ellipse fill="#93db70" stroke="#93db70" cx="674" cy="-208" rx="52.79" ry="18"/>
<text text-anchor="middle" x="674" y="-204.3" font-family="Times,serif" font-size="14.00">भोगान्(8.1)</text>
</g>
<!-- Node8_1&#45;&gt;Node12_1 -->
<g id="edge9" class="edge">
<title>Node8_1&#45;&gt;Node12_1</title>
<path fill="none" stroke="black" d="M632.44,-226.4C593.85,-242.56 537.26,-266.25 502.35,-280.87"/>
<polygon fill="black" stroke="black" points="633.96,-229.56 641.83,-222.47 631.26,-223.1 633.96,-229.56"/>
<text text-anchor="middle" x="593" y="-247.8" font-family="Times,serif" font-size="14.00">कर्म</text>
</g>
<!-- Node10_1 -->
<g id="node13" class="node">
<title>Node10_1</title>
<ellipse fill="#ff99ff" stroke="#ff99ff" cx="224" cy="-121" rx="43.59" ry="18"/>
<text text-anchor="middle" x="224" y="-117.3" font-family="Times,serif" font-size="14.00">च(10.1)</text>
</g>
<!-- Node10_1&#45;&gt;Node9_1 -->
<g id="edge11" class="edge">
<title>Node10_1&#45;&gt;Node9_1</title>
<path fill="none" stroke="black" d="M195.96,-143.28C176.28,-158.21 150.4,-177.85 132.61,-191.36"/>
<polygon fill="black" stroke="black" points="198.13,-146.03 203.98,-137.2 193.89,-140.45 198.13,-146.03"/>
<text text-anchor="middle" x="213" y="-160.8" font-family="Times,serif" font-size="14.00">समुच्चय_द्योतकः</text>
</g>
</g>
</svg>
