<?xml version="1.0" encoding="UTF-8" standalone="no"?>
<!DOCTYPE svg PUBLIC "-//W3C//DTD SVG 1.1//EN"
 "http://www.w3.org/Graphics/SVG/1.1/DTD/svg11.dtd">
<!-- Generated by graphviz version 2.43.0 (0)
 -->
<!-- Title: G Pages: 1 -->
<svg width="567pt" height="305pt"
 viewBox="0.00 0.00 566.60 305.00" xmlns="http://www.w3.org/2000/svg" xmlns:xlink="http://www.w3.org/1999/xlink">
<g id="graph0" class="graph" transform="scale(1 1) rotate(0) translate(4 301)">
<title>G</title>
<polygon fill="#fffacd" stroke="transparent" points="-4,4 -4,-301 562.6,-301 562.6,4 -4,4"/>
<g id="clust1" class="cluster">
<title>cluster_1</title>
<polygon fill="#fffacd" stroke="black" points="241.6,-79 241.6,-218 550.6,-218 550.6,-79 241.6,-79"/>
</g>
<!-- Node3_1 -->
<g id="node1" class="node">
<title>Node3_1</title>
<ellipse fill="#00bfff" stroke="#00bfff" cx="502.6" cy="-105" rx="40.09" ry="18"/>
<text text-anchor="middle" x="502.6" y="-101.3" font-family="Times,serif" font-size="14.00">सः(3.1)</text>
</g>
<!-- Node6_2 -->
<g id="node2" class="node">
<title>Node6_2</title>
<ellipse fill="#00bfff" stroke="#00bfff" cx="297.6" cy="-192" rx="48.19" ry="18"/>
<text text-anchor="middle" x="297.6" y="-188.3" font-family="Times,serif" font-size="14.00">पालः(6.2)</text>
</g>
<!-- Node3_1&#45;&gt;Node6_2 -->
<g id="edge3" class="edge">
<title>Node3_1&#45;&gt;Node6_2</title>
<path fill="none" stroke="black" d="M471.14,-125.11C453.72,-135.17 431.42,-147.22 410.6,-156 386.47,-166.18 358.34,-174.9 336.19,-181.09"/>
<polygon fill="black" stroke="black" points="472.92,-128.12 479.78,-120.05 469.38,-122.08 472.92,-128.12"/>
<text text-anchor="middle" x="464.1" y="-144.8" font-family="Times,serif" font-size="14.00">विशेषणम्</text>
</g>
<!-- Node10_1 -->
<g id="node6" class="node">
<title>Node10_1</title>
<ellipse fill="#ff1975" stroke="#ff1975" cx="187.6" cy="-279" rx="57.69" ry="18"/>
<text text-anchor="middle" x="187.6" y="-275.3" font-family="Times,serif" font-size="14.00">निर्ययौ(10.1)</text>
</g>
<!-- Node6_2&#45;&gt;Node10_1 -->
<g id="edge8" class="edge">
<title>Node6_2&#45;&gt;Node10_1</title>
<path fill="none" stroke="black" d="M283.39,-218.62C277.75,-227.17 270.67,-236.22 262.6,-243 251.59,-252.24 237.74,-259.6 224.94,-265.14"/>
<polygon fill="black" stroke="black" points="286.43,-220.37 288.73,-210.02 280.48,-216.67 286.43,-220.37"/>
<text text-anchor="middle" x="286.6" y="-231.8" font-family="Times,serif" font-size="14.00">कर्ता</text>
</g>
<!-- Node5_2 -->
<g id="node3" class="node">
<title>Node5_2</title>
<ellipse fill="#00bfff" stroke="#00bfff" cx="293.6" cy="-105" rx="43.59" ry="18"/>
<text text-anchor="middle" x="293.6" y="-101.3" font-family="Times,serif" font-size="14.00">धरः(5.2)</text>
</g>
<!-- Node5_2&#45;&gt;Node6_2 -->
<g id="edge6" class="edge">
<title>Node5_2&#45;&gt;Node6_2</title>
<path fill="none" stroke="black" d="M294.88,-133.27C295.5,-146.58 296.24,-162.19 296.79,-173.82"/>
<polygon fill="black" stroke="black" points="298.37,-133.03 294.4,-123.2 291.38,-133.35 298.37,-133.03"/>
<text text-anchor="middle" x="318.1" y="-144.8" font-family="Times,serif" font-size="14.00">विशेषणम्</text>
</g>
<!-- Node7_2 -->
<g id="node4" class="node">
<title>Node7_2</title>
<ellipse fill="#00bfff" stroke="#00bfff" cx="399.6" cy="-105" rx="44.69" ry="18"/>
<text text-anchor="middle" x="399.6" y="-101.3" font-family="Times,serif" font-size="14.00">दारः(7.2)</text>
</g>
<!-- Node7_2&#45;&gt;Node6_2 -->
<g id="edge10" class="edge">
<title>Node7_2&#45;&gt;Node6_2</title>
<path fill="none" stroke="black" d="M375.59,-128.75C366.12,-137.49 355.02,-147.41 344.6,-156 336.43,-162.73 327.14,-169.76 318.99,-175.75"/>
<polygon fill="black" stroke="black" points="378.18,-131.13 383.12,-121.75 373.42,-126 378.18,-131.13"/>
<text text-anchor="middle" x="384.1" y="-144.8" font-family="Times,serif" font-size="14.00">विशेषणम्</text>
</g>
<!-- Node1_1 -->
<g id="node5" class="node">
<title>Node1_1</title>
<ellipse fill="#6fffc3" stroke="#6fffc3" cx="68.6" cy="-192" rx="57.39" ry="18"/>
<text text-anchor="middle" x="68.6" y="-188.3" font-family="Times,serif" font-size="14.00">भरतर्षभ(1.1)</text>
</g>
<!-- Node1_1&#45;&gt;Node10_1 -->
<g id="edge1" class="edge">
<title>Node1_1&#45;&gt;Node10_1</title>
<path fill="none" stroke="black" d="M97.38,-214.96C109.14,-223.8 122.92,-234.02 135.6,-243 144.74,-249.48 154.94,-256.42 163.87,-262.39"/>
<polygon fill="black" stroke="black" points="99.32,-212.04 89.23,-208.8 95.1,-217.62 99.32,-212.04"/>
<text text-anchor="middle" x="159.6" y="-231.8" font-family="Times,serif" font-size="14.00">सम्बोधनम्</text>
</g>
<!-- Node2_1 -->
<g id="node7" class="node">
<title>Node2_1</title>
<ellipse fill="#ff99ff" stroke="#ff99ff" cx="187.6" cy="-192" rx="44.39" ry="18"/>
<text text-anchor="middle" x="187.6" y="-188.3" font-family="Times,serif" font-size="14.00">ततः(2.1)</text>
</g>
<!-- Node2_1&#45;&gt;Node10_1 -->
<g id="edge2" class="edge">
<title>Node2_1&#45;&gt;Node10_1</title>
<path fill="none" stroke="black" d="M187.6,-220.27C187.6,-233.58 187.6,-249.19 187.6,-260.82"/>
<polygon fill="black" stroke="black" points="191.1,-220.2 187.6,-210.2 184.1,-220.2 191.1,-220.2"/>
<text text-anchor="middle" x="223.1" y="-231.8" font-family="Times,serif" font-size="14.00">कालाधिकरणम्</text>
</g>
<!-- Node4_1 -->
<g id="node8" class="node">
<title>Node4_1</title>
<ellipse fill="#87ceeb" stroke="#87ceeb" cx="230.6" cy="-18" rx="67.69" ry="18"/>
<text text-anchor="middle" x="230.6" y="-14.3" font-family="Times,serif" font-size="14.00">पाण्डवानाम्(4.1)</text>
</g>
<!-- Node4_1&#45;&gt;Node5_2 -->
<g id="edge4" class="edge">
<title>Node4_1&#45;&gt;Node5_2</title>
<path fill="none" stroke="black" d="M249.17,-44.06C259.57,-58.09 272.24,-75.19 281.39,-87.53"/>
<polygon fill="black" stroke="black" points="251.81,-41.74 243.04,-35.79 246.18,-45.91 251.81,-41.74"/>
<text text-anchor="middle" x="293.1" y="-57.8" font-family="Times,serif" font-size="14.00">षष्ठीसम्बन्धः</text>
</g>
<!-- Node5_1 -->
<g id="node9" class="node">
<title>Node5_1</title>
<ellipse fill="#ffff00" stroke="#ffff00" cx="360.6" cy="-18" rx="44.39" ry="18"/>
<text text-anchor="middle" x="360.6" y="-14.3" font-family="Times,serif" font-size="14.00">धुरं&#45;(5.1)</text>
</g>
<!-- Node5_1&#45;&gt;Node5_2 -->
<g id="edge5" class="edge">
<title>Node5_1&#45;&gt;Node5_2</title>
<path fill="none" stroke="black" d="M343.4,-43.92C337.6,-52.04 330.97,-61.02 324.6,-69 319.53,-75.34 313.69,-82.07 308.45,-87.91"/>
<polygon fill="black" stroke="black" points="346.42,-45.71 349.33,-35.52 340.7,-41.67 346.42,-45.71"/>
<text text-anchor="middle" x="352.6" y="-57.8" font-family="Times,serif" font-size="14.00">समासः</text>
</g>
<!-- Node6_1 -->
<g id="node10" class="node">
<title>Node6_1</title>
<ellipse fill="#ffff00" stroke="#ffff00" cx="54.6" cy="-105" rx="54.69" ry="18"/>
<text text-anchor="middle" x="54.6" y="-101.3" font-family="Times,serif" font-size="14.00">पृथिवी&#45;(6.1)</text>
</g>
<!-- Node6_1&#45;&gt;Node6_2 -->
<g id="edge7" class="edge">
<title>Node6_1&#45;&gt;Node6_2</title>
<path fill="none" stroke="black" d="M99.29,-122.34C126.5,-132.22 161.99,-145 193.6,-156 216.62,-164.02 242.62,-172.77 262.87,-179.51"/>
<polygon fill="black" stroke="black" points="100.25,-118.97 89.66,-118.84 97.86,-125.55 100.25,-118.97"/>
<text text-anchor="middle" x="210.6" y="-144.8" font-family="Times,serif" font-size="14.00">समासः</text>
</g>
<!-- Node7_1 -->
<g id="node11" class="node">
<title>Node7_1</title>
<ellipse fill="#ffff00" stroke="#ffff00" cx="463.6" cy="-18" rx="40.89" ry="18"/>
<text text-anchor="middle" x="463.6" y="-14.3" font-family="Times,serif" font-size="14.00">स&#45;(7.1)</text>
</g>
<!-- Node7_1&#45;&gt;Node7_2 -->
<g id="edge9" class="edge">
<title>Node7_1&#45;&gt;Node7_2</title>
<path fill="none" stroke="black" d="M444.99,-43.71C434.34,-57.86 421.27,-75.21 411.9,-87.66"/>
<polygon fill="black" stroke="black" points="448.04,-45.48 451.26,-35.39 442.44,-41.27 448.04,-45.48"/>
<text text-anchor="middle" x="451.6" y="-57.8" font-family="Times,serif" font-size="14.00">समासः</text>
</g>
<!-- Node8_1 -->
<g id="node12" class="node">
<title>Node8_1</title>
<ellipse fill="#40e0d0" stroke="#40e0d0" cx="179.6" cy="-105" rx="51.99" ry="18"/>
<text text-anchor="middle" x="179.6" y="-101.3" font-family="Times,serif" font-size="14.00">सोदर्यैः(8.1)</text>
</g>
<!-- Node8_1&#45;&gt;Node6_2 -->
<g id="edge11" class="edge">
<title>Node8_1&#45;&gt;Node6_2</title>
<path fill="none" stroke="black" d="M209.47,-127.52C230.39,-142.59 257.82,-162.35 276.49,-175.79"/>
<polygon fill="black" stroke="black" points="211.4,-124.6 201.24,-121.59 207.31,-130.28 211.4,-124.6"/>
<text text-anchor="middle" x="261.6" y="-144.8" font-family="Times,serif" font-size="14.00">सहार्थः</text>
</g>
<!-- Node9_1 -->
<g id="node13" class="node">
<title>Node9_1</title>
<ellipse fill="#ff99ff" stroke="#ff99ff" cx="102.6" cy="-18" rx="42.49" ry="18"/>
<text text-anchor="middle" x="102.6" y="-14.3" font-family="Times,serif" font-size="14.00">सह(9.1)</text>
</g>
<!-- Node9_1&#45;&gt;Node8_1 -->
<g id="edge12" class="edge">
<title>Node9_1&#45;&gt;Node8_1</title>
<path fill="none" stroke="black" d="M123.89,-42.5C136.84,-56.8 153.06,-74.71 164.65,-87.5"/>
<polygon fill="black" stroke="black" points="126.39,-40.05 117.08,-34.99 121.2,-44.75 126.39,-40.05"/>
<text text-anchor="middle" x="180.1" y="-57.8" font-family="Times,serif" font-size="14.00">सहार्थ_द्योतकः</text>
</g>
</g>
</svg>
